<svg width="20" height="20" viewBox="0 0 20 20" fill="none" xmlns="http://www.w3.org/2000/svg">
<mask id="mask0_1_637" style="mask-type:alpha" maskUnits="userSpaceOnUse" x="0" y="0" width="20" height="20">
<rect width="20" height="20" fill="#D9D9D9"/>
</mask>
<g mask="url(#mask0_1_637)">
<path d="M6.75 12H13.25V11.1458C13.25 10.6597 12.9375 10.2465 12.3125 9.90625C11.6875 9.56597 10.9167 9.39583 10 9.39583C9.08333 9.39583 8.3125 9.56597 7.6875 9.90625C7.0625 10.2465 6.75 10.6597 6.75 11.1458V12ZM10.0044 8.5C10.4181 8.5 10.7708 8.35271 11.0625 8.05812C11.3542 7.76354 11.5 7.40937 11.5 6.99562C11.5 6.58187 11.3527 6.22917 11.0581 5.9375C10.7635 5.64583 10.4094 5.5 9.99563 5.5C9.58188 5.5 9.22917 5.64729 8.9375 5.94188C8.64583 6.23646 8.5 6.59063 8.5 7.00438C8.5 7.41813 8.64729 7.77083 8.94187 8.0625C9.23646 8.35417 9.59063 8.5 10.0044 8.5ZM2 18V3.5C2 3.0875 2.14688 2.73438 2.44063 2.44063C2.73438 2.14688 3.0875 2 3.5 2H16.5C16.9125 2 17.2656 2.14688 17.5594 2.44063C17.8531 2.73438 18 3.0875 18 3.5V13.5C18 13.9125 17.8531 14.2656 17.5594 14.5594C17.2656 14.8531 16.9125 15 16.5 15H5L2 18ZM4.375 13.5H16.5V3.5H3.5V14.375L4.375 13.5Z" fill="#3DA4C2"/>
</g>
</svg>
