<svg width="63" height="54" viewBox="0 0 63 54" fill="none" xmlns="http://www.w3.org/2000/svg">
<path fill-rule="evenodd" clip-rule="evenodd" d="M11 0C11.5523 0 12 0.447715 12 1V3.5H17V1C17 0.447715 17.4477 0 18 0C18.5523 0 19 0.447715 19 1V3.5H24V1C24 0.447715 24.4477 0 25 0C25.5523 0 26 0.447715 26 1V3.5H31V1C31 0.447715 31.4477 0 32 0C32.5523 0 33 0.447715 33 1V3.5H38V1C38 0.447715 38.4477 0 39 0C39.5523 0 40 0.447715 40 1V3.5H45V1C45 0.447715 45.4477 0 46 0C46.5523 0 47 0.447715 47 1V3.5H52V1C52 0.447715 52.4477 0 53 0C53.5523 0 54 0.447715 54 1V3.5H59C61.2091 3.5 63 5.29086 63 7.5V12.5V49.5C63 51.7091 61.2091 53.5 59 53.5H4C1.79086 53.5 0 51.7091 0 49.5V12.5V7.5C0 5.29086 1.79086 3.5 4 3.5H10V1C10 0.447715 10.4477 0 11 0ZM2 13.5V49.5C2 50.6046 2.89543 51.5 4 51.5H59C60.1046 51.5 61 50.6046 61 49.5V13.5H2ZM61 11.5H2V7.5C2 6.39543 2.89543 5.5 4 5.5H10V7.5C10 8.05228 10.4477 8.5 11 8.5C11.5523 8.5 12 8.05228 12 7.5V5.5H17V7.5C17 8.05228 17.4477 8.5 18 8.5C18.5523 8.5 19 8.05228 19 7.5V5.5H24V7.5C24 8.05228 24.4477 8.5 25 8.5C25.5523 8.5 26 8.05228 26 7.5V5.5H31V7.5C31 8.05228 31.4477 8.5 32 8.5C32.5523 8.5 33 8.05228 33 7.5V5.5H38V7.5C38 8.05228 38.4477 8.5 39 8.5C39.5523 8.5 40 8.05228 40 7.5V5.5H45V7.5C45 8.05228 45.4477 8.5 46 8.5C46.5523 8.5 47 8.05228 47 7.5V5.5H52V7.5C52 8.05228 52.4477 8.5 53 8.5C53.5523 8.5 54 8.05228 54 7.5V5.5H59C60.1046 5.5 61 6.39543 61 7.5V11.5ZM7 18.5H14V25.5H7V18.5ZM5 18.5C5 17.3954 5.89543 16.5 7 16.5H14C15.1046 16.5 16 17.3954 16 18.5V25.5C16 26.6046 15.1046 27.5 14 27.5H7C5.89543 27.5 5 26.6046 5 25.5V18.5ZM14 32.5H7V39.5H14V32.5ZM7 30.5C5.89543 30.5 5 31.3954 5 32.5V39.5C5 40.6046 5.89543 41.5 7 41.5H14C15.1046 41.5 16 40.6046 16 39.5V32.5C16 31.3954 15.1046 30.5 14 30.5H7ZM21 18.5H28V25.5H21V18.5ZM19 18.5C19 17.3954 19.8954 16.5 21 16.5H28C29.1046 16.5 30 17.3954 30 18.5V25.5C30 26.6046 29.1046 27.5 28 27.5H21C19.8954 27.5 19 26.6046 19 25.5V18.5ZM42 18.5H35V25.5H42V18.5ZM35 16.5C33.8954 16.5 33 17.3954 33 18.5V25.5C33 26.6046 33.8954 27.5 35 27.5H42C43.1046 27.5 44 26.6046 44 25.5V18.5C44 17.3954 43.1046 16.5 42 16.5H35ZM49 18.5H56V25.5H49V18.5ZM47 18.5C47 17.3954 47.8954 16.5 49 16.5H56C57.1046 16.5 58 17.3954 58 18.5V25.5C58 26.6046 57.1046 27.5 56 27.5H49C47.8954 27.5 47 26.6046 47 25.5V18.5ZM29.3652 32.6359C28.9713 32.1219 28.415 31.7543 27.7855 31.5922C27.156 31.4301 26.4899 31.4829 25.8943 31.742C25.3611 31.9706 24.8856 32.3559 24.5 32.8672C24.1144 32.3546 23.6389 31.9693 23.1057 31.742C22.5101 31.4829 21.844 31.4301 21.2145 31.5922C20.585 31.7543 20.0287 32.1219 19.6348 32.6359C19.2195 33.1765 19 33.852 19 34.5894C19 35.6505 19.6371 36.8146 20.8934 38.0507C21.9171 39.0576 23.1269 39.8822 23.7567 40.284C23.9786 40.4251 24.2365 40.5 24.5 40.5C24.7635 40.5 25.0214 40.4251 25.2433 40.284C25.8726 39.8822 27.0829 39.0576 28.1066 38.0507C29.3629 36.8151 30 35.6505 30 34.5894C30 33.852 29.7805 33.1765 29.3652 32.6359ZM41.7855 31.5922C42.415 31.7543 42.9713 32.1219 43.3652 32.6359C43.7805 33.1765 44 33.852 44 34.5894C44 35.6505 43.3629 36.8151 42.1066 38.0507C41.0829 39.0576 39.8726 39.8822 39.2433 40.284C39.0214 40.4251 38.7635 40.5 38.5 40.5C38.2365 40.5 37.9786 40.4251 37.7567 40.284C37.1269 39.8822 35.9171 39.0576 34.8934 38.0507C33.6371 36.8146 33 35.6505 33 34.5894C33 33.852 33.2195 33.1765 33.6348 32.6359C34.0287 32.1219 34.585 31.7543 35.2145 31.5922C35.844 31.4301 36.5101 31.4829 37.1057 31.742C37.6389 31.9693 38.1144 32.3546 38.5 32.8672C38.8856 32.3559 39.3611 31.9706 39.8943 31.742C40.4899 31.4829 41.156 31.4301 41.7855 31.5922Z" fill="url(#paint0_linear_1_261)"/>
<defs>
<linearGradient id="paint0_linear_1_261" x1="9.75227" y1="6.68377" x2="46.0777" y2="49.0855" gradientUnits="userSpaceOnUse">
<stop stop-color="#FE5B52"/>
<stop offset="1" stop-color="#3E96F4"/>
</linearGradient>
</defs>
</svg>
