<svg width="20" height="20" viewBox="0 0 20 20" fill="none" xmlns="http://www.w3.org/2000/svg">
<rect x="0.5" y="0.5" width="19" height="19" rx="9.5" stroke="#80C4FF"/>
<path d="M14.4207 12.3747C14.4207 12.4231 14.4207 12.4719 14.4166 12.5203C14.3725 13.3377 13.9698 14.1088 13.2921 14.674C12.6144 15.2391 11.7137 15.5547 10.7766 15.5556C8.86103 15.5556 6.93147 14.995 6.93147 14.995C6.64884 14.9021 6.39212 14.7577 6.17846 14.5714C5.9648 14.3851 5.7991 14.1611 5.69244 13.9144C5.58577 13.6677 5.54058 13.404 5.55989 13.1409C5.57919 12.8777 5.66255 12.6212 5.8044 12.3884C5.81966 12.3622 5.8456 12.3419 5.87712 12.3315C5.90864 12.3211 5.94348 12.3213 5.97481 12.3321C5.97481 12.3321 9.03325 13.3557 10.7771 13.3557C10.9651 13.3553 11.15 13.3138 11.315 13.235C11.48 13.1562 11.6197 13.0427 11.7216 12.9046C11.8235 12.7666 11.8842 12.6086 11.8982 12.4448C11.9122 12.2811 11.879 12.1169 11.8018 11.9672C11.7408 11.85 11.6539 11.7444 11.546 11.6566C11.4382 11.5687 11.3115 11.5004 11.1733 11.4554L8.57836 10.6027C7.78027 10.3401 7.11298 9.84136 6.69274 9.19331C6.2725 8.54526 6.12594 7.78901 6.2786 7.0563C6.43126 6.32359 6.87346 5.66087 7.52816 5.1836C8.18286 4.70633 9.00856 4.44475 9.86142 4.44444C12.4248 4.44444 14.3549 5.37864 14.3549 5.37864C14.3732 5.38464 14.3899 5.39401 14.4038 5.4061C14.4177 5.41819 14.4285 5.43273 14.4355 5.44875C14.4424 5.46477 14.4454 5.48191 14.4442 5.49901C14.4429 5.51611 14.4375 5.53278 14.4283 5.54792L13.7764 6.6199C13.5095 7.05806 12.9519 7.17104 12.3789 7.0805C12.3789 7.0805 10.8181 6.64273 9.86097 6.64273C9.86097 6.64273 9.18202 6.55179 8.80738 7.28009C8.64147 7.60291 8.7623 7.89304 8.83578 8.03122C8.89657 8.14881 8.98339 8.25474 9.09124 8.34291C9.1991 8.43108 9.32587 8.49975 9.46424 8.54497L12.0588 9.39728C12.7525 9.62492 13.3502 10.0319 13.7722 10.5638C14.1942 11.0958 14.4204 11.7275 14.4207 12.3747Z" fill="#0089FF"/>
</svg>
