<svg width="48" height="48" viewBox="0 0 48 48" fill="none" xmlns="http://www.w3.org/2000/svg">
<rect width="48" height="48" rx="8" fill="white"/>
<path fill-rule="evenodd" clip-rule="evenodd" d="M18.4607 24.8425C19.9297 24.8425 21.3392 25.4302 22.3779 26.4764C23.4164 27.5225 23.9999 28.9415 24 30.4208C24 31.5241 23.6749 32.6029 23.0664 33.5203C22.4578 34.4376 21.5929 35.1529 20.5809 35.5752C19.5689 35.9974 18.455 36.1081 17.3806 35.8929C16.3062 35.6776 15.3191 35.1464 14.5445 34.3663C13.77 33.5861 13.2426 32.5918 13.0288 31.5097C12.8151 30.4276 12.9251 29.3057 13.3443 28.2863C13.7635 27.267 14.4736 26.3959 15.3844 25.7829C16.2951 25.1701 17.3655 24.8426 18.4607 24.8425ZM20.9237 28.5568C20.8425 28.5574 20.7622 28.574 20.6874 28.606C20.6124 28.638 20.544 28.6841 20.4872 28.7427L17.8455 31.4045L16.7419 30.293C16.6261 30.179 16.4702 30.115 16.3083 30.1159C16.1464 30.1169 15.9911 30.1826 15.8766 30.2979C15.7622 30.4132 15.6979 30.5696 15.6969 30.7327C15.696 30.8957 15.7586 31.0527 15.8717 31.1694L17.4109 32.7186C17.468 32.7762 17.5355 32.8222 17.6101 32.8534C17.6847 32.8845 17.7647 32.9006 17.8455 32.9006C17.9261 32.9006 18.0062 32.8845 18.0808 32.8534C18.1555 32.8222 18.2239 32.7762 18.281 32.7186L21.3583 29.6201C21.4165 29.5628 21.4622 29.494 21.494 29.4185C21.5258 29.3432 21.5423 29.2623 21.5429 29.1804C21.5433 29.0985 21.5279 29.0163 21.497 28.9404C21.466 28.8647 21.4207 28.7957 21.3632 28.7378C21.3057 28.6799 21.2372 28.6342 21.162 28.603C21.0867 28.5719 21.0051 28.5563 20.9237 28.5568Z" fill="#3E96F4"/>
<path d="M10.4623 22.049V35.0469L0.732452 30.7031C0.514688 30.606 0.329183 30.4478 0.199227 30.2467C0.069263 30.0456 3.4384e-05 29.81 0 29.57V17.3786L10.4623 22.049Z" fill="#3E96F4"/>
<path d="M11.6929 30.4208C11.6915 31.8741 12.1535 33.2901 13.0113 34.4587L11.6929 35.0469V30.4208Z" fill="#3E96F4"/>
<path d="M22.1581 24.7107C21.061 23.9868 19.7772 23.6021 18.4656 23.6031C16.671 23.6052 14.9503 24.3239 13.6812 25.6019C12.4122 26.8801 11.6979 28.6133 11.6958 30.4208V22.049L22.1581 17.3786V24.7107Z" fill="#3E96F4"/>
<path d="M21.2518 16.4254L11.0776 20.9679L6.40065 18.8797L16.5749 14.3381L21.2518 16.4254Z" fill="#3E96F4"/>
<path d="M11.0776 12C11.2491 12 11.4188 12.0363 11.5757 12.1062L15.0563 13.6604L4.88203 18.2019L0.903357 16.4254L10.5786 12.1062C10.7356 12.0361 10.9058 12 11.0776 12Z" fill="#3E96F4"/>
</svg>
