<svg width="58" height="64" viewBox="0 0 58 64" fill="none" xmlns="http://www.w3.org/2000/svg">
<path fill-rule="evenodd" clip-rule="evenodd" d="M48.4507 58.7821C48.6221 58.6106 48.8547 58.5143 49.0972 58.5143C49.2203 58.5094 49.3431 58.5294 49.4583 58.5731C49.5734 58.6168 49.6786 58.6834 49.7674 58.7688C49.8562 58.8542 49.9269 58.9567 49.9751 59.07C50.0233 59.1834 50.0481 59.3054 50.048 59.4286V60.0868C50.048 61.1247 49.6358 62.12 48.9019 62.8539C48.168 63.5877 47.1728 64 46.1349 64H3.91317C2.87534 64 1.88006 63.5877 1.14621 62.8539C0.412349 62.12 0 61.1247 0 60.0868V3.91317C0 2.87534 0.412349 1.88001 1.14621 1.14615C1.88006 0.412293 2.87534 0 3.91317 0H36.7086C37.2185 0.000751369 37.7232 0.102104 38.1939 0.298214C38.6645 0.494324 39.0919 0.781338 39.4515 1.14286L48.832 10.5691C49.5588 11.2976 49.9694 12.283 49.9749 13.312V17.7829C49.9749 18.0254 49.8786 18.2579 49.7071 18.4294C49.5357 18.6008 49.3031 18.6972 49.0606 18.6972C48.8181 18.6972 48.5855 18.6008 48.4141 18.4294C48.2426 18.2579 48.1463 18.0254 48.1463 17.7829V13.312C48.1557 13.2147 48.1557 13.1167 48.1463 13.0194H40.3108C39.4338 13.017 38.5934 12.6675 37.9732 12.0474C37.353 11.4272 37.0035 10.5868 37.0011 9.70971V1.87427C36.9038 1.86485 36.8059 1.86485 36.7086 1.87427H3.92232C3.38158 1.87427 2.86294 2.08907 2.48058 2.47143C2.09822 2.85379 1.88348 3.37243 1.88348 3.91317V60.096C1.88348 60.6367 2.09822 61.1553 2.48058 61.5377C2.86294 61.92 3.38158 62.1349 3.92232 62.1349H46.144C46.6847 62.1349 47.2034 61.92 47.5857 61.5377C47.9681 61.1553 48.1829 60.6367 48.1829 60.096V59.4286C48.1829 59.1861 48.2792 58.9535 48.4507 58.7821ZM40.3018 11.1908H46.8388L38.8754 3.2V9.76456C38.8754 10.1428 39.0257 10.5056 39.2932 10.7731C39.5607 11.0406 39.9235 11.1908 40.3018 11.1908ZM9.98472 22.7201C9.77619 22.5831 9.5218 22.5345 9.27747 22.5851C9.03314 22.6357 8.81882 22.7813 8.68182 22.9898C8.54482 23.1984 8.49631 23.4527 8.54689 23.6971C8.59747 23.9414 8.74304 24.1557 8.95158 24.2927C9.9797 25.0397 11.2102 25.4574 12.4807 25.4904V26.7521C12.4807 26.9946 12.577 27.2271 12.7485 27.3986C12.9199 27.57 13.1525 27.6664 13.395 27.6664C13.6375 27.6664 13.8701 27.57 14.0415 27.3986C14.213 27.2271 14.3093 26.9946 14.3093 26.7521V25.4172C15.3363 25.2284 16.2797 24.7263 17.0098 23.9798C17.74 23.2333 18.221 22.279 18.387 21.2481C18.5928 20.1746 18.395 19.0629 17.8314 18.1264C17.2678 17.1899 16.3782 16.4945 15.3333 16.1738L14.3093 15.799V10.5509C14.8598 10.6555 15.3771 10.8907 15.8179 11.2366C16.0009 11.4039 16.243 11.4917 16.4907 11.4806C16.7385 11.4694 16.9717 11.3603 17.139 11.1772C17.3063 10.9941 17.3941 10.7521 17.3829 10.5043C17.3718 10.2566 17.2627 10.0234 17.0796 9.85611C16.2982 9.20355 15.3465 8.78793 14.3367 8.65834V7.52464C14.3367 7.28215 14.2403 7.04961 14.0689 6.87815C13.8974 6.70669 13.6649 6.61035 13.4224 6.61035C13.18 6.61035 12.9474 6.70669 12.7759 6.87815C12.6044 7.04961 12.5082 7.28215 12.5082 7.52464V8.7315L11.9413 8.86867C11.2078 9.10274 10.5523 9.53328 10.0462 10.1135C9.54011 10.6938 9.20268 11.4016 9.07044 12.1601C8.91047 12.8207 8.93778 13.513 9.14934 14.159C9.36091 14.805 9.7483 15.3792 10.2681 15.8172C10.9578 16.3366 11.7105 16.7667 12.5082 17.0972V23.6527C11.5899 23.6149 10.7069 23.2885 9.98472 22.7201ZM11.4018 14.3087C11.1572 14.08 10.9801 13.7885 10.8899 13.466C10.7996 13.1436 10.7996 12.8026 10.8899 12.4801C10.9586 12.0616 11.1407 11.6699 11.4163 11.3476C11.6919 11.0252 12.0505 10.7845 12.4532 10.6515V14.9761C12.0844 14.7839 11.7327 14.5606 11.4018 14.3087ZM14.7481 17.9658C15.3731 18.1458 15.9078 18.5538 16.2464 19.1091C16.585 19.6644 16.7029 20.3266 16.5767 20.9646C16.4765 21.5553 16.2152 22.1069 15.8216 22.5586C15.4279 23.0103 14.9173 23.3446 14.3459 23.5246V17.8287L14.7481 17.9658ZM20.5179 32.0547H7.90982C7.66128 32.0547 7.42296 32.1534 7.24721 32.3292C7.07146 32.5049 6.97266 32.7433 6.97266 32.9919C6.97266 33.2404 7.07146 33.4788 7.24721 33.6545C7.42296 33.8303 7.66128 33.929 7.90982 33.929H20.5179C20.7664 33.929 21.0047 33.8303 21.1805 33.6545C21.3562 33.4788 21.4549 33.2404 21.4549 32.9919C21.4549 32.7433 21.3562 32.5049 21.1805 32.3292C21.0047 32.1534 20.7664 32.0547 20.5179 32.0547ZM20.5185 40.229H7.91049C7.66073 40.229 7.42125 40.3282 7.24464 40.5048C7.06804 40.6814 6.96875 40.921 6.96875 41.1707C6.96875 41.4205 7.06804 41.66 7.24464 41.8366C7.42125 42.0132 7.66073 42.1124 7.91049 42.1124H20.5185C20.7683 42.1124 21.0078 42.0132 21.1844 41.8366C21.361 41.66 21.4602 41.4205 21.4602 41.1707C21.4602 40.921 21.361 40.6814 21.1844 40.5048C21.0078 40.3282 20.7683 40.229 20.5185 40.229ZM7.91038 48.457H20.5184C20.7609 48.457 20.9934 48.5534 21.1648 48.7248C21.3363 48.8963 21.4327 49.1288 21.4327 49.3713C21.4327 49.6138 21.3363 49.8463 21.1648 50.0178C20.9934 50.1893 20.7609 50.2856 20.5184 50.2856H7.91038C7.6679 50.2856 7.4353 50.1893 7.26384 50.0178C7.09238 49.8463 6.99609 49.6138 6.99609 49.3713C6.99609 49.1288 7.09238 48.8963 7.26384 48.7248C7.4353 48.5534 7.6679 48.457 7.91038 48.457ZM33.052 37.1934H31.0679C30.8194 37.1934 30.581 37.2921 30.4053 37.4679C30.2296 37.6436 30.1309 37.882 30.1309 38.1305C30.1309 38.3791 30.2296 38.6174 30.4053 38.7932C30.581 38.9689 30.8194 39.0676 31.0679 39.0676H33.052C33.3005 39.0676 33.5388 38.9689 33.7146 38.7932C33.8903 38.6174 33.9891 38.3791 33.9891 38.1305C33.9891 37.882 33.8903 37.6436 33.7146 37.4679C33.5388 37.2921 33.3005 37.1934 33.052 37.1934ZM37.0758 37.1934H39.0689C39.3175 37.1934 39.5559 37.2921 39.7316 37.4679C39.9074 37.6436 40.0061 37.882 40.0061 38.1305C40.0061 38.3791 39.9074 38.6174 39.7316 38.7932C39.5559 38.9689 39.3175 39.0676 39.0689 39.0676H37.0758C36.8273 39.0676 36.5889 38.9689 36.4131 38.7932C36.2374 38.6174 36.1387 38.3791 36.1387 38.1305C36.1387 37.882 36.2374 37.6436 36.4131 37.4679C36.5889 37.2921 36.8273 37.1934 37.0758 37.1934ZM45.1024 37.1933H43.1092C42.8607 37.1933 42.6224 37.292 42.4466 37.4678C42.2709 37.6435 42.1721 37.8819 42.1721 38.1304C42.1721 38.379 42.2709 38.6173 42.4466 38.7931C42.6224 38.9688 42.8607 39.0675 43.1092 39.0675H45.1024C45.351 39.0675 45.5893 38.9688 45.765 38.7931C45.9408 38.6173 46.0395 38.379 46.0395 38.1304C46.0395 37.8819 45.9408 37.6435 45.765 37.4678C45.5893 37.292 45.351 37.1933 45.1024 37.1933ZM49.1618 37.1934H51.155C51.4035 37.1934 51.6418 37.2921 51.8176 37.4679C51.9933 37.6436 52.092 37.882 52.092 38.1305C52.092 38.3791 51.9933 38.6174 51.8176 38.7932C51.6418 38.9689 51.4035 39.0676 51.155 39.0676H49.1618C48.9132 39.0676 48.6749 38.9689 48.4992 38.7932C48.3234 38.6174 48.2246 38.3791 48.2246 38.1305C48.2246 37.882 48.3234 37.6436 48.4992 37.4679C48.6749 37.2921 48.9132 37.1934 49.1618 37.1934ZM33.0507 42.0571H31.0666C30.8241 42.0571 30.5917 42.1535 30.4202 42.3249C30.2487 42.4964 30.1523 42.7289 30.1523 42.9714C30.1523 43.2139 30.2487 43.4464 30.4202 43.6179C30.5917 43.7894 30.8241 43.8857 31.0666 43.8857H33.0507C33.2932 43.8857 33.5257 43.7894 33.6972 43.6179C33.8687 43.4464 33.965 43.2139 33.965 42.9714C33.965 42.7289 33.8687 42.4964 33.6972 42.3249C33.5257 42.1535 33.2932 42.0571 33.0507 42.0571ZM37.0744 42.0571H39.0675C39.31 42.0571 39.5426 42.1535 39.7141 42.3249C39.8855 42.4964 39.9818 42.7289 39.9818 42.9714C39.9818 43.2139 39.8855 43.4464 39.7141 43.6179C39.5426 43.7894 39.31 43.8857 39.0675 43.8857H37.0744C36.832 43.8857 36.5994 43.7894 36.4279 43.6179C36.2564 43.4464 36.1602 43.2139 36.1602 42.9714C36.1602 42.7289 36.2564 42.4964 36.4279 42.3249C36.5994 42.1535 36.832 42.0571 37.0744 42.0571ZM45.103 42.0571H43.1098C42.8673 42.0571 42.6347 42.1534 42.4632 42.3249C42.2918 42.4963 42.1955 42.7289 42.1955 42.9713C42.1955 43.2138 42.2918 43.4464 42.4632 43.6178C42.6347 43.7893 42.8673 43.8856 43.1098 43.8856H45.103C45.3454 43.8856 45.5779 43.7893 45.7494 43.6178C45.9208 43.4464 46.0172 43.2138 46.0172 42.9713C46.0172 42.7289 45.9208 42.4963 45.7494 42.3249C45.5779 42.1534 45.3454 42.0571 45.103 42.0571ZM49.1623 42.0571H51.1555C51.398 42.0571 51.6305 42.1535 51.802 42.3249C51.9734 42.4964 52.0698 42.7289 52.0698 42.9714C52.0698 43.2139 51.9734 43.4464 51.802 43.6179C51.6305 43.7894 51.398 43.8857 51.1555 43.8857H49.1623C48.9198 43.8857 48.6873 43.7894 48.5158 43.6179C48.3443 43.4464 48.248 43.2139 48.248 42.9714C48.248 42.7289 48.3443 42.4964 48.5158 42.3249C48.6873 42.1535 48.9198 42.0571 49.1623 42.0571ZM33.0507 46.9395H31.0666C30.8241 46.9395 30.5917 47.0357 30.4202 47.2072C30.2487 47.3787 30.1523 47.6113 30.1523 47.8537C30.1523 48.0962 30.2487 48.3288 30.4202 48.5002C30.5917 48.6717 30.8241 48.768 31.0666 48.768H33.0507C33.2932 48.768 33.5257 48.6717 33.6972 48.5002C33.8687 48.3288 33.965 48.0962 33.965 47.8537C33.965 47.6113 33.8687 47.3787 33.6972 47.2072C33.5257 47.0357 33.2932 46.9395 33.0507 46.9395ZM37.0744 46.9395H39.0675C39.31 46.9395 39.5426 47.0357 39.7141 47.2072C39.8855 47.3787 39.9818 47.6113 39.9818 47.8537C39.9818 48.0962 39.8855 48.3288 39.7141 48.5002C39.5426 48.6717 39.31 48.768 39.0675 48.768H37.0744C36.832 48.768 36.5994 48.6717 36.4279 48.5002C36.2564 48.3288 36.1602 48.0962 36.1602 47.8537C36.1602 47.6113 36.2564 47.3787 36.4279 47.2072C36.5994 47.0357 36.832 46.9395 37.0744 46.9395ZM45.103 46.9394H43.1098C42.8673 46.9394 42.6347 47.0357 42.4632 47.2071C42.2918 47.3786 42.1955 47.6112 42.1955 47.8537C42.1955 48.0961 42.2918 48.3287 42.4632 48.5001C42.6347 48.6716 42.8673 48.7679 43.1098 48.7679H45.103C45.3454 48.7679 45.5779 48.6716 45.7494 48.5001C45.9208 48.3287 46.0172 48.0961 46.0172 47.8537C46.0172 47.6112 45.9208 47.3786 45.7494 47.2071C45.5779 47.0357 45.3454 46.9394 45.103 46.9394ZM49.1623 46.9395H51.1555C51.398 46.9395 51.6305 47.0357 51.802 47.2072C51.9734 47.3787 52.0698 47.6113 52.0698 47.8537C52.0698 48.0962 51.9734 48.3288 51.802 48.5002C51.6305 48.6717 51.398 48.768 51.1555 48.768H49.1623C48.9198 48.768 48.6873 48.6717 48.5158 48.5002C48.3443 48.3288 48.248 48.0962 48.248 47.8537C48.248 47.6113 48.3443 47.3787 48.5158 47.2072C48.6873 47.0357 48.9198 46.9395 49.1623 46.9395ZM28.4795 21.2759H53.7138C54.1458 21.2686 54.575 21.3474 54.9763 21.5077C55.3775 21.668 55.7428 21.9066 56.0508 22.2096C56.3589 22.5125 56.6036 22.8738 56.7706 23.2723C56.9376 23.6709 57.0236 24.0986 57.0235 24.5307V52.7272C57.0211 53.5897 56.6775 54.4163 56.0676 55.0261C55.4577 55.636 54.6312 55.9797 53.7687 55.9821H28.5253C27.6628 55.9797 26.8363 55.636 26.2264 55.0261C25.6165 54.4163 25.2728 53.5897 25.2704 52.7272V32.0644C25.2704 31.8219 25.3667 31.5894 25.5381 31.4179C25.7096 31.2465 25.9422 31.1501 26.1847 31.1501C26.4271 31.1501 26.6597 31.2465 26.8312 31.4179C27.0027 31.5894 27.0989 31.8219 27.0989 32.0644V52.7272C27.1013 53.0927 27.2476 53.4425 27.506 53.7009C27.7644 53.9592 28.1141 54.1054 28.4795 54.1078H53.6773C54.0427 54.1054 54.3924 53.9592 54.6508 53.7009C54.9092 53.4425 55.0554 53.0927 55.0578 52.7272V24.5307C55.0578 24.1646 54.9123 23.8134 54.6534 23.5545C54.3945 23.2956 54.0434 23.1501 53.6773 23.1501H28.4338C28.0676 23.1501 27.7166 23.2956 27.4576 23.5545C27.1987 23.8134 27.0532 24.1646 27.0532 24.5307V27.685C27.0532 27.9275 26.9569 28.16 26.7854 28.3315C26.614 28.503 26.3814 28.5993 26.1389 28.5993C25.8964 28.5993 25.6639 28.503 25.4925 28.3315C25.321 28.16 25.2246 27.9275 25.2246 27.685V24.5307C25.2246 23.6675 25.5676 22.8396 26.178 22.2291C26.7884 21.6187 27.6163 21.2759 28.4795 21.2759ZM51.8942 33.0515C52.0226 32.8128 52.0886 32.5454 52.0862 32.2743V27.4743C52.0891 27.0906 51.9564 26.7183 51.7114 26.4229L51.6108 26.3132C51.4574 26.1591 51.275 26.037 51.0741 25.9538C50.8732 25.8706 50.6579 25.8281 50.4405 25.8286H31.7616C31.3219 25.8286 30.9001 26.0027 30.5883 26.3128C30.2765 26.6229 30.1001 27.0437 30.0977 27.4835V32.2835C30.1001 32.7232 30.2765 33.1441 30.5883 33.4542C30.9001 33.7643 31.3219 33.9383 31.7616 33.9383H50.7696H50.8794H50.9343H51.0165H51.0896H51.1628H51.2268H51.309H51.364C51.3851 33.9425 51.4068 33.9425 51.4279 33.9383H51.492L51.5559 33.8835L51.6108 33.8286L51.6748 33.7646L51.7205 33.7098V33.6458C51.7247 33.6246 51.7247 33.6029 51.7205 33.5817L51.7753 33.4812L51.8942 33.0515ZM31.9628 32.0549V27.6937H50.2486V32.0549H31.9628Z" fill="url(#paint0_linear_1_970)"/>
<defs>
<linearGradient id="paint0_linear_1_970" x1="2.67297" y1="1.56773e-06" x2="59.4254" y2="51.9714" gradientUnits="userSpaceOnUse">
<stop stop-color="#FE5B52"/>
<stop offset="0.948075" stop-color="#3E96F4"/>
</linearGradient>
</defs>
</svg>
