<svg width="16" height="16" viewBox="0 0 16 16" fill="none" xmlns="http://www.w3.org/2000/svg">
<path fill-rule="evenodd" clip-rule="evenodd" d="M14.3158 0C15.246 1.35633e-07 16 0.754047 16 1.68421V14.3158C16 15.246 15.246 16 14.3158 16H1.68421C0.754047 16 6.78175e-09 15.246 0 14.3158V1.68421C1.35635e-07 0.754047 0.754047 6.78164e-09 1.68421 0H14.3158ZM3.36842 8.42105C2.90334 8.42105 2.52632 8.79808 2.52632 9.26316V12.6316C2.52632 13.0967 2.90334 13.4737 3.36842 13.4737H4.21053C4.67561 13.4737 5.05263 13.0967 5.05263 12.6316V9.26316C5.05263 8.79808 4.67561 8.42105 4.21053 8.42105H3.36842ZM7.57895 2.52632C7.11387 2.52632 6.73684 2.90334 6.73684 3.36842V12.6316C6.73684 13.0967 7.11387 13.4737 7.57895 13.4737H8.42105C8.88613 13.4737 9.26316 13.0967 9.26316 12.6316V3.36842C9.26316 2.90334 8.88613 2.52632 8.42105 2.52632H7.57895ZM11.7895 5.89474C11.3244 5.89474 10.9474 6.27176 10.9474 6.73684V12.6316C10.9474 13.0967 11.3244 13.4737 11.7895 13.4737H12.6316C13.0967 13.4737 13.4737 13.0967 13.4737 12.6316V6.73684C13.4737 6.27176 13.0967 5.89474 12.6316 5.89474H11.7895Z" fill="url(#paint0_linear_1_1681)"/>
<defs>
<linearGradient id="paint0_linear_1_1681" x1="0" y1="0" x2="16" y2="16" gradientUnits="userSpaceOnUse">
<stop stop-color="white"/>
<stop offset="1" stop-color="#B7D9FD"/>
</linearGradient>
</defs>
</svg>
