<svg width="96" height="96" viewBox="0 0 96 96" fill="none" xmlns="http://www.w3.org/2000/svg">
<path d="M0 4C0 1.79086 1.79086 0 4 0H92C94.2091 0 96 1.79086 96 4V92C96 94.2091 94.2091 96 92 96H4C1.79086 96 0 94.2091 0 92V4Z" fill="#FAFAFA"/>
<mask id="mask0_1_903" style="mask-type:alpha" maskUnits="userSpaceOnUse" x="12" y="12" width="24" height="24">
<rect x="12" y="12" width="24" height="24" fill="#D9D9D9"/>
</mask>
<g mask="url(#mask0_1_903)">
<path d="M25 29.9998V20.9998H16V19.9998H26V29.9998H25ZM29 26.019V17.019H20V16.019H30V26.019H29Z" fill="#D2D7F9"/>
</g>
<mask id="mask1_1_903" style="mask-type:alpha" maskUnits="userSpaceOnUse" x="36" y="12" width="24" height="24">
<rect x="36" y="12" width="24" height="24" fill="#D9D9D9"/>
</mask>
<g mask="url(#mask1_1_903)">
<path d="M45 16.0192V25.0193H54V26.0193H44V16.0192H45ZM41 20V29H50V30H40V20H41Z" fill="#D2D7F9"/>
</g>
<mask id="mask2_1_903" style="mask-type:alpha" maskUnits="userSpaceOnUse" x="60" y="12" width="24" height="24">
<rect x="60" y="12" width="24" height="24" fill="#D9D9D9"/>
</mask>
<g mask="url(#mask2_1_903)">
<path d="M73 29.9998V20.9998H64V19.9998H74V29.9998H73ZM77 26.019V17.019H68V16.019H78V26.019H77Z" fill="#D2D7F9"/>
</g>
<mask id="mask3_1_903" style="mask-type:alpha" maskUnits="userSpaceOnUse" x="12" y="36" width="24" height="24">
<rect x="12" y="36" width="24" height="24" fill="#D9D9D9"/>
</mask>
<g mask="url(#mask3_1_903)">
<path d="M21 40.0192V49.0193H30V50.0193H20V40.0192H21ZM17 44V53H26V54H16V44H17Z" fill="#D2D7F9"/>
</g>
<mask id="mask4_1_903" style="mask-type:alpha" maskUnits="userSpaceOnUse" x="36" y="36" width="24" height="24">
<rect x="36" y="36" width="24" height="24" fill="#D9D9D9"/>
</mask>
<g mask="url(#mask4_1_903)">
<path d="M52 53L56 49V40H47L43 44H52V53ZM46 59L50 55V46H41L37 50H46V59Z" fill="#0E5CEF"/>
</g>
<mask id="mask5_1_903" style="mask-type:alpha" maskUnits="userSpaceOnUse" x="60" y="36" width="24" height="24">
<rect x="60" y="36" width="24" height="24" fill="#D9D9D9"/>
</mask>
<g mask="url(#mask5_1_903)">
<path d="M73 53.9998V44.9998H64V43.9998H74V53.9998H73ZM77 50.019V41.019H68V40.019H78V50.019H77Z" fill="#D2D7F9"/>
</g>
<mask id="mask6_1_903" style="mask-type:alpha" maskUnits="userSpaceOnUse" x="12" y="60" width="24" height="24">
<rect x="12" y="60" width="24" height="24" fill="#D9D9D9"/>
</mask>
<g mask="url(#mask6_1_903)">
<path d="M25 77.9998V68.9998H16V67.9998H26V77.9998H25ZM29 74.019V65.019H20V64.019H30V74.019H29Z" fill="#D2D7F9"/>
</g>
<mask id="mask7_1_903" style="mask-type:alpha" maskUnits="userSpaceOnUse" x="36" y="60" width="24" height="24">
<rect x="36" y="60" width="24" height="24" fill="#D9D9D9"/>
</mask>
<g mask="url(#mask7_1_903)">
<path d="M45 64.0192V73.0193H54V74.0193H44V64.0192H45ZM41 68V77H50V78H40V68H41Z" fill="#D2D7F9"/>
</g>
<mask id="mask8_1_903" style="mask-type:alpha" maskUnits="userSpaceOnUse" x="60" y="60" width="24" height="24">
<rect x="60" y="60" width="24" height="24" fill="#D9D9D9"/>
</mask>
<g mask="url(#mask8_1_903)">
<path d="M73 77.9998V68.9998H64V67.9998H74V77.9998H73ZM77 74.019V65.019H68V64.019H78V74.019H77Z" fill="#D2D7F9"/>
</g>
</svg>
