<svg width="60" height="64" viewBox="0 0 60 64" fill="none" xmlns="http://www.w3.org/2000/svg">
<path d="M42.2229 43.9579C42.474 43.7065 42.6244 43.3718 42.6455 43.0171C42.6666 42.6624 42.557 42.3123 42.3375 42.0329L40.6875 39.9349C41.0354 39.2701 41.3234 38.5757 41.5483 37.8599L44.1972 37.5431C44.5499 37.5007 44.8749 37.3306 45.1108 37.0649C45.3466 36.7992 45.4769 36.4563 45.4772 36.101V31.9875C45.477 31.6322 45.3466 31.2893 45.1108 31.0235C44.875 30.7578 44.5499 30.5876 44.1972 30.5452L41.5494 30.2286C41.3246 29.5126 41.0365 28.818 40.6885 28.153L42.3379 26.0557C42.5573 25.7763 42.6668 25.4262 42.6457 25.0715C42.6246 24.7168 42.4743 24.3822 42.2233 24.1307L39.3143 21.2217C39.0629 20.9707 38.7282 20.8204 38.3735 20.7993C38.0188 20.7782 37.6687 20.8877 37.3893 21.1072L35.2913 22.7572C34.6264 22.4096 33.932 22.1215 33.2163 21.8966L32.8994 19.2475C32.857 18.8947 32.6869 18.5697 32.4211 18.3339C32.1554 18.098 31.8125 17.9677 31.4572 17.9675H27.3434C26.9881 17.9677 26.6452 18.098 26.3795 18.3339C26.1137 18.5697 25.9436 18.8947 25.9012 19.2475L25.5845 21.8965C24.8687 22.1213 24.1743 22.4093 23.5095 22.757L21.4115 21.107C21.1321 20.8874 20.782 20.7779 20.4273 20.799C20.0726 20.8201 19.7379 20.9705 19.4865 21.2216L16.5777 24.1305C16.3265 24.3819 16.1762 24.7165 16.1551 25.0712C16.1339 25.4259 16.2435 25.7761 16.463 26.0555L18.113 28.1532C17.7652 28.818 17.4772 29.5124 17.2524 30.2282L14.6037 30.5449C14.2509 30.5873 13.9259 30.7574 13.69 31.0231C13.4542 31.2889 13.3238 31.6318 13.3237 31.9871V36.101C13.3239 36.4563 13.4542 36.7992 13.6901 37.0649C13.9259 37.3306 14.2509 37.5007 14.6037 37.5431L17.2519 37.8599C17.4768 38.5757 17.7649 39.2701 18.1127 39.9349L16.4634 42.0321C16.2438 42.3115 16.1342 42.6617 16.1553 43.0164C16.1765 43.3711 16.3268 43.7058 16.578 43.9571L19.4869 46.8669C19.7383 47.118 20.073 47.2683 20.4277 47.2894C20.7824 47.3105 21.1325 47.201 21.4119 46.9815L23.5099 45.3315C24.1747 45.6793 24.8691 45.9673 25.5849 46.1921L25.9015 48.841C25.9439 49.1938 26.1141 49.5188 26.3798 49.7547C26.6455 49.9905 26.9885 50.1209 27.3438 50.1211H31.4577C31.8129 50.1208 32.1557 49.9905 32.4214 49.7546C32.687 49.5188 32.8571 49.1938 32.8994 48.8411L33.216 46.1931C33.9321 45.9682 34.6267 45.6801 35.2918 45.3322L37.3889 46.9815C37.6683 47.2011 38.0184 47.3107 38.3732 47.2896C38.7279 47.2684 39.0626 47.1181 39.3139 46.8669L42.2229 43.9579ZM35.8294 43.8467C35.7118 43.7543 35.5692 43.6991 35.4199 43.6883C35.2707 43.6775 35.1216 43.7116 34.9919 43.7862C34.1575 44.2666 33.2644 44.637 32.3349 44.8881C32.1905 44.9271 32.061 45.0084 31.9632 45.1216C31.8653 45.2347 31.8035 45.3746 31.7858 45.5231L31.4153 48.6212H27.3855L27.015 45.5224C26.9973 45.3738 26.9355 45.2339 26.8376 45.1207C26.7397 45.0075 26.6102 44.9262 26.4658 44.8872C25.5366 44.636 24.6438 44.2657 23.8097 43.7855C23.6799 43.7109 23.5309 43.6768 23.3816 43.6877C23.2324 43.6985 23.0898 43.7537 22.9722 43.8462L20.5178 45.7764L17.6678 42.9271L19.5975 40.4734C19.69 40.3557 19.7452 40.2131 19.756 40.0639C19.7668 39.9146 19.7327 39.7656 19.658 39.6359C19.1778 38.8014 18.8075 37.9083 18.5563 36.9789C18.5173 36.8344 18.436 36.705 18.3228 36.6071C18.2097 36.5093 18.0698 36.4475 17.9213 36.4297L14.823 36.0592V32.0296L17.9217 31.6591C18.0702 31.6414 18.2101 31.5796 18.3233 31.4817C18.4365 31.3838 18.5178 31.2543 18.5568 31.1099C18.8079 30.1807 19.1782 29.2878 19.6584 28.4536C19.733 28.3239 19.7671 28.1749 19.7564 28.0256C19.7456 27.8764 19.6904 27.7338 19.5979 27.6161L17.6679 25.1617L20.5177 22.3125L22.972 24.2426C23.0897 24.3351 23.2323 24.3903 23.3815 24.4011C23.5308 24.4118 23.6798 24.3777 23.8095 24.3031C24.6437 23.823 25.5365 23.4528 26.4657 23.2016C26.6101 23.1626 26.7396 23.0813 26.8375 22.9682C26.9353 22.855 26.9971 22.7152 27.0149 22.5666L27.3854 19.4676H31.415L31.7855 22.5666C31.8033 22.7152 31.8651 22.855 31.963 22.9682C32.0609 23.0813 32.1903 23.1626 32.3348 23.2016C33.2639 23.4529 34.1567 23.8231 34.9909 24.3032C35.1206 24.3779 35.2697 24.412 35.4189 24.4012C35.5682 24.3904 35.7108 24.3352 35.8284 24.2427L38.2832 22.3125L41.1324 25.1617L39.2028 27.6155C39.1103 27.7331 39.0551 27.8757 39.0443 28.025C39.0335 28.1742 39.0676 28.3233 39.1422 28.453C39.6225 29.2875 39.9928 30.1806 40.244 31.1101C40.283 31.2545 40.3643 31.384 40.4775 31.4818C40.5907 31.5797 40.7305 31.6415 40.879 31.6592L43.9772 32.0296V36.0591L40.8783 36.4296C40.7297 36.4474 40.5899 36.5092 40.4767 36.6071C40.3636 36.7049 40.2823 36.8344 40.2433 36.9789C39.992 37.908 39.6217 38.8008 39.1415 39.635C39.0669 39.7647 39.0329 39.9138 39.0437 40.063C39.0545 40.2123 39.1097 40.3549 39.2022 40.4725L41.1324 42.927L38.2832 45.7764L35.8294 43.8467ZM29.4004 26.552C27.9185 26.552 26.47 26.9914 25.2378 27.8146C24.0057 28.6379 23.0454 29.808 22.4783 31.1771C21.9112 32.5462 21.7628 34.0526 22.0519 35.506C22.341 36.9594 23.0545 38.2944 24.1024 39.3423C25.1502 40.3901 26.4852 41.1037 27.9386 41.3928C29.392 41.6819 30.8985 41.5335 32.2676 40.9664C33.6366 40.3993 34.8068 39.439 35.63 38.2068C36.4533 36.9747 36.8927 35.5261 36.8927 34.0442C36.8904 32.0579 36.1003 30.1535 34.6957 28.7489C33.2912 27.3443 31.3868 26.5542 29.4004 26.552ZM29.4004 40.0366C28.2152 40.0366 27.0566 39.6852 26.0712 39.0268C25.0857 38.3683 24.3177 37.4325 23.8641 36.3375C23.4105 35.2425 23.2918 34.0377 23.523 32.8753C23.7542 31.7128 24.325 30.6451 25.163 29.807C26.001 28.969 27.0688 28.3982 28.2312 28.167C29.3936 27.9358 30.5985 28.0545 31.6934 28.508C32.7884 28.9615 33.7243 29.7296 34.3828 30.715C35.0412 31.7005 35.3927 32.8591 35.3927 34.0442C35.3909 35.6329 34.759 37.1561 33.6356 38.2795C32.5122 39.4029 30.9891 40.0348 29.4004 40.0366ZM43.1167 60.0961H58.7302C58.8619 60.0962 58.9912 60.0616 59.1053 59.9958C59.2194 59.93 59.3142 59.8353 59.38 59.7213C59.4459 59.6073 59.4806 59.4779 59.4806 59.3462C59.4807 59.2145 59.446 59.0852 59.3802 58.9711L51.5729 45.45C51.5071 45.336 51.4124 45.2413 51.2984 45.1754C51.1844 45.1096 51.055 45.0749 50.9233 45.0749C50.7917 45.0749 50.6623 45.1096 50.5483 45.1754C50.4343 45.2413 50.3396 45.336 50.2738 45.45L42.467 58.9711C42.4012 59.0852 42.3665 59.2145 42.3666 59.3462C42.3666 59.4779 42.4013 59.6073 42.4672 59.7213C42.533 59.8353 42.6278 59.93 42.7419 59.9958C42.8559 60.0616 42.9853 60.0962 43.117 60.0961H43.1167ZM50.9234 47.325L57.4312 58.5967H44.4157L50.9234 47.325ZM8.08754 45.3911C6.69426 45.3911 5.33226 45.8042 4.17378 46.5783C3.0153 47.3523 2.11237 48.4525 1.57917 49.7397C1.04598 51.027 0.90646 52.4434 1.17827 53.8099C1.45008 55.1764 2.12101 56.4316 3.1062 57.4168C4.0914 58.402 5.34662 59.0729 6.71313 59.3448C8.07964 59.6166 9.49607 59.4771 10.7833 58.9439C12.0705 58.4107 13.1707 57.5077 13.9448 56.3492C14.7188 55.1908 15.1319 53.8288 15.1319 52.4355C15.1298 50.5679 14.3869 48.7773 13.0663 47.4567C11.7457 46.1361 9.95518 45.3932 8.08754 45.3911ZM8.08754 57.9801C6.99094 57.9801 5.91896 57.655 5.00716 57.0458C4.09536 56.4365 3.38469 55.5706 2.96502 54.5575C2.54534 53.5444 2.43552 52.4296 2.64943 51.3541C2.86334 50.2785 3.39138 49.2906 4.16678 48.5151C4.94217 47.7397 5.93009 47.2116 7.00562 46.9977C8.08114 46.7837 9.19595 46.8935 10.2091 47.3131C11.2222 47.7327 12.0882 48.4434 12.6974 49.3552C13.3067 50.2669 13.6319 51.3389 13.6319 52.4355C13.6303 53.9055 13.0456 55.3148 12.0062 56.3542C10.9668 57.3937 9.55752 57.9784 8.08754 57.9801ZM35.6948 14.0889C35.8937 14.0889 36.0845 14.0099 36.2251 13.8692C36.3658 13.7285 36.4448 13.5378 36.4448 13.3389V0.75C36.4448 0.551087 36.3658 0.360322 36.2251 0.21967C36.0845 0.0790176 35.8937 0 35.6948 0L23.1059 0C22.907 0 22.7162 0.0790176 22.5756 0.21967C22.4349 0.360322 22.3559 0.551087 22.3559 0.75V13.3389C22.3559 13.5378 22.4349 13.7285 22.5756 13.8692C22.7162 14.0099 22.907 14.0889 23.1059 14.0889H35.6948ZM23.8559 1.5H34.9448V12.5889H23.8559V1.5ZM4.32722e-05 34.26C-0.000115711 28.3888 1.73694 22.6489 4.99247 17.763C8.248 12.8771 12.8764 9.06367 18.2949 6.803L16.3055 5.976C16.1219 5.89965 15.976 5.75346 15.9001 5.56959C15.8242 5.38573 15.8245 5.17924 15.9009 4.99556C15.9772 4.81188 16.1234 4.66606 16.3073 4.59016C16.4911 4.51427 16.6976 4.51452 16.8813 4.59087L20.6108 6.14087C20.7072 6.18098 20.7943 6.2408 20.8663 6.3165C20.9383 6.39219 20.9937 6.48209 21.0289 6.58044C21.0641 6.67878 21.0784 6.78341 21.0709 6.8876C21.0633 6.99179 21.0341 7.09326 20.985 7.1855L19.089 10.7517C19.0434 10.8398 18.9808 10.9179 18.9048 10.9815C18.8288 11.0452 18.7409 11.0931 18.6462 11.1226C18.5516 11.1521 18.452 11.1625 18.3533 11.1532C18.2546 11.144 18.1587 11.1153 18.0711 11.0687C17.9836 11.0222 17.9062 10.9588 17.8433 10.8821C17.7804 10.8054 17.7334 10.7171 17.7049 10.6221C17.6764 10.5272 17.667 10.4275 17.6773 10.3289C17.6875 10.2303 17.7172 10.1347 17.7647 10.0476L18.7193 8.25212C8.36191 12.6467 1.50004 22.919 1.50004 34.26C1.49393 37.8577 2.17879 41.4231 3.51742 44.7625C3.55406 44.854 3.57234 44.9517 3.57119 45.0503C3.57005 45.1488 3.54951 45.2461 3.51074 45.3367C3.47198 45.4273 3.41576 45.5094 3.34528 45.5782C3.2748 45.6471 3.19145 45.7014 3.09998 45.7381C3.00851 45.7747 2.91073 45.793 2.8122 45.7918C2.71367 45.7907 2.61633 45.7701 2.52574 45.7314C2.43516 45.6926 2.35309 45.6364 2.28423 45.5659C2.21537 45.4954 2.16106 45.4121 2.12442 45.3206C0.714748 41.8037 -0.00643594 38.0489 4.32722e-05 34.26ZM29.74 64C24.9255 64.0023 20.1825 62.835 15.919 60.5984L16.614 62.3984C16.6857 62.5839 16.6807 62.7904 16.6002 62.9723C16.5197 63.1542 16.3702 63.2966 16.1846 63.3683C15.999 63.44 15.7926 63.435 15.6107 63.3545C15.4288 63.2739 15.2863 63.1244 15.2147 62.9389L13.7595 59.1711C13.7219 59.0737 13.705 58.9694 13.71 58.865C13.715 58.7607 13.7418 58.6585 13.7886 58.5651C13.8353 58.4717 13.9011 58.3891 13.9817 58.3226C14.0623 58.2561 14.1558 58.2071 14.2564 58.1789L18.1447 57.0866C18.2399 57.0586 18.3397 57.0498 18.4384 57.0607C18.5371 57.0715 18.6326 57.1019 18.7194 57.1499C18.8063 57.198 18.8827 57.2628 18.9443 57.3406C19.0059 57.4185 19.0515 57.5078 19.0783 57.6033C19.1051 57.6989 19.1128 57.7988 19.1007 57.8973C19.0886 57.9959 19.0571 58.091 19.008 58.1773C18.9589 58.2635 18.8931 58.3392 18.8146 58.3998C18.736 58.4605 18.6462 58.5049 18.5503 58.5306L16.3732 59.1422C19.6894 60.9189 23.3262 62.0173 27.0715 62.3732C30.8167 62.7292 34.5954 62.3356 38.1869 61.2155C38.2813 61.1846 38.3808 61.1728 38.4798 61.1808C38.5788 61.1887 38.6752 61.2162 38.7634 61.2617C38.8517 61.3071 38.93 61.3697 38.9939 61.4457C39.0578 61.5216 39.106 61.6096 39.1356 61.7043C39.1653 61.799 39.1759 61.8987 39.1667 61.9976C39.1575 62.0964 39.1288 62.1925 39.0823 62.2802C39.0357 62.3679 38.9722 62.4454 38.8954 62.5084C38.8186 62.5713 38.7301 62.6184 38.635 62.6469C35.7558 63.5464 32.7565 64.0027 29.74 64ZM59.4802 34.26C59.4917 38.4825 58.5941 42.658 56.8484 46.5027L58.8285 45.738C59.0141 45.6663 59.2205 45.6713 59.4024 45.7518C59.5843 45.8323 59.7267 45.9818 59.7984 46.1674C59.8701 46.3529 59.8651 46.5593 59.7846 46.7412C59.7041 46.9231 59.5546 47.0656 59.369 47.1372L55.6014 48.5922C55.504 48.6299 55.3997 48.6467 55.2954 48.6418C55.191 48.6368 55.0889 48.6101 54.9955 48.5633C54.9021 48.5166 54.8195 48.4508 54.7529 48.3703C54.6864 48.2897 54.6374 48.1962 54.6092 48.0956L53.5168 44.2072C53.463 44.0157 53.4874 43.8107 53.5848 43.6372C53.6822 43.4638 53.8445 43.3361 54.036 43.2823C54.2275 43.2285 54.4325 43.253 54.606 43.3503C54.7794 43.4477 54.9071 43.61 54.9609 43.8015L55.5215 45.7974C57.1457 42.1623 57.9835 38.2251 57.98 34.2436C57.9766 30.2622 57.132 26.3265 55.5015 22.6942C53.8711 19.0619 51.4916 15.8151 48.5189 13.1665C45.5463 10.5179 42.0476 8.52727 38.252 7.325C38.064 7.26381 37.9077 7.13081 37.8172 6.95496C37.7267 6.77911 37.7094 6.57464 37.7689 6.38604C37.8284 6.19745 37.96 6.04 38.1351 5.94797C38.3101 5.85593 38.5144 5.83676 38.7035 5.89462C44.6567 7.79578 49.8675 11.5087 53.6082 16.5149C57.4375 21.6369 59.4984 27.8648 59.4802 34.26Z" fill="url(#paint0_linear_1_453)"/>
<defs>
<linearGradient id="paint0_linear_1_453" x1="0" y1="0" x2="65.1989" y2="57.5112" gradientUnits="userSpaceOnUse">
<stop offset="0.179351" stop-color="#FE5B52"/>
<stop offset="0.886918" stop-color="#3E96F4"/>
</linearGradient>
</defs>
</svg>
