<svg width="130" height="130" viewBox="0 0 130 130" fill="none" xmlns="http://www.w3.org/2000/svg">
<g filter="url(#filter0_d_0_622)">
<path d="M10 22C10 15.3726 15.3726 10 22 10H108C114.627 10 120 15.3726 120 22V108C120 114.627 114.627 120 108 120H22C15.3726 120 10 114.627 10 108V22Z" fill="white"/>
</g>
<rect x="15.8" y="15.8" width="98.4" height="98.4" rx="7.2" fill="#E8F4FF" stroke="#6CB0F9" stroke-width="1.6"/>
<rect x="21.5" y="22.5" width="67" height="24" rx="5.5" fill="white" fill-opacity="0.6" stroke="#4D4C4D"/>
<path d="M70 38H50" stroke="#B3B3B3" stroke-width="2" stroke-linecap="round"/>
<path d="M81 31L50 31" stroke="#808080" stroke-width="2" stroke-linecap="round"/>
<path d="M43.8687 32.0866L42.8866 29.2315C42.7627 28.8721 42.5305 28.5603 42.2223 28.3396C41.914 28.1189 41.5451 28.0002 41.1667 28H30.8333C30.4549 28.0002 30.0859 28.1189 29.7777 28.3396C29.4695 28.5603 29.2373 28.8721 29.1134 29.2315L28.1313 32.0866C27.8978 32.7646 27.9784 33.4559 28.3519 33.9828C28.7356 34.5243 29.3893 34.8349 30.1457 34.8349C30.8874 34.8349 31.6314 34.536 32.2042 34.0357C32.6466 34.5337 33.3108 34.8349 34.0486 34.8349C34.7945 34.8349 35.4957 34.5372 36 34.036C36.5211 34.5494 37.2219 34.8363 37.9514 34.8349C38.6896 34.8349 39.3538 34.5337 39.7958 34.0357C40.2665 34.448 40.8456 34.7149 41.4636 34.8044V39.756C41.4632 40.0398 41.3508 40.3119 41.1512 40.5125C40.9515 40.7132 40.6809 40.826 40.3986 40.8264H38.3635V38.1994C38.3629 37.5969 38.1246 37.0193 37.7009 36.5932C37.2772 36.1672 36.7027 35.9275 36.1035 35.9268H35.9323C35.3329 35.9273 34.7582 36.1669 34.3344 36.593C33.9105 37.019 33.6721 37.5968 33.6715 38.1994V40.8264H31.6014C31.3191 40.826 31.0485 40.7132 30.8488 40.5125C30.6492 40.3119 30.5368 40.0398 30.5364 39.756V34.6144C30.5364 34.4587 30.4749 34.3095 30.3655 34.1994C30.256 34.0894 30.1075 34.0275 29.9527 34.0275C29.7979 34.0275 29.6495 34.0894 29.54 34.1994C29.4306 34.3095 29.3691 34.4587 29.3691 34.6144V39.756C29.3697 40.3509 29.605 40.9214 30.0235 41.3421C30.4419 41.7628 31.0093 41.9994 31.601 42H40.3989C40.9907 41.9993 41.558 41.7626 41.9764 41.3419C42.3948 40.9213 42.6302 40.3509 42.6309 39.756V34.714C43.0504 34.5771 43.4041 34.3271 43.6484 33.9828C44.0216 33.4555 44.1022 32.7646 43.8687 32.0866ZM34.8393 40.8264V38.1994C34.8396 37.908 34.9548 37.6287 35.1597 37.4226C35.3647 37.2166 35.6425 37.1007 35.9323 37.1004H36.1035C36.7062 37.1004 37.1965 37.5934 37.1965 38.1994V40.8264H34.8393ZM42.6967 33.3021C42.5329 33.5337 42.2336 33.6613 41.8538 33.6613C41.2176 33.6613 40.5491 33.2837 40.1908 32.7216C40.1306 32.6272 40.0447 32.5522 39.9434 32.5053C39.8421 32.4585 39.7296 32.4418 39.6192 32.4572C39.5087 32.4727 39.405 32.5196 39.3202 32.5924C39.2355 32.6653 39.1733 32.761 39.1409 32.8683C38.9958 33.3499 38.5289 33.6613 37.951 33.6613C37.3448 33.6613 36.7728 33.3103 36.5276 32.7881C36.4804 32.6875 36.4057 32.6024 36.3123 32.5429C36.2188 32.4833 36.1104 32.4517 35.9998 32.4517C35.8892 32.4517 35.7808 32.4833 35.6873 32.5429C35.5939 32.6024 35.5192 32.6875 35.472 32.7881C35.2268 33.3103 34.6544 33.6613 34.0478 33.6613C33.4707 33.6613 33.0038 33.3499 32.8583 32.8683C32.8259 32.761 32.7636 32.6653 32.6788 32.5925C32.5941 32.5197 32.4903 32.4729 32.3799 32.4575C32.2695 32.4421 32.157 32.4588 32.0557 32.5057C31.9544 32.5526 31.8686 32.6276 31.8084 32.722C31.4504 33.2837 30.7819 33.6609 30.1454 33.6609C29.766 33.6609 29.4663 33.5337 29.3021 33.3021C29.1484 33.085 29.1243 32.7896 29.234 32.47L30.2162 29.6153C30.2606 29.4864 30.3438 29.3746 30.4544 29.2954C30.5649 29.2163 30.6972 29.1737 30.8329 29.1736H41.1663C41.4441 29.1736 41.6916 29.3513 41.7826 29.6149L42.7648 32.4704C42.8749 32.7896 42.8508 33.0846 42.6967 33.3021Z" fill="#808080"/>
<rect x="21.5" y="83.5" width="67" height="24" rx="5.5" fill="white" fill-opacity="0.6" stroke="#4D4C4D"/>
<path d="M70 99H50" stroke="#B3B3B3" stroke-width="2" stroke-linecap="round"/>
<path d="M81 92H50" stroke="#808080" stroke-width="2" stroke-linecap="round"/>
<path d="M43.8687 93.0866L42.8866 90.2315C42.7627 89.8721 42.5305 89.5603 42.2223 89.3396C41.914 89.1189 41.5451 89.0002 41.1667 89H30.8333C30.4549 89.0002 30.0859 89.1189 29.7777 89.3396C29.4695 89.5603 29.2373 89.8721 29.1134 90.2315L28.1313 93.0866C27.8978 93.7646 27.9784 94.4559 28.3519 94.9828C28.7356 95.5243 29.3893 95.8349 30.1457 95.8349C30.8874 95.8349 31.6314 95.536 32.2042 95.0357C32.6466 95.5337 33.3108 95.8349 34.0486 95.8349C34.7945 95.8349 35.4957 95.5372 36 95.036C36.5211 95.5494 37.2219 95.8363 37.9514 95.8349C38.6896 95.8349 39.3538 95.5337 39.7958 95.0357C40.2665 95.448 40.8456 95.7149 41.4636 95.8044V100.756C41.4632 101.04 41.3508 101.312 41.1512 101.513C40.9515 101.713 40.6809 101.826 40.3986 101.826H38.3635V99.1994C38.3629 98.5969 38.1246 98.0193 37.7009 97.5932C37.2772 97.1672 36.7027 96.9275 36.1035 96.9268H35.9323C35.3329 96.9273 34.7582 97.1669 34.3344 97.593C33.9105 98.019 33.6721 98.5968 33.6715 99.1994V101.826H31.6014C31.3191 101.826 31.0485 101.713 30.8488 101.513C30.6492 101.312 30.5368 101.04 30.5364 100.756V95.6144C30.5364 95.4587 30.4749 95.3095 30.3655 95.1994C30.256 95.0894 30.1075 95.0275 29.9527 95.0275C29.7979 95.0275 29.6495 95.0894 29.54 95.1994C29.4306 95.3095 29.3691 95.4587 29.3691 95.6144V100.756C29.3697 101.351 29.605 101.921 30.0235 102.342C30.4419 102.763 31.0093 102.999 31.601 103H40.3989C40.9907 102.999 41.558 102.763 41.9764 102.342C42.3948 101.921 42.6302 101.351 42.6309 100.756V95.714C43.0504 95.5771 43.4041 95.3271 43.6484 94.9828C44.0216 94.4555 44.1022 93.7646 43.8687 93.0866ZM34.8393 101.826V99.1994C34.8396 98.908 34.9548 98.6287 35.1597 98.4226C35.3647 98.2166 35.6425 98.1007 35.9323 98.1004H36.1035C36.7062 98.1004 37.1965 98.5934 37.1965 99.1994V101.826H34.8393ZM42.6967 94.3021C42.5329 94.5337 42.2336 94.6613 41.8538 94.6613C41.2176 94.6613 40.5491 94.2837 40.1908 93.7216C40.1306 93.6272 40.0447 93.5522 39.9434 93.5053C39.8421 93.4585 39.7296 93.4418 39.6192 93.4572C39.5087 93.4727 39.405 93.5196 39.3202 93.5924C39.2355 93.6653 39.1733 93.761 39.1409 93.8683C38.9958 94.3499 38.5289 94.6613 37.951 94.6613C37.3448 94.6613 36.7728 94.3103 36.5276 93.7881C36.4804 93.6875 36.4057 93.6024 36.3123 93.5429C36.2188 93.4833 36.1104 93.4517 35.9998 93.4517C35.8892 93.4517 35.7808 93.4833 35.6873 93.5429C35.5939 93.6024 35.5192 93.6875 35.472 93.7881C35.2268 94.3103 34.6544 94.6613 34.0478 94.6613C33.4707 94.6613 33.0038 94.3499 32.8583 93.8683C32.8259 93.761 32.7636 93.6653 32.6788 93.5925C32.5941 93.5197 32.4903 93.4729 32.3799 93.4575C32.2695 93.4421 32.157 93.4588 32.0557 93.5057C31.9544 93.5526 31.8686 93.6276 31.8084 93.722C31.4504 94.2837 30.7819 94.6609 30.1454 94.6609C29.766 94.6609 29.4663 94.5337 29.3021 94.3021C29.1484 94.085 29.1243 93.7896 29.234 93.47L30.2162 90.6153C30.2606 90.4864 30.3438 90.3746 30.4544 90.2954C30.5649 90.2163 30.6972 90.1737 30.8329 90.1736H41.1663C41.4441 90.1736 41.6916 90.3513 41.7826 90.6149L42.7648 93.4704C42.8749 93.7896 42.8508 94.0846 42.6967 94.3021Z" fill="#808080"/>
<rect x="42.5" y="53.5" width="67" height="24" rx="5.5" fill="#6CB0F9" fill-opacity="0.4" stroke="#4D4C4D"/>
<path d="M92 69H72" stroke="#808080" stroke-width="2" stroke-linecap="round"/>
<path d="M102 62H72" stroke="#5C5C5C" stroke-width="2" stroke-linecap="round"/>
<path d="M64.8687 63.0866L63.8866 60.2315C63.7627 59.8721 63.5305 59.5603 63.2223 59.3396C62.914 59.1189 62.5451 59.0002 62.1667 59H51.8333C51.4549 59.0002 51.0859 59.1189 50.7777 59.3396C50.4695 59.5603 50.2373 59.8721 50.1134 60.2315L49.1313 63.0866C48.8978 63.7646 48.9784 64.4559 49.3519 64.9828C49.7356 65.5243 50.3893 65.8349 51.1457 65.8349C51.8874 65.8349 52.6314 65.536 53.2042 65.0357C53.6466 65.5337 54.3108 65.8349 55.0486 65.8349C55.7945 65.8349 56.4957 65.5372 57 65.036C57.5211 65.5494 58.2219 65.8363 58.9514 65.8349C59.6896 65.8349 60.3538 65.5337 60.7958 65.0357C61.2665 65.448 61.8456 65.7149 62.4636 65.8044V70.756C62.4632 71.0398 62.3508 71.3119 62.1512 71.5125C61.9515 71.7132 61.6809 71.826 61.3986 71.8264H59.3635V69.1994C59.3629 68.5969 59.1246 68.0193 58.7009 67.5932C58.2772 67.1672 57.7027 66.9275 57.1035 66.9268H56.9323C56.3329 66.9273 55.7582 67.1669 55.3344 67.593C54.9105 68.019 54.6721 68.5968 54.6715 69.1994V71.8264H52.6014C52.3191 71.826 52.0485 71.7132 51.8488 71.5125C51.6492 71.3119 51.5368 71.0398 51.5364 70.756V65.6144C51.5364 65.4587 51.4749 65.3095 51.3655 65.1994C51.256 65.0894 51.1075 65.0275 50.9527 65.0275C50.7979 65.0275 50.6495 65.0894 50.54 65.1994C50.4306 65.3095 50.3691 65.4587 50.3691 65.6144V70.756C50.3697 71.3509 50.605 71.9214 51.0235 72.3421C51.4419 72.7628 52.0093 72.9994 52.601 73H61.3989C61.9907 72.9993 62.558 72.7626 62.9764 72.3419C63.3948 71.9213 63.6302 71.3509 63.6309 70.756V65.714C64.0504 65.5771 64.4041 65.3271 64.6484 64.9828C65.0216 64.4555 65.1022 63.7646 64.8687 63.0866ZM55.8393 71.8264V69.1994C55.8396 68.908 55.9548 68.6287 56.1597 68.4226C56.3647 68.2166 56.6425 68.1007 56.9323 68.1004H57.1035C57.7062 68.1004 58.1965 68.5934 58.1965 69.1994V71.8264H55.8393ZM63.6967 64.3021C63.5329 64.5337 63.2336 64.6613 62.8538 64.6613C62.2176 64.6613 61.5491 64.2837 61.1908 63.7216C61.1306 63.6272 61.0447 63.5522 60.9434 63.5053C60.8421 63.4585 60.7296 63.4418 60.6192 63.4572C60.5087 63.4727 60.405 63.5196 60.3202 63.5924C60.2355 63.6653 60.1733 63.761 60.1409 63.8683C59.9958 64.3499 59.5289 64.6613 58.951 64.6613C58.3448 64.6613 57.7728 64.3103 57.5276 63.7881C57.4804 63.6875 57.4057 63.6024 57.3123 63.5429C57.2188 63.4833 57.1104 63.4517 56.9998 63.4517C56.8892 63.4517 56.7808 63.4833 56.6873 63.5429C56.5939 63.6024 56.5192 63.6875 56.472 63.7881C56.2268 64.3103 55.6544 64.6613 55.0478 64.6613C54.4707 64.6613 54.0038 64.3499 53.8583 63.8683C53.8259 63.761 53.7636 63.6653 53.6788 63.5925C53.5941 63.5197 53.4903 63.4729 53.3799 63.4575C53.2695 63.4421 53.157 63.4588 53.0557 63.5057C52.9544 63.5526 52.8686 63.6276 52.8084 63.722C52.4504 64.2837 51.7819 64.6609 51.1454 64.6609C50.766 64.6609 50.4663 64.5337 50.3021 64.3021C50.1484 64.085 50.1243 63.7896 50.234 63.47L51.2162 60.6153C51.2606 60.4864 51.3438 60.3746 51.4544 60.2954C51.5649 60.2163 51.6972 60.1737 51.8329 60.1736H62.1663C62.4441 60.1736 62.6916 60.3513 62.7826 60.6149L63.7648 63.4704C63.8749 63.7896 63.8508 64.0846 63.6967 64.3021Z" fill="#5C5C5C"/>
<path d="M30.2933 74H28.7067C28.4473 73.9998 28.1969 73.9045 28.003 73.7322C27.809 73.5599 27.6849 73.3226 27.6541 73.065L27.4848 71.7362C27.1503 71.6276 26.8249 71.4928 26.5115 71.3331L25.4533 72.1555C25.249 72.3161 24.9926 72.3958 24.7332 72.3793C24.4738 72.3629 24.2296 72.2514 24.0473 72.0662L22.9316 70.9506C22.7475 70.7684 22.6369 70.5248 22.6209 70.2662C22.605 70.0077 22.6848 69.7523 22.8452 69.5488L23.6676 68.4899C23.5073 68.1768 23.3725 67.8514 23.2645 67.5166L21.9329 67.3473C21.6756 67.3156 21.4388 67.1909 21.2671 66.9968C21.0953 66.8027 21.0003 66.5525 21 66.2933V64.7067C21 64.1705 21.4016 63.7178 21.935 63.6541L23.2638 63.4848C23.3724 63.1503 23.5072 62.8249 23.6669 62.5115L22.8452 61.4533C22.6842 61.2489 22.6043 60.9923 22.6209 60.7327C22.6375 60.4731 22.7494 60.2287 22.9352 60.0465L24.0508 58.9309C24.2331 58.7469 24.4767 58.6364 24.7352 58.6205C24.9937 58.6045 25.2491 58.6843 25.4526 58.8445L26.5108 59.6676C26.8243 59.5078 27.15 59.373 27.4848 59.2645L27.6541 57.9329C27.7178 57.4016 28.1705 57 28.7067 57H30.2933C30.8295 57 31.2822 57.4016 31.3459 57.935L31.5152 59.2638C31.8538 59.3736 32.1796 59.5089 32.4892 59.6669L33.5474 58.8445C33.7517 58.6837 34.0082 58.6039 34.2676 58.6205C34.5271 58.6371 34.7713 58.7489 34.9535 58.9345L36.0691 60.0501C36.4495 60.4191 36.4877 61.0233 36.1555 61.4519L35.3331 62.5108C35.4918 62.8204 35.6271 63.1462 35.7362 63.4841L37.0678 63.6534C37.3249 63.6851 37.5615 63.8097 37.7332 64.0037C37.9048 64.1977 37.9997 64.4476 38 64.7067V66.2933C38 66.8295 37.5984 67.2822 37.065 67.3459L35.7362 67.5152C35.6276 67.8497 35.4928 68.1751 35.3331 68.4885L36.1555 69.5467C36.3163 69.751 36.3961 70.0075 36.3795 70.2669C36.3629 70.5264 36.2511 70.7706 36.0655 70.9527L34.9499 72.0684C34.7678 72.2527 34.5241 72.3634 34.2655 72.3793C34.0069 72.3953 33.7515 72.3153 33.5481 72.1548L32.4892 71.3324C32.1761 71.4927 31.8506 71.6275 31.5159 71.7355L31.3466 73.0671C31.315 73.3243 31.1905 73.5611 30.9965 73.7329C30.8025 73.9047 30.5525 73.9997 30.2933 74ZM26.4754 70.5575C26.5342 70.5575 26.5944 70.5724 26.6482 70.6021C27.0458 70.8234 27.4674 70.9983 27.9048 71.1235C27.9713 71.1425 28.0308 71.1807 28.0758 71.2332C28.1209 71.2857 28.1496 71.3502 28.1584 71.4188L28.3567 72.9772C28.378 73.155 28.5317 73.2917 28.7067 73.2917H30.2933C30.3792 73.2905 30.4618 73.2584 30.5259 73.2013C30.5901 73.1442 30.6315 73.0659 30.6425 72.9807L30.8416 71.4195C30.8504 71.3509 30.8791 71.2864 30.9242 71.2339C30.9692 71.1814 31.0287 71.1433 31.0952 71.1242C31.5326 70.999 31.9542 70.8241 32.3517 70.6028C32.4124 70.5689 32.4817 70.5537 32.551 70.559C32.6203 70.5643 32.6865 70.5899 32.7413 70.6326L33.9809 71.5959C34.0477 71.6497 34.1319 71.6769 34.2175 71.6725C34.3031 71.668 34.384 71.6322 34.4449 71.5718L35.5676 70.4491C35.629 70.3883 35.6658 70.3069 35.6709 70.2207C35.676 70.1344 35.649 70.0493 35.5952 69.9816L34.6319 68.742C34.5893 68.6872 34.5637 68.621 34.5584 68.5517C34.5531 68.4825 34.5683 68.4132 34.6021 68.3525C34.8234 67.9549 34.9983 67.5333 35.1235 67.0959C35.1425 67.0294 35.1807 66.9699 35.2332 66.9249C35.2857 66.8798 35.3502 66.8511 35.4188 66.8423L36.9772 66.644C37.063 66.6332 37.1421 66.5918 37.1999 66.5274C37.2577 66.463 37.2903 66.3799 37.2917 66.2933V64.7067C37.2905 64.6208 37.2584 64.5382 37.2013 64.4741C37.1442 64.4099 37.0659 64.3685 36.9807 64.3575L35.4195 64.1584C35.3509 64.1496 35.2864 64.1209 35.2339 64.0758C35.1814 64.0308 35.1433 63.9713 35.1242 63.9048C34.999 63.4674 34.8241 63.0458 34.6028 62.6482C34.5688 62.5876 34.5534 62.5183 34.5587 62.449C34.564 62.3796 34.5897 62.3134 34.6326 62.2587L35.5959 61.0191C35.6498 60.9526 35.6773 60.8685 35.673 60.783C35.6687 60.6975 35.6329 60.6166 35.5725 60.5558L34.4498 59.4331C34.3893 59.3713 34.3078 59.3342 34.2214 59.3291C34.135 59.324 34.0498 59.3512 33.9823 59.4055L32.7427 60.3688C32.6878 60.4116 32.6215 60.4372 32.5521 60.4425C32.4827 60.4478 32.4132 60.4325 32.3525 60.3986C31.955 60.1771 31.5334 60.0022 31.0959 59.8772C31.0294 59.8582 30.9699 59.82 30.9249 59.7675C30.8798 59.715 30.8511 59.6505 30.8423 59.5819L30.644 58.0235C30.6334 57.9375 30.5921 57.8583 30.5276 57.8003C30.4632 57.7424 30.38 57.7097 30.2933 57.7083H28.7067C28.6208 57.7095 28.5382 57.7416 28.4741 57.7987C28.4099 57.8558 28.3685 57.9341 28.3575 58.0193L28.1584 59.5805C28.1496 59.6491 28.1209 59.7137 28.0758 59.7663C28.0308 59.8189 27.9713 59.8572 27.9048 59.8765C27.4674 60.0012 27.0457 60.1759 26.6482 60.3972C26.5875 60.4312 26.5181 60.4466 26.4487 60.4415C26.3793 60.4363 26.313 60.4108 26.258 60.3681L25.0184 59.4048C24.9519 59.3509 24.8678 59.3234 24.7823 59.3277C24.6968 59.332 24.6159 59.3678 24.5551 59.4282L23.4324 60.5516C23.371 60.6124 23.3342 60.6938 23.3291 60.78C23.324 60.8663 23.351 60.9515 23.4048 61.0191L24.3681 62.2587C24.4107 62.3135 24.4363 62.3797 24.4416 62.449C24.4469 62.5183 24.4317 62.5876 24.3979 62.6482C24.1763 63.0456 24.0014 63.4673 23.8765 63.9048C23.8575 63.9713 23.8193 64.0308 23.7668 64.0758C23.7143 64.1209 23.6498 64.1496 23.5812 64.1584L22.0228 64.3567C21.937 64.3672 21.8578 64.4084 21.8 64.4727C21.7421 64.5371 21.7096 64.6202 21.7083 64.7067V66.2933C21.7083 66.4683 21.845 66.622 22.0193 66.6425L23.5805 66.8416C23.6491 66.8504 23.7136 66.8791 23.7661 66.9242C23.8186 66.9692 23.8567 67.0287 23.8758 67.0952C24.0033 67.5386 24.179 67.9615 24.3972 68.3517C24.4312 68.4124 24.4466 68.4817 24.4413 68.551C24.436 68.6204 24.4103 68.6866 24.3674 68.7413L23.4041 69.9809C23.3502 70.0474 23.3227 70.1315 23.327 70.217C23.3313 70.3025 23.3671 70.3834 23.4275 70.4442L24.5502 71.5669C24.6109 71.6284 24.6923 71.6653 24.7786 71.6704C24.8649 71.6755 24.9501 71.6485 25.0177 71.5945L26.2572 70.6312C26.3201 70.5837 26.3966 70.5579 26.4754 70.5575Z" fill="#2D95F0" stroke="#2D95F0"/>
<circle cx="29.5" cy="65.5" r="2.5" stroke="#2D95F0" stroke-width="2"/>
<path d="M97.9497 41.8995L91 34.9497L97.9497 28L97.9497 32.1213C104.937 32.1213 108.437 37.7781 108.437 51C106.437 44.5 105.937 37.7781 97.9497 37.7781L97.9497 41.8995Z" fill="#808080"/>
<defs>
<filter id="filter0_d_0_622" x="0" y="0" width="130" height="130" filterUnits="userSpaceOnUse" color-interpolation-filters="sRGB">
<feFlood flood-opacity="0" result="BackgroundImageFix"/>
<feColorMatrix in="SourceAlpha" type="matrix" values="0 0 0 0 0 0 0 0 0 0 0 0 0 0 0 0 0 0 127 0" result="hardAlpha"/>
<feOffset/>
<feGaussianBlur stdDeviation="5"/>
<feComposite in2="hardAlpha" operator="out"/>
<feColorMatrix type="matrix" values="0 0 0 0 0.237426 0 0 0 0 0.453591 0 0 0 0 0.685651 0 0 0 0.5 0"/>
<feBlend mode="normal" in2="BackgroundImageFix" result="effect1_dropShadow_0_622"/>
<feBlend mode="normal" in="SourceGraphic" in2="effect1_dropShadow_0_622" result="shape"/>
</filter>
</defs>
</svg>
