<svg width="47" height="42" viewBox="0 0 47 42" fill="none" xmlns="http://www.w3.org/2000/svg">
<path d="M34.2302 17.9988C33.7809 15.3858 32.405 13.0063 30.3561 11.298C30.1229 11.1036 29.7931 11.0753 29.5302 11.227L27.8755 12.1825C27.7577 12.1107 27.6382 12.0416 27.5171 11.9754V10.0583C27.5171 9.75487 27.3281 9.48368 27.0435 9.37869C24.5622 8.4641 21.7823 8.4641 19.301 9.37869C19.0164 9.48369 18.8274 9.75487 18.8274 10.0583V11.9751C18.7064 12.0414 18.5869 12.1105 18.469 12.1822L16.8143 11.2267C16.5515 11.075 16.2216 11.1032 15.9885 11.2977C13.9395 13.0059 12.5636 15.3854 12.1143 17.9985C12.0629 18.2972 12.203 18.5962 12.4655 18.748L14.1231 19.706C14.1213 19.7741 14.1205 19.8432 14.1205 19.9138C14.1205 19.9844 14.1213 20.0536 14.1231 20.1209L12.4655 21.079C12.203 21.2307 12.0629 21.5297 12.1143 21.8284C12.5636 24.4415 13.9395 26.821 15.9885 28.5292C16.2216 28.7237 16.5515 28.7519 16.8143 28.6002L18.4693 27.6447C18.5871 27.7165 18.7065 27.7856 18.8274 27.8518V29.7686C18.8274 30.072 19.0164 30.3432 19.3014 30.4482C20.5418 30.9059 21.8446 31.138 23.1723 31.138C24.5 31.138 25.8027 30.9059 27.0431 30.4489C27.3277 30.3439 27.5171 30.0728 27.5171 29.7693V27.8525C27.638 27.7863 27.7574 27.7172 27.8752 27.6454L29.5302 28.6009C29.793 28.7526 30.1229 28.7244 30.3561 28.53C32.405 26.8217 33.7809 24.4422 34.2302 21.8292C34.2816 21.5305 34.1415 21.2314 33.879 21.0797L32.2214 20.1216C32.2233 20.0536 32.224 19.9844 32.224 19.9138C32.224 19.8432 32.2232 19.7741 32.2214 19.7067L33.879 18.7487C34.1415 18.5966 34.2816 18.2975 34.2302 17.9988ZM31.1121 18.6752C30.9925 18.7442 30.8952 18.846 30.8316 18.9685C30.768 19.091 30.7408 19.2292 30.7533 19.3667C30.7681 19.5358 30.7757 19.7147 30.7757 19.9138C30.7757 20.1129 30.7681 20.2918 30.7533 20.4613C30.7283 20.7419 30.868 21.012 31.1121 21.1528L32.7052 22.0735C32.2718 23.9929 31.2587 25.7435 29.8046 27.0871L28.2155 26.1696C27.974 26.0302 27.6731 26.0418 27.4429 26.2001C27.1478 26.4032 26.831 26.5867 26.474 26.762C26.2259 26.8836 26.0684 27.136 26.0684 27.4123V29.2509C24.1965 29.8334 22.1472 29.8334 20.2753 29.2509V27.4123C20.2753 27.136 20.1178 26.8836 19.8698 26.762C19.5128 26.5871 19.196 26.4032 18.9009 26.2001C18.6706 26.0415 18.3701 26.0299 18.1283 26.1696L16.5391 27.0871C15.0851 25.7435 14.0724 23.9929 13.6386 22.0735L15.2317 21.1528C15.3513 21.0838 15.4486 20.982 15.5122 20.8595C15.5758 20.7369 15.603 20.5987 15.5905 20.4613C15.5764 20.2918 15.5688 20.1129 15.5688 19.9138C15.5688 19.7147 15.5764 19.5358 15.5913 19.3663C15.6162 19.0857 15.4765 18.8156 15.2324 18.6748L13.6393 17.7541C14.0727 15.8347 15.0858 14.0841 16.5399 12.7405L18.129 13.658C18.3709 13.7974 18.6717 13.7858 18.9016 13.6276C19.1964 13.4244 19.5132 13.2409 19.8705 13.0656C20.1182 12.944 20.2757 12.6916 20.2757 12.4153V10.5768C22.1472 9.99418 24.1973 9.99418 26.0688 10.5768V12.4153C26.0688 12.6916 26.2263 12.944 26.4743 13.0656C26.8317 13.2408 27.1485 13.4244 27.4432 13.6276C27.6735 13.7861 27.974 13.7977 28.2159 13.658L29.805 12.7405C31.2591 14.0841 32.2718 15.8347 32.7055 17.7541L31.1121 18.6752ZM5.62714 27.7265C5.2687 27.9039 5.12205 28.3381 5.29947 28.6969C6.08046 30.2733 7.066 31.7433 8.22897 33.0645C8.37234 33.2271 8.57185 33.3103 8.77279 33.3103C8.94297 33.3103 9.11349 33.251 9.25108 33.1297C9.55124 32.8654 9.58057 32.4077 9.31626 32.1076C8.23687 30.8808 7.32283 29.518 6.59748 28.0538C6.42006 27.6954 5.98559 27.5487 5.62714 27.7265ZM13.7216 33.1757C13.8494 33.2665 13.996 33.3104 14.1416 33.3104C14.3675 33.3104 14.5902 33.2046 14.7317 33.0069C14.9638 32.6814 14.8885 32.2292 14.5626 31.9968C12.1686 30.2885 10.3489 27.9376 9.30033 25.1982C9.15731 24.8245 8.73876 24.6381 8.3651 24.7807C7.99144 24.9238 7.80462 25.3423 7.94764 25.716C9.09829 28.7222 11.0951 31.3016 13.7216 33.1757Z" fill="#3E96F4"/>
<path d="M23.1724 15.931C20.9765 15.931 19.1897 17.7178 19.1897 19.9138C19.1897 22.1097 20.9765 23.8965 23.1724 23.8965C25.3684 23.8965 27.1552 22.1097 27.1552 19.9138C27.1552 17.7178 25.3684 15.931 23.1724 15.931ZM23.1724 22.4483C21.7748 22.4483 20.6379 21.3114 20.6379 19.9138C20.6379 18.5162 21.7748 17.3793 23.1724 17.3793C24.57 17.3793 25.7069 18.5162 25.7069 19.9138C25.7069 21.3114 24.57 22.4483 23.1724 22.4483ZM46.1102 36.759L41.7654 32.7763C41.5536 32.5822 41.2472 32.5319 40.9844 32.6474C40.7215 32.7632 40.5517 33.0232 40.5517 33.3103V34.7586H38.7414C38.3416 34.7586 38.0172 35.083 38.0172 35.4827C38.0172 35.8825 38.3416 36.2069 38.7414 36.2069H41.2758C41.6756 36.2069 42 35.8825 42 35.4827V34.9563L44.5489 37.2931L42 39.6299V39.1034C42 38.7037 41.6756 38.3793 41.2758 38.3793H32.9483C32.5485 38.3793 32.2241 38.7037 32.2241 39.1034C32.2241 39.5032 32.5485 39.8276 32.9483 39.8276H40.5517V41.2759C40.5517 41.563 40.7215 41.8229 40.9844 41.9388C41.0782 41.9797 41.1774 42 41.2758 42C41.457 42 41.6317 41.9322 41.7654 41.8099L46.1102 37.8272C46.1842 37.7592 46.2432 37.6767 46.2836 37.5848C46.324 37.4928 46.3448 37.3935 46.3448 37.2931C46.3448 37.09 46.2597 36.8963 46.1102 36.759Z" fill="#3E96F4"/>
<path d="M5.25905 24.7481C5.32696 24.8221 5.40949 24.8812 5.50143 24.9215C5.59336 24.9619 5.69269 24.9828 5.7931 24.9828C5.89352 24.9828 5.99284 24.9619 6.08477 24.9215C6.17671 24.8812 6.25925 24.8221 6.32715 24.7481L10.3099 20.4033C10.504 20.1915 10.5543 19.8852 10.4388 19.6223C10.3229 19.3595 10.063 19.1897 9.77586 19.1897H8.34605C8.37972 18.5057 8.45938 17.8232 8.58683 17.1516C9.90946 10.1506 16.0436 5.06897 23.1724 5.06897C29.2838 5.06897 34.8585 8.91089 37.044 14.629C37.1866 15.0023 37.6052 15.1895 37.9789 15.0469C38.3525 14.9042 38.5393 14.4857 38.3967 14.1116C35.9983 7.83699 29.8801 3.62069 23.1724 3.62069C15.3481 3.62069 8.61543 9.198 7.16353 16.8826C6.97489 17.8793 6.8793 18.8993 6.8793 19.9138C6.8793 20.3135 7.20372 20.6379 7.60345 20.6379H8.1299L5.7931 23.1869L3.4563 20.6379H3.98275C4.38248 20.6379 4.7069 20.3135 4.7069 19.9138C4.7069 19.3233 4.73514 18.7338 4.79053 18.1607C5.67651 8.78923 13.751 1.44829 23.1724 1.44829C30.2498 1.44829 36.6005 5.40461 39.7468 11.773C39.9239 12.1315 40.358 12.2785 40.7168 12.1014C41.0753 11.9244 41.2223 11.4903 41.0452 11.1315C37.6533 4.26518 30.8048 0 23.1724 0C18.1925 0 13.4223 1.85596 9.74038 5.22611C6.0824 8.57416 3.81223 13.1196 3.34914 18.0227C3.31185 18.4058 3.29012 18.7968 3.27601 19.1897H1.81035C1.52322 19.1897 1.26327 19.3595 1.14741 19.622C1.0319 19.8852 1.08223 20.1911 1.2763 20.4029L5.25905 24.7481ZM23.1724 39.8276C28.1523 39.8276 32.9226 37.9716 36.6044 34.6015C40.2628 31.2531 42.5326 26.708 42.996 21.8049C43.0333 21.4218 43.055 21.0308 43.0692 20.6379H44.5344C44.8216 20.6379 45.0815 20.4681 45.1974 20.2056C45.3129 19.9424 45.2626 19.6365 45.0685 19.4246L41.0857 15.0798C40.8113 14.7808 40.2925 14.7808 40.018 15.0798L36.0352 19.4246C35.8412 19.6365 35.7909 19.9428 35.9064 20.2056C36.0219 20.4681 36.2818 20.6379 36.569 20.6379H37.9988C37.9651 21.3219 37.8854 22.0044 37.758 22.676C36.4353 29.677 30.3012 34.7586 23.1724 34.7586H2.17241C0.974327 34.7586 0 35.7329 0 36.931V37.6552C0 38.8533 0.974327 39.8276 2.17241 39.8276H23.1724ZM1.44828 37.6552V36.931C1.44828 36.5317 1.77305 36.2069 2.17242 36.2069H23.1724C30.9967 36.2069 37.7294 30.6296 39.1813 22.945C39.3699 21.9482 39.4655 20.9283 39.4655 19.9138C39.4655 19.5141 39.1411 19.1896 38.7414 19.1896H38.2149L40.5517 16.6407L42.8885 19.1896H42.362C41.9623 19.1896 41.6379 19.514 41.6379 19.9138C41.6379 20.5043 41.6096 21.0937 41.5542 21.6669C40.6683 31.0384 32.5938 38.3793 23.1724 38.3793H2.17241C1.77305 38.3793 1.44828 38.0545 1.44828 37.6552Z" fill="#3E96F4"/>
</svg>
