<svg width="48" height="48" viewBox="0 0 48 48" fill="none" xmlns="http://www.w3.org/2000/svg">
<rect x="0.5" y="0.5" width="47" height="47" fill="#EBF5FF" stroke="#DFE9F2"/>
<path d="M38.4587 17.3333C38.4587 15.8027 37.2107 14.56 35.68 14.56C34.832 14.56 34.064 14.944 33.5573 15.5467L26.8533 11.68C26.9564 11.3907 27.0087 11.0858 27.008 10.7787C27.008 9.248 25.76 8 24.2293 8C22.6987 8 21.4507 9.248 21.4507 10.7787C21.4499 11.0858 21.5023 11.3907 21.6053 11.68L14.9013 15.5467C14.6408 15.2375 14.3158 14.9889 13.9492 14.8185C13.5825 14.6481 13.183 14.5598 12.7787 14.56C11.248 14.56 10 15.8027 10 17.3333C10 18.688 10.9707 19.8133 12.2453 20.0587V27.9413C11.6131 28.0647 11.0433 28.404 10.6337 28.9012C10.2241 29.3984 10.0001 30.0225 10 30.6667C10 32.1973 11.248 33.44 12.7787 33.44C13.6267 33.44 14.3947 33.056 14.9013 32.4533L21.6053 36.32C21.5023 36.6093 21.4499 36.9142 21.4507 37.2213C21.4507 38.752 22.6987 40 24.2293 40C25.76 40 27.008 38.752 27.008 37.2213C27.0087 36.9142 26.9564 36.6093 26.8533 36.32L33.5573 32.4533C33.8179 32.7625 34.1429 33.0111 34.5095 33.1815C34.8762 33.3519 35.2757 33.4402 35.68 33.44C37.2107 33.44 38.4587 32.1973 38.4587 30.6667C38.4587 29.312 37.488 28.1867 36.2133 27.9413V20.0587C36.8456 19.9353 37.4153 19.596 37.8249 19.0988C38.2346 18.6016 38.4586 17.9775 38.4587 17.3333ZM26.32 35.3973C25.8133 34.8107 25.0613 34.4427 24.2293 34.4427C23.3973 34.4427 22.6453 34.8107 22.1387 35.3973L15.424 31.52C15.5446 31.1463 15.5846 30.7512 15.5412 30.3609C15.4979 29.9706 15.3723 29.5939 15.1728 29.2557C14.9732 28.9175 14.7041 28.6255 14.3834 28.3989C14.0626 28.1724 13.6975 28.0164 13.312 27.9413V20.0587C13.6975 19.9836 14.0626 19.8276 14.3834 19.6011C14.7041 19.3745 14.9732 19.0825 15.1728 18.7443C15.3723 18.4061 15.4979 18.0294 15.5412 17.6391C15.5846 17.2488 15.5446 16.8537 15.424 16.48L22.1387 12.6027C22.6453 13.1893 23.3973 13.5573 24.2293 13.5573C25.0613 13.5573 25.8133 13.1893 26.32 12.6027L33.0347 16.48C32.9141 16.8537 32.8741 17.2488 32.9174 17.6391C32.9607 18.0294 33.0863 18.4061 33.2859 18.7443C33.4855 19.0825 33.7546 19.3745 34.0753 19.6011C34.3961 19.8276 34.7612 19.9836 35.1467 20.0587V27.9413C34.7612 28.0164 34.3961 28.1724 34.0753 28.3989C33.7546 28.6255 33.4855 28.9175 33.2859 29.2557C33.0863 29.5939 32.9607 29.9706 32.9174 30.3609C32.8741 30.7512 32.9141 31.1463 33.0347 31.52L26.32 35.3973Z" fill="#0089FF"/>
<path d="M24.2293 15.7493C19.68 15.7493 15.9786 19.4507 15.9786 24C15.9786 28.5493 19.68 32.2507 24.2293 32.2507C28.7786 32.2507 32.48 28.5493 32.48 24C32.48 19.4507 28.7786 15.7493 24.2293 15.7493ZM21.488 25.1467L20.88 26.4747C20.7573 26.7413 20.4426 26.8587 20.176 26.736C20.1116 26.7073 20.0536 26.666 20.0053 26.6147C19.957 26.5634 19.9193 26.503 19.8945 26.437C19.8697 26.3711 19.8583 26.3008 19.8608 26.2304C19.8633 26.1599 19.8798 26.0907 19.9093 26.0267L22.3466 20.72C22.432 20.528 22.624 20.4053 22.832 20.4053C23.04 20.4053 23.2266 20.528 23.3173 20.72L25.0026 24.4053L25.7493 26.0267C25.872 26.2987 25.7546 26.6133 25.488 26.736C25.3599 26.7941 25.214 26.7992 25.0822 26.7502C24.9503 26.7013 24.8432 26.6023 24.784 26.4747L24.176 25.1467H21.488ZM27.632 26.2507C27.632 26.544 27.392 26.784 27.0986 26.784C26.8053 26.784 26.5653 26.544 26.5653 26.2507V20.9387C26.5653 20.6453 26.8053 20.4053 27.0986 20.4053C27.392 20.4053 27.632 20.6453 27.632 20.9387V26.2507Z" fill="#0089FF"/>
<path d="M21.9786 24.08H23.6853L22.832 22.2187L21.9786 24.08Z" fill="#0089FF"/>
</svg>
