<svg width="117" height="35" viewBox="0 0 117 35" fill="none" xmlns="http://www.w3.org/2000/svg">
<path d="M72.0521 27.3713C65.3029 32.346 55.5203 35.0002 47.0976 35.0002C35.2877 35.0002 24.6558 30.6321 16.6123 23.3672C15.9803 22.7959 16.5465 22.0174 17.3049 22.4623C25.9854 27.5128 36.7184 30.5513 47.8054 30.5513C55.2827 30.5513 63.5081 29.0042 71.0713 25.7939C72.2139 25.3086 73.1694 26.5421 72.0521 27.3713Z" fill="#FF9900"/>
<path d="M74.8584 24.1605C73.9989 23.0584 69.1556 23.6398 66.9817 23.8976C66.3194 23.9785 66.2183 23.4022 66.8149 22.9876C70.6723 20.2728 77.0019 21.0564 77.7401 21.9664C78.4782 22.8815 77.5479 29.2263 73.9231 32.2546C73.367 32.7197 72.8361 32.472 73.0838 31.8552C73.8978 29.8228 75.7229 25.2677 74.8584 24.1605Z" fill="#FF9900"/>
<path d="M67.1333 3.822V1.18297C67.1333 0.783572 67.4367 0.515625 67.8007 0.515625H79.6156C79.9948 0.515625 80.2982 0.788628 80.2982 1.18297V3.44283C80.2931 3.822 79.9746 4.31745 79.4084 5.10107L73.286 13.8422C75.561 13.7866 77.9625 14.1253 80.0252 15.2881C80.4903 15.551 80.6167 15.9352 80.652 16.3144V19.1304C80.652 19.5146 80.2274 19.9646 79.7825 19.732C76.1475 17.826 71.3194 17.6188 67.3002 19.7522C66.8907 19.9747 66.4609 19.5298 66.4609 19.1456V16.4711C66.4609 16.0414 66.466 15.3084 66.8957 14.6562L73.9887 4.48428H67.8158C67.4367 4.48428 67.1333 4.21634 67.1333 3.822Z" fill="#221F1F"/>
<path d="M24.0345 20.288H20.4399C20.0961 20.2627 19.8231 20.0049 19.7979 19.6763V1.22833C19.7979 0.859269 20.1062 0.566041 20.4905 0.566041H23.8423C24.1912 0.581198 24.4692 0.849155 24.4945 1.18282V3.59436H24.5602C25.4349 1.26371 27.0779 0.176758 29.2923 0.176758C31.542 0.176758 32.9475 1.26371 33.9586 3.59436C34.8282 1.26371 36.8049 0.176758 38.9232 0.176758C40.4298 0.176758 42.0779 0.798598 43.084 2.19395C44.2215 3.74602 43.989 6.00083 43.989 7.97757L43.9839 19.6207C43.9839 19.9897 43.6755 20.288 43.2913 20.288H39.7018C39.3429 20.2627 39.0547 19.9745 39.0547 19.6207V9.84309C39.0547 9.06453 39.1255 7.12317 38.9536 6.38505C38.6856 5.14643 37.8818 4.79759 36.8403 4.79759C35.9708 4.79759 35.0608 5.37898 34.6917 6.30922C34.3226 7.23945 34.358 8.79658 34.358 9.84309V19.6207C34.358 19.9897 34.0496 20.288 33.6654 20.288H30.0759C29.7119 20.2627 29.4288 19.9745 29.4288 19.6207L29.4237 9.84309C29.4237 7.78546 29.7625 4.75714 27.2094 4.75714C24.626 4.75714 24.7271 7.70962 24.7271 9.84309V19.6207C24.7271 19.9897 24.4187 20.288 24.0345 20.288Z" fill="#221F1F"/>
<path d="M90.4698 0.176758C95.8035 0.176758 98.6903 4.75714 98.6903 10.5812C98.6903 16.2081 95.5002 20.6722 90.4698 20.6722C85.2322 20.6722 82.3809 16.0918 82.3809 10.384C82.3809 4.64087 85.2676 0.176758 90.4698 0.176758ZM90.5002 3.94319C87.851 3.94319 87.6842 7.5529 87.6842 9.80265C87.6842 12.0575 87.6488 16.8704 90.4698 16.8704C93.2555 16.8704 93.3869 12.9877 93.3869 10.6217C93.3869 9.06453 93.3212 7.20406 92.851 5.72782C92.4466 4.4437 91.6428 3.94319 90.5002 3.94319Z" fill="#221F1F"/>
<path d="M105.607 20.288H102.027C101.668 20.2627 101.38 19.9745 101.38 19.6207L101.375 1.16766C101.405 0.828932 101.704 0.566041 102.068 0.566041H105.399C105.713 0.581198 105.971 0.793544 106.041 1.08171V3.90275H106.107C107.113 1.37999 108.524 0.176758 111.006 0.176758C112.619 0.176758 114.191 0.758154 115.202 2.35067C116.142 3.82691 116.142 6.30922 116.142 8.09385V19.7066C116.102 20.0302 115.804 20.288 115.45 20.288H111.845C111.517 20.2627 111.244 20.02 111.208 19.7066V9.68637C111.208 7.66918 111.441 4.7167 108.958 4.7167C108.084 4.7167 107.28 5.30315 106.881 6.19294C106.375 7.32034 106.309 8.44269 106.309 9.68637V19.6207C106.304 19.9897 105.991 20.288 105.607 20.288Z" fill="#221F1F"/>
<path d="M57.7146 11.4762V10.6977C55.116 10.6977 52.3708 11.2538 52.3708 14.3175C52.3708 15.8696 53.1746 16.9211 54.5548 16.9211C55.5659 16.9211 56.4709 16.2993 57.0422 15.2882C57.7499 14.0445 57.7146 12.8766 57.7146 11.4762ZM61.3394 20.2376C61.1018 20.45 60.758 20.4651 60.4901 20.3236C59.297 19.3327 59.0846 18.8726 58.4274 17.9272C56.4557 19.9393 55.0604 20.541 52.5022 20.541C49.479 20.541 47.123 18.6754 47.123 14.9393C47.123 12.0223 48.7055 10.0354 50.9552 9.06472C52.9067 8.20526 55.6316 8.05359 57.7146 7.81598V7.35086C57.7146 6.49646 57.7803 5.48534 57.2798 4.74722C56.8399 4.08494 56.0007 3.81193 55.2626 3.81193C53.8925 3.81193 52.6691 4.51466 52.3708 5.97068C52.3101 6.29424 52.0725 6.61274 51.7489 6.62791L48.2606 6.25379C47.9673 6.18807 47.6438 5.95046 47.7247 5.50051C48.5285 1.27402 52.3455 0 55.7631 0C57.5123 0 59.7975 0.465117 61.1777 1.78969C62.9269 3.42265 62.7601 5.60162 62.7601 7.9727V13.5743C62.7601 15.2578 63.4577 15.996 64.115 16.906C64.3475 17.2295 64.3981 17.6188 64.1049 17.8615C63.3718 18.4732 62.0674 19.6107 61.3495 20.2477L61.3394 20.2376Z" fill="#221F1F"/>
<path d="M10.5915 11.4762V10.6977C7.99292 10.6977 5.24773 11.2538 5.24773 14.3175C5.24773 15.8696 6.05157 16.9211 7.43175 16.9211C8.44287 16.9211 9.34783 16.2993 9.91912 15.2882C10.6269 14.0445 10.5915 12.8766 10.5915 11.4762ZM14.2164 20.2376C13.9788 20.45 13.635 20.4651 13.367 20.3236C12.1739 19.3327 11.9616 18.8726 11.3044 17.9272C9.33266 19.9393 7.93732 20.541 5.37917 20.541C2.35591 20.541 0 18.6754 0 14.9393C0 12.0223 1.58241 10.0354 3.83215 9.06472C5.78362 8.20526 8.5086 8.05359 10.5915 7.81598V7.35086C10.5915 6.49646 10.6572 5.48534 10.1567 4.74722C9.71689 4.08494 8.87766 3.81193 8.13954 3.81193C6.76947 3.81193 5.54601 4.51466 5.24773 5.97068C5.18706 6.29424 4.94944 6.61274 4.62589 6.62791L1.13751 6.25379C0.844287 6.18807 0.520727 5.95046 0.601617 5.50051C1.40546 1.27402 5.22245 0 8.64005 0C10.3893 0 12.6744 0.465117 14.0546 1.78969C15.8039 3.42265 15.637 5.60162 15.637 7.9727V13.5743C15.637 15.2578 16.3347 15.996 16.9919 16.906C17.2245 17.2295 17.275 17.6188 16.9818 17.8615C16.2487 18.4732 14.9444 19.6107 14.2265 20.2477L14.2164 20.2376Z" fill="#221F1F"/>
</svg>
