<svg width="64" height="64" viewBox="0 0 64 64" fill="none" xmlns="http://www.w3.org/2000/svg">
<rect width="64" height="64" rx="8" fill="#9333EA"/>
<path d="M19.346 33.359L24.0734 38.0983C24.1824 38.2115 24.3128 38.3018 24.457 38.3639C24.6012 38.426 24.7563 38.4587 24.9132 38.46C25.0701 38.4614 25.2258 38.4314 25.371 38.3718C25.5162 38.3123 25.6482 38.2243 25.7592 38.113C25.8701 38.0018 25.9579 37.8695 26.0173 37.7239C26.0767 37.5783 26.1066 37.4223 26.1053 37.2649C26.1039 37.1076 26.0713 36.9521 26.0094 36.8076C25.9474 36.663 25.8574 36.5323 25.7445 36.423L21.8527 32.5213L25.7445 28.6197C25.8574 28.5104 25.9474 28.3796 26.0094 28.2351C26.0713 28.0905 26.1039 27.9351 26.1053 27.7777C26.1066 27.6204 26.0767 27.4644 26.0173 27.3188C25.9579 27.1732 25.8701 27.0409 25.7592 26.9296C25.6482 26.8184 25.5162 26.7304 25.371 26.6708C25.2258 26.6113 25.0701 26.5813 24.9132 26.5827C24.7563 26.584 24.6012 26.6167 24.457 26.6788C24.3128 26.7409 24.1824 26.8312 24.0734 26.9443L19.346 31.6837C19.1245 31.9059 19 32.2072 19 32.5213C19 32.8355 19.1245 33.1368 19.346 33.359ZM39.9266 26.9443C39.8176 26.8312 39.6872 26.7409 39.543 26.6788C39.3988 26.6167 39.2437 26.584 39.0868 26.5827C38.9299 26.5813 38.7742 26.6113 38.629 26.6708C38.4838 26.7304 38.3518 26.8184 38.2408 26.9296C38.1299 27.0409 38.0421 27.1732 37.9827 27.3188C37.9233 27.4644 37.8934 27.6204 37.8947 27.7777C37.8961 27.9351 37.9287 28.0905 37.9906 28.2351C38.0526 28.3796 38.1426 28.5104 38.2555 28.6197L42.1473 32.5213L38.2555 36.423C38.1426 36.5323 38.0526 36.663 37.9906 36.8076C37.9287 36.9521 37.8961 37.1076 37.8947 37.2649C37.8934 37.4223 37.9233 37.5783 37.9827 37.7239C38.0421 37.8695 38.1299 38.0018 38.2408 38.113C38.3518 38.2243 38.4838 38.3123 38.629 38.3718C38.7742 38.4314 38.9299 38.4614 39.0868 38.46C39.2437 38.4587 39.3988 38.426 39.543 38.3639C39.6872 38.3018 39.8176 38.2115 39.9266 38.0983L44.654 33.359C44.8755 33.1368 45 32.8355 45 32.5213C45 32.2072 44.8755 31.9059 44.654 31.6837L39.9266 26.9443ZM33.2279 23.9029L28.5006 40.4905C28.4145 40.7925 28.4516 41.1164 28.6036 41.391C28.7556 41.6656 29.0102 41.8684 29.3113 41.955C29.4172 41.9843 29.5265 41.9994 29.6363 42C29.8931 41.9998 30.1429 41.9158 30.3479 41.7605C30.5528 41.6053 30.7017 41.3874 30.7721 41.1398L35.4994 24.5522C35.5487 24.4007 35.567 24.2408 35.5532 24.0821C35.5394 23.9233 35.4938 23.769 35.4192 23.6284C35.3446 23.4877 35.2424 23.3636 35.1188 23.2634C34.9952 23.1632 34.8527 23.0891 34.6999 23.0454C34.547 23.0017 34.387 22.9894 34.2293 23.0091C34.0716 23.0289 33.9195 23.0803 33.7821 23.1604C33.6446 23.2404 33.5247 23.3475 33.4295 23.475C33.3343 23.6026 33.2658 23.7481 33.2279 23.9029Z" fill="white"/>
</svg>
