<svg width="130" height="130" viewBox="0 0 130 130" fill="none" xmlns="http://www.w3.org/2000/svg">
<g filter="url(#filter0_d_0_760)">
<path d="M10 22C10 15.3726 15.3726 10 22 10H108C114.627 10 120 15.3726 120 22V108C120 114.627 114.627 120 108 120H22C15.3726 120 10 114.627 10 108V22Z" fill="white"/>
</g>
<path d="M23 15.7998H107C110.976 15.7998 114.2 19.0235 114.2 23V107C114.2 110.976 110.976 114.2 107 114.2H23C19.0235 114.2 15.7998 110.976 15.7998 107V23C15.7998 19.0235 19.0235 15.7998 23 15.7998Z" fill="#EEF9EE" stroke="#8CD990" stroke-width="1.6"/>
<path d="M23 29C23 25.6863 25.6863 23 29 23H49C52.3137 23 55 25.6863 55 29V49C55 52.3137 52.3137 55 49 55H29C25.6863 55 23 52.3137 23 49V29Z" fill="white"/>
<path d="M29 23.5H49C52.0376 23.5 54.5 25.9624 54.5 29V49C54.5 52.0376 52.0376 54.5 49 54.5H29C25.9624 54.5 23.5 52.0376 23.5 49V29C23.5 25.9624 25.9624 23.5 29 23.5Z" stroke="#4D4C4D" stroke-opacity="0.5"/>
<rect x="27.5" y="27.5" width="23" height="23" rx="1.5" stroke="#4D4C4D"/>
<path d="M27.7621 43.5007L31.0745 40.3548C31.8657 39.6033 33.1134 39.6248 33.8783 40.4031L34.6893 41.2284C35.4993 42.0527 36.8373 42.0209 37.6073 41.159L42.1414 36.0837C42.9084 35.2251 44.2402 35.1898 45.0517 36.0065L50.2621 41.2507" stroke="#4D4C4D"/>
<circle cx="33.7511" cy="33.7502" r="1.75" stroke="#4D4C4D"/>
<path d="M76 29C76 25.6863 78.6863 23 82 23H102C105.314 23 108 25.6863 108 29V49C108 52.3137 105.314 55 102 55H82C78.6863 55 76 52.3137 76 49V29Z" fill="white"/>
<path d="M82 23.5H102C105.038 23.5 107.5 25.9624 107.5 29V49C107.5 52.0376 105.038 54.5 102 54.5H82C78.9624 54.5 76.5 52.0376 76.5 49V29C76.5 25.9624 78.9624 23.5 82 23.5Z" stroke="#4D4C4D" stroke-opacity="0.5"/>
<rect x="80.5" y="27.5" width="23" height="23" rx="1.5" stroke="#4D4C4D"/>
<path d="M80.7621 43.5007L84.0745 40.3548C84.8657 39.6033 86.1134 39.6248 86.8783 40.4031L87.6893 41.2284C88.4993 42.0527 89.8373 42.0209 90.6073 41.159L95.1414 36.0837C95.9084 35.2251 97.2402 35.1898 98.0517 36.0065L103.262 41.2507" stroke="#4D4C4D"/>
<circle cx="86.7511" cy="33.7502" r="1.75" stroke="#4D4C4D"/>
<path d="M67.3333 36.6667H72V41.3333H67.3333V46H62.6667V41.3333H58V36.6667H62.6667V32H67.3333V36.6667Z" fill="#319B36"/>
<path d="M56.6396 64.1934C57.306 62.9374 58.819 62.4461 60.0957 63.0713L64.1484 65.0547L64.1504 65.0557C64.4151 65.1842 64.7058 65.251 65 65.251C65.2942 65.251 65.5849 65.1842 65.8496 65.0557L65.8516 65.0547L69.9043 63.0713C71.1801 62.4462 72.6951 62.938 73.3604 64.1934L75.4727 68.1777C75.6105 68.4382 75.8058 68.6643 76.0439 68.8379C76.282 69.0114 76.5567 69.1281 76.8467 69.1797H76.8486L81.2949 69.96C82.604 70.1891 83.5084 71.334 83.4531 72.6338L83.4297 72.8965L82.7998 77.3652V77.3672C82.7595 77.6583 82.786 77.9549 82.877 78.2344C82.9679 78.5137 83.1204 78.7689 83.3242 78.9805L83.3252 78.9814L86.4619 82.2285L86.4639 82.2314C86.9358 82.7164 87.2002 83.3663 87.2002 84.043C87.2002 84.7198 86.936 85.3704 86.4639 85.8555L86.4619 85.8574L83.3271 89.1025C82.9585 89.4813 82.7678 89.984 82.7812 90.499L82.7998 90.7207L83.4277 95.1914H83.4287C83.6272 96.5957 82.6906 97.8826 81.2939 98.126L81.293 98.127L76.8486 98.9062L76.8457 98.9072C76.2604 99.0121 75.7541 99.3741 75.4727 99.9082L73.3604 103.894C72.8897 104.782 71.9939 105.286 71.0605 105.286C70.7226 105.286 70.3788 105.22 70.0459 105.08L69.9043 105.016L65.8516 103.031L65.8496 103.03L65.6465 102.946C65.4393 102.873 65.2208 102.835 65 102.835C64.7058 102.835 64.4151 102.902 64.1504 103.03L64.1484 103.031L60.0957 105.016C58.8202 105.641 57.306 105.149 56.6396 103.893L54.5273 99.9082C54.3895 99.6479 54.194 99.4226 53.9561 99.249C53.718 99.0755 53.4434 98.9579 53.1533 98.9062H53.1514L48.7051 98.127V98.126C47.3087 97.8816 46.3721 96.5954 46.5703 95.1904V95.1895L47.2002 90.7207V90.7188C47.2405 90.4277 47.214 90.131 47.123 89.8516C47.0321 89.5723 46.8796 89.317 46.6758 89.1055L46.6748 89.1045L43.5381 85.8574L43.5361 85.8555L43.3691 85.666C43.0023 85.2073 42.7998 84.6353 42.7998 84.043C42.7998 83.3661 43.0641 82.7155 43.5361 82.2305L43.5381 82.2285L46.6738 78.9805C47.0937 78.5478 47.2827 77.9554 47.2002 77.3662V77.3652L46.5713 72.8955V72.8945C46.3855 71.5782 47.1964 70.3647 48.4492 70.0176L48.7061 69.96L53.1514 69.1797H53.1543C53.74 69.0748 54.246 68.7118 54.5273 68.1777L56.6396 64.1934Z" fill="#319B36" stroke="#4D4C4D" stroke-width="1.6"/>
<path d="M72.6279 76.3722C72.1836 75.9279 71.4639 75.9279 71.0197 76.3722L57.3722 90.0197C56.9279 90.4639 56.9279 91.1836 57.3722 91.6279C57.5943 91.85 57.8853 91.9611 58.1763 91.9611C58.4673 91.9611 58.7583 91.85 58.9804 91.6279L72.6279 77.9804C73.072 77.5361 73.072 76.8165 72.6279 76.3722ZM63.8672 78.3158C63.8672 75.8057 61.8259 73.7644 59.3158 73.7644C56.8057 73.7644 54.7644 75.8057 54.7644 78.3158C54.7644 80.8259 56.8057 82.8672 59.3158 82.8672C61.8259 82.8672 63.8672 80.8259 63.8672 78.3158ZM57.0391 78.3158C57.0391 77.0608 58.0609 76.039 59.3159 76.039C60.5709 76.039 61.5927 77.0608 61.5927 78.3158C61.5927 79.5708 60.5709 80.5926 59.3159 80.5926C58.0608 80.5926 57.0391 79.5708 57.0391 78.3158ZM70.6842 85.1329C68.1741 85.1329 66.1328 87.1742 66.1328 89.6843C66.1328 92.1943 68.1741 94.2357 70.6842 94.2357C73.1942 94.2357 75.2356 92.1943 75.2356 89.6843C75.2356 87.1742 73.1942 85.1329 70.6842 85.1329ZM70.6842 91.961C69.4292 91.961 68.4074 90.9392 68.4074 89.6842C68.4074 88.4292 69.4292 87.4074 70.6842 87.4074C71.9392 87.4074 72.961 88.4292 72.961 89.6842C72.961 90.9392 71.9392 91.961 70.6842 91.961Z" fill="white" stroke="white" stroke-width="0.6"/>
<defs>
<filter id="filter0_d_0_760" x="0" y="0" width="130" height="130" filterUnits="userSpaceOnUse" color-interpolation-filters="sRGB">
<feFlood flood-opacity="0" result="BackgroundImageFix"/>
<feColorMatrix in="SourceAlpha" type="matrix" values="0 0 0 0 0 0 0 0 0 0 0 0 0 0 0 0 0 0 127 0" result="hardAlpha"/>
<feOffset/>
<feGaussianBlur stdDeviation="5"/>
<feComposite in2="hardAlpha" operator="out"/>
<feColorMatrix type="matrix" values="0 0 0 0 0.237426 0 0 0 0 0.685651 0 0 0 0 0.259837 0 0 0 0.5 0"/>
<feBlend mode="normal" in2="BackgroundImageFix" result="effect1_dropShadow_0_760"/>
<feBlend mode="normal" in="SourceGraphic" in2="effect1_dropShadow_0_760" result="shape"/>
</filter>
</defs>
</svg>
