<svg width="96" height="96" viewBox="0 0 96 96" fill="none" xmlns="http://www.w3.org/2000/svg">
<path d="M0 4C0 1.79086 1.79086 0 4 0H92C94.2091 0 96 1.79086 96 4V92C96 94.2091 94.2091 96 92 96H4C1.79086 96 0 94.2091 0 92V4Z" fill="#FAFAFA"/>
<mask id="mask0_1_869" style="mask-type:alpha" maskUnits="userSpaceOnUse" x="12" y="12" width="24" height="24">
<rect x="12" y="12" width="24" height="24" fill="#D9D9D9"/>
</mask>
<g mask="url(#mask0_1_869)">
<path d="M23.5 32V25.2078L18.6963 30.0173L17.9827 29.3038L22.7923 24.5H16V23.5H22.7923L17.9827 18.6962L18.6963 18.002L23.5 22.8115V16H24.5V22.8115L29.3038 18.002L29.998 18.6962L25.1885 23.5H32V24.5H25.1885L29.998 29.3038L29.3038 30.0173L24.5 25.2078V32H23.5Z" fill="#D2D7F9"/>
</g>
<mask id="mask1_1_869" style="mask-type:alpha" maskUnits="userSpaceOnUse" x="36" y="12" width="24" height="24">
<rect x="36" y="12" width="24" height="24" fill="#D9D9D9"/>
</mask>
<g mask="url(#mask1_1_869)">
<path d="M47.5 32V25.2078L42.6963 30.0173L41.9827 29.3038L46.7923 24.5H40V23.5H46.7923L41.9827 18.6962L42.6963 18.002L47.5 22.8115V16H48.5V22.8115L53.3038 18.002L53.998 18.6962L49.1885 23.5H56V24.5H49.1885L53.998 29.3038L53.3038 30.0173L48.5 25.2078V32H47.5Z" fill="#D2D7F9"/>
</g>
<mask id="mask2_1_869" style="mask-type:alpha" maskUnits="userSpaceOnUse" x="60" y="12" width="24" height="24">
<rect x="60" y="12" width="24" height="24" fill="#D9D9D9"/>
</mask>
<g mask="url(#mask2_1_869)">
<path d="M71.5 32V25.2078L66.6963 30.0173L65.9827 29.3038L70.7923 24.5H64V23.5H70.7923L65.9827 18.6962L66.6963 18.002L71.5 22.8115V16H72.5V22.8115L77.3038 18.002L77.998 18.6962L73.1885 23.5H80V24.5H73.1885L77.998 29.3038L77.3038 30.0173L72.5 25.2078V32H71.5Z" fill="#D2D7F9"/>
</g>
<mask id="mask3_1_869" style="mask-type:alpha" maskUnits="userSpaceOnUse" x="12" y="36" width="24" height="24">
<rect x="12" y="36" width="24" height="24" fill="#D9D9D9"/>
</mask>
<g mask="url(#mask3_1_869)">
<path d="M23.5 56V49.2078L18.6963 54.0173L17.9827 53.3038L22.7923 48.5H16V47.5H22.7923L17.9827 42.6962L18.6963 42.002L23.5 46.8115V40H24.5V46.8115L29.3038 42.002L29.998 42.6962L25.1885 47.5H32V48.5H25.1885L29.998 53.3038L29.3038 54.0173L24.5 49.2078V56H23.5Z" fill="#D2D7F9"/>
</g>
<mask id="mask4_1_869" style="mask-type:alpha" maskUnits="userSpaceOnUse" x="36" y="36" width="24" height="24">
<rect x="36" y="36" width="24" height="24" fill="#D9D9D9"/>
</mask>
<g mask="url(#mask4_1_869)">
<path d="M41.5001 48.4L37.6001 44.5L41.5001 40.6L45.4001 44.5L41.5001 48.4ZM45.0001 58V53C43.9834 52.9167 42.9751 52.7958 41.9751 52.6375C40.9751 52.4792 39.9834 52.2667 39.0001 52L39.5001 50C40.9001 50.3833 42.3043 50.6458 43.7126 50.7875C45.1209 50.9292 46.5501 51 48.0001 51C49.4501 51 50.8793 50.9292 52.2876 50.7875C53.6959 50.6458 55.1001 50.3833 56.5001 50L57.0001 52C56.0168 52.2667 55.0251 52.4792 54.0251 52.6375C53.0251 52.7958 52.0168 52.9167 51.0001 53V58H45.0001ZM48.0001 43C47.1668 43 46.4584 42.7083 45.8751 42.125C45.2918 41.5417 45.0001 40.8333 45.0001 40C45.0001 39.1667 45.2918 38.4583 45.8751 37.875C46.4584 37.2917 47.1668 37 48.0001 37C48.8334 37 49.5418 37.2917 50.1251 37.875C50.7084 38.4583 51.0001 39.1667 51.0001 40C51.0001 40.8333 50.7084 41.5417 50.1251 42.125C49.5418 42.7083 48.8334 43 48.0001 43ZM48.0001 50C47.4501 50 46.9793 49.8042 46.5876 49.4125C46.1959 49.0208 46.0001 48.55 46.0001 48C46.0001 47.45 46.1959 46.9792 46.5876 46.5875C46.9793 46.1958 47.4501 46 48.0001 46C48.5501 46 49.0209 46.1958 49.4126 46.5875C49.8043 46.9792 50.0001 47.45 50.0001 48C50.0001 48.55 49.8043 49.0208 49.4126 49.4125C49.0209 49.8042 48.5501 50 48.0001 50ZM53.0501 48L51.3501 45L53.0501 42H56.4501L58.1501 45L56.4501 48H53.0501Z" fill="#0E5CEF"/>
</g>
<mask id="mask5_1_869" style="mask-type:alpha" maskUnits="userSpaceOnUse" x="60" y="36" width="24" height="24">
<rect x="60" y="36" width="24" height="24" fill="#D9D9D9"/>
</mask>
<g mask="url(#mask5_1_869)">
<path d="M71.5 56V49.2078L66.6963 54.0173L65.9827 53.3038L70.7923 48.5H64V47.5H70.7923L65.9827 42.6962L66.6963 42.002L71.5 46.8115V40H72.5V46.8115L77.3038 42.002L77.998 42.6962L73.1885 47.5H80V48.5H73.1885L77.998 53.3038L77.3038 54.0173L72.5 49.2078V56H71.5Z" fill="#D2D7F9"/>
</g>
<mask id="mask6_1_869" style="mask-type:alpha" maskUnits="userSpaceOnUse" x="12" y="60" width="24" height="24">
<rect x="12" y="60" width="24" height="24" fill="#D9D9D9"/>
</mask>
<g mask="url(#mask6_1_869)">
<path d="M23.5 80V73.2078L18.6963 78.0173L17.9827 77.3038L22.7923 72.5H16V71.5H22.7923L17.9827 66.6962L18.6963 66.002L23.5 70.8115V64H24.5V70.8115L29.3038 66.002L29.998 66.6962L25.1885 71.5H32V72.5H25.1885L29.998 77.3038L29.3038 78.0173L24.5 73.2078V80H23.5Z" fill="#D2D7F9"/>
</g>
<mask id="mask7_1_869" style="mask-type:alpha" maskUnits="userSpaceOnUse" x="36" y="60" width="24" height="24">
<rect x="36" y="60" width="24" height="24" fill="#D9D9D9"/>
</mask>
<g mask="url(#mask7_1_869)">
<path d="M47.5 80V73.2078L42.6963 78.0173L41.9827 77.3038L46.7923 72.5H40V71.5H46.7923L41.9827 66.6962L42.6963 66.002L47.5 70.8115V64H48.5V70.8115L53.3038 66.002L53.998 66.6962L49.1885 71.5H56V72.5H49.1885L53.998 77.3038L53.3038 78.0173L48.5 73.2078V80H47.5Z" fill="#D2D7F9"/>
</g>
<mask id="mask8_1_869" style="mask-type:alpha" maskUnits="userSpaceOnUse" x="60" y="60" width="24" height="24">
<rect x="60" y="60" width="24" height="24" fill="#D9D9D9"/>
</mask>
<g mask="url(#mask8_1_869)">
<path d="M71.5 80V73.2078L66.6963 78.0173L65.9827 77.3038L70.7923 72.5H64V71.5H70.7923L65.9827 66.6962L66.6963 66.002L71.5 70.8115V64H72.5V70.8115L77.3038 66.002L77.998 66.6962L73.1885 71.5H80V72.5H73.1885L77.998 77.3038L77.3038 78.0173L72.5 73.2078V80H71.5Z" fill="#D2D7F9"/>
</g>
</svg>
