<svg width="64" height="64" viewBox="0 0 64 64" fill="none" xmlns="http://www.w3.org/2000/svg">
<g id="Group">
<path id="Vector" d="M64 26.8387H61.6804L58.2232 28.6578C57.8342 28.4431 57.4294 28.261 56.9929 28.1517L52.6441 27.0635V26.569C54.568 25.2263 55.7419 23.0081 55.7419 20.6452V18.8408C55.7419 14.8307 52.5997 11.4748 48.7379 11.3578C48.5418 11.3528 48.3488 11.3599 48.1547 11.3694L49.2822 8.72981L43.816 3.26516L40.5938 5.36245C39.3747 4.67525 38.0774 4.13711 36.7298 3.75961L35.9339 0H28.0671L27.2712 3.76065C25.9236 4.13792 24.6263 4.67603 23.4072 5.36335L20.185 3.26606L14.7232 8.72787L15.8316 11.3694C15.7893 11.3675 15.749 11.3599 15.7067 11.3588C13.7299 11.3014 11.868 12.0227 10.4537 13.3956C9.03729 14.7677 8.25806 16.609 8.25806 18.5806V20.6452C8.25806 23.0081 9.43097 25.2253 11.3548 26.568V27.0635L8.51819 27.7726L3.37652 24.7742H0V46.1639L10.1552 49.5484H12.133L12.38 48.6835L15.4929 50.5519C15.5439 52.2445 16.9012 53.6063 18.5923 53.6658C18.6516 55.3497 20.0052 56.7032 21.689 56.7626C21.7484 58.4465 23.1019 59.8 24.7858 59.8594C24.8472 61.5827 26.2586 62.9677 27.996 62.9677C28.6412 62.9677 29.2737 62.7666 29.8054 62.4083L30.7197 63.2157C31.2937 63.7211 32.0322 64 32.7969 64H32.9879C34.7057 64 36.1034 62.6114 36.125 60.8992C37.8241 60.8775 39.2001 59.5015 39.2218 57.8024C40.9219 57.7808 42.2988 56.4027 42.3186 54.7026C44.0343 54.6623 45.4194 53.2606 45.4194 51.5352C45.4194 51.4315 45.4142 51.3292 45.4037 51.2258L64 41.9284V26.8387ZM53.6774 18.8408V20.6452C53.6774 22.4774 52.6875 24.189 51.0938 25.1119L50.5777 25.4103L50.5815 28.6769L55.739 29.9652L44.3871 35.94V33.1594C44.3871 31.7716 43.8266 30.501 42.9088 29.5619L46.4516 28.6769V25.4077L45.9365 25.1099C44.3437 24.189 43.3548 22.4773 43.3548 20.6452V18.5806C43.3548 17.1729 43.9114 15.8564 44.9228 14.8761C45.9334 13.8961 47.2742 13.368 48.6759 13.4223C51.4334 13.505 53.6774 15.9359 53.6774 18.8408ZM33.5564 35.1285L28.8836 33.6351C26.7541 32.9525 24.449 32.8508 22.2692 33.3337L21.6774 33.4648V33.1592C21.6774 31.736 22.6426 30.5 24.0227 30.1542L29.9355 28.6769V25.4077L29.4204 25.1099C27.8276 24.189 26.8387 22.4773 26.8387 20.6452V18.5806C26.8387 17.1729 27.3952 15.8564 28.4067 14.8761C29.4173 13.8961 30.7667 13.368 32.1597 13.4223C34.9173 13.505 37.1613 15.9359 37.1613 18.8408V20.6452C37.1613 22.4774 36.1714 24.189 34.5777 25.1119L34.0615 25.4103L34.0654 28.6769L39.9773 30.1543C40.6475 30.3216 41.2425 30.7082 41.6675 31.2528C42.0925 31.7973 42.3231 32.4683 42.3226 33.1591V37.0271L42.0675 37.1613H41.435L35.0886 35.3477C34.5886 35.2062 34.0735 35.1481 33.5564 35.1285ZM21.9088 15.4495C23.8472 11.6935 27.749 9.29032 32 9.29032C36.2107 9.29032 40.0957 11.6613 42.0489 15.3665C41.5497 16.3643 41.29 17.4649 41.2903 18.5806V20.6452C41.2903 23.008 42.4632 25.2253 44.3871 26.568V27.0635L40.2581 28.0973L36.128 27.0635V26.569C38.0519 25.2263 39.2258 23.008 39.2258 20.6452V18.8408C39.2258 14.8306 36.0836 11.4748 32.2218 11.3578C30.2459 11.2999 28.3831 12.0217 26.9688 13.3947C25.5534 14.7676 24.7742 16.6089 24.7742 18.5806V20.6452C24.7742 23.008 25.9471 25.2253 27.871 26.568V27.0635L23.7419 28.0973L19.6119 27.0635V26.569C21.5357 25.2263 22.7097 23.008 22.7097 20.6452V18.8408C22.7097 17.6261 22.4173 16.4728 21.9088 15.4495ZM17.1613 9.20671L20.4592 5.90877L23.3619 7.79781L23.9173 7.45716C25.309 6.60426 26.813 5.97974 28.3871 5.60335L29.0222 5.4511L29.7404 2.06452H34.2606L34.9768 5.45006L35.6119 5.60181C37.1861 5.97884 38.6901 6.60335 40.0815 7.45613L40.637 7.79677L43.5399 5.90774L46.8335 9.20258L45.6627 11.944C44.8658 12.2868 44.1268 12.7692 43.4837 13.3926C43.4414 13.4339 43.405 13.4783 43.3637 13.5206C40.932 9.65484 36.6325 7.22581 32 7.22581C27.3342 7.22581 23.0227 9.67742 20.5968 13.5827C19.9476 12.9032 19.1754 12.3528 18.3196 11.9683L17.1613 9.20671ZM13.4194 28.6769V25.4077L12.9043 25.1099C11.3115 24.189 10.3226 22.4773 10.3226 20.6452V18.5806C10.3226 17.1729 10.8791 15.8564 11.8906 14.8761C12.9012 13.8961 14.2449 13.368 15.6436 13.4223C18.4012 13.505 20.6452 15.9359 20.6452 18.8408V20.6452C20.6452 22.4774 19.6552 24.189 18.0615 25.1119L17.5454 25.4103L17.5493 28.6769L21.0912 29.5621C20.1734 30.5009 19.6129 31.7716 19.6129 33.1591V33.9237L16.3932 34.6395L16.4768 34.3471L16.5161 32.4394L11.0721 29.2635L13.4194 28.6769ZM2.06452 26.8387H2.81703L10.2409 31.1689L6.49497 46.1521L2.06452 44.6748V26.8387ZM10.4899 47.4839L8.45819 46.807L12.0973 32.2521L14.4516 33.6249V33.9197L10.5766 47.4839H10.4899ZM17.5484 50.4556C17.5491 50.1488 17.6708 49.8547 17.8871 49.637L19.7017 47.8226C19.9192 47.6064 20.2133 47.4847 20.52 47.4839C21.1582 47.4839 21.6773 48.003 21.6773 48.6412C21.6766 48.948 21.5549 49.2421 21.3386 49.4597L19.524 51.2742C19.3065 51.4904 19.0125 51.6121 18.7058 51.6129C18.0676 51.6129 17.5485 51.0938 17.5485 50.4556H17.5484ZM20.6452 53.5524C20.6459 53.2456 20.7676 52.9514 20.9839 52.7338L22.7985 50.9194C23.016 50.7031 23.31 50.5814 23.6168 50.5806C24.255 50.5806 24.7741 51.0997 24.7741 51.7379C24.7733 52.0447 24.6516 52.3389 24.4354 52.5565L22.6208 54.371C22.4032 54.5871 22.1093 54.7088 21.8026 54.7097C21.1644 54.7097 20.6453 54.1906 20.6453 53.5524H20.6452ZM23.7419 56.6492C23.7427 56.3423 23.8644 56.0482 24.0806 55.8306L25.8952 54.0161C26.1128 53.7999 26.4068 53.6782 26.7135 53.6774C27.3517 53.6774 27.8708 54.1965 27.8708 54.8347C27.8701 55.1415 27.7484 55.4357 27.5321 55.6533L25.7175 57.4677C25.5 57.6839 25.206 57.8056 24.8994 57.8064C24.2612 57.8064 23.7421 57.2874 23.7421 56.6492H23.7419ZM27.996 60.9032C27.3578 60.9032 26.8387 60.3841 26.8387 59.7459C26.8394 59.4391 26.9611 59.145 27.1774 58.9274L28.992 57.1129C29.2096 56.8967 29.5036 56.775 29.8103 56.7742C30.4485 56.7742 30.9676 57.2933 30.9676 57.9315C30.9669 58.2383 30.8452 58.5324 30.6289 58.7501L28.8143 60.5645C28.5968 60.7807 28.3028 60.9024 27.9961 60.9032H27.996ZM32.9879 61.9355H32.7969C32.5348 61.9358 32.2817 61.8398 32.0857 61.6658L31.3135 60.9849L32.0886 60.2097C32.3654 59.9329 32.5803 59.6039 32.739 59.2505L33.6774 60.0317C33.7987 60.1327 33.8963 60.2592 33.9632 60.4021C34.0301 60.5451 34.0647 60.701 34.0645 60.8588C34.0645 61.4526 33.5817 61.9355 32.9879 61.9355ZM42.2449 52.6452H42.0666C41.8069 52.6451 41.5555 52.5537 41.3564 52.3871L35.7586 47.7223L34.436 49.309L39.872 53.8382C39.993 53.9394 40.0903 54.0659 40.157 54.2088C40.2237 54.3517 40.2582 54.5076 40.2581 54.6653C40.2581 55.2591 39.7752 55.7419 39.1814 55.7419H38.9561C38.7044 55.7416 38.4608 55.6531 38.2676 55.4919L32.6608 50.82L31.3382 52.4067L36.7742 56.9365C36.8956 57.0371 36.9933 57.1632 37.0602 57.3059C37.1271 57.4487 37.1616 57.6044 37.1613 57.7621C37.1613 58.3559 36.6785 58.8387 36.0846 58.8387C35.6885 58.8387 35.3025 58.6981 34.9985 58.4455L32.6946 56.5252C32.187 55.4879 31.1441 54.7646 29.923 54.7213C29.8634 53.0374 28.5101 51.6839 26.8262 51.6245C26.7666 49.9406 25.4133 48.5871 23.7294 48.5277C23.6688 46.8044 22.2575 45.4194 20.5201 45.4194C19.6719 45.4194 18.8417 45.7631 18.2419 46.363L16.4275 48.1774C16.3191 48.2858 16.2293 48.4088 16.1381 48.5307L12.9672 46.628L15.747 36.8992L22.7157 35.3498C24.5439 34.941 26.4712 35.0298 28.2541 35.6003L29.7747 36.0867L24.6195 38.6643C23.4414 39.2546 22.7097 40.4395 22.7097 41.7572V41.9612C22.7097 43.868 24.261 45.4194 26.1677 45.4194C26.7943 45.4194 27.4108 45.249 27.9466 44.9259L31.7903 42.6209C32.5625 42.1583 33.5988 42.2596 34.2657 42.8594L42.9874 50.7086C43.1028 50.8132 43.1952 50.9407 43.2585 51.0831C43.3218 51.2254 43.3546 51.3794 43.3548 51.5352C43.3548 52.1477 42.8574 52.6452 42.2449 52.6452ZM61.9355 40.6523L44.5449 49.3483C44.4883 49.2883 44.4291 49.2308 44.3675 49.1759L35.6472 41.3266C34.8846 40.6379 33.8934 40.2571 32.8658 40.2581C32.1124 40.2582 31.3732 40.4631 30.7272 40.8508L26.8819 43.1566C26.6664 43.2865 26.4194 43.3551 26.1677 43.3548C25.3987 43.3548 24.7742 42.7303 24.7742 41.9613V41.757C24.7742 41.2254 25.0697 40.7485 25.5444 40.5111L31.3024 37.632C32.2877 37.1386 33.4577 37.0281 34.5196 37.3337L41.0066 39.1866L42.5777 39.2258L61.9355 29.0374V40.6523Z" fill="url(#paint0_linear_1_1528)"/>
</g>
<defs>
<linearGradient id="paint0_linear_1_1528" x1="9.90707" y1="7.99554" x2="53.8809" y2="51.585" gradientUnits="userSpaceOnUse">
<stop stop-color="#FE5B52"/>
<stop offset="1" stop-color="#3E96F4"/>
</linearGradient>
</defs>
</svg>
