<svg width="36" height="36" viewBox="0 0 36 36" fill="none" xmlns="http://www.w3.org/2000/svg">
<mask id="mask0_1_4384" style="mask-type:alpha" maskUnits="userSpaceOnUse" x="0" y="0" width="36" height="36">
<rect width="36" height="36" fill="#D9D9D9"/>
</mask>
<g mask="url(#mask0_1_4384)">
<rect x="4" y="4" width="3.29412" height="3.29412" fill="#3DA4C2"/>
<rect x="4" y="8.94141" width="3.29412" height="3.29412" fill="#3DA4C2"/>
<rect x="4" y="13.8828" width="3.29412" height="3.29412" fill="#3DA4C2"/>
<rect x="4" y="18.8232" width="3.29412" height="3.29412" fill="#3DA4C2"/>
<rect x="4" y="23.7646" width="3.29412" height="3.29412" fill="#3DA4C2"/>
<rect x="4" y="28.7061" width="3.29412" height="3.29412" fill="#3DA4C2"/>
<rect x="8.94141" y="4" width="3.29412" height="3.29412" fill="#3DA4C2"/>
<rect x="8.94141" y="8.94141" width="8.23529" height="8.23529" fill="#3DA4C2"/>
<rect x="8.94141" y="13.8828" width="3.29412" height="3.29412" fill="#3DA4C2"/>
<rect x="8.94141" y="18.8232" width="3.29412" height="3.29412" fill="#3DA4C2"/>
<rect x="4" y="23.7646" width="8.23529" height="8.23529" fill="#3DA4C2"/>
<rect x="8.94141" y="28.7061" width="3.29412" height="3.29412" fill="#3DA4C2"/>
<rect x="13.8823" y="4" width="3.29412" height="3.29412" fill="#3DA4C2"/>
<rect x="18.8237" y="4" width="3.29412" height="3.29412" fill="#3DA4C2"/>
<rect x="23.7646" y="4" width="3.29412" height="3.29412" fill="#3DA4C2"/>
<rect x="28.7061" y="4" width="3.29412" height="3.29412" fill="#3DA4C2"/>
<rect x="18.8237" y="8.94141" width="3.29412" height="3.29412" fill="#3DA4C2"/>
<rect x="13.8823" y="8.94141" width="3.29412" height="3.29412" fill="#3DA4C2"/>
<rect x="23.7646" y="4" width="8.23529" height="8.23529" fill="#3DA4C2"/>
<rect x="18.8237" y="13.8828" width="3.29412" height="3.29412" fill="#3DA4C2"/>
<rect x="28.7061" y="8.94141" width="3.29412" height="3.29412" fill="#3DA4C2"/>
<rect x="18.8237" y="18.8232" width="8.23529" height="8.23529" fill="#3DA4C2"/>
<rect x="23.7646" y="13.8828" width="3.29412" height="3.29412" fill="#3DA4C2"/>
<rect x="13.8823" y="13.8828" width="3.29412" height="3.29412" fill="#3DA4C2"/>
<rect x="18.8237" y="23.7646" width="3.29412" height="3.29412" fill="#3DA4C2"/>
<rect x="23.7646" y="18.8232" width="3.29412" height="3.29412" fill="#3DA4C2"/>
<rect x="28.7061" y="13.8828" width="3.29412" height="3.29412" fill="#3DA4C2"/>
<rect x="23.7646" y="23.7646" width="3.29412" height="3.29412" fill="#3DA4C2"/>
<rect x="18.8237" y="28.7061" width="3.29412" height="3.29412" fill="#3DA4C2"/>
<rect x="23.7646" y="28.7061" width="3.29412" height="3.29412" fill="#3DA4C2"/>
<rect x="13.8823" y="18.8232" width="3.29412" height="3.29412" fill="#3DA4C2"/>
<rect x="28.7061" y="18.8232" width="3.29412" height="3.29412" fill="#3DA4C2"/>
<rect x="13.8823" y="23.7646" width="3.29412" height="3.29412" fill="#3DA4C2"/>
<rect x="28.7061" y="23.7646" width="3.29412" height="3.29412" fill="#3DA4C2"/>
<rect x="13.8823" y="28.7061" width="3.29412" height="3.29412" fill="#3DA4C2"/>
<rect x="28.7061" y="28.7061" width="3.29412" height="3.29412" fill="#3DA4C2"/>
</g>
</svg>
