<svg width="32" height="32" viewBox="0 0 32 32" fill="none" xmlns="http://www.w3.org/2000/svg">
<g style="mix-blend-mode:multiply">
<path d="M0 13.5069C0 11.847 1.02514 10.3596 2.57632 9.76878L20.1763 3.06566C22.7944 2.06853 25.6 4.00218 25.6 6.80373V27H0V13.5069Z" fill="#007BFF" fill-opacity="0.8"/>
</g>
<g style="mix-blend-mode:multiply">
<path d="M3.20001 15.4344C3.20001 14.577 3.74654 13.815 4.55868 13.54L19.7587 8.3942C21.0554 7.95519 22.4 8.91953 22.4 10.2886V27H3.20001V15.4344Z" fill="#84979C" fill-opacity="0.8"/>
</g>
<path d="M11.2 13.221C11.2 11.9487 12.3724 10.9998 13.6168 11.2649L30.4168 14.8445C31.34 15.0412 32 15.8566 32 16.8006V27H11.2V13.221Z" fill="#C1C9D1" fill-opacity="0.8"/>
<g style="mix-blend-mode:multiply">
<path d="M14.4 18.1018C14.4 16.8276 15.5756 15.8783 16.8212 16.1466L27.2212 18.3871C28.1423 18.5856 28.8 19.4 28.8 20.3423V27H14.4V18.1018Z" fill="#C1C9D1" fill-opacity="0.8"/>
</g>
</svg>
