<svg width="167" height="164" viewBox="0 0 167 164" fill="none" xmlns="http://www.w3.org/2000/svg">
<path d="M158.263 103.685C169.813 110.333 169.873 121.124 158.403 127.782L104.563 159.006C93.0927 165.664 74.4327 165.664 62.8927 159.006L8.70267 127.782C-2.84733 121.124 -2.90734 110.343 8.56266 103.685L62.4027 72.4507C73.8727 65.8026 92.5227 65.8026 104.073 72.4507L158.263 103.685Z" fill="#EDEDED"/>
<path d="M158.404 98.7238L104.564 129.958C93.0939 136.616 74.4339 136.616 62.8939 129.958L8.70394 98.7338C2.89394 95.3798 -0.00606798 90.9876 0.00393202 86.5955V92.8144C0.00393202 97.2065 2.89394 101.599 8.70394 104.943L62.8939 136.177C74.4439 142.835 93.0939 142.835 104.564 136.177L158.404 104.943C164.104 101.639 166.954 97.3163 166.964 92.9641V86.7452C166.954 91.0974 164.144 95.4197 158.404 98.7238Z" fill="#DBDBDB"/>
<path d="M158.263 74.6866C169.813 81.3348 169.873 92.1255 158.403 98.7737L104.563 130.008C93.0932 136.666 74.4332 136.666 62.8932 130.008L8.70321 98.7837C-2.85679 92.0756 -2.8568 81.2849 8.5632 74.6866L62.4032 43.4523C73.8732 36.7942 92.5232 36.7942 104.073 43.4523L158.263 74.6866Z" fill="white"/>
<path opacity="0.35" d="M80.7047 93.6428C90.1764 93.6428 97.8547 88.7714 97.8547 82.7622C97.8547 76.753 90.1764 71.8816 80.7047 71.8816C71.233 71.8816 63.5547 76.753 63.5547 82.7622C63.5547 88.7714 71.233 93.6428 80.7047 93.6428Z" fill="#E2F0FE"/>
<path opacity="0.35" d="M88.9531 94.1222C88.9531 97.4762 93.2431 100.191 98.5331 100.191C103.823 100.191 108.103 97.4762 108.103 94.1222C108.103 90.7681 103.813 88.053 98.5331 88.053C93.2531 88.053 88.9531 90.7681 88.9531 94.1222Z" fill="#E2F0FE"/>
<path d="M90.934 81.4049C90.724 83.641 88.6141 85.1583 86.7141 85.9768C84.6258 86.8474 82.3763 87.2659 80.114 87.2046C77.7947 87.21 75.5031 86.702 73.4041 85.7173C71.5941 84.8288 69.674 83.2217 69.684 81.0256C69.5936 81.7688 69.6589 82.5225 69.8758 83.2391C70.0927 83.9557 70.4565 84.6194 70.944 85.1882C72.54 86.7215 74.5671 87.7316 76.754 88.083C80.844 88.9315 86.4241 88.5223 89.5341 85.3779C90.0655 84.8081 90.4674 84.1305 90.7125 83.3915C90.9575 82.6524 91.0399 81.8693 90.9541 81.0955C90.9541 81.1953 90.944 81.2951 90.934 81.4049Z" fill="#ADCDFC"/>
<path d="M87.814 77.3221C91.984 79.7278 92.004 83.6209 87.864 86.0266C85.5321 87.2078 82.954 87.8233 80.3391 87.8233C77.7241 87.8233 75.146 87.2078 72.814 86.0266C68.654 83.6209 68.634 79.7278 72.814 77.3221C75.139 76.1476 77.7083 75.5356 80.314 75.5356C82.9198 75.5356 85.489 76.1476 87.814 77.3221Z" fill="white"/>
<path d="M81.4432 74.0881L81.4232 82.9324L80.3132 83.5712L80.3332 74.737L81.4432 74.0881Z" fill="#C7D8F2"/>
<path d="M80.3331 74.737L80.3131 83.5712L79.1931 82.9324L79.2131 74.0881L80.3331 74.737Z" fill="#7BAEFF"/>
<path d="M81.9631 72.471L80.3431 73.4193L78.7031 72.471L80.3231 71.5327L81.9631 72.471Z" fill="#4DA5DC"/>
<path d="M102.76 2.99463L92 9.28636V10.3371L101.862 4.55795L102.115 72.87L103 72.3446L102.76 2.99463Z" fill="#3E96F4"/>
<path d="M69.7631 42.3742C69.7631 42.3742 66.4131 44.3706 65.5231 46.3671C64.6331 48.3635 64.8731 62.3386 69.5231 68.5874C74.1731 74.8363 82.8631 75.6848 84.8631 74.7963C86.8631 73.9079 98.4231 68.1482 99.3131 65.2633C100.203 62.3785 95.7531 60.1525 93.3131 59.0444C90.8731 57.9364 89.3131 56.3792 87.9731 52.3863C86.6331 48.3934 85.9731 41.5157 84.4231 40.4077C82.8731 39.2997 79.1431 37.4929 69.7631 42.3742Z" fill="#25437F"/>
<path d="M86.3656 72.7901C87.9956 72.0714 95.9756 68.0985 99.3656 65.0938C100.086 62.2789 95.7456 60.1028 93.3656 59.0147C90.9856 57.9266 89.3656 56.3494 88.0256 52.3566C86.6856 48.3637 86.0256 41.486 84.4756 40.3779C82.9256 39.2699 79.1356 37.4931 69.8056 42.3744C68.8056 42.9797 67.8678 43.6818 67.0056 44.4706C66.1656 46.7965 66.4656 60.4421 71.0656 66.5812C75.6656 72.7203 84.3656 73.6885 86.3656 72.7901Z" fill="#254DA1"/>
<path d="M77.7158 31.8829C77.5304 32.5449 77.5008 33.2407 77.6291 33.916C77.7575 34.5913 78.0404 35.2278 78.4558 35.776C79.7558 37.3133 79.5058 37.7724 79.2658 38.3015C79.0258 38.8306 77.4658 40.5874 77.6558 43.0031C77.8458 45.4188 84.5858 44.3008 85.2058 42.6338C85.8258 40.9668 83.3458 38.1817 83.2058 36.0755C83.0658 33.9692 84.5058 31.2641 82.7058 30.5853C80.9058 29.9065 78.5858 29.4074 77.7158 31.8829Z" fill="#BB543E"/>
<path d="M96.6334 89.1711C96.6334 89.1711 96.0134 90.8581 96.3834 91.3572C96.6769 92.0651 96.8461 92.8181 96.8834 93.5833L97.4934 93.9526L97.7434 92.7148C97.8815 93.2594 98.1375 93.7671 98.4934 94.2022C99.7311 95.0314 101.116 95.6175 102.573 95.9291C104.183 96.2984 104.673 96.1787 104.803 95.5598C104.933 94.9409 103.073 92.7148 101.953 91.9762C100.833 91.2375 96.6334 89.1711 96.6334 89.1711Z" fill="#254DA1"/>
<path d="M100.264 89.0111C100.605 89.742 101.006 90.4431 101.464 91.1074C101.954 91.7263 103.314 92.8443 103.194 93.4532C103.074 94.0621 101.834 93.9523 100.344 93.4532C98.8537 92.9541 98.4936 91.6065 97.7436 91.2371C97.3348 91.0915 96.9949 90.7993 96.7898 90.4175C96.5847 90.0356 96.529 89.5913 96.6336 89.1708C96.7536 87.8931 100.264 89.0111 100.264 89.0111Z" fill="#FF9554"/>
<path d="M93.5649 68.7673C93.5649 68.7673 92.3749 66.4514 94.5649 65.2436C96.7549 64.0357 98.3049 65.9024 98.6949 66.7808C99.576 68.5641 100.109 70.4985 100.265 72.4807C100.265 74.8065 100.455 89.3406 100.455 89.3406C100.2 89.5646 99.9017 89.7345 99.5788 89.8401C99.2559 89.9457 98.9149 89.9848 98.5764 89.9549C98.2379 89.925 97.9091 89.8269 97.6097 89.6664C97.3104 89.5059 97.0468 89.2864 96.835 89.0212C96.835 89.0212 94.725 71.5723 94.665 70.7338C94.4732 69.995 94.0944 69.3179 93.5649 68.7673Z" fill="#FF9554"/>
<path d="M93.0045 90.9875C93.0045 90.9875 92.3845 92.6745 92.7545 93.1737C93.0458 93.8782 93.2116 94.6282 93.2445 95.3897L93.8645 95.759L94.1145 94.5312C94.2507 95.0715 94.5032 95.5757 94.8545 96.0086C96.0961 96.8395 97.4838 97.4288 98.9445 97.7455C100.554 98.1148 101.045 97.9851 101.175 97.3662C101.305 96.7473 99.4345 94.5312 98.3245 93.7826C97.2145 93.0339 93.0045 90.9875 93.0045 90.9875Z" fill="#254DA1"/>
<path d="M87.5552 73.0298C87.5552 73.0298 86.0652 70.8836 88.0552 69.4062C90.0452 67.9289 91.8453 69.566 92.3453 70.4045C93.4536 72.0518 94.2375 73.8947 94.6552 75.8348C94.9852 78.1407 96.6552 90.8081 96.6552 90.8081C96.4326 91.0643 96.1601 91.2727 95.8544 91.4207C95.5487 91.5687 95.216 91.6532 94.8766 91.669C94.5372 91.6849 94.1982 91.6318 93.8799 91.513C93.5617 91.3942 93.2709 91.2121 93.0252 90.9778C93.0252 90.9778 89.0252 75.6551 88.8952 74.8266C88.6077 74.1243 88.1467 73.5061 87.5552 73.0298Z" fill="#FF9554"/>
<path d="M96.6363 90.8178C96.9758 91.5506 97.3737 92.255 97.8263 92.9241C98.3263 93.543 99.6863 94.651 99.5663 95.2699C99.4463 95.8888 98.2063 95.759 96.7163 95.2699C95.2263 94.7808 94.8563 93.4132 94.1163 93.0439C93.7069 92.9022 93.3657 92.6122 93.1601 92.2315C92.9546 91.8507 92.8997 91.4068 93.0063 90.9875C93.1463 89.7098 96.6363 90.8178 96.6363 90.8178Z" fill="#FF9554"/>
<path d="M96.4642 63.6366C95.8642 63.0776 88.8742 57.1282 88.8742 57.1282L77.3242 58.9449C77.3242 58.9449 77.4842 64.2155 80.3242 67.6694C81.8828 69.6475 83.7143 71.3951 85.7642 72.8601C86.3903 73.3601 87.1278 73.7025 87.9142 73.8583C88.303 72.9494 89.0156 72.2168 89.9142 71.802C91.6542 70.8038 97.4642 66.8608 98.2142 66.9806C98.9642 67.1004 99.0742 67.4797 99.0742 67.4797C98.5189 66.0117 97.6247 64.695 96.4642 63.6366Z" fill="#62759A"/>
<path d="M87.6126 39.0803C87.6126 39.0803 89.3026 39.1702 90.2826 41.4761C91.2626 43.782 92.5026 49.6515 92.8626 50.1905C93.2226 50.7296 92.7726 52.3167 90.6326 52.7659C89.3875 51.166 88.3149 49.4396 87.4326 47.6151C86.1426 44.7402 85.5626 40.3281 87.6126 39.0803Z" fill="#C7D8F2"/>
<path d="M80.734 37.8924C80.734 37.8924 76.1039 41.1965 75.6439 42.2945C75.0864 44.3481 75.2271 46.5283 76.044 48.4935C77.044 50.5398 76.644 58.0464 77.044 59.4739C77.444 60.9013 81.3539 61.4005 83.8039 60.9313C86.2539 60.4621 89.2339 58.6853 89.1339 55.8204C89.0339 52.9555 88.6439 51.3883 90.1339 44.6403C90.4139 43.3726 89.2239 41.8353 88.6339 39.6492C88.5039 39.1901 86.9639 38.7109 86.9639 38.7109C86.9639 38.7109 85.304 37.6928 80.734 37.8924Z" fill="#C7D8F2"/>
<path d="M79.0625 40.6371C79.0625 40.6371 75.0625 39.8385 73.3625 45.9976C72.2925 50.23 71.2825 53.8236 71.8825 54.6022C72.4825 55.3808 74.2125 56.0896 75.3225 55.1912C76.4325 54.2928 79.7325 44.1309 79.6525 43.1127C79.5725 42.0945 79.9225 41.3059 79.0625 40.6371Z" fill="#C7D8F2"/>
<path d="M89.7425 45.7383C89.7425 45.7383 88.0525 49.821 79.9525 48.2239C78.3525 48.134 76.8425 51.7775 77.8225 53.734C78.868 56.0253 79.5237 58.4746 79.7625 60.9811C81.0871 61.1974 82.438 61.1974 83.7625 60.9811C86.2225 60.502 89.1925 58.7351 89.0925 55.8702C88.7913 52.5237 89.0481 49.1506 89.8526 45.888L89.7425 45.7383Z" fill="#A9C9E6"/>
<path d="M80.6246 37.7525C80.4947 37.8586 80.3937 37.9956 80.3308 38.1508C80.2679 38.3061 80.2451 38.4746 80.2646 38.641C80.8264 39.9423 81.6983 41.0869 82.8045 41.975C83.5145 42.3344 84.2746 40.2381 84.2746 40.2381C84.2746 40.2381 85.7846 40.867 86.2746 40.4178C86.7646 39.9686 85.3346 38.2916 84.9346 37.9721C83.531 37.5867 82.0601 37.5117 80.6246 37.7525Z" fill="white"/>
<path d="M84.7661 37.2635C84.7598 37.3133 84.7598 37.3636 84.7661 37.4133C84.7661 37.7527 84.9861 38.6211 85.0161 38.9805C85.0461 39.3398 84.6561 39.9288 83.7161 39.9088C82.7761 39.8889 81.1861 39.4996 80.6561 38.3815C80.67 37.2813 80.6165 36.1812 80.4961 35.0874L84.7661 37.2635Z" fill="#FF8654"/>
<path d="M86.1435 31.6135C85.7035 29.2677 83.8435 27.94 81.7435 28.4292C81.0611 28.5203 80.4093 28.7689 79.84 29.1553C79.2706 29.5417 78.7993 30.0553 78.4635 30.6552C77.4635 32.6517 78.9335 34.3287 79.8835 35.3868L80.7835 36.385C80.8455 36.4715 80.9158 36.5517 80.9935 36.6246C81.534 37.1696 82.2001 37.574 82.9335 37.8024C83.3708 37.9553 83.841 37.9897 84.296 37.902C84.751 37.8143 85.1746 37.6077 85.5235 37.3033C86.1435 36.6745 86.5435 33.9493 86.1435 31.6135Z" fill="#FF9554"/>
<path d="M79.8147 34.2586C79.8147 34.2586 79.1246 33.3202 78.6146 33.5698C78.1046 33.8194 79.3047 35.8957 80.0647 35.8557C80.8247 35.8158 79.8147 34.2586 79.8147 34.2586Z" fill="#FF9554"/>
<path d="M87.8033 58.5757L96.0933 66.4816L89.6533 70.0652L81.3633 62.1593L87.8033 58.5757Z" fill="white"/>
<path d="M89.2825 60.4021C88.9908 60.8809 88.7367 61.3815 88.5225 61.8994C88.3925 62.3486 87.9525 63.2171 88.1325 63.4566C88.3125 63.6962 88.9225 63.3069 89.0525 63.0374C89.1315 62.8693 89.2608 62.7298 89.4225 62.6381L89.5125 63.4566C89.5125 63.9657 89.7425 65.0638 90.1525 65.2534C90.5625 65.4431 91.1525 64.6645 91.4525 64.1953C91.7124 63.5058 91.7542 62.7532 91.5725 62.0392C91.4125 61.7098 90.9725 60.9811 90.9725 60.9811L89.2825 60.4021Z" fill="#FF9554"/>
<path d="M89.5746 50.5399C89.618 50.2185 89.7578 49.9179 89.9756 49.6773C90.1934 49.4368 90.4789 49.2676 90.7948 49.192C91.1107 49.1164 91.4421 49.1379 91.7454 49.2538C92.0488 49.3696 92.3099 49.5744 92.4946 49.8411C92.8798 50.3996 93.1547 51.0264 93.3046 51.6878C93.7546 53.6843 91.7246 60.6718 91.5146 61.2907C91.3046 61.9096 90.1046 62.1991 89.1546 61.4105C88.2046 60.6219 89.5346 52.726 89.5346 51.7677C89.5199 51.358 89.5332 50.9477 89.5746 50.5399Z" fill="#C7D8F2"/>
<path d="M83.6842 60.7715C84.2392 60.8494 84.7875 60.9695 85.3242 61.1308C85.7642 61.3205 86.7042 61.5301 86.7842 61.8296C86.8642 62.1291 86.1642 62.3387 85.8742 62.2588C85.6945 62.2075 85.5039 62.2075 85.3242 62.2588L85.9042 62.8378C86.2742 63.2071 87.0042 64.0456 86.9042 64.4849C86.8042 64.9241 85.8042 64.8842 85.2642 64.8043C84.5609 64.5725 83.9463 64.1298 83.5042 63.5366C83.3642 63.2071 83.0742 62.4086 83.0742 62.4086L83.6842 60.7715Z" fill="#FF9554"/>
<path d="M74.2129 52.8755C73.939 52.697 73.6169 52.6066 73.2899 52.6165C72.9629 52.6263 72.6469 52.736 72.3843 52.9307C72.1217 53.1254 71.9252 53.3958 71.8212 53.7054C71.7173 54.015 71.7109 54.349 71.8029 54.6623C71.9854 55.3161 72.2909 55.9293 72.7029 56.4691C73.9329 58.0762 82.233 62.6481 82.853 62.8976C83.473 63.1472 84.4629 62.3985 84.4629 61.1607C84.4629 59.9229 75.913 54.243 75.173 53.6241C74.8708 53.3526 74.55 53.1024 74.2129 52.8755Z" fill="#C7D8F2"/>
<path d="M83.8434 30.336C83.8434 30.336 83.2235 30.0864 82.9135 30.9549C82.6035 31.8233 82.4134 32.9513 81.3034 33.4205C80.1934 33.8897 79.8834 34.0993 79.0734 34.0394C78.6533 34.0045 78.2614 33.8142 77.9747 33.5058C77.6879 33.1974 77.527 32.7931 77.5234 32.3723C77.5789 31.374 77.9421 30.4171 78.5632 29.6327C79.1844 28.8483 80.0331 28.2746 80.9934 27.9902C81.5517 27.8046 82.1423 27.7356 82.7284 27.7875C83.3145 27.8395 83.8837 28.0112 84.4005 28.2921C84.9172 28.5729 85.3706 28.9569 85.7324 29.4202C86.0942 29.8834 86.3566 30.416 86.5034 30.9848C86.8734 32.5221 86.2534 32.6519 86.2534 32.6519C86.2534 32.6519 86.1934 30.0864 83.8434 30.336Z" fill="#BB543E"/>
<path d="M61.1677 27.3254L50.3086 33.5723L50.5635 92.3036L51.4684 91.782L51.2263 34.094L61.1677 28.356V27.3254Z" fill="#3E96F4"/>
<path d="M76.5211 26.2653C72.7141 28.4273 69.6092 26.6894 69.6008 22.3819C69.5923 18.0743 72.6718 12.8354 76.4789 10.6734C80.2859 8.51128 83.3908 10.2576 83.4077 14.5485C83.4246 18.8394 80.3282 24.1032 76.5211 26.2653ZM76.4789 9.99147C72.3418 12.3448 68.9831 18.0494 69.0001 22.7228C69.017 27.3962 72.3841 29.2922 76.5211 26.9388C80.6582 24.5855 84.0169 18.8809 83.9999 14.2075C83.983 9.53411 80.6159 7.64644 76.4789 9.99147Z" fill="#3E96F4"/>
<path d="M79.871 13.1369C79.5478 13.3491 79.2811 13.6444 79.0957 13.9951L75.5139 20.5903L73.8704 19.6014C73.7458 19.5417 73.6084 19.5178 73.4723 19.5322C73.3361 19.5465 73.206 19.5986 73.0951 19.6832C72.7723 19.896 72.5057 20.1911 72.3198 20.5413C71.8934 21.3586 71.8934 22.1758 72.3198 22.4373L74.7464 23.8839C74.871 23.9436 75.0084 23.9675 75.1445 23.9532C75.2807 23.9388 75.4108 23.8867 75.5217 23.8022C75.8428 23.5873 76.109 23.2926 76.297 22.944L80.6773 14.9349C81.1114 14.1176 81.1037 13.3004 80.6773 13.047C80.552 12.9885 80.4143 12.9659 80.2781 12.9817C80.142 12.9975 80.0122 13.0511 79.902 13.1369" fill="#3E96F4"/>
</svg>
