<svg width="122" height="50" viewBox="0 0 122 50" fill="none" xmlns="http://www.w3.org/2000/svg">
<path d="M8.26455 39.2563C6.816 37.9347 6.39313 35.158 6.99662 33.1465C8.04308 34.4147 9.49305 34.8166 10.9949 35.0431C13.3135 35.3932 15.5905 35.2623 17.7443 34.2047C17.9907 34.0838 18.2184 33.9225 18.4876 33.7596C18.6897 34.3446 18.7423 34.9353 18.6717 35.5366C18.5001 37.0009 17.7699 38.1321 16.6086 38.9894C16.1442 39.3325 15.6528 39.639 15.1731 39.9625C13.6996 40.9561 13.301 42.1216 13.8547 43.817C13.8678 43.8582 13.8796 43.8995 13.9093 44.0003C13.157 43.6643 12.6075 43.175 12.1888 42.5318C11.7465 41.8528 11.5361 41.1017 11.5251 40.2893C11.5195 39.8937 11.5195 39.4947 11.4662 39.1049C11.3361 38.1545 10.889 37.7289 10.0467 37.7043C9.18228 37.6793 8.4985 38.2124 8.31717 39.0524C8.30332 39.1168 8.28325 39.1804 8.26317 39.2553L8.26455 39.2563Z" fill="#17191E"/>
<path d="M0 32.811C0 32.811 4.28945 30.7258 8.5909 30.7258L11.834 20.709C11.9555 20.2246 12.31 19.8954 12.7102 19.8954C13.1104 19.8954 13.465 20.2246 13.5864 20.709L16.8295 30.7258C21.9239 30.7258 25.4206 32.811 25.4206 32.811C25.4206 32.811 18.1344 13.0026 18.1202 12.9628C17.9111 12.3772 17.5581 12 17.0821 12H8.33906C7.86313 12 7.52436 12.3772 7.301 12.9628C7.28525 13.0018 0 32.811 0 32.811Z" fill="#17191E"/>
<path d="M45.2245 26.4394C45.2245 28.1947 43.0368 29.243 40.0076 29.243C38.036 29.243 37.3389 28.7554 37.3389 27.7315C37.3389 26.6588 38.2043 26.1469 40.1756 26.1469C41.9549 26.1469 43.4693 26.1712 45.2245 26.3907V26.4394ZM45.2486 24.2697C44.1667 24.0259 42.5317 23.8796 40.5845 23.8796C34.9106 23.8796 32.2422 25.2205 32.2422 28.341C32.2422 31.5834 34.0692 32.8268 38.3005 32.8268C41.8828 32.8268 44.3107 31.9247 45.2005 29.7062H45.3445C45.3204 30.2426 45.2964 30.7789 45.2964 31.1933C45.2964 32.3391 45.4887 32.4367 46.4263 32.4367H50.85C50.6095 31.7541 50.4652 29.8281 50.4652 28.1703C50.4652 26.3907 50.5373 25.0498 50.5373 23.2458C50.5373 19.5645 48.3258 17.2241 41.4018 17.2241C38.4207 17.2241 35.103 17.7361 32.5789 18.4918C32.819 19.4914 33.1557 21.5148 33.3241 22.8313C35.5118 21.8074 38.6131 21.3686 41.0173 21.3686C44.3347 21.3686 45.2486 22.1243 45.2486 23.6602V24.2697Z" fill="#17191E"/>
<path d="M57.3876 27.4634C56.7867 27.5365 55.9691 27.5365 55.1277 27.5365C54.2382 27.5365 53.4209 27.5121 52.8678 27.439C52.8678 27.634 52.8438 27.8534 52.8438 28.0485C52.8438 31.0958 54.8391 32.8754 61.8594 32.8754C68.4705 32.8754 70.6101 31.1202 70.6101 28.0241C70.6101 25.0986 69.1919 23.6602 62.9172 23.3433C58.0366 23.1239 57.6041 22.5876 57.6041 21.9781C57.6041 21.2711 58.229 20.9054 61.4986 20.9054C64.8885 20.9054 65.802 21.3686 65.802 22.3438V22.5632C66.2827 22.5388 67.1484 22.5144 68.0379 22.5144C68.8793 22.5144 69.7928 22.5388 70.3219 22.5876C70.3219 22.3681 70.3459 22.1731 70.3459 22.0025C70.3459 18.4187 67.3646 17.2485 61.5948 17.2485C55.1037 17.2485 52.9159 18.8332 52.9159 21.9293C52.9159 24.7085 54.6711 26.4395 60.8978 26.7076C65.4894 26.8539 65.9944 27.3659 65.9944 28.0728C65.9944 28.8286 65.2489 29.1699 62.0277 29.1699C58.3252 29.1699 57.3876 28.6579 57.3876 27.6096V27.4634Z" fill="#17191E"/>
<path d="M78.5459 14.6152C76.791 16.2487 73.6416 17.882 71.8867 18.3209C71.9108 19.2229 71.9108 20.8807 71.9108 21.7827L73.5214 21.8071C73.4973 23.538 73.4733 25.6346 73.4733 27.0242C73.4733 30.2666 75.1801 32.7045 80.4932 32.7045C82.7291 32.7045 84.2198 32.4607 86.0708 32.0707C85.8785 30.8761 85.662 29.0476 85.5899 27.6581C84.484 28.0237 83.0898 28.2188 81.551 28.2188C79.4113 28.2188 78.5459 27.6337 78.5459 25.9515C78.5459 24.4888 78.5459 23.1235 78.57 21.8558C81.3108 21.8802 84.0514 21.929 85.662 21.9777C85.638 20.71 85.6861 18.8816 85.7582 17.6626C83.4262 17.7114 80.8058 17.7358 78.6421 17.7358C78.6662 16.6631 78.6902 15.6392 78.7143 14.6152H78.5459Z" fill="#17191E"/>
<path d="M92.9009 21.0519C92.925 19.7842 92.949 18.7115 92.9731 17.6632H88.1406C88.2128 19.7598 88.2128 21.9052 88.2128 25.0501C88.2128 28.1949 88.1887 30.3647 88.1406 32.4369H93.6702C93.574 30.9742 93.5499 28.5119 93.5499 26.4153C93.5499 23.0997 94.8963 22.149 97.9495 22.149C99.3681 22.149 100.378 22.3196 101.267 22.6365C101.291 21.3932 101.532 18.9797 101.676 17.907C100.762 17.6388 99.7525 17.4682 98.5264 17.4682C95.906 17.4438 93.9828 18.5165 93.0933 21.0763L92.9009 21.0519Z" fill="#17191E"/>
<path d="M116.977 24.9527C116.977 27.61 115.054 28.8533 112.025 28.8533C109.02 28.8533 107.097 27.6831 107.097 24.9527C107.097 22.2222 109.044 21.1983 112.025 21.1983C115.03 21.1983 116.977 22.2954 116.977 24.9527ZM122.002 24.8308C122.002 19.5405 117.867 17.1758 112.025 17.1758C106.159 17.1758 102.168 19.5405 102.168 24.8308C102.168 30.0967 105.895 32.9248 112.001 32.9248C118.155 32.9248 122.002 30.0967 122.002 24.8308Z" fill="#17191E"/>
</svg>
