<svg width="164" height="43" viewBox="0 0 164 43" fill="none" xmlns="http://www.w3.org/2000/svg">
<path d="M11.1169 36.607C9.16968 34.832 8.60119 31.1028 9.41248 28.4011C10.8192 30.1044 12.7683 30.6442 14.7872 30.9485C17.9039 31.4187 20.9648 31.2429 23.8601 29.8224C24.1913 29.66 24.4974 29.4434 24.8593 29.2246C25.131 30.0102 25.2017 30.8036 25.1068 31.6112C24.8761 33.5779 23.8945 35.0972 22.3334 36.2486C21.7091 36.7093 21.0485 37.1211 20.4038 37.5556C18.4231 38.8901 17.8872 40.4553 18.6315 42.7323C18.6491 42.7878 18.665 42.8432 18.705 42.9786C17.6937 42.5273 16.9549 41.8702 16.3921 41.0063C15.7976 40.0943 15.5147 39.0856 15.4999 37.9944C15.4924 37.4632 15.4924 36.9272 15.4208 36.4037C15.2459 35.1273 14.6449 34.5557 13.5126 34.5226C12.3506 34.489 11.4314 35.2051 11.1876 36.3333C11.169 36.4196 11.142 36.5052 11.1151 36.6057L11.1169 36.607Z" fill="white"/>
<path d="M0 27.9507C0 27.9507 5.76613 25.1501 11.5484 25.1501L15.908 11.6968C16.0712 11.0462 16.5478 10.6041 17.0858 10.6041C17.6238 10.6041 18.1004 11.0462 18.2636 11.6968L22.6232 25.1501C29.4714 25.1501 34.1718 27.9507 34.1718 27.9507C34.1718 27.9507 24.3773 1.34652 24.3582 1.29314C24.0771 0.506589 23.6026 0 22.9628 0H11.2098C10.5701 0 10.1147 0.506589 9.81442 1.29314C9.79326 1.34553 0 27.9507 0 27.9507Z" fill="white"/>
<path d="M60.7954 19.3932C60.7954 21.7506 57.8544 23.1586 53.7825 23.1586C51.1321 23.1586 50.195 22.5037 50.195 21.1285C50.195 19.6878 51.3584 19.0003 54.0083 19.0003C56.4001 19.0003 58.4359 19.033 60.7954 19.3277V19.3932ZM60.8273 16.479C59.3734 16.1516 57.1756 15.9552 54.5579 15.9552C46.9308 15.9552 43.3438 17.756 43.3438 21.9471C43.3438 26.3019 45.7998 27.9718 51.4877 27.9718C56.3032 27.9718 59.5669 26.7603 60.763 23.7807H60.9566C60.9242 24.501 60.8919 25.2214 60.8919 25.778C60.8919 27.3169 61.1505 27.4479 62.4109 27.4479H68.3574C68.0341 26.5311 67.8401 23.9444 67.8401 21.7179C67.8401 19.3277 67.9371 17.5268 67.9371 15.1039C67.9371 10.1597 64.9643 7.01636 55.6566 7.01636C51.6493 7.01636 47.1894 7.70397 43.7963 8.719C44.1192 10.0614 44.5718 12.7791 44.7981 14.5472C47.739 13.172 51.9079 12.5826 55.1398 12.5826C59.5993 12.5826 60.8273 13.5977 60.8273 15.6605V16.479Z" fill="white"/>
<path d="M77.1433 20.7681C76.3355 20.8663 75.2364 20.8663 74.1054 20.8663C72.9097 20.8663 71.811 20.8336 71.0675 20.7353C71.0675 20.9973 71.0352 21.2919 71.0352 21.5539C71.0352 25.6467 73.7175 28.0369 83.1545 28.0369C92.0415 28.0369 94.9178 25.6795 94.9178 21.5211C94.9178 17.592 93.0113 15.6602 84.5765 15.2345C78.0157 14.9398 77.4343 14.2195 77.4343 13.4009C77.4343 12.4514 78.2743 11.9603 82.6696 11.9603C87.2264 11.9603 88.4544 12.5824 88.4544 13.8921V14.1868C89.1006 14.154 90.2643 14.1213 91.46 14.1213C92.5911 14.1213 93.8191 14.154 94.5303 14.2195C94.5303 13.9248 94.5626 13.6629 94.5626 13.4337C94.5626 8.62047 90.5549 7.04883 82.7989 7.04883C74.0731 7.04883 71.1321 9.17713 71.1321 13.3354C71.1321 17.0681 73.4916 19.3929 81.8618 19.753C88.0342 19.9495 88.7131 20.6371 88.7131 21.5866C88.7131 22.6017 87.7109 23.0601 83.3808 23.0601C78.4036 23.0601 77.1433 22.3725 77.1433 20.9645V20.7681Z" fill="white"/>
<path d="M105.581 3.5127C103.222 5.7065 98.9879 7.90025 96.6289 8.48962C96.6612 9.7011 96.6612 11.9276 96.6612 13.1391L98.8263 13.1718C98.794 15.4966 98.7617 18.3125 98.7617 20.1788C98.7617 24.5336 101.056 27.8079 108.198 27.8079C111.204 27.8079 113.208 27.4804 115.696 26.9566C115.437 25.3521 115.146 22.8964 115.049 21.0301C113.563 21.5212 111.689 21.7832 109.62 21.7832C106.744 21.7832 105.581 20.9974 105.581 18.7381C105.581 16.7736 105.581 14.9399 105.613 13.2373C109.297 13.2701 112.981 13.3355 115.146 13.401C115.114 11.6984 115.179 9.24269 115.276 7.60555C112.141 7.67105 108.618 7.7038 105.71 7.7038C105.742 6.26311 105.775 4.88792 105.807 3.5127H105.581Z" fill="white"/>
<path d="M124.887 12.157C124.92 10.4543 124.952 9.0137 124.984 7.60572H118.488C118.585 10.4216 118.585 13.303 118.585 17.5268C118.585 21.7506 118.553 24.6647 118.488 27.4479H125.921C125.792 25.4833 125.76 22.1763 125.76 19.3604C125.76 14.9074 127.57 13.6304 131.674 13.6304C133.581 13.6304 134.938 13.8596 136.134 14.2853C136.166 12.6154 136.489 9.37386 136.683 7.93317C135.455 7.57301 134.098 7.34381 132.449 7.34381C128.927 7.31106 126.342 8.75174 125.146 12.1897L124.887 12.157Z" fill="white"/>
<path d="M157.247 17.3958C157.247 20.9648 154.662 22.6347 150.59 22.6347C146.551 22.6347 143.965 21.063 143.965 17.3958C143.965 13.7287 146.583 12.3535 150.59 12.3535C154.63 12.3535 157.247 13.8269 157.247 17.3958ZM164.002 17.2321C164.002 10.127 158.443 6.95093 150.59 6.95093C142.705 6.95093 137.34 10.127 137.34 17.2321C137.34 24.3046 142.349 28.1029 150.558 28.1029C158.831 28.1029 164.002 24.3046 164.002 17.2321Z" fill="white"/>
</svg>
