<svg width="64" height="64" viewBox="0 0 64 64" fill="none" xmlns="http://www.w3.org/2000/svg">
<rect width="64" height="64" fill="white"/>
<path d="M34.9951 29.0508C35.3096 29.0545 35.6105 29.1811 35.833 29.4033C36.0555 29.6258 36.1828 29.9275 36.1865 30.2422C36.1901 30.5567 36.0706 30.8603 35.8535 31.0879L32.2529 34.6875C32.142 34.7993 32.0105 34.8883 31.8652 34.9492C31.7199 35.0101 31.5638 35.0423 31.4062 35.043C31.2486 35.0436 31.0921 35.0129 30.9463 34.9531C30.8006 34.8934 30.6684 34.8052 30.5566 34.6943L28.1494 32.2881C27.9322 32.0603 27.8127 31.7561 27.8164 31.4414C27.8202 31.1269 27.9466 30.826 28.1689 30.6035C28.3915 30.381 28.6931 30.2547 29.0078 30.251C29.3223 30.2474 29.6259 30.3669 29.8535 30.584L31.4014 32.1436L34.1494 29.3838C34.3771 29.1667 34.6806 29.0471 34.9951 29.0508Z" fill="#3E96F4"/>
<path fill-rule="evenodd" clip-rule="evenodd" d="M41.0098 20C41.8028 20.0002 42.5633 20.3152 43.124 20.876C43.6848 21.4367 43.9998 22.1972 44 22.9902V41.0098C43.9988 41.8025 43.6836 42.5625 43.123 43.123C42.5625 43.6836 41.8025 43.9988 41.0098 44H22.9902C22.1972 43.9998 21.4367 43.6848 20.876 43.124C20.3152 42.5633 20.0002 41.8028 20 41.0098V22.9902C20.0012 22.1975 20.3164 21.4375 20.877 20.877C21.4375 20.3164 22.1975 20.0012 22.9902 20H41.0098ZM32.4082 23.1113C32.1446 23.016 31.8554 23.016 31.5918 23.1113L24.9922 25.5107C24.7609 25.5944 24.5606 25.7472 24.4189 25.9482C24.2773 26.1494 24.201 26.3897 24.2002 26.6357V30.8477C24.2051 33.0232 24.8772 35.1452 26.126 36.9268C27.3748 38.7082 29.1402 40.0639 31.1836 40.8105C31.4429 40.9149 31.7205 40.9682 32 40.9668C32.2783 40.966 32.5547 40.9178 32.8164 40.8232C34.8599 40.0731 36.6245 38.7148 37.873 36.9316C39.1217 35.1483 39.794 33.0247 39.7998 30.8477V26.6357C39.799 26.3897 39.7227 26.1494 39.5811 25.9482C39.4394 25.7472 39.2391 25.5944 39.0078 25.5107L32.4082 23.1113Z" fill="#3E96F4"/>
</svg>
