<svg width="72" height="72" viewBox="0 0 72 72" fill="none" xmlns="http://www.w3.org/2000/svg">
<circle cx="36" cy="36" r="35.1" fill="url(#paint0_radial_1_2127)" stroke="#C3D8EF" stroke-width="1.8"/>
<path d="M45.2246 30.2468L43.2839 30.0054C43.0657 29.2532 42.7639 28.5289 42.3879 27.8464L43.5857 26.305C43.8643 25.9475 43.7993 25.4089 43.4371 25.0607L40.9439 22.5675C40.5864 22.2007 40.0479 22.1357 39.695 22.4143L38.1536 23.6121C37.4711 23.2361 36.7468 22.9343 35.9946 22.7161L35.7532 20.7754C35.6975 20.3343 35.275 20 34.7689 20H31.2357C30.7296 20 30.3025 20.3343 30.2468 20.7754L30.0054 22.7161C29.2532 22.9343 28.5289 23.2361 27.8464 23.6121L26.305 22.4143C25.9475 22.1357 25.4089 22.2007 25.0561 22.5629L22.5629 25.0561C22.1961 25.4136 22.1311 25.9475 22.4096 26.305L23.6121 27.8464C23.2361 28.5289 22.9343 29.2532 22.7161 30.0054L20.7754 30.2468C20.3343 30.3025 20 30.725 20 31.2311V34.7643C20 35.2704 20.3343 35.6975 20.7754 35.7532L22.7161 35.9946C22.9343 36.7468 23.2361 37.4711 23.6121 38.1536L22.4143 39.695C22.1357 40.0525 22.2007 40.5911 22.5629 40.9393L25.0561 43.4325C25.4136 43.7993 25.9475 43.8643 26.305 43.5857L27.8464 42.3879C28.5289 42.7639 29.2532 43.0657 30.0054 43.2839L30.2468 45.2246C30.3025 45.6657 30.725 46 31.2311 46H34.7643C35.2704 46 35.6975 45.6657 35.7532 45.2246L35.9946 43.2839C36.7468 43.0657 37.4711 42.7639 38.1536 42.3879L39.695 43.5857C40.0525 43.8643 40.5864 43.7993 40.9439 43.4371L43.4371 40.9439C43.8039 40.5864 43.8689 40.0525 43.5904 39.695L42.3879 38.1536C42.7639 37.4711 43.0657 36.7468 43.2839 35.9946L45.2246 35.7532C45.6657 35.6975 46 35.275 46 34.7689V31.2357C46 30.725 45.6657 30.3025 45.2246 30.2468ZM45.1596 34.7689C45.1596 34.8664 45.1179 34.9221 45.1225 34.9268L42.9032 35.2007C42.7314 35.2239 42.5921 35.3446 42.5504 35.5118C42.3229 36.38 41.9793 37.2111 41.5243 37.9864C41.4814 38.0586 41.4616 38.1422 41.4674 38.226C41.4732 38.3097 41.5044 38.3898 41.5568 38.4554L42.9218 40.2057C42.9264 40.2196 42.9171 40.2893 42.8475 40.3543L40.345 42.8568C40.2846 42.9218 40.215 42.9311 40.2104 42.9311L38.4507 41.5568C38.3851 41.5044 38.3051 41.4732 38.2213 41.4674C38.1375 41.4616 38.054 41.4814 37.9818 41.5243C37.2111 41.9746 36.3754 42.3229 35.5071 42.5504C35.4262 42.5717 35.3533 42.6167 35.298 42.6795C35.2426 42.7423 35.2071 42.8202 35.1961 42.9032L34.9268 45.1039C34.9175 45.1179 34.8618 45.1596 34.7643 45.1596H31.2311C31.1382 45.1596 31.0825 45.1225 31.0779 45.1225L30.8039 42.9032C30.7937 42.8199 30.7585 42.7416 30.703 42.6787C30.6475 42.6157 30.5742 42.571 30.4929 42.5504C29.6246 42.3229 28.7936 41.9793 28.0182 41.5243C27.946 41.4814 27.8625 41.4616 27.7787 41.4674C27.6949 41.4732 27.6149 41.5044 27.5493 41.5568L25.7989 42.9218C25.785 42.9264 25.7154 42.9171 25.6504 42.8475L23.1479 40.345C23.1092 40.3093 23.0831 40.2621 23.0736 40.2104L24.4479 38.4507C24.5546 38.3161 24.5639 38.1304 24.4804 37.9818C24.0284 37.2069 23.6832 36.3745 23.4543 35.5071C23.4329 35.4262 23.388 35.3533 23.3252 35.298C23.2623 35.2426 23.1845 35.2071 23.1014 35.1961L20.9007 34.9268C20.8868 34.9175 20.845 34.8618 20.845 34.7643V31.2311C20.845 31.1336 20.8868 31.0779 20.8821 31.0732L23.1014 30.7993C23.2732 30.7761 23.4125 30.6554 23.4543 30.4882C23.6818 29.62 24.0254 28.7889 24.4804 28.0136C24.5232 27.9414 24.5431 27.8578 24.5373 27.774C24.5315 27.6903 24.5003 27.6102 24.4479 27.5446L23.0829 25.7943C23.0782 25.7804 23.0875 25.7107 23.1571 25.6457L25.6596 23.1432C25.72 23.0782 25.7896 23.0689 25.7943 23.0689L27.5539 24.4432C27.6886 24.55 27.8743 24.5593 28.0229 24.4757C28.7936 24.0254 29.6293 23.6771 30.4975 23.4496C30.6646 23.4079 30.7854 23.2639 30.8086 23.0968L31.0779 20.8961C31.0871 20.8821 31.1429 20.8404 31.2404 20.8404H34.7736C34.8711 20.8404 34.9314 20.8821 34.9314 20.8775L35.2054 23.0968C35.2286 23.2686 35.3493 23.4079 35.5164 23.4496C36.3846 23.6771 37.2157 24.0207 37.9911 24.4757C38.1396 24.5639 38.3254 24.55 38.46 24.4432L40.2104 23.0782C40.2243 23.0736 40.2939 23.0829 40.3589 23.1525L42.8614 25.655C42.9264 25.72 42.9357 25.785 42.9357 25.7896L41.5614 27.5493C41.4546 27.6839 41.4454 27.8696 41.5289 28.0182C41.9809 28.7931 42.326 29.6255 42.555 30.4929C42.5968 30.66 42.7407 30.7807 42.9079 30.8039L45.1086 31.0732C45.1225 31.0825 45.1643 31.1382 45.1643 31.2357V34.7689H45.1596Z" fill="black"/>
<path d="M33.0001 25.72C28.984 25.72 25.7201 28.9885 25.7201 33C25.7201 37.0114 28.984 40.28 33.0001 40.28C37.0162 40.28 40.2801 37.016 40.2801 33C40.2801 28.9839 37.0162 25.72 33.0001 25.72ZM33.0001 39.4443C29.4483 39.4443 26.5558 36.5518 26.5558 33C26.5558 29.4482 29.4483 26.5557 33.0001 26.5557C36.5519 26.5557 39.4444 29.4482 39.4444 33C39.4444 36.5518 36.5519 39.4443 33.0001 39.4443Z" fill="black"/>
<rect x="34.5" y="34.5" width="17" height="17" rx="1.5" fill="white" stroke="black"/>
<path d="M38 42.25L41.1429 46L49 40" stroke="black" stroke-linecap="round" stroke-linejoin="round"/>
<defs>
<radialGradient id="paint0_radial_1_2127" cx="0" cy="0" r="1" gradientUnits="userSpaceOnUse" gradientTransform="translate(36 36) rotate(90) scale(36)">
<stop offset="0.591346" stop-color="#3E96F4" stop-opacity="0"/>
<stop offset="0.822115" stop-color="#3E96F4" stop-opacity="0.1"/>
<stop offset="1" stop-color="#3E96F4" stop-opacity="0.3"/>
</radialGradient>
</defs>
</svg>
