<svg width="68" height="68" viewBox="0 0 68 68" fill="none" xmlns="http://www.w3.org/2000/svg">
<circle cx="32" cy="32" r="33" transform="matrix(1 0 0 -1 2 66)" fill="#3E96F4" stroke="white" stroke-width="2"/>
<path d="M34.3702 39.8629C31.1008 39.8629 28.4408 37.2561 28.4408 34.0512C28.4408 30.8463 31.1008 28.2391 34.3702 28.2391C34.8338 28.2391 35.3987 28.3532 35.3614 28.9467C35.3256 29.5132 34.8122 29.5506 34.3702 29.5506C31.8237 29.5506 29.7523 31.5696 29.7523 34.0512C29.7523 36.5328 31.8237 38.5514 34.3702 38.5514C36.9167 38.5514 38.9882 36.5325 38.9882 34.0512C38.9902 33.3342 38.8155 32.6278 38.4793 31.9945C38.4375 31.9182 38.4113 31.8344 38.4022 31.7479C38.3931 31.6614 38.4013 31.5739 38.4264 31.4906C38.4514 31.4073 38.4927 31.3299 38.548 31.2627C38.6033 31.1955 38.6713 31.14 38.7483 31.0994C38.8252 31.0588 38.9094 31.0339 38.996 31.0262C39.0827 31.0185 39.17 31.028 39.2529 31.0544C39.3358 31.0807 39.4126 31.1233 39.4789 31.1796C39.5452 31.2359 39.5996 31.3048 39.639 31.3824C40.0723 32.2053 40.299 33.1212 40.2996 34.0512C40.2996 37.2561 37.64 39.8629 34.3702 39.8629Z" fill="white" stroke="white" stroke-width="0.5"/>
<path d="M37.4973 30.5552C37.3645 30.5552 37.2304 30.5148 37.1144 30.4312C36.9398 30.3056 36.7569 30.192 36.5668 30.0912C36.4889 30.0521 36.4195 29.9977 36.3629 29.9314C36.3062 29.865 36.2633 29.788 36.2367 29.7049C36.2102 29.6218 36.2005 29.5342 36.2082 29.4473C36.216 29.3604 36.241 29.2759 36.2818 29.1988C36.3226 29.1216 36.3783 29.0534 36.4458 28.9981C36.5133 28.9428 36.5912 28.9016 36.6748 28.8768C36.7585 28.8519 36.8463 28.8441 36.933 28.8536C37.0197 28.8631 37.1037 28.8899 37.1799 28.9322C37.4232 29.0611 37.6593 29.2073 37.8816 29.3677C38.3852 29.7306 38.119 30.5552 37.4973 30.5552ZM52.2033 23.7064L52.1801 20.8596C52.1786 20.6866 52.1089 20.5213 51.986 20.3995C51.8632 20.2777 51.6973 20.2094 51.5243 20.2094H51.5188C51.4326 20.2101 51.3475 20.2277 51.2682 20.2613C51.1889 20.2949 51.117 20.3438 51.0566 20.4052C50.9962 20.4666 50.9485 20.5392 50.9162 20.6191C50.8839 20.6989 50.8676 20.7843 50.8683 20.8704L50.8752 21.7343C46.9385 17.0465 40.6327 14 34.5842 14C28.3299 14 22.5405 16.8013 18.7028 21.6848C18.6486 21.7524 18.6083 21.8301 18.5842 21.9134C18.5602 21.9967 18.5529 22.084 18.5629 22.1701C18.5728 22.2562 18.5996 22.3395 18.642 22.4152C18.6843 22.4909 18.7412 22.5574 18.8094 22.6109C18.8775 22.6645 18.9557 22.7039 19.0392 22.7271C19.1228 22.7502 19.2101 22.7566 19.2961 22.7458C19.3821 22.735 19.4651 22.7072 19.5403 22.6641C19.6156 22.621 19.6815 22.5634 19.7343 22.4946C23.3218 17.9295 28.7345 15.3115 34.5842 15.3115C40.4642 15.3115 46.6047 18.3822 50.2604 23.0566H48.4608C48.2869 23.0566 48.1201 23.1257 47.9971 23.2487C47.8741 23.3716 47.805 23.5384 47.805 23.7123C47.805 23.8862 47.8741 24.053 47.9971 24.176C48.1201 24.299 48.2869 24.368 48.4608 24.368H51.5476C51.7591 24.3677 52.2033 24.132 52.2033 23.7064ZM53.3387 26.71C53.2756 26.5479 53.1506 26.4176 52.9914 26.3477C52.8321 26.2778 52.6516 26.274 52.4896 26.3372C52.3275 26.4004 52.1972 26.5253 52.1273 26.6846C52.0574 26.8438 52.0536 27.0243 52.1168 27.1864C52.9413 29.3019 53.3628 31.5531 53.3594 33.8237C53.3594 41.014 48.3506 47.9185 41.2137 50.8913L41.7022 50.1437C41.7502 50.0717 41.7834 49.9908 41.7999 49.9058C41.8165 49.8208 41.8161 49.7334 41.7986 49.6485C41.7812 49.5637 41.7472 49.4832 41.6985 49.4116C41.6498 49.34 41.5874 49.2787 41.5148 49.2314C41.4423 49.184 41.3612 49.1515 41.276 49.1357C41.1909 49.1199 41.1035 49.1211 41.0188 49.1393C40.9341 49.1574 40.8539 49.1922 40.7827 49.2415C40.7116 49.2909 40.6509 49.3538 40.6042 49.4267L39.0402 51.8195C38.8225 52.1516 38.9625 52.6181 39.3245 52.7781L41.9592 53.9401C42.7327 54.2794 43.2622 53.0817 42.4884 52.7401L41.3674 52.246C44.8084 50.8798 47.9277 48.6077 50.2752 45.7294C53.1512 42.2029 54.6708 38.0862 54.6708 33.8237C54.6743 31.3901 54.2225 28.9774 53.3387 26.71C54.2227 28.9785 53.2073 26.3726 53.3387 26.71ZM35.3623 52.3201C35.1042 52.3303 34.8449 52.3355 34.5842 52.3355C24.2316 52.3355 15.8091 44.0314 15.8091 33.8237C15.8091 32.0178 16.5681 29.7591 17.2914 27.8526L17.8697 29.1322C18.2189 29.904 19.4127 29.3614 19.0651 28.5926L17.8425 25.8877C17.692 25.5552 17.2779 25.408 16.9514 25.5713L14.378 26.8601C14.2986 26.8973 14.2275 26.9499 14.1688 27.0149C14.1101 27.08 14.0651 27.1561 14.0363 27.2389C14.0076 27.3216 13.9957 27.4093 14.0014 27.4967C14.0071 27.5841 14.0302 27.6695 14.0695 27.7479C14.1087 27.8262 14.1632 27.8958 14.2298 27.9527C14.2965 28.0096 14.3738 28.0526 14.4573 28.0791C14.5408 28.1056 14.6287 28.1151 14.716 28.1071C14.8032 28.099 14.8879 28.0736 14.9652 28.0323L16.0212 27.5034C15.273 29.487 14.498 31.8384 14.498 33.8233C14.498 44.7537 23.5087 53.6463 34.5846 53.6463C34.8626 53.6463 35.1393 53.6404 35.4144 53.6296C35.5016 53.6279 35.5875 53.6089 35.6673 53.5735C35.747 53.5382 35.8189 53.4873 35.8787 53.4239C35.9385 53.3604 35.985 53.2857 36.0156 53.204C36.0461 53.1223 36.0601 53.0354 36.0566 52.9483C36.0531 52.8611 36.0323 52.7756 35.9954 52.6966C35.9584 52.6176 35.9061 52.5468 35.8414 52.4883C35.7768 52.4298 35.7011 52.3848 35.6188 52.3559C35.5365 52.327 35.4493 52.3149 35.3623 52.3201C35.7232 52.3063 35.1046 52.3303 35.3623 52.3201Z" fill="white"/>
<path d="M53.3387 26.71C53.2756 26.5479 53.1506 26.4176 52.9914 26.3477C52.8321 26.2778 52.6516 26.274 52.4896 26.3372C52.3275 26.4004 52.1972 26.5253 52.1273 26.6846C52.0574 26.8438 52.0536 27.0243 52.1168 27.1864C52.9413 29.3019 53.3628 31.5531 53.3594 33.8237C53.3594 41.014 48.3506 47.9185 41.2137 50.8913L41.7022 50.1437C41.7502 50.0717 41.7834 49.9908 41.7999 49.9058C41.8165 49.8208 41.8161 49.7334 41.7986 49.6485C41.7812 49.5637 41.7472 49.4832 41.6985 49.4116C41.6498 49.34 41.5874 49.2787 41.5148 49.2314C41.4423 49.184 41.3612 49.1515 41.276 49.1357C41.1909 49.1199 41.1035 49.1211 41.0188 49.1393C40.9341 49.1574 40.8539 49.1922 40.7827 49.2415C40.7116 49.2908 40.6509 49.3538 40.6042 49.4267L39.0402 51.8195C38.8225 52.1516 38.9625 52.6181 39.3245 52.7781L41.9592 53.9401C42.7327 54.2794 43.2622 53.0817 42.4884 52.7401L41.3674 52.246C44.8084 50.8798 47.9277 48.6077 50.2752 45.7294C53.1512 42.2029 54.6708 38.0862 54.6708 33.8237C54.6743 31.3901 54.2225 28.9774 53.3387 26.71ZM53.3387 26.71C53.2073 26.3726 54.2227 28.9785 53.3387 26.71ZM35.3623 52.3201C35.1042 52.3303 34.8449 52.3355 34.5842 52.3355C24.2316 52.3355 15.8091 44.0314 15.8091 33.8237C15.8091 32.0178 16.5681 29.7591 17.2914 27.8526L17.8697 29.1322C18.2189 29.904 19.4127 29.3614 19.0651 28.5926L17.8425 25.8877C17.692 25.5552 17.2779 25.408 16.9514 25.5713L14.378 26.8601C14.2986 26.8973 14.2275 26.9499 14.1688 27.0149C14.1101 27.08 14.0651 27.1561 14.0363 27.2389C14.0076 27.3216 13.9957 27.4093 14.0014 27.4967C14.0071 27.5841 14.0302 27.6695 14.0695 27.7479C14.1087 27.8262 14.1632 27.8958 14.2298 27.9527C14.2965 28.0096 14.3738 28.0526 14.4573 28.0791C14.5408 28.1056 14.6287 28.1151 14.716 28.1071C14.8032 28.099 14.8879 28.0736 14.9652 28.0323L16.0212 27.5034C15.273 29.487 14.498 31.8384 14.498 33.8233C14.498 44.7537 23.5087 53.6463 34.5846 53.6463C34.8626 53.6463 35.1393 53.6404 35.4144 53.6296C35.5016 53.6279 35.5875 53.6089 35.6673 53.5735C35.747 53.5382 35.8189 53.4873 35.8787 53.4239C35.9385 53.3604 35.985 53.2857 36.0156 53.204C36.0461 53.1223 36.0601 53.0354 36.0566 52.9483C36.0531 52.8611 36.0323 52.7756 35.9954 52.6966C35.9584 52.6176 35.9061 52.5468 35.8414 52.4883C35.7768 52.4298 35.7011 52.3848 35.6188 52.3559C35.5365 52.327 35.4493 52.3149 35.3623 52.3201ZM35.3623 52.3201C35.1046 52.3303 35.7232 52.3063 35.3623 52.3201ZM37.4973 30.5552C37.3645 30.5552 37.2304 30.5148 37.1144 30.4312C36.9398 30.3056 36.7569 30.192 36.5668 30.0912C36.4889 30.0521 36.4195 29.9977 36.3629 29.9314C36.3062 29.865 36.2633 29.788 36.2367 29.7049C36.2102 29.6218 36.2005 29.5342 36.2082 29.4473C36.216 29.3604 36.241 29.2759 36.2818 29.1988C36.3226 29.1216 36.3783 29.0534 36.4458 28.9981C36.5133 28.9428 36.5912 28.9016 36.6748 28.8768C36.7585 28.8519 36.8463 28.8441 36.933 28.8536C37.0197 28.8631 37.1037 28.8899 37.1799 28.9322C37.4232 29.0611 37.6593 29.2073 37.8816 29.3677C38.3852 29.7306 38.119 30.5552 37.4973 30.5552ZM52.2033 23.7064L52.1801 20.8596C52.1786 20.6866 52.1089 20.5213 51.986 20.3995C51.8632 20.2777 51.6973 20.2094 51.5243 20.2094H51.5188C51.4326 20.2101 51.3475 20.2277 51.2682 20.2613C51.1889 20.2949 51.117 20.3438 51.0566 20.4052C50.9962 20.4666 50.9485 20.5392 50.9162 20.6191C50.8839 20.6989 50.8676 20.7843 50.8683 20.8704L50.8752 21.7343C46.9385 17.0465 40.6327 14 34.5842 14C28.3299 14 22.5405 16.8013 18.7028 21.6848C18.6486 21.7524 18.6083 21.8301 18.5842 21.9134C18.5602 21.9967 18.5529 22.084 18.5629 22.1701C18.5728 22.2562 18.5996 22.3395 18.642 22.4152C18.6843 22.4909 18.7412 22.5574 18.8094 22.6109C18.8775 22.6645 18.9557 22.7039 19.0392 22.7271C19.1228 22.7502 19.2101 22.7566 19.2961 22.7458C19.3821 22.735 19.4651 22.7072 19.5403 22.6641C19.6156 22.621 19.6815 22.5634 19.7343 22.4946C23.3218 17.9295 28.7345 15.3115 34.5842 15.3115C40.4642 15.3115 46.6047 18.3822 50.2604 23.0566H48.4608C48.2869 23.0566 48.1201 23.1257 47.9971 23.2487C47.8741 23.3716 47.805 23.5384 47.805 23.7123C47.805 23.8862 47.8741 24.053 47.9971 24.176C48.1201 24.299 48.2869 24.368 48.4608 24.368H51.5476C51.7591 24.3677 52.2033 24.132 52.2033 23.7064Z" stroke="white" stroke-width="0.5"/>
<path d="M35.3927 47.111C34.7491 47.111 32.8413 47.1186 32.5442 46.992C32.0327 46.7743 31.6157 46.2192 31.6157 45.65V44.3438C30.6281 44.0851 29.6828 43.6857 28.8089 43.158L27.8908 44.074C27.3144 44.6432 26.3318 44.5478 25.7787 44.0186C25.5086 43.7599 24.4568 42.6858 24.2135 42.4032C23.6948 41.8003 23.7063 40.8659 24.2732 40.3L25.1971 39.3783C24.6568 38.4577 24.2627 37.4902 24.0384 36.5331H22.7453C21.9391 36.5331 21.2729 35.8708 21.2286 35.0718C21.208 34.6984 21.2178 33.1919 21.2286 32.8168C21.2509 32.044 21.8762 31.3017 22.6916 31.3017H24.0024C24.2615 30.3167 24.6614 29.3742 25.1899 28.5034L24.2735 27.589C23.7001 27.0156 23.7994 26.0287 24.3289 25.4779C24.5883 25.2084 25.665 24.1586 25.9479 23.9163C26.5512 23.3999 27.4856 23.4113 28.0521 23.9759L28.9774 24.8992C29.9003 24.3595 30.8708 23.9661 31.8308 23.7418V22.3999C31.8308 21.5933 32.4957 20.9294 33.2937 20.8848C33.6678 20.8642 35.1779 20.873 35.554 20.8848C35.9472 20.897 36.32 21.0622 36.5932 21.3452C36.8665 21.6281 37.0185 22.0065 37.0169 22.3999V23.7061C38.0046 23.9647 38.9499 24.3641 39.8238 24.892L40.7418 23.9759C41.3169 23.4048 42.3021 23.5035 42.8539 24.0317C43.1241 24.2904 44.1758 25.3641 44.4188 25.6467C44.9375 26.25 44.926 27.1841 44.3588 27.75L43.4352 28.6716C43.9755 29.5919 44.3693 30.5591 44.5939 31.5165H45.887C46.6745 31.5165 47.3719 32.0991 47.4525 32.8965C47.4915 33.2824 47.4689 34.8473 47.4578 35.2331C47.4355 36.0063 46.8109 36.7479 45.9948 36.7479H44.684C44.4248 37.733 44.0248 38.6756 43.4965 39.5465L44.4129 40.4606C44.9867 41.0344 44.887 42.0212 44.3575 42.5721C44.0981 42.8416 43.0218 43.8911 42.7385 44.1333C42.1349 44.6501 41.2011 44.6392 40.6343 44.074L39.709 43.1507C38.7861 43.6901 37.8159 44.0838 36.8556 44.3081V45.5963C36.8556 46.3694 36.1914 47.111 35.3927 47.111ZM32.9268 45.5979C32.9409 45.6645 32.9878 45.7996 33.1321 45.7996H35.3409C35.4081 45.7855 35.5442 45.7389 35.5442 45.596V43.7704C35.5442 43.6152 35.5994 43.465 35.6997 43.3466C35.8001 43.2283 35.9392 43.1493 36.0924 43.1239C37.21 42.938 38.3707 42.4698 39.449 41.7704C39.5749 41.6889 39.725 41.6529 39.8742 41.6686C40.0234 41.6842 40.1627 41.7505 40.269 41.8563L41.5605 43.1452C41.6644 43.2491 41.8037 43.1878 41.8693 43.1491L43.4404 41.6337C43.5342 41.5403 43.4775 41.4075 43.4388 41.3413L42.1949 40.1C42.0864 39.9918 42.0193 39.849 42.0051 39.6965C41.9909 39.5439 42.0305 39.3912 42.1172 39.2649C42.7805 38.2974 43.2798 37.123 43.5231 35.9574C43.5539 35.8099 43.6345 35.6776 43.7514 35.5826C43.8683 35.4876 44.0144 35.4357 44.165 35.4358H45.9434C46.0102 35.422 46.1463 35.3758 46.1463 35.2328V33.0276C46.1194 32.8948 46.0322 32.8276 45.887 32.8276H44.0572C43.9019 32.8276 43.7517 32.7726 43.6333 32.6723C43.5148 32.5719 43.4358 32.4329 43.4103 32.2797C43.2244 31.1653 42.7552 30.008 42.0546 28.9323C41.9724 28.8061 41.9361 28.6555 41.9518 28.5058C41.9675 28.3561 42.0342 28.2163 42.1408 28.11L43.4322 26.8211C43.5342 26.7195 43.4742 26.5821 43.4362 26.5169L41.9175 24.9494C41.8224 24.8549 41.6874 24.912 41.6201 24.9507L40.3759 26.1923C40.2679 26.3002 40.1255 26.367 39.9734 26.3811C39.8213 26.3952 39.6691 26.3556 39.5431 26.2693C38.5736 25.608 37.3959 25.1094 36.2271 24.8664C36.0795 24.8357 35.947 24.7552 35.8519 24.6382C35.7568 24.5213 35.7048 24.3752 35.7048 24.2245V22.3989C35.7048 22.2727 35.6166 22.1953 35.5533 22.1953H33.3445C33.2773 22.2094 33.1412 22.256 33.1412 22.3989V24.2782C33.1412 24.4334 33.086 24.5836 32.9857 24.702C32.8853 24.8204 32.7462 24.8993 32.5931 24.9248C31.4757 25.1107 30.3151 25.5785 29.2364 26.2779C29.1106 26.3597 28.9606 26.3958 28.8113 26.3802C28.6621 26.3645 28.5228 26.2981 28.4167 26.192L27.1253 24.9035C27.0217 24.7999 26.882 24.8608 26.8164 24.8992L25.2453 26.4146C25.1515 26.508 25.2082 26.6408 25.2469 26.707L26.4909 27.9487C26.5993 28.0569 26.6665 28.1996 26.6807 28.3521C26.6949 28.5047 26.6552 28.6574 26.5686 28.7837C25.9056 29.7506 25.4063 30.9253 25.1627 32.0909C25.1319 32.2384 25.0512 32.3707 24.9343 32.4657C24.8174 32.5607 24.6714 32.6125 24.5207 32.6125H22.7434C22.6762 32.627 22.5401 32.6732 22.5401 32.8165V35.0197C22.5542 35.0863 22.6011 35.2213 22.7453 35.2213H24.5751C24.7304 35.2213 24.8806 35.2764 24.999 35.3767C25.1175 35.477 25.1965 35.6161 25.222 35.7692C25.4079 36.8833 25.8768 38.041 26.5777 39.117C26.6599 39.2432 26.6962 39.3937 26.6805 39.5435C26.6648 39.6932 26.5981 39.833 26.4915 39.9393L25.2 41.2278C25.0981 41.3298 25.1581 41.4672 25.1961 41.5324L26.7148 43.0999C26.8099 43.1947 26.9449 43.1376 27.0122 43.0983L28.2564 41.8567C28.3645 41.7487 28.5069 41.682 28.6591 41.6679C28.8112 41.6538 28.9634 41.6933 29.0895 41.7796C30.0587 42.4412 31.236 42.9399 32.4052 43.1829C32.5528 43.2135 32.6853 43.2941 32.7804 43.411C32.8755 43.528 32.9275 43.6741 32.9275 43.8248V45.5979H32.9268Z" fill="white" stroke="white" stroke-width="0.5"/>
</svg>
