<svg width="49" height="49" viewBox="0 0 49 49" fill="none" xmlns="http://www.w3.org/2000/svg">
<path d="M38.2369 15.7702L35.3258 15.4081C34.9985 14.2798 34.5458 13.1934 33.9817 12.1697L35.7785 9.85752C36.1963 9.32127 36.0988 8.51342 35.5556 7.9911L31.8158 4.25127C31.2795 3.7011 30.4717 3.6036 29.9424 4.02145L27.6303 5.81824C26.6065 5.25413 25.5201 4.80145 24.3919 4.47413L24.0297 1.56306C23.9462 0.901453 23.3124 0.400024 22.5533 0.400024H17.2535C16.4944 0.400024 15.8537 0.901453 15.7701 1.56306L15.4079 4.47413C14.2797 4.80145 13.1933 5.25413 12.1695 5.81824L9.8574 4.02145C9.32115 3.6036 8.5133 3.7011 7.98401 4.24431L4.24419 7.98413C3.69401 8.52038 3.59651 9.32127 4.01437 9.85752L5.81812 12.1697C5.25401 13.1934 4.80133 14.2798 4.47401 15.4081L1.56294 15.7702C0.901331 15.8538 0.399902 16.4875 0.399902 17.2466V22.5465C0.399902 23.3056 0.901331 23.9463 1.56294 24.0298L4.47401 24.392C4.80133 25.5202 5.25401 26.6066 5.81812 27.6304L4.02133 29.9425C3.60347 30.4788 3.70097 31.2866 4.24419 31.809L7.98401 35.5488C8.52026 36.099 9.32115 36.1965 9.8574 35.7786L12.1695 33.9818C13.1933 34.5459 14.2797 34.9986 15.4079 35.3259L15.7701 38.237C15.8537 38.8986 16.4874 39.4 17.2465 39.4H22.5463C23.3054 39.4 23.9462 38.8986 24.0297 38.237L24.3919 35.3259C25.5201 34.9986 26.6065 34.5459 27.6303 33.9818L29.9424 35.7786C30.4787 36.1965 31.2795 36.099 31.8158 35.5557L35.5556 31.8159C36.1058 31.2797 36.2033 30.4788 35.7854 29.9425L33.9817 27.6304C34.5458 26.6066 34.9985 25.5202 35.3258 24.392L38.2369 24.0298C38.8985 23.9463 39.3999 23.3125 39.3999 22.5534V17.2536C39.3999 16.4875 38.8985 15.8538 38.2369 15.7702ZM38.1394 22.5534C38.1394 22.6997 38.0767 22.7832 38.0837 22.7902L34.7547 23.2011C34.497 23.2359 34.2881 23.417 34.2254 23.6677C33.8842 24.97 33.3688 26.2166 32.6863 27.3797C32.622 27.488 32.5922 27.6133 32.6009 27.739C32.6097 27.8646 32.6564 27.9847 32.7351 28.0831L34.7826 30.7086C34.7895 30.7295 34.7756 30.834 34.6712 30.9315L30.9174 34.6852C30.8269 34.7827 30.7224 34.7966 30.7154 34.7966L28.076 32.7352C27.9776 32.6566 27.8575 32.6098 27.7319 32.6011C27.6062 32.5924 27.4809 32.6221 27.3726 32.6865C26.2165 33.362 24.9629 33.8843 23.6606 34.2256C23.5391 34.2576 23.4299 34.325 23.3468 34.4193C23.2638 34.5135 23.2106 34.6303 23.194 34.7548L22.7901 38.0559C22.7762 38.0768 22.6926 38.1395 22.5463 38.1395H17.2465C17.1072 38.1395 17.0237 38.0838 17.0167 38.0838L16.6058 34.7548C16.5904 34.6299 16.5376 34.5125 16.4544 34.418C16.3711 34.3236 16.2612 34.2565 16.1392 34.2256C14.8369 33.8843 13.5903 33.369 12.4272 32.6865C12.3189 32.6221 12.1936 32.5924 12.0679 32.6011C11.9423 32.6098 11.8222 32.6566 11.7238 32.7352L9.0983 34.7827C9.0774 34.7897 8.97294 34.7757 8.87544 34.6713L5.12169 30.9175C5.06369 30.864 5.02459 30.7932 5.01026 30.7156L7.07169 28.0761C7.23187 27.8741 7.2458 27.5956 7.12044 27.3727C6.44249 26.2104 5.92477 24.9618 5.58133 23.6607C5.54929 23.5393 5.48187 23.43 5.38763 23.347C5.29339 23.2639 5.17658 23.2107 5.05205 23.1941L1.75097 22.7902C1.73008 22.7763 1.6674 22.6927 1.6674 22.5465V17.2466C1.6674 17.1004 1.73008 17.0168 1.72312 17.0098L5.05205 16.599C5.30972 16.5641 5.51865 16.3831 5.58133 16.1323C5.92258 14.83 6.43794 13.5834 7.12044 12.4204C7.18475 12.3121 7.21453 12.1867 7.20582 12.0611C7.19711 11.9354 7.15032 11.8154 7.07169 11.717L5.02419 9.09145C5.01722 9.07056 5.03115 8.9661 5.13562 8.8686L8.88937 5.11485C8.9799 5.01735 9.08437 5.00342 9.09133 5.00342L11.7308 7.06485C11.9328 7.22502 12.2113 7.23895 12.4342 7.1136C13.5903 6.43806 14.8438 5.91574 16.1462 5.57449C16.3969 5.51181 16.5779 5.29592 16.6128 5.0452L17.0167 1.74413C17.0306 1.72324 17.1142 1.66056 17.2604 1.66056H22.5603C22.7065 1.66056 22.797 1.72324 22.797 1.71627L23.2079 5.0452C23.2428 5.30288 23.4238 5.51181 23.6745 5.57449C24.9769 5.91574 26.2235 6.4311 27.3865 7.1136C27.6094 7.24592 27.8879 7.22502 28.0899 7.06485L30.7154 5.01735C30.7363 5.01038 30.8408 5.02431 30.9383 5.12877L34.692 8.88252C34.7895 8.98003 34.8035 9.07752 34.8035 9.08449L32.742 11.724C32.5819 11.9259 32.5679 12.2045 32.6933 12.4273C33.3712 13.5897 33.889 14.8383 34.2324 16.1393C34.2951 16.39 34.511 16.5711 34.7617 16.6059L38.0628 17.0098C38.0837 17.0238 38.1463 17.1073 38.1463 17.2536V22.5534H38.1394Z" fill="#3DA4C2" stroke="#3DA4C2" stroke-width="0.8"/>
<path d="M19.8995 8.97998C13.8754 8.97998 8.97949 13.8828 8.97949 19.9C8.97949 25.9171 13.8754 30.82 19.8995 30.82C25.9236 30.82 30.8195 25.9241 30.8195 19.9C30.8195 13.8759 25.9236 8.97998 19.8995 8.97998ZM19.8995 29.5664C14.5718 29.5664 10.2331 25.2277 10.2331 19.9C10.2331 14.5723 14.5718 10.2336 19.8995 10.2336C25.2272 10.2336 29.5659 14.5723 29.5659 19.9C29.5659 25.2277 25.2272 29.5664 19.8995 29.5664Z" fill="#3DA4C2" stroke="#3DA4C2" stroke-width="0.8"/>
<rect x="22.3999" y="22.4" width="25" height="25" rx="5" fill="#FAFAFA" stroke="#3DA4C2" stroke-width="2"/>
<path d="M27.3999 33.775L32.1142 39.4L43.8999 30.4" stroke="#3DA4C2" stroke-width="2" stroke-linecap="round" stroke-linejoin="round"/>
</svg>
