<svg width="64" height="64" viewBox="0 0 64 64" fill="none" xmlns="http://www.w3.org/2000/svg">
<rect width="64" height="64" rx="8" fill="#3E96F4"/>
<path d="M34.4319 34.7938C34.5778 34.7938 34.7184 34.8518 34.8215 34.9549C34.9246 35.058 34.9826 35.1987 34.9827 35.3445C34.9832 35.4169 34.9689 35.4894 34.9417 35.5565C34.9143 35.6235 34.8735 35.6847 34.8225 35.7361C34.7715 35.7875 34.7106 35.8284 34.6438 35.8563C34.5768 35.8842 34.5045 35.8992 34.4319 35.8992C34.3593 35.8992 34.287 35.8842 34.22 35.8563C34.1531 35.8283 34.0923 35.7876 34.0413 35.7361C33.9902 35.6847 33.9495 35.6236 33.9221 35.5565C33.8948 35.4894 33.8806 35.417 33.8811 35.3445C33.8812 35.1988 33.9392 35.058 34.0422 34.9549C34.1454 34.8519 34.2861 34.7938 34.4319 34.7938Z" fill="white"/>
<path d="M29.3977 34.8192C29.5364 34.7746 29.688 34.786 29.8176 34.8524C29.9473 34.9188 30.0451 35.035 30.0901 35.1736C30.1127 35.2424 30.1219 35.3153 30.1165 35.3875C30.1109 35.4598 30.0907 35.5309 30.0579 35.5955C30.025 35.66 29.9792 35.7175 29.9241 35.7645C29.8689 35.8115 29.8046 35.8477 29.7356 35.8699C29.597 35.9144 29.4463 35.9021 29.3167 35.8358C29.1869 35.7693 29.0882 35.6541 29.0432 35.5154C29.0206 35.4465 29.0123 35.3729 29.0178 35.3006C29.0234 35.2286 29.0428 35.1579 29.0755 35.0936C29.1084 35.029 29.1541 34.9706 29.2092 34.9236C29.2644 34.8768 29.3288 34.8413 29.3977 34.8192Z" fill="white"/>
<path fill-rule="evenodd" clip-rule="evenodd" d="M31.9964 29.2381C33.5142 29.2382 34.753 30.482 34.7532 31.9998C34.753 33.5177 33.5142 34.7565 31.9964 34.7567C30.4784 34.7566 29.2358 33.5177 29.2356 31.9998C29.2358 30.4819 30.4784 29.2381 31.9964 29.2381ZM31.9964 30.3436C31.0748 30.3436 30.3413 31.0825 30.3411 31.9998C30.3413 32.9213 31.0748 33.6551 31.9964 33.6551C32.9178 33.655 33.6514 32.9171 33.6516 31.9998C33.6514 31.0784 32.9137 30.3437 31.9964 30.3436Z" fill="white"/>
<path d="M28.1477 30.1766C28.2915 30.2 28.4199 30.2802 28.5051 30.3983H28.51C28.5525 30.4567 28.583 30.5233 28.5999 30.5936C28.6167 30.664 28.6192 30.7379 28.6077 30.8094C28.5961 30.8808 28.5705 30.95 28.5325 31.0115C28.4943 31.0731 28.4439 31.1275 28.385 31.1697C28.3264 31.2124 28.2592 31.2427 28.1887 31.2596C28.1181 31.2764 28.0446 31.279 27.9729 31.2674C27.9013 31.2558 27.8324 31.2304 27.7708 31.1922C27.7092 31.154 27.6557 31.1036 27.6135 31.0447C27.5709 30.9861 27.5396 30.919 27.5227 30.8485C27.506 30.7779 27.5033 30.7042 27.5149 30.6326C27.5266 30.5611 27.5528 30.4921 27.5911 30.4305C27.6294 30.3689 27.6796 30.3154 27.7385 30.2733C27.8569 30.1885 28.004 30.1532 28.1477 30.1766Z" fill="white"/>
<path d="M35.8948 30.1678C35.967 30.1624 36.0399 30.1705 36.1087 30.1932C36.2473 30.2381 36.3625 30.337 36.429 30.4666C36.4952 30.5962 36.5075 30.747 36.4631 30.8856C36.441 30.9546 36.4046 31.0188 36.3577 31.074C36.3107 31.1292 36.2533 31.1749 36.1887 31.2078C36.1241 31.2407 36.0531 31.2609 35.9807 31.2664C35.9084 31.2719 35.8358 31.2627 35.7669 31.2401C35.6282 31.1952 35.513 31.0973 35.4465 30.9676C35.3802 30.8378 35.3677 30.6864 35.4124 30.5477C35.4346 30.4788 35.4699 30.4143 35.5169 30.3592C35.5639 30.304 35.6222 30.2583 35.6868 30.2254C35.7513 30.1927 35.8226 30.1733 35.8948 30.1678Z" fill="white"/>
<path d="M31.9075 27.3201C32.0512 27.2968 32.1993 27.3309 32.3176 27.4158C32.3766 27.458 32.4268 27.5115 32.4651 27.5731C32.5033 27.6346 32.5286 27.7038 32.5403 27.7752C32.5519 27.8467 32.5492 27.9205 32.5325 27.991C32.5157 28.0615 32.4852 28.1287 32.4426 28.1873C32.3575 28.3053 32.2288 28.3805 32.0852 28.4041C31.9414 28.4276 31.7935 28.3934 31.6751 28.3084C31.5571 28.2232 31.4779 28.0946 31.4544 27.951C31.431 27.8072 31.4651 27.6592 31.5501 27.5408C31.6353 27.423 31.764 27.3437 31.9075 27.3201Z" fill="white"/>
<path fill-rule="evenodd" clip-rule="evenodd" d="M31.9973 23.1746C36.864 23.1748 40.826 27.1281 40.8264 31.9988C40.8264 36.8658 36.8643 40.8277 31.9973 40.8279C27.1302 40.8279 23.1682 36.8659 23.1682 31.9988C23.1687 27.1279 27.1263 23.1746 31.9973 23.1746ZM31.9973 37.0662C31.5595 37.0664 31.0088 37.4175 30.5169 38.4012L29.9876 39.4578C30.6284 39.6296 31.3019 39.7235 31.9973 39.7235C32.6925 39.7234 33.3656 39.6293 34.0061 39.4578L33.4778 38.4012C32.9858 37.4172 32.4352 37.0663 31.9973 37.0662ZM31.9973 24.2752C31.4145 24.2752 30.8468 24.3418 30.301 24.4637L30.5217 25.7684C30.7385 27.0901 30.4709 28.2079 29.6663 28.7918C28.8613 29.3757 27.714 29.288 26.5296 28.6707L25.3479 28.0584C24.7785 29.0169 24.411 30.1096 24.303 31.2781L25.6165 31.4774C26.9383 31.6775 27.9184 32.2789 28.2229 33.2254C28.5272 34.172 28.0935 35.2312 27.1428 36.1736L26.1965 37.1033C26.9462 37.9539 27.8794 38.6382 28.9358 39.0936L29.5286 37.909C30.1291 36.7124 31.0008 35.9658 31.9973 35.9656C32.994 35.9657 33.8665 36.7122 34.4671 37.909L35.0589 39.0936C36.115 38.6382 37.0471 37.9532 37.7962 37.1024L36.8518 36.1736C35.9013 35.2313 35.4636 34.1719 35.7678 33.2254C36.0766 32.2789 37.0573 31.6775 38.3792 31.4774L39.6858 31.2791C39.5781 30.1096 39.2116 29.017 38.6428 28.0584L37.4651 28.6668C36.2809 29.288 35.1342 29.3755 34.3294 28.7918C33.5245 28.2038 33.253 27.0903 33.4739 25.7684L33.6907 24.4627C33.1458 24.3412 32.5793 24.2752 31.9973 24.2752ZM24.2786 32.3924C24.349 33.8002 24.7974 35.1071 25.5217 36.2166L26.3674 35.3856C27.1513 34.6141 27.3095 33.98 27.176 33.5672C27.0424 33.1544 26.5376 32.7369 25.4495 32.5701L24.2786 32.3924ZM38.5452 32.5662C37.4573 32.733 36.9523 33.1503 36.8186 33.5672C36.6853 33.9801 36.8443 34.6141 37.6282 35.3856L38.471 36.2147C39.1935 35.1056 39.6411 33.7995 39.7112 32.3914L38.5452 32.5662ZM29.2385 24.782C27.954 25.2721 26.8343 26.0943 25.9846 27.1443L27.0344 27.6902C28.0145 28.1949 28.6656 28.1495 29.0159 27.8992C29.366 27.6405 29.6121 27.031 29.4329 25.9471L29.2385 24.782ZM34.5628 25.9471C34.3834 27.0356 34.6255 27.6406 34.9758 27.8992C35.3304 28.1493 35.9806 28.1948 36.9563 27.6902L38.0081 27.1443C37.1592 26.0941 36.0403 25.2729 34.7561 24.783L34.5628 25.9471Z" fill="white"/>
<path fill-rule="evenodd" clip-rule="evenodd" d="M31.4544 16.0086C33.3072 15.9469 35.1427 16.2084 36.8831 16.7674C36.9146 16.7747 36.9451 16.7851 36.9749 16.7977C38.7021 17.3639 40.3332 18.2247 41.7922 19.3553C41.8192 19.3721 41.8438 19.3916 41.8674 19.4129C42.0062 19.5217 42.144 19.6322 42.2796 19.7459C43.5556 20.8168 44.6427 22.0706 45.5169 23.4529C45.535 23.4748 45.552 23.4977 45.5667 23.5223C45.5743 23.5351 45.5806 23.549 45.5872 23.5623C46.5457 25.1056 47.2378 26.8076 47.6282 28.5965L47.6497 28.6766C47.6518 28.6882 47.6512 28.7001 47.6526 28.7117C47.7836 29.334 47.8795 29.9663 47.9358 30.6063C48.0406 31.8111 48.0066 33.0141 47.843 34.1932C47.8413 34.2092 47.8403 34.2252 47.8372 34.241C47.4203 37.1811 46.1899 39.9728 44.2503 42.284C41.5225 45.534 37.6157 47.5682 33.3889 47.9393C29.1625 48.3058 24.9633 46.9794 21.7141 44.2518C18.465 41.5242 16.4319 37.6184 16.0608 33.3924C15.6931 29.166 17.0176 24.9656 19.7444 21.7156C20.198 21.175 20.6846 20.6684 21.1995 20.1971C21.2205 20.1688 21.2444 20.142 21.2708 20.118C21.2979 20.0933 21.3276 20.0721 21.3587 20.0535C22.7132 18.8468 24.2586 17.8828 25.926 17.1981C25.9653 17.176 26.0069 17.1592 26.0501 17.1473C27.4932 16.5687 29.0258 16.1983 30.6028 16.0594C30.8696 16.0362 31.1363 16.0193 31.4026 16.0096C31.4075 16.0092 31.4124 16.0089 31.4172 16.0086C31.4296 16.0079 31.442 16.0085 31.4544 16.0086ZM32.7434 17.6522C32.7804 17.7143 32.8053 17.7837 32.8157 17.8553C32.8259 17.9266 32.8217 17.9993 32.804 18.0692C32.7862 18.1393 32.7545 18.2055 32.7112 18.2635C32.668 18.3213 32.614 18.3701 32.552 18.407C32.4899 18.444 32.4205 18.468 32.3489 18.4783C32.2775 18.4886 32.2049 18.4853 32.135 18.4676C32.0649 18.4498 31.9986 18.4181 31.9407 18.3748C31.8829 18.3316 31.8341 18.2776 31.7971 18.2156L31.1458 17.1277C30.997 17.1364 30.8482 17.1469 30.6995 17.16V17.1561C29.5382 17.257 28.3953 17.4942 27.2942 17.8602L27.7893 18.2615C27.8452 18.3071 27.8918 18.3631 27.926 18.4266C27.9604 18.4903 27.9822 18.5606 27.9895 18.6326C27.9969 18.7045 27.9897 18.7772 27.969 18.8465C27.9483 18.9158 27.9141 18.9808 27.8684 19.0369C27.8227 19.093 27.7661 19.1393 27.7024 19.1736C27.6387 19.208 27.5684 19.2298 27.4964 19.2371C27.4244 19.2444 27.3517 19.2373 27.2825 19.2166C27.2132 19.1958 27.1482 19.1617 27.0921 19.116L26.1047 18.3123C25.7705 18.4561 25.4412 18.6126 25.1174 18.7811C24.2764 19.2186 23.4811 19.7353 22.7415 20.3211L23.343 20.5301C23.4115 20.5536 23.4744 20.5906 23.5286 20.6385C23.5828 20.6864 23.6277 20.7443 23.6594 20.8094C23.6912 20.8744 23.7097 20.9452 23.7141 21.0174C23.7186 21.0896 23.7083 21.1619 23.6848 21.2303C23.6613 21.2987 23.6244 21.3626 23.5764 21.4168C23.5285 21.4709 23.4705 21.515 23.4055 21.5467C23.3405 21.5784 23.2698 21.5969 23.1975 21.6014C23.1254 21.6058 23.053 21.5965 22.9846 21.5731L21.7766 21.1541C21.3551 21.5512 20.9561 21.9733 20.5823 22.4188C20.1131 22.978 19.6866 23.5702 19.3059 24.1893L19.9436 24.1795C20.0901 24.1773 20.232 24.2328 20.3372 24.3348C20.4424 24.4368 20.5029 24.5769 20.5051 24.7235C20.5074 24.87 20.451 25.0118 20.3489 25.117C20.2468 25.2221 20.1067 25.2818 19.9602 25.284L18.6848 25.3035C18.3277 26.0143 18.0274 26.7542 17.7874 27.5164C17.6334 28.0053 17.505 28.5014 17.4026 29.0018L17.9964 28.7752C18.0599 28.7489 18.1278 28.7345 18.1965 28.7332V28.7381C18.3262 28.7374 18.4523 28.7822 18.552 28.8651C18.6516 28.9479 18.7186 29.0637 18.7415 29.1912C18.7643 29.3187 18.7415 29.45 18.677 29.5623C18.6124 29.6747 18.5098 29.761 18.388 29.8055L17.2014 30.2586C17.0837 31.2649 17.0682 32.2828 17.1575 33.2967C17.1829 33.5899 17.2174 33.8822 17.26 34.1727L17.7376 33.7596C17.8296 33.676 17.9475 33.6252 18.0715 33.617C18.1882 33.6085 18.3044 33.6379 18.4036 33.7C18.5027 33.7621 18.58 33.854 18.6233 33.9627C18.6665 34.0714 18.6741 34.1913 18.6448 34.3045C18.6153 34.4178 18.55 34.5196 18.4592 34.5936L17.4983 35.4266C17.7803 36.6236 18.2106 37.7836 18.7805 38.8797C18.816 38.948 18.8524 39.0161 18.8889 39.0838L19.1975 38.5301C19.2442 38.4424 19.3136 38.3686 19.3987 38.3172C19.4838 38.2659 19.5815 38.2386 19.6809 38.2381C19.7782 38.2369 19.8746 38.2616 19.9592 38.3094C20.0438 38.3572 20.1142 38.4267 20.1633 38.5106C20.2125 38.5944 20.2382 38.6898 20.2385 38.7869C20.2388 38.8842 20.2139 38.9801 20.1653 39.0643L19.5422 40.1805C20.2608 41.2754 21.1223 42.2716 22.1038 43.1434L22.2044 42.5135C22.2224 42.3878 22.2837 42.2722 22.3772 42.1863C22.4706 42.1006 22.5905 42.0493 22.7171 42.0418C22.8002 42.0367 22.8841 42.0511 22.9612 42.0828C23.0381 42.1146 23.107 42.1632 23.1624 42.2254C23.2178 42.2876 23.2579 42.362 23.2805 42.4422C23.3031 42.5223 23.3079 42.6064 23.2932 42.6883L23.0921 43.9481C24.1422 44.7309 25.2908 45.3713 26.5081 45.8533L26.388 45.2322C26.3706 45.152 26.371 45.069 26.3899 44.9891C26.4088 44.9091 26.4457 44.8343 26.4973 44.7703C26.5489 44.7064 26.6137 44.6544 26.6878 44.619C26.7619 44.5835 26.8438 44.5652 26.926 44.5652L26.9299 44.5613C27.0598 44.5615 27.1853 44.6074 27.2844 44.6912C27.3836 44.7751 27.4502 44.8913 27.4719 45.0194L27.7151 46.2713C28.9727 46.6483 30.2722 46.8572 31.5803 46.8934L31.2551 46.3504C31.2017 46.2652 31.1718 46.1667 31.1702 46.0662C31.1686 45.9658 31.1948 45.8668 31.2454 45.7801C31.2961 45.6933 31.3699 45.622 31.4583 45.574C31.5465 45.5261 31.6461 45.503 31.7464 45.5076C31.8392 45.5114 31.9305 45.5386 32.01 45.5867C32.0894 45.6349 32.1551 45.7026 32.2014 45.783L32.8557 46.8738C33.0028 46.8653 33.1502 46.8555 33.2971 46.8426C34.457 46.7417 35.5977 46.5037 36.6975 46.1385L36.2092 45.741C36.1178 45.6713 36.0506 45.5746 36.0169 45.4647C35.9832 45.3546 35.985 45.2368 36.0217 45.1277C36.0586 45.0186 36.1284 44.9234 36.2219 44.8563C36.3155 44.7891 36.428 44.7527 36.5432 44.7527C36.6742 44.7518 36.8014 44.7974 36.9016 44.8817L37.8919 45.6844C38.2258 45.5407 38.5557 45.3859 38.8792 45.2176C39.7198 44.7802 40.5138 44.2633 41.2532 43.6776L40.6506 43.4686C40.5216 43.4292 40.4113 43.3435 40.3411 43.2283C40.2708 43.1131 40.2456 42.9754 40.2698 42.8426C40.2941 42.7099 40.3666 42.5907 40.4729 42.5076C40.5793 42.4247 40.7123 42.3837 40.8469 42.3924C40.9039 42.3948 40.9604 42.4059 41.0139 42.4256L42.218 42.8436C42.6398 42.4461 43.0404 42.0246 43.4143 41.5789C43.8835 41.0197 44.3091 40.4275 44.6897 39.8084L44.054 39.8192C43.9815 39.8202 43.9094 39.8068 43.8421 39.7801C43.7747 39.7533 43.7134 39.7134 43.6614 39.6629C43.6093 39.6124 43.5671 39.5518 43.5383 39.4852C43.5097 39.4188 43.4946 39.3475 43.4934 39.2752C43.4923 39.2026 43.5057 39.1298 43.5325 39.0623C43.5592 38.995 43.5992 38.9336 43.6497 38.8817C43.7002 38.8297 43.7599 38.7874 43.8264 38.7586C43.893 38.7299 43.9649 38.7148 44.0374 38.7137L45.3098 38.6932C45.6668 37.9825 45.9693 37.2433 46.2092 36.4813C46.3634 35.9916 46.4905 35.495 46.593 34.994L45.9973 35.2235C45.9298 35.2491 45.8576 35.2607 45.7854 35.2586C45.7133 35.2565 45.6423 35.2403 45.5764 35.2108C45.5104 35.1811 45.4503 35.1384 45.4006 35.0858C45.3511 35.0332 45.3121 34.9716 45.2864 34.9041C45.2607 34.8366 45.2492 34.7645 45.2512 34.6922C45.2533 34.6199 45.2695 34.5483 45.2991 34.4822C45.3286 34.4164 45.3707 34.357 45.4231 34.3074C45.4757 34.2578 45.5381 34.2189 45.6057 34.1932L46.7942 33.7381C46.9117 32.7326 46.9284 31.7152 46.8391 30.702C46.8135 30.4079 46.7775 30.1153 46.7346 29.824L46.2561 30.2391C46.2014 30.2863 46.1382 30.3227 46.0696 30.3455C46.0009 30.3683 45.928 30.3771 45.8557 30.3719C45.7837 30.3667 45.7133 30.3476 45.6487 30.3152C45.584 30.2828 45.5261 30.2372 45.4788 30.1824C45.4315 30.1277 45.3951 30.0645 45.3723 29.9959C45.3495 29.9272 45.3407 29.8543 45.346 29.782C45.3512 29.71 45.3702 29.6396 45.4026 29.575C45.435 29.5104 45.4798 29.4524 45.5344 29.4051L46.4954 28.5701C46.2131 27.3744 45.7847 26.2148 45.2151 25.1199C45.1793 25.051 45.1416 24.9831 45.1047 24.9149L44.7971 25.4676C44.7264 25.5953 44.6073 25.69 44.4671 25.7303C44.3267 25.7706 44.1759 25.7532 44.0481 25.6824C43.9205 25.6117 43.8257 25.4936 43.7854 25.3533C43.7452 25.213 43.7626 25.0621 43.8333 24.9344L44.4514 23.8201C43.7332 22.7266 42.8734 21.731 41.8928 20.8602L41.7942 21.4852C41.7827 21.5568 41.757 21.6255 41.719 21.6873C41.6809 21.7492 41.6304 21.8029 41.5715 21.8455C41.5127 21.8881 41.4459 21.9185 41.3753 21.9354C41.3047 21.9521 41.2311 21.9556 41.1594 21.9442C41.0878 21.9326 41.0191 21.907 40.9573 21.869C40.8954 21.8309 40.8417 21.7804 40.7991 21.7215C40.7566 21.6627 40.726 21.5958 40.7092 21.5252C40.6925 21.4546 40.6899 21.381 40.7014 21.3094L40.9016 20.0535C39.851 19.2706 38.7023 18.6292 37.4846 18.1473L37.6067 18.7703C37.6342 18.9138 37.6036 19.0624 37.5217 19.1834C37.4396 19.3046 37.312 19.3892 37.1682 19.4168C37.0246 19.4443 36.8762 19.4129 36.7551 19.3309C36.6339 19.2487 36.5494 19.1221 36.5217 18.9783L36.2786 17.7293C35.0229 17.3532 33.7252 17.1454 32.4192 17.1092L32.7434 17.6522Z" fill="white"/>
</svg>
