<svg width="42" height="42" viewBox="0 0 42 42" fill="none" xmlns="http://www.w3.org/2000/svg">
<g clip-path="url(#clip0_1_350)">
<path d="M6.07278 22.5714C5.73654 19.3776 6.41075 16.2262 8.0225 13.4582C8.06542 13.3828 8.12284 13.3168 8.19145 13.2637C8.26005 13.2107 8.33848 13.1718 8.42221 13.1493C8.50594 13.1268 8.5933 13.1211 8.67925 13.1325C8.7652 13.1439 8.84803 13.1723 8.92295 13.2159C8.99788 13.2595 9.06342 13.3176 9.11578 13.3867C9.16815 13.4558 9.20629 13.5346 9.22803 13.6185C9.24976 13.7025 9.25464 13.7899 9.24239 13.8757C9.23014 13.9615 9.20101 14.0441 9.15667 14.1186C7.68626 16.644 7.07127 19.5194 7.37806 22.434C7.76107 26.0727 9.53819 29.3446 12.3821 31.6467C14.8441 33.6398 17.851 34.6994 20.9749 34.6996C21.4595 34.6996 21.9463 34.6741 22.4349 34.6227C24.7593 34.3779 26.9523 33.5549 28.8447 32.2297L27.9686 32.1982C27.8825 32.1951 27.7978 32.1751 27.7195 32.1393C27.6411 32.1035 27.5705 32.0526 27.5118 31.9895C27.4531 31.9264 27.4074 31.8524 27.3773 31.7716C27.3472 31.6909 27.3333 31.605 27.3363 31.5188C27.3494 31.1567 27.6518 30.8717 28.0157 30.8865L30.6622 30.9816C30.7617 30.9852 30.8591 31.0113 30.947 31.0581C31.0349 31.1049 31.111 31.171 31.1696 31.2516C31.2281 31.3321 31.2676 31.4249 31.285 31.523C31.3023 31.621 31.2971 31.7218 31.2698 31.8175L30.5433 34.3641C30.5041 34.5012 30.4214 34.6219 30.3076 34.7078C30.1938 34.7938 30.0551 34.8403 29.9125 34.8404C29.8109 34.8405 29.7107 34.817 29.6198 34.7717C29.5288 34.7264 29.4496 34.6607 29.3884 34.5796C29.3272 34.4985 29.2856 34.4043 29.267 34.3044C29.2484 34.2045 29.2532 34.1017 29.2811 34.004L29.4512 33.408C27.4107 34.8011 25.0596 35.6661 22.5725 35.9278C22.0411 35.9839 21.507 36.012 20.9726 36.0121C17.5491 36.0121 14.2546 34.8509 11.5565 32.6667C8.43988 30.1441 6.49254 26.5588 6.07278 22.5714ZM30.4454 9.33291C27.3291 6.8102 23.4173 5.65241 19.4294 6.07175C16.9409 6.33368 14.5912 7.19837 12.5507 8.59175L12.7208 7.99563C12.7663 7.82895 12.7443 7.65102 12.6595 7.50048C12.5746 7.34993 12.4339 7.23891 12.2677 7.1915C12.1015 7.14409 11.9234 7.16412 11.7719 7.24725C11.6204 7.33038 11.5078 7.46989 11.4585 7.63552L10.732 10.182C10.7046 10.2778 10.6994 10.3785 10.7168 10.4766C10.7341 10.5746 10.7736 10.6674 10.8321 10.748C10.8907 10.8285 10.9668 10.8947 11.0547 10.9415C11.1427 10.9882 11.2401 11.0144 11.3396 11.0179L13.9861 11.113C14.1585 11.1167 14.3254 11.0524 14.4507 10.934C14.5761 10.8156 14.6498 10.6526 14.656 10.4803C14.6622 10.308 14.6003 10.1402 14.4838 10.0132C14.3672 9.88611 14.2054 9.81 14.0332 9.80131L13.154 9.76972C15.0469 8.44336 17.2404 7.62182 19.5669 7.37695C23.2052 6.99411 26.7758 8.05076 29.6197 10.3529C32.4636 12.655 34.2408 15.9269 34.6238 19.5656C34.9306 22.4798 34.3155 25.3553 32.8452 27.8811C32.7871 27.9808 32.7563 28.094 32.756 28.2093C32.7556 28.3247 32.7857 28.4381 32.8432 28.5382C32.9006 28.6382 32.9834 28.7213 33.0833 28.7791C33.1831 28.8369 33.2964 28.8674 33.4117 28.8675C33.5267 28.8676 33.6396 28.8375 33.7393 28.7803C33.8389 28.723 33.9218 28.6406 33.9796 28.5413C35.5912 25.7728 36.2652 22.6215 35.9291 19.4282C35.5091 15.441 33.5618 11.8557 30.4454 9.33291ZM39.1565 10.45C39.068 10.3014 38.9245 10.1937 38.757 10.1503C38.5896 10.107 38.4118 10.1315 38.2623 10.2185C38.1128 10.3055 38.0038 10.4481 37.9588 10.6151C37.9139 10.7821 37.9367 10.9601 38.0223 11.1104C40.1356 14.7399 41.0195 18.8722 40.5786 23.0608C39.4423 33.8561 29.7354 41.7141 18.94 40.5776C15.3321 40.1979 11.9431 38.8508 9.08243 36.6692L11.1167 36.5961C11.2028 36.593 11.2875 36.573 11.3659 36.5371C11.4443 36.5013 11.5149 36.4504 11.5736 36.3873C11.6323 36.3243 11.678 36.2502 11.7081 36.1695C11.7382 36.0887 11.7521 36.0028 11.749 35.9167C11.736 35.5545 11.4334 35.2699 11.0696 35.2844L7.31917 35.4191C7.21965 35.4227 7.12226 35.4488 7.03435 35.4956C6.94645 35.5424 6.87034 35.6085 6.81179 35.6891C6.75325 35.7696 6.7138 35.8624 6.69643 35.9605C6.67906 36.0585 6.68424 36.1592 6.71156 36.255L7.74122 39.8639C7.78035 40.001 7.86307 40.1217 7.97686 40.2076C8.09066 40.2936 8.22935 40.3401 8.37195 40.3402C8.47356 40.3403 8.57378 40.3168 8.66474 40.2715C8.7557 40.2262 8.8349 40.1604 8.89611 40.0793C8.95733 39.9983 8.99887 39.9041 9.01748 39.8042C9.03609 39.7043 9.03125 39.6015 9.00335 39.5038L8.54849 37.9096C11.5447 40.1216 15.0636 41.4893 18.8024 41.8829C19.5458 41.9613 20.2929 42.0007 21.0404 42.0008C25.8294 42.0006 30.4387 40.3761 34.2128 37.3209C38.5723 33.7918 41.2965 28.7763 41.8838 23.1982C42.3542 18.7303 41.4111 14.322 39.1565 10.45ZM1.42309 18.9389C1.9736 13.7095 4.52756 9.00749 8.61452 5.69901C12.7016 2.39044 17.8329 0.871548 23.0617 1.42214C26.6716 1.80211 30.0583 3.14841 32.9195 5.3306L30.8849 5.40369C30.7988 5.40678 30.7141 5.42681 30.6357 5.46263C30.5574 5.49844 30.4868 5.54934 30.4281 5.61243C30.3694 5.67552 30.3237 5.74955 30.2936 5.8303C30.2635 5.91106 30.2495 5.99695 30.2526 6.08308C30.2557 6.1692 30.2758 6.25388 30.3116 6.33226C30.3474 6.41065 30.3983 6.48121 30.4614 6.53993C30.5245 6.59864 30.5985 6.64436 30.6793 6.67446C30.76 6.70456 30.8459 6.71846 30.932 6.71537L34.6825 6.5806C34.782 6.57704 34.8794 6.55088 34.9673 6.5041C35.0552 6.45733 35.1313 6.39116 35.1899 6.31062C35.2484 6.23007 35.2879 6.13726 35.3052 6.03921C35.3226 5.94116 35.3174 5.84045 35.2901 5.7447L34.2604 2.13581C34.2368 2.05293 34.1971 1.97552 34.1435 1.908C34.0899 1.84047 34.0236 1.78417 33.9483 1.74228C33.8729 1.7004 33.7901 1.67377 33.7045 1.66391C33.6188 1.65405 33.5321 1.66115 33.4492 1.68481C33.3664 1.70845 33.289 1.74819 33.2214 1.80175C33.1539 1.85531 33.0976 1.92164 33.0557 1.99696C33.0139 2.07228 32.9872 2.15511 32.9774 2.24073C32.9675 2.32634 32.9746 2.41306 32.9982 2.49593L33.4532 4.09045C30.4567 1.87791 26.9401 0.51061 23.1992 0.11686C17.6211 -0.470237 12.1482 1.1498 7.78879 4.67886C3.42924 8.20801 0.704986 13.2235 0.117806 18.8016C-0.352397 23.2689 0.590634 27.6771 2.84494 31.5498C2.88826 31.6243 2.94585 31.6895 3.01441 31.7418C3.08296 31.794 3.16114 31.8322 3.24448 31.8543C3.32781 31.8763 3.41467 31.8816 3.50008 31.8701C3.5855 31.8585 3.6678 31.8302 3.74227 31.7868C3.89269 31.6993 4.00217 31.5556 4.04663 31.3873C4.09109 31.219 4.06689 31.04 3.97935 30.8896C1.86614 27.2594 0.982251 23.127 1.42309 18.9389ZM28.0576 23.2595C27.9328 23.6492 27.7758 24.0279 27.5881 24.3916L28.9399 26.2585C29.0314 26.3849 29.0749 26.5398 29.0626 26.6954C29.0502 26.851 28.9828 26.9971 28.8725 27.1074L27.1083 28.8716C26.9979 28.982 26.8519 29.0494 26.6963 29.0618C26.5407 29.0741 26.3858 29.0307 26.2594 28.9391L24.3923 27.5873C24.0287 27.7749 23.6501 27.9319 23.2604 28.0567L22.8962 30.3323C22.8715 30.4863 22.7927 30.6266 22.674 30.7279C22.5552 30.8291 22.4043 30.8847 22.2482 30.8847H19.7534C19.5973 30.8847 19.4464 30.8291 19.3276 30.7279C19.2089 30.6266 19.1301 30.4863 19.1054 30.3323L18.7412 28.0569C18.3515 27.9321 17.9729 27.775 17.6092 27.5874L15.7422 28.9392C15.6158 29.0307 15.4609 29.0742 15.3053 29.0618C15.1497 29.0494 15.0037 28.982 14.8933 28.8717L13.1291 27.1075C13.0188 26.9972 12.9514 26.8511 12.939 26.6955C12.9267 26.5399 12.9702 26.3851 13.0617 26.2587L14.4135 24.3916C14.2259 24.0279 14.0689 23.6493 13.9441 23.2597L11.6686 22.8955C11.5145 22.8708 11.3743 22.792 11.273 22.6733C11.1718 22.5545 11.1161 22.4036 11.1161 22.2475V19.7527C11.1161 19.5966 11.1718 19.4457 11.273 19.3269C11.3743 19.2082 11.5145 19.1294 11.6686 19.1047L13.9442 18.7404C14.0689 18.3508 14.2259 17.9722 14.4135 17.6086L13.0617 15.7415C12.9702 15.6151 12.9267 15.4602 12.939 15.3047C12.9514 15.1491 13.0188 15.003 13.1291 14.8927L14.8933 13.1285C15.0036 13.0181 15.1497 12.9507 15.3053 12.9383C15.4609 12.926 15.6158 12.9694 15.7422 13.061L17.6092 14.4127C17.9728 14.2251 18.3515 14.0681 18.7412 13.9433L19.1054 11.6679C19.1301 11.5138 19.2089 11.3736 19.3276 11.2723C19.4464 11.1711 19.5973 11.1155 19.7534 11.1154H22.2482C22.4043 11.1155 22.5552 11.1711 22.674 11.2723C22.7927 11.3736 22.8715 11.5138 22.8962 11.6679L23.2604 13.9433C23.6501 14.0681 24.0287 14.2251 24.3923 14.4128L26.2594 13.061C26.3858 12.9695 26.5407 12.926 26.6963 12.9384C26.8518 12.9508 26.9979 13.0182 27.1083 13.1285L28.8725 14.8927C28.9828 15.003 29.0502 15.1491 29.0626 15.3047C29.0749 15.4602 29.0314 15.6151 28.9399 15.7415L27.5881 17.6085C27.7757 17.9722 27.9326 18.3508 28.0575 18.7404L30.333 19.1046C30.4871 19.1293 30.6273 19.2081 30.7286 19.3268C30.8298 19.4456 30.8854 19.5965 30.8854 19.7526V22.2474C30.8854 22.4035 30.8298 22.5544 30.7286 22.6732C30.6273 22.7919 30.4871 22.8707 30.333 22.8954L28.0576 23.2595ZM26.2477 24.1039C26.542 23.6083 26.7639 23.0732 26.9067 22.5148C26.9384 22.3909 27.0056 22.2788 27.1001 22.1926C27.1947 22.1063 27.3124 22.0496 27.4387 22.0294L29.573 21.6877V20.312L27.4386 19.9703C27.3123 19.9501 27.1946 19.8933 27.1001 19.8071C27.0056 19.7209 26.9384 19.6089 26.9067 19.4849C26.7637 18.9266 26.5418 18.3914 26.2477 17.8957C26.1824 17.7857 26.1507 17.6589 26.1566 17.531C26.1624 17.4032 26.2055 17.2798 26.2806 17.1762L27.5486 15.4247L26.5759 14.4519L24.8244 15.72C24.7207 15.795 24.5974 15.8381 24.4695 15.844C24.3417 15.8498 24.2149 15.8182 24.1048 15.7529C23.6092 15.4587 23.0741 15.2368 22.5157 15.0939C22.3917 15.0622 22.2797 14.9949 22.1935 14.9004C22.1073 14.8059 22.0505 14.6882 22.0303 14.5618L21.6887 12.4276H20.3129L19.9713 14.5618C19.951 14.6882 19.8943 14.8059 19.8081 14.9004C19.7218 14.9949 19.6098 15.0622 19.4859 15.0939C18.9275 15.2368 18.3923 15.4586 17.8967 15.7528C17.7866 15.8181 17.6598 15.8498 17.532 15.8439C17.4041 15.8381 17.2808 15.795 17.1771 15.7199L15.4257 14.4519L14.4529 15.4247L15.721 17.1762C15.796 17.2798 15.8391 17.4031 15.845 17.531C15.8508 17.6588 15.8192 17.7856 15.7539 17.8957C15.4598 18.3913 15.238 18.9264 15.0951 19.4848C15.0634 19.6087 14.9961 19.7207 14.9016 19.807C14.807 19.8932 14.6894 19.9499 14.563 19.9701L12.4286 20.3119V21.6876L14.5629 22.0293C14.6893 22.0495 14.8069 22.1063 14.9014 22.1925C14.996 22.2787 15.0632 22.3907 15.0949 22.5147C15.2379 23.0731 15.4598 23.6082 15.7539 24.1039C15.8192 24.214 15.8508 24.3408 15.845 24.4686C15.8391 24.5965 15.796 24.7198 15.721 24.8234L14.4529 26.5749L15.4257 27.5477L17.1772 26.2796C17.2809 26.2045 17.4042 26.1614 17.5321 26.1556C17.6599 26.1497 17.7867 26.1814 17.8968 26.2467C18.3924 26.5409 18.9275 26.7628 19.4858 26.9057C19.6098 26.9374 19.7218 27.0047 19.808 27.0992C19.8943 27.1937 19.951 27.3114 19.9713 27.4378L20.3129 29.5721H21.6887L22.0303 27.4377C22.0505 27.3113 22.1073 27.1937 22.1935 27.0991C22.2797 27.0046 22.3917 26.9373 22.5157 26.9056C23.0741 26.7627 23.6092 26.5408 24.1048 26.2467C24.2149 26.1814 24.3417 26.1497 24.4695 26.1556C24.5974 26.1614 24.7207 26.2045 24.8244 26.2796L26.5759 27.5477L27.5486 26.5749L26.2806 24.8234C26.2055 24.7198 26.1624 24.5964 26.1566 24.4686C26.1507 24.3407 26.1824 24.2139 26.2477 24.1039ZM25.3433 20.9999C25.3433 23.3944 23.3953 25.3425 21.0008 25.3425C18.6063 25.3425 16.6583 23.3944 16.6583 20.9999C16.6583 18.6054 18.6064 16.6573 21.0009 16.6573C23.3954 16.6573 25.3433 18.6054 25.3433 20.9999ZM24.0308 20.9999C24.0308 19.3291 22.6716 17.9698 21.0008 17.9698C19.33 17.9698 17.9708 19.3291 17.9708 20.9999C17.9708 22.6707 19.33 24.03 21.0008 24.03C22.6716 24.03 24.0308 22.6707 24.0308 20.9999Z" fill="#3E96F4"/>
</g>
<defs>
<clipPath id="clip0_1_350">
<rect width="42" height="42" fill="white"/>
</clipPath>
</defs>
</svg>
