<svg width="55" height="50" viewBox="0 0 55 50" fill="none" xmlns="http://www.w3.org/2000/svg">
<path d="M15.9566 20.6218C15.9566 21.2803 16.0278 21.8142 16.1524 22.2058C16.2948 22.5973 16.4728 23.0245 16.7219 23.4872C16.8109 23.6296 16.8465 23.772 16.8465 23.8966C16.8465 24.0745 16.7397 24.2525 16.5083 24.4305L15.3871 25.178C15.2269 25.2848 15.0667 25.3382 14.9244 25.3382C14.7464 25.3382 14.5684 25.2492 14.3904 25.089C14.1413 24.822 13.9277 24.5373 13.7497 24.2525C13.5718 23.9499 13.3938 23.6118 13.198 23.2024C11.8098 24.8398 10.0656 25.6585 7.96552 25.6585C6.47053 25.6585 5.27809 25.2314 4.40601 24.3771C3.53393 23.5228 3.08899 22.3838 3.08899 20.96C3.08899 19.4472 3.62292 18.2191 4.70857 17.2937C5.79422 16.3682 7.23582 15.9055 9.06897 15.9055C9.67409 15.9055 10.297 15.9588 10.9555 16.0478C11.614 16.1368 12.2903 16.2792 13.0022 16.4394V15.1402C13.0022 13.7875 12.7175 12.8443 12.1657 12.2925C11.5962 11.7408 10.6352 11.4739 9.26474 11.4739C8.64183 11.4739 8.00111 11.545 7.34261 11.7052C6.6841 11.8654 6.04338 12.0612 5.42047 12.3103C5.13571 12.4349 4.92214 12.5061 4.79755 12.5417C4.67297 12.5773 4.58398 12.5951 4.51279 12.5951C4.26363 12.5951 4.13905 12.4171 4.13905 12.0434V11.1713C4.13905 10.8865 4.17464 10.673 4.26363 10.5484C4.35262 10.4238 4.51279 10.2992 4.76196 10.1746C5.38487 9.85428 6.13237 9.58732 7.00445 9.37375C7.87653 9.14238 8.802 9.0356 9.78087 9.0356C11.8988 9.0356 13.4472 9.51613 14.4438 10.4772C15.4227 11.4383 15.921 12.8977 15.921 14.8554V20.6218H15.9566ZM8.73081 23.327C9.31813 23.327 9.92325 23.2202 10.564 23.0067C11.2047 22.7931 11.7742 22.4016 12.2547 21.8676C12.5395 21.5295 12.7531 21.1557 12.8598 20.7286C12.9666 20.3014 13.0378 19.7853 13.0378 19.1802V18.4327C12.5217 18.3081 11.97 18.2013 11.4004 18.1301C10.8309 18.059 10.2792 18.0234 9.72748 18.0234C8.53504 18.0234 7.66296 18.2547 7.07564 18.7353C6.48832 19.2158 6.20356 19.8921 6.20356 20.782C6.20356 21.6185 6.41713 22.2414 6.86207 22.6685C7.28921 23.1135 7.91213 23.327 8.73081 23.327ZM23.0223 25.2492C22.7019 25.2492 22.4883 25.1958 22.3459 25.0712C22.2036 24.9644 22.079 24.7152 21.9722 24.3771L17.7898 10.6196C17.683 10.2636 17.6296 10.0323 17.6296 9.90768C17.6296 9.62291 17.772 9.46274 18.0567 9.46274H19.8009C20.139 9.46274 20.3704 9.51613 20.495 9.64071C20.6374 9.7475 20.7442 9.99666 20.851 10.3348L23.8409 22.1168L26.6174 10.3348C26.7063 9.97887 26.8131 9.7475 26.9555 9.64071C27.0979 9.53393 27.3471 9.46274 27.6674 9.46274H29.0912C29.4294 9.46274 29.6607 9.51613 29.8031 9.64071C29.9455 9.7475 30.0701 9.99666 30.1413 10.3348L32.9533 22.2592L36.0323 10.3348C36.139 9.97887 36.2636 9.7475 36.3882 9.64071C36.5306 9.53393 36.762 9.46274 37.0823 9.46274H38.7375C39.0223 9.46274 39.1824 9.60512 39.1824 9.90768C39.1824 9.99666 39.1646 10.0857 39.1468 10.1924C39.129 10.2992 39.0934 10.4416 39.0223 10.6374L34.733 24.3949C34.6263 24.7508 34.5017 24.9822 34.3593 25.089C34.2169 25.1958 33.9855 25.267 33.683 25.267H32.1524C31.8142 25.267 31.5829 25.2136 31.4405 25.089C31.2981 24.9644 31.1735 24.733 31.1023 24.3771L28.3437 12.8977L25.6029 24.3593C25.5139 24.7152 25.4071 24.9466 25.2647 25.0712C25.1224 25.1958 24.8732 25.2492 24.5528 25.2492H23.0223ZM45.8921 25.7297C44.9666 25.7297 44.0412 25.6229 43.1513 25.4093C42.2614 25.1958 41.5673 24.9644 41.1046 24.6974C40.8198 24.5373 40.624 24.3593 40.5528 24.1991C40.4817 24.0389 40.4461 23.861 40.4461 23.7008V22.7931C40.4461 22.4194 40.5884 22.2414 40.8554 22.2414C40.9622 22.2414 41.069 22.2592 41.1758 22.2948C41.2825 22.3304 41.4427 22.4016 41.6207 22.4727C42.2258 22.7397 42.8843 22.9533 43.5784 23.0957C44.2903 23.238 44.9844 23.3092 45.6963 23.3092C46.8176 23.3092 47.6897 23.1135 48.2948 22.7219C48.8999 22.3304 49.2203 21.7608 49.2203 21.0311C49.2203 20.5328 49.0601 20.1235 48.7397 19.7853C48.4194 19.4472 47.8142 19.1446 46.9422 18.8598L44.3615 18.059C43.0623 17.6496 42.1012 17.0445 41.5139 16.2436C40.9266 15.4605 40.624 14.5884 40.624 13.663C40.624 12.9155 40.7842 12.257 41.1046 11.6874C41.4249 11.1179 41.8521 10.6196 42.386 10.228C42.9199 9.81869 43.525 9.51613 44.2369 9.30256C44.9488 9.08899 45.6963 9 46.4794 9C46.871 9 47.2803 9.0178 47.6719 9.07119C48.0812 9.12458 48.455 9.19577 48.8287 9.26696C49.1847 9.35595 49.5228 9.44494 49.8432 9.55172C50.1635 9.65851 50.4127 9.76529 50.5907 9.87208C50.8398 10.0145 51.0178 10.1568 51.1246 10.317C51.2314 10.4594 51.2848 10.6552 51.2848 10.9043V11.7408C51.2848 12.1146 51.1424 12.3103 50.8754 12.3103C50.733 12.3103 50.5017 12.2392 50.1991 12.0968C49.1847 11.634 48.0456 11.4027 46.782 11.4027C45.7675 11.4027 44.9666 11.5628 44.4149 11.901C43.8632 12.2392 43.5784 12.7553 43.5784 13.485C43.5784 13.9833 43.7564 14.4105 44.1124 14.7486C44.4683 15.0868 45.1268 15.4249 46.0701 15.7275L48.5973 16.5284C49.8788 16.9377 50.8042 17.5072 51.356 18.2369C51.9077 18.9666 52.1746 19.8031 52.1746 20.7286C52.1746 21.4939 52.0145 22.188 51.7119 22.7931C51.3916 23.3982 50.9644 23.9321 50.4127 24.3593C49.861 24.8042 49.2025 25.1246 48.4372 25.356C47.6363 25.6051 46.7998 25.7297 45.8921 25.7297Z" fill="#252F3E"/>
<path fill-rule="evenodd" clip-rule="evenodd" d="M49.2575 34.3791C43.4021 38.7039 34.8949 40.9998 27.5801 40.9998C17.3287 40.9998 8.09176 37.2089 1.11512 30.9086C0.563394 30.4102 1.06173 29.7339 1.72024 30.1255C9.2664 34.5037 18.5745 37.1555 28.203 37.1555C34.6991 37.1555 41.8359 35.8029 48.4032 33.0265C49.3821 32.5815 50.2186 33.6672 49.2575 34.3791Z" fill="#FF9900"/>
<path fill-rule="evenodd" clip-rule="evenodd" d="M51.6974 31.6028C50.9499 30.6417 46.7497 31.1401 44.8453 31.3714C44.2758 31.4426 44.1868 30.9443 44.703 30.5705C48.0489 28.2213 53.5483 28.8976 54.1891 29.6807C54.8298 30.4816 54.0111 35.981 50.8787 38.615C50.3982 39.0244 49.9354 38.8108 50.149 38.2769C50.8609 36.5149 52.4449 32.5461 51.6974 31.6028Z" fill="#FF9900"/>
</svg>
