<svg width="42" height="42" viewBox="0 0 42 42" fill="none" xmlns="http://www.w3.org/2000/svg">
<path d="M40.022 9.26719L20.9524 0.0611522C20.869 0.0209034 20.7775 0 20.6849 0C20.5923 0 20.5009 0.0209034 20.4175 0.0611522L1.34773 9.26719C1.24354 9.3175 1.15564 9.39617 1.09413 9.49417C1.03263 9.59217 0.999999 9.70553 1 9.82123V32.1788C0.999999 32.2945 1.03263 32.4078 1.09413 32.5058C1.15564 32.6038 1.24354 32.6825 1.34773 32.7328L20.4174 41.9388C20.5008 41.9791 20.5922 42 20.6849 42C20.7775 42 20.8689 41.9791 20.9524 41.9388L40.022 32.7328C40.1262 32.6825 40.2141 32.6038 40.2756 32.5058C40.3371 32.4078 40.3697 32.2945 40.3697 32.1788V9.82131C40.3697 9.7056 40.3371 9.59223 40.2756 9.49422C40.2141 9.39621 40.1262 9.31752 40.022 9.26719ZM20.6849 1.29843L38.3394 9.82123L33.2217 12.2918C33.1893 12.2665 33.1544 12.2445 33.1175 12.2262L15.5829 3.76142L20.6849 1.29843ZM14.1935 4.45704L31.8223 12.9675L28.2117 14.7105L10.5902 6.20357L14.1935 4.45704ZM32.2348 14.1346V20.5778L28.8622 22.206V15.7628L32.2348 14.1346ZM39.1393 31.7927L21.3001 40.4045V19.4134L25.5553 17.3592C25.6281 17.324 25.6932 17.2749 25.747 17.2146C25.8007 17.1543 25.8421 17.084 25.8687 17.0077C25.8953 16.9314 25.9067 16.8507 25.902 16.77C25.8974 16.6893 25.877 16.6104 25.8418 16.5376C25.8067 16.4649 25.7576 16.3997 25.6973 16.346C25.637 16.2922 25.5667 16.2508 25.4904 16.2242C25.4141 16.1976 25.3334 16.1863 25.2527 16.1909C25.172 16.1955 25.0931 16.216 25.0203 16.2511L20.6849 18.3441L18.979 17.5205C18.9062 17.4854 18.8272 17.4649 18.7466 17.4603C18.6659 17.4556 18.5851 17.467 18.5088 17.4936C18.4325 17.5202 18.3622 17.5616 18.3019 17.6154C18.2416 17.6691 18.1925 17.7343 18.1574 17.8071C18.1223 17.8798 18.1018 17.9588 18.0972 18.0394C18.0926 18.1201 18.1039 18.2009 18.1305 18.2772C18.1571 18.3535 18.1985 18.4238 18.2523 18.4841C18.3061 18.5444 18.3712 18.5935 18.4439 18.6286L20.0696 19.4134V40.4045L2.23047 31.7926V10.8014L15.8148 17.3594C15.8981 17.3998 15.9894 17.4207 16.0819 17.4208C16.2213 17.4209 16.3566 17.3738 16.4657 17.2869C16.5748 17.2001 16.6512 17.0788 16.6823 16.9429C16.7134 16.807 16.6975 16.6646 16.6371 16.5389C16.5767 16.4133 16.4754 16.3119 16.3498 16.2513L3.03036 9.82123L9.14209 6.87073L27.6232 15.7927C27.6259 15.7965 27.629 15.7998 27.6318 15.8035V23.1863C27.6318 23.2904 27.6583 23.3928 27.7087 23.4839C27.7591 23.575 27.8318 23.6519 27.92 23.7072C28.0082 23.7626 28.109 23.7947 28.213 23.8004C28.317 23.8062 28.4207 23.7855 28.5145 23.7403L33.1175 21.5181C33.2217 21.4678 33.3096 21.3892 33.3711 21.2912C33.4326 21.1932 33.4653 21.0798 33.4653 20.9641V13.5407L39.1393 10.8015V31.7927Z" fill="#3E96F4"/>
<path d="M7.30783 29.4066L4.50933 28.0556C4.36239 27.9847 4.19328 27.975 4.03921 28.0287C3.88514 28.0825 3.75873 28.1952 3.68779 28.3421C3.61684 28.4891 3.60717 28.6582 3.66091 28.8123C3.71464 28.9663 3.82738 29.0927 3.97432 29.1637L6.77282 30.5147C6.85604 30.555 6.94733 30.576 7.03983 30.576C7.15562 30.5761 7.26908 30.5435 7.36716 30.4819C7.46524 30.4204 7.54396 30.3324 7.59428 30.2281C7.62942 30.1554 7.64989 30.0764 7.65451 29.9958C7.65914 29.9151 7.64782 29.8343 7.62122 29.758C7.59462 29.6817 7.55326 29.6114 7.49948 29.5511C7.44571 29.4908 7.38058 29.4417 7.30783 29.4066ZM9.88336 27.7301L4.51318 25.1376C4.36659 25.0693 4.19901 25.0615 4.0467 25.1158C3.89439 25.1702 3.76959 25.2823 3.69929 25.4279C3.62899 25.5735 3.61885 25.741 3.67105 25.894C3.72326 26.0471 3.83362 26.1734 3.97826 26.2458L9.34843 28.8383C9.43167 28.8786 9.52295 28.8996 9.61545 28.8996C9.7549 28.8998 9.89028 28.8527 9.99941 28.7658C10.1085 28.679 10.1849 28.5577 10.2161 28.4218C10.2472 28.2858 10.2313 28.1434 10.1708 28.0177C10.1103 27.892 10.009 27.7906 9.88336 27.7301Z" fill="#3E96F4"/>
</svg>
