<svg width="42" height="42" viewBox="0 0 42 42" fill="none" xmlns="http://www.w3.org/2000/svg">
<path d="M7.38 27.23C7.83287 27.23 8.2 26.8629 8.2 26.41C8.2 25.9571 7.83287 25.59 7.38 25.59C6.92713 25.59 6.56 25.9571 6.56 26.41C6.56 26.8629 6.92713 27.23 7.38 27.23Z" fill="#3E96F4"/>
<path d="M26.25 5.41C26.4675 5.41 26.676 5.32361 26.8298 5.16983C26.9836 5.01605 27.07 4.80748 27.07 4.59V0.82C27.07 0.602522 26.9836 0.393952 26.8298 0.240173C26.676 0.0863928 26.4675 0 26.25 0C26.0325 0 25.824 0.0863928 25.6702 0.240173C25.5164 0.393952 25.43 0.602522 25.43 0.82V4.59C25.43 4.80748 25.5164 5.01605 25.6702 5.16983C25.824 5.32361 26.0325 5.41 26.25 5.41Z" fill="#3E96F4"/>
<path d="M37.74 23.95C37.7387 23.5163 37.6516 23.0871 37.4838 22.6871C37.316 22.2871 37.0708 21.9243 36.7623 21.6194C36.4537 21.3146 36.0879 21.0738 35.6859 20.9108C35.284 20.7479 34.8537 20.666 34.42 20.67H28.33C29.2517 18.1659 29.6796 15.5069 29.59 12.84C29.5932 12.5057 29.5732 12.1715 29.53 11.84C29.5194 10.9701 29.1636 10.14 28.541 9.5324C27.9184 8.92479 27.0799 8.58939 26.21 8.6C25.3401 8.61061 24.51 8.96635 23.9024 9.58897C23.2948 10.2116 22.9594 11.0501 22.97 11.92V12.74C22.97 17.93 16.31 20.85 11.28 22.1C11.0895 21.6613 10.7751 21.2876 10.3755 21.0248C9.9759 20.7619 9.50832 20.6212 9.03 20.62H0.82C0.712316 20.62 0.605687 20.6412 0.5062 20.6824C0.406713 20.7236 0.316316 20.784 0.240172 20.8602C0.164028 20.9363 0.103628 21.0267 0.0624189 21.1262C0.0212101 21.2257 0 21.3323 0 21.44V41.18C0 41.2877 0.0212101 41.3943 0.0624189 41.4938C0.103628 41.5933 0.164028 41.6837 0.240172 41.7598C0.316316 41.836 0.406713 41.8964 0.5062 41.9376C0.605687 41.9788 0.712316 42 0.82 42H9.03C9.50467 41.9998 9.96906 41.8617 10.3667 41.6025C10.7644 41.3433 11.0782 40.9742 11.27 40.54L12.43 40.84C15.1126 41.6563 17.9064 42.0477 20.71 42H29.53C30.3991 41.9974 31.2318 41.6509 31.8464 41.0364C32.4609 40.4218 32.8074 39.5891 32.81 38.72C32.8154 38.0685 32.6237 37.4306 32.26 36.89C32.7332 36.7254 33.1625 36.4546 33.5148 36.0984C33.8671 35.7422 34.1331 35.3099 34.2924 34.8349C34.4517 34.3599 34.5001 33.8547 34.4338 33.3581C34.3675 32.8615 34.1883 32.3866 33.91 31.97C34.3828 31.8049 34.8114 31.5334 35.1627 31.1764C35.5139 30.8195 35.7785 30.3866 35.936 29.9112C36.0935 29.4358 36.1397 28.9306 36.0711 28.4345C36.0024 27.9384 35.8207 27.4647 35.54 27.05C36.1816 26.8232 36.7374 26.4035 37.1312 25.8486C37.525 25.2936 37.7377 24.6305 37.74 23.95ZM9.85 39.54C9.85 39.7575 9.76361 39.9661 9.60983 40.1198C9.45605 40.2736 9.24748 40.36 9.03 40.36H1.64V22.36H9.03C9.24748 22.36 9.45605 22.4464 9.60983 22.6002C9.76361 22.754 9.85 22.9625 9.85 23.18V39.54ZM34.42 25.59H30.35C30.1325 25.59 29.924 25.6764 29.7702 25.8302C29.6164 25.984 29.53 26.1925 29.53 26.41C29.53 26.6275 29.6164 26.8361 29.7702 26.9898C29.924 27.1436 30.1325 27.23 30.35 27.23H32.81C33.245 27.23 33.6621 27.4028 33.9697 27.7103C34.2772 28.0179 34.45 28.435 34.45 28.87C34.45 29.305 34.2772 29.7221 33.9697 30.0297C33.6621 30.3372 33.245 30.51 32.81 30.51H28.71C28.4925 30.51 28.284 30.5964 28.1302 30.7502C27.9764 30.904 27.89 31.1125 27.89 31.33C27.89 31.5475 27.9764 31.756 28.1302 31.9098C28.284 32.0636 28.4925 32.15 28.71 32.15H31.17C31.605 32.15 32.0221 32.3228 32.3297 32.6303C32.6372 32.9379 32.81 33.355 32.81 33.79C32.81 34.225 32.6372 34.6421 32.3297 34.9497C32.0221 35.2572 31.605 35.43 31.17 35.43H27.07C26.8669 35.4524 26.6791 35.549 26.5427 35.7012C26.4064 35.8534 26.331 36.0506 26.331 36.255C26.331 36.4594 26.4064 36.6566 26.5427 36.8088C26.6791 36.961 26.8669 37.0576 27.07 37.08H29.53C29.965 37.08 30.3821 37.2528 30.6897 37.5603C30.9972 37.8679 31.17 38.285 31.17 38.72C31.17 39.155 30.9972 39.5721 30.6897 39.8797C30.3821 40.1872 29.965 40.36 29.53 40.36H20.71C18.047 40.4091 15.3933 40.031 12.85 39.24L11.49 38.89V23.79C17.42 22.37 24.61 18.92 24.61 12.79V11.97C24.61 11.535 24.7828 11.1179 25.0903 10.8103C25.3979 10.5028 25.815 10.33 26.25 10.33C26.685 10.33 27.1021 10.5028 27.4097 10.8103C27.7172 11.1179 27.89 11.535 27.89 11.97C28.1238 14.9347 27.6651 17.9131 26.55 20.67H23.79C23.5725 20.67 23.364 20.7564 23.2102 20.9102C23.0564 21.064 22.97 21.2725 22.97 21.49C22.97 21.7075 23.0564 21.916 23.2102 22.0698C23.364 22.2236 23.5725 22.31 23.79 22.31H34.42C34.855 22.31 35.2721 22.4828 35.5797 22.7903C35.8872 23.0979 36.06 23.515 36.06 23.95C36.06 24.385 35.8872 24.8021 35.5797 25.1097C35.2721 25.4172 34.855 25.59 34.42 25.59Z" fill="#3E96F4"/>
<path d="M31.47 7.09L33.79 4.77C33.8662 4.69383 33.9266 4.60341 33.9678 4.50389C34.009 4.40438 34.0302 4.29772 34.0302 4.19C34.0302 4.08228 34.009 3.97562 33.9678 3.87611C33.9266 3.77659 33.8662 3.68617 33.79 3.61C33.7138 3.53383 33.6234 3.47341 33.5239 3.43219C33.4244 3.39097 33.3177 3.36976 33.21 3.36976C33.1023 3.36976 32.9956 3.39097 32.8961 3.43219C32.7966 3.47341 32.7062 3.53383 32.63 3.61L30.31 5.93C30.1562 6.08383 30.0698 6.29246 30.0698 6.51C30.0698 6.72754 30.1562 6.93617 30.31 7.09C30.4638 7.24383 30.6725 7.33024 30.89 7.33024C31.1075 7.33024 31.3162 7.24383 31.47 7.09Z" fill="#3E96F4"/>
<path d="M31.99 11.15C31.99 11.3675 32.0764 11.576 32.2302 11.7298C32.384 11.8836 32.5925 11.97 32.81 11.97H36.1C36.3175 11.97 36.5261 11.8836 36.6798 11.7298C36.8336 11.576 36.92 11.3675 36.92 11.15C36.92 10.9325 36.8336 10.724 36.6798 10.5702C36.5261 10.4164 36.3175 10.33 36.1 10.33H32.81C32.5925 10.33 32.384 10.4164 32.2302 10.5702C32.0764 10.724 31.99 10.9325 31.99 11.15Z" fill="#3E96F4"/>
<path d="M7.42 28.87C7.20252 28.87 6.99395 28.9564 6.84017 29.1102C6.68639 29.264 6.6 29.4725 6.6 29.69V36.24C6.58721 36.356 6.59902 36.4733 6.63465 36.5844C6.67028 36.6955 6.72893 36.7979 6.80678 36.8848C6.88462 36.9717 6.97992 37.0412 7.08644 37.0888C7.19297 37.1364 7.30833 37.161 7.425 37.161C7.54167 37.161 7.65703 37.1364 7.76356 37.0888C7.87008 37.0412 7.96538 36.9717 8.04322 36.8848C8.12107 36.7979 8.17972 36.6955 8.21535 36.5844C8.25098 36.4733 8.26279 36.356 8.25 36.24V29.69C8.24737 29.4716 8.15876 29.2631 8.00339 29.1096C7.84802 28.9561 7.63841 28.87 7.42 28.87Z" fill="#3E96F4"/>
<path d="M21.03 7.09C21.1838 7.24383 21.3925 7.33024 21.61 7.33024C21.8275 7.33024 22.0362 7.24383 22.19 7.09C22.3438 6.93617 22.4302 6.72754 22.4302 6.51C22.4302 6.29246 22.3438 6.08383 22.19 5.93L19.87 3.61C19.7938 3.53383 19.7034 3.47341 19.6039 3.43219C19.5044 3.39097 19.3977 3.36976 19.29 3.36976C19.1823 3.36976 19.0756 3.39097 18.9761 3.43219C18.8766 3.47341 18.7862 3.53383 18.71 3.61C18.6338 3.68617 18.5734 3.77659 18.5322 3.87611C18.491 3.97562 18.4698 4.08228 18.4698 4.19C18.4698 4.29772 18.491 4.40438 18.5322 4.50389C18.5734 4.60341 18.6338 4.69383 18.71 4.77L21.03 7.09Z" fill="#3E96F4"/>
<path d="M16.42 11.97H19.7C19.9175 11.97 20.126 11.8836 20.2798 11.7298C20.4336 11.576 20.52 11.3675 20.52 11.15C20.52 10.9325 20.4336 10.724 20.2798 10.5702C20.126 10.4164 19.9175 10.33 19.7 10.33H16.42C16.2025 10.33 15.994 10.4164 15.8402 10.5702C15.6864 10.724 15.6 10.9325 15.6 11.15C15.6 11.3675 15.6864 11.576 15.8402 11.7298C15.994 11.8836 16.2025 11.97 16.42 11.97Z" fill="#3E96F4"/>
</svg>
