<svg width="64" height="64" viewBox="0 0 64 64" fill="none" xmlns="http://www.w3.org/2000/svg">
<rect width="64" height="64" rx="8" fill="#3E96F4"/>
<path d="M40 32C40 36.4183 36.4183 40 32 40C27.5817 40 24 36.4183 24 32C24 27.5817 27.5817 24 32 24C36.4183 24 40 27.5817 40 32Z" stroke="white" stroke-width="2" stroke-miterlimit="10" stroke-linecap="round" stroke-linejoin="round"/>
<path d="M35.5 30.5L31 35L29 33" stroke="white" stroke-width="2" stroke-miterlimit="10" stroke-linecap="round" stroke-linejoin="round"/>
<path d="M30.7084 16.4755C31.4528 15.8415 32.5472 15.8415 33.2915 16.4755L35.8796 18.7597L40.2593 18.4207C41.2342 18.3453 42.1196 18.9886 42.3491 19.939L43.2272 23.5756L47.0538 25.8662C47.8868 26.3782 48.225 27.4191 47.852 28.3228L46.3402 31.986L47.852 35.6492C48.225 36.5531 47.8868 37.5939 47.0538 38.1059L43.2272 40.3965L42.3491 44.0331C42.1196 44.9835 41.2342 45.6268 40.2593 45.5514L35.9225 45.2157L33.2915 47.5245C32.5472 48.1585 31.4528 48.1585 30.7084 47.5245L28.0775 45.2157L23.7407 45.5514C22.7658 45.6268 21.8804 44.9835 21.6509 44.0331L20.7693 40.3821L16.9491 38.1059C16.116 37.5939 15.7779 36.5531 16.1509 35.6492L17.6626 31.986L16.1509 28.3228C15.7779 27.4191 16.116 26.3782 16.9491 25.8662L20.4419 23.7912L21.6509 19.939C21.8804 18.9886 22.7658 18.3453 23.7407 18.4207L28.1204 18.7597L30.7084 16.4755Z" stroke="white" stroke-width="2" stroke-miterlimit="10" stroke-linecap="round" stroke-linejoin="round"/>
</svg>
