<svg width="42" height="45" viewBox="0 0 42 45" fill="none" xmlns="http://www.w3.org/2000/svg">
<path fill-rule="evenodd" clip-rule="evenodd" d="M12.5105 18.0974C12.3876 19.5144 12.3225 20.9871 12.3225 22.5C12.3225 24.0127 12.3876 25.4853 12.5105 26.9022C13.6758 27.7169 14.9182 28.5092 16.2279 29.2653C17.5378 30.0216 18.8455 30.7015 20.1338 31.3035C21.4223 30.7015 22.73 30.0216 24.04 29.2652C25.3511 28.5083 26.594 27.7156 27.7589 26.9011C27.8817 25.4849 27.9467 24.0127 27.9467 22.5C27.9467 20.9881 27.8818 19.5164 27.759 18.1003C26.5926 17.2848 25.3489 16.4915 24.0378 15.7346L24.5304 14.8814L24.0378 15.7346C22.7277 14.9782 21.4203 14.2984 20.1327 13.6968C18.8446 14.2986 17.5374 14.9783 16.2279 15.7343C14.9182 16.4905 13.6758 17.2828 12.5105 18.0974ZM10.4278 19.6403C10.3778 20.5774 10.3521 21.5319 10.3521 22.5C10.3521 23.4679 10.3778 24.4224 10.4277 25.3594C9.22799 24.4169 8.1339 23.4571 7.15967 22.4998C8.13391 21.5426 9.228 20.5828 10.4278 19.6403ZM10.6351 17.0146C8.8279 18.3281 7.20186 19.698 5.79708 21.0763C5.3755 20.6061 4.98502 20.1389 4.62737 19.6771C3.38583 18.0743 2.57148 16.5778 2.20077 15.2823C1.83118 13.9907 1.92243 12.9838 2.35474 12.2351M4.42748 22.4998C3.93787 21.9589 3.48444 21.4193 3.06962 20.8837C1.73535 19.1612 0.768889 17.4406 0.306404 15.8244C-0.157186 14.2043 -0.134024 12.6049 0.648341 11.2498L0.648363 11.2498C1.30277 10.1164 2.37131 9.35714 3.65994 8.90026C3.91897 7.49799 5.14812 6.43579 6.62532 6.43579C7.93671 6.43579 9.05249 7.27281 9.46775 8.44169C10.3637 8.53525 11.3047 8.68809 12.2813 8.89844C12.5049 8.20374 12.7457 7.54103 13.0021 6.91383C13.8268 4.89705 14.8336 3.19979 16.0021 1.99116C17.1733 0.779656 18.57 0 20.1347 0C21.6994 0 23.0961 0.779663 24.2673 1.99117C25.4357 3.19979 26.4425 4.89706 27.2672 6.91384C27.5235 7.54077 27.7642 8.2032 27.9878 8.89757C28.7008 8.74405 29.3947 8.62125 30.0657 8.5298C32.2246 8.23557 34.1979 8.25886 35.8288 8.66642C37.4636 9.07494 38.8372 9.89467 39.6196 11.2497L39.6196 11.2498C40.1181 12.1134 40.3095 13.0817 40.2605 14.0903C41.0371 14.6359 41.5446 15.5384 41.5446 16.5596C41.5446 18.225 40.1945 19.5753 38.5289 19.5753C38.4024 19.5753 38.2777 19.5675 38.1553 19.5523C37.5144 20.5202 36.7372 21.509 35.8392 22.501C36.3284 23.0416 36.7815 23.5809 37.1961 24.1161C38.5304 25.8387 39.4968 27.5593 39.9593 29.1754C40.4229 30.7955 40.3998 32.3949 39.6175 33.75L39.6175 33.7501C38.4769 35.7255 36.1053 36.5582 33.3899 36.6578L33.3176 34.6888C35.7916 34.5979 37.2817 33.8547 37.911 32.7649C38.3433 32.0161 38.4346 31.0092 38.065 29.7176C37.6942 28.4221 36.8799 26.9256 35.6383 25.3227C35.2809 24.8613 34.8907 24.3944 34.4695 23.9245C33.064 25.3034 31.4386 26.6723 29.6343 27.9838C29.4005 30.2048 29.0273 32.2979 28.5359 34.2043C29.1896 34.3418 29.8229 34.4508 30.4324 34.531L30.1752 36.4846C29.4703 36.3918 28.7397 36.264 27.9879 36.1022C27.7381 36.8779 27.467 37.614 27.1763 38.3053C27.6355 38.8345 27.9135 39.5252 27.9135 40.2808C27.9135 41.9464 26.5633 43.2966 24.8978 43.2966C24.618 43.2966 24.347 43.2585 24.0899 43.1871C22.9542 44.2976 21.6216 45 20.1347 45C18.57 45 17.1733 44.2203 16.0021 43.0088C14.8336 41.8002 13.8268 40.1029 13.0021 38.0862C12.7457 37.459 12.505 36.7964 12.2813 36.1018C11.5679 36.2554 10.8736 36.3783 10.2022 36.4698C8.04326 36.7641 6.06996 36.7408 4.43904 36.3332C2.80423 35.9247 1.43066 35.1049 0.64831 33.7499L1.50009 33.2581L0.648306 33.7499C-0.13403 32.3948 -0.157179 30.7953 0.306414 29.1753C0.768902 27.5591 1.73536 25.8385 3.06962 24.1159C3.48444 23.5804 3.93787 23.0407 4.42748 22.4998ZM5.79709 23.9234C5.3755 24.3936 4.98503 24.8608 4.62738 25.3225C3.38584 26.9254 2.57149 28.4219 2.20078 29.7174C1.83117 31.009 1.92243 32.0159 2.35474 32.7647L1.50152 33.2573L2.35474 32.7647C2.78703 33.5134 3.61336 34.0959 4.91675 34.4216C6.22403 34.7483 7.92721 34.7913 9.9361 34.5175C10.515 34.4386 11.1151 34.334 11.7333 34.2039C11.2422 32.2987 10.869 30.2062 10.6351 27.985C8.82788 26.6716 7.20186 25.3017 5.79709 23.9234ZM12.8053 29.4773C13.0216 30.9869 13.3057 32.4138 13.6474 33.7356C14.9631 33.3706 16.3408 32.9032 17.7563 32.3357C16.92 31.9105 16.0808 31.4556 15.2427 30.9718C14.4048 30.488 13.5915 29.9888 12.8053 29.4773ZM20.1338 33.469C18.0933 34.3771 16.0945 35.1001 14.199 35.6274C14.3954 36.2278 14.6048 36.7997 14.8259 37.3404C15.5933 39.217 16.4821 40.6705 17.4187 41.6393C18.3525 42.6052 19.2701 43.0296 20.1347 43.0296C20.8717 43.0296 21.6497 42.7199 22.4409 42.03C22.0891 41.5367 21.8821 40.9329 21.8821 40.2808C21.8821 38.6154 23.2323 37.2652 24.8978 37.2652C25.0876 37.2652 25.2732 37.2827 25.4532 37.3162C25.6706 36.7829 25.8767 36.2193 26.0702 35.6279C24.1741 35.1005 22.1748 34.3773 20.1338 33.469ZM26.6218 33.7361C26.9635 32.4141 27.2477 30.9868 27.4641 29.4762C26.6771 29.9883 25.8632 30.4878 25.0252 30.9717C24.187 31.4556 23.3477 31.9105 22.5114 32.3357C23.9275 32.9035 25.3057 33.371 26.6218 33.7361ZM29.8416 25.3582C31.0412 24.4157 32.1342 23.4566 33.107 22.5009C32.1335 21.5444 31.0403 20.5853 29.8417 19.6434C29.8915 20.5795 29.9171 21.533 29.9171 22.5C29.9171 23.4674 29.8915 24.4214 29.8416 25.3582ZM29.6345 17.0177C31.4406 18.3306 33.0656 19.6998 34.4696 21.0775C35.202 20.2607 35.8399 19.4539 36.3745 18.6697C35.8417 18.1258 35.5133 17.3811 35.5133 16.5596C35.5133 14.9742 36.7366 13.6746 38.2908 13.5532C38.2604 13.0484 38.1303 12.611 37.9132 12.235C37.4809 11.4862 36.6545 10.9037 35.3511 10.578C34.0438 10.2514 32.3407 10.2084 30.3318 10.4822C29.7533 10.561 29.1536 10.6655 28.5358 10.7955C29.0272 12.7016 29.4006 14.7953 29.6345 17.0177ZM26.0701 9.37187C25.8737 8.77176 25.6644 8.2001 25.4434 7.65959C24.676 5.78296 23.7872 4.32948 22.8507 3.36069C21.9169 2.3948 20.9993 1.9704 20.1347 1.9704C19.2701 1.9704 18.3525 2.3948 17.4187 3.3607C16.4821 4.32948 15.5933 5.78297 14.8259 7.65959C14.6048 8.20042 14.3954 8.77242 14.1988 9.37292C16.0952 9.90056 18.0936 10.6238 20.1326 11.5312C22.1741 10.6227 24.1737 9.89932 26.0701 9.37187ZM22.51 12.6645C23.9265 12.0966 25.3052 11.6288 26.6217 11.2637C26.9637 12.5864 27.2479 14.0143 27.4643 15.5251C26.6769 15.0128 25.8623 14.5127 25.023 14.0282C24.1854 13.5445 23.3463 13.0897 22.51 12.6645ZM17.7552 12.6645C16.3394 12.0968 14.9621 11.6296 13.6473 11.2647C13.3057 12.5864 13.0216 14.013 12.8054 15.5223C13.5915 15.0108 14.4048 14.5117 15.2427 14.0279L15.7353 14.8811L15.2427 14.0279C16.0804 13.5443 16.9193 13.0895 17.7552 12.6645ZM10.6351 17.0146C10.869 14.7937 11.2422 12.7014 11.7333 10.7963C10.9508 10.6317 10.1979 10.5078 9.4803 10.4253C9.07534 11.6129 7.95013 12.4672 6.62532 12.4672C5.48135 12.4672 4.48611 11.8301 3.97502 10.8915C3.20101 11.226 2.672 11.6856 2.35476 12.235M6.62532 8.4062C6.04812 8.4062 5.58008 8.87419 5.58008 9.45153C5.58008 10.0288 6.04809 10.4968 6.62532 10.4968C7.20261 10.4968 7.67057 10.0288 7.67057 9.45153C7.67057 8.87416 7.20258 8.4062 6.62532 8.4062ZM38.5289 15.5144C37.9516 15.5144 37.4837 15.9823 37.4837 16.5596C37.4837 17.1369 37.9516 17.6049 38.5289 17.6049C39.1062 17.6049 39.5742 17.1369 39.5742 16.5596C39.5742 15.9823 39.1062 15.5144 38.5289 15.5144ZM22.686 18.7062C21.6597 18.7062 20.8276 19.5382 20.8276 20.5646V20.5658C20.8276 20.6009 20.8285 20.6358 20.8305 20.6707C21.8655 20.8619 22.7547 21.4694 23.3177 22.3131C24.0329 22.0547 24.5444 21.3689 24.5444 20.5646C24.5444 19.5382 23.7124 18.7062 22.686 18.7062ZM23.951 24.1793C25.4443 23.6567 26.5148 22.2362 26.5148 20.5646C26.5148 18.45 24.8006 16.7358 22.686 16.7358C21.7062 16.7358 20.8124 17.1038 20.1352 17.7091C19.5003 17.1414 18.674 16.7817 17.7636 16.7396L17.6726 18.7079C18.2226 18.7334 18.712 18.9987 19.0363 19.404C18.9201 19.7697 18.8573 20.1592 18.8572 20.5633M23.951 24.1793C23.9566 24.264 23.9595 24.3496 23.9595 24.4357C23.9595 26.5503 22.2453 28.2646 20.1307 28.2646C18.016 28.2646 16.3018 26.5503 16.3018 24.4357C16.3018 24.3487 16.3047 24.2623 16.3105 24.1767C14.8215 23.6522 13.7546 22.2336 13.7542 20.5656C13.7532 19.8652 13.945 19.1781 14.3085 18.5794L15.9927 19.6022C15.8168 19.8918 15.7241 20.2242 15.7246 20.5631L15.7246 20.5646C15.7246 21.3668 16.2331 22.0506 16.9452 22.3107C17.4027 21.6263 18.0749 21.0975 18.8656 20.8209M13.7542 20.5656C13.7542 20.5652 13.7542 20.5649 13.7542 20.5646H14.7394L13.7542 20.5661C13.7542 20.5659 13.7542 20.5657 13.7542 20.5656ZM20.1307 22.5773C19.1042 22.5773 18.2722 23.4094 18.2722 24.4357C18.2722 25.4621 19.1042 26.2942 20.1307 26.2942C21.157 26.2942 21.9891 25.4621 21.9891 24.4357C21.9891 23.4094 21.157 22.5773 20.1307 22.5773ZM24.8978 39.2356C24.3205 39.2356 23.8525 39.7036 23.8525 40.2808C23.8525 40.8582 24.3205 41.3262 24.8978 41.3262C25.475 41.3262 25.9431 40.8582 25.9431 40.2808C25.9431 39.7036 25.475 39.2356 24.8978 39.2356Z" fill="url(#paint0_linear_1_422)"/>
<defs>
<linearGradient id="paint0_linear_1_422" x1="0" y1="0" x2="44.4286" y2="34.2977" gradientUnits="userSpaceOnUse">
<stop stop-color="#FE5B52"/>
<stop offset="1" stop-color="#3D96F5"/>
</linearGradient>
</defs>
</svg>
