<svg width="20" height="20" viewBox="0 0 20 20" fill="none" xmlns="http://www.w3.org/2000/svg">
<g clip-path="url(#clip0_6873_5940)">
<path d="M17 0.5H3C1.61929 0.5 0.5 1.61929 0.5 3V17C0.5 18.3807 1.61929 19.5 3 19.5H17C18.3807 19.5 19.5 18.3807 19.5 17V3C19.5 1.61929 18.3807 0.5 17 0.5Z" stroke="#7FC4FF"/>
<path d="M3 0.5H17C18.3807 0.5 19.5 1.61929 19.5 3V4.5H0.5V3C0.5 1.61929 1.61929 0.5 3 0.5Z" stroke="#7FC4FF"/>
<path d="M10.0188 15.1006C10.0752 15.1006 10.1316 15.096 10.1881 15.0867L11.7075 14.832C11.9181 14.7967 12.1089 14.6989 12.2584 14.5495L16.5998 10.2286C16.961 9.86973 17.1606 9.39157 17.1606 8.88387C17.1613 8.63398 17.1122 8.38642 17.016 8.15557C16.9199 7.92472 16.7786 7.71518 16.6004 7.5391C15.879 6.82011 14.6179 6.82069 13.8971 7.53852L9.55458 11.86C9.40542 12.0087 9.30642 12.1999 9.27128 12.407L9.01416 13.918C8.98955 14.0633 8.99709 14.2123 9.03623 14.3545C9.07538 14.4966 9.1452 14.6286 9.24083 14.7412C9.33646 14.8538 9.45561 14.9442 9.58996 15.0063C9.72432 15.0684 9.87066 15.1006 10.0188 15.1006ZM15.2485 8.02248C15.3621 8.02221 15.4747 8.04444 15.5797 8.08787C15.6846 8.1313 15.7799 8.19506 15.8598 8.27545C16.0227 8.43754 16.1135 8.65347 16.1135 8.88387C16.1135 9.11312 16.0233 9.32962 15.8593 9.49171L15.2764 10.0723L14.0536 8.85551L14.6371 8.27487C14.8 8.1122 15.0169 8.02248 15.2485 8.02248ZM10.2951 12.5952L13.3131 9.59186L14.5364 10.8093L11.5336 13.8033L10.0467 14.091L10.2951 12.5952Z" fill="#0089FF"/>
<path d="M3 8.5C3 8.22386 3.22386 8 3.5 8H9.5C9.77614 8 10 8.22386 10 8.5C10 8.77614 9.77614 9 9.5 9H3.5C3.22386 9 3 8.77614 3 8.5Z" fill="#0089FF"/>
<path d="M3 11.5C3 11.2239 3.22386 11 3.5 11H7.5C7.77614 11 8 11.2239 8 11.5C8 11.7761 7.77614 12 7.5 12H3.5C3.22386 12 3 11.7761 3 11.5Z" fill="#0089FF"/>
<path d="M3 14.5C3 14.2239 3.22386 14 3.5 14H4.5C4.77614 14 5 14.2239 5 14.5C5 14.7761 4.77614 15 4.5 15H3.5C3.22386 15 3 14.7761 3 14.5Z" fill="#0089FF"/>
</g>
<defs>
<clipPath id="clip0_6873_5940">
<rect width="20" height="20" fill="white"/>
</clipPath>
</defs>
</svg>
