<svg width="160" height="160" viewBox="0 0 160 160" fill="none" xmlns="http://www.w3.org/2000/svg">
<mask id="mask0_2393_7972" style="mask-type:alpha" maskUnits="userSpaceOnUse" x="0" y="0" width="160" height="160">
<rect width="160" height="160" fill="#F5F9FF"/>
</mask>
<g mask="url(#mask0_2393_7972)">
<path d="M20.0003 96.6667C19.1114 96.6667 18.3337 96.3418 17.667 95.6917C17.0003 95.0417 16.667 94.2279 16.667 93.2501C16.667 92.2723 17.0003 91.4584 17.667 90.8084C18.3337 90.1584 19.1114 89.8334 20.0003 89.8334C21.0003 89.8334 21.8337 90.1584 22.5003 90.8084C23.167 91.4584 23.5003 92.2723 23.5003 93.2501C23.5003 94.2279 23.167 95.0417 22.5003 95.6917C21.8337 96.3418 21.0003 96.6667 20.0003 96.6667ZM20.0003 70.1668C19.1114 70.1668 18.3337 69.8418 17.667 69.1918C17.0003 68.5418 16.667 67.7279 16.667 66.7501C16.667 65.7723 17.0003 64.9584 17.667 64.3084C18.3337 63.6584 19.1114 63.3334 20.0003 63.3334C21.0003 63.3334 21.8337 63.6584 22.5003 64.3084C23.167 64.9584 23.5003 65.7723 23.5003 66.7501C23.5003 67.7279 23.167 68.5418 22.5003 69.1918C21.8337 69.8418 21.0003 70.1668 20.0003 70.1668ZM40.0187 125.167C38.5587 125.167 37.3298 124.673 36.332 123.687C35.3331 122.7 34.8337 121.477 34.8337 120.018C34.8337 118.56 35.327 117.331 36.3137 116.332C37.3003 115.333 38.5231 114.833 39.982 114.833C41.4409 114.833 42.6698 115.327 43.6687 116.313C44.6676 117.3 45.167 118.523 45.167 119.982C45.167 121.442 44.6737 122.671 43.687 123.668C42.7003 124.667 41.4775 125.167 40.0187 125.167ZM40.0187 98.5001C38.5587 98.5001 37.3298 97.9906 36.332 96.9717C35.3331 95.9529 34.8337 94.6906 34.8337 93.1851C34.8337 91.7262 35.327 90.4973 36.3137 89.4984C37.3003 88.4995 38.5231 88.0001 39.982 88.0001C41.4409 88.0001 42.6698 88.5001 43.6687 89.5001C44.6676 90.5001 45.167 91.739 45.167 93.2167C45.167 94.6945 44.6737 95.9445 43.687 96.9667C42.7003 97.989 41.4775 98.5001 40.0187 98.5001ZM40.0187 72.0001C38.5587 72.0001 37.3298 71.5001 36.332 70.5001C35.3331 69.5001 34.8337 68.2612 34.8337 66.7834C34.8337 65.3056 35.327 64.0556 36.3137 63.0334C37.3003 62.0112 38.5231 61.5001 39.982 61.5001C41.4409 61.5001 42.6698 62.0095 43.6687 63.0284C44.6676 64.0473 45.167 65.3095 45.167 66.8151C45.167 68.274 44.6737 69.5029 43.687 70.5018C42.7003 71.5006 41.4775 72.0001 40.0187 72.0001ZM40.0187 45.1667C38.5587 45.1667 37.3298 44.6734 36.332 43.6867C35.3331 42.7001 34.8337 41.4773 34.8337 40.0184C34.8337 38.5595 35.327 37.3306 36.3137 36.3317C37.3003 35.3329 38.5231 34.8334 39.982 34.8334C41.4409 34.8334 42.6698 35.3267 43.6687 36.3134C44.6676 37.3001 45.167 38.5229 45.167 39.9818C45.167 41.4406 44.6737 42.6695 43.687 43.6684C42.7003 44.6673 41.4775 45.1667 40.0187 45.1667ZM66.7903 100.333C64.8748 100.333 63.2087 99.6406 61.792 98.2551C60.3753 96.8684 59.667 95.1856 59.667 93.2067C59.667 91.3467 60.3598 89.7084 61.7453 88.2917C63.132 86.8751 64.8148 86.1667 66.7937 86.1667C68.6537 86.1667 70.292 86.8617 71.7087 88.2517C73.1253 89.6429 73.8337 91.2956 73.8337 93.2101C73.8337 95.1256 73.1387 96.7917 71.7487 98.2084C70.3575 99.6251 68.7048 100.333 66.7903 100.333ZM66.7903 73.8334C64.8748 73.8334 63.2087 73.1384 61.792 71.7484C60.3753 70.3573 59.667 68.7045 59.667 66.7901C59.667 64.8745 60.3598 63.2084 61.7453 61.7917C63.132 60.3751 64.8148 59.6667 66.7937 59.6667C68.6537 59.6667 70.292 60.3595 71.7087 61.7451C73.1253 63.1317 73.8337 64.8145 73.8337 66.7934C73.8337 68.6534 73.1387 70.2917 71.7487 71.7084C70.3575 73.1251 68.7048 73.8334 66.7903 73.8334ZM66.7837 125.167C65.3059 125.167 64.0559 124.673 63.0337 123.687C62.0114 122.7 61.5003 121.477 61.5003 120.018C61.5003 118.56 62.0098 117.331 63.0287 116.332C64.0476 115.333 65.3098 114.833 66.8153 114.833C68.2742 114.833 69.5031 115.327 70.502 116.313C71.5009 117.3 72.0003 118.523 72.0003 119.982C72.0003 121.442 71.5003 122.671 70.5003 123.668C69.5003 124.667 68.2614 125.167 66.7837 125.167ZM66.7837 45.1667C65.3059 45.1667 64.0559 44.6734 63.0337 43.6867C62.0114 42.7001 61.5003 41.4773 61.5003 40.0184C61.5003 38.5595 62.0098 37.3306 63.0287 36.3317C64.0476 35.3329 65.3098 34.8334 66.8153 34.8334C68.2742 34.8334 69.5031 35.3267 70.502 36.3134C71.5009 37.3001 72.0003 38.5229 72.0003 39.9818C72.0003 41.4406 71.5003 42.6695 70.5003 43.6684C69.5003 44.6673 68.2614 45.1667 66.7837 45.1667ZM66.8337 143.333C65.8337 143.333 65.0003 143.008 64.3337 142.358C63.667 141.708 63.3337 140.895 63.3337 139.917C63.3337 138.939 63.667 138.125 64.3337 137.475C65.0003 136.825 65.8337 136.5 66.8337 136.5C67.7225 136.5 68.5003 136.825 69.167 137.475C69.8337 138.125 70.167 138.939 70.167 139.917C70.167 140.895 69.8337 141.708 69.167 142.358C68.5003 143.008 67.7225 143.333 66.8337 143.333ZM66.8337 23.5001C65.8337 23.5001 65.0003 23.1751 64.3337 22.5251C63.667 21.8751 63.3337 21.0612 63.3337 20.0834C63.3337 19.1056 63.667 18.2917 64.3337 17.6417C65.0003 16.9917 65.8337 16.6667 66.8337 16.6667C67.7225 16.6667 68.5003 16.9917 69.167 17.6417C69.8337 18.2917 70.167 19.1056 70.167 20.0834C70.167 21.0612 69.8337 21.8751 69.167 22.5251C68.5003 23.1751 67.7225 23.5001 66.8337 23.5001ZM93.207 100.333C91.347 100.333 89.7087 99.6406 88.292 98.2551C86.8753 96.8684 86.167 95.1856 86.167 93.2067C86.167 91.3467 86.862 89.7084 88.252 88.2917C89.6431 86.8751 91.2959 86.1667 93.2103 86.1667C95.1259 86.1667 96.792 86.8617 98.2087 88.2517C99.6253 89.6429 100.334 91.2956 100.334 93.2101C100.334 95.1256 99.6409 96.7917 98.2553 98.2084C96.8687 99.6251 95.1859 100.333 93.207 100.333ZM93.207 73.8334C91.347 73.8334 89.7087 73.1384 88.292 71.7484C86.8753 70.3573 86.167 68.7045 86.167 66.7901C86.167 64.8745 86.862 63.2084 88.252 61.7917C89.6431 60.3751 91.2959 59.6667 93.2103 59.6667C95.1259 59.6667 96.792 60.3595 98.2087 61.7451C99.6253 63.1317 100.334 64.8145 100.334 66.7934C100.334 68.6534 99.6409 70.2917 98.2553 71.7084C96.8687 73.1251 95.1859 73.8334 93.207 73.8334ZM93.1853 125.167C91.7264 125.167 90.4976 124.673 89.4987 123.687C88.4998 122.7 88.0003 121.477 88.0003 120.018C88.0003 118.56 88.5003 117.331 89.5003 116.332C90.5003 115.333 91.7392 114.833 93.217 114.833C94.6948 114.833 95.9448 115.327 96.967 116.313C97.9892 117.3 98.5003 118.523 98.5003 119.982C98.5003 121.442 97.9909 122.671 96.972 123.668C95.9531 124.667 94.6909 125.167 93.1853 125.167ZM93.1853 45.1667C91.7264 45.1667 90.4976 44.6734 89.4987 43.6867C88.4998 42.7001 88.0003 41.4773 88.0003 40.0184C88.0003 38.5595 88.5003 37.3306 89.5003 36.3317C90.5003 35.3329 91.7392 34.8334 93.217 34.8334C94.6948 34.8334 95.9448 35.3267 96.967 36.3134C97.9892 37.3001 98.5003 38.5229 98.5003 39.9818C98.5003 41.4406 97.9909 42.6695 96.972 43.6684C95.9531 44.6673 94.6909 45.1667 93.1853 45.1667ZM93.5003 143.333C92.6114 143.333 91.8337 143.008 91.167 142.358C90.5003 141.708 90.167 140.895 90.167 139.917C90.167 138.939 90.5003 138.125 91.167 137.475C91.8337 136.825 92.6114 136.5 93.5003 136.5C94.5003 136.5 95.3337 136.825 96.0003 137.475C96.667 138.125 97.0003 138.939 97.0003 139.917C97.0003 140.895 96.667 141.708 96.0003 142.358C95.3337 143.008 94.5003 143.333 93.5003 143.333ZM93.167 23.5001C92.2781 23.5001 91.5003 23.1751 90.8337 22.5251C90.167 21.8751 89.8337 21.0612 89.8337 20.0834C89.8337 19.1056 90.167 18.2917 90.8337 17.6417C91.5003 16.9917 92.2781 16.6667 93.167 16.6667C94.167 16.6667 95.0003 16.9917 95.667 17.6417C96.3337 18.2917 96.667 19.1056 96.667 20.0834C96.667 21.0612 96.3337 21.8751 95.667 22.5251C95.0003 23.1751 94.167 23.5001 93.167 23.5001ZM120.019 125.167C118.56 125.167 117.331 124.673 116.332 123.687C115.333 122.7 114.834 121.477 114.834 120.018C114.834 118.56 115.327 117.331 116.314 116.332C117.3 115.333 118.523 114.833 119.982 114.833C121.441 114.833 122.67 115.327 123.669 116.313C124.668 117.3 125.167 118.523 125.167 119.982C125.167 121.442 124.674 122.671 123.687 123.668C122.7 124.667 121.478 125.167 120.019 125.167ZM120.019 98.5001C118.56 98.5001 117.331 97.9906 116.332 96.9717C115.333 95.9529 114.834 94.6906 114.834 93.1851C114.834 91.7262 115.327 90.4973 116.314 89.4984C117.3 88.4995 118.523 88.0001 119.982 88.0001C121.441 88.0001 122.67 88.5001 123.669 89.5001C124.668 90.5001 125.167 91.739 125.167 93.2167C125.167 94.6945 124.674 95.9445 123.687 96.9667C122.7 97.989 121.478 98.5001 120.019 98.5001ZM120.019 72.0001C118.56 72.0001 117.331 71.5001 116.332 70.5001C115.333 69.5001 114.834 68.2612 114.834 66.7834C114.834 65.3056 115.327 64.0556 116.314 63.0334C117.3 62.0112 118.523 61.5001 119.982 61.5001C121.441 61.5001 122.67 62.0095 123.669 63.0284C124.668 64.0473 125.167 65.3095 125.167 66.8151C125.167 68.274 124.674 69.5029 123.687 70.5018C122.7 71.5006 121.478 72.0001 120.019 72.0001ZM120.019 45.1667C118.56 45.1667 117.331 44.6734 116.332 43.6867C115.333 42.7001 114.834 41.4773 114.834 40.0184C114.834 38.5595 115.327 37.3306 116.314 36.3317C117.3 35.3329 118.523 34.8334 119.982 34.8334C121.441 34.8334 122.67 35.3267 123.669 36.3134C124.668 37.3001 125.167 38.5229 125.167 39.9818C125.167 41.4406 124.674 42.6695 123.687 43.6684C122.7 44.6673 121.478 45.1667 120.019 45.1667ZM140 96.6667C139 96.6667 138.167 96.3418 137.5 95.6917C136.834 95.0417 136.5 94.2279 136.5 93.2501C136.5 92.2723 136.834 91.4584 137.5 90.8084C138.167 90.1584 139 89.8334 140 89.8334C140.889 89.8334 141.667 90.1584 142.334 90.8084C143 91.4584 143.334 92.2723 143.334 93.2501C143.334 94.2279 143 95.0417 142.334 95.6917C141.667 96.3418 140.889 96.6667 140 96.6667ZM140 70.1668C139 70.1668 138.167 69.8418 137.5 69.1918C136.834 68.5418 136.5 67.7279 136.5 66.7501C136.5 65.7723 136.834 64.9584 137.5 64.3084C138.167 63.6584 139 63.3334 140 63.3334C140.889 63.3334 141.667 63.6584 142.334 64.3084C143 64.9584 143.334 65.7723 143.334 66.7501C143.334 67.7279 143 68.5418 142.334 69.1918C141.667 69.8418 140.889 70.1668 140 70.1668Z" fill="#7886ED"/>
</g>
</svg>
