<svg width="16" height="16" viewBox="0 0 16 16" fill="none" xmlns="http://www.w3.org/2000/svg">
<mask id="mask0_1_1289" style="mask-type:alpha" maskUnits="userSpaceOnUse" x="0" y="0" width="16" height="16">
<rect width="16" height="16" fill="#D9D9D9"/>
</mask>
<g mask="url(#mask0_1_1289)">
<path d="M4.79116 14.3957C4.34672 14.3957 3.96894 14.2429 3.65783 13.9374C3.34672 13.6318 3.19116 13.2624 3.19116 12.829V3.61237C3.19116 3.23459 3.31338 2.90404 3.55783 2.6207C3.80227 2.33737 4.11338 2.15681 4.49116 2.07904L10.3912 0.845703V11.279L4.74116 12.4624C4.65227 12.4846 4.57172 12.529 4.4995 12.5957C4.42727 12.6624 4.39116 12.7401 4.39116 12.829C4.39116 12.9401 4.43005 13.029 4.50783 13.0957C4.58561 13.1624 4.68005 13.1957 4.79116 13.1957H11.5912V2.7957H12.7912V14.3957H4.79116ZM5.19116 11.129L6.39116 10.879V2.91237L5.19116 3.17904V11.129Z" fill="#7886ED"/>
</g>
</svg>
