<svg width="163" height="50" viewBox="0 0 163 50" fill="none" xmlns="http://www.w3.org/2000/svg">
<g clip-path="url(#clip0_1_643)">
<path d="M4.42988 13.182C4.35412 11.0063 6.04926 9 8.34055 9H31.8192C34.1105 9 35.8056 11.0063 35.7299 13.182C35.6571 15.2719 35.7516 17.9792 36.4329 20.1867C37.1165 22.4009 38.2691 23.8005 40.1569 23.9804V26.0196C38.2691 26.1995 37.1165 27.5991 36.4329 29.8133C35.7516 32.0208 35.6571 34.7281 35.7299 36.8181C35.8056 38.9937 34.1105 41 31.8192 41H8.34055C6.04926 41 4.35412 38.9937 4.42996 36.8181C4.50267 34.7281 4.40816 32.0208 3.72675 29.8133C3.04329 27.5991 1.88784 26.1995 0 26.0196V23.9804C1.88776 23.8005 3.04329 22.4009 3.72675 20.1867C4.40816 17.9792 4.50267 15.2719 4.42988 13.182Z" fill="url(#paint0_linear_1_643)"/>
<g filter="url(#filter0_d_1_643)">
<path d="M20.9493 33.5064C24.6588 33.5064 26.8942 31.6901 26.8942 28.6943C26.8942 26.4297 25.2992 24.7903 22.9309 24.5307V24.4364C24.6709 24.1533 26.0363 22.5375 26.0363 20.7329C26.0363 18.1617 24.0064 16.4868 20.913 16.4868H13.953V33.5064H20.9493ZM16.6597 18.6452H20.2605C22.218 18.6452 23.3296 19.518 23.3296 21.0985C23.3296 22.7852 22.0368 23.7287 19.6926 23.7287H16.6597V18.6452ZM16.6597 31.3481V25.7456H20.2363C22.798 25.7456 24.1271 26.6892 24.1271 28.5292C24.1271 30.3691 22.8343 31.3481 20.3934 31.3481H16.6597Z" fill="url(#paint1_linear_1_643)"/>
<path d="M20.9493 33.5064C24.6588 33.5064 26.8942 31.6901 26.8942 28.6943C26.8942 26.4297 25.2992 24.7903 22.9309 24.5307V24.4364C24.6709 24.1533 26.0363 22.5375 26.0363 20.7329C26.0363 18.1617 24.0064 16.4868 20.913 16.4868H13.953V33.5064H20.9493ZM16.6597 18.6452H20.2605C22.218 18.6452 23.3296 19.518 23.3296 21.0985C23.3296 22.7852 22.0368 23.7287 19.6926 23.7287H16.6597V18.6452ZM16.6597 31.3481V25.7456H20.2363C22.798 25.7456 24.1271 26.6892 24.1271 28.5292C24.1271 30.3691 22.8343 31.3481 20.3934 31.3481H16.6597Z" stroke="white"/>
</g>
</g>
<path d="M157.224 33.5449C155.747 33.5449 154.588 33.0087 153.748 31.9362H153.568C153.688 32.9862 153.748 33.5937 153.748 33.7587V38.8549H150.317V20.7424H153.107L153.59 22.3737H153.748C154.55 21.1287 155.739 20.5062 157.314 20.5062C158.799 20.5062 159.962 21.0799 160.802 22.2274C161.642 23.3749 162.062 24.9687 162.062 27.0087C162.062 28.3512 161.863 29.5174 161.465 30.5074C161.075 31.4974 160.517 32.2512 159.789 32.7687C159.062 33.2862 158.207 33.5449 157.224 33.5449ZM156.212 23.2512C155.364 23.2512 154.745 23.5137 154.355 24.0387C153.965 24.5562 153.763 25.4149 153.748 26.6149V26.9862C153.748 28.3362 153.947 29.3037 154.344 29.8887C154.749 30.4737 155.387 30.7662 156.257 30.7662C157.794 30.7662 158.563 29.4987 158.563 26.9637C158.563 25.7262 158.372 24.7999 157.989 24.1849C157.614 23.5624 157.022 23.2512 156.212 23.2512Z" fill="#6F12F2"/>
<path d="M144.377 33.3199L143.713 31.6099H143.623C143.045 32.3374 142.449 32.8437 141.834 33.1287C141.227 33.4062 140.432 33.5449 139.449 33.5449C138.242 33.5449 137.289 33.1999 136.592 32.5099C135.902 31.8199 135.557 30.8374 135.557 29.5624C135.557 28.2274 136.022 27.2449 136.952 26.6149C137.889 25.9774 139.299 25.6249 141.182 25.5574L143.364 25.4899V24.9387C143.364 23.6637 142.712 23.0262 141.407 23.0262C140.402 23.0262 139.22 23.3299 137.863 23.9374L136.727 21.6199C138.174 20.8624 139.779 20.4837 141.542 20.4837C143.229 20.4837 144.523 20.8512 145.423 21.5862C146.323 22.3212 146.773 23.4387 146.773 24.9387V33.3199H144.377ZM143.364 27.4924L142.037 27.5374C141.039 27.5674 140.297 27.7474 139.809 28.0774C139.322 28.4074 139.078 28.9099 139.078 29.5849C139.078 30.5524 139.633 31.0362 140.743 31.0362C141.538 31.0362 142.172 30.8074 142.644 30.3499C143.124 29.8924 143.364 29.2849 143.364 28.5274V27.4924Z" fill="#6F12F2"/>
<path d="M132.947 20.5062C133.412 20.5062 133.798 20.5399 134.105 20.6074L133.847 23.8249C133.569 23.7499 133.232 23.7124 132.834 23.7124C131.739 23.7124 130.884 23.9937 130.269 24.5562C129.662 25.1187 129.358 25.9062 129.358 26.9187V33.3199H125.927V20.7424H128.525L129.032 22.8574H129.2C129.59 22.1524 130.115 21.5862 130.775 21.1587C131.443 20.7237 132.167 20.5062 132.947 20.5062Z" fill="#6F12F2"/>
<path d="M121.214 30.8112C121.814 30.8112 122.534 30.6799 123.374 30.4174V32.9712C122.519 33.3537 121.469 33.5449 120.224 33.5449C118.852 33.5449 117.85 33.1999 117.22 32.5099C116.598 31.8124 116.287 30.7699 116.287 29.3824V23.3187H114.644V21.8674L116.534 20.7199L117.524 18.0649H119.718V20.7424H123.239V23.3187H119.718V29.3824C119.718 29.8699 119.853 30.2299 120.123 30.4624C120.4 30.6949 120.764 30.8112 121.214 30.8112Z" fill="#6F12F2"/>
<path d="M113.237 29.5849C113.237 30.8749 112.787 31.8574 111.887 32.5324C110.994 33.2074 109.655 33.5449 107.87 33.5449C106.955 33.5449 106.175 33.4812 105.53 33.3537C104.885 33.2337 104.282 33.0537 103.719 32.8137V29.9787C104.357 30.2787 105.073 30.5299 105.868 30.7324C106.67 30.9349 107.375 31.0362 107.983 31.0362C109.228 31.0362 109.85 30.6762 109.85 29.9562C109.85 29.6862 109.768 29.4687 109.603 29.3037C109.438 29.1312 109.153 28.9399 108.748 28.7299C108.343 28.5124 107.803 28.2612 107.128 27.9762C106.16 27.5712 105.448 27.1962 104.99 26.8512C104.54 26.5062 104.21 26.1124 104 25.6699C103.798 25.2199 103.697 24.6687 103.697 24.0162C103.697 22.8987 104.128 22.0362 104.99 21.4287C105.86 20.8137 107.09 20.5062 108.68 20.5062C110.195 20.5062 111.669 20.8362 113.102 21.4962L112.067 23.9712C111.437 23.7012 110.848 23.4799 110.3 23.3074C109.753 23.1349 109.194 23.0487 108.624 23.0487C107.612 23.0487 107.105 23.3224 107.105 23.8699C107.105 24.1774 107.267 24.4437 107.589 24.6687C107.919 24.8937 108.635 25.2274 109.738 25.6699C110.72 26.0674 111.44 26.4387 111.898 26.7837C112.355 27.1287 112.693 27.5262 112.91 27.9762C113.128 28.4262 113.237 28.9624 113.237 29.5849Z" fill="#6F12F2"/>
<path d="M99.7491 30.8112C100.349 30.8112 101.069 30.6799 101.909 30.4174V32.9712C101.054 33.3537 100.004 33.5449 98.7591 33.5449C97.3866 33.5449 96.3853 33.1999 95.7553 32.5099C95.1328 31.8124 94.8216 30.7699 94.8216 29.3824V23.3187H93.1791V21.8674L95.0691 20.7199L96.0591 18.0649H98.2528V20.7424H101.774V23.3187H98.2528V29.3824C98.2528 29.8699 98.3878 30.2299 98.6578 30.4624C98.9353 30.6949 99.2991 30.8112 99.7491 30.8112Z" fill="#6F12F2"/>
<path d="M82.9178 27.0087C82.9178 28.2537 83.1203 29.1949 83.5253 29.8324C83.9378 30.4699 84.6053 30.7887 85.5278 30.7887C86.4428 30.7887 87.0991 30.4737 87.4966 29.8437C87.9016 29.2062 88.1041 28.2612 88.1041 27.0087C88.1041 25.7637 87.9016 24.8299 87.4966 24.2074C87.0916 23.5849 86.4278 23.2737 85.5053 23.2737C84.5903 23.2737 83.9303 23.5849 83.5253 24.2074C83.1203 24.8224 82.9178 25.7562 82.9178 27.0087ZM91.6141 27.0087C91.6141 29.0562 91.0741 30.6574 89.9941 31.8124C88.9141 32.9674 87.4103 33.5449 85.4828 33.5449C84.2753 33.5449 83.2103 33.2824 82.2878 32.7574C81.3653 32.2249 80.6566 31.4637 80.1616 30.4737C79.6666 29.4837 79.4191 28.3287 79.4191 27.0087C79.4191 24.9537 79.9553 23.3562 81.0278 22.2162C82.1003 21.0762 83.6078 20.5062 85.5503 20.5062C86.7578 20.5062 87.8228 20.7687 88.7453 21.2937C89.6678 21.8187 90.3766 22.5724 90.8716 23.5549C91.3666 24.5374 91.6141 25.6887 91.6141 27.0087Z" fill="#6F12F2"/>
<path d="M68.6528 27.0087C68.6528 28.2537 68.8553 29.1949 69.2603 29.8324C69.6728 30.4699 70.3403 30.7887 71.2628 30.7887C72.1778 30.7887 72.8341 30.4737 73.2316 29.8437C73.6366 29.2062 73.8391 28.2612 73.8391 27.0087C73.8391 25.7637 73.6366 24.8299 73.2316 24.2074C72.8266 23.5849 72.1628 23.2737 71.2403 23.2737C70.3253 23.2737 69.6653 23.5849 69.2603 24.2074C68.8553 24.8224 68.6528 25.7562 68.6528 27.0087ZM77.3491 27.0087C77.3491 29.0562 76.8091 30.6574 75.7291 31.8124C74.6491 32.9674 73.1453 33.5449 71.2178 33.5449C70.0103 33.5449 68.9453 33.2824 68.0228 32.7574C67.1003 32.2249 66.3916 31.4637 65.8966 30.4737C65.4016 29.4837 65.1541 28.3287 65.1541 27.0087C65.1541 24.9537 65.6903 23.3562 66.7628 22.2162C67.8353 21.0762 69.3428 20.5062 71.2853 20.5062C72.4928 20.5062 73.5578 20.7687 74.4803 21.2937C75.4028 21.8187 76.1116 22.5724 76.6066 23.5549C77.1016 24.5374 77.3491 25.6887 77.3491 27.0087Z" fill="#6F12F2"/>
<path d="M50.7091 16.8724H55.8278C58.1603 16.8724 59.8516 17.2062 60.9016 17.8737C61.9591 18.5337 62.4878 19.5874 62.4878 21.0349C62.4878 22.0174 62.2553 22.8237 61.7903 23.4537C61.3328 24.0837 60.7216 24.4624 59.9566 24.5899V24.7024C60.9991 24.9349 61.7491 25.3699 62.2066 26.0074C62.6716 26.6449 62.9041 27.4924 62.9041 28.5499C62.9041 30.0499 62.3603 31.2199 61.2728 32.0599C60.1928 32.8999 58.7228 33.3199 56.8628 33.3199H50.7091V16.8724ZM54.1966 23.3862H56.2216C57.1666 23.3862 57.8491 23.2399 58.2691 22.9474C58.6966 22.6549 58.9103 22.1712 58.9103 21.4962C58.9103 20.8662 58.6778 20.4162 58.2128 20.1462C57.7553 19.8687 57.0278 19.7299 56.0303 19.7299H54.1966V23.3862ZM54.1966 26.1537V30.4399H56.4691C57.4291 30.4399 58.1378 30.2562 58.5953 29.8887C59.0528 29.5212 59.2816 28.9587 59.2816 28.2012C59.2816 26.8362 58.3066 26.1537 56.3566 26.1537H54.1966Z" fill="#6F12F2"/>
<defs>
<filter id="filter0_d_1_643" x="-2.54698" y="3.98682" width="45.9412" height="50.0196" filterUnits="userSpaceOnUse" color-interpolation-filters="sRGB">
<feFlood flood-opacity="0" result="BackgroundImageFix"/>
<feColorMatrix in="SourceAlpha" type="matrix" values="0 0 0 0 0 0 0 0 0 0 0 0 0 0 0 0 0 0 127 0" result="hardAlpha"/>
<feOffset dy="4"/>
<feGaussianBlur stdDeviation="8"/>
<feColorMatrix type="matrix" values="0 0 0 0 0 0 0 0 0 0 0 0 0 0 0 0 0 0 0.15 0"/>
<feBlend mode="normal" in2="BackgroundImageFix" result="effect1_dropShadow_1_643"/>
<feBlend mode="normal" in="SourceGraphic" in2="effect1_dropShadow_1_643" result="shape"/>
</filter>
<linearGradient id="paint0_linear_1_643" x1="5.96698" y1="9.8469" x2="41.0573" y2="37.7016" gradientUnits="userSpaceOnUse">
<stop stop-color="#9013FE"/>
<stop offset="1" stop-color="#6610F2"/>
</linearGradient>
<linearGradient id="paint1_linear_1_643" x1="15.1771" y1="17.6071" x2="23.0207" y2="30.8723" gradientUnits="userSpaceOnUse">
<stop stop-color="white"/>
<stop offset="1" stop-color="#F1E5FC"/>
</linearGradient>
<clipPath id="clip0_1_643">
<rect width="40.1569" height="32" fill="white" transform="translate(0 9)"/>
</clipPath>
</defs>
</svg>
