<svg width="163" height="50" viewBox="0 0 163 50" fill="none" xmlns="http://www.w3.org/2000/svg">
<g clip-path="url(#clip0_2602_1601)">
<path d="M4.42988 13.182C4.35412 11.0063 6.04926 9 8.34055 9H31.8192C34.1105 9 35.8056 11.0063 35.7299 13.182C35.6571 15.2719 35.7516 17.9792 36.4329 20.1867C37.1165 22.4009 38.2691 23.8005 40.1569 23.9804V26.0196C38.2691 26.1995 37.1165 27.5991 36.4329 29.8133C35.7516 32.0208 35.6571 34.7281 35.7299 36.8181C35.8056 38.9937 34.1105 41 31.8192 41H8.34055C6.04926 41 4.35412 38.9937 4.42996 36.8181C4.50267 34.7281 4.40816 32.0208 3.72675 29.8133C3.04329 27.5991 1.88784 26.1995 0 26.0196V23.9804C1.88776 23.8005 3.04329 22.4009 3.72675 20.1867C4.40816 17.9792 4.50267 15.2719 4.42988 13.182Z" fill="url(#paint0_linear_2602_1601)"/>
<g filter="url(#filter0_d_2602_1601)">
<path d="M20.9494 33.5064C24.6589 33.5064 26.8943 31.6901 26.8943 28.6943C26.8943 26.4297 25.2993 24.7903 22.931 24.5307V24.4364C24.671 24.1533 26.0364 22.5375 26.0364 20.7329C26.0364 18.1617 24.0065 16.4868 20.9131 16.4868H13.9531V33.5064H20.9494ZM16.6598 18.6452H20.2607C22.2181 18.6452 23.3298 19.518 23.3298 21.0985C23.3298 22.7852 22.0369 23.7287 19.6927 23.7287H16.6598V18.6452ZM16.6598 31.3481V25.7456H20.2364C22.7981 25.7456 24.1272 26.6892 24.1272 28.5292C24.1272 30.3691 22.8344 31.3481 20.3935 31.3481H16.6598Z" fill="url(#paint1_linear_2602_1601)"/>
<path d="M20.9494 33.5064C24.6589 33.5064 26.8943 31.6901 26.8943 28.6943C26.8943 26.4297 25.2993 24.7903 22.931 24.5307V24.4364C24.671 24.1533 26.0364 22.5375 26.0364 20.7329C26.0364 18.1617 24.0065 16.4868 20.9131 16.4868H13.9531V33.5064H20.9494ZM16.6598 18.6452H20.2607C22.2181 18.6452 23.3298 19.518 23.3298 21.0985C23.3298 22.7852 22.0369 23.7287 19.6927 23.7287H16.6598V18.6452ZM16.6598 31.3481V25.7456H20.2364C22.7981 25.7456 24.1272 26.6892 24.1272 28.5292C24.1272 30.3691 22.8344 31.3481 20.3935 31.3481H16.6598Z" stroke="white"/>
</g>
</g>
<path d="M157.228 33.5451C155.75 33.5451 154.592 33.0088 153.752 31.9363H153.572C153.692 32.9863 153.752 33.5938 153.752 33.7588V38.8551H150.32V20.7426H153.11L153.594 22.3738H153.752C154.554 21.1288 155.743 20.5063 157.318 20.5063C158.803 20.5063 159.965 21.0801 160.805 22.2276C161.645 23.3751 162.065 24.9688 162.065 27.0088C162.065 28.3513 161.867 29.5176 161.469 30.5076C161.079 31.4976 160.52 32.2513 159.793 32.7688C159.065 33.2863 158.21 33.5451 157.228 33.5451ZM156.215 23.2513C155.368 23.2513 154.749 23.5138 154.359 24.0388C153.969 24.5563 153.767 25.4151 153.752 26.6151V26.9863C153.752 28.3363 153.95 29.3038 154.348 29.8888C154.753 30.4738 155.39 30.7663 156.26 30.7663C157.798 30.7663 158.567 29.4988 158.567 26.9638C158.567 25.7263 158.375 24.8001 157.993 24.1851C157.618 23.5626 157.025 23.2513 156.215 23.2513Z" fill="#6F12F2"/>
<path d="M144.379 33.3201L143.715 31.6101H143.625C143.047 32.3376 142.451 32.8439 141.836 33.1289C141.229 33.4064 140.434 33.5451 139.451 33.5451C138.244 33.5451 137.291 33.2001 136.594 32.5101C135.904 31.8201 135.559 30.8376 135.559 29.5626C135.559 28.2276 136.024 27.2451 136.954 26.6151C137.891 25.9776 139.301 25.6251 141.184 25.5576L143.366 25.4901V24.9389C143.366 23.6639 142.714 23.0264 141.409 23.0264C140.404 23.0264 139.222 23.3301 137.865 23.9376L136.729 21.6201C138.176 20.8626 139.781 20.4839 141.544 20.4839C143.231 20.4839 144.525 20.8514 145.425 21.5864C146.325 22.3214 146.775 23.4389 146.775 24.9389V33.3201H144.379ZM143.366 27.4926L142.039 27.5376C141.041 27.5676 140.299 27.7476 139.811 28.0776C139.324 28.4076 139.08 28.9101 139.08 29.5851C139.08 30.5526 139.635 31.0364 140.745 31.0364C141.54 31.0364 142.174 30.8076 142.646 30.3501C143.126 29.8926 143.366 29.2851 143.366 28.5276V27.4926Z" fill="#6F12F2"/>
<path d="M132.95 20.5063C133.415 20.5063 133.801 20.5401 134.108 20.6076L133.85 23.8251C133.572 23.7501 133.235 23.7126 132.837 23.7126C131.742 23.7126 130.887 23.9938 130.272 24.5563C129.665 25.1188 129.361 25.9063 129.361 26.9188V33.3201H125.93V20.7426H128.528L129.035 22.8576H129.203C129.593 22.1526 130.118 21.5863 130.778 21.1588C131.446 20.7238 132.17 20.5063 132.95 20.5063Z" fill="#6F12F2"/>
<path d="M121.215 30.8112C121.815 30.8112 122.535 30.6799 123.375 30.4174V32.9712C122.52 33.3537 121.47 33.5449 120.225 33.5449C118.852 33.5449 117.851 33.1999 117.221 32.5099C116.598 31.8124 116.287 30.7699 116.287 29.3824V23.3187H114.645V21.8674L116.535 20.7199L117.525 18.0649H119.718V20.7424H123.24V23.3187H119.718V29.3824C119.718 29.8699 119.853 30.2299 120.123 30.4624C120.401 30.6949 120.765 30.8112 121.215 30.8112Z" fill="#6F12F2"/>
<path d="M113.239 29.5851C113.239 30.8751 112.789 31.8576 111.889 32.5326C110.997 33.2076 109.658 33.5451 107.873 33.5451C106.958 33.5451 106.178 33.4813 105.533 33.3538C104.888 33.2338 104.284 33.0538 103.722 32.8138V29.9788C104.359 30.2788 105.075 30.5301 105.87 30.7326C106.673 30.9351 107.378 31.0363 107.985 31.0363C109.23 31.0363 109.853 30.6763 109.853 29.9563C109.853 29.6863 109.77 29.4688 109.605 29.3038C109.44 29.1313 109.155 28.9401 108.75 28.7301C108.345 28.5126 107.805 28.2613 107.13 27.9763C106.163 27.5713 105.45 27.1963 104.993 26.8513C104.543 26.5063 104.213 26.1126 104.003 25.6701C103.8 25.2201 103.699 24.6688 103.699 24.0163C103.699 22.8988 104.13 22.0363 104.993 21.4288C105.863 20.8138 107.093 20.5063 108.683 20.5063C110.198 20.5063 111.672 20.8363 113.104 21.4963L112.069 23.9713C111.439 23.7013 110.85 23.4801 110.303 23.3076C109.755 23.1351 109.197 23.0488 108.627 23.0488C107.614 23.0488 107.108 23.3226 107.108 23.8701C107.108 24.1776 107.269 24.4438 107.592 24.6688C107.922 24.8938 108.638 25.2276 109.74 25.6701C110.723 26.0676 111.443 26.4388 111.9 26.7838C112.358 27.1288 112.695 27.5263 112.913 27.9763C113.13 28.4263 113.239 28.9626 113.239 29.5851Z" fill="#6F12F2"/>
<path d="M99.7497 30.8112C100.35 30.8112 101.07 30.6799 101.91 30.4174V32.9712C101.055 33.3537 100.005 33.5449 98.7597 33.5449C97.3872 33.5449 96.3859 33.1999 95.7559 32.5099C95.1334 31.8124 94.8222 30.7699 94.8222 29.3824V23.3187H93.1797V21.8674L95.0697 20.7199L96.0597 18.0649H98.2534V20.7424H101.775V23.3187H98.2534V29.3824C98.2534 29.8699 98.3884 30.2299 98.6584 30.4624C98.9359 30.6949 99.2997 30.8112 99.7497 30.8112Z" fill="#6F12F2"/>
<path d="M82.9206 27.0088C82.9206 28.2538 83.1231 29.1951 83.5281 29.8326C83.9406 30.4701 84.6081 30.7888 85.5306 30.7888C86.4456 30.7888 87.1019 30.4738 87.4994 29.8438C87.9044 29.2063 88.1069 28.2613 88.1069 27.0088C88.1069 25.7638 87.9044 24.8301 87.4994 24.2076C87.0944 23.5851 86.4306 23.2738 85.5081 23.2738C84.5931 23.2738 83.9331 23.5851 83.5281 24.2076C83.1231 24.8226 82.9206 25.7563 82.9206 27.0088ZM91.6169 27.0088C91.6169 29.0563 91.0769 30.6576 89.9969 31.8126C88.9169 32.9676 87.4131 33.5451 85.4856 33.5451C84.2781 33.5451 83.2131 33.2826 82.2906 32.7576C81.3681 32.2251 80.6594 31.4638 80.1644 30.4738C79.6694 29.4838 79.4219 28.3288 79.4219 27.0088C79.4219 24.9538 79.9581 23.3563 81.0306 22.2163C82.1031 21.0763 83.6106 20.5063 85.5531 20.5063C86.7606 20.5063 87.8256 20.7688 88.7481 21.2938C89.6706 21.8188 90.3794 22.5726 90.8744 23.5551C91.3694 24.5376 91.6169 25.6888 91.6169 27.0088Z" fill="#6F12F2"/>
<path d="M68.655 27.0088C68.655 28.2538 68.8575 29.1951 69.2625 29.8326C69.675 30.4701 70.3425 30.7888 71.265 30.7888C72.18 30.7888 72.8362 30.4738 73.2337 29.8438C73.6388 29.2063 73.8412 28.2613 73.8412 27.0088C73.8412 25.7638 73.6388 24.8301 73.2337 24.2076C72.8287 23.5851 72.165 23.2738 71.2425 23.2738C70.3275 23.2738 69.6675 23.5851 69.2625 24.2076C68.8575 24.8226 68.655 25.7563 68.655 27.0088ZM77.3512 27.0088C77.3512 29.0563 76.8112 30.6576 75.7312 31.8126C74.6512 32.9676 73.1475 33.5451 71.22 33.5451C70.0125 33.5451 68.9475 33.2826 68.025 32.7576C67.1025 32.2251 66.3937 31.4638 65.8988 30.4738C65.4037 29.4838 65.1562 28.3288 65.1562 27.0088C65.1562 24.9538 65.6925 23.3563 66.765 22.2163C67.8375 21.0763 69.345 20.5063 71.2875 20.5063C72.495 20.5063 73.56 20.7688 74.4825 21.2938C75.405 21.8188 76.1137 22.5726 76.6087 23.5551C77.1037 24.5376 77.3512 25.6888 77.3512 27.0088Z" fill="#6F12F2"/>
<path d="M50.7109 16.8726H55.8297C58.1622 16.8726 59.8534 17.2063 60.9034 17.8738C61.9609 18.5338 62.4897 19.5876 62.4897 21.0351C62.4897 22.0176 62.2572 22.8238 61.7922 23.4538C61.3347 24.0838 60.7234 24.4626 59.9584 24.5901V24.7026C61.0009 24.9351 61.7509 25.3701 62.2084 26.0076C62.6734 26.6451 62.9059 27.4926 62.9059 28.5501C62.9059 30.0501 62.3622 31.2201 61.2747 32.0601C60.1947 32.9001 58.7247 33.3201 56.8647 33.3201H50.7109V16.8726ZM54.1984 23.3863H56.2234C57.1684 23.3863 57.8509 23.2401 58.2709 22.9476C58.6984 22.6551 58.9122 22.1713 58.9122 21.4963C58.9122 20.8663 58.6797 20.4163 58.2147 20.1463C57.7572 19.8688 57.0297 19.7301 56.0322 19.7301H54.1984V23.3863ZM54.1984 26.1538V30.4401H56.4709C57.4309 30.4401 58.1397 30.2563 58.5972 29.8888C59.0547 29.5213 59.2834 28.9588 59.2834 28.2013C59.2834 26.8363 58.3084 26.1538 56.3584 26.1538H54.1984Z" fill="#6F12F2"/>
<defs>
<filter id="filter0_d_2602_1601" x="-2.54688" y="3.98682" width="45.9414" height="50.0195" filterUnits="userSpaceOnUse" color-interpolation-filters="sRGB">
<feFlood flood-opacity="0" result="BackgroundImageFix"/>
<feColorMatrix in="SourceAlpha" type="matrix" values="0 0 0 0 0 0 0 0 0 0 0 0 0 0 0 0 0 0 127 0" result="hardAlpha"/>
<feOffset dy="4"/>
<feGaussianBlur stdDeviation="8"/>
<feColorMatrix type="matrix" values="0 0 0 0 0 0 0 0 0 0 0 0 0 0 0 0 0 0 0.15 0"/>
<feBlend mode="normal" in2="BackgroundImageFix" result="effect1_dropShadow_2602_1601"/>
<feBlend mode="normal" in="SourceGraphic" in2="effect1_dropShadow_2602_1601" result="shape"/>
</filter>
<linearGradient id="paint0_linear_2602_1601" x1="5.96698" y1="9.8469" x2="41.0573" y2="37.7016" gradientUnits="userSpaceOnUse">
<stop stop-color="#9013FE"/>
<stop offset="1" stop-color="#6610F2"/>
</linearGradient>
<linearGradient id="paint1_linear_2602_1601" x1="15.1772" y1="17.6071" x2="23.0208" y2="30.8723" gradientUnits="userSpaceOnUse">
<stop stop-color="white"/>
<stop offset="1" stop-color="#F1E5FC"/>
</linearGradient>
<clipPath id="clip0_2602_1601">
<rect width="40.1569" height="32" fill="white" transform="translate(0 9)"/>
</clipPath>
</defs>
</svg>
