<svg width="64" height="64" viewBox="0 0 64 64" fill="none" xmlns="http://www.w3.org/2000/svg">
<path d="M0 8C0 3.58172 3.58172 0 8 0H56C60.4183 0 64 3.58172 64 8V56C64 60.4183 60.4183 64 56 64H8C3.58172 64 0 60.4183 0 56V8Z" fill="#EBF4FE"/>
<path fill-rule="evenodd" clip-rule="evenodd" d="M38.0398 16.0413C38.2745 15.9868 38.5184 15.9862 38.7532 16.0397C38.9881 16.0933 39.2079 16.1995 39.3963 16.3504C39.5847 16.5013 39.7368 16.6931 39.8413 16.9114C39.9458 17.1298 40 17.369 39.9999 17.6114V48H31.9999V43.169C31.9999 42.7419 31.8313 42.3323 31.5313 42.0303C31.2312 41.7283 30.8243 41.5586 30.3999 41.5586H27.1999C26.7756 41.5586 26.3686 41.7283 26.0686 42.0303C25.7685 42.3323 25.5999 42.7419 25.5999 43.169V48H16.8C16.5878 48 16.3843 47.9151 16.2343 47.7641C16.0843 47.6131 16 47.4083 16 47.1948C16 46.9813 16.0843 46.7764 16.2343 46.6254C16.3843 46.4744 16.5879 46.3896 16.8 46.3896H17.6V22.0688C17.6005 21.705 17.7233 21.3522 17.9485 21.0677C18.1736 20.7832 18.4878 20.5838 18.84 20.5019L38.0398 16.0413ZM23.2 35.1173C22.9878 35.1173 22.7843 35.2021 22.6343 35.3531C22.4843 35.5041 22.3999 35.709 22.3999 35.9225V37.5328C22.3999 37.7464 22.4843 37.9511 22.6343 38.1021C22.7843 38.2531 22.9878 38.338 23.2 38.338H24.7999C25.0121 38.338 25.2156 38.2531 25.3656 38.1021C25.5157 37.9511 25.5999 37.7463 25.5999 37.5328V35.9225C25.5999 35.709 25.5157 35.5041 25.3656 35.3531C25.2156 35.2021 25.0121 35.1173 24.7999 35.1173H23.2ZM27.9999 35.1173C27.7878 35.1173 27.5843 35.2021 27.4343 35.3531C27.2843 35.5041 27.1999 35.709 27.1999 35.9225V37.5328C27.1999 37.7464 27.2843 37.9511 27.4343 38.1021C27.5843 38.2531 27.7878 38.338 27.9999 38.338H29.5999C29.8121 38.338 30.0156 38.2531 30.1656 38.1021C30.3156 37.9511 30.3999 37.7463 30.3999 37.5328V35.9225C30.3999 35.709 30.3157 35.5041 30.1656 35.3531C30.0156 35.2021 29.8121 35.1173 29.5999 35.1173H27.9999ZM32.7999 35.1173C32.5877 35.1173 32.3843 35.2021 32.2343 35.3531C32.0842 35.5041 31.9999 35.709 31.9999 35.9225V37.5328C31.9999 37.7464 32.0842 37.9511 32.2343 38.1021C32.3843 38.2531 32.5877 38.338 32.7999 38.338H34.3999C34.612 38.338 34.8156 38.2531 34.9656 38.1021C35.1156 37.9511 35.1999 37.7463 35.1999 37.5328V35.9225C35.1999 35.709 35.1156 35.5041 34.9656 35.3531C34.8156 35.2021 34.612 35.1173 34.3999 35.1173H32.7999ZM23.2 30.2863C22.9878 30.2863 22.7843 30.3711 22.6343 30.5221C22.4843 30.6731 22.3999 30.878 22.3999 31.0915V32.7018C22.3999 32.9154 22.4843 33.1201 22.6343 33.2711C22.7843 33.4221 22.9878 33.507 23.2 33.507H24.7999C25.0121 33.507 25.2156 33.4221 25.3656 33.2711C25.5157 33.1201 25.5999 32.9153 25.5999 32.7018V31.0915C25.5999 30.878 25.5157 30.6731 25.3656 30.5221C25.2156 30.3711 25.0121 30.2863 24.7999 30.2863H23.2ZM27.9999 30.2863C27.7878 30.2863 27.5843 30.3711 27.4343 30.5221C27.2843 30.6731 27.1999 30.878 27.1999 31.0915V32.7018C27.1999 32.9154 27.2843 33.1201 27.4343 33.2711C27.5843 33.4221 27.7878 33.507 27.9999 33.507H29.5999C29.8121 33.507 30.0156 33.4221 30.1656 33.2711C30.3156 33.1201 30.3999 32.9153 30.3999 32.7018V31.0915C30.3999 30.878 30.3156 30.6731 30.1656 30.5221C30.0156 30.3711 29.8121 30.2863 29.5999 30.2863H27.9999ZM32.7999 30.2863C32.5877 30.2863 32.3843 30.3711 32.2343 30.5221C32.0842 30.6731 31.9999 30.878 31.9999 31.0915V32.7018C31.9999 32.9154 32.0842 33.1201 32.2343 33.2711C32.3843 33.4221 32.5877 33.507 32.7999 33.507H34.3999C34.612 33.507 34.8156 33.4221 34.9656 33.2711C35.1156 33.1201 35.1999 32.9153 35.1999 32.7018V31.0915C35.1999 30.878 35.1156 30.6731 34.9656 30.5221C34.8156 30.3711 34.612 30.2863 34.3999 30.2863H32.7999ZM23.2 25.4553C22.9878 25.4553 22.7843 25.5401 22.6343 25.6911C22.4843 25.8421 22.3999 26.047 22.3999 26.2605V27.8708C22.3999 28.0844 22.4843 28.2891 22.6343 28.4401C22.7843 28.5911 22.9878 28.676 23.2 28.676H24.7999C25.0121 28.676 25.2156 28.5911 25.3656 28.4401C25.5157 28.2891 25.5999 28.0843 25.5999 27.8708V26.2605C25.5999 26.047 25.5157 25.8421 25.3656 25.6911C25.2156 25.5401 25.0121 25.4553 24.7999 25.4553H23.2ZM27.9999 25.4553C27.7878 25.4553 27.5843 25.5401 27.4343 25.6911C27.2843 25.8421 27.1999 26.047 27.1999 26.2605V27.8708C27.1999 28.0844 27.2843 28.2891 27.4343 28.4401C27.5843 28.5911 27.7878 28.676 27.9999 28.676H29.5999C29.8121 28.676 30.0156 28.5911 30.1656 28.4401C30.3156 28.2891 30.3999 28.0843 30.3999 27.8708V26.2605C30.3999 26.047 30.3156 25.8421 30.1656 25.6911C30.0156 25.5401 29.8121 25.4553 29.5999 25.4553H27.9999ZM32.7999 25.4553C32.5877 25.4553 32.3843 25.5401 32.2343 25.6911C32.0842 25.8421 31.9999 26.047 31.9999 26.2605V27.8708C31.9999 28.0844 32.0842 28.2891 32.2343 28.4401C32.3843 28.5911 32.5877 28.676 32.7999 28.676H34.3999C34.612 28.676 34.8156 28.5911 34.9656 28.4401C35.1156 28.2891 35.1999 28.0843 35.1999 27.8708V26.2605C35.1999 26.047 35.1156 25.8421 34.9656 25.6911C34.8156 25.5401 34.612 25.4553 34.3999 25.4553H32.7999Z" fill="#3E96F4"/>
<path d="M30.4001 48H27.2001V43.169H30.4001V48Z" fill="#3E96F4"/>
<path d="M45.5153 23.7081C45.781 23.8418 46.0045 24.0472 46.1608 24.3015C46.317 24.5557 46.3999 24.8487 46.4 25.1477V46.3896H47.2001C47.4122 46.3896 47.6157 46.4745 47.7657 46.6254C47.9157 46.7764 48 46.9813 48 47.1948C48 47.4083 47.9157 47.6131 47.7657 47.7641C47.6157 47.9151 47.4122 48 47.2001 48H41.6001V21.737L45.5153 23.7081Z" fill="#3E96F4"/>
</svg>
