<svg width="92" height="92" viewBox="0 0 92 92" fill="none" xmlns="http://www.w3.org/2000/svg">
<g filter="url(#filter0_d_0_323)">
<rect x="6" y="6" width="80" height="80" rx="40" fill="url(#paint0_linear_0_323)"/>
<rect x="7" y="7" width="78" height="78" rx="39" stroke="white" stroke-width="2"/>
</g>
<path d="M31.4573 42.3494H29.0605C27.8116 42.3494 26.7992 43.3618 26.7992 44.6107V63.7387C26.7992 64.9875 27.8116 66 29.0605 66H58.1166C59.3654 66 60.3779 64.9875 60.3779 63.7387V40.0881C60.3779 38.8392 59.3654 37.8268 58.1166 37.8268H47.8814C46.6325 37.8268 45.6201 38.8392 45.6201 40.0881C45.6201 41.337 44.6077 42.3494 43.3587 42.3494H33.9064" stroke="#3E96F4" stroke-width="1.5" stroke-miterlimit="10" stroke-linecap="round" stroke-linejoin="round"/>
<path d="M62.5801 37.827H62.9613C64.2095 37.827 65.2225 38.8392 65.2225 40.0882V63.7388C65.2225 64.9878 64.2095 66 62.9613 66H58.1148" stroke="#3E96F4" stroke-width="1.5" stroke-miterlimit="10" stroke-linecap="round" stroke-linejoin="round"/>
<path d="M54.7029 37.8269V32.0718H30.2148V42.3494" stroke="#3E96F4" stroke-width="1.5" stroke-miterlimit="10" stroke-linecap="round" stroke-linejoin="round"/>
<path d="M58.6443 37.8889V26H34.1555V32.0718" stroke="#3E96F4" stroke-width="1.5" stroke-miterlimit="10" stroke-linecap="round" stroke-linejoin="round"/>
<path d="M62.5845 47.1326V63.3647H60.3804" stroke="#3E96F4" stroke-width="1.5" stroke-miterlimit="10" stroke-linecap="round" stroke-linejoin="round"/>
<path d="M58.6398 32.0718H62.5794V44.6836" stroke="#3E96F4" stroke-width="1.5" stroke-miterlimit="10" stroke-linecap="round" stroke-linejoin="round"/>
<path d="M34.0523 35.2556H48.7454" stroke="#3E96F4" stroke-width="1.5" stroke-miterlimit="10" stroke-linecap="round" stroke-linejoin="round"/>
<path d="M34.0523 38.3164H42.4573" stroke="#3E96F4" stroke-width="1.5" stroke-miterlimit="10" stroke-linecap="round" stroke-linejoin="round"/>
<path d="M57.4363 50.1936H44.7023V45.6632H57.4363V50.1936Z" stroke="#3E96F4" stroke-width="1.5" stroke-miterlimit="10" stroke-linecap="round" stroke-linejoin="round"/>
<defs>
<filter id="filter0_d_0_323" x="0" y="0" width="92" height="92" filterUnits="userSpaceOnUse" color-interpolation-filters="sRGB">
<feFlood flood-opacity="0" result="BackgroundImageFix"/>
<feColorMatrix in="SourceAlpha" type="matrix" values="0 0 0 0 0 0 0 0 0 0 0 0 0 0 0 0 0 0 127 0" result="hardAlpha"/>
<feOffset/>
<feGaussianBlur stdDeviation="3"/>
<feComposite in2="hardAlpha" operator="out"/>
<feColorMatrix type="matrix" values="0 0 0 0 0.243137 0 0 0 0 0.588235 0 0 0 0 0.956863 0 0 0 0.25 0"/>
<feBlend mode="normal" in2="BackgroundImageFix" result="effect1_dropShadow_0_323"/>
<feBlend mode="normal" in="SourceGraphic" in2="effect1_dropShadow_0_323" result="shape"/>
</filter>
<linearGradient id="paint0_linear_0_323" x1="87.5912" y1="86.1293" x2="27.665" y2="15.2677" gradientUnits="userSpaceOnUse">
<stop stop-color="#D6EAFF"/>
<stop offset="1" stop-color="white"/>
</linearGradient>
</defs>
</svg>
