<svg width="24" height="24" viewBox="0 0 24 24" fill="none" xmlns="http://www.w3.org/2000/svg">
<path fill-rule="evenodd" clip-rule="evenodd" d="M22 0C23.1046 0 24 0.895431 24 2V22C24 23.1046 23.1046 24 22 24H2C0.895431 24 3.22133e-08 23.1046 0 22V2C0 0.895431 0.895431 3.22128e-08 2 0H22ZM11.499 3C10.6706 3 9.99902 3.67157 9.99902 4.5C9.99902 5.32843 10.6706 6 11.499 6H15.7764L8.88867 12.8867C8.30289 13.4725 8.30289 14.423 8.88867 15.0088C9.47447 15.5945 10.425 15.5945 11.0107 15.0088L17.999 8.01953V12.5C17.999 13.3284 18.6706 14 19.499 14C20.3273 13.9999 20.999 13.3283 20.999 12.5V4.5C20.999 3.72342 20.4086 3.08473 19.6523 3.00781L19.499 3H11.499Z" fill="#3E96F4"/>
</svg>
