<svg width="53" height="64" viewBox="0 0 53 64" fill="none" xmlns="http://www.w3.org/2000/svg">
<path fill-rule="evenodd" clip-rule="evenodd" d="M11.6 26.3C11.6 18.2 18.2 11.6 26.3 11.6C29.2 11.6 32 12.4 34.4 14L35.6 12.2C33.2 10.6 30.3 9.6 27.4 9.4V2.1C32.4 2.3 37.2 4 41.2 7.1L42.5 5.4C37.8 1.9 32.2 0 26.3 0C19.3 0 12.7 2.7 7.7 7.7C2.7 12.7 0 19.3 0 26.3C0 26.9 0.5 27.4 1.1 27.4H10.6C11.1 27.3 11.6 26.9 11.6 26.3ZM25.2 2.2V9.6C21.4 9.8 17.9 11.4 15.1 13.8L10 8.5C14.2 4.6 19.5 2.4 25.2 2.2ZM9.5 25.2H2.1C2.4 19.5 4.6 14.2 8.5 10L13.7 15.2C11.2 18 9.7 21.5 9.5 25.2ZM13.7002 26.3H15.8002C15.8002 25.7 15.9002 25 16.0002 24.4L13.9002 24C13.7002 24.7 13.7002 25.5 13.7002 26.3ZM45.4996 8.50002C46.0996 9.10002 46.5996 9.60002 46.9996 10.2C50.5996 14.8 52.4996 20.4 52.6996 26.3C52.6996 26.9 52.1996 27.4 51.5996 27.4H42.0996C41.4996 27.4 40.9996 26.9 40.9996 26.3C40.9996 23.4 40.1996 20.6 38.5996 18.2L37.3996 16.7L29.8996 24.2C30.2996 24.8 30.4996 25.5 30.4996 26.3C30.4996 28.6 28.5996 30.5 26.2996 30.5C23.9996 30.5 22.0996 28.6 22.0996 26.3C22.0996 24 23.9996 22.1 26.2996 22.1C27.0996 22.1 27.7996 22.3 28.3996 22.7L48.5996 2.40002L50.0996 3.90002L45.4996 8.50002ZM24.1996 26.3C24.1996 27.5 25.0996 28.4 26.2996 28.4C27.3996 28.4 28.3996 27.4 28.3996 26.3C28.3996 25.1 27.4996 24.2 26.2996 24.2C25.0996 24.2 24.1996 25.1 24.1996 26.3ZM40.2996 17C41.9996 19.4 42.8996 22.3 43.0996 25.2V25.3H50.4996C50.2996 20.2 48.4996 15.5 45.3996 11.5C44.9996 11 44.5996 10.5 44.0996 10L38.8996 15.2C39.0496 15.4 39.1996 15.575 39.3496 15.75C39.4996 15.925 39.6496 16.1 39.7996 16.3C39.8996 16.4 39.9746 16.525 40.0496 16.65L40.0496 16.6501C40.1246 16.7751 40.1996 16.9 40.2996 17ZM26.2996 15.8C27.2996 15.8 28.1996 15.9 29.1996 16.2L29.7996 14.2C28.6996 13.9 27.4996 13.7 26.3996 13.7C21.1996 13.7 16.4996 16.9 14.5996 21.7L16.5996 22.5C18.0996 18.4 21.8996 15.8 26.2996 15.8ZM34.7002 42.4C34.7002 45.4 33.2002 48 30.9002 49.6C33.0002 50.4 35.0002 51.6 36.7002 53.2C39.5002 56 41.1002 59.8 41.1002 63.9H38.7002C38.7002 56.8 33.0002 51.1 25.9002 51.1C18.9002 51.1 13.1002 56.8 13.1002 63.9H10.7002C10.7002 59.9 12.2002 56.1 15.1002 53.2C16.8002 51.6 18.8002 50.3 20.9002 49.6C18.6002 48.1 17.1002 45.4 17.1002 42.4C17.1002 37.5 21.1002 33.6 25.9002 33.6C30.8002 33.6 34.7002 37.6 34.7002 42.4ZM19.5002 42.4C19.5002 45.9 22.4002 48.8 25.9002 48.8C29.5002 48.8 32.3002 45.9 32.3002 42.4C32.3002 38.9 29.4002 36 25.9002 36C22.4002 36 19.5002 38.9 19.5002 42.4Z" fill="url(#paint0_linear_1_223)"/>
<defs>
<linearGradient id="paint0_linear_1_223" x1="-0.999999" y1="2" x2="53" y2="61.5" gradientUnits="userSpaceOnUse">
<stop offset="0.120716" stop-color="#FE5B52"/>
<stop offset="0.899051" stop-color="#3D96F5"/>
</linearGradient>
</defs>
</svg>
