<svg width="16" height="16" viewBox="0 0 16 16" fill="none" xmlns="http://www.w3.org/2000/svg">
<path d="M12.4443 0C14.4079 0.000123949 16 1.59211 16 3.55566V12.4443C15.9999 14.4078 14.4078 15.9999 12.4443 16H3.55566C1.59211 16 0.000123949 14.4079 0 12.4443V3.55566C0 1.59204 1.59204 0 3.55566 0H12.4443ZM1.77832 6.22168V12.4443C1.77832 13.3815 2.50302 14.1499 3.42285 14.2178L3.55566 14.2227H12.4443C13.3815 14.2226 14.1489 13.497 14.2168 12.5771L14.2217 12.4443V6.22168H1.77832ZM5.5 12.4004H3.5V10.4004H5.5V12.4004ZM9.10059 12.4004H7.10059V10.4004H9.10059V12.4004ZM12.7002 12.4004H10.7002V10.4004H12.7002V12.4004ZM5.5 9.40039H3.5V7.40039H5.5V9.40039ZM9.10059 9.40039H7.10059V7.40039H9.10059V9.40039ZM12.7002 9.40039H10.7002V7.40039H12.7002V9.40039ZM3.55566 1.77832C2.61848 1.77832 1.85009 2.50398 1.78223 3.42383L1.77832 3.55566V4.44434H14.2217V3.55566C14.2214 2.61877 13.4967 1.85118 12.5771 1.7832L12.4443 1.77832H3.55566Z" fill="#A6A6AB"/>
</svg>
