<svg width="18" height="24" viewBox="0 0 18 24" fill="none" xmlns="http://www.w3.org/2000/svg">
<path d="M5.87166 16.1286C4.25871 14.5126 3.01829 12.5636 2.23716 10.4181C1.80741 9.24513 2.20116 7.95663 3.08466 7.07313L3.63141 6.52713C3.7784 6.37985 3.95299 6.26299 4.1452 6.18327C4.3374 6.10354 4.54345 6.0625 4.75153 6.0625C4.95962 6.0625 5.16566 6.10354 5.35787 6.18327C5.55007 6.26299 5.72467 6.37985 5.87166 6.52713L7.15191 7.80738C7.29919 7.95437 7.41605 8.12897 7.49577 8.32117C7.5755 8.51338 7.61654 8.71942 7.61654 8.92751C7.61654 9.13559 7.5755 9.34164 7.49577 9.53384C7.41605 9.72605 7.29919 9.90064 7.15191 10.0476L6.83691 10.3626C6.71082 10.4887 6.6108 10.6384 6.54256 10.8031C6.47432 10.9678 6.4392 11.1443 6.4392 11.3226C6.4392 11.5009 6.47432 11.6775 6.54256 11.8422C6.6108 12.0069 6.71082 12.1566 6.83691 12.2826L9.71691 15.1634C9.84297 15.2895 9.99263 15.3895 10.1573 15.4577C10.3221 15.526 10.4986 15.5611 10.6769 15.5611C10.8552 15.5611 11.0317 15.526 11.1965 15.4577C11.3612 15.3895 11.5108 15.2895 11.6369 15.1634L11.9527 14.8484C12.0996 14.7011 12.2742 14.5842 12.4664 14.5045C12.6587 14.4248 12.8647 14.3838 13.0728 14.3838C13.2809 14.3838 13.4869 14.4248 13.6791 14.5045C13.8713 14.5842 14.0459 14.7011 14.1929 14.8484L15.4732 16.1286C15.6204 16.2756 15.7373 16.4502 15.817 16.6424C15.8968 16.8346 15.9378 17.0407 15.9378 17.2488C15.9378 17.4568 15.8968 17.6629 15.817 17.8551C15.7373 18.0473 15.6204 18.2219 15.4732 18.3689L14.9272 18.9149C14.0437 19.7991 12.7552 20.1929 11.5822 19.7631C9.43667 18.982 7.48773 17.7416 5.87166 16.1286Z" stroke="white" stroke-linejoin="round"/>
</svg>
