<svg width="94" height="83" viewBox="0 0 94 83" fill="none" xmlns="http://www.w3.org/2000/svg">
<g id="Frame 4">
<path id="Union" fill-rule="evenodd" clip-rule="evenodd" d="M76 36.45C75.975 36.5 75.95 36.55 75.9 36.6C75.8 36.7 75.7 36.8 75.6 36.8C75.5 36.9 75.4 36.9 75.3 36.9H70.1L73.2 41.4C73.8 42.2 74.1 43.1 74.1 44.1V55.3C74.1 56.7 73.4 58.1 72.2 59V59.1V62C72.2 62.9 71.5 63.7 70.5 63.7H64.7C63.8 63.7 63 63 63 62V59.9H30V62C30 62.9 29.3 63.7 28.3 63.7H22.5C21.6 63.7 20.8 63 20.8 62V59.1V59H20.7C19.5 58.1 18.8 56.8 18.8 55.3V44.1C18.8 43.1 19.1 42.2 19.7 41.4L22.9 36.9H17.7C17.5 36.9 17.3 36.8 17.2 36.5C17.1 36.4 17 36.2 17 36V32.2C17 32 17.1 31.8 17.2 31.7C17.3 31.6 17.5 31.5 17.7 31.5H22.5C22.6464 31.5 22.7392 31.5536 22.8569 31.6215C22.9 31.6464 22.9464 31.6732 23 31.7C23.2 31.8 23.3 31.9 23.3 32.1L24 35L28.5 22.1C29.2 20.2 30.9 19 32.9 19H60.1C62.1 19 63.9 20.3 64.5 22.1L69 34.8L69.7 31.9C69.75 31.85 69.8 31.775 69.85 31.7C69.9 31.625 69.95 31.55 70 31.5C70.0536 31.4732 70.1 31.4464 70.1431 31.4215C70.2608 31.3536 70.3536 31.3 70.5 31.3H75.3C75.35 31.3 75.4 31.325 75.45 31.35C75.5 31.375 75.55 31.4 75.6 31.4C75.65 31.45 75.7 31.475 75.75 31.5C75.8 31.525 75.85 31.55 75.9 31.6C76 31.7 76.1 31.8 76.1 31.9C76.2 32 76.2 32.1 76.2 32.2V36C76.2 36.05 76.175 36.1 76.15 36.15C76.125 36.2 76.1 36.25 76.1 36.3C76.05 36.35 76.025 36.4 76 36.45ZM18.5 33V35.3H22.5L21.9 33H18.5ZM28.3 62.2L28.4 62.1V59.9H22.3V62L22.4 62.1C22.4 62.2 22.5 62.2 22.5 62.2H28.3ZM70.6 62.1C70.7 62.1 70.7 62 70.7 62H70.6V59.9H64.5V62L64.6 62.1C64.6 62.2 64.7 62.2 64.7 62.2H70.5L70.6 62.1ZM69.6 58.4C70.9 58.4 72.1 57.6 72.5 56.3V56.1H20.5L20.6 56.3C21 57.5 22.2 58.4 23.5 58.4H69.6ZM54.4 50.7V48.4H38.6V50.7H54.4ZM38.8 46.7L38.7 46.9H54.3L54.2 46.7C53.8 45.5 52.6 44.6 51.3 44.6H41.7C40.4 44.6 39.2 45.4 38.8 46.7ZM54.4 54.6V52.3H38.6V54.6H54.4ZM72.6 44.1C72.6 43.4 72.4 42.8 72 42.3L68.2 36.9V36.8H61.9C61.85 36.8 61.8 36.775 61.75 36.75C61.7 36.725 61.65 36.7 61.6 36.7C61.55 36.65 61.5 36.625 61.45 36.6C61.4 36.575 61.35 36.55 61.3 36.5C61.2 36.4 61.1 36.3 61.1 36.2C61 36.1 61 36 61 35.9C61 35.8 61 35.7 61.1 35.6C61.15 35.55 61.175 35.5 61.2 35.45C61.225 35.4 61.25 35.35 61.3 35.3C61.4 35.2 61.5 35.1 61.6 35.1C61.7 35 61.8 35 61.9 35H67.5L63 22.3C62.6 21.1 61.4 20.3 60.1 20.3H32.9C31.6 20.3 30.4 21.1 30 22.3L25.6 34.9L25.5 35.1H58C58.05 35.1 58.1 35.125 58.15 35.15C58.2 35.175 58.25 35.2 58.3 35.2C58.35 35.25 58.4 35.275 58.45 35.3C58.5 35.325 58.55 35.35 58.6 35.4L58.6 35.4C58.7 35.5 58.8 35.6 58.8 35.7C58.9 35.8 58.9 35.9 58.9 36C58.9 36.05 58.875 36.1 58.85 36.15C58.825 36.2 58.8 36.25 58.8 36.3C58.75 36.35 58.725 36.4 58.7 36.45C58.675 36.5 58.65 36.55 58.6 36.6C58.5 36.7 58.4 36.8 58.3 36.8C58.2 36.9 58.1 36.9 58 36.9H24.8L21 42.3C20.6 42.8 20.4 43.5 20.4 44.1V54.6H37.1V47.7C37.1 45.2 39.2 43.1 41.7 43.1H51.3C53.8 43.1 55.9 45.2 55.9 47.7V54.6H72.6V44.1ZM70.5 35.3H74.5V33H71.1L70.5 35.3ZM64.9 33.8999C64.7 33.9999 64.6 33.9999 64.5 33.9999H28.5C28.3 33.9999 28 33.8999 27.9 33.6999C27.8 33.4999 27.7 33.1999 27.8 32.9999L31.3 22.9999C31.4 22.6999 31.6 22.3999 31.9 22.1999C32.2 21.9999 32.5 21.8999 32.9 21.8999H60.1C60.5 21.8999 60.8 21.9999 61.2 22.2999C61.5 22.4999 61.7 22.7999 61.8 23.0999L65.3 32.9999V33.3999C65.3 33.4999 65.3 33.5999 65.2 33.6999C65.15 33.7499 65.1 33.7749 65.05 33.7999C65 33.8249 64.95 33.8499 64.9 33.8999ZM32.7 23.5999L29.6 32.2999V32.4999H63.4L60.3 23.5999C60.3 23.5999 60.2 23.4999 60.1 23.4999H32.9H32.8C32.7 23.4999 32.7 23.5999 32.7 23.5999ZM66.7001 42.1001H60.9001C60.5001 42.1001 60.1001 42.4001 60.1001 42.9001C60.1001 43.3001 60.4001 43.7001 60.9001 43.7001H66.7001C67.1001 43.7001 67.5001 43.4001 67.5001 42.9001C67.4001 42.4001 67.1001 42.1001 66.7001 42.1001ZM32.1001 43.6002H26.3001C26.1001 43.6002 25.9001 43.5002 25.8001 43.4002C25.7001 43.3002 25.6001 43.1002 25.6001 42.9002C25.6001 42.7002 25.7001 42.5002 25.8001 42.4002C25.9001 42.3002 26.1001 42.2002 26.3001 42.2002H32.1001C32.3001 42.2002 32.5001 42.3002 32.6001 42.4002C32.7001 42.5002 32.8001 42.7002 32.8001 42.9002C32.8001 43.1002 32.7001 43.3002 32.6001 43.4002C32.5001 43.5002 32.3001 43.6002 32.1001 43.6002ZM34.8001 48.5999C34.8001 50.6999 32.3001 52.2999 29.2001 52.2999C26.1001 52.2999 23.6001 50.6999 23.6001 48.5999C23.6001 46.4999 26.1001 44.8999 29.2001 44.8999C32.3001 44.8999 34.8001 46.4999 34.8001 48.5999ZM33.2001 48.5999C33.2001 47.5999 31.6001 46.4999 29.2001 46.4999C26.8001 46.4999 25.2001 47.5999 25.2001 48.5999C25.2001 49.5999 26.9001 50.6999 29.2001 50.6999C31.5001 50.6999 33.2001 49.5999 33.2001 48.5999ZM63.7999 44.8999C60.7 44.8999 58.2 46.4999 58.2 48.5999C58.2 50.6999 60.5999 52.2999 63.7999 52.2999C67 52.2999 69.3999 50.6999 69.3999 48.5999C69.3999 46.4999 66.8999 44.8999 63.7999 44.8999ZM63.7999 50.6999C61.3999 50.6999 59.7999 49.5999 59.7999 48.5999C59.7999 47.5999 61.5 46.4999 63.7999 46.4999C66.0999 46.4999 67.7999 47.5999 67.7999 48.5999C67.7999 49.5999 66.2 50.6999 63.7999 50.6999Z" fill="url(#paint0_linear_1_1434)"/>
</g>
<defs>
<linearGradient id="paint0_linear_1_1434" x1="17" y1="19" x2="62.3822" y2="69.2575" gradientUnits="userSpaceOnUse">
<stop stop-color="#FE5B52"/>
<stop offset="1" stop-color="#3D96F5"/>
</linearGradient>
</defs>
</svg>
