<svg width="20" height="20" viewBox="0 0 20 20" fill="none" xmlns="http://www.w3.org/2000/svg">
<path d="M19.7688 10.4498C19.6994 10.4154 19.6217 10.401 19.5445 10.4082C19.4673 10.4155 19.3936 10.4441 19.3318 10.4909C19.0356 10.7151 18.6905 10.8335 18.3332 10.8335H11.6667V12.0835C11.6667 12.1382 11.6559 12.1924 11.635 12.243C11.6141 12.2936 11.5834 12.3395 11.5447 12.3782C11.506 12.4169 11.46 12.4476 11.4095 12.4686C11.3589 12.4895 11.3047 12.5002 11.25 12.5002H8.74998C8.69525 12.5002 8.64106 12.4895 8.59049 12.4686C8.53992 12.4476 8.49397 12.4169 8.45527 12.3782C8.41657 12.3395 8.38588 12.2936 8.36495 12.243C8.34402 12.1924 8.33327 12.1382 8.3333 12.0835V10.8335H1.66668C1.30941 10.8335 0.964373 10.7151 0.668124 10.4909C0.606465 10.4438 0.532787 10.4149 0.455507 10.4076C0.378227 10.4004 0.300461 10.415 0.231093 10.4498C0.161664 10.4843 0.103249 10.5376 0.0624227 10.6035C0.0215961 10.6694 -2.23412e-05 10.7454 1.73254e-08 10.823V16.6669C1.73254e-08 17.586 0.747459 18.3335 1.66668 18.3335H18.3333C19.2525 18.3335 20 17.5861 20 16.6669V10.823C20 10.7454 19.9784 10.6694 19.9375 10.6035C19.8967 10.5376 19.8383 10.4843 19.7688 10.4498Z" fill="#80C4FF"/>
<path d="M18.3333 4.1667H14.1667V3.33334C14.1667 2.41416 13.4192 1.66666 12.5 1.66666H7.49999C6.58081 1.66666 5.83331 2.41412 5.83331 3.33334V4.16666H1.66668C0.747459 4.1667 0 4.91416 0 5.83334V8.33333C0 9.25255 0.747459 10 1.66668 10H8.33334V9.58333C8.33331 9.5286 8.34406 9.4744 8.36499 9.42383C8.38592 9.37326 8.41661 9.32731 8.45531 9.28861C8.49401 9.24991 8.53995 9.21922 8.59052 9.19829C8.64109 9.17737 8.69529 9.16661 8.75002 9.16665H11.25C11.3047 9.16661 11.3589 9.17737 11.4095 9.19829C11.4601 9.21922 11.506 9.24991 11.5447 9.28861C11.5834 9.32731 11.6141 9.37326 11.6351 9.42383C11.656 9.4744 11.6667 9.5286 11.6667 9.58333V10H18.3334C19.2525 10 20 9.25255 20 8.33333V5.83334C20 4.91416 19.2525 4.1667 18.3333 4.1667ZM12.5 4.1667H7.49999V3.33334H12.5V4.1667Z" fill="#0089FF"/>
</svg>
