<svg width="48" height="48" viewBox="0 0 48 48" fill="none" xmlns="http://www.w3.org/2000/svg">
<rect width="48" height="48" rx="8" fill="white"/>
<path d="M23.0889 16.6745C23.0889 16.5585 23.135 16.4472 23.217 16.3652C23.299 16.2831 23.4103 16.237 23.5263 16.237H29.3123C29.4284 16.237 29.5396 16.2831 29.6217 16.3652C29.7037 16.4472 29.7498 16.5585 29.7498 16.6745C29.7498 16.7906 29.7037 16.9018 29.6217 16.9839C29.5396 17.0659 29.4284 17.112 29.3123 17.112H23.5263C23.4103 17.112 23.299 17.0659 23.217 16.9839C23.135 16.9018 23.0889 16.7906 23.0889 16.6745ZM23.5263 19.2416H32.6643C32.7803 19.2416 32.8916 19.1955 32.9737 19.1135C33.0557 19.0314 33.1018 18.9201 33.1018 18.8041C33.1018 18.6881 33.0557 18.5768 32.9737 18.4948C32.8916 18.4127 32.7803 18.3666 32.6643 18.3666H23.5265C23.4104 18.3666 23.2992 18.4127 23.2171 18.4948C23.1351 18.5768 23.089 18.6881 23.089 18.8041C23.089 18.9201 23.1351 19.0314 23.2171 19.1135C23.2992 19.1955 23.4104 19.2416 23.5265 19.2416H23.5263ZM32.6642 20.494H23.5265C23.4104 20.494 23.2992 20.5401 23.2171 20.6222C23.1351 20.7042 23.089 20.8155 23.089 20.9315C23.089 21.0476 23.1351 21.1588 23.2171 21.2409C23.2992 21.3229 23.4104 21.369 23.5265 21.369H32.6643C32.7803 21.369 32.8916 21.3229 32.9737 21.2409C33.0557 21.1588 33.1018 21.0476 33.1018 20.9315C33.1018 20.8155 33.0557 20.7042 32.9737 20.6222C32.8916 20.5401 32.7803 20.494 32.6643 20.494H32.6642ZM32.6642 22.6217H23.5265C23.4104 22.6217 23.2992 22.6678 23.2171 22.7498C23.1351 22.8319 23.089 22.9432 23.089 23.0592C23.089 23.1752 23.1351 23.2865 23.2171 23.3685C23.2992 23.4506 23.4104 23.4967 23.5265 23.4967H32.6643C32.7803 23.4967 32.8916 23.4506 32.9737 23.3685C33.0557 23.2865 33.1018 23.1752 33.1018 23.0592C33.1018 22.9432 33.0557 22.8319 32.9737 22.7498C32.8916 22.6678 32.7803 22.6217 32.6643 22.6217H32.6642ZM37.2296 31.5784V35.6319C37.2289 36.2703 36.975 36.8822 36.5237 37.3336C36.0723 37.7849 35.4603 38.0388 34.822 38.0396H16.5641C15.9258 38.0388 15.3139 37.7849 14.8625 37.3336C14.4112 36.8822 14.1573 36.2703 14.1566 35.6319V25.1337L8.13577 19.9268C8.09229 19.8892 8.05664 19.8435 8.03086 19.7921C8.00508 19.7407 7.98968 19.6848 7.98552 19.6275C7.98136 19.5702 7.98854 19.5126 8.00665 19.458C8.02475 19.4035 8.05342 19.3531 8.09102 19.3096L16.8763 9.15135C16.9139 9.10788 16.9596 9.07223 17.011 9.04646C17.0624 9.02068 17.1183 9.00528 17.1757 9.00114C17.233 8.99699 17.2906 9.00419 17.3451 9.02231C17.3997 9.04042 17.4501 9.06911 17.4935 9.10673L20.6408 11.8294L26.3106 9.24491C26.3629 9.22106 26.4194 9.20775 26.4768 9.20574C26.5342 9.20372 26.5915 9.21304 26.6453 9.23316C26.6991 9.25328 26.7485 9.28381 26.7905 9.32301C26.8325 9.3622 26.8664 9.40929 26.8903 9.46159L28.6089 13.2323H31.3197C31.4357 13.2323 31.547 13.2784 31.6291 13.3605L35.1191 16.8505C35.2012 16.9326 35.2473 17.0439 35.2473 17.1599V23.5315C36.2676 23.3904 37.304 23.6323 38.1565 24.2104C39.009 24.7885 39.6171 25.6619 39.8634 26.662C40.1098 27.6621 39.977 28.718 39.4906 29.6259C39.0042 30.5338 38.1987 31.2294 37.2296 31.5784ZM34.3721 23.7505V17.5975H32.1028C31.7792 17.5972 31.469 17.4684 31.2401 17.2396C31.0113 17.0108 30.8826 16.7005 30.8822 16.3769V14.1075H21.8187V22.9025L23.4639 24.5109C23.8368 24.8757 24.1309 25.1338 24.5221 25.1338H32.5058C32.9849 24.5058 33.6319 24.0262 34.3721 23.7505ZM31.7572 16.3769C31.7573 16.4685 31.7938 16.5563 31.8585 16.6211C31.9233 16.6858 32.0111 16.7222 32.1027 16.7223H33.7531L31.7572 14.7266V16.3769ZM26.2754 10.2228L20.7721 12.7314C20.7556 12.7403 20.7385 12.7481 20.721 12.7548L14.853 15.4296L17.641 21.5464H19.652C20.1961 21.5464 20.6127 21.7941 20.9435 22.0689V13.6699C20.9435 13.5539 20.9895 13.4426 21.0716 13.3606C21.1536 13.2785 21.2649 13.2324 21.3809 13.2324H27.6469L26.2754 10.2228ZM14.1566 23.9767V23.6012C14.1574 23.0561 14.3745 22.5337 14.7601 22.1484C15.1457 21.7632 15.6683 21.5466 16.2134 21.5462H16.6793L13.8754 15.3945C13.8516 15.3422 13.8383 15.2857 13.8362 15.2283C13.8342 15.1709 13.8435 15.1136 13.8637 15.0598C13.8838 15.0059 13.9143 14.9566 13.9535 14.9146C13.9927 14.8726 14.0398 14.8387 14.0921 14.8149L19.765 12.2288L17.2519 10.0548L9.03923 19.5514L14.1566 23.9767ZM36.3545 31.7894C35.7668 31.8668 35.1693 31.8178 34.6021 31.6456C34.0349 31.4734 33.511 31.1819 33.0657 30.7907C32.6203 30.3995 32.2636 29.9177 32.0196 29.3775C31.7757 28.8372 31.6499 28.2511 31.6509 27.6583C31.6505 27.091 31.7665 26.5296 31.992 26.009H24.5219C23.7436 26.009 23.2282 25.5047 22.8519 25.1366L21.0865 23.4106C21.0785 23.4033 21.0708 23.3958 21.0633 23.3879L20.712 23.0442C20.3259 22.6681 20.0433 22.4213 19.6521 22.4213H16.2134C15.9004 22.4214 15.6001 22.5457 15.3786 22.7669C15.1571 22.9881 15.0323 23.2882 15.0318 23.6012V35.6319C15.0322 36.0382 15.1938 36.4277 15.4811 36.715C15.7684 37.0023 16.1579 37.1639 16.5641 37.1644H34.822C35.2283 37.1639 35.6178 37.0023 35.9051 36.715C36.1924 36.4278 36.354 36.0382 36.3545 35.6319V31.7894ZM39.1093 27.6583C39.1093 27.0073 38.9163 26.3709 38.5546 25.8296C38.1929 25.2882 37.6788 24.8663 37.0774 24.6172C36.4759 24.3681 35.8141 24.3029 35.1756 24.4299C34.537 24.5569 33.9505 24.8704 33.4902 25.3307C33.0298 25.791 32.7163 26.3775 32.5893 27.016C32.4623 27.6546 32.5275 28.3164 32.7766 28.9179C33.0258 29.5193 33.4477 30.0334 33.989 30.3951C34.5303 30.7568 35.1667 30.9498 35.8177 30.9498C36.6904 30.9488 37.527 30.6017 38.1441 29.9847C38.7612 29.3676 39.1083 28.531 39.1093 27.6583ZM38.0457 26.0042C38.0051 25.9636 37.9569 25.9314 37.9038 25.9094C37.8507 25.8874 37.7938 25.8761 37.7363 25.8761C37.6789 25.8761 37.622 25.8874 37.5689 25.9094C37.5158 25.9314 37.4676 25.9636 37.427 26.0042L35.0471 28.3841L34.2085 27.5455C34.1265 27.4635 34.0152 27.4174 33.8991 27.4174C33.7831 27.4174 33.6718 27.4635 33.5898 27.5455C33.5077 27.6276 33.4616 27.7389 33.4616 27.8549C33.4616 27.9709 33.5077 28.0822 33.5898 28.1643L34.7378 29.3122C34.7784 29.3528 34.8266 29.3851 34.8797 29.4071C34.9328 29.4291 34.9897 29.4404 35.0472 29.4404C35.1046 29.4404 35.1615 29.4291 35.2146 29.4071C35.2677 29.3851 35.3159 29.3528 35.3565 29.3122L38.0457 26.623C38.0863 26.5823 38.1186 26.5341 38.1406 26.481C38.1625 26.4279 38.1739 26.3711 38.1739 26.3136C38.1739 26.2561 38.1625 26.1993 38.1406 26.1462C38.1186 26.0931 38.0863 26.0449 38.0457 26.0042ZM34.0124 34.4328H17.3737C17.2577 34.4328 17.1464 34.4789 17.0644 34.5609C16.9823 34.643 16.9363 34.7543 16.9363 34.8703C16.9363 34.9863 16.9823 35.0976 17.0644 35.1796C17.1464 35.2617 17.2577 35.3078 17.3737 35.3078H34.0124C34.1285 35.3078 34.2397 35.2617 34.3218 35.1796C34.4038 35.0976 34.4499 34.9863 34.4499 34.8703C34.4499 34.7543 34.4038 34.643 34.3218 34.5609C34.2397 34.4789 34.1285 34.4328 34.0124 34.4328ZM17.3737 32.3196H21.6416C21.7576 32.3196 21.8689 32.2735 21.9509 32.1915C22.0329 32.1094 22.079 31.9981 22.079 31.8821C22.079 31.7661 22.0329 31.6548 21.9509 31.5728C21.8689 31.4907 21.7576 31.4446 21.6416 31.4446H17.3737C17.2577 31.4446 17.1464 31.4907 17.0644 31.5728C16.9823 31.6548 16.9363 31.7661 16.9363 31.8821C16.9363 31.9981 16.9823 32.1094 17.0644 32.1915C17.1464 32.2735 17.2577 32.3196 17.3737 32.3196Z" fill="#3E96F4"/>
</svg>
