<svg width="42" height="42" viewBox="0 0 42 42" fill="none" xmlns="http://www.w3.org/2000/svg">
<path d="M19.6039 38.1634C19.6223 38.0549 19.618 37.9436 19.591 37.8369C19.5641 37.7301 19.5152 37.6302 19.4475 37.5437C19.3842 37.456 19.304 37.3821 19.2117 37.3263C19.1194 37.2705 19.0169 37.234 18.9102 37.2191C15.0649 36.6471 11.5506 34.7058 9.00529 31.7475C6.45999 28.7891 5.0524 25.0099 5.03802 21.0957C5.03802 20.9776 5.03802 20.8596 5.03802 20.7415L6.90393 23.0533C6.97045 23.1405 7.05437 23.2126 7.15027 23.2652C7.24618 23.3177 7.35196 23.3494 7.46078 23.3583C7.67905 23.3769 7.89603 23.3099 8.06647 23.1713C8.15041 23.102 8.21985 23.0165 8.27076 22.9199C8.32166 22.8233 8.35302 22.7175 8.36302 22.6086C8.37301 22.4997 8.36145 22.3899 8.32899 22.2856C8.29653 22.1812 8.24382 22.0844 8.17393 22.0007L4.9501 18.0363C4.87352 17.9581 4.78225 17.8961 4.68161 17.8539C4.58096 17.8117 4.47298 17.79 4.36395 17.7903C4.25492 17.79 4.14693 17.8117 4.04629 17.8539C3.94565 17.8961 3.85438 17.9581 3.7778 18.0363L0.241359 21.6072C0.164857 21.684 0.104156 21.7752 0.062738 21.8756C0.0213202 21.9761 0 22.0838 0 22.1925C0 22.3013 0.0213202 22.409 0.062738 22.5094C0.104156 22.6099 0.164857 22.7011 0.241359 22.7778C0.317597 22.8549 0.408186 22.916 0.507933 22.9577C0.60768 22.9994 0.714621 23.0209 0.822625 23.0209C0.930629 23.0209 1.03757 22.9994 1.13732 22.9577C1.23706 22.916 1.32765 22.8549 1.40389 22.7778L3.35772 20.8104C3.35772 20.9088 3.35772 21.0071 3.35772 21.1055C3.37986 25.4219 4.93724 29.5874 7.7475 32.8468C10.5578 36.1062 14.4348 38.2437 18.6758 38.8717H18.8028C18.9999 38.8714 19.1903 38.7997 19.3392 38.6696C19.488 38.5395 19.5855 38.3599 19.6136 38.1634H19.2815H19.6039Z" fill="#3E96F4"/>
<path d="M4.6961 17.0132C4.7707 17.0227 4.8462 17.0227 4.92079 17.0132C5.10087 17.013 5.27591 16.9532 5.41891 16.843C5.56191 16.7328 5.66493 16.5783 5.71209 16.4033C6.61255 13.3896 8.36008 10.7029 10.7437 8.66754C13.1273 6.63213 16.0451 5.33506 19.1447 4.93292L17.142 7.02828C17.0658 7.10751 17.0066 7.20165 16.9679 7.30486C16.9293 7.40808 16.9121 7.51818 16.9173 7.62835C16.9196 7.73717 16.9432 7.84447 16.9868 7.94407C17.0304 8.04367 17.0931 8.13363 17.1713 8.20876C17.2504 8.28502 17.3439 8.34438 17.4463 8.38327C17.5487 8.42215 17.6579 8.43976 17.7673 8.43501C17.9844 8.42529 18.19 8.33404 18.3436 8.17924L21.8703 4.50008C21.9374 4.41493 21.9866 4.317 22.0152 4.2122C22.0437 4.10739 22.0509 3.99785 22.0364 3.89017C22.0276 3.78059 21.9961 3.67407 21.9439 3.5775C21.8918 3.48092 21.8201 3.39642 21.7335 3.32944L17.8259 0.18149C17.6545 0.0455 17.4372 -0.0180032 17.2202 0.00441842C17.0063 0.0333167 16.811 0.142177 16.6731 0.309376C16.6041 0.395546 16.5529 0.494811 16.5227 0.601275C16.4925 0.707739 16.4838 0.819231 16.4973 0.929128C16.5074 1.037 16.5395 1.14161 16.5916 1.2364C16.6437 1.3312 16.7147 1.41413 16.8001 1.48002L19.047 3.29009C15.6083 3.72978 12.3694 5.16181 9.72073 7.4135C7.07211 9.66518 5.12691 12.6404 4.11972 15.9803C4.06207 16.1955 4.09011 16.4249 4.19787 16.6197C4.30893 16.8092 4.48681 16.9497 4.6961 17.0132Z" fill="#3E96F4"/>
<path d="M41.6431 16.1278C41.4624 16.006 41.2414 15.9604 41.0277 16.0009C40.814 16.0413 40.6245 16.1646 40.5001 16.3442L38.8882 18.6757C38.3849 14.8185 36.6436 11.2326 33.9294 8.46406C31.2153 5.69549 27.6771 3.89588 23.8534 3.33928C23.7463 3.32313 23.6371 3.32838 23.532 3.35474C23.4269 3.38111 23.328 3.42806 23.2409 3.49291C23.1538 3.55777 23.0802 3.63926 23.0244 3.73274C22.9686 3.82622 22.9316 3.92986 22.9156 4.03773C22.8996 4.1456 22.9048 4.25559 22.931 4.36143C22.9571 4.46727 23.0038 4.56688 23.0682 4.65457C23.1326 4.74227 23.2135 4.81633 23.3063 4.87253C23.3992 4.92873 23.5021 4.96596 23.6092 4.98211C27.0851 5.51364 30.2963 7.1649 32.762 9.68854C35.2276 12.2122 36.8149 15.4723 37.2861 18.9806L35.0489 17.0624C34.879 16.9221 34.6626 16.8518 34.4432 16.8656C34.2235 16.8862 34.0203 16.992 33.8766 17.1607C33.7368 17.3296 33.6686 17.5471 33.6869 17.7662C33.7052 17.9853 33.8084 18.1884 33.9743 18.3314L37.882 21.6466C38.0185 21.7463 38.1822 21.8013 38.3509 21.804H38.4974C38.6053 21.7855 38.7083 21.7456 38.8006 21.6864C38.8929 21.6273 38.9725 21.5502 39.0347 21.4596L41.858 17.2886C41.9809 17.1037 42.0266 16.8775 41.985 16.659C41.9655 16.5522 41.9253 16.4503 41.8666 16.3591C41.8079 16.268 41.732 16.1894 41.6431 16.1278Z" fill="#3E96F4"/>
<path d="M21.2158 26.8997C22.7428 26.8945 24.2059 26.2813 25.2857 25.194C26.3655 24.1067 26.9744 22.6334 26.9796 21.0957C26.9796 19.9477 26.6415 18.8256 26.0082 17.8711C25.3749 16.9167 24.4747 16.1727 23.4215 15.7334C22.3683 15.2942 21.2094 15.1792 20.0913 15.4032C18.9732 15.6271 17.9462 16.1799 17.1401 16.9916C16.3341 17.8033 15.7851 18.8375 15.5627 19.9634C15.3403 21.0892 15.4545 22.2562 15.8907 23.3168C16.327 24.3773 17.0657 25.2838 18.0136 25.9215C18.9614 26.5593 20.0758 26.8997 21.2158 26.8997ZM21.2158 19.1479C21.4749 19.1479 21.7233 19.2515 21.9066 19.436C22.0898 19.6205 22.1927 19.8707 22.1927 20.1316C22.1927 20.3925 22.0898 20.6427 21.9066 20.8272C21.7233 21.0117 21.4749 21.1153 21.2158 21.1153C20.9567 21.1153 20.7082 21.0117 20.525 20.8272C20.3418 20.6427 20.2389 20.3925 20.2389 20.1316C20.2389 19.8707 20.3418 19.6205 20.525 19.436C20.7082 19.2515 20.9567 19.1479 21.2158 19.1479ZM21.5577 22.8074C22.0185 22.8688 22.4506 23.0673 22.7987 23.3775C23.1468 23.6877 23.395 24.0955 23.5115 24.5486C22.841 24.9961 22.0544 25.2348 21.25 25.2348C20.4455 25.2348 19.6589 24.9961 18.9884 24.5486C19.1333 23.9934 19.474 23.5105 19.9469 23.19C20.4198 22.8695 20.9924 22.7335 21.5577 22.8074ZM23.8437 20.2398C23.8675 19.5386 23.6147 18.8563 23.1407 18.3421C22.6666 17.8278 22.0097 17.5234 21.3135 17.4952C20.8163 17.4758 20.3239 17.599 19.8936 17.8503C19.4632 18.1016 19.1125 18.4707 18.8823 18.9148C18.652 19.3589 18.5517 19.8597 18.593 20.359C18.6343 20.8582 18.8154 21.3354 19.1154 21.7351C18.5256 22.1107 18.0413 22.6323 17.7086 23.25C17.3174 22.6042 17.1112 21.862 17.1127 21.1055C17.1127 20.0088 17.5447 18.9569 18.3139 18.1805C19.0831 17.4041 20.1267 16.9666 21.2158 16.964C21.9448 16.9643 22.6607 17.1597 23.29 17.5302C23.9194 17.9007 24.4396 18.4331 24.7975 19.0727C25.1553 19.7123 25.3379 20.4362 25.3265 21.1702C25.3151 21.9042 25.1102 22.622 24.7327 23.25C24.3995 22.6295 23.9112 22.1073 23.3161 21.7351C23.6432 21.3046 23.8277 20.7816 23.8437 20.2398Z" fill="#3E96F4"/>
<path d="M24.0586 32.0446L24.2638 30.2739C24.6757 30.1241 25.0771 29.9467 25.4654 29.7427L26.8624 30.8543C27.1195 31.0564 27.4412 31.1569 27.7668 31.1369C28.0924 31.117 28.3996 30.978 28.6306 30.7461L30.7602 28.6016C30.9932 28.3684 31.1329 28.0571 31.1527 27.727C31.1725 27.3968 31.0711 27.0709 30.8677 26.8112L29.7736 25.4044C29.9958 25.0095 30.1885 24.5985 30.3499 24.1748L32.1182 23.9583C32.4418 23.9151 32.7387 23.7543 32.9528 23.5061C33.1669 23.2579 33.2835 22.9394 33.2807 22.6106V19.5807C33.2752 19.2536 33.151 18.9399 32.9314 18.6988C32.7117 18.4577 32.412 18.306 32.0889 18.2724L30.3499 18.0264C30.211 17.6013 30.0413 17.187 29.8419 16.7869L30.9361 15.3802C31.1415 15.1213 31.2443 14.7949 31.2244 14.4642C31.2046 14.1334 31.0636 13.8218 30.8286 13.5898L28.699 11.4452C28.4612 11.2103 28.1445 11.0738 27.8116 11.0629C27.4787 11.052 27.1538 11.1674 26.9014 11.3862L25.4654 12.4486C25.0642 12.2464 24.6496 12.0722 24.2247 11.9273L24.0195 10.1565C23.9792 9.82958 23.8222 9.52852 23.5778 9.30951C23.3333 9.09051 23.0181 8.9685 22.6909 8.96623H19.7113C19.3835 8.96638 19.0672 9.08766 18.8223 9.30706C18.5774 9.52646 18.421 9.82873 18.3827 10.1565L18.1678 11.9273C17.746 12.0723 17.3347 12.2465 16.9369 12.4486L15.5399 11.3862C15.2811 11.1835 14.9579 11.0826 14.6306 11.1025C14.3033 11.1224 13.9945 11.2618 13.7619 11.4944L11.6322 13.639C11.4007 13.8734 11.2628 14.1853 11.2448 14.5154C11.2268 14.8455 11.3299 15.1708 11.5345 15.4294L12.6287 16.8361C12.4294 17.2362 12.2596 17.6504 12.1207 18.0756L10.3525 18.2724C10.0261 18.3088 9.72464 18.4657 9.50635 18.7128C9.28807 18.9598 9.16838 19.2795 9.17038 19.6102V22.6401C9.17053 22.9702 9.29097 23.2887 9.50885 23.5353C9.72673 23.7819 10.0269 23.9395 10.3525 23.978L12.1207 24.1944C12.2613 24.6189 12.4311 25.0331 12.6287 25.4339L11.5345 26.8407C11.3299 27.0992 11.2268 27.4245 11.2448 27.7546C11.2628 28.0847 11.4007 28.3967 11.6322 28.6311L13.7424 30.7461C13.975 30.9787 14.2838 31.1181 14.6111 31.138C14.9383 31.1579 15.2616 31.0571 15.5203 30.8543L16.9173 29.7427C17.3177 29.9466 17.7324 30.1209 18.158 30.2641L18.3632 32.0348C18.4015 32.3626 18.5579 32.6649 18.8028 32.8843C19.0477 33.1037 19.364 33.2249 19.6918 33.2251H22.73C23.0557 33.2231 23.3697 33.1025 23.6139 32.8855C23.8582 32.6685 24.0161 32.3698 24.0586 32.0446ZM14.2894 26.0143C14.3902 25.8842 14.4504 25.7269 14.4626 25.5624C14.4747 25.3978 14.4383 25.2334 14.3578 25.0896C14.0036 24.4965 13.7309 23.8579 13.547 23.191C13.5022 23.031 13.4116 22.8878 13.2865 22.7794C13.1614 22.6709 13.0074 22.6019 12.8436 22.5811L10.8116 22.3352V19.8562L12.8436 19.6102C13.007 19.5914 13.1608 19.523 13.2847 19.414C13.4086 19.3051 13.4967 19.1608 13.5372 19.0003C13.715 18.3392 13.9777 17.7042 14.3187 17.1115C14.3992 16.9678 14.4357 16.8033 14.4235 16.6388C14.4113 16.4742 14.3511 16.317 14.2504 16.1868L12.9901 14.5735L14.7193 12.8126L16.3214 14.0915C16.452 14.1947 16.6106 14.2556 16.7763 14.2661C16.942 14.2767 17.107 14.2364 17.2495 14.1505C17.8449 13.8047 18.4818 13.5369 19.1447 13.3537C19.3042 13.3098 19.4471 13.2189 19.555 13.0927C19.6629 12.9665 19.731 12.8108 19.7504 12.6454L19.9946 10.6091H22.4467L22.6909 12.6454C22.7077 12.8117 22.7748 12.9688 22.8832 13.0954C22.9915 13.2221 23.1358 13.3123 23.2966 13.3537C23.9536 13.5314 24.5843 13.796 25.1723 14.1407C25.3169 14.2213 25.4817 14.2577 25.6465 14.2455C25.8113 14.2333 25.9691 14.1729 26.1004 14.0718L27.7025 12.8028L29.4414 14.5538L28.1812 16.1672C28.078 16.2961 28.0162 16.4536 28.004 16.6188C27.9918 16.7839 28.0297 16.9489 28.1128 17.0919C28.4538 17.6845 28.7166 18.3195 28.8943 18.9806C28.9349 19.1411 29.0229 19.2854 29.1468 19.3944C29.2707 19.5033 29.4246 19.5717 29.5879 19.5906L31.6199 19.8365V22.3155L29.5879 22.5614C29.4246 22.5803 29.2707 22.6487 29.1468 22.7576C29.0229 22.8666 28.9349 23.0108 28.8943 23.1713C28.7118 23.8308 28.4493 24.4652 28.1128 25.0601C28.0297 25.203 27.9918 25.368 28.004 25.5332C28.0162 25.6983 28.078 25.8559 28.1812 25.9848L29.4414 27.5981L27.7025 29.359L26.1004 28.1097C25.9697 28.0065 25.8111 27.9456 25.6454 27.935C25.4797 27.9245 25.3147 27.9648 25.1723 28.0507C24.582 28.3881 23.9518 28.6492 23.2966 28.8278C23.1358 28.8692 22.9915 28.9594 22.8832 29.086C22.7748 29.2127 22.7077 29.3698 22.6909 29.5361L22.4467 31.5724H19.9946L19.7504 29.5361C19.731 29.3707 19.6629 29.215 19.555 29.0888C19.4471 28.9626 19.3042 28.8717 19.1447 28.8278C18.4877 28.6501 17.857 28.3855 17.269 28.0408C17.1388 27.9735 16.9953 27.9365 16.8489 27.9326C16.6647 27.9325 16.4857 27.9949 16.341 28.1097L14.7193 29.3689L12.9999 27.6178L14.2894 26.0143Z" fill="#3E96F4"/>
<path d="M38.1653 22.5122C38.0541 22.4927 37.9401 22.4959 37.8301 22.5217C37.7202 22.5474 37.6165 22.5953 37.5253 22.6623C37.4341 22.7293 37.3573 22.8142 37.2994 22.9118C37.2415 23.0094 37.2037 23.1177 37.1884 23.2304C36.7155 26.8042 35.0807 30.1197 32.5393 32.6593C29.9979 35.1989 26.6929 36.8195 23.1403 37.2682L25.0941 34.986C25.1646 34.9029 25.218 34.8066 25.2512 34.7026C25.2845 34.5986 25.2969 34.489 25.2878 34.3801C25.2788 34.2713 25.2483 34.1653 25.1983 34.0683C25.1483 33.9714 25.0797 33.8854 24.9964 33.8153C24.916 33.7429 24.8215 33.688 24.7189 33.6541C24.6164 33.6203 24.508 33.6082 24.4005 33.6186C24.2918 33.6249 24.1854 33.6534 24.088 33.7024C23.9906 33.7515 23.9041 33.82 23.8339 33.9039L20.5808 37.7306C20.5148 37.8179 20.4677 37.9181 20.4424 38.0249C20.4172 38.1316 20.4144 38.2425 20.4342 38.3503C20.4514 38.4582 20.4895 38.5615 20.5465 38.6543C20.6035 38.7472 20.6783 38.8278 20.7664 38.8914L24.8401 41.8426C24.9808 41.9415 25.1473 41.9962 25.3188 42H25.4654C25.5743 41.9811 25.6784 41.9405 25.7716 41.8805C25.8647 41.8206 25.945 41.7425 26.0078 41.6509C26.0706 41.5592 26.1146 41.4559 26.1372 41.3469C26.1598 41.238 26.1605 41.1255 26.1394 41.0163C26.1252 40.9062 26.0883 40.8004 26.0311 40.7055C25.9739 40.6106 25.8977 40.5288 25.8073 40.4654L23.5701 38.9308C27.4489 38.3938 31.0466 36.5936 33.8142 33.8049C36.5818 31.0162 38.3672 27.3923 38.898 23.4861C38.9188 23.3731 38.916 23.2569 38.8897 23.1449C38.8634 23.033 38.8142 22.9279 38.7453 22.8362C38.6763 22.7445 38.5891 22.6684 38.4892 22.6126C38.3894 22.5568 38.279 22.5226 38.1653 22.5122Z" fill="#3E96F4"/>
</svg>
