<svg width="40" height="40" viewBox="0 0 40 40" fill="none" xmlns="http://www.w3.org/2000/svg">
<rect width="40" height="40" rx="20" fill="#3E96F4"/>
<path d="M30.2642 18.8235L14.4342 11.1008C14.2821 11.0267 14.1136 10.9925 13.9447 11.0014C13.7757 11.0103 13.6117 11.0621 13.4683 11.1519C13.3248 11.2417 13.2066 11.3665 13.1247 11.5145C13.0427 11.6626 12.9998 11.8291 13 11.9983V12.027C13.0001 12.1607 13.0166 12.294 13.0491 12.4238L14.5676 18.4978C14.588 18.5788 14.6326 18.6515 14.6955 18.7064C14.7583 18.7612 14.8365 18.7955 14.9194 18.8047L21.5932 19.5467C21.7043 19.5601 21.8066 19.6137 21.8808 19.6973C21.955 19.781 21.996 19.889 21.996 20.0008C21.996 20.1127 21.955 20.2206 21.8808 20.3043C21.8066 20.388 21.7043 20.4415 21.5932 20.4549L14.9194 21.197C14.8365 21.2061 14.7583 21.2404 14.6955 21.2953C14.6326 21.3501 14.588 21.4229 14.5676 21.5038L13.0491 27.5771C13.0166 27.7068 13.0001 27.8401 13 27.9739V28.0025C13 28.1717 13.043 28.338 13.125 28.486C13.2069 28.634 13.3252 28.7586 13.4686 28.8483C13.6121 28.938 13.7759 28.9897 13.9449 28.9986C14.1138 29.0075 14.2822 28.9733 14.4342 28.8992L30.2633 21.1765C30.4838 21.069 30.6696 20.9017 30.7996 20.6936C30.9295 20.4856 30.9984 20.2453 30.9984 20C30.9984 19.7547 30.9295 19.5144 30.7996 19.3064C30.6696 19.0983 30.4846 18.931 30.2642 18.8235Z" fill="white"/>
</svg>
