<svg width="42" height="42" viewBox="0 0 42 42" fill="none" xmlns="http://www.w3.org/2000/svg">
<circle cx="21" cy="21" r="21" fill="#48CE31"/>
<path d="M15.9401 19.26C15.7063 19.423 15.5227 19.6482 15.4101 19.91C15.3011 20.1754 15.2733 20.4673 15.3302 20.7485C15.3872 21.0298 15.5264 21.2878 15.7301 21.49C15.93 21.6939 16.1888 21.8303 16.4701 21.88C16.5631 21.8903 16.657 21.8903 16.7501 21.88C16.9392 21.8831 17.1267 21.8456 17.3001 21.77C17.5655 21.6633 17.7922 21.4785 17.9501 21.24C18.1053 21.0125 18.1921 20.7453 18.2001 20.47C18.1926 20.0953 18.0424 19.7376 17.7801 19.47C17.542 19.2325 17.2307 19.0825 16.8966 19.0444C16.5626 19.0063 16.2255 19.0822 15.9401 19.26Z" fill="#31393C"/>
<path d="M20.2001 19.26C19.9607 19.4196 19.7731 19.6454 19.6601 19.91C19.5511 20.1754 19.5233 20.4673 19.5802 20.7485C19.6372 21.0298 19.7764 21.2878 19.9801 21.49C20.1812 21.6923 20.4394 21.8284 20.7201 21.88C20.8131 21.8898 20.907 21.8898 21.0001 21.88C21.1892 21.8841 21.377 21.8465 21.5501 21.77C21.8115 21.6714 22.0377 21.4974 22.2001 21.27C22.3573 21.0329 22.4408 20.7545 22.4401 20.47C22.4424 20.2081 22.3732 19.9506 22.2401 19.7251C22.107 19.4997 21.9149 19.3147 21.6845 19.1903C21.4541 19.0658 21.1942 19.0066 20.9326 19.0188C20.671 19.0311 20.4178 19.1145 20.2001 19.26Z" fill="#31393C"/>
<path d="M24.4101 19.26C24.1733 19.4224 23.9864 19.6475 23.8701 19.91C23.7636 20.1765 23.7358 20.4681 23.7901 20.75C23.8456 21.0314 23.985 21.2894 24.1901 21.49C24.3912 21.6923 24.6494 21.8284 24.9301 21.88C25.0231 21.8898 25.117 21.8898 25.2101 21.88C25.3992 21.8841 25.587 21.8465 25.7601 21.77C26.0255 21.6633 26.2522 21.4785 26.4101 21.24C26.5703 21.0037 26.6573 20.7254 26.6601 20.44C26.6531 20.0632 26.4987 19.7042 26.2301 19.44C25.9907 19.2104 25.6812 19.0678 25.3512 19.0352C25.0212 19.0026 24.6897 19.0817 24.4101 19.26Z" fill="#31393C"/>
<path d="M30.4701 13.45C30.0099 12.9882 29.4628 12.6223 28.8603 12.3734C28.2578 12.1245 27.6119 11.9976 26.9601 12H15.0001C13.674 12 12.4022 12.5268 11.4645 13.4644C10.5268 14.4021 10.0001 15.6739 10.0001 17V24C9.99692 24.6534 10.1235 25.301 10.3724 25.9053C10.6213 26.5095 10.9876 27.0583 11.4501 27.52C12.3985 28.4449 13.6753 28.9556 15.0001 28.94H17.9801C18.0176 28.9609 18.0514 28.988 18.0801 29.02L20.3501 32.02C20.4233 32.1118 20.5153 32.1868 20.6201 32.24C20.7293 32.2923 20.8489 32.3195 20.9701 32.3195C21.0912 32.3195 21.2108 32.2923 21.3201 32.24C21.4295 32.1898 21.5255 32.1144 21.6001 32.02L23.8801 29.02C23.9047 28.9879 23.9353 28.9607 23.9701 28.94C24.0096 28.931 24.0506 28.931 24.0901 28.94H26.9501C27.6067 28.94 28.2568 28.8106 28.8635 28.5594C29.4701 28.3081 30.0213 27.9398 30.4856 27.4755C30.9499 27.0112 31.3182 26.46 31.5695 25.8534C31.8207 25.2468 31.9501 24.5966 31.9501 23.94V16.94C31.9339 15.6275 31.4024 14.3739 30.4701 13.45ZM30.3601 16.97V23.97C30.3601 24.8726 30.0022 25.7385 29.3648 26.3777C28.7275 27.0169 27.8627 27.3773 26.9601 27.38H24.0901C23.8087 27.3773 23.5309 27.4424 23.2801 27.57C23.0221 27.6888 22.7984 27.8712 22.6301 28.1L20.9801 30.27L19.3301 28.1C19.1568 27.8759 18.9344 27.6945 18.6801 27.57C18.4293 27.4424 18.1514 27.3773 17.8701 27.38H15.0001C14.5527 27.38 14.1098 27.2917 13.6966 27.1202C13.2835 26.9487 12.9082 26.6974 12.5924 26.3806C12.2765 26.0638 12.0263 25.6878 11.856 25.2742C11.6857 24.8605 11.5987 24.4173 11.6001 23.97V16.97C11.6007 16.0658 11.9604 15.199 12.6001 14.56C13.2421 13.9249 14.107 13.566 15.0101 13.56H27.0101C27.9105 13.5644 28.7729 13.9237 29.4101 14.56C29.7195 14.8792 29.9628 15.2564 30.1259 15.67C30.2889 16.0837 30.3685 16.5255 30.3601 16.97Z" fill="#31393C"/>
</svg>
