<svg width="12" height="12" viewBox="0 0 12 12" fill="none" xmlns="http://www.w3.org/2000/svg">
<path d="M5.20312 8.25L8.92188 4.54688L8.125 3.75L5.20312 6.65625L3.875 5.34375L3.07813 6.14062L5.20312 8.25ZM6 12C5.17708 12 4.40104 11.8438 3.67188 11.5312C2.94271 11.2188 2.30469 10.7891 1.75781 10.2422C1.21094 9.69531 0.78125 9.05729 0.46875 8.32813C0.15625 7.59896 0 6.82292 0 6C0 5.16667 0.15625 4.38802 0.46875 3.66406C0.78125 2.9401 1.21094 2.30469 1.75781 1.75781C2.30469 1.21094 2.94271 0.78125 3.67188 0.46875C4.40104 0.15625 5.17708 0 6 0C6.83333 0 7.61198 0.15625 8.33594 0.46875C9.0599 0.78125 9.69531 1.21094 10.2422 1.75781C10.7891 2.30469 11.2188 2.9401 11.5312 3.66406C11.8438 4.38802 12 5.16667 12 6C12 6.82292 11.8438 7.59896 11.5312 8.32813C11.2188 9.05729 10.7891 9.69531 10.2422 10.2422C9.69531 10.7891 9.0599 11.2188 8.33594 11.5312C7.61198 11.8438 6.83333 12 6 12ZM6 10.875C7.35417 10.875 8.50521 10.401 9.45313 9.45313C10.401 8.50521 10.875 7.35417 10.875 6C10.875 4.64583 10.401 3.49479 9.45313 2.54688C8.50521 1.59896 7.35417 1.125 6 1.125C4.64583 1.125 3.49479 1.59896 2.54688 2.54688C1.59896 3.49479 1.125 4.64583 1.125 6C1.125 7.35417 1.59896 8.50521 2.54688 9.45313C3.49479 10.401 4.64583 10.875 6 10.875Z" fill="#3DA4C2"/>
</svg>
