<svg width="64" height="64" viewBox="0 0 64 64" fill="none" xmlns="http://www.w3.org/2000/svg">
<path d="M0 8C0 3.58172 3.58172 0 8 0H56C60.4183 0 64 3.58172 64 8V56C64 60.4183 60.4183 64 56 64H8C3.58172 64 0 60.4183 0 56V8Z" fill="white"/>
<path d="M18.1904 32C18.3815 32.0001 18.5372 32.1525 18.541 32.3418C18.631 35.923 20.119 39.1571 22.4804 41.5186C24.9161 43.9542 28.2811 45.4618 31.997 45.4619C34.016 45.4619 35.9298 45.0183 37.6426 44.2266C38.9598 43.6173 40.1704 42.8001 41.2275 41.8057C41.3087 41.7294 41.3516 41.6353 41.3535 41.5234C41.3553 41.4143 41.3161 41.3173 41.2363 41.2393L39.3515 39.3525C39.2347 39.2376 39.2028 39.0724 39.2646 38.9219C39.3265 38.7713 39.4668 38.6797 39.6299 38.6797H45.7568C45.9747 38.6797 46.1515 38.8566 46.1523 39.0732V45.1982C46.1523 45.3612 46.0586 45.5016 45.9082 45.5635C45.7576 45.6272 45.5925 45.5935 45.4775 45.4785L43.584 43.585C43.4334 43.4334 43.1875 43.4316 43.0332 43.5781C41.7667 44.7865 40.3067 45.7869 38.7041 46.5273C36.662 47.4734 34.3885 48 31.997 48C27.5793 47.9999 23.5804 46.2094 20.6836 43.3145C17.8673 40.4963 16.0937 36.6354 16 32.3594C15.9987 32.2606 16.0322 32.1758 16.1015 32.1064C16.169 32.0359 16.2541 32 16.3515 32H18.1904Z" fill="#3E96F4"/>
<path d="M39.7715 36.2852C39.7713 36.4144 39.7074 36.5262 39.5957 36.5898L32.5146 40.6787V32.2959L39.7715 28.1055V36.2852Z" fill="#3E96F4"/>
<path d="M26.7041 29.5381V32.2695H26.706C26.7061 32.3599 26.7301 32.4491 26.7754 32.5273C26.8208 32.6056 26.8863 32.6707 26.9648 32.7158L28.7021 33.7188C28.7871 33.7787 28.8901 33.8145 29.0019 33.8145C29.2867 33.8144 29.5174 33.5836 29.5176 33.2988V31.1621L31.4824 32.2959V40.6777L24.4004 36.5898C24.2886 36.5262 24.2247 36.4144 24.2246 36.2852L24.2236 28.1074L26.7041 29.5381Z" fill="#3E96F4"/>
<path d="M36.2558 25.4844L28.7441 29.8203C28.5791 29.9159 28.4873 30.0898 28.4873 30.2666H28.4853V32.4062L27.7373 31.9736V29.5439L27.9267 29.4336C27.9374 29.428 27.9453 29.422 27.9541 29.417L35.5117 25.0537L36.2558 25.4844Z" fill="#3E96F4"/>
<path d="M31.997 16C36.4167 16 40.4162 17.7903 43.3125 20.6865C46.1288 23.5028 47.8997 27.3665 47.9922 31.6426C47.9953 31.7399 47.9627 31.8249 47.8935 31.8955C47.8248 31.9642 47.7409 32 47.6416 32H45.8037C45.6144 32 45.4581 31.8475 45.4531 31.6582C45.365 28.0771 43.877 24.8429 41.5156 22.4814C39.0805 20.0457 35.715 18.5401 31.997 18.54C29.9781 18.54 28.0663 18.9817 26.3535 19.7734C25.0251 20.3883 23.8151 21.2077 22.7666 22.1943C22.6873 22.2706 22.6454 22.3647 22.6435 22.4766C22.6417 22.5875 22.68 22.6828 22.7578 22.7607L24.6445 24.6475C24.7595 24.7624 24.7932 24.9275 24.7295 25.0781C24.6676 25.2287 24.5293 25.3203 24.3662 25.3203H18.2392C18.0213 25.3201 17.8448 25.1438 17.8447 24.9277V18.8008C17.8447 18.6377 17.9383 18.4974 18.0888 18.4355C18.2394 18.3737 18.4026 18.4057 18.5176 18.5205L20.4131 20.4141C20.5636 20.5658 20.8095 20.5677 20.9638 20.4209C22.2304 19.2131 23.6897 18.2125 25.2929 17.4727C27.3349 16.5267 29.6077 16.0001 31.997 16Z" fill="#3E96F4"/>
<path d="M39.2578 27.2158L31.997 31.4062L30.0263 30.2695L37.0293 26.2246L37.2861 26.0771L39.2578 27.2158Z" fill="#3E96F4"/>
<path d="M31.8222 23.125C31.934 23.0615 32.0617 23.0613 32.1728 23.125L34.4843 24.459L27.4394 28.5254C27.4307 28.531 27.4198 28.537 27.4111 28.542L27.2256 28.6504L24.7402 27.2148L31.8222 23.125Z" fill="#3E96F4"/>
</svg>
