<svg width="48" height="48" viewBox="0 0 48 48" fill="none" xmlns="http://www.w3.org/2000/svg">
<rect width="48" height="48" rx="8" fill="white"/>
<path fill-rule="evenodd" clip-rule="evenodd" d="M23.7647 36.3354C22.7184 36.8062 21.6172 37.1439 20.4868 37.3407L20.069 37.4138C20.0102 37.424 19.9501 37.424 19.8913 37.4138L19.4737 37.3407C12.8765 36.1906 8 30.4005 8 23.7001V14.4301C8 14.3291 8.02963 14.2304 8.08523 14.146C8.14083 14.0617 8.21994 13.9956 8.31277 13.9558L19.7768 9.04176C19.841 9.01421 19.9102 9 19.9801 9C20.05 9 20.1192 9.01421 20.1835 9.04176L31.6475 13.9558C31.7403 13.9955 31.8195 14.0617 31.8751 14.146C31.9307 14.2303 31.9603 14.3291 31.9603 14.4301V21.9605C36.4781 22.4493 40 26.2801 40 30.927C40 35.9048 35.9586 39.9461 30.9809 39.9461C28.0314 39.9461 25.4108 38.5272 23.7647 36.3354ZM30.9281 21.908V14.7704L19.9801 10.0777L9.03226 14.7704V23.7001C9.03226 29.9011 13.5455 35.2594 19.651 36.3238L19.9801 36.3814L20.3093 36.3238C21.2986 36.1516 22.264 35.8626 23.1853 35.4629C22.6445 34.5368 22.2743 33.5211 22.0925 32.4641H14.2481C13.4915 32.4641 12.8754 31.85 12.8754 31.0934V21.9792C12.8754 21.2258 13.4915 20.6084 14.2481 20.6084H14.781V19.1574C14.781 16.2976 17.1213 13.9573 19.9812 13.9573C22.841 13.9573 25.1792 16.2975 25.1792 19.1574V20.6084H25.7141C26.4711 20.6084 27.085 21.2254 27.085 21.9792V22.7917C28.2496 22.2324 29.5526 21.916 30.9281 21.908ZM21.9757 31.4319C21.9665 31.2648 21.9618 31.0964 21.9618 30.927C21.9618 27.7673 23.5901 24.9849 26.0527 23.374V21.9792C26.0526 21.8895 26.0168 21.8035 25.9534 21.74C25.8899 21.6765 25.8039 21.6408 25.7141 21.6407H14.2481C14.0608 21.6407 13.9076 21.7927 13.9076 21.9792V31.0934C13.9076 31.2807 14.0608 31.4319 14.2481 31.4319H21.9757ZM15.8133 20.6084H16.9267V19.1574C16.9267 17.48 18.3061 16.101 19.9812 16.101C21.6562 16.101 23.0355 17.48 23.0355 19.1574V20.6084H24.147V19.1574C24.147 16.8653 22.2732 14.9896 19.9812 14.9896C17.689 14.9896 15.8133 16.8652 15.8133 19.1574V20.6084ZM17.959 20.6084H22.0033V19.1574C22.0033 18.0467 21.0903 17.1332 19.9812 17.1332C18.872 17.1332 17.959 18.0467 17.959 19.1574V20.6084ZM30.9809 22.9401C26.5728 22.9401 22.9941 26.5189 22.9941 30.927C22.9941 35.3351 26.5728 38.9138 30.9809 38.9138C35.389 38.9138 38.9677 35.3351 38.9677 30.927C38.9677 26.5189 35.389 22.9401 30.9809 22.9401ZM32.8783 30.7765C34.7357 31.478 36.1016 33.1798 36.3201 35.2245C36.3278 35.2965 36.3202 35.3693 36.298 35.4382C36.2757 35.5071 36.2391 35.5705 36.1907 35.6244C36.1423 35.6782 36.0831 35.7213 36.017 35.7508C35.9509 35.7802 35.8793 35.7955 35.8069 35.7955H26.1548C26.0824 35.7955 26.0108 35.7803 25.9447 35.7508C25.8785 35.7213 25.8193 35.6782 25.7709 35.6243C25.7225 35.5704 25.686 35.507 25.6637 35.438C25.6415 35.3691 25.6339 35.2963 25.6417 35.2243C25.8613 33.1795 27.2276 31.4778 29.0845 30.7763C28.4295 30.2307 28.0116 29.4092 28.0116 28.4934C28.0116 26.8576 29.3451 25.5229 30.9809 25.5229C32.6181 25.5229 33.9515 26.8577 33.9515 28.4934C33.9515 29.4092 33.5335 30.2307 32.8783 30.7765ZM30.9809 31.464C28.9436 31.464 27.2343 32.8691 26.7684 34.7632H35.1937C34.7288 32.869 33.0192 31.464 30.9809 31.464ZM30.9809 30.4317C32.0492 30.4317 32.9192 29.5607 32.9192 28.4934C32.9192 27.4261 32.0492 26.5551 30.9809 26.5551C29.9137 26.5551 29.0439 27.4262 29.0439 28.4934C29.0439 29.5607 29.9137 30.4317 30.9809 30.4317ZM19.9812 22.768C21.1862 22.768 22.163 23.7468 22.163 24.9518C22.1637 25.2735 22.0932 25.5913 21.9563 25.8824C21.8195 26.1735 21.6199 26.4306 21.3718 26.6353V28.914C21.3718 29.6803 20.7443 30.3047 19.9812 30.3047C19.2148 30.3047 18.5905 29.6803 18.5905 28.914V26.6354C18.106 26.2352 17.7973 25.6302 17.7973 24.9518C17.7973 23.7469 18.7763 22.768 19.9812 22.768ZM19.9812 23.8002C19.3457 23.8002 18.8295 24.3165 18.8295 24.9518C18.8295 25.3669 19.0488 25.7297 19.3775 25.9324C19.4525 25.9786 19.5144 26.0433 19.5573 26.1202C19.6002 26.197 19.6228 26.2836 19.6228 26.3717V28.914C19.6229 29.009 19.6607 29.1 19.7279 29.1672C19.7951 29.2344 19.8862 29.2722 19.9812 29.2724C20.1778 29.2724 20.3395 29.1114 20.3395 28.914V26.3717C20.3395 26.2836 20.3621 26.197 20.405 26.1201C20.4479 26.0433 20.5098 25.9786 20.5848 25.9324C20.7521 25.8293 20.8901 25.685 20.9857 25.5133C21.0813 25.3417 21.1312 25.1483 21.1308 24.9518C21.1308 24.3167 20.6163 23.8002 19.9812 23.8002Z" fill="#3E96F4"/>
</svg>
