<svg width="32" height="32" viewBox="0 0 32 32" fill="none" xmlns="http://www.w3.org/2000/svg">
<path d="M31.9704 14.9777C31.6618 18.2605 28.7523 20.6826 25.4737 20.6826H24.0121C24 19.5 24.5 18.5 23.003 18.1702L16.7234 16.0652C16.2538 15.9084 15.7463 15.9084 15.2767 16.0652L8.996 18.1702C7.5 18.5 7.98807 20 7.98807 20.6826H5.96764C2.96328 20.6826 0.28347 18.4615 0.0229171 15.4534C-0.0851326 14.2436 0.190761 13.0306 0.811003 11.9883C1.43124 10.946 2.36394 10.1281 3.47524 9.6519C3.15412 6.45298 5.98707 4.07103 8.94571 4.69726C9.66286 3.28377 10.7546 2.09704 12.1003 1.26813C13.446 0.439213 14.9933 0.000350572 16.5715 0C21.0134 0 24.6555 3.4 25.0886 7.75024C25.0967 7.83599 25.1376 7.91524 25.2025 7.97136C25.2675 8.02749 25.3516 8.05614 25.4371 8.05129C26.3364 8.01131 27.2338 8.16604 28.0685 8.505C28.9032 8.84395 29.6557 9.35923 30.2752 10.016C30.8946 10.6727 31.3666 11.4556 31.659 12.3116C31.9515 13.1676 32.0577 14.0768 31.9704 14.9777Z" fill="#3E96F4"/>
<path d="M15.819 17.1231L9.53948 19.2281C9.42391 19.2673 9.32358 19.3422 9.25279 19.442C9.182 19.5419 9.14436 19.6616 9.14522 19.7843C9.20236 25.3307 10.4263 29.7579 15.9996 31.9997C21.5729 29.7579 22.7968 25.3307 22.854 19.7831C22.8548 19.6605 22.8172 19.5407 22.7464 19.4409C22.6756 19.341 22.5753 19.2662 22.4597 19.227L16.1802 17.122C16.0629 17.0827 15.936 17.0831 15.819 17.1231ZM19.2542 22.2673L16.3973 26.8635C16.3062 27.01 16.1833 27.134 16.0379 27.2262C15.8925 27.3184 15.7283 27.3765 15.5575 27.396C15.3868 27.4155 15.2138 27.3961 15.0515 27.3391C14.8892 27.2821 14.7418 27.1891 14.6203 27.0669L12.9255 25.364C12.8194 25.2573 12.7353 25.1307 12.6778 24.9913C12.6204 24.8519 12.5909 24.7025 12.5909 24.5516C12.5909 24.4007 12.6204 24.2514 12.6778 24.112C12.7353 23.9726 12.8194 23.8459 12.9255 23.7392C13.0316 23.6326 13.1576 23.5479 13.2962 23.4902C13.4348 23.4325 13.5834 23.4028 13.7335 23.4028C13.8835 23.4028 14.0321 23.4325 14.1707 23.4902C14.3093 23.5479 14.4353 23.6326 14.5414 23.7392L15.2202 24.4218L17.3149 21.0494C17.3943 20.9213 17.4981 20.8102 17.6203 20.7225C17.7426 20.6348 17.8808 20.5723 18.0271 20.5385C18.1734 20.5046 18.3249 20.5001 18.4729 20.5253C18.6209 20.5505 18.7626 20.6048 18.8897 20.6851C19.4268 21.0195 19.5891 21.7296 19.2542 22.2673Z" fill="#3E96F4"/>
</svg>
