<svg width="64" height="64" viewBox="0 0 64 64" fill="none" xmlns="http://www.w3.org/2000/svg">
<rect width="64" height="64" fill="white"/>
<path d="M43.9197 20H20.4984C19.6753 20 19 20.6654 19 21.4984V23.0661C19.4449 22.7742 19.9663 22.6205 20.4984 22.6245H43.9197C44.4736 22.6245 44.9847 22.7797 45.4181 23.0661V21.4976C45.4176 21.1004 45.2596 20.7196 44.9787 20.4388C44.6977 20.158 44.3169 20.0002 43.9197 20ZM43.9197 23.9231H20.4984C19.6753 23.9231 19 24.5992 19 25.4306V26.9983C19.4449 26.7064 19.9663 26.5527 20.4984 26.5566H43.9197C44.4736 26.5566 44.9847 26.7127 45.4181 26.9983V25.4306C45.4183 25.0323 45.2608 24.6501 44.98 24.3676C44.6992 24.0851 44.318 23.9253 43.9197 23.9231ZM43.9197 27.8561H20.4984C19.6753 27.8561 19 28.5314 19 29.3545V42.4933C19 43.3247 19.6753 44 20.4984 44H43.9197C44.7428 44 45.4181 43.3247 45.4181 42.4933V29.3545C45.4181 28.5314 44.7428 27.8561 43.9197 27.8561ZM42.8192 38.8031C42.4778 38.8026 42.1397 38.8696 41.8243 39C41.5088 39.1305 41.2222 39.3219 40.9808 39.5633C40.7395 39.8048 40.5482 40.0914 40.4178 40.4069C40.2874 40.7225 40.2206 41.0606 40.2211 41.4019H24.1969C24.1975 41.0606 24.1307 40.7225 24.0003 40.4069C23.8699 40.0914 23.6786 39.8048 23.4372 39.5633C23.1959 39.3219 22.9093 39.1305 22.5938 39C22.2784 38.8696 21.9403 38.8026 21.5989 38.8031V33.0522C21.9403 33.0526 22.2784 32.9857 22.5938 32.8552C22.9093 32.7248 23.1959 32.5333 23.4372 32.2919C23.6786 32.0505 23.8699 31.7638 24.0003 31.4483C24.1307 31.1328 24.1975 30.7947 24.1969 30.4533H40.2211C40.2206 30.7947 40.2874 31.1328 40.4178 31.4483C40.5482 31.7638 40.7395 32.0505 40.9808 32.2919C41.2222 32.5333 41.5088 32.7248 41.8243 32.8552C42.1397 32.9857 42.4778 33.0526 42.8192 33.0522V38.8031Z" fill="#3E96F4"/>
<path d="M32.2089 33.9621C32.5804 33.9621 32.8817 34.2643 32.8817 34.6358C32.8817 34.8 32.947 34.9575 33.0631 35.0736C33.1792 35.1897 33.3367 35.255 33.5009 35.255C33.6651 35.255 33.8226 35.1897 33.9387 35.0736C34.0548 34.9575 34.1201 34.8 34.1201 34.6358C34.1188 34.2387 33.9937 33.8518 33.7621 33.5292C33.5305 33.2066 33.2039 32.9643 32.8281 32.8361V32.4976C32.8281 32.3334 32.7628 32.1759 32.6467 32.0598C32.5306 31.9437 32.3731 31.8784 32.2089 31.8784C32.0447 31.8784 31.8872 31.9437 31.7711 32.0598C31.655 32.1759 31.5897 32.3334 31.5897 32.4976V32.8361C31.2138 32.9643 30.8873 33.2066 30.6557 33.5292C30.4241 33.8518 30.299 34.2387 30.2977 34.6358C30.2984 35.1425 30.4999 35.6282 30.8582 35.9865C31.2165 36.3448 31.7022 36.5463 32.2089 36.547C32.5804 36.547 32.8817 36.8483 32.8817 37.2198C32.8732 37.3925 32.7985 37.5553 32.6733 37.6745C32.5481 37.7937 32.3818 37.8601 32.2089 37.8601C32.036 37.8601 31.8697 37.7937 31.7445 37.6745C31.6192 37.5553 31.5446 37.3925 31.5361 37.2198C31.5361 37.0556 31.4708 36.8981 31.3547 36.782C31.2386 36.6659 31.0811 36.6007 30.9169 36.6007C30.7527 36.6007 30.5952 36.6659 30.4791 36.782C30.3629 36.8981 30.2977 37.0556 30.2977 37.2198C30.2977 38.0553 30.8409 38.7603 31.5897 39.0196V39.358C31.5897 39.5223 31.655 39.6797 31.7711 39.7959C31.8872 39.912 32.0447 39.9772 32.2089 39.9772C32.3731 39.9772 32.5306 39.912 32.6467 39.7959C32.7628 39.6797 32.8281 39.5223 32.8281 39.358V39.0196C33.2039 38.8914 33.5305 38.6491 33.7621 38.3264C33.9937 38.0038 34.1188 37.617 34.1201 37.2198C34.1194 36.7131 33.9179 36.2274 33.5596 35.8691C33.2013 35.5109 32.7156 35.3093 32.2089 35.3086C32.0305 35.3084 31.8595 35.2375 31.7334 35.1113C31.6072 34.9852 31.5363 34.8142 31.5361 34.6358C31.5361 34.2643 31.8382 33.9621 32.2089 33.9621ZM38.6541 35.3086H37.2514C37.0872 35.3086 36.9297 35.3739 36.8136 35.49C36.6975 35.6061 36.6323 35.7636 36.6323 35.9278C36.6323 36.092 36.6975 36.2495 36.8136 36.3656C36.9297 36.4818 37.0872 36.547 37.2514 36.547H38.6541C38.8183 36.547 38.9758 36.4818 39.0919 36.3656C39.208 36.2495 39.2733 36.092 39.2733 35.9278C39.2733 35.7636 39.208 35.6061 39.0919 35.49C38.9758 35.3739 38.8183 35.3086 38.6541 35.3086ZM27.1663 35.3086H25.7637C25.5995 35.3086 25.442 35.3739 25.3259 35.49C25.2098 35.6061 25.1445 35.7636 25.1445 35.9278C25.1445 36.092 25.2098 36.2495 25.3259 36.3656C25.442 36.4818 25.5995 36.547 25.7637 36.547H27.1663C27.3306 36.547 27.488 36.4818 27.6042 36.3656C27.7203 36.2495 27.7855 36.092 27.7855 35.9278C27.7855 35.7636 27.7203 35.6061 27.6042 35.49C27.488 35.3739 27.3306 35.3086 27.1663 35.3086Z" fill="#3E96F4"/>
</svg>
