<svg width="49" height="49" viewBox="0 0 49 49" fill="none" xmlns="http://www.w3.org/2000/svg">
<path d="M24.2998 0.300049C21.6488 0.300049 19.4998 2.44905 19.4998 5.10005C19.4998 7.75105 21.6488 9.90005 24.2998 9.90005C26.9497 9.89745 29.0972 7.74995 29.0998 5.10005C29.0998 2.44905 26.9508 0.300049 24.2998 0.300049ZM24.2998 8.30005C22.5325 8.30005 21.0998 6.86735 21.0998 5.10005C21.0998 3.33275 22.5325 1.90005 24.2998 1.90005C26.0671 1.90005 27.4998 3.33275 27.4998 5.10005C27.4998 6.86735 26.0671 8.30005 24.2998 8.30005ZM27.4998 10.7H27.311L27.1422 10.784C26.2592 11.2237 25.2862 11.4525 24.2998 11.4525C23.3134 11.4525 22.3404 11.2237 21.4574 10.784L21.2886 10.7H21.0998C18.8918 10.7026 17.1024 12.492 17.0998 14.7V19.5C17.0998 20.8256 18.1743 21.9 19.4998 21.9H29.0998C30.4253 21.9 31.4998 20.8256 31.4998 19.5V14.7C31.4972 12.492 29.7078 10.7026 27.4998 10.7ZM29.8998 19.5C29.8998 19.7122 29.8155 19.9157 29.6655 20.0657C29.5155 20.2158 29.312 20.3 29.0998 20.3H19.4998C19.2876 20.3 19.0841 20.2158 18.9341 20.0657C18.7841 19.9157 18.6998 19.7122 18.6998 19.5V14.7C18.7 13.4408 19.6733 12.3958 20.9294 12.3064C21.9854 12.7966 23.1356 13.0505 24.2998 13.0505C25.464 13.0505 26.6142 12.7966 27.6702 12.3064C28.9262 12.3958 29.8996 13.4408 29.8998 14.7V19.5ZM41.0998 26.7C38.4488 26.7 36.2998 28.849 36.2998 31.5C36.2998 34.1511 38.4488 36.3 41.0998 36.3C43.7508 36.3 45.8998 34.1511 45.8998 31.5C45.8972 28.8501 43.7497 26.7027 41.0998 26.7ZM41.0998 34.7001C39.3325 34.7001 37.8998 33.2673 37.8998 31.5C37.8998 29.7327 39.3325 28.3 41.0998 28.3C42.8671 28.3 44.2998 29.7327 44.2998 31.5C44.2998 33.2673 42.8671 34.7001 41.0998 34.7001ZM44.2998 37.1H44.111L43.9422 37.18C43.0592 37.6196 42.0862 37.8484 41.0998 37.8484C40.1134 37.8484 39.1404 37.6196 38.2574 37.18L38.0886 37.1H37.8998C35.6918 37.1026 33.9024 38.892 33.8998 41.1V45.9001C33.8998 47.2255 34.9743 48.3 36.2998 48.3H45.8998C47.2253 48.3 48.2998 47.2255 48.2998 45.9001V41.1C48.2972 38.892 46.5078 37.1026 44.2998 37.1ZM46.6998 45.9001C46.6998 46.1122 46.6155 46.3157 46.4655 46.4657C46.3155 46.6158 46.112 46.7001 45.8998 46.7001H36.2998C36.0876 46.7001 35.8841 46.6158 35.7341 46.4657C35.5841 46.3157 35.4998 46.1122 35.4998 45.9001V41.1C35.5 39.8409 36.4733 38.7958 37.7294 38.7064C38.7854 39.1966 39.9356 39.4505 41.0998 39.4505C42.264 39.4505 43.4142 39.1966 44.4702 38.7064C45.7263 38.7958 46.6996 39.8409 46.6998 41.1V45.9001ZM7.4998 26.7C4.8488 26.7 2.6998 28.849 2.6998 31.5C2.6998 34.1511 4.8488 36.3 7.4998 36.3C10.1508 36.3 12.2998 34.1511 12.2998 31.5C12.2972 28.8501 10.1497 26.7027 7.4998 26.7ZM7.4998 34.7001C5.7325 34.7001 4.2998 33.2673 4.2998 31.5C4.2998 29.7327 5.7325 28.3 7.4998 28.3C9.26711 28.3 10.6998 29.7327 10.6998 31.5C10.6998 33.2673 9.26711 34.7001 7.4998 34.7001ZM10.6998 37.1H10.511L10.3422 37.18C9.45917 37.6196 8.48621 37.8484 7.4998 37.8484C6.5134 37.8484 5.54044 37.6196 4.6574 37.18L4.48861 37.1H4.2998C2.0918 37.1026 0.302405 38.892 0.299805 41.1V45.9001C0.299805 47.2255 1.3743 48.3 2.6998 48.3H12.2998C13.6253 48.3 14.6998 47.2255 14.6998 45.9001V41.1C14.6972 38.892 12.9078 37.1026 10.6998 37.1ZM13.0998 45.9001C13.0998 46.1122 13.0155 46.3157 12.8655 46.4657C12.7155 46.6158 12.512 46.7001 12.2998 46.7001H2.6998C2.48763 46.7001 2.28415 46.6158 2.13412 46.4657C1.98409 46.3157 1.8998 46.1122 1.8998 45.9001V41.1C1.9 39.8409 2.8733 38.7958 4.1294 38.7064C5.18541 39.1966 6.33561 39.4505 7.4998 39.4505C8.664 39.4505 9.8142 39.1966 10.8702 38.7064C12.1263 38.7958 13.0996 39.8409 13.0998 41.1V45.9001ZM32.237 40.9277L32.2358 40.9248C32.1526 40.7297 31.9953 40.5755 31.7985 40.4963C31.6017 40.4171 31.3815 40.4193 31.1863 40.5024C27.5738 42.0164 23.5618 42.2927 19.7759 41.2881L20.5247 41.0681C20.9489 40.9438 21.1921 40.4995 21.0679 40.0753C20.9437 39.6511 20.4993 39.4078 20.0751 39.5321L16.8751 40.4705C16.8631 40.4705 16.8543 40.4841 16.8431 40.488C16.769 40.5157 16.6994 40.5542 16.6367 40.6024C16.6089 40.6174 16.5822 40.6343 16.5567 40.6529C16.4723 40.7281 16.4054 40.821 16.3607 40.9248C16.3173 41.0294 16.2966 41.1421 16.2999 41.2552C16.3194 41.3635 16.3461 41.4705 16.3799 41.5753C16.3847 41.5865 16.3799 41.5993 16.3887 41.6105L17.9887 44.6721C18.0373 44.7652 18.1039 44.8479 18.1845 44.9154C18.2651 44.9829 18.3582 45.0338 18.4585 45.0653C18.5587 45.0968 18.6643 45.1083 18.769 45.099C18.8737 45.0897 18.9755 45.0599 19.0687 45.0112C19.1619 44.9626 19.2446 44.8961 19.3121 44.8155C19.3795 44.7349 19.4305 44.6418 19.462 44.5415C19.4935 44.4412 19.5049 44.3357 19.4956 44.231C19.4864 44.1263 19.4565 44.0244 19.4079 43.9313L18.7567 42.6865C23.0581 43.9794 27.6762 43.7282 31.8119 41.9761C32.0073 41.8934 32.1618 41.7365 32.2416 41.5399C32.3213 41.3433 32.3196 41.1231 32.237 40.9277ZM45.6654 21.3344C45.5154 21.1845 45.3119 21.1002 45.0998 21.1002C44.8877 21.1002 44.6842 21.1845 44.5342 21.3344L43.4022 22.4664C42.7398 15.4594 38.2911 9.37885 31.8134 6.62645C31.6182 6.54328 31.398 6.54105 31.2011 6.62027C31.0043 6.69948 30.847 6.85365 30.7638 7.04885C30.6806 7.24405 30.6784 7.46429 30.7576 7.66113C30.8368 7.85797 30.991 8.01528 31.1862 8.09845C36.9972 10.5681 41.0366 15.9653 41.7678 22.2368L40.8654 21.3344C40.7145 21.1887 40.5124 21.1081 40.3027 21.1099C40.0929 21.1117 39.8923 21.1959 39.7439 21.3442C39.5956 21.4925 39.5115 21.6932 39.5097 21.9029C39.5078 22.1127 39.5885 22.3148 39.7342 22.4657L42.1342 24.8657C42.2084 24.94 42.2965 24.9991 42.3935 25.0394C42.4905 25.0797 42.5946 25.1005 42.6996 25.1007C42.8047 25.1008 42.9087 25.0802 43.0058 25.0402C43.103 25.0001 43.1912 24.9412 43.2656 24.867L43.267 24.8657L45.667 22.4657C45.8168 22.3154 45.9007 22.1118 45.9004 21.8997C45.9001 21.6876 45.8156 21.4843 45.6654 21.3344ZM17.8766 7.22725C17.874 7.18056 17.8671 7.13423 17.8558 7.08885C17.8558 7.08165 17.847 7.07685 17.8438 7.06885C17.8406 7.06085 17.8438 7.05525 17.8438 7.04885C17.822 7.00993 17.7968 6.97299 17.7686 6.93845C17.7427 6.89153 17.7121 6.84731 17.6774 6.80645C17.6301 6.76456 17.5777 6.72881 17.5214 6.70005C17.4933 6.67613 17.4633 6.65447 17.4318 6.63525L14.2318 5.17365C14.0405 5.09509 13.8262 5.09368 13.6338 5.16971C13.4415 5.24574 13.2861 5.3933 13.2002 5.58144C13.1143 5.76958 13.1046 5.98368 13.1731 6.17881C13.2417 6.37394 13.3831 6.53495 13.5678 6.62805L15.2246 7.38565C8.9873 10.7237 5.0953 17.2256 5.0998 24.3C5.0998 24.5122 5.18409 24.7157 5.33412 24.8657C5.48415 25.0158 5.68763 25.1 5.8998 25.1C6.11198 25.1 6.31546 25.0158 6.46549 24.8657C6.61552 24.7157 6.6998 24.5122 6.6998 24.3C6.6958 18.0707 9.98991 12.3048 15.3582 9.14485L14.7798 10.3536C14.6882 10.5446 14.6761 10.7642 14.7461 10.9641C14.8162 11.164 14.9626 11.328 15.1534 11.42C15.2613 11.4728 15.3798 11.5001 15.4998 11.5C15.6503 11.4998 15.7978 11.4572 15.9251 11.3769C16.0525 11.2967 16.1546 11.1821 16.2198 11.0464L17.8198 7.70805C17.8198 7.70005 17.8198 7.69125 17.8262 7.68325C17.847 7.62854 17.8615 7.57164 17.8694 7.51365C17.8831 7.47055 17.8933 7.42645 17.8998 7.38165C17.8971 7.32955 17.8894 7.27783 17.8766 7.22725Z" fill="#3DA4C2" stroke="#3DA4C2" stroke-width="0.6"/>
</svg>
