<svg width="50" height="50" viewBox="0 0 50 50" fill="none" xmlns="http://www.w3.org/2000/svg">
<path d="M24.0608 10.8995C29.1906 6.52815 36.1233 6.04032 40.0424 9.95944C43.9615 13.8786 43.4737 20.8112 39.1023 25.941M39.1014 24.0599C43.4728 29.1897 43.9606 36.1224 40.0415 40.0415C36.1224 43.9606 29.1897 43.4728 24.0599 39.1014M25.941 39.1023C20.8112 43.4737 13.8786 43.9615 9.95944 40.0424C6.04033 36.1233 6.52815 29.1906 10.8995 24.0608M10.8986 25.9401C6.52723 20.8103 6.03941 13.8776 9.95852 9.95852C13.8776 6.0394 20.8103 6.52723 25.9401 10.8986M34.4009 34.4009C29.2089 39.5929 20.7911 39.5929 15.5991 34.4009C10.4071 29.2089 10.4071 20.7911 15.5991 15.5991C20.7911 10.4071 29.2089 10.4071 34.4009 15.5991C39.5929 20.7911 39.5929 29.2089 34.4009 34.4009ZM47.5622 9.38C45.6452 11.297 42.537 11.297 40.62 9.38C38.703 7.46296 38.703 4.35482 40.62 2.43778C42.537 0.52074 45.6452 0.52074 47.5622 2.43778C49.4793 4.35482 49.4793 7.46296 47.5622 9.38ZM9.38 47.5622C7.46296 49.4793 4.35482 49.4793 2.43778 47.5622C0.520741 45.6452 0.520741 42.537 2.43778 40.62C4.35482 38.703 7.46296 38.703 9.38 40.62C11.297 42.537 11.297 45.6452 9.38 47.5622ZM9.38 9.38C7.46296 11.297 4.35482 11.297 2.43778 9.38C0.52074 7.46296 0.52074 4.35482 2.43778 2.43778C4.35482 0.520741 7.46296 0.520741 9.38 2.43778C11.297 4.35482 11.297 7.46296 9.38 9.38ZM47.5622 47.5622C45.6452 49.4793 42.537 49.4793 40.62 47.5622C38.703 45.6452 38.703 42.537 40.62 40.62C42.537 38.703 45.6452 38.703 47.5622 40.62C49.4793 42.537 49.4793 45.6452 47.5622 47.5622Z" stroke="#3DA4C2" stroke-width="2"/>
</svg>
