<svg width="36" height="36" viewBox="0 0 36 36" fill="none" xmlns="http://www.w3.org/2000/svg">
<g clip-path="url(#clip0_2553_5188)">
<path fill-rule="evenodd" clip-rule="evenodd" d="M13.7129 15.2561C13.7129 15.7643 14.1077 16.1763 14.5946 16.1763H30.9899C31.4769 16.1763 31.8716 15.7643 31.8716 15.2561C31.8716 14.748 31.4769 14.3359 30.9899 14.3359H14.5946C14.1077 14.3359 13.7129 14.748 13.7129 15.2561Z" fill="#3DA4C2"/>
<path fill-rule="evenodd" clip-rule="evenodd" d="M3.89258 6.49729C3.89258 7.00547 4.28736 7.41743 4.77434 7.41743H18.5243C19.0113 7.41743 19.4061 7.00547 19.4061 6.49729C19.4061 5.98911 19.0113 5.57715 18.5243 5.57715H4.77434C4.28736 5.57715 3.89258 5.98911 3.89258 6.49729Z" fill="#3DA4C2"/>
<path fill-rule="evenodd" clip-rule="evenodd" d="M13.7129 19.3777C13.7129 19.8858 14.1077 20.2978 14.5946 20.2978H30.9899C31.4769 20.2978 31.8716 19.8858 31.8716 19.3777C31.8716 18.8694 31.4769 18.4575 30.9899 18.4575H14.5946C14.1077 18.4575 13.7129 18.8694 13.7129 19.3777Z" fill="#3DA4C2"/>
<path fill-rule="evenodd" clip-rule="evenodd" d="M13.7129 23.4988C13.7129 24.007 14.1077 24.4189 14.5946 24.4189H30.9899C31.4769 24.4189 31.8716 24.007 31.8716 23.4988C31.8716 22.9906 31.4769 22.5786 30.9899 22.5786H14.5946C14.1077 22.5786 13.7129 22.9906 13.7129 23.4988Z" fill="#3DA4C2"/>
<path fill-rule="evenodd" clip-rule="evenodd" d="M31.2876 35.4959C32.0306 36.4776 33.5436 35.9293 33.5436 34.6784V29.4351C34.9606 29.0194 35.9997 27.6618 35.9997 26.0499V13.1379C35.9997 11.1956 34.4908 9.62109 32.6296 9.62109H12.9522C11.0909 9.62109 9.58203 11.1956 9.58203 13.1379V26.0499C9.58203 27.9921 11.0909 29.5666 12.9522 29.5666H26.7441C26.7613 29.5666 26.7784 29.5707 26.7939 29.5785C26.8093 29.5863 26.823 29.5978 26.8336 29.6118M26.8336 29.6118L31.2876 35.4959L26.8336 29.6118ZM31.7801 33.1777L28.2175 28.4711C28.0418 28.239 27.8179 28.0513 27.5627 27.9223C27.3076 27.7934 27.0278 27.7263 26.7443 27.7263H12.9522C12.0648 27.7263 11.3455 26.9757 11.3455 26.0499V13.1379C11.3455 12.212 12.0648 11.4614 12.9522 11.4614H32.6296C33.5169 11.4614 34.2362 12.212 34.2362 13.1379V26.0499C34.2362 26.9681 33.5284 27.7139 32.6506 27.7256C32.168 27.7321 31.7801 28.1421 31.7801 28.6457V33.1777Z" fill="#3DA4C2"/>
<path fill-rule="evenodd" clip-rule="evenodd" d="M3.90159 20.2827V16.6804C3.90159 16.1768 3.5136 15.7667 3.03102 15.7603C2.32935 15.7511 1.76353 15.1547 1.76353 14.4207V3.18052C1.76353 2.44035 2.33853 1.84028 3.04794 1.84028H20.1776C20.887 1.84028 21.4621 2.44035 21.4621 3.18052V7.1006C21.4621 7.60879 21.8568 8.02075 22.3438 8.02075C22.8308 8.02075 23.2256 7.60879 23.2256 7.1006V3.18052C23.2256 1.42395 21.861 0 20.1776 0H3.04794C1.36459 0 0 1.42395 0 3.18052V14.4207C0 15.8468 0.899245 17.0529 2.13807 17.4566V21.932C2.13807 23.1338 3.59164 23.6612 4.30579 22.7177C4.30578 22.7177 4.3058 22.7176 4.30579 22.7177L8.17934 17.6003C8.65826 17.5259 8.99052 17.0618 8.92238 16.5608C8.85398 16.0577 8.40759 15.7077 7.92544 15.7792C7.48081 15.845 7.07752 16.087 6.79917 16.4547" fill="#3DA4C2"/>
</g>
<defs>
<clipPath id="clip0_2553_5188">
<rect width="36" height="36" fill="white"/>
</clipPath>
</defs>
</svg>
