<svg width="20" height="20" viewBox="0 0 20 20" fill="none" xmlns="http://www.w3.org/2000/svg">
<path d="M20 8.0417V19.416C19.9991 19.5233 19.9689 19.6282 19.9127 19.7195C19.8565 19.8109 19.7764 19.8851 19.681 19.9341C19.5856 19.9832 19.4786 20.0052 19.3716 19.9978C19.2646 19.9904 19.1617 19.9539 19.0739 19.8923L15.8401 17.5933C15.5716 17.4016 15.2498 17.2988 14.9199 17.2993H7.8348C7.23494 17.2985 6.65992 17.0597 6.23603 16.6353C5.81214 16.2108 5.57402 15.6355 5.57402 15.0356V12.6837H12.1417C13.0522 12.683 13.9251 12.3209 14.5689 11.6772C15.2127 11.0334 15.5747 10.1604 15.5755 9.24998V5.78095H17.7275C18.0253 5.77979 18.3203 5.83739 18.5958 5.95045C18.8713 6.0635 19.1217 6.2298 19.3328 6.43981C19.5439 6.64981 19.7115 6.89941 19.826 7.17429C19.9405 7.44917 19.9996 7.74393 20 8.0417Z" fill="#505050"/>
<path d="M13.8292 0.00109431H2.26373C1.66386 0.0010938 1.0885 0.239185 0.664056 0.663074C0.239614 1.08696 0.000779043 1.66199 0 2.26185V13.6362C0.000871941 13.7434 0.0310778 13.8484 0.0873135 13.9397C0.143549 14.031 0.223663 14.1052 0.319037 14.1543C0.414411 14.2033 0.521391 14.2253 0.628385 14.218C0.735378 14.2106 0.838326 14.1741 0.926069 14.1124L4.15993 11.8134C4.42805 11.621 4.75008 11.5181 5.08012 11.5195H12.1652C12.7656 11.5195 13.3414 11.281 13.7659 10.8564C14.1904 10.4319 14.4289 9.85614 14.4289 9.25577V0.586125C14.4285 0.50816 14.4127 0.431049 14.3822 0.359277C14.3518 0.287505 14.3073 0.222505 14.2515 0.168063C14.1957 0.113621 14.1296 0.0708229 14.0571 0.0421579C13.9846 0.013493 13.9071 -0.000465914 13.8292 0.00109431ZM10.5424 8.30325H3.863C3.65052 8.29063 3.45087 8.19732 3.30489 8.0424C3.1589 7.88749 3.07761 7.68266 3.07761 7.4698C3.07761 7.25694 3.1589 7.05212 3.30489 6.8972C3.45087 6.74229 3.65052 6.64898 3.863 6.63635H10.5307C10.7432 6.64898 10.9428 6.74229 11.0888 6.8972C11.2348 7.05212 11.3161 7.25694 11.3161 7.4698C11.3161 7.68266 11.2348 7.88749 11.0888 8.0424C10.9428 8.19732 10.7432 8.29063 10.5307 8.30325H10.5424ZM10.5424 4.8842H3.863C3.65052 4.87157 3.45087 4.77827 3.30489 4.62335C3.1589 4.46843 3.07761 4.26361 3.07761 4.05075C3.07761 3.83789 3.1589 3.63306 3.30489 3.47815C3.45087 3.32323 3.65052 3.22993 3.863 3.2173H10.5307C10.7432 3.22993 10.9428 3.32323 11.0888 3.47815C11.2348 3.63306 11.3161 3.83789 11.3161 4.05075C11.3161 4.26361 11.2348 4.46843 11.0888 4.62335C10.9428 4.77827 10.7432 4.87157 10.5307 4.8842H10.5424Z" fill="#505050"/>
</svg>
