<svg width="41" height="40" viewBox="0 0 41 40" fill="none" xmlns="http://www.w3.org/2000/svg">
<path fill-rule="evenodd" clip-rule="evenodd" d="M15.6166 16.951C15.6166 17.5157 16.0662 17.9734 16.6208 17.9734H35.2932C35.8478 17.9734 36.2974 17.5157 36.2974 16.951C36.2974 16.3864 35.8478 15.9286 35.2932 15.9286H16.6208C16.0662 15.9286 15.6166 16.3864 15.6166 16.951Z" fill="url(#paint0_linear_0_894)"/>
<path fill-rule="evenodd" clip-rule="evenodd" d="M4.43274 7.21895C4.43274 7.78359 4.88235 8.24133 5.43697 8.24133H21.0966C21.6513 8.24133 22.1009 7.78359 22.1009 7.21895C22.1009 6.6543 21.6513 6.19657 21.0966 6.19657H5.43697C4.88235 6.19657 4.43274 6.6543 4.43274 7.21895Z" fill="url(#paint1_linear_0_894)"/>
<path fill-rule="evenodd" clip-rule="evenodd" d="M15.6166 21.5308C15.6166 22.0954 16.0662 22.5531 16.6208 22.5531H35.2932C35.8478 22.5531 36.2974 22.0954 36.2974 21.5308C36.2974 20.9661 35.8478 20.5084 35.2932 20.5084H16.6208C16.0662 20.5084 15.6166 20.9661 15.6166 21.5308Z" fill="url(#paint2_linear_0_894)"/>
<path fill-rule="evenodd" clip-rule="evenodd" d="M15.6166 26.11C15.6166 26.6747 16.0662 27.1324 16.6208 27.1324H35.2932C35.8478 27.1324 36.2974 26.6747 36.2974 26.11C36.2974 25.5454 35.8478 25.0876 35.2932 25.0876H16.6208C16.0662 25.0876 15.6166 25.5454 15.6166 26.11Z" fill="url(#paint3_linear_0_894)"/>
<path fill-rule="evenodd" clip-rule="evenodd" d="M35.6334 39.4399C36.4796 40.5307 38.2028 39.9214 38.2028 38.5315V32.7057C39.8166 32.2438 41 30.7353 41 28.9443V14.5977C41 12.4396 39.2815 10.6901 37.1618 10.6901H14.7514C12.6316 10.6901 10.9132 12.4396 10.9132 14.5977V28.9443C10.9132 31.1023 12.6316 32.8518 14.7514 32.8518H30.4589C30.4588 32.8518 30.4589 32.8518 30.4589 32.8518C30.4785 32.8518 30.4979 32.8563 30.5156 32.865C30.5332 32.8737 30.5487 32.8864 30.5608 32.902M30.5608 32.902L35.6334 39.4399C35.6334 39.4399 35.6334 39.44 35.6334 39.4399M36.1943 36.8641L32.1369 31.6346C31.9368 31.3767 31.6818 31.1681 31.3912 31.0248C31.1006 30.8815 30.782 30.807 30.4591 30.807H14.7514C13.7408 30.807 12.9216 29.973 12.9216 28.9443V14.5977C12.9216 13.5689 13.7408 12.7349 14.7514 12.7349H37.1618C38.1723 12.7349 38.9915 13.5689 38.9915 14.5977V28.9443C38.9915 29.9645 38.1854 30.7932 37.1857 30.8062C36.6361 30.8134 36.1943 31.269 36.1943 31.8285V36.8641Z" fill="url(#paint4_linear_0_894)"/>
<path fill-rule="evenodd" clip-rule="evenodd" d="M4.44348 22.5363V18.5338C4.44348 17.9742 4.0016 17.5186 3.45199 17.5115C2.65287 17.5012 2.00846 16.8386 2.00846 16.023V3.53391C2.00846 2.7115 2.66333 2.04476 3.47126 2.04476H22.9801C23.788 2.04476 24.4429 2.7115 24.4429 3.53391V7.88956C24.4429 8.45421 24.8925 8.91195 25.4471 8.91195C26.0018 8.91195 26.4514 8.45421 26.4514 7.88956V3.53391C26.4514 1.58217 24.8972 0 22.9801 0H3.47126C1.55412 0 0 1.58217 0 3.53391V16.023C0 17.6076 1.02414 18.9477 2.43502 19.3962V24.3689C2.43502 25.7042 4.09048 26.2902 4.90382 25.2419C4.9038 25.2419 4.90383 25.2418 4.90382 25.2419L9.31536 19.5559C9.8608 19.4732 10.2392 18.9576 10.1616 18.4009C10.0837 17.8419 9.57531 17.453 9.02619 17.5324C8.51981 17.6056 8.06051 17.8744 7.7435 18.283M7.7435 18.283L4.44348 22.5363L7.7435 18.283Z" fill="url(#paint5_linear_0_894)"/>
<defs>
<linearGradient id="paint0_linear_0_894" x1="41.3282" y1="40.3815" x2="11.154" y2="4.51894" gradientUnits="userSpaceOnUse">
<stop stop-color="#31393C"/>
<stop offset="1" stop-color="#3D96F5"/>
</linearGradient>
<linearGradient id="paint1_linear_0_894" x1="41.3282" y1="40.3815" x2="11.154" y2="4.51894" gradientUnits="userSpaceOnUse">
<stop stop-color="#31393C"/>
<stop offset="1" stop-color="#3D96F5"/>
</linearGradient>
<linearGradient id="paint2_linear_0_894" x1="41.3282" y1="40.3815" x2="11.154" y2="4.51894" gradientUnits="userSpaceOnUse">
<stop stop-color="#31393C"/>
<stop offset="1" stop-color="#3D96F5"/>
</linearGradient>
<linearGradient id="paint3_linear_0_894" x1="41.3282" y1="40.3815" x2="11.154" y2="4.51894" gradientUnits="userSpaceOnUse">
<stop stop-color="#31393C"/>
<stop offset="1" stop-color="#3D96F5"/>
</linearGradient>
<linearGradient id="paint4_linear_0_894" x1="41.3282" y1="40.3815" x2="11.154" y2="4.51894" gradientUnits="userSpaceOnUse">
<stop stop-color="#31393C"/>
<stop offset="1" stop-color="#3D96F5"/>
</linearGradient>
<linearGradient id="paint5_linear_0_894" x1="41.3282" y1="40.3815" x2="11.154" y2="4.51894" gradientUnits="userSpaceOnUse">
<stop stop-color="#31393C"/>
<stop offset="1" stop-color="#3D96F5"/>
</linearGradient>
</defs>
</svg>
