<svg width="111" height="62" viewBox="0 0 111 62" fill="none" xmlns="http://www.w3.org/2000/svg">
<path id="Vector" d="M55.5076 0.375C85.8748 0.375 110.514 14.0914 110.514 31C110.514 47.9086 85.8777 61.625 55.5105 61.625C25.1477 61.625 0.5 47.9071 0.5 30.9986C0.5 14.09 25.1448 0.375 55.5076 0.375ZM55.5076 3.135C26.6796 3.135 3.28543 15.6371 3.28543 31C3.28543 46.3644 26.6825 58.8405 55.5105 58.8405C84.3328 58.8405 107.737 46.3644 107.737 31C107.737 15.6371 84.3299 3.135 55.5076 3.135ZM45.8444 33.9415H35.0215C35.1398 36.6035 36.6371 37.8409 38.8758 37.8409C40.5448 37.8409 41.6843 36.9017 41.9743 35.9582H45.5242C44.6111 39.1777 41.9815 40.6701 38.733 40.6701C34.1185 40.6701 31.2566 37.5067 31.2566 32.9792C31.2566 28.5958 34.2873 25.2596 38.733 25.2596C43.7182 25.2582 46.1257 29.4443 45.8444 33.9415ZM38.6205 28.0167C36.376 28.0167 35.2191 29.5148 35.0388 31.4307H42.0709C41.7968 29.3866 40.9386 28.0167 38.6205 28.0167ZM92.7179 33.9415H81.8964C82.0133 36.6035 83.512 37.8409 85.7507 37.8409C87.4197 37.8409 88.5578 36.9017 88.8477 35.9582H92.3977C91.486 39.1777 88.855 40.6701 85.6079 40.6701C80.992 40.6701 78.1315 37.5067 78.1315 32.9792C78.1315 28.5958 81.1622 25.2596 85.6079 25.2596C90.5931 25.2582 93.0007 29.4443 92.7179 33.9415ZM85.4954 28.0167C83.2524 28.0167 82.094 29.5148 81.9137 31.4307H88.9444C88.6718 29.3866 87.812 28.0167 85.4954 28.0167ZM12.3139 40.2725H16.3356V31.5647H25.0136V40.2725H29.0323V20.0407H25.0136V28.3264H16.3356V20.0407H12.3139V40.2725ZM48.0659 40.2725H51.8394V32.367C51.8394 29.3967 52.891 28.1809 55.0691 28.1809C56.9386 28.1809 57.7796 29.3694 57.7796 31.7721V40.2725H61.5545V31.2809C61.5545 27.6609 60.4784 25.2582 56.2 25.2582C54.5008 25.2582 52.7438 26.049 51.724 27.6897H51.6403V25.6529H48.0644L48.0659 40.2725ZM64.7814 40.2725H68.5578V32.3569L74.1344 40.2725H78.8326L72.6847 32.0732L78.1373 25.6543H73.6252L68.5563 31.9594V20.0421H64.7799L64.7814 40.2725ZM94.9365 40.2725H98.71V20.0392H94.9365V40.2725Z" fill="#E1000F"/>
</svg>
