<svg width="71" height="71" viewBox="0 0 71 71" fill="none" xmlns="http://www.w3.org/2000/svg">
<path d="M22.4829 35.5H48.0783C54.0763 35.5 58.9386 27.7769 58.9386 18.25C58.9386 8.72314 54.0763 1 48.0783 1H22.4829M22.4829 35.5C16.4849 35.5 11.6225 27.7769 11.6225 18.25C11.6225 14.0242 12.5798 10.154 14.1679 7.15461M22.4829 35.5C28.4809 35.5 33.3432 27.7769 33.3432 18.25C33.3432 8.72314 28.4809 1 22.4829 1M22.4829 1C20.2983 1 18.265 2.02528 16.5618 3.78818M31.1878 35.5C37.1859 35.5 42.0482 27.7769 42.0482 18.25C42.0482 8.72314 37.1859 1 31.1878 1M40.0765 35.5C46.0745 35.5 50.9368 27.7769 50.9368 18.25C50.9368 8.72314 46.0745 1 40.0765 1M18.3172 27.3962C19.4458 29.1335 20.8987 30.1821 22.4829 30.1821C26.0645 30.1821 28.9783 24.8294 28.9783 18.25C28.9783 11.6706 26.0645 6.31786 22.4829 6.31786C18.9013 6.31786 15.9874 11.6706 15.9874 18.25C15.9874 20.22 16.2503 22.0785 16.7126 23.7178M24.5583 18.25C24.5583 20.9281 23.6273 23.1069 22.4829 23.1069C21.3385 23.1069 20.4075 20.9281 20.4075 18.25C20.4075 15.5719 21.3385 13.3931 22.4829 13.3931C23.0551 13.3931 23.574 13.9377 23.9498 14.8172M11.8604 70H37.4557M11.8604 70C5.86235 70 1 62.2769 1 52.75C1 43.2231 5.86235 35.5 11.8604 35.5M11.8604 70C17.8584 70 22.7207 62.2769 22.7207 52.75C22.7207 43.2231 17.8584 35.5 11.8604 35.5M37.4557 35.5H11.8604M7.69467 61.8962C8.82324 63.6335 10.2761 64.6821 11.8604 64.6821C15.442 64.6821 18.3558 59.3294 18.3558 52.75C18.3558 46.1706 15.442 40.8179 11.8604 40.8179C8.27874 40.8179 5.36491 46.1706 5.36491 52.75C5.36491 54.72 5.62772 56.5785 6.09003 58.2178M13.9358 52.75C13.9358 55.4281 13.0048 57.6069 11.8604 57.6069C10.7159 57.6069 9.7848 55.4281 9.7848 52.75C9.7848 50.0719 10.7158 47.8931 11.8602 47.8931C12.4325 47.8931 12.9513 48.4377 13.3271 49.3172M68.3577 61.8752C68.3995 61.7691 68.4405 61.6622 68.4808 61.5545C69.4458 58.9771 70 55.9663 70 52.75C70 43.2231 65.1377 35.5 59.1396 35.5H33.5443M33.5443 35.5C27.5463 35.5 22.6839 43.2231 22.6839 52.75C22.6839 62.2769 27.5463 70 33.5443 70M33.5443 35.5C39.5423 35.5 44.4046 43.2231 44.4046 52.75C44.4046 62.2769 39.5423 70 33.5443 70M33.5443 70H59.1396C62.0707 70 64.7306 68.1557 66.6844 65.1579M42.2492 70C48.2472 70 53.1096 62.2769 53.1096 52.75C53.1096 43.2231 48.2472 35.5 42.2492 35.5M51.1379 70C57.1359 70 61.9982 62.2769 61.9982 52.75C61.9982 43.2231 57.1359 35.5 51.1379 35.5M29.3786 61.8962C30.5072 63.6335 31.96 64.6821 33.5443 64.6821C37.1259 64.6821 40.0397 59.3294 40.0397 52.75C40.0397 46.1706 37.1259 40.8179 33.5443 40.8179C29.9626 40.8179 27.0488 46.1706 27.0488 52.75C27.0488 54.72 27.3116 56.5785 27.7739 58.2178M35.6198 52.75C35.6198 55.4281 34.6888 57.6069 33.5444 57.6069C32.4 57.6069 31.469 55.4281 31.469 52.75C31.469 50.0719 32.4 47.8931 33.5444 47.8931C34.1167 47.8931 34.6355 48.4377 35.0113 49.3172M54.2425 61.5544L52.3786 58.9819L56.568 56.8341M52.1055 7.77047L50.1455 11.4919M37.4437 25.8861L39.7158 28.9315M58.3022 46.6386L61.3229 47.3477" stroke="url(#paint0_linear_2_983)" stroke-width="1.7" stroke-miterlimit="10" stroke-linecap="round" stroke-linejoin="round"/>
<defs>
<linearGradient id="paint0_linear_2_983" x1="1" y1="1" x2="70" y2="70" gradientUnits="userSpaceOnUse">
<stop stop-color="#3E96F4"/>
<stop offset="1" stop-color="#FE5B52"/>
</linearGradient>
</defs>
</svg>
