<svg width="32" height="29" viewBox="0 0 32 29" fill="none" xmlns="http://www.w3.org/2000/svg">
<path d="M9 26.5512V2.43079C9 2.23883 9.20737 2.11849 9.37404 2.21373L29.6352 13.7915C29.7998 13.8856 29.8039 14.1214 29.6427 14.2212L9.38159 26.7638C9.21504 26.8669 9 26.7471 9 26.5512Z" fill="#FFA200" fill-opacity="0.2"/>
<path d="M1.38867 14.2757L22.2776 2.2155C22.4438 2.11952 22.6517 2.23894 22.6526 2.4309L22.7565 25.7665C22.7573 25.956 22.5552 26.0775 22.3882 25.9878L1.39538 14.7125C1.22282 14.6198 1.21904 14.3736 1.38867 14.2757Z" fill="#FFA200" fill-opacity="0.2"/>
<circle cx="9" cy="2" r="2" fill="#FFA200"/>
<circle cx="23" cy="2" r="2" fill="#FFA200"/>
<circle cx="30" cy="14" r="2" fill="#FFA200"/>
<circle cx="2" cy="14" r="2" fill="#FFA200"/>
<circle cx="9" cy="26" r="2" fill="#FFA200"/>
<circle cx="23" cy="26" r="2" fill="#FFA200"/>
<path fill-rule="evenodd" clip-rule="evenodd" d="M23.8382 25.4957C23.7513 25.4957 23.6645 25.4784 23.5863 25.4263C23.3432 25.2873 23.265 24.9834 23.404 24.7402L28.8922 15.2401C29.0311 14.997 29.335 14.9188 29.5782 15.0577C29.8213 15.1967 29.8995 15.5006 29.7605 15.7438L24.2724 25.2439C24.1855 25.4089 24.0118 25.4957 23.8382 25.4957ZM8.15515 25.4957C7.98148 25.4957 7.81649 25.4089 7.72096 25.2439L2.25015 15.7785C2.11121 15.5354 2.19804 15.2314 2.43251 15.0925C2.66697 14.9535 2.97959 15.0404 3.11853 15.2748L8.58935 24.7402C8.72829 24.9834 8.64145 25.2873 8.40699 25.4263C8.32883 25.4697 8.24199 25.4957 8.15515 25.4957ZM29.3264 13.2862C29.1527 13.2862 28.9877 13.1994 28.8922 13.0344L23.3953 3.50825C23.2563 3.2651 23.3432 2.96116 23.5777 2.82222C23.8208 2.68328 24.1247 2.77012 24.2637 3.00458L29.7605 12.5308C29.8995 12.7739 29.8126 13.0778 29.5782 13.2168C29.5 13.2689 29.4132 13.2862 29.3264 13.2862ZM2.68434 13.2689C2.5975 13.2689 2.51066 13.2515 2.43251 13.1994C2.18936 13.0605 2.11121 12.7565 2.25015 12.5134L7.72965 3.03063C7.86859 2.78749 8.17252 2.70933 8.41567 2.84827C8.65882 2.98722 8.73697 3.29115 8.59803 3.5343L3.11853 13.0257C3.02301 13.182 2.85802 13.2689 2.68434 13.2689Z" fill="black"/>
<path fill-rule="evenodd" clip-rule="evenodd" d="M23.0388 25.2614C22.7609 25.2614 22.5351 25.0356 22.5351 24.7577V3.52572C22.5351 3.24784 22.7609 3.02206 23.0388 3.02206C23.3167 3.02206 23.5425 3.24784 23.5425 3.52572V24.7577C23.5338 25.0356 23.308 25.2614 23.0388 25.2614ZM21.6581 26.0603C21.5712 26.0603 21.4844 26.0429 21.4062 25.9908L15.7183 22.7083L12.2274 20.6937H12.2187L8.69311 18.6616L3.03993 15.3965C2.79678 15.2576 2.71863 14.9536 2.85757 14.7105C2.99651 14.4674 3.30044 14.3892 3.54359 14.5281L9.19677 17.7933L12.7137 19.8253H12.7224L16.222 21.8486L21.9099 25.1311C22.1531 25.27 22.2312 25.574 22.0923 25.8171C21.9967 25.9734 21.8318 26.0603 21.6581 26.0603ZM3.30913 13.8421C3.13545 13.8421 2.97046 13.7553 2.87494 13.5903C2.73599 13.3471 2.82283 13.0432 3.0573 12.9043L8.69311 9.64782L12.2187 7.61581L12.2274 7.60712L15.7531 5.5751L21.3802 2.32735C21.6233 2.18841 21.9273 2.27525 22.0662 2.50971C22.2052 2.74417 22.1183 3.05679 21.8839 3.19573L16.2567 6.44349L12.7311 8.48419L12.7224 8.49287L9.19677 10.5249L3.56096 13.7813C3.4828 13.8247 3.39597 13.8421 3.30913 13.8421Z" fill="black"/>
<path fill-rule="evenodd" clip-rule="evenodd" d="M22.2479 25.4523C22.0742 25.4523 21.9092 25.3655 21.8137 25.2005L16.0042 15.1359L12.9214 20.4852L12.9127 20.5025L10.1947 25.1918C10.0558 25.435 9.75183 25.5131 9.50868 25.3742C9.26553 25.2352 9.18738 24.9313 9.32632 24.6881L12.0444 19.9902L15.5613 13.8941C15.5787 13.8594 15.6134 13.8247 15.6395 13.7899C15.8392 13.5902 16.1518 13.5902 16.3515 13.7899C16.3863 13.8247 16.4123 13.8594 16.4297 13.8941L22.6734 24.7055C22.8123 24.9487 22.7255 25.2526 22.491 25.3915C22.4129 25.435 22.326 25.4523 22.2479 25.4523ZM21.4837 26.8331H10.5507C10.2729 26.8331 10.0471 26.6073 10.0471 26.3294C10.0471 26.0515 10.2729 25.8257 10.5507 25.8257H21.4837C21.7616 25.8257 21.9874 26.0515 21.9874 26.3294C21.9874 26.6073 21.7616 26.8331 21.4837 26.8331Z" fill="black"/>
<path fill-rule="evenodd" clip-rule="evenodd" d="M15.9956 14.6408C15.8132 14.6408 15.6482 14.5453 15.5614 14.389L12.0444 8.30164V8.29295L9.32637 3.57763C9.18743 3.33448 9.27427 3.03055 9.50873 2.89161C9.75188 2.75267 10.0558 2.8395 10.1948 3.07397L12.9128 7.78929V7.79797L15.9956 13.1385L19.0783 7.78929V7.78061L21.7877 3.08265C21.9266 2.8395 22.2306 2.76135 22.4737 2.90029C22.7168 3.03923 22.795 3.34317 22.6561 3.58631L19.9467 8.28427V8.29295L16.4298 14.389C16.3429 14.5453 16.1779 14.6408 15.9956 14.6408ZM21.449 2.44873H10.5421C10.2642 2.44873 10.0384 2.22295 10.0384 1.94507C10.0384 1.66719 10.2642 1.44141 10.5421 1.44141H21.449C21.7269 1.44141 21.9527 1.66719 21.9527 1.94507C21.9527 2.22295 21.7269 2.44873 21.449 2.44873Z" fill="black"/>
<path fill-rule="evenodd" clip-rule="evenodd" d="M8.94312 25.2352C8.66523 25.2352 8.43945 25.0094 8.43945 24.7315V3.52556C8.43945 3.24768 8.66523 3.0219 8.94312 3.0219C9.221 3.0219 9.44678 3.24768 9.44678 3.52556V24.7402C9.44678 25.0094 9.221 25.2352 8.94312 25.2352ZM10.3325 26.0341C10.1589 26.0341 9.99386 25.9472 9.89834 25.7822C9.7594 25.5391 9.84624 25.2352 10.0807 25.0962L19.2508 19.7991C19.2508 19.7991 19.2595 19.7991 19.2595 19.7904L22.7765 17.7584L28.421 14.5019C28.6641 14.363 28.968 14.4498 29.107 14.6843C29.2459 14.9188 29.1591 15.2314 28.9246 15.3703L23.2801 18.6268L19.7632 20.6588C19.7632 20.6588 19.7545 20.6588 19.7545 20.6675L10.5757 25.9646C10.4975 26.008 10.4107 26.0341 10.3325 26.0341ZM28.7162 13.8506C28.6294 13.8506 28.5425 13.8333 28.4644 13.7812L22.7852 10.4987L19.2595 8.46666L10.0981 3.18689C9.85492 3.04795 9.77676 2.74401 9.91571 2.50087C10.0546 2.25772 10.3586 2.17956 10.6017 2.31851L19.7805 7.60696L23.2975 9.63898L28.9767 12.9215C29.2199 13.0604 29.298 13.3643 29.1591 13.6075C29.0549 13.7551 28.8899 13.8506 28.7162 13.8506Z" fill="black"/>
<path fill-rule="evenodd" clip-rule="evenodd" d="M8.98777 4.02062H8.93567C8.60568 4.01193 8.28438 3.92509 7.99781 3.7601C7.37258 3.40406 6.97312 2.73541 6.97312 2.01465C6.97312 0.911803 7.87624 0.0086837 8.97909 0.0086837C10.0819 0.0086837 10.9851 0.911803 10.9851 2.01465C10.9851 2.33595 10.9069 2.64857 10.7593 2.93514C10.5595 3.31723 10.2382 3.62984 9.84747 3.82089C9.59564 3.95983 9.30039 4.02062 8.98777 4.02062ZM8.98777 3.02197C9.14408 3.02197 9.30039 2.98724 9.43065 2.91777C9.63038 2.82225 9.78668 2.66594 9.89089 2.47489C9.96904 2.32727 10.0038 2.17964 10.0038 2.01465C10.0038 1.45888 9.55222 1.00732 8.99646 1.00732C8.44069 1.00732 7.98913 1.45888 7.98913 2.01465C7.98913 2.37937 8.18886 2.71804 8.50148 2.89172C8.64042 2.97856 8.82278 3.02197 8.98777 3.02197ZM22.9861 4.02062C22.9253 4.02062 22.8645 4.02062 22.8038 4.01193C22.4651 3.9772 22.1351 3.86431 21.8572 3.66458C21.6228 3.50827 21.423 3.29117 21.2754 3.03934C21.0844 2.72672 20.9888 2.37069 20.9888 2.00597C20.9888 0.903119 21.892 0 22.9948 0C24.0976 0 25.0008 0.903119 25.0008 2.00597C25.0008 2.71804 24.6187 3.37801 24.0108 3.73405C23.6982 3.92509 23.3508 4.02062 22.9861 4.02062ZM22.9861 1.00732C22.4304 1.00732 21.9788 1.45888 21.9788 2.01465C21.9788 2.19701 22.0309 2.37937 22.1264 2.527C22.2046 2.64857 22.3001 2.76146 22.4217 2.83961C22.5606 2.93514 22.7256 2.99592 22.8993 3.01329H22.9861C23.1685 3.01329 23.3422 2.96119 23.4985 2.87435C23.8111 2.69199 23.9934 2.362 23.9934 2.00597C23.9934 1.45888 23.5419 1.00732 22.9861 1.00732ZM29.994 16.1519C29.6379 16.1519 29.2906 16.0564 28.9866 15.8827C28.5872 15.657 28.2833 15.2922 28.1183 14.8667C28.0314 14.6409 27.988 14.3978 27.988 14.146V14.0939C27.9967 13.6597 28.1443 13.2429 28.4135 12.8955C28.5698 12.6958 28.7696 12.5308 28.9866 12.4005C29.2906 12.2268 29.6379 12.1313 29.994 12.1313C31.0968 12.1313 31.9999 13.0344 31.9999 14.1373C32.0086 15.2488 31.1055 16.1519 29.994 16.1519ZM28.9866 14.1373C28.9866 14.2675 29.0127 14.3891 29.0561 14.502C29.143 14.7191 29.2906 14.9015 29.4903 15.0144C29.6466 15.1012 29.8203 15.1533 29.994 15.1533C30.5497 15.1533 31.0013 14.7017 31.0013 14.146C31.0013 13.5902 30.5497 13.1386 29.994 13.1386C29.8203 13.1386 29.6466 13.1821 29.4903 13.2776C29.3774 13.3384 29.2819 13.4252 29.2037 13.5294C29.0735 13.6944 28.9866 13.9115 28.9866 14.1373ZM22.9861 28.2746C21.9267 28.2746 21.0496 27.4496 20.9802 26.3902V26.2686C20.9802 25.9473 21.0583 25.626 21.2146 25.3394C21.2493 25.27 21.2928 25.2005 21.3362 25.1397C21.5099 24.8879 21.7356 24.6795 21.9962 24.5318C22.0396 24.5058 22.0743 24.4884 22.1177 24.4711C22.3869 24.3408 22.6822 24.2713 22.9861 24.2713H23.0469C23.099 24.2713 23.1511 24.28 23.2032 24.28C23.4811 24.3147 23.7503 24.4016 23.9934 24.5405C24.0282 24.5579 24.0629 24.5839 24.0976 24.6013C24.6534 24.9747 24.9834 25.6 24.9834 26.2686C25.0008 27.3715 24.0976 28.2746 22.9861 28.2746ZM22.9861 27.2759C23.5419 27.2759 23.9934 26.8244 23.9934 26.2686C23.9934 25.9299 23.8285 25.6173 23.5506 25.435C23.5332 25.4263 23.5158 25.4089 23.4985 25.4002C23.3769 25.3308 23.2466 25.2873 23.099 25.27C23.073 25.27 23.0382 25.2613 23.0122 25.2613H22.9861C22.8298 25.2613 22.6822 25.296 22.5519 25.3568C22.3869 25.435 22.2567 25.5478 22.1525 25.6955C22.1264 25.7302 22.109 25.7563 22.0917 25.7997C22.0135 25.9473 21.9788 26.1036 21.9788 26.2686C21.9875 26.8244 22.4304 27.2759 22.9861 27.2759ZM9.01382 28.2746C7.91098 28.2746 7.00786 27.3715 7.00786 26.2686C7.00786 25.5565 7.38995 24.8966 7.99781 24.5405C8.2757 24.3755 8.60568 24.28 8.92698 24.2626H9.01382C9.29171 24.2626 9.5609 24.3147 9.81274 24.4276C10.2556 24.6187 10.6203 24.966 10.8287 25.4002C10.959 25.6694 11.0285 25.9647 11.0285 26.2599C11.0198 27.3715 10.1167 28.2746 9.01382 28.2746ZM9.01382 25.2613H8.97909C8.81409 25.27 8.6491 25.3134 8.51016 25.4002C8.19754 25.5826 8.01518 25.9126 8.01518 26.2686C8.01518 26.8244 8.46674 27.2759 9.02251 27.2759C9.57827 27.2759 10.0298 26.8244 10.0298 26.2686C10.0298 26.1123 9.9951 25.9734 9.93431 25.8344C9.8301 25.6173 9.64774 25.4436 9.42196 25.3481C9.28302 25.2873 9.15276 25.2613 9.01382 25.2613ZM2.00597 16.1519C0.903119 16.1519 0 15.2488 0 14.146C0 13.0431 0.903119 12.14 2.00597 12.14C2.362 12.14 2.70936 12.2355 3.01329 12.4092C3.29986 12.5742 3.54301 12.8173 3.72537 13.0952C3.90773 13.3905 4.01193 13.7378 4.02062 14.0939V14.146C4.02062 14.5454 3.90773 14.9275 3.68195 15.2662C3.50827 15.518 3.28249 15.7351 3.01329 15.8914C2.70067 16.0564 2.35332 16.1519 2.00597 16.1519ZM2.00597 13.13C1.4502 13.13 0.998641 13.5815 0.998641 14.1373C0.998641 14.6931 1.4502 15.1446 2.00597 15.1446C2.17964 15.1446 2.362 15.1012 2.50963 15.0057C2.63989 14.9275 2.76146 14.8233 2.8483 14.6931C2.96119 14.5281 3.02198 14.3283 3.02198 14.1286V14.1112C3.02198 13.9289 2.96987 13.7552 2.87435 13.6076C2.78751 13.4599 2.66594 13.3471 2.51831 13.2602C2.35332 13.1821 2.17964 13.13 2.00597 13.13Z" fill="black"/>
<path fill-rule="evenodd" clip-rule="evenodd" d="M28.4923 14.6411H3.53491C3.25703 14.6411 3.03125 14.4153 3.03125 14.1375C3.03125 13.8596 3.25703 13.6338 3.53491 13.6338H28.4923C28.7701 13.6338 28.9959 13.8596 28.9959 14.1375C28.9959 14.4153 28.7615 14.6411 28.4923 14.6411Z" fill="black"/>
</svg>
