<svg width="45" height="62" viewBox="0 0 45 62" fill="none" xmlns="http://www.w3.org/2000/svg">
<path fill-rule="evenodd" clip-rule="evenodd" d="M22.2583 40.3646C21.6583 40.3646 21.175 39.8923 21.175 39.3151V38.7904C21.175 38.2091 21.6625 37.7409 22.2583 37.7409C22.8542 37.7409 23.3417 38.2132 23.3417 38.7904V39.3151C23.3417 39.8923 22.8583 40.3646 22.2583 40.3646ZM22.2583 36.3402C21.6583 36.3402 21.175 35.868 21.175 35.2908V34.766C21.175 34.1848 21.6625 33.7165 22.2583 33.7165C22.8542 33.7165 23.3417 34.1888 23.3417 34.766V35.2908C23.3417 35.868 22.8583 36.3402 22.2583 36.3402ZM22.2583 32.3119C21.6583 32.3119 21.175 31.8396 21.175 31.2624V30.7376C21.175 30.1564 21.6625 29.6882 22.2583 29.6882C22.8542 29.6882 23.3417 30.1604 23.3417 30.7376V31.2624C23.3417 31.8436 22.8583 32.3119 22.2583 32.3119ZM41.7667 5.61068H41.4589V12.6905C41.4589 14.8217 40.663 16.8843 39.2172 18.4949L27.8172 31.1976L39.1422 43.4806C40.638 45.1032 41.463 47.1982 41.463 49.3738V56.3853H41.7667C43.2833 56.3853 44.5167 57.5801 44.5167 59.0494V59.3359C44.5167 60.8052 43.2833 62 41.7667 62H2.75C1.23333 62 0 60.8052 0 59.3359V59.0494C0 57.5801 1.23333 56.3853 2.75 56.3853H3.05469V49.1397C3.05469 46.96 3.87969 44.8651 5.37969 43.2424L16.7922 30.8787L5.37969 18.5231C3.87969 16.9005 3.05469 14.8056 3.05469 12.6259V5.61068H2.75C1.23333 5.61068 0 4.41589 0 2.94661V2.66406C0 1.19479 1.23333 0 2.75 0H41.7667C43.2833 0 44.5167 1.19479 44.5167 2.66406V2.94661C44.5167 4.41589 43.2833 5.61068 41.7667 5.61068ZM39.463 5.61068H5.05469V12.6259C5.05469 14.3293 5.70052 15.964 6.87135 17.2315L18.8797 30.241C19.2172 30.6083 19.2172 31.1653 18.8797 31.5327L6.87135 44.5422C5.70052 45.8096 5.05469 47.4444 5.05469 49.1478V56.3853H13.2044C13.15 56.1799 13.1211 55.9647 13.1211 55.7431V55.4727C13.1211 54.8622 13.3406 54.3007 13.7071 53.8582C13.3406 53.4157 13.1211 52.8542 13.1211 52.2437V51.9733C13.1211 51.3619 13.3413 50.7996 13.7088 50.3568C13.3413 49.914 13.1211 49.3516 13.1211 48.7402V48.4698C13.1211 47.0449 14.3169 45.8865 15.7878 45.8865H28.7294C30.2003 45.8865 31.3961 47.0449 31.3961 48.4698V48.7402C31.3961 49.3516 31.1759 49.914 30.8084 50.3568C31.1759 50.7996 31.3961 51.3619 31.3961 51.9733V52.2437C31.3961 52.8542 31.1766 53.4157 30.8101 53.8582C31.1766 54.3007 31.3961 54.8622 31.3961 55.4727V55.7431C31.3961 55.9647 31.3672 56.1799 31.3128 56.3853H39.4589V49.3698C39.4589 47.6704 38.8172 46.0357 37.6464 44.7682L25.738 31.8515C25.4005 31.4883 25.4005 30.9393 25.7297 30.572L37.713 17.2234C38.8422 15.9681 39.463 14.3575 39.463 12.6905V5.61068ZM15.7743 51.3235C15.7788 51.3236 15.7833 51.3236 15.7878 51.3236H28.7294C28.7328 51.3236 28.7361 51.3236 28.7395 51.3236C29.0997 51.331 29.3919 51.6186 29.3919 51.9692V52.2397C29.3919 52.5949 29.0919 52.8855 28.7253 52.8855H15.7878C15.4211 52.8855 15.1211 52.5949 15.1211 52.2397V51.9692C15.1211 51.6184 15.4138 51.3306 15.7743 51.3235ZM15.1211 55.4727C15.1211 55.1225 15.4126 54.8352 15.7721 54.827L15.7878 54.8271H28.7294L28.7417 54.827C29.1008 54.8356 29.3919 55.1228 29.3919 55.4727V55.7431C29.3919 56.0751 29.1299 56.3507 28.7962 56.3853H15.7168C15.3832 56.3507 15.1211 56.0751 15.1211 55.7431V55.4727ZM41.7667 3.67318H40.4772L40.4589 3.67302H4.05469L4.03635 3.67318H2.75C2.3375 3.67318 2 3.34622 2 2.94661V2.66406C2 2.26445 2.3375 1.9375 2.75 1.9375H41.7667C42.1792 1.9375 42.5167 2.26445 42.5167 2.66406V2.94661C42.5167 3.34622 42.1792 3.67318 41.7667 3.67318ZM2.75 58.3268C2.3375 58.3268 2 58.6538 2 59.0534V59.34C2 59.7396 2.3375 60.0665 2.75 60.0665H41.7667C42.1792 60.0665 42.5167 59.7396 42.5167 59.34V59.0534C42.5167 58.6538 42.1792 58.3268 41.7667 58.3268H2.75ZM27.9996 20.4356C27.9996 21.2176 27.765 21.9661 27.3027 22.6545C26.8405 23.3429 26.1782 23.8843 25.3227 24.2452C24.8844 24.4395 24.4141 24.5835 23.9151 24.6749V25.1002C23.9151 25.9824 23.1769 26.7042 22.2593 26.7042C21.3417 26.7042 20.6035 25.9891 20.6035 25.1002V24.6122C20.1581 24.5225 19.7479 24.3998 19.3756 24.2452C18.4718 23.8709 17.7474 23.2895 17.23 22.5275C16.9126 22.0597 16.6849 21.5451 16.5538 21.0037C16.4504 20.596 16.54 20.1682 16.7953 19.8274C17.0437 19.4932 17.4369 19.2726 17.8647 19.2392C17.9061 19.2325 17.9475 19.2325 17.9958 19.2325C18.665 19.2325 19.2514 19.667 19.4308 20.2952C19.5067 20.5693 19.6171 20.7965 19.7482 20.9903C19.9551 21.2911 20.3001 21.5384 20.7692 21.7389C21.2729 21.9528 21.8524 22.0597 22.494 22.0597C23.0598 22.0597 23.5634 21.9795 23.9842 21.8191C24.3637 21.6787 24.6397 21.4916 24.8052 21.2643C24.9639 21.0438 25.0467 20.8165 25.0467 20.5626C25.0467 20.3153 24.9777 20.1014 24.8328 19.921C24.7294 19.7873 24.4879 19.5801 23.9566 19.3863C23.6393 19.266 22.8666 19.0655 21.7351 18.7981C20.5209 18.5174 19.6309 18.2367 19.1065 17.9694L19.0927 17.9627C18.3752 17.6018 17.8302 17.1339 17.4714 16.5792C17.1058 16.0177 16.9195 15.3828 16.9195 14.6877C16.9195 13.9392 17.1472 13.224 17.5818 12.5757C18.0234 11.9274 18.6719 11.4261 19.4998 11.092C19.8503 10.952 20.2186 10.8425 20.6035 10.7642V10.3228C20.6035 9.43389 21.3417 8.71875 22.2593 8.71875C23.1769 8.71875 23.9151 9.43389 23.9151 10.3228V10.8075C24.2595 10.8854 24.5868 10.987 24.8949 11.112C25.7504 11.4596 26.4128 11.9809 26.875 12.6626C27.1303 13.0369 27.3165 13.4379 27.4407 13.859C27.558 14.2733 27.4821 14.7078 27.2269 15.062C26.9716 15.4162 26.5714 15.6368 26.123 15.6702H26.1092C26.0678 15.6769 26.0264 15.6769 25.9919 15.6769H25.9919C25.3365 15.6769 24.7708 15.2625 24.5845 14.6476C24.4741 14.2867 24.2878 13.9993 24.0256 13.7921C23.6462 13.4914 23.0115 13.331 22.1905 13.331C21.0935 13.331 20.5761 13.5582 20.3346 13.7453C20.0172 13.9926 19.8654 14.26 19.8654 14.5808C19.8654 14.8481 19.9551 15.0553 20.1483 15.2224C20.2104 15.2759 20.6175 15.57 22.4388 15.971C23.867 16.2851 24.8673 16.5658 25.4193 16.8064C26.2679 17.1874 26.9164 17.6886 27.3441 18.2902L27.351 18.3035C27.7788 18.9251 27.9996 19.6402 27.9996 20.4356ZM15.1211 48.4698C15.1211 48.1146 15.4211 47.824 15.7878 47.824H28.7253C29.0919 47.824 29.3919 48.1146 29.3919 48.4698V48.7402C29.3919 49.0955 29.0919 49.3861 28.7253 49.3861H15.7878C15.4211 49.3861 15.1211 49.0955 15.1211 48.7402V48.4698Z" fill="url(#paint0_linear_2_214)"/>
<defs>
<linearGradient id="paint0_linear_2_214" x1="44.8729" y1="62.1002" x2="-1.50871" y2="23.1796" gradientUnits="userSpaceOnUse">
<stop stop-color="#31393C"/>
<stop offset="1" stop-color="#3D96F5"/>
</linearGradient>
</defs>
</svg>
