<svg width="64" height="64" viewBox="0 0 64 64" fill="none" xmlns="http://www.w3.org/2000/svg">
<rect width="64" height="64" rx="8" fill="#3E96F4"/>
<path d="M43.0442 29.6859L41.825 28.4701C41.5263 28.1693 41.3579 27.7631 41.3561 27.3392V25.9135C41.3549 25.046 41.0098 24.2143 40.3964 23.6009C39.783 22.9875 38.9513 22.6424 38.0838 22.6412H36.6604C36.2371 22.6398 35.8313 22.4722 35.5305 22.1745L34.3136 20.9565C33.6995 20.344 32.8676 20 32.0003 20C31.133 20 30.3011 20.344 29.6871 20.9565L28.4712 22.1745C28.1705 22.4732 27.7642 22.6417 27.3403 22.6434H25.9146C25.0475 22.6446 24.2162 22.9894 23.6028 23.6024C22.9895 24.2153 22.6441 25.0464 22.6423 25.9135V27.3392C22.641 27.7624 22.4734 28.1682 22.1756 28.469L20.9565 29.6859C20.344 30.3 20 31.1319 20 31.9992C20 32.8665 20.344 33.6984 20.9565 34.3125L22.1756 35.5283C22.4743 35.8291 22.6428 36.2353 22.6445 36.6593V38.085C22.6457 38.9525 22.9908 39.7841 23.6043 40.3975C24.2177 41.0109 25.0493 41.3561 25.9168 41.3573H27.3403C27.7637 41.3589 28.1695 41.5269 28.4701 41.825L29.6871 43.0431C30.301 43.6558 31.1329 44 32.0003 44C32.8677 44 33.6997 43.6558 34.3136 43.0431L35.5294 41.8262C35.8302 41.5274 36.2364 41.359 36.6604 41.3573H38.0861C38.9536 41.3561 39.7852 41.0109 40.3986 40.3975C41.012 39.7841 41.3572 38.9525 41.3584 38.085V36.6593C41.3599 36.2356 41.5284 35.8297 41.8273 35.5294L43.0442 34.3125C43.6567 33.6984 44.0007 32.8665 44.0007 31.9992C44.0007 31.1319 43.6567 30.3 43.0442 29.6859ZM29.2092 27.5334C29.5404 27.5334 29.8642 27.6316 30.1396 27.8157C30.415 27.9997 30.6297 28.2612 30.7564 28.5672C30.8832 28.8732 30.9163 29.21 30.8517 29.5348C30.7871 29.8597 30.6276 30.1581 30.3934 30.3923C30.1592 30.6265 29.8608 30.786 29.5359 30.8506C29.2111 30.9152 28.8744 30.882 28.5683 30.7553C28.2623 30.6285 28.0008 30.4139 27.8168 30.1385C27.6328 29.8631 27.5345 29.5393 27.5345 29.2081C27.5345 28.764 27.711 28.338 28.025 28.0239C28.3391 27.7099 28.7651 27.5334 29.2092 27.5334ZM29.4325 35.7482C29.2738 35.8961 29.0638 35.9767 28.8469 35.9728C28.63 35.969 28.423 35.8811 28.2696 35.7277C28.1162 35.5743 28.0283 35.3673 28.0245 35.1504C28.0206 34.9335 28.1012 34.7235 28.2491 34.5648L34.5682 28.2502C34.7269 28.1023 34.9368 28.0218 35.1538 28.0256C35.3707 28.0294 35.5776 28.1173 35.7311 28.2707C35.8845 28.4241 35.9724 28.6311 35.9762 28.848C35.98 29.0649 35.8995 29.2749 35.7516 29.4336L29.4325 35.7482ZM34.7914 36.465C34.4602 36.465 34.1364 36.3668 33.861 36.1828C33.5856 35.9987 33.371 35.7372 33.2442 35.4312C33.1175 35.1252 33.0843 34.7885 33.149 34.4636C33.2136 34.1388 33.3731 33.8404 33.6073 33.6062C33.8415 33.3719 34.1399 33.2125 34.4647 33.1478C34.7896 33.0832 35.1263 33.1164 35.4323 33.2431C35.7383 33.3699 35.9999 33.5845 36.1839 33.8599C36.3679 34.1353 36.4661 34.4591 36.4661 34.7903C36.4661 35.2345 36.2897 35.6604 35.9756 35.9745C35.6615 36.2886 35.2356 36.465 34.7914 36.465Z" fill="white"/>
</svg>
