<svg width="68" height="72" viewBox="0 0 68 72" fill="none" xmlns="http://www.w3.org/2000/svg">
<path d="M41.8064 66.1935V51.0967H20.9032V66.1935L18.5806 70.8386H44.129L41.8064 66.1935Z" fill="#4D5F66" fill-opacity="0.3"/>
<path d="M44.129 70.8385H18.5806L20.9032 66.1934H41.8064L44.129 70.8385Z" fill="#4D5F66"/>
<path d="M63.871 1.16113H54.5806C53.2979 1.16113 52.2581 2.20099 52.2581 3.48371V19.7418C52.2581 21.0245 53.2979 22.0644 54.5806 22.0644H63.871C65.1537 22.0644 66.1935 21.0245 66.1935 19.7418V3.48371C66.1935 2.20099 65.1537 1.16113 63.871 1.16113Z" fill="#4D5F66" fill-opacity="0.3"/>
<path d="M14.1935 1.16113H4.90321C3.62048 1.16113 2.58063 2.20099 2.58063 3.48371V19.7418C2.58063 21.0245 3.62048 22.0644 4.90321 22.0644H14.1935C15.4763 22.0644 16.5161 21.0245 16.5161 19.7418V3.48371C16.5161 2.20099 15.4763 1.16113 14.1935 1.16113Z" fill="#4D5F66" fill-opacity="0.3"/>
<path d="M55.7419 1.16113L56.9032 4.645H61.5484L62.7097 1.16113H55.7419Z" fill="#4D5F66"/>
<path d="M6.06451 1.16113L7.2258 4.645H11.871L13.0323 1.16113H6.06451Z" fill="#4D5F66"/>
<path d="M42.9683 65.9195V51.0968C42.9683 50.7888 42.8459 50.4935 42.6282 50.2757C42.4104 50.0579 42.115 49.9355 41.807 49.9355H20.9038C20.5958 49.9355 20.3004 50.0579 20.0826 50.2757C19.8648 50.4935 19.7425 50.7888 19.7425 51.0968V65.9195L17.5418 70.3197C17.4534 70.4968 17.4116 70.6935 17.4206 70.8913C17.4295 71.0891 17.4889 71.2813 17.593 71.4496C17.6972 71.618 17.8426 71.757 18.0156 71.8533C18.1885 71.9496 18.3832 72.0002 18.5812 72.0001H44.1296C44.328 72.0011 44.5235 71.9513 44.6972 71.8554C44.871 71.7595 45.0172 71.6207 45.122 71.4521C45.2269 71.2836 45.2868 71.091 45.296 70.8928C45.3052 70.6945 45.2635 70.4972 45.1747 70.3197L42.9683 65.9195ZM22.0651 52.2581H40.6457V65.0323H22.0651V52.2581ZM20.4602 69.6775L21.6215 67.3549H41.0893L42.2506 69.6775H20.4602Z" fill="#4D5F66"/>
<path d="M63.8709 0H54.5806C53.6566 0 52.7705 0.36705 52.1171 1.0204C51.4638 1.67375 51.0967 2.55989 51.0967 3.48387V19.7419C51.0967 20.6659 51.4638 21.552 52.1171 22.2054C52.7705 22.8588 53.6566 23.2258 54.5806 23.2258H63.8709C64.7949 23.2258 65.681 22.8588 66.3344 22.2054C66.9877 21.552 67.3548 20.6659 67.3548 19.7419V3.48387C67.3548 2.55989 66.9877 1.67375 66.3344 1.0204C65.681 0.36705 64.7949 0 63.8709 0ZM61.0989 2.32258L60.7111 3.48387H57.7405L57.3526 2.32258H61.0989ZM65.0322 19.7419C65.0322 20.0499 64.9099 20.3453 64.6921 20.5631C64.4743 20.7809 64.1789 20.9032 63.8709 20.9032H54.5806C54.2726 20.9032 53.9772 20.7809 53.7595 20.5631C53.5417 20.3453 53.4193 20.0499 53.4193 19.7419V3.48387C53.4193 3.17588 53.5417 2.8805 53.7595 2.66271C53.9772 2.44493 54.2726 2.32258 54.5806 2.32258H54.9058L55.8023 5.01213C55.8793 5.24328 56.027 5.44436 56.2246 5.58691C56.4222 5.72946 56.6596 5.80626 56.9032 5.80645H61.5484C61.792 5.80626 62.0294 5.72946 62.227 5.58691C62.4245 5.44436 62.5723 5.24328 62.6493 5.01213L63.5458 2.32258H63.8709C64.1789 2.32258 64.4743 2.44493 64.6921 2.66271C64.9099 2.8805 65.0322 3.17588 65.0322 3.48387V19.7419Z" fill="#4D5F66"/>
<path d="M14.1936 0H4.90324C3.97926 0 3.09313 0.36705 2.43978 1.0204C1.78643 1.67375 1.41937 2.55989 1.41937 3.48387V19.7419C1.41937 20.6659 1.78643 21.552 2.43978 22.2054C3.09313 22.8588 3.97926 23.2258 4.90324 23.2258H14.1936C15.1175 23.2258 16.0037 22.8588 16.657 22.2054C17.3104 21.552 17.6774 20.6659 17.6774 19.7419V3.48387C17.6774 2.55989 17.3104 1.67375 16.657 1.0204C16.0037 0.36705 15.1175 0 14.1936 0ZM11.4216 2.32258L11.0337 3.48387H8.06311L7.67524 2.32258H11.4216ZM15.3549 19.7419C15.3549 20.0499 15.2325 20.3453 15.0147 20.5631C14.7969 20.7809 14.5016 20.9032 14.1936 20.9032H4.90324C4.59525 20.9032 4.29987 20.7809 4.08209 20.5631C3.8643 20.3453 3.74195 20.0499 3.74195 19.7419V3.48387C3.74195 3.17588 3.8643 2.8805 4.08209 2.66271C4.29987 2.44493 4.59525 2.32258 4.90324 2.32258H5.2284L6.12492 5.01213C6.20191 5.24328 6.34964 5.44436 6.54721 5.58691C6.74479 5.72946 6.98219 5.80626 7.22582 5.80645H11.871C12.1146 5.80626 12.352 5.72946 12.5496 5.58691C12.7472 5.44436 12.8949 5.24328 12.9719 5.01213L13.8684 2.32258H14.1936C14.5016 2.32258 14.7969 2.44493 15.0147 2.66271C15.2325 2.8805 15.3549 3.17588 15.3549 3.48387V19.7419Z" fill="#4D5F66"/>
<path d="M2.32252 35.9999C2.32125 33.3582 2.67911 30.7285 3.38626 28.1832L1.14962 27.5585C-0.651483 34.0307 -0.329538 40.9099 2.06816 47.1856C4.46586 53.4612 8.81292 58.8026 14.4708 62.425L15.7226 60.4694C11.6078 57.8506 8.22174 54.2342 5.87899 49.9562C3.53624 45.6781 2.31286 40.8773 2.32252 35.9999ZM59.3233 28.1832C60.9898 34.1762 60.6909 40.5457 58.4706 46.3563C56.2502 52.167 52.2253 57.1126 46.9869 60.4671L48.2388 62.4227C53.8962 58.8004 58.2429 53.4594 60.6406 47.1842C63.0383 40.909 63.3605 34.0303 61.5599 27.5585L59.3233 28.1832ZM31.3548 4.64504C27.6513 4.64044 23.9764 5.29355 20.5014 6.57395L21.305 8.75369C25.3076 7.30505 29.577 6.74236 33.8183 7.10445C38.0596 7.46655 42.1717 8.74481 45.8709 10.851L47.0322 8.84078C42.2653 6.09017 36.8583 4.64308 31.3548 4.64504Z" fill="#4D5F66"/>
<path d="M45.033 32.1315C44.5773 29.2149 42.0488 26.9764 39.0062 26.9764C37.8616 26.9764 36.7617 27.293 35.8078 27.8837C34.3564 25.4446 31.7436 23.9268 28.8409 23.9268C24.3569 23.9268 20.7087 27.575 20.7087 32.059C20.7087 32.0868 20.7087 32.1156 20.7097 32.1434C17.8278 32.6288 15.5582 35.1413 15.5582 38.1582C15.5582 41.5215 18.3619 44.2574 21.7252 44.2574H44.0889C47.4522 44.2574 50.2559 41.5215 50.2559 38.1582C50.2559 35.1156 47.9495 32.5871 45.033 32.1315Z" fill="#4D5F66"/>
</svg>
