<svg width="132" height="132" viewBox="0 0 132 132" fill="none" xmlns="http://www.w3.org/2000/svg">
<g filter="url(#filter0_d_3637_161)">
<circle cx="66" cy="66" r="54" fill="url(#paint0_linear_3637_161)"/>
<circle cx="66" cy="66" r="53" stroke="#9DC9F7" stroke-width="2"/>
</g>
<path d="M69.5234 67.4707C69.9264 67.0678 70.5794 67.0677 70.9824 67.4707C71.385 67.8736 71.3845 68.5317 70.9824 68.9346L65.5654 74.3525C65.1624 74.7555 64.5094 74.7555 64.1064 74.3525C63.7035 73.9495 63.7039 73.2906 64.1064 72.8877L69.5234 67.4707Z" fill="url(#paint1_linear_3637_161)"/>
<path d="M69.3906 64.0791C69.7684 63.7013 70.3653 63.6783 70.7705 64.0088L70.8496 64.0791C71.2516 64.4819 71.2526 65.1351 70.8496 65.5381L62.1738 74.2197C61.7708 74.6227 61.1128 74.6217 60.71 74.2197C60.3102 73.82 60.3027 73.1606 60.709 72.7607L69.3906 64.0791Z" fill="url(#paint2_linear_3637_161)"/>
<path fill-rule="evenodd" clip-rule="evenodd" d="M65.8467 57.5137C72.3149 57.5137 77.6377 62.713 77.6377 69.2158C77.6376 75.7126 72.3082 80.9111 65.8467 80.9111C59.3851 80.9111 54.0558 75.7126 54.0557 69.2158C54.0557 62.7128 59.3849 57.5137 65.8467 57.5137ZM65.8467 59.5801C60.5064 59.5801 56.1221 63.8607 56.1221 69.2158L56.1348 69.7148C56.3972 74.8336 60.6731 78.8447 65.8467 78.8447L66.3447 78.833C71.4571 78.577 75.5712 74.403 75.5713 69.2158L75.5586 68.7168C75.3047 63.7625 71.2919 59.8399 66.3447 59.5918L65.8467 59.5801Z" fill="url(#paint3_linear_3637_161)"/>
<path fill-rule="evenodd" clip-rule="evenodd" d="M66.2793 52.3691C75.3801 52.5998 82.6981 60.0534 82.6982 69.2158L82.6924 69.6504C82.4654 78.607 75.2419 85.8365 66.2793 86.0635L65.8447 86.0693C56.6822 86.0693 49.2285 78.7573 48.998 69.6504L48.9922 69.2158C48.9924 59.9081 56.5434 52.3633 65.8447 52.3633L66.2793 52.3691ZM65.8447 54.4297C57.6749 54.4297 51.0588 61.046 51.0586 69.2158C51.0586 77.3858 57.6748 84.0029 65.8447 84.0029C74.0146 84.0029 80.6318 77.3796 80.6318 69.2158C80.6317 61.046 74.0146 54.4297 65.8447 54.4297Z" fill="url(#paint4_linear_3637_161)"/>
<path fill-rule="evenodd" clip-rule="evenodd" d="M80.7021 40.0361C81.974 40.0361 83.0075 41.0767 83.0078 42.3408V44.6641C83.0075 45.9281 81.974 46.9688 80.7021 46.9688H70.2363C68.9644 46.9688 67.931 45.9281 67.9307 44.6641V42.3408C67.9309 41.0767 68.9644 40.0361 70.2363 40.0361H80.7021ZM70.2363 42.1025C70.1026 42.1025 69.9973 42.208 69.9971 42.3408V44.6641L70.002 44.7109C70.0245 44.8186 70.1215 44.9023 70.2363 44.9023H80.7021C80.817 44.9023 80.914 44.8186 80.9365 44.7109L80.9414 44.6641V42.3408C80.9412 42.208 80.8359 42.1025 80.7021 42.1025H70.2363Z" fill="url(#paint5_linear_3637_161)"/>
<path d="M87.5947 40.3965C88.1632 40.3967 88.6279 40.8607 88.6279 41.4297V45.4229C88.6277 45.9915 88.1633 46.4558 87.5947 46.4561C87.1979 46.4561 86.8526 46.2298 86.6797 45.9004C86.5223 46.2001 86.2229 46.4142 85.8711 46.4502L85.7656 46.4561C85.1877 46.456 84.7326 45.9888 84.7324 45.4229V41.4297C84.7324 40.8633 85.1878 40.3965 85.7656 40.3965L85.8711 40.4023C86.2226 40.4383 86.5222 40.6518 86.6797 40.9512C86.8527 40.6221 87.1982 40.3965 87.5947 40.3965Z" fill="url(#paint6_linear_3637_161)"/>
<path fill-rule="evenodd" clip-rule="evenodd" d="M52.5498 41.0107C53.9223 41.0108 55.0506 42.1394 55.0508 43.5117L55.0371 43.7666C54.909 45.0261 53.8429 46.0137 52.5498 46.0137H43.665C42.3722 46.0135 41.3058 45.0261 41.1777 43.7666L41.1641 43.5117C41.1643 42.1331 42.2864 41.0109 43.665 41.0107H52.5498ZM43.665 43.0771C43.4306 43.0773 43.2306 43.2772 43.2305 43.5117C43.2305 43.7487 43.4265 43.9471 43.665 43.9473H52.5498L52.6357 43.9385C52.831 43.8968 52.9844 43.7176 52.9844 43.5117C52.9842 43.3009 52.836 43.1264 52.6377 43.0859L52.5498 43.0771H43.665Z" fill="url(#paint7_linear_3637_161)"/>
<path d="M63.8916 40.6934C64.2362 40.7162 64.5623 40.8062 64.8584 40.9473C65.2013 40.8549 65.5854 40.9389 65.8564 41.21C66.1282 41.4819 66.2083 41.8619 66.1162 42.2031C66.2832 42.551 66.3799 42.9406 66.3799 43.3535C66.3798 44.73 65.3312 45.863 63.9863 45.999L63.7139 46.0127C63.3033 46.0127 62.9141 45.9175 62.5664 45.751C62.2249 45.8421 61.8419 45.7629 61.5723 45.4863C61.3056 45.2166 61.2217 44.8398 61.3115 44.5C61.1442 44.1534 61.0479 43.7647 61.0479 43.3535C61.0479 41.879 62.2472 40.6876 63.7139 40.6875L63.8916 40.6934Z" fill="url(#paint8_linear_3637_161)"/>
<path fill-rule="evenodd" clip-rule="evenodd" d="M89.2139 37.5996C91.8971 37.5996 94.0879 39.7988 94.0879 42.4805V86.7568C94.0879 89.4708 91.8714 91.6884 89.1572 91.6885H87.9121C87.7894 92.3635 87.4619 92.9668 86.9971 93.4316C85.7087 94.7198 83.6386 94.7274 82.3428 93.4316C81.863 92.9519 81.5527 92.345 81.4355 91.6885H50.2607C50.138 92.3635 49.8106 92.9668 49.3457 93.4316C48.0574 94.7198 45.9872 94.7274 44.6914 93.4316C44.2117 92.9519 43.9014 92.345 43.7842 91.6885H42.4756C39.7931 91.6883 37.6016 89.4958 37.6016 86.8135V42.4805C37.6016 39.7921 39.7928 37.5997 42.4756 37.5996H89.2139ZM45.9424 91.6885C45.9982 91.7922 46.0674 91.8881 46.1494 91.9727C46.627 92.4503 47.4058 92.4546 47.8877 91.9727C47.9721 91.8882 48.0421 91.7923 48.0977 91.6885H45.9424ZM83.5938 91.6885C83.6493 91.7918 83.7182 91.8874 83.7998 91.9717L83.8945 92.0557C84.3809 92.4498 85.088 92.4237 85.5391 91.9727C85.624 91.8877 85.6954 91.7919 85.752 91.6885H83.5938ZM42.4756 39.6719C40.937 39.672 39.668 40.9364 39.668 42.4805V47.3252H90.418C90.9959 47.3252 91.4509 47.7925 91.4512 48.3584L91.4453 48.4629C91.3934 48.981 90.9599 49.3916 90.418 49.3916H39.668V86.8135C39.668 88.3518 40.9376 89.6219 42.4756 89.6221H89.1572L89.4492 89.6074C90.8894 89.4599 92.0215 88.2346 92.0215 86.7568V42.4805C92.0215 40.9357 90.7583 39.6719 89.2139 39.6719H42.4756Z" fill="url(#paint9_linear_3637_161)"/>
<defs>
<filter id="filter0_d_3637_161" x="0" y="0" width="132" height="132" filterUnits="userSpaceOnUse" color-interpolation-filters="sRGB">
<feFlood flood-opacity="0" result="BackgroundImageFix"/>
<feColorMatrix in="SourceAlpha" type="matrix" values="0 0 0 0 0 0 0 0 0 0 0 0 0 0 0 0 0 0 127 0" result="hardAlpha"/>
<feOffset/>
<feGaussianBlur stdDeviation="6"/>
<feComposite in2="hardAlpha" operator="out"/>
<feColorMatrix type="matrix" values="0 0 0 0 0.358173 0 0 0 0 0.616204 0 0 0 0 0.891827 0 0 0 1 0"/>
<feBlend mode="normal" in2="BackgroundImageFix" result="effect1_dropShadow_3637_161"/>
<feBlend mode="normal" in="SourceGraphic" in2="effect1_dropShadow_3637_161" result="shape"/>
</filter>
<linearGradient id="paint0_linear_3637_161" x1="12" y1="15.5" x2="120" y2="120" gradientUnits="userSpaceOnUse">
<stop stop-color="white"/>
<stop offset="1" stop-color="#9DC9F7"/>
</linearGradient>
<linearGradient id="paint1_linear_3637_161" x1="65.8447" y1="37.5996" x2="65.8447" y2="94.4006" gradientUnits="userSpaceOnUse">
<stop stop-color="#184D85"/>
<stop offset="1" stop-color="#31393C"/>
</linearGradient>
<linearGradient id="paint2_linear_3637_161" x1="65.8447" y1="37.5996" x2="65.8447" y2="94.4006" gradientUnits="userSpaceOnUse">
<stop stop-color="#184D85"/>
<stop offset="1" stop-color="#31393C"/>
</linearGradient>
<linearGradient id="paint3_linear_3637_161" x1="65.8447" y1="37.5996" x2="65.8447" y2="94.4006" gradientUnits="userSpaceOnUse">
<stop stop-color="#184D85"/>
<stop offset="1" stop-color="#31393C"/>
</linearGradient>
<linearGradient id="paint4_linear_3637_161" x1="65.8447" y1="37.5996" x2="65.8447" y2="94.4006" gradientUnits="userSpaceOnUse">
<stop stop-color="#184D85"/>
<stop offset="1" stop-color="#31393C"/>
</linearGradient>
<linearGradient id="paint5_linear_3637_161" x1="65.8447" y1="37.5996" x2="65.8447" y2="94.4006" gradientUnits="userSpaceOnUse">
<stop stop-color="#184D85"/>
<stop offset="1" stop-color="#31393C"/>
</linearGradient>
<linearGradient id="paint6_linear_3637_161" x1="65.8447" y1="37.5996" x2="65.8447" y2="94.4006" gradientUnits="userSpaceOnUse">
<stop stop-color="#184D85"/>
<stop offset="1" stop-color="#31393C"/>
</linearGradient>
<linearGradient id="paint7_linear_3637_161" x1="65.8447" y1="37.5996" x2="65.8447" y2="94.4006" gradientUnits="userSpaceOnUse">
<stop stop-color="#184D85"/>
<stop offset="1" stop-color="#31393C"/>
</linearGradient>
<linearGradient id="paint8_linear_3637_161" x1="65.8447" y1="37.5996" x2="65.8447" y2="94.4006" gradientUnits="userSpaceOnUse">
<stop stop-color="#184D85"/>
<stop offset="1" stop-color="#31393C"/>
</linearGradient>
<linearGradient id="paint9_linear_3637_161" x1="65.8447" y1="37.5996" x2="65.8447" y2="94.4006" gradientUnits="userSpaceOnUse">
<stop stop-color="#184D85"/>
<stop offset="1" stop-color="#31393C"/>
</linearGradient>
</defs>
</svg>
