<svg width="80" height="70" viewBox="0 0 80 70" fill="none" xmlns="http://www.w3.org/2000/svg">
<path fill-rule="evenodd" clip-rule="evenodd" d="M66.8396 6.06452V31.871H68.9041V5.03226C68.9041 4.75849 68.7953 4.49593 68.6017 4.30234C68.4081 4.10876 68.1456 4 67.8718 4H12.1299C11.8561 4 11.5936 4.10876 11.4 4.30234C11.2064 4.49593 11.0976 4.75849 11.0976 5.03226V31.871H13.1622V6.06452H66.8396ZM20.3871 29.8065C19.3663 29.8065 18.3684 29.5038 17.5196 28.9366C16.6709 28.3695 16.0093 27.5634 15.6187 26.6203C15.228 25.6772 15.1258 24.6395 15.325 23.6383C15.5241 22.6371 16.0157 21.7174 16.7375 20.9956C17.4593 20.2738 18.379 19.7822 19.3802 19.5831C20.3814 19.3839 21.4191 19.4861 22.3622 19.8768C23.3053 20.2674 24.1114 20.9289 24.6786 21.7777C25.2457 22.6265 25.5484 23.6244 25.5484 24.6452C25.5468 26.0135 25.0025 27.3254 24.0349 28.293C23.0673 29.2605 21.7555 29.8048 20.3871 29.8065ZM20.3871 21.5484C19.7746 21.5484 19.1759 21.73 18.6666 22.0703C18.1574 22.4106 17.7604 22.8942 17.5261 23.4601C17.2917 24.026 17.2303 24.6486 17.3498 25.2493C17.4693 25.85 17.7643 26.4018 18.1974 26.8349C18.6304 27.268 19.1822 27.563 19.783 27.6824C20.3837 27.8019 21.0063 27.7406 21.5722 27.5062C22.1381 27.2718 22.6217 26.8749 22.962 26.3657C23.3023 25.8564 23.4839 25.2577 23.4839 24.6452C23.4839 23.8239 23.1576 23.0362 22.5769 22.4554C21.9961 21.8747 21.2084 21.5484 20.3871 21.5484ZM17.2903 51.4839H9.03227C8.7585 51.4839 8.49594 51.3751 8.30235 51.1815C8.10877 50.9879 8.00001 50.7254 8.00001 50.4516C7.99696 47.5925 8.54257 44.7593 9.60724 42.1058L12.9796 33.6733C13.4308 32.5457 14.2626 31.6115 15.3306 31.0331C16.3985 30.4546 17.6353 30.2682 18.8263 30.5063C19.5206 30.6462 20.1792 30.926 20.7618 31.3287C21.3444 31.7314 21.839 32.2485 22.2152 32.8485L26.1677 39.1752L31.0194 39.8679C31.8323 39.9829 32.5713 40.402 33.0874 41.0405C33.6034 41.679 33.8582 42.4895 33.8001 43.3084C33.7421 44.1274 33.3757 44.8939 32.7747 45.4532C32.1738 46.0126 31.3831 46.3233 30.5621 46.3226H22.4516C22.2598 46.3227 22.0717 46.2693 21.9085 46.1685C21.7454 46.0677 21.6135 45.9233 21.5277 45.7517L19.8163 42.3288L18.305 50.6364C18.2618 50.8741 18.1366 51.089 17.9512 51.2439C17.7658 51.3988 17.5319 51.4837 17.2903 51.4839ZM10.0903 49.4194H16.4284L18.3401 38.912C18.379 38.699 18.4839 38.5036 18.64 38.3534C18.7961 38.2033 18.9954 38.1061 19.2098 38.0755C19.4242 38.0449 19.6428 38.0825 19.8346 38.183C20.0264 38.2834 20.1818 38.4417 20.2787 38.6354L23.0896 44.2581H30.5621C30.8597 44.2575 31.1462 44.1444 31.3639 43.9414C31.5816 43.7384 31.7144 43.4605 31.7357 43.1636C31.757 42.8667 31.6652 42.5727 31.4787 42.3407C31.2922 42.1087 31.0249 41.9558 30.7303 41.9128L25.4018 41.151C25.2531 41.1296 25.1108 41.0761 24.985 40.9941C24.8591 40.9121 24.7526 40.8036 24.673 40.6761L20.4645 33.9427C20.1577 33.452 19.7209 33.0558 19.2026 32.7981C18.6843 32.5404 18.1048 32.4313 17.5283 32.4828C16.9518 32.5343 16.4009 32.7445 15.9365 33.09C15.4721 33.4355 15.1125 33.9029 14.8976 34.4403L11.5241 42.8718C10.6868 44.9598 10.2022 47.1725 10.0903 49.4194ZM59.6129 29.8065C58.5921 29.8065 57.5942 29.5038 56.7454 28.9366C55.8967 28.3695 55.2351 27.5634 54.8445 26.6203C54.4538 25.6772 54.3516 24.6395 54.5508 23.6383C54.7499 22.6371 55.2415 21.7174 55.9633 20.9956C56.6851 20.2738 57.6048 19.7822 58.606 19.5831C59.6072 19.3839 60.6449 19.4861 61.588 19.8768C62.5311 20.2674 63.3372 20.9289 63.9044 21.7777C64.4715 22.6265 64.7742 23.6244 64.7742 24.6452C64.7725 26.0135 64.2282 27.3254 63.2607 28.293C62.2931 29.2605 60.9813 29.8048 59.6129 29.8065ZM59.6129 21.5484C59.0004 21.5484 58.4017 21.73 57.8924 22.0703C57.3832 22.4106 56.9862 22.8942 56.7519 23.4601C56.5175 24.026 56.4561 24.6486 56.5756 25.2493C56.6951 25.85 56.9901 26.4018 57.4231 26.8349C57.8562 27.268 58.408 27.563 59.0087 27.6824C59.6095 27.8019 60.2321 27.7406 60.798 27.5062C61.3638 27.2718 61.8475 26.8749 62.1878 26.3657C62.528 25.8564 62.7097 25.2577 62.7097 24.6452C62.7097 23.8239 62.3834 23.0362 61.8026 22.4554C61.2219 21.8747 60.4342 21.5484 59.6129 21.5484ZM70.9677 51.4839H62.7097C62.4681 51.4837 62.2342 51.3988 62.0488 51.2439C61.8634 51.089 61.7382 50.8741 61.695 50.6364L60.1837 42.3288L58.4774 45.7517C58.3913 45.9241 58.2586 46.069 58.0944 46.1698C57.9302 46.2707 57.7411 46.3236 57.5484 46.3226H49.4379C48.6167 46.3241 47.8254 46.014 47.2239 45.4548C46.6223 44.8957 46.2553 44.1292 46.1968 43.31C46.1384 42.4908 46.3929 41.6799 46.909 41.0411C47.4251 40.4022 48.1644 39.983 48.9775 39.8679L53.8292 39.1752L57.7837 32.8485C58.16 32.2485 58.6545 31.7314 59.2372 31.3287C59.8198 30.926 60.4783 30.6462 61.1726 30.5063C62.3637 30.2676 63.6007 30.4537 64.6688 31.0322C65.737 31.6108 66.5686 32.5453 67.0193 33.6733L70.3917 42.1058C71.4568 44.7593 72.0027 47.5924 72 50.4516C72 50.7254 71.8912 50.9879 71.6976 51.1815C71.5041 51.3751 71.2415 51.4839 70.9677 51.4839ZM63.5716 49.4194H69.9097C69.7978 47.1725 69.3132 44.9598 68.4759 42.8718L65.1024 34.4403C64.8876 33.9028 64.5282 33.4354 64.0639 33.0899C63.5996 32.7443 63.0487 32.5341 62.4722 32.4825C61.8958 32.431 61.3163 32.5402 60.7981 32.7979C60.2799 33.0557 59.8432 33.4519 59.5365 33.9427L55.327 40.6761C55.2474 40.8036 55.1409 40.9121 55.015 40.9941C54.8892 41.0761 54.7469 41.1296 54.5982 41.151L49.2697 41.9128C48.9751 41.9558 48.7078 42.1087 48.5213 42.3407C48.3348 42.5727 48.243 42.8667 48.2643 43.1636C48.2856 43.4605 48.4184 43.7384 48.6361 43.9414C48.8538 44.1444 49.1403 44.2575 49.4379 44.2581H56.9104L59.7213 38.6354C59.8182 38.4417 59.9736 38.2834 60.1654 38.183C60.3573 38.0825 60.5758 38.0449 60.7902 38.0755C61.0046 38.1061 61.2039 38.2033 61.36 38.3534C61.5161 38.5036 61.621 38.699 61.6599 38.912L63.5716 49.4194ZM53.0403 36.3759L51.6808 32.9034H28.3167L27.3618 35.3436L25.4439 34.5922L26.6547 31.4954C26.73 31.3026 26.8616 31.137 27.0322 31.0199C27.2028 30.9029 27.4047 30.8398 27.6116 30.8389H52.3858C52.5936 30.8387 52.7966 30.9013 52.9683 31.0185C53.1399 31.1356 53.2722 31.3018 53.3479 31.4954L54.9634 35.6244L53.0403 36.3759ZM39.9987 55.6131C38.3566 55.6114 36.7822 54.9584 35.621 53.7972C34.4599 52.636 33.8068 51.0616 33.8052 49.4195V48.3872C33.8052 46.7446 34.4577 45.1693 35.6192 44.0077C36.7807 42.8462 38.3561 42.1937 39.9987 42.1937C41.6414 42.1937 43.2167 42.8462 44.3782 44.0077C45.5397 45.1693 46.1923 46.7446 46.1923 48.3872V49.4195C46.1906 51.0616 45.5376 52.636 44.3764 53.7972C43.2152 54.9584 41.6409 55.6114 39.9987 55.6131ZM39.9987 44.2582C38.9036 44.2582 37.8534 44.6932 37.0791 45.4676C36.3047 46.2419 35.8697 47.2922 35.8697 48.3872V49.4195C35.8697 50.5146 36.3047 51.5648 37.0791 52.3392C37.8534 53.1135 38.9036 53.5485 39.9987 53.5485C41.0938 53.5485 42.144 53.1135 42.9184 52.3392C43.6927 51.5648 44.1278 50.5146 44.1278 49.4195V48.3872C44.1278 47.2922 43.6927 46.2419 42.9184 45.4676C42.144 44.6932 41.0938 44.2582 39.9987 44.2582ZM51.3536 66.9679H49.289V61.8066C49.289 60.9853 48.9628 60.1976 48.382 59.6168C47.8013 59.0361 47.0136 58.7098 46.1923 58.7098H33.8052C32.9839 58.7098 32.1962 59.0361 31.6154 59.6168C31.0347 60.1976 30.7084 60.9853 30.7084 61.8066V66.9679H28.6439V61.8066C28.6455 60.4382 29.1898 59.1264 30.1574 58.1588C31.125 57.1913 32.4368 56.6469 33.8052 56.6453H46.1923C47.5606 56.6469 48.8725 57.1913 49.84 58.1588C50.8076 59.1264 51.3519 60.4382 51.3536 61.8066V66.9679ZM61.6761 60.7743H52.3858V58.7098H60.6439V55.8071L57.4831 47.7307L59.4062 46.9792L62.6382 55.2373C62.6848 55.3571 62.7086 55.4845 62.7084 55.6131V59.7421C62.7084 60.0159 62.5996 60.2784 62.406 60.472C62.2125 60.6656 61.9499 60.7743 61.6761 60.7743ZM27.6116 60.7743H18.3213C18.0475 60.7743 17.785 60.6656 17.5914 60.472C17.3978 60.2784 17.2891 60.0159 17.2891 59.7421V55.6131C17.2889 55.4845 17.3127 55.3571 17.3592 55.2373L20.5912 46.9792L22.5154 47.7307L19.3536 55.8071V58.7098H27.6116V60.7743ZM29.3737 25.3751L27.914 23.9155L35.1399 16.6897C35.3334 16.4962 35.5959 16.3874 35.8697 16.3874C36.1434 16.3874 36.4059 16.4962 36.5995 16.6897L42.0632 22.1534L52.991 11.2256H49.288V9.16113H55.4816C55.7553 9.16113 56.0179 9.26989 56.2115 9.46347C56.4051 9.65706 56.5138 9.91962 56.5138 10.1934V16.3869H54.4493V12.6865L42.793 24.3428C42.5994 24.5363 42.3369 24.6451 42.0632 24.6451C41.7895 24.6451 41.527 24.5363 41.3334 24.3428L35.8697 18.8791L29.3737 25.3751ZM30.7074 9.16113H18.3203V11.2256H30.7074V9.16113ZM25.5461 13.2902H18.3203V15.3547H25.5461V13.2902Z" fill="#3E96F4"/>
</svg>
