<svg width="64" height="64" viewBox="0 0 64 64" fill="none" xmlns="http://www.w3.org/2000/svg">
<rect width="64" height="64" rx="8" fill="#EDF5FC"/>
<path d="M22.1304 43.9999C23.8593 43.9999 25.2609 42.5983 25.2609 40.8694C25.2609 39.1406 23.8593 37.739 22.1304 37.739C20.4015 37.739 19 39.1406 19 40.8694C19 42.5983 20.4015 43.9999 22.1304 43.9999Z" fill="#3E96F4"/>
<path d="M23.1739 24.1739H29.4348V27.2918H23.1739V24.1739ZM30.5008 24.1739H36.7616V27.2918H30.5008V24.1739ZM26.3269 20H33.6087V23.1179H26.3269V20Z" fill="#3E96F4"/>
<path d="M40.913 25.2173L37.7826 28.3477H19C19 32.957 22.7361 36.6955 27.3478 36.6955H31.5217L38.8261 43.9999H40.913L40.7912 32.8923V28.4312L41.9565 27.3042H45.087V25.2173H40.913ZM34.6522 36.6955H38.766L38.8261 40.8695L34.6522 36.6955Z" fill="#3E96F4"/>
</svg>
