<svg width="64" height="64" viewBox="0 0 64 64" fill="none" xmlns="http://www.w3.org/2000/svg">
<rect width="64" height="64" rx="8" fill="#EDF5FC"/>
<path d="M39.5733 20L24.4506 20C23.2741 19.9991 22.1451 20.4644 21.311 21.2941C20.4768 22.1238 20.0054 23.2503 20 24.4268V39.5493C20.0018 40.7291 20.4713 41.8601 21.3056 42.6944C22.1398 43.5287 23.2708 43.9982 24.4506 44H39.5733C40.7493 43.9928 41.8747 43.5208 42.704 42.6871C43.5333 41.8532 43.9991 40.7253 44 39.5493V24.4404C44.0018 23.858 43.8886 23.2809 43.6669 22.7422C43.4453 22.2036 43.1195 21.7139 42.7082 21.3014C42.297 20.8889 41.8084 20.5616 41.2704 20.3383C40.7325 20.115 40.1557 20 39.5733 20Z" fill="#3E96F4"/>
<path d="M28.7642 39.9999V38.3005C30.5931 38.0258 32 36.4438 32 34.5391C32 32.4417 30.2941 30.7354 28.1972 30.7354H26.8027C26.1001 30.7354 25.5284 30.1635 25.5284 29.4606C25.5284 28.7577 26.1001 28.186 26.8027 28.186H28.1652C28.8688 28.186 29.4412 28.7585 29.4412 29.4622H31.9696C31.9696 27.5678 30.5783 25.9927 28.7642 25.7045V24H26.2358V25.6995C24.4069 25.9741 23 27.5561 23 29.4607C23 31.5581 24.7059 33.2645 26.8027 33.2645H28.1972C28.8998 33.2645 29.4716 33.8364 29.4716 34.5392C29.4716 35.242 28.8999 35.8139 28.1972 35.8139H26.778C26.1001 35.8139 25.5486 35.2624 25.5486 34.5842H23.0201C23.0201 36.4726 24.4197 38.0396 26.2357 38.3033V40L28.7642 39.9999Z" fill="white"/>
<path d="M34 27.75L38 24V30H36.6V27.75H34Z" fill="white"/>
<path d="M34 36.25L38 40V34H36.6V36.25H34Z" fill="white"/>
<path d="M42 27.75L38 24V30H39.4V27.75H42Z" fill="white"/>
<path d="M42 36.25L38 40V34H39.4V36.25H42Z" fill="white"/>
</svg>
