<svg width="64" height="64" viewBox="0 0 64 64" fill="none" xmlns="http://www.w3.org/2000/svg">
<rect width="64" height="64" rx="8" fill="#EDF5FC"/>
<path d="M39.5733 20L24.4506 20C23.2741 19.9991 22.1451 20.4644 21.311 21.2941C20.4768 22.1238 20.0054 23.2503 20 24.4268V39.5493C20.0018 40.7291 20.4713 41.8601 21.3056 42.6944C22.1398 43.5287 23.2708 43.9982 24.4506 44H39.5733C40.7493 43.9928 41.8747 43.5208 42.704 42.6871C43.5333 41.8532 43.9991 40.7253 44 39.5493V24.4404C44.0018 23.858 43.8886 23.2809 43.6669 22.7422C43.4453 22.2036 43.1195 21.7139 42.7082 21.3014C42.297 20.8889 41.8084 20.5616 41.2704 20.3383C40.7325 20.115 40.1557 20 39.5733 20Z" fill="#3E96F4"/>
<path d="M24.0897 23H29.89C30.1055 23 30.3162 23.0639 30.4954 23.1837C30.6746 23.3034 30.8142 23.4736 30.8967 23.6727C30.9792 23.8718 31.0008 24.0909 30.9587 24.3023C30.9167 24.5137 30.8129 24.7079 30.6605 24.8603C30.5593 24.9615 30.4392 25.0417 30.307 25.0965C30.1748 25.1512 30.0331 25.1794 29.89 25.1794H24.0897C23.8742 25.1794 23.6635 25.1155 23.4843 24.9958C23.3051 24.876 23.1654 24.7059 23.0829 24.5067C23.0005 24.3076 22.9789 24.0885 23.0209 23.8771C23.063 23.6658 23.1668 23.4716 23.3192 23.3192C23.5236 23.1148 23.8007 23 24.0897 23Z" fill="white"/>
<path d="M27.0897 27H35.89C36.1055 27 36.3162 27.0639 36.4954 27.1837C36.6746 27.3034 36.8142 27.4736 36.8967 27.6727C36.9792 27.8718 37.0008 28.0909 36.9587 28.3023C36.9167 28.5137 36.8129 28.7079 36.6605 28.8603C36.5593 28.9615 36.4392 29.0417 36.307 29.0965C36.1748 29.1512 36.0331 29.1794 35.89 29.1794H27.0897C26.8742 29.1794 26.6635 29.1155 26.4843 28.9958C26.3051 28.876 26.1654 28.7059 26.0829 28.5067C26.0005 28.3076 25.9789 28.0885 26.0209 27.8771C26.063 27.6658 26.1668 27.4716 26.3192 27.3192C26.5236 27.1148 26.8007 27 27.0897 27Z" fill="white"/>
<path d="M33.0897 31H38.89C39.1055 31 39.3162 31.0639 39.4954 31.1837C39.6746 31.3034 39.8142 31.4736 39.8967 31.6727C39.9792 31.8718 40.0008 32.0909 39.9587 32.3023C39.9167 32.5137 39.8129 32.7079 39.6605 32.8603C39.5593 32.9615 39.4392 33.0417 39.307 33.0965C39.1748 33.1512 39.0331 33.1794 38.89 33.1794H33.0897C32.8742 33.1794 32.6635 33.1155 32.4843 32.9958C32.3051 32.876 32.1654 32.7059 32.0829 32.5067C32.0005 32.3076 31.9789 32.0885 32.0209 31.8771C32.063 31.6658 32.1668 31.4716 32.3192 31.3192C32.5236 31.1148 32.8007 31 33.0897 31Z" fill="white"/>
<path d="M28.0897 35H33.89C34.1055 35 34.3162 35.0639 34.4954 35.1837C34.6746 35.3034 34.8142 35.4736 34.8967 35.6727C34.9792 35.8718 35.0008 36.0909 34.9587 36.3023C34.9167 36.5137 34.8129 36.7079 34.6605 36.8603C34.5593 36.9615 34.4392 37.0417 34.307 37.0965C34.1748 37.1512 34.0331 37.1794 33.89 37.1794H28.0897C27.8742 37.1794 27.6635 37.1155 27.4843 36.9958C27.3051 36.876 27.1654 36.7059 27.0829 36.5067C27.0005 36.3076 26.9789 36.0885 27.0209 35.8771C27.063 35.6658 27.1668 35.4716 27.3192 35.3192C27.5236 35.1148 27.8007 35 28.0897 35Z" fill="white"/>
<path d="M31.0897 39H36.89C37.1055 39 37.3162 39.0639 37.4954 39.1837C37.6746 39.3034 37.8142 39.4736 37.8967 39.6727C37.9792 39.8718 38.0008 40.0909 37.9587 40.3023C37.9167 40.5137 37.8129 40.7079 37.6605 40.8603C37.5593 40.9615 37.4392 41.0417 37.307 41.0965C37.1748 41.1512 37.0331 41.1794 36.89 41.1794H31.0897C30.8742 41.1794 30.6635 41.1155 30.4843 40.9958C30.3051 40.876 30.1654 40.7059 30.0829 40.5067C30.0005 40.3076 29.9789 40.0885 30.0209 39.8771C30.063 39.6658 30.1668 39.4716 30.3192 39.3192C30.5236 39.1148 30.8007 39 31.0897 39Z" fill="white"/>
</svg>
