<svg width="16" height="18" viewBox="0 0 16 18" fill="none" xmlns="http://www.w3.org/2000/svg">
<g clip-path="url(#clip0_0_1409)">
<path d="M9.81236 10.818C9.81236 10.818 9.93792 10.6925 10.189 10.4414C10.4402 10.1902 10.5657 9.70977 10.5657 8.99995C10.5657 8.29013 10.3146 7.6841 9.81236 7.18187C9.31013 6.67964 8.70411 6.42852 7.99428 6.42852C7.28446 6.42852 6.67844 6.67964 6.1762 7.18187C5.67397 7.6841 5.42286 8.29013 5.42286 8.99995C5.42286 9.70977 5.67397 10.3158 6.1762 10.818C6.67844 11.3203 7.28446 11.5714 7.99428 11.5714C8.70411 11.5714 9.31013 11.3203 9.81236 10.818ZM10.7967 6.19749C10.7967 6.19749 10.9893 6.39001 11.3743 6.77506C11.7594 7.1601 11.9519 7.90173 11.9519 8.99995C11.9519 10.0982 11.5668 11.0323 10.7967 11.8024C10.0267 12.5725 9.0925 12.9575 7.99428 12.9575C6.89607 12.9575 5.96192 12.5725 5.19183 11.8024C4.42174 11.0323 4.0367 10.0982 4.0367 8.99995C4.0367 7.90173 4.42174 6.96758 5.19183 6.19749C5.96192 5.4274 6.89607 5.04236 7.99428 5.04236C9.0925 5.04236 10.0267 5.4274 10.7967 6.19749ZM12.7655 4.22874C12.7655 4.22874 12.8107 4.27394 12.9011 4.36435C12.9915 4.45475 13.0367 4.62718 13.0367 4.88164C13.0367 5.13611 12.9463 5.35374 12.7655 5.53455C12.5847 5.71535 12.3671 5.80575 12.1126 5.80575C11.8581 5.80575 11.6405 5.71535 11.4597 5.53455C11.2789 5.35374 11.1885 5.13611 11.1885 4.88164C11.1885 4.62718 11.2789 4.40955 11.4597 4.22874C11.6405 4.04794 11.8581 3.95754 12.1126 3.95754C12.3671 3.95754 12.5847 4.04794 12.7655 4.22874ZM8.7627 2.6668C8.7627 2.6668 8.64635 2.66764 8.41365 2.66931C8.18095 2.67099 8.04116 2.67182 7.99428 2.67182C7.94741 2.67182 7.69127 2.67015 7.22587 2.6668C6.76047 2.66345 6.40723 2.66345 6.16616 2.6668C5.92509 2.67015 5.60199 2.68019 5.19685 2.69693C4.79172 2.71368 4.44685 2.74716 4.16225 2.79738C3.87766 2.8476 3.63826 2.90955 3.44406 2.98321C3.10924 3.11714 2.8146 3.31133 2.56013 3.5658C2.30567 3.82026 2.11147 4.1149 1.97754 4.44972C1.90388 4.64392 1.84194 4.88332 1.79172 5.16792C1.74149 5.45251 1.70801 5.79738 1.69127 6.20251C1.67453 6.60765 1.66449 6.93075 1.66114 7.17182C1.65779 7.41289 1.65779 7.76613 1.66114 8.23153C1.66449 8.69693 1.66616 8.95307 1.66616 8.99995C1.66616 9.04682 1.66449 9.30296 1.66114 9.76836C1.65779 10.2338 1.65779 10.587 1.66114 10.8281C1.66449 11.0691 1.67453 11.3922 1.69127 11.7974C1.70801 12.2025 1.74149 12.5474 1.79172 12.832C1.84194 13.1166 1.90388 13.356 1.97754 13.5502C2.11147 13.885 2.30567 14.1796 2.56013 14.4341C2.8146 14.6886 3.10924 14.8828 3.44406 15.0167C3.63826 15.0903 3.87766 15.1523 4.16225 15.2025C4.44685 15.2527 4.79172 15.2862 5.19685 15.303C5.60199 15.3197 5.92509 15.3297 6.16616 15.3331C6.40723 15.3364 6.76047 15.3364 7.22587 15.3331C7.69127 15.3297 7.94741 15.3281 7.99428 15.3281C8.04116 15.3281 8.2973 15.3297 8.7627 15.3331C9.2281 15.3364 9.58134 15.3364 9.82241 15.3331C10.0635 15.3297 10.3866 15.3197 10.7917 15.303C11.1969 15.2862 11.5417 15.2527 11.8263 15.2025C12.1109 15.1523 12.3503 15.0903 12.5445 15.0167C12.8793 14.8828 13.174 14.6886 13.4284 14.4341C13.6829 14.1796 13.8771 13.885 14.011 13.5502C14.0847 13.356 14.1466 13.1166 14.1969 12.832C14.2471 12.5474 14.2806 12.2025 14.2973 11.7974C14.314 11.3922 14.3241 11.0691 14.3274 10.8281C14.3308 10.587 14.3308 10.2338 14.3274 9.76836C14.3241 9.30296 14.3224 9.04682 14.3224 8.99995C14.3224 8.95307 14.3241 8.69693 14.3274 8.23153C14.3308 7.76613 14.3308 7.41289 14.3274 7.17182C14.3241 6.93075 14.314 6.60765 14.2973 6.20251C14.2806 5.79738 14.2471 5.45251 14.1969 5.16792C14.1466 4.88332 14.0847 4.64392 14.011 4.44972C13.8771 4.1149 13.6829 3.82026 13.4284 3.5658C13.174 3.31133 12.8793 3.11714 12.5445 2.98321C12.3503 2.90955 12.1109 2.8476 11.8263 2.79738C11.5417 2.74716 11.1969 2.71368 10.7917 2.69693C10.3866 2.68019 10.0635 2.67015 9.82241 2.6668C9.58134 2.66345 9.2281 2.66345 8.7627 2.6668ZM15.6583 5.8158C15.6918 6.40508 15.7086 7.46647 15.7086 8.99995C15.7086 10.5334 15.6918 11.5948 15.6583 12.1841C15.5914 13.577 15.1762 14.6551 14.4128 15.4185C13.6494 16.1819 12.5713 16.597 11.1784 16.664C10.5892 16.6975 9.52777 16.7142 7.99428 16.7142C6.4608 16.7142 5.39942 16.6975 4.81013 16.664C3.41728 16.597 2.33915 16.1819 1.57576 15.4185C0.812365 14.6551 0.397186 13.577 0.330222 12.1841C0.29674 11.5948 0.279999 10.5334 0.279999 8.99995C0.279999 7.46647 0.29674 6.40508 0.330222 5.8158C0.397186 4.42294 0.812365 3.34481 1.57576 2.58142C2.33915 1.81803 3.41728 1.40285 4.81013 1.33589C5.39942 1.3024 6.4608 1.28566 7.99428 1.28566C9.52777 1.28566 10.5892 1.3024 11.1784 1.33589C12.5713 1.40285 13.6494 1.81803 14.4128 2.58142C15.1762 3.34481 15.5914 4.42294 15.6583 5.8158Z" fill="#31393C"/>
</g>
<defs>
<clipPath id="clip0_0_1409">
<rect width="15.4286" height="18" fill="white" transform="matrix(1 0 0 -1 0.279999 18)"/>
</clipPath>
</defs>
</svg>
