<svg width="63" height="64" viewBox="0 0 63 64" fill="none" xmlns="http://www.w3.org/2000/svg">
<path d="M55.3873 36.0313C55.3873 35.0114 56.0273 34.0814 56.9673 33.7215L60.7171 32.2615C60.8134 32.2234 60.9006 32.1654 60.973 32.0913C61.0453 32.0171 61.1013 31.9286 61.1371 31.8314C61.173 31.7342 61.188 31.6306 61.181 31.5272C61.1741 31.4239 61.1455 31.3231 61.0971 31.2316L57.1173 23.9019C57.3472 22.632 57.4572 21.342 57.4472 20.0621C57.3472 9.65261 49.1576 0.873033 38.8081 0.0630719C33.2584 -0.366907 27.9687 1.41301 23.8289 5.05283H13.9593C13.7093 5.05283 13.4794 5.18283 13.3394 5.39282L7.39964 14.6724H2.1799C1.77991 14.6724 1.44993 15.0024 1.44993 15.4023C1.44993 15.8023 1.77991 16.1323 2.1799 16.1323H7.80963C8.05961 16.1323 8.2896 16.0023 8.4296 15.7923L14.3693 6.51276H32.3184L37.0882 8.59266C37.0082 8.86265 36.9482 9.13264 36.9482 9.43262C36.9482 11.0325 38.2482 12.3425 39.8581 12.3425C41.468 12.3425 42.7679 11.0425 42.7679 9.43262C42.7679 7.8227 41.468 6.52276 39.8581 6.52276C39.0781 6.52276 38.3782 6.83275 37.8582 7.33272L32.7684 5.11283C32.677 5.07287 32.5782 5.05243 32.4784 5.05283H26.2087C29.8086 2.43296 34.1584 1.17302 38.6881 1.523C48.2877 2.27297 55.8773 10.4226 55.9773 20.0821C55.9865 21.3775 55.8659 22.6706 55.6173 23.9419C55.5773 24.1719 55.6473 24.4019 55.8073 24.5619L59.4172 31.1916L56.4373 32.3515C54.9074 32.9515 53.9174 34.3914 53.9174 36.0313V42.511C53.9174 43.111 53.4274 43.601 52.8275 43.601H46.2178C45.8178 43.601 45.4878 43.931 45.4878 44.3309V50.4107H28.0887V37.1413C28.0887 36.8813 27.9487 36.6413 27.7187 36.5113C26.4787 35.8014 25.3288 34.9414 24.2988 33.9514L24.2788 33.9314C24.1188 33.7915 23.9289 33.5915 23.7389 33.3815H29.3386L34.2184 40.6911C34.3584 40.8911 34.5783 41.0211 34.8283 41.0211H38.5582C38.7189 41.6417 39.0809 42.1914 39.5876 42.5841C40.0943 42.9768 40.717 43.1902 41.358 43.191C42.9579 43.191 44.2679 41.8911 44.2679 40.2811C44.2679 38.6812 42.9679 37.3713 41.358 37.3713C40.0081 37.3713 38.8881 38.3012 38.5582 39.5412H35.2183L31.0985 33.3715H37.2882C37.4489 33.992 37.811 34.5418 38.3177 34.9344C38.8244 35.3271 39.447 35.5406 40.0881 35.5414C41.688 35.5414 42.9979 34.2414 42.9979 32.6315C42.9979 31.0316 41.698 29.7216 40.0881 29.7216C38.7381 29.7216 37.6182 30.6516 37.2882 31.8915H13.9493L7.49964 22.722C7.43095 22.6269 7.34085 22.5493 7.23663 22.4954C7.13241 22.4416 7.01698 22.413 6.89967 22.412H2.1799C1.77991 22.412 1.44993 22.742 1.44993 23.142C1.44993 23.5419 1.77991 23.8719 2.1799 23.8719H6.51969L12.9694 33.0415C13.1094 33.2315 13.3294 33.3515 13.5693 33.3515H21.799C22.3189 33.9814 22.8689 34.6114 23.2989 34.9914C24.3088 35.9513 25.4288 36.8013 26.6187 37.5213V50.3907C25.0788 50.4307 23.8489 51.6906 23.8489 53.3005C23.8489 53.8005 23.9888 54.2705 24.2188 54.6804H15.7292L15.8792 53.8105C16.4092 53.6405 16.9192 53.4305 17.4092 53.1605L18.5891 54.0105C18.8791 54.2205 19.2891 54.1905 19.5491 53.9305L21.599 51.7906C21.7146 51.669 21.7855 51.5118 21.8001 51.3446C21.8146 51.1775 21.7719 51.0103 21.679 50.8706L20.839 49.6107C21.119 49.0707 21.329 48.5307 21.489 47.9708L22.9089 47.7108C23.2589 47.6508 23.5089 47.3408 23.5089 46.9908V43.971C23.5093 43.7996 23.4494 43.6336 23.3397 43.502C23.23 43.3704 23.0775 43.2815 22.9089 43.251L21.499 42.991C21.339 42.431 21.119 41.8811 20.849 41.3511L21.689 40.0911C21.7819 39.9515 21.8246 39.7843 21.8101 39.6172C21.7955 39.45 21.7246 39.2927 21.609 39.1712L19.5591 37.0313C19.4358 36.9048 19.2715 36.8262 19.0956 36.8097C18.9198 36.7933 18.7437 36.8399 18.5991 36.9413L17.4192 37.7913C16.9352 37.5179 16.422 37.2999 15.8892 37.1413L15.6293 35.6314C15.5994 35.4616 15.511 35.3077 15.3795 35.1963C15.248 35.0849 15.0816 35.023 14.9093 35.0214H12.0194C11.8466 35.0214 11.6795 35.0827 11.5476 35.1944C11.4158 35.3061 11.3279 35.4609 11.2995 35.6314L11.0395 37.1413C10.4995 37.3113 9.98952 37.5213 9.49954 37.8013L8.3196 36.9513C8.17569 36.8479 7.99922 36.8 7.82277 36.8166C7.64633 36.8331 7.48183 36.9129 7.35965 37.0413L5.31975 39.1812C5.07976 39.4312 5.04976 39.8112 5.23975 40.0911L6.07971 41.3511C5.79972 41.8811 5.57973 42.431 5.41974 42.991L4.01981 43.251C3.85121 43.2815 3.69871 43.3704 3.58902 43.502C3.47934 43.6336 3.41944 43.7996 3.41984 43.971V46.9908C3.41984 47.3408 3.66982 47.6508 4.01981 47.7108L5.42974 47.9708C5.58973 48.5307 5.79972 49.0807 6.07971 49.6107L5.23975 50.8706C5.04976 51.1606 5.07976 51.5406 5.31975 51.7806L7.35965 53.9205C7.60963 54.1905 8.02961 54.2205 8.3196 54.0105L9.49954 53.1605C9.98952 53.4305 10.4995 53.6505 11.0395 53.8205L11.1895 54.6904H0.729965C0.329984 54.6904 0 55.0204 0 55.4204C0 55.8204 0.329984 56.1504 0.729965 56.1504H49.5776C50.2476 56.1504 50.7976 56.7003 50.7976 57.3703C50.7976 58.0403 50.2476 58.5903 49.5776 58.5903H14.4093C14.3893 58.5903 14.3793 58.6003 14.3693 58.6003C14.2993 58.6003 14.2393 58.6203 14.1793 58.6403C14.1593 58.6503 14.1293 58.6503 14.1093 58.6703C14.0321 58.7051 13.9612 58.7524 13.8993 58.8102C13.7611 58.9483 13.6821 59.1349 13.6793 59.3302C13.6793 59.7302 14.0093 60.0602 14.4093 60.0602H49.5876C51.0676 60.0602 52.2775 58.8502 52.2775 57.3703C52.2775 55.8904 51.0676 54.6804 49.5876 54.6804H49.3476C49.5776 54.2705 49.7176 53.8005 49.7176 53.3005V53.2205C49.7176 51.6806 48.4777 50.4307 46.9477 50.3907V45.0309H52.8375C54.2474 45.0309 55.3973 43.881 55.3973 42.471V36.0313H55.3873ZM39.8581 8.00269C40.648 8.00269 41.298 8.65266 41.298 9.44262C41.298 10.2326 40.648 10.8826 39.8581 10.8826C39.0681 10.8826 38.4182 10.2326 38.4182 9.44262C38.4182 8.64266 39.0581 8.00269 39.8581 8.00269ZM41.358 38.8512C42.148 38.8512 42.7979 39.5012 42.7979 40.2911C42.7979 41.0811 42.148 41.7311 41.358 41.7311C40.5681 41.7311 39.9181 41.0811 39.9181 40.2911C39.9181 39.5012 40.5581 38.8512 41.358 38.8512ZM40.0881 31.2116C40.878 31.2116 41.528 31.8615 41.528 32.6515C41.528 33.4415 40.878 34.0914 40.0881 34.0914C39.2981 34.0914 38.6481 33.4415 38.6481 32.6515C38.6481 31.8615 39.2881 31.2116 40.0881 31.2116ZM9.84953 51.7006C9.72505 51.6205 9.57943 51.5797 9.43148 51.5832C9.28353 51.5868 9.14005 51.6346 9.01957 51.7206L7.96962 52.4806L6.77968 51.2306L7.53964 50.0907C7.69963 49.8607 7.69963 49.5507 7.55964 49.3107C7.17418 48.6624 6.89404 47.957 6.72968 47.2208C6.70106 47.0787 6.63051 46.9484 6.52713 46.8468C6.42375 46.7452 6.29228 46.677 6.1497 46.6508L4.87977 46.4208V44.6209L6.1497 44.3909C6.43969 44.3409 6.66968 44.121 6.72968 43.831C6.88967 43.101 7.17966 42.391 7.56964 41.7311C7.70963 41.4911 7.70963 41.1811 7.54964 40.9511L6.77968 39.8012L7.96962 38.5512L9.01957 39.3112C9.25956 39.4912 9.58954 39.5012 9.84953 39.3312C10.4595 38.9412 11.1295 38.6512 11.8494 38.4812C12.1294 38.4112 12.3494 38.1812 12.3994 37.8913L12.6294 36.5313H14.2793L14.5093 37.8913C14.5593 38.1812 14.7693 38.4112 15.0593 38.4812C15.7692 38.6512 16.4392 38.9412 17.0492 39.3312C17.3092 39.4912 17.6292 39.4812 17.8791 39.3112L18.9291 38.5512L20.129 39.8012L19.3691 40.9411C19.2191 41.1711 19.2091 41.4711 19.3491 41.7111C19.7391 42.381 20.019 43.091 20.179 43.821C20.239 44.111 20.469 44.3309 20.759 44.3809L22.0289 44.6109V46.4108L20.749 46.6508C20.459 46.7008 20.229 46.9308 20.169 47.2208C20.019 47.9408 19.7491 48.6207 19.3491 49.3207C19.2091 49.5607 19.2191 49.8607 19.3691 50.0907L20.129 51.2306L18.9291 52.4806L17.8791 51.7206C17.7597 51.6321 17.6159 51.5827 17.4673 51.5791C17.3188 51.5756 17.1727 51.618 17.0492 51.7006C16.4392 52.0906 15.7692 52.3806 15.0593 52.5505C14.7793 52.6205 14.5593 52.8505 14.5093 53.1405L14.2793 54.5005H12.6194L12.3894 53.1405C12.3662 52.9989 12.3016 52.8673 12.2037 52.7623C12.1059 52.6573 11.9791 52.5836 11.8394 52.5505C11.1295 52.3806 10.4595 52.0906 9.84953 51.7006ZM48.2577 53.2605V53.3405C48.2577 54.1005 47.6377 54.7204 46.8677 54.7204H26.6987C25.9288 54.7204 25.3088 54.1005 25.3088 53.2605C25.3088 52.5005 25.9288 51.8806 26.6987 51.8806H46.8677C47.6277 51.8806 48.2577 52.5005 48.2577 53.2605Z" fill="url(#paint0_linear_1_483)"/>
<path d="M52.5275 20.2721C52.5275 20.6721 52.8575 21.0021 53.2574 21.0021C53.6574 21.0021 53.9874 20.6721 53.9874 20.2721C53.9874 14.3424 50.8076 8.79265 45.6778 5.7728C45.5953 5.72319 45.5038 5.69054 45.4086 5.67677C45.3133 5.663 45.2163 5.66837 45.1232 5.69259C45.03 5.7168 44.9427 5.75937 44.8662 5.81778C44.7897 5.8762 44.7257 5.9493 44.6779 6.03279C44.4679 6.38277 44.5879 6.83275 44.9378 7.03274C49.6176 9.79261 52.5275 14.8624 52.5275 20.2721ZM39.3381 3.5929C39.1506 3.57721 38.9642 3.63436 38.8177 3.75248C38.6712 3.8706 38.5758 4.04062 38.5513 4.22722C38.5269 4.41382 38.5752 4.60267 38.6864 4.75456C38.7975 4.90644 38.9629 5.00968 39.1481 5.04283C39.4581 5.08283 39.7681 5.13283 40.0681 5.19283C40.1181 5.20283 40.1581 5.20283 40.2081 5.20283C40.548 5.20283 40.858 4.96284 40.928 4.61286C40.9469 4.51827 40.9468 4.42088 40.9278 4.32632C40.9088 4.23177 40.8713 4.14191 40.8174 4.06195C40.7634 3.98198 40.6942 3.9135 40.6136 3.86046C40.5331 3.80741 40.4428 3.77085 40.3481 3.7529C40.0081 3.6929 39.6781 3.6429 39.3381 3.5929ZM44.3079 5.8428C44.4679 5.47281 44.2979 5.04283 43.9279 4.87284C43.6179 4.73285 43.2979 4.61286 42.9779 4.49286C42.598 4.35287 42.178 4.54286 42.038 4.92284C41.898 5.30282 42.088 5.7228 42.468 5.8628C42.7579 5.97279 43.0479 6.09278 43.3379 6.21278C43.4379 6.25278 43.5379 6.27278 43.6279 6.27278C43.9179 6.28278 44.1879 6.11278 44.3079 5.8428ZM26.3487 12.5925C26.5094 13.213 26.8715 13.7628 27.3782 14.1554C27.8849 14.5481 28.5076 14.7616 29.1486 14.7624C30.7485 14.7624 32.0585 13.4624 32.0585 11.8525C32.0585 10.2526 30.7585 8.94265 29.1486 8.94265C27.7987 8.94265 26.6787 9.8726 26.3487 11.1125H16.5192C16.2792 11.1125 16.0592 11.2325 15.9192 11.4225L10.6195 18.9622C10.5995 18.9922 10.5895 19.0222 10.5795 19.0522C10.5695 19.0822 10.5495 19.1022 10.5395 19.1322C10.4795 19.3021 10.4795 19.4821 10.5395 19.6421C10.5495 19.6721 10.5595 19.6921 10.5795 19.7221C10.5995 19.7521 10.5995 19.7821 10.6195 19.8121L15.9192 27.3518C16.0592 27.5418 16.2792 27.6617 16.5192 27.6617H44.1179C44.2786 28.2823 44.6407 28.832 45.1474 29.2247C45.654 29.6174 46.2767 29.8309 46.9177 29.8316C48.5177 29.8316 49.8276 28.5317 49.8276 26.9218C49.8276 25.3119 48.5277 24.0119 46.9177 24.0119C45.5678 24.0119 44.4479 24.9419 44.1179 26.1818H30.6485L34.7083 20.1121H38.8981C39.0774 20.7074 39.4436 21.2291 39.9425 21.6001C40.4413 21.9711 41.0463 22.1716 41.668 22.172C43.2679 22.172 44.5779 20.8721 44.5779 19.2622C44.5779 17.6622 43.2779 16.3523 41.668 16.3523C40.2781 16.3523 39.1181 17.3322 38.8281 18.6322H34.3184C34.1971 18.6314 34.0777 18.6612 33.971 18.7189C33.8644 18.7766 33.774 18.8603 33.7084 18.9622L28.8886 26.1718H16.8992L12.6294 20.1021H23.1189C23.2796 20.7227 23.6417 21.2724 24.1484 21.6651C24.6551 22.0578 25.2777 22.2712 25.9188 22.272C27.5187 22.272 28.8286 20.9721 28.8286 19.3621C28.8286 17.7622 27.5287 16.4523 25.9188 16.4523C24.5688 16.4523 23.4489 17.3822 23.1189 18.6222H12.6294L16.8992 12.5525H26.3487V12.5925ZM29.1486 10.4226C29.9386 10.4226 30.5885 11.0725 30.5885 11.8625C30.5885 12.6525 29.9386 13.3024 29.1486 13.3024C28.3586 13.3024 27.7087 12.6525 27.7087 11.8625C27.7087 11.0725 28.3486 10.4226 29.1486 10.4226ZM41.658 17.8522C42.448 17.8522 43.0979 18.5022 43.0979 19.2922C43.0979 20.0821 42.448 20.7321 41.658 20.7321C40.868 20.7321 40.2181 20.0821 40.2181 19.2922C40.2181 18.5022 40.868 17.8522 41.658 17.8522ZM46.9177 25.5019C47.7077 25.5019 48.3577 26.1518 48.3577 26.9418C48.3577 27.7317 47.7077 28.3817 46.9177 28.3817C46.1278 28.3817 45.4778 27.7317 45.4778 26.9418C45.4778 26.1518 46.1278 25.5019 46.9177 25.5019ZM25.9288 17.9622C26.7187 17.9622 27.3687 18.6122 27.3687 19.4021C27.3687 20.1921 26.7187 20.8421 25.9288 20.8421C25.1388 20.8421 24.4888 20.1921 24.4888 19.4021C24.4888 18.6122 25.1288 17.9622 25.9288 17.9622ZM8.65959 20.1321C9.05957 20.1321 9.38955 19.8021 9.38955 19.4021C9.38955 19.0022 9.05957 18.6722 8.65959 18.6722H5.89972C5.49974 18.6722 5.16975 19.0022 5.16975 19.4021C5.16975 19.8021 5.49974 20.1321 5.89972 20.1321H8.65959ZM17.6592 45.5209C17.6592 43.121 15.7692 41.1711 13.4594 41.1711C11.1395 41.1711 9.24956 43.121 9.24956 45.5209C9.24956 47.9208 11.1395 49.8707 13.4594 49.8707C15.7692 49.8707 17.6592 47.9208 17.6592 45.5209ZM10.6995 45.5209C10.6995 43.931 11.9294 42.631 13.4494 42.631C14.9593 42.631 16.1892 43.931 16.1892 45.5209C16.1892 47.1108 14.9593 48.4108 13.4494 48.4108C11.9394 48.4108 10.6995 47.1108 10.6995 45.5209ZM9.66954 41.8311C9.79207 41.7028 9.85954 41.5317 9.85751 41.3543C9.85548 41.1769 9.78412 41.0074 9.65869 40.882C9.53326 40.7565 9.36372 40.6852 9.18635 40.6831C9.00897 40.6811 8.83785 40.7486 8.70958 40.8711C8.4496 41.1311 8.4596 41.5611 8.71958 41.8211C8.98957 42.0911 9.40955 42.0911 9.66954 41.8311ZM17.2192 49.3807C16.9592 49.6407 16.9692 50.0707 17.2292 50.3307C17.4892 50.5906 17.9191 50.6006 18.1791 50.3407C18.3017 50.2124 18.3691 50.0413 18.3671 49.8639C18.3651 49.6865 18.2937 49.517 18.1683 49.3916C18.0428 49.2661 17.8733 49.1948 17.6959 49.1927C17.5186 49.1907 17.3474 49.2582 17.2192 49.3807ZM7.43965 44.9309C7.26196 44.9309 7.09155 45.0015 6.96591 45.1272C6.84026 45.2528 6.76968 45.4232 6.76968 45.6009C6.76968 45.7786 6.84026 45.949 6.96591 46.0746C7.09155 46.2003 7.26196 46.2709 7.43965 46.2709C7.80963 46.2709 8.11961 45.9809 8.11961 45.6109C8.11779 45.4311 8.04557 45.2592 7.91844 45.1321C7.79131 45.005 7.61942 44.9327 7.43965 44.9309ZM19.4691 46.2709C19.8391 46.2709 20.149 45.9809 20.149 45.6109C20.149 45.4305 20.0774 45.2576 19.9499 45.1301C19.8224 45.0026 19.6494 44.9309 19.4691 44.9309C19.2887 44.9309 19.1158 45.0026 18.9883 45.1301C18.8607 45.2576 18.7891 45.4305 18.7891 45.6109C18.7891 45.9809 19.0991 46.2709 19.4691 46.2709ZM8.71958 49.3807C8.4596 49.6407 8.4496 50.0707 8.71958 50.3407C8.97957 50.6006 9.40955 50.5906 9.66954 50.3307C9.92952 50.0707 9.93952 49.6407 9.67954 49.3807C9.55222 49.2535 9.37957 49.182 9.19956 49.182C9.01955 49.182 8.8469 49.2535 8.71958 49.3807ZM18.1791 41.8211C18.4391 41.5611 18.4491 41.1311 18.1891 40.8711C18.0609 40.7486 17.8897 40.6811 17.7124 40.6831C17.535 40.6852 17.3655 40.7565 17.24 40.882C17.1146 41.0074 17.0432 41.1769 17.0412 41.3543C17.0392 41.5317 17.1066 41.7028 17.2292 41.8311C17.4892 42.1011 17.9191 42.0911 18.1791 41.8211ZM13.4594 50.9406C13.279 50.9406 13.1061 51.0123 12.9785 51.1398C12.851 51.2673 12.7794 51.4403 12.7794 51.6206C12.7794 51.8009 12.851 51.9739 12.9785 52.1014C13.1061 52.2289 13.279 52.3006 13.4594 52.3006C13.8293 52.3006 14.1193 51.9906 14.1193 51.6206C14.1193 51.2506 13.8293 50.9406 13.4594 50.9406ZM13.4594 40.2611C13.8293 40.2611 14.1193 39.9512 14.1193 39.5812C14.1193 39.2112 13.8293 38.9012 13.4594 38.9012C13.279 38.9012 13.1061 38.9728 12.9785 39.1004C12.851 39.2279 12.7794 39.4008 12.7794 39.5812C12.7794 39.7615 12.851 39.9345 12.9785 40.062C13.1061 40.1895 13.279 40.2611 13.4594 40.2611ZM41.768 62.5301H20.269C20.0741 62.5301 19.8872 62.6075 19.7493 62.7453C19.6115 62.8832 19.5341 63.0701 19.5341 63.265C19.5341 63.46 19.6115 63.6469 19.7493 63.7847C19.8872 63.9226 20.0741 64 20.269 64H41.768C41.9629 64 42.1499 63.9226 42.2877 63.7847C42.4255 63.6469 42.503 63.46 42.503 63.265C42.503 63.0701 42.4255 62.8832 42.2877 62.7453C42.1499 62.6075 41.9629 62.5301 41.768 62.5301ZM61.3071 54.7205H55.4473C55.0474 54.7205 54.7174 55.0504 54.7174 55.4504C54.7174 55.8504 55.0474 56.1804 55.4473 56.1804H61.3071C61.707 56.1804 62.037 55.8504 62.037 55.4504C62.037 55.0504 61.707 54.7205 61.3071 54.7205ZM10.7795 58.6803C10.6473 58.6226 10.5006 58.607 10.3593 58.6356C10.2179 58.6642 10.0888 58.7357 9.98952 58.8403C9.84953 58.9802 9.77953 59.1602 9.77953 59.3602C9.77953 59.5602 9.85953 59.7402 9.98952 59.8802C10.1295 60.0202 10.3095 60.0902 10.5095 60.0902C10.7095 60.0902 10.8895 60.0102 11.0295 59.8802C11.1695 59.7402 11.2395 59.5602 11.2395 59.3602C11.2395 59.1602 11.1595 58.9802 11.0295 58.8403C10.9549 58.7743 10.8706 58.7204 10.7795 58.6803Z" fill="url(#paint1_linear_1_483)"/>
<defs>
<linearGradient id="paint0_linear_1_483" x1="9.55696" y1="9.38485" x2="50.8435" y2="51.4285" gradientUnits="userSpaceOnUse">
<stop stop-color="#FE5B52"/>
<stop offset="1" stop-color="#3E96F4"/>
</linearGradient>
<linearGradient id="paint1_linear_1_483" x1="14.0526" y1="13.0298" x2="55.5096" y2="52.0424" gradientUnits="userSpaceOnUse">
<stop stop-color="#FE5B52"/>
<stop offset="1" stop-color="#3E96F4"/>
</linearGradient>
</defs>
</svg>
