<svg width="19" height="15" viewBox="0 0 19 15" fill="none" xmlns="http://www.w3.org/2000/svg">
<path d="M17.4167 0.564941H1.58335C0.710088 0.564941 0 1.27503 0 2.14829V13.2316C0 14.1049 0.710088 14.8149 1.58335 14.8149H17.4167C18.2899 14.8149 19 14.1049 19 13.2316V2.14829C19 1.27503 18.2899 0.564941 17.4167 0.564941ZM1.58335 1.3566H17.4167C17.475 1.3566 17.5264 1.37786 17.5812 1.38988C16.2104 2.64444 11.6651 6.80262 10.0745 8.23575C9.94999 8.34785 9.74938 8.4816 9.50004 8.4816C9.2507 8.4816 9.05009 8.34785 8.92521 8.23537C7.33474 6.80247 2.78918 2.64407 1.41862 1.38996C1.47346 1.37793 1.52497 1.3566 1.58335 1.3566ZM0.791654 13.2316V2.14829C0.791654 2.07073 0.815033 2.00037 0.835963 1.92949C1.88512 2.88973 5.05663 5.79109 7.11309 7.66114C5.06331 9.42187 1.89098 12.4295 0.833477 13.4379C0.814811 13.3706 0.791654 13.3048 0.791654 13.2316ZM17.4167 14.0233H1.58335C1.52011 14.0233 1.46389 14.0012 1.40485 13.9871C2.49761 12.9454 5.69013 9.92047 7.70387 8.19775C7.96638 8.43588 8.20618 8.653 8.39522 8.82334C8.72148 9.11791 9.10338 9.27329 9.5 9.27329C9.89662 9.27329 10.2785 9.11787 10.6044 8.82371C10.7935 8.6533 11.0335 8.43599 11.2961 8.19775C13.31 9.92029 16.5021 12.945 17.5951 13.9871C17.5361 14.0012 17.48 14.0233 17.4167 14.0233ZM18.2083 13.2316C18.2083 13.3047 18.1852 13.3706 18.1666 13.4379C17.1086 12.429 13.9367 9.42169 11.8869 7.66118C13.9435 5.79113 17.1145 2.89003 18.164 1.92942C18.185 2.00029 18.2083 2.07069 18.2083 2.14825V13.2316Z" fill="#31393C"/>
</svg>
