<svg width="40" height="40" viewBox="0 0 40 40" fill="none" xmlns="http://www.w3.org/2000/svg">
<path d="M36.1765 13.0392L34.3137 13.5294L38.4314 17.7451L40 12.0588L38.0392 12.549C37.1569 10.2941 35.7843 8.23529 34.1176 6.47059C31.3726 3.43137 27.451 1.37255 23.3333 0.686275L23.0392 2.64706C26.7647 3.33333 30.1961 5.19608 32.8431 7.84314C34.2157 9.41176 35.3922 11.1765 36.1765 13.0392Z" fill="url(#paint0_linear_0_899)"/>
<path d="M32.1569 32.7451C30.5882 34.2157 28.8235 35.2941 26.9608 36.1765L26.4706 34.3137L22.2549 38.4314L27.9412 40L27.451 38.0392C29.7059 37.1569 31.7647 35.7843 33.5294 34.1176C36.5686 31.2745 38.6274 27.3529 39.3137 23.2353L37.3529 22.9412C36.7647 26.7647 34.902 30.1961 32.1569 32.7451Z" fill="url(#paint1_linear_0_899)"/>
<path d="M3.82353 26.9608L5.68627 26.4706L1.56863 22.2549L0 27.9412L1.96078 27.451C2.84314 29.7059 4.21569 31.7647 5.88235 33.5294C8.72549 36.5686 12.6471 38.6274 16.7647 39.3137L17.0588 37.3529C13.3333 36.6667 9.90196 34.8039 7.2549 32.1569C5.78431 30.5882 4.60784 28.8235 3.82353 26.9608Z" fill="url(#paint2_linear_0_899)"/>
<path d="M7.84314 7.2549C9.41176 5.78431 11.1765 4.70588 13.0392 3.82353L13.5294 5.68627L17.7451 1.56863L12.0588 0L12.549 1.96078C10.2941 2.84314 8.23529 4.21569 6.47059 5.88235C3.43137 8.62745 1.37255 12.549 0.686275 16.6667L2.64706 16.9608C3.23529 13.2353 5.09804 9.80392 7.84314 7.2549Z" fill="url(#paint3_linear_0_899)"/>
<path d="M29.902 31.1765C30.6863 31.1765 31.3725 30.5882 31.3725 29.8039V20.8824C31.3725 20.098 30.6863 19.5098 29.902 19.5098L29.3137 19.7059C28.6274 17.9412 26.8627 16.5686 24.4118 15.7843C25.1961 14.8039 25.5882 13.6275 25.5882 12.3529C25.5882 9.31373 23.1373 6.76471 20 6.76471C16.8627 6.76471 14.4118 9.21569 14.4118 12.3529C14.4118 13.6275 14.902 14.902 15.5882 15.7843C13.1373 16.5686 11.3725 18.0392 10.6863 19.7059L10.098 19.5098C9.31372 19.5098 8.62745 20.098 8.62745 20.8824V29.8039C8.62745 30.5882 9.31372 31.1765 10.098 31.1765L19.5098 33.5294C19.7059 33.5294 19.8039 33.5294 20 33.4314C20.1961 33.5294 20.2941 33.5294 20.4902 33.5294L29.902 31.1765ZM29.3137 29.3137L20.9804 31.3725V23.7255L29.3137 21.6667V29.3137ZM20 8.62745C21.9608 8.62745 23.6274 10.2941 23.6274 12.2549C23.6274 14.2157 21.9608 15.8824 20 15.8824C18.0392 15.8824 16.3725 14.2157 16.3725 12.2549C16.3725 10.2941 18.0392 8.62745 20 8.62745ZM17.451 17.2549C18.2353 17.549 19.1176 17.8431 20 17.8431C20.8824 17.8431 21.7647 17.6471 22.451 17.2549C24.8039 17.7451 26.6667 18.8235 27.2549 20.1961L20.3922 21.8627C20.1961 21.8627 20.098 21.8627 19.902 21.9608C19.7059 21.8627 19.6078 21.8627 19.4118 21.8627L12.549 20.1961C13.3333 18.8235 15.098 17.7451 17.451 17.2549ZM19.0196 31.3725L10.6863 29.3137V21.6667L19.0196 23.7255V31.3725Z" fill="url(#paint4_linear_0_899)"/>
<defs>
<linearGradient id="paint0_linear_0_899" x1="40.3202" y1="40.3815" x2="10.0273" y2="5.256" gradientUnits="userSpaceOnUse">
<stop stop-color="#31393C"/>
<stop offset="1" stop-color="#3D96F5"/>
</linearGradient>
<linearGradient id="paint1_linear_0_899" x1="40.3202" y1="40.3815" x2="10.0273" y2="5.256" gradientUnits="userSpaceOnUse">
<stop stop-color="#31393C"/>
<stop offset="1" stop-color="#3D96F5"/>
</linearGradient>
<linearGradient id="paint2_linear_0_899" x1="40.3202" y1="40.3815" x2="10.0273" y2="5.256" gradientUnits="userSpaceOnUse">
<stop stop-color="#31393C"/>
<stop offset="1" stop-color="#3D96F5"/>
</linearGradient>
<linearGradient id="paint3_linear_0_899" x1="40.3202" y1="40.3815" x2="10.0273" y2="5.256" gradientUnits="userSpaceOnUse">
<stop stop-color="#31393C"/>
<stop offset="1" stop-color="#3D96F5"/>
</linearGradient>
<linearGradient id="paint4_linear_0_899" x1="40.3202" y1="40.3815" x2="10.0273" y2="5.256" gradientUnits="userSpaceOnUse">
<stop stop-color="#31393C"/>
<stop offset="1" stop-color="#3D96F5"/>
</linearGradient>
</defs>
</svg>
