<svg width="354" height="378" viewBox="0 0 354 378" fill="none" xmlns="http://www.w3.org/2000/svg">
<rect y="0.5" width="354" height="377" fill="url(#paint0_radial_1_337)"/>
<path d="M66.5129 78.904L58.852 74.4554L59.4644 289.758L67.1253 294.206L66.5129 78.904Z" fill="#DED2DA"/>
<path d="M77.2477 67.8458C75.4974 68.98 74.0425 70.5149 73.0037 72.3234C71.9648 74.1319 71.3718 76.1619 71.2738 78.2452L71.8747 293.547C71.8747 297.349 74.5901 298.886 77.8948 297.014L164.834 246.808C166.584 245.674 168.039 244.139 169.078 242.33C170.117 240.522 170.71 238.492 170.808 236.408L170.207 21.1063C170.207 17.3047 167.491 15.7679 164.187 17.6398L77.2477 67.8458Z" fill="#F0EAEE"/>
<path d="M127.826 44.3672L111.834 53.6111C111.222 53.9693 110.679 53.6804 110.679 52.964C110.705 52.5724 110.824 52.1925 111.024 51.8552C111.225 51.5179 111.503 51.2327 111.834 51.0228L127.826 41.7789C128.45 41.4207 128.982 41.7096 128.982 42.426C128.958 42.8183 128.841 43.1993 128.64 43.537C128.439 43.8747 128.16 44.1594 127.826 44.3672Z" fill="#1A2530"/>
<path d="M134.457 39.1438C134.429 39.7138 134.265 40.269 133.98 40.7633C133.694 41.2576 133.295 41.6768 132.816 41.9863C131.915 42.5063 131.175 42.0903 131.175 41.0388C131.209 40.47 131.374 39.9169 131.659 39.4235C131.944 38.93 132.34 38.5098 132.816 38.1963C133.706 37.6648 134.457 38.1038 134.457 39.1438Z" fill="#1A2530"/>
<path d="M154.759 8.77872L67.8204 58.9269C67.0314 59.3905 66.2885 59.9283 65.6018 60.5331C64.0864 61.8671 62.7848 63.4259 61.7425 65.155L69.3918 69.6036C70.4413 67.8764 71.7464 66.318 73.2627 64.9817C73.9524 64.3806 74.6949 63.8431 75.4812 63.3756L162.42 13.1811L154.759 8.77872Z" fill="#F0F0F2"/>
<path d="M75.5262 63.3735L67.8654 58.9249C62.8968 61.8021 58.8872 68.7466 58.8988 74.4547L66.5596 78.9033C66.5019 73.1952 70.5114 66.2507 75.5262 63.3735Z" fill="#F0EAEE"/>
<path d="M62.0944 295.535L69.7552 299.96C68.1376 299.013 67.1439 297.025 67.1323 294.183L59.4714 289.734C59.483 292.6 60.5113 294.587 62.0944 295.535Z" fill="#DED2DA"/>
<path d="M62.0944 295.535L69.7552 299.96C68.1376 299.013 67.1439 297.025 67.1323 294.183L59.4714 289.734C59.483 292.6 60.5113 294.587 62.0944 295.535Z" fill="#DED2DA"/>
<mask id="mask0_1_337" style="mask-type:luminance" maskUnits="userSpaceOnUse" x="59" y="289" width="11" height="11">
<path d="M62.0831 295.535L69.744 299.96C68.1263 299.013 67.1326 297.026 67.1211 294.183L59.4602 289.734C59.4717 292.6 60.5001 294.587 62.0831 295.535Z" fill="white"/>
</mask>
<g mask="url(#mask0_1_337)">
<g style="mix-blend-mode:multiply" opacity="0.2">
<path d="M67.1211 294.183L59.4602 289.734C59.4602 292.577 60.477 294.564 62.0831 295.512L69.744 299.96C68.1263 299.036 67.1326 297.049 67.1211 294.183Z" fill="#DED2DA"/>
</g>
</g>
<path d="M168.828 12.5558L161.167 8.10719C159.538 7.15969 157.273 7.2868 154.765 8.73116L162.426 13.1798C164.922 11.7354 167.198 11.6083 168.828 12.5558Z" fill="#F0F0F2"/>
<mask id="mask1_1_337" style="mask-type:luminance" maskUnits="userSpaceOnUse" x="154" y="7" width="15" height="7">
<path d="M154.758 8.77582L162.418 13.2244C164.914 11.7801 167.191 11.653 168.82 12.6005L161.159 8.15185C160.456 7.74857 159.659 7.53737 158.848 7.53944C157.4 7.58787 155.99 8.01409 154.758 8.77582Z" fill="white"/>
</mask>
<g mask="url(#mask1_1_337)">
<path d="M168.819 12.555L161.158 8.10635C160.062 7.50522 158.781 7.33229 157.565 7.62105L165.226 12.0697C166.442 11.7831 167.722 11.956 168.819 12.555Z" fill="#F0F0F2"/>
<path d="M165.238 12.0691L157.566 7.62042C156.57 7.85116 155.618 8.24135 154.746 8.77591L162.407 13.2245C163.28 12.6849 164.237 12.2944 165.238 12.0691Z" fill="#F0F0F2"/>
</g>
<path d="M171.44 18.3222C171.448 17.4998 171.347 16.68 171.14 15.8841C170.99 15.1516 170.68 14.4611 170.233 13.8619C169.785 13.2627 169.211 12.7696 168.551 12.4177C167.274 11.8502 165.829 11.7883 164.507 12.2444C163.795 12.4741 163.109 12.7802 162.462 13.1572L75.5346 63.3747C71.365 66.0939 68.3546 70.2657 67.088 75.0798C66.7547 76.3278 66.58 77.6128 66.5681 78.9045L67.1342 294.184C67.1312 294.76 67.1775 295.336 67.2729 295.905C67.3596 296.672 67.6022 297.413 67.9857 298.083C68.3692 298.752 68.8855 299.336 69.503 299.799C71.1553 300.955 73.5241 300.851 76.1586 299.326L163.098 249.12C165.71 247.421 167.885 245.129 169.443 242.43C171.001 239.731 171.899 236.702 172.064 233.59L171.44 18.3222ZM164.831 246.739L77.8918 296.934C76.1355 297.939 74.564 297.985 73.4548 297.246C73.0441 296.935 72.7004 296.544 72.4442 296.098C72.1881 295.651 72.0248 295.157 71.9642 294.646C71.9022 294.264 71.8713 293.877 71.8717 293.49L71.2593 78.1881C71.2681 77.325 71.3885 76.4667 71.6175 75.6345C72.4526 72.4227 74.4602 69.6401 77.2448 67.8349L164.184 17.6405C164.614 17.3857 165.071 17.1803 165.547 17.0281C166.434 16.7053 167.411 16.7385 168.274 17.1205C168.712 17.3584 169.094 17.688 169.393 18.0869C169.692 18.4857 169.902 18.9443 170.007 19.4315C170.143 19.9638 170.209 20.5114 170.204 21.0607L170.816 236.409C170.705 238.48 170.105 240.495 169.067 242.29C168.029 244.085 166.581 245.61 164.842 246.739H164.831Z" fill="#F0EAEE"/>
<path d="M71.07 86.7259L71.6824 293.558C71.6454 294.532 71.8816 295.496 72.3641 296.343C73.3694 297.972 75.3799 298.33 77.7025 296.99L164.641 246.807C165.104 246.54 165.541 246.23 165.947 245.883C167.315 244.705 168.43 243.263 169.224 241.642C170.019 240.021 170.476 238.257 170.569 236.454L169.957 29.6216C169.957 25.8201 167.253 24.2833 163.937 26.1552L76.9976 76.3496C74.2677 78.1268 72.2857 80.8449 71.4282 83.9874C71.1798 84.8786 71.0592 85.8007 71.07 86.7259Z" fill="url(#paint1_linear_1_337)"/>
<path d="M148.003 308.846L239.957 255.486C236.617 257.427 232.007 257.161 226.911 254.226C216.812 248.391 208.62 234.202 208.654 222.577L116.701 275.938C116.701 287.551 124.858 301.74 134.969 307.575C140.053 310.51 144.663 310.776 148.003 308.846Z" fill="#F0F0F2"/>
<mask id="mask2_1_337" style="mask-type:luminance" maskUnits="userSpaceOnUse" x="116" y="222" width="124" height="89">
<path d="M148.001 308.846L239.954 255.486C236.615 257.427 232.005 257.161 226.909 254.227C216.81 248.391 208.618 234.202 208.652 222.578L116.699 275.938C116.699 287.551 124.856 301.74 134.967 307.575C140.051 310.51 144.661 310.776 148.001 308.846Z" fill="white"/>
</mask>
<g mask="url(#mask2_1_337)">
<path d="M148.002 308.846L239.956 255.485C237.671 256.729 235.004 257.071 232.48 256.444L140.526 309.793C143.049 310.423 145.716 310.085 148.002 308.846Z" fill="#DED2DA"/>
<path d="M140.528 309.793L232.481 256.444C230.52 256.002 228.64 255.254 226.912 254.226C223.51 252.179 220.501 249.542 218.026 246.438L126.084 299.798C128.562 302.896 131.571 305.529 134.97 307.574C136.693 308.604 138.569 309.353 140.528 309.793Z" fill="#DED2DA"/>
<path d="M158.282 296.321C158.165 297.688 157.878 299.035 157.427 300.33C157.23 300.862 157.195 301.128 156.756 301.382L153.879 303.046L149.904 305.357C148.98 305.888 148.067 306.512 147.108 306.974C146.734 307.105 146.327 307.105 145.953 306.974C144.632 306.719 143.348 306.303 142.128 305.738L156.306 297.499L158.282 296.321Z" fill="#BEAFBE"/>
<path d="M158.392 291.502L150.165 296.274L138.911 302.826C138.714 302.941 138.206 303.38 137.963 303.369C137.721 303.357 137.27 302.872 137.085 302.733C136.646 302.398 136.207 302.052 135.779 301.693C134.86 300.906 133.98 300.073 133.145 299.197L141.707 294.217L155.261 286.325L158.392 284.5C158.408 286.834 158.408 289.168 158.392 291.502Z" fill="#BEAFBE"/>
<path d="M126.08 299.799L218.023 246.438C212.418 239.598 208.628 230.493 208.652 222.578L116.698 275.938C116.675 283.842 120.465 292.947 126.08 299.799Z" fill="#F0EAEE"/>
<path d="M209.193 243.838L204.721 246.438L194.01 252.666L181.138 260.142L169.999 266.613L164.684 269.698C162.909 270.754 161.468 272.287 160.524 274.124C160.226 274.667 159.968 275.231 159.75 275.811C159.507 276.446 159.403 277.186 159.126 277.798C158.987 278.11 159.126 277.971 158.883 278.145C158.425 278.46 157.942 278.738 157.439 278.977L154.77 280.537L138.662 289.896L132.018 293.755L130.193 294.807C130.123 294.807 129.904 295.038 129.811 295.038C129.638 295.038 129.187 294.16 129.095 294.033C128.864 293.686 128.621 293.339 128.401 292.981C127.962 292.311 127.535 291.629 127.142 290.936C127.026 290.728 126.137 289.457 126.229 289.272C126.322 289.087 126.31 289.272 126.322 289.272C126.333 289.272 126.795 288.995 126.922 288.914L129.707 287.296L140.395 281.091L155.486 272.229L172.587 262.338L188.764 252.909L201.347 245.583L205.496 243.18C206.201 242.708 206.934 242.28 207.691 241.897C207.793 241.854 207.89 241.8 207.98 241.735C208.408 242.452 208.777 243.145 209.193 243.838Z" fill="#BEAFBE"/>
</g>
<path d="M149.101 310.729L241.043 257.368C244.614 255.3 246.821 250.898 246.821 244.658L154.878 298.007C154.878 304.247 152.671 308.649 149.101 310.729Z" fill="#F0F0F2"/>
<mask id="mask3_1_337" style="mask-type:luminance" maskUnits="userSpaceOnUse" x="149" y="244" width="98" height="67">
<path d="M149.095 310.73L241.037 257.369C244.607 255.301 246.814 250.899 246.814 244.659L154.872 298.008C154.872 304.247 152.665 308.65 149.095 310.73Z" fill="white"/>
</mask>
<g mask="url(#mask3_1_337)">
<path d="M149.095 310.73L241.037 257.369C244.608 255.301 246.815 250.899 246.815 244.659L154.873 298.008C154.873 304.247 152.666 308.65 149.095 310.73Z" fill="#BEAFBE"/>
</g>
<path d="M154.897 297.984L246.851 244.624L246.874 233.785L154.92 287.134L154.897 297.984Z" fill="#BEAFBE"/>
<path d="M252.649 221.144L160.695 274.539C157.148 276.596 154.918 280.975 154.918 287.18L246.872 233.832C246.906 227.58 249.102 223.201 252.649 221.144Z" fill="#F0F0F2"/>
<mask id="mask4_1_337" style="mask-type:luminance" maskUnits="userSpaceOnUse" x="154" y="221" width="99" height="67">
<path d="M252.656 221.143L160.702 274.538C157.154 276.595 154.924 280.974 154.924 287.179L246.878 233.831C246.913 227.579 249.108 223.2 252.656 221.143Z" fill="white"/>
</mask>
<g mask="url(#mask4_1_337)">
<path d="M154.937 287.134L166.491 280.455L246.936 233.785C246.936 227.58 249.155 223.2 252.714 221.144L160.702 274.539C157.155 276.549 154.96 280.929 154.937 287.134Z" fill="#BEAFBE"/>
</g>
<path d="M116.701 275.926L208.654 222.577L208.874 145.345L116.92 198.705L116.701 275.926Z" fill="#F0EAEE"/>
<path d="M116.919 198.705L208.861 145.357C208.942 116.839 188.825 81.9896 164.016 67.6731L72.0627 121.022C96.871 135.338 117 170.2 116.919 198.705Z" fill="#F0F0F2"/>
<mask id="mask5_1_337" style="mask-type:luminance" maskUnits="userSpaceOnUse" x="72" y="67" width="137" height="132">
<path d="M116.92 198.705L208.862 145.356C208.943 116.839 188.826 81.9895 164.017 67.673L72.0636 121.022C96.872 135.338 117.001 170.199 116.92 198.705Z" fill="white"/>
</mask>
<g mask="url(#mask5_1_337)">
<path d="M116.927 198.705L208.869 145.356C208.927 125.944 199.625 103.585 185.84 86.7727L93.8864 140.133C107.671 156.946 116.985 179.293 116.927 198.705Z" fill="#F0F0F2"/>
<path d="M93.8792 140.135L185.833 86.7746C179.752 79.1738 172.364 72.7176 164.017 67.709L72.0636 121.023C80.4163 126.043 87.8044 132.515 93.8792 140.135Z" fill="#F0F0F2"/>
</g>
<path d="M237.163 368.481L329.105 315.132L317.227 308.268L225.273 361.617L237.163 368.481Z" fill="#F0EAEE"/>
<path d="M237.147 370.26L329.101 316.911V315.132L237.158 368.48L237.147 370.26Z" fill="#F0F0F2"/>
<path d="M72.0628 121.021V122.789C96.0161 136.655 115.451 170.279 115.37 197.815L115.151 275.036C115.151 287.631 124.002 303.022 134.956 309.354C145.91 315.686 154.865 310.579 154.9 297.984V287.134C154.9 274.643 163.82 269.582 174.705 275.856C185.589 282.131 194.406 297.429 194.348 309.92C194.29 329.563 208.145 353.54 225.223 363.408L237.101 370.26V368.48L225.211 361.628C209.034 352.257 195.827 329.459 195.885 310.787C195.885 297.314 186.41 280.836 174.67 274.065C162.93 267.294 153.363 272.748 153.328 286.221V297.071C153.328 308.684 145.055 313.386 134.944 307.551C124.834 301.716 116.642 287.527 116.676 275.914L116.896 198.681C117 170.198 96.8711 135.337 72.0628 121.021Z" fill="#D7CBD4"/>
<path d="M251.545 219.261L159.603 272.61C163.462 270.368 168.847 270.68 174.728 274.089C186.468 280.86 195.978 297.337 195.943 310.81C195.885 329.46 209.046 352.257 225.269 361.652L317.223 308.303C300.988 298.932 287.839 276.134 287.885 257.461C287.885 243.988 278.41 227.511 266.682 220.728C260.777 217.319 255.416 217.007 251.545 219.261Z" fill="#F0F0F2"/>
<mask id="mask6_1_337" style="mask-type:luminance" maskUnits="userSpaceOnUse" x="159" y="217" width="159" height="145">
<path d="M251.543 219.261L159.601 272.609C163.46 270.368 168.845 270.68 174.726 274.089C186.466 280.86 195.976 297.337 195.941 310.81C195.883 329.46 209.044 352.257 225.267 361.651L317.221 308.303C300.986 298.932 287.837 276.134 287.883 257.461C287.883 243.988 278.408 227.511 266.68 220.728C260.775 217.319 255.414 217.007 251.543 219.261Z" fill="white"/>
</mask>
<g mask="url(#mask6_1_337)">
<path d="M225.268 361.629L317.221 308.28C311.761 304.992 306.928 300.758 302.951 295.777L210.997 349.126C214.975 354.107 219.807 358.341 225.268 361.629Z" fill="#F0EAEE"/>
<path d="M210.996 349.127L302.95 295.778C293.937 284.778 287.848 270.161 287.929 257.462C287.929 248.288 283.561 237.726 277.044 229.73L185.09 283.079C191.607 291.029 196.01 301.567 195.987 310.811C195.894 323.51 201.984 338.092 210.996 349.127Z" fill="#F0EAEE"/>
<path d="M185.047 283.124L277.001 229.775C274.124 226.173 270.63 223.11 266.682 220.728C264.675 219.542 262.496 218.673 260.223 218.151L168.269 271.512C170.546 272.022 172.726 272.892 174.729 274.088C178.681 276.459 182.176 279.52 185.047 283.124Z" fill="#F0F0F2"/>
<path d="M168.266 271.512L260.22 218.151C257.285 217.431 254.186 217.844 251.542 219.307L159.588 272.655C162.234 271.198 165.332 270.79 168.266 271.512Z" fill="#F0F0F2"/>
</g>
<path d="M123.936 284.396C123.589 283.449 123.277 282.478 122.988 281.508C122.85 280.988 122.711 280.468 122.584 279.936L122.41 279.162C122.41 278.989 122.122 278.261 122.202 278.122C122.283 277.983 122.318 278.064 122.353 278.029C122.709 277.759 123.097 277.534 123.508 277.359L128.835 274.274L148.109 263.066L172.304 249.004L193.554 236.651L200.602 232.561L202.798 231.278C203.15 231.003 203.539 230.777 203.953 230.608C203.953 230.608 204.057 230.608 204.103 230.527C204.4 232.176 204.813 233.802 205.34 235.392C205.455 235.727 205.952 236.547 205.756 236.848C205.559 237.148 205.005 237.287 204.762 237.426L199.643 240.407L180.52 251.511L156.104 265.7L134.659 278.168L124.063 284.315L123.936 284.396Z" fill="#D7CBD4"/>
<path d="M121.751 250.171L203.652 202.576L203.791 153.087L121.89 200.681L121.751 250.171ZM182.53 209.185L142.55 232.422L142.642 198.798L147.068 196.221L149.113 190.536L176.198 174.787L178.208 178.126L182.634 175.561L182.53 209.185Z" fill="#0077F7"/>
<path d="M121.751 273.847L203.652 226.264V218.73L121.762 266.024L121.751 273.847Z" fill="#D7CBD4"/>
<path d="M121.751 261.829L203.652 214.235V206.713L121.82 253.972L121.751 261.829Z" fill="#D7CBD4"/>
<path d="M176.53 181.361L179.58 179.581C180.146 179.258 180.608 179.581 180.608 180.194C180.589 180.553 180.487 180.904 180.308 181.217C180.129 181.53 179.88 181.797 179.58 181.996L176.53 183.764C175.963 184.099 175.501 183.822 175.501 183.152C175.522 182.794 175.626 182.446 175.804 182.135C175.983 181.824 176.231 181.559 176.53 181.361Z" fill="#0077F7"/>
<path d="M162.679 191.888C168.618 188.421 173.413 191.264 173.402 198.197C173.39 205.13 168.549 213.565 162.609 217.008C156.67 220.452 151.863 217.644 151.875 210.699C151.886 203.755 156.728 195.343 162.679 191.888Z" fill="#0077F7"/>
<path d="M142.546 232.422L182.526 209.185L182.63 175.56L178.205 178.125L176.194 174.786L149.156 190.535L147.168 196.22L142.743 198.797L142.546 232.422ZM175.454 183.152C175.475 182.794 175.579 182.446 175.757 182.135C175.936 181.824 176.184 181.559 176.483 181.361L179.533 179.581C180.099 179.258 180.562 179.581 180.562 180.194C180.543 180.554 180.44 180.904 180.261 181.217C180.083 181.53 179.833 181.797 179.533 181.996L176.483 183.764C175.963 184.099 175.501 183.822 175.501 183.152H175.454ZM151.825 210.699C151.825 203.766 156.678 195.342 162.629 191.887C168.579 188.432 173.363 191.263 173.351 198.196C173.34 205.129 168.498 213.564 162.559 217.008C156.62 220.451 151.859 217.643 151.871 210.699H151.825Z" fill="#F0F0F2"/>
<path d="M112.933 109.571C119.695 115.237 125.627 121.826 130.554 129.145C131.652 130.739 132.703 132.369 133.755 133.998L117.22 143.611L108.946 148.407L107.953 148.996C107.687 149.146 107.583 149.296 107.363 149.146C107.144 148.996 107.04 148.626 106.936 148.464C106.832 148.303 106.52 147.783 106.3 147.448C105.596 146.35 104.868 145.264 104.128 144.189C102.499 141.797 90.3893 127.77 86.6455 124.846L112.933 109.571Z" fill="#0058B6"/>
<path d="M133.55 125.655C150.798 115.64 168.053 105.626 185.316 95.6119L185.559 95.947C186.044 96.6403 186.518 97.3336 186.98 98.0384L187.361 98.6046L187.558 98.8935C188.147 99.7948 188.713 100.696 189.28 101.62L189.349 101.724L137.572 131.767C136.404 129.918 134.775 127.48 133.55 125.655Z" fill="#D7CBD4"/>
<path d="M129.012 119.761L180.801 89.661L181.564 90.6085L182.026 91.1747L130.26 121.217C129.833 120.79 129.451 120.281 129.012 119.761Z" fill="#D7CBD4"/>
<path d="M129.018 119.763C127.863 118.411 126.626 116.955 125.609 115.776L177.375 85.7336L177.826 86.2304C178.311 86.762 178.785 87.3051 179.259 87.8597L180.033 88.761L180.807 89.6969L129.018 119.763Z" fill="#D7CBD4"/>
<path d="M116.758 107.305L168.524 77.2628L169.101 77.7596C169.656 78.2218 170.257 78.6956 170.754 79.1809L171.632 79.9782C172.14 80.4519 172.66 80.9257 173.169 81.4226L173.677 81.9079L121.911 111.951C120.398 110.518 118.283 108.681 116.758 107.305Z" fill="#D7CBD4"/>
<path d="M113.393 160.401L113.115 159.811C113.115 159.707 113.023 159.603 112.965 159.499C112.665 158.852 112.341 158.194 112.018 157.547C111.96 157.431 111.902 157.304 111.833 157.188C111.763 157.073 111.683 156.876 111.602 156.726C111.197 155.929 110.781 155.132 110.354 154.346L110.284 154.219V154.103C137.358 137.857 164.881 122.385 192.174 106.52L192.243 106.624C192.752 107.572 193.248 108.519 193.734 109.478L193.884 109.79L194.184 110.403C194.554 111.154 194.924 111.916 195.34 112.714L195.513 113.095C168.44 129.341 140.916 144.825 113.624 160.69L113.393 160.401Z" fill="#D7CBD4"/>
<path d="M121.937 194.095C121.937 193.91 121.937 193.714 121.937 193.529V193.402C121.937 193.252 121.937 193.101 121.937 192.951C121.937 192.801 121.937 192.547 121.937 192.35C121.937 192.154 121.937 191.9 121.937 191.668L121.868 190.594C121.868 190.513 121.868 190.444 121.868 190.363C121.868 190.282 121.868 190.039 121.868 189.866C121.868 189.693 121.868 189.496 121.868 189.311C148.19 171.759 176.453 157.582 203.757 141.717C203.757 141.994 203.757 142.271 203.838 142.537V142.999C203.838 143.739 203.942 144.478 203.977 145.206C203.977 145.414 203.977 145.622 203.977 145.842C203.977 146.639 204.035 147.436 203.977 148.234L122.076 195.828C121.96 195.251 121.949 194.673 121.937 194.095Z" fill="#D7CBD4"/>
<path d="M120.916 184.019C120.824 183.464 120.72 182.864 120.604 182.344C120.604 182.136 120.523 181.928 120.489 181.72C120.454 181.512 120.385 181.223 120.339 180.98C120.339 180.98 120.339 180.911 120.339 180.888C120.258 180.472 120.154 180.056 120.061 179.64L119.957 179.154C119.853 178.704 119.738 178.253 119.622 177.802L119.553 177.514C147.851 163.37 174.15 145.795 201.442 129.931L201.616 130.612C201.785 131.29 201.947 131.972 202.101 132.658L202.344 133.813C202.482 134.518 202.621 135.234 202.748 135.939C202.748 136.193 202.84 136.436 202.875 136.69C175.802 152.936 148.29 168.42 120.986 184.285C120.951 184.192 120.928 184.111 120.916 184.019Z" fill="#D7CBD4"/>
<path d="M117.983 172.116C117.856 171.758 117.741 171.388 117.625 170.961L117.44 170.441C117.29 169.99 117.14 169.54 116.978 169.089L116.839 168.719L116.712 168.373C116.643 168.176 116.574 167.98 116.493 167.772C116.238 167.078 115.973 166.385 115.695 165.692V165.588C143.993 151.445 170.292 133.858 197.585 117.993C197.677 118.224 197.758 118.456 197.851 118.675C198.139 119.438 198.44 120.189 198.706 120.986C198.844 121.356 198.971 121.737 199.11 122.142L199.803 124.198C199.873 124.406 199.93 124.626 200 124.834C172.927 141.08 145.415 156.564 118.11 172.428C118.062 172.327 118.02 172.223 117.983 172.116Z" fill="#D7CBD4"/>
<path d="M210.088 245.283L210.147 245.378C210.123 245.349 210.103 245.317 210.088 245.283Z" fill="#D7CBD4"/>
<path d="M252.08 220.717H252.473H252.959L253.583 220.774H254.114L254.773 220.89L255.154 220.959H255.362L255.709 221.052L256.448 221.248H256.61C252.092 224.01 247.551 226.714 242.998 229.417C232.622 235.58 222.196 241.639 211.719 247.593L211.419 247.189L211.003 246.599V246.53L210.945 246.449L210.726 246.114L210.471 245.744L210.321 245.513L210.113 245.201L210.055 245.109C224.083 237.09 238.064 228.863 252.08 220.717Z" fill="#D7CBD4"/>
<path d="M210.72 246.288C210.628 246.169 210.543 246.046 210.465 245.918L210.72 246.288Z" fill="#D7CBD4"/>
<path d="M210.085 245.283C210.1 245.316 210.119 245.347 210.143 245.375L210.351 245.687L210.501 245.918C210.579 246.046 210.664 246.169 210.755 246.288L210.975 246.623L211.033 246.704V246.773L211.449 247.363L211.749 247.767C199.408 254.838 187.045 261.875 174.773 269.016H174.704H174.623H174.45H174.3L173.745 268.762L173.525 268.704H173.41H173.294H173.098H172.959L172.439 268.612H172.231H171.873H171.469H171.099H170.752H170.209C183.559 260.847 196.851 253.071 210.085 245.283Z" fill="#D7CBD4"/>
<path d="M208.701 335.319C208.031 334.105 207.407 332.881 206.829 331.633C206.517 330.962 206.205 330.304 205.916 329.622C205.824 329.426 205.743 329.218 205.743 329.218L206.24 328.929L207.488 328.189L216.131 323.163L233.405 313.11L268.07 292.97L287.609 281.623C288.176 282.952 288.765 284.258 289.423 285.54C289.812 286.13 290.141 286.757 290.406 287.412C290.498 287.817 290.671 287.666 290.209 287.944L288.996 288.683C286.13 290.439 283.261 292.18 280.388 293.906C274.633 297.365 268.856 300.773 263.055 304.132C251.5 310.822 239.945 317.397 228.391 324.006C221.804 327.75 215.241 331.521 208.701 335.319Z" fill="#BEAFBE"/>
<path d="M223.608 353.98C221.961 352.583 220.395 351.094 218.917 349.52C230.472 342.772 242.026 336.047 253.581 329.345L288.246 309.193L298.01 303.52L300.39 302.145C300.864 301.867 300.864 302.017 301.211 302.387C301.557 302.757 301.846 303.046 302.181 303.369C303.233 304.409 304.319 305.426 305.451 306.385C294.721 312.394 284.044 318.514 273.421 324.746C262.802 330.939 252.206 337.202 241.587 343.43C235.648 346.958 229.655 350.475 223.608 353.98Z" fill="#BEAFBE"/>
<path d="M215.439 345.475C214.029 343.719 212.712 341.882 211.487 339.998C222.996 333.281 234.512 326.579 246.036 319.893L280.608 299.822L290.372 294.148L292.752 292.773C292.904 292.646 293.076 292.544 293.261 292.473C293.503 292.473 293.492 292.565 293.665 292.831L294.359 293.871C295.298 295.242 296.288 296.583 297.328 297.892C286.69 304.101 276.048 310.29 265.402 316.461L233.464 335.006L215.439 345.475Z" fill="#BEAFBE"/>
<path d="M228.585 357.735L227.591 357.065C238.684 350.594 249.78 344.135 260.881 337.687L293.916 318.448L303.31 312.994L307.932 310.302L309.088 309.655C309.538 309.389 309.584 309.516 310 309.782C310.717 310.256 311.445 310.718 312.196 311.157L303.899 315.975L284.037 327.53L260.257 341.396L239.816 353.275L233.264 357.076L231.3 358.232C231.017 358.458 230.701 358.641 230.364 358.775C229.925 358.798 228.978 357.943 228.585 357.735Z" fill="#BEAFBE"/>
<path d="M252.779 231.093C255.86 229.283 258.906 227.453 261.918 225.605C262.304 225.314 262.719 225.062 263.155 224.854C263.478 224.761 263.236 224.68 263.605 224.854C263.746 224.932 263.878 225.025 263.998 225.131C264.638 225.57 265.25 226.032 265.836 226.518C266.975 227.431 268.059 228.411 269.083 229.452C273.242 233.699 276.611 238.652 279.031 244.081C281.46 249.282 282.767 254.935 282.867 260.674C282.902 263.491 283.192 266.298 283.734 269.063C283.988 270.391 284.289 271.72 284.647 273.038C284.751 273.384 284.843 273.731 284.947 274.077C285.051 274.424 285.074 274.355 284.809 274.632C284.653 274.747 284.486 274.848 284.312 274.933L281.932 276.308C269.529 283.518 257.127 290.716 244.725 297.904C232.323 305.091 219.97 312.274 207.668 319.453L203.173 322.076C201.933 317.992 201.203 313.769 201.001 309.505C200.92 307.517 200.932 305.553 200.666 303.577C200.429 301.821 200.07 300.084 199.591 298.377C197.705 291.714 194.459 285.514 190.059 280.167C187.607 277.128 184.726 274.462 181.508 272.252C190.428 267.11 240.577 238.361 252.779 231.093Z" fill="#0058B6"/>
<path d="M211.033 268.07C214.011 271.78 216.493 275.862 218.416 280.214C219.316 282.262 220.035 284.384 220.565 286.557C221.13 289.17 221.516 291.819 221.721 294.484C221.987 297.558 222.183 300.631 222.668 303.728L244.16 291.237L254.906 284.998L260.279 281.866L261.654 281.069L262.151 280.78C262.533 280.56 262.59 280.63 262.614 280.225C262.576 279.225 262.464 278.228 262.278 277.244C261.932 273.35 261.839 269.433 261.123 265.585C260.394 261.856 259.158 258.244 257.448 254.851C255.91 251.76 254.08 248.823 251.983 246.081C251.763 245.792 251.371 245.029 251.036 244.925C250.7 244.821 251.209 244.798 250.758 244.925C250.553 245.014 250.359 245.127 250.18 245.26L247.869 246.589L246.876 247.167C246.414 247.433 246.275 247.271 245.836 247.04C245.2 246.705 244.565 246.381 243.918 246.069C243.271 245.757 242.323 245.318 241.514 244.971C241.364 244.914 241.064 244.706 240.902 244.717C240.74 244.729 240.243 245.099 240.035 245.226L232.548 249.57L218.601 257.659L216.29 259.011L215.135 259.646C214.846 259.819 214.095 260.097 213.91 260.363C213.725 260.628 214.245 261.83 214.395 262.281C214.545 262.731 214.73 263.355 214.88 263.898C214.984 264.257 215.077 264.603 215.181 264.95C215.181 265.054 215.354 265.377 215.319 265.458C215.173 265.569 215.014 265.662 214.846 265.736L210.894 268.047L211.033 268.07Z" fill="#F0F0F2"/>
<path d="M251.52 249.535V249.65C251.532 249.738 251.532 249.828 251.52 249.916C251.526 250.012 251.526 250.109 251.52 250.205C251.52 250.205 251.52 250.274 251.52 250.297C251.526 250.332 251.526 250.367 251.52 250.401C251.474 250.523 251.408 250.637 251.324 250.736L251.22 250.829C251.104 250.91 250.757 251.118 249.602 251.788C248.446 252.458 248.065 252.678 247.927 252.747H247.788C247.654 252.771 247.517 252.771 247.383 252.747H247.291H247.164L246.921 252.654L246.783 252.585L246.644 252.493L246.505 252.377L246.436 252.308C246.372 252.248 246.314 252.182 246.263 252.111L246.205 252.03C246.012 251.745 245.919 251.404 245.939 251.06C245.934 251.002 245.934 250.944 245.939 250.887V250.806C245.97 250.708 246.022 250.617 246.089 250.54C246.646 250.101 247.242 249.715 247.869 249.384C248.463 249.004 249.085 248.668 249.729 248.379C249.84 248.368 249.953 248.368 250.064 248.379H250.203H250.365H250.457C250.673 248.456 250.87 248.578 251.035 248.737L251.162 248.888L251.277 249.049C251.396 249.19 251.479 249.356 251.52 249.535Z" fill="#0058B6"/>
<path d="M229.704 280.572C227.393 271.674 228.976 265.793 232.119 262.523C232.687 261.978 233.298 261.479 233.945 261.032C234.856 260.466 235.851 260.045 236.892 259.784C238.678 259.309 240.552 259.27 242.357 259.669H242.415L243.166 259.877C245.027 260.483 246.72 261.52 248.105 262.903C249.49 264.287 250.53 265.977 251.139 267.838C251.277 268.3 251.393 268.774 251.485 269.236C251.824 271.547 251.598 273.906 250.827 276.111C249.901 278.576 248.654 280.907 247.118 283.044C244.807 286.072 242.033 288.29 239.884 288.822C239.642 288.891 239.399 288.937 239.168 288.983C238.003 289.169 236.81 289.053 235.701 288.648C233.884 287.828 232.38 286.442 231.415 284.697C230.68 283.396 230.106 282.011 229.704 280.572Z" fill="#0058B6"/>
<path d="M50.3021 245.143L52.5091 246.414C51.947 246.022 51.5005 245.485 51.216 244.862C50.9315 244.238 50.8194 243.549 50.8914 242.867L48.6844 241.585C48.6176 242.268 48.7319 242.956 49.0159 243.581C49.2999 244.206 49.7435 244.745 50.3021 245.143Z" fill="#DED2DA"/>
<mask id="mask7_1_337" style="mask-type:luminance" maskUnits="userSpaceOnUse" x="48" y="241" width="5" height="6">
<path d="M50.3021 245.143L52.5091 246.414C51.947 246.022 51.5005 245.485 51.216 244.862C50.9315 244.238 50.8194 243.549 50.8914 242.867L48.6844 241.585C48.6176 242.268 48.7319 242.956 49.0159 243.581C49.2999 244.206 49.7435 244.745 50.3021 245.143Z" fill="white"/>
</mask>
<g mask="url(#mask7_1_337)">
<path d="M50.8914 242.867L48.6844 241.585C48.6176 242.268 48.7319 242.956 49.0159 243.581C49.2999 244.206 49.7435 244.745 50.3021 245.143L52.5091 246.414C51.947 246.022 51.5005 245.485 51.216 244.862C50.9315 244.238 50.8194 243.549 50.8914 242.867Z" fill="#DED2DA"/>
</g>
<path d="M91.8338 159.163L89.6268 157.834C88.9959 157.54 88.2976 157.42 87.6046 157.487C86.9117 157.554 86.2493 157.806 85.6866 158.216L87.882 159.498C88.4513 159.096 89.1177 158.853 89.8124 158.794C90.5071 158.735 91.2049 158.862 91.8338 159.163Z" fill="#F0F0F2"/>
<mask id="mask8_1_337" style="mask-type:luminance" maskUnits="userSpaceOnUse" x="85" y="157" width="7" height="3">
<path d="M91.8245 159.162L89.6175 157.833C88.9867 157.539 88.2884 157.419 87.5954 157.486C86.9024 157.553 86.24 157.805 85.6773 158.215L87.8728 159.497C88.442 159.095 89.1084 158.851 89.8031 158.792C90.4978 158.734 91.1956 158.861 91.8245 159.162Z" fill="white"/>
</mask>
<g mask="url(#mask8_1_337)">
<path d="M91.8242 159.162L89.6172 157.833C88.9864 157.539 88.2881 157.419 87.5951 157.486C86.9021 157.553 86.2397 157.804 85.677 158.214L87.8725 159.497C88.4417 159.095 89.1081 158.851 89.8028 158.792C90.4975 158.733 91.1953 158.861 91.8242 159.162Z" fill="#F0F0F2"/>
</g>
<path d="M50.7258 187.38L48.5188 186.098L48.6806 241.584L50.8875 242.855L50.7258 187.38Z" fill="#DED2DA"/>
<path d="M87.8986 159.545L85.6916 158.262L54.0543 176.53L56.2497 177.813L87.8986 159.545Z" fill="#F0F0F2"/>
<path d="M56.2499 177.813L54.0429 176.53C52.4346 177.578 51.0962 178.991 50.1365 180.653C49.1768 182.316 48.6228 184.181 48.5197 186.098L50.7266 187.38C50.828 185.463 51.3812 183.597 52.3411 181.934C53.3009 180.272 54.6403 178.86 56.2499 177.813Z" fill="#F0F0F2"/>
<mask id="mask9_1_337" style="mask-type:luminance" maskUnits="userSpaceOnUse" x="48" y="176" width="9" height="12">
<path d="M56.2392 177.814L54.0322 176.531C52.4239 177.579 51.0856 178.991 50.1259 180.654C49.1662 182.316 48.6122 184.182 48.509 186.098L50.716 187.381C50.8174 185.464 51.3705 183.598 52.3304 181.935C53.2903 180.272 54.6296 178.86 56.2392 177.814Z" fill="white"/>
</mask>
<g mask="url(#mask9_1_337)">
<path d="M56.2409 177.814L54.0339 176.531C53.0353 177.143 52.1515 177.925 51.4225 178.842L53.6179 180.125C54.3538 179.21 55.2409 178.428 56.2409 177.814Z" fill="#F0F0F2"/>
<path d="M53.6159 180.089L51.4205 178.806C49.6663 180.846 48.6417 183.411 48.5086 186.098L50.7156 187.38C50.8472 184.696 51.8674 182.131 53.6159 180.089Z" fill="#F0F0F2"/>
</g>
<path d="M56.2518 177.813C54.6422 178.859 53.3028 180.272 52.343 181.934C51.3831 183.597 50.8299 185.463 50.7285 187.38L50.8903 242.844C50.8903 246.31 53.3862 247.778 56.4482 246.01L88.0855 227.742C89.6964 226.696 91.0367 225.285 91.9967 223.622C92.9568 221.959 93.5092 220.092 93.6087 218.174L93.4585 162.711C93.4585 159.244 90.9511 157.777 87.889 159.545L56.2518 177.813Z" fill="#F0EAEE"/>
<path d="M90.4078 188.271V190.686L53.929 211.751V209.336L90.4078 188.271Z" fill="#D7CBD4"/>
<path d="M90.4078 164.063V168.928L53.929 189.993V185.128L90.4078 164.063Z" fill="#D7CBD4"/>
<path d="M90.4078 200.959V203.374L53.929 224.438V222.023L90.4078 200.959Z" fill="#D7CBD4"/>
<path d="M90.4078 196.729V199.144L53.929 220.208V217.793L90.4078 196.729Z" fill="#D7CBD4"/>
<path d="M90.4078 192.5V194.915L53.929 215.979V213.564L90.4078 192.5Z" fill="#D7CBD4"/>
<path d="M75.4327 179.986V182.401L53.929 194.822V192.407L75.4327 179.986Z" fill="#D7CBD4"/>
<path d="M75.4327 192.685V195.1L53.929 207.51V205.106L75.4327 192.685Z" fill="#D7CBD4"/>
<path d="M75.4327 188.456V190.871L53.929 203.281V200.866L75.4327 188.456Z" fill="#D7CBD4"/>
<path d="M75.4327 184.227V186.642L53.929 199.052V196.637L75.4327 184.227Z" fill="#D7CBD4"/>
<path d="M88.4741 173.053L88.6128 176.312L88.2661 176.52C88.2832 176.051 88.1406 175.591 87.8617 175.214C87.7681 175.094 87.6428 175.002 87.5 174.949C87.3571 174.896 87.2023 174.884 87.0529 174.914C86.6176 175.032 86.204 175.219 85.828 175.468L84.3375 176.335V187.243C84.2834 187.726 84.3509 188.214 84.5339 188.664C84.7534 188.907 85.1232 188.872 85.6894 188.572L86.1285 188.317V188.71L80.8825 191.738V191.345L81.3101 191.102C81.7559 190.853 82.1239 190.485 82.3731 190.039C82.5767 189.469 82.6594 188.863 82.6158 188.26V177.34L80.8825 178.346C80.4153 178.607 79.997 178.947 79.6462 179.351C79.3137 179.748 79.0553 180.202 78.8836 180.691C78.7423 181.154 78.6532 181.63 78.6178 182.112L78.2711 182.309L78.4098 178.842L88.4741 173.053Z" fill="#0077F7"/>
<path d="M68.9083 218.117V220.532L90.4119 208.122V205.707L68.9083 218.117Z" fill="#D7CBD4"/>
<path d="M68.9083 230.816V233.231L90.4119 220.81V218.395L68.9083 230.816Z" fill="#D7CBD4"/>
<path d="M68.9083 226.587V229.002L90.4119 216.58V214.165L68.9083 226.587Z" fill="#D7CBD4"/>
<path d="M68.9083 222.346V224.761L90.4119 212.351V209.936L68.9083 222.346Z" fill="#D7CBD4"/>
<path d="M66.4742 220.104L66.6129 223.374L66.2662 223.571C66.2444 223.192 66.1544 222.82 66.0004 222.473C65.9249 222.335 65.815 222.219 65.6814 222.136C65.5478 222.053 65.395 222.006 65.2378 221.999C64.7961 222.035 64.3706 222.182 64.0014 222.427L62.2682 223.432V234.351C62.2682 235.23 62.3491 235.726 62.5109 235.854C62.6726 235.981 63.1002 235.946 63.5739 235.669L64.0014 235.426V235.819L58.7555 238.846V238.453L59.1946 238.199C59.697 237.952 60.1033 237.546 60.3501 237.044C60.5114 236.509 60.5779 235.949 60.5465 235.391V224.483L59.056 225.339C58.6176 225.578 58.2068 225.865 57.8311 226.194C57.4851 226.55 57.2106 226.97 57.0223 227.43C56.7762 227.992 56.639 228.596 56.6179 229.209L56.2712 229.406L56.4099 225.939L66.4742 220.104Z" fill="#0077F7"/>
<path d="M26.933 163.925L29.452 165.393C28.8134 164.937 28.3062 164.321 27.9816 163.607C27.657 162.893 27.5265 162.106 27.6032 161.325L25.0842 159.869C25.0084 160.648 25.1394 161.433 25.464 162.145C25.7886 162.858 26.2953 163.471 26.933 163.925Z" fill="#D7CBD4"/>
<mask id="mask10_1_337" style="mask-type:luminance" maskUnits="userSpaceOnUse" x="25" y="159" width="5" height="7">
<path d="M26.934 163.925L29.4529 165.392C28.8143 164.937 28.3072 164.321 27.9826 163.607C27.658 162.893 27.5274 162.106 27.6042 161.325L25.0852 159.869C25.0094 160.648 25.1404 161.433 25.465 162.145C25.7896 162.857 26.2963 163.471 26.934 163.925Z" fill="white"/>
</mask>
<g mask="url(#mask10_1_337)">
<path d="M27.6051 161.301L25.0862 159.845C25.0104 160.624 25.1414 161.409 25.466 162.122C25.7906 162.834 26.2973 163.448 26.935 163.901L29.4539 165.369C28.8153 164.913 28.3081 164.297 27.9835 163.583C27.6589 162.869 27.5284 162.082 27.6051 161.301Z" fill="#D7CBD4"/>
</g>
<path d="M61.4581 111.616L58.9506 110.149C58.2287 109.813 57.43 109.677 56.6376 109.754C55.8451 109.831 55.0878 110.119 54.4442 110.588L56.9632 112.055C57.6045 111.586 58.3599 111.298 59.1506 111.221C59.9412 111.144 60.7381 111.28 61.4581 111.616Z" fill="#F0F0F2"/>
<mask id="mask11_1_337" style="mask-type:luminance" maskUnits="userSpaceOnUse" x="54" y="109" width="8" height="4">
<path d="M61.4571 111.616L58.9497 110.148C58.2277 109.813 57.429 109.676 56.6366 109.754C55.8442 109.831 55.0868 110.119 54.4433 110.588L56.9622 112.055C57.6035 111.586 58.359 111.298 59.1496 111.221C59.9403 111.144 60.7372 111.28 61.4571 111.616Z" fill="white"/>
</mask>
<g mask="url(#mask11_1_337)">
<path d="M61.4569 111.616L58.9495 110.148C58.2275 109.813 57.4289 109.676 56.6364 109.754C55.844 109.831 55.0867 110.119 54.4431 110.587L56.962 112.055C57.6034 111.586 58.3588 111.298 59.1494 111.221C59.9401 111.143 60.737 111.28 61.4569 111.616Z" fill="#F0F0F2"/>
</g>
<path d="M27.519 136.343L25 134.876L25.0924 159.857L27.5998 161.325L27.519 136.343Z" fill="#D7CBD4"/>
<path d="M56.9596 112.054L54.4407 110.587L31.3078 123.944L33.8268 125.412L56.9596 112.054Z" fill="#F0F0F2"/>
<path d="M33.8279 125.412L31.309 123.956C29.4675 125.149 27.9355 126.762 26.8387 128.662C25.742 130.563 25.1118 132.696 25 134.887L27.519 136.343C27.6307 134.152 28.2609 132.019 29.3577 130.118C30.4545 128.218 31.9865 126.605 33.8279 125.412Z" fill="#F0F0F2"/>
<mask id="mask12_1_337" style="mask-type:luminance" maskUnits="userSpaceOnUse" x="25" y="123" width="9" height="14">
<path d="M33.8279 125.412L31.309 123.956C29.4675 125.149 27.9355 126.762 26.8387 128.662C25.742 130.563 25.1118 132.696 25 134.887L27.519 136.343C27.6307 134.152 28.2609 132.019 29.3577 130.118C30.4545 128.218 31.9865 126.605 33.8279 125.412Z" fill="white"/>
</mask>
<g mask="url(#mask12_1_337)">
<path d="M33.8307 125.412L31.3117 123.956C30.1709 124.638 29.1581 125.514 28.319 126.545L30.8264 128.012C31.6722 126.981 32.6883 126.101 33.8307 125.412Z" fill="#F0F0F2"/>
<path d="M30.8237 128.013L28.3163 126.545C26.3101 128.878 25.1427 131.815 25 134.888L27.519 136.344C27.6627 133.276 28.8256 130.345 30.8237 128.013Z" fill="#DED2DA"/>
</g>
<path d="M33.8284 125.413C31.987 126.605 30.4549 128.218 29.3581 130.119C28.2614 132.019 27.6312 134.152 27.5194 136.343L27.6003 161.302C27.6003 165.323 30.4543 166.941 33.9555 164.93L57.0652 151.561C58.9067 150.368 60.4387 148.755 61.5355 146.855C62.6323 144.955 63.2624 142.822 63.3742 140.63L63.2818 115.649C63.2818 111.639 60.4277 110.01 56.9381 112.032L33.8284 125.413Z" fill="#F0EAEE"/>
<path d="M36.0857 135.615C41.2045 128.047 49.524 123.252 54.6544 124.892C58.9874 126.291 59.6576 131.825 56.6534 138.111C56.6534 139.683 59.1492 143.091 59.1492 143.091C59.1492 143.091 53.7762 145.402 52.2163 144.732C47.1668 150.417 40.4765 153.699 36.1088 152.301C30.9553 150.648 30.9553 143.184 36.0857 135.615Z" fill="#5F7C9B"/>
<path d="M49.7492 137.233C49.7492 138.516 50.6505 139.047 51.7713 138.389C52.3551 138.008 52.842 137.497 53.193 136.895C53.5441 136.293 53.7497 135.618 53.7934 134.922C53.7934 133.628 52.8921 133.108 51.7713 133.767C51.1875 134.147 50.7006 134.659 50.3495 135.26C49.9984 135.862 49.7929 136.538 49.7492 137.233Z" fill="#F0F0F2"/>
<path d="M43.6576 140.746C43.6576 142.028 44.5704 142.56 45.6797 141.901C46.265 141.521 46.7536 141.01 47.1067 140.409C47.4597 139.807 47.6675 139.131 47.7133 138.435C47.7133 137.141 46.8005 136.621 45.6797 137.279C45.0977 137.662 44.6123 138.173 44.2614 138.775C43.9106 139.376 43.7039 140.051 43.6576 140.746Z" fill="#F0F0F2"/>
<path d="M37.5786 144.258C37.5786 145.541 38.4799 146.072 39.6007 145.414C40.1845 145.033 40.6714 144.522 41.0225 143.92C41.3736 143.318 41.5791 142.643 41.6228 141.947C41.6228 140.653 40.7215 140.133 39.6007 140.792C39.0169 141.172 38.53 141.684 38.179 142.285C37.8279 142.887 37.6223 143.563 37.5786 144.258Z" fill="#F0F0F2"/>
<path d="M221.439 145.817L218.989 147.239C219.509 147.002 220.082 146.908 220.651 146.964C221.219 147.021 221.762 147.228 222.225 147.562L224.663 146.141C224.202 145.806 223.661 145.6 223.095 145.543C222.528 145.486 221.957 145.581 221.439 145.817Z" fill="#0077F7"/>
<mask id="mask13_1_337" style="mask-type:luminance" maskUnits="userSpaceOnUse" x="218" y="145" width="7" height="3">
<path d="M221.45 145.816L219 147.237C219.52 147.001 220.093 146.906 220.661 146.963C221.229 147.02 221.773 147.226 222.235 147.561L224.673 146.139C224.213 145.805 223.672 145.598 223.105 145.541C222.539 145.485 221.967 145.579 221.45 145.816Z" fill="white"/>
</mask>
<g mask="url(#mask13_1_337)">
<path d="M222.291 147.561L224.729 146.14C224.269 145.805 223.727 145.599 223.161 145.542C222.594 145.485 222.023 145.58 221.505 145.816L219.056 147.238C219.575 147.001 220.149 146.907 220.717 146.963C221.285 147.02 221.828 147.226 222.291 147.561Z" fill="#0077F7"/>
</g>
<path d="M243.403 208.226L245.841 206.805L253.49 196.059L251.052 197.48L243.403 208.226Z" fill="#4189D5"/>
<path d="M267.965 205.696L270.403 204.286C270.863 203.962 271.228 203.521 271.461 203.01C271.695 202.498 271.788 201.934 271.732 201.374L269.294 202.796C269.347 203.353 269.252 203.915 269.019 204.424C268.785 204.933 268.422 205.372 267.965 205.696Z" fill="#0077F7"/>
<mask id="mask14_1_337" style="mask-type:luminance" maskUnits="userSpaceOnUse" x="267" y="201" width="5" height="5">
<path d="M267.966 205.695L270.404 204.286C270.864 203.961 271.229 203.521 271.462 203.009C271.695 202.498 271.789 201.933 271.733 201.374L269.295 202.795C269.348 203.353 269.253 203.914 269.019 204.423C268.786 204.933 268.423 205.371 267.966 205.695Z" fill="white"/>
</mask>
<g mask="url(#mask14_1_337)">
<path d="M267.966 205.695L270.404 204.286C270.864 203.961 271.229 203.521 271.462 203.009C271.696 202.498 271.789 201.933 271.733 201.374L269.295 202.795C269.348 203.353 269.253 203.914 269.019 204.423C268.786 204.933 268.423 205.371 267.966 205.695Z" fill="#0077F7"/>
</g>
<path d="M269.292 202.784L271.73 201.375L271.764 178.554L269.326 179.975L269.292 202.784Z" fill="#0077F7"/>
<path d="M264.807 172.14L267.246 170.73L224.654 146.13L222.216 147.551L264.807 172.14Z" fill="#0077F7"/>
<path d="M269.327 179.974L271.765 178.564C271.684 176.994 271.233 175.466 270.447 174.104C269.662 172.742 268.565 171.586 267.247 170.73L264.809 172.151C266.124 173.008 267.218 174.163 268.003 175.522C268.788 176.881 269.242 178.407 269.327 179.974Z" fill="#0077F7"/>
<mask id="mask15_1_337" style="mask-type:luminance" maskUnits="userSpaceOnUse" x="264" y="170" width="8" height="10">
<path d="M269.327 179.974L271.765 178.564C271.684 176.994 271.233 175.466 270.447 174.104C269.662 172.742 268.565 171.586 267.247 170.73L264.809 172.151C266.124 173.008 267.218 174.163 268.003 175.522C268.788 176.881 269.242 178.406 269.327 179.974Z" fill="white"/>
</mask>
<g mask="url(#mask15_1_337)">
<path d="M269.326 179.974L271.764 178.564C271.683 176.994 271.232 175.466 270.447 174.104C269.661 172.742 268.564 171.586 267.246 170.73L264.808 172.151C266.123 173.008 267.217 174.163 268.002 175.522C268.787 176.881 269.241 178.406 269.326 179.974Z" fill="#0077F7"/>
</g>
<path d="M222.277 147.563C219.77 146.107 217.725 147.274 217.725 150.152V172.961C217.811 174.53 218.265 176.056 219.049 177.417C219.834 178.778 220.928 179.935 222.243 180.795L235.935 188.699L243.504 208.226L251.153 197.48L264.845 205.384C267.341 206.828 269.387 205.673 269.398 202.796V179.975C269.313 178.408 268.86 176.882 268.075 175.523C267.29 174.164 266.195 173.009 264.88 172.152L222.277 147.563Z" fill="#509DF0"/>
<path d="M228.75 157.627C228.759 157.859 228.699 158.088 228.576 158.286C228.354 157.93 228.059 157.627 227.71 157.396C226.854 156.899 225.999 157.049 225.999 161.174C225.999 164.352 226.543 165.322 227.34 165.796C227.517 165.922 227.72 166.007 227.933 166.045C228.147 166.083 228.367 166.073 228.576 166.016C228.67 166.292 228.724 166.58 228.738 166.871C228.738 167.483 228.068 167.61 227.086 167.033C225.815 166.305 224.867 165.149 224.867 160.597C224.867 155.281 226.311 155.374 227.502 156.067C228.484 156.61 228.75 157.234 228.75 157.627Z" fill="#F0F0F2"/>
<path d="M231.835 158.552C233.569 159.546 234.146 161.21 234.146 165.416C234.146 169.622 233.384 170.685 231.639 169.68C229.894 168.674 229.213 167.091 229.213 162.608C229.27 158.471 230.102 157.547 231.835 158.552ZM231.731 168.409C232.714 168.963 233.037 167.946 233.037 164.769C233.037 161.591 232.771 160.378 231.812 159.823C230.853 159.269 230.495 160.251 230.495 163.625C230.495 166.537 230.772 167.854 231.731 168.409Z" fill="#F0F0F2"/>
<path d="M238.885 163.023C238.885 162.769 238.885 162.78 239.96 163.393V174.012C239.96 174.162 239.879 174.208 239.74 174.127L238.931 173.665L237.394 168.5C237.175 167.668 236.458 164.745 236.135 163.347C236.204 164.398 236.262 167.437 236.262 168.084V171.874C236.262 172.117 236.262 172.117 235.199 171.504V160.851C235.199 160.689 235.199 160.643 235.407 160.724L236.227 161.197L237.729 166.27C237.995 167.229 238.677 170.06 239.012 171.424C238.92 170.453 238.885 167.414 238.885 166.698V163.023Z" fill="#F0F0F2"/>
<path d="M245.383 166.513V167.426C245.383 167.634 245.314 167.657 245.152 167.565L243.511 166.617V176.081C243.511 176.335 243.511 176.312 242.425 175.711V165.993L240.611 164.942V164.006C240.611 163.832 240.68 163.798 240.83 163.89L245.383 166.513Z" fill="#F0F0F2"/>
<path d="M249.431 178.634C249.431 179.697 249.431 179.79 249.223 179.651L246.068 177.826V167.183C246.068 167.183 246.068 166.929 246.276 167.056L249.489 168.905C249.489 169.922 249.489 170.061 249.292 169.934L247.131 168.686V171.944L249.154 173.1C249.154 174.059 249.154 174.255 248.957 174.14L247.131 173.088V177.306L249.431 178.634Z" fill="#F0F0F2"/>
<path d="M254.018 171.758C254.018 171.504 254.018 171.527 255.104 172.14V182.782C255.104 182.944 255.023 182.99 254.873 182.897L254.076 182.435L252.539 177.27C252.308 176.438 251.603 173.526 251.268 172.117C251.349 173.18 251.395 176.207 251.395 176.866V180.644C251.395 180.898 251.395 180.887 250.332 180.274V169.632C250.332 169.459 250.39 169.424 250.54 169.505L251.36 169.979L252.863 175.052C253.14 175.999 253.822 178.842 254.145 180.194C254.053 179.211 254.018 176.172 254.018 175.456V171.758Z" fill="#F0F0F2"/>
<path d="M260.502 175.249V176.173C260.502 176.369 260.433 176.392 260.271 176.3L258.63 175.353V184.816C258.63 185.07 258.63 185.059 257.544 184.446V174.729L255.73 173.677V172.741C255.73 172.579 255.8 172.533 255.95 172.626L260.502 175.249Z" fill="#F0F0F2"/>
<path d="M231.958 172.372C231.958 172.256 232.028 172.164 232.178 172.244L233.044 172.753V183.395C233.044 183.649 233.044 183.649 231.947 183.014V179.224C231.947 177.745 232.155 175.11 232.178 174.717C231.912 175.757 231.427 177.49 231.311 177.768L230.606 179.755C230.606 179.836 230.514 179.824 230.456 179.755L229.994 179.478L229.301 176.554C229.208 176.173 228.723 173.908 228.446 172.545C228.446 172.545 228.654 175.584 228.7 177.236V180.945C228.7 181.2 228.7 181.165 227.637 180.587V169.933C227.637 169.702 227.729 169.749 227.856 169.818L228.631 170.257L229.913 175.734C230.086 176.462 230.341 177.71 230.341 177.71C230.341 177.71 230.583 176.739 230.722 176.254L231.958 172.372Z" fill="#F0F0F2"/>
<path d="M239.342 187.045C239.342 187.23 239.342 187.288 238.869 187.045C238.718 186.953 238.51 186.837 238.233 186.641L237.667 183.544L235.356 182.204L234.836 184.457C234.836 184.607 234.755 184.654 234.327 184.457C234.189 184.376 233.911 184.203 233.657 184.018L236.049 174.693C236.049 174.555 236.222 174.578 236.454 174.693C236.63 174.798 236.8 174.914 236.962 175.04L239.342 187.045ZM237.424 182.273L236.974 179.766C236.754 178.61 236.558 177.27 236.5 176.484C236.392 177.401 236.234 178.312 236.026 179.211L235.575 181.199L237.424 182.273Z" fill="#F0F0F2"/>
<path d="M243.211 178.692C243.446 178.774 243.674 178.874 243.893 178.992C244.216 179.177 244.378 179.35 244.378 179.512C244.384 179.55 244.384 179.589 244.378 179.628L242.217 182.724C243.482 184.908 244.218 187.358 244.367 189.877C244.367 190.119 244.297 190.154 243.927 189.935C243.669 189.79 243.418 189.631 243.176 189.461C243.006 187.461 242.49 185.506 241.651 183.683C241.505 183.419 241.327 183.175 241.12 182.955V188.074C241.12 188.328 241.12 188.328 239.964 187.693V177.051C239.964 176.797 239.964 176.797 241.12 177.432V182.1L243.211 178.692Z" fill="#F0F0F2"/>
<path d="M245.199 180.344C245.199 179.766 245.199 179.778 246.354 180.402V191.055C246.354 191.298 246.354 191.287 245.199 190.663V180.344Z" fill="#F0F0F2"/>
<path d="M251.163 183.452C251.163 183.198 251.163 183.221 252.249 183.822V194.475C252.249 194.626 252.168 194.683 252.018 194.591L251.209 194.129L249.672 188.964C249.453 188.132 248.748 185.208 248.413 183.81C248.493 184.862 248.54 187.901 248.54 188.559V192.338C248.54 192.592 248.54 192.58 247.477 191.968V181.326C247.477 181.153 247.534 181.106 247.685 181.199L248.505 181.661L250.007 186.722C250.284 187.67 250.955 190.501 251.29 191.864C251.197 190.893 251.163 187.855 251.163 187.138V183.452Z" fill="#F0F0F2"/>
<path d="M257.555 197.249C257.242 197.332 256.914 197.344 256.596 197.281C256.277 197.219 255.977 197.086 255.718 196.891C253.95 195.862 253.211 194.464 253.211 190.085C253.211 185.209 254.366 184.874 256.088 185.89C256.966 186.399 257.509 187.104 257.509 187.508C257.508 187.757 257.461 188.004 257.371 188.236C257.087 187.832 256.721 187.493 256.296 187.242C254.933 186.457 254.355 187.173 254.355 190.709C254.355 194.429 254.875 195.227 255.753 195.724C256.227 196.001 256.481 195.897 256.55 195.793V191.922L255.545 191.344V190.547C255.545 190.374 255.637 190.351 255.799 190.443L257.555 191.46V197.249Z" fill="#F0F0F2"/>
<defs>
<radialGradient id="paint0_radial_1_337" cx="0" cy="0" r="1" gradientUnits="userSpaceOnUse" gradientTransform="translate(177 189) rotate(90) scale(188.5 177)">
<stop stop-color="#3E96F4"/>
<stop offset="1" stop-color="white" stop-opacity="0"/>
</radialGradient>
<linearGradient id="paint1_linear_1_337" x1="134.587" y1="253.625" x2="109.27" y2="84.1145" gradientUnits="userSpaceOnUse">
<stop stop-color="#0074F0"/>
<stop offset="0.11" stop-color="#0978EF"/>
<stop offset="0.28" stop-color="#2182EB"/>
<stop offset="0.5" stop-color="#4894E5"/>
<stop offset="0.75" stop-color="#7EACDD"/>
<stop offset="1" stop-color="#BBC7D4"/>
</linearGradient>
</defs>
</svg>
