<svg width="36" height="36" viewBox="0 0 36 36" fill="none" xmlns="http://www.w3.org/2000/svg">
<path fill-rule="evenodd" clip-rule="evenodd" d="M15.2578 11.7402C15.6918 11.7401 16.1184 11.8582 16.4902 12.082L18.6191 13.3584L18.6211 13.3594C18.7127 13.4149 18.8218 13.4335 18.9268 13.4121L20.2012 13.1572C21.3057 12.9361 22.426 13.5258 22.8691 14.5605L23.998 17.1943C24.0252 17.2574 24.0681 17.3137 24.1191 17.3564L24.1719 17.3945L24.1738 17.3955L25.3301 18.0898L25.541 18.2334C25.7441 18.3869 25.9221 18.5718 26.0674 18.7822C26.2611 19.0629 26.3927 19.3822 26.4531 19.7178C26.5134 20.0535 26.5009 20.3988 26.417 20.7295C26.3331 21.0597 26.1805 21.3686 25.9678 21.6348L24.9404 22.9199L24.9395 22.9189C24.8778 22.9965 24.8441 23.0933 24.8438 23.1924V25.0449C24.8436 25.6751 24.5896 26.2908 24.1436 26.7363L23.5078 27.373L23.4414 27.457L22.0391 29.793C21.7457 30.2811 21.2871 30.6482 20.7471 30.8291L20.748 30.8301C20.5048 30.9131 20.2492 30.9555 19.9922 30.9551C19.0393 30.9551 18.1409 30.3817 17.7686 29.4502L17.126 27.8438L17.0703 27.6904C17.0538 27.6393 17.0394 27.5874 17.0264 27.5352L15.9141 23.084L15.8799 22.9941L15.2822 21.7998C15.1908 21.6171 14.9901 21.5235 14.7842 21.5732L14.7832 21.5723L14.2197 21.7139C13.4991 21.8936 12.7235 21.7261 12.1436 21.2617L10.2871 19.7764C9.71748 19.3196 9.38867 18.6367 9.38867 17.9072V17.2783C9.38814 16.7798 9.54516 16.2936 9.83594 15.8887L12.084 12.7412C12.3054 12.432 12.5974 12.18 12.9355 12.0059C13.2738 11.8318 13.6489 11.7407 14.0293 11.7402H15.2578ZM24.2119 25.9902C24.12 26.162 24.0041 26.3213 23.8652 26.46L23.2285 27.0957C23.1805 27.1438 23.1391 27.1975 23.1045 27.2549L21.7021 29.5918C21.4564 30.0007 21.0726 30.3088 20.6201 30.46C20.4175 30.5292 20.2044 30.5639 19.9902 30.5635L19.9922 30.5645C20.2061 30.5648 20.4176 30.5291 20.6201 30.46C21.0727 30.3089 21.4583 30.0008 21.7041 29.5918L23.1064 27.2549C23.1411 27.1975 23.1825 27.1438 23.2305 27.0957L23.8662 26.459C24.0048 26.3205 24.1202 26.1616 24.2119 25.9902ZM16.0625 20.3691C16.3172 20.5536 16.5309 20.8011 16.6807 21.1006L17.2783 22.2949C17.3436 22.4254 17.3944 22.5625 17.4297 22.7041L18.543 27.1562C18.5518 27.192 18.5635 27.2267 18.5771 27.2607L19.2207 28.8711C19.2754 29.0073 19.365 29.1189 19.4727 29.2051C19.3654 29.1188 19.2772 29.0059 19.2227 28.8701L18.5791 27.2607C18.5655 27.2267 18.5537 27.1919 18.5449 27.1562L17.4326 22.7041C17.415 22.6335 17.3924 22.5642 17.3672 22.4961L17.2803 22.2939L16.6826 21.0996C16.5326 20.7999 16.3175 20.5535 16.0625 20.3691ZM14.0312 13.6973C13.962 13.6975 13.8936 13.7134 13.832 13.7451C13.7704 13.7768 13.7162 13.8227 13.6758 13.8789L11.4287 17.0273L11.4277 17.0283C11.3753 17.1013 11.3476 17.1894 11.3477 17.2793V17.9082C11.3477 18.0417 11.406 18.1649 11.5107 18.249L13.3682 19.7344L13.4541 19.7871C13.5447 19.8298 13.649 19.8418 13.7451 19.8174L14.3115 19.6758L14.457 19.6436C14.6035 19.6156 14.753 19.6016 14.9023 19.6016C15.7922 19.6018 16.6196 20.098 17.0332 20.9248L17.6299 22.1191C17.7081 22.2753 17.7693 22.4399 17.8115 22.6094L18.9248 27.0615V27.0635L18.9424 27.1152L19.5859 28.7256L19.625 28.7998C19.7306 28.9623 19.936 29.0397 20.1289 28.9766C20.2023 28.9514 20.2677 28.9073 20.3184 28.8496L20.3643 28.7861L21.7656 26.4512L21.7666 26.4502C21.8672 26.2832 21.9882 26.1282 22.126 25.9902L22.7627 25.3535C22.8439 25.2718 22.8899 25.1611 22.8906 25.0459V23.1924C22.8906 22.651 23.0767 22.1213 23.415 21.6982L24.4424 20.4141C24.5228 20.3137 24.553 20.192 24.5303 20.0635C24.5067 19.9372 24.4362 19.8347 24.3262 19.7686L23.1699 19.0752C22.7375 18.8162 22.4027 18.4312 22.2031 17.9668L21.0732 15.332C20.9932 15.1457 20.7885 15.0377 20.5869 15.0771L20.5859 15.0762L19.3145 15.332L19.3135 15.3311C18.7273 15.4496 18.1243 15.3418 17.6143 15.0361L15.4834 13.7598C15.4159 13.7192 15.3385 13.6972 15.2598 13.6973H14.0312ZM22.3193 26.3564C22.3128 26.3639 22.3063 26.3714 22.2998 26.3789C22.3191 26.3565 22.3391 26.335 22.3594 26.3135L22.3193 26.3564ZM20.623 13.5029C21.4256 13.4859 22.184 13.9583 22.5078 14.7148L23.6367 17.3486C23.705 17.5071 23.8234 17.6441 23.9707 17.7314L25.127 18.4258C25.3714 18.5726 25.5821 18.7702 25.7441 19.0049C25.906 19.2395 26.0159 19.5065 26.0664 19.7871C26.1168 20.0679 26.1063 20.3563 26.0361 20.6328C25.966 20.9094 25.8374 21.1678 25.6592 21.3906L24.6328 22.6748C24.5159 22.8216 24.4517 23.0038 24.4512 23.1914V25.0449C24.4511 25.237 24.4223 25.4276 24.3682 25.6104C24.4039 25.49 24.4298 25.3666 24.4424 25.2412L24.4531 25.0449V23.1914C24.4537 23.004 24.518 22.8224 24.6348 22.6758L25.6611 21.3906C25.7948 21.2235 25.9005 21.0357 25.9746 20.8359L26.0381 20.6328C26.0907 20.4253 26.1099 20.2106 26.0947 19.998L26.0684 19.7861C26.0304 19.5759 25.9589 19.3735 25.8574 19.1865L25.7461 19.0049C25.5841 18.7702 25.3734 18.5716 25.1289 18.4248L23.9727 17.7305C23.8256 17.6432 23.7069 17.5078 23.6387 17.3496L22.5088 14.7158C22.1848 13.9586 21.4263 13.4852 20.623 13.5029ZM10.9541 17.2803V17.9082C10.9541 18.1607 11.0666 18.3965 11.2637 18.5547L13.1211 20.04C13.2107 20.1118 13.3147 20.162 13.4238 20.1914C13.3458 20.1702 13.2703 20.1379 13.2012 20.0947L13.123 20.04L11.2656 18.5537C11.0688 18.3955 10.9541 18.1605 10.9541 17.9082L10.9551 17.2793C10.9551 17.2564 10.9571 17.2336 10.959 17.2109C10.9571 17.2339 10.9541 17.2571 10.9541 17.2803ZM15.083 20.001C15.0688 19.9997 15.0543 19.9981 15.04 19.9971L15.0293 19.9961C15.0473 19.9973 15.0651 19.9993 15.083 20.001ZM13.7812 13.3447C13.7367 13.3588 13.6931 13.376 13.6514 13.3975C13.5344 13.4577 13.4331 13.5454 13.3564 13.6523L11.1084 16.7998C11.0497 16.8814 11.0088 16.9733 10.9834 17.0693C10.998 17.0145 11.0174 16.961 11.043 16.9102L11.1104 16.7998L13.3584 13.6523C13.4158 13.5723 13.4872 13.5031 13.5684 13.4482L13.6533 13.3975C13.6945 13.3763 13.7374 13.3587 13.7812 13.3447ZM20.5088 14.6924L19.2354 14.9482C19.1131 14.973 18.9899 14.9847 18.8672 14.9863C18.9908 14.9849 19.1151 14.9732 19.2383 14.9482L20.5117 14.6924C20.6003 14.675 20.6892 14.6735 20.7754 14.6846C20.6884 14.6732 20.5982 14.6748 20.5088 14.6924ZM16.2871 12.417L18.416 13.6943L16.2891 12.417C16.2777 12.4102 16.2654 12.405 16.2539 12.3984C16.2648 12.4047 16.2764 12.4105 16.2871 12.417ZM14.0293 13.3057C13.951 13.3058 13.8735 13.3171 13.7988 13.3389C13.8427 13.3259 13.8881 13.317 13.9336 13.3115L14.0312 13.3057H14.0293Z" fill="url(#paint0_linear_0_305)"/>
<path fill-rule="evenodd" clip-rule="evenodd" d="M27.7383 22.333C27.9096 22.2901 28.0897 22.2947 28.2588 22.3457C28.4285 22.3969 28.5821 22.4946 28.7012 22.626C28.8198 22.757 28.9012 22.9174 28.9355 23.0908L29.5225 26.0254C29.5701 26.2637 29.5269 26.5111 29.4023 26.7197L29.4014 26.7207L27.6406 29.6562C27.5642 29.7833 27.4592 29.8909 27.335 29.9717C27.2106 30.0525 27.07 30.1048 26.9229 30.123L26.9141 30.124C26.8847 30.127 26.8453 30.1308 26.8027 30.1309C26.6744 30.1308 26.5463 30.1048 26.4277 30.0557C26.3095 30.0066 26.2019 29.9343 26.1113 29.8438L24.9365 28.6699C24.8228 28.556 24.7399 28.4148 24.6934 28.2607C24.6469 28.1067 24.6383 27.9439 24.6699 27.7861L25.2568 24.8516C25.2949 24.6632 25.388 24.489 25.5234 24.3525L27.2852 22.5898C27.4101 22.4649 27.5669 22.376 27.7383 22.333ZM26.8721 29.7344C26.8483 29.7368 26.8247 29.7382 26.8018 29.7383L26.8027 29.7393L26.874 29.7354C26.885 29.734 26.8954 29.7295 26.9062 29.7275C26.8949 29.7296 26.8835 29.733 26.8721 29.7344ZM28.5498 23.168L29.1367 26.1025C29.1652 26.2457 29.1393 26.3943 29.0645 26.5195L27.3037 29.4541C27.2578 29.5305 27.1948 29.5959 27.1201 29.6445C27.0926 29.6624 27.0631 29.6765 27.0332 29.6895C27.0437 29.6849 27.0552 29.6819 27.0654 29.6768L27.1221 29.6445C27.1781 29.6081 27.2281 29.5625 27.2686 29.5098L27.3057 29.4541L29.0664 26.5195C29.1414 26.3941 29.1664 26.2448 29.1377 26.1016L28.5518 23.167C28.5484 23.1499 28.541 23.1339 28.5361 23.1172C28.541 23.1339 28.5464 23.1508 28.5498 23.168ZM26.7539 25.333L26.2637 27.7852L26.6836 28.2061V28.2041L26.2656 27.7852L26.7559 25.333L27.6133 24.4746L26.7539 25.333ZM27.1152 25.5264L26.7568 27.3271L27.5293 26.0381L27.375 25.2656L27.1152 25.5264ZM28.4092 22.8877C28.4385 22.9201 28.4631 22.9564 28.4844 22.9941C28.4762 22.9797 28.4703 22.9639 28.4609 22.9502L28.4111 22.8887C28.4041 22.8809 28.3951 22.8746 28.3877 22.8672C28.3947 22.8742 28.4025 22.8804 28.4092 22.8877ZM27.9893 22.6953C28.0417 22.6966 28.0939 22.7053 28.1445 22.7207C28.1788 22.731 28.2116 22.7455 28.2432 22.7617C28.2355 22.7578 28.2285 22.7526 28.2207 22.749L28.1465 22.7207C28.0953 22.7051 28.0423 22.6967 27.9893 22.6953Z" fill="url(#paint1_linear_0_305)"/>
<path fill-rule="evenodd" clip-rule="evenodd" d="M18 0C18.9729 2.94148e-08 19.9279 0.0801885 20.8594 0.229492C20.8838 0.233369 20.9082 0.237236 20.9326 0.241211C21.0389 0.258705 21.1453 0.275567 21.251 0.294922C27.8445 1.49088 33.1975 6.25435 35.1748 12.6094C35.7103 14.312 36 16.1228 36 18C36 27.9254 27.9254 36 18 36C13.8705 36 10.0619 34.601 7.02148 32.2539C7.00462 32.2425 6.98591 32.2332 6.96973 32.2207C5.91382 31.4003 4.9608 30.4682 4.12207 29.4502C4.10587 29.4306 4.08936 29.4113 4.07324 29.3916C4.01864 29.3248 3.96475 29.257 3.91113 29.1895C3.86255 29.1284 3.8144 29.0666 3.7666 29.0049C3.7321 28.9602 3.69814 28.9151 3.66406 28.8701C3.59702 28.7819 3.53028 28.693 3.46484 28.6035C3.45291 28.5872 3.44058 28.5711 3.42871 28.5547C3.34846 28.4442 3.26919 28.3321 3.19141 28.2197C3.17746 28.1995 3.16328 28.1795 3.14941 28.1592C1.16406 25.2659 1.10624e-07 21.7665 0 18C0 17.3756 0.0333513 16.7586 0.0957031 16.1504C0.0960192 16.1467 0.0953181 16.1424 0.0957031 16.1387C0.100875 16.0884 0.107693 16.0384 0.113281 15.9883C0.127534 15.8607 0.142267 15.7332 0.15918 15.6064C0.170141 15.5241 0.183218 15.4415 0.195312 15.3594C0.209865 15.2608 0.225062 15.1625 0.241211 15.0645C0.25718 14.9674 0.272489 14.8702 0.290039 14.7734C0.316364 14.6286 0.344242 14.4835 0.374023 14.3398C0.392006 14.253 0.412383 14.1666 0.431641 14.0801C0.45148 13.9911 0.472007 13.902 0.493164 13.8135C0.516683 13.715 0.540253 13.6166 0.56543 13.5186C0.591478 13.4173 0.618721 13.3164 0.646484 13.2158C0.682715 13.0844 0.721533 12.9537 0.760742 12.8232C0.78568 12.7403 0.810816 12.6576 0.836914 12.5752C0.866726 12.481 0.897346 12.3867 0.928711 12.293C0.96126 12.1959 0.995141 12.0993 1.0293 12.0029C1.09126 11.8279 1.15527 11.6535 1.22266 11.4805C1.23562 11.4472 1.24759 11.413 1.26074 11.3799C1.30438 11.2698 1.34969 11.16 1.39551 11.0508C1.41601 11.002 1.43806 10.9539 1.45898 10.9053C2.07272 9.47842 2.86994 8.12657 3.84375 6.8877L3.87695 6.85156C7.17627 2.68072 12.281 0 18 0ZM35.6064 18C35.6064 27.7093 27.7074 35.6074 17.998 35.6074L18 35.6084C27.7093 35.6084 35.6084 27.7093 35.6084 18C35.6084 17.8779 35.604 17.7562 35.6016 17.6348C35.604 17.7562 35.6064 17.878 35.6064 18ZM17.3682 34.4209C17.5772 34.4288 17.7871 34.4346 17.998 34.4346L17.999 34.4336C17.7878 34.4336 17.5775 34.4289 17.3682 34.4209ZM9.34961 26.3662C9.25706 26.5613 9.15061 26.7509 9.0293 26.9326C8.73864 27.3681 8.55533 27.8741 8.49707 28.3936L8.1875 31.1758C10.0643 32.5769 12.2489 33.5866 14.6201 34.084C12.25 33.5864 10.0656 32.5772 8.18945 31.1768L8.49902 28.3936C8.55001 27.9391 8.69717 27.4952 8.92773 27.0996L9.03125 26.9326C9.15233 26.7512 9.25714 26.5609 9.34961 26.3662ZM16.8672 1.99707C12.6431 2.29323 8.86439 4.23153 6.16797 7.17676L7.25488 7.71973C8.28678 8.23639 9.0162 9.22346 9.20605 10.3623L9.25195 10.6309C9.51402 12.2072 8.72911 13.7508 7.2998 14.4658L6.15137 15.04L6.15039 15.0391C5.89191 15.169 5.67078 15.3651 5.50977 15.6055C5.17937 16.1016 4.73172 16.5099 4.20605 16.791C3.74598 17.037 3.23868 17.1795 2.71973 17.2109L2.49707 17.2178H1.97559C1.96308 17.477 1.95605 17.7378 1.95605 18C1.95605 18.0615 1.95731 18.1232 1.95801 18.1846C3.15135 17.9282 4.40342 18.2836 5.29199 19.1719L6.38086 20.2598C6.61596 20.4952 6.9159 20.6556 7.24219 20.7207L7.24316 20.7217C8.94128 21.062 10.1717 22.5632 10.1719 24.2949V24.458C10.1718 25.4194 9.89101 26.3511 9.35742 27.1504C9.10193 27.5332 8.94012 27.9789 8.88867 28.4365L8.60352 30.9941C11.2464 32.9107 14.4933 34.0439 18 34.0439C26.8457 34.0439 34.0439 26.8457 34.0439 18C34.0439 17.6655 34.031 17.3334 34.0107 17.0039C33.8657 17.0256 33.7206 17.0492 33.5752 17.0684L33.5732 17.0693C33.4686 17.0825 33.3621 17.0898 33.2568 17.0898C32.1549 17.0896 31.1738 16.3338 30.8965 15.2354C30.7642 14.7106 30.6019 14.2729 30.4189 13.9287C30.3531 13.8049 30.2385 13.7271 30.0928 13.7119C29.9251 13.6957 29.7599 13.7628 29.6475 13.8984C28.4404 15.3575 27.1712 16.1479 25.8779 16.002C25.0976 15.9125 24.527 15.4991 24.1592 15.1201C23.7935 14.7433 23.6045 14.3795 23.5801 14.3311L23.5791 14.3301C22.2681 11.7079 20.4564 10.5286 18.9814 9.99805C18.2399 9.73133 17.5775 9.62734 17.1006 9.58984C16.6126 9.55152 16.3381 9.58459 16.373 9.57812L16.3584 9.58008L16.3457 9.58203C16.3081 9.58619 16.2717 9.58789 16.2373 9.58789C16.0388 9.58791 15.8128 9.62363 15.5635 9.70117L15.3066 9.79297C13.8492 10.3757 12.2289 9.93838 11.2842 8.69922C10.3567 7.48088 10.3642 5.88723 11.2959 4.66113L11.2969 4.66016L11.3652 4.57129L11.3672 4.56836C11.8483 3.95061 12.5797 3.56152 13.3711 3.49707C14.798 3.38118 15.9634 2.87968 16.8672 1.99707ZM2.11328 19.7578C2.0398 19.7801 1.96645 19.8052 1.89453 19.8359L1.67773 19.9307C2.03363 22.9544 3.23825 25.8154 5.11035 28.1865C5.71245 28.9467 6.38063 29.652 7.10547 30.2949V30.293C6.17254 29.4652 5.33379 28.5335 4.6084 27.5156C3.02352 25.2843 2.0026 22.6742 1.67969 19.9307L1.89648 19.8359C1.96784 19.8054 2.04038 19.78 2.11328 19.7578ZM3.90918 20.5547C3.43104 20.0775 2.73062 19.9314 2.10547 20.1738C2.49314 23.0138 3.64847 25.6973 5.41211 27.9346C5.84253 28.4788 6.30768 28.9946 6.80371 29.4785L6.94434 28.2197L6.98535 27.9326C7.10073 27.266 7.35391 26.6288 7.72949 26.0635C8.00729 25.6477 8.17175 25.1672 8.20801 24.6709L8.21582 24.457V24.2949C8.21582 23.5434 7.71331 22.8837 7.00293 22.6748L6.85938 22.6387C6.15317 22.4985 5.50436 22.1515 4.99609 21.6416L3.90918 20.5547ZM4.42969 18.9834C4.63803 19.1135 4.83409 19.2687 5.01367 19.4482L6.10156 20.5361C6.39151 20.8267 6.76151 21.0242 7.16406 21.1045C8.67967 21.4081 9.77927 22.7495 9.7793 24.2949V24.457C9.7793 25.0021 9.68041 25.5365 9.49023 26.0381C9.64213 25.638 9.73699 25.2176 9.76855 24.7871L9.78027 24.458L9.7793 24.2949C9.7791 22.7497 8.68142 21.4081 7.16602 21.1045C6.76351 21.0242 6.39343 20.8267 6.10352 20.5361L5.0166 19.4482C4.83647 19.2681 4.63874 19.1136 4.42969 18.9834ZM1.60547 16.8262C1.57797 17.2139 1.56348 17.6054 1.56348 18C1.56348 18.2349 1.56929 18.4686 1.5791 18.7012L1.58008 18.7002C1.57619 18.6081 1.57266 18.5154 1.57031 18.4229L1.56543 18C1.56543 17.6054 1.57992 17.2139 1.60742 16.8262H1.60547ZM7.56738 13.8467C7.42812 13.9466 7.27957 14.0374 7.12207 14.1162L5.97461 14.6904C5.65488 14.8509 5.38153 15.0913 5.18262 15.3887C4.88796 15.8313 4.4884 16.1945 4.01953 16.4453C3.79066 16.5677 3.54833 16.6597 3.29883 16.7236C3.48504 16.6761 3.66732 16.6135 3.84277 16.5332L4.02148 16.4443C4.49029 16.1935 4.89093 15.8313 5.18555 15.3887C5.38443 15.0915 5.65696 14.8499 5.97656 14.6895L7.125 14.1152C7.2817 14.0368 7.42874 13.946 7.56738 13.8467ZM33.5225 16.6807C33.4331 16.6919 33.3437 16.6972 33.2559 16.6973L33.2568 16.6982C33.3006 16.6982 33.3453 16.6972 33.3896 16.6943L33.5244 16.6807C33.5468 16.6777 33.5694 16.673 33.5918 16.6699C33.5686 16.673 33.5456 16.6776 33.5225 16.6807ZM32.9199 16.6689C32.9744 16.6782 33.0294 16.6866 33.085 16.6914L33.2412 16.6973C33.1324 16.6965 33.0252 16.6867 32.9199 16.6689ZM4.78613 8.23535C3.20332 10.3713 2.12737 12.9033 1.73242 15.6523H2.49512C2.65449 15.6523 2.81139 15.6329 2.96289 15.5977C2.81188 15.6326 2.65585 15.6514 2.49707 15.6514H1.73438C2.1294 12.903 3.20571 10.3719 4.78809 8.23633L4.78613 8.23535ZM33.2881 15.5234C33.2503 15.5248 33.2128 15.5222 33.1758 15.5186C33.2347 15.5242 33.2947 15.5259 33.3555 15.5186L33.2881 15.5234ZM29.6641 13.4023C29.5426 13.4588 29.4327 13.5419 29.3438 13.6494C28.5586 14.5985 27.7859 15.2065 27.0361 15.4727C27.7865 15.2068 28.5599 14.5983 29.3457 13.6484C29.4342 13.5416 29.5433 13.4587 29.6641 13.4023ZM4.91016 8.7334C3.55404 10.6434 2.60587 12.8619 2.19141 15.2607H2.49707C3.0555 15.2607 3.57431 14.9839 3.88379 14.5195C4.23343 13.9956 4.71311 13.571 5.27637 13.2891L6.4248 12.7148L6.54492 12.6484C7.08767 12.3207 7.39363 11.7201 7.33984 11.0879L7.32227 10.9531L7.27734 10.6855C7.20088 10.2277 6.93405 9.82073 6.55078 9.56738L6.37988 9.46777L4.91016 8.7334ZM19.3457 2.01465C18.3678 3.54325 16.6044 5.1967 13.5312 5.44727C13.2769 5.46802 13.0516 5.58911 12.9102 5.77051L12.9111 5.77148L12.8545 5.8418L12.8555 5.84277C12.3794 6.46898 12.5311 7.10491 12.8408 7.5127C13.1581 7.9293 13.7953 8.29091 14.5811 7.97559C15.1304 7.756 15.6741 7.63753 16.1953 7.63086C16.5157 7.60414 17.8826 7.53946 19.5664 8.12598C21.2889 8.72558 23.6721 10.1413 25.3291 13.4551L25.3262 13.4492L25.3271 13.4502C25.3286 13.4529 25.3318 13.4578 25.3359 13.4648C25.3446 13.4795 25.358 13.503 25.377 13.5312C25.4155 13.5888 25.4733 13.6661 25.5469 13.7441C25.681 13.8862 25.8431 14.0043 26.0244 14.0469L26.1035 14.0605L26.1104 14.0615C26.3145 14.0869 26.5914 14.0193 26.9492 13.7852C27.3046 13.5525 27.7058 13.1771 28.1396 12.6523C28.6133 12.0801 29.3101 11.752 30.042 11.752C30.1269 11.752 30.2095 11.7568 30.2891 11.7646L30.291 11.7656C31.0905 11.8472 31.7704 12.3027 32.1465 13.0098C32.4105 13.506 32.6274 14.0958 32.7939 14.7568C32.8582 15.0101 33.0899 15.1594 33.3174 15.1289C33.4674 15.1089 33.6169 15.0843 33.7666 15.0615C33.6604 14.4843 33.5244 13.9186 33.3594 13.3662C33.3076 13.1951 33.2545 13.0242 33.1973 12.8555C33.1615 12.7488 33.1229 12.6427 33.085 12.5371C31.0923 7.05214 26.1883 2.95268 20.251 2.11523C19.952 2.07353 19.6497 2.03978 19.3457 2.01465ZM32.4121 14.8525C32.4297 14.9222 32.4575 14.9867 32.4893 15.0479C32.4702 15.0109 32.4526 14.9727 32.4385 14.9326L32.4141 14.8525C32.3748 14.6966 32.3307 14.5457 32.2861 14.3994C32.3307 14.5454 32.3729 14.6968 32.4121 14.8525ZM26.0596 14.4492C26.0647 14.4499 26.0701 14.4496 26.0752 14.4502C26.0708 14.4497 26.0659 14.4498 26.0615 14.4492C26.0543 14.4484 26.0472 14.4462 26.04 14.4453C26.0466 14.4461 26.053 14.4485 26.0596 14.4492ZM30.041 12.1436C30.1104 12.1436 30.1797 12.1475 30.249 12.1543C30.9193 12.2226 31.4842 12.6018 31.7988 13.1934C31.9773 13.5287 32.1341 13.9148 32.2686 14.3447C32.1807 14.0631 32.0858 13.7995 31.9785 13.5576L31.8008 13.1934C31.4862 12.6019 30.9212 12.2226 30.251 12.1543L30.041 12.1436ZM16.5781 8.00586C17.1313 8.00052 18.1921 8.06296 19.4355 8.49609C21.078 9.06781 23.3733 10.4215 24.9775 13.6299C24.9808 13.6365 25.0539 13.7701 25.1875 13.9287C25.1312 13.8618 25.0855 13.7995 25.0518 13.749L24.9795 13.6299C23.3752 10.4216 21.0799 9.06683 19.4375 8.49512C18.1928 8.0616 17.1308 8.00029 16.5781 8.00586ZM34.7529 12.5791C34.7712 12.6359 34.789 12.6929 34.8066 12.75C34.8084 12.7556 34.8108 12.761 34.8125 12.7666C34.806 12.7459 34.8005 12.7248 34.7939 12.7041C34.7809 12.6623 34.7663 12.6208 34.7529 12.5791ZM8.75586 12.2139C8.88261 11.8166 8.93512 11.3917 8.89844 10.959L8.86621 10.6953L8.82031 10.4268C8.66166 9.4748 8.07964 8.64029 7.24902 8.16016L7.0791 8.06934L5.53711 7.29883C6.18244 6.54833 6.89405 5.85624 7.66309 5.23242C6.89376 5.85637 6.18071 6.54716 5.53516 7.29785L7.07715 8.06934C7.99794 8.53018 8.64936 9.41189 8.81836 10.4277L8.86426 10.6963C8.9511 11.2188 8.9081 11.7364 8.75586 12.2139ZM14.1729 9.65137H14.1748C14.1911 9.65041 14.2073 9.64673 14.2236 9.64551C14.2066 9.64679 14.1898 9.65037 14.1729 9.65137ZM16.2998 9.19336C16.2782 9.19574 16.257 9.19629 16.2354 9.19629C16.1465 9.19629 16.0549 9.20224 15.9609 9.21387C15.9694 9.21282 15.9779 9.21189 15.9863 9.21094L16.2373 9.19727L16.3027 9.19336C16.3125 9.19191 16.3949 9.18359 16.5371 9.18066C16.39 9.18362 16.3059 9.19223 16.2998 9.19336ZM12.8447 5.2959C12.7527 5.3625 12.6696 5.4413 12.5996 5.53125L12.542 5.60645C11.9353 6.40449 12.1371 7.23662 12.5273 7.75C12.6641 7.92964 12.8517 8.10186 13.0781 8.23535C12.8935 8.1262 12.7355 7.99054 12.6094 7.84668L12.5303 7.75C12.1399 7.23661 11.9361 6.40362 12.543 5.60547L12.6016 5.53125C12.6713 5.44166 12.7531 5.36233 12.8447 5.2959ZM14.1426 4.97852C13.9345 5.01133 13.7195 5.03852 13.4971 5.05664C13.3776 5.0664 13.2618 5.0928 13.1523 5.13281C13.2214 5.10746 13.2937 5.08775 13.3672 5.07422L13.5 5.05664C13.7214 5.03857 13.9353 5.01114 14.1426 4.97852ZM19.1396 1.60645C18.4975 2.67853 17.4577 3.8476 15.8076 4.52148C17.4587 3.84788 18.4972 2.67887 19.1396 1.60645ZM21.167 0.677734C21.2378 0.690528 21.3084 0.704142 21.3789 0.717773C21.3181 0.706029 21.2573 0.692763 21.1963 0.681641C21.1719 0.677156 21.1475 0.673223 21.123 0.668945C21.1378 0.671589 21.1523 0.675054 21.167 0.677734ZM20.7842 0.612305C20.8151 0.617195 20.8461 0.621903 20.877 0.626953C20.8415 0.620904 20.806 0.614961 20.7705 0.609375C20.7601 0.607727 20.7496 0.606122 20.7393 0.604492C20.7543 0.606849 20.7692 0.60991 20.7842 0.612305ZM2.49707 16.8262C2.55674 16.8262 2.61638 16.8235 2.67578 16.8203C2.61583 16.8236 2.55534 16.8262 2.49512 16.8262H2.49707Z" fill="url(#paint2_linear_0_305)"/>
<defs>
<linearGradient id="paint0_linear_0_305" x1="50.0219" y1="57.8378" x2="-15.7667" y2="2.75203" gradientUnits="userSpaceOnUse">
<stop stop-color="#31393C"/>
<stop offset="1" stop-color="#3D96F5"/>
</linearGradient>
<linearGradient id="paint1_linear_0_305" x1="50.0219" y1="57.8378" x2="-15.7667" y2="2.75203" gradientUnits="userSpaceOnUse">
<stop stop-color="#31393C"/>
<stop offset="1" stop-color="#3D96F5"/>
</linearGradient>
<linearGradient id="paint2_linear_0_305" x1="50.0219" y1="57.8378" x2="-15.7667" y2="2.75203" gradientUnits="userSpaceOnUse">
<stop stop-color="#31393C"/>
<stop offset="1" stop-color="#3D96F5"/>
</linearGradient>
</defs>
</svg>
