<svg width="36" height="36" viewBox="0 0 36 36" fill="none" xmlns="http://www.w3.org/2000/svg">
<g clip-path="url(#clip0_2553_5181)">
<path d="M32.5579 11.7353L30.8814 12.1765L34.5874 15.9706L35.9991 10.8529L34.2344 11.2941C33.4403 9.26472 32.205 7.41179 30.7049 5.82356C28.2344 3.08826 24.705 1.23532 20.9991 0.617676L20.7344 2.38238C24.0873 3.00003 27.1756 4.6765 29.5579 7.05885C30.7932 8.47061 31.8521 10.0589 32.5579 11.7353Z" fill="#3DA4C2"/>
<path d="M28.9411 29.4705C27.5293 30.794 25.941 31.7646 24.2646 32.5587L23.8234 30.8822L20.0293 34.5882L25.147 35.9999L24.7058 34.2352C26.7352 33.4411 28.5881 32.2058 30.1763 30.7057C32.9116 28.1469 34.7645 24.6175 35.3822 20.9117L33.6175 20.647C33.0881 24.0881 31.4117 27.1764 28.9411 29.4705Z" fill="#3DA4C2"/>
<path d="M3.44118 24.2646L5.11764 23.8234L1.41177 20.0293L0 25.147L1.7647 24.7058C2.55883 26.7352 3.79412 28.5881 5.29412 30.1763C7.85294 32.9116 11.3824 34.7645 15.0882 35.3822L15.3529 33.6175C12 32.9999 8.91176 31.3234 6.52941 28.9411C5.20588 27.5293 4.14706 25.941 3.44118 24.2646Z" fill="#3DA4C2"/>
<path d="M7.05837 6.52941C8.47012 5.20588 10.0584 4.23529 11.7348 3.44118L12.176 5.11764L15.9701 1.41177L10.8525 0L11.2936 1.7647C9.26423 2.55883 7.4113 3.79412 5.82307 5.29412C3.08777 7.7647 1.23484 11.2941 0.617188 15L2.38189 15.2647C2.9113 11.9118 4.58778 8.82353 7.05837 6.52941Z" fill="#3DA4C2"/>
<path d="M26.9127 28.059C27.6186 28.059 28.2362 27.5295 28.2362 26.8237V18.7943C28.2362 18.0883 27.6186 17.559 26.9127 17.559L26.3832 17.7354C25.7656 16.1472 24.1773 14.9119 21.9715 14.206C22.6774 13.3236 23.0303 12.2649 23.0303 11.1177C23.0303 8.3825 20.8245 6.08838 18.0009 6.08838C15.1773 6.08838 12.9715 8.29426 12.9715 11.1177C12.9715 12.2649 13.4127 13.4119 14.0303 14.206C11.8245 14.9119 10.2362 16.2354 9.61859 17.7354L9.08912 17.559C8.38327 17.559 7.76562 18.0883 7.76562 18.7943V26.8237C7.76562 27.5295 8.38327 28.059 9.08912 28.059L17.5597 30.1766C17.7362 30.1766 17.8244 30.1766 18.0009 30.0884C18.1774 30.1766 18.2656 30.1766 18.4421 30.1766L26.9127 28.059ZM26.3832 26.3825L18.8833 28.2354V21.3531L26.3832 19.5002V26.3825ZM18.0009 7.76484C19.7656 7.76484 21.2656 9.26483 21.2656 11.0295C21.2656 12.7943 19.7656 14.2943 18.0009 14.2943C16.2362 14.2943 14.7362 12.7943 14.7362 11.0295C14.7362 9.26483 16.2362 7.76484 18.0009 7.76484ZM15.7068 15.5296C16.4127 15.7942 17.2068 16.0589 18.0009 16.0589C18.7951 16.0589 19.5891 15.8825 20.2068 15.5296C22.3244 15.9707 24.0009 16.9413 24.5303 18.1766L18.3539 19.6766C18.1774 19.6766 18.0891 19.6766 17.9127 19.7649C17.7362 19.6766 17.6479 19.6766 17.4715 19.6766L11.295 18.1766C12.0009 16.9413 13.5891 15.9707 15.7068 15.5296ZM17.1186 28.2354L9.61859 26.3825V19.5002L17.1186 21.3531V28.2354Z" fill="#3DA4C2"/>
</g>
<defs>
<clipPath id="clip0_2553_5181">
<rect width="36" height="36" fill="white"/>
</clipPath>
</defs>
</svg>
