<svg width="44" height="44" viewBox="0 0 44 44" fill="none" xmlns="http://www.w3.org/2000/svg">
<path d="M10.5954 8.74959C10.7586 8.74959 10.9151 8.68477 11.0305 8.56939C11.1459 8.45401 11.2107 8.29752 11.2107 8.13435C11.2107 7.97118 11.1459 7.81469 11.0305 7.69932C10.9151 7.58394 10.7586 7.51912 10.5954 7.51912C10.4323 7.51912 10.2758 7.58394 10.1604 7.69932C10.045 7.81469 9.9802 7.97118 9.9802 8.13435C9.9802 8.29752 10.045 8.45401 10.1604 8.56939C10.2758 8.68477 10.4323 8.74959 10.5954 8.74959ZM5.67356 8.74959C5.83673 8.74959 5.99322 8.68477 6.1086 8.56939C6.22398 8.45401 6.2888 8.29752 6.2888 8.13435C6.2888 7.97118 6.22398 7.81469 6.1086 7.69932C5.99322 7.58394 5.83673 7.51912 5.67356 7.51912C5.51039 7.51912 5.35391 7.58394 5.23853 7.69932C5.12315 7.81469 5.05833 7.97118 5.05833 8.13435C5.05833 8.29752 5.12315 8.45401 5.23853 8.56939C5.35391 8.68477 5.51039 8.74959 5.67356 8.74959ZM8.1345 8.74959C8.29767 8.74959 8.45416 8.68477 8.56954 8.56939C8.68492 8.45401 8.74974 8.29752 8.74974 8.13435C8.74974 7.97118 8.68492 7.81469 8.56954 7.69932C8.45416 7.58394 8.29767 7.51912 8.1345 7.51912C7.97133 7.51912 7.81484 7.58394 7.69947 7.69932C7.58409 7.81469 7.51927 7.97118 7.51927 8.13435C7.51927 8.29752 7.58409 8.45401 7.69947 8.56939C7.81484 8.68477 7.97133 8.74959 8.1345 8.74959ZM7.99956 15.2672L8.01088 15.2673L13.5733 15.2687H13.5737C13.958 15.2687 14.2842 15.0197 14.3857 14.6491C14.4872 14.2783 14.3331 13.8978 14.0024 13.7021L13.1564 13.2016C13.8313 12.533 14.3659 11.7363 14.7286 10.8582C15.0914 9.98019 15.275 9.03851 15.2688 8.0885C15.2444 4.23565 12.0909 1.05621 8.23925 1.00075C4.24803 0.943412 1 4.17192 1 8.13452C1 11.9344 4.13097 15.1849 7.99956 15.2672ZM3.99004 3.92959C5.12453 2.81135 6.62406 2.20883 8.22162 2.23106C11.4088 2.27691 14.0181 4.90798 14.0383 8.09621C14.0439 8.94583 13.8659 9.78665 13.5167 10.5612C13.1674 11.3357 12.655 12.0257 12.0145 12.584C11.9075 12.6776 11.8241 12.7952 11.7712 12.9272C11.7183 13.0592 11.6974 13.2018 11.7102 13.3434C11.7234 13.4849 11.7699 13.6212 11.8459 13.7412C11.9218 13.8613 12.0251 13.9616 12.1473 14.0341L12.1535 14.0377L8.01695 14.0367C4.81921 13.9754 2.23047 11.341 2.23047 8.13452C2.23047 6.54139 2.85538 5.04809 3.99004 3.92959ZM42.3848 41.7695H41.7695V32.6075C41.7695 30.2071 40.3511 28.0273 38.1491 27.0512L34.9067 25.6616C35.6957 25.4126 36.4084 24.9686 36.9884 24.3528C37.8634 23.4238 38.3652 22.1632 38.3652 20.8943C38.3652 19.7283 37.9579 18.6278 37.187 17.7114C36.2219 16.5641 35.6925 15.1132 35.6918 13.614V10.6658C35.6918 8.08366 34.6862 5.65652 32.8604 3.83157C31.0345 2.00555 28.6071 1.00001 26.0253 1.00001C20.6955 1.00001 16.3595 5.33602 16.3595 10.6658V13.518C16.3599 15.0674 15.7509 16.5463 14.7615 17.7385C13.5162 19.2388 13.2574 21.2674 14.0864 23.0325C14.7016 24.3427 15.8113 25.284 17.1398 25.6824L13.9201 27.0825C11.6612 28.0331 10.2015 30.2308 10.2015 32.6814V39.9239C10.2015 40.2637 10.4769 40.5391 10.8168 40.5391C11.1566 40.5391 11.432 40.2637 11.432 39.9239V32.6814C11.432 30.7272 12.5959 28.9746 14.4041 28.2138L18.4398 26.4588V30.1621H16.5857C16.3269 30.1623 16.0711 30.2168 15.8347 30.3221C15.5983 30.4274 15.3867 30.5811 15.2135 30.7734C15.0405 30.9659 14.91 31.1925 14.8302 31.4387C14.7504 31.6848 14.7232 31.945 14.7503 32.2023L15.7645 41.7695H1.61523C1.27538 41.7695 1 42.045 1 42.3848C1 42.7245 1.27538 43 1.61523 43H42.3848C42.7246 43 43 42.7245 43 42.3848C43 42.045 42.7246 41.7695 42.3848 41.7695ZM36.2456 18.5037C36.8273 19.1952 37.1348 20.0218 37.1348 20.8942C37.1348 21.8529 36.7549 22.806 36.0927 23.5091C35.3915 24.2536 34.4282 24.6636 33.3803 24.6636H32.5785L31.5253 24.2121C31.0776 24.0204 30.6875 23.7154 30.3933 23.3272C30.0991 22.939 29.911 22.481 29.8473 21.9981C31.7456 20.976 33.039 18.97 33.039 16.6672V12.042C33.2185 12.0544 33.3984 12.0607 33.5784 12.0609C33.8743 12.0609 34.169 12.044 34.4614 12.0109V13.614C34.4622 15.403 35.094 17.1345 36.2456 18.5037ZM26.1748 28.2163C23.9781 28.2553 21.7873 27.9765 19.6703 27.3886V25.9237L19.8482 25.8464L19.8525 25.8446L20.9501 25.3673C21.5444 25.1091 22.0679 24.7116 22.4763 24.2086C22.8848 23.7055 23.1663 23.1116 23.297 22.4769C23.8449 22.6367 24.4128 22.7178 24.9835 22.7179H26.9883C27.5612 22.7178 28.1312 22.636 28.681 22.4751C28.8161 23.1071 29.1009 23.6974 29.5114 24.1965C29.922 24.6955 30.4463 25.0887 31.0404 25.3431L32.2118 25.8451L32.214 25.846L32.3008 25.8832V27.2676C30.3114 27.8608 28.2504 28.1799 26.1748 28.2163ZM32.3007 28.5486V30.1622H19.6703V28.6627C21.7995 29.2214 23.9953 29.4852 26.1963 29.4466C28.2612 29.4104 30.3128 29.1086 32.3007 28.5486ZM34.4614 10.7703C32.7667 10.9992 30.8564 10.5452 29.5403 9.52552C29.4112 9.42691 29.2484 9.38335 29.0873 9.40435C28.9262 9.42535 28.78 9.5092 28.6805 9.63761C28.581 9.76601 28.5363 9.92855 28.5562 10.0898C28.5761 10.251 28.659 10.3978 28.7867 10.4982C29.6471 11.1647 30.6849 11.6343 31.8085 11.871V15.2205C31.5129 15.8943 31.1838 16.4546 30.4418 17.0667C30.1305 17.3233 29.7875 17.539 29.4214 17.7083C29.1224 17.1248 28.5151 16.7243 27.8157 16.7243H26.3739C25.3794 16.7243 24.5704 17.5334 24.5704 18.5278C24.5704 19.5222 25.3794 20.3312 26.3739 20.3312H27.8157C28.6526 20.3312 29.358 19.7582 29.5606 18.984C30.3836 18.6704 31.7255 17.5516 31.7259 17.5512C31.3092 19.788 29.3441 21.4871 26.9884 21.4871H24.9835C22.3257 21.4871 20.1633 19.3248 20.1633 16.6669V11.9112C22.2529 11.5837 24.227 10.8766 26.0374 9.80574C28.794 8.1752 30.5622 6.04452 31.6292 4.36116C33.455 5.98727 34.4936 8.31851 34.4614 10.7703ZM28.3885 18.5295C28.3876 18.8448 28.131 19.1009 27.8156 19.1009H26.3738C26.0578 19.1009 25.8008 18.8439 25.8008 18.528C25.8008 18.212 26.0579 17.955 26.3738 17.955H27.8156C28.1309 17.955 28.3874 18.211 28.3885 18.5261V18.5295ZM17.59 10.6658C17.59 6.0145 21.374 2.23048 26.0253 2.23048C27.6934 2.23048 29.2874 2.71201 30.6495 3.60844C29.6675 5.18254 28.0147 7.20674 25.4109 8.74696C23.6247 9.80352 21.6654 10.4781 19.5872 10.7519H17.5899V10.6658H17.59ZM15.2 22.5094C14.5762 21.1807 14.7709 19.6537 15.7075 18.5252C16.8828 17.1093 17.5913 15.3597 17.59 13.518V11.9824H18.9328V16.6672C18.9328 18.9713 20.2279 20.9783 22.1279 21.9998C22.0691 22.4861 21.8842 22.9486 21.5915 23.3413C21.2988 23.7341 20.9085 24.0435 20.4594 24.2388L19.4825 24.6636H18.5908C17.1232 24.6636 15.824 23.8382 15.2 22.5094ZM36.6173 32.0727L35.5894 41.7695H17.0018L15.9739 32.0727C15.9643 31.9869 15.9731 31.9001 15.9998 31.8179C16.0264 31.7358 16.0702 31.6603 16.1283 31.5964C16.1857 31.5319 16.2562 31.4804 16.335 31.4453C16.4139 31.4101 16.4993 31.3922 16.5857 31.3927H36.0055C36.1822 31.3927 36.3447 31.465 36.4629 31.5964C36.521 31.6603 36.5648 31.7358 36.5914 31.8179C36.618 31.9001 36.6269 31.9869 36.6173 32.0727ZM40.539 41.7695H36.8267L37.8409 32.2025C37.868 31.9451 37.8408 31.685 37.761 31.4388C37.6812 31.1927 37.5506 30.966 37.3777 30.7735C37.2045 30.5812 36.9929 30.4275 36.7565 30.3222C36.5201 30.2169 36.2643 30.1624 36.0055 30.1622H33.5311V26.4107L37.6574 28.1792C39.4079 28.9552 40.539 30.6933 40.539 32.6075V41.7695ZM26.2956 34.2432C25.0064 34.2432 23.9577 35.2919 23.9577 36.5811C23.9577 37.8702 25.0064 38.9189 26.2956 38.9189C27.5847 38.9189 28.6334 37.8702 28.6334 36.5811C28.6334 35.2919 27.5847 34.2432 26.2956 34.2432ZM26.2956 37.6885C25.6849 37.6885 25.1881 37.1917 25.1881 36.5811C25.1881 35.9704 25.6849 35.4736 26.2956 35.4736C26.9062 35.4736 27.403 35.9704 27.403 36.5811C27.403 37.1917 26.9063 37.6885 26.2956 37.6885Z" fill="#3E96F4" stroke="#3E96F4" stroke-width="0.5"/>
</svg>
