<svg width="65" height="64" viewBox="0 0 65 64" fill="none" xmlns="http://www.w3.org/2000/svg">
<path fill-rule="evenodd" clip-rule="evenodd" d="M61.9004 20.4573C61.8538 20.3345 61.7834 20.2221 61.6933 20.1265C61.6033 20.0309 61.4953 19.954 61.3755 19.9001C61.2557 19.8462 61.1265 19.8165 60.9952 19.8126C60.8639 19.8087 60.7332 19.8306 60.6104 19.8773C60.4876 19.9239 60.3752 19.9942 60.2796 20.0843C60.184 20.1744 60.1071 20.2823 60.0532 20.4021C59.9993 20.5219 59.9696 20.6511 59.9657 20.7824C59.9618 20.9137 59.9838 21.0445 60.0304 21.1672C62.1659 26.7038 62.6116 32.7494 61.3108 38.5393C60.0101 44.3292 57.0215 49.6033 52.723 53.6944C48.4245 57.7855 43.0093 60.51 37.1622 61.5231C31.3152 62.5362 25.299 61.7925 19.8746 59.3861C14.4503 56.9796 9.86143 53.0185 6.68858 48.0037C3.51573 42.989 1.90138 37.1459 2.04972 31.2136C2.19807 25.2812 4.10243 19.5262 7.52195 14.6763C10.9415 9.82639 15.7225 6.09958 21.2604 3.96723C27.2953 1.6532 33.9145 1.34119 40.1404 3.07725C40.3746 3.09917 40.609 3.03785 40.8025 2.90403C40.9959 2.77021 41.136 2.57247 41.1981 2.34559C41.2602 2.1187 41.2404 1.87717 41.142 1.66349C41.0437 1.44981 40.8731 1.27765 40.6604 1.17725C34.0184 -0.669545 26.959 -0.336546 20.5204 2.12727C13.5428 4.80888 7.72428 9.84858 4.07426 16.372C0.424244 22.8953 -0.826873 30.4907 0.538005 37.8402C1.90288 45.1896 5.79763 51.8293 11.5464 56.6072C17.2952 61.3851 24.5353 63.9997 32.0104 63.9973C35.9495 63.9911 39.8542 63.2623 43.5304 61.8472C51.4476 58.7948 57.8283 52.723 61.2695 44.9669C64.7106 37.2107 64.9303 28.4054 61.8804 20.4873L61.9004 20.4573ZM40.4603 8.45726C40.2741 8.64462 40.1696 8.89803 40.1696 9.16221C40.1696 9.4264 40.2741 9.67987 40.4603 9.86723L48.6303 18.0472L63.3203 3.34721C63.4841 3.15591 63.5698 2.90986 63.5601 2.65819C63.5503 2.40651 63.446 2.16776 63.2679 1.98967C63.0898 1.81157 62.851 1.70724 62.5994 1.69752C62.3477 1.6878 62.1016 1.77341 61.9103 1.93724L48.6603 15.1772L41.9003 8.41722C41.8044 8.32298 41.6904 8.24905 41.5652 8.19987C41.4401 8.1507 41.3062 8.12729 41.1718 8.13103C41.0374 8.13476 40.9051 8.16555 40.7828 8.2216C40.6606 8.27765 40.5509 8.35784 40.4603 8.45726ZM37.7834 21.1414C36.6904 20.0465 35.2075 19.43 33.6604 19.4274H31.8404V31.1074H33.4804C35.4942 31.1007 37.4364 31.8537 38.9193 33.2162C40.4022 34.5786 41.3168 36.4503 41.4804 38.4574C41.5498 39.526 41.3972 40.5974 41.0324 41.6042C40.6675 42.611 40.0983 43.5313 39.3604 44.3074C38.6287 45.0857 37.7457 45.7063 36.7655 46.131C35.7853 46.5558 34.7286 46.7757 33.6604 46.7773H31.8404V53.1774C31.8404 53.4426 31.735 53.6969 31.5475 53.8845C31.3599 54.072 31.1056 54.1774 30.8404 54.1774C30.5752 54.1774 30.3208 54.072 30.1333 53.8845C29.9457 53.6969 29.8404 53.4426 29.8404 53.1774V46.7773H27.9304C25.8519 46.7747 23.8593 45.9479 22.3896 44.4781C20.9199 43.0084 20.093 41.0159 20.0904 38.9374C20.0904 38.6722 20.1957 38.4178 20.3833 38.2303C20.5708 38.0427 20.8252 37.9374 21.0904 37.9374C21.3556 37.9374 21.6099 38.0427 21.7975 38.2303C21.985 38.4178 22.0904 38.6722 22.0904 38.9374C22.093 40.4854 22.7092 41.9693 23.8038 43.064C24.8985 44.1586 26.3824 44.7747 27.9304 44.7773H29.8404V33.1074H27.9304C26.8604 33.1066 25.8019 32.8871 24.8199 32.4623C23.8378 32.0375 22.953 31.4164 22.2197 30.6373C21.4864 29.8581 20.9202 28.9373 20.5557 27.9313C20.1913 26.9253 20.0363 25.8554 20.1004 24.7874C20.2616 22.7784 21.1751 20.9044 22.6583 19.5399C24.1415 18.1753 26.085 17.4209 28.1004 17.4274H29.8904V11.0674C29.8904 10.8022 29.9957 10.5478 30.1833 10.3603C30.3708 10.1728 30.6252 10.0674 30.8904 10.0674C31.1556 10.0674 31.41 10.1728 31.5975 10.3603C31.7851 10.5478 31.8904 10.8022 31.8904 11.0674V17.4274H33.6604C35.7379 17.43 37.7295 18.2572 39.1976 19.7272C40.6657 21.1972 41.4904 23.1898 41.4904 25.2674C41.4904 25.5326 41.385 25.787 41.1975 25.9745C41.01 26.162 40.7556 26.2674 40.4904 26.2674C40.2252 26.2674 39.9708 26.162 39.7832 25.9745C39.5957 25.787 39.4904 25.5326 39.4904 25.2674C39.4904 23.7203 38.8765 22.2363 37.7834 21.1414ZM27.9804 31.1074H29.8904L29.9404 19.4274H28.1504C26.6491 19.4353 25.2043 20.0003 24.0958 21.0127C22.9873 22.0251 22.294 23.413 22.1504 24.9074C22.1027 25.7028 22.2181 26.4997 22.4894 27.249C22.7607 27.9983 23.1822 28.6843 23.7281 29.2648C24.274 29.8454 24.9328 30.3083 25.664 30.6251C26.3953 30.942 27.1835 31.1061 27.9804 31.1074ZM37.5961 34.6734C36.485 33.6604 35.034 33.1015 33.5304 33.1074H31.9404V44.7773H33.7104C34.5073 44.7776 35.2958 44.6145 36.0272 44.298C36.7586 43.9816 37.4173 43.5185 37.9628 42.9375C38.5082 42.3565 38.9287 41.6698 39.1983 40.9199C39.468 40.1699 39.581 39.3727 39.5304 38.5774C39.3976 37.0797 38.7073 35.6864 37.5961 34.6734Z" fill="url(#paint0_linear_166_616)"/>
<defs>
<linearGradient id="paint0_linear_166_616" x1="10" y1="10" x2="54.0002" y2="54.0001" gradientUnits="userSpaceOnUse">
<stop stop-color="#FE5B52"/>
<stop offset="1" stop-color="#3E96F4"/>
</linearGradient>
</defs>
</svg>
