<svg width="35" height="35" viewBox="0 0 35 35" fill="none" xmlns="http://www.w3.org/2000/svg">
<g id="Group">
<path id="Vector" d="M14.7656 25.0195C15.143 25.0195 15.4492 24.7133 15.4492 24.3359C15.4492 23.9586 15.143 23.6523 14.7656 23.6523C14.3883 23.6523 14.082 23.9586 14.082 24.3359C14.082 24.7133 14.3883 25.0195 14.7656 25.0195Z" fill="url(#paint0_linear_305_215)"/>
<path id="Vector_2" d="M0.20026 26.5966L8.40339 34.7997C8.46685 34.8632 8.54219 34.9136 8.62512 34.948C8.70805 34.9823 8.79693 35 8.8867 35C8.97646 35 9.06534 34.9823 9.14827 34.948C9.2312 34.9136 9.30654 34.8632 9.37 34.7997L13.8817 30.288C13.9452 30.2246 13.9956 30.1492 14.0299 30.0663C14.0643 29.9834 14.082 29.8945 14.082 29.8047C14.082 29.715 14.0643 29.6261 14.0299 29.5431C13.9956 29.4602 13.9452 29.3849 13.8817 29.3214L13.6814 29.1211H23.5354C24.4009 29.1211 25.2267 28.7967 25.8636 28.2054L34.1567 20.433C34.9506 19.6958 35.2136 18.5246 34.8109 17.519C34.668 17.1602 34.4478 16.8373 34.166 16.5732C33.8842 16.3091 33.5477 16.1102 33.1805 15.9908C32.8135 15.8703 32.4245 15.832 32.0411 15.8788C31.6577 15.9255 31.2893 16.0561 30.962 16.2613C30.9577 16.2639 29.1208 17.4693 29.1208 17.4693C29.1083 13.7638 26.8687 9.81225 23.7858 8.03333C23.966 7.82615 24.1028 7.585 24.1883 7.3241C24.541 6.25086 23.9546 5.08929 22.8799 4.73444C22.8462 4.72323 22.8125 4.71331 22.7789 4.70292L24.5386 1.54185C24.5886 1.45212 24.6177 1.35226 24.6238 1.24971C24.6299 1.14717 24.6127 1.04458 24.5736 0.949581C24.5346 0.854521 24.4747 0.769489 24.3983 0.700826C24.3218 0.632163 24.2309 0.581641 24.1322 0.553028C22.8705 0.186143 21.5591 0 20.2344 0C18.9099 0 17.5983 0.186143 16.3365 0.552754C16.2378 0.5814 16.1469 0.631934 16.0704 0.700597C15.9939 0.769259 15.9339 0.854282 15.8949 0.949337C15.8558 1.04439 15.8387 1.14703 15.8448 1.24962C15.8509 1.3522 15.8801 1.45209 15.9301 1.54185L17.6898 4.70292C17.6556 4.71359 17.6215 4.72377 17.5873 4.73499C16.5141 5.08929 15.928 6.25058 16.2807 7.32458C16.3667 7.58527 16.5041 7.82608 16.6847 8.03278C13.5559 9.83815 11.3476 13.8302 11.3476 17.5C11.3476 17.6002 11.35 17.6989 11.3532 17.797C10.1289 18.131 8.9906 18.7396 8.0333 19.5777L5.95578 21.3954L5.67859 21.1183C5.61513 21.0548 5.53979 21.0044 5.45686 20.9701C5.37393 20.9357 5.28505 20.918 5.19528 20.918C5.10552 20.918 5.01664 20.9357 4.93371 20.9701C4.85078 21.0044 4.77544 21.0548 4.71198 21.1183L0.20026 25.63C0.136772 25.6935 0.0864087 25.7688 0.0520473 25.8517C0.0176859 25.9347 0 26.0235 0 26.1133C0 26.2031 0.0176859 26.292 0.0520473 26.3749C0.0864087 26.4578 0.136772 26.5332 0.20026 26.5966ZM17.5569 1.6532C18.4327 1.46303 19.33 1.36719 20.2344 1.36719C21.1388 1.36719 22.036 1.46303 22.9121 1.6532L21.3887 4.38936C20.623 4.28228 19.846 4.28228 19.0802 4.38936L17.5569 1.6532ZM18.014 6.03381C19.4168 5.57478 20.946 5.54005 22.4528 6.03327C22.8114 6.15153 23.0072 6.53926 22.8894 6.89713C22.8472 7.02734 22.7666 7.14176 22.6582 7.22538C22.5497 7.30899 22.4186 7.35791 22.2819 7.36573C20.934 6.93712 19.5339 6.93636 18.1865 7.36436H18.1862C17.9053 7.34679 17.6668 7.16304 17.5793 6.89733C17.4615 6.53899 17.6572 6.15126 18.014 6.03381ZM18.3921 8.73743C19.5774 8.31046 20.8055 8.30034 21.9938 8.70865C25.1699 9.80069 27.7539 13.7446 27.7539 17.5C27.7539 17.8183 27.7339 18.1217 27.6944 18.4052L24.4085 20.5609C23.9 19.9309 23.129 19.5508 22.2851 19.5508H20.918V18.7497C21.7137 18.4674 22.2851 17.7075 22.2851 16.8164C22.2851 15.6856 21.3652 14.7656 20.2344 14.7656C19.8576 14.7656 19.5508 14.4591 19.5508 14.082C19.5508 13.705 19.8576 13.3985 20.2344 13.3985C20.4766 13.3985 20.7321 13.5221 20.9737 13.7558C21.2451 14.0183 21.6779 14.011 21.9404 13.74C22.2029 13.4687 22.1957 13.0358 21.9244 12.7733C21.5775 12.4374 21.2304 12.2476 20.918 12.1439V11.3477C20.918 10.9701 20.6119 10.6641 20.2344 10.6641C19.8568 10.6641 19.5508 10.9701 19.5508 11.3477V12.1488C18.7553 12.431 18.1836 13.191 18.1836 14.082C18.1836 15.2129 19.1035 16.1328 20.2344 16.1328C20.6114 16.1328 20.918 16.4394 20.918 16.8164C20.918 17.1935 20.6114 17.5 20.2344 17.5C19.9423 17.5 19.6271 17.3163 19.3468 16.9828C19.1038 16.6939 18.6725 16.6565 18.3836 16.8994C18.0946 17.1425 18.0573 17.5737 18.3003 17.8626C18.6656 18.2974 19.0955 18.6002 19.5508 18.7529V19.5508H19.3233C18.9873 19.5508 18.8365 19.3318 18.5999 19.1789C17.1555 18.0963 15.3665 17.5 13.5618 17.5C13.2796 17.5 12.9968 17.5147 12.7154 17.5433C12.7154 17.5289 12.7148 17.5147 12.7148 17.5C12.7148 13.7971 15.2618 9.86646 18.3921 8.73743ZM8.93379 20.6063C10.2181 19.4816 11.8685 18.8672 13.5618 18.8672C15.0726 18.8672 16.5704 19.3662 17.779 20.2723C17.9533 20.3743 18.4388 20.918 19.3229 20.918H22.2851C23.0633 20.918 23.6523 21.5506 23.6523 22.2852C23.6523 23.039 23.0389 23.6524 22.2851 23.6524H17.5C17.1224 23.6524 16.8164 23.9584 16.8164 24.336C16.8164 24.7135 17.1224 25.0196 17.5 25.0196H22.2851C23.7928 25.0196 25.0195 23.7928 25.0195 22.2852C25.0195 22.1284 25.0056 21.9738 24.9795 21.8216L31.6924 17.4172C31.8497 17.3198 32.0264 17.258 32.2101 17.236C32.3938 17.2141 32.5801 17.2325 32.7559 17.2901C32.9329 17.3478 33.095 17.4437 33.2307 17.571C33.3665 17.6983 33.4726 17.854 33.5415 18.0269C33.7388 18.5193 33.6149 19.0707 33.224 19.4336L24.9311 27.2057C24.5521 27.5586 24.0533 27.7545 23.5354 27.7539H12.3143L6.92485 22.3642L8.93379 20.6063ZM5.19535 22.5683L12.4318 29.8047L8.8867 33.3498L1.65016 26.1133L5.19535 22.5683Z" fill="url(#paint1_linear_305_215)"/>
</g>
<defs>
<linearGradient id="paint0_linear_305_215" x1="14.2937" y1="23.8231" x2="15.2331" y2="24.7543" gradientUnits="userSpaceOnUse">
<stop stop-color="#3E96F4"/>
<stop offset="1" stop-color="#31393C"/>
</linearGradient>
<linearGradient id="paint1_linear_305_215" x1="5.41755" y1="4.37256" x2="29.4657" y2="28.2088" gradientUnits="userSpaceOnUse">
<stop stop-color="#3E96F4"/>
<stop offset="1" stop-color="#31393C"/>
</linearGradient>
</defs>
</svg>
