<svg width="80" height="71" viewBox="0 0 80 71" fill="none" xmlns="http://www.w3.org/2000/svg">
<path d="M58.0008 64.4397C57.6221 63.787 56.7857 63.5647 56.1322 63.9434L56.0796 63.9737C55.4266 64.3526 55.2045 65.1892 55.5832 65.8423C55.6732 65.9976 55.793 66.1336 55.9357 66.2426C56.0783 66.3516 56.2411 66.4315 56.4146 66.4776C56.5881 66.5236 56.769 66.5351 56.947 66.5112C57.1249 66.4874 57.2964 66.4287 57.4517 66.3385L57.5043 66.3082C58.1573 65.9293 58.3795 65.0928 58.0008 64.4397Z" fill="#3E96F4"/>
<path d="M70.3097 18.5108C65.6364 10.4164 58.0907 4.62647 49.0626 2.20737C40.0348 -0.21173 30.605 1.02981 22.5106 5.703C14.4163 10.3762 8.62628 17.922 6.20731 26.9499C3.78835 35.9779 5.02975 45.4078 9.70294 53.5021C13.8949 60.7628 20.5574 66.2809 28.4633 69.0396C32.1815 70.337 36.0914 70.9996 40.0293 70.9997C44.2765 70.9997 48.516 70.2278 52.5234 68.6877C53.2282 68.4168 53.5798 67.6259 53.3088 66.9211C53.0379 66.2164 52.2468 65.8643 51.5423 66.1357C40.8755 70.2355 29.328 68.3727 20.7006 61.8969L21.9255 55.5032L22.5157 55.3115C24.746 54.5869 25.971 52.1829 25.2466 49.9524L24.8135 48.6196C24.7133 48.3132 24.7138 47.9829 24.8149 47.6769C25.0027 47.104 25.0666 46.4977 25.0024 45.8983C24.9381 45.2988 24.7472 44.7198 24.4423 44.1997C24.1372 43.6797 23.7251 43.2305 23.2332 42.8817C22.7414 42.533 22.1811 42.2928 21.5894 42.177L18.5037 41.574L12.5498 37.0473C12.3741 36.9136 12.1686 36.8246 11.951 36.7876C11.7333 36.7507 11.5099 36.767 11.2999 36.8352L7.81417 37.9675C7.74046 36.7244 7.73886 35.478 7.80938 34.2347C7.90568 34.3231 7.99977 34.4139 8.09157 34.507C8.16007 34.6214 8.24486 34.7252 8.34327 34.8151C8.62792 35.0743 8.88577 35.1919 9.42717 35.1919C9.92469 35.1917 10.6612 35.0926 11.8773 34.913C12.649 34.7979 13.4197 34.6764 14.1894 34.5485C14.4156 34.5105 14.6286 34.4162 14.8088 34.2743C14.989 34.1324 15.1306 33.9475 15.2206 33.7365C15.3105 33.5256 15.346 33.2953 15.3237 33.0671C15.3013 32.8388 15.222 32.6198 15.0928 32.4303L13.4165 29.9715L15.8175 28.2546C15.9775 28.1402 16.1109 27.9927 16.2087 27.822L19.9306 21.3245L21.4308 19.7169C22.9638 18.0739 23.4013 15.6699 22.5452 13.5924C22.0402 12.3669 21.1581 11.3467 20.0547 10.6592C21.2658 9.70647 22.5434 8.84148 23.8778 8.07083C28.8459 5.20247 34.2676 3.81245 39.6323 3.75927L37.1911 6.82163L28.1382 9.99528C27.9564 10.059 27.7902 10.1604 27.6503 10.2928C27.5105 10.4253 27.4002 10.5858 27.3268 10.7639L24.7986 16.8927C24.7103 17.1069 24.6778 17.3399 24.7042 17.5701C24.7306 17.8002 24.8151 18.0198 24.9497 18.2084L28.6422 23.3807C28.1133 23.8632 27.5986 24.5659 26.9838 25.4385C26.7142 25.8212 26.4596 26.1825 26.2836 26.3851C26.1321 26.5592 25.9795 26.7323 25.8258 26.9044C25.0316 27.7978 24.2104 28.7219 23.6271 29.9562C22.3444 32.6713 22.6034 35.8271 24.3031 38.192C25.9466 40.4786 28.6561 41.641 31.548 41.3009C32.0191 41.2456 32.4584 41.1369 32.8835 41.0317C34.0556 40.7417 34.4269 40.7127 34.8029 41.0646C34.9858 41.2359 35.0026 41.2683 34.9989 41.8492C34.9963 42.2189 34.9934 42.6789 35.1209 43.204C35.325 44.0441 35.8526 44.6248 36.2764 45.0913C36.4871 45.323 36.705 45.5628 36.7722 45.7237C37.1986 46.7456 37.0129 47.3114 36.606 48.5515C36.5703 48.6598 36.535 48.7683 36.4999 48.8769C35.8818 50.7902 36.7434 52.6882 37.5036 54.3624C37.7505 54.9062 37.9836 55.4194 38.1363 55.873C39.3656 59.5206 40.2871 60.3559 41.0266 60.6922C41.4139 60.8683 41.8148 60.9456 42.2197 60.9454C44.1905 60.9453 46.247 59.1155 47.1918 57.9554C47.7851 57.227 47.9313 56.4976 48.0379 55.9648C48.0911 55.6998 48.1329 55.4906 48.2128 55.3539C48.335 55.1447 48.479 54.9826 48.6612 54.7772C49.0278 54.3645 49.484 53.851 49.7794 52.92C50.0039 52.2129 50.167 52.0396 50.7072 51.4643C50.8085 51.3569 50.9091 51.2489 51.0091 51.1404C52.83 49.1589 52.3611 47.6453 51.8644 46.0427C51.4465 44.6942 52.1775 43.8318 53.945 42.1858C54.7112 41.4723 55.5033 40.7346 56.1157 39.8481C56.3836 39.4601 57.1989 38.2798 56.6944 37.1099C56.1999 35.9628 54.943 35.77 53.9332 35.6153C53.5344 35.554 52.9318 35.4616 52.7399 35.3362C51.8941 34.7832 51.3766 33.629 50.8761 32.5127C50.7764 32.2906 50.6781 32.0713 50.5784 31.8584C50.4007 31.4786 50.2231 31.0191 50.0351 30.5326C49.5377 29.2453 48.974 27.7861 48.0144 26.7689C47.1518 25.8549 45.5258 25.4147 44.0913 25.0261C43.6088 24.8956 43.1534 24.7723 42.853 24.6614C42.6016 24.5685 42.3284 24.5516 42.0675 24.6128C41.3693 24.7765 40.9337 24.9568 40.6103 25.216C40.5248 25.2845 40.2717 25.5094 40.1235 25.8709C39.623 25.6307 38.9348 25.172 38.5112 24.8897L38.4848 24.8721C38.6276 24.3008 38.4984 23.8424 38.363 23.5561C37.5993 21.9407 35.0641 22.0671 34.564 22.1097C34.2799 22.1334 33.9205 22.1462 33.5403 22.1596C32.9431 22.1808 32.283 22.2045 31.6299 22.2778L31.6635 22.184C32.1593 20.8028 33.4783 19.8747 34.9459 19.8747H35.7231C36.4779 19.8747 37.0902 19.2625 37.0902 18.5077C37.0902 17.7528 36.4779 17.1406 35.7231 17.1406H34.9459C32.7671 17.1406 30.772 18.2873 29.6538 20.0921L27.6146 17.2356L29.6208 12.3727L38.4669 9.27136C38.7096 9.18626 38.9233 9.03449 39.0837 8.83345L43.0161 3.90077C53.0641 4.85657 62.5223 10.4902 67.9421 19.8776C69.3587 22.3314 70.442 24.9629 71.1636 27.7028L70.5841 28.2196C70.2093 28.5548 69.9078 28.9637 69.6985 29.4208C69.4891 29.8779 69.3764 30.3733 69.3674 30.8759C69.3673 30.8869 69.367 30.8979 69.3666 30.9089L68.4224 28.3123C68.2824 27.9261 68.0739 27.5684 67.8068 27.2563L66.1225 25.2844C65.8006 24.9071 65.4007 24.6041 64.9503 24.3965C64.4999 24.1889 64.0098 24.0815 63.5138 24.0818H61.4522C61.0937 24.0815 60.7419 24.1786 60.4344 24.3628C60.1268 24.547 59.8752 24.8114 59.7063 25.1276C59.5369 25.4435 59.4565 25.7995 59.4739 26.1576C59.4912 26.5157 59.6056 26.8623 59.8048 27.1603L60.0134 27.4735C58.6812 28.6191 57.1404 29.5358 55.4998 30.1541L52.6738 24.7409V23.5333C52.6738 23.3484 52.6363 23.1655 52.5636 22.9956C52.4908 22.8256 52.3844 22.6722 52.2506 22.5446L49.7059 20.1152C49.5655 19.9812 49.3982 19.8787 49.2151 19.8143L46.9243 19.0093C46.2116 18.7585 45.4315 19.1336 45.1813 19.8457C44.931 20.5582 45.3055 21.3384 46.0178 21.5888L48.0308 22.2963L49.9397 24.1183V25.0765C49.9397 25.2967 49.993 25.5138 50.095 25.7092L53.6329 32.4859C53.7866 32.7806 54.0425 33.0092 54.3526 33.1289C54.6627 33.2485 55.0058 33.251 55.3176 33.1359L56.3478 32.7561C58.7411 31.8734 60.9593 30.4536 62.7629 28.6503C62.9864 28.4268 63.1256 28.1328 63.1567 27.8183C63.1878 27.5038 63.109 27.1882 62.9337 26.9253L62.861 26.8161H63.5138C63.6145 26.816 63.7141 26.8378 63.8056 26.88C63.8971 26.9222 63.9783 26.9837 64.0437 27.0604L65.728 29.0323C65.7822 29.0958 65.8242 29.1678 65.8529 29.2466L67.7116 34.3576C67.7902 34.5736 67.922 34.7663 68.0949 34.9178C68.2677 35.0694 68.4759 35.1749 68.7003 35.2247C68.9247 35.2744 69.158 35.2668 69.3787 35.2025C69.5993 35.1383 69.8003 35.0194 69.9628 34.8569L70.8475 33.9722C71.4078 33.4118 71.7935 32.7028 71.9778 31.9168C73.3461 42.8823 69.0464 54.2256 59.9582 61.3587C59.3641 61.8248 59.2605 62.6841 59.7268 63.2781C60.1929 63.8722 61.052 63.9758 61.6462 63.5095C68.2076 58.3597 72.7152 50.994 74.3388 42.7691C75.9775 34.4649 74.5467 25.8496 70.3097 18.5108ZM11.4643 39.6567L17.1016 43.943C17.2681 44.0696 17.4616 44.1564 17.6669 44.1964L21.0647 44.8603C21.4983 44.9451 21.8601 45.2016 22.0836 45.5828C22.3072 45.9638 22.3542 46.4047 22.2167 46.8246C21.9336 47.6815 21.9323 48.6065 22.213 49.4642L22.6461 50.7969C22.9049 51.5935 22.4671 52.4522 21.6707 52.711L20.3122 53.1525C20.0795 53.2281 19.8714 53.3647 19.7096 53.5481C19.5477 53.7316 19.4381 53.9551 19.3921 54.1954L18.2986 59.9032C15.8947 57.703 13.784 55.1026 12.0708 52.1351C9.98061 48.5152 8.67467 44.6542 8.09909 40.75L11.4643 39.6567ZM19.4318 17.8516L17.8236 19.5746C17.7518 19.6516 17.6891 19.7366 17.6367 19.828L13.9847 26.204L10.7389 28.5249C10.4482 28.7327 10.2504 29.0461 10.1879 29.3978C10.1254 29.7496 10.2032 30.1119 10.4044 30.4071L11.6184 32.1877C10.9186 32.2919 10.2907 32.3778 9.87315 32.4233C9.7901 32.3441 9.70642 32.2655 9.62214 32.1876C9.29715 31.8857 8.84557 31.4825 8.17237 30.8934C9.28266 24.0215 12.594 17.5476 17.8019 12.6059C18.7991 12.92 19.6175 13.6639 20.0173 14.6341C20.4671 15.7254 20.2371 16.9884 19.4318 17.8516ZM30.5785 25.3223C31.1883 24.9791 32.6036 24.9289 33.6369 24.8923C34.051 24.8777 34.4423 24.8637 34.7918 24.8345C34.9762 24.819 35.181 24.8219 35.3742 24.8369C35.2529 25.1483 35.2499 25.4933 35.3658 25.8068C35.4817 26.1202 35.7084 26.3803 36.0031 26.5378C36.2596 26.6751 36.6166 26.9131 36.9945 27.1651C38.0629 27.8774 39.2741 28.6847 40.4119 28.7572C41.4466 28.8243 42.0223 28.2347 42.2689 27.9835C42.2886 27.9635 42.3072 27.9436 42.3269 27.9254C42.4774 27.8019 42.6018 27.6496 42.6928 27.4774C42.9114 27.5399 43.1411 27.6021 43.3765 27.6659C44.186 27.8851 45.6928 28.293 46.0257 28.6458C46.617 29.2726 47.0779 30.4658 47.4846 31.5184C47.6901 32.0503 47.8842 32.5524 48.102 33.0179C48.1956 33.2176 48.2876 33.4234 48.3811 33.6318C49.0119 35.0389 49.7269 36.6338 51.2438 37.6253C51.9317 38.075 52.7748 38.2042 53.5188 38.3183C53.6088 38.3322 53.7119 38.348 53.8166 38.3652C53.375 38.9813 52.7462 39.5667 52.0819 40.1854C50.3895 41.7615 48.2832 43.7231 49.2532 46.8525C49.7111 48.3301 49.7324 48.4898 48.9962 49.2907C48.8958 49.4 48.8023 49.4995 48.7147 49.5927C48.0841 50.264 47.5861 50.7942 47.1737 52.093C47.054 52.4702 46.8988 52.645 46.617 52.9622C46.3917 53.2159 46.111 53.532 45.8522 53.975C45.5421 54.5057 45.4396 55.0168 45.3574 55.4273C45.2763 55.8313 45.2304 56.0341 45.0718 56.2288C44.7107 56.672 44.0373 57.3157 43.3459 57.755C42.7033 58.1629 42.3281 58.2187 42.2003 58.2111C42.0544 58.0547 41.526 57.3698 40.7276 55.0001C40.5307 54.4155 40.2575 53.8139 39.9934 53.2322C39.4111 51.9498 38.8091 50.6236 39.102 49.7173C39.1366 49.6104 39.1707 49.5059 39.2044 49.4038C39.6722 47.9778 40.1138 46.6313 39.2957 44.6707C39.0466 44.0737 38.65 43.6374 38.3004 43.2524C38.0741 43.0034 37.8178 42.7212 37.7783 42.5588C37.7301 42.3607 37.7316 42.132 37.7334 41.8672C37.7381 41.1528 37.7452 40.0734 36.6721 39.0685C35.1591 37.6524 33.3949 38.0887 32.2274 38.3774C31.8687 38.466 31.5299 38.5499 31.2297 38.5852C29.3091 38.8103 27.5944 38.0857 26.5239 36.596C25.404 35.0378 25.2414 32.9409 26.0998 31.1239C26.5152 30.2447 27.1429 29.5383 27.8697 28.7207C28.0284 28.542 28.1887 28.3618 28.3489 28.1772C28.6155 27.8699 28.9089 27.4537 29.2191 27.0131C29.5895 26.4874 30.2791 25.5085 30.5785 25.3223Z" fill="#3E96F4"/>
<path d="M61.0576 48.0691L60.3998 45.5898C60.3296 45.3253 60.1816 45.0879 59.975 44.9084C59.7683 44.7289 59.5125 44.6155 59.2407 44.583C58.9689 44.5509 58.6937 44.6009 58.4506 44.7267C58.2074 44.8524 58.0076 45.0482 57.8768 45.2887C57.727 45.5648 57.592 45.8574 57.4616 46.1403C57.2422 46.6162 57.0152 47.1084 56.7791 47.38C56.6465 47.5326 56.3058 47.6971 55.9766 47.856C55.1895 48.2358 54.1115 48.756 53.6997 50.0687C53.444 50.883 53.5394 51.5273 53.6092 51.9976C53.6694 52.4054 53.6834 52.5468 53.5742 52.8033L53.5605 52.8351C53.1253 53.8563 52.3157 55.7573 53.451 57.3735C54.261 58.5269 55.1128 58.8234 55.7746 58.8234C55.8967 58.8236 56.0187 58.8138 56.1391 58.794C57.5337 58.5661 58.582 57.1155 59.4387 54.2285L61.0468 48.8089C61.1183 48.568 61.1221 48.312 61.0576 48.0691ZM56.8177 53.4508C56.381 54.9227 55.9946 55.6098 55.7716 55.9144C55.7459 55.8816 55.718 55.8444 55.6882 55.8019C55.427 55.4298 55.8174 54.5132 56.0758 53.9066L56.0896 53.8746C56.5064 52.8965 56.3949 52.1454 56.3139 51.5969C56.2618 51.2456 56.2432 51.0947 56.3084 50.8873C56.362 50.7168 56.6823 50.5514 57.1649 50.3184C57.3789 50.215 57.6145 50.1014 57.8522 49.9639L56.8177 53.4508ZM41.9181 17.2502L41.8258 17.218C41.1139 16.9686 40.3332 17.3431 40.0833 18.0555C39.8334 18.7681 40.2084 19.5481 40.9208 19.798L41.013 19.8303C41.1584 19.8814 41.3114 19.9076 41.4655 19.9076C42.0299 19.9076 42.5582 19.5553 42.7556 18.9927C43.0055 18.2801 42.6305 17.5 41.9181 17.2502Z" fill="#3E96F4"/>
</svg>
