<svg width="54" height="64" viewBox="0 0 54 64" fill="none" xmlns="http://www.w3.org/2000/svg">
<path fill-rule="evenodd" clip-rule="evenodd" d="M16.7999 6.1C16.5999 6.3 16.2999 6.4 15.9999 6.4C15.6999 6.4 15.3999 6.3 15.1999 6.2C14.9999 6 14.8999 5.7 14.8999 5.4V1.1C14.8999 0.8 14.9999 0.5 15.1999 0.3C15.3999 0.1 15.6999 0 15.9999 0C16.2999 0 16.5999 0.1 16.7999 0.3C16.9999 0.5 17.0999 0.8 17.0999 1.1V5.3C17.0999 5.6 16.9999 5.9 16.7999 6.1ZM40.5 7.5C40.8 7.5 41.1 7.4 41.3 7.2C41.5 7 41.6 6.7 41.6 6.4V1.1C41.6 0.8 41.5 0.5 41.3 0.3C41.1 0.1 40.8 0 40.5 0C40.2 0 40 0.1 39.8 0.3C39.6 0.5 39.5 0.8 39.5 1.1V6.4C39.5 6.7 39.6 7 39.8 7.2C40 7.4 40.3 7.5 40.5 7.5ZM46.8998 10.7C47.1998 10.7 47.4998 10.6 47.6998 10.4C47.8998 10.2 47.9998 9.9 47.9998 9.6V1.1C47.9998 0.8 47.8998 0.5 47.6998 0.3C47.4998 0.1 47.1998 0 46.8998 0C46.5998 0 46.2998 0.1 46.0998 0.3C45.8998 0.5 45.7998 0.8 45.7998 1.1V9.6C45.7998 9.9 45.8998 10.2 46.0998 10.4C46.3998 10.6 46.6998 10.7 46.8998 10.7ZM52.6 20.3C52.1 19.7 51.4 19.3 50.6 19.2C51 18.6 51.2 17.8 51.2 17.1C51.2 16 50.8 14.9 50 14.1C49.2 13.3 48.1 12.9 47 12.9C45.9 12.9 44.8 13.3 44 14.1C43.2 14.9 42.8 16 42.8 17.1C42.8 17.9 43 18.6 43.4 19.2H40.2C40.5 18.2 40.6 17.1 40.7 16C40.7 12.6 39.4 9.30001 37 6.90001C34.6 4.50001 31.3 3.20001 27.9 3.20001C24.5 3.20001 21.2 4.50001 18.8 6.90001C16.4 9.30001 15.1 12.6 15.1 16C15.1 17.1 15.2 18.2 15.5 19.2H3.2C2.4 19.2 1.5 19.5 0.9 20.1C0.3 20.7 0 21.6 0 22.4V50.1C0 50.9 0.3 51.8 0.9 52.4C1.5 53 2.3 53.3 3.2 53.3H16.1L13.3 57.6H10.7C9.9 57.6 9 57.9 8.4 58.5C7.8 59.1 7.5 60 7.5 60.8V62.9C7.5 63.2 7.6 63.5 7.8 63.7C8 63.9 8.3 64 8.5 64H44.8C45.1 64 45.4 63.9 45.6 63.7C45.8 63.5 45.9 63.2 45.9 62.9V60.8C45.9 60 45.6 59.1 45 58.5C44.4 57.9 43.6 57.6 42.7 57.6H40L37.2 53.3H50.1C50.9 53.3 51.8 53 52.4 52.4C53 51.8 53.3 51 53.3 50.1V22.4C53.3 21.6 53.1 20.9 52.6 20.3ZM45.2 15.9C45.4 15.5 45.8 15.3 46.2 15.1C46.6 14.9 47 14.9 47.4 15C47.8 15.1 48.2 15.3 48.5 15.6C48.8 15.9 49 16.3 49.1 16.7C49.2 17.1 49.1 17.5 49 17.9C48.8 18.3 48.6 18.6 48.2 18.9C47.8 19.1 47.4 19.3 47 19.3C46.4 19.3 45.9 19.1 45.5 18.7C45.1 18.3 44.9 17.8 44.9 17.2C44.8 16.6 44.9 16.2 45.2 15.9ZM20.2 8.50001C22.2 6.50001 24.9 5.40001 27.7 5.40001C29.8 5.40001 31.9 6.00001 33.6 7.20001C35.4 8.40001 36.7 10 37.5 12C38.3 13.9 38.5 16.1 38.1 18.2C37.7 20.3 36.7 22.2 35.2 23.7C33.7 25.2 31.8 26.2 29.7 26.6C27.6 27 25.5 26.8 23.5 26C21.6 25.2 19.9 23.8 18.7 22.1C17.5 20.3 16.9 18.3 16.9 16.2C17.1 13.2 18.2 10.5 20.2 8.50001ZM2.1 29.9H6.6V47H2.1V29.9ZM42.7 59.7C43 59.7 43.3 59.8 43.5 60C43.7 60.2 43.8 60.5 43.8 60.8V61.9H9.6V60.8C9.6 60.5 9.7 60.2 9.9 60C10.1 59.8 10.4 59.7 10.7 59.7H42.7ZM37.5 57.6H15.9L18.7 53.3H34.6L37.5 57.6ZM51.2 50.1C51.2 50.4 51.1 50.7 50.9 50.9C50.7 51.1 50.4 51.2 50.1 51.2H3.2C2.9 51.2 2.6 51.1 2.4 50.9C2.2 50.7 2.1 50.4 2.1 50.1V49H7.7C8 49 8.3 48.9 8.5 48.7C8.7 48.5 8.8 48.2 8.8 47.9V46.8H27.8C29.7 46.8 31.5 46.1 32.8 44.8L42.2 36.2C43 35.5 43.6 34.4 43.7 33.3C43.8 32.2 43.5 31.1 42.8 30.2C42.4 29.7 42 29.4 41.5 29.1C41 28.8 40.4 28.7 39.8 28.6C39.2 28.6 38.6 28.6 38.1 28.8C37.5 29 37 29.3 36.6 29.7L30.3 35.5C30.2 35.6 30.1 35.7 29.9 35.7C29.85 35.7 29.775 35.725 29.7001 35.75L29.7 35.75L29.6999 35.75C29.625 35.775 29.55 35.8 29.5 35.8L27.4 35.6C27.4 34.6 27 33.7 26.4 32.9C25.8 32.2 24.9 31.7 23.9 31.5L13.4 29.7H13.2H8.8V28.6C8.8 28.3 8.7 28 8.5 27.8C8.3 27.6 8 27.5 7.7 27.5H2.1V22.2C2.1 21.9 2.2 21.6 2.4 21.4C2.6 21.2 2.9 21.1 3.2 21.1H16.1C17.1 23.3 18.8 25.2 20.8 26.5C22.9 27.8 25.3 28.5 27.7 28.5C30.1 28.5 32.5 27.8 34.6 26.5C36.7 25.2 38.3 23.3 39.3 21.1H50.1C50.4 21.1 50.7 21.2 50.9 21.4C51.1 21.6 51.2 21.9 51.2 22.2V50.1ZM14.3 38.4C14.5 38.6 14.7 38.8 15 38.8L22.3 40.1C22.4 40.1 22.525 40.125 22.65 40.15C22.775 40.175 22.9 40.2 23 40.2C23.8 40.2 24.5 40 25.2 39.6C25.9 39.2 26.4 38.6 26.8 37.9L29.3 38.1C29.7 38.1 30.2 38.1 30.6 38C31 37.9 31.4 37.6 31.7 37.3L38 31.5C38.1528 31.3472 38.3639 31.2528 38.5442 31.1722L38.5442 31.1722L38.5443 31.1721L38.5443 31.1721L38.5444 31.1721C38.6001 31.1472 38.6528 31.1236 38.7 31.1C39 31 39.3 31 39.6 31C39.9 31 40.2 31.1 40.4 31.2C40.7 31.3 40.9 31.5 41.1 31.7C41.4 32.2 41.6 32.7 41.5 33.3C41.4 33.9 41.2 34.4 40.7 34.8L31.3 43.4C30.3 44.3 29 44.8 27.7 44.8H8.7V32H13L23.5 33.8C24 33.9 24.5 34.2 24.8 34.7C25.1 35.2 25.2 35.7 25.2 36.3C25.1 36.9 24.8 37.3 24.3 37.7C23.8 38 23.3 38.2 22.7 38.1L15.4 36.8C15.1 36.8 14.8 36.8 14.6 37C14.4 37.2 14.2 37.4 14.2 37.7C14.1 37.9 14.1 38.2 14.3 38.4ZM10.8998 14.2C10.1998 14.6 9.2998 14.9 8.4998 14.9C7.3998 14.9 6.2998 14.5 5.4998 13.7C4.6998 12.9 4.2998 11.8 4.2998 10.7C4.2998 9.79999 4.4998 8.99999 4.9998 8.29999C5.4998 7.59999 6.0998 6.99999 6.8998 6.69999C7.6998 6.39999 8.4998 6.29999 9.2998 6.39999C10.0998 6.59999 10.8998 6.99999 11.4998 7.59999C12.0998 8.19999 12.4998 8.99999 12.6998 9.79999C12.8998 10.7 12.7998 11.5 12.4998 12.3C12.0998 13.1 11.5998 13.7 10.8998 14.2ZM8.4998 8.49999C7.9998 8.49999 7.3998 8.79999 6.9998 9.19999C6.5998 9.59999 6.3998 10.1 6.2998 10.7C6.2998 11.1 6.4998 11.5 6.6998 11.9C6.9998 12.3 7.2998 12.5 7.6998 12.7C8.0998 12.8 8.4998 12.9 8.8998 12.8C9.2998 12.7 9.6998 12.5 9.9998 12.2C10.2998 11.9 10.4998 11.5 10.5998 11.1C10.6998 10.7 10.6998 10.3 10.4998 9.89999C10.2998 9.49999 10.0998 9.09999 9.6998 8.89999C9.2998 8.59999 8.8998 8.49999 8.4998 8.49999ZM25.2999 16.2C25.9999 16.8 26.8999 17.1 27.6999 17.1C28.0999 17.1 28.4999 17.3 28.7999 17.6C29.0999 17.9 29.2999 18.3 29.2999 18.7C29.2999 19.1 29.0999 19.5 28.7999 19.8C28.4999 20.1 28.0999 20.3 27.6999 20.3C27.2999 20.3 26.8999 20.1 26.5999 19.8C26.2999 19.5 26.0999 19.1 26.0999 18.7C26.0999 18.4 25.9999 18.1 25.7999 17.9C25.5999 17.7 25.2999 17.6 24.9999 17.6C24.6999 17.6 24.3999 17.7 24.1999 17.9C23.9999 18.1 23.8999 18.4 23.8999 18.7C23.8999 19.5 24.1999 20.3 24.5999 20.9C25.0999 21.5 25.7999 22 26.4999 22.2V23.4C26.4999 23.7 26.5999 24 26.7999 24.2C26.9999 24.4 27.2999 24.5 27.5999 24.5C27.8999 24.5 28.1999 24.4 28.3999 24.2C28.5999 24 28.6999 23.7 28.6999 23.4V22.2C29.5999 21.9 30.2999 21.4 30.7999 20.6C31.2999 19.8 31.4999 18.9 31.3999 18.1C31.2999 17.2 30.7999 16.4 30.0999 15.8C29.3999 15.2 28.4999 14.9 27.6999 14.9C27.3999 14.9 27.0999 14.8 26.7999 14.6C26.4999 14.4 26.2999 14.2 26.1999 13.9C26.0999 13.6 25.9999 13.3 26.0999 13C26.1999 12.7 26.2999 12.4 26.4999 12.2C26.6999 12 26.9999 11.8 27.2999 11.8C27.5999 11.7 27.8999 11.8 28.1999 11.9C28.4999 12 28.6999 12.2 28.8999 12.5C29.0999 12.8 29.1999 13.1 29.1999 13.4C29.1999 13.7 29.2999 14 29.4999 14.2C29.6999 14.4 29.9999 14.5 30.2999 14.5C30.5999 14.5 30.8999 14.4 31.0999 14.2C31.2999 14 31.3999 13.7 31.3999 13.4C31.3999 12.6 31.0999 11.8 30.6999 11.2C30.1999 10.6 29.4999 10.1 28.7999 9.90002V8.50002C28.7999 8.20002 28.6999 7.90002 28.4999 7.70002C28.2999 7.50002 27.9999 7.40002 27.6999 7.40002C27.3999 7.40002 27.1999 7.60002 26.9999 7.80002C26.7999 8.00002 26.6999 8.30002 26.6999 8.60003V9.80002C25.7999 10.1 25.0999 10.6 24.5999 11.4C24.0999 12.2 23.8999 13.1 23.9999 13.9C24.1999 14.8 24.5999 15.6 25.2999 16.2ZM9.3 4C9.1 4.2 8.8 4.3 8.5 4.3C8.3 4.3 8 4.2 7.8 4C7.6 3.8 7.5 3.5 7.5 3.2V1.1C7.5 0.8 7.6 0.5 7.8 0.3C8 0.1 8.2 0 8.5 0C8.8 0 9.1 0.1 9.3 0.3C9.5 0.5 9.6 0.8 9.6 1.1V3.2C9.6 3.5 9.5 3.8 9.3 4Z" fill="url(#paint0_linear_1_250)"/>
<defs>
<linearGradient id="paint0_linear_1_250" x1="-1.0867e-07" y1="2.5" x2="57.1785" y2="7.784" gradientUnits="userSpaceOnUse">
<stop stop-color="#FE5B52"/>
<stop offset="1" stop-color="#3E96F4"/>
</linearGradient>
</defs>
</svg>
