<svg width="42" height="42" viewBox="0 0 42 42" fill="none" xmlns="http://www.w3.org/2000/svg">
<path fill-rule="evenodd" clip-rule="evenodd" d="M17.3088 4.06366L17.6433 1.61261C17.713 1.15904 17.946 0.745826 18.2993 0.449409C18.6526 0.152995 19.1023 -0.00659263 19.5651 0.000208953L21.349 0.000208875L21.349 4.25222C21.3185 7.54586 21.3116 8.28036 21.0025 8.44416C20.9137 8.49118 20.8001 8.49118 20.6538 8.49118C17.3577 8.56568 14.2218 9.91597 11.9172 12.2531C9.6126 14.5903 8.32226 17.7287 8.32226 20.9969C8.32226 24.2651 9.6126 27.4034 11.9172 29.7406C14.2218 32.0777 17.3577 33.428 20.6538 33.5025C20.814 33.5025 20.9372 33.5025 21.0321 33.5544C21.349 33.7278 21.349 34.4805 21.349 37.748L21.349 42L19.5585 42C19.0982 41.9954 18.6547 41.8276 18.3083 41.5271C17.9618 41.2267 17.7353 40.8132 17.6695 40.3616L17.335 37.9105C15.3826 37.4908 13.5185 36.7385 11.8256 35.687L9.85793 37.1564C9.49033 37.4272 9.03723 37.5591 8.58026 37.5281C8.1233 37.4971 7.69252 37.3053 7.36557 36.9873L5.06341 34.6793C4.74116 34.3557 4.54724 33.928 4.51713 33.4743C4.48702 33.0206 4.62273 32.5713 4.89944 32.2087L6.35552 30.3038C5.26918 28.6166 4.48583 26.7557 4.04023 24.8035L1.6725 24.4784C1.21107 24.42 0.786875 24.1971 0.479103 23.8513C0.17133 23.5056 0.00102898 23.0606 -8.48024e-07 22.5995L-9.90119e-07 19.3487C0.000375228 18.8923 0.167209 18.4513 0.469755 18.1072C0.772301 17.7631 1.19015 17.539 1.64626 17.4763L4.01401 17.1512C4.45719 15.1983 5.24067 13.3369 6.32926 11.6509L4.87322 9.74601C4.59782 9.38288 4.46291 8.93386 4.49299 8.48055C4.52308 8.02723 4.71617 7.59963 5.03719 7.2754L7.34592 4.98039C7.67301 4.66217 8.10437 4.47078 8.56169 4.44095C9.019 4.41113 9.47194 4.54486 9.83827 4.81785L11.8059 6.2872C13.4965 5.23582 15.3585 4.48344 17.3088 4.06366ZM19.952 7.18441C19.9979 6.02714 19.9979 3.38752 19.9979 1.28103L19.5322 1.30702C19.3888 1.30712 19.2502 1.35845 19.1418 1.45158C19.0334 1.54471 18.9624 1.67342 18.942 1.81415L18.4763 5.18844L18.0171 5.27296C15.9075 5.66261 13.8994 6.47208 12.1142 7.6525L11.7272 7.90607L9.03807 5.8776C8.92294 5.79297 8.7812 5.75172 8.63819 5.76125C8.49518 5.77078 8.36023 5.83044 8.25756 5.92958L5.95544 8.21813C5.85469 8.31816 5.79387 8.45095 5.78423 8.59198C5.77458 8.733 5.81675 8.87271 5.90296 8.9853L7.92962 11.6249L7.66729 12.015C6.45113 13.779 5.60982 15.7698 5.19459 17.8664L5.10276 18.3215L1.82336 18.7701C1.68138 18.7904 1.55153 18.8607 1.45759 18.9682C1.36364 19.0756 1.31187 19.213 1.31177 19.3552L1.31177 22.606C1.31187 22.7482 1.36364 22.8856 1.45759 22.993C1.55153 23.1005 1.68138 23.1708 1.82336 23.1911L5.10276 23.6397L5.1946 24.0948C5.60982 26.1914 6.45113 28.1822 7.66729 29.9462L7.92962 30.3298L5.90296 32.9759C5.81675 33.0885 5.77458 33.2282 5.78423 33.3692C5.79387 33.5102 5.8547 33.643 5.95544 33.7431L8.25757 36.0511C8.35891 36.1483 8.49203 36.2063 8.63279 36.2147C8.77354 36.223 8.91267 36.1811 9.02498 36.0966L11.7272 34.0812L12.1142 34.3347C13.9012 35.5104 15.9087 36.3175 18.0171 36.7078L18.4763 36.7988L18.942 40.1666C18.961 40.3085 19.0313 40.4387 19.1398 40.5332C19.2484 40.6276 19.3878 40.6799 19.5322 40.6802L19.9979 40.6802C19.9945 39.5677 19.9818 38.3047 19.9707 37.19C19.9608 36.194 19.952 35.3164 19.952 34.7703C16.3785 34.5983 13.0087 33.07 10.541 30.5022C8.07322 27.9344 6.69672 24.5238 6.69672 20.9773C6.69672 17.4309 8.07322 14.0204 10.541 11.4525C13.0087 8.8847 16.3785 7.35643 19.952 7.18441ZM25.3982 5.05485C25.1337 4.69007 24.9906 4.25256 24.9888 3.80332L25.0151 3.8228C25.013 3.42148 25.1238 3.02756 25.3351 2.68523C25.5464 2.3429 25.8498 2.06572 26.2112 1.88485C26.5726 1.70398 26.9777 1.62658 27.3811 1.66132C27.7844 1.69606 28.17 1.84157 28.4945 2.08151C28.819 2.32146 29.0696 2.64631 29.2182 3.01963C29.3668 3.39295 29.4074 3.79996 29.3355 4.1949C29.2637 4.58984 29.0821 4.95711 28.8114 5.25544C28.5406 5.55378 28.1912 5.77138 27.8026 5.88381L27.8026 10.1488C27.8026 10.6661 27.5953 11.1622 27.2263 11.5279C26.8572 11.8937 26.3568 12.0993 25.8349 12.0993L21.3093 12.0993L21.3093 13.4971L29.5538 13.4971C29.7277 13.4971 29.8946 13.5656 30.0176 13.6875C30.1406 13.8094 30.2097 13.9748 30.2097 14.1472C30.2097 14.3196 30.1406 14.485 30.0176 14.6069C29.8946 14.7288 29.7277 14.7974 29.5538 14.7974L21.3487 14.7974L21.3487 16.9559L32.8922 16.9559C33.0662 16.9559 33.233 16.8874 33.356 16.7654C33.479 16.6435 33.5481 16.4781 33.5481 16.3057L33.5481 12.7754C33.0522 12.6201 32.6288 12.2941 32.3544 11.8562C32.08 11.4184 31.9727 10.8976 32.0519 10.3882C32.1312 9.87875 32.3917 9.41427 32.7864 9.07869C33.1811 8.74312 33.684 8.55862 34.204 8.55862C34.724 8.55862 35.2269 8.74312 35.6216 9.07869C36.0163 9.41427 36.2769 9.87875 36.3561 10.3882C36.4354 10.8976 36.3281 11.4184 36.0536 11.8562C35.7792 12.2941 35.3557 12.6201 34.8599 12.7754L34.8599 16.3447C34.8599 16.862 34.6526 17.3581 34.2836 17.7239C33.9146 18.0897 33.4141 18.2952 32.8922 18.2952L21.3487 18.2952L21.3487 20.5577L37.7458 20.5577C37.9024 20.0662 38.2313 19.6464 38.673 19.3744C39.1148 19.1024 39.6401 18.996 40.154 19.0746C40.668 19.1531 41.1366 19.4114 41.4751 19.8027C41.8136 20.1939 41.9997 20.6924 41.9997 21.2078C41.9997 21.7233 41.8136 22.2218 41.4751 22.6131C41.1366 23.0043 40.668 23.2626 40.154 23.3411C39.6401 23.4197 39.1148 23.3133 38.673 23.0413C38.2313 22.7693 37.9024 22.3495 37.7458 21.858L21.3487 21.858L21.3487 24.01L32.8922 24.01C33.4141 24.01 33.9146 24.2155 34.2836 24.5813C34.6526 24.9471 34.8599 25.4432 34.8599 25.9605L34.8599 29.5493C35.3539 29.7045 35.7757 30.0298 36.0489 30.4663C36.3221 30.9029 36.4287 31.422 36.3495 31.9297C36.2703 32.4374 36.0104 32.9002 35.6169 33.2346C35.2234 33.569 34.7223 33.7527 34.204 33.7527C33.6857 33.7527 33.1846 33.569 32.7911 33.2346C32.3976 32.9002 32.1378 32.4374 32.0586 31.9297C31.9793 31.422 32.086 30.9029 32.3592 30.4663C32.6324 30.0298 33.0541 29.7045 33.5481 29.5493L33.5481 25.9279C33.5481 25.7555 33.479 25.5902 33.356 25.4682C33.233 25.3463 33.0662 25.2778 32.8922 25.2778L21.3487 25.2778L21.3487 27.4298L29.4554 27.4298C29.6293 27.4298 29.7962 27.4983 29.9192 27.6202C30.0422 27.7421 30.1113 27.9075 30.1113 28.0799C30.1113 28.2524 30.0422 28.4178 29.9192 28.5397C29.7962 28.6616 29.6293 28.7301 29.4554 28.7301L21.2372 28.7301L21.2372 30.1279L25.7628 30.1279C26.2846 30.1279 26.7851 30.3334 27.1541 30.6992C27.5231 31.065 27.7304 31.5611 27.7304 32.0784L27.7304 36.4214C28.2299 36.5768 28.6568 36.9043 28.9337 37.3447C29.2106 37.7851 29.3192 38.3092 29.2399 38.8222C29.1607 39.3351 28.8987 39.8029 28.5015 40.141C28.1043 40.479 27.598 40.6648 27.0745 40.6648C26.551 40.6648 26.0448 40.479 25.6476 40.141C25.2504 39.8029 24.9884 39.3351 24.9092 38.8222C24.8299 38.3092 24.9385 37.7851 25.2154 37.3447C25.4923 36.9043 25.9192 36.5768 26.4186 36.4214L26.4186 32.0524C26.4186 31.88 26.3496 31.7146 26.2266 31.5926C26.1036 31.4707 25.9367 31.4022 25.7628 31.4022L21.1716 31.4022C21.0863 31.9289 20.9158 31.9289 20.5616 31.9289C19.0907 31.9644 17.6274 31.7079 16.258 31.1745C14.8885 30.6411 13.6406 29.8415 12.5875 28.8229C11.5345 27.8042 10.6977 26.587 10.1263 25.2429C9.55499 23.8988 9.26064 22.4551 9.26064 20.9966C9.26064 19.5381 9.55498 18.0943 10.1263 16.7502C10.6977 15.4061 11.5345 14.1889 12.5875 13.1703C13.6406 12.1516 14.8885 11.352 16.258 10.8186C17.6274 10.2852 19.0907 10.0287 20.5616 10.0643C20.9748 10.0643 21.1388 10.0708 21.2175 10.7794L25.8087 10.7794C25.9826 10.7794 26.1494 10.7109 26.2724 10.589C26.3955 10.4671 26.4646 10.3017 26.4646 10.1293L26.4646 5.83829C26.0355 5.69351 25.6628 5.41963 25.3982 5.05485ZM27.8917 38.9368C27.9875 38.7946 28.0387 38.6274 28.0387 38.4564C28.0387 38.3428 28.0161 38.2304 27.9723 38.1255C27.9285 38.0205 27.8642 37.9252 27.7832 37.8449C27.7022 37.7647 27.606 37.7009 27.5002 37.6575C27.3944 37.614 27.2809 37.5917 27.1664 37.5917C26.9938 37.5917 26.8252 37.6424 26.6817 37.7374C26.5383 37.8324 26.4265 37.9675 26.3604 38.1255C26.2944 38.2835 26.2771 38.4573 26.3108 38.6251C26.3445 38.7928 26.4276 38.9469 26.5496 39.0678C26.6715 39.1887 26.827 39.2711 26.9962 39.3045C27.1654 39.3378 27.3408 39.3207 27.5002 39.2552C27.6596 39.1898 27.7958 39.079 27.8917 38.9368ZM34.9752 32.0256C35.0711 31.8834 35.1222 31.7163 35.1222 31.5453C35.1222 31.4317 35.0997 31.3193 35.0558 31.2143C35.012 31.1094 34.9478 31.0141 34.8668 30.9338C34.7858 30.8535 34.6896 30.7898 34.5837 30.7464C34.4779 30.7029 34.3645 30.6805 34.2499 30.6805C34.0774 30.6805 33.9087 30.7313 33.7653 30.8263C33.6218 30.9213 33.51 31.0563 33.444 31.2143C33.378 31.3724 33.3607 31.5462 33.3943 31.7139C33.428 31.8817 33.5111 32.0357 33.6331 32.1567C33.7551 32.2776 33.9105 32.36 34.0797 32.3933C34.249 32.4267 34.4243 32.4096 34.5837 32.3441C34.7431 32.2787 34.8794 32.1678 34.9752 32.0256ZM33.6637 10.178C33.5028 10.3242 33.403 10.5249 33.3841 10.7404C33.3737 10.8598 33.3884 10.9801 33.4273 11.0936C33.4662 11.2071 33.5285 11.3113 33.6102 11.3997C33.6919 11.4881 33.7913 11.5586 33.902 11.6068C34.0127 11.6551 34.1323 11.6801 34.2532 11.6801C34.3741 11.6801 34.4937 11.6551 34.6044 11.6068C34.7151 11.5586 34.8145 11.4881 34.8962 11.3997C34.9779 11.3113 35.0402 11.2071 35.0791 11.0936C35.118 10.9801 35.1327 10.8598 35.1222 10.7404C35.1033 10.5249 35.0036 10.3242 34.8427 10.178C34.6818 10.0317 34.4715 9.95062 34.2532 9.95062C34.0349 9.95062 33.8246 10.0317 33.6637 10.178ZM13.4898 14.4069C11.801 16.1919 10.8591 18.5461 10.8545 20.9933C10.8577 23.4403 11.7993 25.7945 13.4885 27.5789C15.1778 29.3632 17.4882 30.4441 19.9516 30.6025L19.9516 28.3205C19.9084 28.2358 19.8859 28.1423 19.8859 28.0474C19.8859 27.9526 19.9084 27.859 19.9516 27.7744L19.9516 14.4008C19.909 14.3136 19.8866 14.2181 19.8861 14.1212C19.8868 14.0285 19.9092 13.9372 19.9516 13.8546L19.9516 11.3776C17.4882 11.5391 15.1786 12.6218 13.4898 14.4069ZM40.5076 21.664C40.6026 21.521 40.6527 21.3531 40.6514 21.1818L40.6711 21.1818C40.6702 21.0672 40.6464 20.9538 40.6009 20.8484C40.5555 20.743 40.4893 20.6475 40.4063 20.5676C40.3233 20.4878 40.2251 20.4251 40.1174 20.3832C40.0097 20.3413 39.8947 20.3211 39.779 20.3236C39.6062 20.3236 39.4373 20.3745 39.2937 20.4698C39.1501 20.5651 39.0383 20.7006 38.9725 20.859C38.9067 21.0173 38.8898 21.1916 38.924 21.3595C38.9582 21.5274 39.0419 21.6814 39.1646 21.8021C39.2872 21.9227 39.4433 22.0046 39.6129 22.0372C39.7826 22.0699 39.9581 22.0518 40.1174 21.9854C40.2767 21.9189 40.4125 21.8071 40.5076 21.664ZM27.8917 4.28371C27.9875 4.14151 28.0387 3.97434 28.0387 3.80332C28.0387 3.68976 28.0161 3.57732 27.9723 3.47241C27.9284 3.3675 27.8642 3.27215 27.7832 3.19186C27.7022 3.11156 27.606 3.04789 27.5002 3.00444C27.3944 2.96098 27.2809 2.93861 27.1664 2.93861C26.9938 2.93861 26.8252 2.9893 26.6817 3.08432C26.5383 3.17933 26.4265 3.3144 26.3604 3.47241C26.2944 3.63041 26.2771 3.80427 26.3108 3.97201C26.3445 4.13974 26.4276 4.29381 26.5495 4.41474C26.6715 4.53567 26.827 4.61804 26.9962 4.6514C27.1654 4.68476 27.3408 4.66764 27.5002 4.60219C27.6596 4.53675 27.7958 4.42591 27.8917 4.28371Z" fill="#3E96F4"/>
</svg>
