<svg width="42" height="42" viewBox="0 0 42 42" fill="none" xmlns="http://www.w3.org/2000/svg">
<path d="M6 0.700195H29.0146C30.4203 0.700195 31.7688 1.25803 32.7627 2.25195L36.5049 5.99512L39.748 9.2373C40.742 10.2312 41.2998 11.5797 41.2998 12.9854V36C41.2998 38.9271 38.9271 41.2998 36 41.2998H6C3.07289 41.2998 0.700195 38.9271 0.700195 36V6C0.700195 3.07289 3.07289 0.700196 6 0.700195Z" stroke="#3E96F4" stroke-width="1.4"/>
<path d="M7.5 34.5H22" stroke="#3E96F4" stroke-width="1.4" stroke-linecap="round"/>
<path d="M7.5 30H35.5" stroke="#3E96F4" stroke-width="1.4" stroke-linecap="round"/>
<path d="M27 16C27 21.514 22.514 26 17 26C11.486 26 7 21.514 7 16C7 15.6546 7.27958 15.375 7.625 15.375C7.97042 15.375 8.25 15.6546 8.25 16C8.25 20.8248 12.1752 24.75 17 24.75C21.8248 24.75 25.75 20.8248 25.75 16C25.75 11.1752 21.8248 7.25 17 7.25C14.6744 7.25 12.5154 8.15396 10.8912 9.75H13.25C13.5954 9.75 13.875 10.0296 13.875 10.375C13.875 10.7204 13.5954 11 13.25 11H9.5C9.15458 11 8.875 10.7204 8.875 10.375V6.625C8.875 6.27958 9.15458 6 9.5 6C9.84542 6 10.125 6.27958 10.125 6.625V8.75708C11.969 6.99708 14.3919 6 17 6C22.514 6 27 10.486 27 16ZM22.625 13.5V19.125C22.625 19.3856 22.4633 19.6187 22.2198 19.7104L17.2198 21.5854C17.078 21.6379 16.922 21.6379 16.7802 21.5854L11.7802 19.7104C11.6612 19.6656 11.5586 19.5856 11.4862 19.481C11.4138 19.3764 11.375 19.2522 11.375 19.125V13.5C11.375 13.2394 11.5367 13.0062 11.7802 12.9146L16.7802 11.0396C16.922 10.9871 17.0778 10.9871 17.2196 11.0396L22.2196 12.9146C22.3387 12.9593 22.4413 13.0394 22.5137 13.144C22.5862 13.2486 22.625 13.3728 22.625 13.5ZM13.7798 13.5L17 14.7073L20.2202 13.5L17 12.2927L13.7798 13.5ZM12.625 18.6917L16.375 20.0979V15.8083L12.625 14.4021V18.6917ZM21.375 18.6917V14.4021L17.625 15.8083V20.0979L21.375 18.6917Z" fill="#3E96F4"/>
</svg>
