<svg width="64" height="64" viewBox="0 0 64 64" fill="none" xmlns="http://www.w3.org/2000/svg">
<rect width="64" height="64" fill="#EDF5FC"/>
<path fill-rule="evenodd" clip-rule="evenodd" d="M42.6758 20C43.4064 20 44 20.596 44 21.332V34.667H36L35.8438 34.6758C35.5462 34.7109 35.2695 34.8458 35.0576 35.0576C34.8458 35.2695 34.7109 35.5462 34.6758 35.8438L34.667 36V44H21.3311C20.9791 44.0007 20.6411 43.8615 20.3916 43.6133C20.1421 43.365 20.0011 43.0278 20 42.6758V21.3242C20 20.5936 20.5936 20 21.3242 20H42.6758ZM25.333 22V23.9727C23.3954 24.6658 22 26.4963 22 28.6641C22.0002 31.4271 24.2494 33.666 27.0049 33.666C27.929 33.6663 28.6756 34.4122 28.6758 35.3359C28.6758 36.2598 27.9291 37.0066 27.0049 37.0068C26.0804 37.0068 25.333 36.2511 25.333 35.3359H22C22 37.5037 23.3954 39.3342 25.333 40.0273V42H28.667V40.0273C30.6046 39.3342 32 37.5037 32 35.3359C31.9998 32.5729 29.7506 30.334 26.9951 30.334C26.0799 30.3337 25.3244 29.5878 25.3242 28.6641C25.3242 27.7402 26.0709 26.9934 26.9951 26.9932C27.9196 26.9932 28.667 27.7489 28.667 28.6641H32C32 26.4963 30.6046 24.6658 28.667 23.9727V22H25.333Z" fill="#3E96F4"/>
<path d="M37.333 43.9961V37.333H44L37.333 43.9961Z" fill="#3E96F4"/>
</svg>
