<svg width="74" height="74" viewBox="0 0 74 74" fill="none" xmlns="http://www.w3.org/2000/svg">
<path id="Vector" d="M7.42151 17.3914L13.2141 21.3785C13.3692 21.4845 13.5519 21.5413 13.7361 21.5413C13.8854 21.541 14.0324 21.5046 14.1645 21.4351C14.2966 21.3655 14.4098 21.265 14.4945 21.1421L14.9229 20.5203C15.5968 21.5781 16.4719 22.6052 17.5666 23.6231L17.2473 24.0821C16.7683 24.7699 16.5871 25.6051 16.736 26.4342C16.8849 27.2632 17.3455 27.9833 18.0333 28.4607C18.4187 28.7294 18.8439 28.8967 19.28 28.9735C18.4571 30.3752 18.8378 32.2007 20.195 33.1449C20.7262 33.5149 21.3449 33.7068 21.982 33.7068C22.1693 33.7068 22.3582 33.6899 22.547 33.6561C23.1105 33.5548 23.6202 33.3076 24.0408 32.9453C24.2665 33.3629 24.5874 33.7359 25.0035 34.0246C25.5347 34.3946 26.1534 34.5865 26.7905 34.5865C26.9778 34.5865 27.1667 34.5696 27.3555 34.5358C27.618 34.4882 27.8667 34.4068 28.1032 34.3009C28.3273 34.8782 28.7157 35.3756 29.2331 35.7349C29.7643 36.1049 30.3831 36.2968 31.0202 36.2968C31.2075 36.2968 31.3963 36.2799 31.5852 36.2461C32.4142 36.0972 33.1343 35.6366 33.6117 34.9488L33.9387 34.479L37.869 36.9539C38.4156 37.2978 39.0359 37.4759 39.6684 37.4759C39.9217 37.4759 40.1781 37.4467 40.4329 37.3899C41.3203 37.1888 42.0742 36.656 42.5562 35.8899C42.871 35.3894 43.0383 34.8383 43.0705 34.2871C43.4421 34.4237 43.8336 34.4928 44.2297 34.4928C44.483 34.4928 44.7394 34.4636 44.9942 34.4068C45.8816 34.2057 46.6355 33.673 47.1175 32.9069C47.463 32.3588 47.6272 31.7478 47.6349 31.1429C47.8652 31.1904 48.097 31.215 48.3289 31.215C49.4588 31.215 50.5658 30.6531 51.2106 29.6275C51.6451 28.9382 51.7986 28.1506 51.7049 27.3999C51.9153 27.3922 52.1256 27.3645 52.3344 27.317C53.2218 27.1158 53.9756 26.5831 54.4577 25.817C54.9397 25.0509 55.0948 24.1405 54.8937 23.2531C54.8295 22.976 54.7316 22.7079 54.602 22.4547C55.8271 22.0387 56.9786 21.3325 57.952 20.3975L58.5799 21.311C58.6646 21.4339 58.7778 21.5344 58.9099 21.604C59.042 21.6735 59.189 21.7099 59.3383 21.7101C59.5241 21.7101 59.7052 21.6549 59.8603 21.5474L65.6544 17.5603C65.7541 17.4918 65.8392 17.4043 65.905 17.3029C65.9709 17.2014 66.016 17.088 66.038 16.9691C66.06 16.8502 66.0583 16.7281 66.033 16.6098C66.0078 16.4916 65.9595 16.3795 65.8908 16.2799L55.0764 0.569427C54.9382 0.368306 54.7248 0.230131 54.4853 0.185609C54.2458 0.141086 53.9971 0.19482 53.796 0.332995L48.0018 4.3201C47.9022 4.38861 47.817 4.47608 47.7512 4.57753C47.6854 4.67897 47.6402 4.79239 47.6183 4.91131C47.5963 5.03022 47.598 5.1523 47.6232 5.27056C47.6485 5.38882 47.6968 5.50094 47.7654 5.60052L48.576 6.77807C46.5218 7.03293 44.6995 6.77193 43.1427 5.99201C41.9329 5.38558 40.6556 5.26276 39.1188 5.60512C36.2493 6.24533 33.8528 6.92085 31.4808 7.76372L31.4777 7.71305C30.3861 7.776 26.9133 7.84509 24.6242 6.42342L25.309 5.4301C25.4472 5.22898 25.5009 4.98027 25.4564 4.74076C25.4118 4.50126 25.2737 4.28786 25.0725 4.14968L19.28 0.162579C18.8608 -0.126052 18.2866 -0.0201179 17.9995 0.399012L7.18508 16.111C6.89645 16.5301 7.00238 17.1043 7.42151 17.3914ZM18.5492 26.1102C18.4878 25.7663 18.5615 25.4194 18.7595 25.1369L20.9043 22.054C21.1023 21.77 21.4002 21.5796 21.7441 21.5182C22.088 21.4568 22.4349 21.5305 22.7174 21.7286C23.0015 21.9266 23.1918 22.2245 23.2532 22.5684C23.3147 22.9123 23.241 23.2577 23.0429 23.5417L20.8966 26.6261C20.4867 27.2156 19.673 27.3615 19.0834 26.95C18.8025 26.7535 18.6121 26.4541 18.5492 26.1102ZM22.22 31.8445C21.8761 31.9059 21.5291 31.8322 21.2466 31.6341C20.9642 31.4361 20.7722 31.1382 20.7108 30.7943C20.6494 30.4504 20.7231 30.1035 20.9212 29.821L22.4119 27.6793L22.4135 27.6777L24.5582 24.5949V24.5934L26.049 22.4517C26.1691 22.2789 26.3294 22.1377 26.516 22.0404C26.7027 21.9431 26.9101 21.8924 27.1206 21.8928C27.377 21.8928 27.6365 21.9681 27.8637 22.1262C28.1477 22.3242 28.3381 22.6221 28.3995 22.966C28.4609 23.3099 28.3872 23.6569 28.1891 23.9394L23.0613 31.3071C22.9637 31.448 22.8391 31.5681 22.6946 31.6603C22.5502 31.7526 22.3889 31.8152 22.22 31.8445ZM27.0285 32.7242C26.6846 32.7856 26.3376 32.7119 26.0551 32.5139C25.4656 32.1039 25.3197 31.2902 25.7296 30.6992L28.5453 26.6537C28.9553 26.0642 29.7689 25.9183 30.36 26.3282C30.6441 26.5263 30.8344 26.8241 30.8958 27.168C30.9572 27.5119 30.8836 27.8589 30.6855 28.1414L27.8713 32.1853C27.7736 32.3265 27.6487 32.4469 27.504 32.5394C27.3593 32.6319 27.1977 32.6947 27.0285 32.7242ZM30.2848 34.2241C30.0008 34.0261 29.8104 33.7283 29.749 33.3844C29.6876 33.0405 29.7613 32.6935 29.9593 32.411L31.6189 30.0267C32.0289 29.4372 32.8426 29.2913 33.4321 29.7012C33.7161 29.8993 33.9065 30.1971 33.9679 30.541C34.0293 30.8849 33.9556 31.2319 33.7576 31.5144L32.0995 33.8971C31.688 34.4882 30.8743 34.6341 30.2848 34.2241ZM54.0815 2.37337L63.8505 16.5685L59.5747 19.5116L49.8058 5.31649L54.0815 2.37337ZM39.521 7.40446C40.6356 7.15575 41.4984 7.22791 42.3183 7.63936C44.4462 8.70637 46.941 8.98272 49.7352 8.4638L56.8895 18.8591C55.8348 19.9569 54.4945 20.6984 53.102 20.9486L39.3475 12.2882C39.2185 12.2068 39.0712 12.1592 38.9192 12.1485L35.3865 11.9105C34.8384 11.8736 34.3333 12.0748 33.9618 12.4785C31.4516 15.2036 29.1272 15.9329 26.6953 14.74L28.9568 11.4438C29.4604 10.7099 30.1466 10.2217 31.252 9.8087C33.8328 8.84608 36.3844 8.10455 39.521 7.40446ZM28.2552 9.45405C27.9482 9.73813 27.6742 10.0559 27.4384 10.4013L24.8023 14.2456C24.7062 14.3847 24.6396 14.5421 24.6069 14.7079C24.5741 14.8738 24.5759 15.0446 24.612 15.2098C24.6468 15.3749 24.7154 15.5311 24.8134 15.6684C24.9114 15.8058 25.0367 15.9215 25.1815 16.0081C27.529 17.4329 31.186 18.1959 35.2959 13.7513L38.5645 13.9724L52.4127 22.6912C52.7627 22.9107 53.0053 23.2562 53.0974 23.6645C53.1895 24.0714 53.1204 24.489 52.8994 24.8375C52.6798 25.1875 52.3344 25.4301 51.926 25.5238C51.5192 25.6159 51.1016 25.5468 50.7531 25.3257L42.2845 19.9937C41.8546 19.722 41.285 19.8525 41.0148 20.2823C40.7431 20.7122 40.8736 21.2818 41.3035 21.552L49.1656 26.5017C49.8918 26.9592 50.1113 27.9219 49.6538 28.648C49.1963 29.3742 48.2337 29.5922 47.5075 29.1363L39.7283 24.2387C39.2984 23.967 38.7288 24.0975 38.4586 24.5274C38.1868 24.9572 38.3173 25.5268 38.7472 25.797L45.0741 29.7811C45.8003 30.2386 46.0198 31.2012 45.5623 31.9274C45.3428 32.2774 44.9973 32.52 44.5889 32.6136C44.1821 32.7058 43.7645 32.6367 43.416 32.4156L41.4954 31.2058C41.4954 31.2058 41.4938 31.2058 41.4938 31.2043L37.2073 28.5053C36.7775 28.2335 36.2079 28.364 35.9377 28.7939C35.6659 29.2238 35.7964 29.7934 36.2263 30.0636L40.5128 32.7626C41.239 33.2201 41.457 34.1827 41.001 34.9089C40.7815 35.2589 40.436 35.5015 40.0276 35.5951C39.6208 35.6873 39.2032 35.6182 38.8547 35.3971L34.995 32.9668L35.2729 32.5676C35.7519 31.8798 35.9331 31.0446 35.7841 30.2155C35.6352 29.3865 35.1746 28.6665 34.4868 28.189C33.9763 27.8331 33.3712 27.6375 32.7489 27.6271C32.8257 26.557 32.3559 25.4731 31.4132 24.816C30.9987 24.5274 30.5366 24.3554 30.0668 24.2879C30.2602 23.7674 30.3155 23.2024 30.2142 22.639C30.0653 21.8099 29.6047 21.0899 28.9169 20.6124C27.5612 19.6682 25.7158 19.9461 24.6872 21.205C24.4587 20.8117 24.1469 20.4732 23.7737 20.2132C23.0859 19.7342 22.2507 19.5531 21.4217 19.702C20.5926 19.8509 19.8726 20.3115 19.3951 20.9993L18.6336 22.094C17.5113 21.0208 16.6685 19.9492 16.0789 18.8438L23.5833 7.94027C24.9989 8.84455 26.7168 9.26828 28.2552 9.45405ZM18.9944 2.20142L23.2701 5.14454L13.5012 19.3397L9.22546 16.3966L18.9944 2.20142ZM72.1548 55.4631H64.7286V45.9721C64.7286 45.4639 64.3157 45.0509 63.8075 45.0509H37.4591V40.4343C37.4591 39.9262 37.0461 39.5132 36.538 39.5132C36.0298 39.5132 35.6168 39.9262 35.6168 40.4343V45.0509H9.26844C8.76027 45.0509 8.34728 45.4639 8.34728 45.9721V55.4631H0.921164C0.412988 55.4631 0 55.8761 0 56.3843V73.0788C0 73.587 0.412988 74 0.921164 74H17.6157C18.1239 74 18.5369 73.587 18.5369 73.0788V56.3843C18.5369 55.8761 18.1239 55.4631 17.6157 55.4631H10.1896V46.8932H35.6168V55.4631H28.1907C27.6825 55.4631 27.2695 55.8761 27.2695 56.3843V73.0788C27.2695 73.587 27.6825 74 28.1907 74H44.8852C45.3934 74 45.8064 73.587 45.8064 73.0788V56.3843C45.8064 55.8761 45.3934 55.4631 44.8852 55.4631H37.4591V46.8932H62.8863V55.4631H55.4602C54.952 55.4631 54.539 55.8761 54.539 56.3843V73.0788C54.539 73.587 54.952 74 55.4602 74H72.1548C72.6629 74 73.0759 73.587 73.0759 73.0788V56.3843C73.0759 55.8746 72.6629 55.4631 72.1548 55.4631ZM16.6946 72.1577H1.84233V57.3054H16.6946V72.1577ZM43.9641 72.1577H29.1118V57.3054H43.9641V72.1577ZM71.2336 72.1577H56.3814V57.3054H71.2336V72.1577Z" fill="url(#paint0_linear_1_622)"/>
<defs>
<linearGradient id="paint0_linear_1_622" x1="11.312" y1="9.24485" x2="62.1471" y2="59.0063" gradientUnits="userSpaceOnUse">
<stop stop-color="#FE5B52"/>
<stop offset="1" stop-color="#3E96F4"/>
</linearGradient>
</defs>
</svg>
