<svg width="64" height="64" viewBox="0 0 64 64" fill="none" xmlns="http://www.w3.org/2000/svg">
<path d="M63.0812 21.0579L33.2415 0.38757C32.8767 0.135196 32.4436 0 32 0C31.5564 0 31.1234 0.135196 30.7585 0.38757L21.3321 6.91503V6.39668C21.3321 5.54805 20.995 4.73419 20.3949 4.13412C19.7949 3.53405 18.981 3.19694 18.1324 3.19694H14.9326C14.084 3.19694 13.2702 3.53405 12.6701 4.13412C12.07 4.73419 11.7329 5.54805 11.7329 6.39668V13.5641L0.914594 21.0579C0.684884 21.217 0.488831 21.4199 0.337664 21.655C0.186496 21.89 0.0831847 22.1526 0.0336466 22.4276C-0.0158916 22.7027 -0.0106831 22.9848 0.0489737 23.2578C0.10863 23.5308 0.221563 23.7894 0.381304 24.0187L1.74226 25.9695C2.07634 26.4472 2.58588 26.7734 3.15962 26.8767C3.73335 26.98 4.32466 26.8521 4.80441 26.5209L5.3377 26.1551V52.2596C5.33939 53.6734 5.90179 55.0289 6.90154 56.0286C7.90128 57.0284 9.25674 57.5908 10.6706 57.5925V59.7256C10.6706 60.8571 11.1201 61.9423 11.9202 62.7424C12.7203 63.5425 13.8054 63.9919 14.9369 63.9919H49.0632C50.1947 63.9919 51.2798 63.5425 52.0799 62.7424C52.88 61.9423 53.3295 60.8571 53.3295 59.7256V57.5925C54.7433 57.5908 56.0988 57.0284 57.0985 56.0286C58.0983 55.0289 58.6607 53.6734 58.6624 52.2596V26.1551L59.1957 26.5209C59.6755 26.8518 60.2667 26.9795 60.8404 26.8762C61.414 26.7729 61.9236 26.447 62.2578 25.9695L63.6188 24.0176C63.7785 23.7884 63.8914 23.5299 63.951 23.257C64.0107 22.9841 64.0159 22.702 63.9664 22.4271C63.9168 22.1521 63.8135 21.8897 63.6623 21.6547C63.5112 21.4198 63.3152 21.2169 63.0855 21.0579H63.0812ZM13.8661 6.39668C13.8661 6.1138 13.9784 5.84251 14.1785 5.64249C14.3785 5.44247 14.6498 5.3301 14.9326 5.3301H18.1324C18.4153 5.3301 18.6865 5.44247 18.8866 5.64249C19.0866 5.84251 19.199 6.1138 19.199 6.39668V8.39331L13.8661 12.0869V6.39668ZM51.1963 59.7256C51.1963 60.2914 50.9716 60.834 50.5715 61.234C50.1715 61.634 49.6289 61.8588 49.0632 61.8588H14.9326C14.3669 61.8588 13.8243 61.634 13.4243 61.234C13.0242 60.834 12.7995 60.2914 12.7995 59.7256V44.7935C12.7995 44.2278 13.0242 43.6852 13.4243 43.2851C13.8243 42.8851 14.3669 42.6604 14.9326 42.6604H49.0632C49.6289 42.6604 50.1715 42.8851 50.5715 43.2851C50.9716 43.6852 51.1963 44.2278 51.1963 44.7935V59.7256ZM31.9979 36.2609C31.576 36.2609 31.1636 36.1358 30.8128 35.9014C30.462 35.667 30.1886 35.3338 30.0271 34.944C29.8657 34.5543 29.8234 34.1254 29.9057 33.7116C29.988 33.2978 30.1912 32.9177 30.4895 32.6194C30.7879 32.321 31.168 32.1179 31.5817 32.0356C31.9955 31.9533 32.4244 31.9955 32.8142 32.1569C33.204 32.3184 33.5372 32.5918 33.7716 32.9426C34.006 33.2934 34.1311 33.7058 34.1311 34.1277C34.1311 34.6935 33.9063 35.2361 33.5063 35.6361C33.1062 36.0361 32.5637 36.2609 31.9979 36.2609ZM29.2483 37.3627C30.01 38.0276 30.9868 38.394 31.9979 38.394C33.009 38.394 33.9859 38.0276 34.7476 37.3627L40.5892 40.5272H23.4066L29.2483 37.3627ZM56.5292 52.2596C56.5292 53.1082 56.1921 53.9221 55.592 54.5221C54.992 55.1222 54.1781 55.4593 53.3295 55.4593V44.7935C53.3295 43.662 52.88 42.5769 52.0799 41.7768C51.2798 40.9767 50.1947 40.5272 49.0632 40.5272H45.0667L35.9848 35.6071C36.2308 34.9611 36.3162 34.2651 36.2337 33.5788C36.1511 32.8925 35.903 32.2366 35.5108 31.6674C35.1185 31.0983 34.5939 30.633 33.9819 30.3115C33.37 29.9901 32.6891 29.8221 31.9979 29.8221C31.3067 29.8221 30.6258 29.9901 30.0139 30.3115C29.4019 30.633 28.8773 31.0983 28.485 31.6674C28.0928 32.2366 27.8447 32.8925 27.7621 33.5788C27.6796 34.2651 27.765 34.9611 28.011 35.6071L18.9291 40.5272H14.9326C13.8011 40.5272 12.716 40.9767 11.9159 41.7768C11.1158 42.5769 10.6663 43.662 10.6663 44.7935V55.4593C9.8177 55.4593 9.00384 55.1222 8.40377 54.5221C7.8037 53.9221 7.46659 53.1082 7.46659 52.2596V24.681L32.0235 7.71283L56.5292 24.6778V52.2596ZM60.4062 24.7674L33.2415 5.96045C32.8767 5.70807 32.4436 5.57288 32 5.57288C31.5564 5.57288 31.1234 5.70807 30.7585 5.96045L3.58957 24.7674C3.58206 24.7729 3.57353 24.7768 3.56448 24.7789C3.55543 24.781 3.54605 24.7813 3.5369 24.7797C3.52774 24.7781 3.519 24.7747 3.5112 24.7696C3.50339 24.7646 3.49667 24.7581 3.49145 24.7504L2.13369 22.8124L32.0235 2.13996L61.8621 22.7985L60.4062 24.7674Z" fill="url(#paint0_linear_1_3944)"/>
<path d="M19.1989 46.9266H17.0658C16.7829 46.9266 16.5116 47.039 16.3116 47.239C16.1115 47.4391 15.9992 47.7104 15.9992 47.9932V56.5259C15.9992 56.8087 16.1115 57.08 16.3116 57.28C16.5116 57.4801 16.7829 57.5924 17.0658 57.5924C17.3486 57.5924 17.6199 57.4801 17.8199 57.28C18.02 57.08 18.1323 56.8087 18.1323 56.5259V53.3261H19.1989C19.4818 53.3261 19.7531 53.4385 19.9531 53.6385C20.1531 53.8385 20.2655 54.1098 20.2655 54.3927V56.5259C20.2655 56.8087 20.3779 57.08 20.5779 57.28C20.7779 57.4801 21.0492 57.5924 21.3321 57.5924C21.6149 57.5924 21.8862 57.4801 22.0863 57.28C22.2863 57.08 22.3986 56.8087 22.3986 56.5259V54.3927C22.3959 53.603 22.0993 52.8426 21.5667 52.2595C21.9838 51.8023 22.2587 51.2335 22.3578 50.6227C22.4569 50.0118 22.3759 49.3853 22.1248 48.8197C21.8736 48.254 21.4632 47.7738 20.9436 47.4376C20.424 47.1015 19.8178 46.9239 19.1989 46.9266ZM18.1323 51.193V49.0598H19.1989C19.4818 49.0598 19.7531 49.1722 19.9531 49.3722C20.1531 49.5722 20.2655 49.8435 20.2655 50.1264C20.2655 50.4093 20.1531 50.6805 19.9531 50.8806C19.7531 51.0806 19.4818 51.193 19.1989 51.193H18.1323ZM46.93 46.9266H42.6636C42.3808 46.9266 42.1095 47.039 41.9095 47.239C41.7094 47.4391 41.5971 47.7104 41.5971 47.9932C41.5971 48.2761 41.7094 48.5474 41.9095 48.7474C42.1095 48.9474 42.3808 49.0598 42.6636 49.0598H43.7302V56.5259C43.7302 56.8087 43.8426 57.08 44.0426 57.28C44.2426 57.4801 44.5139 57.5924 44.7968 57.5924C45.0797 57.5924 45.351 57.4801 45.551 57.28C45.751 57.08 45.8634 56.8087 45.8634 56.5259V49.0598H46.93C47.2128 49.0598 47.4841 48.9474 47.6842 48.7474C47.8842 48.5474 47.9965 48.2761 47.9965 47.9932C47.9965 47.7104 47.8842 47.4391 47.6842 47.239C47.4841 47.039 47.2128 46.9266 46.93 46.9266ZM29.8647 49.0598C30.1476 49.0598 30.4189 48.9474 30.6189 48.7474C30.8189 48.5474 30.9313 48.2761 30.9313 47.9932C30.9313 47.7104 30.8189 47.4391 30.6189 47.239C30.4189 47.039 30.1476 46.9266 29.8647 46.9266H25.5984C25.3155 46.9266 25.0442 47.039 24.8442 47.239C24.6442 47.4391 24.5318 47.7104 24.5318 47.9932V56.5259C24.5318 56.8087 24.6442 57.08 24.8442 57.28C25.0442 57.4801 25.3155 57.5924 25.5984 57.5924H29.8647C30.1476 57.5924 30.4189 57.4801 30.6189 57.28C30.8189 57.08 30.9313 56.8087 30.9313 56.5259C30.9313 56.243 30.8189 55.9717 30.6189 55.7717C30.4189 55.5716 30.1476 55.4593 29.8647 55.4593H26.665V53.3261H27.7315C28.0144 53.3261 28.2857 53.2138 28.4857 53.0137C28.6857 52.8137 28.7981 52.5424 28.7981 52.2595C28.7981 51.9767 28.6857 51.7054 28.4857 51.5054C28.2857 51.3053 28.0144 51.193 27.7315 51.193H26.665V49.0598H29.8647ZM38.3973 46.9266C38.1145 46.9266 37.8432 47.039 37.6431 47.239C37.4431 47.4391 37.3308 47.7104 37.3308 47.9932V52.0078L35.0909 47.5165C34.9853 47.2982 34.8084 47.1225 34.5895 47.0183C34.3706 46.914 34.1227 46.8875 33.8867 46.943C33.6507 46.9985 33.4406 47.1328 33.2911 47.3237C33.1417 47.5146 33.0617 47.7508 33.0644 47.9932V56.5259C33.0644 56.8087 33.1768 57.08 33.3768 57.28C33.5769 57.4801 33.8481 57.5924 34.131 57.5924C34.4139 57.5924 34.6852 57.4801 34.8852 57.28C35.0852 57.08 35.1976 56.8087 35.1976 56.5259V52.5113L37.4374 57.0026C37.5264 57.1807 37.6635 57.3304 37.8331 57.4346C38.0028 57.5389 38.1982 57.5935 38.3973 57.5924C38.4795 57.5922 38.5614 57.5829 38.6416 57.5647C38.8757 57.5096 39.0843 57.377 39.2336 57.1885C39.3829 56.9999 39.464 56.7664 39.4639 56.5259V47.9932C39.4639 47.7104 39.3515 47.4391 39.1515 47.239C38.9515 47.039 38.6802 46.9266 38.3973 46.9266Z" fill="url(#paint1_linear_1_3944)"/>
<defs>
<linearGradient id="paint0_linear_1_3944" x1="9.90707" y1="7.99454" x2="53.8754" y2="51.584" gradientUnits="userSpaceOnUse">
<stop stop-color="#FE5B52"/>
<stop offset="1" stop-color="#3E96F4"/>
</linearGradient>
<linearGradient id="paint1_linear_1_3944" x1="9.90707" y1="7.99454" x2="53.8754" y2="51.584" gradientUnits="userSpaceOnUse">
<stop stop-color="#FE5B52"/>
<stop offset="1" stop-color="#3E96F4"/>
</linearGradient>
</defs>
</svg>
