<svg width="64" height="61" viewBox="0 0 64 61" fill="none" xmlns="http://www.w3.org/2000/svg">
<path d="M30.8628 0.255667L0.674762 13.6713C0.473694 13.7607 0.302907 13.9066 0.183127 14.0912C0.0633478 14.2757 -0.000271475 14.4911 8.70755e-07 14.7112V17.7739C8.70755e-07 18.0753 0.119732 18.3643 0.332855 18.5775C0.545979 18.7906 0.835038 18.9103 1.13644 18.9103H3.26726V19.4572C3.26914 20.0971 3.52417 20.7103 3.97665 21.1628C4.42914 21.6153 5.04229 21.8703 5.6822 21.8722H6.18791V23.0612C6.18979 23.7011 6.44482 24.3142 6.8973 24.7667C7.34978 25.2192 7.96294 25.4742 8.60285 25.4761H8.98924V47.0684H8.60285C7.96306 47.0707 7.35011 47.3258 6.89771 47.7782C6.44531 48.2306 6.19016 48.8436 6.18791 49.4834V50.6724H5.6822C5.04241 50.6746 4.42946 50.9298 3.97706 51.3822C3.52466 51.8346 3.26951 52.4475 3.26726 53.0873V54.6272H2.41493C1.77515 54.6294 1.1622 54.8846 0.709799 55.337C0.257397 55.7894 0.00224708 56.4023 8.70755e-07 57.0421V59.6914C8.70755e-07 59.9928 0.119732 60.2819 0.332855 60.495C0.545979 60.7081 0.835038 60.8279 1.13644 60.8279H62.8636C63.165 60.8279 63.454 60.7081 63.6671 60.495C63.8803 60.2819 64 59.9928 64 59.6914V57.0606C63.9993 56.4197 63.7448 55.8051 63.2923 55.3513C62.8398 54.8974 62.226 54.6412 61.5851 54.6385H60.7327V53.0987C60.7301 52.459 60.4749 51.8463 60.0225 51.3939C59.5702 50.9416 58.9575 50.6864 58.3178 50.6837H57.7993V49.4962C57.7967 48.8565 57.5414 48.2438 57.0891 47.7914C56.6368 47.3391 56.024 47.0838 55.3844 47.0812H54.9966V25.4875H55.3844C56.024 25.4848 56.6368 25.2296 57.0891 24.7773C57.5414 24.3249 57.7967 23.7122 57.7993 23.0725V21.8835H58.305C58.9448 21.8813 59.5577 21.6261 60.0102 21.1737C60.4626 20.7213 60.7177 20.1084 60.72 19.4686V18.9217H62.8579C63.1593 18.9217 63.4483 18.8019 63.6615 18.5888C63.8746 18.3757 63.9943 18.0866 63.9943 17.7852V14.7112C63.9946 14.4911 63.931 14.2757 63.8112 14.0912C63.6914 13.9066 63.5206 13.7607 63.3195 13.6713L33.1357 0.255667C32.7805 0.087327 32.3924 0 31.9993 0C31.6062 0 31.2181 0.087327 30.8628 0.255667ZM55.5264 23.0668C55.5244 23.1039 55.5088 23.1388 55.4825 23.165C55.4563 23.1912 55.4214 23.2069 55.3844 23.2089H48.185C48.148 23.2069 48.1131 23.1912 48.0868 23.165C48.0606 23.1388 48.045 23.1039 48.043 23.0668V21.8778H55.5264V23.0668ZM48.1793 47.0741C47.5397 47.0767 46.9269 47.332 46.4746 47.7843C46.0223 48.2366 45.767 48.8494 45.7644 49.4891V50.6781H44.618V49.4891C44.6158 48.8493 44.3606 48.2363 43.9082 47.7839C43.4558 47.3315 42.8429 47.0764 42.2031 47.0741H41.8167V25.4875H42.2031C42.8429 25.4852 43.4558 25.2301 43.9082 24.7777C44.3606 24.3253 44.6158 23.7123 44.618 23.0725V21.8835H45.7644V23.0725C45.7667 23.7123 46.0218 24.3253 46.4742 24.7777C46.9266 25.2301 47.5396 25.4852 48.1793 25.4875H48.5657V47.0684L48.1793 47.0741ZM15.8192 47.0741H15.4328V25.4875H15.8192C16.459 25.4852 17.072 25.2301 17.5244 24.7777C17.9768 24.3253 18.2319 23.7123 18.2342 23.0725V21.8835H19.3805V23.0725C19.3828 23.7123 19.6379 24.3253 20.0903 24.7777C20.5427 25.2301 21.1557 25.4852 21.7955 25.4875H22.1833V47.0684H21.7955C21.1558 47.0711 20.5431 47.3263 20.0908 47.7786C19.6384 48.231 19.3832 48.8437 19.3805 49.4834V50.6724H18.2342V49.4834C18.2319 48.8436 17.9768 48.2306 17.5244 47.7782C17.072 47.3258 16.459 47.0707 15.8192 47.0684V47.0741ZM24.4675 47.0741V25.4875H26.3455V47.0684L24.4675 47.0741ZM21.8068 23.2146C21.7698 23.2125 21.7349 23.1969 21.7087 23.1707C21.6825 23.1445 21.6668 23.1095 21.6648 23.0725V21.8835H29.1596V23.0725C29.1576 23.1095 29.1419 23.1445 29.1157 23.1707C29.0895 23.1969 29.0546 23.2125 29.0176 23.2146H21.8068ZM21.6648 49.4947C21.6668 49.4577 21.6825 49.4228 21.7087 49.3966C21.7349 49.3703 21.7698 49.3547 21.8068 49.3527H29.0062C29.0432 49.3547 29.0782 49.3703 29.1044 49.3966C29.1306 49.4228 29.1462 49.4577 29.1482 49.4947V50.6823H21.6591L21.6648 49.4947ZM29.0119 47.0798H28.6241V25.4875H29.0119C29.6515 25.4848 30.2643 25.2296 30.7166 24.7773C31.1689 24.3249 31.4242 23.7122 31.4268 23.0725V21.8835H32.5732V23.0725C32.5751 23.7124 32.8301 24.3256 33.2826 24.7781C33.7351 25.2305 34.3482 25.4856 34.9881 25.4875H35.3745V47.0684H34.9881C34.3483 47.0707 33.7354 47.3258 33.283 47.7782C32.8306 48.2306 32.5754 48.8436 32.5732 49.4834V50.6724H31.4268V49.4834C31.4242 48.8427 31.1681 48.2291 30.7146 47.7767C30.261 47.3242 29.6469 47.0696 29.0062 47.0684L29.0119 47.0798ZM37.6588 47.0798V25.4875H39.5381V47.0684L37.6588 47.0798ZM34.9938 23.2146C34.9567 23.2129 34.9216 23.1973 34.8953 23.1711C34.869 23.1448 34.8535 23.1096 34.8518 23.0725V21.8835H42.3451V23.0725C42.3434 23.1096 42.3279 23.1448 42.3016 23.1711C42.2753 23.1973 42.2402 23.2129 42.2031 23.2146H34.9938ZM34.8518 49.4947C34.8535 49.4576 34.869 49.4225 34.8953 49.3962C34.9216 49.3699 34.9567 49.3544 34.9938 49.3527H42.1917C42.2288 49.3544 42.264 49.3699 42.2903 49.3962C42.3165 49.4225 42.3321 49.4576 42.3338 49.4947V50.6823H34.8461L34.8518 49.4947ZM2.27288 15.4484L31.9993 2.23733L61.7271 15.4484V16.636H2.27288V15.4484ZM5.54014 19.4572V18.9089H58.4527V19.4572C58.4507 19.4942 58.4351 19.5292 58.4089 19.5554C58.3827 19.5816 58.3477 19.5972 58.3107 19.5993H5.69499C5.65687 19.599 5.62032 19.5841 5.59285 19.5576C5.56538 19.5312 5.54906 19.4953 5.54724 19.4572H5.54014ZM8.46647 23.0668V21.8778H15.9599V23.0668C15.9581 23.104 15.9426 23.1391 15.9163 23.1654C15.8901 23.1917 15.8549 23.2072 15.8178 23.2089H8.62131C8.5832 23.2086 8.54666 23.1937 8.51919 23.1673C8.49171 23.1408 8.47539 23.1049 8.47358 23.0668H8.46647ZM11.2735 25.4818H13.1529V47.0684H11.2806L11.2735 25.4818ZM8.46647 49.4891C8.4682 49.4519 8.48373 49.4168 8.51 49.3905C8.53628 49.3643 8.57141 49.3487 8.60852 49.347H15.8065C15.8436 49.3487 15.8787 49.3643 15.905 49.3905C15.9313 49.4168 15.9468 49.4519 15.9485 49.4891V50.6766H8.47358L8.46647 49.4891ZM61.72 57.0592V58.5706H2.27288V57.0606C2.27284 57.0222 2.28757 56.9853 2.31403 56.9575C2.34048 56.9298 2.37662 56.9132 2.41493 56.9114H61.5737C61.5936 56.911 61.6134 56.9146 61.6319 56.9219C61.6504 56.9292 61.6672 56.9401 61.6815 56.954C61.6958 56.9679 61.7072 56.9844 61.715 57.0027C61.7228 57.021 61.7269 57.0407 61.7271 57.0606L61.72 57.0592ZM58.4457 53.0972V54.6371H5.54724V53.0987C5.54897 53.0616 5.56449 53.0264 5.59077 53.0001C5.61704 52.9739 5.65218 52.9583 5.6893 52.9566H58.2993C58.3363 52.9587 58.3713 52.9743 58.3975 53.0005C58.4237 53.0267 58.4393 53.0617 58.4414 53.0987L58.4457 53.0972ZM55.5193 49.4891V50.6766H48.0245V49.4891C48.0265 49.452 48.0422 49.4171 48.0684 49.3909C48.0946 49.3647 48.1295 49.349 48.1665 49.347H55.3844C55.4214 49.349 55.4563 49.3647 55.4825 49.3909C55.5088 49.4171 55.5244 49.452 55.5264 49.4891H55.5193ZM52.7109 47.0741H50.8386V25.4875H52.7166L52.7109 47.0741Z" fill="url(#paint0_linear_1_3948)"/>
<defs>
<linearGradient id="paint0_linear_1_3948" x1="3" y1="1.49002e-06" x2="56.9831" y2="58.377" gradientUnits="userSpaceOnUse">
<stop stop-color="#FE5B52"/>
<stop offset="0.948075" stop-color="#3E96F4"/>
</linearGradient>
</defs>
</svg>
