<svg width="51" height="64" viewBox="0 0 51 64" fill="none" xmlns="http://www.w3.org/2000/svg">
<path d="M36.1475 50.4723C34.059 49.9179 31.9322 49.5191 29.7847 49.2792C29.584 49.2656 29.3836 49.3099 29.2074 49.407C29.0312 49.504 28.8866 49.6496 28.7908 49.8265L25.2116 57.1819L21.631 49.824C21.5436 49.6401 21.4006 49.4883 21.2223 49.3901C21.044 49.2919 20.8393 49.2522 20.6371 49.2767C18.4896 49.5165 16.3629 49.9153 14.2744 50.4698C11.7381 51.1659 9.94841 53.503 9.94841 56.0872V62.9986C9.94941 63.2621 10.0546 63.5145 10.241 63.7007C10.4275 63.8869 10.68 63.9918 10.9435 63.9924H39.6284C39.8917 63.9914 40.1439 63.8864 40.3301 63.7002C40.5162 63.5141 40.6213 63.2619 40.6222 62.9986V56.1376C40.4734 53.503 38.6838 51.1659 36.1475 50.4698V50.4723ZM38.4845 62.0565H11.8377V60.2668H13.9818C14.2394 60.2576 14.4834 60.1489 14.6624 59.9634C14.8414 59.7779 14.9414 59.5301 14.9414 59.2724C14.9414 59.0146 14.8414 58.7669 14.6624 58.5814C14.4834 58.3959 14.2394 58.2871 13.9818 58.2779H11.8377V56.8363H16.064C16.3216 56.8272 16.5656 56.7184 16.7446 56.5329C16.9236 56.3474 17.0237 56.0997 17.0237 55.8419C17.0237 55.5841 16.9236 55.3364 16.7446 55.1509C16.5656 54.9654 16.3216 54.8566 16.064 54.8474H12.0862C12.3001 54.2613 12.6507 53.7346 13.1089 53.311C13.5671 52.8875 14.1197 52.5793 14.7208 52.412C16.4773 51.9107 18.2735 51.5614 20.0898 51.3677L24.2669 59.9187C24.3485 60.0866 24.4758 60.2281 24.634 60.327C24.7922 60.426 24.9751 60.4785 25.1617 60.4785C25.3484 60.4785 25.5313 60.426 25.6895 60.327C25.8477 60.2281 25.9749 60.0866 26.0566 59.9187L30.2324 51.3677C32.0418 51.6055 33.8348 51.9543 35.6014 52.412C36.4248 52.6304 37.1533 53.1138 37.6745 53.7877C38.1956 54.4616 38.4803 55.2883 38.4845 56.1401V62.0565ZM25.1611 47.8881C27.0983 47.8883 28.9921 47.3141 30.603 46.238C32.2139 45.1619 33.4695 43.6323 34.211 41.8426C34.9525 40.0529 35.1466 38.0835 34.7689 36.1835C34.3911 34.2834 33.4583 32.5381 32.0886 31.1682C30.7188 29.7983 28.9736 28.8653 27.0736 28.4873C25.1737 28.1092 23.2042 28.3031 21.4144 29.0444C19.6247 29.7857 18.0949 31.0411 17.0186 32.6518C15.9423 34.2626 15.3678 36.1563 15.3678 38.0935C15.3728 40.6894 16.4062 43.1776 18.2417 45.0133C20.0771 46.8491 22.5652 47.8827 25.1611 47.8881ZM25.1611 30.2387C27.2302 30.2424 29.2134 31.0659 30.6765 32.529C32.1395 33.992 32.9631 35.9753 32.9667 38.0443C32.9667 42.3198 29.4858 45.8991 25.1611 45.8991C23.0923 45.8951 21.1093 45.0714 19.6466 43.6084C18.1838 42.1454 17.3604 40.1624 17.3568 38.0935C17.3568 33.818 20.8364 30.2387 25.1611 30.2387Z" fill="url(#paint0_linear_1_3952)"/>
<path d="M25.1611 41.3247C25.0103 41.3273 24.8605 41.2995 24.7206 41.243C24.5808 41.1865 24.4537 41.1024 24.347 40.9958C24.2403 40.8892 24.1561 40.7623 24.0994 40.6225C24.0428 40.4827 24.0148 40.3329 24.0172 40.1821C24.0172 39.9185 23.9125 39.6657 23.7261 39.4793C23.5397 39.293 23.2869 39.1883 23.0233 39.1883C22.7598 39.1883 22.507 39.293 22.3206 39.4793C22.1342 39.6657 22.0295 39.9185 22.0295 40.1821C22.0327 40.8404 22.2409 41.4814 22.6251 42.0159C23.0094 42.5505 23.5506 42.952 24.1736 43.1648V43.5609C24.1736 43.8244 24.2783 44.0772 24.4647 44.2636C24.651 44.45 24.9038 44.5547 25.1674 44.5547C25.431 44.5547 25.6838 44.45 25.8702 44.2636C26.0565 44.0772 26.1612 43.8244 26.1612 43.5609V43.1636C26.8664 42.9263 27.4643 42.4463 27.8484 41.8091C28.2325 41.172 28.3779 40.4191 28.2585 39.6848C28.1391 38.9504 27.7629 38.2823 27.1967 37.7996C26.6306 37.3169 25.9114 37.051 25.1674 37.0492C24.9412 37.0492 24.72 36.9822 24.5319 36.8565C24.3438 36.7308 24.1972 36.5521 24.1106 36.3431C24.024 36.1341 24.0013 35.9041 24.0455 35.6822C24.0896 35.4603 24.1986 35.2564 24.3585 35.0965C24.5185 34.9365 24.7223 34.8275 24.9442 34.7834C25.1661 34.7393 25.3961 34.7619 25.6052 34.8485C25.8142 34.9351 25.9928 35.0817 26.1185 35.2698C26.2442 35.4579 26.3113 35.6791 26.3113 35.9053C26.3113 36.1689 26.416 36.4217 26.6024 36.6081C26.7888 36.7945 27.0416 36.8992 27.3052 36.8992C27.5687 36.8992 27.8215 36.7945 28.0079 36.6081C28.1943 36.4217 28.299 36.1689 28.299 35.9053C28.2958 35.247 28.0876 34.606 27.7034 34.0715C27.3191 33.5369 26.7779 33.1354 26.1549 32.9226V32.5757C26.1549 32.3122 26.0502 32.0594 25.8639 31.873C25.6775 31.6866 25.4247 31.5819 25.1611 31.5819C24.8975 31.5819 24.6447 31.6866 24.4584 31.873C24.272 32.0594 24.1673 32.3122 24.1673 32.5757V32.973C23.4628 33.211 22.8656 33.6913 22.482 34.3284C22.0984 34.9655 21.9534 35.718 22.0727 36.452C22.1919 37.186 22.5678 37.8538 23.1334 38.3366C23.6989 38.8195 24.4175 39.0859 25.1611 39.0886C25.3111 39.0836 25.4606 39.1088 25.6006 39.1627C25.7407 39.2166 25.8684 39.2982 25.9763 39.4025C26.0842 39.5068 26.17 39.6318 26.2286 39.7699C26.2872 39.9081 26.3173 40.0566 26.3173 40.2067C26.3173 40.3568 26.2872 40.5053 26.2286 40.6434C26.17 40.7816 26.0842 40.9066 25.9763 41.0109C25.8684 41.1152 25.7407 41.1967 25.6006 41.2507C25.4606 41.3046 25.3111 41.3298 25.1611 41.3247Z" fill="url(#paint1_linear_1_3952)"/>
<path d="M49.4431 27.237H41.3714V23.2012C41.3704 23.0199 41.3205 22.8422 41.2271 22.6869C41.1337 22.5315 41.0001 22.4042 40.8404 22.3183L28.2548 15.5381V10.0897C28.2548 9.82207 28.1485 9.56543 27.9593 9.37622C27.7701 9.187 27.5135 9.0807 27.2459 9.0807H23.7145V6.0538C23.7145 5.7862 23.6082 5.52957 23.419 5.34035C23.2298 5.15113 22.9731 5.04483 22.7055 5.04483H19.6786V0H17.6607V5.04483H14.6338C14.3662 5.04483 14.1096 5.15113 13.9204 5.34035C13.7311 5.52957 13.6248 5.7862 13.6248 6.0538V9.0807H10.0935C9.82586 9.0807 9.56922 9.187 9.38 9.37622C9.19079 9.56543 9.08448 9.82207 9.08448 10.0897V26.7427L0.389717 33.5027C0.268312 33.5971 0.170086 33.718 0.102543 33.8561C0.0349994 33.9943 -7.66794e-05 34.146 1.25867e-07 34.2998V63.9924H2.01793V34.7929L9.0807 29.2991V38.1377H11.0986V11.0936H26.2331V24.2101H28.2511V17.8322L39.3497 23.8116V44.3945H41.3676V29.26H48.4304V63.9924H50.4483V28.246C50.4483 27.9791 50.3425 27.723 50.1541 27.5339C49.9657 27.3448 49.7101 27.238 49.4431 27.237ZM21.6966 9.07565H15.6428V7.05772H21.6966V9.07565Z" fill="url(#paint2_linear_1_3952)"/>
<defs>
<linearGradient id="paint0_linear_1_3952" x1="7.8093" y1="7.9946" x2="50.4758" y2="41.3366" gradientUnits="userSpaceOnUse">
<stop stop-color="#FE5B52"/>
<stop offset="1" stop-color="#3E96F4"/>
</linearGradient>
<linearGradient id="paint1_linear_1_3952" x1="7.8093" y1="7.9946" x2="50.4758" y2="41.3366" gradientUnits="userSpaceOnUse">
<stop stop-color="#FE5B52"/>
<stop offset="1" stop-color="#3E96F4"/>
</linearGradient>
<linearGradient id="paint2_linear_1_3952" x1="7.8093" y1="7.9946" x2="50.4758" y2="41.3366" gradientUnits="userSpaceOnUse">
<stop stop-color="#FE5B52"/>
<stop offset="1" stop-color="#3E96F4"/>
</linearGradient>
</defs>
</svg>
