<svg width="64" height="64" viewBox="0 0 64 64" fill="none" xmlns="http://www.w3.org/2000/svg">
<path d="M63.2853 29.9267L44.8 23.4561V9.6C44.7999 9.34179 44.7063 9.09235 44.5364 8.89787L37.0697 0.364533C36.9696 0.250018 36.8462 0.158244 36.7076 0.0953709C36.5691 0.0324976 36.4188 -2.01237e-05 36.2667 9.34324e-09H1.06667C0.783769 9.34324e-09 0.512458 0.112381 0.312419 0.312419C0.112381 0.512458 0 0.783769 0 1.06667V57.6C0 57.8829 0.112381 58.1542 0.312419 58.3543C0.512458 58.5543 0.783769 58.6667 1.06667 58.6667H21.3333V60.8C21.3333 62.5672 22.7661 64 24.5333 64H58.6667C60.4339 64 61.8667 62.5672 61.8667 60.8V57.6C61.8667 57.3171 61.7543 57.0458 61.5543 56.8458C61.3542 56.6457 61.0829 56.5333 60.8 56.5333H59.7333V53.3333C59.7333 53.0504 59.621 52.7791 59.4209 52.5791C59.2209 52.379 58.9496 52.2667 58.6667 52.2667V43.7333C58.9496 43.7333 59.2209 43.621 59.4209 43.4209C59.621 43.2209 59.7333 42.9496 59.7333 42.6667V39.4667H60.8C61.0829 39.4667 61.3542 39.3543 61.5543 39.1543C61.7543 38.9542 61.8667 38.6829 61.8667 38.4V36.2667H62.9333C63.2162 36.2667 63.4875 36.1543 63.6876 35.9543C63.8876 35.7542 64 35.4829 64 35.2V30.9333C64.0001 30.7121 63.9313 30.4964 63.8033 30.316C63.6752 30.1356 63.4942 29.9996 63.2853 29.9267ZM37.3333 3.90613L41.3864 8.53333H37.3333V3.90613ZM2.13333 56.5333V2.13333H35.2V9.6C35.2 9.8829 35.3124 10.1542 35.5124 10.3542C35.7125 10.5543 35.9838 10.6667 36.2667 10.6667H42.6667V22.7093L41.952 22.46C41.7241 22.3804 41.4759 22.3804 41.248 22.46L19.9147 29.9267C19.7058 29.9996 19.5248 30.1356 19.3968 30.316C19.2687 30.4964 19.1999 30.7121 19.2 30.9333V35.2C19.2 35.4829 19.3124 35.7542 19.5124 35.9543C19.7125 36.1543 19.9838 36.2667 20.2667 36.2667H21.3333V38.4C21.3333 38.6829 21.4457 38.9542 21.6458 39.1543C21.8458 39.3543 22.1171 39.4667 22.4 39.4667H23.4667V42.6667C23.4667 42.9496 23.579 43.2209 23.7791 43.4209C23.9791 43.621 24.2504 43.7333 24.5333 43.7333V52.2667C24.2504 52.2667 23.9791 52.379 23.7791 52.5791C23.579 52.7791 23.4667 53.0504 23.4667 53.3333V56.5333H2.13333ZM36.2667 39.4667V42.6667C36.2667 42.9496 36.379 43.2209 36.5791 43.4209C36.7791 43.621 37.0504 43.7333 37.3333 43.7333V52.2667C37.0504 52.2667 36.7791 52.379 36.5791 52.5791C36.379 52.7791 36.2667 53.0504 36.2667 53.3333V56.5333H34.1333V53.3333C34.1333 53.0504 34.021 52.7791 33.8209 52.5791C33.6209 52.379 33.3496 52.2667 33.0667 52.2667V43.7333C33.3496 43.7333 33.6209 43.621 33.8209 43.4209C34.021 43.2209 34.1333 42.9496 34.1333 42.6667V39.4667H36.2667ZM49.0667 39.4667V42.6667C49.0667 42.9496 49.1791 43.2209 49.3791 43.4209C49.5791 43.621 49.8504 43.7333 50.1333 43.7333V52.2667C49.8504 52.2667 49.5791 52.379 49.3791 52.5791C49.1791 52.7791 49.0667 53.0504 49.0667 53.3333V56.5333H46.9333V53.3333C46.9333 53.0504 46.821 52.7791 46.6209 52.5791C46.4209 52.379 46.1496 52.2667 45.8667 52.2667V43.7333C46.1496 43.7333 46.4209 43.621 46.6209 43.4209C46.821 43.2209 46.9333 42.9496 46.9333 42.6667V39.4667H49.0667ZM39.4667 43.7333H43.7333V52.2667H39.4667V43.7333ZM38.4 54.4H44.8V56.5333H38.4V54.4ZM44.8 41.6H38.4V39.4667H44.8V41.6ZM26.6667 43.7333H30.9333V52.2667H26.6667V43.7333ZM25.6 54.4H32V56.5333H25.6V54.4ZM32 41.6H25.6V39.4667H32V41.6ZM59.7333 60.8C59.7333 61.0829 59.621 61.3542 59.4209 61.5543C59.2209 61.7543 58.9496 61.8667 58.6667 61.8667H24.5333C24.2504 61.8667 23.9791 61.7543 23.7791 61.5543C23.579 61.3542 23.4667 61.0829 23.4667 60.8V58.6667H59.7333V60.8ZM51.2 56.5333V54.4H57.6V56.5333H51.2ZM56.5333 52.2667H52.2667V43.7333H56.5333V52.2667ZM57.6 41.6H51.2V39.4667H57.6V41.6ZM59.7333 37.3333H23.4667V36.2667H59.7333V37.3333ZM61.8667 34.1333H21.3333V31.6907L41.6 24.5973L61.8667 31.6907V34.1333Z" fill="url(#paint0_linear_1_3932)"/>
<path d="M38.3999 29.8667C38.3999 31.6339 39.8327 33.0667 41.5999 33.0667C43.3671 33.0667 44.7999 31.6339 44.7999 29.8667C44.7999 28.0995 43.3671 26.6667 41.5999 26.6667C39.8327 26.6667 38.3999 28.0995 38.3999 29.8667ZM42.6666 29.8667C42.6666 30.1496 42.5542 30.4209 42.3542 30.6209C42.1541 30.821 41.8828 30.9333 41.5999 30.9333C41.317 30.9333 41.0457 30.821 40.8457 30.6209C40.6456 30.4209 40.5333 30.1496 40.5333 29.8667C40.5333 29.5838 40.6456 29.3125 40.8457 29.1124C41.0457 28.9124 41.317 28.8 41.5999 28.8C41.8828 28.8 42.1541 28.9124 42.3542 29.1124C42.5542 29.3125 42.6666 29.5838 42.6666 29.8667ZM14.9333 24.5333C20.2354 24.5333 24.5333 20.2355 24.5333 14.9333C24.5333 9.63121 20.2354 5.33334 14.9333 5.33334C9.63113 5.33334 5.33327 9.63121 5.33327 14.9333C5.339 20.2328 9.6338 24.5276 14.9333 24.5333ZM9.77594 20.3187C9.98461 19.6817 10.3896 19.1272 10.9328 18.7346C11.4761 18.3421 12.1297 18.1316 12.7999 18.1333H17.0666C17.7369 18.1316 18.3904 18.3421 18.9337 18.7346C19.4769 19.1272 19.8819 19.6817 20.0906 20.3187C17.2119 23.0933 12.6546 23.0933 9.77594 20.3187ZM12.7999 13.8667C12.7999 12.6885 13.7551 11.7333 14.9333 11.7333C16.1114 11.7333 17.0666 12.6885 17.0666 13.8667C17.0666 15.0448 16.1114 16 14.9333 16C13.7551 16 12.7999 15.0448 12.7999 13.8667ZM14.9333 7.46668C16.222 7.46534 17.489 7.7979 18.611 8.43192C19.7329 9.06595 20.6715 9.97983 21.3351 11.0845C21.9988 12.1891 22.365 13.4469 22.398 14.7352C22.431 16.0234 22.1297 17.2983 21.5234 18.4355C20.8198 17.3474 19.7402 16.5565 18.4906 16.2136C19.6702 14.4317 19.3505 12.0527 17.7421 10.6459C16.1337 9.23908 13.7327 9.23908 12.1245 10.6459C10.5162 12.0527 10.1963 14.4317 11.3759 16.2136C10.1263 16.5569 9.04671 17.3481 8.34313 18.4364C7.73675 17.2992 7.43529 16.0243 7.46814 14.736C7.501 13.4476 7.86704 12.1898 8.5306 11.0849C9.19424 9.98003 10.1329 9.06595 11.255 8.43183C12.3771 7.7977 13.6444 7.46518 14.9333 7.46668ZM31.9999 12.8H34.1333V14.9333H31.9999V12.8ZM36.2666 12.8H40.5333V14.9333H36.2666V12.8ZM31.9999 17.0667H40.5333V19.2H31.9999V17.0667ZM4.2666 26.6667H7.4666V28.8H4.2666V26.6667ZM9.59994 26.6667H17.0666V28.8H9.59994V26.6667ZM4.2666 30.9333H17.0666V33.0667H4.2666V30.9333ZM4.2666 35.2H17.0666V37.3333H4.2666V35.2ZM4.2666 39.4667H6.39993V41.6H4.2666V39.4667ZM8.53327 39.4667H17.0666V41.6H8.53327V39.4667ZM4.2666 43.7333H8.53327V45.8667H4.2666V43.7333ZM10.6666 43.7333H17.0666V45.8667H10.6666V43.7333Z" fill="url(#paint1_linear_1_3932)"/>
<defs>
<linearGradient id="paint0_linear_1_3932" x1="0" y1="0" x2="64.8759" y2="63.3166" gradientUnits="userSpaceOnUse">
<stop stop-color="#3E96F4"/>
<stop offset="1" stop-color="#FE5B52"/>
</linearGradient>
<linearGradient id="paint1_linear_1_3932" x1="0" y1="0" x2="64.8759" y2="63.3166" gradientUnits="userSpaceOnUse">
<stop stop-color="#3E96F4"/>
<stop offset="1" stop-color="#FE5B52"/>
</linearGradient>
</defs>
</svg>
