<svg width="69" height="64" viewBox="0 0 69 64" fill="none" xmlns="http://www.w3.org/2000/svg">
<path d="M4.57143 54.8571H6.85714V52.5714H4.57143C3.30884 52.5714 2.28571 51.5483 2.28571 50.2857V4.57143C2.28571 3.30884 3.30884 2.28571 4.57143 2.28571H54.8571C56.1197 2.28571 57.1429 3.30884 57.1429 4.57143V6.85714H59.4286V4.57143C59.4286 2.04683 57.3817 0 54.8571 0H4.57143C2.04683 0 0 2.04683 0 4.57143V50.2857C0 52.8103 2.04683 54.8571 4.57143 54.8571Z" fill="url(#paint0_linear_1_3913)"/>
<path d="M4.57143 4.57143H6.85714V6.85714H4.57143V4.57143ZM9.14286 4.57143H11.4286V6.85714H9.14286V4.57143ZM13.7143 4.57143H16V6.85714H13.7143V4.57143ZM9.14286 59.4286C9.14286 61.9532 11.1897 64 13.7143 64H64C66.5246 64 68.5714 61.9532 68.5714 59.4286V13.7143C68.5714 11.1897 66.5246 9.14286 64 9.14286H13.7143C11.1897 9.14286 9.14286 11.1897 9.14286 13.7143V59.4286ZM11.4286 13.7143C11.4286 12.4517 12.4517 11.4286 13.7143 11.4286H64C65.2626 11.4286 66.2857 12.4517 66.2857 13.7143V59.4286C66.2857 60.6912 65.2626 61.7143 64 61.7143H13.7143C12.4517 61.7143 11.4286 60.6912 11.4286 59.4286V13.7143Z" fill="url(#paint1_linear_1_3913)"/>
<path d="M13.7143 13.7143H16V16H13.7143V13.7143ZM18.2857 13.7143H20.5714V16H18.2857V13.7143ZM22.8571 13.7143H25.1429V16H22.8571V13.7143ZM13.7143 18.2857H64V20.5714H13.7143V18.2857ZM13.7143 24H22.8571V26.2857H13.7143V24ZM13.7143 28.5714H20.5714V30.8571H13.7143V28.5714ZM38.8571 33.1429C34.4386 33.1429 30.8571 36.7243 30.8571 41.1429C30.8571 45.5614 34.4386 49.1429 38.8571 49.1429C43.2757 49.1429 46.8571 45.5614 46.8571 41.1429C46.852 36.7269 43.2731 33.148 38.8571 33.1429ZM38.8571 46.8571C35.7014 46.8571 33.1429 44.2986 33.1429 41.1429C33.1429 37.9871 35.7014 35.4286 38.8571 35.4286C42.0129 35.4286 44.5714 37.9871 44.5714 41.1429C44.5674 44.2971 42.0114 46.8531 38.8571 46.8571Z" fill="url(#paint2_linear_1_3913)"/>
<path d="M57.1429 37.7143C57.1429 37.0828 56.6314 36.5714 56 36.5714H52.9794C52.7378 35.8205 52.4354 35.0904 52.0754 34.3886L54.2114 32.254C54.6572 31.8074 54.6572 31.0843 54.2114 30.6377L49.3623 25.7886C48.9157 25.3428 48.1926 25.3428 47.746 25.7886L45.6114 27.9235C44.9091 27.5648 44.1791 27.2629 43.4286 27.0206V24C43.4286 23.3686 42.9172 22.8571 42.2857 22.8571H35.4286C34.7971 22.8571 34.2857 23.3686 34.2857 24V27.0206C33.5352 27.2629 32.8052 27.5648 32.1028 27.9235L29.9683 25.7886C29.5217 25.3428 28.7985 25.3428 28.352 25.7886L23.5028 30.6377C23.0571 31.0843 23.0571 31.8074 23.5028 32.254L25.6377 34.3886C25.5423 34.5748 25.4509 34.763 25.3635 34.9531C25.1224 35.4798 24.9125 36.0202 24.7349 36.5714H21.7143C21.0828 36.5714 20.5714 37.0828 20.5714 37.7143V44.5714C20.5714 45.2029 21.0828 45.7143 21.7143 45.7143H24.7349C24.9765 46.4652 25.2788 47.1953 25.6389 47.8972L23.5028 50.0317C23.0571 50.4783 23.0571 51.2015 23.5028 51.648L28.352 56.4972C28.7985 56.9429 29.5217 56.9429 29.9683 56.4972L32.1028 54.3623C32.8052 54.7209 33.5352 55.0229 34.2857 55.2651V58.2857C34.2857 58.9172 34.7971 59.4286 35.4286 59.4286H42.2857C42.9172 59.4286 43.4286 58.9172 43.4286 58.2857V55.2651C44.1791 55.0229 44.9091 54.7209 45.6114 54.3623L47.746 56.4972C48.1926 56.9429 48.9157 56.9429 49.3623 56.4972L54.2114 51.648C54.6572 51.2015 54.6572 50.4783 54.2114 50.0317L52.0754 47.8972C52.4355 47.1953 52.7379 46.4652 52.9795 45.7143H56C56.6314 45.7143 57.1429 45.2029 57.1429 44.5714V37.7143ZM54.8571 43.4286H52.1212C51.8678 43.4286 51.6217 43.5129 51.4215 43.668C51.2212 43.8232 51.0782 44.0405 51.0149 44.2857C50.7229 45.4204 50.2727 46.5084 49.6777 47.5177C49.4129 47.9663 49.4857 48.5377 49.8537 48.9063L51.786 50.8397L48.554 54.0731L46.6206 52.1394C46.4413 51.9602 46.2076 51.8456 45.9561 51.8138C45.7046 51.7819 45.4497 51.8345 45.2314 51.9634C44.2223 52.5586 43.1345 53.0087 41.9999 53.3006C41.7547 53.3639 41.5374 53.507 41.3823 53.7072C41.2271 53.9074 41.1429 54.1536 41.1429 54.4069V57.1429H36.5714V54.4069C36.5714 54.1536 36.4871 53.9074 36.332 53.7072C36.1768 53.5069 35.9595 53.3639 35.7143 53.3006C34.5797 53.0087 33.4919 52.5586 32.4828 51.9634C32.2645 51.8346 32.0096 51.7819 31.7581 51.8138C31.5067 51.8457 31.2729 51.9602 31.0937 52.1394L29.1603 54.0731L25.9283 50.8397L27.8606 48.9063C28.2285 48.5377 28.3015 47.9663 28.0365 47.5177C27.4415 46.5084 26.9914 45.4204 26.6995 44.2857C26.6362 44.0404 26.4931 43.8231 26.2928 43.668C26.0926 43.5128 25.8464 43.4286 25.5931 43.4286H22.8571V38.8571H25.5931C25.8464 38.8571 26.0926 38.7729 26.2928 38.6177C26.4931 38.4625 26.6361 38.2453 26.6994 38C26.884 37.281 27.1327 36.58 27.4425 35.9055C27.621 35.5146 27.8193 35.1332 28.0366 34.7626C28.165 34.5444 28.2174 34.2898 28.1855 34.0387C28.1537 33.7875 28.0394 33.5541 27.8606 33.3749L25.9283 31.4414L29.1603 28.208L31.0937 30.1423C31.273 30.3215 31.5068 30.4359 31.7583 30.4676C32.0098 30.4993 32.2647 30.4465 32.4829 30.3174C33.4921 29.7225 34.5799 29.2724 35.7143 28.9803C35.9595 28.917 36.1767 28.7741 36.3319 28.5739C36.487 28.3738 36.5713 28.1278 36.5714 27.8746V25.1429H41.1429V27.8788C41.1429 28.1322 41.2271 28.3783 41.3823 28.5785C41.5375 28.7788 41.7547 28.9218 42 28.9851C43.1346 29.277 44.2224 29.7271 45.2315 30.3223C45.4498 30.4511 45.7047 30.5037 45.9561 30.4719C46.2076 30.44 46.4413 30.3255 46.6206 30.1463L48.554 28.2126L51.786 31.446L49.8537 33.3794C49.4857 33.748 49.4128 34.3194 49.6777 34.768C50.2727 35.7773 50.7229 36.8653 51.0149 38C51.0782 38.2453 51.2212 38.4625 51.4215 38.6177C51.6217 38.7729 51.8678 38.8571 52.1212 38.8571H54.8571V43.4286ZM57.1429 57.1429H64V59.4286H57.1429V57.1429Z" fill="url(#paint3_linear_1_3913)"/>
<defs>
<linearGradient id="paint0_linear_1_3913" x1="69.1203" y1="64.1034" x2="21.7082" y2="4.73507" gradientUnits="userSpaceOnUse">
<stop stop-color="#31393C"/>
<stop offset="1" stop-color="#3D96F5"/>
</linearGradient>
<linearGradient id="paint1_linear_1_3913" x1="69.1203" y1="64.1034" x2="21.7082" y2="4.73507" gradientUnits="userSpaceOnUse">
<stop stop-color="#31393C"/>
<stop offset="1" stop-color="#3D96F5"/>
</linearGradient>
<linearGradient id="paint2_linear_1_3913" x1="69.1203" y1="64.1034" x2="21.7082" y2="4.73507" gradientUnits="userSpaceOnUse">
<stop stop-color="#31393C"/>
<stop offset="1" stop-color="#3D96F5"/>
</linearGradient>
<linearGradient id="paint3_linear_1_3913" x1="69.1203" y1="64.1034" x2="21.7082" y2="4.73507" gradientUnits="userSpaceOnUse">
<stop stop-color="#31393C"/>
<stop offset="1" stop-color="#3D96F5"/>
</linearGradient>
</defs>
</svg>
