<svg width="42" height="43" viewBox="0 0 42 43" fill="none" xmlns="http://www.w3.org/2000/svg">
<path d="M6.87665 22.8337C6.87665 23.8645 6.02107 24.7002 4.96567 24.7002C3.91027 24.7002 3.05469 23.8645 3.05469 22.8337C3.05469 21.8028 3.91027 20.9673 4.96567 20.9673C6.02107 20.9673 6.87665 21.8028 6.87665 22.8337Z" stroke="#3E96F4" stroke-width="1.2" stroke-miterlimit="10" stroke-linecap="round" stroke-linejoin="round"/>
<path d="M14.8924 18.9118C14.8924 19.9428 14.0367 20.7783 12.9814 20.7783C11.9259 20.7783 11.0703 19.9428 11.0703 18.9118C11.0703 17.881 11.9259 17.0454 12.9814 17.0454C14.0367 17.0454 14.8924 17.881 14.8924 18.9118Z" stroke="#3E96F4" stroke-width="1.2" stroke-miterlimit="10" stroke-linecap="round" stroke-linejoin="round"/>
<path d="M22.908 11.0691C22.908 12.0999 22.0524 12.9355 20.997 12.9355C19.9415 12.9355 19.0859 12.0999 19.0859 11.0691C19.0859 10.0382 19.9415 9.2026 20.997 9.2026C22.0524 9.2026 22.908 10.0382 22.908 11.0691Z" stroke="#3E96F4" stroke-width="1.2" stroke-miterlimit="10" stroke-linecap="round" stroke-linejoin="round"/>
<path d="M30.9314 14.9905C30.9314 16.0214 30.0758 16.8569 29.0204 16.8569C27.965 16.8569 27.1094 16.0214 27.1094 14.9905C27.1094 13.9596 27.965 13.124 29.0204 13.124C30.0758 13.124 30.9314 13.9596 30.9314 14.9905Z" stroke="#3E96F4" stroke-width="1.2" stroke-miterlimit="10" stroke-linecap="round" stroke-linejoin="round"/>
<path d="M38.9431 3.22533C38.9431 4.25623 38.0875 5.0918 37.0322 5.0918C35.9767 5.0918 35.1211 4.25623 35.1211 3.22533C35.1211 2.19442 35.9767 1.35885 37.0322 1.35885C38.0875 1.35885 38.9431 2.19442 38.9431 3.22533Z" stroke="#3E96F4" stroke-width="1.2" stroke-miterlimit="10" stroke-linecap="round" stroke-linejoin="round"/>
<path d="M30.0742 13.4365L35.9735 4.77909" stroke="#3E96F4" stroke-width="1.2" stroke-miterlimit="10" stroke-linecap="round" stroke-linejoin="round"/>
<path d="M22.707 11.9048L27.3065 14.1548" stroke="#3E96F4" stroke-width="1.2" stroke-miterlimit="10" stroke-linecap="round" stroke-linejoin="round"/>
<path d="M14.332 17.5913L19.6486 12.3898" stroke="#3E96F4" stroke-width="1.2" stroke-miterlimit="10" stroke-linecap="round" stroke-linejoin="round"/>
<path d="M6.67578 21.998L11.2753 19.7481" stroke="#3E96F4" stroke-width="1.2" stroke-miterlimit="10" stroke-linecap="round" stroke-linejoin="round"/>
<path d="M7.03333 29.7427H2.89964C2.76258 29.7427 2.63114 29.7958 2.53422 29.8905C2.43729 29.9851 2.38283 30.1135 2.38281 30.2474V41.3589H7.55007V30.2474C7.55008 30.1811 7.53672 30.1155 7.51075 30.0542C7.48479 29.993 7.44673 29.9373 7.39874 29.8905C7.35076 29.8436 7.29379 29.8064 7.23109 29.7811C7.16839 29.7557 7.10119 29.7427 7.03333 29.7427Z" stroke="#3E96F4" stroke-width="1.2" stroke-miterlimit="10" stroke-linecap="round" stroke-linejoin="round"/>
<path d="M15.0491 25.8209H10.9155C10.7784 25.8209 10.6469 25.8741 10.55 25.9688C10.4531 26.0634 10.3986 26.1918 10.3986 26.3257V41.3589H15.5659V26.3257C15.5659 26.1918 15.5114 26.0635 15.4145 25.9688C15.3176 25.8741 15.1861 25.8209 15.0491 25.8209Z" stroke="#3E96F4" stroke-width="1.2" stroke-miterlimit="10" stroke-linecap="round" stroke-linejoin="round"/>
<path d="M23.0685 17.9435H18.9349C18.7978 17.9435 18.6664 17.9967 18.5694 18.0913C18.4725 18.186 18.418 18.3144 18.418 18.4482V41.3589H23.5853V18.4482C23.5853 18.3144 23.5308 18.186 23.4339 18.0913C23.337 17.9967 23.2055 17.9435 23.0685 17.9435Z" stroke="#3E96F4" stroke-width="1.2" stroke-miterlimit="10" stroke-linecap="round" stroke-linejoin="round"/>
<path d="M1 41.3589H41" stroke="#3E96F4" stroke-width="1.2" stroke-miterlimit="10" stroke-linecap="round" stroke-linejoin="round"/>
<path d="M27.5752 21.8993H26.9504C26.8134 21.8993 26.6819 21.9525 26.585 22.0472C26.4881 22.1419 26.4336 22.2702 26.4336 22.4041V41.3589H31.6008V22.4041C31.6008 22.2702 31.5464 22.1419 31.4495 22.0472C31.3525 21.9525 31.2211 21.8993 31.084 21.8993H30.4593" stroke="#3E96F4" stroke-width="1.2" stroke-miterlimit="10" stroke-linecap="round" stroke-linejoin="round"/>
<path d="M39.6126 24.6743V10.584C39.6126 10.4502 39.5581 10.3218 39.4612 10.2271C39.3643 10.1324 39.2329 10.0792 39.0958 10.0792H34.9621C34.8251 10.0792 34.6936 10.1324 34.5967 10.2271C34.4998 10.3218 34.4453 10.4502 34.4453 10.584V41.3589H39.6126V27.4912" stroke="#3E96F4" stroke-width="1.2" stroke-miterlimit="10" stroke-linecap="round" stroke-linejoin="round"/>
</svg>
