<svg width="36" height="36" viewBox="0 0 36 36" fill="none" xmlns="http://www.w3.org/2000/svg">
<g clip-path="url(#clip0_2565_3122)">
<path fill-rule="evenodd" clip-rule="evenodd" d="M15.1825 33.5979C15.1825 34.5899 16.0108 35.3997 17.0278 35.3997H18.3612C19.378 35.3997 20.2064 34.5899 20.2064 33.5979V33.4628C20.584 33.3416 20.9516 33.193 21.3064 33.0185L21.3999 33.1093L21.4017 33.1111C22.1214 33.8151 23.2933 33.8118 24.0118 33.1113L24.0125 33.1105L24.9506 32.1938L24.9523 32.1921C25.6744 31.4901 25.6712 30.3466 24.9525 29.6457L24.8581 29.5538C25.0354 29.2109 25.1864 28.8558 25.31 28.4912H25.444C26.4601 28.4912 27.2913 27.6841 27.2913 26.6915V25.3913C27.2913 24.3987 26.4602 23.5915 25.444 23.5915H25.3153C25.1907 23.2222 25.0378 22.8624 24.8581 22.5153L24.9506 22.4248L24.9524 22.4231C25.6744 21.7211 25.6711 20.5776 24.9525 19.8767L24.0118 18.9594C23.2934 18.259 22.1216 18.2556 21.4019 18.9594L21.3999 18.9613L21.3063 19.0523C20.9465 18.875 20.5708 18.723 20.1817 18.5992V18.4848C20.1817 17.4915 19.3519 16.683 18.3343 16.683H17.0029C15.9826 16.683 15.1577 17.4942 15.1577 18.4848V18.6177C14.7824 18.7402 14.417 18.8895 14.0643 19.0646L13.9766 18.9794L13.9747 18.9776C13.255 18.2737 12.0832 18.2771 11.3647 18.9775L10.4241 19.8948C9.70548 20.5957 9.70206 21.7391 10.4241 22.4411L10.426 22.443L10.5247 22.5396C10.3503 22.8791 10.2017 23.2308 10.08 23.5915H9.94488C8.9262 23.5915 8.09961 24.4012 8.09961 25.3913V26.6915C8.09961 27.6816 8.92625 28.4912 9.94488 28.4912H10.083C10.2068 28.8557 10.358 29.2108 10.5355 29.5534L10.4418 29.6446L10.4388 29.6475C9.72393 30.3485 9.72123 31.4905 10.4406 32.192L11.3825 33.1105C12.1023 33.815 13.2745 33.812 13.9933 33.1113L14.0884 33.0185C14.4388 33.1907 14.8043 33.3392 15.1825 33.4608V33.5979ZM17.0496 33.5782V32.7695C17.0496 32.3439 16.7475 31.975 16.322 31.8811C15.643 31.7312 15.0023 31.4675 14.4239 31.1143C14.0554 30.8893 13.5762 30.9423 13.2687 31.2423L12.6883 31.8083L11.7762 30.9189L12.3569 30.3546C12.6665 30.0536 12.7207 29.5835 12.4874 29.223C12.12 28.6555 11.854 28.0315 11.7005 27.3773C11.6034 26.9633 11.2258 26.6697 10.7905 26.6697H9.96675V25.4131H10.7884C11.2242 25.4131 11.602 25.1189 11.6987 24.7044C11.8505 24.0535 12.1131 23.4321 12.4754 22.8659C12.7054 22.5067 12.6511 22.0403 12.3446 21.7405L11.7595 21.168L12.6697 20.2804L13.2492 20.8436C13.5582 21.1439 14.0392 21.1955 14.4076 20.9677C14.9906 20.6074 15.6314 20.3452 16.3035 20.1922C16.7259 20.096 17.0248 19.7285 17.0248 19.3053V18.5046H18.3145V19.2932C18.3145 19.7199 18.6182 20.0894 19.0451 20.1822C19.7355 20.3322 20.3832 20.5977 20.9683 20.9557C21.3364 21.181 21.8152 21.1286 22.1231 20.8295L22.7068 20.2623L23.617 21.1499L23.036 21.7182C22.7285 22.0191 22.675 22.4875 22.9073 22.8471C23.2762 23.4181 23.5431 24.0459 23.6964 24.7041C23.7931 25.1188 24.1709 25.4131 24.6068 25.4131H25.4242V26.6697H24.6026C24.1674 26.6697 23.7899 26.9631 23.6926 27.3769C23.5388 28.0314 23.2732 28.6561 22.9068 29.2244C22.6748 29.5843 22.7289 30.0529 23.0372 30.3535L23.617 30.9189L22.7068 31.8083L22.1231 31.2411C21.815 30.9416 21.3355 30.8895 20.9674 31.1155C20.3825 31.4743 19.7397 31.7339 19.066 31.8833C18.6409 31.9775 18.3394 32.3462 18.3394 32.7715V33.5782H17.0496Z" fill="#3DA4C2"/>
<path fill-rule="evenodd" clip-rule="evenodd" d="M13.002 26.0423C13.002 28.5702 15.1037 30.618 17.6961 30.618C20.2868 30.618 22.3881 28.5698 22.3881 26.0423C22.3881 23.5133 20.2872 21.4647 17.6961 21.4647C15.1034 21.4647 13.002 23.5129 13.002 26.0423ZM17.6961 28.7965C16.1332 28.7965 14.8691 27.5626 14.8691 26.0423C14.8691 24.52 16.1336 23.2862 17.6961 23.2862C19.2562 23.2862 20.5211 24.5196 20.5211 26.0423C20.5211 27.5629 19.2566 28.7965 17.6961 28.7965Z" fill="#3DA4C2"/>
<path fill-rule="evenodd" clip-rule="evenodd" d="M0 5.26829C0 2.35869 2.41766 0 5.4 0H30.6C33.5823 0 36 2.35869 36 5.26829V21.5122C36 24.4218 33.5823 26.7805 30.6 26.7805H29.25C28.7529 26.7805 28.35 26.3874 28.35 25.9024C28.35 25.4175 28.7529 25.0244 29.25 25.0244H30.6C32.5882 25.0244 34.2 23.4519 34.2 21.5122V5.26829C34.2 3.32856 32.5882 1.7561 30.6 1.7561H5.4C3.41177 1.7561 1.8 3.32856 1.8 5.26829V21.5122C1.8 23.4519 3.41177 25.0244 5.4 25.0244H6.75C7.24705 25.0244 7.65 25.4175 7.65 25.9024C7.65 26.3874 7.24705 26.7805 6.75 26.7805H5.4C2.41766 26.7805 0 24.4218 0 21.5122V5.26829Z" fill="#3DA4C2"/>
<path fill-rule="evenodd" clip-rule="evenodd" d="M34.2008 8.78051H1.80078V7.02441H34.2008V8.78051Z" fill="#3DA4C2"/>
<path d="M5.39961 4.39026C5.39961 4.87518 4.99666 5.2683 4.49961 5.2683C4.00256 5.2683 3.59961 4.87518 3.59961 4.39026C3.59961 3.90533 4.00256 3.51221 4.49961 3.51221C4.99666 3.51221 5.39961 3.90533 5.39961 4.39026Z" fill="#3DA4C2"/>
<path d="M8.10078 4.39026C8.10078 4.87518 7.69784 5.2683 7.20078 5.2683C6.70373 5.2683 6.30078 4.87518 6.30078 4.39026C6.30078 3.90533 6.70373 3.51221 7.20078 3.51221C7.69784 3.51221 8.10078 3.90533 8.10078 4.39026Z" fill="#3DA4C2"/>
<path d="M10.8 4.39026C10.8 4.87518 10.3971 5.2683 9.9 5.2683C9.40293 5.2683 9 4.87518 9 4.39026C9 3.90533 9.40293 3.51221 9.9 3.51221C10.3971 3.51221 10.8 3.90533 10.8 4.39026Z" fill="#3DA4C2"/>
<path d="M13.5 4.39026C13.5 3.90533 13.9029 3.51221 14.4 3.51221H31.5C31.9971 3.51221 32.4 3.90533 32.4 4.39026C32.4 4.87518 31.9971 5.2683 31.5 5.2683H14.4C13.9029 5.2683 13.5 4.87518 13.5 4.39026Z" fill="#3DA4C2"/>
</g>
<defs>
<clipPath id="clip0_2565_3122">
<rect width="36" height="36" fill="white"/>
</clipPath>
</defs>
</svg>
