<svg width="48" height="48" viewBox="0 0 48 48" fill="none" xmlns="http://www.w3.org/2000/svg">
<rect x="0.5" y="0.5" width="47" height="47" fill="#EBF5FF" stroke="#DFE9F2"/>
<path d="M39.2434 20.5182L36.9011 20.0516C36.6439 19.202 36.3023 18.3801 35.8812 17.5981L37.206 15.6188C37.3267 15.4384 37.3809 15.222 37.3595 15.0063C37.3381 14.7907 37.2423 14.589 37.0884 14.4358L33.539 10.9002C33.3852 10.747 33.1828 10.6516 32.9663 10.6302C32.7497 10.6089 32.5325 10.6629 32.3514 10.7831L30.3642 12.1026C29.5791 11.6833 28.754 11.343 27.9011 11.0868L27.4327 8.75362C27.39 8.54111 27.2747 8.34989 27.1065 8.21249C26.9382 8.07508 26.7274 8 26.5098 8H21.4902C21.2726 8 21.0618 8.07508 20.8935 8.21248C20.7252 8.34988 20.61 8.54111 20.5673 8.75362L20.0989 11.0868C19.246 11.343 18.4208 11.6833 17.6357 12.1026L15.6485 10.7831C15.4675 10.6629 15.2502 10.6089 15.0337 10.6302C14.8172 10.6516 14.6148 10.747 14.4609 10.9002L10.9116 14.4358C10.7577 14.5891 10.6619 14.7907 10.6404 15.0063C10.619 15.222 10.6733 15.4384 10.794 15.6188L12.1187 17.5981C11.6977 18.3801 11.356 19.202 11.0988 20.0516L8.75658 20.5182C8.54323 20.5607 8.35125 20.6755 8.21331 20.8431C8.07537 21.0107 8 21.2208 8 21.4375V26.4375C8 26.8844 8.31667 27.2692 8.75664 27.3568L11.0989 27.8234C11.3561 28.673 11.6977 29.4949 12.1188 30.2769L10.794 32.2563C10.6733 32.4366 10.6191 32.653 10.6405 32.8687C10.662 33.0843 10.7578 33.2859 10.9116 33.4392L14.461 36.9747C14.6148 37.1279 14.8172 37.2234 15.0337 37.2447C15.2503 37.2661 15.4675 37.2121 15.6486 37.0919L17.595 35.7994V29.9141C16.121 28.3513 15.2157 26.2516 15.2157 23.9375C15.2157 19.105 19.1485 15.1875 24 15.1875C28.8515 15.1875 32.7843 19.105 32.7843 23.9375C32.7843 26.2516 31.879 28.3513 30.405 29.9141V35.7994L32.3514 37.0919C32.5059 37.1946 32.6874 37.2494 32.8732 37.2494C33.116 37.2494 33.3571 37.1559 33.539 36.9748L37.0883 33.4393C37.2422 33.286 37.338 33.0844 37.3594 32.8687C37.3808 32.653 37.3266 32.4366 37.2059 32.2563L35.8812 30.2769C36.3022 29.4949 36.6438 28.673 36.9011 27.8234L39.2433 27.3568C39.4567 27.3143 39.6487 27.1995 39.7866 27.0319C39.9246 26.8643 40 26.6542 40 26.4375V21.4375C40 21.2208 39.9246 21.0107 39.7867 20.8431C39.6487 20.6755 39.4567 20.5607 39.2434 20.5182Z" fill="#0089FF"/>
<path d="M26.9816 18.8007C26.5079 18.5274 25.9069 18.8174 25.8287 19.357L25.2549 23.3125H22.7451L22.1714 19.357C22.0931 18.8174 21.4921 18.5274 21.0185 18.8007C19.1807 19.861 18.0392 21.8294 18.0392 23.9375C18.0392 26.222 19.3236 28.2656 21.3911 29.2708L21.4902 29.319V39.0625C21.4902 39.5803 21.9116 40 22.4314 40H25.5686C26.0884 40 26.5098 39.5803 26.5098 39.0625V29.319L26.6089 29.2708C28.6764 28.2656 29.9608 26.222 29.9608 23.9375C29.9608 21.8294 28.8193 19.861 26.9816 18.8007Z" fill="#0089FF"/>
</svg>
