<svg width="56" height="56" viewBox="0 0 56 56" fill="none" xmlns="http://www.w3.org/2000/svg">
<path d="M55.0483 32.8749C54.799 31.181 54.5847 29.7148 54.5148 28.7738C54.283 25.6311 53.4345 23.9591 51.6718 23.1144C50.9147 22.7596 50.0841 22.59 49.2486 22.6198C48.995 21.5519 48.4789 19.823 47.6916 19.0439C46.3357 17.7046 44.4768 17.6652 43.3877 17.7921C43.2358 17.2917 42.9675 16.8344 42.6049 16.4578C42.2422 16.0812 41.7955 15.796 41.3014 15.6256C40.1034 15.2768 38.8191 15.3812 37.693 15.9188C37.3519 10.6884 36.9145 5.87821 36.4158 4.89341C36.2422 4.49188 35.9677 4.14218 35.6189 3.87833C35.2702 3.61448 34.8591 3.44547 34.4258 3.38775C33.083 3.22143 31.7665 4.17122 31.3641 4.63079C31.0841 4.95468 30.8829 5.18666 30.9004 14.6977C30.9004 19.1577 30.9792 24.2174 31.0447 25.1147C31.1016 25.8807 30.9967 28.6162 30.8742 31.2424C30.6605 30.9111 30.4747 30.5627 30.3187 30.2007C29.3302 28.0122 27.257 26.222 24.5409 25.1759C22.752 24.4932 21.0855 24.677 20.0752 25.6662C19.7125 26.0158 19.4594 26.4636 19.3468 26.9548C19.2342 27.446 19.2669 27.9594 19.441 28.4324C19.7778 29.369 20.5432 30.2838 21.4267 31.343C22.2454 32.2642 22.9776 33.2591 23.6136 34.3149C24.1869 35.4164 24.6738 36.5607 25.0701 37.7376C25.5241 39.1044 26.11 40.4237 26.8197 41.6768C27.1476 42.2196 27.5063 42.7929 27.8737 43.3838C28.9944 45.1105 30.0165 46.8991 30.9354 48.7411C32.0245 51.1178 35.9784 53.118 36.4246 53.3632C36.5284 53.417 36.6419 53.4495 36.7585 53.4586C36.875 53.4677 36.9923 53.4535 37.1033 53.4165C37.2142 53.3795 37.3166 53.3207 37.4044 53.2435C37.4923 53.1662 37.5637 53.0722 37.6146 52.9668C37.6655 52.8615 37.6948 52.747 37.7007 52.6302C37.7066 52.5133 37.689 52.3965 37.6491 52.2865C37.609 52.1765 37.5475 52.0757 37.4678 51.99C37.3882 51.9043 37.2923 51.8354 37.1856 51.7875C36.1228 51.2578 33.2142 49.5465 32.5056 48.0015C31.5506 46.0864 30.4844 44.2289 29.3127 42.4384C28.9497 41.8563 28.5954 41.2873 28.2718 40.749C27.6304 39.603 27.1003 38.3983 26.6884 37.1511C26.2626 35.8875 25.7376 34.6596 25.1183 33.4789C24.4326 32.3275 23.6404 31.2431 22.752 30.24C22.004 29.3646 21.2999 28.4892 21.0681 27.859C21.0077 27.7019 20.9958 27.5303 21.034 27.3664C21.0723 27.2026 21.1588 27.054 21.2824 26.9399C21.676 26.5547 22.5683 26.3271 23.9067 26.8348C27.0121 28.0209 28.2499 29.8986 28.7179 30.9447C29.1616 32.0183 29.8578 32.9687 30.7474 33.7152C30.7036 34.5118 30.6686 35.2166 30.638 35.733C30.6249 35.9645 30.7041 36.1918 30.8582 36.365C31.0124 36.5382 31.2289 36.643 31.4603 36.6566H31.4996C31.7228 36.6569 31.9378 36.5719 32.1003 36.419C32.263 36.266 32.361 36.0567 32.3744 35.8337C32.3744 35.4573 32.8993 26.6422 32.7768 24.9877C32.6368 22.9349 32.5537 7.72963 32.8118 5.6725C33.2021 5.33994 33.6946 5.15146 34.2071 5.13851C34.312 5.13851 34.5919 5.18666 34.8457 5.69438C35.2437 6.50848 35.7204 12.0497 36.1053 18.8601V19.0132C36.3153 22.6286 36.499 26.5984 36.6432 30.3932C36.652 30.6254 36.7525 30.8446 36.9227 31.0026C37.0929 31.1605 37.3188 31.2445 37.5509 31.2358C37.7828 31.227 38.0019 31.1265 38.1598 30.9561C38.3177 30.7859 38.4015 30.5597 38.3928 30.3275C38.3272 28.5768 38.1303 23.644 37.833 18.5712C37.8246 18.3888 37.8601 18.2071 37.9361 18.0411C38.0122 17.8751 38.1267 17.7298 38.2703 17.6171C38.9176 17.1049 40.1423 17.1049 40.7459 17.2975C41.7082 17.6083 41.8393 18.8294 41.8437 18.8776C41.8437 18.9564 42.6223 27.0142 42.7186 28.8438C42.7309 29.0675 42.8284 29.278 42.9911 29.4319C43.1539 29.5858 43.3694 29.6714 43.5933 29.671H43.6458C43.8771 29.6575 44.0936 29.5526 44.2478 29.3795C44.402 29.2063 44.4812 28.9791 44.468 28.7474C44.3806 27.2156 43.8557 21.635 43.6589 19.5254C44.42 19.451 45.6271 19.4904 46.4451 20.2957C46.948 20.7903 47.4729 22.6155 47.6872 23.7534V23.8191C48.1347 25.67 48.2912 27.5793 48.1508 29.4784C48.1394 29.5928 48.1505 29.7084 48.1836 29.8185C48.2168 29.9284 48.2712 30.031 48.3439 30.12C48.4166 30.209 48.5061 30.2828 48.6073 30.3372C48.7085 30.3916 48.8195 30.4254 48.9338 30.437H49.0212C49.2388 30.438 49.449 30.358 49.6108 30.2123C49.7726 30.0666 49.8743 29.8658 49.8959 29.6491C50.0388 27.8932 49.9402 26.1259 49.6029 24.3968C50.0572 24.4184 50.5029 24.5285 50.9151 24.7207C51.8686 25.1584 52.5421 26.0338 52.7564 28.9225C52.8309 29.9249 53.0495 31.4174 53.3032 33.1463C53.7712 36.3501 54.3573 40.3375 54.2304 42.7754C54.038 46.4695 52.5203 52.1157 52.5072 52.1726C52.4756 52.2905 52.469 52.4137 52.4878 52.5344C52.5066 52.655 52.5505 52.7703 52.6165 52.8729L54.366 55.6216C54.4947 55.8083 54.6906 55.9377 54.9127 55.9826C55.1348 56.0276 55.3656 55.9845 55.5566 55.8626C55.7477 55.7407 55.8839 55.5493 55.9368 55.3288C55.9896 55.1084 55.955 54.876 55.84 54.6806L54.2917 52.2558C54.6416 50.899 55.8007 46.2244 55.9756 42.8674C56.1287 40.25 55.5295 36.1575 55.0483 32.8749Z" fill="url(#paint0_linear_0_479)"/>
<path d="M0.881943 6.9861H26.3464C26.5571 8.18798 27.1346 9.29504 27.9997 10.155C28.081 10.2363 28.1775 10.3009 28.2837 10.3449C28.3898 10.3889 28.5037 10.4116 28.6186 10.4116C28.7335 10.4116 28.8474 10.3889 28.9535 10.3449C29.0598 10.3009 29.1562 10.2363 29.2375 10.155C29.3188 10.0736 29.3832 9.97711 29.4272 9.8708C29.4712 9.76457 29.4938 9.65065 29.4938 9.53567C29.4938 9.42061 29.4712 9.30677 29.4272 9.20045C29.3832 9.09423 29.3188 8.99763 29.2375 8.91634C28.5547 8.23035 28.1299 7.3293 28.0351 6.36581C27.9403 5.40231 28.1811 4.43563 28.7169 3.62952C29.2528 2.82341 30.0506 2.22744 30.9753 1.94258C31.8999 1.65772 32.8945 1.7015 33.7907 2.06647C33.8969 2.11015 34.0108 2.13247 34.1256 2.13213C34.2405 2.1318 34.3542 2.10882 34.4602 2.06452C34.6743 1.97505 34.8441 1.80415 34.9322 1.58939C34.9759 1.48306 34.9982 1.36916 34.9979 1.2542C34.9975 1.13924 34.9745 1.02548 34.9303 0.919398C34.8861 0.813321 34.8213 0.717007 34.7399 0.635956C34.6584 0.554906 34.5617 0.490706 34.4555 0.447023C33.6087 0.0984183 32.6929 -0.0495764 31.7796 0.0145984C30.8662 0.0787731 29.9801 0.35338 29.1903 0.816968C28.4006 1.28056 27.7286 1.92057 27.227 2.68704C26.7252 3.45349 26.4075 4.32564 26.2983 5.23534H0.881943C0.649943 5.23534 0.427443 5.32758 0.263392 5.49174C0.099342 5.65591 0.00717909 5.87856 0.00717909 6.11073C0.00717909 6.34289 0.099342 6.56555 0.263392 6.72971C0.427443 6.89388 0.649943 6.9861 0.881943 6.9861ZM39.3717 5.23534C39.1396 5.23534 38.9172 5.32758 38.7532 5.49174C38.589 5.65591 38.4969 5.87856 38.4969 6.11073C38.4969 6.34289 38.589 6.56555 38.7532 6.72971C38.9172 6.89388 39.1396 6.9861 39.3717 6.9861H55.1175C55.3495 6.9861 55.572 6.89388 55.736 6.72971C55.9001 6.56555 55.9922 6.34289 55.9922 6.11073C55.9922 5.87856 55.9001 5.65591 55.736 5.49174C55.572 5.32758 55.3495 5.23534 55.1175 5.23534H39.3717ZM6.13054 34.1229C7.60177 34.1211 9.02316 33.5894 10.1348 32.625C11.2463 31.6604 11.9737 30.3277 12.1839 28.8706H16.6278C16.8598 28.8706 17.0822 28.7783 17.2463 28.6142C17.4104 28.45 17.5025 28.2273 17.5025 27.9952C17.5025 27.7631 17.4104 27.5404 17.2463 27.3762C17.0822 27.2121 16.8598 27.1198 16.6278 27.1198H12.1839C12.0162 25.957 11.518 24.867 10.7486 23.9795C9.97922 23.0921 8.97113 22.4448 7.84439 22.1145C6.71767 21.7844 5.51985 21.7853 4.39362 22.1172C3.2674 22.449 2.26026 23.0979 1.49219 23.9864C0.724123 24.875 0.227509 25.9658 0.061516 27.1289C-0.104477 28.2919 0.0671495 29.4782 0.555947 30.5464C1.04475 31.6146 1.83011 32.5196 2.81847 33.1537C3.80682 33.7878 4.95651 34.1242 6.13054 34.1229ZM6.13054 23.6183C6.99561 23.6183 7.84125 23.875 8.56052 24.356C9.27979 24.8369 9.84037 25.5205 10.1714 26.3203C10.5025 27.12 10.5891 28.0001 10.4204 28.8491C10.2516 29.6981 9.83504 30.478 9.22331 31.0901C8.61162 31.7023 7.83227 32.1191 6.98384 32.288C6.1354 32.4569 5.25596 32.3702 4.45676 32.039C3.65754 31.7077 2.97444 31.1466 2.49384 30.4268C2.01324 29.7071 1.75672 28.8608 1.75672 27.9952C1.75672 26.8344 2.21752 25.7211 3.03778 24.9003C3.85803 24.0794 4.97053 23.6183 6.13054 23.6183ZM0.881943 50.755H13.1987C13.4194 52.2034 14.1513 53.5246 15.2619 54.4793C16.3724 55.4341 17.788 55.959 19.252 55.959C20.7161 55.959 22.1317 55.4341 23.2422 54.4793C24.3527 53.5246 25.0847 52.2034 25.3055 50.755H28.4371C28.6691 50.755 28.8916 50.6628 29.0557 50.4987C29.2197 50.3345 29.3119 50.1118 29.3119 49.8797C29.3119 49.6475 29.2197 49.4249 29.0557 49.2607C28.8916 49.0966 28.6691 49.0043 28.4371 49.0043H25.3055C25.0847 47.5559 24.3527 46.2347 23.2422 45.28C22.1317 44.3253 20.7161 43.8004 19.252 43.8004C17.788 43.8004 16.3724 44.3253 15.2619 45.28C14.1513 46.2347 13.4194 47.5559 13.1987 49.0043H0.881943C0.649943 49.0043 0.427443 49.0966 0.263392 49.2607C0.099342 49.4249 0.00717909 49.6475 0.00717909 49.8797C0.00717909 50.1118 0.099342 50.3345 0.263392 50.4987C0.427443 50.6628 0.649943 50.755 0.881943 50.755ZM19.252 45.5028C20.1172 45.5028 20.9628 45.7594 21.6821 46.2404C22.4013 46.7213 22.9619 47.4049 23.293 48.2047C23.624 49.0045 23.7106 49.8845 23.5418 50.7336C23.3731 51.5826 22.9565 52.3625 22.3449 52.9746C21.7331 53.5868 20.9538 54.0036 20.1053 54.1725C19.2569 54.3414 18.3775 54.2546 17.5783 53.9234C16.7791 53.5921 16.096 53.0311 15.6153 52.3113C15.1348 51.5916 14.8782 50.7453 14.8782 49.8797C14.8782 48.7188 15.339 47.6055 16.1593 46.7848C16.9796 45.9639 18.092 45.5028 19.252 45.5028Z" fill="url(#paint1_linear_0_479)"/>
<defs>
<linearGradient id="paint0_linear_0_479" x1="2.625" y1="1.37176e-06" x2="52.457" y2="51.2171" gradientUnits="userSpaceOnUse">
<stop stop-color="#FE5B52"/>
<stop offset="0.948075" stop-color="#3E96F4"/>
</linearGradient>
<linearGradient id="paint1_linear_0_479" x1="2.625" y1="1.37176e-06" x2="52.457" y2="51.2171" gradientUnits="userSpaceOnUse">
<stop stop-color="#FE5B52"/>
<stop offset="0.948075" stop-color="#3E96F4"/>
</linearGradient>
</defs>
</svg>
