<svg width="32" height="32" viewBox="0 0 32 32" fill="none" xmlns="http://www.w3.org/2000/svg">
<path d="M18.5 6.48743C20.1569 6.48743 21.5 5.14428 21.5 3.48743C21.5 1.83057 20.1569 0.487427 18.5 0.487427C16.8431 0.487427 15.5 1.83057 15.5 3.48743C15.5 5.14428 16.8431 6.48743 18.5 6.48743Z" fill="#007BFF"/>
<path d="M0.5 23H12.5C12.6326 23 12.7598 22.9473 12.8536 22.8536C12.9473 22.7598 13 22.6326 13 22.5C13 22.3674 12.9473 22.2402 12.8536 22.1464C12.7598 22.0527 12.6326 22 12.5 22H0.5C0.367392 22 0.240214 22.0527 0.146446 22.1464C0.052678 22.2402 0 22.3674 0 22.5C0 22.6326 0.052678 22.7598 0.146446 22.8536C0.240214 22.9473 0.367392 23 0.5 23Z" fill="black"/>
<path d="M21.136 10.7899C21.0085 9.25492 22.766 9.17742 23.446 9.39742C24.331 9.68742 24.4185 10.7374 24.4185 10.7374C24.4185 10.7374 25.956 10.3024 26.9035 11.2374C27.4335 11.7574 27.7535 13.4874 27.7535 13.4874C28.2817 13.3728 28.8332 13.4369 29.321 13.6699C30.151 14.0599 30.5385 14.8674 30.6585 16.4874C30.7785 18.1074 31.616 22.2724 31.501 24.4624C31.386 26.6524 30.501 29.9349 30.501 29.9349L31.501 31.5049H21.626L21.031 30.0424C21.031 30.0424 18.691 28.8774 18.1235 27.6424C17.556 26.4074 16.501 24.8124 15.751 23.5399C15.001 22.2674 14.6785 20.7099 13.926 19.3624C13.1735 18.0149 11.8935 16.9549 11.5785 16.0774C11.2635 15.1999 12.1935 14.2274 13.8435 14.8574C15.4935 15.4874 16.436 16.5074 16.8685 17.4649C17.123 18.0808 17.5362 18.6182 18.066 19.0224L18.001 18.9874C18.001 18.9874 18.3085 15.2374 18.251 14.3074C18.1935 13.3774 18.0835 3.23992 18.316 2.97242C18.5485 2.70492 19.7885 1.85992 20.376 3.01992C20.6735 3.60992 20.951 7.30242 21.1485 10.7899" fill="#FCD197"/>
<path d="M21.6254 31.9874C21.526 31.9872 21.4289 31.9574 21.3465 31.9017C21.2641 31.8461 21.2002 31.7671 21.1629 31.6749L20.6379 30.3849C20.0379 30.0674 18.2204 29.0299 17.6704 27.8324C17.1452 26.7803 16.561 25.7586 15.9204 24.7724C15.7104 24.4349 15.5054 24.1074 15.3179 23.7974C14.9123 23.0817 14.5774 22.3281 14.3179 21.5474C14.0955 20.8808 13.8222 20.2322 13.5004 19.6074C13.1368 19.0044 12.7184 18.4361 12.2504 17.9099C11.7504 17.3049 11.3079 16.7824 11.1154 16.2474C11.017 15.978 10.9988 15.6858 11.0632 15.4062C11.1275 15.1266 11.2716 14.8718 11.4779 14.6724C12.0554 14.1074 13.0079 14.0024 14.0304 14.3924C15.5854 14.9874 16.7504 16.0074 17.3254 17.2599C17.5499 17.8087 17.9187 18.2865 18.3929 18.6424C18.4766 18.7329 18.5239 18.8511 18.5257 18.9743C18.5276 19.0975 18.4839 19.2171 18.403 19.3101C18.3221 19.403 18.2098 19.4629 18.0875 19.4781C17.9652 19.4933 17.8416 19.4628 17.7404 19.3924C17.1559 18.9401 16.6985 18.3441 16.4129 17.6624C16.1479 17.0774 15.4404 15.9924 13.6629 15.3149C12.9129 15.0249 12.3904 15.1549 12.1629 15.3749C12.0923 15.4401 12.0428 15.525 12.021 15.6186C11.9992 15.7122 12.0059 15.8102 12.0404 15.8999C12.1729 16.2674 12.5754 16.7499 13.0029 17.2599C13.5107 17.8329 13.9635 18.4523 14.3554 19.1099C14.709 19.7877 15.0083 20.4924 15.2504 21.2174C15.4853 21.9323 15.7884 22.623 16.1554 23.2799C16.3529 23.5874 16.5554 23.9124 16.7504 24.2374C17.4165 25.258 18.0225 26.3164 18.5654 27.4074C18.9704 28.2899 20.6329 29.2674 21.2404 29.5699C21.3514 29.6201 21.4403 29.7089 21.4904 29.8199L22.0854 31.2824C22.1198 31.3589 22.1344 31.4428 22.1279 31.5263C22.1213 31.6099 22.0939 31.6905 22.0481 31.7607C22.0023 31.8309 21.9396 31.8884 21.8657 31.9281C21.7919 31.9677 21.7092 31.9881 21.6254 31.9874ZM31.5004 31.9874C31.4163 31.9877 31.3335 31.9668 31.2597 31.9266C31.1858 31.8864 31.1233 31.8282 31.0779 31.7574L30.0779 30.1874C30.0402 30.1288 30.0151 30.0629 30.0044 29.9941C29.9936 29.9252 29.9974 29.8548 30.0154 29.7874C30.0154 29.7549 30.8904 26.5374 31.0004 24.4199C31.0729 23.0299 30.7504 20.7524 30.4704 18.9199C30.3254 17.9199 30.2004 17.0799 30.1579 16.5074C30.0379 14.8674 29.6579 14.3624 29.1054 14.1074C28.7262 13.9254 28.2981 13.871 27.8854 13.9524C27.818 13.9726 27.7471 13.9782 27.6774 13.9691C27.6077 13.9599 27.5407 13.9362 27.4807 13.8994C27.4208 13.8626 27.3693 13.8136 27.3296 13.7555C27.2899 13.6974 27.2629 13.6316 27.2504 13.5624C27.1279 12.9124 26.8279 11.8699 26.5404 11.5874C25.8179 10.8749 24.5529 11.2124 24.5404 11.2149C24.4695 11.2347 24.3951 11.2386 24.3226 11.2263C24.25 11.214 24.1811 11.1858 24.1206 11.1438C24.0602 11.1017 24.0098 11.0469 23.9731 10.9831C23.9363 10.9194 23.914 10.8483 23.9079 10.7749C23.9079 10.7499 23.8304 10.0524 23.2804 9.87245C22.9379 9.75995 22.2354 9.76245 21.8654 10.0549C21.7646 10.1367 21.6881 10.2444 21.644 10.3664C21.6 10.4884 21.5901 10.6202 21.6154 10.7474C21.6264 10.8801 21.5842 11.0116 21.4981 11.1131C21.4121 11.2146 21.2893 11.2778 21.1567 11.2887C21.0241 11.2996 20.8925 11.2574 20.791 11.1714C20.6895 11.0854 20.6264 10.9626 20.6154 10.8299C20.5771 10.5376 20.6155 10.2402 20.7268 9.96716C20.8381 9.69409 21.0186 9.45468 21.2504 9.27245C21.9754 8.69995 23.0729 8.75495 23.5929 8.92245C23.8753 9.0198 24.1307 9.18271 24.338 9.39782C24.5452 9.61293 24.6986 9.87411 24.7854 10.1599C25.4079 10.0899 26.4679 10.1099 27.2454 10.8749C27.6979 11.3199 27.9954 12.3099 28.1354 12.9174C28.6129 12.9004 29.0877 12.9973 29.5204 13.1999C30.5204 13.6724 31.0204 14.6374 31.1454 16.4324C31.1854 16.9699 31.3079 17.8049 31.4504 18.7749C31.7254 20.6499 32.0679 22.9824 31.9904 24.4699C31.8904 26.3874 31.2404 29.0574 31.0279 29.8324L31.9129 31.2174C31.961 31.2924 31.9882 31.3788 31.9917 31.4678C31.9952 31.5568 31.9749 31.6451 31.9329 31.7236C31.8908 31.8021 31.8285 31.868 31.7525 31.9144C31.6765 31.9607 31.5895 31.986 31.5004 31.9874Z" fill="black"/>
<path d="M24.9225 16.9474C24.7945 16.9476 24.6713 16.8987 24.5783 16.8108C24.4853 16.7229 24.4295 16.6027 24.4225 16.4749C24.3625 15.4324 23.9225 10.8299 23.9225 10.7824C23.9163 10.7167 23.923 10.6505 23.9424 10.5874C23.9618 10.5244 23.9933 10.4658 24.0354 10.4149C24.0774 10.3641 24.129 10.322 24.1873 10.2911C24.2456 10.2602 24.3093 10.2411 24.375 10.2349C24.5076 10.2223 24.6398 10.2629 24.7425 10.3478C24.7933 10.3898 24.8354 10.4414 24.8663 10.4997C24.8972 10.5579 24.9163 10.6217 24.9225 10.6874C24.94 10.8774 25.37 15.3549 25.4225 16.4174C25.43 16.5496 25.3847 16.6795 25.2966 16.7784C25.2085 16.8773 25.0847 16.9372 24.9525 16.9449L24.9225 16.9474ZM18 20.9349H17.97C17.8378 20.9272 17.714 20.8673 17.6259 20.7684C17.5378 20.6695 17.4925 20.5396 17.5 20.4074C17.5825 18.9674 17.785 15.0749 17.7325 14.3449C17.695 13.8449 17.655 10.9424 17.65 8.39489C17.65 2.96489 17.7575 2.82989 17.915 2.64489C18.14 2.39489 18.895 1.83989 19.665 1.93489C19.9127 1.96786 20.1477 2.06439 20.347 2.2151C20.5463 2.36581 20.7033 2.56555 20.8025 2.79489C21.4075 3.99239 21.8575 15.1049 21.9425 17.3199C21.9475 17.4525 21.8996 17.5817 21.8093 17.6789C21.7191 17.7762 21.5939 17.8337 21.4613 17.8386C21.3286 17.8436 21.1995 17.7957 21.1022 17.7055C21.0049 17.6152 20.9475 17.49 20.9425 17.3574C20.6925 11.0499 20.26 3.95989 19.91 3.24489C19.7625 2.95489 19.605 2.93489 19.545 2.92739C19.2523 2.93675 18.9717 3.04617 18.75 3.23739C18.6 4.41739 18.6475 13.1024 18.735 14.2749C18.805 15.2199 18.5175 20.2549 18.505 20.4699C18.4961 20.5972 18.4388 20.7163 18.3449 20.8028C18.251 20.8892 18.1276 20.9365 18 20.9349ZM28.0325 17.3824H27.9825C27.9172 17.3758 27.8538 17.3565 27.7959 17.3254C27.7381 17.2943 27.6869 17.2522 27.6454 17.2013C27.6038 17.1505 27.5727 17.092 27.5537 17.0291C27.5348 16.9662 27.5284 16.9002 27.535 16.8349C27.6152 15.7502 27.5258 14.6596 27.27 13.6024C27.2507 13.538 27.2446 13.4703 27.2521 13.4034C27.2596 13.3366 27.2804 13.272 27.3135 13.2134C27.3465 13.1548 27.3911 13.1035 27.4444 13.0625C27.4977 13.0215 27.5588 12.9917 27.6239 12.9749C27.689 12.9581 27.7569 12.9546 27.8234 12.9646C27.8899 12.9746 27.9537 12.9979 28.011 13.0331C28.0683 13.0684 28.1179 13.1148 28.1568 13.1697C28.1957 13.2245 28.2232 13.2867 28.2375 13.3524C28.5257 14.525 28.6253 15.736 28.5325 16.9399C28.5183 17.0623 28.4595 17.1752 28.3672 17.2568C28.2749 17.3385 28.1557 17.3832 28.0325 17.3824ZM15.5 3.98739H0.500002C0.367394 3.98739 0.240217 3.93471 0.146449 3.84095C0.0526803 3.74718 1.90735e-06 3.62 1.90735e-06 3.48739C1.90735e-06 3.35478 0.0526803 3.22761 0.146449 3.13384C0.240217 3.04007 0.367394 2.98739 0.500002 2.98739H15.5C15.6326 2.98739 15.7598 3.04007 15.8536 3.13384C15.9473 3.22761 16 3.35478 16 3.48739C16 3.62 15.9473 3.74718 15.8536 3.84095C15.7598 3.93471 15.6326 3.98739 15.5 3.98739ZM31.5 3.98739H22.5C22.3674 3.98739 22.2402 3.93471 22.1464 3.84095C22.0527 3.74718 22 3.62 22 3.48739C22 3.35478 22.0527 3.22761 22.1464 3.13384C22.2402 3.04007 22.3674 2.98739 22.5 2.98739H31.5C31.6326 2.98739 31.7598 3.04007 31.8536 3.13384C31.9473 3.22761 32 3.35478 32 3.48739C32 3.62 31.9473 3.74718 31.8536 3.84095C31.7598 3.93471 31.6326 3.98739 31.5 3.98739Z" fill="black"/>
<path d="M16.3475 5.94244C16.2172 5.94124 16.0925 5.88921 16 5.79744C15.446 5.24227 15.1011 4.51249 15.0238 3.73197C14.9466 2.95144 15.1419 2.16823 15.5764 1.51526C16.0109 0.86229 16.658 0.379775 17.4078 0.149596C18.1576 -0.0805819 18.9639 -0.044244 19.69 0.252444C19.8127 0.302835 19.9103 0.39989 19.9614 0.522257C20.0125 0.644625 20.0129 0.782281 19.9625 0.904944C19.9121 1.02761 19.8151 1.12523 19.6927 1.17633C19.5703 1.22743 19.4327 1.22783 19.31 1.17744C18.7975 0.966567 18.2278 0.939756 17.6977 1.10157C17.1677 1.26339 16.71 1.60383 16.4027 2.065C16.0953 2.52616 15.9573 3.07956 16.0119 3.63106C16.0666 4.18255 16.3106 4.69808 16.7025 5.08994C16.772 5.15986 16.8193 5.24876 16.8384 5.34548C16.8575 5.44219 16.8476 5.5424 16.81 5.6335C16.7723 5.72461 16.7085 5.80254 16.6267 5.85751C16.5448 5.91248 16.4486 5.94203 16.35 5.94244H16.3475ZM16.25 28.9874H14C13.8674 28.9874 13.7402 28.9348 13.6464 28.841C13.5527 28.7472 13.5 28.6201 13.5 28.4874C13.5 28.3548 13.5527 28.2277 13.6464 28.1339C13.7402 28.0401 13.8674 27.9874 14 27.9874H16.25C16.3826 27.9874 16.5098 28.0401 16.6036 28.1339C16.6973 28.2277 16.75 28.3548 16.75 28.4874C16.75 28.6201 16.6973 28.7472 16.6036 28.841C16.5098 28.9348 16.3826 28.9874 16.25 28.9874Z" fill="black"/>
<path d="M11 31.4874C12.6569 31.4874 14 30.1443 14 28.4874C14 26.8306 12.6569 25.4874 11 25.4874C9.34315 25.4874 8 26.8306 8 28.4874C8 30.1443 9.34315 31.4874 11 31.4874Z" fill="#007BFF"/>
<path d="M11 31.9874C10.3078 31.9874 9.63108 31.7822 9.05551 31.3976C8.47993 31.013 8.03133 30.4664 7.76642 29.8268C7.50152 29.1873 7.43221 28.4835 7.56725 27.8046C7.7023 27.1257 8.03564 26.502 8.52513 26.0126C9.01461 25.5231 9.63825 25.1897 10.3172 25.0547C10.9961 24.9196 11.6999 24.9889 12.3394 25.2538C12.9789 25.5188 13.5256 25.9674 13.9101 26.5429C14.2947 27.1185 14.5 27.7952 14.5 28.4874C14.5 29.4157 14.1313 30.3059 13.4749 30.9623C12.8185 31.6187 11.9283 31.9874 11 31.9874ZM11 25.9874C10.5055 25.9874 10.0222 26.134 9.61108 26.4088C9.19995 26.6835 8.87952 27.0739 8.6903 27.5307C8.50108 27.9875 8.45158 28.4902 8.54804 28.9752C8.6445 29.4601 8.8826 29.9056 9.23223 30.2552C9.58187 30.6048 10.0273 30.8429 10.5123 30.9394C10.9972 31.0359 11.4999 30.9863 11.9567 30.7971C12.4135 30.6079 12.804 30.2875 13.0787 29.8764C13.3534 29.4652 13.5 28.9819 13.5 28.4874C13.5 27.8244 13.2366 27.1885 12.7678 26.7197C12.2989 26.2508 11.663 25.9874 11 25.9874ZM9.5 16.4874H6.5C6.36739 16.4874 6.24022 16.4347 6.14645 16.341C6.05268 16.2472 6 16.12 6 15.9874C6 15.8548 6.05268 15.7276 6.14645 15.6339C6.24022 15.5401 6.36739 15.4874 6.5 15.4874H9.5C9.63261 15.4874 9.75979 15.5401 9.85356 15.6339C9.94732 15.7276 10 15.8548 10 15.9874C10 16.12 9.94732 16.2472 9.85356 16.341C9.75979 16.4347 9.63261 16.4874 9.5 16.4874Z" fill="black"/>
<path d="M0.5 10H14.5C14.6326 10 14.7598 9.94732 14.8536 9.85355C14.9473 9.75979 15 9.63261 15 9.5C15 9.36739 14.9473 9.24021 14.8536 9.14645C14.7598 9.05268 14.6326 9 14.5 9H0.5C0.367392 9 0.240214 9.05268 0.146446 9.14645C0.052678 9.24021 0 9.36739 0 9.5C0 9.63261 0.052678 9.75979 0.146446 9.85355C0.240214 9.94732 0.367392 10 0.5 10Z" fill="black"/>
<path d="M3.5 18.9874C5.15686 18.9874 6.5 17.6443 6.5 15.9874C6.5 14.3306 5.15686 12.9874 3.5 12.9874C1.84315 12.9874 0.500002 14.3306 0.500002 15.9874C0.500002 17.6443 1.84315 18.9874 3.5 18.9874Z" fill="#007BFF"/>
<path d="M3.5 19.4874C2.80777 19.4874 2.13108 19.2822 1.55551 18.8976C0.979934 18.513 0.53133 17.9664 0.266423 17.3268C0.00151652 16.6873 -0.0677952 15.9835 0.0672531 15.3046C0.202301 14.6257 0.535644 14.002 1.02513 13.5126C1.51461 13.0231 2.13825 12.6897 2.81719 12.5547C3.49612 12.4196 4.19985 12.4889 4.83939 12.7538C5.47894 13.0188 6.02556 13.4674 6.41015 14.0429C6.79473 14.6185 7 15.2952 7 15.9874C7 16.9157 6.63125 17.8059 5.97487 18.4623C5.3185 19.1187 4.42826 19.4874 3.5 19.4874ZM3.5 13.4874C3.00555 13.4874 2.5222 13.6341 2.11108 13.9088C1.69995 14.1835 1.37952 14.5739 1.1903 15.0307C1.00108 15.4875 0.951575 15.9902 1.04804 16.4752C1.1445 16.9601 1.3826 17.4056 1.73223 17.7552C2.08187 18.1048 2.52732 18.3429 3.01228 18.4394C3.49723 18.5359 3.99989 18.4863 4.45671 18.2971C4.91353 18.1079 5.30397 17.7875 5.57868 17.3764C5.85338 16.9652 6 16.4819 6 15.9874C6 15.6591 5.93534 15.334 5.8097 15.0307C5.68406 14.7274 5.49991 14.4518 5.26777 14.2197C5.03562 13.9875 4.76002 13.8034 4.45671 13.6777C4.1534 13.5521 3.82831 13.4874 3.5 13.4874ZM8 28.9874H0.500002C0.367393 28.9874 0.240216 28.9348 0.146448 28.841C0.05268 28.7472 1.56853e-06 28.62 1.56853e-06 28.4874C1.56853e-06 28.3548 0.05268 28.2276 0.146448 28.1339C0.240216 28.0401 0.367393 27.9874 0.500002 27.9874H8C8.13261 27.9874 8.25979 28.0401 8.35356 28.1339C8.44732 28.2276 8.5 28.3548 8.5 28.4874C8.5 28.62 8.44732 28.7472 8.35356 28.841C8.25979 28.9348 8.13261 28.9874 8 28.9874Z" fill="black"/>
<path d="M11.5 12.5C13.1569 12.5 14.5 11.1569 14.5 9.5C14.5 7.84315 13.1569 6.5 11.5 6.5C9.84315 6.5 8.5 7.84315 8.5 9.5C8.5 11.1569 9.84315 12.5 11.5 12.5Z" fill="#007BFF"/>
<path d="M11.5 13C10.8078 13 10.1311 12.7947 9.55551 12.4101C8.97994 12.0256 8.53133 11.4789 8.26642 10.8394C8.00152 10.1999 7.9322 9.49612 8.06725 8.81719C8.2023 8.13825 8.53565 7.51461 9.02513 7.02513C9.51462 6.53564 10.1383 6.2023 10.8172 6.06725C11.4961 5.9322 12.1999 6.00152 12.8394 6.26642C13.479 6.53133 14.0256 6.97993 14.4102 7.55551C14.7948 8.13108 15 8.80777 15 9.5C15 10.4283 14.6313 11.3185 13.9749 11.9749C13.3185 12.6313 12.4283 13 11.5 13ZM11.5 7C11.0056 7 10.5222 7.14662 10.1111 7.42133C9.69996 7.69603 9.37953 8.08648 9.19031 8.54329C9.00109 9.00011 8.95158 9.50278 9.04804 9.98773C9.14451 10.4727 9.38261 10.9181 9.73224 11.2678C10.0819 11.6174 10.5273 11.8555 11.0123 11.952C11.4972 12.0484 11.9999 11.9989 12.4567 11.8097C12.9135 11.6205 13.304 11.3001 13.5787 10.8889C13.8534 10.4778 14 9.99446 14 9.5C14 9.1717 13.9354 8.84661 13.8097 8.54329C13.6841 8.23998 13.4999 7.96438 13.2678 7.73223C13.0356 7.50009 12.76 7.31594 12.4567 7.1903C12.1534 7.06467 11.8283 7 11.5 7ZM31.3674 10H28.5C28.3674 10 28.2402 9.94732 28.1464 9.85355C28.0527 9.75979 28 9.63261 28 9.5C28 9.36739 28.0527 9.24021 28.1464 9.14645C28.2402 9.05268 28.3674 9 28.5 9H31.3674C31.5 9 31.6272 9.05268 31.7209 9.14645C31.8147 9.24021 31.8674 9.36739 31.8674 9.5C31.8674 9.63261 31.8147 9.75979 31.7209 9.85355C31.6272 9.94732 31.5 10 31.3674 10Z" fill="black"/>
</svg>
