<svg width="64" height="64" viewBox="0 0 64 64" fill="none" xmlns="http://www.w3.org/2000/svg">
<rect width="64" height="64" rx="8" fill="#335BEA"/>
<path d="M46.1176 35.2353H17.8824C17.6483 35.2353 17.4239 35.3283 17.2584 35.4937C17.093 35.6592 17 35.8836 17 36.1176C17 36.3517 17.093 36.5761 17.2584 36.7416C17.4239 36.907 17.6483 37 17.8824 37H18.9118L21.4118 47H42.5882L45.0882 37H46.1176C46.3517 37 46.5761 36.907 46.7416 36.7416C46.907 36.5761 47 36.3517 47 36.1176C47 35.8836 46.907 35.6592 46.7416 35.4937C46.5761 35.3283 46.3517 35.2353 46.1176 35.2353ZM19.6471 33.4706H24.6347C22.5093 32.0402 21.0166 29.8462 20.4665 27.3441C19.836 28.2188 19.4314 29.2356 19.2884 30.3043C19.1455 31.373 19.2687 32.461 19.6471 33.4706ZM24.9588 31.5118C26.4343 32.7619 28.3015 33.4551 30.2353 33.4706H44.3529C44.8392 30.5524 44.2384 27.5571 42.6643 25.0522C41.0902 22.5473 38.6521 20.7066 35.8118 19.8788L35.6153 19.8218C35.3248 19.7534 35.0572 19.6102 34.839 19.4064C34.6209 19.2027 34.4599 18.9454 34.3719 18.6602C34.2839 18.375 34.272 18.0717 34.3374 17.7805C34.4028 17.4893 34.5432 17.2202 34.7447 17H31.0176C30.1861 17 29.3886 17.3303 28.8007 17.9183C28.2127 18.5063 27.8824 19.3038 27.8824 20.1353V20.1376C27.8824 21.4377 28.3988 22.6845 29.318 23.6037C30.2373 24.523 31.4841 25.0394 32.7841 25.0394C33.0181 25.0394 33.2426 25.1324 33.408 25.2978C33.5735 25.4633 33.6665 25.6878 33.6665 25.9218C33.6665 26.1558 33.5735 26.3802 33.408 26.5457C33.2426 26.7112 33.0181 26.8041 32.7841 26.8041C31.0586 26.8034 29.4007 26.1331 28.1596 24.9344C26.9184 23.7356 26.1908 22.1021 26.13 20.3776C24.942 20.711 23.8955 21.4235 23.1499 22.4066C22.4044 23.3898 22.0005 24.5897 22 25.8235C22.0925 26.9202 22.4017 27.9877 22.9095 28.9641C23.4174 29.9405 24.114 30.8064 24.9588 31.5118Z" fill="white"/>
</svg>
