<svg width="20" height="460" viewBox="0 0 20 460" fill="none" xmlns="http://www.w3.org/2000/svg">
<path d="M10 9V449.5" stroke="#4D5F66" stroke-miterlimit="10" stroke-dasharray="5.01 5.01"/>
<path d="M10 19C14.9706 19 19 14.9706 19 10C19 5.02944 14.9706 1 10 1C5.02944 1 1 5.02944 1 10C1 14.9706 5.02944 19 10 19Z" fill="#3E96F4" stroke="#4D5F66" stroke-miterlimit="10"/>
<path d="M10 130C14.9706 130 19 125.971 19 121C19 116.029 14.9706 112 10 112C5.02944 112 1 116.029 1 121C1 125.971 5.02944 130 10 130Z" fill="#3E96F4" stroke="#4D5F66" stroke-miterlimit="10"/>
<path d="M10 240C14.9706 240 19 235.971 19 231C19 226.029 14.9706 222 10 222C5.02944 222 1 226.029 1 231C1 235.971 5.02944 240 10 240Z" fill="#3E96F4" stroke="#4D5F66" stroke-miterlimit="10"/>
<path d="M10 351C14.9706 351 19 346.971 19 342C19 337.029 14.9706 333 10 333C5.02944 333 1 337.029 1 342C1 346.971 5.02944 351 10 351Z" fill="#3E96F4" stroke="#4D5F66" stroke-miterlimit="10"/>
<path d="M10 459C14.9706 459 19 454.971 19 450C19 445.029 14.9706 441 10 441C5.02944 441 1 445.029 1 450C1 454.971 5.02944 459 10 459Z" fill="#3E96F4" stroke="#4D5F66" stroke-miterlimit="10"/>
</svg>
