<svg width="20" height="20" viewBox="0 0 20 20" fill="none" xmlns="http://www.w3.org/2000/svg">
<path d="M7.49962 0H1.66691C0.746301 0 0 0.746191 0 1.66666V4.99999C0 5.92047 0.746301 6.66666 1.66691 6.66666H7.49962C8.42023 6.66666 9.16653 5.92047 9.16653 4.99999V1.66666C9.16653 0.746191 8.42023 0 7.49962 0Z" fill="#505050"/>
<path d="M18.3334 13.3301H12.5007C11.58 13.3301 10.8337 14.0763 10.8337 14.9967V18.3301C10.8337 19.2505 11.58 19.9967 12.5007 19.9967H18.3334C19.254 19.9967 20.0003 19.2505 20.0003 18.3301V14.9967C20.0003 14.0763 19.254 13.3301 18.3334 13.3301Z" fill="#505050"/>
<path d="M7.49962 8.33313H1.66691C0.746301 8.33313 0 9.07932 0 9.99979V18.3331C0 19.2536 0.746301 19.9998 1.66691 19.9998H7.49962C8.42023 19.9998 9.16653 19.2536 9.16653 18.3331V9.99979C9.16653 9.07932 8.42023 8.33313 7.49962 8.33313Z" fill="#505050"/>
<path d="M18.3334 0H12.5007C11.58 0 10.8337 0.746191 10.8337 1.66666V9.99998C10.8337 10.9205 11.58 11.6667 12.5007 11.6667H18.3334C19.254 11.6667 20.0003 10.9205 20.0003 9.99998V1.66666C20.0003 0.746191 19.254 0 18.3334 0Z" fill="#505050"/>
</svg>
