<svg width="64" height="64" viewBox="0 0 64 64" fill="none" xmlns="http://www.w3.org/2000/svg">
<path fill-rule="evenodd" clip-rule="evenodd" d="M32 6.5C32 6.63549 31.9358 6.99239 31.3229 7.54645C30.71 8.10045 29.7111 8.69107 28.3065 9.22809C25.5112 10.2969 21.5143 11 17 11C12.4857 11 8.48881 10.2969 5.69346 9.22809C4.28895 8.69107 3.28998 8.10045 2.67714 7.54645C2.06423 6.99239 2 6.63549 2 6.5C2 6.36451 2.06423 6.00761 2.67714 5.45355C3.28998 4.89955 4.28895 4.30893 5.69346 3.77191C8.48881 2.7031 12.4857 2 17 2C21.5143 2 25.5112 2.7031 28.3065 3.77191C29.7111 4.30893 30.71 4.89955 31.3229 5.45355C31.9358 6.00761 32 6.36451 32 6.5ZM17 13C23.4938 13 29.1371 11.6079 32 9.56154V15C32 15.4397 31.7659 15.9784 31.0792 16.5872C30.3937 17.195 29.3447 17.788 27.9626 18.3063C25.2057 19.3401 21.3301 20 17 20C12.6699 20 8.79426 19.3401 6.03742 18.3063C4.6553 17.788 3.60629 17.195 2.92077 16.5872C2.23408 15.9784 2 15.4397 2 15V9.56154C4.86285 11.6079 10.5062 13 17 13ZM34 6.5V15V25C34 26.2171 33.3386 27.2569 32.406 28.0837C31.4723 28.9116 30.1782 29.6115 28.6648 30.179C25.6308 31.3167 21.5064 32 17 32C12.4936 32 8.36919 31.3167 5.33517 30.179C3.82185 29.6115 2.52772 28.9116 1.59395 28.0837C0.66135 27.2569 0 26.2171 0 25V15V6.5C0 2.91015 7.61116 0 17 0C26.3888 0 34 2.91015 34 6.5ZM28.6648 20.179C29.9697 19.6897 31.1116 19.1019 32 18.4186V25C32 25.4397 31.7659 25.9784 31.0792 26.5872C30.3937 27.195 29.3447 27.788 27.9626 28.3063C25.2057 29.3401 21.3301 30 17 30C12.6699 30 8.79426 29.3401 6.03742 28.3063C4.6553 27.788 3.60629 27.195 2.92077 26.5872C2.23408 25.9784 2 25.4397 2 25V18.4186C2.88843 19.1019 4.03032 19.6897 5.33517 20.179C8.36919 21.3167 12.4936 22 17 22C21.5064 22 25.6308 21.3167 28.6648 20.179ZM62 38.5C62 38.6355 61.9358 38.9924 61.3229 39.5464C60.71 40.1004 59.7111 40.6911 58.3065 41.2281C55.5112 42.2969 51.5143 43 47 43C42.4857 43 38.4888 42.2969 35.6935 41.2281C34.2889 40.6911 33.29 40.1004 32.6771 39.5464C32.0642 38.9924 32 38.6355 32 38.5C32 38.3645 32.0642 38.0076 32.6771 37.4536C33.29 36.8996 34.2889 36.3089 35.6935 35.7719C38.4888 34.7031 42.4857 34 47 34C51.5143 34 55.5112 34.7031 58.3065 35.7719C59.7111 36.3089 60.71 36.8996 61.3229 37.4536C61.9358 38.0076 62 38.3645 62 38.5ZM47 45C53.4938 45 59.1371 43.6079 62 41.5615V47C62 47.4397 61.7659 47.9784 61.0792 48.5872C60.3937 49.195 59.3447 49.788 57.9626 50.3063C55.2057 51.3401 51.3301 52 47 52C42.6699 52 38.7943 51.3401 36.0374 50.3063C34.6553 49.788 33.6063 49.195 32.9208 48.5872C32.2341 47.9784 32 47.4397 32 47V41.5615C34.8629 43.6079 40.5062 45 47 45ZM64 38.5V47V57C64 58.2171 63.3386 59.2569 62.406 60.0837C61.4723 60.9116 60.1782 61.6115 58.6648 62.179C55.6308 63.3167 51.5064 64 47 64C42.4936 64 38.3692 63.3167 35.3352 62.179C33.8218 61.6115 32.5277 60.9116 31.594 60.0837C30.6614 59.2569 30 58.2171 30 57V47V38.5C30 34.9101 37.6112 32 47 32C56.3888 32 64 34.9101 64 38.5ZM58.6648 52.179C59.9697 51.6897 61.1116 51.1019 62 50.4186V57C62 57.4397 61.7659 57.9784 61.0792 58.5872C60.3937 59.195 59.3447 59.788 57.9626 60.3063C55.2057 61.3401 51.3301 62 47 62C42.6699 62 38.7943 61.3401 36.0374 60.3063C34.6553 59.788 33.6063 59.195 32.9208 58.5872C32.2341 57.9784 32 57.4397 32 57V50.4186C32.8884 51.1019 34.0303 51.6897 35.3352 52.179C38.3692 53.3167 42.4936 54 47 54C51.5064 54 55.6308 53.3167 58.6648 52.179ZM45.3188 10.7189C44.3931 10.0737 43.2465 9.93733 42.4867 10.0227L42.431 10.029H42.375H38.5C37.9477 10.029 37.5 9.58129 37.5 9.02901C37.5 8.47672 37.9477 8.02901 38.5 8.02901H42.3219C43.4363 7.9164 45.0691 8.10693 46.4624 9.07813C47.939 10.1073 49 11.9109 49 14.7203V14.75V14.7796V14.8093V14.839V14.8687V14.8985V14.9283V14.958V14.9878V15.0177V15.0475V15.0773V15.1072V15.1371V15.167V15.1969V15.2268V15.2568V15.2868V15.3167V15.3467V15.3767V15.4068V15.4368V15.4669V15.4969V15.527V15.5571V15.5872V15.6174V15.6475V15.6777V15.7078V15.738V15.7682V15.7984V15.8286V15.8588V15.8891V15.9193V15.9496V15.9798V16.0101V16.0404V16.0707V16.101V16.1314V16.1617V16.1921V16.2224V16.2528V16.2831V16.3135V16.3439V16.3743V16.4047V16.4351V16.4656V16.496V16.5264V16.5569V16.5873V16.6178V16.6483V16.6788V16.7092V16.7397V16.7702V16.8007V16.8312V16.8617V16.8922V16.9228V16.9533V16.9838V17.0144V17.0449V17.0754V17.106V17.1365V17.1671V17.1977V17.2282V17.2588V17.2893V17.3199V17.3505V17.3811V17.4116V17.4422V17.4728V17.5034V17.5339V17.5645V17.5951V17.6257V17.6563V17.6869V17.7174V17.748V17.7786V17.8092V17.8398V17.8704V17.9009V17.9315V17.9621V17.9927V18.0232V18.0538V18.0844V18.1149V18.1455V18.176V18.2066V18.2372V18.2677V18.2982V18.3288V18.3593V18.3898V18.4204V18.4509V18.4814V18.5119V18.5424V18.5729V18.6034V18.6339V18.6644V18.6949V18.7253V18.7558V18.7863V18.8167V18.8471V18.8776V18.908V18.9384V18.9688V18.9992V19.0296V19.06V19.0904V19.1207V19.1511V19.1814V19.2118V19.2421V19.2724V19.3027V19.333V19.3633V19.3936V19.4238V19.4541V19.4843V19.5146V19.5448V19.575V19.6052V19.6353V19.6655V19.6957V19.7258V19.7559V19.786V19.8161V19.8462V19.8763V19.9064V19.9364V19.9664V19.9964V20.0264V20.0564V20.0864V20.1163V20.1463V20.1762V20.2061V20.236V20.2658V20.2957V20.3255V20.3553V20.3851V20.4149V20.4447V20.4744V20.5042V20.5339V20.5636V20.5932V20.6229V20.6525V20.6821V20.7117V20.7413V20.7709V20.8004V20.8299V20.8594V20.8889V20.9183V20.9478V20.9772V21.0065V21.0359V21.0653V21.0946V21.1239V21.1531V21.1824V21.2116V21.2408V21.27V21.2992V21.3283V21.3574V21.3865V21.4156V21.4446V21.4736V21.5026V21.5316V21.5605V21.5894V21.6183V21.6472V21.676V21.7048V21.7336V21.7623V21.7911V21.8198V21.8484V21.8771V21.9057V21.9343V21.9629V21.9914V22.0199V22.0484V22.0768V22.1052V22.1336V22.162V22.1903V22.2186V22.2469V22.2751V22.3033V22.3315V22.3596V22.3877V22.4158V22.4439V22.4719V22.4999V22.5278V22.5558V22.5837V22.6115V22.6393V22.6671V22.6949V22.7226V22.7503V22.778V22.8056V22.8332V22.8607V22.8882V22.9157V22.9432V22.9706V22.998V23.0253V23.0526V23.0799V23.1071V23.1343V23.1615V23.1886V23.2157V23.2427V23.2698V23.2967V23.3237V23.3506V23.3774V23.4042V23.431V23.4578V23.4845V23.5111V23.5378V23.5644V23.5909V23.6174V23.6439V23.6703V23.6967V23.723V23.7493V23.7756V23.8018V23.828V23.8541V23.8802V23.9063V23.9323V23.9583V23.9842V24.0101V24.0359V24.0617V24.0875V24.1132V24.1388V24.1644V24.19V24.2156V24.241V24.2665V24.2919V24.3172V24.3425V24.3678V24.393V24.4182V24.4433V24.4684V24.4934V24.5184V24.5433V24.5682V24.593V24.6178V24.6426V24.6673V24.6919V24.7165V24.741V24.7655V24.79V24.8144V24.8387V24.863V24.8873V24.9115V24.9356V24.9597V24.9838V25.0078V25.0317V25.0556V25.0795V25.1033V25.127V25.1507V25.1743V25.1979V25.2215V25.2449V25.2684V25.2917V25.3151V25.3383V25.3615V25.3847V25.4078V25.4308V25.4538V25.4768V25.4996V25.5225V25.5452V25.568V25.5906V25.6132V25.6358V25.6583V25.6807V25.7031V25.7254V25.7477V25.7699V25.792V25.8141V25.8361V25.8581V25.88V25.9019V25.9237V25.9454V25.9671V25.9887V26.0103V26.0318V26.0532V26.0746V26.0959V26.1172V26.1384V26.1595V26.1806V26.2016V26.2226V26.2435V26.2643V26.2851V26.3058V26.3264V26.347V26.3675V26.388V26.4083V26.4287V26.4489V26.4691V26.4893V26.5093V26.5293V26.5493V26.5692V26.589V26.6087V26.6284V26.648V26.6675V26.687V26.7064V26.7258V26.7451V26.7643V26.7834V26.8025V26.8215V26.8405V26.8593V26.8782V26.8969V26.9156V26.9342V26.9527V26.9712V26.9896V27.0079V27.0261V27.0443V27.0624V27.0805V27.0985V27.1164V27.1342V27.152V27.1697V27.1873V27.2048V27.2223V27.2397V27.257V27.2743V27.2915V27.3086V27.3256V27.3426V27.3595V27.3763V27.3931V27.4097V27.4263V27.4428V27.4593V27.4757V27.492V27.5082V27.5243V27.5404V27.5564V27.5723V27.5882V27.6039V27.6196V27.6352V27.6508V27.6662V27.6816V27.6969V27.7121V27.7273V27.7424V27.7573V27.7723V27.7871V27.8018V27.8165V27.8311V27.8456V27.8601V27.8744V27.8887V27.9029V27.917V27.931V27.945V27.9589V27.9727V27.9864V28C49 28.5523 48.5523 29 48 29C47.4477 29 47 28.5523 47 28V27.9864V27.9727V27.9589V27.945V27.931V27.917V27.9029V27.8887V27.8744V27.8601V27.8456V27.8311V27.8165V27.8018V27.7871V27.7723V27.7573V27.7424V27.7273V27.7121V27.6969V27.6816V27.6662V27.6508V27.6352V27.6196V27.6039V27.5882V27.5723V27.5564V27.5404V27.5243V27.5082V27.492V27.4757V27.4593V27.4428V27.4263V27.4097V27.3931V27.3763V27.3595V27.3426V27.3256V27.3086V27.2915V27.2743V27.257V27.2397V27.2223V27.2048V27.1873V27.1697V27.152V27.1342V27.1164V27.0985V27.0805V27.0624V27.0443V27.0261V27.0079V26.9896V26.9712V26.9527V26.9342V26.9156V26.8969V26.8782V26.8593V26.8405V26.8215V26.8025V26.7834V26.7643V26.7451V26.7258V26.7064V26.687V26.6675V26.648V26.6284V26.6087V26.589V26.5692V26.5493V26.5293V26.5093V26.4893V26.4691V26.4489V26.4287V26.4083V26.388V26.3675V26.347V26.3264V26.3058V26.2851V26.2643V26.2435V26.2226V26.2016V26.1806V26.1595V26.1384V26.1172V26.0959V26.0746V26.0532V26.0318V26.0103V25.9887V25.9671V25.9454V25.9237V25.9019V25.88V25.8581V25.8361V25.8141V25.792V25.7699V25.7477V25.7254V25.7031V25.6807V25.6583V25.6358V25.6132V25.5906V25.568V25.5452V25.5225V25.4996V25.4768V25.4538V25.4308V25.4078V25.3847V25.3615V25.3383V25.3151V25.2917V25.2684V25.2449V25.2215V25.1979V25.1743V25.1507V25.127V25.1033V25.0795V25.0556V25.0317V25.0078V24.9838V24.9597V24.9356V24.9115V24.8873V24.863V24.8387V24.8144V24.79V24.7655V24.741V24.7165V24.6919V24.6673V24.6426V24.6178V24.593V24.5682V24.5433V24.5184V24.4934V24.4684V24.4433V24.4182V24.393V24.3678V24.3425V24.3172V24.2919V24.2665V24.241V24.2156V24.19V24.1644V24.1388V24.1132V24.0875V24.0617V24.0359V24.0101V23.9842V23.9583V23.9323V23.9063V23.8802V23.8541V23.828V23.8018V23.7756V23.7493V23.723V23.6967V23.6703V23.6439V23.6174V23.5909V23.5644V23.5378V23.5111V23.4845V23.4578V23.431V23.4042V23.3774V23.3506V23.3237V23.2967V23.2698V23.2427V23.2157V23.1886V23.1615V23.1343V23.1071V23.0799V23.0526V23.0253V22.998V22.9706V22.9432V22.9157V22.8882V22.8607V22.8332V22.8056V22.778V22.7503V22.7226V22.6949V22.6671V22.6393V22.6115V22.5837V22.5558V22.5278V22.4999V22.4719V22.4439V22.4158V22.3877V22.3596V22.3315V22.3033V22.2751V22.2469V22.2186V22.1903V22.162V22.1336V22.1052V22.0768V22.0484V22.0199V21.9914V21.9629V21.9343V21.9057V21.8771V21.8484V21.8198V21.7911V21.7623V21.7336V21.7048V21.676V21.6472V21.6183V21.5894V21.5605V21.5316V21.5026V21.4736V21.4446V21.4156V21.3865V21.3574V21.3283V21.2992V21.27V21.2408V21.2116V21.1824V21.1531V21.1239V21.0946V21.0653V21.0359V21.0065V20.9772V20.9478V20.9183V20.8889V20.8594V20.8299V20.8004V20.7709V20.7413V20.7117V20.6821V20.6525V20.6229V20.5932V20.5636V20.5339V20.5042V20.4744V20.4447V20.4149V20.3851V20.3553V20.3255V20.2957V20.2658V20.236V20.2061V20.1762V20.1463V20.1163V20.0864V20.0564V20.0264V19.9964V19.9664V19.9364V19.9064V19.8763V19.8462V19.8161V19.786V19.7559V19.7258V19.6957V19.6655V19.6353V19.6052V19.575V19.5448V19.5146V19.4843V19.4541V19.4238V19.3936V19.3633V19.333V19.3027V19.2724V19.2421V19.2118V19.1814V19.1511V19.1207V19.0904V19.06V19.0296V18.9992V18.9688V18.9384V18.908V18.8776V18.8471V18.8167V18.7863V18.7558V18.7253V18.6949V18.6644V18.6339V18.6034V18.5729V18.5424V18.5119V18.4814V18.4509V18.4204V18.3898V18.3593V18.3288V18.2982V18.2677V18.2372V18.2066V18.176V18.1455V18.1149V18.0844V18.0538V18.0232V17.9927V17.9621V17.9315V17.9009V17.8704V17.8398V17.8092V17.7786V17.748V17.7174V17.6869V17.6563V17.6257V17.5951V17.5645V17.5339V17.5034V17.4728V17.4422V17.4116V17.3811V17.3505V17.3199V17.2893V17.2588V17.2282V17.1977V17.1671V17.1365V17.106V17.0754V17.0449V17.0144V16.9838V16.9533V16.9228V16.8922V16.8617V16.8312V16.8007V16.7702V16.7397V16.7092V16.6788V16.6483V16.6178V16.5873V16.5569V16.5264V16.496V16.4656V16.4351V16.4047V16.3743V16.3439V16.3135V16.2831V16.2528V16.2224V16.1921V16.1617V16.1314V16.101V16.0707V16.0404V16.0101V15.9798V15.9496V15.9193V15.8891V15.8588V15.8286V15.7984V15.7682V15.738V15.7078V15.6777V15.6475V15.6174V15.5872V15.5571V15.527V15.4969V15.4669V15.4368V15.4068V15.3767V15.3467V15.3167V15.2868V15.2568V15.2268V15.1969V15.167V15.1371V15.1072V15.0773V15.0475V15.0177V14.9878V14.958V14.9283V14.8985V14.8687V14.839V14.8093V14.7796V14.75V14.7203C47 12.4708 46.186 11.3233 45.3188 10.7189ZM21.5133 53.9772C20.7535 54.0627 19.6069 53.9263 18.6812 53.2811C17.814 52.6767 17 51.5292 17 49.2797V49.25V49.2204V49.1907V49.161V49.1312V49.1015V49.0717V49.042V49.0122V48.9823V48.9525V48.9227V48.8928V48.8629V48.833V48.8031V48.7732V48.7432V48.7132V48.6833V48.6533V48.6233V48.5932V48.5632V48.5331V48.5031V48.473V48.4429V48.4128V48.3826V48.3525V48.3223V48.2922V48.262V48.2318V48.2016V48.1714V48.1412V48.1109V48.0807V48.0504V48.0201V47.9899V47.9596V47.9293V47.899V47.8686V47.8383V47.8079V47.7776V47.7472V47.7169V47.6865V47.6561V47.6257V47.5953V47.5649V47.5344V47.504V47.4736V47.4431V47.4127V47.3822V47.3517V47.3212V47.2908V47.2603V47.2298V47.1993V47.1688V47.1383V47.1077V47.0772V47.0467V47.0162V46.9856V46.9551V46.9246V46.894V46.8635V46.8329V46.8023V46.7718V46.7412V46.7107V46.6801V46.6495V46.6189V46.5884V46.5578V46.5272V46.4966V46.466V46.4355V46.4049V46.3743V46.3437V46.3131V46.2826V46.252V46.2214V46.1908V46.1602V46.1296V46.0991V46.0685V46.0379V46.0073V45.9768V45.9462V45.9156V45.8851V45.8545V45.824V45.7934V45.7628V45.7323V45.7018V45.6712V45.6407V45.6101V45.5796V45.5491V45.5186V45.4881V45.4576V45.4271V45.3966V45.3661V45.3356V45.3051V45.2747V45.2442V45.2137V45.1833V45.1529V45.1224V45.092V45.0616V45.0312V45.0008V44.9704V44.94V44.9096V44.8793V44.8489V44.8186V44.7882V44.7579V44.7276V44.6973V44.667V44.6367V44.6064V44.5762V44.5459V44.5157V44.4854V44.4552V44.425V44.3948V44.3647V44.3345V44.3043V44.2742V44.2441V44.214V44.1839V44.1538V44.1237V44.0936L17 44.0636V44.0336V44.0036V43.9736V43.9436V43.9136V43.8837V43.8537V43.8238V43.7939V43.764V43.7342V43.7043V43.6745V43.6447V43.6149V43.5851V43.5553V43.5256V43.4958V43.4661V43.4364V43.4068V43.3771V43.3475V43.3179V43.2883V43.2587V43.2291V43.1996V43.1701V43.1406V43.1111V43.0817V43.0522V43.0228V42.9935V42.9641V42.9347V42.9054V42.8761V42.8469V42.8176V42.7884V42.7592V42.73V42.7008V42.6717V42.6426V42.6135V42.5844V42.5554V42.5264V42.4974V42.4684V42.4395V42.4106V42.3817V42.3528V42.324V42.2952V42.2664V42.2377V42.2089V42.1802V42.1516V42.1229V42.0943V42.0657V42.0371V42.0086V41.9801V41.9516V41.9232V41.8948V41.8664V41.838V41.8097V41.7814V41.7531V41.7249V41.6967V41.6685V41.6404V41.6123V41.5842V41.5561V41.5281V41.5001V41.4722V41.4442V41.4163V41.3885V41.3607V41.3329V41.3051V41.2774V41.2497V41.222V41.1944V41.1668V41.1393V41.1118V41.0843V41.0568V41.0294V41.002V40.9747V40.9474V40.9201V40.8929V40.8657V40.8385V40.8114V40.7843V40.7573V40.7302V40.7033V40.6763V40.6494V40.6226V40.5958V40.569V40.5422V40.5155V40.4889V40.4622V40.4356V40.4091V40.3826V40.3561V40.3297V40.3033V40.277V40.2507V40.2244V40.1982V40.172V40.1459V40.1198V40.0937V40.0677V40.0417V40.0158V39.9899V39.9641V39.9383V39.9125V39.8868V39.8612V39.8355V39.81V39.7844V39.759V39.7335V39.7081V39.6828V39.6575V39.6322V39.607V39.5818V39.5567V39.5316V39.5066V39.4816V39.4567V39.4318V39.407V39.3822V39.3574V39.3327V39.3081V39.2835V39.259V39.2345V39.21V39.1856V39.1613V39.137V39.1127V39.0885V39.0644V39.0402V39.0162V38.9922V38.9683V38.9444V38.9205V38.8967V38.873V38.8493V38.8257V38.8021V38.7785V38.7551V38.7316V38.7083V38.6849V38.6617V38.6385V38.6153V38.5922V38.5692V38.5462V38.5232V38.5004V38.4775V38.4548V38.432V38.4094V38.3868V38.3642V38.3417V38.3193V38.2969V38.2746V38.2523V38.2301V38.208V38.1859V38.1639V38.1419V38.12V38.0981V38.0763V38.0546V38.0329V38.0113V37.9897V37.9682V37.9468V37.9254V37.9041V37.8828V37.8616V37.8405V37.8194V37.7984V37.7774V37.7565V37.7357V37.7149V37.6942V37.6736V37.653V37.6325V37.612V37.5917V37.5713V37.5511V37.5309V37.5107V37.4907V37.4707V37.4507V37.4308V37.411V37.3913V37.3716V37.352V37.3325V37.313V37.2936V37.2742V37.2549V37.2357V37.2166V37.1975V37.1785V37.1595V37.1407V37.1218V37.1031V37.0844V37.0658V37.0473V37.0288V37.0104V36.9921V36.9739V36.9557V36.9376V36.9195V36.9015V36.8836V36.8658V36.848V36.8303V36.8127V36.7952V36.7777V36.7603V36.743V36.7257V36.7085V36.6914V36.6744V36.6574V36.6405V36.6237V36.6069V36.5903V36.5737V36.5572V36.5407V36.5243V36.508V36.4918V36.4757V36.4596V36.4436V36.4277V36.4118V36.3961V36.3804V36.3648V36.3492V36.3338V36.3184V36.3031V36.2879V36.2727V36.2576V36.2426V36.2277V36.2129V36.1982V36.1835V36.1689V36.1544V36.1399V36.1256V36.1113V36.0971V36.083V36.069V36.055V36.0411V36.0273V36.0136V36C17 35.4477 16.5523 35 16 35C15.4477 35 15 35.4477 15 36V36.0136V36.0273V36.0411V36.055V36.069V36.083V36.0971V36.1113V36.1256V36.1399V36.1544V36.1689V36.1835V36.1982V36.2129V36.2277V36.2426V36.2576V36.2727V36.2879V36.3031V36.3184V36.3338V36.3492V36.3648V36.3804V36.3961V36.4118V36.4277V36.4436V36.4596V36.4757V36.4918V36.508V36.5243V36.5407V36.5572V36.5737V36.5903V36.6069V36.6237V36.6405V36.6574V36.6744V36.6914V36.7085V36.7257V36.743V36.7603V36.7777V36.7952V36.8127V36.8303V36.848V36.8658V36.8836V36.9015V36.9195V36.9376V36.9557V36.9739V36.9921V37.0104V37.0288V37.0473V37.0658V37.0844V37.1031V37.1218V37.1407V37.1595V37.1785V37.1975V37.2166V37.2357V37.2549V37.2742V37.2936V37.313V37.3325V37.352V37.3716V37.3913V37.411V37.4308V37.4507V37.4707V37.4907V37.5107V37.5309V37.5511V37.5713V37.5917V37.612V37.6325V37.653V37.6736V37.6942V37.7149V37.7357V37.7565V37.7774V37.7984V37.8194V37.8405V37.8616V37.8828V37.9041V37.9254V37.9468V37.9682V37.9897V38.0113V38.0329V38.0546V38.0763V38.0981V38.12V38.1419V38.1639V38.1859V38.208V38.2301V38.2523V38.2746V38.2969V38.3193V38.3417V38.3642V38.3868V38.4094V38.432V38.4548V38.4775V38.5004V38.5232V38.5462V38.5692V38.5922V38.6153L15 38.6385V38.6617V38.6849V38.7083V38.7316V38.7551V38.7785V38.8021V38.8257V38.8493V38.873V38.8967V38.9205V38.9444V38.9683V38.9922V39.0162V39.0402V39.0644V39.0885V39.1127V39.137V39.1613V39.1856V39.21V39.2345V39.259V39.2835V39.3081V39.3327V39.3574V39.3822V39.407V39.4318V39.4567V39.4816V39.5066V39.5316V39.5567V39.5818V39.607V39.6322V39.6575V39.6828V39.7081V39.7335V39.759V39.7844V39.81V39.8355V39.8612V39.8868V39.9125V39.9383V39.9641V39.9899V40.0158V40.0417V40.0677V40.0937V40.1198V40.1459V40.172V40.1982V40.2244V40.2507V40.277V40.3033V40.3297V40.3561V40.3826V40.4091V40.4356V40.4622V40.4889V40.5155V40.5422V40.569V40.5958V40.6226V40.6494V40.6763V40.7033V40.7302V40.7573V40.7843V40.8114V40.8385V40.8657V40.8929V40.9201V40.9474V40.9747V41.002V41.0294V41.0568V41.0843V41.1118V41.1393V41.1668V41.1944V41.222V41.2497V41.2774V41.3051V41.3329V41.3607V41.3885V41.4163V41.4442V41.4722V41.5001V41.5281V41.5561V41.5842V41.6123V41.6404V41.6685V41.6967V41.7249V41.7531V41.7814V41.8097V41.838V41.8664V41.8948V41.9232V41.9516V41.9801V42.0086V42.0371V42.0657V42.0943V42.1229V42.1516V42.1802V42.2089V42.2377V42.2664V42.2952V42.324V42.3528V42.3817V42.4106V42.4395V42.4684V42.4974V42.5264V42.5554V42.5844V42.6135V42.6426V42.6717V42.7008V42.73V42.7592V42.7884V42.8176V42.8469V42.8761V42.9054V42.9347V42.9641V42.9935V43.0228V43.0522V43.0817V43.1111V43.1406V43.1701V43.1996V43.2291V43.2587V43.2883V43.3179V43.3475V43.3771V43.4068V43.4364V43.4661V43.4958V43.5256V43.5553V43.5851V43.6149V43.6447V43.6745V43.7043V43.7342V43.764V43.7939V43.8238V43.8537V43.8837V43.9136V43.9436V43.9736V44.0036V44.0336V44.0636V44.0936V44.1237V44.1538V44.1839V44.214V44.2441V44.2742V44.3043V44.3345V44.3647V44.3948V44.425V44.4552V44.4854V44.5157V44.5459V44.5762V44.6064V44.6367V44.667V44.6973V44.7276V44.7579V44.7882V44.8186V44.8489V44.8793V44.9096V44.94V44.9704V45.0008V45.0312V45.0616V45.092V45.1224V45.1529V45.1833V45.2137V45.2442V45.2747V45.3051V45.3356V45.3661V45.3966V45.4271V45.4576V45.4881V45.5186V45.5491V45.5796V45.6101V45.6407V45.6712V45.7018V45.7323V45.7628V45.7934V45.824V45.8545V45.8851V45.9156V45.9462V45.9768V46.0073V46.0379V46.0685V46.0991V46.1296V46.1602V46.1908V46.2214V46.252V46.2826V46.3131V46.3437V46.3743V46.4049V46.4355V46.466V46.4966V46.5272V46.5578V46.5884V46.6189V46.6495V46.6801V46.7107V46.7412V46.7718V46.8023V46.8329V46.8635V46.894V46.9246V46.9551V46.9856V47.0162V47.0467V47.0772V47.1077V47.1383V47.1688V47.1993V47.2298V47.2603V47.2908V47.3212V47.3517V47.3822V47.4127V47.4431V47.4736V47.504V47.5344V47.5649V47.5953V47.6257V47.6561V47.6865V47.7169V47.7472V47.7776V47.8079V47.8383V47.8686V47.899V47.9293V47.9596V47.9899V48.0201V48.0504V48.0807V48.1109V48.1412V48.1714V48.2016V48.2318V48.262V48.2922V48.3223V48.3525V48.3826V48.4128V48.4429V48.473V48.5031V48.5331V48.5632V48.5932V48.6233V48.6533V48.6833V48.7132V48.7432V48.7732V48.8031V48.833V48.8629V48.8928V48.9227V48.9525V48.9823V49.0122V49.042V49.0717V49.1015V49.1312V49.161V49.1907V49.2204V49.25V49.2797C15 52.0891 16.061 53.8927 17.5376 54.9219C18.9309 55.8931 20.5637 56.0836 21.6781 55.971L25.5 55.971C26.0523 55.971 26.5 55.5233 26.5 54.971C26.5 54.4187 26.0523 53.971 25.5 53.971L21.625 53.971H21.569L21.5133 53.9772Z" fill="url(#paint0_linear_1_944)"/>
<defs>
<linearGradient id="paint0_linear_1_944" x1="9.90707" y1="7.99554" x2="53.8809" y2="51.585" gradientUnits="userSpaceOnUse">
<stop stop-color="#FE5B52"/>
<stop offset="1" stop-color="#3E96F4"/>
</linearGradient>
</defs>
</svg>
