<svg width="62" height="62" viewBox="0 0 62 62" fill="none" xmlns="http://www.w3.org/2000/svg">
<rect width="62" height="62" rx="12" fill="white"/>
<path d="M29.125 27.3438C30.1605 27.3438 31 26.5043 31 25.4688V21.25H32.875C33.9105 21.25 34.75 20.4106 34.75 19.375V8.87504C34.7499 7.81685 33.8731 6.96334 32.8064 7.00121C31.7905 7.03741 31 7.9035 31 8.92016V10.375H29.125C28.0895 10.375 27.2501 11.2145 27.25 12.25C27.25 13.2856 28.0894 14.125 29.125 14.125H31V17.5H29.125C28.0895 17.5 27.2501 18.3395 27.25 19.375V25.4688C27.25 26.5043 28.0894 27.3438 29.125 27.3438Z" fill="#31393C"/>
<path d="M15.4375 17.3125C16.4731 17.3125 17.3125 16.4731 17.3125 15.4375C17.3124 14.402 16.473 13.5625 15.4375 13.5625C14.402 13.5625 13.5626 14.402 13.5625 15.4375C13.5625 16.4731 14.4019 17.3125 15.4375 17.3125Z" fill="#31393C"/>
<path fill-rule="evenodd" clip-rule="evenodd" d="M18.25 23.8C21.3152 23.8 23.8 21.3151 23.8 18.25V12.625C23.7999 9.56 21.3152 7.07506 18.25 7.07504H12.625C9.55979 7.07504 7.07507 9.55999 7.075 12.625V18.25C7.075 21.3151 9.55974 23.8 12.625 23.8H18.25ZM12.625 20.2C11.548 20.2 10.675 19.327 10.675 18.25V12.625C10.6751 11.5482 11.5481 10.675 12.625 10.675H18.25C19.3269 10.6751 20.1999 11.5482 20.2 12.625V18.25C20.2 19.327 19.327 20.2 18.25 20.2H12.625Z" fill="#31393C"/>
<path d="M46.5625 17.3125C47.5981 17.3125 48.4375 16.4731 48.4375 15.4375C48.4374 14.402 47.598 13.5625 46.5625 13.5625C45.527 13.5625 44.6876 14.402 44.6875 15.4375C44.6875 16.4731 45.5269 17.3125 46.5625 17.3125Z" fill="#31393C"/>
<path fill-rule="evenodd" clip-rule="evenodd" d="M49.375 23.8C52.4403 23.8 54.925 21.3151 54.925 18.25V12.625C54.9249 9.56 52.4402 7.07506 49.375 7.07504H43.75C40.6848 7.07504 38.2001 9.55999 38.2 12.625V18.25C38.2 21.3151 40.6847 23.8 43.75 23.8H49.375ZM43.75 20.2C42.673 20.2 41.8 19.327 41.8 18.25V12.625C41.8001 11.5482 42.6731 10.675 43.75 10.675H49.375C50.4519 10.6751 51.3249 11.5482 51.325 12.625V18.25C51.325 19.327 50.452 20.2 49.375 20.2H43.75Z" fill="#31393C"/>
<path d="M8.875 34.6563C9.91056 34.6563 10.75 33.8168 10.75 32.7813V30.9063H12.7188C13.7543 30.9063 14.5938 30.0668 14.5938 29.0313C14.5937 27.9958 13.7543 27.1563 12.7188 27.1563H8.875C7.83947 27.1563 7.00005 27.9958 7 29.0313V32.7813C7 33.8168 7.83944 34.6563 8.875 34.6563Z" fill="#31393C"/>
<path d="M43.4939 38.4051C44.5606 38.443 45.4375 37.5895 45.4375 36.5313V34.6563H47.4062C48.4418 34.6562 49.2812 33.8168 49.2812 32.7813C49.2812 31.7458 48.4418 30.9063 47.4062 30.9063H45.4375V29.0313C45.4375 27.9958 44.598 27.1563 43.5625 27.1563H36.625C35.5895 27.1563 34.75 27.9957 34.75 29.0313C34.75 30.0668 35.5894 30.9063 36.625 30.9063H41.6875V36.4861C41.6875 37.5028 42.4781 38.3689 43.4939 38.4051Z" fill="#31393C"/>
<path d="M53.125 30.9063C54.1606 30.9063 55 30.0668 55 29.0313C55 27.9958 54.1605 27.1563 53.125 27.1563C52.0895 27.1563 51.25 27.9958 51.25 29.0313C51.25 30.0668 52.0894 30.9063 53.125 30.9063Z" fill="#31393C"/>
<path d="M29.125 38.125C30.1605 38.125 31 37.2856 31 36.25V32.7813C31 31.7457 30.1605 30.9063 29.125 30.9063H22.375V29.0764C22.375 28.0597 21.5844 27.1937 20.5686 27.1574C19.5019 27.1196 18.625 27.9731 18.625 29.0313V30.9063H17.6875C16.652 30.9063 15.8125 31.7457 15.8125 32.7813C15.8125 33.8168 16.6519 34.6563 17.6875 34.6563H27.25V36.25C27.25 37.2856 28.0894 38.125 29.125 38.125Z" fill="#31393C"/>
<path d="M36.625 43.75C37.6606 43.75 38.5 42.9106 38.5 41.875V36.5313C38.5 35.4957 37.6605 34.6563 36.625 34.6563C35.5895 34.6563 34.75 35.4957 34.75 36.5313V40H33.8125C32.777 40 31.9375 40.8395 31.9375 41.875C31.9375 42.9106 32.7769 43.75 33.8125 43.75H36.625Z" fill="#31393C"/>
<path d="M53.125 43.75C54.1606 43.75 55 42.9106 55 41.875V36.5313C55 35.4957 54.1605 34.6563 53.125 34.6563C52.0895 34.6563 51.25 35.4957 51.25 36.5313V40H47.875C46.8395 40 46 40.8395 46 41.875C46 42.9106 46.8394 43.75 47.875 43.75H53.125Z" fill="#31393C"/>
<path d="M15.4375 48.4375C16.4731 48.4375 17.3125 47.5981 17.3125 46.5625C17.3125 45.527 16.473 44.6875 15.4375 44.6875C14.402 44.6875 13.5625 45.527 13.5625 46.5625C13.5625 47.5981 14.4019 48.4375 15.4375 48.4375Z" fill="#31393C"/>
<path fill-rule="evenodd" clip-rule="evenodd" d="M18.25 54.925C21.3152 54.925 23.8 52.4401 23.8 49.375V43.75C23.8 40.6849 21.3152 38.2 18.25 38.2H12.625C9.55975 38.2 7.07501 40.6849 7.075 43.75V49.375C7.075 52.4401 9.55974 54.925 12.625 54.925H18.25ZM12.625 51.325C11.548 51.325 10.675 50.4519 10.675 49.375V43.75C10.675 42.6731 11.548 41.8 12.625 41.8H18.25C19.327 41.8 20.2 42.6731 20.2 43.75V49.375C20.2 50.4519 19.327 51.325 18.25 51.325H12.625Z" fill="#31393C"/>
<path d="M36.625 55C37.6605 55 38.5 54.1606 38.5 53.125C38.5 52.0896 37.6605 51.25 36.625 51.25H34.75V49.375C34.75 48.3395 33.9105 47.5 32.875 47.5H31V45.625C31 44.5895 30.1605 43.75 29.125 43.75C28.0895 43.75 27.25 44.5895 27.25 45.625V49.375C27.25 50.4106 28.0894 51.25 29.125 51.25H31V53.125C31 54.1606 31.8394 55 32.875 55H36.625Z" fill="#31393C"/>
<path d="M42.25 49.375C43.2856 49.375 44.125 48.5356 44.125 47.5C44.125 46.4645 43.2856 45.625 42.25 45.625H41.3125C40.2769 45.625 39.4375 46.4645 39.4375 47.5C39.4375 48.5356 40.2769 49.375 41.3125 49.375H42.25Z" fill="#31393C"/>
<path d="M53.125 55C54.1605 55 55 54.1605 55 53.125C55 52.0896 54.1605 51.25 53.125 51.25H51.625V49.375C51.625 48.3396 50.7855 47.5 49.75 47.5C48.7144 47.5 47.875 48.3395 47.875 49.375V51.25H44.125C43.0894 51.25 42.25 52.0895 42.25 53.125C42.25 54.1606 43.0894 55 44.125 55H53.125Z" fill="#31393C"/>
</svg>
