<svg width="72" height="60" viewBox="0 0 72 60" fill="none" xmlns="http://www.w3.org/2000/svg">
<path fill-rule="evenodd" clip-rule="evenodd" d="M67.5 0H4.03846C2.96776 0.00118346 1.94125 0.427043 1.18415 1.18414C0.427043 1.94125 0.00118346 2.96776 0 4.03846V46.7308C0.00118346 47.8015 0.427043 48.828 1.18415 49.5851C1.94125 50.3422 2.96776 50.768 4.03846 50.7692H27.4385L26.7462 54.2308H21.9231C21.6171 54.2308 21.3236 54.3523 21.1072 54.5687C20.8908 54.7851 20.7692 55.0786 20.7692 55.3846V58.8462C20.7692 59.1522 20.8908 59.4457 21.1072 59.662C21.3236 59.8784 21.6171 60 21.9231 60H49.6154C49.9214 60 50.2149 59.8784 50.4313 59.662C50.6477 59.4457 50.7692 59.1522 50.7692 58.8462V55.3846C50.7692 55.0786 50.6477 54.7851 50.4313 54.5687C50.2149 54.3523 49.9214 54.2308 49.6154 54.2308H44.7923L44.1 50.7692H67.5C68.5707 50.768 69.5972 50.3422 70.3543 49.5851C71.1114 48.828 71.5373 47.8015 71.5385 46.7308V4.03846C71.5373 2.96776 71.1114 1.94125 70.3543 1.18414C69.5972 0.427043 68.5707 0.00118346 67.5 0ZM48.4615 56.5385V57.6923H23.0769V56.5385H48.4615ZM29.1 54.2308L29.7923 50.7692H41.7462L42.4385 54.2308H29.1ZM69.2308 46.7308C69.2304 47.1897 69.0479 47.6297 68.7234 47.9542C68.3989 48.2787 67.9589 48.4612 67.5 48.4615H4.03846C3.57955 48.4612 3.13954 48.2787 2.81504 47.9542C2.49055 47.6297 2.30807 47.1897 2.30769 46.7308V43.8462H69.2308V46.7308ZM69.2308 41.5385H2.30769V4.03846C2.30807 3.57955 2.49055 3.13954 2.81504 2.81505C3.13954 2.49055 3.57955 2.30807 4.03846 2.30769H67.5C67.9589 2.30807 68.3989 2.49055 68.7234 2.81505C69.0479 3.13954 69.2304 3.57955 69.2308 4.03846V41.5385ZM6.83311 5.33655H29.5559C29.6851 5.33655 29.8089 5.38785 29.9002 5.47916C29.9916 5.57048 30.0429 5.69433 30.0429 5.82347V7.44653C30.0425 7.83384 29.8885 8.20518 29.6146 8.47905C29.3408 8.75292 28.9694 8.90694 28.5821 8.90728H27.7706V13.6142C27.7699 14.0874 27.5816 14.5412 27.2469 14.8758C26.9122 15.2105 26.4585 15.3988 25.9852 15.3995H23.226V18.8079C23.226 18.9137 23.1915 19.0167 23.1278 19.1011C23.0641 19.1856 22.9746 19.247 22.8728 19.276C22.3457 19.4262 21.8142 19.5507 21.2783 19.6493V22.3657C21.278 22.753 21.124 23.1243 20.8501 23.3982C20.5762 23.6721 20.2049 23.8261 19.8176 23.8264H19.6553V28.0269C19.6553 28.4143 19.5014 28.7859 19.2274 29.0598C18.9535 29.3338 18.5819 29.4877 18.1945 29.4877C17.8071 29.4877 17.4356 29.3338 17.1616 29.0598C16.8877 28.7859 16.7338 28.4143 16.7338 28.0269V23.8264H16.5715C16.1842 23.8261 15.8128 23.6721 15.5389 23.3982C15.2651 23.1243 15.1111 22.753 15.1107 22.3657V19.6493C14.5749 19.5511 14.0434 19.4267 13.5162 19.276C13.4145 19.247 13.325 19.1856 13.2613 19.1011C13.1975 19.0167 13.1631 18.9137 13.163 18.8079V15.3995H10.4038C9.93054 15.3988 9.47683 15.2105 9.14215 14.8758C8.80748 14.5412 8.61916 14.0874 8.61847 13.6142V8.90728H7.80694C7.41963 8.90694 7.04829 8.75292 6.77442 8.47905C6.50055 8.20518 6.34654 7.83384 6.34619 7.44653V5.82347C6.34619 5.69433 6.39749 5.57048 6.48881 5.47916C6.58012 5.38785 6.70397 5.33655 6.83311 5.33655ZM18.5388 28.3712C18.6301 28.2799 18.6814 28.1561 18.6814 28.0269V23.8264H17.7076V28.0269C17.7076 28.1561 17.7589 28.2799 17.8502 28.3712C17.9415 28.4625 18.0654 28.5138 18.1945 28.5138C18.3237 28.5138 18.4475 28.4625 18.5388 28.3712ZM20.1619 22.71C20.2532 22.6187 20.3045 22.4948 20.3045 22.3657V19.8C19.6045 19.887 18.8999 19.9303 18.1945 19.9298C17.4892 19.9303 16.7845 19.887 16.0845 19.8V22.3657C16.0845 22.4948 16.1358 22.6187 16.2272 22.71C16.3185 22.8013 16.4423 22.8526 16.5715 22.8526H19.8176C19.9467 22.8526 20.0706 22.8013 20.1619 22.71ZM14.1369 17.4926V18.4366C16.7973 19.1319 19.5918 19.1319 22.2522 18.4366V17.4926C20.9243 17.8191 19.5619 17.9841 18.1945 17.9841C16.8271 17.9841 15.4647 17.8191 14.1369 17.4926ZM14.1369 16.4889C16.7973 17.1842 19.5918 17.1842 22.2522 16.4889V15.3995H14.1369V16.4889ZM26.5584 14.1878C26.7105 14.0359 26.7962 13.8298 26.7967 13.6148V8.90728H9.59231V13.6142C9.59265 13.8293 9.67826 14.0355 9.83038 14.1876C9.9825 14.3397 10.1887 14.4253 10.4038 14.4257H25.9852C26.2002 14.4253 26.4063 14.3398 26.5584 14.1878ZM28.9262 7.79106C29.0175 7.69988 29.0688 7.5762 29.069 7.44718V6.31038H7.32003V7.44653C7.32003 7.57566 7.37133 7.69951 7.46264 7.79083C7.55396 7.88214 7.67781 7.93344 7.80694 7.93344H28.5821C28.7111 7.93344 28.8349 7.88223 28.9262 7.79106ZM28.4198 35.6553H29.5559C29.6851 35.6553 29.8089 35.7066 29.9002 35.7979C29.9916 35.8892 30.0429 36.0131 30.0429 36.1422V37.1161C30.0425 37.5034 29.8885 37.8747 29.6146 38.1486C29.3408 38.4224 28.9694 38.5765 28.5821 38.5768H7.80694C7.41963 38.5765 7.04829 38.4224 6.77442 38.1486C6.50055 37.8747 6.34654 37.5034 6.34619 37.1161V36.1422C6.34619 36.0131 6.39749 35.8892 6.48881 35.7979C6.58012 35.7066 6.70397 35.6553 6.83311 35.6553H7.96925V31.5976C7.96925 31.4685 8.02055 31.3447 8.11187 31.2533C8.20318 31.162 8.32703 31.1107 8.45617 31.1107H15.7093C15.9438 31.1101 16.176 31.156 16.3927 31.2457C16.6093 31.3354 16.806 31.4671 16.9714 31.6334L18.1945 32.8565L19.4177 31.6334C19.583 31.4671 19.7797 31.3354 19.9964 31.2457C20.213 31.156 20.4453 31.1101 20.6798 31.1107H27.9329C28.062 31.1107 28.1859 31.162 28.2772 31.2533C28.3685 31.3447 28.4198 31.4685 28.4198 31.5976V35.6553ZM15.7093 32.0846H8.94309V35.6553H27.446V32.0846H20.6798C20.5732 32.0843 20.4677 32.1052 20.3693 32.146C20.2709 32.1868 20.1816 32.2466 20.1065 32.3222L18.5386 33.8894C18.4934 33.9346 18.4398 33.9705 18.3808 33.995C18.3217 34.0195 18.2584 34.0321 18.1945 34.0321C18.1306 34.0321 18.0673 34.0195 18.0083 33.995C17.9492 33.9705 17.8956 33.9346 17.8504 33.8894L16.2826 32.3222C16.2075 32.2466 16.1181 32.1868 16.0197 32.146C15.9213 32.1052 15.8158 32.0843 15.7093 32.0846ZM28.9264 37.4604C29.0177 37.369 29.069 37.2452 29.069 37.1161V36.6291H7.32003V37.1161C7.32003 37.2452 7.37133 37.369 7.46264 37.4604C7.55396 37.5517 7.67781 37.603 7.80694 37.603H28.5821C28.7112 37.603 28.8351 37.5517 28.9264 37.4604ZM13.6499 13.1272H12.3514C12.0502 13.1269 11.7614 13.007 11.5484 12.794C11.3355 12.5811 11.2156 12.2923 11.2153 11.9911V11.3418C11.2156 11.0406 11.3355 10.7518 11.5484 10.5388C11.7614 10.3258 12.0502 10.206 12.3514 10.2057H13.6499C13.9511 10.206 14.2399 10.3258 14.4529 10.5388C14.6659 10.7518 14.7857 11.0406 14.786 11.3418V11.9911C14.7857 12.2923 14.6659 12.5811 14.4529 12.794C14.2399 13.007 13.9511 13.1269 13.6499 13.1272ZM12.2367 11.2271C12.2062 11.2575 12.1891 11.2988 12.1891 11.3418V11.9911C12.1891 12.0341 12.2062 12.0754 12.2367 12.1058C12.2671 12.1363 12.3084 12.1534 12.3514 12.1534H13.6499C13.6929 12.1534 13.7342 12.1363 13.7647 12.1058C13.7951 12.0754 13.8122 12.0341 13.8122 11.9911V11.3418C13.8122 11.2988 13.7951 11.2575 13.7647 11.2271C13.7342 11.1966 13.6929 11.1795 13.6499 11.1795H12.3514C12.3084 11.1795 12.2671 11.1966 12.2367 11.2271ZM18.8437 13.1272H17.5452C17.244 13.1269 16.9552 13.007 16.7422 12.794C16.5292 12.5811 16.4094 12.2923 16.4091 11.9911V11.3418C16.4094 11.0406 16.5292 10.7518 16.7422 10.5388C16.9552 10.3258 17.244 10.206 17.5452 10.2057H18.8437C19.1449 10.206 19.4337 10.3258 19.6467 10.5388C19.8597 10.7518 19.9795 11.0406 19.9798 11.3418V11.9911C19.9795 12.2923 19.8597 12.5811 19.6467 12.794C19.4337 13.007 19.1449 13.1269 18.8437 13.1272ZM17.4305 11.2271C17.4 11.2575 17.3829 11.2988 17.3829 11.3418V11.9911C17.3829 12.0341 17.4 12.0754 17.4305 12.1058C17.4609 12.1363 17.5022 12.1534 17.5452 12.1534H18.8437C18.8867 12.1534 18.928 12.1363 18.9584 12.1058C18.9889 12.0754 19.006 12.0341 19.006 11.9911V11.3418C19.006 11.2988 18.9889 11.2575 18.9584 11.2271C18.928 11.1966 18.8867 11.1795 18.8437 11.1795H17.5452C17.5022 11.1795 17.4609 11.1966 17.4305 11.2271ZM24.0375 13.1272H22.739C22.4378 13.1269 22.149 13.007 21.936 12.794C21.723 12.5811 21.6032 12.2923 21.6029 11.9911V11.3418C21.6032 11.0406 21.723 10.7518 21.936 10.5388C22.149 10.3258 22.4378 10.206 22.739 10.2057H24.0375C24.3387 10.206 24.6275 10.3258 24.8405 10.5388C25.0535 10.7518 25.1733 11.0406 25.1736 11.3418V11.9911C25.1733 12.2923 25.0535 12.5811 24.8405 12.794C24.6275 13.007 24.3387 13.1269 24.0375 13.1272ZM22.6243 11.2271C22.5938 11.2575 22.5767 11.2988 22.5767 11.3418V11.9911C22.5767 12.0341 22.5938 12.0754 22.6243 12.1058C22.6547 12.1363 22.696 12.1534 22.739 12.1534H24.0375C24.0805 12.1534 24.1218 12.1363 24.1522 12.1058C24.1827 12.0754 24.1998 12.0341 24.1998 11.9911V11.3418C24.1998 11.2988 24.1827 11.2575 24.1522 11.2271C24.1218 11.1966 24.0805 11.1795 24.0375 11.1795H22.739C22.696 11.1795 22.6547 11.1966 22.6243 11.2271ZM23.8918 24.556C23.9527 24.5753 24.0093 24.6065 24.0582 24.6477C24.1566 24.7309 24.218 24.8496 24.229 24.978C24.2401 25.1063 24.1999 25.2338 24.1173 25.3326L21.9957 27.8535C21.9544 27.9025 21.904 27.9428 21.8472 27.9723C21.7904 28.0017 21.7283 28.0196 21.6646 28.0251C21.6008 28.0306 21.5366 28.0234 21.4756 28.0041C21.4146 27.9847 21.358 27.9535 21.3091 27.9123C21.2602 27.8711 21.2198 27.8206 21.1904 27.7638C21.161 27.707 21.143 27.6449 21.1375 27.5812C21.1321 27.5174 21.1392 27.4532 21.1586 27.3922C21.1779 27.3313 21.2091 27.2747 21.2504 27.2257L23.372 24.7067C23.4132 24.6578 23.4636 24.6174 23.5204 24.588C23.5771 24.5585 23.6392 24.5405 23.7029 24.535C23.7666 24.5296 23.8308 24.5367 23.8918 24.556ZM22.0636 28.9232C21.9769 28.8522 21.9173 28.7535 21.895 28.6436C21.8821 28.5812 21.8816 28.5168 21.8936 28.4542C21.9056 28.3915 21.9297 28.3319 21.9648 28.2786C21.9998 28.2253 22.045 28.1794 22.0977 28.1436C22.1505 28.1077 22.2098 28.0826 22.2722 28.0697L25.0568 27.4893C25.1832 27.463 25.315 27.488 25.423 27.5588C25.5311 27.6296 25.6066 27.7404 25.6329 27.8668C25.6593 27.9933 25.6343 28.1251 25.5635 28.2331C25.4927 28.3412 25.3819 28.4167 25.2554 28.443L22.4709 29.0228C22.438 29.0297 22.4045 29.0332 22.3709 29.0332C22.2589 29.033 22.1503 28.9942 22.0636 28.9232ZM15.0281 27.95C14.95 27.9999 14.8593 28.0266 14.7666 28.0269C14.6954 28.0268 14.625 28.0111 14.5605 27.9809C14.496 27.9508 14.4389 27.9068 14.3932 27.8522L12.2716 25.3326C12.1939 25.2332 12.1579 25.1075 12.171 24.982C12.1842 24.8565 12.2455 24.7411 12.3422 24.6599C12.4388 24.5788 12.5631 24.5383 12.689 24.5471C12.8148 24.5558 12.9324 24.6131 13.0169 24.7067L15.1386 27.2257C15.1982 27.2967 15.2363 27.3833 15.2485 27.4752C15.2607 27.5671 15.2465 27.6606 15.2074 27.7447C15.1684 27.8287 15.1062 27.9 15.0281 27.95ZM10.757 28.0547C10.7451 27.9918 10.7458 27.9272 10.7589 27.8646C10.7853 27.7382 10.8608 27.6275 10.9687 27.5568C11.0767 27.486 11.2084 27.4611 11.3348 27.4874L14.1193 28.0678C14.237 28.0925 14.3415 28.1599 14.4124 28.2571C14.4834 28.3542 14.5159 28.4742 14.5036 28.5939C14.4914 28.7136 14.4352 28.8245 14.346 28.9053C14.2568 28.986 14.1409 29.0309 14.0206 29.0312C13.987 29.0313 13.9535 29.0278 13.9206 29.0208L11.1361 28.4411C11.0735 28.428 11.014 28.4028 10.9611 28.3667C10.9083 28.3307 10.863 28.2845 10.828 28.231C10.793 28.1775 10.7688 28.1175 10.757 28.0547ZM10.4038 33.7076H11.7022C11.8314 33.7076 11.9552 33.7589 12.0465 33.8502C12.1378 33.9415 12.1891 34.0654 12.1891 34.1945C12.1891 34.3236 12.1378 34.4475 12.0465 34.5388C11.9552 34.6301 11.8314 34.6814 11.7022 34.6814H10.4038C10.2746 34.6814 10.1508 34.6301 10.0595 34.5388C9.96815 34.4475 9.91685 34.3236 9.91685 34.1945C9.91685 34.0654 9.96815 33.9415 10.0595 33.8502C10.1508 33.7589 10.2746 33.7076 10.4038 33.7076ZM24.6867 33.7076H25.9851C26.1143 33.7076 26.2381 33.7589 26.3294 33.8502C26.4208 33.9415 26.4721 34.0654 26.4721 34.1945C26.4721 34.3236 26.4208 34.4475 26.3294 34.5388C26.2381 34.6301 26.1143 34.6814 25.9851 34.6814H24.6867C24.5576 34.6814 24.4337 34.6301 24.3424 34.5388C24.2511 34.4475 24.1998 34.3236 24.1998 34.1945C24.1998 34.0654 24.2511 33.9415 24.3424 33.8502C24.4337 33.7589 24.5576 33.7076 24.6867 33.7076ZM17.3632 21.7361C17.2719 21.6448 17.2206 21.521 17.2206 21.3918C17.2206 21.2627 17.2719 21.1388 17.3632 21.0475C17.4545 20.9562 17.5784 20.9049 17.7075 20.9049H18.6814C18.8105 20.9049 18.9344 20.9562 19.0257 21.0475C19.117 21.1388 19.1683 21.2627 19.1683 21.3918C19.1683 21.521 19.117 21.6448 19.0257 21.7361C18.9344 21.8274 18.8105 21.8787 18.6814 21.8787H17.7075C17.5784 21.8787 17.4545 21.8274 17.3632 21.7361ZM34.6154 45H36.9231C37.2291 45 37.5226 45.1216 37.739 45.338C37.9554 45.5543 38.0769 45.8478 38.0769 46.1538C38.0769 46.4599 37.9554 46.7534 37.739 46.9697C37.5226 47.1861 37.2291 47.3077 36.9231 47.3077H34.6154C34.3094 47.3077 34.0159 47.1861 33.7995 46.9697C33.5831 46.7534 33.4615 46.4599 33.4615 46.1538C33.4615 45.8478 33.5831 45.5543 33.7995 45.338C34.0159 45.1216 34.3094 45 34.6154 45ZM53.1102 18.1003C52.7603 18.1003 52.4763 18.3843 52.4763 18.7342C52.4763 19.084 52.7603 19.368 53.1102 19.368C53.46 19.368 53.744 19.084 53.744 18.7342C53.744 18.3843 53.46 18.1003 53.1102 18.1003ZM56.7103 25.7215L65.1706 34.1818C65.6495 34.6604 65.9133 35.297 65.9133 35.9744C65.9133 36.6517 65.6495 37.2883 65.1704 37.7671C64.6916 38.2459 64.055 38.5097 63.378 38.5097C62.701 38.5097 62.0645 38.2459 61.5855 37.7669L55.4647 31.6461L55.4637 31.6451L53.1252 29.3066C51.0492 30.6848 48.6451 31.4108 46.138 31.4108C39.1481 31.4108 33.4614 25.7241 33.4614 18.7343C33.4614 11.7444 39.1481 6.05774 46.138 6.05774C53.1278 6.05774 58.8145 11.7444 58.8145 18.7343C58.8145 21.2414 58.0885 23.6455 56.7103 25.7215ZM52.827 27.971L52.8271 27.9708C53.8052 27.2612 54.665 26.4015 55.3746 25.4234C56.7957 23.4669 57.5468 21.1539 57.5468 18.7343C57.5468 12.4434 52.4288 7.32539 46.138 7.32539C39.8471 7.32539 34.7291 12.4434 34.7291 18.7343C34.7291 25.0251 39.8471 30.1432 46.138 30.1432C48.5576 30.1432 50.8706 29.392 52.827 27.971ZM55.9492 26.7532C55.4129 27.4088 54.8125 28.0092 54.1569 28.5455L55.9551 30.3437C56.6008 29.7966 57.2003 29.1971 57.7474 28.5514L55.9492 26.7532ZM63.378 37.242C63.7164 37.242 64.0346 37.1101 64.2742 36.8705C64.3923 36.7532 64.486 36.6135 64.5498 36.4597C64.6135 36.3058 64.6461 36.1409 64.6457 35.9744C64.6462 35.8079 64.6136 35.643 64.5498 35.4892C64.4861 35.3354 64.3924 35.1958 64.2743 35.0784L58.6461 29.4502C58.0951 30.0923 57.4959 30.6914 56.8538 31.2425L62.4819 36.8705C62.7215 37.1101 63.0397 37.242 63.378 37.242ZM46.1381 8.59302C40.5461 8.59302 35.9968 13.1423 35.9968 18.7342C35.9968 24.3262 40.5461 28.8755 46.1381 28.8755C51.73 28.8755 56.2793 24.3262 56.2793 18.7342C56.2793 13.1423 51.73 8.59302 46.1381 8.59302ZM46.1381 27.6078C41.2452 27.6078 37.2645 23.6271 37.2645 18.7342C37.2645 13.8414 41.2452 9.86067 46.1381 9.86067C51.031 9.86067 55.0116 13.8414 55.0116 18.7342C55.0116 23.6271 51.031 27.6078 46.1381 27.6078ZM50.4928 12.5012C51.745 13.3783 52.6953 14.5929 53.241 16.0134C53.3666 16.3402 53.2035 16.7069 52.8767 16.8324C52.8042 16.8604 52.7272 16.8747 52.6496 16.8748C52.5214 16.8747 52.3962 16.8359 52.2905 16.7633C52.1849 16.6907 52.1037 16.5878 52.0578 16.4681C51.1219 14.0324 48.743 12.3959 46.1381 12.3959C45.7881 12.3959 45.5042 12.1121 45.5042 11.7621C45.5042 11.4121 45.7881 11.1283 46.1381 11.1283C47.705 11.1283 49.2108 11.603 50.4928 12.5012Z" fill="url(#paint0_linear_254_447)"/>
<defs>
<linearGradient id="paint0_linear_254_447" x1="4.17308" y1="5.14054" x2="62.1742" y2="68.2383" gradientUnits="userSpaceOnUse">
<stop stop-color="#3D96F5"/>
<stop offset="1" stop-color="#31393C"/>
</linearGradient>
</defs>
</svg>
