<svg width="64" height="64" viewBox="0 0 64 64" fill="none" xmlns="http://www.w3.org/2000/svg">
<path d="M0 8C0 3.58172 3.58172 0 8 0H56C60.4183 0 64 3.58172 64 8V56C64 60.4183 60.4183 64 56 64H8C3.58172 64 0 60.4183 0 56V8Z" fill="white"/>
<path d="M19.2334 37.737C19.7038 37.737 20.0889 38.1222 20.0889 38.5925V47.1443C20.0889 47.6147 19.7038 47.9997 19.2334 47.9997H16.668C16.1977 47.9996 15.8135 47.6146 15.8135 47.1443V38.5925C15.8136 38.1222 16.1977 37.7372 16.668 37.737H19.2334Z" fill="#3E96F4"/>
<path d="M45.2598 35.5691C45.8793 35.2201 46.6436 35.3623 47.0957 35.9109L47.1641 35.9929C47.3986 36.2769 47.5159 36.64 47.4932 37.0076C47.4704 37.3751 47.3087 37.7205 47.041 37.9734C44.7347 40.1584 41.5366 42.8815 38.9141 44.5818C37.1162 45.7474 34.8146 47.1362 32.6406 47.3132C30.916 47.4537 29.2087 46.822 27.4814 46.573C25.44 46.2788 23.2979 46.243 21.1729 46.2566C21.164 46.2567 21.1547 46.255 21.1465 46.2517C21.1384 46.2483 21.1312 46.2432 21.125 46.237C21.1188 46.2308 21.1137 46.2237 21.1104 46.2156C21.1069 46.2073 21.1045 46.1981 21.1045 46.1892V38.739C21.1045 38.7075 21.1257 38.6801 21.1562 38.6726C21.5599 38.5748 21.9624 38.4742 22.3633 38.365C24.4326 37.8009 25.8726 36.1446 28.165 36.8357L33.375 38.406C35.1651 38.9458 34.2703 40.4091 33.459 40.8445C33.201 40.9829 32.8806 41.0261 32.5596 40.9587C31.308 40.6957 29.6636 40.2234 28.4883 40.2576C28.2644 40.2641 28.0453 40.2833 27.8301 40.3142C27.6981 40.3344 27.5787 40.4052 27.499 40.5124C27.4194 40.6196 27.3855 40.7542 27.4043 40.8865C27.4231 41.0185 27.4934 41.1378 27.5996 41.2185C27.706 41.2992 27.8402 41.3346 27.9727 41.3171C28.3416 41.2644 28.6845 41.2512 29.0479 41.2859C29.9439 41.3712 31.3391 41.7368 32.3525 41.9499C32.9081 42.0667 33.4739 41.9869 33.9395 41.737C35.5084 40.8949 33.7101 40.9402 36.5381 39.9949C38.7473 39.2564 42.288 37.2431 45.2598 35.5691Z" fill="#3E96F4"/>
<path d="M38.4131 16.5095C38.4131 16.0919 38.943 15.7732 39.3301 16.2078L48.3896 26.4294C48.4718 26.5223 48.517 26.6423 48.5166 26.7663C48.5161 26.8903 48.4704 27.01 48.3877 27.1023L39.2998 37.3542C38.9907 37.7033 38.4152 37.4813 38.415 37.0193H38.4131V33.866C38.4131 33.8286 38.383 33.7986 38.3457 33.7986H36.1279C35.9932 33.7986 35.8638 33.7444 35.7686 33.6492C35.6734 33.5539 35.6201 33.4244 35.6201 33.2898C35.6202 33.1553 35.6735 33.0265 35.7686 32.9314C35.8638 32.8361 35.9932 32.782 36.1279 32.782H38.9209C38.9875 32.782 39.0537 32.7956 39.1152 32.821C39.1769 32.8466 39.2331 32.8842 39.2803 32.9314C39.3273 32.9785 39.3651 33.034 39.3906 33.0954C39.4161 33.1569 39.4296 33.2232 39.4297 33.2898V35.5046C39.4297 35.5669 39.5065 35.5962 39.5479 35.5495L47.2949 26.8093C47.3059 26.797 47.3125 26.7809 47.3125 26.7644C47.3125 26.7478 47.3059 26.7318 47.2949 26.7195L39.5479 17.9783C39.5066 17.9317 39.4299 17.9611 39.4297 18.0232V20.238C39.4297 20.3727 39.3755 20.5022 39.2803 20.5974C39.185 20.6926 39.0556 20.7458 38.9209 20.7458H36.1279C35.9943 20.7442 35.8664 20.6905 35.7725 20.5954C35.6786 20.5004 35.626 20.3716 35.626 20.238C35.6261 20.1046 35.6787 19.9766 35.7725 19.8816C35.8664 19.7865 35.9943 19.7319 36.1279 19.7302H38.3457C38.3636 19.7302 38.3809 19.7233 38.3936 19.7107C38.4062 19.698 38.413 19.6807 38.4131 19.6628V16.5095Z" fill="#3E96F4"/>
<path d="M36.2168 23.1648C36.2271 23.1707 36.2353 23.1799 36.2412 23.1902C36.247 23.2004 36.251 23.2116 36.251 23.2234V30.8679C36.2512 30.8797 36.248 30.8918 36.2422 30.9021C36.2363 30.9123 36.2271 30.9207 36.2168 30.9265L29.6006 34.7468C29.5903 34.7528 29.5783 34.7556 29.5664 34.7556C29.5545 34.7556 29.5425 34.7528 29.5322 34.7468C29.5221 34.7409 29.5137 34.7325 29.5078 34.7224C29.5019 34.7121 29.499 34.7001 29.499 34.6882V27.0437C29.4989 27.0318 29.5019 27.0198 29.5078 27.0095C29.5137 26.9994 29.5221 26.9909 29.5322 26.9851L36.1494 23.1648C36.1595 23.159 36.171 23.1561 36.1826 23.156C36.1945 23.156 36.2065 23.1589 36.2168 23.1648Z" fill="#3E96F4"/>
<path d="M21.6914 23.1638L24.2256 24.6277V27.823C24.2255 27.8348 24.2294 27.8469 24.2354 27.8572C24.2413 27.8672 24.2496 27.8759 24.2598 27.8816L25.6035 28.657C25.6138 28.663 25.6258 28.6667 25.6377 28.6667C25.6494 28.6667 25.6607 28.6628 25.6709 28.657C25.6812 28.651 25.6904 28.6429 25.6963 28.6326C25.7022 28.6222 25.7051 28.6103 25.7051 28.5984V25.4812L28.3076 26.9841C28.318 26.99 28.3271 26.9982 28.333 27.0085C28.3389 27.0188 28.342 27.0309 28.3418 27.0427V34.6872C28.3418 34.6991 28.3379 34.7112 28.332 34.7214C28.3261 34.7315 28.3177 34.74 28.3076 34.7458C28.2973 34.7518 28.2853 34.7546 28.2734 34.7546C28.2618 34.7546 28.2504 34.7516 28.2402 34.7458L21.623 30.9275C21.6016 30.9151 21.5898 30.8927 21.5898 30.8679V23.2224C21.5899 23.2107 21.5929 23.1994 21.5986 23.1892C21.6045 23.179 21.6128 23.1697 21.623 23.1638C21.6333 23.1579 21.6453 23.155 21.6572 23.155C21.6691 23.155 21.6811 23.1578 21.6914 23.1638Z" fill="#3E96F4"/>
<path d="M21.1904 32.782C21.3251 32.782 21.4546 32.8352 21.5498 32.9304C21.645 33.0256 21.6982 33.1551 21.6982 33.2898C21.6982 33.4245 21.645 33.5539 21.5498 33.6492C21.4546 33.7444 21.3251 33.7976 21.1904 33.7976H16.2236C16.089 33.7975 15.9595 33.7444 15.8643 33.6492C15.7691 33.5539 15.7158 33.4244 15.7158 33.2898C15.7159 33.1552 15.7691 33.0256 15.8643 32.9304C15.9595 32.8352 16.089 32.782 16.2236 32.782H21.1904Z" fill="#3E96F4"/>
<path d="M19.9492 26.2566C20.0837 26.2567 20.2125 26.31 20.3076 26.405C20.4029 26.5003 20.457 26.6297 20.457 26.7644C20.457 26.899 20.4028 27.0286 20.3076 27.1238C20.2125 27.2187 20.0836 27.2721 19.9492 27.2722H17.9092C17.7745 27.2722 17.645 27.219 17.5498 27.1238C17.4546 27.0286 17.4014 26.899 17.4014 26.7644C17.4014 26.6298 17.4547 26.5003 17.5498 26.405C17.645 26.3098 17.7745 26.2566 17.9092 26.2566H19.9492Z" fill="#3E96F4"/>
<path d="M16.2891 26.2009C16.4236 26.201 16.5523 26.2552 16.6475 26.3503C16.7426 26.4455 16.7968 26.5742 16.7969 26.7087C16.7969 26.8434 16.7427 26.9729 16.6475 27.0681C16.5523 27.1632 16.4236 27.2174 16.2891 27.2175H15.5078C15.3731 27.2175 15.2437 27.1633 15.1484 27.0681C15.0533 26.9729 15 26.8433 15 26.7087C15.0001 26.5743 15.0535 26.4454 15.1484 26.3503C15.2437 26.2551 15.3731 26.2009 15.5078 26.2009H16.2891Z" fill="#3E96F4"/>
<path d="M33.0312 20.5808C33.0528 20.5684 34.2035 21.2569 34.2266 21.2703L35.5732 22.0476C35.5834 22.0535 35.5917 22.0619 35.5977 22.072C35.6036 22.0823 35.6074 22.0943 35.6074 22.1062C35.6074 22.1179 35.6035 22.1292 35.5977 22.1394C35.5917 22.1497 35.5836 22.1589 35.5732 22.1648L28.9531 25.9871C28.9429 25.9931 28.9309 25.9958 28.9189 25.9958C28.9071 25.9958 28.895 25.9931 28.8848 25.9871L27.5391 25.2097C27.4939 25.1836 26.2425 24.5129 26.2822 24.4841L33.0312 20.5808Z" fill="#3E96F4"/>
<path d="M28.9551 18.2253L31.5508 19.7234L31.3271 19.8591L24.7998 23.6277L22.2646 22.1648C22.2543 22.1589 22.2462 22.1497 22.2402 22.1394C22.2344 22.1292 22.2305 22.1179 22.2305 22.1062C22.2305 22.0943 22.2343 22.0823 22.2402 22.072C22.2461 22.0619 22.2545 22.0535 22.2646 22.0476L25.2539 20.321L25.2549 20.322L28.8877 18.2253C28.8978 18.2193 28.9091 18.2156 28.9209 18.2156C28.9328 18.2156 28.9448 18.2192 28.9551 18.2253Z" fill="#3E96F4"/>
<path d="M20.9395 19.7302C21.0741 19.7302 21.2036 19.7835 21.2988 19.8787C21.394 19.9738 21.4472 20.1034 21.4473 20.238C21.4473 20.3726 21.394 20.5022 21.2988 20.5974C21.2036 20.6926 21.0741 20.7458 20.9395 20.7458H17.0898C16.9554 20.7458 16.8266 20.6924 16.7314 20.5974C16.6362 20.5022 16.582 20.3727 16.582 20.238C16.5821 20.1034 16.6363 19.9738 16.7314 19.8787C16.8266 19.7838 16.9555 19.7303 17.0898 19.7302H20.9395Z" fill="#3E96F4"/>
</svg>
