<svg width="48" height="48" viewBox="0 0 48 48" fill="none" xmlns="http://www.w3.org/2000/svg">
<rect width="48" height="48" rx="8" fill="white"/>
<path d="M3.56406 24.6637C3.73033 24.6637 3.89122 24.7233 4.01816 24.8307C4.14497 24.9381 4.22989 25.0867 4.25741 25.2506C4.89174 29.028 8.12885 31.77 11.9547 31.7701C13.5806 31.7701 15.1455 31.2659 16.4801 30.3131C16.6155 30.2164 16.781 30.1714 16.9469 30.1851C17.1127 30.1989 17.2686 30.2706 17.3863 30.3883L19.4098 32.4117C19.7088 32.7107 19.6781 33.2048 19.3443 33.4644C17.2121 35.1235 14.6565 36.0006 11.9547 36.0006C5.8898 36.0004 0.752689 31.4661 0.00546149 25.4537C-0.0466635 25.0342 0.280985 24.6637 0.703704 24.6637H3.56406Z" fill="#3E96F4"/>
<path d="M13.4537 12.0055C19.4661 12.7527 24.0004 17.8898 24.0006 23.9547C24.0006 26.6566 23.1234 29.2122 21.4644 31.3443C21.2048 31.678 20.7107 31.7088 20.4117 31.4098L18.3883 29.3863C18.2706 29.2686 18.1989 29.1127 18.1851 28.9469C18.1714 28.781 18.2164 28.6155 18.3131 28.4801C19.2659 27.1455 19.7701 25.5806 19.7701 23.9547C19.77 20.1288 17.028 16.8917 13.2506 16.2574C13.0866 16.2299 12.9371 16.1451 12.8297 16.0182C12.7224 15.8913 12.6637 15.7302 12.6637 15.5641V12.7037C12.6637 12.281 13.0342 11.9533 13.4537 12.0055Z" fill="#3E96F4"/>
<path d="M9.37363 22.8736V28.0299H7.73495C7.34664 28.0299 7.03183 27.7151 7.03183 27.3268V23.5768C7.03185 23.1885 7.34666 22.8736 7.73495 22.8736H9.37363Z" fill="#3E96F4"/>
<path d="M12.4215 19.1236C12.8097 19.1237 13.1246 19.4385 13.1246 19.8268V28.0299H10.7799V19.8268C10.7799 19.4386 11.0949 19.1238 11.483 19.1236H12.4215Z" fill="#3E96F4"/>
<path d="M16.1725 20.9986C16.5605 20.9989 16.8756 21.3136 16.8756 21.7018V27.3268C16.8756 27.7149 16.5605 28.0296 16.1725 28.0299H14.5309V20.9986H16.1725Z" fill="#3E96F4"/>
<path d="M10.4557 12.0055C10.8752 11.9533 11.2457 12.281 11.2457 12.7037V15.5641C11.2457 15.7303 11.1871 15.8912 11.0797 16.0182C10.9723 16.1451 10.8228 16.2299 10.6588 16.2574C7.38034 16.8081 4.80794 19.3812 4.25741 22.6598C4.2298 22.8236 4.14499 22.9724 4.01816 23.0797C3.89123 23.1871 3.73032 23.2457 3.56406 23.2457H0.703704C0.281152 23.2457 -0.046343 22.8759 0.00546149 22.4566C0.333258 19.8189 1.55327 17.3268 3.44003 15.44C5.32674 13.5534 7.81816 12.3333 10.4557 12.0055Z" fill="#3E96F4"/>
</svg>
