<svg width="64" height="64" viewBox="0 0 64 64" fill="none" xmlns="http://www.w3.org/2000/svg">
<rect width="64" height="64" fill="white"/>
<path d="M31.0229 24.0088C28.9968 24.2585 27.1424 25.2735 25.8373 26.8457C24.5322 28.418 23.8748 30.4298 23.9994 32.4707C24.1242 34.5115 25.0215 36.428 26.5082 37.8291C27.9949 39.2301 29.9592 40.0104 32.0004 40.0107C33.7873 40.0135 35.5236 39.4162 36.9311 38.3135L39.7612 41.1475C38.3193 42.3722 36.6084 43.2387 34.769 43.6758C32.9297 44.1127 31.0134 44.1086 29.1762 43.6631C27.3388 43.2175 25.6329 42.3427 24.1967 41.1113C22.7606 39.88 21.6345 38.3267 20.9115 36.5771C20.1886 34.8275 19.8892 32.9308 20.0365 31.043C20.1839 29.1553 20.7747 27.3296 21.7602 25.7139C22.7457 24.0981 24.0979 22.738 25.7074 21.7451C27.3172 20.7523 29.1387 20.1542 31.0229 20V24.0088Z" fill="#3E96F4"/>
<path d="M41.1713 24.2314C42.9965 26.3995 43.9975 29.1444 43.9975 31.9805C43.9974 34.8165 42.9967 37.5615 41.1713 39.7295L38.3393 36.8936C39.4258 35.487 40.016 33.7589 40.016 31.9805C40.016 30.202 39.4258 28.474 38.3393 27.0674L41.1713 24.2314Z" fill="#3E96F4"/>
<path fill-rule="evenodd" clip-rule="evenodd" d="M31.4115 26.0293C32.793 25.8932 34.1792 26.2396 35.3334 27.0107C36.4875 27.7819 37.3386 28.9296 37.7416 30.2578C38.1446 31.5861 38.0745 33.0134 37.5434 34.2959C37.0123 35.5783 36.0526 36.6366 34.8285 37.291C33.6044 37.9454 32.191 38.1555 30.8295 37.8848C29.4681 37.614 28.2424 36.8796 27.3617 35.8066C26.4812 34.7338 25.9997 33.3888 25.9994 32.001C25.9983 31.2128 26.1529 30.4313 26.4545 29.7031C26.7561 28.9751 27.1993 28.3143 27.7573 27.7578C28.7388 26.7763 30.0301 26.1654 31.4115 26.0293ZM31.9496 27.8906C31.8056 27.8907 31.6677 27.9479 31.5658 28.0498C31.464 28.1517 31.4067 28.2895 31.4067 28.4336V29.0791C31.0245 29.1278 30.6687 29.3031 30.3969 29.5762L30.311 29.6689C30.1147 29.8954 29.9796 30.1696 29.9203 30.4648C29.8526 30.8024 29.8873 31.1526 30.019 31.4707C30.1506 31.7887 30.3733 32.061 30.6596 32.252C30.946 32.443 31.2831 32.5447 31.6274 32.5439H32.3764C32.5463 32.5483 32.7079 32.6185 32.8266 32.7402C32.9452 32.862 33.012 33.0253 33.0121 33.1953C33.0121 33.3654 32.9453 33.5295 32.8266 33.6514C32.7079 33.773 32.5463 33.8433 32.3764 33.8477H30.7358C30.5918 33.8477 30.4538 33.9051 30.352 34.0068C30.2501 34.1088 30.1928 34.2475 30.1928 34.3916C30.1929 34.5356 30.2501 34.6736 30.352 34.7754C30.4538 34.8772 30.5918 34.9345 30.7358 34.9346H31.4086V35.5664C31.4087 35.7102 31.4652 35.8484 31.5668 35.9502C31.6687 36.0521 31.8075 36.1094 31.9516 36.1094C32.0957 36.1094 32.2344 36.0521 32.3364 35.9502C32.438 35.8484 32.4954 35.7103 32.4955 35.5664V34.9297C32.9443 34.8979 33.3633 34.6936 33.6645 34.3594C33.9658 34.0248 34.1262 33.5858 34.1108 33.1357C34.0953 32.6858 33.9058 32.2595 33.5824 31.9463C33.259 31.6331 32.8266 31.4579 32.3764 31.457H31.6274C31.4574 31.4526 31.2959 31.3815 31.1772 31.2598C31.0585 31.138 30.9917 30.9747 30.9916 30.8047C30.9916 30.6347 31.0586 30.4714 31.1772 30.3496C31.2959 30.2278 31.4574 30.1568 31.6274 30.1523H33.268C33.3406 30.1544 33.4132 30.1416 33.4809 30.1152C33.5483 30.0889 33.6096 30.0494 33.6615 29.999C33.7136 29.9484 33.7553 29.8872 33.7836 29.8203C33.8118 29.7535 33.8266 29.6819 33.8266 29.6094C33.8266 29.5367 33.8119 29.4644 33.7836 29.3975C33.7553 29.3306 33.7136 29.2703 33.6615 29.2197C33.6095 29.1692 33.5484 29.1289 33.4809 29.1025C33.4132 29.0762 33.3406 29.0644 33.268 29.0664H32.4936V28.4336C32.4935 28.2897 32.4361 28.1516 32.3344 28.0498C32.2325 27.9479 32.0938 27.8906 31.9496 27.8906Z" fill="#3E96F4"/>
<path d="M33.0229 20.0039C35.5065 20.2133 37.8633 21.1953 39.7621 22.8125L36.9311 25.6475C35.799 24.7606 34.4486 24.1957 33.0229 24.0137V20.0039Z" fill="#3E96F4"/>
</svg>
