<svg width="20" height="20" viewBox="0 0 20 20" fill="none" xmlns="http://www.w3.org/2000/svg">
<path d="M15.7586 6.31946L10.2414 3.06606C10.168 3.02278 10.0847 3 10 3C9.91526 3 9.83201 3.02278 9.75862 3.06606L4.24138 6.31946C4.16798 6.36274 4.10704 6.42499 4.06466 6.49996C4.02229 6.57493 3.99999 6.65997 4 6.74653V13.2535C3.99999 13.34 4.02229 13.4251 4.06466 13.5C4.10704 13.575 4.16798 13.6373 4.24138 13.6805L9.75862 16.9339C9.83201 16.9772 9.91526 17 10 17C10.0847 17 10.168 16.9772 10.2414 16.9339L15.7586 13.6805C15.832 13.6373 15.893 13.575 15.9353 13.5C15.9777 13.4251 16 13.34 16 13.2535V6.74653C16 6.65997 15.9777 6.57493 15.9353 6.49996C15.893 6.42499 15.832 6.36274 15.7586 6.31946ZM10 4.06243L11.7386 5.08761L7.18724 7.77136L5.44862 6.74611L10 4.06243ZM9.51724 15.6529L4.96552 12.9688V7.60012L9.51724 10.2843V15.6529ZM10 9.43021L8.15276 8.34093L12.7041 5.65718L14.5517 6.74625L10 9.43021ZM15.0345 12.9688L10.4828 15.6529V10.2843L15.0345 7.60012V12.9688Z" fill="#3E96F4"/>
<path d="M20 20H15.858L20 15.858V20Z" fill="#3E96F4"/>
<path d="M17.1966 18.6611L18.6611 17.1966L16.4644 15L15 16.4644L17.1966 18.6611Z" fill="#3E96F4"/>
<path d="M-1.3846e-07 20H4.14202L-1.3846e-07 15.858V20Z" fill="#3E96F4"/>
<path d="M2.80336 18.6611L1.33893 17.1966L3.53557 15L5 16.4644L2.80336 18.6611Z" fill="#3E96F4"/>
<path d="M-1.3846e-07 -1.3846e-07H4.14202L-1.3846e-07 4.14202V-1.3846e-07Z" fill="#3E96F4"/>
<path d="M2.80336 1.33893L1.33893 2.80336L3.53557 5L5 3.53557L2.80336 1.33893Z" fill="#3E96F4"/>
<path d="M20 -1.3846e-07H15.858L20 4.14202V-1.3846e-07Z" fill="#3E96F4"/>
<path d="M17.1966 1.33893L18.6611 2.80336L16.4644 5L15 3.53557L17.1966 1.33893Z" fill="#3E96F4"/>
</svg>
