<svg width="64" height="64" viewBox="0 0 64 64" fill="none" xmlns="http://www.w3.org/2000/svg">
<path d="M0 8C0 3.58172 3.58172 0 8 0H56C60.4183 0 64 3.58172 64 8V56C64 60.4183 60.4183 64 56 64H8C3.58172 64 0 60.4183 0 56V8Z" fill="#EBF4FE"/>
<path fill-rule="evenodd" clip-rule="evenodd" d="M48 48H45.5466V24.6332H18.4535V47.9999H16V22.2473L32 16L48 22.2473V48ZM27.4845 32.1815H24.9244V35.2744H22.3471V32.1815H19.787V39.2571C19.787 39.5354 20.0175 39.7624 20.3002 39.7624H26.9715C27.2541 39.7624 27.4846 39.5354 27.4846 39.2571L27.4845 32.1815ZM44.2131 32.1815H41.6529V35.2744H39.0756V32.1815H36.5155V39.2571C36.5155 39.5354 36.746 39.7624 37.0286 39.7624H43.6999C43.9825 39.7624 44.213 39.5354 44.213 39.2571L44.2131 32.1815ZM27.4845 40.419H24.9244V43.512H22.3471V40.419H19.787V47.4946C19.787 47.773 20.0175 48 20.3002 48H26.9715C27.2541 48 27.4846 47.773 27.4846 47.4946L27.4845 40.419ZM28.1513 40.419V47.4946C28.1513 47.773 28.3818 48 28.6644 48H35.3357C35.6183 48 35.8489 47.773 35.8489 47.4946V40.419H33.2887V43.512H30.7113V40.419H28.1513ZM44.2131 40.419H41.6529V43.512H39.0756V40.419H36.5155V47.4946C36.5155 47.773 36.746 48 37.0286 48H43.6999C43.9825 48 44.213 47.773 44.213 47.4946L44.2131 40.419ZM28.5531 20.7093C28.3331 20.7093 28.1531 20.8865 28.1531 21.1033V22.2748C28.1531 22.4915 28.3331 22.6688 28.5531 22.6688H35.4469C35.6669 22.6688 35.8469 22.4916 35.8469 22.2748V21.1033C35.8469 20.8866 35.6669 20.7093 35.4469 20.7093H28.5531Z" fill="#3E96F4"/>
</svg>
