<svg width="92" height="32" viewBox="0 0 92 32" fill="none" xmlns="http://www.w3.org/2000/svg">
<path d="M10.9159 0H15.9249V23.1854C13.3554 23.6732 11.4688 23.8684 9.41979 23.8684C3.30471 23.8682 0.117188 21.1039 0.117188 15.8019C0.117188 10.6952 3.50007 7.37783 8.73658 7.37783C9.54967 7.37783 10.1676 7.44267 10.9159 7.63781V0ZM10.9159 11.6707C10.3305 11.4758 9.8426 11.4108 9.22465 11.4108C6.68759 11.4108 5.22382 12.9721 5.22382 15.7041C5.22382 18.3715 6.62255 19.835 9.19212 19.835C9.74481 19.835 10.2004 19.8025 10.9159 19.7051V11.6707Z" fill="#092E20"/>
<path d="M23.8932 7.73534V19.3469C23.8932 23.3477 23.6005 25.2666 22.7224 26.9255C21.9091 28.5196 20.8356 29.5276 18.624 30.6337L13.9727 28.4218C16.1845 27.3811 17.2578 26.4706 17.9408 25.0715C18.6565 23.6405 18.8844 21.9815 18.8844 17.6232V7.73534H23.8932ZM18.8844 0.0266113H23.8932V5.16577H18.8844V0.0266113Z" fill="#092E20"/>
<path d="M26.916 8.87381C29.128 7.83326 31.242 7.37793 33.5514 7.37793C36.121 7.37793 37.8122 8.06072 38.5605 9.3944C38.9831 10.1424 39.1132 11.1181 39.1132 13.2001V23.3804C36.8686 23.7056 34.0391 23.9335 31.9576 23.9335C27.7618 23.9335 25.875 22.4693 25.875 19.217C25.875 15.704 28.3795 14.0778 34.5271 13.5572V12.4514C34.5271 11.5407 34.0718 11.2157 32.8032 11.2157C30.9493 11.2157 28.8676 11.7361 26.9158 12.7445L26.916 8.87381ZM34.7548 16.8427C31.437 17.168 30.3637 17.6886 30.3637 18.9895C30.3637 19.9652 30.9818 20.4205 32.3478 20.4205C33.0961 20.4205 33.7789 20.3557 34.7548 20.1931V16.8427Z" fill="#092E20"/>
<path d="M41.5586 8.51605C44.5182 7.73548 46.9577 7.37793 49.4297 7.37793C51.9993 7.37793 53.8534 7.96315 54.9596 9.10168C56.0003 10.1748 56.3254 11.3456 56.3254 13.8506V23.6731H51.3163V14.0457C51.3163 12.1268 50.6658 11.4109 48.877 11.4109C48.194 11.4109 47.5761 11.4759 46.5674 11.7686V23.6731H41.5586V8.51605Z" fill="#092E20"/>
<path d="M58.2699 26.4055C60.0265 27.3162 61.7828 27.7388 63.6367 27.7388C66.9216 27.7388 68.3203 26.4055 68.3203 23.2178C68.3203 23.1853 68.3203 23.1527 68.3203 23.1202C67.3446 23.6079 66.3687 23.8032 65.0679 23.8032C60.6768 23.8032 57.8792 20.9084 57.8792 16.3224C57.8792 10.6299 62.0103 7.41025 69.3283 7.41025C71.4753 7.41025 73.4594 7.6377 75.8664 8.12556L74.1513 11.7386C72.8176 11.4784 74.0444 11.7038 73.0366 11.6062V12.1268L73.1015 14.2406L73.1338 16.973C73.1663 17.6558 73.1663 18.339 73.199 19.022C73.199 19.64 73.199 19.9329 73.199 20.3882C73.199 24.6818 72.8413 26.6982 71.768 28.3569C70.2067 30.7966 67.507 32 63.669 32C61.7174 32 60.0263 31.7073 58.2696 31.0241V26.4055H58.2699ZM68.2229 11.4434C68.1579 11.4434 68.093 11.4434 68.0605 11.4434H67.7025C66.7271 11.4109 65.5887 11.6708 64.8077 12.1587C63.6046 12.8419 62.9862 14.078 62.9862 15.8343C62.9862 18.339 64.2225 19.7701 66.4341 19.7701C67.1171 19.7701 67.6702 19.6398 68.3205 19.4448V19.0869V17.7211C68.3205 17.1357 68.2882 16.4848 68.2882 15.802L68.2559 13.4928L68.2231 11.8339V11.4434H68.2229Z" fill="#092E20"/>
<path d="M83.642 7.3125C88.6509 7.3125 91.7085 10.4677 91.7085 15.5741C91.7085 20.8111 88.5212 24.0962 83.4469 24.0962C78.4376 24.0962 75.3477 20.941 75.3477 15.8671C75.3479 10.5974 78.5356 7.3125 83.642 7.3125ZM83.544 20.0626C85.4633 20.0626 86.6019 18.4687 86.6019 15.704C86.6019 12.972 85.4959 11.3456 83.5772 11.3456C81.5928 11.3456 80.4541 12.9397 80.4541 15.704C80.4543 18.4689 81.5928 20.0626 83.544 20.0626Z" fill="#092E20"/>
</svg>
