<svg width="128" height="50" viewBox="0 0 128 50" fill="none" xmlns="http://www.w3.org/2000/svg">
<path d="M97.7875 33.4583L97.7788 28.1639M97.7788 28.1639L97.7524 18.7058M97.7788 28.1639L103.108 22.7818M97.7788 28.1639L103.135 33.4759M67.4322 28.2341C67.4581 27.0987 67.1279 25.9384 66.4594 24.9996C65.4957 23.6465 63.9363 22.7228 62.2256 22.7029C62.1114 22.7029 61.9985 22.7029 61.8836 22.7116C61.2074 22.7534 60.5524 22.8475 59.9728 23.0886C56.161 24.6746 55.4856 29.9678 58.7017 32.3627C61.4869 34.4365 65.5382 33.5896 66.9414 30.4254C67.2379 29.7567 67.4322 28.9138 67.4322 28.2341ZM67.4322 28.2341V18.6619M93.1507 23.3341C92.3615 22.8241 91.4407 22.6401 90.5298 22.6416C90.431 22.6416 90.3295 22.6465 90.2406 22.6503C87.6071 22.7636 85.1654 24.6246 85.1654 28.2341C85.1654 32.5015 89.741 34.8046 93.1594 32.7921M108.517 32.3274C111.21 30.0204 116.607 25.394 116.607 25.394C116.607 25.394 116.411 25.0218 116.283 24.8504C115.194 23.389 113.53 22.6592 111.778 22.6592C107.446 22.6592 104.199 28.2598 108.517 32.3274ZM108.517 32.3274C108.816 32.6092 109.226 32.8298 109.683 33.02C111.267 33.6804 113.435 33.6263 114.609 32.7571M126.152 22.7818C124.822 22.7853 123.527 23.2512 122.567 24.1492C121.053 25.3986 120.725 26.9762 120.744 28.9703L120.788 33.5022M76.2849 22.6766C76.1621 22.6788 76.04 22.6919 75.9168 22.6942C72.6324 22.7545 70.2644 26.1659 70.9818 29.3297C71.6809 32.4128 75.049 34.2384 77.9591 33.2304C81.3479 32.3417 82.7301 28.0746 80.8692 25.1922C79.8517 23.616 78.1267 22.6416 76.2849 22.6766Z" stroke="#394D54" stroke-width="2.53" stroke-linecap="round" stroke-linejoin="round"/>
<path d="M31.4293 19.4736H36.166V24.3158H38.5609C39.6669 24.3158 40.8046 24.1188 41.852 23.7637C42.3668 23.5893 42.9445 23.3463 43.4521 23.0409C42.7834 22.168 42.442 21.0655 42.3415 19.979C42.2052 18.5012 42.5033 16.5775 43.5034 15.4208L44.0014 14.8449L44.5947 15.3218C46.0885 16.522 47.3449 18.1989 47.5663 20.1108C49.3651 19.5817 51.477 19.7068 53.0625 20.622L53.713 20.9972L53.3706 21.6654C52.0297 24.2826 49.2265 25.0932 46.4858 24.9497C42.3848 35.1642 33.4563 40 22.6306 40C17.0377 40 11.9063 37.9092 8.98417 32.947C8.81285 32.6388 8.66619 32.3165 8.51062 31.9999C7.52291 29.8157 7.19478 27.4229 7.41726 25.0319L7.48417 24.3158H11.5346V19.4736H16.2714V14.7368H25.745V10H31.4291V19.4736" fill="#394D54"/>
<mask id="mask0_1_487" style="mask-type:luminance" maskUnits="userSpaceOnUse" x="8" y="10" width="45" height="30">
<path fill-rule="evenodd" clip-rule="evenodd" d="M16.6215 10.4142V19.9433H12.0641V24.7079H8.24855C8.23239 24.8458 8.21914 24.984 8.20588 25.1222C7.96744 27.718 8.42049 30.1121 9.46185 32.159L9.81132 32.7868C10.0208 33.1632 10.2652 33.5166 10.5235 33.8616C10.7812 34.2058 10.8726 34.3964 11.0348 34.6253C13.7876 37.7194 17.8911 39.2086 22.629 39.2086C33.1209 39.2086 42.0254 34.5605 45.9661 24.1187C48.762 24.4056 51.444 23.6887 52.6662 21.3029C50.7192 20.1793 48.217 20.5393 46.7754 21.2639L50.5947 10.4142L35.6796 19.9433H30.9151V10.4142H16.6215Z" fill="white"/>
</mask>
<g mask="url(#mask0_1_487)">
<path d="M26.5382 10.7891H30.6436V14.8945H26.5382V10.7891Z" fill="#20C2EF"/>
<path d="M27.0421 14.5523V11.1309V14.5523ZM27.6578 14.5523V11.1309V14.5523ZM28.2797 14.5523V11.1309V14.5523ZM28.9017 14.5523V11.1309V14.5523ZM29.5238 14.5523V11.1309V14.5523ZM30.1395 14.5523V11.1309V14.5523Z" fill="black"/>
<path d="M27.0421 14.5523V11.1309M27.6578 14.5523V11.1309M28.2797 14.5523V11.1309M28.9017 14.5523V11.1309M29.5238 14.5523V11.1309M30.1395 14.5523V11.1309" stroke="#394D54" stroke-width="0.969482"/>
<path d="M31.2765 14.8948H35.3819V10.7897H31.2765V14.8948Z" fill="#00ACD3"/>
<path d="M31.7804 11.1317V14.553V11.1317ZM32.3961 11.1317V14.553V11.1317ZM33.0179 11.1317V14.553V11.1317ZM33.64 11.1317V14.553V11.1317ZM34.2621 11.1317V14.553V11.1317ZM34.8778 11.1317V14.553V11.1317Z" fill="black"/>
<path d="M31.7804 11.1317V14.553M32.3961 11.1317V14.553M33.0179 11.1317V14.553M33.64 11.1317V14.553M34.2621 11.1317V14.553M34.8778 11.1317V14.553" stroke="#394D54" stroke-width="0.969482"/>
<path d="M7.5929 15.5262H11.6983V19.6314H7.5929V15.5262Z" fill="#00ACD3"/>
<path d="M7.5929 20.2629H11.6983V24.3683H7.5929V20.2629Z" fill="#20C2EF"/>
<path d="M8.0968 19.2894V15.868V19.2894ZM8.71246 19.2894V15.868V19.2894ZM9.33434 19.2894V15.868V19.2894ZM9.95642 19.2894V15.868V19.2894ZM10.5785 19.2894V15.868V19.2894ZM11.1942 19.2894V15.868V19.2894Z" fill="black"/>
<path d="M8.0968 19.2894V15.868M8.71246 19.2894V15.868M9.33434 19.2894V15.868M9.95642 19.2894V15.868M10.5785 19.2894V15.868M11.1942 19.2894V15.868" stroke="#394D54" stroke-width="0.969482"/>
<path d="M8.0968 24.0261V20.6047V24.0261ZM8.71246 24.0261V20.6047V24.0261ZM9.33434 24.0261V20.6047V24.0261ZM9.95642 24.0261V20.6047V24.0261ZM10.5785 24.0261V20.6047V24.0261ZM11.1942 24.0261V20.6047V24.0261Z" fill="black"/>
<path d="M8.0968 24.0261V20.6047M8.71246 24.0261V20.6047M9.33434 24.0261V20.6047M9.95642 24.0261V20.6047M10.5785 24.0261V20.6047M11.1942 24.0261V20.6047" stroke="#394D54" stroke-width="0.969482"/>
<path d="M12.3273 24.3683H16.4326V20.2632H12.3273V24.3683Z" fill="#00ACD3"/>
<path d="M12.3273 19.6315H16.4326V15.5262H12.3273V19.6315Z" fill="#20C2EF"/>
<path d="M12.8312 20.605V24.0264V20.605ZM13.4468 20.605V24.0264V20.605ZM14.0687 20.605V24.0264V20.605ZM14.6908 20.605V24.0264V20.605ZM15.3129 20.605V24.0264V20.605ZM15.9285 20.605V24.0264V20.605Z" fill="black"/>
<path d="M12.8312 20.605V24.0264M13.4468 20.605V24.0264M14.0687 20.605V24.0264M14.6908 20.605V24.0264M15.3129 20.605V24.0264M15.9285 20.605V24.0264" stroke="#394D54" stroke-width="0.969482"/>
<path d="M12.8312 15.8681V19.2894V15.8681ZM13.4468 15.8681V19.2894V15.8681ZM14.0687 15.8681V19.2894V15.8681ZM14.6908 15.8681V19.2894V15.8681ZM15.3129 15.8681V19.2894V15.8681ZM15.9285 15.8681V19.2894V15.8681Z" fill="black"/>
<path d="M12.8312 15.8681V19.2894M13.4468 15.8681V19.2894M14.0687 15.8681V19.2894M14.6908 15.8681V19.2894M15.3129 15.8681V19.2894M15.9285 15.8681V19.2894" stroke="#394D54" stroke-width="0.969482"/>
<path d="M17.0616 15.5266H21.167V19.6317H17.0616V15.5266Z" fill="#00ACD3"/>
<path d="M17.0616 20.2632H21.167V24.3686H17.0616V20.2632Z" fill="#20C2EF"/>
<path d="M17.5656 19.2897V15.8683V19.2897ZM18.1812 19.2897V15.8683V19.2897ZM18.8031 19.2897V15.8683V19.2897ZM19.4252 19.2897V15.8683V19.2897ZM20.0473 19.2897V15.8683V19.2897ZM20.6629 19.2897V15.8683V19.2897Z" fill="black"/>
<path d="M17.5656 19.2897V15.8683M18.1812 19.2897V15.8683M18.8031 19.2897V15.8683M19.4252 19.2897V15.8683M20.0473 19.2897V15.8683M20.6629 19.2897V15.8683" stroke="#394D54" stroke-width="0.969482"/>
<path d="M17.5656 24.0264V20.605V24.0264ZM18.1812 24.0264V20.605V24.0264ZM18.8031 24.0264V20.605V24.0264ZM19.4252 24.0264V20.605V24.0264ZM20.0473 24.0264V20.605V24.0264ZM20.6629 24.0264V20.605V24.0264Z" fill="black"/>
<path d="M17.5656 24.0264V20.605M18.1812 24.0264V20.605M18.8031 24.0264V20.605M19.4252 24.0264V20.605M20.0473 24.0264V20.605M20.6629 24.0264V20.605" stroke="#394D54" stroke-width="0.969482"/>
<path d="M21.8038 24.3679H25.9092V20.2627H21.8038V24.3679Z" fill="#00ACD3"/>
<path d="M21.8038 19.6312H25.9092V15.5258H21.8038V19.6312Z" fill="#20C2EF"/>
<path d="M22.3077 20.6042V24.0256V20.6042ZM22.9234 20.6042V24.0256V20.6042ZM23.5453 20.6042V24.0256V20.6042ZM24.1674 20.6042V24.0256V20.6042ZM24.7894 20.6042V24.0256V20.6042ZM25.4051 20.6042V24.0256V20.6042Z" fill="black"/>
<path d="M22.3077 20.6042V24.0256M22.9234 20.6042V24.0256M23.5453 20.6042V24.0256M24.1674 20.6042V24.0256M24.7894 20.6042V24.0256M25.4051 20.6042V24.0256" stroke="#394D54" stroke-width="0.969482"/>
<path d="M22.3077 15.8675V19.2889V15.8675ZM22.9234 15.8675V19.2889V15.8675ZM23.5453 15.8675V19.2889V15.8675ZM24.1674 15.8675V19.2889V15.8675ZM24.7894 15.8675V19.2889V15.8675ZM25.4051 15.8675V19.2889V15.8675Z" fill="black"/>
<path d="M22.3077 15.8675V19.2889M22.9234 15.8675V19.2889M23.5453 15.8675V19.2889M24.1674 15.8675V19.2889M24.7894 15.8675V19.2889M25.4051 15.8675V19.2889" stroke="#394D54" stroke-width="0.969482"/>
<path d="M26.5382 15.5261H30.6436V19.6312H26.5382V15.5261Z" fill="#00ACD3"/>
<path d="M26.5382 20.2628H30.6436V24.3681H26.5382V20.2628Z" fill="#20C2EF"/>
<path d="M27.0421 19.2892V15.8679V19.2892ZM27.6578 19.2892V15.8679V19.2892ZM28.2797 19.2892V15.8679V19.2892ZM28.9017 19.2892V15.8679V19.2892ZM29.5238 19.2892V15.8679V19.2892ZM30.1395 19.2892V15.8679V19.2892Z" fill="black"/>
<path d="M27.0421 19.2892V15.8679M27.6578 19.2892V15.8679M28.2797 19.2892V15.8679M28.9017 19.2892V15.8679M29.5238 19.2892V15.8679M30.1395 19.2892V15.8679" stroke="#394D54" stroke-width="0.969482"/>
<path d="M27.0421 24.0259V20.6046V24.0259ZM27.6578 24.0259V20.6046V24.0259ZM28.2797 24.0259V20.6046V24.0259ZM28.9017 24.0259V20.6046V24.0259ZM29.5238 24.0259V20.6046V24.0259ZM30.1395 24.0259V20.6046V24.0259Z" fill="black"/>
<path d="M27.0421 24.0259V20.6046M27.6578 24.0259V20.6046M28.2797 24.0259V20.6046M28.9017 24.0259V20.6046M29.5238 24.0259V20.6046M30.1395 24.0259V20.6046" stroke="#394D54" stroke-width="0.969482"/>
<path d="M31.2765 24.368H35.3819V20.2629H31.2765V24.368Z" fill="#00ACD3"/>
<path d="M31.2765 19.6313H35.3819V15.526H31.2765V19.6313Z" fill="#20C2EF"/>
<path d="M31.7804 20.6044V24.0258V20.6044ZM32.3961 20.6044V24.0258V20.6044ZM33.0179 20.6044V24.0258V20.6044ZM33.64 20.6044V24.0258V20.6044ZM34.2621 20.6044V24.0258V20.6044ZM34.8778 20.6044V24.0258V20.6044Z" fill="black"/>
<path d="M31.7804 20.6044V24.0258M32.3961 20.6044V24.0258M33.0179 20.6044V24.0258M33.64 20.6044V24.0258M34.2621 20.6044V24.0258M34.8778 20.6044V24.0258" stroke="#394D54" stroke-width="0.969482"/>
<path d="M31.7804 15.8677V19.2891V15.8677ZM32.3961 15.8677V19.2891V15.8677ZM33.0179 15.8677V19.2891V15.8677ZM33.64 15.8677V19.2891V15.8677ZM34.2621 15.8677V19.2891V15.8677ZM34.8778 15.8677V19.2891V15.8677Z" fill="black"/>
<path d="M31.7804 15.8677V19.2891M32.3961 15.8677V19.2891M33.0179 15.8677V19.2891M33.64 15.8677V19.2891M34.2621 15.8677V19.2891M34.8778 15.8677V19.2891" stroke="#394D54" stroke-width="0.969482"/>
</g>
<mask id="mask1_1_487" style="mask-type:luminance" maskUnits="userSpaceOnUse" x="8" y="10" width="45" height="30">
<path fill-rule="evenodd" clip-rule="evenodd" d="M16.6215 10.4142V19.9433H12.0641V24.7079H8.24855C8.23239 24.8458 8.21914 24.984 8.20588 25.1222C7.96744 27.718 8.42049 30.1121 9.46185 32.159L9.81132 32.7868C10.0208 33.1632 10.2652 33.5166 10.5235 33.8616C10.7812 34.2058 10.8726 34.3964 11.0348 34.6253C13.7876 37.7194 17.8911 39.2086 22.629 39.2086C33.1209 39.2086 42.0254 34.5605 45.9661 24.1187C48.762 24.4056 51.444 23.6887 52.6662 21.3029C50.7192 20.1793 48.217 20.5393 46.7754 21.2639L50.5947 10.4142L35.6796 19.9433H30.9151V10.4142H16.6215Z" fill="white"/>
</mask>
<g mask="url(#mask1_1_487)">
<path d="M46.7792 21.265C47.0968 18.7965 45.2496 16.8578 44.104 15.9372C42.7838 17.4635 42.5787 21.4636 44.6499 23.1478C43.4941 24.1745 41.0584 25.105 38.5645 25.105H7.92336C7.68079 27.7083 7.92336 40.2444 7.92336 40.2444H52.8757L52.6713 21.3056C50.7244 20.182 48.2208 20.5406 46.7792 21.265Z" fill="#17B5EB"/>
</g>
<mask id="mask2_1_487" style="mask-type:luminance" maskUnits="userSpaceOnUse" x="8" y="10" width="45" height="30">
<path fill-rule="evenodd" clip-rule="evenodd" d="M16.6215 10.4142V19.9433H12.0641V24.7079H8.24855C8.23239 24.8458 8.21914 24.984 8.20588 25.1222C7.96744 27.718 8.42049 30.1121 9.46185 32.159L9.81132 32.7868C10.0208 33.1632 10.2652 33.5166 10.5235 33.8616C10.7812 34.2058 10.8726 34.3964 11.0348 34.6253C13.7876 37.7194 17.8911 39.2086 22.629 39.2086C33.1209 39.2086 42.0254 34.5605 45.9661 24.1187C48.762 24.4056 51.444 23.6887 52.6662 21.3029C50.7192 20.1793 48.217 20.5393 46.7754 21.2639L50.5947 10.4142L35.6796 19.9433H30.9151V10.4142H16.6215Z" fill="white"/>
</mask>
<g mask="url(#mask2_1_487)">
<path d="M7.92102 28.437V40.2448H52.8734V28.437" fill="black" fill-opacity="0.17"/>
</g>
<mask id="mask3_1_487" style="mask-type:luminance" maskUnits="userSpaceOnUse" x="8" y="10" width="45" height="30">
<path fill-rule="evenodd" clip-rule="evenodd" d="M16.6215 10.4142V19.9433H12.0641V24.7079H8.24855C8.23239 24.8458 8.21914 24.984 8.20588 25.1222C7.96744 27.718 8.42049 30.1121 9.46185 32.159L9.81132 32.7868C10.0208 33.1632 10.2652 33.5166 10.5235 33.8616C10.7812 34.2058 10.8726 34.3964 11.0348 34.6253C13.7876 37.7194 17.8911 39.2086 22.629 39.2086C33.1209 39.2086 42.0254 34.5605 45.9661 24.1187C48.762 24.4056 51.444 23.6887 52.6662 21.3029C50.7192 20.1793 48.217 20.5393 46.7754 21.2639L50.5947 10.4142L35.6796 19.9433H30.9151V10.4142H16.6215Z" fill="white"/>
</mask>
<g mask="url(#mask3_1_487)">
<path d="M23.9196 39.1859C21.115 37.855 19.5754 36.0457 18.7188 34.0705L10.1984 34.4442L14.5486 40.2445L23.9196 39.1859Z" fill="#D4EDF1"/>
</g>
<mask id="mask4_1_487" style="mask-type:luminance" maskUnits="userSpaceOnUse" x="8" y="10" width="45" height="30">
<path fill-rule="evenodd" clip-rule="evenodd" d="M16.6215 10.4142V19.9433H12.0641V24.7079H8.24855C8.23239 24.8458 8.21914 24.984 8.20588 25.1222C7.96744 27.718 8.42049 30.1121 9.46185 32.159L9.81132 32.7868C10.0208 33.1632 10.2652 33.5166 10.5235 33.8616C10.7812 34.2058 10.8726 34.3964 11.0348 34.6253C13.7876 37.7194 17.8911 39.2086 22.629 39.2086C33.1209 39.2086 42.0254 34.5605 45.9661 24.1187C48.762 24.4056 51.444 23.6887 52.6662 21.3029C50.7192 20.1793 48.217 20.5393 46.7754 21.2639L50.5947 10.4142L35.6796 19.9433H30.9151V10.4142H16.6215Z" fill="white"/>
</mask>
<g mask="url(#mask4_1_487)">
<path d="M46.9695 21.1736V21.18C42.6481 26.7501 36.4496 31.616 29.7952 34.1725C23.8592 36.4526 18.6837 36.4636 15.1132 34.6319C14.7287 34.4148 14.3517 34.1739 13.9738 33.9458C11.356 32.1162 9.88152 29.0897 10.0056 25.1029H7.92102V40.2445H52.8734V20.3578H47.6945L46.9695 21.1736Z" fill="black" fill-opacity="0.08"/>
</g>
<path d="M10.3312 34.2431C13.2655 34.4038 16.3971 34.4326 19.1288 33.5765" stroke="#394D54" stroke-width="2.11297" stroke-linecap="round"/>
<path d="M22.0415 32.1567C22.0415 32.7821 21.5346 33.2893 20.9092 33.2893C20.2836 33.2893 19.7765 32.7821 19.7765 32.1567C19.7765 31.5313 20.2836 31.0242 20.9092 31.0242C21.5346 31.0242 22.0415 31.5313 22.0415 32.1567Z" fill="#D4EDF1"/>
<path d="M21.2055 31.4004C21.1066 31.4576 21.0397 31.5645 21.0397 31.6871C21.0397 31.8698 21.1881 32.0179 21.3708 32.0179C21.4961 32.0179 21.6049 31.9483 21.6612 31.8456C21.701 31.9413 21.7229 32.0465 21.7229 32.1567C21.7229 32.6046 21.3598 32.9677 20.9119 32.9677C20.4641 32.9677 20.1007 32.6046 20.1007 32.1567C20.1007 31.7087 20.4641 31.3455 20.9119 31.3455C21.0155 31.3455 21.1143 31.365 21.2055 31.4004Z" fill="#394D54"/>
<path d="M0.878052 28.6774H53.5628C52.4158 28.3865 49.9333 27.9934 50.3428 26.4901C48.257 28.9036 43.2265 28.1833 41.9568 26.993C40.5432 29.0436 32.313 28.2641 31.739 26.6668C29.9666 28.7468 24.4747 28.7468 22.7023 26.6668C22.1279 28.2641 13.8979 29.0436 12.484 26.993C11.2146 28.1833 6.1845 28.9036 4.09846 26.4901C4.5078 27.9934 2.02548 28.3865 0.878052 28.6774Z" fill="#394D54"/>
</svg>
