<svg width="48" height="48" viewBox="0 0 48 48" fill="none" xmlns="http://www.w3.org/2000/svg">
<g clip-path="url(#clip0_2658_1007)">
<path fill-rule="evenodd" clip-rule="evenodd" d="M18.6592 0.127773C19.9419 -0.168689 21.2869 0.0573279 22.4092 0.757656C22.889 1.04955 23.4376 1.20297 23.9961 1.20297C24.5543 1.20293 25.1023 1.04938 25.582 0.757656C26.7045 0.0612517 28.0478 -0.163673 29.3291 0.130703C30.6104 0.425081 31.7298 1.21552 32.4522 2.33578C32.4703 2.36138 32.4862 2.3885 32.5 2.41684C32.8094 2.87536 33.2341 3.24158 33.7285 3.47641C34.2228 3.7111 34.77 3.80654 35.3125 3.75277H35.4131C36.7086 3.63034 37.9998 4.02966 39.0107 4.86605C40.0218 5.70246 40.6723 6.90952 40.8242 8.22934C40.8959 8.79599 41.1187 9.3317 41.4678 9.77816C41.8169 10.2246 42.2795 10.5648 42.8047 10.7616C43.7765 11.1271 44.6159 11.788 45.209 12.6551C45.802 13.522 46.1202 14.5537 46.1221 15.6112C46.121 16.1616 46.0356 16.7092 45.8682 17.2323C45.7644 17.5509 45.711 17.8847 45.71 18.2205C45.7062 19.0293 46.0138 19.8074 46.5664 20.3866C47.4836 21.3487 47.9977 22.6384 47.999 23.9813C48.0003 25.324 47.4885 26.6141 46.5732 27.578L46.5606 27.5926L46.5508 27.6024C46.1634 28.0088 45.8939 28.5169 45.7715 29.0702C45.649 29.6237 45.6785 30.2018 45.8574 30.7391C46.0271 31.2662 46.1143 31.8172 46.1152 32.3719C46.1134 33.4314 45.7937 34.4655 45.1992 35.3338C44.6047 36.202 43.7637 36.8632 42.79 37.2284C42.2659 37.4261 41.805 37.7671 41.457 38.2137C41.109 38.6605 40.8873 39.1962 40.8164 39.7625C40.7133 40.5545 40.4324 41.312 39.9951 41.9745C39.558 42.6369 38.9759 43.1872 38.2959 43.5819C38.2711 43.5972 37.2819 44.2005 35.2002 44.2313C34.6755 44.1961 34.1504 44.3014 33.6777 44.537C33.2051 44.7724 32.8008 45.1301 32.5049 45.5741C32.4897 45.6027 32.4736 45.6316 32.4561 45.659C31.8704 46.5764 31.0138 47.2796 30.0108 47.6668C29.0078 48.054 27.9102 48.1056 26.877 47.8133L24.6358 46.8817C24.2143 46.7919 23.7789 46.792 23.3574 46.8817L21.1211 47.8084C20.0873 48.0974 18.99 48.044 17.9873 47.6571C16.9848 47.2701 16.1276 46.5691 15.5391 45.6541C15.5212 45.6271 15.505 45.5983 15.4902 45.5682C14.8541 44.6409 13.6569 44.1909 12.6787 44.2411C11.1849 44.32 9.68849 43.6014 9.68849 43.6014C9.00572 43.2043 8.4224 42.65 7.98634 41.9823C7.55038 41.3146 7.2735 40.5521 7.17677 39.7557C7.10553 39.1892 6.8829 38.6534 6.53419 38.2069C6.18556 37.7606 5.72394 37.4203 5.19923 37.2235C4.22705 36.8585 3.38757 36.1979 2.79395 35.3309C2.20033 34.4638 1.8809 33.431 1.87892 32.3729C1.88103 31.8239 1.96669 31.2785 2.1338 30.7567C2.23721 30.4378 2.29062 30.1043 2.292 29.7684C2.29221 28.9638 1.98491 28.1907 1.43556 27.6141C0.517609 26.6531 0.00263438 25.364 9.35518e-06 24.0213C-0.00251943 22.6788 0.507705 21.3883 1.42188 20.4237C1.81584 20.0166 2.09138 19.5057 2.21778 18.9481C2.34417 18.3906 2.31642 17.8079 2.1377 17.2655C1.96753 16.7379 1.88027 16.1861 1.87892 15.6307C1.88071 14.5712 2.20027 13.5378 2.79493 12.6698C3.38968 11.8017 4.23112 11.1409 5.20509 10.7762C5.72984 10.5787 6.19161 10.2376 6.54005 9.79086C6.88852 9.34403 7.11054 8.80768 7.18165 8.24105C7.34177 6.99561 7.93881 5.85182 8.86231 5.0223C9.78587 4.1928 10.9733 3.73423 12.2031 3.73129C12.3565 3.73131 12.51 3.74202 12.6621 3.75277C12.7076 3.75712 12.753 3.76409 12.7979 3.77328C13.3227 3.80626 13.847 3.69871 14.3193 3.46273C14.7915 3.22678 15.1956 2.86985 15.4922 2.4266C15.5062 2.39869 15.522 2.37159 15.5391 2.34555C16.2568 1.21986 17.3764 0.424278 18.6592 0.127773ZM21.377 2.49984C20.7096 2.08225 19.9111 1.94143 19.1455 2.10727C18.3798 2.27311 17.7057 2.73305 17.2617 3.39145C17.2477 3.4177 17.232 3.44256 17.2168 3.46762C16.7132 4.25729 16.0077 4.89179 15.1768 5.3016C14.3461 5.71123 13.4214 5.88093 12.5029 5.79281C12.4636 5.78933 12.4242 5.78251 12.3858 5.77328C11.6099 5.72739 10.8455 5.98429 10.2471 6.49105C9.64884 6.9978 9.26057 7.7174 9.16114 8.50473C9.04412 9.4417 8.67717 10.3277 8.1006 11.0662C7.52397 11.8048 6.75999 12.3681 5.89161 12.6932C5.30299 12.9133 4.79408 13.3123 4.43458 13.8368C4.07516 14.3612 3.88199 14.9856 3.88087 15.6258C3.88184 15.9617 3.93509 16.2952 4.0381 16.6141C4.33278 17.508 4.37869 18.4683 4.17188 19.3875C3.96507 20.3066 3.51329 21.1493 2.86622 21.8221C2.31368 22.4039 2.00458 23.1826 2.00392 23.993C2.00329 24.8034 2.31089 25.5823 2.86231 26.1649C3.78337 27.126 4.29754 28.4186 4.29395 29.7635C4.29271 30.314 4.2068 30.8608 4.0381 31.3836C3.93387 31.7 3.87869 32.0313 3.87501 32.3651C3.8763 33.005 4.06974 33.6288 4.42872 34.1532C4.78767 34.6775 5.29498 35.077 5.88282 35.2977C6.75156 35.6225 7.5167 36.1851 8.09376 36.9237C8.67079 37.6622 9.0379 38.5489 9.15528 39.4862C9.2518 40.2926 9.65436 41.0285 10.2764 41.535C10.8984 42.0414 11.6902 42.2779 12.4815 42.1942C12.5178 42.1918 12.5546 42.1918 12.5908 42.1942C13.4963 42.1176 14.4053 42.2938 15.2207 42.703C16.0361 43.1122 16.7277 43.7395 17.2217 44.5184C17.2393 44.5453 17.2551 44.5736 17.2695 44.6024C17.7167 45.2545 18.3898 45.709 19.1524 45.8739C19.915 46.0387 20.7114 45.9013 21.3789 45.4901C22.1694 44.999 23.0768 44.7392 24.002 44.7391C24.9274 44.7391 25.8354 44.9989 26.626 45.4901C27.2931 45.9069 28.0914 46.0469 28.8565 45.8817C29.6214 45.7166 30.2953 45.2589 30.7402 44.6024C30.7542 44.575 30.771 44.5475 30.7861 44.5213C31.2911 43.7325 31.9972 43.0989 32.8281 42.6893C33.659 42.2796 34.5833 42.1093 35.502 42.1961C35.5414 42.2002 35.5805 42.206 35.6191 42.2147C36.3953 42.2642 37.1605 42.0099 37.7598 41.5037C38.3591 40.9977 38.7475 40.2779 38.8457 39.4901C38.9632 38.553 39.3306 37.667 39.9072 36.9286C40.4841 36.19 41.2487 35.6269 42.1172 35.3016C42.7054 35.0811 43.213 34.6814 43.5723 34.1571C43.9314 33.6328 44.1248 33.0089 44.126 32.369C44.1254 32.0332 44.0732 31.6988 43.9707 31.3797C43.6764 30.4859 43.6302 29.5264 43.8369 28.6073C44.0438 27.6882 44.4948 26.8448 45.1416 26.1717L45.1357 26.1737C45.6886 25.5918 45.998 24.8126 45.9981 24.0018C45.9981 23.1908 45.6886 22.4118 45.1357 21.8299C44.214 20.8698 43.6997 19.577 43.7041 18.2323C43.705 17.683 43.7914 17.1369 43.959 16.6151C44.0616 16.2962 44.1137 15.9624 44.1143 15.6268C44.1127 14.9875 43.9202 14.3636 43.5615 13.8397C43.2027 13.3155 42.695 12.916 42.1074 12.6952C41.2386 12.3703 40.4738 11.8078 39.8965 11.0692C39.3193 10.3305 38.9517 9.44403 38.834 8.50668C38.7372 7.70151 38.3351 6.96723 37.7139 6.46176C37.0926 5.95628 36.3017 5.71985 35.5117 5.80355H35.4024C34.4972 5.87887 33.5887 5.70236 32.7744 5.29184C31.96 4.8813 31.2703 4.25216 30.7783 3.4725C30.7631 3.44737 30.7465 3.42092 30.7324 3.3934C30.2862 2.74007 29.6134 2.28397 28.8506 2.11801C28.0879 1.95216 27.2922 2.08901 26.624 2.49984C25.8306 2.98199 24.9242 3.23609 24.001 3.23617C23.0777 3.23617 22.1706 2.98207 21.377 2.49984ZM17.1094 7.52719C20.3975 6.13611 24.0161 5.77208 27.5068 6.48129C30.9975 7.19057 34.2041 8.94109 36.7207 11.5116C39.2374 14.0821 40.9511 17.3573 41.6455 20.9227C42.3399 24.4882 41.983 28.1842 40.6211 31.5428C39.259 34.9015 36.9525 37.7722 33.9932 39.7918C31.0339 41.8115 27.5551 42.8904 23.9961 42.8905C19.2234 42.8905 14.6453 40.9538 11.2705 37.5067C7.89572 34.0596 6.00001 29.3835 6.00001 24.5086C6.0001 20.8734 7.05589 17.3193 9.03321 14.2967C11.0105 11.2742 13.8213 8.91831 17.1094 7.52719ZM23.9961 8.17074C19.7538 8.17106 15.6852 9.89293 12.6856 12.9569C9.68593 16.0207 8.00045 20.1758 8.00001 24.5086C7.99978 27.7404 8.93766 30.9005 10.6953 33.5877C12.453 36.2747 14.952 38.3686 17.875 39.6053C20.7979 40.8421 24.0141 41.1663 27.1172 40.536C30.2204 39.9055 33.0713 38.3495 35.3086 36.0643C37.5457 33.7792 39.0693 30.8676 39.6865 27.6981C40.3038 24.5285 39.9864 21.2424 38.7754 18.2567C37.5645 15.2712 35.5145 12.7189 32.8838 10.9237C30.2531 9.12847 27.1599 8.17059 23.9961 8.17074ZM25.5166 16.4725C25.748 16.3426 26.0207 16.3114 26.2744 16.3856C26.528 16.4598 26.7431 16.6331 26.8721 16.868C27.0011 17.1032 27.0334 17.3816 26.9629 17.6414L22.9649 31.9364C22.9055 32.15 22.7789 32.3386 22.6055 32.4725C22.4323 32.6062 22.221 32.6784 22.0039 32.6786C21.9113 32.6785 21.8188 32.6657 21.7295 32.6405L21.7197 32.6395C21.4649 32.5646 21.2495 32.389 21.1211 32.1522C20.9927 31.9153 20.9622 31.6361 21.0352 31.3758L25.0391 17.0789C25.1137 16.8205 25.2855 16.6023 25.5166 16.4725ZM17.9863 18.4071C18.2456 18.4117 18.4934 18.5186 18.6768 18.7059C18.8601 18.8932 18.9653 19.1462 18.9697 19.411C18.9742 19.6756 18.8779 19.9322 18.7012 20.1258L14.4082 24.5086L18.7012 28.8934C18.8405 29.0359 18.935 29.2175 18.9736 29.4149C19.0123 29.6125 18.9931 29.8175 18.918 30.0037C18.8429 30.19 18.7154 30.3493 18.5518 30.4618C18.3881 30.5742 18.1953 30.6348 17.9981 30.6356C17.8661 30.6361 17.7353 30.6098 17.6133 30.5584C17.4913 30.5071 17.3804 30.4321 17.2871 30.3368L12.2881 25.2313C12.1008 25.0397 11.9952 24.7804 11.9951 24.5096C11.9951 24.2388 12.1007 23.9785 12.2881 23.787L17.2871 18.6815C17.4767 18.5009 17.7272 18.4025 17.9863 18.4071ZM30.0029 18.4071C30.2622 18.4025 30.5135 18.5009 30.7031 18.6815L35.7002 23.787C35.8876 23.9785 35.9932 24.2388 35.9932 24.5096C35.9931 24.7804 35.8875 25.0397 35.7002 25.2313L30.7031 30.3368C30.5156 30.5282 30.2603 30.6356 29.9951 30.6356C29.7302 30.6355 29.4756 30.528 29.2881 30.3368C29.1009 30.1454 28.9961 29.8856 28.9961 29.6151C28.9961 29.3445 29.1009 29.0848 29.2881 28.8934L33.5801 24.5086L29.2881 20.1258C29.1113 19.9322 29.0151 19.6756 29.0195 19.411C29.0241 19.1462 29.1293 18.8932 29.3125 18.7059C29.4959 18.5186 29.7437 18.4117 30.0029 18.4071Z" fill="#3DA4C2"/>
</g>
<defs>
<clipPath id="clip0_2658_1007">
<rect width="48" height="48" fill="white"/>
</clipPath>
</defs>
</svg>
