<svg width="196" height="39" viewBox="0 0 196 39" fill="none" xmlns="http://www.w3.org/2000/svg">
<path d="M23.1722 7.20761L11.8738 14.4152L23.1722 21.6228L11.8738 28.8304L0.575348 21.5839L11.8738 14.3763L0.575348 7.20761L11.8738 0L23.1722 7.20761ZM11.8153 31.1486L23.1137 23.9409L34.4122 31.1486L23.1137 38.3562L11.8153 31.1486ZM23.1722 21.5839L34.4706 14.3763L23.1722 7.20761L34.4122 0L45.7106 7.20761L34.4122 14.4152L45.7106 21.6228L34.4122 28.8304L23.1722 21.5839Z" fill="#0061FF"/>
<path d="M54.574 7.20763H63.7101C69.5346 7.20763 74.3462 10.5777 74.3462 18.2723V19.8891C74.3462 27.6422 69.8463 31.1291 63.8854 31.1291H54.574V7.20763ZM59.6777 11.5517V26.7656H63.5932C66.9048 26.7656 69.1255 24.6033 69.1255 19.7917V18.5255C69.1255 13.714 66.7879 11.5517 63.4179 11.5517H59.6777ZM77.0539 11.7854H81.1447L81.807 16.2853C82.5862 13.227 84.5732 11.5906 88.177 11.5906H89.4432V16.7528H87.3394C83.1901 16.7528 82.1772 18.1944 82.1772 22.2852V31.1875H77.1318V11.7854H77.0539ZM90.4562 21.8761V21.3306C90.4562 14.8438 94.6054 11.2984 100.255 11.2984C106.021 11.2984 110.053 14.8438 110.053 21.3306V21.8761C110.053 28.2461 106.138 31.6745 100.255 31.6745C94.0015 31.6161 90.4562 28.2655 90.4562 21.8761ZM104.891 21.8176V21.3306C104.891 17.7268 103.079 15.5646 100.196 15.5646C97.3716 15.5646 95.5015 17.5515 95.5015 21.3306V21.8176C95.5015 25.3046 97.3131 27.2915 100.196 27.2915C103.079 27.2331 104.891 25.3046 104.891 21.8176ZM112.702 11.7854H116.91L117.397 15.4477C118.41 12.9932 120.572 11.2984 123.767 11.2984C128.695 11.2984 131.949 14.8438 131.949 21.4086V21.954C131.949 28.324 128.345 31.694 123.767 31.694C120.709 31.694 118.605 30.3109 117.572 28.0902V37.8887H112.644L112.702 11.7854ZM126.825 21.8176V21.3891C126.825 17.532 124.838 15.623 122.189 15.623C119.365 15.623 117.494 17.7853 117.494 21.3891V21.7592C117.494 25.1877 119.306 27.35 122.131 27.35C125.033 27.2915 126.825 25.4409 126.825 21.8176ZM139.409 27.6032L138.981 31.1486H134.656V5.29858H139.585V15.2139C140.676 12.6815 142.838 11.2984 145.896 11.2984C150.533 11.3569 153.961 14.5516 153.961 20.98V21.5839C153.961 28.0123 150.708 31.694 145.779 31.694C142.526 31.6161 140.422 30.1161 139.409 27.6032ZM148.779 21.5839V21.0969C148.779 17.5515 146.851 15.5646 144.143 15.5646C141.377 15.5646 139.448 17.7853 139.448 21.1553V21.5839C139.448 25.1877 141.319 27.2915 144.085 27.2915C147.046 27.2915 148.779 25.4409 148.779 21.5839ZM156.123 21.8761V21.3306C156.123 14.8438 160.273 11.2984 165.922 11.2984C171.688 11.2984 175.72 14.8438 175.72 21.3306V21.8761C175.72 28.2461 171.746 31.6745 165.922 31.6745C159.669 31.6161 156.123 28.2655 156.123 21.8761ZM170.597 21.8176V21.3306C170.597 17.7268 168.785 15.5646 165.902 15.5646C163.078 15.5646 161.208 17.5515 161.208 21.3306V21.8176C161.208 25.3046 163.019 27.2915 165.902 27.2915C168.805 27.2331 170.597 25.3046 170.597 21.8176ZM182.324 21.0969L175.525 11.7854H181.35L185.265 17.61L189.239 11.7854H195.005L188.11 21.0384L195.376 31.1486H189.668L185.227 24.7202L180.902 31.1486H174.941L182.324 21.0969Z" fill="black"/>
</svg>
