<svg width="64" height="64" viewBox="0 0 64 64" fill="none" xmlns="http://www.w3.org/2000/svg">
<rect width="64" height="64" rx="8" fill="#3E96F4"/>
<path d="M41.88 43.7328C42.018 43.7328 42.1502 43.789 42.2477 43.889C42.3453 43.989 42.4 44.1247 42.4 44.2661C42.4 44.4076 42.3453 44.5432 42.2477 44.6432C42.1502 44.7433 42.0179 44.7994 41.88 44.7994H22.1201C21.9822 44.7994 21.8499 44.7433 21.7524 44.6432C21.6549 44.5432 21.6001 44.4076 21.6001 44.2661C21.6001 44.1247 21.6549 43.989 21.7524 43.889C21.8499 43.789 21.9822 43.7328 22.1201 43.7328H41.88Z" fill="white"/>
<path fill-rule="evenodd" clip-rule="evenodd" d="M35.6607 27.9816C35.8053 27.9584 35.953 27.9665 36.0943 28.0053C36.2357 28.0442 36.3675 28.113 36.4814 28.2072C37.0375 28.6596 37.4851 29.2367 37.7899 29.894C38.0948 30.5514 38.2487 31.2718 38.24 31.9997C38.24 34.7111 36.7237 36.2663 34.0801 36.2663C32.9477 36.2746 31.8331 35.9778 30.8478 35.4054C30.2858 35.6123 29.6944 35.723 29.0974 35.7329C28.3815 35.7476 27.6785 35.5369 27.083 35.1292C26.6666 34.8324 26.328 34.4348 26.0972 33.9717C25.8664 33.5086 25.7507 32.9943 25.7601 32.4743C25.7601 30.1245 26.9561 29.4557 27.0928 29.388V29.3917C27.1929 29.3402 27.3067 29.3235 27.4168 29.3442C27.5269 29.3649 27.6275 29.4218 27.7033 29.5064C27.7064 29.509 28.5816 30.3996 30.96 30.3997C33.3385 30.3997 34.4789 29.1805 34.9464 28.4536C35.0268 28.3282 35.1318 28.2214 35.2548 28.1401C35.3778 28.0588 35.5161 28.0048 35.6607 27.9816ZM35.8314 29.0391C35.2318 29.9463 33.8258 31.4663 30.96 31.4663C30.0768 31.4834 29.197 31.3489 28.3569 31.0685C29.1463 32.693 30.8815 35.1996 34.0801 35.1996C36.1502 35.1996 37.2001 34.1228 37.2001 31.9997C37.2076 31.4318 37.0882 30.8696 36.8509 30.3564C36.6137 29.8432 36.2649 29.3926 35.8314 29.0391ZM27.1324 30.8589C26.8912 31.3602 26.777 31.9158 26.8001 32.4743C26.7919 32.821 26.8672 33.1645 27.0193 33.4742C27.1714 33.784 27.3956 34.0506 27.6721 34.2503C28.2869 34.6412 29.0267 34.7689 29.7324 34.606C28.6051 33.5705 27.717 32.2904 27.1324 30.8589Z" fill="white"/>
<path fill-rule="evenodd" clip-rule="evenodd" d="M30.2753 23.1074C31.9901 22.7575 33.7675 22.9371 35.3828 23.6233C36.9981 24.3095 38.3788 25.4716 39.3501 26.9626C40.3215 28.4536 40.8399 30.2065 40.8399 31.9997C40.8373 34.4034 39.9051 36.708 38.2478 38.4077C36.5906 40.1074 34.3436 41.0635 31.9999 41.0662C30.2515 41.0662 28.5424 40.5344 27.0887 39.5382C25.635 38.5419 24.5019 37.1259 23.8329 35.4693C23.1638 33.8126 22.9887 31.9896 23.3298 30.2309C23.6709 28.4722 24.5128 26.8566 25.7491 25.5886C26.9854 24.3207 28.5606 23.4572 30.2753 23.1074ZM33.5216 24.1535C32.0086 23.8448 30.4402 24.0033 29.015 24.6087C27.5897 25.2142 26.3716 26.2396 25.5145 27.5552C24.6574 28.8707 24.1999 30.4174 24.1999 31.9997C24.2023 34.1206 25.0248 36.154 26.4871 37.6537C27.9494 39.1535 29.932 39.9971 31.9999 39.9995C33.5426 39.9995 35.0507 39.5303 36.3334 38.6513C37.6161 37.7722 38.6158 36.5229 39.2062 35.0611C39.7965 33.5993 39.951 31.9908 39.6501 30.439C39.3491 28.8871 38.6062 27.4617 37.5153 26.3429C36.4245 25.2241 35.0347 24.4622 33.5216 24.1535Z" fill="white"/>
<path d="M41.88 19.1999C42.018 19.1999 42.1502 19.2561 42.2477 19.3561C42.3453 19.4561 42.4 19.5918 42.4 19.7332C42.4 19.8746 42.3453 20.0103 42.2477 20.1103C42.1502 20.2103 42.018 20.2665 41.88 20.2665H22.1201C21.9822 20.2665 21.8499 20.2103 21.7524 20.1103C21.6549 20.0103 21.6001 19.8746 21.6001 19.7332C21.6001 19.5918 21.6549 19.4561 21.7524 19.3561C21.8499 19.2561 21.9822 19.1999 22.1201 19.1999H41.88Z" fill="white"/>
<path fill-rule="evenodd" clip-rule="evenodd" d="M35.1353 16C35.2967 16 35.4558 16.0381 35.6005 16.1114L36.1725 16.4063L36.7445 16.1119C36.8891 16.0384 37.0484 16.0001 37.2099 16.0001C37.3713 16.0001 37.5306 16.0384 37.6753 16.1119L38.2478 16.409L38.8198 16.1141C38.9647 16.0404 39.1242 16.0021 39.286 16.0021C39.4477 16.0021 39.6073 16.0404 39.7522 16.1141L40.3242 16.4074L40.8962 16.1135C41.0408 16.0392 41.2003 16.0005 41.3621 16.0005C41.5238 16.0005 41.6834 16.0392 41.828 16.1135L42.4 16.4069L42.9761 16.1124C43.1209 16.0385 43.2804 16.0001 43.442 16.0001C43.6037 16.0001 43.7633 16.0385 43.908 16.1124L44.428 16.3791C44.6007 16.4674 44.7458 16.6037 44.8469 16.7723C44.948 16.941 45.001 17.1353 45 17.3332V18.6015C44.9993 19.0554 44.8866 19.5018 44.6724 19.899C44.4211 20.3767 44.2072 20.8741 44.0328 21.3865C43.4925 22.9316 43.3163 24.5858 43.5185 26.2141L43.5793 26.7C43.8222 28.4558 43.9494 30.2264 43.96 31.9997C43.9496 33.773 43.8225 35.5435 43.5799 37.2993L43.519 37.7851C43.3162 39.4143 43.4923 41.0695 44.0328 42.6154C44.2071 43.1275 44.4207 43.6245 44.6719 44.1018C44.8859 44.4986 44.9988 44.9444 45 45.3978V46.666C45.0008 46.8643 44.9473 47.0589 44.8456 47.2276C44.744 47.3962 44.5982 47.5323 44.4249 47.6202L43.9048 47.8868C43.7606 47.9612 43.6014 47.9997 43.44 47.9994C43.2759 48.0007 43.1137 47.9624 42.9668 47.8874L42.3948 47.5924L41.8228 47.8868C41.6781 47.9608 41.5186 47.9993 41.3569 47.9993C41.1952 47.9993 41.0357 47.9608 40.8909 47.8868L40.3189 47.5935L39.7469 47.8874C39.6025 47.9615 39.4433 48 39.2818 48C39.1203 48 38.9611 47.9615 38.8167 47.8874L38.2447 47.5919L37.6727 47.8868C37.5278 47.9605 37.3682 47.9988 37.2065 47.9988C37.0448 47.9988 36.8852 47.9605 36.7403 47.8868L36.1683 47.593L35.5963 47.8879C35.4517 47.9613 35.2925 47.9995 35.1312 47.9995C34.9698 47.9994 34.8107 47.9613 34.666 47.8879L34.0904 47.5924L33.5184 47.8874C33.3739 47.9608 33.2148 47.999 33.0535 47.999C32.8922 47.999 32.7331 47.9608 32.5886 47.8874L32 47.5855L31.4057 47.8857C31.2611 47.9594 31.1019 47.9978 30.9405 47.9978C30.7791 47.9978 30.6199 47.9594 30.4753 47.8857L29.9033 47.5908L29.3282 47.8857C29.1837 47.9594 29.0245 47.9978 28.8631 47.9978C28.7017 47.9978 28.5425 47.9594 28.398 47.8857L27.826 47.5908L27.254 47.8853C27.1094 47.9592 26.9501 47.9976 26.7886 47.9976C26.627 47.9976 26.4677 47.9592 26.3232 47.8853L25.7481 47.5898L25.1761 47.8847C25.0311 47.9584 24.8716 47.9967 24.7099 47.9967C24.5481 47.9967 24.3886 47.9583 24.2437 47.8847L23.6717 47.5914L23.0997 47.8853C22.9551 47.9596 22.7955 47.9983 22.6338 47.9983C22.472 47.9983 22.3125 47.9596 22.1679 47.8853L21.5959 47.5919L21.0239 47.8863C20.879 47.9598 20.7196 47.9981 20.558 47.9981C20.3963 47.9981 20.2369 47.9598 20.092 47.8863L19.572 47.6196C19.3994 47.5313 19.2543 47.3952 19.1532 47.2266C19.0521 47.0581 18.999 46.8639 19 46.666V45.3978C19.0013 44.9447 19.1142 44.4993 19.3281 44.1029C19.5794 43.6253 19.7933 43.1279 19.9678 42.6154C20.5083 41.0695 20.6843 39.4143 20.4815 37.7851L20.4207 37.2993C20.1778 35.5436 20.0506 33.773 20.04 31.9997C20.0505 30.2273 20.1776 28.4576 20.4201 26.7027L20.481 26.2168C20.6838 24.5877 20.5077 22.9325 19.9672 21.3865C19.7931 20.8735 19.5794 20.3756 19.3281 19.8975C19.1141 19.5007 19.0012 19.0549 19 18.6015V17.3332C18.999 17.1354 19.0521 16.9412 19.1532 16.7726C19.2543 16.6041 19.3994 16.468 19.572 16.3796L20.092 16.113C20.2367 16.0391 20.3962 16.0006 20.5579 16.0005C20.7196 16.0004 20.8791 16.0387 21.0239 16.1124L21.6 16.4074L22.1699 16.1124C22.3147 16.0385 22.4742 16.0001 22.6358 16.0001C22.7975 16.0001 22.9571 16.0385 23.1018 16.1124L23.6738 16.4058L24.2458 16.1119C24.3904 16.0384 24.5496 16.0001 24.7109 16.0001C24.8723 16.0001 25.0315 16.0384 25.1761 16.1119L25.7532 16.4079L26.3252 16.113C26.4701 16.0393 26.6297 16.001 26.7914 16.001C26.9532 16.001 27.1127 16.0393 27.2576 16.113L27.8296 16.4069L28.4016 16.1119C28.5463 16.0389 28.7055 16.0009 28.8668 16.0009C29.028 16.0009 29.1872 16.0389 29.3319 16.1119L29.9096 16.4069L30.4816 16.1119C30.6262 16.0389 30.7853 16.0009 30.9465 16.0009C31.1077 16.0009 31.2667 16.0389 31.4114 16.1119L32 16.4138L32.5881 16.1124C32.7327 16.0392 32.892 16.001 33.0533 16.001C33.2146 16.001 33.3738 16.0392 33.5184 16.1124L34.0925 16.4074L34.6702 16.1114C34.8149 16.0381 34.974 16 35.1353 16ZM42.869 17.3599C42.7241 17.4336 42.5646 17.4719 42.4028 17.4719C42.2411 17.4719 42.0816 17.4335 41.9367 17.3599L41.3647 17.0666L40.7932 17.3599C40.6485 17.4342 40.489 17.4729 40.3273 17.4729C40.1655 17.4729 40.006 17.4342 39.8614 17.3599L39.2894 17.0666L38.7132 17.3615C38.5685 17.4349 38.4092 17.4731 38.2478 17.4731C38.0864 17.4731 37.9271 17.4349 37.7824 17.3615L37.2104 17.0666L36.6379 17.362C36.4931 17.4353 36.3339 17.4734 36.1725 17.4734C36.0111 17.4734 35.8518 17.4353 35.7071 17.362L35.1319 17.0666L34.5579 17.3615C34.4132 17.4349 34.2541 17.4731 34.0927 17.4731C33.9314 17.4731 33.7722 17.4349 33.6276 17.3615L33.053 17.0666L32.246 17.4804C32.1689 17.5171 32.085 17.536 32 17.536C31.9151 17.536 31.8311 17.5171 31.754 17.4804L30.947 17.0666L30.3724 17.3615C30.2278 17.4349 30.0686 17.4731 29.9073 17.4731C29.7459 17.4731 29.5868 17.4349 29.4421 17.3615L28.8675 17.0666L28.2919 17.3615C28.1472 17.4348 27.9879 17.4729 27.8265 17.4729C27.6651 17.4729 27.5058 17.4348 27.3611 17.3615L26.7891 17.0666L26.216 17.3615C26.0713 17.4349 25.9121 17.4731 25.7507 17.4731C25.5892 17.4731 25.43 17.4349 25.2853 17.3615L24.7106 17.0666L24.1392 17.3599C23.9944 17.4338 23.835 17.4723 23.6733 17.4723C23.5116 17.4723 23.352 17.4338 23.2073 17.3599L22.6354 17.0666L22.0623 17.362C21.9178 17.4358 21.7586 17.4742 21.5972 17.4742C21.4358 17.4742 21.2765 17.4358 21.132 17.362L20.56 17.0666L20.04 17.3332V18.6015C20.04 18.8747 20.1084 19.1434 20.2386 19.3817C20.5168 19.9087 20.7535 20.4576 20.9464 21.0233C21.5425 22.7261 21.7368 24.5496 21.5132 26.3443L21.4529 26.836C21.2152 28.5466 21.0907 30.2718 21.08 31.9997C21.0906 33.7268 21.215 35.4512 21.4523 37.1611L21.5127 37.6529C21.7367 39.4482 21.5427 41.2724 20.9464 42.976C20.7533 43.542 20.5165 44.0913 20.2382 44.6186C20.1082 44.8567 20.0399 45.125 20.04 45.3978V46.666L20.56 46.9327L21.1346 46.6394C21.2795 46.5657 21.4391 46.5274 21.6008 46.5274C21.7625 46.5274 21.9221 46.5657 22.067 46.6394L22.639 46.9327L23.211 46.6389C23.3556 46.5646 23.5151 46.5258 23.6769 46.5258C23.8387 46.5258 23.9982 46.5646 24.1428 46.6389L24.7148 46.9322L25.2868 46.6378C25.4315 46.5644 25.5908 46.5262 25.7522 46.5262C25.9137 46.5262 26.0729 46.5644 26.2176 46.6378L26.7896 46.9327L27.3642 46.6372C27.509 46.5642 27.6683 46.5262 27.8296 46.5262C27.991 46.5262 28.1502 46.5642 28.295 46.6372L28.8701 46.9327L29.4421 46.6378C29.5868 46.5644 29.7459 46.5262 29.9073 46.5262C30.0686 46.5262 30.2278 46.5644 30.3724 46.6378L30.947 46.9327L31.754 46.5189C31.8311 46.4823 31.9151 46.4633 32 46.4633C32.085 46.4633 32.1689 46.4823 32.246 46.5189L33.053 46.9327L33.6328 46.6367C33.7774 46.5634 33.9366 46.5252 34.098 46.5252C34.2593 46.5252 34.4185 46.5634 34.5631 46.6367L35.1376 46.9317L35.7097 46.6367C35.8545 46.5637 36.0137 46.5257 36.1751 46.5257C36.3364 46.5257 36.4957 46.5637 36.6405 46.6367L37.2125 46.9317L37.7845 46.6372C37.9292 46.5638 38.0884 46.5257 38.2499 46.5257C38.4113 46.5257 38.5706 46.5638 38.7153 46.6372L39.2898 46.9322L39.8618 46.6378C40.0066 46.5639 40.1661 46.5254 40.3278 46.5254C40.4895 46.5254 40.649 46.5639 40.7937 46.6378L41.3657 46.9311L41.9377 46.6372C42.0822 46.5636 42.2414 46.5252 42.4028 46.5252C42.5642 46.5252 42.7235 46.5636 42.868 46.6372L43.44 46.9327L43.96 46.666V45.3978C43.9599 45.1245 43.8913 44.8559 43.7608 44.6175C43.4826 44.0906 43.246 43.5416 43.0531 42.976C42.4571 41.2731 42.2631 39.4496 42.4869 37.655L42.5471 37.1633C42.7848 35.4527 42.9093 33.7275 42.92 31.9997C42.9094 30.2725 42.785 28.5481 42.5477 26.8381L42.4873 26.3464C42.2633 24.5511 42.4573 22.7268 43.0536 21.0233C43.2466 20.4573 43.4835 19.908 43.7618 19.3807C43.8918 19.1426 43.9601 18.8743 43.96 18.6015V17.3332L43.44 17.0666L42.869 17.3599Z" fill="white"/>
</svg>
