<svg width="64" height="64" viewBox="0 0 64 64" fill="none" xmlns="http://www.w3.org/2000/svg">
<rect width="64" height="64" rx="8" fill="#3E96F4"/>
<path fill-rule="evenodd" clip-rule="evenodd" d="M39.8218 22.8614C39.9086 22.7299 39.9687 22.5825 39.9985 22.4277C40.0284 22.2729 40.0275 22.1138 39.9958 21.9594C39.9642 21.805 39.9024 21.6583 39.8141 21.5277C39.7258 21.3972 39.6126 21.2853 39.481 21.1985C39.3495 21.1117 39.2021 21.0516 39.0473 21.0217C38.8925 20.9919 38.7334 20.9928 38.579 21.0244C38.4246 21.0561 38.2779 21.1178 38.1473 21.2061C38.0168 21.2945 37.9049 21.4077 37.8181 21.5392L37.2745 22.3647C37.1872 22.4962 37.1266 22.6436 37.0963 22.7986C37.066 22.9535 37.0666 23.1129 37.098 23.2676C37.1294 23.4223 37.1911 23.5693 37.2794 23.7001C37.3677 23.8309 37.481 23.9431 37.6127 24.0301C37.7445 24.117 37.8921 24.1772 38.0471 24.207C38.2021 24.2368 38.3615 24.2358 38.5161 24.2039C38.6707 24.172 38.8175 24.11 38.9481 24.0212C39.0787 23.9325 39.1905 23.8189 39.2771 23.6869L39.8218 22.8614ZM39.3887 26.4682C39.2296 26.1926 39.1864 25.8651 39.2688 25.5577C39.3512 25.2504 39.5522 24.9883 39.8278 24.8292L40.976 24.1657C41.2518 24.0066 41.5794 23.9635 41.8869 24.046C42.1944 24.1284 42.4565 24.3297 42.6156 24.6054C42.7747 24.8811 42.8178 25.2088 42.7353 25.5163C42.6529 25.8238 42.4516 26.0859 42.1759 26.245L41.0276 26.9073C40.7521 27.0664 40.4246 27.1095 40.1172 27.0272C39.8098 26.9448 39.5478 26.7437 39.3887 26.4682ZM34.3733 36.6368L39.6718 35.4478C39.8555 35.4065 40.0269 35.3227 40.1722 35.203C40.3174 35.0833 40.4325 34.9311 40.5081 34.7587C40.5837 34.5863 40.6176 34.3985 40.6072 34.2106C40.5968 34.0226 40.5423 33.8398 40.4481 33.6768L33.6798 21.9568C33.5858 21.7936 33.4547 21.6549 33.2971 21.5519C33.1396 21.4488 32.9599 21.3842 32.7728 21.3635C32.5857 21.3427 32.3963 21.3662 32.2199 21.4322C32.0436 21.4981 31.8852 21.6047 31.7577 21.7432L20.8632 33.5724C20.3964 34.0792 20.1019 34.7207 20.022 35.405C19.9421 36.0894 20.0809 36.7814 20.4183 37.3821C20.7558 37.9828 21.2748 38.4612 21.9008 38.7489C22.5269 39.0366 23.2279 39.1188 23.9035 38.9837C24.3397 40.2348 25.2206 41.2818 26.3786 41.9255C27.5366 42.5693 28.8909 42.7647 30.1837 42.4747C31.4765 42.1847 32.6176 41.4295 33.3897 40.3528C34.1618 39.2761 34.511 37.9531 34.3709 36.6356L34.3733 36.6368ZM32.0001 37.1683C32.0075 37.8554 31.7789 38.5242 31.3524 39.0629C30.9259 39.6016 30.3274 39.9776 29.6569 40.1279C28.9865 40.2783 28.2847 40.1939 27.669 39.8888C27.0533 39.5838 26.561 39.0766 26.2744 38.4521L32.0001 37.1683ZM40.6149 29.2254C40.5959 28.9078 40.7037 28.5957 40.9148 28.3577C41.1258 28.1196 41.4228 27.9751 41.7403 27.956L42.7278 27.896C43.0455 27.8769 43.3579 27.9848 43.596 28.196C43.8342 28.4071 43.9787 28.7043 43.9978 29.022C44.0169 29.3398 43.909 29.6521 43.6978 29.8902C43.4867 30.1284 43.1895 30.273 42.8718 30.292L41.8843 30.352C41.727 30.3615 41.5693 30.3398 41.4204 30.2882C41.2714 30.2367 41.1341 30.1563 41.0162 30.0517C40.8983 29.9471 40.8022 29.8203 40.7333 29.6785C40.6645 29.5367 40.6242 29.3827 40.6149 29.2254Z" fill="white"/>
</svg>
