<svg width="39" height="42" viewBox="0 0 39 42" fill="none" xmlns="http://www.w3.org/2000/svg">
<path d="M38.3283 30.0726L31.0247 20.695C30.912 20.5506 30.7399 20.4665 30.5569 20.4665C30.3739 20.4665 30.2008 20.5506 30.089 20.695L30.0228 20.78L29.5678 20.2964C30.0297 19.4754 30.3907 18.602 30.6449 17.694L32.9119 17.6238C33.1254 17.6182 33.3281 17.5293 33.4768 17.376C33.6254 17.2227 33.7081 17.0174 33.7072 16.8038V12.1699C33.7072 11.7238 33.358 11.3628 32.9119 11.349L30.6449 11.2787C30.3907 10.3707 30.0297 9.49736 29.5678 8.6764L31.1207 7.02361C31.2676 6.86884 31.348 6.66265 31.3447 6.44927C31.3414 6.23589 31.2546 6.03231 31.1029 5.88219L27.826 2.6053C27.6756 2.45405 27.4721 2.36754 27.2589 2.36421C27.0456 2.36088 26.8395 2.44101 26.6846 2.5875L25.0318 4.14039C24.2095 3.67825 23.3348 3.3163 22.4265 3.06226L22.3582 0.796234C22.3528 0.582642 22.264 0.37966 22.1107 0.230815C21.9574 0.0819698 21.7519 -0.000888491 21.5383 7.18659e-06H16.9043C16.4582 7.18659e-06 16.0972 0.34916 16.0844 0.796234L16.0161 3.06226C15.1061 3.31646 14.2318 3.67847 13.4088 4.14137L11.759 2.5875C11.6042 2.44044 11.3979 2.35986 11.1844 2.363C10.9709 2.36614 10.7671 2.45276 10.6166 2.60431L7.33971 5.8812C7.18817 6.03165 7.10155 6.23546 7.0984 6.44898C7.09526 6.6625 7.17584 6.86877 7.3229 7.02361L8.87678 8.67344C8.41388 9.49637 8.05186 10.3707 7.79767 11.2807L5.53164 11.349C5.31804 11.3543 5.11506 11.4432 4.96622 11.5965C4.81737 11.7498 4.73451 11.9553 4.73541 12.1689V16.8029C4.73541 17.2489 5.08555 17.61 5.53164 17.6228L7.79767 17.6911C8.05186 18.601 8.41487 19.4764 8.87678 20.2983L8.42772 20.7761L8.36442 20.695C8.25166 20.5506 8.07956 20.4665 7.89658 20.4665C7.71359 20.4665 7.5405 20.5506 7.42873 20.695L0.125209 30.0726C-0.0142541 30.2517 -0.0389816 30.494 0.0599285 30.6978C0.158839 30.9015 0.36655 31.0311 0.593054 31.0311H4.40999V37.0298C4.40999 37.3572 4.67606 37.6232 5.00346 37.6232C5.33085 37.6232 5.59692 37.3572 5.59692 37.0298V30.4376C5.59692 30.1102 5.33085 29.8442 5.00346 29.8442H1.80767L7.89658 22.0263L13.9855 29.8442H10.7897C10.4623 29.8442 10.1962 30.1102 10.1962 30.4376V37.0298C10.1962 37.3572 10.4623 37.6232 10.7897 37.6232C11.1171 37.6232 11.3832 37.3572 11.3832 37.0298V31.0311H15.2001C15.4266 31.0311 15.6333 30.9015 15.7332 30.6978C15.7362 30.6918 15.7382 30.6849 15.7411 30.679V41.4065C15.7411 41.7339 16.0072 42 16.3346 42C16.662 42 16.9281 41.7339 16.9281 41.4065V23.8641C16.9281 23.5367 16.662 23.2706 16.3346 23.2706H13.1388L19.2267 15.4527L25.3156 23.2706H22.1199C21.7925 23.2706 21.5264 23.5367 21.5264 23.8641V41.4065C21.5264 41.7339 21.7925 42 22.1199 42C22.4472 42 22.7133 41.7339 22.7133 41.4065V30.68C22.7163 30.6859 22.7183 30.6928 22.7212 30.6987C22.77 30.7986 22.8459 30.8828 22.9401 30.9417C23.0343 31.0006 23.1432 31.0319 23.2543 31.0321H27.0713V37.0308C27.0713 37.3582 27.3374 37.6242 27.6648 37.6242C27.9921 37.6242 28.2582 37.3582 28.2582 37.0308V30.4376C28.2582 30.1102 27.9921 29.8442 27.6648 29.8442H24.469L30.5579 22.0263L36.6468 29.8442H33.45C33.1226 29.8442 32.8565 30.1102 32.8565 30.4376V37.0298C32.8565 37.3572 33.1226 37.6232 33.45 37.6232C33.7774 37.6232 34.0435 37.3572 34.0435 37.0298V31.0311H37.8604C38.0869 31.0311 38.2936 30.9015 38.3935 30.6978C38.4934 30.494 38.4677 30.2517 38.3283 30.0726ZM13.8668 19.8424C12.4365 18.4121 11.6482 16.5101 11.6482 14.4864C11.6482 12.4637 12.4356 10.5616 13.8668 9.1304C16.8202 6.17793 21.6243 6.17694 24.5778 9.1304C26.008 10.5606 26.7963 12.4627 26.7963 14.4864C26.7963 16.5101 26.009 18.4111 24.5778 19.8424C24.4977 19.9225 24.4156 19.9996 24.3325 20.0758L22.5897 17.8375C23.4818 16.9413 23.9734 15.7514 23.9734 14.4864C23.9734 13.2174 23.4789 12.0245 22.5818 11.1274C20.7292 9.27481 17.7154 9.27481 15.8638 11.1274C14.9667 12.0245 14.4721 13.2174 14.4721 14.4864C14.4721 15.7544 14.9657 16.9463 15.8608 17.8434L14.118 20.0807C14.032 20.0026 13.9479 19.9235 13.8668 19.8424ZM19.2267 13.8929C19.0437 13.8929 18.8707 13.977 18.7589 14.1214L16.5977 16.8958C15.9914 16.2371 15.6581 15.3865 15.6581 14.4854C15.6581 13.5339 16.029 12.6387 16.7016 11.9652C18.0912 10.5755 20.3523 10.5755 21.742 11.9652C22.4146 12.6387 22.7855 13.5329 22.7855 14.4854C22.7855 15.3845 22.4552 16.2312 21.8518 16.8899L19.6956 14.1204C19.6396 14.0497 19.5683 13.9925 19.4871 13.9531C19.406 13.9137 19.317 13.8931 19.2267 13.8929ZM22.7855 30.0726C22.7558 30.1112 22.7321 30.1528 22.7133 30.1953V24.4575H26.5303C26.7568 24.4575 26.9635 24.3279 27.0634 24.1242C27.1633 23.9204 27.1376 23.6781 26.9981 23.4991L25.0634 21.0145C25.1841 20.9066 25.3028 20.7949 25.4165 20.6811C27.0713 19.0264 27.9823 16.8266 27.9823 14.4864C27.9823 12.1462 27.0713 9.94641 25.4165 8.29164C22.0012 4.87628 16.4424 4.87628 13.027 8.29164C11.3723 9.94641 10.4613 12.1462 10.4613 14.4864C10.4613 16.8266 11.3723 19.0264 13.027 20.6811C13.1438 20.7972 13.2636 20.9104 13.3861 21.0204L11.4554 23.5001C11.3159 23.6791 11.2912 23.9214 11.3901 24.1252C11.489 24.3289 11.6967 24.4585 11.9232 24.4585H15.7401V30.1963C15.7214 30.1528 15.6976 30.1112 15.6679 30.0736L9.16559 21.7246L9.92819 20.9155C10.1814 20.6465 10.2259 20.2519 10.037 19.9334C9.5187 19.06 9.12801 18.1174 8.87678 17.1312C8.78578 16.7732 8.47619 16.5249 8.10627 16.514L5.92332 16.4488V12.526L8.10627 12.4607C8.47619 12.4498 8.78578 12.2016 8.87678 11.8435C9.12801 10.8574 9.51771 9.91476 10.037 9.04138C10.2259 8.72289 10.1824 8.32923 9.92918 8.06019L8.43168 6.46972L11.2051 3.69628L12.7946 5.19279C13.0636 5.44699 13.4583 5.49051 13.7758 5.30159C14.6492 4.78231 15.5918 4.39261 16.5779 4.14137C16.936 4.05038 17.1842 3.7398 17.1951 3.37086L17.2604 1.18792H21.1822L21.2475 3.36988C21.2583 3.7398 21.5066 4.04939 21.8647 4.14039C22.8498 4.39162 23.7914 4.78132 24.6648 5.29862C24.9823 5.48655 25.376 5.44402 25.645 5.19081L27.2384 3.69529L30.0129 6.46972L28.5164 8.06217C28.2632 8.33121 28.2206 8.72487 28.4086 9.04336C28.9259 9.91575 29.3156 10.8564 29.5668 11.8405C29.6578 12.1976 29.9674 12.4459 30.3363 12.4577L32.5202 12.525V16.4488L30.3353 16.516C29.9664 16.5279 29.6578 16.7762 29.5658 17.1332C29.3156 18.1174 28.9259 19.058 28.4076 19.9304C28.2186 20.2479 28.2622 20.6426 28.5154 20.9116L29.2829 21.7286L22.7855 30.0726Z" fill="#3E96F4"/>
</svg>
