<svg width="163" height="60" viewBox="0 0 163 60" fill="none" xmlns="http://www.w3.org/2000/svg">
<g clip-path="url(#clip0_0_12)">
<path d="M50.9896 17.7899C51.0186 12.6262 51.0508 7.4609 50.9783 2.29721C50.9558 0.735131 51.286 0.0446104 53.0726 0.0542232C64.2761 0.131126 75.4818 0.131126 86.6897 0.0542232C88.3361 0.0462125 88.6551 0.683863 88.6325 2.137C88.5471 7.75249 88.56 13.3696 88.5358 18.9867C84.6406 18.9995 80.7453 19.0203 76.8501 19.0251C71.5082 19.0251 71.6113 19.0251 71.5565 24.2481C71.5356 26.2572 72.2895 26.6176 74.0809 26.584C78.8799 26.4959 83.6837 26.584 88.4843 26.6048C88.5036 29.4118 88.4199 32.2267 88.581 35.0273C88.6841 36.804 87.9511 37.1341 86.3675 37.0972C82.3611 37.0059 78.3434 37.2126 74.3451 37.0123C71.9802 36.8953 71.484 37.7397 71.5388 39.9218C71.6838 45.808 71.5178 51.7007 71.6306 57.5885C71.6644 59.4038 71.0797 59.878 69.3189 59.8443C63.9464 59.7402 58.5675 59.7114 53.195 59.8556C51.249 59.9068 50.9638 59.1442 50.9735 57.4908C51.0315 47.9773 51.0138 38.4638 50.9848 28.9503M49.4318 31.4433C49.158 33.2441 48.4653 33.7455 46.653 33.7295C36.997 33.6366 27.3377 33.76 17.6834 33.6318C15.3217 33.6014 14.8191 34.2134 15.1622 36.5156C16.2512 43.7845 20.3753 47.5704 27.7566 47.9277C32.8085 48.176 37.5592 47.2868 41.8813 44.6449C43.1701 43.8582 43.5905 44.1642 44.2978 45.3851C45.3255 47.1474 46.1326 49.0411 47.1443 50.9461C48.1866 52.9039 48.0609 53.8956 46.0537 54.9514C36.6281 59.9164 26.7498 61.259 16.4687 58.404C8.414 56.161 3.95975 50.2476 1.77531 42.5941C-0.462393 34.7988 -0.586333 26.5534 1.41607 18.6951C4.29966 7.14849 12.7797 0.637405 25.2081 0.043012C28.1214 -0.111282 31.0427 0.109506 33.8991 0.699889C43.0815 2.64168 48.1205 7.32473 49.2031 20.6385L49.4318 31.4433ZM25.7784 24.4804C28.6893 24.4804 31.5987 24.498 34.5081 24.4676C35.2588 24.4676 36.2495 24.7704 36.4815 23.58C37.5205 18.2817 33.1549 12.4932 28.2077 11.9148C20.8473 11.0529 15.2363 17 15.3813 22.8911C15.4119 24.1087 15.5682 24.514 16.778 24.4932C19.7776 24.4468 22.7788 24.4788 25.7784 24.4804Z" fill="#045BB7"/>
<path d="M101.655 0.171421C115.348 0.142582 129.041 0.152194 142.734 0.065679C144.184 0.0576683 144.801 0.546321 145.21 1.8841C150.921 20.5618 156.672 39.2267 162.464 57.8788C163.055 59.7725 162.505 59.9872 160.828 59.9712C154.272 59.9071 147.711 59.8542 141.157 59.9984C139.097 60.0433 138.096 59.4104 137.956 57.4125C137.823 55.5076 136.901 55.1007 134.895 54.9741C133.558 54.8908 132.231 54.9741 130.891 54.9741C127.865 54.9741 126.037 54.87 125.979 58.5228C125.968 59.2246 125.673 59.9247 124.664 59.9279C123.786 59.9279 123.086 59.8013 122.609 58.9506C118.71 51.9941 114.794 45.0478 110.859 38.1116C110.25 37.043 110.963 36.7001 111.563 36.1506C118.551 29.742 120.785 19.2897 117.066 10.5501C114.338 4.14151 108.787 1.25767 101.654 0.323625L101.655 0.171421ZM131.651 33.177C130.966 36.4101 130.246 39.1642 129.682 42.8844C129.476 44.2462 131.409 43.9049 132.352 43.9081C133.127 43.9081 134.652 43.7479 134.382 42.7722C133.515 39.616 132.779 36.3653 131.651 33.177Z" fill="#025AB7"/>
<path d="M99.8495 59.8142C96.3827 59.8142 93.4911 59.7757 90.5994 59.8334C89.3284 59.8574 89.1061 59.2278 89.1109 58.1576C89.1399 52.5757 89.4444 47.0371 89.6345 41.2054C92.9401 47.2246 96.2442 53.2454 99.8495 59.8142Z" fill="#0C60B9"/>
<path d="M88.56 26.7076L88.5503 18.9725C90.3143 18.9244 92.0799 18.8123 93.8438 18.8459C96.3505 18.8972 97.5893 20.3135 97.5973 22.9025C97.6054 25.4916 96.4278 26.8806 93.8326 26.8053C92.075 26.7525 90.3175 26.7396 88.56 26.7076Z" fill="#0B60B9"/>
</g>
<defs>
<clipPath id="clip0_0_12">
<rect width="162.692" height="60" fill="white"/>
</clipPath>
</defs>
</svg>
