<svg width="94" height="83" viewBox="0 0 94 83" fill="none" xmlns="http://www.w3.org/2000/svg">
<g id="Frame 5">
<path id="Union" fill-rule="evenodd" clip-rule="evenodd" d="M68.9004 59.0221C68.8009 58.9226 68.6018 58.823 68.4027 58.823H59.6416V56.2345C61.4336 55.2389 62.8274 53.8451 63.823 52.1527C64.8186 50.4602 65.4159 48.469 65.4159 46.3783V44.3872C65.4159 44.1881 65.3164 43.9889 65.2168 43.8894C65.1173 43.7898 64.9181 43.6903 64.719 43.6903H43.6128C43.4137 43.6903 43.2146 43.7898 43.115 43.8894C43.0155 43.9889 42.9159 44.1881 42.9159 44.3872V46.3783C42.9159 48.3695 43.4137 50.3606 44.5089 52.1527C45.5044 53.8451 46.9978 55.3385 48.6903 56.2345V58.823H44.4093C43.4137 58.823 42.4181 58.4248 41.7212 57.7279C41.0243 57.031 40.6261 56.0354 40.6261 55.0398V34.7301H45.8031V37.4181C45.8031 37.6173 45.9027 37.8164 46.0022 37.9159C46.1018 38.0155 46.3009 38.115 46.5 38.115H53.2699V40.8031C53.2699 41.0022 53.3695 41.2013 53.469 41.3009C53.7677 41.5996 54.2655 41.5996 54.5642 41.3009C54.6637 41.2013 54.7633 41.0022 54.7633 40.8031V38.115H61.5332C61.7323 38.115 61.9314 38.0155 62.031 37.9159C62.1305 37.8164 62.2301 37.6173 62.2301 37.4181V34.7301H65.0177C65.2168 34.7301 65.4159 34.6305 65.5155 34.531C65.615 34.4314 65.7146 34.2323 65.7146 34.0332V24.3761C65.7146 22.9823 65.1173 21.5885 64.1217 20.5929C63.1261 19.5973 61.8319 19 60.3385 19H29.3761C27.9823 19 26.5885 19.5973 25.5929 20.5929C24.5973 21.5885 24 22.8827 24 24.3761V33.9336C24 34.1327 24.0996 34.3319 24.1991 34.4314C24.2987 34.531 24.4978 34.6305 24.6969 34.6305H30.3717C30.6704 34.6305 30.969 34.7301 31.1681 34.8296C31.4668 34.9292 31.6659 35.1283 31.865 35.3274C32.0172 35.4795 32.1112 35.6898 32.1915 35.8693C32.2163 35.9248 32.2398 35.9773 32.2633 36.0243C32.3628 36.323 32.3628 36.6217 32.3628 36.8208L32.2633 37.8164L30.073 56.135C29.9735 56.8319 29.6748 57.5288 29.0774 58.0265C28.5796 58.5243 27.7832 58.823 27.0863 58.823C26.8872 58.823 26.6881 58.9226 26.5885 59.0221C26.4889 59.1217 26.3894 59.3208 26.3894 59.5199V63.3031C26.3894 63.5022 26.4889 63.7013 26.5885 63.8009C26.6881 63.9004 26.8872 64 27.0863 64H68.3031C68.5022 64 68.7013 63.9004 68.8009 63.8009C68.9004 63.7013 69 63.5022 69 63.3031V59.5199C69.0996 59.3208 69 59.1217 68.9004 59.0221ZM64.4204 24.3761V33.1372H25.5929V24.3761C25.5929 23.3805 25.9912 22.385 26.6881 21.6881C27.385 20.9912 28.3805 20.5929 29.3761 20.5929H60.6372C61.6327 20.5929 62.6283 20.9912 63.3252 21.6881C64.0221 22.4845 64.4204 23.3805 64.4204 24.3761ZM60.9358 34.7301V36.6217H47.2965V34.7301H60.9358ZM58.0487 56.9314V58.823H50.0841V56.9314C52.6726 57.927 55.4602 57.927 58.0487 56.9314ZM54.0664 56.2345C52.7721 56.2345 51.4779 55.9358 50.2832 55.4381C49.0885 54.9403 47.9934 54.2434 47.0973 53.3473C46.2013 52.4513 45.5044 51.3562 45.0066 50.1615C44.5089 48.9668 44.3097 47.6726 44.3097 46.3783V45.0841H63.823V46.3783C63.823 47.6726 63.6239 48.9668 63.1261 50.1615C62.6283 51.3562 61.9314 52.4513 61.0354 53.3473C60.1394 54.2434 59.0442 54.9403 57.8496 55.4381C56.6549 55.9358 55.3606 56.2345 54.0664 56.2345ZM34.0553 37.1195C34.1549 36.2235 33.9558 35.427 33.458 34.7301H39.0332V55.0398C39.0332 56.4336 39.6305 57.8274 40.6261 58.823C41.6217 59.8186 42.9159 60.4159 44.4093 60.4159H67.6062V62.7058H27.8827V60.4159C28.7788 60.2168 29.6748 59.8186 30.3717 59.1217C31.0686 58.4248 31.4668 57.5288 31.5664 56.5332L33.9558 38.115L34.0553 37.1195ZM32.3628 24.6748C31.9646 24.6748 31.4668 24.7744 31.1682 24.9735C30.7699 25.2722 30.4713 25.5708 30.3717 25.9691C30.073 26.4668 30.073 26.8651 30.1726 27.3629C30.2721 27.7611 30.4713 28.1593 30.7699 28.5575C31.0686 28.8562 31.4668 29.0553 31.9646 29.1549H32.3628C32.6615 29.1549 32.9602 29.0553 33.2589 28.9558C33.6571 28.7567 34.0553 28.458 34.2544 28.1593C34.5531 27.7611 34.6527 27.3629 34.6527 26.8651C34.6527 26.2677 34.4536 25.6704 33.9558 25.2721C33.5575 24.8739 32.9602 24.6748 32.3628 24.6748ZM31.6659 26.7655C31.6659 26.666 31.7655 26.4668 31.8651 26.3673C31.9646 26.2677 32.0642 26.1682 32.2633 26.1682H32.3628H32.6615C32.6947 26.2014 32.739 26.2345 32.7832 26.2677C32.8717 26.3341 32.9602 26.4005 32.9602 26.4668C33.0597 26.5664 33.1593 26.7655 33.1593 26.8651C33.1593 27.0642 33.0597 27.2633 32.9602 27.3629C32.7611 27.562 32.2633 27.6615 31.9646 27.4624C31.8651 27.4624 31.7655 27.3629 31.6659 27.1637V26.7655ZM62.3298 46.7764C62.5289 46.7764 62.728 46.8759 62.8275 47.075C63.0267 47.2742 63.0267 47.4733 62.9271 47.5728C62.6284 49.8626 61.4337 51.9534 59.6417 53.3472C59.5884 53.3738 59.5422 53.4005 59.4993 53.4252L59.4993 53.4253C59.3821 53.4929 59.2897 53.5463 59.1439 53.5463C59.0444 53.5463 58.8452 53.5463 58.7457 53.4467C58.6461 53.3472 58.5466 53.2476 58.447 53.0485V52.5507C58.5466 52.3516 58.6461 52.252 58.7457 52.1525C60.2391 50.9578 61.1351 49.2653 61.4337 47.3737C61.4337 47.1746 61.5333 46.9755 61.7324 46.8759C61.9315 46.7764 62.1306 46.7764 62.3298 46.7764ZM61.6326 26.1685H46.4999C46.3008 26.1685 46.1017 26.268 46.0021 26.3676C45.9025 26.4671 45.803 26.6662 45.803 26.8654C45.803 27.0645 45.9025 27.2636 46.0021 27.3631C46.1017 27.4627 46.3008 27.5623 46.4999 27.5623H61.6326C61.8317 27.5623 62.0309 27.4627 62.1304 27.3631C62.23 27.2636 62.3295 27.0645 62.3295 26.8654C62.3295 26.6662 62.23 26.4671 62.1304 26.3676C62.0309 26.268 61.8317 26.1685 61.6326 26.1685ZM38.5354 25.073C38.9336 24.7744 39.3318 24.6748 39.8296 24.6748C40.427 24.6748 41.0243 24.8739 41.4226 25.2721C41.9203 25.6704 42.1195 26.2677 42.1195 26.8651C42.1195 27.3629 42.0199 27.7611 41.7212 28.1593C41.5221 28.458 41.1239 28.7567 40.7257 28.9558C40.427 29.0553 40.1283 29.1549 39.8296 29.1549H39.4314C38.9336 29.0553 38.5354 28.9558 38.2367 28.5575C37.938 28.1593 37.7389 27.7611 37.6394 27.3629C37.5398 26.9646 37.5398 26.4668 37.7389 26.0686C37.8385 25.6704 38.1372 25.3717 38.5354 25.073ZM39.3318 26.3673C39.2323 26.4668 39.1327 26.666 39.1327 26.7655C39.0633 26.8349 39.0907 26.9527 39.1136 27.0515C39.1236 27.0943 39.1327 27.1336 39.1327 27.1637C39.2323 27.3629 39.3318 27.4624 39.3318 27.4624C39.6305 27.6615 40.1283 27.562 40.3274 27.3629C40.427 27.2633 40.5265 27.0642 40.5265 26.8651C40.5265 26.7655 40.5265 26.5664 40.427 26.4668C40.427 26.4005 40.3385 26.3341 40.25 26.2677C40.2057 26.2345 40.1615 26.2014 40.1283 26.1682H39.8296H39.7301C39.531 26.1682 39.4314 26.2677 39.3318 26.3673Z" fill="url(#paint0_linear_1_1423)"/>
</g>
<defs>
<linearGradient id="paint0_linear_1_1423" x1="24" y1="19" x2="69.2069" y2="56.8358" gradientUnits="userSpaceOnUse">
<stop stop-color="#FE5B52"/>
<stop offset="1" stop-color="#3D96F5"/>
</linearGradient>
</defs>
</svg>
