<svg width="64" height="64" viewBox="0 0 64 64" fill="none" xmlns="http://www.w3.org/2000/svg">
<rect width="64" height="64" fill="#EDF5FC"/>
<path d="M44.4548 37.3024C42.3571 32.8498 38.9546 26.8283 35.5823 21.9296C34.6569 20.5959 33.2833 20.0076 31.9179 20C30.5524 20.0076 29.1789 20.5934 28.2534 21.9296C24.8832 26.8283 21.4786 32.8498 19.3809 37.3024C18.0644 39.8184 20.3341 43.496 23.5227 43.6917C29.1119 44.1027 34.7238 44.1027 40.313 43.6917C43.5011 43.496 45.7713 39.8184 44.4548 37.3024ZM31.9179 39.9789C31.59 39.9789 31.2695 39.8816 30.9969 39.6995C30.7243 39.5174 30.5119 39.2585 30.3864 38.9556C30.261 38.6527 30.2281 38.3194 30.2921 37.9978C30.356 37.6763 30.5139 37.3809 30.7457 37.1491C30.9776 36.9173 31.2729 36.7594 31.5945 36.6954C31.916 36.6315 32.2493 36.6643 32.5522 36.7898C32.8551 36.9152 33.114 37.1277 33.2961 37.4003C33.4783 37.6729 33.5755 37.9934 33.5755 38.3212C33.5755 38.7609 33.4009 39.1825 33.09 39.4933C32.7791 39.8042 32.3575 39.9789 31.9179 39.9789ZM33.6593 26.8086C33.5815 29.2681 33.5042 31.7274 33.4271 34.1865C33.4097 34.5751 33.2431 34.942 32.962 35.2108C32.6808 35.4796 32.3068 35.6297 31.9179 35.6297C31.5289 35.6297 31.1549 35.4796 30.8738 35.2108C30.5926 34.942 30.426 34.5751 30.4086 34.1865C30.3316 31.727 30.2542 29.2678 30.1765 26.8086C30.1467 26.0013 30.9258 25.3175 31.9179 25.318C32.9099 25.3185 33.689 26.0018 33.6593 26.8086Z" fill="#3E96F4"/>
</svg>
