<svg width="18" height="24" viewBox="0 0 18 24" fill="none" xmlns="http://www.w3.org/2000/svg">
<g clip-path="url(#clip0_1104_5084)">
<path d="M16.2954 4.4456L5.67549 13.2959M8.17744 15.809L10.6015 18.2241C10.7503 18.3767 10.9365 18.4878 11.1414 18.5463C11.3464 18.6049 11.5631 18.6089 11.7701 18.558C11.9782 18.5094 12.1703 18.4082 12.328 18.2639C12.4856 18.1197 12.6036 17.9374 12.6705 17.7344L16.6505 5.80342C16.7343 5.57984 16.7521 5.33685 16.7016 5.10345C16.6512 4.87005 16.5346 4.6561 16.3659 4.48713C16.1972 4.31816 15.9834 4.20131 15.75 4.15053C15.5167 4.09975 15.2737 4.11718 15.05 4.20075L3.119 8.18183C2.90907 8.25349 2.72207 8.37987 2.57729 8.54793C2.43251 8.71599 2.3352 8.91964 2.2954 9.13787C2.25451 9.33652 2.26362 9.54222 2.3219 9.73649C2.38018 9.93075 2.48581 10.1075 2.62929 10.2508L5.67549 13.297L5.57532 17.1546L8.17744 15.809Z" stroke="white" stroke-linecap="round" stroke-linejoin="round"/>
</g>
<defs>
<clipPath id="clip0_1104_5084">
<rect width="17" height="17" fill="white" transform="translate(1 3)"/>
</clipPath>
</defs>
</svg>
