<svg width="64" height="64" viewBox="0 0 64 64" fill="none" xmlns="http://www.w3.org/2000/svg">
<rect width="64" height="64" fill="white"/>
<path d="M32 20C29.6266 20 27.3066 20.7038 25.3332 22.0224C23.3598 23.3409 21.8217 25.2151 20.9134 27.4078C20.0052 29.6005 19.7676 32.0133 20.2306 34.3411C20.6936 36.6689 21.8365 38.807 23.5147 40.4853C25.193 42.1635 27.3311 43.3064 29.6589 43.7694C31.9867 44.2324 34.3995 43.9948 36.5922 43.0865C38.7849 42.1783 40.6591 40.6402 41.9776 38.6668C43.2962 36.6934 44 34.3734 44 32C44 28.8174 42.7357 25.7652 40.4853 23.5147C38.2349 21.2643 35.1826 20 32 20ZM25.8359 25.8251C26.1406 25.5205 26.5287 25.313 26.9513 25.229C27.3738 25.1449 27.8118 25.1881 28.2098 25.3529C28.6078 25.5178 28.948 25.797 29.1874 26.1552C29.4267 26.5135 29.5545 26.9346 29.5545 27.3654C29.5545 27.7962 29.4267 28.2174 29.1874 28.5756C28.948 28.9338 28.6078 29.213 28.2098 29.3779C27.8118 29.5428 27.3738 29.5859 26.9513 29.5019C26.5287 29.4178 26.1406 29.2104 25.8359 28.9058C25.6336 28.7035 25.4732 28.4633 25.3637 28.1991C25.2542 27.9348 25.1979 27.6515 25.1979 27.3654C25.1979 27.0794 25.2542 26.7961 25.3637 26.5318C25.4732 26.2675 25.6336 26.0274 25.8359 25.8251ZM29.6868 37.3783C29.2783 37.7868 28.7242 38.0163 28.1464 38.0163C27.5687 38.0163 27.0146 37.7868 26.6061 37.3783C26.1976 36.9698 25.9681 36.4157 25.9681 35.838C25.9681 35.2602 26.1976 34.7061 26.6061 34.2976L34.3078 26.5953C34.7164 26.1866 35.2706 25.9569 35.8486 25.9568C36.4265 25.9568 36.9808 26.1863 37.3895 26.5949C37.7982 27.0035 38.0278 27.5578 38.0279 28.1357C38.028 28.7136 37.7984 29.2679 37.3898 29.6766L29.6868 37.3783ZM38.1614 38.1485C37.8567 38.4531 37.4686 38.6606 37.046 38.7446C36.6235 38.8286 36.1855 38.7855 35.7875 38.6206C35.3895 38.4557 35.0493 38.1765 34.8099 37.8183C34.5706 37.4601 34.4428 37.039 34.4428 36.6081C34.4428 36.1773 34.5706 35.7562 34.8099 35.3979C35.0493 35.0397 35.3895 34.7605 35.7875 34.5957C36.1855 34.4308 36.6235 34.3876 37.046 34.4717C37.4686 34.5557 37.8567 34.7632 38.1614 35.0678C38.3635 35.2702 38.5238 35.5104 38.6331 35.7748C38.7424 36.0392 38.7986 36.3225 38.7984 36.6086C38.7982 36.8946 38.7417 37.1779 38.632 37.4421C38.5224 37.7063 38.3617 37.9463 38.1593 38.1485H38.1614Z" fill="#3E96F4"/>
</svg>
