<svg width="63" height="72" viewBox="0 0 63 72" fill="none" xmlns="http://www.w3.org/2000/svg">
<path d="M28.1359 6.32069L30.0646 4.392V14.1383C30.0646 14.4793 30.2 14.8064 30.4412 15.0475C30.6823 15.2886 31.0094 15.4241 31.3504 15.4241C31.6914 15.4241 32.0184 15.2886 32.2596 15.0475C32.5007 14.8064 32.6362 14.4793 32.6362 14.1383V4.38557L34.5649 6.31426C34.6845 6.43459 34.8267 6.53006 34.9834 6.59516C35.1401 6.66026 35.3081 6.69371 35.4778 6.69357C35.7332 6.69506 35.9832 6.62045 36.196 6.47927C36.4089 6.33809 36.5748 6.13673 36.6727 5.90086C36.7707 5.66498 36.7962 5.40529 36.7459 5.15489C36.6957 4.90448 36.572 4.67471 36.3907 4.49486L32.2569 0.373899C32.016 0.134419 31.6901 0 31.3504 0C31.0107 0 30.6848 0.134419 30.4439 0.373899L26.3101 4.49486C26.0679 4.73698 25.9319 5.06537 25.9319 5.40778C25.9319 5.75019 26.0679 6.07857 26.3101 6.32069C26.5522 6.56281 26.8806 6.69883 27.223 6.69883C27.5654 6.69883 27.8938 6.56281 28.1359 6.32069ZM34.5649 65.6729L32.6362 67.6016V57.8553C32.6362 57.5142 32.5007 57.1872 32.2596 56.9461C32.0184 56.7049 31.6914 56.5695 31.3504 56.5695C31.0094 56.5695 30.6823 56.7049 30.4412 56.9461C30.2 57.1872 30.0646 57.5142 30.0646 57.8553V67.608L28.1359 65.6793C28.0164 65.5594 27.8745 65.4642 27.7183 65.3992C27.562 65.3342 27.3945 65.3005 27.2253 65.3002C27.056 65.2999 26.8884 65.333 26.7319 65.3975C26.5754 65.462 26.4332 65.5566 26.3133 65.6761C26.1934 65.7956 26.0982 65.9375 26.0332 66.0937C25.9681 66.25 25.9345 66.4175 25.9342 66.5867C25.9339 66.756 25.9669 66.9236 26.0314 67.0801C26.0959 67.2366 26.1906 67.3788 26.3101 67.4987L30.4439 71.6261C30.6848 71.8656 31.0107 72 31.3504 72C31.6901 72 32.016 71.8656 32.2569 71.6261L36.3907 67.4987C36.5106 67.3788 36.6057 67.2365 36.6705 67.0799C36.7354 66.9232 36.7688 66.7553 36.7688 66.5858C36.7688 66.4163 36.7354 66.2484 36.6705 66.0917C36.6057 65.9351 36.5106 65.7928 36.3907 65.6729C36.2708 65.553 36.1285 65.4579 35.9718 65.393C35.8152 65.3281 35.6473 65.2947 35.4778 65.2947C35.3082 65.2947 35.1403 65.3281 34.9837 65.393C34.8271 65.4579 34.6847 65.553 34.5649 65.6729ZM13.0664 23.9553L4.61875 19.0758L7.26105 18.3686C7.4358 18.3378 7.6023 18.2712 7.75006 18.173C7.89782 18.0748 8.02365 17.947 8.11963 17.7978C8.21561 17.6485 8.27967 17.481 8.30777 17.3059C8.33587 17.1307 8.3274 16.9515 8.2829 16.7798C8.2384 16.608 8.15883 16.4473 8.0492 16.3078C7.93957 16.1683 7.80225 16.053 7.64588 15.9691C7.48951 15.8852 7.31748 15.8347 7.14061 15.8205C6.96374 15.8064 6.78585 15.829 6.61815 15.887L0.973523 17.3978C0.806384 17.4386 0.649138 17.5126 0.5111 17.6153C0.373061 17.718 0.257038 17.8473 0.169903 17.9957C0.00291565 18.2927 -0.0431365 18.6427 0.0413238 18.9729L1.55856 24.6175C1.63205 24.8904 1.79341 25.1315 2.0177 25.3035C2.24199 25.4755 2.51671 25.5688 2.79935 25.569C2.91232 25.5695 3.02482 25.5543 3.13366 25.524C3.46262 25.4352 3.74287 25.2194 3.91284 24.924C4.08281 24.6287 4.12859 24.278 4.04014 23.9489L3.33295 21.3066L11.7806 26.1798C11.9759 26.2931 12.1977 26.3529 12.4235 26.3533C12.7061 26.3528 12.9807 26.2592 13.2048 26.087C13.4289 25.9148 13.59 25.6735 13.6632 25.4005C13.7364 25.1275 13.7176 24.838 13.6097 24.5768C13.5018 24.3156 13.3109 24.0972 13.0664 23.9553ZM61.1422 47.376C61.0365 47.0704 60.8196 46.8158 60.5346 46.663C60.2496 46.5101 59.9175 46.4703 59.6045 46.5514C59.2914 46.6325 59.0204 46.8286 58.8455 47.1006C58.6706 47.3726 58.6046 47.7005 58.6606 48.0189L59.3678 50.6613L50.9201 45.8138C50.6263 45.6601 50.2844 45.6259 49.9659 45.7183C49.6474 45.8107 49.3769 46.0226 49.2109 46.3097C49.045 46.5968 48.9964 46.9369 49.0753 47.259C49.1542 47.5812 49.3545 47.8603 49.6343 48.0382L58.082 52.9178L55.4397 53.625C55.1398 53.7065 54.8796 53.8938 54.7071 54.1523C54.5347 54.4109 54.4617 54.7231 54.5017 55.0313C54.5417 55.3395 54.6919 55.6228 54.9246 55.8287C55.1574 56.0347 55.4568 56.1494 55.7676 56.1516C55.8806 56.1525 55.9931 56.1373 56.1019 56.1066L61.7465 54.5958C61.9102 54.5526 62.0637 54.4776 62.1983 54.375C62.3329 54.2724 62.4459 54.1443 62.5308 53.9979C62.6978 53.7008 62.7439 53.3508 62.6594 53.0207L61.1422 47.376ZM11.7806 45.8138L3.33295 50.687L4.04014 48.0447C4.0981 47.877 4.12073 47.6991 4.1066 47.5222C4.09247 47.3453 4.04188 47.1733 3.95802 47.0169C3.87416 46.8606 3.75885 46.7232 3.61933 46.6136C3.47982 46.504 3.31912 46.4244 3.14735 46.3799C2.97559 46.3354 2.79647 46.327 2.62127 46.355C2.44608 46.3831 2.27859 46.4472 2.12936 46.5432C1.98012 46.6392 1.85237 46.765 1.75413 46.9128C1.6559 47.0605 1.58931 47.227 1.55856 47.4018L0.0413238 53.0207C-0.0431365 53.3508 0.00291565 53.7008 0.169903 53.9979C0.254857 54.1443 0.367872 54.2724 0.502466 54.375C0.63706 54.4776 0.790585 54.5526 0.954236 54.5958L6.59887 56.1066C6.70762 56.1373 6.82017 56.1525 6.93317 56.1516C7.24393 56.1494 7.54337 56.0347 7.7761 55.8287C8.00882 55.6228 8.15908 55.3395 8.19907 55.0313C8.23907 54.7231 8.16609 54.4109 7.99364 54.1523C7.8212 53.8938 7.56095 53.7065 7.26105 53.625L4.61875 52.9178L13.0664 48.0382C13.3463 47.8603 13.5466 47.5812 13.6255 47.259C13.7044 46.9369 13.6558 46.5968 13.4898 46.3097C13.3238 46.0226 13.0534 45.8107 12.7349 45.7183C12.4164 45.6259 12.0745 45.6601 11.7806 45.8138ZM50.2837 26.3533C50.5095 26.3529 50.7312 26.2931 50.9266 26.1798L59.3742 21.3066L58.667 23.9489C58.5786 24.278 58.6244 24.6287 58.7943 24.924C58.9643 25.2194 59.2446 25.4352 59.5735 25.524C59.6824 25.5543 59.7948 25.5695 59.9078 25.569C60.1905 25.5688 60.4652 25.4755 60.6895 25.3035C60.9138 25.1315 61.0751 24.8904 61.1486 24.6175L62.6659 18.9729C62.7503 18.6427 62.7043 18.2927 62.5373 17.9957C62.4523 17.8493 62.3393 17.7212 62.2047 17.6186C62.0701 17.516 61.9166 17.4409 61.7529 17.3978L56.1083 15.887C55.9406 15.829 55.7627 15.8064 55.5859 15.8205C55.409 15.8347 55.2369 15.8852 55.0806 15.9691C54.9242 16.053 54.7869 16.1683 54.6773 16.3078C54.5676 16.4473 54.4881 16.608 54.4436 16.7798C54.3991 16.9515 54.3906 17.1307 54.4187 17.3059C54.4468 17.481 54.5108 17.6485 54.6068 17.7978C54.7028 17.947 54.8286 18.0748 54.9764 18.173C55.1242 18.2712 55.2907 18.3378 55.4654 18.3686L58.1077 19.0758L49.6343 23.9553C49.3899 24.0972 49.1989 24.3156 49.0911 24.5768C48.9832 24.838 48.9644 25.1275 49.0376 25.4005C49.1108 25.6735 49.2719 25.9148 49.4959 26.087C49.72 26.2592 49.9946 26.3528 50.2772 26.3533H50.2837Z" fill="#4D5F66"/>
<path d="M44.7053 32.7425L42.3553 32.4437C42.1637 31.8535 41.9259 31.2792 41.6441 30.7262L43.0953 28.8575C43.3789 28.4987 43.5201 28.0479 43.492 27.5915C43.4638 27.135 43.2683 26.705 42.9428 26.3837L40.9741 24.415C40.6527 24.0876 40.2217 23.8903 39.7638 23.861C39.3059 23.8317 38.8533 23.9724 38.4928 24.2562L36.6266 25.7075C36.0733 25.4254 35.4986 25.1876 34.9078 24.9963L34.6091 22.65C34.5547 22.1955 34.3356 21.7766 33.9934 21.4726C33.6511 21.1685 33.2094 21.0004 32.7516 21H29.9516C29.0053 21 28.2066 21.7088 28.0941 22.6463L27.7953 24.9963C27.2043 25.1871 26.6296 25.4249 26.0766 25.7075L24.2091 24.2562C23.8501 23.9732 23.3994 23.8323 22.9431 23.8605C22.4868 23.8886 22.0568 24.0838 21.7353 24.4088L19.7666 26.3763C19.4388 26.6977 19.2413 27.1289 19.212 27.5871C19.1827 28.0453 19.3236 28.4981 19.6078 28.8588L21.0591 30.7262C20.7767 31.2789 20.5389 31.8533 20.3478 32.4437L18.0016 32.7425C17.0603 32.855 16.3516 33.6538 16.3516 34.6V37.4C16.3516 38.3463 17.0603 39.145 17.9978 39.2575L20.3478 39.5562C20.5416 40.1525 20.7803 40.7275 21.0591 41.2738L19.6078 43.1425C19.3243 43.5013 19.183 43.9521 19.2112 44.4085C19.2393 44.865 19.4348 45.295 19.7603 45.6163L21.7291 47.585C22.0509 47.9118 22.4819 48.1085 22.9396 48.1375C23.3973 48.1666 23.8497 48.0259 24.2103 47.7425L26.0778 46.2913C26.6241 46.5712 27.1991 46.81 27.7953 47.0025L28.0941 49.3475C28.2066 50.2913 29.0053 51 29.9516 51H32.7516C33.6978 51 34.4966 50.2913 34.6091 49.3538L34.9078 47.0037C35.4981 46.8122 36.0724 46.5743 36.6253 46.2925L38.4941 47.7438C39.2503 48.3313 40.3178 48.2625 40.9678 47.5913L42.9366 45.6225C43.264 45.3011 43.4613 44.8701 43.4906 44.4122C43.5199 43.9544 43.3791 43.5018 43.0953 43.1412L41.6441 41.2738C41.9241 40.7275 42.1628 40.1525 42.3553 39.5562L44.7003 39.2575C45.1549 39.2031 45.5737 38.9841 45.8778 38.6418C46.1818 38.2996 46.3499 37.8578 46.3503 37.4V34.6C46.3506 34.1428 46.1834 33.7014 45.8803 33.3591C45.5772 33.0169 45.1592 32.7975 44.7053 32.7425ZM31.3516 42.25C27.9053 42.25 25.1016 39.4463 25.1016 36C25.1016 32.5538 27.9053 29.75 31.3516 29.75C34.7978 29.75 37.6016 32.5538 37.6016 36C37.6016 39.4463 34.7978 42.25 31.3516 42.25Z" fill="#4D5F66"/>
</svg>
