<svg width="55" height="56" viewBox="0 0 55 56" fill="none" xmlns="http://www.w3.org/2000/svg">
<path fill-rule="evenodd" clip-rule="evenodd" d="M29.8815 8.20495C29.151 8.69721 28.2919 8.95998 27.4132 8.95998C26.2356 8.95771 25.1067 8.48492 24.274 7.64526C23.4413 6.8056 22.9724 5.66747 22.9702 4.48001C22.9702 3.59395 23.2307 2.72777 23.7189 1.99104C24.2071 1.25431 24.9011 0.680097 25.7129 0.341018C26.5248 0.00193716 27.4181 -0.0867763 28.28 0.0860852C29.1418 0.258947 29.9335 0.685634 30.5549 1.31217C31.1763 1.93871 31.5994 2.73694 31.7709 3.60597C31.9423 4.47501 31.8543 5.37582 31.518 6.19444C31.1817 7.01305 30.6122 7.71268 29.8815 8.20495ZM28.9173 2.21008C28.4721 1.9101 27.9486 1.74999 27.4132 1.74999C26.6951 1.74999 26.0065 2.03764 25.4987 2.54961C24.991 3.06158 24.7057 3.75598 24.7057 4.48001C24.7057 5.01995 24.8645 5.54774 25.162 5.99668C25.4595 6.44562 25.8824 6.79557 26.3771 7.0022C26.8718 7.20882 27.4162 7.26289 27.9414 7.15756C28.4665 7.05222 28.949 6.79221 29.3276 6.41041C29.7063 6.02862 29.9642 5.54214 30.0686 5.01257C30.1731 4.483 30.1195 3.93413 29.9146 3.43529C29.7096 2.93644 29.3626 2.51006 28.9173 2.21008ZM48.0886 18.7275C48.8192 18.2352 49.6782 17.9725 50.557 17.9725C51.7353 17.9725 52.8654 18.4445 53.6987 19.2847C54.5319 20.1249 55 21.2643 55 22.4525C55 23.3386 54.7394 24.2047 54.2513 24.9415C53.7631 25.6782 53.0691 26.2524 52.2573 26.5915C51.4454 26.9305 50.5521 27.0193 49.6902 26.8464C48.8283 26.6735 48.0367 26.2468 47.4153 25.6203C46.7939 24.9938 46.3708 24.1955 46.1993 23.3265C46.0278 22.4575 46.1158 21.5566 46.4521 20.7381C46.7884 19.9194 47.3579 19.2198 48.0886 18.7275ZM49.0527 24.7224C49.498 25.0223 50.0215 25.1825 50.557 25.1825V25.1563C51.2705 25.1563 51.9553 24.8723 52.4623 24.366C52.9693 23.8596 53.2576 23.172 53.2644 22.4525C53.2644 21.9126 53.1056 21.3847 52.8082 20.9357C52.5107 20.4869 52.0878 20.137 51.5931 19.9303C51.0984 19.7237 50.5539 19.6696 50.0287 19.775C49.5036 19.8803 49.0212 20.1403 48.6425 20.5221C48.2638 20.9039 48.0059 21.3903 47.9015 21.9199C47.7971 22.4495 47.8507 22.9984 48.0556 23.4972C48.2605 23.996 48.6075 24.4224 49.0527 24.7224ZM14.1796 44.4848C13.3008 44.4848 12.4418 44.7476 11.7111 45.2399C10.9805 45.7322 10.4109 46.4317 10.0747 47.2504C9.73842 48.0689 9.65043 48.9698 9.82181 49.8388C9.99329 50.7078 10.4164 51.5061 11.0378 52.1327C11.6592 52.7592 12.4508 53.1859 13.3127 53.3587C14.1746 53.5316 15.068 53.4428 15.8799 53.1038C16.6917 52.7647 17.3856 52.1905 17.8738 51.4538C18.362 50.717 18.6226 49.8509 18.6226 48.9647C18.6226 47.7766 18.1545 46.6372 17.3213 45.797C16.488 44.9568 15.3579 44.4848 14.1796 44.4848ZM14.1796 51.6947C13.644 51.6947 13.1206 51.5346 12.6753 51.2347C12.2301 50.9347 11.8831 50.5083 11.6782 50.0095C11.4733 49.5107 11.4197 48.9618 11.5241 48.4322C11.6285 47.9027 11.8864 47.4162 12.2651 47.0344C12.6438 46.6526 13.1262 46.3926 13.6513 46.2873C14.1765 46.1819 14.721 46.236 15.2157 46.4426C15.7104 46.6492 16.1333 46.9991 16.4308 47.4481C16.7282 47.8971 16.887 48.4249 16.887 48.9647C16.887 49.6888 16.6018 50.3832 16.0941 50.8952C15.5863 51.4071 14.8976 51.6947 14.1796 51.6947ZM22.5623 51.4763C26.3757 52.2922 30.3308 52.1358 34.0691 51.0213C34.2889 50.956 34.5254 50.9809 34.727 51.0907C34.9286 51.2006 35.0789 51.3864 35.1452 51.6075C35.1786 51.7178 35.1899 51.8337 35.1788 51.9485C35.1676 52.0632 35.134 52.1747 35.08 52.2764C35.026 52.3779 34.9526 52.4678 34.864 52.5408C34.7754 52.6137 34.6733 52.6683 34.5637 52.7013C30.4182 53.9484 26.0222 54.0871 21.8074 53.1038L22.5623 54.7575C22.6573 54.9666 22.667 55.205 22.5891 55.4212C22.511 55.6373 22.3519 55.8138 22.1458 55.9125C22.0329 55.9704 21.908 56.0004 21.7813 56C21.6154 56.0004 21.4527 55.9528 21.3128 55.8629C21.1728 55.7729 21.0613 55.6444 20.9916 55.4925L19.3862 51.9925C19.3421 51.8858 19.3193 51.7713 19.3193 51.6556C19.3193 51.54 19.3421 51.4255 19.3862 51.3188C19.4664 51.1017 19.6287 50.9254 19.8375 50.8288L23.3086 49.2013C23.5159 49.1054 23.7524 49.0957 23.9668 49.1744C24.1812 49.253 24.3562 49.4135 24.4541 49.6213C24.5519 49.8313 24.5629 50.0719 24.4848 50.2901C24.4067 50.5083 24.2458 50.6864 24.0376 50.785L22.5623 51.4763ZM51.4247 28.7874C51.1946 28.7874 50.9739 28.8796 50.8111 29.0437C50.6484 29.2077 50.557 29.4303 50.557 29.6624C50.4127 33.4632 49.3396 37.1692 47.433 40.4511L47.242 38.8324C47.2284 38.7175 47.1924 38.6063 47.1362 38.5055C47.0799 38.4047 47.0045 38.3159 46.9143 38.2444C46.824 38.1729 46.7207 38.12 46.6102 38.0888C46.4996 38.0575 46.3841 38.0486 46.2701 38.0624C46.1562 38.0762 46.0461 38.1124 45.946 38.1691C45.8459 38.2259 45.758 38.3019 45.6871 38.3929C45.6162 38.4839 45.5637 38.5881 45.5327 38.6995C45.5017 38.8109 45.4928 38.9275 45.5065 39.0423L45.9578 42.9011C45.9833 43.1145 46.086 43.3109 46.246 43.453C46.406 43.5951 46.6124 43.6727 46.8256 43.6711H46.921L50.7218 43.2161C50.9521 43.1883 51.1617 43.0694 51.305 42.8855C51.4482 42.7018 51.5132 42.4681 51.4855 42.2361C51.4579 42.004 51.34 41.7926 51.1577 41.6482C50.9755 41.5037 50.7438 41.4383 50.5137 41.4661L48.726 41.6761C50.893 38.0589 52.1141 33.9464 52.2752 29.7236C52.2834 29.6051 52.2677 29.4862 52.2289 29.3741C52.1901 29.2619 52.129 29.1589 52.0495 29.0713C51.97 28.9837 51.8735 28.9134 51.7661 28.8645C51.6587 28.8157 51.5426 28.7895 51.4247 28.7874ZM44.7861 13.4224C42.0033 10.2059 38.4029 7.81591 34.3727 6.50991C34.161 6.43252 33.9874 6.27512 33.8886 6.07102C33.7898 5.86692 33.7736 5.63209 33.8434 5.41616C33.8779 5.30625 33.9336 5.20431 34.0073 5.11618C34.081 5.02806 34.1713 4.95546 34.2729 4.90261C34.3745 4.84976 34.4855 4.81766 34.5994 4.80819C34.7133 4.79871 34.828 4.81204 34.9368 4.84739C39.3801 6.3093 43.3296 8.99446 46.3395 12.5999L46.7126 10.8061C46.7609 10.5741 46.8987 10.3709 47.0956 10.2412C47.2926 10.1117 47.5325 10.0662 47.7626 10.1149C47.9928 10.1636 48.1943 10.3025 48.3229 10.501C48.4515 10.6997 48.4965 10.9415 48.4482 11.1736L47.6585 14.9449C47.6161 15.1439 47.5064 15.3218 47.3479 15.4479C47.1895 15.5741 46.9925 15.6407 46.7907 15.6361H46.6085L42.8336 14.8311C42.6035 14.7824 42.402 14.6435 42.2734 14.4449C42.1449 14.2464 42.0997 14.0044 42.1481 13.7724C42.1964 13.5403 42.3342 13.3371 42.5311 13.2075C42.728 13.0778 42.9679 13.0324 43.1981 13.0811L44.7861 13.4224ZM7.52357 16.1088C7.66571 16.109 7.80577 16.0741 7.93135 16.0069C8.05694 15.9398 8.16425 15.8425 8.24385 15.7238C10.6585 12.1214 14.017 9.26519 17.9456 7.47258L17.156 8.91632C17.1007 9.01686 17.0655 9.12737 17.0526 9.24165C17.0397 9.35583 17.0492 9.47151 17.0806 9.58202C17.112 9.69253 17.1647 9.79578 17.2357 9.88573C17.3068 9.97568 17.3947 10.0507 17.4944 10.1063C17.6215 10.179 17.7648 10.2181 17.9109 10.2201C18.067 10.2205 18.2204 10.1784 18.3548 10.0984C18.4892 10.0183 18.5997 9.90315 18.6746 9.76507L20.5316 6.35255C20.6412 6.14889 20.6661 5.90979 20.601 5.6876C20.5694 5.57672 20.5163 5.47323 20.4448 5.38313C20.3733 5.29303 20.2848 5.21806 20.1845 5.16257L16.8349 3.30757C16.6323 3.19154 16.3924 3.16137 16.1678 3.22373C15.9432 3.28608 15.7524 3.43587 15.6373 3.64008C15.5223 3.8443 15.4923 4.08622 15.5542 4.31267C15.6161 4.53912 15.7646 4.73155 15.9671 4.84758L17.5551 5.72258C13.1828 7.6314 9.44103 10.7578 6.76861 14.7351C6.70465 14.8303 6.65999 14.9375 6.63715 15.0502C6.61431 15.163 6.61374 15.2792 6.6355 15.3922C6.65727 15.5051 6.70095 15.6127 6.764 15.7087C6.82705 15.8046 6.90823 15.8871 7.00293 15.9513C7.15528 16.0587 7.33777 16.1139 7.52357 16.1088ZM5.70997 33.1713L4.56449 32.025C5.13119 36.1931 6.82106 40.1245 9.45014 43.3913C9.52217 43.4808 9.57597 43.5837 9.60851 43.6943C9.64097 43.8048 9.65147 43.9207 9.63941 44.0354C9.62734 44.1501 9.59289 44.2612 9.53805 44.3623C9.4832 44.4636 9.4091 44.5528 9.31989 44.625C9.1649 44.7504 8.97191 44.8183 8.77319 44.8175C8.64503 44.8166 8.51868 44.7872 8.40315 44.7312C8.28761 44.6752 8.18581 44.5941 8.10505 44.4938C5.19383 40.8898 3.34735 36.5324 2.77687 31.92L1.50989 33.2062C1.34763 33.371 1.12714 33.4641 0.896861 33.4648C0.666587 33.4657 0.445398 33.3742 0.281992 33.2107C0.118586 33.047 0.0263484 32.8247 0.0255346 32.5925C0.0247209 32.3603 0.115393 32.1373 0.277649 31.9725L2.66405 29.5138C2.72472 29.3547 2.83013 29.217 2.96733 29.1176C3.10452 29.0181 3.26755 28.9611 3.43639 28.9538H3.50582C3.63162 28.9397 3.75893 28.9536 3.87885 28.9944C3.99878 29.0353 4.10841 29.102 4.20004 29.19L6.93352 31.9375C7.09515 32.1015 7.1859 32.3232 7.1859 32.5544C7.1859 32.7855 7.09515 33.0073 6.93352 33.1713C6.85244 33.2524 6.7563 33.3165 6.65058 33.36C6.54485 33.4036 6.43163 33.4256 6.31742 33.4249C6.08977 33.424 5.8716 33.3329 5.70997 33.1713ZM40.8031 44.2224C39.9244 44.2224 39.0654 44.4852 38.3347 44.9775C37.604 45.4697 37.0346 46.1694 36.6982 46.988C36.362 47.8066 36.2741 48.7074 36.4454 49.5765C36.6169 50.4455 37.04 51.2438 37.6614 51.8703C38.2827 52.4968 39.0744 52.9235 39.9363 53.0963C40.7981 53.2692 41.6915 53.1805 42.5034 52.8414C43.3152 52.5024 44.0092 51.9282 44.4974 51.1914C44.9856 50.4547 45.2461 49.5885 45.2461 48.7024C45.2461 47.5143 44.7781 46.3748 43.9448 45.5347C43.1116 44.6945 41.9815 44.2224 40.8031 44.2224ZM40.8031 51.4324C40.2676 51.4324 39.7441 51.2723 39.2989 50.9723C38.8536 50.6724 38.5067 50.246 38.3017 49.7472C38.0968 49.2483 38.0432 48.6994 38.1477 48.1698C38.2521 47.6403 38.51 47.1538 38.8886 46.7721C39.2673 46.3902 39.7497 46.1303 40.2749 46.0249C40.8001 45.9196 41.3445 45.9736 41.8392 46.1802C42.3339 46.3869 42.7568 46.7368 43.0543 47.1857C43.3518 47.6347 43.5106 48.1625 43.5106 48.7024C43.4992 49.4189 43.2089 50.1021 42.7024 50.6047C42.1959 51.1072 41.5137 51.3888 40.8031 51.3887V51.4324ZM6.91148 25.6874C6.18083 26.1797 5.32179 26.4425 4.44304 26.4425C3.26467 26.4425 2.13459 25.9704 1.30135 25.1302C0.468123 24.2901 0 23.1506 0 21.9625C0 21.0764 0.260614 20.2102 0.748822 19.4734C1.23703 18.7368 1.93089 18.1625 2.74275 17.8235C3.55461 17.4844 4.448 17.3957 5.30987 17.5686C6.17173 17.7414 6.9634 18.1681 7.58478 18.7946C8.20614 19.4212 8.62926 20.2195 8.80069 21.0884C8.97217 21.9575 8.88417 22.8583 8.54789 23.6768C8.21161 24.4955 7.64214 25.1951 6.91148 25.6874ZM5.94725 19.6925C5.502 19.3926 4.97852 19.2325 4.44304 19.2325C3.72497 19.2325 3.03631 19.5201 2.52856 20.032C2.0208 20.544 1.73556 21.2384 1.73556 21.9625C1.73556 22.5024 1.89436 23.0302 2.19186 23.4792C2.48936 23.9281 2.91221 24.278 3.40694 24.4846C3.90166 24.6912 4.44606 24.7453 4.97126 24.64C5.49646 24.5347 5.97887 24.2746 6.35752 23.8929C6.73616 23.511 6.99403 23.0246 7.0985 22.4951C7.20297 21.9655 7.14935 21.4166 6.94442 20.9177C6.7395 20.4189 6.3925 19.9925 5.94725 19.6925ZM27.4912 45.3163C28.6385 45.3049 29.7356 44.8404 30.5469 44.0223C31.3582 43.2043 31.8189 42.0981 31.8301 40.9414V38.5001C33.9453 37.4967 35.6583 35.7965 36.6867 33.6799C37.7152 31.5633 37.9977 29.1565 37.4878 26.8563C36.978 24.5561 35.7061 22.4997 33.8818 21.026C32.0576 19.5523 29.7897 18.7492 27.4523 18.7492C25.1147 18.7492 22.8469 19.5523 21.0226 21.026C19.1984 22.4997 17.9265 24.5561 17.4166 26.8563C16.9067 29.1565 17.1893 31.5633 18.2178 33.6799C19.2462 35.7965 20.9592 37.4967 23.0743 38.5001V40.9414C23.088 42.111 23.5603 43.2276 24.3879 44.0474C25.2155 44.8671 26.3312 45.3233 27.4912 45.3163ZM27.4912 43.5664C26.805 43.5529 26.1505 43.272 25.6652 42.7826C25.1798 42.2932 24.9013 41.6333 24.8879 40.9414V39.6814H30.1728V40.9414C30.1613 41.6476 29.8726 42.3205 29.37 42.8125C28.8674 43.3046 28.1918 43.5757 27.4912 43.5664ZM18.9437 29.0764C18.9435 27.5116 19.3659 25.9763 20.1654 24.6351C20.965 23.294 22.1115 22.1978 23.4821 21.4638C24.8527 20.7299 26.3955 20.386 27.9452 20.4691C29.4949 20.5522 30.9928 21.0591 32.2784 21.9355C33.5641 22.8118 34.5889 24.0246 35.2429 25.4436C35.8968 26.8627 36.1553 28.4345 35.9906 29.9904C35.8259 31.5463 35.2443 33.0277 34.308 34.2756C33.3717 35.5235 32.1162 36.4909 30.6761 37.0739C30.5146 37.1387 30.3762 37.2509 30.2786 37.396C30.1812 37.5411 30.1292 37.7124 30.1294 37.8876H24.8445C24.8454 37.7133 24.7947 37.5429 24.6988 37.3979C24.603 37.2529 24.4663 37.14 24.3066 37.0739C22.7197 36.4378 21.3593 35.3348 20.4028 33.9084C19.4463 32.482 18.9379 30.7982 18.9437 29.0764ZM28.359 14.6648V17.2898C28.359 17.5218 28.2676 17.7444 28.1049 17.9085C27.9421 18.0727 27.7214 18.1648 27.4912 18.1648C27.2611 18.1648 27.0404 18.0727 26.8776 17.9085C26.7149 17.7444 26.6235 17.5218 26.6235 17.2898V14.6648C26.6235 14.4328 26.7149 14.2102 26.8776 14.0461C27.0404 13.8819 27.2611 13.7898 27.4912 13.7898C27.7214 13.7898 27.9421 13.8819 28.1049 14.0461C28.2676 14.2102 28.359 14.4328 28.359 14.6648ZM36.3339 21.341L38.1564 19.4949C38.2985 19.3275 38.3728 19.1122 38.3644 18.8919C38.3559 18.6718 38.2654 18.4628 38.1108 18.307C37.9562 18.1511 37.7491 18.0599 37.5307 18.0513C37.3123 18.0428 37.0987 18.1178 36.9327 18.2611L35.1018 20.1074C34.9401 20.2713 34.8494 20.4931 34.8494 20.7243C34.8494 20.9554 34.9401 21.1772 35.1018 21.341C35.1824 21.4231 35.2784 21.4882 35.3841 21.5327C35.4899 21.577 35.6033 21.6 35.7179 21.6C35.8324 21.6 35.9459 21.577 36.0516 21.5327C36.1573 21.4882 36.2533 21.4231 36.3339 21.341ZM18.0412 39.7776C17.881 39.9425 17.6627 40.0368 17.4337 40.0401C17.3189 40.0396 17.2053 40.0162 17.0996 39.9712C16.9939 39.9261 16.898 39.8603 16.8176 39.7776C16.656 39.6136 16.5653 39.3919 16.5653 39.1607C16.5653 38.9296 16.656 38.7078 16.8176 38.5439L18.6486 36.6976C18.8112 36.5347 19.0311 36.4432 19.2604 36.4432C19.4897 36.4432 19.7097 36.5347 19.8722 36.6976C19.9536 36.779 20.0181 36.8758 20.0622 36.9823C20.1062 37.089 20.1289 37.2034 20.1289 37.3189C20.1289 37.4344 20.1062 37.5487 20.0622 37.6554C20.0181 37.7621 19.9536 37.8588 19.8722 37.9401L18.0412 39.7776ZM39.1283 29.8986H41.7316C41.9618 29.8986 42.1824 29.8065 42.3452 29.6423C42.5079 29.4783 42.5994 29.2557 42.5994 29.0236C42.5994 28.7916 42.5079 28.5691 42.3452 28.4049C42.1824 28.2408 41.9618 28.1486 41.7316 28.1486H39.1283C38.8981 28.1486 38.6774 28.2408 38.5146 28.4049C38.3519 28.5691 38.2605 28.7916 38.2605 29.0236C38.2605 29.2557 38.3519 29.4783 38.5146 29.6423C38.6774 29.8065 38.8981 29.8986 39.1283 29.8986ZM13.2423 28.1486H15.8457C16.0758 28.1486 16.2966 28.2408 16.4593 28.4049C16.622 28.5691 16.7135 28.7916 16.7135 29.0236C16.7135 29.2557 16.622 29.4783 16.4593 29.6423C16.2966 29.8065 16.0758 29.8986 15.8457 29.8986H13.2423C13.0122 29.8986 12.7915 29.8065 12.6287 29.6423C12.466 29.4783 12.3746 29.2557 12.3746 29.0236C12.3746 28.7916 12.466 28.5691 12.6287 28.4049C12.7915 28.2408 13.0122 28.1486 13.2423 28.1486ZM36.9327 39.7775C37.0131 39.8602 37.1089 39.926 37.2147 39.9711C37.3205 40.0161 37.434 40.0395 37.5489 40.04C37.7777 40.0367 37.9961 39.9424 38.1564 39.7775C38.3179 39.6135 38.4086 39.3918 38.4086 39.1606C38.4086 38.9295 38.3179 38.7077 38.1564 38.5438L36.3339 36.6975C36.1705 36.5328 35.949 36.4402 35.7179 36.4402C35.4868 36.4402 35.2652 36.5328 35.1018 36.6975C34.9383 36.8623 34.8466 37.0858 34.8466 37.3188C34.8466 37.5518 34.9383 37.7753 35.1018 37.94L36.9327 39.7775ZM19.2561 21.5949C19.0284 21.5939 18.8102 21.5027 18.6485 21.341L16.8176 19.4949C16.6754 19.3275 16.6012 19.1122 16.6096 18.8919C16.618 18.6718 16.7085 18.4628 16.8631 18.307C17.0176 18.1511 17.2248 18.0599 17.4432 18.0513C17.6616 18.0428 17.8752 18.1178 18.0412 18.2611L19.8722 20.1074C20.0338 20.2713 20.1245 20.4931 20.1245 20.7243C20.1245 20.9554 20.0338 21.1772 19.8722 21.341C19.7911 21.4222 19.6949 21.4864 19.5892 21.53C19.4834 21.5734 19.3703 21.5955 19.2561 21.5949Z" fill="url(#paint0_linear_0_464)"/>
<defs>
<linearGradient id="paint0_linear_0_464" x1="2.57812" y1="1.37176e-06" x2="52.4267" y2="50.3192" gradientUnits="userSpaceOnUse">
<stop stop-color="#FE5B52"/>
<stop offset="0.948075" stop-color="#3E96F4"/>
</linearGradient>
</defs>
</svg>
