<svg width="28" height="24" viewBox="0 0 28 24" fill="none" xmlns="http://www.w3.org/2000/svg">
<path d="M16.079 2.25476C18.8667 -0.188118 23.1067 0.0912621 25.5497 2.87878C27.9926 5.66642 27.7132 9.90651 24.9257 12.3495L23.3329 13.8212L21.5653 12.0536C20.537 11.0256 18.8642 11.0256 17.8358 12.0536C17.3454 12.544 17.0718 13.1944 17.0634 13.8866C16.3993 13.8952 15.7378 14.1516 15.2323 14.6571C14.7266 15.163 14.47 15.8248 14.4618 16.4891C13.7974 16.4974 13.1356 16.7538 12.6298 17.2596C11.6014 18.2881 11.6014 19.9617 12.6298 20.9901L14.0458 22.4061L12.8485 23.5126C12.0317 24.2284 10.789 24.1458 10.0731 23.329C9.35745 22.5122 9.43913 21.2703 10.2558 20.5546C9.43894 21.2702 8.19607 21.1878 7.48037 20.371C6.76491 19.5542 6.84727 18.3122 7.66396 17.5966C6.84715 18.3123 5.60438 18.2298 4.88857 17.413C4.27523 16.713 4.31088 15.8295 4.79384 15.0301L10.7499 9.07312L12.1737 10.4979C12.8445 11.172 13.7373 11.5438 14.6874 11.5438C15.6376 11.5438 16.5309 11.1724 17.202 10.4979C18.5822 9.11076 18.5822 6.85286 17.202 5.4657L14.9706 3.22937L16.079 2.25476Z" fill="#3E96F4"/>
<path d="M14.494 18.0819C14.7726 18.082 15.0344 18.1906 15.2313 18.3876L17.5058 20.661C17.6029 20.7577 17.6799 20.8733 17.7323 20.9999C17.7847 21.1264 17.8118 21.2624 17.8114 21.3993C17.8117 21.5358 17.7844 21.6715 17.7323 21.7977C17.6801 21.9239 17.6033 22.0382 17.5067 22.1346C17.5046 22.1368 17.503 22.1394 17.5009 22.1415C17.0937 22.5434 16.4354 22.5417 16.0302 22.1366L13.7558 19.8622C13.3494 19.4555 13.3494 18.7942 13.7558 18.3876C13.9528 18.1905 14.2154 18.0819 14.494 18.0819Z" fill="#3E96F4"/>
<path d="M17.0966 15.4784C17.3751 15.4784 17.6369 15.5872 17.8339 15.7841L20.1083 18.0585C20.2054 18.155 20.2824 18.2699 20.3349 18.3964C20.3873 18.5229 20.4143 18.6588 20.414 18.7958C20.4143 18.932 20.3877 19.0673 20.3358 19.1932C20.2839 19.3192 20.2074 19.4337 20.1112 19.5301C20.1069 19.5344 20.1028 19.5387 20.0985 19.5428C19.691 19.94 19.0363 19.9376 18.6327 19.5341L16.3593 17.2596C16.2621 17.163 16.1842 17.0483 16.1317 16.9218C16.0793 16.7952 16.0533 16.6593 16.0536 16.5223C16.0532 16.3855 16.0794 16.2494 16.1317 16.1229C16.1842 15.9963 16.2621 15.8807 16.3593 15.7841C16.5563 15.5872 16.8181 15.4784 17.0966 15.4784Z" fill="#3E96F4"/>
<path d="M19.6991 12.8768C19.9663 12.8768 20.234 12.9781 20.4374 13.1815L22.7108 15.4559C23.1159 15.861 23.1175 16.5185 22.7157 16.9257C22.7091 16.9322 22.7019 16.9388 22.6952 16.9452C22.5001 17.1327 22.245 17.2362 21.9735 17.2362C21.8365 17.2366 21.7007 17.2096 21.5741 17.1571C21.4476 17.1047 21.3328 17.0277 21.2362 16.9305L18.9618 14.6571C18.8646 14.5605 18.7877 14.4449 18.7352 14.3182C18.6828 14.1917 18.6558 14.0558 18.6561 13.9188C18.6558 13.7818 18.6828 13.646 18.7352 13.5194C18.7877 13.3929 18.8647 13.2781 18.9618 13.1815C19.1651 12.9782 19.4321 12.8769 19.6991 12.8768Z" fill="#3E96F4"/>
<path d="M1.96572 1.9657C4.58673 -0.655263 8.83587 -0.655201 11.4569 1.9657L16.0702 6.5907C16.6211 7.14436 16.7904 7.99682 16.4999 8.72058C16.1838 9.508 15.3694 10.0125 14.5233 9.94226C14.0569 9.9035 13.6176 9.69363 13.2899 9.36023L10.7499 6.81824L4.03798 13.5292L1.96572 11.4569C-0.655234 8.83591 -0.655245 4.58666 1.96572 1.9657Z" fill="#3E96F4"/>
</svg>
