<svg width="72" height="72" viewBox="0 0 72 72" fill="none" xmlns="http://www.w3.org/2000/svg">
<circle cx="36" cy="36" r="35.1" fill="url(#paint0_radial_1_2144)" stroke="#C3D8EF" stroke-width="1.8"/>
<path d="M46.6873 20H29.7958C29.2336 20.0009 28.6947 20.2247 28.2973 20.6223C27.8999 21.02 27.6764 21.559 27.6758 22.1212V27.252C27.6758 27.4036 27.736 27.5489 27.8431 27.6561C27.9503 27.7633 28.0957 27.8235 28.2472 27.8235C28.3988 27.8235 28.5441 27.7633 28.6513 27.6561C28.7584 27.5489 28.8186 27.4036 28.8186 27.252V22.12C28.8191 21.861 28.9222 21.6127 29.1053 21.4296C29.2885 21.2464 29.5368 21.1433 29.7958 21.1429H46.6873C46.9465 21.143 47.1951 21.246 47.3785 21.4292C47.5619 21.6123 47.6651 21.8608 47.6656 22.12V45.4384C47.6654 45.6978 47.5623 45.9466 47.3789 46.13C47.1954 46.3134 46.9467 46.4165 46.6873 46.4167H33.1489C32.9974 46.4167 32.852 46.4769 32.7449 46.5841C32.6377 46.6912 32.5775 46.8366 32.5775 46.9881C32.5775 47.1397 32.6377 47.285 32.7449 47.3922C32.852 47.4993 32.9974 47.5595 33.1489 47.5595H46.6873C47.2497 47.5589 47.7888 47.3353 48.1865 46.9376C48.5842 46.5399 48.8078 46.0008 48.8084 45.4384V22.1212C48.8078 21.5588 48.5842 21.0196 48.1865 20.6219C47.7888 20.2243 47.2497 20.0006 46.6873 20Z" fill="black"/>
<path d="M31.9373 40.4315C32.6712 39.8909 33.278 39.1964 33.7154 38.3967C34.1528 37.597 34.4101 36.7114 34.4693 35.8018C34.5285 34.8922 34.3882 33.9807 34.0583 33.131C33.7283 32.2813 33.2166 31.514 32.559 30.8829C28.6218 27.0451 21.823 30.0463 22.0035 35.5394C22.034 36.8991 22.508 38.2116 23.3534 39.2769C24.1988 40.3422 25.3692 41.102 26.6864 41.4406V43.2949C26.5779 43.2745 26.4663 43.2778 26.3593 43.3046C26.2522 43.3314 26.1523 43.3812 26.0663 43.4504C25.9803 43.5196 25.9103 43.6066 25.8612 43.7054C25.8121 43.8043 25.785 43.9126 25.7818 44.0229V49.5389C25.7805 49.8716 25.8472 50.201 25.9777 50.5069C26.1081 50.8129 26.2997 51.089 26.5407 51.3184C28.0956 52.8527 30.7441 51.6144 30.7098 49.4155V44.0229C30.7055 43.9088 30.676 43.7971 30.6236 43.6958C30.5711 43.5944 30.497 43.5058 30.4064 43.4363C30.3159 43.3668 30.2111 43.3181 30.0996 43.2936C29.9881 43.2692 29.8726 43.2696 29.7613 43.2949V41.4555C30.5464 41.2591 31.2855 40.9112 31.9373 40.4315ZM23.147 35.5132C22.9984 31.0274 28.5538 28.5726 31.7699 31.7091C32.3073 32.2246 32.7255 32.8512 32.9952 33.5453C33.265 34.2393 33.3798 34.9839 33.3316 35.727C33.2833 36.47 33.0733 37.1935 32.716 37.8469C32.3588 38.5002 31.8631 39.0675 31.2636 39.5092C28.0761 41.9658 23.1407 39.5469 23.147 35.5132ZM29.567 49.4161C29.5827 49.5938 29.5623 49.7729 29.507 49.9425C29.4517 50.1122 29.3627 50.2689 29.2453 50.4033C29.1279 50.5376 28.9845 50.6468 28.8238 50.7244C28.6631 50.8019 28.4884 50.8462 28.3102 50.8545C28.1319 50.8627 27.9539 50.8349 27.7867 50.7726C27.6195 50.7103 27.4666 50.6149 27.3372 50.492C27.2078 50.3691 27.1047 50.2213 27.0339 50.0575C26.9631 49.8938 26.9261 49.7174 26.9253 49.5389V44.4378H27.2584C27.5298 44.4361 29.3441 44.4395 29.567 44.4378V49.4161ZM28.6184 43.2949H27.8298V41.6269C28.0922 41.6476 28.3558 41.6489 28.6184 41.6309V43.2949Z" fill="black"/>
<path d="M27.951 32.7292C28.6577 32.6552 29.3651 32.8628 29.9197 33.307C30.4744 33.7511 30.8316 34.396 30.9139 35.1018C30.9305 35.2524 31.0064 35.3903 31.1247 35.485C31.243 35.5797 31.3941 35.6236 31.5447 35.6069C31.6954 35.5902 31.8332 35.5144 31.928 35.3961C32.0227 35.2778 32.0666 35.1267 32.0499 34.976C31.9327 33.9699 31.4235 33.0505 30.6329 32.4172C29.8423 31.784 28.8339 31.4879 27.8264 31.5932C27.6758 31.6098 27.5379 31.6855 27.4431 31.8038C27.3483 31.922 27.3044 32.0731 27.321 32.2237C27.3376 32.3744 27.4134 32.5123 27.5316 32.6071C27.6499 32.7018 27.8004 32.7458 27.951 32.7292ZM44.5791 24.7886H31.4819C31.3303 24.7886 31.185 24.8488 31.0778 24.9559C30.9707 25.0631 30.9104 25.2085 30.9104 25.36C30.9104 25.5116 30.9707 25.6569 31.0778 25.7641C31.185 25.8712 31.3303 25.9314 31.4819 25.9314H44.5791C44.7306 25.9314 44.876 25.8712 44.9831 25.7641C45.0903 25.6569 45.1505 25.5116 45.1505 25.36C45.1505 25.2085 45.0903 25.0631 44.9831 24.9559C44.876 24.8488 44.7306 24.7886 44.5791 24.7886ZM44.5791 28.904H33.8253C33.6738 28.904 33.5284 28.9642 33.4213 29.0714C33.3141 29.1786 33.2539 29.3239 33.2539 29.4755C33.2539 29.627 33.3141 29.7723 33.4213 29.8795C33.5284 29.9867 33.6738 30.0469 33.8253 30.0469H44.5796C44.7312 30.0469 44.8765 29.9867 44.9837 29.8795C45.0909 29.7723 45.1511 29.627 45.1511 29.4755C45.1511 29.3239 45.0909 29.1786 44.9837 29.0714C44.8765 28.9642 44.7306 28.904 44.5791 28.904ZM44.5791 33.0189H36.1682C36.0166 33.0189 35.8713 33.0791 35.7641 33.1863C35.657 33.2934 35.5968 33.4388 35.5968 33.5903C35.5968 33.7419 35.657 33.8872 35.7641 33.9944C35.8713 34.1016 36.0166 34.1618 36.1682 34.1618H44.5796C44.7312 34.1618 44.8765 34.1016 44.9837 33.9944C45.0909 33.8872 45.1511 33.7419 45.1511 33.5903C45.1511 33.4388 45.0909 33.2934 44.9837 33.1863C44.8765 33.0791 44.7306 33.0189 44.5791 33.0189ZM44.5791 37.1338H35.9928C35.8412 37.1338 35.6959 37.194 35.5887 37.3011C35.4815 37.4083 35.4213 37.5536 35.4213 37.7052C35.4213 37.8568 35.4815 38.0021 35.5887 38.1093C35.6959 38.2164 35.8412 38.2766 35.9928 38.2766H44.5796C44.7312 38.2766 44.8765 38.2164 44.9837 38.1093C45.0909 38.0021 45.1511 37.8568 45.1511 37.7052C45.1511 37.5536 45.0909 37.4083 44.9837 37.3011C44.8765 37.194 44.7306 37.1338 44.5791 37.1338ZM33.0162 42.3915H44.5791C44.7306 42.3915 44.876 42.3313 44.9831 42.2241C45.0903 42.117 45.1505 41.9716 45.1505 41.8201C45.1505 41.6685 45.0903 41.5232 44.9831 41.416C44.876 41.3088 44.7306 41.2486 44.5791 41.2486H33.0162C32.8646 41.2486 32.7193 41.3088 32.6121 41.416C32.5049 41.5232 32.4447 41.6685 32.4447 41.8201C32.4447 41.9716 32.5049 42.117 32.6121 42.2241C32.7193 42.3313 32.8646 42.3915 33.0162 42.3915Z" fill="black"/>
<defs>
<radialGradient id="paint0_radial_1_2144" cx="0" cy="0" r="1" gradientUnits="userSpaceOnUse" gradientTransform="translate(36 36) rotate(90) scale(36)">
<stop offset="0.591346" stop-color="#3E96F4" stop-opacity="0"/>
<stop offset="0.822115" stop-color="#3E96F4" stop-opacity="0.1"/>
<stop offset="1" stop-color="#3E96F4" stop-opacity="0.3"/>
</radialGradient>
</defs>
</svg>
