<svg width="72" height="72" viewBox="0 0 72 72" fill="none" xmlns="http://www.w3.org/2000/svg">
<circle cx="36" cy="36" r="35.1" fill="url(#paint0_radial_1_2137)" stroke="#C3D8EF" stroke-width="1.8"/>
<g clip-path="url(#clip0_1_2137)">
<path d="M36 16C34.0118 16 32.4 17.6118 32.4 19.6C32.4 21.5883 34.0118 23.2 36 23.2C37.9874 23.1981 39.5981 21.5874 39.6 19.6C39.6 17.6118 37.9883 16 36 16ZM36 22C34.6745 22 33.6 20.9255 33.6 19.6C33.6 18.2745 34.6745 17.2 36 17.2C37.3255 17.2 38.4 18.2745 38.4 19.6C38.4 20.9255 37.3255 22 36 22ZM38.4 23.8H38.2584L38.1318 23.863C37.4695 24.1927 36.7398 24.3644 36 24.3644C35.2602 24.3644 34.5305 24.1927 33.8682 23.863L33.7416 23.8H33.6C31.944 23.802 30.602 25.144 30.6 26.8V30.4C30.6 31.3941 31.4059 32.2 32.4 32.2H39.6C40.5941 32.2 41.4 31.3941 41.4 30.4V26.8C41.3981 25.144 40.056 23.802 38.4 23.8ZM40.2 30.4C40.2 30.5591 40.1368 30.7117 40.0243 30.8243C39.9117 30.9368 39.7591 31 39.6 31H32.4C32.2409 31 32.0883 30.9368 31.9757 30.8243C31.8632 30.7117 31.8 30.5591 31.8 30.4V26.8C31.8002 25.8556 32.5301 25.0719 33.4722 25.0048C34.2642 25.3724 35.1269 25.5628 36 25.5628C36.8731 25.5628 37.7358 25.3724 38.5278 25.0048C39.4698 25.0719 40.1999 25.8556 40.2 26.8V30.4ZM48.6 35.8C46.6118 35.8 45 37.4118 45 39.4C45 41.3883 46.6118 43 48.6 43C50.5883 43 52.2 41.3883 52.2 39.4C52.1981 37.4126 50.5874 35.802 48.6 35.8ZM48.6 41.8C47.2745 41.8 46.2 40.7255 46.2 39.4C46.2 38.0745 47.2745 37 48.6 37C49.9255 37 51 38.0745 51 39.4C51 40.7255 49.9255 41.8 48.6 41.8ZM51 43.6H50.8584L50.7318 43.66C50.0695 43.9897 49.3398 44.1613 48.6 44.1613C47.8602 44.1613 47.1305 43.9897 46.4682 43.66L46.3416 43.6H46.2C44.544 43.602 43.202 44.944 43.2 46.6V50.2C43.2 51.1941 44.0059 52 45 52H52.2C53.1941 52 54 51.1941 54 50.2V46.6C53.9981 44.944 52.656 43.602 51 43.6ZM52.8 50.2C52.8 50.3591 52.7368 50.5117 52.6243 50.6243C52.5117 50.7368 52.3591 50.8 52.2 50.8H45C44.8409 50.8 44.6883 50.7368 44.5757 50.6243C44.4632 50.5117 44.4 50.3591 44.4 50.2V46.6C44.4002 45.6556 45.1301 44.8719 46.0722 44.8048C46.8642 45.1724 47.7269 45.3628 48.6 45.3628C49.4732 45.3628 50.3358 45.1724 51.1278 44.8048C52.0699 44.8719 52.7999 45.6556 52.8 46.6V50.2ZM23.4 35.8C21.4118 35.8 19.8 37.4118 19.8 39.4C19.8 41.3883 21.4118 43 23.4 43C25.3883 43 27 41.3883 27 39.4C26.9981 37.4126 25.3874 35.802 23.4 35.8ZM23.4 41.8C22.0745 41.8 21 40.7255 21 39.4C21 38.0745 22.0745 37 23.4 37C24.7255 37 25.8 38.0745 25.8 39.4C25.8 40.7255 24.7255 41.8 23.4 41.8ZM25.8 43.6H25.6584L25.5318 43.66C24.8695 43.9897 24.1398 44.1613 23.4 44.1613C22.6602 44.1613 21.9305 43.9897 21.2682 43.66L21.1416 43.6H21C19.344 43.602 18.002 44.944 18 46.6V50.2C18 51.1941 18.8059 52 19.8 52H27C27.9941 52 28.8 51.1941 28.8 50.2V46.6C28.7981 44.944 27.456 43.602 25.8 43.6ZM27.6 50.2C27.6 50.3591 27.5368 50.5117 27.4243 50.6243C27.3117 50.7368 27.1591 50.8 27 50.8H19.8C19.6409 50.8 19.4883 50.7368 19.3757 50.6243C19.2632 50.5117 19.2 50.3591 19.2 50.2V46.6C19.2002 45.6556 19.9301 44.8719 20.8722 44.8048C21.6642 45.1724 22.5269 45.3628 23.4 45.3628C24.2731 45.3628 25.1358 45.1724 25.9278 44.8048C26.8699 44.8719 27.5999 45.6556 27.6 46.6V50.2ZM41.9529 46.4707L41.952 46.4686C41.8896 46.3222 41.7717 46.2066 41.624 46.1472C41.4764 46.0878 41.3113 46.0894 41.1649 46.1518C38.4555 47.2873 35.4465 47.4945 32.6071 46.741L33.1687 46.576C33.4868 46.4829 33.6692 46.1496 33.5761 45.8314C33.4829 45.5133 33.1496 45.3309 32.8315 45.424L30.4315 46.1278C30.4225 46.1278 30.4159 46.138 30.4075 46.141C30.3519 46.1617 30.2997 46.1906 30.2527 46.2268C30.2318 46.2381 30.2118 46.2507 30.1927 46.2646C30.1294 46.3211 30.0792 46.3907 30.0457 46.4686C30.0131 46.547 29.9976 46.6315 30.0001 46.7164C30.0147 46.7976 30.0347 46.8778 30.0601 46.9564C30.0637 46.9648 30.0601 46.9744 30.0667 46.9828L31.2667 49.279C31.3032 49.3489 31.353 49.4109 31.4135 49.4615C31.4739 49.5121 31.5438 49.5503 31.619 49.574C31.6942 49.5976 31.7733 49.6062 31.8519 49.5992C31.9304 49.5922 32.0068 49.5699 32.0767 49.5334C32.1466 49.4969 32.2086 49.447 32.2592 49.3866C32.3098 49.3261 32.348 49.2563 32.3716 49.1811C32.3953 49.1059 32.4038 49.0267 32.3969 48.9482C32.3899 48.8697 32.3676 48.7933 32.3311 48.7234L31.8427 47.7898C35.0687 48.7596 38.5323 48.5711 41.6341 47.257C41.7806 47.195 41.8965 47.0773 41.9563 46.9299C42.0161 46.7824 42.0149 46.6173 41.9529 46.4707ZM52.0242 31.7758C51.9117 31.6633 51.7591 31.6001 51.6 31.6001C51.4409 31.6001 51.2883 31.6633 51.1758 31.7758L50.3268 32.6248C49.83 27.3696 46.4935 22.8091 41.6352 20.7448C41.4888 20.6824 41.3236 20.6808 41.176 20.7402C41.0284 20.7996 40.9104 20.9152 40.848 21.0616C40.7856 21.208 40.784 21.3732 40.8434 21.5208C40.9028 21.6684 41.0184 21.7864 41.1648 21.8488C45.5231 23.7011 48.5526 27.749 49.101 32.4526L48.4242 31.7758C48.311 31.6665 48.1595 31.606 48.0022 31.6074C47.8448 31.6088 47.6944 31.6719 47.5831 31.7831C47.4719 31.8944 47.4088 32.0448 47.4074 32.2022C47.406 32.3595 47.4665 32.511 47.5758 32.6242L49.3758 34.4242C49.4314 34.48 49.4975 34.5243 49.5703 34.5545C49.6431 34.5848 49.7211 34.6004 49.7999 34.6005C49.8787 34.6006 49.9567 34.5851 50.0295 34.5551C50.1024 34.525 50.1686 34.4809 50.2243 34.4253L50.2254 34.4242L52.0254 32.6242C52.1377 32.5115 52.2007 32.3589 52.2005 32.1998C52.2002 32.0407 52.1368 31.8882 52.0242 31.7758ZM31.1826 21.1954C31.1807 21.1604 31.1755 21.1256 31.167 21.0916C31.167 21.0862 31.1604 21.0826 31.158 21.0766C31.1556 21.0706 31.158 21.0664 31.158 21.0616C31.1416 21.0324 31.1228 21.0047 31.1016 20.9788C31.0821 20.9436 31.0592 20.9104 31.0332 20.8798C30.9977 20.8484 30.9584 20.8216 30.9162 20.8C30.8951 20.7821 30.8726 20.7658 30.849 20.7514L28.449 19.6552C28.3055 19.5963 28.1448 19.5952 28.0005 19.6522C27.8563 19.7093 27.7397 19.8199 27.6753 19.961C27.6109 20.1021 27.6036 20.2627 27.655 20.4091C27.7064 20.5554 27.8125 20.6762 27.951 20.746L29.1936 21.3142C24.5156 23.8178 21.5966 28.6942 21.6 34C21.6 34.1591 21.6632 34.3117 21.7757 34.4243C21.8883 34.5368 22.0409 34.6 22.2 34.6C22.3591 34.6 22.5117 34.5368 22.6243 34.4243C22.7368 34.3117 22.8 34.1591 22.8 34C22.797 29.328 25.2676 25.0036 29.2938 22.6336L28.86 23.5402C28.7913 23.6834 28.7822 23.8481 28.8348 23.998C28.8873 24.148 28.9971 24.2709 29.1402 24.34C29.2211 24.3795 29.31 24.4001 29.4 24.4C29.5129 24.3998 29.6235 24.3678 29.719 24.3077C29.8145 24.2475 29.8911 24.1616 29.94 24.0598L31.14 21.556C31.14 21.55 31.14 21.5434 31.1448 21.5374C31.1604 21.4964 31.1713 21.4537 31.1772 21.4102C31.1875 21.3779 31.1951 21.3448 31.2 21.3112C31.198 21.2721 31.1922 21.2333 31.1826 21.1954Z" fill="black"/>
</g>
<defs>
<radialGradient id="paint0_radial_1_2137" cx="0" cy="0" r="1" gradientUnits="userSpaceOnUse" gradientTransform="translate(36 36) rotate(90) scale(36)">
<stop offset="0.591346" stop-color="#3E96F4" stop-opacity="0"/>
<stop offset="0.822115" stop-color="#3E96F4" stop-opacity="0.1"/>
<stop offset="1" stop-color="#3E96F4" stop-opacity="0.3"/>
</radialGradient>
<clipPath id="clip0_1_2137">
<rect width="36" height="36" fill="white" transform="translate(18 16)"/>
</clipPath>
</defs>
</svg>
