<svg width="20" height="23" viewBox="0 0 20 23" fill="none" xmlns="http://www.w3.org/2000/svg">
<path d="M5.66699 14.3335H6.33366V15.0002H5.66699V14.3335ZM7.00033 14.3335H7.66699V15.0002H7.00033V14.3335ZM8.33366 14.3335H9.00033V15.0002H8.33366V14.3335ZM5.66699 15.6668H6.33366V16.3335H5.66699V15.6668ZM7.00033 15.6668H7.66699V16.3335H7.00033V15.6668ZM8.33366 15.6668H9.00033V16.3335H8.33366V15.6668ZM9.66699 15.6668H10.3337V16.3335H9.66699V15.6668ZM11.0003 15.6668H11.667V16.3335H11.0003V15.6668ZM5.66699 17.0002H6.33366V17.6668H5.66699V17.0002ZM7.00033 17.0002H7.66699V17.6668H7.00033V17.0002ZM8.33366 17.0002H9.00033V17.6668H8.33366V17.0002ZM9.66699 17.0002H10.3337V17.6668H9.66699V17.0002ZM11.0003 17.0002H11.667V17.6668H11.0003V17.0002ZM5.66699 18.3335H6.33366V19.0002H5.66699V18.3335ZM7.00033 18.3335H7.66699V19.0002H7.00033V18.3335ZM8.33366 18.3335H9.00033V19.0002H8.33366V18.3335ZM9.66699 18.3335H10.3337V19.0002H9.66699V18.3335ZM11.0003 18.3335H11.667V19.0002H11.0003V18.3335ZM5.66699 19.6668H6.33366V20.3335H5.66699V19.6668ZM7.00033 19.6668H7.66699V20.3335H7.00033V19.6668ZM8.33366 19.6668H9.00033V20.3335H8.33366V19.6668ZM9.66699 19.6668H10.3337V20.3335H9.66699V19.6668ZM11.0003 19.6668H11.667V20.3335H11.0003V19.6668ZM5.66699 21.0002H6.33366V21.6668H5.66699V21.0002ZM7.00033 21.0002H7.66699V21.6668H7.00033V21.0002ZM8.33366 21.0002H9.00033V21.6668H8.33366V21.0002ZM9.66699 21.0002H10.3337V21.6668H9.66699V21.0002ZM11.0003 21.0002H11.667V21.6668H11.0003V21.0002Z" fill="#3E96F4"/>
<path d="M19.6667 4H17.3333V3.33333C17.3333 3.24493 17.2982 3.16014 17.2357 3.09763C17.1732 3.03512 17.0884 3 17 3H13.6667C13.5783 3 13.4935 3.03512 13.431 3.09763C13.3685 3.16014 13.3333 3.24493 13.3333 3.33333V4H0.333333C0.244928 4 0.160143 4.03512 0.0976311 4.09763C0.035119 4.16014 0 4.24493 0 4.33333L0 5.66667C0 5.85092 0.14925 6 0.333333 6H1.33333V12.3333C1.33333 12.5176 1.48258 12.6667 1.66667 12.6667C1.73259 12.6667 1.79704 12.6862 1.85186 12.7228C1.90667 12.7595 1.9494 12.8115 1.97463 12.8724C1.99986 12.9333 2.00646 13.0004 1.9936 13.065C1.98073 13.1297 1.94899 13.1891 1.90237 13.2357C1.85575 13.2823 1.79636 13.3141 1.7317 13.3269C1.66704 13.3398 1.60001 13.3332 1.53911 13.308C1.4782 13.2827 1.42614 13.24 1.38951 13.1852C1.35288 13.1304 1.33333 13.0659 1.33333 13H0.666667C0.667625 13.244 0.758333 13.4792 0.921708 13.6605L0.0667083 14.8001L0.0709583 14.8034C0.026394 14.8594 0.00146254 14.9285 0 15L0 16.3333C0 16.4219 0.0351667 16.5065 0.0976667 16.569L0.764333 17.2357C0.826834 17.2982 0.911603 17.3333 1 17.3333H2.33333C2.42173 17.3333 2.5065 17.2982 2.569 17.2357L3.23567 16.569C3.26663 16.5381 3.2912 16.5013 3.30796 16.4609C3.32471 16.4205 3.33334 16.3771 3.33333 16.3333V15C3.33187 14.9285 3.30694 14.8594 3.26237 14.8034L3.26658 14.8001L2.41158 13.6605C2.52121 13.5387 2.59901 13.3917 2.63806 13.2326C2.67711 13.0734 2.6762 12.9071 2.63542 12.7484C2.59469 12.5897 2.51536 12.4436 2.4045 12.3229C2.29364 12.2023 2.15469 12.111 2 12.0571V6H13.3333V6.33333C13.3333 6.51758 13.4826 6.66667 13.6667 6.66667H14.3333V22.3333H13V9H12.3333V10.3333H10.3333V9.66667H9.66667V10.3333H7.66667V10H7V10.3333H5V9.33333H9.33333V8.66667H5V7.33333H4.33333V22.3333H3.80467L2.23567 20.7645C2.20472 20.7335 2.16798 20.709 2.12755 20.6922C2.08711 20.6755 2.04377 20.6669 2 20.6669C1.95623 20.6669 1.91289 20.6755 1.87245 20.6922C1.83202 20.709 1.79528 20.7335 1.76433 20.7645L0.195292 22.3333H0V23H20V22.3333H19.7401C19.8554 22.2074 19.9362 22.0538 19.9747 21.8874C20.0132 21.721 20.008 21.5475 19.9597 21.3838C19.9114 21.22 19.8216 21.0715 19.699 20.9526C19.5764 20.8338 19.4251 20.7486 19.2599 20.7054C19.3424 20.5022 19.3557 20.2775 19.298 20.066C19.2402 19.8544 19.1144 19.6677 18.9401 19.5347C18.7658 19.4016 18.5526 19.3295 18.3334 19.3295C18.1141 19.3295 17.9009 19.4016 17.7266 19.5347C17.5523 19.6677 17.4265 19.8544 17.3687 20.066C17.3109 20.2775 17.3243 20.5022 17.4068 20.7054C17.2416 20.7486 17.0903 20.8338 16.9677 20.9526C16.8451 21.0715 16.7553 21.22 16.707 21.3838C16.6587 21.5475 16.6535 21.721 16.692 21.8874C16.7305 22.0538 16.8113 22.2074 16.9266 22.3333H16.3333V6.66667H17C17.1841 6.66667 17.3333 6.51758 17.3333 6.33333V6H19.6667C19.8508 6 20 5.85092 20 5.66667V4.33333C20 4.24493 19.9649 4.16014 19.9024 4.09763C19.8399 4.03512 19.7551 4 19.6667 4ZM1.83333 14L2.33333 14.6667H1L1.5 14H1.83333ZM2.66667 16.1955L2.19529 16.6667H1.13808L0.666667 16.1955V15.3333H2.66667V16.1955ZM18.2334 4.66667L17.3333 5.26675V4.66667H18.2334ZM14 3.66667H15.3333V5H14V3.66667ZM5 4.73342L5.90008 5.33333H4.09992L5 4.73342ZM3 5.26675L2.09992 4.66667H3.90008L3 5.26675ZM6.09992 4.66667H7.90008L7 5.26675L6.09992 4.66667ZM9 4.73342L9.90008 5.33333H8.09992L9 4.73342ZM10.0999 4.66667H11.9001L11 5.26675L10.0999 4.66667ZM0.666667 4.66667H0.900083L1.90008 5.33333H0.666667V4.66667ZM12.0999 5.33333L13.0999 4.66667H13.3333V5.33333H12.0999ZM15.6667 21.2334L15.0668 20.3333L15.6667 19.4334V21.2334ZM15.6667 13.2334L15.0668 12.3333L15.6667 11.4334V13.2334ZM15 13.4334L15.5999 14.3333L15 15.2334V13.4334ZM15 11.2334V9.43342L15.5999 10.3333L15 11.2334ZM15 17.4334L15.5999 18.3333L15 19.2334V17.4334ZM15.6667 17.2315L15.0668 16.3333L15.6667 15.4334V17.2315ZM15.0668 8.33333L15.6667 7.43342V9.23342L15.0668 8.33333ZM15 7.23342V6.66667H15.3773L15 7.23342ZM12.3333 11V14.3333H10.3333V11H12.3333ZM9.66667 11V13.8667L8.90008 13.109C8.83787 13.0476 8.75408 13.0131 8.66667 13.0127H7.66667V11H9.66667ZM7 11V11.5557H5V11H7ZM2 21.4714L2.862 22.3333H1.138L2 21.4714ZM5 22.3333V12.2223H7V13.3473C7 13.5316 7.14925 13.6807 7.33333 13.6807H8.52958L9.76658 14.9038C9.82876 14.9652 9.91259 14.9998 10 15H12.3333V22.3333H5ZM15 21.4334L15.5999 22.3333H15V21.4334ZM19 22C18.9116 22 18.8268 21.9649 18.7643 21.9024C18.7018 21.8399 18.6667 21.7551 18.6667 21.6667C18.6667 21.5783 18.7018 21.4935 18.7643 21.431C18.8268 21.3685 18.9116 21.3333 19 21.3333C19.0884 21.3333 19.1732 21.3685 19.2357 21.431C19.2982 21.4935 19.3333 21.5783 19.3333 21.6667C19.3333 21.7551 19.2982 21.8399 19.2357 21.9024C19.1732 21.9649 19.0884 22 19 22ZM18.3333 20C18.4217 20 18.5065 20.0351 18.569 20.0976C18.6315 20.1601 18.6667 20.2449 18.6667 20.3333C18.6667 20.4217 18.6315 20.5065 18.569 20.569C18.5065 20.6315 18.4217 20.6667 18.3333 20.6667C18.2449 20.6667 18.1601 20.6315 18.0976 20.569C18.0351 20.5065 18 20.4217 18 20.3333C18 20.2449 18.0351 20.1601 18.0976 20.0976C18.1601 20.0351 18.2449 20 18.3333 20ZM17.6667 21.3333C17.7551 21.3333 17.8399 21.3685 17.9024 21.431C17.9649 21.4935 18 21.5783 18 21.6667C18 21.7551 17.9649 21.8399 17.9024 21.9024C17.8399 21.9649 17.7551 22 17.6667 22C17.5783 22 17.4935 21.9649 17.431 21.9024C17.3685 21.8399 17.3333 21.7551 17.3333 21.6667C17.3333 21.5783 17.3685 21.4935 17.431 21.431C17.4935 21.3685 17.5783 21.3333 17.6667 21.3333ZM16.6667 6H14V5.66667H15.6667C15.8508 5.66667 16 5.51758 16 5.33333V3.66667H16.6667V6ZM18.4333 5.33333L19.3333 4.73342V5.33333H18.4333Z" fill="#3E96F4"/>
</svg>
