<svg width="64" height="64" viewBox="0 0 64 64" fill="none" xmlns="http://www.w3.org/2000/svg">
<rect width="64" height="64" rx="8" fill="#EDF5FC"/>
<path d="M39.5733 20L24.4506 20C23.2741 19.9991 22.1451 20.4644 21.311 21.2941C20.4768 22.1238 20.0054 23.2503 20 24.4268V39.5493C20.0018 40.7291 20.4713 41.8601 21.3056 42.6944C22.1398 43.5287 23.2708 43.9982 24.4506 44H39.5733C40.7493 43.9928 41.8747 43.5208 42.704 42.6871C43.5333 41.8532 43.9991 40.7253 44 39.5493V24.4404C44.0018 23.858 43.8886 23.2809 43.6669 22.7422C43.4453 22.2036 43.1195 21.7139 42.7082 21.3014C42.297 20.8889 41.8084 20.5616 41.2704 20.3383C40.7325 20.115 40.1557 20 39.5733 20Z" fill="#3E96F4"/>
<rect x="24" y="24" width="16" height="4" rx="1" fill="white"/>
<rect x="24" y="30" width="4" height="4" rx="1" fill="white"/>
<rect x="24" y="36" width="4" height="4" rx="1" fill="white"/>
<rect x="30" y="30" width="4" height="4" rx="1" fill="white"/>
<rect x="30" y="36" width="4" height="4" rx="1" fill="white"/>
<rect x="36" y="30" width="4" height="4" rx="1" fill="white"/>
<rect x="36" y="36" width="4" height="4" rx="1" fill="white"/>
</svg>
