<svg width="500" height="373" viewBox="0 0 500 373" fill="none" xmlns="http://www.w3.org/2000/svg">
<g opacity="0.57">
<path d="M130.178 263.832C129.977 263.832 129.784 263.752 129.642 263.61C129.5 263.468 129.421 263.276 129.421 263.075C129.448 246.839 132.79 230.78 139.244 215.882C145.698 200.983 155.126 187.56 166.952 176.435C171.189 172.469 175.706 168.814 180.469 165.498C180.633 165.384 180.836 165.339 181.034 165.375C181.231 165.41 181.406 165.523 181.52 165.687C181.634 165.851 181.679 166.055 181.643 166.252C181.608 166.449 181.495 166.624 181.331 166.739C165.786 177.543 153.085 191.947 144.309 208.721C135.534 225.496 130.945 244.144 130.934 263.075C130.934 263.276 130.855 263.468 130.713 263.61C130.571 263.752 130.378 263.832 130.178 263.832Z" fill="#C0C0C0" stroke="white" stroke-width="0.4"/>
<path d="M358.767 224.065L358.767 224.065L358.762 224.052C358.721 223.957 358.7 223.855 358.7 223.751C358.7 223.648 358.722 223.545 358.763 223.451C358.804 223.356 358.865 223.27 358.94 223.2C359.016 223.129 359.105 223.075 359.203 223.04C359.3 223.005 359.404 222.991 359.507 222.998C359.61 223.004 359.711 223.032 359.803 223.08C359.895 223.127 359.977 223.193 360.042 223.273C360.108 223.353 360.156 223.446 360.185 223.545L360.184 223.545L360.188 223.557C364.662 236.251 366.94 249.615 366.923 263.075V263.075C366.923 263.276 366.843 263.468 366.701 263.61C366.559 263.752 366.367 263.832 366.166 263.832C365.965 263.832 365.773 263.752 365.631 263.61C365.489 263.468 365.409 263.276 365.409 263.075C365.427 249.789 363.181 236.597 358.767 224.065Z" fill="#C0C0C0" stroke="white" stroke-width="0.4"/>
<path d="M312.423 163.214L312.423 163.214L312.424 163.215C332.568 176.158 348.325 194.892 357.626 216.956C357.664 217.048 357.684 217.146 357.684 217.246C357.685 217.346 357.665 217.444 357.627 217.536C357.589 217.629 357.534 217.712 357.463 217.783C357.393 217.853 357.309 217.909 357.217 217.947L357.215 217.948C357.122 217.988 357.022 218.008 356.92 218.009C356.772 218.008 356.627 217.965 356.503 217.883C356.379 217.8 356.282 217.684 356.224 217.547C347.05 195.758 331.492 177.259 311.598 164.486C311.429 164.376 311.311 164.205 311.269 164.008C311.227 163.811 311.265 163.606 311.375 163.438C311.484 163.269 311.656 163.151 311.853 163.109C312.05 163.067 312.255 163.105 312.423 163.214Z" fill="#C0C0C0" stroke="white" stroke-width="0.4"/>
<path d="M188.653 161.957L188.653 161.957L188.649 161.957C188.517 161.958 188.386 161.924 188.27 161.859C188.155 161.794 188.059 161.7 187.991 161.586C187.941 161.5 187.908 161.405 187.895 161.307C187.881 161.208 187.887 161.108 187.912 161.012C187.938 160.915 187.982 160.825 188.042 160.746C188.102 160.666 188.178 160.6 188.264 160.55L188.264 160.55C204.855 150.871 223.543 145.355 242.73 144.474C261.918 143.592 281.033 147.371 298.441 155.487L298.444 155.488C298.536 155.529 298.619 155.588 298.688 155.662C298.756 155.735 298.81 155.821 298.845 155.916L299.032 155.846L298.845 155.916C298.88 156.01 298.896 156.11 298.892 156.211C298.887 156.311 298.863 156.41 298.821 156.501C298.778 156.592 298.717 156.674 298.643 156.741C298.568 156.808 298.481 156.86 298.386 156.893C298.291 156.927 298.19 156.941 298.09 156.935C297.989 156.929 297.891 156.903 297.801 156.858L297.797 156.856C280.611 148.846 261.741 145.117 242.799 145.987C223.858 146.856 205.409 152.299 189.029 161.85L189.029 161.85L189.024 161.853C188.913 161.922 188.784 161.958 188.653 161.957Z" fill="#C0C0C0" stroke="white" stroke-width="0.4"/>
<path d="M192.532 136.512C167.974 147.326 147.09 165.048 132.425 187.519C117.759 209.99 109.945 236.242 109.932 263.075C109.932 263.276 109.853 263.468 109.711 263.61C109.569 263.752 109.376 263.832 109.176 263.832C108.975 263.832 108.782 263.752 108.64 263.61C108.498 263.468 108.419 263.276 108.419 263.075C108.432 235.949 116.332 209.411 131.157 186.694C145.982 163.977 167.093 146.061 191.918 135.127L191.919 135.127C192.102 135.045 192.311 135.04 192.498 135.113C192.685 135.185 192.836 135.329 192.918 135.513C192.999 135.697 193.004 135.905 192.932 136.092C192.859 136.28 192.716 136.431 192.532 136.512ZM192.532 136.512L192.613 136.695M192.532 136.512C192.532 136.512 192.532 136.512 192.532 136.512L192.613 136.695M192.613 136.695C192.845 136.592 193.027 136.401 193.118 136.164C193.21 135.928 193.203 135.664 193.101 135.432C192.998 135.2 192.807 135.018 192.57 134.926C192.333 134.835 192.07 134.841 191.838 134.944C166.977 145.893 145.836 163.835 130.99 186.585C116.143 209.334 108.232 235.91 108.219 263.075C108.219 263.329 108.32 263.572 108.499 263.752C108.678 263.931 108.922 264.032 109.176 264.032C109.429 264.032 109.673 263.931 109.852 263.752C110.032 263.572 110.132 263.329 110.132 263.075C110.145 236.28 117.948 210.067 132.592 187.628C147.237 165.19 168.09 147.493 192.613 136.695Z" fill="#C0C0C0" stroke="white" stroke-width="0.4"/>
<path d="M386.412 263.075L386.412 263.075C386.365 241.471 381.281 220.175 371.563 200.879C361.846 181.584 347.762 164.821 330.432 151.921L330.431 151.92C330.351 151.861 330.284 151.787 330.232 151.701C330.181 151.616 330.147 151.522 330.132 151.423C330.117 151.325 330.122 151.224 330.146 151.128C330.17 151.031 330.213 150.94 330.272 150.86L330.273 150.86C330.332 150.78 330.406 150.712 330.491 150.661C330.577 150.61 330.671 150.576 330.77 150.561C330.868 150.546 330.968 150.551 331.065 150.575C331.161 150.599 331.252 150.642 331.332 150.701C348.565 163.508 362.647 180.08 372.504 199.154C382.71 218.911 388 240.838 387.925 263.075V263.075C387.925 263.276 387.846 263.468 387.704 263.61C387.562 263.752 387.369 263.832 387.169 263.832C386.968 263.832 386.775 263.752 386.633 263.61C386.491 263.468 386.412 263.276 386.412 263.075Z" fill="#C0C0C0" stroke="white" stroke-width="0.4"/>
<path d="M322.193 146.325L322.191 146.324C319.365 144.533 316.442 142.808 313.462 141.217C313.286 141.122 313.154 140.961 313.096 140.77C313.038 140.579 313.058 140.372 313.152 140.195L313.152 140.195C313.199 140.107 313.262 140.029 313.34 139.965C313.417 139.902 313.506 139.854 313.602 139.825C313.697 139.797 313.798 139.787 313.897 139.797C313.997 139.807 314.093 139.837 314.181 139.885L314.181 139.885L314.182 139.885C317.172 141.49 320.144 143.229 323.01 145.054C323.178 145.163 323.296 145.333 323.339 145.529C323.381 145.725 323.344 145.929 323.236 146.098C323.168 146.205 323.074 146.292 322.963 146.353C322.852 146.414 322.727 146.446 322.601 146.446C322.456 146.446 322.314 146.404 322.193 146.325Z" fill="#C0C0C0" stroke="white" stroke-width="0.4"/>
<path d="M307.672 138.217C307.571 138.215 307.472 138.19 307.382 138.144L307.382 138.144L307.376 138.141C274.956 122.831 237.869 120.665 203.888 132.094L203.887 132.094L203.874 132.099C203.779 132.139 203.676 132.159 203.572 132.157C203.468 132.156 203.366 132.133 203.272 132.09L203.19 132.271L203.272 132.09C203.177 132.047 203.093 131.986 203.023 131.909C202.953 131.832 202.9 131.741 202.867 131.643C202.834 131.545 202.821 131.441 202.83 131.338C202.838 131.234 202.868 131.134 202.917 131.042C202.966 130.951 203.033 130.871 203.115 130.807C203.196 130.742 203.29 130.695 203.39 130.669L203.39 130.669L203.403 130.665C237.745 119.11 275.228 121.301 307.989 136.78C308.143 136.854 308.266 136.979 308.34 137.132C308.414 137.286 308.434 137.461 308.396 137.628C308.359 137.794 308.266 137.943 308.132 138.05C308.002 138.156 307.84 138.214 307.672 138.217Z" fill="#C0C0C0" stroke="white" stroke-width="0.4"/>
<path d="M402.593 210.637L402.593 210.637C408.312 227.528 411.217 245.243 411.194 263.075V263.075C411.194 263.275 411.115 263.466 410.975 263.608C410.835 263.749 410.645 263.83 410.446 263.832C410.245 263.832 410.053 263.752 409.911 263.61C409.77 263.468 409.69 263.276 409.69 263.075C409.713 245.406 406.829 227.854 401.154 211.121C401.09 210.931 401.104 210.722 401.193 210.542C401.283 210.361 401.44 210.224 401.631 210.16C401.822 210.095 402.03 210.11 402.211 210.199C402.391 210.289 402.528 210.446 402.593 210.637Z" fill="#C0C0C0" stroke="white" stroke-width="0.4"/>
<path d="M398.775 202.532L398.772 202.533C398.682 202.572 398.585 202.592 398.487 202.594C398.338 202.593 398.193 202.548 398.069 202.465C397.945 202.381 397.849 202.263 397.792 202.125C386.36 174.136 367.317 149.909 342.821 132.189C342.66 132.071 342.553 131.895 342.522 131.698C342.491 131.501 342.538 131.3 342.655 131.138C342.772 130.976 342.948 130.867 343.145 130.834C343.342 130.802 343.543 130.848 343.706 130.963C368.434 148.845 387.655 173.298 399.192 201.549C399.266 201.734 399.265 201.942 399.187 202.126C399.109 202.311 398.961 202.457 398.775 202.532Z" fill="#C0C0C0" stroke="white" stroke-width="0.4"/>
<path fill-rule="evenodd" clip-rule="evenodd" d="M333.955 125.846L333.958 125.846C334.079 125.847 334.197 125.807 334.294 125.735C334.391 125.662 334.461 125.559 334.495 125.443C334.528 125.326 334.523 125.202 334.479 125.089C334.435 124.976 334.356 124.88 334.253 124.816L334.252 124.816C315.537 113.188 294.661 105.468 272.883 102.122C251.105 98.7754 228.875 99.8714 207.532 105.344C207.39 105.381 207.269 105.472 207.194 105.598C207.119 105.724 207.096 105.874 207.131 106.016C207.15 106.087 207.182 106.153 207.225 106.211C207.269 106.27 207.324 106.319 207.388 106.356C207.451 106.394 207.521 106.418 207.593 106.428C207.666 106.439 207.74 106.434 207.811 106.416L207.812 106.416C229.009 100.986 251.086 99.9003 272.714 103.225C294.341 106.55 315.073 114.217 333.66 125.763L333.449 126.103L333.66 125.763C333.66 125.763 333.66 125.763 333.66 125.763C333.749 125.818 333.851 125.847 333.955 125.846Z" fill="#D7D7D7"/>
<path fill-rule="evenodd" clip-rule="evenodd" d="M176.816 117.866L176.813 117.866C176.687 117.867 176.564 117.824 176.465 117.746C176.366 117.668 176.297 117.558 176.268 117.435C176.24 117.312 176.254 117.183 176.308 117.069C176.363 116.955 176.454 116.863 176.568 116.808L176.569 116.807C181.563 114.365 186.676 112.177 191.89 110.25L191.89 110.25C191.96 110.224 192.033 110.212 192.107 110.215C192.18 110.218 192.253 110.235 192.319 110.267C192.386 110.298 192.446 110.342 192.496 110.396C192.546 110.451 192.584 110.514 192.609 110.584L192.609 110.585C192.659 110.723 192.652 110.877 192.59 111.01C192.527 111.144 192.414 111.247 192.275 111.297L192.273 111.298C187.094 113.207 182.016 115.38 177.06 117.811C176.984 117.848 176.901 117.867 176.816 117.866Z" fill="#C0C0C0"/>
<path fill-rule="evenodd" clip-rule="evenodd" d="M165.898 122.534L165.905 122.531L165.911 122.527C165.974 122.487 166.045 122.46 166.119 122.447C166.193 122.435 166.269 122.438 166.342 122.456C166.415 122.474 166.483 122.506 166.544 122.551C166.604 122.596 166.654 122.653 166.692 122.718C166.729 122.783 166.753 122.855 166.762 122.93C166.771 123.004 166.765 123.08 166.744 123.152C166.723 123.224 166.688 123.291 166.64 123.349C166.593 123.407 166.534 123.455 166.468 123.49L166.459 123.495L166.45 123.5C142.151 137.822 121.998 158.222 107.975 182.695C93.952 207.167 86.5409 234.869 86.4711 263.074V263.075C86.4711 263.223 86.4125 263.365 86.308 263.469C86.2036 263.574 86.062 263.632 85.9143 263.632C85.7666 263.632 85.625 263.574 85.5205 263.469C85.4161 263.365 85.3574 263.223 85.3574 263.075C85.3446 234.657 92.7727 206.73 106.903 182.074C121.033 157.417 141.372 136.89 165.898 122.534Z" fill="#C0C0C0"/>
</g>
<g opacity="0.22">
<path d="M67.6822 254.55L67.6822 254.549C67.6511 229.861 72.7 205.429 82.5148 182.775C92.3295 160.121 106.7 139.729 124.733 122.866L124.734 122.866C131.168 116.832 138.033 111.275 145.275 106.239C145.512 106.075 145.805 106.012 146.089 106.064C146.372 106.115 146.624 106.277 146.788 106.514C146.952 106.752 147.015 107.044 146.964 107.328C146.912 107.612 146.75 107.863 146.513 108.027L146.513 108.027C122.855 124.45 103.524 146.354 90.1679 171.869C76.8121 197.383 69.8289 225.751 69.8144 254.55L69.8144 254.55C69.8145 254.833 69.7042 255.105 69.5069 255.307C69.3107 255.509 69.0441 255.626 68.7631 255.635C68.4768 255.634 68.2025 255.52 68 255.317C67.7965 255.114 67.6822 254.838 67.6822 254.55Z" fill="#C0C0C0" stroke="white" stroke-width="0.7"/>
<path d="M416.357 195.205L416.357 195.205L416.357 195.203C416.309 195.069 416.288 194.927 416.295 194.786C416.302 194.644 416.337 194.505 416.398 194.376C416.459 194.248 416.545 194.133 416.651 194.039C416.756 193.944 416.88 193.871 417.013 193.824C417.287 193.729 417.586 193.746 417.847 193.87C418.108 193.995 418.308 194.218 418.405 194.491C425.201 213.784 428.66 234.094 428.633 254.549V254.55C428.633 254.834 428.522 255.107 428.323 255.31C428.125 255.512 427.856 255.629 427.573 255.635C427.286 255.634 427.012 255.52 426.809 255.317C426.606 255.114 426.491 254.838 426.491 254.55C426.509 234.336 423.082 214.267 416.357 195.205Z" fill="#C0C0C0" stroke="white" stroke-width="0.7"/>
<path d="M412.532 185.254L412.532 185.253C398.573 152.118 374.909 123.985 344.653 104.557L344.646 104.552L344.638 104.547C344.51 104.474 344.398 104.376 344.309 104.258C344.22 104.141 344.157 104.006 344.121 103.863C344.086 103.72 344.081 103.571 344.105 103.426C344.129 103.281 344.183 103.142 344.263 103.018C344.342 102.894 344.446 102.787 344.569 102.705C344.691 102.622 344.828 102.566 344.973 102.538C345.118 102.511 345.267 102.513 345.411 102.545C345.554 102.577 345.69 102.638 345.81 102.724L345.817 102.729L345.825 102.735C376.449 122.395 400.401 150.868 414.527 184.405C414.596 184.57 414.623 184.75 414.606 184.928C414.589 185.107 414.528 185.278 414.43 185.428C414.331 185.577 414.197 185.701 414.039 185.786C413.882 185.872 413.707 185.917 413.528 185.919C413.316 185.918 413.108 185.855 412.931 185.737C412.753 185.619 412.614 185.451 412.532 185.254Z" fill="#C0C0C0" stroke="white" stroke-width="0.7"/>
<path d="M157.681 100.693L157.679 100.693C157.442 100.692 157.211 100.613 157.023 100.469C156.834 100.324 156.699 100.122 156.636 99.893C156.574 99.6639 156.588 99.4206 156.677 99.2005C156.766 98.9808 156.925 98.7962 157.128 98.675C182.346 83.9684 210.749 75.5867 239.911 74.2463C269.073 72.9058 298.125 78.6468 324.586 90.9784C324.715 91.0387 324.831 91.1239 324.927 91.2291C325.024 91.3343 325.098 91.4575 325.147 91.5916C325.196 91.7256 325.218 91.8679 325.211 92.0105C325.205 92.153 325.171 92.2928 325.11 92.422L325.428 92.5701L325.11 92.4221C325.05 92.5513 324.965 92.6674 324.86 92.7637C324.755 92.86 324.631 92.9347 324.497 92.9834C324.363 93.0321 324.221 93.0539 324.078 93.0477C323.936 93.0414 323.796 93.0071 323.667 92.9467L323.667 92.9466C297.526 80.7629 268.824 75.0906 240.013 76.4146C211.203 77.7386 183.143 86.0193 158.23 100.549C158.063 100.645 157.874 100.695 157.681 100.693Z" fill="#C0C0C0" stroke="white" stroke-width="0.7"/>
<path d="M36.8278 255.635C36.54 255.635 36.264 255.521 36.0605 255.317C35.8569 255.114 35.7426 254.838 35.7426 254.55C35.7533 213.309 47.7582 172.962 70.2946 138.424C92.8311 103.886 124.926 76.6473 162.67 60.0277C162.934 59.9115 163.233 59.905 163.502 60.0095C163.771 60.114 163.987 60.321 164.103 60.585C164.219 60.849 164.226 61.1483 164.121 61.4171C164.017 61.6859 163.81 61.9021 163.546 62.0183L163.687 62.3386L163.545 62.0183C126.188 78.4678 94.4207 105.427 72.1142 139.612C49.8077 173.797 37.9247 213.731 37.9131 254.55C37.9131 254.838 37.7988 255.114 37.5953 255.317C37.3917 255.521 37.1157 255.635 36.8278 255.635Z" fill="#C0C0C0" stroke="white" stroke-width="0.7"/>
<path d="M459.526 255.635L459.526 255.635H459.514C459.226 255.635 458.95 255.521 458.746 255.317C458.543 255.114 458.429 254.838 458.429 254.55V254.549C458.35 221.699 450.613 189.32 435.832 159.984C421.052 130.647 399.634 105.16 373.281 85.5484L373.281 85.5483L373.279 85.5466C373.164 85.4625 373.067 85.3562 372.993 85.2341C372.919 85.112 372.871 84.9765 372.85 84.8354C372.829 84.6944 372.836 84.5506 372.872 84.4124C372.907 84.2742 372.969 84.1444 373.055 84.0305L373.056 84.0301C373.229 83.7999 373.486 83.6471 373.771 83.605C374.055 83.563 374.345 83.6348 374.577 83.8048C400.771 103.272 422.175 128.463 437.157 157.457L437.157 157.457C452.679 187.462 460.737 220.767 460.647 254.549V254.55C460.647 254.696 460.618 254.84 460.561 254.974C460.504 255.108 460.421 255.229 460.316 255.331C460.212 255.432 460.088 255.511 459.952 255.563C459.816 255.616 459.671 255.64 459.526 255.635Z" fill="#C0C0C0" stroke="white" stroke-width="0.7"/>
<path d="M361.288 77.0876L361.288 77.0957C361.1 77.0858 360.917 77.0267 360.759 76.9239L360.759 76.9238L360.756 76.9219C356.433 74.1809 351.967 71.5644 347.471 69.1584L347.471 69.1583C347.215 69.0218 347.024 68.7894 346.94 68.5121C346.856 68.2349 346.885 67.9355 347.022 67.6799C347.158 67.4243 347.391 67.2333 347.668 67.149C347.945 67.0648 348.244 67.0941 348.5 67.2305C353.046 69.6661 357.555 72.3119 361.872 75.0817L361.875 75.0834C362.075 75.2091 362.228 75.3965 362.312 75.6174C362.396 75.8382 362.405 76.0803 362.339 76.3069C362.272 76.5336 362.134 76.7325 361.945 76.8733C361.755 77.0142 361.525 77.0894 361.288 77.0876Z" fill="#C0C0C0" stroke="white" stroke-width="0.7"/>
<path d="M339.324 64.3677C339.138 64.515 338.908 64.5966 338.671 64.6007C338.513 64.5983 338.357 64.5613 338.214 64.4922L338.211 64.4907C288.917 41.223 232.532 37.9293 180.865 55.2993L180.865 55.2993L180.86 55.3008C180.586 55.397 180.285 55.3803 180.023 55.2545C179.762 55.1288 179.561 54.9041 179.464 54.6301C179.368 54.3561 179.385 54.0551 179.511 53.7933L179.195 53.6417L179.511 53.7933C179.636 53.5322 179.86 53.3315 180.133 53.235C232.338 35.6927 289.304 39.0236 339.108 62.5307L339.11 62.5315C339.335 62.6362 339.518 62.8148 339.627 63.0377C339.736 63.2605 339.766 63.5141 339.711 63.7561C339.656 63.9981 339.519 64.214 339.324 64.3677Z" fill="#C0C0C0" stroke="white" stroke-width="0.7"/>
<path d="M494.91 255.635H494.91C494.622 255.635 494.346 255.521 494.143 255.317C493.939 255.114 493.825 254.838 493.825 254.55C493.853 227.679 489.47 200.987 480.851 175.536L480.851 175.536L480.849 175.532C480.753 175.259 480.77 174.959 480.895 174.699C481.02 174.438 481.243 174.237 481.516 174.141C481.789 174.045 482.088 174.061 482.349 174.186C482.609 174.311 482.81 174.534 482.906 174.806C491.603 200.478 496.025 227.405 495.996 254.511H495.995L495.996 254.521C495.999 254.666 495.974 254.81 495.921 254.945C495.869 255.08 495.789 255.203 495.688 255.307C495.587 255.411 495.466 255.493 495.332 255.55C495.199 255.606 495.055 255.635 494.91 255.635Z" fill="#C0C0C0" stroke="white" stroke-width="0.7"/>
<path d="M393.393 53.6947L393.393 53.6949C430.982 80.869 460.202 118.036 477.735 160.978C477.841 161.244 477.838 161.542 477.725 161.806C477.613 162.071 477.4 162.28 477.133 162.387L477.124 162.391L477.115 162.395C476.993 162.453 476.86 162.484 476.726 162.486C476.511 162.486 476.301 162.422 476.123 162.303C475.944 162.183 475.804 162.013 475.722 161.813C458.343 119.243 429.38 82.3954 392.119 55.4527L391.914 55.7363L392.119 55.4529C391.886 55.284 391.729 55.0295 391.684 54.7452C391.638 54.4609 391.708 54.1702 391.877 53.9371C392.046 53.7039 392.3 53.5474 392.584 53.5019C392.869 53.4565 393.159 53.5258 393.393 53.6947Z" fill="#C0C0C0" stroke="white" stroke-width="0.7"/>
<path fill-rule="evenodd" clip-rule="evenodd" d="M378.957 45.7029C378.849 45.7653 378.727 45.7996 378.603 45.8026C378.466 45.7993 378.332 45.7598 378.216 45.688C349.94 28.1233 318.403 16.4619 285.502 11.4058C252.601 6.34976 219.017 8.00355 186.772 16.2677L186.771 16.2679C186.678 16.2921 186.58 16.2975 186.484 16.284C186.388 16.2704 186.296 16.2381 186.212 16.1889C186.129 16.1396 186.056 16.0744 185.998 15.997C185.94 15.9196 185.897 15.8315 185.873 15.7377C185.849 15.6438 185.843 15.5461 185.857 15.4503C185.87 15.3544 185.903 15.262 185.952 15.1786C186.001 15.0952 186.066 15.0222 186.144 14.964C186.221 14.9059 186.309 14.8635 186.403 14.8393C218.841 6.52355 252.626 4.85717 285.724 9.94044C318.823 15.0237 350.551 26.7516 378.999 44.4182L379 44.4193C379.082 44.4696 379.153 44.5355 379.209 44.6133C379.265 44.691 379.305 44.7791 379.326 44.8723C379.348 44.9655 379.351 45.0622 379.335 45.1567C379.319 45.2511 379.285 45.3415 379.234 45.4227L379.23 45.4302L379.225 45.4378C379.16 45.5477 379.068 45.6389 378.957 45.7029Z" fill="#C0C0C0"/>
<path d="M139.201 31.9005L139.202 31.8999C146.794 28.1836 154.571 24.856 162.501 21.9299C162.762 21.862 163.038 21.8933 163.277 22.018C163.52 22.1448 163.706 22.359 163.798 22.6174C163.89 22.8758 163.88 23.1593 163.771 23.4109C163.664 23.6595 163.467 23.8588 163.22 23.9698C155.356 26.866 147.646 30.165 140.121 33.8538C139.981 33.9202 139.828 33.9572 139.673 33.9625C139.429 33.9625 139.192 33.88 139 33.7282C138.807 33.5755 138.672 33.3618 138.616 33.1221C138.561 32.8824 138.588 32.631 138.694 32.409C138.801 32.1871 138.979 32.0078 139.201 31.9005Z" fill="#C0C0C0" stroke="white" stroke-width="0.7"/>
<path fill-rule="evenodd" clip-rule="evenodd" d="M0.699243 254.55L0.699243 254.55C0.680114 211.362 11.9687 168.921 33.4421 131.45C54.9155 93.9784 85.8254 62.7821 123.097 40.964C123.264 40.8662 123.463 40.8388 123.651 40.8878C123.838 40.9368 123.998 41.0582 124.096 41.2254C124.194 41.3925 124.221 41.5917 124.172 41.779C124.123 41.9664 124.002 42.1266 123.835 42.2244L123.833 42.2255C86.8682 64.0111 56.2118 95.0446 34.8797 132.273C13.5475 169.501 2.27454 211.641 2.16978 254.548V254.55C2.16978 254.745 2.09231 254.932 1.95443 255.07C1.81654 255.208 1.62952 255.285 1.43451 255.285C1.23951 255.285 1.05249 255.208 0.914597 255.07C0.77671 254.932 0.699243 254.745 0.699243 254.55Z" fill="#C0C0C0"/>
</g>
<path d="M285.858 271C284.618 270.998 283.408 270.619 282.391 269.912C281.374 269.205 280.599 268.205 280.172 267.046L278.355 262.159C274.401 262.823 270.354 262.705 266.445 261.811L264.227 266.602C263.559 268.082 262.327 269.238 260.803 269.815C260.053 270.104 259.253 270.241 258.449 270.218C257.645 270.195 256.853 270.013 256.121 269.682C254.644 269.002 253.498 267.769 252.933 266.251C252.368 264.733 252.431 263.054 253.106 261.582L255.295 256.784C252.035 254.45 249.275 251.496 247.174 248.091L242.268 249.965C241.517 250.25 240.716 250.385 239.912 250.36C239.108 250.336 238.317 250.153 237.585 249.823C236.852 249.492 236.193 249.02 235.645 248.435C235.097 247.849 234.672 247.161 234.393 246.41C233.819 244.881 233.876 243.188 234.55 241.7C235.225 240.213 236.463 239.05 237.996 238.466L242.923 236.592C242.282 232.609 242.434 228.538 243.37 224.612L238.606 222.465C237.508 221.952 236.587 221.129 235.955 220.099C235.324 219.069 235.011 217.877 235.056 216.671C235.1 215.466 235.5 214.3 236.205 213.318C236.911 212.337 237.89 211.583 239.023 211.151C239.774 210.864 240.574 210.728 241.378 210.752C242.182 210.776 242.973 210.96 243.705 211.292L248.462 213.439C250.818 210.156 253.797 207.361 257.23 205.213L255.406 200.297C254.844 198.775 254.906 197.094 255.579 195.618C256.251 194.141 257.481 192.987 259.002 192.404C259.752 192.116 260.553 191.98 261.357 192.002C262.161 192.025 262.953 192.207 263.686 192.537C264.419 192.867 265.078 193.339 265.626 193.925C266.174 194.511 266.599 195.199 266.877 195.95L268.693 200.86C272.647 200.19 276.696 200.308 280.603 201.208L282.792 196.41C283.457 194.933 284.684 193.779 286.204 193.201C287.724 192.624 289.412 192.67 290.898 193.329C291.631 193.658 292.291 194.129 292.838 194.715C293.385 195.302 293.809 195.991 294.084 196.743C294.651 198.264 294.589 199.946 293.913 201.422L291.717 206.228C294.978 208.564 297.741 211.521 299.845 214.928L304.751 213.062C305.501 212.774 306.301 212.638 307.104 212.661C307.908 212.684 308.699 212.865 309.431 213.196C310.164 213.526 310.823 213.997 311.37 214.583C311.917 215.169 312.341 215.858 312.618 216.608C313.181 218.131 313.119 219.813 312.447 221.291C311.774 222.769 310.545 223.924 309.023 224.509L304.095 226.382C304.737 230.363 304.585 234.431 303.649 238.355L308.413 240.509C309.851 241.213 310.958 242.447 311.498 243.948C312.039 245.45 311.97 247.102 311.308 248.554C310.645 250.006 309.44 251.145 307.948 251.729C306.456 252.313 304.794 252.296 303.314 251.682L298.557 249.535C296.203 252.818 293.224 255.611 289.789 257.754L291.612 262.67C291.962 263.6 292.081 264.6 291.957 265.585C291.834 266.57 291.473 267.51 290.904 268.326C290.336 269.141 289.577 269.808 288.693 270.269C287.809 270.729 286.827 270.97 285.829 270.97L285.858 271ZM279.33 260.456L281.563 266.535C281.773 267.104 282.094 267.625 282.508 268.069C282.922 268.512 283.421 268.869 283.975 269.119C284.53 269.369 285.129 269.506 285.737 269.522C286.345 269.539 286.951 269.435 287.518 269.216C288.673 268.771 289.606 267.894 290.118 266.773C290.63 265.652 290.68 264.376 290.258 263.218L288.025 257.154L288.553 256.836C292.203 254.652 295.338 251.712 297.746 248.217L298.096 247.699L303.991 250.357C305.12 250.867 306.407 250.909 307.568 250.475C308.728 250.041 309.668 249.166 310.181 248.043C310.693 246.92 310.736 245.64 310.299 244.486C309.863 243.331 308.984 242.396 307.855 241.886L301.937 239.206L302.093 238.599C303.156 234.485 303.316 230.192 302.562 226.012L302.45 225.412L308.517 223.102C309.671 222.657 310.604 221.78 311.116 220.659C311.628 219.538 311.679 218.262 311.256 217.104C311.047 216.537 310.726 216.017 310.314 215.574C309.901 215.13 309.404 214.772 308.852 214.52C308.299 214.271 307.701 214.133 307.094 214.117C306.487 214.1 305.882 214.205 305.316 214.424L299.235 216.734L298.915 216.194C296.779 212.567 293.87 209.451 290.392 207.064L289.886 206.709L292.58 200.785C292.837 200.23 292.981 199.629 293.004 199.018C293.027 198.407 292.929 197.797 292.714 197.224C292.508 196.656 292.188 196.135 291.775 195.693C291.362 195.25 290.864 194.894 290.31 194.647C289.184 194.151 287.907 194.118 286.757 194.556C285.607 194.995 284.679 195.869 284.176 196.987L281.474 202.91L280.871 202.755C276.774 201.729 272.501 201.605 268.351 202.392L267.733 202.511L265.5 196.439C265.293 195.869 264.973 195.347 264.559 194.902C264.145 194.457 263.646 194.099 263.091 193.85C262.536 193.6 261.936 193.463 261.327 193.448C260.718 193.432 260.112 193.538 259.545 193.759C258.39 194.202 257.455 195.079 256.943 196.201C256.431 197.322 256.382 198.599 256.806 199.756L259.039 205.82L258.51 206.131C254.857 208.314 251.721 211.256 249.318 214.757L248.968 215.268L243.072 212.61C242.519 212.361 241.922 212.223 241.315 212.205C240.708 212.188 240.103 212.29 239.537 212.506C238.679 212.835 237.937 213.406 237.402 214.149C236.868 214.893 236.564 215.776 236.529 216.69C236.494 217.603 236.73 218.507 237.206 219.289C237.682 220.07 238.379 220.696 239.209 221.088L245.09 223.805L244.933 224.405C243.866 228.518 243.707 232.812 244.464 236.992L244.576 237.599L238.509 239.902C237.353 240.347 236.419 241.225 235.907 242.348C235.395 243.471 235.345 244.749 235.77 245.907C235.979 246.475 236.3 246.997 236.714 247.44C237.128 247.884 237.627 248.241 238.182 248.491C238.736 248.74 239.335 248.877 239.944 248.894C240.552 248.911 241.158 248.806 241.725 248.587L247.806 246.27L248.127 246.81C250.26 250.441 253.169 253.56 256.65 255.947L257.156 256.295L254.461 262.219C253.942 263.328 253.886 264.596 254.304 265.746C254.723 266.896 255.582 267.835 256.694 268.357C257.247 268.606 257.845 268.744 258.452 268.76C259.06 268.777 259.664 268.672 260.23 268.453C260.804 268.237 261.329 267.909 261.775 267.49C262.221 267.07 262.578 266.567 262.828 266.01L265.53 260.086L266.133 260.234C270.229 261.265 274.503 261.389 278.653 260.597L279.33 260.456ZM273.316 254.192C268.732 254.188 264.261 252.784 260.505 250.17C256.75 247.556 253.892 243.858 252.317 239.576C250.243 233.936 250.478 227.711 252.972 222.242C255.465 216.772 260.017 212.494 265.649 210.33C268.423 209.262 271.384 208.757 274.357 208.843C277.33 208.93 280.256 209.606 282.963 210.833C288.429 213.345 292.671 217.912 294.757 223.531C296.843 229.149 296.604 235.362 294.091 240.805C292.283 244.787 289.362 248.166 285.675 250.54C281.988 252.914 277.693 254.182 273.301 254.192H273.316ZM273.733 210.307C271.154 210.312 268.599 210.786 266.192 211.707C260.921 213.728 256.658 217.728 254.325 222.846C251.991 227.964 251.773 233.789 253.717 239.065C254.669 241.66 256.132 244.04 258.022 246.064C259.911 248.088 262.188 249.716 264.718 250.853C269.875 253.18 275.75 253.374 281.05 251.393C286.351 249.411 290.643 245.416 292.982 240.287C295.321 235.158 295.517 229.314 293.525 224.042C291.533 218.77 287.517 214.5 282.36 212.173C279.645 210.951 276.698 210.322 273.718 210.33L273.733 210.307Z" fill="#D8D6D3"/>
<path d="M212.079 260C211.518 260.002 210.962 259.895 210.443 259.686C209.924 259.477 209.452 259.17 209.054 258.782C208.656 258.393 208.34 257.932 208.125 257.424C207.909 256.916 207.797 256.371 207.796 255.821V252.607C205.286 252.133 202.889 251.198 200.733 249.851L198.426 252.165C198.03 252.567 197.556 252.887 197.032 253.109C196.509 253.33 195.946 253.448 195.376 253.455C194.807 253.474 194.241 253.377 193.713 253.172C193.184 252.966 192.704 252.656 192.303 252.261C191.898 251.87 191.576 251.404 191.355 250.891C191.135 250.377 191.02 249.826 191.018 249.268C191.017 248.141 191.467 247.058 192.273 246.254L194.579 243.939C193.168 241.85 192.167 239.52 191.626 237.07L188.358 237.122C187.214 237.134 186.11 236.705 185.285 235.928C184.879 235.539 184.557 235.075 184.336 234.562C184.115 234.049 184.001 233.499 184 232.943C184 231.815 184.449 230.733 185.253 229.927C186.056 229.121 187.149 228.656 188.298 228.631L191.581 228.579C192.103 226.101 193.084 223.738 194.474 221.607L192.152 219.395C191.744 219.008 191.42 218.544 191.199 218.031C190.979 217.519 190.866 216.967 190.868 216.41C190.863 215.283 191.312 214.199 192.116 213.393C192.921 212.588 194.016 212.125 195.165 212.106C195.732 212.094 196.295 212.193 196.822 212.398C197.348 212.603 197.827 212.91 198.231 213.3L200.56 215.511C202.7 214.096 205.09 213.083 207.608 212.526V209.305C207.608 208.179 208.058 207.097 208.861 206.292C209.665 205.487 210.758 205.024 211.906 205.001C212.474 204.991 213.037 205.092 213.565 205.298C214.092 205.504 214.572 205.81 214.978 206.2C215.383 206.589 215.706 207.054 215.927 207.567C216.147 208.08 216.262 208.63 216.264 209.187V212.393C218.773 212.872 221.168 213.807 223.327 215.15L225.604 212.843C226.407 212.035 227.504 211.572 228.654 211.553C229.223 211.538 229.789 211.636 230.317 211.843C230.846 212.049 231.325 212.36 231.727 212.754C232.536 213.551 232.99 214.63 232.99 215.754C232.99 216.879 232.536 217.957 231.727 218.754L229.413 221.069C230.83 223.155 231.832 225.486 232.366 227.938L235.642 227.886C236.21 227.879 236.773 227.981 237.3 228.187C237.828 228.393 238.308 228.699 238.715 229.088C239.12 229.477 239.443 229.941 239.663 230.454C239.884 230.966 239.998 231.517 240 232.073C240 233.201 239.549 234.283 238.744 235.088C237.939 235.893 236.844 236.356 235.695 236.377L232.411 236.429C231.897 238.909 230.916 241.274 229.518 243.401L231.848 245.613C232.45 246.206 232.861 246.961 233.03 247.782C233.199 248.603 233.119 249.454 232.798 250.231C232.478 251.007 231.933 251.674 231.229 252.149C230.526 252.624 229.696 252.886 228.842 252.902C228.274 252.915 227.71 252.816 227.182 252.611C226.654 252.406 226.174 252.099 225.769 251.708L223.447 249.497C221.303 250.897 218.914 251.896 216.399 252.445V255.666C216.4 256.793 215.95 257.874 215.146 258.679C214.343 259.484 213.25 259.947 212.101 259.97L212.079 260ZM200.515 247.949L201.034 248.295C203.322 249.814 205.923 250.821 208.653 251.244L209.276 251.347V255.769C209.278 256.13 209.352 256.488 209.496 256.82C209.639 257.153 209.848 257.455 210.11 257.708C210.635 258.195 211.334 258.459 212.056 258.445H212.101C212.856 258.431 213.574 258.128 214.102 257.6C214.631 257.072 214.927 256.362 214.927 255.622V251.199L215.535 251.082C218.273 250.558 220.864 249.462 223.132 247.868L223.643 247.507L226.858 250.602C227.119 250.86 227.431 251.062 227.775 251.195C228.119 251.328 228.488 251.39 228.857 251.376C229.416 251.369 229.961 251.201 230.423 250.892C230.885 250.583 231.244 250.148 231.456 249.64C231.668 249.132 231.722 248.575 231.613 248.037C231.503 247.499 231.235 247.004 230.841 246.615L227.64 243.578L227.993 243.062C229.57 240.807 230.633 238.246 231.111 235.552L231.216 234.955L235.725 234.881C236.479 234.867 237.197 234.564 237.726 234.036C238.254 233.508 238.55 232.798 238.55 232.058C238.55 231.7 238.478 231.345 238.337 231.014C238.197 230.683 237.992 230.382 237.732 230.13C237.473 229.877 237.166 229.677 236.828 229.541C236.49 229.405 236.128 229.336 235.762 229.338H235.717L231.209 229.412L231.089 228.8C230.598 226.132 229.513 223.602 227.91 221.393L227.55 220.892L230.728 217.7C231.254 217.18 231.55 216.476 231.55 215.743C231.55 215.01 231.254 214.307 230.728 213.786C230.47 213.525 230.159 213.319 229.814 213.185C229.47 213.05 229.1 212.989 228.729 213.005C227.976 213.019 227.258 213.324 226.731 213.853L223.522 217.044L223.004 216.705C220.717 215.188 218.119 214.182 215.392 213.757L214.761 213.654V209.231C214.761 208.873 214.689 208.518 214.549 208.187C214.409 207.856 214.203 207.556 213.944 207.303C213.685 207.05 213.377 206.85 213.039 206.714C212.701 206.579 212.339 206.51 211.974 206.512H211.929C211.174 206.515 210.451 206.811 209.917 207.334C209.382 207.856 209.079 208.565 209.073 209.305V213.727L208.465 213.838C205.743 214.366 203.168 215.459 200.913 217.044L200.403 217.405L197.179 214.31C196.917 214.057 196.606 213.858 196.264 213.725C195.921 213.592 195.556 213.528 195.188 213.536C194.435 213.549 193.717 213.853 193.19 214.381C192.663 214.909 192.368 215.62 192.37 216.359C192.369 216.72 192.443 217.078 192.586 217.411C192.729 217.744 192.94 218.046 193.204 218.297L196.42 221.393L196.067 221.901C194.49 224.156 193.426 226.718 192.949 229.412L192.844 230.016L188.335 230.083C187.582 230.1 186.865 230.406 186.339 230.935C185.812 231.464 185.518 232.174 185.518 232.913C185.519 233.274 185.594 233.631 185.737 233.964C185.88 234.297 186.089 234.598 186.352 234.852C186.888 235.358 187.606 235.637 188.35 235.625L192.859 235.559L192.971 236.171C193.475 238.825 194.563 241.341 196.157 243.541L196.518 244.043L193.347 247.264C192.819 247.79 192.522 248.5 192.521 249.239C192.522 249.601 192.596 249.96 192.739 250.294C192.882 250.628 193.091 250.931 193.355 251.185C193.619 251.435 193.933 251.629 194.276 251.756C194.62 251.882 194.987 251.939 195.353 251.922C195.727 251.918 196.096 251.841 196.439 251.695C196.783 251.55 197.093 251.338 197.352 251.074L200.515 247.949ZM211.838 247.536C207.873 247.551 204.062 246.028 201.237 243.298C199.11 241.19 197.662 238.516 197.07 235.607C196.479 232.699 196.771 229.684 197.911 226.937C199.05 224.19 200.986 221.832 203.48 220.154C205.973 218.477 208.913 217.554 211.936 217.501C213.942 217.464 215.935 217.819 217.799 218.545C219.664 219.272 221.362 220.355 222.795 221.732C224.228 223.109 225.367 224.752 226.146 226.565C226.925 228.379 227.328 230.326 227.332 232.294C227.338 236.289 225.742 240.127 222.888 242.978C220.034 245.828 216.151 247.463 212.079 247.529L211.838 247.536ZM212.184 218.953H211.959C209.23 219.002 206.576 219.836 204.326 221.351C202.076 222.866 200.329 224.996 199.302 227.476C198.274 229.957 198.012 232.678 198.547 235.303C199.082 237.929 200.391 240.342 202.311 242.244C203.599 243.484 205.127 244.46 206.804 245.114C208.481 245.768 210.274 246.088 212.079 246.055C213.904 246.033 215.707 245.657 217.383 244.948C219.06 244.24 220.577 243.213 221.847 241.927C224.432 239.358 225.872 235.889 225.852 232.279C225.849 230.525 225.493 228.789 224.806 227.169C224.118 225.55 223.112 224.08 221.845 222.842C220.578 221.604 219.074 220.624 217.42 219.957C215.766 219.289 213.995 218.948 212.207 218.953H212.184Z" fill="#D8D6D3"/>
<path d="M224.831 321C224.212 320.999 223.597 320.892 223.015 320.682C222.366 320.446 221.771 320.085 221.264 319.62C220.757 319.154 220.348 318.594 220.061 317.972C219.774 317.349 219.614 316.677 219.592 315.993C219.569 315.309 219.683 314.628 219.928 313.988L221.423 309.993C218.59 308.259 216.123 305.998 214.158 303.336L210.204 305.126C208.933 305.708 207.481 305.767 206.167 305.289C204.852 304.812 203.783 303.838 203.193 302.582C202.907 301.958 202.748 301.285 202.726 300.601C202.704 299.917 202.82 299.235 203.066 298.595C203.304 297.944 203.671 297.346 204.146 296.838C204.621 296.33 205.194 295.921 205.832 295.636L209.793 293.839C209.048 290.63 208.938 287.309 209.472 284.06L205.421 282.581C204.775 282.345 204.183 281.986 203.679 281.523C203.174 281.061 202.766 280.505 202.479 279.887C202.191 279.268 202.03 278.6 202.004 277.92C201.978 277.24 202.087 276.561 202.326 275.923C202.83 274.629 203.825 273.582 205.099 273.006C206.373 272.429 207.825 272.369 209.143 272.839L213.216 274.318C215.005 271.507 217.321 269.062 220.04 267.114L218.284 263.304C217.996 262.681 217.836 262.008 217.813 261.324C217.79 260.64 217.904 259.958 218.149 259.317C218.52 258.352 219.169 257.516 220.016 256.913C220.863 256.31 221.87 255.966 222.913 255.925C223.955 255.884 224.987 256.148 225.88 256.682C226.772 257.217 227.486 258 227.933 258.933L229.72 262.801C232.987 262.039 236.372 261.906 239.69 262.409L241.185 258.4C241.687 257.105 242.682 256.056 243.957 255.48C245.231 254.903 246.684 254.844 248.002 255.316C248.647 255.551 249.239 255.91 249.743 256.373C250.248 256.835 250.656 257.391 250.943 258.009C251.231 258.628 251.392 259.296 251.418 259.976C251.445 260.656 251.335 261.335 251.096 261.973L249.564 265.974C252.401 267.704 254.869 269.965 256.829 272.632L260.79 270.842C261.421 270.553 262.102 270.391 262.796 270.365C263.49 270.338 264.183 270.447 264.834 270.686C265.479 270.922 266.071 271.281 266.576 271.743C267.08 272.206 267.488 272.762 267.776 273.38C268.063 273.998 268.224 274.667 268.251 275.347C268.277 276.027 268.167 276.705 267.928 277.344C267.687 277.994 267.318 278.59 266.842 279.098C266.366 279.606 265.792 280.015 265.155 280.302L261.201 282.092C261.948 285.301 262.055 288.622 261.515 291.871L265.574 293.35C266.223 293.587 266.818 293.948 267.325 294.413C267.832 294.878 268.241 295.438 268.528 296.06C268.815 296.683 268.974 297.355 268.997 298.039C269.02 298.723 268.906 299.405 268.661 300.045C268.159 301.34 267.164 302.388 265.889 302.965C264.614 303.542 263.162 303.601 261.844 303.129L257.778 301.65C255.989 304.46 253.673 306.906 250.954 308.854L252.74 312.715C253.027 313.339 253.186 314.012 253.207 314.696C253.229 315.381 253.114 316.063 252.867 316.702C252.37 318.001 251.376 319.054 250.1 319.631C248.823 320.208 247.369 320.265 246.051 319.787C245.394 319.559 244.791 319.203 244.278 318.739C243.764 318.275 243.35 317.713 243.061 317.087L241.275 313.218C238.007 313.979 234.623 314.115 231.304 313.618L229.772 317.62C229.383 318.606 228.705 319.456 227.824 320.058C226.944 320.66 225.902 320.988 224.831 321ZM214.696 301.494L215.055 301.997C217.07 304.871 219.698 307.273 222.753 309.032L223.299 309.342L221.326 314.52C221.151 314.977 221.07 315.464 221.087 315.952C221.103 316.44 221.217 316.92 221.422 317.364C221.627 317.808 221.919 318.208 222.281 318.54C222.643 318.872 223.068 319.13 223.531 319.299C224.48 319.636 225.525 319.593 226.443 319.178C227.36 318.764 228.077 318.011 228.441 317.08L230.407 311.902L231.02 312.005C234.527 312.621 238.128 312.477 241.574 311.584L242.179 311.428L244.489 316.421C244.695 316.865 244.988 317.265 245.351 317.596C245.714 317.928 246.14 318.184 246.604 318.352C247.552 318.691 248.597 318.649 249.514 318.234C250.431 317.819 251.146 317.064 251.507 316.133C251.685 315.678 251.769 315.192 251.754 314.704C251.739 314.216 251.624 313.736 251.417 313.292L249.115 308.3L249.631 307.952C252.561 305.952 255.023 303.354 256.851 300.333L257.165 299.808L262.397 301.694C263.345 302.035 264.391 301.994 265.308 301.579C266.225 301.164 266.941 300.408 267.3 299.475C267.474 299.016 267.553 298.527 267.534 298.037C267.515 297.547 267.398 297.066 267.19 296.621C266.981 296.177 266.685 295.778 266.319 295.447C265.953 295.117 265.524 294.862 265.058 294.697L259.826 292.803L259.938 292.189C260.589 288.754 260.474 285.22 259.602 281.833L259.452 281.234L264.535 278.934C265.456 278.52 266.173 277.762 266.53 276.826C266.706 276.369 266.789 275.882 266.774 275.393C266.758 274.904 266.645 274.423 266.441 273.978C266.235 273.534 265.941 273.134 265.578 272.803C265.215 272.472 264.79 272.215 264.326 272.047C263.376 271.704 262.328 271.747 261.411 272.166L256.321 274.466L255.969 273.963C253.954 271.091 251.326 268.692 248.271 266.936L247.725 266.618L249.698 261.44C249.872 260.981 249.951 260.492 249.932 260.002C249.913 259.513 249.796 259.031 249.588 258.587C249.379 258.142 249.083 257.743 248.717 257.412C248.351 257.082 247.922 256.827 247.456 256.662C246.507 256.32 245.46 256.362 244.542 256.777C243.623 257.192 242.906 257.947 242.545 258.881L240.647 264.044L240.042 263.94C236.532 263.324 232.929 263.468 229.48 264.362L228.875 264.517L226.573 259.532C226.252 258.861 225.738 258.299 225.096 257.916C224.454 257.532 223.713 257.344 222.963 257.375C222.214 257.405 221.491 257.654 220.883 258.089C220.276 258.523 219.811 259.126 219.547 259.82C219.372 260.278 219.291 260.765 219.307 261.254C219.324 261.743 219.438 262.223 219.644 262.668L221.946 267.654L221.43 268.001C218.492 269.999 216.026 272.603 214.203 275.635L213.881 276.16L208.649 274.266C207.7 273.925 206.654 273.966 205.735 274.381C204.817 274.796 204.1 275.552 203.739 276.485C203.565 276.945 203.486 277.433 203.505 277.923C203.524 278.413 203.641 278.894 203.85 279.339C204.058 279.784 204.354 280.183 204.72 280.513C205.086 280.844 205.515 281.099 205.981 281.264L211.213 283.157L211.094 283.779C210.442 287.214 210.556 290.748 211.43 294.134L211.587 294.734L206.497 297.034C205.578 297.448 204.863 298.207 204.509 299.142C204.333 299.599 204.25 300.086 204.265 300.575C204.281 301.064 204.394 301.545 204.598 301.99C205.022 302.889 205.789 303.585 206.731 303.925C207.673 304.265 208.712 304.221 209.621 303.802L214.696 301.494ZM235.4 306.946C231.976 306.89 228.63 305.927 225.71 304.157C222.789 302.388 220.401 299.876 218.794 296.883C217.187 293.891 216.42 290.527 216.572 287.141C216.724 283.756 217.789 280.472 219.658 277.633C221.527 274.793 224.131 272.5 227.198 270.994C230.265 269.488 233.685 268.822 237.1 269.067C240.516 269.311 243.802 270.457 246.619 272.385C249.435 274.313 251.678 276.952 253.114 280.029C254.164 282.291 254.746 284.738 254.827 287.227C254.908 289.715 254.486 292.194 253.585 294.519C252.179 298.167 249.689 301.308 246.442 303.527C243.195 305.745 239.345 306.937 235.4 306.946ZM235.662 270.538C233.001 270.488 230.362 271.033 227.944 272.133C225.526 273.233 223.39 274.86 221.697 276.892C220.003 278.924 218.795 281.308 218.164 283.867C217.532 286.425 217.493 289.092 218.05 291.668C218.606 294.244 219.744 296.662 221.377 298.741C223.01 300.821 225.098 302.508 227.483 303.677C229.868 304.846 232.489 305.467 235.15 305.492C237.812 305.518 240.444 304.947 242.852 303.824C247.152 301.898 250.504 298.363 252.172 293.994C253.003 291.852 253.393 289.568 253.318 287.275C253.244 284.982 252.707 282.727 251.739 280.643C250.321 277.608 248.052 275.04 245.202 273.245C242.351 271.449 239.04 270.502 235.662 270.516V270.538Z" fill="#D8D6D3"/>
<path d="M124.177 59.6618L152.153 66.3009C153.211 66.552 153.865 67.6131 153.614 68.671L148.338 90.903C148.087 91.9609 147.026 92.615 145.968 92.3639L117.992 85.7248C116.934 85.4738 116.28 84.4127 116.531 83.3548L121.807 61.1228C122.058 60.0649 123.119 59.4108 124.177 59.6618Z" fill="#9F9F9F" stroke="#4D5F66"/>
<path d="M132.801 81.2745C132.637 81.2775 132.473 81.2615 132.313 81.2267C131.729 81.1089 131.217 80.7648 130.887 80.2698L127.375 74.7488C127.268 74.5899 127.193 74.411 127.156 74.2228C127.119 74.0346 127.12 73.8408 127.159 73.653C127.198 73.4651 127.274 73.287 127.383 73.1292C127.492 72.9713 127.632 72.8369 127.794 72.7339C127.955 72.6309 128.136 72.5614 128.326 72.5295C128.515 72.4976 128.708 72.5039 128.895 72.5482C129.082 72.5924 129.258 72.6736 129.412 72.787C129.567 72.9004 129.698 73.0436 129.796 73.2083L132.982 78.2126L144.857 70.5578C145.015 70.4439 145.195 70.3634 145.385 70.3212C145.575 70.279 145.772 70.2759 145.963 70.3123C146.155 70.3486 146.337 70.4236 146.499 70.5326C146.66 70.6416 146.798 70.7823 146.903 70.9463C147.008 71.1102 147.079 71.2938 147.111 71.4861C147.144 71.6783 147.136 71.875 147.09 72.0643C147.043 72.2536 146.959 72.4314 146.841 72.5869C146.724 72.7425 146.576 72.8725 146.407 72.9691L134.025 80.9587C133.656 81.179 133.231 81.2886 132.801 81.2745Z" fill="white"/>
<path d="M355.337 71.0312L383.914 67.856C384.995 67.736 385.968 68.5147 386.088 69.5953L388.611 92.305C388.732 93.3857 387.953 94.359 386.872 94.479L358.295 97.6542C357.214 97.7743 356.241 96.9956 356.121 95.915L353.598 73.2052C353.478 72.1246 354.256 71.1513 355.337 71.0312Z" fill="#409CFF" stroke="#4D5F66"/>
<path d="M369.963 88.5848C369.46 88.5857 368.971 88.4172 368.575 88.1063L363.399 84.145C363.098 83.9115 362.903 83.5682 362.855 83.1904C362.807 82.8127 362.912 82.4316 363.145 82.1308C363.379 81.8301 363.722 81.6345 364.1 81.5869C364.478 81.5394 364.859 81.6438 365.16 81.8773L369.848 85.5133L378.46 74.3086C378.692 74.0066 379.035 73.8093 379.412 73.7599C379.79 73.7106 380.172 73.8133 380.474 74.0455C380.776 74.2777 380.973 74.6203 381.023 74.9981C381.072 75.3758 380.969 75.7577 380.737 76.0596L371.762 87.7427C371.583 87.9822 371.358 88.1828 371.1 88.3325C370.842 88.4822 370.556 88.5778 370.26 88.6135L369.963 88.5848Z" fill="white"/>
<path d="M43.0481 123.538C47.3603 123.538 50.856 120.043 50.856 115.731C50.856 111.418 47.3603 107.923 43.0481 107.923C38.7359 107.923 35.2402 111.418 35.2402 115.731C35.2402 120.043 38.7359 123.538 43.0481 123.538Z" fill="#E0E0E0"/>
<path d="M247.718 15.6157C252.03 15.6157 255.526 12.12 255.526 7.80787C255.526 3.4957 252.03 0 247.718 0C243.406 0 239.91 3.4957 239.91 7.80787C239.91 12.12 243.406 15.6157 247.718 15.6157Z" fill="#D8D6D3"/>
<path d="M92.9949 113.98C92.9949 114.566 92.821 115.14 92.495 115.627C92.1691 116.115 91.7058 116.495 91.1638 116.72C90.6218 116.944 90.0254 117.003 89.45 116.889C88.8747 116.774 88.3461 116.492 87.9313 116.077C87.5165 115.662 87.2339 115.134 87.1195 114.558C87.005 113.983 87.0638 113.386 87.2883 112.844C87.5128 112.302 87.893 111.839 88.3808 111.513C88.8686 111.187 89.4421 111.013 90.0287 111.013C90.8154 111.013 91.5699 111.326 92.1262 111.882C92.6824 112.438 92.9949 113.193 92.9949 113.98Z" fill="#409CFF"/>
<path d="M434.58 87.9725C434.582 88.5618 434.409 89.1385 434.083 89.6293C433.757 90.1202 433.292 90.503 432.748 90.7295C432.204 90.9559 431.605 91.0156 431.026 90.9011C430.448 90.7866 429.917 90.503 429.5 90.0862C429.084 89.6695 428.8 89.1384 428.686 88.5602C428.571 87.9821 428.631 87.383 428.857 86.8388C429.084 86.2947 429.467 85.83 429.957 85.5038C430.448 85.1775 431.025 85.0043 431.614 85.0062C432.401 85.0062 433.155 85.3188 433.712 85.875C434.268 86.4313 434.58 87.1858 434.58 87.9725Z" fill="#409CFF"/>
<path d="M149.65 32.0449C151.288 32.0449 152.616 30.7168 152.616 29.0786C152.616 27.4404 151.288 26.1124 149.65 26.1124C148.012 26.1124 146.684 27.4404 146.684 29.0786C146.684 30.7168 148.012 32.0449 149.65 32.0449Z" fill="#409CFF"/>
<path d="M51.976 172.271C53.6142 172.271 54.9422 170.943 54.9422 169.304C54.9422 167.666 53.6142 166.338 51.976 166.338C50.3378 166.338 49.0098 167.666 49.0098 169.304C49.0098 170.943 50.3378 172.271 51.976 172.271Z" fill="#9F9F9F"/>
<path d="M450.587 197.818C452.225 197.818 453.554 196.49 453.554 194.852C453.554 193.214 452.225 191.886 450.587 191.886C448.949 191.886 447.621 193.214 447.621 194.852C447.621 196.49 448.949 197.818 450.587 197.818Z" fill="#409CFF"/>
<path d="M499.999 231.691C499.999 232.771 499.679 233.828 499.079 234.726C498.478 235.625 497.625 236.325 496.627 236.738C495.628 237.152 494.53 237.26 493.47 237.049C492.41 236.838 491.437 236.318 490.672 235.554C489.908 234.79 489.388 233.816 489.177 232.757C488.966 231.697 489.075 230.598 489.488 229.6C489.902 228.601 490.602 227.748 491.5 227.148C492.399 226.547 493.455 226.227 494.536 226.227C495.985 226.227 497.375 226.803 498.399 227.827C499.424 228.852 499.999 230.242 499.999 231.691Z" fill="#409CFF"/>
<path d="M327.097 55.3727C327.097 56.6524 326.717 57.9034 326.006 58.9673C325.295 60.0312 324.284 60.8602 323.102 61.3495C321.919 61.8388 320.618 61.9664 319.363 61.716C318.108 61.4656 316.956 60.8486 316.051 59.9431C315.147 59.0375 314.532 57.8841 314.283 56.6287C314.035 55.3734 314.164 54.0725 314.655 52.8908C315.146 51.709 315.977 50.6995 317.042 49.9899C318.107 49.2803 319.358 48.9025 320.638 48.9044C321.487 48.9044 322.328 49.0718 323.112 49.397C323.896 49.7222 324.609 50.1988 325.208 50.7995C325.808 51.4003 326.284 52.1134 326.608 52.8981C326.932 53.6828 327.098 54.5237 327.097 55.3727Z" fill="#409CFF"/>
<path d="M60.229 233.682L162.697 233.467C170.04 233.452 176.005 239.392 176.021 246.735L176.16 313.465C176.176 320.808 170.236 326.773 162.893 326.788L60.4244 327.003C53.0817 327.018 47.1167 321.078 47.1013 313.735L46.9616 247.005C46.9462 239.662 52.8862 233.697 60.229 233.682Z" fill="#9F9F9F" stroke="#4D5F66" stroke-width="2"/>
<path opacity="0.24" d="M162.695 232.467L60.2269 232.682C52.3318 232.699 45.945 239.112 45.9616 247.007L46.1013 313.737C46.1179 321.633 52.5315 328.019 60.4265 328.003L162.895 327.788C170.79 327.772 177.177 321.358 177.16 313.463L177.021 246.733C177.004 238.838 170.59 232.451 162.695 232.467Z" fill="#303436"/>
<path d="M171.95 207.156L217.069 250.408C217.358 250.685 217.367 251.144 217.09 251.433L158.529 312.521C158.252 312.81 157.794 312.819 157.505 312.542L112.386 269.29C112.097 269.013 112.088 268.555 112.365 268.266L170.925 207.178C171.202 206.889 171.661 206.879 171.95 207.156Z" fill="white" stroke="#4D5F66"/>
<path d="M204.076 251.431C203.83 251.43 203.593 251.334 203.416 251.163L186.432 234.896C186.33 234.813 186.247 234.709 186.188 234.591C186.128 234.474 186.093 234.346 186.086 234.214C186.078 234.083 186.097 233.951 186.143 233.828C186.188 233.704 186.259 233.591 186.35 233.496C186.441 233.401 186.551 233.326 186.672 233.275C186.794 233.225 186.924 233.199 187.056 233.202C187.188 233.204 187.317 233.233 187.437 233.287C187.557 233.342 187.664 233.421 187.752 233.518L204.736 249.785C204.915 249.964 205.015 250.207 205.015 250.459C205.015 250.712 204.915 250.955 204.736 251.134C204.564 251.315 204.326 251.422 204.076 251.431Z" fill="#9F9F9F"/>
<path d="M195.541 262.645C195.294 262.644 195.058 262.548 194.881 262.377L160.903 229.844C160.719 229.669 160.612 229.428 160.606 229.174C160.599 228.92 160.694 228.674 160.869 228.49C161.045 228.306 161.286 228.199 161.539 228.193C161.793 228.187 162.039 228.281 162.223 228.457L196.201 261.037C196.379 261.216 196.479 261.459 196.479 261.712C196.479 261.965 196.379 262.207 196.201 262.386C196.022 262.554 195.786 262.646 195.541 262.645Z" fill="#303436"/>
<path d="M184.47 274.194C184.22 274.195 183.98 274.099 183.8 273.926L149.832 241.393C149.731 241.309 149.648 241.206 149.588 241.088C149.528 240.971 149.494 240.842 149.486 240.711C149.478 240.58 149.498 240.448 149.543 240.324C149.589 240.201 149.659 240.088 149.75 239.993C149.841 239.898 149.951 239.823 150.073 239.772C150.194 239.721 150.325 239.696 150.456 239.698C150.588 239.7 150.718 239.73 150.838 239.784C150.957 239.839 151.065 239.917 151.153 240.015L185.13 272.548C185.308 272.727 185.409 272.97 185.409 273.223C185.409 273.475 185.308 273.718 185.13 273.897C184.958 274.079 184.72 274.185 184.47 274.194Z" fill="#303436"/>
<path d="M174.039 285.083C173.793 285.082 173.556 284.986 173.379 284.815L139.401 252.282C139.223 252.103 139.123 251.86 139.123 251.607C139.123 251.355 139.223 251.112 139.401 250.933C139.49 250.843 139.596 250.772 139.713 250.723C139.829 250.675 139.954 250.65 140.081 250.65C140.207 250.65 140.332 250.675 140.449 250.723C140.565 250.772 140.671 250.843 140.76 250.933L174.728 283.466C174.906 283.645 175.006 283.887 175.006 284.14C175.006 284.393 174.906 284.635 174.728 284.815C174.637 284.903 174.529 284.972 174.41 285.018C174.292 285.064 174.166 285.086 174.039 285.083Z" fill="#303436"/>
<path d="M162.969 296.613C162.724 296.614 162.488 296.522 162.309 296.354L128.331 263.822C128.17 263.642 128.082 263.408 128.086 263.167C128.09 262.925 128.185 262.694 128.352 262.52C128.519 262.345 128.746 262.241 128.987 262.227C129.228 262.213 129.466 262.29 129.652 262.444L163.629 294.977C163.766 295.109 163.861 295.279 163.901 295.465C163.941 295.651 163.924 295.845 163.853 296.022C163.783 296.199 163.661 296.35 163.503 296.457C163.345 296.564 163.16 296.622 162.969 296.622V296.613Z" fill="#303436"/>
<path d="M40.5495 201.243L98.4092 177.607C98.7798 177.456 99.2029 177.633 99.3543 178.004L131.356 256.343C131.507 256.714 131.329 257.137 130.959 257.288L73.0992 280.924C72.7286 281.075 72.3055 280.898 72.1541 280.527L40.1526 202.188C40.0012 201.817 40.1789 201.394 40.5495 201.243Z" fill="white" stroke="#4D5F66"/>
<path d="M90.0296 206.861C89.81 206.858 89.598 206.78 89.4291 206.64C89.2603 206.499 89.1448 206.305 89.1022 206.09C89.0596 205.874 89.0923 205.651 89.195 205.457C89.2976 205.262 89.4639 205.11 89.666 205.024L99.6172 200.957C99.734 200.909 99.8592 200.884 99.9856 200.884C100.112 200.884 100.237 200.91 100.354 200.959C100.47 201.008 100.576 201.079 100.665 201.169C100.753 201.259 100.823 201.366 100.871 201.483C100.965 201.718 100.963 201.981 100.864 202.214C100.766 202.447 100.579 202.632 100.344 202.727L90.3932 206.794C90.2775 206.839 90.154 206.862 90.0296 206.861Z" fill="#303436"/>
<path d="M62.4612 235.413C62.2416 235.41 62.0296 235.332 61.8608 235.192C61.6919 235.051 61.5765 234.857 61.5338 234.642C61.4912 234.426 61.524 234.203 61.6266 234.009C61.7293 233.815 61.8956 233.662 62.0976 233.576L105.672 215.769C105.907 215.674 106.17 215.676 106.403 215.775C106.636 215.874 106.821 216.061 106.916 216.295C107.011 216.53 107.009 216.793 106.91 217.026C106.811 217.259 106.624 217.443 106.39 217.539L62.8248 235.327C62.7105 235.379 62.5869 235.408 62.4612 235.413Z" fill="#303436"/>
<path d="M92.8322 234.772C92.6085 234.775 92.3908 234.699 92.2171 234.558C92.0434 234.417 91.9245 234.219 91.8813 234C91.8381 233.78 91.8732 233.553 91.9805 233.356C92.0878 233.16 92.2605 233.007 92.4686 232.925L109.835 225.854C109.952 225.806 110.076 225.782 110.202 225.782C110.327 225.783 110.452 225.808 110.568 225.856C110.684 225.905 110.789 225.975 110.878 226.064C110.966 226.154 111.036 226.259 111.084 226.375C111.132 226.492 111.156 226.616 111.156 226.742C111.155 226.868 111.13 226.992 111.082 227.108C111.034 227.224 110.963 227.329 110.874 227.418C110.785 227.506 110.679 227.576 110.563 227.624L93.2437 234.695C93.1139 234.751 92.9733 234.777 92.8322 234.772Z" fill="#9F9F9F"/>
<path d="M66.5767 245.498C66.3867 245.496 66.2015 245.438 66.0447 245.331C65.8879 245.223 65.7667 245.072 65.6964 244.895C65.6017 244.66 65.6039 244.398 65.7026 244.165C65.8012 243.931 65.9882 243.747 66.2226 243.651L76.8245 239.317C77.0555 239.239 77.3073 239.253 77.5287 239.355C77.75 239.456 77.9242 239.639 78.0158 239.864C78.1073 240.09 78.1093 240.342 78.0212 240.57C77.9332 240.797 77.7619 240.982 77.5421 241.087L66.9403 245.421C66.8252 245.471 66.7017 245.497 66.5767 245.498Z" fill="#9F9F9F"/>
<path d="M70.002 257.248C69.787 257.239 69.5814 257.158 69.4183 257.017C69.2553 256.877 69.1443 256.685 69.1034 256.474C69.0625 256.263 69.094 256.044 69.1928 255.853C69.2916 255.662 69.452 255.509 69.648 255.421L96.4397 244.455C96.6757 244.36 96.9398 244.362 97.174 244.462C97.4082 244.562 97.5932 244.75 97.6884 244.986C97.7835 245.222 97.781 245.486 97.6814 245.721C97.5819 245.955 97.3933 246.14 97.1573 246.235L70.3656 257.191C70.2488 257.231 70.1257 257.251 70.002 257.248Z" fill="#303436"/>
<path d="M72.8733 185.76L49.7305 195.789C48.7608 196.209 48.3153 197.336 48.7355 198.306L59.4952 223.135C59.9155 224.104 61.0423 224.55 62.0121 224.129L85.1548 214.1C86.1246 213.68 86.5701 212.553 86.1498 211.583L75.3901 186.755C74.9699 185.785 73.8431 185.34 72.8733 185.76Z" fill="#9F9F9F"/>
<path d="M61.2479 225.27C60.8834 225.272 60.5222 225.2 60.1858 225.06C59.8349 224.921 59.5149 224.714 59.244 224.452C58.9731 224.189 58.7566 223.875 58.607 223.529L47.8521 198.708C47.5623 198.007 47.5623 197.219 47.8521 196.517C47.9899 196.165 48.1961 195.843 48.4589 195.57C48.7216 195.297 49.0357 195.08 49.383 194.929L72.5196 184.911C72.8682 184.753 73.2449 184.666 73.6276 184.656C74.0102 184.645 74.391 184.712 74.7477 184.851C75.1043 184.99 75.4295 185.199 75.7042 185.465C75.9788 185.732 76.1974 186.051 76.3469 186.403L87.1019 211.224C87.2522 211.571 87.3325 211.944 87.3383 212.321C87.3441 212.699 87.2752 213.074 87.1356 213.426C86.996 213.777 86.7885 214.097 86.5249 214.368C86.2614 214.638 85.9469 214.854 85.5996 215.003L62.4631 225.031C62.0794 225.196 61.6653 225.277 61.2479 225.27ZM73.6295 186.585C73.4984 186.587 73.3687 186.613 73.2468 186.662L50.1102 196.689C49.9936 196.739 49.8878 196.81 49.7991 196.901C49.7104 196.991 49.6405 197.098 49.5935 197.216C49.5448 197.332 49.5198 197.458 49.5198 197.584C49.5198 197.711 49.5448 197.836 49.5935 197.952L60.3485 222.773C60.3953 222.89 60.4664 222.996 60.5571 223.083C60.6479 223.171 60.7561 223.238 60.8747 223.28C60.9915 223.329 61.1167 223.354 61.2431 223.354C61.3696 223.354 61.4948 223.329 61.6115 223.28L84.7481 213.252C84.8639 213.202 84.9688 213.13 85.0566 213.039C85.1444 212.949 85.2134 212.842 85.2596 212.724C85.3059 212.607 85.3284 212.482 85.326 212.355C85.3236 212.229 85.2963 212.105 85.2456 211.989L74.4907 187.169C74.4187 186.999 74.2991 186.853 74.1463 186.75C73.9935 186.646 73.8141 186.589 73.6295 186.585Z" fill="#303436"/>
<path d="M60.4731 200.976C60.1874 200.979 59.9041 200.924 59.6407 200.813C59.3634 200.706 59.1105 200.543 58.8968 200.336C58.6832 200.129 58.5132 199.881 58.3968 199.608L57.1337 196.737C57.0981 196.679 57.0756 196.613 57.0675 196.545C57.0594 196.477 57.0661 196.408 57.087 196.343C57.1078 196.278 57.1425 196.218 57.1886 196.167C57.2347 196.116 57.2911 196.076 57.3541 196.049C57.4171 196.022 57.4851 196.009 57.5536 196.01C57.6221 196.012 57.6895 196.028 57.7512 196.058C57.8128 196.088 57.8673 196.131 57.911 196.184C57.9547 196.236 57.9866 196.298 58.0045 196.364L59.2675 199.235C59.4081 199.551 59.6675 199.8 59.9897 199.927C60.3118 200.054 60.671 200.049 60.9898 199.914L61.2003 199.818C61.446 199.711 61.6392 199.511 61.7378 199.262C61.8364 199.013 61.8324 198.734 61.7266 198.488L58.5307 191.13C58.4776 191.004 58.3998 190.889 58.302 190.793C58.2041 190.697 58.0882 190.622 57.9608 190.571C57.8335 190.52 57.6973 190.495 57.5602 190.497C57.4232 190.5 57.2879 190.529 57.1624 190.585L56.7988 190.738C56.6648 190.796 56.5437 190.88 56.4422 190.985C56.3408 191.09 56.2611 191.214 56.2078 191.35C56.1545 191.486 56.1285 191.632 56.1314 191.778C56.1343 191.924 56.166 192.068 56.2247 192.202L56.3013 192.383C56.3495 192.499 56.3504 192.629 56.3039 192.745C56.2574 192.862 56.1671 192.955 56.0525 193.005C55.937 193.057 55.8057 193.061 55.6873 193.016C55.569 192.971 55.4732 192.882 55.421 192.766L55.3444 192.584C55.1265 192.082 55.117 191.513 55.3179 191.004C55.5189 190.494 55.9139 190.085 56.4161 189.867L56.7797 189.704C57.2672 189.496 57.8173 189.488 58.3102 189.684C58.803 189.879 59.1987 190.261 59.411 190.747L62.6069 198.115C62.812 198.594 62.8195 199.134 62.6277 199.618C62.4359 200.102 62.0603 200.49 61.5831 200.698L61.363 200.794C61.0818 200.915 60.779 200.977 60.4731 200.976Z" fill="#303436"/>
<path d="M74.04 190.106C74.3234 190.39 74.5163 190.751 74.5944 191.145C74.6725 191.538 74.6322 191.946 74.4785 192.317C74.3249 192.687 74.0649 193.004 73.7314 193.227C73.3979 193.449 73.0058 193.568 72.6047 193.568C72.2036 193.568 71.8115 193.449 71.478 193.227C71.1444 193.004 70.8844 192.687 70.7308 192.317C70.5772 191.946 70.5369 191.538 70.615 191.145C70.693 190.751 70.886 190.39 71.1694 190.106C71.3578 189.918 71.5816 189.768 71.8278 189.666C72.0741 189.564 72.3381 189.511 72.6047 189.511C72.8713 189.511 73.1353 189.564 73.3816 189.666C73.6278 189.768 73.8516 189.918 74.04 190.106Z" fill="white"/>
<path d="M94.4712 139.679L152.004 115.258C152.372 115.101 152.798 115.273 152.954 115.642L186.019 193.538C186.176 193.906 186.004 194.332 185.635 194.488L128.103 218.909C127.734 219.066 127.309 218.894 127.152 218.525L94.0872 140.629C93.9308 140.261 94.1027 139.835 94.4712 139.679Z" fill="white" stroke="#4D5F66"/>
<path d="M144.014 144.608C143.827 144.609 143.644 144.555 143.488 144.453C143.332 144.351 143.208 144.205 143.134 144.034C143.083 143.918 143.057 143.793 143.055 143.666C143.053 143.54 143.076 143.414 143.124 143.297C143.171 143.179 143.241 143.072 143.33 142.982C143.418 142.892 143.524 142.82 143.641 142.771L153.535 138.571C153.65 138.521 153.775 138.494 153.9 138.493C154.026 138.491 154.151 138.514 154.268 138.561C154.385 138.608 154.491 138.677 154.581 138.765C154.671 138.853 154.743 138.957 154.793 139.073C154.843 139.188 154.869 139.313 154.871 139.438C154.872 139.564 154.849 139.689 154.802 139.806C154.756 139.923 154.687 140.029 154.599 140.119C154.511 140.21 154.406 140.281 154.291 140.331L144.397 144.532C144.277 144.585 144.146 144.612 144.014 144.608Z" fill="#303436"/>
<path d="M116.84 173.534C116.619 173.533 116.406 173.457 116.235 173.317C116.065 173.178 115.948 172.983 115.904 172.767C115.86 172.551 115.892 172.327 115.995 172.132C116.097 171.937 116.264 171.783 116.467 171.697L159.793 153.306C160.024 153.218 160.28 153.224 160.508 153.321C160.735 153.418 160.916 153.6 161.013 153.827C161.109 154.055 161.114 154.311 161.025 154.542C160.937 154.773 160.763 154.961 160.539 155.067L117.213 173.457C117.096 173.511 116.968 173.537 116.84 173.534Z" fill="#303436"/>
<path d="M147.202 172.471C147.014 172.471 146.831 172.416 146.674 172.312C146.517 172.208 146.395 172.061 146.322 171.888C146.223 171.654 146.221 171.391 146.316 171.156C146.411 170.921 146.595 170.733 146.829 170.634L164.052 163.324C164.283 163.236 164.54 163.242 164.767 163.339C164.995 163.436 165.176 163.618 165.272 163.845C165.369 164.073 165.373 164.329 165.285 164.56C165.197 164.791 165.022 164.979 164.798 165.085L147.575 172.395C147.458 172.448 147.33 172.474 147.202 172.471Z" fill="#9F9F9F"/>
<path d="M121.096 183.552C120.909 183.552 120.726 183.498 120.57 183.396C120.414 183.294 120.29 183.149 120.216 182.978C120.165 182.862 120.139 182.737 120.137 182.61C120.135 182.483 120.158 182.358 120.206 182.24C120.253 182.123 120.323 182.016 120.412 181.926C120.5 181.835 120.606 181.764 120.723 181.715L131.248 177.246C131.364 177.197 131.488 177.17 131.614 177.169C131.74 177.167 131.865 177.19 131.981 177.237C132.098 177.283 132.205 177.353 132.295 177.44C132.385 177.528 132.457 177.633 132.506 177.749C132.556 177.864 132.582 177.988 132.584 178.114C132.586 178.24 132.563 178.365 132.516 178.482C132.469 178.599 132.4 178.705 132.312 178.795C132.224 178.885 132.12 178.957 132.004 179.007L121.479 183.485C121.357 183.531 121.227 183.554 121.096 183.552Z" fill="#9F9F9F"/>
<path d="M124.678 195.264C124.457 195.263 124.244 195.187 124.073 195.047C123.903 194.908 123.786 194.713 123.742 194.497C123.698 194.281 123.73 194.057 123.832 193.862C123.935 193.667 124.102 193.513 124.305 193.427L150.981 182.097C151.213 182.01 151.469 182.015 151.696 182.112C151.924 182.21 152.105 182.391 152.201 182.619C152.298 182.847 152.303 183.103 152.214 183.334C152.126 183.565 151.952 183.753 151.728 183.858L125.051 195.187C124.932 195.235 124.806 195.261 124.678 195.264Z" fill="#303436"/>
<path d="M169.471 191.931L107.678 182.553C107.009 182.451 106.385 182.911 106.283 183.58L93.585 267.245C93.4835 267.914 93.9434 268.538 94.6121 268.64L156.406 278.018C157.074 278.12 157.699 277.66 157.8 276.991L170.498 193.326C170.6 192.657 170.14 192.033 169.471 191.931Z" fill="#F0F0F0" stroke="#4D5F66"/>
<path d="M127.539 197.455H127.395L115.578 195.646C115.454 195.628 115.334 195.585 115.227 195.52C115.119 195.455 115.025 195.369 114.95 195.268C114.876 195.166 114.822 195.051 114.791 194.929C114.761 194.807 114.756 194.68 114.775 194.556C114.793 194.431 114.836 194.312 114.901 194.204C114.966 194.096 115.052 194.002 115.153 193.927C115.255 193.853 115.37 193.799 115.492 193.769C115.614 193.739 115.741 193.733 115.865 193.752L127.73 195.551C127.984 195.57 128.22 195.689 128.386 195.882C128.552 196.075 128.634 196.326 128.615 196.579C128.596 196.833 128.477 197.069 128.284 197.235C128.092 197.401 127.841 197.483 127.587 197.464L127.539 197.455Z" fill="white"/>
<path d="M158.337 214.984H158.194L144.568 212.917C144.314 212.879 144.086 212.742 143.934 212.536C143.781 212.329 143.717 212.071 143.755 211.817C143.793 211.563 143.93 211.335 144.137 211.183C144.343 211.03 144.601 210.966 144.855 211.004L158.481 213.071C158.734 213.09 158.97 213.209 159.136 213.402C159.302 213.594 159.385 213.845 159.366 214.099C159.347 214.353 159.228 214.589 159.035 214.755C158.842 214.921 158.591 215.003 158.337 214.984Z" fill="#303436"/>
<path d="M135.066 211.453H134.923L111.652 207.923C111.398 207.885 111.17 207.747 111.018 207.541C110.865 207.335 110.801 207.076 110.839 206.822C110.877 206.569 111.014 206.34 111.221 206.188C111.427 206.035 111.685 205.971 111.939 206.009L135.21 209.54C135.335 209.549 135.458 209.583 135.57 209.64C135.683 209.697 135.783 209.775 135.865 209.871C135.947 209.966 136.01 210.077 136.049 210.197C136.089 210.316 136.104 210.443 136.095 210.568C136.085 210.694 136.051 210.817 135.994 210.929C135.938 211.042 135.859 211.142 135.764 211.224C135.668 211.306 135.558 211.369 135.438 211.408C135.318 211.447 135.192 211.463 135.066 211.453Z" fill="white"/>
<path d="M135.909 227.768H135.766L109.252 223.739C108.998 223.7 108.77 223.562 108.618 223.354C108.467 223.147 108.404 222.888 108.443 222.634C108.482 222.38 108.621 222.153 108.828 222.001C109.035 221.85 109.294 221.786 109.548 221.826L136.053 225.844C136.307 225.864 136.542 225.983 136.708 226.175C136.874 226.368 136.957 226.619 136.938 226.873C136.919 227.127 136.8 227.363 136.607 227.529C136.414 227.695 136.163 227.777 135.909 227.758V227.768Z" fill="#303436"/>
<path d="M153.68 245.699H153.536L106.967 238.628C106.713 238.59 106.485 238.453 106.332 238.246C106.18 238.04 106.115 237.781 106.153 237.527C106.191 237.274 106.329 237.045 106.535 236.893C106.741 236.74 107 236.676 107.254 236.714L153.852 243.795C153.977 243.814 154.096 243.857 154.204 243.922C154.312 243.987 154.406 244.072 154.48 244.173C154.555 244.275 154.609 244.39 154.639 244.512C154.669 244.634 154.675 244.761 154.656 244.886C154.621 245.117 154.502 245.328 154.322 245.478C154.142 245.628 153.914 245.706 153.68 245.699Z" fill="white"/>
<path d="M130.886 258.425H130.742L104.601 254.464C104.476 254.445 104.355 254.401 104.246 254.336C104.137 254.27 104.042 254.184 103.967 254.082C103.891 253.98 103.837 253.864 103.806 253.74C103.775 253.617 103.769 253.489 103.788 253.363C103.807 253.238 103.85 253.117 103.916 253.008C103.981 252.899 104.068 252.804 104.17 252.729C104.272 252.653 104.388 252.598 104.511 252.568C104.635 252.537 104.763 252.531 104.888 252.55L131.049 256.511C131.173 256.53 131.293 256.573 131.4 256.638C131.508 256.703 131.602 256.789 131.677 256.89C131.751 256.991 131.805 257.106 131.836 257.228C131.866 257.351 131.871 257.478 131.852 257.602C131.82 257.834 131.703 258.045 131.525 258.197C131.347 258.348 131.12 258.43 130.886 258.425Z" fill="white"/>
<path d="M166.68 339.19H166.679L56.643 339.42C56.6427 339.42 56.6423 339.42 56.642 339.42C53.9835 339.419 51.4339 338.363 49.5541 336.483C47.674 334.603 46.6177 332.053 46.6177 329.394L46.6177 329.393L46.4551 255.105C46.4551 255.105 46.4551 255.104 46.4551 255.104C46.4552 252.446 47.5114 249.896 49.3914 248.016C51.2715 246.136 53.8215 245.08 56.4804 245.08L56.4814 245.08L166.518 244.85C166.518 244.85 166.518 244.85 166.518 244.85C169.177 244.85 171.727 245.906 173.607 247.786C175.487 249.666 176.543 252.216 176.543 254.875V254.876L176.696 329.174C176.696 329.174 176.696 329.174 176.696 329.175C176.693 331.83 175.637 334.376 173.76 336.254C171.882 338.132 169.336 339.188 166.68 339.19Z" fill="white" stroke="#4D5F66"/>
<path d="M130.496 250.211L131.494 250.209V249.211V235.931C131.496 233.715 132.375 231.591 133.938 230.021C135.501 228.451 137.621 227.564 139.836 227.552C139.837 227.552 139.837 227.552 139.838 227.552L167.581 227.495C167.582 227.495 167.582 227.495 167.582 227.495C169.799 227.495 171.925 228.373 173.496 229.936C175.067 231.499 175.956 233.62 175.968 235.836C175.968 235.837 175.968 235.838 175.968 235.839L176.025 263.41V263.412V264.778V264.78L176.159 330.131C176.159 330.132 176.159 330.132 176.159 330.133C176.159 333.66 174.763 337.043 172.277 339.545C169.79 342.046 166.415 343.462 162.888 343.484C162.888 343.484 162.887 343.484 162.887 343.484L60.4239 343.694C60.4233 343.694 60.4226 343.694 60.4219 343.694C56.8951 343.694 53.5117 342.298 51.0104 339.812C48.509 337.325 47.0929 333.95 47.0712 330.424C47.0712 330.423 47.0712 330.422 47.0712 330.422L46.9277 263.707C46.9277 263.706 46.9277 263.706 46.9277 263.706C46.9279 260.179 48.3237 256.795 50.8103 254.293C53.2967 251.792 56.6717 250.376 60.1985 250.354C60.1991 250.354 60.1997 250.354 60.2003 250.354L130.496 250.211Z" fill="#9F9F9F" stroke="#4D5F66" stroke-width="2"/>
<path opacity="0.12" d="M166.625 237.135L141.747 237.193C139.528 237.203 137.404 238.091 135.838 239.664C134.273 241.237 133.394 243.365 133.394 245.584V257.468L70.4909 257.602C67.1011 257.62 63.856 258.978 61.4644 261.381C59.0728 263.783 57.729 267.034 57.7266 270.424L57.851 330.131C57.8686 333.522 59.2267 336.768 61.6288 339.161C64.0309 341.554 67.282 342.9 70.6727 342.905L162.358 342.704C165.748 342.686 168.993 341.328 171.384 338.926C173.776 336.523 175.12 333.272 175.122 329.882L174.998 271.4V270.175L174.94 245.489C174.93 243.283 174.052 241.17 172.496 239.606C170.94 238.043 168.831 237.155 166.625 237.135Z" fill="white"/>
<path d="M168.061 330.705C168.06 331.628 167.784 332.53 167.27 333.297C166.756 334.063 166.026 334.66 165.172 335.012C164.319 335.364 163.38 335.455 162.475 335.274C161.57 335.093 160.739 334.647 160.087 333.994C159.435 333.341 158.991 332.509 158.812 331.603C158.632 330.698 158.725 329.759 159.079 328.907C159.433 328.054 160.031 327.325 160.799 326.813C161.567 326.3 162.469 326.026 163.392 326.026C164.006 326.026 164.614 326.147 165.181 326.383C165.748 326.618 166.264 326.963 166.697 327.397C167.131 327.832 167.475 328.348 167.709 328.915C167.943 329.483 168.063 330.091 168.061 330.705Z" fill="white"/>
<path d="M171.333 251.718C171.079 251.718 170.836 251.617 170.656 251.437C170.477 251.258 170.376 251.014 170.376 250.761V238.044C170.317 236.98 169.841 235.982 169.051 235.265C168.261 234.549 167.222 234.172 166.156 234.217H156.885C156.631 234.217 156.387 234.116 156.208 233.937C156.029 233.757 155.928 233.514 155.928 233.26C155.928 233.006 156.029 232.763 156.208 232.583C156.387 232.404 156.631 232.303 156.885 232.303H166.156C167.729 232.259 169.255 232.837 170.404 233.912C171.552 234.987 172.23 236.472 172.29 238.044V250.761C172.29 251.014 172.189 251.258 172.01 251.437C171.83 251.617 171.587 251.718 171.333 251.718Z" fill="white"/>
<path d="M102.889 289.455C102.415 289.454 101.952 289.313 101.558 289.048C101.165 288.783 100.859 288.408 100.68 287.969C100.5 287.53 100.455 287.048 100.551 286.583C100.646 286.119 100.877 285.693 101.214 285.36L112.457 274.309L123.518 285.37C123.747 285.59 123.93 285.854 124.056 286.145C124.181 286.437 124.248 286.751 124.251 287.069C124.254 287.386 124.194 287.701 124.074 287.995C123.954 288.289 123.777 288.557 123.553 288.782C123.329 289.007 123.062 289.185 122.768 289.305C122.474 289.426 122.159 289.487 121.842 289.485C121.524 289.482 121.21 289.417 120.918 289.292C120.626 289.167 120.362 288.985 120.141 288.757L112.429 281.045L104.563 288.767C104.118 289.208 103.516 289.455 102.889 289.455Z" fill="white"/>
<path d="M112.361 304.277C111.726 304.277 111.118 304.025 110.669 303.576C110.221 303.128 109.969 302.519 109.969 301.885V277.677C109.969 277.042 110.221 276.434 110.669 275.985C111.118 275.537 111.726 275.285 112.361 275.285C112.995 275.285 113.604 275.537 114.052 275.985C114.501 276.434 114.753 277.042 114.753 277.677V301.885C114.753 302.519 114.501 303.128 114.052 303.576C113.604 304.025 112.995 304.277 112.361 304.277Z" fill="white"/>
<path d="M129.93 315.769H94.431C93.0682 315.766 91.7617 315.224 90.7971 314.262C89.8325 313.299 89.2883 311.993 89.2832 310.631V297.732C89.2832 297.098 89.5352 296.489 89.9838 296.041C90.4324 295.592 91.0409 295.34 91.6753 295.34C92.3097 295.34 92.9182 295.592 93.3668 296.041C93.8154 296.489 94.0674 297.098 94.0674 297.732V310.631C94.0699 310.725 94.1093 310.815 94.1773 310.881C94.2452 310.948 94.3362 310.985 94.431 310.985H129.93C130.1 310.985 130.263 310.917 130.383 310.797C130.504 310.677 130.571 310.513 130.571 310.343V297.732C130.571 297.418 130.633 297.107 130.753 296.817C130.873 296.527 131.05 296.263 131.272 296.041C131.494 295.819 131.758 295.642 132.048 295.522C132.338 295.402 132.649 295.34 132.963 295.34C133.277 295.34 133.588 295.402 133.879 295.522C134.169 295.642 134.433 295.819 134.655 296.041C134.877 296.263 135.053 296.527 135.173 296.817C135.293 297.107 135.355 297.418 135.355 297.732V310.343C135.355 311.782 134.784 313.162 133.766 314.18C132.749 315.197 131.369 315.769 129.93 315.769Z" fill="white"/>
<path d="M325.245 233.682L427.713 233.467C435.056 233.452 441.021 239.392 441.036 246.735L441.176 313.465C441.191 320.808 435.251 326.773 427.909 326.788L325.44 327.003C318.097 327.018 312.132 321.078 312.117 313.735L311.977 247.005C311.962 239.662 317.902 233.697 325.245 233.682Z" fill="#409CFF" stroke="#303436" stroke-width="2"/>
<path d="M321.458 239.142L431.486 238.911C437.017 238.9 441.511 243.374 441.522 248.906L441.678 323.195C441.69 328.727 437.215 333.22 431.683 333.232L321.656 333.462C316.124 333.474 311.631 328.999 311.619 323.468L311.463 249.178C311.452 243.647 315.927 239.153 321.458 239.142Z" fill="white" stroke="#303436"/>
<path d="M431.701 339.19H431.699L321.663 339.42C321.662 339.42 321.662 339.42 321.662 339.42C319.003 339.419 316.454 338.363 314.574 336.483C312.694 334.603 311.637 332.053 311.637 329.394L311.637 329.393L311.484 255.105C311.484 255.105 311.484 255.104 311.484 255.104C311.485 252.446 312.541 249.896 314.421 248.016C316.301 246.136 318.851 245.08 321.51 245.08L321.511 245.08L431.547 244.85C431.547 244.85 431.547 244.85 431.547 244.85C434.206 244.85 436.756 245.906 438.636 247.786C440.516 249.666 441.572 252.216 441.572 254.875V254.876L441.735 329.174C441.735 329.174 441.735 329.175 441.735 329.175C441.734 330.491 441.473 331.794 440.968 333.01C440.463 334.226 439.724 335.33 438.792 336.26C437.86 337.19 436.755 337.928 435.538 338.43C434.321 338.933 433.017 339.191 431.701 339.19Z" fill="white" stroke="#303436"/>
<path d="M395.523 250.211L396.521 250.209V249.211V235.93C396.521 233.715 397.398 231.591 398.96 230.021C400.521 228.452 402.64 227.564 404.854 227.552C404.855 227.552 404.855 227.552 404.856 227.552L432.598 227.495C432.598 227.495 432.599 227.495 432.599 227.495C434.814 227.498 436.938 228.376 438.508 229.939C440.077 231.502 440.964 233.622 440.976 235.836C440.976 235.837 440.976 235.838 440.976 235.839L441.033 263.41V263.412V264.778V264.781L441.177 330.131C441.177 330.132 441.177 330.132 441.177 330.133C441.176 333.66 439.781 337.043 437.294 339.545C434.808 342.046 431.433 343.462 427.906 343.484C427.906 343.484 427.905 343.484 427.904 343.484L325.442 343.694C325.441 343.694 325.44 343.694 325.44 343.694C321.913 343.694 318.53 342.298 316.028 339.812C313.527 337.325 312.111 333.95 312.089 330.424C312.089 330.423 312.089 330.422 312.089 330.422L311.955 263.707C311.955 263.706 311.955 263.706 311.955 263.706C311.955 260.179 313.351 256.795 315.838 254.293C318.324 251.792 321.699 250.376 325.226 250.354C325.226 250.354 325.227 250.354 325.228 250.354L395.523 250.211Z" fill="#409CFF" stroke="#303436" stroke-width="2"/>
<path opacity="0.12" d="M431.335 237.135L406.505 237.193C404.286 237.203 402.162 238.091 400.596 239.664C399.031 241.236 398.152 243.365 398.152 245.584V257.468L335.258 257.602C331.867 257.615 328.619 258.971 326.226 261.375C323.834 263.778 322.492 267.032 322.494 270.424L322.619 330.131C322.634 333.522 323.991 336.77 326.394 339.164C328.796 341.557 332.049 342.902 335.44 342.905L427.116 342.704C428.801 342.707 430.47 342.377 432.027 341.733C433.584 341.09 434.999 340.146 436.191 338.955C437.383 337.764 438.328 336.349 438.973 334.793C439.617 333.236 439.948 331.567 439.947 329.882L439.832 271.4V270.175L439.784 245.488C439.778 244.385 439.555 243.294 439.127 242.277C438.699 241.26 438.075 240.338 437.29 239.562C436.505 238.786 435.576 238.173 434.554 237.756C433.532 237.34 432.439 237.129 431.335 237.135Z" fill="white"/>
<path d="M432.811 330.705C432.811 331.631 432.536 332.536 432.022 333.306C431.507 334.075 430.776 334.675 429.92 335.029C429.065 335.383 428.124 335.475 427.216 335.294C426.308 335.112 425.474 334.666 424.82 334.01C424.166 333.355 423.721 332.52 423.542 331.612C423.362 330.704 423.456 329.763 423.812 328.908C424.168 328.053 424.769 327.323 425.54 326.81C426.31 326.297 427.216 326.024 428.142 326.026C429.381 326.029 430.569 326.523 431.444 327.4C432.319 328.277 432.811 329.466 432.811 330.705Z" fill="white"/>
<path d="M436.12 251.718C435.867 251.718 435.623 251.617 435.444 251.437C435.264 251.258 435.163 251.014 435.163 250.761V238.044C435.104 236.98 434.628 235.982 433.838 235.265C433.049 234.549 432.009 234.172 430.944 234.217H421.681C421.428 234.217 421.184 234.116 421.005 233.937C420.825 233.757 420.725 233.514 420.725 233.26C420.725 233.006 420.825 232.763 421.005 232.583C421.184 232.404 421.428 232.303 421.681 232.303H430.944C432.516 232.259 434.042 232.837 435.191 233.912C436.339 234.987 437.017 236.472 437.077 238.044V250.761C437.077 251.014 436.976 251.258 436.797 251.437C436.617 251.617 436.374 251.718 436.12 251.718Z" fill="white"/>
<path d="M380.26 305.253L369.199 294.182C368.791 293.727 368.574 293.132 368.591 292.521C368.608 291.91 368.858 291.329 369.29 290.897C369.723 290.464 370.304 290.214 370.915 290.197C371.526 290.18 372.12 290.397 372.576 290.805L380.288 298.517L388.154 290.786C388.609 290.352 389.216 290.115 389.844 290.126C390.473 290.136 391.072 290.394 391.512 290.843C391.952 291.292 392.198 291.896 392.196 292.524C392.194 293.153 391.945 293.755 391.503 294.202L380.26 305.253Z" fill="white"/>
<path d="M380.355 304.277C379.721 304.277 379.112 304.025 378.664 303.576C378.215 303.128 377.963 302.519 377.963 301.885V277.677C377.963 277.042 378.215 276.434 378.664 275.985C379.112 275.537 379.721 275.285 380.355 275.285C380.989 275.285 381.598 275.537 382.047 275.985C382.495 276.434 382.747 277.042 382.747 277.677V301.885C382.747 302.519 382.495 303.128 382.047 303.576C381.598 304.025 380.989 304.277 380.355 304.277Z" fill="white"/>
<path d="M397.971 315.769H362.443C361.081 315.766 359.775 315.224 358.812 314.261C357.849 313.298 357.307 311.992 357.305 310.631V297.732C357.305 297.098 357.557 296.489 358.005 296.041C358.454 295.592 359.062 295.34 359.697 295.34C360.331 295.34 360.94 295.592 361.388 296.041C361.837 296.489 362.089 297.098 362.089 297.732V310.631C362.091 310.724 362.129 310.812 362.195 310.878C362.261 310.944 362.35 310.982 362.443 310.985H397.951C398.035 310.985 398.118 310.968 398.195 310.936C398.273 310.903 398.343 310.856 398.401 310.796C398.46 310.737 398.507 310.666 398.538 310.588C398.569 310.51 398.584 310.427 398.583 310.343V297.732C398.583 297.098 398.835 296.489 399.284 296.041C399.732 295.592 400.341 295.34 400.975 295.34C401.61 295.34 402.218 295.592 402.667 296.041C403.115 296.489 403.367 297.098 403.367 297.732V310.343C403.367 311.777 402.8 313.153 401.788 314.17C400.777 315.186 399.405 315.761 397.971 315.769Z" fill="white"/>
<path d="M416.36 151.306L369.093 117.242C368.544 116.846 367.779 116.97 367.384 117.519L321.229 181.56C320.834 182.109 320.958 182.875 321.507 183.27L368.773 217.335C369.322 217.73 370.088 217.606 370.483 217.057L416.637 153.016C417.033 152.467 416.908 151.702 416.36 151.306Z" fill="white"/>
<path d="M368.801 117.647L416.067 151.712C416.392 151.946 416.466 152.399 416.231 152.723L370.077 216.765C369.843 217.09 369.39 217.163 369.066 216.929L321.799 182.865C321.475 182.631 321.401 182.178 321.635 181.853L367.789 117.811C368.023 117.487 368.476 117.413 368.801 117.647Z" fill="#409CFF" stroke="#4D5F66"/>
<path d="M397.703 165.946C397.501 165.947 397.303 165.883 397.139 165.764L388.986 159.889C388.792 159.736 388.665 159.514 388.63 159.27C388.596 159.025 388.658 158.777 388.802 158.577C388.947 158.376 389.163 158.24 389.406 158.196C389.649 158.151 389.9 158.203 390.106 158.339L398.258 164.214C398.422 164.332 398.543 164.499 398.606 164.691C398.669 164.882 398.67 165.089 398.608 165.281C398.547 165.473 398.426 165.641 398.264 165.76C398.101 165.88 397.905 165.945 397.703 165.946Z" fill="#303436"/>
<path d="M388.957 178.088C388.755 178.085 388.558 178.022 388.393 177.906L352.702 152.177C352.595 152.106 352.503 152.014 352.432 151.906C352.361 151.798 352.312 151.677 352.289 151.551C352.266 151.424 352.269 151.293 352.297 151.168C352.325 151.042 352.379 150.923 352.455 150.819C352.53 150.714 352.626 150.626 352.736 150.559C352.847 150.493 352.97 150.449 353.097 150.431C353.225 150.413 353.355 150.421 353.479 150.455C353.604 150.489 353.72 150.547 353.822 150.627L389.512 176.347C389.68 176.464 389.805 176.631 389.871 176.825C389.936 177.018 389.938 177.227 389.876 177.422C389.814 177.617 389.691 177.786 389.526 177.906C389.361 178.026 389.161 178.09 388.957 178.088Z" fill="#303436"/>
<path d="M383.006 186.336C382.804 186.34 382.607 186.279 382.441 186.164L368.261 175.935C368.153 175.864 368.061 175.772 367.99 175.664C367.919 175.557 367.871 175.436 367.848 175.309C367.824 175.182 367.827 175.052 367.856 174.926C367.884 174.8 367.938 174.682 368.013 174.577C368.089 174.472 368.185 174.384 368.295 174.318C368.405 174.251 368.528 174.208 368.656 174.19C368.784 174.172 368.914 174.18 369.038 174.213C369.163 174.247 369.279 174.305 369.38 174.385L383.561 184.614C383.724 184.732 383.846 184.899 383.909 185.091C383.972 185.282 383.973 185.489 383.911 185.681C383.849 185.873 383.729 186.041 383.566 186.16C383.404 186.279 383.208 186.344 383.006 186.346V186.336Z" fill="#9F9F9F"/>
<path d="M355.993 166.874C355.794 166.873 355.6 166.809 355.438 166.692L346.75 160.434C346.556 160.282 346.428 160.06 346.394 159.815C346.36 159.571 346.421 159.322 346.566 159.122C346.711 158.922 346.927 158.785 347.17 158.741C347.413 158.697 347.664 158.748 347.87 158.884L356.558 165.142C356.761 165.291 356.897 165.515 356.937 165.764C356.976 166.013 356.916 166.267 356.768 166.472C356.68 166.596 356.564 166.697 356.429 166.766C356.295 166.836 356.145 166.873 355.993 166.874Z" fill="#9F9F9F"/>
<path d="M361.667 184.997C361.468 184.992 361.274 184.929 361.112 184.815L339.104 168.969C339.002 168.896 338.916 168.802 338.85 168.695C338.784 168.587 338.74 168.468 338.721 168.343C338.701 168.219 338.706 168.092 338.736 167.969C338.766 167.847 338.819 167.732 338.894 167.63C339.041 167.425 339.264 167.287 339.513 167.246C339.762 167.205 340.018 167.264 340.224 167.41L362.231 183.255C362.336 183.329 362.425 183.424 362.492 183.533C362.56 183.642 362.605 183.763 362.624 183.89C362.644 184.017 362.638 184.146 362.606 184.27C362.575 184.395 362.519 184.512 362.442 184.614C362.351 184.734 362.234 184.831 362.1 184.898C361.965 184.964 361.817 184.998 361.667 184.997Z" fill="#303436"/>
<path d="M404.692 128.372L346.358 105.933C345.727 105.69 345.018 106.005 344.775 106.636L314.394 185.618C314.151 186.249 314.466 186.958 315.097 187.201L373.431 209.64C374.063 209.883 374.771 209.568 375.014 208.937L405.396 129.955C405.638 129.324 405.324 128.615 404.692 128.372Z" fill="white"/>
<path d="M346.178 106.4L404.513 128.839C404.886 128.983 405.073 129.402 404.929 129.775L374.547 208.757C374.404 209.131 373.984 209.317 373.611 209.173L315.277 186.734C314.903 186.59 314.717 186.171 314.86 185.798L345.242 106.816C345.386 106.442 345.805 106.256 346.178 106.4Z" fill="white" stroke="#4D5F66"/>
<path d="M360.176 122.441C360.059 122.441 359.943 122.421 359.832 122.384L349.794 118.556C349.576 118.453 349.405 118.27 349.316 118.046C349.227 117.822 349.225 117.572 349.313 117.347C349.4 117.121 349.569 116.938 349.786 116.832C350.003 116.726 350.252 116.706 350.483 116.777L360.52 120.604C360.756 120.696 360.946 120.877 361.048 121.109C361.15 121.34 361.157 121.602 361.066 121.838C360.995 122.016 360.872 122.169 360.714 122.276C360.555 122.384 360.368 122.441 360.176 122.441Z" fill="#303436"/>
<path d="M392.221 141.285C392.104 141.285 391.988 141.265 391.877 141.228L347.948 124.33C347.711 124.238 347.52 124.056 347.416 123.824C347.313 123.592 347.307 123.328 347.398 123.091C347.489 122.853 347.671 122.662 347.904 122.559C348.136 122.456 348.4 122.449 348.637 122.54L392.566 139.486C392.773 139.568 392.944 139.719 393.052 139.913C393.159 140.107 393.196 140.333 393.155 140.551C393.114 140.77 392.999 140.967 392.828 141.11C392.658 141.252 392.444 141.331 392.221 141.333V141.285Z" fill="#303436"/>
<mask id="path-103-inside-1_1372_161" fill="white">
<path d="M342.009 142.131C344.485 139.893 347.379 138.164 350.524 137.043C353.669 135.922 357.003 135.432 360.338 135.6L359.465 152.901C358.403 152.848 357.34 153.004 356.338 153.361C355.336 153.718 354.414 154.269 353.625 154.982L342.009 142.131Z"/>
</mask>
<path d="M342.009 142.131C344.485 139.893 347.379 138.164 350.524 137.043C353.669 135.922 357.003 135.432 360.338 135.6L359.465 152.901C358.403 152.848 357.34 153.004 356.338 153.361C355.336 153.718 354.414 154.269 353.625 154.982L342.009 142.131Z" fill="#838586" stroke="white" mask="url(#path-103-inside-1_1372_161)"/>
<mask id="path-104-inside-2_1372_161" fill="white">
<path d="M360.336 135.6C363.003 135.735 365.632 136.288 368.127 137.241L361.947 153.424C361.152 153.12 360.314 152.944 359.465 152.901L360.336 135.6Z"/>
</mask>
<path d="M360.336 135.6C363.003 135.735 365.632 136.288 368.127 137.241L361.947 153.424C361.152 153.12 360.314 152.944 359.465 152.901L360.336 135.6Z" fill="#303436" stroke="white" mask="url(#path-104-inside-2_1372_161)"/>
<mask id="path-105-inside-3_1372_161" fill="white">
<path d="M336.52 172.757C333.916 167.769 333.041 162.059 334.03 156.521C335.019 150.982 337.818 145.928 341.987 142.151L353.618 154.988C352.29 156.192 351.398 157.802 351.083 159.567C350.768 161.331 351.047 163.151 351.876 164.74L336.52 172.757Z"/>
</mask>
<path d="M336.52 172.757C333.916 167.769 333.041 162.059 334.03 156.521C335.019 150.982 337.818 145.928 341.987 142.151L353.618 154.988C352.29 156.192 351.398 157.802 351.083 159.567C350.768 161.331 351.047 163.151 351.876 164.74L336.52 172.757Z" fill="#C5E1FF" stroke="white" mask="url(#path-105-inside-3_1372_161)"/>
<mask id="path-106-inside-4_1372_161" fill="white">
<path d="M373.157 182.146C370.189 184.124 366.837 185.456 363.319 186.054C359.802 186.653 356.198 186.504 352.743 185.618C349.287 184.732 346.056 183.128 343.26 180.911C340.465 178.694 338.167 175.914 336.517 172.751L351.875 164.738C352.401 165.746 353.133 166.632 354.024 167.338C354.915 168.044 355.944 168.555 357.045 168.838C358.146 169.12 359.294 169.167 360.415 168.977C361.536 168.786 362.604 168.362 363.55 167.731L373.157 182.146Z"/>
</mask>
<path d="M373.157 182.146C370.189 184.124 366.837 185.456 363.319 186.054C359.802 186.653 356.198 186.504 352.743 185.618C349.287 184.732 346.056 183.128 343.26 180.911C340.465 178.694 338.167 175.914 336.517 172.751L351.875 164.738C352.401 165.746 353.133 166.632 354.024 167.338C354.915 168.044 355.944 168.555 357.045 168.838C358.146 169.12 359.294 169.167 360.415 168.977C361.536 168.786 362.604 168.362 363.55 167.731L373.157 182.146Z" fill="#8CC4FF" stroke="white" mask="url(#path-106-inside-4_1372_161)"/>
<mask id="path-107-inside-5_1372_161" fill="white">
<path d="M368.052 137.213C372.419 138.865 376.248 141.688 379.116 145.372C381.985 149.056 383.784 153.46 384.315 158.099C384.846 162.738 384.089 167.434 382.128 171.671C380.166 175.909 377.075 179.524 373.194 182.121L363.561 167.724C364.798 166.896 365.783 165.744 366.408 164.394C367.033 163.044 367.274 161.548 367.105 160.07C366.935 158.592 366.362 157.189 365.448 156.015C364.534 154.841 363.314 153.941 361.923 153.415L368.052 137.213Z"/>
</mask>
<path d="M368.052 137.213C372.419 138.865 376.248 141.688 379.116 145.372C381.985 149.056 383.784 153.46 384.315 158.099C384.846 162.738 384.089 167.434 382.128 171.671C380.166 175.909 377.075 179.524 373.194 182.121L363.561 167.724C364.798 166.896 365.783 165.744 366.408 164.394C367.033 163.044 367.274 161.548 367.105 160.07C366.935 158.592 366.362 157.189 365.448 156.015C364.534 154.841 363.314 153.941 361.923 153.415L368.052 137.213Z" fill="#409CFF" stroke="white" mask="url(#path-107-inside-5_1372_161)"/>
<path d="M335.061 186.869C334.943 186.87 334.825 186.847 334.716 186.802L324.028 182.697C323.791 182.606 323.6 182.424 323.497 182.192C323.393 181.959 323.387 181.695 323.478 181.458C323.569 181.221 323.751 181.03 323.984 180.926C324.216 180.823 324.48 180.817 324.717 180.908L335.405 185.022C335.641 185.114 335.83 185.296 335.933 185.527C336.035 185.758 336.041 186.021 335.951 186.257C335.881 186.437 335.759 186.591 335.6 186.701C335.442 186.81 335.253 186.869 335.061 186.869Z" fill="#409CFF"/>
<path d="M367.63 199.84C367.512 199.837 367.396 199.814 367.285 199.773L340.226 189.363C340.008 189.259 339.837 189.077 339.748 188.853C339.658 188.628 339.657 188.379 339.744 188.153C339.831 187.928 340 187.744 340.218 187.638C340.435 187.533 340.684 187.513 340.915 187.583L367.974 197.984C368.093 198.029 368.202 198.096 368.294 198.183C368.386 198.27 368.46 198.374 368.512 198.49C368.564 198.606 368.592 198.731 368.595 198.857C368.598 198.984 368.576 199.11 368.529 199.228C368.459 199.409 368.336 199.565 368.175 199.675C368.015 199.784 367.824 199.842 367.63 199.84Z" fill="#303436"/>
<path d="M229.621 54.6394L298.713 78.2275C299.241 78.408 299.524 78.9831 299.343 79.5119L267.124 173.886C266.943 174.415 266.368 174.697 265.839 174.517L196.747 150.929C196.219 150.748 195.936 150.173 196.117 149.644L228.336 55.27C228.517 54.7412 229.092 54.4588 229.621 54.6394Z" fill="#DEDEDE" stroke="#4D5F66"/>
<path d="M215.401 60.9665L288.175 66.7962C288.732 66.8409 289.147 67.3286 289.103 67.8856L281.14 167.29C281.095 167.847 280.607 168.262 280.05 168.218L207.276 162.388C206.719 162.343 206.304 161.855 206.348 161.298L214.311 61.8943C214.356 61.3373 214.844 60.9219 215.401 60.9665Z" fill="white" stroke="#4D5F66"/>
<path d="M277.551 83.0447H277.475L259.046 81.5712C258.92 81.5615 258.797 81.5271 258.685 81.4698C258.572 81.4126 258.472 81.3337 258.391 81.2376C258.309 81.1416 258.247 81.0303 258.208 80.9102C258.169 80.7901 258.155 80.6635 258.165 80.5378C258.187 80.2854 258.308 80.052 258.502 79.8888C258.696 79.7256 258.946 79.6458 259.199 79.6671L277.628 81.1406C277.881 81.1507 278.121 81.2613 278.293 81.4479C278.465 81.6345 278.556 81.8819 278.546 82.1357C278.536 82.3895 278.426 82.6288 278.239 82.8011C278.052 82.9734 277.805 83.0644 277.551 83.0543V83.0447Z" fill="#409CFF"/>
<path d="M277.082 88.9294H277.005L258.567 87.4558C258.313 87.4355 258.078 87.3152 257.913 87.1214C257.748 86.9276 257.666 86.6762 257.687 86.4224C257.707 86.1686 257.827 85.9333 258.021 85.7682C258.215 85.6031 258.466 85.5218 258.72 85.5421L277.158 87.0157C277.412 87.0258 277.652 87.1364 277.824 87.323C277.996 87.5096 278.087 87.757 278.077 88.0108C278.067 88.2645 277.956 88.5039 277.77 88.6762C277.583 88.8484 277.336 88.9395 277.082 88.9294Z" fill="#409CFF"/>
<path d="M222 119.742C222 119.742 231.444 106.307 234.142 106.227C236.84 106.146 239.485 114.453 241.764 113.849C244.043 113.245 258.48 90.9275 261.423 91.7306C264.366 92.5337 268.319 105.26 269.449 105.123C270.578 104.986 272.205 102.79 275.042 109.345C276.97 113.898 278.651 118.551 280.076 123.285L222 119.742Z" fill="#409CFF"/>
<path opacity="0.4" d="M222 119.742C222 119.742 231.444 106.307 234.142 106.227C236.84 106.146 239.485 114.453 241.764 113.849C244.043 113.245 258.48 90.9275 261.423 91.7306C264.366 92.5337 268.319 105.26 269.449 105.123C270.578 104.986 272.205 102.79 275.042 109.345C276.97 113.898 278.651 118.551 280.076 123.285L222 119.742Z" fill="white"/>
<path d="M274.214 122.927C274.214 122.927 264.763 98.3095 261.353 97.0135C257.942 95.7175 252.576 106.044 250.081 107.789C247.586 109.534 244.33 100.493 242.785 100.272C241.239 100.052 233.312 113.526 230.934 113.255C228.556 112.984 228.322 111.159 225.899 109.983C223.477 108.807 216.482 119.405 216.482 119.405L274.214 122.927Z" fill="#409CFF"/>
<path d="M276.203 123.049C276.203 123.049 271.404 113.727 269.425 111.49C267.445 109.253 264.013 116.467 261.882 116.602C259.751 116.738 252.867 101.266 250.688 99.9983C248.51 98.7311 243.126 111.743 240.936 111.855C238.747 111.967 234.817 103.415 232.459 102.82C230.1 102.225 218.233 119.499 218.233 119.499L276.203 123.049Z" fill="#303436"/>
<path opacity="0.4" d="M276.203 123.049C276.203 123.049 271.404 113.727 269.425 111.49C267.445 109.253 264.013 116.467 261.882 116.602C259.751 116.738 252.867 101.266 250.688 99.9983C248.51 98.7311 243.126 111.743 240.936 111.855C238.747 111.967 234.817 103.415 232.459 102.82C230.1 102.225 218.233 119.499 218.233 119.499L276.203 123.049Z" fill="white"/>
<path d="M280.81 123.111L215.027 119.098L215.001 119.534L280.783 123.547L280.81 123.111Z" fill="#303436"/>
<path d="M274.708 122.958C274.708 122.958 272.468 116.187 270.253 116.171C268.038 116.156 266.851 120.926 264.758 120.546C262.665 120.166 260.649 112.335 257.461 112.505C254.273 112.676 253.371 117.238 251.335 117.989C249.299 118.741 245.767 112.588 243.311 111.629C240.855 110.67 237.36 118.377 234.58 118.718C231.799 119.06 230.931 115.245 229.299 115.464C227.667 115.683 222.838 119.807 222.838 119.807L274.708 122.958Z" fill="#303436"/>
</svg>
