<svg width="500" height="367" viewBox="0 0 500 367" fill="none" xmlns="http://www.w3.org/2000/svg">
<path d="M479.336 341.713C479.336 355.167 380.375 366.075 258.311 366.075C136.247 366.075 37.2851 355.167 37.2851 341.713C37.2851 328.258 136.237 317.341 258.311 317.341C380.385 317.341 479.336 328.249 479.336 341.713Z" fill="#F5F5F5"/>
<path d="M362.829 349.188C363.394 349.19 363.951 349.055 364.452 348.793C364.953 348.532 365.382 348.152 365.703 347.687C366.024 347.222 366.226 346.685 366.293 346.124C366.359 345.563 366.288 344.994 366.084 344.467C363.429 337.946 355.944 333.471 348.834 331.337C336.304 327.58 322.997 327.639 309.935 327.058C296.874 326.478 283.381 325.091 271.923 318.807C268.145 316.727 264.714 314.073 261.753 310.939V232.257H242.692V310.939C239.733 314.075 236.302 316.73 232.523 318.807C221.045 325.082 207.591 326.468 194.52 327.058C181.449 327.649 168.152 327.58 155.622 331.337C148.501 333.471 141.017 337.946 138.371 344.467C138.165 344.994 138.092 345.563 138.157 346.126C138.222 346.688 138.425 347.225 138.746 347.691C139.067 348.157 139.498 348.537 140 348.798C140.502 349.059 141.06 349.193 141.626 349.188H146.8H146.524C146.701 348.135 147.144 347.146 147.813 346.315C148.481 345.483 149.351 344.836 150.34 344.437C152.307 343.542 154.442 342.077 156.556 341.89C166.981 340.975 337.464 340.975 347.889 341.89C350.014 342.077 352.178 343.542 354.105 344.437C355.094 344.838 355.965 345.485 356.634 346.316C357.304 347.147 357.75 348.136 357.931 349.188H357.656H362.829Z" fill="#556870"/>
<path d="M252.96 284.6H252.852C249.843 284.6 247.404 287.04 247.404 290.049V312.955C247.404 315.964 249.843 318.404 252.852 318.404H252.96C255.97 318.404 258.409 315.964 258.409 312.955V290.049C258.409 287.04 255.97 284.6 252.96 284.6Z" fill="#6884A0"/>
<path d="M450.627 308.913C317.209 288.947 181.562 288.947 48.1431 308.913C47.3063 309.037 46.4525 308.979 45.6397 308.745C44.8269 308.51 44.0741 308.103 43.4324 307.552C42.7906 307 42.2749 306.318 41.9202 305.549C41.5655 304.781 41.3801 303.946 41.3765 303.1V59.6601C41.3801 58.8141 41.5655 57.9787 41.9202 57.2106C42.2749 56.4426 42.7906 55.7598 43.4324 55.2085C44.0741 54.6572 44.8269 54.2504 45.6397 54.0155C46.4525 53.7807 47.3063 53.7234 48.1431 53.8475C181.562 73.813 317.209 73.813 450.627 53.8475C451.464 53.7234 452.318 53.7807 453.131 54.0155C453.944 54.2504 454.696 54.6572 455.338 55.2085C455.98 55.7598 456.496 56.4426 456.85 57.2106C457.205 57.9787 457.391 58.8141 457.394 59.6601V303.1C457.391 303.946 457.205 304.781 456.85 305.549C456.496 306.318 455.98 307 455.338 307.552C454.696 308.103 453.944 308.51 453.131 308.745C452.318 308.979 451.464 309.037 450.627 308.913Z" fill="#556870"/>
<path d="M452.821 305.431C317.833 284.885 180.514 284.885 45.527 305.431V57.6931C180.513 78.2487 317.834 78.2487 452.821 57.6931V305.431Z" fill="url(#paint0_linear_0_2887)"/>
<path d="M134.309 121.1C124.388 121.1 114.691 124.042 106.442 129.554C98.1933 135.065 91.7642 142.899 87.9678 152.065C84.1714 161.23 83.178 171.315 85.1134 181.045C87.0489 190.775 91.8261 199.713 98.841 206.728C105.856 213.743 114.793 218.52 124.523 220.455C134.253 222.391 144.339 221.397 153.504 217.601C162.67 213.804 170.503 207.375 176.015 199.127C181.527 190.878 184.468 181.18 184.468 171.26C184.468 157.957 179.184 145.198 169.777 135.792C160.37 126.385 147.612 121.1 134.309 121.1ZM134.309 201.699C128.296 201.699 122.419 199.917 117.419 196.576C112.42 193.236 108.524 188.488 106.223 182.933C103.922 177.378 103.32 171.265 104.493 165.368C105.666 159.471 108.561 154.054 112.813 149.803C117.064 145.551 122.481 142.656 128.378 141.483C134.275 140.31 140.388 140.912 145.943 143.213C151.498 145.514 156.246 149.41 159.586 154.409C162.926 159.409 164.709 165.286 164.709 171.299C164.709 179.362 161.507 187.094 155.805 192.795C150.104 198.497 142.372 201.699 134.309 201.699Z" fill="#C3D2D9"/>
<path d="M134.309 201.7C126.403 201.698 118.81 198.615 113.139 193.107C107.469 187.598 104.168 180.096 103.938 172.194H84.13C84.13 185.497 89.4146 198.255 98.8213 207.662C108.228 217.069 120.986 222.353 134.289 222.353C147.592 222.353 160.351 217.069 169.757 207.662C179.164 198.255 184.449 185.497 184.449 172.194H164.68C164.452 180.097 161.152 187.6 155.481 193.109C149.811 198.619 142.215 201.7 134.309 201.7Z" fill="#E7ECF2"/>
<path d="M158.789 127.523L150.124 145.383C154.579 148.096 158.261 151.909 160.815 156.457C163.37 161.004 164.711 166.132 164.709 171.348C164.709 171.653 164.709 171.958 164.709 172.273H184.517C184.517 171.958 184.517 171.653 184.517 171.348C184.521 162.414 182.137 153.641 177.614 145.936C173.091 138.231 166.592 131.874 158.789 127.523Z" fill="#D0E0EF"/>
<path d="M253.137 121.1C243.217 121.1 233.519 124.042 225.27 129.554C217.022 135.065 210.593 142.899 206.796 152.065C203 161.23 202.006 171.315 203.942 181.045C205.877 190.775 210.655 199.713 217.669 206.728C224.684 213.743 233.622 218.52 243.352 220.455C253.082 222.391 263.167 221.397 272.333 217.601C281.498 213.804 289.332 207.375 294.843 199.127C300.355 190.878 303.297 181.18 303.297 171.26C303.297 164.673 301.999 158.15 299.479 152.065C296.958 145.979 293.263 140.449 288.605 135.792C283.948 131.134 278.418 127.439 272.333 124.918C266.247 122.398 259.724 121.1 253.137 121.1ZM253.137 201.7C247.124 201.701 241.246 199.92 236.245 196.581C231.244 193.242 227.346 188.494 225.044 182.94C222.742 177.385 222.138 171.272 223.31 165.374C224.482 159.476 227.377 154.059 231.628 149.806C235.879 145.554 241.296 142.657 247.193 141.483C253.091 140.31 259.204 140.911 264.759 143.212C270.315 145.512 275.063 149.409 278.404 154.408C281.745 159.408 283.528 165.286 283.528 171.299C283.528 179.36 280.326 187.091 274.627 192.792C268.928 198.493 261.198 201.697 253.137 201.7Z" fill="#E7ECF2"/>
<path d="M253.137 140.899C257.385 140.896 261.585 141.786 265.465 143.513C269.345 145.24 272.819 147.764 275.66 150.921L290.295 137.574C282.335 128.794 271.523 123.115 259.776 121.545C248.03 119.976 236.106 122.616 226.12 128.998L238.385 144.734C242.894 142.218 247.973 140.897 253.137 140.899Z" fill="#E7ECF2"/>
<path d="M303.287 169.46C302.866 157.629 298.262 146.33 290.295 137.574L275.66 150.921C280.302 156.029 283.057 162.57 283.469 169.46H303.287Z" fill="#AACCE8"/>
<path d="M238.385 144.744L226.12 129.008C219.276 133.376 213.595 139.34 209.564 146.387C205.533 153.435 203.273 161.356 202.978 169.47C202.978 170.079 202.929 170.689 202.929 171.309C202.917 183.867 207.625 195.97 216.118 205.22L230.753 191.874C225.587 186.273 222.724 178.929 222.737 171.309C222.737 170.689 222.737 170.079 222.796 169.47C223.107 164.37 224.698 159.431 227.423 155.11C230.147 150.788 233.917 147.223 238.385 144.744Z" fill="#C3D2D9"/>
<path d="M303.336 171.299C303.336 170.679 303.336 170.07 303.287 169.46H283.469C283.469 170.07 283.528 170.679 283.528 171.299C283.537 179.045 280.576 186.5 275.257 192.13L287.511 207.866C292.512 203.179 296.497 197.515 299.219 191.225C301.941 184.935 303.343 178.153 303.336 171.299Z" fill="#D0E0EF"/>
<path d="M371.956 121.1C362.035 121.1 352.338 124.042 344.089 129.554C335.84 135.065 329.411 142.899 325.615 152.065C321.818 161.23 320.825 171.315 322.76 181.045C324.696 190.775 329.473 199.713 336.488 206.728C343.503 213.743 352.44 218.52 362.17 220.455C371.9 222.391 381.986 221.397 391.151 217.601C400.317 213.804 408.15 207.375 413.662 199.127C419.174 190.878 422.115 181.18 422.115 171.26C422.115 157.957 416.831 145.198 407.424 135.792C398.017 126.385 385.259 121.1 371.956 121.1ZM371.956 201.7C365.943 201.7 360.066 199.917 355.066 196.576C350.067 193.236 346.171 188.488 343.87 182.933C341.569 177.378 340.967 171.265 342.14 165.368C343.313 159.471 346.208 154.054 350.46 149.803C354.711 145.551 360.128 142.656 366.025 141.483C371.922 140.31 378.035 140.912 383.59 143.213C389.145 145.514 393.893 149.41 397.233 154.409C400.574 159.409 402.356 165.286 402.356 171.299C402.358 175.292 401.572 179.245 400.045 182.934C398.518 186.623 396.279 189.975 393.455 192.798C390.632 195.621 387.28 197.861 383.591 199.388C379.902 200.915 375.949 201.701 371.956 201.7Z" fill="#E7ECF2"/>
<path d="M402.356 171.299C402.357 176.481 401.032 181.576 398.509 186.102C395.985 190.627 392.346 194.432 387.938 197.156L401.707 211.702C407.698 207.295 412.634 201.612 416.158 195.063C419.682 188.514 421.705 181.263 422.082 173.835C422.459 166.408 421.179 158.99 418.335 152.118C415.492 145.246 411.156 139.092 405.641 134.102L391.351 147.921C394.794 150.766 397.566 154.338 399.469 158.379C401.371 162.42 402.357 166.832 402.356 171.299Z" fill="#D0E0EF"/>
<path d="M150.803 237.313H115.563V245.682H150.803V237.313Z" fill="white"/>
<path d="M150.891 252.459H115.494V254.77H150.891V252.459Z" fill="#AACCE8"/>
<path d="M150.891 262.117H115.494V264.428H150.891V262.117Z" fill="#AACCE8"/>
<path d="M270.752 237.313H235.513V245.682H270.752V237.313Z" fill="white"/>
<path d="M270.821 252.459H235.434V254.77H270.821V252.459Z" fill="#AACCE8"/>
<path d="M270.821 262.117H235.434V264.428H270.821V262.117Z" fill="#AACCE8"/>
<path d="M390.702 237.313H355.462V245.682H390.702V237.313Z" fill="white"/>
<path d="M390.781 252.459H355.384V254.77H390.781V252.459Z" fill="#AACCE8"/>
<path d="M390.781 262.117H355.384V264.428H390.781V262.117Z" fill="#AACCE8"/>
<path d="M332.527 24.5093H164.296V192.13H332.527V24.5093Z" fill="#E0E0E0"/>
<path d="M160.933 59.4241H48.566V151.589H160.933V59.4241Z" fill="#E0E0E0"/>
<path d="M449.683 55.2933H336.884V151.58H449.683V55.2933Z" fill="#E0E0E0"/>
<path d="M329.911 0H167.572V181.773H329.911V0Z" fill="#EEF7FF"/>
<path d="M238.975 5.91089H197.628V10.6318H238.975V5.91089Z" fill="#C3D2D9"/>
<path d="M317.292 5.91089H299.166V10.6318H317.292V5.91089Z" fill="#C3D2D9"/>
<path d="M317.292 16.887H299.166V18.4409H317.292V16.887Z" fill="#C3D2D9"/>
<path d="M192.671 103.289C190.294 103.289 187.97 103.994 185.994 105.314C184.017 106.635 182.477 108.512 181.567 110.708C180.657 112.904 180.419 115.321 180.883 117.652C181.347 119.984 182.492 122.125 184.172 123.806C185.853 125.487 187.995 126.631 190.326 127.095C192.657 127.559 195.074 127.321 197.27 126.411C199.466 125.502 201.343 123.961 202.664 121.985C203.985 120.008 204.689 117.685 204.689 115.308C204.689 113.729 204.379 112.166 203.775 110.708C203.171 109.25 202.285 107.925 201.169 106.809C200.053 105.693 198.728 104.808 197.27 104.204C195.812 103.6 194.249 103.289 192.671 103.289ZM192.671 122.576C191.231 122.576 189.823 122.149 188.626 121.348C187.429 120.548 186.496 119.411 185.946 118.081C185.395 116.75 185.252 115.286 185.533 113.874C185.815 112.462 186.509 111.165 187.528 110.148C188.547 109.13 189.845 108.438 191.257 108.158C192.669 107.879 194.133 108.024 195.463 108.576C196.793 109.129 197.929 110.063 198.727 111.261C199.526 112.46 199.951 113.868 199.949 115.308C199.953 116.265 199.767 117.214 199.403 118.1C199.039 118.986 198.503 119.791 197.827 120.469C197.151 121.148 196.347 121.685 195.462 122.052C194.577 122.418 193.629 122.607 192.671 122.605V122.576Z" fill="#A5D1FF"/>
<path d="M192.671 110.508C191.722 110.508 190.794 110.789 190.004 111.317C189.215 111.844 188.6 112.594 188.237 113.471C187.873 114.348 187.778 115.313 187.963 116.244C188.149 117.175 188.606 118.03 189.277 118.701C189.948 119.372 190.803 119.83 191.734 120.015C192.666 120.2 193.631 120.105 194.508 119.742C195.385 119.378 196.134 118.763 196.662 117.974C197.189 117.185 197.47 116.257 197.47 115.307C197.472 114.677 197.348 114.052 197.108 113.469C196.867 112.886 196.513 112.357 196.068 111.911C195.622 111.465 195.092 111.111 194.509 110.871C193.926 110.63 193.301 110.507 192.671 110.508ZM192.671 119.537C191.834 119.537 191.017 119.288 190.321 118.824C189.626 118.359 189.084 117.699 188.764 116.926C188.444 116.153 188.36 115.303 188.523 114.482C188.686 113.662 189.089 112.908 189.68 112.317C190.272 111.725 191.025 111.323 191.846 111.16C192.666 110.996 193.516 111.08 194.289 111.4C195.062 111.72 195.723 112.262 196.187 112.958C196.652 113.653 196.9 114.471 196.9 115.307C196.9 116.429 196.454 117.505 195.661 118.298C194.868 119.091 193.792 119.537 192.671 119.537Z" fill="#A5D1FF"/>
<path d="M219.324 103.289C216.947 103.289 214.623 103.994 212.647 105.314C210.671 106.635 209.13 108.512 208.22 110.708C207.311 112.904 207.073 115.321 207.536 117.652C208 119.984 209.145 122.125 210.826 123.806C212.507 125.487 214.648 126.631 216.979 127.095C219.311 127.559 221.727 127.321 223.923 126.411C226.12 125.502 227.997 123.961 229.317 121.985C230.638 120.008 231.343 117.685 231.343 115.308C231.343 112.12 230.076 109.063 227.823 106.809C225.569 104.555 222.512 103.289 219.324 103.289ZM219.324 122.605C217.884 122.605 216.477 122.178 215.28 121.378C214.083 120.578 213.15 119.441 212.599 118.11C212.049 116.78 211.905 115.316 212.187 113.904C212.468 112.492 213.162 111.195 214.181 110.177C215.2 109.16 216.498 108.468 217.91 108.188C219.323 107.908 220.786 108.054 222.116 108.606C223.446 109.158 224.582 110.093 225.38 111.291C226.179 112.489 226.604 113.897 226.602 115.337C226.6 117.266 225.832 119.114 224.467 120.477C223.102 121.84 221.253 122.605 219.324 122.605Z" fill="#A5D1FF"/>
<path d="M219.324 110.508C218.375 110.508 217.447 110.789 216.658 111.317C215.868 111.844 215.253 112.594 214.89 113.471C214.527 114.348 214.432 115.313 214.617 116.244C214.802 117.175 215.259 118.03 215.93 118.701C216.602 119.373 217.457 119.83 218.388 120.015C219.319 120.2 220.284 120.105 221.161 119.742C222.038 119.378 222.787 118.763 223.315 117.974C223.842 117.185 224.124 116.257 224.124 115.307C224.124 114.035 223.618 112.814 222.718 111.914C221.818 111.014 220.597 110.508 219.324 110.508ZM219.324 119.537C218.488 119.537 217.67 119.289 216.975 118.824C216.279 118.359 215.737 117.699 215.417 116.926C215.097 116.153 215.013 115.303 215.176 114.482C215.339 113.662 215.742 112.909 216.334 112.317C216.925 111.726 217.679 111.323 218.499 111.16C219.319 110.996 220.17 111.08 220.943 111.4C221.715 111.72 222.376 112.262 222.841 112.958C223.305 113.653 223.553 114.471 223.553 115.307C223.551 116.428 223.104 117.503 222.312 118.295C221.519 119.088 220.445 119.534 219.324 119.537Z" fill="#A5D1FF"/>
<path d="M184.429 152.307L184.134 151.58L225.225 134.85L234.156 138.794L245.161 122.92L252.547 127.572L260.563 116.055L261.202 116.507L252.764 128.634L245.377 123.992L234.431 139.777L225.215 135.706L184.429 152.307Z" fill="#A5D1FF"/>
<path d="M203.922 143.308H196.713V172.145H203.922V143.308Z" fill="#0061C9"/>
<path d="M215.606 147.783H208.397V172.145H215.606V147.783Z" fill="#0061C9"/>
<path d="M227.291 142.561H220.081V172.145H227.291V142.561Z" fill="#0061C9"/>
<path d="M238.975 150.763H231.766V172.145H238.975V150.763Z" fill="#0061C9"/>
<path d="M250.659 130.631H243.45V172.145H250.659V130.631Z" fill="#0061C9"/>
<path d="M262.343 126.657H255.134V172.155H262.343V126.657Z" fill="#0061C9"/>
<path d="M208.86 25.4534H199.467V96.8862H208.86V25.4534Z" fill="#C3D2D9"/>
<path d="M222.501 25.4534H213.108V96.8862H222.501V25.4534Z" fill="#C3D2D9"/>
<path d="M236.152 25.4534H226.76V96.8862H236.152V25.4534Z" fill="#C3D2D9"/>
<path d="M249.793 25.4534H240.401V96.8862H249.793V25.4534Z" fill="#C3D2D9"/>
<path d="M263.435 25.4534H254.042V96.8862H263.435V25.4534Z" fill="#C3D2D9"/>
<path d="M277.076 25.4534H267.684V96.8862H277.076V25.4534Z" fill="#C3D2D9"/>
<path d="M290.727 25.4534H281.335V96.8862H290.727V25.4534Z" fill="#C3D2D9"/>
<path d="M304.369 25.4534H294.976V96.8862H304.369V25.4534Z" fill="#C3D2D9"/>
<path d="M318.01 25.4534H308.618V96.8862H318.01V25.4534Z" fill="#C3D2D9"/>
<path d="M203.539 30.2333H202.358V96.4534H203.539V30.2333Z" fill="white"/>
<path d="M217.298 30.2333H216.118V96.4534H217.298V30.2333Z" fill="white"/>
<path d="M231.048 30.2333H229.867V96.4534H231.048V30.2333Z" fill="white"/>
<path d="M244.807 30.2333H243.627V96.4534H244.807V30.2333Z" fill="white"/>
<path d="M258.557 30.2333H257.376V96.4534H258.557V30.2333Z" fill="white"/>
<path d="M272.316 30.2333H271.136V96.4534H272.316V30.2333Z" fill="white"/>
<path d="M286.066 30.2333H284.885V96.4534H286.066V30.2333Z" fill="white"/>
<path d="M299.825 30.2333H298.645V96.4534H299.825V30.2333Z" fill="white"/>
<path d="M313.574 30.2333H312.394V96.4534H313.574V30.2333Z" fill="white"/>
<path d="M205.112 63.4368H200.785V96.4436H205.112V63.4368Z" fill="#429EFF"/>
<path d="M218.872 63.4368H214.544V96.4436H218.872V63.4368Z" fill="#429EFF"/>
<path d="M232.621 74.1473H228.294V96.4535H232.621V74.1473Z" fill="#429EFF"/>
<path d="M246.381 51.851H242.053V96.4534H246.381V51.851Z" fill="#429EFF"/>
<path d="M246.381 51.851H242.053V61.1747H246.381V51.851Z" fill="#A5D1FF"/>
<path d="M260.13 44.9663H255.803V96.4435H260.13V44.9663Z" fill="#429EFF"/>
<path d="M273.89 63.4368H269.562V96.4436H273.89V63.4368Z" fill="#429EFF"/>
<path d="M287.639 49.8839H283.312V96.4534H287.639V49.8839Z" fill="#429EFF"/>
<path d="M287.639 49.8839H283.312V53.0508H287.639V49.8839Z" fill="#A5D1FF"/>
<path d="M301.399 54.9884H297.071V96.4534H301.399V54.9884Z" fill="#429EFF"/>
<path d="M315.148 63.4368H310.821V96.4436H315.148V63.4368Z" fill="#429EFF"/>
<path d="M194.903 93.621H186.071V96.1781H194.903V93.621Z" fill="#C3D2D9"/>
<path d="M194.903 83.058H186.071V85.6151H194.903V83.058Z" fill="#C3D2D9"/>
<path d="M194.903 72.495H186.071V75.0521H194.903V72.495Z" fill="#C3D2D9"/>
<path d="M194.903 61.9222H186.071V64.4794H194.903V61.9222Z" fill="#C3D2D9"/>
<path d="M194.903 51.3593H186.071V53.9164H194.903V51.3593Z" fill="#C3D2D9"/>
<path d="M194.903 40.7963H186.071V43.3534H194.903V40.7963Z" fill="#C3D2D9"/>
<path d="M194.903 30.2333H186.071V32.7904H194.903V30.2333Z" fill="#C3D2D9"/>
<path d="M208.86 22.0701H199.467V23.0733H208.86V22.0701Z" fill="#A4B0BC"/>
<path d="M222.501 22.0701H213.108V23.0733H222.501V22.0701Z" fill="#A4B0BC"/>
<path d="M236.152 22.0701H226.76V23.0733H236.152V22.0701Z" fill="#A4B0BC"/>
<path d="M249.793 22.0701H240.401V23.0733H249.793V22.0701Z" fill="#A4B0BC"/>
<path d="M263.435 22.0701H254.042V23.0733H263.435V22.0701Z" fill="#A4B0BC"/>
<path d="M277.076 22.0701H267.684V23.0733H277.076V22.0701Z" fill="#A4B0BC"/>
<path d="M290.727 22.0701H281.335V23.0733H290.727V22.0701Z" fill="#A4B0BC"/>
<path d="M304.369 22.0701H294.976V23.0733H304.369V22.0701Z" fill="#A4B0BC"/>
<path d="M318.01 22.0701H308.618V23.0733H318.01V22.0701Z" fill="#A4B0BC"/>
<path d="M153.074 51.9493H0V144.115H153.074V51.9493Z" fill="#EEF7FF"/>
<path d="M128.25 107.341C140.896 107.341 151.147 97.09 151.147 84.4447C151.147 71.7995 140.896 61.5485 128.25 61.5485C115.605 61.5485 105.354 71.7995 105.354 84.4447C105.354 97.09 115.605 107.341 128.25 107.341Z" fill="#429EFF"/>
<path d="M128.162 61.5484C125.127 61.5559 122.125 62.1687 119.33 63.3508C116.535 64.533 114.004 66.2607 111.885 68.433L127.119 84.7791L137.83 63.6433C134.801 62.2428 131.499 61.5275 128.162 61.5484Z" fill="#429EFF"/>
<path d="M147.931 72.731C145.558 68.7515 142.037 65.5834 137.83 63.6433L127.119 84.7791L127.346 85.0151L147.931 72.731Z" fill="#2F4C6C"/>
<path d="M111.885 68.4331C108.347 72.0483 106.107 76.733 105.513 81.7558C104.918 86.7787 106.004 91.8569 108.6 96.1978L126.874 85.3102L127.139 84.7791L111.885 68.4331Z" fill="#7DA2C9"/>
<path d="M127.119 84.7791L126.854 85.3102L127.346 85.0151L127.119 84.7791Z" fill="#429EFF"/>
<path d="M143.072 101.951L127.336 85.0643L126.844 85.3594L117.137 104.518C121.208 106.777 125.872 107.741 130.505 107.283C135.139 106.824 139.522 104.964 143.072 101.951Z" fill="#2F4C6C"/>
<path d="M108.6 96.1977C110.677 99.6546 113.624 102.507 117.147 104.469L126.874 85.3102L108.6 96.1977Z" fill="#8FB3C4"/>
<path d="M147.931 72.7311L127.346 85.0152L143.082 101.902C147.212 98.4003 149.966 93.5477 150.856 88.2067C151.745 82.8658 150.712 77.3824 147.941 72.7311H147.931Z" fill="#7DA2C9"/>
<path d="M128.251 100.427C137.077 100.427 144.233 93.2714 144.233 84.4447C144.233 75.618 137.077 68.4625 128.251 68.4625C119.424 68.4625 112.268 75.618 112.268 84.4447C112.268 93.2714 119.424 100.427 128.251 100.427Z" fill="white"/>
<path d="M128.251 98.3024C125.51 98.3024 122.83 97.4897 120.552 95.967C118.273 94.4442 116.496 92.28 115.448 89.7478C114.399 87.2156 114.124 84.4293 114.659 81.7411C115.194 79.053 116.514 76.5838 118.452 74.6458C120.39 72.7077 122.859 71.3879 125.547 70.8532C128.235 70.3185 131.021 70.5929 133.554 71.6418C136.086 72.6906 138.25 74.4668 139.773 76.7457C141.296 79.0246 142.108 81.7039 142.108 84.4447C142.106 88.1192 140.645 91.6424 138.047 94.2407C135.448 96.8389 131.925 98.2998 128.251 98.3024ZM128.251 71.3737C125.665 71.3737 123.138 72.1403 120.989 73.5766C118.839 75.0128 117.164 77.0542 116.175 79.4426C115.185 81.831 114.926 84.4592 115.431 86.9947C115.935 89.5302 117.18 91.8592 119.008 93.6872C120.836 95.5152 123.165 96.7601 125.701 97.2644C128.236 97.7688 130.864 97.5099 133.253 96.5206C135.641 95.5313 137.682 93.856 139.119 91.7065C140.555 89.557 141.321 87.0298 141.321 84.4447C141.319 80.9788 139.941 77.6557 137.49 75.205C135.039 72.7543 131.716 71.3763 128.251 71.3737Z" fill="#429EFF"/>
<path d="M134.516 112.377H127.719V113.94H134.516V112.377Z" fill="#429EFF"/>
<path d="M137.791 116.557H127.719V118.12H137.791V116.557Z" fill="#8FB3C4"/>
<path d="M144.105 116.557H139.138V118.12H144.105V116.557Z" fill="#8FB3C4"/>
<path d="M147.675 116.557H144.498V118.12H147.675V116.557Z" fill="#8FB3C4"/>
<path d="M132.539 120.727H127.719V122.29H132.539V120.727Z" fill="#8FB3C4"/>
<path d="M146.19 120.727H133.827V122.29H146.19V120.727Z" fill="#8FB3C4"/>
<path d="M147.675 124.897H142.02V126.461H147.675V124.897Z" fill="#8FB3C4"/>
<path d="M141.469 124.897H127.719V126.461H141.469V124.897Z" fill="#8FB3C4"/>
<path d="M136.404 129.077H127.719V130.64H136.404V129.077Z" fill="#8FB3C4"/>
<path d="M141.469 129.077H137.751V130.64H141.469V129.077Z" fill="#8FB3C4"/>
<path d="M144.174 129.077H142.02V130.64H144.174V129.077Z" fill="#8FB3C4"/>
<path d="M35.0427 125.575H17.6246V126.647H35.0427V125.575Z" fill="#429EFF"/>
<path d="M38.5833 128.427H17.6246V129.5H38.5833V128.427Z" fill="#8FB3C4"/>
<path d="M38.5833 131.28H25.6403V132.352H38.5833V131.28Z" fill="#8FB3C4"/>
<path d="M23.7322 131.28H17.6246V132.352H23.7322V131.28Z" fill="#8FB3C4"/>
<path d="M38.5833 134.132H17.6246V135.204H38.5833V134.132Z" fill="#8FB3C4"/>
<path d="M38.5833 136.974H17.6246V138.046H38.5833V136.974Z" fill="#8FB3C4"/>
<path d="M18.018 66.9578H17.2312V118.199H18.018V66.9578Z" fill="#273136"/>
<path d="M32.5937 66.9578H31.8069V118.199H32.5937V66.9578Z" fill="#273136"/>
<path d="M47.1694 66.9578H46.3826V118.199H47.1694V66.9578Z" fill="#273136"/>
<path d="M61.7452 66.9578H60.9583V118.199H61.7452V66.9578Z" fill="#273136"/>
<path d="M76.311 66.9578H75.5242V118.199H76.311V66.9578Z" fill="#273136"/>
<path d="M90.8867 66.9578H90.0999V118.199H90.8867V66.9578Z" fill="#273136"/>
<path d="M19.9949 87.3165H15.2543V118.199H19.9949V87.3165Z" fill="#429EFF"/>
<path d="M34.7083 97.8992H29.9677V118.189H34.7083V97.8992Z" fill="#429EFF"/>
<path d="M49.166 88.9984H44.4254V118.189H49.166V88.9984Z" fill="#429EFF"/>
<path d="M63.722 77.8748H58.9815V118.199H63.722V77.8748Z" fill="#429EFF"/>
<path d="M78.2879 94.8995H73.5473V118.199H78.2879V94.8995Z" fill="#429EFF"/>
<path d="M93.3455 119.163H7.64192V119.822H93.3455V119.163Z" fill="#8FB3C4"/>
<path d="M95.5093 78.1207L90.4933 69.4264L85.4774 78.1207H88.1231V118.189H92.8636V78.1207H95.5093Z" fill="#429EFF"/>
<path d="M13.7692 115.721C13.7692 115.799 13.7537 115.877 13.7236 115.95C13.6934 116.023 13.6492 116.089 13.5935 116.145C13.5378 116.201 13.4717 116.245 13.3989 116.275C13.3261 116.305 13.2481 116.321 13.1693 116.321H8.25169C8.17291 116.321 8.0949 116.305 8.02211 116.275C7.94932 116.245 7.88318 116.201 7.82747 116.145C7.77176 116.089 7.72757 116.023 7.69742 115.95C7.66727 115.877 7.65175 115.799 7.65175 115.721C7.65174 115.642 7.66733 115.565 7.6976 115.492C7.72786 115.42 7.77221 115.355 7.82805 115.3C7.8839 115.245 7.95011 115.202 8.02285 115.173C8.09558 115.143 8.17338 115.129 8.25169 115.13H13.1693C13.2476 115.129 13.3254 115.143 13.3981 115.173C13.4709 115.202 13.5371 115.245 13.5929 115.3C13.6488 115.355 13.6931 115.42 13.7234 115.492C13.7536 115.565 13.7692 115.642 13.7692 115.721Z" fill="#8FB3C4"/>
<path d="M13.7692 107.144C13.7692 107.223 13.7537 107.301 13.7236 107.374C13.6934 107.447 13.6492 107.513 13.5935 107.569C13.5378 107.624 13.4717 107.668 13.3989 107.699C13.3261 107.729 13.2481 107.744 13.1693 107.744H8.25169C8.17291 107.744 8.0949 107.729 8.02211 107.699C7.94932 107.668 7.88318 107.624 7.82747 107.569C7.77176 107.513 7.72757 107.447 7.69742 107.374C7.66727 107.301 7.65175 107.223 7.65175 107.144C7.65174 107.066 7.66733 106.988 7.6976 106.916C7.72786 106.844 7.77221 106.778 7.82805 106.723C7.8839 106.669 7.95011 106.625 8.02285 106.596C8.09558 106.567 8.17338 106.553 8.25169 106.554H13.1693C13.2476 106.553 13.3254 106.567 13.3981 106.596C13.4709 106.625 13.5371 106.669 13.5929 106.723C13.6488 106.778 13.6931 106.844 13.7234 106.916C13.7536 106.988 13.7692 107.066 13.7692 107.144Z" fill="#8FB3C4"/>
<path d="M13.7692 98.6074C13.7692 98.6862 13.7537 98.7642 13.7236 98.837C13.6934 98.9098 13.6492 98.9759 13.5935 99.0316C13.5378 99.0873 13.4717 99.1315 13.3989 99.1617C13.3261 99.1918 13.2481 99.2073 13.1693 99.2073H8.25169C8.17291 99.2073 8.0949 99.1918 8.02211 99.1617C7.94932 99.1315 7.88318 99.0873 7.82747 99.0316C7.77176 98.9759 7.72757 98.9098 7.69742 98.837C7.66727 98.7642 7.65175 98.6862 7.65175 98.6074C7.65175 98.5286 7.66727 98.4506 7.69742 98.3778C7.72757 98.305 7.77176 98.2389 7.82747 98.1832C7.88318 98.1275 7.94932 98.0833 8.02211 98.0531C8.0949 98.023 8.17291 98.0074 8.25169 98.0074H13.1693C13.2481 98.0074 13.3261 98.023 13.3989 98.0531C13.4717 98.0833 13.5378 98.1275 13.5935 98.1832C13.6492 98.2389 13.6934 98.305 13.7236 98.3778C13.7537 98.4506 13.7692 98.5286 13.7692 98.6074Z" fill="#8FB3C4"/>
<path d="M13.7692 90.0704C13.7692 90.1492 13.7537 90.2272 13.7236 90.3C13.6934 90.3728 13.6492 90.4389 13.5935 90.4946C13.5378 90.5503 13.4717 90.5945 13.3989 90.6247C13.3261 90.6548 13.2481 90.6704 13.1693 90.6704H8.25169C8.17291 90.6704 8.0949 90.6548 8.02211 90.6247C7.94932 90.5945 7.88318 90.5503 7.82747 90.4946C7.77176 90.4389 7.72757 90.3728 7.69742 90.3C7.66727 90.2272 7.65175 90.1492 7.65175 90.0704C7.65175 89.9916 7.66727 89.9136 7.69742 89.8408C7.72757 89.768 7.77176 89.7019 7.82747 89.6462C7.88318 89.5905 7.94932 89.5463 8.02211 89.5161C8.0949 89.486 8.17291 89.4705 8.25169 89.4705H13.1693C13.2481 89.4705 13.3261 89.486 13.3989 89.5161C13.4717 89.5463 13.5378 89.5905 13.5935 89.6462C13.6492 89.7019 13.6934 89.768 13.7236 89.8408C13.7537 89.9136 13.7692 89.9916 13.7692 90.0704Z" fill="#8FB3C4"/>
<path d="M13.7692 81.5335C13.7692 81.6123 13.7537 81.6903 13.7236 81.7631C13.6934 81.8359 13.6492 81.9021 13.5935 81.9578C13.5378 82.0135 13.4717 82.0577 13.3989 82.0878C13.3261 82.118 13.2481 82.1335 13.1693 82.1335H8.25169C8.17291 82.1335 8.0949 82.118 8.02211 82.0878C7.94932 82.0577 7.88318 82.0135 7.82747 81.9578C7.77176 81.9021 7.72757 81.8359 7.69742 81.7631C7.66727 81.6903 7.65175 81.6123 7.65175 81.5335C7.65175 81.4548 7.66727 81.3767 7.69742 81.304C7.72757 81.2312 7.77176 81.165 7.82747 81.1093C7.88318 81.0536 7.94932 81.0094 8.02211 80.9793C8.0949 80.9491 8.17291 80.9336 8.25169 80.9336H13.1693C13.2481 80.9336 13.3261 80.9491 13.3989 80.9793C13.4717 81.0094 13.5378 81.0536 13.5935 81.1093C13.6492 81.165 13.6934 81.2312 13.7236 81.304C13.7537 81.3767 13.7692 81.4548 13.7692 81.5335Z" fill="#8FB3C4"/>
<path d="M13.7692 72.9966C13.7692 73.0749 13.7536 73.1524 13.7234 73.2247C13.6931 73.2969 13.6488 73.3624 13.5929 73.4173C13.5371 73.4723 13.4709 73.5155 13.3981 73.5446C13.3254 73.5737 13.2476 73.588 13.1693 73.5867H8.25169C8.17338 73.588 8.09558 73.5737 8.02285 73.5446C7.95011 73.5155 7.8839 73.4723 7.82805 73.4173C7.77221 73.3624 7.72786 73.2969 7.6976 73.2247C7.66733 73.1524 7.65174 73.0749 7.65175 72.9966C7.65175 72.9178 7.66727 72.8398 7.69742 72.767C7.72757 72.6942 7.77176 72.628 7.82747 72.5723C7.88318 72.5166 7.94932 72.4724 8.02211 72.4423C8.0949 72.4121 8.17291 72.3966 8.25169 72.3966H13.1693C13.2481 72.3966 13.3261 72.4121 13.3989 72.4423C13.4717 72.4724 13.5378 72.5166 13.5935 72.5723C13.6492 72.628 13.6934 72.6942 13.7236 72.767C13.7537 72.8398 13.7692 72.9178 13.7692 72.9966Z" fill="#8FB3C4"/>
<path d="M13.7692 64.4597C13.7692 64.538 13.7536 64.6156 13.7234 64.6878C13.6931 64.7601 13.6488 64.8255 13.5929 64.8805C13.5371 64.9354 13.4709 64.9787 13.3981 65.0077C13.3254 65.0368 13.2476 65.0511 13.1693 65.0498H8.25169C8.17338 65.0511 8.09558 65.0368 8.02285 65.0077C7.95011 64.9787 7.8839 64.9354 7.82805 64.8805C7.77221 64.8255 7.72786 64.7601 7.6976 64.6878C7.66733 64.6156 7.65174 64.538 7.65175 64.4597C7.65175 64.3809 7.66727 64.3029 7.69742 64.2301C7.72757 64.1573 7.77176 64.0912 7.82747 64.0355C7.88318 63.9798 7.94932 63.9356 8.02211 63.9054C8.0949 63.8753 8.17291 63.8597 8.25169 63.8597H13.1693C13.2481 63.8597 13.3261 63.8753 13.3989 63.9054C13.4717 63.9356 13.5378 63.9798 13.5935 64.0355C13.6492 64.0912 13.6934 64.1573 13.7236 64.2301C13.7537 64.3029 13.7692 64.3809 13.7692 64.4597Z" fill="#8FB3C4"/>
<path d="M500 52.1166H346.926V143.711H500V52.1166Z" fill="#EEF7FF"/>
<path d="M374.877 99.04H361.727V136.05H374.877V99.04Z" fill="#C3D2D9"/>
<path d="M391.43 110.292H378.28V136.06H391.43V110.292Z" fill="#C3D2D9"/>
<path d="M407.992 84.5234H394.842V136.06H407.992V84.5234Z" fill="#C3D2D9"/>
<path d="M424.554 99.04H411.405V136.05H424.554V99.04Z" fill="#C3D2D9"/>
<path d="M441.107 84.5234H427.957V136.06H441.107V84.5234Z" fill="#C3D2D9"/>
<path d="M457.669 88.6149H444.52V136.06H457.669V88.6149Z" fill="#C3D2D9"/>
<path d="M474.232 78.3567H461.082V136.06H474.232V78.3567Z" fill="#C3D2D9"/>
<path d="M374.877 132.352H361.727V136.06H374.877V132.352Z" fill="#429EFF"/>
<path d="M391.43 121.238H378.28V136.06H391.43V121.238Z" fill="#429EFF"/>
<path d="M407.992 128.654H394.842V136.06H407.992V128.654Z" fill="#429EFF"/>
<path d="M424.554 121.238H411.405V136.06H424.554V121.238Z" fill="#429EFF"/>
<path d="M441.107 112.337H427.957V136.06H441.107V112.337Z" fill="#429EFF"/>
<path d="M457.669 121.238H444.52V136.06H457.669V121.238Z" fill="#429EFF"/>
<path d="M474.232 99.04H461.082V136.05H474.232V99.04Z" fill="#429EFF"/>
<path d="M490.371 56.6702H469.599V59.7289H490.371V56.6702Z" fill="#A4B0BC"/>
<path d="M480.3 63.427H469.599V64.6761H480.3V63.427Z" fill="#C3D2D9"/>
<path d="M488.886 63.427H482.051V64.6761H488.886V63.427Z" fill="#C3D2D9"/>
<path d="M485.021 66.7415V67.5774H484.323V66.7415H473.268V67.9905H489.732V66.7415H485.021Z" fill="#C3D2D9"/>
<path d="M472.393 66.7512H469.599V68.0003H472.393V66.7512Z" fill="#C3D2D9"/>
<path d="M492.987 66.7512H490.371V68.0003H492.987V66.7512Z" fill="#C3D2D9"/>
<path d="M372.438 73.6359H364.363C363.657 73.6359 363.085 74.2083 363.085 74.9144V74.9439C363.085 75.6501 363.657 76.2225 364.363 76.2225H372.438C373.144 76.2225 373.717 75.6501 373.717 74.9439V74.9144C373.717 74.2083 373.144 73.6359 372.438 73.6359Z" fill="#A4B0BC"/>
<path d="M388.892 73.6359H380.818C380.111 73.6359 379.539 74.2083 379.539 74.9144V74.9439C379.539 75.6501 380.111 76.2225 380.818 76.2225H388.892C389.598 76.2225 390.171 75.6501 390.171 74.9439V74.9144C390.171 74.2083 389.598 73.6359 388.892 73.6359Z" fill="#A4B0BC"/>
<path d="M405.455 73.6359H397.38C396.674 73.6359 396.101 74.2083 396.101 74.9144V74.9439C396.101 75.6501 396.674 76.2225 397.38 76.2225H405.455C406.161 76.2225 406.733 75.6501 406.733 74.9439V74.9144C406.733 74.2083 406.161 73.6359 405.455 73.6359Z" fill="#A4B0BC"/>
<path d="M422.017 73.6359H413.942C413.236 73.6359 412.664 74.2083 412.664 74.9144V74.9439C412.664 75.6501 413.236 76.2225 413.942 76.2225H422.017C422.723 76.2225 423.296 75.6501 423.296 74.9439V74.9144C423.296 74.2083 422.723 73.6359 422.017 73.6359Z" fill="#A4B0BC"/>
<path d="M438.57 73.6359H430.495C429.789 73.6359 429.216 74.2083 429.216 74.9144V74.9439C429.216 75.6501 429.789 76.2225 430.495 76.2225H438.57C439.276 76.2225 439.848 75.6501 439.848 74.9439V74.9144C439.848 74.2083 439.276 73.6359 438.57 73.6359Z" fill="#A4B0BC"/>
<path d="M455.132 73.6359H447.057C446.351 73.6359 445.779 74.2083 445.779 74.9144V74.9439C445.779 75.6501 446.351 76.2225 447.057 76.2225H455.132C455.838 76.2225 456.411 75.6501 456.411 74.9439V74.9144C456.411 74.2083 455.838 73.6359 455.132 73.6359Z" fill="#A4B0BC"/>
<path d="M471.399 73.6359H463.325C462.619 73.6359 462.046 74.2083 462.046 74.9144V74.9439C462.046 75.6501 462.619 76.2225 463.325 76.2225H471.399C472.105 76.2225 472.678 75.6501 472.678 74.9439V74.9144C472.678 74.2083 472.105 73.6359 471.399 73.6359Z" fill="#A4B0BC"/>
<path d="M168.644 169.371C171.063 169.863 172.027 171.81 174.456 176.885C177.515 183.288 181.99 194.825 182.993 194.923C184.419 195.061 202.604 187.97 202.604 187.97L205.437 191.166C205.437 191.166 195.907 203.903 180.849 207.945C178.144 208.673 174.722 205.604 171.466 201.414C170.827 200.598 170.197 199.732 169.578 198.847C166.223 193.874 163.216 188.676 160.579 183.288L168.663 169.371H168.644Z" fill="#409CFF"/>
<path opacity="0.2" d="M169.401 177.495C170.395 181.262 171.63 184.961 173.099 188.57C173.543 189.631 173.686 190.795 173.512 191.933C173.018 194.871 172.258 197.758 171.24 200.559C170.719 202.083 168.358 201.975 168.289 203.578C167.65 202.771 167.021 201.906 166.401 201.021L165.014 195.523L169.401 177.495Z" fill="black"/>
<path d="M179.983 197.421C179.579 197.302 179.238 197.03 179.032 196.662C178.826 196.294 178.772 195.861 178.882 195.454L184.97 169.883C185.146 169.292 185.503 168.772 185.989 168.395C186.476 168.017 187.069 167.802 187.684 167.778L207.168 167.375C207.376 167.335 207.589 167.335 207.797 167.375C207.999 167.431 208.187 167.527 208.352 167.657C208.516 167.787 208.653 167.947 208.756 168.13C208.858 168.313 208.923 168.514 208.948 168.722C208.972 168.93 208.956 169.14 208.899 169.342L202.821 194.913C202.646 195.505 202.291 196.028 201.804 196.407C201.317 196.786 200.723 197.004 200.106 197.028L180.623 197.431C180.411 197.463 180.195 197.459 179.983 197.421Z" fill="#303436"/>
<path opacity="0.2" d="M179.983 197.421C179.579 197.302 179.238 197.03 179.032 196.662C178.826 196.294 178.772 195.861 178.882 195.454L184.97 169.883C185.146 169.292 185.503 168.772 185.989 168.395C186.476 168.017 187.069 167.802 187.684 167.778L207.168 167.375C207.376 167.335 207.589 167.335 207.797 167.375C207.999 167.431 208.187 167.527 208.352 167.657C208.516 167.787 208.653 167.947 208.756 168.13C208.858 168.313 208.923 168.514 208.948 168.722C208.972 168.93 208.956 169.14 208.899 169.342L202.821 194.913C202.646 195.505 202.291 196.028 201.804 196.407C201.317 196.786 200.723 197.004 200.106 197.028L180.623 197.431C180.411 197.463 180.195 197.459 179.983 197.421Z" fill="white"/>
<path d="M181.951 197.352C181.748 197.297 181.559 197.202 181.393 197.072C181.228 196.943 181.089 196.783 180.986 196.6C180.883 196.417 180.816 196.216 180.791 196.007C180.766 195.799 180.782 195.587 180.839 195.385L186.927 169.814C187.101 169.223 187.455 168.702 187.94 168.323C188.425 167.944 189.017 167.726 189.632 167.699L209.125 167.296C209.333 167.256 209.547 167.256 209.755 167.296C209.956 167.353 210.144 167.449 210.309 167.578C210.473 167.708 210.611 167.869 210.713 168.051C210.815 168.234 210.881 168.435 210.905 168.643C210.93 168.851 210.913 169.062 210.856 169.263L204.768 194.835C204.594 195.425 204.24 195.947 203.755 196.326C203.27 196.705 202.679 196.923 202.063 196.949L182.57 197.343C182.367 197.39 182.155 197.393 181.951 197.352Z" fill="#303436"/>
<path opacity="0.3" d="M181.951 197.352C181.748 197.297 181.559 197.202 181.393 197.072C181.228 196.943 181.089 196.783 180.986 196.6C180.883 196.417 180.816 196.216 180.791 196.007C180.766 195.799 180.782 195.587 180.839 195.385L186.927 169.814C187.101 169.223 187.455 168.702 187.94 168.323C188.425 167.944 189.017 167.726 189.632 167.699L209.125 167.296C209.333 167.256 209.547 167.256 209.755 167.296C209.956 167.353 210.144 167.449 210.309 167.578C210.473 167.708 210.611 167.869 210.713 168.051C210.815 168.234 210.881 168.435 210.905 168.643C210.93 168.851 210.913 169.062 210.856 169.263L204.768 194.835C204.594 195.425 204.24 195.947 203.755 196.326C203.27 196.705 202.679 196.923 202.063 196.949L182.57 197.343C182.367 197.39 182.155 197.393 181.951 197.352Z" fill="white"/>
<path opacity="0.2" d="M198.405 180.515C198.387 180.323 198.332 180.137 198.243 179.967C198.153 179.797 198.031 179.646 197.883 179.524C197.735 179.401 197.564 179.309 197.38 179.253C197.196 179.197 197.003 179.178 196.811 179.197C196.251 179.226 195.713 179.431 195.277 179.785C194.84 180.138 194.527 180.621 194.382 181.164C194.331 181.346 194.315 181.536 194.333 181.724C194.351 181.915 194.407 182.099 194.498 182.268C194.588 182.436 194.711 182.585 194.859 182.706C195.007 182.827 195.178 182.917 195.361 182.971C195.544 183.025 195.736 183.043 195.926 183.023C196.487 182.994 197.025 182.788 197.461 182.434C197.897 182.081 198.211 181.598 198.356 181.056C198.405 180.88 198.422 180.696 198.405 180.515Z" fill="white"/>
<path d="M206.155 183.524C205.771 183.524 204.139 184.301 203.372 183.76C202.604 183.219 203.372 182.777 203.372 182.777C204.778 182.432 206.322 180.682 207.178 181.183C208.033 181.685 209.45 182.314 209.233 183.15C209.005 183.892 208.723 184.615 208.387 185.314C208.499 185.49 208.564 185.691 208.578 185.899C208.592 186.107 208.553 186.315 208.466 186.504C208.384 186.716 208.252 186.905 208.08 187.054C207.909 187.203 207.704 187.308 207.483 187.36C207.609 187.49 207.709 187.644 207.775 187.813C207.841 187.982 207.872 188.162 207.866 188.343C207.797 188.943 206.204 189.75 206.204 189.75C206.204 189.75 206.509 190.733 206.145 191.068C205.838 191.319 205.476 191.496 205.089 191.585C204.701 191.674 204.299 191.672 203.912 191.579C202.929 191.353 202.329 191.028 202.398 190.084C202.467 189.14 204.148 189.101 204.148 189.101C204.148 189.101 200.982 188.117 201.65 187.537C202.319 186.957 204.847 187.016 204.847 187.016C204.847 187.016 200.568 186.16 201.247 185.285C201.926 184.409 206.165 184.645 206.165 184.645C206.165 184.645 206.538 183.583 206.155 183.524Z" fill="#E9B376"/>
<path d="M169.745 335.202L167.926 350.712L173.482 351.479L179.334 336.903L169.745 335.202Z" fill="#E9B376"/>
<path d="M177.908 347.683C177.997 346.699 177.908 345.952 176.817 345.893L175.253 345.814C174.698 345.881 174.177 346.114 173.758 346.483C170.158 348.775 168.683 345.814 167.286 345.814C165.496 345.814 166.647 351.066 166.568 351.342L164.601 357.439C164.424 357.951 164.768 359.052 165.368 359.2C165.476 359.214 165.585 359.214 165.693 359.2H186.455C189.76 359.2 189.799 355.492 188.422 355.266C184.607 354.688 180.988 353.2 177.869 350.928C177.807 349.847 177.82 348.763 177.908 347.683Z" fill="#409CFF"/>
<path opacity="0.4" d="M186.465 359.239H165.703C165.595 359.254 165.486 359.254 165.378 359.239C164.975 359.141 164.69 358.6 164.601 358.108V357.646H189.11C188.894 358.157 188.522 358.586 188.047 358.873C187.571 359.159 187.018 359.287 186.465 359.239Z" fill="white"/>
<path d="M180.692 352.748C180.159 353.199 179.715 353.746 179.384 354.361C179.359 354.402 179.343 354.448 179.336 354.496C179.329 354.543 179.332 354.592 179.344 354.638C179.355 354.685 179.376 354.729 179.405 354.767C179.434 354.806 179.47 354.838 179.511 354.863C179.553 354.887 179.598 354.903 179.646 354.91C179.694 354.917 179.742 354.914 179.789 354.903C179.835 354.891 179.879 354.87 179.917 354.841C179.956 354.812 179.988 354.776 180.013 354.735C180.091 354.593 180.176 354.455 180.269 354.322C180.309 354.252 180.355 354.186 180.406 354.125V354.066C180.619 353.811 180.852 353.574 181.105 353.358C181.173 353.288 181.211 353.195 181.211 353.097C181.211 353 181.173 352.906 181.105 352.837C181.033 352.773 180.94 352.738 180.844 352.738C180.748 352.738 180.655 352.773 180.583 352.837L180.692 352.748Z" fill="#303436"/>
<path d="M178.784 351.656C178.292 352.09 177.87 352.598 177.535 353.161C177.5 353.245 177.497 353.338 177.526 353.423C177.554 353.509 177.613 353.581 177.691 353.627C177.769 353.672 177.861 353.688 177.95 353.671C178.038 353.654 178.118 353.606 178.174 353.535C178.248 353.402 178.33 353.274 178.42 353.151L178.557 352.964C178.589 352.936 178.615 352.903 178.636 352.866C178.835 352.63 179.052 352.409 179.285 352.207C179.353 352.137 179.391 352.044 179.391 351.946C179.391 351.849 179.353 351.756 179.285 351.686C179.214 351.62 179.121 351.584 179.025 351.584C178.928 351.584 178.835 351.62 178.764 351.686L178.784 351.656Z" fill="#303436"/>
<path d="M177.505 350.673C176.999 350.928 176.583 351.333 176.315 351.833C176.267 351.917 176.254 352.016 176.278 352.11C176.302 352.203 176.361 352.284 176.443 352.335C176.528 352.383 176.629 352.396 176.724 352.373C176.819 352.349 176.902 352.29 176.954 352.207C177.015 352.085 177.087 351.97 177.171 351.863L177.112 351.932C177.238 351.779 177.379 351.641 177.535 351.519L177.456 351.578C177.588 351.476 177.73 351.388 177.879 351.312C177.924 351.288 177.964 351.254 177.996 351.214C178.028 351.173 178.051 351.126 178.064 351.077C178.077 351.027 178.079 350.975 178.071 350.924C178.063 350.873 178.044 350.824 178.016 350.781C177.965 350.699 177.886 350.64 177.793 350.614C177.7 350.589 177.6 350.599 177.515 350.643L177.505 350.673Z" fill="#303436"/>
<path d="M177.682 348.686C177.094 348.696 176.512 348.806 175.961 349.011C175.869 349.04 175.792 349.103 175.745 349.187C175.697 349.271 175.683 349.369 175.705 349.463C175.718 349.51 175.739 349.554 175.769 349.592C175.799 349.63 175.836 349.662 175.878 349.686C175.92 349.71 175.966 349.725 176.014 349.731C176.062 349.736 176.111 349.732 176.158 349.719C176.414 349.624 176.677 349.548 176.944 349.493H177.131H177.22H177.643C177.74 349.493 177.834 349.455 177.904 349.387C177.973 349.319 178.014 349.226 178.016 349.129C178.014 349.03 177.974 348.937 177.904 348.867C177.835 348.798 177.741 348.757 177.643 348.755L177.682 348.686Z" fill="#303436"/>
<g opacity="0.3">
<path d="M171.84 349.522C171.847 349.802 171.78 350.078 171.645 350.324C171.51 350.569 171.313 350.774 171.073 350.919C170.728 351.049 170.357 351.096 169.991 351.056L166.686 350.968C166.519 349.532 166.047 346.05 167.414 346.05C168.486 346.05 169.617 348.066 171.869 347.476C171.83 348.184 171.86 349.158 171.84 349.522Z" fill="black"/>
</g>
<path d="M186.937 287.02C185.953 278.04 173.443 230.428 173.443 230.428L157.54 230.035L133.089 229.346C133.089 229.346 131.673 242.132 131.663 258.852C131.663 258.852 132.844 330.225 133.807 347.211L147.242 347.732C148.767 334.376 150.793 292.744 150.793 292.744C151.707 285.19 152.543 262.923 153.202 256.57C153.478 255.163 153.743 253.737 154.009 252.331C156.615 259.216 168.585 288.721 169.509 292.96L164.591 349.089L179.039 348.539C179.039 348.539 187.92 295.989 186.937 287.02Z" fill="#303436"/>
<path d="M165.034 232.277C165.828 234.596 167.18 236.684 168.97 238.358C170.761 240.031 172.935 241.24 175.302 241.876C175.353 241.892 175.395 241.927 175.42 241.974C175.445 242.021 175.45 242.076 175.435 242.127C175.419 242.178 175.384 242.22 175.337 242.245C175.29 242.27 175.235 242.275 175.184 242.26C172.753 241.609 170.519 240.373 168.677 238.658C166.836 236.943 165.443 234.803 164.621 232.425C164.542 232.169 164.955 232.07 165.034 232.316V232.277Z" fill="black"/>
<path d="M152.848 232.946C153.143 236.949 153.419 240.971 153.704 244.974C153.704 245.23 154.146 245.23 154.127 244.974C153.979 242.919 153.832 240.853 153.694 238.798C154.737 239.555 155.956 238.631 156.3 237.608C156.768 235.877 156.737 234.05 156.212 232.336C156.143 232.09 155.73 232.198 155.799 232.444C156.117 233.599 156.237 234.8 156.153 235.995C156.146 236.635 156.009 237.268 155.75 237.854C155.68 238.026 155.573 238.181 155.436 238.308C155.299 238.434 155.135 238.528 154.958 238.584C154.78 238.639 154.592 238.655 154.407 238.629C154.223 238.603 154.046 238.536 153.891 238.434C153.858 238.411 153.818 238.398 153.778 238.398C153.737 238.398 153.698 238.411 153.665 238.434C153.537 236.614 153.409 234.795 153.271 232.975C153.261 232.69 152.838 232.69 152.848 232.946Z" fill="black"/>
<path d="M142.885 232.208C142.844 234.836 141.804 237.35 139.978 239.24C138.152 241.131 135.675 242.256 133.05 242.388C132.785 242.388 132.785 242.014 133.05 241.994C135.57 241.862 137.945 240.778 139.696 238.962C141.447 237.145 142.443 234.731 142.482 232.208C142.482 232.153 142.504 232.101 142.542 232.062C142.581 232.023 142.634 232.002 142.689 232.002C142.743 232.002 142.796 232.023 142.835 232.062C142.873 232.101 142.895 232.153 142.895 232.208H142.885Z" fill="black"/>
<path d="M144.911 335.949L142.551 351.873L136.896 352.138L135.056 336.785L144.911 335.949Z" fill="#303436"/>
<path d="M132.076 359.269H144.734C144.937 358.689 144.937 358.058 144.734 357.479C144.685 357.282 144.616 357.056 144.538 356.82C144.42 356.456 144.282 356.023 144.134 355.541C143.66 353.429 143.331 351.286 143.151 349.129C143.151 349.129 140.761 346.926 138.302 347.958C136.138 348.863 136.473 350.014 136.473 350.014C136.473 350.014 136.473 352.964 134.801 354.322C133.791 354.959 132.934 355.812 132.293 356.82C132.202 357.018 132.133 357.226 132.086 357.439C132.083 357.465 132.083 357.492 132.086 357.518C131.967 358.095 131.964 358.69 132.076 359.269Z" fill="#409CFF"/>
<path opacity="0.4" d="M144.695 357.479C144.897 358.058 144.897 358.689 144.695 359.269H132.076C131.939 358.681 131.923 358.073 132.027 357.479H144.695Z" fill="white"/>
<path d="M137.122 352.069C137.459 351.825 137.87 351.704 138.285 351.728C138.701 351.751 139.096 351.917 139.404 352.197C139.581 352.345 139.846 352.109 139.669 351.951C139.287 351.609 138.798 351.409 138.286 351.385C137.773 351.362 137.268 351.517 136.856 351.824C136.669 351.961 136.935 352.197 137.122 352.069Z" fill="#303436"/>
<path d="M136.758 353.151C137.096 352.906 137.509 352.785 137.926 352.808C138.344 352.832 138.74 352.998 139.05 353.279C139.217 353.436 139.482 353.191 139.315 353.033C138.931 352.694 138.443 352.496 137.931 352.473C137.419 352.45 136.915 352.602 136.502 352.905C136.306 353.043 136.571 353.279 136.758 353.151Z" fill="#303436"/>
<path d="M136.404 354.145C136.741 353.9 137.152 353.779 137.567 353.803C137.983 353.826 138.378 353.992 138.686 354.272C138.863 354.43 139.128 354.184 138.951 354.036C138.57 353.692 138.081 353.491 137.568 353.467C137.054 353.444 136.549 353.6 136.138 353.909C135.951 354.036 136.217 354.282 136.404 354.145Z" fill="#303436"/>
<path d="M173.335 226.71C175.587 230.408 175.587 233.388 173.443 234.146C173.443 234.146 153.92 237.45 133.955 235.129C129.146 235.395 131.506 230.939 131.506 230.939L131.398 169.322C146.564 166.106 164.926 169.076 168.644 169.322L173.335 226.71Z" fill="#409CFF"/>
<path opacity="0.2" d="M131.457 205.221V184.822C131.457 184.822 128.506 205.712 129.972 210.895L131.457 205.221Z" fill="black"/>
<path d="M159.035 142.108C159.035 142.108 166.401 137.958 161.985 133.512C158.533 130.001 155.484 130.513 150.862 131.349C139.551 133.414 140.21 138.125 140.21 138.125L159.035 142.108Z" fill="#303436"/>
<path d="M144.626 165.88C144.626 165.88 145.226 161.542 142.659 154.019L143.052 153.802C142.698 152.75 142.334 151.786 141.99 150.94L152.691 156.93C152.553 159.379 153.674 164.041 154.245 166.008C154.245 166.008 155.71 169.558 150.93 169.942C147.459 170.129 144.626 165.88 144.626 165.88Z" fill="#E9B376"/>
<path opacity="0.2" d="M153.045 160.284L146.987 159.192C147.606 161.041 149.357 163.175 153.537 163.175C153.297 162.226 153.132 161.259 153.045 160.284Z" fill="black"/>
<path d="M141.715 145.826C142.698 152.396 143.131 156.123 146.77 159.192C152.248 163.815 159.969 160.176 160.972 153.389C161.867 147.311 160.097 137.574 153.389 135.578C151.902 135.136 150.326 135.078 148.811 135.41C147.295 135.743 145.888 136.454 144.722 137.478C143.556 138.502 142.668 139.804 142.142 141.264C141.616 142.724 141.469 144.294 141.715 145.826Z" fill="#E9B376"/>
<path d="M140.171 137.948C148.245 130.168 156.458 134.535 159.605 138.794L145.511 138.961C144.901 138.961 144.528 139.591 144.685 140.761C144.685 140.761 149.603 149.524 142.836 154.442C140.426 153.517 139.885 149.524 139 147.183C137.594 143.711 135.833 138.607 140.171 137.948Z" fill="#303436"/>
<path d="M139.59 151.57C139.91 152.329 140.377 153.018 140.964 153.595C141.552 154.173 142.248 154.627 143.013 154.933C145.078 155.74 145.619 153.517 145.256 151.452C144.921 149.593 144.164 147.36 142 147.439C141.527 147.464 141.067 147.607 140.662 147.854C140.258 148.101 139.921 148.445 139.682 148.855C139.443 149.264 139.309 149.727 139.293 150.201C139.278 150.675 139.38 151.145 139.59 151.57Z" fill="#E9B376"/>
<path d="M151.924 147.065C151.993 147.744 152.396 148.255 152.838 148.216C153.281 148.177 153.596 147.586 153.527 146.908C153.458 146.229 153.065 145.718 152.622 145.767C152.179 145.816 151.865 146.396 151.924 147.065Z" fill="#303436"/>
<path d="M158.248 146.751C158.307 147.429 158.71 147.941 159.153 147.901C159.595 147.862 159.91 147.272 159.851 146.593C159.792 145.915 159.379 145.403 158.936 145.442C158.494 145.482 158.189 146.072 158.248 146.751Z" fill="#303436"/>
<path d="M155.799 146.259C155.799 146.259 158.238 149.426 159.044 150.734C158.697 151.019 158.293 151.228 157.859 151.347C157.425 151.465 156.971 151.491 156.527 151.422L155.799 146.259Z" fill="#D58745"/>
<path d="M149.406 143.849C149.46 143.867 149.517 143.87 149.573 143.858C149.628 143.846 149.679 143.819 149.721 143.78C150.005 143.499 150.352 143.288 150.733 143.165C151.114 143.042 151.518 143.01 151.914 143.072C151.997 143.09 152.084 143.076 152.157 143.032C152.231 142.988 152.284 142.918 152.307 142.836C152.325 142.754 152.311 142.668 152.267 142.597C152.223 142.525 152.153 142.473 152.071 142.452C151.572 142.368 151.06 142.403 150.576 142.553C150.093 142.703 149.651 142.965 149.288 143.318C149.229 143.379 149.196 143.46 149.196 143.544C149.196 143.629 149.229 143.71 149.288 143.77C149.32 143.806 149.361 143.833 149.406 143.849Z" fill="#303436"/>
<path d="M154.491 153.773C153.949 153.801 153.407 153.717 152.899 153.526C152.391 153.334 151.929 153.04 151.54 152.661" stroke="#303436" stroke-width="0.75" stroke-linecap="round" stroke-linejoin="round"/>
<path opacity="0.2" d="M140.938 149.603C141.066 149.401 141.252 149.242 141.471 149.146C141.689 149.05 141.932 149.02 142.167 149.062C142.638 149.162 143.061 149.419 143.367 149.79C143.751 150.221 144.013 150.747 144.124 151.314" stroke="black" stroke-width="0.5" stroke-linecap="round" stroke-linejoin="round"/>
<path d="M160.667 143.328C160.729 143.308 160.784 143.271 160.825 143.22C160.883 143.161 160.916 143.081 160.916 142.998C160.916 142.916 160.883 142.836 160.825 142.777C160.444 142.448 159.989 142.216 159.5 142.099C159.01 141.983 158.5 141.986 158.012 142.108C157.932 142.135 157.865 142.193 157.826 142.268C157.788 142.343 157.78 142.431 157.805 142.512C157.816 142.552 157.836 142.589 157.862 142.621C157.888 142.654 157.92 142.681 157.957 142.7C157.994 142.719 158.035 142.731 158.076 142.734C158.118 142.737 158.159 142.732 158.199 142.718C158.586 142.623 158.991 142.623 159.378 142.719C159.765 142.815 160.123 143.004 160.421 143.269C160.456 143.295 160.496 143.313 160.538 143.323C160.581 143.333 160.624 143.335 160.667 143.328Z" fill="#303436"/>
<path opacity="0.3" d="M137.997 144.429L146.082 144.636C145.873 143.701 145.583 142.786 145.216 141.902H137.456C137.544 142.761 137.726 143.609 137.997 144.429Z" fill="white"/>
<g opacity="0.2">
<path d="M151.048 151.127C150.758 151.445 150.534 151.817 150.389 152.223C150.244 152.628 150.181 153.058 150.203 153.488C149.971 153.061 149.894 152.567 149.986 152.091C150.163 151.383 151.048 151.127 151.048 151.127Z" fill="black"/>
</g>
<path d="M154.019 164.1L158.189 167.847L151.225 176.285L141.174 167.808L144.154 163.431L150.439 168.673L154.019 164.1Z" fill="#409CFF"/>
<path opacity="0.8" d="M154.019 164.1L158.189 167.847L151.225 176.285L141.174 167.808L144.154 163.431L150.439 168.673L154.019 164.1Z" fill="white"/>
<path opacity="0.2" d="M131.663 213.895V221.134C131.663 221.134 147.685 216.452 157.127 208.014C163.844 202.004 162.801 199.467 162.801 199.467L155.179 200.205L131.663 213.895Z" fill="black"/>
<path opacity="0.2" d="M136.709 186.583L135.725 203.617C132.883 205.427 130.995 202.919 130.562 200.323V195.405L136.709 186.583Z" fill="black"/>
<path d="M136.709 187.684C136.709 187.684 131.555 201.119 132.844 201.936C134.132 202.752 155.071 198.778 155.071 198.778L158.307 203.421C157.608 206.479 122.182 225.707 119.291 209.617C117.786 201.247 123.618 181.478 125.821 175.331C126.441 173.61 129.549 169.942 131.299 169.43C131.878 169.236 132.494 169.178 133.099 169.263C139.797 170.502 136.709 187.684 136.709 187.684Z" fill="#409CFF"/>
<path d="M158.612 203.873C161.041 204.07 161.129 200.411 162.388 200.264C163.124 200.198 163.844 200.015 164.523 199.723C164.523 199.723 163.726 201.916 164.523 201.749C165.319 201.582 167.886 201.444 168.516 199.349C169.145 197.254 166.863 192.779 166.342 192.159C165.821 191.54 163.096 191.727 163.096 191.727C163.096 191.727 166.047 190.969 167.65 190.743C169.253 190.517 169.617 188.678 167.316 189.081C166.391 189.248 159.094 189.307 158.297 190.065C157.5 190.822 154.579 198.198 154.579 198.198C153.488 198.808 156.251 205.004 158.612 203.873Z" fill="#E9B376"/>
<g opacity="0.3">
<path d="M163.067 191.451C162.316 191.402 161.562 191.452 160.825 191.599C160.772 191.615 160.728 191.65 160.7 191.698C160.673 191.745 160.665 191.801 160.677 191.855C160.691 191.902 160.721 191.943 160.763 191.97C160.804 191.997 160.854 192.009 160.903 192.002C161.599 191.863 162.31 191.816 163.018 191.864C163.264 191.904 163.333 191.51 163.067 191.451Z" fill="black"/>
<path d="M166.824 193.703C167.06 193.831 167.296 193.487 167.07 193.369C165.703 192.641 164.267 193.054 162.88 193.517C162.634 193.595 162.811 193.969 163.057 193.89C163.642 193.613 164.276 193.454 164.922 193.421C165.568 193.389 166.215 193.485 166.824 193.703Z" fill="black"/>
<path d="M167.896 195.513C167.317 195.165 166.66 194.968 165.985 194.938C165.31 194.909 164.638 195.049 164.031 195.346C163.988 195.372 163.957 195.413 163.942 195.461C163.927 195.509 163.93 195.56 163.951 195.606C163.971 195.652 164.008 195.688 164.053 195.709C164.099 195.73 164.15 195.734 164.198 195.72C164.742 195.453 165.344 195.326 165.95 195.348C166.556 195.37 167.146 195.542 167.67 195.848C167.886 195.985 168.181 195.651 167.896 195.513Z" fill="black"/>
<path d="M165.939 198.582C166.041 198.364 166.124 198.136 166.185 197.903C166.244 197.647 165.86 197.5 165.791 197.756C165.705 198.143 165.541 198.51 165.309 198.832C165.078 199.155 164.783 199.428 164.444 199.634C164.208 199.762 164.385 200.136 164.611 200.008C165.042 199.767 165.412 199.43 165.693 199.024C165.693 199.024 165.742 199.024 165.772 199.024C165.983 198.952 166.211 198.944 166.426 199.002C166.642 199.06 166.835 199.181 166.981 199.349C167.158 199.546 167.473 199.28 167.296 199.083C167.13 198.893 166.918 198.748 166.681 198.66C166.444 198.572 166.189 198.546 165.939 198.582Z" fill="black"/>
</g>
<defs>
<linearGradient id="paint0_linear_0_2887" x1="45.527" y1="181.577" x2="452.821" y2="181.577" gradientUnits="userSpaceOnUse">
<stop stop-color="#E1E1E1"/>
<stop offset="0.13" stop-color="#FAFAFA"/>
<stop offset="0.7" stop-color="#FAFAFA"/>
<stop offset="1" stop-color="#E1E1E1"/>
</linearGradient>
</defs>
</svg>
