<svg width="151" height="56" viewBox="0 0 151 56" fill="none" xmlns="http://www.w3.org/2000/svg">
<path d="M142.436 1.02612H7.91985C4.11319 1.02612 1.02728 4.11203 1.02728 7.91869V47.4612C1.02728 51.2678 4.11319 54.3537 7.91985 54.3537H142.436C146.243 54.3537 149.329 51.2678 149.329 47.4612V7.91869C149.329 4.11203 146.243 1.02612 142.436 1.02612Z" fill="white" stroke="#0089FF" stroke-width="1.2" stroke-miterlimit="10"/>
<path d="M60.2715 27.5362H60.6478C62.5975 27.5362 64.5644 27.5362 66.5141 27.6388C67.0573 27.6585 67.5965 27.7388 68.1218 27.8782C68.8482 28.0357 69.5239 28.3715 70.0882 28.8552C70.6525 29.3388 71.0876 29.9553 71.3544 30.6489C71.6825 31.3992 71.8418 32.2124 71.8211 33.031C71.8004 33.8496 71.6002 34.6537 71.2346 35.3865C70.9155 36.0548 70.4363 36.6339 69.8396 37.0725C69.2428 37.5111 68.5471 37.7956 67.814 37.9007C66.9759 38.0204 66.1037 38.0375 65.2827 38.0888H63.5724C63.179 38.0888 63.1619 38.0888 63.1448 38.5335C63.1448 39.9701 63.1448 41.4068 63.1448 42.8434V43.3395C62.231 43.4613 61.3051 43.4613 60.3912 43.3395V27.4848L60.2715 27.5362ZM63.0935 35.626C63.1694 35.6645 63.2499 35.6932 63.333 35.7115C64.419 35.8225 65.5136 35.8225 66.5997 35.7115C66.9318 35.6787 67.2541 35.5802 67.5477 35.4216C67.8413 35.2631 68.1005 35.0476 68.31 34.7879C68.6132 34.3542 68.7908 33.8452 68.8231 33.317C68.9444 32.6556 68.818 31.9726 68.4678 31.3984C68.1176 30.8243 67.5683 30.3992 66.9247 30.2042C66.6261 30.105 66.3153 30.0475 66.0011 30.0332C65.0262 30.0332 64.0684 30.0332 63.0935 30.0332V35.6602V35.626Z" fill="#010101"/>
<path d="M128.291 38.2769H120.081C119.95 38.9725 120.097 39.6919 120.49 40.2803C120.883 40.8688 121.492 41.2794 122.185 41.4239C122.853 41.5948 123.553 41.5948 124.22 41.4239C124.707 41.2582 125.123 40.9326 125.4 40.5003C125.674 40.0385 125.725 40.0386 126.255 40.1412L127.829 40.3977L128.137 40.5003C127.959 41.0865 127.658 41.6278 127.254 42.088C126.85 42.5482 126.352 42.9166 125.794 43.1684C124.166 43.8782 122.326 43.9273 120.663 43.3053C119.916 43.0215 119.248 42.5628 118.716 41.9676C118.183 41.3724 117.801 40.6581 117.601 39.8846C117.071 38.3441 117.071 36.6705 117.601 35.13C117.909 34.1315 118.515 33.251 119.337 32.6061C120.159 31.9612 121.159 31.5827 122.202 31.5212C123.1 31.4446 124.004 31.5613 124.853 31.8633C125.611 32.1334 126.291 32.5873 126.831 33.1842C127.371 33.781 127.755 34.5024 127.949 35.2839C128.153 36.1353 128.256 37.0079 128.257 37.8835C128.257 38.0033 128.257 38.123 128.257 38.3454M125.64 36.2758C125.617 36.0576 125.582 35.8407 125.537 35.626C125.458 35.1468 125.236 34.7027 124.9 34.3517C124.565 34.0008 124.131 33.7594 123.656 33.6591C123.293 33.6069 122.924 33.6069 122.561 33.6591C121.875 33.7093 121.232 34.0113 120.755 34.5069C120.279 35.0026 120.002 35.657 119.979 36.3443C121.863 36.4726 123.755 36.4726 125.64 36.3443V36.2758Z" fill="#010101"/>
<path d="M73.9198 34.5827C74.084 34.0223 74.3679 33.5043 74.7517 33.0644C75.1356 32.6244 75.6103 32.273 76.1432 32.0343C76.9435 31.6626 77.8109 31.4572 78.6929 31.4308C79.5748 31.4043 80.453 31.5573 81.2741 31.8804C82.0175 32.1447 82.6556 32.6422 83.0932 33.2987C83.5309 33.9551 83.7447 34.7354 83.7028 35.5233C83.7028 36.0877 83.7028 36.635 83.7028 37.2336V43.4592H81.0518C81.1127 42.8907 81.1127 42.3174 81.0518 41.7489C80.933 41.8538 80.8294 41.9746 80.744 42.108C80.5109 42.4828 80.2017 42.8044 79.8363 43.0519C79.471 43.2994 79.0577 43.4673 78.6232 43.5447C77.6081 43.7824 76.5442 43.6987 75.5788 43.3053C75.0585 43.0866 74.6003 42.7426 74.2452 42.304C73.8901 41.8653 73.649 41.3456 73.5435 40.7911C73.3748 40.0106 73.5041 39.1953 73.9061 38.5053C74.308 37.8154 74.9535 37.3008 75.7156 37.0626C76.4914 36.7792 77.3032 36.6064 78.1272 36.5495L79.8375 36.3443C79.9952 36.3205 80.1499 36.2804 80.2993 36.2245C80.9663 36.0193 81.1031 35.8141 81.0176 35.1128C81.0053 34.7753 80.8835 34.4509 80.6706 34.1886C80.4577 33.9264 80.1653 33.7405 79.8375 33.6591C79.3873 33.5047 78.9074 33.4568 78.4356 33.5191C77.9637 33.5814 77.5128 33.7523 77.1181 34.0183C76.8648 34.2099 76.6646 34.463 76.5366 34.7537C76.5366 34.9076 76.3826 35.0273 76.1774 34.9931L74.2105 34.6853C74.1203 34.6563 74.0342 34.616 73.954 34.5655L73.9198 34.5827ZM81.0005 37.8665H80.744C79.8546 38.0204 78.9481 38.1743 78.0587 38.3624C77.6835 38.4401 77.3169 38.5547 76.9642 38.7045C76.6951 38.8145 76.4693 39.0093 76.3211 39.2593C76.1729 39.5094 76.1104 39.801 76.1432 40.0899C76.1316 40.4005 76.2248 40.7061 76.4078 40.9573C76.5909 41.2086 76.853 41.391 77.1523 41.4752C77.5962 41.6326 78.0678 41.6967 78.5376 41.6634C79.0567 41.662 79.5618 41.4955 79.9799 41.188C80.3981 40.8806 80.7076 40.4481 80.8637 39.9531C81.0292 39.2532 81.0754 38.5304 81.0005 37.8152V37.8665Z" fill="#010101"/>
<path d="M104.295 43.4421V31.6238C105.184 31.487 106.005 31.6238 106.946 31.6238V33.6762C107.22 33.5565 107.305 33.3341 107.425 33.1631C107.657 32.7464 107.971 32.3803 108.347 32.0866C108.723 31.7928 109.154 31.5774 109.614 31.4528C110.22 31.2896 110.854 31.2617 111.472 31.371C112.09 31.4804 112.676 31.7244 113.189 32.0856C113.61 32.3905 113.963 32.7813 114.222 33.2324C114.482 33.6835 114.642 34.1846 114.694 34.7024C114.762 35.2241 114.797 35.7497 114.796 36.2759C114.796 38.4137 114.796 40.5516 114.796 42.6895V43.254C113.899 43.3675 112.991 43.3675 112.094 43.254C112.094 43.1342 112.094 42.9974 112.094 42.8606C112.094 40.8766 112.094 38.8927 112.094 36.9087C112.12 36.51 112.12 36.1101 112.094 35.7115C112.058 35.2073 111.852 34.7302 111.511 34.3576C111.169 33.985 110.712 33.7388 110.213 33.6591C109.691 33.5386 109.144 33.6044 108.666 33.8449C108.189 34.0854 107.81 34.4856 107.596 34.976C107.405 35.3646 107.306 35.7916 107.305 36.2245C107.305 38.4309 107.305 40.6372 107.305 42.8606V43.2882L104.295 43.4421Z" fill="#010101"/>
<path d="M99.6087 28.7676V31.5383H101.849C101.909 32.1411 101.909 32.7484 101.849 33.3512C101.849 33.5907 101.644 33.6078 101.456 33.6078H99.5916C99.5916 33.7959 99.5916 33.9156 99.5916 34.0525V39.8333C99.5916 40.6885 99.9166 41.1673 101.08 41.2016C101.182 41.21 101.285 41.21 101.387 41.2016C101.421 41.1913 101.457 41.1886 101.492 41.1938C101.527 41.1989 101.56 41.2118 101.59 41.2315C101.619 41.2511 101.644 41.277 101.662 41.3073C101.681 41.3376 101.692 41.3716 101.695 41.4068C101.832 41.9712 101.935 42.5356 102.054 43.1171C102.069 43.2077 102.069 43.3001 102.054 43.3908C101.03 43.6734 99.9488 43.6734 98.9246 43.3908C98.36 43.2375 97.8593 42.9074 97.4961 42.4487C97.1329 41.9901 96.9263 41.4271 96.9065 40.8424C96.9065 39.7478 96.9064 38.6703 96.8209 37.5757C96.7354 36.4811 96.8209 35.5062 96.8209 34.48V33.8301C96.2544 33.7477 95.6831 33.702 95.1106 33.6933V31.7264C95.6579 31.5212 96.2223 31.7264 96.8209 31.5896V28.8189C97.7723 28.7676 98.7258 28.7676 99.6772 28.8189L99.6087 28.7676Z" fill="#010101"/>
<path d="M89.4323 33.4709C89.7402 33.0605 90.0139 32.6158 90.3559 32.2395C90.725 31.8589 91.2031 31.6019 91.7242 31.5041C92.2616 31.4088 92.8116 31.4088 93.349 31.5041C93.4345 32.3079 93.349 33.1118 93.349 33.9498H92.8359C92.228 33.8548 91.6062 33.9076 91.023 34.1037C90.7352 34.1923 90.4701 34.3422 90.2457 34.5429C90.0213 34.7437 89.843 34.9906 89.7231 35.2667C89.5125 35.7287 89.4018 36.2299 89.3981 36.7376V43.5789H86.6788C86.559 43.2026 86.5248 32.4277 86.6788 31.7777C87.5651 31.6749 88.4604 31.6749 89.3468 31.7777V33.6077H89.4495L89.4323 33.4709Z" fill="#010101"/>
<path d="M133.405 31.5554V33.6762L133.695 33.471C133.736 33.412 133.77 33.3489 133.798 33.2828C134.118 32.6201 134.657 32.0882 135.324 31.7766C135.99 31.4651 136.744 31.3929 137.458 31.5725H137.595C137.654 32.3752 137.654 33.1813 137.595 33.984L136.705 33.8986C136.126 33.8138 135.534 33.8907 134.995 34.1209C134.526 34.2954 134.126 34.6153 133.852 35.0338C133.578 35.4523 133.445 35.9475 133.473 36.4469C133.473 38.5848 133.473 40.7398 133.473 42.8948V43.4934H130.771C130.771 43.3224 130.771 43.1684 130.771 43.0145C130.771 39.4057 130.771 35.797 130.771 32.1882C130.771 31.658 130.771 31.6409 131.335 31.6238H133.422" fill="#010101"/>
<path d="M80.7268 17.2401L82.4371 20.3015H81.1715C80.9492 20.3015 80.8637 20.1134 80.7781 19.9424C80.4361 19.3095 80.0769 18.6938 79.7691 18.0439C79.6845 17.8138 79.5216 17.6208 79.3089 17.4989C79.0962 17.3769 78.8474 17.3337 78.6061 17.3769C77.8364 17.3769 77.8364 17.3769 77.8364 18.1294V20.2844C77.3752 20.3184 76.9122 20.3184 76.451 20.2844C76.3138 17.6581 76.3138 15.0263 76.451 12.3999C76.5706 12.3914 76.6907 12.3914 76.8102 12.3999H79.598C79.8932 12.4106 80.186 12.4566 80.4703 12.5367C80.9284 12.632 81.3431 12.8737 81.6516 13.2255C81.9602 13.5772 82.1458 14.0198 82.1806 14.4865C82.1715 14.5603 82.1715 14.635 82.1806 14.7088C82.2402 15.1377 82.1712 15.5746 81.9825 15.9642C81.7937 16.3539 81.4937 16.6789 81.1202 16.898L80.744 17.1717L80.7268 17.2401ZM77.8877 16.2994C78.5376 16.2994 79.1363 16.2994 79.7349 16.1797C80.0281 16.1495 80.299 16.0091 80.4926 15.7868C80.6863 15.5646 80.7884 15.2771 80.7781 14.9825C80.7974 14.6806 80.708 14.3819 80.526 14.1403C80.3441 13.8987 80.0816 13.7303 79.7862 13.6655C79.2731 13.6655 78.76 13.6655 78.264 13.58C77.768 13.4945 77.8364 13.58 77.8193 14.0247V15.735C77.8082 15.9001 77.8082 16.0658 77.8193 16.231L77.8877 16.2994Z" fill="#010101"/>
<path d="M116.541 20.3186C116.541 17.6505 116.541 15.0508 116.541 12.3827H119.294C119.644 12.4048 119.992 12.4448 120.338 12.5025C121.033 12.6542 121.664 13.0192 122.142 13.5465C122.621 14.0738 122.923 14.7372 123.006 15.4442C123.117 16.1009 123.117 16.7716 123.006 17.4282C122.882 18.1193 122.542 18.7532 122.035 19.2388C121.528 19.7244 120.88 20.0365 120.184 20.1305C119.806 20.1993 119.422 20.2337 119.038 20.2331L116.541 20.3186ZM118.029 19.1043C118.7 19.1649 119.376 19.1649 120.047 19.1043C120.953 18.9162 121.449 18.5741 121.757 17.394C121.841 16.827 121.841 16.2507 121.757 15.6837C121.688 15.1499 121.428 14.6591 121.026 14.301C120.624 13.943 120.106 13.7417 119.568 13.7339H118.576C118.063 13.7339 118.029 13.7339 118.029 14.2641V18.728C118.029 18.882 118.029 19.0359 118.029 19.2411V19.1043Z" fill="#010101"/>
<path d="M73.7659 12.4683V13.58H70.1058C70.1058 14.247 70.1058 14.8456 70.1058 15.4613C70.1058 15.735 70.2084 15.8205 70.5163 15.8205H73.5264C73.6559 16.1739 73.6559 16.5617 73.5264 16.9151H70.1058C70.1058 17.5992 70.1058 18.1978 70.1058 18.8135C70.1008 18.8627 70.1065 18.9124 70.1225 18.9592C70.1385 19.0059 70.1645 19.0487 70.1987 19.0845C70.2328 19.1202 70.2743 19.1481 70.3203 19.1663C70.3663 19.1845 70.4156 19.1925 70.465 19.1898H73.8856V20.2502H68.8744V12.4683H73.8856H73.7659Z" fill="#010101"/>
<path d="M108.913 12.4512H113.907V13.58H110.247V15.7521C110.607 15.858 110.986 15.8872 111.359 15.8376C111.718 15.8376 112.094 15.8376 112.47 15.8376H113.668V16.9493H110.247V19.1385C111.488 19.2422 112.735 19.2422 113.975 19.1385V20.2844H108.964V12.4512H108.913Z" fill="#010101"/>
<path d="M66.1037 17.8729C66.0155 18.5488 65.6654 19.163 65.1288 19.5832C64.4155 20.1518 63.514 20.4306 62.6042 20.364C61.6945 20.2974 60.8432 19.8904 60.2202 19.224C59.7982 18.7333 59.5044 18.1457 59.365 17.5137C59.1768 16.7614 59.1768 15.9742 59.365 15.2219C59.467 14.7204 59.6759 14.2469 59.9776 13.8336C60.2793 13.4202 60.6665 13.0769 61.113 12.8268C61.5595 12.5768 62.0546 12.4261 62.5646 12.3848C63.0747 12.3436 63.5876 12.413 64.0684 12.588C64.5667 12.7438 65.0139 13.0308 65.363 13.419C65.7121 13.8073 65.9502 14.2823 66.0524 14.7943C66.061 14.8682 66.061 14.9428 66.0524 15.0167C65.729 15.1147 65.3838 15.1147 65.0604 15.0167C64.838 15.0167 64.7525 14.7943 64.6499 14.6233C64.5038 14.3388 64.2916 14.0936 64.0311 13.908C63.7707 13.7225 63.4696 13.6021 63.153 13.5568C62.8365 13.5116 62.5137 13.5429 62.2117 13.6481C61.9097 13.7533 61.6374 13.9294 61.4174 14.1615C60.9528 14.613 60.6776 15.2246 60.6478 15.8718C60.5965 16.3779 60.5965 16.8879 60.6478 17.394C60.7051 17.7734 60.8595 18.1315 61.0961 18.4335C61.3328 18.7355 61.6436 18.9711 61.9982 19.1174C62.3529 19.2638 62.7394 19.3158 63.1201 19.2686C63.5009 19.2213 63.8629 19.0763 64.171 18.8477C64.3225 18.7305 64.4502 18.5853 64.5473 18.4202C64.9065 17.7874 65.0433 17.719 65.7616 17.8216L66.0866 17.9242L66.1037 17.8729Z" fill="#010101"/>
<path d="M97.2827 12.417H102.089C102.243 12.7894 102.243 13.2076 102.089 13.58H98.6681C98.6564 13.728 98.6564 13.8767 98.6681 14.0247C98.6681 14.4523 98.6681 14.8798 98.6681 15.2903C98.6681 15.7008 98.6681 15.8376 99.2496 15.8376H101.695C101.795 15.9936 101.857 16.1701 101.878 16.3539C101.899 16.5377 101.877 16.7238 101.815 16.898C101.28 16.941 100.742 16.941 100.207 16.898H98.5996C98.5166 17.4641 98.488 18.0368 98.5141 18.6083C98.5141 19.1556 98.5141 19.6858 98.5141 20.3186C98.1015 20.3952 97.6782 20.3952 97.2656 20.3186C97.163 19.7713 97.163 12.8445 97.2656 12.4512L97.2827 12.417Z" fill="#010101"/>
<path d="M88.1667 13.58V20.2673H86.9011V13.5971H84.4212V12.417H90.6467V13.58H88.1667Z" fill="#010101"/>
<path d="M94.4436 12.3999H93.0924V20.2844H94.4436V12.3999Z" fill="#010101"/>
<path d="M104.723 20.3186V12.3827L106.074 12.4683C106.082 12.605 106.082 12.742 106.074 12.8787V18.5912C106.074 19.0017 106.074 19.4293 106.074 19.8397C106.074 20.2502 106.074 20.3015 105.629 20.3015H104.688L104.723 20.3186Z" fill="#010101"/>
<path d="M7.98715 1.65894H48.6756V53.7551H7.78192C6.05822 53.7551 4.40514 53.0704 3.18631 51.8516C1.96747 50.6327 1.28271 48.9796 1.28271 47.2559V8.36339C1.28271 6.58823 1.98673 4.88549 3.24035 3.62866C4.49398 2.37182 6.19492 1.66346 7.97008 1.65894H7.98715Z" fill="#0089FF"/>
<path d="M34.651 13.1523H14.2811V18.6938H34.651V13.1523Z" fill="white"/>
<path d="M33.3682 27.1256H14.2811V32.667H33.3682V27.1256Z" fill="white"/>
<path d="M20.6606 27.1256H14.2811V44.5195H20.6606V27.1256Z" fill="white"/>
</svg>
