<svg width="80" height="70" viewBox="0 0 80 70" fill="none" xmlns="http://www.w3.org/2000/svg">
<path d="M32.6164 48.5573C32.3421 48.5573 32.0767 48.4603 31.8682 48.2835L24.3899 41.9683C24.2625 41.8607 24.1601 41.727 24.0899 41.5763C24.0197 41.4256 23.9834 41.2616 23.9834 41.0956C23.9834 40.9297 24.0197 40.7657 24.0899 40.615C24.1601 40.4643 24.2625 40.3305 24.3899 40.2229L31.8682 33.9078C32.1015 33.7107 32.4041 33.6136 32.7096 33.6378C33.0151 33.662 33.2984 33.8055 33.4972 34.0368C33.9106 34.5192 33.8525 35.2424 33.3662 35.6524L26.9218 41.0953L33.3662 46.5381C33.5465 46.6901 33.6753 46.8934 33.7353 47.1204C33.7954 47.3473 33.7837 47.5871 33.7019 47.8073C33.6201 48.0275 33.4721 48.2175 33.278 48.3516C33.0838 48.4857 32.853 48.5575 32.6164 48.5573ZM47.3791 48.5573C47.0522 48.5573 46.7273 48.4204 46.499 48.1537C46.3003 47.9223 46.2024 47.6221 46.2268 47.3191C46.2512 47.0162 46.396 46.7352 46.6293 46.5381L53.0737 41.0953L46.6293 35.6524C46.4043 35.453 46.2669 35.1742 46.2464 34.8757C46.2259 34.5772 46.3239 34.2825 46.5195 34.0547C46.7151 33.8269 46.9928 33.684 47.2932 33.6565C47.5936 33.629 47.893 33.7191 48.1273 33.9076L55.6056 40.2228C55.733 40.3304 55.8354 40.4641 55.9056 40.6148C55.9758 40.7655 56.0121 40.9295 56.0121 41.0955C56.0121 41.2615 55.9758 41.4255 55.9056 41.5761C55.8354 41.7268 55.733 41.8606 55.6056 41.9682L48.1273 48.2833C47.9189 48.4601 47.6536 48.5573 47.3793 48.5573H47.3791ZM37.3505 53.294C37.1783 53.2942 37.0083 53.2563 36.8528 53.183C36.6974 53.1097 36.5604 53.0029 36.4518 52.8704C36.3433 52.7379 36.266 52.583 36.2255 52.4171C36.185 52.2512 36.1824 52.0784 36.2179 51.9113L40.8785 29.9653C40.9417 29.6678 41.1215 29.4074 41.3783 29.2414C41.6351 29.0754 41.9478 29.0174 42.2477 29.0801C42.5477 29.1427 42.8102 29.321 42.9776 29.5757C43.145 29.8303 43.2035 30.1405 43.1403 30.438L38.4797 52.3838C38.4252 52.6409 38.2832 52.8716 38.0776 53.0373C37.8721 53.203 37.6154 53.2936 37.3505 53.294Z" fill="#3E96F4"/>
<path d="M67.2406 65.25H12.7594C8.48118 65.25 5 61.7982 5 57.5546V11.6954C5 7.45246 8.48118 4 12.7594 4H67.2406C71.5188 4 75 7.45246 75 11.6954V57.5546C75 61.7982 71.5188 65.25 67.2406 65.25ZM12.7594 6.29225C9.75554 6.29225 7.31132 8.71631 7.31132 11.6954V57.5546C7.31132 60.5337 9.75554 62.9577 12.7594 62.9577H67.2406C70.2445 62.9577 72.6887 60.5337 72.6887 57.5546V11.6954C72.6887 8.71631 70.2445 6.29225 67.2406 6.29225H12.7594Z" fill="#3E96F4"/>
<path d="M73.8455 22.3536H6.1568C5.85368 22.3485 5.56471 22.2255 5.35216 22.0111C5.13962 21.7967 5.02051 21.5081 5.02051 21.2075C5.02051 20.9068 5.13962 20.6182 5.35216 20.4038C5.56471 20.1894 5.85368 20.0664 6.1568 20.0613H73.8455C74.1486 20.0664 74.4376 20.1894 74.6501 20.4038C74.8627 20.6182 74.9818 20.9068 74.9818 21.2075C74.9818 21.5081 74.8627 21.7967 74.6501 22.0111C74.4376 22.2255 74.1486 22.3485 73.8455 22.3536ZM24.7468 16.8692C22.7308 16.8692 21.0894 15.2414 21.0894 13.242C21.0894 11.2422 22.7308 9.61504 24.7468 9.61504C26.7632 9.61504 28.4039 11.2422 28.4039 13.242C28.4039 15.2414 26.7632 16.8692 24.7468 16.8692ZM24.7468 11.9073C24.005 11.9073 23.4007 12.5059 23.4007 13.242C23.4007 13.9782 24.005 14.5769 24.7468 14.5769C25.489 14.5769 26.0926 13.9783 26.0926 13.242C26.0926 12.5057 25.489 11.9073 24.7468 11.9073ZM13.5101 16.834C11.4933 16.834 9.85277 15.2068 9.85277 13.207C9.85277 11.207 11.4933 9.57983 13.5099 9.57983C15.5266 9.57983 17.1671 11.207 17.1671 13.207C17.1671 15.2068 15.5267 16.834 13.5101 16.834ZM13.5101 11.8721C12.7683 11.8721 12.1641 12.4713 12.1641 13.207C12.1641 13.9431 12.7683 14.5417 13.5099 14.5417C14.2522 14.5417 14.8558 13.9431 14.8558 13.207C14.8558 12.4713 14.2524 11.8721 13.5101 11.8721ZM35.9834 16.9037C33.9676 16.9037 32.3269 15.2766 32.3269 13.2766C32.3269 11.2774 33.9674 9.65024 35.9834 9.65024C38 9.65024 39.6406 11.2772 39.6406 13.2766C39.6406 15.2766 38 16.9037 35.9834 16.9037ZM35.9834 11.9418C35.2418 11.9418 34.6382 12.5404 34.6382 13.2766C34.6382 14.0127 35.2418 14.6115 35.9834 14.6115C36.7257 14.6115 37.3293 14.0127 37.3293 13.2766C37.3293 12.5404 36.7257 11.9418 35.9834 11.9418Z" fill="#3E96F4"/>
</svg>
