<svg width="48" height="36" viewBox="0 0 48 36" fill="none" xmlns="http://www.w3.org/2000/svg">
<path d="M47.2504 27.896H43.6504V35H37.4584V27.896H24.6904V22.856L37.7944 0.728027H43.6504V22.28H47.2504V27.896ZM37.4584 16.472C37.4584 15.736 37.4744 14.84 37.5064 13.784C37.5384 12.728 37.5704 11.752 37.6024 10.856C37.6664 9.92803 37.7144 9.32003 37.7464 9.03203H37.5544C37.2984 9.67203 37.0264 10.296 36.7384 10.904C36.4824 11.512 36.1624 12.136 35.7784 12.776L30.2584 22.28H37.4584V16.472Z" fill="#3E96F4"/>
<path d="M12.4476 35.48C10.6876 35.48 9.05563 35.1921 7.55163 34.6161C6.04763 34.0081 4.73563 33.0801 3.61562 31.8321C2.49562 30.5841 1.61562 29.016 0.975625 27.128C0.335625 25.24 0.015625 23.016 0.015625 20.456C0.015625 18.472 0.159625 16.52 0.447625 14.6C0.735625 12.648 1.23162 10.824 1.93562 9.12805C2.63962 7.40005 3.63163 5.88005 4.91163 4.56805C6.19163 3.22405 7.82363 2.16805 9.80762 1.40005C11.7916 0.632047 14.2236 0.248047 17.1036 0.248047C17.7756 0.248047 18.5596 0.296047 19.4556 0.392048C20.3836 0.456047 21.1356 0.536047 21.7116 0.632048V6.48805C21.1036 6.32805 20.4156 6.21605 19.6476 6.15205C18.8796 6.05605 17.9996 6.00805 17.0076 6.00805C15.0876 6.00805 13.4716 6.28005 12.1596 6.82405C10.8796 7.33605 9.85563 8.07205 9.08763 9.03205C8.35163 9.99205 7.79163 11.128 7.40763 12.44C7.05563 13.72 6.84762 15.144 6.78363 16.712H7.07163C7.48763 15.944 8.01563 15.256 8.65563 14.648C9.29563 14.04 10.0796 13.56 11.0076 13.208C11.9676 12.856 13.0876 12.68 14.3676 12.68C17.3436 12.68 19.6956 13.624 21.4236 15.512C23.1836 17.4 24.0636 20.072 24.0636 23.528C24.0636 26.024 23.5836 28.168 22.6236 29.96C21.6956 31.752 20.3676 33.1281 18.6396 34.0881C16.9116 35.0161 14.8476 35.48 12.4476 35.48ZM12.3036 29.6241C13.7116 29.6241 14.8316 29.144 15.6636 28.184C16.5276 27.224 16.9596 25.7201 16.9596 23.6721C16.9596 22.0081 16.5916 20.712 15.8556 19.784C15.1196 18.824 13.9836 18.344 12.4476 18.344C11.3916 18.344 10.4796 18.584 9.71163 19.064C8.94363 19.512 8.35163 20.104 7.93563 20.84C7.51963 21.5441 7.31163 22.2801 7.31163 23.048C7.31163 23.8481 7.40763 24.6321 7.59963 25.4001C7.82363 26.1681 8.14363 26.8721 8.55963 27.5121C8.97563 28.1521 9.48763 28.664 10.0956 29.048C10.7356 29.432 11.4716 29.6241 12.3036 29.6241Z" fill="#3E96F4"/>
</svg>
