<svg width="73" height="72" viewBox="0 0 73 72" fill="none" xmlns="http://www.w3.org/2000/svg">
<path fill-rule="evenodd" clip-rule="evenodd" d="M21.0032 70.8964C21.5724 63.3092 27.9585 57.2774 35.6849 57.2774C43.4113 57.2774 49.7973 63.3092 50.3666 70.8964C50.3778 71.0375 50.3596 71.1794 50.3132 71.3131C50.2668 71.4468 50.1931 71.5694 50.0968 71.6732C50.0005 71.7769 49.8838 71.8596 49.7539 71.9159C49.6241 71.9722 49.484 72.001 49.3424 72.0003H22.0274C21.8859 72.001 21.7457 71.9722 21.6159 71.9159C21.486 71.8596 21.3693 71.7769 21.273 71.6732C21.1768 71.5694 21.1031 71.4468 21.0566 71.3131C21.0102 71.1794 20.992 71.0375 21.0032 70.8964ZM35.6848 40.5947C31.2902 40.5947 27.7275 44.1573 27.7275 48.552C27.7275 52.9466 31.29 56.5092 35.6848 56.5092C40.0794 56.5092 43.6421 52.9466 43.6421 48.552C43.6421 44.1573 40.0795 40.5947 35.6848 40.5947Z" fill="#4D5F66"/>
<path fill-rule="evenodd" clip-rule="evenodd" d="M39.6344 14.3649C40.3733 13.6218 41.5747 13.6185 42.3177 14.3574C43.0608 15.0964 43.0641 16.2978 42.3252 17.0408L35.9877 23.4379C35.2537 24.1759 34.0635 24.184 33.3195 23.4599L30.1839 20.4037C29.4327 19.673 29.4161 18.4716 30.1467 17.7204C30.8773 16.9693 32.0787 16.9526 32.8299 17.6833L34.619 19.4273L39.6344 14.3649ZM51.3645 27.8412C54.1406 26.8802 55.4122 22.9661 53.7315 20.5567C53.0243 19.5432 53.0241 18.2594 53.7313 17.2459C55.4124 14.8367 54.1406 10.9224 51.3646 9.96122C50.1968 9.55692 49.4421 8.51846 49.4185 7.2828C49.3623 4.34568 46.0327 1.9264 43.222 2.78048C42.0395 3.1399 40.8186 2.74332 40.0732 1.75747C38.3015 -0.585727 34.1857 -0.585873 32.4137 1.75733C31.6683 2.74317 30.4474 3.14004 29.2649 2.78063C26.4542 1.9264 23.1244 4.34553 23.0683 7.28266C23.0447 8.51831 22.2903 9.55692 21.1222 9.96122C18.3462 10.9221 17.0742 14.8365 18.7551 17.2457C19.4623 18.2593 19.4625 19.543 18.7553 20.5566C17.0742 22.9658 18.346 26.8802 21.1221 27.8412C22.29 28.2455 23.0447 29.284 23.0683 30.5196C23.1244 33.4568 26.454 35.8761 29.2648 35.0218C30.4472 34.6624 31.6682 35.059 32.4137 36.0448C34.1855 38.3882 38.3013 38.3882 40.0732 36.045C40.8187 35.0591 42.0395 34.6624 43.222 35.0218C46.0327 35.8761 49.3625 33.4569 49.4186 30.5198C49.4421 29.284 50.1965 28.2455 51.3645 27.8412ZM36.2432 8.29809C30.3872 8.29809 25.64 13.0454 25.64 18.9013C25.64 24.7572 30.3872 29.5045 36.2432 29.5045C42.0993 29.5045 46.8464 24.7572 46.8464 18.9013C46.8464 13.0453 42.0993 8.29809 36.2432 8.29809Z" fill="#4D5F66"/>
<path d="M71.4721 54.1423H70.8926V50.2305C70.8926 49.7668 70.7187 49.3322 70.371 49.0134L66.7779 45.3914C66.4591 45.0726 66.0245 44.8698 65.5609 44.8698H63.9382V43.1312C63.9382 42.1749 63.1558 41.3926 62.1996 41.3926H50.6089C49.6527 41.3926 48.8703 42.1749 48.8703 43.1312V54.7219C48.8703 55.6781 49.6527 56.4605 50.6089 56.4605H51.1884C51.1884 58.3729 52.7532 59.9377 54.6656 59.9377C56.5781 59.9377 58.1428 58.3729 58.1428 56.4605H62.7791C62.7791 58.3729 64.3438 59.9377 66.2563 59.9377C68.1688 59.9377 69.7335 58.3729 69.7335 56.4605H71.4721C71.7909 56.4605 72.0516 56.1997 72.0516 55.8809V54.7219C72.0516 54.4031 71.7909 54.1423 71.4721 54.1423ZM54.6656 58.1991C53.7094 58.1991 52.927 57.4167 52.927 56.4605C52.927 55.5042 53.7094 54.7219 54.6656 54.7219C55.6219 54.7219 56.4042 55.5042 56.4042 56.4605C56.4042 57.4167 55.6219 58.1991 54.6656 58.1991ZM66.2563 58.1991C65.3001 58.1991 64.5177 57.4167 64.5177 56.4605C64.5177 55.5042 65.3001 54.7219 66.2563 54.7219C67.2125 54.7219 67.9949 55.5042 67.9949 56.4605C67.9949 57.4167 67.2125 58.1991 66.2563 58.1991ZM69.154 50.6651H63.9382V46.6084H65.5319L69.154 50.2305V50.6651Z" fill="#4D5F66"/>
<path d="M10.1667 49.4583C10.1662 49.2927 10.1002 49.134 9.98312 49.0169C9.86601 48.8998 9.70729 48.8338 9.54167 48.8333H6.41667V51.3333C6.41667 51.5543 6.32887 51.7663 6.17259 51.9226C6.01631 52.0789 5.80435 52.1667 5.58333 52.1667C5.36232 52.1667 5.15036 52.0789 4.99408 51.9226C4.8378 51.7663 4.75 51.5543 4.75 51.3333V48.8333H1.625C1.45937 48.8338 1.30066 48.8998 1.18354 49.0169C1.06643 49.134 1.00044 49.2927 1 49.4583V57.375C1 57.7192 1.28083 58 1.625 58H9.54167C9.885 58 10.1667 57.7192 10.1667 57.375V49.4583ZM21 49.4583C20.9996 49.2927 20.9336 49.134 20.8165 49.0169C20.6993 48.8998 20.5406 48.8338 20.375 48.8333H17.25V51.3333C17.25 51.5543 17.1622 51.7663 17.0059 51.9226C16.8496 52.0789 16.6377 52.1667 16.4167 52.1667C16.1957 52.1667 15.9837 52.0789 15.8274 51.9226C15.6711 51.7663 15.5833 51.5543 15.5833 51.3333V48.8333H12.4583C12.2927 48.8338 12.134 48.8998 12.0169 49.0169C11.8998 49.134 11.8338 49.2927 11.8333 49.4583V57.375C11.8333 57.7192 12.1142 58 12.4583 58H20.375C20.7183 58 21 57.7192 21 57.375V49.4583ZM15.5833 38.625C15.5827 38.4594 15.5166 38.3009 15.3995 38.1838C15.2825 38.0667 15.1239 38.0007 14.9583 38H11.8333V40.5C11.8333 40.721 11.7455 40.933 11.5893 41.0893C11.433 41.2455 11.221 41.3333 11 41.3333C10.779 41.3333 10.567 41.2455 10.4107 41.0893C10.2545 40.933 10.1667 40.721 10.1667 40.5V38H7.04167C6.87604 38.0004 6.71733 38.0664 6.60021 38.1835C6.4831 38.3007 6.41711 38.4594 6.41667 38.625V46.5417C6.41667 46.8858 6.6975 47.1667 7.04167 47.1667H14.9583C15.3017 47.1667 15.5833 46.8858 15.5833 46.5417V38.625Z" fill="#4D5F66"/>
</svg>
