<svg width="42" height="42" viewBox="0 0 42 42" fill="none" xmlns="http://www.w3.org/2000/svg">
<path fill-rule="evenodd" clip-rule="evenodd" d="M16.1777 36.8841C14.1609 36.8841 12.5376 35.2608 12.5376 33.244C12.5376 31.2271 14.1609 29.5792 16.1777 29.5792C18.1946 29.5792 19.8425 31.2271 19.8425 33.244C19.8425 35.2608 18.1946 36.8841 16.1777 36.8841ZM16.1777 17.6996C15.612 17.6996 14.9234 17.5274 14.3823 17.3061V20.2083C14.3823 21.2167 15.1939 22.0284 16.1777 22.0284C17.1861 22.0284 17.9978 21.2167 17.9978 20.2083V17.3061C17.4567 17.5274 16.768 17.6996 16.1777 17.6996ZM12.4146 16.0271C11.48 15.1662 10.8651 14.1824 10.5945 13.6413C9.168 13.0756 8.45472 11.5507 8.38094 10.2717C8.33175 9.04195 8.97123 8.23029 10.1518 8.10731C12.267 7.71379 13.9149 6.77915 14.8742 5.50018C15.2431 5.03287 15.9072 4.98368 16.3499 5.37721C16.3745 5.4018 18.9324 7.78757 23.2613 8.99275C23.9991 9.21412 24.0237 9.90279 23.9499 10.5423C23.7778 12.018 22.9415 13.174 21.7855 13.6413C21.4904 14.1824 20.9001 15.1662 19.9654 16.0271V16.8141C22.2036 16.396 24.2451 15.8303 25.1305 15.363C24.6386 14.5759 24.1713 13.1494 24.2943 10.6898C24.8354 1.34353 14.2347 -0.033817 10.078 4.41798C8.62689 5.9675 7.91362 8.1811 8.08579 10.6653C8.20877 13.1248 7.71686 14.5514 7.22495 15.363C8.08579 15.7811 9.95505 16.3222 12.4146 16.7895V16.0271ZM10.6929 10.0012L10.3486 10.0504C10.324 10.739 10.7421 11.6983 11.48 11.8704C11.7997 11.9196 12.0703 12.141 12.1932 12.4361C12.1932 12.4607 13.3738 15.1416 15.7104 15.6582C16.0793 15.7319 16.2269 15.7565 16.5959 15.6827C18.957 15.1908 20.1622 12.4607 20.1868 12.4361C20.5803 11.5261 21.515 12.2148 21.9331 10.6653C18.957 9.70603 16.8418 8.27948 15.7842 7.46783C14.5298 8.69761 12.8327 9.55845 10.6929 10.0012ZM10.0534 8.13191C9.97965 8.15651 9.90586 8.2057 9.83208 8.25489L10.0534 8.13191ZM16.1777 23.996C14.1363 23.996 12.4638 22.3235 12.4146 20.2821H10.4962C7.98741 20.2821 5.87219 22.1022 5.42947 24.488H26.926C26.4833 22.1022 24.3926 20.2821 21.8839 20.2821H19.9409C19.9163 22.3235 18.2438 23.996 16.1777 23.996ZM10.1026 18.3391C5.35568 17.2323 5.06054 16.1501 4.93756 15.6827C4.81458 15.2154 4.91296 14.7973 5.35568 14.6005C5.50326 14.453 6.26572 13.5675 6.11815 10.7882C5.2819 -3.60017 27.0982 -3.60017 26.2373 10.8128C26.1143 13.5675 26.8768 14.453 27.0244 14.6005C27.4425 14.7973 27.5655 15.2154 27.4425 15.6827C27.1719 16.7158 25.4749 17.6012 22.3758 18.3391C25.7454 18.5604 28.4755 21.1676 28.9182 24.488C30.5661 24.5126 32.1157 25.8407 31.8205 27.464L29.4101 40.0324H31.4024C32.6814 40.0324 32.6814 42 31.4024 42H0.977674C-0.325891 42 -0.325891 40.0324 0.977674 40.0324H2.96991L0.559549 27.4886C0.239807 25.8407 1.81392 24.5371 3.43723 24.488C3.87995 21.143 6.68384 18.5112 10.1026 18.3391ZM28.0082 26.4556H3.51102C3.01911 26.4556 2.42881 26.8245 2.5026 27.1197L4.96215 40.0324H27.3933L29.8775 27.0951C29.9267 26.8245 29.361 26.4556 28.869 26.4556H28.0082ZM16.1777 31.5469C13.9641 31.5469 13.9641 34.9165 16.1777 34.9165C18.3913 34.9165 18.3913 31.5469 16.1777 31.5469Z" fill="#3E96F4"/>
</svg>
