<svg width="24" height="24" viewBox="0 0 24 24" fill="none" xmlns="http://www.w3.org/2000/svg">
<path d="M12 0C5.37281 0 0 5.37281 0 12C0 18.6272 5.37281 24 12 24C18.6272 24 24 18.6272 24 12C24 5.37281 18.6272 0 12 0Z" fill="black"/>
<path d="M15.2692 5.10096V7.32211H13.9483C13.4659 7.32211 13.1406 7.42308 12.9724 7.625C12.8041 7.82692 12.72 8.12981 12.72 8.53365V10.1238H15.1851L14.857 12.6142H12.72V19H10.1454V12.6142H8V10.1238H10.1454V8.28966C10.1454 7.24639 10.4371 6.4373 11.0204 5.86238C11.6038 5.28746 12.3806 5 13.351 5C14.1755 5 14.8149 5.03365 15.2692 5.10096Z" fill="white"/>
</svg>
