<svg width="24" height="25" viewBox="0 0 24 25" fill="none" xmlns="http://www.w3.org/2000/svg">
<path d="M12 1.09961C18.2958 1.09961 23.4004 6.20418 23.4004 12.5C23.4004 18.7958 18.2958 23.9004 12 23.9004C5.70418 23.9004 0.599609 18.7958 0.599609 12.5C0.59961 6.20418 5.70418 1.09961 12 1.09961Z" stroke="#4D5F66" stroke-width="1.2" stroke-linecap="round" stroke-linejoin="round"/>
<path d="M15.2673 5.60096V7.82211H13.9464C13.464 7.82211 13.1387 7.92308 12.9704 8.125C12.8021 8.32692 12.718 8.62981 12.718 9.03365V10.6238H15.1831L14.855 13.1142H12.718V19.5H10.1435V13.1142H7.99805V10.6238H10.1435V8.78966C10.1435 7.74639 10.4351 6.9373 11.0185 6.36238C11.6018 5.78746 12.3787 5.5 13.349 5.5C14.1735 5.5 14.813 5.53365 15.2673 5.60096Z" fill="#4D5F66"/>
</svg>