<svg width="10" height="19" viewBox="0 0 10 19" fill="none" xmlns="http://www.w3.org/2000/svg">
<path d="M2.71 18.661H6.03V10.301H8.63C8.77 9.19097 8.91 8.10097 9.05 6.98097H6.06C6.04 6.96097 6.03 6.95097 6.03 6.94097C6.04 6.05097 6.02 5.16097 6.06 4.28097C6.09 3.58097 6.5 3.18097 7.19 3.12097C7.72 3.08097 8.25 3.09097 8.77 3.08097C8.96 3.08097 9.14 3.08097 9.32 3.08097V0.130966C9.28 0.120966 9.25 0.100966 9.21 0.100966C8.33 0.0609662 7.45 -0.00903375 6.57 0.000966252C5.66 0.0109663 4.81 0.280966 4.1 0.880966C3.19 1.66097 2.79 2.69097 2.73 3.84097C2.68 4.81097 2.71 5.79097 2.7 6.76097C2.7 6.83097 2.7 6.90097 2.7 6.99097H0V10.311H2.71V18.661Z" fill="white"/>
</svg>
