<svg width="230" height="58" viewBox="0 0 230 58" fill="none" xmlns="http://www.w3.org/2000/svg">
<path d="M210.191 41.535H215.415V33.0993L222.705 41.535H229.097L220.61 31.8129L227.86 23.383H222.043L215.415 31.1527V14L210.191 14.6834V41.535ZM198.143 22.9181C192.344 22.9181 188.316 26.8114 188.316 32.4562C188.316 38.101 192.344 41.9943 198.143 41.9943C203.943 41.9943 207.97 38.101 207.97 32.4562C207.97 26.8114 203.943 22.9181 198.143 22.9181ZM198.143 37.5497C195.456 37.5497 193.615 35.4767 193.615 32.4562C193.615 29.4357 195.456 27.3627 198.143 27.3627C200.83 27.3627 202.671 29.4357 202.671 32.4562C202.671 35.4767 200.83 37.5497 198.143 37.5497ZM176.913 22.9181C171.113 22.9181 167.086 26.8114 167.086 32.4562C167.086 38.101 171.113 41.9943 176.913 41.9943C182.712 41.9943 186.74 38.101 186.74 32.4562C186.74 26.8114 182.712 22.9181 176.913 22.9181ZM176.913 37.5497C174.226 37.5497 172.385 35.4767 172.385 32.4562C172.385 29.4357 174.226 27.3627 176.913 27.3627C179.6 27.3627 181.441 29.4357 181.441 32.4562C181.441 35.4767 179.6 37.5497 176.913 37.5497ZM156.92 22.9181C154.503 22.9181 152.501 23.8655 151.247 25.5997V14L146.017 14.6776V41.5292H150.654L150.746 38.7269C151.983 40.8171 154.198 41.9943 156.92 41.9943C161.879 41.9943 165.51 37.9746 165.51 32.4562C165.51 26.9377 161.896 22.9181 156.92 22.9181ZM155.683 37.5497C152.996 37.5497 151.155 35.4767 151.155 32.4562C151.155 29.4357 152.996 27.3627 155.683 27.3627C158.369 27.3627 160.211 29.4357 160.211 32.4562C160.211 35.4767 158.369 37.5497 155.683 37.5497ZM135.546 37.7851C132.772 37.7851 130.782 36.4988 130.103 34.2823H142.973C143.1 33.6048 143.186 32.8007 143.186 32.2609C143.186 26.4209 139.912 22.9181 134.412 22.9181C128.86 22.9181 125.017 26.8114 125.017 32.4562C125.017 38.1757 129.044 41.9943 135.022 41.9943C138.117 41.9943 141.126 40.9607 143.008 39.2437L141.126 35.9362C139.303 37.1937 137.513 37.7851 135.546 37.7851ZM134.378 26.9721C136.794 26.9721 138.336 28.4364 138.336 30.7047V30.722H129.994C130.494 28.316 132.053 26.9721 134.378 26.9721ZM116.835 42C119.54 42 122.186 40.9664 124.05 39.1748L122.008 35.7466C120.558 36.8722 118.912 37.4808 117.353 37.4808C114.453 37.4808 112.52 35.4594 112.52 32.4619C112.52 29.4644 114.453 27.443 117.353 27.443C118.786 27.443 120.345 27.9598 121.611 28.8729L123.688 25.3699C122.008 23.854 119.407 22.9237 116.83 22.9237C111.157 22.9237 107.147 26.8745 107.147 32.4619C107.152 38.032 111.162 42 116.835 42ZM100.225 23.383L100.133 26.2084C98.8962 24.1009 96.6811 22.9237 93.9598 22.9237C88.983 22.9237 85.3698 26.9435 85.3698 32.4619C85.3698 37.9804 89.006 42 93.9598 42C96.6811 42 98.9018 40.8228 100.133 38.7326L100.225 41.5348H104.862V23.383H100.225ZM95.1967 37.5497C92.5099 37.5497 90.6688 35.4767 90.6688 32.4562C90.6688 29.4357 92.5099 27.3627 95.1967 27.3627C97.8836 27.3627 99.7246 29.4357 99.7246 32.4562C99.7246 35.4767 97.8778 37.5497 95.1967 37.5497ZM84.9785 23.4172H80.278V21.8666C80.278 19.5467 81.1871 18.6567 83.546 18.6567C84.2766 18.6567 84.8692 18.6738 85.2087 18.7083V14.7289C84.5642 14.5508 82.9937 14.3728 82.0846 14.3728C77.2804 14.3728 75.0654 16.6353 75.0654 21.5221V23.4113H72.0967V27.7986H75.0654V41.5288H80.2837V27.8043H84.1732L84.9785 23.4172Z" fill="#0866FF"/>
<path d="M58.0967 29C58.0967 43.4751 47.4913 55.4727 33.6279 57.6477V37.3828H40.3852L41.6709 29H33.6279V23.5602C33.6279 21.2663 34.7517 19.0312 38.354 19.0312H42.0107V11.8945C42.0107 11.8945 38.6916 11.3281 35.5186 11.3281C28.895 11.3281 24.5654 15.3428 24.5654 22.6109V29H17.2021V37.3828H24.5654V57.6477C10.7021 55.4727 0.0966797 43.4751 0.0966797 29C0.0966797 12.9843 13.081 0 29.0967 0C45.1124 0 58.0967 12.9843 58.0967 29Z" fill="#1877F2"/>
<path d="M40.3852 37.3828L41.6709 29H33.6279V23.5602C33.6279 21.2663 34.7517 19.0312 38.354 19.0312H42.0107V11.8945C42.0107 11.8945 38.6916 11.3281 35.5186 11.3281C28.895 11.3281 24.5654 15.3428 24.5654 22.6109V29H17.2021V37.3828H24.5654V57.6477C26.0419 57.8794 27.5551 58 29.0967 58C30.6382 58 32.1514 57.8794 33.6279 57.6477V37.3828H40.3852Z" fill="white"/>
</svg>
