<svg width="66" height="66" viewBox="0 0 66 66" fill="none" xmlns="http://www.w3.org/2000/svg">
<g clip-path="url(#clip0_0_215)">
<path d="M53.1094 0H12.8906C5.77133 0 0 5.77133 0 12.8906V53.1094C0 60.2287 5.77133 66 12.8906 66H53.1094C60.2287 66 66 60.2287 66 53.1094V12.8906C66 5.77133 60.2287 0 53.1094 0Z" fill="#1D144B"/>
<path d="M3.86719 15.4688V53.1094C3.86719 55.5025 4.81787 57.7977 6.51009 59.4899C8.20231 61.1821 10.4975 62.1328 12.8906 62.1328H53.1094C55.5025 62.1328 57.7977 61.1821 59.4899 59.4899C61.1821 57.7977 62.1328 55.5025 62.1328 53.1094V15.4688H3.86719Z" fill="white"/>
<path opacity="0.7" d="M53.1093 3.86719H12.8906C10.7208 3.86725 8.6237 4.64915 6.98352 6.06963C5.34334 7.49011 4.26993 9.45404 3.95996 11.6016H62.04C61.73 9.45404 60.6566 7.49011 59.0164 6.06963C57.3762 4.64915 55.2791 3.86725 53.1093 3.86719ZM47.6953 9.02344C47.4403 9.02344 47.1911 8.94784 46.9791 8.80619C46.7671 8.66455 46.6019 8.46322 46.5043 8.22768C46.4068 7.99213 46.3812 7.73295 46.431 7.48289C46.4807 7.23284 46.6035 7.00315 46.7838 6.82287C46.964 6.64259 47.1937 6.51982 47.4438 6.47008C47.6938 6.42034 47.953 6.44587 48.1886 6.54344C48.4241 6.641 48.6254 6.80622 48.7671 7.01821C48.9087 7.23019 48.9843 7.47942 48.9843 7.73438C48.9843 8.07626 48.8485 8.40413 48.6068 8.64588C48.365 8.88763 48.0372 9.02344 47.6953 9.02344ZM51.5625 9.02344C51.3075 9.02344 51.0583 8.94784 50.8463 8.80619C50.6343 8.66455 50.4691 8.46322 50.3715 8.22768C50.274 7.99213 50.2484 7.73295 50.2982 7.48289C50.3479 7.23284 50.4707 7.00315 50.651 6.82287C50.8312 6.64259 51.0609 6.51982 51.311 6.47008C51.561 6.42034 51.8202 6.44587 52.0558 6.54344C52.2913 6.641 52.4926 6.80622 52.6343 7.01821C52.7759 7.23019 52.8515 7.47942 52.8515 7.73438C52.8515 8.07626 52.7157 8.40413 52.474 8.64588C52.2322 8.88763 51.9043 9.02344 51.5625 9.02344ZM55.4296 9.02344C55.1747 9.02344 54.9255 8.94784 54.7135 8.80619C54.5015 8.66455 54.3363 8.46322 54.2387 8.22768C54.1411 7.99213 54.1156 7.73295 54.1654 7.48289C54.2151 7.23284 54.3379 7.00315 54.5181 6.82287C54.6984 6.64259 54.9281 6.51982 55.1782 6.47008C55.4282 6.42034 55.6874 6.44587 55.923 6.54344C56.1585 6.641 56.3598 6.80622 56.5015 7.01821C56.6431 7.23019 56.7187 7.47942 56.7187 7.73438C56.7187 8.07626 56.5829 8.40413 56.3412 8.64588C56.0994 8.88763 55.7715 9.02344 55.4296 9.02344Z" fill="white"/>
<path d="M35.4364 58.7646C40.4151 58.156 44.9867 55.7089 48.254 51.9033C51.5214 48.0977 53.2486 43.2085 53.0968 38.195C52.945 33.1816 50.9251 28.4058 47.4334 24.8049C43.9418 21.2041 39.2305 19.038 34.2241 18.7319C29.2177 18.4257 24.2776 20.0015 20.3732 23.1501C16.4688 26.2987 13.882 30.7928 13.1204 35.7504C12.3588 40.708 13.4775 45.7713 16.2568 49.9466C19.0361 54.1219 23.2754 57.1079 28.1429 58.3185L28.5296 56.675H34.6758L35.4364 58.7646Z" fill="#4269B2"/>
<path d="M28.1415 58.3186V44.9458H23.9907V38.8009H28.1415V36.1583C28.1415 29.3134 31.2353 26.1436 37.9551 26.1436C39.2262 26.1436 41.4214 26.3923 42.3225 26.6424V32.2086C41.8481 32.1609 41.0192 32.1364 40.0022 32.1364C36.7035 32.1364 35.4324 33.3829 35.4324 36.6327V38.8009H42.0067L40.88 44.9445H35.4376V58.7646C32.999 59.0586 30.5274 58.9075 28.1428 58.3186H28.1415Z" fill="white"/>
</g>
<defs>
<clipPath id="clip0_0_215">
<rect width="66" height="66" fill="white"/>
</clipPath>
</defs>
</svg>
