<svg width="24" height="24" viewBox="0 0 24 24" fill="none" xmlns="http://www.w3.org/2000/svg">
<path d="M23.9143 8.47356L21.4018 13.0883C21.2692 13.333 21.0043 13.4756 20.7268 13.4531C20.5911 13.4418 20.4615 13.3914 20.3538 13.308C20.2461 13.2245 20.165 13.1116 20.1203 12.9829L19.7331 11.869C19.2128 12.2009 18.5598 12.6898 17.9204 13.3668C17.3593 13.9608 16.5433 15.0001 15.8111 16.1913L15.8172 8.74361C16.6961 8.02966 17.5314 7.5243 18.2223 7.17362L17.8089 5.86712C17.767 5.73464 17.7652 5.59271 17.8038 5.45924C17.8424 5.32576 17.9197 5.2067 18.0259 5.11707C18.2429 4.93426 18.5486 4.89957 18.8012 5.02988L23.619 7.51258C23.7023 7.55544 23.7762 7.61452 23.8363 7.68633C23.8964 7.75814 23.9416 7.84124 23.9692 7.93075C23.9966 8.02033 24.0058 8.11448 23.9964 8.20768C23.987 8.30089 23.9591 8.39128 23.9143 8.47356ZM15.5621 5.24828H14.4137L14.4052 15.3713C13.5178 12.8873 12.1385 10.6282 10.4031 8.86924C10.1396 8.60051 9.86694 8.34096 9.58556 8.09106V5.24832H8.43712C7.84228 5.26801 7.50197 4.49077 7.9215 4.06698L11.484 0.222891C11.7479 -0.074297 12.2513 -0.074297 12.5152 0.222891L16.0777 4.06698C16.4973 4.49026 16.1574 5.26796 15.5621 5.24828ZM12.8965 15.353C12.0946 13.3062 10.93 11.4135 9.39956 9.8546C8.09311 8.52138 6.78249 7.68362 5.77702 7.17358L6.19046 5.86707C6.39272 5.29468 5.72846 4.73359 5.19811 5.02984L0.380685 7.51253C0.0357793 7.68114 -0.104986 8.14047 0.0853729 8.47356L2.59745 13.0883C2.86304 13.618 3.70346 13.5484 3.87901 12.9829L4.26619 11.869C4.78651 12.2009 5.439 12.6898 6.07838 13.3668C8.2095 15.624 9.20583 18.7819 9.52608 21.9925C9.56639 22.4027 9.58561 22.8293 9.58561 23.2967C9.58561 23.6849 9.90061 23.9999 10.2887 23.9999H13.6961C14.0814 24.008 14.4187 23.6607 14.3988 23.2756C14.3098 20.3363 13.8044 17.6712 12.8965 15.353Z" fill="#3E96F4"/>
</svg>
