<svg width="56" height="56" viewBox="0 0 56 56" fill="none" xmlns="http://www.w3.org/2000/svg">
<circle cx="28" cy="28" r="27.1" fill="url(#paint0_radial_1_1727)" stroke="#C3D8EF" stroke-width="1.8"/>
<path d="M41.9191 39.5431C41.1721 40.4625 40.3356 41.3036 39.4221 42.0537C36.291 44.626 32.4463 46 28.4568 46C27.9347 46 27.4108 45.9765 26.885 45.9291C22.7919 45.5599 19.026 43.7794 16.1469 40.8783L16.2902 42.1041C16.2996 42.1839 16.2921 42.2648 16.2682 42.3415C16.2444 42.4181 16.2047 42.4888 16.1519 42.5488C16.0991 42.6089 16.0342 42.6569 15.9617 42.6898C15.8891 42.7226 15.8105 42.7396 15.731 42.7395C15.5934 42.7393 15.4606 42.6881 15.3578 42.5956C15.255 42.5032 15.1893 42.3758 15.1732 42.2376L14.8234 39.2474C14.8131 39.159 14.8234 39.0694 14.8536 38.9857C14.8838 38.9021 14.9331 38.8267 14.9973 38.7659C15.0617 38.705 15.1392 38.6603 15.2238 38.6353C15.3083 38.6102 15.3975 38.6056 15.4841 38.6217L18.3656 39.1595C18.5123 39.1869 18.6422 39.272 18.7268 39.3962C18.8113 39.5204 18.8436 39.6735 18.8165 39.8218C18.7894 39.97 18.7052 40.1014 18.5823 40.1868C18.4594 40.2723 18.308 40.305 18.1613 40.2776L16.9113 40.0443C22.788 46.0102 32.1392 46.5716 38.7126 41.1714C39.5675 40.4695 40.3503 39.6824 41.0493 38.8221C41.0961 38.7643 41.1537 38.7165 41.2189 38.6813C41.284 38.6461 41.3553 38.6242 41.4288 38.6168C41.5023 38.6095 41.5766 38.6168 41.6472 38.6385C41.7179 38.6602 41.7837 38.6957 41.8408 38.743C41.9561 38.8387 42.0292 38.9767 42.0438 39.1267C42.0585 39.2768 42.0136 39.4265 41.9191 39.5431ZM18.1502 15.597C19.9759 14.097 22.1053 13.0129 24.3653 12.4242L23.4733 13.6319C23.4292 13.6917 23.3971 13.7597 23.3789 13.8321C23.3607 13.9045 23.3568 13.9797 23.3674 14.0536C23.378 14.1275 23.4029 14.1985 23.4407 14.2627C23.4784 14.3269 23.5283 14.3829 23.5875 14.4275C23.6845 14.501 23.8024 14.5406 23.9236 14.5405C24.0112 14.5407 24.0976 14.5201 24.1759 14.4804C24.2542 14.4408 24.3223 14.3831 24.3746 14.3121L26.1566 11.8993C26.2094 11.828 26.2448 11.7451 26.26 11.6574C26.2752 11.5697 26.2698 11.4796 26.2443 11.3943C26.2187 11.3091 26.1737 11.2312 26.1129 11.1667C26.0521 11.1023 25.9772 11.0532 25.8941 11.0235L23.1327 10.033C22.8399 9.92773 22.5184 10.0828 22.4145 10.3786C22.3646 10.5206 22.3726 10.6769 22.4367 10.8131C22.5009 10.9492 22.6158 11.054 22.7564 11.1045L23.6769 11.4346C21.4124 12.0849 19.282 13.202 17.4408 14.7147C14.5437 17.0947 12.5151 20.2766 11.5741 23.9167C10.6523 27.4827 10.8434 31.1813 12.1268 34.6126C12.1528 34.6825 12.1922 34.7465 12.2428 34.8009C12.2933 34.8554 12.354 34.8992 12.4214 34.93C12.4887 34.9607 12.5614 34.9777 12.6352 34.98C12.7091 34.9823 12.7826 34.9698 12.8517 34.9433C12.9208 34.9169 12.9841 34.877 13.0379 34.8259C13.0918 34.7748 13.1351 34.7134 13.1655 34.6454C13.1959 34.5773 13.2127 34.5039 13.215 34.4292C13.2173 34.3546 13.205 34.2803 13.1789 34.2104C10.6925 27.5626 12.6903 20.0824 18.1502 15.597ZM28.4313 16.7487C34.7784 16.7487 39.9422 21.9683 39.9422 28.3842C39.9422 34.8 34.7784 40.0196 28.4313 40.0196C22.0842 40.0196 16.9205 34.8 16.9205 28.3842C16.9205 21.9683 22.0842 16.7487 28.4313 16.7487ZM18.0453 28.3842C18.0453 34.173 22.7044 38.8826 28.4313 38.8826C34.1582 38.8826 38.8174 34.173 38.8174 28.3842C38.8174 22.5952 34.1582 17.8857 28.4313 17.8857C22.7044 17.8857 18.0453 22.5952 18.0453 28.3842ZM27.869 33.0645V33.7318C27.869 33.8826 27.9283 34.0272 28.0337 34.1338C28.1392 34.2404 28.2823 34.3003 28.4314 34.3003C28.5806 34.3003 28.7236 34.2404 28.8291 34.1338C28.9346 34.0272 28.9938 33.8826 28.9938 33.7318V33.0729C29.8895 32.9633 30.6759 32.589 31.1514 32.0333C31.5613 31.5543 31.7361 30.9528 31.657 30.2939C31.4141 28.2714 29.2433 27.9112 28.5301 27.7928C26.6431 27.4796 26.6031 26.6437 26.5898 26.3689C26.5477 25.491 27.2503 25.0136 27.9219 24.8597C28.8137 24.6549 29.9182 24.9399 30.374 26.0371C30.4318 26.1761 30.5418 26.2862 30.6799 26.3432C30.8179 26.4002 30.9728 26.3995 31.1103 26.3412C31.1784 26.3123 31.2402 26.2701 31.2922 26.2171C31.3441 26.164 31.3853 26.1012 31.4132 26.032C31.4411 25.9629 31.4553 25.8889 31.455 25.8143C31.4546 25.7396 31.4397 25.6658 31.4111 25.5969C30.9295 24.4376 29.9701 23.8606 28.9937 23.7072V23.0365C28.9937 22.8858 28.9344 22.7412 28.829 22.6345C28.7235 22.5279 28.5804 22.468 28.4313 22.468C28.2821 22.468 28.1391 22.5279 28.0336 22.6345C27.9281 22.7412 27.8689 22.8858 27.8689 23.0365V23.7121C27.8028 23.7231 27.7373 23.7361 27.6731 23.7508C26.2916 24.0676 25.4047 25.1418 25.4663 26.424C25.5107 27.3494 26.0466 28.5328 28.3477 28.9148C29.7664 29.1502 30.4426 29.6178 30.5403 30.4309C30.5813 30.7722 30.5028 31.0531 30.3005 31.2894C29.963 31.684 29.2668 31.9504 28.527 31.9682C27.6667 31.9897 26.5668 31.6222 26.2949 30.5199C26.2588 30.3736 26.1667 30.2478 26.0389 30.1701C25.911 30.0925 25.7579 30.0693 25.6131 30.1058C25.4684 30.1423 25.3439 30.2354 25.2671 30.3646C25.1903 30.4939 25.1674 30.6487 25.2035 30.795C25.5045 32.0144 26.5377 32.8708 27.869 33.0645ZM19.5086 28.3842C19.5086 23.411 23.5114 19.3648 28.4313 19.3648C33.3513 19.3648 37.3541 23.411 37.3541 28.3842C37.3541 33.3574 33.3513 37.4034 28.4313 37.4034C23.5114 37.4034 19.5086 33.3575 19.5086 28.3842ZM20.6334 28.3842C20.6334 32.7305 24.1316 36.2664 28.4313 36.2664C32.7311 36.2664 36.2293 32.7305 36.2293 28.3842C36.2293 24.0379 32.7311 20.5019 28.4313 20.5019C24.1316 20.5019 20.6334 24.0379 20.6334 28.3842ZM46.8655 32.1195C46.7687 32.0047 46.6308 31.9336 46.4821 31.9216C46.3334 31.9097 46.1861 31.958 46.0727 32.0558L45.3259 32.6996C45.9112 30.3481 46.0156 27.8836 45.6231 25.488C45.1314 22.488 43.863 19.6479 41.9547 17.2745C39.2617 13.9252 35.4591 11.6976 31.2473 11.0019C30.9406 10.9516 30.6516 11.1615 30.6015 11.4713C30.5775 11.6201 30.6129 11.7725 30.7 11.8949C30.787 12.0173 30.9187 12.0997 31.0659 12.1241C35.0056 12.7747 38.5627 14.8585 41.0818 17.9916C44.4508 22.1819 45.5608 27.6483 44.137 32.8032L43.5487 31.4196C43.5195 31.351 43.4773 31.2888 43.4244 31.2368C43.3714 31.1847 43.3089 31.1436 43.2403 31.116C43.1717 31.0883 43.0983 31.0746 43.0245 31.0756C42.9506 31.0766 42.8777 31.0923 42.8099 31.1218C42.742 31.1513 42.6805 31.194 42.629 31.2475C42.5775 31.3009 42.5369 31.3642 42.5095 31.4335C42.4822 31.5029 42.4686 31.577 42.4696 31.6516C42.4706 31.7263 42.4861 31.8 42.5153 31.8686L43.6915 34.635C43.7263 34.7168 43.7796 34.7892 43.8471 34.8464C43.9146 34.9036 43.9945 34.9439 44.0803 34.9642C44.1661 34.9844 44.2554 34.984 44.341 34.963C44.4266 34.9419 44.5061 34.9008 44.5731 34.843L46.8025 32.9209C46.8587 32.8725 46.9049 32.8133 46.9385 32.7468C46.9721 32.6803 46.9924 32.6078 46.9982 32.5334C47.0041 32.459 46.9954 32.3841 46.9726 32.3131C46.9498 32.2421 46.9135 32.1763 46.8655 32.1195Z" fill="#3E96F4"/>
<defs>
<radialGradient id="paint0_radial_1_1727" cx="0" cy="0" r="1" gradientUnits="userSpaceOnUse" gradientTransform="translate(28 28) rotate(90) scale(28)">
<stop offset="0.591346" stop-color="#3E96F4" stop-opacity="0"/>
<stop offset="0.822115" stop-color="#3E96F4" stop-opacity="0.1"/>
<stop offset="1" stop-color="#3E96F4" stop-opacity="0.3"/>
</radialGradient>
</defs>
</svg>
