<svg width="68" height="68" viewBox="0 0 68 68" fill="none" xmlns="http://www.w3.org/2000/svg">
<circle cx="32" cy="32" r="33" transform="matrix(1 0 0 -1 2 66)" fill="#3E96F4" stroke="white" stroke-width="2"/>
<path d="M41.6397 27.558H43.0734C43.5991 27.558 44.0292 27.1278 44.0292 26.6022C44.0292 26.0765 43.5991 25.6464 43.0734 25.6464H41.6397C41.114 25.6464 40.6839 26.0765 40.6839 26.6022C40.6839 27.1278 41.114 27.558 41.6397 27.558Z" fill="white"/>
<path d="M55.7854 19.0514C55.4509 18.3823 54.7818 18 54.065 18H13.9216C13.2047 18 12.5357 18.4301 12.2012 19.0514C11.8666 19.7204 11.9622 20.4851 12.3923 21.0585L29.2621 42.2772V56.0884C29.2621 56.8053 29.6444 57.4265 30.2657 57.7611C30.5524 57.9044 30.8392 58 31.1737 58C31.556 58 31.9383 57.9044 32.2728 57.6655L37.5775 53.9857C38.3421 53.4122 38.7722 52.552 38.7722 51.644V42.2294L55.5942 21.0585C56.0243 20.4851 56.1199 19.7204 55.7854 19.0514ZM37.0518 41.3214C36.9562 41.4648 36.8607 41.6559 36.8607 41.8949V51.5962C36.8607 51.9307 36.7173 52.2174 36.4783 52.4086L31.1737 56.0884V41.8949C31.1737 41.5603 31.0303 41.2736 30.7914 41.1302L19.9909 27.5579H37.3386C37.8642 27.5579 38.2943 27.1278 38.2943 26.6021C38.2943 26.0765 37.8642 25.6464 37.3386 25.6464H18.5094L13.9216 19.9116H54.065L37.0518 41.3214Z" fill="white"/>
</svg>
