<svg width="64" height="64" viewBox="0 0 64 64" fill="none" xmlns="http://www.w3.org/2000/svg">
<path d="M0 8C0 3.58172 3.58172 0 8 0H56C60.4183 0 64 3.58172 64 8V56C64 60.4183 60.4183 64 56 64H8C3.58172 64 0 60.4183 0 56V8Z" fill="#EBF4FE"/>
<path d="M47.6289 45.8586L47.2715 43.9352C47.0511 42.7486 46.5232 41.6407 45.7407 40.7219C44.9581 39.8032 43.9482 39.1058 42.8118 38.6994L40.3846 37.8313C38.8459 37.2833 37.4739 36.9871 36.2075 36.8305C36.0136 37.0449 35.8091 37.2494 35.5947 37.4433C36.2075 37.5046 36.8577 37.5999 37.5692 37.7463C36.2061 43.1905 27.3497 43.2312 25.9503 37.7735C26.6327 37.6271 27.3225 37.518 28.0167 37.4467C27.8154 37.2491 27.6246 37.0411 27.4448 36.8237C24.1052 37.2493 22.0082 38.3999 20.8507 38.7131C18.5868 39.5335 16.9119 41.474 16.4353 43.8366L16.037 45.8315C15.809 46.9549 16.6634 48 17.8073 48H45.8519C46.9821 47.9999 47.8366 46.9719 47.6289 45.8586Z" fill="#3E96F4"/>
<path d="M40.0578 25.9877C39.731 26.1204 39.3463 26.1239 38.982 25.9672C38.4481 25.7353 37.904 25.5275 37.3514 25.3442C37.4808 25.6779 37.5659 26.0489 37.5999 26.4575C37.7157 26.8319 37.6782 27.237 37.5386 27.6013C37.0859 28.7826 36.6093 29.9333 36.119 30.6516C35.6152 31.3835 34.7539 31.4924 34.2092 30.815C32.936 29.2218 30.6041 29.2218 29.3343 30.815C28.7896 31.4924 27.9283 31.3835 27.4245 30.6516C26.9547 29.9605 26.4951 28.8711 26.0593 27.7375C25.9645 27.489 25.9227 27.2234 25.9368 26.9579C26.0151 25.8175 25.9742 25.6812 26.0832 25.3783C24.6091 25.8822 24.4933 26.0864 23.9997 26.0864C23.8398 26.0864 23.6866 26.0592 23.5402 26.0081C23.53 26.6651 23.547 27.1417 23.5742 27.2916C23.5844 27.3256 24.0304 29.2116 24.2925 29.6065C24.5546 30.0048 24.9359 30.7572 25.5759 30.5427H25.5793C26.0967 33.5827 27.1351 36.2585 29.8585 38.0798C31.0772 38.8934 32.5105 38.8628 33.6815 38.0798C37.1335 35.7751 37.8824 32.9836 38.1071 30.5325C38.6246 30.8763 39.2339 30.2125 39.4927 29.6031C39.7208 29.0652 40.2042 27.3222 40.211 27.2848C40.2961 26.8523 40.2927 26.3519 40.0578 25.9877ZM31.7581 33.4158C30.7198 33.4158 29.8823 32.8575 29.8823 32.1596C29.8823 31.4685 30.7198 30.9068 31.7581 30.9068C32.7931 30.9068 33.6305 31.4685 33.6305 32.1596C33.6305 32.8576 32.7931 33.4158 31.7581 33.4158Z" fill="#3E96F4"/>
<path d="M24.2888 25.3439C29.2771 23.1795 34.2654 23.1795 39.2537 25.3439C39.7301 25.5507 40.2627 25.2071 40.2627 24.6877V21.369C40.2627 19.0021 38.6054 16.9498 36.2877 16.4697C33.2633 15.8432 30.2497 15.8446 27.2467 16.4671C24.932 16.947 23.2797 19.0007 23.2797 21.3646V24.6876C23.2797 25.2071 23.8122 25.5507 24.2888 25.3439Z" fill="#3E96F4"/>
</svg>
