<svg width="64" height="64" viewBox="0 0 64 64" fill="none" xmlns="http://www.w3.org/2000/svg">
<rect width="64" height="64" fill="#EDF5FC"/>
<path d="M43.0957 38.7238L39.6309 35.2534C39.2417 34.8621 38.6135 34.8621 38.2243 35.2534L38.1352 35.343L36.3583 33.556C38.4681 30.1281 38.0415 25.5733 35.0877 22.6028C31.6369 19.1324 26.0388 19.1324 22.5881 22.6028C19.1373 26.0731 19.1373 31.7029 22.5881 35.1733C25.5934 38.1957 30.2257 38.587 33.653 36.3426L35.3971 38.0967L35.294 38.1957C34.9048 38.587 34.9048 39.2236 35.294 39.6149L38.7541 43.0947C39.9544 44.3018 41.9001 44.3018 43.1004 43.0947C44.3006 41.8876 44.3007 39.9308 43.0957 38.7238ZM32.9028 32.976C30.657 35.2346 27.014 35.2346 24.7635 32.976C22.5131 30.7175 22.5177 27.0538 24.7635 24.7906C27.0094 22.5273 30.6523 22.532 32.9028 24.7906C35.144 27.0538 35.144 30.7175 32.9028 32.976Z" fill="#3E96F4"/>
</svg>
