<svg width="64" height="64" viewBox="0 0 64 64" fill="none" xmlns="http://www.w3.org/2000/svg">
<path d="M0 8C0 3.58172 3.58172 0 8 0H56C60.4183 0 64 3.58172 64 8V56C64 60.4183 60.4183 64 56 64H8C3.58172 64 0 60.4183 0 56V8Z" fill="white"/>
<path fill-rule="evenodd" clip-rule="evenodd" d="M42.7109 30.7256C44.5808 32.7976 45.9755 34.5952 46.8936 36.207C50.2031 42.0181 45.62 47.9189 39.3662 47.999H38.7676C32.514 47.9187 27.9317 42.018 31.2412 36.207C32.1593 34.5953 33.5532 32.7975 35.4229 30.7256C35.6514 30.798 35.8901 30.8351 36.1299 30.835H42.0049C42.2508 30.8349 42.488 30.7962 42.7109 30.7256ZM39.042 33.8037C38.8852 33.8037 38.7349 33.8658 38.623 33.9756C38.5112 34.0855 38.4462 34.2348 38.4434 34.3916V34.8643C37.9901 34.9557 37.5645 35.1472 37.2217 35.4258C36.6946 35.8544 36.3598 36.4771 36.3975 37.2529C36.4353 38.0325 36.8246 38.5556 37.3662 38.9092C37.8383 39.2173 38.4185 39.3761 38.9531 39.4639C39.3825 39.5344 39.8412 39.6462 40.1895 39.8564C40.4679 40.0246 40.6769 40.2706 40.7217 40.6387C40.7276 40.6878 40.7309 40.7243 40.7314 40.7471C40.7383 41.0397 40.5979 41.2623 40.3877 41.4219C40.1243 41.6217 39.7546 41.7402 39.3848 41.7852C39.2841 41.7973 39.1957 41.8039 39.1211 41.8057L39.0928 41.8066C39.076 41.8052 39.0589 41.8047 39.042 41.8047C39.0278 41.8046 39.0132 41.8046 38.999 41.8057C38.6034 41.7953 38.2192 41.6883 37.9131 41.4844C37.6359 41.2998 37.4244 41.0295 37.3359 40.6748C37.3172 40.5987 37.2837 40.527 37.2373 40.4639C37.1909 40.4007 37.1325 40.3472 37.0654 40.3066C36.9985 40.2661 36.924 40.2394 36.8467 40.2275C36.7692 40.2157 36.6894 40.2186 36.6133 40.2373C36.5372 40.256 36.4654 40.2896 36.4023 40.3359C36.3392 40.3824 36.2857 40.4417 36.2451 40.5088C36.2047 40.5758 36.1778 40.6502 36.166 40.7275C36.1542 40.805 36.1581 40.8839 36.1768 40.96C36.3438 41.63 36.7383 42.137 37.2539 42.4805C37.606 42.715 38.0152 42.8698 38.4434 42.9453V43.4102C38.4451 43.5677 38.5091 43.7183 38.6211 43.8291C38.7331 43.94 38.8844 44.0019 39.042 44.002C39.1996 44.002 39.3508 43.9399 39.4629 43.8291C39.5749 43.7183 39.6389 43.5677 39.6406 43.4102V42.957C40.1611 42.8777 40.691 42.6869 41.1074 42.3711C41.6077 41.9915 41.9411 41.4482 41.9238 40.7188C41.9225 40.6454 41.9174 40.5719 41.9092 40.499C41.8122 39.6998 41.3799 39.1793 40.8066 38.833C40.3029 38.5288 39.6984 38.377 39.1445 38.2861C38.745 38.2205 38.3238 38.1094 38.0156 37.9082C37.777 37.7523 37.6059 37.5261 37.5898 37.1963C37.5726 36.8395 37.7291 36.5512 37.9746 36.3516C38.1669 36.1954 38.412 36.0867 38.6777 36.0332C38.786 36.0115 38.8965 35.9989 39.0068 35.9961C39.0329 35.9977 39.059 35.998 39.085 35.9961C39.232 35.9982 39.3807 36.0171 39.5254 36.0537C39.9701 36.1666 40.3746 36.4599 40.5879 36.9678C40.7157 37.2724 41.0665 37.4157 41.3711 37.2881C41.6758 37.1603 41.8192 36.8095 41.6914 36.5049C41.3158 35.6103 40.6006 35.0938 39.8145 34.8945C39.7569 34.8799 39.699 34.8665 39.6406 34.8555V34.3916C39.6378 34.2349 39.5737 34.0855 39.4619 33.9756C39.35 33.8657 39.1989 33.8037 39.042 33.8037Z" fill="#3E96F4"/>
<path fill-rule="evenodd" clip-rule="evenodd" d="M35.7246 16C37.3377 16.0002 38.6572 17.3204 38.6572 18.9336V20.417C37.8563 20.5572 37.178 21.102 36.8652 21.8506C36.4027 21.6609 35.8967 21.6243 35.4209 21.7334V20.8848C35.4209 20.5133 35.1175 20.21 34.7461 20.21H19.9111C19.5397 20.21 19.2363 20.5133 19.2363 20.8848V23.5312C19.2363 23.9027 19.5397 24.2061 19.9111 24.2061H33.5781C33.6132 24.7661 33.8441 25.3157 34.2705 25.7422L34.9707 26.4434C34.5722 26.6709 34.2481 27.009 34.0381 27.417H31.6064C31.2351 27.417 30.9326 27.7204 30.9326 28.0918V28.9688C30.9329 29.3399 31.2352 29.6425 31.6064 29.6426H34.0859C34.2009 29.8446 34.346 30.0285 34.5146 30.1885C33.9454 30.8198 33.3757 31.4745 32.8291 32.1465H31.6064C31.2351 32.1465 30.9327 32.4489 30.9326 32.8203V33.6973C30.9327 33.9342 31.0555 34.1434 31.2412 34.2637C30.9199 34.736 30.6185 35.2139 30.3438 35.6963C28.9986 38.0582 28.6796 40.7879 29.7354 43.3105H18.9336C17.3202 43.3105 16 41.9903 16 40.377V18.9336C16 17.3203 17.3202 16 18.9336 16H35.7246ZM20.5303 36.875C20.1591 36.8752 19.8566 37.1776 19.8564 37.5488V38.4258C19.8565 38.7971 20.159 39.0994 20.5303 39.0996H23.0508C23.4222 39.0996 23.7256 38.7972 23.7256 38.4258V37.5488C23.7254 37.1775 23.4221 36.875 23.0508 36.875H20.5303ZM26.0684 36.875C25.6971 36.8751 25.3947 37.1776 25.3945 37.5488V38.4258C25.3945 38.7971 25.697 39.0995 26.0684 39.0996H28.5889C28.9603 39.0996 29.2637 38.7972 29.2637 38.4258V37.5488C29.2635 37.1775 28.9602 36.875 28.5889 36.875H26.0684ZM20.5303 32.1455C20.159 32.1457 19.8564 32.4491 19.8564 32.8203V33.6973C19.8566 34.0684 20.1591 34.3709 20.5303 34.3711H23.0508C23.4221 34.3711 23.7254 34.0686 23.7256 33.6973V32.8203C23.7256 32.4489 23.4222 32.1455 23.0508 32.1455H20.5303ZM26.0684 32.1455C25.697 32.1456 25.3945 32.449 25.3945 32.8203V33.6973C25.3947 34.0685 25.6971 34.371 26.0684 34.3711H28.5889C28.9602 34.3711 29.2635 34.0686 29.2637 33.6973V32.8203C29.2637 32.4489 28.9603 32.1455 28.5889 32.1455H26.0684ZM20.5303 27.417C20.159 27.4172 19.8564 27.7205 19.8564 28.0918V28.9678C19.8564 29.3391 20.159 29.6424 20.5303 29.6426H23.0508C23.4222 29.6426 23.7256 29.3392 23.7256 28.9678V28.0918C23.7256 27.7204 23.4222 27.417 23.0508 27.417H20.5303ZM26.0684 27.417C25.697 27.4171 25.3945 27.7204 25.3945 28.0918V28.9678C25.3945 29.3391 25.697 29.6425 26.0684 29.6426H28.5889C28.9603 29.6426 29.2637 29.3392 29.2637 28.9678V28.0918C29.2637 27.7204 28.9603 27.417 28.5889 27.417H26.0684Z" fill="#3E96F4"/>
<path d="M42.0049 27.1689C42.729 27.1691 43.3212 27.7612 43.3213 28.4854C43.3213 29.2095 42.7291 29.8026 42.0049 29.8027H36.1299C35.4055 29.8027 34.8125 29.2097 34.8125 28.4854C34.8126 27.7611 35.4056 27.1689 36.1299 27.1689H42.0049Z" fill="#3E96F4"/>
<path d="M39.0674 21.4141C39.7014 21.4142 40.2545 21.8615 40.3896 22.4805C40.4398 22.7099 40.5859 22.8847 40.8027 22.9746C41.02 23.0646 41.2476 23.044 41.4453 22.917C41.9685 22.5813 42.6772 22.6422 43.1338 23.0986L43.2266 23.2012C43.6583 23.7314 43.6272 24.5193 43.1338 25.0127L42.0098 26.1367H36.124L35 25.0127C34.4737 24.4864 34.4737 23.6249 35 23.0986C35.4475 22.6511 36.1559 22.5754 36.6885 22.917C36.8863 23.044 37.114 23.0645 37.3311 22.9746C37.548 22.8847 37.6949 22.71 37.7451 22.4805C37.8778 21.873 38.4215 21.4142 39.0674 21.4141Z" fill="#3E96F4"/>
</svg>
