<svg width="84" height="84" viewBox="0 0 84 84" fill="none" xmlns="http://www.w3.org/2000/svg">
<g filter="url(#filter0_d_1_733)">
<rect x="6" y="6" width="72" height="72" rx="36" fill="white"/>
<rect x="7" y="7" width="70" height="70" rx="35" stroke="#3E96F4" stroke-width="2"/>
</g>
<path d="M60.0959 32.1754H48.9909C49.3996 31.0253 49.5261 29.7939 49.3599 28.5847C49.1937 27.3756 48.7395 26.224 48.0356 25.2268C47.3317 24.2297 46.3987 23.4161 45.315 22.8546C44.2313 22.2931 43.0285 22 41.808 22C40.5874 22 39.3847 22.2931 38.301 22.8546C37.2173 23.4161 36.2843 24.2297 35.5804 25.2268C34.8765 26.224 34.4223 27.3756 34.2561 28.5847C34.0899 29.7939 34.2164 31.0253 34.6251 32.1754H23.5201C23.1165 32.1759 22.7296 32.3365 22.4443 32.6219C22.1589 32.9073 21.9984 33.2942 21.9979 33.6978V60.4779C21.9985 60.8815 22.159 61.2683 22.4443 61.5536C22.7297 61.839 23.1165 61.9995 23.5201 62H60.0959C60.4994 61.9994 60.8862 61.8389 61.1715 61.5535C61.4568 61.2682 61.6173 60.8814 61.6178 60.4779V33.6978C61.6173 33.2942 61.4569 32.9074 61.1716 32.622C60.8863 32.3366 60.4994 32.176 60.0959 32.1754ZM41.808 23.2266C43.0731 23.2266 44.3099 23.6017 45.3618 24.3046C46.4137 25.0075 47.2336 26.0065 47.7177 27.1753C48.2019 28.3442 48.3285 29.6303 48.0817 30.8711C47.8349 32.112 47.2257 33.2517 46.3311 34.1463C45.4365 35.0409 44.2967 35.6501 43.0559 35.897C41.8151 36.1438 40.5289 36.0171 39.3601 35.533C38.1913 35.0488 37.1922 34.2289 36.4894 33.177C35.7865 32.1251 35.4113 30.8884 35.4113 29.6232C35.4133 27.9273 36.0878 26.3014 37.287 25.1022C38.4862 23.903 40.1121 23.2285 41.808 23.2266ZM60.3915 60.4779C60.3915 60.5564 60.3603 60.6316 60.3048 60.687C60.2494 60.7425 60.1742 60.7737 60.0957 60.7737H23.5201C23.4416 60.7737 23.3664 60.7425 23.311 60.687C23.2555 60.6316 23.2243 60.5564 23.2242 60.4779V33.6978C23.2242 33.6193 23.2554 33.544 23.3109 33.4885C23.3664 33.433 23.4416 33.4018 23.5201 33.4017H35.1894C35.8555 34.5693 36.8186 35.54 37.981 36.2151C39.1434 36.8903 40.4637 37.2459 41.808 37.2459C43.1522 37.2459 44.4725 36.8903 45.6349 36.2151C46.7973 35.54 47.7604 34.5693 48.4265 33.4017H60.0959C60.1744 33.4018 60.2495 33.433 60.305 33.4885C60.3605 33.5439 60.3916 33.6191 60.3917 33.6976L60.3915 60.4779ZM57.2767 44.0021C57.2767 44.1647 57.2121 44.3207 57.0971 44.4357C56.9821 44.5506 56.8261 44.6152 56.6635 44.6152H42.9523C42.7897 44.6152 42.6337 44.5506 42.5187 44.4357C42.4037 44.3207 42.3392 44.1647 42.3392 44.0021C42.3392 43.8395 42.4037 43.6835 42.5187 43.5686C42.6337 43.4536 42.7897 43.389 42.9523 43.389H56.6637C56.8263 43.389 56.9822 43.4535 57.0972 43.5685C57.2121 43.6834 57.2766 43.8395 57.2767 44.0021ZM57.2767 47.7188C57.2767 47.8814 57.2121 48.0373 57.0971 48.1523C56.9821 48.2673 56.8261 48.3319 56.6635 48.3319H42.9523C42.7897 48.3319 42.6337 48.2673 42.5187 48.1523C42.4037 48.0373 42.3392 47.8814 42.3392 47.7188C42.3392 47.5561 42.4037 47.4002 42.5187 47.2852C42.6337 47.1702 42.7897 47.1056 42.9523 47.1056H56.6637C56.8263 47.1056 56.9822 47.1702 57.0972 47.2851C57.2121 47.4 57.2766 47.5562 57.2767 47.7188ZM27.5986 55.3052H38.2077C38.3703 55.3052 38.5263 55.2406 38.6412 55.1256C38.7562 55.0106 38.8208 54.8547 38.8208 54.6921V42.5272C38.8208 42.3646 38.7562 42.2087 38.6412 42.0937C38.5263 41.9787 38.3703 41.9141 38.2077 41.9141H34.6713C34.5087 41.9141 34.3527 41.9787 34.2378 42.0937C34.1228 42.2087 34.0582 42.3646 34.0582 42.5272V45.5163H31.135C30.9724 45.5163 30.8165 45.5809 30.7015 45.6958C30.5865 45.8108 30.5219 45.9668 30.5219 46.1294V48.3909H27.5986C27.436 48.3909 27.2801 48.4555 27.1651 48.5705C27.0501 48.6855 26.9855 48.8414 26.9855 49.004V54.6921C26.9855 54.8547 27.0501 55.0106 27.1651 55.1256C27.2801 55.2406 27.436 55.3052 27.5986 55.3052ZM35.2844 43.1404H37.5946V54.0789H35.2844V43.1404ZM31.7481 46.7425H34.0582V54.0789H31.7481V46.7425ZM28.2118 49.6172H30.5219V54.0789H28.2118V49.6172ZM39.393 32.8395C39.7399 33.1835 40.2078 33.3778 40.6964 33.3805C41.1849 33.3832 41.655 33.1941 42.0056 32.8538L46.2382 28.7308C46.7129 28.2666 46.8291 27.792 46.8426 27.4756C46.8526 27.2643 46.8189 27.0532 46.7437 26.8554C46.6684 26.6577 46.5533 26.4776 46.4053 26.3264C46.2574 26.1751 46.0798 26.056 45.8838 25.9765C45.6878 25.8969 45.4775 25.8586 45.266 25.8639C44.9493 25.8708 44.4721 25.9766 43.9986 26.4397L40.7173 29.6344L39.604 28.5229C39.1208 28.0402 38.5104 27.8528 37.9293 28.009C37.6643 28.0806 37.4228 28.2206 37.2288 28.4148C37.0349 28.6091 36.8954 28.8509 36.8242 29.116C36.6687 29.6972 36.8569 30.3072 37.3403 30.7902L39.393 32.8395ZM38.0091 29.4322C38.0249 29.3752 38.0552 29.3232 38.097 29.2813C38.1389 29.2395 38.1908 29.2091 38.2478 29.1932C38.2753 29.1859 38.3036 29.1822 38.3321 29.1823C38.4894 29.1961 38.6351 29.2709 38.738 29.3907L40.2791 30.9289C40.3931 31.0427 40.5473 31.1071 40.7084 31.1081C40.8695 31.1091 41.0245 31.0466 41.1399 30.9343L44.8557 27.3168C44.9682 27.1889 45.1244 27.1077 45.2937 27.0891C45.3374 27.0874 45.381 27.0948 45.4216 27.111C45.4623 27.1272 45.4991 27.1517 45.5297 27.183C45.5603 27.2143 45.584 27.2516 45.5993 27.2926C45.6146 27.3336 45.6211 27.3773 45.6184 27.421C45.5962 27.5893 45.5118 27.7433 45.382 27.8527L41.1493 31.9756C41.03 32.0916 40.87 32.156 40.7036 32.1552C40.5373 32.1543 40.3779 32.0882 40.2598 31.9711L38.2067 29.9224C38.0393 29.7553 37.9694 29.581 38.0091 29.4322Z" fill="black"/>
<path d="M50.0996 52.1521C50.2146 52.0372 50.2792 51.8812 50.2792 51.7186C50.2791 51.556 50.2147 51.3999 50.0997 51.285C49.9847 51.17 49.8288 51.1055 49.6662 51.1055H42.9548C42.7922 51.1055 42.6362 51.1701 42.5213 51.285C42.4063 51.4 42.3417 51.556 42.3417 51.7186C42.3417 51.8812 42.4063 52.0372 42.5213 52.1521C42.6362 52.2671 42.7922 52.3317 42.9548 52.3317H49.666C49.8287 52.3317 49.9846 52.2671 50.0996 52.1521Z" fill="black"/>
<defs>
<filter id="filter0_d_1_733" x="0" y="0" width="84" height="84" filterUnits="userSpaceOnUse" color-interpolation-filters="sRGB">
<feFlood flood-opacity="0" result="BackgroundImageFix"/>
<feColorMatrix in="SourceAlpha" type="matrix" values="0 0 0 0 0 0 0 0 0 0 0 0 0 0 0 0 0 0 127 0" result="hardAlpha"/>
<feOffset/>
<feGaussianBlur stdDeviation="3"/>
<feComposite in2="hardAlpha" operator="out"/>
<feColorMatrix type="matrix" values="0 0 0 0 0.243137 0 0 0 0 0.588235 0 0 0 0 0.956863 0 0 0 0.25 0"/>
<feBlend mode="normal" in2="BackgroundImageFix" result="effect1_dropShadow_1_733"/>
<feBlend mode="normal" in="SourceGraphic" in2="effect1_dropShadow_1_733" result="shape"/>
</filter>
</defs>
</svg>
