<svg width="69" height="69" viewBox="0 0 69 69" fill="none" xmlns="http://www.w3.org/2000/svg">
<rect width="69" height="69" rx="8" fill="#DFE6FF"/>
<path d="M29.6026 36H25.9307V21.25C25.9307 19.4896 25.9724 18.0938 26.0557 17.0625C25.8162 17.3125 25.5193 17.5885 25.1651 17.8906C24.8214 18.1927 23.6547 19.151 21.6651 20.7656L19.8214 18.4375L26.5401 13.1562H29.6026V36ZM43.597 23.0469C43.597 24.0594 43.2282 24.8375 42.4907 25.3812C41.7532 25.9187 40.697 26.1875 39.322 26.1875C37.9407 26.1875 36.8314 25.9781 35.9939 25.5594V23.6562C37.2126 24.2187 38.347 24.5 39.397 24.5C40.7532 24.5 41.4314 24.0906 41.4314 23.2719C41.4314 23.0094 41.3564 22.7906 41.2064 22.6156C41.0564 22.4406 40.8095 22.2594 40.4657 22.0719C40.122 21.8844 39.6439 21.6719 39.0314 21.4344C37.8376 20.9719 37.0282 20.5094 36.6032 20.0469C36.1845 19.5844 35.9751 18.9844 35.9751 18.2469C35.9751 17.3594 36.3314 16.6719 37.0439 16.1844C37.7626 15.6906 38.7376 15.4437 39.9689 15.4437C41.1876 15.4437 42.3407 15.6906 43.4282 16.1844L42.7157 17.8437C41.597 17.3812 40.6564 17.15 39.8939 17.15C38.7314 17.15 38.1501 17.4812 38.1501 18.1437C38.1501 18.4687 38.3001 18.7437 38.6001 18.9687C38.9064 19.1937 39.5689 19.5031 40.5876 19.8969C41.4439 20.2281 42.0657 20.5312 42.4532 20.8062C42.8407 21.0812 43.1282 21.4 43.3157 21.7625C43.5032 22.1187 43.597 22.5469 43.597 23.0469ZM49.4661 24.4062C50.0036 24.4062 50.5411 24.3219 51.0786 24.1531V25.8125C50.8349 25.9187 50.5193 26.0063 50.1318 26.075C49.7505 26.15 49.3536 26.1875 48.9411 26.1875C46.8536 26.1875 45.8099 25.0875 45.8099 22.8875V17.3H44.3943V16.325L45.913 15.5187L46.663 13.325H48.0224V15.6312H50.9755V17.3H48.0224V22.85C48.0224 23.3812 48.1536 23.775 48.4161 24.0312C48.6849 24.2812 49.0349 24.4062 49.4661 24.4062Z" fill="#31393C"/>
<path d="M25.9331 55.8984C25.9331 56.9141 25.5659 57.7109 24.8316 58.2891C24.0972 58.8672 23.0842 59.1562 21.7925 59.1562C20.5008 59.1562 19.4435 58.9557 18.6206 58.5547V56.7891C19.1415 57.0339 19.6935 57.2266 20.2769 57.3672C20.8654 57.5078 21.4123 57.5781 21.9175 57.5781C22.6571 57.5781 23.2014 57.4375 23.5503 57.1562C23.9045 56.875 24.0816 56.4974 24.0816 56.0234C24.0816 55.5964 23.9201 55.2344 23.5972 54.9375C23.2743 54.6406 22.6076 54.2891 21.5972 53.8828C20.5555 53.4609 19.8211 52.9792 19.3941 52.4375C18.967 51.8958 18.7534 51.2448 18.7534 50.4844C18.7534 49.5312 19.092 48.7812 19.7691 48.2344C20.4461 47.6875 21.355 47.4141 22.4956 47.4141C23.5894 47.4141 24.6779 47.6536 25.7612 48.1328L25.1675 49.6562C24.1519 49.2292 23.2456 49.0156 22.4487 49.0156C21.8446 49.0156 21.3862 49.1484 21.0737 49.4141C20.7612 49.6745 20.605 50.0208 20.605 50.4531C20.605 50.75 20.6675 51.0052 20.7925 51.2188C20.9175 51.4271 21.1232 51.625 21.4097 51.8125C21.6961 52 22.2118 52.2474 22.9566 52.5547C23.7951 52.9036 24.4097 53.2292 24.8003 53.5312C25.1909 53.8333 25.4774 54.1745 25.6597 54.5547C25.842 54.9349 25.9331 55.3828 25.9331 55.8984ZM30.8475 57.6719C31.2954 57.6719 31.7433 57.6016 32.1912 57.4609V58.8438C31.9881 58.9323 31.7251 59.0052 31.4022 59.0625C31.0845 59.125 30.7537 59.1562 30.41 59.1562C28.6704 59.1562 27.8006 58.2396 27.8006 56.4062V51.75H26.6209V50.9375L27.8866 50.2656L28.5116 48.4375H29.6444V50.3594H32.1053V51.75H29.6444V56.375C29.6444 56.8177 29.7537 57.1458 29.9725 57.3594C30.1965 57.5677 30.4881 57.6719 30.8475 57.6719ZM37.3791 59.1562C36.0353 59.1562 34.9832 58.7656 34.2228 57.9844C33.4676 57.1979 33.09 56.1172 33.09 54.7422C33.09 53.3307 33.4416 52.2214 34.1447 51.4141C34.8478 50.6068 35.814 50.2031 37.0431 50.2031C38.1838 50.2031 39.0848 50.5495 39.7463 51.2422C40.4077 51.9349 40.7384 52.888 40.7384 54.1016V55.0938H34.9806C35.0067 55.9323 35.2332 56.5781 35.6603 57.0312C36.0874 57.4792 36.689 57.7031 37.465 57.7031C37.9754 57.7031 38.4494 57.6562 38.8869 57.5625C39.3296 57.4635 39.8035 57.3021 40.3088 57.0781V58.5703C39.8608 58.7839 39.4077 58.9349 38.9494 59.0234C38.491 59.112 37.9676 59.1562 37.3791 59.1562ZM37.0431 51.5938C36.4598 51.5938 35.991 51.7786 35.6369 52.1484C35.2879 52.5182 35.0796 53.0573 35.0119 53.7656H38.9338C38.9233 53.0521 38.7515 52.513 38.4181 52.1484C38.0848 51.7786 37.6265 51.5938 37.0431 51.5938ZM46.8872 59.1562C45.7934 59.1562 44.9445 58.763 44.3403 57.9766H44.2309C44.3039 58.7057 44.3403 59.1484 44.3403 59.3047V62.8438H42.5044V50.3594H43.9888C44.0304 50.5208 44.1164 50.9062 44.2466 51.5156H44.3403C44.9132 50.6406 45.7726 50.2031 46.9184 50.2031C47.9966 50.2031 48.8351 50.5938 49.4341 51.375C50.0382 52.1562 50.3403 53.2526 50.3403 54.6641C50.3403 56.0755 50.033 57.1771 49.4184 57.9688C48.8091 58.7604 47.9653 59.1562 46.8872 59.1562ZM46.4419 51.7031C45.7127 51.7031 45.1789 51.9167 44.8403 52.3438C44.507 52.7708 44.3403 53.4531 44.3403 54.3906V54.6641C44.3403 55.7161 44.507 56.4792 44.8403 56.9531C45.1736 57.4219 45.7179 57.6562 46.4731 57.6562C47.1085 57.6562 47.5981 57.3958 47.9419 56.875C48.2856 56.3542 48.4575 55.612 48.4575 54.6484C48.4575 53.6797 48.2856 52.9479 47.9419 52.4531C47.6033 51.9531 47.1033 51.7031 46.4419 51.7031Z" fill="#31393C"/>
</svg>
