<svg width="56" height="56" viewBox="0 0 56 56" fill="none" xmlns="http://www.w3.org/2000/svg">
<rect width="56" height="56" rx="6" fill="#007BFF"/>
<path d="M27.4714 29.8512H29.5759V40.2181H27.4714V29.8512ZM26.4191 40.2181V29.8512H23.6642L22.2099 32.7165L20.7557 29.8512H18.0008V40.2181H20.1054V33.206L22.2099 37.3528L24.3145 33.206V40.2181H26.4191ZM35.8896 36.2289L33.462 29.8512H30.6282V40.2181H32.7328V33.8404L35.1605 40.2181H37.9942V29.8512H35.8896V36.2289Z" fill="white"/>
<path d="M44.2096 20.2613C44.533 20.9331 44.8141 21.6246 45.0512 22.3315L45.4304 23.4626L47.6928 22.7043L47.3136 21.5732C47.0447 20.7718 46.7261 19.988 46.3596 19.2264L45.8421 18.1514L43.6922 19.1863L44.2096 20.2613ZM36.6418 12.2574L37.6859 12.8348L38.8406 10.7467L37.7966 10.1693C37.0568 9.76029 36.2922 9.39768 35.5073 9.0836L34.3995 8.64066L33.5136 10.8562L34.6215 11.2992C35.3141 11.5764 35.9889 11.8964 36.6418 12.2574ZM41.7909 16.5099L42.5558 17.4254L44.3869 15.8955L43.6219 14.98C43.0804 14.3322 42.4998 13.7182 41.8832 13.1415L41.0118 12.3265L39.3821 14.0693L40.2535 14.8842C40.7987 15.3942 41.3121 15.9371 41.7909 16.5099Z" fill="white"/>
<path d="M41.968 39.1935C39.9849 41.6484 35.3411 45.9775 27.998 45.9775C18.0864 45.9775 10.0228 37.9138 10.0228 28.0023C10.0228 23.6694 11.611 19.5385 14.4576 16.2875L14.3212 17.5854L16.6942 17.8348L17.2963 12.1058L11.5673 11.5037L11.3179 13.8767L13.2438 14.0791C9.6536 17.8503 7.63672 22.7956 7.63672 28.0024C7.63672 39.2136 16.7871 48.3636 27.998 48.3636C34.6986 48.3636 40.2873 45.0705 43.824 40.693L44.5738 39.765L42.7177 38.2655L41.968 39.1935ZM48.3062 26.5315L48.2202 25.3416L45.8403 25.5138L45.9264 26.7037C45.9575 27.1336 45.9732 27.5705 45.9731 28.0024C45.9731 28.3139 45.9648 28.6287 45.9482 28.938L45.8844 30.1293L48.2671 30.2568L48.3309 29.0655C48.3497 28.714 48.3592 28.3562 48.3592 28.0025C48.3593 27.5117 48.3416 27.0211 48.3062 26.5315ZM45.145 33.3198C44.918 34.0302 44.6467 34.7256 44.3329 35.402L43.8306 36.4842L45.9949 37.4887L46.4971 36.4066C46.8532 35.6394 47.1608 34.8507 47.4181 34.0451L47.7808 32.9086L45.5077 32.1833L45.145 33.3198ZM30.3041 10.1755L31.4873 10.3288L31.7938 7.96253L30.6107 7.80926C29.7728 7.70104 28.9289 7.64496 28.084 7.64136L26.891 7.63635L26.881 10.0224L28.074 10.0274C28.8192 10.0305 29.5695 10.0803 30.3041 10.1755ZM21.5271 11.3121C22.2419 11.0348 22.9623 10.7991 23.6682 10.6118L24.8213 10.3057L24.2092 7.99951L23.0561 8.30557C22.2654 8.51539 21.4606 8.77857 20.664 9.08765L19.5518 9.51921L20.4149 11.7438L21.5271 11.3121Z" fill="white"/>
<path d="M28.9297 19.0855C29.6673 19.0855 30.3317 19.2722 30.9229 19.6456C31.52 20.0127 31.9824 20.5348 32.3102 21.212C32.6439 21.8893 32.8107 22.6709 32.8107 23.557C32.8107 25.1076 32.3776 26.2974 31.5112 27.1265C30.6507 27.9556 29.3453 28.3702 27.5951 28.3702C26.0965 28.3702 24.8731 28.1202 23.9248 27.6202V24.5443C24.434 24.7974 25.0077 25.0063 25.6458 25.1709C26.2897 25.3354 26.8429 25.4177 27.3053 25.4177C27.9492 25.4177 28.4438 25.2721 28.7892 24.981C29.1346 24.6835 29.3073 24.2468 29.3073 23.6709C29.3073 23.1392 29.1317 22.7247 28.7804 22.4272C28.4292 22.1298 27.8965 21.981 27.1824 21.981C26.638 21.981 26.0497 22.0918 25.4175 22.3133L24.1443 21.6298L24.6272 14.3007H31.9502V17.4241H27.5775L27.4194 19.2564C27.876 19.1614 28.2009 19.1108 28.3941 19.1045C28.5873 19.0918 28.7658 19.0855 28.9297 19.0855Z" fill="white"/>
</svg>
