<svg width="74" height="74" viewBox="0 0 74 74" fill="none" xmlns="http://www.w3.org/2000/svg">
<path d="M63.8969 57.7412C64.4282 57.7412 64.8589 58.1771 64.8589 58.7149V69.1316C64.8589 71.8203 62.7054 74 60.049 74H18.0117C15.3553 73.9999 13.2017 71.8203 13.2017 69.1316V69.0783C13.2017 68.5407 13.6325 68.1048 14.1637 68.1046C14.695 68.1046 15.1257 68.5406 15.1257 69.0783V69.1316C15.1257 70.7448 16.4179 72.0525 18.0117 72.0526H60.049C61.6428 72.0526 62.9349 70.7448 62.9349 69.1316V58.7149C62.9349 58.1773 63.3659 57.7415 63.8969 57.7412Z" fill="#21292C"/>
<path d="M45.3692 63.9617C46.0067 63.9619 46.5238 64.4851 46.5238 65.1303C46.5238 65.7756 46.0067 66.2988 45.3692 66.299H32.6924C32.0548 66.299 31.5378 65.7756 31.5378 65.1303C31.5378 64.485 32.0548 63.9617 32.6924 63.9617H45.3692Z" fill="#21292C"/>
<path d="M15.1388 41.2599C15.7764 41.2599 16.2934 41.7832 16.2934 42.4285V50.6363H24.8903C25.5277 50.6363 26.0447 51.1598 26.0449 51.8049C26.0449 52.4502 25.5278 52.9736 24.8903 52.9736H15.1388C14.5014 52.9734 13.9843 52.4502 13.9843 51.8049V42.4285C13.9843 41.7833 14.5014 41.26 15.1388 41.2599Z" fill="#21292C"/>
<path fill-rule="evenodd" clip-rule="evenodd" d="M16.114 36.5198C24.1852 36.5198 30.7287 43.1422 30.7289 51.3114C30.7289 59.4808 24.1853 66.104 16.114 66.104C8.04287 66.1038 1.5 59.4807 1.5 51.3114C1.50019 43.1423 8.04299 36.52 16.114 36.5198ZM16.114 38.4672C9.10558 38.4674 3.42418 44.2178 3.42398 51.3114C3.42398 58.4052 9.10546 64.1565 16.114 64.1567C23.1227 64.1567 28.8049 58.4053 28.8049 51.3114C28.8047 44.2177 23.1226 38.4672 16.114 38.4672Z" fill="#21292C"/>
<path fill-rule="evenodd" clip-rule="evenodd" d="M64.2464 43.8776C65.3924 42.7179 67.2308 42.6559 68.4504 43.7359L69.4491 44.6202C70.7889 45.8071 70.8574 47.8938 69.5984 49.1682L56.4246 62.5012C56.3285 62.5985 56.2164 62.6783 56.093 62.7361L49.7536 65.6971C49.327 65.8963 48.8235 65.8139 48.4807 65.4888C48.1381 65.1637 48.0246 64.6603 48.1932 64.2166L50.631 57.8011C50.6746 57.6868 50.7355 57.5802 50.8114 57.4854L50.8922 57.3951L64.2464 43.8776ZM52.6978 58.8708L51.3685 62.369L54.9393 60.7012L65.1145 50.4024L63.09 48.3533L52.6978 58.8708ZM66.9304 45.4941C66.6255 45.2242 66.1656 45.2404 65.8792 45.5302L64.7218 46.7017L66.7463 48.7498L67.9657 47.5156C68.2803 47.197 68.2631 46.675 67.9281 46.3784L66.9304 45.4941Z" fill="#21292C"/>
<path d="M55.1216 47.1828C55.7589 47.183 56.2752 47.7063 56.2752 48.3514C56.275 48.9963 55.7588 49.5198 55.1216 49.52H36.5929C35.9555 49.52 35.4386 48.9965 35.4384 48.3514C35.4384 47.7061 35.9554 47.1828 36.5929 47.1828H55.1216Z" fill="#21292C"/>
<path d="M55.1216 41.2599C55.759 41.2601 56.2752 41.7833 56.2752 42.4285C56.2752 43.0736 55.759 43.5969 55.1216 43.5971H34.6426C34.0051 43.5971 33.4881 43.0738 33.4881 42.4285C33.4881 41.7832 34.0051 41.2599 34.6426 41.2599H55.1216Z" fill="#21292C"/>
<path d="M47.4266 0.00570518C48.6155 0.0653407 49.744 0.570366 50.5897 1.4263L63.4507 14.4436C64.3526 15.3566 64.8589 16.5947 64.8589 17.8857V39.961C64.8589 40.4987 64.4282 40.9347 63.8969 40.9347C63.3659 40.9343 62.9349 40.4985 62.9349 39.961V17.8857C62.9349 17.1112 62.6314 16.3682 62.0904 15.8205L49.2294 2.80315C48.7558 2.32389 48.1342 2.02802 47.4736 1.96163L47.188 1.94737H18.0117C16.4179 1.9475 15.1257 3.25525 15.1257 4.86842V32.5585L15.121 32.6584C15.0716 33.1492 14.6617 33.5322 14.1637 33.5322C13.6659 33.5321 13.2558 33.1491 13.2064 32.6584L13.2017 32.5585V4.86842C13.2017 2.17975 15.3553 0.000128469 18.0117 0H47.188L47.4266 0.00570518Z" fill="#21292C"/>
<path d="M55.1216 35.3379C55.7589 35.3382 56.2752 35.8614 56.2752 36.5065C56.2752 37.1516 55.7589 37.6748 55.1216 37.6751H30.7421C30.1045 37.6751 29.5875 37.1518 29.5875 36.5065C29.5875 35.8612 30.1045 35.3379 30.7421 35.3379H55.1216Z" fill="#21292C"/>
<path d="M54.634 29.4159C55.2713 29.4162 55.7886 29.9394 55.7886 30.5845C55.7886 31.2296 55.2713 31.7528 54.634 31.7531H23.4285C22.791 31.7531 22.2739 31.2298 22.2739 30.5845C22.2739 29.9392 22.791 29.4159 23.4285 29.4159H54.634Z" fill="#21292C"/>
<path d="M54.634 23.4939C55.2713 23.4943 55.7886 24.0174 55.7886 24.6625C55.7883 25.3074 55.2711 25.8308 54.634 25.8312H23.4285C22.7911 25.8312 22.2742 25.3076 22.2739 24.6625C22.2739 24.0172 22.791 23.4939 23.4285 23.4939H54.634Z" fill="#21292C"/>
<path d="M54.634 17.572C55.2713 17.5723 55.7886 18.0955 55.7886 18.7406C55.7883 19.3855 55.2711 19.9089 54.634 19.9092H23.4285C22.7911 19.9092 22.2742 19.3857 22.2739 18.7406C22.2739 18.0953 22.791 17.572 23.4285 17.572H54.634Z" fill="#21292C"/>
</svg>
