<svg width="112" height="30" viewBox="0 0 112 30" fill="none" xmlns="http://www.w3.org/2000/svg">
<path d="M17.4978 3.53943L17.8093 1.51145C17.8623 1.19328 17.7695 0.875067 17.5574 0.629818C17.3519 0.384569 17.047 0.245325 16.7223 0.245325H4.40677C3.86325 0.245325 3.40598 0.63633 3.31974 1.17323L0.0122219 22.0855C-0.0342051 22.4036 0.0520419 22.7286 0.26408 22.9739C0.469631 23.2191 0.77452 23.3649 1.09264 23.3649H3.93613C4.47977 23.3649 4.93044 22.9739 5.0233 22.437L6.30252 14.3237H13.3485C13.8854 14.3237 14.3427 13.9327 14.4289 13.3958L14.7206 11.6261C14.7669 11.308 14.6807 10.9832 14.4686 10.738C14.2565 10.4861 13.9516 10.3467 13.6268 10.3467H6.97856L7.84694 4.47413H16.4041C16.9609 4.4675 17.4183 4.08295 17.4978 3.53943ZM82.0512 10.5192L81.9647 10.4859C81.2028 10.2539 80.315 10.1283 79.3406 10.1283C77.7558 10.1283 76.5499 10.7709 75.7613 12.0437C74.9917 13.2964 74.5936 14.7085 74.5936 16.2329C74.5936 17.194 74.7603 18.0025 75.091 18.6321C75.4357 19.2817 75.9267 19.6199 76.5499 19.6199C77.2457 19.6199 78.047 19.169 78.9425 18.2874C79.8176 17.4258 80.619 16.392 81.3084 15.2254L82.0512 10.5192ZM87.2218 8.11324L84.9615 22.4567C84.875 23.0002 84.4171 23.385 83.8739 23.385H82.1975C81.8986 23.385 81.6136 23.2654 81.4076 23.0468C81.2028 22.8346 81.0896 22.5431 81.1036 22.2448L81.1697 20.4682L80.9713 20.687C80.9637 20.6936 80.3213 21.4095 79.5785 21.9862C78.4719 22.8478 77.2457 23.3118 77.1134 23.3649C76.4304 23.6167 75.6951 23.7425 74.9256 23.7425C73.2352 23.7425 71.9759 23.1394 71.055 21.9066C70.1404 20.6803 69.6825 19.05 69.6825 17.0747C69.6825 16.0473 69.7881 15.0332 69.9878 14.0655C70.1926 13.0978 70.5513 12.1167 71.0613 11.1422C71.5714 10.1745 72.215 9.31279 72.9706 8.5903C73.7198 7.8678 74.7132 7.27779 75.9127 6.82705C77.1134 6.38295 78.4846 6.15775 79.9766 6.15775C81.8121 6.15775 83.9541 6.38978 86.3403 6.86039C86.9292 6.9797 87.3146 7.52332 87.2218 8.11324ZM99.2318 6.32346C98.1048 6.58859 97.0045 7.27794 96.2757 7.81484C95.4476 8.42464 94.2609 9.71725 94.2405 9.73051L94.0421 9.9493L94.1477 7.66887C94.1617 7.37059 94.0548 7.07232 93.8424 6.8536C93.6376 6.63486 93.3463 6.51571 93.0474 6.51571H91.3569C90.8138 6.51571 90.3559 6.90009 90.2707 7.44361L87.957 22.112C87.9112 22.4302 88.0028 22.7484 88.2088 22.9937C88.4149 23.239 88.7189 23.3781 89.0445 23.3781H91.6559C92.199 23.3781 92.6569 22.9871 92.7421 22.4502L93.962 14.6419C94.6577 13.6609 95.5596 12.8191 96.6535 12.1297C97.4688 11.6194 98.3032 11.288 99.1389 11.1621C99.5968 11.0891 99.9606 10.7381 100.047 10.2807L100.551 7.59605C100.623 7.23149 100.505 6.8603 100.233 6.6018C99.9809 6.34329 99.5968 6.24391 99.2318 6.32346ZM46.8277 13.6677C46.8277 12.7 46.656 11.8913 46.324 11.2682C45.9793 10.6186 45.496 10.2872 44.8727 10.2872C44.1769 10.2872 43.368 10.7315 42.4801 11.6196C41.5986 12.488 40.8024 13.5151 40.1066 14.6818L39.3647 19.3814L39.4579 19.4079C40.2198 19.6465 41.1013 19.7656 42.082 19.7656C43.6732 19.7656 44.8791 19.1228 45.6613 17.8502C46.4309 16.6041 46.8277 15.1988 46.8277 13.6677ZM50.3613 8.00028C51.2694 9.22653 51.7337 10.8573 51.7337 12.8259C51.7337 14.125 51.5544 15.3975 51.2033 16.6038C50.851 17.8102 50.2951 18.9834 49.5459 20.0971C48.8031 21.1973 47.7295 22.0988 46.3507 22.7616C44.9655 23.431 43.3222 23.776 41.4727 23.776C40.7439 23.776 39.8217 23.7031 38.7349 23.5507L38.6223 23.5374L38.4234 25.5258C38.4168 25.5458 38.4168 25.5654 38.4168 25.592L37.8402 29.0851C37.7473 29.6154 37.2966 30 36.7597 30H34.168C33.8433 30 33.545 29.8607 33.3395 29.6155C33.1274 29.3702 33.0346 29.0519 33.0876 28.7271L36.4681 7.44361C36.5542 6.90671 37.0116 6.52218 37.5552 6.52218H39.2321C39.5304 6.52218 39.8217 6.64149 40.0277 6.8536C40.2325 7.07232 40.3457 7.36395 40.333 7.6556L40.2656 9.45865L40.4653 9.20685C40.4844 9.18697 42.082 7.24478 44.528 6.4759C45.2047 6.26379 45.8534 6.15775 46.5097 6.15775C48.1735 6.16438 49.4403 6.76078 50.3613 8.00028ZM110.831 6.51571H108.789L109.241 3.5993C109.287 3.28114 109.194 2.95631 108.989 2.71769C108.783 2.47244 108.471 2.33318 108.153 2.33318H106.091C105.608 2.33318 105.177 2.65131 105.038 3.12192L104.037 6.51571H102.91C102.367 6.51571 101.917 6.90024 101.83 7.43714L101.572 9.0146C101.525 9.33276 101.605 9.65744 101.824 9.90269C102.029 10.1479 102.334 10.2872 102.658 10.2872H103.341L102.122 18.0952C102.035 18.5857 101.989 19.0963 101.989 19.6332C101.989 21.0185 102.353 22.026 103.11 22.7153C103.852 23.3915 104.985 23.7425 106.49 23.7425C107.391 23.7425 108.663 23.3649 108.816 23.3118C108.936 23.2654 109.161 23.1927 109.187 23.1794C109.235 23.1596 109.28 23.1395 109.32 23.1195C109.638 22.9472 109.844 22.6358 109.883 22.2846L110.075 20.6673C110.108 20.3292 109.99 19.9844 109.738 19.7523C109.664 19.6861 109.592 19.6267 109.505 19.5736C109.446 19.5472 109.394 19.5203 109.334 19.5005C109.293 19.4873 109.194 19.4673 108.803 19.4739C108.71 19.4739 108.611 19.4808 108.512 19.4808C108.333 19.4808 108.22 19.4739 108.16 19.4607C108.007 19.4342 107.629 19.3547 107.437 19.1824C107.344 19.1029 107.059 18.851 107.059 17.923C107.059 17.8303 107.067 17.6911 107.093 17.4923L108.213 10.294H110.527C111.05 10.294 111.508 9.92275 111.607 9.41236L111.912 7.83458C111.978 7.50978 111.892 7.17861 111.679 6.92673C111.474 6.6616 111.163 6.51571 110.831 6.51571ZM69.2844 6.95975C69.0796 6.68136 68.7476 6.51571 68.4029 6.51571H65.672C65.1886 6.51571 64.7575 6.84061 64.6188 7.29796C64.386 8.09336 63.9497 9.00784 63.3061 10.0286C62.4119 11.467 61.6755 12.3553 61.0522 12.7531L60.953 12.7994C60.7342 12.9121 60.3895 13.0775 59.1837 13.2897L59.031 13.3162L60.9199 1.51145C60.967 1.19328 60.8805 0.86844 60.6681 0.629818C60.4633 0.384569 60.158 0.238533 59.84 0.238533H57.2286C56.6842 0.238533 56.2276 0.629856 56.1411 1.16676L52.82 22.1189C52.7666 22.437 52.8594 22.7552 53.0655 23.0005C53.2715 23.2457 53.5819 23.3915 53.9012 23.3915H56.5125C57.0557 23.3915 57.5136 23.0005 57.5988 22.4636L58.4548 17.0016H60.0918L62.3445 22.6956C62.5111 23.1198 62.9156 23.3915 63.3659 23.3915H66.2024C66.8053 23.3915 67.3027 22.9009 67.3027 22.291C67.3027 22.1452 67.2696 21.9929 67.2098 21.8538L64.6315 15.2054L64.6849 15.1591C65.7521 14.198 66.846 12.8324 67.9399 11.1158C68.6484 10.0022 69.1521 8.92835 69.451 7.94074C69.5566 7.59606 69.4905 7.23814 69.2844 6.95975ZM31.4703 5.07061C32.5573 5.07061 33.3727 4.79221 33.8896 4.2288C34.4133 3.65877 34.6718 2.95632 34.6718 2.06811C34.6718 1.37877 34.4795 0.861864 34.0885 0.517197C33.704 0.172518 33.1076 0 32.3121 0C31.2251 0 30.4097 0.285036 29.8994 0.841817C29.3691 1.41185 29.1107 2.12109 29.1107 3.00929C29.1107 3.69863 29.3095 4.2157 29.694 4.55374C30.0916 4.90505 30.6683 5.07061 31.4703 5.07061ZM32.3519 6.51571H29.7669C29.2233 6.51571 28.7726 6.90024 28.6798 7.43714L26.3665 22.112C26.3201 22.4302 26.4063 22.7551 26.6184 22.9937C26.8239 23.239 27.1288 23.3781 27.4469 23.3781H30.0319C30.5755 23.3781 31.0262 22.9871 31.119 22.4502L33.4323 7.78182C33.4787 7.46366 33.3925 7.13882 33.1805 6.9002C32.9749 6.66158 32.6766 6.51571 32.3519 6.51571ZM24.8751 0.629818C25.0807 0.875067 25.18 1.19328 25.127 1.51145L22.5817 17.7509C22.5552 18.0292 22.5485 18.2013 22.5485 18.314C22.5485 18.8575 22.6546 19.2354 22.86 19.4277C23.0524 19.6067 23.4766 19.706 23.5495 19.7193C23.7815 19.7525 24.0001 19.8719 24.1659 20.0443C24.3846 20.2763 24.4973 20.5941 24.4708 20.9123L24.325 22.3706C24.2918 22.6822 24.1592 22.9405 23.967 23.0797C23.7881 23.199 23.5693 23.312 23.291 23.4179C23.0126 23.524 22.2304 23.7494 21.6869 23.7494C20.3148 23.7494 19.2543 23.4311 18.5318 22.8014C17.8159 22.1784 17.4514 21.2702 17.4514 20.0971C17.4514 19.7788 17.4846 19.4279 17.5508 19.05C17.5707 18.891 20.3148 1.37224 20.3479 1.18002C20.4341 0.643135 20.8915 0.2518 21.4351 0.2518H24.0465C24.3648 0.245173 24.6631 0.384569 24.8751 0.629818Z" fill="#2A55E5"/>
</svg>
