<svg width="48" height="48" viewBox="0 0 48 48" fill="none" xmlns="http://www.w3.org/2000/svg">
<circle cx="24" cy="24" r="24" fill="#D1E6FC"/>
<circle cx="24" cy="24" r="19" fill="#2686EC"/>
<path d="M24.041 22.5039C25.3262 22.5039 26.4564 22.7363 27.4316 23.2012C28.416 23.6569 29.1816 24.3314 29.7285 25.2246C30.2754 26.1087 30.5488 27.1934 30.5488 28.4785C30.5488 29.8822 30.2526 31.0944 29.6602 32.1152C29.0677 33.127 28.1973 33.9062 27.0488 34.4531C25.9004 35 24.5013 35.2734 22.8516 35.2734C21.8034 35.2734 20.8236 35.1823 19.9121 35C19.0098 34.8177 18.2305 34.5443 17.5742 34.1797V31.2812C18.2578 31.6641 19.0781 31.9785 20.0352 32.2246C20.9922 32.4616 21.9082 32.5801 22.7832 32.5801C23.7129 32.5801 24.5104 32.4434 25.1758 32.1699C25.8411 31.8965 26.3516 31.4772 26.707 30.9121C27.0716 30.347 27.2539 29.6315 27.2539 28.7656C27.2539 27.6172 26.8848 26.7331 26.1465 26.1133C25.4173 25.4844 24.2734 25.1699 22.7148 25.1699C22.168 25.1699 21.5846 25.2201 20.9648 25.3203C20.3542 25.4115 19.8438 25.5117 19.4336 25.6211L18.0254 24.7871L18.7773 15.0117H29.168V17.8418H21.6074L21.1699 22.8184C21.498 22.7454 21.89 22.6771 22.3457 22.6133C22.8014 22.5404 23.3665 22.5039 24.041 22.5039Z" fill="white"/>
</svg>
