<svg width="66" height="66" viewBox="0 0 66 66" fill="none" xmlns="http://www.w3.org/2000/svg">
<path d="M56 0H10C4.47715 0 0 4.47715 0 10V56C0 61.5228 4.47715 66 10 66H56C61.5228 66 66 61.5229 66 56V10C66 4.47715 61.5229 0 56 0Z" fill="#021C8E"/>
<path d="M47.3472 6.44531H18.6372C17.0353 6.44514 15.449 6.7605 13.969 7.37337C12.4889 7.98624 11.1441 8.88462 10.0112 10.0172C8.87839 11.1498 7.97972 12.4945 7.36654 13.9744C6.75336 15.4543 6.43767 17.0405 6.4375 18.6424V39.823C6.43767 41.4249 6.75336 43.0111 7.36654 44.491C7.97972 45.9709 8.87839 47.3156 10.0112 48.4482C11.1441 49.5808 12.4889 50.4792 13.969 51.0921C15.449 51.7049 17.0353 52.0203 18.6372 52.0201H24.0835L30.6512 58.5853C30.9586 58.8928 31.3236 59.1366 31.7253 59.303C32.1269 59.4694 32.5574 59.5551 32.9922 59.5551C33.427 59.5551 33.8575 59.4694 34.2591 59.303C34.6608 59.1366 35.0257 58.8928 35.3331 58.5853L41.8945 52.0201H47.3472C48.9491 52.0203 50.5354 51.7049 52.0154 51.0921C53.4955 50.4792 54.8403 49.5808 55.9731 48.4482C57.106 47.3156 58.0047 45.9709 58.6178 44.491C59.231 43.0111 59.5467 41.4249 59.5469 39.823V18.6424C59.5467 17.0405 59.231 15.4543 58.6178 13.9744C58.0047 12.4945 57.106 11.1498 55.9731 10.0172C54.8403 8.88462 53.4955 7.98624 52.0154 7.37337C50.5354 6.7605 48.9491 6.44514 47.3472 6.44531Z" fill="white"/>
<path d="M50.1358 40.6248C48.589 39.2468 46.6373 38.1266 45.1085 37.3635C43.7202 36.6725 42.6928 36.2755 42.6734 36.2678C40.3067 35.435 39.4611 34.5855 39.1685 34.0209L39.0499 33.6793C39.019 33.5659 38.988 33.4525 38.9597 33.3377L38.6735 31.7213L38.6657 31.6426C39.4516 30.6381 40.0745 29.5162 40.5117 28.3181L40.5697 28.2279C41.2439 27.5537 41.6087 25.847 41.6113 25.8302C42.1063 24.4419 41.9219 23.8373 41.7685 23.595L41.7054 23.4945L41.7414 23.3849C41.7917 23.2341 42.9545 19.675 41.3547 16.9615L41.3251 16.8906C41.3251 16.8661 40.7205 14.3589 37.7789 13.249C36.6716 12.5774 34.814 12.2461 33.1382 12.2461H32.8469C31.1711 12.2461 29.3175 12.5774 28.2063 13.2503C25.2672 14.3602 24.6678 16.8661 24.6614 16.8867L24.6343 16.9589C23.0294 19.6659 24.1909 23.2302 24.2411 23.381L24.2772 23.4919L24.2154 23.5911C24.062 23.8335 23.8763 24.438 24.3726 25.8264C24.3726 25.8431 24.7387 27.5498 25.4142 28.224L25.4735 28.3143C25.9105 29.5126 26.533 30.6348 27.3181 31.64L27.3104 31.7174L27.0229 33.3352C26.9946 33.4434 26.9662 33.5556 26.9327 33.6768L26.8141 34.0171C26.5215 34.583 25.6772 35.435 23.3091 36.2652C23.2898 36.2729 22.2624 36.67 20.8741 37.3596C19.3504 38.1227 17.3936 39.2429 15.8468 40.6209C15.8145 40.6454 12.8935 42.8549 13.1397 48.7317C13.1565 49.1584 13.1887 49.5993 13.2429 50.0633C13.2429 50.5312 13.141 52.0498 14.0447 52.3321C13.6579 54.1187 24.8728 60.2933 32.4782 60.9688C32.4782 60.9688 52.7294 52.0279 52.7294 51.5586C52.7836 51.0946 52.8158 49.1597 52.8313 48.7317C53.0813 42.8549 50.1603 40.6454 50.1242 40.6209L50.1358 40.6248Z" fill="#021C8E"/>
<path d="M35.0664 43.8926C35.0664 42.7179 34.1141 41.7656 32.9395 41.7656C31.7648 41.7656 30.8125 42.7179 30.8125 43.8926V57.4857C30.8125 58.6604 31.7648 59.6127 32.9395 59.6127C34.1141 59.6127 35.0664 58.6604 35.0664 57.4857V43.8926Z" fill="white"/>
<path d="M39.7324 52.8154C40.9071 52.8154 41.8594 51.8632 41.8594 50.6885C41.8594 49.5138 40.9071 48.5615 39.7324 48.5615H26.1393C24.9646 48.5615 24.0123 49.5138 24.0123 50.6885C24.0123 51.8632 24.9646 52.8154 26.1393 52.8154H39.7324Z" fill="white"/>
</svg>
