<svg width="94" height="83" viewBox="0 0 94 83" fill="none" xmlns="http://www.w3.org/2000/svg">
<g id="Frame 12">
<path id="Union" fill-rule="evenodd" clip-rule="evenodd" d="M64.3554 62.2108H68.3313C68.8283 62.2108 69.3253 62.6084 69.3253 63.1054C69.3253 63.6024 68.9277 64 68.4307 64H24.994C24.497 64 24.0994 63.6024 24.0994 63.1054V53.4639C24.0994 52.9669 24.497 52.5693 24.994 52.5693C25.491 52.5693 25.8886 52.9669 25.8886 53.4639V62.2108H39.4066V36.2681H25.7892V50.8795C25.7892 51.3765 25.3916 51.7741 24.8946 51.7741C24.3976 51.7741 24 51.3765 24 50.8795V35.2741C24 35.2244 24.0248 35.1747 24.0497 35.125C24.0745 35.0753 24.0994 35.0256 24.0994 34.9759C24.1491 34.9262 24.1739 34.8517 24.1988 34.7771C24.2236 34.7026 24.2485 34.628 24.2982 34.5783C24.3976 34.4789 24.497 34.3795 24.5964 34.3795C24.7952 34.2801 24.8946 34.2801 24.994 34.2801H27.3795V32.6898H27.2801C26.7831 32.6898 26.3855 32.2922 26.3855 31.7952C26.3855 31.497 26.5843 31.0994 26.8825 31L24.1988 25.732C24.0994 25.6326 24.0994 25.5332 24.0994 25.3344C24.0994 25.235 24.0994 25.0362 24.1988 24.9368C24.2982 24.8374 24.3976 24.738 24.5964 24.6386C24.6958 24.5392 24.7952 24.5392 24.994 24.5392H26.3855C26.2861 24.0422 26.2861 23.5452 26.3855 23.0482C26.4849 22.6506 26.5843 22.3524 26.8825 22.0542C27.0813 21.7561 27.3795 21.4579 27.6777 21.2591C28.4729 20.8615 29.4669 20.9609 30.1626 21.4579C30.262 21.5573 30.3614 21.5573 30.4608 21.5573C30.5602 21.5573 30.6596 21.5573 30.759 21.4579L31.753 20.3645C32.9458 19.0723 34.7349 18.6747 36.3253 19.2711C37.6175 19.7681 38.6114 20.7621 38.9096 22.1536C39.1084 22.9488 39.009 23.8434 38.7108 24.6386H40.4006C40.5 24.6386 40.6988 24.6386 40.7982 24.738L41.0964 25.0362C41.0964 25.0773 41.1134 25.1185 41.1334 25.1668C41.1617 25.235 41.1958 25.3173 41.1958 25.4338C41.1958 25.5332 41.1958 25.732 41.0964 25.8314L40.1024 27.7199C40.003 28.0181 39.8042 28.1175 39.6054 28.2169C39.4066 28.2169 39.1084 28.2169 38.9096 28.1175C38.7108 28.0181 38.6114 27.8193 38.512 27.6205C38.512 27.4217 38.512 27.1235 38.6114 26.9247L38.9096 26.3283H26.3855L28.8705 31H36.5241L37.5181 29.3103C37.5181 29.2109 37.6175 29.1115 37.7169 29.0121C37.8163 28.9127 37.9157 28.8133 38.015 28.8133H38.4126C38.512 28.8133 38.6114 28.8133 38.7108 28.9127C38.8102 28.9127 38.9096 29.0121 39.009 29.1115C39.1084 29.2109 39.2078 29.3103 39.2078 29.4097V29.8073C39.2078 29.9067 39.2078 30.0061 39.1084 30.1054L38.6114 31.1988C38.9096 31.2982 39.1084 31.5964 39.1084 31.994C39.1084 32.491 38.7108 32.8886 38.2138 32.8886H38.1144V34.4789H40.5994C41.0964 34.4789 41.494 34.8765 41.494 35.3735V47.8976H42.9849V42.5301C42.9849 42.4307 42.9849 42.3313 43.0843 42.2319L43.9789 40.3434V38.4548C43.9789 38.256 44.0783 38.0573 44.1777 37.9579C44.2771 37.8585 44.4759 37.7591 44.6747 37.7591H50.8373C51.0361 37.7591 51.2349 37.8585 51.3343 37.9579C51.4337 38.0573 51.5331 38.256 51.5331 38.4548V40.3434L52.4277 42.2319C52.5271 42.3313 52.5271 42.4307 52.5271 42.5301V47.8976H54.1174V42.5301C54.1174 42.4307 54.1174 42.3313 54.3162 42.2319L55.2108 40.3434V38.4548C55.2108 38.256 55.3102 38.0573 55.4096 37.9579C55.509 37.8585 55.7078 37.7591 55.9066 37.7591H62.0692C62.268 37.7591 62.4668 37.8585 62.5662 37.9579C62.6656 38.0573 62.765 38.256 62.765 38.4548V40.3434L63.6596 42.2319C63.759 42.3313 63.759 42.4307 63.759 42.5301V47.8976H65.747C67.7349 47.8976 69.2259 49.488 69.2259 51.3765C69.2259 53.2651 67.6355 54.8554 65.747 54.8554H64.3554V62.2108ZM48.9488 47.8976V43.3253H44.3765V47.8976H48.9488ZM49.247 41.735L49.5452 41.238H45.1717L44.8735 41.735H49.247ZM45.3705 39.25V39.747H49.9427V39.25H45.3705ZM50.5391 47.8976H51.0361H51.1355V42.7289L50.8373 42.2319L50.5391 42.7289V47.8976ZM60.2801 47.8976V43.3253H55.7078V47.8976H60.2801ZM56.4036 41.3374L56.1054 41.8344H60.4789L60.7771 41.3374H56.4036ZM61.7711 47.8976H62.268H62.3674V42.7289L62.0692 42.2319L61.7711 42.7289V47.8976ZM56.7018 39.25V39.747H61.2741V39.25H56.7018ZM62.5662 62.3102V54.9548H61.6717V62.3102H62.5662ZM57.9939 54.8554C57.497 54.8554 57.0994 54.4578 57.0994 53.9608C57.0994 53.4639 57.497 53.0663 57.9939 53.0663H65.747C66.6415 53.0663 67.4367 52.2711 67.4367 51.3765C67.4367 50.4819 66.6415 49.6868 65.747 49.6868H41.2952V50.4819H55.8072C56.3042 50.4819 56.7018 50.8795 56.7018 51.3765C56.7018 51.8735 56.3042 52.2711 55.8072 52.2711H41.2952V53.0663H55.4096C55.9066 53.0663 56.3042 53.4639 56.3042 53.9608C56.3042 54.4578 55.9066 54.8554 55.4096 54.8554H41.2952V62.2108H59.8825V54.8554H57.9939ZM36.1265 34.3795V32.7892H29.1687V34.3795H36.1265ZM29.0693 22.9488C29.0693 22.8494 28.9699 22.8494 28.8705 22.8494H28.5723L28.5723 22.8494C28.3735 23.0482 28.1747 23.247 28.0753 23.4458C28.0753 23.744 28.0753 24.0422 28.2741 24.241L28.3735 24.4398H36.6235C37.2199 23.9428 37.4187 23.1476 37.2199 22.3524C37.0211 21.6567 36.5241 21.0603 35.8283 20.8615C34.8343 20.4639 33.8404 20.7621 33.244 21.4579L32.1506 22.75C31.753 23.1476 31.256 23.4458 30.6596 23.4458C30.0632 23.5452 29.4669 23.3464 29.0693 22.9488ZM36.5241 38.2559C37.5181 38.2559 38.4126 39.1504 38.4126 40.1444V47.798C38.4126 48.792 37.5181 49.6866 36.5241 49.6866H28.8705C27.8765 49.6866 26.9819 48.792 26.9819 47.798V40.1444C26.9819 39.1504 27.8765 38.2559 28.8705 38.2559H36.5241ZM36.6235 47.798V40.1444L28.8705 40.045H28.7711V40.1444V47.798V47.8974H28.8705H36.5241H36.6235V47.798ZM27.8765 54.0602H29.0693C29.5663 54.0602 29.9639 53.6626 29.9639 53.1656C29.9639 52.6686 29.5663 52.271 29.0693 52.271H27.8765C27.3795 52.271 26.9819 52.6686 26.9819 53.1656C26.9819 53.6626 27.3795 54.0602 27.8765 54.0602ZM27.8765 57.0421H29.0693C29.5663 57.0421 29.9639 56.6445 29.9639 56.1475C29.9639 55.6505 29.5663 55.2529 29.0693 55.2529H27.8765C27.3795 55.2529 26.9819 55.6505 26.9819 56.1475C26.9819 56.6445 27.3795 57.0421 27.8765 57.0421ZM32.0513 55.2529H33.2441C33.7411 55.2529 34.1387 55.6505 34.1387 56.1475C34.1387 56.6445 33.7411 57.0421 33.2441 57.0421H32.0513C31.5543 57.0421 31.1567 56.6445 31.1567 56.1475C31.1567 55.6505 31.5543 55.2529 32.0513 55.2529ZM32.0513 58.2349H33.2441C33.7411 58.2349 34.1387 58.6325 34.1387 59.1294C34.1387 59.6264 33.7411 60.024 33.2441 60.024H32.0513C31.5543 60.024 31.1567 59.6264 31.1567 59.1294C31.1567 58.6325 31.5543 58.2349 32.0513 58.2349ZM29.0693 60.024H27.8765C27.3795 60.024 26.9819 59.6264 26.9819 59.1294C26.9819 58.6325 27.3795 58.2349 27.8765 58.2349H29.0693C29.5663 58.2349 29.9639 58.6325 29.9639 59.1294C29.9639 59.6264 29.5663 60.024 29.0693 60.024ZM32.0513 52.271H33.2441C33.7411 52.271 34.1387 52.6686 34.1387 53.1656C34.1387 53.6626 33.7411 54.0602 33.2441 54.0602H32.0513C31.5543 54.0602 31.1567 53.6626 31.1567 53.1656C31.1567 52.6686 31.5543 52.271 32.0513 52.271ZM37.518 52.271H36.3252C35.8283 52.271 35.4307 52.6686 35.4307 53.1656C35.4307 53.6626 35.8283 54.0602 36.3252 54.0602H37.518C38.015 54.0602 38.4126 53.6626 38.4126 53.1656C38.4126 52.6686 38.015 52.271 37.518 52.271ZM37.518 55.2529H36.3252C35.8283 55.2529 35.4307 55.6505 35.4307 56.1475C35.4307 56.6445 35.8283 57.0421 36.3252 57.0421H37.518C38.015 57.0421 38.4126 56.6445 38.4126 56.1475C38.4126 55.6505 38.015 55.2529 37.518 55.2529ZM36.3252 58.2349H37.518C38.015 58.2349 38.4126 58.6325 38.4126 59.1294C38.4126 59.6264 38.015 60.024 37.518 60.024H36.3252C35.8283 60.024 35.4307 59.6264 35.4307 59.1294C35.4307 58.6325 35.8283 58.2349 36.3252 58.2349ZM62.6656 52.2711H64.3553C64.8523 52.2711 65.2499 51.8735 65.2499 51.3765C65.2499 50.8795 64.8523 50.4819 64.3553 50.4819H62.6656C62.1686 50.4819 61.771 50.8795 61.771 51.3765C61.771 51.8735 62.1686 52.2711 62.6656 52.2711Z" fill="url(#paint0_linear_1_1334)"/>
</g>
<defs>
<linearGradient id="paint0_linear_1_1334" x1="24" y1="19" x2="69.2561" y2="57.1158" gradientUnits="userSpaceOnUse">
<stop stop-color="#FE5B52"/>
<stop offset="1" stop-color="#3D96F5"/>
</linearGradient>
</defs>
</svg>
