<svg width="64" height="64" viewBox="0 0 64 64" fill="none" xmlns="http://www.w3.org/2000/svg">
<rect width="64" height="64" rx="8" fill="#3E96F4"/>
<path d="M42.5721 20.0503L40.3855 36.2194C39.9042 39.1387 39.8789 42.1182 40.3108 45.0456L40.5757 46.8395L44.4532 44.7629L44.6807 43.2413C45.1764 39.9572 45.0881 35.6122 44.4634 32.4363L42.5687 20.0538L42.5721 20.0503Z" fill="white"/>
<path d="M39.3802 36.0624L41.3631 21.3904C40.9863 21.6417 40.5449 21.7918 40.0899 21.7918H22.916C22.7157 21.7918 22.5221 21.7604 22.3422 21.7045L20.3763 36.3311C19.896 39.2625 19.8754 42.2541 20.3151 45.1922L20.563 46.3369L39.5636 47L39.2987 45.2027C38.8515 42.1711 38.8768 39.0857 39.3734 36.0624H39.3802ZM38.09 30.3213L37.2615 36.4463V36.4602C36.9227 38.5078 36.9043 40.5979 37.2072 42.6515L37.4584 44.3651C37.4822 44.5186 37.4347 44.6792 37.3328 44.7943C37.2344 44.906 37.0985 44.9688 36.9559 44.9688H36.9322L22.7666 44.2708C22.5459 44.2604 22.3592 44.1068 22.3014 43.8869L22.0604 42.99C22.0536 42.9691 22.0502 42.9516 22.0468 42.9307C21.7174 40.7529 21.7344 38.5437 22.0875 36.3695L22.9194 30.1782C22.9366 30.053 22.9973 29.9385 23.0903 29.8557C23.1833 29.773 23.3023 29.7276 23.4253 29.728H37.5875C37.7335 29.728 37.8761 29.7943 37.9711 29.906C38.0696 30.0212 38.1138 30.1712 38.09 30.3213ZM22.916 20.7448H40.0899C40.701 20.7448 41.319 20.2213 41.4344 19.5966L41.9234 17H22.6885L22.1622 19.7955C22.1113 20.0607 22.1622 20.3015 22.3014 20.476C22.4407 20.647 22.658 20.7448 22.916 20.7448Z" fill="white"/>
<path d="M23.0927 36.5265C22.7556 38.5816 22.7407 40.6788 23.0486 42.7387L23.1844 43.2413L36.3619 43.8904L36.2023 42.8085C35.8831 40.6447 35.9001 38.453 36.2566 36.2962L37.0036 30.7715H23.8669L23.0927 36.5265Z" fill="white"/>
</svg>
