<svg width="64" height="64" viewBox="0 0 64 64" fill="none" xmlns="http://www.w3.org/2000/svg">
<path d="M0 8C0 3.58172 3.58172 0 8 0H56C60.4183 0 64 3.58172 64 8V56C64 60.4183 60.4183 64 56 64H8C3.58172 64 0 60.4183 0 56V8Z" fill="#EBF4FE"/>
<path d="M46.1978 33.8936V42.6273C46.301 43.3507 46.2344 44.0882 46.0033 44.7814C45.7722 45.4746 45.3829 46.1045 44.8662 46.6211C44.3495 47.1378 43.7196 47.5272 43.0264 47.7583C42.3332 47.9894 41.5957 48.056 40.8724 47.9528H36.1327C35.9915 47.9528 35.856 47.8967 35.7561 47.7968C35.6563 47.697 35.6001 47.5615 35.6001 47.4203V41.9563C35.6211 41.0907 35.3381 40.2451 34.8005 39.5663C34.2628 38.8876 33.5044 38.4187 32.6569 38.2409C32.1471 38.154 31.6244 38.1792 31.1253 38.3149C30.6262 38.4505 30.1626 38.6933 29.7669 39.0263C29.3712 39.3594 29.0528 39.7746 28.8339 40.2432C28.6151 40.7119 28.5009 41.2225 28.4995 41.7398V47.4203C28.4995 47.5615 28.4434 47.697 28.3435 47.7968C28.2437 47.8967 28.1082 47.9528 27.967 47.9528H23.1208C22.3974 48.056 21.6599 47.9894 20.9668 47.7583C20.2736 47.5272 19.6437 47.1378 19.127 46.6211C18.6103 46.1045 18.221 45.4746 17.9899 44.7814C17.7587 44.0882 17.6921 43.3507 17.7953 42.6273V33.8936C18.8504 34.389 20.0025 34.6437 21.1681 34.6391C23.1433 34.635 25.0609 33.9729 26.6179 32.7575C28.1493 33.9758 30.0485 34.6391 32.0055 34.6391C33.9624 34.6391 35.8616 33.9758 37.3931 32.7575C38.95 33.9729 40.8676 34.635 42.8428 34.6391C44.0025 34.6418 45.1484 34.3871 46.1978 33.8936ZM24.0084 16C19.5705 16 18.8906 17.4556 18.1592 19.6178L16.3131 25.0728C15.9061 26.1909 15.8956 27.415 16.2834 28.5399C16.6712 29.6648 17.4337 30.6223 18.4433 31.2521C19.2719 31.7293 20.2119 31.9792 21.1681 31.9764C22.3221 31.9885 23.4537 31.6575 24.4192 31.0254C25.3847 30.3933 26.1407 29.4886 26.5912 28.4261C27.0477 29.4806 27.8026 30.3786 28.7631 31.0095C29.7235 31.6403 30.8475 31.9764 31.9966 31.9764C33.1457 31.9764 34.2697 31.6403 35.2301 31.0095C36.1905 30.3786 36.9455 29.4806 37.4019 28.4261C37.8524 29.4886 38.6084 30.3933 39.574 31.0254C40.5395 31.6575 41.6711 31.9885 42.825 31.9764C43.7819 31.9795 44.7225 31.7296 45.5517 31.2521C46.5612 30.6223 47.3238 29.6648 47.7115 28.5399C48.0993 27.415 48.0889 26.1909 47.6819 25.0728L45.8428 19.6178C45.1026 17.4556 44.4227 16 39.9848 16H24.0084Z" fill="#3E96F4"/>
</svg>
