<svg width="69" height="69" viewBox="0 0 69 69" fill="none" xmlns="http://www.w3.org/2000/svg">
<rect width="69" height="69" rx="8" fill="#DFE6FF"/>
<path d="M33.7026 31.0156H30.6245V36H27.0464V31.0156H16.6089V28.1875L27.0464 13.0938H30.6245V27.9688H33.7026V31.0156ZM27.0464 27.9688V22.2344C27.0464 20.1927 27.0985 18.5208 27.2026 17.2188H27.0776C26.786 17.9062 26.3276 18.7396 25.7026 19.7188L20.0308 27.9688H27.0464ZM39.0783 24.4062C39.6158 24.4062 40.1533 24.3219 40.6908 24.1531V25.8125C40.447 25.9187 40.1314 26.0063 39.7439 26.075C39.3626 26.15 38.9658 26.1875 38.5533 26.1875C36.4658 26.1875 35.422 25.0875 35.422 22.8875V17.3H34.0064V16.325L35.5251 15.5187L36.2751 13.325H37.6345V15.6312H40.5876V17.3H37.6345V22.85C37.6345 23.3812 37.7658 23.775 38.0283 24.0312C38.297 24.2812 38.647 24.4062 39.0783 24.4062ZM51.5099 26H49.2974V19.625C49.2974 18.825 49.1349 18.2281 48.8099 17.8344C48.4911 17.4406 47.9818 17.2437 47.2817 17.2437C46.3567 17.2437 45.6755 17.5219 45.238 18.0781C44.8067 18.6281 44.5911 19.5531 44.5911 20.8531V26H42.388V11.4125H44.5911V15.1156C44.5911 15.7094 44.5536 16.3437 44.4786 17.0187H44.6192C44.9192 16.5187 45.3349 16.1312 45.8661 15.8562C46.4036 15.5812 47.0286 15.4437 47.7411 15.4437C50.2536 15.4437 51.5099 16.7094 51.5099 19.2406V26Z" fill="#31393C"/>
<path d="M25.9331 55.8984C25.9331 56.9141 25.5659 57.7109 24.8316 58.2891C24.0972 58.8672 23.0842 59.1562 21.7925 59.1562C20.5008 59.1562 19.4435 58.9557 18.6206 58.5547V56.7891C19.1415 57.0339 19.6935 57.2266 20.2769 57.3672C20.8654 57.5078 21.4123 57.5781 21.9175 57.5781C22.6571 57.5781 23.2014 57.4375 23.5503 57.1562C23.9045 56.875 24.0816 56.4974 24.0816 56.0234C24.0816 55.5964 23.9201 55.2344 23.5972 54.9375C23.2743 54.6406 22.6076 54.2891 21.5972 53.8828C20.5555 53.4609 19.8211 52.9792 19.3941 52.4375C18.967 51.8958 18.7534 51.2448 18.7534 50.4844C18.7534 49.5312 19.092 48.7812 19.7691 48.2344C20.4461 47.6875 21.355 47.4141 22.4956 47.4141C23.5894 47.4141 24.6779 47.6536 25.7612 48.1328L25.1675 49.6562C24.1519 49.2292 23.2456 49.0156 22.4487 49.0156C21.8446 49.0156 21.3862 49.1484 21.0737 49.4141C20.7612 49.6745 20.605 50.0208 20.605 50.4531C20.605 50.75 20.6675 51.0052 20.7925 51.2188C20.9175 51.4271 21.1232 51.625 21.4097 51.8125C21.6961 52 22.2118 52.2474 22.9566 52.5547C23.7951 52.9036 24.4097 53.2292 24.8003 53.5312C25.1909 53.8333 25.4774 54.1745 25.6597 54.5547C25.842 54.9349 25.9331 55.3828 25.9331 55.8984ZM30.8475 57.6719C31.2954 57.6719 31.7433 57.6016 32.1912 57.4609V58.8438C31.9881 58.9323 31.7251 59.0052 31.4022 59.0625C31.0845 59.125 30.7537 59.1562 30.41 59.1562C28.6704 59.1562 27.8006 58.2396 27.8006 56.4062V51.75H26.6209V50.9375L27.8866 50.2656L28.5116 48.4375H29.6444V50.3594H32.1053V51.75H29.6444V56.375C29.6444 56.8177 29.7537 57.1458 29.9725 57.3594C30.1965 57.5677 30.4881 57.6719 30.8475 57.6719ZM37.3791 59.1562C36.0353 59.1562 34.9832 58.7656 34.2228 57.9844C33.4676 57.1979 33.09 56.1172 33.09 54.7422C33.09 53.3307 33.4416 52.2214 34.1447 51.4141C34.8478 50.6068 35.814 50.2031 37.0431 50.2031C38.1838 50.2031 39.0848 50.5495 39.7463 51.2422C40.4077 51.9349 40.7384 52.888 40.7384 54.1016V55.0938H34.9806C35.0067 55.9323 35.2332 56.5781 35.6603 57.0312C36.0874 57.4792 36.689 57.7031 37.465 57.7031C37.9754 57.7031 38.4494 57.6562 38.8869 57.5625C39.3296 57.4635 39.8035 57.3021 40.3088 57.0781V58.5703C39.8608 58.7839 39.4077 58.9349 38.9494 59.0234C38.491 59.112 37.9676 59.1562 37.3791 59.1562ZM37.0431 51.5938C36.4598 51.5938 35.991 51.7786 35.6369 52.1484C35.2879 52.5182 35.0796 53.0573 35.0119 53.7656H38.9338C38.9233 53.0521 38.7515 52.513 38.4181 52.1484C38.0848 51.7786 37.6265 51.5938 37.0431 51.5938ZM46.8872 59.1562C45.7934 59.1562 44.9445 58.763 44.3403 57.9766H44.2309C44.3039 58.7057 44.3403 59.1484 44.3403 59.3047V62.8438H42.5044V50.3594H43.9888C44.0304 50.5208 44.1164 50.9062 44.2466 51.5156H44.3403C44.9132 50.6406 45.7726 50.2031 46.9184 50.2031C47.9966 50.2031 48.8351 50.5938 49.4341 51.375C50.0382 52.1562 50.3403 53.2526 50.3403 54.6641C50.3403 56.0755 50.033 57.1771 49.4184 57.9688C48.8091 58.7604 47.9653 59.1562 46.8872 59.1562ZM46.4419 51.7031C45.7127 51.7031 45.1789 51.9167 44.8403 52.3438C44.507 52.7708 44.3403 53.4531 44.3403 54.3906V54.6641C44.3403 55.7161 44.507 56.4792 44.8403 56.9531C45.1736 57.4219 45.7179 57.6562 46.4731 57.6562C47.1085 57.6562 47.5981 57.3958 47.9419 56.875C48.2856 56.3542 48.4575 55.612 48.4575 54.6484C48.4575 53.6797 48.2856 52.9479 47.9419 52.4531C47.6033 51.9531 47.1033 51.7031 46.4419 51.7031Z" fill="#31393C"/>
</svg>
