<svg width="54" height="54" viewBox="0 0 54 54" fill="none" xmlns="http://www.w3.org/2000/svg">
<path d="M50.2706 1.6875C50.8115 1.68972 51.3296 1.90558 51.712 2.28802C52.0945 2.67047 52.3103 3.18851 52.3125 3.72936V50.2622C52.3125 50.8045 52.0976 51.3247 51.715 51.709C51.3323 52.0933 50.813 52.3103 50.2706 52.3125H3.73781C3.19403 52.3125 2.67253 52.0965 2.28802 51.712C1.90351 51.3275 1.6875 50.806 1.6875 50.2622V3.72936C1.68973 3.18705 1.90674 2.66772 2.29101 2.28504C2.67528 1.90235 3.19549 1.6875 3.73781 1.6875H50.2706ZM50.2706 0H3.73781C2.74794 -2.52196e-06 1.79853 0.392666 1.09779 1.09182C0.397058 1.79097 0.00223447 2.73949 0 3.72936V50.2622C0 51.2535 0.393829 52.2043 1.0948 52.9052C1.79578 53.6062 2.74648 54 3.73781 54H50.2706C50.7611 54 51.2468 53.9033 51.6998 53.7153C52.1528 53.5274 52.5643 53.2519 52.9107 52.9047C53.2571 52.5575 53.5316 52.1454 53.7186 51.6919C53.9055 51.2385 54.0011 50.7527 54 50.2622V3.72936C54 2.74027 53.6071 1.7917 52.9077 1.09231C52.2083 0.392914 51.2597 0 50.2706 0Z" fill="url(#paint0_linear_0_872)"/>
<path fill-rule="evenodd" clip-rule="evenodd" d="M53.1563 9.28126H8.23974e-06V7.59376H53.1563V9.28126Z" fill="url(#paint1_linear_0_872)"/>
<path d="M5.06251 5.90626C5.5285 5.90626 5.90626 5.5285 5.90626 5.06251C5.90626 4.59652 5.5285 4.21876 5.06251 4.21876C4.59652 4.21876 4.21876 4.59652 4.21876 5.06251C4.21876 5.5285 4.59652 5.90626 5.06251 5.90626Z" fill="url(#paint2_linear_0_872)"/>
<path d="M8.43751 5.90626C8.9035 5.90626 9.28126 5.5285 9.28126 5.06251C9.28126 4.59652 8.9035 4.21876 8.43751 4.21876C7.97152 4.21876 7.59376 4.59652 7.59376 5.06251C7.59376 5.5285 7.97152 5.90626 8.43751 5.90626Z" fill="url(#paint3_linear_0_872)"/>
<path d="M11.8125 5.90626C12.2785 5.90626 12.6563 5.5285 12.6563 5.06251C12.6563 4.59652 12.2785 4.21876 11.8125 4.21876C11.3465 4.21876 10.9688 4.59652 10.9688 5.06251C10.9688 5.5285 11.3465 5.90626 11.8125 5.90626Z" fill="url(#paint4_linear_0_872)"/>
<path fill-rule="evenodd" clip-rule="evenodd" d="M22.0701 17.1643C22.3996 17.4938 22.3996 18.0281 22.0701 18.3576L17.6464 22.7813L22.0701 27.205C22.3996 27.5345 22.3996 28.0687 22.0701 28.3982C21.7406 28.7277 21.2063 28.7277 20.8768 28.3982L15.8565 23.3779C15.527 23.0484 15.527 22.5141 15.8565 22.1846L20.8768 17.1643C21.2063 16.8348 21.7406 16.8348 22.0701 17.1643Z" fill="url(#paint5_linear_0_872)"/>
<path fill-rule="evenodd" clip-rule="evenodd" d="M31.9299 17.1643C32.2595 16.8348 32.7937 16.8348 33.1232 17.1643L38.1435 22.1846C38.473 22.5141 38.473 23.0484 38.1435 23.3779L33.1232 28.3982C32.7937 28.7277 32.2595 28.7277 31.9299 28.3982C31.6004 28.0687 31.6004 27.5345 31.9299 27.205L36.3536 22.7813L31.9299 18.3576C31.6004 18.0281 31.6004 17.4938 31.9299 17.1643Z" fill="url(#paint6_linear_0_872)"/>
<path fill-rule="evenodd" clip-rule="evenodd" d="M28.7534 16.953C29.1996 17.0872 29.4525 17.5578 29.3183 18.004L26.2977 28.0446C26.1634 28.4909 25.6929 28.7438 25.2466 28.6096C24.8004 28.4753 24.5475 28.0047 24.6817 27.5585L27.7023 17.5179C27.8366 17.0716 28.3072 16.8187 28.7534 16.953Z" fill="url(#paint7_linear_0_872)"/>
<path d="M15.7528 40.7785C15.8194 40.79 15.8798 40.8247 15.9233 40.8764C15.9668 40.9281 15.9907 40.9935 15.9907 41.0611C15.9907 41.1287 15.9668 41.1941 15.9233 41.2458C15.8798 41.2975 15.8194 41.3322 15.7528 41.3438H6.21843C6.15184 41.3322 6.09149 41.2975 6.04797 41.2458C6.00446 41.1941 5.98061 41.1287 5.98061 41.0611C5.98061 40.9935 6.00446 40.9281 6.04797 40.8764C6.09149 40.8247 6.15184 40.79 6.21843 40.7785H15.7528ZM15.7528 39.091H6.21843C5.7182 39.1237 5.24916 39.3455 4.90646 39.7114C4.56376 40.0773 4.37309 40.5598 4.37309 41.0611C4.37309 41.5624 4.56376 42.0449 4.90646 42.4108C5.24916 42.7767 5.7182 42.9985 6.21843 43.0312H15.7528C16.253 42.9985 16.7221 42.7767 17.0648 42.4108C17.4075 42.0449 17.5982 41.5624 17.5982 41.0611C17.5982 40.5598 17.4075 40.0773 17.0648 39.7114C16.7221 39.3455 16.253 39.1237 15.7528 39.091Z" fill="url(#paint8_linear_0_872)"/>
<path d="M15.7528 46.6847C15.8194 46.6963 15.8798 46.7309 15.9233 46.7827C15.9668 46.8344 15.9907 46.8998 15.9907 46.9674C15.9907 47.035 15.9668 47.1003 15.9233 47.1521C15.8798 47.2038 15.8194 47.2385 15.7528 47.25H6.21843C6.15184 47.2385 6.09149 47.2038 6.04797 47.1521C6.00446 47.1003 5.98061 47.035 5.98061 46.9674C5.98061 46.8998 6.00446 46.8344 6.04797 46.7827C6.09149 46.7309 6.15184 46.6963 6.21843 46.6847H15.7528ZM15.7528 44.9972H6.21843C5.7182 45.03 5.24916 45.2518 4.90646 45.6177C4.56376 45.9835 4.37309 46.4661 4.37309 46.9674C4.37309 47.4687 4.56376 47.9512 4.90646 48.317C5.24916 48.6829 5.7182 48.9047 6.21843 48.9375H15.7528C16.253 48.9047 16.7221 48.6829 17.0648 48.317C17.4075 47.9512 17.5982 47.4687 17.5982 46.9674C17.5982 46.4661 17.4075 45.9835 17.0648 45.6177C16.7221 45.2518 16.253 45.03 15.7528 44.9972Z" fill="url(#paint9_linear_0_872)"/>
<path d="M31.784 40.7785C31.8506 40.79 31.911 40.8247 31.9546 40.8764C31.9981 40.9281 32.0219 40.9935 32.0219 41.0611C32.0219 41.1287 31.9981 41.1941 31.9546 41.2458C31.911 41.2975 31.8506 41.3322 31.784 41.3438H22.2497C22.1831 41.3322 22.1227 41.2975 22.0792 41.2458C22.0357 41.1941 22.0119 41.1287 22.0119 41.0611C22.0119 40.9935 22.0357 40.9281 22.0792 40.8764C22.1227 40.8247 22.1831 40.79 22.2497 40.7785H31.784ZM31.784 39.091H22.2497C21.7494 39.1237 21.2804 39.3455 20.9377 39.7114C20.595 40.0773 20.4043 40.5598 20.4043 41.0611C20.4043 41.5624 20.595 42.0449 20.9377 42.4108C21.2804 42.7767 21.7494 42.9985 22.2497 43.0312H31.784C32.2843 42.9985 32.7534 42.7767 33.0961 42.4108C33.4388 42.0449 33.6294 41.5624 33.6294 41.0611C33.6294 40.5598 33.4388 40.0773 33.0961 39.7114C32.7534 39.3455 32.2843 39.1237 31.784 39.091Z" fill="url(#paint10_linear_0_872)"/>
<path d="M31.784 46.6847C31.8506 46.6963 31.911 46.7309 31.9546 46.7827C31.9981 46.8344 32.0219 46.8998 32.0219 46.9674C32.0219 47.035 31.9981 47.1003 31.9546 47.1521C31.911 47.2038 31.8506 47.2385 31.784 47.25H22.2497C22.1831 47.2385 22.1227 47.2038 22.0792 47.1521C22.0357 47.1003 22.0119 47.035 22.0119 46.9674C22.0119 46.8998 22.0357 46.8344 22.0792 46.7827C22.1227 46.7309 22.1831 46.6963 22.2497 46.6847H31.784ZM31.784 44.9972H22.2497C21.7494 45.03 21.2804 45.2518 20.9377 45.6177C20.595 45.9835 20.4043 46.4661 20.4043 46.9674C20.4043 47.4687 20.595 47.9512 20.9377 48.317C21.2804 48.6829 21.7494 48.9047 22.2497 48.9375H31.784C32.2843 48.9047 32.7534 48.6829 33.0961 48.317C33.4388 47.9512 33.6294 47.4687 33.6294 46.9674C33.6294 46.4661 33.4388 45.9835 33.0961 45.6177C32.7534 45.2518 32.2843 45.03 31.784 44.9972Z" fill="url(#paint11_linear_0_872)"/>
<path d="M47.8153 40.7785C47.8819 40.79 47.9423 40.8247 47.9858 40.8764C48.0293 40.9281 48.0532 40.9935 48.0532 41.0611C48.0532 41.1287 48.0293 41.1941 47.9858 41.2458C47.9423 41.2975 47.8819 41.3322 47.8153 41.3438H38.2809C38.2143 41.3322 38.154 41.2975 38.1105 41.2458C38.067 41.1941 38.0431 41.1287 38.0431 41.0611C38.0431 40.9935 38.067 40.9281 38.1105 40.8764C38.154 40.8247 38.2143 40.79 38.2809 40.7785H47.8153ZM47.8153 39.091H38.2809C37.7807 39.1237 37.3117 39.3455 36.969 39.7114C36.6263 40.0773 36.4356 40.5598 36.4356 41.0611C36.4356 41.5624 36.6263 42.0449 36.969 42.4108C37.3117 42.7767 37.7807 42.9985 38.2809 43.0312H47.8153C48.3155 42.9985 48.7846 42.7767 49.1273 42.4108C49.47 42.0449 49.6607 41.5624 49.6607 41.0611C49.6607 40.5598 49.47 40.0773 49.1273 39.7114C48.7846 39.3455 48.3155 39.1237 47.8153 39.091Z" fill="url(#paint12_linear_0_872)"/>
<path d="M47.8153 46.6847C47.8819 46.6963 47.9423 46.7309 47.9858 46.7827C48.0293 46.8344 48.0532 46.8998 48.0532 46.9674C48.0532 47.035 48.0293 47.1003 47.9858 47.1521C47.9423 47.2038 47.8819 47.2385 47.8153 47.25H38.2809C38.2143 47.2385 38.154 47.2038 38.1105 47.1521C38.067 47.1003 38.0431 47.035 38.0431 46.9674C38.0431 46.8998 38.067 46.8344 38.1105 46.7827C38.154 46.7309 38.2143 46.6963 38.2809 46.6847H47.8153ZM47.8153 44.9972H38.2809C37.7807 45.03 37.3117 45.2518 36.969 45.6177C36.6263 45.9835 36.4356 46.4661 36.4356 46.9674C36.4356 47.4687 36.6263 47.9512 36.969 48.317C37.3117 48.6829 37.7807 48.9047 38.2809 48.9375H47.8153C48.3155 48.9047 48.7846 48.6829 49.1273 48.317C49.47 47.9512 49.6607 47.4687 49.6607 46.9674C49.6607 46.4661 49.47 45.9835 49.1273 45.6177C48.7846 45.2518 48.3155 45.03 47.8153 44.9972Z" fill="url(#paint13_linear_0_872)"/>
<defs>
<linearGradient id="paint0_linear_0_872" x1="8.35909" y1="6.74624" x2="45.462" y2="43.5248" gradientUnits="userSpaceOnUse">
<stop stop-color="#FE5B52"/>
<stop offset="1" stop-color="#3E96F4"/>
</linearGradient>
<linearGradient id="paint1_linear_0_872" x1="8.35909" y1="6.74624" x2="45.462" y2="43.5248" gradientUnits="userSpaceOnUse">
<stop stop-color="#FE5B52"/>
<stop offset="1" stop-color="#3E96F4"/>
</linearGradient>
<linearGradient id="paint2_linear_0_872" x1="8.35909" y1="6.74624" x2="45.462" y2="43.5248" gradientUnits="userSpaceOnUse">
<stop stop-color="#FE5B52"/>
<stop offset="1" stop-color="#3E96F4"/>
</linearGradient>
<linearGradient id="paint3_linear_0_872" x1="8.35909" y1="6.74624" x2="45.462" y2="43.5248" gradientUnits="userSpaceOnUse">
<stop stop-color="#FE5B52"/>
<stop offset="1" stop-color="#3E96F4"/>
</linearGradient>
<linearGradient id="paint4_linear_0_872" x1="8.35909" y1="6.74624" x2="45.462" y2="43.5248" gradientUnits="userSpaceOnUse">
<stop stop-color="#FE5B52"/>
<stop offset="1" stop-color="#3E96F4"/>
</linearGradient>
<linearGradient id="paint5_linear_0_872" x1="8.35909" y1="6.74624" x2="45.462" y2="43.5248" gradientUnits="userSpaceOnUse">
<stop stop-color="#FE5B52"/>
<stop offset="1" stop-color="#3E96F4"/>
</linearGradient>
<linearGradient id="paint6_linear_0_872" x1="8.35909" y1="6.74624" x2="45.462" y2="43.5248" gradientUnits="userSpaceOnUse">
<stop stop-color="#FE5B52"/>
<stop offset="1" stop-color="#3E96F4"/>
</linearGradient>
<linearGradient id="paint7_linear_0_872" x1="8.35909" y1="6.74624" x2="45.462" y2="43.5248" gradientUnits="userSpaceOnUse">
<stop stop-color="#FE5B52"/>
<stop offset="1" stop-color="#3E96F4"/>
</linearGradient>
<linearGradient id="paint8_linear_0_872" x1="8.35909" y1="6.74624" x2="45.462" y2="43.5248" gradientUnits="userSpaceOnUse">
<stop stop-color="#FE5B52"/>
<stop offset="1" stop-color="#3E96F4"/>
</linearGradient>
<linearGradient id="paint9_linear_0_872" x1="8.35909" y1="6.74624" x2="45.462" y2="43.5248" gradientUnits="userSpaceOnUse">
<stop stop-color="#FE5B52"/>
<stop offset="1" stop-color="#3E96F4"/>
</linearGradient>
<linearGradient id="paint10_linear_0_872" x1="8.35909" y1="6.74624" x2="45.462" y2="43.5248" gradientUnits="userSpaceOnUse">
<stop stop-color="#FE5B52"/>
<stop offset="1" stop-color="#3E96F4"/>
</linearGradient>
<linearGradient id="paint11_linear_0_872" x1="8.35909" y1="6.74624" x2="45.462" y2="43.5248" gradientUnits="userSpaceOnUse">
<stop stop-color="#FE5B52"/>
<stop offset="1" stop-color="#3E96F4"/>
</linearGradient>
<linearGradient id="paint12_linear_0_872" x1="8.35909" y1="6.74624" x2="45.462" y2="43.5248" gradientUnits="userSpaceOnUse">
<stop stop-color="#FE5B52"/>
<stop offset="1" stop-color="#3E96F4"/>
</linearGradient>
<linearGradient id="paint13_linear_0_872" x1="8.35909" y1="6.74624" x2="45.462" y2="43.5248" gradientUnits="userSpaceOnUse">
<stop stop-color="#FE5B52"/>
<stop offset="1" stop-color="#3E96F4"/>
</linearGradient>
</defs>
</svg>
