<svg width="48" height="48" viewBox="0 0 48 48" fill="none" xmlns="http://www.w3.org/2000/svg">
<g clip-path="url(#clip0_2658_998)">
<path d="M47.0087 12.5411C46.5597 12.0857 45.993 11.764 45.3718 11.6119C44.7507 11.4597 44.0995 11.4831 43.4908 11.6795C43.4081 11.7079 43.3199 11.7161 43.2334 11.7034C43.1469 11.6907 43.0647 11.6577 42.9936 11.6067C42.9302 11.5612 42.8787 11.5011 42.8436 11.4313C42.8085 11.3616 42.7907 11.2845 42.7918 11.2064V5.9244C42.7918 5.8305 42.7734 5.7375 42.7375 5.65074C42.7016 5.56397 42.6489 5.48514 42.5825 5.41874C42.5161 5.35234 42.4373 5.29968 42.3505 5.26377C42.2637 5.22786 42.1707 5.20941 42.0769 5.20946H38.0217C37.7079 5.20981 37.3988 5.28519 37.12 5.42932C36.8413 5.57344 36.6011 5.78213 36.4194 6.03797C36.2439 6.27987 36.1297 6.56069 36.0865 6.85641C36.0433 7.15211 36.0724 7.45389 36.1714 7.73586C36.2761 8.03842 36.3074 8.36153 36.2626 8.67857C36.2179 8.99554 36.0984 9.29743 35.914 9.55911C35.7297 9.82089 35.4858 10.0351 35.2024 10.1841C34.9191 10.333 34.6043 10.4125 34.2842 10.4159C33.964 10.4193 33.6477 10.3466 33.3611 10.2037C33.0747 10.0608 32.8263 9.85191 32.6363 9.59409C32.4465 9.33634 32.3206 9.03711 32.2691 8.72109C32.2176 8.40514 32.2419 8.08143 32.3402 7.77671C32.4369 7.47927 32.4622 7.16322 32.414 6.85418C32.3658 6.54513 32.2455 6.25179 32.0627 5.99793C31.8852 5.75205 31.6515 5.55213 31.3809 5.41485C31.1105 5.27756 30.8112 5.20686 30.5079 5.20864H18.7191C18.6337 5.2082 18.5497 5.18735 18.474 5.14784C18.3983 5.10832 18.3332 5.05129 18.284 4.98149C18.2417 4.92525 18.2138 4.85954 18.2025 4.79006C18.1914 4.72059 18.1973 4.64943 18.2199 4.58276C18.3935 4.06694 18.4437 3.51753 18.3662 2.97879C18.2886 2.44005 18.0855 1.92707 17.7735 1.48118C17.4613 1.03528 17.0488 0.668955 16.5692 0.411711C16.0895 0.154466 15.5561 0.0135024 15.012 0.000180728C14.089 -0.00920914 13.1999 0.34763 12.5395 0.99252C12.0842 1.44164 11.7625 2.00841 11.6103 2.62964C11.4582 3.25087 11.4816 3.90214 11.6779 4.51085C11.7063 4.59346 11.7145 4.68165 11.7018 4.76807C11.6891 4.85448 11.656 4.93662 11.6052 5.00763C11.5597 5.07109 11.4995 5.12259 11.4298 5.15774C11.3601 5.19288 11.2829 5.21062 11.2048 5.20946H5.92241C5.82849 5.20941 5.73548 5.22785 5.64869 5.26376C5.56191 5.29966 5.48304 5.35232 5.4166 5.41871C5.35017 5.48511 5.29748 5.56394 5.26152 5.65071C5.22556 5.73747 5.20706 5.83047 5.20706 5.9244V9.97954C5.20758 10.2934 5.28312 10.6026 5.42738 10.8813C5.57164 11.16 5.78045 11.4002 6.03639 11.5818C6.27823 11.7573 6.55897 11.8715 6.85459 11.9148C7.15021 11.958 7.45191 11.929 7.73387 11.8302C8.16458 11.6806 8.63323 11.6811 9.0636 11.8316C9.49406 11.9821 9.86091 12.2738 10.1045 12.6591C10.3481 13.0446 10.4542 13.501 10.4055 13.9544C10.3568 14.4077 10.1561 14.8313 9.83623 15.1562C9.57206 15.4208 9.24026 15.6077 8.87717 15.6968C8.514 15.7858 8.13339 15.7735 7.77677 15.6611C7.47941 15.5644 7.16346 15.5391 6.8545 15.5872C6.54555 15.6353 6.25226 15.7556 5.9984 15.9381C5.75211 16.1155 5.55178 16.3492 5.41413 16.6197C5.27648 16.8903 5.20548 17.1898 5.20706 17.4934V29.2822C5.2067 29.3675 5.18593 29.4516 5.14648 29.5273C5.10705 29.603 5.05007 29.6681 4.98033 29.7173C4.92409 29.7596 4.85838 29.7875 4.7889 29.7987C4.71941 29.8099 4.64825 29.804 4.58159 29.7814C4.06486 29.6019 3.51285 29.5479 2.97113 29.6238C2.42941 29.6997 1.91349 29.9033 1.46597 30.2179C1.01845 30.5325 0.652144 30.9489 0.397288 31.4329C0.142431 31.9169 0.00632991 32.4546 0.000215548 33.0015C-0.00589881 33.5486 0.118149 34.0892 0.362122 34.5788C0.606096 35.0684 0.963 35.4929 1.40338 35.8173C1.84376 36.1419 2.35499 36.3569 2.89488 36.4449C3.43478 36.5329 3.98785 36.4912 4.50846 36.3233C4.59112 36.2949 4.67939 36.2866 4.76589 36.2993C4.85239 36.3119 4.93461 36.3451 5.00565 36.3961C5.06898 36.4417 5.12037 36.5019 5.15543 36.5715C5.1905 36.6412 5.20821 36.7185 5.20706 36.7965V42.0784C5.20706 42.268 5.28238 42.4499 5.41647 42.584C5.55054 42.718 5.73239 42.7934 5.922 42.7934H9.97757C10.2914 42.7929 10.6006 42.7176 10.8794 42.5734C11.1582 42.4293 11.3985 42.2207 11.5803 41.9649C11.7557 41.7231 11.87 41.4423 11.9133 41.1466C11.9565 40.851 11.9275 40.5494 11.8287 40.2674C11.7237 39.9649 11.6922 39.6417 11.7367 39.3246C11.7813 39.0075 11.9005 38.7056 12.0847 38.4436C12.2689 38.1817 12.5127 37.9673 12.796 37.8182C13.0794 37.6689 13.3941 37.5893 13.7143 37.5857C14.0345 37.5821 14.351 37.6547 14.6375 37.7975C14.9241 37.9403 15.1727 38.1492 15.3627 38.4069C15.5527 38.6647 15.6787 38.9639 15.7303 39.2799C15.782 39.5959 15.7576 39.9197 15.6595 40.2245C15.5626 40.5218 15.5372 40.8378 15.5853 41.1468C15.6334 41.4558 15.7538 41.7491 15.9365 42.0028C16.1139 42.2492 16.3476 42.4495 16.6182 42.5871C16.8887 42.7248 17.1883 42.7958 17.4918 42.7942H29.2806C29.366 42.7947 29.4501 42.8155 29.5257 42.855C29.6014 42.8945 29.6666 42.9515 29.7157 43.0214C29.758 43.0776 29.786 43.1433 29.797 43.2128C29.8082 43.2823 29.8021 43.3534 29.7795 43.42C29.6058 43.9359 29.5557 44.4854 29.6333 45.0241C29.711 45.5628 29.914 46.0758 30.2262 46.5217C30.5383 46.9675 30.9508 47.3338 31.4305 47.5911C31.9101 47.8484 32.4435 47.9893 32.9877 48.0027H33.0392C33.583 48.0023 34.1192 47.8735 34.6038 47.6266C35.0884 47.3797 35.5078 47.0218 35.8279 46.582C36.1479 46.1422 36.3594 45.6331 36.4453 45.096C36.5311 44.5589 36.4887 44.0091 36.3218 43.4916C36.2934 43.409 36.2852 43.3207 36.2979 43.2343C36.3106 43.1479 36.3439 43.0657 36.3949 42.9948C36.4404 42.9314 36.5005 42.8799 36.5702 42.8448C36.6398 42.8097 36.7168 42.7919 36.7948 42.7929H42.0772C42.1712 42.793 42.2642 42.7746 42.3509 42.7387C42.4377 42.7028 42.5165 42.6501 42.5829 42.5837C42.6493 42.5173 42.702 42.4384 42.7379 42.3517C42.7738 42.2649 42.7923 42.1719 42.7922 42.078V38.0237C42.7917 37.7101 42.7161 37.4011 42.5721 37.1225C42.428 36.8439 42.2193 36.6039 41.9637 36.4222C41.7217 36.2469 41.4407 36.1328 41.145 36.0896C40.8493 36.0464 40.5475 36.0754 40.2654 36.1743C39.8346 36.3237 39.3659 36.3231 38.9356 36.1725C38.5053 36.0218 38.1385 35.73 37.895 35.3445C37.6515 34.9589 37.5456 34.5024 37.5945 34.0491C37.6434 33.5957 37.8442 33.1722 38.1643 32.8475C38.4285 32.5831 38.7602 32.3961 39.1233 32.3072C39.4863 32.2183 39.8668 32.2306 40.2233 32.3429C40.5206 32.4396 40.8365 32.4649 41.1453 32.4168C41.4543 32.3687 41.7475 32.2485 42.0013 32.066C42.2478 31.8885 42.4483 31.6546 42.5859 31.3838C42.7236 31.113 42.7945 30.8132 42.7926 30.5094V18.7207C42.793 18.6352 42.8139 18.5512 42.8535 18.4755C42.8929 18.3999 42.95 18.3347 43.0197 18.2855C43.0761 18.2433 43.1417 18.2154 43.2112 18.2042C43.2807 18.193 43.3518 18.1989 43.4185 18.2214C44.1538 18.4767 44.954 18.4758 45.6887 18.2188C46.4235 17.9619 47.0499 17.4639 47.4658 16.8061C47.8819 16.1481 48.0633 15.3689 47.9804 14.5949C47.8976 13.8209 47.5554 13.0977 47.0096 12.5427L47.0087 12.5411ZM28.2699 30.7779C28.0803 30.7779 27.8985 30.8532 27.7643 30.9873C27.6303 31.1213 27.5549 31.3032 27.5549 31.4928V35.5467C25.239 36.2593 22.7623 36.2593 20.4464 35.5467V31.4928C20.4464 31.3032 20.371 31.1213 20.237 30.9873C20.1029 30.8532 19.921 30.7779 19.7314 30.7779C19.5418 30.7779 19.3599 30.8532 19.2259 30.9873C19.0918 31.1213 19.0165 31.3032 19.0165 31.4928V35.0005C18.4425 34.7393 17.8897 34.4337 17.3631 34.0866V28.8495C17.3633 28.5151 17.4801 28.1912 17.6935 27.9336C17.9069 27.676 18.2034 27.5009 18.5319 27.4384L22.8845 26.6128C23.6181 26.7849 24.3816 26.7849 25.1151 26.6128L29.4698 27.4384C29.7983 27.5009 30.0948 27.676 30.3082 27.9336C30.5216 28.1912 30.6384 28.5151 30.6386 28.8495V34.0862C30.1119 34.4337 29.5586 34.7395 28.984 35.0005V31.4928C28.984 31.3033 28.9088 31.1216 28.7749 30.9875C28.641 30.8535 28.4594 30.778 28.2699 30.7779ZM23.9998 25.312C23.2903 25.312 22.5968 25.1016 22.0068 24.7074C21.4168 24.3132 20.9571 23.753 20.6855 23.0974C20.414 22.442 20.343 21.7207 20.4814 21.0248C20.6198 20.3289 20.9615 19.6897 21.4632 19.188C21.9649 18.6862 22.6041 18.3446 23.3 18.2061C23.9959 18.0678 24.7172 18.1388 25.3726 18.4103C26.0282 18.6819 26.5885 19.1416 26.9826 19.7316C27.3768 20.3216 27.5872 21.0151 27.5872 21.7246C27.5861 22.6757 27.2079 23.5875 26.5353 24.2601C25.8627 24.9327 24.9509 25.3109 23.9998 25.312ZM29.7361 26.0339L27.2294 25.5584C28.0169 24.8959 28.5817 24.0073 28.8471 23.013C29.1126 22.0187 29.0658 20.9668 28.7133 20C28.3607 19.0331 27.7193 18.1981 26.8761 17.608C26.033 17.0181 25.0287 16.7016 23.9997 16.7016C22.9705 16.7016 21.9663 17.0181 21.1231 17.608C20.2799 18.1981 19.6386 19.0331 19.286 20C18.9334 20.9668 18.8867 22.0187 19.1522 23.013C19.4176 24.0073 19.9824 24.8959 20.7699 25.5584L18.2631 26.0339C17.6077 26.1588 17.0162 26.5083 16.5905 27.0221C16.1649 27.5361 15.9318 28.1823 15.9312 28.8495V32.9823C14.1119 31.3494 12.8308 29.2029 12.2573 26.8265C11.6838 24.4501 11.8448 21.9555 12.7191 19.6725C13.5933 17.3895 15.1397 15.4256 17.1539 14.0401C19.168 12.6547 21.5552 11.9129 23.9998 11.9129C26.4445 11.9129 28.8316 12.6547 30.8457 14.0401C32.8599 15.4256 34.4063 17.3895 35.2806 19.6725C36.1549 21.9555 36.3159 24.4501 35.7423 26.8265C35.1688 29.2029 33.8878 31.3494 32.0685 32.9823V28.8495C32.0679 28.1822 31.8348 27.5359 31.4091 27.0219C30.9833 26.508 30.3917 26.1586 29.7361 26.0339ZM6.63694 17.4934C6.63612 17.4152 6.65427 17.3379 6.68985 17.2683C6.72543 17.1986 6.77737 17.1387 6.84122 17.0934C6.91227 17.0427 6.99439 17.0096 7.08077 16.9969C7.16716 16.9841 7.25534 16.9922 7.338 17.0203C7.85867 17.1882 8.4118 17.2298 8.95174 17.1417C9.49166 17.0537 10.0029 16.8385 10.4433 16.5139C10.8837 16.1894 11.2405 15.7647 11.4844 15.275C11.7283 14.7853 11.8522 14.2446 11.846 13.6976C11.8397 13.1505 11.7035 12.6129 11.4484 12.1289C11.1934 11.6449 10.827 11.2285 10.3793 10.9141C9.93163 10.5996 9.41554 10.3962 8.87374 10.3205C8.33198 10.2448 7.77993 10.2991 7.26324 10.4788C7.19659 10.5013 7.12546 10.5072 7.056 10.4961C6.98654 10.485 6.92082 10.4572 6.86451 10.4151C6.7947 10.3659 6.73767 10.3007 6.69815 10.225C6.65865 10.1493 6.6378 10.0653 6.63735 9.97997V6.63853H11.2048C11.5085 6.64041 11.8083 6.56961 12.0791 6.43202C12.3499 6.29442 12.5838 6.09404 12.7613 5.84759C12.9441 5.59391 13.0645 5.30069 13.1126 4.99175C13.1607 4.68282 13.1353 4.36689 13.0383 4.06964C12.9237 3.71325 12.9102 3.33204 12.9993 2.96844C13.0885 2.60484 13.2768 2.27311 13.5433 2.01019C13.9303 1.63281 14.4511 1.4242 14.9916 1.43007C15.2629 1.43932 15.5296 1.50216 15.7765 1.61496C16.0234 1.72776 16.2456 1.88829 16.4301 2.08731C16.6148 2.28633 16.7582 2.51991 16.852 2.77458C16.946 3.02925 16.9887 3.3 16.9774 3.57122C16.9669 3.75579 16.9306 3.938 16.8696 4.11253C16.7708 4.39455 16.7417 4.69633 16.785 4.99203C16.8282 5.28772 16.9425 5.56853 17.118 5.81042C17.2996 6.06597 17.5397 6.27443 17.8182 6.41847C18.0967 6.56251 18.4055 6.63795 18.7191 6.63853H23.2849V10.5099C19.9551 10.6905 16.8093 12.0947 14.4514 14.4527C12.0935 16.8108 10.6896 19.9567 10.5091 23.2865H6.63694V17.4934ZM17.0914 41.1621C17.0406 41.0911 17.0074 41.009 16.9947 40.9226C16.982 40.8362 16.99 40.748 17.0183 40.6653C17.1862 40.1447 17.228 39.5916 17.14 39.0517C17.0521 38.5119 16.837 38.0006 16.5125 37.5602C16.1881 37.1198 15.7635 36.7629 15.2739 36.5188C14.7844 36.2748 14.2438 36.1508 13.6968 36.1569C13.1499 36.1629 12.6122 36.299 12.1281 36.5538C11.6441 36.8086 11.2276 37.1749 10.9131 37.6224C10.5984 38.0699 10.3947 38.5858 10.3189 39.1275C10.2429 39.6693 10.2969 40.2213 10.4764 40.738C10.499 40.8046 10.505 40.8758 10.4938 40.9453C10.4828 41.0147 10.4549 41.0805 10.4127 41.1368C10.3635 41.2065 10.2983 41.2635 10.2226 41.3029C10.1469 41.3424 10.0629 41.3631 9.97757 41.3635H6.63694V36.7965C6.63888 36.4928 6.56814 36.193 6.43062 35.9223C6.29309 35.6514 6.09279 35.4175 5.84643 35.2399C5.59265 35.0571 5.29936 34.9369 4.99036 34.8887C4.68137 34.8406 4.36539 34.866 4.06805 34.9629C3.7115 35.0752 3.33096 35.0875 2.9679 34.9985C2.60484 34.9095 2.27317 34.7225 2.00902 34.458C1.81841 34.2669 1.66862 34.0391 1.56871 33.7884C1.4688 33.5377 1.42087 33.2692 1.42782 32.9995C1.43477 32.7297 1.49647 32.4641 1.60916 32.2189C1.72185 31.9737 1.88318 31.7539 2.08337 31.5729C2.28171 31.3866 2.51542 31.242 2.77065 31.1477C3.02587 31.0534 3.29743 31.0113 3.56923 31.0238C3.75381 31.0343 3.93601 31.0707 4.11054 31.1316C4.39258 31.2304 4.69434 31.2594 4.99001 31.2161C5.28569 31.1728 5.5665 31.0587 5.80843 30.8833C6.06403 30.7017 6.27255 30.4616 6.41667 30.1831C6.56077 29.9046 6.63629 29.5958 6.63694 29.2822V24.7164H10.5087C10.6893 28.0461 12.0934 31.1918 14.4514 33.5497C16.8094 35.9076 19.9551 37.3116 23.2849 37.4922V41.3643H17.4918C17.4138 41.3654 17.3367 41.3475 17.267 41.3123C17.1973 41.2772 17.1369 41.2256 17.0914 41.1621ZM41.3627 30.5094C41.3639 30.5875 41.3462 30.6645 41.311 30.7342C41.2759 30.8039 41.2244 30.864 41.1609 30.9094C41.09 30.9604 41.0079 30.9937 40.9215 31.0065C40.835 31.0191 40.7468 31.0109 40.6641 30.9825C40.1434 30.8144 39.5902 30.7725 39.0501 30.8603C38.5101 30.9481 37.9986 31.1631 37.5579 31.4877C37.1174 31.8121 36.7603 32.2367 36.5162 32.7264C36.2721 33.2162 36.1479 33.7569 36.1539 34.3041C36.16 34.8512 36.2962 35.389 36.5511 35.8731C36.8061 36.3573 37.1726 36.7739 37.6203 37.0885C38.0679 37.4031 38.584 37.6067 39.1259 37.6825C39.6679 37.7583 40.22 37.7042 40.7368 37.5244C40.8035 37.5019 40.8747 37.4959 40.9443 37.507C41.0139 37.5181 41.0796 37.5459 41.136 37.5882C41.2058 37.6374 41.2628 37.7026 41.3022 37.7784C41.3416 37.8542 41.3624 37.9383 41.3627 38.0237V41.3643H36.7945C36.4908 41.3625 36.1912 41.4333 35.9205 41.5708C35.6498 41.7083 35.4159 41.9085 35.2383 42.1548C35.0556 42.4087 34.9353 42.702 34.8871 43.0111C34.8389 43.3201 34.8642 43.6362 34.961 43.9336C35.0756 44.2899 35.0891 44.6711 35.0001 45.0347C34.911 45.3983 34.7228 45.73 34.4564 45.9931C34.1632 46.2741 33.7925 46.4607 33.3922 46.529C32.9919 46.5972 32.5803 46.5439 32.2106 46.3759C31.8409 46.2079 31.53 45.9329 31.3181 45.5865C31.1061 45.2401 31.0029 44.8381 31.0218 44.4324C31.0325 44.248 31.0689 44.066 31.1296 43.8915C31.2286 43.6095 31.2578 43.3078 31.2147 43.0121C31.1715 42.7164 31.0575 42.4356 30.8821 42.1936C30.7005 41.9379 30.4604 41.7291 30.1818 41.5849C29.9033 41.4406 29.5943 41.365 29.2806 41.3643H24.7148V37.4922C28.0444 37.3115 31.19 35.9074 33.5478 33.5495C35.9056 31.1916 37.3096 28.046 37.4902 24.7164H41.3627V30.5094ZM45.9167 16.4295C45.719 16.6167 45.4855 16.7618 45.2301 16.8562C44.9749 16.9506 44.7031 16.9924 44.4313 16.9791C44.2466 16.9686 44.0642 16.9323 43.8896 16.8712C43.6074 16.7724 43.3056 16.7433 43.0098 16.7867C42.714 16.83 42.4331 16.9444 42.1912 17.12C41.9356 17.3015 41.727 17.5414 41.5829 17.8198C41.4388 18.0983 41.3633 18.4071 41.3627 18.7207V23.2865H37.4902C37.3096 19.9569 35.9056 16.8112 33.5478 14.4533C31.19 12.0954 28.0444 10.6913 24.7148 10.5106V6.63853H30.5079C30.5858 6.63727 30.6628 6.65493 30.7324 6.69002C30.802 6.7251 30.8621 6.77655 30.9074 6.83993C30.9585 6.91081 30.9919 6.99291 31.0047 7.07937C31.0175 7.16582 31.0094 7.25407 30.9809 7.33671C30.8137 7.8543 30.7712 8.40411 30.8569 8.94129C30.9425 9.47837 31.1541 9.98769 31.474 10.4275C31.7941 10.8674 32.2136 11.2253 32.6983 11.4722C33.183 11.7189 33.7192 11.8477 34.2632 11.8478H34.315C34.861 11.8395 35.3972 11.7016 35.8795 11.4458C36.3619 11.1898 36.7767 10.8231 37.0897 10.3758C37.4028 9.92846 37.6053 9.41323 37.6805 8.87237C37.7557 8.33158 37.7016 7.78063 37.5225 7.26482C37.4998 7.19819 37.4937 7.12703 37.5049 7.05754C37.5159 6.98805 37.5439 6.92232 37.5862 6.86608C37.6353 6.79633 37.7006 6.73936 37.7763 6.69992C37.8519 6.66047 37.9359 6.6397 38.0213 6.63934H41.3627V11.2064C41.3608 11.5101 41.4315 11.8098 41.569 12.0806C41.7066 12.3514 41.9069 12.5853 42.1533 12.7629C42.4071 12.9457 42.7005 13.0659 43.0095 13.1141C43.3185 13.1622 43.6347 13.1368 43.932 13.0399C44.2886 12.9276 44.6691 12.9153 45.0321 13.0044C45.3952 13.0934 45.7269 13.2803 45.991 13.5448C46.1816 13.736 46.3312 13.9637 46.4311 14.2144C46.5309 14.4651 46.5789 14.7334 46.5718 15.0032C46.5649 15.2729 46.5033 15.5384 46.3906 15.7836C46.278 16.0287 46.1168 16.2485 45.9167 16.4295Z" fill="url(#paint0_linear_2658_998)"/>
<path d="M47.0087 12.5411C46.5597 12.0857 45.993 11.764 45.3718 11.6119C44.7507 11.4597 44.0995 11.4831 43.4908 11.6795C43.4081 11.7079 43.3199 11.7161 43.2334 11.7034C43.1469 11.6907 43.0647 11.6577 42.9936 11.6067C42.9302 11.5612 42.8787 11.5011 42.8436 11.4313C42.8085 11.3616 42.7907 11.2845 42.7918 11.2064V5.9244C42.7918 5.8305 42.7734 5.7375 42.7375 5.65074C42.7016 5.56397 42.6489 5.48514 42.5825 5.41874C42.5161 5.35234 42.4373 5.29968 42.3505 5.26377C42.2637 5.22786 42.1707 5.20941 42.0769 5.20946H38.0217C37.7079 5.20981 37.3988 5.28519 37.12 5.42932C36.8413 5.57344 36.6011 5.78213 36.4194 6.03797C36.2439 6.27987 36.1297 6.56069 36.0865 6.85641C36.0433 7.15211 36.0724 7.45389 36.1714 7.73586C36.2761 8.03842 36.3074 8.36153 36.2626 8.67857C36.2179 8.99554 36.0984 9.29743 35.914 9.55911C35.7297 9.82089 35.4858 10.0351 35.2024 10.1841C34.9191 10.333 34.6043 10.4125 34.2842 10.4159C33.964 10.4193 33.6477 10.3466 33.3611 10.2037C33.0747 10.0608 32.8263 9.85191 32.6363 9.59409C32.4465 9.33634 32.3206 9.03711 32.2691 8.72109C32.2176 8.40514 32.2419 8.08143 32.3402 7.77671C32.4369 7.47927 32.4622 7.16322 32.414 6.85418C32.3658 6.54513 32.2455 6.25179 32.0627 5.99793C31.8852 5.75205 31.6515 5.55213 31.3809 5.41485C31.1105 5.27756 30.8112 5.20686 30.5079 5.20864H18.7191C18.6337 5.2082 18.5497 5.18735 18.474 5.14784C18.3983 5.10832 18.3332 5.05129 18.284 4.98149C18.2417 4.92525 18.2138 4.85954 18.2025 4.79006C18.1914 4.72059 18.1973 4.64943 18.2199 4.58276C18.3935 4.06694 18.4437 3.51753 18.3662 2.97879C18.2886 2.44005 18.0855 1.92707 17.7735 1.48118C17.4613 1.03528 17.0488 0.668955 16.5692 0.411711C16.0895 0.154466 15.5561 0.0135024 15.012 0.000180728C14.089 -0.00920914 13.1999 0.34763 12.5395 0.99252C12.0842 1.44164 11.7625 2.00841 11.6103 2.62964C11.4582 3.25087 11.4816 3.90214 11.6779 4.51085C11.7063 4.59346 11.7145 4.68165 11.7018 4.76807C11.6891 4.85448 11.656 4.93662 11.6052 5.00763C11.5597 5.07109 11.4995 5.12259 11.4298 5.15774C11.3601 5.19288 11.2829 5.21062 11.2048 5.20946H5.92241C5.82849 5.20941 5.73548 5.22785 5.64869 5.26376C5.56191 5.29966 5.48304 5.35232 5.4166 5.41871C5.35017 5.48511 5.29748 5.56394 5.26152 5.65071C5.22556 5.73747 5.20706 5.83047 5.20706 5.9244V9.97954C5.20758 10.2934 5.28312 10.6026 5.42738 10.8813C5.57164 11.16 5.78045 11.4002 6.03639 11.5818C6.27823 11.7573 6.55897 11.8715 6.85459 11.9148C7.15021 11.958 7.45191 11.929 7.73387 11.8302C8.16458 11.6806 8.63323 11.6811 9.0636 11.8316C9.49406 11.9821 9.86091 12.2738 10.1045 12.6591C10.3481 13.0446 10.4542 13.501 10.4055 13.9544C10.3568 14.4077 10.1561 14.8313 9.83623 15.1562C9.57206 15.4208 9.24026 15.6077 8.87717 15.6968C8.514 15.7858 8.13339 15.7735 7.77677 15.6611C7.47941 15.5644 7.16346 15.5391 6.8545 15.5872C6.54555 15.6353 6.25226 15.7556 5.9984 15.9381C5.75211 16.1155 5.55178 16.3492 5.41413 16.6197C5.27648 16.8903 5.20548 17.1898 5.20706 17.4934V29.2822C5.2067 29.3675 5.18593 29.4516 5.14648 29.5273C5.10705 29.603 5.05007 29.6681 4.98033 29.7173C4.92409 29.7596 4.85838 29.7875 4.7889 29.7987C4.71941 29.8099 4.64825 29.804 4.58159 29.7814C4.06486 29.6019 3.51285 29.5479 2.97113 29.6238C2.42941 29.6997 1.91349 29.9033 1.46597 30.2179C1.01845 30.5325 0.652144 30.9489 0.397288 31.4329C0.142431 31.9169 0.00632991 32.4546 0.000215548 33.0015C-0.00589881 33.5486 0.118149 34.0892 0.362122 34.5788C0.606096 35.0684 0.963 35.4929 1.40338 35.8173C1.84376 36.1419 2.35499 36.3569 2.89488 36.4449C3.43478 36.5329 3.98785 36.4912 4.50846 36.3233C4.59112 36.2949 4.67939 36.2866 4.76589 36.2993C4.85239 36.3119 4.93461 36.3451 5.00565 36.3961C5.06898 36.4417 5.12037 36.5019 5.15543 36.5715C5.1905 36.6412 5.20821 36.7185 5.20706 36.7965V42.0784C5.20706 42.268 5.28238 42.4499 5.41647 42.584C5.55054 42.718 5.73239 42.7934 5.922 42.7934H9.97757C10.2914 42.7929 10.6006 42.7176 10.8794 42.5734C11.1582 42.4293 11.3985 42.2207 11.5803 41.9649C11.7557 41.7231 11.87 41.4423 11.9133 41.1466C11.9565 40.851 11.9275 40.5494 11.8287 40.2674C11.7237 39.9649 11.6922 39.6417 11.7367 39.3246C11.7813 39.0075 11.9005 38.7056 12.0847 38.4436C12.2689 38.1817 12.5127 37.9673 12.796 37.8182C13.0794 37.6689 13.3941 37.5893 13.7143 37.5857C14.0345 37.5821 14.351 37.6547 14.6375 37.7975C14.9241 37.9403 15.1727 38.1492 15.3627 38.4069C15.5527 38.6647 15.6787 38.9639 15.7303 39.2799C15.782 39.5959 15.7576 39.9197 15.6595 40.2245C15.5626 40.5218 15.5372 40.8378 15.5853 41.1468C15.6334 41.4558 15.7538 41.7491 15.9365 42.0028C16.1139 42.2492 16.3476 42.4495 16.6182 42.5871C16.8887 42.7248 17.1883 42.7958 17.4918 42.7942H29.2806C29.366 42.7947 29.4501 42.8155 29.5257 42.855C29.6014 42.8945 29.6666 42.9515 29.7157 43.0214C29.758 43.0776 29.786 43.1433 29.797 43.2128C29.8082 43.2823 29.8021 43.3534 29.7795 43.42C29.6058 43.9359 29.5557 44.4854 29.6333 45.0241C29.711 45.5628 29.914 46.0758 30.2262 46.5217C30.5383 46.9675 30.9508 47.3338 31.4305 47.5911C31.9101 47.8484 32.4435 47.9893 32.9877 48.0027H33.0392C33.583 48.0023 34.1192 47.8735 34.6038 47.6266C35.0884 47.3797 35.5078 47.0218 35.8279 46.582C36.1479 46.1422 36.3594 45.6331 36.4453 45.096C36.5311 44.5589 36.4887 44.0091 36.3218 43.4916C36.2934 43.409 36.2852 43.3207 36.2979 43.2343C36.3106 43.1479 36.3439 43.0657 36.3949 42.9948C36.4404 42.9314 36.5005 42.8799 36.5702 42.8448C36.6398 42.8097 36.7168 42.7919 36.7948 42.7929H42.0772C42.1712 42.793 42.2642 42.7746 42.3509 42.7387C42.4377 42.7028 42.5165 42.6501 42.5829 42.5837C42.6493 42.5173 42.702 42.4384 42.7379 42.3517C42.7738 42.2649 42.7923 42.1719 42.7922 42.078V38.0237C42.7917 37.7101 42.7161 37.4011 42.5721 37.1225C42.428 36.8439 42.2193 36.6039 41.9637 36.4222C41.7217 36.2469 41.4407 36.1328 41.145 36.0896C40.8493 36.0464 40.5475 36.0754 40.2654 36.1743C39.8346 36.3237 39.3659 36.3231 38.9356 36.1725C38.5053 36.0218 38.1385 35.73 37.895 35.3445C37.6515 34.9589 37.5456 34.5024 37.5945 34.0491C37.6434 33.5957 37.8442 33.1722 38.1643 32.8475C38.4285 32.5831 38.7602 32.3961 39.1233 32.3072C39.4863 32.2183 39.8668 32.2306 40.2233 32.3429C40.5206 32.4396 40.8365 32.4649 41.1453 32.4168C41.4543 32.3687 41.7475 32.2485 42.0013 32.066C42.2478 31.8885 42.4483 31.6546 42.5859 31.3838C42.7236 31.113 42.7945 30.8132 42.7926 30.5094V18.7207C42.793 18.6352 42.8139 18.5512 42.8535 18.4755C42.8929 18.3999 42.95 18.3347 43.0197 18.2855C43.0761 18.2433 43.1417 18.2154 43.2112 18.2042C43.2807 18.193 43.3518 18.1989 43.4185 18.2214C44.1538 18.4767 44.954 18.4758 45.6887 18.2188C46.4235 17.9619 47.0499 17.4639 47.4658 16.8061C47.8819 16.1481 48.0633 15.3689 47.9804 14.5949C47.8976 13.8209 47.5554 13.0977 47.0096 12.5427L47.0087 12.5411ZM28.2699 30.7779C28.0803 30.7779 27.8985 30.8532 27.7643 30.9873C27.6303 31.1213 27.5549 31.3032 27.5549 31.4928V35.5467C25.239 36.2593 22.7623 36.2593 20.4464 35.5467V31.4928C20.4464 31.3032 20.371 31.1213 20.237 30.9873C20.1029 30.8532 19.921 30.7779 19.7314 30.7779C19.5418 30.7779 19.3599 30.8532 19.2259 30.9873C19.0918 31.1213 19.0165 31.3032 19.0165 31.4928V35.0005C18.4425 34.7393 17.8897 34.4337 17.3631 34.0866V28.8495C17.3633 28.5151 17.4801 28.1912 17.6935 27.9336C17.9069 27.676 18.2034 27.5009 18.5319 27.4384L22.8845 26.6128C23.6181 26.7849 24.3816 26.7849 25.1151 26.6128L29.4698 27.4384C29.7983 27.5009 30.0948 27.676 30.3082 27.9336C30.5216 28.1912 30.6384 28.5151 30.6386 28.8495V34.0862C30.1119 34.4337 29.5586 34.7395 28.984 35.0005V31.4928C28.984 31.3033 28.9088 31.1216 28.7749 30.9875C28.641 30.8535 28.4594 30.778 28.2699 30.7779ZM23.9998 25.312C23.2903 25.312 22.5968 25.1016 22.0068 24.7074C21.4168 24.3132 20.9571 23.753 20.6855 23.0974C20.414 22.442 20.343 21.7207 20.4814 21.0248C20.6198 20.3289 20.9615 19.6897 21.4632 19.188C21.9649 18.6862 22.6041 18.3446 23.3 18.2061C23.9959 18.0678 24.7172 18.1388 25.3726 18.4103C26.0282 18.6819 26.5885 19.1416 26.9826 19.7316C27.3768 20.3216 27.5872 21.0151 27.5872 21.7246C27.5861 22.6757 27.2079 23.5875 26.5353 24.2601C25.8627 24.9327 24.9509 25.3109 23.9998 25.312ZM29.7361 26.0339L27.2294 25.5584C28.0169 24.8959 28.5817 24.0073 28.8471 23.013C29.1126 22.0187 29.0658 20.9668 28.7133 20C28.3607 19.0331 27.7193 18.1981 26.8761 17.608C26.033 17.0181 25.0287 16.7016 23.9997 16.7016C22.9705 16.7016 21.9663 17.0181 21.1231 17.608C20.2799 18.1981 19.6386 19.0331 19.286 20C18.9334 20.9668 18.8867 22.0187 19.1522 23.013C19.4176 24.0073 19.9824 24.8959 20.7699 25.5584L18.2631 26.0339C17.6077 26.1588 17.0162 26.5083 16.5905 27.0221C16.1649 27.5361 15.9318 28.1823 15.9312 28.8495V32.9823C14.1119 31.3494 12.8308 29.2029 12.2573 26.8265C11.6838 24.4501 11.8448 21.9555 12.7191 19.6725C13.5933 17.3895 15.1397 15.4256 17.1539 14.0401C19.168 12.6547 21.5552 11.9129 23.9998 11.9129C26.4445 11.9129 28.8316 12.6547 30.8457 14.0401C32.8599 15.4256 34.4063 17.3895 35.2806 19.6725C36.1549 21.9555 36.3159 24.4501 35.7423 26.8265C35.1688 29.2029 33.8878 31.3494 32.0685 32.9823V28.8495C32.0679 28.1822 31.8348 27.5359 31.4091 27.0219C30.9833 26.508 30.3917 26.1586 29.7361 26.0339ZM6.63694 17.4934C6.63612 17.4152 6.65427 17.3379 6.68985 17.2683C6.72543 17.1986 6.77737 17.1387 6.84122 17.0934C6.91227 17.0427 6.99439 17.0096 7.08077 16.9969C7.16716 16.9841 7.25534 16.9922 7.338 17.0203C7.85867 17.1882 8.4118 17.2298 8.95174 17.1417C9.49166 17.0537 10.0029 16.8385 10.4433 16.5139C10.8837 16.1894 11.2405 15.7647 11.4844 15.275C11.7283 14.7853 11.8522 14.2446 11.846 13.6976C11.8397 13.1505 11.7035 12.6129 11.4484 12.1289C11.1934 11.6449 10.827 11.2285 10.3793 10.9141C9.93163 10.5996 9.41554 10.3962 8.87374 10.3205C8.33198 10.2448 7.77993 10.2991 7.26324 10.4788C7.19659 10.5013 7.12546 10.5072 7.056 10.4961C6.98654 10.485 6.92082 10.4572 6.86451 10.4151C6.7947 10.3659 6.73767 10.3007 6.69815 10.225C6.65865 10.1493 6.6378 10.0653 6.63735 9.97997V6.63853H11.2048C11.5085 6.64041 11.8083 6.56961 12.0791 6.43202C12.3499 6.29442 12.5838 6.09404 12.7613 5.84759C12.9441 5.59391 13.0645 5.30069 13.1126 4.99175C13.1607 4.68282 13.1353 4.36689 13.0383 4.06964C12.9237 3.71325 12.9102 3.33204 12.9993 2.96844C13.0885 2.60484 13.2768 2.27311 13.5433 2.01019C13.9303 1.63281 14.4511 1.4242 14.9916 1.43007C15.2629 1.43932 15.5296 1.50216 15.7765 1.61496C16.0234 1.72776 16.2456 1.88829 16.4301 2.08731C16.6148 2.28633 16.7582 2.51991 16.852 2.77458C16.946 3.02925 16.9887 3.3 16.9774 3.57122C16.9669 3.75579 16.9306 3.938 16.8696 4.11253C16.7708 4.39455 16.7417 4.69633 16.785 4.99203C16.8282 5.28772 16.9425 5.56853 17.118 5.81042C17.2996 6.06597 17.5397 6.27443 17.8182 6.41847C18.0967 6.56251 18.4055 6.63795 18.7191 6.63853H23.2849V10.5099C19.9551 10.6905 16.8093 12.0947 14.4514 14.4527C12.0935 16.8108 10.6896 19.9567 10.5091 23.2865H6.63694V17.4934ZM17.0914 41.1621C17.0406 41.0911 17.0074 41.009 16.9947 40.9226C16.982 40.8362 16.99 40.748 17.0183 40.6653C17.1862 40.1447 17.228 39.5916 17.14 39.0517C17.0521 38.5119 16.837 38.0006 16.5125 37.5602C16.1881 37.1198 15.7635 36.7629 15.2739 36.5188C14.7844 36.2748 14.2438 36.1508 13.6968 36.1569C13.1499 36.1629 12.6122 36.299 12.1281 36.5538C11.6441 36.8086 11.2276 37.1749 10.9131 37.6224C10.5984 38.0699 10.3947 38.5858 10.3189 39.1275C10.2429 39.6693 10.2969 40.2213 10.4764 40.738C10.499 40.8046 10.505 40.8758 10.4938 40.9453C10.4828 41.0147 10.4549 41.0805 10.4127 41.1368C10.3635 41.2065 10.2983 41.2635 10.2226 41.3029C10.1469 41.3424 10.0629 41.3631 9.97757 41.3635H6.63694V36.7965C6.63888 36.4928 6.56814 36.193 6.43062 35.9223C6.29309 35.6514 6.09279 35.4175 5.84643 35.2399C5.59265 35.0571 5.29936 34.9369 4.99036 34.8887C4.68137 34.8406 4.36539 34.866 4.06805 34.9629C3.7115 35.0752 3.33096 35.0875 2.9679 34.9985C2.60484 34.9095 2.27317 34.7225 2.00902 34.458C1.81841 34.2669 1.66862 34.0391 1.56871 33.7884C1.4688 33.5377 1.42087 33.2692 1.42782 32.9995C1.43477 32.7297 1.49647 32.4641 1.60916 32.2189C1.72185 31.9737 1.88318 31.7539 2.08337 31.5729C2.28171 31.3866 2.51542 31.242 2.77065 31.1477C3.02587 31.0534 3.29743 31.0113 3.56923 31.0238C3.75381 31.0343 3.93601 31.0707 4.11054 31.1316C4.39258 31.2304 4.69434 31.2594 4.99001 31.2161C5.28569 31.1728 5.5665 31.0587 5.80843 30.8833C6.06403 30.7017 6.27255 30.4616 6.41667 30.1831C6.56077 29.9046 6.63629 29.5958 6.63694 29.2822V24.7164H10.5087C10.6893 28.0461 12.0934 31.1918 14.4514 33.5497C16.8094 35.9076 19.9551 37.3116 23.2849 37.4922V41.3643H17.4918C17.4138 41.3654 17.3367 41.3475 17.267 41.3123C17.1973 41.2772 17.1369 41.2256 17.0914 41.1621ZM41.3627 30.5094C41.3639 30.5875 41.3462 30.6645 41.311 30.7342C41.2759 30.8039 41.2244 30.864 41.1609 30.9094C41.09 30.9604 41.0079 30.9937 40.9215 31.0065C40.835 31.0191 40.7468 31.0109 40.6641 30.9825C40.1434 30.8144 39.5902 30.7725 39.0501 30.8603C38.5101 30.9481 37.9986 31.1631 37.5579 31.4877C37.1174 31.8121 36.7603 32.2367 36.5162 32.7264C36.2721 33.2162 36.1479 33.7569 36.1539 34.3041C36.16 34.8512 36.2962 35.389 36.5511 35.8731C36.8061 36.3573 37.1726 36.7739 37.6203 37.0885C38.0679 37.4031 38.584 37.6067 39.1259 37.6825C39.6679 37.7583 40.22 37.7042 40.7368 37.5244C40.8035 37.5019 40.8747 37.4959 40.9443 37.507C41.0139 37.5181 41.0796 37.5459 41.136 37.5882C41.2058 37.6374 41.2628 37.7026 41.3022 37.7784C41.3416 37.8542 41.3624 37.9383 41.3627 38.0237V41.3643H36.7945C36.4908 41.3625 36.1912 41.4333 35.9205 41.5708C35.6498 41.7083 35.4159 41.9085 35.2383 42.1548C35.0556 42.4087 34.9353 42.702 34.8871 43.0111C34.8389 43.3201 34.8642 43.6362 34.961 43.9336C35.0756 44.2899 35.0891 44.6711 35.0001 45.0347C34.911 45.3983 34.7228 45.73 34.4564 45.9931C34.1632 46.2741 33.7925 46.4607 33.3922 46.529C32.9919 46.5972 32.5803 46.5439 32.2106 46.3759C31.8409 46.2079 31.53 45.9329 31.3181 45.5865C31.1061 45.2401 31.0029 44.8381 31.0218 44.4324C31.0325 44.248 31.0689 44.066 31.1296 43.8915C31.2286 43.6095 31.2578 43.3078 31.2147 43.0121C31.1715 42.7164 31.0575 42.4356 30.8821 42.1936C30.7005 41.9379 30.4604 41.7291 30.1818 41.5849C29.9033 41.4406 29.5943 41.365 29.2806 41.3643H24.7148V37.4922C28.0444 37.3115 31.19 35.9074 33.5478 33.5495C35.9056 31.1916 37.3096 28.046 37.4902 24.7164H41.3627V30.5094ZM45.9167 16.4295C45.719 16.6167 45.4855 16.7618 45.2301 16.8562C44.9749 16.9506 44.7031 16.9924 44.4313 16.9791C44.2466 16.9686 44.0642 16.9323 43.8896 16.8712C43.6074 16.7724 43.3056 16.7433 43.0098 16.7867C42.714 16.83 42.4331 16.9444 42.1912 17.12C41.9356 17.3015 41.727 17.5414 41.5829 17.8198C41.4388 18.0983 41.3633 18.4071 41.3627 18.7207V23.2865H37.4902C37.3096 19.9569 35.9056 16.8112 33.5478 14.4533C31.19 12.0954 28.0444 10.6913 24.7148 10.5106V6.63853H30.5079C30.5858 6.63727 30.6628 6.65493 30.7324 6.69002C30.802 6.7251 30.8621 6.77655 30.9074 6.83993C30.9585 6.91081 30.9919 6.99291 31.0047 7.07937C31.0175 7.16582 31.0094 7.25407 30.9809 7.33671C30.8137 7.8543 30.7712 8.40411 30.8569 8.94129C30.9425 9.47837 31.1541 9.98769 31.474 10.4275C31.7941 10.8674 32.2136 11.2253 32.6983 11.4722C33.183 11.7189 33.7192 11.8477 34.2632 11.8478H34.315C34.861 11.8395 35.3972 11.7016 35.8795 11.4458C36.3619 11.1898 36.7767 10.8231 37.0897 10.3758C37.4028 9.92846 37.6053 9.41323 37.6805 8.87237C37.7557 8.33158 37.7016 7.78063 37.5225 7.26482C37.4998 7.19819 37.4937 7.12703 37.5049 7.05754C37.5159 6.98805 37.5439 6.92232 37.5862 6.86608C37.6353 6.79633 37.7006 6.73936 37.7763 6.69992C37.8519 6.66047 37.9359 6.6397 38.0213 6.63934H41.3627V11.2064C41.3608 11.5101 41.4315 11.8098 41.569 12.0806C41.7066 12.3514 41.9069 12.5853 42.1533 12.7629C42.4071 12.9457 42.7005 13.0659 43.0095 13.1141C43.3185 13.1622 43.6347 13.1368 43.932 13.0399C44.2886 12.9276 44.6691 12.9153 45.0321 13.0044C45.3952 13.0934 45.7269 13.2803 45.991 13.5448C46.1816 13.736 46.3312 13.9637 46.4311 14.2144C46.5309 14.4651 46.5789 14.7334 46.5718 15.0032C46.5649 15.2729 46.5033 15.5384 46.3906 15.7836C46.278 16.0287 46.1168 16.2485 45.9167 16.4295Z" fill="#3DA4C2"/>
</g>
<defs>
<linearGradient id="paint0_linear_2658_998" x1="48" y1="48.0027" x2="-0.0745799" y2="0.0748082" gradientUnits="userSpaceOnUse">
<stop stop-color="#31393C"/>
<stop offset="1" stop-color="#3D96F5"/>
</linearGradient>
<clipPath id="clip0_2658_998">
<rect width="48" height="48" fill="white"/>
</clipPath>
</defs>
</svg>
