<svg width="1440" height="1296" viewBox="0 0 1440 1296" fill="none" xmlns="http://www.w3.org/2000/svg">
<g filter="url(#filter0_f_2658_1032)">
<path d="M2008 282.939V561.836L1566.32 866.868L171.461 834.013L-263.722 711.926L-351.408 474.098L-569 282.939H2008Z" fill="#D2D7F9"/>
</g>
<g filter="url(#filter1_f_2658_1032)">
<path d="M-319 241.889H185.368L737 372.267L677.583 784.013L456.795 912.474L26.6982 938.358L-319 1002.59V241.889Z" fill="#3582FE"/>
</g>
<g filter="url(#filter2_f_2658_1032)">
<path d="M-319 241.889H54.5L463 355.826L497 553.122L419 715.651L255.5 827.912L-63 850.532L-319 906.663V241.889Z" fill="#02379A"/>
</g>
<g filter="url(#filter3_f_2658_1032)">
<path d="M1492 864.355L1366 1037.36L1074.5 911.69L783 834.614L875.109 631.454L875.109 381.151L1043 268.96L1229.13 256.096L1492 200V864.355Z" fill="#3582FE"/>
</g>
<g filter="url(#filter4_f_2658_1032)">
<path d="M1682 923L1556 1096L1264.5 970.334L973 893.259L1065.11 690.099L1065.11 439.796L1233 327.605L1419.13 314.74L1682 258.645V923Z" fill="#02379A"/>
</g>
<defs>
<filter id="filter0_f_2658_1032" x="-769" y="82.9395" width="2977" height="983.929" filterUnits="userSpaceOnUse" color-interpolation-filters="sRGB">
<feFlood flood-opacity="0" result="BackgroundImageFix"/>
<feBlend mode="normal" in="SourceGraphic" in2="BackgroundImageFix" result="shape"/>
<feGaussianBlur stdDeviation="100" result="effect1_foregroundBlur_2658_1032"/>
</filter>
<filter id="filter1_f_2658_1032" x="-519" y="41.889" width="1456" height="1160.7" filterUnits="userSpaceOnUse" color-interpolation-filters="sRGB">
<feFlood flood-opacity="0" result="BackgroundImageFix"/>
<feBlend mode="normal" in="SourceGraphic" in2="BackgroundImageFix" result="shape"/>
<feGaussianBlur stdDeviation="100" result="effect1_foregroundBlur_2658_1032"/>
</filter>
<filter id="filter2_f_2658_1032" x="-519" y="41.889" width="1216" height="1064.77" filterUnits="userSpaceOnUse" color-interpolation-filters="sRGB">
<feFlood flood-opacity="0" result="BackgroundImageFix"/>
<feBlend mode="normal" in="SourceGraphic" in2="BackgroundImageFix" result="shape"/>
<feGaussianBlur stdDeviation="100" result="effect1_foregroundBlur_2658_1032"/>
</filter>
<filter id="filter3_f_2658_1032" x="583" y="0" width="1109" height="1237.36" filterUnits="userSpaceOnUse" color-interpolation-filters="sRGB">
<feFlood flood-opacity="0" result="BackgroundImageFix"/>
<feBlend mode="normal" in="SourceGraphic" in2="BackgroundImageFix" result="shape"/>
<feGaussianBlur stdDeviation="100" result="effect1_foregroundBlur_2658_1032"/>
</filter>
<filter id="filter4_f_2658_1032" x="773" y="58.6448" width="1109" height="1237.36" filterUnits="userSpaceOnUse" color-interpolation-filters="sRGB">
<feFlood flood-opacity="0" result="BackgroundImageFix"/>
<feBlend mode="normal" in="SourceGraphic" in2="BackgroundImageFix" result="shape"/>
<feGaussianBlur stdDeviation="100" result="effect1_foregroundBlur_2658_1032"/>
</filter>
</defs>
</svg>
