<svg width="94" height="28" viewBox="0 0 94 28" fill="none" xmlns="http://www.w3.org/2000/svg">
<path d="M15.8164 5.28861H20.166V8.16772H20.3364C20.9235 6.12593 22.4133 5.05029 24.2188 5.05029C24.6733 5.05029 25.2288 5.11471 25.6329 5.21131V9.26911C25.2098 9.1274 24.3577 9.02436 23.7389 9.02436C21.7567 9.02436 20.3049 10.422 20.3049 12.4509V21.7839H15.8164V5.28861Z" fill="#067EFB"/>
<path d="M26.1406 17.1838C26.1406 13.4996 29.0129 12.4046 32.2136 12.1019C35.0227 11.8249 36.1275 11.6832 36.1275 10.6205V10.5561C36.1275 9.20347 35.2563 8.41767 33.7286 8.41767C32.1188 8.41767 31.1592 9.22279 30.8563 10.3178L26.7088 9.97639C27.3274 6.96847 29.8778 5.07483 33.7539 5.07483C37.3521 5.07483 40.616 6.73015 40.616 10.6591V21.7891H36.3611V19.5025H36.2348C35.4458 21.0419 33.8991 22.1047 31.5065 22.1047C28.4258 22.0982 26.1406 20.4493 26.1406 17.1838ZM36.159 15.8892V14.1372C35.6225 14.5044 34.0191 14.7362 33.0404 14.8779C31.4623 15.1034 30.4207 15.7346 30.4207 17.0291C30.4207 18.2852 31.4119 18.9422 32.7879 18.9422C34.764 18.9422 36.159 17.6218 36.159 15.8892Z" fill="#067EFB"/>
<path d="M42.9883 5.31519H47.4072V8.08479H47.6093C48.2089 6.74507 49.5031 5.09619 52.2113 5.09619C55.7592 5.09619 58.7578 7.91088 58.7578 13.5853C58.7578 19.1052 55.8855 22.0809 52.1988 22.0809C49.5852 22.0809 48.2279 20.5415 47.6093 19.1697H47.4704V28.0001H42.9883V5.31519ZM50.7783 18.4418C52.9815 18.4418 54.181 16.4452 54.181 13.566C54.181 10.7062 53.0005 8.74177 50.7783 8.74177C48.6003 8.74177 47.3757 10.6225 47.3757 13.566C47.3757 16.5096 48.6193 18.4418 50.7783 18.4418Z" fill="#067EFB"/>
<path d="M60.3906 5.31519H64.8159V8.08479H65.018C65.6176 6.74507 66.9118 5.09619 69.62 5.09619C73.1679 5.09619 76.1665 7.91088 76.1665 13.5853C76.1665 19.1052 73.2942 22.0809 69.6075 22.0809C66.9939 22.0809 65.6366 20.5415 65.018 19.1697H64.8791V28.0001H60.3906V5.31519ZM68.1808 18.4418C70.3839 18.4418 71.5834 16.4452 71.5834 13.566C71.5834 10.7062 70.4028 8.74177 68.1808 8.74177C66.0028 8.74177 64.778 10.6225 64.778 13.566C64.778 16.5096 66.028 18.4418 68.1808 18.4418Z" fill="#067EFB"/>
<path d="M77.6719 13.6427C77.6719 8.54795 80.7588 5.10205 85.5187 5.10205C89.7925 5.10205 93.1195 7.87165 93.1195 13.4817V14.7377H82.1035V14.7506C82.1035 17.2111 83.5238 18.7247 85.765 18.7247C87.261 18.7247 88.4163 18.0676 88.8708 16.8116L93.0185 17.0887C92.3871 20.1481 89.6915 22.1383 85.6892 22.1383C80.7146 22.1383 77.6719 18.8727 77.6719 13.6427ZM88.8961 11.9037C88.8835 9.93919 87.5388 8.52218 85.5882 8.52218C83.5996 8.52218 82.1982 10.0294 82.1035 11.9037H88.8961Z" fill="#067EFB"/>
<path d="M0 0V3.83236H4.55789H13.3328H14.2797V0H0Z" fill="#067EFB"/>
<path d="M0 9.77667V21.789H4.55789V13.6155H13.3328V9.77667H4.55789H0Z" fill="#067EFB"/>
</svg>
