<svg width="217" height="50" viewBox="0 0 217 50" fill="none" xmlns="http://www.w3.org/2000/svg">
<rect x="0.5" y="0.5" width="214" height="49" rx="5.5" fill="white" stroke="#0089FF"/>
<path d="M62.8203 22H60.4375V10.5781H66.9844V12.5625H62.8203V15.5078H66.6953V17.4844H62.8203V22ZM73.5863 13.1016C73.706 13.1016 73.8441 13.1094 74.0003 13.125C74.1618 13.1354 74.292 13.151 74.3909 13.1719L74.2113 15.4062C74.1331 15.3802 74.0211 15.362 73.8753 15.3516C73.7347 15.3359 73.6123 15.3281 73.5081 15.3281C73.2008 15.3281 72.9014 15.3672 72.6097 15.4453C72.3232 15.5234 72.0654 15.651 71.8363 15.8281C71.6071 16 71.4248 16.2292 71.2894 16.5156C71.1592 16.7969 71.0941 17.1432 71.0941 17.5547V22H68.7113V13.2656H70.5159L70.8675 14.7344H70.9847C71.1566 14.4375 71.3701 14.1667 71.6253 13.9219C71.8857 13.6719 72.18 13.474 72.5081 13.3281C72.8415 13.1771 73.2008 13.1016 73.5863 13.1016ZM79.235 13.0859C80.4069 13.0859 81.3053 13.3411 81.9303 13.8516C82.5553 14.362 82.8678 15.138 82.8678 16.1797V22H81.2037L80.7428 20.8125H80.6803C80.4303 21.125 80.1751 21.3802 79.9147 21.5781C79.6543 21.776 79.3548 21.9219 79.0162 22.0156C78.6777 22.1094 78.2662 22.1562 77.7819 22.1562C77.2662 22.1562 76.8027 22.0573 76.3912 21.8594C75.985 21.6615 75.6647 21.3594 75.4303 20.9531C75.1959 20.5417 75.0787 20.0208 75.0787 19.3906C75.0787 18.4635 75.4043 17.7812 76.0553 17.3438C76.7064 16.901 77.6829 16.6562 78.985 16.6094L80.5006 16.5625V16.1797C80.5006 15.7214 80.3808 15.3854 80.1412 15.1719C79.9017 14.9583 79.5683 14.8516 79.1412 14.8516C78.7194 14.8516 78.3053 14.9115 77.8991 15.0312C77.4928 15.151 77.0866 15.3021 76.6803 15.4844L75.8912 13.875C76.3548 13.6302 76.873 13.4375 77.4459 13.2969C78.0241 13.1562 78.6204 13.0859 79.235 13.0859ZM80.5006 17.9531L79.5787 17.9844C78.8079 18.0052 78.2715 18.1432 77.9694 18.3984C77.6725 18.6536 77.5241 18.9896 77.5241 19.4062C77.5241 19.7708 77.6308 20.0312 77.8444 20.1875C78.0579 20.3385 78.3366 20.4141 78.6803 20.4141C79.1907 20.4141 79.6204 20.263 79.9694 19.9609C80.3235 19.6589 80.5006 19.2292 80.5006 18.6719V17.9531ZM89.8681 13.1016C90.8525 13.1016 91.6468 13.4844 92.2509 14.25C92.8603 15.0156 93.165 16.138 93.165 17.6172C93.165 18.6068 93.0218 19.4401 92.7353 20.1172C92.4489 20.7891 92.053 21.2969 91.5478 21.6406C91.0426 21.9844 90.4619 22.1562 89.8056 22.1562C89.3838 22.1562 89.0218 22.1042 88.7197 22C88.4176 21.8906 88.1598 21.7526 87.9463 21.5859C87.7327 21.4141 87.5478 21.2318 87.3916 21.0391H87.2666C87.3082 21.2474 87.3395 21.4609 87.3603 21.6797C87.3811 21.8984 87.3916 22.112 87.3916 22.3203V25.8438H85.0088V13.2656H86.9463L87.2822 14.3984H87.3916C87.5478 14.1641 87.7379 13.9479 87.9619 13.75C88.1858 13.5521 88.4541 13.3958 88.7666 13.2812C89.0843 13.1615 89.4515 13.1016 89.8681 13.1016ZM89.1025 15.0078C88.6858 15.0078 88.3551 15.0938 88.1103 15.2656C87.8655 15.4375 87.6858 15.6953 87.5713 16.0391C87.4619 16.3828 87.402 16.8177 87.3916 17.3438V17.6016C87.3916 18.1641 87.4436 18.6406 87.5478 19.0312C87.6572 19.4219 87.8369 19.7188 88.0869 19.9219C88.3421 20.125 88.691 20.2266 89.1338 20.2266C89.4983 20.2266 89.7978 20.125 90.0322 19.9219C90.2666 19.7188 90.441 19.4219 90.5556 19.0312C90.6754 18.6354 90.7353 18.1536 90.7353 17.5859C90.7353 16.7318 90.6025 16.0885 90.3369 15.6562C90.0713 15.224 89.6598 15.0078 89.1025 15.0078ZM99.6731 13.1016C100.658 13.1016 101.452 13.4844 102.056 14.25C102.665 15.0156 102.97 16.138 102.97 17.6172C102.97 18.6068 102.827 19.4401 102.54 20.1172C102.254 20.7891 101.858 21.2969 101.353 21.6406C100.848 21.9844 100.267 22.1562 99.6106 22.1562C99.1888 22.1562 98.8268 22.1042 98.5247 22C98.2226 21.8906 97.9648 21.7526 97.7513 21.5859C97.5377 21.4141 97.3528 21.2318 97.1966 21.0391H97.0716C97.1132 21.2474 97.1445 21.4609 97.1653 21.6797C97.1861 21.8984 97.1966 22.112 97.1966 22.3203V25.8438H94.8138V13.2656H96.7513L97.0872 14.3984H97.1966C97.3528 14.1641 97.5429 13.9479 97.7669 13.75C97.9908 13.5521 98.2591 13.3958 98.5716 13.2812C98.8893 13.1615 99.2565 13.1016 99.6731 13.1016ZM98.9075 15.0078C98.4908 15.0078 98.1601 15.0938 97.9153 15.2656C97.6705 15.4375 97.4908 15.6953 97.3763 16.0391C97.2669 16.3828 97.207 16.8177 97.1966 17.3438V17.6016C97.1966 18.1641 97.2486 18.6406 97.3528 19.0312C97.4622 19.4219 97.6419 19.7188 97.8919 19.9219C98.1471 20.125 98.496 20.2266 98.9388 20.2266C99.3033 20.2266 99.6028 20.125 99.8372 19.9219C100.072 19.7188 100.246 19.4219 100.361 19.0312C100.48 18.6354 100.54 18.1536 100.54 17.5859C100.54 16.7318 100.408 16.0885 100.142 15.6562C99.8763 15.224 99.4648 15.0078 98.9075 15.0078ZM108.22 13.1016C109.028 13.1016 109.723 13.2578 110.306 13.5703C110.89 13.8776 111.34 14.3255 111.658 14.9141C111.976 15.5026 112.134 16.2214 112.134 17.0703V18.2266H106.502C106.528 18.8984 106.728 19.4271 107.103 19.8125C107.483 20.1927 108.009 20.3828 108.681 20.3828C109.239 20.3828 109.749 20.3255 110.213 20.2109C110.676 20.0964 111.153 19.9245 111.642 19.6953V21.5391C111.21 21.7526 110.757 21.9089 110.283 22.0078C109.814 22.1068 109.244 22.1562 108.572 22.1562C107.697 22.1562 106.921 21.9948 106.244 21.6719C105.572 21.349 105.043 20.8568 104.658 20.1953C104.278 19.5339 104.088 18.7005 104.088 17.6953C104.088 16.6745 104.259 15.8255 104.603 15.1484C104.952 14.4661 105.436 13.9557 106.056 13.6172C106.676 13.2734 107.397 13.1016 108.22 13.1016ZM108.236 14.7969C107.772 14.7969 107.387 14.9453 107.08 15.2422C106.778 15.5391 106.603 16.0052 106.556 16.6406H109.9C109.895 16.2865 109.83 15.9714 109.705 15.6953C109.585 15.4193 109.403 15.2005 109.158 15.0391C108.918 14.8776 108.611 14.7969 108.236 14.7969ZM120.158 22H117.776V10.5781H124.322V12.5625H120.158V15.5078H124.033V17.4844H120.158V22ZM130.924 13.1016C131.044 13.1016 131.182 13.1094 131.338 13.125C131.5 13.1354 131.63 13.151 131.729 13.1719L131.549 15.4062C131.471 15.3802 131.359 15.362 131.213 15.3516C131.073 15.3359 130.95 15.3281 130.846 15.3281C130.539 15.3281 130.239 15.3672 129.948 15.4453C129.661 15.5234 129.404 15.651 129.174 15.8281C128.945 16 128.763 16.2292 128.628 16.5156C128.497 16.7969 128.432 17.1432 128.432 17.5547V22H126.049V13.2656H127.854L128.206 14.7344H128.323C128.495 14.4375 128.708 14.1667 128.963 13.9219C129.224 13.6719 129.518 13.474 129.846 13.3281C130.18 13.1771 130.539 13.1016 130.924 13.1016ZM136.573 13.0859C137.745 13.0859 138.643 13.3411 139.268 13.8516C139.893 14.362 140.206 15.138 140.206 16.1797V22H138.542L138.081 20.8125H138.018C137.768 21.125 137.513 21.3802 137.253 21.5781C136.992 21.776 136.693 21.9219 136.354 22.0156C136.016 22.1094 135.604 22.1562 135.12 22.1562C134.604 22.1562 134.141 22.0573 133.729 21.8594C133.323 21.6615 133.003 21.3594 132.768 20.9531C132.534 20.5417 132.417 20.0208 132.417 19.3906C132.417 18.4635 132.742 17.7812 133.393 17.3438C134.044 16.901 135.021 16.6562 136.323 16.6094L137.839 16.5625V16.1797C137.839 15.7214 137.719 15.3854 137.479 15.1719C137.24 14.9583 136.906 14.8516 136.479 14.8516C136.058 14.8516 135.643 14.9115 135.237 15.0312C134.831 15.151 134.425 15.3021 134.018 15.4844L133.229 13.875C133.693 13.6302 134.211 13.4375 134.784 13.2969C135.362 13.1562 135.959 13.0859 136.573 13.0859ZM137.839 17.9531L136.917 17.9844C136.146 18.0052 135.61 18.1432 135.308 18.3984C135.011 18.6536 134.862 18.9896 134.862 19.4062C134.862 19.7708 134.969 20.0312 135.183 20.1875C135.396 20.3385 135.675 20.4141 136.018 20.4141C136.529 20.4141 136.959 20.263 137.308 19.9609C137.662 19.6589 137.839 19.2292 137.839 18.6719V17.9531ZM152.605 13.1016C153.594 13.1016 154.342 13.3568 154.847 13.8672C155.357 14.3724 155.613 15.1849 155.613 16.3047V22H153.222V16.8984C153.222 16.2734 153.115 15.8021 152.902 15.4844C152.688 15.1667 152.357 15.0078 151.909 15.0078C151.279 15.0078 150.831 15.2344 150.566 15.6875C150.3 16.1354 150.167 16.7786 150.167 17.6172V22H147.784V16.8984C147.784 16.4818 147.738 16.1328 147.644 15.8516C147.55 15.5703 147.407 15.3594 147.214 15.2188C147.021 15.0781 146.774 15.0078 146.472 15.0078C146.029 15.0078 145.68 15.1198 145.425 15.3438C145.175 15.5625 144.995 15.888 144.886 16.3203C144.782 16.7474 144.73 17.2708 144.73 17.8906V22H142.347V13.2656H144.167L144.488 14.3828H144.62C144.797 14.0807 145.019 13.8359 145.284 13.6484C145.555 13.4609 145.852 13.3229 146.175 13.2344C146.498 13.1458 146.826 13.1016 147.159 13.1016C147.8 13.1016 148.342 13.2057 148.784 13.4141C149.232 13.6224 149.576 13.9453 149.816 14.3828H150.027C150.287 13.9349 150.654 13.6094 151.128 13.4062C151.607 13.2031 152.099 13.1016 152.605 13.1016ZM161.347 13.1016C162.154 13.1016 162.85 13.2578 163.433 13.5703C164.016 13.8776 164.467 14.3255 164.785 14.9141C165.102 15.5026 165.261 16.2214 165.261 17.0703V18.2266H159.628C159.654 18.8984 159.855 19.4271 160.23 19.8125C160.61 20.1927 161.136 20.3828 161.808 20.3828C162.365 20.3828 162.876 20.3255 163.339 20.2109C163.803 20.0964 164.279 19.9245 164.769 19.6953V21.5391C164.337 21.7526 163.884 21.9089 163.41 22.0078C162.941 22.1068 162.371 22.1562 161.699 22.1562C160.824 22.1562 160.048 21.9948 159.371 21.6719C158.699 21.349 158.17 20.8568 157.785 20.1953C157.404 19.5339 157.214 18.7005 157.214 17.6953C157.214 16.6745 157.386 15.8255 157.73 15.1484C158.079 14.4661 158.563 13.9557 159.183 13.6172C159.803 13.2734 160.524 13.1016 161.347 13.1016ZM161.363 14.7969C160.899 14.7969 160.514 14.9453 160.207 15.2422C159.904 15.5391 159.73 16.0052 159.683 16.6406H163.027C163.022 16.2865 162.957 15.9714 162.832 15.6953C162.712 15.4193 162.529 15.2005 162.285 15.0391C162.045 14.8776 161.738 14.7969 161.363 14.7969ZM174.058 22L173.387 18.9453C173.35 18.763 173.29 18.4948 173.207 18.1406C173.124 17.7812 173.032 17.3984 172.933 16.9922C172.84 16.5807 172.751 16.2005 172.668 15.8516C172.59 15.5026 172.532 15.2474 172.496 15.0859H172.426C172.389 15.2474 172.332 15.5026 172.254 15.8516C172.176 16.2005 172.087 16.5807 171.988 16.9922C171.894 17.4036 171.806 17.7917 171.723 18.1562C171.639 18.5156 171.577 18.7891 171.535 18.9766L170.832 22H168.269L165.785 13.2656H168.16L169.168 17.1328C169.236 17.4036 169.301 17.7266 169.363 18.1016C169.426 18.4714 169.48 18.8307 169.527 19.1797C169.579 19.5234 169.618 19.7969 169.644 20H169.707C169.717 19.849 169.738 19.6484 169.769 19.3984C169.806 19.1484 169.845 18.8906 169.887 18.625C169.933 18.3542 169.975 18.112 170.012 17.8984C170.053 17.6797 170.084 17.5312 170.105 17.4531L171.183 13.2656H173.808L174.832 17.4531C174.868 17.6042 174.915 17.8438 174.973 18.1719C175.035 18.5 175.09 18.8385 175.137 19.1875C175.183 19.5312 175.209 19.8021 175.215 20H175.277C175.298 19.8229 175.334 19.5599 175.387 19.2109C175.439 18.862 175.499 18.4974 175.566 18.1172C175.639 17.7318 175.712 17.4036 175.785 17.1328L176.832 13.2656H179.168L176.652 22H174.058ZM188.199 17.6172C188.199 18.3464 188.1 18.9922 187.902 19.5547C187.71 20.1172 187.426 20.5938 187.051 20.9844C186.681 21.3698 186.233 21.6615 185.707 21.8594C185.186 22.0573 184.598 22.1562 183.942 22.1562C183.327 22.1562 182.762 22.0573 182.246 21.8594C181.736 21.6615 181.291 21.3698 180.91 20.9844C180.535 20.5938 180.244 20.1172 180.035 19.5547C179.832 18.9922 179.731 18.3464 179.731 17.6172C179.731 16.6484 179.902 15.8281 180.246 15.1562C180.59 14.4844 181.08 13.974 181.715 13.625C182.35 13.276 183.108 13.1016 183.988 13.1016C184.806 13.1016 185.53 13.276 186.16 13.625C186.796 13.974 187.293 14.4844 187.652 15.1562C188.017 15.8281 188.199 16.6484 188.199 17.6172ZM182.16 17.6172C182.16 18.1901 182.223 18.6719 182.348 19.0625C182.473 19.4531 182.668 19.7474 182.934 19.9453C183.199 20.1432 183.546 20.2422 183.973 20.2422C184.395 20.2422 184.736 20.1432 184.996 19.9453C185.262 19.7474 185.455 19.4531 185.574 19.0625C185.699 18.6719 185.762 18.1901 185.762 17.6172C185.762 17.0391 185.699 16.5599 185.574 16.1797C185.455 15.7943 185.262 15.5052 184.996 15.3125C184.731 15.1198 184.384 15.0234 183.957 15.0234C183.327 15.0234 182.869 15.2396 182.582 15.6719C182.301 16.1042 182.16 16.7526 182.16 17.6172ZM194.723 13.1016C194.843 13.1016 194.981 13.1094 195.137 13.125C195.299 13.1354 195.429 13.151 195.528 13.1719L195.348 15.4062C195.27 15.3802 195.158 15.362 195.012 15.3516C194.872 15.3359 194.749 15.3281 194.645 15.3281C194.338 15.3281 194.038 15.3672 193.747 15.4453C193.46 15.5234 193.202 15.651 192.973 15.8281C192.744 16 192.562 16.2292 192.426 16.5156C192.296 16.7969 192.231 17.1432 192.231 17.5547V22H189.848V13.2656H191.653L192.004 14.7344H192.122C192.293 14.4375 192.507 14.1667 192.762 13.9219C193.023 13.6719 193.317 13.474 193.645 13.3281C193.978 13.1771 194.338 13.1016 194.723 13.1016ZM199.177 9.84375V15.2812C199.177 15.6094 199.164 15.9375 199.137 16.2656C199.111 16.5938 199.083 16.9219 199.052 17.25H199.083C199.244 17.0208 199.408 16.7943 199.575 16.5703C199.747 16.3464 199.929 16.1302 200.122 15.9219L202.567 13.2656H205.255L201.786 17.0547L205.466 22H202.716L200.2 18.4609L199.177 19.2812V22H196.794V9.84375H199.177ZM65.4453 29.5859C64.8151 29.5859 64.2474 29.6953 63.7422 29.9141C63.2422 30.1276 62.8151 30.4401 62.4609 30.8516C62.112 31.2578 61.8438 31.75 61.6562 32.3281C61.4688 32.9062 61.375 33.5573 61.375 34.2812C61.375 35.2396 61.5234 36.0729 61.8203 36.7812C62.1224 37.4844 62.5703 38.0286 63.1641 38.4141C63.763 38.7995 64.5104 38.9922 65.4062 38.9922C65.9167 38.9922 66.3958 38.9505 66.8438 38.8672C67.2969 38.7786 67.737 38.6693 68.1641 38.5391V39.6953C67.7474 39.8516 67.3099 39.9661 66.8516 40.0391C66.3932 40.1172 65.849 40.1562 65.2188 40.1562C64.0573 40.1562 63.0859 39.9167 62.3047 39.4375C61.5286 38.9531 60.9453 38.2708 60.5547 37.3906C60.1693 36.5104 59.9766 35.4714 59.9766 34.2734C59.9766 33.4089 60.0964 32.6198 60.3359 31.9062C60.5807 31.1875 60.9349 30.5677 61.3984 30.0469C61.8672 29.526 62.4401 29.125 63.1172 28.8438C63.7995 28.5573 64.5807 28.4141 65.4609 28.4141C66.0391 28.4141 66.5964 28.4714 67.1328 28.5859C67.6693 28.7005 68.1536 28.8646 68.5859 29.0781L68.0547 30.2031C67.6901 30.0365 67.2891 29.8932 66.8516 29.7734C66.4193 29.6484 65.9505 29.5859 65.4453 29.5859ZM73.4222 31.2812C74.1514 31.2812 74.7764 31.4427 75.2972 31.7656C75.818 32.0885 76.2165 32.5417 76.4925 33.125C76.7685 33.7031 76.9066 34.3802 76.9066 35.1562V35.9609H70.9925C71.0081 36.9661 71.2581 37.7318 71.7425 38.2578C72.2269 38.7839 72.9092 39.0469 73.7894 39.0469C74.331 39.0469 74.8102 38.9974 75.2269 38.8984C75.6435 38.7995 76.0758 38.6536 76.5238 38.4609V39.6016C76.0915 39.7943 75.6618 39.9349 75.2347 40.0234C74.8128 40.112 74.3128 40.1562 73.7347 40.1562C72.9118 40.1562 72.193 39.9896 71.5784 39.6562C70.9691 39.3177 70.4951 38.8229 70.1566 38.1719C69.818 37.5208 69.6488 36.724 69.6488 35.7812C69.6488 34.8594 69.8024 34.0625 70.1097 33.3906C70.4222 32.7135 70.8597 32.1927 71.4222 31.8281C71.9899 31.4635 72.6566 31.2812 73.4222 31.2812ZM73.4066 32.3438C72.7139 32.3438 72.1618 32.5703 71.7503 33.0234C71.3389 33.4766 71.0941 34.1094 71.0159 34.9219H75.5472C75.542 34.4115 75.4613 33.9635 75.305 33.5781C75.154 33.1875 74.9222 32.8854 74.6097 32.6719C74.2972 32.4531 73.8961 32.3438 73.4066 32.3438ZM82.6803 31.2812C82.8522 31.2812 83.0319 31.2917 83.2194 31.3125C83.4069 31.3281 83.5735 31.3516 83.7194 31.3828L83.5553 32.5859C83.4147 32.5495 83.2584 32.5208 83.0866 32.5C82.9147 32.4792 82.7532 32.4688 82.6022 32.4688C82.2584 32.4688 81.9329 32.5391 81.6256 32.6797C81.3235 32.8151 81.0579 33.013 80.8288 33.2734C80.5996 33.5286 80.4199 33.8385 80.2897 34.2031C80.1595 34.5625 80.0944 34.9635 80.0944 35.4062V40H78.7897V31.4375H79.8678L80.0084 33.0156H80.0631C80.2402 32.6979 80.4538 32.4089 80.7038 32.1484C80.9538 31.8828 81.2428 31.6719 81.5709 31.5156C81.9043 31.3594 82.2741 31.2812 82.6803 31.2812ZM87.7822 39.0938C87.9957 39.0938 88.2145 39.0755 88.4384 39.0391C88.6624 39.0026 88.8447 38.9583 88.9853 38.9062V39.9141C88.8343 39.9818 88.6233 40.0391 88.3525 40.0859C88.0869 40.1328 87.8265 40.1562 87.5713 40.1562C87.1181 40.1562 86.7067 40.0781 86.3369 39.9219C85.9671 39.7604 85.6702 39.4896 85.4463 39.1094C85.2275 38.7292 85.1181 38.2031 85.1181 37.5312V32.4531H83.8994V31.8203L85.1259 31.3125L85.6416 29.4531H86.4228V31.4375H88.9306V32.4531H86.4228V37.4922C86.4228 38.0286 86.5452 38.4297 86.79 38.6953C87.04 38.9609 87.3707 39.0938 87.7822 39.0938ZM91.6966 31.4375V40H90.3997V31.4375H91.6966ZM91.0637 28.2344C91.2773 28.2344 91.4596 28.3047 91.6106 28.4453C91.7669 28.5807 91.845 28.7943 91.845 29.0859C91.845 29.3724 91.7669 29.5859 91.6106 29.7266C91.4596 29.8672 91.2773 29.9375 91.0637 29.9375C90.8398 29.9375 90.6523 29.8672 90.5012 29.7266C90.3554 29.5859 90.2825 29.3724 90.2825 29.0859C90.2825 28.7943 90.3554 28.5807 90.5012 28.4453C90.6523 28.3047 90.8398 28.2344 91.0637 28.2344ZM97.9391 32.4531H95.8063V40H94.5094V32.4531H92.9938V31.8281L94.5094 31.3984V30.8281C94.5094 30.1094 94.6161 29.526 94.8297 29.0781C95.0432 28.625 95.3531 28.2917 95.7594 28.0781C96.1656 27.8646 96.6604 27.7578 97.2438 27.7578C97.5719 27.7578 97.8714 27.7865 98.1422 27.8438C98.4182 27.901 98.6604 27.9661 98.8688 28.0391L98.5328 29.0625C98.3557 29.0052 98.1552 28.9531 97.9313 28.9062C97.7125 28.8542 97.4885 28.8281 97.2594 28.8281C96.7646 28.8281 96.3974 28.9896 96.1578 29.3125C95.9234 29.6302 95.8063 30.1302 95.8063 30.8125V31.4375H97.9391V32.4531ZM100.806 31.4375V40H99.5094V31.4375H100.806ZM100.173 28.2344C100.387 28.2344 100.569 28.3047 100.72 28.4453C100.877 28.5807 100.955 28.7943 100.955 29.0859C100.955 29.3724 100.877 29.5859 100.72 29.7266C100.569 29.8672 100.387 29.9375 100.173 29.9375C99.9495 29.9375 99.762 29.8672 99.6109 29.7266C99.4651 29.5859 99.3922 29.3724 99.3922 29.0859C99.3922 28.7943 99.4651 28.5807 99.6109 28.4453C99.762 28.3047 99.9495 28.2344 100.173 28.2344ZM106.658 40.1562C105.887 40.1562 105.208 39.9974 104.619 39.6797C104.031 39.362 103.572 38.8776 103.244 38.2266C102.916 37.5755 102.752 36.7552 102.752 35.7656C102.752 34.7292 102.924 33.8828 103.268 33.2266C103.616 32.5651 104.096 32.0755 104.705 31.7578C105.314 31.4401 106.007 31.2812 106.783 31.2812C107.21 31.2812 107.622 31.3255 108.018 31.4141C108.419 31.4974 108.747 31.6042 109.002 31.7344L108.611 32.8203C108.351 32.7161 108.049 32.6224 107.705 32.5391C107.366 32.4557 107.049 32.4141 106.752 32.4141C106.158 32.4141 105.663 32.5417 105.268 32.7969C104.877 33.0521 104.583 33.4271 104.385 33.9219C104.192 34.4167 104.096 35.026 104.096 35.75C104.096 36.4427 104.189 37.0339 104.377 37.5234C104.57 38.013 104.853 38.388 105.228 38.6484C105.609 38.9036 106.083 39.0312 106.65 39.0312C107.103 39.0312 107.512 38.9844 107.877 38.8906C108.241 38.7917 108.572 38.6771 108.869 38.5469V39.7031C108.583 39.849 108.262 39.9609 107.908 40.0391C107.559 40.1172 107.143 40.1562 106.658 40.1562ZM113.783 31.2969C114.804 31.2969 115.562 31.526 116.057 31.9844C116.552 32.4427 116.799 33.1745 116.799 34.1797V40H115.854L115.604 38.7344H115.541C115.302 39.0469 115.052 39.3099 114.791 39.5234C114.531 39.7318 114.229 39.8906 113.885 40C113.546 40.1042 113.13 40.1562 112.635 40.1562C112.114 40.1562 111.651 40.0651 111.244 39.8828C110.843 39.7005 110.526 39.4245 110.291 39.0547C110.062 38.6849 109.947 38.2161 109.947 37.6484C109.947 36.7943 110.286 36.138 110.963 35.6797C111.64 35.2214 112.671 34.9714 114.057 34.9297L115.533 34.8672V34.3438C115.533 33.6042 115.375 33.0859 115.057 32.7891C114.739 32.4922 114.291 32.3438 113.713 32.3438C113.265 32.3438 112.838 32.4089 112.432 32.5391C112.026 32.6693 111.64 32.8229 111.276 33L110.877 32.0156C111.263 31.8177 111.705 31.6484 112.205 31.5078C112.705 31.3672 113.231 31.2969 113.783 31.2969ZM115.518 35.7812L114.213 35.8359C113.145 35.8776 112.393 36.0521 111.955 36.3594C111.518 36.6667 111.299 37.1016 111.299 37.6641C111.299 38.1536 111.447 38.5156 111.744 38.75C112.041 38.9844 112.434 39.1016 112.924 39.1016C113.684 39.1016 114.307 38.8906 114.791 38.4688C115.276 38.0469 115.518 37.4141 115.518 36.5703V35.7812ZM121.917 39.0938C122.13 39.0938 122.349 39.0755 122.573 39.0391C122.797 39.0026 122.979 38.9583 123.12 38.9062V39.9141C122.969 39.9818 122.758 40.0391 122.487 40.0859C122.221 40.1328 121.961 40.1562 121.706 40.1562C121.252 40.1562 120.841 40.0781 120.471 39.9219C120.101 39.7604 119.805 39.4896 119.581 39.1094C119.362 38.7292 119.252 38.2031 119.252 37.5312V32.4531H118.034V31.8203L119.26 31.3125L119.776 29.4531H120.557V31.4375H123.065V32.4531H120.557V37.4922C120.557 38.0286 120.68 38.4297 120.924 38.6953C121.174 38.9609 121.505 39.0938 121.917 39.0938ZM125.831 31.4375V40H124.534V31.4375H125.831ZM125.198 28.2344C125.412 28.2344 125.594 28.3047 125.745 28.4453C125.901 28.5807 125.979 28.7943 125.979 29.0859C125.979 29.3724 125.901 29.5859 125.745 29.7266C125.594 29.8672 125.412 29.9375 125.198 29.9375C124.974 29.9375 124.787 29.8672 124.636 29.7266C124.49 29.5859 124.417 29.3724 124.417 29.0859C124.417 28.7943 124.49 28.5807 124.636 28.4453C124.787 28.3047 124.974 28.2344 125.198 28.2344ZM135.644 35.7031C135.644 36.4062 135.553 37.0339 135.37 37.5859C135.188 38.138 134.925 38.6042 134.581 38.9844C134.238 39.3646 133.821 39.6562 133.331 39.8594C132.847 40.0573 132.297 40.1562 131.683 40.1562C131.11 40.1562 130.584 40.0573 130.105 39.8594C129.631 39.6562 129.219 39.3646 128.87 38.9844C128.527 38.6042 128.258 38.138 128.066 37.5859C127.878 37.0339 127.784 36.4062 127.784 35.7031C127.784 34.7656 127.943 33.9688 128.261 33.3125C128.579 32.651 129.032 32.1484 129.62 31.8047C130.214 31.4557 130.92 31.2812 131.738 31.2812C132.519 31.2812 133.201 31.4557 133.784 31.8047C134.373 32.1536 134.829 32.6589 135.152 33.3203C135.48 33.9766 135.644 34.7708 135.644 35.7031ZM129.128 35.7031C129.128 36.3906 129.219 36.987 129.402 37.4922C129.584 37.9974 129.865 38.388 130.245 38.6641C130.626 38.9401 131.115 39.0781 131.714 39.0781C132.308 39.0781 132.795 38.9401 133.175 38.6641C133.56 38.388 133.844 37.9974 134.027 37.4922C134.209 36.987 134.3 36.3906 134.3 35.7031C134.3 35.0208 134.209 34.4323 134.027 33.9375C133.844 33.4375 133.563 33.0521 133.183 32.7812C132.803 32.5104 132.31 32.375 131.706 32.375C130.816 32.375 130.162 32.6693 129.745 33.2578C129.334 33.8464 129.128 34.6615 129.128 35.7031ZM141.621 31.2812C142.636 31.2812 143.404 31.5312 143.925 32.0312C144.446 32.526 144.707 33.3229 144.707 34.4219V40H143.425V34.5078C143.425 33.7943 143.261 33.2604 142.933 32.9062C142.61 32.5521 142.113 32.375 141.441 32.375C140.493 32.375 139.826 32.6432 139.441 33.1797C139.056 33.7161 138.863 34.4948 138.863 35.5156V40H137.566V31.4375H138.613L138.808 32.6719H138.878C139.061 32.3698 139.293 32.1172 139.574 31.9141C139.855 31.7057 140.17 31.5495 140.519 31.4453C140.868 31.3359 141.235 31.2812 141.621 31.2812Z" fill="#010101"/>
<path d="M7.07325 0H50V50H6.85673C5.03822 50 3.2942 49.3428 2.00831 48.1731C0.722426 47.0033 0 45.4167 0 43.7623V6.43469C-6.09386e-06 4.73095 0.742739 3.09673 2.06533 1.89047C3.38793 0.684203 5.18243 0.00434628 7.05525 0H7.07325Z" fill="#0089FF"/>
<path d="M35 10H15V15.2999H35V10Z" fill="white"/>
<path d="M33.7406 23.3642H15V28.6641H33.7406V23.3642Z" fill="white"/>
<path d="M21.2636 23.3642H15V40H21.2636V23.3642Z" fill="white"/>
</svg>
