<svg width="51" height="52" viewBox="0 0 51 52" fill="none" xmlns="http://www.w3.org/2000/svg">
<path fill-rule="evenodd" clip-rule="evenodd" d="M25.6719 10.1426C29.9267 10.1427 33.7923 12.816 35.7178 16.9775H36.4922C37.913 16.9776 39.0684 18.1316 39.0684 19.5527C39.0683 20.9253 37.991 22.0454 36.6377 22.1211C36.7041 22.4942 36.7606 22.869 36.8076 23.2451C39.2558 23.946 40.5619 26.3756 39.75 28.7979L39.6621 29.0381C39.0509 30.5896 37.6954 31.746 36.0889 32.21C35.5511 33.9971 34.7806 35.6477 33.79 37.0791C31.5918 40.2545 28.6474 41.875 25.6719 41.875C22.7891 41.8749 19.9359 40.3542 17.7617 37.3721L17.5537 37.0791C16.5016 35.5595 15.6958 33.7913 15.1562 31.875C14.8386 31.778 14.5293 31.6553 14.2334 31.5039L14.2324 31.5029C11.7754 30.2365 10.6511 27.3824 11.8203 25.1123L11.9365 24.9023C12.5108 23.9312 13.463 23.2387 14.5781 22.9297C14.6157 22.6593 14.659 22.3898 14.707 22.1211C13.3529 22.0458 12.2755 20.9258 12.2754 19.5527C12.2754 18.1317 13.4303 16.9777 14.8516 16.9775H15.625C17.5512 12.8159 21.417 10.1426 25.6719 10.1426ZM25.6709 31.0459C24.7979 32.1508 23.5411 32.7597 22.1143 32.7598H18.6514C18.2965 32.7598 17.952 32.7148 17.623 32.6309C19.213 36.9297 22.2625 39.7559 25.6719 39.7559C29.0805 39.7557 32.1302 36.9295 33.7207 32.6309C33.3915 32.7148 33.0463 32.7598 32.6914 32.7598H29.2285C27.8023 32.7598 26.5449 32.151 25.6709 31.0459ZM16.8682 25.165C16.6687 25.1653 16.4979 25.3277 16.4854 25.5283C16.4416 26.5689 16.5476 27.9683 16.6934 28.9531L16.7285 29.1338C16.9419 30.0202 17.7221 30.6445 18.6514 30.6445H19.873C18.8742 30.3991 18.1156 29.754 17.7207 28.9277C17.2456 27.9336 17.3063 26.7012 18.0654 25.6465L18.2266 25.4375C18.3219 25.3225 18.4402 25.2303 18.5723 25.165H16.8682ZM19.5576 25.1895L23.668 27.499L23.7637 27.5586C24.1888 27.8592 24.3303 28.4298 24.0957 28.8955L24.0391 28.9941C23.4994 29.8325 22.6332 30.4154 21.6787 30.6445H22.1143C22.9394 30.6445 23.6179 30.2945 24.0967 29.623L24.8105 28.623L24.8945 28.5195C25.3399 28.0361 26.1371 28.0691 26.5322 28.623L27.2451 29.623L27.3379 29.7451C27.8101 30.3368 28.4556 30.6445 29.2285 30.6445H29.667C28.7479 30.4282 27.8787 29.881 27.3047 28.9941C27.2261 28.8729 27.1733 28.7372 27.1494 28.5947C27.1256 28.4523 27.1313 28.3062 27.166 28.166C27.2008 28.0259 27.2639 27.8941 27.3516 27.7793C27.4391 27.6646 27.5498 27.5695 27.6758 27.499L31.7842 25.1895L31.835 25.165H19.5078L19.5576 25.1895ZM32.7705 25.165C32.9024 25.2302 33.0199 25.3227 33.1152 25.4375C33.8661 26.3425 34.1174 27.5255 33.7695 28.5771L33.6914 28.7861C33.2714 29.7973 32.4226 30.4121 31.4668 30.6445H32.6914L32.876 30.6357C33.7836 30.554 34.5146 29.8727 34.6504 28.9531L34.7031 28.5645C34.8197 27.6217 34.8967 26.4368 34.8584 25.5264L34.8467 25.4541C34.8029 25.2894 34.65 25.165 34.4746 25.165H32.7705ZM36.9805 26V26.0068L36.9736 26.5508C36.9491 27.5782 36.8535 28.5885 36.6943 29.5723C37.1488 29.2187 37.4945 28.7686 37.6934 28.2637C38.1004 27.2285 37.7947 26.2 36.9717 25.624L36.9805 26ZM14.375 25.3164C14.1419 25.4789 13.9454 25.6803 13.7949 25.916L13.7002 26.0801C13.1891 27.073 13.5552 28.3807 14.5938 29.2236C14.4102 27.9513 14.3342 26.6198 14.375 25.3164ZM19.5293 27.6006C19.5254 27.931 19.6879 28.2063 19.9473 28.3926C20.2651 28.6208 20.7425 28.7187 21.2568 28.5693L19.5293 27.6006ZM30.0898 28.5674C30.3502 28.64 30.619 28.656 30.8652 28.6133C31.2736 28.5424 31.5938 28.3209 31.7383 27.9736C31.7867 27.8568 31.8096 27.7316 31.8096 27.6025L30.0898 28.5674ZM16.8535 22.1289C16.7931 22.4369 16.7389 22.7461 16.6934 23.0566C16.7509 23.0523 16.8092 23.0508 16.8682 23.0508H34.4756L34.6279 23.0557C34.6351 23.0561 34.6422 23.0571 34.6494 23.0576C34.6036 22.7452 34.5501 22.4354 34.4893 22.1289H16.8535ZM14.8516 19.0928C14.5969 19.0929 14.3906 19.3 14.3906 19.5527C14.3908 19.8062 14.5972 20.0135 14.8516 20.0137H36.4922L36.582 20.0039C36.6706 19.9861 36.7526 19.9427 36.8174 19.8779C36.9037 19.7916 36.9528 19.6748 36.9531 19.5527L36.9434 19.46C36.9003 19.2509 36.7144 19.0928 36.4922 19.0928H14.8516ZM25.6719 12.2578C22.5795 12.2578 19.6989 14.0551 18.0068 16.9775H33.3379C31.6448 14.0549 28.7649 12.2579 25.6719 12.2578Z" fill="url(#paint0_linear_1_240)"/>
<path fill-rule="evenodd" clip-rule="evenodd" d="M25.7764 0.705078C26.0184 0.729219 26.2464 0.836248 26.4199 1.00977C26.6181 1.20807 26.7294 1.47744 26.7295 1.75781V4.56348C37.9056 5.10022 46.898 14.0933 47.4355 25.2705H49.5859C49.7247 25.2693 49.8625 25.2957 49.9912 25.3477C50.1208 25.4 50.2384 25.478 50.3379 25.5762C50.4374 25.6745 50.5173 25.7918 50.5713 25.9209C50.6251 26.0499 50.6523 26.1884 50.6523 26.3281L50.6475 26.4326C50.6371 26.5368 50.6118 26.6394 50.5713 26.7363C50.5173 26.8654 50.4374 26.9818 50.3379 27.0801C50.2384 27.1783 50.1208 27.2562 49.9912 27.3086C49.8625 27.3605 49.7247 27.386 49.5859 27.3848L47.4355 27.3857C46.8982 38.5626 37.9057 47.5544 26.7295 48.0918V50.2422L26.7236 50.3467C26.6996 50.5888 26.5925 50.8167 26.4189 50.9902C26.2455 51.1636 26.0183 51.2708 25.7764 51.2949L25.6719 51.2998C25.3915 51.2996 25.122 51.1885 24.9238 50.9902C24.7504 50.8167 24.6441 50.5887 24.6201 50.3467L24.6143 50.2422V48.0918C13.4368 47.5544 4.4455 38.5626 3.9082 27.3857H1.75684C1.47653 27.3857 1.20707 27.2743 1.00879 27.0762C0.835417 26.9029 0.728389 26.6754 0.704102 26.4336L0.699219 26.3291C0.699117 26.1902 0.726173 26.0522 0.779297 25.9238C0.832395 25.7955 0.910619 25.6793 1.00879 25.5811C1.10694 25.4829 1.22333 25.4047 1.35156 25.3516C1.47995 25.2984 1.61789 25.2704 1.75684 25.2705H3.9082C4.44569 14.0933 13.437 5.10026 24.6143 4.56348V1.75781C24.6143 1.17394 25.0885 0.700195 25.6719 0.700195L25.7764 0.705078ZM26.7295 8.33789C26.7293 8.61818 26.6171 8.88676 26.4189 9.08496C26.2207 9.28314 25.9522 9.39441 25.6719 9.39453C25.3917 9.39412 25.1219 9.28314 24.9238 9.08496C24.7259 8.88679 24.6145 8.61799 24.6143 8.33789V6.68066C14.6051 7.21409 6.55871 15.2608 6.02637 25.2705H8.11621L8.21973 25.2764C8.32316 25.2865 8.42511 25.3117 8.52148 25.3516C8.64972 25.4047 8.76611 25.4829 8.86426 25.5811C8.96243 25.6793 9.04065 25.7955 9.09375 25.9238C9.13354 26.02 9.1588 26.1214 9.16895 26.2246L9.17383 26.3291C9.17349 26.6093 9.06242 26.8781 8.86426 27.0762C8.69069 27.2496 8.46277 27.3568 8.2207 27.3809L8.11621 27.3857H6.02637C6.55853 37.395 14.605 45.4412 24.6143 45.9746V43.8838C24.6143 43.6034 24.7256 43.334 24.9238 43.1357C25.1221 42.9375 25.3915 42.8262 25.6719 42.8262C25.9523 42.8262 26.2216 42.9375 26.4199 43.1357C26.6182 43.334 26.7295 43.6034 26.7295 43.8838V45.9746C36.7387 45.4412 44.7839 37.3951 45.3174 27.3857H43.2275C42.6803 27.3857 42.23 26.9693 42.1758 26.4365L42.1699 26.3281C42.1699 26.1894 42.197 26.052 42.25 25.9238C42.3031 25.7954 42.3812 25.6783 42.4795 25.5801C42.5777 25.4819 42.6949 25.4046 42.8232 25.3516C42.9515 25.2985 43.0887 25.2704 43.2275 25.2705H45.3174C44.7851 15.2607 36.7387 7.21404 26.7295 6.68066V8.33789Z" fill="url(#paint1_linear_1_240)"/>
<defs>
<linearGradient id="paint0_linear_1_240" x1="51.0522" y1="51.3816" x2="13.0053" y2="7.4843" gradientUnits="userSpaceOnUse">
<stop stop-color="#31393C"/>
<stop offset="1" stop-color="#3D96F5"/>
</linearGradient>
<linearGradient id="paint1_linear_1_240" x1="51.0522" y1="51.3816" x2="13.0053" y2="7.4843" gradientUnits="userSpaceOnUse">
<stop stop-color="#31393C"/>
<stop offset="1" stop-color="#3D96F5"/>
</linearGradient>
</defs>
</svg>
