<svg width="64" height="64" viewBox="0 0 64 64" fill="none" xmlns="http://www.w3.org/2000/svg">
<rect width="64" height="64" rx="8" fill="#3E96F4"/>
<path d="M44 30.7692C44 31.4221 43.7471 32.0482 43.2971 32.5098C42.847 32.9714 42.2365 33.2308 41.6 33.2308H22.4C21.7635 33.2308 21.153 32.9714 20.7029 32.5098C20.2529 32.0482 20 31.4221 20 30.7692C20 30.1164 20.2529 29.4903 20.7029 29.0287C21.153 28.567 21.7635 28.3077 22.4 28.3077H22.7864C23.378 23.6283 27.2792 20 32 20C36.7208 20 40.622 23.6283 41.2136 28.3077H41.6C42.2365 28.3077 42.847 28.567 43.2971 29.0287C43.7471 29.4903 44 30.1164 44 30.7692ZM41.6 35.0769C41.912 35.0769 42.212 35.04 42.5 34.9785V37.8585C42.5 41.2431 39.812 44 36.512 44C34.904 44 33.404 43.36 32.276 42.2031L32 41.92L31.724 42.2031C30.596 43.36 29.096 44 27.488 44C24.188 44 21.5 41.2431 21.5 37.8585V34.9785C21.788 35.04 22.088 35.0769 22.4 35.0769H41.6ZM29.3 39.3846C29.3 39.1398 29.2052 38.905 29.0364 38.7319C28.8676 38.5588 28.6387 38.4615 28.4 38.4615H26C25.7613 38.4615 25.5324 38.5588 25.3636 38.7319C25.1948 38.905 25.1 39.1398 25.1 39.3846C25.1 39.6294 25.1948 39.8642 25.3636 40.0373C25.5324 40.2104 25.7613 40.3077 26 40.3077H28.4C28.6387 40.3077 28.8676 40.2104 29.0364 40.0373C29.2052 39.8642 29.3 39.6294 29.3 39.3846ZM38.9 39.3846C38.9 39.1398 38.8052 38.905 38.6364 38.7319C38.4676 38.5588 38.2387 38.4615 38 38.4615H35.6C35.3613 38.4615 35.1324 38.5588 34.9636 38.7319C34.7948 38.905 34.7 39.1398 34.7 39.3846C34.7 39.6294 34.7948 39.8642 34.9636 40.0373C35.1324 40.2104 35.3613 40.3077 35.6 40.3077H38C38.2387 40.3077 38.4676 40.2104 38.6364 40.0373C38.8052 39.8642 38.9 39.6294 38.9 39.3846Z" fill="white"/>
</svg>
