<svg width="24" height="24" viewBox="0 0 24 24" fill="none" xmlns="http://www.w3.org/2000/svg">
<path d="M24 10.7692C24 11.4221 23.7471 12.0482 23.2971 12.5098C22.847 12.9714 22.2365 13.2308 21.6 13.2308H2.4C1.76348 13.2308 1.15303 12.9714 0.702944 12.5098C0.252856 12.0482 0 11.4221 0 10.7692C0 10.1164 0.252856 9.49029 0.702944 9.02866C1.15303 8.56703 1.76348 8.30769 2.4 8.30769H2.7864C3.378 3.62831 7.2792 0 12 0C16.7208 0 20.622 3.62831 21.2136 8.30769H21.6C22.2365 8.30769 22.847 8.56703 23.2971 9.02866C23.7471 9.49029 24 10.1164 24 10.7692ZM21.6 15.0769C21.912 15.0769 22.212 15.04 22.5 14.9785V17.8585C22.5 21.2431 19.812 24 16.512 24C14.904 24 13.404 23.36 12.276 22.2031L12 21.92L11.724 22.2031C10.596 23.36 9.096 24 7.488 24C4.188 24 1.5 21.2431 1.5 17.8585V14.9785C1.788 15.04 2.088 15.0769 2.4 15.0769H21.6ZM9.3 19.3846C9.3 19.1398 9.20518 18.905 9.0364 18.7319C8.86761 18.5588 8.63869 18.4615 8.4 18.4615H6C5.76131 18.4615 5.53239 18.5588 5.3636 18.7319C5.19482 18.905 5.1 19.1398 5.1 19.3846C5.1 19.6294 5.19482 19.8642 5.3636 20.0373C5.53239 20.2104 5.76131 20.3077 6 20.3077H8.4C8.63869 20.3077 8.86761 20.2104 9.0364 20.0373C9.20518 19.8642 9.3 19.6294 9.3 19.3846ZM18.9 19.3846C18.9 19.1398 18.8052 18.905 18.6364 18.7319C18.4676 18.5588 18.2387 18.4615 18 18.4615H15.6C15.3613 18.4615 15.1324 18.5588 14.9636 18.7319C14.7948 18.905 14.7 19.1398 14.7 19.3846C14.7 19.6294 14.7948 19.8642 14.9636 20.0373C15.1324 20.2104 15.3613 20.3077 15.6 20.3077H18C18.2387 20.3077 18.4676 20.2104 18.6364 20.0373C18.8052 19.8642 18.9 19.6294 18.9 19.3846Z" fill="#3E96F4"/>
</svg>
