<svg width="32" height="32" viewBox="0 0 32 32" fill="none" xmlns="http://www.w3.org/2000/svg">
<circle cx="16" cy="16" r="15.5" fill="#007BFF" stroke="black"/>
<path d="M11.4789 25.527L11.4789 25.5269C11.865 25.3163 12.1873 25.0057 12.412 24.6276C12.6368 24.2495 12.7556 23.818 12.7562 23.3782V23.3775V21.4213V21.2399L12.6402 21.1011L12.6401 21.101L12.6401 21.1009L12.64 21.1008L12.6399 21.1007L12.6383 21.0988L12.6291 21.0875C12.6204 21.0767 12.6069 21.0598 12.589 21.037C12.5533 20.9912 12.5003 20.9217 12.4344 20.8304C12.3025 20.6477 12.1195 20.3786 11.9201 20.039C11.5198 19.3574 11.0605 18.4044 10.8078 17.3045L10.7624 17.1067L10.5919 16.9965C10.2818 16.7961 10.0803 16.4533 10.0803 16.0695V13.9295C10.081 13.7758 10.114 13.6239 10.1772 13.4838C10.2405 13.3434 10.3326 13.2179 10.4477 13.1155L10.6152 12.9664V12.7421V9.64711V9.61425L10.6111 9.58343L10.6111 9.5834L10.6111 9.58324L10.611 9.58227L10.6106 9.57855C10.61 9.57312 10.609 9.56343 10.6078 9.54975C10.6054 9.52239 10.6023 9.47922 10.6003 9.42254C10.5963 9.30893 10.5967 9.14252 10.6156 8.94121C10.6535 8.53653 10.7646 8.00486 11.0517 7.47828C11.6023 6.46826 12.8823 5.33081 16.002 5.33081C19.1217 5.33081 20.4018 6.46826 20.9524 7.47828C21.2394 8.00486 21.3505 8.53653 21.3884 8.94121C21.4073 9.14252 21.4077 9.30893 21.4037 9.42254C21.4017 9.47922 21.3986 9.52239 21.3962 9.54975C21.395 9.56343 21.394 9.57312 21.3934 9.57855L21.393 9.58275L21.3929 9.58326L21.3929 9.5834L21.3929 9.58343L21.3888 9.61425V9.64711V12.7421V12.9638L21.5532 13.1127C21.7829 13.3207 21.9237 13.6104 21.9237 13.9285V16.0695C21.9237 16.5581 21.5951 16.9781 21.1376 17.1192L20.8878 17.1963L20.8086 17.4454C20.4606 18.5388 19.9477 19.5726 19.2874 20.511C19.1192 20.7487 18.9659 20.9441 18.8366 21.0914L18.7123 21.2329V21.4213V23.427C18.7123 23.882 18.839 24.3279 19.0782 24.7148C19.3173 25.1018 19.6595 25.4145 20.0664 25.618L20.29 25.1707L20.0664 25.618L25.1755 28.1722C25.176 28.1724 25.1764 28.1726 25.1768 28.1729C25.2598 28.2151 25.3411 28.2604 25.4206 28.3086C22.8094 30.3098 19.5453 31.5 16.0014 31.5H16.0007C12.5567 31.5047 9.21646 30.3569 6.50763 28.2493C6.57278 28.2075 6.63922 28.1677 6.70689 28.1299C6.70756 28.1295 6.70823 28.1292 6.70891 28.1288L11.4789 25.527ZM5.69922 28.2373C5.82849 28.3466 5.95931 28.4536 6.09162 28.5584L6.0998 27.9208C5.96021 28.0182 5.82644 28.1238 5.69922 28.2373Z" fill="#E7ECED" stroke="black"/>
</svg>
