<svg width="28" height="28" viewBox="0 0 28 28" fill="none" xmlns="http://www.w3.org/2000/svg">
<mask id="mask0_2591_930" style="mask-type:alpha" maskUnits="userSpaceOnUse" x="0" y="0" width="28" height="28">
<rect width="28" height="28" fill="#D9D9D9"/>
</mask>
<g mask="url(#mask0_2591_930)">
<path d="M14 25.6668C13.3583 25.6668 12.809 25.4384 12.3521 24.9814C11.8951 24.5245 11.6667 23.9752 11.6667 23.3335H16.3333C16.3333 23.9752 16.1049 24.5245 15.6479 24.9814C15.191 25.4384 14.6417 25.6668 14 25.6668ZM9.33333 22.1668V19.8335H18.6667V22.1668H9.33333ZM9.625 18.6668C8.28333 17.8696 7.21875 16.8002 6.43125 15.4585C5.64375 14.1168 5.25 12.6585 5.25 11.0835C5.25 8.65294 6.10069 6.58697 7.80208 4.88558C9.50347 3.18419 11.5694 2.3335 14 2.3335C16.4306 2.3335 18.4965 3.18419 20.1979 4.88558C21.8993 6.58697 22.75 8.65294 22.75 11.0835C22.75 12.6585 22.3562 14.1168 21.5688 15.4585C20.7812 16.8002 19.7167 17.8696 18.375 18.6668H9.625Z" fill="#3DA4C2"/>
</g>
</svg>
