<svg width="63" height="63" viewBox="0 0 63 63" fill="none" xmlns="http://www.w3.org/2000/svg">
<path d="M3.16273 58.8533H23.1681H59.3939V31.8191L57.7719 30.197H33.4411V17.2206L7.48821 22.6274V43.1734H3.16273V58.8533Z" fill="url(#paint0_linear_1_1351)"/>
<path d="M45.4659 5.55261H41.9623C41.1381 5.55261 40.47 6.22073 40.47 7.0449V29.1481C40.47 29.9723 41.1381 30.6404 41.9623 30.6404H45.4659C46.2901 30.6404 46.9582 29.9723 46.9582 29.1481V7.0449C46.9582 6.22073 46.2901 5.55261 45.4659 5.55261Z" stroke="#3E96F4" stroke-width="2" stroke-miterlimit="10"/>
<path d="M52.4623 1H55.9659C56.3617 1 56.7413 1.15722 57.0212 1.43708C57.301 1.71694 57.4582 2.09651 57.4582 2.49229V30.6079H50.97V2.49229C50.97 2.09651 51.1272 1.71694 51.4071 1.43708C51.687 1.15722 52.0665 1 52.4623 1Z" stroke="#3E96F4" stroke-width="2" stroke-miterlimit="10"/>
<path d="M39.9293 10.0942H46.4175" stroke="#3E96F4" stroke-width="2" stroke-miterlimit="10"/>
<path d="M50.743 4.6875H57.2312" stroke="#3E96F4" stroke-width="2" stroke-miterlimit="10"/>
<path d="M25.7417 30.6403H58.4423C58.6947 30.6403 58.9367 30.7405 59.1152 30.919C59.2937 31.0974 59.3939 31.3395 59.3939 31.5919V58.7559H24.7901V31.5919C24.7901 31.3395 24.8904 31.0974 25.0688 30.919C25.2473 30.7405 25.4893 30.6403 25.7417 30.6403Z" stroke="#3E96F4" stroke-width="2" stroke-miterlimit="10"/>
<path d="M33.0302 36.0471H30.6079C29.7837 36.0471 29.1156 36.7152 29.1156 37.5394V39.9617C29.1156 40.7858 29.7837 41.454 30.6079 41.454H33.0302C33.8543 41.454 34.5224 40.7858 34.5224 39.9617V37.5394C34.5224 36.7152 33.8543 36.0471 33.0302 36.0471Z" fill="white" stroke="#3E96F4" stroke-width="2" stroke-miterlimit="10"/>
<path d="M43.3032 36.0471H40.8809C40.0567 36.0471 39.3886 36.7152 39.3886 37.5394V39.9617C39.3886 40.7858 40.0567 41.454 40.8809 41.454H43.3032C44.1273 41.454 44.7955 40.7858 44.7955 39.9617V37.5394C44.7955 36.7152 44.1273 36.0471 43.3032 36.0471Z" fill="white" stroke="#3E96F4" stroke-width="2" stroke-miterlimit="10"/>
<path d="M53.5762 36.0471H51.1539C50.3297 36.0471 49.6616 36.7152 49.6616 37.5394V39.9617C49.6616 40.7858 50.3297 41.454 51.1539 41.454H53.5762C54.4003 41.454 55.0685 40.7858 55.0685 39.9617V37.5394C55.0685 36.7152 54.4003 36.0471 53.5762 36.0471Z" fill="white" stroke="#3E96F4" stroke-width="2" stroke-miterlimit="10"/>
<path d="M33.0302 46.8608H30.6079C29.7837 46.8608 29.1156 47.529 29.1156 48.3531V50.7754C29.1156 51.5996 29.7837 52.2677 30.6079 52.2677H33.0302C33.8543 52.2677 34.5224 51.5996 34.5224 50.7754V48.3531C34.5224 47.529 33.8543 46.8608 33.0302 46.8608Z" fill="white" stroke="#3E96F4" stroke-width="2" stroke-miterlimit="10"/>
<path d="M43.3032 46.8608H40.8809C40.0567 46.8608 39.3886 47.529 39.3886 48.3531V50.7754C39.3886 51.5996 40.0567 52.2677 40.8809 52.2677H43.3032C44.1273 52.2677 44.7955 51.5996 44.7955 50.7754V48.3531C44.7955 47.529 44.1273 46.8608 43.3032 46.8608Z" fill="white" stroke="#3E96F4" stroke-width="2" stroke-miterlimit="10"/>
<path d="M53.5762 46.8608H51.1539C50.3297 46.8608 49.6616 47.529 49.6616 48.3531V50.7754C49.6616 51.5996 50.3297 52.2677 51.1539 52.2677H53.5762C54.4003 52.2677 55.0685 51.5996 55.0685 50.7754V48.3531C55.0685 47.529 54.4003 46.8608 53.5762 46.8608Z" fill="white" stroke="#3E96F4" stroke-width="2" stroke-miterlimit="10"/>
<path d="M15.4363 25.2334H12.5166C12.1284 25.2334 11.8137 25.5481 11.8137 25.9363V28.856C11.8137 29.2442 12.1284 29.5589 12.5166 29.5589H15.4363C15.8245 29.5589 16.1392 29.2442 16.1392 28.856V25.9363C16.1392 25.5481 15.8245 25.2334 15.4363 25.2334Z" fill="white" stroke="#3E96F4" stroke-width="2" stroke-miterlimit="10"/>
<path d="M15.4363 33.8844H12.5166C12.1284 33.8844 11.8137 34.1991 11.8137 34.5873V37.507C11.8137 37.8952 12.1284 38.2099 12.5166 38.2099H15.4363C15.8245 38.2099 16.1392 37.8952 16.1392 37.507V34.5873C16.1392 34.1991 15.8245 33.8844 15.4363 33.8844Z" fill="white" stroke="#3E96F4" stroke-width="2" stroke-miterlimit="10"/>
<path d="M4.11434 42.5354H24.7901V58.7559H3.16273V43.487C3.16273 43.362 3.18735 43.2383 3.23517 43.1228C3.28299 43.0074 3.35309 42.9025 3.44145 42.8141C3.52982 42.7258 3.63472 42.6557 3.75018 42.6078C3.86563 42.56 3.98937 42.5354 4.11434 42.5354Z" stroke="#3E96F4" stroke-width="2" stroke-miterlimit="10"/>
<path d="M8.43982 48.072H19.513C19.7654 48.072 20.0075 48.1723 20.1859 48.3507C20.3644 48.5292 20.4646 48.7712 20.4646 49.0236V58.6154H7.48821V49.0236C7.48821 48.7712 7.58847 48.5292 7.76693 48.3507C7.94539 48.1723 8.18744 48.072 8.43982 48.072Z" fill="#31393C" stroke="#3E96F4" stroke-width="2" stroke-miterlimit="10"/>
<path d="M13.9764 47.9423V58.756" stroke="#3E96F4" stroke-width="2" stroke-miterlimit="10"/>
<path d="M35.6038 16.9934L5.81204 22.7679C5.62049 22.8043 5.42333 22.7983 5.2344 22.75C5.04546 22.7018 4.86943 22.6126 4.71879 22.4888C4.56815 22.365 4.44655 22.2096 4.36265 22.0336C4.27875 21.8576 4.2346 21.6653 4.23328 21.4703V20.0104C4.23492 19.701 4.3435 19.4017 4.54059 19.1633C4.73767 18.9248 5.01113 18.7619 5.31465 18.702L35.1064 12.9383C35.2982 12.8998 35.4961 12.9044 35.6859 12.9519C35.8757 12.9993 36.0525 13.0884 36.2036 13.2126C36.3547 13.3368 36.4764 13.493 36.5596 13.67C36.6429 13.847 36.6858 14.0403 36.6852 14.2359V15.6957C36.6831 16.0038 36.5742 16.3016 36.377 16.5382C36.1797 16.7749 35.9064 16.9358 35.6038 16.9934Z" stroke="#3E96F4" stroke-width="2" stroke-miterlimit="10"/>
<path d="M7.48821 42.5353V23.0707" stroke="#3E96F4" stroke-width="2" stroke-miterlimit="10"/>
<path d="M33.4411 30.6402V17.6638" stroke="#3E96F4" stroke-width="2" stroke-miterlimit="10"/>
<path d="M60.7889 58.7559H1.76777C1.34374 58.7559 1 59.0996 1 59.5236V61.2322C1 61.6562 1.34374 62 1.76777 62H60.7889C61.2129 62 61.5567 61.6562 61.5567 61.2322V59.5236C61.5567 59.0996 61.2129 58.7559 60.7889 58.7559Z" stroke="#3E96F4" stroke-width="2" stroke-miterlimit="10"/>
<defs>
<linearGradient id="paint0_linear_1_1351" x1="3.16273" y1="22.356" x2="57.6932" y2="61.1671" gradientUnits="userSpaceOnUse">
<stop stop-color="#9FCEFF"/>
<stop offset="1" stop-color="#E7F2FF"/>
</linearGradient>
</defs>
</svg>
