<svg width="84" height="84" viewBox="0 0 84 84" fill="none" xmlns="http://www.w3.org/2000/svg">
<circle cx="41.6701" cy="42.5" r="29.5" fill="url(#paint0_linear_1_1339)"/>
<path d="M20.7758 63.1571C9.30754 51.6889 9.30754 33.0738 20.7758 21.6056C32.244 10.1374 50.8591 10.1374 62.3273 21.6056C73.7955 33.0738 73.7955 51.6889 62.3273 63.1571" stroke="#3E96F4" stroke-width="2" stroke-linecap="round" stroke-linejoin="round"/>
<g clip-path="url(#clip0_1_1339)">
<path d="M42.1701 52.8621C47.0446 52.8621 50.9961 48.8635 50.9961 43.931C50.9961 38.9986 47.0446 35 42.1701 35C37.2955 35 33.344 38.9986 33.344 43.931C33.344 48.8635 37.2955 52.8621 42.1701 52.8621Z" fill="#31393C"/>
<path d="M42.17 72C36.2692 72 28.3005 72.2169 28.3005 66.2586V63.7069C28.3104 60.8338 29.4428 58.0812 31.4506 56.0496C33.4583 54.018 36.1785 52.8721 39.0179 52.8621H45.3222C48.1616 52.8721 50.8818 54.018 52.8895 56.0496C54.8973 58.0812 56.0296 60.8338 56.0396 63.7069V66.2586C56.0396 72.2169 42.17 72 42.17 72Z" fill="#31393C"/>
<path d="M61.0831 50.54C64.6275 50.54 67.5009 47.6325 67.5009 44.0459C67.5009 40.4593 64.6275 37.5518 61.0831 37.5518C57.5386 37.5518 54.6653 40.4593 54.6653 44.0459C54.6653 47.6325 57.5386 50.54 61.0831 50.54Z" fill="#31393C"/>
<path d="M23.257 50.54C26.8015 50.54 29.6748 47.6325 29.6748 44.0459C29.6748 40.4593 26.8015 37.5518 23.257 37.5518C19.7125 37.5518 16.8392 40.4593 16.8392 44.0459C16.8392 47.6325 19.7125 50.54 23.257 50.54Z" fill="#31393C"/>
<path d="M63.3779 50.54H58.7883C57.6699 50.5437 56.5653 50.7905 55.5494 51.2637C54.5335 51.737 53.63 52.4257 52.9001 53.2831C54.6381 54.4525 56.0641 56.0378 57.0517 57.8984C58.0392 59.759 58.5578 61.8374 58.5613 63.9494V64.4469C59.4187 64.4469 60.2761 64.4469 61.0831 64.4469C61.0831 64.4469 71.17 64.6128 71.17 60.2749V58.4249C71.1634 56.3357 70.3403 54.3341 68.8804 52.8569C67.4205 51.3797 65.4424 50.5468 63.3779 50.54Z" fill="#31393C"/>
<path d="M25.7787 63.9494C25.7823 61.8374 26.3009 59.759 27.2884 57.8984C28.276 56.0378 29.702 54.4525 31.44 53.2831C30.7101 52.4257 29.8066 51.737 28.7907 51.2637C27.7748 50.7905 26.6702 50.5437 25.5518 50.54H20.9622C18.8955 50.5468 16.9155 51.3814 15.4552 52.8614C13.995 54.3414 13.1734 56.3463 13.17 58.4376V60.2876C13.17 64.6256 18.97 64.4597 23.257 64.4597C23.257 64.4597 24.3287 64.4597 25.7787 64.3449V63.9494Z" fill="#31393C"/>
</g>
<defs>
<linearGradient id="paint0_linear_1_1339" x1="12.1701" y1="20.2777" x2="79.6351" y2="55.8288" gradientUnits="userSpaceOnUse">
<stop stop-color="#9FCEFF"/>
<stop offset="1" stop-color="#E7F2FF"/>
</linearGradient>
<clipPath id="clip0_1_1339">
<rect width="58" height="37" fill="white" transform="translate(13.17 35)"/>
</clipPath>
</defs>
</svg>
