<svg width="48" height="48" viewBox="0 0 48 48" fill="none" xmlns="http://www.w3.org/2000/svg">
<rect width="48" height="48" rx="8" fill="white"/>
<path d="M38.4 10H9.6C9.17565 10 8.76869 10.1686 8.46863 10.4686C8.16857 10.7687 8 11.1757 8 11.6V36.1333C8 36.5577 8.16857 36.9646 8.46863 37.2647C8.76869 37.5648 9.17565 37.7333 9.6 37.7333H38.4C38.8243 37.7333 39.2313 37.5648 39.5314 37.2647C39.8314 36.9646 40 36.5577 40 36.1333V11.6C40 11.1757 39.8314 10.7687 39.5314 10.4686C39.2313 10.1686 38.8243 10 38.4 10ZM9.6 11.0667H38.4C38.5415 11.0667 38.6771 11.1229 38.7771 11.2229C38.8771 11.3229 38.9333 11.4586 38.9333 11.6V13.2H9.06667V11.6C9.06667 11.4586 9.12286 11.3229 9.22288 11.2229C9.3229 11.1229 9.45855 11.0667 9.6 11.0667ZM38.4 36.6667H9.6C9.45855 36.6667 9.3229 36.6105 9.22288 36.5105C9.12286 36.4104 9.06667 36.2748 9.06667 36.1333V14.2667H38.9333V36.1333C38.9333 36.2748 38.8771 36.4104 38.7771 36.5105C38.6771 36.6105 38.5415 36.6667 38.4 36.6667Z" fill="#3E96F4"/>
<path d="M17.6 17.4666V16.3999C17.6 16.117 17.4876 15.8457 17.2875 15.6457C17.0875 15.4456 16.8162 15.3333 16.5333 15.3333H11.2C10.9171 15.3333 10.6458 15.4456 10.4457 15.6457C10.2457 15.8457 10.1333 16.117 10.1333 16.3999V17.4666C10.1333 17.7495 10.2457 18.0208 10.4457 18.2208C10.6458 18.4209 10.9171 18.5333 11.2 18.5333H16.5333C16.8162 18.5333 17.0875 18.4209 17.2875 18.2208C17.4876 18.0208 17.6 17.7495 17.6 17.4666ZM11.2 16.3999H16.5333V17.4666H11.2V16.3999ZM14.9333 20.6666V21.7333C14.9333 22.0161 15.0457 22.2875 15.2457 22.4875C15.4458 22.6875 15.7171 22.7999 16 22.7999H21.3333C21.6162 22.7999 21.8875 22.6875 22.0875 22.4875C22.2876 22.2875 22.4 22.0161 22.4 21.7333V20.6666C22.4 20.3837 22.2876 20.1124 22.0875 19.9123C21.8875 19.7123 21.6162 19.5999 21.3333 19.5999H16C15.7171 19.5999 15.4458 19.7123 15.2457 19.9123C15.0457 20.1124 14.9333 20.3837 14.9333 20.6666ZM21.3333 21.7333H16V20.6666H21.3333V21.7333ZM17.6 23.8666H13.8666C13.5837 23.8666 13.3124 23.979 13.1124 24.179C12.9123 24.379 12.8 24.6504 12.8 24.9333V25.9999C12.8 26.2828 12.9123 26.5541 13.1124 26.7542C13.3124 26.9542 13.5837 27.0666 13.8666 27.0666H17.6C17.8829 27.0666 18.1542 26.9542 18.3542 26.7542C18.5543 26.5541 18.6666 26.2828 18.6666 25.9999V24.9333C18.6666 24.6504 18.5543 24.379 18.3542 24.179C18.1542 23.979 17.8829 23.8666 17.6 23.8666ZM13.8666 25.9999V24.9333H17.6V25.9999H13.8666ZM28.2666 25.9999V24.9333C28.2666 24.6504 28.1543 24.379 27.9542 24.179C27.7542 23.979 27.4829 23.8666 27.2 23.8666H20.8C20.5171 23.8666 20.2458 23.979 20.0457 24.179C19.8457 24.379 19.7333 24.6504 19.7333 24.9333V25.9999C19.7333 26.2828 19.8457 26.5541 20.0457 26.7542C20.2458 26.9542 20.5171 27.0666 20.8 27.0666H27.2C27.4829 27.0666 27.7542 26.9542 27.9542 26.7542C28.1543 26.5541 28.2666 26.2828 28.2666 25.9999ZM20.8 24.9333H27.2V25.9999H20.8V24.9333ZM32 30.2666V29.1999C32 28.917 31.8876 28.6457 31.6875 28.4457C31.4875 28.2456 31.2162 28.1333 30.9333 28.1333H25.6C25.3171 28.1333 25.0458 28.2456 24.8457 28.4457C24.6457 28.6457 24.5333 28.917 24.5333 29.1999V30.2666C24.5333 30.5495 24.6457 30.8208 24.8457 31.0208C25.0458 31.2209 25.3171 31.3333 25.6 31.3333H30.9333C31.2162 31.3333 31.4875 31.2209 31.6875 31.0208C31.8876 30.8208 32 30.5495 32 30.2666ZM25.6 29.1999H30.9333V30.2666H25.6V29.1999ZM36.8 32.3999H29.3333C29.0504 32.3999 28.7791 32.5123 28.5791 32.7123C28.379 32.9124 28.2666 33.1837 28.2666 33.4666V34.5333C28.2666 34.8162 28.379 35.0875 28.5791 35.2875C28.7791 35.4875 29.0504 35.5999 29.3333 35.5999H36.8C37.0829 35.5999 37.3542 35.4875 37.5542 35.2875C37.7543 35.0875 37.8666 34.8162 37.8666 34.5333V33.4666C37.8666 33.1837 37.7543 32.9124 37.5542 32.7123C37.3542 32.5123 37.0829 32.3999 36.8 32.3999ZM29.3333 34.5333V33.4666H36.8V34.5333H29.3333Z" fill="#3E96F4"/>
</svg>
