<svg width="71" height="72" viewBox="0 0 71 72" fill="none" xmlns="http://www.w3.org/2000/svg">
<path fill-rule="evenodd" clip-rule="evenodd" d="M41.1564 18.5184V37.7012C41.1564 38.093 41.312 38.4687 41.589 38.7457C41.866 39.0227 42.2416 39.1783 42.6334 39.1783H66.0268C66.4185 39.1783 66.7943 39.0227 67.0713 38.7457C67.3483 38.4687 67.5039 38.093 67.5039 37.7012V28.1098C67.5039 27.83 67.3928 27.5617 67.1949 27.3638C66.9971 27.1659 66.7287 27.0548 66.4489 27.0548C66.1691 27.0548 65.9007 27.1659 65.7028 27.3638C65.505 27.5617 65.3938 27.83 65.3938 28.1098V37.0394H43.2568V18.7294C44.5121 18.727 45.7539 18.4709 46.9077 17.9764C48.0615 17.4819 49.1034 16.7593 49.9708 15.852H59.8116C60.0914 15.852 60.3598 15.7409 60.5576 15.543C60.7555 15.3451 60.8666 15.0768 60.8666 14.797C60.8666 14.5171 60.7555 14.2488 60.5576 14.0509C60.3598 13.8531 60.0914 13.7419 59.8116 13.7419H51.5054C52.3692 12.1295 52.7332 10.2963 52.551 8.47623H65.3554V23.1799C65.3554 23.4597 65.4666 23.728 65.6644 23.9259C65.8623 24.1237 66.1307 24.2349 66.4105 24.2349C66.6903 24.2349 66.9587 24.1237 67.1565 23.9259C67.3544 23.728 67.4655 23.4597 67.4655 23.1799V7.83362C67.4655 7.44188 67.3099 7.06617 67.0329 6.78916C66.7559 6.51216 66.3803 6.35654 65.9885 6.35654H52.1001C51.5766 4.81197 50.6588 3.43095 49.4374 2.35027C48.216 1.26959 46.7334 0.526758 45.1366 0.195339C43.5398 -0.136081 41.8841 -0.0445896 40.3335 0.460765C38.7829 0.966119 37.3913 1.86779 36.2964 3.07648C35.2015 4.28516 34.4413 5.7589 34.0913 7.35174C33.7412 8.94458 33.8133 10.6013 34.3005 12.1577C34.7877 13.714 35.673 15.1161 36.8688 16.2251C38.0646 17.3341 39.5293 18.1114 41.118 18.4801L41.1564 18.5184ZM43.2664 2.13633C44.7025 2.13633 46.1063 2.56215 47.3003 3.35996C48.4943 4.15778 49.4249 5.29174 49.9744 6.61845C50.524 7.94517 50.6678 9.40506 50.3876 10.8135C50.1075 12.2219 49.4159 13.5157 48.4005 14.5311C47.3851 15.5465 46.0913 16.238 44.6829 16.5182C43.2745 16.7983 41.8147 16.6545 40.4879 16.105C39.1612 15.5555 38.0272 14.6249 37.2294 13.4308C36.4316 12.2368 36.0058 10.833 36.0058 9.397C36.0058 7.47134 36.7707 5.62457 38.1324 4.26293C39.494 2.90129 41.3408 2.13633 43.2664 2.13633ZM48.8016 19.0745H59.8509C60.1307 19.0745 60.3991 19.1856 60.597 19.3835C60.7948 19.5814 60.9059 19.8497 60.9059 20.1295C60.9059 20.4093 60.7948 20.6777 60.597 20.8756C60.3991 21.0734 60.1307 21.1846 59.8509 21.1846H48.8016C48.5218 21.1846 48.2534 21.0734 48.0556 20.8756C47.8577 20.6777 47.7466 20.4093 47.7466 20.1295C47.7466 19.8497 47.8577 19.5814 48.0556 19.3835C48.2534 19.1856 48.5218 19.0745 48.8016 19.0745ZM60.5963 24.6974C60.7942 24.8953 60.9053 25.1636 60.9053 25.4435C60.9053 25.5816 60.878 25.7183 60.8249 25.8458C60.7718 25.9732 60.6939 26.0889 60.5958 26.1861C60.4977 26.2833 60.3812 26.3601 60.2533 26.4121C60.1253 26.4641 59.9884 26.4902 59.8503 26.4889H48.801C48.6546 26.5029 48.5069 26.4862 48.3674 26.4398C48.2279 26.3934 48.0997 26.3183 47.9909 26.2194C47.8821 26.1205 47.7951 26 47.7357 25.8655C47.6762 25.7311 47.6455 25.5857 47.6455 25.4387C47.6455 25.2916 47.6762 25.1462 47.7357 25.0118C47.7951 24.8773 47.8821 24.7568 47.9909 24.6579C48.0997 24.559 48.2279 24.484 48.3674 24.4375C48.5069 24.3911 48.6546 24.3744 48.801 24.3884H59.8503C60.1301 24.3884 60.3985 24.4996 60.5963 24.6974ZM68.8471 64.5857H62.8907V46.5443C62.8907 46.1525 62.7351 45.7769 62.4581 45.4999C62.1811 45.2229 61.8055 45.0672 61.4137 45.0672H36.1883V41.8541C36.1883 41.5743 36.0772 41.3059 35.8793 41.108C35.6815 40.9102 35.4131 40.7991 35.1333 40.7991C34.8535 40.7991 34.5851 40.9102 34.3872 41.108C34.1894 41.3059 34.0783 41.5743 34.0783 41.8541V45.0672H14.3871V30.2389H20.1419V34.2865C20.1445 34.6766 20.3012 35.0498 20.5779 35.3247C20.8547 35.5997 21.229 35.754 21.619 35.754H26.9039C27.294 35.754 27.6682 35.5997 27.9449 35.3247C28.2216 35.0498 28.3784 34.6766 28.3809 34.2865V30.2389H34.1357V36.9529C34.1357 37.2327 34.247 37.5011 34.4448 37.6989C34.6427 37.8968 34.9111 38.008 35.1909 38.008C35.4707 38.008 35.739 37.8968 35.9368 37.6989C36.1347 37.5011 36.2459 37.2327 36.2459 36.9529V29.5963C36.2459 29.2045 36.0903 28.8289 35.8133 28.5519C35.5363 28.2748 35.1606 28.1192 34.7688 28.1192H13.8116C13.4199 28.1192 13.0441 28.2748 12.7671 28.5519C12.4901 28.8289 12.3345 29.2045 12.3345 29.5963V45.1056H8.91045C8.5187 45.1056 8.14296 45.2612 7.86595 45.5382C7.58895 45.8152 7.43333 46.1909 7.43333 46.5826V64.5857H1.47711C1.08537 64.5857 0.709625 64.7413 0.43262 65.0183C0.155614 65.2953 0 65.671 0 66.0628V70.5228C0 70.9145 0.155614 71.2902 0.43262 71.5672C0.709625 71.8442 1.08537 71.9998 1.47711 71.9998H68.9046C69.2963 71.9998 69.6721 71.8442 69.9491 71.5672C70.2261 71.2902 70.3817 70.9145 70.3817 70.5228V66.1012C70.3871 65.899 70.3509 65.6979 70.2755 65.5104C70.2 65.3228 70.0868 65.1527 69.943 65.0107C69.7991 64.8686 69.6277 64.7576 69.4392 64.6845C69.2506 64.6114 69.0491 64.5778 68.8471 64.5857ZM22.2233 30.2389H26.242V33.6535H22.2233V30.2389ZM48.9257 47.1965H52.9541V50.611H48.9257V47.1965ZM21.8684 47.1965H26.5969V50.611H21.8684V47.1965ZM9.47631 47.1965H19.7871V51.2441C19.7871 51.6358 19.9427 52.0115 20.2197 52.2885C20.4967 52.5655 20.8724 52.7212 21.2642 52.7212H27.2588C27.6505 52.7212 28.0262 52.5655 28.3032 52.2885C28.5802 52.0115 28.7358 51.6358 28.7358 51.2441V47.2157H38.9699V64.5857H9.4571L9.47631 47.1965ZM68.214 69.8322H2.03337V66.6862H52.676C52.9558 66.6862 53.2242 66.5751 53.422 66.3772C53.6199 66.1793 53.731 65.911 53.731 65.6312C53.731 65.3514 53.6199 65.083 53.422 64.8851C53.2242 64.6873 52.9558 64.5761 52.676 64.5761H41.0703V47.2157H46.8251V51.2632C46.8251 51.655 46.9809 52.0307 47.2579 52.3077C47.5349 52.5847 47.9105 52.7404 48.3023 52.7404H53.5967C53.9885 52.7404 54.3642 52.5847 54.6412 52.3077C54.9182 52.0307 55.0738 51.655 55.0738 51.2632V47.2157H60.8287V64.5857H57.6539C57.3741 64.5857 57.1057 64.6969 56.9078 64.8947C56.71 65.0926 56.5988 65.3609 56.5988 65.6407C56.5988 65.9206 56.71 66.1889 56.9078 66.3868C57.1057 66.5846 57.3741 66.6958 57.6539 66.6958H68.2044L68.214 69.8322ZM48.0556 29.9823C48.2534 29.7844 48.5218 29.6732 48.8016 29.6732H56.1006C56.3805 29.6732 56.6488 29.7844 56.8467 29.9823C57.0446 30.1801 57.1557 30.4485 57.1557 30.7283C57.1557 31.0081 57.0446 31.2765 56.8467 31.4743C56.6488 31.6722 56.3805 31.7833 56.1006 31.7833H48.8016C48.5218 31.7833 48.2534 31.6722 48.0556 31.4743C47.8577 31.2765 47.7466 31.0081 47.7466 30.7283C47.7466 30.4485 47.8577 30.1801 48.0556 29.9823ZM42.7422 12.7927C42.4621 12.7927 42.1933 12.6823 41.994 12.4855L38.7809 9.2628C38.6823 9.16475 38.604 9.04817 38.5506 8.91977C38.4972 8.79138 38.4697 8.65372 38.4697 8.51467C38.4697 8.37562 38.4972 8.23793 38.5506 8.10953C38.604 7.98114 38.6823 7.86459 38.7809 7.76654C38.8782 7.66823 38.9938 7.59018 39.1214 7.53691C39.249 7.48365 39.3859 7.45621 39.5242 7.45621C39.6624 7.45621 39.7993 7.48365 39.9269 7.53691C40.0545 7.59018 40.1703 7.66823 40.2675 7.76654L42.7517 10.2507L46.291 6.71148C46.3882 6.61317 46.504 6.53512 46.6315 6.48185C46.7591 6.42859 46.896 6.40118 47.0343 6.40118C47.1726 6.40118 47.3095 6.42859 47.4371 6.48185C47.5647 6.53512 47.6804 6.61317 47.7777 6.71148C47.8763 6.80953 47.9545 6.92608 48.0079 7.05447C48.0612 7.18287 48.0888 7.32056 48.0888 7.45961C48.0888 7.59866 48.0612 7.73635 48.0079 7.86474C47.9545 7.99314 47.8763 8.10969 47.7777 8.20774L43.4902 12.4855C43.291 12.6823 43.0223 12.7927 42.7422 12.7927Z" fill="url(#paint0_linear_1_535)"/>
<defs>
<linearGradient id="paint0_linear_1_535" x1="63.9093" y1="66.6" x2="-0.231632" y2="8.18532" gradientUnits="userSpaceOnUse">
<stop stop-color="#31393C"/>
<stop offset="0.845748" stop-color="#3D96F5"/>
</linearGradient>
</defs>
</svg>
