<svg width="68" height="68" viewBox="0 0 68 68" fill="none" xmlns="http://www.w3.org/2000/svg">
<circle cx="32" cy="32" r="33" transform="matrix(1 0 0 -1 2 66)" fill="#3E96F4" stroke="white" stroke-width="2"/>
<path d="M21 26H16.999C16 26 15 25 15 24V20C15.001 19 16 18 16.999 18H21C22 18 23 19 23 20V24C23 25 22 26 21 26ZM21 20H17L16.999 24H21V20ZM54 22C54 21.4339 53.5 21 53 21H28C27.5 21 27 21.5 27 22C27 22.5 27.5 23 28 23H53C53.5 23 54 22.5 54 22Z" fill="white"/>
<path d="M21 38H16.999C16 38 15 37 15 36V32C15.001 31 16 30 16.999 30H21C22 30 23 31 23 32V36C23 37 22 38 21 38ZM21 32H17L16.999 36H21V32ZM54 34C54 33.4339 53.5 33 53 33H28C27.5 33 27 33.5 27 34C27 34.5 27.5 35 28 35H53C53.5 35 54 34.5 54 34Z" fill="white"/>
<path d="M21 50H16.999C16 50 15 49 15 48V44C15.001 43 16 42 16.999 42H21C22 42 23 43 23 44V48C23 49 22 50 21 50ZM21 44H17L16.999 48H21V44ZM54 46C54 45.4339 53.5 45 53 45H28C27.5 45 27 45.5 27 46C27 46.5 27.5 47 28 47H53C53.5 47 54 46.5 54 46Z" fill="white"/>
</svg>
