<svg xmlns="http://www.w3.org/2000/svg" width="38" height="24" fill="none"><path fill="#41479B" d="M0 0h37.333v24H0z"/><path fill="#FFE15A" d="m18.768 2.74.251.758.794.006c.102 0 .145.133.062.194l-.638.474.24.761c.03.099-.081.18-.165.12l-.645-.464-.646.464c-.084.06-.195-.021-.164-.12l.24-.76-.64-.475c-.082-.061-.04-.193.064-.194l.793-.006.251-.757a.107.107 0 0 1 .203 0m0 16.26.251.758.794.006c.102 0 .145.132.062.194l-.638.474.24.761c.03.099-.081.18-.165.12l-.645-.464-.646.464c-.084.06-.195-.021-.164-.12l.24-.76-.64-.475c-.082-.062-.04-.193.064-.194l.793-.006.251-.758a.107.107 0 0 1 .203 0m8.081-8.13.251.758.794.006c.102 0 .145.133.062.194l-.638.474.24.761c.03.099-.081.18-.165.12l-.645-.464-.646.464c-.084.06-.195-.021-.164-.12l.24-.76-.64-.475c-.082-.061-.04-.193.064-.194l.793-.006.251-.758a.107.107 0 0 1 .203 0m-16.162 0 .251.758.794.006c.102 0 .145.133.062.194l-.638.474.24.761c.03.099-.081.18-.165.12l-.645-.464-.646.464c-.084.06-.195-.021-.164-.12l.24-.76-.64-.475c-.082-.061-.04-.193.064-.194l.793-.006.251-.758a.107.107 0 0 1 .203 0M11.9 6.625l.251.757.794.006c.102.001.145.133.062.194l-.638.475.24.76c.03.1-.081.18-.165.12l-.645-.463-.646.464c-.083.06-.195-.022-.164-.12l.24-.761-.639-.475c-.083-.06-.04-.193.063-.194l.793-.006.251-.757a.107.107 0 0 1 .203 0m13.997 8.13.25.757.794.006c.103.001.146.133.063.194l-.638.475.239.76c.031.1-.08.18-.164.12l-.646-.464-.645.465c-.084.06-.195-.022-.164-.12l.24-.761-.64-.475c-.082-.061-.04-.193.063-.194l.794-.006.251-.757a.107.107 0 0 1 .203 0M22.939 3.649l.251.757.794.007c.102 0 .145.132.062.194l-.638.474.24.761c.03.099-.081.18-.165.12l-.645-.464-.646.464c-.084.06-.195-.021-.164-.12l.24-.761-.64-.474c-.082-.062-.04-.194.064-.194l.793-.007.251-.757a.107.107 0 0 1 .203 0M14.858 17.73l.251.758.793.006c.103 0 .146.133.063.194l-.638.474.24.761c.03.099-.081.18-.165.12l-.645-.464-.646.464c-.084.06-.195-.021-.164-.12l.24-.76-.64-.475c-.082-.061-.04-.193.063-.194l.794-.006.251-.758a.107.107 0 0 1 .203 0M25.694 6.625l-.251.757-.794.006c-.102.001-.145.133-.062.194l.638.475-.24.76c-.03.1.081.18.165.12l.645-.463.646.464c.084.06.195-.022.164-.12l-.24-.761.64-.475c.082-.06.04-.193-.064-.194l-.793-.006-.251-.757a.107.107 0 0 0-.203 0m-13.997 8.13-.25.757-.794.006c-.103.001-.146.133-.063.194l.638.475-.239.76c-.03.1.08.18.164.12l.646-.464.645.465c.084.06.195-.022.164-.12l-.239-.761.638-.475c.083-.061.04-.193-.062-.194l-.794-.006-.25-.757a.107.107 0 0 0-.204 0m2.958-11.106-.251.757-.793.007c-.103 0-.146.132-.063.194l.638.474-.24.761c-.03.099.081.18.165.12l.646-.464.645.464c.084.06.195-.021.164-.12l-.24-.761.64-.474c.082-.062.04-.194-.063-.194l-.794-.007-.251-.757a.107.107 0 0 0-.203 0m8.081 14.081-.251.758-.793.006c-.103 0-.146.133-.063.194l.638.474-.24.761c-.03.099.081.18.165.12l.645-.464.646.464c.084.06.195-.021.164-.12l-.24-.76.64-.475c.082-.061.04-.193-.064-.194l-.793-.006-.251-.758a.107.107 0 0 0-.203 0"/></svg>