<svg width="180" height="50" viewBox="0 0 180 50" fill="none" xmlns="http://www.w3.org/2000/svg">
<path d="M21.9009 18.3422H22.9114L25.7913 15.4623L25.9328 14.2396C24.283 12.7834 22.2892 11.7718 20.1398 11.3005C17.9904 10.8291 15.7563 10.9135 13.6485 11.5456C11.5407 12.1777 9.62893 13.3367 8.09365 14.9132C6.55837 16.4896 5.45031 18.4314 4.87415 20.5551C5.19498 20.4236 5.55038 20.4023 5.88464 20.4945L11.6444 19.5446C11.6444 19.5446 11.9375 19.0596 12.0891 19.0899C13.3232 17.7345 15.0287 16.9021 16.8566 16.7631C18.6844 16.6241 20.4962 17.189 21.9211 18.3422H21.9009Z" fill="#EA4335"/>
<path d="M29.8944 20.555C29.2325 18.1173 27.8734 15.9259 25.9838 14.2495L21.9419 18.2915C22.7843 18.9798 23.4594 19.8504 23.9162 20.8377C24.3731 21.8249 24.5998 22.903 24.5793 23.9906V24.7081C25.0517 24.7081 25.5195 24.8011 25.9559 24.9819C26.3924 25.1627 26.7889 25.4277 27.123 25.7617C27.457 26.0958 27.722 26.4923 27.9028 26.9288C28.0836 27.3653 28.1766 27.833 28.1766 28.3054C28.1766 28.7779 28.0836 29.2456 27.9028 29.6821C27.722 30.1185 27.457 30.5151 27.123 30.8492C26.7889 31.1832 26.3924 31.4482 25.9559 31.629C25.5195 31.8097 25.0517 31.9028 24.5793 31.9028H17.3846L16.6671 32.6303V36.9451L17.3846 37.6626H24.5793C26.5884 37.6782 28.5491 37.0468 30.1715 35.8617C31.7939 34.6765 32.9918 33.0007 33.5879 31.082C34.184 29.1633 34.1467 27.1037 33.4816 25.2079C32.8164 23.312 31.5587 21.6806 29.8944 20.555Z" fill="#4285F4"/>
<path d="M10.179 37.6227H17.3737V31.8629H10.179C9.66645 31.8628 9.15987 31.7525 8.69362 31.5396L7.68313 31.8528L4.78302 34.7327L4.5304 35.7432C6.15671 36.9713 8.14116 37.6316 10.179 37.6227Z" fill="#34A853"/>
<path d="M10.1793 18.9385C8.22989 18.9501 6.33278 19.5703 4.75296 20.7125C3.17314 21.8547 1.9895 23.4617 1.36735 25.3092C0.745209 27.1567 0.715633 29.1524 1.28276 31.0176C1.84988 32.8827 2.98538 34.5242 4.53066 35.7126L8.70399 31.5393C8.17365 31.2997 7.70935 30.935 7.35094 30.4765C6.99253 30.018 6.75071 29.4794 6.64622 28.9069C6.54173 28.3344 6.5777 27.7451 6.75103 27.1895C6.92437 26.634 7.22989 26.1288 7.6414 25.7173C8.05291 25.3058 8.55811 25.0003 9.11365 24.8269C9.6692 24.6536 10.2585 24.6176 10.831 24.7221C11.4035 24.8266 11.9421 25.0684 12.4006 25.4268C12.8591 25.7852 13.2238 26.2495 13.4634 26.7799L17.6367 22.6066C16.7608 21.4614 15.6318 20.5344 14.3381 19.8981C13.0444 19.2618 11.621 18.9333 10.1793 18.9385Z" fill="#FBBC05"/>
<path d="M53.1635 33.6005C51.9247 33.6163 50.6956 33.3819 49.5496 32.9113C48.4036 32.4408 47.3644 31.7438 46.4942 30.8621C45.5966 30.0178 44.8843 28.9961 44.4025 27.862C43.9206 26.7278 43.6797 25.5058 43.6952 24.2737C43.6804 23.0416 43.9215 21.8198 44.4033 20.6857C44.8851 19.5516 45.5971 18.5299 46.4942 17.6853C47.3601 16.7944 48.3974 16.0881 49.5436 15.6087C50.6898 15.1294 51.9211 14.8871 53.1635 14.8963C54.3472 14.8805 55.5222 15.1002 56.6203 15.5426C57.7184 15.9849 58.7176 16.6411 59.5599 17.4731L57.7612 19.302C56.5294 18.1116 54.8763 17.4576 53.1635 17.4832C52.275 17.4722 51.3939 17.6463 50.5763 17.9942C49.7587 18.3421 49.0223 18.8563 48.4141 19.5041C47.7821 20.1312 47.2834 20.8798 46.9482 21.7046C46.6131 22.5295 46.4483 23.4137 46.4639 24.304C46.4565 25.1841 46.6252 26.0567 46.9601 26.8706C47.2951 27.6845 47.7894 28.4232 48.4141 29.0432C49.6655 30.2902 51.3542 30.9996 53.1207 31.0204C54.8872 31.0411 56.592 30.3716 57.8723 29.1543C58.665 28.2863 59.1513 27.1824 59.2567 26.0117H53.1938V23.4248H61.7728C61.8571 23.9458 61.891 24.4737 61.8739 25.0012C61.9272 26.093 61.7586 27.1842 61.3783 28.2089C60.9979 29.2336 60.4137 30.1706 59.6609 30.9631C58.824 31.8345 57.8128 32.5198 56.6932 32.9742C55.5737 33.4286 54.371 33.642 53.1635 33.6005ZM73.1106 31.8827C71.9592 32.9863 70.426 33.6025 68.8311 33.6025C67.2362 33.6025 65.703 32.9863 64.5517 31.8827C63.9786 31.327 63.5273 30.6583 63.2264 29.919C62.9254 29.1797 62.7815 28.386 62.8035 27.5881C62.7821 26.7903 62.9263 25.9967 63.2272 25.2574C63.5281 24.5182 63.9791 23.8495 64.5517 23.2935C65.7042 22.1922 67.237 21.5776 68.8311 21.5776C70.4253 21.5776 71.958 22.1922 73.1106 23.2935C73.6831 23.8495 74.1341 24.5182 74.435 25.2574C74.7359 25.9967 74.8802 26.7903 74.8587 27.5881C74.8795 28.3867 74.7339 29.1809 74.4312 29.9203C74.1285 30.6596 73.6753 31.3279 73.1004 31.8827H73.1106ZM66.4413 30.1951C66.7476 30.5222 67.1177 30.7829 67.5287 30.9611C67.9398 31.1394 68.3831 31.2313 68.8311 31.2313C69.2792 31.2313 69.7224 31.1394 70.1335 30.9611C70.5446 30.7829 70.9147 30.5222 71.2209 30.1951C71.5549 29.85 71.8163 29.4416 71.9898 28.9938C72.1634 28.546 72.2455 28.0681 72.2314 27.5881C72.2463 27.1065 72.1646 26.6267 71.991 26.1772C71.8175 25.7277 71.5556 25.3175 71.2209 24.9709C70.9106 24.6472 70.5381 24.3896 70.1256 24.2137C69.7132 24.0377 69.2694 23.947 68.821 23.947C68.3726 23.947 67.9289 24.0377 67.5164 24.2137C67.104 24.3896 66.7314 24.6472 66.4211 24.9709C66.0864 25.3175 65.8246 25.7277 65.651 26.1772C65.4775 26.6267 65.3957 27.1065 65.4106 27.5881C65.3978 28.0688 65.4816 28.5472 65.6569 28.995C65.8322 29.4428 66.0955 29.8509 66.4312 30.1951H66.4413ZM86.2671 31.8827C85.1158 32.9863 83.5826 33.6025 81.9877 33.6025C80.3928 33.6025 78.8596 32.9863 77.7083 31.8827C77.1352 31.327 76.6839 30.6583 76.383 29.919C76.082 29.1797 75.938 28.386 75.9601 27.5881C75.9387 26.7903 76.0829 25.9967 76.3838 25.2574C76.6847 24.5182 77.1357 23.8495 77.7083 23.2935C78.8596 22.1898 80.3928 21.5737 81.9877 21.5737C83.5826 21.5737 85.1158 22.1898 86.2671 23.2935C86.8397 23.8495 87.2907 24.5182 87.5916 25.2574C87.8925 25.9967 88.0368 26.7903 88.0153 27.5881C88.0374 28.386 87.8934 29.1797 87.5925 29.919C87.2915 30.6583 86.8402 31.327 86.2671 31.8827ZM79.5979 30.1951C79.9041 30.5222 80.2743 30.7829 80.6853 30.9611C81.0964 31.1394 81.5397 31.2313 81.9877 31.2313C82.4358 31.2313 82.879 31.1394 83.2901 30.9611C83.7012 30.7829 84.0713 30.5222 84.3775 30.1951C84.7114 29.85 84.9729 29.4416 85.1464 28.9938C85.32 28.546 85.4021 28.0681 85.388 27.5881C85.4029 27.1065 85.3212 26.6267 85.1476 26.1772C84.9741 25.7277 84.7122 25.3175 84.3775 24.9709C84.0672 24.6472 83.6947 24.3896 83.2822 24.2137C82.8698 24.0377 82.426 23.947 81.9776 23.947C81.5292 23.947 81.0854 24.0377 80.673 24.2137C80.2606 24.3896 79.888 24.6472 79.5777 24.9709C79.243 25.3175 78.9812 25.7277 78.8076 26.1772C78.6341 26.6267 78.5523 27.1065 78.5672 27.5881C78.5544 28.0688 78.6382 28.5472 78.8135 28.995C78.9888 29.4428 79.2521 29.8509 79.5878 30.1951H79.5979ZM94.917 38.9965C93.7058 39.035 92.518 38.657 91.552 37.9254C90.6943 37.2806 90.0188 36.424 89.5917 35.4396L91.8956 34.4796C92.1463 35.0679 92.5386 35.5851 93.0374 35.9853C93.5714 36.4157 94.2415 36.6414 94.9271 36.6219C95.3618 36.6483 95.7971 36.5808 96.2034 36.4238C96.6097 36.2669 96.9774 36.0243 97.2815 35.7124C97.8903 34.9781 98.1909 34.0364 98.1202 33.0851V32.2161H98.0293C97.6442 32.6735 97.1579 33.0349 96.6089 33.2716C96.0599 33.5084 95.4633 33.6141 94.8664 33.5803C94.1077 33.5826 93.3568 33.4275 92.6611 33.1249C91.9654 32.8222 91.34 32.3786 90.8245 31.822C90.265 31.2699 89.8235 30.6099 89.5264 29.8822C89.2294 29.1544 89.0832 28.374 89.0965 27.5881C89.0826 26.7976 89.2284 26.0124 89.5254 25.2796C89.8223 24.5468 90.2641 23.8816 90.8245 23.3238C91.3387 22.7649 91.9637 22.3191 92.6595 22.0146C93.3553 21.7102 94.1069 21.5538 94.8664 21.5554C95.5092 21.5543 96.1442 21.6958 96.7257 21.9697C97.2288 22.1894 97.6773 22.5172 98.0394 22.9297H98.1303V21.9697H100.636V32.7315C100.702 33.5828 100.594 34.4386 100.318 35.2466C100.041 36.0545 99.6031 36.7976 99.0296 37.4303C98.4835 37.9528 97.8382 38.3606 97.1318 38.6296C96.4254 38.8986 95.6723 39.0234 94.917 38.9965ZM95.0988 31.2359C95.5303 31.2454 95.9586 31.1598 96.3533 30.9852C96.748 30.8105 97.0994 30.5512 97.3825 30.2255C98.006 29.511 98.3347 28.5863 98.3021 27.6386C98.3395 26.6749 98.011 25.7327 97.3825 25.0012C97.0998 24.675 96.7485 24.4152 96.3537 24.2405C95.9589 24.0658 95.5304 23.9805 95.0988 23.9907C94.6556 23.9816 94.2154 24.067 93.8077 24.2413C93.4 24.4155 93.0341 24.6746 92.7343 25.0012C92.0659 25.7064 91.7027 26.6469 91.7238 27.6184C91.7135 28.0949 91.7975 28.5687 91.9709 29.0126C92.1443 29.4566 92.4038 29.8619 92.7343 30.2052C93.0327 30.5351 93.3978 30.7976 93.8055 30.9753C94.2133 31.153 94.6541 31.2418 95.0988 31.2359ZM105.093 15.5733V33.2367H102.455V15.5733H105.093ZM112.328 33.6005C111.538 33.6208 110.752 33.4778 110.02 33.1805C109.288 32.8831 108.626 32.4379 108.074 31.8726C107.513 31.3114 107.073 30.6422 106.78 29.9057C106.486 29.1692 106.345 28.3807 106.366 27.5881C106.336 26.7935 106.466 26.0011 106.749 25.258C107.032 24.515 107.462 23.8366 108.013 23.2632C108.532 22.716 109.16 22.2832 109.856 21.9926C110.552 21.702 111.301 21.56 112.055 21.5756C112.748 21.5683 113.436 21.7024 114.076 21.9697C114.652 22.2024 115.177 22.5457 115.622 22.9802C116.004 23.3486 116.342 23.7588 116.632 24.2029C116.867 24.5779 117.066 24.9737 117.229 25.3852L117.501 26.0723L109.417 29.3969C109.662 29.9586 110.071 30.4331 110.59 30.7578C111.11 31.0825 111.716 31.2421 112.328 31.2157C112.923 31.2174 113.509 31.0646 114.028 30.7724C114.547 30.4802 114.981 30.0585 115.288 29.5484L117.309 30.9126C116.794 31.6505 116.134 32.2761 115.369 32.7517C114.46 33.326 113.403 33.6211 112.328 33.6005ZM108.953 27.4062L114.328 25.173C114.163 24.7792 113.867 24.4545 113.49 24.2535C113.068 24.0151 112.59 23.8931 112.105 23.8998C111.283 23.9211 110.502 24.2661 109.933 24.8597C109.592 25.1858 109.328 25.5832 109.158 26.0234C108.989 26.4636 108.918 26.9357 108.953 27.4062Z" fill="#5F6368"/>
<path d="M131.313 33.6006C130.191 33.62 129.077 33.4125 128.038 32.9906C126.999 32.5687 126.055 31.9412 125.264 31.1456C124.473 30.35 123.851 29.4028 123.436 28.3608C123.02 27.3189 122.819 26.2037 122.845 25.0822C122.819 23.9607 123.02 22.8455 123.436 21.8035C123.851 20.7616 124.473 19.8144 125.264 19.0188C126.055 18.2232 126.999 17.5956 128.038 17.1737C129.077 16.7519 130.191 16.5444 131.313 16.5637C132.448 16.5282 133.577 16.7497 134.615 17.2117C135.652 17.6736 136.572 18.3641 137.305 19.2314L135.85 20.6461C135.312 19.969 134.621 19.4285 133.835 19.0685C133.048 18.7086 132.188 18.5393 131.323 18.5746C130.491 18.5559 129.664 18.7055 128.891 19.0146C128.118 19.3237 127.416 19.7859 126.826 20.3733C126.213 20.9897 125.735 21.7262 125.42 22.5366C125.105 23.3469 124.961 24.2136 124.997 25.0822C124.961 25.9508 125.105 26.8174 125.42 27.6278C125.735 28.4381 126.213 29.1747 126.826 29.7911C127.416 30.3785 128.118 30.8406 128.891 31.1497C129.664 31.4588 130.491 31.6085 131.323 31.5897C132.289 31.6006 133.245 31.3936 134.119 30.9842C134.994 30.5749 135.765 29.9736 136.376 29.2252L137.831 30.6803C137.069 31.5913 136.112 32.3199 135.032 32.8124C133.867 33.3503 132.596 33.6196 131.313 33.6006Z" fill="#5F6368"/>
<path d="M141.743 33.2369H139.651V16.9175H141.743V33.2369Z" fill="#5F6368"/>
<path d="M145.158 23.4146C146.254 22.3261 147.736 21.7152 149.28 21.7152C150.825 21.7152 152.307 22.3261 153.403 23.4146C153.939 23.9805 154.358 24.6468 154.635 25.3752C154.913 26.1035 155.044 26.8796 155.02 27.6587C155.044 28.4377 154.913 29.2138 154.635 29.9422C154.358 30.6705 153.939 31.3368 153.403 31.9027C152.307 32.9912 150.825 33.6021 149.28 33.6021C147.736 33.6021 146.254 32.9912 145.158 31.9027C144.622 31.3368 144.203 30.6705 143.925 29.9422C143.648 29.2138 143.517 28.4377 143.541 27.6587C143.517 26.8796 143.648 26.1035 143.925 25.3752C144.203 24.6468 144.622 23.9805 145.158 23.4146ZM146.714 30.5891C147.043 30.9374 147.44 31.2148 147.881 31.4044C148.321 31.594 148.796 31.6918 149.275 31.6918C149.755 31.6918 150.229 31.594 150.67 31.4044C151.11 31.2148 151.507 30.9374 151.837 30.5891C152.203 30.1968 152.486 29.7356 152.672 29.2325C152.858 28.7294 152.941 28.1944 152.918 27.6587C152.941 27.1229 152.858 26.5879 152.672 26.0848C152.486 25.5817 152.203 25.1206 151.837 24.7282C151.507 24.3799 151.11 24.1025 150.67 23.9129C150.229 23.7233 149.755 23.6255 149.275 23.6255C148.796 23.6255 148.321 23.7233 147.881 23.9129C147.44 24.1025 147.043 24.3799 146.714 24.7282C146.348 25.1206 146.064 25.5817 145.879 26.0848C145.693 26.5879 145.609 27.1229 145.632 27.6587C145.612 28.1934 145.698 28.727 145.885 29.2283C146.073 29.7296 146.358 30.1887 146.724 30.579L146.714 30.5891Z" fill="#5F6368"/>
<path d="M166.612 33.2364H164.591V31.6903H164.531C164.171 32.2775 163.662 32.7587 163.055 33.0848C162.426 33.4496 161.711 33.6413 160.984 33.6406C160.393 33.681 159.801 33.5875 159.252 33.367C158.702 33.1465 158.21 32.8048 157.811 32.3674C157.045 31.3992 156.661 30.1842 156.73 28.9519V22.0806H158.821V28.5679C158.821 30.6495 159.741 31.6903 161.58 31.6903C161.989 31.7031 162.394 31.618 162.764 31.4423C163.133 31.2665 163.454 31.0051 163.702 30.6798C164.244 29.9927 164.533 29.1399 164.521 28.2648V22.0806H166.612V33.2364Z" fill="#5F6368"/>
<path d="M173.713 33.6007C173.003 33.603 172.302 33.4516 171.656 33.1568C171.011 32.862 170.437 32.4308 169.974 31.893C168.926 30.7359 168.365 29.2193 168.408 27.659C168.365 26.0987 168.926 24.5821 169.974 23.425C170.437 22.8872 171.011 22.456 171.656 22.1612C172.302 21.8664 173.003 21.715 173.713 21.7173C174.508 21.7048 175.293 21.8924 175.997 22.263C176.615 22.574 177.138 23.0451 177.512 23.6271H177.603L177.512 22.0811V16.9175H179.604V33.2369H177.583V31.6909H177.492C177.118 32.2729 176.594 32.744 175.976 33.055C175.279 33.4223 174.501 33.6099 173.713 33.6007ZM174.056 31.6909C174.529 31.6977 174.998 31.604 175.432 31.4158C175.866 31.2277 176.255 30.9494 176.573 30.5995C177.283 29.7905 177.646 28.7339 177.583 27.659C177.646 26.5841 177.283 25.5275 176.573 24.7185C176.252 24.3667 175.862 24.0856 175.427 23.8933C174.992 23.701 174.522 23.6016 174.046 23.6016C173.571 23.6016 173.1 23.701 172.665 23.8933C172.23 24.0856 171.84 24.3667 171.52 24.7185C171.167 25.1164 170.896 25.5801 170.723 26.083C170.549 26.5858 170.477 27.118 170.51 27.6489C170.477 28.1798 170.549 28.712 170.723 29.2148C170.896 29.7177 171.167 30.1814 171.52 30.5793C171.839 30.9355 172.23 31.219 172.667 31.4108C173.105 31.6026 173.579 31.6981 174.056 31.6909Z" fill="#5F6368"/>
</svg>
