<svg width="117" height="39" viewBox="0 0 117 39" fill="none" xmlns="http://www.w3.org/2000/svg">
<path d="M28.7599 13.5455H15.1095V17.596H24.7903C24.3121 23.276 19.5865 25.6983 15.1259 25.6983C9.41894 25.6983 4.43909 21.2081 4.43909 14.9145C4.43909 8.7836 9.1862 4.06193 15.1385 4.06193C19.7307 4.06193 22.4368 6.98941 22.4368 6.98941L25.2729 4.0525C25.2729 4.0525 21.6326 0 14.9935 0C6.54025 0 0 7.13526 0 14.8423C0 22.3943 6.15227 29.7586 15.2094 29.7586C23.1757 29.7586 29.007 24.3014 29.007 16.232C29.007 14.5295 28.7599 13.5455 28.7599 13.5455Z" fill="#4285F4"/>
<path d="M39.942 10.6123C34.341 10.6123 30.327 14.9911 30.327 20.0982C30.327 25.2807 34.2203 29.741 40.0078 29.741C45.247 29.741 49.5392 25.7366 49.5392 20.2096C49.5392 13.8748 44.5464 10.6123 39.942 10.6123ZM39.9977 14.3692C42.7521 14.3692 45.3621 16.596 45.3621 20.1842C45.3621 23.6964 42.7631 25.9867 39.985 25.9867C36.9325 25.9867 34.5244 23.5419 34.5244 20.1564C34.5244 16.8435 36.9026 14.3692 39.9977 14.3692Z" fill="#EA4335"/>
<path d="M60.8541 10.6123C55.2531 10.6123 51.2391 14.9911 51.2391 20.0982C51.2391 25.2807 55.1324 29.741 60.9199 29.741C66.1591 29.741 70.4514 25.7366 70.4514 20.2096C70.4514 13.8748 65.4585 10.6123 60.8541 10.6123ZM60.9098 14.3692C63.6642 14.3692 66.2742 16.596 66.2742 20.1842C66.2742 23.6964 63.6752 25.9867 60.8971 25.9867C57.8446 25.9867 55.4365 23.5419 55.4365 20.1564C55.4365 16.8435 57.8147 14.3692 60.9098 14.3692Z" fill="#FBBC05"/>
<path d="M81.3639 10.6226C76.2228 10.6226 72.1818 15.1254 72.1818 20.1793C72.1818 25.9363 76.8667 29.7538 81.2753 29.7538C84.0012 29.7538 85.4507 28.6718 86.5208 27.4298V29.3159C86.5208 32.6157 84.5171 34.5917 81.493 34.5917C78.5715 34.5917 77.1061 32.4194 76.5969 31.1867L72.921 32.7234C74.2251 35.4806 76.8501 38.3562 81.5233 38.3562C86.6349 38.3562 90.5308 35.1365 90.5308 28.3842V11.1972H86.5208V12.8175C85.2886 11.4889 83.6025 10.6226 81.3639 10.6226ZM81.736 14.3719C84.2566 14.3719 86.8448 16.524 86.8448 20.1996C86.8448 23.9354 84.2621 25.9944 81.6803 25.9944C78.9395 25.9944 76.3893 23.7689 76.3893 20.235C76.3893 16.563 79.0379 14.3719 81.736 14.3719Z" fill="#4285F4"/>
<path d="M108.361 10.6001C103.511 10.6001 99.4395 14.4584 99.4395 20.1518C99.4395 26.1761 103.978 29.7491 108.827 29.7491C112.873 29.7491 115.357 27.5352 116.839 25.5517L113.533 23.3517C112.675 24.6832 111.241 25.9846 108.847 25.9846C106.158 25.9846 104.922 24.5123 104.156 23.0859L116.981 17.7645L116.315 16.205C115.076 13.151 112.185 10.6001 108.361 10.6001ZM108.528 14.2785C110.275 14.2785 111.533 15.2076 112.067 16.3215L103.503 19.9012C103.133 17.1298 105.759 14.2785 108.528 14.2785Z" fill="#EA4335"/>
<path d="M93.3257 29.1806H97.5383V0.98877H93.3257V29.1806Z" fill="#34A853"/>
</svg>
