<svg width="78" height="74" viewBox="0 0 78 74" fill="none" xmlns="http://www.w3.org/2000/svg">
<g id="Vector">
<path d="M11.6729 32.0252C11.5562 33.05 11.4082 34.0349 11.3455 35.0227C11.2829 36.0105 11.2658 37.0496 11.2914 38.063C11.3485 39.8558 11.5908 41.6378 12.0145 43.3807C13.5028 49.613 17.1065 55.1363 22.2114 59.009C24.1356 60.4704 26.2406 61.6769 28.4741 62.5987C31.7817 63.9536 35.3216 64.6508 38.8959 64.6512C39.0248 64.6415 39.1543 64.6591 39.276 64.703C39.3976 64.7468 39.5085 64.8159 39.6016 64.9057C39.6946 64.9955 39.7676 65.104 39.8157 65.224C39.8638 65.344 39.886 65.4728 39.8809 65.602C39.8824 65.721 39.86 65.8392 39.815 65.9494C39.77 66.0596 39.7033 66.1597 39.6188 66.2436C39.5344 66.3275 39.4339 66.3936 39.3234 66.4379C39.2129 66.4822 39.0946 66.5039 38.9756 66.5016C37.7088 66.4418 36.4392 66.3849 35.1753 66.2568C33.31 66.0481 31.4727 65.6386 29.6953 65.0355C25.9771 63.8046 22.5397 61.8487 19.5821 59.281C16.6244 56.7133 14.2052 53.5847 12.4643 50.0761C10.9051 46.9469 9.92344 43.562 9.56634 40.0842C9.38701 38.3411 9.35842 36.5857 9.48092 34.8377C9.58154 33.3918 9.79282 31.9557 10.1129 30.542C10.1387 30.3971 10.1985 30.2603 10.2873 30.1428C10.376 30.0254 10.4913 29.9306 10.6237 29.8662C10.7561 29.8018 10.9019 29.7696 11.0491 29.7723C11.1963 29.775 11.3408 29.8124 11.4708 29.8816C11.8693 30.0609 12.265 30.2488 12.6692 30.4196C12.8379 30.4992 13.0266 30.5263 13.2109 30.4974C13.3951 30.4684 13.5664 30.3848 13.7026 30.2574C13.8286 30.1472 13.9219 30.0044 13.9721 29.8447C14.0223 29.685 14.0276 29.5146 13.9873 29.3521C13.8734 28.5123 13.8022 27.664 13.7168 26.8185L13.3923 23.5676C13.2784 22.4403 13.1636 21.314 13.0478 20.1886C12.9881 19.5993 12.9397 19.01 12.8742 18.4208C12.8087 17.8315 12.5383 17.5127 12.0202 17.4529C11.6816 17.4502 11.3551 17.5787 11.1092 17.8116C9.40122 19.0452 7.6932 20.2787 5.98518 21.5123L2.25031 24.2081C2.11806 24.3053 2.01373 24.4355 1.94785 24.5858C1.88197 24.7361 1.85686 24.9011 1.87505 25.0642C1.89323 25.2272 1.95407 25.3827 2.05144 25.5147C2.1488 25.6468 2.27925 25.7509 2.42965 25.8165C3.06162 26.1012 3.69359 26.3859 4.33125 26.6705C4.96891 26.9552 5.18526 27.348 4.99168 28.0284C4.47616 29.9759 4.13228 31.9648 3.96401 33.9723C3.81178 35.6409 3.7861 37.3186 3.88716 38.991C3.99398 40.7945 4.23663 42.5873 4.61307 44.3542C5.9762 50.7154 9.08651 56.5702 13.5944 61.2608C14.0869 61.7732 14.5737 62.2941 15.1032 62.7695C17.3953 64.857 19.9413 66.6475 22.6811 68.0986C27.9883 70.8762 33.9186 72.2482 39.9065 72.0839C41.4856 72.0523 43.0602 71.9048 44.6178 71.6427C44.8626 71.6 45.1074 71.5545 45.3551 71.5203C45.4781 71.4989 45.6042 71.5024 45.7259 71.5307C45.8475 71.559 45.9622 71.6115 46.0632 71.6851C46.1641 71.7587 46.2492 71.8518 46.3134 71.959C46.3776 72.0662 46.4196 72.1851 46.4368 72.3088C46.4555 72.426 46.4508 72.5458 46.4231 72.6612C46.3954 72.7766 46.3452 72.8854 46.2754 72.9814C46.2056 73.0774 46.1176 73.1587 46.0163 73.2206C45.915 73.2825 45.8025 73.3238 45.6853 73.3422C44.8313 73.4931 43.9773 73.6269 43.1233 73.7293C41.1856 73.9527 39.233 74.0184 37.2847 73.9258C35.4903 73.8436 33.7044 73.6296 31.9414 73.2853C29.8894 72.8913 27.8744 72.3246 25.9178 71.5915C23.9115 70.8376 21.9758 69.9079 20.1333 68.8131C15.5984 66.1345 11.6874 62.5187 8.66192 58.2075C5.6364 53.8963 3.56599 48.9889 2.58907 43.8134C2.2585 42.0167 2.05682 40.1987 1.98557 38.3733C1.92338 36.7848 1.96522 35.1938 2.11082 33.6108C2.26294 31.8683 2.54845 30.14 2.96483 28.4412C3.01607 28.2277 3.00752 28.0967 2.77409 28.0056C2.39263 27.8547 2.02256 27.6754 1.63541 27.5074C1.19535 27.3081 0.814719 26.9977 0.530942 26.6068C0.247166 26.2158 0.0700176 25.7577 0.016889 25.2776C-0.0362396 24.7974 0.0364834 24.3117 0.227924 23.8681C0.419365 23.4246 0.722933 23.0385 1.10878 22.7478C4.17942 20.5065 7.2624 18.2832 10.3577 16.0779C10.8838 15.7127 11.5212 15.5432 12.1592 15.5988C12.7973 15.6545 13.3957 15.9318 13.8506 16.3825C14.3803 16.915 14.6937 17.625 14.7302 18.3752C14.8897 20.0235 15.0662 21.6689 15.2341 23.3171C15.3793 24.7405 15.5188 26.1496 15.6611 27.5672C15.7152 28.0967 15.7721 28.6234 15.8205 29.15C15.88 29.5449 15.8552 29.948 15.7477 30.3327C15.6403 30.7173 15.4526 31.0749 15.1971 31.3818C14.8144 31.846 14.2904 32.1723 13.7051 32.311C13.1197 32.4498 12.505 32.3934 11.9547 32.1504C11.8835 32.102 11.8124 32.0793 11.6729 32.0252Z" fill="url(#paint0_linear_1_616)"/>
<path d="M66.2982 41.4961C66.3836 40.7788 66.4975 40.0927 66.5402 39.401C66.6029 38.3562 66.6598 37.3087 66.637 36.2696C66.5822 33.5912 66.1303 30.9358 65.2962 28.3899C63.7612 23.6888 60.9971 19.4837 57.2901 16.2102C53.5832 12.9368 49.0684 10.7141 44.2135 9.77251C42.4945 9.43785 40.7468 9.27291 38.9955 9.28004C38.8733 9.28004 38.7522 9.25596 38.6393 9.20918C38.5264 9.1624 38.4237 9.09383 38.3373 9.00739C38.2509 8.92095 38.1823 8.81834 38.1355 8.7054C38.0887 8.59246 38.0647 8.4714 38.0647 8.34916C38.0647 8.22692 38.0887 8.10588 38.1355 7.99294C38.1823 7.88 38.2509 7.77739 38.3373 7.69095C38.4237 7.60451 38.5264 7.53594 38.6393 7.48916C38.7522 7.44237 38.8733 7.4183 38.9955 7.4183C39.7499 7.44107 40.51 7.4183 41.2729 7.5037C42.3717 7.61757 43.4705 7.7656 44.558 7.95348C45.9909 8.21424 47.3993 8.59514 48.7682 9.09216C52.7206 10.4861 56.3324 12.7026 59.3649 15.5954C62.3975 18.4881 64.782 21.9912 66.3609 25.8735C67.1859 27.9065 67.7816 30.0252 68.1372 32.1903C68.522 34.4529 68.6233 36.7546 68.4389 39.0423C68.3251 40.3717 68.1002 41.6926 67.8952 43.0277C67.874 43.1689 67.8199 43.3031 67.7371 43.4194C67.6543 43.5357 67.5452 43.6309 67.4188 43.6971C67.2923 43.7634 67.152 43.7989 67.0093 43.8008C66.8665 43.8027 66.7253 43.7709 66.5971 43.708C66.116 43.5002 65.6406 43.2867 65.1738 43.0618C65.0106 42.9639 64.8219 42.9168 64.6318 42.9264C64.4417 42.9361 64.2588 43.002 64.1063 43.1159C63.9598 43.2295 63.8488 43.3825 63.7862 43.5569C63.7237 43.7314 63.7123 43.9201 63.7533 44.1009C63.8273 44.6702 63.8558 45.2623 63.9155 45.8431C64.0835 47.4401 64.2628 49.0342 64.428 50.6284C64.5447 51.73 64.6472 52.8317 64.7553 53.9334C64.7923 54.3262 64.8237 54.7191 64.8664 55.1119C64.8769 55.2777 64.9318 55.4377 65.0253 55.5751C65.1187 55.7124 65.2474 55.8222 65.3978 55.8928C65.5481 55.9635 65.7147 55.9925 65.8801 55.9768C66.0455 55.9612 66.2037 55.9014 66.3381 55.8037C67.4768 54.9952 68.6154 54.164 69.7541 53.3413C71.6386 51.9805 73.5222 50.6189 75.4049 49.2563C76.0738 48.7695 75.9742 47.9468 75.234 47.5938C74.7131 47.3518 74.1893 47.1155 73.6598 46.8906C73.5315 46.8533 73.4123 46.7899 73.3097 46.7043C73.2071 46.6188 73.1232 46.513 73.0633 46.3935C73.0035 46.2741 72.9689 46.1436 72.9618 46.0102C72.9548 45.8767 72.9753 45.7433 73.0222 45.6182C73.9958 41.722 74.3028 37.6891 73.9302 33.6905C73.7232 31.4289 73.2951 29.1931 72.6521 27.015C72.1332 25.2571 71.4744 23.5437 70.6822 21.8909C68.2695 16.819 64.6759 12.3996 60.2027 9.00324C55.7295 5.60686 50.5072 3.33256 44.9736 2.37109C42.4435 1.92329 39.8702 1.76855 37.3046 1.90992C35.9211 1.98678 34.5404 2.19459 33.1626 2.35116C32.394 2.44795 31.8475 1.98394 31.9528 1.27226C31.9879 1.07668 32.0844 0.897356 32.2282 0.76021C32.372 0.623063 32.5557 0.535209 32.7527 0.509351C35.25 0.0758008 37.7875 -0.0817221 40.3192 0.0396384C41.8081 0.13358 43.2912 0.295839 44.7743 0.463794C45.4262 0.537808 46.0696 0.708622 46.7158 0.83103C48.3627 1.15829 49.9809 1.61615 51.5552 2.20029C54.8988 3.40803 58.0489 5.09576 60.9066 7.21048C65.5859 10.6554 69.3891 15.1529 72.0087 20.3395C75.7698 27.7965 76.8917 36.3083 75.1913 44.4852C75.1401 44.7272 75.1088 44.9777 75.0348 45.2139C74.9778 45.3876 75.0348 45.4559 75.1828 45.5242C75.6131 45.6936 76.0299 45.8954 76.4297 46.1277C76.8176 46.3734 77.1386 46.7114 77.364 47.1115C77.5894 47.5116 77.712 47.9613 77.7211 48.4205C77.7301 48.8796 77.6252 49.3338 77.4157 49.7424C77.2063 50.1511 76.8987 50.5014 76.5207 50.7622C73.7594 52.7548 70.9972 54.7475 68.234 56.7402C67.7962 57.0952 67.3185 57.3981 66.8106 57.6426C66.4197 57.8025 65.9971 57.87 65.5757 57.8399C65.1544 57.8099 64.7457 57.6831 64.3813 57.4694C64.017 57.2557 63.7068 56.9608 63.4749 56.6077C63.2431 56.2547 63.0958 55.8529 63.0445 55.4336C62.9306 54.6109 62.8737 53.7797 62.7883 52.9513C62.6801 51.9179 62.569 50.8874 62.4637 49.8541C62.3812 49.0171 62.3129 48.1802 62.2275 47.3461C62.1392 46.4665 62.0367 45.5897 61.9428 44.7101C61.8745 44.0724 61.8005 43.4404 62.0567 42.8113C62.1965 42.4659 62.4039 42.1519 62.6667 41.8877C62.9296 41.6235 63.2425 41.4144 63.5873 41.2728C63.932 41.1312 64.3015 41.0599 64.6742 41.0631C65.0468 41.0662 65.4151 41.1438 65.7574 41.2912L66.2982 41.4961Z" fill="url(#paint1_linear_1_616)"/>
<path d="M33.7861 21.8055C33.5242 22.224 33.285 22.6311 33.0203 23.0182C32.9319 23.1561 32.793 23.254 32.6334 23.2907C32.4737 23.3274 32.306 23.3001 32.1663 23.2146C31.8247 23.0381 31.5058 22.8104 31.15 22.6624C29.6441 22.0389 28.1183 21.9365 26.6266 22.6908C25.4424 23.2915 24.799 24.3277 24.5343 25.5945C24.2069 26.9415 24.3579 28.3603 24.9613 29.6083C25.6359 30.952 26.7746 31.6466 28.2321 31.8601C29.2896 32.0204 30.3708 31.8588 31.335 31.3961C31.3774 31.3769 31.4149 31.3486 31.445 31.3131C31.475 31.2777 31.4968 31.236 31.5087 31.1911C31.5087 30.4282 31.5087 29.6653 31.5087 28.8653H30.8027C30.4782 28.8653 30.1508 28.8653 29.8234 28.8653C29.7475 28.8742 29.6706 28.8653 29.5987 28.8395C29.5267 28.8137 29.4618 28.7715 29.4088 28.7164C29.3559 28.6612 29.3164 28.5946 29.2935 28.5217C29.2706 28.4487 29.265 28.3715 29.2769 28.296V26.9723H33.8031C33.8031 28.7515 33.8031 30.525 33.8031 32.2985C33.7949 32.3552 33.7753 32.4097 33.7455 32.4586C33.7156 32.5075 33.6762 32.5499 33.6295 32.5831C32.427 33.4255 31.001 33.8913 29.5331 33.9211C27.9748 34.0305 26.4183 33.6854 25.0524 32.9276C24.3137 32.5196 23.667 31.9637 23.1527 31.2947C22.6385 30.6256 22.2676 29.8577 22.0633 29.039C21.5424 27.0463 21.6904 25.0849 22.7266 23.263C23.7628 21.4411 25.468 20.4163 27.5461 20.1317C28.9066 19.9112 30.3004 20.0275 31.6055 20.4704C32.4183 20.7567 33.1615 21.2117 33.7861 21.8055Z" fill="url(#paint2_linear_1_616)"/>
<path d="M49.702 37.1179C49.9655 37.0928 50.2302 37.1524 50.4575 37.2881C50.6848 37.4238 50.8629 37.6284 50.9659 37.8723C51.0661 38.1028 51.0925 38.3587 51.0416 38.6049C50.9906 38.8511 50.8647 39.0754 50.6812 39.2473C49.5426 40.3859 48.4039 41.5246 47.2652 42.6633L33.9654 55.9602C33.119 56.8047 32.2763 57.6493 31.4375 58.4938C31.3197 58.613 31.1794 58.7076 31.0247 58.7722C30.8701 58.8368 30.7041 58.8701 30.5365 58.8701C30.3689 58.8701 30.203 58.8368 30.0483 58.7722C29.8937 58.7076 29.7534 58.613 29.6356 58.4938C29.5217 58.3766 29.4321 58.2381 29.3717 58.0863C29.3114 57.9345 29.2816 57.7722 29.284 57.6089C29.2864 57.4455 29.3209 57.2842 29.3856 57.1342C29.4503 56.9842 29.544 56.8484 29.6612 56.7345L48.902 37.4965C49.1083 37.2697 49.3958 37.1336 49.702 37.1179Z" fill="url(#paint3_linear_1_616)"/>
<path d="M35.1752 32.1106C35.3944 31.7547 35.6108 31.3875 35.8442 31.0288C36.1289 30.5705 36.4847 30.5079 36.9544 30.7869C37.4554 31.1116 37.9808 31.3972 38.5258 31.6409C38.9165 31.801 39.3359 31.879 39.7581 31.8702C40.1802 31.8614 40.596 31.7659 40.9797 31.5896C41.2002 31.4788 41.396 31.3244 41.5552 31.1359C41.7144 30.9473 41.8338 30.7285 41.9062 30.4925C41.9785 30.2566 42.0024 30.0084 41.9762 29.763C41.9501 29.5176 41.8744 29.28 41.754 29.0646C41.5123 28.7035 41.1549 28.4355 40.7405 28.3045C40.0659 28.0597 39.3741 27.8633 38.6938 27.6299C37.9365 27.3708 37.2021 27.0748 36.6271 26.4912C36.1824 26.0407 35.8846 25.4661 35.7731 24.8429C35.3631 22.5428 36.6555 20.7295 38.7137 20.2228C39.5452 19.9956 40.4164 19.9544 41.2656 20.102C42.1148 20.2496 42.921 20.5824 43.6271 21.0768C44.1224 21.4184 44.1196 21.4241 43.8435 21.9507C43.7182 22.1927 43.5929 22.4375 43.4563 22.6738C43.4214 22.7579 43.3678 22.833 43.2996 22.8933C43.2313 22.9537 43.1503 22.9978 43.0625 23.0222C42.9747 23.0466 42.8826 23.0507 42.793 23.0342C42.7034 23.0178 42.6187 22.9811 42.5454 22.9271C42.2607 22.7819 42.013 22.6111 41.7397 22.4717C41.3319 22.2583 40.8842 22.1322 40.4249 22.1013C39.9657 22.0704 39.5051 22.1355 39.0724 22.2923C38.8689 22.368 38.6834 22.4855 38.5281 22.6372C38.3728 22.7889 38.2509 22.9715 38.1705 23.1732C38.09 23.3749 38.0527 23.5912 38.061 23.8082C38.0692 24.0252 38.1228 24.238 38.2184 24.433C38.422 24.786 38.7451 25.0546 39.1293 25.1903C39.7186 25.4265 40.3278 25.6059 40.9114 25.845C41.6058 26.088 42.2781 26.3899 42.9211 26.7474C43.963 27.3936 44.3815 28.4127 44.3445 29.6254C44.2762 31.5071 43.4108 32.8536 41.6543 33.5795C40.7533 33.9282 39.7758 34.0314 38.8219 33.8784C37.4822 33.7296 36.2263 33.1525 35.2407 32.233C35.2175 32.2086 35.1956 32.1829 35.1752 32.1561C35.1752 32.1561 35.1809 32.1419 35.1752 32.1106Z" fill="url(#paint4_linear_1_616)"/>
<path d="M46.5023 59.3563C45.5052 59.3563 44.5306 59.0603 43.7019 58.5058C42.8732 57.9514 42.2278 57.1634 41.8474 56.2417C41.467 55.32 41.3688 54.3062 41.5652 53.3286C41.7616 52.3511 42.2437 51.4538 42.9506 50.7506C43.6574 50.0474 44.5571 49.5698 45.5356 49.3784C46.5142 49.187 47.5275 49.2904 48.4472 49.6754C49.3669 50.0605 50.1516 50.71 50.7019 51.5415C51.2521 52.373 51.5432 53.3491 51.5381 54.3462C51.5328 55.6778 50.9997 56.9529 50.0558 57.8921C49.1118 58.8313 47.8339 59.3579 46.5023 59.3563ZM46.4795 56.8769C46.9862 56.8769 47.4816 56.7266 47.9029 56.4451C48.3242 56.1636 48.6526 55.7634 48.8465 55.2953C49.0404 54.8271 49.0912 54.312 48.9923 53.815C48.8935 53.318 48.6494 52.8615 48.2911 52.5032C47.9328 52.1449 47.4763 51.9009 46.9793 51.802C46.4823 51.7032 45.9672 51.7539 45.4991 51.9478C45.0309 52.1417 44.6308 52.4701 44.3493 52.8915C44.0677 53.3128 43.9175 53.8081 43.9175 54.3148C43.9175 54.9943 44.1874 55.646 44.6679 56.1265C45.1483 56.6069 45.8 56.8769 46.4795 56.8769Z" fill="url(#paint5_linear_1_616)"/>
<path d="M39.2717 42.0598C39.2733 43.0596 38.978 44.0374 38.4232 44.8691C37.8684 45.7009 37.079 46.3491 36.1552 46.7316C35.2315 47.114 34.2149 47.2135 33.2345 47.0174C32.2541 46.8213 31.3541 46.3384 30.6485 45.6301C29.9429 44.9217 29.4636 44.0197 29.2714 43.0386C29.0792 42.0574 29.1827 41.0413 29.5688 40.119C29.955 39.1968 30.6063 38.41 31.4402 37.8584C32.2742 37.3069 33.2531 37.0155 34.2529 37.0211C35.5851 37.0286 36.8603 37.5625 37.8004 38.5064C38.7406 39.4503 39.2694 40.7276 39.2717 42.0598ZM34.1988 44.6047C34.8711 44.6102 35.5185 44.3512 36.0015 43.8836C36.4845 43.416 36.7644 42.7774 36.7808 42.1053C36.782 41.4335 36.5224 40.7874 36.0567 40.3031C35.5911 39.8189 34.9556 39.5342 34.2842 39.5091C33.9449 39.5012 33.6074 39.5608 33.2913 39.6844C32.9753 39.8079 32.6869 39.9931 32.4429 40.2291C32.199 40.4651 32.0044 40.7472 31.8704 41.059C31.7364 41.3708 31.6657 41.7062 31.6624 42.0455C31.6594 42.3805 31.7228 42.7128 31.8489 43.0232C31.975 43.3336 32.1614 43.6159 32.3972 43.8538C32.633 44.0918 32.9137 44.2806 33.2229 44.4095C33.5321 44.5384 33.8638 44.6048 34.1988 44.6047Z" fill="url(#paint6_linear_1_616)"/>
<path d="M51.9594 33.7617H49.423V22.2724H45.3465C45.3329 22.2104 45.3234 22.1477 45.318 22.0845C45.318 21.5151 45.318 20.9686 45.318 20.4106C45.318 20.2427 45.3522 20.1687 45.5458 20.1687C48.9827 20.1687 52.4177 20.1687 55.8508 20.1687C55.9106 20.1687 55.9676 20.1687 56.0444 20.1687V22.2439H51.9651L51.9594 33.7617Z" fill="url(#paint7_linear_1_616)"/>
<path d="M47.6808 71.7281C47.6815 71.5173 47.7507 71.3125 47.8781 71.1446C48.0054 70.9766 48.184 70.8547 48.3868 70.7972C49.7618 70.3332 51.1395 69.8692 52.5031 69.3739C53.1949 69.1234 53.8183 69.4308 53.8895 70.1083C53.9188 70.3023 53.8804 70.5004 53.7809 70.6694C53.6814 70.8384 53.5267 70.968 53.3429 71.0364C52.2839 71.4463 51.2183 71.841 50.1461 72.2206C49.7219 72.3743 49.292 72.5052 48.848 72.6106C48.7115 72.6493 48.568 72.6559 48.4286 72.6298C48.2892 72.6037 48.1577 72.5455 48.0446 72.46C47.9315 72.3745 47.8398 72.2639 47.7766 72.1369C47.7135 72.0099 47.6807 71.8699 47.6808 71.7281Z" fill="url(#paint8_linear_1_616)"/>
<path d="M25.5335 4.41501C25.3291 4.40801 25.1323 4.33607 24.9715 4.20964C24.8108 4.08321 24.6945 3.90886 24.6396 3.71189C24.58 3.50271 24.5982 3.27901 24.6908 3.08222C24.7835 2.88543 24.9443 2.72887 25.1435 2.64152C25.7754 2.37963 26.4188 2.14051 27.065 1.91847C27.7112 1.69642 28.3005 1.52278 28.9267 1.34913C29.1837 1.2748 29.4507 1.24117 29.7181 1.24948C29.9034 1.26037 30.0791 1.33534 30.2152 1.46154C30.3512 1.58774 30.4392 1.75731 30.464 1.94123C30.5057 2.12183 30.4907 2.31093 30.4209 2.48265C30.351 2.65437 30.2299 2.80034 30.074 2.90058C29.9385 2.97272 29.7965 3.03181 29.6498 3.07708C28.403 3.49839 27.1551 3.91685 25.9064 4.33246C25.7868 4.37232 25.6587 4.38654 25.5335 4.41501Z" fill="url(#paint9_linear_1_616)"/>
<path d="M22.9914 5.09822C22.9949 5.26196 22.9525 5.42341 22.869 5.56429C22.7855 5.70516 22.6642 5.81983 22.5188 5.8953C21.4541 6.53675 20.3895 7.17442 19.3248 7.80829C19.1185 7.94339 18.8674 7.99193 18.6256 7.94346C18.3838 7.895 18.1707 7.7534 18.0324 7.54923C17.9606 7.4465 17.9108 7.33002 17.8861 7.2071C17.8615 7.08418 17.8626 6.95749 17.8893 6.83502C17.9161 6.71254 17.9679 6.59693 18.0415 6.49546C18.1151 6.39399 18.209 6.30888 18.3171 6.24545C19.4159 5.56509 20.5204 4.89327 21.6449 4.25276C21.7869 4.17413 21.9474 4.13501 22.1097 4.13948C22.272 4.14395 22.4301 4.19185 22.5676 4.27818C22.7051 4.36451 22.8169 4.48611 22.8914 4.63033C22.966 4.77456 23.0005 4.93613 22.9914 5.09822Z" fill="url(#paint10_linear_1_616)"/>
<path d="M56.423 69.4849C56.2215 69.4697 56.029 69.395 55.8699 69.2703C55.7108 69.1457 55.5922 68.9767 55.5292 68.7846C55.4704 68.5903 55.477 68.382 55.548 68.1917C55.6189 68.0015 55.7503 67.8398 55.922 67.7314C56.8216 67.1763 57.7183 66.6268 58.6207 66.0803C58.7224 66.0137 58.8361 65.9679 58.9556 65.9453C59.075 65.9227 59.1977 65.9239 59.3166 65.9487C59.4356 65.9736 59.5485 66.0216 59.6488 66.0901C59.7492 66.1586 59.8351 66.2462 59.9017 66.3478C59.9682 66.4495 60.0141 66.5633 60.0367 66.6827C60.0592 66.8021 60.0581 66.9248 60.0332 67.0438C60.0084 67.1627 59.9603 67.2756 59.8919 67.376C59.8234 67.4764 59.7358 67.5623 59.6341 67.6289C58.7374 68.1982 57.8293 68.7675 56.9212 69.3027C56.7618 69.3803 56.5949 69.4414 56.423 69.4849Z" fill="url(#paint11_linear_1_616)"/>
</g>
<defs>
<linearGradient id="paint0_linear_1_616" x1="0" y1="0" x2="74.9771" y2="76.8901" gradientUnits="userSpaceOnUse">
<stop stop-color="#3E96F4"/>
<stop offset="1" stop-color="#FE5B52"/>
</linearGradient>
<linearGradient id="paint1_linear_1_616" x1="0" y1="0" x2="74.9771" y2="76.8901" gradientUnits="userSpaceOnUse">
<stop stop-color="#3E96F4"/>
<stop offset="1" stop-color="#FE5B52"/>
</linearGradient>
<linearGradient id="paint2_linear_1_616" x1="0" y1="0" x2="74.9771" y2="76.8901" gradientUnits="userSpaceOnUse">
<stop stop-color="#3E96F4"/>
<stop offset="1" stop-color="#FE5B52"/>
</linearGradient>
<linearGradient id="paint3_linear_1_616" x1="0" y1="0" x2="74.9771" y2="76.8901" gradientUnits="userSpaceOnUse">
<stop stop-color="#3E96F4"/>
<stop offset="1" stop-color="#FE5B52"/>
</linearGradient>
<linearGradient id="paint4_linear_1_616" x1="0" y1="0" x2="74.9771" y2="76.8901" gradientUnits="userSpaceOnUse">
<stop stop-color="#3E96F4"/>
<stop offset="1" stop-color="#FE5B52"/>
</linearGradient>
<linearGradient id="paint5_linear_1_616" x1="0" y1="0" x2="74.9771" y2="76.8901" gradientUnits="userSpaceOnUse">
<stop stop-color="#3E96F4"/>
<stop offset="1" stop-color="#FE5B52"/>
</linearGradient>
<linearGradient id="paint6_linear_1_616" x1="0" y1="0" x2="74.9771" y2="76.8901" gradientUnits="userSpaceOnUse">
<stop stop-color="#3E96F4"/>
<stop offset="1" stop-color="#FE5B52"/>
</linearGradient>
<linearGradient id="paint7_linear_1_616" x1="0" y1="0" x2="74.9771" y2="76.8901" gradientUnits="userSpaceOnUse">
<stop stop-color="#3E96F4"/>
<stop offset="1" stop-color="#FE5B52"/>
</linearGradient>
<linearGradient id="paint8_linear_1_616" x1="0" y1="0" x2="74.9771" y2="76.8901" gradientUnits="userSpaceOnUse">
<stop stop-color="#3E96F4"/>
<stop offset="1" stop-color="#FE5B52"/>
</linearGradient>
<linearGradient id="paint9_linear_1_616" x1="0" y1="0" x2="74.9771" y2="76.8901" gradientUnits="userSpaceOnUse">
<stop stop-color="#3E96F4"/>
<stop offset="1" stop-color="#FE5B52"/>
</linearGradient>
<linearGradient id="paint10_linear_1_616" x1="0" y1="0" x2="74.9771" y2="76.8901" gradientUnits="userSpaceOnUse">
<stop stop-color="#3E96F4"/>
<stop offset="1" stop-color="#FE5B52"/>
</linearGradient>
<linearGradient id="paint11_linear_1_616" x1="0" y1="0" x2="74.9771" y2="76.8901" gradientUnits="userSpaceOnUse">
<stop stop-color="#3E96F4"/>
<stop offset="1" stop-color="#FE5B52"/>
</linearGradient>
</defs>
</svg>
