<svg width="36" height="36" viewBox="0 0 36 36" fill="none" xmlns="http://www.w3.org/2000/svg">
<mask id="mask0_1_4429" style="mask-type:alpha" maskUnits="userSpaceOnUse" x="0" y="0" width="36" height="36">
<rect width="36" height="36" fill="#D9D9D9"/>
</mask>
<g mask="url(#mask0_1_4429)">
<path d="M18.4087 13.3343C15.8373 13.3343 13.7526 15.4236 13.7526 18.001C13.7526 20.5783 15.8373 22.6676 18.4087 22.6676C20.9801 22.6676 23.0647 20.5783 23.0647 18.001C23.0647 15.4236 20.9801 13.3343 18.4087 13.3343ZM31.4773 14.6708L30.2166 15.711C28.7786 16.8975 28.7786 19.1044 30.2166 20.2909L31.4773 21.3311C31.924 21.6997 32.0393 22.338 31.75 22.8403L29.2608 27.1616C28.9715 27.6639 28.3623 27.8829 27.8204 27.6794L26.2913 27.1053C24.5471 26.4504 22.6402 27.5538 22.334 29.3953L22.0655 31.0096C21.9704 31.5816 21.4766 32.001 20.898 32.001H15.9194C15.3408 32.001 14.8469 31.5816 14.7518 31.0096L14.4834 29.3953C14.1772 27.5538 12.2703 26.4504 10.5261 27.1053L8.99704 27.6794C8.45513 27.8829 7.84592 27.6639 7.55656 27.1616L5.06734 22.8403C4.77803 22.338 4.89339 21.6997 5.34013 21.3311L6.60081 20.2909C8.03875 19.1044 8.03875 16.8975 6.60081 15.711L5.34013 14.6708C4.89339 14.3022 4.77803 13.6639 5.06734 13.1616L7.55656 8.84029C7.84592 8.33801 8.45513 8.119 8.99704 8.32247L10.5261 8.89659C12.2703 9.5515 14.1772 8.44805 14.4834 6.60664L14.7518 4.99231C14.8469 4.42027 15.3408 4.00098 15.9194 4.00098H20.898C21.4766 4.00098 21.9704 4.42027 22.0655 4.99231L22.334 6.60664C22.6402 8.44805 24.5471 9.5515 26.2913 8.89659L27.8204 8.32247C28.3623 8.119 28.9715 8.33801 29.2608 8.84029L31.75 13.1616C32.0393 13.6639 31.924 14.3022 31.4773 14.6708Z" stroke="#3DA4C2" stroke-width="3" stroke-miterlimit="10" stroke-linecap="round" stroke-linejoin="round"/>
</g>
</svg>
