<svg width="56" height="56" viewBox="0 0 56 56" fill="none" xmlns="http://www.w3.org/2000/svg">
<rect width="56" height="56" rx="6" fill="#007BFF"/>
<path d="M33.5909 43.0336V36.073C33.5909 33.6063 35.2999 31.717 37.2563 29.9489L39.6764 27.7649C40.6273 26.9046 42.172 26.9094 43.1152 27.7745C44.0581 28.6395 44.0503 30.0487 43.1047 30.9113L39.3977 34.286M42.7955 43.0336V40.9923C42.7955 39.2852 43.8766 38.0723 46.6067 35.9283C48.7661 34.2307 50.2976 32.9962 49.8881 30.3007L48.3184 18.4059C48.1628 17.2288 47.0898 16.3024 45.7385 16.3621C44.3871 16.4194 43.4616 17.4341 43.4015 18.6184L42.9457 27.7031M13.6477 43.0336V40.9923C13.6477 39.2852 12.6439 38.0723 10.1092 35.9283C8.10411 34.2307 6.67961 32.9962 7.06233 30.3007L8.51732 18.4059C8.66179 17.2288 9.65797 16.3024 10.9127 16.3621C12.1674 16.4194 13.0268 17.4341 13.0824 18.6184L13.5084 27.7031M23.3636 43.0336V36.073C23.3636 33.6063 21.6544 31.717 19.6976 29.9489L17.2797 27.7649C16.3287 26.9046 14.7811 26.9094 13.8405 27.7745C12.8973 28.6395 12.9026 30.0487 13.8509 30.9113L17.5585 34.286M24.0998 25.7188H21.9218C21.0267 25.7188 20.2955 25.0578 20.2955 24.2487V20.9957C20.2955 18.714 21.8386 16.7406 24.0295 15.8914M32.4137 15.8914C34.6047 16.7406 36.1477 18.714 36.1477 20.9957V24.2487C36.1477 25.0578 35.4166 25.7188 34.5215 25.7188H32.3435M31.5455 46.8258V44.3867C31.5455 43.6416 32.2159 43.0336 33.0346 43.0336H43.3544C44.1731 43.0336 44.8409 43.6416 44.8409 44.3867V46.8258C44.8409 47.571 44.1731 48.1813 43.3544 48.1813H33.0346C32.2159 48.1813 31.5455 47.571 31.5455 46.8258ZM24.8977 46.8258V44.3867C24.8977 43.6416 24.2273 43.0336 23.4112 43.0336H13.0888C12.2727 43.0336 11.6023 43.6416 11.6023 44.3867V46.8258C11.6023 47.571 12.2727 48.1813 13.0888 48.1813H23.4112C24.2273 48.1813 24.8977 47.571 24.8977 46.8258ZM28.476 17.2953C31.5757 17.2953 34.1023 14.9831 34.1023 12.1465C34.1023 9.31218 31.5757 7 28.476 7C25.3788 7 22.8523 9.31218 22.8523 12.1465C22.8523 14.9831 25.3788 17.2953 28.476 17.2953Z" stroke="white" stroke-width="2" stroke-miterlimit="10" stroke-linecap="round" stroke-linejoin="round"/>
</svg>
