<svg width="16" height="16" viewBox="0 0 16 16" fill="none" xmlns="http://www.w3.org/2000/svg">
<path d="M8 0C3.58877 0 0 3.58879 0 8.00004C0 12.4113 3.58877 16 8 16C12.4112 16 16 12.4112 16 8.00004C16 3.58887 12.4111 0 8 0ZM12.0366 7.10455L10.4559 8.6454L10.8291 10.8211C10.8481 10.932 10.8356 11.046 10.7932 11.1502C10.7508 11.2544 10.6801 11.3447 10.589 11.4108C10.498 11.477 10.3903 11.5164 10.278 11.5245C10.1658 11.5326 10.0535 11.5092 9.95391 11.4569L8.00008 10.4297L6.04617 11.457C5.94655 11.5094 5.83424 11.533 5.72196 11.5249C5.60967 11.5168 5.50189 11.4774 5.41081 11.4113C5.31974 11.3451 5.249 11.2547 5.20661 11.1505C5.16422 11.0462 5.15187 10.9321 5.17095 10.8211L5.54413 8.64548L3.96333 7.10455C3.88274 7.02598 3.82575 6.92642 3.79879 6.81715C3.77183 6.70787 3.77598 6.59323 3.81077 6.48619C3.84556 6.37915 3.90961 6.28399 3.99567 6.21144C4.08173 6.13891 4.18636 6.09189 4.29774 6.07571L6.48217 5.75826L7.45904 3.77876C7.50887 3.67783 7.58594 3.59286 7.68153 3.53344C7.77713 3.47402 7.88744 3.44253 8 3.44253C8.11256 3.44253 8.22287 3.47402 8.31847 3.53344C8.41406 3.59286 8.49113 3.67783 8.54096 3.77876L9.51783 5.75826L11.7023 6.07571C11.8136 6.0919 11.9183 6.13893 12.0043 6.21147C12.0904 6.28402 12.1544 6.37919 12.1892 6.48622C12.224 6.59326 12.2281 6.7079 12.2011 6.81717C12.1742 6.92644 12.1172 7.02598 12.0366 7.10455Z" fill="#3E96F4"/>
</svg>
