<svg width="39" height="47" viewBox="0 0 39 47" fill="none" xmlns="http://www.w3.org/2000/svg">
<path d="M19.6833 26.1215C13.8855 25.9325 12.495 20.9684 12.1974 19.3658C11.6392 19.2365 11.1419 18.9206 10.7876 18.4704C10.3832 17.913 10.1956 17.2275 10.2599 16.5418C10.2139 16.1724 10.246 15.7975 10.3541 15.4413C10.4622 15.085 10.6438 14.7554 10.8873 14.4738C11.0247 14.3329 11.1827 14.2137 11.3559 14.1203C10.2783 12.3805 9.7476 10.3575 9.83237 8.31285C10.5035 3.51726 14.3683 3.05056 15.5787 3.02356C16.1358 2.37559 16.8322 1.86201 17.6159 1.52124C19.0838 0.929136 20.7062 0.838736 22.2308 1.2641C25.2278 2.04644 27.2263 3.54683 28.1745 5.72413C29.5245 8.81876 28.3404 12.3807 27.6603 13.9801C27.9196 14.0644 28.1587 14.2017 28.3622 14.3832C28.6392 14.6644 28.8479 15.0054 28.9723 15.38C29.0967 15.7546 29.1334 16.1528 29.0797 16.5438C29.1446 17.2293 28.9571 17.9151 28.5525 18.4723C28.1979 18.9224 27.7004 19.2383 27.1421 19.3678C26.8445 20.9684 25.4572 25.9325 19.6833 26.1215ZM12.4301 15.1482C12.2021 15.1375 11.9791 15.217 11.8091 15.3693C11.6915 15.5341 11.6076 15.7206 11.5625 15.918C11.5174 16.1154 11.5118 16.3198 11.5462 16.5193C11.5489 16.5622 11.5474 16.6053 11.5417 16.6479C11.5068 17.0169 11.602 17.3865 11.811 17.6925C11.9414 17.8381 12.0995 17.9563 12.2762 18.0399C12.4528 18.1236 12.6443 18.1712 12.8396 18.1798C12.9866 18.1972 13.1231 18.2647 13.226 18.3711C13.3289 18.4774 13.392 18.616 13.4046 18.7635C13.4259 19.0026 13.9961 24.65 19.6845 24.8364C25.3415 24.65 25.9143 19.0026 25.9355 18.7622C25.9484 18.615 26.0116 18.4767 26.1145 18.3706C26.2175 18.2645 26.3538 18.1971 26.5006 18.1798C26.6958 18.1712 26.8874 18.1237 27.0641 18.04C27.2407 17.9563 27.3988 17.8382 27.5291 17.6925C27.739 17.3849 27.8344 17.0134 27.7985 16.6428C27.7931 16.6014 27.7916 16.5597 27.794 16.5181C27.8287 16.312 27.8209 16.1009 27.7711 15.898C27.7212 15.695 27.6303 15.5044 27.5041 15.3378C27.3032 15.1899 27.0534 15.1246 26.8059 15.1552C26.687 15.1763 26.5645 15.1635 26.4525 15.1182C26.3405 15.0728 26.2435 14.9969 26.1727 14.899C26.1019 14.8011 26.0602 14.6852 26.0522 14.5646C26.0442 14.4441 26.0704 14.3237 26.1277 14.2173C26.1515 14.1723 28.5062 9.70331 26.993 6.23005C26.2094 4.43524 24.4988 3.18234 21.9075 2.50607C20.662 2.15362 19.3351 2.2214 18.1321 2.69892C17.4477 2.9938 16.8511 3.46061 16.4003 4.05403C16.3354 4.14231 16.2488 4.21235 16.1489 4.2574C16.049 4.30244 15.9392 4.32096 15.8301 4.31117C15.6636 4.29767 11.7275 4.0431 11.1103 8.44334C10.4932 12.8436 10.9323 11.9436 12.9598 14.065C13.0481 14.1574 13.107 14.274 13.1287 14.3999C13.1505 14.5259 13.1342 14.6555 13.0819 14.7721C13.0338 14.8918 12.9489 14.993 12.8395 15.0613C12.7301 15.1296 12.6018 15.1613 12.4732 15.152L12.4301 15.1482Z" fill="url(#paint0_linear_1_446)"/>
<path d="M26.6943 15.1636C26.5284 15.1637 26.3689 15.0997 26.2491 14.985C26.1292 14.8702 26.0585 14.7135 26.0515 14.5478C26.0438 14.3813 25.8445 10.4979 22.9453 10.1244C21.6192 10.2928 20.2727 10.1878 18.9888 9.81587C17.7049 9.44395 16.5107 8.81298 15.48 7.96186C14.6604 8.57835 12.7717 10.4522 13.1349 14.4488C13.1397 14.6123 13.0819 14.7716 12.9734 14.8941C12.8648 15.0165 12.7136 15.093 12.5506 15.1078C12.3876 15.1226 12.2251 15.0748 12.0962 14.9739C11.9673 14.8731 11.8818 14.7269 11.8569 14.5651C11.324 8.70177 15.0891 6.66654 15.2492 6.58297C15.3684 6.52079 15.504 6.49751 15.6371 6.51642C15.7701 6.53533 15.8939 6.59548 15.991 6.6884C16.9073 7.5183 17.992 8.14053 19.1709 8.51254C20.3498 8.88454 21.5952 8.99756 22.8219 8.84384C22.8807 8.83432 22.9405 8.83216 22.9999 8.83741C26.2681 9.17747 27.2665 12.6887 27.3372 14.4944C27.3438 14.6645 27.2827 14.8303 27.1672 14.9554C27.0518 15.0805 26.8914 15.1547 26.7213 15.1617L26.6943 15.1636ZM37.7563 46H1.64284C1.47235 46 1.30884 45.9323 1.18828 45.8117C1.06773 45.6912 1 45.5277 1 45.3572V38.1908C1.00459 35.9258 1.90724 33.755 3.50999 32.1546C5.11273 30.5541 7.28477 29.6546 9.54978 29.6532H10.784C10.9545 29.6532 11.118 29.7209 11.2386 29.8415C11.3591 29.9621 11.4269 30.1256 11.4269 30.2961C11.4269 30.4666 11.3591 30.6301 11.2386 30.7506C11.118 30.8712 10.9545 30.9389 10.784 30.9389H9.54978C7.62564 30.9399 5.78043 31.7039 4.41872 33.0633C3.05701 34.4227 2.28994 36.2667 2.28568 38.1908V44.7143H37.1135V38.1908C37.1113 36.2681 36.3465 34.4249 34.987 33.0654C33.6275 31.7059 31.7842 30.9411 29.8616 30.9389H28.5386C28.3681 30.9389 28.2046 30.8712 28.0841 30.7506C27.9635 30.6301 27.8958 30.4666 27.8958 30.2961C27.8958 30.1256 27.9635 29.9621 28.0841 29.8415C28.2046 29.7209 28.3681 29.6532 28.5386 29.6532H29.8616C32.1249 29.6565 34.2946 30.557 35.895 32.1574C37.4954 33.7578 38.3959 35.9275 38.3992 38.1908V45.3572C38.3992 45.5277 38.3314 45.6912 38.2109 45.8117C38.0903 45.9323 37.9268 46 37.7563 46Z" fill="url(#paint1_linear_1_446)"/>
<path d="M21.8476 46C21.7551 46 21.6637 45.9801 21.5796 45.9415C21.4955 45.9029 21.4207 45.8467 21.3603 45.7765C21.3 45.7064 21.2554 45.6241 21.2298 45.5352C21.2042 45.4463 21.1981 45.3529 21.2119 45.2614L23.8134 28.0442C23.8272 27.9531 23.8604 27.8661 23.9108 27.7889C23.9611 27.7118 24.0275 27.6464 24.1053 27.5971C24.1832 27.5479 24.2707 27.5159 24.362 27.5034C24.4532 27.4909 24.5461 27.4982 24.6343 27.5248L29.1239 28.878C29.2133 28.9049 29.2958 28.951 29.3656 29.0131C29.4354 29.0752 29.4908 29.1517 29.528 29.2374C29.5652 29.323 29.5833 29.4157 29.581 29.5091C29.5787 29.6025 29.5561 29.6942 29.5148 29.7779L27.7303 33.3586L28.7652 34.5202C28.857 34.6239 28.9128 34.7544 28.9243 34.8923C28.9359 35.0303 28.9027 35.1683 28.8295 35.2858L22.394 45.6953C22.3365 45.7884 22.256 45.8653 22.1604 45.9186C22.0648 45.9719 21.9571 46 21.8476 46ZM24.9744 28.9699L22.9527 42.3493L27.4866 35.021L26.4819 33.8928C26.3964 33.7969 26.3416 33.6776 26.3245 33.5504C26.3074 33.4231 26.3289 33.2936 26.3861 33.1786L28.024 29.8911L24.9744 28.9699ZM17.477 46C17.3674 46.0001 17.2596 45.9721 17.1638 45.9188C17.0681 45.8655 16.9876 45.7885 16.9299 45.6953L10.4925 35.2877C10.4194 35.1702 10.3861 35.0322 10.3977 34.8943C10.4093 34.7563 10.4651 34.6258 10.5568 34.5221L11.5918 33.3605L9.80723 29.7799C9.7659 29.6961 9.74331 29.6044 9.74104 29.511C9.73876 29.4177 9.75685 29.3249 9.79405 29.2393C9.83125 29.1536 9.88666 29.0771 9.95644 29.015C10.0262 28.953 10.1087 28.9069 10.1981 28.8799L14.6877 27.5267C14.7758 27.5003 14.8687 27.4931 14.9599 27.5056C15.0511 27.5181 15.1385 27.5501 15.2163 27.5993C15.294 27.6486 15.3603 27.714 15.4107 27.791C15.461 27.8681 15.4941 27.9551 15.5079 28.0461L18.1108 45.2633C18.1243 45.3545 18.118 45.4475 18.0923 45.5361C18.0667 45.6246 18.0223 45.7066 17.9622 45.7764C17.902 45.8463 17.8276 45.9024 17.7439 45.941C17.6602 45.9796 17.5691 45.9997 17.477 46ZM11.838 35.019L16.3719 42.3474L14.3502 28.9699L11.3006 29.8892L12.9379 33.1766C12.9952 33.2916 13.0167 33.421 12.9998 33.5483C12.9828 33.6756 12.9281 33.7949 12.8427 33.8908L11.838 35.019Z" fill="url(#paint2_linear_1_446)"/>
<path d="M19.7107 34.0142C18.3208 34.0132 16.9321 33.9291 15.5522 33.7622C15.4666 33.7544 15.3835 33.7295 15.3077 33.689C15.2319 33.6484 15.165 33.5931 15.111 33.5263C15.057 33.4595 15.0169 33.3825 14.9931 33.3C14.9693 33.2174 14.9623 33.1309 14.9726 33.0456C14.9828 32.9602 15.01 32.8778 15.0527 32.8032C15.0953 32.7286 15.1524 32.6633 15.2207 32.6111C15.289 32.559 15.3671 32.5211 15.4503 32.4996C15.5335 32.4782 15.6202 32.4736 15.7052 32.4862C18.3324 32.8093 20.9894 32.8093 23.6166 32.4862C23.7842 32.4681 23.9521 32.5165 24.0844 32.621C24.2166 32.7255 24.3025 32.8778 24.3235 33.045C24.3446 33.2122 24.2992 33.381 24.197 33.515C24.0949 33.649 23.9441 33.7376 23.7773 33.7616C22.4284 33.9309 21.0702 34.0153 19.7107 34.0142ZM24.451 28.7828C24.351 28.7824 24.2524 28.7587 24.1631 28.7135C24.0738 28.6683 23.9963 28.6029 23.9368 28.5225C22.9815 27.231 22.8086 24.6712 22.7925 24.3839C22.7827 24.2137 22.8408 24.0466 22.9541 23.9193C23.0674 23.792 23.2266 23.715 23.3968 23.705C23.5664 23.697 23.7325 23.7558 23.8594 23.8688C23.9863 23.9817 24.0639 24.1398 24.0756 24.3093C24.1148 24.9855 24.3527 26.9237 24.9698 27.7581C25.0403 27.8536 25.083 27.9668 25.0932 28.0851C25.1033 28.2034 25.0805 28.3222 25.0272 28.4283C24.9739 28.5344 24.8923 28.6237 24.7914 28.6863C24.6905 28.7489 24.5743 28.7823 24.4555 28.7828H24.451ZM14.8746 28.7828C14.7559 28.7823 14.6396 28.7489 14.5387 28.6863C14.4378 28.6237 14.3562 28.5344 14.303 28.4283C14.2497 28.3222 14.2269 28.2034 14.237 28.0851C14.2471 27.9668 14.2898 27.8536 14.3604 27.7581C14.9788 26.9224 15.216 24.9849 15.2552 24.3093C15.2601 24.2249 15.2816 24.1422 15.3184 24.0661C15.3552 23.99 15.4067 23.9219 15.4698 23.8656C15.533 23.8094 15.6066 23.7662 15.6865 23.7384C15.7663 23.7106 15.8509 23.6988 15.9353 23.7037C16.0197 23.7086 16.1024 23.7301 16.1785 23.7669C16.2546 23.8038 16.3227 23.8552 16.379 23.9184C16.4352 23.9815 16.4784 24.0551 16.5062 24.135C16.534 24.2149 16.5458 24.2994 16.5409 24.3839C16.5248 24.6712 16.348 27.231 15.3966 28.5225C15.3363 28.6039 15.2576 28.67 15.1669 28.7152C15.0761 28.7605 14.976 28.7836 14.8746 28.7828ZM32.6562 36.9899C32.4889 36.99 32.3282 36.9249 32.2082 36.8083C32.0881 36.6917 32.0183 36.533 32.0134 36.3657C31.8932 32.1796 30.3015 30.8624 30.2861 30.8495C30.1533 30.7441 30.0671 30.5907 30.0462 30.4224C30.0253 30.2541 30.0713 30.0843 30.1742 29.9496C30.2765 29.8159 30.4273 29.7279 30.594 29.7048C30.7607 29.6817 30.9298 29.7253 31.0646 29.8261C31.1494 29.8904 33.1583 31.4506 33.2991 36.3285C33.3039 36.4988 33.241 36.664 33.1241 36.7879C33.0071 36.9118 32.8458 36.9843 32.6755 36.9893L32.6562 36.9899Z" fill="url(#paint3_linear_1_446)"/>
<path d="M32.6593 40.7853C32.1567 40.7854 31.6653 40.6365 31.2474 40.3574C30.8294 40.0782 30.5036 39.6814 30.3111 39.2171C30.1187 38.7527 30.0683 38.2418 30.1663 37.7488C30.2643 37.2558 30.5062 36.803 30.8616 36.4475C31.2169 36.0921 31.6697 35.85 32.1627 35.7519C32.6556 35.6538 33.1666 35.7041 33.631 35.8964C34.0954 36.0887 34.4923 36.4144 34.7715 36.8323C35.0508 37.2502 35.1998 37.7415 35.1998 38.2442C35.1991 38.9178 34.9313 39.5636 34.455 40.04C33.9787 40.5164 33.333 40.7845 32.6593 40.7853ZM32.6593 36.9887C32.411 36.9886 32.1682 37.0621 31.9616 37.2C31.7551 37.3378 31.5941 37.5339 31.499 37.7633C31.4038 37.9927 31.3789 38.2451 31.4273 38.4887C31.4756 38.7323 31.5951 38.956 31.7707 39.1317C31.9463 39.3073 32.17 39.4269 32.4135 39.4754C32.6571 39.5239 32.9095 39.4991 33.139 39.4041C33.3684 39.3091 33.5645 39.1482 33.7025 38.9417C33.8405 38.7352 33.9141 38.4925 33.9141 38.2442C33.9138 37.9114 33.7815 37.5924 33.5463 37.357C33.311 37.1217 32.9921 36.9892 32.6593 36.9887ZM6.25273 36.99C6.08986 36.9904 5.9329 36.929 5.81358 36.8181C5.69425 36.7072 5.62145 36.5552 5.60989 36.3928C5.25954 31.459 7.97811 29.8821 8.09382 29.8172C8.24232 29.7334 8.41803 29.712 8.58228 29.7577C8.74654 29.8035 8.8859 29.9126 8.9697 30.0611C9.05349 30.2096 9.07486 30.3853 9.02911 30.5496C8.98336 30.7138 8.87424 30.8532 8.72574 30.937C8.62803 30.9948 6.60436 32.2439 6.89171 36.3021C6.90373 36.4722 6.8477 36.6401 6.73595 36.7688C6.62419 36.8976 6.46587 36.9767 6.2958 36.9887L6.25273 36.99Z" fill="url(#paint4_linear_1_446)"/>
<path d="M4.95242 42.1372C4.85295 42.1376 4.75473 42.115 4.66549 42.071C4.57625 42.0271 4.49843 41.963 4.43815 41.8839C4.12435 41.4718 3.89319 41.0029 3.75738 40.5031C3.45896 39.5295 3.55687 38.4774 4.02981 37.5756C4.50275 36.6738 5.31251 35.995 6.2831 35.6869C6.74347 35.5575 7.22502 35.521 7.69962 35.5797C8.17423 35.6385 8.63238 35.7911 9.04731 36.0289C9.7745 36.449 10.3561 37.0811 10.7145 37.8406C11.0729 38.6001 11.191 39.451 11.053 40.2794C11.025 40.4476 10.9314 40.5977 10.7927 40.6969C10.654 40.7961 10.4816 40.8361 10.3134 40.8081C10.1452 40.7801 9.995 40.6865 9.89584 40.5478C9.79669 40.4091 9.75669 40.2367 9.78465 40.0685C9.879 39.5009 9.79886 38.918 9.55484 38.3969C9.31081 37.8758 8.91439 37.441 8.41797 37.15C8.1503 36.9955 7.85452 36.8958 7.5479 36.8568C7.24129 36.8179 6.92998 36.8404 6.63216 36.9231C5.98802 37.1385 5.45479 37.5992 5.14816 38.2053C4.84152 38.8113 4.7862 39.5139 4.9942 40.1604C5.08722 40.5026 5.24572 40.8235 5.46091 41.1054C5.5333 41.2007 5.57766 41.3143 5.58901 41.4334C5.60035 41.5525 5.57822 41.6724 5.52511 41.7797C5.472 41.8869 5.39001 41.9772 5.28838 42.0403C5.18675 42.1035 5.06951 42.137 4.94985 42.1372H4.95242Z" fill="url(#paint5_linear_1_446)"/>
<path d="M10.4273 40.8181C10.4022 40.8181 10.3765 40.8181 10.3508 40.8142L9.6263 40.7287C9.54243 40.7187 9.46134 40.6924 9.38766 40.6511C9.31399 40.6098 9.24917 40.5544 9.19691 40.488C9.14465 40.4217 9.10597 40.3457 9.08308 40.2644C9.06018 40.1831 9.05353 40.0981 9.06349 40.0142C9.07345 39.9303 9.09984 39.8492 9.14113 39.7756C9.18243 39.7019 9.23784 39.6371 9.30419 39.5848C9.43818 39.4793 9.60862 39.4313 9.77801 39.4514L10.5025 39.5375C10.6652 39.5569 10.8144 39.6376 10.9195 39.7633C11.0247 39.8889 11.0779 40.05 11.0683 40.2135C11.0587 40.3771 10.987 40.5308 10.8679 40.6433C10.7487 40.7558 10.5911 40.8179 10.4273 40.8181ZM4.95221 42.143C4.80127 42.1432 4.65507 42.0903 4.53923 41.9935C4.42338 41.8967 4.34528 41.7623 4.31861 41.6137C4.29193 41.4652 4.31838 41.312 4.39332 41.1809C4.46826 41.0499 4.58692 40.9494 4.7285 40.8971L5.49991 40.6124C5.57905 40.5828 5.66324 40.5691 5.74766 40.5721C5.83209 40.5751 5.9151 40.5947 5.99195 40.6298C6.06881 40.6648 6.138 40.7147 6.19559 40.7765C6.25317 40.8383 6.29802 40.9109 6.32756 40.99C6.35711 41.0692 6.37078 41.1534 6.36779 41.2378C6.3648 41.3222 6.34521 41.4052 6.31014 41.4821C6.27507 41.5589 6.22521 41.6281 6.1634 41.6857C6.10158 41.7433 6.02904 41.7881 5.94989 41.8177L5.17849 42.1031C5.10606 42.1299 5.02941 42.1434 4.95221 42.143Z" fill="url(#paint6_linear_1_446)"/>
<path d="M19.6833 26.1215C13.8855 25.9325 12.495 20.9684 12.1974 19.3658C11.6392 19.2365 11.1419 18.9206 10.7876 18.4704C10.3832 17.913 10.1956 17.2275 10.2599 16.5418C10.2139 16.1724 10.246 15.7975 10.3541 15.4413C10.4622 15.085 10.6438 14.7554 10.8873 14.4738C11.0247 14.3329 11.1827 14.2137 11.3559 14.1203C10.2783 12.3805 9.7476 10.3575 9.83237 8.31285C10.5035 3.51726 14.3683 3.05056 15.5787 3.02356C16.1358 2.37559 16.8322 1.86201 17.6159 1.52124C19.0838 0.929136 20.7062 0.838736 22.2308 1.2641C25.2278 2.04644 27.2263 3.54683 28.1745 5.72413C29.5245 8.81876 28.3404 12.3807 27.6603 13.9801C27.9196 14.0644 28.1587 14.2017 28.3622 14.3832C28.6392 14.6644 28.8479 15.0054 28.9723 15.38C29.0967 15.7546 29.1334 16.1528 29.0797 16.5438C29.1446 17.2293 28.9571 17.9151 28.5525 18.4723C28.1979 18.9224 27.7004 19.2383 27.1421 19.3678C26.8445 20.9684 25.4572 25.9325 19.6833 26.1215ZM12.4301 15.1482C12.2021 15.1375 11.9791 15.217 11.8091 15.3693C11.6915 15.5341 11.6076 15.7206 11.5625 15.918C11.5174 16.1154 11.5118 16.3198 11.5462 16.5193C11.5489 16.5622 11.5474 16.6053 11.5417 16.6479C11.5068 17.0169 11.602 17.3865 11.811 17.6925C11.9414 17.8381 12.0995 17.9563 12.2762 18.0399C12.4528 18.1236 12.6443 18.1712 12.8396 18.1798C12.9866 18.1972 13.1231 18.2647 13.226 18.3711C13.3289 18.4774 13.392 18.616 13.4046 18.7635C13.4259 19.0026 13.9961 24.65 19.6845 24.8364C25.3415 24.65 25.9143 19.0026 25.9355 18.7622C25.9484 18.615 26.0116 18.4767 26.1145 18.3706C26.2175 18.2645 26.3538 18.1971 26.5006 18.1798C26.6958 18.1712 26.8874 18.1237 27.0641 18.04C27.2407 17.9563 27.3988 17.8382 27.5291 17.6925C27.739 17.3849 27.8344 17.0134 27.7985 16.6428C27.7931 16.6014 27.7916 16.5597 27.794 16.5181C27.8287 16.312 27.8209 16.1009 27.7711 15.898C27.7212 15.695 27.6303 15.5044 27.5041 15.3378C27.3032 15.1899 27.0534 15.1246 26.8059 15.1552C26.687 15.1763 26.5645 15.1635 26.4525 15.1182C26.3405 15.0728 26.2435 14.9969 26.1727 14.899C26.1019 14.8011 26.0602 14.6852 26.0522 14.5646C26.0442 14.4441 26.0704 14.3237 26.1277 14.2173C26.1515 14.1723 28.5062 9.70331 26.993 6.23005C26.2094 4.43524 24.4988 3.18234 21.9075 2.50607C20.662 2.15362 19.3351 2.2214 18.1321 2.69892C17.4477 2.9938 16.8511 3.46061 16.4003 4.05403C16.3354 4.14231 16.2488 4.21235 16.1489 4.2574C16.049 4.30244 15.9392 4.32096 15.8301 4.31117C15.6636 4.29767 11.7275 4.0431 11.1103 8.44334C10.4932 12.8436 10.9323 11.9436 12.9598 14.065C13.0481 14.1574 13.107 14.274 13.1287 14.3999C13.1505 14.5259 13.1342 14.6555 13.0819 14.7721C13.0338 14.8918 12.9489 14.993 12.8395 15.0613C12.7301 15.1296 12.6018 15.1613 12.4732 15.152L12.4301 15.1482Z" stroke="url(#paint7_linear_1_446)" stroke-width="0.5"/>
<path d="M26.6943 15.1636C26.5284 15.1637 26.3689 15.0997 26.2491 14.985C26.1292 14.8702 26.0585 14.7135 26.0515 14.5478C26.0438 14.3813 25.8445 10.4979 22.9453 10.1244C21.6192 10.2928 20.2727 10.1878 18.9888 9.81587C17.7049 9.44395 16.5107 8.81298 15.48 7.96186C14.6604 8.57835 12.7717 10.4522 13.1349 14.4488C13.1397 14.6123 13.0819 14.7716 12.9734 14.8941C12.8648 15.0165 12.7136 15.093 12.5506 15.1078C12.3876 15.1226 12.2251 15.0748 12.0962 14.9739C11.9673 14.8731 11.8818 14.7269 11.8569 14.5651C11.324 8.70177 15.0891 6.66654 15.2492 6.58297C15.3684 6.52079 15.504 6.49751 15.6371 6.51642C15.7701 6.53533 15.8939 6.59548 15.991 6.6884C16.9073 7.5183 17.992 8.14053 19.1709 8.51254C20.3498 8.88454 21.5952 8.99756 22.8219 8.84384C22.8807 8.83432 22.9405 8.83216 22.9999 8.83741C26.2681 9.17747 27.2665 12.6887 27.3372 14.4944C27.3438 14.6645 27.2827 14.8303 27.1672 14.9554C27.0518 15.0805 26.8914 15.1547 26.7213 15.1617L26.6943 15.1636ZM37.7563 46H1.64284C1.47235 46 1.30884 45.9323 1.18828 45.8117C1.06773 45.6912 1 45.5277 1 45.3572V38.1908C1.00459 35.9258 1.90724 33.755 3.50999 32.1546C5.11273 30.5541 7.28477 29.6546 9.54978 29.6532H10.784C10.9545 29.6532 11.118 29.7209 11.2386 29.8415C11.3591 29.9621 11.4269 30.1256 11.4269 30.2961C11.4269 30.4666 11.3591 30.6301 11.2386 30.7506C11.118 30.8712 10.9545 30.9389 10.784 30.9389H9.54978C7.62564 30.9399 5.78043 31.7039 4.41872 33.0633C3.05701 34.4227 2.28994 36.2667 2.28568 38.1908V44.7143H37.1135V38.1908C37.1113 36.2681 36.3465 34.4249 34.987 33.0654C33.6275 31.7059 31.7842 30.9411 29.8616 30.9389H28.5386C28.3681 30.9389 28.2046 30.8712 28.0841 30.7506C27.9635 30.6301 27.8958 30.4666 27.8958 30.2961C27.8958 30.1256 27.9635 29.9621 28.0841 29.8415C28.2046 29.7209 28.3681 29.6532 28.5386 29.6532H29.8616C32.1249 29.6565 34.2946 30.557 35.895 32.1574C37.4954 33.7578 38.3959 35.9275 38.3992 38.1908V45.3572C38.3992 45.5277 38.3314 45.6912 38.2109 45.8117C38.0903 45.9323 37.9268 46 37.7563 46Z" stroke="url(#paint8_linear_1_446)" stroke-width="0.5"/>
<path d="M21.8476 46C21.7551 46 21.6637 45.9801 21.5796 45.9415C21.4955 45.9029 21.4207 45.8467 21.3603 45.7765C21.3 45.7064 21.2554 45.6241 21.2298 45.5352C21.2042 45.4463 21.1981 45.3529 21.2119 45.2614L23.8134 28.0442C23.8272 27.9531 23.8604 27.8661 23.9108 27.7889C23.9611 27.7118 24.0275 27.6464 24.1053 27.5971C24.1832 27.5479 24.2707 27.5159 24.362 27.5034C24.4532 27.4909 24.5461 27.4982 24.6343 27.5248L29.1239 28.878C29.2133 28.9049 29.2958 28.951 29.3656 29.0131C29.4354 29.0752 29.4908 29.1517 29.528 29.2374C29.5652 29.323 29.5833 29.4157 29.581 29.5091C29.5787 29.6025 29.5561 29.6942 29.5148 29.7779L27.7303 33.3586L28.7652 34.5202C28.857 34.6239 28.9128 34.7544 28.9243 34.8923C28.9359 35.0303 28.9027 35.1683 28.8295 35.2858L22.394 45.6953C22.3365 45.7884 22.256 45.8653 22.1604 45.9186C22.0648 45.9719 21.9571 46 21.8476 46ZM24.9744 28.9699L22.9527 42.3493L27.4866 35.021L26.4819 33.8928C26.3964 33.7969 26.3416 33.6776 26.3245 33.5504C26.3074 33.4231 26.3289 33.2936 26.3861 33.1786L28.024 29.8911L24.9744 28.9699ZM17.477 46C17.3674 46.0001 17.2596 45.9721 17.1638 45.9188C17.0681 45.8655 16.9876 45.7885 16.9299 45.6953L10.4925 35.2877C10.4194 35.1702 10.3861 35.0322 10.3977 34.8943C10.4093 34.7563 10.4651 34.6258 10.5568 34.5221L11.5918 33.3605L9.80723 29.7799C9.7659 29.6961 9.74331 29.6044 9.74104 29.511C9.73876 29.4177 9.75685 29.3249 9.79405 29.2393C9.83125 29.1536 9.88666 29.0771 9.95644 29.015C10.0262 28.953 10.1087 28.9069 10.1981 28.8799L14.6877 27.5267C14.7758 27.5003 14.8687 27.4931 14.9599 27.5056C15.0511 27.5181 15.1385 27.5501 15.2163 27.5993C15.294 27.6486 15.3603 27.714 15.4107 27.791C15.461 27.8681 15.4941 27.9551 15.5079 28.0461L18.1108 45.2633C18.1243 45.3545 18.118 45.4475 18.0923 45.5361C18.0667 45.6246 18.0223 45.7066 17.9622 45.7764C17.902 45.8463 17.8276 45.9024 17.7439 45.941C17.6602 45.9796 17.5691 45.9997 17.477 46ZM11.838 35.019L16.3719 42.3474L14.3502 28.9699L11.3006 29.8892L12.9379 33.1766C12.9952 33.2916 13.0167 33.421 12.9998 33.5483C12.9828 33.6756 12.9281 33.7949 12.8427 33.8908L11.838 35.019Z" stroke="url(#paint9_linear_1_446)" stroke-width="0.5"/>
<path d="M19.7107 34.0142C18.3208 34.0132 16.9321 33.9291 15.5522 33.7622C15.4666 33.7544 15.3835 33.7295 15.3077 33.689C15.2319 33.6484 15.165 33.5931 15.111 33.5263C15.057 33.4595 15.0169 33.3825 14.9931 33.3C14.9693 33.2174 14.9623 33.1309 14.9726 33.0456C14.9828 32.9602 15.01 32.8778 15.0527 32.8032C15.0953 32.7286 15.1524 32.6633 15.2207 32.6111C15.289 32.559 15.3671 32.5211 15.4503 32.4996C15.5335 32.4782 15.6202 32.4736 15.7052 32.4862C18.3324 32.8093 20.9894 32.8093 23.6166 32.4862C23.7842 32.4681 23.9521 32.5165 24.0844 32.621C24.2166 32.7255 24.3025 32.8778 24.3235 33.045C24.3446 33.2122 24.2992 33.381 24.197 33.515C24.0949 33.649 23.9441 33.7376 23.7773 33.7616C22.4284 33.9309 21.0702 34.0153 19.7107 34.0142ZM24.451 28.7828C24.351 28.7824 24.2524 28.7587 24.1631 28.7135C24.0738 28.6683 23.9963 28.6029 23.9368 28.5225C22.9815 27.231 22.8086 24.6712 22.7925 24.3839C22.7827 24.2137 22.8408 24.0466 22.9541 23.9193C23.0674 23.792 23.2266 23.715 23.3968 23.705C23.5664 23.697 23.7325 23.7558 23.8594 23.8688C23.9863 23.9817 24.0639 24.1398 24.0756 24.3093C24.1148 24.9855 24.3527 26.9237 24.9698 27.7581C25.0403 27.8536 25.083 27.9668 25.0932 28.0851C25.1033 28.2034 25.0805 28.3222 25.0272 28.4283C24.9739 28.5344 24.8923 28.6237 24.7914 28.6863C24.6905 28.7489 24.5743 28.7823 24.4555 28.7828H24.451ZM14.8746 28.7828C14.7559 28.7823 14.6396 28.7489 14.5387 28.6863C14.4378 28.6237 14.3562 28.5344 14.303 28.4283C14.2497 28.3222 14.2269 28.2034 14.237 28.0851C14.2471 27.9668 14.2898 27.8536 14.3604 27.7581C14.9788 26.9224 15.216 24.9849 15.2552 24.3093C15.2601 24.2249 15.2816 24.1422 15.3184 24.0661C15.3552 23.99 15.4067 23.9219 15.4698 23.8656C15.533 23.8094 15.6066 23.7662 15.6865 23.7384C15.7663 23.7106 15.8509 23.6988 15.9353 23.7037C16.0197 23.7086 16.1024 23.7301 16.1785 23.7669C16.2546 23.8038 16.3227 23.8552 16.379 23.9184C16.4352 23.9815 16.4784 24.0551 16.5062 24.135C16.534 24.2149 16.5458 24.2994 16.5409 24.3839C16.5248 24.6712 16.348 27.231 15.3966 28.5225C15.3363 28.6039 15.2576 28.67 15.1669 28.7152C15.0761 28.7605 14.976 28.7836 14.8746 28.7828ZM32.6562 36.9899C32.4889 36.99 32.3282 36.9249 32.2082 36.8083C32.0881 36.6917 32.0183 36.533 32.0134 36.3657C31.8932 32.1796 30.3015 30.8624 30.2861 30.8495C30.1533 30.7441 30.0671 30.5907 30.0462 30.4224C30.0253 30.2541 30.0713 30.0843 30.1742 29.9496C30.2765 29.8159 30.4273 29.7279 30.594 29.7048C30.7607 29.6817 30.9298 29.7253 31.0646 29.8261C31.1494 29.8904 33.1583 31.4506 33.2991 36.3285C33.3039 36.4988 33.241 36.664 33.1241 36.7879C33.0071 36.9118 32.8458 36.9843 32.6755 36.9893L32.6562 36.9899Z" stroke="url(#paint10_linear_1_446)" stroke-width="0.5"/>
<path d="M32.6593 40.7853C32.1567 40.7854 31.6653 40.6365 31.2474 40.3574C30.8294 40.0782 30.5036 39.6814 30.3111 39.2171C30.1187 38.7527 30.0683 38.2418 30.1663 37.7488C30.2643 37.2558 30.5062 36.803 30.8616 36.4475C31.2169 36.0921 31.6697 35.85 32.1627 35.7519C32.6556 35.6538 33.1666 35.7041 33.631 35.8964C34.0954 36.0887 34.4923 36.4144 34.7715 36.8323C35.0508 37.2502 35.1998 37.7415 35.1998 38.2442C35.1991 38.9178 34.9313 39.5636 34.455 40.04C33.9787 40.5164 33.333 40.7845 32.6593 40.7853ZM32.6593 36.9887C32.411 36.9886 32.1682 37.0621 31.9616 37.2C31.7551 37.3378 31.5941 37.5339 31.499 37.7633C31.4038 37.9927 31.3789 38.2451 31.4273 38.4887C31.4756 38.7323 31.5951 38.956 31.7707 39.1317C31.9463 39.3073 32.17 39.4269 32.4135 39.4754C32.6571 39.5239 32.9095 39.4991 33.139 39.4041C33.3684 39.3091 33.5645 39.1482 33.7025 38.9417C33.8405 38.7352 33.9141 38.4925 33.9141 38.2442C33.9138 37.9114 33.7815 37.5924 33.5463 37.357C33.311 37.1217 32.9921 36.9892 32.6593 36.9887ZM6.25273 36.99C6.08986 36.9904 5.9329 36.929 5.81358 36.8181C5.69425 36.7072 5.62145 36.5552 5.60989 36.3928C5.25954 31.459 7.97811 29.8821 8.09382 29.8172C8.24232 29.7334 8.41803 29.712 8.58228 29.7577C8.74654 29.8035 8.8859 29.9126 8.9697 30.0611C9.05349 30.2096 9.07486 30.3853 9.02911 30.5496C8.98336 30.7138 8.87424 30.8532 8.72574 30.937C8.62803 30.9948 6.60436 32.2439 6.89171 36.3021C6.90373 36.4722 6.8477 36.6401 6.73595 36.7688C6.62419 36.8976 6.46587 36.9767 6.2958 36.9887L6.25273 36.99Z" stroke="url(#paint11_linear_1_446)" stroke-width="0.5"/>
<path d="M4.95242 42.1372C4.85295 42.1376 4.75473 42.115 4.66549 42.071C4.57625 42.0271 4.49843 41.963 4.43815 41.8839C4.12435 41.4718 3.89319 41.0029 3.75738 40.5031C3.45896 39.5295 3.55687 38.4774 4.02981 37.5756C4.50275 36.6738 5.31251 35.995 6.2831 35.6869C6.74347 35.5575 7.22502 35.521 7.69962 35.5797C8.17423 35.6385 8.63238 35.7911 9.04731 36.0289C9.7745 36.449 10.3561 37.0811 10.7145 37.8406C11.0729 38.6001 11.191 39.451 11.053 40.2794C11.025 40.4476 10.9314 40.5977 10.7927 40.6969C10.654 40.7961 10.4816 40.8361 10.3134 40.8081C10.1452 40.7801 9.995 40.6865 9.89584 40.5478C9.79669 40.4091 9.75669 40.2367 9.78465 40.0685C9.879 39.5009 9.79886 38.918 9.55484 38.3969C9.31081 37.8758 8.91439 37.441 8.41797 37.15C8.1503 36.9955 7.85452 36.8958 7.5479 36.8568C7.24129 36.8179 6.92998 36.8404 6.63216 36.9231C5.98802 37.1385 5.45479 37.5992 5.14816 38.2053C4.84152 38.8113 4.7862 39.5139 4.9942 40.1604C5.08722 40.5026 5.24572 40.8235 5.46091 41.1054C5.5333 41.2007 5.57766 41.3143 5.58901 41.4334C5.60035 41.5525 5.57822 41.6724 5.52511 41.7797C5.472 41.8869 5.39001 41.9772 5.28838 42.0403C5.18675 42.1035 5.06951 42.137 4.94985 42.1372H4.95242Z" stroke="url(#paint12_linear_1_446)" stroke-width="0.5"/>
<path d="M10.4273 40.8181C10.4022 40.8181 10.3765 40.8181 10.3508 40.8142L9.6263 40.7287C9.54243 40.7187 9.46134 40.6924 9.38766 40.6511C9.31399 40.6098 9.24917 40.5544 9.19691 40.488C9.14465 40.4217 9.10597 40.3457 9.08308 40.2644C9.06018 40.1831 9.05353 40.0981 9.06349 40.0142C9.07345 39.9303 9.09984 39.8492 9.14113 39.7756C9.18243 39.7019 9.23784 39.6371 9.30419 39.5848C9.43818 39.4793 9.60862 39.4313 9.77801 39.4514L10.5025 39.5375C10.6652 39.5569 10.8144 39.6376 10.9195 39.7633C11.0247 39.8889 11.0779 40.05 11.0683 40.2135C11.0587 40.3771 10.987 40.5308 10.8679 40.6433C10.7487 40.7558 10.5911 40.8179 10.4273 40.8181ZM4.95221 42.143C4.80127 42.1432 4.65507 42.0903 4.53923 41.9935C4.42338 41.8967 4.34528 41.7623 4.31861 41.6137C4.29193 41.4652 4.31838 41.312 4.39332 41.1809C4.46826 41.0499 4.58692 40.9494 4.7285 40.8971L5.49991 40.6124C5.57905 40.5828 5.66324 40.5691 5.74766 40.5721C5.83209 40.5751 5.9151 40.5947 5.99195 40.6298C6.06881 40.6648 6.138 40.7147 6.19559 40.7765C6.25317 40.8383 6.29802 40.9109 6.32756 40.99C6.35711 41.0692 6.37078 41.1534 6.36779 41.2378C6.3648 41.3222 6.34521 41.4052 6.31014 41.4821C6.27507 41.5589 6.22521 41.6281 6.1634 41.6857C6.10158 41.7433 6.02904 41.7881 5.94989 41.8177L5.17849 42.1031C5.10606 42.1299 5.02941 42.1434 4.95221 42.143Z" stroke="url(#paint13_linear_1_446)" stroke-width="0.5"/>
<defs>
<linearGradient id="paint0_linear_1_446" x1="1" y1="1" x2="48.1121" y2="32.6508" gradientUnits="userSpaceOnUse">
<stop stop-color="#FE5B52"/>
<stop offset="1" stop-color="#3D96F5"/>
</linearGradient>
<linearGradient id="paint1_linear_1_446" x1="1" y1="1" x2="48.1121" y2="32.6508" gradientUnits="userSpaceOnUse">
<stop stop-color="#FE5B52"/>
<stop offset="1" stop-color="#3D96F5"/>
</linearGradient>
<linearGradient id="paint2_linear_1_446" x1="1" y1="1" x2="48.1121" y2="32.6508" gradientUnits="userSpaceOnUse">
<stop stop-color="#FE5B52"/>
<stop offset="1" stop-color="#3D96F5"/>
</linearGradient>
<linearGradient id="paint3_linear_1_446" x1="1" y1="1" x2="48.1121" y2="32.6508" gradientUnits="userSpaceOnUse">
<stop stop-color="#FE5B52"/>
<stop offset="1" stop-color="#3D96F5"/>
</linearGradient>
<linearGradient id="paint4_linear_1_446" x1="1" y1="1" x2="48.1121" y2="32.6508" gradientUnits="userSpaceOnUse">
<stop stop-color="#FE5B52"/>
<stop offset="1" stop-color="#3D96F5"/>
</linearGradient>
<linearGradient id="paint5_linear_1_446" x1="1" y1="1" x2="48.1121" y2="32.6508" gradientUnits="userSpaceOnUse">
<stop stop-color="#FE5B52"/>
<stop offset="1" stop-color="#3D96F5"/>
</linearGradient>
<linearGradient id="paint6_linear_1_446" x1="1" y1="1" x2="48.1121" y2="32.6508" gradientUnits="userSpaceOnUse">
<stop stop-color="#FE5B52"/>
<stop offset="1" stop-color="#3D96F5"/>
</linearGradient>
<linearGradient id="paint7_linear_1_446" x1="1" y1="1" x2="45.7308" y2="38.1687" gradientUnits="userSpaceOnUse">
<stop stop-color="#FE5B52"/>
<stop offset="1" stop-color="#3D96F5"/>
</linearGradient>
<linearGradient id="paint8_linear_1_446" x1="1" y1="1" x2="45.7308" y2="38.1687" gradientUnits="userSpaceOnUse">
<stop stop-color="#FE5B52"/>
<stop offset="1" stop-color="#3D96F5"/>
</linearGradient>
<linearGradient id="paint9_linear_1_446" x1="1" y1="1" x2="45.7308" y2="38.1687" gradientUnits="userSpaceOnUse">
<stop stop-color="#FE5B52"/>
<stop offset="1" stop-color="#3D96F5"/>
</linearGradient>
<linearGradient id="paint10_linear_1_446" x1="1" y1="1" x2="45.7308" y2="38.1687" gradientUnits="userSpaceOnUse">
<stop stop-color="#FE5B52"/>
<stop offset="1" stop-color="#3D96F5"/>
</linearGradient>
<linearGradient id="paint11_linear_1_446" x1="1" y1="1" x2="45.7308" y2="38.1687" gradientUnits="userSpaceOnUse">
<stop stop-color="#FE5B52"/>
<stop offset="1" stop-color="#3D96F5"/>
</linearGradient>
<linearGradient id="paint12_linear_1_446" x1="1" y1="1" x2="45.7308" y2="38.1687" gradientUnits="userSpaceOnUse">
<stop stop-color="#FE5B52"/>
<stop offset="1" stop-color="#3D96F5"/>
</linearGradient>
<linearGradient id="paint13_linear_1_446" x1="1" y1="1" x2="45.7308" y2="38.1687" gradientUnits="userSpaceOnUse">
<stop stop-color="#FE5B52"/>
<stop offset="1" stop-color="#3D96F5"/>
</linearGradient>
</defs>
</svg>
