<svg width="51" height="45" viewBox="0 0 51 45" fill="none" xmlns="http://www.w3.org/2000/svg">
<path d="M48.7982 0H8.66972C7.59633 0 6.68807 0.866973 6.68807 1.98165V6.68807H1.98165C0.866973 6.68807 0 7.55505 0 8.66972V43.0183C0 44.0917 0.866973 45 1.98165 45H42.1101C43.1835 45 44.0917 44.133 44.0917 43.0183V38.3119H48.7982C49.8716 38.3119 50.7798 37.445 50.7798 36.3303V1.98165C50.7798 0.866973 49.9128 0 48.7982 0ZM8.66972 1.65138H48.7982C48.9633 1.65138 49.1284 1.77523 49.1284 1.98165V7.6789H8.33945V1.98165C8.33945 1.77523 8.50459 1.65138 8.66972 1.65138ZM1.98165 8.33945H6.68807V14.367H1.65138V8.66972C1.65138 8.50459 1.77523 8.33945 1.98165 8.33945ZM42.4404 43.0183C42.4404 43.1835 42.3165 43.3486 42.1101 43.3486H1.98165C1.81651 43.3486 1.65138 43.2248 1.65138 43.0183V16.0183H6.68807V36.3303C6.68807 37.4037 7.55505 38.3119 8.66972 38.3119H42.4404V43.0183ZM48.7982 36.6606H8.66972C8.50459 36.6606 8.33945 36.5367 8.33945 36.3303V9.33028H49.1284V36.3303C49.1284 36.4954 49.0046 36.6606 48.7982 36.6606Z" fill="url(#paint0_linear_1_452)"/>
<path d="M15.3166 5.32571H12.2615C11.8074 5.32571 11.4358 4.95415 11.4358 4.50002C11.4358 4.04589 11.8074 3.67433 12.2615 3.67433H15.3166C15.7707 3.67433 16.1423 4.04589 16.1423 4.50002C16.1423 4.95415 15.7707 5.32571 15.3166 5.32571ZM22.2936 5.32571H19.2386C18.7845 5.32571 18.4129 4.95415 18.4129 4.50002C18.4129 4.04589 18.7845 3.67433 19.2386 3.67433H22.2936C22.7478 3.67433 23.1193 4.04589 23.1193 4.50002C23.1193 4.95415 22.7478 5.32571 22.2936 5.32571Z" fill="url(#paint1_linear_1_452)"/>
<path d="M16.0593 23.078L23.9033 27.1239V25.5551L17.8758 22.5413L23.9033 19.5275V17.9587L16.0593 21.9633V23.078ZM25.6373 27.6193H27.1235L31.7474 15.6468H30.2199L25.6373 27.6193ZM33.44 17.9587V19.5275L39.5088 22.5413L33.44 25.5551V27.1239L41.2841 23.078V21.9633L33.44 17.9587Z" fill="url(#paint2_linear_1_452)"/>
<defs>
<linearGradient id="paint0_linear_1_452" x1="0" y1="0" x2="45.8475" y2="43.2609" gradientUnits="userSpaceOnUse">
<stop stop-color="#FE5B52"/>
<stop offset="1" stop-color="#3D96F5"/>
</linearGradient>
<linearGradient id="paint1_linear_1_452" x1="0" y1="0" x2="45.8475" y2="43.2609" gradientUnits="userSpaceOnUse">
<stop stop-color="#FE5B52"/>
<stop offset="1" stop-color="#3D96F5"/>
</linearGradient>
<linearGradient id="paint2_linear_1_452" x1="0" y1="0" x2="45.8475" y2="43.2609" gradientUnits="userSpaceOnUse">
<stop stop-color="#FE5B52"/>
<stop offset="1" stop-color="#3D96F5"/>
</linearGradient>
</defs>
</svg>
