<svg width="46" height="47" viewBox="0 0 46 47" fill="none" xmlns="http://www.w3.org/2000/svg">
<path fill-rule="evenodd" clip-rule="evenodd" d="M21.7538 4.35142C18.4207 1.34733 13.6085 0.707891 10.7193 3.70388C7.39292 7.15396 7.39108 12.8118 10.7138 16.2644L12.7083 18.2453C13.0022 18.5372 13.0038 19.0121 12.7119 19.306C12.42 19.5999 11.9451 19.6015 11.6512 19.3096L9.65086 17.3228L9.63946 17.3112C5.75104 13.2781 5.75103 6.69579 9.63946 2.66276C13.3052 -1.13862 19.0847 -0.073534 22.7581 3.2372C22.9264 3.38896 23.0671 3.5213 23.1842 3.63241C23.2122 3.65898 23.2383 3.68378 23.2627 3.70701C23.2769 3.72049 23.2905 3.73344 23.3036 3.74591C23.3155 3.73461 23.3278 3.7229 23.3405 3.71077C23.3661 3.68649 23.3934 3.66048 23.4229 3.6325C23.54 3.52132 23.6806 3.38903 23.849 3.23726C27.5223 -0.0734842 33.3017 -1.13865 36.9677 2.66269C40.856 6.69572 40.8561 13.2781 36.9678 17.3112L36.9565 17.3226L35.4946 18.7756L24.7562 29.4263C24.7368 29.4455 24.7163 29.4637 24.6949 29.4808C24.6608 29.5078 24.6269 29.5349 24.5932 29.5619C24.4172 29.7025 24.2466 29.8388 24.0982 29.9386C23.9193 30.0587 23.6594 30.2074 23.3299 30.2184C23.3133 30.2189 23.2967 30.2189 23.2802 30.2184C22.9506 30.2075 22.6906 30.0601 22.5099 29.939C22.3606 29.8389 22.1893 29.702 22.013 29.5612C21.9796 29.5344 21.9459 29.5076 21.9123 29.4808C21.8908 29.4637 21.8703 29.4455 21.8509 29.4262L19.2804 26.8762C19.2757 26.8717 19.271 26.8671 19.2664 26.8625C19.263 26.8592 19.2597 26.8558 19.2565 26.8524L16.7605 24.3763C16.7523 24.3688 16.7443 24.3612 16.7363 24.3533C16.7289 24.3459 16.7217 24.3384 16.7146 24.3308L13.7416 21.3814C13.4476 21.0897 13.4457 20.6148 13.7374 20.3208C14.0291 20.0267 14.504 20.0248 14.7981 20.3166L17.2622 22.7611L19.7399 20.2703C18.957 19.4684 18.2357 18.7007 17.6427 17.9436C16.9593 17.0711 16.4138 16.1729 16.1388 15.1992C15.5659 13.1706 16.2358 11.1012 18.3645 8.61599C19.4666 7.27229 21.4663 6.69764 23.3032 6.69764C25.1402 6.69764 27.1398 7.27229 28.2419 8.61598C30.3705 11.101 31.0413 13.1704 30.469 15.1991C30.1943 16.1728 29.6489 17.0711 28.9654 17.9437C28.3724 18.7009 27.6508 19.4685 26.8675 20.2705L29.3456 22.7617L34.4372 17.7117L35.8934 16.2644C39.216 12.8118 39.2142 7.15396 35.8879 3.70388C32.9985 0.70788 28.1864 1.34735 24.8533 4.35142C24.6985 4.49097 24.5683 4.61337 24.4555 4.72043C24.4312 4.74349 24.4072 4.76639 24.3835 4.78893C24.301 4.86742 24.2231 4.94159 24.1556 5.00321C24.0719 5.07958 23.9694 5.16918 23.8596 5.24078C23.7537 5.30983 23.5601 5.41696 23.3049 5.41696C23.0514 5.41696 22.8583 5.31184 22.7505 5.24201C22.6397 5.17022 22.5366 5.08035 22.4524 5.00372C22.3836 4.94109 22.3044 4.86571 22.2206 4.786C22.1979 4.76444 22.1749 4.74255 22.1517 4.72052C22.0388 4.61338 21.9086 4.49098 21.7538 4.35142ZM28.2806 23.818L25.2814 20.8029L25.2788 20.8003L20.9293 16.3852C19.8077 15.2442 19.0503 14.2952 18.6205 13.151C18.5601 12.9902 18.5068 12.8271 18.4599 12.6608C18.4511 12.6345 18.4437 12.6079 18.4379 12.5809C18.3337 12.192 18.264 11.7851 18.2213 11.3488C17.4038 12.7433 17.3094 13.8248 17.5824 14.7915C17.7832 15.5027 18.2012 16.224 18.8236 17.0187C19.4468 17.8144 20.2423 18.6436 21.1668 19.5831C21.1667 19.583 21.167 19.5833 21.1668 19.5831L23.8358 22.2905L23.8391 22.2939L26.8134 25.2731L28.2806 23.818ZM25.7484 26.3294L23.3048 23.8818L20.8592 26.3295L22.8782 28.3324C22.9084 28.3565 22.9369 28.3792 22.9639 28.4007C23.1163 28.5223 23.2191 28.6043 23.3037 28.6644C23.3879 28.6044 23.4905 28.5226 23.6418 28.4019C23.6692 28.38 23.6982 28.3569 23.729 28.3324L25.7484 26.3294ZM19.7943 25.2731L22.2483 22.8169L20.792 21.3396L18.3271 23.8176L19.7943 25.2731ZM19.6788 9.39665C19.6567 10.0664 19.6637 10.6256 19.7057 11.1111C20.7608 10.5365 22.0632 10.2759 23.3037 10.2759C24.5441 10.2759 25.8462 10.5364 26.9012 11.1108C26.9429 10.6254 26.9498 10.0663 26.9277 9.39665C26.1843 8.64962 24.8143 8.19764 23.3032 8.19764C21.7921 8.19764 20.4221 8.64962 19.6788 9.39665ZM28.3856 11.3493C28.343 11.786 28.2733 12.1935 28.1691 12.5828C28.1635 12.6082 28.1566 12.6334 28.1484 12.6582C28.1015 12.8253 28.048 12.9891 27.9874 13.1507C27.5581 14.2951 26.8013 15.2437 25.6782 16.3849L24.3563 17.7265L25.8121 19.2043C26.5797 18.4178 27.2465 17.7057 27.7846 17.0188C28.407 16.2242 28.8247 15.5029 29.0253 14.7918C29.298 13.8252 29.2032 12.7437 28.3856 11.3493ZM23.3035 16.6578L24.6091 15.3328C25.6727 14.2521 26.2466 13.4936 26.5663 12.6677C25.78 12.1027 24.5852 11.7759 23.3037 11.7759C22.0224 11.7759 20.8277 12.1027 20.0415 12.6675C20.3616 13.4936 20.9359 14.2522 21.9985 15.3331L23.3035 16.6578ZM5.26056 21.5566C6.39293 20.6878 8.14374 20.3787 9.33391 21.6115C10.5834 22.9086 10.5831 25.0164 9.33514 26.3151L9.32141 26.3291L8.92646 26.7192L6.03737 29.5854C6.01756 29.6051 5.99666 29.6236 5.97477 29.6409C5.9691 29.6454 5.96284 29.6504 5.9561 29.6558C5.9097 29.6927 5.84021 29.7481 5.77681 29.7902C5.70492 29.838 5.53178 29.9464 5.2912 29.9563C5.27064 29.9572 5.25005 29.9572 5.22949 29.9563C4.98597 29.9463 4.81199 29.8352 4.74244 29.7886C4.68679 29.7513 4.62054 29.6994 4.57652 29.6649C4.56725 29.6576 4.55896 29.6511 4.55196 29.6457C4.52788 29.627 4.50495 29.6069 4.48332 29.5854L1.59309 26.7181L1.20013 26.3273L1.18888 26.3159C-0.062608 25.0169 -0.0635315 22.9086 1.18954 21.6113C2.37924 20.3791 4.1297 20.6874 5.26056 21.5566ZM5.42611 21.8006L5.48078 21.74C5.4805 21.7398 5.48022 21.7395 5.47993 21.7393C5.47965 21.739 5.47937 21.7387 5.47909 21.7385L5.42387 21.8C5.38713 21.7911 5.34617 21.7844 5.30145 21.7817C5.27406 21.7802 5.24662 21.78 5.21923 21.7815C5.17451 21.7842 5.13356 21.7911 5.09682 21.8L5.0416 21.7385C5.04129 21.7388 5.04097 21.7391 5.04066 21.7393M5.42611 21.8006C5.42536 21.8004 5.42462 21.8002 5.42387 21.8L5.26035 21.9823L5.09682 21.8M8.25468 22.6532C7.76043 22.1414 6.81769 22.1578 6.0443 22.8541L6.04335 22.855C6.00705 22.8875 5.97611 22.9166 5.94753 22.9437C5.94246 22.9485 5.93688 22.9538 5.93097 22.9594C5.90857 22.9808 5.88138 23.0067 5.85852 23.0275C5.83321 23.0506 5.77561 23.1028 5.70251 23.1494C5.63699 23.1911 5.4792 23.2811 5.26035 23.2804C5.04149 23.2811 4.8837 23.1911 4.81818 23.1494C4.74509 23.1028 4.68748 23.0506 4.66217 23.0275C4.63931 23.0066 4.61212 22.9808 4.58972 22.9594C4.58381 22.9538 4.57823 22.9485 4.57316 22.9437C4.54458 22.9166 4.51364 22.8875 4.47734 22.855L4.47565 22.8534C3.70546 22.1582 2.76288 22.1412 2.26859 22.6533C1.57938 23.3668 1.57663 24.5506 2.26403 25.2698L2.64952 25.6532L5.26034 28.2433L7.87117 25.6532L8.25968 25.2694C8.9441 24.5501 8.94126 23.3666 8.25468 22.6532ZM40.6348 21.8006C40.7383 21.826 40.8079 21.8684 40.8331 21.8845C40.8586 21.9007 40.8751 21.9141 40.88 21.9181C40.8831 21.9206 40.8848 21.9221 40.8848 21.9221C40.8848 21.9221 40.8837 21.9211 40.8814 21.919C40.8716 21.9101 40.8613 21.9003 40.8433 21.8832C40.8354 21.8756 40.826 21.8666 40.8145 21.8557C40.7812 21.8241 40.7393 21.7847 40.6887 21.7393C40.6885 21.7391 40.6882 21.7389 40.688 21.7386L40.6328 21.8001C40.5954 21.791 40.5536 21.7842 40.508 21.7815C40.4813 21.7801 40.4546 21.78 40.4279 21.7815C40.3839 21.7841 40.3436 21.791 40.3075 21.7997L40.2526 21.7386C40.2522 21.739 40.2519 21.7393 40.2515 21.7397C40.3214 21.6766 40.3944 21.6157 40.4703 21.5574M36.398 21.6115C35.1451 22.9088 35.1461 25.0169 36.3974 26.3158L36.4105 26.3291L36.8041 26.7179L36.8054 26.7192L39.6918 29.5852C39.7135 29.6067 39.7364 29.6268 39.7605 29.6455C39.7675 29.6509 39.7758 29.6574 39.785 29.6647C39.829 29.6992 39.8953 29.7512 39.951 29.7885C40.0206 29.8352 40.1946 29.9463 40.4381 29.9563C40.4583 29.9572 40.4785 29.9572 40.4986 29.9564C40.7391 29.9469 40.9116 29.8401 40.9868 29.7902C41.0447 29.7516 41.1126 29.6984 41.1568 29.6637C41.1656 29.6567 41.1735 29.6505 41.1802 29.6453C41.2043 29.6267 41.2271 29.6066 41.2487 29.5852L44.1351 26.7192L44.5301 26.3291L44.5431 26.3159C45.7945 25.017 45.7955 22.9088 44.5426 21.6115M40.3054 21.8002C40.3061 21.8 40.3068 21.7999 40.3075 21.7997L40.4703 21.9811L40.4695 21.982L40.3054 21.8002ZM40.4703 21.9828L40.187 22.2967L40.4695 21.982L40.4703 21.9828ZM40.4711 21.982L40.4703 21.9811L40.6328 21.8001C40.6335 21.8003 40.6341 21.8004 40.6348 21.8006L40.4711 21.982ZM40.4711 21.982L40.7537 22.2967L40.4703 21.9828L40.4711 21.982ZM40.3054 21.8002C40.2083 21.8239 40.1413 21.8627 40.1132 21.8801C40.0869 21.8965 40.0696 21.9102 40.064 21.9147C40.0578 21.9197 40.0561 21.9215 40.0611 21.917C40.0742 21.9051 40.0892 21.8906 40.1265 21.8553C40.1594 21.8241 40.2011 21.7849 40.2515 21.7397C40.2513 21.7398 40.2516 21.7396 40.2515 21.7397L40.3054 21.8002ZM39.6844 22.8535C38.9141 22.1582 37.9715 22.1412 37.4771 22.6533C36.7883 23.3666 36.7853 24.5497 37.4718 25.269L37.8596 25.6521L37.8609 25.6534L40.4703 28.2443L43.0796 25.6534L43.4687 25.269C44.1553 24.5497 44.1525 23.3667 43.4635 22.6534C42.9691 22.1413 42.0264 22.1582 41.2562 22.8534L41.2547 22.8548C41.2183 22.8874 41.1874 22.9165 41.1584 22.944C41.1336 22.9675 41.0975 23.0021 41.0673 23.0294C41.0407 23.0534 40.9815 23.1065 40.9058 23.1537C40.8347 23.1979 40.6802 23.2811 40.4691 23.2804C40.2502 23.2812 40.0924 23.1911 40.0268 23.1493C39.9537 23.1027 39.8961 23.0505 39.8708 23.0274C39.8479 23.0065 39.8207 22.9806 39.7983 22.9593C39.7924 22.9537 39.7868 22.9484 39.7817 22.9436C39.7532 22.9164 39.7222 22.8874 39.6859 22.8548L39.6844 22.8535ZM7.74425 33.7431L21.7945 33.7407C22.2087 33.7406 22.5444 33.4047 22.5443 32.9905C22.5443 32.5763 22.2084 32.2406 21.7942 32.2407L7.4533 32.2432C7.45326 32.2432 7.45335 32.2432 7.4533 32.2432C6.78693 32.2433 6.24425 32.7879 6.24425 33.4528L6.24425 45.5419C6.24488 45.8618 6.37217 46.1685 6.59829 46.3949C6.82442 46.6213 7.13098 46.749 7.45095 46.75L7.4533 46.75H39.2847L39.2871 46.75C39.607 46.749 39.9136 46.6213 40.1397 46.3949C40.3659 46.1685 40.4931 45.8618 40.4938 45.5419V33.4528C40.4938 32.7878 39.951 32.2433 39.2849 32.2432C39.2848 32.2432 39.2849 32.2432 39.2849 32.2432L25.449 32.2407C25.0348 32.2406 24.6989 32.5763 24.6988 32.9905C24.6988 33.4047 25.0345 33.7406 25.4487 33.7407L38.9938 33.7431V45.25H7.74425V33.7431ZM16.2318 35.7034C16.646 35.6995 16.985 36.032 16.9889 36.4462L17.0453 42.3271L17.0454 42.3343C17.0454 42.4362 17.0311 42.5607 16.9816 42.6893C16.9349 42.8104 16.8315 42.9968 16.6155 43.1191C16.3687 43.2589 16.0961 43.246 15.8844 43.1494C15.7 43.0652 15.5862 42.9325 15.5236 42.8425L15.5217 42.8398L12.7857 38.8741V42.5396C12.7857 42.9538 12.4499 43.2896 12.0357 43.2896C11.6215 43.2896 11.2857 42.9538 11.2857 42.5396V36.4663C11.2857 36.138 11.4992 35.8478 11.8126 35.7502C12.1261 35.6526 12.4666 35.7701 12.653 36.0403L15.5249 40.203L15.489 36.4606C15.485 36.0464 15.8176 35.7074 16.2318 35.7034ZM19.303 39.4979C19.303 37.403 20.9999 35.7035 23.0946 35.7035C23.8786 35.7035 24.6083 35.9442 25.2142 36.3527C25.5577 36.5843 25.6483 37.0504 25.4168 37.3939C25.1852 37.7373 24.7191 37.828 24.3756 37.5964C24.0069 37.3478 23.5672 37.2035 23.0946 37.2035C21.8296 37.2035 20.803 38.2301 20.803 39.4979C20.803 40.7648 21.8288 41.7897 23.0946 41.7897C23.7095 41.7897 24.1505 41.5497 24.4528 41.1769C24.6483 40.9358 24.7993 40.6208 24.886 40.2479H23.8999C23.4857 40.2479 23.1499 39.9121 23.1499 39.4979C23.1499 39.0837 23.4857 38.7479 23.8999 38.7479H25.7182C26.1324 38.7479 26.4682 39.0837 26.4682 39.4979C26.4682 40.4718 26.1946 41.4105 25.6179 42.1217C25.0277 42.8494 24.1569 43.2897 23.0946 43.2897C21.0007 43.2897 19.303 41.5936 19.303 39.4979ZM27.8707 39.4979C27.8707 37.408 29.5726 35.7035 31.6623 35.7035C33.7527 35.7035 35.4513 37.4089 35.4513 39.4979C35.4513 41.5877 33.7518 43.2897 31.6623 43.2897C29.5735 43.2897 27.8707 41.5885 27.8707 39.4979ZM31.6623 37.2035C30.4024 37.2035 29.3707 38.2352 29.3707 39.4979C29.3707 40.7597 30.4015 41.7897 31.6623 41.7897C32.9221 41.7897 33.9513 40.7606 33.9513 39.4979C33.9513 38.2343 32.9213 37.2035 31.6623 37.2035Z" fill="url(#paint0_linear_1_416)"/>
<defs>
<linearGradient id="paint0_linear_1_416" x1="0.25" y1="0.247986" x2="46.7126" y2="38.0381" gradientUnits="userSpaceOnUse">
<stop stop-color="#FE5B52"/>
<stop offset="1" stop-color="#3D96F5"/>
</linearGradient>
</defs>
</svg>
