<svg width="32" height="32" viewBox="0 0 32 32" fill="none" xmlns="http://www.w3.org/2000/svg">
<g style="mix-blend-mode:multiply">
<path d="M22.6306 8.63145C22.6306 12.2939 19.662 15.2629 16 15.2629C12.338 15.2629 9.3694 12.2939 9.3694 8.63145C9.3694 4.969 12.338 2 16 2C19.662 2 22.6306 4.969 22.6306 8.63145Z" fill="#84979C" fill-opacity="0.8"/>
</g>
<g style="mix-blend-mode:multiply">
<path d="M22.6306 23.3685C22.6306 27.031 19.662 30 16 30C12.338 30 9.36938 27.031 9.36938 23.3685C9.36938 19.7061 12.338 16.7371 16 16.7371C19.662 16.7371 22.6306 19.7061 22.6306 23.3685Z" fill="#84979C" fill-opacity="0.8"/>
</g>
<g style="mix-blend-mode:multiply">
<path d="M21.6516 22.407C18.1144 21.4591 16.0153 17.8228 16.9631 14.2852C17.9108 10.7475 21.5467 8.6481 25.0839 9.59602C28.6211 10.5439 30.7202 14.1802 29.7724 17.7178C28.8246 21.2555 25.1888 23.3549 21.6516 22.407Z" fill="#007BFF" fill-opacity="0.8"/>
</g>
<g style="mix-blend-mode:multiply">
<path d="M6.91613 22.407C3.37892 21.4591 1.27979 17.8228 2.22758 14.2852C3.17537 10.7475 6.81118 8.6481 10.3484 9.59602C13.8856 10.5439 15.9847 14.1802 15.0369 17.7178C14.0891 21.2555 10.4533 23.3549 6.91613 22.407Z" fill="#007BFF" fill-opacity="0.8"/>
</g>
<path d="M13.6309 7.00085H15.367C17.0239 7.00085 18.367 8.344 18.367 10.0009V25.0005H16.6309C14.974 25.0005 13.6309 23.6574 13.6309 22.0005V7.00085Z" fill="white"/>
<path d="M24.9977 13.6323L24.9977 15.3691C24.9977 17.0259 23.6545 18.3691 21.9977 18.3691L7.00031 18.3691L7.00031 16.6323C7.00031 14.9755 8.34346 13.6323 10.0003 13.6323L24.9977 13.6323Z" fill="white"/>
</svg>
