<svg width="32" height="32" viewBox="0 0 32 32" fill="none" xmlns="http://www.w3.org/2000/svg">
<path d="M0.426777 12.24L11.8323 0.834465C11.9263 0.740445 12.0775 0.73647 12.1763 0.825419L18.5839 6.59226C18.6366 6.63968 18.6667 6.70722 18.6667 6.77809V31.0834C18.6667 31.2215 18.5547 31.3334 18.4167 31.3334H5.58333C5.44526 31.3334 5.33333 31.2215 5.33333 31.0834V12.9167C5.33333 12.7787 5.2214 12.6667 5.08333 12.6667H0.603553C0.380827 12.6667 0.269285 12.3975 0.426777 12.24Z" fill="#FFA200"/>
<circle cx="21.1328" cy="15.6667" r="10" fill="white"/>
<path d="M0.0960992 12.5318C0.190577 12.7612 0.351164 12.9572 0.557419 13.095C0.763674 13.2329 1.00627 13.3062 1.25432 13.3057L5.07976 13.305L5.07976 30.4956C5.07976 31.3251 5.75459 32 6.58411 32L17.5213 32C18.3508 32 19.0257 31.3251 19.0257 30.4956V26.2434C19.8058 26.4245 20.604 26.5158 21.4049 26.5154C27.1941 26.5154 31.904 21.8055 31.904 16.0163C31.904 10.227 27.1941 5.51715 21.4049 5.51715C20.3969 5.51715 19.4219 5.66025 18.4986 5.92665L12.9391 0.367192C12.823 0.250416 12.6848 0.157835 12.5327 0.0948071C12.3805 0.0317793 12.2174 -0.00044318 12.0527 4.60364e-06C11.7178 4.57437e-06 11.403 0.130382 11.1662 0.367192L0.367885 11.1656C0.192122 11.3406 0.0724215 11.564 0.0240218 11.8073C-0.0243778 12.0506 0.00071267 12.3028 0.0960992 12.5318ZM30.9011 16.0163C30.9011 21.2525 26.6411 25.5125 21.4049 25.5125C16.1686 25.5125 11.9086 21.2525 11.9086 16.0163C11.9086 10.7801 16.1686 6.52005 21.4049 6.52005C26.6411 6.52005 30.9011 10.7801 30.9011 16.0163ZM1.077 11.8748L11.8754 1.07631C11.8987 1.053 11.9263 1.03452 11.9567 1.02194C11.9872 1.00935 12.0198 1.0029 12.0527 1.00297C12.0915 1.00297 12.1661 1.0125 12.23 1.07637L17.4464 6.29271C13.6136 7.85867 10.9057 11.6269 10.9057 16.0163C10.9057 20.6227 13.8878 24.5456 18.0228 25.9564V30.4956C18.0228 30.7721 17.7978 30.9971 17.5213 30.9971H6.58405C6.30763 30.9971 6.0826 30.7721 6.0826 30.4956L6.0826 13.3057C6.0826 12.7527 5.63274 12.3028 5.0797 12.3028H1.25426C1.10314 12.3028 1.04196 12.1945 1.02266 12.148C1.00341 12.1014 0.970129 11.9817 1.077 11.8748Z" fill="black"/>
<path d="M21.0571 12.8968H21.9561C22.5415 12.8968 23.0179 13.3731 23.0179 13.9586C23.0179 14.0916 23.0707 14.2192 23.1648 14.3132C23.2588 14.4073 23.3863 14.4601 23.5193 14.4601C23.6523 14.4601 23.7799 14.4073 23.8739 14.3132C23.968 14.2192 24.0208 14.0916 24.0208 13.9586C24.0208 12.8375 23.1225 11.923 22.008 11.8952V11.415C22.008 11.282 21.9552 11.1544 21.8612 11.0604C21.7671 10.9664 21.6396 10.9135 21.5066 10.9135C21.3736 10.9135 21.246 10.9664 21.152 11.0604C21.058 11.1544 21.0051 11.282 21.0051 11.415V11.8952C19.8907 11.923 18.9924 12.8375 18.9924 13.9586V14.4212C18.9924 15.5597 19.9186 16.4858 21.0571 16.4858H21.9561C22.5415 16.4858 23.0179 16.9621 23.0179 17.5477V18.0101C23.0179 18.5956 22.5415 19.0719 21.9561 19.0719H21.0572C20.4717 19.0719 19.9953 18.5956 19.9953 18.0101V17.9669C19.9953 17.8339 19.9425 17.7063 19.8485 17.6123C19.7544 17.5182 19.6269 17.4654 19.4939 17.4654C19.3609 17.4654 19.2333 17.5182 19.1393 17.6123C19.0453 17.7063 18.9924 17.8339 18.9924 17.9669V18.0101C18.9924 19.1312 19.8907 20.0458 21.0052 20.0735V20.5538C21.0052 20.6868 21.058 20.8143 21.1521 20.9084C21.2461 21.0024 21.3737 21.0552 21.5066 21.0552C21.6396 21.0552 21.7672 21.0024 21.8612 20.9084C21.9553 20.8143 22.0081 20.6868 22.0081 20.5538V20.0735C23.1226 20.0458 24.0208 19.1312 24.0208 18.0101V17.5476C24.0208 16.4091 23.0946 15.4829 21.9561 15.4829H21.0572C20.4717 15.4829 19.9953 15.0066 19.9953 14.4211V13.9586C19.9953 13.3731 20.4717 12.8968 21.0571 12.8968Z" fill="black"/>
<path d="M21.5064 8.12494C17.1726 8.12494 13.6469 11.6508 13.6469 15.9844C13.6469 20.3181 17.1727 23.8439 21.5064 23.8439C25.8401 23.8439 29.3659 20.3181 29.3659 15.9844C29.3659 11.6508 25.8401 8.12494 21.5064 8.12494ZM21.5064 22.841C17.7257 22.841 14.6498 19.7651 14.6498 15.9844C14.6498 12.2037 17.7257 9.12784 21.5064 9.12784C25.2871 9.12784 28.363 12.2037 28.363 15.9844C28.363 19.7651 25.2871 22.841 21.5064 22.841Z" fill="black"/>
</svg>
