<svg width="48" height="48" viewBox="0 0 48 48" fill="none" xmlns="http://www.w3.org/2000/svg">
<rect width="48" height="48" rx="24" fill="#0089FF"/>
<path d="M24.0011 34.621C29.9406 34.621 34.7727 29.7889 34.7727 23.8493C34.7727 17.9097 29.9406 13.0776 24.0011 13.0776C18.0604 13.0776 13.2272 17.9098 13.2272 23.8493C13.2272 29.7888 18.0604 34.621 24.0011 34.621ZM22.8515 17.8043V17.2473C22.8515 16.9424 22.9726 16.65 23.1882 16.4344C23.4038 16.2188 23.6962 16.0977 24.0011 16.0977C24.306 16.0977 24.5984 16.2188 24.814 16.4344C25.0295 16.65 25.1507 16.9424 25.1507 17.2473V17.8067C26.2249 18.1043 27.1397 18.8082 27.629 19.7642C27.7679 20.0356 27.7932 20.3511 27.6995 20.6412C27.6058 20.9313 27.4007 21.1724 27.1292 21.3113C26.8578 21.4501 26.5423 21.4755 26.2522 21.3818C25.9621 21.2881 25.721 21.083 25.5821 20.8115C25.3139 20.2877 24.6924 19.9493 23.9985 19.9493C23.0737 19.9493 22.2923 20.5791 22.2923 21.3246C22.2923 22.1773 22.5649 22.3738 24.2372 22.7255C25.0444 22.8954 25.8791 23.0709 26.597 23.5441C27.532 24.1607 28.0065 25.1128 28.0065 26.3742C28.0065 28.0332 26.8007 29.4382 25.1507 29.8932V30.4514C25.1507 30.7563 25.0295 31.0487 24.814 31.2643C24.5984 31.4799 24.306 31.601 24.0011 31.601C23.6962 31.601 23.4038 31.4799 23.1882 31.2643C22.9726 31.0487 22.8515 30.7563 22.8515 30.4514V29.8931C21.7764 29.5962 20.8605 28.8917 20.3707 27.9345C20.2326 27.6631 20.2078 27.3481 20.3017 27.0585C20.3956 26.7688 20.6005 26.5283 20.8716 26.3896C21.1426 26.2509 21.4576 26.2254 21.7475 26.3187C22.0373 26.412 22.2783 26.6164 22.4175 26.8872C22.6858 27.411 23.3061 27.7495 23.9985 27.7495C24.9408 27.7495 25.7075 27.1325 25.7075 26.3742C25.7075 25.523 25.4352 25.327 23.7641 24.9754C22.9566 24.8055 22.1214 24.6299 21.4036 24.1563C20.4681 23.5394 19.9934 22.5867 19.9934 21.3246C19.9933 19.664 21.2004 18.258 22.8516 17.8043H22.8515ZM38.7885 31.0488C37.1685 34.3773 34.4729 37.0619 31.1377 38.6682C27.8026 40.2746 24.0231 40.7087 20.4106 39.9004C16.7981 39.0921 13.564 37.0886 11.2314 34.2141C8.8989 31.3396 7.6044 27.7623 7.55736 24.0607L6.95581 24.6622C6.73963 24.8749 6.44815 24.9935 6.14489 24.9923C5.84162 24.9911 5.55113 24.87 5.33669 24.6556C5.12225 24.4411 5.00124 24.1506 5.00001 23.8474C4.99878 23.5441 5.11744 23.2526 5.33013 23.0365L7.89143 20.475C8.10702 20.2594 8.39942 20.1383 8.70431 20.1383C9.0092 20.1383 9.3016 20.2594 9.51719 20.475L12.0786 23.0365C12.2927 23.2524 12.4125 23.5443 12.4118 23.8483C12.4111 24.1523 12.2901 24.4437 12.0751 24.6587C11.8601 24.8736 11.5687 24.9947 11.2647 24.9954C10.9607 24.996 10.6688 24.8762 10.4529 24.6622L9.8567 24.066C9.97304 31.7671 16.2714 37.9964 23.9988 37.9964C29.454 37.9964 34.3292 34.9481 36.7219 30.0412C36.7877 29.9048 36.8797 29.7827 36.9928 29.682C37.1058 29.5812 37.2376 29.5038 37.3807 29.4542C37.5237 29.4046 37.6751 29.3837 37.8263 29.3927C37.9774 29.4018 38.1253 29.4406 38.2614 29.507C38.3975 29.5733 38.5191 29.6659 38.6193 29.7794C38.7195 29.8929 38.7963 30.0251 38.8453 30.1684C38.8943 30.3116 38.9145 30.4632 38.9048 30.6143C38.895 30.7653 38.8555 30.913 38.7885 31.0488ZM42.6699 24.6622L40.1085 27.2236C39.8929 27.4392 39.6005 27.5603 39.2956 27.5603C38.9907 27.5603 38.6983 27.4392 38.4827 27.2236L35.9213 24.6622C35.8138 24.5556 35.7284 24.4289 35.67 24.2892C35.6116 24.1495 35.5813 23.9997 35.581 23.8483C35.5807 23.6969 35.6103 23.5469 35.668 23.407C35.7258 23.2671 35.8107 23.1399 35.9177 23.0329C36.0248 22.9258 36.1519 22.841 36.2918 22.7832C36.4318 22.7254 36.5817 22.6958 36.7331 22.6962C36.8845 22.6965 37.0343 22.7267 37.174 22.7851C37.3137 22.8435 37.4405 22.9289 37.547 23.0365L38.1432 23.6326C38.0269 15.9327 31.7272 9.70438 23.9988 9.70438C18.5444 9.70438 13.6701 12.7518 11.278 17.6574C11.1435 17.93 10.9065 18.1383 10.6189 18.2366C10.3313 18.335 10.0164 18.3154 9.74316 18.1822C9.46993 18.0489 9.26059 17.8129 9.16093 17.5257C9.06128 17.2386 9.07942 16.9236 9.21139 16.6498C10.8318 13.3217 13.5275 10.6376 16.8625 9.03164C20.1975 7.42565 23.9768 6.99169 27.589 7.79996C31.2013 8.60822 34.4352 10.6114 36.7678 13.4856C39.1003 16.3597 40.3951 19.9367 40.4426 23.638L41.0442 23.0365C41.2604 22.8238 41.5518 22.7051 41.8551 22.7064C42.1584 22.7076 42.4489 22.8286 42.6633 23.0431C42.8778 23.2575 42.9988 23.548 43 23.8513C43.0012 24.1546 42.8826 24.446 42.6699 24.6622Z" fill="white"/>
</svg>
