<svg width="50" height="50" viewBox="0 0 50 50" fill="none" xmlns="http://www.w3.org/2000/svg">
<path fill-rule="evenodd" clip-rule="evenodd" d="M9.76465 21.0938C12.352 21.0938 14.6622 22.2989 16.167 24.1758C16.2171 24.2238 16.2581 24.2783 16.293 24.3359C17.3433 25.7144 17.9687 27.4333 17.9688 29.2959V32.8145C17.9686 35.6989 16.3951 38.2206 14.0625 39.5732V41.4062H15.625C18.2103 41.4062 20.3125 43.5085 20.3125 46.0938V48.4375C20.3125 49.2992 19.6117 50 18.75 50H1.5625L1.48242 49.9961L1.48145 49.9951C0.657332 49.9527 0 49.272 0 48.4375V46.0938C0 43.5085 2.10225 41.4062 4.6875 41.4062H6.25V39.5742C3.91728 38.2217 2.34393 35.6994 2.34375 32.8145V30.084C2.30333 30.0778 2.2624 30.0738 2.22168 30.0674C2.21843 30.0669 2.21515 30.066 2.21191 30.0654C2.19372 30.0623 2.17595 30.058 2.1582 30.0537C2.15067 30.0519 2.14321 30.0499 2.13574 30.0479C2.11615 30.0425 2.09706 30.0361 2.07812 30.0293C2.07493 30.0281 2.07154 30.0276 2.06836 30.0264C2.05369 30.0208 2.03962 30.0142 2.02539 30.0078C1.99468 29.9941 1.96435 29.9795 1.93555 29.9619C1.9308 29.959 1.92655 29.9552 1.92188 29.9521C1.91137 29.9454 1.90077 29.9389 1.89062 29.9316C1.85945 29.9095 1.83027 29.8849 1.80273 29.8584C1.7941 29.8501 1.78559 29.8417 1.77734 29.833C1.75396 29.8084 1.73197 29.7825 1.71191 29.7549C1.71003 29.7523 1.7079 29.7497 1.70605 29.7471C1.69886 29.7369 1.69226 29.7263 1.68555 29.7158C1.66322 29.6808 1.64341 29.6444 1.62695 29.6064C1.62237 29.5959 1.61838 29.585 1.61426 29.5742C1.61004 29.5632 1.60528 29.5523 1.60156 29.541C1.59681 29.5266 1.59279 29.5119 1.58887 29.4971C1.58722 29.4909 1.58548 29.4847 1.58398 29.4785C1.58332 29.4758 1.58266 29.4725 1.58203 29.4697C1.57875 29.4552 1.57571 29.4406 1.57324 29.4258C1.57074 29.4109 1.56901 29.3959 1.56738 29.3809C1.56606 29.3686 1.5652 29.3562 1.56445 29.3438C1.56388 29.3343 1.5637 29.3249 1.56348 29.3154C1.56332 29.309 1.5625 29.3024 1.5625 29.2959C1.56261 24.7734 5.24215 21.0939 9.76465 21.0938ZM4.52734 42.9727C2.87807 43.0563 1.5625 44.424 1.5625 46.0938V48.4365L1.58203 48.4375H18.75V46.0938C18.75 44.3703 17.3484 42.9688 15.625 42.9688H13.4648L12.0684 43.667C12.0646 43.6689 12.0604 43.67 12.0566 43.6719C12.0394 43.6802 12.0217 43.6873 12.0039 43.6943C11.9894 43.7001 11.9748 43.7051 11.96 43.71C11.9441 43.7151 11.9282 43.7195 11.9121 43.7236C11.8496 43.7397 11.7857 43.7499 11.7207 43.75L11.7188 43.749L11.7178 43.75C11.6792 43.75 11.6403 43.7461 11.6016 43.7402C11.5924 43.7388 11.5833 43.7371 11.5742 43.7354C11.5397 43.7289 11.5055 43.7202 11.4717 43.709C11.4678 43.7077 11.4638 43.7064 11.46 43.7051C11.4294 43.6944 11.3987 43.6827 11.3691 43.668L10.1553 43.0605L8.94336 43.667C8.93684 43.6703 8.92945 43.6717 8.92285 43.6748C8.91157 43.6801 8.90018 43.6848 8.88867 43.6895C8.86963 43.6973 8.85062 43.7047 8.83105 43.7109C8.81649 43.7156 8.80192 43.7198 8.78711 43.7236C8.72461 43.7397 8.66066 43.7499 8.5957 43.75L8.59375 43.749L8.59277 43.75C8.55447 43.75 8.51603 43.746 8.47754 43.7402C8.46767 43.7387 8.45803 43.7362 8.44824 43.7344C8.41675 43.7284 8.3855 43.7209 8.35449 43.7109C8.34743 43.7087 8.34 43.7076 8.33301 43.7051C8.30328 43.6946 8.27391 43.6823 8.24512 43.668L6.84668 42.9688H4.6875L4.52734 42.9727ZM12.5 40.2646C11.7595 40.498 10.9719 40.625 10.1553 40.625C9.33934 40.625 8.5524 40.4987 7.8125 40.2656V41.7041L8.59277 42.0947L9.80664 41.4883C9.92017 41.4318 10.0412 41.4084 10.1602 41.4092C10.1887 41.4093 10.2174 41.4088 10.2461 41.4121C10.252 41.4128 10.2578 41.4132 10.2637 41.4141C10.3047 41.4197 10.3453 41.43 10.3857 41.4424C10.3955 41.4454 10.4054 41.4478 10.415 41.4512C10.4457 41.4619 10.476 41.4744 10.5059 41.4893L11.7178 42.0947L12.5 41.7041V40.2646ZM16.4062 30.7412C14.5936 28.4499 13.7153 28.712 11.4697 29.3809C9.74015 29.8961 7.45563 30.5743 3.90625 30.2715V32.7812C3.90625 32.7868 3.90539 32.7923 3.90527 32.7979C3.90538 32.8032 3.90625 32.8091 3.90625 32.8145C3.90651 36.2595 6.70933 39.0624 10.1553 39.0625C13.6022 39.0625 16.406 36.2596 16.4062 32.8145V30.7412ZM9.76465 22.6562C6.3316 22.6563 3.49751 25.276 3.1582 28.6211C6.9327 29.0973 9.28225 28.4012 11.0234 27.8828C11.6698 27.6908 12.2691 27.5149 12.8477 27.4189L14.6406 24.7949C13.4265 23.4813 11.6907 22.6562 9.76465 22.6562ZM14.6982 27.4834C15.2312 27.6364 15.7726 27.9266 16.3457 28.4111C16.2374 27.6017 15.9839 26.838 15.6104 26.1475L14.6982 27.4834Z" fill="url(#paint0_linear_1_226)"/>
<path fill-rule="evenodd" clip-rule="evenodd" d="M43.8301 21.0977C44.2245 21.1376 44.5312 21.4698 44.5312 21.875V24.2969C46.312 24.6597 47.6562 26.2378 47.6562 28.124V32.8135L47.6465 33.2148C47.5085 35.9314 45.9741 38.2835 43.75 39.5732V41.4062H45.3125C47.8978 41.4062 50 43.5085 50 46.0938V48.4375C50 49.2992 49.2992 50 48.4375 50H31.25L31.1699 49.9961L31.1689 49.9951C30.3448 49.9527 29.6875 49.272 29.6875 48.4375V46.0938C29.6875 43.5085 31.7897 41.4062 34.375 41.4062H35.9375V39.5742C33.6245 38.2332 32.0588 35.742 32.0322 32.8877C32.0317 32.876 32.0312 32.8643 32.0312 32.8525V28.124C32.0318 24.2472 35.1856 21.0938 39.0625 21.0938H43.75L43.8301 21.0977ZM34.2148 42.9727C32.5656 43.0563 31.25 44.424 31.25 46.0938V48.4365L31.2695 48.4375H48.4375V46.0938C48.4375 44.3703 47.0359 42.9688 45.3125 42.9688H43.1523L41.7559 43.667C41.7521 43.6689 41.7479 43.67 41.7441 43.6719C41.7269 43.6802 41.7092 43.6874 41.6914 43.6943C41.6769 43.7001 41.6623 43.7051 41.6475 43.71C41.6316 43.7151 41.6157 43.7195 41.5996 43.7236C41.5371 43.7397 41.4732 43.7499 41.4082 43.75L41.4062 43.749L41.4053 43.75C41.367 43.75 41.3285 43.746 41.29 43.7402C41.2802 43.7387 41.2705 43.7362 41.2607 43.7344C41.2292 43.7284 41.198 43.7209 41.167 43.7109C41.1599 43.7087 41.1525 43.7076 41.1455 43.7051C41.1158 43.6946 41.0864 43.6823 41.0576 43.668L39.8428 43.0605L38.6309 43.667C38.6271 43.6689 38.6229 43.67 38.6191 43.6719C38.6018 43.6802 38.5842 43.6874 38.5664 43.6943C38.5519 43.7001 38.5373 43.7051 38.5225 43.71C38.506 43.7153 38.4895 43.7204 38.4727 43.7246C38.4568 43.7286 38.4409 43.7314 38.4248 43.7344C38.4101 43.7371 38.3957 43.7413 38.3809 43.7432C38.3485 43.7473 38.316 43.75 38.2832 43.75L38.2812 43.749L38.2803 43.75C38.242 43.75 38.2035 43.746 38.165 43.7402C38.1552 43.7387 38.1455 43.7362 38.1357 43.7344C38.1042 43.7284 38.073 43.7209 38.042 43.7109C38.0349 43.7087 38.0275 43.7076 38.0205 43.7051C37.9908 43.6946 37.9614 43.6823 37.9326 43.668L36.5342 42.9688H34.375L34.2148 42.9727ZM42.1875 40.2646C41.447 40.498 40.6594 40.625 39.8428 40.625C39.0268 40.625 38.2399 40.4987 37.5 40.2656V41.7041L38.2803 42.0947L39.4941 41.4883C39.6077 41.4318 39.7287 41.4084 39.8477 41.4092C39.8762 41.4093 39.9049 41.4089 39.9336 41.4121C39.9395 41.4128 39.9453 41.4132 39.9512 41.4141C39.9928 41.4198 40.0342 41.4297 40.0752 41.4424C40.0837 41.445 40.0922 41.4473 40.1006 41.4502C40.1321 41.4611 40.1637 41.474 40.1943 41.4893L41.4053 42.0947L42.1875 41.7041V40.2646ZM33.5938 30.9043V32.8135L33.6016 33.1348C33.7691 36.4315 36.5043 39.0624 39.8428 39.0625C43.1822 39.0625 45.9184 36.4317 46.0859 33.1348L46.0938 32.8135V30.9033L44.4395 29.7871C43.755 30.0407 42.2999 30.4687 40.2344 30.4688C38.0307 30.4688 36.0834 29.9861 35.2881 29.7598L33.5938 30.9043ZM38.7812 22.6631C35.8969 22.81 33.5943 25.204 33.5938 28.124V29.0186L34.7197 28.2588C34.7443 28.2422 34.7699 28.2274 34.7959 28.2139C34.8043 28.2095 34.8127 28.2053 34.8213 28.2012C34.8438 28.1905 34.8673 28.1823 34.8906 28.1738C34.9201 28.163 34.9498 28.1537 34.9805 28.1465C34.9976 28.1425 35.0149 28.1395 35.0322 28.1367C35.1525 28.117 35.2787 28.1228 35.4023 28.1641C35.4344 28.1759 37.6797 28.9062 40.2344 28.9062C42.7157 28.9062 44.1697 28.2129 44.1865 28.2051C44.1985 28.1992 44.2105 28.1936 44.2227 28.1885C44.2311 28.1849 44.2395 28.181 44.248 28.1777C44.2817 28.1648 44.3162 28.1555 44.3506 28.1475C44.3691 28.1431 44.3875 28.1388 44.4062 28.1357C44.4355 28.1311 44.4649 28.1292 44.4941 28.1279C44.5333 28.1261 44.5721 28.1288 44.6113 28.1328C44.6224 28.134 44.6335 28.1341 44.6445 28.1357C44.7566 28.1522 44.8673 28.1906 44.9678 28.2578L46.0938 29.0176V28.124C46.0936 26.8329 45.0419 25.7812 43.75 25.7812C43.7067 25.7812 43.6644 25.7763 43.623 25.7695C43.6136 25.768 43.6041 25.7675 43.5947 25.7656C43.5855 25.7638 43.5765 25.761 43.5674 25.7588C43.551 25.7549 43.5346 25.7511 43.5186 25.7461C43.4897 25.7372 43.4619 25.7259 43.4346 25.7139C43.3961 25.6969 43.3593 25.6771 43.3242 25.6543C43.3163 25.6492 43.3085 25.6441 43.3008 25.6387C43.2641 25.6129 43.2291 25.5846 43.1973 25.5527C43.1651 25.5205 43.1363 25.4853 43.1104 25.4482C43.105 25.4406 43.0998 25.4327 43.0947 25.4248C43.072 25.3897 43.052 25.3529 43.0352 25.3145C42.9929 25.2182 42.9688 25.1121 42.9688 25V22.6562H39.0625L38.7812 22.6631Z" fill="url(#paint1_linear_1_226)"/>
<path d="M28.2363 20.6914C28.458 20.3214 28.9365 20.2018 29.3076 20.4238C29.6776 20.6454 29.7979 21.1248 29.5762 21.4951L27.9424 24.2188H29.6875C29.7344 24.2188 29.7806 24.2226 29.8252 24.2305C29.8304 24.2314 29.8356 24.2324 29.8408 24.2334C29.8843 24.242 29.9262 24.255 29.9668 24.2705C30.0172 24.2898 30.066 24.3145 30.1123 24.3447C30.1219 24.351 30.1313 24.3576 30.1406 24.3643C30.1753 24.3891 30.2091 24.4161 30.2402 24.4473C30.271 24.4781 30.2977 24.5117 30.3223 24.5459C30.3281 24.5541 30.3343 24.5619 30.3398 24.5703C30.3699 24.6157 30.3945 24.6635 30.4141 24.7129C30.4305 24.7546 30.444 24.7979 30.4531 24.8428C30.454 24.847 30.4543 24.8513 30.4551 24.8555C30.4638 24.9023 30.4688 24.9506 30.4688 25C30.4688 25.0467 30.4639 25.0923 30.4561 25.1367C30.455 25.1426 30.4543 25.1485 30.4531 25.1543C30.4445 25.1975 30.4314 25.239 30.416 25.2793C30.3966 25.3298 30.372 25.3784 30.3418 25.4248C30.3355 25.4345 30.3289 25.4438 30.3223 25.4531C30.2976 25.4876 30.2712 25.5217 30.2402 25.5527L23.209 32.584C23.1889 32.6041 23.1666 32.6219 23.1445 32.6396C23.1388 32.6443 23.1338 32.6498 23.1279 32.6543C23.122 32.6588 23.1144 32.6617 23.1084 32.666C23.0605 32.7002 23.0097 32.7303 22.9551 32.7529C22.9407 32.7589 22.9258 32.7635 22.9111 32.7686C22.9079 32.7697 22.9046 32.7704 22.9014 32.7715C22.8633 32.7841 22.8246 32.7942 22.7852 32.8008C22.7829 32.8012 22.7806 32.8014 22.7783 32.8018C22.7386 32.808 22.6986 32.8114 22.6582 32.8115L22.6572 32.8125C22.6231 32.8125 22.5883 32.8091 22.5547 32.8047C22.5501 32.8041 22.5456 32.8034 22.541 32.8027C22.5127 32.7985 22.4847 32.7934 22.457 32.7861C22.4522 32.7849 22.4472 32.7845 22.4424 32.7832C22.4398 32.7825 22.4372 32.781 22.4346 32.7803C22.424 32.7771 22.4138 32.7731 22.4033 32.7695C22.3391 32.7475 22.2799 32.7177 22.2256 32.6816C22.2125 32.673 22.2 32.6637 22.1875 32.6543C22.1797 32.6484 22.1716 32.6429 22.1641 32.6367C22.1433 32.6198 22.1225 32.603 22.1035 32.584C22.0899 32.5704 22.0779 32.5555 22.0654 32.541C22.0612 32.5361 22.0568 32.5314 22.0527 32.5264C22.004 32.4671 21.9641 32.4012 21.9346 32.3301C21.9082 32.2665 21.8907 32.1998 21.8818 32.1318C21.8816 32.1299 21.8811 32.1279 21.8809 32.126L21.8789 32.1084C21.8781 32.1006 21.8775 32.0928 21.877 32.085C21.8724 32.0205 21.8754 31.9545 21.8877 31.8887C21.8936 31.857 21.9014 31.8257 21.9111 31.7949L23.1836 27.3438H21.875L21.8711 27.3428C21.8393 27.3426 21.8081 27.3407 21.7773 27.3369C21.7734 27.3364 21.7695 27.3355 21.7656 27.335C21.7378 27.3311 21.7104 27.3261 21.6836 27.3193C21.6773 27.3177 21.6713 27.3152 21.665 27.3135C21.6266 27.3028 21.5895 27.2896 21.5537 27.2734C21.5314 27.2633 21.5087 27.2535 21.4873 27.2412C21.4765 27.235 21.4665 27.2273 21.4561 27.2207C21.4455 27.214 21.435 27.2074 21.4248 27.2002C21.3932 27.1779 21.3643 27.153 21.3369 27.127C21.3284 27.1188 21.3197 27.111 21.3115 27.1025C21.2876 27.0776 21.2662 27.0509 21.2461 27.0234C21.2264 26.9965 21.2096 26.9679 21.1934 26.9385C21.1848 26.9228 21.1755 26.9077 21.168 26.8916C21.1502 26.8533 21.1345 26.8138 21.123 26.7725C21.1218 26.7679 21.1203 26.7634 21.1191 26.7588C21.1081 26.7161 21.1004 26.6721 21.0967 26.627C21.0961 26.6198 21.0961 26.6126 21.0957 26.6055C21.0949 26.5912 21.0938 26.5769 21.0938 26.5625C21.0938 26.4497 21.1183 26.3429 21.1611 26.2461C21.1718 26.2221 21.183 26.1981 21.1963 26.1748L24.3213 20.7061C24.5344 20.3319 25.0127 20.1996 25.3877 20.415C25.7619 20.629 25.8927 21.1072 25.6787 21.4814L23.2217 25.7812H24.2188C24.2845 25.7812 24.3482 25.7895 24.4092 25.8047C24.417 25.8066 24.4248 25.8084 24.4326 25.8105C24.4364 25.8116 24.4405 25.8133 24.4443 25.8145C24.4566 25.8181 24.4685 25.8229 24.4805 25.8271C24.4919 25.8312 24.5035 25.8343 24.5146 25.8389C24.5206 25.8413 24.5264 25.8441 24.5322 25.8467C24.5704 25.8634 24.6064 25.8833 24.6406 25.9053C24.6524 25.9129 24.6634 25.9215 24.6748 25.9297C24.6954 25.9445 24.7145 25.9609 24.7334 25.9775C24.7544 25.996 24.7741 26.0155 24.793 26.0361C24.8072 26.0517 24.8201 26.0683 24.833 26.085C24.8521 26.1095 24.8706 26.1343 24.8867 26.1611C24.8974 26.1789 24.9068 26.1973 24.916 26.2158C24.9315 26.2469 24.9467 26.2782 24.958 26.3115C24.9594 26.3157 24.9606 26.32 24.9619 26.3242C24.9799 26.3807 24.9923 26.4397 24.9971 26.501C25.0004 26.5425 25.0006 26.5846 24.9971 26.627C24.9958 26.6424 24.9934 26.6576 24.9912 26.6729C24.9896 26.6843 24.9875 26.6956 24.9854 26.707C24.9829 26.7202 24.9797 26.7331 24.9766 26.7461C24.9741 26.756 24.9735 26.7665 24.9707 26.7764L24.2363 29.3447L27.8008 25.7812H26.5625C26.5612 25.7812 26.5589 25.7803 26.5576 25.7803C26.5272 25.7801 26.4973 25.778 26.4678 25.7744C26.4573 25.7731 26.4469 25.7712 26.4365 25.7695C26.4134 25.7658 26.3906 25.7616 26.3682 25.7559C26.3604 25.7539 26.3525 25.7523 26.3447 25.75C26.3136 25.741 26.2833 25.7304 26.2539 25.7178C26.2218 25.7039 26.1903 25.6881 26.1602 25.6699C26.1524 25.6653 26.1452 25.6592 26.1377 25.6543C26.1298 25.6492 26.122 25.6441 26.1143 25.6387C26.0792 25.6142 26.0464 25.5876 26.0166 25.5586C26.0117 25.5538 26.0068 25.5489 26.002 25.5439C25.9719 25.5131 25.945 25.4801 25.9209 25.4453C25.904 25.421 25.891 25.3944 25.877 25.3682C25.868 25.3514 25.8573 25.3357 25.8496 25.3184C25.8332 25.2816 25.8192 25.2436 25.8086 25.2041C25.8061 25.1947 25.8039 25.1853 25.8018 25.1758C25.7921 25.1337 25.7858 25.0903 25.7832 25.0459C25.7829 25.0404 25.7824 25.0348 25.7822 25.0293C25.7819 25.0196 25.7812 25.0098 25.7812 25C25.7812 24.9676 25.7833 24.9357 25.7871 24.9043C25.7924 24.8613 25.8018 24.8186 25.8145 24.7764C25.8167 24.7689 25.8179 24.7612 25.8203 24.7539C25.8245 24.7414 25.8292 24.7291 25.834 24.7168C25.8376 24.7075 25.8418 24.6985 25.8457 24.6895C25.8592 24.6583 25.8747 24.6276 25.8926 24.5977L28.2363 20.6914Z" fill="url(#paint2_linear_1_226)"/>
<path d="M17.9922 13.2812C18.4235 13.2814 18.7734 13.6303 18.7734 14.0625C18.7734 14.4947 18.4235 14.8436 17.9922 14.8438C17.5604 14.8438 17.207 14.4947 17.207 14.0625C17.207 13.6303 17.552 13.2814 17.9834 13.2812H17.9922Z" fill="url(#paint3_linear_1_226)"/>
<path d="M17.9688 6.25C18.401 6.25 18.75 6.59902 18.75 7.03125V11.7188C18.75 12.151 18.401 12.5 17.9688 12.5C17.8662 12.5001 17.7647 12.4796 17.6699 12.4404C17.5751 12.4012 17.4886 12.3441 17.416 12.2715C17.3434 12.1989 17.2863 12.1124 17.2471 12.0176C17.2079 11.9228 17.1874 11.8213 17.1875 11.7188V7.03125C17.1875 6.59902 17.5365 6.25 17.9688 6.25Z" fill="url(#paint4_linear_1_226)"/>
<path d="M32.0547 10.1562C32.486 10.1564 32.8359 10.5053 32.8359 10.9375C32.8359 11.3697 32.486 11.7186 32.0547 11.7188C31.6229 11.7188 31.2695 11.3697 31.2695 10.9375C31.2695 10.5053 31.6145 10.1564 32.0459 10.1562H32.0547Z" fill="url(#paint5_linear_1_226)"/>
<path d="M32.0312 3.125C32.4635 3.125 32.8125 3.47402 32.8125 3.90625V8.59375C32.8125 9.02598 32.4635 9.375 32.0312 9.375C31.9287 9.37513 31.8272 9.35461 31.7324 9.31543C31.6376 9.27621 31.5511 9.21906 31.4785 9.14648C31.4059 9.07391 31.3488 8.98742 31.3096 8.89258C31.2704 8.79777 31.2499 8.69634 31.25 8.59375V3.90625C31.25 3.47402 31.599 3.125 32.0312 3.125Z" fill="url(#paint6_linear_1_226)"/>
<path fill-rule="evenodd" clip-rule="evenodd" d="M40.625 0C41.0571 0.000163599 41.4062 0.349125 41.4062 0.78125V14.0625C41.4062 14.4946 41.0571 14.8436 40.625 14.8438H39.0625V15.626C39.0624 15.7534 39.0304 15.8787 38.9707 15.9912C38.9109 16.1039 38.8243 16.2009 38.7188 16.2725C38.5894 16.3594 38.4371 16.4058 38.2812 16.4062C38.182 16.4065 38.0834 16.3874 37.9912 16.3506L34.2246 14.8438H27.3438V17.1875C27.3438 17.6197 26.9947 17.9688 26.5625 17.9688H15.7754L12.0088 19.4756C11.9166 19.5124 11.818 19.5315 11.7188 19.5312C11.5626 19.5309 11.4098 19.4846 11.2803 19.3975C11.1747 19.3259 11.0881 19.2289 11.0283 19.1162C10.9687 19.0037 10.9376 18.8783 10.9375 18.751L10.9365 17.9688H9.375C9.27241 17.9689 9.17098 17.9484 9.07617 17.9092C8.98133 17.87 8.89484 17.8128 8.82227 17.7402C8.74969 17.6677 8.69254 17.5812 8.65332 17.4863C8.61414 17.3915 8.59362 17.2901 8.59375 17.1875V3.90625C8.59375 3.47402 8.94277 3.125 9.375 3.125H22.6562V0.78125C22.6562 0.349023 23.0053 0 23.4375 0H40.625ZM10.1562 16.4062H11.7178C12.1488 16.4062 12.4989 16.7552 12.499 17.1865V17.5957L15.335 16.4619C15.4272 16.4254 15.5258 16.4062 15.625 16.4062H25.7812V4.6875H10.1562V16.4062ZM24.2188 3.125H26.5625C26.9947 3.125 27.3438 3.47402 27.3438 3.90625V13.2812H34.375C34.4741 13.2813 34.5728 13.3003 34.665 13.3369L37.5 14.4707V14.0615C37.5001 13.6303 37.8505 13.2815 38.2812 13.2812H39.8438V1.5625H24.2188V3.125Z" fill="url(#paint7_linear_1_226)"/>
<defs>
<linearGradient id="paint0_linear_1_226" x1="50.4002" y1="50.0808" x2="12.8758" y2="6.22608" gradientUnits="userSpaceOnUse">
<stop stop-color="#31393C"/>
<stop offset="1" stop-color="#3D96F5"/>
</linearGradient>
<linearGradient id="paint1_linear_1_226" x1="50.4002" y1="50.0808" x2="12.8758" y2="6.22608" gradientUnits="userSpaceOnUse">
<stop stop-color="#31393C"/>
<stop offset="1" stop-color="#3D96F5"/>
</linearGradient>
<linearGradient id="paint2_linear_1_226" x1="50.4002" y1="50.0808" x2="12.8758" y2="6.22608" gradientUnits="userSpaceOnUse">
<stop stop-color="#31393C"/>
<stop offset="1" stop-color="#3D96F5"/>
</linearGradient>
<linearGradient id="paint3_linear_1_226" x1="50.4002" y1="50.0808" x2="12.8758" y2="6.22608" gradientUnits="userSpaceOnUse">
<stop stop-color="#31393C"/>
<stop offset="1" stop-color="#3D96F5"/>
</linearGradient>
<linearGradient id="paint4_linear_1_226" x1="50.4002" y1="50.0808" x2="12.8758" y2="6.22608" gradientUnits="userSpaceOnUse">
<stop stop-color="#31393C"/>
<stop offset="1" stop-color="#3D96F5"/>
</linearGradient>
<linearGradient id="paint5_linear_1_226" x1="50.4002" y1="50.0808" x2="12.8758" y2="6.22608" gradientUnits="userSpaceOnUse">
<stop stop-color="#31393C"/>
<stop offset="1" stop-color="#3D96F5"/>
</linearGradient>
<linearGradient id="paint6_linear_1_226" x1="50.4002" y1="50.0808" x2="12.8758" y2="6.22608" gradientUnits="userSpaceOnUse">
<stop stop-color="#31393C"/>
<stop offset="1" stop-color="#3D96F5"/>
</linearGradient>
<linearGradient id="paint7_linear_1_226" x1="50.4002" y1="50.0808" x2="12.8758" y2="6.22608" gradientUnits="userSpaceOnUse">
<stop stop-color="#31393C"/>
<stop offset="1" stop-color="#3D96F5"/>
</linearGradient>
</defs>
</svg>
