<svg width="32" height="32" viewBox="0 0 32 32" fill="none" xmlns="http://www.w3.org/2000/svg">
<circle cx="16" cy="16" r="15.5" fill="#FFA200" stroke="black"/>
<path d="M26.0647 13.9833H26.9636C27.5491 13.9833 28.0255 14.4596 28.0255 15.0451C28.0255 15.1781 28.0783 15.3057 28.1723 15.3997C28.2664 15.4937 28.3939 15.5466 28.5269 15.5466C28.6599 15.5466 28.7874 15.4937 28.8815 15.3997C28.9755 15.3057 29.0284 15.1781 29.0284 15.0451C29.0284 13.924 28.1301 13.0095 27.0156 12.9817V12.5015C27.0156 12.3685 26.9628 12.2409 26.8687 12.1469C26.7747 12.0528 26.6471 12 26.5141 12C26.3812 12 26.2536 12.0528 26.1596 12.1469C26.0655 12.2409 26.0127 12.3685 26.0127 12.5015V12.9817C24.8982 13.0095 24 13.924 24 15.0451V15.5076C24 16.6461 24.9262 17.5723 26.0647 17.5723H26.9636C27.5491 17.5723 28.0255 18.0486 28.0255 18.6341V19.0966C28.0255 19.6821 27.5491 20.1584 26.9636 20.1584H26.0647C25.4793 20.1584 25.0029 19.6821 25.0029 19.0966V19.0533C25.0029 18.9203 24.9501 18.7928 24.856 18.6988C24.762 18.6047 24.6344 18.5519 24.5015 18.5519C24.3685 18.5519 24.2409 18.6047 24.1469 18.6988C24.0528 18.7928 24 18.9203 24 19.0533V19.0966C24 20.2177 24.8983 21.1322 26.0128 21.16V21.6403C26.0128 21.7733 26.0656 21.9008 26.1596 21.9948C26.2537 22.0889 26.3812 22.1417 26.5142 22.1417C26.6472 22.1417 26.7747 22.0889 26.8688 21.9948C26.9628 21.9008 27.0157 21.7733 27.0157 21.6403V21.16C28.1301 21.1322 29.0284 20.2177 29.0284 19.0966V18.6341C29.0284 17.4956 28.1022 16.5694 26.9637 16.5694H26.0647C25.4793 16.5694 25.0029 16.0931 25.0029 15.5076V15.0451C25.0029 14.4596 25.4792 13.9833 26.0647 13.9833Z" fill="black"/>
<path d="M7.76096 7.70948H8.23771C8.54818 7.70948 8.80082 7.95997 8.80082 8.26788C8.80082 8.33781 8.82884 8.40489 8.87871 8.45434C8.92858 8.5038 8.99622 8.53158 9.06675 8.53158C9.13728 8.53158 9.20492 8.5038 9.25479 8.45434C9.30466 8.40489 9.33268 8.33781 9.33268 8.26788C9.33268 7.6783 8.8563 7.19737 8.26526 7.18277V6.93021C8.26526 6.86027 8.23725 6.7932 8.18738 6.74374C8.1375 6.69429 8.06986 6.6665 7.99933 6.6665C7.9288 6.6665 7.86116 6.69429 7.81129 6.74374C7.76142 6.7932 7.7334 6.86027 7.7334 6.93021V7.18277C7.14237 7.19737 6.66602 7.6783 6.66602 8.26788V8.51111C6.66602 9.10981 7.15719 9.59687 7.76096 9.59687H8.23771C8.54818 9.59687 8.80082 9.84736 8.80082 10.1553V10.3985C8.80082 10.7064 8.54818 10.9569 8.23771 10.9569H7.76099C7.45052 10.9569 7.19788 10.7064 7.19788 10.3985V10.3757C7.19788 10.3058 7.16986 10.2387 7.11999 10.1893C7.07012 10.1398 7.00248 10.112 6.93195 10.112C6.86142 10.112 6.79378 10.1398 6.74391 10.1893C6.69403 10.2387 6.66602 10.3058 6.66602 10.3757V10.3985C6.66602 10.988 7.1424 11.469 7.73343 11.4836V11.7361C7.73343 11.8061 7.76145 11.8731 7.81132 11.9226C7.8612 11.9721 7.92884 11.9998 7.99937 11.9998C8.0699 11.9998 8.13754 11.9721 8.18741 11.9226C8.23728 11.8731 8.2653 11.8061 8.2653 11.7361V11.4836C8.85633 11.469 9.33268 10.988 9.33268 10.3985V10.1552C9.33268 9.55653 8.84151 9.06947 8.23774 9.06947H7.76099C7.45052 9.06947 7.19788 8.81898 7.19788 8.51108V8.26788C7.19788 7.95997 7.45048 7.70948 7.76096 7.70948Z" fill="black"/>
<path d="M6.06466 16.65H6.96364C7.54908 16.65 8.02546 17.1264 8.02546 17.7119C8.02546 17.8449 8.07829 17.9724 8.17233 18.0664C8.26637 18.1605 8.39391 18.2133 8.52691 18.2133C8.6599 18.2133 8.78745 18.1605 8.88149 18.0664C8.97553 17.9724 9.02836 17.8449 9.02836 17.7119C9.02836 16.5908 8.13007 15.6762 7.0156 15.6485V15.1682C7.0156 15.0352 6.96277 14.9077 6.86873 14.8136C6.77469 14.7196 6.64714 14.6667 6.51415 14.6667C6.38115 14.6667 6.25361 14.7196 6.15957 14.8136C6.06553 14.9077 6.0127 15.0352 6.0127 15.1682V15.6485C4.89822 15.6762 4 16.5908 4 17.7119V18.1744C4 19.3129 4.92618 20.2391 6.06466 20.2391H6.96364C7.54908 20.2391 8.02546 20.7154 8.02546 21.3009V21.7633C8.02546 22.3488 7.54908 22.8252 6.96364 22.8252H6.06472C5.47928 22.8252 5.0029 22.3488 5.0029 21.7633V21.7201C5.0029 21.5871 4.95007 21.4595 4.85603 21.3655C4.76199 21.2715 4.63444 21.2186 4.50145 21.2186C4.36846 21.2186 4.24091 21.2715 4.14687 21.3655C4.05283 21.4595 4 21.5871 4 21.7201V21.7633C4 22.8845 4.89829 23.799 6.01276 23.8267V24.307C6.01276 24.44 6.06559 24.5675 6.15963 24.6616C6.25367 24.7556 6.38122 24.8085 6.51421 24.8085C6.6472 24.8085 6.77475 24.7556 6.86879 24.6616C6.96283 24.5675 7.01566 24.44 7.01566 24.307V23.8267C8.13013 23.799 9.02836 22.8845 9.02836 21.7633V21.3008C9.02836 20.1623 8.10218 19.2362 6.9637 19.2362H6.06472C5.47928 19.2362 5.0029 18.7598 5.0029 18.1743V17.7119C5.0029 17.1264 5.47922 16.65 6.06466 16.65Z" fill="black"/>
<path d="M11.4789 25.527L11.4789 25.5269C11.865 25.3163 12.1873 25.0057 12.412 24.6276C12.6368 24.2495 12.7556 23.818 12.7562 23.3782V23.3775V21.4213V21.2399L12.6402 21.1011L12.6401 21.101L12.6401 21.1009L12.64 21.1008L12.6399 21.1007L12.6383 21.0988L12.6291 21.0875C12.6204 21.0767 12.6069 21.0598 12.589 21.037C12.5533 20.9912 12.5003 20.9217 12.4344 20.8304C12.3025 20.6477 12.1195 20.3786 11.9201 20.039C11.5198 19.3574 11.0605 18.4044 10.8078 17.3045L10.7624 17.1067L10.5919 16.9965C10.2818 16.7961 10.0803 16.4533 10.0803 16.0695V13.9295C10.081 13.7758 10.114 13.6239 10.1772 13.4838C10.2405 13.3434 10.3326 13.2179 10.4477 13.1155L10.6152 12.9664V12.7421V9.64711V9.61425L10.6111 9.58343L10.6111 9.5834L10.6111 9.58324L10.611 9.58227L10.6106 9.57855C10.61 9.57312 10.609 9.56343 10.6078 9.54975C10.6054 9.52239 10.6023 9.47922 10.6003 9.42254C10.5963 9.30893 10.5967 9.14252 10.6156 8.94121C10.6535 8.53653 10.7646 8.00486 11.0517 7.47828C11.6023 6.46826 12.8823 5.33081 16.002 5.33081C19.1217 5.33081 20.4018 6.46826 20.9524 7.47828C21.2394 8.00486 21.3505 8.53653 21.3884 8.94121C21.4073 9.14252 21.4077 9.30893 21.4037 9.42254C21.4017 9.47922 21.3986 9.52239 21.3962 9.54975C21.395 9.56343 21.394 9.57312 21.3934 9.57855L21.393 9.58275L21.3929 9.58326L21.3929 9.5834L21.3929 9.58343L21.3888 9.61425V9.64711V12.7421V12.9638L21.5532 13.1127C21.7829 13.3207 21.9237 13.6104 21.9237 13.9285V16.0695C21.9237 16.5581 21.5951 16.9781 21.1376 17.1192L20.8878 17.1963L20.8086 17.4454C20.4606 18.5388 19.9477 19.5726 19.2874 20.511C19.1192 20.7487 18.9659 20.9441 18.8366 21.0914L18.7123 21.2329V21.4213V23.427C18.7123 23.882 18.839 24.3279 19.0782 24.7148C19.3173 25.1018 19.6595 25.4145 20.0664 25.618L20.29 25.1707L20.0664 25.618L25.1755 28.1722C25.176 28.1724 25.1764 28.1726 25.1768 28.1729C25.2598 28.2151 25.3411 28.2604 25.4206 28.3086C22.8094 30.3098 19.5453 31.5 16.0014 31.5H16.0007C12.5567 31.5047 9.21646 30.3569 6.50763 28.2493C6.57278 28.2075 6.63922 28.1677 6.70689 28.1299C6.70756 28.1295 6.70823 28.1292 6.70891 28.1288L11.4789 25.527ZM5.69922 28.2373C5.82849 28.3466 5.95931 28.4536 6.09162 28.5584L6.0998 27.9208C5.96021 28.0182 5.82644 28.1238 5.69922 28.2373Z" fill="#E7ECED" stroke="black"/>
</svg>
