<svg width="65" height="64" viewBox="0 0 65 64" fill="none" xmlns="http://www.w3.org/2000/svg">
<path d="M62.9558 37.5709C62.6707 35.6351 62.4256 33.9594 62.3456 32.884C62.0805 29.2924 61.1101 27.3816 59.0942 26.4162C58.2284 26.0107 57.2785 25.8169 56.323 25.851C56.0329 24.6305 55.4427 22.6546 54.5423 21.7643C52.9916 20.2336 50.8657 20.1886 49.6202 20.3336C49.4465 19.7617 49.1396 19.2391 48.7249 18.8087C48.3101 18.3783 47.7993 18.0524 47.2342 17.8576C45.8641 17.459 44.3953 17.5783 43.1074 18.1927C42.7173 12.2152 42.2171 6.71789 41.6468 5.59241C41.4483 5.13353 41.1343 4.73387 40.7354 4.43233C40.3366 4.13079 39.8665 3.93764 39.3709 3.87168C37.8352 3.6816 36.3296 4.76706 35.8694 5.29228C35.5492 5.66244 35.3191 5.92755 35.3391 16.7972C35.3391 21.8943 35.4292 27.6768 35.5042 28.7022C35.5692 29.5776 35.4492 32.7039 35.3091 35.7052C35.0648 35.3266 34.8523 34.9284 34.6739 34.5147C33.5434 32.0136 31.1724 29.9677 28.0661 28.7722C26.0202 27.9919 24.1144 28.202 22.9589 29.3325C22.5441 29.7321 22.2547 30.2438 22.1259 30.8052C21.9971 31.3666 22.0345 31.9533 22.2336 32.4938C22.6188 33.5642 23.4941 34.6097 24.5046 35.8202C25.4409 36.873 26.2782 38.01 27.0056 39.2166C27.6612 40.4755 28.2181 41.7833 28.6713 43.1283C29.1905 44.6903 29.8606 46.1981 30.6722 47.6302C31.0473 48.2505 31.4575 48.9057 31.8777 49.581C33.1593 51.5543 34.3283 53.5984 35.3792 55.7036C36.6247 58.4198 41.1466 60.7057 41.6568 60.9859C41.7756 61.0474 41.9054 61.0845 42.0387 61.0949C42.172 61.1054 42.3061 61.0891 42.433 61.0468C42.5599 61.0046 42.677 60.9374 42.7774 60.8491C42.8779 60.7608 42.9596 60.6533 43.0178 60.5329C43.076 60.4125 43.1095 60.2817 43.1162 60.1482C43.123 60.0146 43.1029 59.8811 43.0572 59.7554C43.0114 59.6297 42.941 59.5145 42.8499 59.4166C42.7589 59.3186 42.6492 59.2399 42.5272 59.1851C41.3117 58.5798 37.9853 56.624 37.1749 54.8583C36.0827 52.6697 34.8634 50.5468 33.5234 48.5006C33.1082 47.8353 32.703 47.185 32.3329 46.5698C31.5994 45.2601 30.9931 43.8833 30.5221 42.458C30.0351 41.0139 29.4347 39.6106 28.7264 38.2612C27.9423 36.9453 27.0363 35.706 26.0202 34.5597C25.1648 33.5592 24.3595 32.5588 24.0944 31.8385C24.0254 31.659 24.0118 31.4629 24.0555 31.2756C24.0992 31.0884 24.1982 30.9185 24.3395 30.7881C24.7897 30.3479 25.8101 30.0878 27.3408 30.668C30.8923 32.0236 32.3079 34.1695 32.8431 35.365C33.3505 36.592 34.1467 37.6782 35.1641 38.5313C35.1141 39.4417 35.074 40.2471 35.039 40.8373C35.024 41.1019 35.1146 41.3617 35.2909 41.5596C35.4672 41.7575 35.7148 41.8773 35.9794 41.8928H36.0244C36.2797 41.8932 36.5255 41.7961 36.7114 41.6213C36.8974 41.4465 37.0095 41.2072 37.0249 40.9524C37.0249 40.5222 37.6251 30.4479 37.4851 28.5571C37.325 26.2111 37.2299 8.83378 37.5251 6.48279C37.9714 6.10273 38.5347 5.88732 39.1208 5.87253C39.2408 5.87253 39.5609 5.92755 39.8511 6.5078C40.3063 7.43819 40.8515 13.7709 41.2917 21.5542V21.7292C41.5318 25.861 41.7419 30.3979 41.9069 34.7347C41.9169 35.0001 42.0318 35.2506 42.2265 35.4312C42.4211 35.6117 42.6795 35.7076 42.9449 35.6977C43.2102 35.6877 43.4607 35.5728 43.6413 35.3781C43.8219 35.1835 43.9177 34.925 43.9078 34.6597C43.8327 32.6589 43.6076 27.0215 43.2675 21.224C43.258 21.0156 43.2985 20.8079 43.3855 20.6182C43.4725 20.4285 43.6035 20.2624 43.7677 20.1336C44.508 19.5483 45.9086 19.5483 46.5989 19.7684C47.6994 20.1236 47.8494 21.5191 47.8544 21.5742C47.8544 21.6642 48.7448 30.8731 48.8549 32.964C48.869 33.2197 48.9805 33.4602 49.1666 33.6361C49.3528 33.812 49.5992 33.9098 49.8553 33.9094H49.9153C50.1799 33.8939 50.4275 33.7741 50.6038 33.5762C50.7802 33.3783 50.8707 33.1186 50.8557 32.8539C50.7557 31.1032 50.1554 24.7255 49.9303 22.3145C50.8007 22.2295 52.1813 22.2745 53.1167 23.1949C53.6919 23.7601 54.2922 25.846 54.5373 27.1465V27.2216C55.0491 29.3368 55.228 31.5189 55.0675 33.6893C55.0544 33.82 55.0671 33.9521 55.105 34.0779C55.1429 34.2036 55.2052 34.3208 55.2883 34.4225C55.3714 34.5242 55.4738 34.6086 55.5896 34.6707C55.7053 34.7329 55.8322 34.7716 55.9629 34.7848H56.0629C56.3118 34.786 56.5522 34.6945 56.7372 34.528C56.9222 34.3615 57.0385 34.132 57.0633 33.8844C57.2267 31.8776 57.1139 29.8579 56.7282 27.8818C57.2477 27.9065 57.7574 28.0323 58.2288 28.252C59.3193 28.7522 60.0896 29.7526 60.3347 33.054C60.4198 34.1995 60.6699 35.9052 60.96 37.8811C61.4952 41.5426 62.1655 46.0996 62.0204 48.8857C61.8003 53.1075 60.0646 59.5602 60.0496 59.6253C60.0135 59.76 60.006 59.9008 60.0275 60.0387C60.049 60.1765 60.0992 60.3083 60.1747 60.4256L62.1755 63.5669C62.3226 63.7803 62.5467 63.9282 62.8007 63.9795C63.0547 64.0309 63.3187 63.9817 63.5371 63.8424C63.7556 63.703 63.9114 63.4843 63.9719 63.2323C64.0323 62.9804 63.9927 62.7148 63.8612 62.4915L62.0905 59.7203C62.4906 58.1697 63.8162 52.8274 64.0163 48.9908C64.1914 45.9995 63.5061 41.3225 62.9558 37.5709Z" fill="url(#paint0_linear_1_738)"/>
<path d="M1.00863 7.98404H30.131C30.3719 9.3576 31.0324 10.6228 32.0218 11.6056C32.1147 11.6985 32.2251 11.7723 32.3465 11.8226C32.4679 11.8729 32.5981 11.8988 32.7296 11.8988C32.861 11.8988 32.9912 11.8729 33.1126 11.8226C33.2341 11.7723 33.3444 11.6985 33.4374 11.6056C33.5303 11.5126 33.604 11.4023 33.6543 11.2808C33.7046 11.1594 33.7305 11.0292 33.7305 10.8978C33.7305 10.7663 33.7046 10.6362 33.6543 10.5147C33.604 10.3933 33.5303 10.2829 33.4374 10.19C32.6565 9.40602 32.1707 8.37626 32.0622 7.27514C31.9538 6.17401 32.2292 5.06924 32.842 4.14798C33.4548 3.22672 34.3673 2.54562 35.4248 2.22007C36.4822 1.89452 37.6197 1.94455 38.6446 2.36166C38.7661 2.41158 38.8963 2.43708 39.0276 2.4367C39.159 2.43632 39.289 2.41006 39.4103 2.35943C39.6551 2.25718 39.8493 2.06186 39.9501 1.81643C40 1.69491 40.0255 1.56474 40.0252 1.43336C40.0248 1.30198 39.9985 1.17196 39.9479 1.05073C39.8973 0.929501 39.8232 0.819429 39.7301 0.7268C39.6369 0.634172 39.5264 0.560801 39.4049 0.510878C38.4365 0.112477 37.3891 -0.0566581 36.3446 0.0166838C35.3 0.0900256 34.2866 0.403859 33.3834 0.933669C32.4802 1.46348 31.7117 2.19492 31.138 3.07087C30.5642 3.94681 30.2008 4.94354 30.0759 5.98319H1.00863C0.743305 5.98319 0.488843 6.0886 0.301227 6.27621C0.113612 6.46383 0.00821021 6.71829 0.00821021 6.98362C0.00821021 7.24895 0.113612 7.50341 0.301227 7.69102C0.488843 7.87864 0.743305 7.98404 1.00863 7.98404ZM45.0273 5.98319C44.7619 5.98319 44.5075 6.0886 44.3199 6.27621C44.1322 6.46383 44.0268 6.71829 44.0268 6.98362C44.0268 7.24895 44.1322 7.50341 44.3199 7.69102C44.5075 7.87864 44.7619 7.98404 45.0273 7.98404H63.0349C63.3002 7.98404 63.5547 7.87864 63.7423 7.69102C63.9299 7.50341 64.0353 7.24895 64.0353 6.98362C64.0353 6.71829 63.9299 6.46383 63.7423 6.27621C63.5547 6.0886 63.3002 5.98319 63.0349 5.98319H45.0273ZM7.01117 38.9972C8.69373 38.9952 10.3193 38.3875 11.5906 37.2853C12.8618 36.183 13.6937 34.6599 13.9341 32.9946H19.0163C19.2816 32.9946 19.536 32.8892 19.7237 32.7016C19.9113 32.514 20.0167 32.2595 20.0167 31.9942C20.0167 31.7289 19.9113 31.4744 19.7237 31.2868C19.536 31.0992 19.2816 30.9938 19.0163 30.9938H13.9341C13.7423 29.6649 13.1725 28.4191 12.2926 27.4049C11.4127 26.3907 10.2598 25.6509 8.9712 25.2735C7.68264 24.8962 6.31275 24.8972 5.02475 25.2765C3.73675 25.6557 2.58494 26.3973 1.70654 27.4128C0.82814 28.4283 0.26019 29.6749 0.0703524 31.0041C-0.119485 32.3333 0.0767951 33.689 0.635807 34.9098C1.19482 36.1306 2.093 37.1649 3.22333 37.8896C4.35366 38.6143 5.66849 38.9987 7.01117 38.9972ZM7.01117 26.9921C8.0005 26.9921 8.96761 27.2855 9.7902 27.8351C10.6128 28.3847 11.2539 29.166 11.6325 30.08C12.0111 30.994 12.1102 31.9998 11.9172 32.9701C11.7242 33.9404 11.2478 34.8317 10.5482 35.5312C9.84865 36.2308 8.95735 36.7072 7.98704 36.9002C7.01672 37.0932 6.01096 36.9942 5.09695 36.6156C4.18293 36.237 3.40171 35.5958 2.85207 34.7732C2.30243 33.9506 2.00906 32.9835 2.00906 31.9942C2.00906 30.6676 2.53606 29.3953 3.47414 28.4572C4.41222 27.5191 5.68453 26.9921 7.01117 26.9921ZM1.00863 58.0052H15.0946C15.347 59.6604 16.1841 61.1704 17.4542 62.2615C18.7242 63.3526 20.3432 63.9525 22.0175 63.9525C23.6919 63.9525 25.3108 63.3526 26.5809 62.2615C27.8509 61.1704 28.688 59.6604 28.9405 58.0052H32.522C32.7873 58.0052 33.0418 57.8998 33.2294 57.7122C33.417 57.5246 33.5224 57.2701 33.5224 57.0048C33.5224 56.7395 33.417 56.485 33.2294 56.2974C33.0418 56.1098 32.7873 56.0044 32.522 56.0044H28.9405C28.688 54.3491 27.8509 52.8391 26.5809 51.7481C25.3108 50.657 23.6919 50.0571 22.0175 50.0571C20.3432 50.0571 18.7242 50.657 17.4542 51.7481C16.1841 52.8391 15.347 54.3491 15.0946 56.0044H1.00863C0.743305 56.0044 0.488843 56.1098 0.301227 56.2974C0.113612 56.485 0.00821021 56.7395 0.00821021 57.0048C0.00821021 57.2701 0.113612 57.5246 0.301227 57.7122C0.488843 57.8998 0.743305 58.0052 1.00863 58.0052ZM22.0175 52.0027C23.0069 52.0027 23.974 52.296 24.7966 52.8457C25.6191 53.3953 26.2603 54.1765 26.6389 55.0906C27.0175 56.0046 27.1165 57.0103 26.9235 57.9807C26.7305 58.951 26.2541 59.8423 25.5546 60.5418C24.855 61.2414 23.9637 61.7178 22.9934 61.9108C22.0231 62.1038 21.0173 62.0047 20.1033 61.6261C19.1893 61.2475 18.4081 60.6064 17.8584 59.7838C17.3088 58.9612 17.0154 57.9941 17.0154 57.0048C17.0154 55.6781 17.5424 54.4058 18.4805 53.4678C19.4186 52.5297 20.6909 52.0027 22.0175 52.0027Z" fill="url(#paint1_linear_1_738)"/>
<defs>
<linearGradient id="paint0_linear_1_738" x1="64.3803" y1="64.0966" x2="19.6184" y2="27.5743" gradientUnits="userSpaceOnUse">
<stop stop-color="#31393C"/>
<stop offset="1" stop-color="#3D96F5"/>
</linearGradient>
<linearGradient id="paint1_linear_1_738" x1="64.5479" y1="64.0558" x2="16.562" y2="7.90208" gradientUnits="userSpaceOnUse">
<stop stop-color="#31393C"/>
<stop offset="1" stop-color="#3D96F5"/>
</linearGradient>
</defs>
</svg>
