<svg width="36" height="40" viewBox="0 0 36 40" fill="none" xmlns="http://www.w3.org/2000/svg">
<path fill-rule="evenodd" clip-rule="evenodd" d="M15.0087 38.1216C15.0087 39.1557 15.8512 40 16.8855 40H18.2417C19.2758 40 20.1184 39.1557 20.1184 38.1216V37.9807C20.5023 37.8544 20.8763 37.6995 21.2371 37.5175L21.3322 37.6122L21.3341 37.6141C22.0661 38.348 23.2579 38.3445 23.9887 37.6143L23.9895 37.6135L24.9435 36.6578L24.9452 36.6561C25.6798 35.9242 25.6764 34.7321 24.9454 34.0014L24.8495 33.9055C25.0297 33.5481 25.1833 33.1779 25.3091 32.7979H25.4453C26.4789 32.7979 27.3242 31.9565 27.3242 30.9217V29.5662C27.3242 28.5314 26.4789 27.6899 25.4453 27.6899H25.3145C25.1877 27.3048 25.0322 26.9298 24.8494 26.568L24.9435 26.4736L24.9453 26.4718C25.6798 25.7399 25.6764 24.5479 24.9454 23.8173L23.9887 22.861C23.258 22.1308 22.0662 22.1272 21.3342 22.861L21.3322 22.863L21.237 22.9578C20.871 22.773 20.489 22.6145 20.0932 22.4855V22.3662C20.0932 21.3307 19.2492 20.4878 18.2143 20.4878H16.8602C15.8224 20.4878 14.9834 21.3335 14.9834 22.3662V22.5047C14.6018 22.6324 14.23 22.7881 13.8713 22.9706L13.7822 22.8819L13.7803 22.88C13.0483 22.1461 11.8565 22.1496 11.1258 22.8799L10.169 23.8362C9.43813 24.5668 9.4347 25.7588 10.1691 26.4907L10.171 26.4926L10.2713 26.5933C10.0941 26.9473 9.94289 27.3138 9.81903 27.6899H9.68167C8.64558 27.6899 7.80488 28.5341 7.80488 29.5662V30.9217C7.80488 31.9538 8.64563 32.7979 9.68167 32.7979H9.82218C9.94799 33.1779 10.1018 33.548 10.2824 33.9052L10.187 34.0002L10.184 34.0033C9.45696 34.7341 9.45417 35.9246 10.1859 36.6559L11.1439 37.6135C11.8759 38.348 13.0681 38.3448 13.7991 37.6143L13.8959 37.5175C14.2523 37.6971 14.6241 37.8519 15.0087 37.9787V38.1216ZM16.9076 38.101V37.2579C16.9076 36.8143 16.6004 36.4297 16.1677 36.3318C15.4771 36.1756 14.8254 35.9006 14.2372 35.5325C13.8623 35.2979 13.375 35.3532 13.0622 35.6658L12.4719 36.2559L11.5442 35.3287L12.1348 34.7404C12.4497 34.4267 12.5048 33.9366 12.2675 33.5607C11.8939 32.9692 11.6234 32.3186 11.4673 31.6366C11.3685 31.205 10.9845 30.8989 10.5417 30.8989H9.70385V29.5889H10.5396C10.9828 29.5889 11.3671 29.2822 11.4654 28.8501C11.6198 28.1716 11.8869 27.5237 12.2554 26.9335C12.4892 26.559 12.4341 26.0728 12.1224 25.7602L11.5273 25.1634L12.453 24.2382L13.0424 24.8252C13.3567 25.1383 13.8458 25.192 14.2206 24.9546C14.8135 24.579 15.4653 24.3057 16.1488 24.1461C16.5785 24.0458 16.8824 23.6627 16.8824 23.2215V22.3868H18.1942V23.2089C18.1942 23.6538 18.5031 24.039 18.9373 24.1357C19.6394 24.2921 20.2981 24.5688 20.8932 24.9421C21.2677 25.177 21.7546 25.1224 22.0678 24.8105L22.6614 24.2193L23.5871 25.1445L22.9963 25.737C22.6835 26.0507 22.6291 26.539 22.8654 26.9138C23.2406 27.5091 23.512 28.1637 23.668 28.8499C23.7662 29.2821 24.1505 29.5889 24.5938 29.5889H25.4252V30.8989H24.5896C24.147 30.8989 23.763 31.2048 23.6641 31.6362C23.5077 32.3186 23.2375 32.9697 22.8648 33.5623C22.6289 33.9375 22.6839 34.426 22.9974 34.7393L23.5871 35.3287L22.6614 36.2559L22.0678 35.6646C21.7544 35.3524 21.2668 35.2981 20.8922 35.5336C20.2975 35.9077 19.6436 36.1784 18.9585 36.3341C18.5262 36.4324 18.2194 36.8167 18.2194 37.26V38.101H16.9076Z" fill="url(#paint0_linear_1_1238)"/>
<path fill-rule="evenodd" clip-rule="evenodd" d="M12.7902 30.245C12.7902 32.8802 14.9278 35.0151 17.5645 35.0151C20.1995 35.0151 22.3367 32.8799 22.3367 30.245C22.3367 27.6084 20.1998 25.4728 17.5645 25.4728C14.9275 25.4728 12.7902 27.6081 12.7902 30.245ZM17.5645 33.1161C15.9749 33.1161 14.6892 31.8298 14.6892 30.245C14.6892 28.6578 15.9753 27.3717 17.5645 27.3717C19.1513 27.3717 20.4377 28.6575 20.4377 30.245C20.4377 31.8301 19.1517 33.1161 17.5645 33.1161Z" fill="url(#paint1_linear_1_1238)"/>
<path fill-rule="evenodd" clip-rule="evenodd" d="M17.0732 12.6829C20.0366 12.6829 22.439 10.2806 22.439 7.31707C22.439 4.35359 20.0366 1.95122 17.0732 1.95122C14.1097 1.95122 11.7073 4.35359 11.7073 7.31707C11.7073 10.2806 14.1097 12.6829 17.0732 12.6829ZM17.0732 14.6341C21.1143 14.6341 24.3902 11.3582 24.3902 7.31707C24.3902 3.27597 21.1143 0 17.0732 0C13.0321 0 9.7561 3.27597 9.7561 7.31707C9.7561 11.3582 13.0321 14.6341 17.0732 14.6341Z" fill="url(#paint2_linear_1_1238)"/>
<path d="M28.5987 19.2061C31.0624 21.6698 32.6175 24.8722 33.0484 28.2927H26.3415V30.2439H35.122C35.122 29.5888 35.0854 28.9375 35.0133 28.2927C34.5729 24.3531 32.8086 20.6565 29.9785 17.8264C26.6851 14.5331 22.2184 12.6829 17.561 12.6829C12.9035 12.6829 8.43681 14.5331 5.14349 17.8264C2.31339 20.6565 0.549019 24.3531 0.108677 28.2927C0.036603 28.9375 0 29.5888 0 30.2439H8.78049V28.2927H2.07359C2.50446 24.8722 4.05955 21.6698 6.52321 19.2061C9.45061 16.2787 13.421 14.6341 17.561 14.6341C21.7009 14.6341 25.6713 16.2787 28.5987 19.2061Z" fill="url(#paint3_linear_1_1238)"/>
<defs>
<linearGradient id="paint0_linear_1_1238" x1="1.64634" y1="9.7983e-07" x2="37.0673" y2="31.9658" gradientUnits="userSpaceOnUse">
<stop stop-color="#FE5B52"/>
<stop offset="0.948075" stop-color="#3E96F4"/>
</linearGradient>
<linearGradient id="paint1_linear_1_1238" x1="1.64634" y1="9.7983e-07" x2="37.0673" y2="31.9658" gradientUnits="userSpaceOnUse">
<stop stop-color="#FE5B52"/>
<stop offset="0.948075" stop-color="#3E96F4"/>
</linearGradient>
<linearGradient id="paint2_linear_1_1238" x1="1.64634" y1="9.7983e-07" x2="37.0673" y2="31.9658" gradientUnits="userSpaceOnUse">
<stop stop-color="#FE5B52"/>
<stop offset="0.948075" stop-color="#3E96F4"/>
</linearGradient>
<linearGradient id="paint3_linear_1_1238" x1="1.64634" y1="9.7983e-07" x2="37.0673" y2="31.9658" gradientUnits="userSpaceOnUse">
<stop stop-color="#FE5B52"/>
<stop offset="0.948075" stop-color="#3E96F4"/>
</linearGradient>
</defs>
</svg>
