<svg width="128" height="128" viewBox="0 0 128 128" fill="none" xmlns="http://www.w3.org/2000/svg">
<g filter="url(#filter0_di_1_298)">
<circle cx="64" cy="64" r="60" fill="white"/>
<circle cx="64" cy="64" r="59.5" stroke="white"/>
</g>
<path fill-rule="evenodd" clip-rule="evenodd" d="M87 40H41C40.4477 40 40 40.4477 40 41V87C40 87.5523 40.4477 88 41 88H87C87.5523 88 88 87.5523 88 87V41C88 40.4477 87.5523 40 87 40ZM41 38C39.3431 38 38 39.3431 38 41V87C38 88.6569 39.3431 90 41 90H87C88.6569 90 90 88.6569 90 87V41C90 39.3431 88.6569 38 87 38H41Z" fill="url(#paint0_linear_1_298)"/>
<path fill-rule="evenodd" clip-rule="evenodd" d="M52 48H48V52H52V48ZM48 46C46.8954 46 46 46.8954 46 48V52C46 53.1046 46.8954 54 48 54H52C53.1046 54 54 53.1046 54 52V48C54 46.8954 53.1046 46 52 46H48Z" fill="url(#paint1_linear_1_298)"/>
<path fill-rule="evenodd" clip-rule="evenodd" d="M57 47C57 46.4477 57.4477 46 58 46H81C81.5523 46 82 46.4477 82 47C82 47.5523 81.5523 48 81 48H58C57.4477 48 57 47.5523 57 47Z" fill="url(#paint2_linear_1_298)"/>
<path fill-rule="evenodd" clip-rule="evenodd" d="M57 52C57 51.4477 57.4477 51 58 51H71C71.5523 51 72 51.4477 72 52C72 52.5523 71.5523 53 71 53H58C57.4477 53 57 52.5523 57 52Z" fill="url(#paint3_linear_1_298)"/>
<path fill-rule="evenodd" clip-rule="evenodd" d="M52 62H48V66H52V62ZM48 60C46.8954 60 46 60.8954 46 62V66C46 67.1046 46.8954 68 48 68H52C53.1046 68 54 67.1046 54 66V62C54 60.8954 53.1046 60 52 60H48Z" fill="url(#paint4_linear_1_298)"/>
<path fill-rule="evenodd" clip-rule="evenodd" d="M57 61C57 60.4477 57.4477 60 58 60H81C81.5523 60 82 60.4477 82 61C82 61.5523 81.5523 62 81 62H58C57.4477 62 57 61.5523 57 61Z" fill="url(#paint5_linear_1_298)"/>
<path fill-rule="evenodd" clip-rule="evenodd" d="M57 66C57 65.4477 57.4477 65 58 65H71C71.5523 65 72 65.4477 72 66C72 66.5523 71.5523 67 71 67H58C57.4477 67 57 66.5523 57 66Z" fill="url(#paint6_linear_1_298)"/>
<path fill-rule="evenodd" clip-rule="evenodd" d="M52 76H48V80H52V76ZM48 74C46.8954 74 46 74.8954 46 76V80C46 81.1046 46.8954 82 48 82H52C53.1046 82 54 81.1046 54 80V76C54 74.8954 53.1046 74 52 74H48Z" fill="url(#paint7_linear_1_298)"/>
<path fill-rule="evenodd" clip-rule="evenodd" d="M57 75C57 74.4477 57.4477 74 58 74H81C81.5523 74 82 74.4477 82 75C82 75.5523 81.5523 76 81 76H58C57.4477 76 57 75.5523 57 75Z" fill="url(#paint8_linear_1_298)"/>
<path fill-rule="evenodd" clip-rule="evenodd" d="M57 80C57 79.4477 57.4477 79 58 79H71C71.5523 79 72 79.4477 72 80C72 80.5523 71.5523 81 71 81H58C57.4477 81 57 80.5523 57 80Z" fill="url(#paint9_linear_1_298)"/>
<defs>
<filter id="filter0_di_1_298" x="0" y="0" width="128" height="128" filterUnits="userSpaceOnUse" color-interpolation-filters="sRGB">
<feFlood flood-opacity="0" result="BackgroundImageFix"/>
<feColorMatrix in="SourceAlpha" type="matrix" values="0 0 0 0 0 0 0 0 0 0 0 0 0 0 0 0 0 0 127 0" result="hardAlpha"/>
<feOffset/>
<feGaussianBlur stdDeviation="2"/>
<feComposite in2="hardAlpha" operator="out"/>
<feColorMatrix type="matrix" values="0 0 0 0 0 0 0 0 0 0 0 0 0 0 0 0 0 0 0.25 0"/>
<feBlend mode="normal" in2="BackgroundImageFix" result="effect1_dropShadow_1_298"/>
<feBlend mode="normal" in="SourceGraphic" in2="effect1_dropShadow_1_298" result="shape"/>
<feColorMatrix in="SourceAlpha" type="matrix" values="0 0 0 0 0 0 0 0 0 0 0 0 0 0 0 0 0 0 127 0" result="hardAlpha"/>
<feOffset/>
<feGaussianBlur stdDeviation="5"/>
<feComposite in2="hardAlpha" operator="arithmetic" k2="-1" k3="1"/>
<feColorMatrix type="matrix" values="0 0 0 0 0.832292 0 0 0 0 0.901797 0 0 0 0 0.976042 0 0 0 1 0"/>
<feBlend mode="normal" in2="shape" result="effect2_innerShadow_1_298"/>
</filter>
<linearGradient id="paint0_linear_1_298" x1="90.4162" y1="90.084" x2="51.3909" y2="44.4751" gradientUnits="userSpaceOnUse">
<stop stop-color="#31393C"/>
<stop offset="1" stop-color="#3D96F5"/>
</linearGradient>
<linearGradient id="paint1_linear_1_298" x1="90.4162" y1="90.084" x2="51.3909" y2="44.4751" gradientUnits="userSpaceOnUse">
<stop stop-color="#31393C"/>
<stop offset="1" stop-color="#3D96F5"/>
</linearGradient>
<linearGradient id="paint2_linear_1_298" x1="90.4162" y1="90.084" x2="51.3909" y2="44.4751" gradientUnits="userSpaceOnUse">
<stop stop-color="#31393C"/>
<stop offset="1" stop-color="#3D96F5"/>
</linearGradient>
<linearGradient id="paint3_linear_1_298" x1="90.4162" y1="90.084" x2="51.3909" y2="44.4751" gradientUnits="userSpaceOnUse">
<stop stop-color="#31393C"/>
<stop offset="1" stop-color="#3D96F5"/>
</linearGradient>
<linearGradient id="paint4_linear_1_298" x1="90.4162" y1="90.084" x2="51.3909" y2="44.4751" gradientUnits="userSpaceOnUse">
<stop stop-color="#31393C"/>
<stop offset="1" stop-color="#3D96F5"/>
</linearGradient>
<linearGradient id="paint5_linear_1_298" x1="90.4162" y1="90.084" x2="51.3909" y2="44.4751" gradientUnits="userSpaceOnUse">
<stop stop-color="#31393C"/>
<stop offset="1" stop-color="#3D96F5"/>
</linearGradient>
<linearGradient id="paint6_linear_1_298" x1="90.4162" y1="90.084" x2="51.3909" y2="44.4751" gradientUnits="userSpaceOnUse">
<stop stop-color="#31393C"/>
<stop offset="1" stop-color="#3D96F5"/>
</linearGradient>
<linearGradient id="paint7_linear_1_298" x1="90.4162" y1="90.084" x2="51.3909" y2="44.4751" gradientUnits="userSpaceOnUse">
<stop stop-color="#31393C"/>
<stop offset="1" stop-color="#3D96F5"/>
</linearGradient>
<linearGradient id="paint8_linear_1_298" x1="90.4162" y1="90.084" x2="51.3909" y2="44.4751" gradientUnits="userSpaceOnUse">
<stop stop-color="#31393C"/>
<stop offset="1" stop-color="#3D96F5"/>
</linearGradient>
<linearGradient id="paint9_linear_1_298" x1="90.4162" y1="90.084" x2="51.3909" y2="44.4751" gradientUnits="userSpaceOnUse">
<stop stop-color="#31393C"/>
<stop offset="1" stop-color="#3D96F5"/>
</linearGradient>
</defs>
</svg>
