<svg width="35" height="40" viewBox="0 0 35 40" fill="none" xmlns="http://www.w3.org/2000/svg">
<path fill-rule="evenodd" clip-rule="evenodd" d="M16.8099 12.4874C19.7277 12.4874 22.093 10.122 22.093 7.20425C22.093 4.28646 19.7277 1.92113 16.8099 1.92113C13.8921 1.92113 11.5268 4.28646 11.5268 7.20425C11.5268 10.122 13.8921 12.4874 16.8099 12.4874ZM16.8099 14.4085C20.7887 14.4085 24.0142 11.183 24.0142 7.20425C24.0142 3.22545 20.7887 0 16.8099 0C12.8311 0 9.60566 3.22545 9.60566 7.20425C9.60566 11.183 12.8311 14.4085 16.8099 14.4085Z" fill="url(#paint0_linear_1_1248)"/>
<path d="M28.1578 18.91C30.5834 21.3357 32.1145 24.4887 32.5388 27.8564H25.9353V29.7776H34.5804C34.5804 29.1326 34.5443 28.4913 34.4734 27.8564C34.0398 23.9776 32.3027 20.338 29.5162 17.5515C26.2737 14.309 21.8758 12.4874 17.2902 12.4874C12.7045 12.4874 8.30672 14.309 5.06418 17.5515C2.27772 20.338 0.540554 23.9776 0.107001 27.8564C0.0360386 28.4913 0 29.1326 0 29.7776H8.6451V27.8564H2.04162C2.46584 24.4887 3.99695 21.3357 6.42263 18.91C9.30488 16.0277 13.2141 14.4085 17.2902 14.4085C21.3663 14.4085 25.2755 16.0277 28.1578 18.91Z" fill="url(#paint1_linear_1_1248)"/>
<path d="M12.2096 21.6868C12.308 21.7853 12.4065 21.7853 12.5049 21.8837C12.6034 21.8837 12.7019 21.8837 12.8003 21.8837H12.8988C12.9972 21.8837 13.0957 21.7853 13.2926 21.7853C13.4895 21.5883 13.6864 21.3914 13.7849 21.1945C13.7849 20.8991 13.7849 20.7022 13.6864 20.4068L12.8988 19.1269C12.8003 19.0284 12.7019 18.93 12.6034 18.8315C12.5049 18.7331 12.4065 18.6346 12.308 18.6346C12.2096 18.6346 12.0126 18.6346 11.9142 18.6346C11.8157 18.6346 11.7173 18.6346 11.6188 18.7331C11.4219 18.8315 11.3234 18.93 11.3234 19.0284C11.225 19.1269 11.1265 19.2254 11.1265 19.3238C11.1265 19.4223 11.1265 19.6192 11.1265 19.7176C11.1265 19.8161 11.225 20.013 11.225 20.1115L12.0126 21.4899C12.0126 21.4899 12.1111 21.5883 12.2096 21.6868Z" fill="url(#paint2_linear_1_1248)"/>
<path d="M10.1412 23.2621L8.86122 22.4744C8.56585 22.376 8.36893 22.2775 8.07356 22.376C7.87664 22.4744 7.67973 22.5729 7.48281 22.7698C7.38435 23.0652 7.38435 23.2621 7.38435 23.5575C7.48281 23.7544 7.67973 23.9513 7.87664 24.1482L9.25505 24.9359C9.35351 25.0343 9.45197 25.0343 9.64889 25.0343H9.74734C9.8458 25.0343 9.94426 25.0343 10.0427 25.0343C10.1412 25.0343 10.2396 24.9359 10.3381 24.8374C10.3381 24.739 10.4366 24.6405 10.535 24.5421C10.6335 24.3451 10.7319 24.0498 10.6335 23.8528C10.535 23.5575 10.3381 23.3606 10.1412 23.2621Z" fill="url(#paint3_linear_1_1248)"/>
<path d="M16.7363 20.6037C16.8348 20.7022 17.0317 20.7022 17.1302 20.7022C17.2286 20.7022 17.4255 20.7022 17.524 20.6037C17.6225 20.6037 17.7209 20.5053 17.8194 20.4068C18.0163 20.2099 18.1147 20.013 18.1147 19.7176V18.2407C18.1147 17.9454 18.0163 17.7485 17.8194 17.5515C17.4255 17.1577 16.8348 17.1577 16.441 17.5515C16.244 17.7485 16.1456 17.9454 16.1456 18.2407V19.7176C16.1456 20.013 16.244 20.2099 16.441 20.4068C16.5394 20.5053 16.6379 20.6037 16.7363 20.6037Z" fill="url(#paint4_linear_1_1248)"/>
<path d="M26.7806 22.7698C26.6821 22.6713 26.5837 22.5729 26.4852 22.5729C26.3868 22.4744 26.2883 22.4744 26.1898 22.3759C26.0914 22.3759 25.8945 22.3759 25.796 22.3759C25.6975 22.3759 25.5991 22.4744 25.4022 22.4744L24.0238 23.2621C23.8268 23.3605 23.7284 23.5574 23.6299 23.7544C23.6299 23.8528 23.6299 24.1482 23.6299 24.3451C23.7284 24.542 23.8268 24.7389 23.9253 24.8374C24.1222 24.9358 24.3191 25.0343 24.5161 25.0343C24.713 25.0343 24.8114 25.0343 25.0083 24.9358L26.3868 24.1482C26.4852 24.0497 26.5837 24.0497 26.6821 23.8528C26.7806 23.7544 26.7806 23.6559 26.879 23.5574C26.879 23.459 26.879 23.2621 26.879 23.1636C26.879 23.0651 26.7806 22.9667 26.7806 22.7698Z" fill="url(#paint5_linear_1_1248)"/>
<path d="M17.1317 21.5883C13.981 21.5883 11.3227 24.1483 11.3227 27.3974C11.3227 28.9727 11.815 29.8588 12.3073 30.6465C12.7011 31.3357 13.1934 32.0249 13.3903 33.5018C12.898 33.7971 12.6026 34.3879 12.6026 34.9786V36.6524C12.6026 37.5386 13.2918 38.3262 14.178 38.4247C14.2764 39.3108 14.9656 40 15.8517 40H18.0178C18.9039 40 19.5931 39.3108 19.6916 38.4247C20.5777 38.3262 21.2669 37.637 21.2669 36.6524V34.9786C21.2669 34.3879 20.9716 33.8956 20.4793 33.5018C20.6762 32.0249 21.1685 31.3357 21.5623 30.6465C22.0546 29.8588 22.5469 29.0712 22.5469 27.3974C22.9407 24.2467 20.2824 21.5883 17.1317 21.5883ZM18.3132 36.7509C18.1163 36.9478 18.0178 37.1447 18.0178 37.4401V38.0308H16.2456V37.4401C16.2456 37.1447 16.1471 36.9478 15.9502 36.7509C15.7533 36.554 15.5564 36.4555 15.261 36.4555H14.6702V35.0771H19.5932V36.4555H18.9039C18.707 36.4555 18.5101 36.554 18.3132 36.7509ZM18.9039 33.1079H18.1163V28.7758L19.6916 27.8897C19.8885 27.7912 20.0854 27.5943 20.1839 27.2989C20.2824 27.0035 20.1839 26.8066 20.0854 26.6097C19.987 26.4128 19.7901 26.2159 19.4947 26.1174C19.2978 26.019 19.0024 26.1174 18.8055 26.2159L17.2302 27.102L15.5564 26.2159C15.4579 26.2159 15.3595 26.1174 15.1625 26.1174C15.0641 26.1174 14.8672 26.1174 14.7687 26.1174C14.6702 26.1174 14.5718 26.2159 14.4733 26.3143C14.3749 26.4128 14.2764 26.5112 14.2764 26.6097C14.178 26.7082 14.178 26.8066 14.178 27.0035C14.178 27.102 14.178 27.2989 14.178 27.3974C14.178 27.4958 14.2764 27.5943 14.3749 27.6927C14.4733 27.7912 14.5718 27.8897 14.6702 27.8897L16.2456 28.7758V33.1079H15.3595C15.0641 31.2372 14.4733 30.2527 13.981 29.5634C13.5872 28.8742 13.2918 28.4804 13.2918 27.3974C13.2918 25.3298 14.9656 23.5575 17.1317 23.5575C19.2978 23.5575 20.9716 25.2313 20.9716 27.3974C20.9716 28.4804 20.6762 28.8742 20.2824 29.5634C19.7901 30.3511 19.1993 31.2372 18.9039 33.1079Z" fill="url(#paint6_linear_1_1248)"/>
<path d="M22.6446 18.733C22.4477 18.6345 22.1523 18.5361 21.9554 18.6345C21.7585 18.733 21.4631 18.8314 21.3646 19.1268L20.577 20.5052C20.4785 20.7021 20.3801 20.9975 20.4785 21.1944C20.577 21.3913 20.6754 21.6867 20.9708 21.7852C21.0693 21.8836 21.1677 21.8836 21.3646 21.8836H21.4631C21.5616 21.8836 21.66 21.8836 21.7585 21.8836C21.8569 21.8836 21.9554 21.7852 22.0538 21.6867C22.1523 21.5883 22.2508 21.4898 22.3492 21.3914L23.1369 20.0129C23.2353 19.816 23.3338 19.5206 23.2353 19.3237C23.0384 19.1268 22.94 18.8314 22.6446 18.733Z" fill="url(#paint7_linear_1_1248)"/>
<defs>
<linearGradient id="paint0_linear_1_1248" x1="1.62095" y1="9.68646e-07" x2="36.4957" y2="31.4729" gradientUnits="userSpaceOnUse">
<stop stop-color="#FE5B52"/>
<stop offset="0.948075" stop-color="#3E96F4"/>
</linearGradient>
<linearGradient id="paint1_linear_1_1248" x1="1.62095" y1="9.68646e-07" x2="36.4957" y2="31.4729" gradientUnits="userSpaceOnUse">
<stop stop-color="#FE5B52"/>
<stop offset="0.948075" stop-color="#3E96F4"/>
</linearGradient>
<linearGradient id="paint2_linear_1_1248" x1="1.62095" y1="9.68646e-07" x2="36.4957" y2="31.4729" gradientUnits="userSpaceOnUse">
<stop stop-color="#FE5B52"/>
<stop offset="0.948075" stop-color="#3E96F4"/>
</linearGradient>
<linearGradient id="paint3_linear_1_1248" x1="1.62095" y1="9.68646e-07" x2="36.4957" y2="31.4729" gradientUnits="userSpaceOnUse">
<stop stop-color="#FE5B52"/>
<stop offset="0.948075" stop-color="#3E96F4"/>
</linearGradient>
<linearGradient id="paint4_linear_1_1248" x1="1.62095" y1="9.68646e-07" x2="36.4957" y2="31.4729" gradientUnits="userSpaceOnUse">
<stop stop-color="#FE5B52"/>
<stop offset="0.948075" stop-color="#3E96F4"/>
</linearGradient>
<linearGradient id="paint5_linear_1_1248" x1="1.62095" y1="9.68646e-07" x2="36.4957" y2="31.4729" gradientUnits="userSpaceOnUse">
<stop stop-color="#FE5B52"/>
<stop offset="0.948075" stop-color="#3E96F4"/>
</linearGradient>
<linearGradient id="paint6_linear_1_1248" x1="1.62095" y1="9.68646e-07" x2="36.4957" y2="31.4729" gradientUnits="userSpaceOnUse">
<stop stop-color="#FE5B52"/>
<stop offset="0.948075" stop-color="#3E96F4"/>
</linearGradient>
<linearGradient id="paint7_linear_1_1248" x1="1.62095" y1="9.68646e-07" x2="36.4957" y2="31.4729" gradientUnits="userSpaceOnUse">
<stop stop-color="#FE5B52"/>
<stop offset="0.948075" stop-color="#3E96F4"/>
</linearGradient>
</defs>
</svg>
