<svg width="40" height="41" viewBox="0 0 40 41" fill="none" xmlns="http://www.w3.org/2000/svg">
<path fill-rule="evenodd" clip-rule="evenodd" d="M0 6C0 2.68629 2.68629 0 6 0H34C37.3137 0 40 2.68629 40 6V24.5C40 27.8137 37.3137 30.5 34 30.5H32.5C31.9477 30.5 31.5 30.0523 31.5 29.5C31.5 28.9477 31.9477 28.5 32.5 28.5H34C36.2091 28.5 38 26.7091 38 24.5V6C38 3.79086 36.2091 2 34 2H6C3.79086 2 2 3.79086 2 6V24.5C2 26.7091 3.79086 28.5 6 28.5H7.5C8.05228 28.5 8.5 28.9477 8.5 29.5C8.5 30.0523 8.05228 30.5 7.5 30.5H6C2.68629 30.5 0 27.8137 0 24.5V6Z" fill="url(#paint0_linear_1_1230)"/>
<path fill-rule="evenodd" clip-rule="evenodd" d="M38 10H2V8H38V10Z" fill="url(#paint1_linear_1_1230)"/>
<path d="M6 5C6 5.55228 5.55228 6 5 6C4.44772 6 4 5.55228 4 5C4 4.44772 4.44772 4 5 4C5.55228 4 6 4.44772 6 5Z" fill="url(#paint2_linear_1_1230)"/>
<path d="M9 5C9 5.55228 8.55229 6 8 6C7.44772 6 7 5.55228 7 5C7 4.44772 7.44772 4 8 4C8.55229 4 9 4.44772 9 5Z" fill="url(#paint3_linear_1_1230)"/>
<path d="M12 5C12 5.55228 11.5523 6 11 6C10.4477 6 10 5.55228 10 5C10 4.44772 10.4477 4 11 4C11.5523 4 12 4.44772 12 5Z" fill="url(#paint4_linear_1_1230)"/>
<path d="M15 5C15 4.44772 15.4477 4 16 4H35C35.5523 4 36 4.44772 36 5C36 5.55228 35.5523 6 35 6H16C15.4477 6 15 5.55228 15 5Z" fill="url(#paint5_linear_1_1230)"/>
<path d="M9 29.5V30.3986C9 31.5262 9.91849 32.4483 11.0503 32.4483H11.2038C11.3413 32.8634 11.5093 33.2678 11.7066 33.658L11.6024 33.7618L11.5991 33.7651C10.8048 34.5635 10.8018 35.8641 11.6011 36.663L12.6477 37.7091C13.4474 38.5115 14.7499 38.5081 15.5485 37.71L15.6542 37.6043C16.0435 37.8004 16.4497 37.9696 16.8699 38.1081V38.2642C16.8699 39.394 17.7902 40.3163 18.9202 40.3163H20.4018C21.5316 40.3163 22.452 39.394 22.452 38.2642V38.1104C22.8715 37.9723 23.28 37.8031 23.6742 37.6043L23.7781 37.7078L23.7801 37.7098C24.5798 38.5116 25.8819 38.5078 26.6802 37.71L26.681 37.7091L27.7233 36.6651L27.7252 36.6632C28.5276 35.8637 28.524 34.5613 27.7254 33.7631L27.6206 33.6584C27.8175 33.2679 27.9853 32.8635 28.1227 32.4483H28.2715C29.4006 32.4483 30.3241 31.5291 30.3241 30.3986V29.5H28.2495V30.3738H27.3367C26.8531 30.3738 26.4337 30.7079 26.3256 31.1792C26.1547 31.9246 25.8595 32.636 25.4524 33.2833C25.1947 33.6932 25.2548 34.2269 25.5973 34.5692L26.2415 35.2131L25.2302 36.2261L24.5817 35.5801C24.2393 35.239 23.7066 35.1796 23.2975 35.437C22.6477 35.8457 21.9334 36.1413 21.1849 36.3115C20.7126 36.4188 20.3775 36.8387 20.3775 37.323V38.2418H18.9444V37.3207C18.9444 36.836 18.6088 36.4159 18.136 36.309C17.3816 36.1383 16.6697 35.8379 16.027 35.4357C15.6175 35.1794 15.0851 35.2398 14.7434 35.5814L14.0985 36.2261L13.0851 35.2131L13.7303 34.5704C14.0743 34.2277 14.1345 33.6922 13.8753 33.2817C13.4671 32.6354 13.1715 31.9247 13.001 31.1796C12.8931 30.7081 12.4736 30.3738 11.9899 30.3738H11.0746V29.5H9Z" fill="url(#paint6_linear_1_1230)"/>
<path fill-rule="evenodd" clip-rule="evenodd" d="M22.5691 27.9903V24.5825C22.5691 23.254 23.6461 22.177 24.9746 22.177H25.4789L20.0053 17.8414L14.9651 22.177C16.2874 22.1843 17.3572 23.2585 17.3572 24.5825V27.9903C17.3572 29.4296 18.5239 30.5963 19.9631 30.5963C21.4024 30.5963 22.5691 29.4296 22.5691 27.9903ZM14.9516 23.7807C15.3945 23.7807 15.7535 24.1397 15.7535 24.5825V27.9903C15.7535 30.3153 17.6382 32.2 19.9631 32.2C22.2881 32.2 24.1728 30.3153 24.1728 27.9903V24.5825C24.1728 24.1397 24.5318 23.7807 24.9746 23.7807H27.7826C28.5426 23.7807 28.8762 22.8221 28.2805 22.3503L20.4821 16.1733C20.1808 15.9347 19.7526 15.9433 19.4613 16.194L12.2805 22.371C11.7167 22.856 12.0597 23.7807 12.8034 23.7807H14.9516Z" fill="url(#paint7_linear_1_1230)"/>
<defs>
<linearGradient id="paint0_linear_1_1230" x1="40.3202" y1="40.3815" x2="10.0273" y2="5.25601" gradientUnits="userSpaceOnUse">
<stop stop-color="#31393C"/>
<stop offset="1" stop-color="#3D96F5"/>
</linearGradient>
<linearGradient id="paint1_linear_1_1230" x1="40.3202" y1="40.3815" x2="10.0273" y2="5.25601" gradientUnits="userSpaceOnUse">
<stop stop-color="#31393C"/>
<stop offset="1" stop-color="#3D96F5"/>
</linearGradient>
<linearGradient id="paint2_linear_1_1230" x1="40.3202" y1="40.3815" x2="10.0273" y2="5.25601" gradientUnits="userSpaceOnUse">
<stop stop-color="#31393C"/>
<stop offset="1" stop-color="#3D96F5"/>
</linearGradient>
<linearGradient id="paint3_linear_1_1230" x1="40.3202" y1="40.3815" x2="10.0273" y2="5.25601" gradientUnits="userSpaceOnUse">
<stop stop-color="#31393C"/>
<stop offset="1" stop-color="#3D96F5"/>
</linearGradient>
<linearGradient id="paint4_linear_1_1230" x1="40.3202" y1="40.3815" x2="10.0273" y2="5.25601" gradientUnits="userSpaceOnUse">
<stop stop-color="#31393C"/>
<stop offset="1" stop-color="#3D96F5"/>
</linearGradient>
<linearGradient id="paint5_linear_1_1230" x1="40.3202" y1="40.3815" x2="10.0273" y2="5.25601" gradientUnits="userSpaceOnUse">
<stop stop-color="#31393C"/>
<stop offset="1" stop-color="#3D96F5"/>
</linearGradient>
<linearGradient id="paint6_linear_1_1230" x1="40.3202" y1="40.3815" x2="10.0273" y2="5.25601" gradientUnits="userSpaceOnUse">
<stop stop-color="#31393C"/>
<stop offset="1" stop-color="#3D96F5"/>
</linearGradient>
<linearGradient id="paint7_linear_1_1230" x1="40.3202" y1="40.3815" x2="10.0273" y2="5.25601" gradientUnits="userSpaceOnUse">
<stop stop-color="#31393C"/>
<stop offset="1" stop-color="#3D96F5"/>
</linearGradient>
</defs>
</svg>
