<svg width="128" height="128" viewBox="0 0 128 128" fill="none" xmlns="http://www.w3.org/2000/svg">
<g filter="url(#filter0_di_1_291)">
<circle cx="64" cy="64" r="60" fill="white"/>
<circle cx="64" cy="64" r="59.5" stroke="white"/>
</g>
<path d="M68.8837 38H87.5484C88.9536 38 90.0009 39.2549 90.0009 40.6252V52.3815C90.0009 53.7518 88.9536 55.0067 87.5484 55.0067H68.8837C67.4676 55.0067 66.4308 53.7518 66.4308 52.3815V50.2516L62.4585 48.2248C61.2378 47.6029 61.2378 45.7723 62.4585 45.1504C63.7829 44.4711 65.1069 43.8032 66.4308 43.1236V40.6252C66.4304 39.2549 67.4672 38 68.8837 38ZM87.5484 39.6234H68.8837C68.3658 39.6234 68.0546 40.1531 68.0546 40.6252V43.6192C68.0546 43.9068 67.8937 44.1949 67.6057 44.333C66.1314 45.0931 64.6693 45.8532 63.1955 46.6015C63.115 46.6474 63.1378 46.751 63.1955 46.7741L67.537 49.0081C67.6889 49.0658 67.8198 49.1682 67.9122 49.3018C68.0047 49.4354 68.0545 49.5939 68.055 49.7564V52.3815C68.055 52.8536 68.3662 53.3833 68.8842 53.3833H87.5488C88.0667 53.3833 88.3779 52.8536 88.3779 52.3815V40.6252C88.3775 40.1531 88.0663 39.6234 87.5484 39.6234Z" fill="url(#paint0_linear_1_291)"/>
<path d="M72.3023 43.7224C71.231 43.7224 71.231 42.099 72.3023 42.099H84.4844C85.5439 42.099 85.5439 43.7224 84.4844 43.7224H72.3023ZM72.3023 50.9191C71.231 50.9191 71.231 49.2953 72.3023 49.2953H79.5335C80.6043 49.2953 80.6043 50.9191 79.5335 50.9191H72.3023ZM72.3023 47.3152C71.231 47.3152 71.231 45.6915 72.3023 45.6915H84.4844C85.5439 45.6915 85.5439 47.3152 84.4844 47.3152H72.3023ZM48.4552 53.3716C48.2319 53.2864 48.0162 53.1824 47.8105 53.0608L47.6833 53.9935L50.3548 56.9985L53.0145 53.9935L52.8877 53.0608C52.6923 53.1758 52.4847 53.2798 52.2544 53.3716C51.1839 53.7977 49.5147 53.7977 48.4552 53.3716ZM46.3366 51.875L46.2562 51.8059C45.0122 50.7005 44.4024 49.1807 44.4024 47.5224V43.7915C44.4024 40.2681 46.8895 38 50.3552 38C53.8209 38 56.2965 40.2681 56.2965 43.7915V47.5224C56.2965 49.1807 55.6864 50.7005 54.4428 51.8059L54.362 51.875L54.6269 53.8323L56.0203 55.0526L59.9698 56.7686C60.8221 57.1488 61.5014 57.7359 61.9734 58.4728C62.4455 59.2211 62.699 60.0962 62.699 61.0289V63.2742C62.699 63.7231 62.3419 64.092 61.893 64.092C61.4441 64.092 61.0752 63.7235 61.0752 63.2742V61.0289C61.0752 60.3956 60.9144 59.8199 60.6032 59.3479C60.2947 58.8649 59.8499 58.4843 59.3251 58.2542L56.0898 56.8494L54.7309 61.0984C54.6041 61.5245 54.1438 61.7549 53.7177 61.6281C53.6373 61.5936 53.5564 61.5591 53.4873 61.5014L51.1612 59.8085V63.2742C51.1612 63.7231 50.8045 64.092 50.3556 64.092C49.9067 64.092 49.5374 63.7231 49.5374 63.2742V59.8085L47.223 61.5128L46.9813 61.6277C46.7767 61.6898 46.5559 61.6691 46.3664 61.57C46.1769 61.471 46.0339 61.3014 45.9681 61.098L44.621 56.849L41.3739 58.2538C40.8328 58.4956 40.3952 58.8754 40.0958 59.3475C39.7964 59.8195 39.6238 60.3956 39.6238 61.0285V71.2184C39.6238 71.6677 39.2667 72.0362 38.8178 72.0362C38.3689 72.0362 38 71.6685 38 71.2192V61.0289C38 60.0962 38.2535 59.2211 38.7369 58.4728C39.1976 57.7359 39.8769 57.1484 40.7288 56.7686L44.6783 55.053L46.0717 53.8327L46.3366 51.875ZM47.6837 50.9077C47.7296 50.9422 47.7645 50.9767 47.7991 51.0226C48.1789 51.3566 48.5701 51.6791 49.0426 51.8632C49.7223 52.128 50.9889 52.128 51.6568 51.8632C52.1289 51.6787 52.5205 51.3566 52.9003 51.0226C52.9353 50.9767 52.9812 50.9422 53.0271 50.9077C53.1424 50.8041 53.2574 50.7005 53.361 50.5965C54.2592 49.7905 54.6736 48.7196 54.6736 47.5224V45.7955C51.6913 46.3593 49.9985 45.0009 49.1348 43.8727C48.1675 45.0126 46.9358 45.0699 46.0376 44.8973V47.5224C46.0376 48.7196 46.4406 49.7905 47.3388 50.5965L47.6837 50.9077ZM46.7627 55.3866L46.0486 56.0085L47.1653 59.5319L49.1572 58.0812L46.7627 55.3866ZM53.9362 55.3866L51.5528 58.0812L53.5333 59.5319L54.6504 56.0085L53.9362 55.3866ZM42.7669 65.7848C42.7669 65.3359 43.1354 64.9671 43.5847 64.9671C44.034 64.9671 44.3907 65.3355 44.3907 65.7848V71.2192C44.3907 71.6685 44.0336 72.037 43.5847 72.037C43.1358 72.037 42.7669 71.6689 42.7669 71.2192V65.7848ZM46.0603 43.239C46.6941 43.4002 47.7991 43.4461 48.3979 41.9723C48.6859 41.2813 49.6414 41.2585 49.9177 42.03C49.9177 42.03 50.9422 44.9891 54.6732 44.1372V43.7915C54.6732 41.1663 52.9231 39.6234 50.3552 39.6234C48.0408 39.6234 46.3025 40.8783 46.0603 43.239ZM71.7725 73.3845C70.2869 72.0715 69.5617 70.4941 69.5617 68.5018V64.2878C69.5617 60.3842 72.3136 57.8626 76.1714 57.8626C80.0173 57.8626 82.7688 60.3846 82.7688 64.2878V68.5018C82.7688 70.4937 82.0546 72.0711 80.5698 73.3845L80.8923 76.7348L86.9832 79.0265C88.8714 79.8556 90 81.6866 90 83.7361V89.1822C90 89.6311 89.6319 90 89.1826 90C88.7333 90 88.3766 89.6315 88.3766 89.1822V83.7361C88.3766 82.3313 87.6515 81.0991 86.3499 80.5235L79.856 78.071C77.4271 77.2999 74.9737 77.1382 72.5099 77.8638L65.9811 80.5235C64.6916 81.0991 63.9661 82.3313 63.9661 83.7361V89.1822C63.9652 89.3988 63.8788 89.6064 63.7256 89.7595C63.5724 89.9127 63.3649 89.9991 63.1483 90C62.6998 90 62.3427 89.6315 62.3427 89.1822V83.7361C62.3427 81.6866 63.4709 79.8556 65.3595 79.0265L71.4739 76.5394L71.7725 73.3845ZM78.6466 74.1901H73.6839C73.4767 74.1901 73.3037 74.3514 73.2809 74.5582L73.1428 76.0324C75.1687 75.6294 77.2073 75.7212 79.2109 76.2051L79.0496 74.5582C79.0378 74.3514 78.8652 74.1901 78.6466 74.1901ZM73.6148 72.5899H78.7157C79.0147 72.5899 79.3836 72.3132 79.7061 72.0024C80.6848 71.0352 81.1454 69.907 81.1454 68.5022V64.2878C81.1454 61.2706 79.1305 59.486 76.1714 59.486C73.2123 59.486 71.1855 61.271 71.1855 64.2878V68.5018C71.1855 69.9875 71.7266 71.1961 72.8324 72.1751C73.0969 72.4168 73.3727 72.5899 73.6148 72.5899Z" fill="url(#paint1_linear_1_291)"/>
<path d="M46.3605 73.2114L47.7072 65.4968C47.9148 64.3109 49.0429 63.3433 50.2405 63.3433H63.9311C65.2664 63.3433 66.1764 64.4836 65.9464 65.773L64.2191 75.6176C64.0001 76.8843 62.8029 77.9206 61.5131 77.9206H43.908C43.0093 77.9206 42.1115 77.414 41.8812 76.4927L41.3287 74.2242C41.202 73.7062 41.5936 73.211 42.1119 73.211L46.3605 73.2114ZM56.7003 69.7916C57.1492 69.7916 57.5063 70.1487 57.5063 70.5972C57.5063 71.0461 57.1492 71.415 56.7003 71.415C56.2514 71.415 55.8825 71.0465 55.8825 70.5972C55.8829 70.1487 56.2514 69.7916 56.7003 69.7916ZM47.5808 75.618C47.5232 76.0096 47.719 76.2973 48.122 76.2973H61.5135C62.0314 76.2973 62.5267 75.8484 62.6193 75.3414L64.3462 65.4968C64.4039 65.1856 64.2426 64.967 63.9315 64.967H50.2409C49.8148 64.967 49.3886 65.3473 49.3082 65.773L47.5808 75.618ZM46.0724 74.8348H43.1479L43.4587 76.1014C43.5972 76.3432 43.7926 76.2968 43.908 76.2968H46.0034C45.9343 75.9861 45.9343 75.6521 45.9802 75.341L46.0724 74.8348Z" fill="url(#paint2_linear_1_291)"/>
<defs>
<filter id="filter0_di_1_291" x="0" y="0" width="128" height="128" filterUnits="userSpaceOnUse" color-interpolation-filters="sRGB">
<feFlood flood-opacity="0" result="BackgroundImageFix"/>
<feColorMatrix in="SourceAlpha" type="matrix" values="0 0 0 0 0 0 0 0 0 0 0 0 0 0 0 0 0 0 127 0" result="hardAlpha"/>
<feOffset/>
<feGaussianBlur stdDeviation="2"/>
<feComposite in2="hardAlpha" operator="out"/>
<feColorMatrix type="matrix" values="0 0 0 0 0 0 0 0 0 0 0 0 0 0 0 0 0 0 0.25 0"/>
<feBlend mode="normal" in2="BackgroundImageFix" result="effect1_dropShadow_1_291"/>
<feBlend mode="normal" in="SourceGraphic" in2="effect1_dropShadow_1_291" result="shape"/>
<feColorMatrix in="SourceAlpha" type="matrix" values="0 0 0 0 0 0 0 0 0 0 0 0 0 0 0 0 0 0 127 0" result="hardAlpha"/>
<feOffset/>
<feGaussianBlur stdDeviation="5"/>
<feComposite in2="hardAlpha" operator="arithmetic" k2="-1" k3="1"/>
<feColorMatrix type="matrix" values="0 0 0 0 0.832292 0 0 0 0 0.901797 0 0 0 0 0.976042 0 0 0 1 0"/>
<feBlend mode="normal" in2="shape" result="effect2_innerShadow_1_291"/>
</filter>
<linearGradient id="paint0_linear_1_291" x1="66.1795" y1="77.9442" x2="57.2634" y2="60.3042" gradientUnits="userSpaceOnUse">
<stop stop-color="#31393C"/>
<stop offset="1" stop-color="#3D96F5"/>
</linearGradient>
<linearGradient id="paint1_linear_1_291" x1="66.1795" y1="77.9442" x2="57.2634" y2="60.3042" gradientUnits="userSpaceOnUse">
<stop stop-color="#31393C"/>
<stop offset="1" stop-color="#3D96F5"/>
</linearGradient>
<linearGradient id="paint2_linear_1_291" x1="66.1795" y1="77.9442" x2="57.2634" y2="60.3042" gradientUnits="userSpaceOnUse">
<stop stop-color="#31393C"/>
<stop offset="1" stop-color="#3D96F5"/>
</linearGradient>
</defs>
</svg>
