<svg width="42" height="42" viewBox="0 0 42 42" fill="none" xmlns="http://www.w3.org/2000/svg">
<path fill-rule="evenodd" clip-rule="evenodd" d="M25.9696 25.7343C26.5219 25.7343 26.9696 25.2866 26.9696 24.7343V17.2655C26.9696 16.7132 26.5219 16.2655 25.9696 16.2655C25.4173 16.2655 24.9696 16.7132 24.9696 17.2655V24.7343C24.9696 25.2866 25.4173 25.7343 25.9696 25.7343Z" fill="url(#paint0_linear_1_1243)"/>
<path fill-rule="evenodd" clip-rule="evenodd" d="M25.9903 22.4903L25.984 21.4903L24.9841 21.4964C24.9857 21.7616 25.0926 22.0153 25.2813 22.2017C25.47 22.3881 25.725 22.4919 25.9903 22.4903ZM24.9696 17.2687C24.9688 17.003 25.0738 16.7478 25.2614 16.5596C25.449 16.3713 25.7038 16.2655 25.9696 16.2655L28.0492 16.2656C29.7403 16.2656 31.1982 17.6319 31.1982 19.3733C31.1982 21.1146 29.7403 22.481 28.0492 22.481C27.7636 22.481 27.25 22.4833 26.8054 22.4856L25.9903 22.4903L25.984 21.4903L24.9841 21.4964L24.9794 20.6569C24.9771 20.2015 24.9748 19.6697 24.9748 19.3733C24.9748 19.134 24.9735 18.6086 24.9722 18.1415L24.9696 17.2687ZM26.9786 20.4847C26.9766 20.0707 26.9748 19.6298 26.9748 19.3733C26.9748 19.1529 26.9737 18.6967 26.9725 18.2656H28.0492C28.6864 18.2656 29.1982 18.7865 29.1982 19.3733C29.1982 19.9601 28.6864 20.481 28.0492 20.481C27.797 20.481 27.375 20.4827 26.9786 20.4847Z" fill="url(#paint1_linear_1_1243)"/>
<path fill-rule="evenodd" clip-rule="evenodd" d="M14.8206 41C14.8206 41.5523 15.2683 42 15.8206 42H25.8206C26.3729 42 26.8206 41.5523 26.8206 41V35.8183C28.2053 35.2583 29.4949 34.5132 30.6565 33.607L35.1412 36.1962C35.6195 36.4723 36.2311 36.3084 36.5072 35.8301L41.5072 27.1699C41.6398 26.9402 41.6757 26.6672 41.6071 26.411C41.5384 26.1549 41.3708 25.9365 41.1412 25.8038L36.6583 23.2157C36.7615 22.4958 36.8206 21.7569 36.8206 21C36.8206 20.2431 36.7615 19.5042 36.6583 18.7843L41.1412 16.1962C41.3708 16.0635 41.5384 15.8451 41.6071 15.5889C41.6757 15.3328 41.6398 15.0598 41.5072 14.8301L36.5072 6.16988C36.2311 5.69159 35.6195 5.52771 35.1412 5.80385L30.6565 8.39301C29.495 7.48686 28.2054 6.74171 26.8206 6.18164V1C26.8206 0.447716 26.3729 0 25.8206 0H15.8206C15.2683 0 14.8206 0.447716 14.8206 1V6.18164C13.4358 6.74171 12.1462 7.48686 10.9847 8.39301L6.5 5.80385C6.0217 5.52771 5.41012 5.69159 5.13398 6.16988L0.133977 14.8301C0.00136796 15.0598 -0.0345668 15.3328 0.0340781 15.5889C0.102723 15.8451 0.270325 16.0635 0.500012 16.1962L4.98291 18.7843C4.87964 19.5042 4.82058 20.2431 4.82058 21C4.82058 21.7569 4.87964 22.4958 4.98291 23.2157L0.500012 25.8038C0.270325 25.9365 0.102723 26.1549 0.0340781 26.411C-0.0345668 26.6672 0.00136796 26.9402 0.133977 27.1699L5.13398 35.8301C5.41012 36.3084 6.0217 36.4723 6.5 36.1962L10.9846 33.607C12.1462 34.5132 13.4358 35.2583 14.8206 35.8183V41ZM16.8206 40V35.1282C16.8206 34.7046 16.5537 34.327 16.1544 34.1856C14.518 33.6061 13.0227 32.7397 11.7325 31.636C11.4103 31.3604 10.9495 31.3179 10.5824 31.5298L6.36603 33.9641L2.36603 27.0359L6.58157 24.6021C6.94822 24.3904 7.14184 23.9708 7.06495 23.5545C6.91031 22.7172 6.82058 21.8665 6.82058 21C6.82058 20.1335 6.91031 19.2828 7.06495 18.4455C7.14184 18.0292 6.94822 17.6095 6.58157 17.3979L2.36603 14.9641L6.36603 8.0359L10.5824 10.4702C10.9495 10.6821 11.4103 10.6396 11.7324 10.3641C13.0227 9.26039 14.5181 8.39379 16.1544 7.81444C16.5537 7.67305 16.8206 7.2954 16.8206 6.87178V2H24.8206V6.87178C24.8206 7.2954 25.0875 7.67305 25.4868 7.81444C27.1231 8.39379 28.6184 9.26039 29.9087 10.3641C30.2309 10.6396 30.6917 10.6821 31.0588 10.4702L35.2751 8.0359L39.2751 14.9641L35.0596 17.3979C34.693 17.6095 34.4993 18.0292 34.5762 18.4455C34.7309 19.2828 34.8206 20.1335 34.8206 21C34.8206 21.8665 34.7309 22.7172 34.5762 23.5545C34.4993 23.9708 34.693 24.3904 35.0596 24.6021L39.2751 27.0359L35.2751 33.9641L31.0588 31.5298C30.6917 31.3179 30.2308 31.3604 29.9087 31.636C28.6185 32.7397 27.1231 33.6061 25.4868 34.1856C25.0875 34.327 24.8206 34.7046 24.8206 35.1282V40H16.8206Z" fill="url(#paint2_linear_1_1243)"/>
<path fill-rule="evenodd" clip-rule="evenodd" d="M11.1068 24.7344C11.1068 25.2867 11.5545 25.7344 12.1068 25.7344H15.2538C15.8061 25.7344 16.2538 25.2867 16.2538 24.7344C16.2538 24.1822 15.8061 23.7344 15.2538 23.7344H13.1068V18.2656H15.2538C15.8061 18.2656 16.2538 17.8178 16.2538 17.2656C16.2538 16.7133 15.8061 16.2656 15.2538 16.2656H12.1068C11.5545 16.2656 11.1068 16.7133 11.1068 17.2656V24.7344Z" fill="url(#paint3_linear_1_1243)"/>
<path fill-rule="evenodd" clip-rule="evenodd" d="M11.1068 21C11.1068 21.5523 11.5545 22 12.1068 22H15.0218C15.5741 22 16.0218 21.5523 16.0218 21C16.0218 20.4477 15.5741 20 15.0218 20H12.1068C11.5545 20 11.1068 20.4477 11.1068 21Z" fill="url(#paint4_linear_1_1243)"/>
<path fill-rule="evenodd" clip-rule="evenodd" d="M23.2512 25.4851C23.6658 25.1202 23.7061 24.4883 23.3412 24.0738L20.2038 20.509C19.8389 20.0944 19.207 20.0542 18.7924 20.419C18.3779 20.7839 18.3376 21.4158 18.7025 21.8304L21.8399 25.3951C22.2048 25.8097 22.8366 25.85 23.2512 25.4851Z" fill="url(#paint5_linear_1_1243)"/>
<path fill-rule="evenodd" clip-rule="evenodd" d="M18.5526 25.7344C19.1049 25.7344 19.5526 25.2867 19.5526 24.7344V17.2656C19.5526 16.7133 19.1049 16.2656 18.5526 16.2656C18.0003 16.2656 17.5526 16.7133 17.5526 17.2656V24.7344C17.5526 25.2867 18.0003 25.7344 18.5526 25.7344Z" fill="url(#paint6_linear_1_1243)"/>
<path fill-rule="evenodd" clip-rule="evenodd" d="M18.575 22.1562L18.5689 21.1563L17.569 21.1625C17.5724 21.7147 18.0228 22.1596 18.575 22.1562ZM17.5552 17.2689C17.5543 17.0031 17.6593 16.7479 17.8469 16.5596C18.0345 16.3714 18.2894 16.2656 18.5552 16.2656H20.5399C22.1435 16.2656 23.5908 17.5245 23.5908 19.2066C23.5908 20.8887 22.1435 22.1477 20.5399 22.1477C20.2673 22.1477 19.7771 22.1498 19.3528 22.152L18.576 22.1562L18.5689 21.1563L17.569 21.1625L17.5646 20.3893C17.5624 19.9699 17.5601 19.4799 17.5601 19.2066C17.5601 18.9865 17.5589 18.5029 17.5577 18.0726L17.5552 17.2689ZM19.5634 20.1509C19.5616 19.7935 19.5601 19.4264 19.5601 19.2066C19.5601 19.017 19.5592 18.6381 19.5582 18.2656H20.5399C21.1582 18.2656 21.5908 18.7447 21.5908 19.2066C21.5908 19.6686 21.1582 20.1477 20.5399 20.1477C20.3087 20.1477 19.9282 20.1492 19.5634 20.1509Z" fill="url(#paint7_linear_1_1243)"/>
<defs>
<linearGradient id="paint0_linear_1_1243" x1="1.95193" y1="1.02882e-06" x2="39.3334" y2="38.0922" gradientUnits="userSpaceOnUse">
<stop stop-color="#FE5B52"/>
<stop offset="0.948075" stop-color="#3E96F4"/>
</linearGradient>
<linearGradient id="paint1_linear_1_1243" x1="1.95193" y1="1.02882e-06" x2="39.3334" y2="38.0922" gradientUnits="userSpaceOnUse">
<stop stop-color="#FE5B52"/>
<stop offset="0.948075" stop-color="#3E96F4"/>
</linearGradient>
<linearGradient id="paint2_linear_1_1243" x1="1.95193" y1="1.02882e-06" x2="39.3334" y2="38.0922" gradientUnits="userSpaceOnUse">
<stop stop-color="#FE5B52"/>
<stop offset="0.948075" stop-color="#3E96F4"/>
</linearGradient>
<linearGradient id="paint3_linear_1_1243" x1="1.95193" y1="1.02882e-06" x2="39.3334" y2="38.0922" gradientUnits="userSpaceOnUse">
<stop stop-color="#FE5B52"/>
<stop offset="0.948075" stop-color="#3E96F4"/>
</linearGradient>
<linearGradient id="paint4_linear_1_1243" x1="1.95193" y1="1.02882e-06" x2="39.3334" y2="38.0922" gradientUnits="userSpaceOnUse">
<stop stop-color="#FE5B52"/>
<stop offset="0.948075" stop-color="#3E96F4"/>
</linearGradient>
<linearGradient id="paint5_linear_1_1243" x1="1.95193" y1="1.02882e-06" x2="39.3334" y2="38.0922" gradientUnits="userSpaceOnUse">
<stop stop-color="#FE5B52"/>
<stop offset="0.948075" stop-color="#3E96F4"/>
</linearGradient>
<linearGradient id="paint6_linear_1_1243" x1="1.95193" y1="1.02882e-06" x2="39.3334" y2="38.0922" gradientUnits="userSpaceOnUse">
<stop stop-color="#FE5B52"/>
<stop offset="0.948075" stop-color="#3E96F4"/>
</linearGradient>
<linearGradient id="paint7_linear_1_1243" x1="1.95193" y1="1.02882e-06" x2="39.3334" y2="38.0922" gradientUnits="userSpaceOnUse">
<stop stop-color="#FE5B52"/>
<stop offset="0.948075" stop-color="#3E96F4"/>
</linearGradient>
</defs>
</svg>
