<svg width="40" height="41" viewBox="0 0 40 41" fill="none" xmlns="http://www.w3.org/2000/svg">
<path fill-rule="evenodd" clip-rule="evenodd" d="M16.8699 38.2642C16.8699 39.394 17.7902 40.3163 18.9202 40.3163H20.4018C21.5316 40.3163 22.452 39.394 22.452 38.2642V38.1104C22.8715 37.9723 23.28 37.8031 23.6742 37.6043L23.7781 37.7078L23.7801 37.7098C24.5798 38.5116 25.8819 38.5078 26.6802 37.71L26.681 37.7091L27.7233 36.6651L27.7252 36.6632C28.5276 35.8637 28.524 34.5613 27.7254 33.7631L27.6206 33.6584C27.8175 33.2679 27.9853 32.8635 28.1227 32.4483H28.2715C29.4006 32.4483 30.3241 31.5291 30.3241 30.3986V28.9178C30.3241 27.7873 29.4007 26.868 28.2715 26.868H28.1286C27.9901 26.4474 27.8202 26.0377 27.6205 25.6424L27.7233 25.5393L27.7253 25.5373C28.5276 24.7378 28.5239 23.4355 27.7254 22.6373L26.6802 21.5926C25.882 20.7949 24.58 20.791 23.7803 21.5926L23.7781 21.5948L23.6741 21.6984C23.2743 21.4965 22.8569 21.3234 22.4245 21.1824V21.0521C22.4245 19.9208 21.5025 19 20.3719 19H18.8926C17.7589 19 16.8423 19.9239 16.8423 21.0521V21.2034C16.4253 21.3429 16.0193 21.513 15.6274 21.7124L15.53 21.6154L15.5279 21.6133C14.7282 20.8116 13.4262 20.8155 12.6279 21.6132L11.5828 22.6579C10.7843 23.4561 10.7805 24.7584 11.5828 25.5579L11.5849 25.56L11.6945 25.67C11.5008 26.0567 11.3357 26.4572 11.2004 26.868H11.0503C9.91843 26.868 9 27.7902 9 28.9178V30.3986C9 31.5262 9.91849 32.4483 11.0503 32.4483H11.2038C11.3413 32.8634 11.5093 33.2678 11.7066 33.658L11.6024 33.7618L11.5991 33.7651C10.8048 34.5635 10.8018 35.8641 11.6011 36.663L12.6477 37.7091C13.4474 38.5115 14.7499 38.5081 15.5485 37.71L15.6542 37.6043C16.0435 37.8004 16.4497 37.9696 16.8699 38.1081V38.2642ZM18.9444 38.2418V37.3207C18.9444 36.836 18.6088 36.4159 18.136 36.309C17.3816 36.1383 16.6697 35.8379 16.027 35.4357C15.6175 35.1794 15.0851 35.2398 14.7434 35.5814L14.0985 36.2261L13.0851 35.2131L13.7303 34.5704C14.0743 34.2277 14.1345 33.6922 13.8753 33.2817C13.4671 32.6354 13.1715 31.9247 13.001 31.1796C12.8931 30.7081 12.4736 30.3738 11.9899 30.3738H11.0746V28.9426H11.9876C12.4718 28.9426 12.8916 28.6076 12.999 28.1355C13.1677 27.3942 13.4594 26.6865 13.862 26.0417C14.1175 25.6326 14.0572 25.1014 13.7167 24.7599L13.0666 24.1079L14.0779 23.0971L14.7218 23.7385C15.0651 24.0805 15.5995 24.1392 16.0089 23.8798C16.6567 23.4695 17.3687 23.1709 18.1154 22.9966C18.5848 22.887 18.9169 22.4685 18.9169 21.9865V21.0746H20.3499V21.9727C20.3499 22.4587 20.6873 22.8795 21.1617 22.9852C21.9288 23.156 22.6484 23.4584 23.2985 23.8662C23.7076 24.1227 24.2396 24.0631 24.5817 23.7224L25.2302 23.0765L26.2415 24.0873L25.596 24.7346C25.2543 25.0773 25.1949 25.6107 25.453 26.0202C25.8629 26.6705 26.1594 27.3856 26.3298 28.1352C26.4372 28.6075 26.857 28.9426 27.3413 28.9426H28.2495V30.3738H27.3367C26.8531 30.3738 26.4337 30.7079 26.3256 31.1792C26.1547 31.9246 25.8595 32.636 25.4524 33.2833C25.1947 33.6932 25.2548 34.2269 25.5973 34.5692L26.2415 35.2131L25.2302 36.2261L24.5817 35.5801C24.2393 35.239 23.7066 35.1796 23.2975 35.437C22.6477 35.8457 21.9334 36.1413 21.1849 36.3115C20.7126 36.4188 20.3775 36.8387 20.3775 37.323V38.2418H18.9444Z" fill="url(#paint0_linear_1_1204)"/>
<path fill-rule="evenodd" clip-rule="evenodd" d="M14.4463 29.6593C14.4463 32.5382 16.7816 34.8705 19.662 34.8705C22.5406 34.8705 24.8754 32.5378 24.8754 29.6593C24.8754 26.779 22.541 24.4459 19.662 24.4459C16.7812 24.4459 14.4463 26.7786 14.4463 29.6593ZM19.662 32.796C17.9255 32.796 16.5209 31.3907 16.5209 29.6593C16.5209 27.9255 17.9259 26.5204 19.662 26.5204C21.3955 26.5204 22.8009 27.9251 22.8009 29.6593C22.8009 31.3911 21.3959 32.796 19.662 32.796Z" fill="url(#paint1_linear_1_1204)"/>
<path fill-rule="evenodd" clip-rule="evenodd" d="M0 6C0 2.68629 2.68629 0 6 0H34C37.3137 0 40 2.68629 40 6V24.5C40 27.8137 37.3137 30.5 34 30.5H32.5C31.9477 30.5 31.5 30.0523 31.5 29.5C31.5 28.9477 31.9477 28.5 32.5 28.5H34C36.2091 28.5 38 26.7091 38 24.5V6C38 3.79086 36.2091 2 34 2H6C3.79086 2 2 3.79086 2 6V24.5C2 26.7091 3.79086 28.5 6 28.5H7.5C8.05228 28.5 8.5 28.9477 8.5 29.5C8.5 30.0523 8.05228 30.5 7.5 30.5H6C2.68629 30.5 0 27.8137 0 24.5V6Z" fill="url(#paint2_linear_1_1204)"/>
<path fill-rule="evenodd" clip-rule="evenodd" d="M38 10H2V8H38V10Z" fill="url(#paint3_linear_1_1204)"/>
<path d="M6 5C6 5.55228 5.55228 6 5 6C4.44772 6 4 5.55228 4 5C4 4.44772 4.44772 4 5 4C5.55228 4 6 4.44772 6 5Z" fill="url(#paint4_linear_1_1204)"/>
<path d="M9 5C9 5.55228 8.55229 6 8 6C7.44772 6 7 5.55228 7 5C7 4.44772 7.44772 4 8 4C8.55229 4 9 4.44772 9 5Z" fill="url(#paint5_linear_1_1204)"/>
<path d="M12 5C12 5.55228 11.5523 6 11 6C10.4477 6 10 5.55228 10 5C10 4.44772 10.4477 4 11 4C11.5523 4 12 4.44772 12 5Z" fill="url(#paint6_linear_1_1204)"/>
<path d="M15 5C15 4.44772 15.4477 4 16 4H35C35.5523 4 36 4.44772 36 5C36 5.55228 35.5523 6 35 6H16C15.4477 6 15 5.55228 15 5Z" fill="url(#paint7_linear_1_1204)"/>
<defs>
<linearGradient id="paint0_linear_1_1204" x1="40.3202" y1="40.3815" x2="10.0273" y2="5.25601" gradientUnits="userSpaceOnUse">
<stop stop-color="#31393C"/>
<stop offset="1" stop-color="#3D96F5"/>
</linearGradient>
<linearGradient id="paint1_linear_1_1204" x1="40.3202" y1="40.3815" x2="10.0273" y2="5.25601" gradientUnits="userSpaceOnUse">
<stop stop-color="#31393C"/>
<stop offset="1" stop-color="#3D96F5"/>
</linearGradient>
<linearGradient id="paint2_linear_1_1204" x1="40.3202" y1="40.3815" x2="10.0273" y2="5.25601" gradientUnits="userSpaceOnUse">
<stop stop-color="#31393C"/>
<stop offset="1" stop-color="#3D96F5"/>
</linearGradient>
<linearGradient id="paint3_linear_1_1204" x1="40.3202" y1="40.3815" x2="10.0273" y2="5.25601" gradientUnits="userSpaceOnUse">
<stop stop-color="#31393C"/>
<stop offset="1" stop-color="#3D96F5"/>
</linearGradient>
<linearGradient id="paint4_linear_1_1204" x1="40.3202" y1="40.3815" x2="10.0273" y2="5.25601" gradientUnits="userSpaceOnUse">
<stop stop-color="#31393C"/>
<stop offset="1" stop-color="#3D96F5"/>
</linearGradient>
<linearGradient id="paint5_linear_1_1204" x1="40.3202" y1="40.3815" x2="10.0273" y2="5.25601" gradientUnits="userSpaceOnUse">
<stop stop-color="#31393C"/>
<stop offset="1" stop-color="#3D96F5"/>
</linearGradient>
<linearGradient id="paint6_linear_1_1204" x1="40.3202" y1="40.3815" x2="10.0273" y2="5.25601" gradientUnits="userSpaceOnUse">
<stop stop-color="#31393C"/>
<stop offset="1" stop-color="#3D96F5"/>
</linearGradient>
<linearGradient id="paint7_linear_1_1204" x1="40.3202" y1="40.3815" x2="10.0273" y2="5.25601" gradientUnits="userSpaceOnUse">
<stop stop-color="#31393C"/>
<stop offset="1" stop-color="#3D96F5"/>
</linearGradient>
</defs>
</svg>
