<svg width="36" height="40" viewBox="0 0 36 40" fill="none" xmlns="http://www.w3.org/2000/svg">
<path fill-rule="evenodd" clip-rule="evenodd" d="M17.0732 12.6829C20.0367 12.6829 22.439 10.2806 22.439 7.31707C22.439 4.35359 20.0367 1.95122 17.0732 1.95122C14.1097 1.95122 11.7073 4.35359 11.7073 7.31707C11.7073 10.2806 14.1097 12.6829 17.0732 12.6829ZM17.0732 14.6341C21.1143 14.6341 24.3902 11.3582 24.3902 7.31707C24.3902 3.27597 21.1143 0 17.0732 0C13.0321 0 9.7561 3.27597 9.7561 7.31707C9.7561 11.3582 13.0321 14.6341 17.0732 14.6341Z" fill="url(#paint0_linear_1_1259)"/>
<path d="M28.5987 19.2061C31.0624 21.6698 32.6175 24.8722 33.0484 28.2927H26.3415V30.2439H35.122C35.122 29.5888 35.0854 28.9375 35.0133 28.2927C34.5729 24.3531 32.8086 20.6565 29.9785 17.8264C26.6851 14.5331 22.2184 12.6829 17.561 12.6829C12.9035 12.6829 8.43681 14.5331 5.14349 17.8264C2.31339 20.6565 0.549019 24.3531 0.108677 28.2927C0.036603 28.9375 0 29.5888 0 30.2439H8.78049V28.2927H2.07359C2.50446 24.8722 4.05955 21.6698 6.52321 19.2061C9.45061 16.2787 13.421 14.6341 17.561 14.6341C21.7009 14.6341 25.6713 16.2787 28.5987 19.2061Z" fill="url(#paint1_linear_1_1259)"/>
<path fill-rule="evenodd" clip-rule="evenodd" d="M16.2429 36.0331C16.5681 35.4367 17.1885 35.0226 17.9128 34.991C22.1772 34.8048 25 31.913 25 29C25 25.9946 21.978 23 17.5 23C13.022 23 10 25.9946 10 29C10 31.1274 11.4431 33.1864 13.9336 34.2738C14.0946 34.3441 14.2456 34.4352 14.3827 34.5449L16.2429 36.0331ZM18 40L13.1334 36.1067C10.0837 34.7752 8 32.0925 8 29C8 24.5817 12.2533 21 17.5 21C22.7467 21 27 24.5817 27 29C27 33.277 23.0143 36.7702 18 36.9891V40Z" fill="url(#paint2_linear_1_1259)"/>
<path d="M13 26H22V28H13V26Z" fill="url(#paint3_linear_1_1259)"/>
<path d="M13 30H18V32H13V30Z" fill="url(#paint4_linear_1_1259)"/>
<defs>
<linearGradient id="paint0_linear_1_1259" x1="1.64634" y1="9.7983e-07" x2="37.0673" y2="31.9658" gradientUnits="userSpaceOnUse">
<stop stop-color="#FE5B52"/>
<stop offset="0.948075" stop-color="#3E96F4"/>
</linearGradient>
<linearGradient id="paint1_linear_1_1259" x1="1.64634" y1="9.7983e-07" x2="37.0673" y2="31.9658" gradientUnits="userSpaceOnUse">
<stop stop-color="#FE5B52"/>
<stop offset="0.948075" stop-color="#3E96F4"/>
</linearGradient>
<linearGradient id="paint2_linear_1_1259" x1="1.64634" y1="9.7983e-07" x2="37.0673" y2="31.9658" gradientUnits="userSpaceOnUse">
<stop stop-color="#FE5B52"/>
<stop offset="0.948075" stop-color="#3E96F4"/>
</linearGradient>
<linearGradient id="paint3_linear_1_1259" x1="1.64634" y1="9.7983e-07" x2="37.0673" y2="31.9658" gradientUnits="userSpaceOnUse">
<stop stop-color="#FE5B52"/>
<stop offset="0.948075" stop-color="#3E96F4"/>
</linearGradient>
<linearGradient id="paint4_linear_1_1259" x1="1.64634" y1="9.7983e-07" x2="37.0673" y2="31.9658" gradientUnits="userSpaceOnUse">
<stop stop-color="#FE5B52"/>
<stop offset="0.948075" stop-color="#3E96F4"/>
</linearGradient>
</defs>
</svg>
