<svg width="32" height="32" viewBox="0 0 32 32" fill="none" xmlns="http://www.w3.org/2000/svg">
<g style="mix-blend-mode:multiply">
<path d="M0 21C0 19.8954 0.895431 19 2 19H11C12.1046 19 13 19.8954 13 21V25C13 26.1046 12.1046 27 11 27H2C0.89543 27 0 26.1046 0 25V21Z" fill="#84979C" fill-opacity="0.8"/>
</g>
<rect x="19" y="19" width="13" height="8" rx="2" fill="#C1C9D1" fill-opacity="0.8"/>
<g style="mix-blend-mode:multiply">
<path d="M8.12132 11.8787C9.29289 13.0503 9.29289 14.9497 8.12132 16.1213C6.94975 17.2929 5.05025 17.2929 3.87868 16.1213C2.70711 14.9497 2.70711 13.0503 3.87868 11.8787C5.05025 10.7071 6.94975 10.7071 8.12132 11.8787Z" fill="#84979C" fill-opacity="0.8"/>
</g>
<path d="M28.1213 11.8787C29.2929 13.0503 29.2929 14.9497 28.1213 16.1213C26.9497 17.2929 25.0503 17.2929 23.8787 16.1213C22.7071 14.9497 22.7071 13.0503 23.8787 11.8787C25.0503 10.7071 26.9497 10.7071 28.1213 11.8787Z" fill="#C1C9D1" fill-opacity="0.8"/>
<g style="mix-blend-mode:multiply">
<path d="M8 21C8 18.7909 9.79086 17 12 17H20C22.2091 17 24 18.7909 24 21V27H8V21Z" fill="#007BFF" fill-opacity="0.8"/>
</g>
<g style="mix-blend-mode:multiply">
<path d="M19.5355 6.46447C21.4882 8.41709 21.4882 11.5829 19.5355 13.5355C17.5829 15.4882 14.4171 15.4882 12.4645 13.5355C10.5118 11.5829 10.5118 8.41709 12.4645 6.46447C14.4171 4.51184 17.5829 4.51184 19.5355 6.46447Z" fill="#007BFF" fill-opacity="0.8"/>
</g>
</svg>
