<svg width="448" height="345" viewBox="0 0 448 345" fill="none" xmlns="http://www.w3.org/2000/svg">
<path d="M230.26 52.2801V36.5801L218.5 35.5801C217.812 33.1247 216.839 30.7586 215.6 28.5301L223.19 19.5301L212.09 8.43013L203.09 16.0201C200.88 14.7762 198.53 13.7993 196.09 13.1101L195.09 1.35013H179.26L178.26 13.1101C175.819 13.7993 173.47 14.7762 171.26 16.0201L162.26 8.43013L151.16 19.5301L158.75 28.5301C157.511 30.7586 156.537 33.1247 155.85 35.5801L144.09 36.5801V52.2801L155.85 53.2801C156.541 55.7183 157.514 58.0675 158.75 60.2801L151.16 69.2801L162.26 80.3801L171.26 72.7901C173.47 74.0341 175.819 75.0109 178.26 75.7001L179.26 87.4601H194.96L195.96 75.7001C198.416 75.0119 200.783 74.0351 203.01 72.7901L212.01 80.3801L223.11 69.2801L215.52 60.2801C216.755 58.0675 217.729 55.7183 218.42 53.2801L230.26 52.2801ZM187.16 62.6701C183.552 62.6701 180.026 61.6004 177.026 59.5961C174.027 57.5919 171.689 54.7432 170.308 51.4103C168.928 48.0774 168.567 44.4099 169.27 40.8717C169.974 37.3335 171.711 34.0834 174.262 31.5325C176.813 28.9816 180.063 27.2444 183.601 26.5406C187.14 25.8368 190.807 26.198 194.14 27.5786C197.473 28.9591 200.322 31.297 202.326 34.2965C204.33 37.2961 205.4 40.8226 205.4 44.4301C205.399 46.8284 204.925 49.203 204.005 51.418C203.085 53.633 201.738 55.645 200.04 57.339C198.343 59.033 196.328 60.3757 194.111 61.2905C191.894 62.2053 189.518 62.6741 187.12 62.6701H187.16Z" stroke="#263238" stroke-linecap="round" stroke-linejoin="round"/>
<path d="M398.949 205.73V198.21L393.309 197.72C392.977 196.544 392.511 195.41 391.919 194.34L395.559 190.01L390.259 184.69L385.939 188.33C384.872 187.734 383.737 187.268 382.559 186.94L382.069 181.3H374.539L374.059 186.94C372.881 187.266 371.746 187.733 370.679 188.33L366.349 184.69L361.029 190.01L364.669 194.34C364.07 195.407 363.6 196.542 363.269 197.72L357.629 198.21V205.73L363.269 206.22C363.6 207.398 364.07 208.533 364.669 209.6L360.999 213.89L366.319 219.21L370.649 215.57C371.716 216.168 372.851 216.634 374.029 216.96L374.509 222.6H382.039L382.529 216.96C383.707 216.632 384.842 216.166 385.909 215.57L390.229 219.21L395.559 213.89L391.919 209.56C392.511 208.491 392.977 207.356 393.309 206.18L398.949 205.73ZM378.279 210.73C376.548 210.732 374.855 210.221 373.415 209.26C371.975 208.3 370.852 206.934 370.188 205.335C369.524 203.737 369.35 201.977 369.686 200.279C370.023 198.581 370.855 197.021 372.078 195.796C373.302 194.572 374.861 193.737 376.558 193.399C378.256 193.061 380.016 193.233 381.615 193.895C383.215 194.557 384.582 195.679 385.544 197.118C386.506 198.557 387.019 200.249 387.019 201.98C387.018 203.129 386.79 204.267 386.349 205.328C385.908 206.389 385.263 207.353 384.449 208.164C383.636 208.976 382.671 209.619 381.608 210.058C380.546 210.496 379.408 210.721 378.259 210.72L378.279 210.73Z" stroke="#263238" stroke-linecap="round" stroke-linejoin="round"/>
<path d="M393.26 68.6902C394.058 65.2342 393.948 61.6302 392.939 58.2296C391.93 54.8291 390.057 51.7479 387.503 49.2865C384.949 46.8251 381.801 45.0674 378.365 44.1848C374.93 43.3021 371.324 43.3247 367.9 44.2502C365.814 40.551 362.588 37.6249 358.703 35.9082C354.819 34.1915 350.484 33.7761 346.344 34.724C342.204 35.6718 338.481 37.9321 335.731 41.1679C332.98 44.4037 331.349 48.4418 331.08 52.6802C328.903 52.264 326.664 52.3021 324.503 52.7923C322.342 53.2825 320.305 54.2141 318.521 55.5287C316.737 56.8433 315.244 58.5125 314.135 60.4315C313.027 62.3505 312.327 64.478 312.08 66.6802C309.851 66.9147 307.79 67.9724 306.299 69.6464C304.809 71.3204 303.997 73.4902 304.022 75.7313C304.047 77.9724 304.907 80.1235 306.435 81.7638C307.962 83.4041 310.046 84.4156 312.28 84.6002H387.56C389.403 84.5867 391.198 84.0074 392.701 82.9407C394.205 81.874 395.345 80.3714 395.966 78.6359C396.588 76.9005 396.662 75.016 396.178 73.2373C395.694 71.4585 394.675 69.8713 393.26 68.6902Z" stroke="#263238" stroke-linecap="round" stroke-linejoin="round"/>
<path d="M351.889 77.7202V98.4702" stroke="#263238" stroke-linecap="round" stroke-linejoin="round"/>
<path d="M351.889 65.2701V73.5701" stroke="#263238" stroke-linecap="round" stroke-linejoin="round"/>
<path d="M351.889 57.5201V61.9501" stroke="#263238" stroke-linecap="round" stroke-linejoin="round"/>
<path d="M347.969 96.0401L351.889 100.89L355.809 96.0401" stroke="#263238" stroke-linecap="round" stroke-linejoin="round"/>
<path d="M163.899 312.04C164.695 308.583 164.583 304.979 163.572 301.579C162.562 298.179 160.688 295.098 158.133 292.637C155.579 290.176 152.43 288.419 148.995 287.536C145.559 286.653 141.954 286.675 138.529 287.6C136.445 283.898 133.219 280.97 129.334 279.252C125.449 277.534 121.112 277.118 116.971 278.068C112.83 279.017 109.107 281.28 106.358 284.519C103.61 287.759 101.982 291.8 101.719 296.04C100.73 295.851 99.7259 295.754 98.7191 295.75C94.763 295.747 90.9446 297.202 87.9931 299.836C85.0417 302.47 83.1641 306.099 82.7191 310.03C80.4901 310.264 78.4284 311.32 76.9373 312.993C75.4462 314.666 74.633 316.836 74.6568 319.077C74.6805 321.318 75.5395 323.469 77.0658 325.11C78.592 326.751 80.6756 327.764 82.909 327.95H158.259C160.1 327.931 161.89 327.347 163.389 326.278C164.888 325.209 166.023 323.706 166.641 321.972C167.259 320.238 167.33 318.356 166.845 316.58C166.36 314.804 165.343 313.22 163.929 312.04H163.899Z" stroke="#263238" stroke-linecap="round" stroke-linejoin="round"/>
<path d="M122.488 324.04V303.29" stroke="#263238" stroke-linecap="round" stroke-linejoin="round"/>
<path d="M122.488 336.49V328.19" stroke="#263238" stroke-linecap="round" stroke-linejoin="round"/>
<path d="M122.488 344.24V339.8" stroke="#263238" stroke-linecap="round" stroke-linejoin="round"/>
<path d="M126.408 305.72L122.488 300.87L118.578 305.72" stroke="#263238" stroke-linecap="round" stroke-linejoin="round"/>
<path d="M404.369 127.38C404.094 127 403.876 126.582 403.719 126.14C403.632 125.659 403.608 125.168 403.649 124.68C403.769 123.828 403.64 122.961 403.279 122.18C402.774 121.476 402.081 120.928 401.279 120.6C400.84 120.4 400.429 120.141 400.059 119.83C399.749 119.464 399.49 119.057 399.289 118.62C399.035 117.784 398.475 117.075 397.72 116.636C396.965 116.196 396.072 116.058 395.219 116.25C394.732 116.302 394.24 116.278 393.759 116.18C393.317 116.027 392.9 115.812 392.519 115.54C391.867 114.93 391.007 114.59 390.114 114.59C389.221 114.59 388.362 114.93 387.709 115.54C387.329 115.812 386.911 116.027 386.469 116.18C385.989 116.273 385.497 116.297 385.009 116.25C384.157 116.058 383.264 116.196 382.509 116.636C381.754 117.075 381.193 117.784 380.939 118.62C380.739 119.057 380.48 119.464 380.169 119.83C379.799 120.141 379.389 120.4 378.949 120.6C378.147 120.928 377.454 121.476 376.949 122.18C376.589 122.961 376.46 123.828 376.579 124.68C376.621 125.168 376.597 125.659 376.509 126.14C376.353 126.582 376.134 127 375.859 127.38C375.254 128.033 374.918 128.89 374.918 129.78C374.918 130.67 375.254 131.527 375.859 132.18C376.134 132.56 376.353 132.978 376.509 133.42C376.598 133.901 376.621 134.392 376.579 134.88C376.46 135.728 376.589 136.593 376.949 137.37C377.451 138.08 378.145 138.631 378.949 138.96C379.393 139.153 379.804 139.413 380.169 139.73C380.482 140.095 380.741 140.502 380.939 140.94C381.134 141.333 381.358 141.711 381.609 142.07L377.729 152.72C377.67 152.893 377.68 153.081 377.756 153.247C377.833 153.413 377.97 153.543 378.139 153.61C378.289 153.66 378.45 153.66 378.599 153.61L382.269 152.37L384.269 155.68C384.332 155.78 384.419 155.863 384.522 155.921C384.625 155.979 384.741 156.009 384.859 156.01H384.919C385.05 155.998 385.175 155.949 385.279 155.87C385.383 155.79 385.463 155.683 385.509 155.56L389.419 144.89C389.88 145.02 390.368 145.02 390.829 144.89L394.719 155.57C394.763 155.693 394.841 155.8 394.943 155.88C395.046 155.96 395.17 156.008 395.299 156.02H395.369C395.488 156.019 395.604 155.989 395.707 155.931C395.81 155.873 395.897 155.79 395.959 155.69L397.959 152.38L401.629 153.62C401.802 153.677 401.99 153.664 402.153 153.584C402.316 153.503 402.44 153.362 402.499 153.19C402.55 153.041 402.55 152.879 402.499 152.73L398.619 142.08C398.871 141.721 399.095 141.343 399.289 140.95C399.488 140.512 399.747 140.105 400.059 139.74C400.424 139.423 400.836 139.163 401.279 138.97C402.084 138.641 402.778 138.09 403.279 137.38C403.64 136.603 403.768 135.738 403.649 134.89C403.602 134.403 403.626 133.911 403.719 133.43C403.871 132.986 404.091 132.568 404.369 132.19C404.902 131.494 405.228 130.663 405.309 129.79C405.236 128.913 404.91 128.075 404.369 127.38ZM384.719 153.73L383.169 151.18C383.087 151.047 382.962 150.946 382.815 150.893C382.668 150.841 382.507 150.84 382.359 150.89L379.529 151.84L382.739 143.03C383.468 143.297 384.248 143.393 385.019 143.31C385.506 143.26 385.998 143.28 386.479 143.37C386.92 143.53 387.337 143.749 387.719 144.02L388.159 144.29L384.719 153.73ZM397.889 150.89C397.741 150.84 397.581 150.841 397.434 150.893C397.286 150.946 397.162 151.047 397.079 151.18L395.529 153.73L392.089 144.29L392.529 144.02C392.912 143.749 393.329 143.53 393.769 143.37C394.251 143.28 394.742 143.26 395.229 143.31C396.001 143.393 396.781 143.297 397.509 143.03L400.719 151.84L397.889 150.89ZM403.199 131.44C402.845 131.937 402.572 132.487 402.389 133.07C402.254 133.684 402.214 134.314 402.269 134.94C402.36 135.23 402.389 135.535 402.355 135.836C402.321 136.138 402.225 136.429 402.072 136.691C401.92 136.953 401.715 137.181 401.47 137.36C401.225 137.539 400.946 137.665 400.649 137.73C400.084 137.982 399.561 138.319 399.099 138.73C398.69 139.193 398.352 139.716 398.099 140.28C397.88 140.843 397.518 141.339 397.049 141.72C396.477 141.927 395.861 141.986 395.259 141.89C394.634 141.832 394.004 141.869 393.389 142C392.807 142.188 392.257 142.464 391.759 142.82C391.279 143.202 390.706 143.45 390.099 143.54C389.493 143.448 388.921 143.2 388.439 142.82C387.946 142.463 387.399 142.186 386.819 142C386.431 141.902 386.03 141.858 385.629 141.87H384.949C384.359 141.953 383.758 141.887 383.199 141.68C382.749 141.293 382.405 140.797 382.199 140.24C381.946 139.676 381.609 139.153 381.199 138.69C380.737 138.279 380.215 137.942 379.649 137.69C379.353 137.625 379.074 137.499 378.829 137.32C378.584 137.141 378.379 136.913 378.226 136.651C378.074 136.389 377.978 136.098 377.944 135.796C377.91 135.495 377.939 135.19 378.029 134.9C378.085 134.271 378.044 133.637 377.909 133.02C377.725 132.441 377.452 131.895 377.099 131.4C376.869 131.189 376.685 130.933 376.559 130.647C376.433 130.361 376.368 130.052 376.368 129.74C376.368 129.428 376.433 129.119 376.559 128.833C376.685 128.547 376.869 128.291 377.099 128.08C377.452 127.582 377.725 127.032 377.909 126.45C378.044 125.836 378.085 125.206 378.029 124.58C377.942 123.99 378.007 123.387 378.219 122.83C378.608 122.386 379.099 122.043 379.649 121.83C380.215 121.58 380.738 121.242 381.199 120.83C381.607 120.365 381.944 119.843 382.199 119.28C382.402 118.722 382.747 118.225 383.199 117.84C383.757 117.628 384.359 117.562 384.949 117.65C385.575 117.708 386.205 117.671 386.819 117.54C387.398 117.35 387.944 117.074 388.439 116.72C388.923 116.341 389.494 116.09 390.099 115.99C390.706 116.088 391.277 116.339 391.759 116.72C392.249 117.105 392.811 117.387 393.413 117.547C394.015 117.706 394.643 117.742 395.259 117.65C395.849 117.562 396.452 117.628 397.009 117.84C397.48 118.219 397.842 118.716 398.059 119.28C398.315 119.843 398.652 120.365 399.059 120.83C399.523 121.239 400.046 121.576 400.609 121.83C400.906 121.895 401.185 122.021 401.43 122.2C401.675 122.379 401.88 122.607 402.032 122.869C402.185 123.131 402.281 123.423 402.315 123.724C402.349 124.025 402.32 124.33 402.229 124.62C402.174 125.246 402.214 125.876 402.349 126.49C402.534 127.072 402.807 127.622 403.159 128.12C403.39 128.331 403.574 128.587 403.7 128.873C403.826 129.159 403.891 129.468 403.891 129.78C403.891 130.092 403.826 130.401 403.7 130.687C403.574 130.973 403.39 131.229 403.159 131.44H403.199Z" fill="black"/>
<path d="M390.12 118.73C387.946 118.74 385.825 119.393 384.022 120.608C382.22 121.823 380.818 123.544 379.993 125.555C379.168 127.566 378.957 129.776 379.387 131.906C379.817 134.037 380.869 135.992 382.409 137.526C383.95 139.059 385.91 140.102 388.042 140.522C390.175 140.943 392.384 140.722 394.391 139.888C396.398 139.054 398.113 137.644 399.319 135.836C400.526 134.028 401.17 131.903 401.17 129.73C401.157 126.808 399.987 124.01 397.916 121.949C395.845 119.887 393.042 118.73 390.12 118.73ZM390.12 139.44C388.21 139.438 386.343 138.87 384.756 137.807C383.169 136.745 381.932 135.235 381.202 133.47C380.473 131.705 380.283 129.763 380.657 127.889C381.031 126.016 381.951 124.296 383.303 122.946C384.654 121.596 386.375 120.677 388.249 120.305C390.123 119.933 392.064 120.125 393.829 120.856C395.594 121.588 397.102 122.826 398.163 124.414C399.224 126.003 399.79 127.87 399.79 129.78C399.79 131.049 399.54 132.306 399.054 133.479C398.568 134.652 397.855 135.717 396.957 136.614C396.059 137.511 394.993 138.223 393.82 138.708C392.647 139.192 391.389 139.441 390.12 139.44Z" fill="black"/>
<path d="M392.598 126.33L390.738 122.57C390.69 122.487 390.626 122.415 390.549 122.357C390.472 122.299 390.384 122.258 390.291 122.234C390.198 122.211 390.101 122.207 390.006 122.221C389.911 122.236 389.82 122.27 389.738 122.32C389.636 122.382 389.551 122.468 389.488 122.57L387.628 126.33L383.468 126.94C383.341 126.959 383.22 127.013 383.122 127.096C383.023 127.179 382.95 127.289 382.91 127.412C382.871 127.535 382.866 127.666 382.898 127.791C382.929 127.917 382.995 128.031 383.088 128.12L386.088 131.05L385.378 135.18C385.363 135.269 385.365 135.361 385.384 135.45C385.404 135.538 385.441 135.622 385.493 135.696C385.545 135.771 385.611 135.834 385.687 135.883C385.764 135.931 385.849 135.964 385.938 135.98C386.089 136.007 386.244 135.982 386.378 135.91L390.088 133.91L393.808 135.91C393.888 135.953 393.976 135.98 394.066 135.989C394.157 135.998 394.248 135.988 394.335 135.961C394.421 135.934 394.502 135.89 394.571 135.832C394.64 135.773 394.697 135.701 394.738 135.62C394.811 135.486 394.836 135.331 394.808 135.18L394.098 131.05L397.098 128.12C397.166 128.056 397.22 127.978 397.257 127.892C397.294 127.806 397.313 127.714 397.313 127.62C397.313 127.527 397.294 127.434 397.257 127.348C397.22 127.262 397.166 127.185 397.098 127.12C396.994 127.012 396.857 126.941 396.708 126.92L392.598 126.33ZM392.908 130.33C392.829 130.409 392.769 130.505 392.734 130.611C392.7 130.717 392.691 130.83 392.708 130.94L393.238 134.06L390.448 132.59C390.349 132.536 390.237 132.507 390.123 132.507C390.01 132.507 389.898 132.536 389.798 132.59L386.998 134.06L387.538 130.94C387.556 130.83 387.547 130.717 387.512 130.611C387.478 130.505 387.418 130.409 387.338 130.33L385.078 128.12L388.208 127.67C388.319 127.653 388.424 127.61 388.515 127.544C388.605 127.477 388.678 127.391 388.728 127.29L390.118 124.46L391.518 127.29C391.568 127.391 391.642 127.477 391.732 127.544C391.823 127.61 391.928 127.653 392.038 127.67L395.168 128.12L392.908 130.33Z" fill="black"/>
<path d="M14.74 30.7797H266.19C267.309 30.7823 268.382 31.2274 269.175 32.018C269.967 32.8085 270.415 33.8803 270.42 34.9997V46.8697H10.5V34.9997C10.5053 33.8786 10.9543 32.8053 11.7489 32.0145C12.5435 31.2236 13.6189 30.7797 14.74 30.7797Z" fill="#92B9E3" stroke="#263238" stroke-linecap="round" stroke-linejoin="round"/>
<path d="M284.579 49.8497H21.8691V234.72H284.579V49.8497Z" fill="white" stroke="#263238" stroke-linecap="round" stroke-linejoin="round"/>
<path d="M288.609 38.8297C288.609 39.6208 288.375 40.3942 287.935 41.052C287.496 41.7098 286.871 42.2225 286.14 42.5252C285.409 42.828 284.605 42.9072 283.829 42.7529C283.053 42.5985 282.34 42.2175 281.781 41.6581C281.222 41.0987 280.841 40.386 280.686 39.6101C280.532 38.8341 280.611 38.0299 280.914 37.299C281.217 36.5681 281.729 35.9434 282.387 35.5038C283.045 35.0643 283.818 34.8297 284.609 34.8297C285.67 34.8297 286.688 35.2511 287.438 36.0013C288.188 36.7514 288.609 37.7688 288.609 38.8297Z" fill="white" stroke="#263238" stroke-linecap="round" stroke-linejoin="round"/>
<path d="M274.449 38.8297C274.449 39.6208 274.215 40.3942 273.775 41.052C273.336 41.7098 272.711 42.2225 271.98 42.5252C271.249 42.828 270.445 42.9072 269.669 42.7529C268.893 42.5985 268.18 42.2175 267.621 41.6581C267.061 41.0987 266.68 40.386 266.526 39.6101C266.372 38.8341 266.451 38.0299 266.754 37.299C267.056 36.5681 267.569 35.9434 268.227 35.5038C268.885 35.0643 269.658 34.8297 270.449 34.8297C271.51 34.8297 272.528 35.2511 273.278 36.0013C274.028 36.7514 274.449 37.7688 274.449 38.8297Z" fill="white" stroke="#263238" stroke-linecap="round" stroke-linejoin="round"/>
<path d="M260.26 38.8297C260.26 39.6208 260.025 40.3941 259.586 41.0519C259.146 41.7097 258.522 42.2224 257.791 42.5252C257.06 42.8279 256.256 42.9071 255.48 42.7528C254.704 42.5985 253.991 42.2175 253.432 41.6581C252.872 41.0987 252.491 40.3859 252.337 39.61C252.183 38.8341 252.262 38.0298 252.564 37.2989C252.867 36.568 253.38 35.9433 254.038 35.5038C254.696 35.0642 255.469 34.8297 256.26 34.8297C257.321 34.8297 258.338 35.2511 259.088 36.0012C259.839 36.7514 260.26 37.7688 260.26 38.8297Z" fill="white" stroke="#263238" stroke-linecap="round" stroke-linejoin="round"/>
<path d="M276.631 57.7797H266.221" stroke="#263238" stroke-width="2" stroke-linecap="round" stroke-linejoin="round"/>
<path d="M276.631 61.9996H266.221" stroke="#263238" stroke-width="2" stroke-linecap="round" stroke-linejoin="round"/>
<path d="M276.631 66.2196H266.221" stroke="#263238" stroke-width="2" stroke-linecap="round" stroke-linejoin="round"/>
<path d="M40.0703 166.86H118.79" stroke="#263238" stroke-width="2" stroke-linecap="round" stroke-linejoin="round"/>
<path d="M40.0703 173.07H118.79" stroke="#263238" stroke-width="2" stroke-linecap="round" stroke-linejoin="round"/>
<path d="M40.0703 179.4H102.14" stroke="#263238" stroke-width="2" stroke-linecap="round" stroke-linejoin="round"/>
<path d="M207.01 51.9396V52.4396" stroke="#263238" stroke-linecap="round" stroke-linejoin="round"/>
<path d="M207.01 55.4296V229.66" stroke="#263238" stroke-linecap="round" stroke-linejoin="round" stroke-dasharray="1 3"/>
<path d="M207.01 231.16V231.66" stroke="#263238" stroke-linecap="round" stroke-linejoin="round"/>
<path d="M25.0391 193.26H25.5391" stroke="#263238" stroke-linecap="round" stroke-linejoin="round"/>
<path d="M28.5293 193.26H278.559" stroke="#263238" stroke-linecap="round" stroke-linejoin="round" stroke-dasharray="1 2.99"/>
<path d="M280.061 193.26H280.561" stroke="#263238" stroke-linecap="round" stroke-linejoin="round"/>
<path d="M208.739 191.54H205.289V194.99H208.739V191.54Z" fill="white" stroke="#263238" stroke-linecap="round" stroke-linejoin="round"/>
<path d="M108.121 222.48H54.4609V256.11H108.121V222.48Z" fill="#263238" stroke="#263238" stroke-linecap="round" stroke-linejoin="round"/>
<path d="M108.121 222.48H54.4609V227.59H108.121V222.48Z" fill="#92B9E3" stroke="#263238" stroke-linecap="round" stroke-linejoin="round"/>
<path d="M59.9297 231.9H73.6497" stroke="white" stroke-linecap="round" stroke-linejoin="round"/>
<path d="M66.7891 235.73H90.5291" stroke="white" stroke-linecap="round" stroke-linejoin="round"/>
<path d="M63.76 239.29H70.75" stroke="white" stroke-linecap="round" stroke-linejoin="round"/>
<path d="M66.7891 243.51H82.7791" stroke="white" stroke-linecap="round" stroke-linejoin="round"/>
<path d="M59.9297 247.33H73.6497" stroke="white" stroke-linecap="round" stroke-linejoin="round"/>
<path d="M68.6896 95.7597V88.6797L63.3996 88.2297C63.0856 87.1232 62.646 86.0563 62.0896 85.0497L65.5096 80.9897L60.5096 75.9897L56.4396 79.4097C55.4365 78.846 54.3687 78.4061 53.2596 78.0997L52.7996 72.7997H45.7396L45.2796 78.0997C44.1732 78.4048 43.1086 78.8447 42.1096 79.4097L38.0396 75.9897L33.0396 80.9897L36.4596 85.0497C35.899 86.0543 35.4593 87.1217 35.1496 88.2297L29.8496 88.6797V95.7597L35.1496 96.2097C35.461 97.3171 35.9007 98.3843 36.4596 99.3897L33.0396 103.45L38.0396 108.45L42.1096 105.03C43.1023 105.593 44.1601 106.033 45.2596 106.34L45.7196 111.64H52.7896L53.2496 106.34C54.3553 106.033 55.4197 105.593 56.4196 105.03L60.4896 108.45L65.4896 103.45L62.0696 99.3897C62.6243 98.3822 63.0638 97.3155 63.3796 96.2097L68.6896 95.7597ZM49.2596 100.44C47.6339 100.44 46.0446 99.9576 44.6928 99.0544C43.3411 98.1511 42.2875 96.8673 41.6653 95.3653C41.0432 93.8633 40.8804 92.2106 41.1976 90.616C41.5147 89.0215 42.2976 87.5568 43.4472 86.4073C44.5968 85.2577 46.0614 84.4748 47.656 84.1576C49.2505 83.8405 50.9033 84.0032 52.4053 84.6254C53.9073 85.2475 55.1911 86.3011 56.0943 87.6529C56.9975 89.0047 57.4796 90.5939 57.4796 92.2197C57.4796 94.3998 56.6136 96.4905 55.072 98.0321C53.5305 99.5736 51.4397 100.44 49.2596 100.44Z" fill="#92B9E3" stroke="#263238" stroke-linecap="round" stroke-linejoin="round"/>
<path d="M92.7306 111.62V106.78L89.1006 106.46C88.8918 105.703 88.593 104.975 88.2106 104.29L90.5506 101.51L87.1206 98.0898L84.3406 100.43C83.6538 100.048 82.9258 99.7464 82.1706 99.5298L81.8606 95.8898H77.0206L76.7006 99.5198C75.9455 99.7364 75.2174 100.038 74.5306 100.42L71.7506 98.0798L68.3206 101.5L70.6706 104.28C70.2809 104.963 69.9785 105.692 69.7706 106.45L66.1406 106.77V111.61L69.7706 111.92C69.9767 112.679 70.2791 113.408 70.6706 114.09L68.3206 116.89L71.7506 120.31L74.5306 117.97C75.2174 118.351 75.9455 118.653 76.7006 118.87L77.0206 122.49H81.8606L82.1706 118.87C82.9258 118.653 83.6538 118.351 84.3406 117.97L87.1206 120.31L90.5506 116.89L88.2606 114.1C88.6448 113.415 88.9437 112.687 89.1506 111.93L92.7306 111.62ZM79.4406 114.82C78.3263 114.822 77.2364 114.493 76.309 113.875C75.3816 113.257 74.6585 112.378 74.2311 111.349C73.8037 110.32 73.6914 109.187 73.9083 108.094C74.1252 107.001 74.6617 105.997 75.4496 105.209C76.2376 104.421 77.2417 103.884 78.3347 103.667C79.4278 103.451 80.5606 103.563 81.5898 103.99C82.6189 104.418 83.4981 105.141 84.116 106.068C84.7338 106.996 85.0626 108.085 85.0606 109.2C85.058 110.689 84.465 112.117 83.4116 113.171C82.3583 114.224 80.9303 114.817 79.4406 114.82Z" fill="#92B9E3" stroke="#263238" stroke-linecap="round" stroke-linejoin="round"/>
<path d="M216.9 205.02H255.63" stroke="#263238" stroke-width="2" stroke-linecap="round" stroke-linejoin="round"/>
<path d="M216.9 211.23H255.63" stroke="#263238" stroke-width="2" stroke-linecap="round" stroke-linejoin="round"/>
<path d="M216.9 217.56H238.97" stroke="#263238" stroke-width="2" stroke-linecap="round" stroke-linejoin="round"/>
<path d="M165.87 220.14H145.48C144.154 220.14 142.883 219.613 141.945 218.675C141.007 217.738 140.48 216.466 140.48 215.14C140.48 213.814 141.007 212.542 141.945 211.604C142.883 210.667 144.154 210.14 145.48 210.14H165.87C167.197 210.14 168.468 210.667 169.406 211.604C170.344 212.542 170.87 213.814 170.87 215.14C170.87 216.466 170.344 217.738 169.406 218.675C168.468 219.613 167.197 220.14 165.87 220.14Z" fill="#92B9E3" stroke="#263238" stroke-linecap="round" stroke-linejoin="round"/>
<path d="M203.87 220.14H183.48C182.154 220.14 180.883 219.613 179.945 218.675C179.007 217.738 178.48 216.466 178.48 215.14C178.48 213.814 179.007 212.542 179.945 211.604C180.883 210.667 182.154 210.14 183.48 210.14H203.87C205.197 210.14 206.468 210.667 207.406 211.604C208.344 212.542 208.87 213.814 208.87 215.14C208.87 216.466 208.344 217.738 207.406 218.675C206.468 219.613 205.197 220.14 203.87 220.14Z" fill="#92B9E3" stroke="#263238" stroke-linecap="round" stroke-linejoin="round"/>
<path d="M262.97 112.85H219.73V156.09H262.97V112.85Z" fill="white" stroke="#263238" stroke-linecap="round" stroke-linejoin="round"/>
<path d="M219.73 112.85L262.97 156.09" stroke="#263238" stroke-linecap="round" stroke-linejoin="round"/>
<path d="M262.97 112.85L219.73 156.09" stroke="#263238" stroke-linecap="round" stroke-linejoin="round"/>
<path d="M309.92 87.1696H256.26V120.8H309.92V87.1696Z" fill="#263238" stroke="#263238" stroke-linecap="round" stroke-linejoin="round"/>
<path d="M309.92 87.1696H256.26V92.2796H309.92V87.1696Z" fill="#92B9E3" stroke="#263238" stroke-linecap="round" stroke-linejoin="round"/>
<path d="M261.74 96.5897H275.45" stroke="white" stroke-linecap="round" stroke-linejoin="round"/>
<path d="M268.6 100.41H292.33" stroke="white" stroke-linecap="round" stroke-linejoin="round"/>
<path d="M265.561 103.98H272.551" stroke="white" stroke-linecap="round" stroke-linejoin="round"/>
<path d="M268.6 108.19H284.58" stroke="white" stroke-linecap="round" stroke-linejoin="round"/>
<path d="M261.74 112.02H275.45" stroke="white" stroke-linecap="round" stroke-linejoin="round"/>
<path d="M236.69 63.7697V73.8597L232.24 78.3097H222.15V63.7697H236.69Z" fill="white" stroke="#263238" stroke-linecap="round" stroke-linejoin="round"/>
<path d="M236.69 73.8597L232.24 78.3097V73.8597H236.69Z" fill="white" stroke="#263238" stroke-linecap="round" stroke-linejoin="round"/>
<path d="M82.05 141.8V151.89L77.6 156.34H67.51V141.8H82.05Z" fill="white" stroke="#263238" stroke-linecap="round" stroke-linejoin="round"/>
<path d="M82.0496 151.89L77.5996 156.34V151.89H82.0496Z" fill="white" stroke="#263238" stroke-linecap="round" stroke-linejoin="round"/>
<path d="M27.1103 203.96V214.05L22.6603 218.5H12.5703V203.96H27.1103Z" fill="white" stroke="#263238" stroke-linecap="round" stroke-linejoin="round"/>
<path d="M27.1099 214.05L22.6599 218.5V214.05H27.1099Z" fill="white" stroke="#263238" stroke-linecap="round" stroke-linejoin="round"/>
<path d="M182.81 180.38C182.807 180.253 182.756 180.133 182.666 180.043C182.577 179.954 182.456 179.902 182.33 179.9C182.202 179.9 182.08 179.95 181.99 180.04C181.9 180.13 181.85 180.252 181.85 180.38C181.848 180.443 181.86 180.506 181.883 180.565C181.907 180.624 181.942 180.677 181.987 180.722C182.032 180.767 182.086 180.802 182.144 180.826C182.203 180.85 182.266 180.861 182.33 180.86C182.457 180.86 182.579 180.809 182.669 180.719C182.759 180.629 182.81 180.507 182.81 180.38Z" fill="#263238"/>
<path d="M193.939 146.23H191.099V144.55C191.099 143.982 190.874 143.438 190.473 143.037C190.071 142.635 189.527 142.41 188.959 142.41H169.059C168.492 142.41 167.948 142.635 167.546 143.037C167.145 143.438 166.919 143.982 166.919 144.55V146.23H164.079C163.512 146.23 162.968 146.455 162.566 146.857C162.165 147.258 161.939 147.802 161.939 148.37C161.939 153.56 164.379 157.44 168.299 158.5H168.459L168.529 158.65C169.906 161.676 172.093 164.261 174.849 166.12C175.221 166.374 175.525 166.716 175.732 167.115C175.94 167.515 176.045 167.96 176.039 168.41V173.25L175.779 173.32C175.143 173.489 174.58 173.862 174.177 174.383C173.774 174.903 173.554 175.542 173.549 176.2V176.55H172.369C171.804 176.55 171.261 176.774 170.86 177.173C170.459 177.572 170.232 178.114 170.229 178.68V183.68C170.232 183.806 170.283 183.927 170.373 184.016C170.462 184.106 170.583 184.157 170.709 184.16H187.259C187.387 184.16 187.509 184.109 187.599 184.019C187.689 183.929 187.739 183.807 187.739 183.68V178.68C187.737 178.114 187.51 177.572 187.109 177.173C186.708 176.774 186.165 176.55 185.599 176.55H184.459V176.2C184.456 175.543 184.237 174.905 183.836 174.385C183.434 173.865 182.874 173.491 182.239 173.32L181.979 173.25V168.42C181.973 167.968 182.078 167.522 182.286 167.12C182.493 166.719 182.797 166.375 183.169 166.12C185.924 164.259 188.111 161.674 189.489 158.65L189.559 158.5H189.709C193.639 157.44 196.079 153.56 196.079 148.37C196.079 147.802 195.854 147.258 195.453 146.857C195.051 146.455 194.507 146.23 193.939 146.23ZM167.259 157.08C164.489 155.71 162.899 152.53 162.899 148.37C162.899 148.057 163.024 147.757 163.245 147.535C163.466 147.314 163.767 147.19 164.079 147.19H166.919V151.25C166.919 153.088 167.199 154.916 167.749 156.67L167.999 157.45L167.259 157.08ZM185.639 177.55C185.794 177.548 185.947 177.578 186.09 177.636C186.233 177.694 186.364 177.78 186.473 177.889C186.583 177.998 186.67 178.127 186.729 178.27C186.789 178.412 186.819 178.565 186.819 178.72V183.22H171.189V178.72C171.189 178.565 171.22 178.412 171.279 178.27C171.339 178.127 171.426 177.998 171.536 177.889C171.645 177.78 171.776 177.694 171.919 177.636C172.062 177.578 172.215 177.548 172.369 177.55H185.639ZM188.769 157.94C187.486 160.956 185.352 163.534 182.629 165.36C182.127 165.705 181.718 166.168 181.437 166.708C181.156 167.249 181.013 167.851 181.019 168.46V173.75C181.019 173.877 181.07 173.999 181.16 174.089C181.25 174.179 181.372 174.23 181.499 174.23C182.03 174.23 182.539 174.44 182.914 174.816C183.289 175.191 183.499 175.699 183.499 176.23V176.58H174.499V176.23C174.499 175.966 174.551 175.705 174.653 175.461C174.754 175.217 174.902 174.996 175.089 174.81C175.445 174.451 175.924 174.24 176.429 174.22C176.498 174.227 176.566 174.22 176.632 174.199C176.697 174.178 176.757 174.144 176.809 174.099C176.86 174.054 176.902 173.999 176.931 173.937C176.961 173.875 176.977 173.808 176.979 173.74V168.44C176.984 167.832 176.839 167.233 176.559 166.695C176.278 166.156 175.87 165.694 175.369 165.35C173.052 163.798 171.155 161.698 169.844 159.237C168.534 156.775 167.852 154.028 167.859 151.24V144.54C167.859 144.385 167.89 144.231 167.949 144.088C168.009 143.945 168.096 143.815 168.205 143.705C168.315 143.596 168.445 143.509 168.588 143.45C168.731 143.39 168.884 143.36 169.039 143.36H188.939C189.094 143.36 189.248 143.39 189.391 143.45C189.534 143.509 189.664 143.596 189.774 143.705C189.883 143.815 189.97 143.945 190.03 144.088C190.089 144.231 190.119 144.385 190.119 144.54V151.24C190.13 153.542 189.67 155.821 188.769 157.94ZM190.769 157.08L190.029 157.45L190.279 156.67C190.838 154.917 191.121 153.089 191.119 151.25V147.19H193.959C194.272 147.19 194.573 147.314 194.794 147.535C195.015 147.757 195.139 148.057 195.139 148.37C195.119 152.53 193.529 155.71 190.749 157.08H190.769Z" fill="#263238"/>
<path d="M175.691 180.89H179.011C179.074 180.89 179.136 180.877 179.195 180.853C179.253 180.829 179.306 180.794 179.35 180.749C179.395 180.704 179.43 180.651 179.454 180.593C179.479 180.535 179.491 180.473 179.491 180.41C179.488 180.283 179.437 180.162 179.348 180.073C179.258 179.983 179.137 179.932 179.011 179.93H175.691C175.564 179.932 175.444 179.983 175.354 180.073C175.265 180.162 175.213 180.283 175.211 180.41C175.211 180.473 175.223 180.535 175.247 180.593C175.272 180.651 175.307 180.704 175.352 180.749C175.396 180.794 175.449 180.829 175.507 180.853C175.565 180.877 175.628 180.89 175.691 180.89Z" fill="#263238"/>
<path d="M182.339 159.37C182.452 159.427 182.583 159.438 182.705 159.401C182.826 159.363 182.928 159.281 182.989 159.17C183.04 159.075 183.058 158.966 183.039 158.86L182.399 155.12L185.119 152.46C185.185 152.399 185.231 152.32 185.252 152.233C185.274 152.145 185.269 152.054 185.239 151.97C185.21 151.885 185.159 151.811 185.09 151.754C185.021 151.698 184.938 151.662 184.849 151.65L181.089 151.1L179.409 147.69C179.383 147.632 179.345 147.581 179.298 147.539C179.251 147.497 179.196 147.464 179.136 147.444C179.076 147.423 179.013 147.415 178.95 147.419C178.887 147.424 178.826 147.441 178.769 147.47C178.673 147.516 178.596 147.593 178.549 147.69L176.869 151.1L173.099 151.65C173.037 151.658 172.978 151.679 172.924 151.711C172.87 151.743 172.823 151.785 172.786 151.835C172.748 151.886 172.722 151.943 172.707 152.004C172.692 152.065 172.689 152.128 172.699 152.19C172.709 152.295 172.759 152.392 172.839 152.46L175.559 155.12L174.919 158.86C174.908 158.922 174.909 158.986 174.922 159.048C174.936 159.11 174.961 159.169 174.997 159.221C175.034 159.273 175.08 159.317 175.133 159.352C175.187 159.386 175.247 159.409 175.309 159.42C175.412 159.433 175.517 159.416 175.609 159.37L178.979 157.6L182.339 159.37ZM178.759 156.63L176.029 158.07L176.549 155.07C176.561 154.994 176.555 154.916 176.531 154.843C176.506 154.769 176.465 154.703 176.409 154.65L174.199 152.5L177.249 152.05C177.326 152.039 177.399 152.01 177.462 151.965C177.525 151.919 177.575 151.859 177.609 151.79L178.979 149.03L180.339 151.79C180.374 151.859 180.425 151.918 180.487 151.964C180.55 152.009 180.623 152.038 180.699 152.05L183.749 152.5L181.549 154.65C181.492 154.702 181.449 154.768 181.424 154.841C181.4 154.915 181.394 154.993 181.409 155.07L181.929 158.07L179.199 156.63C179.131 156.595 179.056 156.577 178.979 156.577C178.903 156.577 178.828 156.595 178.759 156.63Z" fill="#263238"/>
<path d="M359.229 121.69H325.039V164.1H359.229V121.69Z" fill="white" stroke="#263238" stroke-linecap="round" stroke-linejoin="round"/>
<path d="M342.339 145.51C332.819 145.43 325.049 151.62 325.049 159.29V164.1H359.259V159.29C359.259 151.74 351.699 145.6 342.339 145.51Z" fill="#92B9E3" stroke="#263238" stroke-linecap="round" stroke-linejoin="round"/>
<path d="M342.998 140.89C347.372 140.89 350.918 137.344 350.918 132.97C350.918 128.596 347.372 125.05 342.998 125.05C338.624 125.05 335.078 128.596 335.078 132.97C335.078 137.344 338.624 140.89 342.998 140.89Z" fill="#92B9E3" stroke="#263238" stroke-linecap="round" stroke-linejoin="round"/>
<g clip-path="url(#clip0_2_2)">
<path d="M218.247 266.653C223.156 272.491 227.605 282.169 230.366 283.706C233.127 285.242 237.783 285.777 242.183 299.958C246.582 314.141 224.369 312.199 224.369 312.199C224.369 312.199 214.871 306.736 211.036 293.538L201.525 285.088L218.247 266.653Z" fill="#FFBDA9"/>
<path d="M235.43 310.644C235.43 310.644 228.24 308.299 222.143 301.849C216.022 295.374 215.232 283.855 215.232 283.855L212.3 289.341L206.436 283.065L203.609 282.79L201.525 285.088L211.036 293.537C214.871 306.735 224.369 312.198 224.369 312.198C224.369 312.198 230.493 312.73 235.672 311.185C235.539 310.85 235.43 310.644 235.43 310.644Z" fill="#C97E6F"/>
<path d="M184.945 215.856C191.748 220.837 195.808 224.452 199.191 231.228C202.574 238.004 223.775 262.348 225.128 264.519C226.482 266.69 213.214 289.728 202.593 295.375C202.593 295.375 186.56 276.854 177.313 269.852C168.066 262.85 171.223 238.004 175.509 229.647C179.795 221.29 184.945 215.856 184.945 215.856Z" fill="#3E96F4"/>
<path d="M185.193 260.686V246.857C185.193 246.857 183.393 246.135 181.989 250.803C181.428 252.67 181.472 254.633 181.722 256.324L171.399 248.549C170.972 257.253 172.367 266.105 177.314 269.851C186.562 276.853 202.594 295.374 202.594 295.374C205.334 293.918 208.249 291.3 211.044 288.184C204.517 281.675 192.131 269.109 185.193 260.686Z" fill="#1B72B2"/>
<path d="M251.151 306.736C252.917 307.288 254.221 308.133 254.221 310.36C254.221 312.587 253.837 316.121 252.993 317.503C252.15 318.886 247.793 319.714 247.793 319.714C247.793 319.714 248.085 310.513 249.005 308.823C249.925 307.134 251.151 306.736 251.151 306.736Z" fill="#FFBDA9"/>
<path d="M252.993 317.504C253.231 317.116 253.428 316.547 253.594 315.895C252.648 316.825 252.331 316.832 251.174 316.955L247.866 317.988C247.815 319.023 247.793 319.715 247.793 319.715C247.793 319.715 252.15 318.886 252.993 317.504Z" fill="#C97E6F"/>
<path d="M246.934 303.37C249.082 303.601 251.229 305.214 251.229 307.442C251.229 309.67 251.996 315.891 251.229 316.89C250.462 317.889 246.703 320.731 245.399 320.961C244.095 321.191 241.881 320.807 242.183 320.116C242.485 319.424 246.934 303.37 246.934 303.37Z" fill="#FFBDA9"/>
<path d="M251.555 315.217C249.926 317.058 245.763 316.893 245.763 316.893C245.763 316.893 243.932 318.85 243.707 319.479C243.571 319.859 242.822 320.358 242.719 320.745C243.408 321.008 244.583 321.105 245.4 320.96C246.678 320.735 250.308 318.002 251.174 316.954L251.555 315.221C251.555 315.221 251.555 315.219 251.555 315.217Z" fill="#C97E6F"/>
<path d="M238.887 299.695C245.477 300.067 246.704 300.681 246.934 303.37C247.164 306.059 247.011 313.894 246.167 315.891C245.323 317.888 244.863 319.655 243.789 320.73C242.716 321.806 241.108 321.81 241.108 321.81C241.108 321.81 237.499 316.506 237.346 312.051C237.192 307.595 238.887 299.695 238.887 299.695Z" fill="#FFBDA9"/>
<path d="M242.677 317.396C242.342 315.571 241.601 313.627 241.507 307.521C241.472 305.227 239.348 317.207 240.296 320.493C240.769 321.309 241.108 321.809 241.108 321.809C241.108 321.809 242.715 321.806 243.789 320.73C244.863 319.654 245.323 317.887 246.167 315.89C246.222 315.761 246.273 315.603 246.322 315.428C245.892 316.548 244.526 317.284 242.677 317.396Z" fill="#C97E6F"/>
<path d="M224.46 313.202C224.875 316.873 229.676 318.195 230.213 320.038C230.75 321.882 230.367 323.572 231.287 324.033C232.207 324.494 236.042 322.343 235.889 319.885C235.889 319.885 236.887 321.959 239.111 322.343C241.336 322.727 241.872 321.1 241.488 318.649C241.105 316.197 241.182 314.891 241.259 311.973C241.336 309.054 242.026 306.366 240.721 303.14C239.417 299.913 237.654 297.071 234.125 297.609C230.597 298.147 228.449 302.602 226.531 304.139C224.613 305.675 224 309.131 224.46 313.202Z" fill="#FFBDA9"/>
<path d="M235.888 319.885C235.673 315.217 235.43 311.397 235.43 310.644C235.43 309.89 235.673 304.936 233.914 304.635C233.647 304.589 229.779 307.044 229.703 308.701C229.628 310.357 229.703 313.331 230.907 314.179C232.11 315.025 235.888 319.885 235.888 319.885Z" fill="#C97E6F"/>
<path d="M76.0447 225.807C83.0362 216.923 85.4424 216.02 92.6602 211.803C99.8771 207.587 127.244 196.896 132.882 195.541C138.521 194.185 161.262 204.802 168.724 208.19C176.186 211.577 185.681 214.911 187.299 218.213C192.714 229.266 181.989 244.931 181.932 277.757C181.903 294.95 177.99 333.611 177.99 333.611C177.99 333.611 92.0582 333.772 90.8551 331.965C89.652 330.158 86.6447 268.42 85.141 255.772C83.6382 243.124 76.0447 225.807 76.0447 225.807Z" fill="#3E96F4"/>
<path d="M186.984 235.519C186.954 233.343 187.185 231.206 187.478 229.077C187.797 226.952 188.18 224.836 188.826 222.757C188.858 224.934 188.627 227.072 188.332 229.2C188.011 231.325 187.628 233.441 186.984 235.519Z" fill="#3380C4"/>
<path d="M154.849 222.588C158.169 221.346 166.035 223.506 167.473 224.007C168.911 224.508 166.628 218.353 165.782 217.591C164.937 216.829 163.583 215.054 160.99 215.857C158.396 216.66 156.216 219.634 155.84 220.612C155.463 221.591 154.849 222.588 154.849 222.588Z" fill="#1B72B2"/>
<path d="M127.186 227.726C128.37 227.67 135.277 224.489 136.931 223.699C138.585 222.908 146.077 222.539 151.108 223.947C151.108 223.947 141.423 217.393 135.784 217.449C130.145 217.506 128.003 219.539 127.551 221.346C127.101 223.153 127.186 227.726 127.186 227.726Z" fill="#1B72B2"/>
<path d="M164.126 319.769C163.203 318.865 107.084 320.672 105.956 314.8C104.828 308.927 104.052 298.247 104.052 298.247C110.808 301.86 120.617 300.356 120.617 300.356C114.076 298.217 104.603 287.47 104.152 284.307C102.763 274.566 107.96 247.709 107.96 247.709L104.152 240.037L99.6975 237.552C99.6975 237.552 91.2507 241.764 84.0269 249.514C84.514 251.658 84.9044 253.774 85.1419 255.772C86.5592 267.697 89.3135 323.246 90.6323 331.078C108.014 331.72 139.524 332.876 160.608 333.601C170.824 333.625 177.991 333.612 177.991 333.612C177.991 333.612 178.123 328.527 178.43 321.234C172.548 320.889 164.698 320.328 164.126 319.769Z" fill="#1B72B2"/>
<path d="M152.729 224.226C146.674 223.495 136.941 218.241 133.107 220.048C129.273 221.854 128.371 226.485 127.581 227.276C126.792 228.066 123.409 224.114 123.409 214.401C123.409 204.689 123.111 194.744 130.252 193.392C137.393 192.04 155.887 199.043 159.609 201.866C163.33 204.689 164.909 207.549 165.924 210.297C166.939 213.046 169.645 224.114 168.405 224.227C167.165 224.34 163.669 217.112 161.075 216.886C158.481 216.659 154.369 224.424 152.729 224.226Z" fill="#3E96F4"/>
<path d="M156.175 215.53C157.719 211.86 159.41 208.641 159.354 206.1C159.298 203.559 158.734 201.808 155.915 201.018C153.096 200.227 151.911 201.752 151.742 205.591C151.572 209.432 156.175 215.53 156.175 215.53Z" fill="#1B72B2"/>
<path d="M134.068 208.688C128.173 203.333 127.505 197.348 128.059 196.106C128.613 194.864 131.047 193.96 131.047 193.96C131.047 193.96 132.006 197.856 131.442 198.816C130.879 199.775 134.068 208.688 134.068 208.688Z" fill="#1B72B2"/>
<path d="M143.451 221.632C141.947 221.17 140.434 220.751 138.896 220.48C137.37 220.193 135.802 219.985 134.301 220.163C133.561 220.255 132.829 220.467 132.319 220.894C131.83 221.386 131.274 222.023 130.798 222.602C129.805 223.769 129.129 225.135 128.447 226.566C128.354 226.747 128.257 226.932 128.131 227.122C128 227.306 127.864 227.522 127.541 227.685C127.38 227.761 127.165 227.79 126.987 227.747C126.816 227.706 126.673 227.631 126.568 227.553C126.351 227.394 126.203 227.223 126.066 227.053C125.548 226.365 125.193 225.656 124.842 224.937C124.133 223.471 123.739 221.881 123.528 220.31C123.095 217.154 123.099 213.979 123.41 210.843C123.431 212.418 123.476 213.989 123.61 215.552C123.719 217.115 123.888 218.672 124.183 220.2C124.485 221.726 124.866 223.225 125.575 224.576C125.928 225.261 126.288 225.964 126.726 226.527C126.835 226.663 126.954 226.785 127.056 226.857C127.177 226.933 127.172 226.914 127.184 226.909C127.289 226.875 127.525 226.497 127.676 226.177C128.357 224.782 129.096 223.3 130.171 222.079C130.712 221.459 131.199 220.915 131.836 220.312C132.559 219.739 133.428 219.563 134.236 219.502C135.875 219.396 137.453 219.694 138.988 220.068C140.516 220.482 142.014 220.986 143.451 221.632Z" fill="#1B72B2"/>
<path d="M157.336 219.607C157.847 218.895 158.442 218.249 159.087 217.639C159.421 217.345 159.771 217.064 160.18 216.832C160.39 216.72 160.617 216.627 160.88 216.573C161.019 216.565 161.165 216.548 161.313 216.578C161.461 216.619 161.643 216.685 161.714 216.735C162.492 217.148 163.246 217.684 163.898 218.307C164.55 218.934 165.111 219.637 165.624 220.362C166.135 221.105 166.543 221.861 167.052 222.518C167.299 222.852 167.569 223.172 167.858 223.417C167.995 223.537 168.165 223.635 168.238 223.641C168.281 223.654 168.26 223.645 168.281 223.647C168.295 223.636 168.338 223.598 168.364 223.523C168.488 223.23 168.496 222.78 168.494 222.37C168.488 221.949 168.455 221.521 168.407 221.092C168.335 220.229 168.18 219.373 168.063 218.505C168.37 219.326 168.609 220.166 168.824 221.022C168.924 221.451 169.003 221.886 169.059 222.333C169.1 222.785 169.151 223.23 168.993 223.765C168.951 223.897 168.877 224.051 168.729 224.185C168.581 224.317 168.339 224.391 168.164 224.362C167.801 224.319 167.595 224.155 167.391 224.013C167.003 223.711 166.696 223.372 166.408 223.022C165.831 222.315 165.404 221.535 164.916 220.854C163.955 219.441 162.822 218.208 161.369 217.31C161.262 217.231 161.229 217.245 161.174 217.209C161.115 217.191 161.036 217.197 160.961 217.189C160.793 217.211 160.613 217.267 160.426 217.338C160.057 217.496 159.698 217.726 159.349 217.968C158.639 218.448 157.989 219.027 157.336 219.607Z" fill="#1B6BB2"/>
<path d="M157.002 193.469C156.989 195.856 156.894 198.235 156.646 200.609C156.038 206.433 156.634 214.113 156.175 215.53C155.662 217.111 152.617 222.758 152.617 222.758C152.617 222.758 147.204 220.273 144.948 217.564C142.693 214.853 139.761 214.716 135.814 210.719C131.867 206.723 129.184 200.374 130.063 195.09C130.175 194.413 130.869 187.648 131.022 180.647C131.174 173.645 138.521 168.325 145.512 168.325C152.504 168.325 156.689 178.715 156.909 185.717C156.999 188.589 157.015 191.286 157.002 193.469Z" fill="#FFBDA9"/>
<path d="M131.021 180.645C130.869 187.647 130.176 194.411 130.063 195.089C129.791 196.723 129.862 198.458 130.203 200.194C131.75 200.48 151.663 200.961 156.821 198.556C156.939 196.864 156.993 195.169 157.003 193.47C157.015 191.287 156.999 188.589 156.909 185.716C156.816 182.748 156.008 179.173 154.578 176.037L138.197 170.223C134.176 172.37 131.119 176.158 131.021 180.645Z" fill="#C97E6F"/>
<path d="M182.617 156.296C181.992 160.008 180.157 161.427 179.338 166.432C178.518 171.436 180.704 178.709 177.445 185.043C174.184 191.377 168.914 199.705 165.869 200.057C162.823 200.409 138.432 196.284 130.203 179.894C127.841 175.19 122.792 156.742 127.113 145.478C131.433 134.214 138.461 123.891 154.703 123.579C170.943 123.266 185.929 136.62 182.617 156.296Z" fill="#FFBDA9"/>
<path d="M169.032 176.588C168.164 176.608 167.213 176.276 166.784 175.706C166.409 175.207 166.254 174.55 166.364 173.936C167.634 174.984 169.19 175.164 170.754 174.891C170.946 176.059 170.048 176.564 169.032 176.588Z" fill="#C97E6F"/>
<path d="M140.3 156.296C140.919 152.434 143.496 150.206 143.496 150.206C143.496 150.206 149.704 147.625 154.506 147.156C159.308 146.687 164.228 145.279 164.228 145.279C164.228 145.279 162.705 149.141 160.128 150.787C160.128 150.787 171.606 150.205 175.238 146.804C175.238 146.804 174.535 149.607 173.833 151.49C173.833 151.49 179.455 150.91 181.212 148.681C181.212 148.681 182.617 153.588 182.617 156.296C182.617 156.296 189.372 147.038 187.653 139.687C185.935 132.336 183.593 129.522 183.593 129.522C183.593 129.522 188.434 129.991 191.089 129.522C191.089 129.522 184.842 124.048 180.157 120.45C175.471 116.853 161.415 116.697 161.415 116.697C161.415 116.697 160.128 116.697 156.502 116.697C156.502 116.697 152.502 116.154 145.502 117.5C140.3 118.5 143.25 117.795 136.502 119.5C129.754 121.206 125.696 124.364 123.002 128C120.002 132.05 119.502 135.5 119.502 135.5C119.502 135.5 119.002 142 120.002 147.5C120.002 147.5 121.354 161.207 126.002 171.5C130.649 181.793 131.002 166.5 132.002 159C134.502 151.49 140.3 156.296 140.3 156.296Z" fill="#31393C"/>
<path d="M158.926 179.966C161.785 181.543 171.124 182.068 171.76 181.98C172.396 181.893 171.091 188.994 168.804 189.257C166.517 189.52 161.942 188.907 160.036 187.067C158.13 185.227 158.926 179.966 158.926 179.966Z" fill="#C97E6F"/>
<path d="M159.524 182.036C159.7 181.406 159.838 180.9 159.971 180.408C163.116 181.483 169.308 181.938 171.217 181.984C171.061 182.934 170.788 183.895 170.401 184.839C170.341 184.8 170.416 184.93 170.356 184.891C166.235 185.541 162.041 184.203 159.524 182.036Z" fill="white"/>
<path d="M160.187 162.991C160.187 161.695 159.548 160.645 158.761 160.645C157.975 160.645 157.336 161.695 157.336 162.991C157.336 164.287 157.975 165.337 158.761 165.337C159.548 165.337 160.187 164.287 160.187 162.991Z" fill="#31393C"/>
<path d="M176.493 164.085C176.493 162.789 175.944 161.739 175.267 161.739C174.591 161.739 174.042 162.789 174.042 164.085C174.042 165.381 174.591 166.431 175.267 166.431C175.944 166.432 176.493 165.381 176.493 164.085Z" fill="#31393C"/>
<path d="M152.209 153.845C153.182 153.309 154.231 152.938 155.307 152.628C156.387 152.338 157.508 152.166 158.646 152.127C159.776 152.07 160.973 152.038 162.068 152.461C163.165 152.84 164.161 153.531 164.895 154.442L164.812 154.581C163.635 154.454 162.664 154.165 161.637 154.029C160.634 153.879 159.661 153.511 158.612 153.427C156.538 153.25 154.365 153.415 152.274 153.993L152.209 153.845Z" fill="#31393C"/>
<path d="M180.614 156.877C180.106 156.68 179.572 156.556 179.039 156.494C178.509 156.422 177.977 156.396 177.452 156.39C176.922 156.383 176.397 156.572 175.88 156.445C175.619 156.386 175.354 156.336 175.082 156.223C174.809 156.13 174.53 156.008 174.23 155.798L174.213 155.637C174.722 155.138 175.299 154.926 175.885 154.819C176.476 154.708 177.062 154.945 177.63 155.101C178.202 155.251 178.762 155.451 179.288 155.72C179.805 156.007 180.311 156.307 180.714 156.748L180.614 156.877Z" fill="#31393C"/>
<path d="M164.127 325.334C164.12 325.698 164.628 326.224 165.868 326.224C167.108 326.224 200.47 326.224 204.981 326.224C209.492 326.224 210.543 324.437 209.191 322.178C207.838 319.92 202.124 314.95 187.99 311.487C173.856 308.024 166.424 316.121 164.127 319.769C162.442 322.443 164.127 325.334 164.127 325.334Z" fill="#C1C9D1"/>
<path d="M209.524 322.856C208.746 325.447 178.902 324.096 178.902 324.096C178.902 324.096 181.927 320.002 185.273 319.885C188.619 319.769 190.245 320.933 194.732 321.706C199.219 322.479 195.892 319.878 195.892 319.878C195.892 319.878 199.062 319.174 200.353 318.173C200.353 318.173 192.961 315.985 189.859 315.477C186.758 314.968 178.864 315.307 177.849 315.477C177.131 315.597 173.489 313.478 169.086 314.542C166.629 316.339 165.003 318.377 164.127 319.769C162.442 322.444 164.127 325.334 164.127 325.334C164.12 325.698 164.628 326.224 165.868 326.224C167.108 326.224 200.47 326.224 204.981 326.224C209.028 326.223 210.284 324.783 209.524 322.856Z" fill="#808A91"/>
<path d="M81.8712 300.845C81.8712 300.845 109.686 305.152 124.763 307.854C139.044 310.414 151.377 311.524 154.873 310.847C158.369 310.17 170.323 305.765 174.157 304.183C177.991 302.602 185.66 301.699 189.607 302.941C193.554 304.183 196.787 305.539 198.366 305.539C199.944 305.539 199.644 308.099 197.538 308.626C195.433 309.152 193.554 309.077 193.554 309.077C193.554 309.077 200.696 312.992 201.974 313.369C203.252 313.746 201.738 316.08 200.008 315.929C200.008 315.929 201.522 316.833 200.996 317.736C200.47 318.64 196.711 318.64 196.711 318.64C196.711 318.64 201.297 320.898 197.462 321.802C193.628 322.705 189.042 318.414 187.162 318.038C185.282 317.662 180.922 317.887 178.817 319.468C176.712 321.05 167.69 328.353 155.36 323.986C155.36 323.986 71.6728 327.382 63.3279 327.382C54.983 327.382 49.9425 319.995 52.6182 305.765C55.2939 291.536 60.4812 280.92 60.4812 280.92L89.3507 282.952L81.8712 300.845Z" fill="#FFBDA9"/>
<path d="M186.964 306.815C186.227 306.642 185.64 306.54 185.272 306.518C185.272 306.518 185.986 306.641 186.964 306.815Z" fill="#C97E6F"/>
<path d="M193.553 309.077C193.553 309.077 195.433 309.152 197.537 308.626C198.129 308.478 198.573 308.166 198.878 307.799C196.536 308.835 193.655 308.173 192.077 307.797C191.081 307.559 188.635 307.113 186.964 306.815C188.639 307.209 191.093 307.98 193.553 309.077Z" fill="#C97E6F"/>
<path d="M193.185 312.465C193.005 312.383 192.852 312.319 192.753 312.288C192.753 312.288 192.916 312.355 193.185 312.465Z" fill="#C97E6F"/>
<path d="M201.958 315.046C201.932 315.07 201.106 315.799 199.368 315.042C197.921 314.411 194.408 312.968 193.184 312.466C194.724 313.166 198.897 315.524 200.007 315.929C200.777 315.996 201.502 315.571 201.958 315.046Z" fill="#C97E6F"/>
<path d="M197.64 317.81C196.362 317.434 193.693 315.815 192.058 315.041C190.423 314.267 188.336 314.177 188.336 314.177C188.336 314.177 188.957 314.233 190.592 315.041C192.226 315.848 196.711 318.638 196.711 318.638C196.711 318.638 199.123 318.637 200.352 318.172C200.34 318.173 198.912 318.186 197.64 317.81Z" fill="#C97E6F"/>
<path d="M173.845 319.655C171.477 321.124 164.485 323.043 160.312 322.253C156.138 321.462 155.237 317.961 155.237 317.961L154.072 321.725C154.072 321.725 96.0322 323.381 84.2282 322.85C72.5608 322.325 54.3612 322.06 51.9844 315.041C52.6365 323.187 57.043 327.38 63.3271 327.38C71.672 327.38 155.359 323.984 155.359 323.984C167.689 328.351 176.711 321.048 178.816 319.467C180.566 318.152 183.87 317.777 186.017 317.903C182.817 316.779 176.213 318.188 173.845 319.655Z" fill="#C97E6F"/>
<path d="M81.8712 300.845C81.8712 300.845 70.9974 299.365 68.8167 299.139L70.4706 292.363L84.2291 295.149L81.8712 300.845Z" fill="#C97E6F"/>
<path d="M52.8099 281.877C52.4006 282.937 52.6605 284.13 53.4724 284.925C58.5267 289.867 65.1606 296.598 71.9846 297.633C79.4278 298.763 91.832 299.214 92.5091 297.633C93.1862 296.052 95.6667 275.95 100.178 265.786C104.689 255.622 107.621 250.427 108.748 244.555C109.875 238.683 99.7261 224.904 95.215 223.775C90.704 222.645 80.3295 221.968 76.0439 225.807C71.7583 229.647 68.6007 244.329 63.6388 255.396C59.6365 264.326 54.6038 277.228 52.8099 281.877Z" fill="#3E96F4"/>
<path d="M80.7275 223.577C83.4309 222.906 86.2292 222.634 89.0284 222.641C90.4302 222.629 91.8328 222.76 93.2259 222.96C93.9246 223.05 94.6121 223.216 95.303 223.36C95.9914 223.596 96.7083 223.786 97.3292 224.162C97.9917 224.47 98.547 224.928 99.1387 225.336C99.6672 225.812 100.242 226.247 100.71 226.779C101.706 227.79 102.56 228.918 103.346 230.082C104.89 232.426 106.179 234.924 107.111 237.552C106.477 236.313 105.824 235.089 105.091 233.913C104.379 232.728 103.629 231.567 102.803 230.466C101.956 229.385 101.122 228.29 100.13 227.357C99.6672 226.856 99.1257 226.449 98.6196 226.002C98.0625 225.63 97.5365 225.201 96.9294 224.928C96.3593 224.572 95.7211 224.407 95.1018 224.181C94.4359 224.032 93.7717 223.875 93.0963 223.767C91.7499 223.524 90.3826 223.387 89.0094 223.303C87.6361 223.222 86.2542 223.218 84.8741 223.273C83.4887 223.303 82.1086 223.418 80.7275 223.577Z" fill="#1C69AF"/>
<path d="M58.4421 286.038C58.4792 282.43 66.0891 249.344 72.8112 230.903C69.9532 237.204 67.2827 247.271 63.6406 255.396C59.6365 264.326 54.6047 277.228 52.8109 281.877C52.4015 282.937 52.6606 284.13 53.4733 284.925C55.4088 286.818 57.5784 288.972 59.9 290.969C59.7246 290.799 58.4067 289.408 58.4421 286.038Z" fill="#1B72B2"/>
<path d="M233.481 319.487H316.766C317.605 319.487 318.284 320.167 318.284 321.007V324.702C318.284 325.542 317.605 326.223 316.766 326.223H233.481V319.487Z" fill="#808A91"/>
<path d="M212.048 324.133V325.635C212.048 325.96 212.311 326.223 212.635 326.223H233.614C234.267 326.223 234.797 325.692 234.797 325.039V320.663C234.797 319.956 234.183 319.407 233.482 319.487L212.57 323.55C212.272 323.583 212.048 323.835 212.048 324.133Z" fill="#C1C9D1"/>
<path d="M379.03 177.728H223.372C220.223 177.728 217.411 179.706 216.345 182.673L182.303 277.346C180.879 282.229 184.446 285.888 190.179 286.506C191.057 286.601 195.239 284.719 201.805 281.626H340.964C344.113 281.626 346.924 279.648 347.991 276.681L378.743 191.157C383.942 188.44 386.907 186.886 386.907 186.886C386.907 186.886 388.83 177.728 379.03 177.728Z" fill="#C1C9D1"/>
<path d="M228.245 182.608H383.903C386.114 182.608 387.654 184.804 386.906 186.887L352.864 281.561C351.797 284.529 348.986 286.507 345.837 286.507H190.179C187.968 286.507 186.427 284.311 187.176 282.227L221.218 187.554C222.284 184.586 225.096 182.608 228.245 182.608Z" fill="#ECECEC"/>
<path d="M263.385 286.506L270.296 260.842L296.483 286.506H263.385Z" fill="#808A91"/>
<path d="M301.285 215.856C300.6 220.089 297.865 221.795 294.59 221.795C291.315 221.795 288.851 219.085 289.424 215.856C289.998 212.628 292.844 209.918 296.119 209.918C299.394 209.918 301.808 212.619 301.285 215.856Z" fill="#C1C9D1"/>
<path d="M228.131 270.752L230.132 265.186H227.616L225.614 270.752H228.131Z" fill="#808A91"/>
<path d="M233.428 270.752L235.43 265.186H232.913L230.912 270.752H233.428Z" fill="#808A91"/>
<path d="M238.726 270.752L240.728 265.186H238.212L236.21 270.752H238.726Z" fill="#808A91"/>
<path d="M244.025 270.752L246.026 265.186H243.51L241.509 270.752H244.025Z" fill="#808A91"/>
<path d="M319.282 270.752L321.284 265.186H318.768L316.766 270.752H319.282Z" fill="#808A91"/>
<path d="M324.581 270.752L326.582 265.186H324.066L322.065 270.752H324.581Z" fill="#808A91"/>
<path d="M329.878 270.752L331.88 265.186H329.365L327.363 270.752H329.878Z" fill="#808A91"/>
<path d="M335.177 270.752L337.178 265.186H334.663L332.661 270.752H335.177Z" fill="#808A91"/>
<path d="M315.948 317.074C314.412 312.65 295.785 252.459 295.785 252.459H271.875L270.296 260.842C270.296 260.842 286.327 312.65 287.863 317.074C287.979 317.411 288.092 317.749 288.196 318.088H288.195C289.6 322.413 285.893 322.395 281.719 322.395C277.544 322.395 239.551 322.395 239.551 322.395V326.224H281.719H309.803C318.252 326.223 317.484 321.497 315.948 317.074Z" fill="#9EA7AF"/>
<path d="M271.874 252.459C271.874 252.459 290.501 312.65 292.037 317.074C293.573 321.497 294.341 326.223 285.892 326.223H313.977C322.426 326.223 321.658 321.497 320.122 317.074C318.586 312.65 299.96 252.459 299.96 252.459H271.874Z" fill="#C1C9D1"/>
<path d="M277.73 252.459C279.583 252.374 281.435 252.331 283.288 252.271C285.141 252.207 286.993 252.193 288.845 252.152C290.698 252.123 292.55 252.068 294.403 252.068L299.961 252.034L300.271 252.032L300.367 252.333C301.142 254.757 301.906 257.184 302.634 259.623L304.85 266.929C306.276 271.816 307.703 276.701 309.008 281.626C307.296 276.828 305.709 271.992 304.12 267.156L301.813 259.878C301.033 257.456 300.29 255.022 299.556 252.585L299.962 252.885L294.404 252.85C292.552 252.849 290.699 252.796 288.847 252.766C286.994 252.725 285.141 252.711 283.29 252.648C281.435 252.588 279.583 252.545 277.73 252.459Z" fill="#F9F9F9"/>
<path d="M440.623 341H28.3488C24.2739 341 20.9712 337.693 20.9712 333.612C20.9712 329.531 24.2739 326.224 28.3488 326.224H440.623C444.697 326.224 448 329.532 448 333.612C448 337.692 444.697 341 440.623 341Z" fill="#ECECEC"/>
<path d="M440.623 341H28.3488C24.2739 341 20.9712 337.692 20.9712 333.612H448C448 337.692 444.697 341 440.623 341Z" fill="#C1C9D1"/>
<path d="M309.48 135H260.18C259.603 135.003 259.05 135.233 258.641 135.641C258.233 136.05 258.003 136.603 258 137.18V160.18C258.003 160.756 258.233 161.308 258.642 161.715C259.051 162.122 259.604 162.35 260.18 162.35H282.28L284.8 171.35L287.33 162.35H309.48C310.056 162.35 310.609 162.122 311.018 161.715C311.427 161.308 311.657 160.756 311.66 160.18V137.18C311.657 136.603 311.427 136.05 311.019 135.641C310.61 135.233 310.057 135.003 309.48 135Z" fill="#92B9E3" stroke="#263238" stroke-linecap="round" stroke-linejoin="round"/>
<path d="M266.17 141.58H303.42" stroke="#263238" stroke-width="2" stroke-linecap="round" stroke-linejoin="round"/>
<path d="M266.17 146.3H303.42" stroke="#263238" stroke-width="2" stroke-linecap="round" stroke-linejoin="round"/>
<path d="M266.17 151.02H303.42" stroke="#263238" stroke-width="2" stroke-linecap="round" stroke-linejoin="round"/>
<path d="M266.17 155.74H294.25" stroke="#263238" stroke-width="2" stroke-linecap="round" stroke-linejoin="round"/>
</g>
<defs>
<clipPath id="clip0_2_2">
<rect width="448" height="331" fill="white" transform="translate(0 10)"/>
</clipPath>
</defs>
</svg>
