<svg width="56" height="56" viewBox="0 0 56 56" fill="none" xmlns="http://www.w3.org/2000/svg">
<path d="M0 4C0 1.79086 1.79086 0 4 0H52C54.2091 0 56 1.79086 56 4V52C56 54.2091 54.2091 56 52 56H4C1.79086 56 0 54.2091 0 52V4Z" fill="#FFF8F5"/>
<mask id="mask0_1_2068" style="mask-type:alpha" maskUnits="userSpaceOnUse" x="8" y="8" width="40" height="40">
<rect x="8" y="8" width="40" height="40" fill="#D9D9D9"/>
</mask>
<g mask="url(#mask0_1_2068)">
<path d="M45.7261 36.2031C49.484 27.1702 45.027 16.1172 36.0613 12.2077C35.9758 12.1688 35.8834 12.1473 35.7896 12.1441C35.6957 12.141 35.6021 12.1564 35.5142 12.1894C35.4263 12.2224 35.3457 12.2724 35.2772 12.3366C35.2086 12.4007 35.1533 12.4778 35.1145 12.5633C35.0756 12.6488 35.0541 12.7412 35.0509 12.835C35.0478 12.9289 35.0632 13.0224 35.0962 13.1104C35.1292 13.1983 35.1792 13.2788 35.2434 13.3474C35.3075 13.416 35.3846 13.4713 35.4701 13.5101C39.5031 15.3403 42.6812 18.6467 44.3504 22.7489C46.0196 26.8512 46.053 31.4372 44.4436 35.5633C43.6488 35.3641 42.8085 35.4655 42.0838 35.8479C41.3591 36.2303 40.8012 36.8668 40.517 37.6354C40.2329 38.4039 40.2426 39.2503 40.5442 40.0122C40.8458 40.774 41.4181 41.3977 42.1513 41.7634C42.8845 42.1292 43.7269 42.2114 44.517 41.9941C45.307 41.7769 45.9891 41.2756 46.4322 40.5863C46.8753 39.8971 47.0483 39.0685 46.918 38.2596C46.7877 37.4506 46.3632 36.7183 45.7261 36.2031ZM43.6552 40.6845C43.1518 40.6845 42.669 40.4845 42.3131 40.1286C41.9572 39.7727 41.7572 39.2899 41.7572 38.7865C41.7572 38.2832 41.9572 37.8004 42.3131 37.4445C42.669 37.0886 43.1518 36.8886 43.6552 36.8886C44.1585 36.8886 44.6413 37.0886 44.9972 37.4445C45.3531 37.8004 45.5531 38.2832 45.5531 38.7865C45.5531 39.2899 45.3531 39.7727 44.9972 40.1286C44.6413 40.4845 44.1585 40.6845 43.6552 40.6845ZM10.3731 31.5587C11.5254 31.4586 10.9128 30.0232 11.0208 29.2712C11.0261 25.1857 12.4762 21.2337 15.1145 18.1142C17.7527 14.9948 21.4092 12.9089 25.4372 12.2255C25.6591 12.9945 26.1515 13.6574 26.8236 14.092C27.4957 14.5267 28.3023 14.7037 29.0946 14.5905C29.8869 14.4773 30.6117 14.0816 31.1353 13.4762C31.6589 12.8708 31.946 12.0966 31.9437 11.2962C31.8673 7.22301 26.0312 6.78051 25.3407 10.7787C20.6732 11.5429 16.4659 14.0401 13.5593 17.7712C10.6527 21.5023 9.26088 26.1927 9.66183 30.9053C9.67721 31.0834 9.75877 31.2493 9.89044 31.3703C10.0221 31.4912 10.1943 31.5585 10.3731 31.5587ZM28.6161 9.3983C29.1195 9.3983 29.6022 9.59826 29.9581 9.95419C30.3141 10.3101 30.514 10.7929 30.514 11.2962C30.514 11.7996 30.3141 12.2823 29.9581 12.6383C29.6022 12.9942 29.1195 13.1942 28.6161 13.1942C28.1127 13.1942 27.63 12.9942 27.2741 12.6383C26.9181 12.2823 26.7182 11.7996 26.7182 11.2962C26.7182 10.7929 26.9181 10.3101 27.2741 9.95419C27.63 9.59826 28.1127 9.3983 28.6161 9.3983ZM38.0464 43.5782C34.443 46.0285 30.0473 47.0278 25.7387 46.3762C21.4302 45.7246 17.5265 43.4702 14.8088 40.064C15.345 39.4487 15.6351 38.657 15.6235 37.841C15.6119 37.0249 15.2993 36.2418 14.7458 35.642C14.1923 35.0422 13.4368 34.6679 12.6243 34.591C11.8118 34.514 10.9994 34.7397 10.3431 35.2249C9.68681 35.7101 9.23278 36.4205 9.06811 37.2199C8.90345 38.0193 9.03975 38.8513 9.45088 39.5564C9.862 40.2614 10.519 40.7899 11.2958 41.0403C12.0726 41.2907 12.9145 41.2454 13.66 40.9132C16.5971 44.617 20.8269 47.0722 25.4997 47.7856C30.1725 48.499 34.9422 47.4178 38.8506 44.7591C38.9997 44.6495 39.1005 44.4862 39.1317 44.3038C39.1629 44.1213 39.1221 43.9339 39.0179 43.7809C38.9138 43.6279 38.7543 43.5213 38.5731 43.4835C38.3919 43.4457 38.2031 43.4796 38.0464 43.5782ZM10.4303 37.8687C10.4303 37.3653 10.6303 36.8826 10.9862 36.5266C11.3421 36.1707 11.8249 35.9707 12.3282 35.9707C12.8316 35.9707 13.3143 36.1707 13.6703 36.5266C14.0262 36.8826 14.2262 37.3653 14.2262 37.8687C14.2262 38.372 14.0262 38.8548 13.6703 39.2107C13.3143 39.5666 12.8316 39.7666 12.3282 39.7666C11.8249 39.7666 11.3421 39.5666 10.9862 39.2107C10.6303 38.8548 10.4303 38.372 10.4303 37.8687Z" fill="black"/>
<path d="M28.0264 18.77C23.4921 18.7071 20.9629 24.2837 23.9524 27.637C22.5086 28.3086 21.2498 29.3213 20.2846 30.5879C19.3194 31.8544 18.6769 33.3368 18.4123 34.9071C18.3679 35.1886 18.3847 35.4764 18.4616 35.7509C18.5385 36.0253 18.6737 36.28 18.8578 36.4975C19.042 36.715 19.271 36.8902 19.529 37.0113C19.787 37.1323 20.0681 37.1963 20.3532 37.1989H35.6981C35.9837 37.1969 36.2654 37.1333 36.5241 37.0125C36.7828 36.8917 37.0124 36.7165 37.1972 36.4989C37.3821 36.2813 37.5178 36.0264 37.5951 35.7516C37.6725 35.4767 37.6896 35.1884 37.6454 34.9064C37.378 33.3364 36.7337 31.8548 35.7678 30.5887C34.8018 29.3225 33.5431 28.3097 32.0996 27.637C35.0891 24.2887 32.5599 18.7042 28.0264 18.77ZM28.0264 20.1997C33.2369 20.3656 33.2362 27.9215 28.0264 28.0867C22.8151 27.9208 22.8165 20.3648 28.0264 20.1997ZM36.2343 35.138C36.2494 35.216 36.2468 35.2965 36.2267 35.3734C36.2065 35.4503 36.1693 35.5218 36.1178 35.5824C36.0664 35.643 36.0019 35.6912 35.9293 35.7236C35.8566 35.7559 35.7776 35.7715 35.6981 35.7692H20.3532C20.2754 35.7694 20.1986 35.7524 20.1282 35.7195C20.0578 35.6867 19.9955 35.6387 19.9457 35.579C19.894 35.519 19.8563 35.4482 19.8351 35.3718C19.814 35.2954 19.81 35.2153 19.8234 35.1372C20.0692 33.6865 20.6934 32.3264 21.6332 31.1942C22.573 30.062 23.7949 29.198 25.1755 28.6893C26.0281 29.2291 27.0165 29.5157 28.0256 29.5157C29.0348 29.5157 30.0232 29.2291 30.8758 28.6893C32.2564 29.1989 33.4786 30.0632 34.4192 31.1951C35.3599 32.327 35.9859 33.6873 36.2343 35.138Z" fill="black"/>
</g>
</svg>
