<svg width="42" height="43" viewBox="0 0 42 43" fill="none" xmlns="http://www.w3.org/2000/svg">
<path d="M6 0.700195H36C38.9271 0.700195 41.2998 3.07289 41.2998 6V34.9121C41.2998 36.6237 40.4729 38.2297 39.0801 39.2246L37.2324 40.5459C35.9881 41.4347 34.2834 41.2931 33.2021 40.2119L32.9951 40.0049C31.341 38.3508 28.659 38.3508 27.0049 40.0049C25.8975 41.1122 24.1025 41.1122 22.9951 40.0049C21.341 38.3508 18.659 38.3508 17.0049 40.0049C15.8975 41.1122 14.1025 41.1122 12.9951 40.0049C11.341 38.3508 8.65896 38.3508 7.00488 40.0049C5.89754 41.1122 4.10246 41.1122 2.99512 40.0049L1.95898 38.9697C1.15265 38.1633 0.700195 37.0691 0.700195 35.9287V6C0.700195 3.07289 3.07289 0.700196 6 0.700195Z" stroke="#3E96F4" stroke-width="1.4"/>
<path d="M26.789 11.235L20.6911 5.92942L19.1452 13.8631L26.789 11.235ZM19.038 10.244L19.1777 10.9299L19.038 10.244ZM12.4162 14.1614L12.9556 14.6076L12.4162 14.1614ZM10.0071 21.163L10.7066 21.1369L10.0071 21.163ZM12.4262 28.4714C12.693 28.7511 13.1361 28.7615 13.4158 28.4946C13.6955 28.2278 13.7059 27.7847 13.4391 27.5049L12.9326 27.9882L12.4262 28.4714ZM20.6054 10.0302L20.5562 9.33192C20.0015 9.37105 19.4476 9.44627 18.8984 9.55808L19.038 10.244L19.1777 10.9299C19.6668 10.8303 20.1603 10.7633 20.6547 10.7284L20.6054 10.0302ZM19.038 10.244L18.8984 9.55808C16.1204 10.1237 13.6333 11.5915 11.8768 13.7153L12.4162 14.1614L12.9556 14.6076C14.5006 12.7395 16.7012 11.4342 19.1777 10.9299L19.038 10.244ZM12.4162 14.1614L11.8768 13.7153C10.1194 15.8401 9.20658 18.4854 9.30756 21.1891L10.0071 21.163L10.7066 21.1369C10.6188 18.7857 11.4114 16.4745 12.9556 14.6076L12.4162 14.1614ZM10.0071 21.163L9.30756 21.1891C9.40854 23.8926 10.5162 26.4696 12.4262 28.4714L12.9326 27.9882L13.4391 27.5049C11.7578 25.7428 10.7944 23.4882 10.7066 21.1369L10.0071 21.163Z" fill="#3E96F4"/>
<path d="M16.273 29.8912L22.138 35.4531L24.0223 27.5929L16.273 29.8912ZM23.4598 31.2395L23.5732 31.9302L23.4598 31.2395ZM29.838 27.6637L30.3681 28.1209L29.838 27.6637ZM32.4375 20.8292L33.1374 20.8399L32.4375 20.8292ZM30.5914 13.4779C30.3479 13.1775 29.9071 13.1314 29.6068 13.3749C29.3065 13.6183 29.2604 14.0591 29.5038 14.3594L30.0476 13.9186L30.5914 13.4779ZM22.3991 31.3598L22.4432 32.0584C22.8204 32.0345 23.1975 31.9919 23.5732 31.9302L23.4598 31.2395L23.3464 30.5487C23.0167 30.6028 22.6858 30.6402 22.355 30.6611L22.3991 31.3598ZM23.4598 31.2395L23.5732 31.9302C26.2148 31.4964 28.6199 30.1481 30.3681 28.1209L29.838 27.6637L29.3079 27.2066C27.7741 28.9852 25.6639 30.1681 23.3464 30.5487L23.4598 31.2395ZM29.838 27.6637L30.3681 28.1209C32.1164 26.0937 33.0966 23.5165 33.1374 20.8399L32.4375 20.8292L31.7375 20.8186C31.7017 23.1669 30.8418 25.428 29.3079 27.2066L29.838 27.6637ZM32.4375 20.8292L33.1374 20.8399C33.1782 18.1633 32.277 15.5574 30.5914 13.4779L30.0476 13.9186L29.5038 14.3594C30.9827 16.184 31.7734 18.4702 31.7375 20.8186L32.4375 20.8292Z" fill="#3E96F4"/>
</svg>
