<svg width="70" height="78" viewBox="0 0 70 78" fill="none" xmlns="http://www.w3.org/2000/svg">
<rect x="1" y="1" width="68" height="76" rx="6" fill="url(#paint0_linear_3_6)" stroke="#3E96F4" stroke-miterlimit="10" stroke-linecap="round"/>
<path fill-rule="evenodd" clip-rule="evenodd" d="M11.7561 13.5C11.6144 13.5 11.5 13.6144 11.5 13.7561V21.4031C11.5 21.5456 11.6154 21.6601 11.7561 21.6601H15.7633C15.9994 21.6601 16.2217 21.7713 16.3634 21.9602L17.9728 24.1063C18.0752 24.2427 18.2816 24.2427 18.384 24.1063L19.9934 21.9602C20.135 21.7713 20.3573 21.6601 20.5934 21.6601H24.2331C24.3738 21.6601 24.4892 21.5456 24.4892 21.4031V16.5511V13.7561C24.4892 13.6144 24.3747 13.5 24.2331 13.5H18.918C18.5038 13.5 18.168 13.1642 18.168 12.75C18.168 12.3358 18.5038 12 18.918 12H24.2331C25.2032 12 25.9892 12.786 25.9892 13.7561V17.0222V21.4031C25.9892 22.3721 25.2041 23.1601 24.2331 23.1601H20.9684L19.5837 25.0067L19.5834 25.0071C18.881 25.9425 17.4757 25.9425 16.7733 25.0071L16.773 25.0067L15.3883 23.1601H11.7561C10.7851 23.1601 10 22.3721 10 21.4031V13.7561C10 13.1246 10.3331 12.5711 10.8331 12.2617C11.1013 12.0958 11.4175 12 11.7561 12H15.4316C15.8459 12 16.1816 12.3358 16.1816 12.75C16.1816 13.1642 15.8459 13.5 15.4316 13.5H14.7755H11.7561ZM13.9699 15.2199H20.251H22.0196C22.4338 15.2199 22.7696 15.5557 22.7696 15.9699C22.7696 15.9835 22.7692 15.9971 22.7685 16.0106C22.7474 16.4059 22.4201 16.7199 22.0196 16.7199H13.9699C13.5557 16.7199 13.2199 16.3841 13.2199 15.9699C13.2199 15.5557 13.5557 15.2199 13.9699 15.2199ZM42.7475 23.1601C41.8937 23.1601 41.1837 22.5508 41.0247 21.7449C41.0029 21.6343 40.9915 21.52 40.9915 21.4031V13.7561C40.9915 12.786 41.7775 12 42.7475 12H55.2246C56.1946 12 56.9806 12.786 56.9806 13.7561V15.3677C56.9806 15.7819 56.6449 16.1177 56.2306 16.1177C55.8164 16.1177 55.4806 15.7819 55.4806 15.3677V13.7561C55.4806 13.6144 55.3662 13.5 55.2246 13.5H42.7475C42.6059 13.5 42.4915 13.6144 42.4915 13.7561V21.4031C42.4915 21.5456 42.6069 21.6601 42.7475 21.6601H46.7548C46.9909 21.6601 47.2132 21.7713 47.3548 21.9602L48.9642 24.1063C49.0666 24.2427 49.273 24.2427 49.3754 24.1063L50.9848 21.9602C51.1265 21.7713 51.3488 21.6601 51.5849 21.6601H55.2246C55.3652 21.6601 55.4806 21.5456 55.4806 21.4031V18.8541C55.4806 18.4398 55.8164 18.1041 56.2306 18.1041C56.6449 18.1041 56.9806 18.4398 56.9806 18.8541V21.4031C56.9806 22.3721 56.1956 23.1601 55.2246 23.1601H51.9599L50.5752 25.0067L50.5749 25.0071C49.8725 25.9425 48.4672 25.9425 47.7648 25.0071L47.7645 25.0067L46.6415 23.5092L46.3798 23.1601H45.5302H42.7475ZM44.2113 15.9699C44.2113 15.5557 44.5471 15.2199 44.9613 15.2199H53.0111C53.4253 15.2199 53.7611 15.5557 53.7611 15.9699C53.7611 16.3841 53.4253 16.7199 53.0111 16.7199H44.9613C44.5471 16.7199 44.2113 16.3841 44.2113 15.9699ZM13.2199 19.1897C13.2199 18.7755 13.5557 18.4397 13.9699 18.4397H18.1784C18.5926 18.4397 18.9284 18.7755 18.9284 19.1897C18.9284 19.604 18.5926 19.9397 18.1784 19.9397H13.9699C13.5557 19.9397 13.2199 19.604 13.2199 19.1897ZM44.2113 19.1897C44.2113 18.7755 44.5471 18.4397 44.9613 18.4397H49.1698C49.584 18.4397 49.9198 18.7755 49.9198 19.1897C49.9198 19.604 49.584 19.9397 49.1698 19.9397H44.9613C44.5471 19.9397 44.2113 19.604 44.2113 19.1897ZM56.8795 28.0892C57.1724 27.7963 57.6473 27.7963 57.9402 28.0892L60.7862 30.9353C61.0791 31.2282 61.0791 31.703 60.7862 31.9959L57.9402 34.842C57.6473 35.1349 57.1724 35.1349 56.8795 34.842C56.5866 34.5491 56.5866 34.0742 56.8795 33.7813L58.4452 32.2156H52.6795C52.3317 33.9376 50.81 35.2341 48.9855 35.2341C47.1609 35.2341 45.6393 33.9376 45.2915 32.2156H37.1853C36.8375 33.9376 35.3158 35.2341 33.4913 35.2341C31.6668 35.2341 30.1451 33.9376 29.7973 32.2156H21.6892C21.3414 33.9376 19.8197 35.2341 17.9952 35.2341C16.1707 35.2341 14.649 33.9376 14.3012 32.2156H10.75C10.3358 32.2156 10 31.8798 10 31.4656C10 31.0514 10.3358 30.7156 10.75 30.7156H14.3012C14.6488 28.9935 16.1706 27.6968 17.9952 27.6968C19.8198 27.6968 21.3416 28.9935 21.6893 30.7156H29.7973C30.1449 28.9935 31.6667 27.6968 33.4913 27.6968C35.3159 27.6968 36.8377 28.9935 37.1854 30.7156H45.2914C45.6391 28.9935 47.1608 27.6968 48.9855 27.6968C50.8101 27.6968 52.3318 28.9935 52.6795 30.7156H58.4452L56.8795 29.1499C56.5866 28.857 56.5866 28.3821 56.8795 28.0892ZM48.9855 33.7341C47.7426 33.7341 46.7332 32.7348 46.717 31.4958C46.7174 31.4858 46.7176 31.4757 46.7176 31.4656C46.7176 31.4555 46.7174 31.4454 46.717 31.4353C46.7331 30.1962 47.7426 29.1968 48.9855 29.1968C50.2384 29.1968 51.2541 30.2125 51.2541 31.4654C51.2541 32.7184 50.2384 33.7341 48.9855 33.7341ZM35.7594 31.4493C35.7595 31.4446 35.7596 31.4399 35.7598 31.4353C35.7437 30.1962 34.7342 29.1968 33.4913 29.1968C32.2384 29.1968 31.2227 30.2125 31.2227 31.4654C31.2227 32.7184 32.2384 33.7341 33.4913 33.7341C34.7341 33.7341 35.7435 32.7348 35.7598 31.4958C35.7594 31.4858 35.7592 31.4757 35.7592 31.4656C35.7592 31.4601 35.7592 31.4547 35.7594 31.4493ZM20.2635 31.4656C20.2635 31.4581 20.2636 31.4506 20.2638 31.4432C20.2518 30.2005 19.2407 29.1968 17.9952 29.1968C16.7423 29.1968 15.7266 30.2125 15.7266 31.4654C15.7266 32.7184 16.7423 33.7341 17.9952 33.7341C19.2407 33.7341 20.2517 32.7305 20.2638 31.4879C20.2636 31.4823 20.2635 31.4767 20.2635 31.471C20.2635 31.4692 20.2635 31.4674 20.2635 31.4656ZM31.902 37.9242C32.6044 36.9887 34.0087 36.9887 34.7111 37.9242L34.7113 37.9244L36.097 39.7711H39.7294C40.7004 39.7711 41.4854 40.5591 41.4854 41.5281V49.1752C41.4854 50.1452 40.6994 50.9312 39.7294 50.9312H37.515C37.1008 50.9312 36.765 50.5954 36.765 50.1812C36.765 49.767 37.1008 49.4312 37.515 49.4312H39.7294C39.871 49.4312 39.9854 49.3168 39.9854 49.1752V41.5281C39.9854 41.3856 39.87 41.2711 39.7294 41.2711H35.7221C35.4861 41.2711 35.2638 41.16 35.1222 40.9712L33.5117 38.8249C33.4092 38.6885 33.2038 38.6885 33.1014 38.8249L31.492 40.971C31.3504 41.1599 31.1281 41.2711 30.892 41.2711H27.2523C27.1116 41.2711 26.9962 41.3856 26.9962 41.5281V49.1752C26.9962 49.3168 27.1107 49.4312 27.2523 49.4312H34.0287C34.4429 49.4312 34.7787 49.767 34.7787 50.1812C34.7787 50.5954 34.4429 50.9312 34.0287 50.9312H27.2523C26.2822 50.9312 25.4962 50.1452 25.4962 49.1752V41.5281C25.4962 40.5591 26.2813 39.7711 27.2523 39.7711H30.517L31.9017 37.9246L31.902 37.9242ZM28.7156 43.7415C28.7156 43.3273 29.0514 42.9915 29.4656 42.9915H37.5153C37.9296 42.9915 38.2653 43.3273 38.2653 43.7415C38.2653 44.1557 37.9296 44.4915 37.5153 44.4915H29.4656C29.0514 44.4915 28.7156 44.1557 28.7156 43.7415ZM28.7156 46.9613C28.7156 46.5471 29.0514 46.2113 29.4656 46.2113H33.6741C34.0883 46.2113 34.4241 46.5471 34.4241 46.9613C34.4241 47.3756 34.0883 47.7113 33.6741 47.7113H29.4656C29.0514 47.7113 28.7156 47.3756 28.7156 46.9613ZM34.1779 54C34.9651 54 35.6039 54.6388 35.6039 55.426V55.9006H35.7757C38.3721 55.9006 40.3776 58.0829 40.3776 60.6542C40.3776 61.0324 40.2274 61.3951 39.96 61.6626C39.6925 61.93 39.3298 62.0802 38.9516 62.0802C38.5734 62.0802 38.2107 61.93 37.9433 61.6626C37.6759 61.3951 37.5256 61.0324 37.5256 60.6542C37.5256 59.5363 36.6792 58.7525 35.7757 58.7525H35.6039V62.9743L37.5279 63.6454C38.1976 63.885 38.9642 64.258 39.5357 64.9915C40.1198 65.7399 40.3582 66.6731 40.3582 67.7466C40.3582 70.0806 38.5512 72.0816 36.1749 72.0816H35.6039V72.5562C35.6039 72.9343 35.4537 73.2971 35.1863 73.5645C34.9188 73.8319 34.5561 73.9821 34.1779 73.9821C33.7997 73.9821 33.437 73.8319 33.1696 73.5645C32.9022 73.2971 32.752 72.9343 32.752 72.5562V72.0816H32.6008C30.0055 72.0816 28 69.8992 28 67.3279C28 66.9497 28.1502 66.587 28.4177 66.3196C28.6851 66.0521 29.0478 65.9019 29.426 65.9019C29.8042 65.9019 30.1669 66.0521 30.4343 66.3196C30.7017 66.587 30.852 66.9497 30.852 67.3279C30.852 68.4459 31.6985 69.2296 32.6008 69.2296H32.752V65.0006L30.8486 64.3367C30.1869 64.1006 29.418 63.7332 28.843 63.002C28.2555 62.2514 28.0183 61.3148 28.0183 60.2356C28.0183 57.9266 29.8196 55.9006 32.2015 55.9006H32.752V55.426C32.752 54.6388 33.3908 54 34.1779 54ZM32.2015 58.7525H32.752V61.9795L31.8011 61.6479C31.3437 61.4847 31.1725 61.349 31.087 61.2395C31.014 61.1482 30.8702 60.9064 30.8702 60.2356C30.8702 59.3503 31.5422 58.7525 32.2015 58.7525ZM35.6039 69.2296V65.9954L36.5753 66.3343C37.0248 66.4951 37.1994 66.632 37.2883 66.7461C37.3636 66.8442 37.5062 67.0895 37.5062 67.7466C37.5062 68.6444 36.8412 69.2296 36.1749 69.2296H35.6039Z" fill="url(#paint1_linear_3_6)"/>
<defs>
<linearGradient id="paint0_linear_3_6" x1="2.94286" y1="3.57627" x2="68.5968" y2="77.3588" gradientUnits="userSpaceOnUse">
<stop stop-color="white"/>
<stop offset="0.489583" stop-color="#D8E6F5"/>
<stop offset="1" stop-color="white"/>
</linearGradient>
<linearGradient id="paint1_linear_3_6" x1="10" y1="15.5" x2="35.542" y2="77.179" gradientUnits="userSpaceOnUse">
<stop stop-color="#3E96F4"/>
<stop offset="1" stop-color="#FE5B52"/>
</linearGradient>
</defs>
</svg>
