<svg width="70" height="78" viewBox="0 0 70 78" fill="none" xmlns="http://www.w3.org/2000/svg">
<rect x="1" y="1" width="68" height="76" rx="6" fill="url(#paint0_linear_3_7)" stroke="#3E96F4" stroke-miterlimit="10" stroke-linecap="round"/>
<path fill-rule="evenodd" clip-rule="evenodd" d="M14.2215 55.2511H31.8291V61.5042C31.8288 62.43 32.1959 63.318 32.8497 63.9734C33.5035 64.6288 34.3907 64.998 35.3165 65H51.02C51.9458 64.998 52.833 64.6288 53.4868 63.9734C54.1406 63.318 54.5077 62.43 54.5074 61.5042V55.2511H56.4114C57.5293 55.2485 58.6005 54.8026 59.3899 54.0112C60.1794 53.2197 60.6227 52.1474 60.6224 51.0295C60.6224 50.0387 60.622 50.7454 60.6219 50.9743L60.6218 51.039C60.6218 51.039 60.6218 50.947 60.6219 50.6858C60.6225 49.2696 60.6249 42.8806 60.6329 19.2215C60.6315 18.1023 60.1863 17.0294 59.3949 16.238C58.6035 15.4466 57.5306 15.0014 56.4114 15H14.2215C13.1037 15 12.0316 15.4433 11.2402 16.2327C10.4488 17.0221 10.0028 18.0932 10 19.211V51.0295C10.0014 52.1487 10.4466 53.2217 11.238 54.0131C12.0294 54.8044 13.1023 55.2497 14.2215 55.2511ZM33.9388 37.0633H52.3977V56.0084H33.9378L33.9388 37.0633ZM52.3977 34.9536H33.9378V31.3122C33.9378 30.5527 34.557 29.9346 35.3165 29.9346H51.02C51.7795 29.9346 52.3977 30.5527 52.3977 31.3122V34.9536ZM51.02 62.8903H35.3165C34.557 62.8903 33.9388 62.2679 33.9388 61.5042V58.1181H52.3977V61.5042C52.3977 62.269 51.7795 62.8903 51.02 62.8903ZM56.4114 53.1413H54.5074V31.3122C54.5063 30.3877 54.1385 29.5013 53.4847 28.8475C52.831 28.1938 51.9446 27.826 51.02 27.8249H35.3165C34.3919 27.826 33.5055 28.1938 32.8518 28.8475C32.198 29.5013 31.8302 30.3877 31.8291 31.3122V53.1413H14.2215C13.6616 53.1408 13.1248 52.9181 12.7289 52.5222C12.3329 52.1263 12.1103 51.5895 12.1097 51.0295V25.924H58.5127V51.0295C58.5132 51.588 58.2924 52.1238 57.8985 52.5197C57.5046 52.9156 56.9698 53.1391 56.4114 53.1413ZM12.1097 19.211C12.1119 18.6525 12.3355 18.1178 12.7313 17.7239C13.1272 17.33 13.6631 17.1091 14.2215 17.1097H56.4114C57.5654 17.1097 58.5127 18.0485 58.5127 19.211V23.8143H12.1097V19.211ZM54.8556 19.4073H41.9811C41.7013 19.4073 41.433 19.5184 41.2352 19.7163C41.0374 19.9141 40.9262 20.1824 40.9262 20.4622C40.9262 20.7419 41.0374 21.0102 41.2352 21.2081C41.433 21.4059 41.7013 21.517 41.9811 21.517H54.8556C55.1353 21.517 55.4036 21.4059 55.6015 21.2081C55.7993 21.0102 55.9104 20.7419 55.9104 20.4622C55.9104 20.1824 55.7993 19.9141 55.6015 19.7163C55.4036 19.5184 55.1353 19.4073 54.8556 19.4073ZM15.8303 19.3535C15.248 19.3535 14.7227 19.8799 14.7227 20.4611C14.7227 21.0423 15.248 21.5687 15.8303 21.5687C16.4125 21.5687 16.9378 21.0444 16.9378 20.4611C16.9378 19.8778 16.4136 19.3535 15.8303 19.3535ZM19.7786 19.3535C19.1963 19.3535 18.671 19.8799 18.671 20.4611C18.671 21.0423 19.1963 21.5687 19.7786 21.5687C20.3608 21.5687 20.8862 21.0444 20.8862 20.4611C20.8862 19.8778 20.3608 19.3535 19.7786 19.3535ZM23.7269 19.3535C23.1446 19.3535 22.6193 19.8799 22.6193 20.4611C22.6193 21.0423 23.1446 21.5687 23.7269 21.5687C24.3092 21.5687 24.8345 21.0444 24.8345 20.4611C24.8345 19.8778 24.3092 19.3535 23.7269 19.3535ZM44.3693 44.5951L42.344 46.3535L42.1151 46.0497C41.9436 45.8352 41.6952 45.6961 41.4227 45.6618C41.1502 45.6276 40.8751 45.7009 40.6559 45.8663C40.4367 46.0317 40.2906 46.2761 40.2487 46.5475C40.2068 46.8189 40.2724 47.096 40.4315 47.3198L41.3408 48.5255C41.4279 48.6411 41.5378 48.7376 41.6638 48.8089C41.7898 48.8802 41.9291 48.9248 42.0731 48.9399C42.2171 48.9551 42.3626 48.9404 42.5007 48.8969C42.6387 48.8533 42.7664 48.7818 42.8756 48.6869L45.7522 46.1879C45.8595 46.0979 45.9478 45.9875 46.012 45.863C46.0762 45.7385 46.1149 45.6025 46.126 45.4629C46.137 45.3233 46.1202 45.1828 46.0764 45.0498C46.0326 44.9168 45.9628 44.7938 45.8709 44.6881C45.7791 44.5823 45.6672 44.4959 45.5416 44.4339C45.416 44.3718 45.2794 44.3354 45.1396 44.3268C44.9998 44.3181 44.8597 44.3374 44.7275 44.3835C44.5952 44.4295 44.4734 44.5015 44.3693 44.5951ZM43.6942 31.4632H42.6393C42.3596 31.4632 42.0913 31.5744 41.8934 31.7722C41.6956 31.97 41.5845 32.2383 41.5845 32.5181C41.5845 32.7978 41.6956 33.0661 41.8934 33.264C42.0913 33.4618 42.3596 33.5729 42.6393 33.5729H43.6942C43.9739 33.5729 44.2422 33.4618 44.4401 33.264C44.6379 33.0661 44.749 32.7978 44.749 32.5181C44.749 32.2383 44.6379 31.97 44.4401 31.7722C44.2422 31.5744 43.9739 31.4632 43.6942 31.4632ZM42.9009 59.42C42.3176 59.42 41.7933 59.9463 41.7933 60.5286C41.7933 61.1109 42.3176 61.6362 42.9009 61.6362C43.4843 61.6362 44.0085 61.1109 44.0085 60.5286C44.0085 59.9463 43.4832 59.42 42.9009 59.42ZM37.9607 41.2063C39.343 39.824 41.2172 39.0465 43.172 39.0442C47.2321 39.0442 50.5349 42.3523 50.5349 46.4177C50.5349 50.4778 47.2321 53.7805 43.172 53.7805C39.1066 53.7805 35.7986 50.4778 35.7986 46.4177C35.8008 44.4628 36.5784 42.5886 37.9607 41.2063ZM37.9083 46.4177C37.9083 49.3143 40.2691 51.6708 43.172 51.6708C44.5647 51.6691 45.8999 51.1152 46.8847 50.1304C47.8695 49.1456 48.4235 47.8104 48.4252 46.4177C48.4252 43.5147 46.0686 41.1539 43.172 41.1539C41.7764 41.1553 40.4384 41.7104 39.4516 42.6972C38.4647 43.684 37.9097 45.0221 37.9083 46.4177ZM16.2638 28.2573H27.7912H27.7923C28.6414 28.2573 29.3324 28.9493 29.3324 29.7985V35.4599C29.3324 36.3101 28.6414 37.001 27.7912 37.001H16.2638C15.4136 37.001 14.7237 36.3101 14.7237 35.4599V29.7985C14.7237 28.9493 15.4136 28.2573 16.2638 28.2573ZM16.8324 34.8923H27.2227V30.367H16.8324V34.8923ZM15.7775 39.4039H28.2775C28.5573 39.4039 28.8256 39.5151 29.0234 39.7129C29.2212 39.9107 29.3324 40.179 29.3324 40.4588C29.3324 40.7386 29.2212 41.0069 29.0234 41.2047C28.8256 41.4025 28.5573 41.5137 28.2775 41.5137H15.7775C15.4977 41.5137 15.2294 41.4025 15.0316 41.2047C14.8338 41.0069 14.7227 40.7386 14.7227 40.4588C14.7227 40.179 14.8338 39.9107 15.0316 39.7129C15.2294 39.5151 15.4977 39.4039 15.7775 39.4039ZM15.7775 43.9894H28.2775C28.5573 43.9894 28.8256 44.1005 29.0234 44.2984C29.2212 44.4962 29.3324 44.7645 29.3324 45.0442C29.3324 45.324 29.2212 45.5923 29.0234 45.7901C28.8256 45.988 28.5573 46.0991 28.2775 46.0991H15.7775C15.4977 46.0991 15.2294 45.988 15.0316 45.7901C14.8338 45.5923 14.7227 45.324 14.7227 45.0442C14.7227 44.7645 14.8338 44.4962 15.0316 44.2984C15.2294 44.1005 15.4977 43.9894 15.7775 43.9894ZM15.7775 48.5759H28.2775C28.5573 48.5759 28.8256 48.687 29.0234 48.8848C29.2212 49.0827 29.3324 49.351 29.3324 49.6307C29.3324 49.9105 29.2212 50.1788 29.0234 50.3766C28.8256 50.5745 28.5573 50.6856 28.2775 50.6856H15.7775C15.4977 50.6856 15.2294 50.5745 15.0316 50.3766C14.8338 50.1788 14.7227 49.9105 14.7227 49.6307C14.7227 49.351 14.8338 49.0827 15.0316 48.8848C15.2294 48.687 15.4977 48.5759 15.7775 48.5759Z" fill="url(#paint1_linear_3_7)"/>
<defs>
<linearGradient id="paint0_linear_3_7" x1="2.94286" y1="3.57627" x2="68.5968" y2="77.3588" gradientUnits="userSpaceOnUse">
<stop stop-color="white"/>
<stop offset="0.489583" stop-color="#D8E6F5"/>
<stop offset="1" stop-color="white"/>
</linearGradient>
<linearGradient id="paint1_linear_3_7" x1="10" y1="15" x2="59.996" y2="65.6289" gradientUnits="userSpaceOnUse">
<stop stop-color="#3E96F4"/>
<stop offset="1" stop-color="#FE5B52"/>
</linearGradient>
</defs>
</svg>
