<svg width="70" height="78" viewBox="0 0 70 78" fill="none" xmlns="http://www.w3.org/2000/svg">
<rect x="1" y="1" width="68" height="76" rx="6" fill="url(#paint0_linear_3_4)" stroke="#3E96F4" stroke-miterlimit="10" stroke-linecap="round"/>
<path fill-rule="evenodd" clip-rule="evenodd" d="M31.6443 14L38.7189 14V21.0746H31.6443V14ZM29.6443 14C29.6443 12.8954 30.5397 12 31.6443 12H38.7189C39.8235 12 40.7189 12.8954 40.7189 14V21.0746C40.7189 22.1792 39.8235 23.0746 38.7189 23.0746H35.6357V27.321H43.0462H43.5462V27.821V33.3582H46.1643C47.2689 33.3582 48.1643 34.2536 48.1643 35.3582V42.4328C48.1643 43.5374 47.2689 44.4328 46.1643 44.4328H43.5457V48.2836H49.7695H50.2695V48.7836V53.9254H53.1446C54.2492 53.9254 55.1446 54.8208 55.1446 55.9254V63C55.1446 64.1046 54.2492 65 53.1446 65H46.07C44.9654 65 44.07 64.1046 44.07 63V55.9254C44.07 54.8208 44.9654 53.9254 46.07 53.9254H49.2695V49.2836H43.0457H36.4263V53.9254H39.1839C40.2885 53.9254 41.1839 54.8208 41.1839 55.9254V63C41.1839 64.1046 40.2885 65 39.1839 65H32.1093C31.0047 65 30.1093 64.1046 30.1093 63V55.9254C30.1093 54.8208 31.0047 53.9254 32.1093 53.9254H35.4263V48.7836V48.2836H35.9263H42.5457V44.4328H39.0897C37.9851 44.4328 37.0897 43.5374 37.0897 42.4328V35.3582C37.0897 34.2536 37.9851 33.3582 39.0897 33.3582H42.5462V28.321H35.1357H28.9119V33.3582H31.7385C32.8431 33.3582 33.7385 34.2536 33.7385 35.3582V42.4328C33.7385 43.5374 32.8431 44.4328 31.7385 44.4328H28.7532L22.7764 53.9254H25.2248C26.3293 53.9254 27.2248 54.8208 27.2248 55.9254V63C27.2248 64.1046 26.3293 65 25.2248 65H18.1501C17.0456 65 16.1501 64.1046 16.1501 63V55.9254C16.1501 54.8208 17.0456 53.9254 18.1501 53.9254H21.5947L27.5715 44.4328H24.6639C23.5593 44.4328 22.6639 43.5374 22.6639 42.4328V35.3582C22.6639 34.2536 23.5593 33.3582 24.6639 33.3582H27.9119V27.821V27.321H28.4119H34.6357V23.0746H31.6443C30.5397 23.0746 29.6443 22.1792 29.6443 21.0746V14ZM24.6639 35.3582H31.7385V42.4328H24.6639V35.3582ZM25.2248 55.9254H18.1501L18.1501 63H25.2248V55.9254ZM32.1093 55.9254H39.1839V63H32.1093V55.9254ZM53.1446 55.9254H46.07V63H53.1446V55.9254ZM39.0897 35.3582H46.1643V42.4328H39.0897V35.3582Z" fill="url(#paint1_linear_3_4)"/>
<defs>
<linearGradient id="paint0_linear_3_4" x1="2.94286" y1="3.57627" x2="68.5968" y2="77.3588" gradientUnits="userSpaceOnUse">
<stop stop-color="white"/>
<stop offset="0.489583" stop-color="#D8E6F5"/>
<stop offset="1" stop-color="white"/>
</linearGradient>
<linearGradient id="paint1_linear_3_4" x1="16.1501" y1="12" x2="66.7489" y2="49.2278" gradientUnits="userSpaceOnUse">
<stop stop-color="#3E96F4"/>
<stop offset="1" stop-color="#FE5B52"/>
</linearGradient>
</defs>
</svg>
