<svg width="50" height="50" viewBox="0 0 50 50" fill="none" xmlns="http://www.w3.org/2000/svg">
<path d="M3.14052 25C1.77915 22.6466 1 19.9143 1 17C1 8.16344 8.16344 1 17 1C24.5398 1 30.8616 6.21531 32.5546 13.2353" stroke="#3DA4C2" stroke-width="2"/>
<path d="M25.4644 2.88235C27.71 1.68111 30.2757 1 33.0005 1C41.837 1 49.0005 8.16344 49.0005 17C49.0005 24.503 43.836 30.7997 36.868 32.5294" stroke="#3DA4C2" stroke-width="2"/>
<path d="M46.8599 25C48.2212 27.3534 49.0004 30.0857 49.0004 33C49.0004 41.8366 41.8369 49 33.0004 49C25.4605 49 19.1388 43.7847 17.4458 36.7647" stroke="#3DA4C2" stroke-width="2"/>
<path d="M25.4706 46.5763C23.0141 48.1122 20.1107 48.9999 17 48.9999C8.16344 48.9999 1 41.8364 1 32.9999C1 25.46 6.21531 19.1383 13.2353 17.4453" stroke="#3DA4C2" stroke-width="2"/>
<path d="M36.7646 17H48.9999" stroke="#3DA4C2" stroke-width="2"/>
<path d="M13.2353 33H1" stroke="#3DA4C2" stroke-width="2"/>
<path d="M21.2353 17H29.2353M17 20.7647V29.2353M20.7647 33H29.2353M33 29.2353V20.7647" stroke="#3DA4C2" stroke-width="2"/>
<path d="M17 1V13.2353" stroke="#3DA4C2" stroke-width="2"/>
<path d="M33 36.7646L33 48.9999" stroke="#3DA4C2" stroke-width="2"/>
<circle cx="17.0001" cy="17.0001" r="3.76471" stroke="#3DA4C2" stroke-width="2"/>
<circle cx="33.0001" cy="17.0001" r="3.76471" stroke="#3DA4C2" stroke-width="2"/>
<circle cx="33.0001" cy="33.0001" r="3.76471" stroke="#3DA4C2" stroke-width="2"/>
<circle cx="17.0001" cy="33.0001" r="3.76471" stroke="#3DA4C2" stroke-width="2"/>
</svg>
