<svg width="36" height="36" viewBox="0 0 36 36" fill="none" xmlns="http://www.w3.org/2000/svg">
<g clip-path="url(#clip0_2553_4967)">
<path fill-rule="evenodd" clip-rule="evenodd" d="M15.1825 33.598C15.1825 34.59 16.0108 35.3999 17.0278 35.3999H18.3612C19.378 35.3999 20.2064 34.59 20.2064 33.598V33.463C20.584 33.3417 20.9516 33.1931 21.3064 33.0186L21.3999 33.1095L21.4017 33.1112C22.1214 33.8152 23.2933 33.8119 24.0118 33.1114L24.0125 33.1106L24.9506 32.1939L24.9523 32.1923C25.6744 31.4903 25.6712 30.3467 24.9525 29.6458L24.8581 29.5539C25.0354 29.211 25.1864 28.8559 25.31 28.4914H25.444C26.4601 28.4914 27.2913 27.6843 27.2913 26.6916V25.3914C27.2913 24.3988 26.4602 23.5916 25.444 23.5916H25.3153C25.1907 23.2223 25.0378 22.8625 24.8581 22.5155L24.9506 22.4249L24.9524 22.4232C25.6744 21.7212 25.6711 20.5777 24.9525 19.8768L24.0118 18.9595C23.2934 18.2591 22.1216 18.2557 21.4019 18.9595L21.3999 18.9615L21.3063 19.0524C20.9465 18.8752 20.5708 18.7232 20.1817 18.5994V18.4849C20.1817 17.4916 19.3519 16.6831 18.3343 16.6831H17.0029C15.9826 16.6831 15.1577 17.4943 15.1577 18.4849V18.6178C14.7824 18.7403 14.417 18.8896 14.0643 19.0647L13.9766 18.9796L13.9747 18.9777C13.255 18.2738 12.0832 18.2772 11.3647 18.9776L10.4241 19.8949C9.70548 20.5958 9.70206 21.7393 10.4241 22.4413L10.426 22.4431L10.5247 22.5397C10.3503 22.8792 10.2017 23.2309 10.08 23.5916H9.94488C8.9262 23.5916 8.09961 24.4013 8.09961 25.3914V26.6916C8.09961 27.6817 8.92625 28.4914 9.94488 28.4914H10.083C10.2068 28.8558 10.358 29.2109 10.5355 29.5535L10.4418 29.6447L10.4388 29.6476C9.72393 30.3486 9.72123 31.4906 10.4406 32.1921L11.3825 33.1106C12.1023 33.8152 13.2745 33.8122 13.9933 33.1114L14.0884 33.0186C14.4388 33.1908 14.8043 33.3393 15.1825 33.461V33.598ZM17.0496 33.5783V32.7696C17.0496 32.344 16.7475 31.9751 16.322 31.8813C15.643 31.7314 15.0023 31.4676 14.4239 31.1145C14.0554 30.8894 13.5762 30.9424 13.2687 31.2424L12.6883 31.8085L11.7762 30.919L12.3569 30.3547C12.6665 30.0538 12.7207 29.5836 12.4874 29.2231C12.12 28.6557 11.854 28.0316 11.7005 27.3774C11.6034 26.9634 11.2258 26.6699 10.7905 26.6699H9.96675V25.4132H10.7884C11.2242 25.4132 11.602 25.119 11.6987 24.7045C11.8505 24.0536 12.1131 23.4322 12.4754 22.8661C12.7054 22.5069 12.6511 22.0404 12.3446 21.7406L11.7595 21.1681L12.6697 20.2806L13.2492 20.8437C13.5582 21.144 14.0392 21.1956 14.4076 20.9678C14.9906 20.6075 15.6314 20.3454 16.3035 20.1923C16.7259 20.0961 17.0248 19.7286 17.0248 19.3054V18.5047H18.3145V19.2933C18.3145 19.72 18.6182 20.0895 19.0451 20.1823C19.7355 20.3323 20.3832 20.5978 20.9683 20.9559C21.3364 21.1811 21.8152 21.1288 22.1231 20.8296L22.7068 20.2625L23.617 21.15L23.036 21.7184C22.7285 22.0193 22.675 22.4876 22.9073 22.8472C23.2762 23.4182 23.5431 24.0461 23.6964 24.7043C23.7931 25.119 24.1709 25.4132 24.6068 25.4132H25.4242V26.6699H24.6026C24.1674 26.6699 23.7899 26.9632 23.6926 27.377C23.5388 28.0315 23.2732 28.6562 22.9068 29.2245C22.6748 29.5845 22.7289 30.0531 23.0372 30.3536L23.617 30.919L22.7068 31.8085L22.1231 31.2412C21.815 30.9417 21.3355 30.8896 20.9674 31.1156C20.3825 31.4745 19.7397 31.734 19.066 31.8834C18.6409 31.9777 18.3394 32.3464 18.3394 32.7716V33.5783H17.0496Z" fill="#3DA4C2"/>
<path fill-rule="evenodd" clip-rule="evenodd" d="M13.002 26.0425C13.002 28.5703 15.1037 30.6181 17.6961 30.6181C20.2868 30.6181 22.3881 28.5699 22.3881 26.0425C22.3881 23.5134 20.2872 21.4648 17.6961 21.4648C15.1034 21.4648 13.002 23.5131 13.002 26.0425ZM17.6961 28.7966C16.1332 28.7966 14.8691 27.5627 14.8691 26.0425C14.8691 24.5201 16.1336 23.2864 17.6961 23.2864C19.2562 23.2864 20.5211 24.5198 20.5211 26.0425C20.5211 27.5631 19.2566 28.7966 17.6961 28.7966Z" fill="#3DA4C2"/>
<path fill-rule="evenodd" clip-rule="evenodd" d="M0 5.26829C0 2.35869 2.41766 0 5.4 0H30.6C33.5823 0 36 2.35869 36 5.26829V21.5122C36 24.4218 33.5823 26.7805 30.6 26.7805H29.25C28.7529 26.7805 28.35 26.3874 28.35 25.9024C28.35 25.4175 28.7529 25.0244 29.25 25.0244H30.6C32.5882 25.0244 34.2 23.4519 34.2 21.5122V5.26829C34.2 3.32856 32.5882 1.7561 30.6 1.7561H5.4C3.41177 1.7561 1.8 3.32856 1.8 5.26829V21.5122C1.8 23.4519 3.41177 25.0244 5.4 25.0244H6.75C7.24705 25.0244 7.65 25.4175 7.65 25.9024C7.65 26.3874 7.24705 26.7805 6.75 26.7805H5.4C2.41766 26.7805 0 24.4218 0 21.5122V5.26829Z" fill="#3DA4C2"/>
<path fill-rule="evenodd" clip-rule="evenodd" d="M34.2008 8.78051H1.80078V7.02441H34.2008V8.78051Z" fill="#3DA4C2"/>
<path d="M5.39961 4.39026C5.39961 4.87518 4.99666 5.2683 4.49961 5.2683C4.00256 5.2683 3.59961 4.87518 3.59961 4.39026C3.59961 3.90533 4.00256 3.51221 4.49961 3.51221C4.99666 3.51221 5.39961 3.90533 5.39961 4.39026Z" fill="#3DA4C2"/>
<path d="M8.10078 4.39026C8.10078 4.87518 7.69784 5.2683 7.20078 5.2683C6.70373 5.2683 6.30078 4.87518 6.30078 4.39026C6.30078 3.90533 6.70373 3.51221 7.20078 3.51221C7.69784 3.51221 8.10078 3.90533 8.10078 4.39026Z" fill="#3DA4C2"/>
<path d="M10.8 4.39026C10.8 4.87518 10.3971 5.2683 9.9 5.2683C9.40293 5.2683 9 4.87518 9 4.39026C9 3.90533 9.40293 3.51221 9.9 3.51221C10.3971 3.51221 10.8 3.90533 10.8 4.39026Z" fill="#3DA4C2"/>
<path d="M13.5 4.39026C13.5 3.90533 13.9029 3.51221 14.4 3.51221H31.5C31.9971 3.51221 32.4 3.90533 32.4 4.39026C32.4 4.87518 31.9971 5.2683 31.5 5.2683H14.4C13.9029 5.2683 13.5 4.87518 13.5 4.39026Z" fill="#3DA4C2"/>
</g>
<defs>
<clipPath id="clip0_2553_4967">
<rect width="36" height="36" fill="white"/>
</clipPath>
</defs>
</svg>
