<svg width="36" height="36" viewBox="0 0 36 36" fill="none" xmlns="http://www.w3.org/2000/svg">
<g clip-path="url(#clip0_2565_3158)">
<path fill-rule="evenodd" clip-rule="evenodd" d="M0 5.4C0 2.41766 2.41766 0 5.4 0H30.6C33.5823 0 36 2.41766 36 5.4V22.05C36 25.0323 33.5823 27.45 30.6 27.45H29.25C28.7529 27.45 28.35 27.0471 28.35 26.55C28.35 26.0529 28.7529 25.65 29.25 25.65H30.6C32.5882 25.65 34.2 24.0382 34.2 22.05V5.4C34.2 3.41177 32.5882 1.8 30.6 1.8H5.4C3.41177 1.8 1.8 3.41177 1.8 5.4V22.05C1.8 24.0382 3.41177 25.65 5.4 25.65H6.75C7.24705 25.65 7.65 26.0529 7.65 26.55C7.65 27.0471 7.24705 27.45 6.75 27.45H5.4C2.41766 27.45 0 25.0323 0 22.05V5.4Z" fill="#3DA4C2"/>
<path fill-rule="evenodd" clip-rule="evenodd" d="M34.2008 8.99995H1.80078V7.19995H34.2008V8.99995Z" fill="#3DA4C2"/>
<path d="M5.39961 4.49998C5.39961 4.99703 4.99666 5.39998 4.49961 5.39998C4.00256 5.39998 3.59961 4.99703 3.59961 4.49998C3.59961 4.00292 4.00256 3.59998 4.49961 3.59998C4.99666 3.59998 5.39961 4.00292 5.39961 4.49998Z" fill="#3DA4C2"/>
<path d="M8.10078 4.49998C8.10078 4.99703 7.69784 5.39998 7.20078 5.39998C6.70373 5.39998 6.30078 4.99703 6.30078 4.49998C6.30078 4.00292 6.70373 3.59998 7.20078 3.59998C7.69784 3.59998 8.10078 4.00292 8.10078 4.49998Z" fill="#3DA4C2"/>
<path d="M10.8 4.49998C10.8 4.99703 10.3971 5.39998 9.9 5.39998C9.40293 5.39998 9 4.99703 9 4.49998C9 4.00292 9.40293 3.59998 9.9 3.59998C10.3971 3.59998 10.8 4.00292 10.8 4.49998Z" fill="#3DA4C2"/>
<path d="M13.5 4.49998C13.5 4.00292 13.9029 3.59998 14.4 3.59998H31.5C31.9971 3.59998 32.4 4.00292 32.4 4.49998C32.4 4.99703 31.9971 5.39998 31.5 5.39998H14.4C13.9029 5.39998 13.5 4.99703 13.5 4.49998Z" fill="#3DA4C2"/>
<path fill-rule="evenodd" clip-rule="evenodd" d="M13.9506 36H21.2143V24.3637H25.5596C25.9606 24.3637 26.1614 23.8789 25.8779 23.5954L18.2189 15.9364C17.8673 15.585 17.2975 15.585 16.946 15.9364L9.28701 23.5954C9.00351 23.8789 9.2043 24.3637 9.60525 24.3637H13.9506V36ZM12.8644 22.5637H15.7506V34.2001H19.4143V22.5637H22.3005L17.5825 17.8456L12.8644 22.5637Z" fill="#3DA4C2"/>
</g>
<defs>
<clipPath id="clip0_2565_3158">
<rect width="36" height="36" fill="white"/>
</clipPath>
</defs>
</svg>
