<svg width="70" height="78" viewBox="0 0 70 78" fill="none" xmlns="http://www.w3.org/2000/svg">
<rect x="1" y="1" width="68" height="76" rx="6" fill="url(#paint0_linear_3_3)" stroke="#3E96F4" stroke-miterlimit="10" stroke-linecap="round"/>
<path fill-rule="evenodd" clip-rule="evenodd" d="M23.2005 20.0739L21.1758 22.1795L17.2076 18.4542L16 19.7825L16 16.7936L24.6984 16.7937V18.5135L23.2005 20.0739ZM26.6706 16.4592C26.5114 15.5138 25.689 14.7937 24.6984 14.7937H16C14.8954 14.7937 14 15.6891 14 16.7936V25.4921C14 26.5966 14.8954 27.4921 16 27.4921H24.6984C25.803 27.4921 26.6984 26.5966 26.6984 25.4921V19.8722L30.732 15.7007L29.0314 14L26.6706 16.4592ZM24.6984 21.9406L21.2643 25.4921L24.6984 25.4921L24.6984 21.9406ZM21.2485 25.4921L16 25.4921L16 20.6185L21.2485 25.4921ZM23.2005 38.3278L21.1758 40.4334L17.2076 36.7081L16 38.0364L16 35.0476L24.6984 35.0476V36.7674L23.2005 38.3278ZM21.2485 43.746L16 38.8724L16 43.746H21.2485ZM24.6984 43.746H21.2643L24.6984 40.1945L24.6984 43.746ZM26.6984 43.746V38.1261L30.732 33.9546L29.0314 32.2539L26.6706 34.7131C26.5114 33.7678 25.689 33.0476 24.6984 33.0476H16C14.8954 33.0476 14 33.943 14 35.0476V43.746C14 44.8506 14.8954 45.746 16 45.746H24.6984C25.803 45.746 26.6984 44.8506 26.6984 43.746ZM16 53.3016L24.6984 53.3016L24.6984 62H16L16 53.3016ZM14 53.3016C14 52.197 14.8954 51.3016 16 51.3016H24.6984C25.803 51.3016 26.6984 52.197 26.6984 53.3016V62C26.6984 63.1046 25.803 64 24.6984 64H16C14.8954 64 14 63.1046 14 62V53.3016ZM46.5397 19.5556L32.254 19.5556V17.1746L46.5397 17.1746V19.5556ZM32.254 37.8095L53.6825 37.8095L53.6825 35.4286L32.254 35.4286V37.8095ZM42.5714 56.0635H32.254V53.6825H42.5714V56.0635ZM32.254 25.1111L60.0317 25.1111V22.7302L32.254 22.7302V25.1111ZM46.5397 43.3651H32.254V40.9841L46.5397 40.9841V43.3651ZM32.254 61.619H56.8571V59.2381H32.254V61.619Z" fill="url(#paint1_linear_3_3)"/>
<defs>
<linearGradient id="paint0_linear_3_3" x1="2.94286" y1="3.57627" x2="68.5968" y2="77.3588" gradientUnits="userSpaceOnUse">
<stop stop-color="white"/>
<stop offset="0.489583" stop-color="#D8E6F5"/>
<stop offset="1" stop-color="white"/>
</linearGradient>
<linearGradient id="paint1_linear_3_3" x1="14" y1="14" x2="63.8295" y2="59.8748" gradientUnits="userSpaceOnUse">
<stop stop-color="#3E96F4"/>
<stop offset="1" stop-color="#FE5B52"/>
</linearGradient>
</defs>
</svg>
