<svg width="20" height="24" viewBox="0 0 20 24" fill="none" xmlns="http://www.w3.org/2000/svg">
<path d="M9.28929 10.0677V14.4942L5.41417 12.2809V7.85437L9.28929 10.0677Z" fill="#3E96F4"/>
<path d="M14.5859 12.2809L10.7108 14.4942V10.0677L14.5859 7.85437V12.2809Z" fill="#3E96F4"/>
<path d="M13.8752 6.63658L10 8.84982L6.12488 6.63658L10 4.42325L13.8752 6.63658Z" fill="#3E96F4"/>
<path fill-rule="evenodd" clip-rule="evenodd" d="M9.97025 6.6737e-05C12.6422 -0.00954188 15.1602 1.01872 17.0575 2.89025C18.955 4.76182 20 7.24868 20 9.89261C20 11.7504 19.4838 13.6436 18.4657 15.5196C17.6649 16.995 16.5528 18.4635 15.1602 19.8843C12.8057 22.2865 10.0107 24 10.0107 24C10.0039 23.9958 7.20731 22.284 4.85051 19.8834C3.45487 18.4618 2.34025 16.9921 1.53776 15.5153C0.517344 13.6375 0 11.7421 0 9.88171C8.36572e-06 4.44891 4.47267 0.0160511 9.97025 6.6737e-05ZM3.99261 6.23059V13.0928L10 16.5239L16.0074 13.0928V6.23064L10 2.79952L3.99261 6.23059Z" fill="#3E96F4"/>
</svg>
