<svg width="42" height="42" viewBox="0 0 42 42" fill="none" xmlns="http://www.w3.org/2000/svg">
<path d="M6.14385 6.15668L6.60807 5.69246L16.3993 15.4837L15.9351 15.9479C14.5888 17.2941 13.8459 19.1508 13.8455 21.0073C13.8451 22.9567 14.6338 24.7666 15.9795 26.1123C17.3252 27.458 19.1352 28.1539 20.9917 28.1535L21.6415 28.1534L21.6388 41.9844L20.989 41.9846C9.38576 41.9868 0.0121755 32.6133 0.014443 21.01C-0.0772944 15.4405 2.15156 10.149 6.14385 6.15668ZM14.5428 15.484L6.60771 7.54898C3.12602 11.2163 1.26858 15.9508 1.314 21.0098C1.31192 31.6847 9.75739 40.3159 20.3395 40.6851L20.3417 29.4532C18.3459 29.3144 16.4896 28.4793 15.0511 27.0408C13.4269 25.4166 12.5455 23.3282 12.5459 21.0076C12.5463 18.9654 13.2893 17.0159 14.5428 15.484ZM20.3474 0.0273961L20.9972 0.0272691C26.5668 -0.0666451 31.8574 2.16014 35.8481 6.15088L36.3122 6.61491L26.5171 16.41L26.0531 15.9459C24.7074 14.6002 22.851 13.858 20.9945 13.8583L20.3447 13.8585L20.3474 0.0273961ZM34.4557 6.61528C30.9289 3.27423 26.4272 1.46501 21.6467 1.3267L21.6445 12.5586C23.4546 12.6975 25.1717 13.3934 26.5175 14.5534L34.4557 6.61528Z" fill="#3E96F4"/>
<path d="M5.67963 6.6209L6.14385 6.15668C10.1361 2.16439 15.4277 -0.0644683 20.9972 0.0272691L21.647 0.0271408L21.6443 13.8582L20.9945 13.8583C19.138 13.8587 17.2813 14.6017 15.9351 15.9479L15.4708 16.4121L5.67963 6.6209ZM20.3472 1.32696C15.5666 1.46713 11.0642 3.27812 7.53615 6.62054L15.4712 14.5556C16.8174 13.395 18.5348 12.6985 20.345 12.5589L20.3472 1.32696ZM25.5891 15.4819L35.3841 5.68684L35.8481 6.15088C39.8389 10.1416 42.0657 15.4322 41.9717 21.0018L41.9716 21.6516L28.1406 21.6543L28.1407 21.0045C28.1411 19.148 27.3988 17.2916 26.0531 15.9459L25.5891 15.4819ZM35.3837 7.54335L27.4456 15.4815C28.6056 16.8273 29.3015 18.5444 29.4404 20.3545L40.6723 20.3523C40.534 15.5718 38.6784 11.1165 35.3837 7.54335Z" fill="#3E96F4"/>
<path d="M28.1397 20.3559L41.9708 20.3531L41.9706 21.0029C41.9696 26.5725 39.7871 31.9104 35.8412 35.8563C31.8954 39.8021 26.6039 42.031 20.9879 41.9857L20.3381 41.9858L20.3408 28.1548L20.9906 28.1546C22.8935 28.2007 24.7038 27.4113 26.05 26.0651C27.3963 24.7188 28.1392 22.955 28.1396 21.0056L28.1397 20.3559ZM26.9781 26.9931C25.539 28.4322 23.6359 29.3144 21.6401 29.4541L21.6379 40.686C26.6506 40.4994 31.3387 38.5027 34.9132 34.9282C38.4877 31.3537 40.4843 26.6656 40.671 21.653L29.439 21.6552C29.2994 23.6509 28.4172 25.554 26.9781 26.9931Z" fill="#3E96F4"/>
</svg>
