<svg width="92" height="92" viewBox="0 0 92 92" fill="none" xmlns="http://www.w3.org/2000/svg">
<g filter="url(#filter0_d_0_418)">
<circle cx="42" cy="42" r="42" transform="matrix(1 0 0 -1 4 88)" fill="url(#paint0_radial_0_418)"/>
</g>
<path fill-rule="evenodd" clip-rule="evenodd" d="M35.836 21C36.3883 21 36.836 21.4477 36.836 22V31.0225C41.4503 31.2246 44.291 32.816 45.878 34.9697C47.5462 37.2337 47.6781 39.919 47.3019 41.7061C47.188 42.2464 46.6577 42.5923 46.1173 42.4785C45.577 42.3646 45.2311 41.8343 45.3448 41.2939C45.6352 39.9144 45.5171 37.8496 44.2687 36.1553C43.1409 34.6248 40.9583 33.2216 36.836 33.0244V45.5244C40.6615 45.698 43.243 46.8552 44.9024 48.3916C46.6893 50.0461 47.3233 52.0651 47.3233 53.5C47.403 55.0055 46.8821 57.1321 45.1417 58.8906C43.4949 60.5545 40.8497 61.7969 36.836 61.9756V70C36.836 70.5523 36.3883 71 35.836 71C35.2838 70.9999 34.836 70.5522 34.836 70V61.9756C30.8023 61.7887 28.2055 60.4531 26.6505 58.6533C24.9956 56.7377 24.6463 54.4409 24.8419 52.876C24.9104 52.3282 25.4103 51.9397 25.9581 52.0078C26.5061 52.0763 26.8957 52.576 26.8272 53.124C26.6896 54.2256 26.9394 55.9291 28.1642 57.3467C29.2677 58.6237 31.2723 59.7893 34.836 59.9717V47.4756C31.0231 47.3054 28.5565 46.1464 27.0685 44.5586C25.4953 42.8797 25.1435 40.8553 25.3253 39.4326C25.3384 37.794 25.7591 35.6736 27.3399 33.9492C28.828 32.3262 31.2119 31.1979 34.836 31.0254V22C34.836 21.4477 35.2838 21.0001 35.836 21ZM36.836 59.9727C40.4166 59.7976 42.5185 58.699 43.7208 57.4844C45.0479 56.1435 45.3898 54.5565 45.3253 53.5654L45.3233 53.5322V53.5C45.3233 52.6016 44.9072 51.1206 43.544 49.8584C42.3134 48.7191 40.2392 47.6974 36.836 47.5273V59.9727ZM34.836 33.0283C31.6497 33.1966 29.844 34.1781 28.8145 35.3008C27.7382 36.4748 27.3714 37.9508 27.3282 39.2451L27.3233 39.501V39.5713L27.3136 39.6416C27.184 40.5489 27.3961 41.9831 28.5284 43.1914C29.5535 44.2851 31.4445 45.3059 34.836 45.4727V33.0283Z" fill="url(#paint1_linear_0_418)"/>
<path d="M62.336 49C62.8883 49 63.336 49.4477 63.336 50V60H68.1095L62.336 70L56.5626 60H61.336V50C61.336 49.4477 61.7838 49.0001 62.336 49Z" fill="url(#paint2_linear_0_418)"/>
<path d="M68.1212 31H63.3478V41C63.3478 41.5523 62.9 42 62.3478 42C61.7955 41.9999 61.3478 41.5522 61.3478 41V31H56.5743L62.3478 21L68.1212 31Z" fill="url(#paint3_linear_0_418)"/>
<defs>
<filter id="filter0_d_0_418" x="0" y="0" width="92" height="92" filterUnits="userSpaceOnUse" color-interpolation-filters="sRGB">
<feFlood flood-opacity="0" result="BackgroundImageFix"/>
<feColorMatrix in="SourceAlpha" type="matrix" values="0 0 0 0 0 0 0 0 0 0 0 0 0 0 0 0 0 0 127 0" result="hardAlpha"/>
<feOffset/>
<feGaussianBlur stdDeviation="2"/>
<feComposite in2="hardAlpha" operator="out"/>
<feColorMatrix type="matrix" values="0 0 0 0 0.0747504 0 0 0 0 0.360452 0 0 0 0 0.665634 0 0 0 0.2 0"/>
<feBlend mode="normal" in2="BackgroundImageFix" result="effect1_dropShadow_0_418"/>
<feBlend mode="normal" in="SourceGraphic" in2="effect1_dropShadow_0_418" result="shape"/>
</filter>
<radialGradient id="paint0_radial_0_418" cx="0" cy="0" r="1" gradientUnits="userSpaceOnUse" gradientTransform="translate(42 42) rotate(90) scale(42)">
<stop offset="0.546875" stop-color="white"/>
<stop offset="1" stop-color="white"/>
</radialGradient>
<linearGradient id="paint1_linear_0_418" x1="68.468" y1="71.0808" x2="30.4898" y2="32.6182" gradientUnits="userSpaceOnUse">
<stop stop-color="#31393C"/>
<stop offset="1" stop-color="#3D96F5"/>
</linearGradient>
<linearGradient id="paint2_linear_0_418" x1="68.468" y1="71.0808" x2="30.4898" y2="32.6182" gradientUnits="userSpaceOnUse">
<stop stop-color="#31393C"/>
<stop offset="1" stop-color="#3D96F5"/>
</linearGradient>
<linearGradient id="paint3_linear_0_418" x1="68.468" y1="71.0808" x2="30.4898" y2="32.6182" gradientUnits="userSpaceOnUse">
<stop stop-color="#31393C"/>
<stop offset="1" stop-color="#3D96F5"/>
</linearGradient>
</defs>
</svg>
