<svg width="39" height="42" viewBox="0 0 39 42" fill="none" xmlns="http://www.w3.org/2000/svg">
<path fill-rule="evenodd" clip-rule="evenodd" d="M10.5624 32.8454C4.36292 30.2892 0 24.1867 0 17.0638C0 7.63875 7.63866 0 17.0637 0C26.4888 0 34.1274 7.63875 34.1274 17.0638C34.1274 17.824 34.0777 18.5726 33.9814 19.3066L37.261 18.6893C37.3693 18.6689 37.481 18.6753 37.5863 18.7078C37.6916 18.7404 37.7874 18.7981 37.8653 18.8761C37.9432 18.954 38.0009 19.0498 38.0335 19.1551C38.066 19.2604 38.0724 19.3721 38.052 19.4804L36.5373 27.5283C36.5146 27.6494 36.4591 27.762 36.3771 27.854C36.295 27.946 36.1894 28.0138 36.0716 28.0502C35.9538 28.0866 35.8284 28.0902 35.7087 28.0605C35.5891 28.0309 35.4798 27.9691 35.3926 27.882L33.9328 26.4221L22.2869 38.0681C22.224 38.131 22.1493 38.1809 22.0671 38.2149C21.9849 38.249 21.8969 38.2665 21.8079 38.2665C21.7189 38.2665 21.6308 38.249 21.5487 38.2149C21.4665 38.1809 21.3918 38.131 21.3289 38.0681L16.8051 33.5443L8.54784 41.8016C8.48494 41.8645 8.41026 41.9144 8.32807 41.9484C8.24588 41.9825 8.15778 42 8.06882 42C7.97986 42 7.89177 41.9825 7.80958 41.9484C7.72739 41.9144 7.65271 41.8645 7.5898 41.8016L5.07709 39.2889C5.01417 39.226 4.96426 39.1513 4.93021 39.0691C4.89615 38.9869 4.87863 38.8988 4.87863 38.8098C4.87863 38.7209 4.89615 38.6328 4.93021 38.5506C4.96426 38.4684 5.01417 38.3937 5.07709 38.3308L10.5624 32.8454ZM32.5737 19.5716C32.7064 18.7422 32.7729 17.9036 32.7726 17.0638C32.7726 8.38704 25.7404 1.35484 17.0637 1.35484C8.38704 1.35484 1.35484 8.38704 1.35484 17.0638C1.35484 21.0276 2.82238 24.6483 5.24398 27.4121C6.22226 23.0737 9.52697 19.6158 13.7771 18.4197C11.8782 17.2906 10.5993 15.2173 10.5993 12.8587C10.5993 9.30215 13.5072 6.39433 17.0637 6.39433C20.6202 6.39433 23.5281 9.30215 23.5281 12.8587C23.5281 15.2173 22.2492 17.2906 20.3503 18.4197C23.8634 19.4083 26.7306 21.9424 28.1718 25.2416L30.4621 22.9514L28.8594 21.3488C28.7723 21.2616 28.7106 21.1523 28.681 21.0327C28.6514 20.913 28.655 20.7876 28.6913 20.6698C28.7277 20.5521 28.7955 20.4465 28.8875 20.3644C28.9794 20.2823 29.092 20.2269 29.2131 20.204L32.5737 19.5716ZM6.40364 28.6031C7.89845 29.9847 9.66237 31.0794 11.608 31.7998L16.3261 27.0818C16.389 27.0189 16.4636 26.969 16.5458 26.9349C16.628 26.9009 16.7161 26.8833 16.8051 26.8833C16.894 26.8833 16.9821 26.9009 17.0643 26.9349C17.1465 26.969 17.2212 27.0189 17.2841 27.0818L21.8079 31.6056L27.1327 26.2808C25.5947 22.2149 21.6659 19.323 17.0637 19.323C11.6254 19.323 7.12704 23.361 6.40364 28.6031ZM17.0637 17.9682C19.8749 17.9682 22.1733 15.6698 22.1733 12.8587C22.1733 10.0476 19.8749 7.74916 17.0637 7.74916C14.2526 7.74916 11.9542 10.0476 11.9542 12.8587C11.9542 15.6698 14.2526 17.9682 17.0637 17.9682ZM34.4118 24.9852L35.4432 26.0165L36.5372 20.2042L30.7248 21.2981L31.8991 22.4724C31.962 22.5353 32.0119 22.6099 32.0459 22.6921C32.08 22.7743 32.0975 22.8624 32.0975 22.9514C32.0975 23.0403 32.08 23.1284 32.0459 23.2106C32.0119 23.2928 31.962 23.3675 31.8991 23.4304L22.2869 33.0426C22.224 33.1055 22.1493 33.1554 22.0671 33.1895C21.9849 33.2235 21.8969 33.2411 21.8079 33.2411C21.7189 33.2411 21.6308 33.2235 21.5487 33.1895C21.4665 33.1554 21.3918 33.1055 21.3289 33.0426L16.8051 28.5188L6.51406 38.8098L8.06882 40.3645L16.3261 32.1073C16.389 32.0444 16.4636 31.9945 16.5458 31.9604C16.628 31.9264 16.7161 31.9088 16.8051 31.9088C16.894 31.9088 16.9821 31.9264 17.0643 31.9604C17.1465 31.9945 17.2212 32.0444 17.2841 32.1073L21.8079 36.6311L33.4538 24.9852C33.5809 24.8581 33.7532 24.7868 33.9328 24.7868C34.1125 24.7868 34.2847 24.8581 34.4118 24.9852Z" fill="#3E96F4"/>
</svg>
