<svg width="56" height="56" viewBox="0 0 56 56" fill="none" xmlns="http://www.w3.org/2000/svg">
<circle cx="28" cy="28" r="27.1" fill="url(#paint0_radial_1_1751)" stroke="#C3D8EF" stroke-width="1.8"/>
<g clip-path="url(#clip0_1_1751)">
<path d="M36.0675 21.0612C35.9796 21.0618 35.8931 21.0395 35.8164 20.9965C35.7397 20.9536 35.6755 20.8914 35.63 20.8162L32.865 14.7437C32.8307 14.5767 32.8459 14.4034 32.9088 14.245C32.9448 14.1713 33.0009 14.1093 33.0705 14.066C33.1401 14.0227 33.2205 13.9998 33.3025 13.9999H36.12C36.4293 13.9849 36.7373 14.0494 37.0145 14.1872C37.2918 14.3251 37.5291 14.5318 37.7038 14.7875L41.895 20.2737C41.9509 20.3412 41.9857 20.4237 41.9951 20.5108C42.0044 20.5979 41.9879 20.6859 41.9475 20.7637C41.9131 20.8534 41.8517 20.9302 41.7718 20.9835C41.6918 21.0368 41.5973 21.0639 41.5013 21.0612H36.0675ZM36.9425 15.33C36.847 15.2155 36.7261 15.125 36.5893 15.0657C36.4526 15.0065 36.3038 14.9801 36.155 14.9887H34.125L36.4438 20.0724H40.5388L36.9425 15.33ZM24.8938 20.9125C24.8112 20.799 24.7766 20.6575 24.7975 20.5187L25.7337 14.4462C25.7637 14.3358 25.8284 14.2379 25.9182 14.167C26.008 14.0961 26.1181 14.056 26.2325 14.0524H29.75C29.8658 14.0466 29.9796 14.0834 30.07 14.156C30.1603 14.2286 30.2208 14.3319 30.24 14.4462L31.185 20.5187C31.2061 20.5876 31.2074 20.661 31.1889 20.7306C31.1703 20.8002 31.1326 20.8632 31.08 20.9125C30.9731 21.0114 30.8319 21.0647 30.6863 21.0612H25.2613C25.1134 21.0626 24.9702 21.0097 24.8587 20.9125H24.8938ZM29.3388 14.9887H26.6263L25.8388 20.0724H30.135L29.3388 14.9887Z" fill="#3E96F4"/>
<path d="M20.1863 38.395H16.1788C16.1123 38.3988 16.0458 38.3885 15.9835 38.3648C15.9213 38.3411 15.8648 38.3045 15.8177 38.2574C15.7706 38.2103 15.734 38.1538 15.7103 38.0916C15.6865 38.0293 15.6762 37.9628 15.68 37.8963V24.815C15.6762 24.7485 15.6865 24.682 15.7103 24.6198C15.734 24.5575 15.7706 24.501 15.8177 24.4539C15.8648 24.4068 15.9213 24.3702 15.9835 24.3465C16.0458 24.3228 16.1123 24.3124 16.1788 24.3163C16.2449 24.3123 16.3111 24.3226 16.373 24.3464C16.4348 24.3702 16.4908 24.4069 16.5372 24.4542C16.5837 24.5015 16.6194 24.5581 16.6421 24.6203C16.6648 24.6826 16.6739 24.749 16.6688 24.815V37.4063H20.1688C20.239 37.3957 20.3107 37.4003 20.379 37.4197C20.4473 37.4391 20.5107 37.4728 20.5649 37.5187C20.6192 37.5646 20.663 37.6214 20.6934 37.6856C20.7239 37.7497 20.7403 37.8197 20.7416 37.8907C20.7428 37.9617 20.7289 38.0321 20.7007 38.0973C20.6725 38.1625 20.6308 38.2209 20.5782 38.2687C20.5256 38.3164 20.4635 38.3524 20.3959 38.3742C20.3283 38.396 20.2569 38.4031 20.1863 38.395Z" fill="#3E96F4"/>
<path d="M35.8226 37.4063H39.3226V24.815C39.3187 24.7485 39.329 24.682 39.3527 24.6198C39.3764 24.5575 39.4131 24.501 39.4602 24.4539C39.5073 24.4068 39.5638 24.3702 39.626 24.3465C39.6882 24.3228 39.7548 24.3124 39.8213 24.3163C39.8874 24.3123 39.9537 24.3226 40.0155 24.3464C40.0773 24.3702 40.1333 24.4069 40.1798 24.4542C40.2262 24.5015 40.262 24.5581 40.2847 24.6203C40.3074 24.6826 40.3164 24.749 40.3113 24.815V37.8963C40.3164 37.9623 40.3074 38.0287 40.2847 38.0909C40.262 38.1532 40.2262 38.2098 40.1798 38.2571C40.1333 38.3043 40.0773 38.3411 40.0155 38.3649C39.9537 38.3887 39.8874 38.399 39.8213 38.395H35.805C35.7345 38.4031 35.663 38.396 35.5954 38.3742C35.5278 38.3524 35.4657 38.3164 35.4131 38.2687C35.3606 38.2209 35.3188 38.1625 35.2906 38.0973C35.2625 38.0321 35.2486 37.9617 35.2498 37.8907C35.2511 37.8197 35.2675 37.7497 35.298 37.6856C35.3284 37.6214 35.3722 37.5646 35.4264 37.5187C35.4806 37.4728 35.544 37.4391 35.6124 37.4197C35.6807 37.4003 35.7523 37.3957 35.8226 37.4063Z" fill="#3E96F4"/>
<path d="M23.0912 14.245C23.0551 14.1713 22.9991 14.1093 22.9295 14.066C22.8598 14.0227 22.7795 13.9998 22.6975 13.9999H19.8799C19.5706 13.9849 19.2627 14.0494 18.9854 14.1872C18.7082 14.3251 18.4708 14.5318 18.2962 14.7875L14.1049 20.2737C14.049 20.3412 14.0143 20.4237 14.0049 20.5108C13.9956 20.5979 14.0121 20.6859 14.0525 20.7637C14.0869 20.8534 14.1483 20.9302 14.2282 20.9835C14.3081 21.0368 14.4027 21.0639 14.4987 21.0612H19.9325C20.0204 21.0618 20.1069 21.0395 20.1836 20.9965C20.2603 20.9536 20.3245 20.8914 20.37 20.8162L23.135 14.7437C23.1693 14.5767 23.1541 14.4034 23.0912 14.245ZM19.5912 20.0724H15.4875L19.0925 15.33C19.1879 15.2155 19.3089 15.125 19.4456 15.0657C19.5824 15.0065 19.7311 14.9801 19.8799 14.9887H21.875L19.5912 20.0724Z" fill="#3E96F4"/>
<path d="M30.3012 14.4463C30.2713 14.3358 30.2066 14.2379 30.1168 14.167C30.027 14.0962 29.9168 14.056 29.8025 14.0525H26.25C26.1342 14.0466 26.0204 14.0834 25.93 14.156C25.8397 14.2286 25.7791 14.3319 25.76 14.4463L24.815 20.5188C24.7939 20.5876 24.7925 20.6611 24.8111 20.7307C24.8297 20.8003 24.8674 20.8633 24.9199 20.9125C25.0269 21.0114 25.1681 21.0648 25.3137 21.0612H30.7387C30.8866 21.0626 31.0298 21.0097 31.1412 20.9125C31.2238 20.799 31.2584 20.6576 31.2375 20.5188L30.3012 14.4463ZM25.9262 20.0725L26.7224 14.9887H29.435L30.2224 20.0725H25.9262Z" fill="#3E96F4"/>
<path d="M22.645 25.4538C21.7982 25.4381 20.9905 25.0947 20.3916 24.4959C19.7928 23.897 19.4495 23.0893 19.4338 22.2425V20.5625C19.4312 20.4967 19.4424 20.4312 19.4667 20.37C19.491 20.3088 19.5278 20.2534 19.5748 20.2072C19.6217 20.1611 19.6778 20.1253 19.7394 20.1021C19.801 20.0789 19.8668 20.0688 19.9325 20.0725H25.375C25.4407 20.0688 25.5065 20.0789 25.5681 20.1021C25.6297 20.1253 25.6858 20.1611 25.7328 20.2072C25.7797 20.2534 25.8165 20.3088 25.8408 20.37C25.8651 20.4312 25.8763 20.4967 25.8738 20.5625V22.2425C25.8601 23.093 25.515 23.9045 24.912 24.5043C24.3089 25.1041 23.4955 25.4448 22.645 25.4538ZM20.4225 21.0788V22.26C20.4225 22.8495 20.6566 23.4147 21.0734 23.8315C21.4902 24.2483 22.0556 24.4825 22.645 24.4825C23.2344 24.4825 23.7997 24.2483 24.2165 23.8315C24.6333 23.4147 24.8675 22.8495 24.8675 22.26V21.0788H20.4225Z" fill="#3E96F4"/>
<path d="M33.32 25.4538C32.4733 25.4381 31.6655 25.0947 31.0667 24.4959C30.4678 23.897 30.1244 23.0893 30.1087 22.2425V20.5626C30.1048 20.4964 30.1151 20.4302 30.1389 20.3684C30.1626 20.3065 30.1994 20.2505 30.2467 20.2041C30.2939 20.1577 30.3506 20.1219 30.4128 20.0992C30.4751 20.0765 30.5414 20.0674 30.6075 20.0726H36.0325C36.0986 20.0674 36.1649 20.0765 36.2272 20.0992C36.2894 20.1219 36.3461 20.1577 36.3934 20.2041C36.4406 20.2505 36.4773 20.3065 36.5011 20.3684C36.5249 20.4302 36.5352 20.4964 36.5313 20.5626V22.2425C36.5177 23.09 36.175 23.899 35.5757 24.4983C34.9764 25.0976 34.1675 25.4403 33.32 25.4538ZM31.0975 21.0788V22.2601C31.0975 22.8495 31.3317 23.4148 31.7485 23.8316C32.1653 24.2484 32.7306 24.4825 33.32 24.4825C33.9095 24.4825 34.4747 24.2484 34.8915 23.8316C35.3083 23.4148 35.5425 22.8495 35.5425 22.2601V21.0788H31.0975Z" fill="#3E96F4"/>
<path d="M17.2112 25.4537C16.3653 25.4379 15.5586 25.0943 14.9611 24.4952C14.3637 23.8961 14.0222 23.0884 14.0087 22.2424V20.5624C14.0049 20.4971 14.015 20.4317 14.0383 20.3705C14.0615 20.3093 14.0974 20.2538 14.1437 20.2075C14.19 20.1612 14.2456 20.1253 14.3068 20.102C14.368 20.0787 14.4334 20.0686 14.4987 20.0724H19.9325C19.9978 20.0686 20.0632 20.0787 20.1244 20.102C20.1856 20.1253 20.2411 20.1612 20.2874 20.2075C20.3337 20.2538 20.3697 20.3093 20.393 20.3705C20.4162 20.4317 20.4263 20.4971 20.4225 20.5624V22.2424C20.409 23.0899 20.0663 23.8989 19.467 24.4982C18.8676 25.0975 18.0587 25.4402 17.2112 25.4537ZM14.9887 21.0787V22.2599C14.9887 22.8494 15.2229 23.4147 15.6397 23.8315C16.0565 24.2483 16.6218 24.4824 17.2112 24.4824C17.8006 24.4824 18.366 24.2483 18.7828 23.8315C19.1996 23.4147 19.4337 22.8494 19.4337 22.2599V21.0787H14.9887ZM28.0262 25.4537C27.1795 25.438 26.3717 25.0946 25.7729 24.4958C25.174 23.8969 24.8307 23.0892 24.815 22.2424V20.5624C24.8124 20.4967 24.8237 20.4311 24.848 20.3699C24.8722 20.3087 24.909 20.2533 24.956 20.2071C25.003 20.161 25.059 20.1252 25.1206 20.102C25.1822 20.0788 25.248 20.0687 25.3137 20.0724H30.7387C30.8044 20.0687 30.8702 20.0788 30.9318 20.102C30.9934 20.1252 31.0495 20.161 31.0964 20.2071C31.1434 20.2533 31.1802 20.3087 31.2045 20.3699C31.2288 20.4311 31.24 20.4967 31.2375 20.5624V22.2424C31.2239 23.0899 30.8813 23.8989 30.2819 24.4982C29.6826 25.0975 28.8737 25.4402 28.0262 25.4537ZM25.8037 21.0787V22.2599C25.8037 22.8494 26.0379 23.4147 26.4547 23.8315C26.8715 24.2483 27.4368 24.4824 28.0262 24.4824C28.6157 24.4824 29.181 24.2483 29.5978 23.8315C30.0146 23.4147 30.2487 22.8494 30.2487 22.2599V21.0787H25.8037Z" fill="#3E96F4"/>
<path d="M35.5774 22.2424V20.5624C35.5736 20.4971 35.5837 20.4317 35.607 20.3705C35.6302 20.3093 35.6662 20.2538 35.7125 20.2075C35.7588 20.1612 35.8144 20.1253 35.8755 20.102C35.9367 20.0787 36.0021 20.0686 36.0674 20.0724H41.5012C41.5665 20.0686 41.632 20.0787 41.6931 20.102C41.7543 20.1253 41.8099 20.1612 41.8562 20.2075C41.9025 20.2538 41.9384 20.3093 41.9617 20.3705C41.9849 20.4317 41.995 20.4971 41.9912 20.5624V22.2424C42.0139 22.6777 41.9478 23.113 41.797 23.5218C41.6461 23.9307 41.4135 24.3046 41.1135 24.6207C40.8135 24.9368 40.4522 25.1885 40.0518 25.3605C39.6514 25.5325 39.2202 25.6212 38.7843 25.6212C38.3485 25.6212 37.9172 25.5325 37.5168 25.3605C37.1164 25.1885 36.7552 24.9368 36.4551 24.6207C36.1551 24.3046 35.9226 23.9307 35.7717 23.5218C35.6208 23.113 35.5547 22.6777 35.5774 22.2424ZM36.5662 21.0612V22.2424C36.5662 22.8319 36.8003 23.3972 37.2171 23.814C37.6339 24.2308 38.1993 24.465 38.7887 24.465C39.3782 24.465 39.9434 24.2308 40.3602 23.814C40.777 23.3972 41.0112 22.8319 41.0112 22.2424V21.0612H36.5662ZM27.9737 25.4362C27.1262 25.4227 26.3173 25.08 25.718 24.4807C25.1187 23.8813 24.776 23.0724 24.7624 22.225V20.5624C24.7599 20.4967 24.7712 20.4311 24.7954 20.3699C24.8197 20.3087 24.8565 20.2533 24.9035 20.2071C24.9504 20.161 25.0065 20.1252 25.0681 20.102C25.1297 20.0788 25.1955 20.0687 25.2612 20.0724H30.6862C30.7519 20.0687 30.8177 20.0788 30.8793 20.102C30.9409 20.1252 30.997 20.161 31.0439 20.2071C31.0909 20.2533 31.1277 20.3087 31.152 20.3699C31.1762 20.4311 31.1875 20.4967 31.185 20.5624V22.2424C31.1693 23.0892 30.8259 23.8969 30.227 24.4958C29.6282 25.0946 28.8204 25.438 27.9737 25.4537V25.4362ZM25.7512 21.0612V22.2424C25.7512 22.8319 25.9854 23.3972 26.4022 23.814C26.819 24.2308 27.3842 24.465 27.9737 24.465C28.5631 24.465 29.1284 24.2308 29.5452 23.814C29.962 23.3972 30.1962 22.8319 30.1962 22.2424V21.0612H25.7512Z" fill="#3E96F4"/>
<path d="M34.7988 14.0175H20.7288V15.0062H34.7988V14.0175Z" fill="#3E96F4"/>
<path d="M28 34.0112C30.0538 34.0112 31.7188 32.3463 31.7188 30.2925C31.7188 28.2387 30.0538 26.5737 28 26.5737C25.9462 26.5737 24.2812 28.2387 24.2812 30.2925C24.2812 32.3463 25.9462 34.0112 28 34.0112Z" stroke="#3E96F4" stroke-width="1.6" stroke-miterlimit="10"/>
<path d="M34.7988 41.2825H21.2012C21.2012 40.3897 21.3771 39.5056 21.7188 38.6808C22.0605 37.8559 22.5613 37.1064 23.1926 36.4751C23.8239 35.8438 24.5734 35.343 25.3982 35.0013C26.2231 34.6597 27.1072 34.4838 28 34.4838C28.8928 34.4838 29.7769 34.6597 30.6018 35.0013C31.4266 35.343 32.1761 35.8438 32.8074 36.4751C33.4387 37.1064 33.9395 37.8559 34.2812 38.6808C34.6229 39.5056 34.7988 40.3897 34.7988 41.2825Z" stroke="#3E96F4" stroke-width="1.6" stroke-miterlimit="10"/>
</g>
<defs>
<radialGradient id="paint0_radial_1_1751" cx="0" cy="0" r="1" gradientUnits="userSpaceOnUse" gradientTransform="translate(28 28) rotate(90) scale(28)">
<stop offset="0.591346" stop-color="#3E96F4" stop-opacity="0"/>
<stop offset="0.822115" stop-color="#3E96F4" stop-opacity="0.1"/>
<stop offset="1" stop-color="#3E96F4" stop-opacity="0.3"/>
</radialGradient>
<clipPath id="clip0_1_1751">
<rect width="28" height="27.9825" fill="white" transform="translate(14 14)"/>
</clipPath>
</defs>
</svg>
