<svg width="38" height="24" viewBox="0 0 38 24" fill="none" xmlns="http://www.w3.org/2000/svg">
<path d="M0.00195312 15.9004H37.3322V23.9997H0.00195312V15.9004Z" fill="#11892E"/>
<path d="M0.00195312 0H37.3322V8.09993H0.00195312V0Z" fill="#F2963B"/>
<path d="M0 8.10254H37.3326V15.9018H0V8.10254Z" fill="white"/>
<path d="M22.0595 11.5706C21.8129 9.76418 20.0938 8.49196 18.2206 8.72975C16.3451 8.96847 15.0271 10.6251 15.2735 12.4315C15.5201 14.238 17.239 15.5091 19.1143 15.2724C20.9876 15.0335 22.3059 13.3772 22.0595 11.5706ZM21.6543 12.2146C21.562 12.2052 21.4764 12.2671 21.4656 12.356C21.4591 12.3985 21.4704 12.4418 21.4969 12.4762C21.5234 12.5107 21.5631 12.5336 21.6071 12.54C21.5934 12.6072 21.5776 12.6741 21.5599 12.7405L19.9952 12.2464L19.2537 12.1068C19.2576 12.0861 19.2623 12.0656 19.2643 12.0447L20.0142 12.0953L21.6604 12.0096C21.6608 12.0781 21.6564 12.1462 21.6543 12.2146ZM15.6809 11.7876C15.7252 11.792 15.7695 11.7798 15.8047 11.7534C15.8398 11.727 15.863 11.6886 15.8694 11.6461C15.8824 11.5572 15.8181 11.4765 15.7259 11.4611C15.7387 11.395 15.7559 11.3278 15.773 11.2617L17.3376 11.7557L18.0814 11.8952C18.0766 11.9157 18.073 11.9364 18.0707 11.9573L17.3182 11.9067L15.6744 11.9924C15.6744 11.9241 15.6764 11.8558 15.6809 11.7876ZM15.7259 12.54C15.7701 12.5337 15.81 12.5109 15.8369 12.4765C15.8638 12.4421 15.8755 12.3988 15.8694 12.356C15.8633 12.3134 15.8401 12.2748 15.8049 12.2484C15.7697 12.222 15.7252 12.2099 15.6809 12.2146C15.6766 12.1464 15.6744 12.0782 15.6744 12.01L17.3182 12.0957L18.0728 12.0451C18.0749 12.0555 18.0728 12.0658 18.0749 12.0771C18.0749 12.0876 18.0792 12.0966 18.0814 12.1072L17.3376 12.2468L15.773 12.7409C15.756 12.6742 15.7403 12.6072 15.7259 12.54ZM20.0146 11.9067L19.2623 11.9573C19.2601 11.947 19.2623 11.9366 19.2601 11.9253C19.2601 11.915 19.2558 11.9046 19.2537 11.8952L19.9952 11.7557L21.5599 11.2617C21.5769 11.3278 21.594 11.395 21.6071 11.4622C21.5631 11.4686 21.5236 11.4916 21.4971 11.526C21.4706 11.5605 21.4592 11.6036 21.4656 11.6461C21.4764 11.734 21.5599 11.7969 21.6521 11.7876C21.6562 11.8558 21.6607 11.925 21.6607 11.9923L20.0146 11.9067ZM21.4936 11.05C21.515 11.114 21.5385 11.1791 21.5581 11.2452L19.9441 11.5728L19.2325 11.8094C19.2239 11.7898 19.2132 11.7712 19.2049 11.7516L19.8844 11.4323L21.2629 10.5652C21.2992 10.624 21.3314 10.684 21.3633 10.746C21.3227 10.7638 21.2909 10.796 21.2744 10.8359C21.258 10.8758 21.2582 10.9202 21.275 10.96C21.309 11.0417 21.4078 11.0818 21.4936 11.05ZM20.9063 10.345C20.9333 10.3785 20.9727 10.4007 21.0162 10.4069C21.0597 10.413 21.1041 10.4027 21.1399 10.3781C21.1827 10.4339 21.2191 10.4918 21.2536 10.5507L19.7854 11.2689L19.1595 11.6761C19.1464 11.6595 19.1359 11.641 19.121 11.6254L19.6889 11.148L20.7884 9.96574C20.8376 10.0144 20.8873 10.0639 20.9342 10.1167C20.8995 10.1437 20.8772 10.1827 20.872 10.2254C20.8668 10.2681 20.8791 10.311 20.9063 10.345ZM20.3854 9.84164C20.4206 9.86764 20.4649 9.87937 20.509 9.87436C20.553 9.86934 20.5933 9.84796 20.6213 9.81477C20.6751 9.85916 20.7266 9.90567 20.7779 9.95428L19.5519 11.0147L19.0543 11.5644C19.0373 11.551 19.0225 11.5375 19.0028 11.5262L19.4272 10.9216L20.1709 9.50584C20.2307 9.53996 20.2907 9.57724 20.3505 9.61544C20.2977 9.68777 20.3104 9.78802 20.3854 9.84164ZM19.7467 9.48621C19.7877 9.50245 19.8336 9.5027 19.8748 9.48689C19.916 9.47108 19.9491 9.44046 19.9673 9.4015C20.0317 9.4314 20.0958 9.46341 20.156 9.49754L19.2558 10.8276L18.9258 11.4808C18.9062 11.4714 18.8849 11.4652 18.8636 11.4581L19.112 10.7688L19.4487 9.21561C19.5173 9.23313 19.5859 9.25382 19.6545 9.27661C19.6203 9.35921 19.661 9.45209 19.7467 9.48621ZM18.8871 9.12247C18.8785 9.21034 18.9429 9.29084 19.0351 9.3023C19.1273 9.31376 19.2108 9.25368 19.2258 9.16489C19.2968 9.17833 19.3653 9.19387 19.4336 9.2114L18.9214 10.7202L18.7777 11.4364C18.7539 11.4323 18.7349 11.4271 18.7113 11.425L18.765 10.6995L18.6752 9.11417C18.7457 9.11417 18.8185 9.11746 18.8871 9.12247ZM18.2978 9.3023C18.342 9.29675 18.3823 9.27495 18.4103 9.24145C18.4382 9.20795 18.4517 9.16532 18.4479 9.12247C18.5178 9.11766 18.5879 9.1149 18.658 9.11417L18.57 10.6995L18.6214 11.427C18.6108 11.4281 18.6001 11.427 18.5893 11.4281C18.5786 11.4291 18.5658 11.4343 18.555 11.4364L18.4114 10.7202L17.8991 9.21034C17.968 9.19352 18.0374 9.17837 18.1071 9.16489C18.1221 9.25368 18.2057 9.31363 18.2978 9.3023ZM17.5863 9.48621C17.6741 9.45209 17.7128 9.35802 17.6805 9.27437C17.7477 9.25258 17.8156 9.23294 17.8841 9.21548L18.2228 10.7687L18.4672 11.456C18.4476 11.4645 18.4283 11.4735 18.4092 11.4829L18.077 10.8277L17.1789 9.49661C17.2389 9.46355 17.3012 9.4314 17.3654 9.4015C17.404 9.48212 17.5005 9.52033 17.5863 9.48621ZM16.9497 9.84164C16.9849 9.81542 17.0081 9.77686 17.0141 9.7343C17.0201 9.69175 17.0085 9.64862 16.9818 9.61426C17.0417 9.57592 17.0997 9.53982 17.164 9.5057L17.9055 10.9215L18.3299 11.5261C18.3128 11.5374 18.2934 11.5499 18.2763 11.5632L17.7812 11.0145L16.5551 9.95415C16.6088 9.90554 16.658 9.85903 16.7137 9.81464C16.7416 9.84797 16.7819 9.86945 16.826 9.8745C16.8701 9.87955 16.9145 9.86775 16.9497 9.84164ZM16.4287 10.345C16.4554 10.3108 16.4675 10.268 16.4623 10.2255C16.4571 10.183 16.4351 10.144 16.4009 10.1167C16.4438 10.0651 16.4951 10.0154 16.5446 9.96574L17.6441 11.148L18.2143 11.6265C18.2015 11.642 18.1864 11.6595 18.1736 11.6761L17.5478 11.2689L16.0796 10.5507C16.1138 10.4918 16.1524 10.4329 16.1931 10.377C16.2659 10.4287 16.3731 10.4152 16.4287 10.345ZM16.058 10.9599C16.0755 10.9202 16.0762 10.8755 16.0597 10.8354C16.0432 10.7953 16.011 10.7632 15.97 10.7459C16.0021 10.6849 16.0343 10.6239 16.0707 10.565L17.4488 11.4321L18.1284 11.7515C18.1194 11.7707 18.1116 11.7903 18.1049 11.8104L17.389 11.5727L15.7772 11.2461C15.7965 11.1789 15.8179 11.1149 15.8392 11.0498C15.8807 11.0653 15.9267 11.0645 15.9676 11.0477C16.0084 11.0309 16.0408 10.9994 16.058 10.9599ZM15.8394 12.9523C15.8175 12.8872 15.7968 12.8218 15.7774 12.756L17.3891 12.4285L18.1028 12.1928C18.1094 12.2123 18.12 12.2312 18.1285 12.2497L17.449 12.5703L16.0708 13.4371C16.0348 13.3781 16.0012 13.3178 15.9701 13.2562C16.0559 13.2201 16.0944 13.125 16.0581 13.0424C16.0414 13.0026 16.009 12.9708 15.968 12.9539C15.927 12.937 15.8808 12.9364 15.8394 12.9523ZM16.4287 13.6572C16.4013 13.6236 16.3615 13.6014 16.3175 13.5955C16.2736 13.5895 16.2289 13.6002 16.1929 13.6252C16.1522 13.5682 16.1137 13.5105 16.0794 13.4516L17.5476 12.7333L18.1734 12.3251C18.1863 12.3427 18.1991 12.3603 18.2142 12.3769L17.6439 12.8543L16.5445 14.0355C16.4945 13.9873 16.4466 13.9373 16.4007 13.8855C16.4351 13.8583 16.4571 13.8194 16.4624 13.7768C16.4676 13.7343 16.4555 13.6914 16.4287 13.6572ZM16.9497 14.1604C16.9145 14.1343 16.8701 14.1225 16.8261 14.1275C16.782 14.1325 16.7417 14.154 16.7139 14.1872C16.6598 14.142 16.607 14.0954 16.5552 14.0477L17.7814 12.9875L18.2786 12.4365C18.2957 12.4509 18.3129 12.4643 18.33 12.4747L17.9057 13.0793L17.1641 14.496C17.1021 14.4615 17.0413 14.4249 16.9819 14.3864C17.0085 14.3523 17.0201 14.3093 17.014 14.267C17.008 14.2246 16.9849 14.1863 16.9497 14.1604ZM17.5863 14.5147C17.5451 14.4987 17.4992 14.4987 17.458 14.5147C17.4168 14.5306 17.3837 14.5613 17.3655 14.6004C17.3023 14.5704 17.2401 14.5383 17.179 14.5043L18.0771 13.1743L18.4094 12.5201C18.4286 12.5294 18.4501 12.5365 18.4694 12.5428L18.2228 13.233L17.8841 14.7863C17.8155 14.7687 17.7476 14.7487 17.6805 14.7263C17.6962 14.6861 17.6951 14.6417 17.6775 14.6022C17.66 14.5628 17.6273 14.5315 17.5863 14.5147ZM18.4479 14.8797C18.4517 14.8368 18.4382 14.7942 18.4103 14.7607C18.3823 14.7272 18.342 14.7054 18.2978 14.6998C18.2538 14.6942 18.2093 14.7053 18.1737 14.7307C18.1381 14.7562 18.1142 14.7941 18.1071 14.8363C18.0371 14.8239 17.9678 14.8087 17.8991 14.7909L18.4114 13.282L18.555 12.5659C18.5786 12.5699 18.6001 12.575 18.6214 12.5772L18.57 13.3017L18.658 14.8881C18.5879 14.8884 18.5178 14.8855 18.4479 14.8797ZM19.0351 14.6998C18.991 14.7053 18.9509 14.7272 18.9233 14.7608C18.8956 14.7944 18.8827 14.837 18.8871 14.8797C18.8165 14.8842 18.7457 14.8866 18.675 14.887L18.7649 13.3017L18.711 12.5742C18.7217 12.5731 18.7349 12.5753 18.7431 12.5732C18.7535 12.5721 18.7668 12.568 18.7774 12.5659L18.9211 13.282L19.4333 14.7909C19.3647 14.8084 19.2961 14.8239 19.2255 14.8363C19.2185 14.7941 19.1947 14.7562 19.1591 14.7307C19.1235 14.7052 19.079 14.6941 19.0351 14.6998ZM19.7467 14.5147C19.7056 14.5313 19.6729 14.5628 19.6556 14.6024C19.6384 14.642 19.638 14.6866 19.6545 14.7264C19.5859 14.7491 19.5173 14.7687 19.4487 14.7864L19.112 13.2332L18.8657 12.546C18.8849 12.5377 18.9039 12.5285 18.9255 12.5182L19.2556 13.1743L20.1557 14.5043C20.0959 14.5385 20.0314 14.5705 19.9671 14.6004C19.9489 14.5614 19.9159 14.5307 19.8748 14.5147C19.8337 14.4988 19.7878 14.4988 19.7467 14.5147ZM20.3854 14.1604C20.3104 14.2141 20.2975 14.3153 20.3511 14.3879C20.2913 14.425 20.2333 14.4622 20.1712 14.4963L19.4277 13.0796L19.0037 12.475C19.0229 12.4649 19.0409 12.4529 19.0573 12.439L19.5524 12.9877L20.7784 14.048C20.7271 14.0966 20.6755 14.1431 20.6219 14.1875C20.5633 14.119 20.4582 14.1056 20.3854 14.1604ZM20.9063 13.6572C20.8796 13.6913 20.8676 13.734 20.8728 13.7763C20.878 13.8187 20.9 13.8575 20.9342 13.8846C20.8892 13.9373 20.8376 13.987 20.7884 14.0356L19.6889 12.8544L19.1187 12.3759C19.1317 12.3595 19.1464 12.3429 19.1595 12.3252L19.7854 12.7335L21.2536 13.4507C21.2191 13.5106 21.1806 13.5684 21.1399 13.6254C21.1044 13.6001 21.06 13.5893 21.0163 13.5953C20.9727 13.6012 20.9331 13.6235 20.9063 13.6572ZM21.2749 13.0424C21.2381 13.125 21.2791 13.2191 21.3629 13.2564C21.3311 13.3175 21.2975 13.3778 21.2622 13.4371L19.884 12.5703L19.2067 12.2508C19.2153 12.2322 19.2217 12.2115 19.2303 12.192L19.9441 12.4286L21.5562 12.7561C21.539 12.8223 21.5152 12.8885 21.494 12.9514C21.4078 12.9203 21.309 12.9606 21.2749 13.0424Z" fill="#21296F"/>
</svg>
