<svg xmlns="http://www.w3.org/2000/svg" width="38" height="24" fill="none"><path fill="#11892E" d="M.002 15.9h37.33V24H.002z"/><path fill="#F2963B" d="M.002 0h37.33v8.1H.002z"/><path fill="#fff" d="M0 8.103h37.333v7.799H0z"/><path fill="#21296F" d="M22.06 11.57c-.247-1.806-1.966-3.078-3.84-2.84-1.875.238-3.193 1.895-2.946 3.701s1.965 3.078 3.84 2.841c1.874-.239 3.192-1.895 2.945-3.701m-.406.645c-.092-.01-.178.052-.188.141a.16.16 0 0 0 .03.12.17.17 0 0 0 .111.064 4 4 0 0 1-.047.2l-1.565-.494-.741-.14q.006-.03.01-.061l.75.05 1.646-.085q-.001.102-.006.205m-5.973-.427a.18.18 0 0 0 .124-.035.17.17 0 0 0 .064-.107c.013-.089-.05-.17-.143-.185q.02-.1.047-.2l1.565.495.743.14-.01.061-.753-.05-1.644.085q0-.102.007-.204m.045.752a.17.17 0 0 0 .11-.063.16.16 0 0 0-.031-.229.18.18 0 0 0-.124-.033 3 3 0 0 1-.007-.205l1.644.086.755-.05q.001.015.002.031.002.015.006.03l-.743.14-1.565.494zm4.289-.633-.753.05q-.001-.014-.002-.032-.002-.015-.006-.03l.741-.14 1.565-.493q.027.1.047.2a.17.17 0 0 0-.11.064.16.16 0 0 0-.031.12c.01.088.094.15.186.142q.007.103.009.204zm1.479-.857q.033.097.064.195l-1.614.328-.711.236q-.016-.03-.028-.057l.68-.32 1.378-.867q.053.088.1.181a.17.17 0 0 0-.089.09.16.16 0 0 0 .001.124.173.173 0 0 0 .219.09m-.588-.705a.176.176 0 0 0 .234.033q.064.084.114.173l-1.469.718-.625.407c-.014-.017-.024-.035-.039-.05l.568-.478 1.1-1.182q.074.072.145.15a.16.16 0 0 0-.028.228m-.52-.503a.175.175 0 0 0 .235-.027q.08.066.157.14l-1.226 1.06-.498.55c-.017-.014-.031-.027-.051-.039l.424-.604.744-1.416q.09.051.18.11a.16.16 0 0 0 .034.226m-.64-.356a.18.18 0 0 0 .129 0 .17.17 0 0 0 .092-.085q.098.045.189.097l-.9 1.33-.33.653q-.03-.014-.062-.023l.248-.69.337-1.552q.102.026.205.06a.16.16 0 0 0 .093.21m-.859-.364a.167.167 0 0 0 .148.18.17.17 0 0 0 .19-.137 3 3 0 0 1 .209.046l-.513 1.51-.143.715c-.024-.004-.043-.009-.067-.011l.054-.726-.09-1.585q.107 0 .212.008m-.59.18a.18.18 0 0 0 .113-.06.16.16 0 0 0 .038-.12q.105-.006.21-.008L18.57 10.7l.051.728-.032.001q-.016.003-.034.008l-.144-.716-.512-1.51q.103-.025.208-.045a.17.17 0 0 0 .19.137m-.71.184a.16.16 0 0 0 .093-.212q.102-.032.204-.059l.339 1.554.244.687q-.03.013-.058.027l-.332-.655-.898-1.331q.09-.05.186-.095c.039.08.136.118.221.084m-.637.356a.16.16 0 0 0 .032-.227c.06-.04.118-.075.182-.11l.741 1.416.425.605q-.027.017-.054.037l-.495-.549-1.226-1.06c.054-.048.103-.095.159-.14a.175.175 0 0 0 .236.027m-.521.503a.16.16 0 0 0-.028-.228c.043-.052.094-.102.144-.151l1.1 1.182.57.479q-.022.023-.041.05l-.626-.408-1.468-.718q.051-.09.113-.174c.073.052.18.038.236-.032m-.371.615a.16.16 0 0 0 .002-.125.17.17 0 0 0-.09-.09q.047-.09.1-.18l1.379.867.68.32-.024.058-.716-.237-1.612-.327q.03-.1.062-.196a.18.18 0 0 0 .129-.002.17.17 0 0 0 .09-.088m-.219 1.992-.062-.196 1.612-.328.714-.235c.006.02.017.038.025.057l-.679.32-1.378.867a3 3 0 0 1-.1-.18.16.16 0 0 0 .087-.215.17.17 0 0 0-.09-.088.17.17 0 0 0-.129-.002m.59.705a.177.177 0 0 0-.236-.032 2 2 0 0 1-.114-.173l1.469-.719.625-.408q.019.027.041.052l-.57.477-1.1 1.182a3 3 0 0 1-.143-.15.162.162 0 0 0 .028-.228m.52.503a.175.175 0 0 0-.235.027 4 4 0 0 1-.159-.14l1.226-1.06.498-.55a.4.4 0 0 0 .051.038l-.424.604-.742 1.417a3 3 0 0 1-.182-.11.157.157 0 0 0-.032-.226m.637.355a.18.18 0 0 0-.128 0 .17.17 0 0 0-.092.085 3 3 0 0 1-.187-.096l.898-1.33.332-.654q.03.015.06.023l-.246.69-.339 1.553a3 3 0 0 1-.204-.06.16.16 0 0 0-.003-.124.17.17 0 0 0-.09-.087m.862.365a.16.16 0 0 0-.038-.12.175.175 0 0 0-.236-.03.16.16 0 0 0-.067.106 3 3 0 0 1-.208-.045l.512-1.509.144-.716q.035.007.066.011l-.051.725.088 1.586q-.105 0-.21-.008m.587-.18a.17.17 0 0 0-.112.06.16.16 0 0 0-.036.12q-.105.007-.212.007l.09-1.585-.054-.728h.032l.034-.008.144.716.512 1.509a3 3 0 0 1-.207.045.16.16 0 0 0-.067-.105.18.18 0 0 0-.124-.031m.712-.185a.17.17 0 0 0-.091.087.16.16 0 0 0-.002.124 3 3 0 0 1-.205.06l-.337-1.553-.246-.687.06-.028.33.656.9 1.33q-.091.052-.189.096a.17.17 0 0 0-.092-.085.18.18 0 0 0-.128 0m.638-.355a.16.16 0 0 0-.034.228q-.088.056-.18.108l-.743-1.416-.424-.605a.3.3 0 0 0 .053-.036l.495.549 1.226 1.06a3 3 0 0 1-.156.14.175.175 0 0 0-.237-.028m.521-.503a.16.16 0 0 0 .028.228q-.07.078-.146.15l-1.1-1.18-.57-.48q.021-.023.042-.05l.625.409 1.469.717q-.053.09-.114.174a.173.173 0 0 0-.234.032m.369-.615a.163.163 0 0 0 .088.214 4 4 0 0 1-.1.181l-1.379-.867-.677-.32.023-.058.714.237 1.612.327q-.027.1-.062.195a.174.174 0 0 0-.22.091"/></svg>