<svg width="64" height="59" viewBox="0 0 64 59" fill="none" xmlns="http://www.w3.org/2000/svg">
<path id="Union" fill-rule="evenodd" clip-rule="evenodd" d="M36.7576 15.6993C35.3513 16.6411 33.6869 17.1443 31.9968 17.1443C29.726 17.1443 27.5456 16.2411 25.9458 14.6284C24.3331 13.0286 23.4299 10.8481 23.4299 8.57742C23.4299 6.88728 23.9331 5.22294 24.8749 3.81663C25.8168 2.39743 27.1586 1.30077 28.7197 0.655676C30.2937 0.0105826 32.0097 -0.170043 33.674 0.165405C35.3384 0.500854 36.8608 1.31367 38.0606 2.51354C39.2605 3.71342 40.0733 5.23584 40.4088 6.90018C40.7313 8.56452 40.5636 10.2934 39.9185 11.8545C39.2605 13.4156 38.1639 14.7574 36.7576 15.6993ZM31.9968 2.07488C30.2679 2.07488 28.6165 2.75868 27.4037 3.98436C26.178 5.19713 25.4942 6.84857 25.5071 8.56452C25.5071 9.85471 25.8942 11.1062 26.6038 12.177C27.3134 13.2479 28.3326 14.0865 29.5196 14.5768C30.7066 15.0671 32.0097 15.1961 33.2741 14.9509C34.5384 14.6929 35.6996 14.0736 36.6027 13.1705C37.5188 12.2674 38.1381 11.1062 38.3832 9.8418C38.6283 8.57742 38.4993 7.27433 38.009 6.08736C37.5059 4.90039 36.6801 3.88114 35.6093 3.17154C34.5384 2.46194 33.287 2.07488 31.9968 2.07488ZM27.9453 9.23546L29.4806 11.0546C29.6483 11.2482 29.8806 11.3772 30.1386 11.4159C30.3966 11.4417 30.6547 11.3772 30.874 11.2224L35.867 7.59693C36.0864 7.4421 36.2412 7.19697 36.2799 6.92603C36.3186 6.65509 36.2541 6.38415 36.0993 6.15192C35.9444 5.93259 35.6993 5.77776 35.4284 5.73906C35.1574 5.70035 34.8865 5.76486 34.6543 5.91968L30.4353 8.97743L29.5193 7.89367C29.429 7.79045 29.3258 7.70014 29.2097 7.63563C29.0936 7.57112 28.9516 7.53242 28.8226 7.51952C28.6936 7.50661 28.5517 7.51952 28.4227 7.55822C28.2936 7.59693 28.1775 7.66144 28.0743 7.75175C27.9711 7.84206 27.8808 7.94528 27.8163 8.06139C27.7518 8.17751 27.7131 8.31943 27.7002 8.44845C27.6872 8.57747 27.7002 8.71939 27.7389 8.84841C27.7905 9.00323 27.855 9.11935 27.9453 9.23546ZM42.3954 44.7541L37.6088 43.1543V42.2898H36.0477L37.9443 40.3933C38.6926 39.645 39.2603 38.716 39.5957 37.7097C41.1439 37.4129 42.2922 36.0582 42.2922 34.4584C42.2922 33.4779 41.8664 32.5747 41.1181 31.9426V28.5881C41.1181 27.0398 40.0215 25.6851 38.5249 25.3497C37.5443 22.8467 35.093 21.1695 32.3707 21.1695H31.9449C26.8745 21.1695 22.7588 25.2981 22.7588 30.3556V31.9426C22.0105 32.5747 21.5847 33.4779 21.5847 34.4584C21.5847 36.0582 22.733 37.4129 24.2812 37.7097C24.6166 38.716 25.1843 39.6321 25.9326 40.3933L27.8292 42.2898H26.2681V43.1543L21.4815 44.7541C19.0688 45.554 17.3142 47.6183 16.9013 50.1213L15.5466 58.3269H48.3561L46.9885 50.1084C46.5756 47.6054 44.8081 45.554 42.3954 44.7541ZM28.2292 42.6898C28.8614 43.322 29.6871 43.6574 30.5773 43.6574H33.3254C34.2156 43.6574 35.0414 43.3091 35.6735 42.6898V43.7349L34.9897 46.4571L32.99 44.0574H30.8999L28.913 46.4571L28.2292 43.7349V42.6898ZM23.9328 33.5037V35.4261C23.6877 35.1809 23.5329 34.8326 23.5329 34.4713C23.5329 34.0972 23.6877 33.7617 23.9328 33.5037ZM39.9699 33.5037C40.215 33.7488 40.3698 34.0972 40.3698 34.4584C40.3698 34.8326 40.215 35.168 39.9699 35.4132V33.5037ZM34.1898 28.4978C32.4868 30.2008 30.2161 31.1426 27.7905 31.1426H24.9005H24.707V30.3556C24.707 26.3689 27.9582 23.1177 31.9449 23.1177H32.3707C34.4479 23.1177 36.3057 24.5111 36.8863 26.5238L37.0928 27.2334H37.8282C38.5894 27.2334 39.1958 27.8527 39.1958 28.601V31.1555H39.0022C37.8927 31.1555 36.8476 30.562 36.2799 29.6202L35.0801 27.6333L34.1898 28.4978ZM25.8939 33.0908H27.8034C30.3064 33.0908 32.719 32.2393 34.6543 30.6911C35.4026 31.878 36.6412 32.7167 38.0217 32.9876V35.5422C38.0217 36.8453 37.5185 38.0838 36.5896 38.9999L34.3059 41.2835C34.0479 41.5415 33.6996 41.6835 33.3383 41.6835H30.5773C30.2161 41.6835 29.8677 41.5415 29.6097 41.2835L27.326 38.9999C26.3971 38.0709 25.8939 36.8453 25.8939 35.5422V33.0908ZM42.8083 56.3787L42.2664 50.9986L40.3311 51.1921L40.8472 56.3787H35.1446L34.1382 49.373L34.4737 48.8827L35.9574 50.6632L37.3379 45.1283L41.789 46.612C43.5179 47.1926 44.7694 48.6634 45.0661 50.4567L46.0595 56.4045H42.8083V56.3787ZM31.7901 48.9085L30.7321 47.3087L31.8159 46.0056H32.0739L33.1577 47.3087L32.0997 48.9085L33.1706 56.3787H30.7192L31.7901 48.9085ZM29.7645 49.373L28.7581 56.3787H23.0555L23.5716 51.1921L21.6363 50.9986L21.0944 56.3787H17.8432L18.8366 50.4309C19.1334 48.6376 20.3977 47.1668 22.1137 46.5862L26.5648 45.1025L27.9453 50.6374L29.429 48.8569L29.7645 49.373ZM14.4372 21.389C15.2242 22.1761 15.8435 23.105 16.2693 24.1371C16.695 25.1564 16.9143 26.2659 16.9014 27.3884C16.9014 30.0055 15.7661 31.7552 14.6751 33.4366L14.6565 33.4652L14.6241 33.5153C13.9261 34.5938 13.258 35.6262 12.9277 36.8713V38.7163C12.9277 39.9032 12.4503 41.0386 11.6117 41.8772C10.7731 42.7158 9.63769 43.1932 8.45072 43.1932C7.26375 43.1932 6.12839 42.7158 5.28977 41.8772C4.45114 41.0386 3.97377 39.9032 3.97377 38.7163V36.8584C3.63833 35.6069 2.96743 34.5619 2.24492 33.4523C1.13536 31.7621 0 30.0075 0 27.3755C0 26.2659 0.20643 25.1693 0.632191 24.1371C1.05795 23.105 1.67724 22.1632 2.46426 21.389C3.25127 20.602 4.1802 19.9698 5.21235 19.5441C6.2316 19.1183 7.34116 18.899 8.45072 18.899C9.56028 18.899 10.6569 19.1183 11.6891 19.5441C12.7212 19.9698 13.6502 20.602 14.4372 21.389ZM10.1538 40.4193C10.6053 39.9677 10.8634 39.3613 10.8634 38.7163V37.7615H6.03807V38.7163C6.03807 39.3484 6.29611 39.9677 6.74768 40.4193C7.19924 40.8709 7.80563 41.1289 8.45072 41.1289C9.08291 41.1289 9.7022 40.8709 10.1538 40.4193ZM11.1214 35.6972C11.573 34.4199 12.2568 33.362 12.9277 32.3298C13.9598 30.7558 14.8371 29.4011 14.8371 27.3755C14.8371 26.5369 14.6823 25.6983 14.3598 24.9242C14.0372 24.15 13.5728 23.4404 12.9793 22.847C12.3858 22.2535 11.6762 21.7761 10.9021 21.4536C10.128 21.131 9.28934 20.9633 8.45072 20.9633C7.6121 20.9633 6.77348 21.131 5.99937 21.4536C5.22526 21.7761 4.51565 22.2535 3.92217 22.847C3.32868 23.4404 2.86421 24.15 2.54167 24.9242C2.21912 25.6983 2.0643 26.5369 2.0643 27.3755C2.0643 29.3814 2.93727 30.7294 3.94404 32.2839L3.97377 32.3298C4.64467 33.3491 5.32847 34.407 5.78004 35.6972H7.41857V30.201H6.87669C6.1929 30.201 5.5349 29.9301 5.04463 29.4398C4.55436 28.9495 4.28342 28.2915 4.28342 27.6077C4.28342 26.9239 4.55436 26.2659 5.04463 25.7757C5.5349 25.2854 6.1929 25.0145 6.87669 25.0145C7.16054 25.0145 7.41857 25.1177 7.6121 25.3112C7.80563 25.5047 7.90884 25.7628 7.90884 26.0466C7.90884 26.3305 7.80563 26.5885 7.6121 26.782C7.41857 26.9756 7.14763 27.0788 6.87669 27.0788C6.73477 27.0788 6.60576 27.1304 6.50254 27.2336C6.39933 27.3368 6.34772 27.4658 6.34772 27.6077C6.34772 27.7497 6.39933 27.8787 6.50254 27.9819C6.60576 28.0851 6.73477 28.1367 6.87669 28.1367H10.0247C10.1667 28.1367 10.2957 28.0851 10.3989 27.9819C10.5021 27.8787 10.5537 27.7497 10.5537 27.6077C10.5537 27.4658 10.5021 27.3368 10.3989 27.2336C10.2957 27.1304 10.1667 27.0788 10.0247 27.0788C9.74091 27.0788 9.48287 26.9756 9.28934 26.782C9.09582 26.5885 8.9926 26.3305 8.9926 26.0466C8.9926 25.7628 9.09582 25.5047 9.28934 25.3112C9.48287 25.1177 9.75381 25.0145 10.0247 25.0145C10.7085 25.0145 11.3665 25.2854 11.8568 25.7757C12.3471 26.2659 12.618 26.9239 12.618 27.6077C12.618 28.2915 12.3471 28.9495 11.8568 29.4398C11.3665 29.9301 10.7085 30.201 10.0247 30.201H9.48287V35.6972H11.1214ZM42.4988 11.0417C42.5891 11.1449 42.7052 11.2223 42.8213 11.2739C45.1307 12.3577 47.2596 13.7769 49.1561 15.4928L48.3562 15.2735C48.0853 15.209 47.8143 15.2348 47.5692 15.3767C47.337 15.5186 47.1563 15.738 47.0918 16.0089C47.0273 16.2798 47.0531 16.5508 47.195 16.7959C47.337 17.0282 47.5563 17.2088 47.8272 17.2733L52.201 18.4345C52.3687 18.4861 52.5493 18.4861 52.717 18.4345C52.8848 18.3958 53.0396 18.3054 53.1686 18.1764C53.2976 18.0603 53.3879 17.9055 53.4395 17.7378C53.4912 17.57 53.5041 17.3894 53.4653 17.2217L52.5106 12.835C52.4461 12.5641 52.2913 12.3319 52.059 12.19C51.8268 12.048 51.543 11.9964 51.2849 12.048C51.014 12.1125 50.7818 12.2674 50.6398 12.4996C50.4979 12.7318 50.4463 13.0157 50.4979 13.2737L50.6785 14.0865C48.6013 12.19 46.2532 10.603 43.6986 9.41605C43.5696 9.36445 43.4406 9.32574 43.3116 9.32574C43.1826 9.32574 43.0406 9.33864 42.9116 9.39025C42.7826 9.44186 42.6665 9.50637 42.5633 9.59668C42.4601 9.68699 42.3826 9.80311 42.331 9.91923C42.2794 10.0482 42.2407 10.1773 42.2407 10.3063C42.2407 10.4353 42.2536 10.5772 42.3052 10.7062C42.331 10.8224 42.4084 10.9385 42.4988 11.0417ZM63.632 24.5888C63.7739 24.7178 63.8771 24.8726 63.9416 25.0532C64.0061 25.2339 64.0061 25.4274 63.9932 25.608C63.9416 25.8016 63.8513 25.9693 63.7223 26.0983L60.4968 29.4141L61.1548 33.9942C61.1935 34.1878 61.1677 34.3813 61.0903 34.549C61.0129 34.7296 60.8968 34.8716 60.7419 34.9877C60.5871 35.1038 60.4194 35.1683 60.2259 35.1812C60.0452 35.1941 59.8517 35.1554 59.684 35.078L55.5296 33.0395L51.3752 35.078C51.2075 35.1683 51.0268 35.1941 50.8333 35.1812C50.6527 35.1683 50.4721 35.1038 50.3172 34.9877C50.1624 34.8716 50.0463 34.7167 49.9689 34.549C49.9044 34.3684 49.8786 34.1749 49.9044 33.9942L50.5624 29.4141L47.3369 26.0983C47.195 25.9564 47.1047 25.7887 47.066 25.608C47.0273 25.4274 47.0273 25.2339 47.0918 25.0532C47.1563 24.8726 47.2595 24.7178 47.4014 24.5888C47.5433 24.4727 47.724 24.3824 47.9046 24.3565L52.4589 23.5695L54.6136 19.4796C54.691 19.3119 54.8329 19.1829 54.9877 19.0797C55.1425 18.9765 55.3232 18.9249 55.5167 18.9249C55.6973 18.9249 55.8908 18.9765 56.0457 19.0797C56.2005 19.17 56.3295 19.3119 56.4198 19.4796L58.5744 23.5695L63.1288 24.3565C63.3223 24.3824 63.49 24.4598 63.632 24.5888ZM58.3938 28.7303C58.4454 28.5755 58.5228 28.4464 58.6389 28.3303L60.8581 26.0338L57.7229 25.4919C57.5681 25.4661 57.4262 25.4016 57.2971 25.3113C57.1681 25.221 57.0649 25.1049 56.9875 24.9629L55.5038 22.1503L54.0201 24.9629C53.9427 25.092 53.8394 25.221 53.7104 25.3113C53.5814 25.4016 53.4395 25.4661 53.2847 25.4919L50.1495 26.0338L52.3686 28.3174C52.4847 28.4335 52.5622 28.5626 52.6138 28.7174C52.6654 28.8722 52.6783 29.027 52.6525 29.1818L52.2009 32.3299L55.0522 30.9236C55.1941 30.8591 55.349 30.8204 55.5038 30.8204C55.6586 30.8204 55.8134 30.8591 55.9554 30.9236L58.8067 32.3299L58.3551 29.1947C58.3293 29.0399 58.3422 28.8851 58.3938 28.7303ZM11.4826 17.4669C11.689 17.6475 11.947 17.7378 12.218 17.7249C12.4889 17.712 12.747 17.5959 12.9276 17.3894C14.4113 15.7251 16.1144 14.2672 17.9722 13.0415L17.5723 13.7382C17.4303 13.9704 17.4045 14.2543 17.469 14.5252C17.5336 14.7962 17.7142 15.0155 17.9464 15.1574C18.1787 15.2993 18.4625 15.3251 18.7334 15.2606C19.0044 15.1961 19.2237 15.0155 19.3656 14.7833L21.6235 10.8611C21.7138 10.7063 21.7525 10.5385 21.7654 10.3579C21.7654 10.1773 21.7267 10.0096 21.6364 9.85475C21.546 9.69993 21.4299 9.57091 21.2751 9.48059C21.1203 9.39028 20.9526 9.33867 20.7719 9.32577L16.2821 9.10644C16.1402 9.09354 16.0111 9.11934 15.8821 9.15805C15.7531 9.20966 15.637 9.27417 15.5338 9.36448C15.4306 9.45479 15.3531 9.57091 15.2886 9.68703C15.2241 9.81604 15.1983 9.94506 15.1854 10.0741C15.1725 10.216 15.1983 10.345 15.2499 10.474C15.3015 10.6031 15.366 10.7192 15.4564 10.8224C15.5467 10.9256 15.6628 11.003 15.7789 11.0675C15.9079 11.1191 16.0369 11.1578 16.1789 11.1578L17.0304 11.1965C14.9403 12.5383 13.0437 14.164 11.3794 16.0218C11.1987 16.2283 11.1084 16.4992 11.1213 16.7572C11.16 17.0411 11.2762 17.2862 11.4826 17.4669Z" fill="url(#paint0_linear_1_1517)"/>
<defs>
<linearGradient id="paint0_linear_1_1517" x1="0" y1="0" x2="64.5233" y2="57.4119" gradientUnits="userSpaceOnUse">
<stop offset="0.179426" stop-color="#FE5B52"/>
<stop offset="0.857651" stop-color="#3E96F4"/>
</linearGradient>
</defs>
</svg>
