<svg width="80" height="70" viewBox="0 0 80 70" fill="none" xmlns="http://www.w3.org/2000/svg">
<path d="M71.7582 30.4943C71.5832 30.3915 71.3843 30.3362 71.1814 30.3337C70.9784 30.3312 70.7783 30.3818 70.6008 30.4803L67.3902 32.2642L66.5 1.134C66.4915 0.830277 66.3648 0.541856 66.147 0.33008C65.9291 0.118303 65.6372 -0.000119039 65.3333 8.97924e-08H57.1667C56.8628 -0.000119039 56.5709 0.118303 56.3531 0.33008C56.1352 0.541856 56.0085 0.830277 56 1.134L54.9127 39.2L51.3333 41.1833V31.5C51.3332 31.297 51.2801 31.0975 51.1793 30.9212C51.0785 30.745 50.9334 30.5981 50.7584 30.4951C50.5835 30.3922 50.3846 30.3366 50.1816 30.334C49.9786 30.3314 49.7784 30.3819 49.6008 30.4803L30.3333 41.1833V31.5C30.3332 31.297 30.2801 31.0975 30.1793 30.9212C30.0785 30.745 29.9334 30.5981 29.7584 30.4951C29.5834 30.3922 29.3846 30.3366 29.1816 30.334C28.9786 30.3314 28.7784 30.3819 28.6008 30.4803L7.60083 42.147C7.41885 42.2479 7.26717 42.3957 7.16152 42.575C7.05587 42.7543 7.00011 42.9586 7 43.1667V68.8333C7 69.1428 7.12292 69.4395 7.34171 69.6583C7.5605 69.8771 7.85725 70 8.16667 70H71.1667C71.4761 70 71.7728 69.8771 71.9916 69.6583C72.2104 69.4395 72.3333 69.1428 72.3333 68.8333V31.5C72.3334 31.2968 72.2803 31.0971 72.1794 30.9207C72.0785 30.7443 71.9333 30.5974 71.7582 30.4943ZM58.3007 2.33333H64.1993L64.267 4.66667H58.2342L58.3007 2.33333ZM58.1665 7H64.3335L65.0918 33.5405L57.2833 37.877L58.1665 7ZM38.5 67.6667H31.5V61.8333H38.5V67.6667ZM47.8333 67.6667H40.8333V61.8333H47.8333V67.6667ZM70 67.6667H50.1667V60.6667C50.1667 60.3572 50.0438 60.0605 49.825 59.8417C49.6062 59.6229 49.3094 59.5 49 59.5H30.3333C30.0239 59.5 29.7272 59.6229 29.5084 59.8417C29.2896 60.0605 29.1667 60.3572 29.1667 60.6667V67.6667H9.33333V43.8538L28 33.4833V43.1667C28.0001 43.3697 28.0532 43.5692 28.154 43.7454C28.2549 43.9217 28.3999 44.0685 28.5749 44.1715C28.7499 44.2745 28.9487 44.33 29.1517 44.3326C29.3548 44.3352 29.5549 44.2848 29.7325 44.1863L49 33.4833V43.1667C49.0001 43.3697 49.0532 43.5692 49.154 43.7454C49.2549 43.9217 49.3999 44.0685 49.5749 44.1715C49.7499 44.2745 49.9487 44.33 50.1517 44.3326C50.3548 44.3352 50.5549 44.2848 50.7325 44.1863L61.7353 38.0742L66.85 35.2333L70 33.4833V67.6667Z" fill="#3E96F4"/>
<path d="M23.3311 46.6672H13.9977C13.6883 46.6672 13.3916 46.7902 13.1728 47.0089C12.954 47.2277 12.8311 47.5245 12.8311 47.8339V52.5006C12.8311 52.81 12.954 53.1067 13.1728 53.3255C13.3916 53.5443 13.6883 53.6672 13.9977 53.6672H23.3311C23.6405 53.6672 23.9372 53.5443 24.156 53.3255C24.3748 53.1067 24.4977 52.81 24.4977 52.5006V47.8339C24.4977 47.5245 24.3748 47.2277 24.156 47.0089C23.9372 46.7902 23.6405 46.6672 23.3311 46.6672ZM22.1644 51.3339H15.1644V49.0006H22.1644V51.3339ZM44.3311 46.6672H34.9977C34.6883 46.6672 34.3916 46.7902 34.1728 47.0089C33.954 47.2277 33.8311 47.5245 33.8311 47.8339V52.5006C33.8311 52.81 33.954 53.1067 34.1728 53.3255C34.3916 53.5443 34.6883 53.6672 34.9977 53.6672H44.3311C44.6405 53.6672 44.9372 53.5443 45.156 53.3255C45.3748 53.1067 45.4977 52.81 45.4977 52.5006V47.8339C45.4977 47.5245 45.3748 47.2277 45.156 47.0089C44.9372 46.7902 44.6405 46.6672 44.3311 46.6672ZM43.1644 51.3339H36.1644V49.0006H43.1644V51.3339ZM65.3311 46.6672H55.9977C55.6883 46.6672 55.3916 46.7902 55.1728 47.0089C54.954 47.2277 54.8311 47.5245 54.8311 47.8339V52.5006C54.8311 52.81 54.954 53.1067 55.1728 53.3255C55.3916 53.5443 55.6883 53.6672 55.9977 53.6672H65.3311C65.6405 53.6672 65.9372 53.5443 66.156 53.3255C66.3748 53.1067 66.4977 52.81 66.4977 52.5006V47.8339C66.4977 47.5245 66.3748 47.2277 66.156 47.0089C65.9372 46.7902 65.6405 46.6672 65.3311 46.6672ZM64.1644 51.3339H57.1644V49.0006H64.1644V51.3339Z" fill="#3E96F4"/>
</svg>
