<svg width="56" height="56" viewBox="0 0 56 56" fill="none" xmlns="http://www.w3.org/2000/svg">
<path d="M54.6396 51.1432H54.1461V27.5393C54.1461 26.7343 53.3967 26.1935 52.6968 26.1935H51.8789V1.36033C51.8789 0.610219 51.3264 0 50.6474 0H46.4126C45.7336 0 45.1812 0.610219 45.1812 1.36033V26.1935H42.2207V5.89473C42.2207 5.14475 41.6682 4.53442 40.989 4.53442H36.7545C36.0754 4.53442 35.5228 5.14463 35.5228 5.89473V26.1935H30.8909V16.3167L33.0883 15.9309C33.4037 15.8759 33.6895 15.7114 33.8953 15.4662C34.1012 15.2211 34.2138 14.9111 34.2134 14.5911V12.5217C34.2138 12.323 34.1706 12.1266 34.0869 11.9465C34.003 11.7663 33.8808 11.6067 33.7286 11.479C33.5765 11.3512 33.3981 11.2584 33.2062 11.2071C33.0143 11.1557 32.8135 11.1472 32.6178 11.1819L3.64907 16.2694C3.33375 16.3243 3.04796 16.4888 2.84213 16.7339C2.63631 16.979 2.52366 17.2889 2.52408 17.609V19.6785C2.52371 19.857 2.55855 20.0338 2.62663 20.1989C2.6947 20.364 2.79466 20.514 2.92079 20.6404C3.04691 20.7667 3.19673 20.867 3.36164 20.9354C3.52657 21.0039 3.70337 21.039 3.88191 21.039C3.96081 21.039 4.04028 21.0321 4.11963 21.0183L5.84644 20.715V37.0505H2.79399C2.58353 37.0505 2.3817 37.134 2.23289 37.2829C2.08407 37.4317 2.00047 37.6335 2.00047 37.844V51.1432H1.36033C0.610219 51.1432 0 51.7535 0 52.5035V54.6396C0 55.3898 0.610219 56 1.36033 56H54.6396C55.3898 56 56 55.3898 56 54.6396V52.5035C56 51.7535 55.3898 51.1432 54.6396 51.1432ZM52.5591 51.1432H22.8922L22.8924 27.7806H52.559L52.5591 51.1432ZM50.2918 1.58705V3.0732H46.7681V1.58705H50.2918ZM46.7681 4.66024H50.2918V26.1935H46.7681V4.66024ZM40.6334 6.12146V7.60761H37.1095V6.12146H40.6334ZM37.1095 9.19476H40.6334V26.1935H37.1095V9.19476ZM4.11124 19.4085V17.7995L32.626 12.7917V14.4006L4.11124 19.4085ZM7.43361 20.4364L29.3035 16.5956V26.1936H22.5765C21.8399 26.1936 21.3052 26.7596 21.3052 27.5394V37.0506H7.43361V20.4364ZM3.58763 38.6376H21.3052V51.1433H19.0464V42.5773C19.0464 41.8273 18.4362 41.2171 17.686 41.2171H7.20677C6.45677 41.2171 5.84656 41.8273 5.84656 42.5773V51.1433H3.58763V38.6376ZM7.43361 51.1432V42.804H11.653V51.1432H7.43361ZM13.2401 42.804H17.4594V51.1432H13.2401V42.804ZM54.4129 54.4129H1.58705V52.7302H54.4129V54.4129ZM45.1723 47.4035H48.638C49.3881 47.4035 49.9984 46.7933 49.9984 46.0431V42.5773C49.9984 41.8274 49.3881 41.2171 48.638 41.2171H45.1723C44.4223 41.2171 43.812 41.8273 43.812 42.5773V46.0431C43.812 46.7931 44.4223 47.4035 45.1723 47.4035ZM45.3991 42.804H48.4113V45.8164H45.3991V42.804ZM26.8132 47.4035H30.279C31.029 47.4035 31.6392 46.7933 31.6392 46.0431V42.5773C31.6392 41.8274 31.029 41.2171 30.279 41.2171H26.8132C26.0631 41.2171 25.4529 41.8273 25.4529 42.5773V46.0431C25.4529 46.7931 26.0631 47.4035 26.8132 47.4035ZM27.0399 42.804H30.0521V45.8164H27.0399V42.804ZM35.9928 47.4035H39.4586C40.2087 47.4035 40.8189 46.7933 40.8189 46.0431V42.5773C40.8189 41.8274 40.2087 41.2171 39.4586 41.2171H35.9928C35.2427 41.2171 34.6325 41.8273 34.6325 42.5773V46.0431C34.6325 46.7931 35.2427 47.4035 35.9928 47.4035ZM36.2195 42.804H39.2318V45.8164H36.2195V42.804ZM26.8132 37.4771H30.279C31.029 37.4771 31.6392 36.8669 31.6392 36.1169V32.6511C31.6392 31.9009 31.029 31.2907 30.279 31.2907H26.8132C26.0631 31.2907 25.4529 31.9009 25.4529 32.6511V36.1169C25.4529 36.8668 26.0631 37.4771 26.8132 37.4771ZM27.0399 32.8778H30.0521V35.8901H27.0399V32.8778ZM45.1723 37.4771H48.638C49.3881 37.4771 49.9984 36.8669 49.9984 36.1169V32.6511C49.9984 31.9011 49.3881 31.2907 48.638 31.2907H45.1723C44.4223 31.2907 43.812 31.9009 43.812 32.6511V36.1169C43.812 36.8668 44.4223 37.4771 45.1723 37.4771ZM45.3991 32.8778H48.4113V35.8901H45.3991V32.8778ZM35.9928 37.4771H39.4586C40.2087 37.4771 40.8189 36.8669 40.8189 36.1169V32.6511C40.8189 31.9011 40.2087 31.2907 39.4586 31.2907H35.9928C35.2427 31.2907 34.6325 31.9009 34.6325 32.6511V36.1169C34.6325 36.8668 35.2427 37.4771 35.9928 37.4771ZM36.2195 32.8778H39.2318V35.8901H36.2195V32.8778ZM14.1794 21.1852H10.7136C9.96354 21.1852 9.3534 21.7955 9.3534 22.5455V26.0113C9.3534 26.7614 9.96354 27.3717 10.7136 27.3717H14.1794C14.9294 27.3717 15.5396 26.7614 15.5396 26.0113V22.5455C15.5396 21.7955 14.9294 21.1852 14.1794 21.1852ZM13.9526 25.7847H10.9404V22.7724H13.9526V25.7847ZM14.1794 29.0583H10.7136C9.96354 29.0583 9.3534 29.6685 9.3534 30.4187V33.8846C9.3534 34.6346 9.96354 35.2448 10.7136 35.2448H14.1794C14.9294 35.2448 15.5396 34.6346 15.5396 33.8846V30.4187C15.5396 29.6685 14.9294 29.0583 14.1794 29.0583ZM13.9526 33.6577H10.9404V30.6454H13.9526V33.6577Z" fill="url(#paint0_linear_0_474)"/>
<defs>
<linearGradient id="paint0_linear_0_474" x1="2.625" y1="1.37176e-06" x2="52.457" y2="51.2171" gradientUnits="userSpaceOnUse">
<stop stop-color="#FE5B52"/>
<stop offset="0.948075" stop-color="#3E96F4"/>
</linearGradient>
</defs>
</svg>
