<svg width="92" height="92" viewBox="0 0 92 92" fill="none" xmlns="http://www.w3.org/2000/svg">
<g filter="url(#filter0_d_0_438)">
<circle cx="42" cy="42" r="42" transform="matrix(1 0 0 -1 4 88)" fill="url(#paint0_radial_0_438)"/>
</g>
<path d="M30.8 30.7999C28.5944 30.7999 26.8 32.5943 26.8 34.7999C26.8 37.0055 28.5944 38.7999 30.8 38.7999C33.0056 38.7999 34.8 37.0055 34.8 34.7999C34.8 32.5943 33.0056 30.7999 30.8 30.7999ZM30.8 37.1999C29.4768 37.1999 28.4 36.1231 28.4 34.7999C28.4 33.4767 29.4768 32.3999 30.8 32.3999C32.1232 32.3999 33.2 33.4767 33.2 34.7999C33.2 36.1231 32.1232 37.1999 30.8 37.1999ZM69.5673 34.0895L46.3673 22.0895C46.2538 22.0307 46.1279 22 46.0001 22C45.8723 22 45.7463 22.0307 45.6329 22.0895L35.4624 27.3503C34.0671 26.4687 32.4505 26.0005 30.8 25.9999C25.948 25.9999 22 29.9479 22 34.7999V44.3999C22 44.6121 22.0843 44.8156 22.2343 44.9656C22.3843 45.1156 22.5878 45.1999 22.8 45.1999H28.1232C28.8089 45.9491 29.518 46.6764 30.2496 47.3807C30.3979 47.5224 30.595 47.6014 30.8 47.6014C31.005 47.6014 31.2022 47.5224 31.3504 47.3807C32.082 46.6764 32.7912 45.9491 33.4768 45.1999H37.2V61.0496C36.4744 61.471 35.8711 62.0743 35.4496 62.8H22.8C22.5878 62.8 22.3843 62.8843 22.2343 63.0343C22.0843 63.1843 22 63.3878 22 63.6C22 63.8122 22.0843 64.0156 22.2343 64.1657C22.3843 64.3157 22.5878 64.4 22.8 64.4H34.872C34.828 64.6608 34.8 64.9272 34.8 65.2C34.8 65.4728 34.828 65.7392 34.872 66H22.8C22.5878 66 22.3843 66.0843 22.2343 66.2343C22.0843 66.3843 22 66.5878 22 66.8C22 67.0122 22.0843 67.2156 22.2343 67.3657C22.3843 67.5157 22.5878 67.6 22.8 67.6H35.4496C36.2816 69.032 37.828 70 39.6001 70C41.3721 70 42.9193 69.032 43.7505 67.6H50.8001C52.1233 67.6 53.2001 66.5232 53.2001 65.2C53.2001 64.4936 52.8881 63.864 52.4001 63.424V58C52.4001 56.6768 51.3233 55.6 50.0001 55.6H48.9953L47.2801 49.8799C47.085 49.2192 46.6806 48.6396 46.1277 48.2284C45.5749 47.8172 44.9035 47.5967 44.2145 47.5999H38.8001V44.3999C38.8001 44.1877 38.7158 43.9843 38.5657 43.8342C38.4157 43.6842 38.2122 43.5999 38 43.5999H34.8888C35.108 43.3407 35.3288 43.0735 35.5496 42.7999H64.4001V52.3999H55.6001C55.3879 52.3999 55.1844 52.4842 55.0344 52.6343C54.8844 52.7843 54.8001 52.9878 54.8001 53.1999V69.2C54.8001 69.4122 54.8844 69.6157 55.0344 69.7657C55.1844 69.9157 55.3879 70 55.6001 70H69.2001C69.4123 70 69.6158 69.9157 69.7658 69.7657C69.9159 69.6157 70.0001 69.4122 70.0001 69.2V34.7999C70.0001 34.6532 69.9597 34.5093 69.8833 34.384C69.807 34.2587 69.6977 34.1568 69.5673 34.0895ZM39.6001 68.4C37.8352 68.4 36.4 66.9648 36.4 65.2C36.4 63.4352 37.8352 62 39.6001 62C41.3649 62 42.8001 63.4352 42.8001 65.2C42.8001 66.9648 41.3649 68.4 39.6001 68.4ZM50.8001 66H44.3281C44.3721 65.7392 44.4001 65.4728 44.4001 65.2C44.4001 64.9272 44.3721 64.6608 44.3281 64.4H50.8001C51.0061 64.4092 51.2006 64.4975 51.3431 64.6465C51.4856 64.7956 51.5651 64.9938 51.5651 65.2C51.5651 65.4062 51.4856 65.6044 51.3431 65.7534C51.2006 65.9025 51.0061 65.9908 50.8001 66ZM47.3249 55.6H42.8001V52.3999H46.3649L47.3249 55.6ZM44.2145 49.1999C44.9265 49.1999 45.5425 49.6583 45.7473 50.3399L45.8849 50.7999H42.0001C41.7879 50.7999 41.5844 50.8842 41.4344 51.0343C41.2843 51.1843 41.2001 51.3878 41.2001 51.5999V56.4C41.2001 56.6121 41.2843 56.8156 41.4344 56.9656C41.5844 57.1157 41.7879 57.2 42.0001 57.2H50.0001C50.4417 57.2 50.8001 57.5592 50.8001 58V62.8H43.7505C43.3299 62.0711 42.725 61.4657 41.9965 61.0445C41.268 60.6232 40.4416 60.401 39.6001 60.4C39.3273 60.4 39.0609 60.428 38.8001 60.472V49.1999H44.2145ZM23.6 43.5999V39.3335C24.4872 40.8271 25.6256 42.3159 26.7112 43.5999H23.6ZM30.8 45.6839C28.372 43.2695 23.6 37.8871 23.6 34.7999C23.6 30.8303 26.8304 27.5999 30.8 27.5999C34.7696 27.5999 38 30.8303 38 34.7999C38 35.9151 37.3712 37.3319 36.46 38.7999H36.4V38.8991C34.7888 41.4607 32.3296 44.1615 30.8 45.6839ZM36.7712 41.1999C36.9608 40.9359 37.1456 40.6687 37.3256 40.3999H64.4001V41.1999H36.7712ZM61.2001 54V55.3808L61.0641 55.1776C60.9909 55.0687 60.8921 54.9794 60.7763 54.9177C60.6605 54.856 60.5313 54.8238 60.4001 54.8238C60.2689 54.8238 60.1397 54.856 60.0239 54.9177C59.9081 54.9794 59.8093 55.0687 59.7361 55.1776L59.6001 55.3808V54H61.2001ZM56.4001 54H58.0001V58C57.9997 58.1716 58.0545 58.3387 58.1564 58.4768C58.2583 58.6149 58.4019 58.7165 58.566 58.7667C58.7301 58.817 58.906 58.8131 59.0677 58.7557C59.2294 58.6983 59.3684 58.5904 59.4641 58.448L60.4001 57.056L61.3361 58.4464C61.4318 58.5887 61.5706 58.6965 61.7321 58.7539C61.8937 58.8114 62.0694 58.8154 62.2334 58.7654C62.3975 58.7154 62.5411 58.614 62.6431 58.4762C62.7451 58.3384 62.8002 58.1714 62.8001 58V54H64.4001V60.4H56.4001V54ZM59.6001 62H61.2001V63.3808L61.0641 63.1776C60.9909 63.0687 60.8921 62.9795 60.7763 62.9178C60.6605 62.8561 60.5313 62.8238 60.4001 62.8238C60.2689 62.8238 60.1397 62.8561 60.0239 62.9178C59.9081 62.9795 59.8093 63.0687 59.7361 63.1776L59.6001 63.3808V62ZM56.4001 62H58.0001V66C57.9997 66.1716 58.0545 66.3388 58.1564 66.4768C58.2583 66.6149 58.4019 66.7166 58.566 66.7668C58.7301 66.817 58.906 66.8131 59.0677 66.7557C59.2294 66.6983 59.3684 66.5904 59.4641 66.448L60.4001 65.056L61.3361 66.4464C61.4318 66.5887 61.5706 66.6965 61.7321 66.754C61.8937 66.8114 62.0694 66.8154 62.2334 66.7654C62.3975 66.7154 62.5411 66.614 62.6431 66.4762C62.7451 66.3384 62.8002 66.1715 62.8001 66V62H64.4001V68.4H56.4001V62ZM68.4001 68.4H66.0001V39.5999C66.0001 39.3877 65.9158 39.1842 65.7658 39.0342C65.6158 38.8842 65.4123 38.7999 65.2001 38.7999H38.3056C39.0817 37.3927 39.6001 36.0031 39.6001 34.7999C39.6001 32.2943 38.5416 30.0351 36.8552 28.4311L46.0001 23.7007L68.4001 35.2863V68.4ZM42.0001 32.3999C42.0001 34.6055 43.7945 36.3999 46.0001 36.3999C48.2057 36.3999 50.0001 34.6055 50.0001 32.3999C50.0001 30.1943 48.2057 28.3999 46.0001 28.3999C43.7945 28.3999 42.0001 30.1943 42.0001 32.3999ZM48.4001 32.3999C48.4001 33.7231 47.3233 34.7999 46.0001 34.7999C44.6769 34.7999 43.6001 33.7231 43.6001 32.3999C43.6001 31.0767 44.6769 29.9999 46.0001 29.9999C47.3233 29.9999 48.4001 31.0767 48.4001 32.3999ZM39.6001 62.8C38.2768 62.8 37.2 63.8768 37.2 65.2C37.2 66.5232 38.2768 67.6 39.6001 67.6C40.9233 67.6 42.0001 66.5232 42.0001 65.2C42.0001 63.8768 40.9233 62.8 39.6001 62.8ZM39.6001 66C39.1593 66 38.8001 65.6408 38.8001 65.2C38.8001 64.7592 39.1593 64.4 39.6001 64.4C40.0409 64.4 40.4001 64.7592 40.4001 65.2C40.4001 65.6408 40.0409 66 39.6001 66ZM22 58.8C22 58.5878 22.0843 58.3843 22.2343 58.2343C22.3843 58.0842 22.5878 58 22.8 58H30C30.2122 58 30.4157 58.0842 30.5657 58.2343C30.7157 58.3843 30.8 58.5878 30.8 58.8C30.8 59.0121 30.7157 59.2156 30.5657 59.3657C30.4157 59.5157 30.2122 59.6 30 59.6H22.8C22.5878 59.6 22.3843 59.5157 22.2343 59.3657C22.0843 59.2156 22 59.0121 22 58.8ZM22 54.8C22 54.5878 22.0843 54.3843 22.2343 54.2343C22.3843 54.0842 22.5878 54 22.8 54H29.2C29.4122 54 29.6157 54.0842 29.7657 54.2343C29.9157 54.3843 30 54.5878 30 54.8C30 55.0121 29.9157 55.2156 29.7657 55.3656C29.6157 55.5157 29.4122 55.6 29.2 55.6H22.8C22.5878 55.6 22.3843 55.5157 22.2343 55.3656C22.0843 55.2156 22 55.0121 22 54.8ZM22 50.7999C22 50.5878 22.0843 50.3843 22.2343 50.2343C22.3843 50.0842 22.5878 49.9999 22.8 49.9999H28.4C28.6122 49.9999 28.8157 50.0842 28.9657 50.2343C29.1157 50.3843 29.2 50.5878 29.2 50.7999C29.2 51.0121 29.1157 51.2156 28.9657 51.3656C28.8157 51.5157 28.6122 51.5999 28.4 51.5999H22.8C22.5878 51.5999 22.3843 51.5157 22.2343 51.3656C22.0843 51.2156 22 51.0121 22 50.7999Z" fill="url(#paint1_linear_0_438)"/>
<defs>
<filter id="filter0_d_0_438" x="0" y="0" width="92" height="92" filterUnits="userSpaceOnUse" color-interpolation-filters="sRGB">
<feFlood flood-opacity="0" result="BackgroundImageFix"/>
<feColorMatrix in="SourceAlpha" type="matrix" values="0 0 0 0 0 0 0 0 0 0 0 0 0 0 0 0 0 0 127 0" result="hardAlpha"/>
<feOffset/>
<feGaussianBlur stdDeviation="2"/>
<feComposite in2="hardAlpha" operator="out"/>
<feColorMatrix type="matrix" values="0 0 0 0 0.0747504 0 0 0 0 0.360452 0 0 0 0 0.665634 0 0 0 0.2 0"/>
<feBlend mode="normal" in2="BackgroundImageFix" result="effect1_dropShadow_0_438"/>
<feBlend mode="normal" in="SourceGraphic" in2="effect1_dropShadow_0_438" result="shape"/>
</filter>
<radialGradient id="paint0_radial_0_438" cx="0" cy="0" r="1" gradientUnits="userSpaceOnUse" gradientTransform="translate(42 42) rotate(90) scale(42)">
<stop offset="0.546875" stop-color="white"/>
<stop offset="1" stop-color="white"/>
</radialGradient>
<linearGradient id="paint1_linear_0_438" x1="70.3844" y1="70.0776" x2="34.361" y2="27.9769" gradientUnits="userSpaceOnUse">
<stop stop-color="#31393C"/>
<stop offset="1" stop-color="#3D96F5"/>
</linearGradient>
</defs>
</svg>
