<svg width="56" height="64" viewBox="0 0 56 64" fill="none" xmlns="http://www.w3.org/2000/svg">
<path d="M17.8022 12.7327C15.85 13.4701 14.4513 15.3424 14.4513 17.5491C14.4513 18.3989 14.6777 19.1897 15.0431 19.8978C13.4948 20.493 12.3869 21.9861 12.3869 23.7425C12.3869 25.4996 13.4948 26.9919 15.0431 27.5877C14.6777 28.2959 14.4514 29.0867 14.4514 29.936C14.4514 32.1431 15.8501 34.0156 17.8022 34.7524C17.6474 35.1848 17.548 35.6446 17.548 36.1295C17.548 38.4066 19.3999 40.2584 21.677 40.2584C22.1912 40.2584 22.6786 40.1521 23.1327 39.9806C23.8016 41.3612 25.2043 42.3229 26.8383 42.3229C29.1155 42.3229 30.9673 40.4711 30.9673 38.1939V9.29116C30.9673 7.01442 29.1155 5.16219 26.8383 5.16219C25.2043 5.16219 23.8016 6.12436 23.1327 7.50434C22.6785 7.33299 22.1912 7.22667 21.6771 7.22667C19.3999 7.22667 17.5481 9.0789 17.5481 11.3556C17.5481 11.8411 17.6475 12.3001 17.8022 12.7327ZM21.677 9.29116C22.8157 9.29116 23.7415 10.2171 23.7415 11.3556H25.806C25.806 10.3637 25.4396 9.46354 24.8545 8.75129C25.0938 7.87634 25.8878 7.22667 26.8383 7.22667C27.9769 7.22667 28.9028 8.15259 28.9028 9.29116V38.1939C28.9028 39.3325 27.9769 40.2584 26.8383 40.2584C25.8878 40.2584 25.0938 39.6093 24.8545 38.7337C25.4396 38.0214 25.8061 37.1218 25.8061 36.1295H23.7416C23.7416 37.268 22.8157 38.1939 21.6771 38.1939C20.5386 38.1939 19.6126 37.268 19.6126 36.1295C19.6126 34.9909 20.5386 34.065 21.6771 34.065V32.0005C20.6716 32.0005 19.7613 32.3765 19.045 32.9753C17.6081 32.7076 16.5159 31.4495 16.5159 29.936C16.5159 28.2289 17.9056 26.8393 19.6126 26.8393C21.3202 26.8393 22.7094 28.2289 22.7094 29.936H24.7738C24.7738 27.0902 22.4589 24.7748 19.6126 24.7748C18.4462 24.7748 17.3808 25.1785 16.5159 25.8341V25.807C15.3773 25.807 14.4514 24.8811 14.4514 23.7425C14.4514 22.604 15.3773 21.6781 16.5159 21.6781V21.6514C17.3808 22.3071 18.4462 22.7103 19.6126 22.7103C22.4589 22.7103 24.7738 20.3952 24.7738 17.5491H22.7094C22.7094 19.2567 21.3202 20.6458 19.6126 20.6458C17.9056 20.6458 16.5159 19.2567 16.5159 17.5491C16.5159 16.036 17.6081 14.7779 19.045 14.5103C19.7613 15.109 20.6716 15.4845 21.6771 15.4845V13.42C20.5386 13.42 19.6126 12.4942 19.6126 11.3555C19.6126 10.2171 20.5386 9.29103 21.6771 9.29103L21.677 9.29116ZM42.322 7.22667C41.8079 7.22667 41.3209 7.33299 40.8669 7.50434C40.1975 6.12436 38.7948 5.16219 37.1608 5.16219C34.8835 5.16219 33.0318 7.01442 33.0318 9.29116V38.1939C33.0318 40.4711 34.8835 42.3229 37.1608 42.3229C38.7948 42.3229 40.1975 41.3612 40.8669 39.9806C41.3211 40.1521 41.8079 40.2584 42.322 40.2584C44.5991 40.2584 46.4509 38.4066 46.4509 36.1295C46.4509 35.6446 46.3521 35.185 46.1969 34.7524C48.1491 34.0156 49.5477 32.1431 49.5477 29.936C49.5477 29.0867 49.3219 28.2959 48.9564 27.5877C50.5048 26.9919 51.6121 25.4996 51.6121 23.7425C51.6121 21.9861 50.5048 20.493 48.9564 19.8978C49.3219 19.1897 49.5477 18.3989 49.5477 17.5491C49.5477 15.3424 48.149 13.4701 46.1969 12.7327C46.3521 12.3001 46.4509 11.8411 46.4509 11.3556C46.4509 9.0789 44.5991 7.22667 42.322 7.22667ZM47.4832 17.5491C47.4832 19.2567 46.094 20.6458 44.3864 20.6458C42.6794 20.6458 41.2897 19.2567 41.2897 17.5491H39.2252C39.2252 20.3952 41.5407 22.7103 44.3864 22.7103C45.5528 22.7103 46.6183 22.3071 47.4832 21.6514V21.6781C48.6217 21.6781 49.5477 22.604 49.5477 23.7425C49.5477 24.8811 48.6217 25.807 47.4832 25.807V25.8341C46.6183 25.1785 45.5528 24.7748 44.3864 24.7748C41.5407 24.7748 39.2252 27.0902 39.2252 29.936H41.2897C41.2897 28.2289 42.6794 26.8393 44.3864 26.8393C46.094 26.8393 47.4832 28.2289 47.4832 29.936C47.4832 31.4495 46.3909 32.7076 44.9544 32.9752C44.2378 32.3765 43.3274 32.0005 42.322 32.0005V34.065C43.4605 34.065 44.3864 34.9909 44.3864 36.1295C44.3864 37.268 43.4605 38.1939 42.322 38.1939C41.1834 38.1939 40.2575 37.268 40.2575 36.1295H38.193C38.193 37.1218 38.5594 38.0216 39.1446 38.7337C38.9051 39.6093 38.1113 40.2584 37.1608 40.2584C36.0222 40.2584 35.0963 39.3325 35.0963 38.1939V9.29116C35.0963 8.15259 36.0222 7.22667 37.1608 7.22667C38.1113 7.22667 38.9052 7.87634 39.1446 8.75129C38.5594 9.46354 38.193 10.3637 38.193 11.3556H40.2575C40.2575 10.2171 41.1834 9.29116 42.322 9.29116C43.4605 9.29116 44.3864 10.2171 44.3864 11.3556C44.3864 12.4942 43.4605 13.4201 42.322 13.4201V15.4846C43.3275 15.4846 44.2378 15.1091 44.9544 14.5103C46.3909 14.7779 47.4832 16.0361 47.4832 17.5491Z" fill="url(#paint0_linear_1_490)"/>
<path d="M48.2542 6.4383C43.4308 1.90469 37.1134 -0.36844 30.4834 0.0487152L30.6114 2.10881C36.6694 1.7323 42.4354 3.80376 46.841 7.94227C51.2486 12.0844 53.6766 17.6967 53.6766 23.7425C53.6766 31.0282 50.045 37.7841 43.9619 41.8153C41.8639 43.2064 40.276 45.1907 39.2977 47.4841H24.6585C23.6666 45.1741 22.0728 43.1758 19.9711 41.772C13.702 37.5821 10.0997 30.5846 10.3342 23.0509L8.27071 22.9869C8.01356 31.2369 11.9597 38.901 18.8245 43.4877C20.3406 44.5013 21.5512 45.8812 22.3949 47.4841H19.6127V49.5486H23.2185C23.4186 50.2174 23.5789 50.9029 23.66 51.6131H21.6772V53.6776H23.7417V56.7743C23.7417 57.3454 24.2044 57.8065 24.7739 57.8065H25.8062C25.8062 61.2222 28.5838 64 31.9996 64C35.4155 64 38.1931 61.2222 38.1931 57.8065H39.2253C39.7954 57.8065 40.2576 57.3454 40.2576 56.7743V53.6776H42.3221V51.6131H40.3301C40.4033 50.9039 40.5489 50.2165 40.7449 49.5486H44.3866V47.4841H41.5595C42.3911 45.899 43.5947 44.536 45.1033 43.5371C51.7639 39.1199 55.7412 31.7208 55.7412 23.7425C55.7412 17.217 53.0118 10.9091 48.2542 6.4383ZM31.9995 61.9355C29.7223 61.9355 27.8705 60.0837 27.8705 57.8065H36.1285C36.1285 60.0837 34.2766 61.9355 31.9995 61.9355ZM38.193 55.7421H25.8061V53.6776H38.193V55.7421ZM38.2665 51.6131H25.7235C25.6543 50.9105 25.5428 50.22 25.3736 49.5486H38.5875C38.4233 50.2189 38.3281 50.9125 38.2665 51.6131ZM7.2257 7.22667C9.50282 7.22667 11.3547 9.0789 11.3547 11.3556C11.3547 11.9267 11.8174 12.3879 12.3869 12.3879C12.957 12.3879 13.4192 11.9267 13.4192 11.3556C13.4192 9.0789 15.2709 7.22667 17.5481 7.22667C18.1182 7.22667 18.5804 6.76552 18.5804 6.19443C18.5804 5.62386 18.1182 5.16219 17.5481 5.16219C15.2709 5.16219 13.4192 3.31034 13.4192 1.03322C13.4192 0.759449 13.3104 0.496894 13.1168 0.303311C12.9232 0.109728 12.6607 0.000974 12.3869 0.000974C12.1131 0.000974 11.8506 0.109728 11.657 0.303311C11.4634 0.496894 11.3547 0.759449 11.3547 1.03322C11.3547 3.31034 9.50282 5.16219 7.2257 5.16219C6.95193 5.16219 6.68937 5.27094 6.49579 5.46452C6.30221 5.65811 6.19345 5.92066 6.19345 6.19443C6.19345 6.76552 6.65616 7.22667 7.2257 7.22667ZM12.3869 4.45304C12.8461 5.1433 13.438 5.73526 14.1283 6.19443C13.4382 6.65374 12.8462 7.24567 12.3869 7.93582C11.9277 7.24556 11.3358 6.6536 10.6455 6.19443C11.3359 5.7354 11.9279 5.14341 12.3869 4.45304ZM11.3547 17.5491C11.9247 17.5491 12.3869 17.0879 12.3869 16.5169C12.3869 15.9463 11.9247 15.4846 11.3547 15.4846C9.07741 15.4846 7.2257 13.6328 7.2257 11.3556C7.2257 11.0819 7.11694 10.8193 6.92336 10.6257C6.72978 10.4322 6.46722 10.3234 6.19345 10.3234C5.91969 10.3234 5.65713 10.4322 5.46355 10.6257C5.26997 10.8193 5.16121 11.0819 5.16121 11.3556C5.16121 13.6328 3.30937 15.4846 1.03224 15.4846C0.758475 15.4846 0.49592 15.5934 0.302337 15.7869C0.108754 15.9805 0 16.2431 0 16.5169C0 17.0879 0.462703 17.5491 1.03224 17.5491C3.30937 17.5491 5.16121 19.4013 5.16121 21.6781C5.16121 22.2492 5.62391 22.7103 6.19345 22.7103C6.76351 22.7103 7.2257 22.2492 7.2257 21.6781C7.2257 19.4013 9.07741 17.5491 11.3547 17.5491ZM6.19345 18.2582C5.73429 17.568 5.14232 16.976 4.45206 16.5169C5.14221 16.0575 5.73415 15.4656 6.19345 14.7755C6.6529 15.4655 7.24481 16.0574 7.93485 16.5169C7.2447 16.9762 6.65276 17.5681 6.19345 18.2582Z" fill="url(#paint1_linear_1_490)"/>
<defs>
<linearGradient id="paint0_linear_1_490" x1="51.0905" y1="35.9359" x2="21.4469" y2="0.00924172" gradientUnits="userSpaceOnUse">
<stop stop-color="#3E96F4"/>
<stop offset="1" stop-color="#FE5B52"/>
</linearGradient>
<linearGradient id="paint1_linear_1_490" x1="55" y1="53" x2="3" y2="0.999999" gradientUnits="userSpaceOnUse">
<stop stop-color="#3E96F4"/>
<stop offset="1" stop-color="#FE5B52"/>
</linearGradient>
</defs>
</svg>
