<svg width="64" height="64" viewBox="0 0 64 64" fill="none" xmlns="http://www.w3.org/2000/svg">
<rect width="64" height="64" rx="8" fill="#3E96F4"/>
<path d="M32.5 44C33.9323 44 35.1657 43.131 35.7069 41.8906H29.2932C29.8344 43.131 31.0678 44 32.5 44ZM39.7333 31.6185V30.0781C39.7333 26.8052 37.5675 24.0312 34.6 23.1252V22.1094C34.6 20.9463 33.658 20 32.5 20C31.3421 20 30.4 20.9463 30.4 22.1094V23.1252C27.4325 24.0312 25.2667 26.8052 25.2667 30.0781V31.6185C25.2667 34.4935 24.1758 37.2195 22.1948 39.2946C22.0998 39.3941 22.0361 39.5194 22.0114 39.6549C21.9867 39.7905 22.0023 39.9304 22.0561 40.0572C22.11 40.1839 22.1997 40.292 22.3142 40.368C22.4287 40.4439 22.5629 40.4844 22.7001 40.4844H42.3C42.4372 40.4844 42.5714 40.4439 42.6858 40.3679C42.8003 40.292 42.89 40.1839 42.9439 40.0571C42.9977 39.9304 43.0133 39.7905 42.9886 39.6549C42.964 39.5194 42.9002 39.3941 42.8052 39.2946C40.8243 37.2195 39.7333 34.4934 39.7333 31.6185ZM33.2 22.8466C32.9696 22.8243 32.7362 22.8125 32.5 22.8125C32.2639 22.8125 32.0304 22.8243 31.8 22.8466V22.1094C31.8 21.7217 32.1141 21.4062 32.5 21.4062C32.886 21.4062 33.2 21.7217 33.2 22.1094V22.8466ZM41.6 30.0781C41.6 30.4664 41.9134 30.7812 42.3 30.7812C42.6866 30.7812 43 30.4664 43 30.0781C43 27.2609 41.9078 24.6124 39.9246 22.6203C39.6513 22.3458 39.208 22.3457 38.9347 22.6203C38.6613 22.8949 38.6613 23.3401 38.9347 23.6147C40.6534 25.3411 41.6 27.6365 41.6 30.0781ZM22.7001 30.7812C23.0867 30.7812 23.4001 30.4664 23.4001 30.0781C23.4001 27.6366 24.3467 25.3412 26.0654 23.6147C26.3388 23.3401 26.3388 22.895 26.0654 22.6204C25.7921 22.3458 25.3488 22.3458 25.0754 22.6204C23.0923 24.6124 22.0001 27.2609 22.0001 30.0781C22.0001 30.4664 22.3135 30.7812 22.7001 30.7812Z" fill="white"/>
</svg>
