<svg width="66" height="66" viewBox="0 0 66 66" fill="none" xmlns="http://www.w3.org/2000/svg">
<g clip-path="url(#clip0_0_648)">
<path d="M53.1094 0H12.8906C5.77133 0 0 5.77133 0 12.8906V53.1094C0 60.2287 5.77133 66 12.8906 66H53.1094C60.2287 66 66 60.2287 66 53.1094V12.8906C66 5.77133 60.2287 0 53.1094 0Z" fill="#1E0B4B"/>
<path d="M3.86719 15.4688V53.1094C3.86719 55.5025 4.81787 57.7977 6.51009 59.4899C8.20231 61.1821 10.4975 62.1328 12.8906 62.1328H53.1094C55.5025 62.1328 57.7977 61.1821 59.4899 59.4899C61.1821 57.7977 62.1328 55.5025 62.1328 53.1094V15.4688H3.86719Z" fill="white"/>
<path opacity="0.7" d="M53.1094 3.86719H12.8906C10.7211 3.86756 8.62429 4.6496 6.98438 6.07006C5.34447 7.49051 4.27124 9.45426 3.9613 11.6016H62.0349C61.725 9.45491 60.6523 7.49169 59.0132 6.07132C57.3741 4.65095 55.2783 3.86849 53.1094 3.86719ZM47.6953 9.02344C47.4404 9.02344 47.1911 8.94784 46.9792 8.80619C46.7672 8.66455 46.602 8.46322 46.5044 8.22768C46.4068 7.99213 46.3813 7.73294 46.431 7.48289C46.4808 7.23284 46.6035 7.00315 46.7838 6.82287C46.9641 6.64259 47.1938 6.51982 47.4438 6.47008C47.6939 6.42034 47.9531 6.44587 48.1886 6.54344C48.4242 6.641 48.6255 6.80623 48.7671 7.01821C48.9088 7.2302 48.9844 7.47942 48.9844 7.73438C48.9844 8.07626 48.8486 8.40413 48.6068 8.64588C48.3651 8.88763 48.0372 9.02344 47.6953 9.02344ZM51.5625 9.02344C51.3076 9.02344 51.0583 8.94784 50.8463 8.80619C50.6344 8.66455 50.4691 8.46322 50.3716 8.22768C50.274 7.99213 50.2485 7.73294 50.2982 7.48289C50.348 7.23284 50.4707 7.00315 50.651 6.82287C50.8313 6.64259 51.061 6.51982 51.311 6.47008C51.5611 6.42034 51.8203 6.44587 52.0558 6.54344C52.2914 6.641 52.4927 6.80623 52.6343 7.01821C52.776 7.2302 52.8516 7.47942 52.8516 7.73438C52.8516 8.07626 52.7158 8.40413 52.474 8.64588C52.2323 8.88763 51.9044 9.02344 51.5625 9.02344ZM55.4297 9.02344C55.1748 9.02344 54.9255 8.94784 54.7135 8.80619C54.5016 8.66455 54.3363 8.46322 54.2388 8.22768C54.1412 7.99213 54.1157 7.73294 54.1654 7.48289C54.2151 7.23284 54.3379 7.00315 54.5182 6.82287C54.6985 6.64259 54.9282 6.51982 55.1782 6.47008C55.4283 6.42034 55.6875 6.44587 55.923 6.54344C56.1586 6.641 56.3599 6.80623 56.5015 7.01821C56.6432 7.2302 56.7188 7.47942 56.7188 7.73438C56.7188 8.07626 56.583 8.40413 56.3412 8.64588C56.0995 8.88763 55.7716 9.02344 55.4297 9.02344Z" fill="white"/>
<path d="M15.5177 21.4836C12.3673 24.7565 13.0118 28.2331 13.0118 38.7957C13.0118 47.5613 11.4817 56.3591 19.4906 58.4281C21.9914 59.0726 44.1517 59.0726 46.6486 58.4281C49.9834 57.567 52.6969 54.8625 53.0668 50.1459C53.1197 49.4884 53.1197 28.1196 53.0668 27.448C52.6724 22.4207 49.5799 19.528 45.5052 18.9402C44.5719 18.8049 44.385 18.7636 39.5935 18.7559C22.596 18.7636 18.8706 18.007 15.5177 21.4836Z" fill="url(#paint0_linear_0_648)"/>
<path d="M33.0567 23.9998C26.9904 23.9998 21.2296 23.4609 19.0304 29.107C18.1203 31.4389 18.257 34.4682 18.257 38.8046C18.257 42.6112 18.1281 46.1871 19.0304 48.501C21.2218 54.1522 27.0316 53.6108 33.0528 53.6108C38.8614 53.6108 44.8516 54.2154 47.0778 48.501C47.9892 46.1458 47.8513 43.1617 47.8513 38.8046C47.8513 33.0219 48.1697 29.2875 45.3647 26.4838C42.5287 23.6478 38.6848 23.9998 33.0464 23.9998H33.0567ZM31.7303 26.6681C44.3837 26.6475 45.9937 25.2411 45.1056 44.7833C44.7898 51.694 39.5265 50.9334 33.058 50.9334C21.2631 50.9334 20.9241 50.5957 20.9241 38.7956C20.9241 26.8589 21.8599 26.672 31.7303 26.6617V26.6681ZM40.9587 29.1251C40.6073 29.1251 40.2639 29.2292 39.9718 29.4244C39.6797 29.6196 39.452 29.897 39.3176 30.2216C39.1831 30.5462 39.1479 30.9034 39.2165 31.2479C39.285 31.5925 39.4542 31.909 39.7026 32.1574C39.951 32.4059 40.2675 32.5751 40.6121 32.6436C40.9567 32.7121 41.3139 32.677 41.6384 32.5425C41.963 32.4081 42.2404 32.1804 42.4356 31.8883C42.6308 31.5962 42.735 31.2527 42.735 30.9014C42.735 30.4303 42.5478 29.9785 42.2147 29.6453C41.8816 29.3122 41.4298 29.1251 40.9587 29.1251ZM33.0567 31.2017C31.5525 31.2017 30.0821 31.6478 28.8313 32.4835C27.5806 33.3192 26.6058 34.507 26.0302 35.8967C25.4545 37.2864 25.3039 38.8157 25.5974 40.291C25.8908 41.7663 26.6152 43.1214 27.6788 44.1851C28.7425 45.2487 30.0976 45.9731 31.573 46.2665C33.0483 46.56 34.5775 46.4094 35.9672 45.8338C37.3569 45.2581 38.5447 44.2833 39.3804 43.0326C40.2161 41.7819 40.6622 40.3114 40.6622 38.8072C40.6622 36.7901 39.8609 34.8556 38.4346 33.4293C37.0083 32.003 35.0738 31.2017 33.0567 31.2017ZM33.0567 33.8701C39.5807 33.8701 39.5884 43.7405 33.0567 43.7405C26.525 43.7405 26.5237 33.8701 33.0567 33.8701Z" fill="white"/>
</g>
<defs>
<linearGradient id="paint0_linear_0_648" x1="15.6893" y1="56.2633" x2="52.9503" y2="24.0086" gradientUnits="userSpaceOnUse">
<stop stop-color="#FFDD55"/>
<stop offset="0.5" stop-color="#FF543E"/>
<stop offset="1" stop-color="#C837AB"/>
</linearGradient>
<clipPath id="clip0_0_648">
<rect width="66" height="66" fill="white"/>
</clipPath>
</defs>
</svg>
