<svg width="39" height="39" viewBox="0 0 39 39" fill="none" xmlns="http://www.w3.org/2000/svg">
<path d="M12.7877 19.18C12.7877 15.6492 15.6492 12.7862 19.18 12.7862C22.7108 12.7862 25.5738 15.6492 25.5738 19.18C25.5738 22.7108 22.7108 25.5738 19.18 25.5738C15.6492 25.5738 12.7877 22.7108 12.7877 19.18ZM9.3313 19.18C9.3313 24.6194 13.7406 29.0287 19.18 29.0287C24.6194 29.0287 29.0287 24.6194 29.0287 19.18C29.0287 13.7406 24.6194 9.3313 19.18 9.3313C13.7406 9.3313 9.3313 13.7406 9.3313 19.18ZM27.117 8.9408C27.1168 9.39601 27.2516 9.84105 27.5044 10.2197C27.7571 10.5982 28.1165 10.8934 28.537 11.0678C28.9574 11.2421 29.4202 11.2879 29.8667 11.1993C30.3132 11.1106 30.7234 10.8916 31.0454 10.5698C31.3674 10.2481 31.5868 9.83807 31.6758 9.39164C31.7648 8.94521 31.7194 8.48241 31.5453 8.06178C31.3713 7.64115 31.0765 7.28157 30.6981 7.02852C30.3197 6.77546 29.8747 6.6403 29.4195 6.64012H29.4186C28.8084 6.6404 28.2233 6.88285 27.7918 7.31423C27.3602 7.7456 27.1175 8.33062 27.117 8.9408ZM11.4313 34.7921C9.56131 34.7069 8.54492 34.3954 7.86948 34.1323C6.974 33.7837 6.33508 33.3684 5.66332 32.6976C4.99156 32.0268 4.57573 31.3885 4.22865 30.493C3.96535 29.8178 3.65387 28.8011 3.56886 26.9312C3.47588 24.9095 3.45731 24.3021 3.45731 19.1802C3.45731 14.0582 3.47741 13.4525 3.56886 11.4291C3.65402 9.55916 3.9678 8.54446 4.22865 7.86733C4.57727 6.97185 4.99248 6.33293 5.66332 5.66117C6.33416 4.98941 6.97247 4.57359 7.86948 4.22651C8.54461 3.9632 9.56131 3.65172 11.4313 3.56671C13.453 3.47373 14.0603 3.45516 19.18 3.45516C24.2997 3.45516 24.9076 3.47526 26.931 3.56671C28.801 3.65187 29.8157 3.96566 30.4928 4.22651C31.3883 4.57359 32.0272 4.99033 32.699 5.66117C33.3707 6.33201 33.785 6.97185 34.1336 7.86733C34.3969 8.54247 34.7084 9.55916 34.7934 11.4291C34.8864 13.4525 34.905 14.0582 34.905 19.1802C34.905 24.3021 34.8864 24.9078 34.7934 26.9312C34.7083 28.8011 34.3953 29.8175 34.1336 30.493C33.785 31.3885 33.3698 32.0274 32.699 32.6976C32.0281 33.3678 31.3883 33.7837 30.4928 34.1323C29.8177 34.3956 28.801 34.7071 26.931 34.7921C24.9093 34.885 24.302 34.9036 19.18 34.9036C14.058 34.9036 13.4524 34.885 11.4313 34.7921ZM11.2725 0.116154C9.23064 0.209139 7.83541 0.532897 6.61695 1.00703C5.35506 1.49665 4.28681 2.15353 3.21932 3.21932C2.15184 4.28512 1.49665 5.35506 1.00703 6.61695C0.532897 7.83618 0.209139 9.23064 0.116154 11.2725C0.021635 13.3175 0 13.9713 0 19.18C0 24.3887 0.021635 25.0425 0.116154 27.0875C0.209139 29.1295 0.532897 30.5238 1.00703 31.7431C1.49665 33.0042 2.152 34.0753 3.21932 35.1407C4.28665 36.206 5.35506 36.862 6.61695 37.353C7.83771 37.8271 9.23064 38.1509 11.2725 38.2438C13.3186 38.3368 13.9713 38.36 19.18 38.36C24.3887 38.36 25.0425 38.3384 27.0875 38.2438C29.1295 38.1509 30.5238 37.8271 31.7431 37.353C33.0042 36.862 34.0732 36.2065 35.1407 35.1407C36.2082 34.0749 36.862 33.0042 37.353 31.7431C37.8271 30.5238 38.1524 29.1294 38.2438 27.0875C38.3368 25.0409 38.3585 24.3887 38.3585 19.18C38.3585 13.9713 38.3368 13.3175 38.2438 11.2725C38.1509 9.23049 37.8271 7.83541 37.353 6.61695C36.862 5.35582 36.2065 4.28681 35.1407 3.21932C34.0749 2.15184 33.0042 1.49665 31.7446 1.00703C30.5238 0.532897 29.1294 0.207604 27.0891 0.116154C25.044 0.0231694 24.3902 0 19.1815 0C13.9729 0 13.3186 0.021635 11.2725 0.116154Z" fill="url(#paint0_radial_160_297)"/>
<path d="M12.7877 19.18C12.7877 15.6492 15.6492 12.7862 19.18 12.7862C22.7108 12.7862 25.5738 15.6492 25.5738 19.18C25.5738 22.7108 22.7108 25.5738 19.18 25.5738C15.6492 25.5738 12.7877 22.7108 12.7877 19.18ZM9.3313 19.18C9.3313 24.6194 13.7406 29.0287 19.18 29.0287C24.6194 29.0287 29.0287 24.6194 29.0287 19.18C29.0287 13.7406 24.6194 9.3313 19.18 9.3313C13.7406 9.3313 9.3313 13.7406 9.3313 19.18ZM27.117 8.9408C27.1168 9.39601 27.2516 9.84105 27.5044 10.2197C27.7571 10.5982 28.1165 10.8934 28.537 11.0678C28.9574 11.2421 29.4202 11.2879 29.8667 11.1993C30.3132 11.1106 30.7234 10.8916 31.0454 10.5698C31.3674 10.2481 31.5868 9.83807 31.6758 9.39164C31.7648 8.94521 31.7194 8.48241 31.5453 8.06178C31.3713 7.64115 31.0765 7.28157 30.6981 7.02852C30.3197 6.77546 29.8747 6.6403 29.4195 6.64012H29.4186C28.8084 6.6404 28.2233 6.88285 27.7918 7.31423C27.3602 7.7456 27.1175 8.33062 27.117 8.9408ZM11.4313 34.7921C9.56131 34.7069 8.54492 34.3954 7.86948 34.1323C6.974 33.7837 6.33508 33.3684 5.66332 32.6976C4.99156 32.0268 4.57573 31.3885 4.22865 30.493C3.96535 29.8178 3.65387 28.8011 3.56886 26.9312C3.47588 24.9095 3.45731 24.3021 3.45731 19.1802C3.45731 14.0582 3.47741 13.4525 3.56886 11.4291C3.65402 9.55916 3.9678 8.54446 4.22865 7.86733C4.57727 6.97185 4.99248 6.33293 5.66332 5.66117C6.33416 4.98941 6.97247 4.57359 7.86948 4.22651C8.54461 3.9632 9.56131 3.65172 11.4313 3.56671C13.453 3.47373 14.0603 3.45516 19.18 3.45516C24.2997 3.45516 24.9076 3.47526 26.931 3.56671C28.801 3.65187 29.8157 3.96566 30.4928 4.22651C31.3883 4.57359 32.0272 4.99033 32.699 5.66117C33.3707 6.33201 33.785 6.97185 34.1336 7.86733C34.3969 8.54247 34.7084 9.55916 34.7934 11.4291C34.8864 13.4525 34.905 14.0582 34.905 19.1802C34.905 24.3021 34.8864 24.9078 34.7934 26.9312C34.7083 28.8011 34.3953 29.8175 34.1336 30.493C33.785 31.3885 33.3698 32.0274 32.699 32.6976C32.0281 33.3678 31.3883 33.7837 30.4928 34.1323C29.8177 34.3956 28.801 34.7071 26.931 34.7921C24.9093 34.885 24.302 34.9036 19.18 34.9036C14.058 34.9036 13.4524 34.885 11.4313 34.7921ZM11.2725 0.116154C9.23064 0.209139 7.83541 0.532897 6.61695 1.00703C5.35506 1.49665 4.28681 2.15353 3.21932 3.21932C2.15184 4.28512 1.49665 5.35506 1.00703 6.61695C0.532897 7.83618 0.209139 9.23064 0.116154 11.2725C0.021635 13.3175 0 13.9713 0 19.18C0 24.3887 0.021635 25.0425 0.116154 27.0875C0.209139 29.1295 0.532897 30.5238 1.00703 31.7431C1.49665 33.0042 2.152 34.0753 3.21932 35.1407C4.28665 36.206 5.35506 36.862 6.61695 37.353C7.83771 37.8271 9.23064 38.1509 11.2725 38.2438C13.3186 38.3368 13.9713 38.36 19.18 38.36C24.3887 38.36 25.0425 38.3384 27.0875 38.2438C29.1295 38.1509 30.5238 37.8271 31.7431 37.353C33.0042 36.862 34.0732 36.2065 35.1407 35.1407C36.2082 34.0749 36.862 33.0042 37.353 31.7431C37.8271 30.5238 38.1524 29.1294 38.2438 27.0875C38.3368 25.0409 38.3585 24.3887 38.3585 19.18C38.3585 13.9713 38.3368 13.3175 38.2438 11.2725C38.1509 9.23049 37.8271 7.83541 37.353 6.61695C36.862 5.35582 36.2065 4.28681 35.1407 3.21932C34.0749 2.15184 33.0042 1.49665 31.7446 1.00703C30.5238 0.532897 29.1294 0.207604 27.0891 0.116154C25.044 0.0231694 24.3902 0 19.1815 0C13.9729 0 13.3186 0.021635 11.2725 0.116154Z" fill="url(#paint1_radial_160_297)"/>
<defs>
<radialGradient id="paint0_radial_160_297" cx="0" cy="0" r="1" gradientUnits="userSpaceOnUse" gradientTransform="translate(5.09636 38.5412) scale(50.0758 50.0758)">
<stop offset="0.09" stop-color="#FA8F21"/>
<stop offset="0.78" stop-color="#D82D7E"/>
</radialGradient>
<radialGradient id="paint1_radial_160_297" cx="0" cy="0" r="1" gradientUnits="userSpaceOnUse" gradientTransform="translate(23.2637 40.2597) scale(39.4666 39.4666)">
<stop offset="0.64" stop-color="#8C3AAA" stop-opacity="0"/>
<stop offset="1" stop-color="#8C3AAA"/>
</radialGradient>
</defs>
</svg>
