<svg width="19" height="19" viewBox="0 0 19 19" fill="none" xmlns="http://www.w3.org/2000/svg">
<g clip-path="url(#clip0_1104_5053)">
<path fill-rule="evenodd" clip-rule="evenodd" d="M18.46 12.8701C18.45 13.4801 18.41 14.1001 18.31 14.7001C18.12 15.9401 17.57 16.9901 16.6 17.8001C15.66 18.5901 14.54 18.9001 13.34 18.9801C12.91 19.0101 12.47 19.0301 12.03 19.0601H6.45997C6.34997 19.0501 6.23997 19.0301 6.11997 19.0301C5.38997 19.0101 4.65997 18.9801 3.93997 18.8001C2.39997 18.4301 1.25997 17.5501 0.589974 16.1101C0.169974 15.2101 0.0399743 14.2501 0.0299743 13.2701C0.00997432 11.2601 -0.0100257 9.25012 -2.56838e-05 7.23012C0.00997432 6.27012 0.00997432 5.30012 0.249974 4.35012C0.649974 2.71012 1.59997 1.52012 3.17997 0.880121C4.01997 0.530121 4.90997 0.440121 5.80997 0.430121C7.68997 0.410121 9.56997 0.390121 11.45 0.400121C12.44 0.400121 13.43 0.390121 14.4 0.610121C16.2 1.00012 17.45 2.04012 18.08 3.80012C18.39 4.65012 18.46 5.53012 18.46 6.42012C18.47 8.57012 18.48 10.7201 18.46 12.8701ZM16.82 7.81012C16.82 6.91012 16.79 6.00012 16.68 5.10012C16.51 3.60012 15.57 2.58012 14.11 2.29012C13.47 2.16012 12.8 2.12012 12.15 2.11012C10.42 2.08012 8.67997 2.08012 6.94997 2.10012C6.13997 2.11012 5.32997 2.14012 4.53997 2.26012C3.11997 2.47012 2.15997 3.39012 1.87997 4.80012C1.74997 5.41012 1.70997 6.04012 1.69997 6.66012C1.66997 8.17012 1.65997 9.67012 1.66997 11.1801C1.67997 12.2201 1.70997 13.2701 1.80997 14.3101C1.91997 15.3801 2.41997 16.2501 3.36997 16.8001C3.94997 17.1401 4.58997 17.2801 5.24997 17.3001C6.57997 17.3501 7.90997 17.3701 9.24997 17.4101V17.3801C9.72997 17.3801 10.22 17.3901 10.71 17.3701C11.76 17.3401 12.82 17.3501 13.86 17.2201C15.29 17.0301 16.25 16.2001 16.6 14.7701C16.73 14.2001 16.78 13.6001 16.79 13.0101C16.83 11.2701 16.84 9.54012 16.82 7.81012Z" fill="#F1F0F5"/>
<path fill-rule="evenodd" clip-rule="evenodd" d="M14 9.70968C14.01 12.3797 11.87 14.5597 9.24999 14.5597C6.61999 14.5597 4.48999 12.3897 4.48999 9.71968C4.48999 7.04968 6.62999 4.87968 9.24999 4.88968C11.88 4.89968 13.99 7.03968 14 9.70968ZM12.32 9.72968C12.33 7.98968 10.96 6.58968 9.24999 6.58968C7.53999 6.57968 6.15999 7.97968 6.15999 9.72968C6.16999 11.4597 7.53999 12.8497 9.23999 12.8497C10.95 12.8497 12.32 11.4597 12.32 9.72968Z" fill="#F1F0F5"/>
<path d="M14.2099 3.63049C13.5999 3.61049 13.0899 4.09049 13.0799 4.70049C13.0599 5.32049 13.5499 5.83049 14.1599 5.84049C14.7799 5.85049 15.2799 5.38049 15.2899 4.77049C15.3099 4.14049 14.8299 3.64049 14.2099 3.63049Z" fill="#F1F0F5"/>
</g>
<defs>
<clipPath id="clip0_1104_5053">
<rect width="19" height="19" fill="white"/>
</clipPath>
</defs>
</svg>
