<svg width="218" height="58" viewBox="0 0 218 58" fill="none" xmlns="http://www.w3.org/2000/svg">
<path d="M76.7138 11.1473C73.6846 12.4157 70.3545 15.9992 69.3028 20.4974C67.9708 26.1966 73.5137 28.6067 73.9683 27.8165C74.5034 26.8879 72.9751 26.5739 72.6605 23.6169C72.2539 19.7976 74.0288 15.53 76.2626 13.6575C76.6778 13.3096 76.6581 13.7938 76.6581 14.6894C76.6581 16.2911 76.5696 30.6688 76.5696 33.6695C76.5696 37.7298 76.402 39.0119 76.1009 40.2789C75.7958 41.5628 75.3054 42.4303 75.677 42.7645C76.0922 43.1383 77.865 42.2491 78.8913 40.8162C80.1219 39.0977 80.5527 37.0338 80.6301 34.7925C80.7235 32.0906 80.7195 27.8033 80.7235 25.3579C80.7272 23.1151 80.7612 16.5476 80.6842 12.5994C80.6653 11.631 77.9806 10.615 76.7136 11.1461M184.28 30.149C184.182 32.2598 183.715 33.9097 183.135 35.0735C182.013 37.3265 179.685 38.0261 178.696 34.7873C178.157 33.0219 178.132 30.0734 178.519 27.6098C178.914 25.1 180.015 23.2046 181.838 23.3756C183.636 23.5445 184.478 25.8627 184.28 30.149ZM153.963 43.2451C153.939 46.7524 153.387 49.8276 152.204 50.7207C150.526 51.9872 148.27 51.0372 148.737 48.4779C149.15 46.2132 151.105 43.9003 153.968 41.0743C153.968 41.0743 153.974 41.7188 153.963 43.2451ZM153.505 30.1286C153.402 32.0511 152.904 33.9825 152.361 35.0738C151.239 37.3267 148.893 38.0311 147.921 34.7876C147.256 32.5715 147.415 29.7033 147.744 27.8961C148.171 25.5513 149.205 23.3761 151.063 23.3761C152.869 23.3761 153.76 25.3581 153.505 30.1286ZM135.942 30.0992C135.832 32.1353 135.435 33.8375 134.798 35.0738C133.645 37.3112 131.364 38.0208 130.358 34.7876C129.633 32.4562 129.88 29.2772 130.182 27.5599C130.629 25.0116 131.75 23.2049 133.5 23.3761C135.298 23.5517 136.172 25.8627 135.942 30.0992ZM216.427 32.4775C215.988 32.4775 215.787 32.9306 215.621 33.6934C215.046 36.3454 214.441 36.9442 213.661 36.9442C212.79 36.9442 212.007 35.631 211.805 33.0023C211.647 30.9353 211.673 27.1298 211.875 23.3444C211.916 22.5667 211.702 21.7971 209.617 21.0393C208.719 20.7133 207.415 20.2334 206.765 21.8016C204.931 26.2322 204.213 29.7497 204.044 31.1786C204.035 31.2526 203.944 31.2677 203.928 31.0949C203.821 29.9504 203.58 27.8707 203.55 23.5012C203.544 22.6487 203.364 21.923 202.423 21.3289C201.813 20.9434 199.96 20.2616 199.292 21.0727C198.714 21.7361 198.044 23.5214 197.349 25.6376C196.783 27.3576 196.389 28.5211 196.389 28.5211C196.389 28.5211 196.397 23.8802 196.404 22.1199C196.407 21.4557 195.951 21.2344 195.814 21.1943C195.196 21.0149 193.978 20.7151 193.461 20.7151C192.824 20.7151 192.667 21.0717 192.667 21.5913C192.667 21.6593 192.567 27.7015 192.567 31.9265C192.567 32.11 192.567 32.3102 192.569 32.5229C192.216 34.4648 191.072 37.1008 189.828 37.1008C188.582 37.1008 187.995 35.9988 187.995 30.9619C187.995 28.0236 188.083 26.7459 188.126 24.6207C188.151 23.3966 188.2 22.4566 188.197 22.2433C188.188 21.5892 187.057 21.2594 186.531 21.1376C186.003 21.0147 185.543 20.9671 185.185 20.9876C184.677 21.0162 184.318 21.3494 184.318 21.8077C184.318 22.0534 184.32 22.5207 184.32 22.5207C183.667 21.4927 182.615 20.7772 181.915 20.5699C180.03 20.01 178.064 20.5061 176.58 22.5827C175.401 24.2327 174.69 26.1015 174.411 28.7864C174.206 30.7493 174.273 32.7397 174.636 34.4231C174.197 36.3226 173.382 37.1008 172.489 37.1008C171.193 37.1008 170.253 34.9844 170.362 31.3243C170.434 28.9168 170.916 27.2274 171.442 24.7832C171.667 23.7413 171.484 23.1958 171.027 22.6729C170.607 22.1935 169.714 21.9485 168.429 22.2498C167.514 22.4646 166.205 22.6956 165.008 22.873C165.008 22.873 165.08 22.5847 165.139 22.0764C165.451 19.4104 162.555 19.6267 161.631 20.4782C161.079 20.9866 160.704 21.5862 160.561 22.6642C160.335 24.375 161.73 25.1819 161.73 25.1819C161.273 27.2775 160.151 30.0149 158.993 31.9941C158.372 33.0545 157.898 33.8403 157.285 34.6755C157.283 34.3645 157.281 34.0535 157.28 33.744C157.266 29.3383 157.325 25.8709 157.351 24.6211C157.376 23.3971 157.425 22.482 157.422 22.2687C157.415 21.7902 157.136 21.6095 156.555 21.3807C156.041 21.1784 155.434 21.0383 154.804 20.9895C154.009 20.9274 153.53 21.3493 153.542 21.8482C153.545 21.9424 153.545 22.5209 153.545 22.5209C152.891 21.4929 151.839 20.7774 151.139 20.5701C149.255 20.0104 147.288 20.5065 145.805 22.5829C144.626 24.2329 143.854 26.5482 143.635 28.7661C143.431 30.8332 143.469 32.5899 143.747 34.0697C143.447 35.5514 142.585 37.101 141.611 37.101C140.365 37.101 139.657 35.9989 139.657 30.9621C139.657 28.0238 139.745 26.7461 139.788 24.6211C139.813 23.3971 139.862 22.4568 139.859 22.2437C139.85 21.5896 138.719 21.2599 138.193 21.1378C137.643 21.0104 137.167 20.9636 136.802 20.9905C136.321 21.0264 135.982 21.4578 135.982 21.7795V22.5209C135.328 21.4929 134.277 20.7774 133.577 20.5701C131.692 20.0104 129.736 20.5145 128.242 22.5829C127.268 23.9316 126.479 25.4268 126.073 28.7367C125.955 29.6932 125.903 30.5889 125.91 31.4261C125.522 33.8036 123.805 36.5438 122.401 36.5438C121.58 36.5438 120.797 34.9496 120.797 31.5522C120.797 27.0267 121.077 20.5833 121.125 19.9623C121.125 19.9623 122.898 19.9321 123.242 19.9281C124.127 19.9184 124.928 19.9393 126.107 19.879C126.698 19.8489 127.267 17.7267 126.657 17.464C126.381 17.3451 124.426 17.241 123.652 17.2245C123 17.2098 121.187 17.0755 121.187 17.0755C121.187 17.0755 121.349 12.7987 121.387 12.3469C121.419 11.9703 120.932 11.7765 120.653 11.6588C119.974 11.3715 119.367 11.2339 118.646 11.0854C117.651 10.8801 117.2 11.0809 117.112 11.921C116.979 13.1959 116.91 16.9302 116.91 16.9302C116.18 16.9302 113.686 16.7874 112.956 16.7874C112.277 16.7874 111.545 19.7069 112.483 19.7427C113.562 19.7846 115.443 19.8207 116.69 19.8584C116.69 19.8584 116.635 26.4079 116.635 28.43C116.635 28.6451 116.637 28.8522 116.637 29.0533C115.951 32.6318 113.533 34.5649 113.533 34.5649C114.053 32.1975 112.992 30.4196 111.082 28.9147C110.378 28.3601 108.989 27.3103 107.434 26.1598C107.434 26.1598 108.335 25.2721 109.133 23.4863C109.699 22.2214 109.723 20.7737 108.335 20.4545C106.04 19.9267 104.149 21.6123 103.584 23.4118C103.147 24.8058 103.38 25.8403 104.237 26.9148C104.299 26.9934 104.367 27.0736 104.437 27.1543C103.919 28.1529 103.208 29.4974 102.605 30.54C100.933 33.4347 99.6692 35.7244 98.7144 35.7244C97.9511 35.7244 97.9613 33.3998 97.9613 31.2233C97.9613 29.347 98.0999 26.5261 98.2105 23.6054C98.2471 22.6395 97.7643 22.0893 96.955 21.5909C96.4632 21.2881 95.4137 20.6927 94.8059 20.6927C93.8961 20.6927 91.2713 20.8166 88.7911 27.9934C88.4786 28.898 87.8646 30.5462 87.8646 30.5462L87.9174 21.9158C87.9174 21.7135 87.8097 21.5179 87.563 21.384C87.1451 21.157 86.0288 20.6927 85.0363 20.6927C84.5634 20.6927 84.3274 20.9128 84.3274 21.3514L84.2408 34.8537C84.2408 35.8796 84.2676 37.0765 84.3689 37.5999C84.47 38.1241 84.6336 38.5504 84.8363 38.8041C85.0387 39.0573 85.2728 39.2504 85.6589 39.3301C86.0181 39.4041 87.9854 39.6569 88.0877 38.9048C88.2102 38.0034 88.2149 37.0285 89.2479 33.3926C90.8561 27.732 92.9529 24.9701 93.9386 23.9892C94.111 23.8178 94.3078 23.8075 94.2983 24.0881C94.2562 25.3292 94.1082 28.4303 94.0086 31.0648C93.7416 38.1153 95.0237 39.4221 96.8559 39.4221C98.2577 39.4221 100.234 38.0288 102.352 34.5018C103.672 32.3039 104.954 30.1488 105.876 28.5955C106.518 29.19 107.238 29.8298 107.958 30.5134C109.631 32.1018 110.18 33.6112 109.816 35.0431C109.537 36.1378 108.487 37.2659 106.619 36.1694C106.074 35.8495 105.842 35.6024 105.294 35.2417C105 35.048 104.551 34.9901 104.282 35.193C103.582 35.7206 103.182 36.3917 102.954 37.2226C102.732 38.031 103.541 38.4584 104.38 38.8322C105.102 39.1539 106.655 39.4454 107.645 39.4786C111.504 39.6077 114.594 37.6151 116.746 32.475C117.131 36.9141 118.77 39.4261 121.618 39.4261C123.522 39.4261 125.431 36.9641 126.266 34.5422C126.505 35.5294 126.86 36.388 127.318 37.114C129.512 40.5921 133.769 39.8435 135.908 36.89C136.569 35.9774 136.67 35.6494 136.67 35.6494C136.981 38.4382 139.226 39.4126 140.512 39.4126C141.951 39.4126 143.438 38.7318 144.48 36.3856C144.602 36.6402 144.735 36.8834 144.88 37.1139C147.075 40.592 151.332 39.8434 153.47 36.8899C153.571 36.7514 153.659 36.6257 153.735 36.5129L153.798 38.3447C153.798 38.3447 152.578 39.4642 151.829 40.151C148.533 43.1758 146.027 45.4707 145.843 48.1431C145.606 51.5508 148.369 52.8172 150.459 52.9832C152.679 53.1594 154.579 51.9328 155.748 50.2163C156.775 48.7054 157.448 45.4535 157.398 42.2418C157.379 40.9556 157.346 39.3203 157.321 37.5675C158.479 36.2218 159.784 34.521 160.986 32.5301C162.296 30.3605 163.699 27.4468 164.418 25.1793C164.418 25.1793 165.637 25.1898 166.939 25.1046C167.355 25.0774 167.474 25.1624 167.397 25.4677C167.305 25.8365 165.753 31.8218 167.169 35.8091C168.138 38.5386 170.322 39.4168 171.618 39.4168C173.134 39.4168 174.584 38.2714 175.361 36.5707C175.455 36.7603 175.553 36.9437 175.66 37.1131C177.854 40.5913 182.096 39.8382 184.249 36.8892C184.735 36.2238 185.011 35.6486 185.011 35.6486C185.473 38.5349 187.717 39.4265 189.002 39.4265C190.341 39.4265 191.611 38.8775 192.642 36.4376C192.685 37.5119 192.753 38.3903 192.86 38.6673C192.925 38.8366 193.306 39.0492 193.583 39.1519C194.807 39.6062 196.056 39.3914 196.518 39.298C196.838 39.2331 197.088 38.9762 197.122 38.3128C197.212 36.5709 197.157 33.6442 197.685 31.4692C198.571 27.8189 199.397 26.4029 199.789 25.7019C200.009 25.3092 200.256 25.2444 200.265 25.66C200.284 26.5011 200.326 28.971 200.669 32.2893C200.921 34.7299 201.258 36.1724 201.517 36.629C202.255 37.9345 203.168 37.9964 203.91 37.9964C204.383 37.9964 205.371 37.8657 205.283 37.0349C205.24 36.6299 205.315 34.1272 206.189 30.5309C206.759 28.1825 207.71 26.0605 208.053 25.2847C208.18 24.9986 208.239 25.2241 208.237 25.2681C208.164 26.8854 208.002 32.1755 208.661 35.0688C209.554 38.9882 212.136 39.4268 213.036 39.4268C214.958 39.4268 216.529 37.9647 217.059 34.1175C217.186 33.1917 216.997 32.4768 216.432 32.4768" fill="#262626"/>
<path d="M44.7235 0H13.4699C6.08406 0 0.0966797 5.98738 0.0966797 13.3732V44.6268C0.0966797 52.0126 6.08406 58 13.4699 58H44.7235C52.1093 58 58.0967 52.0126 58.0967 44.6268V13.3732C58.0967 5.98738 52.1093 0 44.7235 0Z" fill="url(#paint0_linear_2_3712)"/>
<path d="M38.4504 11.4426C40.6522 11.4515 42.7613 12.3301 44.3183 13.887C45.8752 15.4439 46.7538 17.5531 46.7627 19.7549V38.2451C46.7538 40.4469 45.8752 42.5561 44.3183 44.113C42.7613 45.6699 40.6522 46.5485 38.4504 46.5574H19.7432C17.5413 46.5485 15.4322 45.6699 13.8753 44.113C12.3184 42.5561 11.4398 40.4469 11.4309 38.2451V19.7549C11.4398 17.5531 12.3184 15.4439 13.8753 13.887C15.4322 12.3301 17.5413 11.4515 19.7432 11.4426H38.4504ZM38.4504 7.57644H19.7432C13.0447 7.57644 7.56348 13.0639 7.56348 19.7561V38.2451C7.56348 44.9436 13.0509 50.4248 19.7432 50.4248H38.4504C45.1489 50.4248 50.6301 44.9373 50.6301 38.2451V19.7549C50.6301 13.0564 45.1489 7.5752 38.4504 7.5752V7.57644Z" fill="white"/>
<path d="M29.0971 21.7828C30.5245 21.7828 31.9199 22.2061 33.1068 22.9991C34.2937 23.7922 35.2187 24.9193 35.765 26.2381C36.3112 27.5569 36.4542 29.0081 36.1757 30.4081C35.8972 31.8081 35.2098 33.0941 34.2005 34.1034C33.1911 35.1128 31.9051 35.8002 30.5051 36.0786C29.1051 36.3571 27.654 36.2142 26.3352 35.6679C25.0164 35.1217 23.8892 34.1966 23.0962 33.0098C22.3031 31.8229 21.8798 30.4275 21.8798 29.0001C21.8822 27.0866 22.6433 25.2522 23.9963 23.8992C25.3493 22.5462 27.1837 21.7851 29.0971 21.7828ZM29.0971 17.9166C26.905 17.9166 24.7621 18.5667 22.9395 19.7845C21.1168 21.0024 19.6962 22.7334 18.8574 24.7586C18.0185 26.7838 17.799 29.0124 18.2266 31.1623C18.6543 33.3123 19.7099 35.2872 21.2599 36.8372C22.81 38.3873 24.7849 39.4429 26.9348 39.8705C29.0848 40.2982 31.3133 40.0787 33.3386 39.2398C35.3638 38.4009 37.0948 36.9803 38.3126 35.1577C39.5305 33.335 40.1805 31.1922 40.1805 29.0001C40.1805 26.0605 39.0128 23.2414 36.9343 21.1629C34.8557 19.0843 32.0366 17.9166 29.0971 17.9166Z" fill="white"/>
<path d="M40.4227 20.0577C41.8739 20.0577 43.0504 18.8813 43.0504 17.43C43.0504 15.9787 41.8739 14.8022 40.4227 14.8022C38.9714 14.8022 37.7949 15.9787 37.7949 17.43C37.7949 18.8813 38.9714 20.0577 40.4227 20.0577Z" fill="white"/>
<defs>
<linearGradient id="paint0_linear_2_3712" x1="0.0380982" y1="-0.0586438" x2="58.1553" y2="58.0586" gradientUnits="userSpaceOnUse">
<stop stop-color="#4861D7"/>
<stop offset="0.5" stop-color="#DF3477"/>
<stop offset="1" stop-color="#FECB66"/>
</linearGradient>
</defs>
</svg>
