<svg width="48" height="48" viewBox="0 0 48 48" fill="none" xmlns="http://www.w3.org/2000/svg">
<rect width="48" height="48" rx="8" fill="white"/>
<path fill-rule="evenodd" clip-rule="evenodd" d="M2.41814 12H19.3451C20.6751 12 21.7632 13.0882 21.7632 14.4181V32.796C21.7632 34.4887 20.0705 35.6977 18.4987 35.0932L16.5642 34.3678C15.9597 34.1259 15.3552 34.1259 14.7506 34.4887L11.8489 35.8186C11.2443 36.0605 10.5189 36.0605 9.91436 35.8186L7.01259 34.4887C6.40806 34.2469 5.80353 34.2469 5.19899 34.3678L3.26448 34.9723C1.69269 35.5768 0 34.3678 0 32.796V14.4181C0 13.0882 1.08816 12 2.41814 12ZM16.927 19.0126C17.4106 19.0126 17.8942 18.6499 17.8942 18.0453C17.8942 17.4408 17.4106 17.0781 16.927 17.0781H4.83627C4.35264 17.0781 3.86902 17.5617 3.86902 18.0453C3.86902 18.529 4.35264 19.0126 4.83627 19.0126H16.927ZM17.8942 22.8816C17.8942 23.3652 17.5315 23.8489 16.927 23.8489H4.83627C4.35264 23.8489 3.86902 23.4861 3.86902 22.8816C3.86902 22.2771 4.23174 21.9144 4.83627 21.9144H16.927C17.4106 21.9144 17.8942 22.398 17.8942 22.8816ZM10.8816 28.6851C11.3652 28.6851 11.8489 28.3224 11.8489 27.7179C11.8489 27.1133 11.4861 26.7506 10.8816 26.7506H4.83627C4.35264 26.7506 3.86902 27.1133 3.86902 27.7179C3.86902 28.3224 4.23174 28.6851 4.83627 28.6851H10.8816Z" fill="#3E96F4"/>
</svg>
