<svg width="28" height="28" viewBox="0 0 28 28" fill="none" xmlns="http://www.w3.org/2000/svg">
<mask id="mask0_2591_926" style="mask-type:alpha" maskUnits="userSpaceOnUse" x="0" y="0" width="28" height="28">
<rect width="28" height="28" fill="#D9D9D9"/>
</mask>
<g mask="url(#mask0_2591_926)">
<path d="M11.032 17.7L12.6654 16.0375L10.1279 13.5L12.6654 10.9625L11.032 9.3L6.83203 13.5L11.032 17.7ZM16.632 17.7L20.832 13.5L16.632 9.3L14.9987 10.9625L17.5362 13.5L14.9987 16.0375L16.632 17.7ZM5.66536 24C5.0237 24 4.47439 23.7715 4.01745 23.3146C3.5605 22.8576 3.33203 22.3083 3.33203 21.6667V5.33333C3.33203 4.69167 3.5605 4.14236 4.01745 3.68542C4.47439 3.22847 5.0237 3 5.66536 3H21.9987C22.6404 3 23.1897 3.22847 23.6466 3.68542C24.1036 4.14236 24.332 4.69167 24.332 5.33333V21.6667C24.332 22.3083 24.1036 22.8576 23.6466 23.3146C23.1897 23.7715 22.6404 24 21.9987 24H5.66536Z" fill="#3DA4C2"/>
</g>
</svg>
