<svg width="36" height="36" viewBox="0 0 36 36" fill="none" xmlns="http://www.w3.org/2000/svg">
<g clip-path="url(#clip0_2565_3132)">
<path fill-rule="evenodd" clip-rule="evenodd" d="M0 5.4C0 2.41766 2.41766 0 5.4 0H30.6C33.5823 0 36 2.41766 36 5.4V22.05C36 25.0323 33.5823 27.45 30.6 27.45H29.25C28.7529 27.45 28.35 27.0471 28.35 26.55C28.35 26.0529 28.7529 25.65 29.25 25.65H30.6C32.5882 25.65 34.2 24.0382 34.2 22.05V5.4C34.2 3.41177 32.5882 1.8 30.6 1.8H5.4C3.41177 1.8 1.8 3.41177 1.8 5.4V22.05C1.8 24.0382 3.41177 25.65 5.4 25.65H6.75C7.24705 25.65 7.65 26.0529 7.65 26.55C7.65 27.0471 7.24705 27.45 6.75 27.45H5.4C2.41766 27.45 0 25.0323 0 22.05V5.4Z" fill="#3DA4C2"/>
<path fill-rule="evenodd" clip-rule="evenodd" d="M34.2008 8.99995H1.80078V7.19995H34.2008V8.99995Z" fill="#3DA4C2"/>
<path d="M5.39961 4.49998C5.39961 4.99703 4.99666 5.39998 4.49961 5.39998C4.00256 5.39998 3.59961 4.99703 3.59961 4.49998C3.59961 4.00292 4.00256 3.59998 4.49961 3.59998C4.99666 3.59998 5.39961 4.00292 5.39961 4.49998Z" fill="#3DA4C2"/>
<path d="M8.10078 4.49998C8.10078 4.99703 7.69784 5.39998 7.20078 5.39998C6.70373 5.39998 6.30078 4.99703 6.30078 4.49998C6.30078 4.00292 6.70373 3.59998 7.20078 3.59998C7.69784 3.59998 8.10078 4.00292 8.10078 4.49998Z" fill="#3DA4C2"/>
<path d="M10.8 4.49998C10.8 4.99703 10.3971 5.39998 9.9 5.39998C9.40293 5.39998 9 4.99703 9 4.49998C9 4.00292 9.40293 3.59998 9.9 3.59998C10.3971 3.59998 10.8 4.00292 10.8 4.49998Z" fill="#3DA4C2"/>
<path d="M13.5 4.49998C13.5 4.00292 13.9029 3.59998 14.4 3.59998H31.5C31.9971 3.59998 32.4 4.00292 32.4 4.49998C32.4 4.99703 31.9971 5.39998 31.5 5.39998H14.4C13.9029 5.39998 13.5 4.99703 13.5 4.49998Z" fill="#3DA4C2"/>
<path fill-rule="evenodd" clip-rule="evenodd" d="M15.0368 11.0638C15.3882 11.4153 15.3882 11.9851 15.0368 12.3366L12.0731 15.3001L15.0368 18.2638C15.3882 18.6153 15.3882 19.1851 15.0368 19.5366C14.6853 19.8881 14.1154 19.8881 13.764 19.5366L10.164 15.9366C9.81253 15.5851 9.81253 15.0153 10.164 14.6638L13.764 11.0638C14.1154 10.7123 14.6853 10.7123 15.0368 11.0638Z" fill="#3DA4C2"/>
<path fill-rule="evenodd" clip-rule="evenodd" d="M20.9628 11.0638C20.6114 11.4153 20.6114 11.9851 20.9628 12.3366L23.9264 15.3001L20.9628 18.2638C20.6114 18.6153 20.6114 19.1851 20.9628 19.5366C21.3143 19.8881 21.8841 19.8881 22.2356 19.5366L25.8356 15.9366C26.187 15.5851 26.187 15.0153 25.8356 14.6638L22.2356 11.0638C21.8841 10.7123 21.3143 10.7123 20.9628 11.0638Z" fill="#3DA4C2"/>
<path fill-rule="evenodd" clip-rule="evenodd" d="M19.1177 10.8271C19.6 10.9477 19.8931 11.4364 19.7726 11.9186L17.9726 19.1186C17.852 19.6008 17.3634 19.8939 16.8812 19.7734C16.3989 19.6528 16.1057 19.1642 16.2263 18.682L18.0263 11.482C18.1468 10.9998 18.6355 10.7065 19.1177 10.8271Z" fill="#3DA4C2"/>
<path fill-rule="evenodd" clip-rule="evenodd" d="M10.3492 34.2C11.0948 34.2 11.6992 33.5955 11.6992 32.85C11.6992 32.1044 11.0948 31.5 10.3492 31.5C9.60366 31.5 8.99922 32.1044 8.99922 32.85C8.99922 33.5955 9.60366 34.2 10.3492 34.2ZM10.3492 36C12.0889 36 13.4992 34.5897 13.4992 32.85C13.4992 31.1103 12.0889 29.7 10.3492 29.7C8.60952 29.7 7.19922 31.1103 7.19922 32.85C7.19922 34.5897 8.60952 36 10.3492 36Z" fill="#3DA4C2"/>
<path fill-rule="evenodd" clip-rule="evenodd" d="M13.0492 21.6C13.5463 21.6 13.9492 22.0029 13.9492 22.5V25.65C13.9492 25.8887 13.8544 26.1176 13.6856 26.2864L11.2492 28.7228V30.6C11.2492 31.097 10.8463 31.5 10.3492 31.5C9.85215 31.5 9.44922 31.097 9.44922 30.6V28.35C9.44922 28.1113 9.54408 27.8823 9.71283 27.7136L12.1492 25.2772V22.5C12.1492 22.0029 12.5521 21.6 13.0492 21.6Z" fill="#3DA4C2"/>
<path fill-rule="evenodd" clip-rule="evenodd" d="M17.5504 34.2C16.8048 34.2 16.2004 33.5955 16.2004 32.85C16.2004 32.1044 16.8048 31.5 17.5504 31.5C18.296 31.5 18.9004 32.1044 18.9004 32.85C18.9004 33.5955 18.296 34.2 17.5504 34.2ZM17.5504 36C15.8107 36 14.4004 34.5897 14.4004 32.85C14.4004 31.1103 15.8107 29.7 17.5504 29.7C19.2901 29.7 20.7004 31.1103 20.7004 32.85C20.7004 34.5897 19.2901 36 17.5504 36Z" fill="#3DA4C2"/>
<path fill-rule="evenodd" clip-rule="evenodd" d="M17.5504 21.6C18.0475 21.6 18.4504 22.0029 18.4504 22.5V30.6C18.4504 31.097 18.0475 31.5 17.5504 31.5C17.0533 31.5 16.6504 31.097 16.6504 30.6V22.5C16.6504 22.0029 17.0533 21.6 17.5504 21.6Z" fill="#3DA4C2"/>
<path fill-rule="evenodd" clip-rule="evenodd" d="M24.7496 34.2C24.004 34.2 23.3996 33.5955 23.3996 32.85C23.3996 32.1044 24.004 31.5 24.7496 31.5C25.4952 31.5 26.0996 32.1044 26.0996 32.85C26.0996 33.5955 25.4952 34.2 24.7496 34.2ZM24.7496 36C23.0099 36 21.5996 34.5897 21.5996 32.85C21.5996 31.1103 23.0099 29.7 24.7496 29.7C26.4893 29.7 27.8996 31.1103 27.8996 32.85C27.8996 34.5897 26.4893 36 24.7496 36Z" fill="#3DA4C2"/>
<path fill-rule="evenodd" clip-rule="evenodd" d="M22.0504 21.6C21.5533 21.6 21.1504 22.0029 21.1504 22.5V25.65C21.1504 25.8887 21.2453 26.1176 21.414 26.2864L23.8504 28.7228V30.6C23.8504 31.097 24.2533 31.5 24.7504 31.5C25.2475 31.5 25.6504 31.097 25.6504 30.6V28.35C25.6504 28.1113 25.5555 27.8823 25.3868 27.7136L22.9504 25.2772V22.5C22.9504 22.0029 22.5475 21.6 22.0504 21.6Z" fill="#3DA4C2"/>
</g>
<defs>
<clipPath id="clip0_2565_3132">
<rect width="36" height="36" fill="white"/>
</clipPath>
</defs>
</svg>
