<svg width="849" height="212" viewBox="0 0 849 212" fill="none" xmlns="http://www.w3.org/2000/svg">
<g filter="url(#filter0_d_0_1205)">
<rect width="259" height="52" rx="10" fill="url(#paint0_linear_0_1205)"/>
<rect x="1" y="1" width="257" height="50" rx="9" stroke="white" stroke-width="2"/>
</g>
<path d="M64.3594 32H62.5V20.5781H68.9531V22.1562H64.3594V25.7188H68.6562V27.2891H64.3594V32ZM72.6797 23.3516V32H70.8438V23.3516H72.6797ZM71.7734 20.0391C72.0547 20.0391 72.2969 20.1146 72.5 20.2656C72.7083 20.4167 72.8125 20.6771 72.8125 21.0469C72.8125 21.4115 72.7083 21.6719 72.5 21.8281C72.2969 21.9792 72.0547 22.0547 71.7734 22.0547C71.4818 22.0547 71.2344 21.9792 71.0312 21.8281C70.8333 21.6719 70.7344 21.4115 70.7344 21.0469C70.7344 20.6771 70.8333 20.4167 71.0312 20.2656C71.2344 20.1146 71.4818 20.0391 71.7734 20.0391ZM79.8203 23.1875C80.7943 23.1875 81.5521 23.4401 82.0938 23.9453C82.6406 24.4453 82.9141 25.25 82.9141 26.3594V32H81.0781V26.7031C81.0781 26.0312 80.9401 25.5286 80.6641 25.1953C80.388 24.8568 79.9609 24.6875 79.3828 24.6875C78.5443 24.6875 77.9609 24.9453 77.6328 25.4609C77.3099 25.9766 77.1484 26.724 77.1484 27.7031V32H75.3125V23.3516H76.7422L77 24.5234H77.1016C77.2891 24.2214 77.5208 23.974 77.7969 23.7812C78.0781 23.5833 78.3906 23.4349 78.7344 23.3359C79.0833 23.237 79.4453 23.1875 79.8203 23.1875ZM88.875 23.1875C89.9688 23.1875 90.7943 23.4297 91.3516 23.9141C91.9141 24.3984 92.1953 25.1536 92.1953 26.1797V32H90.8906L90.5391 30.7734H90.4766C90.2318 31.0859 89.9792 31.3438 89.7188 31.5469C89.4583 31.75 89.1562 31.901 88.8125 32C88.474 32.1042 88.0599 32.1562 87.5703 32.1562C87.0547 32.1562 86.5938 32.0625 86.1875 31.875C85.7812 31.6823 85.4609 31.3906 85.2266 31C84.9922 30.6094 84.875 30.1146 84.875 29.5156C84.875 28.625 85.2057 27.9557 85.8672 27.5078C86.5339 27.0599 87.5391 26.8125 88.8828 26.7656L90.3828 26.7109V26.2578C90.3828 25.6589 90.2422 25.2318 89.9609 24.9766C89.6849 24.7214 89.2943 24.5938 88.7891 24.5938C88.3568 24.5938 87.9375 24.6562 87.5312 24.7812C87.125 24.9062 86.7292 25.0599 86.3438 25.2422L85.75 23.9453C86.1719 23.7214 86.651 23.5391 87.1875 23.3984C87.7292 23.2578 88.2917 23.1875 88.875 23.1875ZM90.375 27.8672L89.2578 27.9062C88.3411 27.9375 87.6979 28.0938 87.3281 28.375C86.9583 28.6562 86.7734 29.0417 86.7734 29.5312C86.7734 29.9583 86.901 30.2708 87.1562 30.4688C87.4115 30.6615 87.7474 30.7578 88.1641 30.7578C88.7995 30.7578 89.3255 30.5781 89.7422 30.2188C90.1641 29.8542 90.375 29.3203 90.375 28.6172V27.8672ZM99.2734 23.1875C100.247 23.1875 101.005 23.4401 101.547 23.9453C102.094 24.4453 102.367 25.25 102.367 26.3594V32H100.531V26.7031C100.531 26.0312 100.393 25.5286 100.117 25.1953C99.8411 24.8568 99.4141 24.6875 98.8359 24.6875C97.9974 24.6875 97.4141 24.9453 97.0859 25.4609C96.763 25.9766 96.6016 26.724 96.6016 27.7031V32H94.7656V23.3516H96.1953L96.4531 24.5234H96.5547C96.7422 24.2214 96.974 23.974 97.25 23.7812C97.5312 23.5833 97.8438 23.4349 98.1875 23.3359C98.5365 23.237 98.8984 23.1875 99.2734 23.1875ZM108.422 32.1562C107.604 32.1562 106.896 31.9974 106.297 31.6797C105.698 31.362 105.237 30.875 104.914 30.2188C104.591 29.5625 104.43 28.7292 104.43 27.7188C104.43 26.6667 104.607 25.8073 104.961 25.1406C105.315 24.474 105.805 23.9818 106.43 23.6641C107.06 23.3464 107.781 23.1875 108.594 23.1875C109.109 23.1875 109.576 23.2396 109.992 23.3438C110.414 23.4427 110.771 23.5651 111.062 23.7109L110.516 25.1797C110.198 25.0495 109.872 24.9401 109.539 24.8516C109.206 24.763 108.885 24.7188 108.578 24.7188C108.073 24.7188 107.651 24.8307 107.312 25.0547C106.979 25.2786 106.729 25.612 106.562 26.0547C106.401 26.4974 106.32 27.0469 106.32 27.7031C106.32 28.3385 106.404 28.875 106.57 29.3125C106.737 29.7448 106.984 30.0729 107.312 30.2969C107.641 30.5156 108.044 30.625 108.523 30.625C108.997 30.625 109.422 30.5677 109.797 30.4531C110.172 30.3385 110.526 30.1901 110.859 30.0078V31.6016C110.531 31.7891 110.18 31.9271 109.805 32.0156C109.43 32.1094 108.969 32.1562 108.422 32.1562ZM114.727 23.3516V32H112.891V23.3516H114.727ZM113.82 20.0391C114.102 20.0391 114.344 20.1146 114.547 20.2656C114.755 20.4167 114.859 20.6771 114.859 21.0469C114.859 21.4115 114.755 21.6719 114.547 21.8281C114.344 21.9792 114.102 22.0547 113.82 22.0547C113.529 22.0547 113.281 21.9792 113.078 21.8281C112.88 21.6719 112.781 21.4115 112.781 21.0469C112.781 20.6771 112.88 20.4167 113.078 20.2656C113.281 20.1146 113.529 20.0391 113.82 20.0391ZM120.75 23.1875C121.844 23.1875 122.669 23.4297 123.227 23.9141C123.789 24.3984 124.07 25.1536 124.07 26.1797V32H122.766L122.414 30.7734H122.352C122.107 31.0859 121.854 31.3438 121.594 31.5469C121.333 31.75 121.031 31.901 120.688 32C120.349 32.1042 119.935 32.1562 119.445 32.1562C118.93 32.1562 118.469 32.0625 118.062 31.875C117.656 31.6823 117.336 31.3906 117.102 31C116.867 30.6094 116.75 30.1146 116.75 29.5156C116.75 28.625 117.081 27.9557 117.742 27.5078C118.409 27.0599 119.414 26.8125 120.758 26.7656L122.258 26.7109V26.2578C122.258 25.6589 122.117 25.2318 121.836 24.9766C121.56 24.7214 121.169 24.5938 120.664 24.5938C120.232 24.5938 119.812 24.6562 119.406 24.7812C119 24.9062 118.604 25.0599 118.219 25.2422L117.625 23.9453C118.047 23.7214 118.526 23.5391 119.062 23.3984C119.604 23.2578 120.167 23.1875 120.75 23.1875ZM122.25 27.8672L121.133 27.9062C120.216 27.9375 119.573 28.0938 119.203 28.375C118.833 28.6562 118.648 29.0417 118.648 29.5312C118.648 29.9583 118.776 30.2708 119.031 30.4688C119.286 30.6615 119.622 30.7578 120.039 30.7578C120.674 30.7578 121.201 30.5781 121.617 30.2188C122.039 29.8542 122.25 29.3203 122.25 28.6172V27.8672ZM128.484 32H126.641V19.8438H128.484V32ZM142.531 32L141.414 28.8281H137.047L135.93 32H133.953L138.203 20.5312H140.281L144.523 32H142.531ZM140.93 27.2188L139.844 24.0938C139.802 23.9583 139.742 23.7682 139.664 23.5234C139.586 23.2734 139.508 23.0208 139.43 22.7656C139.352 22.5052 139.286 22.2865 139.234 22.1094C139.182 22.3229 139.117 22.5625 139.039 22.8281C138.966 23.0885 138.893 23.3333 138.82 23.5625C138.753 23.7917 138.701 23.9688 138.664 24.0938L137.57 27.2188H140.93ZM149.328 32.1562C148.51 32.1562 147.802 31.9974 147.203 31.6797C146.604 31.362 146.143 30.875 145.82 30.2188C145.497 29.5625 145.336 28.7292 145.336 27.7188C145.336 26.6667 145.513 25.8073 145.867 25.1406C146.221 24.474 146.711 23.9818 147.336 23.6641C147.966 23.3464 148.688 23.1875 149.5 23.1875C150.016 23.1875 150.482 23.2396 150.898 23.3438C151.32 23.4427 151.677 23.5651 151.969 23.7109L151.422 25.1797C151.104 25.0495 150.779 24.9401 150.445 24.8516C150.112 24.763 149.792 24.7188 149.484 24.7188C148.979 24.7188 148.557 24.8307 148.219 25.0547C147.885 25.2786 147.635 25.612 147.469 26.0547C147.307 26.4974 147.227 27.0469 147.227 27.7031C147.227 28.3385 147.31 28.875 147.477 29.3125C147.643 29.7448 147.891 30.0729 148.219 30.2969C148.547 30.5156 148.951 30.625 149.43 30.625C149.904 30.625 150.328 30.5677 150.703 30.4531C151.078 30.3385 151.432 30.1901 151.766 30.0078V31.6016C151.438 31.7891 151.086 31.9271 150.711 32.0156C150.336 32.1094 149.875 32.1562 149.328 32.1562ZM157.281 32.1562C156.464 32.1562 155.755 31.9974 155.156 31.6797C154.557 31.362 154.096 30.875 153.773 30.2188C153.451 29.5625 153.289 28.7292 153.289 27.7188C153.289 26.6667 153.466 25.8073 153.82 25.1406C154.174 24.474 154.664 23.9818 155.289 23.6641C155.919 23.3464 156.641 23.1875 157.453 23.1875C157.969 23.1875 158.435 23.2396 158.852 23.3438C159.273 23.4427 159.63 23.5651 159.922 23.7109L159.375 25.1797C159.057 25.0495 158.732 24.9401 158.398 24.8516C158.065 24.763 157.745 24.7188 157.438 24.7188C156.932 24.7188 156.51 24.8307 156.172 25.0547C155.839 25.2786 155.589 25.612 155.422 26.0547C155.26 26.4974 155.18 27.0469 155.18 27.7031C155.18 28.3385 155.263 28.875 155.43 29.3125C155.596 29.7448 155.844 30.0729 156.172 30.2969C156.5 30.5156 156.904 30.625 157.383 30.625C157.857 30.625 158.281 30.5677 158.656 30.4531C159.031 30.3385 159.385 30.1901 159.719 30.0078V31.6016C159.391 31.7891 159.039 31.9271 158.664 32.0156C158.289 32.1094 157.828 32.1562 157.281 32.1562ZM169.406 27.6562C169.406 28.375 169.312 29.013 169.125 29.5703C168.938 30.1276 168.664 30.599 168.305 30.9844C167.945 31.3646 167.513 31.6562 167.008 31.8594C166.503 32.0573 165.932 32.1562 165.297 32.1562C164.703 32.1562 164.159 32.0573 163.664 31.8594C163.169 31.6562 162.74 31.3646 162.375 30.9844C162.016 30.599 161.737 30.1276 161.539 29.5703C161.341 29.013 161.242 28.375 161.242 27.6562C161.242 26.7031 161.406 25.8958 161.734 25.2344C162.068 24.5677 162.542 24.0599 163.156 23.7109C163.771 23.362 164.503 23.1875 165.352 23.1875C166.148 23.1875 166.852 23.362 167.461 23.7109C168.07 24.0599 168.547 24.5677 168.891 25.2344C169.234 25.901 169.406 26.7083 169.406 27.6562ZM163.133 27.6562C163.133 28.2865 163.208 28.8255 163.359 29.2734C163.516 29.7214 163.755 30.0651 164.078 30.3047C164.401 30.5391 164.818 30.6562 165.328 30.6562C165.839 30.6562 166.255 30.5391 166.578 30.3047C166.901 30.0651 167.138 29.7214 167.289 29.2734C167.44 28.8255 167.516 28.2865 167.516 27.6562C167.516 27.026 167.44 26.4922 167.289 26.0547C167.138 25.612 166.901 25.276 166.578 25.0469C166.255 24.8125 165.836 24.6953 165.32 24.6953C164.56 24.6953 164.005 24.9505 163.656 25.4609C163.307 25.9714 163.133 26.7031 163.133 27.6562ZM179.055 23.3516V32H177.609L177.359 30.8359H177.258C177.076 31.1328 176.844 31.3802 176.562 31.5781C176.281 31.7708 175.969 31.9141 175.625 32.0078C175.281 32.1068 174.919 32.1562 174.539 32.1562C173.888 32.1562 173.331 32.0469 172.867 31.8281C172.409 31.6042 172.057 31.2604 171.812 30.7969C171.568 30.3333 171.445 29.7344 171.445 29V23.3516H173.289V28.6562C173.289 29.3281 173.424 29.8307 173.695 30.1641C173.971 30.4974 174.398 30.6641 174.977 30.6641C175.534 30.6641 175.977 30.5495 176.305 30.3203C176.633 30.0911 176.865 29.7526 177 29.3047C177.141 28.8568 177.211 28.3073 177.211 27.6562V23.3516H179.055ZM186.195 23.1875C187.169 23.1875 187.927 23.4401 188.469 23.9453C189.016 24.4453 189.289 25.25 189.289 26.3594V32H187.453V26.7031C187.453 26.0312 187.315 25.5286 187.039 25.1953C186.763 24.8568 186.336 24.6875 185.758 24.6875C184.919 24.6875 184.336 24.9453 184.008 25.4609C183.685 25.9766 183.523 26.724 183.523 27.7031V32H181.688V23.3516H183.117L183.375 24.5234H183.477C183.664 24.2214 183.896 23.974 184.172 23.7812C184.453 23.5833 184.766 23.4349 185.109 23.3359C185.458 23.237 185.82 23.1875 186.195 23.1875ZM195.078 30.6719C195.318 30.6719 195.555 30.651 195.789 30.6094C196.023 30.5625 196.237 30.5078 196.43 30.4453V31.8359C196.227 31.9245 195.964 32 195.641 32.0625C195.318 32.125 194.982 32.1562 194.633 32.1562C194.143 32.1562 193.703 32.0755 193.312 31.9141C192.922 31.7474 192.612 31.4635 192.383 31.0625C192.154 30.6615 192.039 30.1068 192.039 29.3984V24.75H190.859V23.9297L192.125 23.2812L192.727 21.4297H193.883V23.3516H196.359V24.75H193.883V29.375C193.883 29.8125 193.992 30.138 194.211 30.3516C194.43 30.5651 194.719 30.6719 195.078 30.6719ZM200.023 23.3516V32H198.188V23.3516H200.023ZM199.117 20.0391C199.398 20.0391 199.641 20.1146 199.844 20.2656C200.052 20.4167 200.156 20.6771 200.156 21.0469C200.156 21.4115 200.052 21.6719 199.844 21.8281C199.641 21.9792 199.398 22.0547 199.117 22.0547C198.826 22.0547 198.578 21.9792 198.375 21.8281C198.177 21.6719 198.078 21.4115 198.078 21.0469C198.078 20.6771 198.177 20.4167 198.375 20.2656C198.578 20.1146 198.826 20.0391 199.117 20.0391ZM207.164 23.1875C208.138 23.1875 208.896 23.4401 209.438 23.9453C209.984 24.4453 210.258 25.25 210.258 26.3594V32H208.422V26.7031C208.422 26.0312 208.284 25.5286 208.008 25.1953C207.732 24.8568 207.305 24.6875 206.727 24.6875C205.888 24.6875 205.305 24.9453 204.977 25.4609C204.654 25.9766 204.492 26.724 204.492 27.7031V32H202.656V23.3516H204.086L204.344 24.5234H204.445C204.633 24.2214 204.865 23.974 205.141 23.7812C205.422 23.5833 205.734 23.4349 206.078 23.3359C206.427 23.237 206.789 23.1875 207.164 23.1875ZM215.297 35.8438C214.125 35.8438 213.227 35.6328 212.602 35.2109C211.977 34.7891 211.664 34.1979 211.664 33.4375C211.664 32.9062 211.831 32.4557 212.164 32.0859C212.497 31.7214 212.974 31.4688 213.594 31.3281C213.359 31.224 213.156 31.0625 212.984 30.8438C212.818 30.6198 212.734 30.3724 212.734 30.1016C212.734 29.7786 212.826 29.5026 213.008 29.2734C213.19 29.0443 213.464 28.8229 213.828 28.6094C213.375 28.4167 213.01 28.1042 212.734 27.6719C212.464 27.2344 212.328 26.7214 212.328 26.1328C212.328 25.5078 212.461 24.9766 212.727 24.5391C212.992 24.0964 213.38 23.7604 213.891 23.5312C214.401 23.2969 215.018 23.1797 215.742 23.1797C215.898 23.1797 216.068 23.1901 216.25 23.2109C216.438 23.2266 216.609 23.2474 216.766 23.2734C216.927 23.2943 217.049 23.3177 217.133 23.3438H220.125V24.3672L218.656 24.6406C218.797 24.8385 218.909 25.0651 218.992 25.3203C219.076 25.5703 219.117 25.8438 219.117 26.1406C219.117 27.0365 218.807 27.7422 218.188 28.2578C217.573 28.7682 216.724 29.0234 215.641 29.0234C215.38 29.013 215.128 28.9922 214.883 28.9609C214.695 29.0755 214.552 29.2031 214.453 29.3438C214.354 29.4792 214.305 29.6328 214.305 29.8047C214.305 29.9453 214.354 30.0599 214.453 30.1484C214.552 30.2318 214.698 30.2943 214.891 30.3359C215.089 30.3776 215.328 30.3984 215.609 30.3984H217.102C218.049 30.3984 218.773 30.599 219.273 31C219.773 31.401 220.023 31.9896 220.023 32.7656C220.023 33.75 219.617 34.5078 218.805 35.0391C217.992 35.5755 216.823 35.8438 215.297 35.8438ZM215.367 34.5547C216.008 34.5547 216.547 34.4922 216.984 34.3672C217.422 34.2422 217.753 34.0625 217.977 33.8281C218.201 33.599 218.312 33.3255 218.312 33.0078C218.312 32.7266 218.242 32.5104 218.102 32.3594C217.961 32.2083 217.75 32.1042 217.469 32.0469C217.188 31.9896 216.839 31.9609 216.422 31.9609H215.062C214.724 31.9609 214.424 32.013 214.164 32.1172C213.904 32.2266 213.701 32.3828 213.555 32.5859C213.414 32.7891 213.344 33.0339 213.344 33.3203C213.344 33.7161 213.518 34.0208 213.867 34.2344C214.221 34.4479 214.721 34.5547 215.367 34.5547ZM215.727 27.8203C216.263 27.8203 216.661 27.6745 216.922 27.3828C217.182 27.0859 217.312 26.6693 217.312 26.1328C217.312 25.5495 217.177 25.112 216.906 24.8203C216.641 24.5286 216.245 24.3828 215.719 24.3828C215.203 24.3828 214.81 24.5312 214.539 24.8281C214.273 25.125 214.141 25.5651 214.141 26.1484C214.141 26.6745 214.273 27.0859 214.539 27.3828C214.81 27.6745 215.206 27.8203 215.727 27.8203Z" fill="#31393C"/>
<g filter="url(#filter1_d_0_1205)">
<rect x="285" width="259" height="52" rx="10" fill="url(#paint1_linear_0_1205)"/>
<rect x="286" y="1" width="257" height="50" rx="9" stroke="white" stroke-width="2"/>
</g>
<path d="M357.648 26.2734C357.648 28.1328 357.182 29.5781 356.25 30.6094C355.323 31.6406 354.008 32.1562 352.305 32.1562C350.581 32.1562 349.255 31.6458 348.328 30.625C347.406 29.599 346.945 28.1432 346.945 26.2578C346.945 24.3724 347.409 22.9245 348.336 21.9141C349.268 20.9036 350.596 20.3984 352.32 20.3984C354.018 20.3984 355.331 20.9115 356.258 21.9375C357.185 22.9635 357.648 24.4089 357.648 26.2734ZM348.93 26.2734C348.93 27.6797 349.214 28.7474 349.781 29.4766C350.349 30.2005 351.19 30.5625 352.305 30.5625C353.414 30.5625 354.25 30.2031 354.812 29.4844C355.38 28.7656 355.664 27.6953 355.664 26.2734C355.664 24.8724 355.383 23.8099 354.82 23.0859C354.263 22.362 353.43 22 352.32 22C351.201 22 350.354 22.362 349.781 23.0859C349.214 23.8099 348.93 24.8724 348.93 26.2734ZM364.289 23.2031C364.659 23.2031 364.964 23.2292 365.203 23.2812L365.023 24.9922C364.763 24.9297 364.492 24.8984 364.211 24.8984C363.477 24.8984 362.88 25.138 362.422 25.6172C361.969 26.0964 361.742 26.7188 361.742 27.4844V32H359.906V23.3594H361.344L361.586 24.8828H361.68C361.966 24.3672 362.339 23.9583 362.797 23.6562C363.26 23.3542 363.758 23.2031 364.289 23.2031ZM369.727 32.1562C368.648 32.1562 367.807 31.7656 367.203 30.9844C366.599 30.2031 366.297 29.1068 366.297 27.6953C366.297 26.2786 366.602 25.1771 367.211 24.3906C367.826 23.599 368.674 23.2031 369.758 23.2031C370.893 23.2031 371.758 23.6224 372.352 24.4609H372.445C372.357 23.8411 372.312 23.3516 372.312 22.9922V19.8438H374.156V32H372.719L372.398 30.8672H372.312C371.724 31.7266 370.862 32.1562 369.727 32.1562ZM370.219 30.6719C370.974 30.6719 371.523 30.4609 371.867 30.0391C372.211 29.612 372.388 28.9219 372.398 27.9688V27.7109C372.398 26.6224 372.221 25.849 371.867 25.3906C371.513 24.9323 370.958 24.7031 370.203 24.7031C369.557 24.7031 369.06 24.9661 368.711 25.4922C368.362 26.013 368.188 26.7578 368.188 27.7266C368.188 28.6849 368.357 29.4167 368.695 29.9219C369.034 30.4219 369.542 30.6719 370.219 30.6719ZM380.555 32.1562C379.211 32.1562 378.159 31.7656 377.398 30.9844C376.643 30.1979 376.266 29.1172 376.266 27.7422C376.266 26.3307 376.617 25.2214 377.32 24.4141C378.023 23.6068 378.99 23.2031 380.219 23.2031C381.359 23.2031 382.26 23.5495 382.922 24.2422C383.583 24.9349 383.914 25.888 383.914 27.1016V28.0938H378.156C378.182 28.9323 378.409 29.5781 378.836 30.0312C379.263 30.4792 379.865 30.7031 380.641 30.7031C381.151 30.7031 381.625 30.6562 382.062 30.5625C382.505 30.4635 382.979 30.3021 383.484 30.0781V31.5703C383.036 31.7839 382.583 31.9349 382.125 32.0234C381.667 32.112 381.143 32.1562 380.555 32.1562ZM380.219 24.5938C379.635 24.5938 379.167 24.7786 378.812 25.1484C378.464 25.5182 378.255 26.0573 378.188 26.7656H382.109C382.099 26.0521 381.927 25.513 381.594 25.1484C381.26 24.7786 380.802 24.5938 380.219 24.5938ZM390.383 23.2031C390.753 23.2031 391.057 23.2292 391.297 23.2812L391.117 24.9922C390.857 24.9297 390.586 24.8984 390.305 24.8984C389.57 24.8984 388.974 25.138 388.516 25.6172C388.062 26.0964 387.836 26.7188 387.836 27.4844V32H386V23.3594H387.438L387.68 24.8828H387.773C388.06 24.3672 388.432 23.9583 388.891 23.6562C389.354 23.3542 389.852 23.2031 390.383 23.2031ZM402.195 32L398.883 22.4609H398.82C398.909 23.8776 398.953 25.2057 398.953 26.4453V32H397.258V20.5781H399.891L403.062 29.6641H403.109L406.375 20.5781H409.016V32H407.219V26.3516C407.219 25.7839 407.232 25.0443 407.258 24.1328C407.289 23.2214 407.315 22.6693 407.336 22.4766H407.273L403.844 32H402.195ZM417.234 32L416.867 30.7969H416.805C416.388 31.3229 415.969 31.6823 415.547 31.875C415.125 32.0625 414.583 32.1562 413.922 32.1562C413.073 32.1562 412.409 31.9271 411.93 31.4688C411.456 31.0104 411.219 30.362 411.219 29.5234C411.219 28.6328 411.549 27.9609 412.211 27.5078C412.872 27.0547 413.88 26.8073 415.234 26.7656L416.727 26.7188V26.2578C416.727 25.7057 416.596 25.2943 416.336 25.0234C416.081 24.7474 415.682 24.6094 415.141 24.6094C414.698 24.6094 414.273 24.6745 413.867 24.8047C413.461 24.9349 413.07 25.0885 412.695 25.2656L412.102 23.9531C412.57 23.7083 413.083 23.5234 413.641 23.3984C414.198 23.2682 414.724 23.2031 415.219 23.2031C416.318 23.2031 417.146 23.4427 417.703 23.9219C418.266 24.401 418.547 25.1536 418.547 26.1797V32H417.234ZM414.5 30.75C415.167 30.75 415.701 30.5651 416.102 30.1953C416.508 29.8203 416.711 29.2969 416.711 28.625V27.875L415.602 27.9219C414.737 27.9531 414.107 28.099 413.711 28.3594C413.32 28.6146 413.125 29.0078 413.125 29.5391C413.125 29.9245 413.24 30.224 413.469 30.4375C413.698 30.6458 414.042 30.75 414.5 30.75ZM428.711 32H426.867V26.6875C426.867 26.0208 426.732 25.5234 426.461 25.1953C426.195 24.8672 425.771 24.7031 425.188 24.7031C424.411 24.7031 423.844 24.9323 423.484 25.3906C423.125 25.849 422.945 26.6172 422.945 27.6953V32H421.109V23.3594H422.547L422.805 24.4922H422.898C423.159 24.0807 423.529 23.763 424.008 23.5391C424.487 23.3151 425.018 23.2031 425.602 23.2031C427.674 23.2031 428.711 24.2578 428.711 26.3672V32ZM436.672 32L436.305 30.7969H436.242C435.826 31.3229 435.406 31.6823 434.984 31.875C434.562 32.0625 434.021 32.1562 433.359 32.1562C432.51 32.1562 431.846 31.9271 431.367 31.4688C430.893 31.0104 430.656 30.362 430.656 29.5234C430.656 28.6328 430.987 27.9609 431.648 27.5078C432.31 27.0547 433.318 26.8073 434.672 26.7656L436.164 26.7188V26.2578C436.164 25.7057 436.034 25.2943 435.773 25.0234C435.518 24.7474 435.12 24.6094 434.578 24.6094C434.135 24.6094 433.711 24.6745 433.305 24.8047C432.898 24.9349 432.508 25.0885 432.133 25.2656L431.539 23.9531C432.008 23.7083 432.521 23.5234 433.078 23.3984C433.635 23.2682 434.161 23.2031 434.656 23.2031C435.755 23.2031 436.583 23.4427 437.141 23.9219C437.703 24.401 437.984 25.1536 437.984 26.1797V32H436.672ZM433.938 30.75C434.604 30.75 435.138 30.5651 435.539 30.1953C435.945 29.8203 436.148 29.2969 436.148 28.625V27.875L435.039 27.9219C434.174 27.9531 433.544 28.099 433.148 28.3594C432.758 28.6146 432.562 29.0078 432.562 29.5391C432.562 29.9245 432.677 30.224 432.906 30.4375C433.135 30.6458 433.479 30.75 433.938 30.75ZM447.844 23.3594V24.3672L446.367 24.6406C446.503 24.8229 446.615 25.0469 446.703 25.3125C446.792 25.5781 446.836 25.8594 446.836 26.1562C446.836 27.0469 446.529 27.7474 445.914 28.2578C445.299 28.7682 444.453 29.0234 443.375 29.0234C443.099 29.0234 442.849 29.0026 442.625 28.9609C442.229 29.2057 442.031 29.4922 442.031 29.8203C442.031 30.0182 442.122 30.1667 442.305 30.2656C442.492 30.3646 442.833 30.4141 443.328 30.4141H444.836C445.789 30.4141 446.513 30.6172 447.008 31.0234C447.503 31.4297 447.75 32.0156 447.75 32.7812C447.75 33.7604 447.346 34.5156 446.539 35.0469C445.732 35.5781 444.565 35.8438 443.039 35.8438C441.862 35.8438 440.964 35.6354 440.344 35.2188C439.724 34.8021 439.414 34.2083 439.414 33.4375C439.414 32.9062 439.581 32.4583 439.914 32.0938C440.253 31.7344 440.724 31.4844 441.328 31.3438C441.083 31.2396 440.88 31.0729 440.719 30.8438C440.562 30.6094 440.484 30.3646 440.484 30.1094C440.484 29.7865 440.576 29.513 440.758 29.2891C440.94 29.0651 441.211 28.8438 441.57 28.625C441.122 28.4323 440.758 28.1198 440.477 27.6875C440.201 27.25 440.062 26.7396 440.062 26.1562C440.062 25.2188 440.357 24.4922 440.945 23.9766C441.539 23.4609 442.383 23.2031 443.477 23.2031C443.721 23.2031 443.977 23.2214 444.242 23.2578C444.513 23.2891 444.716 23.3229 444.852 23.3594H447.844ZM441.055 33.3438C441.055 33.7396 441.232 34.0443 441.586 34.2578C441.945 34.4714 442.448 34.5781 443.094 34.5781C444.094 34.5781 444.839 34.4349 445.328 34.1484C445.818 33.862 446.062 33.4818 446.062 33.0078C446.062 32.6328 445.927 32.3646 445.656 32.2031C445.391 32.0469 444.893 31.9688 444.164 31.9688H442.773C442.247 31.9688 441.828 32.0911 441.516 32.3359C441.208 32.5859 441.055 32.9219 441.055 33.3438ZM441.844 26.1562C441.844 26.6979 441.982 27.1146 442.258 27.4062C442.539 27.6979 442.94 27.8438 443.461 27.8438C444.523 27.8438 445.055 27.276 445.055 26.1406C445.055 25.5781 444.922 25.1458 444.656 24.8438C444.396 24.5365 443.997 24.3828 443.461 24.3828C442.93 24.3828 442.526 24.5339 442.25 24.8359C441.979 25.138 441.844 25.5781 441.844 26.1562ZM453.227 32.1562C451.883 32.1562 450.831 31.7656 450.07 30.9844C449.315 30.1979 448.938 29.1172 448.938 27.7422C448.938 26.3307 449.289 25.2214 449.992 24.4141C450.695 23.6068 451.661 23.2031 452.891 23.2031C454.031 23.2031 454.932 23.5495 455.594 24.2422C456.255 24.9349 456.586 25.888 456.586 27.1016V28.0938H450.828C450.854 28.9323 451.081 29.5781 451.508 30.0312C451.935 30.4792 452.536 30.7031 453.312 30.7031C453.823 30.7031 454.297 30.6562 454.734 30.5625C455.177 30.4635 455.651 30.3021 456.156 30.0781V31.5703C455.708 31.7839 455.255 31.9349 454.797 32.0234C454.339 32.112 453.815 32.1562 453.227 32.1562ZM452.891 24.5938C452.307 24.5938 451.839 24.7786 451.484 25.1484C451.135 25.5182 450.927 26.0573 450.859 26.7656H454.781C454.771 26.0521 454.599 25.513 454.266 25.1484C453.932 24.7786 453.474 24.5938 452.891 24.5938ZM465.953 32H464.109V26.6719C464.109 26.0104 463.984 25.5182 463.734 25.1953C463.484 24.8672 463.094 24.7031 462.562 24.7031C461.854 24.7031 461.333 24.9349 461 25.3984C460.672 25.8568 460.508 26.6224 460.508 27.6953V32H458.672V23.3594H460.109L460.367 24.4922H460.461C460.701 24.0807 461.047 23.763 461.5 23.5391C461.958 23.3151 462.461 23.2031 463.008 23.2031C464.336 23.2031 465.216 23.6562 465.648 24.5625H465.773C466.029 24.1354 466.388 23.8021 466.852 23.5625C467.315 23.3229 467.846 23.2031 468.445 23.2031C469.477 23.2031 470.227 23.4635 470.695 23.9844C471.169 24.5052 471.406 25.2995 471.406 26.3672V32H469.57V26.6719C469.57 26.0104 469.443 25.5182 469.188 25.1953C468.938 24.8672 468.547 24.7031 468.016 24.7031C467.302 24.7031 466.779 24.9271 466.445 25.375C466.117 25.8177 465.953 26.5 465.953 27.4219V32ZM477.742 32.1562C476.398 32.1562 475.346 31.7656 474.586 30.9844C473.831 30.1979 473.453 29.1172 473.453 27.7422C473.453 26.3307 473.805 25.2214 474.508 24.4141C475.211 23.6068 476.177 23.2031 477.406 23.2031C478.547 23.2031 479.448 23.5495 480.109 24.2422C480.771 24.9349 481.102 25.888 481.102 27.1016V28.0938H475.344C475.37 28.9323 475.596 29.5781 476.023 30.0312C476.451 30.4792 477.052 30.7031 477.828 30.7031C478.339 30.7031 478.812 30.6562 479.25 30.5625C479.693 30.4635 480.167 30.3021 480.672 30.0781V31.5703C480.224 31.7839 479.771 31.9349 479.312 32.0234C478.854 32.112 478.331 32.1562 477.742 32.1562ZM477.406 24.5938C476.823 24.5938 476.354 24.7786 476 25.1484C475.651 25.5182 475.443 26.0573 475.375 26.7656H479.297C479.286 26.0521 479.115 25.513 478.781 25.1484C478.448 24.7786 477.99 24.5938 477.406 24.5938ZM490.789 32H488.945V26.6875C488.945 26.0208 488.81 25.5234 488.539 25.1953C488.273 24.8672 487.849 24.7031 487.266 24.7031C486.49 24.7031 485.922 24.9323 485.562 25.3906C485.203 25.849 485.023 26.6172 485.023 27.6953V32H483.188V23.3594H484.625L484.883 24.4922H484.977C485.237 24.0807 485.607 23.763 486.086 23.5391C486.565 23.3151 487.096 23.2031 487.68 23.2031C489.753 23.2031 490.789 24.2578 490.789 26.3672V32ZM496.562 30.6719C497.01 30.6719 497.458 30.6016 497.906 30.4609V31.8438C497.703 31.9323 497.44 32.0052 497.117 32.0625C496.799 32.125 496.469 32.1562 496.125 32.1562C494.385 32.1562 493.516 31.2396 493.516 29.4062V24.75H492.336V23.9375L493.602 23.2656L494.227 21.4375H495.359V23.3594H497.82V24.75H495.359V29.375C495.359 29.8177 495.469 30.1458 495.688 30.3594C495.911 30.5677 496.203 30.6719 496.562 30.6719Z" fill="#31393C"/>
<path d="M305 20.667H329" stroke="#74808B" stroke-width="2" stroke-miterlimit="10" stroke-linecap="square"/>
<path d="M305 18.0007V32.6674C305 34.1401 306.194 35.3341 307.667 35.3341H326.333C327.806 35.3341 329 34.1401 329 32.6674V18.0007C329 16.5279 327.806 15.334 326.333 15.334H307.667C306.194 15.334 305 16.5279 305 18.0007Z" stroke="#74808B" stroke-width="2" stroke-miterlimit="10" stroke-linecap="square"/>
<path d="M309.363 30.1816H314.818" stroke="#74808B" stroke-width="2" stroke-miterlimit="10" stroke-linecap="round"/>
<g filter="url(#filter2_d_0_1205)">
<rect x="570" width="259" height="52" rx="10" fill="url(#paint2_linear_0_1205)"/>
<rect x="571" y="1" width="257" height="50" rx="9" stroke="white" stroke-width="2"/>
</g>
<path d="M641.516 32H639.641V26.8516H634.375V32H632.508V20.5781H634.375V25.25H639.641V20.5781H641.516V32ZM646.391 25.8906H647.688C648.557 25.8906 649.188 25.7292 649.578 25.4062C649.969 25.0833 650.164 24.6042 650.164 23.9688C650.164 23.3229 649.953 22.8594 649.531 22.5781C649.109 22.2969 648.474 22.1562 647.625 22.1562H646.391V25.8906ZM646.391 27.4375V32H644.523V20.5781H647.75C649.224 20.5781 650.315 20.8542 651.023 21.4062C651.732 21.9583 652.086 22.7917 652.086 23.9062C652.086 25.3281 651.346 26.3411 649.867 26.9453L653.094 32H650.969L648.234 27.4375H646.391ZM664.125 32L663.758 30.7969H663.695C663.279 31.3229 662.859 31.6823 662.438 31.875C662.016 32.0625 661.474 32.1562 660.812 32.1562C659.964 32.1562 659.299 31.9271 658.82 31.4688C658.346 31.0104 658.109 30.362 658.109 29.5234C658.109 28.6328 658.44 27.9609 659.102 27.5078C659.763 27.0547 660.771 26.8073 662.125 26.7656L663.617 26.7188V26.2578C663.617 25.7057 663.487 25.2943 663.227 25.0234C662.971 24.7474 662.573 24.6094 662.031 24.6094C661.589 24.6094 661.164 24.6745 660.758 24.8047C660.352 24.9349 659.961 25.0885 659.586 25.2656L658.992 23.9531C659.461 23.7083 659.974 23.5234 660.531 23.3984C661.089 23.2682 661.615 23.2031 662.109 23.2031C663.208 23.2031 664.036 23.4427 664.594 23.9219C665.156 24.401 665.438 25.1536 665.438 26.1797V32H664.125ZM661.391 30.75C662.057 30.75 662.591 30.5651 662.992 30.1953C663.398 29.8203 663.602 29.2969 663.602 28.625V27.875L662.492 27.9219C661.628 27.9531 660.997 28.099 660.602 28.3594C660.211 28.6146 660.016 29.0078 660.016 29.5391C660.016 29.9245 660.13 30.224 660.359 30.4375C660.589 30.6458 660.932 30.75 661.391 30.75ZM675.602 32H673.758V26.6875C673.758 26.0208 673.622 25.5234 673.352 25.1953C673.086 24.8672 672.661 24.7031 672.078 24.7031C671.302 24.7031 670.734 24.9323 670.375 25.3906C670.016 25.849 669.836 26.6172 669.836 27.6953V32H668V23.3594H669.438L669.695 24.4922H669.789C670.049 24.0807 670.419 23.763 670.898 23.5391C671.378 23.3151 671.909 23.2031 672.492 23.2031C674.565 23.2031 675.602 24.2578 675.602 26.3672V32ZM681.07 32.1562C679.992 32.1562 679.151 31.7656 678.547 30.9844C677.943 30.2031 677.641 29.1068 677.641 27.6953C677.641 26.2786 677.945 25.1771 678.555 24.3906C679.169 23.599 680.018 23.2031 681.102 23.2031C682.237 23.2031 683.102 23.6224 683.695 24.4609H683.789C683.701 23.8411 683.656 23.3516 683.656 22.9922V19.8438H685.5V32H684.062L683.742 30.8672H683.656C683.068 31.7266 682.206 32.1562 681.07 32.1562ZM681.562 30.6719C682.318 30.6719 682.867 30.4609 683.211 30.0391C683.555 29.612 683.732 28.9219 683.742 27.9688V27.7109C683.742 26.6224 683.565 25.849 683.211 25.3906C682.857 24.9323 682.302 24.7031 681.547 24.7031C680.901 24.7031 680.404 24.9661 680.055 25.4922C679.706 26.013 679.531 26.7578 679.531 27.7266C679.531 28.6849 679.701 29.4167 680.039 29.9219C680.378 30.4219 680.885 30.6719 681.562 30.6719ZM700.039 24.0312C700.039 25.224 699.648 26.138 698.867 26.7734C698.086 27.4089 696.974 27.7266 695.531 27.7266H694.344V32H692.477V20.5781H695.766C697.193 20.5781 698.26 20.8698 698.969 21.4531C699.682 22.0365 700.039 22.8958 700.039 24.0312ZM694.344 26.1562H695.336C696.294 26.1562 696.997 25.9896 697.445 25.6562C697.893 25.3229 698.117 24.8021 698.117 24.0938C698.117 23.4375 697.917 22.9479 697.516 22.625C697.115 22.3021 696.49 22.1406 695.641 22.1406H694.344V26.1562ZM707.531 32L707.164 30.7969H707.102C706.685 31.3229 706.266 31.6823 705.844 31.875C705.422 32.0625 704.88 32.1562 704.219 32.1562C703.37 32.1562 702.706 31.9271 702.227 31.4688C701.753 31.0104 701.516 30.362 701.516 29.5234C701.516 28.6328 701.846 27.9609 702.508 27.5078C703.169 27.0547 704.177 26.8073 705.531 26.7656L707.023 26.7188V26.2578C707.023 25.7057 706.893 25.2943 706.633 25.0234C706.378 24.7474 705.979 24.6094 705.438 24.6094C704.995 24.6094 704.57 24.6745 704.164 24.8047C703.758 24.9349 703.367 25.0885 702.992 25.2656L702.398 23.9531C702.867 23.7083 703.38 23.5234 703.938 23.3984C704.495 23.2682 705.021 23.2031 705.516 23.2031C706.615 23.2031 707.443 23.4427 708 23.9219C708.562 24.401 708.844 25.1536 708.844 26.1797V32H707.531ZM704.797 30.75C705.464 30.75 705.997 30.5651 706.398 30.1953C706.805 29.8203 707.008 29.2969 707.008 28.625V27.875L705.898 27.9219C705.034 27.9531 704.404 28.099 704.008 28.3594C703.617 28.6146 703.422 29.0078 703.422 29.5391C703.422 29.9245 703.536 30.224 703.766 30.4375C703.995 30.6458 704.339 30.75 704.797 30.75ZM710.094 23.3594H712.094L713.852 28.2578C714.117 28.9557 714.294 29.612 714.383 30.2266H714.445C714.492 29.9401 714.578 29.5938 714.703 29.1875C714.828 28.776 715.49 26.8333 716.688 23.3594H718.672L714.977 33.1484C714.305 34.9453 713.185 35.8438 711.617 35.8438C711.211 35.8438 710.815 35.7995 710.43 35.7109V34.2578C710.706 34.3203 711.021 34.3516 711.375 34.3516C712.26 34.3516 712.883 33.8385 713.242 32.8125L713.562 32L710.094 23.3594ZM724.367 23.2031C724.737 23.2031 725.042 23.2292 725.281 23.2812L725.102 24.9922C724.841 24.9297 724.57 24.8984 724.289 24.8984C723.555 24.8984 722.958 25.138 722.5 25.6172C722.047 26.0964 721.82 26.7188 721.82 27.4844V32H719.984V23.3594H721.422L721.664 24.8828H721.758C722.044 24.3672 722.417 23.9583 722.875 23.6562C723.339 23.3542 723.836 23.2031 724.367 23.2031ZM734.555 27.6641C734.555 29.0755 734.193 30.1771 733.469 30.9688C732.745 31.7604 731.737 32.1562 730.445 32.1562C729.638 32.1562 728.924 31.974 728.305 31.6094C727.685 31.2448 727.208 30.7214 726.875 30.0391C726.542 29.3568 726.375 28.5651 726.375 27.6641C726.375 26.263 726.734 25.1693 727.453 24.3828C728.172 23.5964 729.185 23.2031 730.492 23.2031C731.742 23.2031 732.732 23.6068 733.461 24.4141C734.19 25.2161 734.555 26.2995 734.555 27.6641ZM728.266 27.6641C728.266 29.6589 729.003 30.6562 730.477 30.6562C731.935 30.6562 732.664 29.6589 732.664 27.6641C732.664 25.6901 731.93 24.7031 730.461 24.7031C729.69 24.7031 729.13 24.9583 728.781 25.4688C728.438 25.9792 728.266 26.7109 728.266 27.6641ZM738.508 32H736.672V19.8438H738.508V32ZM742.977 32H741.141V19.8438H742.977V32Z" fill="#31393C"/>
<path d="M596.666 19.6667V18.3333C596.666 17.597 597.263 17 597.999 17H605.999C606.736 17 607.333 17.597 607.333 18.3333V19.6667" stroke="#74808B" stroke-width="2" stroke-miterlimit="10" stroke-linecap="square"/>
<path d="M611.778 20.333H592.222C591.547 20.333 591 20.6315 591 20.9997V23.6663C591 24.0345 591.547 24.333 592.222 24.333H611.778C612.453 24.333 613 24.0345 613 23.6663V20.9997C613 20.6315 612.453 20.333 611.778 20.333Z" stroke="#74808B" stroke-width="2" stroke-miterlimit="10" stroke-linecap="square"/>
<path d="M613 21.333V31.5997C613 33.6616 611.769 35.333 610.25 35.333H593.75C592.231 35.333 591 33.6616 591 31.5997V21.333" stroke="#74808B" stroke-width="2" stroke-miterlimit="10" stroke-linecap="round" stroke-linejoin="round"/>
<path d="M603.999 23.333H599.999C599.263 23.333 598.666 23.9299 598.666 24.6663C598.666 25.4027 599.263 25.9997 599.999 25.9997H603.999C604.736 25.9997 605.333 25.4027 605.333 24.6663C605.333 23.9299 604.736 23.333 603.999 23.333Z" fill="white" stroke="#74808B" stroke-width="2" stroke-miterlimit="10" stroke-linecap="square"/>
<g filter="url(#filter3_d_0_1205)">
<rect y="76" width="259" height="52" rx="10" fill="url(#paint3_linear_0_1205)"/>
<rect x="1" y="77" width="257" height="50" rx="9" stroke="white" stroke-width="2"/>
</g>
<path d="M67.4453 108L64.1328 98.4609H64.0703C64.1589 99.8776 64.2031 101.206 64.2031 102.445V108H62.5078V96.5781H65.1406L68.3125 105.664H68.3594L71.625 96.5781H74.2656V108H72.4688V102.352C72.4688 101.784 72.4818 101.044 72.5078 100.133C72.5391 99.2214 72.5651 98.6693 72.5859 98.4766H72.5234L69.0938 108H67.4453ZM82.4844 108L82.1172 106.797H82.0547C81.638 107.323 81.2188 107.682 80.7969 107.875C80.375 108.062 79.8333 108.156 79.1719 108.156C78.3229 108.156 77.6589 107.927 77.1797 107.469C76.7057 107.01 76.4688 106.362 76.4688 105.523C76.4688 104.633 76.7995 103.961 77.4609 103.508C78.1224 103.055 79.1302 102.807 80.4844 102.766L81.9766 102.719V102.258C81.9766 101.706 81.8464 101.294 81.5859 101.023C81.3307 100.747 80.9323 100.609 80.3906 100.609C79.9479 100.609 79.5234 100.674 79.1172 100.805C78.7109 100.935 78.3203 101.089 77.9453 101.266L77.3516 99.9531C77.8203 99.7083 78.3333 99.5234 78.8906 99.3984C79.4479 99.2682 79.974 99.2031 80.4688 99.2031C81.5677 99.2031 82.3958 99.4427 82.9531 99.9219C83.5156 100.401 83.7969 101.154 83.7969 102.18V108H82.4844ZM79.75 106.75C80.4167 106.75 80.9505 106.565 81.3516 106.195C81.7578 105.82 81.9609 105.297 81.9609 104.625V103.875L80.8516 103.922C79.987 103.953 79.3568 104.099 78.9609 104.359C78.5703 104.615 78.375 105.008 78.375 105.539C78.375 105.924 78.4896 106.224 78.7188 106.438C78.9479 106.646 79.2917 106.75 79.75 106.75ZM93.9609 108H92.1172V102.688C92.1172 102.021 91.9818 101.523 91.7109 101.195C91.4453 100.867 91.0208 100.703 90.4375 100.703C89.6615 100.703 89.0938 100.932 88.7344 101.391C88.375 101.849 88.1953 102.617 88.1953 103.695V108H86.3594V99.3594H87.7969L88.0547 100.492H88.1484C88.4089 100.081 88.7786 99.763 89.2578 99.5391C89.737 99.3151 90.2682 99.2031 90.8516 99.2031C92.9245 99.2031 93.9609 100.258 93.9609 102.367V108ZM102.609 108L102.352 106.867H102.258C102.003 107.268 101.638 107.583 101.164 107.812C100.695 108.042 100.159 108.156 99.5547 108.156C98.5078 108.156 97.7266 107.896 97.2109 107.375C96.6953 106.854 96.4375 106.065 96.4375 105.008V99.3594H98.2891V104.688C98.2891 105.349 98.4245 105.846 98.6953 106.18C98.9661 106.508 99.3906 106.672 99.9688 106.672C100.74 106.672 101.305 106.443 101.664 105.984C102.029 105.521 102.211 104.747 102.211 103.664V99.3594H104.055V108H102.609ZM111.008 100.75H108.898V108H107.055V100.75H105.633V99.8906L107.055 99.3281V98.7656C107.055 97.7448 107.294 96.9896 107.773 96.5C108.253 96.0052 108.984 95.7578 109.969 95.7578C110.615 95.7578 111.25 95.8646 111.875 96.0781L111.391 97.4688C110.938 97.3229 110.505 97.25 110.094 97.25C109.677 97.25 109.372 97.3802 109.18 97.6406C108.992 97.8958 108.898 98.2812 108.898 98.7969V99.3594H111.008V100.75ZM117.891 108L117.523 106.797H117.461C117.044 107.323 116.625 107.682 116.203 107.875C115.781 108.062 115.24 108.156 114.578 108.156C113.729 108.156 113.065 107.927 112.586 107.469C112.112 107.01 111.875 106.362 111.875 105.523C111.875 104.633 112.206 103.961 112.867 103.508C113.529 103.055 114.536 102.807 115.891 102.766L117.383 102.719V102.258C117.383 101.706 117.253 101.294 116.992 101.023C116.737 100.747 116.339 100.609 115.797 100.609C115.354 100.609 114.93 100.674 114.523 100.805C114.117 100.935 113.727 101.089 113.352 101.266L112.758 99.9531C113.227 99.7083 113.74 99.5234 114.297 99.3984C114.854 99.2682 115.38 99.2031 115.875 99.2031C116.974 99.2031 117.802 99.4427 118.359 99.9219C118.922 100.401 119.203 101.154 119.203 102.18V108H117.891ZM115.156 106.75C115.823 106.75 116.357 106.565 116.758 106.195C117.164 105.82 117.367 105.297 117.367 104.625V103.875L116.258 103.922C115.393 103.953 114.763 104.099 114.367 104.359C113.977 104.615 113.781 105.008 113.781 105.539C113.781 105.924 113.896 106.224 114.125 106.438C114.354 106.646 114.698 106.75 115.156 106.75ZM125.25 108.156C123.943 108.156 122.948 107.776 122.266 107.016C121.589 106.25 121.25 105.154 121.25 103.727C121.25 102.273 121.604 101.156 122.312 100.375C123.026 99.5938 124.055 99.2031 125.398 99.2031C126.31 99.2031 127.13 99.3724 127.859 99.7109L127.305 101.188C126.529 100.885 125.888 100.734 125.383 100.734C123.888 100.734 123.141 101.727 123.141 103.711C123.141 104.68 123.326 105.409 123.695 105.898C124.07 106.383 124.617 106.625 125.336 106.625C126.154 106.625 126.927 106.422 127.656 106.016V107.617C127.328 107.81 126.977 107.948 126.602 108.031C126.232 108.115 125.781 108.156 125.25 108.156ZM132.906 106.672C133.354 106.672 133.802 106.602 134.25 106.461V107.844C134.047 107.932 133.784 108.005 133.461 108.062C133.143 108.125 132.812 108.156 132.469 108.156C130.729 108.156 129.859 107.24 129.859 105.406V100.75H128.68V99.9375L129.945 99.2656L130.57 97.4375H131.703V99.3594H134.164V100.75H131.703V105.375C131.703 105.818 131.812 106.146 132.031 106.359C132.255 106.568 132.547 106.672 132.906 106.672ZM142.078 108L141.82 106.867H141.727C141.471 107.268 141.107 107.583 140.633 107.812C140.164 108.042 139.628 108.156 139.023 108.156C137.977 108.156 137.195 107.896 136.68 107.375C136.164 106.854 135.906 106.065 135.906 105.008V99.3594H137.758V104.688C137.758 105.349 137.893 105.846 138.164 106.18C138.435 106.508 138.859 106.672 139.438 106.672C140.208 106.672 140.773 106.443 141.133 105.984C141.497 105.521 141.68 104.747 141.68 103.664V99.3594H143.523V108H142.078ZM150.523 99.2031C150.893 99.2031 151.198 99.2292 151.438 99.2812L151.258 100.992C150.997 100.93 150.727 100.898 150.445 100.898C149.711 100.898 149.115 101.138 148.656 101.617C148.203 102.096 147.977 102.719 147.977 103.484V108H146.141V99.3594H147.578L147.82 100.883H147.914C148.201 100.367 148.573 99.9583 149.031 99.6562C149.495 99.3542 149.992 99.2031 150.523 99.2031ZM154.883 108H153.047V99.3594H154.883V108ZM152.938 97.0703C152.938 96.7422 153.026 96.4896 153.203 96.3125C153.385 96.1354 153.643 96.0469 153.977 96.0469C154.299 96.0469 154.549 96.1354 154.727 96.3125C154.909 96.4896 155 96.7422 155 97.0703C155 97.3828 154.909 97.6302 154.727 97.8125C154.549 97.9896 154.299 98.0781 153.977 98.0781C153.643 98.0781 153.385 97.9896 153.203 97.8125C153.026 97.6302 152.938 97.3828 152.938 97.0703ZM165.117 108H163.273V102.688C163.273 102.021 163.138 101.523 162.867 101.195C162.602 100.867 162.177 100.703 161.594 100.703C160.818 100.703 160.25 100.932 159.891 101.391C159.531 101.849 159.352 102.617 159.352 103.695V108H157.516V99.3594H158.953L159.211 100.492H159.305C159.565 100.081 159.935 99.763 160.414 99.5391C160.893 99.3151 161.424 99.2031 162.008 99.2031C164.081 99.2031 165.117 100.258 165.117 102.367V108ZM174.969 99.3594V100.367L173.492 100.641C173.628 100.823 173.74 101.047 173.828 101.312C173.917 101.578 173.961 101.859 173.961 102.156C173.961 103.047 173.654 103.747 173.039 104.258C172.424 104.768 171.578 105.023 170.5 105.023C170.224 105.023 169.974 105.003 169.75 104.961C169.354 105.206 169.156 105.492 169.156 105.82C169.156 106.018 169.247 106.167 169.43 106.266C169.617 106.365 169.958 106.414 170.453 106.414H171.961C172.914 106.414 173.638 106.617 174.133 107.023C174.628 107.43 174.875 108.016 174.875 108.781C174.875 109.76 174.471 110.516 173.664 111.047C172.857 111.578 171.69 111.844 170.164 111.844C168.987 111.844 168.089 111.635 167.469 111.219C166.849 110.802 166.539 110.208 166.539 109.438C166.539 108.906 166.706 108.458 167.039 108.094C167.378 107.734 167.849 107.484 168.453 107.344C168.208 107.24 168.005 107.073 167.844 106.844C167.688 106.609 167.609 106.365 167.609 106.109C167.609 105.786 167.701 105.513 167.883 105.289C168.065 105.065 168.336 104.844 168.695 104.625C168.247 104.432 167.883 104.12 167.602 103.688C167.326 103.25 167.188 102.74 167.188 102.156C167.188 101.219 167.482 100.492 168.07 99.9766C168.664 99.4609 169.508 99.2031 170.602 99.2031C170.846 99.2031 171.102 99.2214 171.367 99.2578C171.638 99.2891 171.841 99.3229 171.977 99.3594H174.969ZM168.18 109.344C168.18 109.74 168.357 110.044 168.711 110.258C169.07 110.471 169.573 110.578 170.219 110.578C171.219 110.578 171.964 110.435 172.453 110.148C172.943 109.862 173.188 109.482 173.188 109.008C173.188 108.633 173.052 108.365 172.781 108.203C172.516 108.047 172.018 107.969 171.289 107.969H169.898C169.372 107.969 168.953 108.091 168.641 108.336C168.333 108.586 168.18 108.922 168.18 109.344ZM168.969 102.156C168.969 102.698 169.107 103.115 169.383 103.406C169.664 103.698 170.065 103.844 170.586 103.844C171.648 103.844 172.18 103.276 172.18 102.141C172.18 101.578 172.047 101.146 171.781 100.844C171.521 100.536 171.122 100.383 170.586 100.383C170.055 100.383 169.651 100.534 169.375 100.836C169.104 101.138 168.969 101.578 168.969 102.156Z" fill="#31393C"/>
<g filter="url(#filter4_d_0_1205)">
<rect x="285" y="76" width="259" height="52" rx="10" fill="url(#paint4_linear_0_1205)"/>
<rect x="286" y="77" width="257" height="50" rx="9" stroke="white" stroke-width="2"/>
</g>
<path d="M352.367 98.0156C351.294 98.0156 350.451 98.3958 349.836 99.1562C349.221 99.9167 348.914 100.966 348.914 102.305C348.914 103.706 349.208 104.766 349.797 105.484C350.391 106.203 351.247 106.562 352.367 106.562C352.852 106.562 353.32 106.516 353.773 106.422C354.227 106.323 354.698 106.198 355.188 106.047V107.648C354.292 107.987 353.276 108.156 352.141 108.156C350.469 108.156 349.185 107.651 348.289 106.641C347.393 105.625 346.945 104.174 346.945 102.289C346.945 101.102 347.161 100.062 347.594 99.1719C348.031 98.2812 348.661 97.599 349.484 97.125C350.307 96.651 351.273 96.4141 352.383 96.4141C353.549 96.4141 354.628 96.6589 355.617 97.1484L354.945 98.7031C354.56 98.5208 354.151 98.362 353.719 98.2266C353.292 98.0859 352.841 98.0156 352.367 98.0156ZM359.516 101.891H360.812C361.682 101.891 362.312 101.729 362.703 101.406C363.094 101.083 363.289 100.604 363.289 99.9688C363.289 99.3229 363.078 98.8594 362.656 98.5781C362.234 98.2969 361.599 98.1562 360.75 98.1562H359.516V101.891ZM359.516 103.438V108H357.648V96.5781H360.875C362.349 96.5781 363.44 96.8542 364.148 97.4062C364.857 97.9583 365.211 98.7917 365.211 99.9062C365.211 101.328 364.471 102.341 362.992 102.945L366.219 108H364.094L361.359 103.438H359.516ZM372.82 108L369.508 98.4609H369.445C369.534 99.8776 369.578 101.206 369.578 102.445V108H367.883V96.5781H370.516L373.688 105.664H373.734L377 96.5781H379.641V108H377.844V102.352C377.844 101.784 377.857 101.044 377.883 100.133C377.914 99.2214 377.94 98.6693 377.961 98.4766H377.898L374.469 108H372.82Z" fill="#31393C"/>
<path d="M319.182 90V99.8181H329C329 94.3953 324.605 90 319.182 90Z" stroke="#74808B" stroke-width="2" stroke-miterlimit="10" stroke-linecap="square" stroke-linejoin="round"/>
<path d="M314.818 94.3636C309.395 94.3636 305 98.7589 305 104.182C305 109.605 309.395 114 314.818 114C320.241 114 324.636 109.605 324.636 104.182H314.818V94.3636Z" stroke="#74808B" stroke-width="2" stroke-miterlimit="10" stroke-linecap="square" stroke-linejoin="round"/>
<g filter="url(#filter5_d_0_1205)">
<rect x="570" y="76" width="259" height="52" rx="10" fill="url(#paint5_linear_0_1205)"/>
<rect x="571" y="77" width="257" height="50" rx="9" stroke="white" stroke-width="2"/>
</g>
<path d="M640.07 100.031C640.07 101.224 639.68 102.138 638.898 102.773C638.117 103.409 637.005 103.727 635.562 103.727H634.375V108H632.508V96.5781H635.797C637.224 96.5781 638.292 96.8698 639 97.4531C639.714 98.0365 640.07 98.8958 640.07 100.031ZM634.375 102.156H635.367C636.326 102.156 637.029 101.99 637.477 101.656C637.924 101.323 638.148 100.802 638.148 100.094C638.148 99.4375 637.948 98.9479 637.547 98.625C637.146 98.3021 636.521 98.1406 635.672 98.1406H634.375V102.156ZM646.539 99.2031C646.909 99.2031 647.214 99.2292 647.453 99.2812L647.273 100.992C647.013 100.93 646.742 100.898 646.461 100.898C645.727 100.898 645.13 101.138 644.672 101.617C644.219 102.096 643.992 102.719 643.992 103.484V108H642.156V99.3594H643.594L643.836 100.883H643.93C644.216 100.367 644.589 99.9583 645.047 99.6562C645.51 99.3542 646.008 99.2031 646.539 99.2031ZM656.727 103.664C656.727 105.076 656.365 106.177 655.641 106.969C654.917 107.76 653.909 108.156 652.617 108.156C651.81 108.156 651.096 107.974 650.477 107.609C649.857 107.245 649.38 106.721 649.047 106.039C648.714 105.357 648.547 104.565 648.547 103.664C648.547 102.263 648.906 101.169 649.625 100.383C650.344 99.5964 651.357 99.2031 652.664 99.2031C653.914 99.2031 654.904 99.6068 655.633 100.414C656.362 101.216 656.727 102.299 656.727 103.664ZM650.438 103.664C650.438 105.659 651.174 106.656 652.648 106.656C654.107 106.656 654.836 105.659 654.836 103.664C654.836 101.69 654.102 100.703 652.633 100.703C651.862 100.703 651.302 100.958 650.953 101.469C650.609 101.979 650.438 102.711 650.438 103.664ZM657.961 111.844C657.409 111.844 656.951 111.779 656.586 111.648V110.195C656.94 110.289 657.302 110.336 657.672 110.336C658.453 110.336 658.844 109.893 658.844 109.008V99.3594H660.68V109.133C660.68 110.023 660.445 110.698 659.977 111.156C659.513 111.615 658.841 111.844 657.961 111.844ZM658.734 97.0703C658.734 96.7422 658.823 96.4896 659 96.3125C659.182 96.1354 659.44 96.0469 659.773 96.0469C660.096 96.0469 660.346 96.1354 660.523 96.3125C660.706 96.4896 660.797 96.7422 660.797 97.0703C660.797 97.3828 660.706 97.6302 660.523 97.8125C660.346 97.9896 660.096 98.0781 659.773 98.0781C659.44 98.0781 659.182 97.9896 659 97.8125C658.823 97.6302 658.734 97.3828 658.734 97.0703ZM667.086 108.156C665.742 108.156 664.69 107.766 663.93 106.984C663.174 106.198 662.797 105.117 662.797 103.742C662.797 102.331 663.148 101.221 663.852 100.414C664.555 99.6068 665.521 99.2031 666.75 99.2031C667.891 99.2031 668.792 99.5495 669.453 100.242C670.115 100.935 670.445 101.888 670.445 103.102V104.094H664.688C664.714 104.932 664.94 105.578 665.367 106.031C665.794 106.479 666.396 106.703 667.172 106.703C667.682 106.703 668.156 106.656 668.594 106.562C669.036 106.464 669.51 106.302 670.016 106.078V107.57C669.568 107.784 669.115 107.935 668.656 108.023C668.198 108.112 667.674 108.156 667.086 108.156ZM666.75 100.594C666.167 100.594 665.698 100.779 665.344 101.148C664.995 101.518 664.786 102.057 664.719 102.766H668.641C668.63 102.052 668.458 101.513 668.125 101.148C667.792 100.779 667.333 100.594 666.75 100.594ZM676.016 108.156C674.708 108.156 673.714 107.776 673.031 107.016C672.354 106.25 672.016 105.154 672.016 103.727C672.016 102.273 672.37 101.156 673.078 100.375C673.792 99.5938 674.82 99.2031 676.164 99.2031C677.076 99.2031 677.896 99.3724 678.625 99.7109L678.07 101.188C677.294 100.885 676.654 100.734 676.148 100.734C674.654 100.734 673.906 101.727 673.906 103.711C673.906 104.68 674.091 105.409 674.461 105.898C674.836 106.383 675.383 106.625 676.102 106.625C676.919 106.625 677.693 106.422 678.422 106.016V107.617C678.094 107.81 677.742 107.948 677.367 108.031C676.997 108.115 676.547 108.156 676.016 108.156ZM683.672 106.672C684.12 106.672 684.568 106.602 685.016 106.461V107.844C684.812 107.932 684.549 108.005 684.227 108.062C683.909 108.125 683.578 108.156 683.234 108.156C681.495 108.156 680.625 107.24 680.625 105.406V100.75H679.445V99.9375L680.711 99.2656L681.336 97.4375H682.469V99.3594H684.93V100.75H682.469V105.375C682.469 105.818 682.578 106.146 682.797 106.359C683.021 106.568 683.312 106.672 683.672 106.672ZM692.555 105.539C692.555 106.383 692.247 107.031 691.633 107.484C691.018 107.932 690.138 108.156 688.992 108.156C687.841 108.156 686.917 107.982 686.219 107.633V106.047C687.234 106.516 688.18 106.75 689.055 106.75C690.185 106.75 690.75 106.409 690.75 105.727C690.75 105.508 690.688 105.326 690.562 105.18C690.438 105.034 690.232 104.883 689.945 104.727C689.659 104.57 689.26 104.393 688.75 104.195C687.755 103.81 687.081 103.424 686.727 103.039C686.378 102.654 686.203 102.154 686.203 101.539C686.203 100.799 686.5 100.227 687.094 99.8203C687.693 99.4089 688.505 99.2031 689.531 99.2031C690.547 99.2031 691.508 99.4089 692.414 99.8203L691.82 101.203C690.888 100.818 690.104 100.625 689.469 100.625C688.5 100.625 688.016 100.901 688.016 101.453C688.016 101.724 688.141 101.953 688.391 102.141C688.646 102.328 689.198 102.586 690.047 102.914C690.76 103.19 691.279 103.443 691.602 103.672C691.924 103.901 692.164 104.167 692.32 104.469C692.477 104.766 692.555 105.122 692.555 105.539Z" fill="#31393C"/>
<path d="M590 96.6664V111.333C590 112.806 591.194 114 592.667 114H611.333C612.806 114 614 112.806 614 111.333V100.666C614 100.298 613.701 99.9998 613.333 99.9998H601.225C601.025 99.9998 600.836 99.91 600.709 99.7552L597.836 96.2443C597.71 96.0895 597.52 95.9998 597.32 95.9998H590.667C590.298 95.9998 590 96.2982 590 96.6664Z" stroke="#74808B" stroke-width="2" stroke-miterlimit="10" stroke-linecap="square"/>
<path d="M592.182 91.3334H611.818V95.697" stroke="#74808B" stroke-width="2" stroke-miterlimit="10" stroke-linecap="round" stroke-linejoin="round"/>
<g filter="url(#filter6_d_0_1205)">
<rect y="152" width="259" height="52" rx="10" fill="url(#paint6_linear_0_1205)"/>
<rect x="1" y="153" width="257" height="50" rx="9" stroke="white" stroke-width="2"/>
</g>
<path d="M71.5156 184H69.6406V178.852H64.375V184H62.5078V172.578H64.375V177.25H69.6406V172.578H71.5156V184ZM78.1016 184.156C76.7578 184.156 75.7057 183.766 74.9453 182.984C74.1901 182.198 73.8125 181.117 73.8125 179.742C73.8125 178.331 74.1641 177.221 74.8672 176.414C75.5703 175.607 76.5365 175.203 77.7656 175.203C78.9062 175.203 79.8073 175.549 80.4688 176.242C81.1302 176.935 81.4609 177.888 81.4609 179.102V180.094H75.7031C75.7292 180.932 75.9557 181.578 76.3828 182.031C76.8099 182.479 77.4115 182.703 78.1875 182.703C78.6979 182.703 79.1719 182.656 79.6094 182.562C80.0521 182.464 80.526 182.302 81.0312 182.078V183.57C80.5833 183.784 80.1302 183.935 79.6719 184.023C79.2135 184.112 78.6901 184.156 78.1016 184.156ZM77.7656 176.594C77.1823 176.594 76.7135 176.779 76.3594 177.148C76.0104 177.518 75.8021 178.057 75.7344 178.766H79.6562C79.6458 178.052 79.474 177.513 79.1406 177.148C78.8073 176.779 78.349 176.594 77.7656 176.594ZM85.3828 184H83.5469V171.844H85.3828V184ZM92.3984 184.156C91.3047 184.156 90.4557 183.763 89.8516 182.977H89.7422C89.8151 183.706 89.8516 184.148 89.8516 184.305V187.844H88.0156V175.359H89.5C89.5417 175.521 89.6276 175.906 89.7578 176.516H89.8516C90.4245 175.641 91.2839 175.203 92.4297 175.203C93.5078 175.203 94.3464 175.594 94.9453 176.375C95.5495 177.156 95.8516 178.253 95.8516 179.664C95.8516 181.076 95.5443 182.177 94.9297 182.969C94.3203 183.76 93.4766 184.156 92.3984 184.156ZM91.9531 176.703C91.224 176.703 90.6901 176.917 90.3516 177.344C90.0182 177.771 89.8516 178.453 89.8516 179.391V179.664C89.8516 180.716 90.0182 181.479 90.3516 181.953C90.6849 182.422 91.2292 182.656 91.9844 182.656C92.6198 182.656 93.1094 182.396 93.4531 181.875C93.7969 181.354 93.9688 180.612 93.9688 179.648C93.9688 178.68 93.7969 177.948 93.4531 177.453C93.1146 176.953 92.6146 176.703 91.9531 176.703ZM100.898 184.156C99.8203 184.156 98.9792 183.766 98.375 182.984C97.7708 182.203 97.4688 181.107 97.4688 179.695C97.4688 178.279 97.7734 177.177 98.3828 176.391C98.9974 175.599 99.8464 175.203 100.93 175.203C102.065 175.203 102.93 175.622 103.523 176.461H103.617C103.529 175.841 103.484 175.352 103.484 174.992V171.844H105.328V184H103.891L103.57 182.867H103.484C102.896 183.727 102.034 184.156 100.898 184.156ZM101.391 182.672C102.146 182.672 102.695 182.461 103.039 182.039C103.383 181.612 103.56 180.922 103.57 179.969V179.711C103.57 178.622 103.393 177.849 103.039 177.391C102.685 176.932 102.13 176.703 101.375 176.703C100.729 176.703 100.232 176.966 99.8828 177.492C99.5339 178.013 99.3594 178.758 99.3594 179.727C99.3594 180.685 99.5286 181.417 99.8672 181.922C100.206 182.422 100.714 182.672 101.391 182.672ZM111.727 184.156C110.383 184.156 109.331 183.766 108.57 182.984C107.815 182.198 107.438 181.117 107.438 179.742C107.438 178.331 107.789 177.221 108.492 176.414C109.195 175.607 110.161 175.203 111.391 175.203C112.531 175.203 113.432 175.549 114.094 176.242C114.755 176.935 115.086 177.888 115.086 179.102V180.094H109.328C109.354 180.932 109.581 181.578 110.008 182.031C110.435 182.479 111.036 182.703 111.812 182.703C112.323 182.703 112.797 182.656 113.234 182.562C113.677 182.464 114.151 182.302 114.656 182.078V183.57C114.208 183.784 113.755 183.935 113.297 184.023C112.839 184.112 112.315 184.156 111.727 184.156ZM111.391 176.594C110.807 176.594 110.339 176.779 109.984 177.148C109.635 177.518 109.427 178.057 109.359 178.766H113.281C113.271 178.052 113.099 177.513 112.766 177.148C112.432 176.779 111.974 176.594 111.391 176.594ZM122.977 181.539C122.977 182.383 122.669 183.031 122.055 183.484C121.44 183.932 120.56 184.156 119.414 184.156C118.263 184.156 117.339 183.982 116.641 183.633V182.047C117.656 182.516 118.602 182.75 119.477 182.75C120.607 182.75 121.172 182.409 121.172 181.727C121.172 181.508 121.109 181.326 120.984 181.18C120.859 181.034 120.654 180.883 120.367 180.727C120.081 180.57 119.682 180.393 119.172 180.195C118.177 179.81 117.503 179.424 117.148 179.039C116.799 178.654 116.625 178.154 116.625 177.539C116.625 176.799 116.922 176.227 117.516 175.82C118.115 175.409 118.927 175.203 119.953 175.203C120.969 175.203 121.93 175.409 122.836 175.82L122.242 177.203C121.31 176.818 120.526 176.625 119.891 176.625C118.922 176.625 118.438 176.901 118.438 177.453C118.438 177.724 118.562 177.953 118.812 178.141C119.068 178.328 119.62 178.586 120.469 178.914C121.182 179.19 121.701 179.443 122.023 179.672C122.346 179.901 122.586 180.167 122.742 180.469C122.898 180.766 122.977 181.122 122.977 181.539ZM126.742 179.438L127.781 178.141L130.391 175.359H132.508L129.031 179.07L132.727 184H130.57L127.797 180.211L126.789 181.039V184H124.969V171.844H126.789V177.773L126.695 179.438H126.742Z" fill="#31393C"/>
<g filter="url(#filter7_d_0_1205)">
<rect x="285" y="152" width="259" height="52" rx="10" fill="url(#paint7_linear_0_1205)"/>
<rect x="286" y="153" width="257" height="50" rx="9" stroke="white" stroke-width="2"/>
</g>
<path d="M354.594 184L353.453 180.828H349.086L347.969 184H346L350.273 172.531H352.305L356.578 184H354.594ZM352.961 179.219L351.891 176.109C351.812 175.901 351.703 175.573 351.562 175.125C351.427 174.677 351.333 174.349 351.281 174.141C351.141 174.781 350.935 175.482 350.664 176.242L349.633 179.219H352.961ZM363.695 181.539C363.695 182.383 363.388 183.031 362.773 183.484C362.159 183.932 361.279 184.156 360.133 184.156C358.982 184.156 358.057 183.982 357.359 183.633V182.047C358.375 182.516 359.32 182.75 360.195 182.75C361.326 182.75 361.891 182.409 361.891 181.727C361.891 181.508 361.828 181.326 361.703 181.18C361.578 181.034 361.372 180.883 361.086 180.727C360.799 180.57 360.401 180.393 359.891 180.195C358.896 179.81 358.221 179.424 357.867 179.039C357.518 178.654 357.344 178.154 357.344 177.539C357.344 176.799 357.641 176.227 358.234 175.82C358.833 175.409 359.646 175.203 360.672 175.203C361.688 175.203 362.648 175.409 363.555 175.82L362.961 177.203C362.029 176.818 361.245 176.625 360.609 176.625C359.641 176.625 359.156 176.901 359.156 177.453C359.156 177.724 359.281 177.953 359.531 178.141C359.786 178.328 360.339 178.586 361.188 178.914C361.901 179.19 362.419 179.443 362.742 179.672C363.065 179.901 363.305 180.167 363.461 180.469C363.617 180.766 363.695 181.122 363.695 181.539ZM371.492 181.539C371.492 182.383 371.185 183.031 370.57 183.484C369.956 183.932 369.076 184.156 367.93 184.156C366.779 184.156 365.854 183.982 365.156 183.633V182.047C366.172 182.516 367.117 182.75 367.992 182.75C369.122 182.75 369.688 182.409 369.688 181.727C369.688 181.508 369.625 181.326 369.5 181.18C369.375 181.034 369.169 180.883 368.883 180.727C368.596 180.57 368.198 180.393 367.688 180.195C366.693 179.81 366.018 179.424 365.664 179.039C365.315 178.654 365.141 178.154 365.141 177.539C365.141 176.799 365.438 176.227 366.031 175.82C366.63 175.409 367.443 175.203 368.469 175.203C369.484 175.203 370.445 175.409 371.352 175.82L370.758 177.203C369.826 176.818 369.042 176.625 368.406 176.625C367.438 176.625 366.953 176.901 366.953 177.453C366.953 177.724 367.078 177.953 367.328 178.141C367.583 178.328 368.135 178.586 368.984 178.914C369.698 179.19 370.216 179.443 370.539 179.672C370.862 179.901 371.102 180.167 371.258 180.469C371.414 180.766 371.492 181.122 371.492 181.539ZM377.258 184.156C375.914 184.156 374.862 183.766 374.102 182.984C373.346 182.198 372.969 181.117 372.969 179.742C372.969 178.331 373.32 177.221 374.023 176.414C374.727 175.607 375.693 175.203 376.922 175.203C378.062 175.203 378.964 175.549 379.625 176.242C380.286 176.935 380.617 177.888 380.617 179.102V180.094H374.859C374.885 180.932 375.112 181.578 375.539 182.031C375.966 182.479 376.568 182.703 377.344 182.703C377.854 182.703 378.328 182.656 378.766 182.562C379.208 182.464 379.682 182.302 380.188 182.078V183.57C379.74 183.784 379.286 183.935 378.828 184.023C378.37 184.112 377.846 184.156 377.258 184.156ZM376.922 176.594C376.339 176.594 375.87 176.779 375.516 177.148C375.167 177.518 374.958 178.057 374.891 178.766H378.812C378.802 178.052 378.63 177.513 378.297 177.148C377.964 176.779 377.505 176.594 376.922 176.594ZM385.922 182.672C386.37 182.672 386.818 182.602 387.266 182.461V183.844C387.062 183.932 386.799 184.005 386.477 184.062C386.159 184.125 385.828 184.156 385.484 184.156C383.745 184.156 382.875 183.24 382.875 181.406V176.75H381.695V175.938L382.961 175.266L383.586 173.438H384.719V175.359H387.18V176.75H384.719V181.375C384.719 181.818 384.828 182.146 385.047 182.359C385.271 182.568 385.562 182.672 385.922 182.672ZM398.289 184L394.977 174.461H394.914C395.003 175.878 395.047 177.206 395.047 178.445V184H393.352V172.578H395.984L399.156 181.664H399.203L402.469 172.578H405.109V184H403.312V178.352C403.312 177.784 403.326 177.044 403.352 176.133C403.383 175.221 403.409 174.669 403.43 174.477H403.367L399.938 184H398.289ZM413.328 184L412.961 182.797H412.898C412.482 183.323 412.062 183.682 411.641 183.875C411.219 184.062 410.677 184.156 410.016 184.156C409.167 184.156 408.503 183.927 408.023 183.469C407.549 183.01 407.312 182.362 407.312 181.523C407.312 180.633 407.643 179.961 408.305 179.508C408.966 179.055 409.974 178.807 411.328 178.766L412.82 178.719V178.258C412.82 177.706 412.69 177.294 412.43 177.023C412.174 176.747 411.776 176.609 411.234 176.609C410.792 176.609 410.367 176.674 409.961 176.805C409.555 176.935 409.164 177.089 408.789 177.266L408.195 175.953C408.664 175.708 409.177 175.523 409.734 175.398C410.292 175.268 410.818 175.203 411.312 175.203C412.411 175.203 413.24 175.443 413.797 175.922C414.359 176.401 414.641 177.154 414.641 178.18V184H413.328ZM410.594 182.75C411.26 182.75 411.794 182.565 412.195 182.195C412.602 181.82 412.805 181.297 412.805 180.625V179.875L411.695 179.922C410.831 179.953 410.201 180.099 409.805 180.359C409.414 180.615 409.219 181.008 409.219 181.539C409.219 181.924 409.333 182.224 409.562 182.438C409.792 182.646 410.135 182.75 410.594 182.75ZM424.805 184H422.961V178.688C422.961 178.021 422.826 177.523 422.555 177.195C422.289 176.867 421.865 176.703 421.281 176.703C420.505 176.703 419.938 176.932 419.578 177.391C419.219 177.849 419.039 178.617 419.039 179.695V184H417.203V175.359H418.641L418.898 176.492H418.992C419.253 176.081 419.622 175.763 420.102 175.539C420.581 175.315 421.112 175.203 421.695 175.203C423.768 175.203 424.805 176.258 424.805 178.367V184ZM432.766 184L432.398 182.797H432.336C431.919 183.323 431.5 183.682 431.078 183.875C430.656 184.062 430.115 184.156 429.453 184.156C428.604 184.156 427.94 183.927 427.461 183.469C426.987 183.01 426.75 182.362 426.75 181.523C426.75 180.633 427.081 179.961 427.742 179.508C428.404 179.055 429.411 178.807 430.766 178.766L432.258 178.719V178.258C432.258 177.706 432.128 177.294 431.867 177.023C431.612 176.747 431.214 176.609 430.672 176.609C430.229 176.609 429.805 176.674 429.398 176.805C428.992 176.935 428.602 177.089 428.227 177.266L427.633 175.953C428.102 175.708 428.615 175.523 429.172 175.398C429.729 175.268 430.255 175.203 430.75 175.203C431.849 175.203 432.677 175.443 433.234 175.922C433.797 176.401 434.078 177.154 434.078 178.18V184H432.766ZM430.031 182.75C430.698 182.75 431.232 182.565 431.633 182.195C432.039 181.82 432.242 181.297 432.242 180.625V179.875L431.133 179.922C430.268 179.953 429.638 180.099 429.242 180.359C428.852 180.615 428.656 181.008 428.656 181.539C428.656 181.924 428.771 182.224 429 182.438C429.229 182.646 429.573 182.75 430.031 182.75ZM443.938 175.359V176.367L442.461 176.641C442.596 176.823 442.708 177.047 442.797 177.312C442.885 177.578 442.93 177.859 442.93 178.156C442.93 179.047 442.622 179.747 442.008 180.258C441.393 180.768 440.547 181.023 439.469 181.023C439.193 181.023 438.943 181.003 438.719 180.961C438.323 181.206 438.125 181.492 438.125 181.82C438.125 182.018 438.216 182.167 438.398 182.266C438.586 182.365 438.927 182.414 439.422 182.414H440.93C441.883 182.414 442.607 182.617 443.102 183.023C443.596 183.43 443.844 184.016 443.844 184.781C443.844 185.76 443.44 186.516 442.633 187.047C441.826 187.578 440.659 187.844 439.133 187.844C437.956 187.844 437.057 187.635 436.438 187.219C435.818 186.802 435.508 186.208 435.508 185.438C435.508 184.906 435.674 184.458 436.008 184.094C436.346 183.734 436.818 183.484 437.422 183.344C437.177 183.24 436.974 183.073 436.812 182.844C436.656 182.609 436.578 182.365 436.578 182.109C436.578 181.786 436.669 181.513 436.852 181.289C437.034 181.065 437.305 180.844 437.664 180.625C437.216 180.432 436.852 180.12 436.57 179.688C436.294 179.25 436.156 178.74 436.156 178.156C436.156 177.219 436.451 176.492 437.039 175.977C437.633 175.461 438.477 175.203 439.57 175.203C439.815 175.203 440.07 175.221 440.336 175.258C440.607 175.289 440.81 175.323 440.945 175.359H443.938ZM437.148 185.344C437.148 185.74 437.326 186.044 437.68 186.258C438.039 186.471 438.542 186.578 439.188 186.578C440.188 186.578 440.932 186.435 441.422 186.148C441.911 185.862 442.156 185.482 442.156 185.008C442.156 184.633 442.021 184.365 441.75 184.203C441.484 184.047 440.987 183.969 440.258 183.969H438.867C438.341 183.969 437.922 184.091 437.609 184.336C437.302 184.586 437.148 184.922 437.148 185.344ZM437.938 178.156C437.938 178.698 438.076 179.115 438.352 179.406C438.633 179.698 439.034 179.844 439.555 179.844C440.617 179.844 441.148 179.276 441.148 178.141C441.148 177.578 441.016 177.146 440.75 176.844C440.49 176.536 440.091 176.383 439.555 176.383C439.023 176.383 438.62 176.534 438.344 176.836C438.073 177.138 437.938 177.578 437.938 178.156ZM449.32 184.156C447.977 184.156 446.924 183.766 446.164 182.984C445.409 182.198 445.031 181.117 445.031 179.742C445.031 178.331 445.383 177.221 446.086 176.414C446.789 175.607 447.755 175.203 448.984 175.203C450.125 175.203 451.026 175.549 451.688 176.242C452.349 176.935 452.68 177.888 452.68 179.102V180.094H446.922C446.948 180.932 447.174 181.578 447.602 182.031C448.029 182.479 448.63 182.703 449.406 182.703C449.917 182.703 450.391 182.656 450.828 182.562C451.271 182.464 451.745 182.302 452.25 182.078V183.57C451.802 183.784 451.349 183.935 450.891 184.023C450.432 184.112 449.909 184.156 449.32 184.156ZM448.984 176.594C448.401 176.594 447.932 176.779 447.578 177.148C447.229 177.518 447.021 178.057 446.953 178.766H450.875C450.865 178.052 450.693 177.513 450.359 177.148C450.026 176.779 449.568 176.594 448.984 176.594ZM462.047 184H460.203V178.672C460.203 178.01 460.078 177.518 459.828 177.195C459.578 176.867 459.188 176.703 458.656 176.703C457.948 176.703 457.427 176.935 457.094 177.398C456.766 177.857 456.602 178.622 456.602 179.695V184H454.766V175.359H456.203L456.461 176.492H456.555C456.794 176.081 457.141 175.763 457.594 175.539C458.052 175.315 458.555 175.203 459.102 175.203C460.43 175.203 461.31 175.656 461.742 176.562H461.867C462.122 176.135 462.482 175.802 462.945 175.562C463.409 175.323 463.94 175.203 464.539 175.203C465.57 175.203 466.32 175.464 466.789 175.984C467.263 176.505 467.5 177.299 467.5 178.367V184H465.664V178.672C465.664 178.01 465.536 177.518 465.281 177.195C465.031 176.867 464.641 176.703 464.109 176.703C463.396 176.703 462.872 176.927 462.539 177.375C462.211 177.818 462.047 178.5 462.047 179.422V184ZM473.836 184.156C472.492 184.156 471.44 183.766 470.68 182.984C469.924 182.198 469.547 181.117 469.547 179.742C469.547 178.331 469.898 177.221 470.602 176.414C471.305 175.607 472.271 175.203 473.5 175.203C474.641 175.203 475.542 175.549 476.203 176.242C476.865 176.935 477.195 177.888 477.195 179.102V180.094H471.438C471.464 180.932 471.69 181.578 472.117 182.031C472.544 182.479 473.146 182.703 473.922 182.703C474.432 182.703 474.906 182.656 475.344 182.562C475.786 182.464 476.26 182.302 476.766 182.078V183.57C476.318 183.784 475.865 183.935 475.406 184.023C474.948 184.112 474.424 184.156 473.836 184.156ZM473.5 176.594C472.917 176.594 472.448 176.779 472.094 177.148C471.745 177.518 471.536 178.057 471.469 178.766H475.391C475.38 178.052 475.208 177.513 474.875 177.148C474.542 176.779 474.083 176.594 473.5 176.594ZM486.883 184H485.039V178.688C485.039 178.021 484.904 177.523 484.633 177.195C484.367 176.867 483.943 176.703 483.359 176.703C482.583 176.703 482.016 176.932 481.656 177.391C481.297 177.849 481.117 178.617 481.117 179.695V184H479.281V175.359H480.719L480.977 176.492H481.07C481.331 176.081 481.701 175.763 482.18 175.539C482.659 175.315 483.19 175.203 483.773 175.203C485.846 175.203 486.883 176.258 486.883 178.367V184ZM492.656 182.672C493.104 182.672 493.552 182.602 494 182.461V183.844C493.797 183.932 493.534 184.005 493.211 184.062C492.893 184.125 492.562 184.156 492.219 184.156C490.479 184.156 489.609 183.24 489.609 181.406V176.75H488.43V175.938L489.695 175.266L490.32 173.438H491.453V175.359H493.914V176.75H491.453V181.375C491.453 181.818 491.562 182.146 491.781 182.359C492.005 182.568 492.297 182.672 492.656 182.672Z" fill="#31393C"/>
<path d="M326.333 173.333H307.667C306.194 173.333 305 174.527 305 176V188C305 189.472 306.194 190.666 307.667 190.666H326.333C327.806 190.666 329 189.472 329 188V176C329 174.527 327.806 173.333 326.333 173.333Z" stroke="#74808B" stroke-width="2" stroke-miterlimit="10" stroke-linecap="square"/>
<path d="M317 184.667C318.473 184.667 319.667 183.473 319.667 182C319.667 180.527 318.473 179.333 317 179.333C315.527 179.333 314.333 180.527 314.333 182C314.333 183.473 315.527 184.667 317 184.667Z" stroke="#74808B" stroke-width="2" stroke-miterlimit="10" stroke-linecap="square"/>
<path d="M325 170H309" stroke="#74808B" stroke-width="2" stroke-miterlimit="10" stroke-linecap="round"/>
<path d="M322.333 166.667H311.667" stroke="#74808B" stroke-width="2" stroke-miterlimit="10" stroke-linecap="round"/>
<g filter="url(#filter8_d_0_1205)">
<rect x="570" y="152" width="259" height="52" rx="10" fill="url(#paint8_linear_0_1205)"/>
<rect x="571" y="153" width="257" height="50" rx="9" stroke="white" stroke-width="2"/>
</g>
<path d="M643.047 184H641.016L639.078 177.188C638.995 176.891 638.891 176.464 638.766 175.906C638.641 175.344 638.565 174.953 638.539 174.734C638.487 175.068 638.401 175.5 638.281 176.031C638.167 176.562 638.07 176.958 637.992 177.219L636.102 184H634.07L632.594 178.281L631.094 172.578H633L634.633 179.234C634.888 180.302 635.07 181.245 635.18 182.062C635.237 181.62 635.323 181.125 635.438 180.578C635.552 180.031 635.656 179.589 635.75 179.25L637.609 172.578H639.461L641.367 179.281C641.549 179.901 641.742 180.828 641.945 182.062C642.023 181.318 642.211 180.37 642.508 179.219L644.133 172.578H646.023L643.047 184ZM651.227 184.156C649.883 184.156 648.831 183.766 648.07 182.984C647.315 182.198 646.938 181.117 646.938 179.742C646.938 178.331 647.289 177.221 647.992 176.414C648.695 175.607 649.661 175.203 650.891 175.203C652.031 175.203 652.932 175.549 653.594 176.242C654.255 176.935 654.586 177.888 654.586 179.102V180.094H648.828C648.854 180.932 649.081 181.578 649.508 182.031C649.935 182.479 650.536 182.703 651.312 182.703C651.823 182.703 652.297 182.656 652.734 182.562C653.177 182.464 653.651 182.302 654.156 182.078V183.57C653.708 183.784 653.255 183.935 652.797 184.023C652.339 184.112 651.815 184.156 651.227 184.156ZM650.891 176.594C650.307 176.594 649.839 176.779 649.484 177.148C649.135 177.518 648.927 178.057 648.859 178.766H652.781C652.771 178.052 652.599 177.513 652.266 177.148C651.932 176.779 651.474 176.594 650.891 176.594ZM661.086 175.203C662.164 175.203 663.003 175.594 663.602 176.375C664.206 177.156 664.508 178.253 664.508 179.664C664.508 181.081 664.203 182.185 663.594 182.977C662.984 183.763 662.138 184.156 661.055 184.156C659.961 184.156 659.112 183.763 658.508 182.977H658.383L658.047 184H656.672V171.844H658.508V174.734C658.508 174.948 658.497 175.266 658.477 175.688C658.456 176.109 658.44 176.378 658.43 176.492H658.508C659.091 175.633 659.951 175.203 661.086 175.203ZM660.609 176.703C659.87 176.703 659.336 176.922 659.008 177.359C658.685 177.792 658.518 178.518 658.508 179.539V179.664C658.508 180.716 658.674 181.479 659.008 181.953C659.341 182.422 659.885 182.656 660.641 182.656C661.292 182.656 661.784 182.398 662.117 181.883C662.456 181.367 662.625 180.622 662.625 179.648C662.625 177.685 661.953 176.703 660.609 176.703ZM672.445 181.539C672.445 182.383 672.138 183.031 671.523 183.484C670.909 183.932 670.029 184.156 668.883 184.156C667.732 184.156 666.807 183.982 666.109 183.633V182.047C667.125 182.516 668.07 182.75 668.945 182.75C670.076 182.75 670.641 182.409 670.641 181.727C670.641 181.508 670.578 181.326 670.453 181.18C670.328 181.034 670.122 180.883 669.836 180.727C669.549 180.57 669.151 180.393 668.641 180.195C667.646 179.81 666.971 179.424 666.617 179.039C666.268 178.654 666.094 178.154 666.094 177.539C666.094 176.799 666.391 176.227 666.984 175.82C667.583 175.409 668.396 175.203 669.422 175.203C670.438 175.203 671.398 175.409 672.305 175.82L671.711 177.203C670.779 176.818 669.995 176.625 669.359 176.625C668.391 176.625 667.906 176.901 667.906 177.453C667.906 177.724 668.031 177.953 668.281 178.141C668.536 178.328 669.089 178.586 669.938 178.914C670.651 179.19 671.169 179.443 671.492 179.672C671.815 179.901 672.055 180.167 672.211 180.469C672.367 180.766 672.445 181.122 672.445 181.539ZM676.273 184H674.438V175.359H676.273V184ZM674.328 173.07C674.328 172.742 674.417 172.49 674.594 172.312C674.776 172.135 675.034 172.047 675.367 172.047C675.69 172.047 675.94 172.135 676.117 172.312C676.299 172.49 676.391 172.742 676.391 173.07C676.391 173.383 676.299 173.63 676.117 173.812C675.94 173.99 675.69 174.078 675.367 174.078C675.034 174.078 674.776 173.99 674.594 173.812C674.417 173.63 674.328 173.383 674.328 173.07ZM682.125 182.672C682.573 182.672 683.021 182.602 683.469 182.461V183.844C683.266 183.932 683.003 184.005 682.68 184.062C682.362 184.125 682.031 184.156 681.688 184.156C679.948 184.156 679.078 183.24 679.078 181.406V176.75H677.898V175.938L679.164 175.266L679.789 173.438H680.922V175.359H683.383V176.75H680.922V181.375C680.922 181.818 681.031 182.146 681.25 182.359C681.474 182.568 681.766 182.672 682.125 182.672ZM688.977 184.156C687.633 184.156 686.581 183.766 685.82 182.984C685.065 182.198 684.688 181.117 684.688 179.742C684.688 178.331 685.039 177.221 685.742 176.414C686.445 175.607 687.411 175.203 688.641 175.203C689.781 175.203 690.682 175.549 691.344 176.242C692.005 176.935 692.336 177.888 692.336 179.102V180.094H686.578C686.604 180.932 686.831 181.578 687.258 182.031C687.685 182.479 688.286 182.703 689.062 182.703C689.573 182.703 690.047 182.656 690.484 182.562C690.927 182.464 691.401 182.302 691.906 182.078V183.57C691.458 183.784 691.005 183.935 690.547 184.023C690.089 184.112 689.565 184.156 688.977 184.156ZM688.641 176.594C688.057 176.594 687.589 176.779 687.234 177.148C686.885 177.518 686.677 178.057 686.609 178.766H690.531C690.521 178.052 690.349 177.513 690.016 177.148C689.682 176.779 689.224 176.594 688.641 176.594Z" fill="#31393C"/>
<path d="M590 174H614" stroke="#74808B" stroke-width="2" stroke-miterlimit="10"/>
<path d="M611.333 166.667H592.667C591.194 166.667 590 167.861 590 169.333V186.667C590 188.139 591.194 189.333 592.667 189.333H611.333C612.806 189.333 614 188.139 614 186.667V169.333C614 167.861 612.806 166.667 611.333 166.667Z" stroke="#74808B" stroke-width="2"/>
<path d="M593.667 171C594.035 171 594.333 170.701 594.333 170.333C594.333 169.965 594.035 169.667 593.667 169.667C593.298 169.667 593 169.965 593 170.333C593 170.701 593.298 171 593.667 171Z" fill="#74808B" stroke="#74808B"/>
<path d="M597 171C597.368 171 597.667 170.701 597.667 170.333C597.667 169.965 597.368 169.667 597 169.667C596.632 169.667 596.333 169.965 596.333 170.333C596.333 170.701 596.632 171 597 171Z" fill="#74808B" stroke="#74808B"/>
<path d="M600.333 171C600.702 171 601 170.701 601 170.333C601 169.965 600.702 169.667 600.333 169.667C599.965 169.667 599.667 169.965 599.667 170.333C599.667 170.701 599.965 171 600.333 171Z" fill="#74808B" stroke="#74808B"/>
<path d="M27.2121 28.4243H22.6667C21.5621 28.4243 20.6667 27.5288 20.6667 26.4243V16C20.6667 14.8954 21.5621 14 22.6667 14H38.3031C39.4076 14 40.3031 14.8954 40.3031 16V22.9138" stroke="#74808B" stroke-width="2" stroke-miterlimit="10" stroke-linecap="round" stroke-linejoin="round"/>
<path d="M31.5755 26V30.3636C31.5755 32.1713 34.5057 33.6364 38.1209 33.6364C41.7363 33.6364 44.6664 32.1713 44.6664 30.3636V26" stroke="#74808B" stroke-width="2" stroke-miterlimit="10"/>
<path d="M31.5755 30.3636V34.7274C31.5755 36.535 34.5057 38 38.1209 38C41.7363 38 44.6664 36.535 44.6664 34.7274V30.3636" stroke="#74808B" stroke-width="2" stroke-miterlimit="10"/>
<path d="M38.1209 29.2727C41.7359 29.2727 44.6664 27.8075 44.6664 26C44.6664 24.1926 41.7359 22.7273 38.1209 22.7273C34.506 22.7273 31.5755 24.1926 31.5755 26C31.5755 27.8075 34.506 29.2727 38.1209 29.2727Z" stroke="#74808B" stroke-width="2" stroke-miterlimit="10" stroke-linecap="square"/>
<path d="M30.4848 21.6364C31.0873 21.6364 31.5757 21.148 31.5757 20.5455C31.5757 19.943 31.0873 19.4546 30.4848 19.4546C29.8823 19.4546 29.3939 19.943 29.3939 20.5455C29.3939 21.148 29.8823 21.6364 30.4848 21.6364Z" stroke="#74808B" stroke-miterlimit="10" stroke-linecap="square"/>
<path d="M30.9091 20.5455C30.9091 20.7798 30.7191 20.9697 30.4848 20.9697C30.2505 20.9697 30.0605 20.7798 30.0605 20.5455C30.0605 20.3112 30.2505 20.1212 30.4848 20.1212C30.7191 20.1212 30.9091 20.3112 30.9091 20.5455Z" fill="#74808B" stroke="#74808B"/>
<path d="M24.3636 114H20V105.515C20 104.779 20.597 104.182 21.3333 104.182H24.3636" stroke="#74808B" stroke-width="2" stroke-miterlimit="10" stroke-linecap="square"/>
<path d="M39.6361 114H43.9997V105.515C43.9997 104.779 43.4028 104.182 42.6664 104.182H39.6361" stroke="#74808B" stroke-width="2" stroke-miterlimit="10" stroke-linecap="square"/>
<path d="M36.97 90H27.0306C25.5578 90 24.3639 91.1939 24.3639 92.6667V114H39.6367V92.6667C39.6367 91.1939 38.4428 90 36.97 90Z" stroke="#74808B" stroke-width="2" stroke-miterlimit="10" stroke-linecap="square"/>
<path d="M28.7272 94.3636H30.0605" stroke="#74808B" stroke-width="2" stroke-miterlimit="10" stroke-linecap="round"/>
<path d="M34.1816 94.3636H35.5149" stroke="#74808B" stroke-width="2" stroke-miterlimit="10" stroke-linecap="round"/>
<path d="M28.7272 98.7273H30.0605" stroke="#74808B" stroke-width="2" stroke-miterlimit="10" stroke-linecap="round"/>
<path d="M34.1816 98.7273H35.5149" stroke="#74808B" stroke-width="2" stroke-miterlimit="10" stroke-linecap="round"/>
<path d="M28.7272 103.091H30.0605" stroke="#74808B" stroke-width="2" stroke-miterlimit="10" stroke-linecap="round"/>
<path d="M34.1816 103.091H35.5149" stroke="#74808B" stroke-width="2" stroke-miterlimit="10" stroke-linecap="round"/>
<path d="M28.7272 107.455H30.0605" stroke="#74808B" stroke-width="2" stroke-miterlimit="10" stroke-linecap="round"/>
<path d="M34.1816 107.455H35.5149" stroke="#74808B" stroke-width="2" stroke-miterlimit="10" stroke-linecap="round"/>
<path d="M32 114V111.818" stroke="#74808B" stroke-width="2" stroke-miterlimit="10" stroke-linecap="round"/>
<path d="M34.4245 190H39.8791C41.6867 190 43.1517 188.535 43.1517 186.727V183.455" stroke="#74808B" stroke-width="2" stroke-miterlimit="10" stroke-linecap="round"/>
<path d="M26.7879 180.667C26.7879 179.194 25.594 178 24.1212 178H21.3333V183.455C21.3333 184.66 22.3097 185.636 23.5151 185.636H25.4545C26.1909 185.636 26.7879 185.039 26.7879 184.303V180.667Z" stroke="#74808B" stroke-width="2" stroke-miterlimit="10" stroke-linecap="square"/>
<path d="M43.1519 178H40.3639C38.8912 178 37.6972 179.194 37.6972 180.667V184.303C37.6972 185.039 38.2943 185.636 39.0305 185.636H40.97C42.1755 185.636 43.1519 184.66 43.1519 183.455V178Z" stroke="#74808B" stroke-width="2" stroke-miterlimit="10" stroke-linecap="square"/>
<path d="M43.1515 178V176.909C43.1515 170.884 38.2675 166 32.2424 166C26.2173 166 21.3333 170.884 21.3333 176.909V178" stroke="#74808B" stroke-width="2" stroke-miterlimit="10" stroke-linecap="square"/>
<defs>
<filter id="filter0_d_0_1205" x="0" y="0" width="267" height="60" filterUnits="userSpaceOnUse" color-interpolation-filters="sRGB">
<feFlood flood-opacity="0" result="BackgroundImageFix"/>
<feColorMatrix in="SourceAlpha" type="matrix" values="0 0 0 0 0 0 0 0 0 0 0 0 0 0 0 0 0 0 127 0" result="hardAlpha"/>
<feOffset dx="4" dy="4"/>
<feGaussianBlur stdDeviation="2"/>
<feComposite in2="hardAlpha" operator="out"/>
<feColorMatrix type="matrix" values="0 0 0 0 0.243137 0 0 0 0 0.588235 0 0 0 0 0.956863 0 0 0 0.15 0"/>
<feBlend mode="normal" in2="BackgroundImageFix" result="effect1_dropShadow_0_1205"/>
<feBlend mode="normal" in="SourceGraphic" in2="effect1_dropShadow_0_1205" result="shape"/>
</filter>
<filter id="filter1_d_0_1205" x="285" y="0" width="267" height="60" filterUnits="userSpaceOnUse" color-interpolation-filters="sRGB">
<feFlood flood-opacity="0" result="BackgroundImageFix"/>
<feColorMatrix in="SourceAlpha" type="matrix" values="0 0 0 0 0 0 0 0 0 0 0 0 0 0 0 0 0 0 127 0" result="hardAlpha"/>
<feOffset dx="4" dy="4"/>
<feGaussianBlur stdDeviation="2"/>
<feComposite in2="hardAlpha" operator="out"/>
<feColorMatrix type="matrix" values="0 0 0 0 0.243137 0 0 0 0 0.588235 0 0 0 0 0.956863 0 0 0 0.15 0"/>
<feBlend mode="normal" in2="BackgroundImageFix" result="effect1_dropShadow_0_1205"/>
<feBlend mode="normal" in="SourceGraphic" in2="effect1_dropShadow_0_1205" result="shape"/>
</filter>
<filter id="filter2_d_0_1205" x="570" y="0" width="267" height="60" filterUnits="userSpaceOnUse" color-interpolation-filters="sRGB">
<feFlood flood-opacity="0" result="BackgroundImageFix"/>
<feColorMatrix in="SourceAlpha" type="matrix" values="0 0 0 0 0 0 0 0 0 0 0 0 0 0 0 0 0 0 127 0" result="hardAlpha"/>
<feOffset dx="4" dy="4"/>
<feGaussianBlur stdDeviation="2"/>
<feComposite in2="hardAlpha" operator="out"/>
<feColorMatrix type="matrix" values="0 0 0 0 0.243137 0 0 0 0 0.588235 0 0 0 0 0.956863 0 0 0 0.15 0"/>
<feBlend mode="normal" in2="BackgroundImageFix" result="effect1_dropShadow_0_1205"/>
<feBlend mode="normal" in="SourceGraphic" in2="effect1_dropShadow_0_1205" result="shape"/>
</filter>
<filter id="filter3_d_0_1205" x="0" y="76" width="267" height="60" filterUnits="userSpaceOnUse" color-interpolation-filters="sRGB">
<feFlood flood-opacity="0" result="BackgroundImageFix"/>
<feColorMatrix in="SourceAlpha" type="matrix" values="0 0 0 0 0 0 0 0 0 0 0 0 0 0 0 0 0 0 127 0" result="hardAlpha"/>
<feOffset dx="4" dy="4"/>
<feGaussianBlur stdDeviation="2"/>
<feComposite in2="hardAlpha" operator="out"/>
<feColorMatrix type="matrix" values="0 0 0 0 0.243137 0 0 0 0 0.588235 0 0 0 0 0.956863 0 0 0 0.15 0"/>
<feBlend mode="normal" in2="BackgroundImageFix" result="effect1_dropShadow_0_1205"/>
<feBlend mode="normal" in="SourceGraphic" in2="effect1_dropShadow_0_1205" result="shape"/>
</filter>
<filter id="filter4_d_0_1205" x="285" y="76" width="267" height="60" filterUnits="userSpaceOnUse" color-interpolation-filters="sRGB">
<feFlood flood-opacity="0" result="BackgroundImageFix"/>
<feColorMatrix in="SourceAlpha" type="matrix" values="0 0 0 0 0 0 0 0 0 0 0 0 0 0 0 0 0 0 127 0" result="hardAlpha"/>
<feOffset dx="4" dy="4"/>
<feGaussianBlur stdDeviation="2"/>
<feComposite in2="hardAlpha" operator="out"/>
<feColorMatrix type="matrix" values="0 0 0 0 0.243137 0 0 0 0 0.588235 0 0 0 0 0.956863 0 0 0 0.15 0"/>
<feBlend mode="normal" in2="BackgroundImageFix" result="effect1_dropShadow_0_1205"/>
<feBlend mode="normal" in="SourceGraphic" in2="effect1_dropShadow_0_1205" result="shape"/>
</filter>
<filter id="filter5_d_0_1205" x="570" y="76" width="267" height="60" filterUnits="userSpaceOnUse" color-interpolation-filters="sRGB">
<feFlood flood-opacity="0" result="BackgroundImageFix"/>
<feColorMatrix in="SourceAlpha" type="matrix" values="0 0 0 0 0 0 0 0 0 0 0 0 0 0 0 0 0 0 127 0" result="hardAlpha"/>
<feOffset dx="4" dy="4"/>
<feGaussianBlur stdDeviation="2"/>
<feComposite in2="hardAlpha" operator="out"/>
<feColorMatrix type="matrix" values="0 0 0 0 0.243137 0 0 0 0 0.588235 0 0 0 0 0.956863 0 0 0 0.15 0"/>
<feBlend mode="normal" in2="BackgroundImageFix" result="effect1_dropShadow_0_1205"/>
<feBlend mode="normal" in="SourceGraphic" in2="effect1_dropShadow_0_1205" result="shape"/>
</filter>
<filter id="filter6_d_0_1205" x="0" y="152" width="267" height="60" filterUnits="userSpaceOnUse" color-interpolation-filters="sRGB">
<feFlood flood-opacity="0" result="BackgroundImageFix"/>
<feColorMatrix in="SourceAlpha" type="matrix" values="0 0 0 0 0 0 0 0 0 0 0 0 0 0 0 0 0 0 127 0" result="hardAlpha"/>
<feOffset dx="4" dy="4"/>
<feGaussianBlur stdDeviation="2"/>
<feComposite in2="hardAlpha" operator="out"/>
<feColorMatrix type="matrix" values="0 0 0 0 0.243137 0 0 0 0 0.588235 0 0 0 0 0.956863 0 0 0 0.15 0"/>
<feBlend mode="normal" in2="BackgroundImageFix" result="effect1_dropShadow_0_1205"/>
<feBlend mode="normal" in="SourceGraphic" in2="effect1_dropShadow_0_1205" result="shape"/>
</filter>
<filter id="filter7_d_0_1205" x="285" y="152" width="267" height="60" filterUnits="userSpaceOnUse" color-interpolation-filters="sRGB">
<feFlood flood-opacity="0" result="BackgroundImageFix"/>
<feColorMatrix in="SourceAlpha" type="matrix" values="0 0 0 0 0 0 0 0 0 0 0 0 0 0 0 0 0 0 127 0" result="hardAlpha"/>
<feOffset dx="4" dy="4"/>
<feGaussianBlur stdDeviation="2"/>
<feComposite in2="hardAlpha" operator="out"/>
<feColorMatrix type="matrix" values="0 0 0 0 0.243137 0 0 0 0 0.588235 0 0 0 0 0.956863 0 0 0 0.15 0"/>
<feBlend mode="normal" in2="BackgroundImageFix" result="effect1_dropShadow_0_1205"/>
<feBlend mode="normal" in="SourceGraphic" in2="effect1_dropShadow_0_1205" result="shape"/>
</filter>
<filter id="filter8_d_0_1205" x="570" y="152" width="267" height="60" filterUnits="userSpaceOnUse" color-interpolation-filters="sRGB">
<feFlood flood-opacity="0" result="BackgroundImageFix"/>
<feColorMatrix in="SourceAlpha" type="matrix" values="0 0 0 0 0 0 0 0 0 0 0 0 0 0 0 0 0 0 127 0" result="hardAlpha"/>
<feOffset dx="4" dy="4"/>
<feGaussianBlur stdDeviation="2"/>
<feComposite in2="hardAlpha" operator="out"/>
<feColorMatrix type="matrix" values="0 0 0 0 0.243137 0 0 0 0 0.588235 0 0 0 0 0.956863 0 0 0 0.15 0"/>
<feBlend mode="normal" in2="BackgroundImageFix" result="effect1_dropShadow_0_1205"/>
<feBlend mode="normal" in="SourceGraphic" in2="effect1_dropShadow_0_1205" result="shape"/>
</filter>
<linearGradient id="paint0_linear_0_1205" x1="0" y1="0" x2="20.0712" y2="99.9703" gradientUnits="userSpaceOnUse">
<stop stop-color="#ECF5FF"/>
<stop offset="1" stop-color="white"/>
</linearGradient>
<linearGradient id="paint1_linear_0_1205" x1="285" y1="0" x2="305.071" y2="99.9703" gradientUnits="userSpaceOnUse">
<stop stop-color="#ECF5FF"/>
<stop offset="1" stop-color="white"/>
</linearGradient>
<linearGradient id="paint2_linear_0_1205" x1="570" y1="0" x2="590.071" y2="99.9703" gradientUnits="userSpaceOnUse">
<stop stop-color="#ECF5FF"/>
<stop offset="1" stop-color="white"/>
</linearGradient>
<linearGradient id="paint3_linear_0_1205" x1="0" y1="76" x2="20.0712" y2="175.97" gradientUnits="userSpaceOnUse">
<stop stop-color="#ECF5FF"/>
<stop offset="1" stop-color="white"/>
</linearGradient>
<linearGradient id="paint4_linear_0_1205" x1="285" y1="76" x2="305.071" y2="175.97" gradientUnits="userSpaceOnUse">
<stop stop-color="#ECF5FF"/>
<stop offset="1" stop-color="white"/>
</linearGradient>
<linearGradient id="paint5_linear_0_1205" x1="570" y1="76" x2="590.071" y2="175.97" gradientUnits="userSpaceOnUse">
<stop stop-color="#ECF5FF"/>
<stop offset="1" stop-color="white"/>
</linearGradient>
<linearGradient id="paint6_linear_0_1205" x1="0" y1="152" x2="20.0712" y2="251.97" gradientUnits="userSpaceOnUse">
<stop stop-color="#ECF5FF"/>
<stop offset="1" stop-color="white"/>
</linearGradient>
<linearGradient id="paint7_linear_0_1205" x1="285" y1="152" x2="305.071" y2="251.97" gradientUnits="userSpaceOnUse">
<stop stop-color="#ECF5FF"/>
<stop offset="1" stop-color="white"/>
</linearGradient>
<linearGradient id="paint8_linear_0_1205" x1="570" y1="152" x2="590.071" y2="251.97" gradientUnits="userSpaceOnUse">
<stop stop-color="#ECF5FF"/>
<stop offset="1" stop-color="white"/>
</linearGradient>
</defs>
</svg>
