<svg width="69" height="72" viewBox="0 0 69 72" fill="none" xmlns="http://www.w3.org/2000/svg">
<path fill-rule="evenodd" clip-rule="evenodd" d="M49.1998 9.6C48.8816 9.6 48.5763 9.47357 48.3513 9.24853C48.1262 9.02349 47.9998 8.71826 47.9998 8.4V6C47.9998 4.0152 46.3846 2.4 44.3998 2.4H17.9998C16.015 2.4 14.3998 4.0152 14.3998 6V8.4C14.3998 8.71826 14.2734 9.02349 14.0483 9.24853C13.8233 9.47357 13.5181 9.6 13.1998 9.6C12.8816 9.6 12.5763 9.47357 12.3513 9.24853C12.1262 9.02349 11.9998 8.71826 11.9998 8.4V6C11.9998 2.6928 14.6902 0 17.9998 0H44.3998C47.7094 0 50.3998 2.6928 50.3998 6V8.4C50.3998 8.71826 50.2734 9.02349 50.0483 9.24853C49.8233 9.47357 49.5181 9.6 49.1998 9.6ZM29.9998 57.6H20.3998C20.0816 57.6 19.7763 57.4736 19.5513 57.2485C19.3262 57.0235 19.1998 56.7183 19.1998 56.4C19.1998 56.0817 19.3262 55.7765 19.5513 55.5515C19.7763 55.3264 20.0816 55.2 20.3998 55.2H29.9998C30.3181 55.2 30.6233 55.3264 30.8483 55.5515C31.0734 55.7765 31.1998 56.0817 31.1998 56.4C31.1998 56.7183 31.0734 57.0235 30.8483 57.2485C30.6233 57.4736 30.3181 57.6 29.9998 57.6ZM37.1998 62.4H20.3998C20.0816 62.4 19.7763 62.2736 19.5513 62.0485C19.3262 61.8235 19.1998 61.5183 19.1998 61.2C19.1998 60.8817 19.3262 60.5765 19.5513 60.3515C19.7763 60.1264 20.0816 60 20.3998 60H37.1998C37.5181 60 37.8233 60.1264 38.0483 60.3515C38.2734 60.5765 38.3998 60.8817 38.3998 61.2C38.3998 61.5183 38.2734 61.8235 38.0483 62.0485C37.8233 62.2736 37.5181 62.4 37.1998 62.4ZM41.9998 52.8H20.3998C20.0816 52.8 19.7763 52.6736 19.5513 52.4485C19.3262 52.2235 19.1998 51.9183 19.1998 51.6C19.1998 51.2817 19.3262 50.9765 19.5513 50.7515C19.7763 50.5264 20.0816 50.4 20.3998 50.4H41.9998C42.3181 50.4 42.6233 50.5264 42.8483 50.7515C43.0734 50.9765 43.1998 51.2817 43.1998 51.6C43.1998 51.9183 43.0734 52.2235 42.8483 52.4485C42.6233 52.6736 42.3181 52.8 41.9998 52.8ZM34.8 7.2H27.6C27.2817 7.2 26.9765 7.07357 26.7515 6.84853C26.5264 6.62348 26.4 6.31826 26.4 6C26.4 5.68174 26.5264 5.37652 26.7515 5.15147C26.9765 4.92643 27.2817 4.8 27.6 4.8H34.8C35.1183 4.8 35.4235 4.92643 35.6485 5.15147C35.8736 5.37652 36 5.68174 36 6C36 6.31826 35.8736 6.62348 35.6485 6.84853C35.4235 7.07357 35.1183 7.2 34.8 7.2ZM44.4 72H18C16.4093 71.9981 14.8843 71.3653 13.7595 70.2405C12.6347 69.1157 12.0019 67.5907 12 66V49.2C12 48.8817 12.1264 48.5765 12.3515 48.3515C12.5765 48.1264 12.8817 48 13.2 48C13.5183 48 13.8235 48.1264 14.0485 48.3515C14.2736 48.5765 14.4 48.8817 14.4 49.2V66C14.4 67.9848 16.0152 69.6 18 69.6H44.4C46.3848 69.6 48 67.9848 48 66V25.2C48 24.8817 48.1264 24.5765 48.3515 24.3515C48.5765 24.1264 48.8817 24 49.2 24C49.5183 24 49.8235 24.1264 50.0485 24.3515C50.2736 24.5765 50.4 24.8817 50.4 25.2V30V38.5056C51.0146 38.4027 51.6423 38.3795 52.2674 38.4384C53.4494 38.5498 54.5855 38.9514 55.575 39.6074C56.5645 40.2635 57.3766 41.1538 57.9393 42.1992C58.5019 43.2446 58.7977 44.4128 58.8004 45.6C58.7973 46.9717 58.4039 48.3142 57.6661 49.4706C56.9283 50.627 55.8767 51.5496 54.634 52.1304C54.4755 52.2046 54.3026 52.2431 54.1276 52.2432C53.8547 52.2428 53.59 52.1495 53.3773 51.9785C53.1646 51.8075 53.0165 51.5691 52.9575 51.3026C52.8985 51.0361 52.9321 50.7575 53.0528 50.5127C53.1734 50.2679 53.3739 50.0715 53.6212 49.956C54.4498 49.5682 55.1511 48.9528 55.6432 48.1815C56.1353 47.4102 56.3979 46.5149 56.4004 45.6C56.3992 44.8085 56.2026 44.0295 55.8279 43.3323C55.4531 42.6351 54.912 42.0413 54.2525 41.6036C53.593 41.1659 52.8356 40.8979 52.0476 40.8235C51.4933 40.7711 50.9359 40.8156 50.4 40.9533V61.2V66C50.4 69.3072 47.7096 72 44.4 72ZM50.4 61.2C50.4 60.8817 50.5264 60.5765 50.7515 60.3515C50.9765 60.1264 51.2817 60 51.6 60H52.6488L53.2368 57.276C53.284 57.0555 53.3927 56.8528 53.5503 56.6914C53.7079 56.53 53.9079 56.4165 54.1272 56.364C55.2852 56.0801 56.3921 55.6177 57.408 54.9936C57.5996 54.8767 57.8201 54.8158 58.0445 54.8179C58.2689 54.8201 58.4883 54.8851 58.6776 55.0056L61.0536 56.5248L62.5248 55.0416L61.0056 52.6848C60.8837 52.4953 60.8174 52.2753 60.8145 52.05C60.8115 51.8247 60.8719 51.6031 60.9888 51.4104C61.6132 50.3949 62.0748 49.2879 62.3568 48.1296C62.4096 47.9109 62.5225 47.7114 62.6829 47.5536C62.8432 47.3958 63.0445 47.2861 63.264 47.2368L65.9976 46.6296V44.5728L63.264 43.9656C63.0445 43.9163 62.8432 43.8066 62.6829 43.6488C62.5225 43.491 62.4096 43.2915 62.3568 43.0728C62.0737 41.9149 61.6122 40.808 60.9888 39.792C60.8709 39.6002 60.8097 39.379 60.8123 39.1539C60.8148 38.9288 60.881 38.7091 61.0032 38.52L62.5248 36.1416L61.056 34.6728L58.6776 36.1944C58.4885 36.3155 58.2691 36.3808 58.0445 36.3829C57.82 36.385 57.5994 36.3239 57.408 36.2064C56.3916 35.5831 55.285 35.1208 54.1272 34.836C53.9079 34.7835 53.7079 34.67 53.5503 34.5086C53.3927 34.3472 53.284 34.1445 53.2368 33.924L52.6488 31.2H51.6C51.2817 31.2 50.9765 31.0736 50.7515 30.8485C50.5264 30.6235 50.4 30.3183 50.4 30C50.4 29.6817 50.5264 29.3765 50.7515 29.1515C50.9765 28.9264 51.2817 28.8 51.6 28.8H53.616C53.8901 28.8005 54.1559 28.8948 54.3689 29.0673C54.582 29.2397 54.7296 29.48 54.7872 29.748L55.428 32.7072C56.3064 32.9736 57.168 33.3336 57.9984 33.7824L60.576 32.1336C60.8065 31.9863 61.0804 31.9222 61.3523 31.9519C61.6243 31.9816 61.8779 32.1033 62.0712 32.2968L64.9056 35.1288C65.0988 35.3224 65.22 35.5762 65.2493 35.8481C65.2785 36.12 65.214 36.3938 65.0664 36.624L63.4176 39.2016C63.8664 40.0344 64.2264 40.896 64.4928 41.7768L67.4568 42.4344C67.7235 42.4934 67.9621 42.6416 68.1331 42.8546C68.3042 43.0675 68.3975 43.3325 68.3976 43.6056V47.5896C68.3975 47.8627 68.3042 48.1277 68.1331 48.3406C67.9621 48.5536 67.7235 48.7018 67.4568 48.7608L64.4928 49.4184C64.2219 50.31 63.8617 51.172 63.4176 51.9912L65.064 54.5448C65.2131 54.7742 65.2789 55.0479 65.2505 55.32C65.2221 55.5921 65.1012 55.8463 64.908 56.04L62.0736 58.896C61.8804 59.0905 61.6265 59.213 61.354 59.2431C61.0816 59.2733 60.807 59.2092 60.576 59.0616L57.9984 57.4128C57.1796 57.856 56.3185 58.2162 55.428 58.488L54.7872 61.4472C54.7306 61.7161 54.5834 61.9575 54.3702 62.1309C54.1571 62.3043 53.8908 62.3993 53.616 62.4H51.6C51.2817 62.4 50.9765 62.2736 50.7515 62.0485C50.5264 61.8235 50.4 61.5183 50.4 61.2ZM4.8 51.6C4.8 52.2624 5.3376 52.68 6 52.68C6.6624 52.68 7.2 52.0224 7.2 51.36C7.2 51.0417 7.07358 50.7365 6.84853 50.5115C6.62349 50.2864 6.31826 50.16 6 50.16C5.68174 50.16 5.37652 50.2864 5.15147 50.5115C4.92643 50.7365 4.8 51.0417 4.8 51.36V51.6ZM4.8 56.4C4.8 57.0624 5.3376 57.48 6 57.48C6.6624 57.48 7.2 56.8224 7.2 56.16C7.2 55.8417 7.07358 55.5365 6.84853 55.3115C6.62349 55.0864 6.31826 54.96 6 54.96C5.68174 54.96 5.37652 55.0864 5.15147 55.3115C4.92643 55.5365 4.8 55.8417 4.8 56.16V56.4ZM4.8 61.2C4.8 61.8624 5.3376 62.28 6 62.28C6.6624 62.28 7.2 61.6224 7.2 60.96C7.2 60.6417 7.07358 60.3365 6.84853 60.1115C6.62349 59.8864 6.31826 59.76 6 59.76C5.68174 59.76 5.37652 59.8864 5.15147 60.1115C4.92643 60.3365 4.8 60.6417 4.8 60.96V61.2ZM29.0463 16.941C25.8501 13.7565 21.5995 12.0019 17.0711 12C7.73995 12 0.145729 19.5577 0.141992 28.8466C0.140711 31.8161 0.920119 34.7147 2.40164 37.2696L0 46L8.97438 43.6571C11.4472 44.9996 14.2311 45.707 17.0642 45.7078H17.0713C26.4014 45.7078 33.9965 38.1496 34 28.8601C34.0019 24.3582 32.2427 20.1255 29.0463 16.941ZM17.0711 42.8624H17.0652C14.5405 42.8614 12.0644 42.1862 9.90368 40.9105L9.39016 40.6069L4.0646 41.9973L5.48602 36.8298L5.15132 36.3001C3.74283 34.0705 2.99902 31.4935 3.0003 28.8476C3.00324 21.1269 9.31548 14.8455 17.0767 14.8455C20.835 14.8467 24.368 16.3051 27.0245 18.952C29.6809 21.5989 31.1431 25.1173 31.1418 28.8591C31.1385 36.5804 24.8267 42.8624 17.0711 42.8624ZM24.7891 32.3746C24.3663 32.1638 22.2865 31.1457 21.8986 31.005C21.5112 30.8645 21.2289 30.7946 20.9472 31.2158C20.6651 31.6371 19.8545 32.5855 19.6077 32.8662C19.3608 33.1473 19.1143 33.1825 18.6912 32.9717C18.6222 32.9373 18.5282 32.8967 18.4121 32.8466L18.412 32.8466C17.8166 32.5895 16.6416 32.0823 15.2895 30.8822C14.0321 29.7659 13.1833 28.3874 12.9364 27.9661C12.7156 27.5884 12.8886 27.3839 13.062 27.1789L13.062 27.1788C13.0822 27.1549 13.1024 27.1311 13.1219 27.1069C13.5798 26.5411 14.0384 25.9478 14.1793 25.667C14.3205 25.386 14.2498 25.1401 14.1439 24.9295C14.0731 24.7882 13.6694 23.8097 13.3048 22.9262L13.3047 22.9261L13.3046 22.9257C13.1256 22.492 12.9561 22.0812 12.84 21.8036C12.5365 21.0788 12.2292 21.0807 11.9826 21.0821C11.95 21.0823 11.9185 21.0825 11.8882 21.081C11.6417 21.0688 11.3596 21.0663 11.0775 21.0663C10.7955 21.0663 10.3372 21.1714 9.94937 21.5932C9.92448 21.6202 9.89668 21.6497 9.86645 21.6819C9.42591 22.1498 8.46913 23.166 8.46913 25.105C8.46913 27.1652 9.96747 29.1558 10.1925 29.4548L10.1963 29.4598C10.2101 29.4782 10.2348 29.5135 10.2702 29.564C10.7762 30.2863 13.4564 34.112 17.4222 35.8162C18.4314 36.2503 19.2192 36.5091 19.8337 36.7031C20.8471 37.0235 21.769 36.9783 22.4979 36.8699C23.3107 36.7489 25.0004 35.8514 25.3532 34.8681C25.7056 33.8848 25.7056 33.042 25.5996 32.8662C25.5148 32.7251 25.3159 32.6295 25.0216 32.4879C24.9497 32.4533 24.8721 32.416 24.7891 32.3746ZM43.2004 21.6H57.6004C60.2476 21.6 62.4004 19.4472 62.4004 16.8C62.4004 14.1528 60.2476 12 57.6004 12H43.2004C40.5532 12 38.4004 14.1528 38.4004 16.8C38.4004 19.4472 40.5532 21.6 43.2004 21.6ZM41.5715 15.1396C41.999 14.6926 42.5824 14.4276 43.2004 14.4H57.6004C58.2183 14.4276 58.8018 14.6926 59.2293 15.1396C59.6568 15.5867 59.8954 16.1814 59.8954 16.8C59.8954 17.4186 59.6568 18.0133 59.2293 18.4604C58.8018 18.9074 58.2183 19.1724 57.6004 19.2H43.2004C42.5824 19.1724 41.999 18.9074 41.5715 18.4604C41.1439 18.0133 40.9053 17.4186 40.9053 16.8C40.9053 16.1814 41.1439 15.5867 41.5715 15.1396Z" fill="url(#paint0_linear_1_654)"/>
<defs>
<linearGradient id="paint0_linear_1_654" x1="4.025" y1="6.16865" x2="73.2488" y2="66.6972" gradientUnits="userSpaceOnUse">
<stop stop-color="#3D96F5"/>
<stop offset="1" stop-color="#31393C"/>
</linearGradient>
</defs>
</svg>
