<svg width="63" height="64" viewBox="0 0 63 64" fill="none" xmlns="http://www.w3.org/2000/svg">
<path fill-rule="evenodd" clip-rule="evenodd" d="M36.5834 16.4608V33.5122C36.5834 33.8604 36.7218 34.1944 36.968 34.4406C37.2142 34.6868 37.5481 34.8252 37.8963 34.8252H58.6905C59.0387 34.8252 59.3727 34.6868 59.6189 34.4406C59.8652 34.1944 60.0035 33.8604 60.0035 33.5122V24.9865C60.0035 24.7378 59.9047 24.4993 59.7288 24.3234C59.5529 24.1475 59.3144 24.0487 59.0657 24.0487C58.8169 24.0487 58.5784 24.1475 58.4025 24.3234C58.2266 24.4993 58.1279 24.7378 58.1279 24.9865V32.9239H38.4505V16.6484C39.5663 16.6463 40.6702 16.4186 41.6957 15.979C42.7213 15.5395 43.6474 14.8972 44.4185 14.0907H53.1659C53.4146 14.0907 53.6531 13.9919 53.829 13.816C54.0049 13.6401 54.1037 13.4016 54.1037 13.1529C54.1037 12.9041 54.0049 12.6656 53.829 12.4897C53.6531 12.3138 53.4146 12.215 53.1659 12.215H45.7826C46.5504 10.7818 46.874 9.1523 46.712 7.53443H58.0937V20.6043C58.0937 20.853 58.1925 21.0916 58.3684 21.2674C58.5443 21.4433 58.7828 21.5421 59.0315 21.5421C59.2803 21.5421 59.5188 21.4433 59.6947 21.2674C59.8706 21.0916 59.9693 20.853 59.9693 20.6043V6.96322C59.9693 6.615 59.831 6.28104 59.5848 6.03481C59.3386 5.78858 59.0047 5.65026 58.6565 5.65026H46.3112C45.8459 4.27731 45.03 3.04973 43.9443 2.08913C42.8586 1.12853 41.5408 0.46823 40.1214 0.173634C38.702 -0.120961 37.2303 -0.0396352 35.852 0.409569C34.4737 0.858772 33.2367 1.66026 32.2635 2.73464C31.2902 3.80903 30.6145 5.11902 30.3033 6.53488C29.9922 7.95074 30.0563 9.42335 30.4893 10.8068C30.9224 12.1903 31.7094 13.4366 32.7723 14.4223C33.8352 15.408 35.1372 16.099 36.5493 16.4267L36.5834 16.4608ZM38.459 1.89896C39.7355 1.89896 40.9833 2.27746 42.0447 2.98663C43.106 3.6958 43.9332 4.70377 44.4217 5.88307C44.9102 7.06238 45.038 8.36005 44.789 9.61199C44.54 10.8639 43.9253 12.0139 43.0227 12.9165C42.1201 13.8191 40.9701 14.4338 39.7181 14.6828C38.4662 14.9319 37.1686 14.804 35.9893 14.3156C34.81 13.8271 33.802 12.9999 33.0928 11.9385C32.3837 10.8772 32.0052 9.62936 32.0052 8.35289C32.0052 6.64119 32.6851 4.99962 33.8954 3.78927C35.1058 2.57892 36.7474 1.89896 38.459 1.89896ZM43.3774 16.9552H53.199C53.4477 16.9552 53.6863 17.054 53.8622 17.2299C54.038 17.4058 54.1368 17.6443 54.1368 17.893C54.1368 18.1418 54.038 18.3803 53.8622 18.5562C53.6863 18.7321 53.4477 18.8309 53.199 18.8309H43.3774C43.1287 18.8309 42.8901 18.7321 42.7142 18.5562C42.5384 18.3803 42.4396 18.1418 42.4396 17.893C42.4396 17.6443 42.5384 17.4058 42.7142 17.2299C42.8901 17.054 43.1287 16.9552 43.3774 16.9552ZM53.8615 21.9533C54.0373 22.1291 54.1361 22.3677 54.1361 22.6164C54.1361 22.7392 54.1119 22.8607 54.0646 22.974C54.0174 23.0873 53.9482 23.1901 53.861 23.2765C53.7738 23.363 53.6703 23.4312 53.5565 23.4774C53.4428 23.5236 53.3211 23.5468 53.1983 23.5457H43.3767C43.2466 23.5582 43.1153 23.5433 42.9913 23.502C42.8673 23.4608 42.7533 23.3941 42.6566 23.3062C42.5599 23.2183 42.4826 23.1111 42.4297 22.9916C42.3769 22.8721 42.3496 22.7428 42.3496 22.6121C42.3496 22.4815 42.3769 22.3522 42.4297 22.2327C42.4826 22.1132 42.5599 22.0061 42.6566 21.9182C42.7533 21.8303 42.8673 21.7635 42.9913 21.7223C43.1153 21.681 43.2466 21.6661 43.3767 21.6786H53.1983C53.447 21.6786 53.6856 21.7774 53.8615 21.9533ZM61.1974 57.4095H55.9029V41.3727C55.9029 41.0245 55.7646 40.6906 55.5183 40.4443C55.2721 40.1981 54.9382 40.0598 54.59 40.0598H32.1674V37.2036C32.1674 36.9549 32.0686 36.7164 31.8927 36.5405C31.7169 36.3646 31.4783 36.2658 31.2296 36.2658C30.9809 36.2658 30.7423 36.3646 30.5664 36.5405C30.3906 36.7164 30.2918 36.9549 30.2918 37.2036V40.0598H12.7885V26.8791H17.9039V30.4769C17.9062 30.8236 18.0455 31.1554 18.2915 31.3998C18.5375 31.6442 18.8702 31.7813 19.2169 31.7813H23.9146C24.2613 31.7813 24.5939 31.6442 24.8399 31.3998C25.0859 31.1554 25.2252 30.8236 25.2275 30.4769V26.8791H30.3429V32.847C30.3429 33.0958 30.4418 33.3343 30.6176 33.5102C30.7935 33.6861 31.0321 33.7849 31.2808 33.7849C31.5295 33.7849 31.768 33.6861 31.9438 33.5102C32.1197 33.3343 32.2186 33.0958 32.2186 32.847V26.3078C32.2186 25.9596 32.0803 25.6257 31.8341 25.3794C31.5878 25.1332 31.2538 24.9949 30.9056 24.9949H12.277C11.9288 24.9949 11.5948 25.1332 11.3486 25.3794C11.1023 25.6257 10.964 25.9596 10.964 26.3078V40.0939H7.9204C7.57218 40.0939 7.23818 40.2322 6.99196 40.4784C6.74573 40.7246 6.60741 41.0586 6.60741 41.4068V57.4095H1.31299C0.964771 57.4095 0.630778 57.5479 0.384551 57.7941C0.138324 58.0403 0 58.3743 0 58.7225V62.6869C0 63.0352 0.138324 63.3691 0.384551 63.6153C0.630778 63.8615 0.964771 63.9999 1.31299 63.9999H61.2485C61.5967 63.9999 61.9307 63.8615 62.1769 63.6153C62.4232 63.3691 62.5615 63.0352 62.5615 62.6869V58.7566C62.5663 58.5769 62.5342 58.3982 62.4671 58.2314C62.4 58.0647 62.2994 57.9135 62.1715 57.7873C62.0436 57.661 61.8913 57.5623 61.7237 57.4973C61.5561 57.4323 61.377 57.4025 61.1974 57.4095ZM19.7541 26.8791H23.3263V29.9142H19.7541V26.8791ZM43.4895 41.9525H47.0703V44.9876H43.4895V41.9525ZM19.4386 41.9525H23.6417V44.9876H19.4386V41.9525ZM8.42338 41.9525H17.5885V45.5503C17.5885 45.8985 17.7268 46.2325 17.973 46.4787C18.2193 46.7249 18.5533 46.8633 18.9015 46.8633H24.23C24.5783 46.8633 24.9121 46.7249 25.1584 46.4787C25.4046 46.2325 25.5429 45.8985 25.5429 45.5503V41.9695H34.6399V57.4095H8.40631L8.42338 41.9525ZM60.6347 62.0731H1.80744V59.2767H46.8231C47.0718 59.2767 47.3104 59.1778 47.4863 59.002C47.6621 58.8261 47.7609 58.5876 47.7609 58.3389C47.7609 58.0901 47.6621 57.8516 47.4863 57.6757C47.3104 57.4998 47.0718 57.401 46.8231 57.401H36.5069V41.9695H41.6224V45.5673C41.6224 45.9156 41.7608 46.2496 42.007 46.4958C42.2532 46.742 42.5871 46.8803 42.9353 46.8803H47.6415C47.9898 46.8803 48.3237 46.742 48.57 46.4958C48.8162 46.2496 48.9545 45.9156 48.9545 45.5673V41.9695H54.0699V57.4095H51.2479C50.9992 57.4095 50.7606 57.5084 50.5847 57.6842C50.4089 57.8601 50.3101 58.0986 50.3101 58.3473C50.3101 58.5961 50.4089 58.8346 50.5847 59.0105C50.7606 59.1864 50.9992 59.2852 51.2479 59.2852H60.6261L60.6347 62.0731ZM42.7142 26.6508C42.8901 26.4749 43.1287 26.3761 43.3774 26.3761H49.8654C50.1142 26.3761 50.3527 26.4749 50.5286 26.6508C50.7045 26.8267 50.8032 27.0652 50.8032 27.3139C50.8032 27.5627 50.7045 27.8012 50.5286 27.9771C50.3527 28.153 50.1142 28.2518 49.8654 28.2518H43.3774C43.1287 28.2518 42.8901 28.153 42.7142 27.9771C42.5384 27.8012 42.4396 27.5627 42.4396 27.3139C42.4396 27.0652 42.5384 26.8267 42.7142 26.6508ZM37.9911 11.3713C37.7421 11.3713 37.5032 11.2732 37.3261 11.0982L34.47 8.2336C34.3823 8.14644 34.3127 8.04281 34.2653 7.92869C34.2178 7.81456 34.1934 7.6922 34.1934 7.56859C34.1934 7.44499 34.2178 7.3226 34.2653 7.20848C34.3127 7.09435 34.3823 6.99075 34.47 6.90359C34.5564 6.81621 34.6592 6.74683 34.7726 6.69948C34.886 6.65213 35.0077 6.62775 35.1306 6.62775C35.2535 6.62775 35.3752 6.65213 35.4887 6.69948C35.6021 6.74683 35.705 6.81621 35.7914 6.90359L37.9995 9.11174L41.1456 5.96576C41.232 5.87838 41.3349 5.80899 41.4483 5.76165C41.5617 5.7143 41.6834 5.68994 41.8063 5.68994C41.9292 5.68994 42.0509 5.7143 42.1643 5.76165C42.2778 5.80899 42.3807 5.87838 42.4671 5.96576C42.5547 6.05291 42.6242 6.15652 42.6717 6.27064C42.7192 6.38477 42.7436 6.50716 42.7436 6.63076C42.7436 6.75436 42.7192 6.87676 42.6717 6.99088C42.6242 7.10501 42.5547 7.20861 42.4671 7.29577L38.656 11.0982C38.4789 11.2732 38.2401 11.3713 37.9911 11.3713Z" fill="url(#paint0_linear_1_1005)"/>
<defs>
<linearGradient id="paint0_linear_1_1005" x1="2.93259" y1="1.56773e-06" x2="59.9043" y2="57.2394" gradientUnits="userSpaceOnUse">
<stop stop-color="#FE5B52"/>
<stop offset="0.948075" stop-color="#3E96F4"/>
</linearGradient>
</defs>
</svg>
