<svg width="64" height="64" viewBox="0 0 64 64" fill="none" xmlns="http://www.w3.org/2000/svg">
<path d="M0 8C0 3.58172 3.58172 0 8 0H56C60.4183 0 64 3.58172 64 8V56C64 60.4183 60.4183 64 56 64H8C3.58172 64 0 60.4183 0 56V8Z" fill="white"/>
<path fill-rule="evenodd" clip-rule="evenodd" d="M45.5713 34.1309C47.5407 34.1333 49.4287 34.9171 50.8213 36.3096C52.2139 37.7021 52.9975 39.5902 53 41.5596C53 43.0287 52.5642 44.465 51.7481 45.6865C50.9318 46.9081 49.7715 47.8606 48.4141 48.4229C47.0567 48.9851 45.5631 49.1323 44.1221 48.8457C42.6811 48.5591 41.3573 47.8514 40.3184 46.8125C39.2796 45.7736 38.5718 44.4497 38.2852 43.0088C37.9986 41.5679 38.1458 40.0741 38.708 38.7168C39.2703 37.3594 40.2228 36.1991 41.4444 35.3828C42.6659 34.5667 44.1022 34.1309 45.5713 34.1309ZM47.8574 38.8926C47.7074 38.8925 47.5586 38.9221 47.4199 38.9795C47.2813 39.0369 47.155 39.1215 47.0489 39.2275L44.8096 41.4668L44.0938 40.752C43.8783 40.5438 43.5896 40.4281 43.2901 40.4307C42.9904 40.4333 42.7031 40.5537 42.4912 40.7656C42.2796 40.9774 42.16 41.2641 42.1573 41.5635C42.1546 41.8631 42.2694 42.1526 42.4776 42.3682L44.001 43.8926C44.1071 43.9988 44.2334 44.0831 44.3721 44.1406C44.5108 44.1981 44.6595 44.2275 44.8096 44.2275C44.9597 44.2275 45.1084 44.198 45.2471 44.1406C45.3858 44.0831 45.5121 43.9988 45.6182 43.8926L48.6651 40.8447C48.7712 40.7386 48.8556 40.6123 48.9131 40.4736C48.9706 40.335 49 40.1862 49 40.0361C49.0001 39.8861 48.9705 39.7373 48.9131 39.5986C48.8557 39.46 48.7721 39.3337 48.666 39.2275C48.5599 39.1214 48.4336 39.037 48.2949 38.9795C48.1563 38.9221 48.0075 38.8926 47.8574 38.8926Z" fill="#3E96F4"/>
<path fill-rule="evenodd" clip-rule="evenodd" d="M37.377 17C38.3172 17 39.2292 17.3225 39.96 17.9141C40.2897 18.2269 40.7282 18.3995 41.1826 18.3945C41.5666 18.4116 41.9445 18.289 42.2461 18.0508C42.6103 17.7882 43.0405 17.6319 43.4883 17.5996C43.9364 17.5673 44.385 17.6603 44.7832 17.8682C45.1937 18.0803 45.5375 18.4019 45.7774 18.7969C46.0173 19.1921 46.1438 19.6461 46.1426 20.1084V33.0225C45.9531 32.9997 45.7622 32.9883 45.5713 32.9883C43.2981 32.9883 41.1182 33.8916 39.5108 35.499C37.9034 37.1064 37.0001 39.2864 37 41.5596C36.9924 43.4226 37.6036 45.2355 38.7373 46.7139H23.4912C22.8285 46.7078 22.1951 46.4405 21.7285 45.9697C21.262 45.4989 21.0001 44.863 21 44.2002V20.1201C20.998 19.6576 21.1243 19.203 21.3643 18.8076C21.6043 18.4124 21.9492 18.0913 22.3604 17.8799C22.7588 17.6677 23.2089 17.5713 23.6592 17.6016C24.1093 17.6319 24.542 17.7873 24.9082 18.0508C25.2007 18.2892 25.5713 18.4121 25.9483 18.3945C26.4065 18.4018 26.8497 18.229 27.1826 17.9141C27.9112 17.3226 28.8214 17.0001 29.7598 17C30.6982 17 31.6083 17.3227 32.3369 17.9141C32.6716 18.2226 33.1103 18.3935 33.5655 18.3936C34.0206 18.3936 34.4593 18.2225 34.794 17.9141C35.5247 17.3225 36.4368 17.0001 37.377 17ZM27.1328 36.4434C26.867 36.4962 26.6224 36.6267 26.4307 36.8184C26.239 37.0101 26.1077 37.2546 26.0547 37.5205C26.0018 37.7865 26.029 38.0629 26.1328 38.3135C26.2366 38.5639 26.4124 38.7781 26.6377 38.9287C26.8633 39.0794 27.1292 39.1602 27.4004 39.1602C27.764 39.1601 28.113 39.0149 28.3701 38.7578C28.6271 38.5007 28.7715 38.1517 28.7715 37.7881C28.7714 37.517 28.6907 37.2518 28.5401 37.0264C28.3894 36.8009 28.1753 36.6252 27.9248 36.5215C27.6743 36.4177 27.3988 36.3905 27.1328 36.4434ZM31.5147 36.6455C31.2116 36.6455 30.9204 36.7661 30.7061 36.9805C30.4919 37.1947 30.3712 37.4852 30.3711 37.7881C30.3711 38.0912 30.4918 38.3824 30.7061 38.5967C30.9204 38.811 31.2116 38.9316 31.5147 38.9316H34.7139C35.017 38.9316 35.3082 38.811 35.5225 38.5967C35.7368 38.3824 35.8574 38.0912 35.8574 37.7881C35.8574 37.4851 35.7367 37.1947 35.5225 36.9805C35.3082 36.7661 35.017 36.6455 34.7139 36.6455H31.5147ZM27.1328 30.7295C26.8669 30.7824 26.6225 30.9128 26.4307 31.1045C26.2389 31.2963 26.1076 31.5406 26.0547 31.8066C26.0019 32.0725 26.0292 32.3482 26.1328 32.5986C26.2366 32.8492 26.4122 33.0642 26.6377 33.2148C26.8633 33.3655 27.1292 33.4453 27.4004 33.4453C27.764 33.4452 28.113 33.3011 28.3701 33.0439C28.6272 32.7868 28.7715 32.4379 28.7715 32.0742C28.7715 31.803 28.6907 31.538 28.5401 31.3125C28.3894 31.087 28.1754 30.9104 27.9248 30.8066C27.6744 30.7029 27.3987 30.6766 27.1328 30.7295ZM31.5147 30.9316C31.2116 30.9316 30.9204 31.0514 30.7061 31.2656C30.4918 31.48 30.3711 31.7711 30.3711 32.0742C30.3711 32.3772 30.492 32.6676 30.7061 32.8818C30.9204 33.0962 31.2116 33.2168 31.5147 33.2168H39.9717C40.2747 33.2167 40.565 33.0961 40.7793 32.8818C40.9936 32.6675 41.1143 32.3773 41.1143 32.0742C41.1143 31.7711 40.9936 31.48 40.7793 31.2656C40.5651 31.0516 40.2746 30.9317 39.9717 30.9316H31.5147ZM27.1397 24.7852C26.873 24.8368 26.6275 24.966 26.4346 25.1572C26.2417 25.3485 26.1095 25.5931 26.0557 25.8594C26.0018 26.1257 26.0284 26.4021 26.1319 26.6533C26.2353 26.9045 26.4111 27.1193 26.6367 27.2705C26.8625 27.4217 27.1287 27.5029 27.4004 27.5029C27.5795 27.5036 27.7571 27.4692 27.9229 27.4014C28.0889 27.3334 28.2399 27.2327 28.3672 27.1064C28.4945 26.9802 28.5957 26.8304 28.6651 26.665C28.7344 26.4996 28.7708 26.3219 28.7715 26.1426C28.7737 25.871 28.6951 25.6049 28.5459 25.3779C28.3966 25.1509 28.183 24.9727 27.9326 24.8672C27.6823 24.7617 27.4063 24.7336 27.1397 24.7852ZM31.5147 25C31.2116 25 30.9204 25.1206 30.7061 25.335C30.492 25.5492 30.3711 25.8396 30.3711 26.1426C30.3711 26.4457 30.4918 26.7368 30.7061 26.9512C30.9204 27.1654 31.2116 27.2852 31.5147 27.2852H39.9717C40.2746 27.2851 40.5651 27.1652 40.7793 26.9512C40.9936 26.7368 41.1143 26.4457 41.1143 26.1426C41.1143 25.8395 40.9936 25.5493 40.7793 25.335C40.565 25.1207 40.2747 25.0001 39.9717 25H31.5147Z" fill="#3E96F4"/>
</svg>
