<svg width="36" height="50" viewBox="0 0 36 50" fill="none" xmlns="http://www.w3.org/2000/svg">
<path d="M2.935 45.7432L0 10L35.0515 10.0718L31.9481 45.7432L17.6581 49.8664L2.935 45.7432Z" fill="#E9CA32"/>
<path d="M17.6562 46.4144V13.4041L32.0907 13.4519L29.5167 42.9861L17.6562 46.4144Z" fill="#FFDE25"/>
<path d="M16.1106 17.3235H12.2945V39.2943L9.32639 38.731V35.7734L5.79297 35.21V41.8294L16.1106 44.5054V17.3235ZM18.9732 17.3235H29.5376L28.8309 21.5346H23.0061V28.445H28.8309L28.1242 42.3928L18.9732 44.5054V40.1394L25.1561 38.0268L25.5131 32.2524L18.9732 33.196V17.3235Z" fill="white"/>
<path d="M21.7459 2.17427H19.6555V1.67635C19.6555 1.44398 19.6288 1.29599 19.5753 1.23237C19.5218 1.16874 19.4327 1.13693 19.308 1.13693C19.1726 1.13693 19.0692 1.17981 18.9979 1.26556C18.9302 1.35131 18.8963 1.48133 18.8963 1.6556C18.8963 1.87967 18.9355 2.04841 19.0139 2.16183C19.0888 2.27524 19.3009 2.41217 19.6502 2.57261C20.6517 3.03458 21.2826 3.41355 21.5427 3.70954C21.8029 4.00553 21.933 4.48271 21.933 5.14108C21.933 5.61964 21.86 5.97234 21.7138 6.19917C21.5713 6.426 21.2932 6.61687 20.8798 6.77178C20.4664 6.92393 19.9852 7 19.4363 7C18.834 7 18.3189 6.91148 17.8912 6.73444C17.4671 6.5574 17.1891 6.33195 17.0572 6.05809C16.9253 5.78423 16.8594 5.39557 16.8594 4.89212V4.45228H18.9498V5.26971C18.9498 5.52144 18.9783 5.68326 19.0353 5.75519C19.0959 5.82711 19.2011 5.86307 19.3508 5.86307C19.5005 5.86307 19.6109 5.81743 19.6822 5.72614C19.7571 5.63485 19.7945 5.49931 19.7945 5.3195C19.7945 4.92393 19.725 4.66528 19.586 4.54357C19.4434 4.42185 19.0924 4.21853 18.5328 3.93361C17.9732 3.64592 17.6025 3.43707 17.4207 3.30705C17.239 3.17704 17.0875 2.99723 16.9663 2.76763C16.8487 2.53804 16.7899 2.24481 16.7899 1.88797C16.7899 1.37344 16.8736 0.997234 17.0412 0.759336C17.2122 0.521438 17.4867 0.3361 17.8645 0.20332C18.2423 0.0677732 18.6985 0 19.2331 0C19.8177 0 20.3149 0.0733057 20.7248 0.219917C21.1382 0.366528 21.4109 0.551867 21.5427 0.775934C21.6782 0.997234 21.7459 1.37483 21.7459 1.90871V2.17427Z" fill="black"/>
<path d="M16.1062 0.141113V4.63074C16.1062 5.30294 16.0973 5.73586 16.0795 5.9295C16.0616 6.12037 15.9797 6.29326 15.8335 6.44817C15.691 6.60308 15.4949 6.71096 15.2454 6.77182C14.9995 6.82991 14.6271 6.85896 14.1281 6.85896H13V5.68468C13.1354 5.69298 13.2335 5.69713 13.294 5.69713C13.4544 5.69713 13.581 5.6667 13.6736 5.60584C13.7663 5.54499 13.8198 5.4703 13.834 5.38178C13.8483 5.29326 13.8554 5.12175 13.8554 4.86725V0.141113H16.1062Z" fill="black"/>
</svg>
