<svg width="56" height="56" viewBox="0 0 56 56" fill="none" xmlns="http://www.w3.org/2000/svg">
<path d="M28 21.9811C24.6684 21.9811 21.958 24.6812 21.958 28C21.958 31.3188 24.6684 34.0189 28 34.0189C31.3316 34.0189 34.042 31.3188 34.042 28C34.042 24.6812 31.3316 21.9811 28 21.9811ZM28 32.2124C25.6683 32.2124 23.7714 30.3228 23.7714 28C23.7714 25.6772 25.6683 23.7876 28 23.7876C30.3317 23.7876 32.2286 25.6772 32.2286 28C32.2286 30.3228 30.3317 32.2124 28 32.2124ZM40.9331 25.663L37.786 25.0186C37.5949 24.3947 37.3437 23.7907 37.036 23.2149L38.8039 20.5424C38.9188 20.3687 38.97 20.1609 38.9488 19.954C38.9277 19.7471 38.8356 19.5538 38.688 19.4067L36.6264 17.353C36.4787 17.2059 36.2847 17.1141 36.077 17.0931C35.8692 17.072 35.6606 17.1231 35.4863 17.2375L32.8035 18.9987C32.2255 18.6921 31.6192 18.4419 30.9929 18.2516L30.346 15.1165C30.3039 14.9128 30.1926 14.7298 30.0308 14.5984C29.869 14.4669 29.6666 14.3952 29.4579 14.3952H26.5421C26.3334 14.3952 26.131 14.4669 25.9692 14.5984C25.8074 14.7298 25.6961 14.9128 25.654 15.1165L25.0071 18.2516C24.3808 18.4419 23.7745 18.6921 23.1965 18.9987L20.5137 17.2375C20.3394 17.1231 20.1308 17.072 19.923 17.0931C19.7153 17.1141 19.5213 17.2059 19.3737 17.353L17.312 19.4067C17.1644 19.5538 17.0723 19.7471 17.0511 19.954C17.03 20.1609 17.0812 20.3687 17.1961 20.5424L18.9641 23.2149C18.6563 23.7906 18.4051 24.3946 18.214 25.0185L15.0669 25.6629C14.8624 25.7048 14.6787 25.8157 14.5468 25.9769C14.4149 26.138 14.3428 26.3396 14.3428 26.5476V29.4522C14.3428 29.6601 14.4149 29.8617 14.5468 30.0229C14.6787 30.1841 14.8624 30.295 15.0669 30.3369L18.214 30.9813C18.405 31.6052 18.6562 32.2092 18.9639 32.785L17.196 35.4575C17.0811 35.6311 17.0299 35.839 17.0511 36.0459C17.0722 36.2528 17.1643 36.4461 17.3119 36.5932L19.3735 38.6469C19.5212 38.7939 19.7152 38.8857 19.9229 38.9068C20.1306 38.9278 20.3393 38.8768 20.5136 38.7624L23.1964 37.0012C23.7743 37.3077 24.3806 37.5579 25.0069 37.7483L25.6538 40.8834C25.6958 41.0871 25.8072 41.2701 25.969 41.4015C26.1308 41.5329 26.3331 41.6047 26.5419 41.6047H29.4576C29.6664 41.6047 29.8688 41.5329 30.0306 41.4015C30.1924 41.2701 30.3037 41.0871 30.3457 40.8834L30.9927 37.7483C31.619 37.558 32.2253 37.3078 32.8032 37.0012L35.4861 38.7624C35.6604 38.8768 35.869 38.9278 36.0767 38.9068C36.2844 38.8857 36.4785 38.7939 36.6261 38.6469L38.6877 36.5932C38.8354 36.4461 38.9275 36.2528 38.9486 36.0459C38.9698 35.839 38.9186 35.6311 38.8037 35.4575L37.0357 32.785C37.3434 32.2092 37.5946 31.6053 37.7858 30.9814L40.9328 30.337C41.1373 30.2951 41.321 30.1842 41.453 30.023C41.5849 29.8618 41.6569 29.6602 41.657 29.4523V26.5477C41.657 26.3398 41.5851 26.1381 41.4532 25.977C41.3213 25.8158 41.1376 25.7049 40.9331 25.663ZM39.8438 28.7158L36.8765 29.3234C36.7083 29.3579 36.5534 29.4392 36.4298 29.558C36.3062 29.6767 36.2189 29.8279 36.1782 29.9941C35.9749 30.825 35.6444 31.6197 35.1983 32.3504C35.1091 32.4966 35.0634 32.665 35.0665 32.836C35.0696 33.0071 35.1214 33.1737 35.2159 33.3166L36.8828 35.8365L35.8666 36.8488L33.3371 35.1882C33.1936 35.0941 33.0263 35.0424 32.8546 35.0393C32.6828 35.0362 32.5138 35.0818 32.367 35.1707C31.6336 35.6151 30.8358 35.9444 30.0018 36.1469C29.8349 36.1874 29.6831 36.2743 29.5639 36.3974C29.4447 36.5206 29.3631 36.6749 29.3285 36.8425L28.7186 39.7984H27.2814L26.6715 36.8425C26.6369 36.6749 26.5552 36.5206 26.4361 36.3975C26.3169 36.2743 26.1651 36.1874 25.9982 36.1469C25.1641 35.9444 24.3663 35.6151 23.6329 35.1707C23.4861 35.0818 23.3171 35.0363 23.1454 35.0394C22.9737 35.0425 22.8064 35.0941 22.6629 35.1882L20.1334 36.8488L19.1172 35.8365L20.7841 33.3166C20.8786 33.1737 20.9305 33.0071 20.9336 32.836C20.9367 32.6649 20.8909 32.4965 20.8017 32.3503C20.3556 31.6197 20.0251 30.8249 19.8218 29.9941C19.7811 29.8279 19.6939 29.6766 19.5703 29.5579C19.4467 29.4392 19.2917 29.3579 19.1235 29.3234L16.1562 28.7158V27.2842L19.1235 26.6765C19.2917 26.6421 19.4466 26.5608 19.5702 26.4421C19.6939 26.3233 19.7811 26.1721 19.8218 26.0059C20.0251 25.175 20.3556 24.3803 20.8017 23.6496C20.8909 23.5034 20.9366 23.335 20.9335 23.1639C20.9303 22.9929 20.8785 22.8262 20.784 22.6834L19.1171 20.1635L20.1332 19.1512L22.6628 20.8118C22.8062 20.9059 22.9736 20.9576 23.1453 20.9607C23.317 20.9638 23.4861 20.9182 23.6329 20.8293C24.3663 20.3849 25.1641 20.0556 25.9981 19.8531C26.165 19.8126 26.3168 19.7257 26.436 19.6026C26.5552 19.4794 26.6368 19.3251 26.6713 19.1575L27.2813 16.2016H28.7184L29.3284 19.1575C29.363 19.3251 29.4446 19.4794 29.5638 19.6025C29.683 19.7257 29.8348 19.8126 30.0017 19.8531C30.8358 20.0556 31.6336 20.3848 32.367 20.8293C32.5138 20.9182 32.6828 20.9637 32.8545 20.9606C33.0262 20.9575 33.1935 20.9059 33.337 20.8118L35.8665 19.1512L36.8827 20.1635L35.2157 22.6834C35.1212 22.8263 35.0694 22.9929 35.0663 23.164C35.0632 23.3351 35.1089 23.5035 35.1982 23.6497C35.6443 24.3803 35.9748 25.1751 36.1781 26.0059C36.2188 26.1721 36.306 26.3234 36.4296 26.4421C36.5532 26.5608 36.7082 26.6421 36.8764 26.6765L39.8437 27.2842V28.7158H39.8438ZM48.9949 34.7454V21.2546C51.2715 20.8294 53 18.8359 53 16.4465C53 13.7485 50.7966 11.5534 48.0882 11.5534C46.6001 11.5534 45.2654 12.2169 44.3639 13.2616L32.6334 6.51497C32.8179 5.994 32.9121 5.44556 32.9119 4.89311C32.9119 2.19495 30.7084 0 28 0C25.2916 0 23.0881 2.19495 23.0881 4.893C23.0881 5.46135 23.1869 6.00702 23.3666 6.51485L11.6361 13.2616C10.7346 12.217 9.39995 11.5534 7.91182 11.5534C5.20351 11.5534 3 13.7485 3 16.4465C3 18.8359 4.72863 20.8294 7.00512 21.2546V34.7454C4.72863 35.1705 3 37.164 3 39.5534C3 42.2514 5.2034 44.4465 7.91182 44.4465C9.39995 44.4465 10.7346 43.783 11.6361 42.7383L23.3666 49.485C23.1821 50.006 23.0879 50.5544 23.0881 51.1069C23.0881 53.8049 25.2916 56 28 56C30.7084 56 32.9119 53.8049 32.9119 51.1069C32.9121 50.5544 32.8179 50.006 32.6334 49.485L44.3639 42.7383C45.2654 43.7829 46.6001 44.4465 48.0882 44.4465C50.7966 44.4465 53 42.2514 53 39.5534C53 37.164 51.2714 35.1705 48.9949 34.7454ZM48.0882 13.36C49.7966 13.36 51.1866 14.7446 51.1866 16.4466C51.1866 18.1485 49.7966 19.5332 48.0882 19.5332C46.3796 19.5332 44.9898 18.1485 44.9898 16.4466C44.9896 14.7446 46.3796 13.36 48.0882 13.36ZM28 1.80645C29.7086 1.80645 31.0985 3.1911 31.0985 4.893C31.0985 6.5949 29.7086 7.97966 28 7.97966C26.2914 7.97966 24.9015 6.59502 24.9015 4.893C24.9015 3.19098 26.2914 1.80645 28 1.80645ZM4.8134 16.4465C4.8134 14.7445 6.20337 13.3598 7.91182 13.3598C9.62039 13.3598 11.0104 14.7445 11.0104 16.4465C11.0104 18.1484 9.62039 19.533 7.91182 19.533C6.20337 19.5332 4.8134 18.1485 4.8134 16.4465ZM7.91182 42.64C6.20337 42.64 4.8134 41.2554 4.8134 39.5534C4.8134 37.8515 6.20337 36.4668 7.91182 36.4668C9.62039 36.4668 11.0104 37.8515 11.0104 39.5534C11.0104 41.2554 9.62039 42.64 7.91182 42.64ZM28 54.1935C26.2914 54.1935 24.9015 52.8089 24.9015 51.1069C24.9015 49.4049 26.2914 48.0203 28 48.0203C29.7086 48.0203 31.0985 49.405 31.0985 51.1069C31.0985 52.8088 29.7086 54.1935 28 54.1935ZM31.7243 47.922C30.8228 46.8774 29.4881 46.2139 28 46.2139C26.5119 46.2139 25.1772 46.8774 24.2757 47.922L12.5452 41.1752C12.7297 40.6543 12.8239 40.1058 12.8238 39.5534C12.8238 37.164 11.0951 35.1705 8.81852 34.7454V21.2546C11.0951 20.8294 12.8238 18.8359 12.8238 16.4465C12.8239 15.8941 12.7297 15.3456 12.5452 14.8246L24.2757 8.078C25.1772 9.12258 26.5119 9.78611 28 9.78611C29.4881 9.78611 30.8228 9.12258 31.7243 8.078L43.4548 14.8246C43.2703 15.3456 43.1761 15.8941 43.1762 16.4465C43.1762 18.8359 44.9049 20.8294 47.1814 21.2546V34.7453C44.9048 35.1705 43.1762 37.164 43.1762 39.5533C43.1762 40.1216 43.2751 40.6672 43.4548 41.1751L31.7243 47.922ZM48.0882 42.64C46.3796 42.64 44.9898 41.2554 44.9898 39.5534C44.9898 37.8515 46.3797 36.4668 48.0882 36.4668C49.7966 36.4668 51.1866 37.8515 51.1866 39.5534C51.1866 41.2554 49.7966 42.64 48.0882 42.64Z" fill="url(#paint0_linear_3267_2234)"/>
<defs>
<linearGradient id="paint0_linear_3267_2234" x1="53" y1="56" x2="-2.70682" y2="6.41085" gradientUnits="userSpaceOnUse">
<stop stop-color="#31393C"/>
<stop offset="1" stop-color="#3D96F5"/>
</linearGradient>
</defs>
</svg>
