<svg width="56" height="56" viewBox="0 0 56 56" fill="none" xmlns="http://www.w3.org/2000/svg">
<path d="M35.7056 28.1194L32.0455 26.696C31.8697 26.6286 31.7187 26.5092 31.6124 26.3539C31.5061 26.1985 31.4496 26.0145 31.4505 25.8263V24.0002C32.5251 23.0461 33.204 21.6557 33.204 20.1091V19.7645C33.778 18.9536 34.0807 18.0181 34.0807 17.0405C34.0807 14.4127 31.9429 12.2747 29.315 12.2747H26.6847C24.0568 12.2747 21.919 14.4127 21.919 17.0405C21.919 18.0181 22.2217 18.9536 22.7957 19.7645V20.1091H22.7958C22.7958 21.6558 23.4747 23.0462 24.5493 24.0002V25.8263C24.5501 26.0145 24.4936 26.1985 24.3874 26.3539C24.2811 26.5092 24.1301 26.6286 23.9543 26.696L20.2942 28.1194C18.6182 28.7711 17.5352 30.3543 17.5352 32.1526V39.398C17.5352 39.6155 17.6216 39.8242 17.7755 39.978C17.9293 40.1319 18.138 40.2183 18.3555 40.2183C18.5731 40.2183 18.7817 40.1319 18.9356 39.978C19.0894 39.8242 19.1758 39.6155 19.1758 39.398V32.1526C19.1758 31.0361 19.8482 30.0532 20.8888 29.6486L23.3965 28.6733C24.2878 30.358 26.0609 31.4506 27.9999 31.4506C29.9512 31.4506 31.7147 30.3616 32.6044 28.6737L35.111 29.6486C36.1516 30.0532 36.8239 31.0361 36.8239 32.1526V39.398C36.8239 39.6155 36.9104 39.8242 37.0642 39.978C37.218 40.1319 37.4267 40.2183 37.6442 40.2183C37.8618 40.2183 38.0705 40.1319 38.2243 39.978C38.3781 39.8242 38.4646 39.6155 38.4646 39.398V32.1526C38.4646 30.3543 37.3816 28.7712 35.7056 28.1194ZM24.4365 20.1093V18.3558C24.4365 18.1382 24.35 17.9295 24.1962 17.7757C24.0424 17.6219 23.8337 17.5354 23.6161 17.5354C23.6112 17.5354 23.6065 17.5361 23.6016 17.5362C23.574 17.3725 23.5599 17.2067 23.5597 17.0406C23.5597 15.3172 24.9617 13.9153 26.6849 13.9153H29.3152C31.0384 13.9153 32.4403 15.3173 32.4403 17.0405C32.4403 17.2078 32.4256 17.3731 32.3984 17.5361C32.3944 17.536 32.3903 17.5354 32.3863 17.5354C32.3615 17.5353 29.8803 17.502 26.6133 15.8686C26.4188 15.7713 26.1935 15.7553 25.9871 15.8241C25.7807 15.8929 25.6101 16.0408 25.5128 16.2354C25.4646 16.3318 25.4359 16.4366 25.4283 16.5441C25.4206 16.6516 25.4342 16.7595 25.4683 16.8617C25.5023 16.9639 25.5562 17.0583 25.6268 17.1397C25.6974 17.2211 25.7833 17.2878 25.8797 17.3359C28.386 18.5892 30.471 18.9889 31.5635 19.1165V20.1093C31.5635 22.0742 29.9649 23.6728 28 23.6728C26.0351 23.6728 24.4365 22.0742 24.4365 20.1093ZM28 29.8099C26.7249 29.8099 25.5558 29.1192 24.9243 28.043C25.7043 27.586 26.1901 26.7547 26.1901 25.8263V24.988C26.7541 25.1979 27.3638 25.3132 28 25.3132C28.6362 25.3132 29.2459 25.1979 29.8099 24.988V25.8263C29.8099 26.7548 30.2958 27.5861 31.0758 28.0431C30.446 29.121 29.2833 29.8099 28 29.8099Z" fill="url(#paint0_linear_3267_2227)"/>
<path d="M21.8626 33.317C21.6451 33.317 21.4364 33.4035 21.2826 33.5573C21.1288 33.7112 21.0423 33.9198 21.0423 34.1374V42.0283C21.0423 42.2459 21.1288 42.4545 21.2826 42.6084C21.4364 42.7622 21.6451 42.8486 21.8626 42.8486C22.0802 42.8486 22.2889 42.7622 22.4427 42.6084C22.5965 42.4545 22.683 42.2459 22.683 42.0283V34.1374C22.683 33.9198 22.5965 33.7112 22.4427 33.5573C22.2889 33.4035 22.0802 33.317 21.8626 33.317ZM34.1374 33.3169C33.9198 33.3169 33.7112 33.4034 33.5573 33.5572C33.4035 33.711 33.317 33.9197 33.317 34.1372V42.0282C33.317 42.2458 33.4035 42.4544 33.5573 42.6083C33.7112 42.7621 33.9198 42.8485 34.1374 42.8485C34.3549 42.8485 34.5636 42.7621 34.7174 42.6083C34.8712 42.4544 34.9577 42.2458 34.9577 42.0282V34.1372C34.9577 33.9197 34.8712 33.711 34.7174 33.5572C34.5636 33.4034 34.3549 33.3169 34.1374 33.3169ZM28 0C25.6139 0 23.6727 1.9413 23.6727 4.32731C23.6727 6.71333 25.6139 8.65473 28 8.65473C30.3861 8.65473 32.3273 6.71344 32.3273 4.32742C32.3273 1.94141 30.3861 0 28 0ZM28 7.01411C26.5185 7.01411 25.3133 5.8088 25.3133 4.32742C25.3133 2.84605 26.5185 1.64062 28 1.64062C29.4815 1.64062 30.6867 2.84594 30.6867 4.32731C30.6867 5.80869 29.4815 7.01411 28 7.01411ZM28 47.3453C25.6139 47.3453 23.6727 49.2866 23.6727 51.6726C23.6727 54.0586 25.6139 56 28 56C30.3861 56 32.3273 54.0587 32.3273 51.6727C32.3273 49.2867 30.3861 47.3453 28 47.3453ZM28 54.3594C26.5185 54.3594 25.3133 53.1541 25.3133 51.6727C25.3133 50.1913 26.5186 48.986 28 48.986C29.4814 48.986 30.6867 50.1913 30.6867 51.6727C30.6867 53.1541 29.4815 54.3594 28 54.3594ZM51.6727 23.6727C49.2866 23.6727 47.3454 25.614 47.3454 28C47.3454 30.386 49.2867 32.3273 51.6727 32.3273C54.0587 32.3273 56 30.3861 56 28C56 25.6139 54.0587 23.6727 51.6727 23.6727ZM51.6727 30.6867C50.1912 30.6867 48.986 29.4814 48.986 28C48.986 26.5186 50.1913 25.3133 51.6727 25.3133C53.1541 25.3133 54.3594 26.5185 54.3594 28C54.3594 29.4815 53.1541 30.6867 51.6727 30.6867ZM4.32742 23.6727C1.94141 23.6727 0 25.6139 0 28C0 30.3861 1.9413 32.3273 4.32731 32.3273C6.71333 32.3273 8.65473 30.3861 8.65473 28C8.65473 25.6139 6.71344 23.6727 4.32742 23.6727ZM4.32731 30.6867C2.84594 30.6867 1.64062 29.4815 1.64062 28C1.64062 26.5185 2.84594 25.3133 4.32731 25.3133C5.80869 25.3133 7.01411 26.5185 7.01411 28C7.01411 29.4815 5.8088 30.6867 4.32731 30.6867ZM51.3993 20.7432C50.223 16.9433 48.1382 13.4874 45.3255 10.6746C42.5127 7.86192 39.0568 5.77716 35.2569 4.60086C35.0491 4.5365 34.8242 4.55732 34.6318 4.65875C34.4393 4.76018 34.295 4.93391 34.2307 5.14172C34.1988 5.24461 34.1874 5.35278 34.1973 5.46004C34.2073 5.56731 34.2382 5.67157 34.2884 5.76688C34.3386 5.86218 34.4071 5.94665 34.49 6.01548C34.5729 6.0843 34.6685 6.13612 34.7714 6.16798C38.3167 7.26546 41.541 9.21052 44.1652 11.8348C46.7895 14.459 48.7345 17.6833 49.832 21.2286C49.8838 21.3959 49.9878 21.5422 50.1288 21.6462C50.2697 21.7502 50.4402 21.8063 50.6154 21.8064C50.7439 21.8065 50.8707 21.7763 50.9854 21.7184C51.1002 21.6605 51.1997 21.5764 51.276 21.4729C51.3523 21.3694 51.4032 21.2495 51.4246 21.1227C51.446 20.996 51.4373 20.866 51.3993 20.7432ZM21.7695 5.14172C21.705 4.93394 21.5607 4.76025 21.3683 4.65883C21.1758 4.55741 20.951 4.53656 20.7432 4.60086C16.9433 5.77716 13.4874 7.86192 10.6746 10.6746C7.86192 13.4874 5.77716 16.9433 4.60086 20.7432C4.56279 20.866 4.55411 20.996 4.57552 21.1227C4.59693 21.2495 4.64783 21.3694 4.72412 21.4729C4.8004 21.5764 4.89993 21.6605 5.01469 21.7184C5.12944 21.7763 5.2562 21.8065 5.38475 21.8064C5.73475 21.8064 6.05905 21.5806 6.16809 21.2286C7.26555 17.6833 9.21059 14.459 11.8348 11.8348C14.459 9.21053 17.6834 7.26546 21.2286 6.16798C21.4364 6.10361 21.6101 5.95932 21.7116 5.76686C21.813 5.5744 21.8338 5.34953 21.7695 5.14172ZM21.2286 49.832C17.6833 48.7345 14.459 46.7895 11.8348 44.1652C9.21054 41.541 7.26547 38.3167 6.16798 34.7714C6.10238 34.5651 5.95788 34.3931 5.76598 34.2928C5.57407 34.1926 5.35033 34.1723 5.14353 34.2364C4.93672 34.3004 4.76362 34.4437 4.66197 34.6348C4.56032 34.8259 4.53835 35.0495 4.60086 35.2568C5.77716 39.0567 7.86192 42.5126 10.6746 45.3253C13.4874 48.1381 16.9433 50.2228 20.7432 51.3991C20.8219 51.4236 20.9038 51.4361 20.9862 51.4361C21.1826 51.4362 21.3725 51.3658 21.5214 51.2378C21.6703 51.1097 21.7683 50.9325 21.7976 50.7384C21.827 50.5442 21.7857 50.3459 21.6813 50.1796C21.5768 50.0133 21.4162 49.89 21.2286 49.832ZM50.8583 34.2305C50.6505 34.1662 50.4256 34.187 50.2331 34.2884C50.0407 34.3899 49.8964 34.5636 49.832 34.7714C48.7345 38.3167 46.7895 41.541 44.1652 44.1652C41.541 46.7895 38.3167 48.7345 34.7714 49.832C34.5644 49.8971 34.3916 50.0415 34.2908 50.2337C34.1901 50.4258 34.1696 50.6501 34.2338 50.8574C34.298 51.0646 34.4417 51.238 34.6335 51.3395C34.8252 51.4411 35.0494 51.4625 35.2569 51.3991C39.0568 50.2228 42.5127 48.1381 45.3255 45.3253C48.1382 42.5126 50.223 39.0567 51.3993 35.2568C51.4311 35.1539 51.4424 35.0457 51.4325 34.9385C51.4225 34.8312 51.3916 34.7269 51.3413 34.6316C51.2911 34.5363 51.2226 34.4519 51.1397 34.383C51.0568 34.3142 50.9612 34.2624 50.8583 34.2305Z" fill="url(#paint1_linear_3267_2227)"/>
<defs>
<linearGradient id="paint0_linear_3267_2227" x1="56" y1="56" x2="-0.0839281" y2="0.0841804" gradientUnits="userSpaceOnUse">
<stop stop-color="#31393C"/>
<stop offset="1" stop-color="#3D96F5"/>
</linearGradient>
<linearGradient id="paint1_linear_3267_2227" x1="56" y1="56" x2="-0.0839281" y2="0.0841804" gradientUnits="userSpaceOnUse">
<stop stop-color="#31393C"/>
<stop offset="1" stop-color="#3D96F5"/>
</linearGradient>
</defs>
</svg>
