<svg width="42" height="45" viewBox="0 0 42 45" fill="none" xmlns="http://www.w3.org/2000/svg">
<path fill-rule="evenodd" clip-rule="evenodd" d="M2.7369 43.5484V41.3621H6.94476C7.34561 41.3621 7.67056 41.0371 7.67056 40.6363C7.67056 40.2354 7.34561 39.9105 6.94476 39.9105H2.68526C1.91502 39.9105 1.28528 40.5399 1.28528 41.3104V43.6C1.28528 44.3704 1.9149 45 2.68526 45H34.549C35.3195 45 35.9489 44.3703 35.9489 43.6V41.3104C35.9489 40.54 35.3193 39.9105 34.549 39.9105H9.99577C9.59492 39.9105 9.26996 40.2354 9.26996 40.6363C9.26996 41.0371 9.59492 41.3621 9.99577 41.3621H34.4972V43.5484H2.7369Z" fill="url(#paint0_linear_1_401)"/>
<path fill-rule="evenodd" clip-rule="evenodd" d="M3.70345 26.5129C4.82075 27.6304 6.63113 27.6303 7.74854 26.5129L7.23531 25.9997L7.74778 26.5137C8.86902 25.3957 8.8679 23.5848 7.74856 22.4654C6.63116 21.348 4.82075 21.3479 3.70345 22.4654L3.70275 22.4661C2.58633 23.5858 2.58696 25.3932 3.70345 26.5129ZM4.73036 25.4869C4.17927 24.9339 4.17924 24.0444 4.73039 23.4913C5.28074 22.9413 6.17162 22.9413 6.72207 23.4918C6.72206 23.4917 6.72207 23.4918 6.72207 23.4918M6.72207 23.4918C7.27542 24.0452 7.27431 24.9359 6.72285 25.4857L6.72209 25.4865C6.17164 26.0369 5.28072 26.037 4.73036 25.4869" fill="url(#paint1_linear_1_401)"/>
<path fill-rule="evenodd" clip-rule="evenodd" d="M15.0983 41.362C15.4991 41.362 15.8241 41.037 15.8241 40.6362V35.67C15.8241 34.1357 17.0821 32.8777 18.6162 32.8777C20.1503 32.8777 21.4084 34.1358 21.4084 35.67V40.6362C21.4084 41.037 21.7333 41.362 22.1342 41.362C22.535 41.362 22.86 41.037 22.86 40.6362V35.67C22.86 33.3341 20.9521 31.4261 18.6162 31.4261C16.2803 31.4261 14.3725 33.3342 14.3725 35.67V40.6362C14.3725 41.037 14.6974 41.362 15.0983 41.362Z" fill="url(#paint2_linear_1_401)"/>
<path fill-rule="evenodd" clip-rule="evenodd" d="M19.1321 36.9099C19.4156 36.6264 19.4156 36.1669 19.1321 35.8834L19.1271 35.8784C18.8437 35.595 18.3841 35.595 18.1007 35.8784C17.8172 36.1619 17.8172 36.6214 18.1007 36.9049L18.1057 36.9099C18.3891 37.1933 18.8487 37.1933 19.1321 36.9099Z" fill="url(#paint3_linear_1_401)"/>
<path fill-rule="evenodd" clip-rule="evenodd" d="M22.152 22.2231C23.178 23.0786 24.5551 22.8038 25.3822 21.9766C26.365 20.9937 26.0652 19.4321 25.1318 18.6539C25.1317 18.6538 25.1319 18.6539 25.1318 18.6539L23.3594 17.1734C23.2116 17.05 23.0208 16.9903 22.829 17.0076C22.6372 17.0249 22.4601 17.1177 22.3368 17.2655L20.2869 19.7225C20.1636 19.8703 20.1041 20.0611 20.1214 20.2528C20.1387 20.4446 20.2316 20.6216 20.3794 20.7449L22.152 22.2231ZM23.0817 21.1082C23.0817 21.1082 23.0817 21.1082 23.0817 21.1082L21.8666 20.095L22.9862 18.7531L24.2015 19.7682C24.616 20.1137 24.6162 20.6896 24.3558 20.9502C24.3558 20.9502 24.3558 20.9502 24.3558 20.9502M23.0817 21.1082C23.4091 21.3812 23.9396 21.3663 24.3558 20.9502L23.0817 21.1082Z" fill="url(#paint4_linear_1_401)"/>
<path fill-rule="evenodd" clip-rule="evenodd" d="M20.8846 21.2811L23.982 17.5671C24.6606 16.7553 24.5532 15.5351 23.7377 14.8559L22.375 13.7178C22.0673 13.4609 21.6096 13.502 21.3526 13.8097C21.0957 14.1174 21.1368 14.5751 21.4445 14.832L22.8086 15.9713C23.0064 16.1359 23.0333 16.4388 22.8686 16.6357L19.7694 20.3518C19.6055 20.5487 19.3018 20.5781 19.1012 20.4114L17.7409 19.2757C17.4332 19.0188 16.9754 19.06 16.7186 19.3678C16.4617 19.6755 16.5029 20.1332 16.8106 20.3901L18.1721 21.5267C18.9852 22.2037 20.2046 22.0976 20.8846 21.2811Z" fill="url(#paint5_linear_1_401)"/>
<path fill-rule="evenodd" clip-rule="evenodd" d="M17.6282 20.5369L17.6292 20.5357L22.6626 14.4984C23.0702 14.0068 23.0148 13.2651 22.5088 12.8491L13.3065 5.17895C12.0512 4.12937 10.1699 4.30248 9.12255 5.55783L6.39345 8.83144C5.34965 10.0867 5.51538 11.9684 6.77372 13.015L15.9766 20.6855L15.978 20.6867C16.4737 21.1021 17.2145 21.0347 17.6282 20.5369ZM16.6924 19.3924L21.3663 13.7864L12.3752 6.29239C11.738 5.75942 10.7728 5.84574 10.2372 6.48778L7.50901 9.76026C6.97524 10.4025 7.0633 11.3679 7.70215 11.8991L16.6924 19.3924Z" fill="url(#paint6_linear_1_401)"/>
<path fill-rule="evenodd" clip-rule="evenodd" d="M2.88405 6.39608C2.6512 6.67353 2.22952 6.71152 1.95083 6.47906C1.6754 6.24952 1.63532 5.82852 1.86842 5.54886L5.08924 1.68874C5.32192 1.40977 5.74282 1.37151 6.02155 1.60341C6.29956 1.83684 6.33576 2.25786 6.10537 2.53294L6.10435 2.53415L2.88405 6.39608ZM1.02127 7.594C1.91585 8.33994 3.25137 8.21824 3.99729 7.32767L3.99831 7.32646L7.21821 3.46501C7.9656 2.57193 7.84277 1.2353 6.95303 0.490067L6.95184 0.489073C6.05694 -0.257232 4.72047 -0.13543 3.97458 0.758846L0.753834 4.61886C0.00838441 5.51274 0.128419 6.84971 1.02127 7.594Z" fill="url(#paint7_linear_1_401)"/>
<path fill-rule="evenodd" clip-rule="evenodd" d="M7.69663 9.53612C7.95342 9.22832 7.91206 8.77063 7.60425 8.51384L4.33593 5.7873C4.02813 5.53051 3.57044 5.57188 3.31365 5.87968C3.05687 6.18749 3.09823 6.64518 3.40604 6.90196L6.67436 9.62851C6.98216 9.88529 7.43985 9.84393 7.69663 9.53612ZM10.0533 6.70995C10.3102 6.40226 10.2691 5.94455 9.96138 5.68763L6.69315 2.95854C6.38547 2.70161 5.92776 2.74276 5.67083 3.05044C5.4139 3.35813 5.45505 3.81584 5.76273 4.07276L9.03096 6.80185C9.33865 7.05878 9.79636 7.01763 10.0533 6.70995Z" fill="url(#paint8_linear_1_401)"/>
<path fill-rule="evenodd" clip-rule="evenodd" d="M21.4278 37.9102C21.5192 38.3004 21.9097 38.5427 22.3 38.4513C25.1235 37.7898 27.8044 36.3618 30.0031 34.1606M30.0031 34.1606C31.4061 32.7575 32.4944 31.162 33.2714 29.4564C33.4375 29.0916 33.2765 28.6612 32.9117 28.495C32.5469 28.3288 32.1165 28.4898 31.9504 28.8546C31.2442 30.4048 30.2551 31.8557 28.9766 33.1342C26.9758 35.1374 24.5381 36.4361 21.9689 37.0379C21.5786 37.1294 21.3364 37.5199 21.4278 37.9102M15.8052 37.9078C15.8967 37.5176 15.6545 37.127 15.2642 37.0355C12.6976 36.4337 10.2624 35.1353 8.26126 33.1342C8.26125 33.1342 8.26127 33.1342 8.26126 33.1342M8.26126 33.1342C7.10422 31.977 6.18158 30.6759 5.49491 29.288C5.31714 28.9288 4.88178 28.7816 4.5225 28.9594C4.16322 29.1371 4.01607 29.5725 4.19383 29.9318C4.95012 31.4603 5.96519 32.8908 7.23474 34.1606C9.43314 36.359 12.1115 37.7873 14.9329 38.4488C15.3231 38.5403 15.7137 38.2981 15.8052 37.9078M3.39712 20.4868C3.7903 20.5649 4.17231 20.3094 4.25036 19.9162C4.75241 17.3872 5.92252 14.9663 7.76595 12.9373C8.03551 12.6406 8.01351 12.1816 7.71682 11.912C7.42013 11.6425 6.9611 11.6645 6.69155 11.9612C4.66505 14.1917 3.37822 16.8545 2.82653 19.6336C2.74848 20.0268 3.00394 20.4088 3.39712 20.4868Z" fill="url(#paint9_linear_1_401)"/>
<path fill-rule="evenodd" clip-rule="evenodd" d="M21.1861 34.5549C21.2944 34.9409 21.695 35.166 22.081 35.0577C24.1201 34.4857 26.0429 33.3996 27.6464 31.7961C28.3414 31.1009 28.9427 30.3437 29.4443 29.5396C29.6564 29.1995 29.5527 28.7518 29.2126 28.5396C28.8725 28.3275 28.4248 28.4312 28.2126 28.7713C27.7703 29.4805 27.2382 30.1513 26.6199 30.7696C25.1973 32.1922 23.4948 33.1535 21.6889 33.6601C21.3029 33.7683 21.0778 34.169 21.1861 34.5549ZM16.0571 34.5526C16.1655 34.1667 15.9405 33.766 15.5546 33.6576C13.7514 33.1511 12.0512 32.1899 10.6309 30.7696C9.96823 30.1069 9.40548 29.3843 8.94426 28.6187C8.73742 28.2753 8.29139 28.1646 7.94803 28.3715C7.60466 28.5783 7.49398 29.0243 7.70082 29.3677C8.22325 30.2349 8.859 31.0505 9.60441 31.796C11.2052 33.3968 13.1254 34.4831 15.1621 35.0551C15.548 35.1635 15.9487 34.9385 16.0571 34.5526ZM6.85499 20.1632C7.24046 20.2732 7.6421 20.0499 7.75207 19.6644C8.22584 18.0039 9.08635 16.4304 10.337 15.0858C10.61 14.7923 10.5934 14.333 10.2999 14.06C10.0064 13.787 9.5471 13.8036 9.27409 14.0971C7.8633 15.6139 6.89111 17.3911 6.35616 19.2662C6.24619 19.6516 6.46952 20.0533 6.85499 20.1632Z" fill="url(#paint10_linear_1_401)"/>
<path fill-rule="evenodd" clip-rule="evenodd" d="M20.8518 28.4303V26.0842H28.3178C28.7187 26.0842 29.0436 25.7593 29.0436 25.3584C29.0436 24.9576 28.7187 24.6326 28.3178 24.6326H20.5729C19.8705 24.6326 19.4002 25.2365 19.4002 25.8453V28.6692C19.4002 29.278 19.8705 29.8819 20.5729 29.8819H39.9479C40.655 29.8819 41.1181 29.2727 41.1181 28.6692V27.8677C41.1181 26.1493 39.8223 24.6326 38.1003 24.6326H31.3689C30.9681 24.6326 30.6431 24.9576 30.6431 25.3584C30.6431 25.7593 30.9681 26.0842 31.3689 26.0842H38.1003C38.8998 26.0842 39.6665 26.8246 39.6665 27.8677V28.4303H20.8518Z" fill="url(#paint11_linear_1_401)"/>
<path fill-rule="evenodd" clip-rule="evenodd" d="M1.42315 24.4369C1.42315 26.8577 3.38562 28.8202 5.80645 28.8202C8.22728 28.8202 10.1898 26.8577 10.1898 24.4369C10.1898 22.0161 8.22728 20.0536 5.80645 20.0536C3.38562 20.0536 1.42315 22.0161 1.42315 24.4369ZM5.80645 18.6304C2.59964 18.6304 0 21.2301 0 24.4369C0 27.6437 2.59964 30.2434 5.80645 30.2434C9.01327 30.2434 11.6129 27.6437 11.6129 24.4369C11.6129 21.2301 9.01327 18.6304 5.80645 18.6304Z" fill="url(#paint12_linear_1_401)"/>
<defs>
<linearGradient id="paint0_linear_1_401" x1="-0.000437269" y1="-5.25601e-06" x2="44.3101" y2="33.8554" gradientUnits="userSpaceOnUse">
<stop stop-color="#FE5B52"/>
<stop offset="1" stop-color="#3D96F5"/>
</linearGradient>
<linearGradient id="paint1_linear_1_401" x1="-0.000437269" y1="-5.25601e-06" x2="44.3101" y2="33.8554" gradientUnits="userSpaceOnUse">
<stop stop-color="#FE5B52"/>
<stop offset="1" stop-color="#3D96F5"/>
</linearGradient>
<linearGradient id="paint2_linear_1_401" x1="-0.000437269" y1="-5.25601e-06" x2="44.3101" y2="33.8554" gradientUnits="userSpaceOnUse">
<stop stop-color="#FE5B52"/>
<stop offset="1" stop-color="#3D96F5"/>
</linearGradient>
<linearGradient id="paint3_linear_1_401" x1="-0.000437269" y1="-5.25601e-06" x2="44.3101" y2="33.8554" gradientUnits="userSpaceOnUse">
<stop stop-color="#FE5B52"/>
<stop offset="1" stop-color="#3D96F5"/>
</linearGradient>
<linearGradient id="paint4_linear_1_401" x1="-0.000437269" y1="-5.25601e-06" x2="44.3101" y2="33.8554" gradientUnits="userSpaceOnUse">
<stop stop-color="#FE5B52"/>
<stop offset="1" stop-color="#3D96F5"/>
</linearGradient>
<linearGradient id="paint5_linear_1_401" x1="-0.000437269" y1="-5.25601e-06" x2="44.3101" y2="33.8554" gradientUnits="userSpaceOnUse">
<stop stop-color="#FE5B52"/>
<stop offset="1" stop-color="#3D96F5"/>
</linearGradient>
<linearGradient id="paint6_linear_1_401" x1="-0.000437269" y1="-5.25601e-06" x2="44.3101" y2="33.8554" gradientUnits="userSpaceOnUse">
<stop stop-color="#FE5B52"/>
<stop offset="1" stop-color="#3D96F5"/>
</linearGradient>
<linearGradient id="paint7_linear_1_401" x1="-0.000437269" y1="-5.25601e-06" x2="44.3101" y2="33.8554" gradientUnits="userSpaceOnUse">
<stop stop-color="#FE5B52"/>
<stop offset="1" stop-color="#3D96F5"/>
</linearGradient>
<linearGradient id="paint8_linear_1_401" x1="-0.000437269" y1="-5.25601e-06" x2="44.3101" y2="33.8554" gradientUnits="userSpaceOnUse">
<stop stop-color="#FE5B52"/>
<stop offset="1" stop-color="#3D96F5"/>
</linearGradient>
<linearGradient id="paint9_linear_1_401" x1="-0.000437269" y1="-5.25601e-06" x2="44.3101" y2="33.8554" gradientUnits="userSpaceOnUse">
<stop stop-color="#FE5B52"/>
<stop offset="1" stop-color="#3D96F5"/>
</linearGradient>
<linearGradient id="paint10_linear_1_401" x1="-0.000437269" y1="-5.25601e-06" x2="44.3101" y2="33.8554" gradientUnits="userSpaceOnUse">
<stop stop-color="#FE5B52"/>
<stop offset="1" stop-color="#3D96F5"/>
</linearGradient>
<linearGradient id="paint11_linear_1_401" x1="-0.000437269" y1="-5.25601e-06" x2="44.3101" y2="33.8554" gradientUnits="userSpaceOnUse">
<stop stop-color="#FE5B52"/>
<stop offset="1" stop-color="#3D96F5"/>
</linearGradient>
<linearGradient id="paint12_linear_1_401" x1="-0.000437269" y1="-5.25601e-06" x2="44.3101" y2="33.8554" gradientUnits="userSpaceOnUse">
<stop stop-color="#FE5B52"/>
<stop offset="1" stop-color="#3D96F5"/>
</linearGradient>
</defs>
</svg>
