<svg width="62" height="64" viewBox="0 0 62 64" fill="none" xmlns="http://www.w3.org/2000/svg">
<path fill-rule="evenodd" clip-rule="evenodd" d="M28.842 34.3828H28.7313C25.003 33.866 21.57 32.2049 18.8753 29.5102C15.6638 26.2987 13.892 22.0168 13.892 17.4764C13.892 12.8991 15.6638 8.6171 18.8753 5.40561C20.315 3.96598 21.9392 2.82166 23.7479 2.00956C24.0432 1.8619 24.4124 1.97264 24.56 2.30487C24.7077 2.60017 24.56 2.96931 24.2647 3.11697C22.6036 3.89215 21.0902 4.96265 19.7613 6.25463C16.7713 9.24463 15.1101 13.2313 15.1101 17.4764C15.1101 21.6845 16.7713 25.6712 19.7613 28.6612C22.2714 31.1344 25.409 32.6848 28.9158 33.1647C29.2481 33.2016 29.4695 33.4969 29.4326 33.8291C29.3957 34.1614 29.1373 34.3828 28.842 34.3828Z" fill="url(#paint0_linear_0_5652)"/>
<path fill-rule="evenodd" clip-rule="evenodd" d="M24.0493 2.44283C24.0265 2.43499 23.9974 2.43523 23.9681 2.44989L23.9589 2.45448L23.9496 2.45868C22.1991 3.2446 20.6238 4.35337 19.2234 5.75373C16.1048 8.87241 14.3843 13.029 14.3843 17.4764C14.3843 21.8863 16.1044 26.043 19.2234 29.1621C21.832 31.7707 25.1531 33.3828 28.7655 33.8905H28.842C28.8647 33.8905 28.8853 33.8825 28.9023 33.867C28.9183 33.8524 28.9378 33.8247 28.9433 33.7748C28.9479 33.7335 28.9361 33.7041 28.9225 33.6863C28.9098 33.6699 28.8915 33.6573 28.8615 33.654L28.8491 33.6526C25.2366 33.1583 22.0012 31.5594 19.4157 29.0119L19.4131 29.0093C16.3316 25.9278 14.6178 21.8162 14.6178 17.4764C14.6178 13.1002 16.3312 8.98849 19.4131 5.90651L19.418 5.90161C20.7811 4.57641 22.3367 3.47465 24.0482 2.67475C24.0778 2.65871 24.1041 2.6291 24.1175 2.59343C24.1308 2.5581 24.1251 2.53588 24.1197 2.52503L24.1147 2.51503L24.1102 2.50481C24.0923 2.46472 24.0688 2.44951 24.0493 2.44283ZM25.0054 2.09489C24.7373 1.50632 24.0685 1.30588 23.5382 1.56405C21.6744 2.4021 20.004 3.58071 18.5272 5.0575C15.2229 8.36179 13.3997 12.7692 13.3997 17.4764C13.3997 22.1472 15.2233 26.5545 18.5272 29.8583C21.3 32.6311 24.8324 34.3394 28.6637 34.8705L28.6973 34.8751H28.842C29.3969 34.8751 29.8583 34.4563 29.9219 33.8835C29.9867 33.301 29.5931 32.7485 28.9773 32.6762C25.579 32.21 22.5414 30.7088 20.1081 28.3118C17.2104 25.4135 15.6024 21.5522 15.6024 17.4764C15.6024 13.3635 17.2104 9.50294 20.1069 6.60518C21.3988 5.34967 22.8665 4.31276 24.4729 3.56309L24.4849 3.5573C24.9891 3.30522 25.2812 2.66111 25.0054 2.09489Z" fill="url(#paint1_linear_0_5652)"/>
<path fill-rule="evenodd" clip-rule="evenodd" d="M21.5701 9.20773C21.4963 9.20773 21.4224 9.17082 21.3486 9.17082C21.0164 9.02316 20.8687 8.65402 21.0164 8.35871L23.1205 3.11698L17.5096 2.89549C17.1774 2.85858 16.919 2.56327 16.919 2.23105C16.9559 1.89882 17.2143 1.64043 17.5834 1.64043L24.0433 1.93574C24.2279 1.93574 24.4124 2.04648 24.5232 2.23105C24.6339 2.3787 24.6339 2.60018 24.5601 2.78475L22.1607 8.80168C22.05 9.06007 21.8285 9.20773 21.5701 9.20773ZM37.9598 32.9432C37.7014 32.9432 37.4799 32.7956 37.3691 32.5741C37.2584 32.2788 37.3691 31.9096 37.6644 31.762C39.3625 30.9868 40.8759 29.9163 42.1679 28.6243C48.3694 22.4228 48.3694 12.3823 42.1679 6.21772C39.6947 3.74451 36.5201 2.19413 33.0502 1.71426C32.718 1.67734 32.4596 1.38203 32.4965 1.04981C32.5334 0.680674 32.8657 0.459192 33.1979 0.496105C36.9631 0.975983 40.3591 2.67401 43.0538 5.36871C49.6983 12.0132 49.6983 22.8289 43.0538 29.4733C41.6511 30.913 39.99 32.0573 38.2181 32.8694C38.1074 32.9063 38.0336 32.9432 37.9598 32.9432Z" fill="url(#paint2_linear_0_5652)"/>
<path fill-rule="evenodd" clip-rule="evenodd" d="M33.0319 1.01454C33.0076 1.03272 32.9905 1.05776 32.9864 1.0988L32.9859 1.10418C32.9836 1.12422 32.9888 1.14878 33.0108 1.17477C33.0339 1.20207 33.068 1.22089 33.1046 1.22496L33.1177 1.22641C36.691 1.72059 39.9646 3.31845 42.5154 5.86903C48.9107 12.2267 48.909 22.5794 42.516 28.9724C41.1871 30.3014 39.6294 31.4044 37.8805 32.2045C37.863 32.2146 37.8432 32.2345 37.8301 32.2727C37.8181 32.3075 37.8166 32.3452 37.8233 32.3775C37.8506 32.4175 37.8893 32.4416 37.9323 32.4487C37.9419 32.4453 37.9538 32.4409 37.9709 32.4347L37.9723 32.4342C37.9899 32.4277 38.0114 32.4199 38.0356 32.4115C39.7463 31.6242 41.3487 30.5179 42.7012 29.1298L42.7057 29.1252C49.1579 22.673 49.1579 12.169 42.7057 5.71682C40.0873 3.09836 36.7928 1.45169 33.1406 0.98511C33.0995 0.981286 33.0598 0.993609 33.0319 1.01454ZM32.0069 0.998133C32.0758 0.324531 32.6831 -0.0564272 33.2523 0.0068071L33.2601 0.00768305C37.1364 0.501718 40.6322 2.25085 43.402 5.02059C50.2379 11.8566 50.2387 22.9823 43.4042 29.8192C41.9577 31.3032 40.2468 32.4811 38.4233 33.3169L38.3991 33.328L38.3738 33.3364C38.3535 33.3432 38.334 33.3503 38.3106 33.3588L38.3047 33.361C38.2842 33.3685 38.2573 33.3784 38.2308 33.3872C38.1739 33.4061 38.0768 33.4355 37.9598 33.4355C37.5048 33.4355 37.1183 33.1733 36.9288 32.7942L36.9172 32.7711L36.9082 32.7469C36.7226 32.2522 36.8904 31.5986 37.4443 31.3216L37.4521 31.3177L37.46 31.3141C39.1025 30.5643 40.5677 29.5283 41.8198 28.2762C47.8296 22.2664 47.8281 12.5384 41.8208 6.56687L41.8198 6.56584C39.4256 4.17163 36.3524 2.66911 32.9883 2.20269C32.4158 2.13505 31.9392 1.62167 32.0069 0.998133ZM17.4134 2.25632C17.4254 2.32864 17.4869 2.39153 17.553 2.40452L23.8374 2.65258L21.4657 8.56083L21.4567 8.57888C21.4515 8.58929 21.4473 8.60688 21.4587 8.63484C21.4664 8.65384 21.4811 8.6756 21.5049 8.69468C21.5343 8.70052 21.5608 8.70716 21.5759 8.71094L21.5788 8.71166L21.5896 8.71432C21.6318 8.70934 21.6735 8.68576 21.7062 8.61225L24.1028 2.6024C24.1156 2.57037 24.1201 2.53853 24.1191 2.51747C24.119 2.5155 24.1189 2.51378 24.1187 2.5123L24.1141 2.50612L24.101 2.48434C24.0852 2.45789 24.0672 2.44221 24.0542 2.43426C24.0472 2.43 24.0427 2.42851 24.041 2.42805H24.0321L17.5749 2.13286C17.515 2.1346 17.4805 2.15453 17.4599 2.17346C17.4409 2.191 17.4228 2.21808 17.4134 2.25632ZM24.1176 2.50526C24.1175 2.50472 24.1176 2.50525 24.1176 2.50526V2.50526ZM16.4297 2.17668C16.4929 1.60721 16.9515 1.14812 17.5834 1.14812H17.5947L24.0565 1.44352C24.4245 1.44849 24.7464 1.66086 24.9328 1.95727C25.1642 2.28531 25.1273 2.69206 25.0174 2.96711M25.0174 2.96711L22.6134 8.99567C22.4299 9.42377 22.0374 9.70004 21.5701 9.70004C21.5114 9.70004 21.4609 9.69276 21.424 9.68584C21.3907 9.67959 21.3597 9.67182 21.3429 9.66761L21.3399 9.66688L21.3246 9.66313H21.2441L21.1487 9.62069C20.6032 9.37827 20.2931 8.73496 20.5659 8.15934L22.4036 3.58137L17.4726 3.38673L17.4552 3.38479C16.8686 3.31961 16.4267 2.80898 16.4267 2.23105V2.20378L16.4297 2.17668" fill="url(#paint3_linear_0_5652)"/>
<path fill-rule="evenodd" clip-rule="evenodd" d="M44.3826 33.2386L37.9227 32.9433C37.7013 32.9433 37.5167 32.8325 37.4059 32.648C37.3321 32.5003 37.2952 32.2788 37.369 32.0942L39.8053 26.0773C39.9161 25.7451 40.2852 25.5974 40.5805 25.7082C40.9127 25.8558 41.0604 26.225 40.9497 26.5203L38.8456 31.762L44.4195 31.9835C44.7518 32.0204 45.0102 32.3157 45.0102 32.648C45.0102 32.9802 44.7148 33.2386 44.3826 33.2386ZM34.1945 21.1309H27.7346C27.4023 21.1309 27.107 20.8356 27.107 20.5034V15.8892H24.8553C24.6338 15.8892 24.4123 15.7784 24.3016 15.5569C24.2278 15.3355 24.2647 15.0401 24.4123 14.8925L30.5031 8.1742C30.6138 8.02655 30.7984 7.95272 30.983 7.95272C31.1306 7.95272 31.3152 8.02655 31.4259 8.1742L37.5167 14.8925C37.7013 15.0401 37.7382 15.3355 37.6274 15.5569C37.5167 15.7784 37.2952 15.8892 37.0737 15.8892H34.822V20.5034C34.822 20.8356 34.5267 21.1309 34.1945 21.1309ZM28.3621 19.9127H33.6038V15.2985C33.6038 14.9663 33.8622 14.671 34.1945 14.671H35.671L30.983 9.50309L26.258 14.671H27.7346C28.0668 14.671 28.3621 14.9663 28.3621 15.2985V19.9127ZM34.6374 24.1209H27.2916C26.9594 24.1209 26.701 23.8625 26.701 23.5303C26.701 23.1981 26.9594 22.9028 27.2916 22.9028H34.6374C34.9696 22.9028 35.265 23.1981 35.265 23.5303C35.265 23.8625 34.9696 24.1209 34.6374 24.1209ZM33.4562 26.8894H28.4728C28.1406 26.8894 27.8822 26.631 27.8822 26.2988C27.8822 25.9666 28.1406 25.6713 28.4728 25.6713H33.4562C33.7884 25.6713 34.0837 25.9666 34.0837 26.2988C34.0837 26.631 33.7884 26.8894 33.4562 26.8894Z" fill="url(#paint4_linear_0_5652)"/>
<path fill-rule="evenodd" clip-rule="evenodd" d="M30.8976 8.46884L30.8969 8.46959L30.8832 8.4879L24.7714 15.2294C24.7682 15.2371 24.7637 15.2513 24.7605 15.2719C24.7556 15.3036 24.7562 15.3355 24.76 15.3625C24.7663 15.3689 24.7733 15.3742 24.7812 15.3787C24.7996 15.3892 24.8254 15.3968 24.8553 15.3968H27.5993V20.5034C27.5993 20.5228 27.6092 20.5585 27.6443 20.5936C27.6794 20.6287 27.7152 20.6386 27.7346 20.6386H34.1945C34.2139 20.6386 34.2496 20.6287 34.2847 20.5936C34.3198 20.5585 34.3297 20.5228 34.3297 20.5034V15.3968H37.0737C37.1036 15.3968 37.1294 15.3892 37.1478 15.3787C37.1643 15.3693 37.1772 15.3566 37.1871 15.3368C37.1905 15.33 37.1941 15.3198 37.196 15.307C37.1979 15.2941 37.1977 15.2818 37.1962 15.2719C37.1958 15.2694 37.1954 15.2674 37.195 15.2656L37.1784 15.2523L31.0458 8.4879L31.0321 8.46959C31.0316 8.46889 31.025 8.46125 31.0087 8.45354C31.0011 8.44998 30.9937 8.44755 30.9877 8.44615C30.9845 8.4454 30.9824 8.44512 30.9816 8.44503C30.9542 8.44522 30.931 8.45097 30.9153 8.45797C30.9077 8.46134 30.9029 8.46452 30.9002 8.46658L30.8976 8.46884ZM37.1928 15.2586C37.1929 15.2586 37.1931 15.259 37.1934 15.2598L37.1928 15.2586ZM30.1255 7.85769C30.3487 7.57598 30.6856 7.46041 30.983 7.46041C31.2606 7.46041 31.5889 7.58696 31.8035 7.85765L37.8598 14.5379C38.2317 14.8666 38.2517 15.4092 38.0678 15.7771C37.8621 16.1885 37.4544 16.3815 37.0737 16.3815H35.3143V20.5034C35.3143 21.1075 34.7986 21.6232 34.1945 21.6232H27.7346C27.1304 21.6232 26.6147 21.1075 26.6147 20.5034V16.3815H24.8553C24.4746 16.3815 24.0669 16.1885 23.8613 15.7771L23.8456 15.7458L23.8346 15.7126C23.771 15.5219 23.7579 15.3132 23.7873 15.1222C23.8154 14.9398 23.8904 14.724 24.054 14.5547L30.1255 7.85769ZM30.9844 8.77193L36.7823 15.1633H34.1945C34.1803 15.1633 34.1599 15.1685 34.1369 15.1935C34.1121 15.2204 34.0961 15.2591 34.0961 15.2985V20.4051H27.8698V15.2985C27.8698 15.2791 27.8599 15.2434 27.8248 15.2083C27.7897 15.1732 27.754 15.1633 27.7346 15.1633H25.1409L30.9844 8.77193ZM27.3752 14.1787H27.7346C28.3387 14.1787 28.8544 14.6944 28.8544 15.2985V19.4204H33.1115V15.2985C33.1115 14.7339 33.5525 14.1787 34.1945 14.1787H34.5597L30.9815 10.2343L27.3752 14.1787ZM27.234 23.4253C27.2093 23.4521 27.1933 23.4909 27.1933 23.5303C27.1933 23.5656 27.2058 23.5881 27.2198 23.6021C27.2338 23.616 27.2563 23.6286 27.2916 23.6286H34.6374C34.6768 23.6286 34.7156 23.6126 34.7424 23.5879C34.7675 23.5648 34.7726 23.5444 34.7726 23.5303C34.7726 23.5109 34.7628 23.4751 34.7277 23.44C34.6926 23.4049 34.6568 23.3951 34.6374 23.3951H27.2916C27.2775 23.3951 27.2571 23.4002 27.234 23.4253ZM26.2087 23.5303C26.2087 22.9656 26.6496 22.4104 27.2916 22.4104H34.6374C35.2415 22.4104 35.7573 22.9262 35.7573 23.5303C35.7573 24.1722 35.2021 24.6132 34.6374 24.6132H27.2916C26.6875 24.6132 26.2087 24.1344 26.2087 23.5303ZM28.4153 26.1938C28.3905 26.2207 28.3745 26.2594 28.3745 26.2988C28.3745 26.3341 28.3871 26.3566 28.4011 26.3706C28.415 26.3846 28.4376 26.3971 28.4728 26.3971H33.4562C33.4956 26.3971 33.5343 26.3811 33.5612 26.3564C33.5863 26.3333 33.5914 26.3129 33.5914 26.2988C33.5914 26.2794 33.5815 26.2437 33.5464 26.2086C33.5113 26.1735 33.4756 26.1636 33.4562 26.1636H28.4728C28.4587 26.1636 28.4383 26.1687 28.4153 26.1938ZM27.3899 26.2988C27.3899 25.7341 27.8309 25.179 28.4728 25.179H33.4562C34.0603 25.179 34.576 25.6947 34.576 26.2988C34.576 26.9408 34.0209 27.3817 33.4562 27.3817H28.4728C27.8687 27.3817 27.3899 26.9029 27.3899 26.2988ZM40.3263 26.1753C40.298 26.1881 40.2808 26.2076 40.2724 26.233L40.2675 26.2477L37.8261 32.2771C37.8261 32.2772 37.8262 32.277 37.8261 32.2771C37.8243 32.282 37.8188 32.3022 37.8222 32.3383C37.8248 32.3659 37.8316 32.3915 37.8389 32.4106C37.8503 32.4256 37.8611 32.4339 37.8695 32.4388C37.8799 32.4448 37.8959 32.451 37.9227 32.451H37.934L44.3899 32.7461C44.4268 32.7443 44.4624 32.7288 44.4877 32.7055C44.5127 32.6825 44.5178 32.6621 44.5178 32.648C44.5178 32.5655 44.4498 32.4889 44.376 32.4745L38.1287 32.2262L40.4896 26.3448C40.4952 26.3276 40.4975 26.2958 40.4802 26.2562C40.4648 26.2211 40.4373 26.1884 40.3967 26.1661C40.3783 26.1623 40.3527 26.1634 40.3263 26.1753ZM39.344 25.9049C39.5557 25.3014 40.2204 25.0474 40.7534 25.2472L40.7671 25.2524L40.7805 25.2583C41.3379 25.5061 41.6177 26.1409 41.4106 26.6931L41.4067 26.7037L39.5624 31.2978L44.4565 31.4923L44.4739 31.4942C45.0605 31.5594 45.5025 32.07 45.5025 32.648C45.5025 33.2899 44.9473 33.7309 44.3826 33.7309H44.3714L37.91 33.4355C37.5139 33.4312 37.1777 33.2244 36.9838 32.9012L36.9741 32.885L36.9656 32.8681C36.8471 32.6311 36.7725 32.2601 36.9119 31.9114L36.9127 31.9095L39.344 25.9049Z" fill="url(#paint5_linear_0_5652)"/>
<path fill-rule="evenodd" clip-rule="evenodd" d="M58.5944 52.3229H3.33466C1.74737 52.3229 0.492309 51.0309 0.492309 49.4436V14.9662C0.492309 13.3789 1.74737 12.087 3.33466 12.087H15.2209C15.5531 12.087 15.8115 12.3823 15.8115 12.7145C15.8115 13.0467 15.5531 13.3051 15.2209 13.3051H3.33466C2.44873 13.3051 1.71046 14.0434 1.71046 14.9662V49.4436C1.71046 50.3664 2.44873 51.1047 3.33466 51.1047H58.5944C59.5172 51.1047 60.2186 50.3664 60.2186 49.4436V14.9662C60.2186 14.0434 59.5172 13.3051 58.5944 13.3051H46.7451C46.4129 13.3051 46.1176 13.0467 46.1176 12.7145C46.1176 12.3823 46.4129 12.087 46.7451 12.087H58.5944C60.1817 12.087 61.4737 13.3789 61.4737 14.9662V49.4436C61.4737 51.0309 60.1817 52.3229 58.5944 52.3229Z" fill="url(#paint6_linear_0_5652)"/>
<path fill-rule="evenodd" clip-rule="evenodd" d="M3.33466 12.5793C2.02752 12.5793 0.984619 13.6425 0.984619 14.9662V49.4436C0.984619 50.7673 2.02752 51.8305 3.33466 51.8305H58.5944C59.9098 51.8305 60.9814 50.759 60.9814 49.4436V14.9662C60.9814 13.6508 59.9098 12.5793 58.5944 12.5793H46.7451C46.7257 12.5793 46.69 12.5892 46.6549 12.6243C46.6198 12.6594 46.6099 12.6951 46.6099 12.7145C46.6099 12.7286 46.615 12.749 46.6401 12.7721C46.667 12.7968 46.7057 12.8128 46.7451 12.8128H58.5944C59.8035 12.8128 60.7109 13.7861 60.7109 14.9662V49.4436C60.7109 50.6237 59.8035 51.597 58.5944 51.597H3.33466C2.16967 51.597 1.21815 50.6311 1.21815 49.4436V14.9662C1.21815 13.7787 2.16967 12.8128 3.33466 12.8128H15.2209C15.2561 12.8128 15.2787 12.8003 15.2926 12.7863C15.3066 12.7723 15.3192 12.7498 15.3192 12.7145C15.3192 12.6751 15.3032 12.6364 15.2784 12.6095C15.2554 12.5844 15.235 12.5793 15.2209 12.5793H3.33466ZM0 14.9662C0 13.1154 1.46723 11.5947 3.33466 11.5947H15.2209C15.8628 11.5947 16.3038 12.1498 16.3038 12.7145C16.3038 13.3186 15.825 13.7974 15.2209 13.7974H3.33466C2.7278 13.7974 2.20277 14.3081 2.20277 14.9662V49.4436C2.20277 50.1018 2.7278 50.6124 3.33466 50.6124H58.5944C59.231 50.6124 59.7263 50.1092 59.7263 49.4436V14.9662C59.7263 14.3007 59.231 13.7974 58.5944 13.7974H46.7451C46.1805 13.7974 45.6253 13.3565 45.6253 12.7145C45.6253 12.1104 46.141 11.5947 46.7451 11.5947H58.5944C60.4536 11.5947 61.966 13.1071 61.966 14.9662V49.4436C61.966 51.3028 60.4536 52.8152 58.5944 52.8152H3.33466C1.46723 52.8152 0 51.2944 0 49.4436V14.9662Z" fill="url(#paint7_linear_0_5652)"/>
<path fill-rule="evenodd" clip-rule="evenodd" d="M60.8461 46.3059H1.08293C0.750705 46.3059 0.492309 46.0475 0.492309 45.7153C0.492309 45.3462 0.750705 45.0878 1.08293 45.0878H60.8461C61.1784 45.0878 61.4737 45.3462 61.4737 45.7153C61.4737 46.0475 61.1784 46.3059 60.8461 46.3059ZM36.4093 57.38H36.3355C36.1878 57.38 36.0032 57.3431 35.8556 57.3431H26.1104C25.9258 57.3431 25.7782 57.38 25.5936 57.38C25.4459 57.38 25.2614 57.3431 25.1506 57.2323C25.003 57.1216 24.9291 56.937 24.9291 56.7525V51.6953C24.9291 51.3631 25.2245 51.1047 25.5567 51.1047H36.4093C36.7415 51.1047 36.9999 51.3631 36.9999 51.6953V56.7525C36.9999 56.937 36.9261 57.1216 36.8153 57.2323C36.7046 57.3431 36.5569 57.38 36.4093 57.38ZM26.1473 56.1249H35.7818V52.3228H26.1473V56.1249Z" fill="url(#paint8_linear_0_5652)"/>
<path fill-rule="evenodd" clip-rule="evenodd" d="M1.01848 45.6037C1.00662 45.6161 0.984619 45.6481 0.984619 45.7153C0.984619 45.7506 0.997169 45.7731 1.01115 45.7871C1.02513 45.801 1.04764 45.8136 1.08293 45.8136H60.8461C60.8855 45.8136 60.9243 45.7976 60.9512 45.7729C60.9762 45.7498 60.9814 45.7294 60.9814 45.7153C60.9814 45.6681 60.9646 45.6385 60.9435 45.6182C60.9195 45.5952 60.8847 45.5801 60.8461 45.5801H1.08293C1.04861 45.5801 1.0301 45.5916 1.01848 45.6037ZM0 45.7153C0 45.0942 0.459273 44.5954 1.08293 44.5954H60.8461C61.4311 44.5954 61.966 45.0555 61.966 45.7153C61.966 46.3573 61.4108 46.7982 60.8461 46.7982H1.08293C0.47881 46.7982 0 46.3194 0 45.7153ZM25.4517 51.6377C25.4266 51.6608 25.4215 51.6812 25.4215 51.6953V56.7525C25.4215 56.7805 25.4273 56.8041 25.4344 56.8202C25.4378 56.8277 25.4409 56.8326 25.443 56.8352L25.4453 56.8378L25.446 56.8385L25.474 56.8595L25.4863 56.8718C25.4891 56.8728 25.4927 56.8741 25.4972 56.8754C25.5224 56.8828 25.5575 56.8877 25.5936 56.8877C25.6548 56.8877 25.7121 56.8818 25.7976 56.8722L25.8047 56.8715C25.8845 56.8626 25.9906 56.8508 26.1104 56.8508H35.8556C35.9573 56.8508 36.0639 56.8627 36.1395 56.8711L36.1499 56.8722C36.24 56.8823 36.2942 56.8877 36.3355 56.8877H36.4093C36.4427 56.8877 36.4618 56.8835 36.4699 56.8809C36.4739 56.8753 36.4821 56.8627 36.4903 56.8417C36.5016 56.8126 36.5076 56.7807 36.5076 56.7525V51.6953C36.5076 51.66 36.4951 51.6375 36.4811 51.6235C36.4671 51.6095 36.4446 51.597 36.4093 51.597H25.5567C25.5173 51.597 25.4785 51.613 25.4517 51.6377ZM24.4368 51.6953C24.4368 51.0533 24.992 50.6124 25.5567 50.6124H36.4093C37.0134 50.6124 37.4922 51.0912 37.4922 51.6953V56.7525C37.4922 57.0517 37.3772 57.3667 37.1635 57.5805C36.9278 57.8161 36.6328 57.8723 36.4093 57.8723H36.3355C36.2338 57.8723 36.1272 57.8604 36.0516 57.852L36.0412 57.8508C35.9511 57.8408 35.8968 57.8354 35.8556 57.8354H26.1104C26.0492 57.8354 25.9919 57.8413 25.9064 57.8508L25.8993 57.8516C25.8195 57.8605 25.7134 57.8723 25.5936 57.8723C25.4074 57.8723 25.0762 57.833 24.8289 57.6057C24.551 57.3826 24.4368 57.048 24.4368 56.7525V51.6953ZM25.655 51.8305H36.2741V56.6172H25.655V51.8305ZM26.6396 52.8151V55.6326H35.2895V52.8151H26.6396Z" fill="url(#paint9_linear_0_5652)"/>
<path fill-rule="evenodd" clip-rule="evenodd" d="M41.1712 63.5077H20.7579C20.4257 63.5077 20.1673 63.2124 20.1673 62.8802V62.0681C20.1673 58.7827 22.8251 56.125 26.1104 56.125H35.8556C39.104 56.125 41.7987 58.7827 41.7987 62.0681V62.8802C41.7987 63.2124 41.5034 63.5077 41.1712 63.5077ZM21.3855 62.2526H40.5437V62.0681C40.5437 59.4841 38.4395 57.3431 35.8556 57.3431H26.1104C23.4895 57.3431 21.3855 59.4841 21.3855 62.0681V62.2526Z" fill="url(#paint10_linear_0_5652)"/>
<path fill-rule="evenodd" clip-rule="evenodd" d="M26.1104 56.6173C23.097 56.6173 20.6596 59.0546 20.6596 62.0681V62.8802C20.6596 62.9196 20.6756 62.9583 20.7004 62.9852C20.7234 63.0102 20.7438 63.0154 20.7579 63.0154H41.1712C41.1906 63.0154 41.2263 63.0055 41.2614 62.9704C41.2965 62.9353 41.3064 62.8996 41.3064 62.8802V62.0681C41.3064 59.0566 38.8341 56.6173 35.8556 56.6173H26.1104ZM19.675 62.0681C19.675 58.5108 22.5532 55.6326 26.1104 55.6326H35.8556C39.3739 55.6326 42.291 58.5089 42.291 62.0681V62.8802C42.291 63.4843 41.7753 64 41.1712 64H20.7579C20.116 64 19.675 63.4448 19.675 62.8802V62.0681ZM20.8932 62.0681C20.8932 59.2147 23.2151 56.8508 26.1104 56.8508H35.8556C38.7164 56.8508 41.036 59.2172 41.036 62.0681V62.7449H20.8932V62.0681ZM21.889 61.7603H40.0402C39.8819 59.5838 38.0597 57.8354 35.8556 57.8354H26.1104C23.8688 57.8354 22.0473 59.5859 21.889 61.7603Z" fill="url(#paint11_linear_0_5652)"/>
<defs>
<linearGradient id="paint0_linear_0_5652" x1="9.59221" y1="7.99554" x2="53.5306" y2="50.1657" gradientUnits="userSpaceOnUse">
<stop stop-color="#FE5B52"/>
<stop offset="1" stop-color="#3E96F4"/>
</linearGradient>
<linearGradient id="paint1_linear_0_5652" x1="9.59221" y1="7.99554" x2="53.5306" y2="50.1657" gradientUnits="userSpaceOnUse">
<stop stop-color="#FE5B52"/>
<stop offset="1" stop-color="#3E96F4"/>
</linearGradient>
<linearGradient id="paint2_linear_0_5652" x1="9.59221" y1="7.99554" x2="53.5306" y2="50.1657" gradientUnits="userSpaceOnUse">
<stop stop-color="#FE5B52"/>
<stop offset="1" stop-color="#3E96F4"/>
</linearGradient>
<linearGradient id="paint3_linear_0_5652" x1="9.59221" y1="7.99554" x2="53.5306" y2="50.1657" gradientUnits="userSpaceOnUse">
<stop stop-color="#FE5B52"/>
<stop offset="1" stop-color="#3E96F4"/>
</linearGradient>
<linearGradient id="paint4_linear_0_5652" x1="9.59221" y1="7.99554" x2="53.5306" y2="50.1657" gradientUnits="userSpaceOnUse">
<stop stop-color="#FE5B52"/>
<stop offset="1" stop-color="#3E96F4"/>
</linearGradient>
<linearGradient id="paint5_linear_0_5652" x1="9.59221" y1="7.99554" x2="53.5306" y2="50.1657" gradientUnits="userSpaceOnUse">
<stop stop-color="#FE5B52"/>
<stop offset="1" stop-color="#3E96F4"/>
</linearGradient>
<linearGradient id="paint6_linear_0_5652" x1="9.59221" y1="7.99554" x2="53.5306" y2="50.1657" gradientUnits="userSpaceOnUse">
<stop stop-color="#FE5B52"/>
<stop offset="1" stop-color="#3E96F4"/>
</linearGradient>
<linearGradient id="paint7_linear_0_5652" x1="9.59221" y1="7.99554" x2="53.5306" y2="50.1657" gradientUnits="userSpaceOnUse">
<stop stop-color="#FE5B52"/>
<stop offset="1" stop-color="#3E96F4"/>
</linearGradient>
<linearGradient id="paint8_linear_0_5652" x1="9.59221" y1="7.99554" x2="53.5306" y2="50.1657" gradientUnits="userSpaceOnUse">
<stop stop-color="#FE5B52"/>
<stop offset="1" stop-color="#3E96F4"/>
</linearGradient>
<linearGradient id="paint9_linear_0_5652" x1="9.59221" y1="7.99554" x2="53.5306" y2="50.1657" gradientUnits="userSpaceOnUse">
<stop stop-color="#FE5B52"/>
<stop offset="1" stop-color="#3E96F4"/>
</linearGradient>
<linearGradient id="paint10_linear_0_5652" x1="9.59221" y1="7.99554" x2="53.5306" y2="50.1657" gradientUnits="userSpaceOnUse">
<stop stop-color="#FE5B52"/>
<stop offset="1" stop-color="#3E96F4"/>
</linearGradient>
<linearGradient id="paint11_linear_0_5652" x1="9.59221" y1="7.99554" x2="53.5306" y2="50.1657" gradientUnits="userSpaceOnUse">
<stop stop-color="#FE5B52"/>
<stop offset="1" stop-color="#3E96F4"/>
</linearGradient>
</defs>
</svg>
