<svg width="64" height="64" viewBox="0 0 64 64" fill="none" xmlns="http://www.w3.org/2000/svg">
<rect width="64" height="64" rx="8" fill="#3E96F4"/>
<path d="M41.3095 20C37.3158 20 31.9609 22.7391 28.3637 27.4482H25.3809C23.2267 27.4482 21.9922 29.057 21.1413 30.7571L20 33.0344H25.3809L28.1738 35.8274L30.9666 38.6205V44L33.2438 42.8604C34.9437 42.0113 36.5524 40.7749 36.5524 38.6205V35.6375C41.2611 32.04 44 26.6829 44 22.6907V20H41.3095ZM36.5524 25.5862C37.0462 25.5862 37.5198 25.7823 37.8689 26.1315C38.2181 26.4807 38.4143 26.9544 38.4143 27.4482C38.4143 27.9421 38.2181 28.4157 37.8689 28.7649C37.5198 29.1141 37.0462 29.3103 36.5524 29.3103C36.0586 29.3103 35.585 29.1141 35.2358 28.7649C34.8866 28.4157 34.6905 27.9421 34.6905 27.4482C34.6905 26.9544 34.8866 26.4807 35.2358 26.1315C35.585 25.7823 36.0586 25.5862 36.5524 25.5862ZM24.45 36.7585L23.519 37.6895C22.1747 39.0339 21.6571 42.3446 21.6571 42.3446C21.6571 42.3446 24.8186 41.9759 26.3119 40.4826L27.2428 39.5516L24.45 36.7585Z" fill="white"/>
</svg>
