<svg width="20" height="20" viewBox="0 0 20 20" fill="none" xmlns="http://www.w3.org/2000/svg">
<path d="M10.1482 10.4794C10.7283 10.4793 11.2954 10.3072 11.7778 9.98482C12.2601 9.66245 12.636 9.20429 12.858 8.66828C13.0799 8.13227 13.138 7.54248 13.0247 6.97348C12.9115 6.40449 12.6321 5.88184 12.2218 5.47164C11.8116 5.06144 11.2889 4.7821 10.7199 4.66895C10.1509 4.55579 9.5611 4.61391 9.02512 4.83594C8.48914 5.05797 8.03103 5.43395 7.70872 5.91633C7.38642 6.39872 7.21438 6.96584 7.21438 7.54599C7.21438 7.93124 7.29027 8.31272 7.43771 8.66864C7.58515 9.02456 7.80126 9.34795 8.07369 9.62035C8.34612 9.89274 8.66954 10.1088 9.02548 10.2562C9.38142 10.4036 9.76291 10.4794 10.1482 10.4794ZM11.3928 10.679H8.90355C7.90766 10.6801 6.95288 11.0763 6.24871 11.7805C5.54454 12.4848 5.14849 13.4396 5.14746 14.4355V17.4794L5.15527 17.5271L5.36505 17.5927C7.34135 18.2103 9.05864 18.4162 10.4716 18.4162C13.2323 18.4162 14.832 17.629 14.9309 17.579L15.1262 17.4798H15.1473V14.4355C15.1466 13.4397 14.7508 12.4849 14.0468 11.7806C13.3428 11.0763 12.3882 10.6801 11.3924 10.679H11.3928Z" fill="#0089FF"/>
<path d="M12.0703 4.47303C12.5388 4.76504 12.9346 5.15998 13.2276 5.62785C13.5207 6.09572 13.7032 6.62421 13.7614 7.1732C14.3347 7.44095 14.9793 7.51606 15.5988 7.38732C16.2183 7.25858 16.7796 6.93289 17.1987 6.4589C17.6179 5.9849 17.8725 5.38803 17.9245 4.75743C17.9765 4.12682 17.8231 3.4963 17.4873 2.96004C17.1514 2.42379 16.6511 2.01056 16.061 1.78207C15.471 1.55359 14.8228 1.5221 14.2134 1.69232C13.604 1.86253 13.066 2.22532 12.6797 2.7265C12.2935 3.22767 12.0797 3.84035 12.0703 4.47303Z" fill="#80C4FF"/>
<path d="M16.2464 7.65103H13.7763C13.7514 8.60466 13.3504 9.50973 12.6606 10.1688C13.5807 10.4431 14.3878 11.0068 14.962 11.7762C15.5363 12.5456 15.8471 13.4796 15.8483 14.4397V15.3773C18.2872 15.2878 19.6923 14.596 19.7849 14.5503L19.9802 14.4511H20.0013V11.404C20.0001 10.4083 19.604 9.45382 18.8999 8.74982C18.1958 8.04582 17.2413 7.64982 16.2456 7.64868L16.2464 7.65103Z" fill="#80C4FF"/>
<path d="M4.99969 7.451C5.5522 7.45113 6.09334 7.2941 6.55995 6.99824C6.70184 6.0803 7.19018 5.25167 7.92448 4.68286C7.92761 4.62817 7.93269 4.57348 7.93269 4.51839C7.93284 3.93818 7.76092 3.37095 7.43867 2.88844C7.11643 2.40594 6.65833 2.02984 6.12231 1.80771C5.5863 1.58558 4.99645 1.5274 4.42736 1.64053C3.85828 1.75366 3.33553 2.03301 2.92523 2.44326C2.51492 2.85351 2.2355 3.37622 2.12229 3.94529C2.00909 4.51436 2.06719 5.10422 2.28925 5.64026C2.5113 6.17631 2.88734 6.63446 3.3698 6.95677C3.85227 7.27908 4.41948 7.45107 4.99969 7.451Z" fill="#80C4FF"/>
<path d="M7.63484 10.1686C6.94884 9.51263 6.54837 8.61319 6.51993 7.66449C6.42813 7.65785 6.3375 7.65082 6.24414 7.65082H3.75531C2.75972 7.65206 1.80526 8.0481 1.10128 8.75209C0.397287 9.45608 0.00124048 10.4105 0 11.4061V14.4508L0.00781346 14.4977L0.217201 14.5637C1.80285 15.0587 3.21778 15.2868 4.44676 15.3587V14.4395C4.44828 13.4795 4.75925 12.5455 5.33354 11.7761C5.90783 11.0067 6.71485 10.443 7.63484 10.1686Z" fill="#80C4FF"/>
</svg>
