<svg width="16" height="19" viewBox="0 0 16 19" fill="none" xmlns="http://www.w3.org/2000/svg">
<g clip-path="url(#clip0_175_86)">
<path d="M3.50558 6.66783V16.6221H0.190848V6.66783H3.50558ZM3.71652 3.59417C3.72321 4.08301 3.55413 4.49149 3.20926 4.81962C2.8644 5.14774 2.41071 5.3118 1.84821 5.3118H1.82812C1.27902 5.3118 0.837054 5.14774 0.502232 4.81962C0.167411 4.49149 0 4.08301 0 3.59417C0 3.09863 0.172433 2.68848 0.517299 2.3637C0.862165 2.03892 1.3125 1.87653 1.8683 1.87653C2.42411 1.87653 2.86942 2.03892 3.20424 2.3637C3.53906 2.68848 3.70982 3.09863 3.71652 3.59417ZM15.4286 10.9167V16.6221H12.1239V11.2984C12.1239 10.5953 11.9883 10.0445 11.7171 9.64607C11.4459 9.24763 11.0223 9.04841 10.4464 9.04841C10.0246 9.04841 9.67132 9.16392 9.38672 9.39495C9.10212 9.62598 8.88951 9.91225 8.74888 10.2538C8.67522 10.4547 8.63839 10.7259 8.63839 11.0674V16.6221H5.33371C5.3471 13.9502 5.35379 11.7839 5.35379 10.1232C5.35379 8.46247 5.35045 7.4714 5.34375 7.14997L5.33371 6.66783H8.63839V8.11426H8.6183C8.75223 7.89997 8.88951 7.71247 9.03013 7.55176C9.17076 7.39104 9.35993 7.21694 9.59766 7.02944C9.83538 6.84194 10.1267 6.69629 10.4715 6.59249C10.8164 6.4887 11.1998 6.4368 11.6217 6.4368C12.7667 6.4368 13.6875 6.81682 14.3839 7.57687C15.0804 8.33691 15.4286 9.4502 15.4286 10.9167Z" fill="white"/>
</g>
<defs>
<clipPath id="clip0_175_86">
<rect width="15.4286" height="18" fill="white" transform="matrix(1 0 0 -1 0 18.3901)"/>
</clipPath>
</defs>
</svg>
