<svg width="39" height="39" viewBox="0 0 39 39" fill="none" xmlns="http://www.w3.org/2000/svg">
<path fill-rule="evenodd" clip-rule="evenodd" d="M35.5781 0H2.89132C1.32785 0 0 1.23653 0 2.75982V35.5945C0 37.1196 0.871233 38.3562 2.4347 38.3562H35.1215C36.6868 38.3562 38.3562 37.1196 38.3562 35.5945V2.75982C38.3562 1.23653 37.1434 0 35.5781 0ZM14.6119 14.6119H19.7753V17.2438H19.832C20.6192 15.8247 22.9443 14.3836 25.8192 14.3836C31.337 14.3836 32.8767 17.3132 32.8767 22.7397V32.8767H27.3973V23.7388C27.3973 21.3096 26.4274 19.1781 24.1589 19.1781C21.4046 19.1781 20.0913 21.0429 20.0913 24.1041V32.8767H14.6119V14.6119ZM5.47945 32.8767H10.9589V14.6119H5.47945V32.8767ZM11.6438 8.21918C11.6438 10.1114 10.1114 11.6438 8.21918 11.6438C6.32694 11.6438 4.79452 10.1114 4.79452 8.21918C4.79452 6.32694 6.32694 4.79452 8.21918 4.79452C10.1114 4.79452 11.6438 6.32694 11.6438 8.21918Z" fill="#0A66C2"/>
</svg>
