<svg width="19" height="20" viewBox="0 0 19 20" fill="none" xmlns="http://www.w3.org/2000/svg">
<g clip-path="url(#clip0_1104_5043)">
<path d="M3.03 0.540391C2.87 0.480391 2.69 0.440391 2.53 0.400391H1.98C1.6 0.480391 1.24 0.590391 0.92 0.830391C0.45 1.19039 0.15 1.66039 0.03 2.25039C0.03 2.29039 0.01 2.33039 0 2.37039V2.92039C0.01 2.97039 0.03 3.02039 0.04 3.08039C0.25 4.14039 1.2 4.93039 2.26 4.92039C3.33 4.90039 4.27 4.12039 4.46 3.07039C4.66 1.98039 4.06 0.920391 3.03 0.540391Z" fill="#EDEAF1"/>
<path d="M18.7299 11.6103C18.7199 10.7503 18.6299 9.89029 18.3699 9.06029C18.0699 8.05029 17.5199 7.23029 16.5599 6.74029C15.7699 6.34029 14.9199 6.23029 14.0499 6.25029C12.5099 6.28029 11.2699 6.86029 10.4399 8.21029C10.4199 8.23029 10.4199 8.26029 10.4199 8.28029L10.3599 8.25029V6.56029H6.63989V19.0603H10.5099V18.8303C10.5099 16.8603 10.4999 14.8903 10.5099 12.9203C10.5099 12.4603 10.5499 11.9803 10.6199 11.5203C10.8099 10.3803 11.4299 9.78029 12.5399 9.68029C13.6799 9.57029 14.4699 10.0103 14.7099 11.2103C14.7999 11.6403 14.8499 12.0803 14.8499 12.5103C14.8599 14.6203 14.8599 16.7303 14.8599 18.8403C14.8599 18.9103 14.8599 18.9803 14.8599 19.0503H18.7299C18.7299 19.0203 18.7399 19.0003 18.7399 18.9803C18.7299 16.5203 18.7399 14.0603 18.7299 11.6103Z" fill="#EDEAF1"/>
<path d="M0.320068 19.0505H4.19007V6.56055H0.320068V19.0505Z" fill="#EDEAF1"/>
</g>
<defs>
<clipPath id="clip0_1104_5043">
<rect width="19" height="20" fill="white"/>
</clipPath>
</defs>
</svg>
