<svg width="20" height="20" viewBox="0 0 20 20" fill="none" xmlns="http://www.w3.org/2000/svg">
<path d="M16.425 5.11676C16.15 4.7501 15.6 4.56676 15.1417 4.56676H12.9417V3.74176C12.9417 2.8251 12.2083 2.0001 11.2 2.0001C6.8 2.0001 4.4 2.00051 0 2C0 5.75833 0 11.2584 0 15.0168H1.475C1.65833 16.6668 3.03333 17.9501 4.68333 17.9501C6.33333 17.9501 7.8 16.6668 7.89166 15.0168H11.5667C11.75 16.6668 13.125 17.9501 14.775 17.9501C16.425 17.9501 17.8917 16.6668 17.9833 15.0168H20C20 13.2751 20 11.5334 20 9.79176C20 9.33343 19.8167 8.96676 19.5417 8.60009L16.425 5.11676ZM4.68333 16.1168C3.95 16.1168 3.30833 15.4751 3.30833 14.7418C3.30833 14.0084 3.95 13.3668 4.68333 13.3668C5.41667 13.3668 6.05833 14.0084 6.05833 14.7418C6.05833 15.4751 5.41667 16.1168 4.68333 16.1168ZM14.775 16.1168C14.0417 16.1168 13.4 15.4751 13.4 14.7418C13.4 14.0084 14.0417 13.3668 14.775 13.3668C15.5083 13.3668 16.15 14.0084 16.15 14.7418C16.2417 15.4751 15.6 16.1168 14.775 16.1168ZM17.525 9.79176H13.3083C13.125 9.79176 13.0333 9.70009 13.0333 9.51676V6.6751C13.0333 6.49176 13.125 6.4001 13.3083 6.4001H14.9583C15.05 6.4001 15.1417 6.4001 15.1417 6.49176L17.7083 9.33343C17.8917 9.51676 17.7083 9.79176 17.525 9.79176Z" fill="#505050"/>
</svg>
