<svg width="62" height="62" viewBox="0 0 62 62" fill="none" xmlns="http://www.w3.org/2000/svg">
<path d="M61.9405 60.7692L52.8585 36.8447C52.7831 36.6461 52.6404 36.4802 52.4553 36.3759L42.7816 30.9259L45.6058 26.4479C47.3392 23.6974 48.2555 20.5188 48.2555 17.2558C48.2555 7.7409 40.5146 0 30.9997 0C21.4847 0 13.7438 7.7409 13.7438 17.2558C13.7438 20.5197 14.6605 23.6984 16.3948 26.4481L19.2184 30.9262L9.54432 36.3759C9.35914 36.4801 9.2164 36.6461 9.14096 36.8447L0.0589475 60.7692C-0.0071675 60.9437 -0.0179572 61.1343 0.028045 61.3151C0.0740471 61.4959 0.17461 61.6582 0.316065 61.7798C0.45752 61.9015 0.633007 61.9767 0.818673 61.9951C1.00434 62.0135 1.19118 61.9743 1.3538 61.8829L15.9538 53.6575L30.5538 61.8829C30.6899 61.9595 30.8434 61.9998 30.9996 61.9998C31.1558 61.9998 31.3093 61.9595 31.4454 61.8829L46.0454 53.6575L60.6454 61.8829C60.808 61.9746 60.9949 62.014 61.1807 61.9956C61.3664 61.9772 61.542 61.9021 61.6835 61.7803C61.8251 61.6586 61.9257 61.4962 61.9717 61.3153C62.0176 61.1344 62.0068 60.9437 61.9405 60.7692ZM31.908 47.0704C32.4856 46.8662 32.9772 46.4729 33.3031 45.9542C33.3492 45.8816 41.0808 33.6228 41.0808 33.6228L45.0187 52.1511L31.908 59.5373V47.0704ZM17.9313 25.479C16.3802 23.0196 15.5604 20.1761 15.5604 17.2557C15.5604 8.74234 22.4864 1.81628 30.9998 1.81628C39.5131 1.81628 46.4392 8.74234 46.4392 17.2557C46.4392 20.1755 45.6196 23.0193 44.0695 25.479C43.9483 25.6712 31.9816 44.648 31.7728 44.9758C31.7709 44.9786 31.7692 44.9815 31.7674 44.9843C31.599 45.2507 31.3121 45.4099 30.9998 45.4099C30.6872 45.4099 30.399 45.25 30.2304 44.9848C30.109 44.7924 18.1185 25.778 17.9354 25.4857L17.9313 25.479ZM10.7223 37.7969L19.1887 33.0274L17.7138 39.9665C17.6856 40.099 17.6873 40.236 17.7189 40.3677C17.7505 40.4993 17.8112 40.6223 17.8964 40.7275C17.9817 40.8327 18.0894 40.9175 18.2116 40.9757C18.3338 41.0339 18.4676 41.064 18.603 41.0639C18.8109 41.0636 19.0124 40.992 19.1739 40.861C19.3354 40.7301 19.4471 40.5477 19.4903 40.3443L20.9189 33.6234L28.6956 45.9567C29.0228 46.4739 29.5144 46.8661 30.0913 47.0702V59.5375L16.9809 52.1512L18.7352 43.8976C18.76 43.7809 18.7616 43.6605 18.7399 43.5433C18.7181 43.426 18.6735 43.3141 18.6086 43.2141C18.5436 43.1141 18.4596 43.0278 18.3613 42.9603C18.263 42.8927 18.1524 42.8452 18.0358 42.8203C17.9191 42.7955 17.7987 42.7938 17.6814 42.8155C17.5641 42.8372 17.4522 42.8818 17.3521 42.9467C17.2521 43.0117 17.1658 43.0958 17.0983 43.1941C17.0307 43.2924 16.9832 43.4031 16.9585 43.5198L15.1507 52.0249L2.64708 59.0694L10.7223 37.7969ZM46.8487 52.025L42.8111 33.0273L51.2771 37.7969L59.3525 59.0694L46.8487 52.025Z" fill="url(#paint0_linear_1_1042)"/>
<path d="M40.99 17.2557C40.99 11.7472 36.5083 7.2655 30.9998 7.2655C25.4912 7.2655 21.0095 11.7472 21.0095 17.2557C21.0095 22.7643 25.4912 27.246 30.9998 27.246C36.5083 27.246 40.99 22.7643 40.99 17.2557ZM22.8259 17.2557C22.8259 12.7486 26.4926 9.08191 30.9998 9.08191C35.5069 9.08191 39.1736 12.7486 39.1736 17.2557C39.1736 21.7628 35.5069 25.4296 30.9998 25.4296C26.4926 25.4296 22.8259 21.7628 22.8259 17.2557Z" fill="url(#paint1_linear_1_1042)"/>
<path d="M37.3572 17.2557C37.3572 13.7503 34.5052 10.8983 30.9998 10.8983C27.4943 10.8983 24.6423 13.7503 24.6423 17.2557C24.6423 20.7612 27.4943 23.6132 30.9998 23.6132C34.5052 23.6132 37.3572 20.7612 37.3572 17.2557ZM26.4587 17.2557C26.4587 14.7518 28.4958 12.7147 30.9998 12.7147C33.5037 12.7147 35.5408 14.7518 35.5408 17.2557C35.5408 19.7597 33.5037 21.7968 30.9998 21.7968C28.4958 21.7968 26.4587 19.7597 26.4587 17.2557Z" fill="url(#paint2_linear_1_1042)"/>
<defs>
<linearGradient id="paint0_linear_1_1042" x1="62.4959" y1="62.1002" x2="15.9656" y2="7.72059" gradientUnits="userSpaceOnUse">
<stop stop-color="#31393C"/>
<stop offset="1" stop-color="#3D96F5"/>
</linearGradient>
<linearGradient id="paint1_linear_1_1042" x1="62.4959" y1="62.1002" x2="15.9656" y2="7.72059" gradientUnits="userSpaceOnUse">
<stop stop-color="#31393C"/>
<stop offset="1" stop-color="#3D96F5"/>
</linearGradient>
<linearGradient id="paint2_linear_1_1042" x1="62.4959" y1="62.1002" x2="15.9656" y2="7.72059" gradientUnits="userSpaceOnUse">
<stop stop-color="#31393C"/>
<stop offset="1" stop-color="#3D96F5"/>
</linearGradient>
</defs>
</svg>
