<svg width="64" height="64" viewBox="0 0 64 64" fill="none" xmlns="http://www.w3.org/2000/svg">
<rect width="64" height="64" rx="8" fill="#3E96F4"/>
<path d="M33.8543 42.9767C33.6237 42.343 33.0157 41.9173 32.3416 41.9173C32.1538 41.9173 31.9675 41.9502 31.7911 42.0146C30.9571 42.3182 30.5256 43.2438 30.829 44.0779C31.0597 44.7116 31.6677 45.1373 32.3418 45.1373C32.5296 45.1373 32.7158 45.1044 32.8922 45.04C33.7263 44.7364 34.1579 43.8108 33.8543 42.9767ZM32.5252 44.0315C32.4665 44.0531 32.4044 44.0641 32.3419 44.0642C32.2318 44.0639 32.1244 44.0299 32.0342 43.9667C31.944 43.9036 31.8753 43.8143 31.8375 43.7109C31.7363 43.4328 31.8802 43.1243 32.1581 43.0231C32.2169 43.0016 32.279 42.9905 32.3415 42.9905C32.4516 42.9907 32.559 43.0247 32.6492 43.0879C32.7394 43.1511 32.808 43.2404 32.8459 43.3438C32.9471 43.6218 32.8033 43.9303 32.5252 44.0315Z" fill="white"/>
<path d="M50.5995 38.0286L49.8652 36.0117C49.8171 35.8791 49.7186 35.7709 49.5911 35.7106L49.5879 35.709C49.5798 35.7052 49.5715 35.7022 49.5632 35.6989C49.5555 35.6957 49.5479 35.6922 49.5401 35.6894C49.5382 35.6886 49.5362 35.6882 49.5343 35.6876C49.4185 35.6478 49.2926 35.6489 49.1776 35.6909L47.4229 36.3291L42.2222 22.0394C42.1842 21.9361 42.1155 21.8469 42.0253 21.7839C41.9352 21.7208 41.8279 21.6868 41.7178 21.6866C41.6556 21.6866 41.5933 21.6973 41.5347 21.7188C41.2563 21.8196 41.1125 22.1287 41.2134 22.4063L42.4985 25.9359L35.6075 28.4438C35.6072 28.4439 35.6077 28.4438 35.6075 28.4438L31.4055 29.9731L28.5911 22.2421L32.2891 20.8963L33.0844 23.0809C33.1222 23.1843 33.1907 23.2736 33.2807 23.3368C33.3708 23.4001 33.4781 23.4341 33.5881 23.4345C33.6511 23.4345 33.7126 23.4237 33.772 23.4015L36.4614 22.4227C36.5276 22.3988 36.5884 22.3621 36.6404 22.3145C36.6923 22.267 36.7343 22.2097 36.764 22.1458C36.8083 22.0511 36.8239 21.9455 36.8087 21.842L36.8085 21.8404C36.8063 21.8264 36.8035 21.8124 36.8002 21.7986C36.7993 21.7947 36.7988 21.791 36.7979 21.787C36.7934 21.7695 36.7881 21.7522 36.782 21.7352L35.9869 19.5506L39.6842 18.205L40.4793 20.3894C40.5566 20.6004 40.7591 20.7428 40.9837 20.7428C41.046 20.7428 41.1082 20.7321 41.1676 20.7099C41.4452 20.609 41.589 20.3006 41.4882 20.0223L40.5094 17.333C40.4763 17.243 40.4198 17.1635 40.3457 17.1026C40.2716 17.0418 40.1827 17.0017 40.088 16.9867C39.9985 16.9725 39.9069 16.9814 39.8218 17.0124L35.1181 18.7245C35.1173 18.7248 35.1164 18.7249 35.1157 18.7252C35.1142 18.7257 35.1129 18.7264 35.1115 18.7269L32.431 19.7027C32.4294 19.7032 32.4279 19.7034 32.4263 19.7039C32.4236 19.7049 32.4211 19.7062 32.4185 19.7072L27.7201 21.4174C27.6539 21.4413 27.593 21.4781 27.5411 21.5256C27.4892 21.5731 27.4471 21.6305 27.4175 21.6943C27.3874 21.7581 27.3703 21.8273 27.3672 21.8978C27.3641 21.9683 27.3751 22.0388 27.3996 22.105L33.6392 39.2494C33.2461 39.1293 32.8383 39.0643 32.4273 39.0563L24.6782 17.7654C24.1722 16.3753 22.6296 15.6561 21.2394 16.1619L14.3544 18.6451L14.3529 18.6456C14.3405 18.6501 14.3288 18.6555 14.317 18.6608C14.3124 18.6628 14.3077 18.6644 14.3033 18.6666C14.2917 18.6721 14.2807 18.6785 14.2697 18.6848C14.2652 18.6874 14.2604 18.6896 14.2559 18.6924C14.2453 18.6989 14.2355 18.706 14.2254 18.7131C14.221 18.7162 14.2163 18.7191 14.212 18.7223C14.2027 18.7294 14.194 18.7371 14.1852 18.7447C14.1808 18.7487 14.176 18.7522 14.1717 18.7562C14.1634 18.7638 14.1558 18.7721 14.1481 18.7802C14.1439 18.7847 14.1394 18.7888 14.1353 18.7934C14.128 18.8016 14.1213 18.8104 14.1145 18.8191C14.1107 18.8239 14.1065 18.8286 14.1028 18.8337C14.0967 18.8422 14.0912 18.851 14.0856 18.8598C14.0819 18.8656 14.0779 18.871 14.0745 18.8768C14.0693 18.8855 14.0649 18.8947 14.0602 18.9037C14.057 18.9099 14.0534 18.916 14.0504 18.9224C14.0463 18.9312 14.0429 18.9404 14.0392 18.9495C14.0364 18.9564 14.0333 18.963 14.0308 18.97C14.0277 18.9789 14.0253 18.9881 14.0226 18.9971C14.0204 19.0045 14.0178 19.0119 14.0159 19.0195C14.0137 19.0283 14.0122 19.0375 14.0104 19.0465C14.0088 19.0544 14.0069 19.0622 14.0057 19.0702C14.0042 19.0793 14.0037 19.0886 14.0028 19.0979C14.002 19.1059 14.0008 19.1139 14.0004 19.122C13.9999 19.1314 14.0002 19.1409 14.0002 19.1503C14.0002 19.1584 13.9998 19.1665 14.0001 19.1746C14.0006 19.1842 14.0019 19.1938 14.0029 19.2034C14.0036 19.2113 14.0041 19.2194 14.0052 19.2274C14.0067 19.2369 14.0089 19.2464 14.0109 19.2559C14.0125 19.264 14.0137 19.2722 14.0157 19.2802C14.0181 19.2898 14.0215 19.2991 14.0244 19.3086C14.0268 19.3164 14.0288 19.3243 14.0316 19.3321C14.0316 19.3325 14.0319 19.3333 14.0321 19.3336L14.7662 21.3505C14.7717 21.3657 14.7793 21.3795 14.7859 21.3939C14.7912 21.405 14.7954 21.4169 14.8013 21.4276C14.8097 21.4427 14.8198 21.4561 14.8294 21.4702C14.8355 21.479 14.8407 21.4887 14.8473 21.497C14.8588 21.5119 14.8719 21.525 14.8848 21.5383C14.8908 21.5446 14.8961 21.5516 14.9024 21.5576C14.9169 21.5712 14.9329 21.5831 14.9487 21.595C14.9544 21.5994 14.9596 21.6044 14.9654 21.6084C14.9825 21.6202 15.0009 21.6302 15.0192 21.6399C15.0246 21.6427 15.0296 21.6464 15.0351 21.6492C15.0539 21.6583 15.0736 21.6654 15.0932 21.6723C15.099 21.6743 15.1043 21.6771 15.1101 21.679C15.1303 21.6854 15.151 21.6894 15.1719 21.6934C15.1777 21.6945 15.1832 21.6965 15.189 21.6974C15.2311 21.704 15.2738 21.7055 15.3162 21.7017C15.3194 21.7015 15.3225 21.7008 15.3256 21.7005C15.3378 21.6992 15.3499 21.6979 15.362 21.6958C15.3676 21.6948 15.3732 21.6933 15.3788 21.6922C15.3884 21.6901 15.3981 21.6883 15.4077 21.6857C15.4179 21.6831 15.428 21.6796 15.4382 21.6762C15.4429 21.6747 15.4477 21.6734 15.4525 21.6717L15.4539 21.6712L21.8356 19.3694L29.4025 40.1589C28.0527 41.3395 27.4906 43.273 28.1399 45.0567C28.7806 46.8171 30.4694 48 32.3421 48C32.8637 47.9999 33.3812 47.9083 33.8711 47.7293C34.9935 47.3207 35.8895 46.4997 36.3943 45.4172C36.6588 44.8518 36.8016 44.2371 36.8135 43.613L50.2786 38.7164C50.2822 38.7151 50.2857 38.7133 50.2892 38.712C50.3029 38.7067 50.3164 38.7013 50.3294 38.695C50.3349 38.6924 50.34 38.6892 50.3454 38.6863C50.356 38.6808 50.3666 38.6754 50.3767 38.6693C50.3824 38.6657 50.3877 38.6615 50.3933 38.6579C50.4024 38.6517 50.4118 38.6458 50.4205 38.6392C50.4233 38.6371 50.4257 38.6346 50.4285 38.6325C50.4395 38.6237 50.4504 38.6149 50.4607 38.6054C50.4624 38.6035 50.4639 38.6017 50.4657 38.6001C50.4765 38.5896 50.4871 38.5791 50.497 38.568C50.499 38.5657 50.5006 38.5632 50.5027 38.5609C50.512 38.5501 50.521 38.5391 50.5294 38.5275C50.5303 38.5263 50.5311 38.525 50.5319 38.5237C50.541 38.5109 50.5497 38.4978 50.5577 38.4843C50.5591 38.4819 50.5602 38.4792 50.5617 38.4767C50.5688 38.4643 50.5756 38.4518 50.5816 38.4388C50.584 38.4337 50.5859 38.4284 50.588 38.4232C50.5926 38.4126 50.5972 38.402 50.6012 38.3912C50.6038 38.3837 50.6057 38.3759 50.608 38.3683C50.6108 38.3595 50.6138 38.3508 50.6161 38.3419C50.6193 38.3286 50.6218 38.3152 50.6241 38.3017C50.6246 38.2982 50.6256 38.2947 50.6261 38.2912C50.6393 38.2028 50.6302 38.1125 50.5995 38.0286ZM34.9786 19.9176L35.59 21.5982L33.9092 22.2099L33.2975 20.5294L34.9786 19.9176ZM38.1596 28.6573L38.7714 30.3378L37.0901 30.9496L36.4785 29.2691L38.1596 28.6573ZM31.7728 30.9816L35.4702 29.636L36.2655 31.8206C36.3033 31.9241 36.372 32.0134 36.4622 32.0766C36.5524 32.1398 36.6598 32.1738 36.7699 32.174C36.8322 32.174 36.8937 32.1626 36.9531 32.1411L39.6425 31.1623C39.9208 31.0614 40.0646 30.7531 39.963 30.4748L39.1678 28.2903L42.8658 26.9444L46.4148 36.6953L35.7087 40.5886C35.5084 40.3595 35.2853 40.1513 35.043 39.9672L31.7728 30.9816ZM22.6612 18.4994C22.6581 18.4908 22.6541 18.4827 22.6506 18.4743C22.6471 18.4661 22.644 18.4575 22.6401 18.4495C22.6366 18.4421 22.6324 18.4354 22.6286 18.4283C22.6239 18.4195 22.6194 18.4105 22.6143 18.402C22.6107 18.3962 22.6066 18.3909 22.6028 18.3853C22.5967 18.3761 22.5909 18.3668 22.5842 18.3582C22.5808 18.3536 22.5768 18.3495 22.5733 18.345C22.5658 18.3358 22.5585 18.3265 22.5504 18.3179C22.5472 18.3144 22.5435 18.3112 22.5401 18.3078C22.5313 18.2988 22.5225 18.2898 22.513 18.2814C22.5103 18.279 22.5074 18.277 22.5047 18.2747C22.4943 18.2656 22.4836 18.257 22.4725 18.2489C22.471 18.2478 22.4692 18.2469 22.4677 18.2457C22.4552 18.2368 22.4424 18.2284 22.4293 18.2206L22.4262 18.219C22.3524 18.1761 22.2694 18.1513 22.1841 18.1468H22.1818C22.1652 18.146 22.1484 18.146 22.1318 18.1467C22.1287 18.1469 22.1256 18.1475 22.1225 18.1477C22.108 18.1485 22.0936 18.1499 22.0792 18.1519C22.0722 18.153 22.0654 18.1547 22.0584 18.156C22.0478 18.158 22.0372 18.1598 22.0266 18.1624C22.0146 18.1654 22.0026 18.1695 21.9907 18.1733C21.9854 18.175 21.98 18.1763 21.9747 18.1781L21.9732 18.1786L15.5916 20.4804L15.2244 19.4719L21.6047 17.1707L21.6062 17.1702C22.4404 16.8666 23.3659 17.2982 23.6694 18.1324L31.3273 39.1725C31.1526 39.2131 30.9805 39.2642 30.8119 39.3253C30.6435 39.3871 30.4789 39.4589 30.319 39.5403L22.6612 18.4994ZM35.4215 44.9635C35.0379 45.7862 34.3569 46.4102 33.5039 46.7207C33.1316 46.8568 32.7383 46.9266 32.3419 46.9267C30.9187 46.9267 29.6352 46.0277 29.1482 44.6895C28.5073 42.9288 29.4185 40.9748 31.1793 40.3338C31.5516 40.1977 31.9449 40.1279 32.3413 40.1277C33.7645 40.1277 35.048 41.0268 35.535 42.365C35.8455 43.218 35.8052 44.1409 35.4215 44.9635ZM36.696 42.5136C36.6554 42.3389 36.6044 42.1667 36.5434 41.998C36.482 41.8295 36.4104 41.6649 36.3291 41.505L49.0402 36.8827L49.4073 37.8912L36.696 42.5136Z" fill="white"/>
<path d="M35.6075 28.4438L42.4985 25.9359L41.2134 22.4063C41.1125 22.1287 41.2563 21.8196 41.5347 21.7188C41.5933 21.6973 41.6556 21.6866 41.7178 21.6866C41.8279 21.6868 41.9352 21.7208 42.0253 21.7839C42.1155 21.8469 42.1842 21.9361 42.2222 22.0394L47.4229 36.3291L49.1776 35.6909C49.2926 35.6489 49.4185 35.6478 49.5343 35.6876C49.5362 35.6882 49.5382 35.6886 49.5401 35.6894C49.5479 35.6921 49.5555 35.6957 49.5632 35.6989C49.5715 35.7022 49.5798 35.7052 49.5879 35.709L49.5911 35.7106C49.7186 35.7709 49.8171 35.8791 49.8652 36.0117L50.5995 38.0286C50.6302 38.1125 50.6393 38.2028 50.6261 38.2912C50.6256 38.2947 50.6246 38.2982 50.6241 38.3017C50.6218 38.3152 50.6193 38.3286 50.6161 38.3419C50.6138 38.3508 50.6108 38.3595 50.608 38.3683C50.6057 38.3759 50.6038 38.3837 50.6012 38.3912C50.5972 38.402 50.5926 38.4126 50.588 38.4232C50.5859 38.4284 50.584 38.4337 50.5816 38.4388C50.5756 38.4518 50.5688 38.4643 50.5617 38.4767C50.5602 38.4792 50.5591 38.4819 50.5577 38.4843C50.5497 38.4978 50.541 38.5109 50.5319 38.5237C50.5311 38.525 50.5303 38.5263 50.5294 38.5275C50.521 38.5391 50.512 38.5501 50.5027 38.5609C50.5006 38.5632 50.499 38.5657 50.497 38.568C50.4871 38.5791 50.4765 38.5896 50.4657 38.6001C50.4639 38.6017 50.4624 38.6035 50.4607 38.6054C50.4504 38.6149 50.4395 38.6237 50.4285 38.6325C50.4257 38.6346 50.4233 38.6371 50.4205 38.6392C50.4118 38.6458 50.4024 38.6517 50.3933 38.6579C50.3877 38.6615 50.3824 38.6657 50.3767 38.6693C50.3666 38.6754 50.356 38.6808 50.3454 38.6863C50.34 38.6892 50.3349 38.6924 50.3294 38.695C50.3164 38.7013 50.3029 38.7067 50.2892 38.712C50.2857 38.7133 50.2822 38.7151 50.2786 38.7164L36.8135 43.613C36.8016 44.2371 36.6588 44.8518 36.3943 45.4172C35.8895 46.4997 34.9935 47.3207 33.8711 47.7293C33.3812 47.9083 32.8637 47.9999 32.3421 48C30.4694 48 28.7806 46.8171 28.1399 45.0567C27.4906 43.273 28.0527 41.3395 29.4025 40.1589L21.8356 19.3694L15.4539 21.6712L15.4525 21.6717C15.4477 21.6734 15.4429 21.6747 15.4382 21.6762C15.428 21.6796 15.4179 21.6831 15.4077 21.6857C15.3981 21.6883 15.3884 21.6901 15.3788 21.6922C15.3732 21.6933 15.3676 21.6948 15.362 21.6958C15.3499 21.6979 15.3378 21.6992 15.3256 21.7005C15.3225 21.7008 15.3194 21.7015 15.3162 21.7017C15.2738 21.7055 15.2311 21.704 15.189 21.6974C15.1832 21.6965 15.1777 21.6945 15.1719 21.6934C15.151 21.6894 15.1303 21.6854 15.1101 21.679C15.1043 21.6771 15.099 21.6743 15.0932 21.6723C15.0736 21.6654 15.0539 21.6583 15.0351 21.6492C15.0296 21.6464 15.0246 21.6427 15.0192 21.6399C15.0009 21.6302 14.9825 21.6202 14.9654 21.6084C14.9596 21.6044 14.9544 21.5994 14.9487 21.595C14.9329 21.5831 14.9169 21.5712 14.9024 21.5576C14.8961 21.5516 14.8908 21.5446 14.8848 21.5383C14.8719 21.525 14.8588 21.5119 14.8473 21.497C14.8407 21.4887 14.8355 21.479 14.8294 21.4702C14.8198 21.4561 14.8097 21.4427 14.8013 21.4276C14.7954 21.4169 14.7912 21.405 14.7859 21.3939C14.7793 21.3795 14.7717 21.3657 14.7662 21.3505L14.0321 19.3336C14.0319 19.3333 14.0316 19.3325 14.0316 19.3321C14.0288 19.3243 14.0268 19.3164 14.0244 19.3086C14.0215 19.2991 14.0181 19.2898 14.0157 19.2802C14.0137 19.2722 14.0125 19.264 14.0109 19.2559C14.0089 19.2464 14.0067 19.2369 14.0052 19.2274C14.0041 19.2194 14.0036 19.2113 14.0029 19.2034C14.0019 19.1938 14.0006 19.1842 14.0001 19.1746C13.9998 19.1665 14.0002 19.1584 14.0002 19.1503C14.0002 19.1409 13.9999 19.1314 14.0004 19.122C14.0008 19.1139 14.002 19.1059 14.0028 19.0979C14.0037 19.0886 14.0042 19.0793 14.0057 19.0702C14.0069 19.0622 14.0088 19.0544 14.0104 19.0465C14.0122 19.0375 14.0137 19.0283 14.0159 19.0195C14.0178 19.0119 14.0204 19.0045 14.0226 18.9971C14.0253 18.9881 14.0277 18.9789 14.0308 18.97C14.0333 18.963 14.0364 18.9564 14.0392 18.9495C14.0429 18.9404 14.0463 18.9312 14.0504 18.9224C14.0534 18.916 14.057 18.9099 14.0602 18.9037C14.0649 18.8947 14.0693 18.8855 14.0745 18.8768C14.0779 18.871 14.0819 18.8656 14.0856 18.8598C14.0912 18.851 14.0967 18.8422 14.1028 18.8337C14.1065 18.8286 14.1107 18.8239 14.1145 18.8191C14.1213 18.8104 14.128 18.8016 14.1353 18.7934C14.1394 18.7888 14.1439 18.7847 14.1481 18.7802C14.1558 18.7721 14.1634 18.7638 14.1717 18.7562C14.176 18.7522 14.1808 18.7487 14.1852 18.7447C14.194 18.7371 14.2027 18.7294 14.212 18.7223C14.2163 18.7191 14.221 18.7162 14.2254 18.7131C14.2355 18.706 14.2453 18.6989 14.2559 18.6924C14.2604 18.6896 14.2652 18.6874 14.2697 18.6848C14.2807 18.6785 14.2917 18.6721 14.3033 18.6666C14.3077 18.6644 14.3124 18.6628 14.317 18.6608C14.3288 18.6555 14.3405 18.6501 14.3529 18.6456L14.3544 18.6451L21.2394 16.1619C22.6296 15.6561 24.1722 16.3753 24.6782 17.7654L32.4273 39.0563C32.8383 39.0643 33.2461 39.1293 33.6392 39.2494L27.3996 22.105C27.3751 22.0388 27.3641 21.9683 27.3672 21.8978C27.3703 21.8273 27.3874 21.7581 27.4175 21.6943C27.4471 21.6305 27.4892 21.5731 27.5411 21.5256C27.593 21.4781 27.6539 21.4413 27.7201 21.4174L32.4185 19.7072C32.4211 19.7062 32.4236 19.7049 32.4263 19.7039C32.4279 19.7034 32.4294 19.7032 32.431 19.7027L35.1115 18.7269C35.1129 18.7264 35.1142 18.7257 35.1157 18.7252C35.1164 18.7249 35.1173 18.7248 35.1181 18.7245L39.8218 17.0124C39.9069 16.9814 39.9985 16.9725 40.088 16.9867C40.1827 17.0017 40.2716 17.0418 40.3457 17.1026C40.4198 17.1635 40.4763 17.243 40.5094 17.333L41.4882 20.0223C41.589 20.3006 41.4452 20.609 41.1676 20.7099C41.1082 20.7321 41.046 20.7428 40.9837 20.7428C40.7591 20.7428 40.5566 20.6004 40.4793 20.3894L39.6842 18.205L35.9869 19.5506L36.782 21.7352C36.7881 21.7522 36.7934 21.7695 36.7979 21.787C36.7988 21.791 36.7993 21.7947 36.8002 21.7986C36.8035 21.8124 36.8063 21.8264 36.8085 21.8404L36.8087 21.842C36.8239 21.9455 36.8083 22.0511 36.764 22.1458C36.7343 22.2097 36.6923 22.267 36.6404 22.3145C36.5884 22.3621 36.5276 22.3988 36.4614 22.4227L33.772 23.4015C33.7126 23.4237 33.6511 23.4345 33.5881 23.4345C33.4781 23.4341 33.3708 23.4001 33.2807 23.3368C33.1907 23.2736 33.1222 23.1843 33.0844 23.0809L32.2891 20.8963L28.5911 22.2421L31.4055 29.9731L35.6075 28.4438ZM35.6075 28.4438C35.6072 28.4439 35.6077 28.4438 35.6075 28.4438ZM33.8543 42.9767C33.6237 42.343 33.0157 41.9173 32.3416 41.9173C32.1538 41.9173 31.9675 41.9502 31.7911 42.0146C30.9571 42.3182 30.5256 43.2438 30.829 44.0779C31.0597 44.7116 31.6677 45.1373 32.3418 45.1373C32.5296 45.1373 32.7158 45.1044 32.8922 45.04C33.7263 44.7364 34.1579 43.8108 33.8543 42.9767ZM32.5252 44.0315C32.4665 44.0531 32.4044 44.0641 32.3419 44.0642C32.2318 44.0639 32.1244 44.0299 32.0342 43.9667C31.944 43.9036 31.8753 43.8143 31.8375 43.7109C31.7363 43.4328 31.8802 43.1243 32.1581 43.0231C32.2169 43.0016 32.279 42.9905 32.3415 42.9905C32.4516 42.9907 32.559 43.0247 32.6492 43.0879C32.7394 43.1511 32.808 43.2404 32.8459 43.3438C32.9471 43.6218 32.8033 43.9303 32.5252 44.0315ZM34.9786 19.9176L35.59 21.5982L33.9092 22.2099L33.2975 20.5294L34.9786 19.9176ZM38.1596 28.6573L38.7714 30.3378L37.0901 30.9496L36.4785 29.2691L38.1596 28.6573ZM31.7728 30.9816L35.4702 29.636L36.2655 31.8206C36.3033 31.9241 36.372 32.0134 36.4622 32.0766C36.5524 32.1398 36.6598 32.1738 36.7699 32.174C36.8322 32.174 36.8937 32.1626 36.9531 32.1411L39.6425 31.1623C39.9208 31.0614 40.0646 30.7531 39.963 30.4748L39.1678 28.2903L42.8658 26.9444L46.4148 36.6953L35.7087 40.5886C35.5084 40.3595 35.2853 40.1513 35.043 39.9672L31.7728 30.9816ZM22.6612 18.4994C22.6581 18.4908 22.6541 18.4827 22.6506 18.4743C22.6471 18.4661 22.644 18.4575 22.6401 18.4495C22.6366 18.4421 22.6324 18.4354 22.6286 18.4283C22.6239 18.4195 22.6194 18.4105 22.6143 18.402C22.6107 18.3962 22.6066 18.3909 22.6028 18.3853C22.5967 18.3761 22.5909 18.3668 22.5842 18.3582C22.5808 18.3536 22.5768 18.3495 22.5733 18.345C22.5658 18.3358 22.5585 18.3265 22.5504 18.3179C22.5472 18.3144 22.5435 18.3112 22.5401 18.3078C22.5313 18.2988 22.5225 18.2898 22.513 18.2814C22.5103 18.279 22.5074 18.277 22.5047 18.2747C22.4943 18.2656 22.4836 18.257 22.4725 18.2489C22.471 18.2478 22.4692 18.2469 22.4677 18.2457C22.4552 18.2368 22.4424 18.2284 22.4293 18.2206L22.4262 18.219C22.3524 18.1761 22.2694 18.1513 22.1841 18.1468H22.1818C22.1652 18.146 22.1484 18.146 22.1318 18.1467C22.1287 18.1469 22.1256 18.1475 22.1225 18.1477C22.108 18.1485 22.0936 18.1499 22.0792 18.1519C22.0722 18.153 22.0654 18.1547 22.0584 18.156C22.0478 18.158 22.0372 18.1598 22.0266 18.1624C22.0146 18.1654 22.0026 18.1695 21.9907 18.1733C21.9854 18.175 21.98 18.1763 21.9747 18.1781L21.9732 18.1786L15.5916 20.4804L15.2244 19.4719L21.6047 17.1707L21.6062 17.1702C22.4404 16.8666 23.3659 17.2982 23.6694 18.1324L31.3273 39.1725C31.1526 39.2131 30.9805 39.2642 30.8119 39.3253C30.6435 39.3871 30.4789 39.4589 30.319 39.5403L22.6612 18.4994ZM35.4215 44.9635C35.0379 45.7862 34.3569 46.4102 33.5039 46.7207C33.1316 46.8568 32.7383 46.9266 32.3419 46.9267C30.9187 46.9267 29.6352 46.0277 29.1482 44.6895C28.5073 42.9288 29.4185 40.9748 31.1793 40.3338C31.5516 40.1977 31.9449 40.1279 32.3413 40.1277C33.7645 40.1277 35.048 41.0268 35.535 42.365C35.8455 43.218 35.8052 44.1409 35.4215 44.9635ZM36.696 42.5136C36.6554 42.3389 36.6044 42.1667 36.5434 41.998C36.482 41.8295 36.4104 41.6649 36.3291 41.505L49.0402 36.8827L49.4073 37.8912L36.696 42.5136Z" stroke="white" stroke-width="0.2"/>
</svg>
