<svg width="64" height="64" viewBox="0 0 64 64" fill="none" xmlns="http://www.w3.org/2000/svg">
<path fill-rule="evenodd" clip-rule="evenodd" d="M57.7792 32.7466L57.7792 32.7462V32.7462C57.7929 32.4972 57.8064 32.2484 57.8064 32C57.8064 27.295 56.5223 22.721 54.111 18.7148C55.1746 16.8482 55.7365 14.7378 55.7419 12.5894V12.3871C55.7419 5.55664 50.1853 0 43.3548 0C38.7737 0 34.7737 2.50632 32.6307 6.21419C28.5939 6.12555 24.5915 6.97465 20.9383 8.69471C20.2622 7.9104 19.4251 7.281 18.4838 6.84939C17.5426 6.41778 16.5194 6.19409 15.4839 6.19355C11.4994 6.19355 8.25806 9.43587 8.25806 13.4194C8.26125 14.982 8.76802 16.5019 9.70323 17.7538L10.1306 18.3236C7.74752 22.1248 6.40318 26.4846 6.23174 30.9677H4.12903C2.99045 30.9677 2.06452 31.8937 2.06452 33.0323V53.6774C0.925935 53.6774 0 54.6034 0 55.7419V57.8064C0 58.945 0.925935 59.871 2.06452 59.871H6.90064C8.06297 62.3081 10.5445 64 13.4194 64C16.2942 64 18.7757 62.3081 19.9381 59.871H31.6748C32.8372 62.3081 35.3187 64 38.1935 64C41.0684 64 43.5499 62.3081 44.7123 59.871H47.4839C48.6225 59.871 49.5484 58.945 49.5484 57.8064V54.9636C49.5484 54.7117 49.5174 54.4599 49.4565 54.2121L48.7959 51.5695C50.3307 50.2531 51.7054 48.7609 52.8919 47.1236L56.7742 52.3014L62.5548 44.5935C63.4902 43.3414 63.997 41.821 64 40.2581C64 36.6101 61.279 33.5917 57.761 33.1076C57.7661 32.9873 57.7726 32.867 57.7792 32.7466ZM43.3548 2.06452C49.0467 2.06452 53.6774 6.69523 53.6774 12.3871V12.5884C53.6774 14.8903 52.8939 17.1561 51.4715 18.9657L43.3548 29.2975L35.2382 18.9657C33.812 17.1455 33.0355 14.9007 33.0323 12.5884V12.3871C33.0323 6.69523 37.663 2.06452 43.3548 2.06452ZM15.4839 8.25806C18.3298 8.25806 20.6452 10.5734 20.6452 13.4194C20.6432 14.5355 20.2812 15.6212 19.6129 16.5151L15.4839 22.0212L11.3548 16.5151C10.6865 15.6212 10.3245 14.5355 10.3226 13.4194C10.3226 10.5734 12.6379 8.25806 15.4839 8.25806ZM12.3871 33.0323V40.896L17.5484 38.3154L22.7097 40.896V33.0323H30.9677V53.6774H19.9381C18.7757 51.2403 16.2942 49.5484 13.4194 49.5484C10.5445 49.5484 8.06297 51.2403 6.90064 53.6774H4.12903V33.0323H12.3871ZM14.4516 33.0323H20.6452V37.5556L17.5484 36.0072L14.4516 37.5556V33.0323ZM33.0323 39.2258H42.7747C43.0048 39.2258 43.2283 39.3027 43.4098 39.4443C43.5912 39.5859 43.7201 39.784 43.776 40.0072L44.097 41.2903H39.2258C38.0872 41.2903 37.1613 42.2163 37.1613 43.3548V45.4194C37.1613 46.5579 38.0872 47.4839 39.2258 47.4839H45.6454L47.1938 53.6774H44.7123C43.5499 51.2403 41.0684 49.5484 38.1935 49.5484C36.1724 49.5484 34.3453 50.3845 33.0323 51.7275V39.2258ZM45.1293 45.4194H39.2258V43.3548H44.6132L45.1293 45.4194ZM2.06452 57.8064V55.7419H6.27613C6.22761 56.0805 6.19355 56.4232 6.19355 56.7742C6.19355 57.1252 6.22761 57.4679 6.27613 57.8064H2.06452ZM13.4194 61.9355C10.5734 61.9355 8.25806 59.6201 8.25806 56.7742C8.25806 53.9283 10.5734 51.6129 13.4194 51.6129C16.2653 51.6129 18.5806 53.9283 18.5806 56.7742C18.5806 59.6201 16.2653 61.9355 13.4194 61.9355ZM20.5626 57.8064C20.6111 57.4679 20.6452 57.1252 20.6452 56.7742C20.6452 56.4232 20.6111 56.0805 20.5626 55.7419H31.0503C31.0018 56.0805 30.9677 56.4232 30.9677 56.7742C30.9677 57.1252 31.0018 57.4679 31.0503 57.8064H20.5626ZM38.1935 61.9355C35.3476 61.9355 33.0323 59.6201 33.0323 56.7742C33.0323 53.9283 35.3476 51.6129 38.1935 51.6129C41.0395 51.6129 43.3548 53.9283 43.3548 56.7742C43.3548 59.6201 41.0395 61.9355 38.1935 61.9355ZM45.3368 57.8064C45.3853 57.4679 45.4194 57.1252 45.4194 56.7742C45.4194 56.4232 45.3853 56.0805 45.3368 55.7419H47.4839V57.8064H45.3368ZM48.2323 49.3161L45.7796 39.5066C45.6123 38.8364 45.2256 38.2414 44.6811 37.8164C44.1366 37.3914 43.4655 37.1608 42.7747 37.1613H33.0323V33.0323C33.0323 31.8937 32.1063 30.9677 30.9677 30.9677H8.29523C8.45274 27.1416 9.53934 23.4113 11.4612 20.0991L15.4839 25.4627L21.2645 17.7548C22.1999 16.5027 22.7067 14.9823 22.7097 13.4194C22.7089 12.3915 22.4871 11.3759 22.0594 10.4413C25.0775 9.04133 28.3593 8.30025 31.6862 8.26735C31.2139 9.58969 30.9709 10.983 30.9677 12.3871V12.5884C30.9677 15.3517 31.9081 18.0707 33.6144 20.2415L43.3548 32.6379L52.8206 20.5905C54.7398 24.0869 55.7446 28.0115 55.7419 32C55.7419 32.2606 55.7278 32.5221 55.7137 32.784C55.7076 32.8966 55.7015 33.0094 55.6965 33.1221C52.223 33.6454 49.5484 36.641 49.5484 40.2581C49.5516 41.8207 50.0583 43.3406 50.9935 44.5925L51.5892 45.3874C50.6162 46.815 49.4906 48.1324 48.2323 49.3161ZM60.9032 43.3538L56.7742 48.8599L52.6452 43.3538C51.9768 42.4599 51.6148 41.3742 51.6129 40.2581C51.6129 37.4121 53.9283 35.0968 56.7742 35.0968C59.6201 35.0968 61.9355 37.4121 61.9355 40.2581C61.9336 41.3742 61.5715 42.4599 60.9032 43.3538ZM38.1932 53.6776C36.4859 53.6776 35.0965 55.067 35.0965 56.7744C35.0965 58.4817 36.4859 59.8711 38.1932 59.8711C39.9006 59.8711 41.29 58.4817 41.29 56.7744C41.29 55.067 39.9006 53.6776 38.1932 53.6776ZM38.1932 57.8066C37.9274 57.7947 37.6765 57.6808 37.4926 57.4885C37.3087 57.2962 37.2061 57.0404 37.2061 56.7744C37.2061 56.5083 37.3087 56.2525 37.4926 56.0602C37.6765 55.8679 37.9274 55.754 38.1932 55.7421C38.459 55.754 38.71 55.8679 38.8938 56.0602C39.0777 56.2525 39.1803 56.5083 39.1803 56.7744C39.1803 57.0404 39.0777 57.2962 38.8938 57.4885C38.71 57.6808 38.459 57.7947 38.1932 57.8066ZM13.419 53.6776C11.7117 53.6776 10.3223 55.067 10.3223 56.7744C10.3223 58.4817 11.7117 59.8711 13.419 59.8711C15.1264 59.8711 16.5158 58.4817 16.5158 56.7744C16.5158 55.067 15.1264 53.6776 13.419 53.6776ZM13.419 57.8066C13.1533 57.7947 12.9023 57.6808 12.7184 57.4885C12.5345 57.2962 12.4319 57.0404 12.4319 56.7744C12.4319 56.5083 12.5345 56.2525 12.7184 56.0602C12.9023 55.8679 13.1533 55.754 13.419 55.7421C13.6848 55.754 13.9358 55.8679 14.1197 56.0602C14.3035 56.2525 14.4062 56.5083 14.4062 56.7744C14.4062 57.0404 14.3035 57.2962 14.1197 57.4885C13.9358 57.6808 13.6848 57.7947 13.419 57.8066ZM15.4836 16.5163C17.1909 16.5163 18.5803 15.1269 18.5803 13.4195C18.5803 11.7122 17.1909 10.3228 15.4836 10.3228C13.7762 10.3228 12.3868 11.7122 12.3868 13.4195C12.3868 15.1269 13.7762 16.5163 15.4836 16.5163ZM15.4836 12.3873C15.688 12.3871 15.8879 12.4475 16.058 12.561C16.2281 12.6744 16.3607 12.8358 16.439 13.0247C16.5174 13.2135 16.5379 13.4214 16.4981 13.6219C16.4582 13.8224 16.3598 14.0066 16.2152 14.1512C16.0707 14.2958 15.8865 14.3942 15.6859 14.434C15.4854 14.4739 15.2775 14.4533 15.0887 14.375C14.8998 14.2967 14.7385 14.1641 14.625 13.994C14.5115 13.8239 14.4511 13.624 14.4513 13.4195C14.4513 12.8497 14.9148 12.3873 15.4836 12.3873ZM56.7739 37.1615C55.0665 37.1615 53.6771 38.5509 53.6771 40.2582C53.6771 41.9656 55.0665 43.355 56.7739 43.355C58.4812 43.355 59.8707 41.9656 59.8707 40.2582C59.8707 38.5509 58.4812 37.1615 56.7739 37.1615ZM56.7739 41.2905C56.5081 41.2786 56.2571 41.1647 56.0733 40.9724C55.8894 40.7801 55.7868 40.5243 55.7868 40.2582C55.7868 39.9922 55.8894 39.7364 56.0733 39.5441C56.2571 39.3518 56.5081 39.2379 56.7739 39.226C57.0397 39.2379 57.2906 39.3518 57.4745 39.5441C57.6584 39.7364 57.761 39.9922 57.761 40.2582C57.761 40.5243 57.6584 40.7801 57.4745 40.9724C57.2906 41.1647 57.0397 41.2786 56.7739 41.2905ZM51.6121 12.387C51.6121 16.9403 47.9074 20.645 43.3541 20.645C38.8008 20.645 35.096 16.9403 35.096 12.387C35.096 7.83368 38.8008 4.12891 43.3541 4.12891C47.9074 4.12891 51.6121 7.83368 51.6121 12.387ZM49.5476 12.387C49.5476 8.97123 46.7698 6.19342 43.3541 6.19342C39.9383 6.19342 37.1605 8.97123 37.1605 12.387C37.1605 15.8027 39.9383 18.5805 43.3541 18.5805C46.7698 18.5805 49.5476 15.8027 49.5476 12.387ZM26.838 26.8386H24.7734V28.9031H26.838V26.8386ZM30.967 26.8386H28.9025V28.9031H30.967V26.8386ZM35.096 26.8386H33.0315V28.9031H35.096V26.8386Z" fill="url(#paint0_linear_1_937)"/>
<defs>
<linearGradient id="paint0_linear_1_937" x1="9.90707" y1="7.99554" x2="53.8809" y2="51.585" gradientUnits="userSpaceOnUse">
<stop stop-color="#FE5B52"/>
<stop offset="1" stop-color="#3E96F4"/>
</linearGradient>
</defs>
</svg>
