<svg width="163" height="58" viewBox="0 0 163 58" fill="none" xmlns="http://www.w3.org/2000/svg">
<path d="M162.427 11.1562V24.4683C162.427 26.1149 161.967 27.3976 161.049 28.3163C160.13 29.2349 158.856 29.6943 157.227 29.6943C155.459 29.6943 154.072 29.1829 153.067 28.1603C152.061 27.1376 151.559 25.6903 151.559 23.8183H154.497C154.497 24.8236 154.705 25.6036 155.121 26.1583C155.554 26.7129 156.213 26.9903 157.097 26.9903C157.911 26.9903 158.509 26.7563 158.891 26.2882C159.272 25.8202 159.463 25.2136 159.463 24.4683V11.1562H162.427Z" fill="black"/>
<path d="M145.027 25.5344H137.279L135.875 29.5124H132.703L139.463 11.4424H142.869L149.603 29.5124H146.431L145.027 25.5344ZM144.195 23.2464L141.153 14.6664L138.111 23.2464H144.195Z" fill="black"/>
<path d="M127.189 29.5123L122.613 22.1803H120.507V29.5123H117.543V11.1562H124.017C126.114 11.1562 127.7 11.6676 128.775 12.6903C129.867 13.7129 130.413 15.0649 130.413 16.7463C130.413 18.1849 130.006 19.3636 129.191 20.2823C128.394 21.2009 127.232 21.7903 125.707 22.0503L130.517 29.5123H127.189ZM120.507 20.0743H123.783C126.175 20.0743 127.371 19.0169 127.371 16.9023C127.371 15.8969 127.076 15.1169 126.487 14.5623C125.915 13.9903 125.014 13.7043 123.783 13.7043H120.507V20.0743Z" fill="black"/>
<path d="M112.956 11.1562V29.5123H109.992V11.1562H112.956Z" fill="black"/>
<path d="M103.099 29.5123L98.5231 22.1803H96.4171V29.5123H93.4531V11.1562H99.9271C102.024 11.1562 103.61 11.6676 104.685 12.6903C105.777 13.7129 106.323 15.0649 106.323 16.7463C106.323 18.1849 105.916 19.3636 105.101 20.2823C104.304 21.2009 103.142 21.7903 101.617 22.0503L106.427 29.5123H103.099ZM96.4171 20.0743H99.6931C102.085 20.0743 103.281 19.0169 103.281 16.9023C103.281 15.8969 102.986 15.1169 102.397 14.5623C101.825 13.9903 100.924 13.7043 99.6931 13.7043H96.4171V20.0743Z" fill="black"/>
<path d="M88.8663 11.1562V29.5123H85.9023V11.1562H88.8663Z" fill="black"/>
<path d="M73.1913 11C75.3753 11 77.1953 11.5373 78.6513 12.612C80.1073 13.6867 81.0693 15.1513 81.5373 17.006H78.4173C78.0186 16.018 77.36 15.2293 76.4413 14.64C75.54 14.0507 74.4653 13.756 73.2173 13.756C72.0733 13.756 71.042 14.0247 70.1233 14.562C69.222 15.0993 68.5113 15.862 67.9913 16.85C67.4886 17.838 67.2373 18.9993 67.2373 20.334C67.2373 21.738 67.4973 22.9427 68.0173 23.948C68.5373 24.9533 69.2653 25.7247 70.2013 26.262C71.1546 26.782 72.2553 27.042 73.5033 27.042C75.0286 27.042 76.3373 26.574 77.4293 25.638C78.5213 24.6847 79.18 23.3847 79.4053 21.738H72.6713V19.554H81.9013V22.388C81.6933 23.74 81.208 24.9707 80.4453 26.08C79.7 27.172 78.7033 28.0473 77.4553 28.706C76.2246 29.3647 74.812 29.694 73.2173 29.694C71.432 29.694 69.8546 29.2953 68.4853 28.498C67.116 27.7007 66.0586 26.6 65.3133 25.196C64.568 23.7747 64.1953 22.154 64.1953 20.334C64.1953 18.514 64.568 16.902 65.3133 15.498C66.0586 14.0767 67.1073 12.976 68.4593 12.196C69.8286 11.3987 71.406 11 73.1913 11Z" fill="black"/>
<path d="M156.232 45.9102H160.624V47.5122H154.18V34.8042H156.232V45.9102Z" fill="black"/>
<path d="M144.489 44.7584H139.125L138.153 47.5124H135.957L140.637 35.0024H142.995L147.657 47.5124H145.461L144.489 44.7584ZM143.913 43.1744L141.807 37.2344L139.701 43.1744H143.913Z" fill="black"/>
<path d="M130.378 34.8042V36.4602H126.832V47.5122H124.762V36.4602H121.234V34.8042H130.378Z" fill="black"/>
<path d="M114.724 34.8042V47.5122H112.672V34.8042H114.724Z" fill="black"/>
<path d="M99.5639 34.6963C101.076 34.6963 102.336 35.0683 103.344 35.8123C104.352 36.5563 105.018 37.5703 105.342 38.8543H103.182C102.906 38.1703 102.45 37.6243 101.814 37.2163C101.19 36.8083 100.446 36.6043 99.5819 36.6043C98.7899 36.6043 98.0759 36.7903 97.4399 37.1623C96.8159 37.5343 96.3239 38.0623 95.9639 38.7463C95.6159 39.4303 95.4419 40.2343 95.4419 41.1583C95.4419 42.1303 95.6219 42.9643 95.9819 43.6603C96.3419 44.3563 96.8459 44.8903 97.4939 45.2623C98.1539 45.6223 98.9159 45.8023 99.7799 45.8023C100.836 45.8023 101.742 45.4783 102.498 44.8303C103.254 44.1703 103.71 43.2703 103.866 42.1303H99.2039V40.6183H105.594V42.5803C105.45 43.5163 105.114 44.3683 104.586 45.1363C104.07 45.8923 103.38 46.4983 102.516 46.9543C101.664 47.4103 100.686 47.6383 99.5819 47.6383C98.3459 47.6383 97.2539 47.3623 96.3059 46.8103C95.3579 46.2583 94.6259 45.4963 94.1099 44.5243C93.5939 43.5403 93.3359 42.4183 93.3359 41.1583C93.3359 39.8983 93.5939 38.7823 94.1099 37.8103C94.6259 36.8263 95.3519 36.0643 96.2879 35.5243C97.2359 34.9723 98.3279 34.6963 99.5639 34.6963Z" fill="black"/>
<path d="M86.2668 34.8042V47.5122H84.2148V34.8042H86.2668Z" fill="black"/>
<path d="M77.1502 41.1402C77.1502 42.4242 76.8862 43.5462 76.3582 44.5062C75.8422 45.4542 75.0802 46.1922 74.0722 46.7202C73.0762 47.2482 71.8822 47.5122 70.4902 47.5122H66.2422V34.8042H70.4902C71.8822 34.8042 73.0762 35.0682 74.0722 35.5962C75.0802 36.1122 75.8422 36.8442 76.3582 37.7922C76.8862 38.7402 77.1502 39.8562 77.1502 41.1402ZM70.3282 45.6582C71.8522 45.6582 73.0222 45.2622 73.8382 44.4702C74.6542 43.6782 75.0622 42.5682 75.0622 41.1402C75.0622 39.7122 74.6542 38.6022 73.8382 37.8102C73.0222 37.0182 71.8522 36.6222 70.3282 36.6222H68.2942V45.6582H70.3282Z" fill="black"/>
<path d="M52.3643 43.582C48.1646 50.7867 40.9495 56.0166 32.4482 57.542L24.9219 50.0156L17.292 58H2.53906L33.9316 25.1494L52.3643 43.582Z" fill="#0FA1DB"/>
<path d="M28.0693 57.9883C27.8117 57.995 27.5532 58 27.2939 58H22.0098L24.9766 54.8955L28.0693 57.9883Z" fill="#0FA1DB"/>
<path d="M27.2939 0C43.3102 0 56.2939 12.9837 56.2939 29C56.2939 33.0363 55.4675 36.8792 53.9775 40.3711L33.876 20.2695L0 55.7188V40.4746L15.46 25.0156L20.0107 29.5664L22.4229 27.1543L15.46 20.1904L0 35.6504V20.8564L14.8193 6.03711L28.1133 19.3311L30.5254 16.9189L14.8193 1.21289L0 16.0312V0H27.2939Z" fill="#0FA1DB"/>
</svg>
