<svg width="201" height="57" viewBox="0 0 201 57" fill="none" xmlns="http://www.w3.org/2000/svg">
<path d="M27.0251 40.6712C27.2501 40.6705 27.4656 40.5807 27.6245 40.4214C27.7834 40.2621 27.8726 40.0464 27.8726 39.8214C27.8726 39.5964 27.7834 39.3806 27.6245 39.2213C27.4656 39.062 27.2501 38.9722 27.0251 38.9716H18.245C18.02 38.9722 17.8045 39.062 17.6456 39.2213C17.4868 39.3806 17.3976 39.5964 17.3976 39.8214V54.9383C17.3976 55.163 17.4869 55.3786 17.6458 55.5375C17.8047 55.6964 18.0202 55.7857 18.245 55.7857H27.0251C27.2499 55.7857 27.4654 55.6964 27.6244 55.5375C27.7833 55.3786 27.8726 55.163 27.8726 54.9383C27.8726 54.7133 27.7834 54.4976 27.6245 54.3383C27.4656 54.179 27.2501 54.0892 27.0251 54.0885H19.3772V48.2273H26.9945C27.2134 48.2305 27.4254 48.1507 27.5879 48.004C27.7503 47.8572 27.8512 47.6544 27.8702 47.4363C27.8783 47.3204 27.8624 47.204 27.8236 47.0945C27.7848 46.985 27.7239 46.8846 27.6446 46.7996C27.5653 46.7146 27.4695 46.6468 27.3629 46.6004C27.2563 46.5541 27.1414 46.5301 27.0251 46.5301H19.3772V40.6712H27.0251Z" fill="#2A2A2D"/>
<path d="M43.2085 53.912C42.1228 54.3841 40.9367 54.5787 39.7571 54.4782C38.5774 54.3777 37.4413 53.9852 36.4512 53.3361C35.4611 52.687 34.6481 51.8017 34.0854 50.7601C33.5228 49.7184 33.2282 48.5531 33.2282 47.3692C33.2282 46.1853 33.5228 45.02 34.0854 43.9784C34.6481 42.9367 35.4611 42.0514 36.4512 41.4023C37.4413 40.7533 38.5774 40.3608 39.7571 40.2602C40.9367 40.1597 42.1228 40.3543 43.2085 40.8265C43.4023 40.9101 43.6203 40.9185 43.82 40.8502C44.0197 40.7819 44.1869 40.6417 44.2889 40.4569V40.4428C44.3468 40.341 44.3827 40.2282 44.3941 40.1117C44.4055 39.9952 44.3922 39.8776 44.3551 39.7665C44.318 39.6555 44.258 39.5535 44.1788 39.4672C44.0997 39.381 44.0033 39.3123 43.8958 39.2658C42.5517 38.6778 41.0822 38.434 39.6202 38.5562C38.1582 38.6785 36.7497 39.163 35.5219 39.9661C34.2941 40.7691 33.2857 41.8654 32.5877 43.1559C31.8898 44.4463 31.5243 45.8903 31.5243 47.3574C31.5243 48.8246 31.8898 50.2686 32.5877 51.559C33.2857 52.8495 34.2941 53.9458 35.5219 54.7488C36.7497 55.5519 38.1582 56.0364 39.6202 56.1587C41.0822 56.2809 42.5517 56.037 43.8958 55.4491C44.0017 55.4024 44.0967 55.3342 44.1746 55.2488C44.2526 55.1633 44.3119 55.0625 44.3487 54.9528C44.3855 54.8431 44.3989 54.727 44.3882 54.6118C44.3776 54.4966 44.3429 54.3849 44.2866 54.2839V54.2698C44.1823 54.088 44.0147 53.951 43.8158 53.885C43.6169 53.819 43.4007 53.8286 43.2085 53.912Z" fill="#2A2A2D"/>
<path d="M62.0046 38.9692C61.8007 39.004 61.616 39.1103 61.4835 39.2691C61.351 39.4279 61.2796 39.6287 61.2819 39.8355V44.6728C61.2819 45.1229 61.1031 45.5546 60.7848 45.8729C60.4666 46.1912 60.0349 46.37 59.5847 46.37H52.8337C52.3836 46.37 51.9519 46.1912 51.6336 45.8729C51.3153 45.5546 51.1365 45.1229 51.1365 44.6728V39.8096C51.1365 39.5842 51.047 39.3681 50.8876 39.2087C50.7283 39.0494 50.5121 38.9598 50.2867 38.9598C50.0618 38.9605 49.8462 39.0503 49.6874 39.2096C49.5285 39.3689 49.4393 39.5846 49.4393 39.8096V54.9265C49.4393 55.1513 49.5286 55.3668 49.6875 55.5257C49.8465 55.6847 50.062 55.7739 50.2867 55.7739C50.5117 55.7739 50.7275 55.6847 50.8868 55.5259C51.0461 55.367 51.1359 55.1515 51.1365 54.9265V50.0562C51.1365 49.6061 51.3153 49.1744 51.6336 48.8562C51.9519 48.5379 52.3836 48.3591 52.8337 48.3591H59.58C60.0302 48.3591 60.4618 48.5379 60.7801 48.8562C61.0984 49.1744 61.2772 49.6061 61.2772 50.0562V54.9006C61.2748 55.1074 61.3463 55.3082 61.4788 55.467C61.6113 55.6258 61.796 55.7321 61.9999 55.7669C62.1207 55.7848 62.2439 55.7765 62.3612 55.7425C62.4785 55.7085 62.5871 55.6496 62.6796 55.5699C62.7721 55.4901 62.8463 55.3914 62.8972 55.2803C62.948 55.1693 62.9744 55.0486 62.9744 54.9265V39.8096C62.9743 39.6879 62.948 39.5677 62.8974 39.4571C62.8468 39.3464 62.7731 39.248 62.6811 39.1683C62.5892 39.0886 62.4812 39.0296 62.3645 38.9953C62.2478 38.9609 62.125 38.9521 62.0046 38.9692Z" fill="#2A2A2D"/>
<path d="M12.7369 38.9599H0.875455C0.668211 38.9571 0.46684 39.0287 0.3079 39.1617C0.148959 39.2948 0.0429828 39.4804 0.00920843 39.6849C-0.00869214 39.8055 -0.000430228 39.9285 0.0334316 40.0456C0.0672934 40.1628 0.125964 40.2712 0.205458 40.3637C0.284951 40.4561 0.383406 40.5304 0.494138 40.5814C0.60487 40.6324 0.725287 40.659 0.847209 40.6594H4.10269C4.55281 40.6594 4.98449 40.8382 5.30278 41.1565C5.62106 41.4748 5.79987 41.9064 5.79987 42.3566V54.7947C5.79987 55.0569 5.90403 55.3084 6.08944 55.4938C6.27485 55.6792 6.52631 55.7834 6.78852 55.7834C6.91855 55.7837 7.04736 55.7583 7.16758 55.7088C7.2878 55.6592 7.39707 55.5865 7.48912 55.4946C7.58118 55.4028 7.65421 55.2937 7.70404 55.1736C7.75387 55.0535 7.77952 54.9247 7.77952 54.7947V42.366C7.77952 41.9159 7.95833 41.4842 8.27661 41.1659C8.5949 40.8476 9.02658 40.6688 9.4767 40.6688H12.7039C12.9107 40.6712 13.1116 40.5997 13.2703 40.4672C13.4291 40.3348 13.5354 40.15 13.5702 39.9462C13.5895 39.8251 13.5825 39.7013 13.5496 39.5833C13.5167 39.4652 13.4587 39.3556 13.3796 39.262C13.3005 39.1684 13.2021 39.0929 13.0912 39.0408C12.9803 38.9886 12.8594 38.961 12.7369 38.9599Z" fill="#2A2A2D"/>
<path d="M80.7276 38.9598C80.5027 38.9605 80.2871 39.0503 80.1283 39.2096C79.9694 39.3689 79.8802 39.5846 79.8802 39.8096V49.303C79.8797 49.4733 79.8279 49.6396 79.7317 49.7801C79.6354 49.9207 79.4992 50.0291 79.3406 50.0913C79.182 50.1534 79.0084 50.1665 78.8423 50.1288C78.6762 50.0911 78.5252 50.0043 78.409 49.8797L68.725 39.44C68.6865 39.3985 68.6363 39.3695 68.5811 39.3568C68.5259 39.3441 68.4681 39.3483 68.4153 39.3689C68.3625 39.3894 68.3171 39.4254 68.285 39.4721C68.2529 39.5188 68.2356 39.574 68.2354 39.6307V54.9312C68.2354 55.0427 68.2573 55.1531 68.3001 55.2561C68.3428 55.359 68.4054 55.4526 68.4844 55.5313C68.5633 55.61 68.657 55.6724 68.7601 55.7148C68.8632 55.7573 68.9736 55.779 69.0851 55.7786C69.1964 55.7786 69.3066 55.7567 69.4094 55.7141C69.5122 55.6716 69.6056 55.6091 69.6843 55.5304C69.763 55.4517 69.8254 55.3583 69.868 55.2555C69.9106 55.1527 69.9325 55.0425 69.9325 54.9312V45.379C69.9319 45.2081 69.983 45.041 70.079 44.8996C70.175 44.7583 70.3116 44.6493 70.4707 44.5869C70.6298 44.5245 70.804 44.5117 70.9705 44.5502C71.1371 44.5886 71.2881 44.6765 71.4037 44.8023L81.0878 55.2419C81.1265 55.2836 81.1768 55.3127 81.2322 55.3253C81.2877 55.3379 81.3456 55.3335 81.3985 55.3127C81.4514 55.2918 81.4968 55.2555 81.5287 55.2084C81.5606 55.1614 81.5776 55.1058 81.5774 55.0489V39.8096C81.5774 39.5842 81.4879 39.3681 81.3285 39.2087C81.1692 39.0494 80.953 38.9598 80.7276 38.9598Z" fill="#2A2A2D"/>
<path d="M94.7759 38.5361C93.0287 38.5343 91.3202 39.0507 89.8666 40.02C88.413 40.9893 87.2795 42.368 86.6096 43.9817C85.9397 45.5954 85.7634 47.3715 86.1031 49.0853C86.4428 50.7992 87.2833 52.3737 88.5181 53.6099C89.7529 54.846 91.3265 55.6881 93.04 56.0296C94.7535 56.3712 96.5298 56.1968 98.1442 55.5286C99.7585 54.8604 101.138 53.7284 102.109 52.2758C103.08 50.8232 103.598 49.1153 103.598 47.3681C103.598 45.0273 102.669 42.7823 101.015 41.1263C99.3607 39.4702 97.1167 38.5386 94.7759 38.5361ZM94.7759 54.5028C93.3647 54.5033 91.985 54.0852 90.8114 53.3015C89.6378 52.5179 88.723 51.4037 88.1826 50.1001C87.6422 48.7964 87.5006 47.3618 87.7756 45.9776C88.0507 44.5934 88.73 43.3219 89.7277 42.3239C90.7254 41.3258 91.9967 40.6461 93.3808 40.3706C94.7649 40.0951 96.1995 40.2363 97.5034 40.7762C98.8072 41.3161 99.9216 42.2306 100.706 43.404C101.49 44.5773 101.908 45.9569 101.908 47.3681C101.908 49.2599 101.157 51.0743 99.8194 52.4123C98.4819 53.7502 96.6678 54.5022 94.7759 54.5028Z" fill="#2A2A2D"/>
<path d="M94.7759 49.0653C95.7132 49.0653 96.4731 48.3054 96.4731 47.3681C96.4731 46.4308 95.7132 45.6709 94.7759 45.6709C93.8386 45.6709 93.0787 46.4308 93.0787 47.3681C93.0787 48.3054 93.8386 49.0653 94.7759 49.0653Z" fill="#2A2A2D"/>
<path d="M110.072 54.0886V39.965C110.072 39.7022 109.967 39.4501 109.781 39.2643C109.596 39.0784 109.344 38.974 109.081 38.974C108.818 38.9746 108.567 39.0793 108.381 39.2651C108.196 39.4509 108.092 39.7026 108.092 39.965V54.9407C108.092 55.1654 108.181 55.381 108.34 55.5399C108.499 55.6988 108.715 55.7881 108.939 55.7881H117.722C117.947 55.7881 118.162 55.6988 118.321 55.5399C118.48 55.381 118.569 55.1654 118.569 54.9407C118.57 54.8291 118.548 54.7185 118.506 54.6153C118.463 54.5121 118.401 54.4182 118.322 54.3391C118.243 54.26 118.15 54.1971 118.047 54.1541C117.944 54.1112 117.834 54.0889 117.722 54.0886H110.072Z" fill="#2A2A2D"/>
<path d="M136.2 55.4209C136.405 55.3262 136.563 55.1544 136.641 54.9431C136.719 54.7318 136.711 54.4982 136.617 54.2933L130.007 39.9344C129.973 39.8609 129.918 39.7988 129.85 39.7553C129.781 39.7117 129.702 39.6886 129.621 39.6886C129.54 39.6886 129.461 39.7117 129.392 39.7553C129.324 39.7988 129.269 39.8609 129.235 39.9344L122.625 54.2933C122.531 54.4982 122.523 54.7318 122.601 54.9431C122.679 55.1544 122.837 55.3262 123.042 55.4209C123.143 55.4675 123.252 55.4938 123.364 55.4981C123.475 55.5024 123.586 55.4847 123.691 55.446C123.795 55.4073 123.891 55.3483 123.973 55.2725C124.055 55.1967 124.121 55.1056 124.167 55.0042L125.052 53.0811H134.199L135.082 55.0042C135.177 55.2062 135.347 55.363 135.556 55.4409C135.765 55.5188 135.996 55.5116 136.2 55.4209ZM125.961 51.1014L128.847 44.8282C128.914 44.6804 129.023 44.5551 129.159 44.4672C129.296 44.3794 129.455 44.3326 129.617 44.3326C129.78 44.3326 129.939 44.3794 130.076 44.4672C130.212 44.5551 130.321 44.6804 130.388 44.8282L133.274 51.1014H125.961Z" fill="#2A2A2D"/>
<path d="M151.823 46.8267C151.647 46.6986 151.528 46.5074 151.49 46.2931C151.453 46.0789 151.499 45.8584 151.621 45.6779C152.098 44.9683 152.353 44.1323 152.353 43.2769C152.353 42.1324 151.898 41.0347 151.089 40.2251C150.28 39.4156 149.183 38.9605 148.038 38.9598H142.509C142.284 38.9605 142.068 39.0503 141.909 39.2096C141.751 39.3689 141.661 39.5846 141.661 39.8096V54.9265C141.661 55.1513 141.751 55.3668 141.91 55.5257C142.068 55.6847 142.284 55.7739 142.509 55.7739H148.921C150.232 55.7739 151.489 55.2531 152.416 54.3261C153.343 53.3991 153.864 52.1417 153.864 50.8307C153.865 50.0495 153.68 49.2793 153.325 48.5833C152.97 47.8873 152.456 47.2853 151.823 46.8267ZM148.862 54.0885H145.331C145.108 54.0885 144.887 54.0445 144.681 53.9591C144.475 53.8737 144.288 53.7484 144.13 53.5906C143.973 53.4328 143.848 53.2454 143.762 53.0392C143.677 52.833 143.634 52.6121 143.634 52.389V42.3542C143.634 41.9041 143.813 41.4724 144.131 41.1541C144.449 40.8358 144.881 40.657 145.331 40.657H147.979C148.634 40.6523 149.268 40.8901 149.758 41.3247C150.249 41.7593 150.561 42.36 150.635 43.0109C150.67 43.3582 150.636 43.7091 150.534 44.043C150.432 44.3768 150.265 44.687 150.041 44.9552C149.818 45.2234 149.543 45.4442 149.233 45.6047C148.923 45.7652 148.584 45.8621 148.236 45.8898H146.181C146.069 45.8895 145.959 45.9112 145.856 45.9536C145.753 45.9961 145.659 46.0584 145.58 46.1372C145.501 46.2159 145.439 46.3094 145.396 46.4124C145.353 46.5153 145.331 46.6257 145.331 46.7372C145.331 46.9626 145.421 47.1787 145.58 47.3381C145.739 47.4974 145.956 47.587 146.181 47.587H148.914C149.358 47.5874 149.797 47.6787 150.205 47.8555C150.612 48.0322 150.979 48.2906 151.283 48.6146C151.586 48.9386 151.821 49.3214 151.971 49.7394C152.121 50.1574 152.183 50.6017 152.155 51.0449C152.056 52.7138 150.538 54.0885 148.862 54.0885Z" fill="#2A2A2D"/>
<path d="M117.089 0.974548H123.444V22.8331C123.444 24.249 122.882 25.6069 121.881 26.6081C120.88 27.6093 119.522 28.1718 118.106 28.1718H117.077V0.974548H117.089Z" fill="#1E0B4B"/>
<path d="M139.049 1.83135C138.453 1.23553 137.644 0.900818 136.802 0.900818C135.959 0.900818 135.151 1.23553 134.555 1.83135L121.823 14.5637L134.555 27.2961C135.151 27.8919 135.959 28.2267 136.802 28.2267C137.644 28.2267 138.453 27.8919 139.049 27.2961C139.644 26.7002 139.979 25.892 139.979 25.0493C139.979 24.2066 139.644 23.3984 139.049 22.8025L130.81 14.5637L139.049 6.325C139.644 5.72906 139.979 4.92087 139.979 4.07817C139.979 3.23548 139.644 2.42729 139.049 1.83135Z" fill="#1E0B4B"/>
<path d="M83.2605 0.976868V25.9073C83.2599 26.5075 83.0211 27.0828 82.5965 27.507C82.1719 27.9312 81.5962 28.1694 80.9961 28.1694H79.6355C79.3066 28.1696 78.9817 28.0981 78.6833 27.9599C78.3849 27.8217 78.1202 27.6201 77.9077 27.3691L76.8955 26.1733L65.4649 12.6829V25.9073C65.4649 26.5073 65.2265 27.0826 64.8023 27.5069C64.3781 27.9311 63.8027 28.1694 63.2027 28.1694H59.1093V0.976868H62.8473C63.1756 0.976716 63.4999 1.04802 63.7979 1.18581C64.0959 1.32361 64.3602 1.52461 64.5727 1.77485L65.4743 2.83882L76.9073 16.3268V3.2437C76.9073 2.64375 77.1456 2.06837 77.5699 1.64414C77.9941 1.21991 78.5695 0.981577 79.1694 0.981577L83.2605 0.976868Z" fill="#1E0B4B"/>
<path d="M170.481 28.1694H173.086C173.282 28.1694 173.473 28.1189 173.643 28.0228C173.813 27.9267 173.955 27.7884 174.056 27.6211C174.157 27.4539 174.213 27.2635 174.218 27.0684C174.223 26.8733 174.178 26.6801 174.087 26.5076L163.023 5.71298L160.971 1.83135C160.822 1.5506 160.599 1.31573 160.326 1.15193C160.054 0.988131 159.742 0.901578 159.424 0.90155C159.106 0.901578 158.794 0.988131 158.522 1.15193C158.25 1.31573 158.027 1.5506 157.878 1.83135L155.82 5.70121L145.204 25.6672C145.067 25.9259 144.999 26.2156 145.007 26.5083C145.015 26.801 145.098 27.0867 145.249 27.3377C145.4 27.5886 145.613 27.7962 145.868 27.9403C146.123 28.0844 146.411 28.1601 146.704 28.16H148.368C149.19 28.161 149.997 27.938 150.702 27.5149C151.407 27.0919 151.983 26.4849 152.37 25.759L153.737 23.1956H165.121L166.488 25.7684C166.874 26.4929 167.449 27.099 168.152 27.5219C168.855 27.9449 169.66 28.1687 170.481 28.1694ZM156.14 18.669L158.426 14.3707C158.523 14.1895 158.667 14.038 158.843 13.9324C159.019 13.8267 159.22 13.7709 159.425 13.7709C159.631 13.7709 159.832 13.8267 160.008 13.9324C160.184 14.038 160.328 14.1895 160.425 14.3707L162.71 18.669H156.14Z" fill="#1E0B4B"/>
<path d="M110.091 20.1049C110.091 20.2296 110.091 20.3521 110.091 20.4745C109.995 22.5472 109.104 24.5034 107.604 25.9364C106.103 27.3695 104.108 28.1692 102.033 28.1694C97.7959 28.1694 93.5212 26.7571 93.5212 26.7571C92.8958 26.5211 92.3278 26.1546 91.855 25.6821C91.3822 25.2095 91.0155 24.6417 90.7792 24.0164C90.543 23.3911 90.4426 22.7226 90.4847 22.0555C90.5269 21.3884 90.7106 20.7379 91.0237 20.1473C91.058 20.0814 91.1154 20.0304 91.1848 20.004C91.2542 19.9775 91.3308 19.9774 91.4003 20.0037C91.4003 20.0037 98.1726 22.593 102.033 22.593C102.539 22.5908 103.033 22.4353 103.449 22.1471C103.865 21.8588 104.184 21.4513 104.363 20.9782C104.478 20.6713 104.531 20.3448 104.519 20.0174C104.507 19.69 104.431 19.3682 104.294 19.0704C104.157 18.7727 103.963 18.5049 103.722 18.2825C103.482 18.0601 103.2 17.8875 102.892 17.7745L97.1486 15.6136C95.3804 14.9491 93.9016 13.685 92.9701 12.0417C92.0385 10.3985 91.7133 8.48038 92.0512 6.62192C92.3891 4.76346 93.3687 3.08258 94.819 1.87241C96.2694 0.662246 98.0985 -0.000413569 99.9874 1.93647e-07C103.448 0.013174 106.859 0.825184 109.954 2.37276C109.995 2.38807 110.032 2.41191 110.063 2.44271C110.094 2.4735 110.117 2.51053 110.133 2.55132C110.148 2.5921 110.155 2.6357 110.152 2.6792C110.149 2.7227 110.137 2.76509 110.116 2.80353L108.673 5.51525C108.083 6.6263 106.849 6.91583 105.583 6.69221C105.583 6.69221 102.127 5.58351 100.009 5.58351C100.009 5.58351 98.5045 5.34812 97.6759 7.19831C97.5478 7.50136 97.4871 7.82864 97.4981 8.15746C97.5091 8.48629 97.5914 8.8088 97.7394 9.10263C97.8735 9.40122 98.0655 9.67024 98.3043 9.89409C98.5431 10.1179 98.824 10.2922 99.1306 10.4067L104.874 12.5653C106.406 13.1442 107.725 14.1756 108.657 15.5223C109.589 16.869 110.089 18.4673 110.091 20.1049Z" fill="#1E0B4B"/>
<path d="M194.086 15.969C195.801 15.3599 197.246 14.164 198.165 12.5927C199.085 11.0213 199.419 9.17566 199.109 7.38176C198.799 5.58787 197.865 3.96121 196.472 2.78921C195.079 1.61721 193.317 0.975287 191.496 0.976871H178.974V28.1694H183.074C183.371 28.1697 183.666 28.1115 183.94 27.9979C184.215 27.8844 184.465 27.7178 184.675 27.5077C184.885 27.2976 185.052 27.0481 185.166 26.7735C185.28 26.4989 185.339 26.2046 185.339 25.9073V14.7591L186.537 16.4069L194.326 27.1266C194.576 27.4708 194.893 27.7613 195.257 27.981C195.621 28.2007 196.026 28.3451 196.447 28.4057C196.868 28.4663 197.297 28.4418 197.709 28.3337C198.12 28.2256 198.506 28.0361 198.843 27.7763C199.5 27.2712 199.933 26.5296 200.051 25.7095C200.169 24.8895 199.962 24.0559 199.474 23.3863L194.086 15.969ZM185.339 14.1471V5.50112H189.472C190.601 5.52747 191.675 5.99449 192.464 6.80234C193.253 7.61018 193.695 8.69474 193.695 9.82411C193.695 10.9535 193.253 12.038 192.464 12.8459C191.675 13.6537 190.601 14.1207 189.472 14.1471H185.339Z" fill="#1E0B4B"/>
<path d="M50.3031 28.1694H52.9089C53.1042 28.1697 53.2961 28.1193 53.4661 28.0232C53.6361 27.9271 53.7783 27.7887 53.8788 27.6213C53.9793 27.4539 54.0348 27.2633 54.0397 27.0681C54.0446 26.8729 53.9989 26.6798 53.907 26.5076L42.8435 5.71298L40.7909 1.83135C40.6422 1.55079 40.4199 1.31601 40.1478 1.1522C39.8758 0.988396 39.5643 0.901749 39.2467 0.90155C38.9288 0.901578 38.6169 0.988131 38.3445 1.15193C38.072 1.31573 37.8493 1.5506 37.7002 1.83135L35.6429 5.70121L25.0267 25.6672C24.8894 25.9259 24.8214 26.2156 24.8292 26.5083C24.8371 26.801 24.9205 27.0867 25.0714 27.3377C25.2224 27.5886 25.4357 27.7962 25.6906 27.9403C25.9455 28.0844 26.2333 28.1601 26.5261 28.16H28.1903C29.0125 28.161 29.8194 27.938 30.5244 27.5149C31.2294 27.0919 31.8059 26.4849 32.192 25.759L33.5596 23.1862H44.9385L46.3062 25.759C46.6906 26.486 47.2658 27.0944 47.97 27.5191C48.6742 27.9438 49.4808 28.1686 50.3031 28.1694ZM35.963 18.669L38.2487 14.3707C38.3452 14.1895 38.4892 14.038 38.6652 13.9324C38.8412 13.8267 39.0426 13.7709 39.2479 13.7709C39.4532 13.7709 39.6546 13.8267 39.8306 13.9324C40.0066 14.038 40.1506 14.1895 40.2471 14.3707L42.5305 18.669H35.963Z" fill="#1E0B4B"/>
<path d="M20.1917 20.1049C20.1917 20.2296 20.1917 20.3521 20.1917 20.4745C20.0938 22.5468 19.2021 24.502 17.7015 25.9346C16.2009 27.3673 14.2065 28.1675 12.1319 28.1694C7.89482 28.1694 3.62009 26.7571 3.62009 26.7571C2.99467 26.5211 2.42667 26.1546 1.95389 25.6821C1.48111 25.2095 1.11438 24.6417 0.878109 24.0164C0.641837 23.3911 0.541437 22.7226 0.583588 22.0555C0.625739 21.3884 0.809475 20.7379 1.12257 20.1473C1.15774 20.0816 1.21549 20.0309 1.28516 20.0045C1.35483 19.9781 1.4317 19.9778 1.50155 20.0037C1.50155 20.0037 8.27144 22.593 12.1319 22.593C12.5468 22.5903 12.9545 22.4839 13.3178 22.2836C13.6812 22.0833 13.9888 21.7953 14.2126 21.4459C14.4364 21.0965 14.5693 20.6967 14.5994 20.2829C14.6294 19.8691 14.5556 19.4543 14.3846 19.0762C14.25 18.7782 14.0578 18.5098 13.8191 18.2864C13.5803 18.063 13.2997 17.889 12.9934 17.7745L7.24984 15.6136C5.48147 14.949 4.00253 13.6847 3.07099 12.0412C2.13945 10.3977 1.81444 8.47937 2.15265 6.62076C2.49086 4.76216 3.47082 3.08126 4.9216 1.87128C6.37238 0.661303 8.2019 -0.000964698 10.091 1.05474e-06C13.5451 0.0165756 16.949 0.828481 20.0387 2.37276C20.0793 2.38838 20.1161 2.4124 20.1467 2.44325C20.1774 2.47409 20.2011 2.51107 20.2165 2.55174C20.2318 2.59242 20.2384 2.63588 20.2357 2.67927C20.2331 2.72267 20.2213 2.76501 20.2011 2.80353L18.7558 5.51525C18.165 6.6263 16.9315 6.91584 15.6651 6.69221C15.6651 6.69221 12.2096 5.58352 10.091 5.58352C10.091 5.58352 8.58687 5.34812 7.75829 7.19831C7.6302 7.50136 7.56953 7.82864 7.58051 8.15747C7.59148 8.48629 7.67383 8.8088 7.82184 9.10264C7.95593 9.40122 8.14794 9.67024 8.38674 9.89409C8.62554 10.1179 8.90639 10.2922 9.21302 10.4067L14.9566 12.5653C16.4919 13.1412 17.8154 14.1712 18.7506 15.5182C19.6859 16.8651 20.1886 18.4651 20.1917 20.1049Z" fill="#1E0B4B"/>
</svg>
