<svg width="74" height="72" viewBox="0 0 74 72" fill="none" xmlns="http://www.w3.org/2000/svg">
<path d="M72.8723 42.8012L64.4202 21.9189C64.161 21.2765 63.6765 20.7807 63.0341 20.5102C62.3917 20.251 61.6818 20.2623 61.0507 20.544L54.4693 23.4741C53.3537 23.9474 52.7564 25.1645 52.993 26.3252L51.2463 27.3057C50.6603 27.6438 49.9503 27.7677 49.2629 27.6776L37.1257 25.8857C36.0763 25.7368 35.0068 25.8277 33.9976 26.1518C32.9884 26.4758 32.0659 27.0244 31.2994 27.7565L30.4091 28.6129H23.67C23.3657 28.6129 23.0614 28.5002 22.836 28.2974L22.2388 27.7903C22.6557 26.7648 22.374 25.5702 21.4724 24.8602L16.3787 20.837C15.8377 20.4088 15.1616 20.2172 14.4741 20.3186C13.798 20.4088 13.1781 20.7807 12.7724 21.3216L0.500034 37.9553C-0.311365 39.0485 -0.119784 40.5811 0.962081 41.4489L6.04459 45.4608C6.31214 45.6725 6.61992 45.8276 6.94926 45.9167C7.27859 46.0059 7.6226 46.0271 7.9604 45.9792C8.29654 45.9347 8.61999 45.8217 8.91074 45.6473C9.2015 45.4728 9.45338 45.2406 9.65081 44.9649L9.69589 44.9086L10.4284 45.4608C10.8566 45.7651 11.1046 46.2835 11.1046 46.8244V49.8559L9.2113 52.2901C7.52089 54.4876 7.90405 57.6543 10.0903 59.3448C10.9806 60.0435 12.0625 60.4154 13.1781 60.4154C13.381 60.4154 13.5951 60.4041 13.798 60.3815C14.0233 60.3477 14.2375 60.2914 14.4516 60.235C14.4516 60.3027 14.4403 60.359 14.4403 60.4266C14.4403 61.8691 15.0939 63.2215 16.2209 64.1455C17.0999 64.8443 18.1592 65.1936 19.2073 65.1936C19.8609 65.1936 20.5145 65.0471 21.1231 64.7879V64.8443C21.2809 66.0275 21.9007 67.0756 22.8022 67.7405L23.0051 67.8983C23.9427 68.5941 25.1179 68.89 26.2732 68.7209C26.7578 68.6533 27.1973 68.4843 27.6255 68.2702C27.8622 69.476 28.5496 70.5128 29.5752 71.1664L29.7217 71.2678C30.2126 71.593 30.7638 71.8163 31.3425 71.9247C31.9213 72.0331 32.5159 72.0243 33.0912 71.8989C34.2745 71.651 35.2775 70.9523 35.9424 69.938L36.134 69.645C36.9341 70.2536 37.892 70.5691 38.9175 70.5691C40.1233 70.5691 41.3066 70.0733 42.1631 69.2281C42.6568 68.7343 43.032 68.1349 43.2604 67.4751C43.4887 66.8153 43.5644 66.1123 43.4816 65.419C44.1697 65.5192 44.8718 65.4532 45.5291 65.2264C46.1865 64.9996 46.78 64.6188 47.2599 64.1156C47.7399 63.6125 48.0924 63.0017 48.2879 62.3344C48.4835 61.6671 48.5163 60.9627 48.3838 60.2801C49.8827 60.3703 51.359 59.773 52.3732 58.5672C52.8358 58.0208 53.1709 57.3783 53.3541 56.6863C53.5373 55.9943 53.5641 55.2702 53.4325 54.5665C54.7961 54.713 56.1823 54.2397 57.1965 53.248C58.3122 52.1323 58.7292 50.5546 58.4249 49.067C58.4812 49.0557 58.5376 49.067 58.5939 49.0557L62.2227 48.5486C62.6847 48.9656 63.3046 49.2022 63.9244 49.2022C64.2737 49.2022 64.6231 49.1346 64.9499 48.9769L71.5538 46.0581C72.7934 45.5171 73.3794 44.0746 72.8723 42.8012ZM7.68993 44.0634C7.6103 44.0752 7.52908 44.0703 7.45145 44.049C7.37383 44.0276 7.30152 43.9903 7.23915 43.9394L2.17918 39.9388C2.05832 39.8424 1.9792 39.7031 1.95822 39.55C1.93723 39.3968 1.976 39.2414 2.06648 39.1161L14.3276 22.4486C14.4516 22.2795 14.6206 22.2344 14.7221 22.2232H14.8009C14.9024 22.2232 15.0376 22.2457 15.1616 22.3471L20.2666 26.3703C20.5145 26.5619 20.5596 26.9225 20.3793 27.1592L20.2215 27.3733L20.1877 27.4071L13.1331 36.9636L13.1105 36.9862L11.7695 38.8118L8.69291 42.9815C8.68164 42.9928 8.68164 43.004 8.68164 43.004L8.07309 43.838C7.9604 43.9958 7.80262 44.0521 7.68993 44.0634ZM13.5726 58.4545C13.1703 58.5044 12.762 58.4744 12.3714 58.3661C11.9807 58.2578 11.6153 58.0734 11.2961 57.8234C9.96635 56.7866 9.71843 54.837 10.7665 53.4846L14.3952 48.8078C15.0038 48.019 15.9166 47.6133 16.8407 47.6133C17.4943 47.6133 18.1592 47.8274 18.7227 48.2556C19.4778 48.8529 19.9173 49.7432 19.9173 50.7011C19.9173 51.3885 19.6919 52.0422 19.2636 52.6056L15.6349 57.2824C15.1165 57.9361 14.384 58.353 13.5726 58.4545ZM17.4493 62.6354C16.7731 62.0832 16.3899 61.2831 16.3899 60.4266C16.3899 59.8068 16.604 59.1983 17.021 58.6686L20.6385 54.003C21.1005 53.3945 21.7767 53.0226 22.5318 52.9324C22.6445 52.9099 22.7572 52.9099 22.8586 52.9099C23.5009 52.9099 24.132 53.1353 24.718 53.6086C25.9351 54.589 26.1267 56.3809 25.1463 57.598L21.4386 62.2185C20.9594 62.7946 20.2741 63.1607 19.5288 63.2385C18.7835 63.3164 18.0372 63.1 17.4493 62.6354ZM25.9802 66.7939C25.3266 66.884 24.6842 66.7262 24.2222 66.3882L24.0306 66.2304C23.7656 66.0366 23.5429 65.7907 23.3762 65.5077C23.2096 65.2248 23.1025 64.9108 23.0614 64.5851C23.0176 64.2544 23.0408 63.9183 23.1299 63.5968C23.219 63.2754 23.372 62.9752 23.5798 62.7143L26.3296 59.3109C26.5598 59.0247 26.8516 58.7939 27.1833 58.6359C27.515 58.4779 27.878 58.3966 28.2454 58.3981C28.7525 58.3981 29.2709 58.5559 29.6991 58.8827C30.3189 59.3448 30.6796 60.066 30.6796 60.8436C30.6796 61.3507 30.5331 61.824 30.2513 62.2297C30.2288 62.2523 30.2175 62.2861 30.195 62.3199C30.1837 62.3312 30.1837 62.3424 30.1724 62.3424L30.1274 62.41L27.5692 65.836C27.2086 66.3656 26.6338 66.7037 25.9802 66.7939ZM35.593 66.8728L34.2971 68.89C33.9252 69.4647 33.3504 69.8592 32.6743 70.0057C32.0094 70.1409 31.3332 70.0169 30.781 69.6563L30.6345 69.5549C30.0372 69.1717 29.6428 68.5744 29.5188 67.887C29.3948 67.1996 29.5414 66.5121 29.9583 65.9374C30.6345 65.0471 31.4008 64.0554 31.7051 63.6835C31.7614 63.6272 31.8178 63.5595 31.8741 63.5145C31.8854 63.5145 31.8854 63.5032 31.8854 63.5032C31.8967 63.4919 31.9192 63.4806 31.9305 63.4694C31.9868 63.4243 32.0319 63.3792 32.1221 63.3229C32.9673 62.8158 34.0266 62.8158 34.8493 63.3454C35.5705 63.8075 36.01 64.6189 36.01 65.4979C35.9987 65.9937 35.8635 66.4671 35.593 66.8728ZM55.8217 51.8731C54.8976 52.7859 53.3987 52.8986 52.3619 52.1436L45.882 47.3541L43.3577 45.4833C43.149 45.332 42.8894 45.2685 42.6345 45.3064C42.3795 45.3443 42.1496 45.4807 41.9941 45.6862C41.6785 46.1144 41.7687 46.723 42.1969 47.0498L46.6145 50.3179L50.356 53.0902C51.0096 53.5748 51.4266 54.2848 51.528 55.0962C51.6294 55.9076 51.3928 56.6964 50.8631 57.3275C50.39 57.8822 49.727 58.2404 49.0038 58.3321C48.2806 58.4238 47.5492 58.2424 46.9526 57.8234L39.188 52.2675C39.0848 52.1923 38.9677 52.1385 38.8435 52.1091C38.7193 52.0796 38.5904 52.0753 38.4645 52.0963C38.3386 52.1173 38.2181 52.1632 38.1101 52.2313C38.0022 52.2994 37.9088 52.3883 37.8357 52.4929C37.5201 52.9324 37.6215 53.541 38.061 53.8453L45.4876 59.1532C46.0623 59.5701 46.423 60.2125 46.4906 60.9112C46.5469 61.6212 46.299 62.3086 45.7919 62.8158C44.9467 63.6722 43.5831 63.7511 42.6252 63.0299L35.3 57.3275C35.1995 57.2488 35.0844 57.1907 34.9614 57.1565C34.8384 57.1224 34.7098 57.1129 34.5831 57.1286C34.4564 57.1443 34.334 57.1849 34.223 57.2481C34.1121 57.3112 34.0147 57.3957 33.9364 57.4966C33.6096 57.9135 33.6772 58.5334 34.0942 58.8602L40.4952 63.8638C41.1038 64.3371 41.4869 65.0471 41.532 65.8134C41.5884 66.591 41.3066 67.3235 40.7544 67.8757C39.8529 68.7773 38.3315 68.8787 37.3173 68.1462C37.3173 68.1462 37.2609 68.0786 37.182 67.9997L37.2046 67.9659C37.6779 67.2446 37.9258 66.3994 37.9258 65.5092C37.9258 63.9652 37.1595 62.5566 35.8748 61.7226C34.8943 61.0915 33.7223 60.8999 32.6066 61.1028C32.6066 61.0239 32.6179 60.945 32.6179 60.8661C32.6179 59.4575 31.9755 58.1727 30.8599 57.3388C29.8907 56.6175 28.73 56.3471 27.6255 56.5049C27.8509 54.882 27.2537 53.1804 25.845 52.0422C25.3518 51.6385 24.7821 51.3386 24.1702 51.1604C23.5583 50.9823 22.9167 50.9295 22.2838 51.0054C22.1148 51.0279 21.957 51.073 21.7993 51.1068C21.8105 50.9716 21.8331 50.8476 21.8331 50.7124C21.8331 49.1459 21.1344 47.7034 19.8947 46.7342C18.0353 45.2917 15.4771 45.3706 13.6965 46.768C13.6965 46.7568 13.6965 46.7568 13.7078 46.7455C13.6853 46.768 13.6627 46.7906 13.6402 46.8019C13.5275 46.892 13.4148 47.0047 13.3134 47.1061C13.2232 47.1963 13.1218 47.2752 13.0316 47.3766V46.8357C13.0316 45.6636 12.4794 44.5705 11.5666 43.9056L10.8228 43.3534L12.2428 41.4263L14.0346 38.9921L14.5981 38.2371C14.6319 38.2033 14.6544 38.1694 14.6882 38.1356L21.1231 29.4018L21.5401 29.7512C22.1148 30.2583 22.8698 30.54 23.6474 30.54H28.3581L25.6534 33.132C25.0223 33.7405 24.673 34.5632 24.673 35.4422C24.673 36.7044 25.3717 37.8201 26.5099 38.3498C27.884 39.0044 29.3918 39.33 30.9136 39.3006C32.4355 39.2713 33.9296 38.8879 35.2775 38.1807L36.4495 37.5722C37.5539 36.9862 38.9062 37.1214 39.8867 37.9102L51.3252 47.0723C51.9901 47.5907 52.6888 48.019 53.41 48.3345C53.6467 48.4359 53.9059 48.5373 54.1312 48.6162C54.3341 48.6951 54.5482 48.7627 54.7285 48.8078C54.9765 48.8867 55.2244 48.943 55.4385 48.9769C55.7315 49.0332 56.0132 49.0783 56.2499 49.0896C56.3626 49.1008 56.464 49.1008 56.5767 49.1121L56.4527 49.1459C56.7683 50.0813 56.5429 51.1519 55.8217 51.8731ZM58.3235 47.1399C57.9516 47.185 57.5459 47.2076 57.0838 47.1963C56.8923 47.1963 56.7119 47.185 56.4527 47.1512C56.2274 47.1399 56.0245 47.0949 55.7766 47.0498C55.6003 47.0249 55.4267 46.9834 55.2582 46.9258C55.1004 46.892 54.9539 46.8357 54.8074 46.7793C54.6046 46.7117 54.3904 46.6215 54.1989 46.5427C53.6354 46.2947 53.0719 45.9566 52.5423 45.5397L41.6898 36.8397L41.1038 36.3776C40.1797 35.6338 39.0527 35.2507 37.9145 35.2507C37.1031 35.2507 36.2917 35.4422 35.5592 35.8367L34.3872 36.4452C33.3085 37.0136 32.1119 37.3219 30.8928 37.3454C29.6738 37.3688 28.4661 37.1069 27.3664 36.5805C26.8367 36.3325 26.6451 35.8254 26.6451 35.431C26.6451 35.1943 26.7127 34.8337 27.0283 34.5294L32.6517 29.1426C33.7561 28.0833 35.3226 27.5762 36.8439 27.8015L48.9924 29.5934C50.1081 29.7512 51.2575 29.537 52.2042 28.9961L53.6917 28.1622L56.0809 34.0674L61.2197 46.7342L58.3235 47.1399ZM70.7649 44.3L64.1498 47.2188C63.8906 47.3315 63.575 47.2414 63.3834 46.9145L56.3513 29.5483L55.4385 27.317L54.9201 26.0322C54.7961 25.7392 54.9314 25.4011 55.2356 25.2659L61.8395 22.3359C61.986 22.2682 62.1551 22.2682 62.3016 22.3246C62.4481 22.3809 62.5608 22.4936 62.6171 22.6514L71.0692 43.545C71.1819 43.8267 71.0467 44.1648 70.7649 44.3Z" fill="#4D5F66"/>
<path d="M36.5264 23.1813C42.9162 23.1813 48.1114 17.9861 48.1114 11.5963C48.1114 5.20649 42.9162 0 36.5264 0C30.1367 0 24.9302 5.19522 24.9302 11.5963C24.9414 17.9861 30.1367 23.1813 36.5264 23.1813ZM36.5264 1.94962C41.8456 1.94962 46.1618 6.27709 46.1618 11.5963C46.1618 16.9155 41.8343 21.2317 36.5264 21.2317C31.2072 21.2317 26.8798 16.9042 26.8798 11.5963C26.8798 6.27709 31.2072 1.94962 36.5264 1.94962Z" fill="#4D5F66"/>
<path d="M34.1593 15.1238C34.3396 15.3041 34.5876 15.4055 34.8468 15.4055C35.106 15.4055 35.3539 15.3041 35.5342 15.1238L41.2027 9.45521C41.5859 9.07205 41.5859 8.4635 41.2027 8.08034C40.8196 7.69718 40.211 7.69718 39.8279 8.08034L34.8468 13.0614L33.2352 11.4499C32.8521 11.0667 32.2435 11.0667 31.8604 11.4499C31.4772 11.8331 31.4772 12.4416 31.8604 12.8248L34.1593 15.1238Z" fill="#4D5F66"/>
</svg>
