<svg width="32" height="32" viewBox="0 0 32 32" fill="none" xmlns="http://www.w3.org/2000/svg">
<path d="M31.501 19.76L20.0955 31.1655C20.0014 31.2596 19.8503 31.2635 19.7514 31.1746L13.3438 25.4077C13.2911 25.3603 13.2611 25.2928 13.2611 25.2219L13.2611 0.916586C13.2611 0.778515 13.373 0.666586 13.5111 0.666586L26.3444 0.666587C26.4825 0.666587 26.5944 0.778516 26.5944 0.916587L26.5944 19.0833C26.5944 19.2213 26.7063 19.3333 26.8444 19.3333L31.3242 19.3333C31.5469 19.3333 31.6584 19.6025 31.501 19.76Z" fill="#007BFF"/>
<circle cx="10.7949" cy="16.3333" r="10" transform="rotate(-180 10.7949 16.3333)" fill="white"/>
<path d="M31.8316 19.4682C31.7372 19.2388 31.5766 19.0428 31.3703 18.905C31.1641 18.7671 30.9215 18.6938 30.6734 18.6943L26.848 18.6949L26.848 1.50435C26.848 0.674892 26.1731 3.31162e-06 25.3436 3.2391e-06L14.4064 3.75587e-07C13.577 3.03073e-07 12.9021 0.674889 12.9021 1.50435L12.9021 5.75665C12.122 5.57548 11.3237 5.4842 10.5229 5.48461C4.73363 5.48461 0.0237598 10.1945 0.0237574 15.9837C0.0237569 21.773 4.73363 26.4828 10.5229 26.4828C11.5308 26.4828 12.5058 26.3397 13.4292 26.0734L18.9886 31.6328C19.1047 31.7496 19.2429 31.8422 19.3951 31.9052C19.5472 31.9682 19.7104 32.0004 19.875 32C20.2099 32 20.5247 31.8696 20.7615 31.6328L31.5599 20.8345C31.7356 20.6594 31.8553 20.436 31.9037 20.1927C31.9521 19.9494 31.927 19.6972 31.8316 19.4682ZM1.02666 15.9837C1.02666 10.7475 5.28661 6.48751 10.5229 6.48751C15.7591 6.48751 20.0191 10.7475 20.0191 15.9837C20.0191 21.2199 15.7591 25.4799 10.5229 25.4799C5.2866 25.4799 1.02666 21.2199 1.02666 15.9837ZM30.8507 20.1252L20.0523 30.9237C20.0291 30.947 20.0014 30.9655 19.971 30.9781C19.9406 30.9906 19.908 30.9971 19.875 30.997C19.8362 30.997 19.7616 30.9875 19.6977 30.9236L14.4814 25.7073C18.3142 24.1413 21.022 20.3731 21.022 15.9837C21.022 11.3773 18.0399 7.45437 13.905 6.0436L13.905 1.50435C13.905 1.22786 14.1299 1.0029 14.4064 1.0029L25.3437 1.0029C25.6201 1.0029 25.8451 1.22787 25.8451 1.50435L25.8451 18.6943C25.8451 19.2473 26.295 19.6972 26.848 19.6972L30.6735 19.6972C30.8246 19.6972 30.8858 19.8055 30.9051 19.852C30.9243 19.8986 30.9576 20.0183 30.8507 20.1252Z" fill="black"/>
<path d="M10.8706 19.1032L9.97167 19.1032C9.38622 19.1032 8.90985 18.6269 8.90985 18.0414C8.90985 17.9084 8.85701 17.7808 8.76298 17.6868C8.66894 17.5927 8.54139 17.5399 8.4084 17.5399C8.2754 17.5399 8.14786 17.5927 8.05382 17.6868C7.95978 17.7808 7.90695 17.9084 7.90695 18.0414C7.90695 19.1625 8.80523 20.077 9.9197 20.1048L9.9197 20.585C9.9197 20.718 9.97254 20.8456 10.0666 20.9396C10.1606 21.0336 10.2882 21.0865 10.4212 21.0865C10.5541 21.0865 10.6817 21.0336 10.7757 20.9396C10.8698 20.8456 10.9226 20.718 10.9226 20.585L10.9226 20.1048C12.0371 20.077 12.9353 19.1625 12.9353 18.0414L12.9353 17.5788C12.9353 16.4403 12.0091 15.5142 10.8706 15.5142L9.97167 15.5142C9.38622 15.5142 8.90985 15.0379 8.90985 14.4523L8.90985 13.9899C8.90985 13.4044 9.38622 12.9281 9.97167 12.9281L10.8706 12.9281C11.456 12.9281 11.9324 13.4044 11.9324 13.9899L11.9324 14.0331C11.9324 14.1661 11.9852 14.2937 12.0793 14.3877C12.1733 14.4818 12.3009 14.5346 12.4339 14.5346C12.5668 14.5346 12.6944 14.4818 12.7884 14.3877C12.8825 14.2937 12.9353 14.1661 12.9353 14.0331L12.9353 13.9899C12.9353 12.8688 12.037 11.9542 10.9225 11.9265L10.9225 11.4462C10.9225 11.3132 10.8697 11.1857 10.7757 11.0916C10.6816 10.9976 10.5541 10.9448 10.4211 10.9448C10.2881 10.9448 10.1606 10.9976 10.0665 11.0916C9.97247 11.1857 9.91964 11.3132 9.91964 11.4462L9.91964 11.9265C8.80517 11.9542 7.90695 12.8688 7.90695 13.9899L7.90695 14.4524C7.90695 15.5909 8.83312 16.5171 9.9716 16.5171L10.8706 16.5171C11.456 16.5171 11.9324 16.9934 11.9324 17.5789L11.9324 18.0414C11.9324 18.6269 11.4561 19.1032 10.8706 19.1032Z" fill="black"/>
<path d="M10.4214 23.8751C14.7551 23.8751 18.2808 20.3492 18.2808 16.0156C18.2808 11.6819 14.7551 8.15609 10.4214 8.15609C6.08764 8.15609 2.56188 11.6819 2.56188 16.0156C2.56188 20.3492 6.08764 23.8751 10.4214 23.8751ZM10.4214 9.15899C14.202 9.159 17.2779 12.2349 17.2779 16.0156C17.2779 19.7963 14.202 22.8722 10.4214 22.8722C6.64067 22.8722 3.56478 19.7963 3.56478 16.0156C3.56478 12.2349 6.64067 9.15899 10.4214 9.15899Z" fill="black"/>
</svg>
