<svg width="69" height="72" viewBox="0 0 69 72" fill="none" xmlns="http://www.w3.org/2000/svg">
<path fill-rule="evenodd" clip-rule="evenodd" d="M48.3513 9.24853C48.5763 9.47357 48.8815 9.6 49.1998 9.6C49.5181 9.6 49.8233 9.47357 50.0483 9.24853C50.2734 9.02348 50.3998 8.71826 50.3998 8.4V6C50.3998 2.6928 47.7094 0 44.3998 0H17.9998C14.6902 0 11.9998 2.6928 11.9998 6V8.4C11.9998 8.71826 12.1262 9.02348 12.3513 9.24853C12.5763 9.47357 12.8815 9.6 13.1998 9.6C13.5181 9.6 13.8233 9.47357 14.0483 9.24853C14.2734 9.02348 14.3998 8.71826 14.3998 8.4V6C14.3998 4.0152 16.015 2.4 17.9998 2.4H44.3998C46.3846 2.4 47.9998 4.0152 47.9998 6V8.4C47.9998 8.71826 48.1262 9.02348 48.3513 9.24853ZM20.3998 57.6H29.9998C30.3181 57.6 30.6233 57.4736 30.8483 57.2485C31.0734 57.0235 31.1998 56.7183 31.1998 56.4C31.1998 56.0817 31.0734 55.7765 30.8483 55.5515C30.6233 55.3264 30.3181 55.2 29.9998 55.2H20.3998C20.0816 55.2 19.7763 55.3264 19.5513 55.5515C19.3262 55.7765 19.1998 56.0817 19.1998 56.4C19.1998 56.7183 19.3262 57.0235 19.5513 57.2485C19.7763 57.4736 20.0816 57.6 20.3998 57.6ZM20.3998 62.4H37.1998C37.5181 62.4 37.8233 62.2736 38.0483 62.0485C38.2734 61.8235 38.3998 61.5183 38.3998 61.2C38.3998 60.8817 38.2734 60.5765 38.0483 60.3515C37.8233 60.1264 37.5181 60 37.1998 60H20.3998C20.0816 60 19.7763 60.1264 19.5513 60.3515C19.3262 60.5765 19.1998 60.8817 19.1998 61.2C19.1998 61.5183 19.3262 61.8235 19.5513 62.0485C19.7763 62.2736 20.0816 62.4 20.3998 62.4ZM20.3998 52.8H41.9998C42.3181 52.8 42.6233 52.6736 42.8483 52.4485C43.0734 52.2235 43.1998 51.9183 43.1998 51.6C43.1998 51.2817 43.0734 50.9765 42.8483 50.7515C42.6233 50.5264 42.3181 50.4 41.9998 50.4H20.3998C20.0816 50.4 19.7763 50.5264 19.5513 50.7515C19.3262 50.9765 19.1998 51.2817 19.1998 51.6C19.1998 51.9183 19.3262 52.2235 19.5513 52.4485C19.7763 52.6736 20.0816 52.8 20.3998 52.8ZM10.7998 25.2C10.7998 28.5072 13.4902 31.2 16.7998 31.2C20.1094 31.2 22.7998 28.5072 22.7998 25.2C22.7998 21.8928 20.1094 19.2 16.7998 19.2C13.4902 19.2 10.7998 21.8928 10.7998 25.2ZM13.1998 25.2C13.1998 23.2152 14.815 21.6 16.7998 21.6C18.7846 21.6 20.3998 23.2152 20.3998 25.2C20.3998 27.1848 18.7846 28.8 16.7998 28.8C14.815 28.8 13.1998 27.1848 13.1998 25.2ZM25.5627 35.3748C26.5008 36.109 27.2646 37.0301 27.811 38.0714C29.9248 35.5648 31.2 32.3288 31.2 28.8C31.2 20.8584 24.7416 14.4 16.8 14.4C8.8584 14.4 2.4 20.8584 2.4 28.8C2.4 32.3293 3.67549 35.5656 5.78982 38.0724C6.33549 37.0308 7.09878 36.1094 8.0365 35.375C9.50988 34.2211 11.3284 33.5959 13.1998 33.6H20.3998C22.271 33.5965 24.0892 34.2216 25.5627 35.3748ZM25.9846 39.8568C20.7958 44.1792 12.8038 44.1792 7.61501 39.8568C8.042 38.7214 8.80569 37.7436 9.80381 37.0544C10.8019 36.3651 11.9868 35.9972 13.1998 36H20.3998C21.6128 35.9972 22.7977 36.3651 23.7958 37.0544C24.7939 37.7436 25.5576 38.7214 25.9846 39.8568ZM27.6 7.2H34.8C35.1183 7.2 35.4235 7.07357 35.6485 6.84853C35.8736 6.62348 36 6.31826 36 6C36 5.68174 35.8736 5.37652 35.6485 5.15147C35.4235 4.92643 35.1183 4.8 34.8 4.8H27.6C27.2817 4.8 26.9765 4.92643 26.7515 5.15147C26.5264 5.37652 26.4 5.68174 26.4 6C26.4 6.31826 26.5264 6.62348 26.7515 6.84853C26.9765 7.07357 27.2817 7.2 27.6 7.2ZM44.4 72C47.7096 72 50.4 69.3072 50.4 66V61.2C50.4 61.5183 50.5264 61.8235 50.7515 62.0485C50.9765 62.2736 51.2817 62.4 51.6 62.4H53.616C53.8908 62.3993 54.157 62.3043 54.3702 62.1309C54.5834 61.9575 54.7306 61.7161 54.7872 61.4472L55.428 58.488C56.3185 58.2162 57.1796 57.856 57.9984 57.4128L60.576 59.0616C60.807 59.2092 61.0816 59.2733 61.354 59.2431C61.6265 59.213 61.8804 59.0905 62.0736 58.896L64.908 56.04C65.1012 55.8463 65.2221 55.5921 65.2505 55.32C65.2789 55.0479 65.2131 54.7742 65.064 54.5448L63.4176 51.9912C63.8617 51.172 64.2219 50.31 64.4928 49.4184L67.4568 48.7608C67.7235 48.7018 67.9621 48.5536 68.1331 48.3406C68.3042 48.1277 68.3975 47.8627 68.3976 47.5896V43.6056C68.3975 43.3325 68.3042 43.0675 68.1331 42.8546C67.9621 42.6416 67.7235 42.4934 67.4568 42.4344L64.4928 41.7768C64.2264 40.896 63.8664 40.0344 63.4176 39.2016L65.0664 36.624C65.214 36.3938 65.2785 36.12 65.2493 35.8481C65.22 35.5762 65.0988 35.3224 64.9056 35.1288L62.0712 32.2968C61.8779 32.1033 61.6243 31.9816 61.3523 31.9519C61.0804 31.9222 60.8065 31.9863 60.576 32.1336L57.9984 33.7824C57.168 33.3336 56.3064 32.9736 55.428 32.7072L54.7872 29.748C54.7296 29.48 54.582 29.2397 54.3689 29.0673C54.1559 28.8948 53.8901 28.8005 53.616 28.8H51.6C51.2817 28.8 50.9765 28.9264 50.7515 29.1515C50.5264 29.3765 50.4 29.6817 50.4 30V25.2C50.4 24.8817 50.2736 24.5765 50.0485 24.3515C49.8235 24.1264 49.5183 24 49.2 24C48.8817 24 48.5765 24.1264 48.3515 24.3515C48.1264 24.5765 48 24.8817 48 25.2V66C48 67.9848 46.3848 69.6 44.4 69.6H18C16.0152 69.6 14.4 67.9848 14.4 66V49.2C14.4 48.8817 14.2736 48.5765 14.0485 48.3515C13.8235 48.1264 13.5183 48 13.2 48C12.8817 48 12.5765 48.1264 12.3515 48.3515C12.1264 48.5765 12 48.8817 12 49.2V66C12.0019 67.5907 12.6347 69.1157 13.7595 70.2405C14.8843 71.3653 16.4093 71.9981 18 72H44.4ZM50.4 38.5055V30C50.4 30.3183 50.5264 30.6235 50.7515 30.8485C50.9765 31.0736 51.2817 31.2 51.6 31.2H52.6488L53.2368 33.924C53.284 34.1445 53.3927 34.3472 53.5503 34.5086C53.7078 34.67 53.9079 34.7835 54.1272 34.836C55.2849 35.1208 56.3916 35.5831 57.408 36.2064C57.5994 36.3239 57.82 36.385 58.0445 36.3829C58.2691 36.3808 58.4885 36.3155 58.6776 36.1944L61.056 34.6728L62.5248 36.1416L61.0032 38.52C60.881 38.7091 60.8148 38.9288 60.8123 39.1539C60.8097 39.379 60.8709 39.6002 60.9888 39.792C61.6122 40.808 62.0737 41.9149 62.3568 43.0728C62.4096 43.2915 62.5225 43.491 62.6829 43.6488C62.8432 43.8066 63.0445 43.9163 63.264 43.9656L65.9976 44.5728V46.6296L63.264 47.2368C63.0445 47.2861 62.8432 47.3958 62.6829 47.5536C62.5225 47.7114 62.4096 47.9109 62.3568 48.1296C62.0748 49.2879 61.6132 50.3949 60.9888 51.4104C60.8719 51.6031 60.8115 51.8247 60.8145 52.05C60.8174 52.2753 60.8837 52.4953 61.0056 52.6848L62.5248 55.0416L61.0536 56.5248L58.6776 55.0056C58.4883 54.8851 58.2689 54.8201 58.0445 54.8179C57.8201 54.8158 57.5996 54.8767 57.408 54.9936C56.3921 55.6177 55.2852 56.0801 54.1272 56.364C53.9079 56.4165 53.7078 56.53 53.5503 56.6914C53.3927 56.8528 53.284 57.0555 53.2368 57.276L52.6488 60H51.6C51.2817 60 50.9765 60.1264 50.7515 60.3515C50.5264 60.5765 50.4 60.8817 50.4 61.2V40.9532C50.9358 40.8156 51.493 40.7711 52.0472 40.8235C52.8352 40.8979 53.5926 41.1659 54.2521 41.6036C54.9116 42.0413 55.4528 42.6351 55.8275 43.3323C56.2022 44.0295 56.3989 44.8085 56.4 45.6C56.3975 46.5149 56.1349 47.4102 55.6428 48.1815C55.1507 48.9528 54.4494 49.5682 53.6208 49.956C53.3735 50.0715 53.173 50.2679 53.0524 50.5127C52.9317 50.7575 52.8981 51.0361 52.9571 51.3026C53.0161 51.5691 53.1642 51.8075 53.3769 51.9785C53.5896 52.1495 53.8543 52.2428 54.1272 52.2432C54.3022 52.2431 54.4751 52.2046 54.6336 52.1304C55.8763 51.5496 56.9279 50.627 57.6657 49.4706C58.4035 48.3142 58.7969 46.9717 58.8 45.6C58.7973 44.4128 58.5015 43.2446 57.9389 42.1992C57.3762 41.1538 56.5641 40.2635 55.5746 39.6074C54.5851 38.9514 53.449 38.5498 52.267 38.4384C51.642 38.3795 51.0145 38.4026 50.4 38.5055ZM16.8 45.6H16.7998C7.5383 45.5999 0 38.0639 0 28.8C0 19.536 7.5384 12 16.8 12C26.0616 12 33.6 19.536 33.6 28.8C33.6 38.064 26.0616 45.6 16.8 45.6ZM6 52.68C5.3376 52.68 4.8 52.2624 4.8 51.6V51.36C4.8 51.0417 4.92643 50.7365 5.15147 50.5115C5.37652 50.2864 5.68174 50.16 6 50.16C6.31826 50.16 6.62348 50.2864 6.84853 50.5115C7.07357 50.7365 7.2 51.0417 7.2 51.36C7.2 52.0224 6.6624 52.68 6 52.68ZM6 57.48C5.3376 57.48 4.8 57.0624 4.8 56.4V56.16C4.8 55.8417 4.92643 55.5365 5.15147 55.3115C5.37652 55.0864 5.68174 54.96 6 54.96C6.31826 54.96 6.62348 55.0864 6.84853 55.3115C7.07357 55.5365 7.2 55.8417 7.2 56.16C7.2 56.8224 6.6624 57.48 6 57.48ZM6 62.28C5.3376 62.28 4.8 61.8624 4.8 61.2V60.96C4.8 60.6417 4.92643 60.3365 5.15147 60.1115C5.37652 59.8864 5.68174 59.76 6 59.76C6.31826 59.76 6.62348 59.8864 6.84853 60.1115C7.07357 60.3365 7.2 60.6417 7.2 60.96C7.2 61.6224 6.6624 62.28 6 62.28ZM43.2 21.6H57.6C60.2472 21.6 62.4 19.4472 62.4 16.8C62.4 14.1528 60.2472 12 57.6 12H43.2C40.5528 12 38.4 14.1528 38.4 16.8C38.4 19.4472 40.5528 21.6 43.2 21.6ZM41.5711 15.1396C41.9986 14.6926 42.5821 14.4276 43.2 14.4H57.6C58.218 14.4276 58.8014 14.6926 59.2289 15.1396C59.6565 15.5867 59.895 16.1814 59.895 16.8C59.895 17.4186 59.6565 18.0133 59.2289 18.4604C58.8014 18.9074 58.218 19.1724 57.6 19.2H43.2C42.5821 19.1724 41.9986 18.9074 41.5711 18.4604C41.1436 18.0133 40.905 17.4186 40.905 16.8C40.905 16.1814 41.1436 15.5867 41.5711 15.1396Z" fill="url(#paint0_linear_1_2324)"/>
<defs>
<linearGradient id="paint0_linear_1_2324" x1="3.98986" y1="6.16865" x2="73.1301" y2="66.0964" gradientUnits="userSpaceOnUse">
<stop stop-color="#3D96F5"/>
<stop offset="1" stop-color="#31393C"/>
</linearGradient>
</defs>
</svg>
