<svg width="64" height="72" viewBox="0 0 64 72" fill="none" xmlns="http://www.w3.org/2000/svg">
<path fill-rule="evenodd" clip-rule="evenodd" d="M46.1509 57.2553L55.4023 52.8841C58.2481 51.4522 61.7168 52.5092 63.2806 55.2842C63.4288 55.5463 63.4712 55.8551 63.3993 56.1475C63.3274 56.4399 63.1466 56.6938 62.8938 56.8574L41.8288 70.4827C41.7821 70.5134 41.7332 70.5404 41.6824 70.5636C39.6174 71.5114 37.3718 72.0014 35.0997 72C34.0269 72.0007 32.9569 71.8904 31.9069 71.6708C31.8893 71.6668 31.8722 71.6629 31.8551 71.6585C31.8468 71.6564 31.8384 71.6541 31.8301 71.6516L17.3016 67.574C16.2585 67.2788 15.1414 67.401 14.1869 67.9149L11.754 69.2175L11.727 70.2007C11.7186 70.5083 11.5905 70.8005 11.3699 71.0151C11.1493 71.2297 10.8537 71.3497 10.546 71.3496H10.5136L1.14869 71.0918C0.993609 71.0876 0.84088 71.0528 0.699232 70.9895C0.557585 70.9262 0.429795 70.8356 0.323164 70.723C0.216533 70.6103 0.13315 70.4777 0.077779 70.3327C0.0224081 70.1878 -0.00386559 70.0334 0.000458927 69.8783L0.566162 49.3274C0.57035 49.1724 0.605046 49.0197 0.668269 48.8781C0.731491 48.7365 0.822 48.6087 0.934624 48.5021C1.04725 48.3954 1.17978 48.312 1.32465 48.2566C1.46951 48.2012 1.62387 48.1749 1.77891 48.1792L11.144 48.4368C11.2991 48.4411 11.4518 48.4759 11.5934 48.5391C11.735 48.6024 11.8628 48.693 11.9694 48.8057C12.076 48.9183 12.1594 49.0509 12.2147 49.1958C12.2701 49.3407 12.2964 49.4951 12.2921 49.6502L12.2379 51.6189C14.4279 50.4716 16.8628 49.8711 19.3351 49.8685C21.8074 49.8659 24.2436 50.4613 26.436 51.604L27.3049 52.0543C28.5072 52.6753 29.8338 53.0178 31.1864 53.0565L39.7269 53.2912C41.0517 53.3287 42.3432 53.7149 43.471 54.4108C44.5989 55.1068 45.5233 56.088 46.1509 57.2553ZM2.89467 50.5728L2.39421 68.7632L9.39789 68.9564L9.89834 50.7655L2.89467 50.5728ZM32.4298 69.3681C35.1875 69.9317 38.0528 69.6118 40.6184 68.454L60.534 55.5708C59.9935 55.0705 59.3129 54.7476 58.5835 54.6454C57.8541 54.5432 57.1109 54.6667 56.4537 54.9992C56.4444 55.004 56.4352 55.0085 56.4259 55.0125L46.937 59.4962C47.0274 60.0017 47.0656 60.515 47.0511 61.0283C47.0427 61.3357 46.9147 61.6277 46.6944 61.8422C46.4741 62.0568 46.1788 62.1769 45.8712 62.1771H45.8383L31.7989 61.7908C31.4858 61.7821 31.1889 61.6494 30.9736 61.4219C30.7583 61.1943 30.6421 60.8906 30.6507 60.5774C30.6692 59.9258 31.2118 59.4115 31.8641 59.4292L44.5859 59.7804C44.0991 57.4299 42.0618 55.7219 39.6628 55.6528L31.1218 55.4181C29.4133 55.3685 27.7378 54.9357 26.2191 54.1516L25.3501 53.7013C23.2899 52.6279 20.9795 52.1269 18.6598 52.2506C16.34 52.3743 14.096 53.1182 12.1617 54.4048L11.829 66.4992L13.0723 65.8331C14.5646 65.0309 16.3102 64.84 17.9406 65.3009L32.4298 69.3681ZM33.6356 1.18101V12.4006C33.6356 12.7138 33.5111 13.0142 33.2897 13.2357C33.0682 13.4572 32.7678 13.5816 32.4546 13.5816C32.1413 13.5816 31.8409 13.4572 31.6195 13.2357C31.398 13.0142 31.2735 12.7138 31.2735 12.4006V1.18101C31.2735 0.867785 31.398 0.567391 31.6195 0.345909C31.8409 0.124427 32.1413 0 32.4546 0C32.7678 0 33.0682 0.124427 33.2897 0.345909C33.5111 0.567391 33.6356 0.867785 33.6356 1.18101ZM42.4931 7.08605V12.4006C42.4931 12.7138 42.3687 13.0142 42.1472 13.2357C41.9257 13.4572 41.6253 13.5816 41.3121 13.5816C40.9989 13.5816 40.6985 13.4572 40.477 13.2357C40.2555 13.0142 40.1311 12.7138 40.1311 12.4006V7.08605C40.1311 6.77282 40.2555 6.47243 40.477 6.25095C40.6985 6.02947 40.9989 5.90504 41.3121 5.90504C41.6253 5.90504 41.9257 6.02947 42.1472 6.25095C42.3687 6.47243 42.4931 6.77282 42.4931 7.08605ZM24.778 7.08605V12.4006C24.778 12.7138 24.6536 13.0142 24.4321 13.2357C24.2106 13.4572 23.9102 13.5816 23.597 13.5816C23.2838 13.5816 22.9834 13.4572 22.7619 13.2357C22.5404 13.0142 22.416 12.7138 22.416 12.4006V7.08605C22.416 6.77282 22.5404 6.47243 22.7619 6.25095C22.9834 6.02947 23.2838 5.90504 23.597 5.90504C23.9102 5.90504 24.2106 6.02947 24.4321 6.25095C24.6536 6.47243 24.778 6.77282 24.778 7.08605ZM15.3293 32.8468C15.3293 42.3052 22.9967 49.9726 32.4551 49.9726C41.9135 49.9726 49.5809 42.3052 49.5809 32.8468C49.5809 23.3884 41.9135 15.721 32.4551 15.721C23.0013 15.7313 15.3404 23.393 15.3293 32.8468ZM32.4551 18.083C40.6091 18.083 47.2189 24.6928 47.2189 32.8468C47.2189 41.0008 40.6091 47.6106 32.4551 47.6106C24.3011 47.6106 17.6913 41.0008 17.6913 32.8468C17.7006 24.6968 24.3051 18.0923 32.4551 18.083ZM32.5531 39.2945C32.4201 39.2655 32.2829 39.2608 32.1483 39.2807C30.796 39.1233 29.7759 37.9792 29.7736 36.6182C29.7736 36.305 29.6491 36.0046 29.4276 35.7831C29.2062 35.5617 28.9058 35.4372 28.5925 35.4372C28.2793 35.4372 27.9789 35.5617 27.7574 35.7831C27.536 36.0046 27.4115 36.305 27.4115 36.6182C27.4151 38.8908 28.935 40.8815 31.1264 41.483V42.664C31.1264 42.9772 31.2508 43.2776 31.4723 43.4991C31.6938 43.7205 31.9942 43.845 32.3074 43.845C32.6206 43.845 32.921 43.7205 33.1425 43.4991C33.364 43.2776 33.4884 42.9772 33.4884 42.664V41.5544C36.0177 41.025 37.7366 38.6694 37.4709 36.0992C37.2044 33.529 35.0391 31.5759 32.455 31.5753C30.9742 31.5753 29.7736 30.3747 29.7736 28.8939C29.7736 27.413 30.9742 26.2124 32.455 26.2124C33.9359 26.2124 35.1365 27.4129 35.1365 28.8939C35.1365 29.2071 35.2609 29.5075 35.4824 29.729C35.7039 29.9504 36.0043 30.0749 36.3175 30.0749C36.6307 30.0749 36.9311 29.9504 37.1526 29.729C37.3741 29.5075 37.4985 29.2071 37.4985 28.8939C37.4951 26.5076 35.8234 24.4494 33.4884 23.9569V22.8821C33.4884 22.5689 33.364 22.2685 33.1425 22.047C32.921 21.8255 32.6206 21.7011 32.3074 21.7011C31.9942 21.7011 31.6938 21.8255 31.4723 22.047C31.2508 22.2685 31.1264 22.5689 31.1264 22.8821V24.0291C28.6894 24.6945 27.1209 27.0606 27.4564 29.5645C27.792 32.0684 29.9287 33.9372 32.455 33.9368C33.9164 33.9368 35.1083 35.1068 35.1347 36.5675C35.1619 38.0282 34.0132 39.2414 32.5531 39.2945Z" fill="url(#paint0_linear_1_2312)"/>
<defs>
<linearGradient id="paint0_linear_1_2312" x1="57.5997" y1="66.6" x2="-5.58602" y2="14.7365" gradientUnits="userSpaceOnUse">
<stop stop-color="#31393C"/>
<stop offset="0.845748" stop-color="#3D96F5"/>
</linearGradient>
</defs>
</svg>
