<svg width="72" height="72" viewBox="0 0 72 72" fill="none" xmlns="http://www.w3.org/2000/svg">
<path fill-rule="evenodd" clip-rule="evenodd" d="M60.387 53.4192H62.7095C67.8319 53.4192 72 57.5872 72 62.7097C72 67.8321 67.8321 72 62.7097 72H32.5162C27.3937 72 23.2258 67.8321 23.2258 62.7097C23.2258 57.5872 27.3937 53.4193 32.5162 53.4193H34.8387V51.0967H28.8546C27.0313 51.0967 25.5484 49.6138 25.5484 47.7905C25.5489 47.6084 25.564 47.4267 25.5937 47.247L28.0162 32.7088L23.4082 26.5644C20.9327 23.263 17.6784 20.6258 13.9356 18.8883V42.8595L17.2208 60.3869H18.5807C19.8615 60.3869 20.9033 61.4285 20.9033 62.7094V64.4513C20.9033 65.1795 20.5548 65.8751 19.9719 66.3094L18.3495 67.5265C16.5031 68.9142 14.2118 69.6772 11.9009 69.6772C8.438 69.6772 5.1678 67.9946 3.15526 65.1749L2.72206 64.5699C0.941826 62.0766 0 59.1386 0 56.074C0 52.8479 1.08114 49.7228 3.03911 47.1761L0.630592 44.1648C0.22282 43.6535 0.000518012 43.0189 0 42.3648C0 40.9667 0.999902 39.8008 2.32256 39.5406V20.9031C1.04173 20.9031 0 19.8615 0 18.5806V11.6129C0 5.20951 5.20951 0 11.6129 0C12.8937 0 13.9355 1.04173 13.9356 2.3228V2.72921L30.7522 10.2032C33.235 11.3064 34.8387 13.7741 34.8387 16.4915C34.8388 17.2312 34.7196 17.9661 34.4857 18.6678L33.9933 20.1438C35.1454 21.8033 36.086 23.6206 36.8048 25.5484H44.1291C44.1291 22.9866 46.2124 20.9033 48.7742 20.9033C51.336 20.9033 53.4193 22.9866 53.4193 25.5484V30.1935C54.7001 30.1935 55.7419 31.2351 55.7419 32.516H62.7095C63.9905 32.516 65.0321 33.5577 65.0321 34.8386V37.1612H67.3547C68.6356 37.1612 69.6772 38.2028 69.6772 39.4837V48.7741C69.6772 50.0549 68.6356 51.0966 67.3547 51.0966H60.387V53.4192ZM33.6773 66.1934C35.5981 66.1934 37.1612 64.6303 37.1612 62.7095C37.1612 60.7888 35.5981 59.2256 33.6773 59.2257C31.7566 59.2257 30.1935 60.7888 30.1935 62.7095C30.1935 64.6303 31.7566 66.1934 33.6773 66.1934ZM39.4837 62.7095H60.387V60.387H38.9913C39.3049 61.1 39.4837 61.8826 39.4837 62.7095ZM42.9677 66.1934C43.7609 66.1934 44.4506 65.7277 44.7943 65.0321H41.141C41.4847 65.7277 42.1745 66.1934 42.9677 66.1934ZM49.9353 66.1934C50.7285 66.1934 51.4183 65.7277 51.762 65.0321H48.1087C48.4524 65.7277 49.1422 66.1934 49.9353 66.1934ZM56.9031 66.1934C57.6963 66.1934 58.3861 65.7277 58.7298 65.0321H55.0765C55.4202 65.7277 56.11 66.1934 56.9031 66.1934ZM67.3545 45.4911L63.5247 48.7741H67.3545V45.4911ZM59.9584 48.7741L67.3547 42.4346V39.4837H48.7741V48.7741H59.9584ZM30.7892 30.1935H46.4515V27.8709H31.1759L30.7892 30.1935ZM39.4838 44.129H46.4515V39.4838H39.4838V44.129ZM37.1612 32.516H30.4025L28.8545 41.8064H37.1612V32.516ZM46.4514 46.4515H39.4837V48.7741H46.4514V46.4515ZM39.4838 37.1612H46.4515V32.516H39.4838V37.1612ZM53.4192 37.1612V32.516H48.7741V37.1612H53.4192ZM62.7095 37.1612V34.8386H55.7419V37.1612H62.7095ZM51.0966 25.5483C51.0966 24.2674 50.055 23.2257 48.7741 23.2257C47.4931 23.2257 46.4515 24.2674 46.4515 25.5483C47.7323 25.5483 48.7741 26.5899 48.7741 27.8708V30.1934H51.0966V25.5483ZM32.2826 17.9314C32.4382 17.467 32.516 16.9827 32.516 16.4914C32.516 14.6914 31.4535 13.0563 29.8091 12.3259L23.4615 9.5052L22.7728 11.2274C26.4321 12.6917 29.6907 15.012 32.2722 17.9616L32.2826 17.9314ZM20.578 10.4598L21.3374 8.56107L13.9355 5.2711V9.32054C13.9846 9.32284 14.033 9.32205 14.0814 9.32126C14.1554 9.32005 14.2294 9.31885 14.3059 9.32866L16.9478 9.68173C18.1857 9.84662 19.3969 10.1125 20.578 10.4598ZM11.6129 2.32256C6.49045 2.32256 2.32256 6.49045 2.32256 11.6129L2.32268 13.2781L7.03048 16.1023C7.35898 16.2993 7.63365 16.5744 7.82999 16.9033C8.02633 17.2321 8.13824 17.6045 8.15575 17.9871L9.23919 41.8063H11.6129V17.8827C10.2043 17.1162 9.29035 15.624 9.29035 13.9935V13.7183C9.29035 12.0495 10.2437 10.598 11.6129 9.8431V2.32256ZM2.32256 15.9863V18.5806H5.85756L5.83549 18.094L2.32256 15.9863ZM6.80739 39.4837L5.96316 20.9031H4.64511V39.4837H6.80739ZM2.48626 41.9701C2.38183 42.0745 2.32297 42.2161 2.32256 42.3638C2.32255 42.4907 2.3655 42.614 2.44441 42.7134L4.55564 45.3518L6.94791 42.5613L6.91311 41.8064H2.87992C2.73222 41.8068 2.5907 41.8657 2.48626 41.9701ZM4.61262 63.2205L5.04583 63.8267C6.62285 66.0354 9.18584 67.3546 11.9007 67.3548C11.9909 67.3548 12.0802 67.3447 12.1694 67.3347C12.2284 67.328 12.2875 67.3214 12.3467 67.3177L8.37277 44.467L5.28262 48.0716C3.3735 50.2988 2.32256 53.1417 2.32256 56.074C2.32256 58.652 3.11453 61.1232 4.61262 63.2205ZM18.5806 62.7095H17.2219C16.1048 62.7095 15.1455 61.9128 14.9388 60.8155L11.8103 44.129H10.6711L14.631 66.8925C15.4625 66.6067 16.251 66.1992 16.9559 65.6696L18.5806 64.4515V62.7095ZM12.9797 15.9653C17.878 17.8026 22.1271 20.9868 25.2661 25.172L28.542 29.5433L28.8847 27.4901C29.074 26.3636 30.0378 25.5484 31.1759 25.5484H34.3231C31.2851 18.2868 24.5066 13.0332 16.6413 11.9845L13.9981 11.6315C12.7278 11.4641 11.6129 12.4653 11.6129 13.7194V13.9946C11.6129 14.8667 12.1621 15.6587 12.9797 15.9653ZM27.8849 47.6278C27.8755 47.6813 27.8709 47.7359 27.8709 47.7904C27.8709 48.3327 28.3121 48.7741 28.8545 48.7739H37.1612V44.1288H28.4678L27.8849 47.6278ZM58.0643 51.0966H37.1612V53.4192H58.0643V51.0966ZM32.5159 55.7419C28.6733 55.7419 25.5483 58.8668 25.5483 62.7095C25.5483 66.5521 28.6733 69.6772 32.516 69.6772H60.3869V66.7879C59.574 67.8551 58.2989 68.5159 56.903 68.5159C55.5071 68.5159 54.2321 67.8551 53.4192 66.7879C52.6064 67.8551 51.3312 68.5159 49.9353 68.5159C48.5395 68.5159 47.2645 67.8551 46.4515 66.7879C45.6387 67.8551 44.3636 68.5159 42.9677 68.5159C42.0475 68.5167 41.1504 68.2275 40.4039 67.6895C39.6574 67.1514 39.0994 66.3919 38.8091 65.5186L38.7777 65.4258C37.7988 67.2547 35.8931 68.5159 33.6773 68.5159C30.4757 68.5159 27.8709 65.9111 27.8709 62.7095C27.8709 59.508 30.4756 56.9031 33.6773 56.9031C34.9721 56.9031 36.1577 57.3445 37.1251 58.0644H60.387V55.7419H32.5159ZM62.7095 55.7417V69.6772C66.5521 69.6772 69.6772 66.552 69.6772 62.7094C69.6772 58.8668 66.5523 55.7417 62.7095 55.7417ZM33.6769 63.8709C34.3183 63.8709 34.8382 63.351 34.8382 62.7096C34.8382 62.0683 34.3183 61.5483 33.6769 61.5483C33.0355 61.5483 32.5156 62.0683 32.5156 62.7096C32.5156 63.351 33.0355 63.8709 33.6769 63.8709ZM66.1933 63.8709C66.8347 63.8709 67.3546 63.351 67.3546 62.7096C67.3546 62.0683 66.8347 61.5483 66.1933 61.5483C65.5519 61.5483 65.032 62.0683 65.032 62.7096C65.032 63.351 65.5519 63.8709 66.1933 63.8709Z" fill="url(#paint0_linear_1_2332)"/>
<defs>
<linearGradient id="paint0_linear_1_2332" x1="0" y1="0" x2="72" y2="69.6" gradientUnits="userSpaceOnUse">
<stop stop-color="#3E96F4"/>
<stop offset="1" stop-color="#31393C"/>
</linearGradient>
</defs>
</svg>
