<svg width="47" height="50" viewBox="0 0 47 50" fill="none" xmlns="http://www.w3.org/2000/svg">
<path d="M42.3131 4.74847H23.2134C22.9196 3.769 22.3319 2.78953 21.5483 2.00596C19.9812 0.438803 17.5325 -0.344774 15.3777 0.144962C14.79 0.242909 14.3003 0.732644 14.2023 1.22238C14.0064 1.81006 14.2023 2.39774 14.5941 2.78953L17.3366 5.53205C17.7284 5.92384 17.7284 6.70741 17.3366 7.0992C17.1407 7.29509 16.8469 7.39304 16.553 7.39304C16.2592 7.39304 15.9654 7.29509 15.7695 7.0992L13.027 4.35668C12.6352 3.9649 11.9495 3.769 11.4598 3.9649C11.068 4.06284 10.7742 4.35668 10.5783 4.65052H3.72199C1.6651 4.74847 0 6.41357 0 8.47046V37.3648C0 39.5197 1.6651 41.1848 3.72199 41.1848H18.0223L16.7489 45.3965H15.8674C13.9085 45.3965 12.2434 47.0616 12.2434 49.0205V50H33.8897V49.0205C33.8897 47.0616 32.2246 45.3965 30.2656 45.3965H29.2862L27.6211 41.1848H42.3131C44.37 41.1848 46.0351 39.5197 46.0351 37.4628V8.47046C46.1331 6.41357 44.37 4.74847 42.3131 4.74847ZM44.1741 8.47046V35.7977H19.8832L23.0176 31.8798C23.2134 31.8798 23.3114 31.9777 23.5073 31.9777C23.8991 31.9777 24.2909 31.8798 24.5847 31.586C24.9765 31.1942 25.0744 30.7044 24.9765 30.2147L26.9354 28.2558C27.1313 28.0599 27.3272 27.9619 27.5231 27.864L29.8738 26.8845C30.2656 26.6886 30.6574 26.4927 30.9513 26.2968L32.0287 27.1783C32.7143 27.864 33.6938 28.2558 34.6733 28.2558C35.6527 28.2558 36.6322 27.864 37.3178 27.1783C38.787 25.7091 38.787 23.2605 37.3178 21.7913L35.9466 20.42C35.9466 19.7344 35.6527 19.0487 35.065 18.559C34.8691 18.3631 34.5753 18.1672 34.2815 18.0693C34.4774 17.2857 34.1835 16.4042 33.5958 15.7185C33.204 15.3268 32.7143 15.0329 32.2246 14.935C32.2246 14.2493 32.0287 13.6617 31.5389 13.1719C31.2451 12.8781 30.8533 12.5842 30.4615 12.4863C30.5595 11.7027 30.3636 10.9191 29.8738 10.3315C29.3841 9.84172 28.6985 9.54788 28.0129 9.44993C27.3272 9.44993 26.6416 9.74377 26.1519 10.2335L26.0539 10.3315L25.0744 9.35198C24.2909 8.56841 23.8011 7.49099 23.6052 6.41357H42.3131C43.2926 6.70741 44.1741 7.49099 44.1741 8.47046ZM20.1771 19.0487L19.9812 17.6775C19.8832 16.9919 20.0791 16.3062 20.373 15.7185L20.5689 15.9144C20.9607 16.3062 21.4504 16.5021 22.0381 16.5021C22.5278 16.5021 23.0176 16.3062 23.4093 15.9144L23.5073 15.8165L27.4252 11.8986C27.5231 11.8007 27.719 11.7027 27.9149 11.7027C28.1108 11.7027 28.2087 11.8007 28.4046 11.8986C28.6005 12.1924 28.6005 12.5842 28.3067 12.7801L27.5231 13.6617L28.1108 14.3473L28.6985 14.935L29.3841 14.6411C29.6779 14.5432 29.9718 14.5432 30.1677 14.7391C30.3636 14.935 30.3636 15.3268 30.1677 15.5226C29.8738 15.9144 29.8738 16.5021 30.1677 16.796L30.7554 17.3836L31.441 17.0898C31.6369 16.9919 32.0287 17.0898 32.2246 17.2857C32.4205 17.4816 32.4205 17.7754 32.3225 17.9713L32.2246 18.0693C31.8328 18.559 31.8328 19.2446 32.3225 19.6364C32.6164 19.9303 32.9102 20.0282 33.302 20.0282C33.3999 20.0282 33.5958 20.0282 33.7917 20.2241C33.8897 20.3221 33.9876 20.5179 33.9876 20.7138C33.9876 20.9097 33.8897 21.1056 33.7917 21.2036L31.7348 23.2605C30.8533 24.142 29.8738 24.8276 28.8944 25.3173L26.6416 26.2968C26.1519 26.4927 25.7601 26.7866 25.4662 27.0804L23.7032 28.8434L18.1202 23.2605L19.0017 22.3789C19.8832 21.3015 20.275 20.2241 20.1771 19.0487ZM35.163 22.4769L35.9466 23.2605C36.6322 23.9461 36.6322 25.1215 35.9466 25.8071C35.2609 26.4927 34.0856 26.5907 33.302 25.8071L32.5184 25.1215C32.7143 24.9256 33.0082 24.7297 33.204 24.5338L35.163 22.4769ZM15.9654 25.1215L21.4504 30.6065L17.3366 35.7977H4.89735L15.9654 25.1215ZM12.1454 6.31562L14.3982 8.56841C14.9859 9.15609 15.7695 9.44993 16.553 9.44993C17.3366 9.44993 18.1202 9.15609 18.7079 8.56841C19.8832 7.39304 19.8832 5.4341 18.7079 4.25874L16.4551 2.00596C17.8264 1.90801 19.1976 2.39774 20.1771 3.37721C20.9607 4.16079 21.4504 5.33615 21.5483 6.51152V6.70741C21.7442 8.27457 22.4299 9.84172 23.6052 11.0171L24.5847 11.9966L22.136 14.4452L21.9401 14.5432L21.0586 13.6617L20.1771 12.7801C19.1976 12.0945 18.0223 11.6048 16.7489 11.5068H16.553C15.3777 11.4089 14.3003 10.9191 13.5167 10.1356C12.5372 9.15609 12.0475 7.68688 12.1454 6.31562ZM3.72199 6.70741H10.1865C10.1865 8.47046 10.8721 10.2335 12.1454 11.5068C13.3208 12.6822 14.8879 13.3678 16.4551 13.4658H16.553C17.4346 13.5637 18.2181 13.8575 18.9038 14.3473C18.2181 15.4247 17.8264 16.698 18.0223 17.8734L18.2181 19.2446C18.3161 19.8323 18.1202 20.3221 17.7284 20.7138L16.7489 21.6933C16.553 21.5954 16.3572 21.5954 16.1613 21.5954C15.7695 21.5954 15.3777 21.7913 15.0838 21.9872C14.6921 22.3789 14.4962 23.0646 14.79 23.6523L2.05689 35.8956H1.95894V8.47046C1.95894 7.49099 2.74252 6.70741 3.72199 6.70741ZM30.1677 47.3554C30.7554 47.3554 31.2451 47.6493 31.5389 48.0411H14.4962C14.79 47.6493 15.2797 47.3554 15.8674 47.3554H16.1613H29.9718H30.1677ZM27.1313 45.3965H18.8058L20.0791 41.1848H25.4662L27.1313 45.3965ZM42.3131 39.2258H3.72199C2.93841 39.2258 2.15483 38.6381 1.95894 37.8546H44.0762C43.8803 38.6381 43.1946 39.2258 42.3131 39.2258Z" fill="url(#paint0_linear_1_2512)"/>
<defs>
<linearGradient id="paint0_linear_1_2512" x1="8.35356" y1="9.76562" x2="41.4689" y2="40.5558" gradientUnits="userSpaceOnUse">
<stop stop-color="#3E96F4"/>
<stop offset="1" stop-color="#FE5B52"/>
</linearGradient>
</defs>
</svg>
