<svg width="44" height="50" viewBox="0 0 44 50" fill="none" xmlns="http://www.w3.org/2000/svg">
<path fill-rule="evenodd" clip-rule="evenodd" d="M8.26531 0H34.898L43.2653 5.71429V23.6735C43.2653 26.8367 41.4286 31.3265 38.3673 35.5102C34.4898 40.8163 28.8776 45.7143 22.1429 49.6939L21.6327 50L21.1224 49.6939C14.2857 45.7143 8.67347 40.8163 4.89796 35.5102C1.83673 31.3265 0 26.8367 0 23.6735V5.71429L8.26531 0ZM36.6327 34.3878C39.898 29.7959 41.1225 25.8163 41.1225 23.6735H41.2245V6.83673L34.3878 2.04082H8.97959L2.04082 6.83673V23.5714C2.04082 25.8163 3.26531 29.6939 6.53061 34.2857C9.08163 37.7551 13.6735 42.8571 21.6327 47.7551C29.4898 42.8571 34.1837 37.8571 36.6327 34.3878ZM12.3471 6.44873L6.42871 10.5304V23.9793C6.42871 26.2242 7.75524 29.3875 9.79606 32.3467C12.4491 36.0202 16.3267 39.3875 21.0205 42.2447L21.5308 42.5508L22.041 42.2447C26.7348 39.4895 30.6124 36.0202 33.2654 32.3467C35.4083 29.3875 36.6328 26.2242 36.6328 23.9793V10.5304L30.7144 6.44873H12.3471ZM34.694 24.0814C34.694 25.51 33.8777 28.163 31.6328 31.2242C30.0001 33.5712 26.8369 36.9385 21.5308 40.2038C16.2246 36.9385 13.1634 33.5712 11.4287 31.2242C9.18381 28.163 8.36749 25.51 8.36749 24.0814V11.6528L12.8573 8.48955H30.1022L34.592 11.6528V24.0814H34.694ZM21.6329 22.8572L19.0818 25.5102L14.0818 20.8163L12.041 23.0612L19.1839 29.6939L31.1227 17.347L28.9798 15.2041L21.6329 22.8572Z" fill="url(#paint0_linear_1_2516)"/>
<defs>
<linearGradient id="paint0_linear_1_2516" x1="7.85029" y1="9.76562" x2="40.7534" y2="38.5154" gradientUnits="userSpaceOnUse">
<stop stop-color="#3E96F4"/>
<stop offset="1" stop-color="#FE5B52"/>
</linearGradient>
</defs>
</svg>
