<svg width="448" height="331" viewBox="0 0 448 331" fill="none" xmlns="http://www.w3.org/2000/svg">
<g clip-path="url(#clip0_1_2547)">
<path d="M232.368 49.6195C239.804 31.1014 230.842 10.0527 212.35 2.6059C193.859 -4.84087 172.84 4.13424 165.404 22.6524C157.968 41.1705 166.93 62.2192 185.422 69.6659C203.913 77.1127 224.932 68.1376 232.368 49.6195Z" fill="#ECECEC"/>
<path d="M218.247 256.653C223.156 262.491 227.605 272.169 230.366 273.706C233.127 275.242 237.783 275.777 242.183 289.958C246.582 304.14 224.369 302.199 224.369 302.199C224.369 302.199 214.871 296.736 211.036 283.538L201.525 275.088L218.247 256.653Z" fill="#FFBDA9"/>
<path d="M235.43 300.644C235.43 300.644 228.24 298.299 222.143 291.849C216.022 285.374 215.232 273.855 215.232 273.855L212.3 279.341L206.436 273.064L203.609 272.79L201.525 275.088L211.036 283.537C214.871 296.735 224.369 302.198 224.369 302.198C224.369 302.198 230.493 302.73 235.672 301.185C235.539 300.85 235.43 300.644 235.43 300.644Z" fill="#C97E6F"/>
<path d="M184.945 205.856C191.748 210.837 195.808 214.452 199.191 221.228C202.574 228.004 223.775 252.348 225.128 254.519C226.482 256.69 213.214 279.728 202.593 285.375C202.593 285.375 186.56 266.853 177.313 259.852C168.066 252.85 171.223 228.004 175.509 219.647C179.795 211.29 184.945 205.856 184.945 205.856Z" fill="#3E96F4"/>
<path d="M185.193 250.686V236.857C185.193 236.857 183.393 236.135 181.989 240.803C181.428 242.67 181.472 244.634 181.721 246.324L171.399 238.549C170.972 247.253 172.367 256.105 177.314 259.851C186.561 266.853 202.594 285.374 202.594 285.374C205.334 283.918 208.249 281.3 211.044 278.184C204.517 271.676 192.131 259.109 185.193 250.686Z" fill="#1B72B2"/>
<path d="M251.151 296.736C252.916 297.288 254.221 298.133 254.221 300.36C254.221 302.587 253.837 306.121 252.993 307.503C252.15 308.886 247.793 309.714 247.793 309.714C247.793 309.714 248.085 300.513 249.005 298.823C249.925 297.134 251.151 296.736 251.151 296.736Z" fill="#FFBDA9"/>
<path d="M252.993 307.504C253.231 307.116 253.428 306.547 253.594 305.895C252.648 306.825 252.331 306.832 251.174 306.955L247.866 307.988C247.815 309.023 247.793 309.715 247.793 309.715C247.793 309.715 252.15 308.886 252.993 307.504Z" fill="#C97E6F"/>
<path d="M246.934 293.37C249.082 293.6 251.229 295.214 251.229 297.442C251.229 299.67 251.996 305.891 251.229 306.89C250.462 307.889 246.703 310.731 245.399 310.961C244.095 311.191 241.88 310.807 242.183 310.116C242.485 309.424 246.934 293.37 246.934 293.37Z" fill="#FFBDA9"/>
<path d="M251.555 305.217C249.926 307.058 245.763 306.893 245.763 306.893C245.763 306.893 243.932 308.85 243.707 309.479C243.571 309.858 242.822 310.358 242.719 310.745C243.408 311.008 244.583 311.105 245.4 310.96C246.678 310.735 250.308 308.002 251.174 306.954L251.555 305.221C251.555 305.221 251.555 305.219 251.555 305.217Z" fill="#C97E6F"/>
<path d="M238.887 289.695C245.477 290.067 246.704 290.681 246.934 293.37C247.164 296.059 247.011 303.894 246.167 305.891C245.323 307.888 244.863 309.655 243.789 310.73C242.716 311.805 241.108 311.81 241.108 311.81C241.108 311.81 237.499 306.506 237.346 302.051C237.192 297.595 238.887 289.695 238.887 289.695Z" fill="#FFBDA9"/>
<path d="M242.677 307.396C242.342 305.571 241.601 303.627 241.507 297.521C241.472 295.227 239.348 307.207 240.296 310.493C240.769 311.309 241.108 311.809 241.108 311.809C241.108 311.809 242.715 311.805 243.789 310.729C244.863 309.654 245.323 307.887 246.167 305.89C246.222 305.76 246.273 305.603 246.322 305.427C245.892 306.548 244.526 307.284 242.677 307.396Z" fill="#C97E6F"/>
<path d="M224.46 303.202C224.874 306.873 229.676 308.195 230.213 310.039C230.75 311.882 230.367 313.572 231.286 314.033C232.207 314.494 236.042 312.343 235.889 309.885C235.889 309.885 236.886 311.959 239.11 312.343C241.335 312.727 241.872 311.1 241.488 308.649C241.105 306.197 241.182 304.891 241.258 301.973C241.335 299.054 242.025 296.366 240.721 293.14C239.417 289.913 237.653 287.071 234.124 287.609C230.596 288.147 228.448 292.603 226.531 294.139C224.613 295.675 223.999 299.131 224.46 303.202Z" fill="#FFBDA9"/>
<path d="M235.888 309.885C235.673 305.217 235.429 301.397 235.429 300.644C235.429 299.89 235.673 294.936 233.914 294.635C233.647 294.589 229.778 297.044 229.703 298.701C229.628 300.357 229.703 303.331 230.906 304.179C232.11 305.025 235.888 309.885 235.888 309.885Z" fill="#C97E6F"/>
<path d="M76.0447 215.807C83.0362 206.923 85.4424 206.02 92.6602 201.803C99.8771 197.587 127.244 186.896 132.882 185.541C138.521 184.186 161.262 194.802 168.724 198.19C176.186 201.578 185.681 204.911 187.299 208.213C192.714 219.266 181.989 234.931 181.932 267.757C181.903 284.95 177.99 323.611 177.99 323.611C177.99 323.611 92.0582 323.772 90.8551 321.965C89.652 320.158 86.6447 258.421 85.141 245.772C83.6382 233.124 76.0447 215.807 76.0447 215.807Z" fill="#3E96F4"/>
<path d="M186.984 225.52C186.954 223.343 187.185 221.206 187.478 219.077C187.797 216.952 188.18 214.836 188.826 212.758C188.858 214.934 188.627 217.072 188.332 219.2C188.011 221.326 187.628 223.441 186.984 225.52Z" fill="#3380C4"/>
<path d="M154.849 212.588C158.169 211.346 166.035 213.506 167.473 214.007C168.911 214.508 166.628 208.353 165.782 207.591C164.937 206.829 163.583 205.055 160.99 205.857C158.396 206.66 156.216 209.634 155.84 210.613C155.463 211.591 154.849 212.588 154.849 212.588Z" fill="#1B72B2"/>
<path d="M127.186 217.727C128.37 217.67 135.277 214.489 136.931 213.699C138.585 212.908 146.077 212.539 151.108 213.947C151.108 213.947 141.423 207.393 135.784 207.45C130.145 207.506 128.003 209.539 127.551 211.346C127.101 213.153 127.186 217.727 127.186 217.727Z" fill="#1B72B2"/>
<path d="M164.126 309.769C163.203 308.865 107.084 310.673 105.956 304.8C104.828 298.927 104.052 288.247 104.052 288.247C110.808 291.86 120.617 290.356 120.617 290.356C114.076 288.217 104.603 277.47 104.152 274.308C102.763 264.566 107.96 237.709 107.96 237.709L104.152 230.037L99.6975 227.552C99.6975 227.552 91.2507 231.764 84.0269 239.514C84.514 241.658 84.9044 243.774 85.1419 245.772C86.5592 257.697 89.3135 313.247 90.6323 321.079C108.014 321.72 139.524 322.876 160.608 323.601C170.824 323.625 177.991 323.612 177.991 323.612C177.991 323.612 178.123 318.527 178.43 311.234C172.548 310.889 164.698 310.328 164.126 309.769Z" fill="#1B72B2"/>
<path d="M152.729 214.226C146.674 213.496 136.941 208.241 133.107 210.048C129.273 211.855 128.371 216.486 127.581 217.276C126.792 218.067 123.409 214.114 123.409 204.402C123.409 194.689 123.111 184.744 130.252 183.393C137.393 182.041 155.887 189.043 159.609 191.866C163.33 194.689 164.909 197.549 165.924 200.298C166.939 203.046 169.645 214.114 168.405 214.227C167.165 214.341 163.669 207.112 161.075 206.887C158.481 206.659 154.369 214.424 152.729 214.226Z" fill="#3E96F4"/>
<path d="M156.175 205.53C157.719 201.86 159.41 198.641 159.354 196.1C159.298 193.559 158.734 191.808 155.915 191.018C153.096 190.227 151.911 191.752 151.742 195.591C151.572 199.432 156.175 205.53 156.175 205.53Z" fill="#1B72B2"/>
<path d="M134.068 198.688C128.173 193.333 127.505 187.348 128.059 186.106C128.613 184.864 131.047 183.96 131.047 183.96C131.047 183.96 132.006 187.856 131.442 188.817C130.879 189.776 134.068 198.688 134.068 198.688Z" fill="#1B72B2"/>
<path d="M143.451 211.632C141.947 211.171 140.434 210.751 138.896 210.48C137.37 210.193 135.802 209.985 134.301 210.163C133.561 210.255 132.829 210.467 132.319 210.895C131.83 211.386 131.274 212.023 130.798 212.602C129.805 213.769 129.129 215.135 128.447 216.566C128.354 216.748 128.257 216.933 128.131 217.122C128 217.306 127.864 217.523 127.541 217.685C127.38 217.761 127.165 217.79 126.987 217.747C126.816 217.706 126.673 217.632 126.568 217.553C126.351 217.395 126.203 217.223 126.066 217.053C125.548 216.365 125.193 215.656 124.842 214.937C124.133 213.471 123.739 211.881 123.528 210.31C123.095 207.155 123.099 203.979 123.41 200.843C123.431 202.418 123.476 203.989 123.61 205.552C123.719 207.115 123.888 208.673 124.183 210.2C124.485 211.726 124.866 213.225 125.575 214.576C125.928 215.261 126.288 215.964 126.726 216.527C126.835 216.663 126.954 216.786 127.056 216.857C127.177 216.934 127.172 216.914 127.184 216.909C127.289 216.875 127.525 216.498 127.676 216.177C128.357 214.782 129.096 213.3 130.171 212.079C130.712 211.459 131.199 210.915 131.836 210.313C132.559 209.739 133.428 209.563 134.236 209.502C135.875 209.397 137.453 209.694 138.988 210.068C140.516 210.482 142.014 210.986 143.451 211.632Z" fill="#1B72B2"/>
<path d="M157.336 209.607C157.847 208.895 158.442 208.25 159.087 207.639C159.421 207.345 159.771 207.064 160.18 206.832C160.39 206.721 160.617 206.627 160.88 206.573C161.019 206.565 161.165 206.548 161.313 206.578C161.461 206.619 161.643 206.685 161.714 206.735C162.492 207.148 163.246 207.684 163.898 208.308C164.55 208.934 165.111 209.637 165.624 210.362C166.135 211.105 166.543 211.862 167.052 212.518C167.299 212.852 167.569 213.172 167.858 213.418C167.995 213.537 168.165 213.635 168.238 213.641C168.281 213.654 168.26 213.645 168.281 213.647C168.295 213.636 168.338 213.598 168.364 213.523C168.488 213.23 168.496 212.78 168.494 212.37C168.488 211.949 168.455 211.521 168.407 211.092C168.335 210.23 168.18 209.373 168.063 208.506C168.37 209.327 168.609 210.166 168.824 211.022C168.924 211.451 169.003 211.887 169.059 212.333C169.1 212.785 169.151 213.23 168.993 213.765C168.951 213.897 168.877 214.051 168.729 214.185C168.581 214.317 168.339 214.392 168.164 214.362C167.801 214.319 167.595 214.155 167.391 214.014C167.003 213.712 166.696 213.373 166.408 213.022C165.831 212.315 165.404 211.536 164.916 210.854C163.955 209.442 162.822 208.208 161.369 207.31C161.262 207.231 161.229 207.246 161.174 207.209C161.115 207.191 161.036 207.197 160.961 207.189C160.793 207.211 160.613 207.267 160.426 207.338C160.057 207.496 159.698 207.726 159.349 207.968C158.639 208.449 157.989 209.027 157.336 209.607Z" fill="#1B6BB2"/>
<path d="M157.002 183.47C156.989 185.856 156.894 188.235 156.646 190.609C156.038 196.433 156.634 204.114 156.175 205.53C155.662 207.111 152.617 212.759 152.617 212.759C152.617 212.759 147.204 210.274 144.948 207.564C142.693 204.853 139.761 204.716 135.814 200.72C131.867 196.723 129.184 190.374 130.063 185.09C130.175 184.413 130.869 177.649 131.022 170.647C131.174 163.645 138.521 158.325 145.512 158.325C152.504 158.325 156.689 168.715 156.909 175.717C156.999 178.589 157.015 181.286 157.002 183.47Z" fill="#FFBDA9"/>
<path d="M131.022 170.645C130.869 177.647 130.176 184.411 130.063 185.09C129.791 186.723 129.862 188.458 130.203 190.194C131.75 190.48 151.663 190.962 156.821 188.556C156.939 186.864 156.993 185.169 157.003 183.47C157.015 181.287 156.999 178.59 156.909 175.716C156.816 172.748 156.008 169.173 154.578 166.037L138.197 160.223C134.177 162.371 131.119 166.158 131.022 170.645Z" fill="#C97E6F"/>
<path d="M169.269 141.489C179.849 141.489 183.808 149.627 183.808 155.728C183.808 161.202 182.056 169.966 169.269 169.966C162.875 169.966 158.547 163.592 158.547 155.728C158.546 147.865 162.875 141.489 169.269 141.489Z" fill="#C1C9D1"/>
<path d="M169.736 144.977C177.725 144.977 180.715 151.122 180.715 155.728C180.715 159.861 179.392 166.48 169.736 166.48C164.908 166.48 161.64 161.666 161.64 155.728C161.639 149.79 164.908 144.977 169.736 144.977Z" fill="#9EA7AF"/>
<path d="M182.617 146.296C181.992 150.008 180.157 151.427 179.338 156.432C178.518 161.436 180.704 168.709 177.444 175.043C174.184 181.377 168.914 189.705 165.868 190.058C162.823 190.41 138.432 186.284 130.203 169.894C127.84 165.19 122.791 146.742 127.112 135.478C131.433 124.214 138.46 113.891 154.703 113.579C170.943 113.266 185.929 126.62 182.617 146.296Z" fill="#FFBDA9"/>
<path d="M169.032 166.588C168.164 166.608 167.212 166.276 166.784 165.706C166.409 165.207 166.254 164.55 166.364 163.936C167.634 164.984 169.19 165.164 170.753 164.891C170.946 166.059 170.048 166.564 169.032 166.588Z" fill="#C97E6F"/>
<path d="M140.3 146.296C140.918 142.434 143.496 140.206 143.496 140.206C143.496 140.206 149.704 137.625 154.506 137.156C159.308 136.687 164.227 135.279 164.227 135.279C164.227 135.279 162.705 139.141 160.128 140.787C160.128 140.787 171.606 140.205 175.238 136.804C175.238 136.804 174.535 139.607 173.832 141.49C173.832 141.49 179.455 140.91 181.212 138.681C181.212 138.681 182.617 143.588 182.617 146.296C182.617 146.296 189.372 137.038 187.653 129.687C185.935 122.336 183.593 119.522 183.593 119.522C183.593 119.522 188.434 119.991 191.089 119.522C191.089 119.522 184.842 114.048 180.156 110.45C175.471 106.853 161.415 106.697 161.415 106.697C161.415 106.697 162.509 102.943 161.259 97C161.259 97 155.246 105.836 148.882 108.535C142.519 111.232 143.376 111.003 136.628 112.709C129.88 114.414 123.465 118.74 120.771 122.376C118.077 126.012 115.149 129.766 113.392 130.352C113.392 130.352 117.608 129.766 119.717 128.007C119.717 128.007 116.201 136.003 120.848 146.296C125.496 156.588 137.137 153.543 139.395 151.271C141.653 148.999 140.3 146.296 140.3 146.296Z" fill="#31393C"/>
<path d="M139.396 151.271C141.653 148.999 140.3 146.296 140.3 146.296C140.674 143.96 141.763 142.226 142.567 141.217C140.878 130.959 141.567 120.313 144.567 110.361C142.813 111.074 141.773 111.394 139.233 112.047C136.117 116.741 133.787 122.022 132.182 127.372C130.14 134.184 129.15 141.544 131.056 148.396C131.545 150.152 132.257 151.866 133.158 153.47C136.047 153.228 138.485 152.187 139.396 151.271Z" fill="#0B0C0C"/>
<path d="M136.217 142.472C136.217 142.472 135.413 116.745 148.883 108.534C148.883 108.534 138.459 107.361 132.485 117.801C126.512 128.24 126.916 137.194 127.067 142.212C127.216 147.231 136.217 142.472 136.217 142.472Z" fill="#C1C9D1"/>
<path d="M132.11 141.489C121.53 141.489 117.57 149.627 117.57 155.728C117.57 161.202 119.323 169.966 132.11 169.966C138.504 169.966 142.831 163.592 142.831 155.728C142.831 147.865 138.503 141.489 132.11 141.489Z" fill="#C1C9D1"/>
<path d="M137.813 155.728C137.813 148.747 133.212 143.088 127.536 143.088C121.859 143.088 117.57 148.747 117.57 155.728C117.57 162.709 121.859 168.368 127.536 168.368C133.212 168.368 137.813 162.709 137.813 155.728Z" fill="#ECECEC"/>
<path d="M126.179 164.329C130.042 164.329 133.173 160.478 133.173 155.728C133.173 150.977 130.042 147.126 126.179 147.126C122.316 147.126 119.185 150.977 119.185 155.728C119.185 160.478 122.316 164.329 126.179 164.329Z" fill="#9EA7AF"/>
<path d="M158.926 169.966C161.785 171.543 171.124 172.068 171.76 171.98C172.395 171.893 171.09 178.994 168.803 179.257C166.516 179.52 161.942 178.907 160.036 177.067C158.13 175.227 158.926 169.966 158.926 169.966Z" fill="#C97E6F"/>
<path d="M159.524 172.036C159.7 171.406 159.837 170.9 159.97 170.408C163.116 171.483 169.308 171.938 171.216 171.984C171.061 172.934 170.788 173.894 170.401 174.839C170.341 174.8 170.416 174.93 170.356 174.891C166.235 175.541 162.041 174.203 159.524 172.036Z" fill="white"/>
<path d="M160.186 152.991C160.186 151.696 159.548 150.646 158.761 150.646C157.974 150.646 157.336 151.696 157.336 152.991C157.336 154.287 157.974 155.337 158.761 155.337C159.548 155.337 160.186 154.287 160.186 152.991Z" fill="#31393C"/>
<path d="M176.493 154.085C176.493 152.79 175.944 151.74 175.267 151.74C174.591 151.74 174.042 152.79 174.042 154.085C174.042 155.381 174.591 156.431 175.267 156.431C175.944 156.432 176.493 155.381 176.493 154.085Z" fill="#31393C"/>
<path d="M152.208 143.845C153.182 143.309 154.23 142.938 155.307 142.628C156.387 142.338 157.508 142.167 158.646 142.127C159.776 142.07 160.972 142.039 162.067 142.462C163.165 142.84 164.161 143.531 164.894 144.442L164.811 144.582C163.635 144.454 162.663 144.165 161.636 144.03C160.634 143.879 159.66 143.512 158.612 143.427C156.538 143.25 154.365 143.415 152.274 143.993L152.208 143.845Z" fill="#31393C"/>
<path d="M180.614 146.877C180.106 146.68 179.572 146.556 179.039 146.494C178.508 146.422 177.977 146.396 177.452 146.39C176.922 146.383 176.397 146.573 175.879 146.445C175.619 146.387 175.353 146.336 175.081 146.223C174.808 146.13 174.529 146.009 174.23 145.798L174.213 145.637C174.722 145.138 175.299 144.926 175.885 144.819C176.476 144.708 177.062 144.946 177.63 145.101C178.202 145.251 178.762 145.451 179.288 145.72C179.805 146.007 180.311 146.307 180.713 146.748L180.614 146.877Z" fill="#31393C"/>
<path d="M164.126 315.335C164.12 315.698 164.627 316.224 165.868 316.224C167.108 316.224 200.47 316.224 204.98 316.224C209.491 316.224 210.543 314.437 209.191 312.178C207.837 309.92 202.124 304.95 187.99 301.487C173.856 298.024 166.424 306.121 164.126 309.769C162.441 312.443 164.126 315.335 164.126 315.335Z" fill="#C1C9D1"/>
<path d="M209.524 312.856C208.746 315.447 178.901 314.096 178.901 314.096C178.901 314.096 181.927 310.002 185.273 309.885C188.619 309.769 190.245 310.933 194.732 311.706C199.219 312.479 195.892 309.878 195.892 309.878C195.892 309.878 199.062 309.175 200.353 308.173C200.353 308.173 192.961 305.986 189.859 305.477C186.758 304.968 178.863 305.307 177.849 305.477C177.131 305.597 173.489 303.478 169.086 304.542C166.629 306.339 165.003 308.377 164.126 309.769C162.441 312.444 164.126 315.335 164.126 315.335C164.12 315.698 164.627 316.224 165.868 316.224C167.108 316.224 200.47 316.224 204.98 316.224C209.028 316.223 210.284 314.783 209.524 312.856Z" fill="#808A91"/>
<path d="M81.871 290.845C81.871 290.845 109.686 295.152 124.762 297.854C139.044 300.414 151.377 301.524 154.873 300.847C158.369 300.17 170.323 295.765 174.157 294.184C177.991 292.603 185.66 291.7 189.607 292.942C193.554 294.184 196.787 295.539 198.365 295.539C199.944 295.539 199.644 298.099 197.538 298.626C195.433 299.153 193.554 299.077 193.554 299.077C193.554 299.077 200.696 302.992 201.974 303.369C203.252 303.746 201.738 306.08 200.008 305.929C200.008 305.929 201.522 306.833 200.996 307.736C200.47 308.64 196.711 308.64 196.711 308.64C196.711 308.64 201.297 310.898 197.462 311.802C193.628 312.705 189.042 308.414 187.162 308.038C185.282 307.662 180.922 307.888 178.817 309.469C176.712 311.05 167.69 318.353 155.36 313.986C155.36 313.986 71.6727 317.382 63.3278 317.382C54.9829 317.382 49.9424 309.995 52.6181 295.766C55.2938 281.536 60.4811 270.92 60.4811 270.92L89.3505 272.952L81.871 290.845Z" fill="#FFBDA9"/>
<path d="M186.964 296.816C186.227 296.642 185.64 296.541 185.272 296.518C185.272 296.518 185.986 296.641 186.964 296.816Z" fill="#C97E6F"/>
<path d="M193.553 299.077C193.553 299.077 195.432 299.153 197.537 298.626C198.129 298.478 198.573 298.167 198.877 297.799C196.536 298.835 193.655 298.174 192.077 297.797C191.081 297.559 188.635 297.113 186.964 296.815C188.639 297.209 191.092 297.98 193.553 299.077Z" fill="#C97E6F"/>
<path d="M193.185 302.465C193.005 302.383 192.852 302.319 192.753 302.288C192.753 302.288 192.916 302.356 193.185 302.465Z" fill="#C97E6F"/>
<path d="M201.958 305.046C201.932 305.071 201.106 305.799 199.368 305.042C197.921 304.412 194.408 302.968 193.184 302.466C194.724 303.166 198.897 305.525 200.007 305.929C200.777 305.996 201.501 305.571 201.958 305.046Z" fill="#C97E6F"/>
<path d="M197.64 307.811C196.362 307.434 193.693 305.815 192.058 305.041C190.423 304.267 188.336 304.177 188.336 304.177C188.336 304.177 188.956 304.233 190.591 305.041C192.226 305.848 196.711 308.638 196.711 308.638C196.711 308.638 199.123 308.637 200.352 308.172C200.34 308.173 198.912 308.186 197.64 307.811Z" fill="#C97E6F"/>
<path d="M173.845 309.655C171.476 311.124 164.485 313.043 160.312 312.253C156.138 311.462 155.237 307.961 155.237 307.961L154.071 311.725C154.071 311.725 96.032 313.382 84.228 312.85C72.5605 312.325 54.361 312.06 51.9841 305.041C52.6362 313.187 57.0427 317.38 63.3269 317.38C71.6718 317.38 155.359 313.984 155.359 313.984C167.689 318.351 176.71 311.048 178.816 309.467C180.566 308.152 183.87 307.777 186.016 307.903C182.817 306.78 176.213 308.188 173.845 309.655Z" fill="#C97E6F"/>
<path d="M81.8711 290.845C81.8711 290.845 70.9973 289.365 68.8165 289.139L70.4705 282.364L84.2289 285.149L81.8711 290.845Z" fill="#C97E6F"/>
<path d="M52.8098 271.877C52.4004 272.938 52.6604 274.13 53.4723 274.925C58.5265 279.867 65.1605 286.598 71.9844 287.634C79.4277 288.763 91.8319 289.215 92.509 287.634C93.1861 286.052 95.6666 265.95 100.178 255.786C104.689 245.622 107.621 240.427 108.748 234.555C109.875 228.683 99.7259 214.904 95.2149 213.775C90.7039 212.645 80.3293 211.968 76.0437 215.807C71.7582 219.647 68.6005 234.329 63.6387 245.397C59.6364 254.326 54.6037 267.228 52.8098 271.877Z" fill="#3E96F4"/>
<path d="M80.7275 213.578C83.4309 212.906 86.2292 212.634 89.0284 212.641C90.4302 212.629 91.8328 212.76 93.2259 212.96C93.9246 213.05 94.6121 213.216 95.303 213.361C95.9914 213.596 96.7083 213.786 97.3292 214.162C97.9917 214.47 98.547 214.929 99.1387 215.336C99.6672 215.812 100.242 216.247 100.71 216.78C101.706 217.791 102.56 218.919 103.346 220.082C104.89 222.426 106.179 224.924 107.111 227.552C106.477 226.313 105.824 225.089 105.091 223.914C104.379 222.728 103.629 221.567 102.803 220.466C101.956 219.386 101.122 218.29 100.13 217.357C99.6672 216.856 99.1257 216.449 98.6196 216.002C98.0625 215.63 97.5365 215.201 96.9294 214.929C96.3593 214.572 95.7211 214.407 95.1018 214.181C94.4359 214.032 93.7717 213.875 93.0963 213.767C91.7499 213.524 90.3826 213.387 89.0094 213.303C87.6361 213.222 86.2542 213.218 84.8741 213.273C83.4887 213.303 82.1086 213.418 80.7275 213.578Z" fill="#1C69AF"/>
<path d="M58.4419 276.038C58.4791 272.43 66.089 239.344 72.811 220.904C69.9531 227.205 67.2826 237.271 63.6404 245.396C59.6364 254.326 54.6046 267.228 52.8107 271.877C52.4013 272.938 52.6604 274.13 53.4732 274.925C55.4087 276.819 57.5783 278.972 59.8998 280.969C59.7245 280.799 58.4065 279.408 58.4419 276.038Z" fill="#1B72B2"/>
<path d="M233.481 309.487H316.766C317.605 309.487 318.284 310.167 318.284 311.007V314.702C318.284 315.542 317.605 316.223 316.766 316.223H233.481V309.487Z" fill="#808A91"/>
<path d="M212.048 314.133V315.635C212.048 315.96 212.311 316.223 212.634 316.223H233.614C234.267 316.223 234.797 315.693 234.797 315.04V310.663C234.797 309.956 234.182 309.407 233.482 309.487L212.57 313.55C212.272 313.583 212.048 313.835 212.048 314.133Z" fill="#C1C9D1"/>
<path d="M379.03 167.728H223.372C220.223 167.728 217.411 169.706 216.345 172.673L182.303 267.346C180.879 272.229 184.446 275.888 190.179 276.506C191.057 276.601 195.239 274.719 201.805 271.626H340.964C344.113 271.626 346.924 269.648 347.991 266.68L378.743 181.157C383.942 178.44 386.907 176.886 386.907 176.886C386.907 176.886 388.83 167.728 379.03 167.728Z" fill="#C1C9D1"/>
<path d="M228.245 172.607H383.903C386.114 172.607 387.655 174.803 386.906 176.887L352.864 271.561C351.797 274.529 348.986 276.507 345.837 276.507H190.179C187.968 276.507 186.427 274.311 187.176 272.227L221.218 177.554C222.284 174.586 225.096 172.607 228.245 172.607Z" fill="#ECECEC"/>
<path d="M263.385 276.506L270.296 250.842L296.483 276.506H263.385Z" fill="#808A91"/>
<path d="M301.285 205.856C300.6 210.089 297.865 211.795 294.59 211.795C291.315 211.795 288.851 209.085 289.424 205.856C289.998 202.628 292.844 199.917 296.119 199.917C299.394 199.917 301.808 202.619 301.285 205.856Z" fill="#C1C9D1"/>
<path d="M228.131 260.752L230.132 255.186H227.616L225.614 260.752H228.131Z" fill="#808A91"/>
<path d="M233.429 260.752L235.431 255.186H232.914L230.913 260.752H233.429Z" fill="#808A91"/>
<path d="M238.726 260.752L240.728 255.186H238.212L236.21 260.752H238.726Z" fill="#808A91"/>
<path d="M244.025 260.752L246.026 255.186H243.51L241.509 260.752H244.025Z" fill="#808A91"/>
<path d="M319.282 260.752L321.284 255.186H318.768L316.766 260.752H319.282Z" fill="#808A91"/>
<path d="M324.581 260.752L326.582 255.186H324.066L322.065 260.752H324.581Z" fill="#808A91"/>
<path d="M329.879 260.752L331.881 255.186H329.365L327.363 260.752H329.879Z" fill="#808A91"/>
<path d="M335.177 260.752L337.178 255.186H334.663L332.661 260.752H335.177Z" fill="#808A91"/>
<path d="M315.948 307.073C314.412 302.65 295.786 242.459 295.786 242.459H271.875L270.296 250.842C270.296 250.842 286.327 302.65 287.863 307.073C287.98 307.411 288.092 307.749 288.196 308.088H288.195C289.6 312.413 285.893 312.394 281.719 312.394C277.544 312.394 239.551 312.394 239.551 312.394V316.223H281.719H309.803C318.253 316.223 317.484 311.497 315.948 307.073Z" fill="#9EA7AF"/>
<path d="M271.875 242.459C271.875 242.459 290.502 302.65 292.037 307.073C293.574 311.497 294.342 316.223 285.892 316.223H313.977C322.427 316.223 321.658 311.497 320.122 307.073C318.586 302.65 299.96 242.459 299.96 242.459H271.875Z" fill="#C1C9D1"/>
<path d="M277.73 242.459C279.583 242.374 281.435 242.331 283.288 242.27C285.141 242.206 286.993 242.193 288.845 242.152C290.698 242.123 292.55 242.068 294.403 242.068L299.961 242.033L300.271 242.032L300.367 242.333C301.142 244.757 301.906 247.184 302.634 249.623L304.85 256.929C306.276 261.816 307.703 266.701 309.008 271.626C307.296 266.828 305.709 261.992 304.12 257.156L301.813 249.878C301.033 247.456 300.29 245.022 299.556 242.585L299.962 242.885L294.404 242.85C292.552 242.849 290.699 242.795 288.847 242.766C286.994 242.725 285.141 242.711 283.29 242.648C281.435 242.588 279.583 242.545 277.73 242.459Z" fill="#F9F9F9"/>
<path d="M440.622 331H28.3486C24.2738 331 20.9711 327.693 20.9711 323.612C20.9711 319.531 24.2738 316.224 28.3486 316.224H440.622C444.697 316.224 448 319.532 448 323.612C448 327.692 444.696 331 440.622 331Z" fill="#ECECEC"/>
<path d="M440.622 331H28.3486C24.2738 331 20.9711 327.693 20.9711 323.612H448C448 327.692 444.696 331 440.622 331Z" fill="#C1C9D1"/>
<path d="M71.2949 146.435C75.6716 126.963 63.4571 107.625 44.0129 103.242C24.5688 98.8588 5.25815 111.091 0.881427 130.563C-3.4953 150.035 8.71926 169.374 28.1634 173.757C47.6075 178.14 66.9182 165.908 71.2949 146.435Z" fill="#ECECEC"/>
<path d="M121.099 80.2653C135.192 66.1521 135.192 43.2702 121.099 29.1571C107.006 15.044 84.1571 15.044 70.0643 29.1571C55.9715 43.2702 55.9715 66.1521 70.0643 80.2653C84.1571 94.3784 107.006 94.3784 121.099 80.2653Z" fill="#ECECEC"/>
<path d="M52.6605 128.135V158.464C52.6605 160.094 51.3373 161.419 49.7101 161.419H22.4635C20.8363 161.419 19.5132 160.094 19.5132 158.464V118.538C19.5132 116.909 20.8363 115.584 22.4635 115.584H40.1276L52.6605 128.135Z" fill="#678DF0"/>
<path d="M27.6128 138.599H44.5617V140.488H27.6128V138.599ZM27.6128 142.807H44.5617V144.696H27.6128V142.807ZM27.6128 147.024H44.5617V148.913H27.6128V147.024ZM27.6128 151.231H39.6715V153.12H27.6128V151.231Z" fill="white"/>
<path opacity="0.19" d="M41.8351 127.66L52.6605 136.441V128.187L46.5283 124.625L41.8351 127.66Z" fill="black"/>
<path d="M52.6605 128.135H43.077C41.4499 128.135 40.1267 126.81 40.1267 125.18V115.584L52.6605 128.135Z" fill="#ADC3F7"/>
<path d="M114.8 69.356H76.3651C74.8346 69.356 73.5944 68.1139 73.5944 66.5813V37.7705C73.5944 36.2379 74.8346 34.9958 76.3651 34.9958H114.8C116.33 34.9958 117.57 36.2379 117.57 37.7705V66.5813C117.57 68.1139 116.33 69.356 114.8 69.356Z" fill="#A6C2F6"/>
<path d="M101.102 76.8143H90.0623L92.5479 67.2249H98.6162L101.102 76.8143Z" fill="#C1D4F6"/>
<path d="M105.396 79.1115H85.7689C85.2394 79.1115 84.8102 78.6816 84.8102 78.1514C84.8102 76.1448 86.4348 74.5178 88.4385 74.5178H102.726C104.73 74.5178 106.355 76.1448 106.355 78.1514C106.355 78.6816 105.925 79.1115 105.396 79.1115Z" fill="white"/>
<path d="M102.726 74.5168H96.7894C98.4848 74.5168 99.859 75.8929 99.859 77.5908V79.1113H105.396C105.925 79.1113 106.355 78.6815 106.355 78.1513C106.355 76.1438 104.73 74.5168 102.726 74.5168Z" fill="#DDE6F7"/>
<path d="M114.8 34.9958H108.326C109.856 34.9958 111.096 36.2379 111.096 37.7705V66.5813C111.096 68.1139 109.856 69.356 108.326 69.356H114.8C116.33 69.356 117.571 68.1139 117.571 66.5813V37.7705C117.571 36.2379 116.33 34.9958 114.8 34.9958Z" fill="#8EAFF5"/>
<path d="M73.5944 64.1094V66.5813C73.5944 68.114 74.8346 69.356 76.3651 69.356H114.8C116.33 69.356 117.57 68.114 117.57 66.5813V64.1094H73.5944Z" fill="white"/>
<path d="M111.096 64.1094V66.5813C111.096 68.114 109.856 69.356 108.326 69.356H114.8C116.33 69.356 117.571 68.114 117.571 66.5813V64.1094H111.096Z" fill="#DDE6F7"/>
<path d="M93.4496 31.9989C92.0236 30.5709 90.0061 30.0381 88.1733 30.4437C87.6819 30.5527 87.5074 31.1659 87.8633 31.5231L90.6167 34.2805C91.4268 35.0918 91.4268 36.4065 90.6167 37.217C89.8066 38.0283 88.4938 38.0283 87.6845 37.217L84.9311 34.4596C84.5752 34.1032 83.962 34.2771 83.8532 34.7701C83.4481 36.6063 83.9802 38.6259 85.4061 40.0539C86.4347 41.0841 87.7605 41.6376 89.107 41.7129C89.1614 41.7163 89.2158 41.7215 89.2702 41.7276C90.6685 41.8824 91.9692 42.5172 92.9642 43.5136L105.163 55.7299C106.251 56.8197 108.015 56.8197 109.102 55.7299C110.189 54.6401 110.19 52.8739 109.102 51.7849L96.9034 39.5687C95.9085 38.5723 95.2745 37.2697 95.1199 35.8694C95.1139 35.8149 95.1087 35.7604 95.1053 35.7059C95.031 34.3566 94.4791 33.029 93.4496 31.9989Z" fill="#436ABF"/>
<path d="M106.944 48.6478C106.591 48.3269 106.131 48.1989 105.686 48.2508C105.621 48.2586 105.557 48.2378 105.512 48.192L105.5 48.1799C105.429 48.1063 105.423 47.9913 105.488 47.9126C105.564 47.8175 105.659 47.6946 105.7 47.6159C106 47.0338 105.921 46.3012 105.438 45.816C104.907 45.2841 104.17 45.1509 103.563 45.4337C103.54 45.4441 103.489 45.4605 103.468 45.4354C103.447 45.4095 103.47 45.3637 103.485 45.3438C103.928 44.7227 103.908 43.8552 103.373 43.2826C102.875 42.749 102.107 42.6305 101.491 42.9315C101.484 42.9349 101.434 42.96 101.418 42.9393C101.391 42.9064 101.436 42.8614 101.436 42.8614L101.598 42.6988C102.213 42.0839 102.27 41.0823 101.685 40.4388C101.061 39.7529 99.9972 39.7364 99.3494 40.3851L95.4283 44.305C95.3981 44.3353 95.367 44.3629 95.335 44.388L95.3152 44.4079C94.8928 44.8309 94.2692 44.8187 93.8469 44.3958L92.8468 43.3977C91.933 44.3664 91.3949 45.6525 91.5521 46.9785L91.7188 48.3805C91.8198 49.2333 91.5253 50.0862 90.919 50.6933L86.6222 54.9964L93.5558 61.94L98.6637 56.8248C98.9141 56.574 99.2104 56.3725 99.5368 56.2323L101.821 55.248C102.979 54.6781 104.036 53.9204 104.949 53.007L107 50.9848C107.648 50.3353 107.629 49.2723 106.944 48.6478Z" fill="#F5DBCC"/>
<path d="M106.944 48.6478C106.591 48.3269 106.131 48.1989 105.686 48.2508C105.621 48.2586 105.557 48.2378 105.512 48.192L105.5 48.1799C105.429 48.1063 105.423 47.9913 105.488 47.9126C105.564 47.8175 105.659 47.6946 105.7 47.6159C106 47.0338 105.921 46.3012 105.437 45.816C104.907 45.2841 104.17 45.1509 103.563 45.4337L100.403 48.4549C99.4901 49.3691 98.4339 50.1259 97.2757 50.6959L94.9912 51.6802C94.6656 51.8203 94.3694 52.0219 94.118 52.2727L92.3984 53.9948C92.3984 53.9948 93.5981 55.1962 92.5211 56.2176C92.0452 56.6942 91.3275 56.779 90.7652 56.4736L89.4377 57.8169L93.5558 61.9409L98.6636 56.8257C98.9141 56.5748 99.2103 56.3733 99.5368 56.2332L101.821 55.2489C102.979 54.6789 104.036 53.9212 104.949 53.0079L107 50.9857C107.648 50.3353 107.629 49.2723 106.944 48.6478Z" fill="#F0C9BC"/>
<path d="M92.231 64.1092L96.8542 59.4793L89.1744 51.7883L76.8712 64.1092H92.231Z" fill="#678DF0"/>
<path opacity="0.19" d="M92.5212 56.2169C92.0453 56.6934 91.3275 56.7782 90.7653 56.4729L83.2141 64.1102H92.231L96.8543 59.4802L92.9331 55.5535C92.877 55.7732 92.7509 55.9989 92.5212 56.2169Z" fill="black"/>
<path d="M87.5903 51.2789C87.0108 51.8592 87.0108 52.7994 87.5903 53.3789L94.9696 60.7689C95.5491 61.3492 96.4879 61.3492 97.0666 60.7689C97.6461 60.1885 97.6461 59.2483 97.0666 58.6688L89.6873 51.2789C89.1086 50.6994 88.1698 50.6994 87.5903 51.2789Z" fill="#8FB2FF"/>
<path d="M92.3985 53.9939C92.3985 53.9939 93.5981 55.1953 92.5211 56.2168C92.0452 56.6933 91.3275 56.7781 90.7652 56.4728L90.722 56.516L94.9696 60.7697C95.5492 61.3501 96.488 61.3501 97.0667 60.7697C97.6453 60.1894 97.6462 59.2492 97.0667 58.6697L92.3985 53.9939Z" fill="#678DF0"/>
<path d="M217.652 21.3567V34.9499C217.652 38.3145 216.112 42.2196 213.317 45.9457C210.06 50.2876 205.262 54.1201 199.442 57.0289L198.888 57.3048L198.335 57.0289C192.515 54.1201 187.717 50.2876 184.46 45.9457C181.665 42.2187 180.125 38.3136 180.125 34.9499V21.3567L189.254 14.9727H208.522L217.652 21.3567Z" fill="#436ABF"/>
<path opacity="0.19" d="M217.652 21.3567V34.9499C217.652 38.3145 216.112 42.2196 213.317 45.9457C210.06 50.2876 205.262 54.1201 199.442 57.0289L198.888 57.3048V14.9727H208.522L217.652 21.3567Z" fill="black"/>
<path d="M206.964 19.9338H190.813L185.08 23.9428V34.9498C185.08 38.733 188.797 46.1247 198.889 51.7165C208.982 46.1247 212.697 38.733 212.697 34.9498V23.9428L206.964 19.9338Z" fill="#678DF0"/>
<path opacity="0.19" d="M212.697 23.9428V34.9498C212.697 38.733 208.981 46.1247 198.889 51.7165V19.9338H206.964L212.697 23.9428Z" fill="black"/>
<path d="M207.354 18.6936H190.423L183.841 23.2967V34.9499C183.841 37.3691 185.065 40.4431 187.197 43.3838C189.794 46.9638 193.629 50.2211 198.289 52.802L198.888 53.1342L199.487 52.802C204.147 50.2202 207.983 46.9638 210.579 43.3838C212.711 40.4439 213.935 37.3691 213.935 34.9499V23.2967L207.354 18.6936ZM211.459 34.9499C211.459 38.2496 208.097 44.9874 198.889 50.2929C189.679 44.9883 186.319 38.2496 186.319 34.9499V24.5898L191.203 21.1742H206.575L211.459 24.5898V34.9499Z" fill="#EFF4F9"/>
<path d="M213.936 23.2967V34.9499C213.936 37.3691 212.712 40.4431 210.58 43.3838C207.983 46.9638 204.148 50.2211 199.488 52.802L198.889 53.1342V50.292C208.098 44.9874 211.459 38.2488 211.459 34.9491V24.5898L206.575 21.1742H198.889V18.6936H207.354L213.936 23.2967Z" fill="#CCDFEA"/>
<path d="M206.795 29.3798L198.889 37.5179V33.9604L205.02 27.6499L206.795 29.3798Z" fill="#CCDFEA"/>
<path d="M206.795 29.3798L198.889 37.5179L198.873 37.5352L196.862 39.6041L190.983 34.0971L192.675 32.285L196.78 36.1305L198.873 33.9777L198.889 33.9604L205.02 27.6499L206.795 29.3798Z" fill="#EFF4F9"/>
<path d="M299.644 121.794C319.112 117.522 331.436 98.2551 327.171 78.759C322.906 59.2629 303.667 46.9207 284.199 51.192C264.73 55.4632 252.406 74.7305 256.671 94.2266C260.936 113.723 280.176 126.065 299.644 121.794Z" fill="#ECECEC"/>
<path d="M276.152 90.1248H307.71V97.3807H276.152V90.1248ZM276.152 75.613H307.71V82.8689H276.152V75.613Z" fill="#436ABF"/>
<path opacity="0.19" d="M291.931 75.613H307.71V82.8689H291.931V75.613ZM291.931 90.1248H307.71V97.3807H291.931V90.1248Z" fill="black"/>
<path d="M311.333 65.8574H272.529C271.853 65.8574 271.322 66.3894 271.322 67.0666V76.8221C271.322 77.4993 271.853 78.0313 272.529 78.0313H311.333C312.009 78.0313 312.54 77.4993 312.54 76.8221V67.0675C312.541 66.3894 312.01 65.8574 311.333 65.8574ZM311.333 80.4505H272.529C271.853 80.4505 271.322 80.9824 271.322 81.6597V91.3339C271.322 92.0111 271.853 92.543 272.529 92.543H311.333C312.009 92.543 312.54 92.0111 312.54 91.3339V81.6597C312.541 80.9824 312.01 80.4505 311.333 80.4505ZM311.333 94.9622H272.529C271.853 94.9622 271.322 95.4942 271.322 96.1714V105.927C271.322 106.604 271.853 107.136 272.529 107.136H311.333C312.009 107.136 312.54 106.604 312.54 105.927V96.1714C312.541 95.4942 312.01 94.9622 311.333 94.9622Z" fill="#678DF0"/>
<path opacity="0.19" d="M312.541 67.0675V76.823C312.541 77.5002 312.01 78.0321 311.333 78.0321H291.932V65.8574H311.333C312.01 65.8574 312.541 66.3894 312.541 67.0675ZM312.541 81.6597V91.3339C312.541 92.0111 312.01 92.543 311.333 92.543H291.932V80.4505H311.333C312.01 80.4505 312.541 80.9824 312.541 81.6597ZM312.541 96.1714V105.927C312.541 106.604 312.01 107.136 311.333 107.136H291.932V94.9622H311.333C312.01 94.9622 312.541 95.4942 312.541 96.1714Z" fill="black"/>
<path d="M278.567 101.009C278.567 101.677 278.026 102.218 277.36 102.218C276.693 102.218 276.152 101.677 276.152 101.009C276.152 100.341 276.693 99.7999 277.36 99.7999C278.026 99.7999 278.567 100.341 278.567 101.009ZM283.398 101.009C283.398 101.677 282.857 102.218 282.19 102.218C281.523 102.218 280.983 101.677 280.983 101.009C280.983 100.341 281.523 99.7999 282.19 99.7999C282.857 99.7999 283.398 100.341 283.398 101.009ZM288.227 101.009C288.227 101.677 287.687 102.218 287.02 102.218C286.353 102.218 285.812 101.677 285.812 101.009C285.812 100.341 286.353 99.7999 287.02 99.7999C287.687 99.7999 288.227 100.341 288.227 101.009ZM278.567 86.4973C278.567 87.165 278.026 87.7065 277.36 87.7065C276.693 87.7065 276.152 87.165 276.152 86.4973C276.152 85.8296 276.693 85.2881 277.36 85.2881C278.026 85.2881 278.567 85.8287 278.567 86.4973ZM283.398 86.4973C283.398 87.165 282.857 87.7065 282.19 87.7065C281.523 87.7065 280.983 87.165 280.983 86.4973C280.983 85.8296 281.523 85.2881 282.19 85.2881C282.857 85.2881 283.398 85.8287 283.398 86.4973ZM288.227 86.4973C288.227 87.165 287.687 87.7065 287.02 87.7065C286.353 87.7065 285.812 87.165 285.812 86.4973C285.812 85.8296 286.353 85.2881 287.02 85.2881C287.687 85.2881 288.227 85.8287 288.227 86.4973ZM278.567 71.9855C278.567 72.6533 278.026 73.1947 277.36 73.1947C276.693 73.1947 276.152 72.6533 276.152 71.9855C276.152 71.3178 276.693 70.7764 277.36 70.7764C278.026 70.7755 278.567 71.3169 278.567 71.9855ZM283.398 71.9855C283.398 72.6533 282.857 73.1947 282.19 73.1947C281.523 73.1947 280.983 72.6533 280.983 71.9855C280.983 71.3178 281.523 70.7764 282.19 70.7764C282.857 70.7755 283.398 71.3169 283.398 71.9855ZM288.227 71.9855C288.227 72.6533 287.687 73.1947 287.02 73.1947C286.353 73.1947 285.812 72.6533 285.812 71.9855C285.812 71.3178 286.353 70.7764 287.02 70.7764C287.687 70.7755 288.227 71.3169 288.227 71.9855Z" fill="white"/>
</g>
<defs>
<clipPath id="clip0_1_2547">
<rect width="448" height="331" fill="white"/>
</clipPath>
</defs>
</svg>
