<svg width="148" height="50" viewBox="0 0 148 50" fill="none" xmlns="http://www.w3.org/2000/svg">
<path d="M73.1989 34.0877L67.0975 14.8342H73.7104L77.3325 28.8112L75.3648 28.8526L79.6183 14.8342H85.7611L90.0514 28.8526L88.0837 28.8112L91.7473 14.8342H98.3602L92.2588 34.0877H86.0791L81.9823 20.8204H83.5169L79.3049 34.0877H73.2035H73.1989Z" fill="#1D1D1B"/>
<path d="M108.162 34.4841C106.351 34.4841 104.757 34.0509 103.379 33.1846C102.001 32.3182 100.914 31.1293 100.112 29.6224C99.3099 28.1155 98.909 26.3873 98.909 24.4473C98.909 22.5072 99.3099 20.8205 100.112 19.309C100.914 17.8021 102.006 16.6132 103.397 15.7468C104.789 14.8804 106.365 14.4473 108.121 14.4473C109.356 14.4473 110.471 14.6639 111.467 15.097C112.462 15.5302 113.282 16.1339 113.927 16.9081C114.573 17.6823 114.96 18.5809 115.089 19.6039V29.2906C114.932 30.3136 114.531 31.2214 113.886 32.0049C113.241 32.7929 112.421 33.4012 111.425 33.8343C110.425 34.2675 109.338 34.4841 108.158 34.4841H108.162ZM109.619 28.3827C110.748 28.3827 111.651 28.0141 112.333 27.2814C113.015 26.5486 113.356 25.6039 113.356 24.4473C113.356 23.7145 113.199 23.0509 112.881 22.4611C112.568 21.8712 112.135 21.4058 111.582 21.0648C111.029 20.7238 110.388 20.5532 109.651 20.5532C108.914 20.5532 108.264 20.7238 107.702 21.0648C107.135 21.4058 106.692 21.8712 106.361 22.4611C106.033 23.0509 105.868 23.7145 105.868 24.4473C105.868 25.18 106.024 25.885 106.338 26.4749C106.651 27.0648 107.098 27.5302 107.674 27.8712C108.25 28.2122 108.895 28.3827 109.605 28.3827H109.619ZM113.121 34.0924V28.8943L114.107 24.2491L113.121 19.5625V14.839H119.895V34.0924H113.121Z" fill="#1D1D1B"/>
<path d="M122.255 20.5442V14.8345H137.609V20.5442H122.255ZM126.467 34.088V6.88062H133.356V34.088H126.467Z" fill="#1D1D1B"/>
<path d="M143.438 12.6316C142.388 12.6316 141.521 12.2722 140.839 11.5487C140.157 10.8252 139.816 9.95421 139.816 8.93117C139.816 7.90813 140.157 7.04177 140.839 6.33209C141.521 5.62242 142.388 5.26758 143.438 5.26758C144.489 5.26758 145.314 5.62242 145.996 6.33209C146.678 7.04177 147.019 7.90813 147.019 8.93117C147.019 9.95421 146.678 10.8298 145.996 11.5487C145.314 12.2722 144.462 12.6316 143.438 12.6316ZM139.936 34.0878V14.8344H146.826V34.0878H139.936Z" fill="#1D1D1B"/>
<path d="M16.8477 39.7834H33.9583L44.1841 50V39.7834H48.5527C53.7647 39.7834 58.0274 35.5208 58.0274 30.3088V16.8526C58.0274 11.6406 53.7647 7.37793 48.5527 7.37793H16.8477C11.6357 7.37793 7.37305 11.6406 7.37305 16.8526V30.3088C7.37305 35.5208 11.6357 39.7834 16.8477 39.7834Z" fill="#00E785"/>
<path d="M38.6636 47.0829L27.6682 36.0967H11.318C5.07834 36.0967 0 31.0184 0 24.7788V11.318C0 5.07834 5.07834 0 11.318 0H43.023C49.2626 0 54.341 5.07834 54.341 11.318V24.7742C54.341 31.0138 49.2626 36.0921 43.023 36.0921H38.6543V32.4055H43.023C47.2304 32.4055 50.6543 28.9815 50.6543 24.7742V11.318C50.6543 7.11059 47.2304 3.68663 43.023 3.68663H11.318C7.11059 3.68663 3.68663 7.11059 3.68663 11.318V24.7742C3.68663 28.9815 7.11059 32.4055 11.318 32.4055H29.1935L38.6958 41.8986L38.6636 47.0783V47.0829Z" fill="#1D1D1B"/>
</svg>
