<svg width="49" height="49" viewBox="0 0 49 49" fill="none" xmlns="http://www.w3.org/2000/svg">
<path d="M41.9876 28.0477V12.6153C41.9882 12.4695 41.9502 12.3261 41.8775 12.1997C41.8049 12.0733 41.7001 11.9683 41.5738 11.8954L21.5076 0.310812C21.3818 0.238186 21.2391 0.199951 21.0939 0.199951C20.9486 0.199951 20.8059 0.238186 20.6802 0.310812L0.613938 11.8954C0.487662 11.9683 0.382893 12.0733 0.310238 12.1997C0.237583 12.3261 0.199623 12.4695 0.200202 12.6153V35.7846C0.199623 35.9304 0.237583 36.0737 0.310238 36.2002C0.382893 36.3266 0.487662 36.4316 0.613938 36.5045L20.6802 48.0891C20.8059 48.1617 20.9486 48.1999 21.0939 48.1999C21.2391 48.1999 21.3818 48.1617 21.5076 48.0891L29.0459 43.7366C29.9855 45.053 31.2154 46.1356 32.6405 46.9006C34.0655 47.6656 35.6474 48.0924 37.2638 48.148C38.8803 48.2036 40.4878 47.8866 41.9621 47.2214C43.4363 46.5563 44.7377 45.5608 45.7656 44.3121C46.7935 43.0633 47.5203 41.5948 47.8898 40.0202C48.2592 38.4456 48.2614 36.8071 47.8961 35.2315C47.5309 33.6559 46.808 32.1855 45.7834 30.9341C44.7589 29.6826 43.4601 28.6837 41.9876 28.0146V28.0477ZM21.0939 1.98231L39.5052 12.6153L30.2706 17.9443L13.175 6.55823L21.0939 1.98231ZM21.0939 23.2484L2.68262 12.6153L11.578 7.47673L28.6653 18.871L21.0939 23.2484ZM1.85515 14.0469L20.2664 24.6799V45.9377L1.85515 35.3046V14.0469ZM21.9214 45.9377V24.6799L29.3686 20.3522V26.7982C29.3686 27.0177 29.4558 27.2281 29.611 27.3833C29.7662 27.5385 29.9766 27.6257 30.1961 27.6257C30.4155 27.6257 30.626 27.5385 30.7812 27.3833C30.9364 27.2281 31.0236 27.0177 31.0236 26.7982V19.4006L40.2913 14.0469V27.4602C39.4148 27.2207 38.5105 27.0983 37.602 27.0961C35.8113 27.1007 34.0513 27.5617 32.4884 28.4355C30.9254 29.3094 29.611 30.5673 28.6693 32.0904C27.7276 33.6134 27.1897 35.3514 27.1065 37.1402C27.0233 38.9289 27.3974 40.7094 28.1936 42.3133L21.9214 45.9377ZM37.6433 46.5417C35.884 46.5417 34.1642 46.02 32.7014 45.0426C31.2385 44.0651 30.0984 42.6759 29.4251 41.0505C28.7519 39.4251 28.5757 37.6365 28.9189 35.911C29.2622 34.1855 30.1094 32.6005 31.3534 31.3564C32.5974 30.1124 34.1824 29.2652 35.908 28.922C37.6335 28.5787 39.422 28.7549 41.0474 29.4282C42.6728 30.1014 44.0621 31.2416 45.0395 32.7044C46.017 34.1672 46.5387 35.8871 46.5387 37.6464C46.5365 40.0049 45.5986 42.2662 43.9309 43.9339C42.2631 45.6016 40.0019 46.5395 37.6433 46.5417Z" fill="#3DA4C2" stroke="#3DA4C2" stroke-width="0.4"/>
<path d="M41.5741 33.3518L36.4437 40.1205L33.7544 36.9596C33.6129 36.7895 33.4096 36.6826 33.1892 36.6624C32.9689 36.6423 32.7495 36.7105 32.5794 36.852C32.4093 36.9936 32.3025 37.1969 32.2823 37.4172C32.2621 37.6376 32.3303 37.8569 32.4719 38.027L35.7817 41.9823C35.8594 42.0732 35.9559 42.1461 36.0644 42.1961C36.173 42.2461 36.2911 42.272 36.4106 42.272C36.5349 42.2682 36.6567 42.2365 36.767 42.1792C36.8773 42.1219 36.9733 42.0404 37.0478 41.941L42.7987 34.353C42.9065 34.2813 42.996 34.1853 43.0599 34.0727C43.1238 33.9601 43.1604 33.8341 43.1668 33.7048C43.1731 33.5754 43.1491 33.4464 43.0965 33.3281C43.0439 33.2098 42.9643 33.1055 42.8641 33.0235C42.7638 32.9416 42.6458 32.8843 42.5193 32.8563C42.3929 32.8283 42.2617 32.8303 42.1362 32.8622C42.0108 32.8942 41.8945 32.9551 41.7969 33.0401C41.6993 33.1251 41.6229 33.2319 41.5741 33.3518Z" fill="#3DA4C2" stroke="#3DA4C2" stroke-width="0.4"/>
</svg>
