<svg width="64" height="64" viewBox="0 0 64 64" fill="none" xmlns="http://www.w3.org/2000/svg">
<rect width="64" height="64" rx="8" fill="#3E96F4"/>
<path fill-rule="evenodd" clip-rule="evenodd" d="M39.625 20C42.04 20 44 21.9204 44 24.2861V39.7139C44 42.0796 42.04 44 39.625 44H24.375C21.96 44 20 42.0796 20 39.7139V24.2861C20 21.9204 21.96 20 24.375 20H39.625ZM24.5205 37.8926C23.6845 37.8926 23.0002 38.5629 23 39.3818C23 40.2008 23.6991 40.8709 24.5352 40.8711C25.3713 40.8711 26.0557 40.2009 26.0557 39.3818C26.0555 38.5629 25.3712 37.8926 24.5352 37.8926H24.5205ZM30.5859 37.8926C29.7501 37.8928 29.0666 38.563 29.0664 39.3818C29.0664 40.2008 29.75 40.8708 30.5859 40.8711H39.4795C40.3157 40.8711 41 40.2009 41 39.3818C40.9998 38.5629 40.3155 37.8926 39.4795 37.8926H30.5859ZM24.5205 30.4463C23.6844 30.4463 23.0001 31.1165 23 31.9355C23 32.7545 23.6991 33.4246 24.5352 33.4248C25.3713 33.4248 26.0557 32.7547 26.0557 31.9355C26.0555 31.1165 25.3713 30.4463 24.5352 30.4463H24.5205ZM30.5859 30.4463C29.75 30.4465 29.0665 31.1167 29.0664 31.9355C29.0664 32.7545 29.75 33.4246 30.5859 33.4248H39.4795C40.3157 33.4248 41 32.7547 41 31.9355C40.9999 31.1165 40.3156 30.4463 39.4795 30.4463H30.5859ZM24.5205 23C23.6843 23 23 23.6702 23 24.4893C23 25.3082 23.6991 25.9783 24.5352 25.9785C25.3713 25.9785 26.0557 25.3084 26.0557 24.4893C26.0556 23.6702 25.3713 23 24.5352 23H24.5205ZM30.5859 23C29.75 23.0002 29.0664 23.6703 29.0664 24.4893C29.0664 25.3082 29.75 25.9783 30.5859 25.9785H39.4795C40.3157 25.9785 41 25.3084 41 24.4893C41 23.6702 40.3157 23 39.4795 23H30.5859Z" fill="white"/>
</svg>
