<svg width="64" height="64" viewBox="0 0 64 64" fill="none" xmlns="http://www.w3.org/2000/svg">
<rect width="64" height="64" rx="8" fill="#3E96F4"/>
<path d="M42.9502 48H19.0498C16.8498 48 15 46.2166 15 44.0166C15 41.8166 16.8498 40.0332 19.0498 40.0332H42.9502C45.1502 40.0332 47 41.8166 47 44.0166C47 46.2166 45.1502 48 42.9502 48Z" stroke="white" stroke-width="1.6" stroke-miterlimit="10" stroke-linecap="round" stroke-linejoin="round"/>
<path d="M34.9834 40.0332V32.0664H42.9502V40.0332" stroke="white" stroke-width="1.6" stroke-miterlimit="10" stroke-linecap="round" stroke-linejoin="round"/>
<path d="M19.0498 40.0332V32.0664H27.0166V40.0332" stroke="white" stroke-width="1.6" stroke-miterlimit="10" stroke-linecap="round" stroke-linejoin="round"/>
<path d="M34.9834 36.0498L31 32.0664V28.0166L34.9834 24.0332H42.9502L47 28.0166V32.0664L42.9502 36.0498" stroke="white" stroke-width="1.6" stroke-miterlimit="10" stroke-linecap="round" stroke-linejoin="round"/>
<path d="M31.0005 44.2126C31.1085 44.2125 31.1958 44.1244 31.1958 44.0164C31.1957 43.9084 31.1084 43.8212 31.0005 43.821C30.8924 43.821 30.8043 43.9083 30.8042 44.0164C30.8042 44.1245 30.8923 44.2126 31.0005 44.2126Z" fill="white" stroke="white" stroke-width="1.6"/>
<path d="M23.0337 44.2126C23.1417 44.2125 23.229 44.1244 23.229 44.0164C23.2289 43.9084 23.1416 43.8212 23.0337 43.821C22.9256 43.821 22.8375 43.9083 22.8374 44.0164C22.8374 44.1245 22.9255 44.2126 23.0337 44.2126Z" fill="white" stroke="white" stroke-width="1.6"/>
<path d="M19.0498 44.2126C19.1578 44.2125 19.2451 44.1244 19.2451 44.0164C19.245 43.9084 19.1578 43.8212 19.0498 43.821C18.9417 43.821 18.8536 43.9083 18.8535 44.0164C18.8535 44.1245 18.9417 44.2126 19.0498 44.2126Z" fill="white" stroke="white" stroke-width="1.6"/>
<path d="M34.9839 44.2126C35.0919 44.2125 35.1792 44.1244 35.1792 44.0164C35.1791 43.9084 35.0918 43.8212 34.9839 43.821C34.8758 43.821 34.7877 43.9083 34.7876 44.0164C34.7876 44.1245 34.8757 44.2126 34.9839 44.2126Z" fill="white" stroke="white" stroke-width="1.6"/>
<path d="M27.0171 44.2126C27.1251 44.2125 27.2124 44.1244 27.2124 44.0164C27.2123 43.9084 27.125 43.8212 27.0171 43.821C26.909 43.821 26.8209 43.9083 26.8208 44.0164C26.8208 44.1245 26.9089 44.2126 27.0171 44.2126Z" fill="white" stroke="white" stroke-width="1.6"/>
<path d="M38.9673 44.2126C39.0753 44.2125 39.1626 44.1244 39.1626 44.0164C39.1625 43.9084 39.0752 43.8212 38.9673 43.821C38.8592 43.821 38.7711 43.9083 38.771 44.0164C38.771 44.1245 38.8591 44.2126 38.9673 44.2126Z" fill="white" stroke="white" stroke-width="1.6"/>
<path d="M42.9507 44.2126C43.0587 44.2125 43.146 44.1244 43.146 44.0164C43.1459 43.9084 43.0586 43.8212 42.9507 43.821C42.8426 43.821 42.7545 43.9083 42.7544 44.0164C42.7544 44.1245 42.8425 44.2126 42.9507 44.2126Z" fill="white" stroke="white" stroke-width="1.6"/>
<path d="M36.9751 16V24.0332" stroke="white" stroke-width="1.6" stroke-miterlimit="10" stroke-linecap="round" stroke-linejoin="round"/>
<path d="M40.9585 16V24.0332" stroke="white" stroke-width="1.6" stroke-miterlimit="10" stroke-linecap="round" stroke-linejoin="round"/>
<path d="M31 16H47" stroke="white" stroke-width="1.6" stroke-miterlimit="10" stroke-linecap="round" stroke-linejoin="round"/>
</svg>
