<svg width="64" height="55" viewBox="0 0 64 55" fill="none" xmlns="http://www.w3.org/2000/svg">
<path fill-rule="evenodd" clip-rule="evenodd" d="M0 20.1987C0 9.05613 9.05613 0 20.1987 0C31.3265 0 40.3974 9.05613 40.3974 20.1987C40.3974 26.063 37.8891 31.3534 33.8883 35.0497L37.2171 39.155C38.4749 38.4003 39.9251 37.9564 41.4936 37.9564C43.0326 37.9564 44.5271 38.3855 45.8293 39.1994L50.8013 33.2211H49.7803V31.1347L48.3153 32.5996L43.299 27.5833L44.7639 26.1183H42.6775V19.0154H44.7639L43.299 17.5505L48.3301 12.5341L49.7951 13.9991V11.9126H56.8979V13.9991L58.3629 12.5341L63.3793 17.5653L61.9143 19.0302H64.0008V26.1331H61.9143L63.3793 27.5981L58.3629 32.6144L56.8979 31.1495V33.2359H53.9088L47.6642 40.7235C49.0256 42.2477 49.7951 44.2158 49.7951 46.2578C49.7951 50.8303 46.0809 54.5445 41.5084 54.5445C36.936 54.5445 33.2218 50.8303 33.2218 46.2578C33.2218 44.1862 34.0061 42.1885 35.4118 40.6643L32.0665 36.547C28.7331 38.977 24.631 40.4122 20.1987 40.4122C9.05613 40.4122 0 31.3413 0 20.1987ZM2.4416 20.1987C2.4416 29.9947 10.4027 37.9558 20.1987 37.9558C29.9799 37.9558 37.9558 29.9947 37.9558 20.1987C37.9558 10.4027 29.9947 2.4416 20.1987 2.4416C10.4027 2.4416 2.4416 10.4027 2.4416 20.1987ZM33.2215 11.9124H26.1187V28.4857H23.751V7.17719H16.6482V28.4857H14.2806V16.6477H7.17773V30.8533H33.2215V11.9124ZM11.913 28.4857H9.54535V19.0153H11.913V28.4857ZM19.0158 9.5448H21.3834V28.4857H19.0158V9.5448ZM30.8539 28.4857H28.4863V14.28H30.8539V28.4857ZM42.692 4.80957H45.0596V7.17719H42.692V4.80957ZM47.4272 4.80957H49.7948V7.17719H47.4272V4.80957ZM52.1624 4.80957H54.5301V7.17719H52.1624V4.80957ZM40.3244 46.9383L38.8002 45.4142L37.1281 47.0863L40.3392 50.2974L45.9178 44.7187L44.2457 43.0466L40.3244 46.9383ZM53.3462 19.0153C51.393 19.0153 49.7948 20.6134 49.7948 22.5667C49.7948 24.52 51.393 26.1181 53.3462 26.1181C55.2995 26.1181 56.8977 24.52 56.8977 22.5667C56.8977 20.6134 55.2995 19.0153 53.3462 19.0153ZM53.3462 23.7505C52.6952 23.7505 52.1624 23.2178 52.1624 22.5667C52.1624 21.9156 52.6952 21.3829 53.3462 21.3829C53.9973 21.3829 54.5301 21.9156 54.5301 22.5667C54.5301 23.2178 53.9973 23.7505 53.3462 23.7505ZM41.5084 52.1621C38.2382 52.1621 35.5894 49.5133 35.5894 46.243C35.5894 42.9728 38.2382 40.324 41.5084 40.324C44.7787 40.324 47.4275 42.9728 47.4275 46.243C47.4275 49.5133 44.7639 52.1621 41.5084 52.1621ZM61.6184 23.7507H59.2508L58.3629 25.8963L60.0498 27.5833L58.3629 29.2702L56.676 27.5833L54.5303 28.4711V30.8535H52.1627V28.4563L50.0171 27.5685L48.3301 29.2554L46.658 27.5833L48.3449 25.8963L47.4571 23.7507H45.0599V21.3831H47.4423L48.3301 19.2374L46.6432 17.5505L48.3153 15.8784L50.0023 17.5653L52.1479 16.6774V14.295H54.5155V16.6774L56.6612 17.5653L58.3481 15.8784L60.035 17.5505L58.3481 19.2374L59.236 21.3831H61.6184V23.7507Z" fill="url(#paint0_linear_1_962)"/>
<defs>
<linearGradient id="paint0_linear_1_962" x1="9.90719" y1="6.81426" x2="46.9619" y2="49.913" gradientUnits="userSpaceOnUse">
<stop stop-color="#FE5B52"/>
<stop offset="1" stop-color="#3E96F4"/>
</linearGradient>
</defs>
</svg>
