<svg width="92" height="92" viewBox="0 0 92 92" fill="none" xmlns="http://www.w3.org/2000/svg">
<g filter="url(#filter0_d_0_403)">
<circle cx="42" cy="42" r="42" transform="matrix(1 0 0 -1 4 88)" fill="url(#paint0_radial_0_403)"/>
</g>
<path fill-rule="evenodd" clip-rule="evenodd" d="M63.691 68.9155C65.2176 69.243 66.7489 68.3184 67.1578 66.7935L68.1167 63.2144L68.1382 63.1138C68.2189 62.6137 67.9096 62.1237 67.4097 61.9897C66.9098 61.8561 66.3963 62.1256 66.2164 62.5991L66.1851 62.6968L65.2261 66.2759C65.0985 66.7513 64.6324 67.0452 64.1568 66.9683L64.0611 66.9478L56.522 64.9282C56.015 64.792 55.7143 64.2704 55.8501 63.7632L60.0923 47.9312L60.1216 47.8384C60.2929 47.3882 60.7811 47.1323 61.2564 47.2593L68.7955 49.2788L68.8882 49.3091C69.3086 49.4688 69.5603 49.9043 69.4888 50.3481L69.4683 50.4438L68.4585 54.2134L68.4371 54.314C68.3561 54.8141 68.6657 55.3038 69.1656 55.438C69.6657 55.5719 70.1791 55.3025 70.3589 54.8286L70.3902 54.731L71.4 50.9614L71.4361 50.814C71.7526 49.3368 70.8969 47.8547 69.4595 47.3901L69.313 47.3472L61.775 45.3267C60.7769 45.0594 59.763 45.3397 59.0455 45.98L56.9908 42.1685C55.702 39.7773 53.9085 37.7013 51.7417 36.0786L57.1539 30.6665C57.5444 30.276 57.5444 29.642 57.1539 29.2515L51.0835 23.1812C50.8961 22.9937 50.6416 22.8883 50.3765 22.8882C50.1114 22.8883 49.8559 22.9937 49.6685 23.1812L40.5054 32.3442C35.7076 32.3494 31.1009 34.1969 27.6334 37.4966L27.3013 37.8208L24.6246 40.4976C23.1675 41.9549 23.1673 44.3176 24.6246 45.7749C25.1025 46.2528 25.6778 46.5734 26.2867 46.7378L21.5845 57.4331C21.4189 57.8104 21.5011 58.2511 21.7925 58.5425C22.084 58.8339 22.5246 58.9161 22.9019 58.7505L33.5982 54.0474C33.7625 54.6568 34.0837 55.2331 34.5621 55.7114L34.7017 55.8433C36.1665 57.1666 38.4277 57.1229 39.8394 55.7114L40.8843 54.6665L41.2935 55.0757C43.5274 60.0915 48.3851 63.4094 53.8375 63.6919C53.6815 65.115 54.579 66.4775 56.0044 66.8599L63.5435 68.8804L63.691 68.9155ZM28.6792 46.9995L50.3755 25.3032L51.9966 26.9253L30.3013 48.6216L28.6792 46.9995ZM41.3414 43.4653C40.7812 42.9052 40.0995 42.5409 39.3814 42.3706L53.4117 28.3403L55.0318 29.9595L41.4332 43.5581L41.3414 43.4653ZM28.4878 44.3608C27.8115 45.0369 26.7148 45.037 26.0386 44.3608C25.3625 43.6846 25.3626 42.5879 26.0386 41.9116L28.7154 39.2349L29.0123 38.9448C31.5879 36.494 34.8678 34.942 38.3638 34.4858L32.2955 40.5542L32.2867 40.562L28.4878 44.3608ZM54.3287 61.7085C49.5675 61.6085 45.2757 58.8249 43.2417 54.5317L43.0494 54.104C43.0118 54.0164 42.9614 53.9341 42.9009 53.8608L42.8375 53.7905L36.9263 47.8804C36.0979 47.0518 36.098 45.7081 36.9263 44.8794C37.755 44.0508 39.0986 44.0509 39.9273 44.8794L45.8384 50.7896C46.229 51.1798 46.8621 51.1799 47.2525 50.7896C47.6427 50.3991 47.6426 49.766 47.2525 49.3755L42.8472 44.9722L50.3101 37.5103C52.3491 38.9831 54.0335 40.8976 55.23 43.1177L57.9556 48.1743L54.3287 61.7085ZM31.7154 50.0356L34.4166 47.3345C34.5868 48.0526 34.9521 48.7343 35.5123 49.2944L35.6041 49.3872L33.3355 51.6558L31.7154 50.0356ZM27.5914 48.7397L31.5953 52.7437L24.4478 55.8872L27.5914 48.7397ZM38.4253 54.2974C37.7913 54.9311 36.7879 54.9702 36.108 54.4155L35.9761 54.2974C35.3 53.6213 35.3001 52.5245 35.9761 51.8481L37.021 50.8032L39.4703 53.2524L38.4253 54.2974Z" fill="url(#paint1_linear_0_403)"/>
<defs>
<filter id="filter0_d_0_403" x="0" y="0" width="92" height="92" filterUnits="userSpaceOnUse" color-interpolation-filters="sRGB">
<feFlood flood-opacity="0" result="BackgroundImageFix"/>
<feColorMatrix in="SourceAlpha" type="matrix" values="0 0 0 0 0 0 0 0 0 0 0 0 0 0 0 0 0 0 127 0" result="hardAlpha"/>
<feOffset/>
<feGaussianBlur stdDeviation="2"/>
<feComposite in2="hardAlpha" operator="out"/>
<feColorMatrix type="matrix" values="0 0 0 0 0.0747504 0 0 0 0 0.360452 0 0 0 0 0.665634 0 0 0 0.2 0"/>
<feBlend mode="normal" in2="BackgroundImageFix" result="effect1_dropShadow_0_403"/>
<feBlend mode="normal" in="SourceGraphic" in2="effect1_dropShadow_0_403" result="shape"/>
</filter>
<radialGradient id="paint0_radial_0_403" cx="0" cy="0" r="1" gradientUnits="userSpaceOnUse" gradientTransform="translate(42 42) rotate(90) scale(42)">
<stop offset="0.546875" stop-color="white"/>
<stop offset="1" stop-color="white"/>
</radialGradient>
<linearGradient id="paint1_linear_0_403" x1="71.902" y1="69.0558" x2="37.8516" y2="25.8866" gradientUnits="userSpaceOnUse">
<stop stop-color="#31393C"/>
<stop offset="1" stop-color="#3D96F5"/>
</linearGradient>
</defs>
</svg>
