<svg width="51" height="47" viewBox="0 0 51 47" fill="none" xmlns="http://www.w3.org/2000/svg">
<path fill-rule="evenodd" clip-rule="evenodd" d="M42.691 46.9155C44.2176 47.243 45.7489 46.3184 46.1578 44.7935L47.1167 41.2144L47.1382 41.1138C47.2189 40.6137 46.9096 40.1237 46.4097 39.9897C45.9098 39.8561 45.3963 40.1256 45.2164 40.5991L45.1851 40.6968L44.2261 44.2759C44.0985 44.7513 43.6324 45.0452 43.1568 44.9683L43.0611 44.9478L35.522 42.9282C35.015 42.792 34.7143 42.2704 34.8501 41.7632L39.0923 25.9312L39.1216 25.8384C39.2929 25.3882 39.7811 25.1323 40.2564 25.2593L47.7955 27.2788L47.8882 27.3091C48.3086 27.4688 48.5603 27.9043 48.4888 28.3481L48.4683 28.4438L47.4585 32.2134L47.4371 32.314C47.3561 32.8141 47.6657 33.3038 48.1656 33.438C48.6657 33.5719 49.1791 33.3025 49.3589 32.8286L49.3902 32.731L50.4 28.9614L50.4361 28.814C50.7526 27.3368 49.8969 25.8547 48.4595 25.3901L48.313 25.3472L40.775 23.3267C39.7769 23.0594 38.763 23.3397 38.0455 23.98L35.9908 20.1685C34.702 17.7773 32.9085 15.7013 30.7417 14.0786L36.1539 8.6665C36.5444 8.27599 36.5444 7.64199 36.1539 7.25146L30.0835 1.18115C29.8961 0.993711 29.6416 0.888294 29.3765 0.888184C29.1114 0.888293 28.8559 0.993713 28.6685 1.18115L19.5054 10.3442C14.7076 10.3494 10.1009 12.1969 6.63335 15.4966L6.30132 15.8208L3.62456 18.4976C2.16749 19.9549 2.16734 22.3176 3.62456 23.7749C4.10248 24.2528 4.67785 24.5734 5.28667 24.7378L0.584523 35.4331C0.418875 35.8104 0.501113 36.2511 0.792531 36.5425C1.08395 36.8339 1.52459 36.9161 1.90191 36.7505L12.5982 32.0474C12.7625 32.6568 13.0837 33.2331 13.5621 33.7114L13.7017 33.8433C15.1665 35.1666 17.4277 35.1229 18.8394 33.7114L19.8843 32.6665L20.2935 33.0757C22.5274 38.0915 27.3851 41.4094 32.8375 41.6919C32.6815 43.115 33.579 44.4775 35.0044 44.8599L42.5435 46.8804L42.691 46.9155ZM7.67925 24.9995L29.3755 3.30322L30.9966 4.92529L9.30132 26.6216L7.67925 24.9995ZM20.3414 21.4653C19.7812 20.9052 19.0995 20.5409 18.3814 20.3706L32.4117 6.34033L34.0318 7.95947L20.4332 21.5581L20.3414 21.4653ZM7.48784 22.3608C6.81153 23.0369 5.71483 23.037 5.03862 22.3608C4.36246 21.6846 4.3626 20.5879 5.03862 19.9116L7.71538 17.2349L8.01226 16.9448C10.5879 14.494 13.8678 12.942 17.3638 12.4858L11.2955 18.5542L11.2867 18.562L7.48784 22.3608ZM33.3287 39.7085C28.5675 39.6085 24.2757 36.8249 22.2417 32.5317L22.0494 32.104C22.0118 32.0164 21.9614 31.9341 21.9009 31.8608L21.8375 31.7905L15.9263 25.8804C15.0979 25.0518 15.098 23.7081 15.9263 22.8794C16.755 22.0508 18.0986 22.0509 18.9273 22.8794L24.8384 28.7896C25.229 29.1798 25.8621 29.1799 26.2525 28.7896C26.6427 28.3991 26.6426 27.766 26.2525 27.3755L21.8472 22.9722L29.3101 15.5103C31.3491 16.9831 33.0335 18.8976 34.23 21.1177L36.9556 26.1743L33.3287 39.7085ZM10.7154 28.0356L13.4166 25.3345C13.5868 26.0526 13.9521 26.7343 14.5123 27.2944L14.6041 27.3872L12.3355 29.6558L10.7154 28.0356ZM6.59136 26.7397L10.5953 30.7437L3.4478 33.8872L6.59136 26.7397ZM17.4253 32.2974C16.7913 32.9311 15.7879 32.9702 15.108 32.4155L14.9761 32.2974C14.3 31.6213 14.3001 30.5245 14.9761 29.8481L16.021 28.8032L18.4703 31.2524L17.4253 32.2974Z" fill="url(#paint0_linear_1_233)"/>
<defs>
<linearGradient id="paint0_linear_1_233" x1="50.902" y1="47.0558" x2="16.8516" y2="3.88658" gradientUnits="userSpaceOnUse">
<stop stop-color="#31393C"/>
<stop offset="1" stop-color="#3D96F5"/>
</linearGradient>
</defs>
</svg>
