<svg width="64" height="64" viewBox="0 0 64 64" fill="none" xmlns="http://www.w3.org/2000/svg">
<path d="M0 8C0 3.58172 3.58172 0 8 0H56C60.4183 0 64 3.58172 64 8V56C64 60.4183 60.4183 64 56 64H8C3.58172 64 0 60.4183 0 56V8Z" fill="white"/>
<path d="M26 39C26.5523 39 27 39.4477 27 40C27 40.5523 26.5523 41 26 41H18V48H16V40C16 39.4477 16.4477 39 17 39H26Z" fill="#3E96F4"/>
<path d="M34.5176 40.8135V48L28 44.4062V37.2188L34.5176 40.8135Z" fill="#3E96F4"/>
<path d="M43 44.4062L36.4824 48V40.8135L43 37.2188V44.4062Z" fill="#3E96F4"/>
<path d="M47 23C47.5523 23 48 23.4477 48 24V40C48 40.5523 47.5523 41 47 41H45C44.4477 41 44 40.5523 44 40C44 39.4477 44.4477 39 45 39H46V25H37C36.4477 25 36 24.5523 36 24C36 23.4477 36.4477 23 37 23H47Z" fill="#3E96F4"/>
<path d="M42.0195 35.5938L35.5029 39.1865L28.9854 35.5938L35.5029 32L42.0195 35.5938Z" fill="#3E96F4"/>
<path d="M26.5176 24.8135V32L20 28.4062V21.2188L26.5176 24.8135Z" fill="#3E96F4"/>
<path d="M35 28.4062L28.4824 32V24.8135L35 21.2188V28.4062Z" fill="#3E96F4"/>
<path d="M18.5 23C19.0523 23 19.5 23.4477 19.5 24C19.5 24.5523 19.0523 25 18.5 25H17C16.4477 25 16 24.5523 16 24C16 23.4477 16.4477 23 17 23H18.5Z" fill="#3E96F4"/>
<path d="M34.0195 19.5938L27.5029 23.1865L20.9854 19.5938L27.5029 16L34.0195 19.5938Z" fill="#3E96F4"/>
</svg>
