<svg width="72" height="72" viewBox="0 0 72 72" fill="none" xmlns="http://www.w3.org/2000/svg">
<g id="Vector">
<path d="M66.1532 58.169V42.9677C66.1532 42.6598 66.0309 42.3644 65.8131 42.1466C65.5953 41.9288 65.2999 41.8065 64.9919 41.8065H48.7338C48.4259 41.8065 48.1305 41.9288 47.9127 42.1466C47.6949 42.3644 47.5726 42.6598 47.5726 42.9677V58.0645H45.25V42.9677C45.25 42.6598 45.1276 42.3644 44.9098 42.1466C44.6921 41.9288 44.3967 41.8065 44.0887 41.8065H27.8306C27.5226 41.8065 27.2273 41.9288 27.0095 42.1466C26.7917 42.3644 26.6693 42.6598 26.6693 42.9677V58.0645H24.3468V42.9677C24.3468 42.6598 24.2244 42.3644 24.0066 42.1466C23.7888 41.9288 23.4935 41.8065 23.1855 41.8065H6.9274C6.61941 41.8065 6.32403 41.9288 6.10624 42.1466C5.88846 42.3644 5.76611 42.6598 5.76611 42.9677V58.169C4.0521 58.4691 2.51241 59.3997 1.44987 60.7777C0.387335 62.1557 -0.121145 63.8814 0.0244449 65.6154C0.170035 67.3493 0.959157 68.9661 2.2366 70.1476C3.51405 71.3291 5.18735 71.9899 6.9274 72H64.9919C66.732 71.9899 68.4053 71.3291 69.6827 70.1476C70.9602 68.9661 71.7493 67.3493 71.8949 65.6154C72.0405 63.8814 71.532 62.1557 70.4694 60.7777C69.4069 59.3997 67.8672 58.4691 66.1532 58.169ZM55.7016 44.129H58.0242V47.6129H55.7016V44.129ZM49.8951 44.129H53.379V48.7742C53.379 49.0822 53.5014 49.3776 53.7191 49.5954C53.9369 49.8131 54.2323 49.9355 54.5403 49.9355H59.1855C59.4935 49.9355 59.7888 49.8131 60.0066 49.5954C60.2244 49.3776 60.3468 49.0822 60.3468 48.7742V44.129H63.8306V58.0645H49.8951V44.129ZM34.7984 44.129H37.1209V47.6129H34.7984V44.129ZM28.9919 44.129H32.4758V48.7742C32.4758 49.0822 32.5981 49.3776 32.8159 49.5954C33.0337 49.8131 33.3291 49.9355 33.6371 49.9355H38.2822C38.5902 49.9355 38.8856 49.8131 39.1034 49.5954C39.3212 49.3776 39.4435 49.0822 39.4435 48.7742V44.129H42.9274V58.0645H28.9919V44.129ZM13.8951 44.129H16.2177V47.6129H13.8951V44.129ZM8.08869 44.129H11.5726V48.7742C11.5726 49.0822 11.6949 49.3776 11.9127 49.5954C12.1305 49.8131 12.4259 49.9355 12.7339 49.9355H17.379C17.687 49.9355 17.9824 49.8131 18.2002 49.5954C18.418 49.3776 18.5403 49.0822 18.5403 48.7742V44.129H22.0242V58.0645H8.08869V44.129ZM64.9919 69.6774H6.9274C5.69543 69.6774 4.51391 69.188 3.64277 68.3169C2.77164 67.4457 2.28224 66.2642 2.28224 65.0323C2.28224 63.8003 2.77164 62.6188 3.64277 61.7476C4.51391 60.8765 5.69543 60.3871 6.9274 60.3871H64.9919C66.2239 60.3871 67.4054 60.8765 68.2765 61.7476C69.1477 62.6188 69.6371 63.8003 69.6371 65.0323C69.6371 66.2642 69.1477 67.4457 68.2765 68.3169C67.4054 69.188 66.2239 69.6774 64.9919 69.6774Z" fill="url(#paint0_linear_1_610)"/>
<path d="M7.50804 61.5484C6.819 61.5484 6.14543 61.7527 5.57251 62.1355C4.99959 62.5183 4.55305 63.0625 4.28937 63.699C4.02568 64.3356 3.95669 65.0361 4.09111 65.7119C4.22554 66.3877 4.55735 67.0085 5.04458 67.4957C5.5318 67.983 6.15257 68.3148 6.82837 68.4492C7.50418 68.5836 8.20467 68.5146 8.84126 68.2509C9.47786 67.9873 10.022 67.5407 10.4048 66.9678C10.7876 66.3949 10.9919 65.7213 10.9919 65.0323C10.9919 64.1083 10.6249 63.2221 9.97151 62.5688C9.31816 61.9154 8.43202 61.5484 7.50804 61.5484ZM7.50804 66.1936C7.27836 66.1936 7.05384 66.1254 6.86287 65.9978C6.67189 65.8702 6.52305 65.6889 6.43515 65.4767C6.34726 65.2645 6.32426 65.031 6.36907 64.8057C6.41388 64.5804 6.52448 64.3735 6.68689 64.2111C6.8493 64.0487 7.05622 63.9381 7.28149 63.8933C7.50676 63.8485 7.74025 63.8715 7.95245 63.9594C8.16465 64.0473 8.34602 64.1961 8.47362 64.3871C8.60123 64.5781 8.66933 64.8026 8.66933 65.0323C8.66933 65.3402 8.54698 65.6356 8.3292 65.8534C8.11142 66.0712 7.81604 66.1936 7.50804 66.1936ZM64.4113 61.5484C63.7222 61.5484 63.0487 61.7527 62.4757 62.1355C61.9028 62.5183 61.4563 63.0625 61.1926 63.699C60.9289 64.3356 60.8599 65.0361 60.9943 65.7119C61.1288 66.3877 61.4606 67.0085 61.9478 67.4957C62.435 67.983 63.0558 68.3148 63.7316 68.4492C64.4074 68.5836 65.1079 68.5146 65.7445 68.2509C66.3811 67.9873 66.9252 67.5407 67.308 66.9678C67.6908 66.3949 67.8951 65.7213 67.8951 65.0323C67.8951 64.1083 67.5281 63.2221 66.8747 62.5688C66.2214 61.9154 65.3353 61.5484 64.4113 61.5484ZM64.4113 66.1936C64.1816 66.1936 63.9571 66.1254 63.7661 65.9978C63.5751 65.8702 63.4263 65.6889 63.3384 65.4767C63.2505 65.2645 63.2275 65.031 63.2723 64.8057C63.3171 64.5804 63.4277 64.3735 63.5901 64.2111C63.7525 64.0487 63.9594 63.9381 64.1847 63.8933C64.41 63.8485 64.6435 63.8715 64.8557 63.9594C65.0679 64.0473 65.2492 64.1961 65.3768 64.3871C65.5044 64.5781 65.5726 64.8026 65.5726 65.0323C65.5726 65.3402 65.4502 65.6356 65.2324 65.8534C65.0146 66.0712 64.7193 66.1936 64.4113 66.1936ZM15.0564 13.9355C16.4345 13.9355 17.7817 13.5268 18.9275 12.7612C20.0733 11.9956 20.9664 10.9074 21.4938 9.63418C22.0212 8.361 22.1591 6.96002 21.8903 5.60841C21.6214 4.2568 20.9578 3.01526 19.9834 2.04081C19.0089 1.06635 17.7674 0.402738 16.4158 0.133886C15.0642 -0.134966 13.6632 0.00301903 12.39 0.530391C11.1168 1.05776 10.0286 1.95084 9.26297 3.09667C8.49734 4.24251 8.08869 5.58966 8.08869 6.96774C8.09053 8.81514 8.82523 10.5863 10.1315 11.8926C11.4378 13.199 13.209 13.9336 15.0564 13.9355ZM15.0564 2.32258C15.9752 2.32258 16.8733 2.59502 17.6371 3.10543C18.401 3.61585 18.9964 4.34133 19.348 5.19012C19.6996 6.03891 19.7916 6.9729 19.6123 7.87397C19.4331 8.77504 18.9907 9.60273 18.3411 10.2524C17.6914 10.902 16.8637 11.3444 15.9627 11.5237C15.0616 11.7029 14.1276 11.6109 13.2788 11.2593C12.43 10.9077 11.7045 10.3124 11.1941 9.54846C10.6837 8.78456 10.4113 7.88647 10.4113 6.96774C10.4113 5.73577 10.9007 4.55426 11.7718 3.68312C12.6429 2.81198 13.8245 2.32258 15.0564 2.32258ZM30.1532 13.9355H41.7661C41.9646 13.9366 42.16 13.8868 42.3337 13.7909C42.5075 13.6949 42.6538 13.5561 42.7586 13.3876C42.8634 13.219 42.9233 13.0264 42.9325 12.8282C42.9417 12.6299 42.9 12.4326 42.8113 12.2551L37.0048 0.642197C36.8975 0.462224 36.7453 0.313198 36.5631 0.209707C36.3809 0.106216 36.175 0.0518076 35.9655 0.0518076C35.7559 0.0518076 35.55 0.106216 35.3678 0.209707C35.1856 0.313198 35.0334 0.462224 34.9261 0.642197L29.1197 12.2551C29.0314 12.4318 28.9896 12.628 28.9983 12.8253C29.007 13.0226 29.0658 13.2144 29.1693 13.3826C29.2728 13.5508 29.4174 13.6899 29.5896 13.7866C29.7617 13.8834 29.9557 13.9346 30.1532 13.9355ZM35.9597 3.75794L39.8871 11.6129H32.0322L35.9597 3.75794ZM52.5661 8.97794L51.9495 12.5779C51.913 12.7913 51.937 13.0107 52.0186 13.2112C52.1002 13.4117 52.2363 13.5854 52.4114 13.7127C52.5865 13.84 52.7937 13.9158 53.0096 13.9316C53.2256 13.9474 53.4416 13.9025 53.6333 13.8019L56.8629 12.103L60.0959 13.8019C60.2877 13.9025 60.5037 13.9474 60.7196 13.9316C60.9355 13.9158 61.1427 13.84 61.3179 13.7127C61.493 13.5854 61.629 13.4117 61.7107 13.2112C61.7923 13.0107 61.8162 12.7913 61.7798 12.5779L61.1631 8.97794L63.7784 6.4231C63.932 6.27158 64.0403 6.08027 64.0913 5.87062C64.1422 5.66097 64.1338 5.44127 64.0668 5.23616C63.9999 5.03105 63.8772 4.84863 63.7124 4.70937C63.5476 4.57012 63.3473 4.47952 63.1339 4.44774L59.5211 3.92284L57.908 0.646842C57.8011 0.466051 57.6489 0.316242 57.4665 0.212177C57.284 0.108113 57.0776 0.0533841 56.8675 0.0533841C56.6575 0.0533841 56.4511 0.108113 56.2686 0.212177C56.0861 0.316242 55.9339 0.466051 55.827 0.646842L54.2047 3.92284L50.5919 4.44774C50.3773 4.47871 50.1757 4.56914 50.0098 4.70878C49.844 4.84841 49.7205 5.03169 49.6535 5.23787C49.5864 5.44404 49.5784 5.66487 49.6303 5.87537C49.6823 6.08586 49.7921 6.27761 49.9474 6.42891L52.5661 8.97794ZM55.1465 6.13394C55.3326 6.1067 55.5093 6.03466 55.6615 5.92401C55.8136 5.81336 55.9366 5.66741 56.0198 5.49871L56.8629 3.78465L57.7095 5.49871C57.7927 5.66741 57.9157 5.81336 58.0678 5.92401C58.2199 6.03466 58.3966 6.1067 58.5827 6.13394L60.4722 6.408L59.1053 7.74116C58.9706 7.87264 58.8699 8.03488 58.8119 8.21391C58.7538 8.39295 58.7402 8.58341 58.772 8.76891L59.0937 10.6514L57.4029 9.76297C57.2363 9.67549 57.051 9.62978 56.8629 9.62978C56.6748 9.62978 56.4894 9.67549 56.3229 9.76297L54.632 10.6514L54.9537 8.76891C54.9856 8.58341 54.9719 8.39295 54.9139 8.21391C54.8558 8.03488 54.7551 7.87264 54.6204 7.74116L53.2536 6.408L55.1465 6.13394ZM13.8951 18.5806V32.3164L11.943 29.5293L10.0408 30.859L14.1053 36.6654C14.2124 36.8183 14.3548 36.9431 14.5203 37.0292C14.6859 37.1154 14.8698 37.1604 15.0564 37.1604C15.2431 37.1604 15.427 37.1154 15.5925 37.0292C15.7581 36.9431 15.9004 36.8183 16.0075 36.6654L20.072 30.859L18.1698 29.5281L16.2177 32.3164V18.5806H13.8951ZM34.7984 18.5806V32.3164L32.8462 29.5293L30.944 30.8601L35.0086 36.6666C35.1157 36.8194 35.258 36.9442 35.4236 37.0304C35.5891 37.1166 35.773 37.1615 35.9597 37.1615C36.1463 37.1615 36.3302 37.1166 36.4957 37.0304C36.6613 36.9442 36.8037 36.8194 36.9108 36.6666L40.9753 30.8601L39.0731 29.5293L37.1209 32.3164V18.5806H34.7984ZM55.7016 18.5806V32.3164L53.7495 29.5293L51.8473 30.8601L55.9118 36.6666C56.0189 36.8194 56.1612 36.9442 56.3268 37.0304C56.4924 37.1166 56.6762 37.1615 56.8629 37.1615C57.0495 37.1615 57.2334 37.1166 57.399 37.0304C57.5645 36.9442 57.7069 36.8194 57.814 36.6666L61.8785 30.8601L59.9763 29.5293L58.0242 32.3164V18.5806H55.7016Z" fill="url(#paint1_linear_1_610)"/>
</g>
<defs>
<linearGradient id="paint0_linear_1_610" x1="0" y1="0" x2="72.9833" y2="71.1494" gradientUnits="userSpaceOnUse">
<stop stop-color="#3E96F4"/>
<stop offset="1" stop-color="#FE5B52"/>
</linearGradient>
<linearGradient id="paint1_linear_1_610" x1="0" y1="0" x2="72.9833" y2="71.1494" gradientUnits="userSpaceOnUse">
<stop stop-color="#3E96F4"/>
<stop offset="1" stop-color="#FE5B52"/>
</linearGradient>
</defs>
</svg>
