<svg width="32" height="32" viewBox="0 0 32 32" fill="none" xmlns="http://www.w3.org/2000/svg">
<path d="M14.3448 19.6552C14.3448 18.5506 13.4494 17.6552 12.3448 17.6552H2.19345e-05L14.3448 32V19.6552Z" fill="#84979C" fill-opacity="0.8"/>
<path d="M17.6552 12.3448C17.6552 13.4494 18.5506 14.3448 19.6552 14.3448L32 14.3448L17.6552 -7.62939e-06L17.6552 12.3448Z" fill="#84979C" fill-opacity="0.8"/>
<path d="M12.3448 14.3448C13.4494 14.3448 14.3448 13.4494 14.3448 12.3448L14.3448 -8.58307e-06L2.28882e-05 14.3448L12.3448 14.3448Z" fill="#C1C9D1" fill-opacity="0.8"/>
<path d="M19.6552 17.6552C18.5506 17.6552 17.6552 18.5506 17.6552 19.6552L17.6551 32L32 17.6552L19.6552 17.6552Z" fill="#C1C9D1" fill-opacity="0.8"/>
<g style="mix-blend-mode:multiply">
<path d="M15.0159 5.92484C15.5594 5.38138 16.4405 5.38138 16.984 5.92484L26.0751 15.016C26.6186 15.5594 26.6186 16.4406 26.0751 16.984L16.984 26.0752C16.4405 26.6186 15.5594 26.6186 15.0159 26.0752L5.92481 16.984C5.38135 16.4406 5.38134 15.5594 5.92481 15.016L15.0159 5.92484Z" fill="#007BFF" fill-opacity="0.8"/>
</g>
</svg>
