<svg width="21" height="20" viewBox="0 0 21 20" fill="none" xmlns="http://www.w3.org/2000/svg">
<path d="M20.0142 18.2654H19.8379V9.83547C19.8379 9.54798 19.5702 9.35482 19.3203 9.35482H19.0282V0.48583C19.0282 0.217935 18.8309 0 18.5883 0H17.076C16.8334 0 16.6361 0.217935 16.6361 0.48583V9.35482H15.5788V2.10526C15.5788 1.83741 15.3815 1.61943 15.1389 1.61943H13.6266C13.384 1.61943 13.1867 1.83737 13.1867 2.10526V9.35482H11.5325V5.82741L12.3172 5.6896C12.4299 5.66998 12.532 5.61122 12.6055 5.52367C12.679 5.43612 12.7192 5.32542 12.7191 5.21109V4.47202C12.7192 4.40107 12.7038 4.33095 12.6739 4.2666C12.644 4.20226 12.6003 4.14526 12.5459 4.09963C12.4916 4.054 12.4279 4.02085 12.3594 4.00252C12.2908 3.98418 12.2191 3.98111 12.1492 3.99352L1.80324 5.81049C1.69062 5.8301 1.58856 5.88887 1.51505 5.97641C1.44154 6.06395 1.40131 6.17464 1.40146 6.28895V7.02802C1.40132 7.09178 1.41377 7.15495 1.43808 7.2139C1.46239 7.27285 1.49809 7.32643 1.54314 7.37156C1.58818 7.4167 1.64169 7.4525 1.70059 7.47693C1.75949 7.50136 1.82263 7.51393 1.8864 7.51393C1.91457 7.51393 1.94296 7.51146 1.9713 7.50652L2.58802 7.39822V13.2323H1.49785C1.42269 13.2323 1.35061 13.2622 1.29746 13.3153C1.24431 13.3685 1.21445 13.4405 1.21445 13.5157V18.2654H0.98583C0.717935 18.2654 0.5 18.4834 0.5 18.7513V19.5142C0.5 19.7821 0.717935 20 0.98583 20H20.0142C20.2821 20 20.5 19.7821 20.5 19.5142V18.7513C20.5 18.4834 20.2821 18.2654 20.0142 18.2654ZM19.2711 18.2654H8.67579L8.67583 9.92162H19.2711V18.2654H19.2711ZM18.4614 0.566802V1.09757H17.2029V0.566802H18.4614ZM17.2029 1.66437H18.4614V9.35482H17.2029V1.66437ZM15.0119 2.18623V2.717H13.7534V2.18623H15.0119ZM13.7534 3.28385H15.0119V9.35482H13.7534V3.28385ZM1.9683 6.93158V6.35696L12.1521 4.56846V5.14308L1.9683 6.93158ZM3.15486 7.2987L10.9655 5.927V9.35486H8.56304C8.29996 9.35486 8.10899 9.557 8.10899 9.83551V13.2323H3.15486V7.2987ZM1.7813 13.7991H8.10899V18.2655H7.30227V15.2062C7.30227 14.9383 7.08433 14.7204 6.81644 14.7204H3.07385C2.80599 14.7204 2.58806 14.9383 2.58806 15.2062V18.2655H1.7813V13.7991ZM3.15486 18.2654V15.2872H4.66178V18.2654H3.15486ZM5.22858 15.2872H6.73551V18.2654H5.22858V15.2872ZM19.9332 19.4332H1.0668V18.8322H19.9332V19.4332ZM16.633 16.9298H17.8707C18.1386 16.9298 18.3566 16.7119 18.3566 16.444V15.2062C18.3566 14.9383 18.1386 14.7204 17.8707 14.7204H16.633C16.3651 14.7204 16.1472 14.9383 16.1472 15.2062V16.444C16.1472 16.7118 16.3651 16.9298 16.633 16.9298ZM16.714 15.2872H17.7898V16.363H16.714V15.2872ZM10.0762 16.9298H11.3139C11.5818 16.9298 11.7997 16.7119 11.7997 16.444V15.2062C11.7997 14.9383 11.5818 14.7204 11.3139 14.7204H10.0762C9.80826 14.7204 9.59032 14.9383 9.59032 15.2062V16.444C9.59032 16.7118 9.80826 16.9298 10.0762 16.9298ZM10.1571 15.2872H11.2329V16.363H10.1571V15.2872ZM13.3546 16.9298H14.5923C14.8602 16.9298 15.0782 16.7119 15.0782 16.444V15.2062C15.0782 14.9383 14.8602 14.7204 14.5923 14.7204H13.3546C13.0867 14.7204 12.8687 14.9383 12.8687 15.2062V16.444C12.8687 16.7118 13.0867 16.9298 13.3546 16.9298ZM13.4355 15.2872H14.5114V16.363H13.4355V15.2872ZM10.0762 13.3847H11.3139C11.5818 13.3847 11.7997 13.1668 11.7997 12.8989V11.6611C11.7997 11.3932 11.5818 11.1753 11.3139 11.1753H10.0762C9.80826 11.1753 9.59032 11.3932 9.59032 11.6611V12.8989C9.59032 13.1667 9.80826 13.3847 10.0762 13.3847ZM10.1571 11.7421H11.2329V12.8179H10.1571V11.7421ZM16.633 13.3847H17.8707C18.1386 13.3847 18.3566 13.1668 18.3566 12.8989V11.6611C18.3566 11.3932 18.1386 11.1753 17.8707 11.1753H16.633C16.3651 11.1753 16.1472 11.3932 16.1472 11.6611V12.8989C16.1472 13.1667 16.3651 13.3847 16.633 13.3847ZM16.714 11.7421H17.7898V12.8179H16.714V11.7421ZM13.3546 13.3847H14.5923C14.8602 13.3847 15.0782 13.1668 15.0782 12.8989V11.6611C15.0782 11.3932 14.8602 11.1753 14.5923 11.1753H13.3546C13.0867 11.1753 12.8687 11.3932 12.8687 11.6611V12.8989C12.8687 13.1667 13.0867 13.3847 13.3546 13.3847ZM13.4355 11.7421H14.5114V12.8179H13.4355V11.7421ZM5.56405 7.56615H4.32628C4.05842 7.56615 3.84049 7.78409 3.84049 8.05198V9.28976C3.84049 9.55765 4.05842 9.77559 4.32628 9.77559H5.56405C5.83194 9.77559 6.04988 9.55765 6.04988 9.28976V8.05198C6.04988 7.78413 5.83194 7.56615 5.56405 7.56615ZM5.48308 9.20883H4.40729V8.133H5.48308V9.20883ZM5.56405 10.378H4.32628C4.05842 10.378 3.84049 10.5959 3.84049 10.8638V12.1016C3.84049 12.3695 4.05842 12.5874 4.32628 12.5874H5.56405C5.83194 12.5874 6.04988 12.3695 6.04988 12.1016V10.8638C6.04988 10.5959 5.83194 10.378 5.56405 10.378ZM5.48308 12.0206H4.40729V10.9448H5.48308V12.0206Z" fill="#3E96F4"/>
</svg>
