<svg width="80" height="70" viewBox="0 0 80 70" fill="none" xmlns="http://www.w3.org/2000/svg">
<path d="M60.1115 30.1028C57.5178 26.2555 53.1464 24.0313 48.6001 24.3319C46.6475 20.6949 43.0338 18.2904 38.808 18.0199C35.8646 17.8395 32.892 18.8915 30.5897 20.9354C29.016 22.3481 27.8794 23.9712 27.18 25.8047C26.772 26.8867 25.8394 27.578 24.8486 27.578H18.0007V33.5895H24.8486C28.2583 33.5895 31.3183 31.3953 32.6006 27.9988C32.9503 27.0671 33.5332 26.2555 34.4074 25.474C35.544 24.4521 37.0303 23.9111 38.4292 24.0012C40.5275 24.1515 42.0138 25.1434 42.9463 26.3757C43.9372 27.5179 44.4909 29.2913 44.8115 31.0647C46.6766 30.5236 48.7166 30.0728 50.6692 30.4034C52.2721 30.6739 53.7584 31.5456 54.8366 32.838C55.0115 33.0484 55.1864 33.2588 55.3321 33.4993C56.7309 35.5732 56.9932 38.1281 56.0606 40.6529C55.2155 42.9973 52.0972 45.1314 49.5035 45.1314H29.22C26.4514 45.1314 24.1783 42.9973 23.8286 40.2621H18C18.3788 46.3337 23.2457 51.1428 29.22 51.1428H49.5326C54.5452 51.1428 59.8201 47.4759 61.5395 42.7869C63.1424 38.3986 62.6178 33.7698 60.1407 30.0728L60.1115 30.1028Z" fill="#3E96F4"/>
<path fill-rule="evenodd" clip-rule="evenodd" d="M63 2H17C11.4772 2 7 6.47715 7 12V58C7 63.5228 11.4772 68 17 68H63C68.5228 68 73 63.5228 73 58V12C73 6.47715 68.5228 2 63 2ZM17 0C10.3726 0 5 5.37258 5 12V58C5 64.6274 10.3726 70 17 70H63C69.6274 70 75 64.6274 75 58V12C75 5.37258 69.6274 0 63 0H17Z" fill="#3E96F4"/>
</svg>
