<svg width="85" height="84" viewBox="0 0 85 84" fill="none" xmlns="http://www.w3.org/2000/svg">
<g filter="url(#filter0_d_3_436)">
<rect x="6.5" y="6" width="72" height="72" rx="36" fill="white"/>
<rect x="7.5" y="7" width="70" height="70" rx="35" stroke="#3E96F4" stroke-width="2"/>
</g>
<path d="M47.0161 34.9032C46.1477 34.9032 45.2858 34.9239 44.4355 34.9561V25.871C44.4345 24.8446 44.0263 23.8606 43.3006 23.1349C42.5748 22.4092 41.5908 22.001 40.5645 22H26.371C25.3446 22.001 24.3606 22.4092 23.6349 23.1349C22.9092 23.8606 22.501 24.8446 22.5 25.871V38.7742C22.501 39.8005 22.9092 40.7845 23.6349 41.5102C24.3606 42.236 25.3446 42.6441 26.371 42.6452H31.5323V47.1613C31.5449 47.4144 31.6143 47.6614 31.7352 47.884C31.8562 48.1067 32.0256 48.2993 32.231 48.4477C32.025 48.5974 31.8553 48.7914 31.7344 49.0154C31.6135 49.2394 31.5444 49.4877 31.5323 49.7419V58.129C31.5323 61.191 41.6613 62 47.0161 62C52.371 62 62.5 61.191 62.5 58.129V49.7419C62.4879 49.4877 62.4188 49.2394 62.2978 49.0154C62.1769 48.7914 62.0072 48.5974 61.8013 48.4477C62.0067 48.2993 62.1761 48.1067 62.297 47.884C62.4179 47.6614 62.4873 47.4144 62.5 47.1613V38.7742C62.5 35.7123 52.371 34.9032 47.0161 34.9032ZM26.371 23.2903H40.5645C41.2489 23.2903 41.9053 23.5622 42.3893 24.0462C42.8733 24.5301 43.1452 25.1865 43.1452 25.871H23.7903C23.7903 25.1865 24.0622 24.5301 24.5462 24.0462C25.0301 23.5622 25.6865 23.2903 26.371 23.2903ZM23.7903 38.7742V27.1613H43.1452V38.7742C43.1452 39.4586 42.8733 40.115 42.3893 40.599C41.9053 41.0829 41.2489 41.3548 40.5645 41.3548H26.371C25.6865 41.3548 25.0301 41.0829 24.5462 40.599C24.0622 40.115 23.7903 39.4586 23.7903 38.7742ZM40.5645 42.6452C40.9846 42.6446 41.4018 42.5751 41.7994 42.4394C43.4677 42.5742 45.2213 42.6452 47.0161 42.6452C51.2039 42.6452 58.3097 42.1503 61.2097 40.4703V47.1613C61.2097 47.6865 57.5052 49.7419 47.0161 49.7419C36.5271 49.7419 32.8226 47.6865 32.8226 47.1613V42.6452H40.5645ZM47.0161 60.7097C36.5271 60.7097 32.8226 58.6542 32.8226 58.129V51.4381C35.7258 53.1181 42.8284 53.6129 47.0161 53.6129C51.2039 53.6129 58.3097 53.1181 61.2097 51.4381V58.129C61.2097 58.6542 57.5052 60.7097 47.0161 60.7097ZM61.2097 49.7419C61.2097 50.2671 57.5052 52.3226 47.0161 52.3226C36.5271 52.3226 32.8226 50.2671 32.8226 49.7419C32.8226 49.6774 32.9426 49.4574 33.4413 49.1684C36.6348 50.5981 43.1 51.0323 47.0161 51.0323C50.9323 51.0323 57.3974 50.5981 60.591 49.1684C61.0897 49.4574 61.2097 49.6774 61.2097 49.7419ZM47.0161 41.3548C45.8284 41.3548 44.6716 41.3135 43.5323 41.2529C44.1157 40.5587 44.4355 39.681 44.4355 38.7742V36.2471C45.2852 36.2148 46.1477 36.1935 47.0161 36.1935C57.5052 36.1935 61.2097 38.249 61.2097 38.7742C61.2097 39.2994 57.5052 41.3548 47.0161 41.3548Z" fill="black"/>
<path d="M36.0484 47.1613C36.4312 47.1613 36.8054 47.0478 37.1237 46.8351C37.442 46.6225 37.6901 46.3202 37.8365 45.9665C37.983 45.6129 38.0214 45.2237 37.9467 44.8483C37.872 44.4728 37.6877 44.1279 37.417 43.8573C37.1463 43.5866 36.8014 43.4022 36.426 43.3276C36.0505 43.2529 35.6614 43.2912 35.3077 43.4377C34.9541 43.5842 34.6518 43.8323 34.4391 44.1506C34.2264 44.4688 34.1129 44.8431 34.1129 45.2259C34.1129 45.7392 34.3168 46.2315 34.6798 46.5944C35.0428 46.9574 35.5351 47.1613 36.0484 47.1613ZM36.0484 44.5807C36.176 44.5807 36.3007 44.6185 36.4068 44.6894C36.5129 44.7603 36.5956 44.8611 36.6444 44.979C36.6933 45.0968 36.706 45.2266 36.6812 45.3517C36.6563 45.4769 36.5948 45.5918 36.5046 45.6821C36.4144 45.7723 36.2994 45.8337 36.1743 45.8586C36.0491 45.8835 35.9194 45.8707 35.8015 45.8219C35.6836 45.7731 35.5828 45.6904 35.512 45.5843C35.4411 45.4782 35.4032 45.3535 35.4032 45.2259C35.4032 45.0547 35.4712 44.8906 35.5922 44.7697C35.7132 44.6487 35.8773 44.5807 36.0484 44.5807ZM36.0484 54.2581C35.6656 54.2581 35.2914 54.3716 34.9731 54.5843C34.6548 54.797 34.4067 55.0993 34.2602 55.4529C34.1137 55.8066 34.0754 56.1957 34.1501 56.5712C34.2248 56.9466 34.4091 57.2915 34.6798 57.5622C34.9505 57.8329 35.2953 58.0172 35.6708 58.0919C36.0462 58.1666 36.4354 58.1282 36.7891 57.9817C37.1427 57.8353 37.445 57.5872 37.6577 57.2689C37.8704 56.9506 37.9839 56.5764 37.9839 56.1936C37.9839 55.6803 37.78 55.188 37.417 54.825C37.054 54.462 36.5617 54.2581 36.0484 54.2581ZM36.0484 56.8388C35.9208 56.8388 35.7961 56.8009 35.69 56.73C35.5839 56.6591 35.5012 56.5584 35.4523 56.4405C35.4035 56.3226 35.3907 56.1929 35.4156 56.0677C35.4405 55.9426 35.502 55.8276 35.5922 55.7374C35.6824 55.6472 35.7974 55.5857 35.9225 55.5608C36.0477 55.5359 36.1774 55.5487 36.2953 55.5975C36.4132 55.6464 36.5139 55.7291 36.5848 55.8352C36.6557 55.9413 36.6936 56.066 36.6936 56.1936C36.6936 56.3647 36.6256 56.5288 36.5046 56.6498C36.3836 56.7708 36.2195 56.8388 36.0484 56.8388ZM26.371 28.4517H27.6613V33.613H26.371V28.4517ZM32.1774 28.4517H29.5968C29.4257 28.4517 29.2616 28.5196 29.1406 28.6406C29.0196 28.7616 28.9516 28.9257 28.9516 29.0968V32.9678C28.9516 33.1389 29.0196 33.303 29.1406 33.424C29.2616 33.545 29.4257 33.613 29.5968 33.613H32.1774C32.3485 33.613 32.5126 33.545 32.6336 33.424C32.7546 33.303 32.8226 33.1389 32.8226 32.9678V29.0968C32.8226 28.9257 32.7546 28.7616 32.6336 28.6406C32.5126 28.5196 32.3485 28.4517 32.1774 28.4517ZM31.5323 32.3226H30.2419V29.742H31.5323V32.3226ZM34.1129 28.4517H35.4032V33.613H34.1129V28.4517ZM37.3387 33.613H39.9194C40.0905 33.613 40.2546 33.545 40.3756 33.424C40.4965 33.303 40.5645 33.1389 40.5645 32.9678V29.0968C40.5645 28.9257 40.4965 28.7616 40.3756 28.6406C40.2546 28.5196 40.0905 28.4517 39.9194 28.4517H37.3387C37.1676 28.4517 37.0035 28.5196 36.8825 28.6406C36.7615 28.7616 36.6936 28.9257 36.6936 29.0968V32.9678C36.6936 33.1389 36.7615 33.303 36.8825 33.424C37.0035 33.545 37.1676 33.613 37.3387 33.613ZM37.9839 29.742H39.2742V32.3226H37.9839V29.742ZM26.371 34.9033H27.6613V40.0646H26.371V34.9033ZM32.1774 34.9033H29.5968C29.4257 34.9033 29.2616 34.9712 29.1406 35.0922C29.0196 35.2132 28.9516 35.3773 28.9516 35.5484V39.4194C28.9516 39.5905 29.0196 39.7546 29.1406 39.8756C29.2616 39.9966 29.4257 40.0646 29.5968 40.0646H32.1774C32.3485 40.0646 32.5126 39.9966 32.6336 39.8756C32.7546 39.7546 32.8226 39.5905 32.8226 39.4194V35.5484C32.8226 35.3773 32.7546 35.2132 32.6336 35.0922C32.5126 34.9712 32.3485 34.9033 32.1774 34.9033ZM31.5323 38.7742H30.2419V36.1936H31.5323V38.7742ZM34.1129 34.9033H35.4032V40.0646H34.1129V34.9033ZM40.5645 35.5484C40.5645 35.3773 40.4965 35.2132 40.3756 35.0922C40.2546 34.9712 40.0905 34.9033 39.9194 34.9033H37.3387C37.1676 34.9033 37.0035 34.9712 36.8825 35.0922C36.7615 35.2132 36.6936 35.3773 36.6936 35.5484V39.4194C36.6936 39.5905 36.7615 39.7546 36.8825 39.8756C37.0035 39.9966 37.1676 40.0646 37.3387 40.0646H39.9194C40.0905 40.0646 40.2546 39.9966 40.3756 39.8756C40.4965 39.7546 40.5645 39.5905 40.5645 39.4194V35.5484ZM39.2742 38.7742H37.9839V36.1936H39.2742V38.7742Z" fill="black"/>
<defs>
<filter id="filter0_d_3_436" x="0.5" y="0" width="84" height="84" filterUnits="userSpaceOnUse" color-interpolation-filters="sRGB">
<feFlood flood-opacity="0" result="BackgroundImageFix"/>
<feColorMatrix in="SourceAlpha" type="matrix" values="0 0 0 0 0 0 0 0 0 0 0 0 0 0 0 0 0 0 127 0" result="hardAlpha"/>
<feOffset/>
<feGaussianBlur stdDeviation="3"/>
<feComposite in2="hardAlpha" operator="out"/>
<feColorMatrix type="matrix" values="0 0 0 0 0.243137 0 0 0 0 0.588235 0 0 0 0 0.956863 0 0 0 0.25 0"/>
<feBlend mode="normal" in2="BackgroundImageFix" result="effect1_dropShadow_3_436"/>
<feBlend mode="normal" in="SourceGraphic" in2="effect1_dropShadow_3_436" result="shape"/>
</filter>
</defs>
</svg>
