<svg width="20" height="20" viewBox="0 0 20 20" fill="none" xmlns="http://www.w3.org/2000/svg">
<path d="M16.6662 0H3.33383C2.44965 0 1.60167 0.350679 0.976455 0.974892C0.351242 1.5991 0 2.44572 0 3.32849V17.1414C0.00237415 17.7079 0.172608 18.2611 0.48925 18.7312C0.805893 19.2014 1.25478 19.5674 1.7794 19.7833C2.30402 19.9993 2.88091 20.0554 3.4374 19.9446C3.99389 19.8338 4.5051 19.5611 4.90666 19.1608L7.44378 16.6278H16.6662C17.5504 16.6278 18.3983 16.2771 19.0235 15.6529C19.6488 15.0286 20 14.182 20 13.2993V3.31968C19.9977 2.43844 19.6454 1.59408 19.0205 0.971774C18.3955 0.349465 17.5488 -3.08377e-06 16.6662 0ZM11.4656 12.0958H4.58328C4.25191 12.0958 3.93409 11.9644 3.69977 11.7305C3.46546 11.4965 3.33383 11.1792 3.33383 10.8484C3.33383 10.5176 3.46546 10.2003 3.69977 9.96632C3.93409 9.73238 4.25191 9.60095 4.58328 9.60095H11.4656C11.7969 9.60095 12.1147 9.73238 12.349 9.96632C12.5833 10.2003 12.715 10.5176 12.715 10.8484C12.715 11.1792 12.5833 11.4965 12.349 11.7305C12.1147 11.9644 11.7969 12.0958 11.4656 12.0958ZM15.4167 7.04148H4.58328C4.26201 7.02592 3.95904 6.88755 3.73717 6.65504C3.5153 6.42253 3.39154 6.1137 3.39154 5.79256C3.39154 5.47143 3.5153 5.1626 3.73717 4.93009C3.95904 4.69757 4.26201 4.5592 4.58328 4.54365H15.4167C15.738 4.5592 16.041 4.69757 16.2628 4.93009C16.4847 5.1626 16.6085 5.47143 16.6085 5.79256C16.6085 6.1137 16.4847 6.42253 16.2628 6.65504C16.041 6.88755 15.738 7.02592 15.4167 7.04148Z" fill="#505050"/>
</svg>
