<svg width="48" height="48" viewBox="0 0 48 48" fill="none" xmlns="http://www.w3.org/2000/svg">
<rect width="48" height="48" rx="8" fill="white"/>
<path d="M39.5681 32.4811H33.2482V25.1881C33.2492 25.0944 33.2229 25.0024 33.1725 24.9233C33.1221 24.8442 33.0499 24.7814 32.9645 24.7427L25.8715 21.5863C26.6861 20.4118 27.4207 19.1838 28.0703 17.9107H35.6939C37.5683 17.949 39.0568 19.4996 39.0185 21.3741C38.9813 23.1946 37.5144 24.6615 35.6939 24.6987C34.3916 24.476 34.3916 25.9032 35.6939 25.6776C38.109 25.6341 40.0315 23.641 39.988 21.226C39.9456 18.8722 38.0477 16.9743 35.6939 16.9319H28.5158C33.6468 5.01564 14.4305 5.02978 19.5601 16.9319H9.66401L10.7818 15.8211C11.2287 15.387 10.5449 14.7004 10.0967 15.1288L8.15039 17.0794C8.05957 17.1717 8.00868 17.296 8.00868 17.4255C8.00868 17.555 8.05957 17.6793 8.15039 17.7716L10.0967 19.7108C10.5322 20.1676 11.2316 19.4512 10.7819 19.0214L9.66401 17.9107H20.0042C20.6453 19.1818 21.3773 20.4049 22.1945 21.5707L15.0689 24.7555C14.9805 24.8379 14.9115 24.939 14.8671 25.0514C14.8227 25.1637 14.8039 25.2846 14.8121 25.4052C14.7794 26.8565 14.8291 32.3408 14.8121 32.4812H12.3735C10.4932 32.4812 8.96888 30.9569 8.96888 29.0765C8.96888 27.1962 10.4932 25.6719 12.3735 25.6719C13.6744 25.9017 13.68 24.4703 12.3735 24.6931C9.95809 24.6931 8 26.6511 8 29.0666C8 31.482 9.95809 33.4401 12.3735 33.4401H14.8093C14.8093 33.7097 14.8093 34.8091 14.8163 35.4815C14.8263 35.7028 14.9 35.934 15.1 35.9908C15.1 35.9908 23.8343 39.882 23.8556 39.8976C23.9785 39.9391 24.1125 39.9336 24.2315 39.882L32.9644 35.9908C33.2297 35.8659 33.2637 35.6177 33.2637 35.3467C33.2552 34.6729 33.234 33.7352 33.2524 33.4401H39.5723C39.6904 33.4267 39.7993 33.3701 39.8782 33.2813C39.9572 33.1924 40.0005 33.0776 40 32.9588C39.9995 32.8399 39.9551 32.7255 39.8754 32.6373C39.7957 32.5492 39.6863 32.4936 39.5681 32.4811ZM24.0387 28.5601L20.61 27.0323L28.1526 23.6603L31.5743 25.1881L24.0387 28.5601ZM19.6084 13.2847C20.1716 5.14332 35.6513 8.29832 24.0387 22.4503C22.8939 20.9663 19.6084 16.3701 19.6084 13.2847ZM23.65 23.5454C24.4189 24.1001 24.4912 23.2957 25.2942 22.3935L26.9582 23.1283L19.4198 26.5003C18.6963 26.1726 17.2011 25.5073 16.4804 25.1881L22.7648 22.3935C23.2542 23.0559 23.6003 23.4886 23.65 23.5454ZM15.781 35.2375V25.9371C17.6961 26.7883 21.6498 28.5601 23.5422 29.4113V38.7059L15.781 35.2375ZM32.2836 35.2375L24.5153 38.7102V29.4113L32.2836 25.9371V35.2375ZM26.778 13.3272C26.778 11.8088 25.5472 10.578 24.0288 10.578C22.5104 10.578 21.2795 11.8088 21.2795 13.3272C21.2795 14.8456 22.5104 16.0765 24.0288 16.0765C25.5472 16.0765 26.778 14.8456 26.778 13.3272ZM24.0387 15.1146C23.0558 15.0869 22.2816 14.2676 22.3093 13.2848C22.336 12.3409 23.0949 11.5821 24.0387 11.5554C25.0216 11.5832 25.7959 12.4024 25.7681 13.3853C25.7415 14.3291 24.9825 15.088 24.0387 15.1146Z" fill="#3E96F4"/>
</svg>
