<svg width="45" height="45" viewBox="0 0 45 45" fill="none" xmlns="http://www.w3.org/2000/svg">
<path fill-rule="evenodd" clip-rule="evenodd" d="M39.1935 39.9194H37.7419V41.371H39.1935V39.9194ZM40.6452 37.0161H39.1935V38.4677H40.6452V37.0161ZM39.1935 34.1129H37.7419V35.5645H39.1935V34.1129ZM40.6452 31.2097H39.1935V32.6613H40.6452V31.2097ZM39.1935 28.3064H37.7419V29.7581H39.1935V28.3064ZM12.3387 7.25806C11.9382 7.25806 11.6129 7.58413 11.6129 7.98387V11.6129H10.1613V7.98387C10.1613 6.78357 11.1384 5.80645 12.3387 5.80645H14.5161V2.17742C14.5161 0.977117 15.4932 0 16.6935 0H41.371C42.5713 0 43.5484 0.977117 43.5484 2.17742V8.70968H42.0968V2.17742C42.0968 1.77768 41.7714 1.45161 41.371 1.45161H16.6935C16.2931 1.45161 15.9677 1.77768 15.9677 2.17742V5.80645H23.2258V5.08065C23.2258 3.88034 24.2029 2.90323 25.4032 2.90323H34.1129C35.3132 2.90323 36.2903 3.88034 36.2903 5.08065V8.70968H34.8387V5.08065C34.8387 4.68091 34.5134 4.35484 34.1129 4.35484H25.4032C25.0028 4.35484 24.6774 4.68091 24.6774 5.08065V5.80645H26.8548C28.0551 5.80645 29.0323 6.78357 29.0323 7.98387V23.2258H27.5806V7.98387C27.5806 7.58413 27.2553 7.25806 26.8548 7.25806H24.6774V23.2258H23.2258V7.25806H15.9677V11.6129H14.5161V7.25806H12.3387ZM6.53226 13.0645C5.33196 13.0645 4.35484 12.0874 4.35484 10.8871C4.35484 9.68679 5.33196 8.70968 6.53226 8.70968C7.73256 8.70968 8.70968 9.68679 8.70968 10.8871C8.70968 12.0874 7.73256 13.0645 6.53226 13.0645ZM6.53226 11.6129C6.93272 11.6129 7.25806 11.2868 7.25806 10.8871C7.25806 10.4874 6.93272 10.1613 6.53226 10.1613C6.13179 10.1613 5.80645 10.4874 5.80645 10.8871C5.80645 11.2868 6.13179 11.6129 6.53226 11.6129ZM7.25806 3.62903C7.25806 5.62999 5.62999 7.25806 3.62903 7.25806C1.62807 7.25806 0 5.62999 0 3.62903C0 1.62807 1.62807 0 3.62903 0C5.62999 0 7.25806 1.62807 7.25806 3.62903ZM5.80645 3.62903C5.80645 2.42873 4.82933 1.45161 3.62903 1.45161C2.42873 1.45161 1.45161 2.42873 1.45161 3.62903C1.45161 4.82933 2.42873 5.80645 3.62903 5.80645C4.82933 5.80645 5.80645 4.82933 5.80645 3.62903ZM5.80645 17.4194C5.80645 19.0205 4.50435 20.3226 2.90323 20.3226C1.3021 20.3226 0 19.0205 0 17.4194C0 15.8182 1.3021 14.5161 2.90323 14.5161C4.50435 14.5161 5.80645 15.8182 5.80645 17.4194ZM4.35484 17.4194C4.35484 16.6188 3.70379 15.9677 2.90323 15.9677C2.10266 15.9677 1.45161 16.6188 1.45161 17.4194C1.45161 18.2199 2.10266 18.871 2.90323 18.871C3.70379 18.871 4.35484 18.2199 4.35484 17.4194ZM5.08074 37.7418C3.88044 37.7418 2.90332 38.7189 2.90332 39.9192C2.90332 41.1195 3.88044 42.0966 5.08074 42.0966C6.28104 42.0966 7.25816 41.1195 7.25816 39.9192C7.25816 38.7189 6.28104 37.7418 5.08074 37.7418ZM5.08074 40.645C4.68028 40.645 4.35493 40.3189 4.35493 39.9192C4.35493 39.5195 4.68028 39.1934 5.08074 39.1934C5.4812 39.1934 5.80655 39.5195 5.80655 39.9192C5.80655 40.3189 5.4812 40.645 5.08074 40.645ZM10.8872 36.2902C9.68689 36.2902 8.70977 37.2673 8.70977 38.4676C8.70977 39.6679 9.68689 40.645 10.8872 40.645C12.0875 40.645 13.0646 39.6679 13.0646 38.4676C13.0646 37.2673 12.0875 36.2902 10.8872 36.2902ZM10.8872 39.1934C10.4867 39.1934 10.1614 38.8673 10.1614 38.4676C10.1614 38.0678 10.4867 37.7418 10.8872 37.7418C11.2877 37.7418 11.613 38.0678 11.613 38.4676C11.613 38.8673 11.2877 39.1934 10.8872 39.1934ZM15.9678 33.3869C14.7675 33.3869 13.7904 34.3641 13.7904 35.5644C13.7904 36.7647 14.7675 37.7418 15.9678 37.7418C17.1681 37.7418 18.1453 36.7647 18.1453 35.5644C18.1453 34.3641 17.1681 33.3869 15.9678 33.3869ZM15.9678 36.2902C15.5674 36.2902 15.242 35.9641 15.242 35.5644C15.242 35.1646 15.5674 34.8386 15.9678 34.8386C16.3683 34.8386 16.6936 35.1646 16.6936 35.5644C16.6936 35.9641 16.3683 36.2902 15.9678 36.2902ZM16.6936 40.645H18.1453V42.0966H16.6936V40.645ZM15.242 40.645V39.1934H16.6936V40.645H15.242ZM15.242 40.645V42.0966H13.7904V40.645H15.242ZM7.98397 34.1127H9.43558V35.5644H7.98397V34.1127ZM44.2743 10.1611H34.113C33.7114 10.1611 33.3872 10.4865 33.3872 10.8869V13.7902C33.3872 14.1906 33.7114 14.516 34.113 14.516H34.8388V40.645C34.8388 43.0468 36.7919 44.9998 39.1936 44.9998C41.5954 44.9998 43.5485 43.0468 43.5485 40.645V14.516H44.2743C44.6758 14.516 45.0001 14.1906 45.0001 13.7902V10.8869C45.0001 10.4865 44.6758 10.1611 44.2743 10.1611ZM39.1936 43.5482C37.5925 43.5482 36.2904 42.2461 36.2904 40.645V24.6773H42.0969V40.645C42.0969 42.2461 40.7948 43.5482 39.1936 43.5482ZM42.0969 23.2256H36.2904V14.516H42.0969V23.2256ZM43.5485 13.0644H34.8388V11.6127H43.5485V13.0644ZM29.0323 31.0955V26.129H30.4839V24.6774H21.7742V26.129H23.2258V31.0955C22.7322 31.3114 22.2832 31.5927 21.8586 31.9042L17.4194 23.7666V20.3225H18.871V18.8709H17.4194V16.6935C17.4194 16.293 17.0951 15.9677 16.6935 15.9677H15.9677V13.7903C15.9677 13.3898 15.6435 13.0645 15.2419 13.0645H10.8871C10.4855 13.0645 10.1613 13.3898 10.1613 13.7903V15.9677H9.43548C9.03393 15.9677 8.70968 16.293 8.70968 16.6935V18.8709H7.25806V20.3225H8.70968V23.7665L0.442651 38.9221C0.152619 39.4554 0.000457778 40.0526 0 40.6596V41.3709C0 43.3719 1.62807 44.9999 3.62903 44.9999H22.5C23.0146 44.9999 23.5196 44.8851 23.9849 44.6764C24.6794 44.8911 25.4021 45.0001 26.129 44.9999C30.1312 44.9999 33.3871 41.7441 33.3871 37.7419C33.3871 34.8511 31.657 32.2423 29.0323 31.0955ZM27.5806 26.129V27.5806H24.6774V26.129H27.5806ZM24.194 32.2736C24.3354 32.2234 24.4578 32.1307 24.5444 32.0081C24.6309 31.8856 24.6774 31.7392 24.6774 31.5892V29.0322H27.5806V31.5892C27.5806 31.8968 27.7745 32.1708 28.064 32.2736C29.9105 32.9277 31.2582 34.4619 31.7353 36.2973C31.1827 36.3165 30.6647 36.5348 30.2712 36.9282L29.6702 37.5292C29.5337 37.6647 29.3493 37.7411 29.157 37.7419H28.9075C28.7151 37.7413 28.5308 37.6648 28.3944 37.5292L27.7933 36.9282C27.3825 36.5167 26.8353 36.2903 26.2538 36.2903H26.0043C25.4227 36.2903 24.8756 36.5167 24.4648 36.9282L23.8637 37.5292C23.7272 37.6647 23.5429 37.7411 23.3506 37.7419H23.1011C22.9087 37.7413 22.7243 37.6648 22.5879 37.5292L21.9869 36.9282C21.5942 36.5348 21.076 36.3172 20.5228 36.2973C20.9998 34.462 22.3476 32.9271 24.194 32.2736ZM11.6129 14.5161H14.5161V15.9677H11.6129V14.5161ZM10.1613 17.4193H15.9677V18.8709H10.1613V17.4193ZM10.0727 24.2992C10.1308 24.1925 10.1612 24.073 10.1613 23.9515V20.3225H15.9677V23.9515C15.9677 24.0728 15.9982 24.1925 16.0564 24.2992L18.6439 29.0424C18.1016 29.0677 17.5937 29.2835 17.2068 29.6701L16.6056 30.2711C16.4692 30.4067 16.2848 30.4831 16.0925 30.4838H15.843C15.6506 30.4832 15.4663 30.4068 15.3298 30.2711L14.7288 29.6701C14.318 29.2586 13.7708 29.0322 13.1893 29.0322H12.9398C12.3582 29.0322 11.811 29.2586 11.4002 29.6701L10.7992 30.2711C10.6627 30.4067 10.4784 30.4831 10.286 30.4838H10.0365C9.84418 30.4832 9.6598 30.4068 9.5234 30.2711L8.92234 29.6701C8.53639 29.2835 8.02742 29.0677 7.48524 29.0424L10.0727 24.2992ZM3.62903 43.5483C2.42873 43.5483 1.45161 42.5712 1.45161 41.3709V40.6596C1.45161 40.2967 1.54379 39.9353 1.71744 39.6166L6.69919 30.4838H7.38281C7.57379 30.4838 7.76096 30.5614 7.89596 30.6965L8.49702 31.2975C8.90782 31.709 9.45499 31.9354 10.0365 31.9354H10.286C10.8676 31.9354 11.4148 31.709 11.8256 31.2975L12.4266 30.6965C12.5631 30.5609 12.7474 30.4845 12.9398 30.4838H13.1893C13.3802 30.4838 13.5674 30.5614 13.7024 30.6965L14.3035 31.2975C14.7143 31.709 15.2614 31.9354 15.843 31.9354H16.0925C16.674 31.9354 17.2212 31.709 17.632 31.2975L18.2331 30.6965C18.3696 30.5609 18.5539 30.4845 18.7462 30.4838H19.4298L20.7435 32.8919C19.5686 34.1972 18.871 35.9114 18.871 37.7419C18.871 40.1174 20.0235 42.2235 21.793 43.5483H3.62903ZM26.129 43.5483C22.9273 43.5483 20.3226 40.9436 20.3226 37.7419H20.4473C20.6383 37.7419 20.8255 37.8194 20.9605 37.9545L21.5615 38.5556C21.9723 38.967 22.5195 39.1935 23.1011 39.1935H23.3506C23.9321 39.1935 24.4793 38.967 24.8901 38.5556L25.4911 37.9545C25.6276 37.819 25.8119 37.7426 26.0043 37.7419H26.2538C26.4448 37.7419 26.6319 37.8194 26.7669 37.9545L27.368 38.5556C27.7788 38.967 28.326 39.1935 28.9075 39.1935H29.157C29.7386 39.1935 30.2857 38.967 30.6965 38.5556L31.2976 37.9545C31.4341 37.819 31.6184 37.7426 31.8107 37.7419H31.9355C31.9355 40.9436 29.3307 43.5483 26.129 43.5483Z" fill="url(#paint0_linear_1_406)"/>
<defs>
<linearGradient id="paint0_linear_1_406" x1="0" y1="0" x2="41.8798" y2="36.8622" gradientUnits="userSpaceOnUse">
<stop stop-color="#FE5B52"/>
<stop offset="1" stop-color="#3D96F5"/>
</linearGradient>
</defs>
</svg>
