<svg width="94" height="83" viewBox="0 0 94 83" fill="none" xmlns="http://www.w3.org/2000/svg">
<g id="Frame 9">
<path id="Union" fill-rule="evenodd" clip-rule="evenodd" d="M39.0004 31.225C39.1004 31.325 39.2004 31.425 39.3004 31.425C39.3504 31.425 39.4004 31.45 39.4504 31.475L39.4504 31.475C39.5004 31.5 39.5504 31.525 39.6004 31.525H40.2004L43.3004 36.325V41.825C43.3004 41.925 43.3004 42.025 43.4004 42.125C43.4004 42.225 43.5004 42.325 43.6004 42.425L46.1004 44.925C46.2004 45.025 46.3004 45.125 46.4004 45.125C46.4504 45.125 46.5004 45.15 46.5504 45.175C46.6004 45.2 46.6504 45.225 46.7004 45.225C46.8004 45.225 46.9004 45.225 47.0004 45.125C47.1004 45.125 47.2004 45.025 47.3004 44.925L49.8004 42.425C49.9004 42.325 50.0004 42.225 50.0004 42.125C50.0004 42.075 50.0254 42.025 50.0504 41.975C50.0754 41.925 50.1004 41.875 50.1004 41.825V36.325L53.2004 31.525H53.7004C53.8004 31.525 53.9004 31.525 54.0004 31.425C54.1004 31.425 54.2004 31.325 54.3004 31.225C54.4004 31.125 54.5004 31.025 54.5004 30.925C54.5004 30.8836 54.5176 30.8422 54.5377 30.7936C54.5661 30.725 54.6004 30.6422 54.6004 30.525V19.825C54.6004 19.625 54.5004 19.325 54.3004 19.225C54.0004 18.925 53.4004 18.925 53.0004 19.225C52.8004 19.425 52.7004 19.625 52.7004 19.825V29.625H40.6004V19.825C40.6004 19.625 40.5004 19.325 40.3004 19.225C40.0004 18.925 39.4004 18.925 39.0004 19.225C38.8004 19.425 38.7004 19.625 38.7004 19.825V30.525C38.7004 30.625 38.7004 30.725 38.8004 30.825C38.8386 30.9014 38.8768 30.9632 38.9094 31.016L38.9094 31.016L38.9094 31.016C38.9622 31.1014 39.0004 31.1632 39.0004 31.225ZM48.3004 36.825V41.325L46.7004 42.925L45.1004 41.325V36.825H48.3004ZM44.7004 35.025L42.4004 31.425H51.0004L48.7004 35.025H44.7004ZM42.5004 27.625C42.6004 27.725 42.7004 27.825 42.8004 27.825C42.8504 27.825 42.9004 27.85 42.9504 27.875C43.0004 27.9 43.0504 27.925 43.1004 27.925C43.3004 27.925 43.6004 27.825 43.7004 27.625C43.9004 27.425 44.0004 27.225 44.0004 27.025V23.325C44.0004 23.125 43.9004 22.825 43.7004 22.725C43.4004 22.425 42.8004 22.425 42.4004 22.725C42.2004 22.925 42.1004 23.125 42.1004 23.325V27.025C42.1004 27.125 42.1004 27.225 42.2004 27.325C42.4004 27.425 42.5004 27.525 42.5004 27.625ZM46.4004 27.825C46.3004 27.825 46.2004 27.725 46.1004 27.625L45.8004 27.325C45.7004 27.225 45.7004 27.125 45.7004 27.025V23.325C45.7004 23.125 45.8004 22.925 46.0004 22.725C46.4004 22.425 47.0004 22.425 47.3004 22.725C47.5004 22.825 47.6004 23.125 47.6004 23.325V27.025C47.6004 27.075 47.5754 27.125 47.5504 27.175C47.5254 27.225 47.5004 27.275 47.5004 27.325C47.5004 27.425 47.4004 27.525 47.3004 27.625C47.2004 27.725 47.1004 27.825 47.0004 27.825C46.9004 27.925 46.8004 27.925 46.7004 27.925C46.6504 27.925 46.6004 27.9 46.5504 27.875C46.5004 27.85 46.4504 27.825 46.4004 27.825ZM69.3004 57.825L61.8004 47.825L61.5004 47.525C61.4004 47.425 61.2004 47.425 61.1004 47.425H55.7004L62.8004 40.325C62.9004 40.225 63.0004 40.125 63.0004 40.025C63.0004 39.975 63.0254 39.925 63.0504 39.875C63.0754 39.825 63.1004 39.775 63.1004 39.725C63.1004 39.625 63.1004 39.525 63.0004 39.425C62.9504 39.375 62.9254 39.325 62.9004 39.275C62.8754 39.225 62.8504 39.175 62.8004 39.125L59.8004 36.125C59.5004 35.825 58.9004 35.825 58.5004 36.125L47.5004 47.125C47.4004 47.225 47.3004 47.325 47.2004 47.325C47.0004 47.425 46.7004 47.425 46.4004 47.325C46.3504 47.275 46.3004 47.25 46.2504 47.225C46.2004 47.2 46.1504 47.175 46.1004 47.125L35.1004 36.125C34.8004 35.825 34.2004 35.825 33.8004 36.125L30.8004 39.125C30.7004 39.225 30.6004 39.325 30.6004 39.425C30.6004 39.4664 30.5832 39.5078 30.5631 39.5564C30.5347 39.625 30.5004 39.7078 30.5004 39.825C30.5004 39.925 30.5004 40.025 30.6004 40.125C30.6004 40.225 30.7004 40.325 30.8004 40.425L37.9004 47.525H32.4004C32.3004 47.525 32.1004 47.525 32.0004 47.625L31.7004 47.925L24.2004 57.925C24.1004 58.125 24.0004 58.325 24.0004 58.425V63.525C24.0004 63.625 24.0004 63.725 24.1004 63.825C24.1004 63.925 24.2004 64.025 24.3004 64.125L24.3004 64.125C24.4004 64.225 24.5004 64.325 24.6004 64.325C24.6504 64.325 24.7004 64.35 24.7504 64.375C24.8004 64.4 24.8504 64.425 24.9004 64.425H68.6004C68.7004 64.425 68.8004 64.425 68.9004 64.325C69.0004 64.325 69.1004 64.225 69.2004 64.125C69.3004 64.025 69.4004 63.925 69.4004 63.825C69.4004 63.775 69.4254 63.725 69.4504 63.675L69.4504 63.675C69.4754 63.625 69.5004 63.575 69.5004 63.525V58.425C69.4623 58.3106 69.4387 58.2107 69.4185 58.1253L69.4185 58.1253L69.4184 58.1251L69.4184 58.125C69.3858 57.9868 69.3622 57.8868 69.3004 57.825ZM39.2004 55.725C39.2004 55.825 39.3004 55.925 39.4004 56.025C39.5004 56.125 39.6004 56.225 39.7004 56.225C39.7504 56.225 39.8004 56.25 39.8504 56.275C39.9004 56.3 39.9504 56.325 40.0004 56.325H53.3004C53.4004 56.325 53.5004 56.325 53.6004 56.225C53.7004 56.225 53.8004 56.125 53.9004 56.025C54.0004 55.925 54.1004 55.825 54.1004 55.725C54.1004 55.675 54.1254 55.625 54.1504 55.575C54.1754 55.525 54.2004 55.475 54.2004 55.425V49.325H60.5004L67.6004 58.725V62.625H25.8004V58.725L32.9004 49.325H39.2004V55.425C39.1337 55.425 39.156 55.5139 39.1782 55.6028C39.1893 55.6472 39.2004 55.6917 39.2004 55.725ZM50.1004 50.325C49.7004 50.725 49.1004 51.125 48.6004 51.325C47.4004 51.825 46.1004 51.825 45.0004 51.325C44.4004 51.125 43.9004 50.725 43.5004 50.325L32.6004 39.625L34.3004 37.925L44.7004 48.325C45.2004 48.825 45.9004 49.125 46.7004 49.125C47.4004 49.125 48.2004 48.825 48.7004 48.325L59.1004 37.925L60.8004 39.625L50.1004 50.325ZM52.4004 50.525V54.425H41.0004V50.525L42.1004 51.625C43.3004 52.825 45.0004 53.525 46.8004 53.525C48.5004 53.525 50.2004 52.825 51.5004 51.625L52.4004 50.525ZM50.6004 27.825C50.4004 27.925 50.3004 27.925 50.2004 27.925C50.0004 27.925 49.7004 27.825 49.6004 27.625C49.4004 27.525 49.3004 27.225 49.3004 27.025V23.325C49.3004 23.125 49.4004 22.925 49.6004 22.725C50.0004 22.425 50.6004 22.425 50.9004 22.725C51.1004 22.825 51.2004 23.125 51.2004 23.325V27.025C51.2004 27.075 51.1754 27.125 51.1504 27.175C51.1254 27.225 51.1004 27.275 51.1004 27.325C51.1004 27.425 51.0004 27.525 50.9004 27.625C50.8004 27.725 50.7004 27.825 50.6004 27.825ZM59.5004 45.125C59.4004 45.325 59.4004 45.625 59.4004 45.825C59.5004 46.025 59.6004 46.225 59.7004 46.325C59.9004 46.425 60.1004 46.525 60.2004 46.525H60.5004L63.6004 45.625C63.8004 45.525 64.0004 45.425 64.1004 45.225C64.2004 45.025 64.2004 44.725 64.2004 44.525C64.1004 44.325 64.0004 44.125 63.8004 44.025C63.6004 43.925 63.3004 43.925 63.1004 43.925L60.0004 44.825C59.8004 44.725 59.6004 44.925 59.5004 45.125ZM32.9004 46.425L29.8004 45.525C29.5004 45.525 29.3004 45.325 29.4004 45.025C29.3004 44.825 29.2004 44.525 29.3004 44.325C29.3004 44.125 29.5004 43.925 29.7004 43.825C29.9004 43.725 30.2004 43.625 30.4004 43.725L33.5004 44.625C33.7004 44.725 33.9004 44.825 34.0004 45.025C34.1004 45.225 34.1004 45.425 34.1004 45.625C34.1004 45.925 34.0004 46.125 33.8004 46.225C33.6004 46.325 33.4004 46.425 33.2004 46.425H32.9004ZM40.6004 35.925C40.5504 35.875 40.5004 35.85 40.4504 35.825C40.4004 35.8 40.3504 35.775 40.3004 35.725H39.9004C39.8004 35.725 39.7004 35.725 39.6004 35.825C39.5504 35.875 39.5004 35.9 39.4504 35.925C39.4004 35.95 39.3504 35.975 39.3004 36.025C39.3004 36.075 39.2754 36.125 39.2504 36.175C39.2254 36.225 39.2004 36.275 39.2004 36.325V36.725C39.2004 36.84 39.2004 36.8889 39.2194 36.9287C39.2335 36.9581 39.2579 36.9825 39.3004 37.025L40.6004 39.525C40.6504 39.575 40.6754 39.625 40.7004 39.675C40.7254 39.725 40.7504 39.775 40.8004 39.825C40.8504 39.875 40.9004 39.9 40.9504 39.925C41.0004 39.95 41.0504 39.975 41.1004 40.025H41.4004H41.5004C41.6004 40.025 41.7004 40.025 41.8004 39.925C41.8504 39.875 41.9004 39.85 41.9504 39.825C42.0004 39.8 42.0504 39.775 42.1004 39.725C42.1504 39.675 42.1754 39.625 42.2004 39.575C42.2254 39.525 42.2504 39.475 42.3004 39.425V39.025C42.3004 38.925 42.3004 38.825 42.2004 38.725L40.9004 36.225L40.6004 35.925ZM53.1004 35.725C53.3004 35.725 53.6004 35.725 53.8004 35.825C54.0004 35.925 54.1004 36.125 54.2004 36.325C54.2004 36.525 54.2004 36.825 54.1004 37.025L52.8004 39.525C52.8004 39.625 52.7004 39.725 52.6004 39.825C52.5004 39.925 52.4004 40.025 52.3004 40.025H52.0004H51.9004C51.8004 40.025 51.7004 40.025 51.6004 39.925C51.5004 39.925 51.4004 39.825 51.3004 39.725C51.2004 39.625 51.1004 39.525 51.1004 39.425V39.025C51.1004 38.925 51.1004 38.825 51.2004 38.725L52.6004 36.125C52.7004 35.925 52.9004 35.825 53.1004 35.725Z" fill="url(#paint0_linear_1_1378)"/>
</g>
<defs>
<linearGradient id="paint0_linear_1_1378" x1="23.9999" y1="19" x2="69.6396" y2="57.2261" gradientUnits="userSpaceOnUse">
<stop stop-color="#FE5B52"/>
<stop offset="1" stop-color="#3D96F5"/>
</linearGradient>
</defs>
</svg>
