<svg width="123" height="45" viewBox="0 0 123 45" fill="none" xmlns="http://www.w3.org/2000/svg">
<path d="M33.5183 23.5305V1.08386C33.5183 0.797827 33.6313 0.523391 33.8328 0.320364C34.0343 0.117338 34.3079 0.00218343 34.5939 0H40.7413C41.0273 0.00218343 41.3009 0.117338 41.5023 0.320364C41.7038 0.523391 41.8169 0.797827 41.8169 1.08386V23.547C41.8169 23.8323 41.7035 24.1058 41.5018 24.3076C41.3001 24.5093 41.0265 24.6226 40.7413 24.6226H34.5939C34.4512 24.6226 34.31 24.5943 34.1784 24.5392C34.0469 24.4841 33.9275 24.4034 33.8274 24.3017C33.7273 24.2001 33.6484 24.0796 33.5954 23.9471C33.5423 23.8147 33.5161 23.6731 33.5183 23.5305Z" fill="#231F20"/>
<path d="M58.0735 24.7053C56.2693 24.7248 54.4762 24.4222 52.7784 23.8118C51.2273 23.2491 49.8041 22.3828 48.5918 21.2635C47.412 20.1674 46.4736 18.8374 45.8367 17.3583C44.5237 14.1618 44.5237 10.5766 45.8367 7.38015C46.4727 5.89391 47.4175 4.55993 48.6084 3.46669C49.8384 2.34379 51.2819 1.47995 52.8528 0.926653C54.5816 0.314238 56.405 0.0117555 58.239 0.0331016C60.3877 -0.00623574 62.5218 0.393563 64.5105 1.20798C65.819 1.76119 67.0204 2.53967 68.0599 3.50805C68.1984 3.63369 68.3091 3.78695 68.3849 3.95795C68.4607 4.12894 68.4998 4.31388 68.4998 4.50091C68.4998 4.68793 68.4607 4.87288 68.3849 5.04387C68.3091 5.21486 68.1984 5.36812 68.0599 5.49377L64.9573 8.22408C64.7094 8.4428 64.3901 8.56349 64.0595 8.56349C63.7289 8.56349 63.4098 8.4428 63.1619 8.22408C62.6742 7.78865 62.1319 7.41871 61.5485 7.12367C60.6486 6.6796 59.6561 6.4556 58.6527 6.47006C57.8402 6.4578 57.0325 6.59522 56.2698 6.87546C55.5875 7.12571 54.9709 7.52739 54.4662 8.05032C53.9606 8.58334 53.5693 9.21399 53.3161 9.90363C53.0302 10.6992 52.8928 11.5405 52.9107 12.3857C52.8997 13.2062 53.037 14.0219 53.3161 14.7934C53.5631 15.491 53.955 16.1283 54.4662 16.6633C54.9639 17.1851 55.5676 17.5942 56.2368 17.863C56.9741 18.1532 57.7611 18.2965 58.5534 18.2849C59.4525 18.2824 60.3447 18.1286 61.1927 17.8299C61.8115 17.6019 62.4027 17.3049 62.955 16.9446C63.2348 16.7691 63.569 16.7017 63.895 16.755C64.221 16.8083 64.5163 16.9787 64.7256 17.2342L67.4063 20.5437C67.5321 20.6995 67.6218 20.8812 67.669 21.0758C67.7162 21.2704 67.7198 21.473 67.6794 21.6691C67.6391 21.8653 67.5559 22.0501 67.4357 22.2102C67.3155 22.3704 67.1614 22.502 66.9843 22.5955C65.8598 23.1755 64.6788 23.6385 63.4597 23.9772C61.7063 24.4665 59.8938 24.7115 58.0735 24.7053ZM60.8287 20.1383V13.6682C60.8276 13.4919 60.8615 13.3171 60.9285 13.154C60.9954 12.9909 61.0941 12.8427 61.2188 12.718C61.3435 12.5933 61.4917 12.4946 61.6548 12.4277C61.8179 12.3607 61.9927 12.3268 62.169 12.3279H66.4134C66.5901 12.3268 66.7653 12.3606 66.9289 12.4275C67.0925 12.4944 67.2412 12.5929 67.3666 12.7175C67.4919 12.842 67.5914 12.9902 67.6592 13.1533C67.7271 13.3165 67.7621 13.4915 67.7621 13.6682V20.7588C67.7604 20.951 67.7177 21.1407 67.6368 21.315C67.5559 21.4894 67.4387 21.6445 67.293 21.7698C67.1472 21.8952 66.9764 21.988 66.7919 22.0419C66.6074 22.0959 66.4135 22.1097 66.2232 22.0826L61.9787 21.462C61.6557 21.4158 61.3607 21.2532 61.149 21.0049C60.9373 20.7566 60.8234 20.4397 60.8287 20.1134V20.1383Z" fill="#231F20"/>
<path d="M0 23.7208V1.01765C0 0.76311 0.101138 0.518987 0.281127 0.338999C0.461115 0.15901 0.705238 0.0579224 0.959781 0.0579224H6.57762C6.65185 0.0594138 6.72457 0.0790334 6.78946 0.115087C6.85436 0.151141 6.90947 0.202533 6.94995 0.264766L14.3135 12.5429C14.362 12.6199 14.4291 12.6832 14.5087 12.7272C14.5883 12.7711 14.6777 12.7941 14.7686 12.7941C14.8595 12.7941 14.9489 12.7711 15.0285 12.7272C15.1081 12.6832 15.1752 12.6199 15.2237 12.5429L22.3722 0.529531C22.4578 0.386279 22.5789 0.267558 22.7239 0.184927C22.8688 0.102296 23.0327 0.0585563 23.1996 0.0579224H28.5278C28.7817 0.0600831 29.0245 0.161901 29.2041 0.341423C29.3836 0.520945 29.4854 0.763779 29.4876 1.01765L29.5455 23.7208C29.5466 23.8471 29.5225 23.9724 29.4747 24.0893C29.4269 24.2063 29.3562 24.3125 29.2668 24.4019C29.1775 24.4912 29.0712 24.5618 28.9543 24.6097C28.8374 24.6575 28.7121 24.6816 28.5857 24.6805H22.9431C22.8174 24.6816 22.6928 24.6578 22.5764 24.6105C22.46 24.5632 22.3541 24.4932 22.2649 24.4048C22.1756 24.3163 22.1049 24.211 22.0565 24.0951C22.0082 23.9791 21.9833 23.8547 21.9833 23.729V15.3478C21.982 15.2323 21.943 15.1204 21.8722 15.0292C21.8015 14.938 21.7028 14.8723 21.5913 14.8424C21.4798 14.8124 21.3616 14.8197 21.2546 14.8631C21.1476 14.9066 21.0578 14.9838 20.9987 15.083L16.8619 21.9999C16.7759 22.1421 16.6544 22.2596 16.5094 22.3408C16.3643 22.422 16.2007 22.4642 16.0345 22.4632H13.4531C13.2872 22.4676 13.1231 22.4277 12.9777 22.3477C12.8323 22.2678 12.7108 22.1505 12.6257 22.0081L8.48885 15.3891C8.42995 15.2911 8.34044 15.2152 8.23413 15.173C8.12783 15.1309 8.0106 15.1249 7.90054 15.1559C7.79048 15.1869 7.69369 15.2533 7.62507 15.3448C7.55645 15.4363 7.51983 15.5478 7.52084 15.6622V23.696C7.52084 23.9505 7.4197 24.1946 7.23971 24.3746C7.05972 24.5546 6.8156 24.6557 6.56106 24.6557H0.918371C0.6753 24.6453 0.445256 24.5429 0.274764 24.3694C0.104272 24.1958 0.00606923 23.964 0 23.7208Z" fill="#231F20"/>
<path d="M94.1056 6.04811C93.0478 4.19993 91.506 2.67523 89.6461 1.6382C87.6518 0.547862 85.4072 -0.00258058 83.1347 0.0413818C80.8887 -0.000842471 78.6712 0.549945 76.706 1.6382C74.8496 2.67991 73.3089 4.20349 72.2465 6.04811C71.166 8.04989 70.6003 10.2889 70.6003 12.5637C70.6003 14.8384 71.166 17.0775 72.2465 19.0792C72.821 20.0082 73.4892 20.876 74.2404 21.6689C75.1757 22.7398 76.1907 23.7383 77.2769 24.6557C81.2814 28.1472 81.6206 34.9813 83.4325 34.9648C85.2445 34.9483 85.5672 28.2879 89.3317 24.6557C90.3791 23.6657 91.3655 22.613 92.2854 21.5034C92.9589 20.7477 93.5678 19.9368 94.1056 19.0792C95.165 17.0708 95.7187 14.8344 95.7187 12.5637C95.7187 10.293 95.165 8.05655 94.1056 6.04811ZM83.1595 18.9717C81.8713 18.9717 80.6121 18.5896 79.5411 17.8737C78.4701 17.1579 77.6356 16.1404 77.143 14.9501C76.6504 13.7599 76.5219 12.4502 76.7738 11.1869C77.0257 9.92356 77.6467 8.76335 78.5581 7.85304C79.4696 6.94274 80.6306 6.32327 81.8943 6.07296C83.1579 5.82265 84.4674 5.95275 85.6571 6.44685C86.8467 6.94096 87.8631 7.77684 88.5776 8.84873C89.2921 9.92061 89.6726 11.1803 89.6709 12.4685C89.6698 13.3225 89.5006 14.168 89.1727 14.9566C88.8449 15.7451 88.365 16.4614 87.7603 17.0645C87.1557 17.6676 86.4382 18.1457 85.6488 18.4715C84.8594 18.7973 84.0135 18.9645 83.1595 18.9634V18.9717Z" fill="#E79926"/>
<path d="M83.1606 6.58594C81.9988 6.58594 80.863 6.93043 79.897 7.57592C78.931 8.2214 78.178 9.13886 77.7334 10.2123C77.2888 11.2857 77.1725 12.4668 77.3991 13.6063C77.6258 14.7458 78.1853 15.7925 79.0068 16.614C79.8284 17.4356 80.8751 17.9951 82.0146 18.2217C83.1541 18.4484 84.3352 18.3321 85.4086 17.8875C86.482 17.4429 87.3995 16.6899 88.0449 15.7239C88.6904 14.7578 89.0349 13.6221 89.0349 12.4603C89.0349 10.9023 88.416 9.40814 87.3144 8.30648C86.2127 7.20483 84.7186 6.58594 83.1606 6.58594ZM83.1606 17.1432C82.2508 17.1432 81.3614 16.8734 80.6049 16.3679C79.8484 15.8624 79.2587 15.144 78.9106 14.3034C78.5624 13.4628 78.4713 12.5379 78.6488 11.6456C78.8263 10.7532 79.2644 9.9335 79.9078 9.29015C80.5511 8.6468 81.3708 8.20871 82.2631 8.03121C83.1555 7.85371 84.0805 7.94482 84.921 8.293C85.7616 8.64118 86.4801 9.23079 86.9855 9.98729C87.491 10.7438 87.7608 11.6331 87.7608 12.543C87.7619 13.1474 87.6436 13.7461 87.4129 14.3047C87.1821 14.8633 86.8432 15.3709 86.4159 15.7982C85.9885 16.2256 85.4809 16.5644 84.9223 16.7952C84.3637 17.026 83.765 17.1443 83.1606 17.1432Z" fill="#E79926"/>
<path d="M110.272 0.165469C107.832 0.163832 105.446 0.88595 103.416 2.24047C101.386 3.59498 99.8038 5.52105 98.8688 7.77503C97.9338 10.029 97.6883 12.5096 98.1634 14.9031C98.6384 17.2967 99.8127 19.4955 101.538 21.2216C103.263 22.9477 105.461 24.1234 107.854 24.6001C110.247 25.0767 112.728 24.8329 114.982 23.8995C117.237 22.966 119.164 21.3849 120.52 19.356C121.876 17.3272 122.6 14.9418 122.6 12.5016C122.601 10.882 122.283 9.27804 121.664 7.7814C121.045 6.28476 120.137 4.92474 118.992 3.77911C117.847 2.63349 116.488 1.7247 114.991 1.10465C113.495 0.484596 111.891 0.165469 110.272 0.165469ZM110.272 18.6324C109.059 18.6341 107.873 18.2759 106.863 17.6032C105.854 16.9305 105.067 15.9736 104.602 14.8535C104.136 13.7334 104.014 12.5004 104.249 11.3106C104.485 10.1208 105.068 9.02762 105.925 8.16938C106.782 7.31114 107.875 6.72641 109.064 6.48918C110.254 6.25195 111.487 6.37288 112.608 6.83667C113.729 7.30045 114.686 8.08623 115.361 9.09462C116.035 10.103 116.394 11.2887 116.394 12.5016C116.394 14.1261 115.75 15.6843 114.602 16.8338C113.454 17.9833 111.896 18.6302 110.272 18.6324Z" fill="black"/>
<path d="M110.272 6.93336C109.171 6.93172 108.093 7.25689 107.177 7.86774C106.26 8.47858 105.545 9.34764 105.122 10.365C104.699 11.3823 104.588 12.5021 104.802 13.5828C105.016 14.6635 105.545 15.6564 106.324 16.436C107.102 17.2155 108.094 17.7467 109.175 17.9622C110.255 18.1777 111.375 18.0679 112.393 17.6467C113.411 17.2255 114.281 16.5118 114.893 15.596C115.505 14.6801 115.832 13.6032 115.832 12.5016C115.832 11.0262 115.247 9.61115 114.204 8.56714C113.162 7.52314 111.748 6.93555 110.272 6.93336ZM110.272 16.9363C109.412 16.9363 108.57 16.6811 107.854 16.2029C107.139 15.7247 106.581 15.0449 106.252 14.2497C105.922 13.4545 105.836 12.5795 106.004 11.7353C106.172 10.8911 106.586 10.1156 107.195 9.50698C107.804 8.89834 108.579 8.48389 109.423 8.31596C110.267 8.14804 111.143 8.23422 111.938 8.56361C112.733 8.893 113.413 9.45081 113.891 10.1665C114.369 10.8822 114.624 11.7236 114.624 12.5843C114.622 13.7379 114.163 14.8435 113.347 15.6592C112.532 16.4749 111.426 16.9341 110.272 16.9363Z" fill="black"/>
<path d="M119.758 45C119.569 45 119.382 44.9707 119.197 44.9122C119.013 44.8537 118.862 44.7727 118.745 44.6691L119.13 43.9197C119.211 43.9917 119.303 44.048 119.407 44.0885C119.515 44.129 119.621 44.1493 119.724 44.1493C119.873 44.1493 119.99 44.1133 120.075 44.0412C120.165 43.9737 120.246 43.8589 120.318 43.6969L120.507 43.2513L120.588 43.1365L121.891 40.0038H122.904L121.263 43.8589C121.146 44.1515 121.011 44.3811 120.858 44.5476C120.71 44.7141 120.543 44.8312 120.359 44.8987C120.179 44.9662 119.978 45 119.758 45ZM120.379 43.7779L118.759 40.0038H119.846L121.101 43.042L120.379 43.7779Z" fill="#59595C"/>
<path d="M116.9 39.9498C117.188 39.9498 117.445 40.0083 117.67 40.1254C117.899 40.2379 118.079 40.4134 118.21 40.652C118.34 40.886 118.406 41.1876 118.406 41.5567V43.6362H117.353V41.7187C117.353 41.4262 117.287 41.2101 117.157 41.0706C117.031 40.9311 116.851 40.8613 116.617 40.8613C116.45 40.8613 116.299 40.8973 116.164 40.9693C116.034 41.0368 115.93 41.1426 115.854 41.2866C115.782 41.4307 115.746 41.6152 115.746 41.8403V43.6362H114.692V40.0038H115.698V41.0098L115.509 40.706C115.64 40.4629 115.827 40.2762 116.07 40.1456C116.313 40.0151 116.59 39.9498 116.9 39.9498Z" fill="#59595C"/>
<path d="M112.762 43.6362V42.9273L112.695 42.772V41.5027C112.695 41.2776 112.625 41.1021 112.485 40.9761C112.35 40.85 112.141 40.787 111.857 40.787C111.664 40.787 111.473 40.8185 111.284 40.8815C111.099 40.9401 110.942 41.0211 110.811 41.1246L110.433 40.3887C110.631 40.2491 110.869 40.1411 111.149 40.0646C111.428 39.9881 111.711 39.9498 111.999 39.9498C112.553 39.9498 112.983 40.0804 113.289 40.3414C113.595 40.6025 113.748 41.0098 113.748 41.5635V43.6362H112.762ZM111.655 43.6902C111.371 43.6902 111.128 43.6429 110.926 43.5484C110.723 43.4494 110.568 43.3166 110.46 43.1501C110.352 42.9835 110.298 42.7967 110.298 42.5897C110.298 42.3736 110.35 42.1846 110.453 42.0226C110.561 41.8605 110.73 41.7345 110.96 41.6445C111.189 41.55 111.488 41.5027 111.857 41.5027H112.823V42.1171H111.972C111.725 42.1171 111.554 42.1576 111.459 42.2386C111.369 42.3196 111.324 42.4209 111.324 42.5424C111.324 42.6775 111.376 42.7855 111.479 42.8665C111.587 42.943 111.734 42.9813 111.918 42.9813C112.094 42.9813 112.251 42.9408 112.391 42.8598C112.53 42.7742 112.632 42.6505 112.695 42.4884L112.857 42.9745C112.78 43.2086 112.641 43.3864 112.438 43.5079C112.236 43.6294 111.975 43.6902 111.655 43.6902Z" fill="#59595C"/>
<path d="M108.074 43.6902C107.768 43.6902 107.5 43.6227 107.27 43.4877C107.041 43.3526 106.861 43.1478 106.73 42.8733C106.604 42.5942 106.541 42.2431 106.541 41.82C106.541 41.3924 106.602 41.0413 106.724 40.7668C106.845 40.4922 107.021 40.2874 107.25 40.1524C107.48 40.0173 107.754 39.9498 108.074 39.9498C108.416 39.9498 108.722 40.0286 108.992 40.1861C109.267 40.3392 109.483 40.5552 109.64 40.8343C109.802 41.1134 109.883 41.4419 109.883 41.82C109.883 42.2026 109.802 42.5334 109.64 42.8125C109.483 43.0916 109.267 43.3076 108.992 43.4607C108.722 43.6137 108.416 43.6902 108.074 43.6902ZM105.927 44.946V40.0038H106.933V40.7465L106.913 41.8268L106.98 42.9003V44.946H105.927ZM107.892 42.826C108.067 42.826 108.222 42.7855 108.357 42.7045C108.497 42.6235 108.607 42.5087 108.688 42.3601C108.774 42.2071 108.817 42.0271 108.817 41.82C108.817 41.6085 108.774 41.4284 108.688 41.2799C108.607 41.1314 108.497 41.0166 108.357 40.9356C108.222 40.8545 108.067 40.814 107.892 40.814C107.716 40.814 107.559 40.8545 107.419 40.9356C107.279 41.0166 107.169 41.1314 107.088 41.2799C107.007 41.4284 106.967 41.6085 106.967 41.82C106.967 42.0271 107.007 42.2071 107.088 42.3601C107.169 42.5087 107.279 42.6235 107.419 42.7045C107.559 42.7855 107.716 42.826 107.892 42.826Z" fill="#59595C"/>
<path d="M103.498 39.9498C103.786 39.9498 104.041 40.0083 104.261 40.1254C104.486 40.2379 104.662 40.4134 104.788 40.652C104.918 40.886 104.983 41.1876 104.983 41.5567V43.6362H103.93V41.7187C103.93 41.4262 103.869 41.2101 103.748 41.0706C103.626 40.9311 103.455 40.8613 103.235 40.8613C103.082 40.8613 102.945 40.8973 102.823 40.9693C102.701 41.0368 102.607 41.1404 102.539 41.2799C102.472 41.4194 102.438 41.5972 102.438 41.8133V43.6362H101.385V41.7187C101.385 41.4262 101.324 41.2101 101.203 41.0706C101.086 40.9311 100.917 40.8613 100.696 40.8613C100.543 40.8613 100.406 40.8973 100.284 40.9693C100.163 41.0368 100.068 41.1404 100.001 41.2799C99.9333 41.4194 99.8996 41.5972 99.8996 41.8133V43.6362H98.8463V40.0038H99.8523V40.9963L99.6632 40.706C99.7893 40.4584 99.9671 40.2717 100.197 40.1456C100.431 40.0151 100.696 39.9498 100.993 39.9498C101.326 39.9498 101.617 40.0353 101.864 40.2064C102.116 40.3729 102.283 40.6295 102.364 40.9761L101.993 40.8748C102.114 40.5912 102.308 40.3662 102.573 40.1996C102.843 40.0331 103.152 39.9498 103.498 39.9498Z" fill="#59595C"/>
<path d="M96.1498 43.6902C95.7627 43.6902 95.4184 43.6092 95.1168 43.4472C94.8198 43.2851 94.5835 43.0646 94.4079 42.7855C94.2369 42.5019 94.1514 42.1801 94.1514 41.82C94.1514 41.4554 94.2369 41.1336 94.4079 40.8545C94.5835 40.571 94.8198 40.3504 95.1168 40.1929C95.4184 40.0308 95.7627 39.9498 96.1498 39.9498C96.5324 39.9498 96.8745 40.0308 97.1761 40.1929C97.4776 40.3504 97.714 40.5687 97.885 40.8478C98.056 41.1269 98.1416 41.4509 98.1416 41.82C98.1416 42.1801 98.056 42.5019 97.885 42.7855C97.714 43.0646 97.4776 43.2851 97.1761 43.4472C96.8745 43.6092 96.5324 43.6902 96.1498 43.6902ZM96.1498 42.826C96.3254 42.826 96.4829 42.7855 96.6224 42.7045C96.762 42.6235 96.8723 42.5087 96.9533 42.3601C97.0343 42.2071 97.0748 42.0271 97.0748 41.82C97.0748 41.6085 97.0343 41.4284 96.9533 41.2799C96.8723 41.1314 96.762 41.0166 96.6224 40.9356C96.4829 40.8545 96.3254 40.814 96.1498 40.814C95.9743 40.814 95.8168 40.8545 95.6772 40.9356C95.5377 41.0166 95.4252 41.1314 95.3396 41.2799C95.2586 41.4284 95.2181 41.6085 95.2181 41.82C95.2181 42.0271 95.2586 42.2071 95.3396 42.3601C95.4252 42.5087 95.5377 42.6235 95.6772 42.7045C95.8168 42.7855 95.9743 42.826 96.1498 42.826Z" fill="#59595C"/>
<path d="M91.927 43.7173C91.5624 43.7173 91.2226 43.6588 90.9075 43.5418C90.597 43.4202 90.3269 43.2492 90.0973 43.0287C89.8678 42.8081 89.6877 42.5493 89.5572 42.2522C89.4312 41.9551 89.3682 41.6288 89.3682 41.2732C89.3682 40.9177 89.4312 40.5913 89.5572 40.2943C89.6877 39.9972 89.8678 39.7384 90.0973 39.5178C90.3314 39.2973 90.6037 39.1285 90.9143 39.0115C91.2249 38.8899 91.5647 38.8292 91.9338 38.8292C92.3434 38.8292 92.7124 38.9012 93.041 39.0452C93.3741 39.1847 93.6532 39.3918 93.8782 39.6664L93.1761 40.3145C93.014 40.13 92.834 39.9927 92.6359 39.9027C92.4379 39.8081 92.2218 39.7609 91.9878 39.7609C91.7672 39.7609 91.5647 39.7969 91.3801 39.8689C91.1956 39.9409 91.0358 40.0444 90.9008 40.1795C90.7657 40.3145 90.66 40.4743 90.5834 40.6588C90.5114 40.8434 90.4754 41.0482 90.4754 41.2732C90.4754 41.4983 90.5114 41.7031 90.5834 41.8876C90.66 42.0722 90.7657 42.232 90.9008 42.367C91.0358 42.502 91.1956 42.6056 91.3801 42.6776C91.5647 42.7496 91.7672 42.7856 91.9878 42.7856C92.2218 42.7856 92.4379 42.7406 92.6359 42.6506C92.834 42.556 93.014 42.4143 93.1761 42.2252L93.8782 42.8734C93.6532 43.1479 93.3741 43.3572 93.041 43.5013C92.7124 43.6453 92.3411 43.7173 91.927 43.7173Z" fill="#59595C"/>
<path d="M86.2313 43.6902C85.8037 43.6902 85.4706 43.5822 85.2321 43.3662C84.9935 43.1456 84.8742 42.8193 84.8742 42.3872V39.2004H85.9275V42.3737C85.9275 42.5267 85.968 42.646 86.049 42.7315C86.13 42.8125 86.2403 42.853 86.3798 42.853C86.5464 42.853 86.6882 42.808 86.8052 42.718L87.0887 43.4607C86.9807 43.5372 86.8502 43.5957 86.6972 43.6362C86.5486 43.6722 86.3933 43.6902 86.2313 43.6902ZM84.3138 40.8951V40.0849H86.8322V40.8951H84.3138Z" fill="#59595C"/>
<path d="M82.2863 39.9498C82.5743 39.9498 82.8309 40.0083 83.0559 40.1254C83.2855 40.2379 83.4655 40.4134 83.5961 40.652C83.7266 40.886 83.7919 41.1876 83.7919 41.5567V43.6362H82.7386V41.7187C82.7386 41.4262 82.6734 41.2101 82.5428 41.0706C82.4168 40.9311 82.2368 40.8613 82.0027 40.8613C81.8362 40.8613 81.6854 40.8973 81.5503 40.9693C81.4198 41.0368 81.3163 41.1426 81.2398 41.2866C81.1677 41.4307 81.1317 41.6152 81.1317 41.8403V43.6362H80.0785V40.0038H81.0845V41.0098L80.8954 40.706C81.026 40.4629 81.2128 40.2762 81.4558 40.1456C81.6989 40.0151 81.9757 39.9498 82.2863 39.9498Z" fill="#59595C"/>
<path d="M77.6272 43.6902C77.2131 43.6902 76.8485 43.6092 76.5334 43.4472C76.2229 43.2851 75.982 43.0646 75.811 42.7855C75.64 42.5019 75.5544 42.1801 75.5544 41.82C75.5544 41.4554 75.6377 41.1336 75.8043 40.8545C75.9753 40.571 76.2071 40.3504 76.4997 40.1929C76.7922 40.0308 77.1231 39.9498 77.4921 39.9498C77.8477 39.9498 78.1673 40.0263 78.4509 40.1794C78.7389 40.3279 78.9663 40.544 79.1328 40.8275C79.2993 41.1066 79.3826 41.4419 79.3826 41.8335C79.3826 41.874 79.3803 41.9213 79.3758 41.9753C79.3713 42.0248 79.3668 42.0721 79.3623 42.1171H76.4119V41.5027H78.8087L78.4036 41.685C78.4036 41.4959 78.3654 41.3317 78.2888 41.1921C78.2123 41.0526 78.1065 40.9446 77.9715 40.868C77.8365 40.787 77.6789 40.7465 77.4989 40.7465C77.3189 40.7465 77.1591 40.787 77.0195 40.868C76.8845 40.9446 76.7787 41.0548 76.7022 41.1989C76.6257 41.3384 76.5874 41.5049 76.5874 41.6985V41.8605C76.5874 42.0586 76.6302 42.2341 76.7157 42.3872C76.8057 42.5357 76.9295 42.6505 77.0871 42.7315C77.2491 42.808 77.4381 42.8463 77.6542 42.8463C77.8477 42.8463 78.0165 42.817 78.1606 42.7585C78.3091 42.7 78.4441 42.6122 78.5657 42.4952L79.126 43.1028C78.9595 43.2919 78.7502 43.4381 78.4981 43.5417C78.2461 43.6407 77.9558 43.6902 77.6272 43.6902Z" fill="#59595C"/>
<path d="M73.3671 39.9498C73.6551 39.9498 73.9094 40.0083 74.13 40.1254C74.355 40.2379 74.5306 40.4134 74.6566 40.652C74.7871 40.886 74.8524 41.1876 74.8524 41.5567V43.6362H73.7992V41.7187C73.7992 41.4262 73.7384 41.2101 73.6169 41.0706C73.4953 40.9311 73.3243 40.8613 73.1037 40.8613C72.9507 40.8613 72.8134 40.8973 72.6919 40.9693C72.5704 41.0368 72.4758 41.1404 72.4083 41.2799C72.3408 41.4194 72.3071 41.5972 72.3071 41.8133V43.6362H71.2538V41.7187C71.2538 41.4262 71.193 41.2101 71.0715 41.0706C70.9545 40.9311 70.7857 40.8613 70.5651 40.8613C70.4121 40.8613 70.2748 40.8973 70.1533 40.9693C70.0318 41.0368 69.9372 41.1404 69.8697 41.2799C69.8022 41.4194 69.7685 41.5972 69.7685 41.8133V43.6362H68.7152V40.0038H69.7212V40.9963L69.5322 40.706C69.6582 40.4584 69.836 40.2717 70.0655 40.1456C70.2996 40.0151 70.5651 39.9498 70.8622 39.9498C71.1953 39.9498 71.4856 40.0353 71.7332 40.2064C71.9852 40.3729 72.1518 40.6295 72.2328 40.9761L71.8614 40.8748C71.983 40.5912 72.1765 40.3662 72.4421 40.1996C72.7122 40.0331 73.0205 39.9498 73.3671 39.9498Z" fill="#59595C"/>
<path d="M66.2027 43.6902C65.8966 43.6902 65.6288 43.6227 65.3992 43.4877C65.1697 43.3526 64.9896 43.1478 64.8591 42.8733C64.7331 42.5942 64.6701 42.2431 64.6701 41.82C64.6701 41.3924 64.7308 41.0413 64.8524 40.7668C64.9739 40.4922 65.1494 40.2874 65.379 40.1524C65.6085 40.0173 65.8831 39.9498 66.2027 39.9498C66.5448 39.9498 66.8508 40.0286 67.1209 40.1861C67.3955 40.3392 67.6115 40.5552 67.769 40.8343C67.9311 41.1134 68.0121 41.4419 68.0121 41.82C68.0121 42.2026 67.9311 42.5334 67.769 42.8125C67.6115 43.0916 67.3955 43.3076 67.1209 43.4607C66.8508 43.6137 66.5448 43.6902 66.2027 43.6902ZM64.0557 44.946V40.0038H65.0617V40.7465L65.0414 41.8268L65.1089 42.9003V44.946H64.0557ZM66.0204 42.826C66.1959 42.826 66.3512 42.7855 66.4862 42.7045C66.6258 42.6235 66.736 42.5087 66.8171 42.3601C66.9026 42.2071 66.9453 42.0271 66.9453 41.82C66.9453 41.6085 66.9026 41.4284 66.8171 41.2799C66.736 41.1314 66.6258 41.0166 66.4862 40.9356C66.3512 40.8545 66.1959 40.814 66.0204 40.814C65.8448 40.814 65.6873 40.8545 65.5478 40.9356C65.4082 41.0166 65.298 41.1314 65.2169 41.2799C65.1359 41.4284 65.0954 41.6085 65.0954 41.82C65.0954 42.0271 65.1359 42.2071 65.2169 42.3601C65.298 42.5087 65.4082 42.6235 65.5478 42.7045C65.6873 42.7855 65.8448 42.826 66.0204 42.826Z" fill="#59595C"/>
<path d="M62.0221 43.6363V40.0039H63.0753V43.6363H62.0221ZM62.5487 39.4975C62.3552 39.4975 62.1976 39.4413 62.0761 39.3287C61.9546 39.2162 61.8938 39.0767 61.8938 38.9101C61.8938 38.7436 61.9546 38.6041 62.0761 38.4915C62.1976 38.379 62.3552 38.3228 62.5487 38.3228C62.7422 38.3228 62.8998 38.3768 63.0213 38.4848C63.1428 38.5883 63.2036 38.7233 63.2036 38.8899C63.2036 39.0654 63.1428 39.2117 63.0213 39.3287C62.9043 39.4413 62.7467 39.4975 62.5487 39.4975Z" fill="#59595C"/>
<path d="M58.9168 43.6902C58.6152 43.6902 58.3451 43.6316 58.1066 43.5146C57.8725 43.3976 57.6902 43.2198 57.5597 42.9812C57.4292 42.7382 57.3639 42.4299 57.3639 42.0563V40.0038H58.4171V41.901C58.4171 42.2026 58.4802 42.4254 58.6062 42.5694C58.7367 42.7089 58.919 42.7787 59.1531 42.7787C59.3151 42.7787 59.4591 42.7449 59.5852 42.6774C59.7112 42.6054 59.8102 42.4974 59.8822 42.3533C59.9542 42.2048 59.9903 42.0203 59.9903 41.7997V40.0038H61.0435V43.6361H60.0443V42.6369L60.2266 42.9272C60.105 43.1793 59.925 43.3706 59.6864 43.5011C59.4524 43.6271 59.1958 43.6902 58.9168 43.6902Z" fill="#59595C"/>
<path d="M54.2671 43.6902C53.925 43.6902 53.6167 43.6137 53.3421 43.4607C53.0676 43.3076 52.8493 43.0916 52.6872 42.8125C52.5297 42.5334 52.4509 42.2026 52.4509 41.82C52.4509 41.4419 52.5297 41.1134 52.6872 40.8343C52.8493 40.5552 53.0676 40.3392 53.3421 40.1861C53.6167 40.0286 53.925 39.9498 54.2671 39.9498C54.5867 39.9498 54.859 40.0173 55.084 40.1524C55.3136 40.2874 55.4891 40.4922 55.6107 40.7668C55.7322 41.0413 55.793 41.3924 55.793 41.82C55.793 42.2431 55.7299 42.5942 55.6039 42.8733C55.4779 43.1478 55.3001 43.3526 55.0705 43.4877C54.841 43.6227 54.5732 43.6902 54.2671 43.6902ZM54.4494 42.826C54.6204 42.826 54.7757 42.7855 54.9153 42.7045C55.0548 42.6235 55.1651 42.5087 55.2461 42.3601C55.3316 42.2071 55.3744 42.0271 55.3744 41.82C55.3744 41.6085 55.3316 41.4284 55.2461 41.2799C55.1651 41.1314 55.0548 41.0166 54.9153 40.9356C54.7757 40.8545 54.6204 40.814 54.4494 40.814C54.2739 40.814 54.1163 40.8545 53.9768 40.9356C53.8373 41.0166 53.7247 41.1314 53.6392 41.2799C53.5582 41.4284 53.5177 41.6085 53.5177 41.82C53.5177 42.0271 53.5582 42.2071 53.6392 42.3601C53.7247 42.5087 53.8373 42.6235 53.9768 42.7045C54.1163 42.7855 54.2739 42.826 54.4494 42.826ZM55.3541 44.946V42.9003L55.4216 41.8268L55.4014 40.7465V40.0038H56.4074V44.946H55.3541Z" fill="#59595C"/>
<path d="M49.2922 40.8141H51.5675V41.6648H49.2922V40.8141ZM49.3733 42.7586H51.9456V43.6363H48.2863V38.9102H51.8578V39.7879H49.3733V42.7586Z" fill="#59595C"/>
<path d="M43.8434 39.9498C44.1315 39.9498 44.388 40.0083 44.6131 40.1254C44.8426 40.2379 45.0227 40.4134 45.1532 40.652C45.2837 40.886 45.349 41.1876 45.349 41.5567V43.6362H44.2957V41.7187C44.2957 41.4262 44.2305 41.2101 44.0999 41.0706C43.9739 40.9311 43.7939 40.8613 43.5598 40.8613C43.3933 40.8613 43.2425 40.8973 43.1075 40.9693C42.9769 41.0368 42.8734 41.1426 42.7969 41.2866C42.7249 41.4307 42.6889 41.6152 42.6889 41.8403V43.6362H41.6356V40.0038H42.6416V41.0098L42.4526 40.706C42.5831 40.4629 42.7699 40.2762 43.0129 40.1456C43.256 40.0151 43.5328 39.9498 43.8434 39.9498Z" fill="#59595C"/>
<path d="M38.9391 43.6902C38.5521 43.6902 38.2077 43.6092 37.9062 43.4472C37.6091 43.2851 37.3728 43.0646 37.1972 42.7855C37.0262 42.5019 36.9407 42.1801 36.9407 41.82C36.9407 41.4554 37.0262 41.1336 37.1972 40.8545C37.3728 40.571 37.6091 40.3504 37.9062 40.1929C38.2077 40.0308 38.5521 39.9498 38.9391 39.9498C39.3217 39.9498 39.6638 40.0308 39.9654 40.1929C40.267 40.3504 40.5033 40.5687 40.6743 40.8478C40.8453 41.1269 40.9309 41.4509 40.9309 41.82C40.9309 42.1801 40.8453 42.5019 40.6743 42.7855C40.5033 43.0646 40.267 43.2851 39.9654 43.4472C39.6638 43.6092 39.3217 43.6902 38.9391 43.6902ZM38.9391 42.826C39.1147 42.826 39.2722 42.7855 39.4118 42.7045C39.5513 42.6235 39.6616 42.5087 39.7426 42.3601C39.8236 42.2071 39.8641 42.0271 39.8641 41.82C39.8641 41.6085 39.8236 41.4284 39.7426 41.2799C39.6616 41.1314 39.5513 41.0166 39.4118 40.9356C39.2722 40.8545 39.1147 40.814 38.9391 40.814C38.7636 40.814 38.6061 40.8545 38.4665 40.9356C38.327 41.0166 38.2145 41.1314 38.129 41.2799C38.0479 41.4284 38.0074 41.6085 38.0074 41.82C38.0074 42.0271 38.0479 42.2071 38.129 42.3601C38.2145 42.5087 38.327 42.6235 38.4665 42.7045C38.6061 42.7855 38.7636 42.826 38.9391 42.826Z" fill="#59595C"/>
<path d="M35.1839 43.6363V40.0039H36.2372V43.6363H35.1839ZM35.7106 39.4975C35.517 39.4975 35.3595 39.4413 35.238 39.3287C35.1164 39.2162 35.0557 39.0767 35.0557 38.9101C35.0557 38.7436 35.1164 38.6041 35.238 38.4915C35.3595 38.379 35.517 38.3228 35.7106 38.3228C35.9041 38.3228 36.0617 38.3768 36.1832 38.4848C36.3047 38.5883 36.3655 38.7233 36.3655 38.8899C36.3655 39.0654 36.3047 39.2117 36.1832 39.3287C36.0662 39.4413 35.9086 39.4975 35.7106 39.4975Z" fill="#59595C"/>
<path d="M33.7332 43.6902C33.3056 43.6902 32.9726 43.5822 32.734 43.3662C32.4955 43.1456 32.3762 42.8193 32.3762 42.3872V39.2004H33.4294V42.3737C33.4294 42.5267 33.4699 42.646 33.551 42.7315C33.632 42.8125 33.7422 42.853 33.8818 42.853C34.0483 42.853 34.1901 42.808 34.3071 42.718L34.5907 43.4607C34.4827 43.5372 34.3521 43.5957 34.1991 43.6362C34.0506 43.6722 33.8953 43.6902 33.7332 43.6902ZM31.8158 40.8951V40.0849H34.3341V40.8951H31.8158Z" fill="#59595C"/>
<path d="M29.9593 43.6902C29.5677 43.6902 29.2189 43.6114 28.9128 43.4539C28.6067 43.2919 28.3659 43.0691 28.1904 42.7855C28.0194 42.5019 27.9338 42.1801 27.9338 41.82C27.9338 41.4554 28.0194 41.1336 28.1904 40.8545C28.3659 40.571 28.6067 40.3504 28.9128 40.1929C29.2189 40.0308 29.5677 39.9498 29.9593 39.9498C30.3419 39.9498 30.675 40.0308 30.9585 40.1929C31.2421 40.3504 31.4514 40.5777 31.5864 40.8748L30.7695 41.3136C30.675 41.1426 30.5557 41.0166 30.4117 40.9356C30.2721 40.8545 30.1191 40.814 29.9526 40.814C29.7725 40.814 29.6105 40.8545 29.4664 40.9356C29.3224 41.0166 29.2076 41.1314 29.1221 41.2799C29.0411 41.4284 29.0006 41.6085 29.0006 41.82C29.0006 42.0316 29.0411 42.2116 29.1221 42.3601C29.2076 42.5087 29.3224 42.6235 29.4664 42.7045C29.6105 42.7855 29.7725 42.826 29.9526 42.826C30.1191 42.826 30.2721 42.7877 30.4117 42.7112C30.5557 42.6302 30.675 42.5019 30.7695 42.3264L31.5864 42.772C31.4514 43.0646 31.2421 43.2919 30.9585 43.4539C30.675 43.6114 30.3419 43.6902 29.9593 43.6902Z" fill="#59595C"/>
<path d="M25.104 43.6902C24.8024 43.6902 24.5324 43.6316 24.2938 43.5146C24.0598 43.3976 23.8775 43.2198 23.7469 42.9812C23.6164 42.7382 23.5511 42.4299 23.5511 42.0563V40.0038H24.6044V41.901C24.6044 42.2026 24.6674 42.4254 24.7934 42.5694C24.924 42.7089 25.1063 42.7787 25.3403 42.7787C25.5024 42.7787 25.6464 42.7449 25.7724 42.6774C25.8984 42.6054 25.9975 42.4974 26.0695 42.3533C26.1415 42.2048 26.1775 42.0203 26.1775 41.7997V40.0038H27.2308V43.6361H26.2315V42.6369L26.4138 42.9272C26.2923 43.1793 26.1123 43.3706 25.8737 43.5011C25.6396 43.6271 25.3831 43.6902 25.104 43.6902Z" fill="#59595C"/>
<path d="M20.6647 43.6362V40.0038H21.6707V41.0301L21.5289 40.733C21.6369 40.4765 21.8102 40.2829 22.0487 40.1524C22.2873 40.0173 22.5776 39.9498 22.9197 39.9498V40.9221C22.8747 40.9176 22.8342 40.9153 22.7982 40.9153C22.7622 40.9108 22.7239 40.9086 22.6834 40.9086C22.3953 40.9086 22.1613 40.9918 21.9812 41.1584C21.8057 41.3204 21.7179 41.5747 21.7179 41.9213V43.6362H20.6647Z" fill="#59595C"/>
<path d="M19.2126 43.6902C18.785 43.6902 18.4519 43.5822 18.2134 43.3662C17.9748 43.1456 17.8555 42.8193 17.8555 42.3872V39.2004H18.9088V42.3737C18.9088 42.5267 18.9493 42.646 19.0303 42.7315C19.1113 42.8125 19.2216 42.853 19.3612 42.853C19.5277 42.853 19.6695 42.808 19.7865 42.718L20.0701 43.4607C19.962 43.5372 19.8315 43.5957 19.6785 43.6362C19.5299 43.6722 19.3747 43.6902 19.2126 43.6902ZM17.2952 40.8951V40.0849H19.8135V40.8951H17.2952Z" fill="#59595C"/>
<path d="M15.3574 43.6902C15.0468 43.6902 14.7475 43.6542 14.4595 43.5822C14.1759 43.5057 13.9508 43.4111 13.7843 43.2986L14.1354 42.5424C14.3019 42.646 14.4977 42.7315 14.7228 42.799C14.9523 42.862 15.1774 42.8935 15.3979 42.8935C15.641 42.8935 15.812 42.8643 15.9111 42.8058C16.0146 42.7472 16.0663 42.6662 16.0663 42.5627C16.0663 42.4772 16.0258 42.4142 15.9448 42.3736C15.8683 42.3286 15.7648 42.2949 15.6342 42.2724C15.5037 42.2499 15.3597 42.2274 15.2021 42.2049C15.0491 42.1824 14.8938 42.1531 14.7363 42.1171C14.5787 42.0766 14.4347 42.0181 14.3042 41.9415C14.1736 41.865 14.0679 41.7615 13.9868 41.631C13.9103 41.5004 13.8721 41.3317 13.8721 41.1246C13.8721 40.8951 13.9373 40.6925 14.0679 40.517C14.2029 40.3414 14.3964 40.2041 14.6485 40.1051C14.9006 40.0016 15.2021 39.9498 15.5532 39.9498C15.8008 39.9498 16.0528 39.9768 16.3094 40.0308C16.566 40.0849 16.7798 40.1636 16.9508 40.2672L16.5997 41.0166C16.4242 40.9131 16.2464 40.8433 16.0663 40.8073C15.8908 40.7668 15.7198 40.7465 15.5532 40.7465C15.3192 40.7465 15.1481 40.778 15.0401 40.841C14.9321 40.9041 14.8781 40.9851 14.8781 41.0841C14.8781 41.1741 14.9163 41.2416 14.9928 41.2866C15.0739 41.3317 15.1796 41.3677 15.3102 41.3947C15.4407 41.4217 15.5825 41.4464 15.7355 41.4689C15.893 41.4869 16.0506 41.5162 16.2081 41.5567C16.3657 41.5972 16.5074 41.6557 16.6335 41.7322C16.764 41.8043 16.8698 41.9055 16.9508 42.0361C17.0318 42.1621 17.0723 42.3286 17.0723 42.5357C17.0723 42.7607 17.0048 42.961 16.8698 43.1366C16.7347 43.3076 16.5389 43.4427 16.2824 43.5417C16.0303 43.6407 15.722 43.6902 15.3574 43.6902Z" fill="#59595C"/>
<path d="M11.6859 39.9498C11.974 39.9498 12.2305 40.0083 12.4556 40.1254C12.6852 40.2379 12.8652 40.4134 12.9957 40.652C13.1263 40.886 13.1915 41.1876 13.1915 41.5567V43.6362H12.1383V41.7187C12.1383 41.4262 12.073 41.2101 11.9425 41.0706C11.8164 40.9311 11.6364 40.8613 11.4024 40.8613C11.2358 40.8613 11.085 40.8973 10.95 40.9693C10.8195 41.0368 10.7159 41.1426 10.6394 41.2866C10.5674 41.4307 10.5314 41.6152 10.5314 41.8403V43.6362H9.47815V40.0038H10.4841V41.0098L10.2951 40.706C10.4256 40.4629 10.6124 40.2762 10.8555 40.1456C11.0985 40.0151 11.3753 39.9498 11.6859 39.9498Z" fill="#59595C"/>
<path d="M6.77581 43.6902C6.38872 43.6902 6.04439 43.6092 5.74282 43.4472C5.44575 43.2851 5.20945 43.0646 5.0339 42.7855C4.86286 42.5019 4.77734 42.1801 4.77734 41.82C4.77734 41.4554 4.86286 41.1336 5.0339 40.8545C5.20945 40.571 5.44575 40.3504 5.74282 40.1929C6.04439 40.0308 6.38872 39.9498 6.77581 39.9498C7.1584 39.9498 7.50048 40.0308 7.80206 40.1929C8.10363 40.3504 8.33993 40.5687 8.51097 40.8478C8.68201 41.1269 8.76753 41.4509 8.76753 41.82C8.76753 42.1801 8.68201 42.5019 8.51097 42.7855C8.33993 43.0646 8.10363 43.2851 7.80206 43.4472C7.50048 43.6092 7.1584 43.6902 6.77581 43.6902ZM6.77581 42.826C6.95135 42.826 7.10889 42.7855 7.24842 42.7045C7.38796 42.6235 7.49823 42.5087 7.57925 42.3601C7.66027 42.2071 7.70078 42.0271 7.70078 41.82C7.70078 41.6085 7.66027 41.4284 7.57925 41.2799C7.49823 41.1314 7.38796 41.0166 7.24842 40.9356C7.10889 40.8545 6.95135 40.814 6.77581 40.814C6.60027 40.814 6.44274 40.8545 6.3032 40.9356C6.16367 41.0166 6.05114 41.1314 5.96562 41.2799C5.8846 41.4284 5.84409 41.6085 5.84409 41.82C5.84409 42.0271 5.8846 42.2071 5.96562 42.3601C6.05114 42.5087 6.16367 42.6235 6.3032 42.7045C6.44274 42.7855 6.60027 42.826 6.77581 42.826Z" fill="#59595C"/>
<path d="M2.55885 43.7173C2.19427 43.7173 1.85444 43.6588 1.53936 43.5418C1.22879 43.4202 0.958726 43.2492 0.729172 43.0287C0.499618 42.8081 0.319575 42.5493 0.189044 42.2522C0.0630148 41.9551 0 41.6288 0 41.2732C0 40.9177 0.0630148 40.5913 0.189044 40.2943C0.319575 39.9972 0.499618 39.7384 0.729172 39.5178C0.963227 39.2973 1.23554 39.1285 1.54611 39.0115C1.85669 38.8899 2.19652 38.8292 2.5656 38.8292C2.9752 38.8292 3.34429 38.9012 3.67286 39.0452C4.00594 39.1847 4.28501 39.3918 4.51006 39.6664L3.8079 40.3145C3.64586 40.13 3.46581 39.9927 3.26777 39.9027C3.06972 39.8081 2.85367 39.7609 2.61962 39.7609C2.39906 39.7609 2.19652 39.7969 2.01197 39.8689C1.82743 39.9409 1.66764 40.0444 1.53261 40.1795C1.39758 40.3145 1.2918 40.4743 1.21529 40.6588C1.14327 40.8434 1.10726 41.0482 1.10726 41.2732C1.10726 41.4983 1.14327 41.7031 1.21529 41.8876C1.2918 42.0722 1.39758 42.232 1.53261 42.367C1.66764 42.502 1.82743 42.6056 2.01197 42.6776C2.19652 42.7496 2.39906 42.7856 2.61962 42.7856C2.85367 42.7856 3.06972 42.7406 3.26777 42.6506C3.46581 42.556 3.64586 42.4143 3.8079 42.2252L4.51006 42.8734C4.28501 43.1479 4.00594 43.3572 3.67286 43.5013C3.34429 43.6453 2.97295 43.7173 2.55885 43.7173Z" fill="#59595C"/>
</svg>
