<svg width="84" height="84" viewBox="0 0 84 84" fill="none" xmlns="http://www.w3.org/2000/svg">
<g filter="url(#filter0_d_1_739)">
<rect x="6" y="6" width="72" height="72" rx="36" fill="white"/>
<rect x="7" y="7" width="70" height="70" rx="35" stroke="#3E96F4" stroke-width="2"/>
</g>
<path d="M46.5161 34.9032C45.6477 34.9032 44.7858 34.9239 43.9355 34.9561V25.871C43.9345 24.8446 43.5263 23.8606 42.8006 23.1349C42.0748 22.4092 41.0908 22.001 40.0645 22H25.871C24.8446 22.001 23.8606 22.4092 23.1349 23.1349C22.4092 23.8606 22.001 24.8446 22 25.871V38.7742C22.001 39.8005 22.4092 40.7845 23.1349 41.5102C23.8606 42.236 24.8446 42.6441 25.871 42.6452H31.0323V47.1613C31.0449 47.4144 31.1143 47.6614 31.2352 47.884C31.3562 48.1067 31.5256 48.2993 31.731 48.4477C31.525 48.5974 31.3553 48.7914 31.2344 49.0154C31.1135 49.2394 31.0444 49.4877 31.0323 49.7419V58.129C31.0323 61.191 41.1613 62 46.5161 62C51.871 62 62 61.191 62 58.129V49.7419C61.9879 49.4877 61.9188 49.2394 61.7978 49.0154C61.6769 48.7914 61.5072 48.5974 61.3013 48.4477C61.5067 48.2993 61.6761 48.1067 61.797 47.884C61.9179 47.6614 61.9873 47.4144 62 47.1613V38.7742C62 35.7123 51.871 34.9032 46.5161 34.9032ZM25.871 23.2903H40.0645C40.7489 23.2903 41.4053 23.5622 41.8893 24.0462C42.3733 24.5301 42.6452 25.1865 42.6452 25.871H23.2903C23.2903 25.1865 23.5622 24.5301 24.0462 24.0462C24.5301 23.5622 25.1865 23.2903 25.871 23.2903ZM23.2903 38.7742V27.1613H42.6452V38.7742C42.6452 39.4586 42.3733 40.115 41.8893 40.599C41.4053 41.0829 40.7489 41.3548 40.0645 41.3548H25.871C25.1865 41.3548 24.5301 41.0829 24.0462 40.599C23.5622 40.115 23.2903 39.4586 23.2903 38.7742ZM40.0645 42.6452C40.4846 42.6446 40.9018 42.5751 41.2994 42.4394C42.9677 42.5742 44.7213 42.6452 46.5161 42.6452C50.7039 42.6452 57.8097 42.1503 60.7097 40.4703V47.1613C60.7097 47.6865 57.0052 49.7419 46.5161 49.7419C36.0271 49.7419 32.3226 47.6865 32.3226 47.1613V42.6452H40.0645ZM46.5161 60.7097C36.0271 60.7097 32.3226 58.6542 32.3226 58.129V51.4381C35.2258 53.1181 42.3284 53.6129 46.5161 53.6129C50.7039 53.6129 57.8097 53.1181 60.7097 51.4381V58.129C60.7097 58.6542 57.0052 60.7097 46.5161 60.7097ZM60.7097 49.7419C60.7097 50.2671 57.0052 52.3226 46.5161 52.3226C36.0271 52.3226 32.3226 50.2671 32.3226 49.7419C32.3226 49.6774 32.4426 49.4574 32.9413 49.1684C36.1348 50.5981 42.6 51.0323 46.5161 51.0323C50.4323 51.0323 56.8974 50.5981 60.091 49.1684C60.5897 49.4574 60.7097 49.6774 60.7097 49.7419ZM46.5161 41.3548C45.3284 41.3548 44.1716 41.3135 43.0323 41.2529C43.6157 40.5587 43.9355 39.681 43.9355 38.7742V36.2471C44.7852 36.2148 45.6477 36.1935 46.5161 36.1935C57.0052 36.1935 60.7097 38.249 60.7097 38.7742C60.7097 39.2994 57.0052 41.3548 46.5161 41.3548Z" fill="black"/>
<path d="M35.5484 47.1608C35.9312 47.1608 36.3054 47.0473 36.6237 46.8347C36.942 46.622 37.1901 46.3197 37.3365 45.966C37.483 45.6124 37.5214 45.2232 37.4467 44.8478C37.372 44.4723 37.1877 44.1275 36.917 43.8568C36.6463 43.5861 36.3014 43.4018 35.926 43.3271C35.5505 43.2524 35.1614 43.2907 34.8077 43.4372C34.4541 43.5837 34.1518 43.8318 33.9391 44.1501C33.7264 44.4684 33.6129 44.8426 33.6129 45.2254C33.6129 45.7387 33.8168 46.231 34.1798 46.594C34.5428 46.9569 35.0351 47.1608 35.5484 47.1608ZM35.5484 44.5802C35.676 44.5802 35.8007 44.618 35.9068 44.6889C36.0129 44.7598 36.0956 44.8606 36.1444 44.9785C36.1933 45.0964 36.206 45.2261 36.1812 45.3512C36.1563 45.4764 36.0948 45.5913 36.0046 45.6816C35.9144 45.7718 35.7994 45.8332 35.6743 45.8581C35.5491 45.883 35.4194 45.8702 35.3015 45.8214C35.1836 45.7726 35.0828 45.6899 35.012 45.5838C34.9411 45.4777 34.9032 45.353 34.9032 45.2254C34.9032 45.0543 34.9712 44.8902 35.0922 44.7692C35.2132 44.6482 35.3773 44.5802 35.5484 44.5802ZM35.5484 54.2576C35.1656 54.2576 34.7914 54.3711 34.4731 54.5838C34.1548 54.7965 33.9067 55.0988 33.7602 55.4524C33.6137 55.8061 33.5754 56.1953 33.6501 56.5707C33.7248 56.9461 33.9091 57.291 34.1798 57.5617C34.4505 57.8324 34.7953 58.0167 35.1708 58.0914C35.5462 58.1661 35.9354 58.1278 36.2891 57.9813C36.6427 57.8348 36.945 57.5867 37.1577 57.2684C37.3704 56.9501 37.4839 56.5759 37.4839 56.1931C37.4839 55.6798 37.28 55.1875 36.917 54.8245C36.554 54.4615 36.0617 54.2576 35.5484 54.2576ZM35.5484 56.8383C35.4208 56.8383 35.2961 56.8004 35.19 56.7295C35.0839 56.6586 35.0012 56.5579 34.9523 56.44C34.9035 56.3221 34.8907 56.1924 34.9156 56.0672C34.9405 55.9421 35.002 55.8271 35.0922 55.7369C35.1824 55.6467 35.2974 55.5852 35.4225 55.5603C35.5477 55.5354 35.6774 55.5482 35.7953 55.5971C35.9132 55.6459 36.0139 55.7286 36.0848 55.8347C36.1557 55.9408 36.1936 56.0655 36.1936 56.1931C36.1936 56.3642 36.1256 56.5283 36.0046 56.6493C35.8836 56.7703 35.7195 56.8383 35.5484 56.8383ZM25.871 28.4512H27.1613V33.6125H25.871V28.4512ZM31.6774 28.4512H29.0968C28.9257 28.4512 28.7616 28.5191 28.6406 28.6401C28.5196 28.7611 28.4516 28.9252 28.4516 29.0963V32.9673C28.4516 33.1384 28.5196 33.3025 28.6406 33.4235C28.7616 33.5445 28.9257 33.6125 29.0968 33.6125H31.6774C31.8485 33.6125 32.0126 33.5445 32.1336 33.4235C32.2546 33.3025 32.3226 33.1384 32.3226 32.9673V29.0963C32.3226 28.9252 32.2546 28.7611 32.1336 28.6401C32.0126 28.5191 31.8485 28.4512 31.6774 28.4512ZM31.0323 32.3221H29.7419V29.7415H31.0323V32.3221ZM33.6129 28.4512H34.9032V33.6125H33.6129V28.4512ZM36.8387 33.6125H39.4194C39.5905 33.6125 39.7546 33.5445 39.8756 33.4235C39.9965 33.3025 40.0645 33.1384 40.0645 32.9673V29.0963C40.0645 28.9252 39.9965 28.7611 39.8756 28.6401C39.7546 28.5191 39.5905 28.4512 39.4194 28.4512H36.8387C36.6676 28.4512 36.5035 28.5191 36.3825 28.6401C36.2615 28.7611 36.1936 28.9252 36.1936 29.0963V32.9673C36.1936 33.1384 36.2615 33.3025 36.3825 33.4235C36.5035 33.5445 36.6676 33.6125 36.8387 33.6125ZM37.4839 29.7415H38.7742V32.3221H37.4839V29.7415ZM25.871 34.9028H27.1613V40.0641H25.871V34.9028ZM31.6774 34.9028H29.0968C28.9257 34.9028 28.7616 34.9708 28.6406 35.0917C28.5196 35.2127 28.4516 35.3768 28.4516 35.5479V39.4189C28.4516 39.59 28.5196 39.7541 28.6406 39.8751C28.7616 39.9961 28.9257 40.0641 29.0968 40.0641H31.6774C31.8485 40.0641 32.0126 39.9961 32.1336 39.8751C32.2546 39.7541 32.3226 39.59 32.3226 39.4189V35.5479C32.3226 35.3768 32.2546 35.2127 32.1336 35.0917C32.0126 34.9708 31.8485 34.9028 31.6774 34.9028ZM31.0323 38.7738H29.7419V36.1931H31.0323V38.7738ZM33.6129 34.9028H34.9032V40.0641H33.6129V34.9028ZM40.0645 35.5479C40.0645 35.3768 39.9965 35.2127 39.8756 35.0917C39.7546 34.9708 39.5905 34.9028 39.4194 34.9028H36.8387C36.6676 34.9028 36.5035 34.9708 36.3825 35.0917C36.2615 35.2127 36.1936 35.3768 36.1936 35.5479V39.4189C36.1936 39.59 36.2615 39.7541 36.3825 39.8751C36.5035 39.9961 36.6676 40.0641 36.8387 40.0641H39.4194C39.5905 40.0641 39.7546 39.9961 39.8756 39.8751C39.9965 39.7541 40.0645 39.59 40.0645 39.4189V35.5479ZM38.7742 38.7738H37.4839V36.1931H38.7742V38.7738Z" fill="black"/>
<defs>
<filter id="filter0_d_1_739" x="0" y="0" width="84" height="84" filterUnits="userSpaceOnUse" color-interpolation-filters="sRGB">
<feFlood flood-opacity="0" result="BackgroundImageFix"/>
<feColorMatrix in="SourceAlpha" type="matrix" values="0 0 0 0 0 0 0 0 0 0 0 0 0 0 0 0 0 0 127 0" result="hardAlpha"/>
<feOffset/>
<feGaussianBlur stdDeviation="3"/>
<feComposite in2="hardAlpha" operator="out"/>
<feColorMatrix type="matrix" values="0 0 0 0 0.243137 0 0 0 0 0.588235 0 0 0 0 0.956863 0 0 0 0.25 0"/>
<feBlend mode="normal" in2="BackgroundImageFix" result="effect1_dropShadow_1_739"/>
<feBlend mode="normal" in="SourceGraphic" in2="effect1_dropShadow_1_739" result="shape"/>
</filter>
</defs>
</svg>
