<svg width="48" height="48" viewBox="0 0 48 48" fill="none" xmlns="http://www.w3.org/2000/svg">
<path fill-rule="evenodd" clip-rule="evenodd" d="M31.9417 2.612C32.1492 1.98425 31.8091 1.30756 31.1817 1.09981L31.1817 1.0999C26.506 -0.366822 21.4932 -0.366688 16.8175 1.10028C4.17376 5.06702 -2.86012 18.5322 1.10672 31.176C5.07347 43.8195 18.5391 50.8537 31.1825 46.8868C43.8262 42.9201 50.8601 29.4545 46.8933 16.8111C46.6919 16.1918 46.0331 15.8471 45.4098 16.035C44.777 16.2259 44.4188 16.8935 44.6096 17.5263C45.9331 21.7411 45.9331 26.2603 44.6096 30.4751C41.0339 41.8614 28.9046 48.1935 17.518 44.6174C6.13144 41.0418 -0.200245 28.9125 3.37538 17.5263C6.9511 6.13971 19.0803 -0.192067 30.467 3.38356C31.0862 3.56637 31.7388 3.22502 31.9417 2.612ZM32.4496 22.7176C31.7893 22.7176 31.254 23.2527 31.254 23.9133C31.254 27.8753 28.0423 31.0874 24.0799 31.0874C20.1178 31.0874 16.9058 27.8753 16.9058 23.9133C16.9058 19.9509 20.1178 16.7392 24.0799 16.7392C24.7405 16.7392 25.2755 16.2038 25.2755 15.5435C25.2755 14.8832 24.7405 14.3478 24.0799 14.3478C18.7973 14.3478 14.5148 18.6303 14.5148 23.9133C14.5148 29.1959 18.7973 33.4784 24.0799 33.4784C29.3628 33.4784 33.6453 29.1959 33.6453 23.9133C33.6453 23.2527 33.1099 22.7176 32.4496 22.7176ZM39.4577 21.6362C40.1385 21.63 40.7076 22.1529 40.7585 22.8319C40.7888 23.189 40.8192 23.5463 40.8192 23.913C40.8192 33.158 33.3247 40.6525 24.0798 40.6525C14.835 40.6525 7.34056 33.158 7.34057 23.913C7.34057 14.6683 14.835 7.17381 24.0797 7.17381C24.5122 7.17381 24.9443 7.20015 25.3735 7.25322C26.0298 7.34884 26.4843 7.95822 26.3886 8.61447C26.2935 9.27072 25.6836 9.72522 25.0274 9.62997C25.0025 9.62631 24.9781 9.62191 24.9531 9.61684C24.6634 9.59078 24.3764 9.56519 24.0804 9.56519C16.156 9.56481 9.73232 15.9885 9.73157 23.9126C9.73119 31.837 16.1553 38.2608 24.0794 38.2611C32.0034 38.2615 38.4276 31.8382 38.4278 23.9137L38.4278 23.9134C38.4278 23.6183 38.4025 23.3326 38.3771 23.0452L38.3771 23.0452L38.3767 23.0403L38.3579 22.8162C38.3312 22.1914 38.8161 21.6634 39.4408 21.6369L39.4476 21.6366L39.4577 21.6362ZM32.9447 16.7393L37.2324 16.7393C37.3894 16.7393 37.5448 16.7084 37.6899 16.6482C37.8349 16.5881 37.9666 16.5 38.0775 16.3888L45.2517 9.21471C45.4757 8.99067 45.6017 8.68679 45.6017 8.36993C45.6021 7.70918 45.0667 7.17386 44.4064 7.17386L40.8194 7.17386L40.8194 3.5868C40.8194 3.42982 40.7885 3.27438 40.7284 3.12935C40.6683 2.98432 40.5803 2.85254 40.4693 2.74154C40.0023 2.27467 39.2454 2.27467 38.7785 2.74154L31.6044 9.91531C31.3799 10.1398 31.2539 10.4438 31.2539 10.7609L31.2539 15.0484L23.2346 23.0678C23.2247 23.0774 23.2149 23.0872 23.2053 23.0971C22.7465 23.572 22.7597 24.329 23.2346 24.7879C23.7096 25.2467 24.4666 25.2336 24.9254 24.7587L32.9447 16.7393ZM41.52 9.56524L36.7372 14.3479L33.6453 14.3479L33.6453 11.256L38.428 6.47327L38.428 8.36955C38.428 9.02983 38.9634 9.56524 39.6237 9.56524L41.52 9.56524Z" fill="url(#paint0_linear_1_1311)"/>
<defs>
<linearGradient id="paint0_linear_1_1311" x1="38.625" y1="39.2853" x2="6.44399" y2="7.4118" gradientUnits="userSpaceOnUse">
<stop stop-color="#3E96F4"/>
<stop offset="1" stop-color="#FE5B52"/>
</linearGradient>
</defs>
</svg>
