<svg width="33" height="35" viewBox="0 0 33 35" fill="none" xmlns="http://www.w3.org/2000/svg">
<g id="Group">
<path id="Vector" d="M19.6303 15.7441H20.2134V16.3272C20.2134 16.4818 20.2748 16.6301 20.3842 16.7395C20.4935 16.8489 20.6418 16.9103 20.7965 16.9103C20.9511 16.9103 21.0995 16.8489 21.2088 16.7395C21.3182 16.6301 21.3796 16.4818 21.3796 16.3272V15.7441H21.9627C22.1174 15.7441 22.2657 15.6826 22.375 15.5733C22.4844 15.4639 22.5458 15.3156 22.5458 15.161C22.5458 15.0063 22.4844 14.858 22.375 14.7486C22.2657 14.6393 22.1174 14.5778 21.9627 14.5778H21.3796V13.9947C21.3796 13.8401 21.3182 13.6918 21.2088 13.5824C21.0995 13.4731 20.9511 13.4116 20.7965 13.4116C20.6418 13.4116 20.4935 13.4731 20.3842 13.5824C20.2748 13.6918 20.2134 13.8401 20.2134 13.9947V14.5778H19.6303C19.4756 14.5778 19.3273 14.6393 19.2179 14.7486C19.1086 14.858 19.0472 15.0063 19.0472 15.161C19.0472 15.3156 19.1086 15.4639 19.2179 15.5733C19.3273 15.6826 19.4756 15.7441 19.6303 15.7441Z" fill="url(#paint0_linear_305_253)"/>
<path id="Vector_2" d="M17.2978 15.1609C17.2975 15.8363 17.4927 16.4974 17.8599 17.0643C18.227 17.6312 18.7504 18.0797 19.3668 18.3557C19.9833 18.6317 20.6664 18.7233 21.3338 18.6196C22.0012 18.5159 22.6243 18.2212 23.1279 17.7712C23.6315 17.3211 23.994 16.7349 24.1718 16.0833C24.3496 15.4317 24.3349 14.7426 24.1297 14.0992C23.9244 13.4557 23.5373 12.8854 23.0151 12.4571C22.4928 12.0289 21.8578 11.7609 21.1866 11.6856C20.9174 10.9109 20.382 10.2569 19.6757 9.84003C19.9857 9.40384 20.1695 8.89078 20.2073 8.35705C20.245 7.82331 20.1352 7.28948 19.8897 6.81402C19.6443 6.33856 19.2727 5.93981 18.8158 5.66145C18.3588 5.38309 17.8341 5.23584 17.299 5.23584C16.7639 5.23584 16.2392 5.38309 15.7822 5.66145C15.3252 5.93981 14.9537 6.33856 14.7083 6.81402C14.4628 7.28948 14.3529 7.82331 14.3907 8.35705C14.4284 8.89078 14.6123 9.40384 14.9222 9.84003C14.4033 10.1477 13.9732 10.5849 13.6741 11.1087C13.375 11.6326 13.2172 12.2252 13.216 12.8285V15.744C13.216 15.8987 13.2775 16.047 13.3868 16.1564C13.4962 16.2657 13.6445 16.3272 13.7991 16.3272H15.6068C15.7614 16.3272 15.9098 16.2657 16.0191 16.1564C16.1285 16.047 16.1899 15.8987 16.1899 15.744C16.1899 15.5894 16.1285 15.4411 16.0191 15.3317C15.9098 15.2224 15.7614 15.1609 15.6068 15.1609H14.3823V12.8285C14.3837 12.3766 14.5169 11.9349 14.7654 11.5576C15.014 11.1802 15.3672 10.8834 15.7817 10.7036C15.7991 10.6932 15.8159 10.6817 15.8319 10.6692C16.2709 10.9361 16.7744 11.0782 17.2882 11.08C17.802 11.0819 18.3065 10.9435 18.7474 10.6797C19.2702 10.8838 19.7011 11.2706 19.9603 11.7684C19.2013 11.9552 18.5268 12.3908 18.0442 13.0057C17.5616 13.6205 17.2989 14.3793 17.2978 15.1609ZM15.5485 8.16359C15.5485 7.8176 15.6511 7.47938 15.8433 7.19171C16.0355 6.90403 16.3087 6.67981 16.6284 6.54741C16.948 6.41501 17.2998 6.38036 17.6391 6.44786C17.9784 6.51536 18.2901 6.68197 18.5348 6.92662C18.7794 7.17127 18.946 7.48297 19.0135 7.82231C19.081 8.16165 19.0464 8.51338 18.914 8.83303C18.7816 9.15268 18.5574 9.42589 18.2697 9.61811C17.982 9.81033 17.6438 9.91292 17.2978 9.91292C16.8339 9.91292 16.3889 9.72862 16.0609 9.40055C15.7328 9.07249 15.5485 8.62754 15.5485 8.16359ZM20.7965 12.8285C21.2578 12.8285 21.7088 12.9653 22.0923 13.2216C22.4759 13.4779 22.7749 13.8421 22.9514 14.2683C23.1279 14.6945 23.1741 15.1635 23.0841 15.616C22.9941 16.0684 22.772 16.484 22.4458 16.8102C22.1196 17.1364 21.704 17.3586 21.2515 17.4486C20.7991 17.5386 20.3301 17.4924 19.9039 17.3158C19.4777 17.1393 19.1134 16.8403 18.8571 16.4568C18.6008 16.0732 18.464 15.6222 18.464 15.1609C18.464 14.5423 18.7098 13.9491 19.1472 13.5116C19.5846 13.0742 20.1779 12.8285 20.7965 12.8285ZM6.87877 18.2024C6.81719 18.1568 6.74721 18.1237 6.67284 18.1051C6.59846 18.0865 6.52115 18.0828 6.44532 18.0941C6.3695 18.1054 6.29665 18.1316 6.23094 18.1711C6.16524 18.2106 6.10797 18.2626 6.06242 18.3243C4.08466 21.0061 2.75609 24.1101 2.18122 27.3923L0.979428 34.3039C0.96437 34.3802 0.964703 34.4586 0.980406 34.5347C0.996109 34.6108 1.02687 34.683 1.07087 34.7471C1.11487 34.8111 1.17123 34.8658 1.23664 34.9077C1.30205 34.9497 1.37519 34.9781 1.45175 34.9914C1.52831 35.0047 1.60676 35.0026 1.68249 34.9851C1.75821 34.9677 1.82968 34.9352 1.8927 34.8898C1.95571 34.8443 2.009 34.7867 2.04944 34.7203C2.08988 34.654 2.11664 34.5802 2.12816 34.5033L3.33054 27.5917C3.87473 24.4891 5.13101 21.555 7.00064 19.02C7.04649 18.9584 7.07972 18.8883 7.09841 18.8138C7.11711 18.7393 7.1209 18.6618 7.10958 18.5859C7.09825 18.5099 7.07204 18.4369 7.03243 18.3711C6.99282 18.3053 6.9406 18.248 6.87877 18.2024Z" fill="url(#paint1_linear_305_253)"/>
<path id="Vector_3" d="M32.4226 8.92511C32.3141 8.31659 31.9688 7.77586 31.4625 7.42132C30.9562 7.06678 30.33 6.92733 29.721 7.0335L28.963 7.16761V2.91556C28.9621 2.14259 28.6546 1.40154 28.108 0.85497C27.5614 0.308397 26.8204 0.000925899 26.0474 0H19.0472C18.8925 0 18.7442 0.0614348 18.6348 0.17079C18.5255 0.280144 18.464 0.428461 18.464 0.583112C18.464 0.737763 18.5255 0.88608 18.6348 0.995434C18.7442 1.10479 18.8925 1.16622 19.0472 1.16622H26.0445C26.5085 1.16622 26.9534 1.35053 27.2815 1.67859C27.6095 2.00666 27.7938 2.45161 27.7938 2.91556V11.5637C27.6553 11.5623 27.5169 11.5734 27.3804 11.5969L26.6276 11.7293V2.91556C26.6276 2.76091 26.5662 2.61259 26.4568 2.50324C26.3475 2.39388 26.1992 2.33245 26.0445 2.33245H15.5485C15.3938 2.33245 15.2455 2.39388 15.1362 2.50324C15.0268 2.61259 14.9654 2.76091 14.9654 2.91556C14.9654 3.37951 14.7811 3.82446 14.453 4.15253C14.1249 4.48059 13.68 4.6649 13.216 4.6649H10.8836C10.7289 4.6649 10.5806 4.72633 10.4713 4.83569C10.3619 4.94504 10.3005 5.09336 10.3005 5.24801V23.1495L9.13425 23.6423V2.91556C9.13425 2.45161 9.31855 2.00666 9.64662 1.67859C9.97468 1.35053 10.4196 1.16622 10.8836 1.16622H16.7147C16.8694 1.16622 17.0177 1.10479 17.127 0.995434C17.2364 0.88608 17.2978 0.737763 17.2978 0.583112C17.2978 0.428461 17.2364 0.280144 17.127 0.17079C17.0177 0.0614348 16.8694 0 16.7147 0H10.8836C10.1106 0.000925899 9.36957 0.308397 8.823 0.85497C8.27642 1.40154 7.96895 2.14259 7.96803 2.91556V24.2067C6.72596 24.921 5.69445 25.9504 4.97773 27.191C4.26102 28.4317 3.88451 29.8395 3.88624 31.2723C3.88624 31.4269 3.94768 31.5753 4.05703 31.6846C4.16639 31.794 4.3147 31.8554 4.46935 31.8554C4.624 31.8554 4.77232 31.794 4.88168 31.6846C4.99103 31.5753 5.05247 31.4269 5.05247 31.2723C5.05024 29.8951 5.45541 28.548 6.217 27.4005C6.97859 26.2531 8.06256 25.3565 9.33251 24.8237L11.3734 23.9612C12.4378 23.5127 13.5692 23.2441 14.7216 23.1665L19.5615 22.8288C19.5946 22.829 19.6277 22.827 19.6606 22.823C19.8395 22.8244 20.012 22.8899 20.1468 23.0075C20.2816 23.1252 20.3698 23.2873 20.3953 23.4644C20.4822 24.0722 20.3259 24.6897 19.9605 25.183C19.595 25.6763 19.0498 26.0056 18.4431 26.0995L17.7019 26.2103C17.6261 26.2218 17.5534 26.2481 17.4878 26.2877C17.4222 26.3273 17.365 26.3794 17.3195 26.4411C17.2741 26.5028 17.2412 26.5729 17.2228 26.6473C17.2045 26.7217 17.2009 26.799 17.2124 26.8748C17.2239 26.9505 17.2502 27.0233 17.2898 27.0889C17.3294 27.1545 17.3815 27.2117 17.4432 27.2571C17.5049 27.3026 17.575 27.3354 17.6494 27.3538C17.7238 27.3722 17.8011 27.3758 17.8768 27.3643L18.6186 27.2523C19.5291 27.1113 20.3474 26.6173 20.8963 25.8774C21.4453 25.1375 21.6807 24.2111 21.5516 23.2988C21.5185 23.0686 21.4434 22.8465 21.33 22.6434C21.3615 22.4836 21.3781 22.3212 21.3796 22.1583C21.3803 21.4055 21.0891 20.6818 20.5673 20.1393C20.0454 19.5967 19.3335 19.2777 18.5813 19.2491C17.8291 19.2206 17.0951 19.4848 16.5336 19.9862C15.9722 20.4876 15.627 21.1872 15.5706 21.9378L14.6377 22.002C13.554 22.0795 12.4866 22.3088 11.4667 22.6831V5.83112H13.216C13.8879 5.83038 14.539 5.59797 15.0595 5.17308C15.58 4.74819 15.938 4.15682 16.0733 3.49867H25.4614V12.0902C25.1416 12.274 24.8705 12.5317 24.6708 12.8418C24.471 13.1519 24.3485 13.5053 24.3135 13.8724C24.2784 14.2396 24.3318 14.6098 24.4692 14.9521C24.6067 15.2943 24.8241 15.5987 25.1034 15.8397C24.7969 16.1028 24.5646 16.4415 24.4295 16.8221C24.2944 17.2028 24.2611 17.6121 24.333 18.0096C24.4049 18.4071 24.5795 18.7788 24.8394 19.088C25.0993 19.3972 25.4356 19.633 25.8148 19.7722C25.5945 20.1243 25.4728 20.5291 25.4622 20.9444C25.4517 21.3596 25.5528 21.7701 25.755 22.1329C25.9571 22.4958 26.2529 22.7978 26.6116 23.0073C26.9702 23.2169 27.3785 23.3264 27.7938 23.3245V29.7387C27.7938 30.2027 27.6095 30.6476 27.2815 30.9757C26.9534 31.3037 26.5085 31.488 26.0445 31.488H13.4417C13.5852 31.1118 13.6859 30.7206 13.742 30.3218H26.0445C26.1992 30.3218 26.3475 30.2604 26.4568 30.151C26.5662 30.0417 26.6276 29.8934 26.6276 29.7387V24.4808C26.6276 24.3261 26.5662 24.1778 26.4568 24.0685C26.3475 23.9591 26.1992 23.8977 26.0445 23.8977C25.8898 23.8977 25.7415 23.9591 25.6322 24.0685C25.5228 24.1778 25.4614 24.3261 25.4614 24.4808V29.1556H13.9315L14.065 28.6594C14.1235 28.4404 14.2446 28.2431 14.4134 28.0918C14.5822 27.9405 14.7914 27.8417 15.0155 27.8074L15.5695 27.7194C15.7194 27.6922 15.8528 27.6075 15.941 27.4832C16.0292 27.359 16.0653 27.2051 16.0415 27.0546C16.0177 26.9041 15.936 26.7689 15.8138 26.6779C15.6915 26.5869 15.5386 26.5474 15.3875 26.5677L14.8359 26.6552C14.3887 26.7242 13.9712 26.9218 13.6342 27.2239C13.2973 27.526 13.0556 27.9196 12.9385 28.3567L12.6527 29.418C12.6397 29.4675 12.6331 29.5184 12.6329 29.5696C12.6314 30.6965 12.183 31.7769 11.3862 32.5737C10.5893 33.3706 9.50897 33.819 8.38204 33.8205H4.46935C4.3147 33.8205 4.16639 33.8819 4.05703 33.9913C3.94768 34.1006 3.88624 34.249 3.88624 34.4036C3.88624 34.5583 3.94768 34.7066 4.05703 34.8159C4.16639 34.9253 4.3147 34.9867 4.46935 34.9867H8.38204C9.25699 34.9864 10.1188 34.774 10.8938 34.3678C11.6687 33.9616 12.3337 33.3736 12.8318 32.6543H19.7988C18.42 33.4164 16.8708 33.8175 15.2954 33.8205C15.1408 33.8205 14.9924 33.8819 14.8831 33.9913C14.7737 34.1006 14.7123 34.249 14.7123 34.4036C14.7123 34.5583 14.7737 34.7066 14.8831 34.8159C14.9924 34.9253 15.1408 34.9867 15.2954 34.9867C17.6935 34.9834 20.0185 34.1605 21.8846 32.6543H26.0445C26.8175 32.6533 27.5585 32.3459 28.1051 31.7993C28.6517 31.2527 28.9591 30.5117 28.9601 29.7387V23.3245C29.5173 23.3261 30.0567 23.1276 30.48 22.7651C30.9032 22.4026 31.1823 21.9002 31.2663 21.3493C31.3504 20.7984 31.2339 20.2356 30.9379 19.7633C30.642 19.2911 30.1864 18.9408 29.654 18.7762C30.0066 18.3089 30.1677 17.7247 30.1044 17.1428C30.0411 16.5608 29.7582 16.0249 29.3134 15.6443C29.5809 15.4129 29.792 15.1235 29.9306 14.7981C30.0692 14.4727 30.1317 14.1199 30.1133 13.7667C30.095 13.4135 29.9962 13.0692 29.8245 12.7599C29.6528 12.4507 29.4128 12.1848 29.1227 11.9824C29.0767 11.9497 29.026 11.9293 28.9781 11.9002L30.531 11.6261C31.1399 11.5186 31.6812 11.1737 32.0359 10.6672C32.3906 10.1607 32.5297 9.5341 32.4226 8.92511ZM18.464 20.4089C18.8527 20.4101 19.2299 20.5407 19.5361 20.78C19.8423 21.0194 20.0601 21.3539 20.1551 21.7308C19.9941 21.684 19.8276 21.6591 19.66 21.6568C19.6291 21.6568 19.5953 21.6568 19.5206 21.6638L16.7456 21.8562C16.8165 21.4516 17.0276 21.0848 17.3418 20.8202C17.656 20.5556 18.0533 20.41 18.464 20.4089ZM27.5828 12.7445C27.6504 12.7329 27.7188 12.7271 27.7874 12.727C28.0797 12.7265 28.3616 12.8357 28.5771 13.0331C28.7927 13.2305 28.9263 13.5017 28.9515 13.7929C28.9766 14.0841 28.8915 14.3741 28.713 14.6056C28.5344 14.837 28.2755 14.9929 27.9874 15.0425L26.8387 15.2449C26.6878 15.2717 26.5331 15.2685 26.3835 15.2355C26.2338 15.2025 26.0921 15.1404 25.9664 15.0527C25.8408 14.9649 25.7337 14.8533 25.6512 14.7241C25.5686 14.595 25.5124 14.4508 25.4856 14.2999C25.4588 14.1491 25.462 13.9944 25.4949 13.8447C25.5279 13.695 25.5901 13.5533 25.6778 13.4277C25.7656 13.302 25.8772 13.1949 26.0063 13.1124C26.1355 13.0299 26.2796 12.9736 26.4305 12.9468L27.5828 12.7445ZM25.4882 17.7972C25.4613 17.6462 25.4643 17.4914 25.4973 17.3417C25.5302 17.1919 25.5924 17.0502 25.6802 16.9244C25.768 16.7987 25.8797 16.6916 26.0089 16.6091C26.1382 16.5266 26.2824 16.4704 26.4334 16.4438L27.5828 16.2414C27.6504 16.2298 27.7188 16.224 27.7874 16.2239C28.0797 16.2234 28.3616 16.3326 28.5771 16.53C28.7927 16.7274 28.9263 16.9986 28.9515 17.2898C28.9766 17.581 28.8915 17.871 28.713 18.1025C28.5344 18.3339 28.2755 18.4899 27.9874 18.5395L26.8387 18.7418C26.5341 18.7953 26.2207 18.7257 25.9675 18.5483C25.7142 18.3708 25.5418 18.1 25.4882 17.7954V17.7972ZM30.1263 20.992C30.1263 21.3013 30.0034 21.598 29.7847 21.8167C29.566 22.0354 29.2694 22.1583 28.9601 22.1583H27.7938C27.4845 22.1583 27.1879 22.0354 26.9692 21.8167C26.7505 21.598 26.6276 21.3013 26.6276 20.992C26.6276 20.6827 26.7505 20.3861 26.9692 20.1674C27.1879 19.9487 27.4845 19.8258 27.7938 19.8258H28.9601C29.2694 19.8258 29.566 19.9487 29.7847 20.1674C30.0034 20.3861 30.1263 20.6827 30.1263 20.992ZM28.9601 10.7205V8.35133L29.9228 8.18164C30.2274 8.12752 30.5411 8.19663 30.7948 8.37379C31.0485 8.55094 31.2215 8.82162 31.2756 9.12629C31.3297 9.43095 31.2606 9.74463 31.0835 9.99834C30.9063 10.252 30.6356 10.425 30.331 10.4791L28.9601 10.7205Z" fill="url(#paint2_linear_305_253)"/>
<path id="Vector_4" d="M10.8836 3.49874C11.2056 3.49874 11.4667 3.23768 11.4667 2.91563C11.4667 2.59359 11.2056 2.33252 10.8836 2.33252C10.5615 2.33252 10.3005 2.59359 10.3005 2.91563C10.3005 3.23768 10.5615 3.49874 10.8836 3.49874Z" fill="url(#paint3_linear_305_253)"/>
<path id="Vector_5" d="M13.216 3.49874C13.5381 3.49874 13.7991 3.23768 13.7991 2.91563C13.7991 2.59359 13.5381 2.33252 13.216 2.33252C12.894 2.33252 12.6329 2.59359 12.6329 2.91563C12.6329 3.23768 12.894 3.49874 13.216 3.49874Z" fill="url(#paint4_linear_305_253)"/>
</g>
<defs>
<linearGradient id="paint0_linear_305_253" x1="19.5887" y1="13.8487" x2="21.9926" y2="16.2316" gradientUnits="userSpaceOnUse">
<stop stop-color="#3E96F4"/>
<stop offset="1" stop-color="#31393C"/>
</linearGradient>
<linearGradient id="paint1_linear_305_253" x1="4.57932" y1="8.95429" x2="24.3958" y2="24.3491" gradientUnits="userSpaceOnUse">
<stop stop-color="#3E96F4"/>
<stop offset="1" stop-color="#31393C"/>
</linearGradient>
<linearGradient id="paint2_linear_305_253" x1="8.30906" y1="4.3709" x2="31.822" y2="23.4047" gradientUnits="userSpaceOnUse">
<stop stop-color="#3E96F4"/>
<stop offset="1" stop-color="#31393C"/>
</linearGradient>
<linearGradient id="paint3_linear_305_253" x1="10.481" y1="2.47822" x2="11.2823" y2="3.27251" gradientUnits="userSpaceOnUse">
<stop stop-color="#3E96F4"/>
<stop offset="1" stop-color="#31393C"/>
</linearGradient>
<linearGradient id="paint4_linear_305_253" x1="12.8135" y1="2.47822" x2="13.6148" y2="3.27251" gradientUnits="userSpaceOnUse">
<stop stop-color="#3E96F4"/>
<stop offset="1" stop-color="#31393C"/>
</linearGradient>
</defs>
</svg>
