<svg width="61" height="64" viewBox="0 0 61 64" fill="none" xmlns="http://www.w3.org/2000/svg">
<path fill-rule="evenodd" clip-rule="evenodd" d="M42.9791 8.22091C43.1792 8.42095 43.4505 8.53333 43.7334 8.53333C44.0163 8.53333 44.2876 8.42095 44.4876 8.22091C44.6877 8.02088 44.8 7.74956 44.8 7.46667V5.33333C44.8 2.3936 42.4086 0 39.4667 0H16C13.0582 0 10.6667 2.3936 10.6667 5.33333V7.46667C10.6667 7.74956 10.7791 8.02088 10.9791 8.22091C11.1792 8.42095 11.4505 8.53333 11.7334 8.53333C12.0163 8.53333 12.2876 8.42095 12.4876 8.22091C12.6877 8.02088 12.8 7.74956 12.8 7.46667V5.33333C12.8 3.56907 14.2358 2.13333 16 2.13333H39.4667C41.231 2.13333 42.6667 3.56907 42.6667 5.33333V7.46667C42.6667 7.74956 42.7791 8.02088 42.9791 8.22091ZM18.1334 51.2H26.6667C26.9496 51.2 27.2209 51.0876 27.421 50.8876C27.621 50.6875 27.7334 50.4162 27.7334 50.1333C27.7334 49.8504 27.621 49.5791 27.421 49.3791C27.2209 49.179 26.9496 49.0667 26.6667 49.0667H18.1334C17.8505 49.0667 17.5792 49.179 17.3791 49.3791C17.1791 49.5791 17.0667 49.8504 17.0667 50.1333C17.0667 50.4162 17.1791 50.6875 17.3791 50.8876C17.5792 51.0876 17.8505 51.2 18.1334 51.2ZM18.1334 55.4667H33.0667C33.3496 55.4667 33.6209 55.3543 33.821 55.1543C34.021 54.9542 34.1334 54.6829 34.1334 54.4C34.1334 54.1171 34.021 53.8458 33.821 53.6458C33.6209 53.4457 33.3496 53.3333 33.0667 53.3333H18.1334C17.8505 53.3333 17.5792 53.4457 17.3791 53.6458C17.1791 53.8458 17.0667 54.1171 17.0667 54.4C17.0667 54.6829 17.1791 54.9542 17.3791 55.1543C17.5792 55.3543 17.8505 55.4667 18.1334 55.4667ZM18.1334 46.9333H37.3334C37.6163 46.9333 37.8876 46.821 38.0876 46.6209C38.2877 46.4209 38.4 46.1496 38.4 45.8667C38.4 45.5838 38.2877 45.3125 38.0876 45.1124C37.8876 44.9124 37.6163 44.8 37.3334 44.8H18.1334C17.8505 44.8 17.5792 44.9124 17.3791 45.1124C17.1791 45.3125 17.0667 45.5838 17.0667 45.8667C17.0667 46.1496 17.1791 46.4209 17.3791 46.6209C17.5792 46.821 17.8505 46.9333 18.1334 46.9333ZM24.5334 6.39983H30.9334C31.2163 6.39983 31.4876 6.28745 31.6876 6.08741C31.8877 5.88737 32 5.61606 32 5.33316C32 5.05026 31.8877 4.77895 31.6876 4.57891C31.4876 4.37887 31.2163 4.26649 30.9334 4.26649H24.5334C24.2505 4.26649 23.9792 4.37887 23.7791 4.57891C23.5791 4.77895 23.4667 5.05026 23.4667 5.33316C23.4667 5.61606 23.5791 5.88737 23.7791 6.08741C23.9792 6.28745 24.2505 6.39983 24.5334 6.39983ZM12.2307 62.4359C13.2305 63.4357 14.5861 63.9981 16 63.9998H39.4667C42.4086 63.9998 44.8 61.6062 44.8 58.6665V36.4029C45.2764 36.2806 45.7718 36.241 46.2646 36.2875C46.965 36.3537 47.6383 36.5919 48.2245 36.981C48.8107 37.37 49.2917 37.8979 49.6248 38.5176C49.9579 39.1373 50.1327 39.8298 50.1337 40.5333C50.1315 41.3466 49.8981 42.1424 49.4606 42.828C49.0232 43.5136 48.3999 44.0606 47.6633 44.4053C47.4435 44.508 47.2653 44.6826 47.158 44.9002C47.0508 45.1178 47.0209 45.3654 47.0734 45.6023C47.1258 45.8392 47.2574 46.0511 47.4465 46.2031C47.6356 46.3551 47.8708 46.4381 48.1134 46.4384C48.269 46.4383 48.4227 46.4041 48.5636 46.3381C49.6682 45.8218 50.603 45.0018 51.2588 43.9739C51.9146 42.946 52.2643 41.7526 52.267 40.5333C52.2647 39.478 52.0017 38.4397 51.5016 37.5104C51.0014 36.5812 50.2795 35.7898 49.4 35.2066C48.5205 34.6234 47.5106 34.2665 46.4599 34.1674C45.9043 34.1151 45.3464 34.1357 44.8 34.2272V22.3998C44.8 22.1169 44.6877 21.8456 44.4876 21.6456C44.2876 21.4455 44.0163 21.3332 43.7334 21.3332C43.4505 21.3332 43.1792 21.4455 42.9791 21.6456C42.7791 21.8456 42.6667 22.1169 42.6667 22.3998V58.6665C42.6667 60.4308 41.231 61.8665 39.4667 61.8665H16C14.2358 61.8665 12.8 60.4308 12.8 58.6665V43.7332C12.8 43.4503 12.6877 43.1789 12.4876 42.9789C12.2876 42.7789 12.0163 42.6665 11.7334 42.6665C11.4505 42.6665 11.1792 42.7789 10.9791 42.9789C10.7791 43.1789 10.6667 43.4503 10.6667 43.7332V58.6665C10.6684 60.0805 11.2308 61.436 12.2307 62.4359ZM5.33406 46.8265C4.74526 46.8265 4.2674 46.4553 4.2674 45.8665V45.6532C4.2674 45.3703 4.37978 45.0989 4.57981 44.8989C4.77985 44.6989 5.05116 44.5865 5.33406 44.5865C5.61696 44.5865 5.88827 44.6989 6.08831 44.8989C6.28835 45.0989 6.40073 45.3703 6.40073 45.6532C6.40073 46.242 5.92286 46.8265 5.33406 46.8265ZM5.33406 51.0932C4.74526 51.0932 4.2674 50.722 4.2674 50.1332V49.9198C4.2674 49.6369 4.37978 49.3656 4.57981 49.1656C4.77985 48.9655 5.05116 48.8532 5.33406 48.8532C5.61696 48.8532 5.88827 48.9655 6.08831 49.1656C6.28835 49.3656 6.40073 49.6369 6.40073 49.9198C6.40073 50.5086 5.92286 51.0932 5.33406 51.0932ZM5.33406 55.3598C4.74526 55.3598 4.2674 54.9886 4.2674 54.3998V54.1865C4.2674 53.9036 4.37978 53.6323 4.57981 53.4322C4.77985 53.2322 5.05116 53.1198 5.33406 53.1198C5.61696 53.1198 5.88827 53.2322 6.08831 53.4322C6.28835 53.6323 6.40073 53.9036 6.40073 54.1865C6.40073 54.7753 5.92286 55.3598 5.33406 55.3598ZM47.6594 55.4665H45.8674C45.5845 55.4665 45.3132 55.3541 45.1131 55.1541C44.9131 54.954 44.8007 54.6827 44.8007 54.3998C44.8007 54.1169 44.9131 53.8456 45.1131 53.6456C45.3132 53.4455 45.5845 53.3332 45.8674 53.3332H46.7997L47.3223 50.9118C47.3643 50.7158 47.4609 50.5356 47.601 50.3922C47.741 50.2487 47.9188 50.1478 48.1138 50.1012C49.1432 49.8488 50.127 49.4378 51.0301 48.883C51.2003 48.7791 51.3964 48.725 51.5959 48.7269C51.7953 48.7288 51.9903 48.7866 52.1586 48.8937L54.2706 50.2441L55.5783 48.9257L54.2279 46.8308C54.1195 46.6623 54.0607 46.4668 54.058 46.2665C54.0554 46.0662 54.1091 45.8692 54.213 45.698C54.768 44.7953 55.1783 43.8113 55.429 42.7817C55.4759 42.5873 55.5763 42.41 55.7188 42.2697C55.8614 42.1295 56.0403 42.0319 56.2354 41.9881L58.6653 41.4484V39.6201L56.2354 39.0804C56.0403 39.0366 55.8614 38.939 55.7188 38.7987C55.5763 38.6585 55.4759 38.4811 55.429 38.2868C55.1774 37.2575 54.7671 36.2736 54.213 35.3705C54.1082 35.2 54.0538 35.0034 54.0561 34.8033C54.0584 34.6032 54.1172 34.4079 54.2258 34.2398L55.5783 32.1257L54.2727 30.8201L52.1586 32.1726C51.9905 32.2802 51.7955 32.3383 51.5959 32.3402C51.3963 32.3421 51.2002 32.2877 51.0301 32.1833C50.1266 31.6292 49.1429 31.2183 48.1138 30.9652C47.9188 30.9185 47.741 30.8176 47.601 30.6741C47.4609 30.5307 47.3643 30.3505 47.3223 30.1545L46.7997 27.7332H45.8674C45.5845 27.7332 45.3132 27.6208 45.1131 27.4207C44.9131 27.2207 44.8007 26.9494 44.8007 26.6665C44.8007 26.3836 44.9131 26.1123 45.1131 25.9122C45.3132 25.7122 45.5845 25.5998 45.8674 25.5998H47.6594C47.9031 25.6002 48.1393 25.6841 48.3287 25.8374C48.5181 25.9907 48.6493 26.2042 48.7005 26.4425L49.2701 29.0729C50.0509 29.3097 50.8167 29.6297 51.5549 30.0286L53.8461 28.563C54.051 28.4321 54.2944 28.3751 54.5361 28.4015C54.7779 28.4279 55.0033 28.5361 55.1751 28.7081L57.6946 31.2254C57.8663 31.3975 57.9741 31.6231 58.0001 31.8648C58.0261 32.1065 57.9687 32.3498 57.8375 32.5545L56.3719 34.8457C56.7709 35.586 57.0909 36.3518 57.3277 37.1348L59.9623 37.7193C60.1994 37.7717 60.4115 37.9035 60.5635 38.0928C60.7156 38.2821 60.7985 38.5176 60.7986 38.7604V42.3017C60.7985 42.5445 60.7156 42.78 60.5635 42.9693C60.4115 43.1586 60.1994 43.2903 59.9623 43.3428L57.3277 43.9273C57.0869 44.7198 56.7667 45.486 56.3719 46.2142L57.8354 48.4841C57.9679 48.688 58.0264 48.9313 58.0012 49.1732C57.9759 49.4151 57.8685 49.641 57.6967 49.8132L55.1773 52.3518C55.0056 52.5247 54.7798 52.6336 54.5376 52.6604C54.2954 52.6872 54.0514 52.6302 53.8461 52.499L51.5549 51.0334C50.827 51.4274 50.0616 51.7476 49.2701 51.9892L48.7005 54.6196C48.6501 54.8586 48.5193 55.0731 48.3298 55.2273C48.1403 55.3814 47.9037 55.4659 47.6594 55.4665ZM38.4004 19.2H51.2004C53.5534 19.2 55.467 17.2864 55.467 14.9333C55.467 12.5803 53.5534 10.6667 51.2004 10.6667H38.4004C36.0473 10.6667 34.1337 12.5803 34.1337 14.9333C34.1337 17.2864 36.0473 19.2 38.4004 19.2ZM36.9524 13.4575C37.3324 13.0601 37.8511 12.8246 38.4004 12.8H51.2004C51.7497 12.8246 52.2683 13.0601 52.6483 13.4575C53.0283 13.8548 53.2404 14.3835 53.2404 14.9333C53.2404 15.4832 53.0283 16.0118 52.6483 16.4092C52.2683 16.8066 51.7497 17.0421 51.2004 17.0667H38.4004C37.8511 17.0421 37.3324 16.8066 36.9524 16.4092C36.5724 16.0118 36.3603 15.4832 36.3603 14.9333C36.3603 14.3835 36.5724 13.8548 36.9524 13.4575ZM14.9998 38.8002C22.069 38.8002 27.7998 33.0694 27.7998 26.0002C27.7998 18.9309 22.069 13.2002 14.9998 13.2002C7.93051 13.2002 2.19976 18.9309 2.19976 26.0002C2.19976 33.0694 7.93051 38.8002 14.9998 38.8002ZM14.9998 41.0002C23.284 41.0002 29.9998 34.2844 29.9998 26.0002C29.9998 17.7159 23.284 11.0002 14.9998 11.0002C6.71548 11.0002 -0.000244141 17.7159 -0.000244141 26.0002C-0.000244141 34.2844 6.71548 41.0002 14.9998 41.0002ZM7.99976 20H5.99976V30H7.99976V20ZM10.9998 23H12.9998V30H10.9998V23ZM18.9998 17H16.9998V30H18.9998V17ZM21.9998 23H23.9998V30H21.9998V23ZM23.9998 33V31H5.99976V33H23.9998Z" fill="url(#paint0_linear_1_1072)"/>
<defs>
<linearGradient id="paint0_linear_1_1072" x1="9.41129" y1="7.99552" x2="53.3074" y2="49.3316" gradientUnits="userSpaceOnUse">
<stop stop-color="#FE5B52"/>
<stop offset="1" stop-color="#3E96F4"/>
</linearGradient>
</defs>
</svg>
