<svg width="48" height="48" viewBox="0 0 48 48" fill="none" xmlns="http://www.w3.org/2000/svg">
<rect x="0.5" y="0.5" width="47" height="47" fill="#EBF5FF" stroke="#DFE9F2"/>
<path fill-rule="evenodd" clip-rule="evenodd" d="M25.4141 8C27.2929 8.00218 28.816 9.5245 28.8184 11.4033V14H21C19.8954 14 19 14.8954 19 16V31C19 32.1046 19.8954 33 21 33H28.8184V36.5967C28.8161 38.4756 27.293 39.9982 25.4141 40H14.7666C12.8878 39.998 11.3652 38.4756 11.3633 36.5967V11.4033C11.3654 9.52457 12.8878 8.00222 14.7666 8H25.4141ZM20.0908 34.1816C19.2872 34.1816 18.6357 34.8335 18.6357 35.6367C18.6359 36.4401 19.2874 37.0908 20.0908 37.0908C20.8939 37.0907 21.5447 36.44 21.5449 35.6367C21.5449 34.8335 20.894 34.1818 20.0908 34.1816ZM17.9092 10.9092C17.5075 10.9092 17.1816 11.2351 17.1816 11.6367C17.1819 12.0382 17.5077 12.3633 17.9092 12.3633H22.2725C22.6739 12.3633 22.9988 12.0382 22.999 11.6367C22.999 11.2351 22.674 10.9092 22.2725 10.9092H17.9092Z" fill="#0089FF"/>
<path d="M24.0769 25.4231C24.0769 25.1568 24.1559 24.8966 24.3038 24.6752C24.4517 24.4538 24.6619 24.2813 24.9079 24.1794C25.1539 24.0775 25.4246 24.0508 25.6857 24.1028C25.9468 24.1547 26.1867 24.2829 26.375 24.4712C26.5632 24.6595 26.6914 24.8993 26.7434 25.1605C26.7953 25.4216 26.7686 25.6923 26.6668 25.9382C26.5649 26.1842 26.3923 26.3944 26.171 26.5424C25.9496 26.6903 25.6893 26.7692 25.4231 26.7692C25.0667 26.7672 24.7255 26.6247 24.4734 26.3727C24.2214 26.1207 24.0789 25.7795 24.0769 25.4231ZM21 21H36V29.2692C36 29.7283 35.8177 30.1685 35.4931 30.4931C35.1685 30.8177 34.7283 31 34.2692 31H22.7308C22.2717 31 21.8315 30.8177 21.5069 30.4931C21.1823 30.1685 21 29.7283 21 29.2692V21ZM32.8462 27.3462C32.8462 27.4992 32.9069 27.6459 33.0151 27.7541C33.1233 27.8623 33.2701 27.9231 33.4231 27.9231C33.5761 27.9231 33.7228 27.8623 33.831 27.7541C33.9392 27.6459 34 27.4992 34 27.3462V25.0385C34 24.8855 33.9392 24.7387 33.831 24.6305C33.7228 24.5223 33.5761 24.4615 33.4231 24.4615C33.2701 24.4615 33.1233 24.5223 33.0151 24.6305C32.9069 24.7387 32.8462 24.8855 32.8462 25.0385V27.3462ZM31 27.3462C31 27.4992 31.0608 27.6459 31.169 27.7541C31.2772 27.8623 31.4239 27.9231 31.5769 27.9231C31.7299 27.9231 31.8767 27.8623 31.9849 27.7541C32.0931 27.6459 32.1538 27.4992 32.1538 27.3462V23.5C32.1538 23.347 32.0931 23.2002 31.9849 23.0921C31.8767 22.9839 31.7299 22.9231 31.5769 22.9231C31.4239 22.9231 31.2772 22.9839 31.169 23.0921C31.0608 23.2002 31 23.347 31 23.5V27.3462ZM29.0769 27.3462C29.0769 27.4992 29.1377 27.6459 29.2459 27.7541C29.3541 27.8623 29.5008 27.9231 29.6538 27.9231C29.8069 27.9231 29.9536 27.8623 30.0618 27.7541C30.17 27.6459 30.2308 27.4992 30.2308 27.3462V25.8077C30.2308 25.6547 30.17 25.5079 30.0618 25.3997C29.9536 25.2916 29.8069 25.2308 29.6538 25.2308C29.5008 25.2308 29.3541 25.2916 29.2459 25.3997C29.1377 25.5079 29.0769 25.6547 29.0769 25.8077V27.3462ZM22.9231 25.4231C22.9231 25.9175 23.0697 26.4009 23.3444 26.812C23.6191 27.2231 24.0096 27.5436 24.4664 27.7328C24.9232 27.922 25.4259 27.9715 25.9108 27.875C26.3958 27.7786 26.8412 27.5405 27.1908 27.1908C27.5405 26.8412 27.7786 26.3958 27.875 25.9108C27.9715 25.4259 27.922 24.9232 27.7328 24.4664C27.5436 24.0096 27.2231 23.6191 26.812 23.3444C26.4009 23.0697 25.9175 22.9231 25.4231 22.9231C24.7607 22.9251 24.126 23.1891 23.6576 23.6576C23.1891 24.126 22.9251 24.7607 22.9231 25.4231ZM36 17.7308V19.8462H21V17.7308C21 17.2717 21.1823 16.8315 21.5069 16.5069C21.8315 16.1823 22.2717 16 22.7308 16H34.2692C34.7283 16 35.1685 16.1823 35.4931 16.5069C35.8177 16.8315 36 17.2717 36 17.7308ZM24.8462 18.1154C24.8442 17.963 24.7827 17.8174 24.675 17.7096C24.5672 17.6019 24.4216 17.5405 24.2692 17.5385H23.5C23.347 17.5385 23.2002 17.5992 23.0921 17.7074C22.9839 17.8156 22.9231 17.9624 22.9231 18.1154C22.9231 18.2684 22.9839 18.4151 23.0921 18.5233C23.2002 18.6315 23.347 18.6923 23.5 18.6923H24.2692C24.4216 18.6903 24.5672 18.6289 24.675 18.5211C24.7827 18.4134 24.8442 18.2678 24.8462 18.1154ZM27.1538 18.1154C27.1519 17.963 27.0904 17.8174 26.9827 17.7096C26.8749 17.6019 26.7293 17.5405 26.5769 17.5385H25.8077C25.6547 17.5385 25.5079 17.5992 25.3997 17.7074C25.2916 17.8156 25.2308 17.9624 25.2308 18.1154C25.2308 18.2684 25.2916 18.4151 25.3997 18.5233C25.5079 18.6315 25.6547 18.6923 25.8077 18.6923H26.5769C26.7293 18.6903 26.8749 18.6289 26.9827 18.5211C27.0904 18.4134 27.1519 18.2678 27.1538 18.1154Z" fill="#0089FF"/>
</svg>
