<svg width="62" height="62" viewBox="0 0 62 62" fill="none" xmlns="http://www.w3.org/2000/svg">
<path fill-rule="evenodd" clip-rule="evenodd" d="M37.5553 19.5519C35.8 21.0769 33.5078 22 31 22C28.4224 22 26.0726 21.0248 24.2994 19.4232C25.2496 16.6808 27.8485 14.7125 30.9057 14.7125C34.0106 14.7125 36.6428 16.7427 37.5553 19.5519ZM39.1618 17.7794C38.1876 15.7327 36.4794 14.105 34.3789 13.2391C35.2254 12.3646 35.7466 11.1715 35.7466 9.85627C35.7466 7.17423 33.5792 5 30.9057 5C28.2322 5 26.0649 7.17423 26.0649 9.85627C26.0649 11.1715 26.5861 12.3646 27.4326 13.2391C25.3869 14.0824 23.7133 15.6483 22.7275 17.6201C21.6372 16.0184 21 14.0836 21 12C21 6.47715 25.4772 2 31 2C36.5229 2 41 6.47715 41 12C41 14.1532 40.3195 16.1475 39.1618 17.7794ZM42.8341 14C41.8819 19.6754 36.946 24 31 24C25.054 24 20.1181 19.6754 19.1659 14H4C2.89543 14 2 14.8954 2 16V46C2 47.1046 2.89543 48 4 48H58C59.1046 48 60 47.1046 60 46V16C60 14.8954 59.1046 14 58 14H42.8341ZM43 12H58C60.2091 12 62 13.7909 62 16V46C62 48.2091 60.2091 50 58 50H38.9434L42.5148 55H51.0002C53.2093 55 55.0002 56.7909 55.0002 59V62H8.00018V59C8.00018 56.7909 9.79104 55 12.0002 55H19.4856L23.057 50H4C1.79086 50 0 48.2091 0 46V16C0 13.7909 1.79086 12 4 12H19C19 5.37258 24.3726 0 31 0C37.6274 0 43 5.37258 43 12ZM25.5148 50H36.4856L40.057 55H21.9434L25.5148 50ZM51.0002 57H12.0002C10.8956 57 10.0002 57.8954 10.0002 59V60H53.0002V59C53.0002 57.8954 52.1048 57 51.0002 57ZM36.9375 31.2243H39.5938C39.875 31.2243 40.0625 31.1305 40.25 30.943L43.625 27.7555L45.2188 33.8493C45.3125 34.1305 45.5938 34.4118 45.875 34.5055C46.25 34.5993 46.5312 34.5055 46.8125 34.318L51.2188 30.0993H53.5938C54.1562 30.0993 54.5312 29.7243 54.5312 29.1618C54.5312 28.5993 54.1562 28.2243 53.5938 28.2243H50.8438C50.5625 28.2243 50.375 28.318 50.1875 28.5055L46.625 31.7868L45.0312 25.693C44.9375 25.4118 44.6562 25.1305 44.375 25.0368C44.0938 24.943 43.7188 25.0368 43.4375 25.2243L39.2188 29.2555H36.9375C36.375 29.2555 36 29.6305 36 30.193C36 30.7555 36.375 31.2243 36.9375 31.2243ZM13.25 44.0366H8.9375C8.375 44.0366 8 43.6616 8 43.0991V34.5679C8 34.0054 8.375 33.6304 8.9375 33.6304H13.25C13.8125 33.6304 14.1875 34.0054 14.1875 34.5679V43.0991C14.1875 43.6616 13.8125 44.0366 13.25 44.0366ZM12.3125 35.5054H9.875V42.1616H12.3125V35.5054ZM17.0938 28.9429H21.4062C21.9688 28.9429 22.3438 29.4116 22.3438 29.8804V43.0991C22.3438 43.6616 21.9688 44.0366 21.4062 44.0366H17.0938C16.5312 44.0366 16.1562 43.6616 16.1562 43.0991V29.8804C16.1562 29.3179 16.5312 28.9429 17.0938 28.9429ZM18.0312 42.1616H20.4688V30.8179H18.0312V42.1616ZM24.2188 43.0991V27.1929C24.2188 26.6304 24.6875 26.2554 25.1562 26.2554H29.4688C30.0313 26.2554 30.4063 26.6304 30.4063 27.1929V43.0991C30.4063 43.6616 30.0313 44.0366 29.4688 44.0366H25.1562C24.5938 44.0366 24.2188 43.6616 24.2188 43.0991ZM28.5313 28.1304H26.0938V42.1616H28.5313V28.1304ZM36.1875 38.8804C36.1875 38.3179 36.5625 37.9429 37.125 37.9429H53.3125C53.875 37.9429 54.3438 38.3179 54.3438 38.8804C54.3438 39.4429 53.9688 39.8179 53.4062 39.8179H37.125C36.5625 39.8179 36.1875 39.4429 36.1875 38.8804ZM36.1875 43.0991C36.1875 42.5366 36.5625 42.1616 37.125 42.1616H53.3125C53.875 42.1616 54.3438 42.5366 54.3438 43.0991C54.3438 43.6616 53.9688 44.0366 53.4062 44.0366H37.125C36.5625 44.0366 36.1875 43.6616 36.1875 43.0991ZM33.5951 9.85627C33.5951 11.3463 32.391 12.5542 30.9057 12.5542C29.4205 12.5542 28.2164 11.3463 28.2164 9.85627C28.2164 8.36625 29.4205 7.15834 30.9057 7.15834C32.391 7.15834 33.5951 8.36625 33.5951 9.85627Z" fill="url(#paint0_linear_1_636)"/>
<defs>
<linearGradient id="paint0_linear_1_636" x1="62.4963" y1="62.1002" x2="15.966" y2="7.72034" gradientUnits="userSpaceOnUse">
<stop stop-color="#31393C"/>
<stop offset="1" stop-color="#3D96F5"/>
</linearGradient>
</defs>
</svg>
