<svg width="24" height="24" viewBox="0 0 24 24" fill="none" xmlns="http://www.w3.org/2000/svg">
<path d="M23.8524 21.5397C23.8467 23.0002 22.9209 23.9739 21.5093 23.9858C19.692 24.0036 17.8748 24.0036 16.0575 23.9917C14.6002 23.9799 13.663 23.0002 13.6573 21.4922C13.6458 19.6399 13.6458 17.7816 13.6573 15.9292C13.663 14.3856 14.6002 13.4178 16.086 13.406C16.989 13.3941 17.8862 13.406 18.7891 13.406C19.692 13.406 20.5893 13.4 21.4922 13.406C22.9209 13.4238 23.8467 14.3915 23.8581 15.8817C23.8638 17.7638 23.8581 19.6517 23.8524 21.5397ZM10.8571 5.24252C10.8628 8.17542 8.59401 10.5502 5.77665 10.5502C2.98785 10.5502 0.724815 8.19323 0.7191 5.27814C0.713385 2.35117 2.99928 -0.0177114 5.82236 9.97845e-05C8.59401 0.0179109 10.8513 2.36898 10.8571 5.24252ZM4.95372 23.6593C4.59941 23.6593 4.2451 23.5049 3.95936 23.2258C3.26216 22.5431 2.55925 21.8484 1.87919 21.1716C1.6106 20.9045 1.34201 20.6373 1.07341 20.3761C1.01055 20.3167 0.94769 20.2514 0.884828 20.192C0.696241 20.008 0.496225 19.818 0.313354 19.5983C-0.132396 19.058 -0.0981078 18.2506 0.387645 17.7578C1.51916 16.612 2.6964 15.4424 3.99365 14.1837C4.25653 13.9225 4.5937 13.78 4.94229 13.78C5.31947 13.78 5.6795 13.9522 5.93666 14.2431C6.43384 14.8249 6.38812 15.6561 5.82808 16.232C5.46805 16.5942 5.10231 16.9623 4.74228 17.3185H9.22263C10.3884 17.3185 10.817 18.0606 10.8285 18.6899C10.8342 19.0758 10.7142 19.4083 10.4742 19.6636C10.1827 19.9723 9.75982 20.1267 9.21121 20.1267H4.79371C4.97658 20.3286 5.15945 20.5245 5.34233 20.7204C5.4109 20.7917 5.48519 20.8688 5.5652 20.946C5.65092 21.0291 5.74236 21.1182 5.83379 21.2132C6.40527 21.8306 6.42813 22.6856 5.87951 23.2496C5.62806 23.5168 5.29661 23.6593 4.95372 23.6593ZM19.0463 10.1762C19.4006 10.1762 19.7549 10.0218 20.0406 9.7428C20.7378 9.06004 21.4408 8.36541 22.1208 7.68858C22.3894 7.42141 22.658 7.15425 22.9266 6.89302C22.9894 6.83365 23.0523 6.76834 23.1152 6.70897C23.3038 6.52492 23.5038 6.33493 23.6866 6.11526C24.1324 5.57499 24.0981 4.76755 23.6124 4.27478C22.4808 3.12893 21.3036 1.95933 20.0064 0.700672C19.7435 0.439442 19.4063 0.296952 19.0577 0.296952C18.6805 0.296952 18.3205 0.469127 18.0633 0.760042C17.5662 1.34187 17.6119 2.17306 18.1719 2.74895C18.5319 3.11111 18.8977 3.47921 19.2577 3.83543H14.7774C13.6116 3.83543 13.183 4.57757 13.1715 5.20689C13.1658 5.5928 13.2858 5.92528 13.5258 6.18057C13.8173 6.4893 14.2402 6.64366 14.7888 6.64366H19.2063C19.0234 6.84552 18.8405 7.04144 18.6577 7.23737C18.5891 7.30861 18.5148 7.38579 18.4348 7.46297C18.3491 7.54609 18.2576 7.63515 18.1662 7.73014C17.5947 8.34759 17.5719 9.20253 18.1205 9.76655C18.3719 10.0337 18.7034 10.1762 19.0463 10.1762Z" fill="#3E96F4"/>
</svg>
