<svg width="48" height="48" viewBox="0 0 48 48" fill="none" xmlns="http://www.w3.org/2000/svg">
<rect width="48" height="48" rx="8" fill="white"/>
<path d="M2 32C2.93171 32 3.71235 32.6377 3.93457 33.5H7C7.27614 33.5 7.5 33.7239 7.5 34C7.5 34.2761 7.27614 34.5 7 34.5H3.93457C3.71235 35.3623 2.93171 36 2 36C0.89543 36 0 35.1046 0 34C0 32.8954 0.89543 32 2 32Z" fill="#3E96F4"/>
<path fill-rule="evenodd" clip-rule="evenodd" d="M12 12C16.9706 12 21 16.0294 21 21C21 25.9706 14 36 12 36C10 36 3 25.9706 3 21C3 16.0294 7.02944 12 12 12ZM12 17C9.79086 17 8 18.7909 8 21C8 23.2091 9.79086 25 12 25C14.2091 25 16 23.2091 16 21C16 18.7909 14.2091 17 12 17Z" fill="#3E96F4"/>
<path d="M22 32C23.1046 32 24 32.8954 24 34C24 35.1046 23.1046 36 22 36C21.0683 36 20.2877 35.3623 20.0654 34.5H17C16.7239 34.5 16.5 34.2761 16.5 34C16.5 33.7239 16.7239 33.5 17 33.5H20.0654C20.2877 32.6377 21.0683 32 22 32Z" fill="#3E96F4"/>
</svg>
