<svg width="72" height="72" viewBox="0 0 72 72" fill="none" xmlns="http://www.w3.org/2000/svg">
<path d="M35.9977 1.57999e-06C35.7199 -0.000449632 35.4505 0.0957548 35.2358 0.272128C35.2358 0.272128 27.6026 6.60359 27.6026 16.8038C27.6026 17.4025 27.6208 17.983 27.6525 18.5454C26.767 19.2044 26.0054 20.0152 25.403 20.9401C24.065 22.9448 22.7996 26.2012 22.7996 31.2038C22.7996 32.4737 24.5095 32.8728 25.0764 31.739C25.0764 31.739 26.4643 28.9361 29.9293 27.9473C30.7321 29.7207 31.4442 30.7276 31.4442 30.7276C31.6709 31.0269 32.0247 31.2038 32.3966 31.2038H39.5989C39.9753 31.2038 40.3291 31.0224 40.5558 30.723C40.5558 30.723 41.2679 29.7207 42.0752 27.9428C45.5403 28.9315 46.9281 31.739 46.9281 31.739C47.4996 32.8728 49.2049 32.4692 49.2049 31.2038C49.2049 26.2057 47.9395 22.9448 46.6016 20.9401C45.9986 20.0116 45.2353 19.1977 44.3475 18.5363C44.3792 17.9739 44.4019 17.3979 44.4019 16.7992C44.4019 6.59906 36.7687 0.276663 36.7687 0.276663C36.5538 0.100623 36.2846 0.00446207 36.0068 0.00453695H36.0023L35.9977 1.57999e-06ZM35.9977 2.8664C36.4739 3.3018 37.4944 4.39484 38.5557 5.99584H33.4397C34.5056 4.39937 35.526 3.30633 35.9977 2.8664ZM13.3115 45.5993H2.39924V10.7989C2.39924 10.1095 2.92082 9.60151 3.60567 9.60151H25.1943C26.8316 9.6378 26.8316 7.19773 25.1943 7.19773H3.60567C2.65127 7.20131 1.73692 7.58172 1.06163 8.25616C0.386337 8.9306 0.00477728 9.84448 0 10.7989V53.9989C0 55.9718 1.63276 57.5955 3.60567 57.5955H68.4034C69.3558 57.5907 70.2678 57.2102 70.9413 56.5368C71.6148 55.8633 71.9952 54.9513 72 53.9989V10.7989C71.9952 9.84646 71.6148 8.93442 70.9413 8.26096C70.2678 7.58749 69.3558 7.20704 68.4034 7.20227H46.8011C45.1684 7.16599 45.1684 9.60151 46.8011 9.60151H68.4034C69.0882 9.60151 69.5962 10.1095 69.5962 10.7989V45.5993H58.693C58.5055 44.5108 58.0706 43.48 57.4219 42.5861C56.7732 41.6923 55.928 40.9593 54.9513 40.4435C53.9747 39.9278 52.8927 39.6432 51.7887 39.6116C50.6847 39.5799 49.5881 39.8021 48.5836 40.261C48.1719 39.3474 47.5752 38.5291 46.8313 37.8577C46.0873 37.1864 45.2122 36.6766 44.2613 36.3606C44.1213 36.3127 43.9737 36.2912 43.8259 36.2971C42.4789 36.347 42.2249 38.2337 43.5084 38.6419C45.1276 39.1771 46.3884 40.5513 46.7195 42.3156C46.7586 42.5179 46.8491 42.7068 46.9822 42.8641C47.1154 43.0213 47.2867 43.1417 47.4799 43.2137C47.673 43.2857 47.8813 43.3068 48.0849 43.275C48.2885 43.2432 48.4805 43.1596 48.6425 43.0322C49.2663 42.5344 50.0052 42.2012 50.7913 42.0632C51.5773 41.9252 52.3855 41.9867 53.1416 42.2422C53.8977 42.4977 54.5776 42.939 55.1188 43.5255C55.66 44.112 56.0453 44.8251 56.2394 45.5993H15.7652C15.9589 44.8243 16.3442 44.1105 16.8857 43.5233C17.4273 42.9361 18.1077 42.4945 18.8645 42.2389C19.6213 41.9833 20.4302 41.922 21.2168 42.0607C22.0035 42.1993 22.7427 42.5333 23.3666 43.0322C23.5288 43.1596 23.7212 43.2431 23.9251 43.2746C24.129 43.3062 24.3376 43.2847 24.5308 43.2122C24.724 43.1398 24.8953 43.0188 25.0282 42.861C25.1611 42.7032 25.2511 42.5138 25.2896 42.3111C25.6207 40.5513 26.877 39.1771 28.5007 38.6374C29.7842 38.2337 29.5257 36.347 28.1832 36.2971C28.0354 36.2921 27.888 36.3136 27.7478 36.3606C26.796 36.676 25.92 37.1856 25.1752 37.857C24.4305 38.5283 23.8331 39.347 23.421 40.261C22.4162 39.8012 21.3192 39.5783 20.2146 39.6095C19.1101 39.6407 18.0274 39.9252 17.0502 40.441C16.073 40.9568 15.2272 41.6901 14.5782 42.5845C13.9292 43.4788 13.4988 44.5102 13.3115 45.5993ZM32.07 8.39962H39.9209C41.2564 10.9967 41.9662 13.87 41.9936 16.7902C41.9936 24.251 39.3131 28.1923 38.8823 28.7955H33.1132C32.6869 28.1968 30.0064 24.2555 30.0064 16.7947C30.0064 13.5111 30.9407 10.6764 32.0791 8.39962H32.07ZM35.9932 13.1981C35.0404 13.2017 34.1277 13.5818 33.454 14.2555C32.7803 14.9292 32.4002 15.8419 32.3966 16.7947C32.3966 18.7722 34.0157 20.4004 35.9932 20.4004C36.9476 20.3944 37.8613 20.0126 38.5362 19.3377C39.2111 18.6628 39.5929 17.7492 39.5989 16.7947C39.5917 15.8415 39.2093 14.9294 38.5343 14.2562C37.8594 13.583 36.9464 13.2029 35.9932 13.1981ZM35.9932 15.6019C36.1511 15.5988 36.308 15.6275 36.4546 15.6863C36.6012 15.745 36.7345 15.8327 36.8466 15.9439C36.9587 16.0552 37.0473 16.1878 37.1072 16.3339C37.167 16.4801 37.1969 16.6368 37.1951 16.7947C37.1951 17.475 36.669 18.0011 35.9932 18.0011C35.8345 18.0036 35.6769 17.974 35.5299 17.9142C35.383 17.8543 35.2496 17.7654 35.1378 17.6527C35.026 17.5401 34.9381 17.406 34.8793 17.2586C34.8205 17.1112 34.7922 16.9534 34.7958 16.7947C34.7958 16.1189 35.3129 15.6019 35.9932 15.6019ZM44.0073 21.4934C44.1978 21.7202 44.3883 21.9515 44.5969 22.2644C45.3226 23.3529 46.0664 24.9358 46.5335 27.6299C45.4684 26.7677 44.2495 26.1152 42.9415 25.7068C43.3542 24.4913 43.7397 23.108 44.0073 21.4934ZM27.9791 21.4934C28.2512 23.108 28.6322 24.4913 29.0449 25.7114C27.5845 26.1649 26.369 26.8906 25.4619 27.6299C25.9245 24.9358 26.6729 23.3484 27.394 22.2644C27.6026 21.9515 27.7886 21.7202 27.9791 21.4934ZM32.3966 33.5985C31.7979 33.5985 31.1992 33.9976 31.1992 34.7958C31.1992 40.261 35.3265 43.0004 35.3265 43.0004C35.5244 43.133 35.7572 43.2038 35.9955 43.2038C36.2337 43.2038 36.4665 43.133 36.6644 43.0004C36.6644 43.0004 40.7917 40.261 40.7917 34.7958C40.7917 33.9976 40.193 33.5985 39.5943 33.5985C38.9956 33.5985 38.3924 33.9976 38.3924 34.7958C38.3924 38.0795 36.4921 39.9209 35.9977 40.4198C35.4988 39.9209 33.5985 38.0795 33.5985 34.7958C33.5985 33.9976 32.9998 33.5985 32.3966 33.5985ZM2.39471 48.003H69.5917V53.9989C69.596 54.1569 69.5682 54.3142 69.5098 54.4611C69.4515 54.6081 69.3639 54.7416 69.2523 54.8536C69.1407 54.9656 69.0075 55.0537 68.8608 55.1126C68.7141 55.1715 68.5569 55.2 68.3989 55.1962H3.60567C3.44666 55.2012 3.28831 55.1737 3.14029 55.1154C2.99226 55.0571 2.85768 54.9693 2.74477 54.8572C2.63185 54.7451 2.54298 54.6112 2.48357 54.4636C2.42416 54.3161 2.39547 54.1579 2.39924 53.9989L2.39471 48.003ZM38.4605 50.4023H33.5395C32.0111 50.5837 32.1154 52.7516 33.5985 52.7924H38.4015C40.0479 52.9421 40.1839 50.434 38.465 50.4023H38.4605ZM29.2626 59.904C29.0271 59.8992 28.7954 59.9637 28.5962 60.0895C28.397 60.2153 28.2392 60.3968 28.1424 60.6115C27.5664 61.8497 26.5323 63.2965 24.7408 64.7977H22.7951C21.8423 64.8049 20.9307 65.1875 20.2582 65.8625C19.5857 66.5376 19.2066 67.4506 19.203 68.4034V70.7936C19.1985 71.4558 19.7337 71.9955 20.3958 72H51.5951C51.7533 72 51.91 71.9688 52.0561 71.9081C52.2022 71.8474 52.3349 71.7585 52.4466 71.6464C52.5582 71.5343 52.6467 71.4013 52.7068 71.2549C52.7669 71.1086 52.7976 70.9518 52.797 70.7936V68.4034C52.791 67.4497 52.4099 66.5368 51.7359 65.862C51.062 65.1872 50.1495 64.8049 49.1958 64.7977H47.2456C45.4632 63.301 44.4246 61.8497 43.844 60.6115C43.7845 60.458 43.6941 60.3183 43.5783 60.2012C43.4626 60.084 43.324 59.9919 43.1712 59.9306C43.0184 59.8692 42.8546 59.8399 42.69 59.8445C42.5253 59.8491 42.3634 59.8874 42.2142 59.9572C42.0651 60.027 41.9318 60.1266 41.8228 60.25C41.7137 60.3734 41.6312 60.5179 41.5803 60.6745C41.5294 60.8311 41.5113 60.9965 41.527 61.1605C41.5427 61.3244 41.5919 61.4834 41.6716 61.6275C42.1387 62.6253 42.8508 63.7047 43.8168 64.7977H28.1786C29.1402 63.7092 29.8568 62.6298 30.3239 61.6229C30.4113 61.4417 30.4517 61.2414 30.4416 61.0405C30.4314 60.8395 30.371 60.6444 30.2658 60.4728C30.1607 60.3013 30.0141 60.1589 29.8396 60.0588C29.6651 59.9586 29.4683 59.9038 29.2671 59.8995L29.2626 59.904ZM22.7951 67.197H49.1913C49.3507 67.1933 49.5093 67.2219 49.6574 67.2812C49.8054 67.3405 49.9399 67.4293 50.0527 67.542C50.1654 67.6548 50.2542 67.7893 50.3135 67.9374C50.3728 68.0854 50.4015 68.244 50.3977 68.4034V69.6008H21.5977V68.4034C21.5977 67.7186 22.1102 67.197 22.7951 67.197Z" fill="url(#paint0_linear_1_642)"/>
<defs>
<linearGradient id="paint0_linear_1_642" x1="73.4321" y1="72.1163" x2="19.4985" y2="8.3409" gradientUnits="userSpaceOnUse">
<stop stop-color="#31393C"/>
<stop offset="1" stop-color="#3D96F5"/>
</linearGradient>
</defs>
</svg>
