<svg width="56" height="56" viewBox="0 0 56 56" fill="none" xmlns="http://www.w3.org/2000/svg">
<path d="M25.907 47.2933C33.1017 46.0224 39.0441 44.9706 39.1124 44.9562L39.2364 44.9299L32.4439 36.8504C28.7081 32.4067 25.6514 28.7537 25.6514 28.7326C25.6514 28.6928 32.6653 9.37817 32.7047 9.30941C32.7179 9.28648 37.491 17.5272 44.2751 29.2854C50.6264 40.2937 55.8628 49.37 55.9115 49.4551L56 49.6097L34.4129 49.6069L12.8257 49.6042L25.907 47.2933ZM0 44.8295C0 44.8181 3.2006 39.2621 7.11243 32.4828L14.2249 20.1569L22.5136 13.201C27.0724 9.37523 30.8146 6.2404 30.8296 6.23452C30.8446 6.22896 30.7846 6.3799 30.6963 6.5701C30.608 6.76029 26.5578 15.4475 21.6959 25.875L12.8561 44.834L6.42805 44.8421C2.89262 44.8465 0 44.8408 0 44.8295Z" fill="#0089D6"/>
</svg>
