<svg width="57" height="57" viewBox="0 0 57 57" fill="none" xmlns="http://www.w3.org/2000/svg">
<path d="M28.7793 56C44.2433 56 56.7793 43.464 56.7793 28C56.7793 12.536 44.2433 0 28.7793 0C13.3153 0 0.779297 12.536 0.779297 28C0.779297 43.464 13.3153 56 28.7793 56Z" fill="#5C2D91"/>
<path opacity="0.1" d="M9.37189 7.875C6.52548 10.4115 4.22706 13.5025 2.61752 16.9587C1.00797 20.4148 0.121206 24.1633 0.0115785 27.9743C-0.098049 31.7853 0.57177 35.5785 1.97998 39.1215C3.38819 42.6644 5.50512 45.8825 8.20101 48.5784C10.8969 51.2743 14.115 53.3912 17.6579 54.7994C21.2009 56.2076 24.9941 56.8774 28.8051 56.7678C32.6161 56.6582 36.3646 55.7714 39.8207 54.1619C43.2769 52.5523 46.3679 50.2539 48.9044 47.4075L9.37189 7.875Z" fill="white"/>
<path d="M7.25339 32.5937C7.09006 32.5963 6.92797 32.5649 6.77736 32.5017C6.62675 32.4384 6.4909 32.3446 6.37839 32.2262C6.26279 32.112 6.17143 31.9756 6.10979 31.8253C6.04815 31.6749 6.01748 31.5137 6.01964 31.3512C6.01847 31.1888 6.04958 31.0279 6.11117 30.8777C6.17276 30.7275 6.26359 30.591 6.37839 30.4762C6.48979 30.3557 6.62524 30.26 6.77596 30.1952C6.92668 30.1304 7.08933 30.0979 7.25339 30.0999C7.4172 30.0995 7.57937 30.1327 7.72986 30.1974C7.88035 30.2621 8.01599 30.357 8.12839 30.4762C8.24516 30.59 8.33787 30.726 8.401 30.8764C8.46414 31.0267 8.4964 31.1882 8.49589 31.3512C8.49742 31.5144 8.46561 31.6761 8.40242 31.8266C8.33922 31.9771 8.24598 32.113 8.12839 32.2262C8.01492 32.3434 7.87889 32.4363 7.72851 32.4995C7.57812 32.5627 7.4165 32.5947 7.25339 32.5937Z" fill="white"/>
<path d="M24.6399 32.3751H22.3474L14.1487 19.6526C13.9444 19.3391 13.7743 19.0047 13.6412 18.6551H13.5712C13.6491 19.3815 13.6783 20.1123 13.6587 20.8426V32.3751H11.7949V16.4238H14.2187L22.1987 28.9188C22.5312 29.438 22.747 29.7938 22.8462 29.9863H22.8899C22.7976 29.2083 22.7596 28.4247 22.7762 27.6413V16.4238H24.6399V32.3751Z" fill="white"/>
<path d="M37.258 32.3751H28.7793V16.4238H36.8643V18.1126H30.6868V23.4151H36.4443V25.0951H30.6868V30.6251H37.2668L37.258 32.3751Z" fill="white"/>
<path d="M49.7796 18.1126H45.1421V32.3751H43.2784V18.1126H38.6934V16.4238H49.7796V18.1126Z" fill="white"/>
<path d="M23.6347 43.225C23.003 43.531 22.3062 43.6781 21.6047 43.6538C21.1386 43.6748 20.6734 43.5959 20.2403 43.4223C19.8071 43.2488 19.4161 42.9846 19.0935 42.6475C18.4506 41.9279 18.1118 40.9869 18.1485 40.0225C18.125 39.5004 18.2065 38.9789 18.3884 38.4888C18.5703 37.9988 18.8487 37.5504 19.2072 37.17C19.5566 36.8121 19.9766 36.5308 20.4406 36.344C20.9046 36.1572 21.4023 36.069 21.9022 36.085C22.5005 36.0646 23.0965 36.1689 23.6522 36.3913V37.2663C23.1172 36.9701 22.5138 36.8192 21.9022 36.8288C21.5167 36.8179 21.1334 36.8905 20.7785 37.0415C20.4236 37.1925 20.1055 37.4184 19.846 37.7038C19.3003 38.3255 19.0179 39.1351 19.0585 39.9613C19.0176 40.7439 19.281 41.5121 19.7935 42.105C20.0393 42.3694 20.3394 42.5774 20.6732 42.7148C21.007 42.8523 21.3666 42.9159 21.7272 42.9013C22.3991 42.9189 23.0626 42.7492 23.6435 42.4113L23.6347 43.225Z" fill="#F2F2F2"/>
<path d="M27.2121 43.6539C26.8638 43.6652 26.5172 43.6015 26.1956 43.4671C25.8741 43.3328 25.5851 43.1309 25.3484 42.8751C24.8699 42.3412 24.6215 41.64 24.6571 40.9239C24.6353 40.5487 24.6882 40.173 24.8129 39.8185C24.9376 39.464 25.1315 39.1378 25.3834 38.8589C25.6404 38.608 25.9462 38.4126 26.2819 38.2846C26.6175 38.1567 26.9758 38.099 27.3346 38.1151C27.6738 38.0971 28.0129 38.1526 28.3285 38.278C28.6442 38.4034 28.929 38.5956 29.1634 38.8414C29.6284 39.4019 29.863 40.1182 29.8196 40.8451C29.8564 41.583 29.6018 42.3057 29.1109 42.8576C28.8697 43.1183 28.5754 43.3243 28.2479 43.4617C27.9203 43.599 27.5671 43.6646 27.2121 43.6539ZM27.2734 38.8676C27.0327 38.8575 26.7928 38.9018 26.5716 38.9973C26.3504 39.0927 26.1536 39.2368 25.9959 39.4189C25.6592 39.8524 25.4913 40.3934 25.5234 40.9414C25.4928 41.4731 25.6613 41.9971 25.9959 42.4114C26.1553 42.5909 26.3526 42.7327 26.5735 42.8265C26.7945 42.9203 27.0335 42.9638 27.2734 42.9539C27.5082 42.9678 27.7431 42.9276 27.96 42.8366C28.1769 42.7456 28.37 42.6062 28.5246 42.4289C28.8428 41.9942 28.9976 41.4614 28.9621 40.9239C28.9967 40.3838 28.842 39.8485 28.5246 39.4101C28.3722 39.2292 28.1798 39.086 27.9627 38.9919C27.7456 38.8978 27.5097 38.8552 27.2734 38.8676Z" fill="#F2F2F2"/>
<path d="M33.9077 39.13C33.7187 39.0062 33.4943 38.9478 33.2689 38.9638C33.0926 38.9702 32.9206 39.0198 32.7681 39.1083C32.6155 39.1968 32.487 39.3215 32.3939 39.4713C32.1335 39.8836 32.0081 40.3668 32.0352 40.8538V43.5313H31.1602V38.2813H32.0352V39.375C32.1313 39.0366 32.3227 38.7329 32.5864 38.5C32.8146 38.302 33.1068 38.1932 33.4089 38.1938C33.578 38.1862 33.7471 38.2099 33.9077 38.2638V39.13Z" fill="#F2F2F2"/>
<path d="M39.0338 41.1251H35.3325C35.3077 41.6142 35.4669 42.0949 35.7788 42.4726C35.9409 42.6343 36.1355 42.76 36.3496 42.8415C36.5637 42.9229 36.7926 42.9582 37.0213 42.9451C37.6144 42.9392 38.1881 42.7325 38.6488 42.3588V43.1463C38.1078 43.5029 37.4671 43.6776 36.82 43.6451C36.4935 43.6616 36.1674 43.6058 35.8649 43.4818C35.5624 43.3577 35.291 43.1685 35.07 42.9276C34.6145 42.3594 34.3868 41.642 34.4313 40.9151C34.3998 40.1864 34.647 39.4731 35.1225 38.9201C35.3389 38.6701 35.6082 38.4713 35.9109 38.3381C36.2135 38.205 36.542 38.1407 36.8725 38.1501C37.1709 38.1333 37.4693 38.1845 37.7451 38.2997C38.021 38.4149 38.2671 38.5911 38.465 38.8151C38.8679 39.3463 39.0666 40.0046 39.025 40.6701L39.0338 41.1251ZM38.1588 40.4163C38.1765 40.0109 38.0528 39.6119 37.8088 39.2876C37.689 39.1523 37.5403 39.0458 37.3736 38.9761C37.2069 38.9064 37.0267 38.8753 36.8463 38.8851C36.658 38.8828 36.4712 38.9197 36.298 38.9935C36.1247 39.0673 35.9688 39.1764 35.84 39.3138C35.552 39.6185 35.3708 40.0085 35.3238 40.4251L38.1588 40.4163Z" fill="#F2F2F2"/>
</svg>
