<svg width="132" height="132" viewBox="0 0 132 132" fill="none" xmlns="http://www.w3.org/2000/svg">
<g filter="url(#filter0_d_3637_158)">
<circle cx="66" cy="66" r="54" fill="url(#paint0_linear_3637_158)"/>
<circle cx="66" cy="66" r="53" stroke="#9DC9F7" stroke-width="2"/>
</g>
<path fill-rule="evenodd" clip-rule="evenodd" d="M66.1113 66.8887C66.347 66.8887 66.5726 66.9828 66.7393 67.1494C66.9059 67.3161 66.9999 67.5417 67 67.7773V85.5557C66.9999 85.7913 66.9059 86.017 66.7393 86.1836C66.5726 86.3502 66.347 86.4443 66.1113 86.4443H43.8887C43.653 86.4443 43.4274 86.3502 43.2607 86.1836C43.0941 86.017 43.0001 85.7913 43 85.5557V67.7773C43.0001 67.5417 43.0941 67.3161 43.2607 67.1494C43.4274 66.9828 43.653 66.8887 43.8887 66.8887H66.1113ZM44.7773 84.666H65.2227V68.666H44.7773V84.666Z" fill="url(#paint1_linear_3637_158)"/>
<path fill-rule="evenodd" clip-rule="evenodd" d="M91 38C91.1698 38 91.3365 38.0491 91.4795 38.1406C91.6223 38.2321 91.7356 38.3626 91.8066 38.5166L97.1406 50.0723C97.1933 50.1865 97.2185 50.3103 97.2197 50.4355C97.2198 50.4385 97.2207 50.4414 97.2207 50.4443V56.7939C97.219 58.1742 96.6703 59.4976 95.6943 60.4736C95.3531 60.8149 94.9684 61.1023 94.5547 61.334V93.1104C94.5547 93.3461 94.4606 93.5726 94.2939 93.7393C94.1273 93.9057 93.9016 93.999 93.666 93.999H86.5732C86.5674 93.9991 86.5615 94 86.5557 94H71.4443C71.4385 94 71.4326 93.9991 71.4268 93.999H38.4746C38.2391 93.999 38.0133 93.9057 37.8467 93.7393C37.68 93.5726 37.5859 93.3461 37.5859 93.1104V61.2881C37.2028 61.0645 36.8454 60.7927 36.5264 60.4736C35.5504 59.4977 35.0017 58.1742 35 56.7939V50.4443C35 50.4352 35.0007 50.4261 35.001 50.417C35.0014 50.4036 35.0019 50.3903 35.0029 50.377C35.0047 50.354 35.0072 50.3312 35.0107 50.3086C35.0127 50.2958 35.0151 50.2832 35.0176 50.2705C35.0308 50.2044 35.0515 50.1403 35.0791 50.0791C35.0801 50.0768 35.081 50.0745 35.082 50.0723L40.415 38.5166C40.4862 38.3625 40.6002 38.2321 40.7432 38.1406C40.8862 38.0491 41.0528 38 41.2227 38H91ZM79.0635 59.6963C78.8772 59.9732 78.6642 60.2342 78.4248 60.4736C77.4488 61.4496 76.1253 61.9984 74.7451 62C73.3649 61.9983 72.0414 61.4496 71.0654 60.4736C70.8268 60.235 70.6145 59.9751 70.4287 59.6992C70.2429 59.975 70.0306 60.2351 69.792 60.4736C68.816 61.4496 67.4925 61.9984 66.1123 62C64.7321 61.9983 63.4086 61.4496 62.4326 60.4736C62.1932 60.2342 61.9802 59.9732 61.7939 59.6963C61.6077 59.9732 61.3947 60.2342 61.1553 60.4736C60.1793 61.4496 58.8558 61.9984 57.4756 62C56.0954 61.9983 54.7719 61.4496 53.7959 60.4736C53.5565 60.2342 53.3435 59.9732 53.1572 59.6963C52.971 59.9732 52.758 60.2342 52.5186 60.4736C51.5426 61.4496 50.2191 61.9984 48.8389 62C47.4587 61.9983 46.1351 61.4496 45.1592 60.4736C44.9206 60.235 44.7083 59.9751 44.5225 59.6992C44.3367 59.975 44.1243 60.2351 43.8857 60.4736C42.9098 61.4496 41.5863 61.9984 40.2061 62C39.9218 61.9997 39.6402 61.9744 39.3633 61.9287V92.2217H70.5557V68.2217C70.5557 67.9862 70.649 67.7603 70.8154 67.5938C70.9821 67.4271 71.2086 67.333 71.4443 67.333H86.5557C86.7913 67.333 87.0169 67.4271 87.1836 67.5938C87.3502 67.7604 87.4443 67.986 87.4443 68.2217V92.2217H92.7773V61.9424C92.5263 61.9798 92.2715 61.9997 92.0146 62C90.6344 61.9983 89.3109 61.4496 88.335 60.4736C88.0964 60.235 87.884 59.9751 87.6982 59.6992C87.5125 59.975 87.3001 60.2351 87.0615 60.4736C86.0855 61.4496 84.7621 61.9984 83.3818 62C82.0016 61.9983 80.6781 61.4496 79.7021 60.4736C79.4627 60.2342 79.2497 59.9732 79.0635 59.6963ZM72.333 92.2217H85.667V69.1113H72.333V92.2217ZM36.7773 56.7939C36.7774 57.7032 37.1393 58.5748 37.7822 59.2178C38.4251 59.8607 39.2968 60.2226 40.2061 60.2227C41.1153 60.2227 41.9879 59.8607 42.6309 59.2178C43.2644 58.5841 43.6236 57.728 43.6338 56.833C43.6337 56.82 43.6328 56.807 43.6328 56.7939V51.333H36.7773V56.7939ZM45.4121 56.7939C45.4121 56.8057 45.4112 56.8174 45.4111 56.8291C45.4203 57.7256 45.7804 58.5831 46.415 59.2178C47.058 59.8607 47.9296 60.2226 48.8389 60.2227C49.7481 60.2227 50.6207 59.8607 51.2637 59.2178C51.9064 58.5749 52.2676 57.703 52.2676 56.7939V51.333H45.4121V56.7939ZM54.0469 56.7939C54.0469 57.7032 54.4088 58.5748 55.0518 59.2178C55.6947 59.8607 56.5664 60.2226 57.4756 60.2227C58.3849 60.2227 59.2574 59.8607 59.9004 59.2178C60.5431 58.5749 60.9043 57.703 60.9043 56.7939V51.333H54.0469V56.7939ZM62.6836 56.7939C62.6836 57.7032 63.0456 58.5748 63.6885 59.2178C64.3314 59.8607 65.2031 60.2226 66.1123 60.2227C67.0216 60.2227 67.8942 59.8607 68.5371 59.2178C69.1715 58.5832 69.5308 57.7255 69.54 56.8291C69.5399 56.8174 69.5391 56.8057 69.5391 56.7939V51.333H62.6836V56.7939ZM71.3184 56.7939C71.3183 56.8057 71.3175 56.8174 71.3174 56.8291C71.3266 57.7256 71.6867 58.5831 72.3213 59.2178C72.9642 59.8607 73.8359 60.2226 74.7451 60.2227C75.6544 60.2227 76.527 59.8607 77.1699 59.2178C77.8126 58.5749 78.1738 57.703 78.1738 56.7939V51.333H71.3184V56.7939ZM79.9531 56.7939C79.9531 57.7032 80.3141 58.5748 80.957 59.2178C81.5999 59.8607 82.4717 60.2226 83.3809 60.2227C84.2901 60.2227 85.1627 59.8607 85.8057 59.2178C86.4438 58.5795 86.8034 57.7155 86.8086 56.8135V51.333H79.9531V56.7939ZM88.5879 56.7939C88.5879 56.8057 88.587 56.8174 88.5869 56.8291C88.5961 57.7256 88.9562 58.5831 89.5908 59.2178C90.2337 59.8607 91.1054 60.2226 92.0146 60.2227C92.9239 60.2227 93.7965 59.8607 94.4395 59.2178C95.0822 58.5749 95.4433 57.703 95.4434 56.7939V51.333H88.5879V56.7939ZM37.2783 49.5557H94.9443L90.4307 39.7773H41.791L37.2783 49.5557Z" fill="url(#paint2_linear_3637_158)"/>
<defs>
<filter id="filter0_d_3637_158" x="0" y="0" width="132" height="132" filterUnits="userSpaceOnUse" color-interpolation-filters="sRGB">
<feFlood flood-opacity="0" result="BackgroundImageFix"/>
<feColorMatrix in="SourceAlpha" type="matrix" values="0 0 0 0 0 0 0 0 0 0 0 0 0 0 0 0 0 0 127 0" result="hardAlpha"/>
<feOffset/>
<feGaussianBlur stdDeviation="6"/>
<feComposite in2="hardAlpha" operator="out"/>
<feColorMatrix type="matrix" values="0 0 0 0 0.358173 0 0 0 0 0.616204 0 0 0 0 0.891827 0 0 0 1 0"/>
<feBlend mode="normal" in2="BackgroundImageFix" result="effect1_dropShadow_3637_158"/>
<feBlend mode="normal" in="SourceGraphic" in2="effect1_dropShadow_3637_158" result="shape"/>
</filter>
<linearGradient id="paint0_linear_3637_158" x1="12" y1="15.5" x2="120" y2="120" gradientUnits="userSpaceOnUse">
<stop stop-color="white"/>
<stop offset="1" stop-color="#9DC9F7"/>
</linearGradient>
<linearGradient id="paint1_linear_3637_158" x1="66.1104" y1="38" x2="66.1104" y2="94" gradientUnits="userSpaceOnUse">
<stop stop-color="#184D85"/>
<stop offset="1" stop-color="#31393C"/>
</linearGradient>
<linearGradient id="paint2_linear_3637_158" x1="66.1104" y1="38" x2="66.1104" y2="94" gradientUnits="userSpaceOnUse">
<stop stop-color="#184D85"/>
<stop offset="1" stop-color="#31393C"/>
</linearGradient>
</defs>
</svg>
