<svg width="56" height="56" viewBox="0 0 56 56" fill="none" xmlns="http://www.w3.org/2000/svg">
<rect width="56" height="56" rx="8" fill="#F0F7FF"/>
<path d="M28.0013 12C28.2035 12.0001 28.4009 12.0614 28.5677 12.1758L43.5677 22.5091C43.7011 22.6012 43.8102 22.7249 43.8854 22.8685C43.9606 23.012 44.0002 23.1714 44 23.3333V42.6667C44 43.0203 43.8594 43.3593 43.6094 43.6094C43.3593 43.8594 43.0203 44 42.6667 44H40V28C40 27.6464 39.8594 27.3073 39.6094 27.0573C39.3593 26.8072 39.0203 26.6667 38.6667 26.6667H17.3333C16.9797 26.6667 16.6407 26.8072 16.3906 27.0573C16.1406 27.3073 16 27.6464 16 28V44H13.3333C12.9797 44 12.6407 43.8594 12.3906 43.6094C12.1406 43.3593 12 43.0203 12 42.6667V23.3333C11.9999 23.1711 12.0391 23.0108 12.1146 22.8672C12.1901 22.7238 12.3 22.6009 12.4336 22.5091L27.4336 12.1758C27.6005 12.0613 27.7989 12 28.0013 12Z" fill="#3E96F4"/>
<path d="M22.3333 37.3333V38.3333C22.3333 38.5986 22.4388 38.8528 22.6263 39.0404C22.8138 39.2279 23.0681 39.3333 23.3333 39.3333C23.5985 39.3333 23.8528 39.2279 24.0404 39.0404C24.2279 38.8528 24.3333 38.5986 24.3333 38.3333V37.3333H26.6667C26.8435 37.3333 27.013 37.4036 27.138 37.5286C27.263 37.6537 27.3333 37.8232 27.3333 38V43.3333C27.3333 43.5101 27.263 43.6797 27.138 43.8047C27.013 43.9297 26.8435 44 26.6667 44H20C19.8232 44 19.6537 43.9297 19.5286 43.8047C19.4036 43.6797 19.3333 43.5101 19.3333 43.3333V38C19.3333 37.8232 19.4036 37.6537 19.5286 37.5286C19.6537 37.4036 19.8232 37.3333 20 37.3333H22.3333Z" fill="#3E96F4"/>
<path d="M31.6667 37.3333V38.3333C31.6667 38.5986 31.7721 38.8528 31.9596 39.0404C32.1472 39.2279 32.4015 39.3333 32.6667 39.3333C32.9319 39.3333 33.1862 39.2279 33.3737 39.0404C33.5612 38.8528 33.6667 38.5986 33.6667 38.3333V37.3333H36C36.1768 37.3333 36.3463 37.4036 36.4714 37.5286C36.5964 37.6537 36.6667 37.8232 36.6667 38V43.3333C36.6667 43.5101 36.5964 43.6797 36.4714 43.8047C36.3463 43.9297 36.1768 44 36 44H29.3333C29.1565 44 28.987 43.9297 28.862 43.8047C28.737 43.6797 28.6667 43.5101 28.6667 43.3333V38C28.6667 37.8232 28.737 37.6537 28.862 37.5286C28.987 37.4036 29.1565 37.3333 29.3333 37.3333H31.6667Z" fill="#3E96F4"/>
<path d="M27 29.3333V30.3333C27 30.5986 27.1054 30.8528 27.293 31.0404C27.4805 31.2279 27.7348 31.3333 28 31.3333C28.2652 31.3333 28.5195 31.2279 28.707 31.0404C28.8946 30.8528 29 30.5986 29 30.3333V29.3333H31.3333C31.5101 29.3333 31.6797 29.4036 31.8047 29.5286C31.9297 29.6537 32 29.8232 32 30V35.3333C32 35.5101 31.9297 35.6797 31.8047 35.8047C31.6797 35.9297 31.5101 36 31.3333 36H24.6667C24.4899 36 24.3203 35.9297 24.1953 35.8047C24.0703 35.6797 24 35.5101 24 35.3333V30C24 29.8232 24.0703 29.6537 24.1953 29.5286C24.3203 29.4036 24.4899 29.3333 24.6667 29.3333H27Z" fill="#3E96F4"/>
</svg>
