<svg width="64" height="64" viewBox="0 0 64 64" fill="none" xmlns="http://www.w3.org/2000/svg">
<rect width="64" height="64" fill="#EDF5FC"/>
<path d="M43.0193 38.2736C41.9688 37.2231 40.3967 37.0321 39.1405 37.6713L37.7668 36.2975C38.6898 35.0549 39.1883 33.548 39.1883 32C39.1883 30.452 38.6898 28.9451 37.7668 27.7025L39.1405 26.3287C39.7678 26.6509 40.481 26.7662 41.1778 26.6579C41.8746 26.5497 42.5193 26.2236 43.0193 25.7264C44.3269 24.4187 44.3269 22.2883 43.0193 20.9807C41.7117 19.6731 39.5813 19.6731 38.2736 20.9807C37.2231 22.0312 37.0321 23.6033 37.6713 24.8595L36.2975 26.2332C35.0549 25.3102 33.548 24.8117 32 24.8117C30.452 24.8117 28.9451 25.3102 27.7025 26.2332L26.3287 24.8595C26.6509 24.2322 26.7662 23.519 26.6579 22.8222C26.5497 22.1254 26.2236 21.4807 25.7264 20.9807C24.4187 19.6731 22.2883 19.6731 20.9807 20.9807C19.6731 22.2883 19.6731 24.4187 20.9807 25.7264C22.0312 26.7769 23.6033 26.9679 24.8595 26.3287L26.2332 27.7025C25.3102 28.9451 24.8117 30.452 24.8117 32C24.8117 33.548 25.3102 35.0549 26.2332 36.2975L24.8595 37.6713C24.2322 37.3491 23.519 37.2338 22.8222 37.3421C22.1254 37.4503 21.4807 37.7764 20.9807 38.2736C19.6731 39.5813 19.6731 41.7117 20.9807 43.0193C22.2883 44.3269 24.4187 44.3269 25.7264 43.0193C26.7769 41.9688 26.9679 40.3967 26.3287 39.1405L27.7025 37.7668C28.9451 38.6898 30.452 39.1883 32 39.1883C33.548 39.1883 35.0549 38.6898 36.2975 37.7668L37.6713 39.1405C37.3491 39.7678 37.2338 40.481 37.3421 41.1778C37.4503 41.8746 37.7764 42.5193 38.2736 43.0193C39.5813 44.3269 41.7117 44.3269 43.0193 43.0193C44.3269 41.7117 44.3269 39.5813 43.0193 38.2736Z" fill="#3E96F4"/>
</svg>
