<svg width="43" height="43" viewBox="0 0 43 43" fill="none" xmlns="http://www.w3.org/2000/svg">
<path d="M11.9696 40.5847C12.3439 40.6037 12.6414 40.9132 12.6415 41.2921C12.6414 41.6711 12.3439 41.9806 11.9696 41.9996L11.9331 42.0005H1.68402C1.29282 42.0005 0.975685 41.6833 0.975668 41.2921C0.975686 40.9009 1.29282 40.5838 1.68402 40.5838H11.9331L11.9696 40.5847Z" fill="#3E96F4"/>
<path fill-rule="evenodd" clip-rule="evenodd" d="M37.1198 19.7236C37.7594 19.1156 38.771 19.1254 39.3987 19.753L41.9353 22.2897L41.9647 22.3199C42.5631 22.9494 42.5631 23.9391 41.9647 24.5685L41.9353 24.5987L27.1374 39.3967C27.0672 39.4669 26.9831 39.5216 26.8904 39.5571L20.6504 41.9533C20.3892 42.0536 20.0934 41.9907 19.8955 41.7929C19.6977 41.595 19.6349 41.2993 19.7351 41.0381L22.1313 34.798L22.1455 34.7637C22.1807 34.6845 22.2303 34.6124 22.2917 34.551L37.0896 19.753L37.1198 19.7236ZM23.3998 35.4464L21.6281 40.0602L26.2421 38.2885L38.3045 26.226L35.4623 23.3838L23.3998 35.4464ZM38.3969 20.7548C38.3178 20.6757 38.1926 20.6707 38.1078 20.7399L38.0914 20.7548L36.4641 22.3821L39.3063 25.2242L40.9335 23.597L40.9484 23.5805C41.0129 23.5014 41.0129 23.3871 40.9484 23.3079L40.9335 23.2915L38.3969 20.7548Z" fill="#3E96F4"/>
<path d="M16.7049 35.2576C17.0792 35.2766 17.3768 35.586 17.3768 35.965C17.3768 36.344 17.0791 36.6535 16.7049 36.6724L16.6685 36.6734H1.68402C1.29283 36.6734 0.9757 36.3562 0.975668 35.965C0.975668 35.5738 1.29281 35.2567 1.68402 35.2567H16.6685L16.7049 35.2576Z" fill="#3E96F4"/>
<path d="M21.2527 29.9304C21.627 29.9493 21.9246 30.2588 21.9246 30.6378C21.9246 31.0167 21.627 31.3262 21.2527 31.3452L21.2162 31.3461H1.68402C1.29282 31.3461 0.975685 31.029 0.975668 30.6378C0.975668 30.2466 1.29281 29.9294 1.68402 29.9294H21.2162L21.2527 29.9304Z" fill="#3E96F4"/>
<path d="M34.1216 0.000488281C36.7915 0.000488281 38.9559 2.16493 38.956 4.83472V16.2234C38.956 16.6146 38.6388 16.9318 38.2476 16.9318C37.8564 16.9318 37.5392 16.6146 37.5392 16.2234V4.83472C37.5392 2.94733 36.0091 1.41719 34.1216 1.41719H22.7328C20.8454 1.41723 19.3153 2.94728 19.3153 4.83472V16.2235C19.3153 18.1109 20.8453 19.6411 22.7328 19.6412H31.4003L31.4367 19.6421C31.811 19.661 32.1086 19.9705 32.1086 20.3495C32.1086 20.7285 31.811 21.038 31.4367 21.0569L31.4003 21.0579H22.7328C22.4914 21.0579 22.2542 21.0401 22.0223 21.0059C21.921 23.5864 19.797 25.6472 17.1918 25.6472H5.80298C3.13308 25.6472 0.968769 23.4827 0.96875 20.8129V9.42417C0.968772 6.75426 3.13319 4.58997 5.80298 4.58994H15.6633L15.6997 4.59086C16.074 4.60982 16.3717 4.91929 16.3717 5.29829C16.3716 5.67727 16.074 5.98676 15.6997 6.00572L15.6633 6.00664H5.80298C3.9156 6.00668 2.38548 7.53671 2.38546 9.42417V20.8129C2.38548 22.7003 3.91552 24.2305 5.80298 24.2305H17.1918C19.0792 24.2305 20.6094 22.7004 20.6094 20.8129C20.6094 20.7335 20.6227 20.6571 20.6468 20.5858C19.0212 19.807 17.8986 18.1463 17.8986 16.2235V4.83472C17.8986 2.16483 20.063 0.000525278 22.7328 0.000488281H34.1216Z" fill="#3E96F4"/>
<path d="M7.29966 14.3714C7.27447 14.4847 7.2461 14.6075 7.21462 14.7398C7.18314 14.872 7.15797 15.0011 7.13908 15.127C7.12019 15.2466 7.11076 15.3568 7.11076 15.4575C7.11076 15.6905 7.19258 15.8983 7.35629 16.0809C7.52629 16.2572 7.80341 16.3957 8.1875 16.4965C8.57158 16.5909 9.08786 16.6381 9.73637 16.6381L9.74108 16.6637L9.74588 16.6381C10.1992 16.6381 10.6337 16.6161 11.0492 16.572C11.4711 16.5279 11.8709 16.4398 12.2487 16.3076C12.6328 16.1753 12.9917 15.9801 13.3254 15.722C13.6591 15.4638 13.9614 15.1175 14.2321 14.683L15.2898 15.1648C15.2521 15.2844 15.2206 15.4009 15.1954 15.5143C15.1702 15.6213 15.1577 15.7094 15.1577 15.7787C15.1577 15.9235 15.1923 16.0494 15.2615 16.1565C15.3371 16.2635 15.463 16.3453 15.6393 16.402C15.8156 16.4587 16.0581 16.487 16.3666 16.487C16.6058 16.487 16.7759 16.55 16.8766 16.6759C16.9774 16.7956 17.0277 16.9467 17.0277 17.1293C17.0277 17.3245 16.9616 17.4882 16.8294 17.6204C16.7035 17.7463 16.5177 17.8093 16.2721 17.8093C15.8377 17.8093 15.4599 17.7494 15.1388 17.6298C14.8239 17.5102 14.5752 17.3433 14.3926 17.1293C14.2911 17.0024 14.2138 16.865 14.1603 16.7173C13.9968 16.8619 13.8131 16.993 13.6087 17.1104C13.275 17.3055 12.8941 17.4662 12.4659 17.5921C12.0441 17.718 11.5813 17.8093 11.0775 17.8659C10.5801 17.9289 10.0543 17.9604 9.50026 17.9604L9.50164 17.9528L9.49085 17.9604C8.81084 17.9604 8.23472 17.9068 7.76249 17.7998C7.29655 17.6991 6.91555 17.5543 6.61962 17.3654C6.32999 17.1702 6.11903 16.9435 5.98681 16.6853C5.85459 16.4272 5.7885 16.1438 5.7885 15.8353C5.78851 15.6339 5.80425 15.4324 5.83573 15.2309C5.87351 15.0231 5.91762 14.8216 5.96799 14.6264C6.02465 14.4312 6.075 14.2549 6.11907 14.0975L7.29966 14.3714Z" fill="#3E96F4"/>
<path fill-rule="evenodd" clip-rule="evenodd" d="M28.4273 5.40343C28.7156 5.40345 28.9751 5.57809 29.0836 5.84514L32.6727 14.6801L32.6855 14.7142C32.8088 15.0681 32.6342 15.4603 32.283 15.603C31.9319 15.7456 31.5332 15.5864 31.3747 15.2468L31.3602 15.2133L30.374 12.7857H26.4805L25.4943 15.2133L25.4797 15.2468C25.3213 15.5864 24.9225 15.7456 24.5714 15.603C24.209 15.4557 24.0345 15.0425 24.1817 14.6801L25.3486 11.8075C25.3497 11.8049 25.3507 11.8023 25.3518 11.7997L27.771 5.84514L27.7816 5.82042C27.8957 5.56736 28.1481 5.40344 28.4273 5.40343ZM27.0561 11.369H29.7985L28.4272 7.99372L27.0561 11.369Z" fill="#3E96F4"/>
<path d="M11.2475 12.3219C11.4238 12.3219 11.5749 12.388 11.7009 12.5203C11.8268 12.6525 11.8898 12.8099 11.8898 12.9925C11.8897 13.1688 11.8268 13.323 11.7009 13.4552C11.5749 13.5812 11.4238 13.6441 11.2475 13.6441C11.0649 13.6441 10.9075 13.5812 10.7753 13.4552C10.6494 13.323 10.5864 13.1688 10.5864 12.9925C10.5864 12.8099 10.6494 12.6525 10.7753 12.5203C10.9075 12.388 11.0649 12.3219 11.2475 12.3219Z" fill="#3E96F4"/>
<path d="M9.61361 12.3125C9.7899 12.3125 9.94102 12.3786 10.0669 12.5108C10.1929 12.643 10.2558 12.8004 10.2558 12.983C10.2558 13.1593 10.1929 13.3136 10.0669 13.4458C9.94101 13.5718 9.78991 13.6347 9.61361 13.6347C9.43102 13.6347 9.2736 13.5718 9.14138 13.4458C9.01545 13.3136 8.95248 13.1593 8.95248 12.983C8.95249 12.8004 9.01546 12.643 9.14138 12.5108C9.2736 12.3786 9.43102 12.3125 9.61361 12.3125Z" fill="#3E96F4"/>
</svg>
