<svg width="69" height="64" viewBox="0 0 69 64" fill="none" xmlns="http://www.w3.org/2000/svg">
<path d="M36.4135 44.1379H31.9997C30.7826 44.1379 29.7928 43.1481 29.7928 41.931C29.7928 40.7139 30.7826 39.7241 31.9997 39.7241H36.4135C37.6306 39.7241 38.6204 40.7139 38.6204 41.931H40.8273C40.8273 39.4968 38.8477 37.5172 36.4135 37.5172H35.31V35.3103H33.1031V37.5172H31.9997C29.5655 37.5172 27.5859 39.4968 27.5859 41.931C27.5859 44.3652 29.5655 46.3448 31.9997 46.3448H36.4135C37.6306 46.3448 38.6204 47.3346 38.6204 48.5517C38.6204 49.7688 37.6306 50.7586 36.4135 50.7586H31.9997C30.7826 50.7586 29.7928 49.7688 29.7928 48.5517H27.5859C27.5859 50.9859 29.5655 52.9655 31.9997 52.9655H33.1031V55.1724H35.31V52.9655H36.4135C38.8477 52.9655 40.8273 50.9859 40.8273 48.5517C40.8273 46.1175 38.8477 44.1379 36.4135 44.1379Z" fill="url(#paint0_linear_1_1087)"/>
<path d="M49.6549 0C43.4734 0 37.6825 3.08524 34.2011 8.13352C30.8147 3.22648 25.1584 0 18.7584 0C8.41465 0 -0.000244141 8.4149 -0.000244141 18.7586C-0.000244141 28.5661 7.56831 36.6268 17.1705 37.4367C16.0759 39.8168 15.448 42.4541 15.448 45.2414C15.448 55.5851 23.8629 64 34.2067 64C38.125 64 41.89 62.7895 45.0944 60.4988L43.8111 58.7034C40.984 60.725 37.6627 61.7931 34.2067 61.7931C25.08 61.7931 17.6549 54.368 17.6549 45.2414C17.6549 36.1148 25.08 28.6897 34.2067 28.6897C43.3333 28.6897 50.7584 36.1148 50.7584 45.2414C50.7584 49.1686 49.3493 52.981 46.7893 55.9768L48.4676 57.4102C51.3675 54.0149 52.9653 49.6927 52.9653 45.2414C52.9653 42.4574 52.3396 39.8234 51.2472 37.4455C54.5884 37.163 57.7752 35.9945 60.5427 34.016L59.2593 32.2207C56.5493 34.1583 53.3835 35.2088 50.082 35.2938C47.0287 30.4386 41.826 27.0764 35.8089 26.5644C36.9244 24.1258 37.517 21.4621 37.517 18.7586C37.517 15.6966 36.7644 12.8132 35.458 10.2577C38.4428 5.28662 43.853 2.2069 49.6549 2.2069C58.7815 2.2069 66.2066 9.632 66.2066 18.7586C66.2066 22.6858 64.7975 26.4982 62.2375 29.4941L63.9159 30.9274C66.8158 27.5321 68.4136 23.2099 68.4136 18.7586C68.4136 8.4149 59.9986 0 49.6549 0ZM33.368 26.5258C27.0342 26.8072 21.517 30.2323 18.3347 35.2894C9.40444 35.061 2.20665 27.7418 2.20665 18.7586C2.20665 9.632 9.63176 2.2069 18.7584 2.2069C27.885 2.2069 35.3101 9.632 35.3101 18.7586C35.3101 21.4753 34.6348 24.1446 33.368 26.5258Z" fill="url(#paint1_linear_1_1087)"/>
<path d="M49.6549 26.4828C47.8298 26.4828 46.3445 24.9975 46.3445 23.1724V22.069H48.5514V19.8621H46.3445V17.6552H48.5514V15.4483H46.3445V14.3448C46.3445 12.5197 47.8298 11.0345 49.6549 11.0345C51.48 11.0345 52.9652 12.5197 52.9652 14.3448H55.1721C55.1721 11.3026 52.6971 8.82758 49.6549 8.82758C46.6127 8.82758 44.1376 11.3026 44.1376 14.3448V15.4483H41.9307V17.6552H44.1376V19.8621H41.9307V22.069H44.1376V23.1724C44.1376 26.2146 46.6127 28.6897 49.6549 28.6897C52.6971 28.6897 55.1721 26.2146 55.1721 23.1724H52.9652C52.9652 24.9975 51.48 26.4828 49.6549 26.4828ZM19.8618 16.96L26.2165 9.54593L24.5415 8.10924L18.7583 14.8557L12.9751 8.10924L11.3001 9.54593L17.6549 16.96V19.8621H15.448V22.069H17.6549V24.2759H15.448V26.4828H17.6549V27.5862H19.8618V26.4828H22.0687V24.2759H19.8618V22.069H22.0687V19.8621H19.8618V16.96Z" fill="url(#paint2_linear_1_1087)"/>
<defs>
<linearGradient id="paint0_linear_1_1087" x1="11.3058" y1="9.61239" x2="52.1287" y2="54.5828" gradientUnits="userSpaceOnUse">
<stop stop-color="#FE5B52"/>
<stop offset="1" stop-color="#3E96F4"/>
</linearGradient>
<linearGradient id="paint1_linear_1_1087" x1="11.3058" y1="9.61239" x2="52.1287" y2="54.5828" gradientUnits="userSpaceOnUse">
<stop stop-color="#FE5B52"/>
<stop offset="1" stop-color="#3E96F4"/>
</linearGradient>
<linearGradient id="paint2_linear_1_1087" x1="11.3058" y1="9.61239" x2="52.1287" y2="54.5828" gradientUnits="userSpaceOnUse">
<stop stop-color="#FE5B52"/>
<stop offset="1" stop-color="#3E96F4"/>
</linearGradient>
</defs>
</svg>
