<svg width="42" height="42" viewBox="0 0 42 42" fill="none" xmlns="http://www.w3.org/2000/svg">
<path d="M28.4708 17.5612C27.688 16.4609 26.6724 15.5464 25.4963 14.8829C24.7049 14.4336 23.8507 14.1053 22.9621 13.9089C21.6707 13.629 20.3344 13.6287 19.0429 13.908C18.1502 14.104 17.292 14.4328 16.4969 14.8834C15.3195 15.5519 14.3036 16.4712 13.5211 17.5761C13.0498 18.2343 12.6682 18.9523 12.3863 19.7111C12.0171 20.7222 11.8286 21.7903 11.8295 22.8667C11.8295 23.2234 11.8493 23.5563 11.8918 23.9062C11.964 24.5529 12.1054 25.1923 12.314 25.8096C12.8026 27.2388 13.6343 28.5264 14.7362 29.5594C15.1106 29.9148 15.526 30.2409 15.9627 30.5235C17.2586 31.3817 18.7532 31.8926 20.3032 32.0074L20.3542 32.0119C20.5326 32.03 20.7426 32.039 20.9973 32.039C21.2502 32.039 21.461 32.03 21.6385 32.0124L21.7144 32.0056C23.2652 31.8875 24.7599 31.3735 26.0553 30.5127C26.4902 30.2296 26.8982 29.9072 27.2741 29.5495C28.3718 28.5198 29.1998 27.2364 29.6855 25.8119C29.9014 25.1733 30.0368 24.5465 30.11 23.8565C30.1502 23.5535 30.1705 23.2198 30.1705 22.8667C30.1705 21.7843 29.9844 20.7263 29.6155 19.7165C29.3303 18.9511 28.9454 18.2261 28.4708 17.5612ZM28.7648 23.6962C28.7077 24.268 28.5862 24.8316 28.4026 25.3761C27.9882 26.5911 27.2817 27.6857 26.3452 28.5637C26.0266 28.867 25.6808 29.1403 25.312 29.3802C24.2048 30.1168 22.9267 30.5561 21.6006 30.6559L21.508 30.664C21.1677 30.6927 20.8255 30.6927 20.4852 30.664L20.4161 30.6572C19.091 30.5605 17.8132 30.1242 16.7055 29.3906C16.334 29.1512 15.9856 28.8776 15.6651 28.5732C14.7245 27.6919 14.0144 26.5933 13.5969 25.3738C13.4193 24.8473 13.2989 24.3032 13.2379 23.7509C13.2018 23.4575 13.1838 23.1623 13.1842 22.8667C13.1842 21.9441 13.344 21.0378 13.657 20.1799C13.8977 19.5337 14.2231 18.9224 14.6247 18.3618C15.2921 17.4183 16.159 16.6332 17.1639 16.0624C17.8406 15.679 18.5709 15.3989 19.3305 15.2315C19.8783 15.1134 20.437 15.0536 20.9973 15.0532C21.5527 15.0532 22.1185 15.1141 22.6749 15.2324C23.4227 15.3977 24.1479 15.6763 24.8307 16.0633C25.8337 16.6287 26.6998 17.4082 27.3671 18.3465C27.7736 18.9164 28.1032 19.5364 28.3448 20.1853C28.658 21.0445 28.8174 21.9522 28.8158 22.8667C28.8158 23.1611 28.7991 23.4343 28.7648 23.6962Z" fill="#3E96F4"/>
<path d="M41.8126 34.3939L33.8604 8.94292C33.6071 8.12244 33.0969 7.40504 32.405 6.89642C31.7132 6.38781 30.8762 6.11489 30.0175 6.11789H23.8762C24.4325 5.44904 24.7368 4.6063 24.736 3.7363C24.736 1.67623 23.0602 0 21.0001 0C18.94 0 17.2643 1.67623 17.2643 3.7363C17.2643 4.6408 17.5876 5.47034 18.124 6.11789H11.9827C11.124 6.11489 10.287 6.38781 9.59517 6.89642C8.90331 7.40504 8.39313 8.12244 8.1398 8.94292L0.187628 34.3935C-0.00401973 34.9958 -0.0496711 35.635 0.0544427 36.2585C0.158556 36.8819 0.40945 37.4716 0.786412 37.979C1.1583 38.49 1.64635 38.9053 2.21032 39.1907C2.77429 39.476 3.39802 39.6231 4.03005 39.62H37.9702C38.6022 39.6231 39.226 39.4759 39.7899 39.1904C40.3539 38.905 40.842 38.4896 41.2138 37.9785C41.5906 37.4713 41.8414 36.8817 41.9455 36.2584C42.0496 35.6352 42.0041 34.9961 41.8126 34.3939ZM18.619 3.73675C18.619 2.42313 19.6869 1.35471 21.0001 1.35471C22.3133 1.35471 23.3812 2.42313 23.3812 3.7363C23.3812 5.04947 22.3133 6.11834 21.0001 6.11834C19.6869 6.11834 18.619 5.04992 18.619 3.73675ZM40.1223 37.1765C39.8756 37.5156 39.5517 37.7911 39.1775 37.9804C38.8033 38.1697 38.3895 38.2673 37.9702 38.2653H4.03005C3.6107 38.2673 3.19687 38.1697 2.82268 37.9804C2.44848 37.7911 2.12464 37.5156 1.87786 37.1765C1.62788 36.8398 1.46148 36.4486 1.39239 36.035C1.3233 35.6214 1.35349 35.1973 1.48048 34.7976L9.43265 9.34708C9.60072 8.80271 9.9392 8.32672 10.3982 7.98925C10.8572 7.65177 11.4125 7.47066 11.9822 7.4726H30.018C30.5876 7.47073 31.1427 7.65182 31.6016 7.9892C32.0605 8.32658 32.399 8.80241 32.5671 9.34662L40.5193 34.7976C40.6463 35.1973 40.6765 35.6214 40.6074 36.035C40.5383 36.4486 40.3723 36.8398 40.1223 37.1765Z" fill="#3E96F4"/>
</svg>
