<svg width="18" height="16" viewBox="0 0 18 16" fill="none" xmlns="http://www.w3.org/2000/svg">
<path fill-rule="evenodd" clip-rule="evenodd" d="M14.881 16C14.8328 15.9977 14.7847 15.9943 14.7367 15.9897H3.28305C2.75694 16.0161 2.23345 15.9001 1.76774 15.654C1.30204 15.4078 0.911379 15.0405 0.636949 14.5908C0.362519 14.1412 0.214482 13.6258 0.208444 13.0991C0.202406 12.5724 0.338591 12.0538 0.602642 11.5979L6.47893 1.46392C6.98409 0.546392 7.94285 0 9.0047 0C10.0666 0 11.0356 0.536082 11.5511 1.45361L17.4068 11.5979C17.6601 12.0428 17.7927 12.5461 17.7916 13.0581C17.7905 13.57 17.6556 14.0727 17.4004 14.5165C17.1452 14.9602 16.7785 15.3296 16.3366 15.588C15.8947 15.8464 15.3929 15.9849 14.881 15.9897V16Z" fill="#FCBE37"/>
<path fill-rule="evenodd" clip-rule="evenodd" d="M10.0253 14.1856H7.99437C7.86586 14.1856 7.74262 14.1345 7.65175 14.0436C7.56088 13.9528 7.50983 13.8295 7.50983 13.701V12.0206C7.50983 11.7526 7.71602 11.5361 7.99437 11.5361H10.0253C10.2933 11.5361 10.5098 11.7526 10.5098 12.0206V13.701C10.5098 13.9691 10.2933 14.1856 10.0253 14.1856ZM10.0253 10.8866H7.99437C7.87104 10.8868 7.75227 10.8401 7.66224 10.7558C7.57221 10.6715 7.5177 10.5561 7.50983 10.433L7.16963 4.04123C7.164 3.97592 7.17168 3.91015 7.19221 3.8479C7.21273 3.78564 7.24568 3.7282 7.28905 3.67905C7.33242 3.62989 7.38531 3.59005 7.44453 3.56193C7.50374 3.53382 7.56804 3.518 7.63354 3.51546H10.3552C10.4215 3.51532 10.4872 3.5288 10.548 3.55506C10.6089 3.58132 10.6638 3.61981 10.7092 3.66813C10.7547 3.71645 10.7897 3.77358 10.8121 3.83599C10.8346 3.89839 10.844 3.96474 10.8397 4.03092L10.4995 10.433C10.4917 10.5561 10.4371 10.6715 10.3471 10.7558C10.2571 10.8401 10.1383 10.8868 10.015 10.8866H10.0253Z" fill="#FCAB32"/>
<path fill-rule="evenodd" clip-rule="evenodd" d="M10.024 13.9071C10.0787 13.9071 10.1312 13.8854 10.1698 13.8467C10.2085 13.808 10.2302 13.7556 10.2302 13.7009V12.0205C10.2302 11.9658 10.2085 11.9134 10.1698 11.8747C10.1312 11.836 10.0787 11.8143 10.024 11.8143H7.99311C7.93842 11.8143 7.88598 11.836 7.84731 11.8747C7.80864 11.9134 7.78692 11.9658 7.78692 12.0205V13.7009C7.78692 13.8143 7.87971 13.9071 7.99311 13.9071H10.024ZM10.024 10.6184C10.0787 10.6184 10.1312 10.5967 10.1698 10.558C10.2085 10.5194 10.2302 10.4669 10.2302 10.4122L10.5704 4.02049C10.5733 3.99173 10.5701 3.96269 10.5611 3.93524C10.552 3.90779 10.5373 3.88256 10.5178 3.86117C10.4984 3.83979 10.4747 3.82273 10.4482 3.8111C10.4218 3.79947 10.3931 3.79354 10.3642 3.79368H7.64259C7.61463 3.79365 7.58694 3.7993 7.56123 3.8103C7.53552 3.82131 7.51231 3.83742 7.49303 3.85767C7.47374 3.87792 7.45877 3.90189 7.44904 3.92811C7.43931 3.95432 7.43501 3.98225 7.43641 4.01018L7.78692 10.4226C7.78692 10.5256 7.89001 10.6184 7.99311 10.6184H10.024Z" fill="#FBFBFB"/>
</svg>
