<svg width="16" height="16" viewBox="0 0 16 16" fill="none" xmlns="http://www.w3.org/2000/svg">
<g clip-path="url(#clip0_1_3848)">
<path d="M16 8C16 8.35 16 8.65 15.95 9L15.8 9.9C15.4 11.6 14.45 13.05 13.15 14.15C13.1 14.2 13 14.25 12.95 14.3C12.5 14.65 12 14.95 11.45 15.2L11.15 15.35C10.7 15.55 10.3 15.7 9.8 15.8C9.55 15.85 9.35 15.9 9.1 15.95C8.7 16 8.35 16 8 16C3.6 16 0 12.4 0 8C0 3.6 3.6 0 8 0C12.4 0 16 3.6 16 8Z" fill="#FC9C9C"/>
<path d="M11.45 10.1177C11.75 10.4 11.75 10.8706 11.45 11.2C11.3 11.3412 11.1 11.4353 10.9 11.4353C10.7 11.4353 10.5 11.3412 10.35 11.2L8 9.03532L5.7 11.2C5.55 11.3412 5.35 11.4353 5.15 11.4353C4.95 11.4353 4.75 11.3412 4.6 11.2C4.3 10.9177 4.3 10.4471 4.6 10.1177L6.9 7.95296L4.6 5.78826C4.3 5.50591 4.3 5.03532 4.6 4.70591C4.9 4.42355 5.4 4.42355 5.75 4.70591L8.05 6.87061L10.3 4.70591C10.6 4.42355 11.1 4.42355 11.45 4.70591C11.75 4.98826 11.75 5.45885 11.45 5.78826L9.15 7.95296L11.45 10.1177Z" fill="white"/>
</g>
<defs>
<clipPath id="clip0_1_3848">
<rect width="16" height="16" fill="white"/>
</clipPath>
</defs>
</svg>
