<svg width="64" height="64" viewBox="0 0 64 64" fill="none" xmlns="http://www.w3.org/2000/svg">
<rect width="64" height="64" fill="white"/>
<path d="M43.8828 41.5107V42.7559C43.882 43.0854 43.7483 43.4017 43.5117 43.6348C43.2752 43.8677 42.9546 43.9992 42.6201 44H21.1455C20.811 43.9992 20.4905 43.8677 20.2539 43.6348C20.0173 43.4017 19.8836 43.0855 19.8828 42.7559V41.5107H43.8828Z" fill="#3E96F4"/>
<path fill-rule="evenodd" clip-rule="evenodd" d="M24.582 40.542H21.1074V29.9688H24.583L24.582 40.542ZM22.2822 38.8232C22.1519 38.8233 22.0268 38.8742 21.9346 38.9648C21.8424 39.0556 21.7901 39.1792 21.79 39.3076C21.79 39.4361 21.8423 39.5595 21.9346 39.6504C22.0268 39.7412 22.1518 39.792 22.2822 39.792H23.4072C23.4718 39.7922 23.536 39.7801 23.5957 39.7559C23.6554 39.7316 23.7102 39.6964 23.7559 39.6514C23.8016 39.6064 23.8376 39.552 23.8623 39.4932C23.8868 39.4344 23.8996 39.3711 23.8994 39.3076C23.8994 39.2441 23.887 39.1808 23.8623 39.1221C23.8376 39.0633 23.8005 39.0098 23.7549 38.9648C23.7093 38.92 23.6552 38.8846 23.5957 38.8604C23.536 38.836 23.4718 38.8232 23.4072 38.8232H22.2822ZM22.2822 36.7969C22.2174 36.7961 22.153 36.8082 22.0928 36.832C22.0325 36.856 21.9769 36.8915 21.9307 36.9365C21.8844 36.9816 21.8474 37.0356 21.8223 37.0947C21.7972 37.1538 21.7842 37.2173 21.7842 37.2812C21.7842 37.3454 21.7972 37.4096 21.8223 37.4688C21.8473 37.5277 21.8845 37.581 21.9307 37.626C21.977 37.671 22.0324 37.7065 22.0928 37.7305C22.153 37.7544 22.2173 37.7664 22.2822 37.7656H23.4072C23.4718 37.7658 23.536 37.7537 23.5957 37.7295C23.6554 37.7052 23.7102 37.67 23.7559 37.625C23.8015 37.5801 23.8376 37.5265 23.8623 37.4678C23.887 37.4089 23.8996 37.3449 23.8994 37.2812C23.8994 37.2177 23.887 37.1544 23.8623 37.0957C23.8376 37.037 23.8005 36.9834 23.7549 36.9385C23.7093 36.8937 23.6552 36.8582 23.5957 36.834C23.536 36.8096 23.4718 36.7968 23.4072 36.7969H22.2822ZM22.2822 34.7705C22.1518 34.7705 22.0268 34.8222 21.9346 34.9131C21.8425 35.0038 21.7901 35.1266 21.79 35.2549C21.79 35.3834 21.8424 35.5068 21.9346 35.5977C22.0268 35.6885 22.1518 35.7402 22.2822 35.7402H23.4072C23.4718 35.7403 23.536 35.7275 23.5957 35.7031C23.6554 35.6788 23.7092 35.6426 23.7549 35.5977C23.8006 35.5527 23.8376 35.4992 23.8623 35.4404C23.8869 35.3818 23.8994 35.3183 23.8994 35.2549C23.8994 35.1914 23.887 35.128 23.8623 35.0693C23.8376 35.0106 23.8005 34.9571 23.7549 34.9121C23.7093 34.8673 23.6552 34.8319 23.5957 34.8076C23.536 34.7833 23.4718 34.7705 23.4072 34.7705H22.2822ZM22.2822 32.7441C22.1518 32.7442 22.0268 32.7959 21.9346 32.8867C21.8425 32.9775 21.7901 33.1002 21.79 33.2285C21.79 33.357 21.8424 33.4804 21.9346 33.5713C22.0268 33.6621 22.1518 33.7138 22.2822 33.7139H23.4072C23.4718 33.7139 23.536 33.7011 23.5957 33.6768C23.6554 33.6524 23.7092 33.6163 23.7549 33.5713C23.8006 33.5263 23.8376 33.4728 23.8623 33.4141C23.8869 33.3554 23.8994 33.292 23.8994 33.2285C23.8996 33.165 23.8869 33.1017 23.8623 33.043C23.8377 32.9842 23.8015 32.9307 23.7559 32.8857C23.7101 32.8407 23.6555 32.8055 23.5957 32.7812C23.5359 32.757 23.4719 32.744 23.4072 32.7441H22.2822ZM22.2822 30.7178C22.2174 30.717 22.1529 30.7291 22.0928 30.7529C22.0324 30.7769 21.977 30.8133 21.9307 30.8584C21.8845 30.9034 21.8473 30.9566 21.8223 31.0156C21.7972 31.0747 21.7842 31.1382 21.7842 31.2021C21.7842 31.2663 21.7972 31.3305 21.8223 31.3896C21.8473 31.4487 21.8845 31.5019 21.9307 31.5469C21.977 31.5919 22.0324 31.6274 22.0928 31.6514C22.153 31.6753 22.2173 31.6883 22.2822 31.6875H23.4072C23.4718 31.6875 23.536 31.6747 23.5957 31.6504C23.6554 31.6261 23.7092 31.5899 23.7549 31.5449C23.8006 31.4999 23.8376 31.4465 23.8623 31.3877C23.8869 31.3291 23.8994 31.2656 23.8994 31.2021C23.8996 31.1386 23.8869 31.0753 23.8623 31.0166C23.8377 30.9578 23.8015 30.9043 23.7559 30.8594C23.7101 30.8143 23.6555 30.7792 23.5957 30.7549C23.536 30.7306 23.4719 30.7176 23.4072 30.7178H22.2822Z" fill="#3E96F4"/>
<path fill-rule="evenodd" clip-rule="evenodd" d="M37.5488 30.3906C36.4584 30.59 35.4416 31.0751 34.6064 31.7939C33.7715 32.5127 33.1476 33.4391 32.8008 34.4766C32.4539 35.5143 32.3965 36.6253 32.6348 37.6924C32.873 38.7594 33.3984 39.7434 34.1553 40.542H25.5664V24.3896H37.5488V30.3906ZM27.3076 29.0371C27.125 29.0371 26.9495 29.0875 26.8203 29.1777C26.6911 29.268 26.6182 29.3909 26.6182 29.5186C26.6182 29.6461 26.6913 29.7682 26.8203 29.8584C26.9495 29.9487 27.1249 30 27.3076 30H28.5732C28.7557 30.0001 28.9312 29.9494 29.0605 29.8594C29.1898 29.7694 29.2621 29.6471 29.2627 29.5195C29.2628 29.4562 29.2455 29.3935 29.2109 29.335C29.1763 29.2764 29.1256 29.2226 29.0615 29.1777C28.9974 29.1329 28.9207 29.0975 28.8369 29.0732C28.7533 29.0491 28.6637 29.0371 28.5732 29.0371H27.3076ZM30.9844 29.0371C30.8017 29.0371 30.6262 29.0875 30.4971 29.1777C30.3679 29.268 30.2959 29.3909 30.2959 29.5186C30.2959 29.6462 30.3679 29.7691 30.4971 29.8594C30.6262 29.9496 30.8017 30 30.9844 30H32.25C32.4327 30 32.6081 29.9497 32.7373 29.8594C32.8665 29.7691 32.9385 29.6462 32.9385 29.5186C32.9385 29.3909 32.8665 29.268 32.7373 29.1777C32.6081 29.0874 32.4327 29.0371 32.25 29.0371H30.9844ZM34.6611 29.0371C34.5707 29.0371 34.481 29.0491 34.3975 29.0732C34.3137 29.0975 34.237 29.1339 34.1729 29.1787C34.109 29.2234 34.058 29.2766 34.0234 29.335C33.9888 29.3935 33.9716 29.4562 33.9717 29.5195C33.9722 29.6471 34.0446 29.7693 34.1738 29.8594C34.3032 29.9494 34.4786 30.0001 34.6611 30H35.9268C36.1093 30 36.2849 29.9496 36.4141 29.8594C36.5432 29.7691 36.6162 29.6462 36.6162 29.5186C36.6162 29.3909 36.5432 29.268 36.4141 29.1777C36.2849 29.0875 36.1093 29.0371 35.9268 29.0371H34.6611ZM27.3076 27.0176C27.1246 27.0176 26.9488 27.0687 26.8193 27.1592C26.69 27.2496 26.6172 27.3721 26.6172 27.5C26.6172 27.6279 26.69 27.7504 26.8193 27.8408C26.9488 27.9313 27.1246 27.9824 27.3076 27.9824H28.5732C28.6638 27.9824 28.7533 27.9695 28.8369 27.9453C28.9207 27.9211 28.9974 27.8856 29.0615 27.8408C29.1254 27.7961 29.1763 27.743 29.2109 27.6846C29.2455 27.6261 29.2627 27.5633 29.2627 27.5C29.2623 27.3721 29.1899 27.2496 29.0605 27.1592C28.9313 27.0688 28.7561 27.0179 28.5732 27.0176H27.3076ZM30.9844 27.0176C30.8016 27.0178 30.6264 27.0689 30.4971 27.1592C30.3677 27.2496 30.2943 27.3721 30.2939 27.5C30.2939 27.5634 30.312 27.626 30.3467 27.6846C30.3813 27.743 30.4321 27.7961 30.4961 27.8408C30.5601 27.8855 30.6362 27.9211 30.7197 27.9453C30.8035 27.9695 30.8937 27.9824 30.9844 27.9824H32.25C32.433 27.9824 32.6089 27.9313 32.7383 27.8408C32.8675 27.7504 32.9404 27.6278 32.9404 27.5C32.9404 27.3722 32.8675 27.2496 32.7383 27.1592C32.6089 27.0687 32.433 27.0176 32.25 27.0176H30.9844ZM34.6611 27.0176C34.4783 27.0179 34.3031 27.0688 34.1738 27.1592C34.0445 27.2496 33.9721 27.3721 33.9717 27.5C33.9716 27.5633 33.9888 27.6261 34.0234 27.6846C34.058 27.743 34.109 27.7961 34.1729 27.8408C34.2369 27.8856 34.3137 27.9211 34.3975 27.9453C34.4811 27.9695 34.5706 27.9824 34.6611 27.9824H35.9268C36.1098 27.9824 36.2856 27.9313 36.415 27.8408C36.5444 27.7504 36.6172 27.6279 36.6172 27.5C36.6172 27.3721 36.5444 27.2496 36.415 27.1592C36.2856 27.0687 36.1098 27.0176 35.9268 27.0176H34.6611ZM27.3076 25C27.1246 25 26.9488 25.0511 26.8193 25.1416C26.69 25.2321 26.6172 25.3545 26.6172 25.4824C26.6172 25.6103 26.69 25.7328 26.8193 25.8232C26.9488 25.9137 27.1246 25.9648 27.3076 25.9648H28.5732C28.6638 25.9649 28.7533 25.9519 28.8369 25.9277C28.9207 25.9035 28.9974 25.868 29.0615 25.8232C29.1254 25.7785 29.1763 25.7254 29.2109 25.667C29.2455 25.6085 29.2627 25.5457 29.2627 25.4824C29.2623 25.3546 29.1899 25.232 29.0605 25.1416C28.9313 25.0512 28.7561 25.0003 28.5732 25H27.3076ZM30.9844 25C30.8016 25.0003 30.6264 25.0513 30.4971 25.1416C30.3677 25.232 30.2944 25.3546 30.2939 25.4824C30.2939 25.5458 30.312 25.6085 30.3467 25.667C30.3813 25.7255 30.4321 25.7785 30.4961 25.8232C30.5601 25.868 30.6362 25.9035 30.7197 25.9277C30.8035 25.952 30.8937 25.9649 30.9844 25.9648H32.25C32.433 25.9648 32.6089 25.9137 32.7383 25.8232C32.8675 25.7328 32.9404 25.6103 32.9404 25.4824C32.9404 25.3546 32.8675 25.232 32.7383 25.1416C32.6089 25.0511 32.433 25 32.25 25H30.9844ZM34.6611 25C34.4783 25.0003 34.3031 25.0513 34.1738 25.1416C34.0445 25.232 33.9721 25.3546 33.9717 25.4824C33.9716 25.5457 33.9888 25.6085 34.0234 25.667C34.058 25.7254 34.109 25.7785 34.1729 25.8232C34.2369 25.868 34.3137 25.9035 34.3975 25.9277C34.4811 25.9519 34.5706 25.9649 34.6611 25.9648H35.9268C36.1098 25.9648 36.2856 25.9137 36.415 25.8232C36.5444 25.7328 36.6172 25.6103 36.6172 25.4824C36.6172 25.3545 36.5444 25.2321 36.415 25.1416C36.2856 25.0511 36.1098 25 35.9268 25H34.6611Z" fill="#3E96F4"/>
<path fill-rule="evenodd" clip-rule="evenodd" d="M38.6797 31.2578C39.7798 31.2581 40.8517 31.6015 41.7412 32.2393C42.6308 32.8773 43.2926 33.7771 43.6309 34.8086C43.9691 35.84 43.9665 36.9504 43.624 37.9805C43.2815 39.0105 42.6167 39.9076 41.7246 40.542H35.6348C34.742 39.9079 34.0763 39.0107 33.7334 37.9805C33.3906 36.9503 33.3883 35.8393 33.7266 34.8076C34.0649 33.776 34.7263 32.8761 35.6162 32.2383C36.5062 31.6004 37.579 31.2575 38.6797 31.2578ZM38.6797 32.6543C38.6151 32.6543 38.5509 32.6671 38.4912 32.6914C38.4317 32.7157 38.3776 32.7511 38.332 32.7959C38.2864 32.8408 38.2503 32.8944 38.2256 32.9531C38.2009 33.0119 38.1875 33.075 38.1875 33.1387V33.5469C37.8381 33.6085 37.5067 33.7461 37.2178 33.9492C36.7939 34.2573 36.5313 34.6922 36.5312 35.1865C36.5312 35.6788 36.7936 36.1169 37.2178 36.4229C37.6448 36.7202 38.1568 36.8768 38.6797 36.8701C38.9928 36.863 39.3003 36.952 39.5596 37.125C39.7347 37.2525 39.8447 37.4153 39.8447 37.582C39.8446 37.7507 39.7347 37.9136 39.5596 38.041C39.3003 38.214 38.9927 38.303 38.6797 38.2959C38.4271 38.3 38.1772 38.2438 37.9512 38.1328C37.7861 38.0576 37.649 37.9329 37.5605 37.7764C37.5326 37.7192 37.4934 37.6673 37.4453 37.625C37.3973 37.5827 37.3411 37.5502 37.2803 37.5293C37.2195 37.5084 37.1551 37.4994 37.0908 37.5029C37.0265 37.5065 36.9633 37.5232 36.9053 37.5508C36.8473 37.5783 36.7949 37.6167 36.752 37.6641C36.7092 37.7113 36.6765 37.7665 36.6553 37.8262C36.634 37.8861 36.6243 37.9503 36.6279 38.0137C36.6316 38.0769 36.6479 38.1392 36.6758 38.1963C36.8563 38.5423 37.1462 38.8213 37.501 38.9922C37.717 39.1018 37.9484 39.1791 38.1875 39.2217V39.6318C38.1875 39.6954 38.2009 39.7586 38.2256 39.8174C38.2503 39.876 38.2865 39.9297 38.332 39.9746C38.3776 40.0194 38.4317 40.0548 38.4912 40.0791C38.5509 40.1035 38.6151 40.1162 38.6797 40.1162C38.7442 40.1162 38.8085 40.1034 38.8682 40.0791C38.9276 40.0548 38.9818 40.0194 39.0273 39.9746C39.0729 39.9297 39.1091 39.876 39.1338 39.8174C39.1585 39.7586 39.1719 39.6954 39.1719 39.6318V39.2217C39.5211 39.1597 39.8525 39.0221 40.1416 38.8193C40.5655 38.5133 40.828 38.0761 40.8281 37.582C40.8281 37.0897 40.5656 36.6518 40.1416 36.3457C39.7138 36.0502 39.2022 35.8944 38.6797 35.9004C38.3656 35.9082 38.0571 35.8183 37.7979 35.6436C37.6226 35.5161 37.5146 35.3552 37.5146 35.1865C37.5147 35.0179 37.6227 34.855 37.7979 34.7295C38.0571 34.5548 38.3657 34.4649 38.6797 34.4727C38.9322 34.47 39.1816 34.526 39.4082 34.6357C39.5735 34.7117 39.7106 34.8369 39.7988 34.9941C39.8269 35.0512 39.866 35.1024 39.9141 35.1445C39.9622 35.1867 40.0183 35.2195 40.0791 35.2402C40.1399 35.261 40.2043 35.2694 40.2686 35.2656C40.3328 35.2619 40.3962 35.2455 40.4541 35.2178C40.5119 35.1901 40.5638 35.1518 40.6064 35.1045C40.6492 35.0571 40.682 35.0013 40.7031 34.9414C40.7241 34.8816 40.7333 34.8181 40.7295 34.7549C40.7257 34.6916 40.7088 34.6293 40.6807 34.5723C40.5002 34.2264 40.2111 33.9473 39.8564 33.7764C39.6404 33.6686 39.4099 33.5912 39.1719 33.5469V33.1387C39.1719 33.075 39.1585 33.0119 39.1338 32.9531C39.1091 32.8944 39.073 32.8408 39.0273 32.7959C38.9818 32.7511 38.9276 32.7157 38.8682 32.6914C38.8085 32.6671 38.7442 32.6543 38.6797 32.6543Z" fill="#3E96F4"/>
<path d="M31.5078 20C31.6382 20 31.7632 20.0517 31.8555 20.1426C31.9476 20.2334 31.9999 20.356 32 20.4844V22.1914H36.2939V23.4209H26.8223V22.1914H31.0166V20.4844C31.0167 20.3562 31.0682 20.2333 31.1602 20.1426C31.2523 20.0518 31.3775 20.0001 31.5078 20Z" fill="#3E96F4"/>
</svg>
