<svg width="67" height="62" viewBox="0 0 67 62" fill="none" xmlns="http://www.w3.org/2000/svg">
<path d="M1.06897 26.7241H6.99927C7.34971 27.989 7.85543 29.2056 8.5049 30.3461L4.30761 34.5418C4.20828 34.6411 4.12948 34.759 4.07572 34.8887C4.02196 35.0185 3.99429 35.1575 3.99429 35.298C3.99429 35.4384 4.02196 35.5775 4.07572 35.7073C4.12948 35.837 4.20828 35.9549 4.30761 36.0542L8.84238 40.5902C9.25991 41.0069 9.93636 41.0069 10.3539 40.5902L14.5517 36.392C15.6918 37.0413 16.908 37.547 18.1724 37.8973V43.8276C18.1724 44.418 18.651 44.8966 19.2414 44.8966H25.6552C26.2456 44.8966 26.7241 44.418 26.7241 43.8276V37.8973C27.9886 37.547 29.2047 37.0413 30.3448 36.392L34.5427 40.5902C34.9668 40.9911 35.6303 40.9911 36.0542 40.5902L40.5898 36.0542C40.6891 35.9549 40.7679 35.837 40.8217 35.7073C40.8754 35.5775 40.9031 35.4384 40.9031 35.298C40.9031 35.1575 40.8754 35.0185 40.8217 34.8887C40.7679 34.759 40.6891 34.6411 40.5898 34.5418L36.3915 30.3461C37.041 29.2056 37.5468 27.989 37.8973 26.7241H43.8276C44.418 26.7241 44.8966 26.2456 44.8966 25.6552V19.2414C44.8966 18.6513 44.418 18.1724 43.8276 18.1724H37.8973C37.5467 16.9077 37.041 15.6913 36.3915 14.5509L40.5889 10.3552C40.6883 10.2559 40.7671 10.138 40.8208 10.0083C40.8746 9.87851 40.9023 9.73944 40.9023 9.59899C40.9023 9.45854 40.8746 9.31948 40.8208 9.18973C40.7671 9.05998 40.6883 8.94209 40.5889 8.8428L36.0542 4.30665C35.6366 3.88954 34.9602 3.88954 34.5427 4.30665L30.3448 8.5049C29.2045 7.85596 27.9884 7.35036 26.7241 6.99959V1.06897C26.7241 0.478897 26.2456 0 25.6552 0H19.2414C18.651 0 18.1724 0.478897 18.1724 1.06897V6.99959C16.9081 7.3504 15.692 7.85603 14.5517 8.50501L10.3539 4.30665C9.92973 3.90579 9.26622 3.90579 8.84238 4.30665L4.30676 8.8427C4.20742 8.94199 4.12863 9.05987 4.07487 9.18962C4.02111 9.31937 3.99344 9.45844 3.99344 9.59888C3.99344 9.73933 4.02111 9.8784 4.07487 10.0081C4.12863 10.1379 4.20742 10.2558 4.30676 10.3551L8.5049 14.5508C7.85551 15.6912 7.34979 16.9076 6.99927 18.1723H1.06897C0.478576 18.1723 0 18.6512 0 19.2413V25.6551C0 26.2455 0.478576 26.7241 1.06897 26.7241ZM2.13793 20.3103H7.83552C8.33793 20.3103 8.77257 19.9608 8.8799 19.4701C9.23075 17.869 9.865 16.3435 10.7527 14.9655C10.8842 14.7602 10.9416 14.516 10.9153 14.2736C10.889 14.0312 10.7807 13.805 10.6082 13.6326L6.57414 9.59856L9.59824 6.57414L13.6314 10.6082C13.8039 10.781 14.0302 10.8896 14.2729 10.916C14.5156 10.9424 14.76 10.8849 14.9655 10.7532C16.3437 9.86584 17.8691 9.23162 19.4701 8.88033C19.7083 8.82796 19.9213 8.69585 20.0741 8.50587C20.2269 8.31589 20.3103 8.07943 20.3103 7.83563V2.13793H24.5862V7.83552C24.5862 8.33793 24.9361 8.77257 25.4264 8.88033C27.0274 9.23162 28.5529 9.86584 29.931 10.7532C30.1365 10.8849 30.3809 10.9424 30.6236 10.916C30.8663 10.8896 31.0927 10.781 31.2651 10.6082L35.2983 6.57414L38.3216 9.59856L34.2884 13.6314C34.1156 13.8039 34.0071 14.0303 33.9808 14.273C33.9545 14.5157 34.012 14.7601 34.1438 14.9655C35.0313 16.3438 35.6651 17.8696 36.0154 19.471C36.0676 19.7092 36.1996 19.9223 36.3896 20.0752C36.5795 20.2281 36.8159 20.3115 37.0598 20.3116H42.7586V24.5875H37.0596C36.5578 24.5875 36.1231 24.937 36.0154 25.4277C35.6651 27.0284 35.0313 28.5536 34.1438 29.931C34.0123 30.1365 33.9549 30.3807 33.9812 30.6232C34.0075 30.8657 34.1159 31.0919 34.2884 31.2644L38.3224 35.2976L35.2983 38.3227L31.2651 34.2884C31.0926 34.1157 30.8662 34.0072 30.6236 33.9809C30.3809 33.9546 30.1365 34.0121 29.931 34.1438C28.5536 35.0316 27.0284 35.6659 25.4276 36.0167C24.9365 36.1236 24.5862 36.5586 24.5862 37.061V42.7586H20.3103V37.061C20.3103 36.5586 19.96 36.1236 19.469 36.0167C17.8682 35.6659 16.343 35.0316 14.9655 34.1438C14.76 34.0121 14.5157 33.9546 14.273 33.9809C14.0303 34.0072 13.804 34.1157 13.6314 34.2884L9.59824 38.3228L6.57499 35.2984L10.6082 31.2652C10.781 31.0927 10.8896 30.8663 10.9158 30.6236C10.9421 30.3809 10.8846 30.1365 10.7527 29.931C9.86499 28.5528 9.23074 27.027 8.8799 25.4256C8.82765 25.1875 8.69559 24.9745 8.50563 24.8218C8.31567 24.6692 8.07922 24.586 7.83552 24.5862H2.13793V20.3103Z" fill="url(#paint0_linear_0_1835)"/>
<path d="M22.4482 31C27.1713 31 30.9999 27.1718 30.9999 22.4483C30.9999 17.7252 27.1713 13.8966 22.4482 13.8966C17.7251 13.8966 13.8965 17.7252 13.8965 22.4483C13.9015 27.1688 17.7276 30.995 22.4482 31ZM22.4482 16.0345C25.99 16.0345 28.862 18.9065 28.862 22.4483C28.862 25.9905 25.99 28.8621 22.4482 28.8621C18.9064 28.8621 16.0344 25.9905 16.0344 22.4483C16.0381 18.9073 18.9072 16.0382 22.4482 16.0345Z" fill="url(#paint1_linear_0_1835)"/>
<path d="M22.4483 34.2069C28.9422 34.2069 34.2069 28.9427 34.2069 22.4483C34.2069 15.9543 28.9422 10.6897 22.4483 10.6897C15.9543 10.6897 10.6897 15.9543 10.6897 22.4483C10.6976 28.9394 15.9572 34.1994 22.4483 34.2069ZM22.4483 12.8276C27.7618 12.8276 32.069 17.1348 32.069 22.4483C32.069 27.7618 27.7618 32.069 22.4483 32.069C17.1348 32.069 12.8276 27.7618 12.8276 22.4483C12.8335 17.1377 17.1372 12.8335 22.4483 12.8276ZM60.931 49.1724V40.6207C60.931 40.0306 60.4525 39.5517 59.8621 39.5517H57.7241V31C57.7241 30.4099 57.2456 29.931 56.6552 29.931H47.0345C46.4441 29.931 45.9655 30.4099 45.9655 31V39.5517H40.6207C40.0303 39.5517 39.5517 40.0306 39.5517 40.6207V49.1724H5.34483C2.39427 49.1762 0.00374138 51.5667 0 54.5173V56.6552C0.00374138 59.6061 2.39427 61.9967 5.34483 62H60.931C63.8816 61.9967 66.2721 59.6061 66.2759 56.6552V54.5173C66.2721 51.5667 63.8816 49.1762 60.931 49.1724ZM58.7931 49.1724H51.3103V41.6897H58.7931V49.1724ZM48.1035 32.069H55.5862V39.5517H48.1035V32.069ZM41.6897 41.6897H49.1724V49.1724H41.6897V41.6897ZM64.1379 56.6552C64.1379 58.4265 62.7019 59.8621 60.931 59.8621H5.34483C3.57398 59.8621 2.13793 58.4265 2.13793 56.6552V54.5173C2.13793 52.7464 3.57398 51.3104 5.34483 51.3104H60.931C62.7019 51.3104 64.1379 52.7464 64.1379 54.5173V56.6552Z" fill="url(#paint2_linear_0_1835)"/>
<path d="M33.1379 52.3793C31.3671 52.3793 29.931 53.8154 29.931 55.5862C29.931 57.3575 31.3671 58.7931 33.1379 58.7931C34.9088 58.7931 36.3448 57.3575 36.3448 55.5862C36.3448 53.8154 34.9088 52.3793 33.1379 52.3793ZM33.1379 56.6552C32.5475 56.6552 32.069 56.1766 32.069 55.5862C32.069 54.9961 32.5475 54.5172 33.1379 54.5172C33.7283 54.5172 34.2069 54.9961 34.2069 55.5862C34.2069 56.1766 33.7283 56.6552 33.1379 56.6552ZM22.4483 52.3793C20.6774 52.3793 19.2414 53.8154 19.2414 55.5862C19.2414 57.3575 20.6774 58.7931 22.4483 58.7931C24.2191 58.7931 25.6552 57.3575 25.6552 55.5862C25.6552 53.8154 24.2191 52.3793 22.4483 52.3793ZM22.4483 56.6552C21.8579 56.6552 21.3793 56.1766 21.3793 55.5862C21.3793 54.9961 21.8579 54.5172 22.4483 54.5172C23.0387 54.5172 23.5172 54.9961 23.5172 55.5862C23.5172 56.1766 23.0387 56.6552 22.4483 56.6552ZM43.8276 52.3793C42.0567 52.3793 40.6207 53.8154 40.6207 55.5862C40.6207 57.3575 42.0567 58.7931 43.8276 58.7931C45.5984 58.7931 47.0345 57.3575 47.0345 55.5862C47.0345 53.8154 45.5984 52.3793 43.8276 52.3793ZM43.8276 56.6552C43.2372 56.6552 42.7586 56.1766 42.7586 55.5862C42.7586 54.9961 43.2372 54.5172 43.8276 54.5172C44.418 54.5172 44.8966 54.9961 44.8966 55.5862C44.8966 56.1766 44.418 56.6552 43.8276 56.6552ZM11.7586 52.3793C9.98778 52.3793 8.55173 53.8154 8.55173 55.5862C8.55173 57.3575 9.98778 58.7931 11.7586 58.7931C13.5295 58.7931 14.9655 57.3575 14.9655 55.5862C14.9655 53.8154 13.5295 52.3793 11.7586 52.3793ZM11.7586 56.6552C11.1682 56.6552 10.6897 56.1766 10.6897 55.5862C10.6897 54.9961 11.1682 54.5172 11.7586 54.5172C12.349 54.5172 12.8276 54.9961 12.8276 55.5862C12.8276 56.1766 12.349 56.6552 11.7586 56.6552ZM54.5172 52.3793C52.7464 52.3793 51.3103 53.8154 51.3103 55.5862C51.3103 57.3575 52.7464 58.7931 54.5172 58.7931C56.2881 58.7931 57.7241 57.3575 57.7241 55.5862C57.7241 53.8154 56.2881 52.3793 54.5172 52.3793ZM54.5172 56.6552C53.9269 56.6552 53.4483 56.1766 53.4483 55.5862C53.4483 54.9961 53.9269 54.5172 54.5172 54.5172C55.1076 54.5172 55.5862 54.9961 55.5862 55.5862C55.5862 56.1766 55.1076 56.6552 54.5172 56.6552Z" fill="url(#paint3_linear_0_1835)"/>
<defs>
<linearGradient id="paint0_linear_0_1835" x1="3.86609" y1="5.31189" x2="63.9945" y2="63.957" gradientUnits="userSpaceOnUse">
<stop stop-color="#3D96F5"/>
<stop offset="1" stop-color="#31393C"/>
</linearGradient>
<linearGradient id="paint1_linear_0_1835" x1="3.86609" y1="5.31189" x2="63.9945" y2="63.957" gradientUnits="userSpaceOnUse">
<stop stop-color="#3D96F5"/>
<stop offset="1" stop-color="#31393C"/>
</linearGradient>
<linearGradient id="paint2_linear_0_1835" x1="3.86609" y1="5.31189" x2="63.9945" y2="63.957" gradientUnits="userSpaceOnUse">
<stop stop-color="#3D96F5"/>
<stop offset="1" stop-color="#31393C"/>
</linearGradient>
<linearGradient id="paint3_linear_0_1835" x1="3.86609" y1="5.31189" x2="63.9945" y2="63.957" gradientUnits="userSpaceOnUse">
<stop stop-color="#3D96F5"/>
<stop offset="1" stop-color="#31393C"/>
</linearGradient>
</defs>
</svg>
