<svg width="57" height="62" viewBox="0 0 57 62" fill="none" xmlns="http://www.w3.org/2000/svg">
<path d="M5.61064 5.38176C5.61063 5.29765 5.62718 5.21436 5.65937 5.13665C5.69155 5.05893 5.73872 4.98832 5.7982 4.92885C5.85767 4.86937 5.92828 4.8222 6.006 4.79002C6.08371 4.75783 6.167 4.74128 6.25111 4.74129H21.469C21.823 4.74129 22.1094 5.02804 22.1094 5.38176C22.1094 5.73547 21.8229 6.02222 21.469 6.02222H6.25111C6.167 6.02224 6.08371 6.00568 6.006 5.9735C5.92828 5.94132 5.85767 5.89415 5.7982 5.83467C5.73872 5.7752 5.69155 5.70459 5.65937 5.62687C5.62718 5.54916 5.61063 5.46587 5.61064 5.38176ZM35.743 6.02222H36.2759C36.63 6.02222 36.9164 5.73547 36.9164 5.38176C36.9164 5.02804 36.6299 4.74129 36.2759 4.74129H35.743C35.6589 4.74126 35.5756 4.75781 35.4979 4.78998C35.4202 4.82216 35.3495 4.86933 35.2901 4.92881C35.2306 4.98829 35.1834 5.05891 35.1512 5.13663C35.1191 5.21435 35.1025 5.29764 35.1025 5.38176C35.1025 5.46588 35.119 5.54918 35.1512 5.62691C35.1834 5.70464 35.2305 5.77526 35.29 5.83474C35.3495 5.89423 35.4201 5.9414 35.4979 5.97357C35.5756 6.00574 35.6589 6.02227 35.743 6.02222ZM39.7418 6.02222H40.2753C40.6294 6.02222 40.9158 5.73547 40.9158 5.38176C40.9158 5.02804 40.6293 4.74129 40.2753 4.74129H39.7418C39.3877 4.74129 39.1013 5.02804 39.1013 5.38176C39.1013 5.73547 39.3878 6.02222 39.7418 6.02222ZM43.7412 6.02222H44.2748C44.6289 6.02222 44.9153 5.73547 44.9153 5.38176C44.9153 5.02804 44.6287 4.74129 44.2748 4.74129H43.7412C43.3872 4.74129 43.1008 5.02804 43.1008 5.38176C43.1008 5.73547 43.3872 6.02222 43.7412 6.02222ZM35.1907 28.7946H15.3359C14.9818 28.7946 14.6955 29.0814 14.6955 29.4351C14.6955 29.7888 14.982 30.0756 15.3359 30.0756H35.1906C35.5447 30.0756 35.831 29.7888 35.831 29.4351C35.831 29.0814 35.5447 28.7946 35.1907 28.7946ZM41.7885 26.8662H8.73692C7.31698 26.8662 6.16174 25.7109 6.16174 24.2907V16.9651C6.16174 15.5449 7.3171 14.3893 8.73692 14.3893H41.7885C43.209 14.3893 44.3643 15.5449 44.3643 16.9651V24.2907C44.3643 25.7109 43.2089 26.8662 41.7885 26.8662ZM8.73692 25.5852H41.7885C42.5022 25.5852 43.0832 25.0044 43.0832 24.2907V16.9651C43.0832 16.2511 42.5021 15.6704 41.7885 15.6704H8.73692C8.0232 15.6704 7.44279 16.2511 7.44279 16.9651V24.2907C7.44267 25.0044 8.0232 25.5852 8.73692 25.5852ZM4.82378 0.256104H45.7022C47.8108 0.256104 49.5259 1.97152 49.5259 4.07976L49.5228 26.7494V26.7151V26.9044C53.3549 27.2313 56.3751 30.4476 56.3751 34.3603C56.3751 38.2762 53.3549 41.4947 49.5228 41.822V43.7842C49.5228 45.8925 47.8076 47.6079 45.6991 47.6079H40.0358V47.8002C40.0358 48.7062 39.2989 49.4431 38.3925 49.4431H37.0534C36.9605 49.8809 36.844 50.3135 36.7044 50.7388L37.8728 51.409C38.6528 51.8554 38.9243 52.857 38.4765 53.6414L37.6458 55.0803C37.2023 55.8553 36.1983 56.1284 35.4089 55.6848L34.2411 55.0037C33.943 55.336 33.6271 55.6519 33.2947 55.95L33.9721 57.1188C34.4266 57.9131 34.1397 58.9155 33.3698 59.3553L31.9243 60.1841C31.1703 60.6305 30.1597 60.3885 29.6926 59.5836L29.0221 58.4142C28.5966 58.5541 28.1637 58.6705 27.7254 58.7626V60.1102C27.7254 61.0109 26.9929 61.7438 26.0922 61.7438H24.4339C23.5276 61.7438 22.7907 61.011 22.7907 60.1102V58.7613C22.3549 58.6691 21.9246 58.553 21.5015 58.4136L20.8235 59.5832C20.3898 60.3575 19.3899 60.647 18.5886 60.1824L17.1537 59.3539C16.3749 58.9085 16.1034 57.9068 16.5513 57.1223L17.2313 55.9495C16.8986 55.6514 16.5824 55.3353 16.2843 55.0026L15.1153 55.6804C14.3391 56.1251 13.3395 55.857 12.8835 55.0861L12.051 53.644C11.6005 52.855 11.8781 51.8516 12.6547 51.4082L13.8213 50.7385C13.6823 50.3131 13.566 49.8806 13.4729 49.4428H12.1237C11.223 49.4428 10.4905 48.706 10.4905 47.7999V47.6076H4.82814C2.71953 47.6076 1.00375 45.8922 1.00375 43.784L1 4.07952C1 1.97152 2.71517 0.256104 4.82378 0.256104ZM38.7547 46.142C38.7547 45.9444 38.5959 45.7895 38.3925 45.7895H36.5224C36.3703 45.7895 36.2232 45.7354 36.1073 45.6368C35.9915 45.5383 35.9144 45.4018 35.89 45.2516C35.7727 44.5336 35.5835 43.8292 35.3252 43.149C35.2714 43.0066 35.27 42.8496 35.3213 42.7063C35.3727 42.563 35.4734 42.4426 35.6054 42.3668L37.2349 41.432C37.3987 41.3381 37.4588 41.1111 37.3643 40.9453L36.5356 39.5007C36.4393 39.3333 36.2103 39.2754 36.0358 39.3746L34.4257 40.3138C34.295 40.39 34.1415 40.4174 33.9925 40.3913C33.8435 40.3652 33.7085 40.2872 33.6114 40.1711C33.1178 39.5803 32.5999 39.065 32.0714 38.6396C31.9525 38.5434 31.8718 38.408 31.844 38.2576C31.8161 38.1072 31.8429 37.9519 31.9195 37.8195L32.864 36.1904C32.9585 36.0222 32.8984 35.796 32.7257 35.6938L31.2877 34.8694C31.1207 34.7734 30.9006 34.835 30.7979 35.0064L29.8678 36.6364C29.7095 36.9129 29.3712 37.0311 29.0778 36.9154C28.4016 36.6511 27.6991 36.4595 26.9824 36.344C26.8322 36.3196 26.6956 36.2426 26.5971 36.1268C26.4985 36.0109 26.4444 35.8637 26.4445 35.7116V33.8413C26.4445 33.6384 26.2899 33.4795 26.0923 33.4795H24.4341C24.3381 33.4796 24.2461 33.5177 24.1782 33.5855C24.1103 33.6534 24.072 33.7454 24.0719 33.8413V35.7116C24.0719 35.8635 24.0179 36.0105 23.9196 36.1262C23.8213 36.242 23.6851 36.3191 23.5352 36.3437C22.8213 36.4605 22.1217 36.6521 21.4479 36.9154C21.3051 36.9716 21.1469 36.9745 21.0021 36.9238C20.8573 36.873 20.7356 36.772 20.6591 36.639L19.7146 35.0002C19.6183 34.8307 19.3986 34.7744 19.2229 34.8726L17.7943 35.6976C17.6279 35.7962 17.5678 36.0225 17.6666 36.1989L18.6061 37.8196C18.6827 37.9519 18.7095 38.1073 18.6816 38.2576C18.6537 38.4079 18.573 38.5433 18.4541 38.6393C17.8914 39.0945 17.3768 39.6061 16.9185 40.1662C16.8222 40.2839 16.6871 40.3635 16.5374 40.3907C16.3877 40.418 16.2332 40.391 16.1016 40.3148L14.4722 39.37C14.3058 39.2752 14.0868 39.3368 13.9855 39.5083L13.1611 40.9463C13.066 41.1137 13.1261 41.3373 13.2899 41.4314L14.92 42.3668C15.052 42.4425 15.1528 42.5629 15.2041 42.7062C15.2555 42.8494 15.2541 43.0064 15.2002 43.1487C14.9423 43.8291 14.7533 44.5336 14.636 45.2516C14.6116 45.4018 14.5346 45.5383 14.4187 45.6368C14.3029 45.7354 14.1557 45.7895 14.0037 45.7895H12.1234C12.03 45.7898 11.9405 45.827 11.8745 45.893C11.8085 45.9591 11.7714 46.0487 11.7713 46.142V47.8003C11.7713 48.0033 11.9258 48.1621 12.1234 48.1621H14.0037C14.1555 48.1621 14.3024 48.2161 14.4181 48.3144C14.5339 48.4127 14.6109 48.549 14.6354 48.6988C14.7504 49.3991 14.9407 50.1081 15.2009 50.8061C15.2539 50.9482 15.2548 51.1045 15.2034 51.2471C15.1519 51.3898 15.0516 51.5096 14.9201 51.5852L13.2913 52.52C13.1252 52.6151 13.066 52.8388 13.1618 53.0061L13.9894 54.4401C14.087 54.6055 14.3071 54.6672 14.4754 54.5705L16.1017 53.6279C16.2332 53.5518 16.3874 53.5248 16.5369 53.5517C16.6864 53.5787 16.8215 53.6579 16.918 53.7752C17.3801 54.3382 17.8963 54.8545 18.4593 55.3167C18.5764 55.4132 18.6555 55.5482 18.6824 55.6976C18.7093 55.847 18.6824 56.001 18.6063 56.1324L17.6618 57.7615C17.5693 57.9235 17.6292 58.1502 17.7918 58.2434L19.2305 59.0738C19.401 59.174 19.6143 59.1217 19.7103 58.9496L20.6598 57.3117C20.736 57.1804 20.8564 57.0803 20.9995 57.0295C21.1426 56.9786 21.2991 56.9802 21.4411 57.0341C22.1187 57.2912 22.8203 57.4803 23.5353 57.5986C23.6852 57.6232 23.8214 57.7003 23.9197 57.8161C24.018 57.9319 24.072 58.0788 24.072 58.2307V60.1107C24.072 60.3049 24.2346 60.4632 24.4342 60.4632H26.0924C26.1858 60.463 26.2753 60.4257 26.3413 60.3597C26.4073 60.2936 26.4445 60.2041 26.4446 60.1107V58.2307C26.4445 58.0786 26.4986 57.9314 26.5972 57.8156C26.6957 57.6997 26.8323 57.6227 26.9825 57.5984C27.7004 57.4813 28.4047 57.2923 29.0848 57.0342C29.2272 56.9802 29.3843 56.9787 29.5277 57.0301C29.6711 57.0814 29.7915 57.1822 29.8673 57.3144L30.8024 58.9438C30.9001 59.1124 31.1123 59.1767 31.2796 59.0776L32.7339 58.2438C32.9008 58.1486 32.9565 57.9234 32.8622 57.7584L31.9196 56.1324C31.8434 56.001 31.8165 55.8468 31.8435 55.6973C31.8705 55.5478 31.9498 55.4129 32.0672 55.3165C32.6302 54.8544 33.1465 54.3382 33.6085 53.7752C33.7052 53.6577 33.8406 53.5785 33.9903 53.5517C34.1401 53.5249 34.2945 53.5522 34.426 53.6288L36.0454 54.5733C36.2118 54.6652 36.4394 54.6087 36.5352 54.4429L37.3659 53.0039C37.4591 52.8409 37.3991 52.6139 37.2359 52.5208L35.6058 51.5853C35.4742 51.5097 35.3738 51.3898 35.3223 51.247C35.2709 51.1042 35.2718 50.9478 35.325 50.8056C35.5852 50.1088 35.7753 49.4001 35.8911 48.6989C35.9156 48.5491 35.9926 48.4128 36.1084 48.3145C36.2241 48.2162 36.371 48.1622 36.5229 48.1622H38.3931C38.5996 48.1622 38.7553 48.0068 38.7553 47.8004L38.7547 46.142ZM48.2417 41.8221C44.4114 41.4958 41.3924 38.2768 41.3924 34.3603C41.3924 30.4468 44.4114 27.2302 48.2417 26.9042V10.5094H2.2848V43.7842C2.2848 45.1862 3.42575 46.3268 4.82814 46.3268H10.4902V46.142C10.4902 45.2413 11.2227 44.5085 12.1234 44.5085H13.4714C13.5634 44.0728 13.6797 43.6396 13.8198 43.2122L12.6532 42.5429C11.8854 42.1042 11.597 41.1025 12.0496 40.3098L12.8789 38.8636C13.3393 38.086 14.3388 37.8174 15.1113 38.2597L16.2835 38.9393C16.5808 38.6081 16.8965 38.294 17.2292 37.9985L16.553 36.8328C16.1058 36.0331 16.3691 35.0526 17.1472 34.5916L18.5896 33.7588C19.3822 33.3149 20.3829 33.587 20.8251 34.3626L21.5001 35.5333C21.9231 35.391 22.3539 35.2733 22.7905 35.1805V33.8413C22.7905 32.9353 23.5273 32.1985 24.4337 32.1985H26.092C26.9927 32.1985 27.7251 32.9353 27.7251 33.8413V35.1795C28.1641 35.2718 28.5973 35.3897 29.0224 35.5326L29.6905 34.3626C30.1509 33.5829 31.1504 33.3152 31.9236 33.7574L33.3704 34.5868C34.1442 35.045 34.4125 36.0467 33.9765 36.8248L33.2959 37.9992C33.6265 38.2958 33.9411 38.6097 34.2385 38.9396L35.3995 38.2622C36.1988 37.8144 37.2034 38.0862 37.6468 38.8643L38.4756 40.309C38.9241 41.0946 38.6526 42.0963 37.872 42.5433L36.7061 43.2119C36.8457 43.6374 36.962 44.0701 37.0545 44.5082H38.3924C39.2988 44.5082 40.0357 45.241 40.0357 46.1418V46.3266H45.699C47.1008 46.3266 48.2416 45.186 48.2416 43.784L48.2417 41.8221ZM42.6736 34.3603C42.6736 37.7862 45.4584 40.5734 48.8811 40.5734C52.3069 40.5734 55.0942 37.7862 55.0942 34.3603C55.0942 30.9416 52.3135 28.1601 48.8932 28.1534C48.8893 28.1536 48.8862 28.1556 48.8823 28.1556C48.8782 28.1556 48.8749 28.1534 48.8709 28.1533C45.4529 28.159 42.6736 30.941 42.6736 34.3603ZM45.7022 1.53715H4.82378C3.422 1.53715 2.28105 2.67774 2.28105 4.07988V9.22685H48.2448V4.07976C48.2448 2.67774 47.1039 1.53715 45.7022 1.53715ZM30.9203 46.972C30.9203 50.0918 28.3833 52.6296 25.2645 52.6296C22.1445 52.6296 19.6062 50.0916 19.6062 46.972C19.6062 43.8532 22.1444 41.316 25.2645 41.316C28.3833 41.316 30.9203 43.8532 30.9203 46.972ZM29.6393 46.972C29.6393 44.5595 27.6771 42.5969 25.2645 42.5969C22.8508 42.5969 20.8872 44.5595 20.8872 46.972C20.8872 49.3852 22.8506 51.3487 25.2645 51.3487C27.6771 51.3487 29.6393 49.3853 29.6393 46.972ZM47.4793 36.3401C47.5388 36.3996 47.6094 36.4468 47.6871 36.479C47.7648 36.5112 47.8481 36.5278 47.9322 36.5278C48.0163 36.5278 48.0996 36.5112 48.1773 36.479C48.255 36.4468 48.3256 36.3996 48.3851 36.3401L51.4331 33.2921C51.4926 33.2326 51.5398 33.162 51.572 33.0843C51.6042 33.0066 51.6208 32.9233 51.6208 32.8392C51.6208 32.755 51.6042 32.6718 51.572 32.5941C51.5398 32.5163 51.4926 32.4457 51.4331 32.3863C51.3737 32.3268 51.3031 32.2796 51.2253 32.2474C51.1476 32.2152 51.0643 32.1986 50.9802 32.1986C50.8961 32.1986 50.8128 32.2152 50.7351 32.2474C50.6574 32.2796 50.5868 32.3268 50.5273 32.3863L47.9322 34.9814L47.2404 34.2896C47.1809 34.2301 47.1103 34.1829 47.0326 34.1507C46.9549 34.1185 46.8716 34.102 46.7875 34.102C46.7034 34.102 46.6201 34.1185 46.5424 34.1507C46.4647 34.1829 46.3941 34.2301 46.3346 34.2896C46.2751 34.3491 46.2279 34.4197 46.1957 34.4974C46.1635 34.5751 46.1469 34.6584 46.1469 34.7425C46.1469 34.8266 46.1635 34.9099 46.1957 34.9876C46.2279 35.0653 46.2751 35.1359 46.3346 35.1954L47.4793 36.3401Z" fill="url(#paint0_linear_0_1821)" stroke="url(#paint1_linear_0_1821)" stroke-width="0.5"/>
<defs>
<linearGradient id="paint0_linear_0_1821" x1="57.4765" y1="61.8431" x2="10.8612" y2="12.2012" gradientUnits="userSpaceOnUse">
<stop stop-color="#31393C"/>
<stop offset="1" stop-color="#3D96F5"/>
</linearGradient>
<linearGradient id="paint1_linear_0_1821" x1="48" y1="59" x2="-2.44403e-06" y2="-0.499997" gradientUnits="userSpaceOnUse">
<stop stop-color="#31393C"/>
<stop offset="1" stop-color="#3E96F4"/>
</linearGradient>
</defs>
</svg>
