<svg width="62" height="62" viewBox="0 0 62 62" fill="none" xmlns="http://www.w3.org/2000/svg">
<path d="M60.4939 56.6228H59.9475V30.4899C59.9475 29.5987 59.1178 28.9999 58.3429 28.9999H57.4374V1.50607C57.4374 0.675599 56.8256 0 56.0739 0H51.3854C50.6337 0 50.022 0.675599 50.022 1.50607V28.9999H46.7444V6.52632C46.7444 5.69597 46.1326 5.02024 45.3807 5.02024H40.6925C39.9405 5.02024 39.3288 5.69584 39.3288 6.52632V28.9999H34.2007V18.065L36.6335 17.6377C36.9826 17.577 37.2991 17.3948 37.527 17.1234C37.7549 16.852 37.8796 16.5088 37.8791 16.1544V13.8633C37.8795 13.6433 37.8317 13.4259 37.739 13.2265C37.6463 13.027 37.5109 12.8503 37.3424 12.7089C37.174 12.5674 36.9766 12.4646 36.7641 12.4078C36.5516 12.351 36.3292 12.3415 36.1126 12.3799L4.04004 18.0125C3.69093 18.0733 3.37453 18.2555 3.14664 18.5269C2.91876 18.7982 2.79405 19.1414 2.79452 19.4957V21.7868C2.79411 21.9845 2.83269 22.1803 2.90805 22.3631C2.98342 22.5458 3.09409 22.7119 3.23372 22.8518C3.37336 22.9918 3.53923 23.1028 3.72182 23.1785C3.90442 23.2542 4.10015 23.2932 4.29783 23.2932C4.38518 23.2932 4.47316 23.2855 4.56102 23.2702L6.47285 22.9345V41.0202H3.09335C2.86034 41.0202 2.63688 41.1127 2.47212 41.2775C2.30737 41.4422 2.21481 41.6657 2.21481 41.8987V56.6228H1.50607C0.675599 56.6228 0 57.2984 0 58.1289V60.4939C0 61.3244 0.675599 62 1.50607 62H60.4939C61.3244 62 62 61.3244 62 60.4939V58.1289C62 57.2985 61.3244 56.6228 60.4939 56.6228ZM58.1904 56.6228H25.3449L25.3451 30.757H58.1903L58.1904 56.6228ZM55.6803 1.75709V3.40247H51.7789V1.75709H55.6803ZM51.7789 5.15955H55.6803V28.9999H51.7789V5.15955ZM44.987 6.77733V8.42271H41.0855V6.77733H44.987ZM41.0855 10.1799H44.987V28.9999H41.0855V10.1799ZM4.55173 21.4879V19.7066L36.1217 14.1622V15.9435L4.55173 21.4879ZM8.23006 22.626L32.4432 18.3737V29.0001H24.9954C24.1799 29.0001 23.5879 29.6267 23.5879 30.4901V41.0203H8.23006V22.626ZM3.97202 42.7772H23.5879V56.6229H21.087V47.1392C21.087 46.3087 20.4114 45.6331 19.581 45.6331H7.97892C7.14857 45.6331 6.47298 46.3087 6.47298 47.1392V56.6229H3.97202V42.7772ZM8.23006 56.6228V47.3902H12.9015V56.6228H8.23006ZM14.6586 47.3902H19.3301V56.6228H14.6586V47.3902ZM60.2429 60.2429H1.75709V58.3799H60.2429V60.2429ZM50.0122 52.4824H53.8493C54.6797 52.4824 55.3553 51.8068 55.3553 50.9763V47.1392C55.3553 46.3089 54.6797 45.6331 53.8493 45.6331H50.0122C49.1818 45.6331 48.5062 46.3087 48.5062 47.1392V50.9763C48.5062 51.8066 49.1818 52.4824 50.0122 52.4824ZM50.2633 47.3902H53.5982V50.7253H50.2633V47.3902ZM29.6861 52.4824H33.5232C34.3535 52.4824 35.0291 51.8068 35.0291 50.9763V47.1392C35.0291 46.3089 34.3535 45.6331 33.5232 45.6331H29.6861C28.8556 45.6331 28.18 46.3087 28.18 47.1392V50.9763C28.18 51.8066 28.8556 52.4824 29.6861 52.4824ZM29.9371 47.3902H33.272V50.7253H29.9371V47.3902ZM39.8492 52.4824H43.6863C44.5168 52.4824 45.1924 51.8068 45.1924 50.9763V47.1392C45.1924 46.3089 44.5168 45.6331 43.6863 45.6331H39.8492C39.0187 45.6331 38.3431 46.3087 38.3431 47.1392V50.9763C38.3431 51.8066 39.0187 52.4824 39.8492 52.4824ZM40.1002 47.3902H43.4353V50.7253H40.1002V47.3902ZM29.6861 41.4926H33.5232C34.3535 41.4926 35.0291 40.817 35.0291 39.9865V36.1494C35.0291 35.3189 34.3535 34.6433 33.5232 34.6433H29.6861C28.8556 34.6433 28.18 35.3189 28.18 36.1494V39.9865C28.18 40.8168 28.8556 41.4926 29.6861 41.4926ZM29.9371 36.4004H33.272V39.7355H29.9371V36.4004ZM50.0122 41.4926H53.8493C54.6797 41.4926 55.3553 40.817 55.3553 39.9865V36.1494C55.3553 35.319 54.6797 34.6433 53.8493 34.6433H50.0122C49.1818 34.6433 48.5062 35.3189 48.5062 36.1494V39.9865C48.5062 40.8168 49.1818 41.4926 50.0122 41.4926ZM50.2633 36.4004H53.5982V39.7355H50.2633V36.4004ZM39.8492 41.4926H43.6863C44.5168 41.4926 45.1924 40.817 45.1924 39.9865V36.1494C45.1924 35.319 44.5168 34.6433 43.6863 34.6433H39.8492C39.0187 34.6433 38.3431 35.3189 38.3431 36.1494V39.9865C38.3431 40.8168 39.0187 41.4926 39.8492 41.4926ZM40.1002 36.4004H43.4353V39.7355H40.1002V36.4004ZM15.6986 23.4551H11.8615C11.0311 23.4551 10.3555 24.1307 10.3555 24.9612V28.7982C10.3555 29.6287 11.0311 30.3043 11.8615 30.3043H15.6986C16.529 30.3043 17.2046 29.6287 17.2046 28.7982V24.9612C17.2046 24.1308 16.529 23.4551 15.6986 23.4551ZM15.4475 28.5474H12.1126V25.2123H15.4475V28.5474ZM15.6986 32.1717H11.8615C11.0311 32.1717 10.3555 32.8473 10.3555 33.6778V37.515C10.3555 38.3455 11.0311 39.0211 11.8615 39.0211H15.6986C16.529 39.0211 17.2046 38.3455 17.2046 37.515V33.6778C17.2046 32.8473 16.529 32.1717 15.6986 32.1717ZM15.4475 37.2639H12.1126V33.9288H15.4475V37.2639Z" fill="url(#paint0_linear_0_1811)"/>
<defs>
<linearGradient id="paint0_linear_0_1811" x1="62.4963" y1="62.1002" x2="15.966" y2="7.72034" gradientUnits="userSpaceOnUse">
<stop stop-color="#31393C"/>
<stop offset="1" stop-color="#3D96F5"/>
</linearGradient>
</defs>
</svg>
