<svg width="62" height="62" viewBox="0 0 62 62" fill="none" xmlns="http://www.w3.org/2000/svg">
<path fill-rule="evenodd" clip-rule="evenodd" d="M0 48.5375C0 51.0885 2.06813 53.1567 4.61914 53.1567H6.73203C7.28269 53.1567 7.72908 52.7103 7.72908 52.1596C7.72908 51.609 7.28269 51.1626 6.73203 51.1626H4.61914C3.16944 51.1626 1.9941 49.9872 1.9941 48.5375V24.9483C1.9941 23.1097 3.48468 21.6191 5.32328 21.6191H32.8466C33.3973 21.6191 33.8436 21.1727 33.8436 20.6221C33.8436 20.0714 33.3973 19.625 32.8466 19.625H5.32328C2.38337 19.625 0 22.0084 0 24.9483V48.5375Z" fill="url(#paint0_linear_0_1830)"/>
<path fill-rule="evenodd" clip-rule="evenodd" d="M10.8349 52.1596C10.8349 52.7103 11.2813 53.1567 11.832 53.1567H43.5169C44.0675 53.1567 44.5139 52.7103 44.5139 52.1596C44.5139 51.609 44.0675 51.1626 43.5169 51.1626H11.832C11.2813 51.1626 10.8349 51.609 10.8349 52.1596Z" fill="url(#paint1_linear_0_1830)"/>
<path fill-rule="evenodd" clip-rule="evenodd" d="M48.2049 45.5464C48.7556 45.5464 49.202 45.1 49.202 44.5493V35.2301C49.202 34.6794 48.7556 34.233 48.2049 34.233C47.6542 34.233 47.2079 34.6794 47.2079 35.2301V44.5493C47.2079 45.1 47.6542 45.5464 48.2049 45.5464Z" fill="url(#paint2_linear_0_1830)"/>
<path fill-rule="evenodd" clip-rule="evenodd" d="M17.5958 61.6215C17.7849 61.8606 18.0729 62 18.3777 62H30.8242C31.129 62 31.4171 61.8606 31.6062 61.6215C31.7953 61.3825 31.8646 61.0701 31.7945 60.7734L29.7026 51.9301C29.5962 51.4803 29.1946 51.1626 28.7323 51.1626H20.4696C20.0074 51.1626 19.6057 51.4803 19.4993 51.9301L17.4075 60.7734C17.3373 61.0701 17.4067 61.3825 17.5958 61.6215ZM19.6381 60.0059L21.2583 53.1567H27.9436L29.5638 60.0059H19.6381Z" fill="url(#paint3_linear_0_1830)"/>
<path fill-rule="evenodd" clip-rule="evenodd" d="M0 44.5493C0 45.1 0.446394 45.5464 0.997049 45.5464H48.2049C48.7556 45.5464 49.202 45.1 49.202 44.5493C49.202 43.9987 48.7557 43.5523 48.205 43.5523H0.997049C0.446394 43.5523 0 43.9987 0 44.5493Z" fill="url(#paint4_linear_0_1830)"/>
<path fill-rule="evenodd" clip-rule="evenodd" d="M13.4622 61.003C13.4622 61.5536 13.9085 62 14.4592 62H34.7429C35.2936 62 35.74 61.5536 35.74 61.003C35.74 60.4523 35.2936 60.0059 34.7429 60.0059H14.4592C13.9085 60.0059 13.4622 60.4523 13.4622 61.003Z" fill="url(#paint5_linear_0_1830)"/>
<path fill-rule="evenodd" clip-rule="evenodd" d="M23.2351 28.1341L23.9957 25.466C23.999 25.4542 24.0026 25.4425 24.0064 25.4308C24.3638 24.3325 25.9501 24.418 26.1816 25.5544L27.2504 31.1467C27.3537 31.6876 26.9991 32.2099 26.4582 32.3132C25.9173 32.4166 25.3951 32.0619 25.2917 31.5211L24.911 29.529L24.3314 31.5624C24.3281 31.574 24.3246 31.5855 24.3209 31.5969C23.9858 32.6294 22.5276 32.6374 22.1817 31.608C22.1778 31.5963 22.174 31.5845 22.1705 31.5726L21.5698 29.5363L21.2134 31.511C21.1156 32.0529 20.597 32.4129 20.0551 32.3151C19.5132 32.2173 19.1532 31.6987 19.251 31.1568L20.2578 25.5781L20.26 25.5661C20.4794 24.4306 22.0646 24.3224 22.4339 25.4206C22.4378 25.4324 22.4416 25.4443 22.4451 25.4562L23.2351 28.1341Z" fill="url(#paint6_linear_0_1830)"/>
<path fill-rule="evenodd" clip-rule="evenodd" d="M8.91773 30.3815C7.88647 30.3815 7.05042 29.5455 7.05042 28.5142C7.05042 27.483 7.88649 26.6469 8.91773 26.6469L8.91931 26.6469C9.29045 26.6463 9.65323 26.7572 9.96069 26.965C10.4168 27.2735 11.0367 27.1537 11.3451 26.6976C11.6536 26.2414 11.5338 25.6216 11.0777 25.3131C10.4397 24.8818 9.68702 24.6518 8.91694 24.6528C6.78476 24.6532 5.05633 26.3819 5.05633 28.5142C5.05633 30.6469 6.78521 32.3756 8.91773 32.3756C9.79296 32.3756 10.5606 32.0821 11.153 31.5544C11.2723 31.448 11.3843 31.3325 11.4869 31.2099C11.8403 30.7876 11.7844 30.1588 11.3621 29.8054C10.9398 29.452 10.311 29.5078 9.95761 29.9301C9.91711 29.9785 9.87314 30.0239 9.82605 30.0659C9.61625 30.2528 9.32761 30.3815 8.91773 30.3815Z" fill="url(#paint7_linear_0_1830)"/>
<path fill-rule="evenodd" clip-rule="evenodd" d="M17.6846 32.127C18.0979 31.7632 18.1381 31.1332 17.7743 30.7198L15.3678 27.9856C15.0039 27.5723 14.3739 27.5321 13.9606 27.8959C13.5472 28.2598 13.5071 28.8898 13.8709 29.3031L16.2774 32.0373C16.6412 32.4507 17.2712 32.4908 17.6846 32.127Z" fill="url(#paint8_linear_0_1830)"/>
<path fill-rule="evenodd" clip-rule="evenodd" d="M13.9286 32.3756C14.4793 32.3756 14.9257 31.9292 14.9257 31.3786V25.6499C14.9257 25.0992 14.4793 24.6528 13.9286 24.6528C13.378 24.6528 12.9316 25.0992 12.9316 25.6499V31.3786C12.9316 31.9292 13.378 32.3756 13.9286 32.3756Z" fill="url(#paint9_linear_0_1830)"/>
<path fill-rule="evenodd" clip-rule="evenodd" d="M13.9471 29.6311L13.9411 28.6341L12.9441 28.6403C12.9475 29.1909 13.3966 29.6344 13.9471 29.6311ZM12.9335 25.6532C12.9326 25.3882 13.0372 25.1337 13.2243 24.946C13.4114 24.7583 13.6655 24.6528 13.9305 24.6528H15.4529C16.7961 24.6528 18.023 25.7081 18.023 27.1387C18.023 28.5693 16.7961 29.6246 15.4529 29.6246C15.2445 29.6246 14.8691 29.6263 14.5435 29.6279L13.9471 29.6311L13.9411 28.6341L12.9441 28.6403L12.9407 28.0471C12.939 27.7255 12.9373 27.349 12.9373 27.1387C12.9373 26.9703 12.9364 26.5997 12.9354 26.2696L12.9335 25.6532ZM14.9328 27.632C14.932 27.4388 14.9314 27.2595 14.9314 27.1387C14.9314 27.0324 14.9311 26.8491 14.9305 26.6469H15.4529C15.8138 26.6469 16.0289 26.9248 16.0289 27.1387C16.0289 27.3527 15.8137 27.6305 15.4529 27.6305C15.3237 27.6305 15.1342 27.6311 14.9328 27.632Z" fill="url(#paint10_linear_0_1830)"/>
<path fill-rule="evenodd" clip-rule="evenodd" d="M39.4414 39.8551C39.7783 40.0243 40.1818 39.989 40.4842 39.7639L45.5054 36.0263H52.9371C55.2678 36.0263 57.1571 34.137 57.1571 31.8063V24.7204C57.1571 24.1698 56.7107 23.7234 56.1601 23.7234C55.6094 23.7234 55.163 24.1698 55.163 24.7204V31.8063C55.163 33.0357 54.1665 34.0322 52.9371 34.0322H45.1751C44.9606 34.0322 44.7518 34.1014 44.5798 34.2295L40.8859 36.979V35.0293C40.8859 34.4786 40.4395 34.0322 39.8889 34.0322H36.0697C34.8402 34.0322 33.8436 33.0356 33.8436 31.8063V12.0582C33.8436 10.829 34.8402 9.83231 36.0697 9.83231H52.9371C54.1665 9.83231 55.163 10.8289 55.163 12.0582V19.8946C55.163 20.4453 55.6094 20.8916 56.1601 20.8916C56.7107 20.8916 57.1571 20.4453 57.1571 19.8946V12.0582C57.1571 9.72767 55.2678 7.83821 52.9371 7.83821H36.0697C33.739 7.83821 31.8495 9.7276 31.8495 12.0582V31.8063C31.8495 34.1371 33.739 36.0263 36.0697 36.0263H38.8918V38.9641C38.8918 39.3411 39.1045 39.6858 39.4414 39.8551Z" fill="url(#paint11_linear_0_1830)"/>
<path fill-rule="evenodd" clip-rule="evenodd" d="M39.2397 25.157C39.7904 25.157 40.2368 24.7106 40.2368 24.16V20.0628C40.2368 19.5121 39.7904 19.0657 39.2397 19.0657C38.6891 19.0657 38.2427 19.5121 38.2427 20.0628V24.16C38.2427 24.7106 38.6891 25.157 39.2397 25.157Z" fill="url(#paint12_linear_0_1830)"/>
<path fill-rule="evenodd" clip-rule="evenodd" d="M49.7667 25.157C50.3174 25.157 50.7637 24.7106 50.7637 24.16V20.0628C50.7637 19.5121 50.3174 19.0657 49.7667 19.0657C49.216 19.0657 48.7696 19.5121 48.7696 20.0628V24.16C48.7696 24.7106 49.216 25.157 49.7667 25.157Z" fill="url(#paint13_linear_0_1830)"/>
<path fill-rule="evenodd" clip-rule="evenodd" d="M44.5032 23.2466C44.3995 23.2466 44.3154 23.1625 44.3154 23.0589V21.164C44.3154 21.0604 44.3995 20.9763 44.5032 20.9763C44.6068 20.9763 44.6909 21.0604 44.6909 21.164V23.0589C44.6909 23.1625 44.6068 23.2466 44.5032 23.2466ZM42.3213 23.0589C42.3213 24.264 43.2983 25.2407 44.5032 25.2407C45.708 25.2407 46.685 24.264 46.685 23.0589V21.164C46.685 19.9591 45.7081 18.9822 44.5032 18.9822C43.2982 18.9822 42.3213 19.9591 42.3213 21.164V23.0589Z" fill="url(#paint14_linear_0_1830)"/>
<path fill-rule="evenodd" clip-rule="evenodd" d="M44.5033 18.1974C45.054 18.1974 45.5004 17.751 45.5004 17.2004V13.1032C45.5004 12.5525 45.054 12.1061 44.5033 12.1061C43.9527 12.1061 43.5063 12.5525 43.5063 13.1032V17.2004C43.5063 17.751 43.9527 18.1974 44.5033 18.1974Z" fill="url(#paint15_linear_0_1830)"/>
<path fill-rule="evenodd" clip-rule="evenodd" d="M39.24 16.2869C39.1364 16.2869 39.0523 16.2028 39.0523 16.0991V14.2043C39.0523 14.1006 39.1363 14.0166 39.24 14.0166C39.3437 14.0166 39.4278 14.1006 39.4278 14.2043V16.0991C39.4278 16.2028 39.3436 16.2869 39.24 16.2869ZM37.0582 16.0991C37.0582 17.3041 38.0351 18.281 39.24 18.281C40.4449 18.281 41.4219 17.3041 41.4219 16.0991V14.2043C41.4219 12.9992 40.4449 12.0225 39.24 12.0225C38.0352 12.0225 37.0582 12.9992 37.0582 14.2043V16.0991Z" fill="url(#paint16_linear_0_1830)"/>
<path fill-rule="evenodd" clip-rule="evenodd" d="M49.7665 16.2869C49.6629 16.2869 49.5788 16.2028 49.5788 16.0991V14.2043C49.5788 14.1006 49.6628 14.0166 49.7665 14.0166C49.8702 14.0166 49.9543 14.1006 49.9543 14.2043V16.0991C49.9543 16.2028 49.8701 16.2869 49.7665 16.2869ZM47.5847 16.0991C47.5847 17.3041 48.5616 18.281 49.7665 18.281C50.9714 18.281 51.9484 17.3041 51.9484 16.0991V14.2043C51.9484 12.9992 50.9714 12.0225 49.7665 12.0225C48.5617 12.0225 47.5847 12.9992 47.5847 14.2043V16.0991Z" fill="url(#paint17_linear_0_1830)"/>
<path fill-rule="evenodd" clip-rule="evenodd" d="M44.5033 32.1168C45.054 32.1168 45.5004 31.6704 45.5004 31.1197V27.0225C45.5004 26.4719 45.054 26.0255 44.5033 26.0255C43.9527 26.0255 43.5063 26.4719 43.5063 27.0225V31.1197C43.5063 31.6704 43.9527 32.1168 44.5033 32.1168Z" fill="url(#paint18_linear_0_1830)"/>
<path fill-rule="evenodd" clip-rule="evenodd" d="M39.24 30.2062C39.1364 30.2062 39.0523 30.1221 39.0523 30.0185V28.1236C39.0523 28.02 39.1363 27.9359 39.24 27.9359C39.3437 27.9359 39.4278 28.02 39.4278 28.1236V30.0185C39.4278 30.1221 39.3436 30.2062 39.24 30.2062ZM37.0582 30.0185C37.0582 31.2234 38.0351 32.2003 39.24 32.2003C40.4449 32.2003 41.4219 31.2234 41.4219 30.0185V28.1236C41.4219 26.9185 40.4449 25.9418 39.24 25.9418C38.0352 25.9418 37.0582 26.9185 37.0582 28.1236V30.0185Z" fill="url(#paint19_linear_0_1830)"/>
<path fill-rule="evenodd" clip-rule="evenodd" d="M49.7665 30.2062C49.6629 30.2062 49.5788 30.1221 49.5788 30.0185V28.1236C49.5788 28.02 49.6628 27.9359 49.7665 27.9359C49.8702 27.9359 49.9543 28.02 49.9543 28.1236V30.0185C49.9543 30.1221 49.8701 30.2062 49.7665 30.2062ZM47.5847 30.0185C47.5847 31.2234 48.5616 32.2003 49.7665 32.2003C50.9714 32.2003 51.9484 31.2234 51.9484 30.0185V28.1236C51.9484 26.9185 50.9714 25.9418 49.7665 25.9418C48.5617 25.9418 47.5847 26.9185 47.5847 28.1236V30.0185Z" fill="url(#paint20_linear_0_1830)"/>
<path fill-rule="evenodd" clip-rule="evenodd" d="M46.0099 56.6756L47.7859 55.7712C48.8255 57.1463 50.4751 58.0377 52.3354 58.0377C55.4844 58.0377 58.0374 55.4852 58.0379 52.3362M59.5672 49.7713C59.8512 50.5723 60.006 51.435 60.006 52.3353C60.006 56.5717 56.5718 60.0059 52.3354 60.0059C49.7113 60.0059 47.3937 58.6884 46.0099 56.6756M43.7221 56.7228C45.3193 59.8529 48.5757 62 52.3354 62C57.6731 62 62.0001 57.673 62.0001 52.3353C62.0001 50.7576 61.6212 49.2656 60.9488 47.9479C60.6986 47.4577 60.0986 47.2629 59.6082 47.5126L56.0756 49.3117C55.8397 49.4318 55.6613 49.6408 55.5797 49.8925C55.498 50.1442 55.5198 50.4181 55.6402 50.6538C55.906 51.1741 56.0443 51.7501 56.0438 52.3344C56.0438 54.3824 54.3835 56.0436 52.3354 56.0436C50.8954 56.0436 49.6459 55.2221 49.031 54.0173C48.7808 53.5271 48.1808 53.3323 47.6904 53.582L44.1577 55.3811C43.9219 55.5012 43.7435 55.71 43.6618 55.9617C43.5801 56.2133 43.6018 56.4871 43.7221 56.7228Z" fill="url(#paint21_linear_0_1830)"/>
<path fill-rule="evenodd" clip-rule="evenodd" d="M43.7221 56.7228C43.9722 57.213 44.5722 57.4077 45.0626 57.158L48.5954 55.359C48.8312 55.2389 49.0096 55.0299 49.0913 54.7782C49.173 54.5264 49.1514 54.253 49.031 54.0173C48.7652 53.497 48.6266 52.9205 48.6272 52.3363L48.6272 52.3353C48.6272 50.2873 50.2874 48.627 52.3355 48.627C52.8862 48.627 53.3326 48.1806 53.3326 47.6299V43.6676C53.3326 43.1169 52.8862 42.6706 52.3355 42.6706C46.9978 42.6706 42.6708 46.9977 42.6708 52.3353C42.6708 53.913 43.0497 55.4051 43.7221 56.7228ZM45.1037 54.8993C44.8197 54.0983 44.6649 53.2356 44.6649 52.3353C44.6649 48.4369 47.5731 45.2176 51.3385 44.7289V46.7198C48.6646 47.1913 46.6334 49.5258 46.6331 52.3347C46.6326 52.8991 46.7162 53.4586 46.8796 53.9949L45.1037 54.8993Z" fill="url(#paint22_linear_0_1830)"/>
<path fill-rule="evenodd" clip-rule="evenodd" d="M55.6402 50.6538C55.8903 51.144 56.4899 51.3384 56.9804 51.0886L60.513 49.2895C60.7487 49.1695 60.9271 48.9606 61.0088 48.709C61.0905 48.4574 61.069 48.1836 60.9488 47.9479C59.3515 44.8178 56.0953 42.6706 52.3355 42.6706C51.7849 42.6706 51.3381 43.1171 51.3381 43.6677V47.6299C51.3381 48.1806 51.7849 48.627 52.3355 48.627C53.7757 48.627 55.0253 49.4489 55.6402 50.6538ZM56.8849 48.8994C56.0354 47.7757 54.7786 46.9751 53.3322 46.7198V44.729C55.5407 45.0156 57.4552 46.2415 58.6607 47.9951L56.8849 48.8994Z" fill="url(#paint23_linear_0_1830)"/>
<path fill-rule="evenodd" clip-rule="evenodd" d="M5.08347 17.0172C5.63413 17.0172 6.08052 16.5708 6.08052 16.0202V11.4159H9.44688V16.0202C9.44688 16.5708 9.89327 17.0172 10.4439 17.0172C10.9946 17.0172 11.441 16.5708 11.441 16.0202V10.4188C11.441 9.86818 10.9946 9.42179 10.4439 9.42179H5.08347C4.53282 9.42179 4.08642 9.86818 4.08642 10.4188V16.0202C4.08642 16.5708 4.53282 17.0172 5.08347 17.0172Z" fill="url(#paint24_linear_0_1830)"/>
<path fill-rule="evenodd" clip-rule="evenodd" d="M21.474 17.0172C22.0246 17.0172 22.471 16.5708 22.471 16.0202V7.98963H25.8374V16.0202C25.8374 16.5708 26.2838 17.0172 26.8344 17.0172C27.3851 17.0172 27.8315 16.5708 27.8315 16.0202V6.99258C27.8315 6.44192 27.3851 5.99553 26.8344 5.99553H21.474C20.9233 5.99553 20.4769 6.44192 20.4769 6.99258V16.0202C20.4769 16.5708 20.9233 17.0172 21.474 17.0172Z" fill="url(#paint25_linear_0_1830)"/>
<path fill-rule="evenodd" clip-rule="evenodd" d="M13.2787 17.0172C13.8294 17.0172 14.2758 16.5708 14.2758 16.0202V1.9941H17.6421V16.0202C17.6421 16.5708 18.0885 17.0172 18.6392 17.0172C19.1898 17.0172 19.6362 16.5708 19.6362 16.0202V0.997049C19.6362 0.446395 19.1898 0 18.6392 0H13.2787C12.7281 0 12.2817 0.446395 12.2817 0.997049V16.0202C12.2817 16.5708 12.7281 17.0172 13.2787 17.0172Z" fill="url(#paint26_linear_0_1830)"/>
<path fill-rule="evenodd" clip-rule="evenodd" d="M5.08486 35.4249C5.08486 35.9756 5.53125 36.422 6.08191 36.422H27.2722C27.8229 36.422 28.2693 35.9756 28.2693 35.4249C28.2693 34.8743 27.8229 34.4279 27.2722 34.4279H6.08191C5.53125 34.4279 5.08486 34.8743 5.08486 35.4249Z" fill="url(#paint27_linear_0_1830)"/>
<path fill-rule="evenodd" clip-rule="evenodd" d="M5.08486 39.3498C5.08486 39.9005 5.53125 40.3469 6.08191 40.3469H17.5823C18.1329 40.3469 18.5793 39.9005 18.5793 39.3498C18.5793 38.7992 18.1329 38.3528 17.5823 38.3528H6.08191C5.53125 38.3528 5.08486 38.7992 5.08486 39.3498Z" fill="url(#paint28_linear_0_1830)"/>
<defs>
<linearGradient id="paint0_linear_0_1830" x1="3.61667" y1="5.31189" x2="63.512" y2="59.9609" gradientUnits="userSpaceOnUse">
<stop stop-color="#3D96F5"/>
<stop offset="1" stop-color="#31393C"/>
</linearGradient>
<linearGradient id="paint1_linear_0_1830" x1="3.61667" y1="5.31189" x2="63.512" y2="59.9609" gradientUnits="userSpaceOnUse">
<stop stop-color="#3D96F5"/>
<stop offset="1" stop-color="#31393C"/>
</linearGradient>
<linearGradient id="paint2_linear_0_1830" x1="3.61667" y1="5.31189" x2="63.512" y2="59.9609" gradientUnits="userSpaceOnUse">
<stop stop-color="#3D96F5"/>
<stop offset="1" stop-color="#31393C"/>
</linearGradient>
<linearGradient id="paint3_linear_0_1830" x1="3.61667" y1="5.31189" x2="63.512" y2="59.9609" gradientUnits="userSpaceOnUse">
<stop stop-color="#3D96F5"/>
<stop offset="1" stop-color="#31393C"/>
</linearGradient>
<linearGradient id="paint4_linear_0_1830" x1="3.61667" y1="5.31189" x2="63.512" y2="59.9609" gradientUnits="userSpaceOnUse">
<stop stop-color="#3D96F5"/>
<stop offset="1" stop-color="#31393C"/>
</linearGradient>
<linearGradient id="paint5_linear_0_1830" x1="3.61667" y1="5.31189" x2="63.512" y2="59.9609" gradientUnits="userSpaceOnUse">
<stop stop-color="#3D96F5"/>
<stop offset="1" stop-color="#31393C"/>
</linearGradient>
<linearGradient id="paint6_linear_0_1830" x1="3.61667" y1="5.31189" x2="63.512" y2="59.9609" gradientUnits="userSpaceOnUse">
<stop stop-color="#3D96F5"/>
<stop offset="1" stop-color="#31393C"/>
</linearGradient>
<linearGradient id="paint7_linear_0_1830" x1="3.61667" y1="5.31189" x2="63.512" y2="59.9609" gradientUnits="userSpaceOnUse">
<stop stop-color="#3D96F5"/>
<stop offset="1" stop-color="#31393C"/>
</linearGradient>
<linearGradient id="paint8_linear_0_1830" x1="3.61667" y1="5.31189" x2="63.512" y2="59.9609" gradientUnits="userSpaceOnUse">
<stop stop-color="#3D96F5"/>
<stop offset="1" stop-color="#31393C"/>
</linearGradient>
<linearGradient id="paint9_linear_0_1830" x1="3.61667" y1="5.31189" x2="63.512" y2="59.9609" gradientUnits="userSpaceOnUse">
<stop stop-color="#3D96F5"/>
<stop offset="1" stop-color="#31393C"/>
</linearGradient>
<linearGradient id="paint10_linear_0_1830" x1="3.61667" y1="5.31189" x2="63.512" y2="59.9609" gradientUnits="userSpaceOnUse">
<stop stop-color="#3D96F5"/>
<stop offset="1" stop-color="#31393C"/>
</linearGradient>
<linearGradient id="paint11_linear_0_1830" x1="3.61667" y1="5.31189" x2="63.512" y2="59.9609" gradientUnits="userSpaceOnUse">
<stop stop-color="#3D96F5"/>
<stop offset="1" stop-color="#31393C"/>
</linearGradient>
<linearGradient id="paint12_linear_0_1830" x1="3.61667" y1="5.31189" x2="63.512" y2="59.9609" gradientUnits="userSpaceOnUse">
<stop stop-color="#3D96F5"/>
<stop offset="1" stop-color="#31393C"/>
</linearGradient>
<linearGradient id="paint13_linear_0_1830" x1="3.61667" y1="5.31189" x2="63.512" y2="59.9609" gradientUnits="userSpaceOnUse">
<stop stop-color="#3D96F5"/>
<stop offset="1" stop-color="#31393C"/>
</linearGradient>
<linearGradient id="paint14_linear_0_1830" x1="3.61667" y1="5.31189" x2="63.512" y2="59.9609" gradientUnits="userSpaceOnUse">
<stop stop-color="#3D96F5"/>
<stop offset="1" stop-color="#31393C"/>
</linearGradient>
<linearGradient id="paint15_linear_0_1830" x1="3.61667" y1="5.31189" x2="63.512" y2="59.9609" gradientUnits="userSpaceOnUse">
<stop stop-color="#3D96F5"/>
<stop offset="1" stop-color="#31393C"/>
</linearGradient>
<linearGradient id="paint16_linear_0_1830" x1="3.61667" y1="5.31189" x2="63.512" y2="59.9609" gradientUnits="userSpaceOnUse">
<stop stop-color="#3D96F5"/>
<stop offset="1" stop-color="#31393C"/>
</linearGradient>
<linearGradient id="paint17_linear_0_1830" x1="3.61667" y1="5.31189" x2="63.512" y2="59.9609" gradientUnits="userSpaceOnUse">
<stop stop-color="#3D96F5"/>
<stop offset="1" stop-color="#31393C"/>
</linearGradient>
<linearGradient id="paint18_linear_0_1830" x1="3.61667" y1="5.31189" x2="63.512" y2="59.9609" gradientUnits="userSpaceOnUse">
<stop stop-color="#3D96F5"/>
<stop offset="1" stop-color="#31393C"/>
</linearGradient>
<linearGradient id="paint19_linear_0_1830" x1="3.61667" y1="5.31189" x2="63.512" y2="59.9609" gradientUnits="userSpaceOnUse">
<stop stop-color="#3D96F5"/>
<stop offset="1" stop-color="#31393C"/>
</linearGradient>
<linearGradient id="paint20_linear_0_1830" x1="3.61667" y1="5.31189" x2="63.512" y2="59.9609" gradientUnits="userSpaceOnUse">
<stop stop-color="#3D96F5"/>
<stop offset="1" stop-color="#31393C"/>
</linearGradient>
<linearGradient id="paint21_linear_0_1830" x1="3.61667" y1="5.31189" x2="63.512" y2="59.9609" gradientUnits="userSpaceOnUse">
<stop stop-color="#3D96F5"/>
<stop offset="1" stop-color="#31393C"/>
</linearGradient>
<linearGradient id="paint22_linear_0_1830" x1="3.61667" y1="5.31189" x2="63.512" y2="59.9609" gradientUnits="userSpaceOnUse">
<stop stop-color="#3D96F5"/>
<stop offset="1" stop-color="#31393C"/>
</linearGradient>
<linearGradient id="paint23_linear_0_1830" x1="3.61667" y1="5.31189" x2="63.512" y2="59.9609" gradientUnits="userSpaceOnUse">
<stop stop-color="#3D96F5"/>
<stop offset="1" stop-color="#31393C"/>
</linearGradient>
<linearGradient id="paint24_linear_0_1830" x1="3.61667" y1="5.31189" x2="63.512" y2="59.9609" gradientUnits="userSpaceOnUse">
<stop stop-color="#3D96F5"/>
<stop offset="1" stop-color="#31393C"/>
</linearGradient>
<linearGradient id="paint25_linear_0_1830" x1="3.61667" y1="5.31189" x2="63.512" y2="59.9609" gradientUnits="userSpaceOnUse">
<stop stop-color="#3D96F5"/>
<stop offset="1" stop-color="#31393C"/>
</linearGradient>
<linearGradient id="paint26_linear_0_1830" x1="3.61667" y1="5.31189" x2="63.512" y2="59.9609" gradientUnits="userSpaceOnUse">
<stop stop-color="#3D96F5"/>
<stop offset="1" stop-color="#31393C"/>
</linearGradient>
<linearGradient id="paint27_linear_0_1830" x1="3.61667" y1="5.31189" x2="63.512" y2="59.9609" gradientUnits="userSpaceOnUse">
<stop stop-color="#3D96F5"/>
<stop offset="1" stop-color="#31393C"/>
</linearGradient>
<linearGradient id="paint28_linear_0_1830" x1="3.61667" y1="5.31189" x2="63.512" y2="59.9609" gradientUnits="userSpaceOnUse">
<stop stop-color="#3D96F5"/>
<stop offset="1" stop-color="#31393C"/>
</linearGradient>
</defs>
</svg>
