<svg width="42" height="42" viewBox="0 0 42 42" fill="none" xmlns="http://www.w3.org/2000/svg">
<path d="M30.7191 20.3437H28.5181C28.505 19.9467 28.3687 19.5637 28.128 19.2481C27.8873 18.9325 27.5543 18.7 27.1754 18.583C27.1418 18.4968 27.1063 18.4112 27.069 18.3261C27.2542 17.9751 27.3254 17.5748 27.2726 17.1812C27.2197 16.7877 27.0455 16.4205 26.7742 16.131L28.3311 14.5733C28.3919 14.5123 28.4401 14.44 28.473 14.3603C28.5059 14.2806 28.5228 14.1952 28.5228 14.109C28.5227 14.0228 28.5057 13.9375 28.4727 13.8578C28.4398 13.7782 28.3915 13.7058 28.3306 13.6449C28.2697 13.584 28.1975 13.5357 28.118 13.5027C28.0384 13.4698 27.9532 13.4528 27.8672 13.4529C27.7811 13.4529 27.696 13.4699 27.6165 13.503C27.537 13.536 27.4648 13.5844 27.404 13.6454L25.8468 15.204C25.558 14.9309 25.191 14.7554 24.7974 14.7023C24.4038 14.6492 24.0036 14.7212 23.653 14.908C23.5685 14.8708 23.4833 14.8354 23.3975 14.8017C23.2801 14.4223 23.0476 14.089 22.7323 13.8482C22.417 13.6074 22.0345 13.4711 21.6383 13.4584V11.2553C21.6383 11.0811 21.5692 10.9139 21.4462 10.7907C21.3232 10.6675 21.1564 10.5983 20.9825 10.5983C20.8086 10.5983 20.6418 10.6675 20.5188 10.7907C20.3958 10.9139 20.3267 11.0811 20.3267 11.2553V13.4584C19.9305 13.4712 19.5481 13.6075 19.2329 13.8483C18.9176 14.0891 18.6851 14.4223 18.5678 14.8017C18.4817 14.8354 18.3965 14.8708 18.312 14.908C17.9614 14.7213 17.5612 14.6494 17.1677 14.7024C16.7742 14.7555 16.4073 14.931 16.1185 15.204L14.5613 13.6454C14.4385 13.5222 14.2719 13.4529 14.0981 13.4528C13.9242 13.4526 13.7575 13.5217 13.6345 13.6447C13.5115 13.7678 13.4424 13.9348 13.4423 14.1089C13.4421 14.2831 13.5111 14.4501 13.6339 14.5733L15.1904 16.1313C14.9192 16.4208 14.7451 16.788 14.6922 17.1816C14.6394 17.5751 14.7105 17.9754 14.8957 18.3264C14.8586 18.4113 14.8232 18.4968 14.7896 18.583C14.4106 18.6999 14.0776 18.9324 13.8368 19.248C13.596 19.5636 13.4596 19.9467 13.4466 20.3437H11.2458C11.0721 20.3437 10.9055 20.4129 10.7827 20.536C10.6599 20.659 10.5909 20.826 10.5909 21C10.5909 21.174 10.6599 21.341 10.7827 21.464C10.9055 21.5871 11.0721 21.6562 11.2458 21.6562H13.4466C13.4596 22.0533 13.596 22.4363 13.8367 22.7519C14.0774 23.0675 14.4104 23.3 14.7892 23.417C14.8229 23.5032 14.8583 23.5888 14.8957 23.6739C14.7105 24.025 14.6393 24.4252 14.6922 24.8188C14.745 25.2123 14.9192 25.5795 15.1904 25.869L13.6339 27.4267C13.5111 27.5498 13.4421 27.7168 13.4422 27.8909C13.4422 28.0649 13.5113 28.2319 13.6342 28.3549C13.7571 28.478 13.9238 28.5471 14.0975 28.547C14.2712 28.5469 14.4378 28.4777 14.5607 28.3546L16.1182 26.796C16.4069 27.069 16.7739 27.2445 17.1674 27.2976C17.5609 27.3506 17.9611 27.2787 18.3117 27.092C18.3962 27.1292 18.4813 27.1646 18.5671 27.1983C18.6845 27.5777 18.917 27.911 19.2324 28.1518C19.5477 28.3926 19.9301 28.5289 20.3264 28.5416V30.7447C20.3264 30.9189 20.3955 31.0861 20.5184 31.2093C20.6414 31.3325 20.8082 31.4017 20.9822 31.4017C21.1561 31.4017 21.3229 31.3325 21.4459 31.2093C21.5688 31.0861 21.6379 30.9189 21.6379 30.7447V28.5416C22.0341 28.5288 22.4165 28.3925 22.7318 28.1517C23.047 27.9109 23.2795 27.5777 23.3969 27.1983C23.4829 27.1646 23.5681 27.1292 23.6526 27.092C24.0032 27.2787 24.4034 27.3506 24.7969 27.2976C25.1904 27.2445 25.5574 27.069 25.8461 26.796L27.4033 28.3546C27.4641 28.4156 27.5363 28.464 27.6158 28.4971C27.6953 28.5301 27.7805 28.5472 27.8666 28.5472C27.9526 28.5473 28.0379 28.5304 28.1174 28.4974C28.1969 28.4645 28.2692 28.4162 28.3301 28.3552C28.391 28.2943 28.4393 28.222 28.4723 28.1423C28.5053 28.0627 28.5223 27.9773 28.5224 27.8911C28.5224 27.8049 28.5055 27.7195 28.4727 27.6398C28.4398 27.5601 28.3916 27.4877 28.3308 27.4267L26.7742 25.8687C27.0454 25.5791 27.2196 25.212 27.2724 24.8184C27.3252 24.4249 27.2541 24.0246 27.069 23.6736C27.1061 23.5887 27.1416 23.5032 27.1754 23.417C27.5543 23.3 27.8873 23.0675 28.128 22.7519C28.3687 22.4363 28.505 22.0533 28.5181 21.6562H30.7191C30.8928 21.6562 31.0594 21.5871 31.1822 21.464C31.3051 21.341 31.3741 21.174 31.3741 21C31.3741 20.826 31.3051 20.659 31.1822 20.536C31.0594 20.4129 30.8928 20.3437 30.7191 20.3437ZM27.2117 21.5939C27.2117 21.6719 27.1963 21.7492 27.1665 21.8212C27.1366 21.8933 27.0929 21.9588 27.0378 22.0139C26.9827 22.069 26.9173 22.1127 26.8453 22.1425C26.7733 22.1723 26.6962 22.1876 26.6183 22.1875C26.4979 22.1873 26.3806 22.2257 26.2835 22.2971C26.1864 22.3684 26.1146 22.469 26.0786 22.5842C25.9821 22.895 25.8571 23.1961 25.7053 23.4839C25.6489 23.5908 25.6283 23.713 25.6464 23.8326C25.6645 23.9521 25.7204 24.0627 25.8058 24.148L25.8068 24.1487C25.862 24.2038 25.9057 24.2693 25.9356 24.3413C25.9654 24.4134 25.9808 24.4907 25.9808 24.5687C25.9808 24.6467 25.9654 24.724 25.9356 24.796C25.9057 24.8681 25.862 24.9336 25.8068 24.9887L24.9678 25.8284C24.8565 25.9397 24.7056 26.0023 24.5483 26.0023C24.391 26.0023 24.2401 25.9397 24.1288 25.8284L24.1278 25.8274C24.0425 25.7418 23.9321 25.6859 23.8128 25.6678C23.6934 25.6497 23.5714 25.6703 23.4647 25.7266C23.177 25.8786 22.8759 26.0037 22.5654 26.1004C22.4505 26.1363 22.35 26.2081 22.2787 26.3052C22.2075 26.4024 22.169 26.5199 22.1691 26.6405C22.1691 26.7185 22.1538 26.7958 22.1239 26.8679C22.0941 26.94 22.0504 27.0055 21.9953 27.0607C21.9402 27.1158 21.8748 27.1595 21.8028 27.1894C21.7308 27.2192 21.6536 27.2345 21.5757 27.2344H20.3892C20.3114 27.2344 20.2343 27.2191 20.1623 27.1893C20.0903 27.1594 20.025 27.1157 19.9699 27.0605C19.9148 27.0054 19.8711 26.9399 19.8413 26.8678C19.8115 26.7957 19.7962 26.7185 19.7962 26.6405C19.7962 26.5199 19.7578 26.4024 19.6865 26.3052C19.6152 26.2081 19.5148 26.1363 19.3999 26.1004C19.0893 26.0036 18.7883 25.8784 18.5006 25.7263C18.3938 25.6699 18.2717 25.6493 18.1523 25.6675C18.0329 25.6857 17.9225 25.7417 17.8371 25.8274L17.8362 25.8284C17.7248 25.9397 17.574 26.0023 17.4167 26.0023C17.2593 26.0023 17.1085 25.9397 16.9971 25.8284L16.1585 24.9884C16.1034 24.9333 16.0597 24.8678 16.0299 24.7958C16 24.7237 15.9847 24.6465 15.9847 24.5685C15.9847 24.4905 16 24.4133 16.0299 24.3413C16.0597 24.2692 16.1034 24.2038 16.1585 24.1487L16.1591 24.148C16.2446 24.0627 16.3006 23.9522 16.3187 23.8326C16.3369 23.7131 16.3163 23.5908 16.26 23.4839C16.1082 23.1961 15.9832 22.895 15.8866 22.5842C15.8507 22.469 15.7788 22.3683 15.6817 22.297C15.5845 22.2256 15.4671 22.1872 15.3466 22.1875C15.2687 22.1876 15.1916 22.1723 15.1196 22.1425C15.0476 22.1127 14.9822 22.0689 14.9271 22.0138C14.8719 21.9586 14.8282 21.8931 14.7984 21.821C14.7686 21.7489 14.7532 21.6716 14.7532 21.5936V20.4061C14.7532 20.328 14.7686 20.2508 14.7984 20.1787C14.8282 20.1066 14.8719 20.0411 14.9271 19.9859C14.9822 19.9307 15.0476 19.887 15.1196 19.8572C15.1916 19.8274 15.2687 19.8121 15.3466 19.8122C15.4671 19.8125 15.5844 19.7742 15.6816 19.7028C15.7787 19.6315 15.8506 19.531 15.8866 19.4158C15.9832 19.1051 16.1082 18.8039 16.26 18.5161C16.3163 18.4092 16.3369 18.2869 16.3187 18.1674C16.3006 18.0478 16.2446 17.9373 16.1591 17.852L16.1585 17.8513C16.1033 17.7962 16.0596 17.7307 16.0297 17.6587C15.9999 17.5866 15.9845 17.5093 15.9845 17.4313C15.9845 17.3533 15.9999 17.276 16.0297 17.204C16.0596 17.1319 16.1033 17.0664 16.1585 17.0113L16.9975 16.1716C17.1088 16.0604 17.2596 15.9979 17.4168 15.9979C17.574 15.9979 17.7249 16.0604 17.8362 16.1716L17.8371 16.1726C17.9225 16.2582 18.033 16.3142 18.1524 16.3323C18.2718 16.3504 18.3938 16.3298 18.5006 16.2734C18.7883 16.1214 19.0893 15.9963 19.3999 15.8996C19.5148 15.8637 19.6152 15.7919 19.6865 15.6948C19.7578 15.5976 19.7962 15.4801 19.7962 15.3595C19.7962 15.2815 19.8115 15.2043 19.8413 15.1322C19.8711 15.0601 19.9148 14.9946 19.9699 14.9395C20.025 14.8843 20.0903 14.8406 20.1623 14.8107C20.2343 14.7809 20.3114 14.7656 20.3892 14.7656H21.5757C21.6536 14.7655 21.7308 14.7808 21.8028 14.8106C21.8748 14.8405 21.9402 14.8842 21.9953 14.9393C22.0504 14.9945 22.0941 15.06 22.1239 15.1321C22.1538 15.2042 22.1691 15.2815 22.1691 15.3595C22.169 15.4801 22.2075 15.5976 22.2787 15.6948C22.35 15.7919 22.4505 15.8637 22.5654 15.8996C22.8758 15.9964 23.1768 16.1216 23.4643 16.2737C23.5712 16.3301 23.6933 16.3507 23.8127 16.3325C23.9321 16.3143 24.0425 16.2583 24.1278 16.1726L24.1288 16.1716C24.2401 16.0603 24.391 15.9977 24.5483 15.9977C24.7056 15.9977 24.8565 16.0603 24.9678 16.1716L25.8068 17.0116C25.8619 17.0667 25.9055 17.1322 25.9353 17.2042C25.9651 17.2762 25.9804 17.3534 25.9804 17.4313C25.9804 17.5093 25.9651 17.5864 25.9353 17.6585C25.9055 17.7305 25.8619 17.7959 25.8068 17.851L25.8058 17.852C25.7203 17.9373 25.6644 18.0478 25.6462 18.1674C25.6281 18.2869 25.6487 18.4092 25.705 18.5161C25.8568 18.8039 25.9817 19.1051 26.0783 19.4158C26.1143 19.5311 26.1862 19.6318 26.2834 19.7031C26.3807 19.7745 26.4981 19.8128 26.6187 19.8125C26.7759 19.8125 26.9266 19.8751 27.0378 19.9865C27.149 20.0978 27.2114 20.2489 27.2114 20.4064L27.2117 21.5939Z" fill="#3E96F4"/>
<path d="M20.9826 17.7187C20.3351 17.7194 19.7022 17.9124 19.1641 18.2733C18.626 18.6343 18.2068 19.147 17.9594 19.7466C17.712 20.3462 17.6477 21.0059 17.7744 21.6421C17.9011 22.2784 18.2133 22.8628 18.6714 23.3213C19.1295 23.7799 19.7131 24.0921 20.3482 24.2184C20.9834 24.3448 21.6417 24.2796 22.2399 24.0312C22.8381 23.7827 23.3494 23.3622 23.7091 22.8226C24.0688 22.2831 24.2608 21.6488 24.2608 21C24.2593 20.1296 23.9133 19.2954 23.2988 18.6803C22.6843 18.0651 21.8513 17.7194 20.9826 17.7187ZM20.9826 22.9688C20.5941 22.9684 20.2144 22.8526 19.8915 22.636C19.5687 22.4194 19.3171 22.1118 19.1687 21.752C19.0203 21.3923 18.9817 20.9965 19.0577 20.6147C19.1337 20.2329 19.321 19.8823 19.5959 19.6072C19.8708 19.3321 20.2209 19.1447 20.602 19.0689C20.9831 18.9931 21.3781 19.0322 21.737 19.1813C22.0959 19.3304 22.4027 19.5827 22.6185 19.9064C22.8343 20.2301 22.9495 20.6107 22.9495 21C22.9494 21.2587 22.8984 21.5148 22.7995 21.7537C22.7006 21.9926 22.5557 22.2097 22.373 22.3925C22.1904 22.5753 21.9736 22.7203 21.735 22.8192C21.4965 22.9181 21.2408 22.9689 20.9826 22.9688Z" fill="#3E96F4"/>
<path d="M36.4328 36.9141V38.1445H29.883V36.9141H36.4328ZM36.8421 36.5039V29.9414C36.8421 29.7149 36.6588 29.5312 36.4328 29.5312H29.883C29.657 29.5312 29.4737 29.7149 29.4737 29.9414V36.5039C29.4737 36.7304 29.657 36.9141 29.883 36.9141V38.1445C28.9929 38.1445 28.2686 37.4328 28.2462 36.5463L28.2456 36.5039V29.9414C28.2456 29.0353 28.9787 28.3008 29.883 28.3008H36.4328L36.475 28.3013C37.3598 28.3238 38.0702 29.0495 38.0702 29.9414V36.5039L38.0696 36.5463C38.0475 37.4187 37.3458 38.1218 36.475 38.144L36.4328 38.1445V36.9141C36.6588 36.9141 36.8421 36.7304 36.8421 36.5039Z" fill="#3E96F4"/>
<path d="M12.117 36.9141V38.1445H5.56725V36.9141H12.117ZM12.5263 36.5039V29.9414C12.5263 29.7149 12.343 29.5312 12.117 29.5312H5.56725C5.34117 29.5312 5.1579 29.7149 5.15789 29.9414V36.5039C5.15789 36.7304 5.34117 36.9141 5.56725 36.9141V38.1445C4.67707 38.1445 3.95282 37.4328 3.93038 36.5463L3.92982 36.5039V29.9414C3.92982 29.0353 4.66293 28.3008 5.56725 28.3008H12.117L12.1593 28.3013C13.044 28.3238 13.7544 29.0495 13.7544 29.9414V36.5039L13.7538 36.5463C13.7317 37.4187 13.03 38.1218 12.1593 38.144L12.117 38.1445V36.9141C12.343 36.9141 12.5263 36.7304 12.5263 36.5039Z" fill="#3E96F4"/>
<path d="M40.3626 24.6914V25.9219H33.8129V24.6914H40.3626ZM40.7719 24.2812V17.7188C40.7719 17.4922 40.5887 17.3086 40.3626 17.3086H33.8129C33.5868 17.3086 33.4035 17.4922 33.4035 17.7188V24.2812C33.4035 24.5078 33.5868 24.6914 33.8129 24.6914V25.9219C32.9227 25.9219 32.1984 25.2101 32.176 24.3236L32.1754 24.2812V17.7188C32.1754 16.8127 32.9085 16.0781 33.8129 16.0781H40.3626L40.4049 16.0787C41.2896 16.1012 42 16.8268 42 17.7188V24.2812L41.9994 24.3236C41.9774 25.1961 41.2756 25.8992 40.4049 25.9213L40.3626 25.9219V24.6914C40.5887 24.6914 40.7719 24.5078 40.7719 24.2812Z" fill="#3E96F4"/>
<path d="M8.18713 24.6914V25.9219H1.63743V24.6914H8.18713ZM8.59649 24.2812V17.7188C8.59649 17.4922 8.41322 17.3086 8.18713 17.3086H1.63743C1.41135 17.3086 1.22807 17.4922 1.22807 17.7188V24.2812C1.22807 24.5078 1.41135 24.6914 1.63743 24.6914V25.9219C0.747242 25.9219 0.0229932 25.2101 0.000559667 24.3236L0 24.2812V17.7188C1.05499e-07 16.8127 0.733101 16.0781 1.63743 16.0781H8.18713L8.22943 16.0787C9.11421 16.1012 9.82456 16.8268 9.82456 17.7188V24.2812L9.824 24.3236C9.80192 25.1961 9.10015 25.8992 8.22943 25.9213L8.18713 25.9219V24.6914C8.41322 24.6914 8.59649 24.5078 8.59649 24.2812Z" fill="#3E96F4"/>
<path d="M36.4328 12.4688V13.6992H29.883V12.4688H36.4328ZM36.8421 12.0586V5.49609C36.8421 5.26957 36.6588 5.08594 36.4328 5.08594H29.883C29.657 5.08594 29.4737 5.26957 29.4737 5.49609V12.0586C29.4737 12.2851 29.657 12.4688 29.883 12.4688V13.6992C28.9929 13.6992 28.2686 12.9875 28.2462 12.101L28.2456 12.0586V5.49609C28.2456 4.59 28.9787 3.85547 29.883 3.85547H36.4328L36.475 3.85603C37.3598 3.87851 38.0702 4.60417 38.0702 5.49609V12.0586L38.0696 12.101C38.0475 12.9734 37.3458 13.6765 36.475 13.6987L36.4328 13.6992V12.4688C36.6588 12.4688 36.8421 12.2851 36.8421 12.0586Z" fill="#3E96F4"/>
<path d="M12.0351 12.4688V13.6992H5.48538V12.4688H12.0351ZM12.4444 12.0586V5.49609C12.4444 5.26957 12.2612 5.08594 12.0351 5.08594H5.48538C5.2593 5.08594 5.07602 5.26957 5.07602 5.49609V12.0586C5.07602 12.2851 5.2593 12.4688 5.48538 12.4688V13.6992C4.5952 13.6992 3.87095 12.9875 3.84851 12.101L3.84795 12.0586V5.49609C3.84795 4.59 4.58105 3.85547 5.48538 3.85547H12.0351L12.0774 3.85603C12.9622 3.87851 13.6725 4.60417 13.6725 5.49609V12.0586L13.672 12.101C13.6499 12.9734 12.9481 13.6765 12.0774 13.6987L12.0351 13.6992V12.4688C12.2612 12.4688 12.4444 12.2851 12.4444 12.0586Z" fill="#3E96F4"/>
<path d="M24.2339 8.61328V9.84375H17.6842V8.61328H24.2339ZM24.6433 8.20312V1.64062C24.6433 1.4141 24.46 1.23047 24.2339 1.23047H17.6842C17.4581 1.23047 17.2749 1.4141 17.2749 1.64062V8.20312C17.2749 8.42965 17.4581 8.61328 17.6842 8.61328V9.84375C16.794 9.84375 16.0698 9.13201 16.0473 8.2455L16.0468 8.20312V1.64062C16.0468 0.734533 16.7799 2.64246e-08 17.6842 0H24.2339L24.2762 0.00056076C25.161 0.0230381 25.8713 0.748702 25.8713 1.64062V8.20312L25.8708 8.2455C25.8487 9.11793 25.1469 9.82107 24.2762 9.84319L24.2339 9.84375V8.61328C24.46 8.61328 24.6433 8.42965 24.6433 8.20312Z" fill="#3E96F4"/>
<path d="M24.2339 40.7695V42H17.6842V40.7695H24.2339ZM24.6433 40.3594V33.7969C24.6433 33.5704 24.46 33.3867 24.2339 33.3867H17.6842C17.4581 33.3867 17.2749 33.5704 17.2749 33.7969V40.3594C17.2749 40.5859 17.4581 40.7695 17.6842 40.7695V42C16.794 42 16.0698 41.2883 16.0473 40.4018L16.0468 40.3594V33.7969C16.0468 32.8908 16.7799 32.1562 17.6842 32.1562H24.2339L24.2762 32.1568C25.161 32.1793 25.8713 32.905 25.8713 33.7969V40.3594L25.8708 40.4018C25.8487 41.2742 25.1469 41.9773 24.2762 41.9994L24.2339 42V40.7695C24.46 40.7695 24.6433 40.5859 24.6433 40.3594Z" fill="#3E96F4"/>
</svg>
