<svg width="42" height="42" viewBox="0 0 42 42" fill="none" xmlns="http://www.w3.org/2000/svg">
<path d="M4 0.799805H38C39.7673 0.799805 41.2002 2.23269 41.2002 4V34.7324L36.75 40.666L32.1396 34.5195L31.5 33.667L30.8604 34.5195L26.25 40.666L21.6396 34.5195L21 33.667L20.3604 34.5195L15.75 40.666L11.1396 34.5195L10.5 33.667L9.86035 34.5195L5.25 40.666L0.799805 34.7324V4C0.799805 2.23269 2.23269 0.799805 4 0.799805Z" stroke="#3E96F4" stroke-width="1.6"/>
<rect x="7.8" y="7.8" width="8.9" height="8.9" stroke="#3E96F4" stroke-width="1.6"/>
<rect x="21" y="7" width="14" height="1.6" fill="#3E96F4"/>
<rect x="21" y="10" width="14" height="1.6" fill="#3E96F4"/>
<rect x="21" y="13" width="10.5" height="1.6" fill="#3E96F4"/>
<rect x="7" y="22" width="28" height="1.6" fill="#3E96F4"/>
<rect x="7" y="25" width="28" height="1.6" fill="#3E96F4"/>
</svg>
