<svg width="42" height="42" viewBox="0 0 42 42" fill="none" xmlns="http://www.w3.org/2000/svg">
<path d="M35.8492 6.14816C35.8332 6.13368 35.8115 6.12645 35.7956 6.11197C31.8673 2.19789 26.5468 0 21 0C15.4532 0 10.1327 2.19789 6.20442 6.11197C6.18849 6.12645 6.16676 6.13224 6.15083 6.14816C6.1349 6.16408 6.12911 6.18579 6.11462 6.20172C2.19593 10.1267 -0.00337214 15.4462 3.88101e-06 20.9911C3.88101e-06 21.1831 0.0762967 21.3671 0.212099 21.5029C0.347901 21.6386 0.532088 21.7149 0.724142 21.7149H10.8621C11.0541 21.7149 11.2383 21.6386 11.3741 21.5029C11.5099 21.3671 11.5862 21.1831 11.5862 20.9911C11.582 19.4834 11.9414 17.9968 12.634 16.6574C13.3266 15.3179 14.3319 14.165 15.5648 13.2963C16.7978 12.4275 18.222 11.8686 19.717 11.6667C21.2119 11.4648 22.7335 11.626 24.1529 12.1366L23.2347 14.195C23.1567 14.3704 23.1517 14.5696 23.2207 14.7488C23.2896 14.928 23.427 15.0724 23.6026 15.1503C23.7781 15.2283 23.9774 15.2333 24.1567 15.1644C24.3359 15.0954 24.4804 14.9581 24.5584 14.7827L25.4781 12.717C26.9698 13.5244 28.2158 14.7193 29.0845 16.1756C29.9532 17.6319 30.4125 19.2956 30.4138 20.9911C30.4138 21.1831 30.4901 21.3671 30.6259 21.5029C30.7617 21.6386 30.9459 21.7149 31.1379 21.7149H41.2759C41.4679 21.7149 41.6521 21.6386 41.7879 21.5029C41.9237 21.3671 42 21.1831 42 20.9911C42.003 15.4467 39.8037 10.1278 35.8854 6.20317C35.8709 6.18724 35.8651 6.16408 35.8492 6.14816ZM13.86 12.8299L7.71207 6.68519C11.1379 3.49776 15.5984 1.65127 20.2759 1.48423V10.1694C17.9025 10.3261 15.6473 11.2613 13.86 12.8299ZM10.1626 20.2659H1.46131C1.6371 15.5892 3.49444 11.1328 6.69249 7.71438L12.8303 13.8476C11.2581 15.6356 10.3204 17.8908 10.1626 20.2659ZM27.1841 7.10497C27.0972 7.06637 27.0035 7.04526 26.9085 7.04285C26.8134 7.04044 26.7188 7.05677 26.63 7.09091C26.5412 7.12506 26.4601 7.17634 26.3911 7.24184C26.3222 7.30734 26.2669 7.38577 26.2283 7.47265L24.7409 10.8092C23.7708 10.4518 22.7543 10.2359 21.7227 10.1679V1.48278C26.4003 1.65022 30.8609 3.49724 34.2865 6.68519L28.1385 12.8299C27.5056 12.2728 26.8102 11.7909 26.0661 11.394L27.5506 8.06034C27.6286 7.88508 27.6339 7.686 27.5652 7.50685C27.4965 7.32771 27.3594 7.18316 27.1841 7.10497ZM31.8374 20.2673C31.6793 17.8927 30.7416 15.6366 29.1697 13.849L35.3075 7.71583C38.5056 11.1342 40.3629 15.5907 40.5387 20.2673H31.8374Z" fill="#3E96F4"/>
<path d="M11.0027 41.2314C11.0027 41.4353 11.0837 41.6308 11.2278 41.7749C11.372 41.9191 11.5675 42 11.7713 42H17.9204C18.1243 42 18.3198 41.9191 18.4639 41.7749C18.6081 41.6308 18.689 41.4353 18.689 41.2314C18.689 41.0276 18.6081 40.832 18.4639 40.6879C18.3198 40.5438 18.1243 40.4628 17.9204 40.4628H12.5738C12.7625 38.3596 13.7313 36.4032 15.2897 34.9783C16.8481 33.5534 18.8833 32.7633 20.9949 32.7633C23.1066 32.7633 25.1417 33.5534 26.7002 34.9783C28.2586 36.4032 29.2274 38.3596 29.4161 40.4628H24.0695C23.8656 40.4628 23.6701 40.5438 23.526 40.6879C23.3818 40.832 23.3008 41.0276 23.3008 41.2314C23.3008 41.4353 23.3818 41.6308 23.526 41.7749C23.6701 41.9191 23.8656 42 24.0695 42H30.2186C30.4224 42 30.6179 41.9191 30.7621 41.7749C30.9062 41.6308 30.9872 41.4353 30.9872 41.2314C30.984 39.1309 30.3197 37.0848 29.0886 35.3829C27.8574 33.6811 26.1219 32.4099 24.1279 31.7495C25.0542 31.0861 25.7459 30.1458 26.1035 29.064C26.4611 27.9822 26.4661 26.8148 26.1177 25.73C25.7692 24.6452 25.0855 23.6991 24.1649 23.0278C23.2442 22.3566 22.1343 21.9949 20.9949 21.9949C19.8556 21.9949 18.7456 22.3566 17.825 23.0278C16.9044 23.6991 16.2206 24.6452 15.8722 25.73C15.5238 26.8148 15.5288 27.9822 15.8864 29.064C16.2439 30.1458 16.9357 31.0861 17.862 31.7495C15.868 32.4099 14.1325 33.6811 12.9013 35.3829C11.6702 37.0848 11.0059 39.1309 11.0027 41.2314ZM17.1518 27.3944C17.1518 26.6343 17.3772 25.8913 17.7995 25.2593C18.2217 24.6273 18.822 24.1347 19.5242 23.8438C20.2265 23.5529 20.9992 23.4768 21.7447 23.6251C22.4902 23.7734 23.175 24.1394 23.7125 24.6769C24.2499 25.2144 24.616 25.8992 24.7643 26.6447C24.9126 27.3902 24.8364 28.1629 24.5456 28.8652C24.2547 29.5674 23.7621 30.1676 23.1301 30.5899C22.4981 31.0122 21.755 31.2376 20.9949 31.2376C19.976 31.2364 18.9992 30.8311 18.2787 30.1106C17.5583 29.3902 17.153 28.4133 17.1518 27.3944Z" fill="#3E96F4"/>
<path d="M29.4313 36.387C30.679 35.248 32.3084 34.6163 33.999 34.6163C35.6896 34.6163 37.319 35.248 38.5667 36.387C39.8144 37.526 40.5901 39.0899 40.7412 40.7712H36.4605C36.2973 40.7712 36.1408 40.8359 36.0254 40.9511C35.91 41.0664 35.8452 41.2226 35.8452 41.3856C35.8452 41.5486 35.91 41.7048 36.0254 41.8201C36.1408 41.9353 36.2973 42 36.4605 42H41.3836C41.5468 42 41.7034 41.9353 41.8188 41.8201C41.9342 41.7048 41.999 41.5486 41.999 41.3856C41.9964 39.7065 41.4646 38.0709 40.4789 36.7104C39.4932 35.35 38.1037 34.3338 36.5073 33.806C37.2489 33.2756 37.8027 32.5239 38.089 31.6592C38.3753 30.7944 38.3793 29.8613 38.1004 28.9941C37.8214 28.127 37.274 27.3706 36.5369 26.834C35.7998 26.2974 34.9112 26.0083 33.999 26.0083C33.0868 26.0083 32.1982 26.2974 31.4611 26.834C30.724 27.3706 30.1766 28.127 29.8977 28.9941C29.6187 29.8613 29.6227 30.7944 29.909 31.6592C30.1953 32.5239 30.7491 33.2756 31.4907 33.806C30.3307 34.1895 29.28 34.8309 28.4141 35.6748L29.4313 36.387ZM30.9221 30.3246C30.9221 29.717 31.1025 29.123 31.4406 28.6178C31.7787 28.1126 32.2593 27.7188 32.8215 27.4863C33.3838 27.2538 34.0024 27.1929 34.5993 27.3115C35.1961 27.43 35.7444 27.7226 36.1747 28.1523C36.605 28.5819 36.8981 29.1293 37.0168 29.7253C37.1355 30.3212 37.0746 30.9389 36.8417 31.5003C36.6088 32.0616 36.2144 32.5414 35.7085 32.879C35.2025 33.2166 34.6076 33.3968 33.999 33.3968C33.1833 33.3958 32.4012 33.0718 31.8244 32.4959C31.2475 31.9199 30.9231 31.1391 30.9221 30.3246Z" fill="#3E96F4"/>
<path d="M12.5687 36.387C11.321 35.248 9.6916 34.6163 8.00099 34.6163C6.31039 34.6163 4.68098 35.248 3.43328 36.387C2.18557 37.526 1.4099 39.0899 1.25884 40.7712H5.53946C5.70267 40.7712 5.85919 40.8359 5.9746 40.9511C6.09001 41.0664 6.15484 41.2226 6.15484 41.3856C6.15484 41.5486 6.09001 41.7048 5.9746 41.8201C5.85919 41.9353 5.70267 42 5.53946 42H0.616379C0.453169 42 0.296641 41.9353 0.181234 41.8201C0.0658274 41.7048 0.000993729 41.5486 0.000993729 41.3856C0.00358391 39.7065 0.535407 38.0709 1.52108 36.7104C2.50675 35.35 3.89627 34.3338 5.49269 33.806C4.75109 33.2756 4.19725 32.5239 3.91096 31.6592C3.62467 30.7944 3.62071 29.8613 3.89965 28.9941C4.17859 28.127 4.72602 27.3706 5.46309 26.834C6.20016 26.2974 7.0888 26.0083 8.00099 26.0083C8.91319 26.0083 9.80183 26.2974 10.5389 26.834C11.276 27.3706 11.8234 28.127 12.1023 28.9941C12.3813 29.8613 12.3773 30.7944 12.091 31.6592C11.8047 32.5239 11.2509 33.2756 10.5093 33.806C11.6693 34.1895 12.72 34.8309 13.5859 35.6748L12.5687 36.387ZM11.0779 30.3246C11.0779 29.717 10.8975 29.123 10.5594 28.6178C10.2213 28.1126 9.74072 27.7188 9.17848 27.4863C8.61625 27.2538 7.99758 27.1929 7.40071 27.3115C6.80385 27.43 6.2556 27.7226 5.82528 28.1523C5.39497 28.5819 5.10192 29.1293 4.98319 29.7253C4.86447 30.3212 4.9254 30.9389 5.15829 31.5003C5.39118 32.0616 5.78555 32.5414 6.29155 32.879C6.79755 33.2166 7.39244 33.3968 8.00099 33.3968C8.81674 33.3958 9.5988 33.0718 10.1756 32.4959C10.7525 31.9199 11.0769 31.1391 11.0779 30.3246Z" fill="#3E96F4"/>
</svg>
