<svg width="42" height="42" viewBox="0 0 42 42" fill="none" xmlns="http://www.w3.org/2000/svg">
<path d="M34.314 34.6881L36.3759 36.7513L38.4379 28.501L30.1875 30.5629L32.2494 32.6262M32.3846 32.8139C29.3302 35.7651 25.2473 37.4121 21 37.4063" stroke="#3E96F4" stroke-width="1.6" stroke-miterlimit="10" stroke-linecap="round" stroke-linejoin="round"/>
<path d="M34.125 34.7813C30.5901 38.1574 25.8881 40.0382 21 40.0313C10.4882 40.0313 1.96875 31.5118 1.96875 21C1.96875 20.559 1.9845 20.1206 2.01338 19.6875M7.686 7.31195L5.62406 5.2487L3.56212 13.4991L11.8125 11.4371L9.75056 9.37389M9.61538 9.1862C12.6698 6.23499 16.7527 4.588 21 4.59377" stroke="#3E96F4" stroke-width="1.6" stroke-miterlimit="10" stroke-linecap="round" stroke-linejoin="round"/>
<path d="M7.875 7.21875C11.2901 3.96506 15.9114 1.96875 21 1.96875C31.5118 1.96875 40.0312 10.4882 40.0312 21C40.0312 21.4397 40.0155 21.8767 39.9866 22.3099M18.375 37.4062H18.5063M23.625 4.59375H23.7563" stroke="#3E96F4" stroke-width="1.6" stroke-miterlimit="10" stroke-linecap="round" stroke-linejoin="round"/>
<path d="M21 12.4688C22.9403 12.4658 24.8313 13.0799 26.3996 14.2223C27.9697 15.3625 29.1385 16.9706 29.7384 18.816C30.3383 20.6614 30.3385 22.6493 29.7389 24.4949C29.1394 26.3404 27.9709 27.9487 26.401 29.0892C24.8312 30.2298 22.9405 30.844 21 30.8438C15.9246 30.8438 11.8125 26.7317 11.8125 21.6563C11.8125 19.5353 12.5304 17.5836 13.7366 16.0283M15.5991 14.2223C16.477 13.5836 17.4613 13.1059 18.5063 12.8113" stroke="#3E96F4" stroke-width="1.6" stroke-miterlimit="10" stroke-linecap="round" stroke-linejoin="round"/>
<path d="M21 22.9688C21.7249 22.9688 22.3125 22.3811 22.3125 21.6562C22.3125 20.9314 21.7249 20.3438 21 20.3438C20.2751 20.3438 19.6875 20.9314 19.6875 21.6562C19.6875 22.3811 20.2751 22.9688 21 22.9688Z" stroke="#3E96F4" stroke-width="1.6" stroke-miterlimit="10" stroke-linecap="round" stroke-linejoin="round"/>
<path d="M19.6875 9.84375H22.3125M26.3996 14.2236L27.5573 12.6315M14.4427 12.6302L15.6004 14.2236M24.2156 16.086L24.2812 15.9731M17.7844 27.2265L17.7188 27.3394M26.5702 18.4406L26.6831 18.375M15.4297 24.8719L15.3169 24.9375M27.4312 21.6562H27.5625M14.5688 21.6562H14.4375M26.5702 24.8719L26.6831 24.9375M15.4297 18.4406L15.3169 18.375M24.2156 27.2265L24.2812 27.3394M17.7844 16.086L17.7188 15.9731M21 28.0875V28.2188M21 15.225V15.0938M21 20.3438V17.7188M21 12.4688V9.84375" stroke="#3E96F4" stroke-width="1.6" stroke-miterlimit="10" stroke-linecap="round" stroke-linejoin="round"/>
<path d="M34.314 34.6881L36.3759 36.7513L38.4379 28.501L30.1875 30.5629L32.2494 32.6262M32.3846 32.8139C29.3302 35.7651 25.2473 37.4121 21 37.4063" stroke="#3E96F4" stroke-width="1.6" stroke-miterlimit="10" stroke-linecap="round" stroke-linejoin="round"/>
<path d="M34.125 34.7813C30.5901 38.1574 25.8881 40.0382 21 40.0313C10.4882 40.0313 1.96875 31.5118 1.96875 21C1.96875 20.559 1.9845 20.1206 2.01338 19.6875M7.686 7.31195L5.62406 5.2487L3.56212 13.4991L11.8125 11.4371L9.75056 9.37389M9.61538 9.1862C12.6698 6.23499 16.7527 4.588 21 4.59377" stroke="#3E96F4" stroke-width="1.6" stroke-miterlimit="10" stroke-linecap="round" stroke-linejoin="round"/>
<path d="M7.875 7.21875C11.2901 3.96506 15.9114 1.96875 21 1.96875C31.5118 1.96875 40.0312 10.4882 40.0312 21C40.0312 21.4397 40.0155 21.8767 39.9866 22.3099M18.375 37.4062H18.5063M23.625 4.59375H23.7563" stroke="#3E96F4" stroke-width="1.6" stroke-miterlimit="10" stroke-linecap="round" stroke-linejoin="round"/>
<path d="M21 12.4688C22.9403 12.4658 24.8313 13.0799 26.3996 14.2223C27.9697 15.3625 29.1385 16.9706 29.7384 18.816C30.3383 20.6614 30.3385 22.6493 29.7389 24.4949C29.1394 26.3404 27.9709 27.9487 26.401 29.0892C24.8312 30.2298 22.9405 30.844 21 30.8438C15.9246 30.8438 11.8125 26.7317 11.8125 21.6563C11.8125 19.5353 12.5304 17.5836 13.7366 16.0283M15.5991 14.2223C16.477 13.5836 17.4613 13.1059 18.5063 12.8113" stroke="#3E96F4" stroke-width="1.6" stroke-miterlimit="10" stroke-linecap="round" stroke-linejoin="round"/>
<path d="M21 22.9688C21.7249 22.9688 22.3125 22.3811 22.3125 21.6562C22.3125 20.9314 21.7249 20.3438 21 20.3438C20.2751 20.3438 19.6875 20.9314 19.6875 21.6562C19.6875 22.3811 20.2751 22.9688 21 22.9688Z" stroke="#3E96F4" stroke-width="1.6" stroke-miterlimit="10" stroke-linecap="round" stroke-linejoin="round"/>
<path d="M19.6875 9.84375H22.3125M26.3996 14.2236L27.5573 12.6315M14.4427 12.6302L15.6004 14.2236M24.2156 16.086L24.2812 15.9731M17.7844 27.2265L17.7188 27.3394M26.5702 18.4406L26.6831 18.375M15.4297 24.8719L15.3169 24.9375M27.4312 21.6562H27.5625M14.5688 21.6562H14.4375M26.5702 24.8719L26.6831 24.9375M15.4297 18.4406L15.3169 18.375M24.2156 27.2265L24.2812 27.3394M17.7844 16.086L17.7188 15.9731M21 28.0875V28.2188M21 15.225V15.0938M21 20.3438V17.7188M21 12.4688V9.84375" stroke="#3E96F4" stroke-width="1.6" stroke-miterlimit="10" stroke-linecap="round" stroke-linejoin="round"/>
</svg>
