<svg width="58" height="48" viewBox="0 0 58 48" fill="none" xmlns="http://www.w3.org/2000/svg">
<path d="M6.43485 34.8784L0.270083 40.9343C0.14227 41.0599 0.054723 41.2206 0.0185951 41.3961C-0.0175328 41.5716 -0.000606771 41.7539 0.0672171 41.9197C0.135041 42.0855 0.250693 42.2274 0.39944 42.3273C0.548188 42.4272 0.723298 42.4805 0.902465 42.4805H18.0873C19.3205 44.1891 20.9419 45.5805 22.8179 46.54C24.6938 47.4996 26.7709 48 28.8781 48C30.9852 48 33.0623 47.4996 34.9383 46.54C36.8143 45.5805 38.4356 44.1891 39.6688 42.4805H56.8535C57.0327 42.4805 57.2078 42.4272 57.3566 42.3273C57.5053 42.2274 57.621 42.0855 57.6888 41.9197C57.7566 41.7539 57.7735 41.5716 57.7374 41.3961C57.7013 41.2206 57.6137 41.0599 57.4859 40.9343L51.3211 34.8784L57.5061 28.4023C57.6282 28.2745 57.71 28.1137 57.7415 27.9398C57.773 27.7659 57.7528 27.5865 57.6833 27.424C57.6138 27.2616 57.4981 27.123 57.3506 27.0257C57.2031 26.9284 57.0303 26.8765 56.8535 26.8765H55.9377C56.1372 25.1255 55.7248 23.3593 54.7704 21.8778C54.6575 21.7035 54.488 21.5735 54.2905 21.5097C52.6323 20.9538 51.0486 20.1967 49.5746 19.2554C49.4718 19.1912 49.3572 19.1483 49.2375 19.1293C49.1178 19.1103 48.9956 19.1157 48.878 19.145C48.7604 19.1743 48.6499 19.227 48.5531 19.2999C48.4564 19.3728 48.3753 19.4645 48.3147 19.5695L46.7196 22.3319L45.1245 19.5695C45.0639 19.4645 44.9828 19.3728 44.886 19.2999C44.7892 19.227 44.6787 19.1743 44.5612 19.145C44.4436 19.1157 44.3213 19.1103 44.2016 19.1293C44.0819 19.1483 43.9673 19.1912 43.8645 19.2554C42.7219 19.9775 41.5171 20.5961 40.2645 21.1039C40.0152 19.726 39.6301 18.4741 39.0894 17.6397C38.9766 17.4655 38.8071 17.3356 38.6096 17.2717C36.6113 16.626 34.5346 15.6336 32.437 14.3219C32.3342 14.2577 32.2196 14.2148 32.0999 14.1958C31.9802 14.1768 31.858 14.1821 31.7404 14.2114C31.6228 14.2407 31.5123 14.2934 31.4156 14.3663C31.3188 14.4392 31.2377 14.5309 31.1771 14.6358L28.878 18.6178L26.5789 14.6358C26.5183 14.5309 26.4372 14.4392 26.3404 14.3663C26.2437 14.2934 26.1332 14.2407 26.0156 14.2114C25.898 14.1821 25.7758 14.1768 25.6561 14.1958C25.5364 14.2148 25.4218 14.2577 25.319 14.3219C23.2214 15.6336 21.1452 16.626 19.1463 17.2717C18.9489 17.3356 18.7794 17.4655 18.6666 17.6397C18.1301 18.4676 17.7466 19.7233 17.4973 21.1065C16.2426 20.5982 15.0358 19.9787 13.8915 19.2554C13.7887 19.1912 13.6741 19.1483 13.5544 19.1293C13.4347 19.1103 13.3124 19.1157 13.1948 19.145C13.0773 19.1743 12.9668 19.227 12.87 19.2999C12.7732 19.3728 12.6921 19.4645 12.6315 19.5695L11.0365 22.3319L9.44177 19.5695C9.38119 19.4645 9.30009 19.3728 9.20331 19.2999C9.10653 19.227 8.99606 19.1743 8.87848 19.145C8.7609 19.1157 8.63862 19.1103 8.51893 19.1293C8.39925 19.1483 8.28461 19.1912 8.18186 19.2554C6.70789 20.1967 5.12412 20.9538 3.46595 21.5097C3.26842 21.5735 3.09894 21.7035 2.98608 21.8778C2.02334 23.3558 1.6098 25.1248 1.81754 26.8765H0.902465C0.725735 26.8765 0.552893 26.9284 0.405387 27.0257C0.25788 27.123 0.142201 27.2616 0.0727038 27.424C0.00320684 27.5865 -0.0170491 27.7659 0.0144495 27.9398C0.0459481 28.1137 0.127815 28.2745 0.249891 28.4023L6.43485 34.8784ZM3.10892 40.6756L8.33448 35.5424C8.50367 35.3762 8.60064 35.1501 8.60442 34.9129C8.6082 34.6758 8.51848 34.4467 8.35467 34.2752L3.01191 28.6814H16.9851C16.0459 30.541 15.5566 32.5952 15.5566 34.6785C15.5566 36.7618 16.0459 38.816 16.9851 40.6756H3.10892ZM28.878 46.1952C26.6002 46.1952 24.3736 45.5197 22.4797 44.2543C20.5858 42.9888 19.1097 41.1901 18.238 39.0857C17.3663 36.9813 17.1382 34.6657 17.5826 32.4317C18.027 30.1977 19.1238 28.1456 20.7345 26.535C22.3451 24.9243 24.3972 23.8275 26.6312 23.3831C28.8652 22.9387 31.1808 23.1668 33.2852 24.0385C35.3896 24.9101 37.1883 26.3863 38.4538 28.2802C39.7192 30.1741 40.3947 32.4007 40.3947 34.6785C40.3912 37.7319 39.1768 40.6592 37.0177 42.8182C34.8587 44.9773 31.9314 46.1917 28.878 46.1952ZM49.4014 34.2752C49.2376 34.4467 49.1479 34.6758 49.1516 34.9129C49.1554 35.15 49.2523 35.3761 49.4215 35.5424L54.6471 40.6756H40.771C41.7102 38.816 42.1995 36.7618 42.1995 34.6785C42.1995 32.5952 41.7102 30.541 40.771 28.6814H54.7441L49.4014 34.2752ZM44.0207 21.268L45.9377 24.5879C46.0169 24.7251 46.1308 24.839 46.268 24.9182C46.4052 24.9974 46.5608 25.0391 46.7192 25.0391C46.8776 25.0391 47.0332 24.9974 47.1704 24.9182C47.3075 24.839 47.4215 24.7251 47.5007 24.5879L49.4176 21.268C50.687 22.0133 52.0258 22.6336 53.4151 23.1201C54.065 24.2576 54.3122 25.5811 54.1169 26.8765H40.5629C40.658 25.5668 40.6416 24.2514 40.5139 22.9445C41.7277 22.4845 42.9009 21.9237 44.0211 21.268H44.0207ZM20.0312 18.88C21.9288 18.221 23.7537 17.369 25.4774 16.3375L28.0965 20.8739C28.1757 21.0111 28.2896 21.125 28.4268 21.2042C28.564 21.2834 28.7196 21.3251 28.878 21.3251C29.0364 21.3251 29.192 21.2834 29.3292 21.2042C29.4664 21.125 29.5803 21.0111 29.6595 20.8739L32.2786 16.3375C34.0021 17.369 35.827 18.2209 37.7245 18.8798C38.4842 20.3382 38.8795 23.4099 38.8153 25.8172C37.5673 24.4145 36.0364 23.2919 34.3235 22.5233C32.6105 21.7547 30.7542 21.3574 28.8767 21.3576C26.9991 21.3579 25.1429 21.7556 23.4301 22.5247C21.7173 23.2937 20.1868 24.4167 18.9391 25.8197C18.8699 23.4021 19.265 20.3451 20.0312 18.88ZM4.34052 23.1201C5.72983 22.6334 7.06859 22.0129 8.33798 21.2675L10.255 24.5875C10.3342 24.7246 10.4481 24.8385 10.5853 24.9177C10.7225 24.9969 10.8781 25.0386 11.0365 25.0386C11.1949 25.0386 11.3505 24.9969 11.4877 24.9177C11.6249 24.8385 11.7388 24.7246 11.818 24.5875L13.7349 21.2675C14.8568 21.9243 16.0319 22.4857 17.2478 22.9458C17.1188 24.2521 17.1004 25.567 17.1928 26.8765H3.63775C3.43579 25.5808 3.68381 24.2551 4.34052 23.1201ZM28.9242 14.1252C28.9564 14.1259 28.9884 14.1263 29.0205 14.1263C30.4756 14.1263 31.8216 13.3705 32.8202 11.99C33.8931 10.5068 34.5268 8.40767 34.704 5.75089C34.706 5.72156 34.7065 5.6922 34.7055 5.66279C34.664 4.14598 34.032 2.70529 32.944 1.64758C31.856 0.58986 30.3981 -0.00130002 28.8807 2.14668e-06H28.8755C27.3581 -0.00130002 25.9002 0.58986 24.8122 1.64758C23.7243 2.70529 23.0922 4.14598 23.0507 5.66279V5.70972C23.1006 8.09091 23.7191 10.17 24.8391 11.7222C25.9156 13.2148 27.4047 14.0905 28.9242 14.1252ZM28.878 1.80476C29.919 1.80457 30.9195 2.2078 31.6695 2.92976C32.4194 3.65171 32.8604 4.6362 32.8998 5.67644C32.5614 10.5866 30.6099 12.3214 29.0154 12.3214H28.9654C27.0167 12.2764 24.9489 9.78659 24.8554 5.69618C24.8898 4.65234 25.3287 3.66278 26.0794 2.93662C26.83 2.21045 27.8336 1.80458 28.878 1.80476ZM37.2401 32.7149C37.1897 32.5599 37.0983 32.4214 36.9755 32.3141C36.8528 32.2068 36.7032 32.1349 36.5428 32.1058L31.9056 31.2646L29.6727 27.114C29.5955 26.9705 29.4808 26.8506 29.3409 26.767C29.201 26.6833 29.041 26.6392 28.878 26.6392C28.715 26.6392 28.555 26.6833 28.4151 26.767C28.2752 26.8506 28.1605 26.9705 28.0833 27.114L25.8504 31.2646L21.2132 32.1055C21.0528 32.1346 20.9033 32.2066 20.7805 32.3139C20.6578 32.4211 20.5664 32.5596 20.516 32.7146C20.4656 32.8696 20.4582 33.0354 20.4945 33.1943C20.5307 33.3532 20.6094 33.4993 20.722 33.6171L23.9793 37.0233L23.3461 41.6934C23.3242 41.8549 23.3464 42.0194 23.4105 42.1693C23.4745 42.3192 23.578 42.4489 23.7099 42.5447C23.8418 42.6405 23.9972 42.6988 24.1595 42.7134C24.3219 42.728 24.4852 42.6984 24.632 42.6276L28.878 40.5822L33.1241 42.6277C33.2709 42.6985 33.4342 42.7281 33.5966 42.7135C33.7589 42.699 33.9143 42.6407 34.0462 42.5448C34.1781 42.449 34.2816 42.3193 34.3456 42.1694C34.4097 42.0195 34.4319 41.855 34.41 41.6935L33.7768 37.0234L37.0338 33.6176C37.1465 33.4998 37.2252 33.3537 37.2615 33.1947C37.2979 33.0358 37.2904 32.87 37.2401 32.7149ZM32.1719 36.0904C32.0781 36.1884 32.0077 36.3063 31.9658 36.4353C31.9239 36.5643 31.9116 36.701 31.9298 36.8354L32.3961 40.2742L29.2698 38.768C29.1476 38.7092 29.0137 38.6787 28.8781 38.6787C28.7425 38.6787 28.6086 38.7092 28.4865 38.768L25.3601 40.2742L25.8264 36.8354C25.8446 36.701 25.8323 36.5643 25.7904 36.4353C25.7485 36.3063 25.6781 36.1884 25.5843 36.0904L23.1859 33.5825L26.6005 32.9633C26.7339 32.9391 26.8602 32.8851 26.9698 32.8054C27.0795 32.7257 27.1699 32.6223 27.2341 32.5028L28.878 29.4468L30.522 32.5028C30.5862 32.6223 30.6766 32.7257 30.7863 32.8054C30.896 32.8851 31.0222 32.9391 31.1556 32.9633L34.5702 33.5825L32.1719 36.0904ZM46.7505 18.7506C46.775 18.7506 46.7994 18.7515 46.824 18.7515C48.7566 18.7515 51.0919 17.0167 51.4197 12.0977C51.4218 12.0684 51.4222 12.0391 51.4213 12.0097C51.3879 10.786 50.8781 9.62371 50.0004 8.77036C49.1227 7.91702 47.9465 7.44008 46.7223 7.44116H46.717C45.4928 7.44005 44.3166 7.91697 43.4388 8.77032C42.5611 9.62367 42.0512 10.786 42.0178 12.0097V12.0567C42.0572 13.9355 42.548 15.5798 43.4366 16.8114C44.3051 18.0156 45.5132 18.7224 46.7505 18.7506ZM46.7196 9.24603C47.4674 9.24613 48.1863 9.5352 48.726 10.0529C49.2657 10.5705 49.5845 11.2767 49.6158 12.0238C49.3754 15.4628 48.0309 16.9743 46.7917 16.9462C45.3858 16.9141 43.8938 15.072 43.8226 12.0432C43.849 11.2925 44.1657 10.5813 44.7062 10.0595C45.2466 9.53774 45.9684 9.24609 46.7196 9.24603ZM11.0674 18.7506C11.0919 18.7506 11.1162 18.7515 11.1409 18.7515C13.0735 18.7515 15.4089 17.0167 15.7366 12.0977C15.7386 12.0684 15.739 12.0391 15.7382 12.0097C15.7048 10.786 15.195 9.62368 14.3172 8.77033C13.4395 7.91697 12.2633 7.44005 11.0391 7.44116H11.0338C9.8096 7.44005 8.63337 7.91697 7.75564 8.77033C6.87791 9.62368 6.36805 10.786 6.33468 12.0097V12.0567C6.37405 13.9355 6.86486 15.5798 7.75331 16.8115C8.62202 18.0156 9.83004 18.7224 11.0674 18.7506ZM11.0365 9.24603C11.7843 9.24613 12.5032 9.5352 13.0429 10.0529C13.5826 10.5705 13.9014 11.2767 13.9326 12.0238C13.6945 15.4314 12.3683 16.9466 11.1424 16.9466H11.1086C9.70257 16.9146 8.21062 15.0725 8.13933 12.0437C8.16561 11.2929 8.48235 10.5815 9.0228 10.0597C9.56324 9.53776 10.2852 9.24607 11.0365 9.24603Z" fill="url(#paint0_linear_0_5746)"/>
<defs>
<linearGradient id="paint0_linear_0_5746" x1="58.2183" y1="48.0776" x2="23.7772" y2="-0.354798" gradientUnits="userSpaceOnUse">
<stop stop-color="#31393C"/>
<stop offset="1" stop-color="#3D96F5"/>
</linearGradient>
</defs>
</svg>
