<svg width="48" height="48" viewBox="0 0 48 48" fill="none" xmlns="http://www.w3.org/2000/svg">
<path d="M46.834 43.837H46.4109V23.6051C46.4109 22.9151 45.7686 22.4516 45.1687 22.4516H44.4676V1.16599C44.4676 0.523044 43.994 0 43.412 0H39.7823C39.2003 0 38.7267 0.523044 38.7267 1.16599V22.4516H36.1892V5.05263C36.1892 4.40978 35.7156 3.88664 35.1335 3.88664H31.5038C30.9217 3.88664 30.4481 4.40968 30.4481 5.05263V22.4516H26.4779V13.9858L28.3614 13.655C28.6317 13.608 28.8767 13.4669 29.0531 13.2568C29.2296 13.0467 29.3261 12.781 29.3258 12.5066V10.7329C29.3261 10.5626 29.2891 10.3943 29.2173 10.2398C29.1455 10.0854 29.0407 9.94863 28.9103 9.83912C28.7799 9.72961 28.627 9.65005 28.4625 9.60605C28.298 9.56204 28.1258 9.55467 27.9582 9.58445L3.12777 13.9452C2.8575 13.9922 2.61254 14.1333 2.43611 14.3434C2.25969 14.5535 2.16314 14.8191 2.1635 15.0935V16.8672C2.16318 17.0203 2.19305 17.1719 2.25139 17.3134C2.30974 17.4548 2.39542 17.5834 2.50353 17.6917C2.61164 17.8001 2.74005 17.886 2.88141 17.9446C3.02277 18.0033 3.17431 18.0334 3.32735 18.0334C3.39498 18.0334 3.46309 18.0275 3.53111 18.0156L5.01124 17.7557V31.7575H2.39485C2.21446 31.7575 2.04146 31.8292 1.9139 31.9568C1.78635 32.0843 1.71469 32.2573 1.71469 32.4377V43.837H1.16599C0.523044 43.837 0 44.3601 0 45.003V46.834C0 47.477 0.523044 48 1.16599 48H46.834C47.477 48 48 47.477 48 46.834V45.003C48 44.3602 47.477 43.837 46.834 43.837ZM45.0506 43.837H19.6219L19.622 23.8119H45.0505L45.0506 43.837ZM43.1073 1.36032V2.63417H40.0869V1.36032H43.1073ZM40.0869 3.99449H43.1073V22.4516H40.0869V3.99449ZM34.8287 5.24696V6.52081H31.8082V5.24696H34.8287ZM31.8082 7.88123H34.8287V22.4516H31.8082V7.88123ZM3.52392 16.6358V15.2567L27.9652 10.9643V12.3434L3.52392 16.6358ZM6.37166 17.5169L25.1173 14.2248V22.4517H19.3513C18.7199 22.4517 18.2616 22.9368 18.2616 23.6052V31.7576H6.37166V17.5169ZM3.07511 33.1179H18.2616V43.8371H16.3254V36.4949C16.3254 35.8519 15.8024 35.3289 15.1594 35.3289H6.17723C5.53438 35.3289 5.01134 35.8519 5.01134 36.4949V43.8371H3.07511V33.1179ZM6.37166 43.837V36.6892H9.98827V43.837H6.37166ZM11.3486 36.6892H14.9652V43.837H11.3486V36.6892ZM46.6397 46.6397H1.36032V45.1973H46.6397V46.6397ZM38.7191 40.6315H41.6897C42.3327 40.6315 42.8557 40.1085 42.8557 39.4655V36.4949C42.8557 35.852 42.3327 35.3289 41.6897 35.3289H38.7191C38.0762 35.3289 37.5532 35.8519 37.5532 36.4949V39.4655C37.5532 40.1084 38.0762 40.6315 38.7191 40.6315ZM38.9135 36.6892H41.4954V39.2712H38.9135V36.6892ZM22.9828 40.6315H25.9534C26.5963 40.6315 27.1193 40.1085 27.1193 39.4655V36.4949C27.1193 35.852 26.5963 35.3289 25.9534 35.3289H22.9828C22.3398 35.3289 21.8168 35.8519 21.8168 36.4949V39.4655C21.8168 40.1084 22.3398 40.6315 22.9828 40.6315ZM23.1771 36.6892H25.759V39.2712H23.1771V36.6892ZM30.851 40.6315H33.8216C34.4646 40.6315 34.9876 40.1085 34.9876 39.4655V36.4949C34.9876 35.852 34.4646 35.3289 33.8216 35.3289H30.851C30.208 35.3289 29.685 35.8519 29.685 36.4949V39.4655C29.685 40.1084 30.208 40.6315 30.851 40.6315ZM31.0453 36.6892H33.6273V39.2712H31.0453V36.6892ZM22.9828 32.1233H25.9534C26.5963 32.1233 27.1193 31.6002 27.1193 30.9573V27.9866C27.1193 27.3437 26.5963 26.8206 25.9534 26.8206H22.9828C22.3398 26.8206 21.8168 27.3437 21.8168 27.9866V30.9573C21.8168 31.6001 22.3398 32.1233 22.9828 32.1233ZM23.1771 28.181H25.759V30.7629H23.1771V28.181ZM38.7191 32.1233H41.6897C42.3327 32.1233 42.8557 31.6002 42.8557 30.9573V27.9866C42.8557 27.3438 42.3327 26.8206 41.6897 26.8206H38.7191C38.0762 26.8206 37.5532 27.3437 37.5532 27.9866V30.9573C37.5532 31.6001 38.0762 32.1233 38.7191 32.1233ZM38.9135 28.181H41.4954V30.7629H38.9135V28.181ZM30.851 32.1233H33.8216C34.4646 32.1233 34.9876 31.6002 34.9876 30.9573V27.9866C34.9876 27.3438 34.4646 26.8206 33.8216 26.8206H30.851C30.208 26.8206 29.685 27.3437 29.685 27.9866V30.9573C29.685 31.6001 30.208 32.1233 30.851 32.1233ZM31.0453 28.181H33.6273V30.7629H31.0453V28.181ZM12.1537 18.1588H9.18306C8.54021 18.1588 8.01717 18.6818 8.01717 19.3248V22.2954C8.01717 22.9384 8.54021 23.4614 9.18306 23.4614H12.1537C12.7967 23.4614 13.3197 22.9384 13.3197 22.2954V19.3248C13.3197 18.6819 12.7967 18.1588 12.1537 18.1588ZM11.9594 22.1012H9.37749V19.5192H11.9594V22.1012ZM12.1537 24.9071H9.18306C8.54021 24.9071 8.01717 25.4302 8.01717 26.0731V29.0439C8.01717 29.6868 8.54021 30.2099 9.18306 30.2099H12.1537C12.7967 30.2099 13.3197 29.6868 13.3197 29.0439V26.0731C13.3197 25.4302 12.7967 24.9071 12.1537 24.9071ZM11.9594 28.8495H9.37749V26.2675H11.9594V28.8495Z" fill="url(#paint0_linear_0_5704)"/>
<defs>
<linearGradient id="paint0_linear_0_5704" x1="48.3842" y1="48.0776" x2="12.3608" y2="5.97704" gradientUnits="userSpaceOnUse">
<stop stop-color="#31393C"/>
<stop offset="1" stop-color="#3D96F5"/>
</linearGradient>
</defs>
</svg>
