<svg width="37" height="42" viewBox="0 0 37 42" fill="none" xmlns="http://www.w3.org/2000/svg">
<path d="M36.9301 24.1964C36.9245 20.1201 35.5224 16.1688 32.9573 13.0006C30.3922 9.83251 26.8191 7.6389 22.8332 6.78523V5.05274C23.0423 5.07183 23.2531 5.04733 23.4523 4.98078C23.6515 4.91423 23.8347 4.80708 23.9903 4.6661C24.1459 4.52512 24.2706 4.35338 24.3565 4.16174C24.4424 3.9701 24.4875 3.76273 24.4892 3.55274V1.5C24.4886 1.10236 24.3303 0.721171 24.0492 0.439996C23.768 0.158821 23.3868 0.000595123 22.9892 0H15.2657C14.868 0.000595123 14.4869 0.158821 14.2057 0.439996C13.9245 0.721171 13.7663 1.10236 13.7657 1.5V3.55274C13.7697 3.77223 13.8205 3.98834 13.9146 4.18667C14.0088 4.385 14.1441 4.56099 14.3115 4.70292C14.479 4.84485 14.6748 4.94946 14.8859 5.00978C15.097 5.0701 15.3185 5.08474 15.5357 5.05274V6.75898C13.0886 7.26479 10.7762 8.28257 8.75045 9.74547L7.5302 8.52523C7.67975 8.38818 7.80006 8.22231 7.8839 8.03759C7.96774 7.85287 8.01337 7.65311 8.01807 7.45031C8.02276 7.24752 7.98641 7.04586 7.91121 6.85746C7.83601 6.66906 7.7235 6.49781 7.58045 6.35398L6.73595 5.50949C6.45396 5.22941 6.07268 5.07217 5.67523 5.07203C5.27779 5.07189 4.8964 5.22886 4.61421 5.50874L0.444219 9.67873C0.304409 9.81791 0.19358 9.98343 0.118142 10.1657C0.0427038 10.348 0.00415329 10.5434 0.00471974 10.7407C-0.0732801 11.514 0.834968 12.1492 1.28947 12.645C1.44063 12.7932 1.62104 12.9083 1.81918 12.9829C2.01733 13.0574 2.22885 13.0899 2.44023 13.0781C2.65161 13.0663 2.85822 13.0105 3.04684 12.9144C3.23547 12.8183 3.40197 12.6838 3.53571 12.5197L4.74321 13.7272C-3.82927 25.1737 4.71021 42.1386 19.1282 41.9991C23.848 41.9938 28.373 40.1164 31.7104 36.7789C35.0478 33.4414 36.925 28.9163 36.9301 24.1964ZM15.2657 3.55274V1.5H22.9892L22.9884 3.55274H15.2657ZM21.3332 5.05274V6.53623C19.9068 6.35429 18.4633 6.34925 17.0357 6.52123V5.05274H21.3332ZM2.34996 11.5845L1.50472 10.7392L5.67471 6.56923L6.5207 7.41373L2.34996 11.5845ZM4.59621 11.4592L6.4697 9.58573L7.5632 10.6792C6.89156 11.2546 6.26336 11.8788 5.68371 12.5467L4.59621 11.4592ZM19.1274 40.4991C14.8052 40.4944 10.6614 38.7752 7.60519 35.7189C4.54899 32.6625 2.83003 28.5187 2.82546 24.1964C3.72096 2.56949 34.5376 2.57624 35.4301 24.1964C35.4256 28.5189 33.7065 32.6629 30.6502 35.7194C27.5938 38.7759 23.4498 40.4944 19.1274 40.4991Z" fill="#3E96F4"/>
<path d="M19.1275 11.4465C15.7472 11.4503 12.5064 12.7948 10.1161 15.1851C7.72583 17.5753 6.38132 20.8162 6.37755 24.1965C7.0773 41.1112 31.18 41.106 31.8775 24.1965C31.8737 20.8162 30.5292 17.5753 28.1389 15.1851C25.7487 12.7948 22.5079 11.4503 19.1275 11.4465ZM19.1275 35.4465C16.1448 35.4433 13.2852 34.257 11.1761 32.1479C9.067 30.0388 7.88072 27.1792 7.87754 24.1965C8.49479 9.27154 29.7625 9.27679 30.3775 24.1965C30.3743 27.1792 29.188 30.0388 27.0789 32.1479C24.9698 34.257 22.1102 35.4433 19.1275 35.4465Z" fill="#3E96F4"/>
<path d="M24.6519 20.2252L16.9149 26.5725L13.6651 23.2342C13.5264 23.0916 13.3367 23.0099 13.1377 23.0072C12.9388 23.0044 12.7469 23.0809 12.6043 23.2196C12.4616 23.3583 12.38 23.548 12.3772 23.747C12.3745 23.946 12.4509 24.1378 12.5896 24.2805L16.3201 28.1122C16.4511 28.2467 16.6278 28.3272 16.8153 28.3378C17.0028 28.3483 17.1874 28.2882 17.3326 28.1692L25.6021 21.3862C25.7516 21.2589 25.8452 21.0779 25.8627 20.8823C25.8803 20.6867 25.8204 20.492 25.696 20.3401C25.5715 20.1882 25.3925 20.0911 25.1972 20.0698C25.002 20.0484 24.8062 20.1045 24.6519 20.226V20.2252Z" fill="#3E96F4"/>
</svg>
