<svg width="48" height="48" viewBox="0 0 48 48" fill="none" xmlns="http://www.w3.org/2000/svg">
<rect width="48" height="48" rx="8" fill="white"/>
<path fill-rule="evenodd" clip-rule="evenodd" d="M18.3965 24.7998C21.4844 24.7998 23.9969 27.3116 23.9971 30.3994C23.9971 33.4874 21.4845 36 18.3965 36C15.3087 35.9998 12.7969 33.4873 12.7969 30.3994C12.7971 27.3117 15.3088 24.8 18.3965 24.7998ZM18.3965 26.4082C17.9567 26.4084 17.5967 26.7681 17.5967 27.208V27.5039C16.6928 27.632 15.9971 28.4078 15.9971 29.3438C15.9971 30.3678 16.8293 31.208 17.8613 31.208H18.9248C19.0688 31.208 19.1884 31.3277 19.1885 31.4717C19.1885 31.6157 19.0688 31.7354 18.9248 31.7354H16.7891C16.3491 31.7354 15.9893 32.0961 15.9893 32.5361C15.9894 32.976 16.3492 33.3359 16.7891 33.3359H17.5889V33.5996C17.5889 34.0395 17.9488 34.3993 18.3887 34.3994C18.8287 34.3994 19.1885 34.0396 19.1885 33.5996V33.3037C20.0925 33.1757 20.789 32.3998 20.7891 31.4639C20.7891 30.4399 19.9568 29.5996 18.9248 29.5996H17.8613C17.7174 29.5996 17.5968 29.4799 17.5967 29.3359C17.5967 29.1919 17.7173 29.0723 17.8613 29.0723H19.9971C20.437 29.0722 20.7969 28.7114 20.7969 28.2715C20.7967 27.8317 20.4369 27.4718 19.9971 27.4717H19.1973V27.208C19.1973 26.768 18.8365 26.4082 18.3965 26.4082Z" fill="#3E96F4"/>
<path d="M11.2002 12C17.3761 12.0001 22.4004 17.0243 22.4004 23.2002C22.4004 23.5921 22.3759 23.992 22.3359 24.376C21.632 23.92 20.8401 23.5758 19.9922 23.3838C19.9922 23.3199 20 23.264 20 23.2002C20 18.3443 16.0561 14.4005 11.2002 14.4004C6.34419 14.4004 2.40039 18.3442 2.40039 23.2002C2.4005 28.0561 6.34426 32 11.2002 32C11.264 32 11.3199 31.9922 11.3838 31.9922C11.5758 32.8401 11.912 33.632 12.376 34.3359C11.992 34.3759 11.6001 34.4004 11.2002 34.4004C5.02426 34.4004 0.000105829 29.3761 0 23.2002C0 17.0242 5.0242 12 11.2002 12Z" fill="#3E96F4"/>
<path fill-rule="evenodd" clip-rule="evenodd" d="M11.2002 16C15.1681 16.0001 18.4004 19.2323 18.4004 23.2002C14.4324 23.2002 11.2002 26.4324 11.2002 30.4004C7.23226 30.4004 4.00011 27.1681 4 23.2002C4 19.2322 7.2322 16 11.2002 16ZM11.2002 18.7998C10.7603 18.7998 10.4006 19.1598 10.4004 19.5996V22.7676L7.16016 24.9277C6.79222 25.1757 6.6877 25.6721 6.93555 26.04C7.08747 26.2719 7.34374 26.4003 7.59961 26.4004C7.75161 26.4004 7.90404 26.3517 8.04004 26.2637L11.6396 23.8643C11.8636 23.7203 11.9999 23.4641 12 23.2002V19.5996C11.9998 19.1599 11.64 18.7999 11.2002 18.7998Z" fill="#3E96F4"/>
</svg>
