<svg width="167" height="164" viewBox="0 0 167 164" fill="none" xmlns="http://www.w3.org/2000/svg">
<path d="M158.28 103.08C169.83 109.74 169.89 120.55 158.42 127.21L104.58 158.5C93.1095 165.17 74.4495 165.17 62.9095 158.5L8.70952 127.21C-2.83048 120.55 -2.89048 109.74 8.57952 103.08L62.4195 71.7901C73.8895 65.1201 92.5395 65.1201 104.09 71.7901L158.28 103.08Z" fill="#EDEDED"/>
<path d="M158.42 98.11L104.58 129.4C93.1096 136.07 74.4496 136.07 62.9096 129.4L8.70964 98.11C2.89964 94.76 -0.00036601 90.36 0.019634 85.96V92.1899C0.019634 96.5799 2.90965 100.98 8.71965 104.34L62.9096 135.63C74.4496 142.29 93.1096 142.29 104.58 135.63L158.42 104.34C164.12 101.03 166.97 96.69 166.98 92.34V86.1199C166.97 90.4699 164.11 94.8 158.42 98.11Z" fill="#DBDBDB"/>
<path d="M158.264 73.96C169.814 80.62 169.874 91.43 158.404 98.09L104.564 129.38C93.0939 136.05 74.4339 136.05 62.8939 129.38L8.6939 98.09C-2.8461 91.43 -2.90611 80.62 8.56389 73.96L62.4039 42.67C73.8739 36 92.5239 36 104.074 42.67L158.264 73.96Z" fill="white"/>
<path fill-rule="evenodd" clip-rule="evenodd" d="M88.5571 75.9102C88.5571 76.0428 88.5571 76.1643 88.5571 76.2969C88.3472 81.3017 88.999 86.2402 89.0763 91.3775C88.6786 95.0565 88.0931 97.6749 87.0656 98.6803C86.9368 98.8409 86.7621 98.9587 86.5648 99.0179C86.3675 99.0771 86.1569 99.0749 85.9608 99.0117C85.8946 99.0117 85.8503 99.1001 85.8062 99.1664L88.303 101.144L92.2472 93.5539C92.2472 93.1783 92.5786 92.8359 92.435 92.5044C92.1499 92.021 92.0189 91.4622 92.0593 90.9024C93.0757 85.1133 94.1254 80.8597 93.9707 77.0592C93.9044 75.5898 93.8712 74.4188 93.8602 73.4465L88.5571 75.9102Z" fill="#FF8654"/>
<path fill-rule="evenodd" clip-rule="evenodd" d="M88.3779 97.9401C88.8719 96.6884 89.4324 95.464 90.0572 94.2722C90.3113 93.8082 90.7311 92.2614 92.3441 92.3498C92.8478 92.8504 93.1969 93.4853 93.3497 94.1787C93.5025 94.8722 93.4526 95.5949 93.2059 96.2608C92.7293 98.1862 92.4553 100.156 92.3883 102.138L92.1011 102.282L91.9023 102.161C91.9023 99.8073 92.1895 99.4758 91.5818 97.1005C90.5765 97.7965 90.6427 98.8129 90.477 99.9951C90.477 100.304 90.477 100.448 89.9467 100.835C89.3297 101.279 88.6477 101.626 87.9249 101.862C87.3945 101.699 86.8917 101.457 86.4335 101.144C85.7485 100.735 85.1629 100.039 85.3287 99.5752C85.4944 99.1112 85.9031 99.0228 85.9252 99.0118C85.9915 99.3653 86.8974 99.8073 87.1515 99.6195C87.6749 99.1531 88.093 98.5806 88.3779 97.9401Z" fill="#032747"/>
<path fill-rule="evenodd" clip-rule="evenodd" d="M83.0337 78.1311C83.0688 78.5502 83.0688 78.9715 83.0337 79.3906C82.8238 84.3954 83.4756 89.3338 83.564 94.4601C83.1662 98.1391 82.5697 100.758 81.5422 101.763C81.4147 101.926 81.2407 102.045 81.0433 102.107C80.8459 102.168 80.6345 102.167 80.4374 102.105C80.3711 102.105 80.3269 102.183 80.2827 102.249L82.7796 104.238L86.7238 96.6366C86.7238 96.261 87.0552 95.9295 86.9115 95.5318C86.6312 95.0505 86.5004 94.4967 86.5359 93.9409C87.5523 88.1407 88.6019 83.8871 88.4472 80.0866C88.3699 78.3631 88.3367 77.0484 88.3257 75.9878L88.1157 76.0872C88.1157 76.0872 85.0997 77.3578 83.0337 78.1311Z" fill="#FF8654"/>
<path fill-rule="evenodd" clip-rule="evenodd" d="M82.8777 101.023C83.4522 99.6637 83.9825 98.4152 84.557 97.3657C84.8111 96.8906 85.2309 95.3549 86.844 95.4323C87.3474 95.9353 87.6962 96.572 87.8489 97.2672C88.0016 97.9623 87.9519 98.6866 87.7057 99.3543C87.2337 101.281 86.9598 103.25 86.8881 105.232L86.6119 105.364L86.402 105.243C86.402 102.89 86.6893 102.558 86.0816 100.183C85.0873 100.89 85.1426 101.895 84.9768 103.089C84.9768 103.387 84.9769 103.542 84.4465 103.917C83.8295 104.362 83.1475 104.708 82.4247 104.945C81.897 104.784 81.3975 104.541 80.9443 104.227C80.2482 103.818 79.6627 103.122 79.8395 102.658C80.0162 102.194 80.425 102.105 80.4361 102.105C80.5024 102.448 81.4194 102.89 81.6624 102.702C82.1843 102.237 82.5989 101.664 82.8777 101.023Z" fill="#05345E"/>
<path fill-rule="evenodd" clip-rule="evenodd" d="M54.0301 60.6417L51.8315 59.3601L51.8868 88.9468L54.0853 90.2173L54.0301 60.6417Z" fill="#D6D6D8"/>
<path fill-rule="evenodd" clip-rule="evenodd" d="M54.0327 60.6419L54.088 90.2176L56.2313 88.9802L56.176 59.4045L54.0327 60.6419Z" fill="#909192"/>
<path fill-rule="evenodd" clip-rule="evenodd" d="M77.7269 46.8538L75.5283 45.5723L75.5946 65.5803L77.7932 66.8508L77.7269 46.8538Z" fill="#D6D6D8"/>
<path fill-rule="evenodd" clip-rule="evenodd" d="M77.7295 46.8538L77.7958 66.8508L79.9391 65.6134L79.8839 45.6165L77.7295 46.8538Z" fill="#909192"/>
<path fill-rule="evenodd" clip-rule="evenodd" d="M76.7015 76.5069L74.5029 75.2253L74.5582 102.415L76.7567 103.685L76.7015 76.5069Z" fill="#D6D6D8"/>
<path fill-rule="evenodd" clip-rule="evenodd" d="M76.7041 76.5069L76.7593 103.685L78.9027 102.448L78.8474 75.2695L76.7041 76.5069Z" fill="#909192"/>
<path fill-rule="evenodd" clip-rule="evenodd" d="M101.595 61.7136L99.396 60.4431L99.4623 90.0188L101.661 91.3003L101.595 61.7136Z" fill="#D6D6D8"/>
<path fill-rule="evenodd" clip-rule="evenodd" d="M101.59 61.7136L101.657 91.3003L103.8 90.063L103.745 60.4873L101.59 61.7136Z" fill="#909192"/>
<path fill-rule="evenodd" clip-rule="evenodd" d="M112.827 82.3183L112.518 88.8698L112.849 106.359L114.584 105.353L114.561 81.324L112.827 82.3183Z" fill="#909192"/>
<path fill-rule="evenodd" clip-rule="evenodd" d="M112.827 82.3182L111.137 81.335L111.159 105.376L112.849 106.359L112.827 82.3182Z" fill="#D6D6D8"/>
<path fill-rule="evenodd" clip-rule="evenodd" d="M98.7005 90.5159L98.3911 97.0674L98.7225 114.556L100.457 113.551L100.435 89.5105L98.7005 90.5159Z" fill="#909192"/>
<path fill-rule="evenodd" clip-rule="evenodd" d="M98.698 90.5157L96.9966 89.5325L97.0187 113.562L98.7201 114.556L98.698 90.5157Z" fill="#D6D6D8"/>
<path fill-rule="evenodd" clip-rule="evenodd" d="M89.2057 84.4392L103.469 92.6811C103.63 92.7744 103.801 92.8522 103.977 92.9131H104.076C104.219 92.9659 104.367 92.9993 104.518 93.0125C104.665 93.0348 104.814 93.0348 104.96 93.0125C105.101 92.9842 105.235 92.9319 105.358 92.8579L103.877 93.7196L103.734 93.7859H103.59H103.491H102.916L102.673 93.7307H102.574H102.474H102.353C102.221 93.6749 102.092 93.6122 101.966 93.5429L87.7031 85.301L89.2057 84.4392Z" fill="#F2F1F1"/>
<path fill-rule="evenodd" clip-rule="evenodd" d="M87.7305 85.3014L101.993 93.5433C103.507 94.4161 104.744 93.709 104.755 91.9744V76.5845L105.739 77.159V92.5379C105.739 94.9132 104.048 95.8523 101.993 94.6812L87.7305 86.4393V85.3014Z" fill="#D6D6D8"/>
<path fill-rule="evenodd" clip-rule="evenodd" d="M98.4999 78.9817L112.774 87.2236C112.934 87.3123 113.1 87.3899 113.271 87.4556H113.371C113.518 87.4999 113.67 87.5295 113.824 87.5439C113.97 87.561 114.119 87.561 114.266 87.5439C114.405 87.5195 114.54 87.4709 114.663 87.4004L113.183 88.251L113.05 88.3173H112.896H112.807H112.741H112.575H112.188H111.956H111.846H111.758H111.625L111.249 88.1185L96.9863 79.8876L98.4999 78.9817Z" fill="#F2F1F1"/>
<path fill-rule="evenodd" clip-rule="evenodd" d="M96.9837 79.8437L111.247 88.0745C112.76 88.9473 113.998 88.2513 113.998 86.5057V71.1157L114.992 71.6902V87.0802C114.992 89.4555 113.302 90.3946 111.236 89.2124L96.9727 80.9817L96.9837 79.8437Z" fill="#D6D6D8"/>
<path fill-rule="evenodd" clip-rule="evenodd" d="M102.146 76.0649L101.836 82.6164L102.168 91.72L103.891 90.7257L103.88 75.0596L102.146 76.0649Z" fill="#696665"/>
<path fill-rule="evenodd" clip-rule="evenodd" d="M102.147 76.0648L100.445 75.0815L100.467 90.7366L102.169 91.7199L102.147 76.0648Z" fill="#34312F"/>
<path fill-rule="evenodd" clip-rule="evenodd" d="M88.0125 84.2627L87.7031 90.8142L88.0235 108.292L89.7581 107.298L89.736 83.2573L88.0125 84.2627Z" fill="#909192"/>
<path fill-rule="evenodd" clip-rule="evenodd" d="M88.0168 84.2629L86.3154 83.2686L86.3375 107.309L88.0279 108.292L88.0168 84.2629Z" fill="#D6D6D8"/>
<path fill-rule="evenodd" clip-rule="evenodd" d="M85.0527 83.5334C85.041 83.5918 85.041 83.6518 85.0527 83.7102C85.0717 83.7649 85.0977 83.8169 85.13 83.8649C85.1651 83.9204 85.21 83.9691 85.2626 84.0085C85.2943 84.0439 85.3316 84.0737 85.373 84.0968C85.404 84.1252 85.4373 84.1511 85.4725 84.1742L98.4318 91.72V93.786L85.5388 86.2955H85.4504L85.3399 86.2071L85.2404 86.0965C85.2363 86.0635 85.2363 86.0302 85.2404 85.9971C85.2394 85.9787 85.2394 85.9603 85.2404 85.9419C85.235 85.9127 85.235 85.8827 85.2404 85.8535L85.0527 83.5334Z" fill="#ABABAB"/>
<path fill-rule="evenodd" clip-rule="evenodd" d="M98.9317 91.886H99.0091C99.1936 91.9304 99.3827 91.9527 99.5725 91.9523C99.7732 91.9521 99.9733 91.9299 100.169 91.886C100.355 91.8512 100.537 91.7956 100.71 91.7202L115.669 83.0807C115.803 83.0235 115.919 82.9302 116.003 82.8111C116.087 82.6921 116.136 82.5521 116.145 82.4067V84.4727C116.132 84.6186 116.081 84.7584 115.995 84.8771C115.909 84.9958 115.793 85.089 115.658 85.1466L100.71 93.7641C100.638 93.8098 100.56 93.847 100.478 93.8746L100.28 93.9409H100.18H100.114H99.9481H99.2742H99.0643H98.9759H98.8985H98.7549C98.6306 93.9055 98.5117 93.8535 98.4014 93.7862V91.7202C98.5676 91.8049 98.7469 91.861 98.9317 91.886Z" fill="#8C8C8C"/>
<path fill-rule="evenodd" clip-rule="evenodd" d="M85.5414 82.8815C85.4035 82.9322 85.2845 83.0241 85.2004 83.1446C85.1164 83.2651 85.0713 83.4084 85.0713 83.5554C85.0713 83.7023 85.1164 83.8457 85.2004 83.9662C85.2845 84.0867 85.4035 84.1785 85.5414 84.2293L98.4345 91.7199C98.792 91.9023 99.1876 91.9973 99.589 91.9973C99.9903 91.9973 100.386 91.9023 100.744 91.7199L115.703 83.0803C115.842 83.0323 115.962 82.9421 116.048 82.8223C116.133 82.7025 116.179 82.5591 116.179 82.4119C116.179 82.2648 116.133 82.1213 116.048 82.0015C115.962 81.8817 115.842 81.7915 115.703 81.7435L102.81 74.2529C102.451 74.0731 102.056 73.9795 101.655 73.9795C101.254 73.9795 100.859 74.0731 100.5 74.2529L85.5414 82.8815Z" fill="#F2F1F1"/>
<path fill-rule="evenodd" clip-rule="evenodd" d="M75.8301 73.9216L48 57.7583L48.0111 62.9951L75.8411 79.1584L75.8301 73.9216Z" fill="#BDBDBC"/>
<path fill-rule="evenodd" clip-rule="evenodd" d="M48 57.7583L75.8301 73.9216L106.102 56.4436L78.2827 40.2803L48 57.7583Z" fill="#F2F1F1"/>
<path fill-rule="evenodd" clip-rule="evenodd" d="M75.8257 73.9219L75.8367 79.1587L106.119 61.6806L106.108 56.4438H106.097L75.8257 73.9219Z" fill="#8C8C8C"/>
<path fill-rule="evenodd" clip-rule="evenodd" d="M86.7884 55.3609H86.8878L79.8613 51.2842H79.7176L72.3154 55.5487L79.342 59.6365L86.7442 55.3609C86.7804 55.3511 86.8185 55.3511 86.8547 55.3609H86.7884Z" fill="#BAC0D2"/>
<path fill-rule="evenodd" clip-rule="evenodd" d="M78.9668 60.2112C78.9615 60.1598 78.9615 60.108 78.9668 60.0565L79.0331 59.9129L79.1325 59.7914L79.2541 59.703L72.2275 55.6152L72.1281 55.6926V55.8252V55.9025V56.3665C72.1253 56.4028 72.1319 56.4392 72.1474 56.4721C72.1629 56.505 72.1867 56.5334 72.2165 56.5543L79.232 60.6421C79.2005 60.6202 79.1756 60.5901 79.16 60.555C79.1444 60.5199 79.1387 60.4813 79.1436 60.4432L78.9668 60.2112Z" fill="#B2B9CD"/>
<path fill-rule="evenodd" clip-rule="evenodd" d="M86.9732 55.5818C86.9732 55.394 86.8406 55.3056 86.6749 55.4051L79.2727 59.6807C79.1822 59.7376 79.1068 59.8155 79.0529 59.9078C78.9991 60.0002 78.9684 60.1042 78.9634 60.211V60.454C78.9634 60.6529 79.107 60.7302 79.2727 60.6308L86.6749 56.3552C86.7625 56.2988 86.8353 56.2222 86.8872 56.1318C86.9391 56.0415 86.9686 55.94 86.9732 55.8359V55.5818Z" fill="#A9B0C7"/>
<path fill-rule="evenodd" clip-rule="evenodd" d="M76.0593 53.0742L75.8052 56.1566L76.8658 56.7643L77.1088 53.6819L76.0593 53.0742Z" fill="#A9B0C7"/>
<path fill-rule="evenodd" clip-rule="evenodd" d="M81.4973 51.1516L77.1112 53.6816L76.8682 56.764L81.7514 53.9468L81.4973 51.1516Z" fill="#99A1BD"/>
<path fill-rule="evenodd" clip-rule="evenodd" d="M69.6231 57.0622V55.8801L68.5183 55.2725V56.4546C68.5155 56.5651 68.5381 56.6747 68.5846 56.775C68.6181 56.8601 68.6808 56.9305 68.7614 56.9738L69.8662 57.5925C69.7829 57.5331 69.7165 57.4529 69.6739 57.3598C69.6312 57.2668 69.6137 57.1642 69.6231 57.0622Z" fill="#A9B0C7"/>
<path fill-rule="evenodd" clip-rule="evenodd" d="M88.9672 44.7104L69.6221 55.88V57.0622C69.6221 57.5814 69.9977 57.7913 70.4507 57.5372L88.1276 47.3067C88.3644 47.1508 88.5617 46.9418 88.7036 46.6964C88.8456 46.4509 88.9282 46.1756 88.9451 45.8926L88.9672 44.7104Z" fill="#BAC0D2"/>
<path fill-rule="evenodd" clip-rule="evenodd" d="M88.2788 32.4253L70.2373 42.8326L70.2704 54.8308L88.3119 44.4124L88.2788 32.4253Z" fill="white"/>
<path fill-rule="evenodd" clip-rule="evenodd" d="M69.6213 55.6372L69.5881 43.3186L68.5386 42.7109L68.5717 55.0185V55.2726L69.6213 55.8802V55.6372Z" fill="#A9B0C7"/>
<path fill-rule="evenodd" clip-rule="evenodd" d="M70.2713 54.8306V42.8324L88.3128 32.4251V44.4122L70.2713 54.8306ZM88.9315 32.1489C88.9447 32.0386 88.9244 31.9269 88.8731 31.8284C88.8219 31.7298 88.7421 31.649 88.6442 31.5965C88.5537 31.5701 88.4586 31.5634 88.3652 31.5767C88.2719 31.5901 88.1824 31.6232 88.1029 31.6738L70.426 41.9043C70.1873 42.0583 69.9886 42.2668 69.8464 42.5127C69.7043 42.7586 69.6227 43.0348 69.6084 43.3185V55.6371V55.8801L88.9536 44.7106L88.9315 32.1489Z" fill="#99A1BD"/>
<path fill-rule="evenodd" clip-rule="evenodd" d="M88.2817 31.6076C88.3178 31.5978 88.3559 31.5978 88.3921 31.6076H88.5579H88.6683L87.5635 31H87.1437L87.0332 31.0552L68.7488 41.4957C68.6625 41.5552 68.5812 41.6217 68.5057 41.6945C68.5057 41.6945 68.5057 41.7498 68.4395 41.7829V41.8603V41.9265V42.0039V42.0591V42.1365V42.2138V42.2911C68.4395 42.2911 68.4395 42.3574 68.4395 42.3905V42.501C68.4395 42.501 68.4395 42.6005 68.4395 42.6447L69.5443 43.2523C69.5389 43.1898 69.5389 43.127 69.5443 43.0645C69.5443 43.0093 69.5443 42.954 69.5443 42.8877L69.6105 42.6889L69.7099 42.501L69.8315 42.3243C69.8659 42.2715 69.9067 42.2233 69.953 42.1806C69.953 42.1806 69.953 42.1806 70.0083 42.1254C70.0825 42.0498 70.1683 41.9864 70.2623 41.9376L88.5468 31.4861H88.6904L88.2817 31.6076Z" fill="#A9B0C7"/>
<path fill-rule="evenodd" clip-rule="evenodd" d="M78.1502 62.6304C81.9838 65.1052 81.2215 68.5964 77.896 68.5301C75.8963 68.4748 71.4219 65.4697 71.3666 63.6358C71.2672 60.1225 76.4709 61.5367 78.1502 62.6304Z" fill="#DDDADA"/>
<path fill-rule="evenodd" clip-rule="evenodd" d="M108.521 74.6507L111.637 75.3356C112.621 77.1108 112.964 79.1706 112.609 81.1691C111.758 84.6492 106.831 87.7979 103.539 88.3171C97.3406 89.2672 87.6515 81.6109 82.7903 79.1362C82.5141 74.9269 83.0223 73.9767 84.779 72.9051C87.8945 71.0158 90.303 70.4745 93.2528 71.5683C96.9318 72.9382 100.191 73.579 103.063 74.9932L108.521 74.6507Z" fill="#032747"/>
<path fill-rule="evenodd" clip-rule="evenodd" d="M101.814 53.9577C97.6598 56.3552 95.384 58.9404 96.7318 59.7248C98.0797 60.5092 102.543 59.1945 106.675 56.7971C110.807 54.3997 113.116 51.8144 111.768 51.03C110.42 50.2456 105.957 51.5493 101.814 53.9577Z" fill="#05345E"/>
<path fill-rule="evenodd" clip-rule="evenodd" d="M111.217 57.5483C111.416 54.1124 111.04 50.9195 108.632 51.3945C106.223 51.8696 101.362 55.4602 98.6885 56.8633L102.633 58.1449L111.217 57.5483Z" fill="#05345E"/>
<path fill-rule="evenodd" clip-rule="evenodd" d="M111.323 51.3948C113.389 53.1404 113.014 64.0779 113.191 66.619L112.086 77.8328C111.158 78.2636 109.125 78.3631 108.44 77.7444L109.114 66.5196L107.722 60.0565C107.446 55.8803 110.086 50.8424 111.323 51.3948Z" fill="#032747"/>
<path fill-rule="evenodd" clip-rule="evenodd" d="M101.464 50.1904C101.607 51.2069 102.569 53.5048 101.464 56.0569C103.57 55.6129 105.494 54.5468 106.988 52.9966C107.076 52.3559 107.209 51.704 107.364 51.019L101.464 50.1904Z" fill="#FF8654"/>
<path fill-rule="evenodd" clip-rule="evenodd" d="M99.484 56.3663C93.96 58.9626 97.8599 64.4093 99.031 73.0047C99.1746 74.0321 97.5506 78.8601 97.186 81.0808C97.1128 81.2479 97.1038 81.4363 97.1609 81.6096C97.218 81.7829 97.3371 81.929 97.4954 82.0198C98.7549 82.749 102.931 81.5227 106.82 79.2799C110.709 77.0372 112.753 74.7171 111.648 73.9327C110.92 73.0728 110.387 72.0661 110.084 70.9812C109.78 69.8964 109.715 68.7589 109.891 67.6463C110.212 64.7849 110.764 63.9673 111.14 61.4373C111.405 59.6917 112.454 52.7536 109.317 52.8862C108.201 52.9635 101.108 55.6371 99.484 56.3663Z" fill="#05345E"/>
<path fill-rule="evenodd" clip-rule="evenodd" d="M100.478 41.3962C99.8928 42.501 99.0973 42.6668 99.0752 44.1251C99.0752 45.2299 98.9869 51.5715 101.075 52.9636C101.793 53.4386 103.682 52.3559 104.842 51.3726C105.638 50.6987 105.339 49.4282 105.682 48.9863L103.925 41.816L100.478 41.3962Z" fill="#FF9554"/>
<path fill-rule="evenodd" clip-rule="evenodd" d="M108.954 40.0262C111.716 42.037 111.804 45.6165 110.213 48.4448C109.429 49.8258 109.263 50.2346 108.004 50.8423C107.307 51.3259 106.496 51.6191 105.651 51.693C104.546 51.693 103.364 46.8981 102.226 46.7655C101.762 46.7103 101.342 47.2959 101.463 49.1298C100.832 47.7312 99.9737 46.447 98.9223 45.3293C97.0442 39.6617 106.236 36.4798 108.954 40.0262Z" fill="#BB543E"/>
<path fill-rule="evenodd" clip-rule="evenodd" d="M94.8855 60.9622C95.363 59.5213 96.3078 58.281 97.5702 57.4379C100.509 55.9906 101.912 59.3713 100.642 62.288C99.3711 65.2047 97.3271 69.0384 95.7804 71.9219C94.3883 74.5624 92.8527 74.6508 91.9246 73.999C90.9966 73.3471 90.5215 71.9329 91.7921 69.0936C93.1841 65.9559 93.4824 64.0999 94.8855 60.9622Z" fill="#084478"/>
<path fill-rule="evenodd" clip-rule="evenodd" d="M116.175 54.676C113.258 56.4658 111.469 57.5816 109.955 56.057C106.961 53.0188 106.298 44.9205 108.276 41.131C108.563 40.5786 108.486 40.4019 108.276 40.5234C107.801 40.5234 106.353 38.9877 106.851 38.6673C112.717 34.8889 115.247 38.6673 115.126 42.3021C114.827 50.8423 112.176 53.2729 116.175 54.676Z" fill="#A54A37"/>
<path fill-rule="evenodd" clip-rule="evenodd" d="M107.184 38.4131C106.675 38.612 106.245 38.6893 106.079 39.0539C106.032 39.4383 106.078 39.8285 106.212 40.1917C106.347 40.5549 106.566 40.8807 106.852 41.142C107.206 41.4292 108.101 40.8879 108.443 40.4901C108.053 40.3048 107.726 40.0093 107.502 39.6402C107.279 39.2711 107.168 38.8445 107.184 38.4131Z" fill="#084478"/>
<path fill-rule="evenodd" clip-rule="evenodd" d="M103.483 53.792C102.101 54.5874 101.35 55.4492 101.792 55.7033C102.234 55.9574 103.726 55.5265 105.107 54.731C106.488 53.9356 107.25 53.0849 106.797 52.8197C106.344 52.5546 104.864 53.0518 103.483 53.792Z" fill="#FF8654"/>
<path fill-rule="evenodd" clip-rule="evenodd" d="M100.711 74.6181V82.6499C100.7 82.7343 100.7 82.8198 100.711 82.9041C100.722 82.9773 100.744 83.0482 100.778 83.114L100.844 83.2245C100.894 83.2914 100.954 83.3508 101.021 83.4012L99.242 82.3628C99.1692 82.3156 99.1056 82.2557 99.0542 82.1859C99.0578 82.1603 99.0578 82.1343 99.0542 82.1086C99.0542 82.1086 99.0542 82.1086 99.0542 82.0423V81.9319V73.8999L100.711 74.6181Z" fill="#ABABAB"/>
<path fill-rule="evenodd" clip-rule="evenodd" d="M101.429 72.9384L101.23 73.1704L101.065 73.4245L100.932 73.6896C100.889 73.7779 100.856 73.8705 100.833 73.9658L100.766 74.242C100.761 74.334 100.761 74.4262 100.766 74.5182L98.9875 73.4797V73.3693C98.9833 73.3511 98.9833 73.3322 98.9875 73.314V73.2035C98.9807 73.1857 98.9807 73.1661 98.9875 73.1483C98.9824 73.1265 98.9824 73.1038 98.9875 73.082V73.0268V72.9605C98.9816 72.9425 98.9816 72.9231 98.9875 72.9052V72.8389V72.7616V72.6953L99.0759 72.5627L99.1533 72.4633V72.397V72.3418H99.2085L115.073 62.9951H115.129H115.46H115.537H115.626L117.416 64.0336L117.25 63.9674H117.283C117.211 63.9767 117.141 63.9953 117.073 64.0226L116.841 64.122L101.893 72.7616L101.661 72.9163C101.583 72.9163 101.506 72.9237 101.429 72.9384Z" fill="#F2F1F1"/>
<path fill-rule="evenodd" clip-rule="evenodd" d="M101.882 72.6182L116.83 63.9786C117.471 63.614 117.935 63.9123 118.001 64.6415V72.6845C117.983 73.0803 117.874 73.4667 117.682 73.8136C117.491 74.1604 117.222 74.4584 116.896 74.6842L101.948 83.3127C101.307 83.6883 100.788 83.39 100.777 82.6498V74.6179C100.793 74.2217 100.901 73.8346 101.093 73.4875C101.285 73.1403 101.555 72.8428 101.882 72.6182Z" fill="#8C8C8C"/>
<path fill-rule="evenodd" clip-rule="evenodd" d="M105.736 92.5378V77.1589L107.216 76.2971V91.6871C107.24 92.3078 107.083 92.9222 106.763 93.4548C106.605 93.7114 106.384 93.9242 106.122 94.0735L104.653 94.9352C105.029 94.6666 105.327 94.3034 105.517 93.8824C105.707 93.4613 105.783 92.9974 105.736 92.5378Z" fill="#909192"/>
<path fill-rule="evenodd" clip-rule="evenodd" d="M105.783 77.1587L107.264 76.2969L106.28 75.7224L104.8 76.5842L105.783 77.1587Z" fill="#F2F1F1"/>
<path fill-rule="evenodd" clip-rule="evenodd" d="M101.994 93.5433C103.507 94.4161 104.745 93.709 104.756 91.9744V76.5845L105.739 77.159V92.5379C105.739 94.9132 104.049 95.8523 101.994 94.6812V93.5433Z" fill="#D6D6D8"/>
<path fill-rule="evenodd" clip-rule="evenodd" d="M114.992 87.08V71.6901L116.473 70.8284V86.2183C116.492 86.842 116.335 87.4586 116.02 87.997C115.858 88.2511 115.639 88.4632 115.379 88.6157L113.898 89.4774C114.276 89.2094 114.575 88.8466 114.767 88.4256C114.959 88.0047 115.037 87.5405 114.992 87.08Z" fill="#909192"/>
<path fill-rule="evenodd" clip-rule="evenodd" d="M115.036 71.6898L116.517 70.8281L115.522 70.2646L114.042 71.1153L115.036 71.6898Z" fill="#F2F1F1"/>
<path fill-rule="evenodd" clip-rule="evenodd" d="M111.247 88.0745C112.76 88.9473 113.998 88.2513 113.998 86.5057V71.1157L114.992 71.6902V87.0802C114.992 89.4555 113.302 90.3946 111.236 89.2124L111.247 88.0745Z" fill="#D6D6D8"/>
<path fill-rule="evenodd" clip-rule="evenodd" d="M83.5533 65.5915C82.2896 64.9992 81.1614 64.153 80.2389 63.1056C79.7209 62.5513 79.071 62.137 78.3498 61.9014C77.3775 61.5368 75.2894 62.2991 73.4112 62.3433C73.2062 62.332 73.0013 62.3682 72.8124 62.4489C72.6236 62.5296 72.4559 62.6527 72.3223 62.8087C72.1888 62.9647 72.0929 63.1494 72.0423 63.3484C71.9916 63.5474 71.9875 63.7555 72.0302 63.9563C72.1407 65.0611 73.6101 65.492 74.7149 66.1659C75.5549 66.7482 76.4789 67.199 77.4549 67.5028C78.2835 67.7569 79.6644 67.5028 80.5262 67.7237L82.5922 68.4971L83.4539 65.7903H83.3877L83.5533 65.5915Z" fill="#FF8654"/>
<path fill-rule="evenodd" clip-rule="evenodd" d="M81.8098 64.3872C80.705 64.4756 80.0311 66.9503 80.5725 67.9226L90.8582 73.8002C93.4103 74.905 94.7582 73.8554 95.0123 72.5627C95.2664 71.2701 94.6918 69.6019 92.0735 68.8064L81.8098 64.3872Z" fill="#084478"/>
<path fill-rule="evenodd" clip-rule="evenodd" d="M83.8275 35.0657L74.5029 40.4461L74.5361 52.3448L83.8606 46.9534L83.8275 35.0657Z" fill="#DBFBF6"/>
<path fill-rule="evenodd" clip-rule="evenodd" d="M80.0708 38.347L80.0818 41.9265L83.1864 40.1257L83.1753 36.5461L80.0708 38.347Z" fill="#A0E8E8"/>
<path fill-rule="evenodd" clip-rule="evenodd" d="M81.1987 40.1255C81.2154 40.228 81.2154 40.3324 81.1987 40.4349C81.265 40.5122 81.497 40.5122 81.6406 40.5233C81.7732 40.3576 82.0383 40.2029 82.0494 39.9488C82.0383 39.8497 82.0383 39.7496 82.0494 39.6505C81.9279 39.3853 81.4749 39.7278 81.1987 40.1255Z" fill="#F0C17D"/>
<path fill-rule="evenodd" clip-rule="evenodd" d="M81.6415 40.9542H81.7299L82.0503 40.7664C82.0503 40.5123 82.0503 40.3024 82.1276 40.1477L81.6084 40.4681C81.4316 40.5786 81.5752 40.7443 81.6415 40.9542Z" fill="#A0E8E8"/>
<path fill-rule="evenodd" clip-rule="evenodd" d="M82.3702 40.1033V40.2138L82.4475 40.5673L82.0498 40.7993L82.1603 40.7331L83.1546 40.1696H83.2209V40.0702C83.0331 39.8603 82.6354 40.0481 82.3702 40.1033Z" fill="#06929C"/>
<path fill-rule="evenodd" clip-rule="evenodd" d="M82.0595 39.9377C81.9292 40.1149 81.789 40.2845 81.6396 40.4459L81.7281 40.5454L81.9048 40.7221L82.1258 40.1366C82.1258 40.1366 82.1258 40.1366 82.1258 40.0703C82.1037 40.0703 82.0705 40.0372 82.0595 39.9377Z" fill="#DBFBF6"/>
<path fill-rule="evenodd" clip-rule="evenodd" d="M81.1304 40.7332C81.1304 40.8547 81.1856 41.0425 81.2298 41.2524L81.5281 41.0757L81.6496 40.9762V40.6116V40.5564L81.1304 40.7332Z" fill="#A0E8E8"/>
<path fill-rule="evenodd" clip-rule="evenodd" d="M81.1107 40.7002H81.0996V40.7112L81.1107 40.7002Z" fill="#5D8080"/>
<path fill-rule="evenodd" clip-rule="evenodd" d="M80.8229 41.4847L81.0328 41.0207C81.0328 41.0207 80.856 41.0207 80.8892 40.9434C80.562 41.1813 80.2812 41.4771 80.0605 41.8161V41.9156L81.0438 41.3411L80.8229 41.4847Z" fill="#06929C"/>
<path fill-rule="evenodd" clip-rule="evenodd" d="M82.1467 40.0925V40.1588C82.1467 40.3135 82.0803 40.5455 82.0361 40.7996L82.4339 40.5676V40.1036C82.3651 40.1219 82.2928 40.1219 82.224 40.1036L82.1467 40.0925Z" fill="#0EA8B3"/>
<path fill-rule="evenodd" clip-rule="evenodd" d="M81.637 40.4683L81.626 40.4793H81.637V40.4683Z" fill="#5D8080"/>
<path fill-rule="evenodd" clip-rule="evenodd" d="M81.6184 40.4904L81.4858 40.7887V40.7997V40.8549L81.6074 40.9212L81.5411 41.0759L81.7399 40.9654L81.6737 40.877L81.7731 40.6782L81.7841 40.6229L81.7289 40.5677L81.6516 40.4683L81.6405 40.4793H81.6295L81.6184 40.4904Z" fill="#14BAC6"/>
<path fill-rule="evenodd" clip-rule="evenodd" d="M81.1991 40.4351C81.1944 40.5316 81.1596 40.6244 81.0996 40.7002L81.3316 41.0206L81.4532 40.7665L81.5857 40.4682C81.4531 40.4682 81.2211 40.4682 81.1548 40.4682L81.1991 40.4351Z" fill="#DBFBF6"/>
<path fill-rule="evenodd" clip-rule="evenodd" d="M81.1103 40.689L80.9225 40.921H80.8672V41.4071L81.265 41.164C81.2242 41.0024 81.1725 40.8437 81.1103 40.689Z" fill="#0EA8B3"/>
<path fill-rule="evenodd" clip-rule="evenodd" d="M81.0022 39.2862C80.9908 39.3259 80.9908 39.368 81.0022 39.4077C81.025 39.4981 81.0545 39.5868 81.0906 39.6729C81.0906 39.6729 81.1458 39.8386 81.19 39.8054C81.1825 39.89 81.1825 39.975 81.19 40.0595C81.2115 40.0671 81.2349 40.0671 81.2563 40.0595H81.3668C81.4331 40.0595 81.4552 40.1368 81.5104 40.1258C81.5703 40.1178 81.6273 40.095 81.6762 40.0595C81.7456 40.0307 81.8093 39.9896 81.864 39.938C81.864 39.8828 81.9302 39.8165 81.9965 39.706L82.096 39.5513C82.1252 39.5092 82.151 39.4649 82.1733 39.4187C82.1805 39.3157 82.1805 39.2124 82.1733 39.1094C82.2243 39.0328 82.2582 38.9461 82.2727 38.8553L82.3611 38.4907C82.3611 38.4355 82.3611 38.3913 82.3611 38.3913C82.3309 38.4088 82.3076 38.4361 82.2948 38.4686C82.2948 38.4686 82.2948 38.0488 82.1512 38.0046C81.9604 37.9722 81.7642 37.9968 81.5873 38.0755C81.4105 38.1541 81.2607 38.2832 81.1569 38.4465C81.0132 38.6896 81.0353 39.4519 81.0022 39.2862Z" fill="#FFDBA7"/>
<path fill-rule="evenodd" clip-rule="evenodd" d="M81.6057 37.8167C81.3642 37.968 81.1758 38.1909 81.0669 38.4543C80.958 38.7177 80.9339 39.0085 80.998 39.2862C80.998 39.3635 80.9981 39.4519 81.0533 39.5292C81.0744 39.2359 81.115 38.9443 81.1748 38.6564C81.2071 38.6143 81.2487 38.5803 81.2964 38.557C81.4006 38.5094 81.5133 38.4831 81.6278 38.4796C81.7426 38.4701 81.8549 38.4401 81.9593 38.3913C82.0069 38.368 82.0485 38.3339 82.0808 38.2918C82.1581 38.5039 82.1919 38.7293 82.1802 38.9547C82.1802 38.8221 82.1802 38.6896 82.2465 38.568C82.3349 38.1151 82.3238 37.8057 82.0808 37.7284C81.917 37.697 81.7473 37.7286 81.6057 37.8167Z" fill="#703100"/>
<path fill-rule="evenodd" clip-rule="evenodd" d="M82.3804 42.247V42.7663L82.8113 42.5122V42.004L82.3694 42.2581L82.3804 42.247ZM81.7727 47.296V46.7767L75.9173 50.1574V50.6767L81.7838 47.296H81.7727ZM83.1869 40.7445V41.2637L75.166 45.8929V45.3736L83.1869 40.7445ZM75.8952 45.9923V46.5226L81.7617 43.1309V42.6116L75.9062 45.9923H75.8952ZM81.7617 44.1694L75.8952 47.528V47.0087L81.7617 43.617V44.2136V44.1694ZM81.7617 45.2079L75.9062 48.5997V48.0804L81.7727 44.6886V45.2079H81.7617ZM82.8665 44.6003V44.0699L82.4246 44.3241V44.8544L82.8665 44.6003ZM82.8665 46.6773V46.158L82.4357 46.4121V46.9314L82.8665 46.6773ZM75.3649 41.1533V41.6725L79.3643 39.3635V38.8442L75.2986 41.1091L75.3649 41.1533ZM75.3649 42.1918V42.7111L79.3643 40.402V39.7944L75.2986 42.1476L75.3649 42.1918ZM75.3649 44.2688V44.7991L79.3643 42.4901V41.9598L75.2986 44.2136L75.3649 44.2688ZM83.22 45.462L75.1991 50.1022V49.5829L83.22 44.9428V45.462ZM82.8555 43.5949V43.0756L82.4135 43.3297V43.849L82.8555 43.5949ZM75.3538 43.2303V43.7495L79.3532 41.4405V40.8992L75.3538 43.2303Z" fill="#A0E8E8"/>
</svg>
