<svg width="207" height="50" viewBox="0 0 207 50" fill="none" xmlns="http://www.w3.org/2000/svg">
<path fill-rule="evenodd" clip-rule="evenodd" d="M114.744 31.8081C114.744 32.2212 114.712 32.6343 114.585 32.9838C114.303 33.8097 113.767 34.5251 113.054 35.0275C112.34 35.5299 111.486 35.7933 110.613 35.7801C108.993 35.7801 107.706 34.8586 107.706 32.8885C107.706 29.9015 110.995 29.0753 114.744 29.0912V31.8081ZM120.623 26.5968C120.623 21.6715 118.51 17.3181 111.392 17.3181C107.738 17.3181 104.83 18.3349 103.241 19.2565L104.401 23.2285C106.201 22.1609 108.25 21.5856 110.343 21.5602C113.966 21.5602 114.554 23.6098 114.554 24.9126V25.2304C106.673 25.2304 101.684 27.9473 101.684 33.5081C101.684 36.9082 104.226 40.0858 108.643 40.0858C111.344 40.0858 113.616 39.0054 114.983 37.2736H115.11C115.11 37.2736 116.015 41.0391 120.988 39.5933C120.718 38.0204 120.623 36.3521 120.623 34.3502V26.5968ZM0 10.5974L5.97394 35.1128C6.92723 39.1166 8.65904 40.5942 13.632 39.5933L16.8573 26.5173C17.6676 23.2603 18.2237 20.9565 18.748 17.6359H18.8275C19.2088 20.9724 19.7331 23.2762 20.4004 26.5332L22.3705 35.5895C23.0537 38.7035 24.9126 40.6737 29.8062 39.5933L37.4643 10.5974H31.2679L28.6622 23.1332C27.9473 26.7874 27.3117 29.6473 26.8192 32.9838H26.7398C26.2949 29.6632 25.7229 26.9304 24.9921 23.3715L22.2911 10.5974H15.8405L12.9171 23.0378C12.1068 26.8192 11.3282 29.8697 10.8516 33.095H10.7563C10.2479 30.0763 9.58055 26.2155 8.8497 22.5612L6.51414 10.5974H0ZM48.7925 31.8081C48.7925 32.2212 48.7607 32.6343 48.6336 32.9838C48.3518 33.8097 47.8156 34.5251 47.1021 35.0275C46.3885 35.5299 45.5342 35.7933 44.6616 35.7801C43.041 35.7801 41.7541 34.8586 41.7541 32.8885C41.7541 29.9015 45.0429 29.0753 48.7925 29.0912V31.8081ZM54.6711 26.5968C54.6711 21.6715 52.5739 17.3181 45.456 17.3181C41.8017 17.3181 38.8783 18.3349 37.2895 19.2565L38.4493 23.2285C40.2498 22.1616 42.2988 21.5863 44.3915 21.5602C48.014 21.5602 48.6018 23.6098 48.6018 24.9126V25.2304C40.7213 25.2304 35.7324 27.9473 35.7324 33.5081C35.7324 36.9082 38.2746 40.0858 42.6915 40.0858C45.3924 40.0858 47.6644 39.0054 49.0308 37.2736H49.1579C49.1579 37.2736 50.0636 41.0391 55.0365 39.5933C54.7664 38.0204 54.6711 36.3521 54.6711 34.3502V26.5968ZM63.775 33.4287V10.6133H57.8964V39.6092H63.775V33.4446M138.704 10.6133V31.9987C138.704 34.9539 139.26 37.0194 140.451 38.2746C141.484 39.3867 143.184 40.1017 145.234 40.1017C146.981 40.1017 148.681 39.7839 149.492 39.4662L149.428 34.8586C148.824 35.0175 148.125 35.1287 147.188 35.1287C145.186 35.1287 144.503 33.8577 144.503 31.2043V23.0219H149.635V17.4611H144.503V10.5974H138.704M123.499 17.8106V39.5933H129.568V28.4398C129.568 27.8361 129.616 27.3276 129.711 26.8351C130.156 24.4995 131.935 23.0061 134.509 23.0061C135.208 23.0061 135.717 23.0696 136.257 23.1649V17.4452C135.818 17.3518 135.37 17.3092 134.922 17.3181C132.65 17.3181 130.076 18.7798 128.996 21.9257H128.837V17.7947H123.499M67.2069 17.7947V39.5933H73.0855V26.8192C73.0855 26.2155 73.1649 25.5799 73.3715 25.0397C73.8481 23.7528 75.0556 22.2434 76.9622 22.2434C79.3454 22.2434 80.4735 24.2612 80.4735 27.1688V39.5933H86.3839V26.6603C86.3839 26.0884 86.4633 25.3893 86.6381 24.8967C86.8701 24.1293 87.343 23.4569 87.9868 22.979C88.6306 22.5012 89.4111 22.2432 90.2129 22.2434C92.6279 22.2434 93.7877 24.2294 93.7877 27.6454V39.5933H99.714V26.7557C99.714 20.0032 96.2663 17.3181 92.4055 17.3181C90.6737 17.3181 89.3232 17.7471 88.0998 18.4938C87.0671 19.1293 86.1297 20.035 85.3352 21.2107H85.2399C84.7653 20.023 83.9348 19.0113 82.8624 18.3144C81.79 17.6174 80.5282 17.2694 79.2501 17.3181C77.9746 17.2426 76.7034 17.5256 75.5803 18.1348C74.4572 18.7441 73.527 19.6555 72.8948 20.7658H72.8154V17.8106H67.191" fill="#0071DC"/>
<path fill-rule="evenodd" clip-rule="evenodd" d="M181.442 16.8414C182.618 16.8414 183.571 16.2218 183.714 15.4433L184.858 2.35145C184.858 1.06451 183.348 0 181.442 0C179.535 0 178.026 1.06451 178.026 2.35145L179.186 15.4433C179.313 16.2377 180.282 16.8255 181.442 16.8255M174.372 20.9247C174.96 19.9078 174.912 18.7639 174.292 18.2555L163.536 10.7245C162.424 10.0731 160.756 10.8516 159.802 12.504C158.849 14.1563 159.008 15.9994 160.12 16.6349L172.036 22.1799C172.783 22.45 173.784 21.9256 174.372 20.9088M188.512 20.9088C189.1 21.9256 190.101 22.45 190.864 22.1799L202.764 16.6349C203.876 15.9994 204.035 14.1563 203.097 12.504C202.144 10.8516 200.46 10.0731 199.348 10.7245L188.592 18.2555C187.988 18.7639 187.94 19.9078 188.528 20.9247M181.442 33.1586C182.618 33.1586 183.571 33.7782 183.714 34.5567L184.858 47.6486C184.858 48.9355 183.348 50 181.442 50C179.535 50 178.026 48.9355 178.026 47.6486L179.186 34.5567C179.313 33.7623 180.282 33.1744 181.442 33.1744M188.512 29.0912C189.1 28.0744 190.101 27.55 190.864 27.8201L202.764 33.3651C203.876 34.0006 204.035 35.8596 203.097 37.496C202.144 39.1484 200.46 39.9269 199.348 39.2755L188.592 31.7445C187.988 31.2361 187.94 30.0921 188.528 29.0912M174.372 29.0912C174.96 30.0921 174.912 31.2361 174.292 31.7445L163.536 39.2755C162.424 39.911 160.756 39.1484 159.802 37.496C158.849 35.8437 159.008 34.0006 160.12 33.3651L172.036 27.8201C172.783 27.55 173.784 28.0744 174.372 29.0912ZM205.274 38.1316H205.385C205.512 38.1316 205.624 38.0839 205.624 37.9727C205.624 37.8773 205.56 37.8138 205.401 37.8138H205.274V38.1316ZM205.274 38.7035H205.02V37.6708L205.417 37.639C205.624 37.639 205.703 37.6708 205.783 37.7185C205.846 37.7661 205.894 37.8456 205.894 37.9409C205.894 38.068 205.798 38.1474 205.671 38.1951C205.767 38.2269 205.83 38.3222 205.862 38.4493C205.894 38.6082 205.91 38.6718 205.941 38.7035H205.687C205.655 38.6718 205.624 38.5764 205.592 38.4652C205.576 38.354 205.512 38.3063 205.385 38.3063H205.258V38.7194L205.274 38.7035ZM205.433 37.3371C204.956 37.3371 204.623 37.7185 204.623 38.1792C204.623 38.64 204.972 39.0054 205.433 39.0054C205.894 39.0054 206.227 38.64 206.227 38.1792C206.234 38.071 206.218 37.9625 206.181 37.8606C206.144 37.7586 206.087 37.6653 206.012 37.5864C205.938 37.5075 205.848 37.4447 205.748 37.4018C205.649 37.359 205.541 37.337 205.433 37.3371ZM205.433 37.1306C206.037 37.1306 206.497 37.5914 206.497 38.1792C206.497 38.7671 206.021 39.2278 205.433 39.2278C205.293 39.2321 205.153 39.2081 205.022 39.1573C204.891 39.1065 204.772 39.03 204.671 38.9322C204.57 38.8344 204.49 38.7173 204.435 38.588C204.381 38.4586 204.353 38.3196 204.353 38.1792C204.353 37.5914 204.829 37.1306 205.433 37.1306Z" fill="#F3B53B"/>
</svg>
