<svg width="189" height="42" viewBox="0 0 189 42" fill="none" xmlns="http://www.w3.org/2000/svg">
<path d="M22.4718 39.7846C24.5483 38.9313 25.9073 37.541 27.0837 35.9525C29.5055 32.6819 30.742 28.9433 31.2165 24.9464C31.3324 23.9705 31.6309 23.6386 32.6313 23.692C34.3334 23.7812 36.0445 23.7321 37.7556 23.7076C38.3527 23.7076 38.5131 23.8836 38.424 24.4919C37.1696 33.8181 28.8549 43.1087 17.4144 41.8922C9.80588 41.0835 4.71499 36.6632 1.58248 29.8256C0.845834 28.163 0.333383 26.4098 0.0585679 24.6122C-0.0572858 23.9237 0.087514 23.6831 0.820512 23.7032C2.60288 23.7455 4.38524 23.7522 6.16761 23.7032C6.92289 23.6809 7.05879 23.9928 7.14568 24.6634C7.62247 28.8564 8.87235 32.771 11.4612 36.1775C12.3684 37.4048 13.5029 38.4463 14.8032 39.2454C15.1374 39.4459 15.5028 39.8581 15.8926 39.6264C16.2224 39.4303 16.0263 38.9446 16.0263 38.5948C16.0367 30.2118 16.0367 21.8295 16.0263 13.4479C16.0263 12.2604 16.0932 11.0684 16.004 9.88317C15.9327 8.91178 16.3026 8.69343 17.1982 8.74022C18.5689 8.81597 19.9426 8.81597 21.3133 8.74022C22.2401 8.68675 22.4918 8.96301 22.4896 9.90321C22.454 19.3988 22.4673 28.8943 22.4673 38.3876L22.4718 39.7846Z" fill="#137341"/>
<path d="M34.8377 18.3606C33.7237 18.3606 32.3647 18.7527 31.5804 18.2492C30.8318 17.7657 31.1482 16.2641 30.9343 15.2214C30.1768 11.4962 28.8512 8.03845 26.3291 5.12428C25.1728 3.78751 23.816 2.70025 22.1539 2.06306C18.7162 0.744107 15.733 1.68654 13.124 4.0504C10.3034 6.60587 8.80403 9.93666 7.82818 13.5304C7.42706 14.8828 7.18407 16.2771 7.1041 17.6855C7.08405 18.2469 6.8813 18.4608 6.29758 18.4519C4.44169 18.4252 2.5858 18.4296 0.727687 18.4519C0.164014 18.4519 -0.0677081 18.3227 0.0169542 17.6922C1.3114 7.88917 9.90463 -0.695153 20.4629 0.0445291C28.2608 0.590379 35.2699 6.31846 37.636 14.1252C37.9535 15.1896 38.2102 16.2711 38.4047 17.3647C38.5562 18.1868 38.4203 18.5344 37.5135 18.4608C36.6067 18.3873 35.7311 18.4452 34.8399 18.4452L34.8377 18.3606Z" fill="#137341"/>
<path d="M119.676 1.84921C118.277 1.84921 116.885 1.98734 115.492 2.04081C114.035 2.09651 112.569 1.88486 111.107 1.87594C110.606 1.87594 109.838 1.85811 109.878 2.64681C109.911 3.27286 110.546 3.35085 111.072 3.40209C113.213 3.60929 114.227 4.49379 114.735 6.60589C115.089 8.08303 115.109 9.60027 115.142 11.0952C115.222 14.8427 115.176 18.5901 115.167 22.3397C115.167 25.2984 114.924 28.2304 114.006 31.0689C112.845 34.6603 110.653 37.2893 106.825 38.0268C103.599 38.6484 100.288 38.7754 97.0557 38.0535C93.4732 37.2537 90.9712 35.175 89.7302 31.559C88.7454 28.6894 88.9281 25.7396 88.6808 22.8187C88.4424 20.0115 88.9838 17.2087 88.9036 14.3881C88.8256 11.875 88.8568 9.35519 88.9036 6.83759C88.9393 4.75 89.7658 3.80535 91.8155 3.40432C92.3369 3.30183 92.4839 2.99883 92.4527 2.53764C92.4216 2.07645 92.23 1.92718 91.7443 1.92718C88.1305 1.91159 84.5168 2.09206 80.9008 1.87594C80.3059 1.8403 79.29 1.39248 79.1496 2.44853C79.0093 3.50458 80.092 3.4422 80.7404 3.58924C83.3627 4.17965 84.1514 4.95052 84.2048 7.99836C84.2583 11.0039 84.2048 14.0138 84.2048 17.0171C84.2048 19.3921 84.236 21.7671 84.2048 24.1466C84.1954 26.5458 84.4193 28.9402 84.8732 31.2961C85.6374 35.5515 89.3915 39.2766 93.6202 40.1946C95.7947 40.6669 97.9469 40.8028 100.155 40.8875C102.895 40.9944 105.58 40.8385 108.175 40.0431C110.626 39.2967 112.776 37.9867 114.249 35.81C115.447 34.0476 116.054 32.0224 116.504 29.9593C117.375 25.9824 117.406 21.9164 117.6 17.8794C117.758 14.5864 117.684 11.2757 117.613 7.97386C117.571 5.913 118.041 4.24204 120.117 3.36868C120.547 3.18599 120.852 2.8295 120.703 2.30148C120.554 1.77345 120.077 1.85144 119.676 1.84921Z" fill="black"/>
<path d="M144.664 22.1057C141.812 19.49 138.297 18.131 134.674 16.9814C132.526 16.313 130.403 15.5644 128.505 14.2922C125.343 12.169 125.072 7.08478 128.24 5.0061C131.029 3.17472 134.124 3.12125 137.183 4.07705C140.643 5.15538 142.853 7.65737 144.167 10.9837C144.343 11.4293 144.522 11.9506 145.163 11.8103C145.731 11.6833 145.847 11.1775 145.901 10.6963C146.003 9.76724 145.841 8.85378 145.678 7.94478C145.413 6.38521 145.141 4.82564 144.845 3.26607C144.722 2.61328 144.281 1.98054 143.639 2.35261C142.369 3.08784 141.345 2.34146 140.297 1.99613C135.608 0.461067 131.067 0.507854 126.776 3.16581C125.094 4.20849 123.764 5.61656 123.185 7.60835C122.173 10.2062 122.102 12.8039 123.185 15.4062C123.34 16.1593 123.77 16.743 124.281 17.2955C126.203 19.4232 128.705 20.6018 131.296 21.6311C134.315 22.8298 137.492 23.6185 140.362 25.1958C141.325 25.6893 142.134 26.4386 142.699 27.3614C144.606 30.7346 143.047 35.6049 139.564 37.0731C138.999 37.3115 138.33 37.3828 137.889 37.8885C137.735 37.9925 137.55 38.0383 137.365 38.0177C137.541 37.9776 137.715 37.9353 137.889 37.8885C135.262 38.2294 132.651 38.274 130.091 37.4429C129.033 36.7144 127.852 36.1864 126.901 35.2773C125.199 33.6576 124.069 31.6859 123.198 29.547C122.942 28.9188 122.53 28.6915 121.906 28.7695C121.191 28.8586 121.199 29.4223 121.188 29.9436C121.185 30.2019 121.215 30.4595 121.277 30.71C121.678 32.3921 122.169 34.052 122.48 35.7564C122.879 37.8863 124.111 39.0805 126.137 39.7466C127.727 40.2724 129.389 40.3437 130.982 40.7826C131.978 40.7826 132.976 40.825 133.968 40.7715C134.83 40.7225 135.726 41.0233 136.552 40.5598C139.302 40.317 141.71 39.2676 143.662 37.3293C146.458 34.5555 147.581 31.1111 147.209 27.2389C147.028 25.2709 146.121 23.4408 144.664 22.1057Z" fill="black"/>
<path d="M83.2668 38.3699C82.1595 38.2835 81.1005 37.8797 80.2168 37.2069C78.0601 35.507 76.5919 33.2345 74.9922 31.0801C72.6907 27.9787 70.3892 24.8707 68.3685 21.5689C68.0075 20.9807 68.0543 20.6354 68.5712 20.2856C69.3376 19.7687 70.1308 19.2919 70.8771 18.755C74.6647 16.0302 76.0349 10.6118 73.7735 6.69507C71.7817 3.22837 68.442 1.90496 64.6589 1.66657C62.07 1.5017 59.4633 1.63537 56.8611 1.63537C54.2247 1.63537 51.589 1.63537 48.954 1.63537C48.2522 1.63537 47.3366 1.55963 47.272 2.45972C47.1984 3.44448 48.1832 3.3264 48.8315 3.40883C50.8768 3.67173 52.3361 5.07089 52.3049 7.04263C52.2448 10.565 52.5433 14.0741 52.5277 17.5898C52.5277 20.847 52.2247 24.0954 52.3049 27.3571C52.3606 29.6185 52.2893 31.8843 52.3227 34.1479C52.3561 36.621 51.5541 38.1003 49.0187 38.4034C48.8761 38.4212 48.7424 38.517 48.5998 38.5459C48.4972 38.5567 48.3978 38.5878 48.3074 38.6374C48.2169 38.6869 48.1373 38.754 48.073 38.8346C48.0087 38.9153 47.9611 39.0079 47.933 39.1072C47.9049 39.2064 47.8968 39.3102 47.9092 39.4126C47.9493 39.8582 48.3013 40.1077 48.7558 40.1456C49.0154 40.1623 49.2759 40.1623 49.5355 40.1456C52.9933 39.9674 56.4422 40.0052 59.9089 40.1456C60.7555 40.1812 61.5977 40.3194 62.4421 40.3461C62.9389 40.3639 63.4246 40.2414 63.4491 39.5775C63.4714 38.9893 63.0994 38.8623 62.6092 38.7643C61.7047 38.586 60.8045 38.3766 59.9223 38.1093C58.1666 37.5723 57.1173 36.2378 57.0482 34.5312C56.89 30.7169 56.9925 26.8893 57.0037 23.0683C57.0037 22.3999 57.3334 22.068 58.0552 22.0947C59.0938 22.1696 60.1365 22.1651 61.1744 22.0813C62.6248 21.9098 63.5873 22.5849 64.3983 23.6275C64.8439 24.2113 65.2716 24.8217 65.6793 25.4366C68.2036 29.2554 70.4939 33.2122 73.3056 36.8594C75.7274 39.9986 79.7511 40.7939 83.3582 40.1679C83.9931 40.0587 84.4231 39.7958 84.3853 39.1074C84.3719 38.3833 83.7859 38.4189 83.2668 38.3699ZM63.7833 19.8779C62.001 20.0673 60.2186 20.2923 58.4073 19.9024C57.3958 19.6796 56.9702 19.234 57.0059 18.1757C57.0727 16.2151 57.0237 14.2501 57.0237 12.285C57.0237 10.36 57.0527 8.43287 57.0237 6.50568C56.9836 4.18192 58.3025 3.60935 60.0002 3.67396C61.7826 3.73857 63.5828 4.01929 65.256 4.8169C67.8895 6.07124 70.2511 9.11908 70.2088 12.2338C70.1776 14.4261 69.8612 16.4179 68.1724 17.9774C66.9591 19.0778 65.416 19.746 63.7833 19.8779Z" fill="black"/>
<path d="M187.786 38.8155C187.563 38.5258 187.252 38.635 186.971 38.5927C185.538 38.332 184.213 37.8641 183.33 36.5875C183.257 36.2912 183.181 35.9949 183.107 35.6963V35.0279L182.885 32.3544V23.2198C182.837 18.7638 182.911 14.3079 183.107 9.85202V5.6189C183.5 4.77227 183.941 3.96798 184.89 3.61374H185.558C185.866 3.58255 186.215 3.71845 186.449 3.39094C186.683 3.06343 187.136 2.75597 186.672 2.27696C186.356 1.89821 185.933 1.83137 185.471 1.83137C182.129 1.83137 178.799 1.83137 175.461 1.83137C175.241 1.80678 175.017 1.82957 174.806 1.89821C174.45 2.07644 173.786 1.94277 173.846 2.59556C173.895 3.1169 174.314 3.42213 174.813 3.55358C175.274 3.67612 175.762 3.71623 176.21 3.86996C177.132 4.1841 178.355 5.87511 178.302 6.75515C178.079 10.3065 178.268 13.8623 178.206 17.4137V17.6365C178.224 18.0375 178.219 18.443 178.264 18.844C178.317 19.3075 177.977 19.147 177.76 19.1938H157.932C157.886 19.1179 157.82 19.0566 157.741 19.0171C157.662 18.9776 157.574 18.9616 157.486 18.971C157.016 16.908 157.375 14.8137 157.263 12.7328C157.602 12.4454 157.486 12.051 157.486 11.699C157.499 10.4848 157.486 9.27052 157.486 8.05628V6.9423C157.996 5.85506 157.845 4.50492 158.823 3.60037C159.413 3.50457 160.057 3.82317 160.605 3.37757C161.18 3.34415 161.294 2.9654 161.274 2.48639C161.135 2.19248 160.899 1.95605 160.605 1.818H151.471C150.448 1.37241 149.381 1.61526 148.336 1.6665C147.97 1.68433 147.705 2.04525 147.703 2.46633C147.694 2.67242 147.76 2.87489 147.889 3.03571C148.018 3.19653 148.202 3.30463 148.405 3.3397C148.902 3.46224 149.414 3.51571 149.92 3.60483C151.283 3.84545 152.148 4.62745 152.533 5.96423C152.885 7.15618 152.756 8.37043 152.821 9.58021C152.852 10.2597 152.584 10.9771 153.03 11.6143V13.6195C152.647 13.9871 152.807 14.4594 152.807 14.8827C152.781 21.3438 153.006 27.8361 152.326 34.286C152.085 36.5518 152.253 37.5767 149.367 38.2652C149.042 38.3409 148.699 38.4122 148.565 38.7798C148.162 39.3702 148.296 39.749 149.011 39.8938L149.456 40.1166H152.576C153.021 40.0453 153.522 40.297 153.912 39.8938H158.368C158.838 40.3193 159.409 40.0297 159.928 40.1166H161.487C162.207 40.2614 162.657 39.8448 162.838 39.2633C162.973 38.8177 162.664 38.4412 162.196 38.352L162.109 38.3765L162.187 38.3587C161.325 37.7817 160.298 38.4389 159.473 37.8975C159.164 37.7728 158.97 37.4185 158.582 37.4519C157.499 36.4159 157.285 35.0703 157.245 33.6644V25.8933C157.733 24.9665 157.39 23.975 157.45 23.017C157.488 22.4333 157.551 21.9342 158.137 21.6602H164.375L164.598 21.883H169.945C170.433 21.5755 170.976 21.678 171.504 21.6602H175.737C176.673 21.4374 177.442 21.8496 178.188 22.3286V34.3595C177.816 34.6715 178.019 35.097 177.965 35.4735V36.1419C177.52 36.3446 178.005 36.7836 177.743 37.0331C177.449 37.1711 177.212 37.4076 177.074 37.7015C176.477 38.3699 175.45 37.9443 174.846 38.5927C174.389 38.6372 174.062 38.8778 173.997 39.3234C173.933 39.769 174.249 39.896 174.623 39.9294C174.669 40.0053 174.735 40.0667 174.814 40.1062C174.893 40.1457 174.981 40.1617 175.069 40.1522H177.965C178.21 40.1522 178.473 40.1923 178.634 39.9294C179.224 39.8292 179.868 40.1522 180.416 39.7066H181.753C182.301 40.1522 182.945 39.8292 183.535 39.9294C183.925 40.3305 184.426 40.0787 184.872 40.1522H187.1C187.188 40.1614 187.276 40.1453 187.355 40.1058C187.434 40.0663 187.5 40.0051 187.546 39.9294C188.399 39.7066 188.484 39.3323 187.786 38.8155ZM157.143 23.2688V23.1863C157.143 23.2153 157.143 23.242 157.143 23.2688ZM157.143 10.5917C157.143 10.0748 157.143 9.5557 157.143 9.03213C157.183 9.57352 157.17 10.0882 157.158 10.585L157.143 10.5917Z" fill="black"/>
</svg>
