<svg width="199" height="50" viewBox="0 0 199 50" fill="none" xmlns="http://www.w3.org/2000/svg">
<path d="M52.1958 38.2759C50.8537 38.2956 49.5212 38.0488 48.2763 37.5498C47.1337 37.0574 46.1088 36.3296 45.2698 35.4144C44.3702 34.4343 43.6797 33.2829 43.2403 32.0299C42.7658 30.6563 42.5333 29.2114 42.5532 27.7591C42.5365 26.2511 42.7987 24.7528 43.3262 23.3389C43.8215 22.0474 44.5822 20.8729 45.5597 19.8903C46.4178 19.0373 47.4405 18.3654 48.5663 17.9149C49.8218 17.4486 51.1568 17.2311 52.4965 17.2744C53.6853 17.2568 54.8698 17.4224 56.0077 17.7656C56.9872 18.0628 57.9015 18.5409 58.703 19.1749C59.4553 19.7856 60.0762 20.5409 60.5283 21.3956C61.0043 22.2939 61.3272 23.2644 61.484 24.2678H56.6198C56.438 23.4579 55.988 22.7323 55.342 22.2071C54.578 21.6336 53.635 21.3463 52.679 21.3956C51.9158 21.3773 51.1598 21.5459 50.4777 21.8868C49.8517 22.2093 49.311 22.6738 48.8992 23.2428C48.4695 23.8586 48.1532 24.5456 47.965 25.2714C47.7527 26.1054 47.648 26.9629 47.6537 27.8231C47.6465 28.6899 47.7658 29.5531 48.008 30.3856C48.2145 31.1216 48.5568 31.8131 49.0173 32.4249C49.4373 32.9918 49.9853 33.4526 50.6173 33.7703C51.2842 34.0989 52.0207 34.2638 52.7648 34.2506C53.369 34.2613 53.9698 34.1599 54.5367 33.9518C55.0257 33.7724 55.4772 33.5044 55.8682 33.1616C56.5778 32.5304 57.0353 31.6663 57.1567 30.7273V30.6633H53.3555V27.0011H61.8062V37.8274H58.2842L58.005 35.4038H57.9513C57.3698 36.3664 56.514 37.1356 55.4923 37.6139C54.4557 38.0724 53.3302 38.2984 52.1958 38.2759ZM69.2368 38.2759C68.5217 38.3309 67.8032 38.2241 67.1355 37.9633C66.4678 37.7026 65.8683 37.2948 65.382 36.7704C64.4737 35.6746 64.0103 34.2808 64.0827 32.8626V23.3923H68.6785V31.9338C68.6373 32.5828 68.8273 33.2254 69.2153 33.7489C69.4257 33.9706 69.6837 34.1424 69.9698 34.2516C70.2562 34.3606 70.5635 34.4041 70.869 34.3788C71.2212 34.3953 71.5725 34.3318 71.8962 34.1929C72.22 34.0543 72.5077 33.8439 72.7373 33.5781C73.2138 32.9703 73.454 32.2123 73.4138 31.4426V23.3923H78.042V37.8274H73.6608V36.0551H73.575C73.1135 36.7159 72.5172 37.2724 71.8247 37.6886C71.043 38.0911 70.1702 38.2859 69.2905 38.2546L69.2368 38.2759ZM80.7157 17.4773H85.3437V21.3956H80.7157V17.4773ZM80.7157 23.3923H85.3437V37.8274H80.7157V23.3923ZM93.6763 38.2759C92.8085 38.2811 91.9492 38.1066 91.153 37.7634C90.3795 37.4111 89.6938 36.8934 89.145 36.2473C88.5487 35.5416 88.0997 34.7249 87.8242 33.8449C87.5037 32.8076 87.3478 31.7269 87.3625 30.6419C87.3488 29.5919 87.5047 28.5464 87.8242 27.5456C88.1028 26.6658 88.5473 25.8469 89.1342 25.1326C89.681 24.4583 90.3702 23.9114 91.153 23.5311C91.957 23.1488 92.8388 22.9551 93.73 22.9651C94.5922 22.9288 95.4475 23.1321 96.1998 23.5524C96.8207 23.9364 97.3603 24.4369 97.789 25.0258H97.8748V17.4773H102.492V37.8274H98.0145V35.8523C97.5888 36.6049 96.9627 37.2263 96.205 37.6483C95.4472 38.0701 94.5872 38.2763 93.7193 38.2438L93.6763 38.2759ZM94.9112 34.6138C95.3528 34.6313 95.7917 34.5366 96.1863 34.3386C96.5808 34.1406 96.9182 33.8458 97.1662 33.4819C97.7353 32.6223 98.0172 31.6059 97.9715 30.5778C97.974 30.0141 97.9127 29.4518 97.789 28.9016C97.6873 28.4278 97.4942 27.9781 97.2198 27.5776C96.9747 27.2259 96.656 26.9309 96.2857 26.7128C95.8795 26.4984 95.4247 26.3918 94.965 26.4031C94.5382 26.3928 94.116 26.4926 93.7397 26.6928C93.3633 26.8931 93.0455 27.1868 92.8173 27.5456C92.2582 28.4339 91.9743 29.4661 92.0013 30.5138C91.9508 31.5621 92.2123 32.6019 92.7528 33.5033C92.987 33.8513 93.308 34.1326 93.6847 34.3198C94.0612 34.5069 94.4802 34.5934 94.9005 34.5709L94.9112 34.6138ZM111.909 38.1798C110.809 38.1931 109.715 37.9974 108.688 37.6033C107.754 37.2721 106.901 36.7481 106.186 36.0658C105.517 35.3658 104.998 34.5374 104.661 33.6314C104.289 32.6563 104.104 31.6206 104.114 30.5778C104.105 29.5524 104.291 28.5348 104.661 27.5776C104.994 26.6776 105.511 25.8558 106.177 25.1631C106.844 24.4706 107.648 23.9223 108.538 23.5524C109.5 23.1544 110.534 22.9546 111.576 22.9651C112.529 22.9493 113.476 23.1123 114.368 23.4456C115.158 23.7551 115.886 24.2036 116.516 24.7696C117.407 25.5954 118.076 26.6308 118.46 27.7804C118.896 29.0731 119.103 30.4316 119.071 31.7949H108.634C108.746 32.6581 109.121 33.4664 109.708 34.1119C110.002 34.4013 110.353 34.6261 110.74 34.7714C111.126 34.9168 111.54 34.9794 111.952 34.9554C112.48 34.9753 113.003 34.8418 113.456 34.5709C113.855 34.3111 114.169 33.9398 114.358 33.5033H118.868C118.707 34.1773 118.419 34.8149 118.019 35.3824C117.583 35.9863 117.041 36.5071 116.419 36.9199C115.801 37.3544 115.115 37.6863 114.39 37.9023C113.574 38.1391 112.727 38.2543 111.877 38.2438L111.909 38.1798ZM114.433 29.0511C114.38 28.2853 114.07 27.5595 113.552 26.9904C113.31 26.7424 113.02 26.5471 112.698 26.4166C112.376 26.2861 112.031 26.2234 111.684 26.2323C111.309 26.2079 110.934 26.2628 110.582 26.3934C110.23 26.5243 109.91 26.7276 109.644 26.9904C109.138 27.5724 108.813 28.2884 108.709 29.0511H114.433ZM120.811 17.4666H125.439V25.1753H125.514C125.993 24.5239 126.6 23.9756 127.297 23.5631C128.071 23.1484 128.942 22.9458 129.82 22.9759C130.558 22.9599 131.29 23.1019 131.968 23.3923C132.57 23.6516 133.112 24.0334 133.557 24.5133C133.997 25.0184 134.329 25.6068 134.534 26.2429C134.774 26.9586 134.89 27.7096 134.878 28.4638V37.8488H130.26V29.3713C130.292 28.7054 130.091 28.0491 129.691 27.5136C129.482 27.2715 129.219 27.0814 128.922 26.9591C128.625 26.8368 128.304 26.7853 127.984 26.8089C127.63 26.7951 127.277 26.8643 126.954 27.0108C126.631 27.1573 126.348 27.3769 126.126 27.6523C125.644 28.2823 125.401 29.0611 125.439 29.8518V37.8274H120.811V17.4666ZM144.091 38.2759C142.99 38.2948 141.895 38.0989 140.869 37.6993C139.965 37.3433 139.143 36.8059 138.456 36.1208C137.769 35.4358 137.231 34.6174 136.875 33.7168C136.145 31.7606 136.145 29.6086 136.875 27.6523C137.219 26.7249 137.757 25.8806 138.453 25.1753C139.149 24.4758 139.983 23.9269 140.902 23.5631C142.958 22.7946 145.224 22.7946 147.28 23.5631C148.197 23.9243 149.028 24.4736 149.718 25.1753C150.399 25.8743 150.932 26.7021 151.285 27.6096C152.026 29.5788 152.026 31.7478 151.285 33.7168C150.928 34.6193 150.395 35.4428 149.718 36.1404C149.027 36.8388 148.197 37.3846 147.28 37.7421C146.254 38.1416 145.16 38.3376 144.059 38.3186L144.091 38.2759ZM144.059 35.0514C144.516 35.0738 144.97 34.9748 145.376 34.7646C145.782 34.5546 146.124 34.2408 146.367 33.8556C146.934 32.8856 147.206 31.7731 147.151 30.6526C147.201 29.5326 146.929 28.4218 146.367 27.4495C146.126 27.064 145.786 26.7491 145.382 26.5371C144.979 26.3251 144.526 26.2236 144.069 26.2429C143.613 26.2203 143.158 26.3203 142.754 26.5326C142.35 26.7449 142.01 27.0616 141.771 27.4495C141.214 28.4228 140.946 29.5336 140.999 30.6526C140.94 31.7721 141.208 32.8844 141.771 33.8556C142.011 34.2423 142.35 34.5574 142.755 34.7679C143.159 34.9784 143.614 35.0764 144.069 35.0514H144.059ZM158.383 38.2546C157.677 38.3058 156.967 38.1989 156.308 37.9421C155.648 37.6853 155.055 37.2849 154.571 36.7704C153.671 35.6706 153.212 34.2788 153.283 32.8626V23.3923H157.879V31.9338C157.832 32.5833 158.023 33.2276 158.415 33.7489C158.622 33.9718 158.878 34.1444 159.163 34.2536C159.448 34.3628 159.754 34.4056 160.058 34.3788C160.41 34.3961 160.762 34.3329 161.086 34.1941C161.41 34.0553 161.698 33.8446 161.927 33.5781C162.414 32.9756 162.659 32.2146 162.614 31.4426V23.3923H167.231V37.8274H162.807V36.0551H162.721C162.256 36.7203 161.652 37.2776 160.949 37.6886C160.168 38.0911 159.295 38.2859 158.415 38.2546H158.383ZM175.939 38.2546C174.139 38.3713 172.349 37.9029 170.839 36.9199C170.233 36.4938 169.738 35.9311 169.393 35.2778C169.048 34.6246 168.863 33.8994 168.853 33.1616H173.213C173.236 33.4696 173.323 33.7698 173.464 34.0448C173.606 34.3196 173.801 34.5638 174.039 34.7631C174.573 35.1526 175.226 35.3453 175.886 35.3078C176.461 35.3323 177.031 35.2031 177.539 34.9339C177.731 34.8296 177.889 34.6746 177.998 34.4861C178.106 34.2976 178.159 34.0831 178.151 33.8663C178.156 33.7223 178.129 33.5789 178.076 33.4449C178.023 33.3109 177.943 33.1893 177.841 33.0869C177.608 32.8959 177.341 32.7476 177.056 32.6491C176.676 32.5204 176.284 32.4276 175.886 32.3716C175.434 32.3074 174.973 32.2221 174.511 32.1259C173.878 32.0193 173.254 31.8804 172.633 31.7203C172.036 31.5724 171.466 31.3309 170.946 31.0049C170.444 30.6849 170.031 30.2445 169.744 29.7236C169.421 29.082 169.266 28.3694 169.293 27.6523C169.278 26.9518 169.448 26.2594 169.786 25.6451C170.096 25.0409 170.541 24.5151 171.086 24.1076C171.698 23.7063 172.373 23.4103 173.083 23.2321C173.878 23.0336 174.693 22.9333 175.509 22.9331C177.198 22.8264 178.874 23.2769 180.278 24.2144C180.814 24.6089 181.256 25.1174 181.569 25.7029C181.883 26.2884 182.063 26.9361 182.093 27.5989H177.798C177.789 27.3311 177.718 27.0691 177.588 26.8336C177.459 26.5983 177.278 26.3959 177.056 26.2429C176.574 25.9908 176.033 25.8691 175.489 25.8906C174.989 25.8743 174.494 25.9844 174.049 26.2109C173.866 26.3051 173.714 26.4499 173.611 26.6279C173.508 26.8059 173.459 27.0096 173.469 27.2146C173.464 27.3323 173.488 27.4496 173.536 27.5571C173.584 27.6644 173.658 27.7593 173.749 27.8339C173.983 28.0039 174.244 28.134 174.523 28.2183C174.874 28.3313 175.233 28.4204 175.596 28.4851L176.916 28.7094C177.561 28.8268 178.206 28.9656 178.861 29.1151C179.493 29.2681 180.094 29.5243 180.643 29.8731C181.188 30.2151 181.641 30.6841 181.964 31.2398C182.509 32.2034 182.673 33.3358 182.421 34.4131C182.168 35.4903 181.518 36.4345 180.599 37.0588C179.944 37.4831 179.216 37.7868 178.453 37.9556C177.589 38.1713 176.701 38.2753 175.811 38.2653L175.939 38.2546ZM191.434 38.2653C190.333 38.2801 189.239 38.0843 188.213 37.6886C187.294 37.3301 186.463 36.7804 185.776 36.0764C185.103 35.3768 184.581 34.5486 184.239 33.6421C183.878 32.6649 183.694 31.6303 183.703 30.5885C183.696 29.5643 183.879 28.5474 184.239 27.5883C184.578 26.6889 185.096 25.8678 185.764 25.1754C186.433 24.4831 187.238 23.9344 188.128 23.5631C189.089 23.1651 190.124 22.9653 191.166 22.9759C192.119 22.9609 193.066 23.1239 193.958 23.4563C194.746 23.7683 195.474 24.2164 196.106 24.7803C196.998 25.6061 197.664 26.6414 198.049 27.7911C198.481 29.0851 198.688 30.4426 198.661 31.8056H188.331C188.428 32.6626 188.784 33.4704 189.351 34.1226C189.644 34.4121 189.996 34.6368 190.383 34.7821C190.769 34.9274 191.183 34.9901 191.596 34.9661C192.119 34.9858 192.639 34.8521 193.088 34.5816C193.491 34.3224 193.808 33.9511 194.001 33.5139H198.533C198.371 34.1879 198.083 34.8256 197.684 35.3931C197.241 35.9911 196.694 36.5078 196.073 36.9199C195.454 37.3524 194.768 37.6839 194.044 37.9023C193.228 38.1373 192.381 38.2523 191.531 38.2438L191.434 38.2653ZM194.086 29.0511C194.034 28.2853 193.724 27.5595 193.206 26.9904C192.963 26.7444 192.673 26.5511 192.351 26.4224C192.029 26.2938 191.684 26.2328 191.338 26.2429C190.963 26.2186 190.588 26.2734 190.236 26.4043C189.884 26.5349 189.564 26.7383 189.298 27.0011C188.793 27.5848 188.464 28.2996 188.353 29.0618L194.086 29.0511Z" fill="#1B1B1B"/>
<path d="M20.3645 0V35.3085L40.6913 50H40.745L20.3645 0Z" fill="#93D500"/>
<path d="M0 49.9467H0.0644283L20.3591 35.2445V0L0 49.9467Z" fill="#1B1B1B"/>
</svg>
