<svg width="354" height="377" viewBox="0 0 354 377" fill="none" xmlns="http://www.w3.org/2000/svg">
<rect width="354" height="377" fill="url(#paint0_radial_1_209)"/>
<path d="M121.448 215.544L113.681 196.241C113.681 196.241 110.46 187.106 107.787 185.295C105.114 183.485 102.293 185.295 99.8932 183.001C97.4935 180.706 95.8095 182.18 95.8095 182.18C95.8095 182.18 93.0099 177.97 90.6102 177.275C89.2764 177.029 87.8993 177.32 86.7793 178.085C85.6593 178.85 84.8874 180.027 84.632 181.359C83.79 184.348 87.7895 189.779 89.4524 191.884C91.1154 193.989 98.0197 197.231 100.525 198.388C103.03 199.546 104.735 199.925 105.745 203.23L114.165 225.08" fill="#FFE1BD"/>
<path d="M165.569 186.327L155.297 231.857C145.403 247.792 138.457 260.885 129.047 259.391C115.323 257.286 108.966 214.407 108.966 214.407C112.88 213.041 116.395 210.727 119.196 207.671L130.437 231.1C132.289 228.279 136.289 221.669 140.583 214.533C140.583 214.533 140.583 214.533 140.583 214.428C146.898 204.03 153.886 192.536 156.075 190.137C157.329 188.908 158.813 187.938 160.442 187.284C162.071 186.63 163.814 186.305 165.569 186.327Z" fill="#3E96F4"/>
<path d="M140.582 214.597C131.363 231.226 133.973 238.446 133.973 238.446L130.436 231.1C132.289 228.342 136.288 221.733 140.582 214.597Z" fill="#127EF1"/>
<path d="M167.821 170.497C167.673 175.149 168.515 191 168.515 191C168.515 191 177.735 185.569 182.724 185.653C187.713 185.737 179.861 170.918 179.861 170.918" fill="#31393C"/>
<path d="M150.645 232.615C150.855 233.184 151.066 233.752 151.297 234.299C152.51 237.181 154.073 239.903 155.949 242.403C157.249 244.117 158.278 246.019 159.001 248.045C159.675 249.882 160.099 251.8 160.264 253.749C161.657 269.413 160.663 285.198 157.317 300.564C157.317 300.564 175.715 321.488 198.512 321.488C221.309 321.488 228.445 311.447 228.445 311.447C228.445 311.447 222.888 297.659 218.993 288.966C216.194 282.651 216.152 268.589 218.299 257.391C220.446 246.192 233.581 216.281 224.614 203.335C215.646 190.389 181.882 187.084 166.916 186.369C165.669 186.313 164.423 186.521 163.262 186.978C162.1 187.436 161.048 188.134 160.174 189.026C159.3 189.917 158.624 190.983 158.19 192.154C157.755 193.325 157.573 194.574 157.654 195.82C157.928 200.03 158.728 204.64 157.233 208.45C154.476 215.481 147.634 224.174 150.645 232.615Z" fill="#3E96F4"/>
<path d="M165.548 246.803C170.178 248.382 180.409 251.539 189.165 254.065C192.272 254.359 195.405 254 198.364 253.013C202.174 251.392 203.248 239.057 203.248 239.057C203.248 233.289 203.416 229.163 203.416 229.163L217.057 256.36L213.183 277.725L189.165 288.061L203.416 270.337V266.443C203.385 265.689 203.125 264.962 202.67 264.36C202.214 263.758 201.586 263.31 200.869 263.075C196.659 261.601 188.239 257.581 182.893 255.96C175.736 253.855 162.832 250.466 159.043 248.045C158.32 246.02 157.291 244.117 155.991 242.404C154.114 239.903 152.552 237.181 151.339 234.299C151.655 234.91 157.359 244.045 165.548 246.803Z" fill="#127EF1"/>
<path d="M176.303 192.894C176.303 192.894 172.219 197.378 176.408 199.735L178.303 195.799L176.303 192.894Z" fill="#F9C89B"/>
<path d="M192.617 170.055C192.617 170.055 198.364 187.147 198.511 190.031C198.659 192.915 189.165 205.103 176.409 199.693C176.409 199.693 177.125 183.169 172.052 176.896" fill="#FFD1A4"/>
<path d="M162.538 141.848C161.255 150.752 161.576 159.813 163.485 168.603C166.748 181.233 171.674 185.969 174.515 186.243C177.357 186.516 193.06 180.77 198.365 169.024C203.669 157.278 204.448 147.49 202.575 140.354C200.701 133.218 188.619 126.756 180.009 127.976C171.4 129.197 163.654 133.66 162.538 141.848Z" fill="#FFE1BD"/>
<path d="M161.843 144.416C160.896 146.499 160.406 148.76 160.406 151.047C160.406 153.335 160.896 155.596 161.843 157.678C161.843 157.678 162.496 149.111 167.443 147.805" fill="#31393C"/>
<path d="M204.51 134.586C192.217 118.883 171.462 124.587 163.526 136.312L163 137.196C162.205 138.7 161.767 140.366 161.719 142.066C161.672 143.766 162.017 145.454 162.728 146.999C163.438 148.544 164.495 149.905 165.816 150.976C167.137 152.046 168.688 152.798 170.346 153.173C173.714 153.994 192.933 155.678 193.164 161.277C193.164 163.024 193.164 164.877 193.164 166.94V167.319C193.038 170.666 192.807 177.591 192.954 183.527C192.954 183.527 192.849 207.503 194.533 208.661C196.217 209.818 202.342 194.431 208.173 192.915C208.152 192.915 216.824 150.352 204.51 134.586Z" fill="#4D5F66"/>
<path d="M192.007 162.625C192.487 161.868 193.164 161.257 193.965 160.856C194.766 160.455 195.661 160.281 196.554 160.351C199.249 160.899 199.291 165.045 198.322 168.329C197.942 169.68 197.104 170.857 195.953 171.659C194.801 172.462 193.407 172.84 192.007 172.729" fill="#FFE1BD"/>
<path d="M198.321 298.859C198.321 298.859 182.576 306.016 178.871 310.121L167.904 303.006L169.546 302.375C174.872 300.438 190.154 288.924 190.154 288.924L198.321 298.859Z" fill="#FFE1BD"/>
<path d="M178.746 297.133C178.746 297.133 175.61 299.343 175.104 299.533C173.25 299.569 171.417 299.94 169.695 300.627C167.421 301.806 166.179 304.332 164.832 304.837C163.485 305.343 158.833 305.911 157.591 307.258C156.349 308.605 161.948 317.278 163.737 318.351C165.527 319.425 169.821 318.751 173.21 317.446C176.599 316.141 178.325 310.668 179.798 309.216C181.152 308.02 182.61 306.95 184.156 306.016" fill="#FFE1BD"/>
<path d="M172.641 299.764C170.661 299.698 168.679 299.747 166.704 299.911C165.021 300.6 163.458 301.552 162.074 302.732C161.863 303.111 162.642 304.269 164.052 303.953C165.493 303.714 166.949 303.588 168.41 303.574" fill="#FFE1BD"/>
<path d="M217.856 199.378C217.856 199.378 227.56 199.378 228.739 215.291C229.918 231.205 229.097 254.212 228.95 263.243C228.802 272.273 229.244 276.862 227.602 279.43C224.445 284.377 192.639 303.574 192.639 303.574C192.224 301.202 191.275 298.955 189.864 297.004C188.452 295.053 186.615 293.449 184.492 292.313C184.492 292.313 197.67 280.377 206.426 272.821C207.213 272.176 207.819 271.339 208.188 270.392C208.557 269.444 208.675 268.417 208.531 267.411C207.037 257.77 202.827 229.521 203.079 220.175C203.269 208.766 210.447 200.177 217.856 199.378Z" fill="#3E96F4"/>
<path d="M268.881 259.243L272.502 257.138L282.416 262.864L278.775 264.969L268.881 259.243Z" fill="#AED3FB"/>
<path d="M268.881 294.375L272.502 292.27L282.416 297.975L278.775 300.101L268.881 294.375Z" fill="url(#paint1_linear_1_209)"/>
<path d="M268.881 259.243V294.376L278.775 300.101V264.969L268.881 259.243Z" fill="#73B3F8"/>
<path d="M282.417 262.864V297.975L278.775 300.101V264.969L282.417 262.864Z" fill="#479DFA"/>
<path d="M283.742 253.139L287.363 251.034L297.277 256.759L293.636 258.864L283.742 253.139Z" fill="#AED3FB"/>
<path d="M283.742 302.943L287.363 300.838L297.277 306.563L293.636 308.668L283.742 302.943Z" fill="url(#paint2_linear_1_209)"/>
<path d="M283.742 253.139V302.943L293.636 308.669V258.865L283.742 253.139Z" fill="#73B3F8"/>
<path d="M297.278 256.759V306.563L293.636 308.668V258.864L297.278 256.759Z" fill="#479DFA"/>
<path d="M298.604 247.034L302.224 244.929L312.139 250.655L308.497 252.76L298.604 247.034Z" fill="#AED3FB"/>
<path d="M298.604 311.531L302.224 309.426L312.139 315.151L308.497 317.256L298.604 311.531Z" fill="url(#paint3_linear_1_209)"/>
<path d="M298.604 247.035V311.532L308.497 317.257V252.76L298.604 247.035Z" fill="#73B3F8"/>
<path d="M312.139 250.655V315.151L308.497 317.256V252.76L312.139 250.655Z" fill="#479DFA"/>
<path d="M313.465 240.93L317.085 238.825L327 244.551L323.379 246.655L313.465 240.93Z" fill="#AED3FB"/>
<path d="M313.465 320.119L317.085 317.993L327 323.719L323.379 325.824L313.465 320.119Z" fill="url(#paint4_linear_1_209)"/>
<path d="M313.465 240.93V320.12L323.379 325.824V246.656L313.465 240.93Z" fill="#73B3F8"/>
<path d="M326.999 244.551V323.719L323.379 325.824V246.656L326.999 244.551Z" fill="#479DFA"/>
<path d="M122.985 140.48V172.202L117.154 175.507L87.6 153.299L82.9901 124.124L88.8209 120.82L122.985 140.48Z" fill="#AED3FB"/>
<path d="M122.984 140.48V172.202L117.153 175.507L87.5993 153.299L117.153 143.806L122.984 140.48Z" fill="#479DFA"/>
<path d="M117.154 143.806V175.507L82.9901 155.846V124.124L117.154 143.806Z" fill="#73B3F8"/>
<path d="M96.1877 158.078C95.9995 158.109 95.8076 158.109 95.6194 158.078C95.2658 157.997 94.9339 157.84 94.6468 157.619C94.3597 157.397 94.1241 157.115 93.9564 156.794L89.3465 147.637C89.1719 147.342 89.0598 147.014 89.0172 146.674C88.9745 146.333 89.0022 145.988 89.0985 145.659C89.1949 145.329 89.3578 145.024 89.5772 144.76C89.7966 144.496 90.0678 144.28 90.374 144.126C90.6802 143.971 91.0149 143.881 91.3573 143.861C91.6997 143.842 92.0426 143.892 92.3647 144.01C92.6867 144.128 92.9811 144.311 93.2295 144.548C93.478 144.784 93.6753 145.069 93.8091 145.385L97.0929 151.91L108.039 143.89C108.576 143.543 109.226 143.415 109.855 143.531C110.485 143.648 111.045 144.001 111.422 144.518C111.799 145.035 111.964 145.677 111.883 146.312C111.802 146.947 111.481 147.526 110.986 147.932L97.6612 157.678C97.2248 157.964 96.7088 158.104 96.1877 158.078Z" fill="white"/>
<path d="M294.288 215.986V218.933L289.489 221.711L285.763 212.323L285.931 211.544L280.416 208.324L276.669 206.219V203.272C276.669 202.977 276.669 202.682 276.669 202.409H275.743C275.554 202.409 272.817 200.872 272.817 200.872L279.638 196.936L277.953 192.221L274.628 185.758L279.195 183.148L279.511 182.959C280.299 182.667 281.146 182.572 281.979 182.682C282.811 182.792 283.605 183.104 284.29 183.59C286.352 184.923 288.069 186.727 289.299 188.853C290.528 190.979 291.236 193.367 291.362 195.82C291.362 199.335 289.405 201.209 286.71 200.788C288.911 202.698 290.714 205.024 292.014 207.632C293.314 210.24 294.087 213.079 294.288 215.986Z" fill="#CCCCCC"/>
<path d="M294.288 215.986V218.933L289.489 221.711L285.763 212.323L285.931 211.544L280.416 208.324L276.669 206.219V203.272C276.669 202.977 276.669 202.682 276.669 202.409H275.743C275.554 202.409 272.817 200.872 272.817 200.872L279.638 196.936L277.953 192.221L277.49 191.315L274.628 185.758L279.195 183.148L279.511 182.959C280.299 182.667 281.146 182.572 281.979 182.682C282.811 182.792 283.605 183.104 284.29 183.59C286.03 184.647 287.506 186.086 288.605 187.8C290.294 190.151 291.253 192.948 291.362 195.841C291.362 199.356 289.405 201.23 286.71 200.809C288.909 202.716 290.71 205.039 292.01 207.643C293.31 210.247 294.085 213.082 294.288 215.986Z" fill="#459FFF"/>
<path style="mix-blend-mode:multiply" opacity="0.5" d="M288.71 187.548L283.573 193.21C283.573 193.21 280.647 192.242 277.511 191.105L274.648 185.548L279.216 182.938L279.532 182.748C280.319 182.456 281.166 182.361 281.999 182.471C282.832 182.582 283.625 182.893 284.31 183.38C286.076 184.414 287.582 185.84 288.71 187.548Z" fill="url(#paint5_linear_1_209)"/>
<path d="M294.288 215.986V218.933L289.489 221.712L285.763 212.323L285.931 211.544L280.416 208.324C281.279 205.735 282.121 203.314 282.121 203.314L286.9 200.556C289.093 202.51 290.876 204.88 292.144 207.529C293.412 210.178 294.141 213.053 294.288 215.986Z" fill="#459FFF"/>
<path d="M284.647 202.872L289.425 200.135L286.899 198.115L285.447 198.914L285.215 200.346L284.647 202.872Z" fill="#459FFF"/>
<path d="M279.616 186.116C281.675 187.458 283.389 189.266 284.618 191.395C285.847 193.524 286.557 195.913 286.688 198.367C286.688 201.861 284.752 203.735 282.036 203.335C284.245 205.281 286.043 207.648 287.326 210.297C288.61 212.946 289.352 215.825 289.509 218.764V221.711L269.575 210.197V207.25C269.575 201.903 272.796 199.251 277.09 200.472C274.331 197.724 272.695 194.047 272.501 190.158C272.522 185.674 275.7 183.843 279.616 186.116Z" fill="#C4E0FE"/>
<path d="M32.9958 182.39V187.379L56.2979 213.502L79.6422 214.07V209.103L32.9958 182.39Z" fill="#FFB70F"/>
<path d="M56.2979 219.038L32.9958 192.915V224.532L79.6422 251.223V219.585L56.2979 219.038Z" fill="#B4D8FF"/>
<path d="M25.1868 197.378L32.9963 192.915L56.2985 219.038L48.489 223.501L25.1868 197.378Z" fill="#3E9BFF"/>
<path d="M25.1868 186.853V191.842L48.489 217.965L71.8333 218.533V213.565L25.1868 186.853Z" fill="#7CBBFF"/>
<path d="M48.489 223.501L25.1868 197.378V228.995L71.8333 255.707V224.048L48.489 223.501Z" fill="#7CBBFF"/>
<path d="M25.1868 186.853L32.9963 182.39L79.6428 209.103L71.8333 213.565L25.1868 186.853Z" fill="#B4D8FF"/>
<path d="M71.8325 213.565V218.533L79.642 214.07V209.103L71.8325 213.565Z" fill="#3E9BFF"/>
<path d="M71.8325 224.048L79.642 219.585V251.223L71.8325 255.707V224.048Z" fill="#3E9BFF"/>
<path d="M229.792 143.343L235.496 140.185L240.632 129.723L236.633 129.324L229.792 143.343Z" fill="#0B81FF"/>
<path d="M223.309 121.03L229.771 143.343L236.633 129.323L223.309 121.03Z" fill="#3E96F4"/>
<path d="M284.541 89.813V150.479L278.858 153.636L213.519 115.999V55.3334L219.202 52.1759L284.541 89.813Z" fill="#B4D8FF"/>
<path d="M284.541 89.8129V150.479L278.858 153.636L213.519 115.999L278.858 92.9703L284.541 89.8129Z" fill="#0776ED"/>
<path d="M278.858 92.9706V153.636L213.519 115.999V55.3335L278.858 92.9706Z" fill="#3E96F4"/>
<path d="M226.15 85.8557C227.913 87.01 229.378 88.5656 230.424 90.3949C231.47 92.2243 232.069 94.2755 232.17 96.3806C232.17 100.233 229.454 101.769 226.107 99.8328C224.334 98.6871 222.861 97.1341 221.81 95.3032C220.759 93.4723 220.161 91.4167 220.066 89.3078C220.066 85.561 222.803 84.0243 226.15 85.8557Z" fill="white"/>
<path d="M246.21 97.5384C247.977 98.689 249.445 100.244 250.492 102.074C251.538 103.904 252.135 105.957 252.231 108.063C252.231 111.915 249.515 113.452 246.168 111.516C244.394 110.371 242.92 108.818 241.869 106.987C240.818 105.156 240.22 103.1 240.127 100.991C240.127 97.1595 242.864 95.6018 246.21 97.5384Z" fill="white"/>
<path d="M266.27 109.116C268.035 110.269 269.5 111.824 270.547 113.654C271.594 115.483 272.191 117.535 272.291 119.641C272.291 123.472 269.575 125.008 266.228 123.093C264.458 121.945 262.986 120.391 261.935 118.561C260.885 116.73 260.285 114.676 260.187 112.568C260.187 108.737 262.923 107.179 266.27 109.116Z" fill="white"/>
<defs>
<radialGradient id="paint0_radial_1_209" cx="0" cy="0" r="1" gradientUnits="userSpaceOnUse" gradientTransform="translate(177 188.5) rotate(90) scale(188.5 177)">
<stop stop-color="#3E96F4"/>
<stop offset="1" stop-color="white" stop-opacity="0"/>
</radialGradient>
<linearGradient id="paint1_linear_1_209" x1="268.881" y1="296.186" x2="282.416" y2="296.186" gradientUnits="userSpaceOnUse">
<stop stop-color="#00EEFF"/>
<stop offset="0.5" stop-color="#5E8DFF"/>
<stop offset="1" stop-color="#B930FF"/>
</linearGradient>
<linearGradient id="paint2_linear_1_209" x1="283.742" y1="304.753" x2="297.277" y2="304.753" gradientUnits="userSpaceOnUse">
<stop stop-color="#00EEFF"/>
<stop offset="0.5" stop-color="#5E8DFF"/>
<stop offset="1" stop-color="#B930FF"/>
</linearGradient>
<linearGradient id="paint3_linear_1_209" x1="298.604" y1="313.341" x2="312.139" y2="313.341" gradientUnits="userSpaceOnUse">
<stop stop-color="#00EEFF"/>
<stop offset="0.5" stop-color="#5E8DFF"/>
<stop offset="1" stop-color="#B930FF"/>
</linearGradient>
<linearGradient id="paint4_linear_1_209" x1="313.465" y1="321.909" x2="327" y2="321.909" gradientUnits="userSpaceOnUse">
<stop stop-color="#00EEFF"/>
<stop offset="0.5" stop-color="#5E8DFF"/>
<stop offset="1" stop-color="#B930FF"/>
</linearGradient>
<linearGradient id="paint5_linear_1_209" x1="283.468" y1="189.947" x2="279.848" y2="183.674" gradientUnits="userSpaceOnUse">
<stop stop-color="#E1E2E4" stop-opacity="0"/>
<stop offset="1" stop-color="#808081"/>
</linearGradient>
</defs>
</svg>
