<svg width="64" height="64" viewBox="0 0 64 64" fill="none" xmlns="http://www.w3.org/2000/svg">
<rect x="0.5" y="0.5" width="63" height="63" rx="7.5" fill="#3E96F4" stroke="#3E96F4"/>
<path d="M45.6134 23.7215C45.8474 23.8534 46 24.1072 46 24.3812V39.6162C46 39.8902 45.8576 40.144 45.6134 40.2759L32.3866 47.8985C32.2645 47.9695 32.1323 48 32 48C31.8677 48 31.7355 47.9695 31.6134 47.8985L18.3866 40.2759C18.2697 40.2096 18.1725 40.1136 18.1046 39.9978C18.0367 39.882 18.0006 39.7504 18 39.6162V24.3812C18 24.1072 18.1424 23.8534 18.3866 23.7215L31.6134 16.0989C31.73 16.0341 31.8614 16 31.9949 16C32.1285 16 32.2598 16.0341 32.3765 16.0989L45.6032 23.7215H45.6134ZM26.9128 20.575L38.6235 27.3247L43.7209 24.3914L32.0102 17.6417L26.923 20.575H26.9128ZM32 31.1309L37.0974 28.1976L25.3866 21.4479L20.2892 24.3812L32 31.1208V31.1309ZM19.5363 39.1798L31.2369 45.9193V32.4504L19.5363 25.721V39.1798ZM44.4637 39.1798V25.721L39.3765 28.6442V32.2575C39.3765 32.6737 39.0305 33.0188 38.6134 33.0188C38.1962 33.0188 37.8503 32.6737 37.8503 32.2575V29.5272L32.7631 32.4504V45.9193L44.4637 39.1798ZM28.3067 39.5452L24.2369 37.2107C24.0614 37.1116 23.8537 37.0859 23.6593 37.1392C23.4648 37.1925 23.2994 37.3203 23.1991 37.4949C23.1486 37.5812 23.1159 37.6768 23.1029 37.776C23.0899 37.8751 23.0968 37.9758 23.1234 38.0723C23.1499 38.1687 23.1955 38.2589 23.2574 38.3375C23.3193 38.4161 23.3964 38.4816 23.484 38.5302L27.5538 40.8646C27.6759 40.9357 27.8081 40.9661 27.9302 40.9661C28.1948 40.9661 28.4491 40.8342 28.5916 40.5804C28.6421 40.4941 28.6748 40.3985 28.6878 40.2994C28.7008 40.2002 28.6939 40.0995 28.6673 40.003C28.6408 39.9066 28.5952 39.8164 28.5333 39.7378C28.4714 39.6592 28.3943 39.5937 28.3067 39.5452Z" fill="white" stroke="white" stroke-width="0.2"/>
</svg>
