<svg width="327" height="305" viewBox="0 0 327 305" fill="none" xmlns="http://www.w3.org/2000/svg">
<path d="M48.1565 273.936V249.112C53.0438 249.11 57.8229 250.551 61.8951 253.253C65.9674 255.956 69.1516 259.8 71.0489 264.304C72.9463 268.808 73.4723 273.771 72.5612 278.573C71.6501 283.375 69.3423 287.801 65.927 291.296C62.5117 294.792 58.1407 297.203 53.3616 298.226C48.5825 299.248 43.6079 298.838 39.0608 297.046C34.5138 295.255 30.5967 292.161 27.8001 288.153C25.0035 284.145 23.4518 279.4 23.3395 274.514L48.1565 273.936Z" fill="#E0E0E0"/>
<path d="M42.1076 267.242L17.2758 267.805C17.2745 261.17 19.7882 254.782 24.3102 249.927C28.9374 245.286 35.1709 242.6 41.7221 242.425L42.1076 267.242Z" fill="#F5F5F5"/>
<path d="M308.096 32.2441L326.709 29.4052C327.302 33.292 326.662 37.2668 324.88 40.7716C323.099 44.2764 320.264 47.1352 316.774 48.9464C313.284 50.7577 309.315 51.4306 305.423 50.8706C301.532 50.3106 297.913 48.5459 295.076 45.8241C292.238 43.1024 290.325 39.5604 289.603 35.6954C288.882 31.8304 289.389 27.8365 291.053 24.2745C292.718 20.7124 295.456 17.7612 298.884 15.835C302.312 13.9089 306.256 13.1046 310.164 13.535L308.096 32.2441Z" fill="#F5F5F5"/>
<path d="M314.137 13.5942L311.876 28.0189L326.041 25.3578C326.041 25.3578 323.958 17.2782 314.137 13.5942Z" fill="#E0E0E0"/>
<path d="M32.9823 21.7485H22.6716V62.9323H32.9823V21.7485Z" fill="#E0E0E0"/>
<path d="M48.1408 30.7324H37.8301V62.9322H48.1408V30.7324Z" fill="#E0E0E0"/>
<path d="M63.5373 38.0852H53.2265V62.9318H63.5373V38.0852Z" fill="#E0E0E0"/>
<path d="M77.7916 48.1736H67.4808V62.9244H77.7916V48.1736Z" fill="#E0E0E0"/>
<path d="M242.994 213.445C242.943 208.916 244.235 204.473 246.707 200.677C249.179 196.882 252.72 193.903 256.883 192.118C261.046 190.332 265.644 189.82 270.098 190.646C274.551 191.471 278.661 193.597 281.907 196.756C285.154 199.915 287.392 203.964 288.339 208.394C289.286 212.823 288.9 217.434 287.23 221.644C285.559 225.854 282.679 229.476 278.953 232.05C275.226 234.625 270.82 236.039 266.291 236.112C260.198 236.188 254.324 233.844 249.957 229.594C245.59 225.345 243.086 219.538 242.994 213.445ZM276.884 212.896C276.838 210.731 276.152 208.628 274.912 206.852C273.672 205.076 271.934 203.707 269.917 202.918C267.9 202.129 265.694 201.955 263.579 202.418C261.463 202.881 259.532 203.961 258.029 205.521C256.526 207.08 255.519 209.05 255.134 211.182C254.75 213.313 255.005 215.511 255.869 217.497C256.732 219.484 258.164 221.17 259.985 222.343C261.806 223.516 263.933 224.124 266.099 224.089C267.542 224.063 268.966 223.753 270.289 223.176C271.613 222.6 272.809 221.768 273.811 220.728C274.813 219.689 275.6 218.462 276.127 217.118C276.654 215.774 276.911 214.34 276.884 212.896Z" fill="#F5F5F5"/>
<path d="M242.993 213.446C242.889 207.352 245.207 201.467 249.437 197.08C253.666 192.693 259.463 190.163 265.556 190.044L265.749 202.067C262.869 202.172 260.144 203.402 258.16 205.492C256.176 207.583 255.09 210.367 255.136 213.249C255.181 216.131 256.355 218.88 258.404 220.907C260.453 222.933 263.215 224.076 266.097 224.09L266.29 236.113C263.272 236.155 260.275 235.602 257.47 234.486C254.666 233.369 252.108 231.711 249.945 229.606C247.781 227.501 246.054 224.99 244.861 222.217C243.668 219.445 243.033 216.464 242.993 213.446Z" fill="#E0E0E0"/>
<path d="M263.498 188.198C266.981 188.115 270.446 188.728 273.689 190.001C276.933 191.274 279.89 193.181 282.388 195.611C284.885 198.041 286.873 200.944 288.234 204.152C289.595 207.359 290.303 210.806 290.316 214.29L276.321 214.52C276.203 207.419 270.799 202.942 263.72 203.053L263.498 188.198Z" fill="#EBEBEB"/>
<path d="M3.53305 224.331L3.82955 224.101L4.73387 223.427L8.23256 220.847L21.4416 211.211L67.2582 177.966L67.1914 178.173C63.214 167.045 61.1781 155.316 61.1725 143.498C61.1695 139.598 61.3774 135.701 61.7952 131.823C62.2282 128.064 62.8617 124.33 63.6928 120.638C65.2468 113.647 67.5532 106.844 70.5715 100.35C79.2436 81.8619 93.2011 66.3593 110.68 55.8008L114.016 53.8884C114.987 53.3398 115.84 52.9396 116.514 52.5912L118.056 51.8499C118.404 51.672 118.59 51.5979 118.59 51.5979C118.59 51.5979 118.419 51.7017 118.071 51.887L116.588 52.6949C115.921 53.0582 115.069 53.4362 114.105 54.0218L110.799 55.9639C93.4369 66.6013 79.5765 82.0982 70.9347 100.535C67.9334 107.009 65.642 113.789 64.1004 120.756C63.2718 124.426 62.6433 128.137 62.2177 131.875C61.7999 135.738 61.5921 139.62 61.595 143.505C61.5869 155.274 63.5951 166.957 67.5324 178.047L67.5769 178.181L67.4657 178.262L21.575 211.396L8.30669 220.943C6.75748 222.041 5.57148 222.893 4.75611 223.479L3.83696 224.123L3.53305 224.331Z" fill="#429EFF"/>
<path d="M88.7631 30.8501C88.7631 30.8501 88.6222 30.9316 88.3406 31.0725L87.0953 31.6803L85.0717 32.6662C84.2637 33.0516 83.3816 33.5853 82.3587 34.1486C76.647 37.3305 71.2877 41.1072 66.37 45.4156C62.9813 48.3954 59.792 51.5946 56.8227 54.9926C53.4409 58.9 50.3326 63.0361 47.52 67.3714C41.0991 77.3726 36.205 88.2751 32.999 99.7195C29.7844 111.158 27.8869 122.926 27.3432 134.795C26.8344 144.472 27.0574 154.173 28.0104 163.815C28.6252 170.349 29.889 176.805 31.7833 183.088C32.4727 185.311 33.1027 186.987 33.5401 188.121L34.0515 189.411L34.2146 189.855C34.2146 189.855 34.1405 189.714 34.0145 189.425L33.4363 188.113C32.9767 186.987 32.3244 185.304 31.6128 183.095C29.6589 176.838 28.35 170.398 27.7065 163.874C26.7039 154.211 26.4437 144.484 26.9281 134.781C27.4478 122.881 29.3406 111.081 32.569 99.6157C35.7865 88.1363 40.7036 77.2029 47.1568 67.1787C49.9986 62.8298 53.1392 58.6837 56.5558 54.7702C59.5505 51.3663 62.7698 48.1669 66.1921 45.1932C71.1394 40.8926 76.5374 37.1399 82.292 34.0004C83.3149 33.4593 84.2044 32.9404 85.0198 32.5698L87.0656 31.6136L88.3257 31.0354L88.7631 30.8501Z" fill="#429EFF"/>
<path d="M112.803 0C112.803 0 112.84 0.0370625 112.9 0.126012L113.159 0.504049L114.123 1.98655L117.718 7.66451C120.786 12.5716 125.13 19.5245 130.223 27.6263L130.022 27.5522C137.005 25.6399 144.133 24.3012 151.333 23.5495C158.359 22.8049 165.433 22.614 172.489 22.9787C178.25 23.2867 183.985 23.9751 189.656 25.0394L191.427 25.3655L193.095 25.7287L196.157 26.4107C198.047 26.9073 199.678 27.3002 201.004 27.6782L204.036 28.5974L204.822 28.8494C204.912 28.8712 204.999 28.9035 205.081 28.9457C204.988 28.9337 204.897 28.9138 204.807 28.8864L204.014 28.6715L200.96 27.8265C199.633 27.4707 197.995 27.0852 196.105 26.6182L193.043 25.9437L191.376 25.5953L189.604 25.284C183.943 24.2547 178.221 23.5936 172.474 23.3048C165.435 22.9533 158.379 23.1491 151.37 23.8904C144.192 24.6359 137.085 25.9596 130.119 27.8487H129.985L129.919 27.7375C124.871 19.5838 120.579 12.6235 117.532 7.72381C116.05 5.27769 114.849 3.33562 114.026 1.98655L113.107 0.459575L112.877 0.0592998C112.852 0.0403543 112.827 0.020577 112.803 0Z" fill="#429EFF"/>
<path d="M300.984 99.2533C300.947 99.1886 300.919 99.1187 300.903 99.0458L300.703 98.4157C300.525 97.8375 300.28 97.037 299.961 96.0067C299.643 94.9763 299.287 93.6717 298.76 92.2115L297.96 89.8543C297.812 89.4392 297.671 89.0093 297.515 88.5719L296.996 87.2377C296.255 85.4216 295.514 83.4128 294.565 81.3077C294.083 80.2625 293.638 79.1581 293.082 78.061L291.392 74.7106C288.785 69.7505 285.833 64.98 282.557 60.4341C279.23 55.9245 275.604 51.6428 271.705 47.618C270.793 46.6988 269.904 45.8093 269.044 44.9347C268.184 44.06 267.28 43.2891 266.442 42.5034C264.782 40.9097 263.129 39.5384 261.654 38.2708L260.564 37.3369L259.519 36.4918L257.577 34.9352C256.376 33.9494 255.294 33.1636 254.419 32.5039L252.41 31.0214L251.891 30.6211L251.721 30.4729C251.721 30.4729 251.795 30.4729 251.914 30.5841L252.455 30.9621L254.508 32.4446C255.397 33.0821 256.494 33.853 257.71 34.824L259.674 36.3213L260.749 37.159L261.839 38.0855C263.321 39.3531 265.004 40.7021 266.672 42.2884C267.517 43.0741 268.414 43.8598 269.296 44.7123L271.972 47.3882C275.899 51.4124 279.545 55.702 282.883 60.2266C286.172 64.7868 289.125 69.5805 291.719 74.5698L293.409 77.9647C293.95 79.0617 294.394 80.1884 294.891 81.2188C295.862 83.3165 296.581 85.3327 297.285 87.1487C297.463 87.6083 297.634 88.0531 297.797 88.4904C297.96 88.9277 298.086 89.3651 298.227 89.7802C298.501 90.6178 298.76 91.4109 299.005 92.1447C299.517 93.6272 299.857 94.917 300.147 95.9696C300.436 97.0222 300.651 97.8227 300.806 98.4083C300.873 98.6677 300.925 98.8753 300.969 99.0384L300.984 99.2533Z" fill="#429EFF"/>
<path d="M273.134 305.009C273.134 305.009 273.089 304.942 273.015 304.801L272.704 304.179C272.422 303.608 272.029 302.793 271.518 301.74C270.48 299.583 268.99 296.47 267.122 292.563C263.379 284.699 258.124 273.632 252.016 260.771L251.949 260.638L252.075 260.541C257.79 256.215 263.174 251.468 268.182 246.339C269.057 245.487 269.872 244.597 270.68 243.708L273.104 241.069L275.387 238.385C276.128 237.489 276.87 236.621 277.611 235.71C279.012 233.894 280.443 232.144 281.703 230.336L283.615 227.674C284.223 226.785 284.801 225.888 285.387 225.013C289.512 218.785 293.15 212.248 296.268 205.459C297.632 202.576 298.685 199.885 299.641 197.543C300.597 195.2 301.272 193.095 301.865 191.435C302.458 189.774 302.828 188.433 303.117 187.521C303.266 187.091 303.377 186.78 303.458 186.506C303.494 186.39 303.536 186.276 303.584 186.165C303.584 186.165 303.584 186.283 303.495 186.52C303.406 186.758 303.325 187.106 303.191 187.543C302.917 188.462 302.517 189.767 302.005 191.479C301.494 193.192 300.716 195.237 299.841 197.617C298.966 199.996 297.862 202.68 296.513 205.57C293.418 212.391 289.795 218.958 285.676 225.214C285.09 226.088 284.519 226.993 283.904 227.882L281.992 230.55C280.732 232.374 279.301 234.123 277.893 235.939C277.203 236.859 276.41 237.733 275.669 238.63C274.928 239.527 274.149 240.417 273.386 241.328L270.955 243.967C270.147 244.857 269.331 245.754 268.457 246.606C263.43 251.749 258.023 256.506 252.282 260.838L252.342 260.616L267.322 292.489L271.622 301.688C272.111 302.755 272.496 303.578 272.756 304.156L273.045 304.801L273.134 305.009Z" fill="#429EFF"/>
<g opacity="0.8">
<path d="M3.53564 224.331L3.83214 224.101L4.73647 223.427L8.23516 220.847L21.4442 211.211L67.2608 177.966L67.194 178.173C63.2166 167.045 61.1807 155.316 61.1751 143.498C61.1721 139.598 61.38 135.701 61.7978 131.823C62.2308 128.063 62.8642 124.33 63.6954 120.638C65.2494 113.647 67.5558 106.844 70.5741 100.35C79.2462 81.8617 93.2037 66.3591 110.683 55.8007L114.019 53.8882C114.99 53.3397 115.842 52.9394 116.517 52.591L118.058 51.8498C118.407 51.6719 118.592 51.5978 118.592 51.5978C118.592 51.5978 118.422 51.7016 118.073 51.8869L116.591 52.6948C115.924 53.058 115.071 53.4361 114.108 54.0217L110.802 55.9637C93.4395 66.6011 79.5791 82.098 70.9373 100.535C67.936 107.009 65.6446 113.789 64.103 120.756C63.2744 124.426 62.6459 128.137 62.2203 131.875C61.8025 135.738 61.5947 139.62 61.5976 143.505C61.5895 155.274 63.5977 166.957 67.535 178.047L67.5795 178.181L67.4683 178.262L21.5776 211.396L8.30928 220.943C6.76007 222.04 5.57408 222.893 4.7587 223.478L3.83956 224.123L3.53564 224.331Z" fill="white"/>
<path d="M88.764 30.8502C88.764 30.8502 88.6232 30.9318 88.3415 31.0726L87.0962 31.6804L85.0726 32.6663C84.2647 33.0517 83.3826 33.5854 82.3597 34.1488C76.648 37.3306 71.2887 41.1073 66.3709 45.4157C62.9822 48.3955 59.7929 51.5947 56.8237 54.9927C53.4418 58.9001 50.3336 63.0362 47.521 67.3715C41.1001 77.3727 36.206 88.2752 32.9999 99.7196C29.7854 111.158 27.8878 122.926 27.3442 134.795C26.8354 144.472 27.0584 154.173 28.0113 163.815C28.6261 170.349 29.89 176.805 31.7843 183.088C32.4737 185.312 33.1037 186.987 33.5411 188.121L34.0525 189.411L34.2156 189.855C34.2156 189.855 34.1415 189.715 34.0155 189.425L33.4373 188.113C32.9777 186.987 32.3254 185.304 31.6138 183.095C29.6599 176.838 28.351 170.398 27.7074 163.875C26.7049 154.211 26.4447 144.484 26.9291 134.781C27.4487 122.881 29.3416 111.081 32.57 99.6158C35.7875 88.1364 40.7045 77.203 47.1578 67.1788C49.9996 62.8299 53.1402 58.6838 56.5568 54.7703C59.5515 51.3665 62.7708 48.167 66.193 45.1934C71.1404 40.8928 76.5384 37.14 82.2929 34.0005C83.3159 33.4594 84.2054 32.9405 85.0207 32.5699L87.0666 31.6137L88.3267 31.0355L88.764 30.8502Z" fill="white"/>
<path d="M112.803 -0.00012207C112.803 -0.00012207 112.84 0.0369404 112.899 0.12589L113.158 0.503927L114.122 1.98642L117.717 7.66438C120.786 12.5714 125.13 19.5244 130.222 27.6262L130.022 27.5521C137.005 25.6397 144.132 24.301 151.333 23.5493C158.359 22.8047 165.432 22.6139 172.488 22.9786C178.249 23.2866 183.984 23.975 189.655 25.0392L191.427 25.3654L193.095 25.7286L196.156 26.4106C198.046 26.9072 199.677 27.3 201.004 27.6781L204.035 28.5972L204.821 28.8493C204.911 28.8711 204.998 28.9034 205.081 28.9456C204.988 28.9336 204.896 28.9137 204.806 28.8863L204.013 28.6714L200.959 27.8263C199.632 27.4705 197.994 27.0851 196.104 26.6181L193.043 25.9436L191.375 25.5952L189.603 25.2839C183.942 24.2546 178.22 23.5935 172.473 23.3047C165.434 22.9532 158.378 23.149 151.37 23.8903C144.191 24.6357 137.084 25.9595 130.118 27.8486H129.985L129.918 27.7374C124.87 19.5837 120.578 12.6233 117.532 7.72368C116.049 5.27756 114.848 3.3355 114.026 1.98642L113.106 0.459452L112.877 0.0591777C112.851 0.0402322 112.827 0.0204549 112.803 -0.00012207Z" fill="white"/>
<path d="M300.984 99.2532C300.946 99.1885 300.919 99.1185 300.902 99.0456L300.702 98.4156C300.524 97.8374 300.279 97.0369 299.961 96.0065C299.642 94.9762 299.286 93.6716 298.76 92.2113L297.959 89.8542C297.811 89.4391 297.67 89.0091 297.514 88.5718L296.996 87.2376C296.254 85.4215 295.513 83.4127 294.564 81.3076C294.082 80.2624 293.638 79.158 293.082 78.0609L291.392 74.7105C288.785 69.7504 285.832 64.9798 282.556 60.434C279.229 55.9243 275.604 51.6427 271.704 47.6178C270.792 46.6987 269.903 45.8092 269.043 44.9345C268.183 44.0599 267.279 43.289 266.441 42.5032C264.781 40.9095 263.128 39.5382 261.653 38.2707L260.563 37.3367L259.518 36.4917L257.576 34.9351C256.375 33.9492 255.293 33.1635 254.418 32.5038L252.41 31.0213L251.891 30.621L251.72 30.4728C251.72 30.4728 251.794 30.4728 251.913 30.584L252.454 30.962L254.507 32.4445C255.397 33.082 256.494 33.8529 257.709 34.8239L259.674 36.3212L260.749 37.1588L261.838 38.0854C263.321 39.3529 265.003 40.702 266.671 42.2883C267.516 43.074 268.413 43.8597 269.295 44.7122L271.971 47.3881C275.898 51.4123 279.544 55.7019 282.882 60.2265C286.172 64.7867 289.125 69.5804 291.718 74.5696L293.408 77.9645C293.949 79.0616 294.394 80.1883 294.89 81.2186C295.861 83.3164 296.581 85.3326 297.285 87.1486C297.463 87.6082 297.633 88.0529 297.796 88.4903C297.959 88.9276 298.085 89.3649 298.226 89.78C298.5 90.6176 298.76 91.4108 299.004 92.1446C299.516 93.6271 299.857 94.9169 300.146 95.9695C300.435 97.022 300.65 97.8226 300.806 98.4082C300.872 98.6676 300.924 98.8752 300.969 99.0382L300.984 99.2532Z" fill="white"/>
<path d="M273.135 305.009C273.135 305.009 273.09 304.942 273.016 304.801L272.705 304.178C272.423 303.608 272.03 302.792 271.519 301.74C270.481 299.583 268.991 296.469 267.123 292.563C263.38 284.698 258.124 273.632 252.017 260.771L251.95 260.638L252.076 260.541C257.791 256.215 263.175 251.467 268.183 246.339C269.058 245.486 269.873 244.597 270.681 243.707L273.105 241.069L275.388 238.385C276.129 237.488 276.871 236.621 277.612 235.709C279.013 233.893 280.443 232.144 281.704 230.335L283.616 227.674C284.224 226.785 284.802 225.888 285.388 225.013C289.513 218.785 293.151 212.247 296.269 205.459C297.633 202.576 298.686 199.885 299.642 197.542C300.598 195.2 301.273 193.095 301.866 191.435C302.459 189.774 302.829 188.433 303.118 187.521C303.267 187.091 303.378 186.78 303.459 186.505C303.495 186.389 303.537 186.276 303.585 186.164C303.585 186.164 303.585 186.283 303.496 186.52C303.407 186.757 303.326 187.106 303.192 187.543C302.918 188.462 302.518 189.767 302.006 191.479C301.495 193.191 300.717 195.237 299.842 197.617C298.967 199.996 297.863 202.679 296.514 205.57C293.419 212.39 289.795 218.958 285.677 225.213C285.091 226.088 284.52 226.992 283.905 227.882L281.993 230.55C280.733 232.374 279.302 234.123 277.894 235.939C277.204 236.858 276.411 237.733 275.67 238.63C274.929 239.527 274.15 240.416 273.387 241.328L270.955 243.967C270.148 244.856 269.332 245.753 268.457 246.606C263.431 251.749 258.024 256.506 252.283 260.838L252.343 260.615L267.323 292.489L271.623 301.688C272.112 302.755 272.497 303.578 272.757 304.156L273.046 304.801L273.135 305.009Z" fill="white"/>
</g>
<path d="M224.736 92.5081C226.493 92.5081 227.916 91.0844 227.916 89.3281C227.916 87.5719 226.493 86.1482 224.736 86.1482C222.98 86.1482 221.556 87.5719 221.556 89.3281C221.556 91.0844 222.98 92.5081 224.736 92.5081Z" fill="#429EFF"/>
<path d="M208.683 29.0125C208.683 29.6432 208.496 30.2597 208.145 30.784C207.795 31.3083 207.297 31.7169 206.714 31.9579C206.131 32.1989 205.49 32.2616 204.871 32.138C204.253 32.0144 203.685 31.7101 203.239 31.2636C202.794 30.8171 202.491 30.2485 202.369 29.6297C202.247 29.0109 202.311 28.3698 202.553 27.7876C202.796 27.2053 203.205 26.708 203.73 26.3586C204.256 26.0093 204.873 25.8236 205.503 25.8251C205.921 25.8251 206.336 25.9076 206.722 26.0679C207.108 26.2281 207.459 26.463 207.754 26.7591C208.05 27.0552 208.284 27.4066 208.443 27.7933C208.603 28.1799 208.684 28.5942 208.683 29.0125Z" fill="#429EFF"/>
<path d="M303.865 99.3792C303.866 100.01 303.68 100.627 303.331 101.153C302.981 101.678 302.483 102.088 301.901 102.33C301.318 102.572 300.676 102.636 300.057 102.513C299.438 102.39 298.87 102.087 298.424 101.64C297.977 101.194 297.674 100.626 297.551 100.007C297.428 99.3876 297.492 98.7461 297.734 98.1634C297.976 97.5807 298.386 97.083 298.911 96.7333C299.437 96.3836 300.054 96.1978 300.685 96.1992C301.528 96.1992 302.337 96.5343 302.933 97.1306C303.53 97.727 303.865 98.5358 303.865 99.3792Z" fill="#429EFF"/>
<path d="M139.361 248.125C139.36 248.754 139.172 249.368 138.822 249.89C138.471 250.412 137.974 250.818 137.393 251.058C136.812 251.298 136.173 251.359 135.556 251.236C134.94 251.112 134.374 250.809 133.93 250.364C133.486 249.919 133.184 249.352 133.062 248.736C132.94 248.119 133.003 247.48 133.244 246.899C133.485 246.319 133.893 245.822 134.415 245.473C134.938 245.124 135.553 244.938 136.181 244.938C136.6 244.938 137.014 245.02 137.4 245.181C137.786 245.341 138.137 245.576 138.433 245.872C138.728 246.168 138.962 246.519 139.121 246.906C139.281 247.293 139.362 247.707 139.361 248.125Z" fill="#429EFF"/>
<path d="M95.5224 248.993C97.2787 248.993 98.7024 247.57 98.7024 245.813C98.7024 244.057 97.2787 242.633 95.5224 242.633C93.7662 242.633 92.3425 244.057 92.3425 245.813C92.3425 247.57 93.7662 248.993 95.5224 248.993Z" fill="#429EFF"/>
<path d="M269.946 182.036C271.702 182.036 273.126 180.612 273.126 178.856C273.126 177.099 271.702 175.676 269.946 175.676C268.19 175.676 266.766 177.099 266.766 178.856C266.766 180.612 268.19 182.036 269.946 182.036Z" fill="#429EFF"/>
<path d="M34.5696 101.025C34.5696 101.654 34.3831 102.269 34.0337 102.792C33.6843 103.315 33.1877 103.722 32.6066 103.963C32.0255 104.204 31.3861 104.266 30.7693 104.144C30.1524 104.021 29.5858 103.718 29.1411 103.273C28.6964 102.829 28.3935 102.262 28.2708 101.645C28.1481 101.028 28.2111 100.389 28.4518 99.808C28.6925 99.2269 29.1 98.7303 29.623 98.3809C30.1459 98.0315 30.7607 97.845 31.3897 97.845C32.233 97.845 33.0419 98.18 33.6382 98.7764C34.2346 99.3727 34.5696 100.182 34.5696 101.025Z" fill="#429EFF"/>
<path d="M213.13 126.457C213.129 127.086 212.941 127.7 212.591 128.222C212.241 128.744 211.743 129.15 211.162 129.39C210.581 129.629 209.942 129.691 209.326 129.568C208.709 129.444 208.143 129.141 207.699 128.696C207.255 128.251 206.953 127.684 206.831 127.068C206.709 126.451 206.772 125.812 207.013 125.231C207.254 124.651 207.662 124.154 208.185 123.805C208.707 123.456 209.322 123.27 209.95 123.27C210.369 123.27 210.783 123.352 211.169 123.513C211.555 123.673 211.906 123.908 212.202 124.204C212.497 124.5 212.731 124.851 212.89 125.238C213.05 125.625 213.131 126.039 213.13 126.457Z" fill="#429EFF"/>
<path d="M274.639 128.34C276.396 128.34 277.819 126.916 277.819 125.16C277.819 123.404 276.396 121.98 274.639 121.98C272.883 121.98 271.46 123.404 271.46 125.16C271.46 126.916 272.883 128.34 274.639 128.34Z" fill="#429EFF"/>
<path d="M69.0763 113.041C69.0763 113.67 68.8898 114.285 68.5403 114.807C68.1909 115.33 67.6943 115.738 67.1132 115.979C66.5322 116.219 65.8928 116.282 65.2759 116.16C64.6591 116.037 64.0925 115.734 63.6477 115.289C63.203 114.845 62.9001 114.278 62.7774 113.661C62.6547 113.044 62.7177 112.405 62.9584 111.824C63.1991 111.243 63.6067 110.746 64.1296 110.397C64.6525 110.047 65.2674 109.861 65.8963 109.861C66.7391 109.863 67.5468 110.198 68.1427 110.794C68.7386 111.39 69.0743 112.198 69.0763 113.041Z" fill="#429EFF"/>
<path d="M68.3776 74.0881C70.1338 74.0881 71.5575 72.6643 71.5575 70.9081C71.5575 69.1519 70.1338 67.7281 68.3776 67.7281C66.6213 67.7281 65.1976 69.1519 65.1976 70.9081C65.1976 72.6643 66.6213 74.0881 68.3776 74.0881Z" fill="#429EFF"/>
<path d="M35.8082 191.413C35.8082 191.728 35.7148 192.036 35.5397 192.298C35.3645 192.56 35.1156 192.765 34.8244 192.885C34.5332 193.006 34.2128 193.037 33.9036 192.976C33.5945 192.914 33.3105 192.763 33.0877 192.54C32.8648 192.317 32.713 192.033 32.6515 191.724C32.59 191.415 32.6216 191.094 32.7422 190.803C32.8628 190.512 33.0671 190.263 33.3292 190.088C33.5912 189.913 33.8994 189.819 34.2146 189.819C34.4241 189.818 34.6318 189.859 34.8256 189.938C35.0194 190.018 35.1955 190.136 35.3437 190.284C35.4918 190.432 35.6092 190.608 35.6889 190.802C35.7687 190.996 35.8092 191.203 35.8082 191.413Z" fill="#429EFF"/>
<path d="M62.7184 145.285C62.7184 145.6 62.6249 145.908 62.4498 146.17C62.2747 146.432 62.0258 146.636 61.7346 146.757C61.4434 146.878 61.123 146.909 60.8138 146.848C60.5047 146.786 60.2207 146.634 59.9978 146.412C59.7749 146.189 59.6232 145.905 59.5617 145.596C59.5002 145.286 59.5317 144.966 59.6524 144.675C59.773 144.384 59.9772 144.135 60.2393 143.96C60.5014 143.784 60.8095 143.691 61.1247 143.691C61.3343 143.69 61.542 143.73 61.7358 143.81C61.9296 143.89 62.1056 144.007 62.2538 144.156C62.402 144.304 62.5193 144.48 62.5991 144.674C62.6788 144.867 62.7194 145.075 62.7184 145.285Z" fill="#429EFF"/>
<path d="M93.5753 201.049C93.5753 201.365 93.4818 201.673 93.3067 201.935C93.1316 202.197 92.8827 202.401 92.5915 202.522C92.3003 202.642 91.9799 202.674 91.6707 202.612C91.3616 202.551 91.0776 202.399 90.8547 202.176C90.6318 201.953 90.4801 201.669 90.4186 201.36C90.3571 201.051 90.3886 200.731 90.5093 200.44C90.6299 200.148 90.8341 199.899 91.0962 199.724C91.3583 199.549 91.6664 199.456 91.9816 199.456C92.1912 199.455 92.3989 199.495 92.5927 199.575C92.7865 199.655 92.9625 199.772 93.1107 199.92C93.2589 200.068 93.3763 200.245 93.456 200.438C93.5357 200.632 93.5763 200.84 93.5753 201.049Z" fill="#429EFF"/>
<path d="M77.3321 144.544C77.3321 144.859 77.2386 145.167 77.0635 145.429C76.8884 145.691 76.6395 145.895 76.3483 146.016C76.0571 146.137 75.7366 146.168 75.4275 146.107C75.1183 146.045 74.8344 145.893 74.6115 145.671C74.3886 145.448 74.2368 145.164 74.1753 144.855C74.1138 144.545 74.1454 144.225 74.266 143.934C74.3866 143.643 74.5909 143.394 74.853 143.219C75.1151 143.043 75.4232 142.95 75.7384 142.95C75.948 142.949 76.1556 142.99 76.3494 143.069C76.5432 143.149 76.7193 143.266 76.8675 143.415C77.0157 143.563 77.133 143.739 77.2128 143.933C77.2925 144.126 77.3331 144.334 77.3321 144.544Z" fill="#429EFF"/>
<path d="M100.076 108.741C100.077 109.057 99.9848 109.366 99.8106 109.629C99.6363 109.892 99.388 110.097 99.0969 110.219C98.8058 110.341 98.4851 110.373 98.1755 110.313C97.8659 110.252 97.5812 110.101 97.3576 109.878C97.134 109.656 96.9814 109.372 96.9194 109.062C96.8573 108.753 96.8884 108.432 97.0088 108.14C97.1292 107.849 97.3334 107.599 97.5957 107.424C97.8579 107.249 98.1663 107.155 98.4818 107.155C98.9032 107.155 99.3075 107.322 99.6061 107.619C99.9048 107.916 100.074 108.32 100.076 108.741Z" fill="#429EFF"/>
<path d="M43.5391 146.863C44.4193 146.863 45.1328 146.15 45.1328 145.269C45.1328 144.389 44.4193 143.676 43.5391 143.676C42.6589 143.676 41.9454 144.389 41.9454 145.269C41.9454 146.15 42.6589 146.863 43.5391 146.863Z" fill="#429EFF"/>
<path d="M257.176 208.024C257.176 208.339 257.083 208.647 256.908 208.909C256.732 209.171 256.484 209.376 256.192 209.496C255.901 209.617 255.581 209.648 255.272 209.587C254.962 209.525 254.678 209.374 254.456 209.151C254.233 208.928 254.081 208.644 254.019 208.335C253.958 208.026 253.989 207.705 254.11 207.414C254.231 207.123 254.435 206.874 254.697 206.699C254.959 206.524 255.267 206.43 255.582 206.43C256.005 206.43 256.411 206.598 256.709 206.897C257.008 207.196 257.176 207.601 257.176 208.024Z" fill="#429EFF"/>
<path d="M246.078 199.692C246.078 200.008 245.984 200.316 245.809 200.578C245.633 200.841 245.384 201.045 245.092 201.165C244.8 201.286 244.48 201.317 244.17 201.255C243.861 201.193 243.577 201.04 243.354 200.816C243.132 200.593 242.981 200.308 242.92 199.999C242.859 199.689 242.892 199.368 243.014 199.077C243.135 198.786 243.341 198.538 243.604 198.364C243.867 198.189 244.176 198.097 244.491 198.099C244.7 198.099 244.907 198.14 245.1 198.22C245.293 198.3 245.468 198.418 245.616 198.566C245.763 198.714 245.88 198.89 245.959 199.083C246.038 199.276 246.079 199.483 246.078 199.692Z" fill="#429EFF"/>
<path d="M269.08 215.532C269.08 215.848 268.987 216.156 268.812 216.418C268.637 216.68 268.388 216.884 268.097 217.005C267.805 217.125 267.485 217.157 267.176 217.095C266.867 217.034 266.583 216.882 266.36 216.659C266.137 216.436 265.985 216.152 265.924 215.843C265.862 215.534 265.894 215.214 266.014 214.923C266.135 214.631 266.339 214.382 266.601 214.207C266.863 214.032 267.172 213.939 267.487 213.939C267.696 213.938 267.904 213.978 268.098 214.058C268.292 214.138 268.468 214.255 268.616 214.403C268.764 214.552 268.881 214.728 268.961 214.921C269.041 215.115 269.081 215.323 269.08 215.532Z" fill="#429EFF"/>
<path d="M206.43 217.023C206.43 217.338 206.336 217.646 206.161 217.908C205.986 218.17 205.737 218.375 205.446 218.495C205.155 218.616 204.834 218.647 204.525 218.586C204.216 218.524 203.932 218.373 203.709 218.15C203.486 217.927 203.334 217.643 203.273 217.334C203.211 217.025 203.243 216.704 203.364 216.413C203.484 216.122 203.688 215.873 203.95 215.698C204.213 215.523 204.521 215.429 204.836 215.429C205.259 215.429 205.664 215.597 205.963 215.896C206.262 216.195 206.43 216.6 206.43 217.023Z" fill="#429EFF"/>
<path d="M216.525 241.484C216.525 241.799 216.432 242.108 216.256 242.37C216.081 242.632 215.831 242.837 215.54 242.957C215.248 243.077 214.927 243.109 214.618 243.046C214.309 242.984 214.025 242.832 213.802 242.608C213.58 242.385 213.428 242.1 213.368 241.79C213.307 241.481 213.34 241.16 213.461 240.869C213.583 240.578 213.789 240.329 214.052 240.155C214.315 239.981 214.624 239.889 214.939 239.89C215.36 239.892 215.764 240.061 216.061 240.36C216.358 240.658 216.525 241.063 216.525 241.484Z" fill="#429EFF"/>
<path d="M198.853 234.086C198.854 234.402 198.762 234.711 198.587 234.974C198.413 235.238 198.164 235.443 197.872 235.565C197.581 235.686 197.26 235.718 196.95 235.657C196.64 235.596 196.356 235.444 196.132 235.22C195.909 234.997 195.757 234.712 195.696 234.403C195.634 234.093 195.667 233.772 195.788 233.48C195.91 233.189 196.115 232.94 196.378 232.765C196.642 232.591 196.951 232.498 197.266 232.5C197.687 232.5 198.091 232.667 198.388 232.965C198.686 233.262 198.853 233.665 198.853 234.086Z" fill="#429EFF"/>
<path d="M95.9007 90.9142C95.9021 91.2297 95.8099 91.5385 95.6357 91.8016C95.4615 92.0646 95.2131 92.27 94.922 92.3918C94.6309 92.5136 94.3103 92.5462 94.0006 92.4855C93.691 92.4249 93.4063 92.2737 93.1827 92.0511C92.9591 91.8285 92.8066 91.5446 92.7445 91.2352C92.6824 90.9259 92.7135 90.6051 92.8339 90.3134C92.9543 90.0218 93.1586 89.7724 93.4208 89.597C93.6831 89.4215 93.9915 89.3279 94.307 89.3279C94.7284 89.3279 95.1326 89.4948 95.4313 89.792C95.7299 90.0893 95.8987 90.4928 95.9007 90.9142Z" fill="#429EFF"/>
<path d="M133.506 72.428C133.507 72.7435 133.415 73.0523 133.241 73.3154C133.066 73.5784 132.818 73.7838 132.527 73.9056C132.236 74.0274 131.915 74.06 131.606 73.9993C131.296 73.9387 131.011 73.7875 130.788 73.5649C130.564 73.3423 130.412 73.0584 130.349 72.749C130.287 72.4397 130.318 72.1188 130.439 71.8272C130.559 71.5356 130.764 71.2862 131.026 71.1108C131.288 70.9353 131.596 70.8417 131.912 70.8417C132.333 70.8417 132.738 71.0086 133.036 71.3058C133.335 71.6031 133.504 72.0066 133.506 72.428Z" fill="#429EFF"/>
<path d="M180.048 68.0539C180.048 68.3691 179.954 68.6772 179.779 68.9393C179.604 69.2014 179.355 69.4056 179.064 69.5263C178.773 69.6469 178.452 69.6784 178.143 69.6169C177.834 69.5555 177.55 69.4037 177.327 69.1808C177.104 68.9579 176.953 68.6739 176.891 68.3648C176.83 68.0557 176.861 67.7352 176.982 67.444C177.102 67.1528 177.307 66.9039 177.569 66.7288C177.831 66.5537 178.139 66.4602 178.454 66.4602C178.877 66.4602 179.282 66.6281 179.581 66.927C179.88 67.2259 180.048 67.6312 180.048 68.0539Z" fill="#429EFF"/>
<path d="M253.275 29.8943C253.277 30.2098 253.185 30.5186 253.01 30.7817C252.836 31.0447 252.588 31.2501 252.297 31.3719C252.006 31.4937 251.685 31.5263 251.375 31.4656C251.066 31.405 250.781 31.2538 250.557 31.0312C250.334 30.8086 250.181 30.5247 250.119 30.2153C250.057 29.906 250.088 29.5852 250.209 29.2935C250.329 29.0019 250.533 28.7525 250.795 28.5771C251.058 28.4016 251.366 28.308 251.682 28.308C252.103 28.308 252.507 28.4749 252.806 28.7721C253.105 29.0694 253.273 29.4729 253.275 29.8943Z" fill="#429EFF"/>
<path d="M131.001 27.3071C131.001 27.6223 130.908 27.9304 130.733 28.1925C130.558 28.4545 130.309 28.6588 130.018 28.7794C129.726 28.9001 129.406 28.9316 129.097 28.8701C128.788 28.8086 128.504 28.6568 128.281 28.434C128.058 28.2111 127.906 27.9271 127.845 27.618C127.783 27.3088 127.815 26.9884 127.935 26.6972C128.056 26.406 128.26 26.1571 128.522 25.982C128.784 25.8068 129.093 25.7134 129.408 25.7134C129.83 25.7153 130.234 25.8839 130.532 26.1823C130.831 26.4808 130.999 26.885 131.001 27.3071Z" fill="#429EFF"/>
<path d="M112.801 202.45C112.801 202.45 112.734 202.39 112.616 202.264L112.089 201.708L110.11 199.536C109.68 199.055 109.184 198.543 108.694 197.943L107.101 195.971C106.537 195.23 105.907 194.526 105.292 193.695L103.395 191.042C100.301 186.659 97.6398 181.988 95.4483 177.091C92.7841 171.081 90.9224 164.745 89.9112 158.249C89.5851 156.529 89.4739 154.802 89.2737 153.112L89.1181 150.584C89.1181 150.169 89.0662 149.747 89.0439 149.339C89.0217 148.931 89.0439 148.509 89.0439 148.094C89.0439 147.273 89.0439 146.458 89.0439 145.648L89.1329 143.246C89.1329 142.453 89.207 141.667 89.2737 140.896C89.3404 140.125 89.4071 139.362 89.4664 138.606C90.0431 133.273 91.1404 128.01 92.7428 122.891C93.8105 119.441 95.126 116.072 96.6788 112.81C97.2347 111.654 97.7017 110.779 98.0353 110.194C98.1983 109.897 98.3318 109.682 98.4207 109.534C98.5097 109.386 98.5616 109.312 98.569 109.319C98.5372 109.398 98.5001 109.475 98.4578 109.549L98.102 110.231C97.7907 110.824 97.3607 111.713 96.8196 112.87C95.3195 116.147 94.0441 119.522 93.0022 122.973C91.4295 128.072 90.3473 133.309 89.7704 138.613C89.7111 139.354 89.6443 140.096 89.585 140.896C89.5257 141.697 89.4665 142.445 89.4516 143.231C89.4368 144.017 89.3923 144.817 89.3627 145.618C89.333 146.419 89.3627 147.241 89.3627 148.057C89.3627 148.464 89.3627 148.88 89.3627 149.295C89.3627 149.71 89.4146 150.117 89.4368 150.533L89.5925 153.053C89.8 154.735 89.9112 156.448 90.2299 158.16C91.2376 164.625 93.0815 170.931 95.7152 176.921C97.8853 181.802 100.511 186.468 103.558 190.856L105.426 193.517C106.033 194.348 106.656 195.096 107.212 195.808L108.776 197.794C109.258 198.402 109.747 198.921 110.162 199.403L112.089 201.627L112.586 202.212C112.749 202.361 112.808 202.442 112.801 202.45Z" fill="#429EFF"/>
<path d="M43.4941 149.228C43.486 149.157 43.486 149.085 43.4941 149.013V148.383C43.4941 147.798 43.4941 146.982 43.546 145.952C43.546 145.426 43.546 144.833 43.5904 144.195C43.6349 143.558 43.672 142.861 43.7239 142.112C43.8276 140.63 43.9018 138.91 44.1241 137.035C44.2279 136.101 44.3317 135.115 44.4354 134.07C44.5392 133.025 44.7245 131.987 44.8802 130.89C45.1545 128.666 45.6214 126.361 46.0514 123.907C48.1369 113.271 51.4296 102.908 55.8655 93.0194C56.9255 90.7586 57.8965 88.572 58.9417 86.6373C59.4531 85.6514 59.9201 84.6878 60.4242 83.7909L61.9067 81.2039C62.8036 79.5435 63.7301 78.1055 64.501 76.8232C64.9013 76.1857 65.2423 75.5853 65.6055 75.0442L66.5765 73.5617L67.9404 71.5455L68.2962 71.0266C68.3373 70.9696 68.3819 70.9151 68.4297 70.8635C68.4083 70.9303 68.3757 70.993 68.3333 71.0488L67.9997 71.59L66.7025 73.6432L65.7612 75.1257L64.6864 76.9121C63.9451 78.2019 63.026 79.6473 62.1439 81.3151L60.7281 83.9021C60.2315 84.8064 59.7719 85.7774 59.2456 86.7633C58.2227 88.7202 57.259 90.8846 56.2139 93.1455C54.0444 98.0914 52.1246 103.143 50.4618 108.282C48.8535 113.434 47.5076 118.664 46.4294 123.952C45.9698 126.398 45.5103 128.718 45.2138 130.912C45.0581 132.009 44.8802 133.062 44.7542 134.085C44.6282 135.108 44.5318 136.086 44.4206 137.05C44.176 138.918 44.0871 140.622 43.9611 142.112C43.9018 142.854 43.8499 143.55 43.798 144.195C43.7461 144.84 43.7387 145.411 43.7164 145.945C43.6646 146.975 43.6201 147.783 43.5904 148.368C43.5904 148.628 43.5904 148.835 43.5904 148.998C43.5679 149.079 43.5356 149.156 43.4941 149.228Z" fill="#429EFF"/>
<path d="M195.272 57.5355C195.082 57.5043 194.896 57.4546 194.716 57.3873L193.13 56.8981C192.448 56.6683 191.61 56.4088 190.624 56.1568C189.639 55.9048 188.527 55.5564 187.267 55.2896L185.302 54.8374C184.62 54.6817 183.901 54.5631 183.16 54.4223C181.678 54.1184 180.084 53.9108 178.401 53.681C174.747 53.2342 171.068 53.0139 167.386 53.0213C163.704 53.0717 160.028 53.3465 156.379 53.8441C154.704 54.111 153.11 54.3408 151.635 54.6669C150.894 54.8226 150.152 54.9486 149.493 55.1117L147.536 55.6009C146.283 55.8826 145.179 56.2458 144.2 56.52C143.222 56.7943 142.377 57.0685 141.702 57.3057L140.123 57.8246C139.942 57.8891 139.756 57.9411 139.567 57.9803C139.737 57.8849 139.915 57.8079 140.101 57.7505L141.65 57.1649C142.325 56.9055 143.133 56.609 144.133 56.3125C145.134 56.016 146.216 55.6379 147.469 55.334L149.426 54.8226C150.108 54.6521 150.827 54.5187 151.568 54.3556C153.051 54.0146 154.652 53.77 156.334 53.4957C163.661 52.4067 171.104 52.3493 178.446 53.3252C180.128 53.5773 181.737 53.7922 183.219 54.111C183.961 54.2666 184.702 54.3852 185.369 54.5483L187.333 55.0301C188.593 55.3118 189.698 55.675 190.684 55.9567C191.67 56.2384 192.507 56.52 193.182 56.772L194.738 57.328C194.923 57.3787 195.102 57.4483 195.272 57.5355Z" fill="#429EFF"/>
<path d="M224.187 91.2992C224.05 91.1787 223.926 91.0446 223.816 90.8989C223.557 90.6024 223.223 90.2096 222.808 89.7129L222.067 88.8531C221.8 88.5492 221.489 88.2304 221.163 87.8746C220.503 87.1853 219.791 86.3551 218.939 85.5397L217.575 84.2277C217.093 83.7755 216.56 83.3456 216.033 82.8786C214.981 81.9298 213.765 81.0255 212.505 80.0545C206.937 75.9375 200.715 72.7899 194.1 70.7444C192.565 70.307 191.135 69.8623 189.726 69.5806C189.037 69.425 188.377 69.2545 187.725 69.1359L185.864 68.8171C184.678 68.5799 183.589 68.4984 182.64 68.3798C182.166 68.3205 181.721 68.2612 181.313 68.2241L180.201 68.1945L178.652 68.0833C178.47 68.0799 178.289 68.0576 178.111 68.0166C178.291 67.9987 178.472 67.9987 178.652 68.0166H180.209H181.335C181.75 68.0166 182.195 68.0907 182.67 68.1352C183.626 68.2315 184.723 68.2983 185.916 68.5132L187.792 68.8171C188.444 68.9209 189.111 69.0914 189.808 69.2396C191.209 69.5065 192.669 69.9809 194.211 70.3738C200.885 72.3935 207.156 75.5616 212.742 79.7357C214.002 80.729 215.225 81.6407 216.27 82.6044C216.797 83.0862 217.33 83.5235 217.805 83.9831L219.161 85.3173C220.036 86.1475 220.74 86.9925 221.385 87.7041C221.696 88.0599 222.008 88.3861 222.267 88.7048C222.527 89.0236 222.756 89.3201 222.964 89.5943C223.364 90.0984 223.705 90.5135 223.92 90.8248C224.023 90.9746 224.112 91.1333 224.187 91.2992Z" fill="#429EFF"/>
<path d="M240.044 71.1593C239.987 71.121 239.935 71.0762 239.889 71.0259L239.451 70.6108L237.806 68.9875L236.62 67.8089C236.175 67.3864 235.678 66.9564 235.137 66.4746C234.07 65.5333 232.913 64.3991 231.483 63.3021L229.259 61.5305C228.518 60.9153 227.651 60.3445 226.806 59.7145C225.13 58.4321 223.218 57.2313 221.231 55.9341C216.876 53.2284 212.33 50.8427 207.63 48.7959C202.878 46.8205 197.991 45.1904 193.005 43.9185C190.692 43.3922 188.498 42.8511 186.408 42.5397C185.37 42.3692 184.369 42.1543 183.398 42.0357L180.604 41.6947C178.825 41.4353 177.201 41.3834 175.778 41.2648C175.037 41.2203 174.407 41.161 173.792 41.1314H172.124L169.811 41.0721H169.211H169.003C169.072 41.0605 169.142 41.0605 169.211 41.0721H169.811H172.124H173.799C174.414 41.0721 175.074 41.1314 175.793 41.1684C177.216 41.2648 178.847 41.3018 180.633 41.539L183.443 41.8578C184.414 41.9764 185.422 42.1765 186.467 42.3396C188.565 42.6435 190.766 43.1772 193.086 43.6887C203.128 46.0918 212.711 50.1125 221.461 55.5931C223.448 56.9051 225.36 58.1208 227.035 59.418C227.88 60.0554 228.718 60.6336 229.482 61.2562L231.661 63.0575C233.077 64.1694 234.233 65.2812 235.293 66.2819C235.819 66.7637 236.316 67.2085 236.775 67.6384L237.939 68.8466L239.54 70.5219L239.948 70.9666C239.99 71.0255 240.022 71.0905 240.044 71.1593Z" fill="#429EFF"/>
<path d="M291.51 144.358C291.501 144.294 291.501 144.229 291.51 144.166V143.58C291.51 143.046 291.51 142.298 291.466 141.356C291.466 140.867 291.466 140.333 291.466 139.748C291.466 139.162 291.407 138.517 291.377 137.828C291.295 136.457 291.266 134.863 291.08 133.173C291.006 132.313 290.932 131.409 290.843 130.467C290.754 129.526 290.613 128.555 290.487 127.547C290.265 125.531 289.88 123.388 289.502 121.135C288.573 116.273 287.37 111.467 285.899 106.74C284.393 102.017 282.623 97.3818 280.599 92.8563C279.621 90.7883 278.724 88.8091 277.753 87.0227C277.278 86.1258 276.848 85.2363 276.381 84.4209L275.032 82.0638C274.202 80.5813 273.342 79.2396 272.623 78.0684L271.608 76.4451L270.703 75.1109L269.466 73.2577L269.147 72.7685L269.05 72.598C271.309 75.5789 273.385 78.6928 275.27 81.9229L276.641 84.2727C277.115 85.0955 277.553 85.9775 278.034 86.8745C279.02 88.6609 279.932 90.64 280.918 92.7081C282.972 97.2388 284.757 101.887 286.262 106.629C287.723 111.384 288.906 116.22 289.805 121.113C290.169 123.336 290.547 125.516 290.754 127.547C290.873 128.562 291.014 129.533 291.088 130.475C291.162 131.416 291.236 132.328 291.303 133.188C291.591 136.904 291.66 140.634 291.51 144.358Z" fill="#429EFF"/>
<path d="M275.174 125.159C275.2 125.277 275.22 125.396 275.233 125.515C275.27 125.775 275.315 126.123 275.367 126.568C275.463 127.494 275.693 128.858 275.804 130.63C276.224 135.617 276.328 140.625 276.115 145.625C276.004 148.798 275.715 152.259 275.307 155.966C274.9 159.672 274.262 163.608 273.343 167.7C273.135 168.73 272.906 169.768 272.602 170.805L271.809 173.963C271.193 176.068 270.6 178.233 269.837 180.382C268.357 184.859 266.53 189.213 264.374 193.406C262.181 197.579 259.705 201.596 256.961 205.429C254.393 208.989 251.623 212.399 248.667 215.644C243.663 221.135 238.164 226.155 232.241 230.639C228.264 233.679 224.083 236.443 219.728 238.911C218.209 239.823 216.956 240.394 216.133 240.846L215.192 241.328C214.977 241.439 214.866 241.483 214.866 241.483C214.866 241.483 214.962 241.417 215.17 241.298L216.096 240.779C216.904 240.312 218.142 239.712 219.654 238.785C223.974 236.266 228.129 233.473 232.092 230.424C237.967 225.914 243.425 220.885 248.4 215.399C251.337 212.159 254.089 208.757 256.643 205.207C259.373 201.388 261.838 197.386 264.018 193.228C266.164 189.053 267.986 184.719 269.466 180.264C270.207 178.122 270.823 175.965 271.438 173.867C271.705 172.807 271.972 171.754 272.238 170.717C272.505 169.679 272.743 168.648 272.98 167.626C273.906 163.549 274.462 159.613 274.974 155.929C275.485 152.245 275.715 148.776 275.826 145.618C276.064 140.625 275.999 135.622 275.633 130.637C275.552 128.873 275.344 127.509 275.278 126.583C275.233 126.13 275.203 125.775 275.181 125.523C275.159 125.271 275.174 125.159 275.174 125.159Z" fill="#429EFF"/>
<path d="M241.459 93.219C241.459 93.219 241.533 93.2857 241.659 93.4414L242.223 94.1085C242.697 94.7089 243.461 95.5539 244.328 96.7399C246.829 100.028 249.084 103.497 251.073 107.117C252.356 109.4 253.593 111.987 254.831 114.804C256.113 117.82 257.229 120.903 258.174 124.04C259.226 127.507 260.053 131.037 260.65 134.61C261.306 138.445 261.693 142.322 261.807 146.211C261.907 150.098 261.766 153.987 261.384 157.856C260.977 161.458 260.354 165.032 259.516 168.559C257.088 178.554 252.814 188.006 246.915 196.43C246.099 197.646 245.373 198.521 244.921 199.143L244.38 199.833C244.323 199.914 244.261 199.99 244.194 200.063C244.235 199.972 244.288 199.888 244.35 199.81L244.854 199.069C245.284 198.439 245.996 197.55 246.789 196.319C249.11 192.914 251.183 189.347 252.993 185.645C255.685 180.157 257.759 174.387 259.175 168.441C259.995 164.94 260.604 161.393 260.999 157.819C261.378 153.964 261.517 150.09 261.414 146.218C261.299 142.349 260.913 138.492 260.257 134.677C259.672 131.117 258.858 127.599 257.819 124.144C256.886 121.016 255.788 117.941 254.527 114.93C253.297 112.121 252.081 109.534 250.821 107.251C248.861 103.626 246.649 100.144 244.202 96.8289C243.357 95.6355 242.616 94.7756 242.156 94.1604L241.622 93.4636C241.56 93.3874 241.506 93.3055 241.459 93.219Z" fill="#429EFF"/>
<path d="M209.95 265.931L209.549 266.027L208.378 266.272C207.348 266.479 205.821 266.813 203.849 267.139C198.274 268.113 192.653 268.798 187.008 269.192C178.635 269.794 170.228 269.777 161.857 269.14C157.136 268.784 152.184 268.236 147.099 267.391C141.843 266.546 136.635 265.427 131.496 264.04C121.536 261.379 112.064 257.15 103.432 251.513C99.6746 249.059 96.0589 246.393 92.6025 243.53C89.3336 240.906 86.4427 238.2 83.841 235.717C78.6522 230.736 74.8274 226.407 72.1959 223.383C70.8839 221.9 69.8907 220.677 69.2309 219.862L68.4897 218.935L68.2451 218.617L68.5268 218.913L69.3125 219.818C70.0018 220.611 71.0174 221.789 72.3516 223.287C75.0053 226.252 78.9042 230.573 84.0633 235.525C86.6577 237.993 89.5486 240.639 92.8175 243.285C96.2765 246.126 99.8894 248.774 103.64 251.217C107.79 253.902 112.133 256.275 116.634 258.318C121.474 260.504 126.484 262.294 131.614 263.67C136.742 265.054 141.938 266.172 147.181 267.02C152.258 267.865 157.195 268.421 161.909 268.784C170.264 269.433 178.654 269.478 187.015 268.918C194.154 268.451 199.898 267.635 203.842 266.991C205.821 266.687 207.348 266.383 208.385 266.197L209.564 265.99L209.95 265.931Z" fill="#429EFF"/>
<path d="M168.959 253.418C165.585 253.595 162.202 253.553 158.834 253.292L156.38 253.099C155.528 253.033 154.653 252.899 153.734 252.788C151.903 252.595 149.968 252.232 147.93 251.884C139.081 250.226 130.51 247.332 122.468 243.285C120.637 242.329 118.873 241.439 117.279 240.483C116.486 240.016 115.708 239.586 114.981 239.127L112.921 237.793C110.072 235.961 107.348 233.943 104.767 231.751L104.915 231.848L105.345 232.152L106.961 233.352L108.117 234.235C108.547 234.546 109.029 234.865 109.541 235.22C110.564 235.917 111.698 236.755 113.039 237.563L115.107 238.875C115.849 239.327 116.59 239.742 117.405 240.209C118.984 241.15 120.741 242.018 122.594 242.966C130.626 246.954 139.161 249.837 147.967 251.535C149.998 251.891 151.925 252.277 153.749 252.469C154.66 252.588 155.535 252.729 156.38 252.803L158.826 253.025C160.375 253.188 161.791 253.21 163.029 253.277C163.652 253.277 164.222 253.344 164.756 253.359H166.239H168.255H168.781L168.959 253.418Z" fill="#429EFF"/>
<path d="M143.712 233.775C143.712 233.775 143.489 233.775 143.067 233.686L141.229 233.353L139.902 233.108C139.42 233.004 138.901 232.871 138.338 232.737C137.226 232.448 135.936 232.182 134.557 231.729L132.378 231.062C131.637 230.825 130.851 230.521 130.051 230.232C128.427 229.684 126.76 228.942 124.995 228.194C117.373 224.78 110.348 220.165 104.188 214.525C102.802 213.198 101.461 211.968 100.312 210.7C99.7336 210.07 99.1406 209.492 98.6291 208.891L97.1466 207.157C96.1756 206.067 95.4195 204.993 94.7153 204.081C94.367 203.621 94.0334 203.199 93.7517 202.798L93.0105 201.672L91.995 200.137C91.8668 199.963 91.7551 199.777 91.6614 199.581C91.807 199.745 91.9408 199.918 92.0617 200.1L93.1513 201.583L93.9296 202.68C94.2261 203.073 94.5671 203.488 94.9155 203.94C95.6567 204.837 96.398 205.897 97.3838 206.972L98.8663 208.684C99.3852 209.277 99.9708 209.848 100.556 210.47C101.705 211.723 103.054 212.946 104.448 214.258C110.603 219.84 117.59 224.429 125.158 227.86C126.915 228.601 128.568 229.343 130.177 229.928C130.977 230.217 131.733 230.529 132.489 230.773L134.646 231.455C136.018 231.929 137.3 232.196 138.405 232.515C138.96 232.663 139.479 232.812 139.961 232.923L141.273 233.204L143.097 233.597C143.307 233.637 143.513 233.697 143.712 233.775Z" fill="#429EFF"/>
<path d="M172.257 287.13C172.179 287.15 172.099 287.163 172.019 287.167L171.278 287.226L168.573 287.449L166.616 287.589C165.874 287.589 165.133 287.634 164.281 287.656C162.605 287.656 160.693 287.782 158.581 287.656L155.275 287.56C154.118 287.523 152.925 287.389 151.687 287.3C149.211 287.16 146.58 286.781 143.815 286.426C131.806 284.675 120.13 281.119 109.184 275.878C106.686 274.625 104.291 273.476 102.157 272.216C101.082 271.593 100.014 271.037 99.036 270.43L96.2341 268.665C94.4255 267.576 92.8985 266.442 91.5198 265.471C90.8378 264.981 90.1929 264.544 89.6148 264.114L88.073 262.898L85.9456 261.208L85.3971 260.764C85.2785 260.66 85.2117 260.608 85.2192 260.601C85.2266 260.593 85.2933 260.601 85.4193 260.734L85.99 261.149L88.1619 262.78L89.7259 263.966C90.3041 264.388 90.9564 264.811 91.6458 265.293C93.0319 266.227 94.5663 267.361 96.3824 268.428L99.1917 270.17C100.17 270.771 101.23 271.319 102.312 271.934C104.447 273.18 106.841 274.321 109.332 275.559C120.268 280.756 131.909 284.315 143.882 286.122C146.639 286.485 149.256 286.863 151.731 287.026C152.962 287.122 154.155 287.263 155.304 287.308L158.603 287.426C160.708 287.552 162.613 287.426 164.288 287.426C165.126 287.426 165.904 287.426 166.623 287.426L168.58 287.308L171.293 287.167H172.034L172.257 287.13Z" fill="#429EFF"/>
<path d="M65.8943 113.041C65.8573 113.144 58.8154 110.535 50.165 107.214C41.5147 103.894 34.5321 101.121 34.5988 101.025C34.6655 100.929 41.6778 103.538 50.3355 106.851C58.9933 110.165 65.9314 112.944 65.8943 113.041Z" fill="#429EFF"/>
<path d="M94.8032 90.202C94.8032 90.202 94.7587 90.2687 94.6549 90.3873L94.1879 90.9062C93.7877 91.3732 93.1354 92.0033 92.4015 92.915C90.2623 95.4099 88.3404 98.0832 86.6569 100.906C84.1861 105.098 82.1613 109.538 80.6157 114.152C78.7381 119.821 77.4465 125.668 76.7612 131.601C76.206 136.139 76.0201 140.716 76.2052 145.284V145.484H76.0125L52.7596 145.41L46.0364 145.329H44.2426L43.8127 145.284C43.761 145.291 43.7087 145.291 43.657 145.284C43.657 145.284 43.7089 145.284 43.8127 145.284H44.2797H46.0735L52.804 145.225L76.057 145.158L75.8717 145.358C75.6764 140.785 75.8574 136.204 76.4128 131.66C77.1033 125.702 78.4125 119.831 80.3192 114.144C81.8813 109.5 83.9416 105.039 86.4641 100.839C88.1743 98.0161 90.1368 95.354 92.3274 92.8853C93.0686 91.9884 93.7506 91.4028 94.1731 90.9284L94.6623 90.4318C94.7365 90.2539 94.7957 90.1946 94.8032 90.202Z" fill="#429EFF"/>
<path d="M111.764 203.517C111.587 203.798 111.384 204.062 111.156 204.303C110.741 204.792 110.133 205.482 109.362 206.327C107.828 208.017 105.656 210.3 103.128 212.716C100.6 215.133 98.2358 217.216 96.4568 218.646C95.5747 219.387 94.8557 219.958 94.3517 220.351C94.1031 220.571 93.8323 220.765 93.5437 220.929C93.7665 220.672 94.0149 220.439 94.2849 220.232L96.3011 218.439C98.006 216.919 100.348 214.807 102.861 212.397C105.374 209.988 107.576 207.742 109.162 206.104L111.045 204.162C111.261 203.923 111.502 203.707 111.764 203.517Z" fill="#429EFF"/>
<path d="M105.373 230.046C105.462 230.098 101.177 237.133 95.8032 245.753C90.4292 254.374 85.9965 261.32 85.9075 261.268C85.8186 261.216 90.103 254.174 95.4771 245.553C100.851 236.932 105.284 229.987 105.373 230.046Z" fill="#429EFF"/>
<path d="M141.183 235.176C141.088 235.556 140.962 235.928 140.805 236.288C140.516 237.066 140.131 238.074 139.671 239.29C138.708 241.825 137.396 245.323 136.017 249.215C134.638 253.106 133.445 256.627 132.6 259.229L131.592 262.276C131.487 262.656 131.348 263.025 131.177 263.38C131.237 262.991 131.326 262.607 131.443 262.231C131.644 261.49 131.947 260.445 132.34 259.148C133.082 256.553 134.268 252.988 135.654 249.089C137.04 245.19 138.389 241.676 139.419 239.193C139.931 237.933 140.361 236.925 140.672 236.228C140.81 235.862 140.981 235.51 141.183 235.176Z" fill="#429EFF"/>
<path d="M206.689 266.568C206.629 266.468 206.584 266.361 206.555 266.249C206.474 265.99 206.37 265.678 206.244 265.308L205.162 261.816C204.272 258.851 203.056 254.789 201.744 250.275C200.432 245.761 199.261 241.647 198.431 238.682C198.038 237.237 197.69 236.051 197.467 235.161L197.253 234.235C197.224 234.122 197.204 234.009 197.193 233.894C197.193 233.894 197.253 233.997 197.334 234.212C197.416 234.427 197.519 234.783 197.645 235.154C197.92 236.036 198.283 237.214 198.72 238.645C199.617 241.61 200.833 245.672 202.145 250.186C203.457 254.7 204.628 258.792 205.458 261.764C205.851 263.203 206.199 264.389 206.414 265.285L206.659 266.249C206.684 266.353 206.694 266.461 206.689 266.568Z" fill="#429EFF"/>
<path d="M214.25 240.75C214.146 240.75 211.959 235.294 209.365 228.475C206.77 221.655 204.739 216.096 204.836 216.059C204.932 216.022 207.126 221.514 209.721 228.334C212.315 235.153 214.346 240.713 214.25 240.75Z" fill="#429EFF"/>
<path d="M267.543 215.229C267.188 215.108 266.843 214.96 266.513 214.784C265.86 214.48 264.926 214.043 263.792 213.413C261.509 212.219 258.411 210.448 255.134 208.298C251.858 206.148 249.026 203.962 247.04 202.331C246.039 201.516 245.246 200.848 244.712 200.359C244.418 200.141 244.147 199.893 243.904 199.618C244.222 199.815 244.525 200.035 244.809 200.278L247.21 202.146C249.241 203.717 252.08 205.852 255.364 208.001C258.648 210.151 261.694 211.945 263.933 213.19L266.594 214.673C266.927 214.828 267.244 215.015 267.543 215.229Z" fill="#429EFF"/>
<path d="M301.998 186.847C301.998 186.95 294.334 185.149 284.949 182.829C275.565 180.509 267.953 178.537 267.982 178.433C268.012 178.33 275.639 180.131 285.031 182.451C294.423 184.771 302.02 186.743 301.998 186.847Z" fill="#429EFF"/>
<path d="M293.141 144.795C293.141 144.906 286.47 145.069 278.242 145.166C270.014 145.262 263.336 145.255 263.328 145.166C263.321 145.077 269.999 144.892 278.235 144.795C286.47 144.699 293.141 144.691 293.141 144.795Z" fill="#429EFF"/>
<path d="M300.984 99.2529C300.884 99.314 300.777 99.3637 300.666 99.4012L299.724 99.7422L296.27 100.973C293.35 102.01 289.325 103.463 284.914 105.153C280.504 106.843 276.531 108.452 273.669 109.601L270.275 110.994L269.348 111.365C269.242 111.414 269.13 111.449 269.014 111.469C269.014 111.469 269.111 111.395 269.318 111.291L270.215 110.861C271.001 110.49 272.142 109.971 273.566 109.378C276.405 108.133 280.355 106.488 284.773 104.79C289.191 103.093 293.238 101.684 296.181 100.713C297.664 100.231 298.85 99.8533 299.68 99.6013L300.636 99.3271C300.748 99.285 300.865 99.26 300.984 99.2529Z" fill="#429EFF"/>
<path d="M244.196 71.0561C244.263 71.1376 239.964 75.0366 234.597 79.7658C229.23 84.4949 224.813 88.2679 224.746 88.1864C224.679 88.1048 228.971 84.2059 234.338 79.4767C239.704 74.7475 244.122 70.9746 244.196 71.0561Z" fill="#429EFF"/>
<path d="M251.007 30.2497C251.096 30.3164 246.753 36.5577 241.312 44.2C235.871 51.8423 231.386 57.9798 231.298 57.9205C231.209 57.8612 235.552 51.6125 241 43.9702C246.449 36.3279 250.918 30.1904 251.007 30.2497Z" fill="#429EFF"/>
<path d="M168.411 39.368C168.39 39.2478 168.39 39.1249 168.411 39.0048C168.411 38.7231 168.411 38.3821 168.448 37.967C168.492 37.0034 168.544 35.7433 168.618 34.1422C168.744 30.9103 168.841 26.448 168.737 21.541C168.633 16.6339 168.344 12.1493 168.077 8.93974L167.751 5.12972L167.662 4.09197C167.643 3.97169 167.643 3.84904 167.662 3.72876C167.71 3.84151 167.738 3.96203 167.744 4.08456C167.788 4.35882 167.833 4.6998 167.899 5.1149C168.025 6.00439 168.181 7.33864 168.352 8.9175C168.685 12.1345 169.019 16.6042 169.093 21.5187C169.167 26.4332 169.056 30.9326 168.856 34.1644C168.759 35.7803 168.663 37.0849 168.566 37.9893L168.455 39.027C168.451 39.1418 168.436 39.2559 168.411 39.368Z" fill="#429EFF"/>
<path d="M131.711 72.3235C131.484 72.0833 131.282 71.8199 131.11 71.5378C130.747 71.0189 130.243 70.2629 129.628 69.3141C128.405 67.4165 126.781 64.7406 125.113 61.7163C123.446 58.692 122.06 55.8826 121.111 53.8294C120.636 52.8065 120.258 51.9688 120.021 51.3833C119.877 51.0884 119.76 50.7807 119.673 50.4641C119.861 50.7341 120.023 51.0222 120.155 51.324L121.355 53.7108C122.371 55.7344 123.794 58.5067 125.454 61.5309C127.115 64.5552 128.701 67.2386 129.902 69.1732L131.273 71.4637C131.446 71.7357 131.593 72.0236 131.711 72.3235Z" fill="#429EFF"/>
<path d="M243.015 264.632C243.009 264.548 243.009 264.464 243.015 264.38V263.638C243.015 263.001 243.015 262.104 242.978 260.963C242.978 258.635 242.933 255.314 242.896 251.245L243.044 251.393L217.798 251.438C217.627 251.615 218.035 251.208 217.99 251.252V258.138C217.99 260.362 217.99 262.534 217.99 264.595L217.805 264.409L235.906 264.498L241.147 264.55H242.548H243.052C242.899 264.561 242.745 264.561 242.592 264.55H241.221L236.032 264.595L217.812 264.684H217.634V264.506C217.634 262.445 217.634 260.281 217.634 258.049C217.634 256.93 217.634 255.826 217.634 254.647V251.163C217.59 251.2 217.998 250.793 217.827 250.963L243.074 251.015H243.222V251.156C243.222 255.262 243.163 258.613 243.141 260.963C243.141 262.089 243.141 262.971 243.104 263.609C243.104 263.89 243.104 264.113 243.104 264.291C243.09 264.408 243.06 264.523 243.015 264.632Z" fill="#429EFF"/>
<path d="M238.575 255.936C238.575 256.04 234.654 256.129 229.813 256.129C224.973 256.129 221.059 256.04 221.059 255.936C221.059 255.832 224.98 255.744 229.813 255.744C234.646 255.744 238.575 255.832 238.575 255.936Z" fill="#429EFF"/>
<path d="M238.575 258.812C238.575 258.916 234.654 259.005 229.813 259.005C224.973 259.005 221.059 258.916 221.059 258.812C221.059 258.709 224.98 258.62 229.813 258.62C234.646 258.62 238.575 258.709 238.575 258.812Z" fill="#429EFF"/>
<path d="M209.95 116.161C210.14 117.354 210.205 118.564 210.143 119.771C210.204 120.975 210.14 122.182 209.95 123.373C209.76 122.182 209.695 120.975 209.757 119.771C209.695 118.564 209.76 117.354 209.95 116.161Z" fill="#429EFF"/>
<path d="M312.538 174.935C312.538 174.935 312.538 174.846 312.538 174.683C312.538 174.52 312.538 174.268 312.538 173.941C312.538 173.304 312.538 172.407 312.501 171.266C312.501 168.938 312.457 165.625 312.427 161.548L312.568 161.696L287.365 161.741C287.188 161.918 287.595 161.511 287.558 161.555V163.297C287.558 163.883 287.558 164.461 287.558 165.039V168.441C287.558 170.665 287.558 172.837 287.558 174.898L287.38 174.712L305.474 174.801L310.715 174.853H312.123H312.62C312.469 174.864 312.318 174.864 312.168 174.853H310.796L305.608 174.898L287.388 174.987H287.202V174.935C287.202 172.874 287.202 170.71 287.202 168.478V161.592C287.158 161.592 287.566 161.222 287.395 161.392L312.598 161.444H312.746V161.592C312.746 165.706 312.687 169.049 312.664 171.399C312.664 172.526 312.664 173.408 312.664 174.045V174.727C312.634 174.803 312.591 174.873 312.538 174.935Z" fill="#429EFF"/>
<path d="M308.099 166.24C308.099 166.344 304.177 166.433 299.344 166.433C294.511 166.433 290.583 166.344 290.583 166.24C290.583 166.136 294.504 166.047 299.344 166.047C304.185 166.047 308.099 166.136 308.099 166.24Z" fill="#429EFF"/>
<path d="M308.099 169.116C308.099 169.227 304.177 169.308 299.344 169.308C294.511 169.308 290.583 169.227 290.583 169.116C290.583 169.004 294.504 168.923 299.344 168.923C304.185 168.923 308.099 169.004 308.099 169.116Z" fill="#429EFF"/>
<path d="M318.201 49.1888H292.954V62.5387H318.201V49.1888Z" fill="white"/>
<path d="M318.202 62.5391C318.202 62.5391 318.202 62.4501 318.202 62.2871C318.202 62.124 318.202 61.872 318.202 61.5458C318.202 60.9009 318.202 60.004 318.165 58.8699C318.165 56.535 318.121 53.2216 318.091 49.1522L318.232 49.293L292.993 49.3449C292.815 49.5154 293.222 49.1077 293.185 49.1522V52.636C293.185 53.7924 293.185 54.9265 293.185 56.0383C293.185 58.2621 293.185 60.434 293.185 62.4946L293.007 62.3167L311.101 62.4057L316.342 62.4501H317.75H318.247C318.096 62.4605 317.945 62.4605 317.795 62.4501H316.423L311.235 62.502L293.015 62.591H292.829V62.4057C292.829 60.345 292.829 58.188 292.829 55.9494V49.1966L293.022 49.0039L318.262 49.0484H318.41V49.1966C318.41 53.3031 318.351 56.6091 318.336 59.0033C318.336 60.1226 318.336 61.0121 318.336 61.6496C318.336 61.9239 318.336 62.1536 318.336 62.3241C318.304 62.4029 318.259 62.4756 318.202 62.5391Z" fill="#429EFF"/>
<path d="M313.768 53.8512C313.768 53.9549 309.839 54.0439 305.006 54.0439C300.173 54.0439 296.245 53.9549 296.245 53.8512C296.245 53.7474 300.166 53.6584 305.006 53.6584C309.846 53.6584 313.768 53.74 313.768 53.8512Z" fill="#429EFF"/>
<path d="M313.768 56.7279C313.768 56.8317 309.839 56.9206 305.006 56.9206C300.173 56.9206 296.245 56.8317 296.245 56.7279C296.245 56.6241 300.166 56.5352 305.006 56.5352C309.846 56.5352 313.768 56.6167 313.768 56.7279Z" fill="#429EFF"/>
<path d="M300.857 62.48C300.968 62.48 301.049 70.3669 301.049 80.0846C301.049 89.8024 300.968 97.6967 300.857 97.6967C300.745 97.6967 300.664 89.8098 300.664 80.0846C300.664 70.3594 300.753 62.48 300.857 62.48Z" fill="#429EFF"/>
<path d="M25.4904 97.1035C25.4799 97.0199 25.4799 96.9352 25.4904 96.8515V96.1473C25.4904 95.5024 25.4904 94.6055 25.4904 93.464C25.4904 91.1365 25.4459 87.8231 25.4162 83.7537L25.5645 83.8945L0.31758 83.9464L0.510304 83.7537V87.2375C0.510304 88.3865 0.510304 89.528 0.510304 90.6399C0.510304 92.8636 0.510304 95.0355 0.510304 97.0961L0.332405 96.9182L18.4263 97.0072L23.6669 97.0516H25.0753H25.5793C25.4263 97.0617 25.2728 97.0617 25.1197 97.0516H23.7484L18.5597 97.1035L0.339818 97.1925H0.0803805V97.1035C0.0803805 95.0429 0.0803805 92.8858 0.0803805 90.6473V83.7611C0.0359056 83.7981 0.443592 83.3905 0.273105 83.5683L25.52 83.6128H25.6609V83.7611C25.6609 87.8676 25.6016 91.2106 25.5867 93.5678C25.5867 94.6871 25.5867 95.5766 25.5867 96.214C25.5867 96.4883 25.5867 96.7107 25.5867 96.8886C25.5867 97.0665 25.4904 97.1035 25.4904 97.1035Z" fill="#429EFF"/>
<path d="M21.0487 88.3938C21.0487 88.505 17.1275 88.5865 12.2872 88.5865C7.44684 88.5865 3.53305 88.505 3.53305 88.3938C3.53305 88.2826 7.44684 88.201 12.2872 88.201C17.1275 88.201 21.0487 88.29 21.0487 88.3938Z" fill="#429EFF"/>
<path d="M21.0487 91.2773C21.0487 91.3811 17.1275 91.47 12.2872 91.47C7.44684 91.47 3.53305 91.3811 3.53305 91.2773C3.53305 91.1735 7.44684 91.0846 12.2872 91.0846C17.1275 91.0846 21.0487 91.1735 21.0487 91.2773Z" fill="#429EFF"/>
<path d="M70.8913 238.282H45.6443V251.632H70.8913V238.282Z" fill="white"/>
<path d="M70.8916 251.632C70.8812 251.548 70.8812 251.463 70.8916 251.38V250.675C70.8916 250.031 70.8916 249.134 70.8916 247.992C70.8916 245.665 70.8471 242.351 70.8101 238.282L70.9583 238.423L45.7114 238.475L45.9041 238.282V245.168C45.9041 247.392 45.9041 249.564 45.9041 251.624L45.7262 251.446L63.8275 251.535L69.0607 251.58H70.4691H70.9732C70.8201 251.59 70.6666 251.59 70.5136 251.58H69.1423L63.9535 251.632L45.7337 251.721H45.5558V251.535C45.5558 249.475 45.5558 247.318 45.5558 245.079V238.193L45.7485 238L70.9954 238.045H71.1436V238.193C71.1436 242.299 71.0843 245.642 71.0695 247.992C71.0695 249.119 71.0695 250.008 71.0325 250.646C71.0325 250.92 71.0325 251.142 71.0325 251.32C71.0024 251.431 70.9549 251.536 70.8916 251.632Z" fill="#429EFF"/>
<path d="M66.452 242.936C66.452 243.048 62.5308 243.129 57.6905 243.129C52.8501 243.129 48.9363 243.048 48.9363 242.936C48.9363 242.825 52.8575 242.744 57.6905 242.744C62.5234 242.744 66.452 242.833 66.452 242.936Z" fill="#429EFF"/>
<path d="M66.452 245.821C66.452 245.924 62.5308 246.013 57.6905 246.013C52.8501 246.013 48.9363 245.924 48.9363 245.821C48.9363 245.717 52.8575 245.628 57.6905 245.628C62.5234 245.628 66.452 245.709 66.452 245.821Z" fill="#429EFF"/>
<path d="M221.838 14.9733C221.838 14.9733 221.838 14.877 221.838 14.7213C221.838 14.5657 221.838 14.2988 221.838 13.9801C221.838 13.3352 221.838 12.4383 221.801 11.3042C221.801 8.96923 221.757 5.65585 221.727 1.5864L221.868 1.73465L196.628 1.77912C196.451 1.94961 196.858 1.54192 196.814 1.5864V8.4726C196.814 10.6963 196.814 12.8608 196.814 14.9289L196.628 14.7436L214.73 14.8325L219.97 14.8844H221.379H221.875C221.875 14.8844 221.727 14.8844 221.416 14.8844H220.052L214.863 14.9363L196.643 15.0252H196.465V14.9733C196.465 12.9053 196.465 10.7482 196.465 8.51707V5.11474C196.465 4.53657 196.465 3.95839 196.465 3.37281V1.63087C196.428 1.67535 196.836 1.26766 196.665 1.43815L221.905 1.48262H222.053V1.62346C222.016 5.72998 221.994 9.08042 221.972 11.4302C221.972 12.5569 221.972 13.439 221.935 14.0764V14.7584C221.914 14.8347 221.882 14.9073 221.838 14.9733Z" fill="#429EFF"/>
<path d="M217.4 6.27866C217.4 6.38244 213.479 6.47139 208.646 6.47139C203.813 6.47139 199.885 6.38244 199.885 6.27866C199.885 6.17489 203.806 6.08594 208.646 6.08594C213.486 6.08594 217.4 6.16748 217.4 6.27866Z" fill="#429EFF"/>
<path d="M217.4 9.15415C217.4 9.25792 213.479 9.34688 208.646 9.34688C203.813 9.34688 199.885 9.25792 199.885 9.15415C199.885 9.05037 203.806 8.96143 208.646 8.96143C213.486 8.96143 217.4 9.05037 217.4 9.15415Z" fill="#429EFF"/>
<path d="M31.3889 100.068C31.104 100.129 30.8129 100.156 30.5217 100.15L28.1571 100.209C26.1557 100.209 23.3983 100.261 20.3517 100.261C17.157 100.261 14.2809 100.261 12.287 100.202H12.1535V100.068C12.1535 99.2086 12.198 98.4748 12.2128 97.8818C12.2067 97.6154 12.2316 97.3492 12.287 97.0886C12.3472 97.3485 12.3722 97.6153 12.3611 97.8818C12.3611 98.4748 12.3611 99.2086 12.4204 100.068L12.287 99.9424C14.2809 99.9054 17.157 99.8757 20.3517 99.8757C23.3983 99.8757 26.1557 99.8757 28.1571 99.935L30.5217 99.9943C30.8126 99.9885 31.1033 100.013 31.3889 100.068Z" fill="#429EFF"/>
<path d="M198.477 56.0753C198.492 55.9304 198.527 55.7883 198.58 55.6528C198.669 55.3489 198.788 54.956 198.936 54.4816L200.256 50.1676C201.345 46.528 202.761 41.4579 204.051 35.8022C204.673 33.0744 205.214 30.4578 205.674 28.071C205.6 24.2535 205.533 20.9846 205.489 18.6126C205.489 17.4933 205.489 16.5816 205.489 15.8997C205.471 15.578 205.483 15.2553 205.526 14.936C205.574 15.2551 205.601 15.577 205.607 15.8997C205.607 16.5816 205.681 17.4859 205.726 18.6052C205.807 20.9772 205.919 24.2461 206.052 28.0635C205.615 30.4578 205.081 33.0818 204.458 35.8096C203.161 41.4801 201.708 46.5503 200.545 50.175C199.966 51.991 199.462 53.4513 199.107 54.452L198.684 55.6083C198.637 55.7728 198.567 55.93 198.477 56.0753Z" fill="#429EFF"/>
<path d="M93.5736 245.821C93.5736 245.924 88.7851 246.013 82.8848 246.013C76.9844 246.013 72.1886 245.924 72.1886 245.821C72.1886 245.717 76.977 245.628 82.8848 245.628C88.7925 245.628 93.5736 245.709 93.5736 245.821Z" fill="#429EFF"/>
<circle cx="172.251" cy="148.15" r="66.7499" fill="#0089FF"/>
<path d="M199.874 105.185H144.633V120.501H199.874V105.185Z" fill="white"/>
<path d="M196.395 143.807H144.633V159.123H196.395V143.807Z" fill="white"/>
<path d="M161.933 143.807H144.633V191.883H161.933V143.807Z" fill="white"/>
<path d="M199.874 176.567H144.633V191.883H199.874V176.567Z" fill="white"/>
</svg>
