<svg width="142" height="50" viewBox="0 0 142 50" fill="none" xmlns="http://www.w3.org/2000/svg">
<path fill-rule="evenodd" clip-rule="evenodd" d="M99.3333 16.2615H102.23V31.1011H114.787L112.943 34H99.3333V16.2615ZM76.5895 34L65.8761 17.0957C65.2176 15.9984 63.4617 15.9984 62.7149 17.1398L52.0897 34H55.6023L58.8077 28.9064H65.6571L67.4579 26.0083H60.6085L64.3408 20.1695L73.0785 34H76.5895ZM83.1085 16.2671C78.2138 16.2671 74.9916 20.2353 74.9916 25.1307C74.9916 30.0254 78.2146 33.9952 83.1085 33.9952L95.0106 33.9807L96.8732 31.1075H83.1959C79.8967 31.1075 77.9659 28.4316 77.9659 25.1307C77.9659 21.8299 79.8959 19.154 83.1959 19.154H95.3796L97.178 16.2583L83.1085 16.2671ZM8.82077 19.154H21.3775C24.6783 19.154 26.6082 21.8299 26.6082 25.1307C26.6082 28.4316 24.6791 31.1075 21.3775 31.1075H8.82077C5.51997 31.1075 3.59083 28.4316 3.59083 25.1307C3.59083 21.8299 5.51997 19.154 8.82077 19.154ZM8.82077 16.2671C3.92532 16.2671 0.703125 20.2353 0.703125 25.1307C0.703125 30.0254 3.92532 33.9952 8.82077 33.9952H21.3775C26.2729 33.9952 29.4951 30.0254 29.4951 25.1307C29.4951 20.2353 26.2729 16.2671 21.3775 16.2671H8.82077ZM117.883 26.5361C118.354 29.1591 120.159 31.1075 122.976 31.1075H136.654L134.789 33.9807L122.889 33.9952C117.993 33.9952 114.772 30.0254 114.772 25.1307C114.772 20.2353 117.993 16.2671 122.889 16.2671L136.958 16.2591L135.161 19.1548H122.977C120.199 19.1548 118.387 21.0703 117.884 23.6388H135.073L133.229 26.5369L117.883 26.5361ZM45.8772 26.7928C47.2571 26.7687 48.5723 26.2036 49.5396 25.2193C50.5069 24.2349 51.0489 22.91 51.0489 21.5299C51.0489 20.1499 50.5069 18.825 49.5396 17.8406C48.5723 16.8563 47.2571 16.2912 45.8772 16.2671L31.1026 16.2607V33.9992H34.352V19.1548H45.8772C46.5071 19.1548 47.1112 19.4051 47.5567 19.8505C48.0021 20.2959 48.2523 20.9 48.2523 21.5299C48.2523 22.1599 48.0021 22.764 47.5567 23.2094C47.1112 23.6548 46.5071 23.9051 45.8772 23.9051H36.6349L47.0611 33.9791H51.2555L43.7916 26.7992L45.8772 26.7928ZM139.993 16.2775C140.746 16.2775 141.342 16.8727 141.342 17.662C141.342 18.4642 140.747 19.0546 139.993 19.0546C139.23 19.0546 138.637 18.4642 138.637 17.662C138.637 16.8727 139.23 16.2775 139.993 16.2775V16C139.076 16 138.301 16.7051 138.301 17.6612C138.301 18.627 139.077 19.3321 139.993 19.3321C140.902 19.3321 141.677 18.627 141.677 17.6612C141.677 16.7051 140.902 16 139.993 16V16.2775Z" fill="#C74634"/>
<path fill-rule="evenodd" clip-rule="evenodd" d="M139.644 16.952H140.042C140.244 16.952 140.46 16.9961 140.46 17.2343C140.46 17.5295 140.24 17.548 139.992 17.548H139.644V17.795H139.979L140.487 18.6285H140.812L140.265 17.7822C140.548 17.7469 140.763 17.5977 140.763 17.2536C140.763 16.8742 140.538 16.7065 140.085 16.7065H139.352V18.6285H139.643V16.952H139.644Z" fill="#C74634"/>
</svg>
