<svg width="48" height="48" viewBox="0 0 48 48" fill="none" xmlns="http://www.w3.org/2000/svg">
<path d="M0 8C0 3.58172 3.58172 0 8 0H40C44.4183 0 48 3.58172 48 8V40C48 44.4183 44.4183 48 40 48H8C3.58172 48 0 44.4183 0 40V8Z" fill="#F5F5F5"/>
<path d="M33.3832 13H31.1402V15.243C31.1402 15.6916 30.7664 15.9907 30.3925 15.9907C30.0187 15.9907 29.6449 15.6916 29.6449 15.243V13H17.6822V15.243C17.6822 15.6916 17.3084 15.9907 16.9346 15.9907C16.5607 15.9907 16.1869 15.6916 16.1869 15.243V13H13.9439C12.8224 13 12 13.972 12 15.243V17.9346H35.9252V15.243C35.9252 13.972 34.5794 13 33.3832 13ZM12 19.5047V33.1869C12 34.5327 12.8224 35.4299 14.0187 35.4299H33.4579C34.6542 35.4299 36 34.4579 36 33.1869V19.5047H12ZM18.6542 32.0654H16.8598C16.5607 32.0654 16.2617 31.8411 16.2617 31.4673V29.5981C16.2617 29.2991 16.486 29 16.8598 29H18.729C19.028 29 19.3271 29.2243 19.3271 29.5981V31.4673C19.2523 31.8411 19.028 32.0654 18.6542 32.0654ZM18.6542 25.3364H16.8598C16.5607 25.3364 16.2617 25.1122 16.2617 24.7383V22.8692C16.2617 22.5701 16.486 22.271 16.8598 22.271H18.729C19.028 22.271 19.3271 22.4953 19.3271 22.8692V24.7383C19.2523 25.1122 19.028 25.3364 18.6542 25.3364ZM24.6355 32.0654H22.7664C22.4673 32.0654 22.1682 31.8411 22.1682 31.4673V29.5981C22.1682 29.2991 22.3925 29 22.7664 29H24.6355C24.9346 29 25.2336 29.2243 25.2336 29.5981V31.4673C25.2336 31.8411 25.0093 32.0654 24.6355 32.0654ZM24.6355 25.3364H22.7664C22.4673 25.3364 22.1682 25.1122 22.1682 24.7383V22.8692C22.1682 22.5701 22.3925 22.271 22.7664 22.271H24.6355C24.9346 22.271 25.2336 22.4953 25.2336 22.8692V24.7383C25.2336 25.1122 25.0093 25.3364 24.6355 25.3364ZM30.6168 32.0654H28.7477C28.4486 32.0654 28.1495 31.8411 28.1495 31.4673V29.5981C28.1495 29.2991 28.3738 29 28.7477 29H30.6168C30.9159 29 31.215 29.2243 31.215 29.5981V31.4673C31.215 31.8411 30.9907 32.0654 30.6168 32.0654ZM30.6168 25.3364H28.7477C28.4486 25.3364 28.1495 25.1122 28.1495 24.7383V22.8692C28.1495 22.5701 28.3738 22.271 28.7477 22.271H30.6168C30.9159 22.271 31.215 22.4953 31.215 22.8692V24.7383C31.215 25.1122 30.9907 25.3364 30.6168 25.3364Z" fill="#4D5F66"/>
</svg>
