<svg width="48" height="48" viewBox="0 0 48 48" fill="none" xmlns="http://www.w3.org/2000/svg">
<rect width="48" height="48" rx="8" fill="white"/>
<path fill-rule="evenodd" clip-rule="evenodd" d="M19.5348 13.9535V35.1627C19.5347 35.315 19.4931 35.4644 19.4144 35.5948C19.3358 35.7252 19.223 35.8317 19.0883 35.9027C18.9536 35.9738 18.8021 36.0068 18.65 35.9982C18.498 35.9895 18.3512 35.9395 18.2254 35.8536L15.4403 33.9526L12.807 35.8425C12.6537 35.953 12.4674 36.0082 12.2786 35.999C12.0898 35.9899 11.9097 35.917 11.7678 35.7922L9.76739 34.043L7.76703 35.7922C7.62506 35.917 7.44496 35.9899 7.25619 35.999C7.06741 36.0082 6.88112 35.953 6.72778 35.8425L4.09449 33.9526L1.30939 35.8536C1.18362 35.9395 1.03681 35.9895 0.884756 35.9982C0.732702 36.0068 0.581169 35.9738 0.446473 35.9027C0.311778 35.8317 0.199023 35.7252 0.12035 35.5948C0.0416774 35.4644 6.72232e-05 35.315 0 35.1627V13.9535C0 12.8752 0.874042 12 1.95348 12H17.5813C18.6607 12 19.5348 12.8752 19.5348 13.9535ZM5.3023 22.6046H14.2325C14.4545 22.6046 14.6675 22.5164 14.8245 22.3594C14.9815 22.2024 15.0697 21.9894 15.0697 21.7674C15.0697 21.5454 14.9815 21.3324 14.8245 21.1754C14.6675 21.0184 14.4545 20.9302 14.2325 20.9302H5.3023C5.08026 20.9302 4.86731 21.0184 4.7103 21.1754C4.5533 21.3324 4.46509 21.5454 4.46509 21.7674C4.46509 21.9894 4.5533 22.2024 4.7103 22.3594C4.86731 22.5164 5.08026 22.6046 5.3023 22.6046ZM5.3023 18.1395H14.2325C14.4545 18.1395 14.6675 18.0513 14.8245 17.8943C14.9815 17.7373 15.0697 17.5243 15.0697 17.3023C15.0697 17.0803 14.9815 16.8673 14.8245 16.7103C14.6675 16.5533 14.4545 16.4651 14.2325 16.4651H5.3023C5.08026 16.4651 4.86731 16.5533 4.7103 16.7103C4.5533 16.8673 4.46509 17.0803 4.46509 17.3023C4.46509 17.5243 4.5533 17.7373 4.7103 17.8943C4.86731 18.0513 5.08026 18.1395 5.3023 18.1395ZM5.3023 27.0697H9.76739C9.98943 27.0697 10.2024 26.9815 10.3594 26.8245C10.5164 26.6675 10.6046 26.4545 10.6046 26.2325C10.6046 26.0104 10.5164 25.7975 10.3594 25.6405C10.2024 25.4835 9.98943 25.3953 9.76739 25.3953H5.3023C5.08026 25.3953 4.86731 25.4835 4.7103 25.6405C4.5533 25.7975 4.46509 26.0104 4.46509 26.2325C4.46509 26.4545 4.5533 26.6675 4.7103 26.8245C4.86731 26.9815 5.08026 27.0697 5.3023 27.0697Z" fill="#3E96F4"/>
</svg>
