<svg width="130" height="130" viewBox="0 0 130 130" fill="none" xmlns="http://www.w3.org/2000/svg">
<g filter="url(#filter0_d_0_788)">
<path d="M10 22C10 15.3726 15.3726 10 22 10H108C114.627 10 120 15.3726 120 22V108C120 114.627 114.627 120 108 120H22C15.3726 120 10 114.627 10 108V22Z" fill="white"/>
</g>
<rect x="15.8" y="15.8" width="98.4" height="98.4" rx="7.2" fill="#EEF9EE" stroke="#8CD990" stroke-width="1.6"/>
<rect x="87" y="49" width="16" height="16" rx="4" fill="white" fill-opacity="0.6"/>
<rect x="87.5" y="49.5" width="15" height="15" rx="3.5" stroke="#4D4C4D" stroke-opacity="0.5"/>
<rect x="27" y="49" width="16" height="16" rx="4" fill="white" fill-opacity="0.6"/>
<rect x="27.5" y="49.5" width="15" height="15" rx="3.5" stroke="#4D4C4D" stroke-opacity="0.5"/>
<rect x="67" y="49" width="16" height="16" rx="4" fill="white" fill-opacity="0.6"/>
<rect x="67.5" y="49.5" width="15" height="15" rx="3.5" stroke="#4D4C4D" stroke-opacity="0.5"/>
<rect x="47" y="49" width="16" height="16" rx="4" fill="white" fill-opacity="0.6"/>
<rect x="47.5" y="49.5" width="15" height="15" rx="3.5" stroke="#4D4C4D" stroke-opacity="0.5"/>
<path d="M37 57H33" stroke="#B3B3B3" stroke-width="2" stroke-linecap="round"/>
<path d="M57 57H53" stroke="#B3B3B3" stroke-width="2" stroke-linecap="round"/>
<path d="M77 57H73" stroke="#B3B3B3" stroke-width="2" stroke-linecap="round"/>
<path d="M97 57H93" stroke="#B3B3B3" stroke-width="2" stroke-linecap="round"/>
<path d="M72.5109 32.4887C72.2457 32.2235 71.9238 32.091 71.5449 32.091H71.0906V29.3636C71.0906 27.6212 70.4658 26.1251 69.2157 24.8751C67.9657 23.625 66.4698 23 64.7272 23C62.9846 23 61.4883 23.625 60.2385 24.875C58.9884 26.1251 58.3636 27.6211 58.3636 29.3636V32.091H57.9091C57.5305 32.091 57.2084 32.2235 56.9432 32.4887C56.6781 32.7536 56.5455 33.0757 56.5455 33.4547V41.6364C56.5455 42.0151 56.6781 42.3372 56.9432 42.6024C57.2084 42.8674 57.5305 43 57.9091 43H71.5452C71.9242 43 72.246 42.8675 72.5112 42.6024C72.7762 42.3372 72.9089 42.0151 72.9089 41.6364V33.4545C72.9091 33.0758 72.7762 32.7538 72.5109 32.4887ZM68.3635 32.091H61.0909V29.3636C61.0909 28.3598 61.4461 27.5028 62.1563 26.7927C62.8666 26.0825 63.7235 25.7274 64.7273 25.7274C65.7312 25.7274 66.588 26.0824 67.2983 26.7927C68.0083 27.5027 68.3635 28.3598 68.3635 29.3636V32.091Z" fill="#319B36"/>
<rect x="27" y="76" width="76" height="25" rx="6" fill="white" fill-opacity="0.6"/>
<rect x="27.5" y="76.5" width="75" height="24" rx="5.5" stroke="#4D4C4D" stroke-opacity="0.5"/>
<path d="M40.8 86H43C43 83.8879 41.0842 82.1356 38.6 81.8436V80H36.4V81.8436C33.9158 82.1357 32 83.8879 32 86C31.9989 86.8008 32.3255 87.5788 32.9278 88.2099C33.5301 88.8411 34.3734 89.2891 35.3232 89.4824L36.4 89.7027V94.324C35.1362 94.0569 34.2 93.1162 34.2 92H32C32 94.1121 33.9158 95.8644 36.4 96.1564V98H38.6V96.1564C41.0842 95.8643 43 94.1121 43 92C43.0011 91.1992 42.6745 90.4212 42.0722 89.7901C41.4699 89.1589 40.6266 88.7109 39.6768 88.5176L38.6 88.2973V83.676C39.8638 83.9431 40.8 84.8838 40.8 86ZM39.1432 90.2638C39.6167 90.3602 40.0371 90.5835 40.3374 90.8982C40.6377 91.2129 40.8006 91.6008 40.8 92C40.8 93.1162 39.8638 94.0569 38.6 94.324V90.1527L39.1432 90.2638ZM35.8568 87.7362C35.3833 87.6398 34.9629 87.4165 34.6626 87.1018C34.3623 86.7871 34.1994 86.3992 34.2 86C34.2 84.8838 35.1362 83.9431 36.4 83.676V87.8473L35.8568 87.7362Z" fill="#319B36"/>
<defs>
<filter id="filter0_d_0_788" x="0" y="0" width="130" height="130" filterUnits="userSpaceOnUse" color-interpolation-filters="sRGB">
<feFlood flood-opacity="0" result="BackgroundImageFix"/>
<feColorMatrix in="SourceAlpha" type="matrix" values="0 0 0 0 0 0 0 0 0 0 0 0 0 0 0 0 0 0 127 0" result="hardAlpha"/>
<feOffset/>
<feGaussianBlur stdDeviation="5"/>
<feComposite in2="hardAlpha" operator="out"/>
<feColorMatrix type="matrix" values="0 0 0 0 0.237426 0 0 0 0 0.685651 0 0 0 0 0.259837 0 0 0 0.5 0"/>
<feBlend mode="normal" in2="BackgroundImageFix" result="effect1_dropShadow_0_788"/>
<feBlend mode="normal" in="SourceGraphic" in2="effect1_dropShadow_0_788" result="shape"/>
</filter>
</defs>
</svg>
