<svg width="64" height="64" viewBox="0 0 64 64" fill="none" xmlns="http://www.w3.org/2000/svg">
<rect width="64" height="64" rx="8" fill="#335BEA"/>
<path d="M33 31.5312C33 30.485 32.4261 29.5813 31.5867 29.0975C32.389 28.8912 33 28.1862 33 27.3125C33.0004 27.0267 32.9309 26.7452 32.7976 26.4931C32.3277 24.845 31.271 23.4725 29.8651 22.625H23.1349C21.7271 23.4725 20.6723 24.845 20.2006 26.4931C20.0691 26.7459 20.0003 27.027 20 27.3125C20 28.1844 20.611 28.8894 21.4133 29.0956C20.5739 29.5813 20 30.485 20 31.5312C20 32.5794 20.5739 33.4813 21.4151 33.9669C20.6091 34.1712 20 34.8744 20 35.75V45.125C20 46.16 20.832 47 21.8571 47H31.1429C32.168 47 33 46.16 33 45.125V35.75C33 34.8725 32.3909 34.1694 31.5849 33.965C32.4261 33.4813 33 32.5794 33 31.5312ZM29.2857 17H23.7143C23.2017 17 22.7857 17.42 22.7857 17.9375V19.8125C22.7857 20.33 23.2017 20.75 23.7143 20.75H29.2857C29.7983 20.75 30.2143 20.33 30.2143 19.8125V17.9375C30.2143 17.42 29.7983 17 29.2857 17Z" fill="white"/>
<path d="M35.9875 30.0013C35.4295 30.1444 35.0078 30.6366 35.0078 31.2495V45.6875C35.0078 46.412 35.5838 47 36.2935 47H42.7221C43.4318 47 44.0078 46.412 44.0078 45.6875V31.2495C44.0078 30.6352 43.5861 30.1431 43.0281 30L35.9875 30.0013ZM41.4364 26H37.5792C37.2244 26 36.9364 26.294 36.9364 26.6562V27.9688C36.9364 28.331 37.2244 28.625 37.5792 28.625H41.4364C41.7912 28.625 42.0792 28.331 42.0792 27.9688V26.6562C42.0792 26.294 41.7912 26 41.4364 26Z" fill="white"/>
</svg>
