<svg width="20" height="20" viewBox="0 0 20 20" fill="none" xmlns="http://www.w3.org/2000/svg">
<path d="M19.8676 0.827349C19.78 0.689264 19.6529 0.580642 19.5029 0.515515C19.3543 0.446356 19.1885 0.422812 19.0265 0.447854C18.8645 0.472768 18.7132 0.544322 18.5912 0.653782L17.2794 1.81581C17.2624 1.83086 17.2404 1.83922 17.2176 1.83934C17.1948 1.8398 17.1726 1.83136 17.1559 1.81581L15.3677 0.218389C15.212 0.0778153 15.0097 0 14.8 0C14.5903 0 14.388 0.0778153 14.2324 0.218389L12.45 1.81287C12.45 1.81287 12.4235 1.81287 12.4088 1.83052C12.3941 1.84817 12.3853 1.83052 12.3765 1.81581L10.5882 0.218389C10.4225 0.0821291 10.2146 0.00764233 10 0.00764233C9.78545 0.00764233 9.57754 0.0821291 9.41178 0.218389L7.62646 1.81581C7.61483 1.81836 7.60279 1.81836 7.59117 1.81581C7.59117 1.81581 7.56175 1.81581 7.55293 1.81581L5.76765 0.221331C5.61199 0.0807578 5.40971 0.00294022 5.19999 0.00294022C4.99027 0.00294022 4.78803 0.0807578 4.63236 0.221331L2.84705 1.81875C2.82882 1.83379 2.80598 1.8421 2.78235 1.84228C2.7596 1.84217 2.73767 1.8338 2.7206 1.81875L1.40587 0.656724C1.28338 0.549171 1.13249 0.479247 0.97126 0.455344C0.81003 0.431441 0.645323 0.454574 0.496909 0.521966C0.348495 0.589357 0.222678 0.698145 0.134539 0.835281C0.0464004 0.972417 -0.000309428 1.13207 1.07487e-05 1.2951V18.7225C-0.000812928 18.8861 0.0457185 19.0464 0.134001 19.1842C0.222283 19.3219 0.348546 19.4311 0.497519 19.4986C0.646492 19.5661 0.811807 19.589 0.973521 19.5646C1.13524 19.5401 1.28641 19.4694 1.40881 19.3609L2.7206 18.1842C2.73883 18.1692 2.76167 18.1608 2.7853 18.1607C2.80796 18.1613 2.82972 18.1696 2.84705 18.1842L4.63236 19.7816C4.78803 19.9222 4.99027 20 5.19999 20C5.40971 20 5.61199 19.9222 5.76765 19.7816L7.55293 18.1871C7.55293 18.1871 7.57646 18.1871 7.59117 18.1724C7.60587 18.1577 7.61764 18.1724 7.62646 18.1724L9.41178 19.7698C9.57243 19.9153 9.78346 19.9923 10 19.9846C10.2163 19.9908 10.4268 19.914 10.5882 19.7698L12.3765 18.1724C12.3765 18.1724 12.4 18.1724 12.4118 18.1724C12.4257 18.1734 12.439 18.1786 12.45 18.1871L14.2353 19.7816C14.3905 19.922 14.5922 19.9997 14.8015 19.9997C15.0107 19.9997 15.2125 19.922 15.3677 19.7816L17.1559 18.1842C17.1729 18.1691 17.1949 18.1608 17.2176 18.1607C17.2413 18.1608 17.2641 18.1692 17.2824 18.1842L18.5941 19.3609C18.7162 19.4698 18.8672 19.5409 19.0289 19.5655C19.1906 19.5901 19.356 19.5672 19.5049 19.4996C19.6538 19.432 19.7798 19.3225 19.8677 19.1846C19.9556 19.0466 20.0016 18.8861 20 18.7225V1.29216C20.0025 1.12759 19.9564 0.965933 19.8676 0.827349ZM11.4618 13.792H4.57646C4.24494 13.792 3.92702 13.6603 3.6926 13.4258C3.45818 13.1914 3.32646 12.8733 3.32646 12.5417C3.32646 12.2101 3.45818 11.8921 3.6926 11.6577C3.92702 11.4232 4.24494 11.2915 4.57646 11.2915H11.4618C11.7933 11.2915 12.1112 11.4232 12.3457 11.6577C12.5801 11.8921 12.7118 12.2101 12.7118 12.5417C12.7118 12.8733 12.5801 13.1914 12.3457 13.4258C12.1112 13.6603 11.7933 13.792 11.4618 13.792ZM15.4147 8.72618H4.57646C4.25505 8.71059 3.95194 8.57191 3.72998 8.33887C3.50801 8.10583 3.38423 7.7963 3.38423 7.47443C3.38423 7.15256 3.50801 6.84304 3.72998 6.61C3.95194 6.37696 4.25505 6.23827 4.57646 6.22268H15.4147C15.7361 6.23827 16.0392 6.37696 16.2612 6.61C16.4831 6.84304 16.607 7.15256 16.607 7.47443C16.607 7.7963 16.4831 8.10583 16.2612 8.33887C16.0392 8.57191 15.7361 8.71059 15.4147 8.72618Z" fill="#505050"/>
</svg>
