<svg width="56" height="56" viewBox="0 0 56 56" fill="none" xmlns="http://www.w3.org/2000/svg">
<rect width="56" height="56" rx="8" fill="#F0F7FF"/>
<path d="M40.4189 32.8029C40.5237 32.8057 40.6269 32.8287 40.7227 32.8712C40.8185 32.9145 40.9055 32.9762 40.9775 33.0529C41.0494 33.1294 41.1054 33.2194 41.1426 33.3175C41.1797 33.4159 41.1967 33.521 41.1934 33.6261C41.19 33.7312 41.1664 33.835 41.123 33.9308C40.0582 36.2855 38.3793 38.3103 36.2627 39.7931C34.1459 41.276 31.6688 42.1621 29.0918 42.3585L29.3672 42.632C29.4416 42.7062 29.5007 42.7947 29.541 42.8917C29.5813 42.9888 29.6015 43.0933 29.6016 43.1984C29.6016 43.3035 29.5812 43.4079 29.541 43.505C29.5007 43.6021 29.4415 43.6905 29.3672 43.7648C29.293 43.8392 29.2044 43.8983 29.1074 43.9386C29.0103 43.9789 28.9059 44.0001 28.8008 44.0001C28.6956 44.0001 28.5913 43.9789 28.4941 43.9386C28.397 43.8983 28.3087 43.8393 28.2344 43.7648L26.6338 42.1652C26.5594 42.0909 26.5002 42.0025 26.46 41.9054C26.4197 41.8083 26.3994 41.7039 26.3994 41.5988C26.3994 41.4936 26.4196 41.3893 26.46 41.2921C26.5003 41.195 26.5594 41.1066 26.6338 41.0324L28.2344 39.4328C28.3087 39.3583 28.397 39.2993 28.4941 39.2589C28.5913 39.2186 28.6956 39.1974 28.8008 39.1974C28.9059 39.1974 29.0103 39.2186 29.1074 39.2589C29.2045 39.2993 29.293 39.3584 29.3672 39.4328C29.4416 39.507 29.5007 39.5955 29.541 39.6925C29.5813 39.7896 29.6016 39.894 29.6016 39.9992C29.6015 40.1043 29.5813 40.2087 29.541 40.3058C29.5007 40.4029 29.4416 40.4913 29.3672 40.5656L29.1875 40.7433C31.4383 40.5344 33.5941 39.7325 35.4346 38.4201C37.2748 37.1078 38.7342 35.3312 39.665 33.2716C39.7303 33.1278 39.8376 33.0064 39.9717 32.923C40.1057 32.8397 40.2612 32.7979 40.4189 32.8029Z" fill="#3E96F4"/>
<path d="M14.3105 26.4064C14.4298 26.3926 14.5526 26.4052 14.666 26.4445C14.7794 26.4838 14.8826 26.5484 14.9678 26.633L16.5674 28.2335C16.6418 28.3078 16.7009 28.3962 16.7412 28.4933C16.7815 28.5904 16.8027 28.6948 16.8027 28.7999C16.8027 28.905 16.7815 29.0095 16.7412 29.1066C16.7009 29.2036 16.6418 29.2922 16.5674 29.3664C16.4931 29.4407 16.4047 29.4999 16.3076 29.5402C16.2105 29.5804 16.1061 29.6007 16.001 29.6007C15.8958 29.6007 15.7915 29.5805 15.6943 29.5402C15.5972 29.4999 15.5088 29.4408 15.4346 29.3664L15.2568 29.1867C15.4656 31.4354 16.2666 33.5887 17.5771 35.4279C18.8877 37.267 20.6615 38.7269 22.7188 39.6583C22.8146 39.7016 22.9016 39.7633 22.9736 39.84C23.0455 39.9165 23.1016 40.0064 23.1387 40.1046C23.1758 40.203 23.1938 40.3081 23.1904 40.4132C23.187 40.5182 23.1624 40.6213 23.1191 40.7169C23.0759 40.8128 23.0141 40.8998 22.9375 40.9718C22.861 41.0437 22.771 41.0997 22.6729 41.1369C22.5745 41.174 22.4694 41.191 22.3643 41.1876C22.2594 41.1843 22.1562 41.1606 22.0605 41.1173C19.7082 40.0513 17.6852 38.3727 16.2041 36.257C14.7231 34.1413 13.8381 31.666 13.6416 29.091L13.3682 29.3664C13.2939 29.4408 13.2055 29.4999 13.1084 29.5402C13.0113 29.5805 12.9069 29.6007 12.8018 29.6007C12.6967 29.6007 12.5922 29.5804 12.4951 29.5402C12.3981 29.4999 12.3096 29.4407 12.2354 29.3664C12.161 29.2922 12.1018 29.2036 12.0615 29.1066C12.0212 29.0095 12.0001 28.905 12 28.7999C12 28.6948 12.0212 28.5905 12.0615 28.4933C12.1019 28.3961 12.1609 28.3078 12.2354 28.2335L13.835 26.633C13.9631 26.5059 14.1311 26.4263 14.3105 26.4064Z" fill="#3E96F4"/>
<path fill-rule="evenodd" clip-rule="evenodd" d="M27.998 18.4005C33.2903 18.4006 37.5974 22.7069 37.5977 27.9992C37.5977 33.2916 33.2905 37.5987 27.998 37.5988C22.7055 37.5988 18.3984 33.2917 18.3984 27.9992C18.3987 22.7069 22.7057 18.4005 27.998 18.4005ZM27.998 22.3996C27.786 22.3996 27.5826 22.4841 27.4326 22.6339C27.2826 22.7839 27.1982 22.9882 27.1982 23.2003V24.0001C25.8832 24.0001 24.7979 25.0845 24.7979 26.3996C24.7979 27.7147 25.8831 28.7999 27.1982 28.7999H28.7979C29.2554 28.7999 29.5977 29.1422 29.5977 29.5998C29.5976 30.0572 29.2554 30.3996 28.7979 30.3996H27.1982C26.7407 30.3996 26.3985 30.0572 26.3984 29.5998C26.3984 29.3878 26.3138 29.1843 26.1641 29.0343C26.014 28.8843 25.8098 28.7999 25.5977 28.7999C25.3856 28.8 25.1822 28.8844 25.0322 29.0343C24.8824 29.1843 24.7979 29.3877 24.7979 29.5998C24.798 30.9148 25.8832 31.9992 27.1982 31.9992V32.799C27.1982 33.0111 27.2826 33.2154 27.4326 33.3654C27.5826 33.5152 27.7861 33.5998 27.998 33.5998C28.2101 33.5997 28.4135 33.5152 28.5635 33.3654C28.7135 33.2154 28.7979 33.0111 28.7979 32.799V31.9992C30.1129 31.9992 31.1972 30.9148 31.1973 29.5998C31.1973 28.2846 30.113 27.1994 28.7979 27.1994H27.1982C26.7407 27.1994 26.3984 26.8571 26.3984 26.3996C26.3985 25.9421 26.7407 25.5997 27.1982 25.5997H28.7979C29.2554 25.5997 29.5976 25.9421 29.5977 26.3996C29.5977 26.6116 29.6822 26.815 29.832 26.965C29.982 27.1149 30.1854 27.1993 30.3975 27.1994C30.6096 27.1994 30.8138 27.115 30.9639 26.965C31.1136 26.815 31.1973 26.6115 31.1973 26.3996C31.1972 25.0845 30.1129 24.0001 28.7979 24.0001V23.2003C28.7979 22.9882 28.7135 22.7839 28.5635 22.6339C28.4135 22.4841 28.2101 22.3996 27.998 22.3996Z" fill="#3E96F4"/>
<path d="M33.6289 14.8068C33.7339 14.8101 33.8359 14.8339 33.9316 14.8771C36.2864 15.942 38.3111 17.6209 39.7939 19.7374C41.2768 21.8542 42.163 24.3313 42.3594 26.9083L42.6338 26.633C42.708 26.5586 42.7965 26.4994 42.8936 26.4591C42.9905 26.419 43.0943 26.3986 43.1992 26.3986C43.3043 26.3986 43.4088 26.4189 43.5059 26.4591C43.6029 26.4994 43.6914 26.5586 43.7656 26.633C43.8401 26.7072 43.9001 26.7956 43.9404 26.8927C43.9807 26.9898 44.0009 27.0942 44.001 27.1994C44.001 27.3044 43.9807 27.4089 43.9404 27.506C43.9001 27.6032 43.8401 27.6915 43.7656 27.7658L42.166 29.3664C42.0918 29.4407 42.0033 29.4999 41.9062 29.5402C41.8091 29.5804 41.7048 29.6007 41.5996 29.6007C41.4944 29.6007 41.3901 29.5805 41.293 29.5402C41.1959 29.4999 41.1075 29.4408 41.0332 29.3664L39.4336 27.7658C39.3591 27.6915 39.3001 27.6032 39.2598 27.506C39.2195 27.4089 39.1982 27.3045 39.1982 27.1994C39.1983 27.0942 39.2195 26.9898 39.2598 26.8927C39.3001 26.7957 39.3592 26.7072 39.4336 26.633C39.5079 26.5586 39.5963 26.4994 39.6934 26.4591C39.7905 26.4188 39.8948 26.3986 40 26.3986C40.1052 26.3986 40.2095 26.4188 40.3066 26.4591C40.4038 26.4994 40.4921 26.5585 40.5664 26.633L40.7422 26.8126C40.5332 24.5619 39.7323 22.406 38.4199 20.5656C37.1075 18.7252 35.3303 17.266 33.2705 16.3351C33.0777 16.2478 32.9275 16.0867 32.8525 15.8888C32.7777 15.691 32.7846 15.4714 32.8711 15.2785C32.9145 15.1827 32.976 15.0964 33.0527 15.0246C33.1295 14.9527 33.2199 14.8965 33.3184 14.8595C33.4173 14.8215 33.523 14.8037 33.6289 14.8068Z" fill="#3E96F4"/>
<path d="M27.1113 12.005C27.2307 11.9915 27.3514 12.0055 27.4648 12.0451C27.5784 12.0847 27.6815 12.1495 27.7666 12.2345L29.3672 13.8341C29.517 13.9841 29.6016 14.1875 29.6016 14.3996C29.6016 14.6116 29.517 14.815 29.3672 14.965L27.7666 16.5646C27.6923 16.6391 27.604 16.6991 27.5068 16.7394C27.4098 16.7796 27.3053 16.7999 27.2002 16.7999C27.0951 16.7999 26.9906 16.7797 26.8936 16.7394C26.7965 16.6991 26.708 16.639 26.6338 16.5646C26.4841 16.4146 26.4004 16.2111 26.4004 15.9992C26.4005 15.7872 26.484 15.5837 26.6338 15.4337L26.8135 15.255C24.5629 15.464 22.4077 16.2651 20.5674 17.5773C18.7269 18.8897 17.2668 20.6668 16.3359 22.7267C16.2487 22.9197 16.0878 23.0697 15.8896 23.1447C15.6914 23.2196 15.4716 23.2131 15.2783 23.1261C15.1825 23.0829 15.0954 23.0211 15.0234 22.9445C14.9516 22.8679 14.8955 22.778 14.8584 22.6798C14.8212 22.5815 14.8043 22.4763 14.8076 22.3712C14.811 22.2663 14.8347 22.1631 14.8779 22.0675C15.9431 19.7129 17.6225 17.6878 19.7393 16.2052C21.856 14.7227 24.3324 13.837 26.9092 13.6408L26.6338 13.3654C26.484 13.2154 26.4005 13.0119 26.4004 12.7999C26.4004 12.588 26.4841 12.3845 26.6338 12.2345C26.7618 12.1067 26.9297 12.0254 27.1094 12.005H27.1113Z" fill="#3E96F4"/>
</svg>
