<svg width="47" height="52" viewBox="0 0 47 52" fill="none" xmlns="http://www.w3.org/2000/svg">
<path d="M34.9996 50.3997C35.4413 50.3999 35.7994 50.7578 35.7994 51.1995C35.7994 51.6413 35.4413 51.9992 34.9996 51.9993H12.9996C12.5578 51.9993 12.1998 51.6414 12.1998 51.1995C12.1999 50.7577 12.5578 50.3997 12.9996 50.3997H34.9996Z" fill="url(#paint0_linear_2_519)"/>
<path d="M29.9996 46.0003C30.4413 46.0005 30.7994 46.3584 30.7994 46.8001C30.7992 47.2417 30.4412 47.5998 29.9996 47.5999H17.9996C17.5579 47.5999 17.2001 47.2418 17.1998 46.8001C17.1998 46.3583 17.5578 46.0003 17.9996 46.0003H29.9996Z" fill="url(#paint1_linear_2_519)"/>
<path fill-rule="evenodd" clip-rule="evenodd" d="M46.8307 26.2269C47.566 32.2822 45.8658 38.3821 42.1041 43.1839L35.5865 38.0784C37.9939 35.0054 39.0814 31.1011 38.611 27.2259L46.8307 26.2269ZM40.3141 28.6302C40.3873 31.8562 39.5015 35.0332 37.7701 37.7562L41.7838 40.8997C44.3266 37.0995 45.5862 32.5826 45.3756 28.015L40.3141 28.6302Z" fill="url(#paint2_linear_2_519)"/>
<path fill-rule="evenodd" clip-rule="evenodd" d="M9.44787 26.7796C8.8591 30.6385 9.8272 34.5739 12.1393 37.7191L5.46838 42.6234C1.85557 37.7089 0.343248 31.5603 1.2633 25.5306L9.44787 26.7796ZM2.66173 27.3616C2.31153 31.9207 3.43259 36.4747 5.85802 40.3509L9.96545 37.3304C8.3185 34.5559 7.52994 31.3531 7.70177 28.1312L2.66173 27.3616Z" fill="url(#paint3_linear_2_519)"/>
<path fill-rule="evenodd" clip-rule="evenodd" d="M26.8483 39.4486C26.5315 41.5742 24.391 42.9142 22.3404 42.2708L22.151 42.2054C20.2912 41.5051 19.3868 39.3855 20.1695 37.5589L20.2545 37.3773L30.109 17.5316L26.8483 39.4486ZM21.9244 38.2064C21.4781 39.1053 21.9415 40.1908 22.899 40.4915C23.8564 40.7917 24.8559 40.1657 25.0035 39.1732L26.525 28.9398L21.9244 38.2064Z" fill="url(#paint4_linear_2_519)"/>
<path fill-rule="evenodd" clip-rule="evenodd" d="M35.7682 9.2386C41.0089 12.3594 44.7953 17.4346 46.2945 23.347L38.2692 25.3822L38.1744 25.0286C37.1567 21.3963 34.7809 18.2877 31.5319 16.3529L35.7682 9.2386ZM33.6842 15.8636C36.2815 17.7782 38.2542 20.4216 39.3502 23.4564L44.2926 22.2034C42.8405 17.8676 40.0356 14.1091 36.2926 11.4827L33.6842 15.8636Z" fill="url(#paint5_linear_2_519)"/>
<path fill-rule="evenodd" clip-rule="evenodd" d="M16.483 16.3431C13.1263 18.3363 10.6992 21.5816 9.73498 25.3646L1.71154 23.3197C3.21822 17.4087 7.01139 12.3383 12.2565 9.22395L16.483 16.3431ZM11.7272 11.4671C7.98102 14.0888 5.17192 17.8442 3.71447 22.1781L8.6549 23.4378C9.75464 20.4039 11.7307 17.7624 14.3307 15.8509L11.7272 11.4671Z" fill="url(#paint6_linear_2_519)"/>
<path fill-rule="evenodd" clip-rule="evenodd" d="M15.1256 7.78059C20.7532 5.42724 27.0857 5.4059 32.7291 7.72102L29.5865 15.3822C25.9748 13.9005 21.9225 13.9142 18.3209 15.4202L15.1256 7.78059ZM30.6188 8.64876C26.2704 7.23432 21.5804 7.25061 17.2418 8.69466L19.2086 13.3988C22.2934 12.4514 25.592 12.4404 28.6832 13.3665L30.6188 8.64876Z" fill="url(#paint7_linear_2_519)"/>
<defs>
<linearGradient id="paint0_linear_2_519" x1="63.6774" y1="78.1326" x2="-17.528" y2="9.81596" gradientUnits="userSpaceOnUse">
<stop stop-color="#31393C"/>
<stop offset="1" stop-color="#3D96F5"/>
</linearGradient>
<linearGradient id="paint1_linear_2_519" x1="63.6774" y1="78.1326" x2="-17.528" y2="9.81596" gradientUnits="userSpaceOnUse">
<stop stop-color="#31393C"/>
<stop offset="1" stop-color="#3D96F5"/>
</linearGradient>
<linearGradient id="paint2_linear_2_519" x1="63.6774" y1="78.1326" x2="-17.528" y2="9.81596" gradientUnits="userSpaceOnUse">
<stop stop-color="#31393C"/>
<stop offset="1" stop-color="#3D96F5"/>
</linearGradient>
<linearGradient id="paint3_linear_2_519" x1="63.6774" y1="78.1326" x2="-17.528" y2="9.81596" gradientUnits="userSpaceOnUse">
<stop stop-color="#31393C"/>
<stop offset="1" stop-color="#3D96F5"/>
</linearGradient>
<linearGradient id="paint4_linear_2_519" x1="63.6774" y1="78.1326" x2="-17.528" y2="9.81596" gradientUnits="userSpaceOnUse">
<stop stop-color="#31393C"/>
<stop offset="1" stop-color="#3D96F5"/>
</linearGradient>
<linearGradient id="paint5_linear_2_519" x1="63.6774" y1="78.1326" x2="-17.528" y2="9.81596" gradientUnits="userSpaceOnUse">
<stop stop-color="#31393C"/>
<stop offset="1" stop-color="#3D96F5"/>
</linearGradient>
<linearGradient id="paint6_linear_2_519" x1="63.6774" y1="78.1326" x2="-17.528" y2="9.81596" gradientUnits="userSpaceOnUse">
<stop stop-color="#31393C"/>
<stop offset="1" stop-color="#3D96F5"/>
</linearGradient>
<linearGradient id="paint7_linear_2_519" x1="63.6774" y1="78.1326" x2="-17.528" y2="9.81596" gradientUnits="userSpaceOnUse">
<stop stop-color="#31393C"/>
<stop offset="1" stop-color="#3D96F5"/>
</linearGradient>
</defs>
</svg>
