<svg width="50" height="50" viewBox="0 0 50 50" fill="none" xmlns="http://www.w3.org/2000/svg">
<path d="M3.14052 25C1.77915 22.6466 1 19.9143 1 17C1 8.16344 8.16344 1 17 1C24.5398 1 30.8616 6.21531 32.5546 13.2353" stroke="#3DA4C2" stroke-width="2"/>
<path d="M25.4639 2.88235C27.7095 1.68111 30.2752 1 33 1C41.8365 1 49 8.16344 49 17C49 24.503 43.8355 30.7997 36.8675 32.5294" stroke="#3DA4C2" stroke-width="2"/>
<path d="M46.8594 25C48.2207 27.3534 48.9999 30.0857 48.9999 33C48.9999 41.8366 41.8364 49 32.9999 49C25.46 49 19.1383 43.7847 17.4453 36.7647" stroke="#3DA4C2" stroke-width="2"/>
<path d="M25.4706 46.1309C23.0141 47.6669 20.1107 48.5546 17 48.5546C8.16344 48.5546 1 41.3911 1 32.5546C1 25.0147 6.21531 18.693 13.2353 17" stroke="#3DA4C2" stroke-width="2"/>
<path d="M36.7646 17H48.9999" stroke="#3DA4C2" stroke-width="2"/>
<path d="M13.2353 33H1" stroke="#3DA4C2" stroke-width="2"/>
<path d="M21.2353 17H29.2353M17 20.7647V29.2353M20.7647 33H29.2353M33 29.2353V20.7647" stroke="#3DA4C2" stroke-width="2"/>
<path d="M17 1V13.2353" stroke="#3DA4C2" stroke-width="2"/>
<path d="M33 36.7646L33 48.9999" stroke="#3DA4C2" stroke-width="2"/>
<circle cx="17.0001" cy="17.0001" r="3.76471" stroke="#3DA4C2" stroke-width="2"/>
<circle cx="33.0001" cy="17.0001" r="3.76471" stroke="#3DA4C2" stroke-width="2"/>
<circle cx="33.0001" cy="33.0001" r="3.76471" stroke="#3DA4C2" stroke-width="2"/>
<circle cx="17.0001" cy="33.0001" r="3.76471" stroke="#3DA4C2" stroke-width="2"/>
</svg>
