<svg width="220" height="40" viewBox="0 0 220 40" fill="none" xmlns="http://www.w3.org/2000/svg">
<path fill-rule="evenodd" clip-rule="evenodd" d="M206.241 7.54983C210.165 7.54983 214.274 8.399 217.174 9.52381V1.90476C214.239 0.95238 210.165 0 204.876 0C194.811 0 187.987 3.73459 187.987 11.5658C187.987 25.0598 207.436 22.329 207.436 28.5943C207.436 31.0037 205.15 32.381 200.543 32.381C196.449 32.381 191.579 32.2431 187.826 30.4762V38.0952C191.579 39.381 197.029 40 201.123 40C211.53 40 219.13 36.8688 219.13 27.23C219.13 14.3788 199.565 18.0952 199.565 10.4762C199.565 7.61905 202.659 7.54983 206.241 7.54983ZM165.217 29.5652H161.739V40H149.565V0C149.843 0 159.237 0.191313 163.478 0C176.01 0.191313 184.348 4.19497 184.348 13.913C184.348 25.3107 176.182 29.5648 165.217 29.5652ZM163.478 6.95652C162.873 6.97351 162.424 6.93529 161.739 6.95652V22.6087H163.478C169.607 22.6087 172.174 20.7498 172.174 13.913C172.174 9.6784 169.285 6.97351 163.478 6.95652ZM130.435 0H142.609V40H130.435V0ZM100.87 40V0H113.043V31.3043H125.217L123.478 40H100.87ZM81.7391 0H93.913V40H81.7391V0ZM62.6087 24.3478H50.4348V40H38.2609V0H50.4348V15.6522H62.6087V0H74.7826V40H62.6087V24.3478ZM15.6522 29.5652H12.1739V40H0V0C0.278275 0 9.67179 0.191313 13.913 0C26.4448 0.191313 34.7826 4.19497 34.7826 13.913C34.7826 25.3107 26.617 29.5648 15.6522 29.5652ZM13.913 6.95652C13.3078 6.97351 12.8591 6.93529 12.1739 6.95652V22.6087H13.913C20.04 22.6087 22.6087 20.7498 22.6087 13.913C22.6087 9.6784 19.72 6.97351 13.913 6.95652Z" fill="#0B5ED7"/>
</svg>
