<svg width="11" height="15" viewBox="0 0 11 15" fill="none" xmlns="http://www.w3.org/2000/svg">
<path d="M11 10.0674C11 10.208 10.974 10.3916 10.9219 10.6182C10.8698 10.8447 10.8151 11.0231 10.7578 11.1533C10.6484 11.4137 10.3307 11.6898 9.80469 11.9814C9.3151 12.2471 8.83073 12.3799 8.35156 12.3799C8.21094 12.3799 8.07292 12.3708 7.9375 12.3525C7.80208 12.3343 7.65234 12.3018 7.48828 12.2549C7.32422 12.208 7.20182 12.1702 7.12109 12.1416C7.04036 12.113 6.89583 12.0596 6.6875 11.9814C6.47917 11.9033 6.35156 11.8564 6.30469 11.8408C5.79427 11.6585 5.33854 11.4424 4.9375 11.1924C4.27604 10.7809 3.58854 10.2184 2.875 9.50488C2.16146 8.79134 1.59896 8.10384 1.1875 7.44238C0.9375 7.04134 0.721354 6.58561 0.539062 6.0752C0.523438 6.02832 0.476562 5.90072 0.398438 5.69238C0.320312 5.48405 0.266927 5.33952 0.238281 5.25879C0.209635 5.17806 0.171875 5.05566 0.125 4.8916C0.078125 4.72754 0.0455729 4.5778 0.0273438 4.44238C0.00911458 4.30697 0 4.16895 0 4.02832C0 3.54915 0.132812 3.06478 0.398438 2.5752C0.690104 2.04915 0.966146 1.73145 1.22656 1.62207C1.35677 1.56478 1.53516 1.51009 1.76172 1.45801C1.98828 1.40592 2.17188 1.37988 2.3125 1.37988C2.38542 1.37988 2.4401 1.3877 2.47656 1.40332C2.57031 1.43457 2.70833 1.63249 2.89062 1.99707C2.94792 2.09603 3.02604 2.23665 3.125 2.41895C3.22396 2.60124 3.3151 2.7666 3.39844 2.91504C3.48177 3.06348 3.5625 3.2028 3.64062 3.33301C3.65625 3.35384 3.70182 3.41895 3.77734 3.52832C3.85286 3.6377 3.90885 3.73014 3.94531 3.80566C3.98177 3.88118 4 3.9554 4 4.02832C4 4.13249 3.92578 4.2627 3.77734 4.41895C3.62891 4.5752 3.46745 4.71842 3.29297 4.84863C3.11849 4.97884 2.95703 5.11686 2.80859 5.2627C2.66016 5.40853 2.58594 5.52832 2.58594 5.62207C2.58594 5.66895 2.59896 5.72754 2.625 5.79785C2.65104 5.86816 2.67318 5.92155 2.69141 5.95801C2.70964 5.99447 2.74609 6.05697 2.80078 6.14551C2.85547 6.23405 2.88542 6.28353 2.89062 6.29395C3.28646 7.00749 3.73958 7.61947 4.25 8.12988C4.76042 8.6403 5.3724 9.09342 6.08594 9.48926C6.09635 9.49447 6.14583 9.52441 6.23438 9.5791C6.32292 9.63379 6.38542 9.67025 6.42188 9.68848C6.45833 9.70671 6.51172 9.72884 6.58203 9.75488C6.65234 9.78092 6.71094 9.79395 6.75781 9.79395C6.85156 9.79395 6.97135 9.71973 7.11719 9.57129C7.26302 9.42285 7.40104 9.26139 7.53125 9.08691C7.66146 8.91243 7.80469 8.75098 7.96094 8.60254C8.11719 8.4541 8.2474 8.37988 8.35156 8.37988C8.42448 8.37988 8.4987 8.39811 8.57422 8.43457C8.64974 8.47103 8.74219 8.52702 8.85156 8.60254C8.96094 8.67806 9.02604 8.72363 9.04688 8.73926C9.17708 8.81738 9.31641 8.89811 9.46484 8.98145C9.61328 9.06478 9.77865 9.15592 9.96094 9.25488C10.1432 9.35384 10.2839 9.43197 10.3828 9.48926C10.7474 9.67155 10.9453 9.80957 10.9766 9.90332C10.9922 9.93978 11 9.99447 11 10.0674Z" fill="white"/>
</svg>
