<svg width="11" height="11" viewBox="0 0 11 11" fill="none" xmlns="http://www.w3.org/2000/svg">
<path d="M10.8753 8.58906C10.8753 8.72807 10.8496 8.90959 10.7981 9.13362C10.7466 9.35755 10.6925 9.53393 10.6359 9.66265C10.5277 9.9201 10.2136 10.1931 9.69357 10.4814C9.20953 10.7441 8.73065 10.8754 8.25691 10.8754C8.11788 10.8754 7.98143 10.8664 7.84754 10.8483C7.71366 10.8303 7.56561 10.7981 7.40341 10.7518C7.24121 10.7054 7.1202 10.668 7.04038 10.6398C6.96057 10.6115 6.81768 10.5587 6.61171 10.4814C6.40574 10.4042 6.27958 10.3578 6.23324 10.3424C5.7286 10.1621 5.27804 9.94848 4.88154 9.70131C4.22758 9.29447 3.54787 8.73835 2.84242 8.03292C2.13696 7.32746 1.58084 6.64776 1.17404 5.99379C0.926875 5.5973 0.713179 5.14673 0.532953 4.64211C0.517506 4.59576 0.471161 4.4696 0.393922 4.26363C0.316682 4.05766 0.263902 3.91476 0.23558 3.83495C0.207259 3.75513 0.169927 3.63412 0.123583 3.47192C0.0772396 3.30972 0.0450564 3.16168 0.0270339 3.02779C0.00901128 2.89392 0 2.75746 0 2.61842C0 2.14468 0.131307 1.6658 0.393922 1.18177C0.682283 0.661685 0.955196 0.347586 1.21266 0.239445C1.34139 0.182804 1.51776 0.128734 1.74175 0.0772445C1.96575 0.0257449 2.14727 0 2.28629 0C2.35839 0 2.41245 0.00773138 2.44849 0.0231743C2.54118 0.0540702 2.67764 0.249747 2.85786 0.610195C2.91451 0.708034 2.99174 0.84706 3.08958 1.02729C3.18742 1.20752 3.27753 1.371 3.35992 1.51776C3.44231 1.66452 3.52213 1.80226 3.59936 1.93099C3.61481 1.95159 3.65987 2.01596 3.73453 2.12409C3.80919 2.23223 3.86455 2.32362 3.9006 2.39829C3.93664 2.47295 3.95467 2.54633 3.95467 2.61842C3.95467 2.72141 3.88129 2.85015 3.73453 3.00463C3.58778 3.15911 3.42815 3.3007 3.25565 3.42944C3.08315 3.55817 2.92352 3.69463 2.77676 3.83881C2.63001 3.98299 2.55663 4.10142 2.55663 4.19411C2.55663 4.24046 2.56951 4.29839 2.59525 4.3679C2.621 4.43741 2.64288 4.4902 2.66091 4.52624C2.67893 4.56229 2.71497 4.62408 2.76904 4.71162C2.82311 4.79916 2.85272 4.84808 2.85786 4.85838C3.24921 5.56383 3.6972 6.16887 4.20183 6.6735C4.70647 7.17814 5.31151 7.62612 6.01697 8.01747C6.02726 8.02262 6.07618 8.05223 6.16372 8.10629C6.25126 8.16037 6.31305 8.19641 6.3491 8.21444C6.38514 8.23246 6.43792 8.25434 6.50743 8.28008C6.57695 8.30583 6.63488 8.31871 6.68122 8.31871C6.77391 8.31871 6.89234 8.24533 7.03653 8.09857C7.18071 7.95182 7.31716 7.79219 7.4459 7.61968C7.57463 7.44718 7.71624 7.28756 7.87072 7.1408C8.0252 6.99405 8.15393 6.92067 8.25691 6.92067C8.329 6.92067 8.40238 6.93869 8.47705 6.97474C8.55171 7.01078 8.64311 7.06614 8.75124 7.1408C8.85938 7.21547 8.92375 7.26052 8.94435 7.27597C9.07307 7.35321 9.21082 7.43302 9.35757 7.51542C9.50433 7.5978 9.66783 7.68791 9.84805 7.78575C10.0282 7.88359 10.1673 7.96083 10.2651 8.01747C10.6256 8.1977 10.8213 8.33415 10.8522 8.42684C10.8676 8.46289 10.8753 8.51696 10.8753 8.58906Z" fill="#3DA4C2"/>
</svg>
