<svg width="41" height="41" viewBox="0 0 41 41" fill="none" xmlns="http://www.w3.org/2000/svg">
<path d="M30.2359 12.8141C30.1649 12.7431 30.0806 12.6867 29.9877 12.6482C29.8949 12.6097 29.7955 12.5899 29.695 12.5899C29.5945 12.5899 29.4951 12.6097 29.4023 12.6482C29.3095 12.6867 29.2252 12.7431 29.1542 12.8141L25.105 16.8633L21.5967 13.355L25.6459 9.30585C25.9447 9.00699 25.9447 8.523 25.6459 8.22414C25.347 7.92529 24.863 7.92529 24.5642 8.22414L20.515 12.2733L18.7609 10.5191C18.474 10.2323 17.966 10.2323 17.6792 10.5191L14.8818 13.317C13.5811 14.6167 12.865 16.3456 12.865 18.1847V21.453L10.0292 24.2891C9.95809 24.3601 9.90171 24.4444 9.86324 24.5372C9.82477 24.63 9.80497 24.7295 9.80497 24.83C9.80497 24.9304 9.82477 25.0299 9.86324 25.1227C9.90171 25.2155 9.95809 25.2998 10.0292 25.3708L11.0183 26.3602L9.89835 27.4807C9.62528 27.7519 9.40879 28.0745 9.26145 28.43C9.1141 28.7855 9.03884 29.1667 9.04002 29.5516C9.04002 31.166 10.3538 32.48 11.969 32.48H18.985C19.1879 32.48 19.3825 32.3994 19.526 32.2559C19.6694 32.1125 19.75 31.9179 19.75 31.715C19.75 31.5121 19.6694 31.3175 19.526 31.174C19.3825 31.0306 19.1879 30.95 18.985 30.95H11.969C11.5981 30.9496 11.2426 30.8021 10.9804 30.54C10.7181 30.2778 10.5706 29.9224 10.57 29.5516C10.57 29.1833 10.7195 28.8233 10.9798 28.5624L12.1 27.4417L13.0892 28.4308C13.2386 28.5803 13.4342 28.655 13.63 28.655C13.8259 28.655 14.0214 28.5803 14.1709 28.4308L17.0067 25.595H20.2753C22.1141 25.595 23.843 24.8792 25.1435 23.5787L27.9409 20.7808C28.0119 20.7098 28.0683 20.6255 28.1068 20.5327C28.1453 20.4399 28.1651 20.3405 28.1651 20.24C28.1651 20.1395 28.1453 20.0401 28.1068 19.9473C28.0683 19.8544 28.0119 19.7701 27.9409 19.6991L26.1867 17.945L30.2359 13.8959C30.3069 13.8249 30.3633 13.7405 30.4018 13.6477C30.4403 13.5549 30.4601 13.4555 30.4601 13.355C30.4601 13.2545 30.4403 13.1551 30.4018 13.0623C30.3633 12.9695 30.3069 12.8851 30.2359 12.8141ZM13.63 26.8083L11.6517 24.83L13.63 22.8517L15.6083 24.83L13.63 26.8083ZM24.0618 22.497C23.5655 22.9955 22.9754 23.3908 22.3255 23.6599C21.6756 23.9291 20.9788 24.0667 20.2753 24.065H17.0067L14.395 21.4533V18.1847C14.395 16.7541 14.9519 15.41 15.9635 14.3985L18.22 12.1417L26.3183 20.24L24.0618 22.497Z" fill="#3E96F4"/>
<circle cx="20.5" cy="20.5" r="20" stroke="#3E96F4"/>
</svg>
