<svg width="197" height="50" viewBox="0 0 197 50" fill="none" xmlns="http://www.w3.org/2000/svg">
<path d="M51.2087 24.8693H43.68V17.2978H51.6174C54.5227 17.2978 55.9754 18.5792 55.9754 21.1426C55.9754 23.6275 54.3858 24.8706 51.2087 24.8706M56.6197 17.2096C55.5816 16.2857 54.1445 15.8237 52.2896 15.8237L41.5078 15.8834V33.9979H43.68L43.6605 26.2863H51.6836C53.6949 26.2863 55.2792 25.8243 56.4348 24.9004C57.5903 23.9766 58.1684 22.6945 58.1684 21.055C58.1684 19.4155 57.6526 18.1341 56.621 17.2096H56.6197ZM70.6805 30.194C70.4727 30.7866 70.118 31.3168 69.6495 31.7349C68.6763 32.6848 67.1919 33.159 65.1949 33.159C63.3912 33.159 62.008 32.7049 61.0425 31.7745C60.0771 30.8441 59.5938 29.6159 59.5938 28.0679C59.5938 27.2621 59.7203 26.5465 59.9727 25.9223C60.2251 25.2982 60.5916 24.7713 61.0717 24.3418C62.0709 23.4316 63.4451 22.9761 65.1955 22.9761C69.0727 22.9761 71.012 24.6734 71.012 28.0679C71.012 28.8744 70.9017 29.5828 70.6876 30.194M71.0814 23.5114C69.7579 22.3046 67.7985 21.6947 65.202 21.6947C62.7495 21.6947 60.8537 22.3111 59.5172 23.5438C58.3104 24.6597 57.7006 26.165 57.7006 28.0608C57.7006 29.9423 58.3234 31.4605 59.5691 32.6153C60.2568 33.2382 61.0581 33.6897 61.9736 33.9687C62.889 34.2477 63.9628 34.3872 65.1955 34.3872C67.7777 34.3872 69.7371 33.7903 71.0944 32.5965C72.3012 31.5065 72.9111 30.0013 72.9111 28.0601C72.9111 26.1137 72.3012 24.5955 71.0814 23.5042V23.5114ZM87.5078 30.7176C87.5078 33.1558 85.3233 34.3749 80.9549 34.3749C79.6196 34.3749 78.4946 34.2905 77.5811 34.1206C76.6676 33.9506 75.9247 33.6696 75.3544 33.2784C74.9143 32.9807 74.5536 32.5797 74.304 32.1106C74.0445 31.6305 73.8758 31.0271 73.798 30.2939L75.8307 30.2745C75.8307 31.2347 76.1862 31.9406 76.8979 32.3947C77.6616 32.9397 79.013 33.2122 80.9549 33.2122C84.0081 33.2122 85.5354 32.4466 85.5354 30.9168C85.5354 30.0214 85.0164 29.4064 83.9991 29.0677C83.7914 29.0028 82.5568 28.8309 80.3009 28.5525C78.045 28.2742 76.6287 28.0238 76.072 27.8032C74.8665 27.3231 74.2638 26.4602 74.2638 25.2158C74.2638 23.996 74.8023 23.0877 75.8858 22.4921C76.4178 22.2456 77.0828 22.0548 77.8815 21.9179C78.6802 21.781 79.6047 21.7135 80.6558 21.7135C84.8613 21.7135 86.9641 23.0332 86.9641 25.6712H85.0306C85.0306 23.8157 83.5514 22.8814 80.5961 22.8814C79.0922 22.8814 77.9704 23.076 77.2314 23.4458C76.4924 23.8157 76.1233 24.3996 76.1233 25.1781C76.1233 25.9048 76.6228 26.4303 77.6207 26.7547C78.2046 26.9234 79.5463 27.118 81.6472 27.3386C83.5274 27.5073 84.8178 27.7474 85.5179 28.0523C86.8544 28.5714 87.5214 29.4537 87.5214 30.6975L87.5078 30.7176ZM95.4919 34.0219L94.6647 34.1387L94.1489 34.1776C92.8253 34.1776 91.8781 33.9862 91.2857 33.6022C90.6934 33.2181 90.4079 32.5466 90.4079 31.5909V23.3154H88.0034V22.0996H90.3956L90.415 18.1938H92.268V22.0996H95.4951V23.3349L92.268 23.3154V31.3586C92.268 31.9575 92.427 32.3707 92.7449 32.5913C93.0628 32.8119 93.6298 32.9326 94.4473 32.9326C94.5641 32.9456 94.6939 32.9417 94.8366 32.9196C95.0529 32.8811 95.2673 32.8322 95.4789 32.773L95.4984 34.0057L95.4919 34.0219ZM108.309 31.2775C107.803 31.6927 107.227 32.0094 106.579 32.2312C105.93 32.4531 105.185 32.5556 104.343 32.5556C100.467 32.5556 98.5296 30.9551 98.5296 27.7545C98.5296 26.2642 99.0253 25.0977 100.017 24.2549C101.009 23.4121 102.405 22.991 104.207 22.991C106.022 22.991 107.399 23.416 108.339 24.2646C109.278 25.1133 109.749 26.2513 109.749 27.6773C109.749 29.2325 109.269 30.4315 108.31 31.2736M111.602 22.1028H109.749L109.73 24.1465C108.912 23.3161 108.328 22.7925 107.978 22.5719C106.94 22.001 105.598 21.7168 103.951 21.7168C101.539 21.7168 99.6961 22.2683 98.4258 23.3699C97.219 24.3821 96.6169 25.8464 96.6169 27.7649C96.6169 28.7122 96.7694 29.5569 97.0743 30.2952C97.3793 31.0336 97.8243 31.6726 98.4089 32.191C99.6819 33.2538 101.481 33.7858 103.807 33.7858C106.599 33.7858 108.58 33.0221 109.75 31.4942V33.6093C109.75 34.9588 109.325 36.0021 108.476 36.7417C107.626 37.4813 106.229 37.8447 104.283 37.8447C102.454 37.8447 101.151 37.5851 100.373 37.0895C99.7889 36.7021 99.3867 36.0306 99.1661 35.0749H97.2586C97.4662 36.4095 98.0371 37.3749 98.9455 37.9705C100.009 38.657 101.8 39.0002 104.331 39.0002C109.171 39.0002 111.597 37.2011 111.597 33.6022V22.108L111.602 22.1028ZM121.626 23.305C121.068 23.2142 120.551 23.1753 120.072 23.1753C117.026 23.1753 115.503 24.846 115.503 28.186V33.9953H113.669L113.65 22.108L115.504 22.1262V24.2478H115.601C115.912 23.4121 116.405 22.7782 117.079 22.3468C117.817 21.9289 118.919 21.72 120.384 21.72H121.628V23.3161L121.626 23.305ZM123.35 27.3004C123.584 25.9496 124.109 24.9037 124.925 24.1628C125.457 23.7346 126.06 23.4121 126.734 23.198C127.407 22.9839 128.161 22.8762 129.01 22.8762C130.656 22.8762 131.994 23.3278 133.045 24.2309C134.096 25.134 134.61 26.1578 134.61 27.2997L123.35 27.3004ZM134.79 23.6327C134.142 22.9819 133.337 22.5012 132.377 22.1885C131.417 21.8757 130.301 21.72 129.003 21.72C126.603 21.72 124.74 22.278 123.416 23.3939C122.091 24.5099 121.43 26.0281 121.43 27.9498C121.43 29.8716 122.066 31.3885 123.338 32.5239C124.713 33.7696 126.647 34.3924 129.156 34.3924C130.155 34.3924 131.079 34.2789 131.929 34.0531C132.778 33.8273 133.521 33.5068 134.157 33.0929C135.272 32.2916 135.978 31.3022 136.278 30.1278H134.275C133.587 32.1605 131.876 33.1772 129.14 33.1772C127.208 33.1772 125.723 32.6802 124.686 31.6863C123.791 30.8344 123.344 29.7308 123.344 28.3748H136.556C136.556 26.3583 135.972 24.7772 134.785 23.6385L134.79 23.6327Z" fill="#231F20"/>
<path d="M156.138 29.1404C156.138 32.6698 153.292 34.4346 147.598 34.4346C144.188 34.4346 141.698 33.8267 140.129 32.6179C138.844 31.6188 138.203 30.0954 138.203 28.0452H140.495C140.495 31.3398 142.863 32.9871 147.598 32.9871C149.869 32.9871 151.51 32.6497 152.529 31.9763C153.385 31.3807 153.813 30.4471 153.813 29.1774C153.813 27.92 153.229 27.0389 152.062 26.5328C151.4 26.2603 149.791 25.9165 147.215 25.5025C143.984 25.0095 141.89 24.5177 140.929 24.0252C139.541 23.2986 138.853 22.0678 138.853 20.331C138.853 18.7109 139.437 17.5054 140.624 16.7145C141.896 15.8465 144.076 15.4118 147.163 15.4118C152.743 15.4118 155.533 17.2647 155.533 20.9707H153.221C153.221 18.1938 151.149 16.8067 147.007 16.8067C144.929 16.8067 143.409 17.0857 142.448 17.6501C141.539 18.247 141.086 19.1229 141.086 20.2778C141.086 21.4845 141.67 22.3345 142.838 22.8275C143.46 23.113 145.29 23.5088 148.326 24.0148C151.181 24.4431 153.108 24.9426 154.101 25.5071C155.463 26.2078 156.144 27.4211 156.144 29.1404H156.138ZM174.758 30.9414C173.902 31.6272 172.934 32.1417 171.856 32.4856C170.779 32.8294 169.571 33.0001 168.234 33.0001C165.506 33.0001 163.303 32.265 161.62 30.7955C159.937 29.3259 159.098 27.3672 159.098 24.9193C159.098 22.3682 159.931 20.3803 161.6 18.9555C163.269 17.5307 165.48 16.819 168.233 16.819C171.025 16.819 173.22 17.5638 174.817 19.0528C175.66 19.7795 176.283 20.6268 176.687 21.5981C177.09 22.5693 177.29 23.6768 177.29 24.9199C177.29 27.458 176.445 29.4654 174.757 30.9408M175.976 32.1424C177.169 31.3002 178.053 30.2803 178.625 29.0813C179.196 27.8823 179.482 26.4991 179.482 24.9303C179.482 22.1178 178.548 19.8697 176.68 18.1646C175.68 17.2316 174.474 16.5381 173.059 16.0846C171.645 15.631 170.029 15.4033 168.213 15.4033C164.683 15.4033 161.919 16.2597 159.908 17.9693C157.897 19.6789 156.891 21.9997 156.891 24.929C156.891 27.7798 157.906 30.0805 159.936 31.8296C161.966 33.5788 164.739 34.454 168.254 34.454C169.629 34.454 170.828 34.3613 171.852 34.1751C172.877 33.9889 173.747 33.7034 174.461 33.3186L177.846 35.6654L179.261 34.3665L175.982 32.143L175.976 32.1424ZM196.64 33.996H180.974V15.8555L183.127 15.8166V32.4759H196.653L196.633 33.9902L196.64 33.996Z" fill="#367FAF"/>
<path d="M26.6511 30.9507C26.8691 29.413 26.8036 29.1872 28.155 29.4364L28.4989 29.4623C29.5383 29.5025 30.8975 29.3209 31.6962 29.0062C33.4155 28.3301 34.4341 27.2012 32.7394 27.4977C28.8726 28.1738 28.6066 27.063 28.6066 27.063C32.6895 21.9278 34.3965 15.4086 32.9237 13.8126C28.8979 9.46108 21.9492 11.5191 21.826 11.5729L21.789 11.5794C21.0247 11.4451 20.1696 11.3653 19.2094 11.3523C17.4595 11.3277 16.1321 11.7416 15.1245 12.3885C15.1245 12.3885 2.71555 8.05448 3.29298 17.8384C3.41625 19.9197 6.81272 33.5867 10.8632 29.4584C12.3437 27.9487 13.775 26.6725 13.775 26.6725C14.5213 27.0904 15.3758 27.2753 16.2281 27.2032L16.2969 27.1532C16.2755 27.3414 16.2839 27.523 16.3248 27.741C15.2815 28.7292 15.5877 28.9024 13.5012 29.267C11.3907 29.6355 12.6305 30.2921 13.4402 30.4641C14.4219 30.6717 16.6927 30.9669 18.2271 29.147L18.1661 29.3546C18.5748 29.6323 18.5476 31.3497 18.606 32.5772C18.6644 33.8047 18.7617 34.9499 19.0562 35.6253C19.3508 36.3007 19.6998 38.0388 22.4417 37.5418C24.7332 37.1253 26.4856 36.5264 26.6459 30.9532" fill="#231F20"/>
<path d="M26.6511 30.9507C26.8691 29.413 26.8036 29.1872 28.155 29.4364L28.4989 29.4623C29.5383 29.5025 30.8975 29.3209 31.6962 29.0062C33.4155 28.3301 34.4341 27.2012 32.7394 27.4977C28.8726 28.1738 28.6066 27.063 28.6066 27.063C32.6895 21.9278 34.3965 15.4086 32.9237 13.8126C28.8979 9.46108 21.9492 11.5191 21.826 11.5729L21.789 11.5794C21.0247 11.4451 20.1696 11.3653 19.2094 11.3523C17.4595 11.3277 16.1321 11.7416 15.1245 12.3885C15.1245 12.3885 2.71555 8.05448 3.29298 17.8384C3.41625 19.9197 6.81272 33.5867 10.8632 29.4584C12.3437 27.9486 13.775 26.6725 13.775 26.6725C14.5213 27.0904 15.3758 27.2753 16.2281 27.2032L16.2969 27.1532C16.2755 27.3414 16.2839 27.523 16.3248 27.741C15.2815 28.7292 15.5877 28.9024 13.5012 29.267C11.3907 29.6355 12.6305 30.2921 13.4402 30.4641C14.4219 30.6717 16.6927 30.9669 18.2271 29.147L18.1661 29.3546C18.5748 29.6323 18.5476 31.3497 18.606 32.5772C18.6644 33.8047 18.7617 34.9499 19.0562 35.6253C19.3508 36.3007 19.6998 38.0388 22.4417 37.5418C24.7332 37.1253 26.4856 36.5264 26.6459 30.9532" stroke="#231F20" stroke-width="4.108"/>
<path d="M32.7401 27.4969C28.8732 28.173 28.6072 27.0622 28.6072 27.0622C32.6901 21.9263 34.3971 15.4072 32.9243 13.8118C28.9057 9.46026 21.9505 11.5189 21.8273 11.5728L21.7896 11.5792C21.0253 11.4449 20.1702 11.3651 19.2094 11.3522C17.4595 11.3282 16.1321 11.7414 15.1252 12.3883C15.1252 12.3883 2.71555 8.05431 3.29298 17.8382C3.41625 19.9196 6.81207 33.5872 10.8632 29.4582C12.3437 27.9485 13.7744 26.6723 13.7744 26.6723C14.5207 27.0902 15.3751 27.2751 16.2275 27.203L16.2969 27.153C16.2755 27.3412 16.2852 27.5229 16.3248 27.7409C15.2815 28.729 15.5877 28.9022 13.5025 29.2668C11.3913 29.6354 12.6318 30.2919 13.4415 30.4639C14.4232 30.6715 16.694 30.9667 18.2284 29.1468L18.1674 29.3544C18.5761 29.6321 18.8635 31.16 18.8162 32.5465C18.7688 33.933 18.7357 34.8822 19.0582 35.6257C19.3806 36.3693 19.7018 38.0393 22.4449 37.5423C24.7365 37.1258 25.9244 36.0475 26.0892 34.2477C26.206 32.9682 26.472 33.1577 26.4882 32.0139L26.701 31.4728C26.9463 29.7385 26.74 29.1793 28.1518 29.4394L28.4956 29.4654C29.535 29.5056 30.8949 29.3239 31.6929 29.0093C33.4122 28.3332 34.4309 27.2043 32.7362 27.5008L32.7401 27.4969Z" fill="#417BA2"/>
<path d="M18.3987 28.492C18.2923 31.7185 18.4246 34.9683 18.7977 35.7586C19.1708 36.5488 19.9681 38.0845 22.7113 37.5863C25.0028 37.1697 25.8365 36.3639 26.1979 34.5849C26.4574 33.2763 26.9784 29.641 27.0439 28.8969M15.1106 12.3148C15.1106 12.3148 2.68604 8.01328 3.26996 17.8017C3.39972 19.8831 6.78905 33.5507 10.8415 29.4153C12.322 27.9055 13.6605 26.7214 13.6605 26.7214M21.8256 11.5298C21.3955 11.644 28.7334 9.25638 32.9033 13.7727C34.376 15.3687 32.6697 21.8879 28.5861 27.0238" stroke="white" stroke-width="1.369" stroke-linecap="round" stroke-linejoin="round"/>
<path d="M28.5776 27.0234C28.5776 27.0234 28.8371 28.1328 32.7105 27.4568C34.4051 27.1603 33.3852 28.2892 31.6659 28.9659C30.2554 29.5206 27.0932 29.6627 27.0419 28.8965C26.9089 26.9176 28.7061 27.5191 28.5763 27.0234C28.4595 26.577 27.655 26.1391 27.123 25.0465C26.6591 24.0928 20.7583 16.7795 28.7593 17.8656C29.0525 17.8137 26.6721 11.4139 19.183 11.3101C11.6939 11.2063 11.9424 19.1152 11.9424 19.1152" stroke="white" stroke-width="1.369" stroke-linecap="round" stroke-linejoin="bevel"/>
<path d="M16.2994 27.7C15.2548 28.6881 15.5623 28.8613 13.4758 29.2259C11.3646 29.5958 12.6051 30.251 13.4148 30.423C14.3964 30.6306 16.6672 30.9258 18.2017 29.1046C18.6688 28.5499 18.1991 27.6643 17.5574 27.4398C17.2473 27.3308 16.8327 27.1945 16.2987 27.6993L16.2994 27.7Z" stroke="white" stroke-width="1.369" stroke-linejoin="round"/>
<path d="M16.232 27.6828C16.1269 27.1014 16.4571 26.4111 16.8114 25.6014C17.3434 24.3881 18.5709 23.1736 17.5899 19.323C16.8581 16.4533 11.9473 18.7261 11.9454 19.1153C11.9434 19.5046 12.1672 21.0877 11.863 22.9303C11.4659 25.336 13.6686 27.37 16.2047 27.1624" stroke="white" stroke-width="1.369" stroke-linecap="round" stroke-linejoin="round"/>
<path d="M15.0675 19.0563C15.0455 19.1893 15.3549 19.5429 15.7578 19.5909C16.1607 19.6389 16.504 19.3612 16.5267 19.2289C16.5494 19.0965 16.2399 18.9499 15.8363 18.9019C15.4328 18.8539 15.0889 18.9239 15.0675 19.0563Z" fill="white" stroke="white" stroke-width="0.456"/>
<path d="M27.3242 18.7857C27.3463 18.9187 27.0374 19.2723 26.6339 19.3203C26.2303 19.3683 25.8865 19.0906 25.8644 18.957C25.8423 18.8233 26.1518 18.678 26.5547 18.63C26.9576 18.582 27.3008 18.6514 27.3235 18.7844L27.3242 18.7857Z" fill="white" stroke="white" stroke-width="0.228"/>
<path d="M28.762 17.8652C28.8282 18.9079 28.4973 19.617 28.4551 20.7277C28.3935 22.3407 29.3621 24.1858 27.9023 26.0349" stroke="white" stroke-width="1.369" stroke-linecap="round" stroke-linejoin="round"/>
</svg>
