<svg width="62" height="57" viewBox="0 0 62 57" fill="none" xmlns="http://www.w3.org/2000/svg">
<path d="M31.229 0L7.84966 21.931L24.5048 39.8276C20.88 24.8131 26.3524 13.711 29.7662 8.60483C27.891 8.66536 26.0256 8.90157 24.1945 9.31035C26.097 8.82376 28.0335 8.48141 29.9876 8.2862C30.6425 7.3001 31.3686 6.36313 32.16 5.48276C31.6779 6.40552 31.2352 7.32 30.8234 8.22414C33.5793 8.07103 36.2276 8.44345 36.6165 10.3448C36.6165 10.3448 37.8579 13.8621 27.9269 18C27.9269 18 35.3752 14.2759 34.9614 10.9655C34.9614 10.9655 35.0731 8.80345 30.6538 8.61518C21.4986 29.22 30.5048 44.7931 30.5048 44.7931L52.7462 23.3793L31.229 0Z" fill="#003C8B"/>
<path d="M4.02207 51.3848C4.02207 52.3986 3.52759 53.0234 2.53862 53.2593C1.91386 53.3623 1.28042 53.4032 0.647587 53.3814H0.738622V56.8366H0V49.4048H0.858626C1.43403 49.384 2.01006 49.4215 2.57794 49.5166C2.99778 49.6086 3.37239 49.8442 3.63724 50.1828C3.89776 50.5284 4.03342 50.9521 4.02207 51.3848ZM3.25862 51.3848C3.2582 51.1438 3.18619 50.9083 3.05172 50.7083C2.92537 50.5077 2.73839 50.3526 2.51793 50.2655C2.16482 50.1589 1.79595 50.1141 1.42759 50.1331H0.732409V52.6552L1.37173 52.6697C2.22828 52.6807 2.78758 52.4841 3.04965 52.08C3.18539 51.8739 3.25538 51.6315 3.25035 51.3848H3.25862Z" fill="#003C8B"/>
<path d="M12.8359 56.8366H11.9234L9.24621 53.3814H9.23379V56.8366H8.49724V49.4048H9.56276C10.124 49.3867 10.6857 49.4206 11.2407 49.5062C11.6711 49.591 12.0573 49.8261 12.3302 50.1695C12.6032 50.5129 12.745 50.9423 12.7304 51.3807C12.7304 52.229 12.3621 52.8145 11.6255 53.1372C11.1565 53.3165 10.6562 53.3995 10.1545 53.3814L12.8359 56.8366ZM11.9628 51.3807C11.9612 51.1411 11.8892 50.9073 11.7559 50.7083C11.6285 50.51 11.4416 50.3572 11.2221 50.2717C10.8664 50.1639 10.4947 50.1184 10.1234 50.1372H9.22345V52.6552H10.0924C10.9407 52.6552 11.4952 52.4648 11.7476 52.0614C11.8835 51.86 11.9583 51.6236 11.9628 51.3807Z" fill="#003C8B"/>
<path d="M50.9048 56.8366H49.9924L47.3152 53.3814H47.3027V56.8366H46.5662V49.4048H47.6317C48.193 49.3867 48.7547 49.4206 49.3097 49.5062C49.7401 49.591 50.1263 49.8261 50.3992 50.1695C50.6721 50.5129 50.814 50.9423 50.7993 51.3807C50.7993 52.229 50.431 52.8145 49.6945 53.1372C49.2255 53.3165 48.7252 53.3995 48.2234 53.3814L50.9048 56.8366ZM50.0317 51.3807C50.0301 51.1411 49.9582 50.9073 49.8248 50.7083C49.6975 50.51 49.5106 50.3572 49.291 50.2717C48.9353 50.1639 48.5636 50.1184 48.1924 50.1372H47.2924V52.6552H48.1614C49.0096 52.6552 49.5641 52.4648 49.8165 52.0614C49.9525 51.86 50.0272 51.6236 50.0317 51.3807Z" fill="#003C8B"/>
<path d="M22.9531 56.8366H22.1566L20.9876 54.391H17.7869L16.6241 56.8366H15.7965L19.3138 49.4048L19.4069 49.1979L19.4938 49.4048L22.9531 56.8366ZM20.6607 53.669L19.3986 50.9793L18.12 53.669H20.6607Z" fill="#003C8B"/>
<path d="M33.1097 57L32.9441 56.8324L27.4179 51.2152V56.8324H26.6545V49.2331L26.8159 49.4048L32.3669 55.0924V49.4048H33.1034L33.1097 57Z" fill="#003C8B"/>
<path d="M42.1448 50.1434H38.6276V52.4483H42.1179V53.1807H38.6255V56.0897H42.1159V56.8283H37.8869V49.4048H42.1448V50.1434Z" fill="#003C8B"/>
<path d="M61.4524 56.8366H60.6538L59.4869 54.391H56.2841L55.1255 56.8366H54.2979L57.8152 49.4048L57.9083 49.1979L57.9972 49.4048L61.4524 56.8366ZM59.1579 53.669L57.8959 50.9793L56.6172 53.669H59.1579Z" fill="#003C8B"/>
</svg>
