<svg width="64" height="64" viewBox="0 0 64 64" fill="none" xmlns="http://www.w3.org/2000/svg">
<path d="M0 8C0 3.58172 3.58172 0 8 0H56C60.4183 0 64 3.58172 64 8V56C64 60.4183 60.4183 64 56 64H8C3.58172 64 0 60.4183 0 56V8Z" fill="white"/>
<path fill-rule="evenodd" clip-rule="evenodd" d="M33.1109 40.409L27.4377 46.0114C26.7767 46.6642 25.6983 46.6642 25.0372 46.0114L14.4957 35.6017C13.8348 34.9488 13.8348 33.8841 14.4957 33.2313L31.4475 16.4913C31.8004 16.1428 32.2392 15.9767 32.7375 16.0026L40.7865 16.423C41.8197 16.477 42.7381 16.6772 43.4695 17.3997C44.2011 18.1219 44.4037 19.0289 44.4585 20.0491L44.7093 24.7327C44.804 24.7369 44.8994 24.7389 44.9954 24.7389C47.5866 24.7389 49.7528 23.2042 49.7528 21.2067C49.7528 19.2563 47.6877 17.7472 45.1781 17.677C44.9777 17.2653 44.7088 16.8817 44.3515 16.5287C44.333 16.5105 44.3144 16.4925 44.2958 16.4747C44.5284 16.4534 44.7618 16.4428 44.9954 16.4428C48.3486 16.4428 51 18.6218 51 21.2067C51 23.7915 48.3486 25.9706 44.9954 25.9706C41.6421 25.9706 38.9907 23.7916 38.9907 21.2067C38.9907 20.8669 39.2701 20.5909 39.6143 20.5909C39.9584 20.5909 40.2379 20.8669 40.2379 21.2067C40.2379 21.7526 40.3997 22.2639 40.6877 22.7187C41.1693 22.3848 41.4841 21.8321 41.4841 21.2067C41.4841 20.187 40.647 19.3604 39.6143 19.3604C38.6757 19.3604 37.8986 20.0434 37.7649 20.9335C37.75 21.0238 37.7429 21.1153 37.7434 21.2068C37.7434 21.594 37.7901 21.976 37.8795 22.3483C38.5138 24.9891 41.2995 27.1403 44.8415 27.201L44.8842 27.9976C44.9107 28.4896 44.7422 28.923 44.3895 29.2714L44.347 29.3133C43.4334 28.7715 42.3692 28.4602 41.2367 28.4602C39.8396 28.4602 38.5461 28.9341 37.5108 29.7298C36.9675 26.5419 34.1469 24.099 30.7686 24.099C27.004 24.099 23.932 27.1326 23.932 30.8502C23.932 34.5678 27.004 37.6015 30.7686 37.6015C31.5793 37.6022 32.3836 37.4595 33.1433 37.1801C33.1217 37.3016 33.1108 37.4246 33.1109 37.5479V40.409ZM30.152 26.9893V26.5774C30.152 26.2412 30.4283 25.9684 30.7686 25.9684C31.109 25.9684 31.3853 26.2412 31.3853 26.5774V26.9824C32.2022 27.1449 32.9616 27.6508 33.3497 28.5624C33.413 28.7113 33.4138 28.879 33.3521 29.0285C33.2903 29.178 33.1709 29.2972 33.0202 29.3599C32.8694 29.4224 32.6996 29.4232 32.5482 29.3622C32.3968 29.3012 32.2762 29.1833 32.2127 29.0345C31.8414 28.1621 30.8525 27.9829 30.1418 28.2593C29.7274 28.4203 29.3963 28.7514 29.4198 29.232C29.4386 29.6098 29.6848 29.8264 29.9798 29.9688C30.2556 30.102 30.5745 30.1769 30.8747 30.2257C32.0711 30.4189 33.389 30.9519 33.5627 32.3565L33.5628 32.3573C33.732 33.7418 32.578 34.5299 31.3853 34.7272V35.1231C31.3853 35.4591 31.109 35.732 30.7686 35.732C30.4283 35.732 30.152 35.4591 30.152 35.1231V34.7184C29.1325 34.5289 28.2464 33.8799 27.9775 32.8132C27.8953 32.4871 28.0966 32.1564 28.4269 32.0752C28.5856 32.0363 28.7535 32.0611 28.8936 32.1443C29.0338 32.2276 29.1347 32.3623 29.1743 32.519C29.3602 33.2565 30.1135 33.575 30.8431 33.5581C31.2335 33.549 31.6679 33.4525 31.9881 33.2345C32.2213 33.0758 32.3791 32.838 32.3384 32.5037C32.2858 32.0796 31.9941 31.8453 31.6538 31.6929C31.3478 31.5558 31.0006 31.4801 30.6756 31.4276L30.675 31.4275C29.5065 31.2375 28.2558 30.663 28.1879 29.2913V29.2909C28.1367 28.245 28.7882 27.4766 29.69 27.126C29.8399 27.0679 29.9944 27.0222 30.152 26.9893ZM46.1337 35.4338H43.8916V34.5892C43.8916 33.1275 42.6927 31.9257 41.2367 31.9257C39.7806 31.9257 38.5817 33.1275 38.5817 34.5892V35.4338H36.3375V34.5892C36.3375 31.8883 38.5423 29.6781 41.2367 29.6781C43.931 29.6781 46.1337 31.8883 46.1337 34.5892V35.4338ZM35.2403 36.6517H47.233C47.7267 36.6517 48.127 37.0551 48.127 37.5479V47.1039C48.127 47.5988 47.7267 48 47.233 48H35.2403C34.7467 48 34.3442 47.5988 34.3442 47.1039V37.5479C34.3442 37.0551 34.7467 36.6517 35.2403 36.6517ZM38.4321 42.6156L40.1056 44.2681C40.1628 44.3246 40.2308 44.3695 40.3056 44.4001C40.3805 44.4307 40.4607 44.4465 40.5416 44.4465C40.6226 44.4465 40.7028 44.4307 40.7777 44.4001C40.8525 44.3695 40.9204 44.3246 40.9777 44.2681L44.0391 41.2449C44.1547 41.1306 44.2197 40.9758 44.2197 40.8143C44.2197 40.6528 44.1547 40.4979 44.0391 40.3837C43.9235 40.2695 43.7666 40.2054 43.6031 40.2054C43.4396 40.2054 43.2827 40.2695 43.167 40.3837L40.5416 42.9763L39.3042 41.7544C39.0636 41.5167 38.6728 41.5167 38.4321 41.7544C38.1915 41.992 38.1915 42.3779 38.4321 42.6156Z" fill="#3E96F4"/>
</svg>
