<svg width="48" height="48" viewBox="0 0 48 48" fill="none" xmlns="http://www.w3.org/2000/svg">
<rect width="48" height="48" rx="24" fill="#0089FF"/>
<path d="M33.4166 20.5H31.6666V18.1666C31.6666 13.6635 28.0032 10 23.5 10C18.9968 10 15.3334 13.6635 15.3334 18.1666V20.5H13.5834C13.5067 20.4999 13.4309 20.515 13.3601 20.5443C13.2893 20.5736 13.2249 20.6166 13.1707 20.6707C13.1166 20.7249 13.0736 20.7893 13.0443 20.8601C13.015 20.9309 12.9999 21.0067 13 21.0834V35.6667C13 36.9536 14.0464 38 15.3334 38H31.6667C32.9536 38 34 36.9536 34 35.6666V21.0834C34 21.0067 33.985 20.9309 33.9557 20.8601C33.9264 20.7893 33.8834 20.7249 33.8293 20.6707C33.7751 20.6166 33.7107 20.5736 33.6399 20.5443C33.5691 20.515 33.4933 20.4999 33.4166 20.5ZM25.2466 32.6856C25.2556 32.7672 25.2474 32.8497 25.2223 32.9278C25.1973 33.006 25.1561 33.0779 25.1014 33.1391C25.0467 33.2002 24.9797 33.2491 24.9048 33.2826C24.8299 33.316 24.7487 33.3333 24.6667 33.3334H22.3334C22.2513 33.3333 22.1702 33.316 22.0953 33.2826C22.0204 33.2491 21.9534 33.2002 21.8987 33.1391C21.844 33.0779 21.8027 33.006 21.7777 32.9278C21.7527 32.8497 21.7444 32.7672 21.7534 32.6856L22.1214 29.3765C21.5239 28.9418 21.1667 28.2542 21.1667 27.5C21.1667 26.2131 22.2131 25.1666 23.5001 25.1666C24.787 25.1666 25.8334 26.2131 25.8334 27.5C25.8334 28.2542 25.4762 28.9418 24.8787 29.3765L25.2466 32.6856ZM28.1666 20.5H18.8334V18.1666C18.8334 15.5935 20.9268 13.5 23.5 13.5C26.0732 13.5 28.1666 15.5935 28.1666 18.1666V20.5Z" fill="white"/>
</svg>
