<svg width="160" height="160" viewBox="0 0 160 160" fill="none" xmlns="http://www.w3.org/2000/svg">
<mask id="mask0_2642_4123" style="mask-type:alpha" maskUnits="userSpaceOnUse" x="0" y="0" width="160" height="160">
<rect width="160" height="160" fill="#F5F9FF"/>
</mask>
<g mask="url(#mask0_2642_4123)">
<path d="M80 138C69.5082 138 22 114.93 22 47.0643C39.1204 47.0643 44.5474 35.3711 46.2771 27.9554C46.6749 26.2581 47.6357 24.7455 49.003 23.6641C50.3703 22.5827 52.0635 21.9961 53.8067 22H106.203C107.946 21.998 109.639 22.5852 111.006 23.6664C112.372 24.7475 113.334 26.259 113.733 27.9554C115.452 35.3711 120.88 47.0643 138 47.0643C138 113.93 90.4918 138 80 138Z" stroke="#7886ED" stroke-width="4" stroke-linecap="round" stroke-linejoin="round"/>
<path d="M65.0136 65.313H95.0494C96.5656 65.313 98.0198 65.9153 99.092 66.9875C100.164 68.0597 100.766 69.5138 100.766 71.0301V91.123C100.766 95.2653 99.121 99.2379 96.1919 102.167C93.2629 105.096 89.2902 106.742 85.1479 106.742H74.9565C70.8142 106.742 66.8416 105.096 63.9125 102.167C60.9835 99.2379 59.3379 95.2653 59.3379 91.123V71.0301C59.3379 69.521 59.9345 68.073 60.9977 67.0021C62.061 65.9311 63.5046 65.3239 65.0136 65.313Z" stroke="#7886ED" stroke-width="4" stroke-linecap="round" stroke-linejoin="round"/>
<path d="M69.8281 65.3134V54.2727C69.9162 51.3935 71.1219 48.6618 73.1896 46.6564C75.2574 44.6509 78.0246 43.5293 80.9052 43.5293C83.7857 43.5293 86.5529 44.6509 88.6207 46.6564C90.6884 48.6618 91.894 51.3935 91.9821 54.2727V65.3134" stroke="#7886ED" stroke-width="4" stroke-linecap="round" stroke-linejoin="round"/>
<path d="M80 83.0547V92.1069" stroke="#7886ED" stroke-width="4" stroke-linecap="round" stroke-linejoin="round"/>
</g>
</svg>
