<svg width="60" height="60" viewBox="0 0 60 60" fill="none" xmlns="http://www.w3.org/2000/svg">
<path d="M55.4062 0H4.59375C2.0625 0 0 2.0625 0 4.59375V44.5312C0 47.0625 2.0625 49.125 4.59375 49.125H21.8438V54.375H20.25C17.7188 54.375 15.5625 56.4375 15.5625 59.0625C15.5625 59.625 15.9375 60 16.5 60H43.5C44.0625 60 44.4375 59.625 44.4375 59.0625C44.4375 56.5312 42.375 54.375 39.75 54.375H38.1562V49.0312H55.4062C57.9375 49.0312 60 46.9688 60 44.4375V4.59375C60 2.0625 57.9375 0 55.4062 0ZM4.59375 1.875H55.5C56.9062 1.875 58.125 3.09375 58.125 4.59375V40.875H1.875V4.59375C1.875 3.09375 3.09375 1.875 4.59375 1.875ZM42.375 58.125H17.625C18 57.0938 19.0312 56.25 20.25 56.25H39.75C40.9688 56.25 42 57.0938 42.375 58.125ZM36.2812 54.375H23.7188V49.0312H36.2812V54.375ZM55.4062 47.1562H4.59375C3.09375 47.1562 1.875 45.9375 1.875 44.4375V42.6562H58.125V44.4375C58.125 46.0312 56.9062 47.1562 55.4062 47.1562Z" fill="url(#paint0_linear_1_2480)"/>
<path d="M7.3125 12.5627H10.9687C11.25 12.5627 11.4375 12.4689 11.625 12.2814L15 9.09391L16.5938 15.1877C16.6875 15.4689 16.9687 15.7502 17.25 15.8439C17.625 15.9377 17.9062 15.8439 18.1875 15.6564L22.5938 11.4377H25.9688C26.5313 11.4377 26.9063 11.0627 26.9063 10.5002C26.9063 9.93766 26.5313 9.56266 25.9688 9.56266H22.2188C21.9375 9.56266 21.75 9.65641 21.5625 9.84391L18 13.1252L16.4062 7.03141C16.3125 6.75016 16.0312 6.46891 15.75 6.37516C15.4687 6.28141 15.0937 6.37516 14.8125 6.56266L10.5938 10.5939H7.3125C6.75 10.5939 6.375 10.9689 6.375 11.5314C6.375 12.0939 6.75 12.5627 7.3125 12.5627ZM33.0938 18.6564L35.625 19.5002C35.7188 19.7814 35.8125 19.9689 35.9062 20.1564L34.6875 22.5939C34.5 22.9689 34.5938 23.3439 34.875 23.6252L36.0938 24.8439C36.375 25.1252 36.8438 25.2189 37.125 25.0314L39.5625 23.8127C39.75 23.9064 40.0313 24.0002 40.2188 24.0939L41.0625 26.6252C41.1562 27.0002 41.5312 27.2814 41.9062 27.2814H43.5938C43.9688 27.2814 44.3438 27.0002 44.4375 26.6252L45.2812 24.0939C45.5625 24.0002 45.75 23.9064 46.0312 23.8127L48.4688 25.0314C48.8438 25.2189 49.2188 25.1252 49.5 24.8439L50.7188 23.6252C51 23.3439 51.0938 22.8752 50.9062 22.5939L49.6875 20.1564C49.7812 19.9689 49.875 19.6877 49.9688 19.4064L52.5 18.5627C52.875 18.4689 53.1562 18.0939 53.1562 17.7189V16.0314C53.1562 15.6564 52.875 15.2814 52.5 15.1877L49.9688 14.3439C49.875 14.0627 49.7812 13.8752 49.6875 13.5939L50.9062 11.1564C51.0938 10.7814 51 10.4064 50.7188 10.1252L49.5 8.90641C49.2188 8.62516 48.75 8.53141 48.4688 8.71891L46.0312 9.93766C45.8438 9.84391 45.5625 9.75016 45.375 9.65641L44.5312 7.12516C44.4375 6.75016 44.0625 6.46891 43.6875 6.46891H42.1875C41.8125 6.46891 41.4375 6.75016 41.3438 7.12516L40.4062 9.65641C40.125 9.75016 39.9375 9.84391 39.75 9.93766L37.3125 8.71891C36.9375 8.53141 36.5625 8.62516 36.2813 8.90641L35.0625 10.1252C34.7813 10.4064 34.6875 10.8752 34.875 11.1564L36.0938 13.5939C36 13.7814 35.9063 14.0627 35.8125 14.2502L33.2812 15.0939C32.9062 15.1877 32.625 15.5627 32.625 15.9377V17.8127C32.5312 18.1877 32.7188 18.5627 33.0938 18.6564ZM34.4063 16.6877L36.75 15.8439C37.0313 15.7502 37.3125 15.4689 37.3125 15.1877C37.4062 14.8127 37.5938 14.3439 37.7812 13.9689C37.9688 13.6877 37.9688 13.4064 37.7812 13.1252L36.6562 10.8752L36.9375 10.5939L39.1875 11.7189C39.4688 11.8127 39.75 11.8127 40.0312 11.7189C40.4062 11.5314 40.7812 11.3439 41.25 11.2502C41.5312 11.1564 41.8125 10.9689 41.9062 10.6877L42.75 8.25016H43.125L43.9688 10.5939C44.0625 10.8752 44.3438 11.1564 44.625 11.1564C45 11.2502 45.4688 11.4377 45.8438 11.6252C46.125 11.8127 46.4062 11.8127 46.6875 11.6252L48.9375 10.5002L49.2188 10.7814L48.0938 13.0314C48 13.3127 48 13.5939 48.0938 13.8752C48.2812 14.2502 48.4688 14.6252 48.5625 15.0939C48.6562 15.3752 48.8438 15.6564 49.125 15.7502L51.4688 16.5939V16.9689L49.125 17.8127C48.8438 17.9064 48.5625 18.1877 48.5625 18.4689C48.4688 18.9377 48.2812 19.3127 48.0938 19.6877C47.9062 19.9689 47.9062 20.2502 48.0938 20.5314L49.2188 22.7814L48.9375 23.0627L46.6875 21.9377C46.4062 21.8439 46.125 21.8439 45.8438 21.9377C45.4688 22.1252 45.0938 22.3127 44.625 22.4064C44.3438 22.5002 44.0625 22.6877 43.9688 22.9689L43.125 25.3127H42.75L41.9062 22.9689C41.8125 22.6877 41.5312 22.5002 41.25 22.4064C40.7812 22.3127 40.4062 22.1252 40.0312 21.9377C39.75 21.7502 39.4688 21.7502 39.1875 21.9377L36.9375 23.0627L36.6562 22.7814L37.7812 20.5314C37.875 20.2502 37.875 19.9689 37.7812 19.6877C37.5938 19.3127 37.4062 18.9377 37.3125 18.4689C37.2188 18.1877 37.0313 17.9064 36.75 17.8127L34.4063 16.9689V16.6877Z" fill="url(#paint1_linear_1_2480)"/>
<path d="M43.125 20.5312C45.0938 20.5312 46.6875 18.9375 46.6875 16.9688C46.6875 15 45 13.4062 43.125 13.4062C41.25 13.4062 39.5625 15 39.5625 16.9688C39.5625 18.9375 41.1562 20.5312 43.125 20.5312ZM43.125 15.2812C44.0625 15.2812 44.8125 16.0313 44.8125 16.9688C44.8125 17.9062 44.0625 18.6562 43.125 18.6562C42.1875 18.6562 41.4375 17.9062 41.4375 16.9688C41.4375 16.0313 42.1875 15.2812 43.125 15.2812ZM7.3125 36.375H11.625C12.1875 36.375 12.5625 36 12.5625 35.4375V26.9063C12.5625 26.3438 12.1875 25.9688 11.625 25.9688H7.3125C6.75 25.9688 6.375 26.3438 6.375 26.9063V35.4375C6.375 36 6.75 36.375 7.3125 36.375ZM8.25 27.8438H10.6875V34.5H8.25V27.8438ZM19.7812 21.2813H15.4688C14.9062 21.2813 14.5312 21.6563 14.5312 22.2188V35.4375C14.5312 36 14.9062 36.375 15.4688 36.375H19.7812C20.3438 36.375 20.7188 36 20.7188 35.4375V22.2188C20.7188 21.75 20.3438 21.2813 19.7812 21.2813ZM18.8438 34.5H16.4062V23.1563H18.8438V34.5ZM22.5938 17.5313V35.4375C22.5938 36 22.9688 36.375 23.5312 36.375H27.8438C28.4063 36.375 28.7813 36 28.7813 35.4375V17.5313C28.7813 16.9688 28.4063 16.5938 27.8438 16.5938H23.5312C23.0625 16.5938 22.5938 16.9688 22.5938 17.5313ZM24.4688 18.4688H26.9063V34.5H24.4688V18.4688ZM52.6875 30.2812H37.5C36.9375 30.2812 36.5625 30.6562 36.5625 31.2188C36.5625 31.7812 36.9375 32.1562 37.5 32.1562H52.7812C53.3438 32.1562 53.7188 31.7812 53.7188 31.2188C53.7188 30.6562 53.25 30.2812 52.6875 30.2812ZM52.6875 34.5H37.5C36.9375 34.5 36.5625 34.875 36.5625 35.4375C36.5625 36 36.9375 36.375 37.5 36.375H52.7812C53.3438 36.375 53.7188 36 53.7188 35.4375C53.7188 34.875 53.25 34.5 52.6875 34.5Z" fill="url(#paint2_linear_1_2480)"/>
<defs>
<linearGradient id="paint0_linear_1_2480" x1="0" y1="0" x2="60.8211" y2="59.3593" gradientUnits="userSpaceOnUse">
<stop stop-color="#3E96F4"/>
<stop offset="1" stop-color="#FE5B52"/>
</linearGradient>
<linearGradient id="paint1_linear_1_2480" x1="6.375" y1="6.33838" x2="22.4704" y2="41.4272" gradientUnits="userSpaceOnUse">
<stop stop-color="#3E96F4"/>
<stop offset="1" stop-color="#FE5B52"/>
</linearGradient>
<linearGradient id="paint2_linear_1_2480" x1="6.375" y1="13.4063" x2="24.9418" y2="50.7567" gradientUnits="userSpaceOnUse">
<stop stop-color="#3E96F4"/>
<stop offset="1" stop-color="#FE5B52"/>
</linearGradient>
</defs>
</svg>
