<svg width="60" height="60" viewBox="0 0 60 60" fill="none" xmlns="http://www.w3.org/2000/svg">
<path fill-rule="evenodd" clip-rule="evenodd" d="M32.9032 3.87097C32.9032 0.108387 45.0648 0 46.4516 0C47.8384 0 60 0.108387 60 3.87097V21.2903C60 24.5874 50.6642 25.0781 47.4194 25.1497V29.2103C48.5429 29.611 49.3548 30.6755 49.3548 31.9355C49.3548 33.1955 48.5429 34.26 47.4194 34.6606V38.7097H56.129C57.7297 38.7097 59.0323 40.0123 59.0323 41.6129V57.0968C59.0323 58.6974 57.7297 60 56.129 60H36.7742C35.1735 60 33.871 58.6974 33.871 57.0968V52.2581H15.3058C15.1069 52.8225 14.7381 53.3115 14.2502 53.658C13.7623 54.0046 13.1791 54.1916 12.5806 54.1935C10.98 54.1935 9.67742 52.891 9.67742 51.2903C9.67934 50.6919 9.8664 50.1087 10.2129 49.6208C10.5595 49.1328 11.0485 48.7641 11.6129 48.5652V46.4516H2.90323C1.30258 46.4516 0 45.149 0 43.5484V28.0645C0 26.4639 1.30258 25.1613 2.90323 25.1613H11.6129V21.2903H2.90323C1.30258 21.2903 0 19.9877 0 18.3871V2.90323C0 1.30258 1.30258 0 2.90323 0H22.2581C23.8587 0 25.1613 1.30258 25.1613 2.90323V9.67742H32.9032V3.87097ZM46.4516 11.6129C53.3894 11.6129 57.5952 10.3365 58.0645 9.6029V6.06871C54.5739 7.68097 47.49 7.74194 46.4516 7.74194C45.4132 7.74194 38.3294 7.68097 34.8387 6.06871V9.6029C35.3081 10.3365 39.5139 11.6129 46.4516 11.6129ZM46.4516 17.4194C53.3894 17.4194 57.5952 16.1429 58.0645 15.4094V11.8752C54.5739 13.4874 47.49 13.5484 46.4516 13.5484C45.4132 13.5484 38.3294 13.4874 34.8387 11.8752V15.4094C35.3081 16.1429 39.5139 17.4194 46.4516 17.4194ZM58.0113 3.87097C57.3184 3.12871 53.1581 1.93548 46.4516 1.93548C39.7452 1.93548 35.5848 3.12871 34.8919 3.87097C35.5848 4.61323 39.7452 5.80645 46.4516 5.80645C53.1581 5.80645 57.3184 4.61323 58.0113 3.87097ZM22.2581 1.93548H2.90323C2.64656 1.93548 2.40042 2.03744 2.21893 2.21893C2.03744 2.40042 1.93548 2.64656 1.93548 2.90323V7.74194H23.2258V2.90323C23.2258 2.64656 23.1238 2.40042 22.9424 2.21893C22.7609 2.03744 22.5147 1.93548 22.2581 1.93548ZM1.93548 9.67742V18.3871C1.93548 18.6438 2.03744 18.8899 2.21893 19.0714C2.40042 19.2529 2.64656 19.3548 2.90323 19.3548H22.2581C22.5147 19.3548 22.7609 19.2529 22.9424 19.0714C23.1238 18.8899 23.2258 18.6438 23.2258 18.3871V9.67742H1.93548ZM22.2581 21.2903H13.5484V25.1613H22.2581C23.8587 25.1613 25.1613 26.4639 25.1613 28.0645V30.9677H43.7264C43.8708 30.5629 44.1034 30.1952 44.4074 29.8912C44.7113 29.5873 45.079 29.3547 45.4839 29.2103V25.1497C42.239 25.0781 32.9032 24.5865 32.9032 21.2903V11.6129H25.1613V18.3871C25.1613 19.9877 23.8587 21.2903 22.2581 21.2903ZM22.2581 27.0968H2.90323C2.64656 27.0968 2.40042 27.1987 2.21893 27.3802C2.03744 27.5617 1.93548 27.8079 1.93548 28.0645V32.9032H23.2258V28.0645C23.2258 27.8079 23.1238 27.5617 22.9424 27.3802C22.7609 27.1987 22.5147 27.0968 22.2581 27.0968ZM1.93548 34.8387V43.5484C1.93548 43.805 2.03744 44.0512 2.21893 44.2327C2.40042 44.4142 2.64656 44.5161 2.90323 44.5161H22.2581C22.5147 44.5161 22.7609 44.4142 22.9424 44.2327C23.1238 44.0512 23.2258 43.805 23.2258 43.5484V34.8387H1.93548ZM11.8963 51.9746C12.0778 52.1561 12.324 52.2581 12.5806 52.2581C12.8373 52.2581 13.0835 52.1561 13.2649 51.9746C13.4464 51.7931 13.5484 51.547 13.5484 51.2903C13.5484 51.0337 13.4464 50.7875 13.2649 50.606C13.0835 50.4245 12.8373 50.3226 12.5806 50.3226C12.324 50.3226 12.0778 50.4245 11.8963 50.606C11.7149 50.7875 11.6129 51.0337 11.6129 51.2903C11.6129 51.547 11.7149 51.7931 11.8963 51.9746ZM36.7742 58.0645H56.129C56.3857 58.0645 56.6318 57.9626 56.8133 57.7811C56.9948 57.5996 57.0968 57.3534 57.0968 57.0968V48.3871H35.8064V57.0968C35.8064 57.3534 35.9084 57.5996 36.0899 57.7811C36.2714 57.9626 36.5175 58.0645 36.7742 58.0645ZM57.0968 46.4516V41.6129C57.0968 41.3562 56.9948 41.1101 56.8133 40.9286C56.6318 40.7471 56.3857 40.6452 56.129 40.6452H36.7742C36.5175 40.6452 36.2714 40.7471 36.0899 40.9286C35.9084 41.1101 35.8064 41.3562 35.8064 41.6129V46.4516H57.0968ZM33.871 41.6129C33.871 40.0123 35.1735 38.7097 36.7742 38.7097H45.4839V34.6606C45.079 34.5162 44.7113 34.2837 44.4074 33.9797C44.1034 33.6758 43.8708 33.3081 43.7264 32.9032H25.1613V43.5484C25.1613 45.149 23.8587 46.4516 22.2581 46.4516H13.5484V48.5652C13.9532 48.7096 14.3209 48.9421 14.6249 49.2461C14.9288 49.55 15.1614 49.9177 15.3058 50.3226H33.871V41.6129ZM45.7673 32.6198C45.9488 32.8013 46.195 32.9032 46.4516 32.9032C46.7083 32.9032 46.9544 32.8013 47.1359 32.6198C47.3174 32.4383 47.4194 32.1921 47.4194 31.9355C47.4194 31.6788 47.3174 31.4327 47.1359 31.2512C46.9544 31.0697 46.7083 30.9677 46.4516 30.9677C46.195 30.9677 45.9488 31.0697 45.7673 31.2512C45.5858 31.4327 45.4839 31.6788 45.4839 31.9355C45.4839 32.1921 45.5858 32.4383 45.7673 32.6198ZM34.8387 21.2245C35.3371 21.959 39.5419 23.2258 46.4516 23.2258C53.3613 23.2258 57.5661 21.959 58.0645 21.2245V17.6816C54.5739 19.2939 47.49 19.3548 46.4516 19.3548C45.4132 19.3548 38.3294 19.2939 34.8387 17.6816V21.2245ZM13.5489 3.87101H11.6134V5.80649H13.5489V3.87101ZM9.67789 3.87101H7.7424V5.80649H9.67789V3.87101ZM5.80692 3.87101H3.87143V5.80649H5.80692V3.87101ZM13.5489 29.0323H11.6134V30.9678H13.5489V29.0323ZM5.80692 29.0323H3.87143V30.9678H5.80692V29.0323ZM9.67789 29.0323H7.7424V30.9678H9.67789V29.0323ZM43.5489 42.5807H41.6134V44.5162H43.5489V42.5807ZM47.4198 42.5807H45.4843V44.5162H47.4198V42.5807ZM39.6779 42.5807H37.7424V44.5162H39.6779V42.5807ZM37.7424 53.2258C37.7424 51.6252 39.045 50.3226 40.6456 50.3226C42.2463 50.3226 43.5489 51.6252 43.5489 53.2258C43.5489 54.8265 42.2463 56.1291 40.6456 56.1291C39.045 56.1291 37.7424 54.8265 37.7424 53.2258ZM39.9613 53.9101C40.1428 54.0916 40.389 54.1936 40.6456 54.1936C40.9023 54.1936 41.1484 54.0916 41.3299 53.9101C41.5114 53.7287 41.6134 53.4825 41.6134 53.2258C41.6134 52.9692 41.5114 52.723 41.3299 52.5415C41.1484 52.3601 40.9023 52.2581 40.6456 52.2581C40.389 52.2581 40.1428 52.3601 39.9613 52.5415C39.7798 52.723 39.6779 52.9692 39.6779 53.2258C39.6779 53.4825 39.7798 53.7287 39.9613 53.9101ZM55.1618 50.3226H45.4843V52.2581H55.1618V50.3226ZM51.2908 54.1936H45.4843V56.1291H51.2908V54.1936ZM55.1618 54.1936H53.2263V56.1291H55.1618V54.1936ZM5.80692 36.7742H3.87143V38.7097H5.80692V36.7742ZM21.2908 36.7742H7.7424V38.7097H21.2908V36.7742ZM21.2908 40.6452H3.87143V42.5807H21.2908V40.6452ZM21.2908 17.4194H15.4843V11.6129H21.2908V17.4194ZM19.3553 13.5484H17.4198V15.4839H19.3553V13.5484ZM13.5489 11.6129H3.87143V13.5484H13.5489V11.6129ZM9.67789 15.4839H3.87143V17.4194H9.67789V15.4839ZM13.5489 15.4839H11.6134V17.4194H13.5489V15.4839Z" fill="url(#paint0_linear_1_2492)"/>
<defs>
<linearGradient id="paint0_linear_1_2492" x1="0" y1="0" x2="60" y2="60" gradientUnits="userSpaceOnUse">
<stop stop-color="#3E96F4"/>
<stop offset="1" stop-color="#FE5B52"/>
</linearGradient>
</defs>
</svg>
