<svg width="60" height="60" viewBox="0 0 60 60" fill="none" xmlns="http://www.w3.org/2000/svg">
<path fill-rule="evenodd" clip-rule="evenodd" d="M30.0003 0C30.4481 0 30.8111 0.363012 30.8111 0.810811V29.189H59.1892C59.637 29.189 60 29.5521 60 29.9999C60 30.4477 59.637 30.8107 59.1892 30.8107L30.8111 30.8107V59.1892C30.8111 59.637 30.4481 60 30.0003 60C29.5525 60 29.1895 59.637 29.1895 59.1892V30.8107L0.81081 30.8107C0.363012 30.8107 0 30.4477 0 29.9999C0 29.5521 0.363012 29.189 0.81081 29.189H29.1895V0.810811C29.1895 0.363012 29.5525 0 30.0003 0ZM11.3516 3.24312H3.24353V11.3512H11.3516V3.24312ZM3.24353 1.6215C2.34793 1.6215 1.62191 2.34753 1.62191 3.24312V11.3512C1.62191 12.2468 2.34793 12.9729 3.24353 12.9729H11.3516C12.2472 12.9729 12.9733 12.2468 12.9733 11.3512V3.24312C12.9733 2.34753 12.2472 1.6215 11.3516 1.6215H3.24353ZM42.9727 3.24312H34.8646V11.3512H42.9727V3.24312ZM34.8646 1.6215C33.969 1.6215 33.243 2.34753 33.243 3.24312V11.3512C33.243 12.2468 33.969 12.9729 34.8646 12.9729H42.9727C43.8683 12.9729 44.5944 12.2468 44.5944 11.3512V3.24312C44.5944 2.34753 43.8683 1.6215 42.9727 1.6215H34.8646ZM34.8648 34.8648H42.9729V42.9729H34.8648V34.8648ZM33.2432 34.8648C33.2432 33.9692 33.9692 33.2432 34.8648 33.2432H42.9729C43.8685 33.2432 44.5945 33.9692 44.5945 34.8648V42.9729C44.5945 43.8685 43.8685 44.5945 42.9729 44.5945H34.8648C33.9692 44.5945 33.2432 43.8685 33.2432 42.9729V34.8648ZM11.3518 34.8648H3.24369V42.9729H11.3518V34.8648ZM3.24369 33.2432C2.3481 33.2432 1.62207 33.9692 1.62207 34.8648V42.9729C1.62207 43.8685 2.34809 44.5945 3.24369 44.5945H11.3518C12.2474 44.5945 12.9734 43.8685 12.9734 42.9729V34.8648C12.9734 33.9692 12.2474 33.2432 11.3518 33.2432H3.24369ZM48.6488 3.24312H56.7569V11.3512H48.6488V3.24312ZM47.0272 3.24312C47.0272 2.34753 47.7532 1.6215 48.6488 1.6215H56.7569C57.6525 1.6215 58.3785 2.34753 58.3785 3.24312V11.3512C58.3785 12.2468 57.6525 12.9729 56.7569 12.9729H48.6488C47.7532 12.9729 47.0272 12.2468 47.0272 11.3512V3.24312ZM25.135 3.24312H17.0269V11.3512H25.135V3.24312ZM17.0269 1.6215C16.1313 1.6215 15.4053 2.34753 15.4053 3.24312V11.3512C15.4053 12.2468 16.1313 12.9729 17.0269 12.9729H25.135C26.0306 12.9729 26.7566 12.2468 26.7566 11.3512V3.24312C26.7566 2.34753 26.0306 1.6215 25.135 1.6215H17.0269ZM48.649 34.8648H56.7571V42.9729H48.649V34.8648ZM47.0273 34.8648C47.0273 33.9692 47.7534 33.2432 48.649 33.2432H56.7571C57.6527 33.2432 58.3787 33.9692 58.3787 34.8648V42.9729C58.3787 43.8685 57.6527 44.5945 56.7571 44.5945H48.649C47.7534 44.5945 47.0273 43.8685 47.0273 42.9729V34.8648ZM42.9727 17.0269H34.8646V25.135H42.9727V17.0269ZM34.8646 15.4053C33.969 15.4053 33.243 16.1313 33.243 17.0269V25.135C33.243 26.0306 33.969 26.7566 34.8646 26.7566H42.9727C43.8683 26.7566 44.5944 26.0306 44.5944 25.135V17.0269C44.5944 16.1313 43.8683 15.4053 42.9727 15.4053H34.8646ZM17.0269 34.8648H25.135V42.9729H17.0269V34.8648ZM15.4053 34.8648C15.4053 33.9692 16.1313 33.2432 17.0269 33.2432H25.135C26.0306 33.2432 26.7566 33.9692 26.7566 34.8648V42.9729C26.7566 43.8685 26.0306 44.5945 25.135 44.5945H17.0269C16.1313 44.5945 15.4053 43.8685 15.4053 42.9729V34.8648ZM42.9727 48.6488H34.8646V56.7569H42.9727V48.6488ZM34.8646 47.0272C33.969 47.0272 33.243 47.7532 33.243 48.6488V56.7569C33.243 57.6525 33.969 58.3785 34.8646 58.3785H42.9727C43.8683 58.3785 44.5944 57.6525 44.5944 56.7569V48.6488C44.5944 47.7532 43.8683 47.0272 42.9727 47.0272H34.8646ZM48.6488 48.6488H56.7569V56.7569H48.6488V48.6488ZM47.0272 48.6488C47.0272 47.7532 47.7532 47.0272 48.6488 47.0272H56.7569C57.6525 47.0272 58.3785 47.7532 58.3785 48.6488V56.7569C58.3785 57.6525 57.6525 58.3785 56.7569 58.3785H48.6488C47.7532 58.3785 47.0272 57.6525 47.0272 56.7569V48.6488ZM11.3516 17.0269H3.24353V25.135H11.3516V17.0269ZM3.24353 15.4053C2.34793 15.4053 1.62191 16.1313 1.62191 17.0269V25.135C1.62191 26.0306 2.34793 26.7566 3.24353 26.7566H11.3516C12.2472 26.7566 12.9733 26.0306 12.9733 25.135V17.0269C12.9733 16.1313 12.2472 15.4053 11.3516 15.4053H3.24353ZM17.0269 17.0269H25.135V25.135H17.0269V17.0269ZM15.4053 17.0269C15.4053 16.1313 16.1313 15.4053 17.0269 15.4053H25.135C26.0306 15.4053 26.7566 16.1313 26.7566 17.0269V25.135C26.7566 26.0306 26.0306 26.7566 25.135 26.7566H17.0269C16.1313 26.7566 15.4053 26.0306 15.4053 25.135V17.0269Z" fill="url(#paint0_linear_1_2448)"/>
<defs>
<linearGradient id="paint0_linear_1_2448" x1="0" y1="0" x2="60.8211" y2="59.3593" gradientUnits="userSpaceOnUse">
<stop stop-color="#3E96F4"/>
<stop offset="1" stop-color="#FE5B52"/>
</linearGradient>
</defs>
</svg>
