<svg width="36" height="36" viewBox="0 0 36 36" fill="none" xmlns="http://www.w3.org/2000/svg">
<g clip-path="url(#clip0_2553_5064)">
<path fill-rule="evenodd" clip-rule="evenodd" d="M6.09238 19.7957C6.09238 18.7325 6.95429 17.8706 8.0175 17.8706C9.26253 17.8706 10.2717 18.8799 10.2717 20.1249V21.7209H8.0175C6.95429 21.7209 6.09238 20.8589 6.09238 19.7957ZM8.0175 19.5849C7.90107 19.5849 7.80667 19.6793 7.80667 19.7957C7.80667 19.9121 7.90107 20.0066 8.0175 20.0066H8.54446C8.49053 19.7652 8.27508 19.5849 8.0175 19.5849ZM10.6934 20.1249C10.6934 18.8799 11.7026 17.8706 12.9476 17.8706C14.0109 17.8706 14.8726 18.7326 14.8728 19.7957C14.8728 20.8589 14.0108 21.7209 12.9476 21.7209H10.6934V20.1249ZM12.4207 20.0066H12.9476C13.064 20.0066 13.1584 19.9122 13.1585 19.7958M12.4207 20.0066C12.4746 19.7652 12.6901 19.5849 12.9476 19.5849C13.064 19.5849 13.1584 19.6793 13.1585 19.7958M16.6049 28.4734V35.4904H4.39844V30.0242H6.11272V33.7761H14.8906V28.4734H16.6049Z" fill="#3DA4C2"/>
<path fill-rule="evenodd" clip-rule="evenodd" d="M17.8204 0.00106965C23.2806 -0.0749908 27.8223 3.91419 28.6161 9.13517L26.9213 9.39283C26.2954 5.27679 22.8961 2.07152 18.6896 1.74221V6.24611H17.11H17.1073C16.5807 6.24446 16.3106 6.90777 16.6792 7.27179L16.6832 7.27561C16.7928 7.38526 16.9427 7.45203 17.11 7.45203H18.6896V11.1524H20.5431C20.635 9.16354 23.0902 8.21468 24.4983 9.63583C24.8882 10.0273 25.1414 10.5605 25.1718 11.1524H26.6739V12.8667H23.4606V11.2729C23.4606 11.106 23.3939 10.956 23.2834 10.8452L23.281 10.8428C22.9146 10.4725 22.2532 10.7441 22.2547 11.2705V11.2729V12.8667H16.9753V9.16243C16.3908 9.12883 15.8621 8.87803 15.4729 8.48972C14.0531 7.08482 14.9991 4.63799 16.9753 4.53517V0.0128435L17.8204 0.00106965ZM11.2401 3.86197V10.0069H9.67826C9.36523 10.0069 9.11152 10.2607 9.11152 10.5737C9.11152 10.8867 9.36523 11.1405 9.67826 11.1405H11.2401V14.7488H13.0065C13.0781 13.5535 14.0702 12.6063 15.2834 12.6063C16.4967 12.6063 17.4887 13.5535 17.5604 14.7488H21.0781L20.9579 15.712C20.7493 17.3832 20.1404 18.9794 19.1829 20.3649C17.5556 22.7211 16.6045 25.6285 16.6045 28.4733L16.6047 29.3304H4.39953L4.3981 28.4747C4.39209 24.8726 3.38757 22.9585 2.34226 21.1965C2.26054 21.0588 2.17794 20.9212 2.09505 20.7831C1.08795 19.1052 0.0377367 17.3554 0.000205599 14.4504L0.000113893 14.4433C-0.02653 8.69777 4.625 3.95401 10.371 3.87406L11.2401 3.86197ZM1.7144 14.4318C1.74657 16.861 2.57955 18.2532 3.57966 19.9247C3.65772 20.0552 3.7368 20.1873 3.81659 20.3218C4.86552 22.0899 5.93622 24.1262 6.09284 27.6161H8.55712V20.8637H10.2714V27.6161H10.693V20.8637H12.4073V27.6161H14.9155C15.0862 24.6897 16.1193 21.784 17.7723 19.3906C18.3868 18.5015 18.8298 17.5084 19.0814 16.4631H15.8502V14.8874C15.8502 14.5743 15.5964 14.3205 15.2834 14.3205C14.9703 14.3205 14.7166 14.5743 14.7166 14.8874V16.4631H9.52577V12.8498C8.33709 12.7713 7.39719 11.7823 7.39719 10.5737C7.39719 9.36514 8.33709 8.37609 9.52577 8.29764V5.64341C5.13011 6.14323 1.69528 9.92083 1.7144 14.4318Z" fill="#3DA4C2"/>
<path fill-rule="evenodd" clip-rule="evenodd" d="M31.0618 8.2336L26.0801 6.3304L26.6918 4.729L32.389 6.90553L35.4965 15.0241L32.8544 22.0465V25.5604H31.1401V21.7347L33.6629 15.0294L31.0618 8.2336Z" fill="#3DA4C2"/>
<path fill-rule="evenodd" clip-rule="evenodd" d="M21.1991 7.29046H20.1797V5.57617H21.1991V7.29046ZM23.2379 7.29046H22.2185V5.57617H23.2379V7.29046ZM25.8158 10.883C25.8158 9.44618 26.9806 8.28135 28.4175 8.28135C29.8543 8.28135 31.0191 9.44618 31.0191 10.883V17.1479H29.3048V10.883C29.3048 10.3929 28.9075 9.99561 28.4175 9.99561C27.9274 9.99561 27.5301 10.3929 27.5301 10.883V15.3566L27.1394 15.6101C25.0869 16.9416 24.3174 19.5745 25.3297 21.8018L26.0581 23.4041V24.7034H34.2132V32.0507H32.4989V26.4177H24.699V35.1428H22.9847V24.7034H24.3438V23.7754L23.7691 22.5112C22.4719 19.6571 23.3469 16.3086 25.8158 14.4455V10.883ZM34.2132 33.0701V35.1428H32.4989V33.0701H34.2132Z" fill="#3DA4C2"/>
</g>
<defs>
<clipPath id="clip0_2553_5064">
<rect width="36" height="36" fill="white"/>
</clipPath>
</defs>
</svg>
