<svg width="60" height="60" viewBox="0 0 60 60" fill="none" xmlns="http://www.w3.org/2000/svg">
<path fill-rule="evenodd" clip-rule="evenodd" d="M50.3226 30.9677C45.42 30.9677 41.3661 34.6355 40.739 39.3706L38.7097 37.3413V35.8064C38.7097 34.2058 37.4071 32.9032 35.8064 32.9032C35.4242 32.9032 35.0613 32.9816 34.7264 33.1161C34.6093 32.6815 34.3927 32.28 34.0937 31.9434C33.7948 31.6069 33.4217 31.3444 33.0039 31.1768C33.1461 30.8884 33.4006 30.75 33.5003 30.7084C33.677 30.6328 33.8725 30.6125 34.0609 30.6501C34.2494 30.6878 34.4221 30.7817 34.5561 30.9194L35.4755 31.8368L39.5806 27.7306L38.6603 26.8123C38.5231 26.6783 38.4295 26.5059 38.3921 26.3179C38.3546 26.1298 38.3749 25.9347 38.4503 25.7584C38.522 25.5803 38.6459 25.428 38.8056 25.3215C38.9653 25.2149 39.1535 25.1591 39.3455 25.1613H40.6452V20.7232L44.4203 16.9481C46.0161 18.9968 48.4984 20.3226 51.2903 20.3226C56.0932 20.3226 60 16.4148 60 11.6129C60 6.81097 56.0932 2.90323 51.2903 2.90323C46.4874 2.90323 42.5806 6.81097 42.5806 11.6129C42.5806 12.9106 42.8739 14.1387 43.3848 15.2468L39.2874 19.3442C39.1069 19.335 38.9326 19.2751 38.7845 19.1713C38.6365 19.0676 38.5206 18.9243 38.4503 18.7577C38.3744 18.5817 38.3538 18.3868 38.3911 18.1988C38.4285 18.0108 38.522 17.8385 38.6594 17.7048L39.5806 16.7855L35.4755 12.6794L34.5552 13.5977C34.4211 13.7352 34.2486 13.8288 34.0603 13.8663C33.872 13.9038 33.6768 13.8834 33.5003 13.8077C33.3222 13.736 33.1699 13.6122 33.0634 13.4525C32.9568 13.2927 32.901 13.1046 32.9032 12.9126V11.6129H30.9677V9.57968C32.0597 9.35493 33.0408 8.76076 33.7459 7.89721C34.451 7.03367 34.8369 5.95353 34.8387 4.83871C34.8387 2.17065 32.6681 0 30 0C27.3319 0 25.1613 2.17065 25.1613 4.83871C25.1631 5.95353 25.549 7.03367 26.2541 7.89721C26.9592 8.76076 27.9403 9.35493 29.0323 9.57968V11.6129H27.0968V12.9126C27.0968 13.5126 26.639 13.7487 26.4997 13.8068C26.3231 13.8829 26.1275 13.9035 25.9389 13.8658C25.7503 13.8282 25.5776 13.734 25.4439 13.5958L24.5245 12.6784L20.4194 16.7845L21.3397 17.7029C21.4769 17.8369 21.5705 18.0092 21.6079 18.1973C21.6454 18.3854 21.6251 18.5804 21.5497 18.7568C21.4794 18.9234 21.3636 19.0668 21.2156 19.1705C21.0675 19.2743 20.8931 19.3341 20.7126 19.3432L17.9652 16.5958C18.8692 15.0905 19.3494 13.3688 19.3548 11.6129C19.3548 6.27677 15.0135 1.93548 9.67742 1.93548C4.34129 1.93548 0 6.27677 0 11.6129C0 13.6926 0.687097 15.7548 1.93548 17.4194L5.80645 22.5803V25.1613C5.80645 27.2961 7.54258 29.0323 9.67742 29.0323C11.8123 29.0323 13.5484 27.2961 13.5484 25.1613V22.5803L16.8329 18.2003L19.3548 20.7232V25.1613H20.6545C21.2545 25.1613 21.4906 25.619 21.5497 25.7594C21.6256 25.9354 21.6462 26.1303 21.6089 26.3183C21.5715 26.5063 21.478 26.6786 21.3406 26.8123L20.4194 27.7316L24.5245 31.8377L25.1613 31.2019V33.4413C24.5755 33.093 23.9073 32.9072 23.2258 32.9032C22.1584 32.9032 21.2903 33.7713 21.2903 34.8387V37.3413L15.5797 43.0519C13.9839 41.0032 11.5016 39.6774 8.70968 39.6774C3.90677 39.6774 0 43.5852 0 48.3871C0 53.189 3.90677 57.0968 8.70968 57.0968C13.5126 57.0968 17.4194 53.189 17.4194 48.3871C17.4181 47.1318 17.1437 45.8918 16.6152 44.7532L21.2903 40.0781V42.3455C21.2865 45.0653 22.3099 47.6863 24.1558 49.6839L23.1242 60H36.8768L35.8452 49.6848C37.6903 47.6865 38.7133 45.0654 38.7097 42.3455V40.0781L40.7642 42.1326C41.009 43.6906 41.6313 45.1868 42.5806 46.4516L46.4516 51.6126V54.1935C46.4516 56.3284 48.1877 58.0645 50.3226 58.0645C52.4574 58.0645 54.1935 56.3284 54.1935 54.1935V51.6126L58.0645 46.4516C59.3129 44.7871 60 42.7248 60 40.6452C60 35.309 55.6587 30.9677 50.3226 30.9677ZM51.2903 4.83871C55.0248 4.83871 58.0645 7.87742 58.0645 11.6129C58.0645 15.3484 55.0248 18.3871 51.2903 18.3871C47.5558 18.3871 44.5161 15.3484 44.5161 11.6129C44.5161 7.87742 47.5558 4.83871 51.2903 4.83871ZM27.0968 4.83871C27.0968 3.23806 28.3994 1.93548 30 1.93548C31.6006 1.93548 32.9032 3.23806 32.9032 4.83871C32.9032 6.43935 31.6006 7.74194 30 7.74194C28.3994 7.74194 27.0968 6.43935 27.0968 4.83871ZM8.70968 55.1613C4.97516 55.1613 1.93548 52.1226 1.93548 48.3871C1.93548 44.6516 4.97516 41.6129 8.70968 41.6129C12.4442 41.6129 15.4839 44.6516 15.4839 48.3871C15.4839 52.1226 12.4442 55.1613 8.70968 55.1613ZM27.3126 23.3371C27.1718 22.9947 27.0985 22.6283 27.0968 22.2581C27.0968 20.6574 28.3994 19.3548 30 19.3548C31.6006 19.3548 32.9032 20.6574 32.9032 22.2581C32.9013 22.8946 32.6899 23.5129 32.3016 24.0173C31.9133 24.5217 31.3697 24.8843 30.7548 25.049C30.5393 24.5115 30.168 24.0508 29.6886 23.7259C29.2092 23.401 28.6436 23.2268 28.0645 23.2258C27.8023 23.2258 27.5535 23.2723 27.3126 23.3371ZM9.67742 27.0968C8.61 27.0968 7.74194 26.2287 7.74194 25.1613V23.2258H11.6129V25.1613C11.6129 26.2287 10.7448 27.0968 9.67742 27.0968ZM12.0968 21.2903H7.25806L3.48387 16.2581C2.48191 14.9163 1.93895 13.2875 1.93548 11.6129C1.93548 7.34419 5.40871 3.87097 9.67742 3.87097C13.9461 3.87097 17.4194 7.34419 17.4194 11.6129C17.4159 13.2875 16.8729 14.9163 15.871 16.2581L12.0968 21.2903ZM24.5739 29.1494L23.1097 27.6861C23.6187 26.8984 23.7116 25.9229 23.3371 25.019C22.9626 24.1152 22.2068 23.491 21.2903 23.2935V21.2235C21.7467 21.1255 22.172 20.9168 22.5288 20.616C22.8857 20.3151 23.1632 19.9313 23.3371 19.4981C23.5205 19.0689 23.5956 18.6012 23.556 18.1362C23.5163 17.6711 23.3631 17.2229 23.1097 16.831L24.5729 15.3677C24.965 15.6212 25.4134 15.7745 25.8786 15.8142C26.3438 15.8538 26.8116 15.7786 27.241 15.5952C27.6741 15.4213 28.0578 15.1438 28.3585 14.7869C28.6592 14.43 28.8677 14.0047 28.9655 13.5484H31.0355C31.1336 14.0046 31.3422 14.4297 31.6428 14.7866C31.9435 15.1434 32.3271 15.421 32.76 15.5952C33.1893 15.7786 33.6572 15.8538 34.1224 15.8142C34.5876 15.7745 35.036 15.6212 35.4281 15.3677L36.8913 16.831C36.3823 17.6187 36.2894 18.5942 36.6639 19.4981C37.0384 20.4019 37.7942 21.0261 38.7106 21.2235V23.2935C38.2543 23.3916 37.829 23.6003 37.4721 23.9011C37.1153 24.202 36.8377 24.5858 36.6639 25.019C36.4805 25.4482 36.4053 25.9159 36.445 26.3809C36.4846 26.846 36.6379 27.2942 36.8913 27.6861L35.4281 29.1494C35.036 28.8959 34.5876 28.7426 34.1224 28.7029C33.6572 28.6633 33.1893 28.7385 32.76 28.9219C32.3006 29.1067 31.8972 29.4079 31.5897 29.796C31.2822 30.1841 31.0812 30.6457 31.0065 31.1352L30.9687 31.1468V27C32.0607 26.7754 33.042 26.1813 33.7471 25.3177C34.4522 24.4541 34.838 23.3739 34.8397 22.259C34.8397 19.591 32.669 17.4203 30.001 17.4203C27.3329 17.4203 25.1623 19.591 25.1623 22.259C25.1623 23.0371 25.3471 23.7852 25.6955 24.4635C25.3485 24.9496 25.1618 25.5318 25.1613 26.129V28.8765C24.9551 28.9431 24.7578 29.0348 24.5739 29.1494ZM25.2629 58.0645L26.0371 50.3226H33.9619L34.7361 58.0645H25.2629ZM36.7742 42.3455C36.7742 44.6061 35.9323 46.7332 34.4119 48.3871H25.5881C24.0666 46.7434 23.2228 44.5853 23.2258 42.3455V34.8387C24.2932 34.8387 25.1613 35.7068 25.1613 36.7742V38.7097H27.0968V26.129C27.1079 25.8799 27.2147 25.6446 27.395 25.4722C27.5753 25.2998 27.8151 25.2036 28.0645 25.2036C28.3139 25.2036 28.5538 25.2998 28.734 25.4722C28.9143 25.6446 29.0211 25.8799 29.0323 26.129V38.7097H30.9677V33.871C30.9789 33.6218 31.0857 33.3865 31.266 33.2141C31.4462 33.0418 31.6861 32.9455 31.9355 32.9455C32.1849 32.9455 32.4247 33.0418 32.605 33.2141C32.7853 33.3865 32.8921 33.6218 32.9032 33.871V38.7097H34.8387V35.8064C34.8499 35.5573 34.9567 35.322 35.1369 35.1496C35.3172 34.9772 35.557 34.881 35.8064 34.881C36.0559 34.881 36.2957 34.9772 36.476 35.1496C36.6562 35.322 36.763 35.5573 36.7742 35.8064V42.3455ZM50.3226 56.129C49.2552 56.129 48.3871 55.261 48.3871 54.1935V52.2581H52.2581V54.1935C52.2581 55.261 51.39 56.129 50.3226 56.129ZM56.5161 45.2903L52.7419 50.3226H47.9032L44.129 45.2903C43.1271 43.9486 42.5841 42.3197 42.5806 40.6452C42.5806 36.3764 46.0539 32.9032 50.3226 32.9032C54.5913 32.9032 58.0645 36.3764 58.0645 40.6452C58.0611 42.3197 57.5181 43.9486 56.5161 45.2903ZM9.99987 5.80658H9.35535C8.41449 5.8076 7.51246 6.18181 6.84717 6.8471C6.18187 7.51239 5.80767 8.41442 5.80664 9.35529V9.67755H7.74212V9.35529C7.74289 8.92767 7.9131 8.51778 8.21548 8.21541C8.51785 7.91304 8.92773 7.74283 9.35535 7.74206H9.99987C10.4275 7.74283 10.8374 7.91304 11.1397 8.21541C11.4421 8.51778 11.6123 8.92767 11.6131 9.35529C11.6131 9.86045 11.3721 10.3424 10.9686 10.6453L8.90245 12.1946C8.54302 12.4658 8.25123 12.8166 8.04993 13.2193C7.84863 13.6221 7.74328 14.066 7.74212 14.5163V15.484H9.67761V14.5163C9.67761 14.2134 9.8218 13.924 10.0637 13.7421L12.1299 12.1937C12.5693 11.8621 12.9261 11.4333 13.1722 10.9409C13.4183 10.4485 13.5472 9.90579 13.5486 9.35529C13.5476 8.41442 13.1733 7.51239 12.5081 6.8471C11.8428 6.18181 10.9407 5.8076 9.99987 5.80658ZM7.74212 17.4195H9.67761V19.355H7.74212V17.4195ZM29.0324 3.87109H30.9679V5.80658H29.0324V3.87109ZM47.4924 35.8794C48.1577 35.2141 49.0597 34.8399 50.0006 34.8389H50.6451C51.586 34.8399 52.488 35.2141 53.1533 35.8794C53.8186 36.5447 54.1928 37.4467 54.1938 38.3876C54.1924 38.9381 54.0636 39.4808 53.8175 39.9732C53.5714 40.4657 53.2146 40.8944 52.7751 41.226L50.709 42.7744C50.4671 42.9563 50.3229 43.2457 50.3229 43.5486V44.5163H48.3874V43.5486C48.3885 43.0983 48.4939 42.6544 48.6952 42.2516C48.8965 41.8489 49.1883 41.4982 49.5477 41.227L51.6138 39.6776C52.0174 39.3747 52.2584 38.8928 52.2584 38.3876C52.2576 37.96 52.0874 37.5501 51.785 37.2477C51.4826 36.9454 51.0727 36.7751 50.6451 36.7744H50.0006C49.573 36.7751 49.1631 36.9454 48.8607 37.2477C48.5584 37.5501 48.3882 37.96 48.3874 38.3876V38.7099H46.4519V38.3876C46.4529 37.4467 46.8271 36.5447 47.4924 35.8794ZM50.3229 46.4518H48.3874V48.3873H50.3229V46.4518ZM5.80674 47.4195H3.87126V49.355H5.80674V47.4195ZM9.67771 47.4195H7.74222V49.355H9.67771V47.4195ZM13.5487 47.4195H11.6132V49.355H13.5487V47.4195ZM48.3874 10.6453H46.4519V12.5808H48.3874V10.6453ZM52.2584 10.6453H50.3229V12.5808H52.2584V10.6453ZM56.1293 10.6453H54.1938V12.5808H56.1293V10.6453Z" fill="url(#paint0_linear_1_2470)"/>
<defs>
<linearGradient id="paint0_linear_1_2470" x1="0" y1="0" x2="60.8211" y2="59.3593" gradientUnits="userSpaceOnUse">
<stop stop-color="#3E96F4"/>
<stop offset="1" stop-color="#FE5B52"/>
</linearGradient>
</defs>
</svg>
