<svg width="92" height="92" viewBox="0 0 92 92" fill="none" xmlns="http://www.w3.org/2000/svg">
<g filter="url(#filter0_d_0_340)">
<rect x="6" y="6" width="80" height="80" rx="40" fill="url(#paint0_linear_0_340)"/>
<rect x="7" y="7" width="78" height="78" rx="39" stroke="white" stroke-width="2"/>
</g>
<path d="M32.4 41.5758C33.275 41.5758 34.1303 41.8352 34.8578 42.3213C35.5854 42.8075 36.1524 43.4984 36.4872 44.3068C36.8221 45.1151 36.9097 46.0047 36.739 46.8628C36.5683 47.721 36.1469 48.5093 35.5282 49.128C34.9095 49.7467 34.1212 50.1681 33.2631 50.3388C32.4049 50.5095 31.5154 50.4218 30.707 50.087C29.8986 49.7522 29.2077 49.1851 28.7216 48.4576C28.2355 47.7301 27.976 46.8747 27.976 45.9998C27.9781 44.8271 28.4449 43.7031 29.2741 42.8739C30.1033 42.0446 31.2273 41.5779 32.4 41.5758ZM32.4 40.3758C31.2924 40.3758 30.2097 40.7042 29.2888 41.3195C28.3679 41.9349 27.6501 42.8095 27.2263 43.8327C26.8024 44.856 26.6915 45.982 26.9076 47.0683C27.1237 48.1546 27.657 49.1524 28.4402 49.9356C29.2234 50.7187 30.2212 51.2521 31.3075 51.4682C32.3938 51.6842 33.5198 51.5733 34.543 51.1495C35.5663 50.7256 36.4409 50.0079 37.0562 49.087C37.6716 48.166 38 47.0833 38 45.9758C38 44.4905 37.41 43.0662 36.3598 42.016C35.3096 40.9658 33.8852 40.3758 32.4 40.3758Z" fill="#3E96F4"/>
<path fill-rule="evenodd" clip-rule="evenodd" d="M35.6383 26.2H49.5719V27.4H35.653C34.9342 27.4189 34.2519 27.7209 33.7545 28.2403C33.2555 28.7614 32.9833 29.4589 32.9974 30.1803L32.9975 30.1861V40.84H31.7975V30.1976C31.7789 29.1611 32.1707 28.1592 32.8878 27.4104C33.6062 26.6601 34.5927 26.2249 35.6312 26.2001L35.6383 26.2Z" fill="#3E96F4"/>
<path fill-rule="evenodd" clip-rule="evenodd" d="M32.9975 50.9359V61.8138L32.9974 61.8196C32.9833 62.541 33.2555 63.2385 33.7545 63.7596C34.2519 64.279 34.9342 64.581 35.653 64.5999H49.1495V65.7999H35.6383L35.6312 65.7997C34.5927 65.775 33.6062 65.3398 32.8878 64.5895C32.1707 63.8407 31.7789 62.8388 31.7975 61.8023V50.9359H32.9975Z" fill="#3E96F4"/>
<path d="M32.4 44C32.7956 44 33.1822 44.1173 33.5111 44.337C33.84 44.5568 34.0964 44.8692 34.2477 45.2346C34.3991 45.6001 34.4387 46.0022 34.3616 46.3902C34.2844 46.7781 34.0939 47.1345 33.8142 47.4142C33.5345 47.6939 33.1781 47.8844 32.7902 47.9615C32.4022 48.0387 32.0001 47.9991 31.6346 47.8477C31.2692 47.6964 30.9568 47.44 30.7371 47.1111C30.5173 46.7822 30.4 46.3955 30.4 46C30.4 45.4695 30.6107 44.9608 30.9858 44.5858C31.3608 44.2107 31.8696 44 32.4 44ZM32.4 42.8C31.7671 42.8 31.1484 42.9877 30.6222 43.3393C30.0959 43.6909 29.6858 44.1907 29.4436 44.7754C29.2014 45.3601 29.138 46.0035 29.2615 46.6243C29.3849 47.245 29.6897 47.8152 30.1372 48.2627C30.5848 48.7102 31.155 49.015 31.7757 49.1385C32.3964 49.262 33.0399 49.1986 33.6246 48.9564C34.2093 48.7142 34.7091 48.304 35.0607 47.7778C35.4123 47.2516 35.6 46.6329 35.6 46C35.6 45.1513 35.2628 44.3374 34.6627 43.7372C34.0626 43.1371 33.2487 42.8 32.4 42.8Z" fill="#3E96F4"/>
<path fill-rule="evenodd" clip-rule="evenodd" d="M37.0562 46C37.0562 45.6686 37.3249 45.4 37.6562 45.4H49.3602C49.6916 45.4 49.9602 45.6686 49.9602 46C49.9602 46.3313 49.6916 46.6 49.3602 46.6H37.6562C37.3249 46.6 37.0562 46.3313 37.0562 46Z" fill="#3E96F4"/>
<path d="M63.7188 24.8V28.8H50.1188V24.8H63.7188ZM63.8548 23.6H49.9748C49.8354 23.6 49.6974 23.6275 49.5688 23.6811C49.4402 23.7347 49.3234 23.8132 49.2252 23.9121C49.1271 24.011 49.0494 24.1284 48.9968 24.2574C48.9442 24.3864 48.9177 24.5246 48.9188 24.664V28.936C48.9177 29.0753 48.9442 29.2135 48.9968 29.3425C49.0494 29.4716 49.1271 29.5889 49.2252 29.6879C49.3234 29.7868 49.4402 29.8653 49.5688 29.9188C49.6974 29.9724 49.8354 30 49.9748 30H63.8548C64.137 30 64.4076 29.8879 64.6071 29.6883C64.8067 29.4888 64.9188 29.2182 64.9188 28.936V24.664C64.9188 24.3818 64.8067 24.1112 64.6071 23.9116C64.4076 23.7121 64.137 23.6 63.8548 23.6Z" fill="#3E96F4"/>
<path fill-rule="evenodd" clip-rule="evenodd" d="M51.4 26.8C51.4 26.4686 51.6686 26.2 52 26.2H61.824C62.1554 26.2 62.424 26.4686 62.424 26.8C62.424 27.1313 62.1554 27.4 61.824 27.4H52C51.6686 27.4 51.4 27.1313 51.4 26.8Z" fill="#3E96F4"/>
<path d="M63.7188 63.2V67.2H50.1188V63.2H63.7188ZM63.8548 62H49.9748C49.8354 62 49.6974 62.0275 49.5688 62.0811C49.4402 62.1347 49.3234 62.2132 49.2252 62.3121C49.1271 62.411 49.0494 62.5284 48.9968 62.6574C48.9442 62.7864 48.9177 62.9246 48.9188 63.064V67.336C48.9177 67.4753 48.9442 67.6135 48.9968 67.7425C49.0494 67.8716 49.1271 67.9889 49.2252 68.0879C49.3234 68.1868 49.4402 68.2653 49.5688 68.3188C49.6974 68.3724 49.8354 68.4 49.9748 68.4H63.8548C64.137 68.4 64.4076 68.2879 64.6071 68.0883C64.8067 67.8888 64.9188 67.6182 64.9188 67.336V63.064C64.9188 62.7818 64.8067 62.5112 64.6071 62.3116C64.4076 62.1121 64.137 62 63.8548 62Z" fill="#3E96F4"/>
<path fill-rule="evenodd" clip-rule="evenodd" d="M51.4 65.2C51.4 64.8686 51.6686 64.6 52 64.6H61.824C62.1554 64.6 62.424 64.8686 62.424 65.2C62.424 65.5313 62.1554 65.8 61.824 65.8H52C51.6686 65.8 51.4 65.5313 51.4 65.2Z" fill="#3E96F4"/>
<path d="M63.7188 53.6V57.6H50.1188V53.6H63.7188ZM63.8548 52.4H49.9748C49.8354 52.4 49.6974 52.4275 49.5688 52.4811C49.4402 52.5347 49.3234 52.6132 49.2252 52.7121C49.1271 52.811 49.0494 52.9284 48.9968 53.0574C48.9442 53.1864 48.9177 53.3246 48.9188 53.464V57.736C48.9177 57.8753 48.9442 58.0135 48.9968 58.1425C49.0494 58.2716 49.1271 58.389 49.2252 58.4879C49.3234 58.5868 49.4402 58.6653 49.5688 58.7188C49.6974 58.7724 49.8354 58.8 49.9748 58.8H63.8548C64.137 58.8 64.4076 58.6879 64.6071 58.4883C64.8067 58.2888 64.9188 58.0182 64.9188 57.736V53.464C64.9188 53.1818 64.8067 52.9112 64.6071 52.7116C64.4076 52.5121 64.137 52.4 63.8548 52.4Z" fill="#3E96F4"/>
<path fill-rule="evenodd" clip-rule="evenodd" d="M51.4 55.6C51.4 55.2686 51.6686 55 52 55H61.824C62.1554 55 62.424 55.2686 62.424 55.6C62.424 55.9313 62.1554 56.2 61.824 56.2H52C51.6686 56.2 51.4 55.9313 51.4 55.6Z" fill="#3E96F4"/>
<path d="M63.7188 44V48H50.1188V44H63.7188ZM63.8548 42.8H49.9748C49.8354 42.8 49.6974 42.8275 49.5688 42.8811C49.4402 42.9347 49.3234 43.0132 49.2252 43.1121C49.1271 43.211 49.0494 43.3284 48.9968 43.4574C48.9442 43.5865 48.9177 43.7246 48.9188 43.864V48.136C48.9177 48.2753 48.9442 48.4135 48.9968 48.5425C49.0494 48.6716 49.1271 48.7889 49.2252 48.8879C49.3234 48.9868 49.4402 49.0653 49.5688 49.1188C49.6974 49.1724 49.8354 49.2 49.9748 49.2H63.8548C64.137 49.2 64.4076 49.0879 64.6071 48.8883C64.8067 48.6888 64.9188 48.4182 64.9188 48.136V43.864C64.9188 43.5818 64.8067 43.3112 64.6071 43.1116C64.4076 42.9121 64.137 42.8 63.8548 42.8Z" fill="#3E96F4"/>
<path fill-rule="evenodd" clip-rule="evenodd" d="M51.4 46C51.4 45.6686 51.6686 45.4 52 45.4H61.824C62.1554 45.4 62.424 45.6686 62.424 46C62.424 46.3313 62.1554 46.6 61.824 46.6H52C51.6686 46.6 51.4 46.3313 51.4 46Z" fill="#3E96F4"/>
<path d="M63.7188 34.4V38.4H50.1188V34.4H63.7188ZM63.8548 33.2H49.9748C49.8354 33.2 49.6974 33.2275 49.5688 33.2811C49.4402 33.3347 49.3234 33.4132 49.2252 33.5121C49.1271 33.611 49.0494 33.7284 48.9968 33.8574C48.9442 33.9864 48.9177 34.1246 48.9188 34.264V38.536C48.9177 38.6753 48.9442 38.8135 48.9968 38.9425C49.0494 39.0716 49.1271 39.1889 49.2252 39.2879C49.3234 39.3868 49.4402 39.4653 49.5688 39.5188C49.6974 39.5724 49.8354 39.6 49.9748 39.6H63.8548C64.137 39.6 64.4076 39.4879 64.6071 39.2883C64.8067 39.0888 64.9188 38.8182 64.9188 38.536V34.264C64.9188 33.9818 64.8067 33.7112 64.6071 33.5116C64.4076 33.3121 64.137 33.2 63.8548 33.2Z" fill="#3E96F4"/>
<path fill-rule="evenodd" clip-rule="evenodd" d="M51.4 36.4C51.4 36.0686 51.6686 35.8 52 35.8H61.824C62.1554 35.8 62.424 36.0686 62.424 36.4C62.424 36.7313 62.1554 37 61.824 37H52C51.6686 37 51.4 36.7313 51.4 36.4Z" fill="#3E96F4"/>
<path fill-rule="evenodd" clip-rule="evenodd" d="M39.1129 36.0852C39.2221 35.908 39.4155 35.8 39.6237 35.8H49.3597C49.6911 35.8 49.9597 36.0686 49.9597 36.4C49.9597 36.7313 49.6911 37 49.3597 37H39.9588L36.5265 42.5707C36.3527 42.8528 35.9831 42.9406 35.701 42.7668C35.4188 42.593 35.331 42.2234 35.5049 41.9412L39.1129 36.0852Z" fill="#3E96F4"/>
<path fill-rule="evenodd" clip-rule="evenodd" d="M35.7007 49.3051C35.9827 49.1311 36.3523 49.2186 36.5263 49.5006L39.9585 55.0637H49.3597C49.6911 55.0637 49.9597 55.3323 49.9597 55.6637C49.9597 55.9951 49.6911 56.2637 49.3597 56.2637H39.6237C39.4156 56.2637 39.2223 56.1558 39.1131 55.9787L35.5051 50.1307C35.3311 49.8487 35.4186 49.479 35.7007 49.3051Z" fill="#3E96F4"/>
<defs>
<filter id="filter0_d_0_340" x="0" y="0" width="92" height="92" filterUnits="userSpaceOnUse" color-interpolation-filters="sRGB">
<feFlood flood-opacity="0" result="BackgroundImageFix"/>
<feColorMatrix in="SourceAlpha" type="matrix" values="0 0 0 0 0 0 0 0 0 0 0 0 0 0 0 0 0 0 127 0" result="hardAlpha"/>
<feOffset/>
<feGaussianBlur stdDeviation="3"/>
<feComposite in2="hardAlpha" operator="out"/>
<feColorMatrix type="matrix" values="0 0 0 0 0.243137 0 0 0 0 0.588235 0 0 0 0 0.956863 0 0 0 0.25 0"/>
<feBlend mode="normal" in2="BackgroundImageFix" result="effect1_dropShadow_0_340"/>
<feBlend mode="normal" in="SourceGraphic" in2="effect1_dropShadow_0_340" result="shape"/>
</filter>
<linearGradient id="paint0_linear_0_340" x1="87.5912" y1="86.1293" x2="27.665" y2="15.2677" gradientUnits="userSpaceOnUse">
<stop stop-color="#D6EAFF"/>
<stop offset="1" stop-color="white"/>
</linearGradient>
</defs>
</svg>
