<svg width="42" height="42" viewBox="0 0 42 42" fill="none" xmlns="http://www.w3.org/2000/svg">
<g clip-path="url(#clip0_1_340)">
<path d="M10.5117 1.77832C10.6674 1.83655 10.8219 1.90127 10.9756 1.97168L12.5781 1.05762L15.2246 3.70508L14.3096 5.30762C14.38 5.46071 14.4456 5.61568 14.5039 5.77148L16.2822 6.25684V7.42773H20.3223V6.75C20.3225 5.62989 21.2344 4.71796 22.3545 4.71777H33.1934C34.3136 4.71777 35.2253 5.62977 35.2256 6.75V7.42773H37.2578C39.872 7.42773 42 9.55508 42 12.1699V16.9121C41.9998 19.5268 39.8719 21.6533 37.2578 21.6533H28.4512V22.3311C28.4512 23.4515 27.5394 24.3633 26.4189 24.3633H15.5811C14.4606 24.3633 13.5488 23.4515 13.5488 22.3311V21.6533H4.74219C2.87454 21.6533 1.35449 23.1734 1.35449 25.041V30.46C1.35449 32.3276 2.87454 33.8477 4.74219 33.8477H6.77441V33.1699C6.77441 32.0495 7.68619 31.1377 8.80664 31.1377H19.6455C20.7658 31.1379 21.6777 32.0496 21.6777 33.1699V33.8477H27.1309C27.4743 30.0555 30.6686 27.0732 34.5488 27.0732C38.6571 27.0735 41.9999 30.4161 42 34.5244C42 38.6328 38.6572 41.9763 34.5488 41.9766C30.6686 41.9766 27.4743 38.9943 27.1309 35.2021H21.6777V35.8799C21.6775 37.0001 20.7657 37.9119 19.6455 37.9121H8.80664C7.68631 37.9121 6.77461 37.0002 6.77441 35.8799V35.2021H4.74219C2.12803 35.2021 0 33.0741 0 30.46V25.041C0 22.4269 2.12803 20.2988 4.74219 20.2988H13.5488V19.6211C13.549 18.5008 14.4607 17.5889 15.5811 17.5889H26.4189C27.5393 17.5889 28.451 18.5008 28.4512 19.6211V20.2988H37.2578C39.1253 20.2988 40.6453 18.7796 40.6455 16.9121V12.1699C40.6455 10.3023 39.1255 8.7832 37.2578 8.7832H35.2256V9.45996C35.2256 10.5804 34.3138 11.4922 33.1934 11.4922H22.3545C21.2342 11.492 20.3223 10.5803 20.3223 9.45996V8.7832H16.2812V10L14.5029 10.4863C14.4447 10.642 14.3799 10.7972 14.3096 10.9502L15.2246 12.5537L12.5771 15.2002L10.9746 14.2861C10.8209 14.3565 10.6658 14.4213 10.5107 14.4795L10.0244 16.2578H6.28027L5.79395 14.4795C5.63831 14.4213 5.48398 14.3565 5.33105 14.2861L3.72754 15.2002L1.08008 12.5537L1.99609 10.9512C1.92566 10.7981 1.86001 10.6431 1.80176 10.4873L0.0234375 10.001V6.25684L1.80176 5.77148C1.86001 5.6157 1.92565 5.4607 1.99609 5.30762L1.08105 3.70508L3.72852 1.05762L5.33105 1.97168C5.48296 1.90116 5.63804 1.83692 5.79492 1.77832L6.28125 0H10.0254L10.5117 1.77832ZM34.5488 28.4277C31.1869 28.4277 28.4513 31.1625 28.4512 34.5244C28.4512 37.8864 31.1868 40.6211 34.5488 40.6211C37.9107 40.6209 40.6455 37.8863 40.6455 34.5244C40.6454 31.1626 37.9106 28.428 34.5488 28.4277ZM38.4121 32.2939L32.5137 38.1924L30.6797 36.3584L31.6377 35.4004L32.5137 36.2764L37.4541 31.3359L38.4121 32.2939ZM8.80664 32.4922C8.627 32.4922 8.45418 32.5634 8.32715 32.6904C8.20011 32.8175 8.12891 32.9903 8.12891 33.1699V35.8799C8.129 36.0593 8.20033 36.2315 8.32715 36.3584C8.45419 36.4854 8.62698 36.5566 8.80664 36.5566H19.6455C19.825 36.5565 19.9971 36.4854 20.124 36.3584C20.251 36.2314 20.3222 36.0594 20.3223 35.8799V33.1699C20.3223 32.9903 20.2511 32.8175 20.124 32.6904C19.9971 32.5636 19.8249 32.4923 19.6455 32.4922H8.80664ZM10.8389 35.2021H9.48438V33.8477H10.8389V35.2021ZM13.5488 35.2021H12.1943V33.8477H13.5488V35.2021ZM16.2588 35.2021H14.9033V33.8477H16.2588V35.2021ZM18.9678 35.2021H17.6133V33.8477H18.9678V35.2021ZM15.5811 18.9443C15.2072 18.9443 14.9035 19.248 14.9033 19.6211V22.3311C14.9033 22.5107 14.9745 22.6835 15.1016 22.8105C15.2286 22.9375 15.4015 23.0088 15.5811 23.0088H26.4189C26.5985 23.0088 26.7714 22.9375 26.8984 22.8105C27.0255 22.6835 27.0967 22.5107 27.0967 22.3311V19.6211C27.0965 19.248 26.7928 18.9443 26.4189 18.9443H15.5811ZM17.6133 21.6533H16.2588V20.2988H17.6133V21.6533ZM20.3232 21.6533H18.9678V20.2988H20.3232V21.6533ZM23.0332 21.6533H21.6777V20.2988H23.0332V21.6533ZM25.7422 21.6533H24.3877V20.2988H25.7422V21.6533ZM6.90723 2.84082L6.55273 2.9502C6.23212 3.05033 5.92163 3.18033 5.625 3.33789L5.29492 3.51172L3.95508 2.74707L2.77051 3.93164L3.53613 5.27246L3.36133 5.60254C3.20157 5.90381 3.07144 6.21584 2.97461 6.5293L2.86523 6.88574L1.37891 7.29102V8.9668L2.86523 9.37305L2.97363 9.72949C3.07363 10.0501 3.20362 10.3607 3.36133 10.6572L3.53613 10.9863L2.77051 12.3271L3.95605 13.5117L5.29688 12.7471L5.62598 12.9209C5.92248 13.0784 6.23311 13.2079 6.55371 13.3076L6.90918 13.418L7.31641 14.9033H8.99121L9.39844 13.418L9.75391 13.3076C10.0745 13.2081 10.3853 13.0786 10.6816 12.9209L11.0098 12.7471L12.3516 13.5117L13.5352 12.3271L12.7705 10.9863L12.9443 10.6572C13.1017 10.3606 13.2318 10.05 13.332 9.72949L13.4414 9.37305L14.9268 8.9668H14.9258V7.29004L13.4404 6.88477L13.3301 6.5293C13.2339 6.21565 13.1032 5.90301 12.9434 5.60156L12.7686 5.27246L13.5342 3.93164L12.3496 2.74707L11.0088 3.51172L10.6807 3.33789C10.3779 3.17734 10.0649 3.04707 9.75195 2.9502L9.39746 2.84082L8.99023 1.35449H7.31445L6.90723 2.84082ZM8.15039 4.06445C10.3919 4.06445 12.2147 5.88741 12.2148 8.12891C12.2148 10.3705 10.392 12.1934 8.15039 12.1934C5.90884 12.1933 4.08594 10.3705 4.08594 8.12891C4.08604 5.88743 5.9089 4.06449 8.15039 4.06445ZM8.15039 5.41895C6.65609 5.41898 5.44053 6.63462 5.44043 8.12891C5.44043 9.62327 6.65603 10.8388 8.15039 10.8389C9.64478 10.8389 10.8604 9.62329 10.8604 8.12891C10.8603 6.6346 9.64472 5.41895 8.15039 5.41895ZM22.3545 6.07324C21.9809 6.07343 21.678 6.37708 21.6777 6.75V9.45996C21.6777 9.8331 21.9807 10.1375 22.3545 10.1377H33.1934C33.5673 10.1377 33.8711 9.83322 33.8711 9.45996V6.75C33.8708 6.37696 33.5671 6.07324 33.1934 6.07324H22.3545ZM24.3848 8.7832H23.0303V7.42773H24.3848V8.7832ZM27.0947 8.7832H25.7393V7.42773H27.0947V8.7832ZM29.8037 8.7832H28.4492V7.42773H29.8037V8.7832ZM32.5137 8.7832H31.1592V7.42773H32.5137V8.7832Z" fill="#3E96F4"/>
</g>
<defs>
<clipPath id="clip0_1_340">
<rect width="42" height="42" fill="white"/>
</clipPath>
</defs>
</svg>
