<svg width="62" height="62" viewBox="0 0 62 62" fill="none" xmlns="http://www.w3.org/2000/svg">
<path id="Union" fill-rule="evenodd" clip-rule="evenodd" d="M53.1 43.3H59.7C60.7 43.3 61.6 44.1 61.5 45.1V59.9C61.5 61 60.6 61.8 59.6 61.8H44.8C43.7 61.8 42.9 60.9 42.9 59.9V52.1C42.9 51.6 43.2 51.3 43.7 51.3C44.2 51.3 44.5 51.7 44.5 52.1V59.9C44.5 60.1 44.7 60.3 44.9 60.3H59.7C59.9 60.3 60.1 60.1 60.1 59.9V45.1C60.1 44.9 59.9 44.7 59.7 44.7H55.2V48.6C55.2 49.1 54.9 49.6 54.5 49.8C54.3 49.9 54.1 50 53.9 50C53.7 50 53.4 49.9 53.2 49.8L52.4 49.2L51.6 49.8C51.1 50.1 50.6 50.1 50.2 49.9C49.8 49.6 49.5 49.2 49.5 48.7V44.8H45C44.8 44.8 44.6 45 44.6 45.2V48C44.6 48.5 44.3 48.8 43.8 48.8C43.3 48.8 43 48.4 43 48V45.2C43 44.1 43.9 43.3 44.9 43.3H51.5V39.7H31.5V43.3H38.1C38.6 43.3 39 43.5 39.4 43.9C39.8 44.2 40 44.7 40 45.2V60C40 60.2 40 60.5 39.9 60.7L39.9 60.7C39.8 60.9 39.7 61.1 39.5 61.3C39.3 61.5 39.1 61.6 38.9 61.7L38.9 61.7C38.7 61.8 38.5 61.8 38.2 61.8H23.4C22.9 61.8 22.5 61.6 22.1 61.2C21.7 60.9 21.5 60.4 21.5 59.9V45.1C21.5 44.6 21.7 44.2 22.1 43.8C22.4 43.4 22.9 43.2 23.4 43.2H30V39.6H10V43.2H16.6C17.7 43.2 18.5 44.1 18.5 45.1V53.2C18.5 53.7 18.2 54 17.7 54C17.2 54 16.9 53.6 16.9 53.2V45.1C16.9 44.9 16.7 44.7 16.5 44.7H12V48.6C12 49.1 11.7 49.6 11.3 49.8C11.1 49.9 10.9 50 10.7 50C10.5 50 10.2 49.9 10 49.8L9.2 49.2L8.40001 49.8C7.90001 50.1 7.4 50.1 7 49.9C6.6 49.6 6.3 49.2 6.3 48.7V44.8H1.8C1.6 44.8 1.40001 45 1.40001 45.2V60C1.40001 60.2 1.6 60.4 1.8 60.4H16.6C16.8 60.4 17 60.2 17 60V57.6C17 57.1 17.3 56.8 17.8 56.8C18.3 56.8 18.6 57.2 18.6 57.6V60C18.6 61.1 17.7 61.9 16.7 61.9H1.90001C0.800009 61.9 0 61 0 60V45.2C0 44.1 0.900009 43.3 1.90001 43.3H8.5V39C8.5 38.5 8.9 38.2 9.3 38.2H30V34.6H29.2C28.8 34.6 28.4 34.5 28.1 34.2C27.8 33.9 27.6 33.5 27.5 33.1L27 29.8C26.2 29.6 25.4 29.3 24.7 28.9L22 30.9C21.6 31.1 21.2 31.2 20.8 31.2C20.4 31.2 20 31 19.7 30.7L17.4 28.4C17.1 28.1 16.9 27.7 16.9 27.3C16.8 26.8 17 26.4 17.2 26.1L19.2 23.4C19.0886 23.103 18.9635 22.8198 18.8399 22.5401C18.6306 22.0665 18.4258 21.603 18.3 21.1L15 20.6C14.5 20.5 14.2 20.3 13.9 20C13.6 19.7 13.5 19.3 13.5 18.9V15.7C13.5 15.3 13.6 14.9 13.9 14.6C14.2 14.3 14.6 14.1 15 14L18.3 13.5C18.5 12.7 18.8 11.9 19.2 11.2L17.2 8.5C17 8.1 16.9 7.7 16.9 7.3C16.9 6.9 17.1 6.50001 17.4 6.20001L19.7 3.90001C20 3.60001 20.4 3.40001 20.8 3.40001C21.3 3.30001 21.7 3.50001 22 3.70001L24.7 5.70001C24.997 5.58863 25.2802 5.46347 25.5599 5.33987C26.0336 5.13056 26.497 4.92575 27 4.8L27.5 1.5C27.6 1 27.8 0.700009 28.1 0.400009C28.4 0.100009 28.8 0 29.2 0H32.4C32.8 0 33.2 0.100009 33.5 0.400009C33.8 0.700009 34 1.1 34.1 1.5L34.6 4.8C35.4 5 36.2 5.30001 36.9 5.70001L39.6 3.70001C40 3.50001 40.4 3.40001 40.8 3.40001C41.2 3.40001 41.6 3.60001 41.9 3.90001L44.2 6.20001C44.5 6.50001 44.7 6.9 44.7 7.3C44.8 7.8 44.6 8.2 44.4 8.5L42.4 11.2C42.4651 11.3519 42.5349 11.5085 42.6064 11.6688L42.6064 11.6688L42.6064 11.6689C42.8642 12.2473 43.1434 12.8736 43.3 13.5L46.6 14C47.1 14.1 47.4 14.3 47.7 14.6C48 14.9 48.1 15.3 48.1 15.7V18.9C48.1 19.3 48 19.7 47.7 20C47.4 20.3 47 20.5 46.6 20.6L43.3 21.1C43.1 21.9 42.8 22.7 42.4 23.4L44.4 26.1C44.6 26.5 44.7 26.9 44.7 27.3C44.7 27.7 44.5 28.1 44.2 28.4L41.9 30.7C41.6 31 41.2 31.2 40.8 31.2C40.3 31.3 39.9 31.1 39.6 30.9L36.9 28.9C36.7481 28.9651 36.5915 29.0349 36.4313 29.1063C35.8529 29.3642 35.2264 29.6434 34.6 29.8L34.1 33.1C34 33.6 33.8 33.9 33.5 34.2C33.2 34.5 32.8 34.6 32.4 34.6H31.6V38.2H52.3C52.8 38.2 53.1 38.6 53.1 39V43.3ZM29 33L29.1 33.1L29.1181 33.1181L29.2 33.2H32.4L32.5 33.1C32.6 33.1 32.6 33.1 32.6 33.0001V33L33.2 29.2C33.2 28.9 33.4 28.7 33.7 28.6C34.7 28.3 35.6 27.9 36.5 27.4C36.7 27.2 37.1 27.2 37.3 27.4L40.4 29.7H40.6L40.7 29.6L43 27.3C43.05 27.3 43.075 27.3 43.0875 27.2875C43.1 27.275 43.1 27.25 43.1 27.2001V27.2V27L40.8 23.9C40.7 23.7 40.6 23.4 40.8 23.1C41.3 22.2 41.7 21.3 42 20.3C42.1 20.1 42.3 19.8 42.6 19.8L46.4 19.2L46.5 19.1C46.6 19.1 46.6 19.1 46.6 19.0001V19V15.8L46.5 15.7C46.5 15.6 46.5 15.6 46.4 15.6L42.6 15C42.3 15 42.1 14.8 42 14.5C41.7 13.5 41.3 12.6 40.8 11.7C40.6 11.5 40.6 11.1 40.8 10.9L43.1 7.8V7.60001L43 7.5L40.7 5.20001C40.7 5.10001 40.7 5.10001 40.6 5.10001H40.4L37.3 7.40001C37.1 7.50001 36.8 7.60001 36.5 7.40001C35.6 6.90001 34.7 6.50001 33.7 6.20001C33.5 6.10001 33.2 5.90001 33.2 5.60001L32.6 1.8L32.5 1.70001C32.5 1.60001 32.5 1.60001 32.4 1.60001H29.2L29.1 1.70001H29.1C29 1.70001 29 1.70001 29 1.8L28.4 5.60001C28.4 5.90001 28.2 6.10001 27.9 6.20001C26.9 6.50001 26 6.90001 25.1 7.40001C24.9 7.60001 24.5 7.60001 24.3 7.40001L21.2 5.10001H21L20.9 5.20001L18.6 7.5C18.5 7.5 18.5 7.50001 18.5 7.60001V7.8L20.8 10.9C20.9 11.1 21 11.4 20.8 11.7C20.3 12.6 19.9 13.5 19.6 14.5C19.5 14.7 19.3 15 19 15L15.2 15.6L15.1 15.7H15.1C15 15.7 15 15.7 15 15.8V19L15.1 19.1V19.1C15.1 19.2 15.1 19.2 15.2 19.2L19 19.8C19.3 19.8 19.5 20 19.6 20.3C19.9 21.3 20.3 22.2 20.8 23.1C21 23.3 21 23.7 20.8 23.9L18.5 27V27.2L18.6 27.3L20.9 29.6V29.6C20.9 29.7 20.9 29.7 21 29.7H21.2L24.3 27.4C24.4 27.3 24.5 27.3 24.7 27.3C24.9 27.3 25 27.3 25.1 27.4C26 27.9 26.9 28.3 27.9 28.6C28.1 28.7 28.4 28.9 28.4 29.2L29 33ZM10.7 48.3V44.8H7.8V48.3L8.5 47.9C9 47.6 9.6 47.6 10 47.9L10.7 48.3ZM32.2 44.8H29.4H29.3V48.3L30 47.9C30.5 47.6 31.1 47.6 31.5 47.9L32.2 48.3V44.8ZM38.6 45.1999C38.6 45.1 38.6 45 38.5 44.9C38.4 44.8 38.3 44.8 38.2001 44.8H38.2H33.7V48.7C33.7 49.2 33.4 49.7 33 49.9C32.5 50.1 32 50.1 31.6 49.8L30.8 49.2L30 49.8C29.8 49.9 29.6 50 29.3 50C29.1 50 28.9 49.9 28.7 49.8C28.3 49.5 28 49.1 28 48.6V44.7H23.5C23.4 44.7 23.3 44.7 23.2 44.8C23.1 44.9 23.1 45 23.1 45.1V59.9C23.1 60 23.1 60.1 23.2 60.2C23.3 60.3 23.4 60.3 23.5 60.3H38.3H38.4L38.5 60.2C38.6 60.2 38.6 60.1 38.6 60.1V60V45.2V45.1999ZM53.5 48.2429V44.8H50.7V48.3L51.4 47.9C51.9 47.6 52.5 47.6 52.9 47.9L53.5 48.2429ZM38.2998 17.5C38.2998 16.1 37.8998 14.8 37.1998 13.6C36.9998 13.2 36.4998 13.1 36.1998 13.3C35.7998 13.5 35.6998 14 35.8998 14.3C36.4998 15.2 36.7998 16.3 36.7998 17.4C36.7998 20.7 34.0998 23.4 30.7998 23.4C27.4998 23.4 24.7998 20.7 24.7998 17.4C24.7998 14.1 27.4998 11.4 30.7998 11.4C31.5998 11.4 32.3998 11.6 33.0998 11.9C33.4998 12.1 33.8998 11.9 34.0998 11.5C34.2998 11.1 34.0998 10.7 33.6998 10.5C32.7998 10.1 31.7998 9.90002 30.7998 9.90002C26.6998 9.90002 23.2998 13.2 23.2998 17.4C23.2998 21.6 26.5998 24.9 30.7998 24.9C34.9998 24.9 38.2998 21.6 38.2998 17.5ZM57.1 58.2C57.5 58.2 57.9 57.9 57.9 57.4C57.9 56.9 57.6 56.6 57.1 56.6H54.3C53.9 56.6 53.5 56.9 53.5 57.4C53.5 57.9 53.8 58.2 54.3 58.2H57.1ZM32.8 56.7001C32.4 56.7001 32 57.0001 32 57.5001C32 58.0001 32.3 58.3001 32.8 58.3001H35.6C36 58.3001 36.4 58.0001 36.4 57.5001C36.4 57.0001 36.1 56.7001 35.6 56.7001H32.8ZM10.5 57.5001C10.5 57.0001 10.9 56.7001 11.3 56.7001H14.1C14.6 56.7001 14.9 57.0001 14.9 57.5001C14.9 58.0001 14.5 58.3001 14.1 58.3001H11.3C10.8 58.3001 10.5 58.0001 10.5 57.5001Z" fill="url(#paint0_linear_1_124)"/>
<defs>
<linearGradient id="paint0_linear_1_124" x1="62" y1="62.0001" x2="15.5" y2="8.00004" gradientUnits="userSpaceOnUse">
<stop stop-color="#31393C"/>
<stop offset="1" stop-color="#3D96F5"/>
</linearGradient>
</defs>
</svg>
