<svg width="63" height="62" viewBox="0 0 63 62" fill="none" xmlns="http://www.w3.org/2000/svg">
<path fill-rule="evenodd" clip-rule="evenodd" d="M7.57541 14.2064C8.08583 14.5834 8.70366 14.7868 9.3382 14.7868H17.2413C17.8794 14.7868 18.5005 14.5811 19.0125 14.2002C19.5245 13.8193 19.9 13.2835 20.0834 12.6723L19.1255 12.3849L20.0834 12.6723L22.6136 4.23813C22.7045 3.93535 22.6468 3.60746 22.4581 3.35385C22.2694 3.10024 21.9719 2.95078 21.6558 2.95078H8.86886C8.31658 2.95078 7.86886 3.39849 7.86886 3.95078C7.86886 4.50306 8.31658 4.95078 8.86886 4.95078H20.3118L18.1677 12.0976C18.1079 12.2968 17.9855 12.4715 17.8187 12.5956C17.6518 12.7198 17.4493 12.7868 17.2413 12.7868H9.3382C9.13137 12.7868 8.92998 12.7205 8.7636 12.5976C8.59723 12.4748 8.47463 12.3018 8.4138 12.1041L8.41379 12.1041L5.33393 2.09455L5.33393 2.09454C5.14731 1.48806 4.77118 0.957377 4.26076 0.580399C3.75034 0.203421 3.13251 0 2.49796 0H1C0.447715 0 0 0.447715 0 1C0 1.55228 0.447715 2 1 2H2.49797C2.7048 2 2.90619 2.06631 3.07257 2.18919C3.23894 2.31207 3.36154 2.48504 3.42238 2.68272L3.42238 2.68274L6.50224 12.6923L6.50224 12.6923C6.68886 13.2988 7.06499 13.8294 7.57541 14.2064ZM22.623 11.8194C22.623 12.3717 23.0708 12.8194 23.623 12.8194H38.3772C38.9295 12.8194 39.3772 12.3717 39.3772 11.8194C39.3772 11.2671 38.9295 10.8194 38.3772 10.8194H23.623C23.0708 10.8194 22.623 11.2671 22.623 11.8194ZM2.95117 18.7048C2.95117 20.3435 4.27949 21.672 5.91836 21.672C7.55706 21.672 8.88554 20.3435 8.88554 18.7048C8.88554 17.0661 7.55706 15.7376 5.91836 15.7376C4.27949 15.7376 2.95117 17.0662 2.95117 18.7048ZM5.91836 19.672C5.38414 19.672 4.95117 19.239 4.95117 18.7048C4.95117 18.1706 5.38414 17.7376 5.91836 17.7376C6.45249 17.7376 6.88554 18.1707 6.88554 18.7048C6.88554 19.2389 6.45249 19.672 5.91836 19.672ZM17.7051 18.7048C17.7051 20.3435 19.0334 21.672 20.6723 21.672C22.311 21.672 23.6394 20.3435 23.6394 18.7048C23.6394 17.0661 22.311 15.7376 20.6723 15.7376C19.0334 15.7376 17.7051 17.0662 17.7051 18.7048ZM20.6723 19.672C20.138 19.672 19.7051 19.239 19.7051 18.7048C19.7051 18.1706 20.138 17.7376 20.6723 17.7376C21.2064 17.7376 21.6394 18.1707 21.6394 18.7048C21.6394 19.2389 21.2064 19.672 20.6723 19.672ZM42.537 21.5211C42.7777 21.6208 43.0356 21.6721 43.2961 21.6721H59.0337H59.0338C59.2943 21.6721 59.5522 21.6209 59.7929 21.5212C60.0335 21.4215 60.2522 21.2754 60.4365 21.0912C60.6207 20.907 60.7668 20.6884 60.8665 20.4477C60.9662 20.207 61.0175 19.949 61.0175 19.6885V3.9508C61.0175 3.69029 60.9662 3.43233 60.8665 3.19166C60.7668 2.95098 60.6207 2.7323 60.4365 2.5481C60.2522 2.36391 60.0335 2.2178 59.7929 2.11813C59.5522 2.01848 59.2943 1.9672 59.0338 1.96721H59.0337H53.1469L53.1316 1.9671L53.1164 1.96721H49.2125L49.1973 1.9671L49.182 1.96721H43.2961C42.77 1.96721 42.2655 2.17619 41.8935 2.54819C41.5215 2.92019 41.3125 3.42472 41.3125 3.9508V4.93439C41.3125 5.48668 41.7602 5.93439 42.3125 5.93439C42.8648 5.93439 43.3125 5.48668 43.3125 4.93439V3.96721H48.1973V8.86877C48.1973 9.42106 48.645 9.86877 49.1973 9.86877H53.1316C53.6839 9.86877 54.1316 9.42106 54.1316 8.86877V3.96721H59.0175V19.6721H43.3125V8.86876C43.3125 8.31648 42.8648 7.86876 42.3125 7.86876C41.7602 7.86876 41.3125 8.31648 41.3125 8.86876V19.6885C41.3125 19.949 41.3638 20.207 41.4635 20.4476C41.5632 20.6883 41.7093 20.9069 41.8935 21.0911C42.0777 21.2753 42.2963 21.4214 42.537 21.5211ZM52.1316 3.96721H50.1973V7.86877H52.1316V3.96721ZM55.0977 13.8032C54.5454 13.8032 54.0977 13.3555 54.0977 12.8032C54.0977 12.2509 54.5454 11.8032 55.0977 11.8032H56.0812C56.6335 11.8032 57.0812 12.2509 57.0812 12.8032C57.0812 13.3555 56.6335 13.8032 56.0812 13.8032H55.0977ZM53.1309 17.7375C52.5786 17.7375 52.1309 17.2898 52.1309 16.7375C52.1309 16.1853 52.5786 15.7375 53.1309 15.7375H56.0816C56.6339 15.7375 57.0816 16.1853 57.0816 16.7375C57.0816 17.2898 56.6339 17.7375 56.0816 17.7375H53.1309ZM10.8535 34.4426C10.8535 34.9949 10.4058 35.4426 9.85352 35.4426C9.30123 35.4426 8.85352 34.9949 8.85352 34.4426V33.459C8.85352 30.7338 11.0628 28.5245 13.788 28.5245H47.2308C48.8513 28.5245 50.1651 27.2107 50.1651 25.59V24.6065C50.1651 24.0542 50.6129 23.6065 51.1651 23.6065C51.7174 23.6065 52.1651 24.0542 52.1651 24.6065V25.59C52.1651 28.3153 49.9559 30.5245 47.2308 30.5245H13.788C12.1673 30.5245 10.8535 31.8384 10.8535 33.459V34.4426ZM1.98384 61.0164H1.98371C1.72325 61.0164 1.46533 60.9651 1.22468 60.8654C0.983983 60.7658 0.765286 60.6197 0.581069 60.4355C0.396852 60.2513 0.250717 60.0326 0.151015 59.7919C0.0513146 59.5512 0 59.2933 0 59.0328V39.3607C0 38.8346 0.208999 38.33 0.581017 37.958C0.953038 37.5859 1.4576 37.377 1.98371 37.377H11.9885C12.7754 37.377 13.5302 37.6896 14.0867 38.2461L18.8359 42.9953C19.3924 43.5518 19.705 44.3065 19.705 45.0935V48.2131C19.705 48.7654 19.2573 49.2131 18.705 49.2131C18.1527 49.2131 17.705 48.7654 17.705 48.2131V45.2787H13.7863C13.2602 45.2787 12.7557 45.0697 12.3837 44.6977C12.0117 44.3257 11.8027 43.8212 11.8027 43.2951V39.377H2V59.0164H17.705V52.1475C17.705 51.5952 18.1527 51.1475 18.705 51.1475C19.2573 51.1475 19.705 51.5952 19.705 52.1475V59.0328C19.705 59.2933 19.6537 59.5512 19.554 59.7919C19.4544 60.0325 19.3082 60.2512 19.1241 60.4354C18.9399 60.6196 18.7212 60.7657 18.4805 60.8654C18.2399 60.965 17.9819 61.0164 17.7214 61.0164H1.98384ZM13.8027 40.7906V43.2787H16.2909L13.8027 40.7906ZM4.93555 45.2787C4.38326 45.2787 3.93555 44.831 3.93555 44.2787C3.93555 43.7264 4.38326 43.2787 4.93555 43.2787H8.86992C9.4222 43.2787 9.86992 43.7264 9.86992 44.2787C9.86992 44.831 9.4222 45.2787 8.86992 45.2787H4.93555ZM4.93555 49.213C4.38326 49.213 3.93555 48.7653 3.93555 48.213C3.93555 47.6607 4.38326 47.213 4.93555 47.213H14.7716C15.3239 47.213 15.7716 47.6607 15.7716 48.213C15.7716 48.7653 15.3239 49.213 14.7716 49.213H4.93555ZM3.93555 52.1476C3.93555 52.6999 4.38326 53.1476 4.93555 53.1476H14.7716C15.3239 53.1476 15.7716 52.6999 15.7716 52.1476C15.7716 51.5953 15.3239 51.1476 14.7716 51.1476H4.93555C4.38326 51.1476 3.93555 51.5953 3.93555 52.1476ZM21.6387 50.1802C21.6387 50.7325 22.0864 51.1802 22.6387 51.1802H36.4092C36.9615 51.1802 37.4092 50.7325 37.4092 50.1802C37.4092 49.6279 36.9615 49.1802 36.4092 49.1802H22.6387C22.0864 49.1802 21.6387 49.6279 21.6387 50.1802ZM41.3438 50.1802C41.3438 55.6036 45.7402 60 51.1635 60C56.5868 60 60.9832 55.6036 60.9832 50.1802C60.9832 48.1139 60.3424 46.2005 59.2518 44.618C58.9384 44.1633 59.053 43.5406 59.5078 43.2272C59.9625 42.9138 60.5852 43.0284 60.8986 43.4831C62.2103 45.3864 62.9832 47.6931 62.9832 50.1802C62.9832 56.7082 57.6913 62 51.1635 62C44.6357 62 39.3438 56.7082 39.3438 50.1802C39.3438 43.6524 44.6357 38.3606 51.1635 38.3606C53.6508 38.3606 55.9573 39.1334 57.8606 40.4451C58.3154 40.7585 58.43 41.3812 58.1166 41.836C57.8032 42.2907 57.1805 42.4053 56.7257 42.0919C55.1432 41.0013 53.23 40.3606 51.1635 40.3606C45.7402 40.3606 41.3438 44.757 41.3438 50.1802ZM51.3029 58.0656C51.8552 58.0656 52.3029 57.6179 52.3029 57.0656V56.106C52.7926 56.0368 53.2331 55.9162 53.6243 55.7444C54.2834 55.4527 54.7872 55.0493 55.1357 54.5341C55.4841 54.0152 55.6584 53.4148 55.6584 52.733C55.6584 52.2292 55.5637 51.7898 55.3743 51.4148C55.1849 51.0398 54.9273 50.7197 54.6016 50.4546C54.2796 50.1894 53.9141 49.9697 53.505 49.7955C53.1197 49.6299 52.719 49.4967 52.3029 49.3961V46.1474C52.4858 46.2127 52.6517 46.298 52.8004 46.4035C53.1944 46.68 53.4179 47.0663 53.4709 47.5625H55.4993C55.4879 46.9072 55.3042 46.3277 54.9482 45.8239C54.5921 45.3163 54.1016 44.9205 53.4766 44.6364C53.1192 44.4708 52.728 44.3528 52.3029 44.2825V43.2951C52.3029 42.7428 51.8552 42.2951 51.3029 42.2951C50.7506 42.2951 50.3029 42.7428 50.3029 43.2951V44.2844C49.8804 44.355 49.4857 44.4723 49.1186 44.6364C48.4747 44.9205 47.9652 45.3201 47.5902 45.8353C47.219 46.3504 47.0334 46.9508 47.0334 47.6364C47.0334 48.4697 47.3099 49.1383 47.8629 49.6421C48.4197 50.1421 49.1773 50.5152 50.1357 50.7614L50.3029 50.8045V54.2618C50.2106 54.2372 50.1207 54.2087 50.0334 54.1762C49.6811 54.0436 49.3951 53.8428 49.1754 53.5739C48.9557 53.305 48.8307 52.9678 48.8004 52.5625H46.7266C46.7569 53.3353 46.9576 53.9906 47.3288 54.5285C47.7038 55.0663 48.2228 55.4754 48.8857 55.7557C49.3098 55.9341 49.7822 56.0557 50.3029 56.1205V57.0656C50.3029 57.6179 50.7506 58.0656 51.3029 58.0656ZM50.3029 48.8473V46.1289C50.2493 46.1468 50.1974 46.1663 50.147 46.1875C49.8326 46.3201 49.5921 46.5 49.4254 46.7273C49.2588 46.9546 49.1735 47.2141 49.1697 47.5057C49.1697 47.7481 49.2247 47.9584 49.3345 48.1364C49.4482 48.3144 49.6016 48.466 49.7947 48.591C49.9506 48.6887 50.12 48.7742 50.3029 48.8473ZM52.3029 51.3648V54.2172C52.3465 54.2026 52.3892 54.1871 52.4311 54.1705C52.7796 54.0303 53.0523 53.8372 53.2493 53.591C53.4463 53.341 53.5466 53.0493 53.5504 52.716C53.5466 52.4129 53.4576 52.1629 53.2834 51.966C53.1091 51.7652 52.8648 51.5985 52.5504 51.466C52.4714 51.4312 52.3888 51.3975 52.3029 51.3648Z" fill="url(#paint0_linear_1_4855)"/>
<defs>
<linearGradient id="paint0_linear_1_4855" x1="64.2359" y1="62.1002" x2="17.9198" y2="6.46384" gradientUnits="userSpaceOnUse">
<stop stop-color="#31393C"/>
<stop offset="1" stop-color="#3D96F5"/>
</linearGradient>
</defs>
</svg>
