<svg width="92" height="92" viewBox="0 0 92 92" fill="none" xmlns="http://www.w3.org/2000/svg">
<g filter="url(#filter0_d_0_344)">
<rect x="6" y="6" width="80" height="80" rx="40" fill="url(#paint0_linear_0_344)"/>
<rect x="7" y="7" width="78" height="78" rx="39" stroke="white" stroke-width="2"/>
</g>
<path d="M54.4693 61.1742H50.1339V57.239L56.5554 53.2258L50.1339 49.2126V44.5548H54.4693V38.7742H50.1339V33.7161H55.9145V23.6H42.9081V33.7161H48.6887V38.7742H44.3532V40.9419H37.85V42.3871H44.3532V44.5548H48.6887V49.2126L42.2671 53.2258L48.6887 57.239V61.1742H44.3532C43.1581 61.1742 42.1855 62.1468 42.1855 63.3419V66.2322C42.1855 67.4274 43.1581 68.4 44.3532 68.4H54.4693C55.6645 68.4 56.6371 67.4274 56.6371 66.2322V63.3419C56.6371 62.1468 55.6645 61.1742 54.4693 61.1742ZM44.3532 25.0451H54.4693V32.2709H44.3532V25.0451ZM45.7984 40.2193H53.0242V43.1097H45.7984V40.2193ZM49.4113 50.4648L53.8284 53.2258L49.4113 55.9868L44.9941 53.2258L49.4113 50.4648ZM55.1919 66.2322C55.1919 66.6304 54.8675 66.9548 54.4693 66.9548H44.3532C43.9551 66.9548 43.6306 66.6304 43.6306 66.2322V63.3419C43.6306 62.9438 43.9551 62.6193 44.3532 62.6193H54.4693C54.8675 62.6193 55.1919 62.9438 55.1919 63.3419V66.2322ZM36.6165 62.4076L38.2734 64.0645H31.9364C31.8286 63.7622 31.6549 63.4877 31.428 63.2607C31.201 63.0338 30.9265 62.8601 30.6242 62.7523V47.4451H29.179V62.7523C28.7576 62.9008 28.3925 63.1762 28.1337 63.5405C27.875 63.9048 27.7353 64.3402 27.7339 64.7871C27.7339 65.9822 28.7065 66.9548 29.9016 66.9548C30.3484 66.9534 30.7839 66.8137 31.1482 66.555C31.5125 66.2962 31.7878 65.9311 31.9364 65.5097H38.2734L36.6165 67.1665L37.6383 68.1883L41.0395 64.7871L37.6383 61.3859L36.6165 62.4076ZM29.9016 65.5097C29.5035 65.5097 29.179 65.1852 29.179 64.7871C29.179 64.3889 29.5035 64.0645 29.9016 64.0645C30.2997 64.0645 30.6242 64.3889 30.6242 64.7871C30.6242 65.1852 30.2997 65.5097 29.9016 65.5097ZM67.4758 51.191V30.6928C67.8972 30.5443 68.2624 30.269 68.5211 29.9046C68.7799 29.5403 68.9195 29.1049 68.921 28.658C68.921 27.4629 67.9484 26.4903 66.7532 26.4903C66.3064 26.4917 65.8709 26.6314 65.5066 26.8901C65.1423 27.1489 64.867 27.514 64.7184 27.9355H57.3597V29.3806H64.7184C64.8262 29.6829 64.9999 29.9575 65.2269 30.1844C65.4538 30.4113 65.7283 30.585 66.0306 30.6928V51.1917C65.7283 51.2995 65.4538 51.4732 65.2269 51.7001C64.9999 51.9271 64.8262 52.2016 64.7184 52.5039H59.8266L61.4834 50.847L60.4617 49.8253L57.0605 53.2258L60.4617 56.627L61.4834 55.6052L59.8266 53.9484H64.7184C64.867 54.3698 65.1423 54.7349 65.5066 54.9937C65.8709 55.2524 66.3064 55.3921 66.7532 55.3935C67.9484 55.3935 68.921 54.4209 68.921 53.2258C68.9195 52.7789 68.7799 52.3435 68.5211 51.9792C68.2624 51.6149 67.8972 51.3395 67.4758 51.191ZM66.7532 27.9355C67.1514 27.9355 67.4758 28.2599 67.4758 28.658C67.4758 29.0562 67.1514 29.3806 66.7532 29.3806C66.3551 29.3806 66.0306 29.0562 66.0306 28.658C66.0306 28.2599 66.3551 27.9355 66.7532 27.9355ZM66.7532 53.9484C66.3551 53.9484 66.0306 53.6239 66.0306 53.2258C66.0306 52.8276 66.3551 52.5032 66.7532 52.5032C67.1514 52.5032 67.4758 52.8276 67.4758 53.2258C67.4758 53.6239 67.1514 53.9484 66.7532 53.9484ZM36.2032 41.6645L29.9016 37.1635L23.6 41.6645L29.9016 46.1654L36.2032 41.6645ZM29.9016 38.9396L33.7161 41.6645L29.9016 44.3893L26.0871 41.6645L29.9016 38.9396Z" fill="#3E96F4"/>
<path d="M45.7984 26.4903H53.0242V27.9355H45.7984V26.4903ZM45.7984 29.3806H50.1339V30.8258H45.7984V29.3806ZM51.579 29.3806H53.0242V30.8258H51.579V29.3806ZM63.8629 64.0645H65.3081V65.5097H63.8629V64.0645ZM60.9726 64.0645H62.4177V65.5097H60.9726V64.0645ZM58.0822 64.0645H59.5274V65.5097H58.0822V64.0645ZM37.1274 29.3806H38.5726V30.8258H37.1274V29.3806ZM40.0177 29.3806H41.4629V30.8258H40.0177V29.3806ZM34.2371 29.3806H35.6822V30.8258H34.2371V29.3806Z" fill="#3E96F4"/>
<defs>
<filter id="filter0_d_0_344" x="0" y="0" width="92" height="92" filterUnits="userSpaceOnUse" color-interpolation-filters="sRGB">
<feFlood flood-opacity="0" result="BackgroundImageFix"/>
<feColorMatrix in="SourceAlpha" type="matrix" values="0 0 0 0 0 0 0 0 0 0 0 0 0 0 0 0 0 0 127 0" result="hardAlpha"/>
<feOffset/>
<feGaussianBlur stdDeviation="3"/>
<feComposite in2="hardAlpha" operator="out"/>
<feColorMatrix type="matrix" values="0 0 0 0 0.243137 0 0 0 0 0.588235 0 0 0 0 0.956863 0 0 0 0.25 0"/>
<feBlend mode="normal" in2="BackgroundImageFix" result="effect1_dropShadow_0_344"/>
<feBlend mode="normal" in="SourceGraphic" in2="effect1_dropShadow_0_344" result="shape"/>
</filter>
<linearGradient id="paint0_linear_0_344" x1="87.5912" y1="86.1293" x2="27.665" y2="15.2677" gradientUnits="userSpaceOnUse">
<stop stop-color="#D6EAFF"/>
<stop offset="1" stop-color="white"/>
</linearGradient>
</defs>
</svg>
