<svg width="36" height="36" viewBox="0 0 36 36" fill="none" xmlns="http://www.w3.org/2000/svg">
<g clip-path="url(#clip0_2553_4977)">
<path fill-rule="evenodd" clip-rule="evenodd" d="M16.2 1.8H1.8V7.2H16.2V1.8ZM1.8 0C0.805888 0 0 0.805887 0 1.8V7.2C0 8.19411 0.805888 9 1.8 9H16.2C17.1941 9 18 8.19411 18 7.2V1.8C18 0.805888 17.1941 0 16.2 0H1.8Z" fill="#3DA4C2"/>
<path fill-rule="evenodd" clip-rule="evenodd" d="M34.2 28.8H19.8V34.2H34.2V28.8ZM19.8 27C18.8059 27 18 27.8059 18 28.8V34.2C18 35.1941 18.8059 36 19.8 36H34.2C35.1941 36 36 35.1941 36 34.2V28.8C36 27.8059 35.1941 27 34.2 27H19.8Z" fill="#3DA4C2"/>
<path fill-rule="evenodd" clip-rule="evenodd" d="M25.2 15.3H10.8V20.7H25.2V15.3ZM10.8 13.5C9.80586 13.5 9 14.3059 9 15.3V20.7C9 21.6941 9.80586 22.5 10.8 22.5H25.2C26.1941 22.5 27 21.6941 27 20.7V15.3C27 14.3059 26.1941 13.5 25.2 13.5H10.8Z" fill="#3DA4C2"/>
<path fill-rule="evenodd" clip-rule="evenodd" d="M33.2996 5.4001H17.0996V3.6001H33.2996C34.7908 3.6001 35.9996 4.80893 35.9996 6.3001V16.2001C35.9996 17.6913 34.7908 18.9001 33.2996 18.9001H29.6996V17.1001H33.2996C33.7967 17.1001 34.1996 16.6972 34.1996 16.2001V6.3001C34.1996 5.80305 33.7967 5.4001 33.2996 5.4001Z" fill="#3DA4C2"/>
<path fill-rule="evenodd" clip-rule="evenodd" d="M32.1368 14.6635C32.4882 15.0149 32.4882 15.5848 32.1368 15.9363L30.0731 17.9999L32.1368 20.0635C32.4882 20.4149 32.4882 20.9848 32.1368 21.3363C31.7853 21.6877 31.2154 21.6877 30.864 21.3363L28.164 18.6363C27.8125 18.2848 27.8125 17.7149 28.164 17.3635L30.864 14.6635C31.2154 14.312 31.7853 14.312 32.1368 14.6635Z" fill="#3DA4C2"/>
<path fill-rule="evenodd" clip-rule="evenodd" d="M2.7 18.9001H9.9V17.1001H2.7C1.20884 17.1001 0 18.3089 0 19.8001V29.7001C0 31.1913 1.20884 32.4001 2.7 32.4001H15.3V30.6001H2.7C2.20294 30.6001 1.8 30.1972 1.8 29.7001V19.8001C1.8 19.303 2.20295 18.9001 2.7 18.9001Z" fill="#3DA4C2"/>
<path fill-rule="evenodd" clip-rule="evenodd" d="M12.8632 28.1635C12.5117 28.5149 12.5117 29.0848 12.8632 29.4363L14.9268 31.4999L12.8632 33.5635C12.5117 33.9149 12.5117 34.4848 12.8632 34.8363C13.2146 35.1877 13.7845 35.1877 14.136 34.8363L16.836 32.1363C17.1874 31.7848 17.1874 31.2149 16.836 30.8635L14.136 28.1635C13.7845 27.812 13.2146 27.812 12.8632 28.1635Z" fill="#3DA4C2"/>
</g>
<defs>
<clipPath id="clip0_2553_4977">
<rect width="36" height="36" fill="white"/>
</clipPath>
</defs>
</svg>
