<svg width="40" height="40" viewBox="0 0 40 40" fill="none" xmlns="http://www.w3.org/2000/svg">
<path fill-rule="evenodd" clip-rule="evenodd" d="M18 2H2V8H18V2ZM2 0C0.895431 0 0 0.89543 0 2V8C0 9.10457 0.895431 10 2 10H18C19.1046 10 20 9.10457 20 8V2C20 0.895431 19.1046 0 18 0H2Z" fill="url(#paint0_linear_0_874)"/>
<path fill-rule="evenodd" clip-rule="evenodd" d="M38 32H22V38H38V32ZM22 30C20.8954 30 20 30.8954 20 32V38C20 39.1046 20.8954 40 22 40H38C39.1046 40 40 39.1046 40 38V32C40 30.8954 39.1046 30 38 30H22Z" fill="url(#paint1_linear_0_874)"/>
<path fill-rule="evenodd" clip-rule="evenodd" d="M28 17H12V23H28V17ZM12 15C10.8954 15 10 15.8954 10 17V23C10 24.1046 10.8954 25 12 25H28C29.1046 25 30 24.1046 30 23V17C30 15.8954 29.1046 15 28 15H12Z" fill="url(#paint2_linear_0_874)"/>
<path fill-rule="evenodd" clip-rule="evenodd" d="M37 6H19V4H37C38.6569 4 40 5.34315 40 7V18C40 19.6569 38.6569 21 37 21H33V19H37C37.5523 19 38 18.5523 38 18V7C38 6.44772 37.5523 6 37 6Z" fill="url(#paint3_linear_0_874)"/>
<path fill-rule="evenodd" clip-rule="evenodd" d="M35.7071 16.2929C36.0976 16.6834 36.0976 17.3166 35.7071 17.7071L33.4142 20L35.7071 22.2929C36.0976 22.6834 36.0976 23.3166 35.7071 23.7071C35.3166 24.0976 34.6834 24.0976 34.2929 23.7071L31.2929 20.7071C30.9024 20.3166 30.9024 19.6834 31.2929 19.2929L34.2929 16.2929C34.6834 15.9024 35.3166 15.9024 35.7071 16.2929Z" fill="url(#paint4_linear_0_874)"/>
<path fill-rule="evenodd" clip-rule="evenodd" d="M3 21H11V19H3C1.34315 19 0 20.3431 0 22V33C0 34.6569 1.34315 36 3 36H17V34H3C2.44771 34 2 33.5523 2 33V22C2 21.4477 2.44772 21 3 21Z" fill="url(#paint5_linear_0_874)"/>
<path fill-rule="evenodd" clip-rule="evenodd" d="M14.2929 31.2929C13.9024 31.6834 13.9024 32.3166 14.2929 32.7071L16.5858 35L14.2929 37.2929C13.9024 37.6834 13.9024 38.3166 14.2929 38.7071C14.6834 39.0976 15.3166 39.0976 15.7071 38.7071L18.7071 35.7071C19.0976 35.3166 19.0976 34.6834 18.7071 34.2929L15.7071 31.2929C15.3166 30.9024 14.6834 30.9024 14.2929 31.2929Z" fill="url(#paint6_linear_0_874)"/>
<defs>
<linearGradient id="paint0_linear_0_874" x1="40.3202" y1="40.3815" x2="10.0273" y2="5.256" gradientUnits="userSpaceOnUse">
<stop stop-color="#31393C"/>
<stop offset="1" stop-color="#3D96F5"/>
</linearGradient>
<linearGradient id="paint1_linear_0_874" x1="40.3202" y1="40.3815" x2="10.0273" y2="5.256" gradientUnits="userSpaceOnUse">
<stop stop-color="#31393C"/>
<stop offset="1" stop-color="#3D96F5"/>
</linearGradient>
<linearGradient id="paint2_linear_0_874" x1="40.3202" y1="40.3815" x2="10.0273" y2="5.256" gradientUnits="userSpaceOnUse">
<stop stop-color="#31393C"/>
<stop offset="1" stop-color="#3D96F5"/>
</linearGradient>
<linearGradient id="paint3_linear_0_874" x1="40.3202" y1="40.3815" x2="10.0273" y2="5.256" gradientUnits="userSpaceOnUse">
<stop stop-color="#31393C"/>
<stop offset="1" stop-color="#3D96F5"/>
</linearGradient>
<linearGradient id="paint4_linear_0_874" x1="40.3202" y1="40.3815" x2="10.0273" y2="5.256" gradientUnits="userSpaceOnUse">
<stop stop-color="#31393C"/>
<stop offset="1" stop-color="#3D96F5"/>
</linearGradient>
<linearGradient id="paint5_linear_0_874" x1="40.3202" y1="40.3815" x2="10.0273" y2="5.256" gradientUnits="userSpaceOnUse">
<stop stop-color="#31393C"/>
<stop offset="1" stop-color="#3D96F5"/>
</linearGradient>
<linearGradient id="paint6_linear_0_874" x1="40.3202" y1="40.3815" x2="10.0273" y2="5.256" gradientUnits="userSpaceOnUse">
<stop stop-color="#31393C"/>
<stop offset="1" stop-color="#3D96F5"/>
</linearGradient>
</defs>
</svg>
