<svg width="42" height="42" viewBox="0 0 42 42" fill="none" xmlns="http://www.w3.org/2000/svg">
<path d="M21.0003 26.6132C22.1085 26.6132 23.1918 26.2845 24.1133 25.6688C25.0347 25.0532 25.7529 24.178 26.177 23.1542C26.6011 22.1303 26.712 21.0037 26.4958 19.9167C26.2796 18.8298 25.746 17.8314 24.9623 17.0478C24.1787 16.2641 23.1803 15.7305 22.0934 15.5143C21.0065 15.298 19.8799 15.409 18.856 15.8331C17.8322 16.2572 16.9571 16.9754 16.3414 17.8969C15.7257 18.8183 15.397 19.9017 15.397 21.0099C15.3997 22.4952 15.9908 23.9189 17.0411 24.9691C18.0913 26.0194 19.515 26.6106 21.0003 26.6132ZM17.2253 21.0099C17.2233 20.2628 17.443 19.532 17.8567 18.9099C18.2703 18.2878 18.8592 17.8024 19.5488 17.5151C20.2384 17.2279 20.9977 17.1517 21.7307 17.2963C22.4636 17.4408 23.1372 17.7996 23.6661 18.3271C24.195 18.8547 24.5555 19.5273 24.702 20.2599C24.8485 20.9924 24.7743 21.752 24.4889 22.4424C24.2034 23.1327 23.7196 23.7229 23.0986 24.1382C22.4776 24.5534 21.7473 24.7751 21.0003 24.7751C20.0016 24.7725 19.0444 24.3753 18.3373 23.67C17.6302 22.9647 17.2305 22.0086 17.2253 21.0099Z" fill="#3E96F4"/>
<path d="M21.0003 23.9351C21.5866 23.9351 22.1598 23.7612 22.6474 23.4354C23.1349 23.1096 23.5149 22.6466 23.7393 22.1049C23.9637 21.5632 24.0224 20.9671 23.908 20.392C23.7936 19.8169 23.5112 19.2886 23.0966 18.874C22.682 18.4594 22.1537 18.177 21.5786 18.0626C21.0036 17.9482 20.4075 18.0069 19.8657 18.2313C19.324 18.4557 18.861 18.8357 18.5352 19.3232C18.2095 19.8108 18.0356 20.384 18.0356 20.9704C18.0356 21.7566 18.348 22.5107 18.9039 23.0667C19.4599 23.6227 20.214 23.9351 21.0003 23.9351ZM19.9033 20.9704C19.8889 20.8182 19.9063 20.6647 19.9546 20.5197C20.0029 20.3748 20.0809 20.2415 20.1837 20.1284C20.2866 20.0153 20.4119 19.925 20.5516 19.8632C20.6914 19.8013 20.8425 19.7694 20.9953 19.7694C21.1481 19.7694 21.2993 19.8013 21.439 19.8632C21.5788 19.925 21.7041 20.0153 21.8069 20.1284C21.9097 20.2415 21.9878 20.3748 22.0361 20.5197C22.0843 20.6647 22.1018 20.8182 22.0873 20.9704C22.0614 21.242 21.9352 21.4943 21.7333 21.6779C21.5314 21.8616 21.2682 21.9633 20.9953 21.9633C20.7224 21.9633 20.4593 21.8616 20.2574 21.6779C20.0554 21.4943 19.9292 21.242 19.9033 20.9704Z" fill="#3E96F4"/>
<path d="M39.7468 15.4066H33.0467C32.7508 15.4066 32.4578 15.4649 32.1845 15.5781C31.9111 15.6913 31.6627 15.8573 31.4535 16.0665C31.2443 16.2758 31.0783 16.5241 30.9651 16.7975C30.8518 17.0709 30.7936 17.3639 30.7936 17.6598V24.3501C30.7936 24.9486 31.0306 25.5227 31.4529 25.9469C31.8752 26.371 32.4482 26.6106 33.0467 26.6132H39.7468C40.3453 26.6106 40.9184 26.371 41.3407 25.9469C41.7629 25.5227 42 24.9486 42 24.3501V17.6598C42 17.3639 41.9417 17.0709 41.8285 16.7975C41.7153 16.5241 41.5493 16.2758 41.3401 16.0665C41.1308 15.8573 40.8825 15.6913 40.6091 15.5781C40.3357 15.4649 40.0427 15.4066 39.7468 15.4066ZM40.1619 17.6598V24.3501C40.1632 24.4054 40.1535 24.4605 40.1332 24.512C40.1129 24.5635 40.0826 24.6104 40.0439 24.65C40.0052 24.6896 39.959 24.7211 39.908 24.7425C39.857 24.764 39.8022 24.7751 39.7468 24.7751H33.0467C32.9914 24.7751 32.9366 24.764 32.8856 24.7425C32.8345 24.7211 32.7883 24.6896 32.7497 24.65C32.711 24.6104 32.6806 24.5635 32.6604 24.512C32.6401 24.4605 32.6303 24.4054 32.6317 24.3501V17.6598C32.6303 17.6044 32.6401 17.5494 32.6604 17.4979C32.6806 17.4464 32.711 17.3995 32.7497 17.3599C32.7883 17.3203 32.8345 17.2888 32.8856 17.2673C32.9366 17.2459 32.9914 17.2348 33.0467 17.2348H39.7468C39.8022 17.2348 39.857 17.2459 39.908 17.2673C39.959 17.2888 40.0052 17.3203 40.0439 17.3599C40.0826 17.3995 40.1129 17.4464 40.1332 17.4979C40.1535 17.5494 40.1632 17.6044 40.1619 17.6598Z" fill="#3E96F4"/>
<path d="M6.27576 11.2165H12.966C13.5645 11.2139 14.1376 10.9743 14.5598 10.5502C14.9821 10.126 15.2192 9.5519 15.2192 8.95341V2.26306C15.2192 1.66548 14.9818 1.09237 14.5592 0.669822C14.1367 0.24727 13.5636 0.00988234 12.966 0.00988234H6.27576C5.67727 0.00987664 5.10315 0.246948 4.67904 0.669219C4.25492 1.09149 4.01534 1.66457 4.01273 2.26306V8.95341C4.01533 9.55281 4.25459 10.1269 4.67842 10.5508C5.10226 10.9746 5.67636 11.2139 6.27576 11.2165ZM6.27576 1.83812H12.966C13.0787 1.83812 13.1868 1.88289 13.2665 1.96258C13.3462 2.04227 13.391 2.15036 13.391 2.26306V8.95341C13.391 9.06611 13.3462 9.1742 13.2665 9.25389C13.1868 9.33358 13.0787 9.37835 12.966 9.37835H6.27576C6.16306 9.37835 6.05497 9.33358 5.97528 9.25389C5.89559 9.1742 5.85082 9.06611 5.85082 8.95341V2.26306C5.85082 2.15036 5.89559 2.04227 5.97528 1.96258C6.05497 1.88289 6.16306 1.83812 6.27576 1.83812Z" fill="#3E96F4"/>
<path d="M16.6027 29.2122L17.8281 28.6292L17.9368 28.6786L18.3914 29.9534H23.708L24.1626 28.6786L24.2713 28.6292L25.4967 29.2122L29.2519 25.4569L28.6195 24.2118L28.6689 24.0932L29.9536 23.6485V18.3515L28.6689 17.8969C28.6543 17.8599 28.6378 17.8236 28.6195 17.7882L29.2025 16.5529L25.4967 12.7976L24.2219 13.3412H24.1033L23.6586 12.0565H18.342L17.8874 13.3412L17.7787 13.3906L16.6027 12.7976L12.8376 16.5529L13.4305 17.7882C13.4251 17.8243 13.4251 17.8609 13.4305 17.8969L12.1458 18.3515V23.6682L13.4305 24.1129V24.2315L12.8376 25.4569L16.6027 29.2122ZM14.814 19.3299L14.9523 18.9049C15.0408 18.651 15.1465 18.4034 15.2686 18.1638L15.4563 17.7685L15.0512 16.9285L16.9782 15.0014L17.8182 15.4066L18.2234 15.2089C18.4635 15.0908 18.7111 14.9884 18.9645 14.9026L19.3796 14.7544L19.6859 13.8847H22.4134L22.7198 14.7642L23.1348 14.9026C23.3883 14.9884 23.6359 15.0908 23.876 15.2089L24.2812 15.4066L25.1212 15.0014L27.0482 16.9285L26.643 17.7685L26.8308 18.1736C26.9504 18.411 27.056 18.6552 27.147 18.9049L27.2854 19.3299L28.1649 19.6362V22.3539L27.2854 22.6701L27.147 23.0852C27.0561 23.3382 26.9505 23.5856 26.8308 23.8264L26.643 24.2216L27.0383 25.0715L25.1212 26.9887L24.2713 26.5835L23.876 26.7812C23.6378 26.9035 23.3899 27.006 23.1348 27.0875L22.7198 27.2358L22.4035 28.1153H19.6365L19.3302 27.2358L18.9052 27.0875C18.654 27.0041 18.4096 26.9017 18.174 26.7812L17.7688 26.5835L16.9288 26.9887L15.0018 25.0715L15.4069 24.2216L15.2093 23.8264C15.1006 23.5892 14.9919 23.3421 14.9029 23.0852L14.7646 22.6701L13.8851 22.3539V19.6461L14.814 19.3299Z" fill="#3E96F4"/>
<path d="M8.95384 30.8033H2.25369C1.9536 30.8032 1.65652 30.8631 1.37988 30.9794C1.10324 31.0957 0.85263 31.2661 0.642747 31.4806C0.432864 31.6951 0.267941 31.9493 0.15766 32.2284C0.0473791 32.5075 -0.00603907 32.8059 0.00054189 33.1059V39.7962C0.0159525 40.3844 0.259815 40.9434 0.68043 41.3548C1.10104 41.7662 1.66534 41.9976 2.25369 42H8.95384C9.55232 41.9974 10.1254 41.7578 10.5477 41.3337C10.9699 40.9096 11.207 40.3354 11.207 39.7369V33.1059C11.2122 32.8062 11.1579 32.5085 11.0471 32.23C10.9364 31.9515 10.7714 31.6978 10.5618 31.4836C10.3521 31.2693 10.1021 31.0989 9.82604 30.9821C9.55002 30.8653 9.25355 30.8046 8.95384 30.8033ZM9.36889 33.1059V39.7962C9.37021 39.8516 9.36045 39.9066 9.34018 39.9581C9.31991 40.0096 9.28955 40.0565 9.25088 40.0961C9.2122 40.1357 9.166 40.1672 9.11499 40.1887C9.06398 40.2101 9.00919 40.2212 8.95384 40.2212H2.25369C2.14099 40.2212 2.03291 40.1764 1.95321 40.0967C1.87352 40.017 1.82875 39.9089 1.82875 39.7962V33.1059C1.82875 32.9932 1.87352 32.8851 1.95321 32.8054C2.03291 32.7257 2.14099 32.6809 2.25369 32.6809H8.95384C9.00919 32.6809 9.06398 32.692 9.11499 32.7135C9.166 32.7349 9.2122 32.7664 9.25088 32.806C9.28955 32.8456 9.31991 32.8925 9.34018 32.944C9.36045 32.9955 9.37021 33.0505 9.36889 33.1059Z" fill="#3E96F4"/>
<path d="M13.1241 4.08141L11.8197 2.78682L8.28185 6.32471L7.41221 5.45506L6.11764 6.75953L8.28185 8.91388L13.1241 4.08141Z" fill="#3E96F4"/>
<path d="M22.3838 5.65271L20.684 4.51623H21.0299C24.0459 4.51073 27.0049 5.33832 29.5805 6.90774C32.156 8.47716 34.2481 10.7274 35.626 13.4104L35.7445 13.6278L37.3554 12.768L37.2368 12.5506C35.6959 9.56938 33.3638 7.0701 30.4962 5.32688C27.6286 3.58365 24.3364 2.66381 20.9805 2.66824H20.6643L22.364 1.53176L21.3758 0L15.9999 3.59718L21.3659 7.17459L22.3838 5.65271Z" fill="#3E96F4"/>
<path d="M30.5761 29.5482L31.0208 31.3271L34.4401 30.4772C32.233 33.6359 28.9855 35.918 25.2659 36.9242C21.5462 37.9305 17.5911 37.5968 14.0926 35.9816L13.8653 35.8828L13.0945 37.5431L13.3218 37.6419C15.7155 38.7522 18.322 39.3288 20.9607 39.3318C23.8584 39.3326 26.7146 38.6428 29.2925 37.3194C31.8704 35.9961 34.0957 34.0774 35.7841 31.7224L36.1695 34.7562L37.9878 34.5289L37.1577 27.8979L30.5761 29.5482Z" fill="#3E96F4"/>
<path d="M7.88656 23.6584L6.10776 23.2235L5.416 26.0993C4.82623 24.4633 4.5188 22.739 4.50684 21C4.50957 18.6092 5.03576 16.248 6.04846 14.0824L6.15717 13.8551L4.49695 13.0447L4.38825 13.2621C3.25749 15.6882 2.67384 18.3332 2.67863 21.0099C2.69298 23.0144 3.05752 25.001 3.75579 26.88L1.14688 25.4372L0.25748 27.048L6.28564 30.3685L7.88656 23.6584Z" fill="#3E96F4"/>
<path d="M4.25978 37.1181L3.40003 36.2485L2.10546 37.5529L4.25978 39.7073L9.10207 34.8748L7.8075 33.5802L4.25978 37.1181Z" fill="#3E96F4"/>
<path d="M35.0627 21.7214L34.193 20.8518L32.8985 22.1562L35.0627 24.3106L39.8951 19.4781L38.6005 18.1835L35.0627 21.7214Z" fill="#3E96F4"/>
</svg>
