<svg width="271" height="66" viewBox="0 0 271 66" fill="none" xmlns="http://www.w3.org/2000/svg">
<path d="M0 65.0435C1.76282 59.3523 3.80589 53.9399 5.67454 48.3545C-6.70881 26.697 8.61568 2.31491 29.3727 0.289969C48.9705 -1.62278 65.0392 12.4543 65.0877 31.666C65.1391 51.9365 45.4796 68.9582 23.3645 62.0397C21.6972 61.5184 19.6326 59.8178 17.6904 59.7026C14.9757 59.5434 11.4187 61.4919 8.6779 62.3723C5.67405 63.3395 3.06216 64.3076 0 65.0435ZM18.3582 53.6949C36.2162 64.5325 57.5999 52.377 59.4132 34.6694C61.0555 18.6389 48.2561 4.37611 31.0414 5.62987C11.3902 7.061 -0.415474 30.5196 11.6822 47.6867C10.5972 50.6624 9.59537 53.6677 8.6779 56.6993C11.9571 55.7497 14.9796 54.544 18.3582 53.6949Z" fill="white"/>
<path d="M8.68172 56.6983C9.59851 53.6666 10.6002 50.6613 11.6856 47.6858C-0.412141 30.5186 11.3931 7.06053 31.0452 5.62891C48.2595 4.37515 61.0588 18.6379 59.417 34.6684C57.6027 52.376 36.2191 64.531 18.3616 53.694C14.9824 54.544 11.9599 55.7498 8.68172 56.6983ZM17.6938 28.3276C20.5575 36.3813 32.4244 47.2899 41.0582 47.6867C45.1512 47.8759 49.9895 45.752 49.7366 40.0098C47.2722 38.246 44.431 36.8585 41.3919 35.6713C39.9373 37.1093 38.7942 38.8579 37.0534 40.0098C31.8169 37.6801 27.8003 34.1314 25.3707 28.9949C30.155 26.3854 27.2492 20.5737 25.3707 16.6448C17.9485 14.4087 15.9941 23.5486 17.6938 28.3276Z" fill="url(#paint0_linear_1_670)"/>
<path d="M25.3661 16.6448C27.2445 20.5742 30.1504 26.3854 25.3661 28.9949C27.7957 34.1314 31.8128 37.6801 37.0488 40.0098C38.7906 38.8574 39.9336 37.1088 41.3873 35.6713C44.4269 36.8599 47.2676 38.2465 49.732 40.0098C49.9853 45.7519 45.1466 47.8759 41.0536 47.6867C32.4198 47.2889 20.5524 36.3813 17.6892 28.3276C15.9895 23.5486 17.9439 14.4087 25.3661 16.6448Z" fill="white"/>
<path d="M80.5939 49.0703L73.6484 19.9764H79.661L84.0475 39.9613L89.3659 19.9764H96.351L101.452 40.2989L105.918 19.9764H111.832L104.766 49.0703H98.5337L92.7396 27.3192L86.9651 49.0703H80.5939ZM119.939 19.9764V30.6734C121.738 28.5696 123.889 27.5182 126.39 27.5182C127.672 27.5182 128.829 27.7553 129.863 28.2315C130.894 28.7087 131.671 29.3172 132.195 30.058C132.716 30.7969 133.081 31.6343 133.267 32.519C133.458 33.4195 133.554 34.8159 133.554 36.7071V49.0708H127.978V37.9368C127.978 35.7277 127.871 34.3245 127.66 33.7302C127.456 33.1448 127.062 32.645 126.539 32.3113C126.004 31.961 125.332 31.7851 124.525 31.7851C123.599 31.7851 122.773 32.0105 122.045 32.4597C121.318 32.909 120.785 33.5881 120.448 34.494C120.11 35.4009 119.942 36.7399 119.942 38.512V49.0703H114.365V19.9764H119.939ZM142.97 34.4244L137.91 33.5117C138.479 31.4745 139.458 29.9659 140.847 28.9865C142.236 28.0071 144.3 27.5186 147.04 27.5186C149.527 27.5186 151.378 27.8126 152.597 28.4005C153.813 28.99 154.671 29.7376 155.167 30.6435C155.663 31.5499 155.912 33.2143 155.912 35.6356L155.851 42.1445C155.851 43.997 155.941 45.3624 156.12 46.2429C156.298 47.1233 156.632 48.065 157.122 49.0703H151.605C151.458 48.7004 151.28 48.1512 151.069 47.4241C150.976 47.0924 150.911 46.8744 150.871 46.7686C149.919 47.6946 148.9 48.3893 147.815 48.8523C146.729 49.3158 145.572 49.5466 144.341 49.5466C142.171 49.5466 140.461 48.9586 139.211 47.7808C137.96 46.6035 137.335 45.115 137.335 43.3154C137.335 42.1244 137.62 41.0622 138.188 40.1298C138.758 39.197 139.554 38.4826 140.58 37.9863C141.605 37.49 143.083 37.0574 145.015 36.687C147.622 36.197 149.428 35.7404 150.434 35.3171V34.7625C150.434 33.6905 150.169 32.9257 149.64 32.4695C149.11 32.0129 148.111 31.7846 146.643 31.7846C145.652 31.7846 144.878 31.9801 144.321 32.3706C143.765 32.7606 143.315 33.4455 142.97 34.4244ZM150.434 38.9491C149.719 39.1867 148.587 39.4708 147.039 39.803C145.491 40.1337 144.479 40.4576 144.004 40.7751C143.276 41.291 142.911 41.9461 142.911 42.7398C142.911 43.5207 143.203 44.1954 143.785 44.7642C144.367 45.3335 145.107 45.6187 146.008 45.6187C147.012 45.6187 147.972 45.287 148.884 44.6265C149.559 44.1239 150.003 43.5085 150.215 42.7809C150.361 42.3042 150.433 41.3993 150.433 40.0622L150.434 38.9491ZM170.666 27.9944V32.4406H166.856V40.9338C166.856 42.655 166.892 43.6569 166.967 43.9411C167.038 44.2262 167.203 44.4609 167.463 44.6461C167.72 44.8304 168.035 44.9234 168.405 44.9234C168.921 44.9234 169.668 44.7446 170.647 44.3884L171.123 48.7137C169.827 49.2697 168.358 49.5475 166.719 49.5475C165.712 49.5475 164.807 49.3785 163.999 49.0419C163.192 48.7048 162.6 48.2678 162.223 47.7328C161.845 47.1958 161.584 46.4726 161.439 45.5589C161.319 44.9107 161.26 43.6011 161.26 41.6291V32.4406H158.7V27.9939H161.26V23.8063L166.856 20.5516V27.9934H170.666V27.9944ZM172.165 43.0577L177.762 42.2043C178 43.2885 178.484 44.1121 179.21 44.6741C179.938 45.2365 180.956 45.5182 182.266 45.5182C183.709 45.5182 184.794 45.2532 185.521 44.7235C186.012 44.3531 186.256 43.8568 186.256 43.2356C186.256 42.8118 186.124 42.4615 185.859 42.1837C185.582 41.9186 184.958 41.6736 183.992 41.4488C179.494 40.4566 176.643 39.5512 175.439 38.7301C173.772 37.5934 172.938 36.0113 172.938 33.9874C172.938 32.1609 173.659 30.6259 175.101 29.3829C176.543 28.1394 178.779 27.5172 181.809 27.5172C184.693 27.5172 186.837 27.987 188.239 28.9263C189.64 29.8655 190.607 31.255 191.136 33.0932L185.878 34.0658C185.652 33.2461 185.226 32.617 184.597 32.181C183.97 31.7444 183.073 31.5254 181.909 31.5254C180.44 31.5254 179.388 31.7307 178.754 32.1408C178.331 32.4318 178.119 32.8091 178.119 33.2721C178.119 33.6694 178.303 34.0065 178.674 34.2833C179.177 34.6542 180.913 35.177 183.884 35.8526C186.854 36.5273 188.928 37.3538 190.106 38.3327C191.27 39.3244 191.852 40.708 191.852 42.4801C191.852 44.4124 191.046 46.0729 189.431 47.4614C187.816 48.8508 185.429 49.5451 182.266 49.5451C179.397 49.5451 177.123 48.963 175.449 47.7994C173.776 46.6363 172.681 45.0557 172.165 43.0577ZM222.604 49.0703H216.214L213.674 42.462H202.045L199.643 49.0703H193.411L204.743 19.9764H210.955L222.604 49.0703ZM211.787 37.5606L207.779 26.7636L203.849 37.5606H211.787ZM225.115 27.9944H230.315V31.0908C230.989 30.0321 231.902 29.1727 233.053 28.5108C234.205 27.8499 235.481 27.5191 236.884 27.5191C239.331 27.5191 241.407 28.4784 243.115 30.3976C244.822 32.3157 245.676 34.9888 245.676 38.4145C245.676 41.9343 244.816 44.6692 243.096 46.6211C241.376 48.5721 239.291 49.5475 236.844 49.5475C235.68 49.5475 234.625 49.3173 233.678 48.8533C232.731 48.3908 231.736 47.5976 230.69 46.4722V57.0893H225.113V27.9944H225.115ZM230.632 38.1754C230.632 40.5438 231.102 42.2939 232.041 43.4252C232.98 44.557 234.124 45.1228 235.475 45.1228C236.772 45.1228 237.849 44.603 238.71 43.5638C239.57 42.5257 240 40.8221 240 38.4537C240 36.2451 239.558 34.6032 238.67 33.5322C237.784 32.4602 236.685 31.9247 235.375 31.9247C234.013 31.9247 232.881 32.4504 231.981 33.5023C231.082 34.5538 230.632 36.1118 230.632 38.1754ZM249.536 27.9944H254.736V31.0908C255.41 30.0321 256.323 29.1727 257.474 28.5108C258.626 27.8499 259.902 27.5191 261.305 27.5191C263.752 27.5191 265.828 28.4784 267.537 30.3976C269.243 32.3157 270.097 34.9888 270.097 38.4145C270.097 41.9343 269.236 44.6692 267.517 46.6211C265.797 48.5721 263.713 49.5475 261.265 49.5475C260.101 49.5475 259.045 49.3173 258.099 48.8533C257.152 48.3908 256.157 47.5976 255.111 46.4722V57.0893H249.535L249.536 27.9944ZM255.053 38.1754C255.053 40.5438 255.523 42.2939 256.463 43.4252C257.402 44.557 258.546 45.1228 259.896 45.1228C261.192 45.1228 262.271 44.603 263.131 43.5638C263.991 42.5257 264.421 40.8221 264.421 38.4537C264.421 36.2451 263.978 34.6032 263.091 33.5322C262.205 32.4602 261.106 31.9247 259.797 31.9247C258.434 31.9247 257.302 32.4504 256.403 33.5023C255.503 34.5543 255.053 36.1118 255.053 38.1754Z" fill="#234242"/>
<defs>
<linearGradient id="paint0_linear_1_670" x1="33.1755" y1="57.7914" x2="33.1755" y2="5.55199" gradientUnits="userSpaceOnUse">
<stop stop-color="#64D840"/>
<stop offset="0.503" stop-color="#12A100"/>
<stop offset="1" stop-color="#64D840"/>
</linearGradient>
</defs>
</svg>
