<svg width="350" height="38" viewBox="0 0 350 38" fill="none" xmlns="http://www.w3.org/2000/svg">
<path d="M22.5581 3.94029H0V9.54071H22.5581V3.94029Z" fill="#0089FF"/>
<path d="M7.08968 23.1417H21.269V17.5413H0V37.0628H22.5581V31.4624H7.08968V23.1417Z" fill="#0089FF"/>
<path d="M45.9218 24.4218C47.0497 23.9418 48.0165 23.1417 48.9833 22.3417C50.9168 20.4215 52.2058 17.7013 52.2058 14.6611C52.2058 8.74065 47.372 3.78027 41.4102 3.78027H27.0697V36.9028H33.8371V25.3819H39.1544L45.9218 36.9028H53.4949L45.9218 24.4218ZM33.676 19.9415V9.54071H39.7989C42.6992 9.54071 44.955 11.7809 44.955 14.6611C44.955 16.1012 44.3105 17.3813 43.5049 18.3414C43.3437 18.5014 43.0215 18.8214 42.6992 18.9814C41.8936 19.4615 40.9268 19.9415 39.7989 19.9415H33.676Z" fill="#0089FF"/>
<path d="M70.0912 3.94029H56.2341V37.0628H62.8404V26.342H69.9301C72.9915 26.342 75.8918 25.0619 77.8254 23.1417C79.9201 21.0616 81.048 18.3414 81.048 15.3011C81.2091 8.90066 76.2141 3.94029 70.0912 3.94029ZM72.5081 19.3014C71.5413 20.2615 70.0912 20.9016 68.4799 20.9016H63.1626V9.70072H68.4799C71.5413 9.70072 74.1194 12.2609 74.1194 15.3011C74.1194 16.9013 73.4749 18.1814 72.5081 19.3014Z" fill="#0089FF"/>
<path d="M112.79 3.94029V37.0628H106.667L91.6825 15.4612V37.0628H84.9151V3.94029H91.038L105.862 25.2219V3.94029H112.79Z" fill="#0089FF"/>
<path d="M136.96 15.4612C134.865 13.381 131.965 12.1009 128.903 11.9409C128.742 11.9409 128.742 11.9409 128.581 11.9409C121.975 11.9409 116.658 17.2213 116.658 23.7818V26.0219C116.658 29.2222 117.947 32.2624 120.202 34.3426C122.297 36.4227 125.358 37.8628 128.581 37.8628C128.742 37.8628 128.742 37.8628 128.903 37.8628C129.064 37.8628 129.064 37.8628 129.226 37.8628C134.382 37.8628 138.571 34.6626 140.343 30.3423H139.699L134.221 29.8622C133.415 31.6224 131.481 32.9025 129.387 32.9025C129.226 32.9025 129.226 32.9025 129.064 32.9025C128.903 32.9025 128.903 32.9025 128.742 32.9025C127.292 32.9025 125.842 32.2624 124.875 31.3023C123.908 30.3423 123.264 29.0622 123.264 27.4621V26.662H140.343C140.343 26.502 140.343 26.342 140.343 26.182V23.9418C140.343 20.4215 139.054 17.5413 136.96 15.4612ZM123.264 22.1817C123.425 19.3014 125.681 17.0613 128.581 17.0613C128.742 17.0613 128.742 17.0613 128.903 17.0613C130.192 17.0613 131.481 17.7013 132.287 18.6614C133.254 19.6215 133.737 20.9016 133.898 22.1817H123.264Z" fill="#0089FF"/>
<path d="M158.873 24.5818L165.963 37.0628H158.551L154.039 28.9022L149.528 37.0628H142.116L149.206 24.5818L142.116 12.2609H149.528L154.039 20.4215L158.551 12.2609H165.963L158.873 24.5818Z" fill="#0089FF"/>
<path d="M182.72 36.7428C181.915 37.0628 180.948 37.3828 180.142 37.3828H177.081C176.436 37.3828 175.953 37.3828 175.309 37.2228C172.569 36.4227 170.636 34.0226 170.636 31.1423V17.2213H166.93V12.2609H170.636V6.18045H177.403V12.1009H182.237V17.0613H177.403V29.5422C177.403 30.8223 178.531 31.9424 179.82 31.9424H180.304C180.787 31.9424 181.109 31.7824 181.593 31.6224L182.72 36.7428Z" fill="#0089FF"/>
<path d="M205.605 24.8672H198.609V21.7383H205.605V14.5664H208.77V21.7383H215.783V24.8672H208.77V32.0039H205.605V24.8672Z" fill="#31393C"/>
<path d="M260.626 16.7346C261.454 14.2831 261.169 11.5977 259.845 9.36794C257.854 5.94787 253.853 4.18834 249.944 5.01636C248.205 3.08356 245.707 1.98442 243.088 2.00017C239.093 1.99117 235.549 4.52922 234.32 8.28004C231.753 8.79868 229.538 10.3838 228.242 12.6305C226.236 16.0416 226.693 20.3414 229.373 23.2665C228.545 25.7179 228.83 28.4033 230.154 30.6331C232.144 34.0532 236.146 35.8128 240.055 34.9847C241.792 36.9175 244.291 38.0166 246.91 37.9998C250.908 38.0099 254.453 35.4696 255.682 31.7154C258.249 31.1968 260.464 29.6116 261.761 27.3649C263.764 23.9538 263.305 19.6574 260.627 16.7323L260.626 16.7346ZM246.913 35.6473C245.313 35.6496 243.764 35.0972 242.536 34.0858C242.591 34.0565 242.688 34.0037 242.751 33.9655L250.016 29.8254C250.388 29.6172 250.616 29.2268 250.613 28.8049V18.6989L253.684 20.4483C253.717 20.464 253.739 20.4956 253.743 20.5315V28.9006C253.739 32.6222 250.684 35.6395 246.913 35.6473ZM232.223 29.4563C231.421 28.0906 231.133 26.4897 231.408 24.936C231.461 24.9675 231.556 25.0249 231.623 25.0631L238.888 29.2032C239.257 29.4159 239.713 29.4159 240.082 29.2032L248.951 24.1496V27.6485C248.953 27.6844 248.936 27.7193 248.908 27.7419L241.564 31.9258C238.293 33.7843 234.116 32.6795 232.224 29.4563H232.223ZM230.311 13.8084C231.109 12.4404 232.369 11.3941 233.869 10.8507C233.869 10.9126 233.866 11.0217 233.866 11.0982V19.3795C233.864 19.8002 234.092 20.1906 234.462 20.3988L243.331 25.4513L240.261 27.2006C240.23 27.221 240.191 27.2243 240.157 27.2097L232.812 23.0223C229.548 21.157 228.429 17.0361 230.31 13.8095L230.311 13.8084ZM255.538 19.6011L246.669 14.5475L249.739 12.7993C249.77 12.779 249.808 12.7756 249.843 12.7902L257.187 16.9742C260.457 18.8384 261.578 22.9661 259.689 26.1927C258.89 27.5584 257.631 28.6047 256.132 29.1492V20.6204C256.135 20.1997 255.908 19.8104 255.539 19.6011H255.538ZM258.593 15.0628C258.54 15.0302 258.445 14.974 258.378 14.9357L251.113 10.7956C250.744 10.583 250.288 10.583 249.919 10.7956L241.05 15.8492V12.3503C241.048 12.3144 241.065 12.2795 241.093 12.257L248.437 8.07641C251.708 6.21451 255.89 7.32265 257.776 10.5515C258.573 11.915 258.861 13.5114 258.591 15.0628H258.593ZM239.381 21.2988L236.309 19.5494C236.276 19.5336 236.255 19.5021 236.25 19.4661V11.0971C236.252 7.37103 239.316 4.35146 243.092 4.35372C244.689 4.35372 246.235 4.90723 247.463 5.91525C247.407 5.9445 247.312 5.99737 247.248 6.03562L239.983 10.1757C239.611 10.3838 239.383 10.7731 239.385 11.195L239.381 21.2966V21.2988ZM241.049 17.7505L244.999 15.4993L248.95 17.7493V22.2506L244.999 24.5007L241.049 22.2506V17.7505Z" fill="black"/>
<path d="M280.01 9.44824C275.434 9.44824 271.69 13.2051 271.69 17.7969C271.69 22.3886 275.434 26.1455 280.01 26.1455C284.586 26.1455 288.33 22.4118 288.33 17.7969C288.33 13.1819 284.609 9.44824 280.01 9.44824ZM280.01 23.1539C277.167 23.1539 274.879 20.8116 274.879 17.7969C274.879 14.7821 277.167 12.4398 280.01 12.4398C282.852 12.4398 285.14 14.7821 285.14 17.7969C285.14 20.8116 282.852 23.1539 280.01 23.1539Z" fill="black"/>
<path d="M296.742 14.0864C295.24 14.0864 293.784 14.6893 293.021 15.7097V14.3183H290.017V30.5517H293.021V24.6845C293.784 25.6353 295.193 26.1455 296.742 26.1455C299.977 26.1455 302.52 23.5945 302.52 20.1159C302.52 16.6373 299.977 14.0864 296.742 14.0864ZM296.233 23.5249C294.523 23.5249 292.998 22.1799 292.998 20.1159C292.998 18.052 294.523 16.7069 296.233 16.7069C297.944 16.7069 299.469 18.052 299.469 20.1159C299.469 22.1799 297.944 23.5249 296.233 23.5249Z" fill="black"/>
<path d="M309.592 14.0864C306.31 14.0864 303.722 16.6605 303.722 20.1159C303.722 23.5713 305.987 26.1455 309.685 26.1455C312.712 26.1455 314.653 24.3134 315.254 22.2495H312.319C311.949 23.1075 310.909 23.7105 309.661 23.7105C308.113 23.7105 306.934 22.6205 306.657 21.0667H315.393V19.884C315.393 16.7301 313.197 14.0864 309.592 14.0864ZM306.68 18.9332C307.004 17.4722 308.205 16.5214 309.661 16.5214C311.21 16.5214 312.389 17.5418 312.527 18.9332H306.68Z" fill="black"/>
<path d="M323.389 14.0864C322.049 14.0864 320.639 14.6893 319.992 15.6865V14.3183H316.987V25.9136H319.992V19.6753C319.992 17.8664 320.963 16.6837 322.534 16.6837C323.99 16.6837 324.776 17.7969 324.776 19.3506V25.9136H327.78V18.8636C327.78 15.988 326.024 14.0864 323.389 14.0864Z" fill="black"/>
<path d="M335.475 9.68057L328.935 25.914H332.147L333.534 22.3658H340.976L342.362 25.914H345.621L339.127 9.68057H335.475ZM334.574 19.6757L337.255 12.8809L339.913 19.6757H334.574Z" fill="black"/>
<path d="M349.897 9.68057H346.846V25.914H349.897V9.68057Z" fill="black"/>
</svg>
