<svg width="356" height="38" viewBox="0 0 356 38" fill="none" xmlns="http://www.w3.org/2000/svg">
<path d="M18.688 9.16284H0V13.8024H18.688V9.16284Z" fill="#0089FF"/>
<path d="M5.87336 25.07H17.6201V20.4304H0V36.6028H18.688V31.9632H5.87336V25.07Z" fill="#0089FF"/>
<path d="M38.0434 26.1305C38.9778 25.7328 39.7787 25.07 40.5796 24.4072C42.1814 22.8165 43.2493 20.563 43.2493 18.0444C43.2493 13.1396 39.2447 9.03027 34.3058 9.03027H22.4256V36.4702H28.032V26.9259H32.437L38.0434 36.4702H44.3172L38.0434 26.1305ZM27.8985 22.4188V13.8024H32.9709C35.3737 13.8024 37.2425 15.6583 37.2425 18.0444C37.2425 19.2374 36.7085 20.2979 36.0411 21.0932C35.9076 21.2258 35.6406 21.4909 35.3737 21.6235C34.7062 22.0212 33.9053 22.4188 32.9709 22.4188H27.8985Z" fill="#0089FF"/>
<path d="M58.0662 9.16283H46.5864V36.6028H52.0593V27.7212H57.9327C60.4689 27.7212 62.8717 26.6608 64.4735 25.07C66.2088 23.3468 67.1432 21.0932 67.1432 18.5746C67.2767 13.2722 63.1386 9.16283 58.0662 9.16283ZM60.0685 21.8886C59.2676 22.684 58.0662 23.2142 56.7313 23.2142H52.3263V13.935H56.7313C59.2676 13.935 61.4033 16.056 61.4033 18.5746C61.4033 19.9002 60.8694 20.9607 60.0685 21.8886Z" fill="#0089FF"/>
<path d="M93.4398 9.16283V36.6028H88.3674L75.9532 18.7072V36.6028H70.3469V9.16283H75.4193L87.7 26.7933V9.16283H93.4398Z" fill="#0089FF"/>
<path d="M113.463 18.7072C111.727 16.9839 109.325 15.9234 106.788 15.7908C106.655 15.7908 106.655 15.7908 106.521 15.7908C101.049 15.7908 96.6435 20.1653 96.6435 25.6003V27.4561C96.6435 30.1073 97.7114 32.626 99.5802 34.3492C101.315 36.0725 103.852 37.2656 106.521 37.2656C106.655 37.2656 106.655 37.2656 106.788 37.2656C106.922 37.2656 106.922 37.2656 107.055 37.2656C111.327 37.2656 114.798 34.6144 116.266 31.0352H115.732L111.193 30.6376C110.526 32.0957 108.924 33.1562 107.189 33.1562C107.055 33.1562 107.055 33.1562 106.922 33.1562C106.788 33.1562 106.788 33.1562 106.655 33.1562C105.454 33.1562 104.252 32.626 103.451 31.8306C102.65 31.0352 102.116 29.9748 102.116 28.6492V27.9864H116.266C116.266 27.8538 116.266 27.7212 116.266 27.5887V25.7328C116.266 22.8165 115.198 20.4304 113.463 18.7072ZM102.116 24.2747C102.25 21.8886 104.119 20.0328 106.521 20.0328C106.655 20.0328 106.655 20.0328 106.788 20.0328C107.856 20.0328 108.924 20.563 109.592 21.3584C110.393 22.1537 110.793 23.2142 110.926 24.2747H102.116Z" fill="#0089FF"/>
<path d="M131.617 26.2631L137.49 36.6028H131.35L127.612 29.8422L123.875 36.6028H117.734L123.608 26.2631L117.734 16.056H123.875L127.612 22.8165L131.35 16.056H137.49L131.617 26.2631Z" fill="#0089FF"/>
<path d="M151.373 36.3376C150.705 36.6028 149.904 36.8679 149.237 36.8679H146.701C146.167 36.8679 145.766 36.8679 145.232 36.7353C142.963 36.0725 141.361 34.0841 141.361 31.698V20.1653H138.291V16.056H141.361V11.0187H146.968V15.9234H150.972V20.0328H146.968V30.3724C146.968 31.4329 147.902 32.3608 148.97 32.3608H149.37C149.771 32.3608 150.038 32.2283 150.438 32.0957L151.373 36.3376Z" fill="#0089FF"/>
<path d="M173.902 26.2397H166.129V22.7632H173.902V14.7944H177.418V22.7632H185.211V26.2397H177.418V34.1694H173.902V26.2397Z" fill="#31393C"/>
<path d="M337.094 36.5848H342.318V28.1491L349.608 36.5848H356L347.514 26.8627L354.763 18.4328H348.946L342.318 26.2025V9.0498L337.094 9.73321V36.5848ZM325.046 17.9679C319.247 17.9679 315.22 21.8612 315.22 27.506C315.22 33.1508 319.247 37.0441 325.046 37.0441C330.846 37.0441 334.873 33.1508 334.873 27.506C334.873 21.8612 330.846 17.9679 325.046 17.9679ZM325.046 32.5995C322.36 32.5995 320.519 30.5265 320.519 27.506C320.519 24.4855 322.36 22.4125 325.046 22.4125C327.733 22.4125 329.574 24.4855 329.574 27.506C329.574 30.5265 327.733 32.5995 325.046 32.5995ZM303.816 17.9679C298.017 17.9679 293.989 21.8612 293.989 27.506C293.989 33.1508 298.017 37.0441 303.816 37.0441C309.616 37.0441 313.643 33.1508 313.643 27.506C313.643 21.8612 309.616 17.9679 303.816 17.9679ZM303.816 32.5995C301.129 32.5995 299.288 30.5265 299.288 27.506C299.288 24.4855 301.129 22.4125 303.816 22.4125C306.503 22.4125 308.344 24.4855 308.344 27.506C308.344 30.5265 306.503 32.5995 303.816 32.5995ZM283.823 17.9679C281.407 17.9679 279.404 18.9153 278.15 20.6495V9.0498L272.92 9.72737V36.579H277.558L277.649 33.7767C278.887 35.8669 281.102 37.0441 283.823 37.0441C288.783 37.0441 292.413 33.0244 292.413 27.506C292.413 21.9875 288.8 17.9679 283.823 17.9679ZM282.586 32.5995C279.899 32.5995 278.058 30.5265 278.058 27.506C278.058 24.4855 279.899 22.4125 282.586 22.4125C285.273 22.4125 287.114 24.4855 287.114 27.506C287.114 30.5265 285.273 32.5995 282.586 32.5995ZM262.449 32.8349C259.676 32.8349 257.685 31.5486 257.006 29.3321H269.877C270.003 28.6546 270.09 27.8505 270.09 27.3107C270.09 21.4707 266.816 17.9679 261.315 17.9679C255.764 17.9679 251.92 21.8612 251.92 27.506C251.92 33.2255 255.948 37.0441 261.925 37.0441C265.021 37.0441 268.03 36.0105 269.911 34.2935L268.03 30.986C266.206 32.2435 264.417 32.8349 262.449 32.8349ZM261.281 22.022C263.697 22.022 265.239 23.4862 265.239 25.7545V25.7718H256.897C257.398 23.3658 258.957 22.022 261.281 22.022ZM243.739 37.0498C246.443 37.0498 249.089 36.0162 250.953 34.2246L248.911 30.7964C247.461 31.922 245.816 32.5306 244.257 32.5306C241.357 32.5306 239.424 30.5092 239.424 27.5117C239.424 24.5142 241.357 22.4928 244.257 22.4928C245.689 22.4928 247.248 23.0096 248.514 23.9227L250.591 20.4197C248.911 18.9038 246.311 17.9735 243.733 17.9735C238.06 17.9735 234.05 21.9243 234.05 27.5117C234.056 33.0818 238.066 37.0498 243.739 37.0498ZM227.129 18.4328L227.037 21.2583C225.799 19.1507 223.584 17.9735 220.863 17.9735C215.886 17.9735 212.273 21.9933 212.273 27.5117C212.273 33.0302 215.909 37.0498 220.863 37.0498C223.584 37.0498 225.805 35.8726 227.037 33.7824L227.129 36.5847H231.766V18.4328H227.129ZM222.1 32.5995C219.413 32.5995 217.572 30.5265 217.572 27.506C217.572 24.4855 219.413 22.4125 222.1 22.4125C224.787 22.4125 226.628 24.4855 226.628 27.506C226.628 30.5265 224.781 32.5995 222.1 32.5995ZM211.882 18.467H207.181V16.9164C207.181 14.5965 208.09 13.7065 210.449 13.7065C211.18 13.7065 211.773 13.7236 212.112 13.7581V9.77867C211.468 9.60056 209.897 9.42264 208.988 9.42264C204.184 9.42264 201.969 11.6851 201.969 16.5719V18.4611H199V22.8484H201.969V36.5786H207.187V22.8541H211.076L211.882 18.467Z" fill="#0866FF"/>
</svg>
