<svg width="347" height="51" viewBox="0 0 347 51" fill="none" xmlns="http://www.w3.org/2000/svg">
<path d="M18.688 8.93578H0V13.5754H18.688V8.93578Z" fill="#0089FF"/>
<path d="M5.87336 24.843H17.6201V20.2034H0V36.3757H18.688V31.7361H5.87336V24.843Z" fill="#0089FF"/>
<path d="M38.0434 25.9035C38.9778 25.5058 39.7787 24.843 40.5796 24.1802C42.1814 22.5895 43.2493 20.3359 43.2493 17.8173C43.2493 12.9126 39.2447 8.80322 34.3058 8.80322H22.4256V36.2432H28.032V26.6988H32.437L38.0434 36.2432H44.3172L38.0434 25.9035ZM27.8985 22.1918V13.5754H32.9709C35.3737 13.5754 37.2425 15.4312 37.2425 17.8173C37.2425 19.0103 36.7085 20.0708 36.0411 20.8662C35.9076 20.9987 35.6406 21.2639 35.3737 21.3964C34.7062 21.7941 33.9053 22.1918 32.9709 22.1918H27.8985Z" fill="#0089FF"/>
<path d="M58.0662 8.93578H46.5864V36.3757H52.0593V27.4942H57.9327C60.4689 27.4942 62.8717 26.4337 64.4735 24.843C66.2088 23.1197 67.1432 20.8662 67.1432 18.3475C67.2767 13.0451 63.1386 8.93578 58.0662 8.93578ZM60.0685 21.6616C59.2676 22.4569 58.0662 22.9872 56.7313 22.9872H52.3263V13.7079H56.7313C59.2676 13.7079 61.4033 15.8289 61.4033 18.3475C61.4033 19.6731 60.8694 20.7336 60.0685 21.6616Z" fill="#0089FF"/>
<path d="M93.4398 8.93578V36.3757H88.3674L75.9532 18.4801V36.3757H70.3469V8.93578H75.4193L87.7 26.5663V8.93578H93.4398Z" fill="#0089FF"/>
<path d="M113.463 18.4801C111.727 16.7568 109.325 15.6963 106.788 15.5638C106.655 15.5638 106.655 15.5638 106.521 15.5638C101.049 15.5638 96.6435 19.9383 96.6435 25.3732V27.2291C96.6435 29.8803 97.7114 32.3989 99.5802 34.1222C101.315 35.8455 103.852 37.0385 106.521 37.0385C106.655 37.0385 106.655 37.0385 106.788 37.0385C106.922 37.0385 106.922 37.0385 107.055 37.0385C111.327 37.0385 114.798 34.3873 116.266 30.8082H115.732L111.193 30.4105C110.526 31.8687 108.924 32.9292 107.189 32.9292C107.055 32.9292 107.055 32.9292 106.922 32.9292C106.788 32.9292 106.788 32.9292 106.655 32.9292C105.454 32.9292 104.252 32.3989 103.451 31.6036C102.65 30.8082 102.116 29.7477 102.116 28.4221V27.7593H116.266C116.266 27.6268 116.266 27.4942 116.266 27.3616V25.5058C116.266 22.5895 115.198 20.2034 113.463 18.4801ZM102.116 24.0476C102.25 21.6615 104.119 19.8057 106.521 19.8057C106.655 19.8057 106.655 19.8057 106.788 19.8057C107.856 19.8057 108.924 20.3359 109.592 21.1313C110.393 21.9267 110.793 22.9871 110.926 24.0476H102.116Z" fill="#0089FF"/>
<path d="M131.617 26.036L137.49 36.3757H131.35L127.612 29.6152L123.875 36.3757H117.734L123.608 26.036L117.734 15.8289H123.875L127.612 22.5895L131.35 15.8289H137.49L131.617 26.036Z" fill="#0089FF"/>
<path d="M151.373 36.1106C150.705 36.3757 149.904 36.6408 149.237 36.6408H146.701C146.167 36.6408 145.766 36.6408 145.232 36.5083C142.963 35.8455 141.361 33.8571 141.361 31.471V19.9383H138.291V15.8289H141.361V10.7916H146.968V15.6963H150.972V19.8057H146.968V30.1454C146.968 31.2059 147.902 32.1338 148.97 32.1338H149.37C149.771 32.1338 150.038 32.0012 150.438 31.8687L151.373 36.1106Z" fill="#0089FF"/>
<path d="M173.902 26.0127H166.129V22.5361H173.902V14.5674H177.418V22.5361H185.211V26.0127H177.418V33.9424H173.902V26.0127Z" fill="#31393C"/>
<path d="M206.617 8.97002C203.588 10.2385 200.258 13.822 199.206 18.3201C197.874 24.0194 203.417 26.4294 203.872 25.6392C204.407 24.7107 202.878 24.3967 202.564 21.4396C202.157 17.6204 203.932 13.3527 206.166 11.4802C206.581 11.1324 206.561 11.6166 206.561 12.5122C206.561 14.1138 206.473 28.4916 206.473 31.4923C206.473 35.5525 206.305 36.8347 206.004 38.1016C205.699 39.3855 205.209 40.253 205.58 40.5872C205.996 40.961 207.768 40.0719 208.795 38.639C210.025 36.9204 210.456 34.8566 210.533 32.6152C210.627 29.9134 210.623 25.6261 210.627 23.1807C210.631 20.9378 210.665 14.3703 210.587 10.4222C210.569 9.45379 207.884 8.4378 206.617 8.96884M314.183 27.9718C314.086 30.0826 313.618 31.7325 313.039 32.8963C311.917 35.1492 309.588 35.8488 308.599 32.6101C308.06 30.8446 308.035 27.8962 308.423 25.4325C308.817 22.9228 309.918 21.0274 311.741 21.1983C313.54 21.3673 314.381 23.6855 314.183 27.9718ZM283.867 41.0679C283.842 44.5752 283.29 47.6503 282.107 48.5435C280.429 49.8099 278.173 48.86 278.64 46.3007C279.054 44.0359 281.008 41.723 283.871 38.8971C283.871 38.8971 283.877 39.5415 283.867 41.0679ZM283.408 27.9513C283.306 29.8739 282.807 31.8052 282.264 32.8965C281.142 35.1495 278.796 35.8538 277.824 32.6103C277.16 30.3943 277.319 27.5261 277.648 25.7189C278.074 23.3741 279.109 21.1988 280.966 21.1988C282.772 21.1988 283.663 23.1808 283.408 27.9513ZM265.846 27.9219C265.736 29.9581 265.339 31.6602 264.701 32.8965C263.549 35.134 261.268 35.8436 260.262 32.6103C259.537 30.2789 259.783 27.1 260.085 25.3827C260.533 22.8343 261.654 21.0276 263.404 21.1988C265.201 21.3745 266.075 23.6855 265.846 27.9219ZM346.331 30.3003C345.891 30.3003 345.691 30.7534 345.525 31.5161C344.949 34.1681 344.344 34.7669 343.564 34.7669C342.693 34.7669 341.91 33.4538 341.709 30.8251C341.551 28.758 341.576 24.9526 341.778 21.1672C341.82 20.3894 341.605 19.6199 339.52 18.8621C338.623 18.5361 337.318 18.0561 336.669 19.6244C334.834 24.0549 334.116 27.5725 333.947 29.0014C333.938 29.0753 333.848 29.0905 333.832 28.9177C333.724 27.7732 333.483 25.6935 333.454 21.3239C333.448 20.4714 333.267 19.7457 332.327 19.1516C331.716 18.7661 329.863 18.0843 329.196 18.8954C328.617 19.5588 327.948 21.3441 327.252 23.4604C326.687 25.1804 326.293 26.3439 326.293 26.3439C326.293 26.3439 326.3 21.703 326.307 19.9426C326.31 19.2785 325.854 19.0572 325.717 19.0171C325.099 18.8376 323.882 18.5379 323.365 18.5379C322.727 18.5379 322.571 18.8945 322.571 19.4141C322.571 19.4821 322.47 25.5243 322.47 29.7492C322.47 29.9328 322.47 30.133 322.472 30.3457C322.119 32.2875 320.975 34.9235 319.731 34.9235C318.486 34.9235 317.898 33.8215 317.898 28.7847C317.898 25.8463 317.986 24.5687 318.03 22.4435C318.055 21.2194 318.103 20.2794 318.101 20.0661C318.091 19.4119 316.961 19.0822 316.435 18.9604C315.906 18.8375 315.447 18.7899 315.088 18.8103C314.58 18.839 314.221 19.1722 314.221 19.6305C314.221 19.8762 314.224 20.3434 314.224 20.3434C313.57 19.3155 312.518 18.6 311.818 18.3927C309.934 17.8327 307.967 18.3289 306.483 20.4055C305.304 22.0555 304.594 23.9242 304.314 26.6091C304.109 28.572 304.176 30.5625 304.54 32.2459C304.1 34.1453 303.285 34.9235 302.392 34.9235C301.096 34.9235 300.157 32.8072 300.266 29.147C300.338 26.7396 300.819 25.0501 301.346 22.6059C301.57 21.564 301.388 21.0185 300.93 20.4957C300.511 20.0162 299.617 19.7713 298.332 20.0725C297.417 20.2874 296.108 20.5184 294.911 20.6958C294.911 20.6958 294.983 20.4075 295.043 19.8991C295.354 17.2331 292.458 17.4494 291.534 18.301C290.983 18.8093 290.607 19.4089 290.465 20.487C290.239 22.1978 291.634 23.0047 291.634 23.0047C291.176 25.1002 290.054 27.8377 288.896 29.8169C288.276 30.8773 287.801 31.663 287.189 32.4983C287.186 32.1873 287.185 31.8763 287.184 31.5667C287.17 27.161 287.228 23.6936 287.254 22.4439C287.279 21.2198 287.328 20.3047 287.326 20.0914C287.319 19.6129 287.039 19.4323 286.458 19.2035C285.945 19.0011 285.337 18.8611 284.707 18.8122C283.912 18.7502 283.433 19.1721 283.446 19.671C283.448 19.7652 283.448 20.3436 283.448 20.3436C282.794 19.3156 281.743 18.6002 281.043 18.3928C279.158 17.8331 277.191 18.3293 275.708 20.4057C274.529 22.0556 273.757 24.371 273.538 26.5889C273.335 28.656 273.372 30.4126 273.65 31.8924C273.35 33.3742 272.489 34.9237 271.514 34.9237C270.269 34.9237 269.56 33.8217 269.56 28.7849C269.56 25.8465 269.648 24.5688 269.692 22.4439C269.717 21.2198 269.765 20.2796 269.763 20.0665C269.753 19.4123 268.623 19.0826 268.097 18.9605C267.546 18.8332 267.071 18.7863 266.706 18.8132C266.224 18.8491 265.886 19.2805 265.886 19.6022V20.3436C265.232 19.3156 264.18 18.6002 263.48 18.3928C261.596 17.8331 259.64 18.3373 258.145 20.4057C257.171 21.7543 256.382 23.2496 255.976 26.5595C255.859 27.516 255.807 28.4117 255.813 29.2489C255.425 31.6263 253.708 34.3665 252.305 34.3665C251.483 34.3665 250.701 32.7724 250.701 29.375C250.701 24.8494 250.981 18.406 251.028 17.785C251.028 17.785 252.802 17.7549 253.145 17.7509C254.03 17.7412 254.832 17.7621 256.01 17.7018C256.601 17.6716 257.171 15.5494 256.561 15.2868C256.284 15.1679 254.33 15.0637 253.555 15.0473C252.904 15.0325 251.09 14.8983 251.09 14.8983C251.09 14.8983 251.253 10.6214 251.291 10.1696C251.323 9.79309 250.836 9.59921 250.557 9.48157C249.877 9.19425 249.27 9.05668 248.55 8.90816C247.555 8.70283 247.103 8.90367 247.015 9.74374C246.882 11.0187 246.814 14.753 246.814 14.753C246.084 14.753 243.589 14.6102 242.859 14.6102C242.18 14.6102 241.448 17.5296 242.386 17.5655C243.466 17.6074 245.347 17.6435 246.594 17.6811C246.594 17.6811 246.538 24.2307 246.538 26.2527C246.538 26.4678 246.54 26.675 246.54 26.876C245.854 30.4546 243.437 32.3876 243.437 32.3876C243.956 30.0202 242.895 28.2424 240.985 26.7375C240.282 26.1829 238.892 25.133 237.338 23.9825C237.338 23.9825 238.238 23.0949 239.036 21.3091C239.602 20.0441 239.627 18.5965 238.238 18.2773C235.944 17.7494 234.052 19.435 233.488 21.2346C233.051 22.6286 233.284 23.663 234.14 24.7376C234.203 24.8161 234.271 24.8963 234.341 24.9771C233.823 25.9757 233.111 27.3201 232.509 28.3628C230.836 31.2575 229.573 33.5472 228.618 33.5472C227.854 33.5472 227.865 31.2226 227.865 29.0461C227.865 27.1698 228.003 24.3488 228.114 21.4282C228.15 20.4623 227.668 19.912 226.858 19.4136C226.367 19.1108 225.317 18.5155 224.709 18.5155C223.799 18.5155 221.175 18.6393 218.694 25.8162C218.382 26.7207 217.768 28.369 217.768 28.369L217.821 19.7386C217.821 19.5362 217.713 19.3406 217.466 19.2068C217.048 18.9798 215.932 18.5155 214.94 18.5155C214.467 18.5155 214.231 18.7355 214.231 19.1741L214.144 32.6765C214.144 33.7024 214.171 34.8992 214.272 35.4227C214.373 35.9468 214.537 36.3732 214.74 36.6269C214.942 36.88 215.176 37.0732 215.562 37.1529C215.921 37.2269 217.889 37.4796 217.991 36.7275C218.114 35.8262 218.118 34.8513 219.151 31.2154C220.759 25.5547 222.856 22.7928 223.842 21.812C224.014 21.6405 224.211 21.6303 224.202 21.9109C224.16 23.1519 224.012 26.253 223.912 28.8876C223.645 35.938 224.927 37.2449 226.759 37.2449C228.161 37.2449 230.137 35.8515 232.255 32.3246C233.576 30.1267 234.858 27.9715 235.779 26.4182C236.421 27.0127 237.141 27.6526 237.861 28.3361C239.534 29.9246 240.084 31.434 239.719 32.8659C239.44 33.9605 238.391 35.0886 236.522 33.9922C235.978 33.6723 235.745 33.4251 235.198 33.0645C234.904 32.8707 234.454 32.8128 234.185 33.0158C233.486 33.5434 233.086 34.2145 232.857 35.0453C232.635 35.8538 233.444 36.2811 234.283 36.6549C235.006 36.9767 236.558 37.2682 237.549 37.3014C241.407 37.4305 244.498 35.4378 246.649 30.2978C247.034 34.7369 248.673 37.2488 251.521 37.2488C253.425 37.2488 255.334 34.7869 256.169 32.3649C256.408 33.3522 256.763 34.2107 257.221 34.9367C259.416 38.4148 263.673 37.6662 265.811 34.7127C266.472 33.8001 266.573 33.4722 266.573 33.4722C266.885 36.261 269.13 37.2354 270.415 37.2354C271.855 37.2354 273.341 36.5546 274.383 34.2083C274.505 34.4629 274.638 34.7061 274.784 34.9366C276.978 38.4148 281.235 37.6662 283.374 34.7127C283.474 34.5741 283.562 34.4484 283.638 34.3356L283.701 36.1675C283.701 36.1675 282.481 37.287 281.732 37.9737C278.437 40.9985 275.931 43.2934 275.746 45.9659C275.51 49.3735 278.272 50.64 280.362 50.8059C282.582 50.9821 284.483 49.7556 285.651 48.039C286.678 46.5281 287.351 43.2762 287.302 40.0645C287.282 38.7784 287.25 37.1431 287.224 35.3902C288.383 34.0445 289.688 32.3437 290.889 30.3528C292.199 28.1832 293.602 25.2696 294.321 23.0021C294.321 23.0021 295.541 23.0125 296.842 22.9273C297.258 22.9002 297.378 22.9851 297.301 23.2904C297.208 23.6592 295.657 29.6446 297.072 33.6318C298.041 36.3614 300.226 37.2395 301.521 37.2395C303.037 37.2395 304.487 36.0942 305.265 34.3934C305.358 34.583 305.456 34.7665 305.563 34.9359C307.757 38.414 311.999 37.6609 314.153 34.7119C314.639 34.0466 314.915 33.4714 314.915 33.4714C315.377 36.3576 317.62 37.2493 318.905 37.2493C320.244 37.2493 321.515 36.7002 322.545 34.2603C322.589 35.3346 322.656 36.2131 322.763 36.49C322.829 36.6594 323.209 36.872 323.486 36.9747C324.71 37.429 325.96 37.2142 326.422 37.1207C326.742 37.0559 326.991 36.799 327.025 36.1356C327.115 34.3937 327.06 31.467 327.588 29.292C328.474 25.6416 329.301 24.2257 329.693 23.5247C329.912 23.1319 330.16 23.0671 330.169 23.4828C330.187 24.3238 330.229 26.7937 330.572 30.1121C330.824 32.5526 331.161 33.9952 331.42 34.4517C332.159 35.7573 333.071 35.8191 333.814 35.8191C334.286 35.8191 335.274 35.6885 335.186 34.8576C335.143 34.4527 335.218 31.9499 336.092 28.3537C336.663 26.0052 337.614 23.8832 337.957 23.1075C338.083 22.8214 338.142 23.0469 338.14 23.0908C338.068 24.7082 337.906 29.9983 338.564 32.8915C339.457 36.811 342.04 37.2496 342.94 37.2496C344.861 37.2496 346.433 35.7874 346.962 31.9403C347.089 31.0145 346.901 30.2996 346.335 30.2996" fill="#262626"/>
</svg>
