<svg width="66" height="66" viewBox="0 0 66 66" fill="none" xmlns="http://www.w3.org/2000/svg">
<rect width="66" height="66" rx="10" fill="#3E96F4"/>
<path d="M57.8142 50.1539C58.716 49.9566 59.5232 49.4566 60.1014 48.7369C60.6796 48.0173 60.9941 47.1214 60.9925 46.1983C60.9906 45.2249 60.6345 44.2855 59.9906 43.5554C60.1166 43.2065 60.181 42.8382 60.1806 42.4672C60.1806 41.6082 59.8394 40.7844 59.232 40.177C58.6246 39.5696 57.8008 39.2284 56.9419 39.2284C56.0829 39.2284 55.2591 39.5696 54.6517 40.177C54.0443 40.7844 53.7031 41.6082 53.7031 42.4672C53.7028 42.8382 53.7671 43.2065 53.8931 43.5554C53.2479 44.2846 52.8916 45.2246 52.8912 46.1983C52.8896 47.1214 53.2041 48.0173 53.7823 48.7369C54.3606 49.4566 55.1677 49.9566 56.0695 50.1539V53.9022H52.3558V18.1116L30.7812 9.28491V17.4034L10.8304 9.28491V53.8849H7.4621V55.6123H60.1461V53.8849H57.8142V50.1539ZM54.6359 46.1983C54.6458 45.8649 54.7282 45.5377 54.8774 45.2394C55.0265 44.9411 55.2388 44.6789 55.4995 44.4709L56.1041 43.9873L55.6895 43.3309C55.5456 43.1036 55.4653 42.8419 55.4571 42.573C55.4488 42.3041 55.5129 42.0379 55.6426 41.8022C55.7723 41.5665 55.9629 41.37 56.1945 41.2331C56.426 41.0962 56.6901 41.024 56.9591 41.024C57.2281 41.024 57.4922 41.0962 57.7238 41.2331C57.9554 41.37 58.146 41.5665 58.2757 41.8022C58.4054 42.0379 58.4695 42.3041 58.4612 42.573C58.453 42.8419 58.3727 43.1036 58.2287 43.3309L57.8142 43.9873L58.4015 44.4709C58.7085 44.7183 58.9473 45.04 59.0951 45.4056C59.2429 45.7712 59.2949 46.1684 59.2461 46.5597C59.1973 46.951 59.0494 47.3234 58.8163 47.6414C58.5832 47.9595 58.2728 48.2128 57.9143 48.3772C57.5559 48.5416 57.1615 48.6117 56.7683 48.5809C56.3752 48.5501 55.9965 48.4193 55.6681 48.201C55.3397 47.9828 55.0725 47.6842 54.8918 47.3337C54.7112 46.9832 54.6231 46.5924 54.6359 46.1983ZM32.5086 11.8587L50.6802 19.269V50.5339H32.5086V11.8587ZM30.7812 21.8772H28.0175V23.6046H30.7812V27.8884H28.0175V29.6158H30.7812V33.8996H28.0175V35.6269H30.7812V40.6362H28.0175V42.3635H30.7812V47.1137H22.5764V45.8182H25.1501V44.0909H22.5764V39.5134H25.1501V37.7861H22.5764V33.2086H25.1501V31.4813H22.5764V26.9211H25.1501V25.1937H22.5764V20.6508H25.1501V18.9235H22.5764V15.9525L30.7812 19.2862V21.8772ZM19.0353 48.8238V53.8849H17.1179V48.8411L19.0353 48.8238ZM20.7626 48.8238H22.5764V53.8849H20.7108L20.7626 48.8238ZM24.3555 48.8238H26.2211V53.8849H24.3037L24.3555 48.8238ZM20.9008 15.227V47.1137H12.5578V11.8587L20.9008 15.227ZM12.5578 48.8411H15.3906V53.9022H12.5578V48.8411ZM27.8966 53.9022V48.8411H30.7812V53.9022H27.8966ZM32.4568 53.9022V52.2785H50.6284V53.9022H32.4568Z" fill="white"/>
<path d="M14.3196 23.9327H17.3943V25.6601H14.3196V23.9327ZM14.3196 27.8884H17.3943V29.6157H14.3196V27.8884ZM14.3196 31.844H17.3943V33.5713H14.3196V31.844ZM14.3196 35.7996H17.3943V37.5269H14.3196V35.7996ZM14.3196 39.7552H17.3943V41.4826H14.3196V39.7552ZM44.3927 23.9327H47.4674V25.6601H44.3927V23.9327ZM44.3927 27.8884H47.4674V29.6157H44.3927V27.8884ZM44.3927 31.844H47.4674V33.5713H44.3927V31.844ZM44.3927 35.7996H47.4674V37.5269H44.3927V35.7996ZM44.3927 39.7552H47.4674V41.4826H44.3927V39.7552ZM44.3927 43.7108H47.4674V45.4382H44.3927V43.7108ZM35.6178 23.9327H38.6925V25.6601H35.6178V23.9327ZM35.6178 27.8884H38.6925V29.6157H35.6178V27.8884ZM35.6178 31.844H38.6925V33.5713H35.6178V31.844ZM35.6178 35.7996H38.6925V37.5269H35.6178V35.7996ZM35.6178 39.7552H38.6925V41.4826H35.6178V39.7552ZM35.6178 43.7108H38.6925V45.4382H35.6178V43.7108ZM14.3196 43.7108H17.3943V45.4382H14.3196V43.7108Z" fill="white"/>
</svg>
