<svg width="48" height="48" viewBox="0 0 48 48" fill="none" xmlns="http://www.w3.org/2000/svg">
<path d="M24.0008 18.8409C21.1452 18.8409 18.822 21.1553 18.822 24C18.822 26.8447 21.1452 29.1591 24.0008 29.1591C26.8565 29.1591 29.1797 26.8447 29.1797 24C29.1797 21.1553 26.8565 18.8409 24.0008 18.8409ZM24.0008 27.6106C22.0022 27.6106 20.3763 25.991 20.3763 24C20.3763 22.009 22.0022 20.3894 24.0008 20.3894C25.9994 20.3894 27.6254 22.009 27.6254 24C27.6254 25.991 25.9994 27.6106 24.0008 27.6106ZM35.0864 21.9969L32.3888 21.4445C32.225 20.9097 32.0097 20.392 31.746 19.8985L33.2613 17.6078C33.3598 17.4589 33.4037 17.2808 33.3855 17.1034C33.3674 16.9261 33.2885 16.7604 33.162 16.6343L31.3949 14.874C31.2683 14.7479 31.102 14.6692 30.924 14.6512C30.7459 14.6331 30.5671 14.6769 30.4177 14.775L28.1181 16.2846C27.6227 16.0218 27.103 15.8073 26.5662 15.6442L26.0117 12.957C25.9756 12.7824 25.8802 12.6255 25.7415 12.5129C25.6028 12.4002 25.4293 12.3387 25.2505 12.3387H22.7512C22.5723 12.3387 22.3988 12.4002 22.2602 12.5129C22.1215 12.6255 22.0261 12.7824 21.99 12.957L21.4355 15.6442C20.8987 15.8073 20.379 16.0218 19.8836 16.2846L17.584 14.775C17.4346 14.6769 17.2558 14.6331 17.0777 14.6512C16.8997 14.6692 16.7334 14.7479 16.6069 14.874L14.8397 16.6343C14.7132 16.7604 14.6342 16.9261 14.6161 17.1034C14.598 17.2808 14.6419 17.4589 14.7404 17.6078L16.2558 19.8985C15.992 20.3919 15.7766 20.9097 15.6128 21.4444L12.9153 21.9968C12.74 22.0327 12.5826 22.1277 12.4695 22.2659C12.3565 22.404 12.2947 22.5768 12.2947 22.7551V25.2447C12.2947 25.4229 12.3565 25.5957 12.4695 25.7339C12.5826 25.8721 12.74 25.9671 12.9153 26.0031L15.6128 26.5554C15.7766 27.0902 15.9919 27.6079 16.2556 28.1014L14.7403 30.3921C14.6418 30.5409 14.5979 30.7191 14.6161 30.8965C14.6342 31.0738 14.7131 31.2395 14.8396 31.3656L16.6067 33.1259C16.7333 33.2519 16.8996 33.3306 17.0776 33.3487C17.2556 33.3667 17.4345 33.323 17.5839 33.2249L19.8835 31.7153C20.3788 31.978 20.8985 32.1925 21.4353 32.3557L21.9898 35.0429C22.0258 35.2175 22.1213 35.3744 22.26 35.487C22.3987 35.5996 22.5721 35.6612 22.751 35.6612H25.2502C25.4292 35.6612 25.6027 35.5996 25.7414 35.487C25.88 35.3744 25.9754 35.2175 26.0114 35.0429L26.566 32.3557C27.1028 32.1926 27.6225 31.9781 28.1179 31.7153L30.4175 33.2249C30.5669 33.323 30.7457 33.3667 30.9237 33.3487C31.1017 33.3306 31.2681 33.2519 31.3946 33.1259L33.1617 31.3656C33.2883 31.2395 33.3673 31.0738 33.3854 30.8965C33.4035 30.7191 33.3596 30.5409 33.2612 30.3921L31.7457 28.1014C32.0095 27.6079 32.2248 27.0903 32.3887 26.5555L35.0861 26.0031C35.2614 25.9672 35.4188 25.8722 35.532 25.734C35.645 25.5958 35.7068 25.423 35.7068 25.2448V22.7552C35.7068 22.577 35.6452 22.4041 35.5322 22.266C35.4191 22.1278 35.2616 22.0328 35.0864 21.9969ZM34.1527 24.6135L31.6093 25.1343C31.4651 25.1639 31.3323 25.2336 31.2264 25.3354C31.1204 25.4372 31.0456 25.5668 31.0107 25.7092C30.8365 26.4214 30.5532 27.1026 30.1708 27.7289C30.0944 27.8542 30.0552 27.9986 30.0578 28.1451C30.0605 28.2918 30.1049 28.4346 30.1859 28.5571L31.6147 30.717L30.7436 31.5847L28.5755 30.1613C28.4525 30.0807 28.3091 30.0363 28.1619 30.0337C28.0147 30.031 27.8698 30.0701 27.744 30.1463C27.1154 30.5272 26.4315 30.8095 25.7167 30.9831C25.5736 31.0178 25.4435 31.0923 25.3413 31.1978C25.2392 31.3034 25.1692 31.4356 25.1396 31.5793L24.6168 34.1129H23.3849L22.8621 31.5793C22.8325 31.4356 22.7624 31.3034 22.6604 31.1979C22.5582 31.0923 22.4281 31.0178 22.285 30.9831C21.5701 30.8095 20.8862 30.5272 20.2576 30.1463C20.1318 30.0701 19.9869 30.0311 19.8398 30.0338C19.6926 30.0364 19.5492 30.0807 19.4262 30.1613L17.258 31.5847L16.387 30.717L17.8158 28.5571C17.8968 28.4346 17.9413 28.2918 17.9439 28.1451C17.9466 27.9985 17.9073 27.8541 17.8309 27.7288C17.4485 27.1026 17.1652 26.4213 16.991 25.7092C16.9561 25.5668 16.8813 25.4371 16.7754 25.3353C16.6694 25.2336 16.5366 25.1639 16.3924 25.1343L13.849 24.6135V23.3865L16.3924 22.8656C16.5366 22.8361 16.6694 22.7664 16.7753 22.6647C16.8813 22.5628 16.9561 22.4332 16.991 22.2908C17.1652 21.5786 17.4485 20.8974 17.8309 20.2711C17.9073 20.1458 17.9465 20.0014 17.9438 19.8548C17.9411 19.7082 17.8967 19.5653 17.8157 19.4429L16.3869 17.283L17.2579 16.4153L19.4261 17.8387C19.549 17.9193 19.6925 17.9637 19.8397 17.9663C19.9868 17.969 20.1318 17.9299 20.2576 17.8537C20.8862 17.4728 21.5701 17.1905 22.2849 17.0169C22.428 16.9822 22.5581 16.9077 22.6603 16.8022C22.7624 16.6966 22.8324 16.5644 22.862 16.4207L23.3848 13.8871H24.6166L25.1395 16.4207C25.1691 16.5644 25.2391 16.6966 25.3412 16.8021C25.4434 16.9077 25.5735 16.9822 25.7166 17.0169C26.4315 17.1905 27.1154 17.4727 27.744 17.8537C27.8698 17.9299 28.0147 17.9689 28.1618 17.9662C28.309 17.9636 28.4524 17.9193 28.5754 17.8387L30.7436 16.4153L31.6146 17.283L30.1857 19.4429C30.1047 19.5654 30.0603 19.7082 30.0577 19.8549C30.055 20.0015 30.0942 20.1459 30.1707 20.2712C30.5531 20.8974 30.8364 21.5787 31.0106 22.2908C31.0455 22.4332 31.1203 22.5629 31.2262 22.6647C31.3322 22.7664 31.465 22.8361 31.6092 22.8656L34.1526 23.3865L34.1527 24.6135ZM41.9965 29.7818V18.2182C43.9478 17.8538 45.4294 16.1451 45.4294 14.097C45.4294 11.7844 43.5408 9.90291 41.2193 9.90291C39.9438 9.90291 38.7998 10.4716 38.027 11.3671L27.9723 5.58426C28.1305 5.13771 28.2112 4.66762 28.211 4.19409C28.211 1.88139 26.3223 0 24.0008 0C21.6794 0 19.7906 1.88139 19.7906 4.194C19.7906 4.68116 19.8753 5.14887 20.0294 5.58416L9.97464 11.3671C9.20192 10.4717 8.05794 9.90291 6.7824 9.90291C4.46099 9.90291 2.57227 11.7844 2.57227 14.097C2.57227 16.1451 4.05395 17.8538 6.00523 18.2182V29.7818C4.05395 30.1461 2.57227 31.8549 2.57227 33.9029C2.57227 36.2155 4.46089 38.097 6.7824 38.097C8.05794 38.097 9.20192 37.5283 9.97464 36.6328L20.0294 42.4157C19.8712 42.8623 19.7905 43.3323 19.7906 43.8059C19.7906 46.1185 21.6794 48 24.0008 48C26.3223 48 28.211 46.1185 28.211 43.8059C28.2112 43.3323 28.1305 42.8623 27.9723 42.4157L38.027 36.6328C38.7998 37.5282 39.9438 38.097 41.2193 38.097C43.5408 38.097 45.4294 36.2155 45.4294 33.9029C45.4294 31.8549 43.9478 30.1461 41.9965 29.7818ZM41.2193 11.4514C42.6836 11.4514 43.8751 12.6382 43.8751 14.0971C43.8751 15.5559 42.6836 16.7427 41.2193 16.7427C39.7548 16.7427 38.5635 15.5559 38.5635 14.0971C38.5634 12.6382 39.7548 11.4514 41.2193 11.4514ZM24.0008 1.54839C25.4654 1.54839 26.6567 2.73523 26.6567 4.194C26.6567 5.65277 25.4654 6.83971 24.0008 6.83971C22.5363 6.83971 21.345 5.65287 21.345 4.194C21.345 2.73513 22.5363 1.54839 24.0008 1.54839ZM4.12661 14.097C4.12661 12.6381 5.31801 11.4513 6.7824 11.4513C8.24689 11.4513 9.43832 12.6381 9.43832 14.097C9.43832 15.5558 8.24689 16.7426 6.7824 16.7426C5.31801 16.7427 4.12661 15.5559 4.12661 14.097ZM6.7824 36.5486C5.31801 36.5486 4.12661 35.3618 4.12661 33.9029C4.12661 32.4441 5.31801 31.2573 6.7824 31.2573C8.24689 31.2573 9.43832 32.4441 9.43832 33.9029C9.43832 35.3618 8.24689 36.5486 6.7824 36.5486ZM24.0008 46.4516C22.5363 46.4516 21.345 45.2648 21.345 43.8059C21.345 42.3471 22.5363 41.1603 24.0008 41.1603C25.4654 41.1603 26.6567 42.3471 26.6567 43.8059C26.6567 45.2647 25.4654 46.4516 24.0008 46.4516ZM27.1931 41.076C26.4204 40.1806 25.2764 39.6119 24.0008 39.6119C22.7253 39.6119 21.5813 40.1806 20.8086 41.076L10.7539 35.293C10.912 34.8465 10.9928 34.3764 10.9927 33.9029C10.9927 31.8549 9.51092 30.1461 7.55957 29.7818V18.2182C9.51092 17.8538 10.9927 16.1451 10.9927 14.097C10.9928 13.6235 10.912 13.1534 10.7539 12.7068L20.8086 6.924C21.5813 7.81935 22.7253 8.38809 24.0008 8.38809C25.2764 8.38809 26.4204 7.81935 27.1931 6.924L37.2478 12.7068C37.0897 13.1534 37.0089 13.6235 37.009 14.097C37.009 16.1451 38.4908 17.8538 40.442 18.2182V29.7817C38.4907 30.1461 37.009 31.8549 37.009 33.9028C37.009 34.3899 37.0938 34.8576 37.2478 35.2929L27.1931 41.076ZM41.2193 36.5486C39.7548 36.5486 38.5635 35.3618 38.5635 33.9029C38.5635 32.4441 39.7549 31.2573 41.2193 31.2573C42.6836 31.2573 43.8751 32.4441 43.8751 33.9029C43.8751 35.3618 42.6836 36.5486 41.2193 36.5486Z" fill="url(#paint0_linear_2658_1016)"/>
<path d="M24.0008 18.8409C21.1452 18.8409 18.822 21.1553 18.822 24C18.822 26.8447 21.1452 29.1591 24.0008 29.1591C26.8565 29.1591 29.1797 26.8447 29.1797 24C29.1797 21.1553 26.8565 18.8409 24.0008 18.8409ZM24.0008 27.6106C22.0022 27.6106 20.3763 25.991 20.3763 24C20.3763 22.009 22.0022 20.3894 24.0008 20.3894C25.9994 20.3894 27.6254 22.009 27.6254 24C27.6254 25.991 25.9994 27.6106 24.0008 27.6106ZM35.0864 21.9969L32.3888 21.4445C32.225 20.9097 32.0097 20.392 31.746 19.8985L33.2613 17.6078C33.3598 17.4589 33.4037 17.2808 33.3855 17.1034C33.3674 16.9261 33.2885 16.7604 33.162 16.6343L31.3949 14.874C31.2683 14.7479 31.102 14.6692 30.924 14.6512C30.7459 14.6331 30.5671 14.6769 30.4177 14.775L28.1181 16.2846C27.6227 16.0218 27.103 15.8073 26.5662 15.6442L26.0117 12.957C25.9756 12.7824 25.8802 12.6255 25.7415 12.5129C25.6028 12.4002 25.4293 12.3387 25.2505 12.3387H22.7512C22.5723 12.3387 22.3988 12.4002 22.2602 12.5129C22.1215 12.6255 22.0261 12.7824 21.99 12.957L21.4355 15.6442C20.8987 15.8073 20.379 16.0218 19.8836 16.2846L17.584 14.775C17.4346 14.6769 17.2558 14.6331 17.0777 14.6512C16.8997 14.6692 16.7334 14.7479 16.6069 14.874L14.8397 16.6343C14.7132 16.7604 14.6342 16.9261 14.6161 17.1034C14.598 17.2808 14.6419 17.4589 14.7404 17.6078L16.2558 19.8985C15.992 20.3919 15.7766 20.9097 15.6128 21.4444L12.9153 21.9968C12.74 22.0327 12.5826 22.1277 12.4695 22.2659C12.3565 22.404 12.2947 22.5768 12.2947 22.7551V25.2447C12.2947 25.4229 12.3565 25.5957 12.4695 25.7339C12.5826 25.8721 12.74 25.9671 12.9153 26.0031L15.6128 26.5554C15.7766 27.0902 15.9919 27.6079 16.2556 28.1014L14.7403 30.3921C14.6418 30.5409 14.5979 30.7191 14.6161 30.8965C14.6342 31.0738 14.7131 31.2395 14.8396 31.3656L16.6067 33.1259C16.7333 33.2519 16.8996 33.3306 17.0776 33.3487C17.2556 33.3667 17.4345 33.323 17.5839 33.2249L19.8835 31.7153C20.3788 31.978 20.8985 32.1925 21.4353 32.3557L21.9898 35.0429C22.0258 35.2175 22.1213 35.3744 22.26 35.487C22.3987 35.5996 22.5721 35.6612 22.751 35.6612H25.2502C25.4292 35.6612 25.6027 35.5996 25.7414 35.487C25.88 35.3744 25.9754 35.2175 26.0114 35.0429L26.566 32.3557C27.1028 32.1926 27.6225 31.9781 28.1179 31.7153L30.4175 33.2249C30.5669 33.323 30.7457 33.3667 30.9237 33.3487C31.1017 33.3306 31.2681 33.2519 31.3946 33.1259L33.1617 31.3656C33.2883 31.2395 33.3673 31.0738 33.3854 30.8965C33.4035 30.7191 33.3596 30.5409 33.2612 30.3921L31.7457 28.1014C32.0095 27.6079 32.2248 27.0903 32.3887 26.5555L35.0861 26.0031C35.2614 25.9672 35.4188 25.8722 35.532 25.734C35.645 25.5958 35.7068 25.423 35.7068 25.2448V22.7552C35.7068 22.577 35.6452 22.4041 35.5322 22.266C35.4191 22.1278 35.2616 22.0328 35.0864 21.9969ZM34.1527 24.6135L31.6093 25.1343C31.4651 25.1639 31.3323 25.2336 31.2264 25.3354C31.1204 25.4372 31.0456 25.5668 31.0107 25.7092C30.8365 26.4214 30.5532 27.1026 30.1708 27.7289C30.0944 27.8542 30.0552 27.9986 30.0578 28.1451C30.0605 28.2918 30.1049 28.4346 30.1859 28.5571L31.6147 30.717L30.7436 31.5847L28.5755 30.1613C28.4525 30.0807 28.3091 30.0363 28.1619 30.0337C28.0147 30.031 27.8698 30.0701 27.744 30.1463C27.1154 30.5272 26.4315 30.8095 25.7167 30.9831C25.5736 31.0178 25.4435 31.0923 25.3413 31.1978C25.2392 31.3034 25.1692 31.4356 25.1396 31.5793L24.6168 34.1129H23.3849L22.8621 31.5793C22.8325 31.4356 22.7624 31.3034 22.6604 31.1979C22.5582 31.0923 22.4281 31.0178 22.285 30.9831C21.5701 30.8095 20.8862 30.5272 20.2576 30.1463C20.1318 30.0701 19.9869 30.0311 19.8398 30.0338C19.6926 30.0364 19.5492 30.0807 19.4262 30.1613L17.258 31.5847L16.387 30.717L17.8158 28.5571C17.8968 28.4346 17.9413 28.2918 17.9439 28.1451C17.9466 27.9985 17.9073 27.8541 17.8309 27.7288C17.4485 27.1026 17.1652 26.4213 16.991 25.7092C16.9561 25.5668 16.8813 25.4371 16.7754 25.3353C16.6694 25.2336 16.5366 25.1639 16.3924 25.1343L13.849 24.6135V23.3865L16.3924 22.8656C16.5366 22.8361 16.6694 22.7664 16.7753 22.6647C16.8813 22.5628 16.9561 22.4332 16.991 22.2908C17.1652 21.5786 17.4485 20.8974 17.8309 20.2711C17.9073 20.1458 17.9465 20.0014 17.9438 19.8548C17.9411 19.7082 17.8967 19.5653 17.8157 19.4429L16.3869 17.283L17.2579 16.4153L19.4261 17.8387C19.549 17.9193 19.6925 17.9637 19.8397 17.9663C19.9868 17.969 20.1318 17.9299 20.2576 17.8537C20.8862 17.4728 21.5701 17.1905 22.2849 17.0169C22.428 16.9822 22.5581 16.9077 22.6603 16.8022C22.7624 16.6966 22.8324 16.5644 22.862 16.4207L23.3848 13.8871H24.6166L25.1395 16.4207C25.1691 16.5644 25.2391 16.6966 25.3412 16.8021C25.4434 16.9077 25.5735 16.9822 25.7166 17.0169C26.4315 17.1905 27.1154 17.4727 27.744 17.8537C27.8698 17.9299 28.0147 17.9689 28.1618 17.9662C28.309 17.9636 28.4524 17.9193 28.5754 17.8387L30.7436 16.4153L31.6146 17.283L30.1857 19.4429C30.1047 19.5654 30.0603 19.7082 30.0577 19.8549C30.055 20.0015 30.0942 20.1459 30.1707 20.2712C30.5531 20.8974 30.8364 21.5787 31.0106 22.2908C31.0455 22.4332 31.1203 22.5629 31.2262 22.6647C31.3322 22.7664 31.465 22.8361 31.6092 22.8656L34.1526 23.3865L34.1527 24.6135ZM41.9965 29.7818V18.2182C43.9478 17.8538 45.4294 16.1451 45.4294 14.097C45.4294 11.7844 43.5408 9.90291 41.2193 9.90291C39.9438 9.90291 38.7998 10.4716 38.027 11.3671L27.9723 5.58426C28.1305 5.13771 28.2112 4.66762 28.211 4.19409C28.211 1.88139 26.3223 0 24.0008 0C21.6794 0 19.7906 1.88139 19.7906 4.194C19.7906 4.68116 19.8753 5.14887 20.0294 5.58416L9.97464 11.3671C9.20192 10.4717 8.05794 9.90291 6.7824 9.90291C4.46099 9.90291 2.57227 11.7844 2.57227 14.097C2.57227 16.1451 4.05395 17.8538 6.00523 18.2182V29.7818C4.05395 30.1461 2.57227 31.8549 2.57227 33.9029C2.57227 36.2155 4.46089 38.097 6.7824 38.097C8.05794 38.097 9.20192 37.5283 9.97464 36.6328L20.0294 42.4157C19.8712 42.8623 19.7905 43.3323 19.7906 43.8059C19.7906 46.1185 21.6794 48 24.0008 48C26.3223 48 28.211 46.1185 28.211 43.8059C28.2112 43.3323 28.1305 42.8623 27.9723 42.4157L38.027 36.6328C38.7998 37.5282 39.9438 38.097 41.2193 38.097C43.5408 38.097 45.4294 36.2155 45.4294 33.9029C45.4294 31.8549 43.9478 30.1461 41.9965 29.7818ZM41.2193 11.4514C42.6836 11.4514 43.8751 12.6382 43.8751 14.0971C43.8751 15.5559 42.6836 16.7427 41.2193 16.7427C39.7548 16.7427 38.5635 15.5559 38.5635 14.0971C38.5634 12.6382 39.7548 11.4514 41.2193 11.4514ZM24.0008 1.54839C25.4654 1.54839 26.6567 2.73523 26.6567 4.194C26.6567 5.65277 25.4654 6.83971 24.0008 6.83971C22.5363 6.83971 21.345 5.65287 21.345 4.194C21.345 2.73513 22.5363 1.54839 24.0008 1.54839ZM4.12661 14.097C4.12661 12.6381 5.31801 11.4513 6.7824 11.4513C8.24689 11.4513 9.43832 12.6381 9.43832 14.097C9.43832 15.5558 8.24689 16.7426 6.7824 16.7426C5.31801 16.7427 4.12661 15.5559 4.12661 14.097ZM6.7824 36.5486C5.31801 36.5486 4.12661 35.3618 4.12661 33.9029C4.12661 32.4441 5.31801 31.2573 6.7824 31.2573C8.24689 31.2573 9.43832 32.4441 9.43832 33.9029C9.43832 35.3618 8.24689 36.5486 6.7824 36.5486ZM24.0008 46.4516C22.5363 46.4516 21.345 45.2648 21.345 43.8059C21.345 42.3471 22.5363 41.1603 24.0008 41.1603C25.4654 41.1603 26.6567 42.3471 26.6567 43.8059C26.6567 45.2647 25.4654 46.4516 24.0008 46.4516ZM27.1931 41.076C26.4204 40.1806 25.2764 39.6119 24.0008 39.6119C22.7253 39.6119 21.5813 40.1806 20.8086 41.076L10.7539 35.293C10.912 34.8465 10.9928 34.3764 10.9927 33.9029C10.9927 31.8549 9.51092 30.1461 7.55957 29.7818V18.2182C9.51092 17.8538 10.9927 16.1451 10.9927 14.097C10.9928 13.6235 10.912 13.1534 10.7539 12.7068L20.8086 6.924C21.5813 7.81935 22.7253 8.38809 24.0008 8.38809C25.2764 8.38809 26.4204 7.81935 27.1931 6.924L37.2478 12.7068C37.0897 13.1534 37.0089 13.6235 37.009 14.097C37.009 16.1451 38.4908 17.8538 40.442 18.2182V29.7817C38.4907 30.1461 37.009 31.8549 37.009 33.9028C37.009 34.3899 37.0938 34.8576 37.2478 35.2929L27.1931 41.076ZM41.2193 36.5486C39.7548 36.5486 38.5635 35.3618 38.5635 33.9029C38.5635 32.4441 39.7549 31.2573 41.2193 31.2573C42.6836 31.2573 43.8751 32.4441 43.8751 33.9029C43.8751 35.3618 42.6836 36.5486 41.2193 36.5486Z" fill="#3DA4C2"/>
<defs>
<linearGradient id="paint0_linear_2658_1016" x1="45.4294" y1="48" x2="-2.31929" y2="5.49501" gradientUnits="userSpaceOnUse">
<stop stop-color="#31393C"/>
<stop offset="1" stop-color="#3D96F5"/>
</linearGradient>
</defs>
</svg>
