<svg width="36" height="36" viewBox="0 0 36 36" fill="none" xmlns="http://www.w3.org/2000/svg">
<path fill-rule="evenodd" clip-rule="evenodd" d="M5.4 0C2.41766 0 0 2.41766 0 5.4V30.6C0 33.5823 2.41766 36 5.4 36H30.6C33.5823 36 36 33.5823 36 30.6V5.4C36 2.41766 33.5823 0 30.6 0H5.4ZM29.7 34.2H30.6C32.5882 34.2 34.2 32.5882 34.2 30.6V9H29.7V26.1H32.4C32.8971 26.1 33.3 26.5029 33.3 27V30.6C33.3 31.0971 32.8971 31.5 32.4 31.5H29.7V34.2ZM27.9 9H22.5V22.5H26.1C26.5971 22.5 27 22.9029 27 23.4V26.1H27.9V9ZM20.7 9H15.3V18.9H18C18.4971 18.9 18.9 19.3029 18.9 19.8V22.5H20.7V9ZM13.5 9H8.1V11.7H10.8C11.2971 11.7 11.7 12.1029 11.7 12.6V15.3H13.5V9ZM6.3 9H1.8V30.6C1.8 32.5882 3.41177 34.2 5.4 34.2H6.3V20.7H5.4C4.90294 20.7 4.5 20.2971 4.5 19.8V17.1H3.6C3.10295 17.1 2.7 16.6971 2.7 16.2V12.6C2.7 12.1029 3.10295 11.7 3.6 11.7H6.3V9ZM8.1 34.2H13.5V24.3H10.8C10.3029 24.3 9.9 23.8971 9.9 23.4V20.7H8.1V34.2ZM15.3 34.2H20.7V27.9H15.3V34.2ZM22.5 34.2V27.9H25.2V30.6C25.2 31.0971 25.6029 31.5 26.1 31.5H27.9V34.2H22.5ZM34.2 7.2V5.4C34.2 3.41177 32.5882 1.8 30.6 1.8H5.4C3.41177 1.8 1.8 3.41177 1.8 5.4V7.2H34.2ZM31.5 29.7V27.9H27V29.7H31.5ZM17.1 20.7V22.5H11.7V20.7H17.1ZM25.2 24.3V26.1H15.3V24.3H25.2ZM13.5 18.9V17.1H6.3V18.9H13.5ZM9.9 13.5V15.3H4.5V13.5H9.9Z" fill="#3DA4C2"/>
</svg>
