<svg width="167" height="164" viewBox="0 0 167 164" fill="none" xmlns="http://www.w3.org/2000/svg">
<g clip-path="url(#clip0_37_58)">
<path d="M158.29 103.662C169.83 110.322 169.89 121.106 158.42 127.765L104.58 159.008C93.11 165.658 74.4599 165.658 62.9099 159.008L8.72 127.765C-2.83 121.106 -2.89001 110.322 8.57999 103.662L62.44 72.4198C73.91 65.7699 92.57 65.7699 104.11 72.4198L158.29 103.662Z" fill="#EDEDED"/>
<path d="M158.44 98.7096L104.6 129.942C93.1299 136.602 74.48 136.602 62.93 129.942L8.73995 98.7096C2.92996 95.3547 0.0299428 90.9614 0.0399428 86.5681V92.7886C0.0399428 97.1819 2.92996 101.575 8.73995 104.92L62.93 136.163C74.48 142.822 93.1299 142.822 104.6 136.163L158.44 104.92C164.14 101.615 166.99 97.2918 167.01 92.9384V86.7179C166.97 91.0712 164.12 95.3946 158.44 98.7096Z" fill="#DBDBDB"/>
<path d="M158.29 74.6062C169.83 81.2661 169.89 92.0496 158.42 98.7095L104.58 129.942C93.11 136.602 74.4599 136.602 62.9099 129.942L8.72 98.7095C-2.83 92.0496 -2.89001 81.2661 8.57999 74.6062L62.44 43.3639C73.91 36.714 92.57 36.714 104.11 43.3639L158.29 74.6062Z" fill="white"/>
<path d="M74.65 56.8036C74.65 56.8036 75.71 58.4611 75.56 59.0701C75.41 59.6792 74.65 58.7606 74.65 58.7606C74.65 58.7606 74.88 60.7576 74.35 61.1769C73.82 61.5963 73.59 60.3482 73.59 60.3482C73.3784 60.4926 73.1192 60.5504 72.8661 60.5095C72.613 60.4686 72.3853 60.3322 72.23 60.1285C71.96 59.5959 71.8319 59.0029 71.8582 58.4065C71.8845 57.8101 72.0642 57.2306 72.38 56.7237C72.99 55.7452 74.65 56.8036 74.65 56.8036Z" fill="#FF9554"/>
<path d="M78.25 28.5864C78.25 28.5864 75.43 28.4866 74.12 32.4106C72.81 36.3346 72.31 42.4752 72.12 44.2825C71.93 46.0897 71.84 56.1843 71.94 56.6836C72.0895 56.9391 72.2992 57.1544 72.5509 57.3106C72.8027 57.4668 73.0888 57.5592 73.3845 57.5799C73.6802 57.6006 73.9764 57.5488 74.2475 57.4292C74.5186 57.3095 74.7563 57.1255 74.94 56.8933C75.75 55.076 75.72 47.208 76.63 44.1826C77.54 41.1572 79.75 33.5189 79.86 31.4121C79.9084 30.8339 79.7806 30.2546 79.4933 29.7503C79.2059 29.246 78.7725 28.8403 78.25 28.5864Z" fill="#113569"/>
<path d="M82.73 97.5513C92.8424 97.5513 101.04 92.3523 101.04 85.939C101.04 79.5257 92.8424 74.3267 82.73 74.3267C72.6177 74.3267 64.42 79.5257 64.42 85.939C64.42 92.3523 72.6177 97.5513 82.73 97.5513Z" fill="#FAFAFA"/>
<path d="M77.3699 83.3031C77.0007 83.4812 76.6953 83.7683 76.495 84.1255C76.2947 84.4827 76.2091 84.8927 76.2499 85.3001C76.2601 85.6719 76.3311 86.0395 76.46 86.3884C76.7814 86.6361 77.1707 86.7802 77.5762 86.8016C77.9817 86.823 78.3841 86.7207 78.7299 86.5082C79.5947 85.9102 80.2849 85.0936 80.7299 84.1418C81.2546 83.4191 81.7069 82.6466 82.0799 81.8354C82.1899 81.2762 81.55 80.8369 80.96 80.9267C79.8225 81.5453 78.7446 82.2673 77.7399 83.0835C77.6327 83.1627 77.519 83.2328 77.4 83.2931L77.3699 83.3031Z" fill="#232839"/>
<path d="M76.24 50.7627C76.24 50.7627 76 58.7505 76.3 63.5931C76.57 67.9066 76.19 80.4075 76.1 83.1833C76.0771 83.5669 76.1721 83.9485 76.3722 84.2768C76.5724 84.6051 76.8682 84.8646 77.2201 85.0205C77.5141 85.1278 77.8292 85.1648 78.1401 85.1284C78.451 85.0919 78.7489 84.9832 79.0101 84.8108C79.2343 84.6737 79.4269 84.4907 79.5752 84.2738C79.7234 84.057 79.8239 83.8112 79.87 83.5527C80.41 80.9666 82.2101 72.1101 82.4701 67.637C82.7701 62.355 83.0401 55.7451 83.3401 53.6583C83.6401 51.5715 76.24 50.7627 76.24 50.7627Z" fill="#113569"/>
<path d="M87.4401 86.1388C87.0451 86.2328 86.6881 86.4445 86.4166 86.746C86.1451 87.0474 85.9719 87.4242 85.92 87.8262C85.8541 88.1927 85.8541 88.568 85.92 88.9345C86.1735 89.2544 86.5222 89.4857 86.9157 89.5952C87.3093 89.7047 87.7274 89.6866 88.11 89.5436C89.0946 89.1491 89.9547 88.4973 90.6 87.6565C91.2725 87.0538 91.8823 86.3847 92.42 85.6595C92.64 85.1303 92.1101 84.5312 91.5101 84.5312C90.2679 84.8936 89.0626 85.3716 87.91 85.9591C87.7883 86.0156 87.661 86.0591 87.5301 86.0889L87.4401 86.1388Z" fill="#232839"/>
<path d="M89.7399 52.3303C89.7399 52.3303 90.1399 76.813 89.2499 85.6795C89.2465 85.9719 89.1788 86.26 89.0516 86.5234C88.9244 86.7868 88.7407 87.0191 88.5137 87.2039C88.2867 87.3886 88.0218 87.5214 87.7378 87.5927C87.4538 87.664 87.1575 87.6721 86.8699 87.6166C86.7199 87.5666 85.7199 87.8562 85.5499 87.7863C84.7499 87.4867 83.8999 63.8228 83.1899 61.077C82.4799 58.3312 80.3699 56.3542 80.5699 52.3303C80.7699 48.3065 86.8199 50.3134 89.7399 52.3303Z" fill="#113C7A"/>
<path d="M90.22 54.2673C89.87 56.0446 84.72 56.5039 81.76 56.0346C78.8 55.5653 75.32 54.8864 75.42 51.4616C75.42 51.4616 75.7 36.105 75.7 33.4191C75.7473 31.7148 76.3395 30.0704 77.39 28.7262C77.39 28.7262 79.05 26.8391 84.26 27.8975C84.26 27.8975 88.5 28.8261 90.46 31.9613C90.46 31.9613 92.09 34.9567 91.64 42.0959C91.404 46.1771 90.9299 50.2412 90.22 54.2673Z" fill="#113C7A"/>
<path d="M80.1901 24.1034C80.4283 25.3637 80.4283 26.6573 80.1901 27.9176C80.1201 28.5167 82.7401 30.5336 85.0601 30.0144C86.4101 29.7148 86.3301 29.0159 86.3301 29.0159C85.6729 27.9064 85.3274 26.6405 85.3301 25.3515C85.5101 23.5942 81.7601 23.724 80.1901 24.1034Z" fill="#FF7C40"/>
<path d="M87.54 29.1956L85.9301 28.2969C85.9301 28.2969 81.8001 27.9075 80.3201 26.949L79.54 28.0373C79.9306 28.6776 80.4679 29.2161 81.1077 29.6084C81.7475 30.0007 82.4715 30.2357 83.2201 30.2939C84.5623 30.5343 85.9459 30.2559 87.0901 29.5151L87.54 29.1956Z" fill="#E1E8F2"/>
<path d="M87.76 19.69C87.7574 21.0282 87.2231 22.3107 86.2744 23.2561C85.3258 24.2014 84.0403 24.7323 82.7 24.7323C81.3597 24.7323 80.0742 24.2014 79.1255 23.2561C78.1769 22.3107 77.6427 21.0282 77.64 19.69C77.64 18.35 78.1731 17.065 79.1221 16.1175C80.071 15.17 81.358 14.6377 82.7 14.6377C84.042 14.6377 85.329 15.17 86.278 16.1175C87.2269 17.065 87.76 18.35 87.76 19.69Z" fill="#FF8654"/>
<path d="M87.7601 20.0194C87.7601 20.0194 87.8201 25.0817 86.7101 26.1002C85.6001 27.1186 83.9201 25.1017 81.2101 24.5126C78.5001 23.9235 83.4001 18.5217 83.4001 18.5217L87.7601 20.0194Z" fill="#FF8654"/>
<path d="M78.44 15.5463C78.44 15.5463 83.84 12.4111 86.87 15.0071C89.9 17.6032 86.44 18.6716 85.87 19.4304C85.3 20.1892 85.87 20.7983 85.58 21.3375C85.29 21.8767 85.22 21.9865 85.22 21.9865L85.4 22.6355L85.08 22.9151C85.08 22.9151 84.64 21.697 84.25 21.7269C83.86 21.7569 83.53 22.5556 83.67 23.0249C83.81 23.4942 84.21 24.0234 84.14 24.323C84.07 24.6225 83.63 25.5411 83.24 25.581C82.2736 25.5027 81.3254 25.2736 80.43 24.9021C79.0341 24.0349 77.9194 22.7831 77.22 21.2976C77.0126 20.7662 76.9309 20.1942 76.9812 19.6262C77.0315 19.0581 77.2125 18.5093 77.51 18.0226C77.3747 17.565 77.3922 17.0758 77.56 16.629C77.7278 16.1823 78.0367 15.8022 78.44 15.5463Z" fill="#96432A"/>
<path d="M96.71 57.7519L91.71 60.7474L92.38 69.5639L103.29 62.8242L102.88 54.427L96.71 57.7519Z" fill="#94C3FF"/>
<path d="M97.6699 55.3357C97.6699 55.3357 98.8599 56.5838 99.1099 56.9632C99.4099 57.7857 99.431 58.6837 99.1699 59.5193C98.4758 59.9601 97.681 60.2178 96.8599 60.2682C96.3599 60.1384 96.0499 59.8888 96.0499 59.709C96.0499 59.5293 95.9199 58.2712 95.9199 58.2712C95.9199 58.2712 95.0499 57.6422 94.9799 57.2727C94.9549 56.9582 94.9785 56.6416 95.0499 56.3342L97.6699 55.3357Z" fill="#FF9554"/>
<path d="M88.71 29.9543C89.6093 30.4387 90.3992 31.1027 91.0305 31.9048C91.6619 32.707 92.1212 33.6303 92.38 34.6172C93.05 37.7824 94.38 45.93 94.38 45.93L98.05 55.146C97.9609 55.5028 97.789 55.8337 97.5483 56.112C97.3075 56.3903 97.0046 56.6082 96.6639 56.7481C96.3233 56.8881 95.9546 56.9461 95.5874 56.9175C95.2201 56.889 94.8648 56.7746 94.55 56.5838C94.55 56.5838 90.55 48.9254 89.55 46.7687C88.55 44.612 87.55 34.6172 87.38 32.6203C87.2994 32.0932 87.3839 31.5542 87.622 31.0769C87.8601 30.5997 88.2401 30.2076 88.71 29.9543Z" fill="#113C7A"/>
</g>
<defs>
<clipPath id="clip0_37_58">
<rect width="166.98" height="150.021" fill="white" transform="translate(0 13.9788)"/>
</clipPath>
</defs>
</svg>
