<svg width="40" height="40" viewBox="0 0 40 40" fill="none" xmlns="http://www.w3.org/2000/svg">
<path d="M6 5C6 5.55228 5.55228 6 5 6C4.44772 6 4 5.55228 4 5C4 4.44772 4.44772 4 5 4C5.55228 4 6 4.44772 6 5Z" fill="url(#paint0_linear_0_884)"/>
<path d="M8 6C8.55229 6 9 5.55228 9 5C9 4.44772 8.55229 4 8 4C7.44772 4 7 4.44772 7 5C7 5.55228 7.44772 6 8 6Z" fill="url(#paint1_linear_0_884)"/>
<path d="M12 5C12 5.55228 11.5523 6 11 6C10.4477 6 10 5.55228 10 5C10 4.44772 10.4477 4 11 4C11.5523 4 12 4.44772 12 5Z" fill="url(#paint2_linear_0_884)"/>
<path d="M16 4C15.4477 4 15 4.44772 15 5C15 5.55228 15.4477 6 16 6H35C35.5523 6 36 5.55228 36 5C36 4.44772 35.5523 4 35 4H16Z" fill="url(#paint3_linear_0_884)"/>
<path fill-rule="evenodd" clip-rule="evenodd" d="M6 0C2.68629 0 0 2.68629 0 6V34C0 37.3137 2.68629 40 6 40H34C37.3137 40 40 37.3137 40 34V6C40 2.68629 37.3137 0 34 0H6ZM33 38H34C36.2091 38 38 36.2091 38 34V10H33V29H36C36.5523 29 37 29.4477 37 30V34C37 34.5523 36.5523 35 36 35H33V38ZM31 10H25V25H29C29.5523 25 30 25.4477 30 26V29H31V10ZM23 10H17V21H20C20.5523 21 21 21.4477 21 22V25H23V10ZM15 10H9V13H12C12.5523 13 13 13.4477 13 14V17H15V10ZM7 10H2V34C2 36.2091 3.79086 38 6 38H7V23H6C5.44771 23 5 22.5523 5 22V19H4C3.44772 19 3 18.5523 3 18V14C3 13.4477 3.44772 13 4 13H7V10ZM9 38H15V27H12C11.4477 27 11 26.5523 11 26V23H9V38ZM17 38H23V31H17V38ZM25 38V31H28V34C28 34.5523 28.4477 35 29 35H31V38H25ZM38 8V6C38 3.79086 36.2091 2 34 2H6C3.79086 2 2 3.79086 2 6V8H38ZM35 33V31H30V33H35ZM19 23V25H13V23H19ZM28 27V29H17V27H28ZM15 21V19H7V21H15ZM11 15V17H5V15H11Z" fill="url(#paint4_linear_0_884)"/>
<defs>
<linearGradient id="paint0_linear_0_884" x1="40.3202" y1="40.3815" x2="10.0273" y2="5.256" gradientUnits="userSpaceOnUse">
<stop stop-color="#31393C"/>
<stop offset="1" stop-color="#3D96F5"/>
</linearGradient>
<linearGradient id="paint1_linear_0_884" x1="40.3202" y1="40.3815" x2="10.0273" y2="5.256" gradientUnits="userSpaceOnUse">
<stop stop-color="#31393C"/>
<stop offset="1" stop-color="#3D96F5"/>
</linearGradient>
<linearGradient id="paint2_linear_0_884" x1="40.3202" y1="40.3815" x2="10.0273" y2="5.256" gradientUnits="userSpaceOnUse">
<stop stop-color="#31393C"/>
<stop offset="1" stop-color="#3D96F5"/>
</linearGradient>
<linearGradient id="paint3_linear_0_884" x1="40.3202" y1="40.3815" x2="10.0273" y2="5.256" gradientUnits="userSpaceOnUse">
<stop stop-color="#31393C"/>
<stop offset="1" stop-color="#3D96F5"/>
</linearGradient>
<linearGradient id="paint4_linear_0_884" x1="40.3202" y1="40.3815" x2="10.0273" y2="5.256" gradientUnits="userSpaceOnUse">
<stop stop-color="#31393C"/>
<stop offset="1" stop-color="#3D96F5"/>
</linearGradient>
</defs>
</svg>
