<svg width="65" height="62" viewBox="0 0 65 62" fill="none" xmlns="http://www.w3.org/2000/svg">
<path d="M61.3883 29.8977H47.8242C46.9951 29.8976 46.1997 30.2256 45.6117 30.8099C45.0236 31.3942 44.6905 32.1875 44.6852 33.0165V48.0863C44.3713 48.1891 44.086 48.3644 43.8525 48.5979C43.6189 48.8315 43.4437 49.1167 43.3408 49.4306H31.3697C30.9156 49.4288 30.4807 49.2477 30.1597 48.9266C29.8386 48.6056 29.6574 48.1706 29.6557 47.7166V44.255H39.0659C39.8979 44.2532 40.6953 43.9219 41.2835 43.3336C41.8718 42.7453 42.2031 41.948 42.2049 41.116V15.2916C42.196 14.4608 41.8588 13.6673 41.267 13.0842C40.6751 12.5012 39.8766 12.1759 39.0457 12.1795H34.2801C34.1788 11.8649 34.004 11.5789 33.7702 11.3451C33.5365 11.1114 33.2505 10.9366 32.9358 10.8352V10.237C32.934 9.48765 32.6351 8.7696 32.1046 8.24037C31.5741 7.71113 30.8554 7.41392 30.106 7.41392H19.8421V3.13899C19.8404 2.30702 19.5091 1.50964 18.9208 0.921349C18.3325 0.33306 17.5351 0.00177581 16.7032 0H3.13898C2.30702 0.00177581 1.50964 0.33306 0.921349 0.921349C0.333059 1.50964 0.00177581 2.30702 0 3.13899V28.9835C0.00177581 29.8155 0.333059 30.6129 0.921349 31.2012C1.50964 31.7894 2.30702 32.1207 3.13898 32.1225H9.24891V47.5822C8.94049 47.6881 8.66121 47.8649 8.43357 48.0983C8.20592 48.3318 8.03625 48.6155 7.9382 48.9265H2.81635C2.07572 48.9282 1.36542 49.2209 0.838588 49.7414C0.311752 50.262 0.0105785 50.9687 0 51.7092V56.7504C0.00177503 57.4968 0.299067 58.2121 0.82685 58.7399C1.35463 59.2677 2.06995 59.565 2.81635 59.5668H17.0325C17.7783 59.565 18.4929 59.2675 19.0196 58.7395C19.5464 58.2115 19.8421 57.4962 19.8421 56.7504V51.7092C19.8421 50.9635 19.5464 50.2481 19.0196 49.7201C18.4929 49.1922 17.7783 48.8947 17.0325 48.8929H11.9107C11.8098 48.578 11.6352 48.2917 11.4014 48.0579C11.1675 47.8241 10.8813 47.6494 10.5663 47.5486V32.0889H16.6763C17.5076 32.0961 18.3079 31.7731 18.9014 31.1909C19.495 30.6087 19.8333 29.8149 19.8421 28.9835V8.81873H30.106C30.4897 8.81841 30.8587 8.96659 31.1356 9.23222C31.4125 9.49784 31.5759 9.86032 31.5915 10.2437V10.8352C31.2805 10.9333 30.9968 11.1029 30.7633 11.3306C30.5299 11.5582 30.3531 11.8375 30.2472 12.1459H25.4816C24.6496 12.1477 23.8522 12.479 23.2639 13.0673C22.6756 13.6556 22.3444 14.4529 22.3426 15.2849V41.116C22.3444 41.948 22.6756 42.7453 23.2639 43.3336C23.8522 43.9219 24.6496 44.2532 25.4816 44.255H28.3114V47.6897C28.3114 48.5008 28.6336 49.2787 29.2071 49.8523C29.7807 50.4258 30.5586 50.748 31.3697 50.748H43.3677C43.4701 51.0622 43.6452 51.3477 43.8788 51.5813C44.1124 51.8149 44.3979 51.99 44.712 52.0924V58.861C44.7138 59.693 45.0451 60.4904 45.6334 61.0786C46.2217 61.6669 47.0191 61.9982 47.851 62H61.3883C62.2203 61.9982 63.0177 61.6669 63.606 61.0786C64.1943 60.4904 64.5255 59.693 64.5273 58.861V33.0165C64.5202 32.188 64.1866 31.3958 63.5989 30.8118C63.0112 30.2279 62.2168 29.8994 61.3883 29.8977ZM10.5932 49.2155C10.6711 49.3621 10.6988 49.5302 10.6721 49.694C10.6453 49.8578 10.5657 50.0084 10.4453 50.1227C10.3249 50.237 10.1704 50.3086 10.0054 50.3268C9.84037 50.3449 9.67398 50.3085 9.53164 50.2231C9.3893 50.1377 9.27886 50.008 9.21721 49.8539C9.15556 49.6997 9.14609 49.5297 9.19026 49.3697C9.23443 49.2097 9.32979 49.0685 9.46178 48.9679C9.59376 48.8672 9.75508 48.8125 9.92107 48.8122C10.0593 48.8112 10.1952 48.8484 10.3138 48.9195C10.4324 48.9906 10.529 49.0931 10.5932 49.2155ZM18.4978 51.7092V56.7504C18.4978 57.1397 18.3437 57.5131 18.0691 57.7889C17.7945 58.0648 17.4218 58.2207 17.0325 58.2225H2.81635C2.62304 58.2225 2.43162 58.1844 2.25303 58.1104C2.07443 58.0364 1.91216 57.928 1.77547 57.7913C1.49941 57.5153 1.34432 57.1408 1.34432 56.7504V51.7092C1.34609 51.3194 1.50174 50.946 1.77742 50.6703C2.0531 50.3946 2.42649 50.239 2.81635 50.2372H7.9382C8.07888 50.6524 8.34614 51.0131 8.70241 51.2686C9.05868 51.524 9.48605 51.6614 9.92444 51.6614C10.3628 51.6614 10.7902 51.524 11.1465 51.2686C11.5027 51.0131 11.77 50.6524 11.9107 50.2372H17.0325C17.4218 50.239 17.7945 50.3949 18.0691 50.6707C18.3437 50.9466 18.4978 51.32 18.4978 51.7092ZM3.13898 30.758C2.66701 30.7563 2.21457 30.5694 1.87895 30.2376C1.54333 29.9057 1.35136 29.4554 1.34432 28.9835V28.0559H9.24891V30.7446L3.13898 30.758ZM18.4978 28.9835C18.4978 29.4595 18.3087 29.916 17.9722 30.2525C17.6356 30.5891 17.1791 30.7782 16.7032 30.7782H10.5932V28.0895H18.4978V28.9835ZM18.4978 26.7318H10.5932V22.598H14.9623C15.4068 22.5962 15.8325 22.4184 16.1461 22.1035C16.4598 21.7885 16.636 21.3621 16.6359 20.9176V15.8697C16.6342 15.4263 16.4573 15.0017 16.1438 14.6882C15.8303 14.3747 15.4056 14.1978 14.9623 14.196H4.87988C4.43654 14.1978 4.01186 14.3747 3.69836 14.6882C3.38487 15.0017 3.20797 15.4263 3.2062 15.8697V20.9176C3.2062 21.3621 3.38232 21.7885 3.696 22.1035C4.00968 22.4184 4.43537 22.5962 4.87988 22.598H9.24891V26.7116H1.34432V3.13899C1.34609 2.66356 1.53574 2.2081 1.87192 1.87192C2.2081 1.53574 2.66355 1.34609 3.13898 1.34432H16.7032C17.1791 1.34432 17.6356 1.5334 17.9722 1.86996C18.3087 2.20653 18.4978 2.66301 18.4978 3.13899V7.42064H16.6359V5.55876C16.6342 5.11604 16.4571 4.69206 16.1434 4.37963C15.8297 4.06721 15.405 3.8918 14.9623 3.8918H4.87988C4.43715 3.8918 4.01246 4.06721 3.69878 4.37963C3.3851 4.69206 3.20798 5.11604 3.2062 5.55876V10.6201C3.20797 11.0635 3.38487 11.4881 3.69836 11.8016C4.01186 12.1151 4.43654 12.292 4.87988 12.2938H14.9623C15.4056 12.292 15.8303 12.1151 16.1438 11.8016C16.4573 11.4881 16.6342 11.0635 16.6359 10.6201V8.76496H18.4978V26.7318ZM4.87988 21.2537C4.83605 21.2537 4.79267 21.245 4.75227 21.228C4.71186 21.211 4.67525 21.1862 4.64458 21.1549C4.6139 21.1236 4.58979 21.0864 4.57363 21.0457C4.55748 21.005 4.54963 20.9614 4.55052 20.9176V15.8697C4.55052 15.7823 4.58522 15.6986 4.64699 15.6368C4.70875 15.575 4.79253 15.5403 4.87988 15.5403H14.9623C15.0496 15.5403 15.1334 15.575 15.1952 15.6368C15.2569 15.6986 15.2916 15.7823 15.2916 15.8697V20.9176C15.2916 21.005 15.2569 21.0887 15.1952 21.1505C15.1334 21.2123 15.0496 21.247 14.9623 21.247L4.87988 21.2537ZM15.2916 10.6201C15.2916 10.7075 15.2569 10.7912 15.1952 10.853C15.1334 10.9148 15.0496 10.9495 14.9623 10.9495H4.87988C4.79253 10.9495 4.70875 10.9148 4.64699 10.853C4.58522 10.7912 4.55052 10.7075 4.55052 10.6201V5.55876C4.55228 5.47258 4.58775 5.39052 4.64933 5.3302C4.71091 5.26988 4.79368 5.2361 4.87988 5.23612H14.9623C15.0485 5.2361 15.1312 5.26988 15.1928 5.3302C15.2544 5.39052 15.2899 5.47258 15.2916 5.55876V10.6201ZM40.8337 41.116C40.8319 41.5914 40.6423 42.0469 40.3061 42.3831C39.9699 42.7192 39.5145 42.9089 39.039 42.9107H29.6288V40.222H40.8404L40.8337 41.116ZM32.6132 13.5239C32.4809 13.593 32.331 13.6212 32.1827 13.6049C32.0343 13.5887 31.8941 13.5287 31.7799 13.4326C31.6657 13.3365 31.5827 13.2086 31.5413 13.0652C31.4999 12.9218 31.5021 12.7693 31.5476 12.6271C31.5931 12.485 31.6798 12.3596 31.7968 12.2668C31.9137 12.174 32.0556 12.1181 32.2043 12.1062C32.3531 12.0942 32.5021 12.1268 32.6323 12.1997C32.7626 12.2726 32.8682 12.3825 32.9358 12.5156C33.0256 12.6923 33.042 12.8973 32.9816 13.086C32.9212 13.2748 32.7888 13.4321 32.6132 13.5239ZM25.4816 13.5239H30.2808C30.4114 13.9524 30.6762 14.3277 31.0362 14.5944C31.3962 14.8611 31.8324 15.0051 32.2805 15.0051C32.7285 15.0051 33.1647 14.8611 33.5247 14.5944C33.8847 14.3277 34.1496 13.9524 34.2801 13.5239H39.0794C39.5548 13.5256 40.0102 13.7153 40.3464 14.0515C40.6826 14.3876 40.8722 14.8431 40.874 15.3185V38.8643H29.6557V35.3153H30.4488C30.7822 35.3153 31.1019 35.1828 31.3376 34.9471C31.5733 34.7114 31.7058 34.3917 31.7058 34.0583V32.0418C31.7058 31.7085 31.5733 31.3888 31.3376 31.1531C31.1019 30.9173 30.7822 30.7849 30.4488 30.7849H27.8072C27.4739 30.7849 27.1542 30.9173 26.9184 31.1531C26.6827 31.3888 26.5503 31.7085 26.5503 32.0418V34.0583C26.5503 34.3917 26.6827 34.7114 26.9184 34.9471C27.1542 35.1828 27.4739 35.3153 27.8072 35.3153H28.3114V38.8643H23.6869V15.2916C23.6957 14.8209 23.8884 14.3723 24.2239 14.0419C24.5593 13.7115 25.0107 13.5255 25.4816 13.5239ZM27.8946 33.9709V32.1023H30.3614V33.9709H27.8946ZM25.4816 42.9107C25.0061 42.9089 24.5507 42.7192 24.2145 42.3831C23.8783 42.0469 23.6887 41.5914 23.6869 41.116V40.2086H28.3114V42.8972L25.4816 42.9107ZM46.0295 33.0165C46.0295 32.5405 46.2186 32.084 46.5551 31.7475C46.8917 31.4109 47.3482 31.2218 47.8242 31.2218H61.3883C61.8638 31.2236 62.3192 31.4132 62.6554 31.7494C62.9916 32.0856 63.1812 32.541 63.183 33.0165V56.6093H46.0295V52.0588C46.4447 51.9181 46.8054 51.6508 47.0608 51.2946C47.3163 50.9383 47.4537 50.5109 47.4537 50.0725C47.4537 49.6341 47.3163 49.2068 47.0608 48.8505C46.8054 48.4942 46.4447 48.227 46.0295 48.0863V33.0165ZM44.6852 50.4052C44.629 50.3031 44.5972 50.1895 44.592 50.0731C44.5868 49.9567 44.6085 49.8406 44.6554 49.734C44.7022 49.6273 44.773 49.5328 44.8622 49.4578C44.9514 49.3829 45.0567 49.3295 45.1698 49.3017C45.283 49.2739 45.401 49.2726 45.5148 49.2978C45.6286 49.3229 45.735 49.3739 45.8259 49.4468C45.9168 49.5197 45.9898 49.6125 46.039 49.7181C46.0883 49.8237 46.1126 49.9392 46.1101 50.0557C46.1109 50.2246 46.0554 50.3888 45.9524 50.5226C45.8494 50.6564 45.7048 50.752 45.5413 50.7944C45.3779 50.8368 45.205 50.8236 45.05 50.7567C44.8949 50.6899 44.7666 50.5733 44.6852 50.4254V50.4052ZM63.183 58.861C63.1812 59.3364 62.9916 59.7919 62.6554 60.1281C62.3192 60.4643 61.8638 60.6539 61.3883 60.6557H47.8242C47.3482 60.6557 46.8917 60.4666 46.5551 60.13C46.2186 59.7935 46.0295 59.337 46.0295 58.861V57.9536H63.183V58.861Z" fill="url(#paint0_linear_1_607)"/>
<path d="M49.5649 54.2701H59.6473C60.09 54.2701 60.5147 54.0947 60.8284 53.7823C61.1421 53.4699 61.3192 53.0459 61.321 52.6032V47.5418C61.3192 47.0985 61.1423 46.6738 60.8288 46.3603C60.5153 46.0468 60.0907 45.8699 59.6473 45.8681H49.5649C49.1216 45.8699 48.6969 46.0468 48.3834 46.3603C48.0699 46.6738 47.893 47.0985 47.8912 47.5418V52.6032C47.893 53.0459 48.0701 53.4699 48.3838 53.7823C48.6975 54.0947 49.1222 54.2701 49.5649 54.2701ZM49.2356 47.5485C49.2356 47.4612 49.2703 47.3774 49.332 47.3157C49.3938 47.2539 49.4776 47.2192 49.5649 47.2192H59.6473C59.7347 47.2192 59.8184 47.2539 59.8802 47.3157C59.942 47.3774 59.9767 47.4612 59.9767 47.5485V52.6099C59.9767 52.6528 59.9681 52.6954 59.9515 52.7349C59.9349 52.7745 59.9105 52.8104 59.8798 52.8405C59.8491 52.8705 59.8128 52.8941 59.7728 52.9099C59.7329 52.9258 59.6902 52.9334 59.6473 52.9325H49.5649C49.522 52.9334 49.4793 52.9258 49.4394 52.9099C49.3995 52.8941 49.3631 52.8705 49.3324 52.8405C49.3018 52.8104 49.2774 52.7745 49.2607 52.7349C49.2441 52.6954 49.2356 52.6528 49.2356 52.6099V47.5485ZM49.5649 43.771H52.7711C52.9932 43.771 53.2131 43.7269 53.4179 43.6411C53.6227 43.5553 53.8084 43.4296 53.9642 43.2713C54.12 43.1131 54.2427 42.9254 54.3252 42.7192C54.4077 42.513 54.4484 42.2925 54.4448 42.0704V37.0091C54.443 36.5657 54.2661 36.1411 53.9526 35.8276C53.6391 35.5141 53.2145 35.3372 52.7711 35.3354H49.5649C49.1216 35.3372 48.6969 35.5141 48.3834 35.8276C48.0699 36.1411 47.893 36.5657 47.8912 37.0091V42.0704C47.8877 42.2925 47.9283 42.513 48.0108 42.7192C48.0934 42.9254 48.2161 43.1131 48.3718 43.2713C48.5276 43.4296 48.7133 43.5553 48.9182 43.6411C49.123 43.7269 49.3428 43.771 49.5649 43.771ZM49.2356 37.0494C49.2356 36.9621 49.2703 36.8783 49.332 36.8165C49.3938 36.7547 49.4776 36.7201 49.5649 36.7201H52.7711C52.8144 36.7201 52.8572 36.7286 52.8972 36.7451C52.9371 36.7617 52.9734 36.7859 53.004 36.8165C53.0346 36.8471 53.0589 36.8834 53.0754 36.9234C53.092 36.9633 53.1005 37.0062 53.1005 37.0494V42.1108C53.1005 42.1537 53.0919 42.1962 53.0753 42.2358C53.0587 42.2754 53.0343 42.3113 53.0036 42.3413C52.9729 42.3714 52.9366 42.395 52.8967 42.4108C52.8567 42.4266 52.8141 42.4343 52.7711 42.4334H49.5649C49.522 42.4343 49.4793 42.4266 49.4394 42.4108C49.3995 42.395 49.3631 42.3714 49.3324 42.3413C49.3018 42.3113 49.2774 42.2754 49.2607 42.2358C49.2441 42.1962 49.2356 42.1537 49.2356 42.1108V37.0494ZM27.2223 18.2289H37.3047C37.483 18.2289 37.654 18.1581 37.78 18.0321C37.9061 17.906 37.9769 17.7351 37.9769 17.5568C37.9769 17.3785 37.9061 17.2075 37.78 17.0815C37.654 16.9554 37.483 16.8846 37.3047 16.8846H27.2223C27.0441 16.8846 26.8731 16.9554 26.7471 17.0815C26.621 17.2075 26.5502 17.3785 26.5502 17.5568C26.5502 17.7351 26.621 17.906 26.7471 18.0321C26.8731 18.1581 27.0441 18.2289 27.2223 18.2289ZM27.2223 21.5091H37.3047C37.483 21.5091 37.654 21.4383 37.78 21.3122C37.9061 21.1862 37.9769 21.0152 37.9769 20.8369C37.9769 20.6587 37.9061 20.4877 37.78 20.3616C37.654 20.2356 37.483 20.1648 37.3047 20.1648H27.2223C27.0441 20.1648 26.8731 20.2356 26.7471 20.3616C26.621 20.4877 26.5502 20.6587 26.5502 20.8369C26.5502 21.0152 26.621 21.1862 26.7471 21.3122C26.8731 21.4383 27.0441 21.5091 27.2223 21.5091ZM27.2223 24.7825H37.3047C37.483 24.7825 37.654 24.7117 37.78 24.5856C37.9061 24.4596 37.9769 24.2886 37.9769 24.1103C37.9769 23.9321 37.9061 23.7611 37.78 23.635C37.654 23.509 37.483 23.4382 37.3047 23.4382H27.2223C27.0441 23.4382 26.8731 23.509 26.7471 23.635C26.621 23.7611 26.5502 23.9321 26.5502 24.1103C26.5502 24.2886 26.621 24.4596 26.7471 24.5856C26.8731 24.7117 27.0441 24.7825 27.2223 24.7825ZM27.2223 28.0559H30.7512C30.9294 28.0559 31.1004 27.9851 31.2265 27.859C31.3525 27.733 31.4233 27.562 31.4233 27.3838C31.4233 27.2055 31.3525 27.0345 31.2265 26.9085C31.1004 26.7824 30.9294 26.7116 30.7512 26.7116H27.2223C27.0441 26.7116 26.8731 26.7824 26.7471 26.9085C26.621 27.0345 26.5502 27.2055 26.5502 27.3838C26.5502 27.562 26.621 27.733 26.7471 27.859C26.8731 27.9851 27.0441 28.0559 27.2223 28.0559ZM36.72 30.758H34.0784C33.745 30.758 33.4253 30.8904 33.1896 31.1261C32.9539 31.3619 32.8214 31.6816 32.8214 32.0149V34.0314C32.8214 34.3648 32.9539 34.6845 33.1896 34.9202C33.4253 35.1559 33.745 35.2884 34.0784 35.2884H36.72C37.0533 35.2884 37.373 35.1559 37.6087 34.9202C37.8445 34.6845 37.9769 34.3648 37.9769 34.0314V32.0149C37.9769 31.6816 37.8445 31.3619 37.6087 31.1261C37.373 30.8904 37.0533 30.758 36.72 30.758ZM36.6326 33.9709H34.1657V32.1023H36.6326V33.9709ZM3.91185 52.5629C3.91185 52.7411 3.98267 52.9121 4.10872 53.0381C4.23478 53.1642 4.40574 53.235 4.58401 53.235H15.2646C15.4429 53.235 15.6139 53.1642 15.7399 53.0381C15.866 52.9121 15.9368 52.7411 15.9368 52.5629C15.9368 52.3846 15.866 52.2136 15.7399 52.0876C15.6139 51.9615 15.4429 51.8907 15.2646 51.8907H4.58401C4.40574 51.8907 4.23478 51.9615 4.10872 52.0876C3.98267 52.2136 3.91185 52.3846 3.91185 52.5629ZM15.2646 55.1977H4.58401C4.40574 55.1977 4.23478 55.2685 4.10872 55.3946C3.98267 55.5206 3.91185 55.6916 3.91185 55.8699C3.91185 56.0481 3.98267 56.2191 4.10872 56.3452C4.23478 56.4712 4.40574 56.542 4.58401 56.542H15.2646C15.4429 56.542 15.6139 56.4712 15.7399 56.3452C15.866 56.2191 15.9368 56.0481 15.9368 55.8699C15.9368 55.6916 15.866 55.5206 15.7399 55.3946C15.6139 55.2685 15.4429 55.1977 15.2646 55.1977Z" fill="url(#paint1_linear_1_607)"/>
<defs>
<linearGradient id="paint0_linear_1_607" x1="65.0438" y1="62.1002" x2="18.836" y2="5.89586" gradientUnits="userSpaceOnUse">
<stop stop-color="#31393C"/>
<stop offset="1" stop-color="#3D96F5"/>
</linearGradient>
<linearGradient id="paint1_linear_1_607" x1="65.0438" y1="62.1002" x2="18.836" y2="5.89586" gradientUnits="userSpaceOnUse">
<stop stop-color="#31393C"/>
<stop offset="1" stop-color="#3D96F5"/>
</linearGradient>
</defs>
</svg>
