<svg width="72" height="73" viewBox="0 0 72 73" fill="none" xmlns="http://www.w3.org/2000/svg">
<path d="M71 4.45996C71 2.54908 69.5283 1 67.7128 1H4.28715C2.47171 1 1 2.54908 1 4.45996V9H71V4.45996Z" stroke="#4D5F66" stroke-width="2" stroke-miterlimit="10" stroke-linecap="round" stroke-linejoin="round"/>
<path d="M51.8564 62H67.7128C69.5283 62 71 60.4873 71 58.6214V9H1V58.6214C1 60.4873 2.47171 62 4.28715 62H20.1436" stroke="#4D5F66" stroke-width="2" stroke-miterlimit="10" stroke-linecap="round" stroke-linejoin="round"/>
<path d="M63.6205 24.178C63.6205 26.8853 62.5229 29.338 60.7478 31.1117C58.9727 32.8868 56.5215 33.9844 53.8142 33.9844C48.3981 33.9844 44.0078 29.5941 44.0078 24.178C44.0078 21.4707 45.1054 19.0195 46.8805 17.2444C48.6542 15.4707 51.1052 14.3732 53.8142 14.3732C56.5215 14.3732 58.9727 15.4707 60.7478 17.2444C62.5229 19.0195 63.6205 21.4707 63.6205 24.178Z" stroke="#4D5F66" stroke-width="2" stroke-miterlimit="10" stroke-linecap="round" stroke-linejoin="round"/>
<path d="M63.6188 24.1786C63.6188 26.886 62.5213 29.3386 60.7462 31.1123L53.8125 24.1786V14.3738C56.5198 14.3738 58.971 15.4713 60.7462 17.245C62.5213 19.0201 63.6188 21.4713 63.6188 24.1786Z" stroke="#4D5F66" stroke-width="2" stroke-miterlimit="10" stroke-linecap="round" stroke-linejoin="round"/>
<path d="M44.0078 42.335H63.6205" stroke="#4D5F66" stroke-width="2" stroke-miterlimit="10" stroke-linecap="round" stroke-linejoin="round"/>
<path d="M17.3709 42.335H10.1172V28.5969H17.3709V42.335ZM31.2887 42.335H24.0351V19.2478H31.2887V42.335Z" stroke="#4D5F66" stroke-width="2" stroke-miterlimit="10" stroke-linecap="round" stroke-linejoin="round"/>
<path d="M7.46094 42.335H34.6804" stroke="#4D5F66" stroke-width="2" stroke-miterlimit="10" stroke-linecap="round" stroke-linejoin="round"/>
<path d="M44.9033 59.8899L43.3366 59.6907C43.2088 59.2972 43.0503 58.9143 42.8624 58.5457L43.8299 57.2999C44.019 57.0607 44.1131 56.7601 44.0944 56.4558C44.0756 56.1515 43.9452 55.8649 43.7282 55.6507L42.4157 54.3382C42.2014 54.1199 41.9141 53.9884 41.6088 53.9688C41.3035 53.9493 41.0018 54.0431 40.7614 54.2324L39.5172 55.1999C39.1484 55.0118 38.7652 54.8533 38.3713 54.7257L38.1722 53.1615C38.1359 52.8585 37.9899 52.5792 37.7617 52.3766C37.5335 52.1739 37.239 52.0618 36.9338 52.0615H35.067C34.4362 52.0615 33.9037 52.534 33.8287 53.159L33.6295 54.7257C33.2355 54.8529 32.8523 55.0115 32.4836 55.1999L31.2386 54.2324C30.9992 54.0437 30.6987 53.9497 30.3945 53.9685C30.0903 53.9872 29.8037 54.1174 29.5893 54.334L28.2768 55.6457C28.0582 55.86 27.9266 56.1475 27.907 56.4529C27.8875 56.7584 27.9815 57.0603 28.1709 57.3007L29.1385 58.5457C28.9502 58.9141 28.7917 59.297 28.6643 59.6907L27.1 59.8899C26.4725 59.9649 26 60.4974 26 61.1282V62.9949C26 63.6257 26.4725 64.1582 27.0975 64.2332L28.6643 64.4324C28.7934 64.8299 28.9526 65.2132 29.1385 65.5774L28.1709 66.8232C27.9819 67.0624 27.8877 67.3629 27.9065 67.6672C27.9252 67.9715 28.0556 68.2582 28.2726 68.4724L29.5851 69.7849C29.7997 70.0027 30.0871 70.1338 30.3922 70.1532C30.6974 70.1726 30.999 70.0788 31.2394 69.8899L32.4844 68.9224C32.8486 69.109 33.232 69.2682 33.6295 69.3965L33.8287 70.9599C33.9037 71.589 34.4362 72.0615 35.067 72.0615H36.9338C37.5646 72.0615 38.0972 71.589 38.1722 70.964L38.3713 69.3974C38.7649 69.2696 39.1478 69.1111 39.5164 68.9232L40.7623 69.8907C41.2665 70.2824 41.9782 70.2365 42.4115 69.789L43.7241 68.4765C43.9424 68.2623 44.0739 67.9749 44.0934 67.6697C44.113 67.3644 44.0191 67.0627 43.8299 66.8224L42.8624 65.5774C43.049 65.2132 43.2082 64.8299 43.3366 64.4324L44.9 64.2332C45.203 64.1969 45.4823 64.0509 45.6849 63.8227C45.8876 63.5946 45.9997 63.3 46 62.9949V61.1282C46.0002 60.8234 45.8887 60.5291 45.6866 60.3009C45.4845 60.0728 45.2059 59.9265 44.9033 59.8899ZM36.0004 66.2282C33.7028 66.2282 31.8336 64.359 31.8336 62.0615C31.8336 59.764 33.7028 57.8949 36.0004 57.8949C38.298 57.8949 40.1673 59.764 40.1673 62.0615C40.1673 64.359 38.298 66.2282 36.0004 66.2282Z" fill="#4D5F66"/>
<circle cx="5" cy="5.06152" r="1" fill="#4D5F66"/>
<circle cx="8" cy="5.06152" r="1" fill="#4D5F66"/>
<circle cx="11" cy="5.06152" r="1" fill="#4D5F66"/>
</svg>
