<svg width="100" height="100" viewBox="0 0 100 100" fill="none" xmlns="http://www.w3.org/2000/svg">
<mask id="mask0_1_4479" style="mask-type:alpha" maskUnits="userSpaceOnUse" x="0" y="0" width="100" height="100">
<rect width="100" height="100" fill="#F5F9FF"/>
</mask>
<g mask="url(#mask0_1_4479)">
<path fill-rule="evenodd" clip-rule="evenodd" d="M55.5618 44.9905C56.6785 44.9905 57.6914 45.641 58.152 46.6531L60.8357 52.5498C61.1897 53.3276 61.1587 54.1482 60.8543 54.8424H66.3781C67.4948 54.8424 68.5077 55.4928 68.9683 56.5049L71.6521 62.4016C72.006 63.1794 71.975 64 71.6706 64.6942H77.013C78.1296 64.6942 79.1426 65.3447 79.6032 66.3567L82.2869 72.2535C83.1393 74.1265 81.7632 76.25 79.6967 76.25H64.0721C62.5652 76.2498 61.423 75.1183 61.2496 73.776C61.0763 75.1168 59.9364 76.25 58.427 76.25H42.8024C40.7555 76.2497 39.3789 74.1623 40.1937 72.294L42.7654 66.3982H36.9008L39.566 72.2535C40.4184 74.1265 39.0423 76.25 36.9758 76.25H21.3512C19.3043 76.2497 17.9278 74.1623 18.7425 72.294L21.3142 66.3973C21.7651 65.3634 22.7902 64.6944 23.9229 64.6942H29.3774C29.0785 64.0129 29.0429 63.2092 29.3774 62.4422L31.9491 56.5454C32.4 55.5116 33.4251 54.8426 34.5578 54.8424H40.0122C39.7133 54.1611 39.6777 53.3573 40.0122 52.5903L42.5839 46.6936C43.0349 45.6597 44.06 44.9908 45.1926 44.9905H55.5618ZM23.9229 66.5805C23.5456 66.5808 23.204 66.8036 23.0537 67.1479L20.482 73.0447C20.2104 73.6674 20.6691 74.3633 21.3512 74.3636H36.9758C37.6646 74.3636 38.1237 73.6552 37.8395 73.0308L35.1558 67.135C35.0023 66.7977 34.6643 66.5805 34.2921 66.5805H23.9229ZM45.3741 66.5805C44.9968 66.5808 44.6551 66.8036 44.5048 67.1479L41.9331 73.0447C41.6616 73.6674 42.1203 74.3633 42.8024 74.3636H58.427C59.1158 74.3636 59.5748 73.6552 59.2907 73.0308L56.607 67.135C56.4534 66.7977 56.1155 66.5805 55.7433 66.5805H45.3741ZM66.6438 66.5805C66.2665 66.5808 65.9249 66.8036 65.7746 67.1479L63.2029 73.0447C62.9313 73.6674 63.39 74.3633 64.0721 74.3636H79.6967C80.3855 74.3636 80.8446 73.6552 80.5604 73.0308L77.8767 67.135C77.7232 66.7977 77.3852 66.5805 77.013 66.5805H66.6438ZM61.0172 72.2535C61.1393 72.5217 61.2144 72.7952 61.2496 73.0668C61.2829 72.8091 61.352 72.5494 61.4634 72.294L64.0351 66.3982H58.352L61.0172 72.2535ZM50.2009 62.4016C50.5548 63.1794 50.5238 64 50.2194 64.6942H50.8285C50.5296 64.0129 50.4941 63.2092 50.8285 62.4422L53.4002 56.5463H47.5357L50.2009 62.4016ZM34.5578 56.7287C34.1805 56.729 33.8388 56.9517 33.6885 57.2961L31.1168 63.1928C30.8453 63.8155 31.304 64.5115 31.9861 64.5118H47.6107C48.2995 64.5118 48.7585 63.8034 48.4744 63.179L45.7907 57.2832C45.6371 56.9459 45.2992 56.7287 44.927 56.7287H34.5578ZM56.009 56.7287C55.6316 56.729 55.29 56.9517 55.1397 57.2961L52.568 63.1928C52.2965 63.8155 52.7551 64.5115 53.4373 64.5118H69.0618C69.7507 64.5118 70.2097 63.8034 69.9256 63.179L67.2418 57.2832C67.0883 56.9459 66.7503 56.7287 66.3781 56.7287H56.009ZM45.1926 46.8769C44.8153 46.8771 44.4737 47.0999 44.3234 47.4443L41.7517 53.341C41.4801 53.9637 41.9388 54.6597 42.621 54.66H58.2455C58.9344 54.66 59.3934 53.9515 59.1092 53.3272L56.4255 47.4314C56.272 47.094 55.934 46.8769 55.5618 46.8769H45.1926Z" fill="#8BC8DA"/>
<path d="M15.445 42.8988C15.7119 42.4508 16.2935 42.3026 16.7438 42.5681L26.6455 48.4059C27.0958 48.6714 27.2444 49.2501 26.9779 49.6981C26.7109 50.1463 26.1294 50.2944 25.679 50.0288L15.7774 44.191C15.327 43.9255 15.1782 43.3469 15.445 42.8988Z" fill="#8BC8DA"/>
<path d="M83.2562 42.5681C83.7065 42.3026 84.2881 42.4508 84.555 42.8988C84.8218 43.3469 84.673 43.9255 84.2226 44.191L74.321 50.0288C73.8706 50.2944 73.2891 50.1463 73.0221 49.6981C72.7556 49.2501 72.9042 48.6714 73.3545 48.4059L83.2562 42.5681Z" fill="#8BC8DA"/>
<path d="M25.8596 31.4019C26.2298 31.0337 26.8299 31.0336 27.2 31.4019L35.2678 39.4291C35.638 39.7974 35.6379 40.3944 35.2678 40.7628C34.8976 41.131 34.2975 41.1311 33.9274 40.7628L25.8596 32.7356C25.4894 32.3673 25.4895 31.7702 25.8596 31.4019Z" fill="#8BC8DA"/>
<path d="M72.8 31.4019C73.1701 31.0336 73.7702 31.0337 74.1404 31.4019C74.5105 31.7702 74.5106 32.3673 74.1404 32.7356L66.0726 40.7628C65.7025 41.1311 65.1024 41.131 64.7322 40.7628C64.3621 40.3944 64.362 39.7974 64.7322 39.4291L72.8 31.4019Z" fill="#8BC8DA"/>
<path d="M49.9981 24.375C50.5217 24.375 50.9461 24.7973 50.9461 25.3182V38.0889C50.9461 38.6098 50.5217 39.0321 49.9981 39.0321C49.4746 39.0321 49.0502 38.6098 49.0502 38.0889V25.3182C49.0502 24.7973 49.4746 24.375 49.9981 24.375Z" fill="#8BC8DA"/>
</g>
</svg>
