<svg width="100" height="100" viewBox="0 0 100 100" fill="none" xmlns="http://www.w3.org/2000/svg">
<mask id="mask0_1_4461" style="mask-type:alpha" maskUnits="userSpaceOnUse" x="0" y="0" width="100" height="100">
<rect width="100" height="100" fill="#F5F9FF"/>
</mask>
<g mask="url(#mask0_1_4461)">
<mask id="path-2-inside-1_1_4461" fill="white">
<path d="M26.8132 57.0561H24.7968V55.0398H26.8132V57.0561Z"/>
<path d="M30.8448 57.0561H28.8295V55.0398H30.8448V57.0561Z"/>
<path d="M34.8775 57.0561H32.8611V55.0398H34.8775V57.0561Z"/>
<path fill-rule="evenodd" clip-rule="evenodd" d="M75.1999 51.0082V57.0561H57.055V51.0082H75.1999ZM59.0714 53.0245V55.0398H73.1836V53.0245H59.0714Z"/>
<path fill-rule="evenodd" clip-rule="evenodd" d="M42.9417 38.9112V48.9918H24.7968V38.9112H42.9417ZM26.8132 40.9276V46.9755H40.9254V40.9276H26.8132Z"/>
<path fill-rule="evenodd" clip-rule="evenodd" d="M74.1939 18.75V30.3423L66.1285 36.3913V46.5581L68.7356 43.9521H74.6113L79.2337 48.5744V59.2577C79.8215 59.4649 80.331 59.8493 80.692 60.3574C81.0529 60.8657 81.248 61.4736 81.25 62.097V81.25H18.75V62.097C18.752 61.4736 18.9471 60.8657 19.308 60.3574C19.669 59.8493 20.1785 59.4649 20.7663 59.2577V36.8949H18.75V30.847H48.9918V36.8949H46.9755V42.9439H60.0806V36.3913L52.0163 30.3423V18.75H74.1939ZM20.7663 77.2173V79.2337H79.2337V77.2173H20.7663ZM20.7663 65.1215V75.2021H22.7827V67.1367H30.847V75.2021H32.8633V67.1367H40.9276V75.2021H44.9592V65.1215H20.7663ZM24.7979 69.1531V75.2021H28.8306V69.1531H24.7979ZM34.8785 69.1531V75.2021H38.9112V69.1531H34.8785ZM46.9755 71.1694V75.2021H61.0888V71.1694H46.9755ZM63.1051 65.1215V75.2021H70.1612V65.1215H63.1051ZM72.1776 65.1215V75.2021H79.2337V65.1215H72.1776ZM46.9755 65.1215V69.1531H61.0888V65.1215H46.9755ZM21.7745 61.0888C21.5072 61.0888 21.2507 61.1951 21.0617 61.3841C20.8727 61.5732 20.7663 61.8296 20.7663 62.097V63.1051H79.2337V62.097C79.2337 61.8296 79.1273 61.5732 78.9383 61.3841C78.7493 61.1951 78.4928 61.0888 78.2255 61.0888H21.7745ZM22.7827 53.0245V59.0724H44.9592V53.0245H22.7827ZM46.9755 48.9918V59.0724H53.0245V48.9918H46.9755ZM69.5705 45.9673L66.546 48.9918H55.0409V59.0724H77.2173V49.4093L73.7765 45.9673H69.5705ZM22.7827 36.8949V51.0082H44.9592V36.8949H22.7827ZM46.9755 44.9592V46.9755H60.0806V44.9592H46.9755ZM62.097 36.8949V46.9755H64.1133V36.8949H62.097ZM20.7663 32.8633V34.8785H46.9755V32.8633H20.7663ZM54.0327 20.7663V29.3342L61.4245 34.8785H64.7858L72.1776 29.3342V20.7663H54.0327Z"/>
</mask>
<path d="M26.8132 57.0561H24.7968V55.0398H26.8132V57.0561Z" fill="#F9C620"/>
<path d="M30.8448 57.0561H28.8295V55.0398H30.8448V57.0561Z" fill="#F9C620"/>
<path d="M34.8775 57.0561H32.8611V55.0398H34.8775V57.0561Z" fill="#F9C620"/>
<path fill-rule="evenodd" clip-rule="evenodd" d="M75.1999 51.0082V57.0561H57.055V51.0082H75.1999ZM59.0714 53.0245V55.0398H73.1836V53.0245H59.0714Z" fill="#F9C620"/>
<path fill-rule="evenodd" clip-rule="evenodd" d="M42.9417 38.9112V48.9918H24.7968V38.9112H42.9417ZM26.8132 40.9276V46.9755H40.9254V40.9276H26.8132Z" fill="#F9C620"/>
<path fill-rule="evenodd" clip-rule="evenodd" d="M74.1939 18.75V30.3423L66.1285 36.3913V46.5581L68.7356 43.9521H74.6113L79.2337 48.5744V59.2577C79.8215 59.4649 80.331 59.8493 80.692 60.3574C81.0529 60.8657 81.248 61.4736 81.25 62.097V81.25H18.75V62.097C18.752 61.4736 18.9471 60.8657 19.308 60.3574C19.669 59.8493 20.1785 59.4649 20.7663 59.2577V36.8949H18.75V30.847H48.9918V36.8949H46.9755V42.9439H60.0806V36.3913L52.0163 30.3423V18.75H74.1939ZM20.7663 77.2173V79.2337H79.2337V77.2173H20.7663ZM20.7663 65.1215V75.2021H22.7827V67.1367H30.847V75.2021H32.8633V67.1367H40.9276V75.2021H44.9592V65.1215H20.7663ZM24.7979 69.1531V75.2021H28.8306V69.1531H24.7979ZM34.8785 69.1531V75.2021H38.9112V69.1531H34.8785ZM46.9755 71.1694V75.2021H61.0888V71.1694H46.9755ZM63.1051 65.1215V75.2021H70.1612V65.1215H63.1051ZM72.1776 65.1215V75.2021H79.2337V65.1215H72.1776ZM46.9755 65.1215V69.1531H61.0888V65.1215H46.9755ZM21.7745 61.0888C21.5072 61.0888 21.2507 61.1951 21.0617 61.3841C20.8727 61.5732 20.7663 61.8296 20.7663 62.097V63.1051H79.2337V62.097C79.2337 61.8296 79.1273 61.5732 78.9383 61.3841C78.7493 61.1951 78.4928 61.0888 78.2255 61.0888H21.7745ZM22.7827 53.0245V59.0724H44.9592V53.0245H22.7827ZM46.9755 48.9918V59.0724H53.0245V48.9918H46.9755ZM69.5705 45.9673L66.546 48.9918H55.0409V59.0724H77.2173V49.4093L73.7765 45.9673H69.5705ZM22.7827 36.8949V51.0082H44.9592V36.8949H22.7827ZM46.9755 44.9592V46.9755H60.0806V44.9592H46.9755ZM62.097 36.8949V46.9755H64.1133V36.8949H62.097ZM20.7663 32.8633V34.8785H46.9755V32.8633H20.7663ZM54.0327 20.7663V29.3342L61.4245 34.8785H64.7858L72.1776 29.3342V20.7663H54.0327Z" fill="#F9C620"/>
<path d="M26.8132 57.0561H24.7968V55.0398H26.8132V57.0561Z" stroke="#FEF9E6" stroke-width="0.8" mask="url(#path-2-inside-1_1_4461)"/>
<path d="M30.8448 57.0561H28.8295V55.0398H30.8448V57.0561Z" stroke="#FEF9E6" stroke-width="0.8" mask="url(#path-2-inside-1_1_4461)"/>
<path d="M34.8775 57.0561H32.8611V55.0398H34.8775V57.0561Z" stroke="#FEF9E6" stroke-width="0.8" mask="url(#path-2-inside-1_1_4461)"/>
<path fill-rule="evenodd" clip-rule="evenodd" d="M75.1999 51.0082V57.0561H57.055V51.0082H75.1999ZM59.0714 53.0245V55.0398H73.1836V53.0245H59.0714Z" stroke="#FEF9E6" stroke-width="0.8" mask="url(#path-2-inside-1_1_4461)"/>
<path fill-rule="evenodd" clip-rule="evenodd" d="M42.9417 38.9112V48.9918H24.7968V38.9112H42.9417ZM26.8132 40.9276V46.9755H40.9254V40.9276H26.8132Z" stroke="#FEF9E6" stroke-width="0.8" mask="url(#path-2-inside-1_1_4461)"/>
<path fill-rule="evenodd" clip-rule="evenodd" d="M74.1939 18.75V30.3423L66.1285 36.3913V46.5581L68.7356 43.9521H74.6113L79.2337 48.5744V59.2577C79.8215 59.4649 80.331 59.8493 80.692 60.3574C81.0529 60.8657 81.248 61.4736 81.25 62.097V81.25H18.75V62.097C18.752 61.4736 18.9471 60.8657 19.308 60.3574C19.669 59.8493 20.1785 59.4649 20.7663 59.2577V36.8949H18.75V30.847H48.9918V36.8949H46.9755V42.9439H60.0806V36.3913L52.0163 30.3423V18.75H74.1939ZM20.7663 77.2173V79.2337H79.2337V77.2173H20.7663ZM20.7663 65.1215V75.2021H22.7827V67.1367H30.847V75.2021H32.8633V67.1367H40.9276V75.2021H44.9592V65.1215H20.7663ZM24.7979 69.1531V75.2021H28.8306V69.1531H24.7979ZM34.8785 69.1531V75.2021H38.9112V69.1531H34.8785ZM46.9755 71.1694V75.2021H61.0888V71.1694H46.9755ZM63.1051 65.1215V75.2021H70.1612V65.1215H63.1051ZM72.1776 65.1215V75.2021H79.2337V65.1215H72.1776ZM46.9755 65.1215V69.1531H61.0888V65.1215H46.9755ZM21.7745 61.0888C21.5072 61.0888 21.2507 61.1951 21.0617 61.3841C20.8727 61.5732 20.7663 61.8296 20.7663 62.097V63.1051H79.2337V62.097C79.2337 61.8296 79.1273 61.5732 78.9383 61.3841C78.7493 61.1951 78.4928 61.0888 78.2255 61.0888H21.7745ZM22.7827 53.0245V59.0724H44.9592V53.0245H22.7827ZM46.9755 48.9918V59.0724H53.0245V48.9918H46.9755ZM69.5705 45.9673L66.546 48.9918H55.0409V59.0724H77.2173V49.4093L73.7765 45.9673H69.5705ZM22.7827 36.8949V51.0082H44.9592V36.8949H22.7827ZM46.9755 44.9592V46.9755H60.0806V44.9592H46.9755ZM62.097 36.8949V46.9755H64.1133V36.8949H62.097ZM20.7663 32.8633V34.8785H46.9755V32.8633H20.7663ZM54.0327 20.7663V29.3342L61.4245 34.8785H64.7858L72.1776 29.3342V20.7663H54.0327Z" stroke="#FEF9E6" stroke-width="0.8" mask="url(#path-2-inside-1_1_4461)"/>
</g>
</svg>
