<svg width="100" height="100" viewBox="0 0 100 100" fill="none" xmlns="http://www.w3.org/2000/svg">
<mask id="mask0_1_4467" style="mask-type:alpha" maskUnits="userSpaceOnUse" x="0" y="0" width="100" height="100">
<rect width="100" height="100" fill="#F5F9FF"/>
</mask>
<g mask="url(#mask0_1_4467)">
<mask id="path-2-inside-1_1_4467" fill="white">
<path d="M53.8668 51.5534C54.2904 51.1279 54.9768 51.1277 55.4004 51.5534C55.8236 51.979 55.823 52.6741 55.4004 53.0997L49.7064 58.8228C49.2828 59.2485 48.5964 59.2485 48.1728 58.8228C47.7493 58.3971 47.7497 57.701 48.1728 57.2755L53.8668 51.5534Z"/>
<path d="M53.7272 47.9708C54.1243 47.5718 54.7518 47.5474 55.1777 47.8965L55.2608 47.9708C55.6833 48.3963 55.6844 49.0863 55.2608 49.5119L46.1414 58.6825C45.7178 59.1082 45.0261 59.1071 44.6026 58.6825C44.1825 58.2603 44.1746 57.5637 44.6016 57.1414L53.7272 47.9708Z"/>
<path fill-rule="evenodd" clip-rule="evenodd" d="M50.0021 41.0356C56.801 41.0357 62.3961 46.5277 62.3961 53.3968C62.3959 60.2594 56.794 65.7507 50.0021 65.7508C43.2101 65.7508 37.6082 60.2595 37.6081 53.3968C37.6081 46.5275 43.2098 41.0356 50.0021 41.0356ZM50.0021 43.2184C44.3887 43.2184 39.7801 47.7401 39.7801 53.3968L39.7935 53.9239C40.0694 59.331 44.5639 63.568 50.0021 63.568L50.5256 63.5556C55.8994 63.2852 60.2239 58.8762 60.224 53.3968L60.2106 52.8697C59.9437 47.6364 55.7257 43.4928 50.5256 43.2308L50.0021 43.2184Z"/>
<path fill-rule="evenodd" clip-rule="evenodd" d="M50.4568 35.6013C60.023 35.8449 67.7152 43.7184 67.7154 53.3968L67.7092 53.8559C67.4706 63.3169 59.8777 70.9535 50.4568 71.1933L50 71.1995C40.3689 71.1995 32.534 63.4757 32.2918 53.8559L32.2856 53.3968C32.2858 43.5648 40.2231 35.5952 50 35.5951L50.4568 35.6013ZM50 37.7779C41.4124 37.778 34.4579 44.7669 34.4577 53.3968C34.4577 62.0269 41.4123 69.0167 50 69.0167C58.5876 69.0167 65.5433 62.0203 65.5433 53.3968C65.5431 44.7669 58.5877 37.7779 50 37.7779Z"/>
<path fill-rule="evenodd" clip-rule="evenodd" d="M65.6172 22.5737C66.9542 22.5737 68.0405 23.673 68.0408 25.0082V27.4623C68.0405 28.7976 66.9542 29.8968 65.6172 29.8968H54.6162C53.2793 29.8968 52.1929 28.7976 52.1926 27.4623V25.0082C52.1929 23.673 53.2792 22.5737 54.6162 22.5737H65.6172ZM54.6162 24.7565C54.4756 24.7565 54.3649 24.868 54.3647 25.0082V27.4623L54.3698 27.5118C54.3935 27.6255 54.4954 27.714 54.6162 27.714H65.6172C65.738 27.714 65.8399 27.6255 65.8636 27.5118L65.8687 27.4623V25.0082C65.8685 24.868 65.7578 24.7565 65.6172 24.7565H54.6162Z"/>
<path d="M72.8623 22.9544C73.4599 22.9547 73.9483 23.4447 73.9483 24.0458V28.2638C73.9481 28.8645 73.4599 29.355 72.8623 29.3552C72.4452 29.3552 72.0822 29.1163 71.9004 28.7683C71.735 29.0848 71.4203 29.3111 71.0505 29.349L70.9396 29.3552C70.3322 29.3552 69.8538 28.8617 69.8536 28.2638V24.0458C69.8536 23.4475 70.3323 22.9544 70.9396 22.9544L71.0505 22.9606C71.42 22.9985 71.7349 23.2241 71.9004 23.5403C72.0823 23.1927 72.4455 22.9544 72.8623 22.9544Z"/>
<path fill-rule="evenodd" clip-rule="evenodd" d="M36.0252 23.6032C37.4679 23.6033 38.6539 24.7954 38.6541 26.2451L38.6397 26.5143C38.5051 27.8448 37.3844 28.8879 36.0252 28.8879H26.6861C25.3271 28.8877 24.2062 27.8447 24.0716 26.5143L24.0572 26.2451C24.0574 24.7888 25.2369 23.6034 26.6861 23.6032H36.0252ZM26.6861 25.786C26.4396 25.7862 26.2294 25.9974 26.2293 26.2451C26.2293 26.4954 26.4354 26.705 26.6861 26.7052H36.0252L36.1155 26.6959C36.3208 26.6519 36.482 26.4625 36.482 26.2451C36.4818 26.0223 36.3261 25.8381 36.1176 25.7953L36.0252 25.786H26.6861Z"/>
<path d="M47.947 23.268C48.3092 23.2921 48.652 23.3872 48.9632 23.5362C49.3237 23.4386 49.7274 23.5274 50.0123 23.8137C50.298 24.1009 50.3821 24.5023 50.2854 24.8628C50.4609 25.2302 50.5625 25.6418 50.5625 26.078C50.5624 27.532 49.4602 28.7287 48.0466 28.8725L47.7602 28.8869C47.3286 28.8869 46.9195 28.7864 46.554 28.6104C46.195 28.7067 45.7925 28.623 45.509 28.3309C45.2288 28.046 45.1406 27.6479 45.235 27.289C45.0591 26.9229 44.9579 26.5124 44.9578 26.078C44.9578 24.5204 46.2185 23.2619 47.7602 23.2618L47.947 23.268Z"/>
<path fill-rule="evenodd" clip-rule="evenodd" d="M74.5642 20C77.3847 20 79.6875 22.323 79.6875 25.1557V71.9257C79.6875 74.7926 77.3577 77.135 74.5047 77.1351H73.1959C73.0669 77.8481 72.7227 78.4854 72.2341 78.9764C70.8798 80.3372 68.7038 80.3452 67.3417 78.9764C66.8375 78.4696 66.5113 77.8286 66.3881 77.1351H33.6191C33.4901 77.8481 33.1459 78.4854 32.6572 78.9764C31.303 80.3371 29.127 80.3452 27.7649 78.9764C27.2606 78.4696 26.9345 77.8286 26.8113 77.1351H25.4358C22.6161 77.135 20.3125 74.8189 20.3125 71.9855V25.1557C20.3125 22.316 22.6158 20.0001 25.4358 20H74.5642ZM29.0799 77.1351C29.1385 77.2447 29.2112 77.346 29.2975 77.4353C29.7995 77.9398 30.6181 77.9443 31.1247 77.4353C31.2134 77.3461 31.2869 77.2448 31.3454 77.1351H29.0799ZM68.6567 77.1351C68.7151 77.2442 68.7875 77.3452 68.8733 77.4343L68.9729 77.523C69.4841 77.9393 70.2274 77.9117 70.7015 77.4353C70.7908 77.3455 70.8658 77.2444 70.9253 77.1351H68.6567ZM25.4358 22.189C23.8186 22.1891 22.4846 23.5247 22.4846 25.1557V30.2733H75.8299C76.4374 30.2733 76.9157 30.767 76.9159 31.3647L76.9098 31.4751C76.8552 32.0224 76.3995 32.4561 75.8299 32.4561H22.4846V71.9855C22.4846 73.6105 23.8191 74.9522 25.4358 74.9523H74.5047L74.8116 74.9368C76.3254 74.781 77.5154 73.4867 77.5154 71.9257V25.1557C77.5154 23.524 76.1876 22.189 74.5642 22.189H25.4358Z"/>
</mask>
<path d="M53.8668 51.5534C54.2904 51.1279 54.9768 51.1277 55.4004 51.5534C55.8236 51.979 55.823 52.6741 55.4004 53.0997L49.7064 58.8228C49.2828 59.2485 48.5964 59.2485 48.1728 58.8228C47.7493 58.3971 47.7497 57.701 48.1728 57.2755L53.8668 51.5534Z" fill="#8BC8DA"/>
<path d="M53.7272 47.9708C54.1243 47.5718 54.7518 47.5474 55.1777 47.8965L55.2608 47.9708C55.6833 48.3963 55.6844 49.0863 55.2608 49.5119L46.1414 58.6825C45.7178 59.1082 45.0261 59.1071 44.6026 58.6825C44.1825 58.2603 44.1746 57.5637 44.6016 57.1414L53.7272 47.9708Z" fill="#8BC8DA"/>
<path fill-rule="evenodd" clip-rule="evenodd" d="M50.0021 41.0356C56.801 41.0357 62.3961 46.5277 62.3961 53.3968C62.3959 60.2594 56.794 65.7507 50.0021 65.7508C43.2101 65.7508 37.6082 60.2595 37.6081 53.3968C37.6081 46.5275 43.2098 41.0356 50.0021 41.0356ZM50.0021 43.2184C44.3887 43.2184 39.7801 47.7401 39.7801 53.3968L39.7935 53.9239C40.0694 59.331 44.5639 63.568 50.0021 63.568L50.5256 63.5556C55.8994 63.2852 60.2239 58.8762 60.224 53.3968L60.2106 52.8697C59.9437 47.6364 55.7257 43.4928 50.5256 43.2308L50.0021 43.2184Z" fill="#8BC8DA"/>
<path fill-rule="evenodd" clip-rule="evenodd" d="M50.4568 35.6013C60.023 35.8449 67.7152 43.7184 67.7154 53.3968L67.7092 53.8559C67.4706 63.3169 59.8777 70.9535 50.4568 71.1933L50 71.1995C40.3689 71.1995 32.534 63.4757 32.2918 53.8559L32.2856 53.3968C32.2858 43.5648 40.2231 35.5952 50 35.5951L50.4568 35.6013ZM50 37.7779C41.4124 37.778 34.4579 44.7669 34.4577 53.3968C34.4577 62.0269 41.4123 69.0167 50 69.0167C58.5876 69.0167 65.5433 62.0203 65.5433 53.3968C65.5431 44.7669 58.5877 37.7779 50 37.7779Z" fill="#8BC8DA"/>
<path fill-rule="evenodd" clip-rule="evenodd" d="M65.6172 22.5737C66.9542 22.5737 68.0405 23.673 68.0408 25.0082V27.4623C68.0405 28.7976 66.9542 29.8968 65.6172 29.8968H54.6162C53.2793 29.8968 52.1929 28.7976 52.1926 27.4623V25.0082C52.1929 23.673 53.2792 22.5737 54.6162 22.5737H65.6172ZM54.6162 24.7565C54.4756 24.7565 54.3649 24.868 54.3647 25.0082V27.4623L54.3698 27.5118C54.3935 27.6255 54.4954 27.714 54.6162 27.714H65.6172C65.738 27.714 65.8399 27.6255 65.8636 27.5118L65.8687 27.4623V25.0082C65.8685 24.868 65.7578 24.7565 65.6172 24.7565H54.6162Z" fill="#8BC8DA"/>
<path d="M72.8623 22.9544C73.4599 22.9547 73.9483 23.4447 73.9483 24.0458V28.2638C73.9481 28.8645 73.4599 29.355 72.8623 29.3552C72.4452 29.3552 72.0822 29.1163 71.9004 28.7683C71.735 29.0848 71.4203 29.3111 71.0505 29.349L70.9396 29.3552C70.3322 29.3552 69.8538 28.8617 69.8536 28.2638V24.0458C69.8536 23.4475 70.3323 22.9544 70.9396 22.9544L71.0505 22.9606C71.42 22.9985 71.7349 23.2241 71.9004 23.5403C72.0823 23.1927 72.4455 22.9544 72.8623 22.9544Z" fill="#8BC8DA"/>
<path fill-rule="evenodd" clip-rule="evenodd" d="M36.0252 23.6032C37.4679 23.6033 38.6539 24.7954 38.6541 26.2451L38.6397 26.5143C38.5051 27.8448 37.3844 28.8879 36.0252 28.8879H26.6861C25.3271 28.8877 24.2062 27.8447 24.0716 26.5143L24.0572 26.2451C24.0574 24.7888 25.2369 23.6034 26.6861 23.6032H36.0252ZM26.6861 25.786C26.4396 25.7862 26.2294 25.9974 26.2293 26.2451C26.2293 26.4954 26.4354 26.705 26.6861 26.7052H36.0252L36.1155 26.6959C36.3208 26.6519 36.482 26.4625 36.482 26.2451C36.4818 26.0223 36.3261 25.8381 36.1176 25.7953L36.0252 25.786H26.6861Z" fill="#8BC8DA"/>
<path d="M47.947 23.268C48.3092 23.2921 48.652 23.3872 48.9632 23.5362C49.3237 23.4386 49.7274 23.5274 50.0123 23.8137C50.298 24.1009 50.3821 24.5023 50.2854 24.8628C50.4609 25.2302 50.5625 25.6418 50.5625 26.078C50.5624 27.532 49.4602 28.7287 48.0466 28.8725L47.7602 28.8869C47.3286 28.8869 46.9195 28.7864 46.554 28.6104C46.195 28.7067 45.7925 28.623 45.509 28.3309C45.2288 28.046 45.1406 27.6479 45.235 27.289C45.0591 26.9229 44.9579 26.5124 44.9578 26.078C44.9578 24.5204 46.2185 23.2619 47.7602 23.2618L47.947 23.268Z" fill="#8BC8DA"/>
<path fill-rule="evenodd" clip-rule="evenodd" d="M74.5642 20C77.3847 20 79.6875 22.323 79.6875 25.1557V71.9257C79.6875 74.7926 77.3577 77.135 74.5047 77.1351H73.1959C73.0669 77.8481 72.7227 78.4854 72.2341 78.9764C70.8798 80.3372 68.7038 80.3452 67.3417 78.9764C66.8375 78.4696 66.5113 77.8286 66.3881 77.1351H33.6191C33.4901 77.8481 33.1459 78.4854 32.6572 78.9764C31.303 80.3371 29.127 80.3452 27.7649 78.9764C27.2606 78.4696 26.9345 77.8286 26.8113 77.1351H25.4358C22.6161 77.135 20.3125 74.8189 20.3125 71.9855V25.1557C20.3125 22.316 22.6158 20.0001 25.4358 20H74.5642ZM29.0799 77.1351C29.1385 77.2447 29.2112 77.346 29.2975 77.4353C29.7995 77.9398 30.6181 77.9443 31.1247 77.4353C31.2134 77.3461 31.2869 77.2448 31.3454 77.1351H29.0799ZM68.6567 77.1351C68.7151 77.2442 68.7875 77.3452 68.8733 77.4343L68.9729 77.523C69.4841 77.9393 70.2274 77.9117 70.7015 77.4353C70.7908 77.3455 70.8658 77.2444 70.9253 77.1351H68.6567ZM25.4358 22.189C23.8186 22.1891 22.4846 23.5247 22.4846 25.1557V30.2733H75.8299C76.4374 30.2733 76.9157 30.767 76.9159 31.3647L76.9098 31.4751C76.8552 32.0224 76.3995 32.4561 75.8299 32.4561H22.4846V71.9855C22.4846 73.6105 23.8191 74.9522 25.4358 74.9523H74.5047L74.8116 74.9368C76.3254 74.781 77.5154 73.4867 77.5154 71.9257V25.1557C77.5154 23.524 76.1876 22.189 74.5642 22.189H25.4358Z" fill="#8BC8DA"/>
<path d="M53.8668 51.5534C54.2904 51.1279 54.9768 51.1277 55.4004 51.5534C55.8236 51.979 55.823 52.6741 55.4004 53.0997L49.7064 58.8228C49.2828 59.2485 48.5964 59.2485 48.1728 58.8228C47.7493 58.3971 47.7497 57.701 48.1728 57.2755L53.8668 51.5534Z" stroke="#ECF6F9" stroke-width="0.8" mask="url(#path-2-inside-1_1_4467)"/>
<path d="M53.7272 47.9708C54.1243 47.5718 54.7518 47.5474 55.1777 47.8965L55.2608 47.9708C55.6833 48.3963 55.6844 49.0863 55.2608 49.5119L46.1414 58.6825C45.7178 59.1082 45.0261 59.1071 44.6026 58.6825C44.1825 58.2603 44.1746 57.5637 44.6016 57.1414L53.7272 47.9708Z" stroke="#ECF6F9" stroke-width="0.8" mask="url(#path-2-inside-1_1_4467)"/>
<path fill-rule="evenodd" clip-rule="evenodd" d="M50.0021 41.0356C56.801 41.0357 62.3961 46.5277 62.3961 53.3968C62.3959 60.2594 56.794 65.7507 50.0021 65.7508C43.2101 65.7508 37.6082 60.2595 37.6081 53.3968C37.6081 46.5275 43.2098 41.0356 50.0021 41.0356ZM50.0021 43.2184C44.3887 43.2184 39.7801 47.7401 39.7801 53.3968L39.7935 53.9239C40.0694 59.331 44.5639 63.568 50.0021 63.568L50.5256 63.5556C55.8994 63.2852 60.2239 58.8762 60.224 53.3968L60.2106 52.8697C59.9437 47.6364 55.7257 43.4928 50.5256 43.2308L50.0021 43.2184Z" stroke="#ECF6F9" stroke-width="0.8" mask="url(#path-2-inside-1_1_4467)"/>
<path fill-rule="evenodd" clip-rule="evenodd" d="M50.4568 35.6013C60.023 35.8449 67.7152 43.7184 67.7154 53.3968L67.7092 53.8559C67.4706 63.3169 59.8777 70.9535 50.4568 71.1933L50 71.1995C40.3689 71.1995 32.534 63.4757 32.2918 53.8559L32.2856 53.3968C32.2858 43.5648 40.2231 35.5952 50 35.5951L50.4568 35.6013ZM50 37.7779C41.4124 37.778 34.4579 44.7669 34.4577 53.3968C34.4577 62.0269 41.4123 69.0167 50 69.0167C58.5876 69.0167 65.5433 62.0203 65.5433 53.3968C65.5431 44.7669 58.5877 37.7779 50 37.7779Z" stroke="#ECF6F9" stroke-width="0.8" mask="url(#path-2-inside-1_1_4467)"/>
<path fill-rule="evenodd" clip-rule="evenodd" d="M65.6172 22.5737C66.9542 22.5737 68.0405 23.673 68.0408 25.0082V27.4623C68.0405 28.7976 66.9542 29.8968 65.6172 29.8968H54.6162C53.2793 29.8968 52.1929 28.7976 52.1926 27.4623V25.0082C52.1929 23.673 53.2792 22.5737 54.6162 22.5737H65.6172ZM54.6162 24.7565C54.4756 24.7565 54.3649 24.868 54.3647 25.0082V27.4623L54.3698 27.5118C54.3935 27.6255 54.4954 27.714 54.6162 27.714H65.6172C65.738 27.714 65.8399 27.6255 65.8636 27.5118L65.8687 27.4623V25.0082C65.8685 24.868 65.7578 24.7565 65.6172 24.7565H54.6162Z" stroke="#ECF6F9" stroke-width="0.8" mask="url(#path-2-inside-1_1_4467)"/>
<path d="M72.8623 22.9544C73.4599 22.9547 73.9483 23.4447 73.9483 24.0458V28.2638C73.9481 28.8645 73.4599 29.355 72.8623 29.3552C72.4452 29.3552 72.0822 29.1163 71.9004 28.7683C71.735 29.0848 71.4203 29.3111 71.0505 29.349L70.9396 29.3552C70.3322 29.3552 69.8538 28.8617 69.8536 28.2638V24.0458C69.8536 23.4475 70.3323 22.9544 70.9396 22.9544L71.0505 22.9606C71.42 22.9985 71.7349 23.2241 71.9004 23.5403C72.0823 23.1927 72.4455 22.9544 72.8623 22.9544Z" stroke="#ECF6F9" stroke-width="0.8" mask="url(#path-2-inside-1_1_4467)"/>
<path fill-rule="evenodd" clip-rule="evenodd" d="M36.0252 23.6032C37.4679 23.6033 38.6539 24.7954 38.6541 26.2451L38.6397 26.5143C38.5051 27.8448 37.3844 28.8879 36.0252 28.8879H26.6861C25.3271 28.8877 24.2062 27.8447 24.0716 26.5143L24.0572 26.2451C24.0574 24.7888 25.2369 23.6034 26.6861 23.6032H36.0252ZM26.6861 25.786C26.4396 25.7862 26.2294 25.9974 26.2293 26.2451C26.2293 26.4954 26.4354 26.705 26.6861 26.7052H36.0252L36.1155 26.6959C36.3208 26.6519 36.482 26.4625 36.482 26.2451C36.4818 26.0223 36.3261 25.8381 36.1176 25.7953L36.0252 25.786H26.6861Z" stroke="#ECF6F9" stroke-width="0.8" mask="url(#path-2-inside-1_1_4467)"/>
<path d="M47.947 23.268C48.3092 23.2921 48.652 23.3872 48.9632 23.5362C49.3237 23.4386 49.7274 23.5274 50.0123 23.8137C50.298 24.1009 50.3821 24.5023 50.2854 24.8628C50.4609 25.2302 50.5625 25.6418 50.5625 26.078C50.5624 27.532 49.4602 28.7287 48.0466 28.8725L47.7602 28.8869C47.3286 28.8869 46.9195 28.7864 46.554 28.6104C46.195 28.7067 45.7925 28.623 45.509 28.3309C45.2288 28.046 45.1406 27.6479 45.235 27.289C45.0591 26.9229 44.9579 26.5124 44.9578 26.078C44.9578 24.5204 46.2185 23.2619 47.7602 23.2618L47.947 23.268Z" stroke="#ECF6F9" stroke-width="0.8" mask="url(#path-2-inside-1_1_4467)"/>
<path fill-rule="evenodd" clip-rule="evenodd" d="M74.5642 20C77.3847 20 79.6875 22.323 79.6875 25.1557V71.9257C79.6875 74.7926 77.3577 77.135 74.5047 77.1351H73.1959C73.0669 77.8481 72.7227 78.4854 72.2341 78.9764C70.8798 80.3372 68.7038 80.3452 67.3417 78.9764C66.8375 78.4696 66.5113 77.8286 66.3881 77.1351H33.6191C33.4901 77.8481 33.1459 78.4854 32.6572 78.9764C31.303 80.3371 29.127 80.3452 27.7649 78.9764C27.2606 78.4696 26.9345 77.8286 26.8113 77.1351H25.4358C22.6161 77.135 20.3125 74.8189 20.3125 71.9855V25.1557C20.3125 22.316 22.6158 20.0001 25.4358 20H74.5642ZM29.0799 77.1351C29.1385 77.2447 29.2112 77.346 29.2975 77.4353C29.7995 77.9398 30.6181 77.9443 31.1247 77.4353C31.2134 77.3461 31.2869 77.2448 31.3454 77.1351H29.0799ZM68.6567 77.1351C68.7151 77.2442 68.7875 77.3452 68.8733 77.4343L68.9729 77.523C69.4841 77.9393 70.2274 77.9117 70.7015 77.4353C70.7908 77.3455 70.8658 77.2444 70.9253 77.1351H68.6567ZM25.4358 22.189C23.8186 22.1891 22.4846 23.5247 22.4846 25.1557V30.2733H75.8299C76.4374 30.2733 76.9157 30.767 76.9159 31.3647L76.9098 31.4751C76.8552 32.0224 76.3995 32.4561 75.8299 32.4561H22.4846V71.9855C22.4846 73.6105 23.8191 74.9522 25.4358 74.9523H74.5047L74.8116 74.9368C76.3254 74.781 77.5154 73.4867 77.5154 71.9257V25.1557C77.5154 23.524 76.1876 22.189 74.5642 22.189H25.4358Z" stroke="#ECF6F9" stroke-width="0.8" mask="url(#path-2-inside-1_1_4467)"/>
</g>
</svg>
