<svg width="100" height="100" viewBox="0 0 100 100" fill="none" xmlns="http://www.w3.org/2000/svg">
<mask id="mask0_1_4524" style="mask-type:alpha" maskUnits="userSpaceOnUse" x="0" y="0" width="100" height="100">
<rect width="100" height="100" fill="#F5F9FF"/>
</mask>
<g mask="url(#mask0_1_4524)">
<path d="M79.9995 25.958C80.0013 25.5546 79.9227 25.1549 79.7681 24.7823C79.6136 24.4097 79.3863 24.0717 79.0995 23.788L76.2116 20.9C75.9292 20.6146 75.593 20.388 75.2223 20.2335C74.8517 20.079 74.4541 19.9996 74.0526 20H74.0426C73.6435 20.0002 73.2485 20.08 72.8806 20.2345C72.5126 20.389 72.1791 20.6153 71.8996 20.9L58.7997 33.9999H32.9999V23C32.9999 21.3431 31.6567 20 29.9999 20H27.9999C23.5838 20.0049 20.0049 23.5838 20 27.9999V72.2506C20.2503 76.6331 23.9006 80.0451 28.29 79.9995H76.9996C78.6564 79.9995 79.9995 78.6564 79.9995 76.9996V36.9999C79.9995 35.3431 78.6564 33.9999 76.9996 33.9999H73.1996L79.0996 28.0999C79.3838 27.8202 79.6097 27.4868 79.7641 27.1191C79.9186 26.7515 79.9986 26.3568 79.9995 25.958ZM55.7798 44.9998C55.6754 45.014 55.5692 45.0033 55.4697 44.9685C55.3703 44.9338 55.2805 44.876 55.2078 44.7998C55.1343 44.7268 55.0782 44.6382 55.0435 44.5406C55.0089 44.443 54.9967 44.3388 55.0078 44.2358L55.3867 40.8359C55.4026 40.7648 55.4227 40.6946 55.4468 40.6259L59.3857 44.5649C59.3208 44.5789 59.2617 44.6109 59.1937 44.6189L55.7798 44.9998ZM61.0187 43.3668L56.6427 38.9898L67.5426 28.09L71.9165 32.4629L61.0187 43.3668ZM68.9527 26.6749L70.4356 25.1929L74.8076 29.5658L73.3256 31.0488L68.9527 26.6749ZM22 27.9999C22.0033 24.6877 24.6877 22.0032 27.9999 22H29.9999C30.5522 22 31 22.4477 31 22.9999V62.9996C31 63.5518 30.5523 63.9995 29.9999 63.9995H27.9999C26.8644 63.9992 25.7418 64.2411 24.7071 64.7091C23.6725 65.1771 22.7495 65.8604 22 66.7135V27.9999ZM76.9996 35.9999C77.5518 35.9999 77.9996 36.4476 77.9996 36.9999V76.9996C77.9996 77.5518 77.5519 77.9996 76.9996 77.9996H28.29C24.9888 78.0551 22.2232 75.5137 22 72.2196V71.9996C22.0033 68.6873 24.6877 66.003 27.9999 65.9996H29.9999C31.6567 65.9996 32.9998 64.6565 32.9998 62.9997V35.9999H56.7996L54.5287 38.2708C53.8947 38.8955 53.4959 39.72 53.3997 40.6048L53.0207 44.0117C52.9895 44.344 53.0211 44.6791 53.1137 44.9997H35.9999C35.4476 44.9997 34.9998 45.4474 34.9998 45.9998C34.9998 46.552 35.4475 46.9997 35.9999 46.9997H38.9999V73.9996C38.9999 74.5518 39.4476 74.9996 39.9999 74.9996C40.5523 74.9996 41 74.5519 41 73.9996V59.9997H51.9998V67.9996H44.9998C44.4476 67.9996 43.9999 68.4473 43.9999 68.9995C43.9999 69.5518 44.4476 69.9996 44.9998 69.9996H64.9997C66.1043 69.9996 66.9997 69.1042 66.9997 67.9996V52.9998C66.9997 52.4475 66.552 51.9997 65.9997 51.9997C65.4475 51.9997 64.9997 52.4474 64.9997 52.9998V57.9997H40.9999V46.9998H55.7078C55.8053 47 55.9029 46.9947 55.9998 46.9838L59.4167 46.5949C60.284 46.4964 61.0935 46.111 61.7167 45.4999L71.2047 36L76.9996 35.9999ZM64.9997 59.9997V67.9996H53.9997V59.9997H64.9997ZM77.6895 26.6819L76.2216 28.1509L71.8496 23.7789L73.3186 22.31C73.4137 22.2123 73.5274 22.1346 73.6529 22.0814C73.7784 22.0282 73.9133 22.0005 74.0496 22C74.1884 22.0003 74.3257 22.0283 74.4536 22.0822C74.5815 22.1361 74.6974 22.2149 74.7946 22.314L77.6866 25.2C77.7861 25.2981 77.8651 25.415 77.9188 25.5439C77.9726 25.6729 78.0001 25.8113 77.9996 25.951C77.9992 26.0873 77.9715 26.2222 77.9183 26.3477C77.865 26.4732 77.7873 26.5869 77.6895 26.6819Z" fill="#F9C620"/>
</g>
</svg>
