<svg width="48" height="48" viewBox="0 0 48 48" fill="none" xmlns="http://www.w3.org/2000/svg">
<rect width="48" height="48" rx="8" fill="white"/>
<path d="M33.9941 9.15039C37.2228 9.15058 39.8494 11.7771 39.8496 15.0059C39.8496 16.5115 39.2782 17.8869 38.3408 18.9258L38.3115 18.958L38.3047 19.002L37.2354 25.7051C36.9741 27.3303 35.7013 28.5149 34.0645 28.6562H34.0635L16.5234 30.1777C16.1785 30.2072 15.8582 30.3686 15.6299 30.6289C15.4299 30.8569 15.314 31.145 15.2988 31.4453V31.5742C15.3308 32.2939 15.918 32.8574 16.6367 32.8574H16.6406L31.9316 32.834H31.9346C31.9654 32.8332 31.9844 32.832 32.0078 32.832C33.603 32.8321 34.9014 34.1303 34.9014 35.7256C34.9012 37.3207 33.602 38.619 32.0078 38.6191C30.4137 38.6191 29.1164 37.3208 29.1162 35.7256C29.1161 35.3673 29.1823 35.0115 29.3125 34.6777L29.3926 34.4727L29.1729 34.4736L23.2441 34.4824L23.0244 34.4834L23.1055 34.6875C23.2348 35.0154 23.3066 35.3719 23.3066 35.7451C23.3066 37.3403 22.0082 38.6385 20.4131 38.6387C18.8178 38.6387 17.5195 37.3404 17.5195 35.7451C17.5194 35.3862 17.5861 35.0305 17.7168 34.6963L17.7969 34.4912H17.5771L16.6445 34.4932H16.6348C15.0398 34.4932 13.7359 33.2449 13.665 31.6465C13.5943 30.0482 14.7872 28.6873 16.3818 28.5479L16.4121 28.5449L16.5684 28.5322L16.5479 28.376L14.5557 13.1387C14.3814 11.809 13.2792 10.8418 11.9375 10.8418H8.96777C8.51615 10.8418 8.15039 10.476 8.15039 10.0244C8.15039 9.57279 8.51615 9.20703 8.96777 9.20703H11.9375C12.9812 9.20703 13.9843 9.58273 14.7617 10.2646C15.5392 10.9467 16.0422 11.8919 16.1777 12.9268L16.3262 14.0576L16.3428 14.1885H28.1934L28.2139 14.0625C28.6665 11.2805 31.0865 9.15039 33.9941 9.15039ZM20.4131 34.4873C19.7194 34.4873 19.1544 35.0515 19.1543 35.7451C19.1543 36.4389 19.7193 37.0029 20.4131 37.0029C21.1067 37.0027 21.6709 36.4387 21.6709 35.7451C21.6708 35.0516 21.1066 34.4875 20.4131 34.4873ZM31.8594 34.4775C31.2364 34.5513 30.751 35.0821 30.751 35.7256C30.7512 36.4189 31.3139 36.9834 32.0078 36.9834C32.7014 36.9833 33.2654 36.4191 33.2656 35.7256C33.2656 35.0325 32.7025 34.469 32.0098 34.4678L31.8594 34.4668V34.4775ZM16.5791 15.9932L18.1807 28.248L18.1992 28.3906L18.3428 28.3779L33.9229 27.0264C34.7975 26.9509 35.4806 26.3148 35.6201 25.4473L36.3936 20.5977L36.4355 20.335L36.1895 20.4346C35.4922 20.7175 34.7466 20.8629 33.9941 20.8623C31.0867 20.8623 28.6666 18.732 28.2139 15.9502L28.1934 15.8242H16.5566L16.5791 15.9932ZM33.9941 10.7852C31.6668 10.7852 29.7736 12.6785 29.7734 15.0059C29.7734 17.3333 31.6667 19.2266 33.9941 19.2266C36.3214 19.2263 38.2148 17.3331 38.2148 15.0059C38.2147 12.6787 36.3213 10.7854 33.9941 10.7852ZM35.3877 13.1621C35.7135 12.8493 36.2312 12.8598 36.5439 13.1855C36.8567 13.5113 36.8463 14.029 36.5205 14.3418L33.9072 16.8506C33.7552 16.9969 33.5519 17.0793 33.3408 17.0791L33.2607 17.0752C33.1808 17.0674 33.1018 17.0475 33.0273 17.0166C32.9283 16.9755 32.8384 16.9148 32.7627 16.8389L31.4551 15.5312L31.3984 15.4697C31.1364 15.1485 31.1557 14.6744 31.4551 14.375C31.7744 14.0557 32.292 14.0557 32.6113 14.375L33.249 15.0117L33.3525 15.1162L33.459 15.0146L35.3877 13.1621Z" fill="#3E96F4" stroke="white" stroke-width="0.3"/>
</svg>
