<svg width="56" height="56" viewBox="0 0 56 56" fill="none" xmlns="http://www.w3.org/2000/svg">
<rect width="56" height="56" rx="8" fill="#F0F7FF"/>
<path d="M37.8407 34.3776V43.9996L30.5501 40.784C30.3869 40.7121 30.2479 40.595 30.1505 40.4462C30.0531 40.2973 30.0012 40.1228 30.0012 39.9452V30.9203L37.8407 34.3776Z" fill="#3E96F4"/>
<path d="M45.9254 30.2147L38.3018 33.5774L34.7973 32.0315L42.4209 28.6696L45.9254 30.2147Z" fill="#3E96F4"/>
<path d="M38.3018 26.9387C38.4303 26.9387 38.5574 26.9656 38.675 27.0174L41.283 28.1679L33.6594 31.5298L30.6781 30.2147L37.9278 27.0174C38.0455 26.9655 38.1731 26.9387 38.3018 26.9387Z" fill="#3E96F4"/>
<path d="M38.5288 34.3321V43.9999L45.4369 40.6444C45.579 40.5693 45.7 40.4471 45.7848 40.2918C45.8695 40.1364 45.9147 39.9544 45.9147 39.769L46.0733 30.9199L38.5288 34.3321Z" fill="#3E96F4"/>
<path fill-rule="evenodd" clip-rule="evenodd" d="M36.9538 12C37.4914 11.9996 38.0244 12.105 38.5212 12.3105C39.0178 12.5161 39.4693 12.8172 39.8494 13.1972C40.2295 13.5774 40.5305 14.0296 40.7361 14.5263C40.9416 15.023 41.047 15.5552 41.0467 16.0927V26.4998L39.2225 25.9112C38.7574 25.7612 38.2535 25.7866 37.8059 25.9826L29.8325 29.4752C29.105 29.7938 28.635 30.5129 28.635 31.3071V39.996C28.635 40.8866 29.2226 41.6694 30.0707 41.9412C31.6143 42.4358 34.009 43.2647 35.2184 43.9995H19.0929C18.5553 43.9999 18.0231 43.8935 17.5264 43.688C17.0298 43.4825 16.5784 43.1813 16.1983 42.8013C15.8182 42.4212 15.5161 41.9699 15.3106 41.4732C15.105 40.9764 14.9996 40.4434 15 39.9058V16.0927C14.9996 15.5553 15.1051 15.023 15.3106 14.5263C15.5161 14.0296 15.8181 13.5774 16.1983 13.1972C16.5784 12.8173 17.0298 12.516 17.5264 12.3105C18.0231 12.1051 18.5554 11.9996 19.0929 12H36.9538ZM20.5812 23.9061C20.2853 23.9062 20.0014 24.024 19.7921 24.2332C19.5829 24.4424 19.4651 24.7264 19.465 25.0223C19.465 25.3183 19.5828 25.603 19.7921 25.8123C20.0014 26.0215 20.2853 26.1394 20.5812 26.1394H28.0238C28.3197 26.1394 28.6036 26.0215 28.8129 25.8123C29.0222 25.603 29.1401 25.3183 29.1401 25.0223C29.1399 24.7264 29.0221 24.4424 28.8129 24.2332C28.6036 24.024 28.3197 23.9061 28.0238 23.9061H20.5812ZM20.5812 17.953C20.2853 17.9531 20.0014 18.0709 19.7921 18.2802C19.5829 18.4895 19.465 18.7733 19.465 19.0692C19.465 19.3652 19.5829 19.649 19.7921 19.8583C20.0014 20.0675 20.2853 20.1853 20.5812 20.1854H31.0005C31.2965 20.1854 31.5802 20.0676 31.7895 19.8583C31.9988 19.649 32.1167 19.3652 32.1167 19.0692C32.1167 18.7732 31.9989 18.4895 31.7895 18.2802C31.5802 18.0709 31.2965 17.9531 31.0005 17.953H20.5812Z" fill="#3E96F4"/>
</svg>
