<svg width="64" height="64" viewBox="0 0 64 64" fill="none" xmlns="http://www.w3.org/2000/svg">
<path fill-rule="evenodd" clip-rule="evenodd" d="M2.17497 32.5732C2.97909 32.0374 3.92408 31.7524 4.89035 31.754H4.90735C5.77386 31.7624 6.62147 32.0082 7.35798 32.4648C8.09449 32.9213 8.69168 33.5712 9.08453 34.3436L13.4655 32.9512C13.3471 32.1924 13.279 31.4266 13.2617 30.6588C13.2714 26.2729 14.9854 22.0624 18.0417 18.9168L11.9712 13.449C10.6212 14.4613 8.96817 14.9868 7.28139 14.9399C5.59461 14.893 3.97339 14.2765 2.68167 13.1907C1.38995 12.1049 0.503827 10.6139 0.167552 8.96031C-0.168723 7.30672 0.0646544 5.588 0.829712 4.08397C1.59477 2.57993 2.84642 1.37918 4.38091 0.677195C5.91539 -0.0247918 7.64231 -0.186641 9.28052 0.217963C10.9187 0.622566 12.3718 1.5698 13.403 2.90547C14.4342 4.24113 14.9829 5.88653 14.9598 7.57381C14.9345 9.15489 14.4117 10.6878 13.4655 11.9548L19.536 17.431C20.6247 16.5173 21.826 15.747 23.1104 15.1386C23.348 15.0328 23.6179 15.0256 23.8607 15.1188C24.1035 15.2119 24.2993 15.3977 24.4052 15.6353C24.511 15.8728 24.5182 16.1427 24.425 16.3855C24.3319 16.6284 24.1461 16.8242 23.9085 16.9301C20.5741 18.4801 17.9278 21.2045 16.4755 24.5826C15.0231 27.9607 14.8665 31.7556 16.0357 35.2418C17.2048 38.7281 19.6177 41.6613 22.813 43.4807C26.0084 45.3002 29.7622 45.8783 33.357 45.1047C36.9517 44.331 40.1353 42.2598 42.2992 39.2869C44.4632 36.3139 45.4557 32.6478 45.0871 28.9893C44.7185 25.3307 43.0146 21.9363 40.3011 19.4548C37.5877 16.9733 34.0549 15.5787 30.3781 15.5377C30.1146 15.5377 29.8619 15.433 29.6756 15.2467C29.4894 15.0604 29.3847 14.8078 29.3847 14.5443C29.3847 14.2809 29.4894 14.0282 29.6756 13.8419C29.8619 13.6556 30.1146 13.551 30.3781 13.551C32.5971 13.5656 34.7929 14.0036 36.8476 14.8415L40.5579 10.1973C39.7359 9.1077 39.2837 7.7839 39.2673 6.41915C39.2962 4.80201 39.9578 3.26064 41.1102 2.12573C42.2626 0.990821 43.8139 0.352788 45.4313 0.348602C46.2229 0.366206 47.0033 0.540079 47.7276 0.860172C48.4518 1.18027 49.1057 1.64027 49.6516 2.21382C50.1975 2.78738 50.6248 3.46316 50.9088 4.20232C51.1928 4.94149 51.328 5.72947 51.3065 6.52102C51.2976 8.12749 50.6549 9.66549 49.5181 10.8007C48.3814 11.9358 46.8425 12.5764 45.236 12.5831C44.0329 12.579 42.8555 12.2346 41.8399 11.5897L38.3589 15.7669C40.8267 17.1352 42.9122 19.1001 44.425 21.482C45.9377 23.8639 46.8295 26.5869 47.0189 29.4022L51.6886 29.8947C51.9841 28.5522 52.726 27.3496 53.793 26.483C54.8601 25.6164 56.1893 25.137 57.5638 25.1231C58.7033 25.1218 59.8191 25.4481 60.7784 26.0631C61.7377 26.6781 62.4999 27.5559 62.9744 28.5919C63.4488 29.628 63.6154 30.7786 63.4543 31.9066C63.2932 33.0347 62.8111 34.0926 62.0657 34.9544C61.3202 35.8162 60.3427 36.4455 59.2496 36.7674C58.1565 37.0893 56.994 37.0902 55.9004 36.7699C54.8069 36.4496 53.8284 35.8218 53.0817 34.9611C52.3349 34.1004 51.8513 33.0431 51.6886 31.9153L47.1124 31.4144C46.9012 35.7792 45.0211 39.896 41.8609 42.914C38.7006 45.9321 34.5017 47.6206 30.1319 47.6308C29.0327 47.6326 27.9356 47.5332 26.8546 47.3336L26.2518 51.5787C27.399 52.0949 28.3742 52.929 29.0619 53.9823C29.7496 55.0357 30.1209 56.264 30.1319 57.5219C30.1336 58.8022 29.7553 60.0542 29.045 61.1194C28.3348 62.1846 27.3245 63.0151 26.142 63.5059C24.9595 63.9966 23.658 64.1254 22.4022 63.8761C21.1464 63.6267 19.9929 63.0104 19.0876 62.1051C18.1823 61.1998 17.566 60.0462 17.3166 58.7905C17.0672 57.5347 17.1961 56.2332 17.6868 55.0507C18.1775 53.8682 19.0081 52.8579 20.0733 52.1476C21.1385 51.4374 22.3905 51.0592 23.6708 51.0609H24.367L24.9613 46.6799C22.2461 45.7807 19.7982 44.218 17.8397 42.1335C15.8812 40.049 14.474 37.5085 13.7457 34.7426L9.66186 36.0331C9.74491 36.2196 9.77993 36.4239 9.76374 36.6274C9.76542 37.5937 9.48035 38.5387 8.94457 39.3428C8.40878 40.1469 7.64641 40.774 6.75402 41.1446C5.86162 41.5151 4.87936 41.6125 3.93157 41.4244C2.98379 41.2363 2.1131 40.7712 1.42984 40.0879C0.746588 39.4046 0.281495 38.534 0.0933972 37.5862C-0.0947008 36.6384 0.00267636 35.6562 0.373227 34.7638C0.743777 33.8714 1.37085 33.109 2.17497 32.5732ZM27.5205 60.0156C28.0125 59.2771 28.2742 58.4093 28.2725 57.5219C28.2736 56.934 28.1586 56.3517 27.9342 55.8083C27.7097 55.265 27.3802 54.7713 26.9645 54.3556C26.5488 53.9399 26.0551 53.6103 25.5117 53.3859C24.9684 53.1614 24.386 53.0464 23.7981 53.0475C22.9108 53.0459 22.0429 53.3076 21.3044 53.7995C20.5659 54.2914 19.99 54.9915 19.6497 55.811C19.3093 56.6304 19.2198 57.5325 19.3925 58.4029C19.5652 59.2732 19.9923 60.0728 20.6198 60.7003C21.2472 61.3277 22.0468 61.7548 22.9172 61.9275C23.7876 62.1002 24.6896 62.0107 25.5091 61.6704C26.3286 61.33 27.0286 60.7541 27.5205 60.0156ZM48.365 3.53638C47.6001 2.77149 46.5639 2.33981 45.4822 2.33534C44.6602 2.32527 43.8538 2.56049 43.1661 3.01092C42.4784 3.46135 41.9406 4.10655 41.6213 4.86412C41.3021 5.62169 41.2159 6.45724 41.3738 7.26402C41.5317 8.0708 41.9266 8.81217 42.5079 9.39348C43.0892 9.97478 43.8306 10.3696 44.6374 10.5275C45.4441 10.6854 46.2796 10.5993 47.0372 10.28C47.7948 9.96077 48.44 9.42296 48.8905 8.73525C49.3409 8.04755 49.5761 7.24117 49.566 6.41915C49.5615 5.33743 49.1299 4.30128 48.365 3.53638ZM59.3033 27.3543C58.8326 27.1593 58.3281 27.0589 57.8185 27.0589C57.0368 27.0489 56.2699 27.2721 55.6157 27.7001C54.9615 28.1282 54.4497 28.7415 54.1459 29.4619C53.8421 30.1822 53.7599 30.9768 53.91 31.744C54.06 32.5113 54.4355 33.2164 54.9883 33.7692C55.5411 34.322 56.2462 34.6974 57.0134 34.8475C57.7807 34.9975 58.5752 34.9154 59.2956 34.6116C60.0159 34.3078 60.6293 33.796 61.0574 33.1418C61.4854 32.4877 61.7087 31.7207 61.6986 30.939C61.6986 30.4294 61.5982 29.9249 61.4032 29.4542C61.2082 28.9834 60.9224 28.5556 60.5621 28.1953C60.2018 27.835 59.7741 27.5493 59.3033 27.3543ZM3.03083 4.66746C2.46545 5.56068 2.17883 6.60201 2.20746 7.65874V7.67568C2.21046 8.37004 2.35282 9.05675 2.62612 9.69507C2.89941 10.3334 3.29805 10.9103 3.79845 11.3917C4.29884 11.8731 4.89083 12.2492 5.53925 12.4976C6.18766 12.746 6.87934 12.8616 7.5733 12.8378C8.63037 12.8289 9.6609 12.5056 10.5335 11.9089C11.4062 11.3123 12.0814 10.4693 12.4732 9.48748C12.865 8.50565 12.9556 7.42944 12.7334 6.39593C12.5113 5.36242 11.9864 4.41841 11.2258 3.68428C10.4652 2.95014 9.50326 2.45908 8.46253 2.27368C7.42181 2.08827 6.34942 2.21695 5.38208 2.64326C4.41473 3.06957 3.59621 3.77425 3.03083 4.66746ZM3.28662 39.0107C3.76133 39.3279 4.31942 39.4971 4.89035 39.4971V39.5141C5.27087 39.5141 5.64766 39.4389 5.999 39.2928C6.35034 39.1466 6.66929 38.9325 6.93757 38.6626C7.20584 38.3928 7.41814 38.0725 7.56221 37.7203C7.70627 37.3681 7.77929 36.991 7.77706 36.6104C7.77706 36.0395 7.60776 35.4814 7.29057 35.0067C6.97337 34.532 6.52253 34.162 5.99506 33.9435C5.46759 33.725 4.88718 33.6679 4.32722 33.7792C3.76726 33.8906 3.25286 34.1655 2.84915 34.5692C2.44544 34.9729 2.17053 35.4873 2.05915 36.0473C1.94777 36.6072 2.00493 37.1877 2.22342 37.7151C2.44191 38.2426 2.8119 38.6935 3.28662 39.0107ZM20.5638 23.0366C20.651 22.8991 20.7701 22.7847 20.9111 22.7032C20.9523 22.6582 22.688 21.8547 24.6118 20.9642C27.0393 19.8405 29.7664 18.5781 29.7664 18.526C30.0196 18.4236 30.3028 18.4236 30.556 18.526C30.6048 18.5708 32.6389 19.5078 34.7562 20.4832C37.0589 21.544 39.4601 22.6502 39.5132 22.7032C39.6648 22.7714 39.7931 22.8825 39.8822 23.0229C39.9712 23.1632 40.0171 23.3266 40.0141 23.4928V38.3253C40.0321 38.5207 39.9819 38.7162 39.872 38.8787C39.7621 39.0413 39.5993 39.1607 39.4113 39.2168C38.2596 39.6907 35.7586 40.6329 33.7042 41.4069C32.0784 42.0194 30.7323 42.5266 30.556 42.6129C30.4466 42.6621 30.3279 42.6875 30.2079 42.6875C30.0879 42.6875 29.9693 42.6621 29.8598 42.6129C29.6203 42.4736 26.6543 41.3549 24.1367 40.4053C22.8171 39.9075 21.6206 39.4562 21.0045 39.2168C20.8318 39.1388 20.6845 39.0139 20.5794 38.8563C20.4743 38.6987 20.4157 38.5147 20.4102 38.3253V23.4928C20.4239 23.3306 20.4765 23.1741 20.5638 23.0366ZM25.2805 26.3916C23.7881 25.7072 22.4403 25.089 22.3968 25.089V37.663L29.2655 40.2101V28.1861C29.0235 28.1083 27.0503 27.2034 25.2805 26.3916ZM31.2522 40.1762L38.1208 37.6291V25.089C38.408 24.9089 36.1414 25.9485 34.1358 26.8683C32.6434 27.5528 31.2956 28.1709 31.2522 28.1709V40.1762ZM36.7284 23.6287L30.2588 20.6486L23.7991 23.6281C23.8984 23.6731 24.392 23.9039 25.0659 24.219C26.9361 25.0936 30.1942 26.6172 30.2588 26.6172C30.1392 26.6758 30.6634 26.4307 31.4589 26.0588C33.3174 25.1899 36.657 23.6287 36.7284 23.6287Z" fill="url(#paint0_linear_1_931)"/>
<defs>
<linearGradient id="paint0_linear_1_931" x1="9.83184" y1="7.99554" x2="53.8014" y2="51.2498" gradientUnits="userSpaceOnUse">
<stop stop-color="#FE5B52"/>
<stop offset="1" stop-color="#3E96F4"/>
</linearGradient>
</defs>
</svg>
