<svg width="100" height="30" viewBox="0 0 100 30" fill="none" xmlns="http://www.w3.org/2000/svg">
<path d="M37.7034 12.3564C37.7034 9.28937 36.8289 7.7148 35.0798 7.62857C34.3839 7.59573 33.7044 7.70658 33.0433 7.9632C32.5158 8.15206 32.1606 8.33888 31.9738 8.52774V15.8484C33.0926 16.5505 34.0862 16.8769 34.9525 16.8256C36.7858 16.7044 37.7034 15.2161 37.7034 12.3564ZM39.861 12.4837C39.861 14.0418 39.4956 15.3352 38.7607 16.3637C37.9416 17.5277 36.8063 18.1271 35.3549 18.1599C34.2607 18.1948 33.1337 17.852 31.9738 17.1335V23.7869L30.0974 23.1177V8.34914C30.4054 7.97141 30.8016 7.64705 31.282 7.37196C32.3987 6.72119 33.7557 6.38657 35.3529 6.37015L35.3795 6.39684C36.8392 6.37836 37.9641 6.97781 38.7545 8.19312C39.4915 9.30785 39.861 10.7367 39.861 12.4837Z" fill="#646464"/>
<path d="M51.3319 16.8502C51.3319 18.94 51.1225 20.3873 50.7037 21.1921C50.2829 21.9968 49.4822 22.6394 48.2998 23.1177C47.3411 23.4954 46.3043 23.7007 45.1917 23.7356L44.8817 22.5532C46.0128 22.3992 46.8094 22.2452 47.2713 22.0912C48.1807 21.7833 48.8048 21.3111 49.1476 20.6789C49.4227 20.1636 49.5582 19.1802 49.5582 17.7247V17.2361C48.2751 17.8192 46.9305 18.1086 45.5242 18.1086C44.6004 18.1086 43.7854 17.8192 43.0834 17.2361C42.295 16.6018 41.9009 15.7971 41.9009 14.8219V7.01271L43.7772 6.37015V14.2307C43.7772 15.0703 44.0482 15.717 44.5902 16.1707C45.1321 16.6244 45.8342 16.842 46.6944 16.8256C47.5546 16.8071 48.4763 16.4745 49.4555 15.8237V6.65345H51.3319V16.8502Z" fill="#646464"/>
<path d="M58.6539 18.0575C58.4302 18.076 58.2249 18.0842 58.036 18.0842C56.9747 18.0842 56.1473 17.8317 55.5561 17.3246C54.9669 16.8175 54.6713 16.1175 54.6713 15.2245V7.83404H53.3862V6.65362H54.6713V3.51885L56.5456 2.85165V6.65362H58.6539V7.83404H56.5456V15.1732C56.5456 15.8773 56.7345 16.3762 57.1122 16.6677C57.4366 16.9079 57.9518 17.0454 58.6539 17.0803V18.0575Z" fill="#646464"/>
<path d="M70.0166 17.9033H68.1402V10.6607C68.1402 9.92371 67.9678 9.28937 67.6249 8.75972C67.2287 8.16027 66.6785 7.86055 65.9723 7.86055C65.1122 7.86055 64.0365 8.31424 62.7452 9.22162V17.9033H60.8688V0.591234L62.7452 0V7.88518C63.9441 7.0127 65.2538 6.57543 66.6765 6.57543C67.6701 6.57543 68.4748 6.91006 69.0907 7.57725C69.7086 8.24444 70.0166 9.07586 70.0166 10.0695V17.9033Z" fill="#646464"/>
<path d="M79.9886 12.0608C79.9886 10.8824 79.7649 9.90935 79.3194 9.13951C78.7897 8.20133 77.9665 7.70658 76.8539 7.65526C74.7968 7.77433 73.7704 9.24831 73.7704 12.0731C73.7704 13.3685 73.9839 14.4504 74.415 15.3187C74.9652 16.4252 75.7905 16.9713 76.8908 16.9528C78.956 16.9364 79.9886 15.3064 79.9886 12.0608ZM82.0436 12.0731C82.0436 13.7503 81.6145 15.1463 80.7585 16.261C79.8162 17.5092 78.5146 18.1353 76.8539 18.1353C75.2074 18.1353 73.9244 17.5092 72.9985 16.261C72.1589 15.1463 71.7401 13.7503 71.7401 12.0731C71.7401 10.4965 72.1938 9.1703 73.1012 8.09048C74.0599 6.94496 75.3203 6.37015 76.8785 6.37015C78.4366 6.37015 79.7053 6.94496 80.6825 8.09048C81.5899 9.1703 82.0436 10.4965 82.0436 12.0731Z" fill="#646464"/>
<path d="M92.8011 17.9033H90.9247V10.2501C90.9247 9.41049 90.6722 8.75562 90.1672 8.28345C89.6622 7.81334 88.9888 7.58546 88.1492 7.60394C87.2582 7.62036 86.4104 7.91187 85.6057 8.47642V17.9033H83.7293V8.24444C84.8091 7.45819 85.8027 6.94496 86.7101 6.70477C87.5662 6.481 88.3216 6.37015 88.9724 6.37015C89.4179 6.37015 89.8367 6.41326 90.2308 6.49948C90.9678 6.66987 91.5673 6.98602 92.0292 7.44997C92.5445 7.9632 92.8011 8.57907 92.8011 9.29963V17.9033Z" fill="#646464"/>
<path d="M11.5668 0.66035C10.6014 0.664836 9.67949 0.74717 8.86828 0.890712C6.47858 1.31289 6.0447 2.19656 6.0447 3.82618V5.97842H11.6919V6.69583H6.0447H3.92537C2.28415 6.69583 0.847053 7.6823 0.397546 9.5589C-0.120954 11.7099 -0.143952 13.0522 0.397546 15.2982C0.798966 16.97 1.75761 18.1613 3.39883 18.1613H5.34046V15.5812C5.34046 13.7173 6.95318 12.0731 8.86828 12.0731H14.5089C16.079 12.0731 17.3324 10.7803 17.3324 9.20349V3.82618C17.3324 2.29577 16.0414 1.14613 14.5089 0.890712C13.5388 0.729227 12.5322 0.655864 11.5668 0.66035ZM8.51287 2.39136C9.09618 2.39136 9.57253 2.87549 9.57253 3.47076C9.57253 4.06393 9.09618 4.54359 8.51287 4.54359C7.92746 4.54359 7.4532 4.06393 7.4532 3.47076C7.4532 2.87549 7.92746 2.39136 8.51287 2.39136Z" fill="url(#paint0_linear_1_285)"/>
<path d="M18.0354 6.69611V9.20376C18.0354 11.1479 16.3871 12.7842 14.5076 12.7842H8.86697C7.32193 12.7842 6.0434 14.1066 6.0434 15.6539V21.0312C6.0434 22.5616 7.3742 23.4618 8.86697 23.9008C10.6545 24.4265 12.3687 24.5215 14.5076 23.9008C15.9292 23.4892 17.3311 22.6608 17.3311 21.0312V18.879H11.6906V18.1615H17.3311H20.1547C21.7959 18.1615 22.4075 17.0168 22.9783 15.2985C23.5679 13.5295 23.5428 11.8284 22.9783 9.55918C22.5727 7.92533 21.798 6.69611 20.1547 6.69611H18.0354ZM14.863 20.3138C15.4484 20.3138 15.9226 20.7934 15.9226 21.3866C15.9226 21.9819 15.4484 22.466 14.863 22.466C14.2797 22.466 13.8033 21.9819 13.8033 21.3866C13.8033 20.7934 14.2797 20.3138 14.863 20.3138Z" fill="url(#paint1_linear_1_285)"/>
<path d="M96.4537 4.98054H96.7827V2.91728H97.562V2.67136H95.6744V2.91728H96.4537V4.98054ZM97.8537 4.98054H98.1348V3.09614L98.7448 4.9803H99.0577L99.6934 3.10253V4.98054H100V2.67136H99.5944L98.8997 4.64965L98.3072 2.67136H97.8537V4.98054Z" fill="#646464"/>
<path opacity="0.44382" d="M19.3207 27.5559C19.3207 27.7486 19.1249 27.9394 18.7446 28.1174C18.3643 28.2955 17.8069 28.4572 17.1042 28.5935C16.4014 28.7298 15.5672 28.8379 14.649 28.9116C13.7309 28.9853 12.7468 29.0233 11.753 29.0233C10.7592 29.0233 9.77516 28.9853 8.85701 28.9116C7.93886 28.8379 7.1046 28.7298 6.40188 28.5935C5.69916 28.4572 5.14173 28.2955 4.76142 28.1174C4.38111 27.9394 4.18536 27.7486 4.18536 27.5559C4.18536 27.3632 4.38111 27.1723 4.76142 26.9943C5.14173 26.8163 5.69916 26.6545 6.40188 26.5182C7.1046 26.382 7.93886 26.2739 8.85701 26.2001C9.77516 26.1264 10.7592 26.0884 11.753 26.0884C12.7468 26.0884 13.7309 26.1264 14.649 26.2001C15.5672 26.2739 16.4014 26.382 17.1042 26.5182C17.8069 26.6545 18.3643 26.8163 18.7446 26.9943C19.1249 27.1723 19.3207 27.3632 19.3207 27.5559Z" fill="url(#paint2_radial_1_285)"/>
<defs>
<linearGradient id="paint0_linear_1_285" x1="1.84315e-08" y1="0.660156" x2="13.0217" y2="11.7565" gradientUnits="userSpaceOnUse">
<stop stop-color="#5A9FD4"/>
<stop offset="1" stop-color="#306998"/>
</linearGradient>
<linearGradient id="paint1_linear_1_285" x1="14.7273" y1="21.2057" x2="10.0556" y2="14.6592" gradientUnits="userSpaceOnUse">
<stop stop-color="#FFD43B"/>
<stop offset="1" stop-color="#FFE873"/>
</linearGradient>
<radialGradient id="paint2_radial_1_285" cx="0" cy="0" r="1" gradientUnits="userSpaceOnUse" gradientTransform="translate(11.753 27.5559) rotate(-90) scale(1.46743 6.44999)">
<stop stop-color="#B8B8B8" stop-opacity="0.498039"/>
<stop offset="1" stop-color="#7F7F7F" stop-opacity="0"/>
</radialGradient>
</defs>
</svg>
