<svg width="64" height="64" viewBox="0 0 64 64" fill="none" xmlns="http://www.w3.org/2000/svg">
<rect width="64" height="64" rx="8" fill="#3E96F4"/>
<path d="M27 31H24C21.794 31 20 29.206 20 27V24C20 21.794 21.794 20 24 20H27C29.206 20 31 21.794 31 24V27C31 29.206 29.206 31 27 31ZM24 23C23.449 23 23 23.449 23 24V27C23 27.551 23.449 28 24 28H27C27.551 28 28 27.551 28 27V24C28 23.449 27.551 23 27 23H24ZM40 31H37C34.794 31 33 29.206 33 27V24C33 21.794 34.794 20 37 20H40C42.206 20 44 21.794 44 24V27C44 29.206 42.206 31 40 31ZM37 23C36.448 23 36 23.449 36 24V27C36 27.551 36.448 28 37 28H40C40.552 28 41 27.551 41 27V24C41 23.449 40.552 23 40 23H37ZM27 44H24C21.794 44 20 42.206 20 40V37C20 34.794 21.794 33 24 33H27C29.206 33 31 34.794 31 37V40C31 42.206 29.206 44 27 44ZM24 36C23.449 36 23 36.449 23 37V40C23 40.551 23.449 41 24 41H27C27.551 41 28 40.551 28 40V37C28 36.449 27.551 36 27 36H24ZM37 35.5V34.5C37 34.1022 36.842 33.7206 36.5607 33.4393C36.2794 33.158 35.8978 33 35.5 33H34.5C34.1022 33 33.7206 33.158 33.4393 33.4393C33.158 33.7206 33 34.1022 33 34.5V35.5C33 35.8978 33.158 36.2794 33.4393 36.5607C33.7206 36.842 34.1022 37 34.5 37H35.5C35.8978 37 36.2794 36.842 36.5607 36.5607C36.842 36.2794 37 35.8978 37 35.5ZM40 38.5C39.9999 38.303 39.9611 38.1078 39.8856 37.9258C39.8101 37.7438 39.6995 37.5784 39.5602 37.4391C39.4208 37.2998 39.2553 37.1894 39.0733 37.114C38.8912 37.0387 38.696 36.9999 38.499 37C38.302 37.0001 38.1068 37.0389 37.9248 37.1144C37.7428 37.1899 37.5774 37.3005 37.4381 37.4398C37.2988 37.5792 37.1884 37.7447 37.113 37.9267C37.0377 38.1088 36.9989 38.304 36.999 38.501C36.9991 38.899 37.1573 39.2806 37.4388 39.5619C37.7203 39.8432 38.102 40.0011 38.5 40.001C38.898 40.0009 39.2796 39.8427 39.5609 39.5612C39.8422 39.2797 40.0001 38.898 40 38.5ZM37 42.5V41.5C37 41.1022 36.842 40.7206 36.5607 40.4393C36.2794 40.158 35.8978 40 35.5 40H34.5C34.1022 40 33.7206 40.158 33.4393 40.4393C33.158 40.7206 33 41.1022 33 41.5V42.5C33 42.8978 33.158 43.2794 33.4393 43.5607C33.7206 43.842 34.1022 44 34.5 44H35.5C35.8978 44 36.2794 43.842 36.5607 43.5607C36.842 43.2794 37 42.8978 37 42.5ZM44 35.5V34.5C44 34.1022 43.842 33.7206 43.5607 33.4393C43.2794 33.158 42.8978 33 42.5 33H41.5C41.1022 33 40.7206 33.158 40.4393 33.4393C40.158 33.7206 40 34.1022 40 34.5V35.5C40 35.8978 40.158 36.2794 40.4393 36.5607C40.7206 36.842 41.1022 37 41.5 37H42.5C42.8978 37 43.2794 36.842 43.5607 36.5607C43.842 36.2794 44 35.8978 44 35.5Z" fill="white"/>
</svg>
