<svg width="59" height="64" viewBox="0 0 59 64" fill="none" xmlns="http://www.w3.org/2000/svg">
<path fill-rule="evenodd" clip-rule="evenodd" d="M58.0917 6.53791C57.9158 6.71373 57.6774 6.8125 57.4287 6.8125C57.1801 6.8125 56.9417 6.71373 56.7658 6.53791C56.59 6.3621 56.4912 6.12364 56.4912 5.875V1.875H28.5879V11.4439C28.5941 11.4501 28.6007 11.4559 28.607 11.4621C30.7664 13.6215 31.9555 16.4922 31.9555 19.546C31.9555 22.5996 30.7663 25.4706 28.607 27.6299C28.6039 27.633 28.6007 27.636 28.5974 27.639C28.5942 27.642 28.591 27.645 28.5879 27.6481V35.4658H47.4655C47.6085 35.4657 47.7497 35.4984 47.8781 35.5614C48.0066 35.6243 48.1189 35.7158 48.2065 35.8289L52.7777 41.7261H56.4914V10.25C56.4914 9.73213 56.9111 9.3125 57.4289 9.3125C57.9466 9.3125 58.3664 9.73213 58.3664 10.25V42.2885C58.3664 43.0123 57.7776 43.601 57.0539 43.601H54.2311L54.8139 44.3529C55.1493 44.7856 55.208 45.3599 54.967 45.8516C54.726 46.3434 54.2361 46.6488 53.6886 46.6488H48.403V54C48.403 54.5179 47.9832 54.9375 47.4655 54.9375C46.9478 54.9375 46.528 54.5179 46.528 54V46.6488H43.1473C42.9301 46.6481 42.7159 46.598 42.5209 46.5024C42.3259 46.4068 42.1552 46.2681 42.0218 46.0967L36.6314 39.1429V62.125H46.528V58.375C46.528 57.8571 46.9478 57.4375 47.4655 57.4375C47.9832 57.4375 48.403 57.8571 48.403 58.375V62.5765C48.403 63.3616 47.7642 64.0003 46.9792 64.0003H14.3184C13.5332 64.0003 12.8946 63.3615 12.8946 62.5765V46.649H7.743C7.47767 46.65 7.21741 46.5763 6.99193 46.4365C6.76644 46.2967 6.58481 46.0962 6.46775 45.8581C6.34893 45.6209 6.29919 45.3551 6.32421 45.091C6.34923 44.8268 6.448 44.5751 6.60925 44.3644L13.0855 35.8364C13.173 35.7212 13.2858 35.6279 13.4154 35.5636C13.5449 35.4993 13.6875 35.4659 13.8321 35.4659H26.713V29.159C24.884 30.3418 22.7531 30.9784 20.5234 30.9784C18.3211 30.9784 16.2156 30.3569 14.4019 29.2021L12.9191 30.6849C13.0295 30.8986 13.0888 31.1368 13.0888 31.3843C13.0893 31.5849 13.0501 31.7837 12.9732 31.9692C12.8964 32.1546 12.7836 32.3229 12.6413 32.4644L6.07925 39.0264C5.40662 39.699 4.51237 40.0695 3.56112 40.0695C2.61 40.0695 1.71563 39.699 1.043 39.0264C0.370375 38.3537 0 37.4594 0 36.5081C0 35.5569 0.3705 34.6626 1.043 33.99L7.605 27.4279C8.08587 26.9473 8.80975 26.8551 9.38437 27.1505L10.8673 25.6676C9.7125 23.8539 9.091 21.7483 9.091 19.5461C9.091 16.4924 10.2803 13.6215 12.4395 11.4622C14.5988 9.303 17.4696 8.11388 20.5232 8.11388C22.753 8.11388 24.8839 8.7505 26.7129 9.93325V1.3125C26.7129 0.58875 27.3016 0 28.0254 0H57.0537C57.7775 0 58.3662 0.58875 58.3662 1.3125V5.875C58.3662 6.12364 58.2675 6.3621 58.0917 6.53791ZM52.7677 44.7739L47.006 37.3408H37.6068L43.3685 44.7739H52.7677ZM14.7696 62.125H34.7562V39.1878L29.5175 46.0861C29.25 46.4384 28.8261 46.6488 28.3837 46.6488H14.7696V62.125ZM28.1597 44.7739L33.8046 37.3408H14.2974L8.65262 44.7739H28.1597ZM3.56112 38.1944C4.0115 38.1944 4.435 38.019 4.7535 37.7005L11.0696 31.3843L8.685 28.9996L2.36875 35.3159C2.05025 35.6344 1.87488 36.0578 1.87488 36.5081C1.87488 36.9585 2.05025 37.382 2.36875 37.7004C2.68725 38.019 3.11075 38.1944 3.56112 38.1944ZM10.762 28.4246L11.6448 29.3074L12.8935 28.0586C12.7384 27.9198 12.587 27.7768 12.4395 27.6299C12.2925 27.4824 12.1496 27.331 12.0107 27.1759L10.762 28.4246ZM27.2812 26.3039C29.0864 24.4989 30.0805 22.0987 30.0805 19.546C30.0805 16.9931 29.0864 14.5931 27.2812 12.7881C25.4761 10.9829 23.0761 9.98875 20.5232 9.98875C17.9704 9.98875 15.5704 10.983 13.7652 12.7881C11.9601 14.5931 10.966 16.9931 10.966 19.546C10.966 22.0986 11.9601 24.4989 13.7652 26.3039C15.5704 28.1091 17.9704 29.1033 20.5232 29.1033C23.0761 29.1033 25.4761 28.109 27.2812 26.3039ZM37.0559 13.6405C37.1739 13.6759 37.2836 13.7342 37.379 13.8121C37.5716 13.9693 37.6939 14.1966 37.7189 14.444C37.7439 14.6913 37.6697 14.9385 37.5125 15.1311L35.5073 17.5877C35.4244 17.6892 35.3211 17.7722 35.2042 17.8313C35.0872 17.8905 34.9592 17.9245 34.8283 17.9311C34.6974 17.9377 34.5666 17.9168 34.4443 17.8698C34.322 17.8227 34.2109 17.7506 34.1181 17.658L32.6071 16.147C32.4362 15.9702 32.3416 15.7333 32.3436 15.4874C32.3457 15.2414 32.4443 15.0062 32.6182 14.8323C32.7921 14.6584 33.0273 14.5597 33.2733 14.5577C33.5192 14.5556 33.7561 14.6502 33.9329 14.8211L34.7105 15.5989L36.0599 13.9456C36.1377 13.8502 36.2336 13.7711 36.342 13.7128C36.4505 13.6544 36.5693 13.618 36.6918 13.6056C36.8143 13.5932 36.938 13.6051 37.0559 13.6405ZM40.2075 15.0521H51.8111C52.3289 15.0521 52.7486 15.4717 52.7486 15.9896C52.7486 16.5075 52.3289 16.9271 51.8111 16.9271H40.2075C39.6898 16.9271 39.27 16.5075 39.27 15.9896C39.27 15.4717 39.6898 15.0521 40.2075 15.0521ZM36.6918 18.9973C36.9392 18.9723 37.1864 19.0465 37.379 19.2037C37.5716 19.3609 37.6939 19.5882 37.7189 19.8356C37.7439 20.0829 37.6697 20.3301 37.5125 20.5227L35.5073 22.9794C35.4244 23.0808 35.3211 23.1638 35.2042 23.223C35.0872 23.2821 34.9592 23.3161 34.8283 23.3227C34.6974 23.3293 34.5666 23.3084 34.4443 23.2614C34.322 23.2144 34.2109 23.1422 34.1181 23.0496L32.6071 21.5386C32.4362 21.3618 32.3416 21.1249 32.3436 20.879C32.3457 20.6331 32.4443 20.3978 32.6182 20.2239C32.7921 20.05 33.0273 19.9514 33.2733 19.9493C33.5192 19.9472 33.7561 20.0418 33.9329 20.2127L34.7105 20.9905L36.0599 19.3372C36.2171 19.1446 36.4444 19.0224 36.6918 18.9973ZM40.2075 20.4437H51.8111C52.3289 20.4437 52.7486 20.8633 52.7486 21.3812C52.7486 21.8991 52.3289 22.3187 51.8111 22.3187H40.2075C39.6898 22.3187 39.27 21.8991 39.27 21.3812C39.27 20.8633 39.6898 20.4437 40.2075 20.4437ZM37.0559 24.4238C37.1739 24.4592 37.2836 24.5175 37.379 24.5954C37.5716 24.7526 37.6939 24.9798 37.7189 25.2272C37.7439 25.4746 37.6697 25.7217 37.5125 25.9144L35.5073 28.371C35.4244 28.4725 35.3211 28.5555 35.2042 28.6146C35.0872 28.6737 34.9592 28.7077 34.8283 28.7143C34.6974 28.7209 34.5666 28.7001 34.4443 28.653C34.322 28.606 34.2109 28.5338 34.1181 28.4412L32.6071 26.9302C32.4362 26.7534 32.3416 26.5165 32.3436 26.2706C32.3457 26.0247 32.4443 25.7894 32.6182 25.6155C32.7921 25.4416 33.0273 25.343 33.2733 25.3409C33.5192 25.3388 33.7561 25.4334 33.9329 25.6044L34.7105 26.3821L36.0599 24.7289C36.1377 24.6335 36.2336 24.5544 36.342 24.496C36.4505 24.4377 36.5693 24.4013 36.6918 24.3889C36.8143 24.3765 36.938 24.3883 37.0559 24.4238ZM40.2075 25.8354H51.8111C52.3289 25.8354 52.7486 26.255 52.7486 26.7729C52.7486 27.2907 52.3289 27.7104 51.8111 27.7104H40.2075C39.6898 27.7104 39.27 27.2907 39.27 26.7729C39.27 26.255 39.6898 25.8354 40.2075 25.8354ZM36.6918 29.7806C36.9392 29.7555 37.1864 29.8298 37.379 29.987C37.5716 30.1442 37.6939 30.3715 37.7189 30.6188C37.7439 30.8662 37.6697 31.1134 37.5125 31.306L35.5073 33.7626C35.4244 33.8641 35.3211 33.9471 35.2042 34.0062C35.0872 34.0654 34.9592 34.0993 34.8283 34.106C34.6974 34.1126 34.5666 34.0917 34.4443 34.0446C34.322 33.9976 34.2109 33.9255 34.1181 33.8328L32.6071 32.3219C32.4362 32.145 32.3416 31.9082 32.3436 31.6622C32.3457 31.4163 32.4443 31.1811 32.6182 31.0072C32.7921 30.8332 33.0273 30.7346 33.2733 30.7325C33.5192 30.7304 33.7561 30.8251 33.9329 30.996L34.7105 31.7737L36.0599 30.1205C36.2171 29.9279 36.4444 29.8056 36.6918 29.7806ZM40.2075 31.2269H51.8111C52.3289 31.2269 52.7486 31.6465 52.7486 32.1644C52.7486 32.6822 52.3289 33.1019 51.8111 33.1019H40.2075C39.6898 33.1019 39.27 32.6822 39.27 32.1644C39.27 31.6465 39.6898 31.2269 40.2075 31.2269ZM53.4406 6.46973V9.82673C53.4406 10.5505 52.8519 11.1392 52.1281 11.1392H32.9528C32.229 11.1392 31.6403 10.5505 31.6403 9.82673V6.46973C31.6403 5.74598 32.229 5.15723 32.9528 5.15723H52.1281C52.8519 5.15723 53.4406 5.74598 53.4406 6.46973ZM33.5153 9.26423H51.5656V7.03223H33.5153V9.26423ZM15.0023 25.068C11.9576 22.0231 11.9575 17.069 15.0023 14.0242C18.047 10.9794 23.0013 10.9795 26.0456 14.0241C27.0459 15.0236 27.7556 16.2762 28.0989 17.6479C28.1287 17.7673 28.1348 17.8915 28.1166 18.0132C28.0985 18.135 28.0565 18.252 27.9932 18.3576C27.9298 18.4631 27.8463 18.5552 27.7473 18.6285C27.6484 18.7017 27.536 18.7548 27.4165 18.7846C26.9144 18.9095 26.4053 18.6046 26.2799 18.1022C26.019 17.0603 25.4798 16.1089 24.7199 15.3499C22.4063 13.0364 18.6415 13.0362 16.3279 15.35C14.0143 17.6637 14.0143 21.4284 16.3279 23.742C18.6418 26.0557 22.4064 26.0557 24.72 23.742C25.255 23.2081 25.6824 22.5765 25.9791 21.8814C26.0275 21.7681 26.0978 21.6656 26.1858 21.5795C26.2738 21.4934 26.378 21.4256 26.4923 21.3798C26.6065 21.334 26.7287 21.3111 26.8518 21.3126C26.975 21.314 27.0966 21.3397 27.2098 21.3881C27.323 21.4365 27.4255 21.5067 27.5116 21.5948C27.5976 21.6828 27.6655 21.787 27.7113 21.9012C27.7571 22.0155 27.78 22.1377 27.7786 22.2608C27.7772 22.3839 27.7516 22.5055 27.7031 22.6187C27.3127 23.5337 26.7501 24.3652 26.0459 25.068C24.5238 26.5901 22.5236 27.3514 20.5241 27.3515C18.5241 27.3517 16.5249 26.5905 15.0023 25.068Z" fill="url(#paint0_linear_1_999)"/>
<defs>
<linearGradient id="paint0_linear_1_999" x1="9.035" y1="7.99558" x2="52.7876" y2="47.5479" gradientUnits="userSpaceOnUse">
<stop stop-color="#FE5B52"/>
<stop offset="1" stop-color="#3E96F4"/>
</linearGradient>
</defs>
</svg>
