<svg width="33" height="34" viewBox="0 0 33 34" fill="none" xmlns="http://www.w3.org/2000/svg">
<circle cx="17" cy="16" r="15.5" fill="#007BFF" stroke="black"/>
<path d="M15.0334 10.7311L15.8881 9.20447C15.9616 9.07321 16.0733 8.96732 16.2085 8.90067L20.1651 6.95054C21.1562 6.46205 21.5578 5.2632 21.0622 4.27274C20.5666 3.28232 19.3614 2.87541 18.3704 3.36391L13.9504 5.54249C13.3946 5.81644 12.9356 6.25165 12.6335 6.79119L7.58375 15.8103L12.8328 15.3722L15.0334 10.7311Z" fill="#FFEFE7"/>
<path d="M17.2722 18.4297L20.9269 14.1754L15.4073 15.1354L15.4005 15.154C15.8339 15.3176 16.196 15.6575 16.372 16.1107L17.2722 18.4297ZM23.5976 12.3367L23.6489 12.3431C24.1976 12.2808 24.757 12.3565 25.2751 12.563C26.2031 12.9315 26.5673 14.0428 26.0235 14.8453L23.0243 19.2721C22.8931 19.4666 22.8178 19.6925 22.8063 19.9281L22.716 21.81C22.6565 23.0456 22.3224 24.2464 21.7374 25.3281C21.1523 26.4098 20.3304 27.3461 19.3293 28.0714L14.3603 31.671L13.5021 31.0001C13.3209 31.3237 11.8351 30.6877 11.5021 30.5001L7.50211 28.5001C7.17033 28.3132 5.8216 26.8225 6.0021 26.5001L4.50211 25.5001L3.38016 23.208C3.13899 21.8567 3.3121 20.4755 3.87724 19.2421L6.09684 14.3956C6.33115 13.8841 6.68786 13.4383 7.13718 13.0955C7.58651 12.7528 8.11541 12.5229 8.67973 12.4252L21.2945 10.2385C21.7384 10.1605 22.2 10.2402 22.5977 10.4636C23.0814 10.7344 23.4504 11.2034 23.5679 11.7793C23.6064 11.9681 23.6153 12.1557 23.5976 12.3367Z" fill="#FFEFE7"/>
<path d="M24.441 11.7829C24.0686 11.7042 23.6789 11.7007 23.2913 11.7726L23.2423 11.7692C23.2712 11.5751 23.2733 11.3803 23.2483 11.1912C23.2293 11.0453 23.1944 10.9037 23.1442 10.7694L20.4855 13.8646L20.5538 13.8475L19.2408 15.4604L21.823 14.8165C23.2105 14.47 24.2551 13.2005 24.441 11.7829Z" fill="#FFE0D1"/>
<path d="M11.5436 12.297L14.2248 12.0771L15.0335 10.3739L15.6299 9.30884L13.7879 9.65852C13.3953 9.73305 13.0952 9.31496 13.2907 8.96576L13.9798 7.73502C14.2714 7.21427 14.7129 6.79351 15.2467 6.52763L19.4917 4.41357C19.9497 4.18547 20.4544 4.15736 20.9074 4.2952C20.8862 4.23984 20.8624 4.18548 20.8362 4.1323C20.3648 3.18025 19.2109 2.79274 18.2591 3.26676L14.0141 5.38083C13.4803 5.64668 13.0387 6.06749 12.7472 6.58821L10.0265 11.4475L11.5436 12.297L11.5436 12.297Z" fill="#FFD1C2"/>
<path d="M23.2022 11.5656C23.4082 12.5849 22.7413 13.5581 21.7132 13.7397L15.1583 14.8958L15.1516 14.9142C14.8749 14.809 14.568 14.7783 14.2627 14.8383L11.0609 15.4649L6.84105 13.0435C7.31839 12.6249 7.90504 12.3448 8.53808 12.2335L20.9663 10.0489C21.4036 9.97097 21.858 10.0488 22.2493 10.2686C22.7251 10.535 23.0876 10.9973 23.2022 11.5656Z" fill="#FFEFE7"/>
<path d="M5.77885 26.5125L5.46877 24.4012C5.27356 23.0744 5.47463 21.7074 6.04615 20.476L8.29088 15.6373C8.52784 15.1266 8.87995 14.6776 9.31782 14.3279C9.75568 13.9781 10.2666 13.7376 10.8079 13.6266L22.791 11.1664C22.6547 10.697 22.3443 10.3218 21.946 10.0987C21.5847 9.89645 21.1509 9.81883 20.7077 9.91041L8.60755 12.3947C8.06626 12.5057 7.55535 12.7462 7.11749 13.096C6.67962 13.4458 6.32751 13.8947 6.09055 14.4054L3.84583 19.2441C3.2743 20.4755 3.07323 21.8425 3.26844 23.1694C3.84582 25.0001 5.00015 25.5001 5.77885 26.5125Z" fill="#FFE0D1"/>
<path d="M17.3595 23.4105C18.0359 23.2023 18.5878 22.7662 18.9167 22.1799C19.1176 21.8219 19.2287 21.4191 19.2422 20.9995C19.2556 20.5799 19.1711 20.1536 18.9945 19.7503L17.7174 16.8253L17.008 17.6229L15.9474 15.1932C15.8065 14.8699 15.5672 14.5856 15.2619 14.3789L11.39 21.2942C11.0741 21.8585 10.8995 22.493 10.8784 23.154C10.8572 23.8149 10.99 24.4864 11.2675 25.122C11.556 25.7824 12.0755 26.3474 12.7332 26.716C13.135 26.9414 13.5758 27.0862 14.0249 27.1402C14.474 27.1942 14.9206 27.1561 15.3337 27.0287C16.01 26.8206 16.5617 26.3846 16.8905 25.7986C17.0811 25.4588 17.1908 25.0785 17.2129 24.6816C17.2349 24.2847 17.1688 23.8797 17.0187 23.492C17.1339 23.4707 17.248 23.4448 17.3595 23.4105Z" fill="#FFE0D1"/>
<path d="M18.0132 21.7472C17.7975 22.1324 17.4503 22.4468 17.0072 22.6145C16.5808 22.7766 16.1124 22.7803 15.6867 22.6252L15.6723 22.6308L14.4021 19.1471C14.128 18.3953 13.3466 17.9636 12.5641 18.1324L9.33355 18.8269L11.382 15.1682L14.6126 14.4736C14.9111 14.4088 15.2208 14.4307 15.5055 14.537C15.9319 14.6949 16.2844 15.0325 16.4506 15.4884L17.3006 17.8207L18.1455 20.1381C18.346 20.6868 18.2798 21.271 18.0132 21.7472Z" fill="#FFEFE7"/>
<path d="M16.4708 22.4563C16.4626 22.2583 16.4165 22.06 16.3348 21.8711L15.4604 19.8447L14.5807 17.8052C14.4087 17.4066 14.0719 17.1011 13.6757 16.9466C13.4186 16.8457 13.1361 16.8091 12.8578 16.8525L10.7359 17.1814C10.5708 17.207 10.4166 17.2664 10.2838 17.3557C10.1509 17.445 10.0425 17.562 9.96591 17.6989L9.3162 18.8593L12.2342 18.407C12.9409 18.297 13.6734 18.7023 13.9571 19.3597L15.2716 22.406L15.2845 22.4019C15.6735 22.5512 16.0935 22.5705 16.4708 22.4563Z" fill="#FFE0D1"/>
<path d="M15.5759 26.1026C15.3606 26.4871 15.0141 26.8003 14.5713 26.9674C13.5815 27.3411 12.4845 26.8391 12.1219 25.8474L11.0709 22.9724L10.1295 23.2432L8.9428 19.5272L12.1714 18.8361C12.9534 18.6682 13.7348 19.1 14.0094 19.8509L15.7072 24.4953C15.9077 25.044 15.842 25.6273 15.5759 26.1026Z" fill="#FFEFE7"/>
<path d="M23.1342 19.5612C23.1435 19.4106 23.1929 19.2652 23.2772 19.14L26.2341 14.7484C26.5668 14.2541 26.6571 13.6449 26.4816 13.0769C26.3062 12.509 25.8884 12.059 25.3366 11.8426C24.9118 11.6764 24.4594 11.5917 24.0027 11.5929C23.9967 11.5398 23.9889 11.4869 23.9793 11.4343C23.7445 10.1793 22.5344 9.35365 21.2817 9.59361L16.7457 10.4598L17.0705 9.87972C17.0947 9.83646 17.1308 9.80196 17.1751 9.77985L18.3413 9.19767C18.3945 9.17111 18.442 9.13432 18.4811 9.08941C18.5202 9.0445 18.5501 8.99235 18.5691 8.93593C18.5882 8.87952 18.5959 8.81994 18.592 8.7606C18.5881 8.70126 18.5725 8.64333 18.5462 8.5901C18.5199 8.53686 18.4834 8.48938 18.4388 8.45036C18.3941 8.41134 18.3422 8.38155 18.286 8.3627C18.2298 8.34384 18.1704 8.33629 18.1112 8.34047C18.0519 8.34465 17.9941 8.36048 17.9409 8.38706L16.7747 8.96925C16.5674 9.07246 16.3958 9.23613 16.2828 9.43868L15.5872 10.681L11.9772 11.3704L14.0637 7.64381C14.3011 7.2187 14.6611 6.87519 15.0963 6.6586L19.2034 4.60801C19.5406 4.43967 19.9225 4.41276 20.2787 4.53227C20.635 4.65177 20.9229 4.90327 21.0896 5.24069C21.172 5.40638 21.2207 5.58694 21.233 5.77191C21.2452 5.95688 21.2207 6.1426 21.1609 6.3183C21.1021 6.49432 21.0091 6.65703 20.8873 6.79702C20.7654 6.937 20.6172 7.05148 20.4511 7.13382L19.6975 7.51012C19.5911 7.56433 19.5101 7.65843 19.4723 7.77193C19.4346 7.88542 19.443 8.00911 19.4958 8.11605C19.5486 8.22298 19.6415 8.30449 19.7543 8.34283C19.8671 8.38116 19.9906 8.3732 20.0979 8.32069L20.8515 7.9444C21.4051 7.668 21.819 7.19249 22.017 6.60543C22.2149 6.01838 22.1733 5.38997 21.8998 4.83614C21.6262 4.28234 21.1534 3.86929 20.5684 3.67306C19.9835 3.47689 19.3565 3.52105 18.8029 3.79745L14.6959 5.84805C14.0974 6.14594 13.6024 6.61829 13.276 7.20283L10.8187 11.5917L9.08143 11.9234C7.83277 12.1619 6.76852 12.9952 6.23455 14.1525L4.69225 17.4954C4.66729 17.5495 4.65319 17.6079 4.65074 17.6674C4.6483 17.7268 4.65755 17.7861 4.67799 17.8419C4.69842 17.8976 4.72963 17.9488 4.76984 17.9924C4.81004 18.036 4.85845 18.0712 4.9123 18.096C5.02103 18.146 5.14532 18.1507 5.25783 18.1089C5.37034 18.0671 5.46186 17.9823 5.51225 17.8731L7.05455 14.5302C7.46584 13.6388 8.28554 12.997 9.24724 12.8134L21.4478 10.4835C22.2109 10.3372 22.948 10.8402 23.091 11.6046C23.2339 12.3689 22.7293 13.1098 21.9662 13.2561L15.6126 14.4737C15.3079 14.3886 14.9785 14.3745 14.647 14.4444L11.5031 15.1082C11.3857 15.1329 11.2828 15.2034 11.217 15.3041C11.1512 15.4047 11.1278 15.5273 11.1521 15.6448C11.1764 15.7624 11.2463 15.8653 11.3464 15.9309C11.4466 15.9965 11.5688 16.0194 11.6861 15.9946L14.8301 15.3308C15.3769 15.2152 15.9142 15.512 16.1076 16.0365L17.7727 20.5514C17.8372 20.7249 17.8667 20.9097 17.8595 21.095C17.8522 21.2803 17.8084 21.4625 17.7305 21.631C17.6536 21.7999 17.544 21.952 17.4082 22.0784C17.2724 22.2048 17.113 22.3031 16.9393 22.3675C16.6824 22.463 16.4036 22.4816 16.137 22.4209L14.972 19.262C14.6227 18.3146 13.6518 17.7783 12.6636 17.9869L9.51969 18.6507C9.40233 18.6755 9.29941 18.746 9.23359 18.8466C9.16776 18.9473 9.14441 19.0699 9.16869 19.1874C9.19296 19.305 9.26286 19.4078 9.36301 19.4734C9.46316 19.539 9.58536 19.562 9.70273 19.5372L12.8467 18.8734C13.3935 18.7578 13.9309 19.0545 14.1242 19.579L15.7893 24.094C15.8538 24.2675 15.8833 24.4523 15.8761 24.6376C15.8688 24.8229 15.825 25.0051 15.7471 25.1736C15.6702 25.3425 15.5606 25.4946 15.4248 25.621C15.289 25.7474 15.1296 25.8457 14.9559 25.91C14.7825 25.9754 14.5981 26.0057 14.4133 25.9992C14.2284 25.9926 14.0469 25.9494 13.8791 25.872C13.5371 25.7152 13.2776 25.4348 13.1474 25.0817L12.1168 22.2869C12.0775 22.1803 11.9995 22.0926 11.8984 22.0412C11.7972 21.9898 11.6804 21.9786 11.571 22.0097L10.6547 22.2705C10.5398 22.3037 10.4425 22.3812 10.3842 22.486C10.3258 22.5907 10.3111 22.7142 10.3433 22.8295C10.3756 22.9447 10.4521 23.0422 10.5561 23.1008C10.6601 23.1593 10.7832 23.1741 10.8984 23.1419L11.4133 22.9953L12.2995 25.3987C12.4913 25.9187 12.8542 26.3429 13.3316 26.6103C13.3865 26.641 13.443 26.6697 13.5008 26.6961C14.0616 26.953 14.6895 26.9752 15.2688 26.7586C15.8482 26.542 16.3095 26.1126 16.568 25.5494C16.8264 24.9862 16.851 24.3567 16.6372 23.7768L16.484 23.3616C16.7463 23.3571 17.0061 23.3078 17.2523 23.216C18.4482 22.7689 19.062 21.4313 18.6206 20.2343L17.8824 18.2325L21.1934 14.3256L22.1327 14.1456C22.7397 14.0293 23.266 13.6833 23.6149 13.1711C23.7547 12.9659 23.8609 12.7397 23.9295 12.5011C24.2957 12.4903 24.6628 12.5523 25.0048 12.6864C25.1504 12.743 25.2812 12.8319 25.3874 12.9464C25.4937 13.061 25.5726 13.1982 25.6184 13.3478C25.665 13.4972 25.6772 13.6554 25.6542 13.8105C25.6313 13.9656 25.5737 14.1136 25.4858 14.2435L22.5289 18.6351C22.3541 18.8947 22.2518 19.1963 22.2324 19.5084L22.1179 21.3582C21.9736 23.689 20.8165 25.8257 18.9433 27.2205L17.9275 27.9769C17.8668 28.0221 17.8183 28.0817 17.7864 28.1503C17.7546 28.219 17.7403 28.2944 17.7449 28.3699C17.7496 28.4453 17.773 28.5183 17.8131 28.5822C17.8531 28.6462 17.9085 28.6989 17.9743 28.7358C18.0502 28.7783 18.1369 28.7979 18.2239 28.7922C18.3109 28.7864 18.3945 28.7556 18.4646 28.7034L19.4804 27.947C21.569 26.3919 22.859 24.0095 23.02 21.4108L23.1342 19.5612ZM17.5233 17.2595L16.9554 15.7195C16.8859 15.5307 16.789 15.3533 16.6679 15.193L19.7801 14.5966L17.5233 17.2595ZM17.0024 29.2289C16.9672 29.1812 16.9228 29.1409 16.872 29.1104C16.8212 29.08 16.7648 29.0599 16.7061 29.0513C16.6474 29.0427 16.5876 29.0457 16.53 29.0603C16.4724 29.0749 16.4182 29.1007 16.3705 29.1363L14.0983 30.828C14.047 30.8662 14.0043 30.9149 13.973 30.9708C13.881 31.1386 14.1223 31.7305 14.7133 31.4966L16.9076 29.8627C16.9553 29.8272 16.9956 29.7826 17.0262 29.7315C17.0568 29.6804 17.0771 29.6238 17.0859 29.565C17.0947 29.5061 17.0919 29.4461 17.0775 29.3885C17.0632 29.3308 17.0377 29.2766 17.0024 29.2289ZM25.1145 9.37605C25.3321 9.49786 25.6075 9.41947 25.7299 9.20091L26.6654 7.52998C26.7878 7.31142 26.7107 7.03562 26.4931 6.91381C26.2755 6.792 26.0001 6.87039 25.8777 7.08895L24.9422 8.75988C24.8834 8.86481 24.8686 8.98868 24.9009 9.10423C24.9332 9.21979 25.01 9.31756 25.1145 9.37605ZM26.5755 10.711C26.6066 10.7616 26.6473 10.8055 26.6953 10.8403C26.7433 10.875 26.7978 10.8999 26.8555 10.9136C26.9132 10.9272 26.9731 10.9293 27.0317 10.9197C27.0903 10.9102 27.1465 10.8891 27.1971 10.8578L28.8237 9.8511C28.9241 9.78705 28.9954 9.68606 29.0223 9.56999C29.0492 9.45392 29.0294 9.33208 28.9673 9.23084C28.9052 9.12961 28.8057 9.0571 28.6904 9.02901C28.5751 9.00092 28.4532 9.0195 28.3511 9.08073L26.7245 10.0874C26.6223 10.1506 26.5492 10.2518 26.5213 10.3688C26.4934 10.4857 26.5129 10.6088 26.5755 10.711ZM30.0108 12.4626C30.0058 12.3426 29.9534 12.2297 29.8651 12.1487C29.7769 12.0678 29.6601 12.0254 29.5403 12.0309L27.6336 12.119C27.5144 12.1252 27.4023 12.1785 27.3218 12.2671C27.2413 12.3558 27.1989 12.4726 27.2039 12.5922C27.209 12.7117 27.261 12.8242 27.3486 12.9051C27.4363 12.986 27.5524 13.0287 27.6717 13.0239L29.5784 12.9359C29.6377 12.9332 29.6959 12.9188 29.7498 12.8935C29.8036 12.8682 29.852 12.8326 29.8921 12.7886C29.9323 12.7447 29.9634 12.6933 29.9838 12.6373C30.0042 12.5814 30.0134 12.522 30.0108 12.4626ZM4.34312 22.9626C4.16218 21.8356 4.29158 20.6792 4.7174 19.6181C4.81053 19.3857 4.69844 19.1229 4.46696 19.0297C4.35578 18.9853 4.23138 18.987 4.12113 19.0345C4.01087 19.082 3.92379 19.1714 3.87904 19.2831C3.39179 20.4973 3.24375 21.8205 3.45086 23.1102C3.76181 25.0433 4.34312 25.3987 4.84459 26.0801L4.34312 22.9626Z" fill="black"/>
<path d="M25.3052 9.6025C25.5124 9.71852 25.7832 9.62891 25.9101 9.40228L26.8801 7.6697C27.007 7.44307 26.9419 7.16543 26.7347 7.0494C26.5274 6.93337 26.2567 7.02299 26.1298 7.24961L25.1598 8.9822C25.0988 9.09101 25.0799 9.21748 25.1072 9.33381C25.1345 9.45014 25.2057 9.54679 25.3052 9.6025ZM26.6783 10.9073C26.7066 10.9576 26.7446 11.0008 26.7901 11.0344C26.8356 11.068 26.8876 11.0914 26.9433 11.1032C26.9989 11.1149 27.0571 11.1149 27.1144 11.1031C27.1718 11.0912 27.2272 11.0678 27.2775 11.0341L28.8959 9.95206C28.9958 9.88332 29.0688 9.77808 29.0991 9.65909C29.1294 9.54011 29.1146 9.41694 29.0578 9.31624C29.0011 9.21554 28.9069 9.1454 28.7958 9.12099C28.6847 9.09657 28.5654 9.11985 28.4639 9.18579L26.8456 10.2679C26.7439 10.3358 26.6692 10.4413 26.6378 10.5613C26.6064 10.6812 26.621 10.8056 26.6783 10.9073ZM29.9566 12.5646C29.956 12.4427 29.909 12.3298 29.8261 12.2507C29.7432 12.1716 29.6311 12.1327 29.5144 12.1427L27.6568 12.3008C27.5406 12.3114 27.4296 12.3696 27.3481 12.4626C27.2666 12.5557 27.2212 12.676 27.2218 12.7974C27.2224 12.9187 27.2689 13.0312 27.3513 13.1103C27.4336 13.1894 27.545 13.2287 27.6613 13.2195L29.5189 13.0614C29.5767 13.0565 29.6339 13.0397 29.6871 13.0121C29.7404 12.9845 29.7887 12.9465 29.8293 12.9004C29.87 12.8543 29.9021 12.8009 29.924 12.7432C29.9458 12.6856 29.9569 12.6249 29.9566 12.5646Z" fill="white"/>
<circle cx="17" cy="16" r="15.5" stroke="black"/>
</svg>
