<svg width="56" height="60" viewBox="0 0 56 60" fill="none" xmlns="http://www.w3.org/2000/svg">
<path d="M47.2352 38.3278C47.234 37.2939 46.8228 36.3027 46.0918 35.5717C45.3607 34.8406 44.3695 34.4294 43.3357 34.4283H31.5349C33.1646 30.4785 33.1706 26.0453 31.5515 22.0912C31.5373 22.0565 31.5211 22.0226 31.5028 21.9899C31.17 21.3911 30.6767 20.897 30.0784 20.5633C29.48 20.2296 28.8005 20.0694 28.1161 20.1009C27.4317 20.1323 26.7697 20.3541 26.2045 20.7413C25.6393 21.1285 25.1934 21.6658 24.9169 22.2926C24.8733 22.3916 24.8471 22.4974 24.8394 22.6053L24.5609 26.56C24.1439 28.8327 22.9176 30.8774 21.1089 32.3155C20.3845 32.5698 19.0581 33.4693 15.5981 36.7617V36.6634C15.5976 36.145 15.3914 35.648 15.0248 35.2815C14.6583 34.915 14.1613 34.7088 13.6429 34.7083H3.80098C3.28263 34.7089 2.78567 34.915 2.41915 35.2815C2.05262 35.6481 1.84648 36.145 1.84595 36.6634V56.3039C1.84632 56.8224 2.0524 57.3195 2.41894 57.6861C2.78548 58.0528 3.28253 58.259 3.80098 58.2595H13.6423C14.1607 58.259 14.6577 58.0529 15.0243 57.6864C15.3908 57.3198 15.597 56.8229 15.5975 56.3045V56.2184C18.3038 56.8153 19.7163 57.5248 21.3638 59.0552C22.0115 59.6714 22.8743 60.0104 23.7682 59.9998H39.0231C39.7633 60 40.4883 59.7895 41.1133 59.3928C41.7383 58.9961 42.2374 58.4296 42.5522 57.7596C42.867 57.0896 42.9844 56.3438 42.8909 55.6095C42.7973 54.8752 42.4966 54.1827 42.0239 53.6131C43.2413 52.8808 44.1075 51.5697 44.1075 50.1767C44.1084 49.31 43.8191 48.468 43.2859 47.7849C44.5259 47.0505 45.4156 45.6947 45.4156 44.2525C45.4166 43.4395 45.162 42.6467 44.6878 41.9862C45.4349 41.7091 46.0793 41.21 46.5346 40.5561C46.99 39.9022 47.2344 39.1246 47.2352 38.3278ZM13.7225 56.3043C13.7217 56.3253 13.713 56.3452 13.6981 56.36C13.6833 56.3749 13.6633 56.3836 13.6423 56.3843H3.80098C3.77999 56.3835 3.76007 56.3749 3.74522 56.36C3.73037 56.3452 3.7217 56.3253 3.72094 56.3043V36.6637C3.72172 36.6427 3.73041 36.6228 3.74525 36.608C3.7601 36.5932 3.78 36.5845 3.80098 36.5837H13.6423C13.6633 36.5845 13.6833 36.5931 13.6981 36.608C13.713 36.6228 13.7217 36.6427 13.7225 36.6637V56.3043ZM43.3357 40.3522H40.0773C39.8286 40.3522 39.5902 40.451 39.4144 40.6268C39.2386 40.8026 39.1398 41.041 39.1398 41.2897C39.1398 41.5383 39.2386 41.7768 39.4144 41.9526C39.5902 42.1284 39.8286 42.2272 40.0773 42.2272H41.5161C42.0528 42.2279 42.5673 42.4415 42.9468 42.821C43.3263 43.2005 43.5399 43.715 43.5406 44.2517C43.5406 45.3064 42.4984 46.3793 41.4287 46.4719C41.0348 46.342 40.6227 46.276 40.2079 46.2763C39.9593 46.2763 39.7208 46.3751 39.545 46.5509C39.3692 46.7267 39.2704 46.9652 39.2704 47.2138C39.2704 47.4625 39.3692 47.7009 39.545 47.8767C39.7208 48.0526 39.9593 48.1513 40.2079 48.1513C40.445 48.1511 40.6802 48.1927 40.9029 48.2741C40.9276 48.285 40.9527 48.2949 40.9784 48.3036C41.3492 48.4567 41.6662 48.7163 41.8893 49.0495C42.1125 49.3828 42.2319 49.7748 42.2323 50.1759C42.2323 51.2094 41.1486 52.2618 40.0452 52.3363C39.712 52.2459 39.3682 52.2001 39.0229 52.2004C38.7743 52.2004 38.5359 52.2991 38.36 52.475C38.1842 52.6508 38.0854 52.8892 38.0854 53.1379C38.0854 53.3865 38.1842 53.625 38.36 53.8008C38.5359 53.9766 38.7743 54.0754 39.0229 54.0754C39.2193 54.0752 39.4146 54.1037 39.6027 54.16C39.6248 54.1679 39.6474 54.1752 39.6704 54.1815C40.1255 54.3349 40.5112 54.6451 40.7587 55.0566C41.0062 55.4681 41.0994 55.9542 41.0216 56.4281C40.9438 56.902 40.7001 57.3328 40.334 57.6436C39.9679 57.9544 39.5033 58.1249 39.0231 58.1248H23.7682C23.5602 58.1294 23.3532 58.0926 23.1595 58.0165C22.9658 57.9405 22.7891 57.8266 22.6398 57.6816C20.6488 55.8318 18.9085 54.9897 15.5975 54.3007V39.3649L15.7638 39.203C20.3652 34.7344 21.4925 34.1542 21.7318 34.0837C21.8707 34.0551 22.0014 33.9954 22.114 33.9091C24.38 32.1735 25.9144 29.6527 26.4155 26.8427C26.4213 26.8099 26.4255 26.7767 26.4279 26.7434L26.6974 22.9178C26.8497 22.6373 27.0736 22.4021 27.3464 22.2362C27.6191 22.0703 27.9309 21.9797 28.25 21.9735C28.5692 21.9673 28.8843 22.0458 29.1632 22.201C29.4422 22.3561 29.675 22.5824 29.8381 22.8569C30.6209 24.7923 30.9723 26.8752 30.8677 28.9604C30.7631 31.0456 30.205 33.0829 29.2323 34.9303C29.1573 35.0732 29.1204 35.233 29.1252 35.3943C29.1301 35.5557 29.1765 35.713 29.2599 35.8511C29.3434 35.9893 29.4611 36.1035 29.6017 36.1828C29.7423 36.2621 29.901 36.3037 30.0624 36.3037H43.3357C43.8699 36.3078 44.381 36.5229 44.7573 36.9021C45.1337 37.2814 45.3449 37.794 45.3449 38.3283C45.3449 38.8626 45.1337 39.3752 44.7573 39.7545C44.381 40.1337 43.8699 40.3488 43.3357 40.3529V40.3522ZM10.5445 39.6631V39.7762C10.5445 40.0248 10.4457 40.2633 10.2699 40.4391C10.0941 40.6149 9.85565 40.7137 9.60701 40.7137C9.35837 40.7137 9.11991 40.6149 8.9441 40.4391C8.76828 40.2633 8.66951 40.0248 8.66951 39.7762V39.6631C8.66951 39.4145 8.76828 39.176 8.9441 39.0002C9.11991 38.8244 9.35837 38.7256 9.60701 38.7256C9.85565 38.7256 10.0941 38.8244 10.2699 39.0002C10.4457 39.176 10.5445 39.4145 10.5445 39.6631ZM38.6753 8.03693C38.6187 7.86291 38.5125 7.70924 38.3697 7.59486C38.2269 7.48048 38.0537 7.41038 37.8716 7.39322L31.1522 6.76041L28.4733 0.565432C28.4007 0.397498 28.2805 0.25448 28.1276 0.154008C27.9747 0.0535356 27.7958 0 27.6128 0C27.4298 0 27.2509 0.0535356 27.098 0.154008C26.9451 0.25448 26.8249 0.397498 26.7523 0.565432L24.0737 6.76029L17.3545 7.3931C17.1723 7.41027 16.9992 7.48036 16.8564 7.59474C16.7136 7.70911 16.6074 7.86276 16.5509 8.03676C16.4943 8.21076 16.4899 8.3975 16.5382 8.57396C16.5865 8.75043 16.6854 8.9089 16.8227 9.02985L21.8867 13.4914L20.4122 20.0773C20.3723 20.2558 20.3854 20.4422 20.4501 20.6133C20.5147 20.7845 20.6281 20.933 20.7761 21.0405C20.9241 21.148 21.1003 21.2099 21.2831 21.2185C21.4658 21.2271 21.6471 21.182 21.8045 21.0889L27.6128 17.6517L33.4208 21.0891C33.5783 21.1823 33.7595 21.2273 33.9423 21.2187C34.125 21.2101 34.3013 21.1483 34.4493 21.0407C34.5973 20.9332 34.7106 20.7847 34.7753 20.6136C34.8399 20.4424 34.8531 20.2561 34.8131 20.0775L33.3388 13.4916L38.4028 9.03009C38.5402 8.9092 38.6392 8.75075 38.6876 8.57427C38.736 8.39779 38.7317 8.21099 38.6753 8.03693ZM31.6835 12.4515C31.5575 12.5625 31.4636 12.7054 31.4117 12.8652C31.3598 13.025 31.3517 13.1957 31.3884 13.3597L32.5104 18.3712L28.0909 15.7555C27.9463 15.6699 27.7814 15.6247 27.6134 15.6247C27.4454 15.6247 27.2804 15.6699 27.1358 15.7555L22.7164 18.3712L23.8377 13.3593C23.8744 13.1954 23.8664 13.0246 23.8145 12.8648C23.7626 12.7051 23.6687 12.5622 23.5427 12.4511L19.6894 9.05622L24.8023 8.57458C24.9695 8.55881 25.1295 8.49839 25.2654 8.39964C25.4013 8.30089 25.5081 8.16745 25.5748 8.01325L27.6128 3.29987L29.6508 8.01361C29.7175 8.1678 29.8243 8.30125 29.9602 8.39999C30.0961 8.49874 30.2561 8.55916 30.4233 8.57493L35.5363 9.05657L31.6835 12.4515ZM55.1802 13.5304C55.1237 13.3564 55.0175 13.2027 54.8747 13.0884C54.7319 12.974 54.5587 12.9039 54.3766 12.8867L49.6414 12.4407L47.7534 8.07513C47.6808 7.90719 47.5606 7.76418 47.4077 7.6637C47.2548 7.56323 47.0758 7.5097 46.8929 7.5097C46.7099 7.5097 46.531 7.56323 46.378 7.6637C46.2251 7.76418 46.105 7.90719 46.0324 8.07513L44.145 12.4407L39.4097 12.8867C39.2275 12.9039 39.0543 12.9739 38.9115 13.0883C38.7687 13.2027 38.6625 13.3564 38.6059 13.5304C38.5494 13.7044 38.545 13.8912 38.5933 14.0677C38.6417 14.2442 38.7406 14.4026 38.8779 14.5236L42.4466 17.6676L41.4076 22.3089C41.3676 22.4875 41.3808 22.6738 41.4455 22.845C41.5102 23.0162 41.6235 23.1647 41.7716 23.2722C41.9197 23.3797 42.0959 23.4415 42.2787 23.4501C42.4615 23.4586 42.6428 23.4135 42.8002 23.3202L46.8932 20.8979L50.9859 23.3202C51.1433 23.4134 51.3246 23.4585 51.5074 23.4499C51.6901 23.4414 51.8664 23.3795 52.0144 23.272C52.1625 23.1644 52.2758 23.0159 52.3405 22.8447C52.4051 22.6736 52.4183 22.4872 52.3783 22.3087L51.3392 17.6674L54.9078 14.5233C55.045 14.4024 55.1439 14.244 55.1922 14.0675C55.2405 13.8911 55.2361 13.7044 55.1796 13.5304H55.1802ZM49.6842 16.6276C49.5581 16.7386 49.4642 16.8815 49.4123 17.0413C49.3604 17.201 49.3524 17.3718 49.3891 17.5358L50.0757 20.6025L47.3705 19.0019C47.2259 18.9163 47.061 18.8711 46.893 18.8711C46.725 18.8711 46.56 18.9163 46.4155 19.0019L43.7111 20.6025L44.3976 17.5358C44.4343 17.3718 44.4263 17.201 44.3744 17.0413C44.3225 16.8815 44.2286 16.7386 44.1025 16.6276L41.7444 14.5502L44.8733 14.2553C45.0405 14.2396 45.2005 14.1792 45.3364 14.0804C45.4723 13.9817 45.5792 13.8482 45.6459 13.694L46.893 10.8095L48.1401 13.694C48.2068 13.8482 48.3137 13.9817 48.4496 14.0804C48.5855 14.1792 48.7454 14.2396 48.9127 14.2553L52.0416 14.5502L49.6842 16.6276ZM15.8171 12.8867L11.0819 12.4407L9.19322 8.07513C9.12061 7.90719 9.00045 7.76418 8.84754 7.6637C8.69464 7.56323 8.51568 7.5097 8.33272 7.5097C8.14976 7.5097 7.9708 7.56323 7.81789 7.6637C7.66499 7.76418 7.54483 7.90719 7.47221 8.07513L5.5848 12.4407L0.849624 12.8867C0.667452 12.9039 0.494282 12.9739 0.351461 13.0883C0.20864 13.2027 0.102413 13.3564 0.0458753 13.5304C-0.0106623 13.7044 -0.0150386 13.8912 0.0332857 14.0677C0.0816101 14.2442 0.180523 14.4026 0.317829 14.5236L3.88641 17.6676L2.84731 22.3089C2.8074 22.4874 2.82059 22.6737 2.88526 22.8449C2.94994 23.016 3.06327 23.1645 3.21129 23.272C3.35931 23.3795 3.53555 23.4413 3.71829 23.4499C3.90104 23.4585 4.08229 23.4134 4.23973 23.3202L8.33272 20.8979L12.4254 23.3202C12.5828 23.4134 12.7641 23.4585 12.9468 23.4499C13.1296 23.4413 13.3058 23.3794 13.4538 23.2719C13.6018 23.1643 13.7152 23.0158 13.7798 22.8447C13.8445 22.6735 13.8576 22.4872 13.8177 22.3087L12.7786 17.6674L16.3473 14.5233C16.4846 14.4024 16.5835 14.2439 16.6318 14.0674C16.6801 13.891 16.6757 13.7042 16.6192 13.5302C16.5627 13.3561 16.4564 13.2025 16.3136 13.0881C16.1708 12.9737 15.9976 12.9036 15.8155 12.8865L15.8171 12.8867ZM11.1245 16.6276C10.9984 16.7386 10.9045 16.8815 10.8526 17.0413C10.8007 17.201 10.7927 17.3718 10.8294 17.5358L11.5159 20.6024L8.81026 19.0019C8.66567 18.9163 8.50074 18.8711 8.33272 18.8711C8.1647 18.8711 7.99977 18.9163 7.85518 19.0019L5.15074 20.6025L5.83734 17.5358C5.87403 17.3718 5.86601 17.201 5.8141 17.0413C5.76219 16.8815 5.6683 16.7386 5.54226 16.6276L3.18422 14.5502L6.31312 14.2553C6.48038 14.2396 6.64034 14.1792 6.77626 14.0804C6.91217 13.9817 7.01906 13.8482 7.08573 13.694L8.33272 10.8096L9.57982 13.694C9.64648 13.8482 9.75335 13.9817 9.88925 14.0804C10.0251 14.1791 10.1851 14.2396 10.3523 14.2553L13.4812 14.5502L11.1245 16.6276Z" fill="url(#paint0_linear_507_14697)"/>
<defs>
<linearGradient id="paint0_linear_507_14697" x1="55.6675" y1="60.097" x2="10.2111" y2="11.1995" gradientUnits="userSpaceOnUse">
<stop stop-color="#31393C"/>
<stop offset="1" stop-color="#3D96F5"/>
</linearGradient>
</defs>
</svg>
