<svg width="60" height="60" viewBox="0 0 60 60" fill="none" xmlns="http://www.w3.org/2000/svg">
<path fill-rule="evenodd" clip-rule="evenodd" d="M45 0H57C57.7957 0 58.5587 0.31607 59.1213 0.87868C59.6839 1.44129 60 2.20435 60 3V15C60 15.7956 59.6839 16.5587 59.1213 17.1213C58.5587 17.6839 57.7957 18 57 18H45C44.2043 18 43.4413 17.6839 42.8787 17.1213C42.3161 16.5587 42 15.7956 42 15V10H40C39.7348 10 39.4804 10.1054 39.2929 10.2929C39.1054 10.4804 39 10.7348 39 11V29H42V24C42 23.2044 42.3161 22.4413 42.8787 21.8787C43.4413 21.3161 44.2043 21 45 21H57C57.7957 21 58.5587 21.3161 59.1213 21.8787C59.6839 22.4413 60 23.2044 60 24V36C60 36.7957 59.6839 37.5587 59.1213 38.1213C58.5587 38.6839 57.7957 39 57 39H45C44.2043 39 43.4413 38.6839 42.8787 38.1213C42.3161 37.5587 42 36.7957 42 36V31H39V49C39 49.2652 39.1054 49.5196 39.2929 49.7071C39.4804 49.8946 39.7348 50 40 50H42V45C42 44.2043 42.3161 43.4413 42.8787 42.8787C43.4413 42.3161 44.2043 42 45 42H57C57.7957 42 58.5587 42.3161 59.1213 42.8787C59.6839 43.4413 60 44.2043 60 45V57C60 57.7957 59.6839 58.5587 59.1213 59.1213C58.5587 59.6839 57.7957 60 57 60H45C44.2043 60 43.4413 59.6839 42.8787 59.1213C42.3161 58.5587 42 57.7957 42 57V52H40C39.2043 52 38.4413 51.6839 37.8787 51.1213C37.3161 50.5587 37 49.7957 37 49V31.005H33.962C33.9582 31.0705 33.9565 31.1362 33.9548 31.2018V31.2019V31.202C33.9526 31.2896 33.9504 31.3771 33.943 31.464C33.9095 31.8178 33.7786 32.1554 33.5648 32.4392C33.3511 32.7231 33.0628 32.9421 32.732 33.072L30.618 33.917C30.3242 34.9404 29.9149 35.9271 29.398 36.858L30.298 38.958C30.4405 39.2837 30.4898 39.6426 30.4404 39.9946C30.3909 40.3467 30.2447 40.6781 30.018 40.952C29.3925 41.6985 28.7025 42.3885 27.956 43.014C27.6818 43.2423 27.3494 43.3896 26.9961 43.4394C26.6428 43.4892 26.2826 43.4396 25.956 43.296L23.856 42.396C22.9251 42.9129 21.9384 43.3222 20.915 43.616L20.07 45.73C19.9402 46.0614 19.7209 46.3502 19.4367 46.5644C19.1524 46.7785 18.8143 46.9096 18.46 46.943C17.979 46.986 17.49 47.006 17.002 47.006C16.514 47.006 16.025 46.986 15.543 46.943C15.1892 46.9095 14.8516 46.7786 14.5678 46.5648C14.2839 46.3511 14.0649 46.0628 13.935 45.732L13.089 43.616C12.0656 43.3222 11.0789 42.9129 10.148 42.396L8.048 43.296C7.7223 43.4385 7.36342 43.4878 7.01135 43.4384C6.65928 43.3889 6.32786 43.2427 6.054 43.016C5.30753 42.3905 4.61753 41.7005 3.992 40.954C3.76382 40.6797 3.61657 40.3473 3.56676 39.9941C3.51695 39.6408 3.56655 39.2807 3.71 38.954L4.61 36.854C4.09307 35.9231 3.68377 34.9364 3.39 33.913L1.276 33.068C0.944631 32.9382 0.655792 32.7189 0.441634 32.4347C0.227476 32.1504 0.0964015 31.8123 0.063 31.458C0.02 30.977 0 30.488 0 30C0 29.512 0.02 29.023 0.063 28.541C0.0950678 28.1874 0.22445 27.8496 0.436797 27.5651C0.649143 27.2805 0.936155 27.0604 1.266 26.929L3.382 26.083C3.67577 25.0596 4.08507 24.0729 4.602 23.142L3.702 21.042C3.55948 20.7163 3.5102 20.3574 3.55964 20.0054C3.60908 19.6533 3.75529 19.3219 3.982 19.048C4.60753 18.3015 5.29753 17.6115 6.044 16.986C6.31792 16.7572 6.65036 16.6095 7.00377 16.5597C7.35719 16.5099 7.71749 16.5599 8.044 16.704L10.144 17.604C11.0749 17.0871 12.0616 16.6778 13.085 16.384L13.93 14.27C14.0598 13.9386 14.2791 13.6498 14.5633 13.4356C14.8476 13.2215 15.1857 13.0904 15.54 13.057C16.5104 12.97 17.4866 12.97 18.457 13.057C18.8108 13.0905 19.1484 13.2214 19.4322 13.4352C19.7161 13.6489 19.9351 13.9372 20.065 14.268L20.911 16.384C21.9344 16.6778 22.9211 17.0871 23.852 17.604L25.952 16.704C26.2778 16.5617 26.6366 16.5126 26.9886 16.562C27.3406 16.6114 27.672 16.7575 27.946 16.984C28.6925 17.6095 29.3825 18.2995 30.008 19.046C30.2362 19.3203 30.3834 19.6527 30.4332 20.0059C30.4831 20.3592 30.4335 20.7193 30.29 21.046L29.39 23.146C29.9069 24.0769 30.3162 25.0636 30.61 26.087L32.724 26.932C33.0554 27.0618 33.3442 27.2811 33.5584 27.5653C33.7725 27.8496 33.9036 28.1877 33.937 28.542C33.9444 28.6283 33.9466 28.7159 33.9488 28.8035C33.9505 28.8692 33.9521 28.9349 33.956 29H37V11C37 10.2044 37.3161 9.44129 37.8787 8.87868C38.4413 8.31607 39.2043 8 40 8H42V3C42 2.20435 42.3161 1.44129 42.8787 0.87868C43.4413 0.31607 44.2043 0 45 0ZM29.4 32.242L31.949 31.224C31.984 30.818 32 30.409 31.997 30C31.997 29.572 31.979 29.145 31.941 28.723L29.4 27.758C29.2526 27.6992 29.1212 27.6061 29.0169 27.4865C28.9126 27.3668 28.8382 27.2241 28.8 27.07C28.5074 25.895 28.0402 24.7705 27.414 23.734C27.3318 23.5981 27.2831 23.4447 27.2719 23.2862C27.2608 23.1278 27.2876 22.969 27.35 22.823L28.45 20.267C28.334 20.1506 28.2092 20.0203 28.0785 19.8839C27.9274 19.7263 27.7684 19.5604 27.606 19.398C27.303 19.095 26.988 18.804 26.663 18.531L24.181 19.65C24.035 19.7124 23.8762 19.7392 23.7178 19.7281C23.5593 19.7169 23.4059 19.6682 23.27 19.586C22.2323 18.9595 21.1064 18.4922 19.93 18.2C19.7759 18.1618 19.6332 18.0874 19.5135 17.9831C19.3939 17.8788 19.3008 17.7474 19.242 17.6L18.211 15.022C18.051 15.0216 17.8797 15.0193 17.7007 15.0169C17.0843 15.0087 16.3763 14.9993 15.723 15.059L14.758 17.6C14.6992 17.7474 14.6061 17.8788 14.4865 17.9831C14.3668 18.0874 14.2241 18.1618 14.07 18.2C12.8936 18.4922 11.7677 18.9595 10.73 19.586C10.5941 19.6682 10.4407 19.7169 10.2822 19.7281C10.1238 19.7392 9.96502 19.7124 9.819 19.65L7.263 18.55C7.14655 18.666 7.01633 18.7908 6.87991 18.9215L6.87982 18.9216C6.72223 19.0727 6.55639 19.2316 6.394 19.394C6.091 19.697 5.8 20.012 5.527 20.337L6.65 22.819C6.71244 22.965 6.7392 23.1238 6.72807 23.2822C6.71694 23.4407 6.66824 23.5941 6.586 23.73C5.95945 24.7677 5.49225 25.8936 5.2 27.07C5.16177 27.2241 5.08742 27.3668 4.98309 27.4865C4.87875 27.6061 4.74744 27.6992 4.6 27.758L2.019 28.789C2.01854 28.953 2.01447 29.132 2.01022 29.3192C2.00524 29.5385 2 29.7691 2 30C2 30.428 2.018 30.855 2.059 31.277L4.6 32.242C4.74744 32.3008 4.87875 32.3939 4.98309 32.5135C5.08742 32.6332 5.16177 32.7759 5.2 32.93C5.49225 34.1064 5.95945 35.2323 6.586 36.27C6.66824 36.4059 6.71694 36.5593 6.72807 36.7178C6.7392 36.8762 6.71244 37.035 6.65 37.181L5.55 39.737C5.66589 39.8534 5.79059 39.9835 5.92122 40.1198L5.92129 40.1198L5.92155 40.1201C6.07261 40.2777 6.23158 40.4436 6.394 40.606C6.697 40.909 7.012 41.2 7.337 41.473L9.819 40.35C9.96502 40.2876 10.1238 40.2608 10.2822 40.2719C10.4407 40.2831 10.5941 40.3318 10.73 40.414C11.7677 41.0405 12.8936 41.5078 14.07 41.8C14.2241 41.8382 14.3668 41.9126 14.4865 42.0169C14.6061 42.1212 14.6992 42.2526 14.758 42.4L15.789 44.978C15.949 44.9785 16.1203 44.9807 16.2993 44.9831H16.2994C16.9158 44.9913 17.6237 45.0007 18.277 44.941L19.242 42.4C19.3008 42.2526 19.3939 42.1212 19.5135 42.0169C19.6332 41.9126 19.7759 41.8382 19.93 41.8C21.105 41.5074 22.2295 41.0402 23.266 40.414C23.4019 40.3318 23.5553 40.2831 23.7138 40.2719C23.8722 40.2608 24.031 40.2876 24.177 40.35L26.733 41.45C26.8494 41.3341 26.9796 41.2093 27.1159 41.0786L27.1161 41.0785C27.2737 40.9274 27.4396 40.7684 27.602 40.606C27.905 40.303 28.196 39.988 28.469 39.663L27.35 37.181C27.2876 37.035 27.2608 36.8762 27.2719 36.7178C27.2831 36.5593 27.3318 36.4059 27.414 36.27C28.0405 35.2323 28.5078 34.1064 28.8 32.93C28.8382 32.7759 28.9126 32.6332 29.0169 32.5135C29.1212 32.3939 29.2526 32.3008 29.4 32.242ZM44.2929 44.2929C44.1054 44.4804 44 44.7348 44 45V57C44 57.2652 44.1054 57.5196 44.2929 57.7071C44.4804 57.8946 44.7348 58 45 58H57C57.2652 58 57.5196 57.8946 57.7071 57.7071C57.8946 57.5196 58 57.2652 58 57V45C58 44.7348 57.8946 44.4804 57.7071 44.2929C57.5196 44.1054 57.2652 44 57 44H45C44.7348 44 44.4804 44.1054 44.2929 44.2929ZM44.2929 23.2929C44.1054 23.4804 44 23.7348 44 24V36C44 36.2652 44.1054 36.5196 44.2929 36.7071C44.4804 36.8946 44.7348 37 45 37H57C57.2652 37 57.5196 36.8946 57.7071 36.7071C57.8946 36.5196 58 36.2652 58 36V24C58 23.7348 57.8946 23.4804 57.7071 23.2929C57.5196 23.1054 57.2652 23 57 23H45C44.7348 23 44.4804 23.1054 44.2929 23.2929ZM57.7071 15.7071C57.8946 15.5196 58 15.2652 58 15V3C58 2.73478 57.8946 2.48043 57.7071 2.29289C57.5196 2.10536 57.2652 2 57 2H45C44.7348 2 44.4804 2.10536 44.2929 2.29289C44.1054 2.48043 44 2.73478 44 3V15C44 15.2652 44.1054 15.5196 44.2929 15.7071C44.4804 15.8946 44.7348 16 45 16H57C57.2652 16 57.5196 15.8946 57.7071 15.7071ZM17 20C15.0222 20 13.0888 20.5865 11.4443 21.6853C9.79981 22.7841 8.51808 24.3459 7.7612 26.1732C7.00433 28.0004 6.80629 30.0111 7.19215 31.9509C7.578 33.8907 8.53041 35.6725 9.92893 37.0711C11.3275 38.4696 13.1093 39.422 15.0491 39.8079C16.9889 40.1937 18.9996 39.9957 20.8268 39.2388C22.6541 38.4819 24.2159 37.2002 25.3147 35.5557C26.4135 33.9112 27 31.9778 27 30C26.9971 27.3487 25.9426 24.8069 24.0679 22.9321C22.1931 21.0574 19.6513 20.0029 17 20ZM17 38C15.4177 38 13.871 37.5308 12.5554 36.6518C11.2398 35.7727 10.2145 34.5233 9.60896 33.0615C9.00346 31.5997 8.84504 29.9911 9.15372 28.4393C9.4624 26.8874 10.2243 25.462 11.3431 24.3431C12.462 23.2243 13.8874 22.4624 15.4393 22.1537C16.9911 21.845 18.5997 22.0035 20.0615 22.609C21.5233 23.2145 22.7727 24.2398 23.6518 25.5554C24.5308 26.871 25 28.4177 25 30C24.9976 32.121 24.154 34.1544 22.6542 35.6542C21.1544 37.154 19.121 37.9976 17 38ZM17 24C15.8133 24 14.6533 24.3519 13.6666 25.0112C12.6799 25.6705 11.9108 26.6075 11.4567 27.7039C11.0026 28.8003 10.8838 30.0067 11.1153 31.1705C11.3468 32.3344 11.9182 33.4035 12.7574 34.2426C13.5965 35.0818 14.6656 35.6532 15.8295 35.8847C16.9933 36.1162 18.1997 35.9974 19.2961 35.5433C20.3925 35.0892 21.3295 34.3201 21.9888 33.3334C22.6481 32.3467 23 31.1867 23 30C22.9984 28.4092 22.3658 26.884 21.2409 25.7591C20.116 24.6342 18.5908 24.0016 17 24ZM17 34C16.2089 34 15.4355 33.7654 14.7777 33.3259C14.1199 32.8864 13.6072 32.2616 13.3045 31.5307C13.0017 30.7998 12.9225 29.9956 13.0769 29.2196C13.2312 28.4437 13.6122 27.731 14.1716 27.1716C14.731 26.6122 15.4437 26.2312 16.2196 26.0769C16.9956 25.9225 17.7998 26.0017 18.5307 26.3045C19.2616 26.6072 19.8864 27.1199 20.3259 27.7777C20.7654 28.4355 21 29.2089 21 30C21 31.0609 20.5786 32.0783 19.8284 32.8284C19.0783 33.5786 18.0609 34 17 34ZM50.681 14.8649V13.8024C50.0265 13.7702 49.4449 13.6537 48.9362 13.453C48.3333 13.2139 47.8644 12.8462 47.5295 12.3499C47.1975 11.8505 47.0301 11.2119 47.027 10.4341H49.4387C49.4539 10.7186 49.5255 10.9577 49.6533 11.1514C49.7812 11.3451 49.9609 11.4919 50.1923 11.5917C50.3381 11.6539 50.501 11.6967 50.681 11.7201V10.0136L49.932 9.85304C49.1037 9.67448 48.4506 9.37637 47.9725 8.95872C47.4975 8.53804 47.2615 7.96453 47.2645 7.23818C47.2615 6.64802 47.4198 6.132 47.7396 5.69014C48.0623 5.24525 48.5084 4.89872 49.0778 4.65055C49.5542 4.44402 50.0886 4.32343 50.681 4.28877V3.24324H51.4301V4.28963C52.0251 4.32563 52.5503 4.44745 53.0059 4.65509C53.557 4.90629 53.9818 5.26038 54.2802 5.71738C54.5817 6.17135 54.7339 6.70249 54.737 7.31081H52.3071C52.2827 7.00816 52.1685 6.7721 51.9645 6.60262C51.832 6.49089 51.6539 6.416 51.4301 6.37792V8.00085L51.9417 8.1098C52.4593 8.21875 52.9024 8.36251 53.2708 8.54107C53.6393 8.71963 53.9407 8.92997 54.1752 9.17209C54.4096 9.41118 54.5817 9.68053 54.6913 9.98015C54.804 10.2798 54.8618 10.6066 54.8649 10.9607C54.8618 11.5721 54.708 12.0896 54.4035 12.5133C54.099 12.937 53.6636 13.2593 53.0972 13.4803C52.6226 13.6664 52.0669 13.7741 51.4301 13.8034V14.8649H50.681ZM51.7087 11.6417C51.6251 11.6722 51.5322 11.6957 51.4301 11.7122V10.2015C51.527 10.2328 51.6138 10.2649 51.6904 10.2979C51.8945 10.3827 52.0406 10.4795 52.1289 10.5885C52.2203 10.6944 52.2675 10.8185 52.2705 10.9607C52.2675 11.112 52.2188 11.2467 52.1244 11.3648C52.03 11.4828 51.8914 11.5751 51.7087 11.6417ZM50.681 6.37343V7.81994C50.6528 7.8108 50.6254 7.80149 50.5988 7.79202C50.4374 7.73452 50.305 7.67096 50.2014 7.60135C50.0979 7.52872 50.0218 7.44852 49.9731 7.36075C49.9274 7.26995 49.9076 7.16857 49.9137 7.05659C49.9167 6.9204 49.9578 6.79934 50.037 6.69341C50.1162 6.58749 50.238 6.50426 50.4024 6.44373C50.4841 6.41274 50.5769 6.38931 50.681 6.37343ZM50.681 34.6132V35.6757H51.4301V34.6143C52.0669 34.5849 52.6226 34.4772 53.0972 34.2911C53.6636 34.0701 54.099 33.7478 54.4035 33.3241C54.708 32.9004 54.8618 32.3829 54.8649 31.7715C54.8618 31.4174 54.804 31.0906 54.6913 30.791C54.5817 30.4913 54.4096 30.222 54.1752 29.9829C53.9407 29.7408 53.6393 29.5304 53.2708 29.3519C52.9024 29.1733 52.4593 29.0296 51.9417 28.9206L51.4301 28.8117V27.1887C51.6539 27.2268 51.832 27.3017 51.9645 27.4134C52.1685 27.5829 52.2827 27.819 52.3071 28.1216H54.737C54.7339 27.5133 54.5817 26.9822 54.2802 26.5282C53.9818 26.0712 53.557 25.7171 53.0059 25.4659C52.5503 25.2583 52.0251 25.1364 51.4301 25.1004V24.0541H50.681V25.0996C50.0886 25.1342 49.5542 25.2548 49.0778 25.4614C48.5084 25.7095 48.0623 26.0561 47.7396 26.501C47.4198 26.9428 47.2615 27.4588 47.2645 28.049C47.2615 28.7753 47.4975 29.3489 47.9725 29.7695C48.4506 30.1872 49.1037 30.4853 49.932 30.6639L50.681 30.8244V32.531C50.501 32.5075 50.3381 32.4647 50.1923 32.4026C49.9609 32.3027 49.7812 32.1559 49.6533 31.9622C49.5255 31.7685 49.4539 31.5294 49.4387 31.2449H47.027C47.0301 32.0227 47.1975 32.6613 47.5295 33.1607C47.8644 33.657 48.3333 34.0247 48.9362 34.2638C49.4449 34.4645 50.0265 34.581 50.681 34.6132ZM51.4301 32.523C51.5322 32.5065 51.6251 32.483 51.7087 32.4525C51.8914 32.3859 52.03 32.2936 52.1244 32.1756C52.2188 32.0575 52.2675 31.9229 52.2705 31.7715C52.2675 31.6293 52.2203 31.5052 52.1289 31.3993C52.0406 31.2903 51.8945 31.1935 51.6904 31.1087C51.6138 31.0758 51.527 31.0436 51.4301 31.0124V32.523ZM50.681 28.6307V27.1842C50.5769 27.2001 50.4841 27.2236 50.4024 27.2545C50.238 27.3151 50.1162 27.3983 50.037 27.5042C49.9578 27.6101 49.9167 27.7312 49.9137 27.8674C49.9076 27.9794 49.9274 28.0808 49.9731 28.1716C50.0218 28.2593 50.0979 28.3395 50.2014 28.4122C50.305 28.4818 50.4374 28.5453 50.5988 28.6028C50.6254 28.6123 50.6528 28.6216 50.681 28.6307Z" fill="url(#paint0_linear_507_14710)"/>
<defs>
<linearGradient id="paint0_linear_507_14710" x1="61.1934" y1="60.097" x2="16.2487" y2="6.95075" gradientUnits="userSpaceOnUse">
<stop stop-color="#31393C"/>
<stop offset="1" stop-color="#3D96F5"/>
</linearGradient>
</defs>
</svg>
