<svg width="48" height="50" viewBox="0 0 48 50" fill="none" xmlns="http://www.w3.org/2000/svg">
<path fill-rule="evenodd" clip-rule="evenodd" d="M32.0036 9.72005H31.8731C31.5329 9.68353 31.221 9.51352 31.0059 9.24733C30.7908 8.98114 30.6901 8.64051 30.7258 8.30015L31.4546 1.16005C31.455 1.15419 31.456 1.14708 31.4572 1.1392C31.4591 1.12627 31.4614 1.11127 31.4614 1.09626C31.5121 0.762654 31.6916 0.462208 31.9612 0.259312C32.2308 0.0564151 32.5692 -0.0327855 32.9038 0.0108271C33.2385 0.0544398 33.5427 0.227395 33.7513 0.492625C33.9599 0.757856 34.0563 1.09425 34.0199 1.42973L33.2863 8.56016C33.2548 8.8783 33.106 9.17333 32.8689 9.38776C32.6318 9.60218 32.3233 9.72064 32.0036 9.72005ZM31.014 15.8123C27.5981 10.7861 23.2446 7.24359 19.6538 6.56505C18.1904 6.28958 16.9397 6.49739 15.9325 7.18753C15.5286 7.47092 15.1776 7.82293 14.8954 8.22756L14.8354 8.31456V8.34452C14.414 9.21444 9.67972 18.8019 7.11636 23.9886L2.83926 26.8883C1.41875 27.855 0.439466 29.3455 0.116052 31.0331C-0.207362 32.7206 0.151478 34.4675 1.11392 35.891L1.31497 36.1809C2.25331 37.5374 3.67092 38.4878 5.28212 38.8406C6.89333 39.1934 8.57838 38.9224 9.99772 38.0822L16.8024 48.1056L16.8198 48.1288C17.2499 48.6594 18.5036 49.9769 20.3227 49.9769C21.0351 49.9769 21.8344 49.7749 22.7043 49.2442C23.1747 48.9389 23.5761 48.5386 23.8827 48.069C24.1893 47.5994 24.3944 47.071 24.4848 46.5175C24.5903 45.9688 24.5866 45.4047 24.474 44.8573C24.3614 44.31 24.142 43.7903 23.8285 43.3278L17.9981 34.7253C30.1508 33.7587 31.8027 33.6166 32.0676 33.5799C32.5635 33.4815 33.0347 33.285 33.4536 33.0019C35.2988 31.7453 35.9667 29.1636 35.3481 25.7236C34.8146 22.6885 33.2748 19.1692 31.014 15.8123ZM20.5392 22.9137C16.8488 17.4758 15.9277 12.6381 16.6342 10.4449C16.7563 10.0469 17.0012 9.69776 17.3339 9.44754C17.6666 9.19732 18.07 9.05888 18.4862 9.05205C20.8649 9.05205 25.1923 11.8793 28.8604 17.2844C31.0594 20.5195 32.4242 23.6 32.8079 26.1943C33.0979 28.0984 32.8756 29.5444 32.169 30.3776C31.9853 30.5993 31.759 30.782 31.5035 30.9148C31.248 31.0476 30.9685 31.1279 30.6815 31.1509C28.3772 30.9866 24.2257 28.3468 20.5392 22.9137ZM9.61689 24.7618L14.2468 15.3222C14.907 18.1901 16.3607 21.3633 18.4031 24.3703C20.4454 27.3774 22.859 29.9011 25.2773 31.5733L14.7987 32.3987L9.61689 24.7618ZM14.5967 35.0075L15.05 34.9708L21.7049 44.7864C21.9418 45.1549 22.0247 45.6017 21.9359 46.0307C21.8471 46.4598 21.5937 46.8369 21.23 47.0812C20.8663 47.3255 20.4213 47.4175 19.9905 47.3374C19.5598 47.2573 19.1776 47.0115 18.926 46.6528L12.1474 36.6749L14.5967 35.0075ZM5.9584 36.3752C5.45469 36.2805 4.97473 36.0869 4.54622 35.8057C4.1177 35.5245 3.74912 35.1613 3.46174 34.7369L3.26358 34.4469C2.97568 34.0228 2.77421 33.5461 2.67071 33.0441C2.5672 32.5421 2.56369 32.0246 2.66038 31.5213C2.75707 31.0179 2.95206 30.5385 3.23419 30.1106C3.51632 29.6827 3.88005 29.3145 4.30459 29.0273L7.78426 26.6611L12.3639 33.4049L8.88422 35.7711C8.46032 36.0602 7.98329 36.2624 7.48075 36.3659C6.9782 36.4694 6.46012 36.4723 5.95647 36.3743L5.9584 36.3752ZM24.0357 15.8705L24.0048 15.8647H23.9671C22.5417 15.5977 21.0686 15.9067 19.8707 16.724C19.6075 16.9263 19.4321 17.222 19.3808 17.5499C19.3295 17.8779 19.4061 18.213 19.5949 18.4861C19.7837 18.7591 20.0702 18.9492 20.3951 19.017C20.7201 19.0848 21.0586 19.0252 21.3409 18.8504C21.6588 18.6346 22.0161 18.4836 22.3923 18.4059C22.7686 18.3282 23.1565 18.3254 23.5339 18.3976C23.9113 18.4698 24.2707 18.6156 24.5918 18.8267C24.9128 19.0379 25.1891 19.3101 25.4048 19.628C25.6206 19.9459 25.7717 20.3032 25.8494 20.6795C25.9271 21.0558 25.9299 21.4437 25.8577 21.8211C25.7855 22.1985 25.6397 22.5579 25.4285 22.8789C25.2174 23.1999 24.9451 23.4762 24.6272 23.692C24.4016 23.8481 24.2315 24.072 24.1418 24.3313C24.052 24.5906 24.0473 24.8717 24.1282 25.1339C24.2091 25.3961 24.3715 25.6257 24.5918 25.7893C24.8121 25.9529 25.0788 26.042 25.3531 26.0437H25.3812C25.6369 26.0445 25.8867 25.9673 26.0974 25.8223C26.9986 25.2116 27.6982 24.3472 28.1077 23.3385C28.5173 22.3299 28.6182 21.2224 28.3979 20.1563C28.1775 19.0902 27.6457 18.1135 26.8699 17.3499C26.094 16.5862 25.109 16.07 24.0396 15.8666L24.0357 15.8705ZM44.1604 9.51892L44.1691 9.51312C44.4533 9.31794 44.6484 9.01813 44.712 8.67935C44.7755 8.34056 44.7022 7.9904 44.5081 7.70554C44.3141 7.42068 44.015 7.22434 43.6765 7.1595C43.3379 7.09466 42.9875 7.1666 42.7019 7.35958L36.0712 11.7092C35.8387 11.8631 35.6624 12.0881 35.5685 12.3506C35.4746 12.6131 35.4683 12.899 35.5505 13.1654C35.6326 13.4318 35.7989 13.6644 36.0243 13.8285C36.2497 13.9925 36.5222 14.0791 36.8009 14.0754H36.8241C37.0748 14.0757 37.3201 14.0035 37.5307 13.8675L44.1604 9.51892ZM45.7807 19.1057L46.2823 19.1801L46.2813 19.1791C46.6032 19.2278 46.8948 19.3963 47.0976 19.6509C47.3005 19.9055 47.3996 20.2273 47.3752 20.5519C47.3507 20.8765 47.2045 21.1799 46.9658 21.4012C46.7271 21.6226 46.4136 21.7455 46.088 21.7454H45.8609L38.1283 20.3535C37.7912 20.2929 37.492 20.1008 37.2965 19.8196C37.101 19.5383 37.0252 19.191 37.0858 18.8539C37.1465 18.5168 37.3385 18.2176 37.6198 18.0221C37.901 17.8266 38.2484 17.7508 38.5855 17.8114L45.7807 19.1057Z" fill="url(#paint0_linear_569_2589)"/>
<defs>
<linearGradient id="paint0_linear_569_2589" x1="8.59667" y1="9.76114" x2="41.753" y2="41.5012" gradientUnits="userSpaceOnUse">
<stop stop-color="#3E96F4"/>
<stop offset="1" stop-color="#FE5B52"/>
</linearGradient>
</defs>
</svg>
