<svg width="42" height="45" viewBox="0 0 42 45" fill="none" xmlns="http://www.w3.org/2000/svg">
<path fill-rule="evenodd" clip-rule="evenodd" d="M19.2191 5.69976V1.40625C19.2191 0.630001 19.8491 0 20.6253 0C21.4016 0 22.0316 0.630001 22.0316 1.40625V5.69984C28.6099 6.40384 33.7499 11.9877 33.7499 18.7499V23.9776C33.7499 27.6884 35.3755 31.1906 38.2086 33.587C38.9567 34.2245 39.3749 35.1336 39.3749 36.0939C39.3749 37.9032 37.903 39.375 36.0937 39.375H27.5152C26.862 42.5808 24.0211 45 20.6251 45C17.2291 45 14.3883 42.5808 13.7351 39.375H5.1562C3.34653 39.375 1.87471 37.9032 1.87471 36.0939C1.87441 35.62 1.97686 35.1516 2.17501 34.721C2.37315 34.2905 2.66228 33.908 3.02247 33.6C5.87409 31.1906 7.49972 27.6883 7.49972 23.9777V18.7499C7.49972 11.9875 12.6401 6.40341 19.2191 5.69976ZM39.8437 20.1561C39.0674 20.1561 38.4374 19.5261 38.4374 18.7499C38.4374 13.3648 36.3414 8.30422 32.535 4.49609C31.9857 3.94678 31.9857 3.05618 32.535 2.50686C33.0844 1.95755 33.9749 1.95755 34.5245 2.50686C38.8614 6.8455 41.2499 12.615 41.2499 18.7499C41.2499 19.5261 40.6199 20.1561 39.8437 20.1561ZM1.40625 20.1561C0.630001 20.1561 0 19.5261 0 18.7499C0 12.6151 2.38887 6.8455 6.72742 2.50862C7.27674 1.9593 8.16768 1.9593 8.717 2.50862C9.26632 3.05794 9.26632 3.94889 8.717 4.4982C4.90887 8.30422 2.8125 13.3648 2.8125 18.7499C2.8125 19.5261 2.1825 20.1561 1.40625 20.1561ZM5.1562 36.5625H14.9887L15.0001 36.5625L15.0116 36.5625H26.2387L26.2501 36.5625L26.2616 36.5625H36.0937C36.3484 36.5625 36.5624 36.3486 36.5624 36.0939C36.5624 35.9064 36.4594 35.7901 36.3972 35.7375C32.9266 32.8032 30.9374 28.5168 30.9374 23.9777V18.7499C30.9374 13.0631 26.3118 8.43751 20.625 8.43751C14.9378 8.43751 10.3122 13.0631 10.3122 18.7499V23.9776C10.3122 28.5168 8.32299 32.8032 4.85614 35.7337C4.79057 35.79 4.68721 35.9064 4.68721 36.0939C4.68721 36.3486 4.90114 36.5625 5.1562 36.5625ZM20.6251 42.1875C18.791 42.1875 17.2273 41.0123 16.6472 39.375H24.6031C24.0229 41.0123 22.459 42.1875 20.6251 42.1875Z" fill="url(#paint0_linear_569_2604)"/>
<defs>
<linearGradient id="paint0_linear_569_2604" x1="7.4846" y1="8.78906" x2="37.2784" y2="36.3671" gradientUnits="userSpaceOnUse">
<stop stop-color="#3E96F4"/>
<stop offset="1" stop-color="#FE5B52"/>
</linearGradient>
</defs>
</svg>
