<svg width="49" height="51" viewBox="0 0 49 51" fill="none" xmlns="http://www.w3.org/2000/svg">
<path fill-rule="evenodd" clip-rule="evenodd" d="M30.6421 3.59497C30.9724 3.59497 31.2892 3.46374 31.5228 3.23014C31.7564 2.99655 31.8877 2.67973 31.8877 2.34938V1.24559C31.8877 0.915241 31.7564 0.59842 31.5228 0.364826C31.2892 0.131232 30.9724 0 30.6421 0C30.3117 0 29.9949 0.131232 29.7613 0.364826C29.5277 0.59842 29.3965 0.915241 29.3965 1.24559V2.34938C29.3965 2.67973 29.5277 2.99655 29.7613 3.23014C29.9949 3.46374 30.3117 3.59497 30.6421 3.59497ZM42.1919 12.6523C41.8615 12.6523 41.5447 12.7836 41.3111 13.0172C41.0775 13.2508 40.9463 13.5676 40.9463 13.8979C40.9463 14.2283 41.0775 14.5451 41.3111 14.7787C41.5447 15.0123 41.8615 15.1435 42.1919 15.1435H43.2957C43.626 15.1435 43.9428 15.0123 44.1764 14.7787C44.41 14.5451 44.5413 14.2283 44.5413 13.8979C44.5413 13.5676 44.41 13.2508 44.1764 13.0172C43.9428 12.7836 43.626 12.6523 43.2957 12.6523H42.1919ZM35.8086 4.98233L35.7665 4.95838V4.95551C35.4896 4.78575 35.2899 4.51455 35.2101 4.19971C35.1303 3.88487 35.1766 3.55131 35.3391 3.27012L35.8958 2.30718C36.0609 2.02617 36.3294 1.82103 36.644 1.73577C36.9585 1.65051 37.294 1.69191 37.5783 1.85111L37.5927 1.85973C37.8784 2.02504 38.0869 2.29701 38.1722 2.6159C38.2575 2.93479 38.2128 3.27452 38.0478 3.56044L37.4959 4.51859C37.4148 4.66057 37.3063 4.78501 37.1767 4.88468C37.0471 4.98436 36.8989 5.05729 36.7409 5.09923C36.6346 5.12766 36.5251 5.14216 36.4151 5.14234C36.2025 5.14248 35.9935 5.08734 35.8086 4.98233ZM40.6475 9.36892C40.8651 9.36876 41.0788 9.31161 41.2674 9.20316L42.2255 8.65127C42.3672 8.56948 42.4914 8.46059 42.591 8.33081C42.6906 8.20103 42.7637 8.05291 42.806 7.89489C42.8484 7.73688 42.8592 7.57207 42.8378 7.40987C42.8165 7.24768 42.7634 7.09128 42.6816 6.9496C42.5998 6.80792 42.491 6.68374 42.3612 6.58414C42.2314 6.48454 42.0833 6.41148 41.9253 6.36913C41.6061 6.2836 41.2661 6.32834 40.98 6.49352L40.0218 7.04541C39.7845 7.18281 39.5992 7.39466 39.4946 7.64811C39.39 7.90156 39.3719 8.18245 39.4432 8.44721C39.5145 8.71196 39.6712 8.9458 39.8889 9.11245C40.1067 9.2791 40.3733 9.36925 40.6475 9.36892ZM23.9026 16.3978L22.1933 14.7354H22.2077C21.7887 14.3276 21.4922 13.8108 21.3516 13.2433C21.2111 12.6758 21.2321 12.0803 21.4124 11.5242C21.5926 10.968 21.9248 10.4734 22.3715 10.0962C22.8182 9.71906 23.3615 9.47438 23.94 9.38987L26.3028 9.04493C26.4049 9.02921 26.5018 8.98914 26.5851 8.92811C26.6685 8.86707 26.736 8.78686 26.7819 8.69425L27.8464 6.54417C28.1037 6.01937 28.5036 5.57761 29.0002 5.26939C29.4968 4.96118 30.0702 4.79896 30.6547 4.80129C31.2395 4.79958 31.813 4.96259 32.3095 5.27168C32.806 5.58076 33.2055 6.02342 33.4621 6.54896L34.516 8.69329C34.5618 8.78603 34.6293 8.86639 34.7126 8.92759C34.796 8.98879 34.8929 9.02904 34.9951 9.04493L37.3608 9.38987C37.9391 9.47421 38.4823 9.71862 38.929 10.0955C39.3757 10.4724 39.7081 10.9667 39.8886 11.5225C40.0691 12.0784 40.0905 12.6737 39.9505 13.2411C39.8104 13.8085 39.5144 14.3254 39.096 14.7335L37.3895 16.3978C37.3151 16.4705 37.2595 16.5602 37.2273 16.6591C37.1951 16.7581 37.1873 16.8633 37.2046 16.9659L37.607 19.3335C37.7044 19.9099 37.6387 20.5021 37.4173 21.0431C37.1958 21.5841 36.8275 22.0524 36.3538 22.3951C35.8802 22.7378 35.3202 22.9411 34.737 22.9822C34.1539 23.0233 33.5709 22.9005 33.0539 22.6276L30.946 21.5143C30.8533 21.4657 30.7502 21.4403 30.6456 21.4403C30.5409 21.4403 30.4379 21.4657 30.3452 21.5143L28.2306 22.6286C27.7133 22.9014 27.13 23.024 26.5467 22.9824C25.9634 22.9408 25.4034 22.7368 24.93 22.3934C24.4567 22.05 24.0889 21.5809 23.8684 21.0393C23.6479 20.4977 23.5834 19.9051 23.6822 19.3287L24.0866 16.9659C24.1046 16.8634 24.0972 16.758 24.0652 16.659C24.0331 16.56 23.9773 16.4703 23.9026 16.3978ZM35.1474 19.7503L34.745 17.3818H34.7479C34.6614 16.8821 34.6975 16.3689 34.853 15.8863C35.0085 15.4036 35.2789 14.9659 35.6409 14.6108L37.3474 12.9465C37.4335 12.8629 37.4944 12.7568 37.5233 12.6403C37.5522 12.5238 37.5478 12.4015 37.5107 12.2874C37.4736 12.1732 37.4052 12.0718 37.3133 11.9945C37.2214 11.9173 37.1097 11.8674 36.9909 11.8504L34.6253 11.5055C34.1227 11.4323 33.6455 11.2381 33.2347 10.9394C32.8239 10.6408 32.4919 10.2468 32.2673 9.79133L31.2133 7.647C31.1614 7.53879 31.0797 7.44756 30.978 7.38395C30.8762 7.32033 30.7584 7.28695 30.6384 7.28769C30.5184 7.2864 30.4005 7.31945 30.2986 7.38294C30.1968 7.44643 30.1152 7.53771 30.0635 7.64604L28.999 9.79516C28.7742 10.2498 28.4423 10.643 28.0319 10.9409C27.6215 11.2388 27.1448 11.4326 26.6429 11.5055L24.282 11.8504C24.1631 11.8672 24.0512 11.917 23.9593 11.9943C23.8673 12.0715 23.7989 12.1731 23.7618 12.2874C23.7247 12.4016 23.7205 12.524 23.7497 12.6406C23.7788 12.7571 23.8401 12.8631 23.9266 12.9465L25.635 14.6079C26.0002 14.9627 26.2734 15.4012 26.4308 15.8854C26.5883 16.3696 26.6252 16.8849 26.5385 17.3866L26.1341 19.7465C26.1135 19.8647 26.1264 19.9864 26.1715 20.0976C26.2165 20.2089 26.292 20.3053 26.3891 20.3758C26.4863 20.4462 26.6013 20.488 26.721 20.4964C26.8408 20.5047 26.9604 20.4793 27.0664 20.4229L29.182 19.3077C29.6325 19.0691 30.1344 18.9444 30.6441 18.9444C31.1539 18.9444 31.6558 19.0691 32.1063 19.3077L34.2142 20.421C34.3198 20.4767 34.4388 20.5019 34.5579 20.4937C34.677 20.4855 34.7915 20.4442 34.8884 20.3746C34.9854 20.3049 35.061 20.2096 35.1067 20.0993C35.1525 19.989 35.1666 19.8682 35.1474 19.7503ZM48.3231 25.5912C48.3042 25.1975 48.2034 24.8121 48.027 24.4597C47.8506 24.1073 47.6026 23.7956 47.2988 23.5446C46.3451 22.7666 45.1444 22.3559 43.9141 22.3869C42.6837 22.4178 41.5052 22.8883 40.5918 23.7132L35.206 28.6208C34.7507 28.1158 34.1938 27.7126 33.5718 27.4379C32.9498 27.1631 32.2767 27.0229 31.5967 27.0265H25.4962C24.7988 27.0287 24.1067 26.9064 23.4524 26.6653C21.6645 26.0032 18.1318 25.1111 14.5599 26.5857C13.8136 26.9039 13.12 27.3336 12.5027 27.8601L6.78161 32.6374C6.24859 32.4029 5.6572 32.3348 5.08482 32.442C4.51245 32.5492 3.98577 32.8267 3.57373 33.2381L0.84876 35.9593C0.579677 36.2283 0.366222 36.5476 0.220589 36.8991C0.0749569 37.2506 0 37.6273 0 38.0078C0 38.3883 0.0749569 38.765 0.220589 39.1165C0.366222 39.468 0.579677 39.7873 0.84876 40.0563L9.95117 49.1587C10.4951 49.7005 11.2315 50.0046 11.9992 50.0046C12.7669 50.0046 13.5033 49.7005 14.0472 49.1587L16.7655 46.428C17.266 45.9262 17.5655 45.2586 17.6075 44.5511C17.6496 43.8436 17.4312 43.1452 16.9936 42.5878L17.3404 42.2447C18.4902 41.095 20.0232 40.5 21.5563 40.6044C26.1103 40.9024 34.6465 40.5756 37.749 37.4684L47.4943 27.7221C47.7733 27.4442 47.9911 27.1112 48.1338 26.7442C48.2766 26.3772 48.341 25.9845 48.3231 25.5912ZM15.2497 40.8075L8.73432 34.2471L14.0999 29.7668C14.5232 29.4028 14.999 29.105 15.5113 28.8834C18.3005 27.7336 21.1414 28.4599 22.5872 28.9964C23.5188 29.3399 24.5042 29.5144 25.4971 29.5119H31.5957C31.9097 29.5114 32.2206 29.5731 32.5105 29.6935C32.8005 29.8139 33.0637 29.9906 33.2849 30.2133C33.5062 30.4361 33.681 30.7005 33.7994 30.9912C33.9179 31.282 33.9775 31.5933 33.9748 31.9073C33.9718 32.0147 33.9265 32.1166 33.8489 32.1909C33.7712 32.2651 33.6674 32.3058 33.5599 32.304H19.8584C19.5281 32.304 19.2112 32.4352 18.9776 32.6688C18.7441 32.9024 18.6128 33.2192 18.6128 33.5495C18.6128 33.8799 18.7441 34.1967 18.9776 34.4303C19.2112 34.6639 19.5281 34.7951 19.8584 34.7951H33.5599C34.3242 34.7955 35.0577 34.4946 35.6017 33.9578C36.1456 33.4211 36.4562 32.6916 36.466 31.9274C36.4686 31.5922 36.4365 31.2576 36.3702 30.929L42.2685 25.5548C42.7381 25.13 43.3444 24.8877 43.9774 24.8721C44.6104 24.8564 45.2279 25.0684 45.7179 25.4695C45.754 25.4989 45.7835 25.5357 45.8045 25.5773C45.8255 25.6189 45.8375 25.6645 45.8396 25.7111C45.8418 25.7576 45.8341 25.8041 45.8171 25.8475C45.8001 25.8909 45.7741 25.9303 45.7409 25.9629L35.9927 35.7083C33.6931 38.0078 26.1966 38.4121 21.7163 38.1199C20.5834 38.0564 19.45 38.2343 18.3912 38.642C17.3323 39.0497 16.3723 39.6778 15.5745 40.4846L15.2497 40.8075ZM11.7046 47.389L2.66253 38.346L2.60696 38.2895C2.56912 38.2519 2.53919 38.2071 2.51895 38.1577C2.49871 38.1083 2.48856 38.0554 2.48911 38.0021C2.48922 37.8943 2.53193 37.791 2.60792 37.7146L5.33289 34.9906C5.40934 34.9148 5.51266 34.8722 5.62034 34.8722C5.72801 34.8722 5.83133 34.9148 5.90778 34.9906L15.0044 44.0882C15.0809 44.1644 15.1239 44.2678 15.1242 44.3757C15.1247 44.4809 15.0837 44.5821 15.0102 44.6574L12.2804 47.3881C12.2044 47.4638 12.1017 47.5067 11.9944 47.5076C11.8871 47.5085 11.7838 47.4673 11.7065 47.3929L11.7046 47.389ZM24.1125 4.88575C23.9821 4.78589 23.8728 4.66102 23.7912 4.51844L23.2134 3.51239C23.0701 3.22431 23.0438 2.89194 23.14 2.58491C23.2363 2.27788 23.4476 2.02001 23.7298 1.86531C24.0119 1.71062 24.343 1.67111 24.6536 1.75506C24.9642 1.83901 25.2303 2.0399 25.3961 2.31566L25.948 3.27381C26.1129 3.55985 26.1575 3.89966 26.072 4.21857C25.9865 4.53747 25.7778 4.80937 25.4919 4.97452C25.3037 5.08423 25.0898 5.14208 24.872 5.1422C24.7636 5.14192 24.6558 5.12775 24.551 5.10004C24.3921 5.05846 24.243 4.98561 24.1125 4.88575ZM17.9907 15.1435H19.0935C19.4239 15.1435 19.7407 15.0123 19.9743 14.7787C20.2079 14.5451 20.3391 14.2283 20.3391 13.8979C20.3391 13.5676 20.2079 13.2508 19.9743 13.0172C19.7407 12.7836 19.4239 12.6523 19.0935 12.6523H17.9907C17.6604 12.6523 17.3435 12.7836 17.1099 13.0172C16.8763 13.2508 16.7451 13.5676 16.7451 13.8979C16.7451 14.2283 16.8763 14.5451 17.1099 14.7787C17.3435 15.0123 17.6604 15.1435 17.9907 15.1435ZM20.0231 9.20282L19.065 8.65093C18.7814 8.48713 18.5737 8.21823 18.4869 7.90243C18.4001 7.58664 18.4412 7.24937 18.6012 6.96363L18.6137 6.94064C18.7803 6.65723 19.0521 6.45116 19.37 6.36735C19.6878 6.28353 20.0259 6.32876 20.3106 6.49318L21.2687 7.04508C21.4104 7.12686 21.5346 7.23575 21.6342 7.36553C21.7338 7.49531 21.8068 7.64344 21.8492 7.80145C21.8915 7.95947 21.9024 8.12428 21.881 8.28647C21.8597 8.44867 21.8066 8.60507 21.7248 8.74675C21.643 8.88843 21.5341 9.01261 21.4044 9.11221C21.2746 9.2118 21.1264 9.28486 20.9684 9.32721C20.8104 9.36956 20.6456 9.38038 20.4834 9.35903C20.3212 9.33769 20.1648 9.28461 20.0231 9.20282Z" fill="url(#paint0_linear_569_2564)"/>
<defs>
<linearGradient id="paint0_linear_569_2564" x1="8.76852" y1="9.76658" x2="41.965" y2="42.1623" gradientUnits="userSpaceOnUse">
<stop stop-color="#3E96F4"/>
<stop offset="1" stop-color="#FE5B52"/>
</linearGradient>
</defs>
</svg>
