<svg width="183" height="32" viewBox="0 0 183 32" fill="none" xmlns="http://www.w3.org/2000/svg">
<path d="M2.96675 15.2737L0.589066 24.1357H12.3557L17.1705 6.10796L2.96675 15.2737ZM43.8398 7.47156C43.5522 8.54001 42.9981 9.32483 42.1716 9.82599C41.3471 10.3262 40.1899 10.5773 38.6962 10.5773H33.9504L35.6167 4.36776H40.3625C41.8543 4.36776 42.8792 4.61691 43.4352 5.12478C43.9913 5.63266 44.1255 6.40885 43.8398 7.4821M48.7534 7.34794C49.3574 5.10562 49.1081 3.38075 48.0037 2.17335C46.9011 0.975528 44.9664 0.371826 42.2052 0.371826H31.614L25.2383 24.1462H30.3839L32.9533 14.5636H36.3281C37.0855 14.5636 37.6818 14.6882 38.1171 14.9278C38.5533 15.1769 38.8093 15.6081 38.8879 16.231L39.8064 24.1462H45.3192L44.4256 16.7676C44.2435 15.1194 43.4889 14.1516 42.163 13.8641C43.8533 13.3754 45.2693 12.5609 46.4102 11.4301C47.5432 10.3076 48.3526 8.90081 48.7534 7.35752M61.2611 15.6369C60.8297 17.2467 60.1682 18.4637 59.2737 19.3166C58.3782 20.1694 57.3082 20.5911 56.06 20.5911C54.7887 20.5911 53.9268 20.179 53.4714 19.3453C53.015 18.5116 52.9997 17.3042 53.4234 15.7231C53.8472 14.142 54.5231 12.9058 55.4531 12.0147C56.3831 11.1235 57.4703 10.6779 58.7186 10.6779C59.9649 10.6779 60.8182 11.1091 61.2496 11.9648C61.6907 12.8244 61.7002 14.0538 61.2688 15.6541L61.2611 15.6369ZM63.5161 7.22337L62.8718 9.62859C62.5938 8.76616 62.054 8.07622 61.2563 7.55876C60.4568 7.05088 59.4673 6.79215 58.2871 6.79215C56.8394 6.79215 55.4492 7.16587 54.1166 7.91331C52.7839 8.66075 51.6143 9.71484 50.6172 11.0756C49.6201 12.4363 48.8914 13.9791 48.4217 15.7135C47.9615 17.4576 47.8656 18.9812 48.1436 20.3036C48.4313 21.6356 49.0353 22.6513 49.9652 23.3604C50.9048 24.0791 52.1032 24.4337 53.5701 24.4337C54.7357 24.4396 55.8882 24.1876 56.9449 23.6958C57.9896 23.2248 58.9189 22.5315 59.6677 21.6643L58.9966 24.1711H63.9725L68.5159 7.23199H63.5305L63.5161 7.22337ZM86.3965 7.22337H71.9262L70.9147 10.9989H79.3344L68.2034 20.6102L67.2523 24.1558H82.1895L83.201 20.3802H74.1792L85.4809 10.6252M99.1334 15.6081C98.6856 17.2755 98.0212 18.5289 97.144 19.3453C96.2667 20.1694 95.2044 20.5815 93.9571 20.5815C91.3493 20.5815 90.4922 18.9237 91.3819 15.6081C91.823 13.9599 92.4902 12.7209 93.3819 11.8862C94.2735 11.0487 95.354 10.6309 96.6243 10.6309C97.8707 10.6309 98.7125 11.0459 99.1458 11.8815C99.5792 12.7151 99.5753 13.958 99.1334 15.6062M102.046 7.86061C100.9 7.14766 99.4382 6.79119 97.655 6.79119C95.8497 6.79119 94.1786 7.14575 92.6408 7.85486C91.1093 8.55953 89.7634 9.61144 88.7099 10.927C87.6265 12.259 86.8471 13.821 86.3687 15.6033C85.8989 17.379 85.8414 18.9381 86.2057 20.2729C86.57 21.6049 87.337 22.6302 88.4875 23.3393C89.6476 24.0542 91.124 24.4097 92.9361 24.4097C94.7193 24.4097 96.3779 24.0513 97.9023 23.3384C99.4267 22.6216 100.731 21.6039 101.814 20.2624C102.897 18.9266 103.674 17.3684 104.153 15.5861C104.633 13.8037 104.69 12.2475 104.326 10.9098C103.962 9.57781 103.204 8.55247 102.063 7.83857M119.81 11.7483L121.085 7.13904C120.653 6.91864 120.088 6.80365 119.378 6.80365C118.237 6.80365 117.144 7.08538 116.09 7.6565C115.183 8.14138 114.412 8.82557 113.76 9.68226L114.421 7.20037L112.977 7.20612H109.429L104.856 24.1385H109.902L112.275 15.2871C112.62 14.0002 113.241 12.9873 114.138 12.2686C115.029 11.547 116.141 11.1858 117.484 11.1858C118.308 11.1858 119.075 11.3745 119.804 11.7511M133.849 15.6896C133.418 17.2707 132.766 18.4781 131.874 19.3118C130.983 20.1493 129.909 20.5671 128.663 20.5671C127.416 20.5671 126.563 20.1455 126.112 19.3022C125.652 18.4541 125.643 17.2324 126.074 15.6263C126.505 14.0212 127.167 12.7899 128.078 11.937C128.989 11.0775 130.062 10.6482 131.309 10.6482C132.536 10.6482 133.36 11.089 133.801 11.9802C134.242 12.8713 134.252 14.1075 133.828 15.6886M137.356 7.8884C136.422 7.14096 135.228 6.76724 133.78 6.76724C132.512 6.76724 131.303 7.05471 130.156 7.63542C129.011 8.21516 128.081 9.00572 127.366 10.0061L127.384 9.89116L128.23 7.19845H123.302L122.046 11.8843L122.008 12.0472L116.831 31.3504H121.883L124.491 21.6336C124.75 22.498 125.277 23.1764 126.083 23.6671C126.888 24.1558 127.882 24.3982 129.064 24.3982C130.531 24.3982 131.931 24.0437 133.259 23.3346C134.591 22.6235 135.742 21.6001 136.72 20.2777C137.698 18.9553 138.424 17.4221 138.887 15.6877C139.356 13.9503 139.452 12.4008 139.184 11.0449C138.911 9.68705 138.306 8.63584 137.372 7.89223M154.116 15.6206C153.685 17.2209 153.023 18.4474 152.132 19.2907C151.24 20.1397 150.166 20.5623 148.92 20.5623C147.645 20.5623 146.782 20.1503 146.331 19.3166C145.871 18.4829 145.861 17.2755 146.283 15.6944C146.705 14.1132 147.378 12.8771 148.308 11.9859C149.238 11.0947 150.326 10.6501 151.575 10.6501C152.821 10.6501 153.665 11.0813 154.106 11.9342C154.547 12.7899 154.55 14.0193 154.12 15.6235L154.116 15.6206ZM156.369 7.20229L155.724 9.60751C155.446 8.74029 154.909 8.05034 154.113 7.53768C153.308 7.02597 152.321 6.77107 151.141 6.77107C149.694 6.77107 148.296 7.14479 146.961 7.89223C145.629 8.63967 144.459 9.688 143.462 11.0449C142.465 12.4018 141.736 13.9484 141.266 15.6829C140.801 17.424 140.71 18.9505 140.988 20.2787C141.269 21.6011 141.874 22.6226 142.81 23.3355C143.744 24.0446 144.948 24.403 146.415 24.403C147.594 24.403 148.72 24.1577 149.789 23.6651C150.832 23.192 151.759 22.4978 152.506 21.6308L151.834 24.1395H156.81L161.353 7.20708H156.377L156.369 7.20229ZM182.243 7.20803L182.246 7.20324H179.187C179.09 7.20324 179.003 7.20803 178.914 7.20995H177.327L176.512 8.3407L176.311 8.60901L176.225 8.74316L169.777 17.7201L168.445 7.20803H163.164L165.839 23.1822L159.933 31.3561H165.196L166.625 29.3313C166.665 29.2719 166.702 29.2221 166.75 29.1588L168.418 26.7919L168.466 26.7249L175.937 16.1361L182.236 7.22432L182.246 7.21858H182.243V7.20803Z" fill="#082753"/>
</svg>
