<svg width="54" height="54" viewBox="0 0 54 54" fill="none" xmlns="http://www.w3.org/2000/svg">
<path d="M28.7241 1.68618C29.1579 1.68618 29.574 1.85852 29.8807 2.16526C30.1874 2.47199 30.3597 2.88799 30.3597 3.32178V4.80563C30.3545 5.55736 30.5909 6.2909 31.0341 6.89808C31.4774 7.50525 32.104 7.95394 32.8215 8.178C33.378 8.34661 33.9344 8.54897 34.5077 8.77661L31.6328 11.6515C28.448 10.7002 25.047 10.7562 21.8951 11.8117C21.2062 12.0423 20.5354 12.3241 19.8886 12.6548C16.7527 14.2141 14.2082 16.7497 12.6379 19.8801C12.3024 20.5393 12.0205 21.2244 11.7948 21.9288C10.6706 25.2479 10.6706 28.8449 11.7948 32.164C12.0181 32.8584 12.3001 33.5325 12.6379 34.179C14.2102 37.3261 16.7601 39.8789 19.9054 41.4548C20.548 41.776 21.2097 42.0576 21.8867 42.2979C25.0056 43.3483 28.3714 43.419 31.5316 42.5003L34.3729 45.274C33.8501 45.4876 33.3274 45.6731 32.8047 45.8304C32.0873 46.0536 31.461 46.5024 31.019 47.1099C30.577 47.7175 30.3428 48.4515 30.3513 49.2028V50.6445C30.3513 50.8593 30.309 51.072 30.2268 51.2704C30.1446 51.4689 30.0242 51.6491 29.8723 51.801C29.7204 51.9529 29.5401 52.0734 29.3416 52.1556C29.1432 52.2378 28.9305 52.2801 28.7157 52.2801H25.2422C24.8084 52.2801 24.3924 52.1078 24.0856 51.801C23.7789 51.4943 23.6066 51.0783 23.6066 50.6445V49.1944C23.6159 48.4417 23.381 47.7062 22.9372 47.0983C22.4934 46.4903 21.8645 46.0425 21.1448 45.822C19.9788 45.4671 18.8495 45.0012 17.7724 44.4309C17.2735 44.1671 16.718 44.0283 16.1537 44.0263C15.2205 44.0316 14.327 44.4041 13.6665 45.0632L12.6548 46.1171C12.3417 46.4136 11.9268 46.5788 11.4956 46.5788C11.0643 46.5788 10.6495 46.4136 10.3363 46.1171L7.88295 43.6553C7.73051 43.504 7.60952 43.3241 7.52696 43.1258C7.44439 42.9276 7.40186 42.715 7.40186 42.5003C7.40186 42.2855 7.44439 42.0729 7.52696 41.8746C7.60952 41.6764 7.73051 41.4965 7.88295 41.3452L8.90305 40.3251C9.43562 39.7995 9.78472 39.1163 9.89861 38.3768C10.0125 37.6372 9.88512 36.8807 9.53537 36.2192C8.96192 35.1415 8.49056 34.0124 8.12742 32.8469C7.90514 32.1295 7.45637 31.5036 6.84838 31.0628C6.24039 30.622 5.50593 30.3901 4.75506 30.4019H3.30497C2.87118 30.4019 2.45512 30.2296 2.14839 29.9228C1.84166 29.6161 1.66937 29.2001 1.66937 28.7663V25.3012C1.66937 24.854 1.84699 24.4251 2.16321 24.1089C2.47943 23.7927 2.90835 23.615 3.35555 23.615H4.7972C5.54882 23.6249 6.28349 23.3912 6.89135 22.949C7.4992 22.5068 7.94758 21.8798 8.16957 21.1616C8.53271 19.9961 9.00412 18.867 9.57757 17.7893C9.93006 17.1314 10.059 16.3766 9.94493 15.639C9.83086 14.9014 9.47999 14.2209 8.94525 13.7002L7.91665 12.6632C7.61084 12.3566 7.43912 11.9413 7.43912 11.5082C7.43912 11.0752 7.61084 10.6598 7.91665 10.3532L10.3701 7.89976C10.5205 7.74627 10.7003 7.62464 10.8987 7.54208C11.0971 7.45952 11.3102 7.41771 11.5251 7.41919C11.7412 7.41848 11.9552 7.46062 12.1549 7.5431C12.3546 7.62559 12.536 7.74678 12.6886 7.89976L13.7087 8.91992C14.3659 9.57782 15.2575 9.94777 16.1874 9.94847C16.7459 9.95107 17.2964 9.81494 17.7893 9.55224C18.8711 8.98978 19.9994 8.52151 21.1616 8.15268C21.8799 7.9298 22.5073 7.48144 22.9507 6.87399C23.3942 6.26655 23.63 5.53236 23.6234 4.78031V3.33022C23.6234 3.11543 23.6657 2.90275 23.7479 2.70431C23.8301 2.50587 23.9506 2.32555 24.1025 2.17367C24.2544 2.02179 24.4347 1.90132 24.6331 1.81912C24.8315 1.73693 25.0443 1.69462 25.259 1.69462H28.7326M28.7326 0.00843915H25.259C24.3821 0.0214972 23.5448 0.375673 22.9246 0.995819C22.3045 1.61597 21.9503 2.4533 21.9373 3.33022V4.80563C21.9405 5.19244 21.8193 5.57004 21.5916 5.88275C21.3639 6.19546 21.0418 6.42672 20.6726 6.5424C19.4019 6.93785 18.1689 7.4457 16.9883 8.05995C16.7282 8.19557 16.4386 8.26506 16.1452 8.26228C15.6623 8.26073 15.1993 8.07005 14.8553 7.73113L13.8352 6.71103C13.5266 6.40156 13.16 6.15603 12.7563 5.9885C12.3527 5.82097 11.9199 5.73471 11.4829 5.73471C11.0459 5.73471 10.6132 5.82097 10.2095 5.9885C9.80589 6.15603 9.43928 6.40156 9.1307 6.71103L6.67733 9.1644C6.05489 9.78728 5.70523 10.6319 5.70523 11.5124C5.70523 12.393 6.05489 13.2375 6.67733 13.8604L7.69744 14.889C7.97431 15.16 8.15659 15.5129 8.21732 15.8955C8.27806 16.2782 8.21404 16.6702 8.0347 17.0136C7.42569 18.1778 6.92883 19.3974 6.55085 20.6557C6.434 21.0242 6.20247 21.3456 5.89002 21.5731C5.57757 21.8006 5.20058 21.9223 4.81408 21.9204H3.37238C2.47797 21.9204 1.62019 22.2757 0.987751 22.9081C0.35531 23.5406 1.07533e-05 24.3983 1.07533e-05 25.2927V28.7578C-0.00110144 29.1944 0.0840711 29.6268 0.250612 30.0303C0.417153 30.4339 0.661784 30.8005 0.970461 31.1092C1.27914 31.4178 1.64576 31.6625 2.04928 31.8291C2.4528 31.9956 2.88526 32.0807 3.32179 32.0796H4.77194C5.15843 32.0777 5.53543 32.1994 5.84788 32.4269C6.16032 32.6544 6.39186 32.9758 6.5087 33.3442C6.89978 34.6178 7.41073 35.8514 8.0347 37.0286C8.2127 37.3723 8.276 37.764 8.21531 38.1463C8.15463 38.5286 7.97314 38.8814 7.69744 39.1532L6.67733 40.1733C6.05489 40.7962 5.70523 41.6407 5.70523 42.5213C5.70523 43.4019 6.05489 44.2465 6.67733 44.8693L9.1307 47.3312C9.76033 47.944 10.6043 48.2869 11.4829 48.2869C12.3616 48.2869 13.2055 47.944 13.8352 47.3312L14.8553 46.311C15.1986 45.9639 15.6655 45.7668 16.1537 45.763C16.4483 45.7584 16.739 45.8311 16.9968 45.9738C18.1705 46.5966 19.4014 47.1047 20.6726 47.4913C21.041 47.6082 21.3625 47.8397 21.59 48.1522C21.8175 48.4646 21.9392 48.8416 21.9373 49.2281V50.6782C21.9362 51.1147 22.0213 51.5472 22.1879 51.9507C22.3544 52.3542 22.599 52.7209 22.9077 53.0295C23.2164 53.3382 23.583 53.5829 23.9865 53.7494C24.3901 53.916 24.8225 54.0011 25.259 54H28.7326C29.1691 54.0011 29.6016 53.916 30.0051 53.7494C30.4086 53.5829 30.7752 53.3382 31.0839 53.0295C31.3926 52.7209 31.6372 52.3542 31.8038 51.9507C31.9703 51.5472 32.0555 51.1147 32.0544 50.6782V49.2366C32.0506 48.8486 32.1715 48.4697 32.3991 48.1556C32.6268 47.8414 32.9492 47.6086 33.319 47.4913C34.5924 47.1033 35.826 46.5951 37.0033 45.9738C37.0963 45.9223 37.1955 45.8826 37.2984 45.8557L31.9532 40.5105C31.836 40.567 31.7148 40.6149 31.5907 40.6539C28.6091 41.6545 25.3825 41.6545 22.401 40.6539C21.7907 40.443 21.1938 40.1953 20.6136 39.912C17.8006 38.5086 15.5215 36.2266 14.1218 33.4117C13.8243 32.8351 13.5761 32.2344 13.3799 31.6159C12.3681 28.6391 12.3681 25.4114 13.3799 22.4346C13.5745 21.8129 13.8228 21.2093 14.1218 20.6305C15.5169 17.8164 17.7977 15.5385 20.6136 14.1471C21.1888 13.8504 21.7864 13.5995 22.401 13.3967C25.3825 12.3962 28.6091 12.3962 31.5907 13.3967L32.0628 13.5654L37.408 8.22858C37.2702 8.1943 37.1372 8.14334 37.0117 8.07683C35.8308 7.45481 34.5945 6.94395 33.319 6.55084C32.9499 6.43516 32.6277 6.2039 32.4 5.89119C32.1723 5.57848 32.0511 5.20088 32.0544 4.81407V3.36393C32.0544 2.48294 31.7044 1.63804 31.0814 1.01509C30.4585 0.392136 29.6136 0.04217 28.7326 0.04217V0.00843915Z" fill="url(#paint0_linear_0_880)"/>
<path d="M26.9958 21.0773C27.6376 21.0758 28.2753 21.1783 28.8843 21.3808C29.1361 21.4668 29.3812 21.5711 29.6178 21.6928C30.7739 22.2716 31.7116 23.2092 32.2904 24.3654C32.4103 24.6017 32.5118 24.8469 32.5939 25.0988C32.7962 25.705 32.8987 26.3399 32.8974 26.9789C32.9002 27.6215 32.7947 28.2599 32.5855 28.8674C32.5061 29.1204 32.4046 29.3658 32.282 29.6009C31.7064 30.7544 30.7713 31.6895 29.6178 32.2651C29.3733 32.3831 29.1288 32.4843 28.8759 32.5771C27.6502 32.9871 26.3245 32.9871 25.0988 32.5771C24.8492 32.4961 24.6067 32.3946 24.3738 32.2736C23.2153 31.694 22.277 30.7529 21.7012 29.5925C21.5798 29.3598 21.4783 29.1172 21.3977 28.8674C20.9876 27.6389 20.9876 26.3105 21.3977 25.082C21.4787 24.8351 21.5802 24.5954 21.7012 24.3654C22.275 23.2056 23.214 22.2666 24.3738 21.6928C25.1844 21.2856 26.0803 21.0775 26.9874 21.0857M26.9874 19.3995C26.1617 19.3967 25.3412 19.5306 24.5592 19.7958C24.2341 19.9017 23.9183 20.0342 23.615 20.192C22.1278 20.9272 20.9224 22.1296 20.1836 23.615C20.0299 23.9192 19.9003 24.2349 19.7958 24.5592C19.2657 26.1317 19.2657 27.8346 19.7958 29.407C19.8988 29.7347 20.0284 30.0533 20.1836 30.3597C20.9224 31.8451 22.1278 33.0475 23.615 33.7827C23.9199 33.937 24.2355 34.0695 24.5592 34.1789C26.1317 34.709 27.8346 34.709 29.407 34.1789C29.7335 34.0695 30.0519 33.937 30.3597 33.7827C31.8438 33.046 33.046 31.8438 33.7827 30.3597C33.937 30.0519 34.0695 29.7335 34.179 29.407C34.709 27.8346 34.709 26.1317 34.179 24.5592C34.068 24.2361 33.9355 23.9206 33.7827 23.615C33.046 22.1309 31.8438 20.9287 30.3597 20.192C30.0535 20.0341 29.7349 19.9016 29.407 19.7958C28.628 19.5306 27.8103 19.3967 26.9874 19.3995Z" fill="url(#paint1_linear_0_880)"/>
<path d="M48.9078 1.68618C49.2747 1.68609 49.6392 1.74591 49.9869 1.86325C50.1331 1.90775 50.2744 1.96707 50.4085 2.04029C51.0742 2.36709 51.6113 2.90723 51.9345 3.5747C52.0051 3.70714 52.0643 3.84538 52.1115 3.98786C52.2234 4.33374 52.2803 4.69502 52.2801 5.05855C52.2802 5.4255 52.2204 5.79004 52.1031 6.13773C52.0579 6.2824 52.0015 6.42334 51.9345 6.55928C51.6052 7.21822 51.0692 7.75121 50.4085 8.07683C50.2695 8.14595 50.1258 8.20513 49.9785 8.2539C49.6341 8.37258 49.2721 8.4324 48.9078 8.43091C48.5408 8.431 48.1763 8.37123 47.8286 8.2539C47.6865 8.20566 47.5484 8.14644 47.4155 8.07683C46.7489 7.74838 46.2095 7.20896 45.8811 6.5424C45.8133 6.4097 45.7569 6.27151 45.7125 6.12929C45.595 5.78454 45.5352 5.42276 45.5354 5.05855C45.5352 4.68263 45.5979 4.30934 45.7209 3.9541C45.7657 3.81746 45.8221 3.68492 45.8895 3.55787C46.2163 2.89219 46.7564 2.35498 47.4239 2.03185C47.5564 1.96359 47.6946 1.90718 47.837 1.86325C48.1815 1.74456 48.5434 1.68469 48.9078 1.68618ZM48.9078 7.82574e-07C48.3577 0.000423705 47.8113 0.0886513 47.289 0.261357C47.0761 0.33614 46.8678 0.423434 46.6652 0.522739C45.6743 1.01408 44.8717 1.81662 44.3804 2.80751C44.2725 3.0091 44.1849 3.22091 44.119 3.43983C43.9388 3.96044 43.8476 4.50765 43.8492 5.05855C43.8476 5.6067 43.9388 6.15119 44.119 6.66888C44.1849 6.8878 44.2725 7.09961 44.3804 7.3012C44.8702 8.29523 45.6729 9.10088 46.6652 9.59438C46.8675 9.68712 47.0783 9.77986 47.289 9.85574C48.34 10.2043 49.4755 10.2043 50.5265 9.85574C50.7372 9.77986 50.9565 9.68712 51.1588 9.59438C52.151 9.10088 52.9537 8.29523 53.4436 7.3012C53.5444 7.09635 53.6317 6.88513 53.7049 6.66888C53.8786 6.14979 53.9669 5.60592 53.9663 5.05855C53.9666 4.50844 53.8784 3.96189 53.7049 3.43983C53.6317 3.22358 53.5444 3.01236 53.4436 2.80751C52.9523 1.81662 52.1497 1.01408 51.1588 0.522739C50.9533 0.423465 50.7421 0.336175 50.5265 0.261357C50.0044 0.087943 49.4579 -0.000303181 48.9078 7.82574e-07Z" fill="url(#paint2_linear_0_880)"/>
<path d="M48.9078 45.5269C49.2747 45.5268 49.6392 45.5867 49.9869 45.704C50.1331 45.7485 50.2744 45.8078 50.4085 45.881C51.0742 46.2078 51.6113 46.748 51.9345 47.4154C52.0051 47.5479 52.0643 47.6861 52.1115 47.8286C52.2234 48.1745 52.2803 48.5358 52.2801 48.8993C52.2802 49.2663 52.2204 49.6308 52.1031 49.9785C52.0579 50.1231 52.0015 50.2641 51.9345 50.4C51.6052 51.059 51.0692 51.592 50.4085 51.9176C50.2695 51.9867 50.1258 52.0459 49.9785 52.0946C49.6341 52.2133 49.2721 52.2732 48.9078 52.2717C48.5408 52.2718 48.1763 52.212 47.8286 52.0946C47.6852 52.0501 47.5467 51.9907 47.4155 51.9176C46.7489 51.5891 46.2095 51.0497 45.8811 50.3831C45.8133 50.2504 45.7569 50.1123 45.7125 49.97C45.595 49.6253 45.5352 49.2635 45.5354 48.8993C45.5352 48.5234 45.5979 48.1501 45.7209 47.7948C45.7657 47.6582 45.8221 47.5257 45.8895 47.3986C46.2163 46.7329 46.7564 46.1958 47.4239 45.8726C47.5564 45.8044 47.6946 45.7479 47.837 45.704C48.1815 45.5853 48.5434 45.5254 48.9078 45.5269ZM48.9078 43.8407C48.3577 43.8412 47.8113 43.9294 47.289 44.1021C47.0761 44.1769 46.8678 44.2642 46.6652 44.3635C45.6743 44.8548 44.8717 45.6574 44.3804 46.6483C44.2725 46.8498 44.1849 47.0617 44.119 47.2806C43.9388 47.8012 43.8476 48.3484 43.8492 48.8993C43.8476 49.4474 43.9388 49.9919 44.119 50.5096C44.1849 50.7285 44.2725 50.9404 44.3804 51.1419C44.8702 52.136 45.6729 52.9416 46.6652 53.4351C46.8675 53.5279 47.0783 53.6206 47.289 53.6965C48.34 54.045 49.4755 54.045 50.5265 53.6965C50.7372 53.6206 50.9565 53.5279 51.1588 53.4351C52.151 52.9416 52.9537 52.136 53.4436 51.1419C53.5444 50.9371 53.6317 50.7259 53.7049 50.5096C53.8786 49.9905 53.9669 49.4467 53.9663 48.8993C53.9666 48.3492 53.8784 47.8026 53.7049 47.2806C53.6317 47.0643 53.5444 46.8531 53.4436 46.6483C52.9523 45.6574 52.1497 44.8548 51.1588 44.3635C50.9533 44.2642 50.7421 44.1769 50.5265 44.1021C50.0044 43.9287 49.4579 43.8404 48.9078 43.8407Z" fill="url(#paint3_linear_0_880)"/>
<path d="M48.9078 23.6066C49.2747 23.6065 49.6392 23.6663 49.9869 23.7836C50.1331 23.8281 50.2744 23.8874 50.4085 23.9606C51.0742 24.2874 51.6113 24.8276 51.9345 25.4951C52.0051 25.6275 52.0643 25.7658 52.1115 25.9082C52.2234 26.2541 52.2803 26.6154 52.2801 26.9789C52.2802 27.3459 52.2204 27.7104 52.1031 28.0581C52.0579 28.2028 52.0015 28.3437 51.9345 28.4796C51.6052 29.1386 51.0692 29.6716 50.4085 29.9972C50.2695 30.0663 50.1258 30.1255 49.9785 30.1743C49.6341 30.293 49.2721 30.3528 48.9078 30.3513C48.5408 30.3514 48.1763 30.2916 47.8286 30.1743C47.6865 30.126 47.5484 30.0668 47.4155 29.9972C46.7489 29.6687 46.2095 29.1293 45.8811 28.4628C45.8133 28.3301 45.7569 28.1919 45.7125 28.0497C45.595 27.7049 45.5352 27.3431 45.5354 26.9789C45.5352 26.603 45.5979 26.2297 45.7209 25.8745C45.7657 25.7378 45.8221 25.6053 45.8895 25.4782C46.2163 24.8126 46.7564 24.2754 47.4239 23.9523C47.5564 23.884 47.6946 23.8276 47.837 23.7836C48.1815 23.6649 48.5434 23.6051 48.9078 23.6066ZM48.9078 21.9204C48.3577 21.9208 47.8113 22.009 47.289 22.1817C47.0761 22.2565 46.8678 22.3438 46.6652 22.4431C45.6743 22.9344 44.8717 23.737 44.3804 24.7279C44.2725 24.9295 44.1849 25.1413 44.119 25.3602C43.9388 25.8808 43.8476 26.428 43.8492 26.9789C43.8476 27.5271 43.9388 28.0716 44.119 28.5893C44.1849 28.8082 44.2725 29.02 44.3804 29.2216C44.8702 30.2156 45.6729 31.0213 46.6652 31.5148C46.8675 31.6075 47.0783 31.7002 47.289 31.7761C48.34 32.1246 49.4755 32.1246 50.5265 31.7761C50.7372 31.7002 50.9565 31.6075 51.1588 31.5148C52.151 31.0213 52.9537 30.2156 53.4436 29.2216C53.5444 29.0167 53.6317 28.8055 53.7049 28.5893C53.8786 28.0702 53.9669 27.5263 53.9663 26.9789C53.9666 26.4288 53.8784 25.8823 53.7049 25.3602C53.6317 25.144 53.5444 24.9327 53.4436 24.7279C52.9523 23.737 52.1497 22.9344 51.1588 22.4431C50.9533 22.3438 50.7421 22.2565 50.5265 22.1817C50.0044 22.0083 49.4579 21.9201 48.9078 21.9204Z" fill="url(#paint4_linear_0_880)"/>
<path fill-rule="evenodd" clip-rule="evenodd" d="M45.6004 7.03738L30.9643 21.6735L29.772 20.4811L44.4081 5.84507L45.6004 7.03738Z" fill="url(#paint5_linear_0_880)"/>
<path fill-rule="evenodd" clip-rule="evenodd" d="M47.9948 9.69312L33.3334 24.3545L32.1411 23.1622L46.8025 8.50081L47.9948 9.69312Z" fill="url(#paint6_linear_0_880)"/>
<path fill-rule="evenodd" clip-rule="evenodd" d="M44.4081 47.9948L29.772 33.3587L30.9643 32.1664L45.6004 46.8024L44.4081 47.9948Z" fill="url(#paint7_linear_0_880)"/>
<path fill-rule="evenodd" clip-rule="evenodd" d="M46.8026 45.3308L32.1413 30.6778L33.3332 29.4852L47.9946 44.1381L46.8026 45.3308Z" fill="url(#paint8_linear_0_880)"/>
<path fill-rule="evenodd" clip-rule="evenodd" d="M44.8103 26.0347H33.7152V24.3485H44.8103V26.0347Z" fill="url(#paint9_linear_0_880)"/>
<path fill-rule="evenodd" clip-rule="evenodd" d="M44.7092 29.6094H33.5972V27.9232H44.7092V29.6094Z" fill="url(#paint10_linear_0_880)"/>
<defs>
<linearGradient id="paint0_linear_0_880" x1="8.35387" y1="6.74624" x2="45.4566" y2="43.5016" gradientUnits="userSpaceOnUse">
<stop stop-color="#FE5B52"/>
<stop offset="1" stop-color="#3E96F4"/>
</linearGradient>
<linearGradient id="paint1_linear_0_880" x1="8.35387" y1="6.74624" x2="45.4566" y2="43.5016" gradientUnits="userSpaceOnUse">
<stop stop-color="#FE5B52"/>
<stop offset="1" stop-color="#3E96F4"/>
</linearGradient>
<linearGradient id="paint2_linear_0_880" x1="8.35387" y1="6.74624" x2="45.4566" y2="43.5016" gradientUnits="userSpaceOnUse">
<stop stop-color="#FE5B52"/>
<stop offset="1" stop-color="#3E96F4"/>
</linearGradient>
<linearGradient id="paint3_linear_0_880" x1="8.35387" y1="6.74624" x2="45.4566" y2="43.5016" gradientUnits="userSpaceOnUse">
<stop stop-color="#FE5B52"/>
<stop offset="1" stop-color="#3E96F4"/>
</linearGradient>
<linearGradient id="paint4_linear_0_880" x1="8.35387" y1="6.74624" x2="45.4566" y2="43.5016" gradientUnits="userSpaceOnUse">
<stop stop-color="#FE5B52"/>
<stop offset="1" stop-color="#3E96F4"/>
</linearGradient>
<linearGradient id="paint5_linear_0_880" x1="8.35387" y1="6.74624" x2="45.4566" y2="43.5016" gradientUnits="userSpaceOnUse">
<stop stop-color="#FE5B52"/>
<stop offset="1" stop-color="#3E96F4"/>
</linearGradient>
<linearGradient id="paint6_linear_0_880" x1="8.35387" y1="6.74624" x2="45.4566" y2="43.5016" gradientUnits="userSpaceOnUse">
<stop stop-color="#FE5B52"/>
<stop offset="1" stop-color="#3E96F4"/>
</linearGradient>
<linearGradient id="paint7_linear_0_880" x1="8.35387" y1="6.74624" x2="45.4566" y2="43.5016" gradientUnits="userSpaceOnUse">
<stop stop-color="#FE5B52"/>
<stop offset="1" stop-color="#3E96F4"/>
</linearGradient>
<linearGradient id="paint8_linear_0_880" x1="8.35387" y1="6.74624" x2="45.4566" y2="43.5016" gradientUnits="userSpaceOnUse">
<stop stop-color="#FE5B52"/>
<stop offset="1" stop-color="#3E96F4"/>
</linearGradient>
<linearGradient id="paint9_linear_0_880" x1="8.35387" y1="6.74624" x2="45.4566" y2="43.5016" gradientUnits="userSpaceOnUse">
<stop stop-color="#FE5B52"/>
<stop offset="1" stop-color="#3E96F4"/>
</linearGradient>
<linearGradient id="paint10_linear_0_880" x1="8.35387" y1="6.74624" x2="45.4566" y2="43.5016" gradientUnits="userSpaceOnUse">
<stop stop-color="#FE5B52"/>
<stop offset="1" stop-color="#3E96F4"/>
</linearGradient>
</defs>
</svg>
