<svg width="32" height="32" viewBox="0 0 32 32" fill="none" xmlns="http://www.w3.org/2000/svg">
<path d="M18.7002 0L18.9814 2.27539C20.6126 2.63165 22.1876 3.28748 23.5938 4.1875L25.3564 2.81836L29.1816 6.64355L27.8125 8.40625C28.7125 9.81244 29.3683 11.3874 29.7246 13.0186L32 13.2998V18.7002L29.7246 18.9814C29.3683 20.6126 28.7125 22.1876 27.8125 23.5938L29.1816 25.3564L25.3564 29.1816L23.5938 27.8125C22.1876 28.7124 20.6126 29.3683 18.9814 29.7246L18.7002 32H13.2998L13.0186 29.7246C11.3874 29.3683 9.81244 28.7124 8.40625 27.8125L6.64355 29.1816L2.81836 25.3564L4.1875 23.5938C3.2875 22.1876 2.63166 20.6126 2.27539 18.9814L0 18.7002V13.2998L2.27539 13.0186C2.63165 11.3874 3.28748 9.81244 4.1875 8.40625L2.81836 6.64355L6.64355 2.81836L8.40625 4.1875C9.81244 3.28748 11.3874 2.63165 13.0186 2.27539L13.2998 0H18.7002ZM16 5.6875C10.3187 5.6875 5.6875 10.3187 5.6875 16C5.6875 21.6812 10.3187 26.3125 16 26.3125C21.6813 26.3125 26.3125 21.6812 26.3125 16C26.3125 10.3187 21.6813 5.6875 16 5.6875ZM16 7.5625C20.6499 7.5625 24.4375 11.3499 24.4375 16C24.4375 20.6499 20.6499 24.4375 16 24.4375C11.3501 24.4375 7.5625 20.6499 7.5625 16C7.5625 11.3499 11.3501 7.5625 16 7.5625ZM15.0625 16.5439L12.9062 14.4062L11.5938 15.7188L15.0625 19.2061L20.4062 13.8438L19.0938 12.5312L15.0625 16.5439Z" fill="#3E96F4"/>
</svg>
