<svg width="48" height="48" viewBox="0 0 48 48" fill="none" xmlns="http://www.w3.org/2000/svg">
<rect width="48" height="48" rx="8" fill="white"/>
<path d="M23.4 27.3602H22.8V23.3102C22.8 22.8302 22.62 22.3802 22.26 22.0502L18.54 18.3002C18.21 17.9702 17.76 17.7602 17.28 17.7602H15.6V15.9602C15.6 14.9702 14.79 14.1602 13.8 14.1602H1.8C0.81 14.1602 0 14.9702 0 15.9602V27.9602C0 28.9502 0.81 29.7602 1.8 29.7602H2.4C2.4 31.7402 4.02 33.3602 6 33.3602C7.98 33.3602 9.6 31.7402 9.6 29.7602H14.4C14.4 31.7402 16.02 33.3602 18 33.3602C19.98 33.3602 21.6 31.7402 21.6 29.7602H23.4C23.73 29.7602 24 29.4902 24 29.1602V27.9602C24 27.6302 23.73 27.3602 23.4 27.3602ZM6 31.5602C5.01 31.5602 4.2 30.7502 4.2 29.7602C4.2 28.7702 5.01 27.9602 6 27.9602C6.99 27.9602 7.8 28.7702 7.8 29.7602C7.8 30.7502 6.99 31.5602 6 31.5602ZM18 31.5602C17.01 31.5602 16.2 30.7502 16.2 29.7602C16.2 28.7702 17.01 27.9602 18 27.9602C18.99 27.9602 19.8 28.7702 19.8 29.7602C19.8 30.7502 18.99 31.5602 18 31.5602ZM21 23.7602H15.6V19.5602H17.25L21 23.3102V23.7602Z" fill="#3E96F4"/>
</svg>
