<svg width="65" height="65" viewBox="0 0 65 65" fill="none" xmlns="http://www.w3.org/2000/svg">
<path fill-rule="evenodd" clip-rule="evenodd" d="M32.8114 56.7644C32.6171 56.5675 32.3691 56.4325 32.0984 56.3761C31.8277 56.3198 31.5464 56.3447 31.2897 56.4477C31.0331 56.5507 30.8126 56.7273 30.656 56.9552C30.4994 57.183 30.4136 57.4521 30.4094 57.7286V61.5253H29.7981C22.8242 60.9475 16.2857 57.8991 11.3597 52.9289C6.43365 47.9586 3.44373 41.3932 2.92823 34.4144V33.8118H6.4581C6.82933 33.8038 7.18469 33.6598 7.45676 33.4071C7.65407 33.2124 7.78926 32.9635 7.8453 32.692C7.90134 32.4205 7.87575 32.1385 7.77168 31.8816C7.66761 31.6246 7.48973 31.4042 7.26055 31.2483C7.03137 31.0923 6.76112 31.0077 6.4839 31.0051H2.92823V30.4024C3.43686 23.4213 6.42457 16.8519 11.3519 11.8803C16.2793 6.90875 22.8217 3.86253 29.7981 3.29156L30.4094 3.2485V7.01941C30.4105 7.2029 30.448 7.38436 30.5198 7.55324C30.5915 7.72211 30.6961 7.87506 30.8275 8.0032C30.9588 8.13134 31.1143 8.23211 31.2849 8.2997C31.4555 8.36728 31.6378 8.40033 31.8213 8.39691C32.1868 8.39028 32.5355 8.24212 32.7941 7.9836C33.0526 7.72508 33.2008 7.37634 33.2074 7.01079V3.22267H33.8101C40.8888 3.66174 47.5674 6.65593 52.6045 11.6488C57.6417 16.6416 60.6948 23.2934 61.1965 30.368V30.9707H57.2017C56.8295 30.9707 56.4726 31.1185 56.2094 31.3817C55.9462 31.6449 55.7984 32.0018 55.7984 32.374C55.7984 32.7462 55.9462 33.1031 56.2094 33.3663C56.4726 33.6295 56.8295 33.7773 57.2017 33.7773H62.7031C62.8198 33.7776 62.9359 33.7602 63.0474 33.7257C63.3391 33.6399 63.595 33.4617 63.7766 33.2179C63.9583 32.9742 64.0559 32.678 64.0547 32.374C64.0543 26.0603 62.1863 19.8878 58.6857 14.6333C55.1851 9.37892 50.2084 5.27741 44.382 2.84507C38.5556 0.412724 32.14 -0.241765 25.9425 0.963977C19.7449 2.16972 14.0426 5.18181 9.55309 9.62113C5.0636 14.0605 1.98765 19.7286 0.712356 25.9122C-0.562943 32.0958 0.0194199 38.5184 2.38615 44.3718C4.75288 50.2251 8.79819 55.2476 14.0129 58.807C19.2277 62.3664 25.3788 64.3037 31.6922 64.375C32.0875 64.3663 32.4644 64.206 32.7449 63.9271C33.0253 63.6483 33.1878 63.2723 33.1988 62.877V57.763C33.2037 57.5792 33.172 57.3962 33.1055 57.2247C33.039 57.0533 32.939 56.8968 32.8114 56.7644ZM40.9296 16.9635C40.6286 16.7942 40.2732 16.7499 39.9399 16.8401C39.6066 16.9303 39.322 17.1477 39.1475 17.4456L31.3043 31.0571H20.6976C20.5064 31.0186 20.3091 31.0231 20.1199 31.0702C19.9307 31.1173 19.7543 31.2058 19.6034 31.3294C19.4525 31.4529 19.331 31.6084 19.2476 31.7846C19.1641 31.9609 19.1208 32.1535 19.1208 32.3485C19.1208 32.5434 19.1641 32.736 19.2476 32.9122C19.331 33.0885 19.4525 33.244 19.6034 33.3675C19.7543 33.4911 19.9307 33.5796 20.1199 33.6267C20.3091 33.6738 20.5064 33.6783 20.6976 33.6399H32.062C32.2794 33.6402 32.4933 33.5859 32.6843 33.4821C32.8754 33.3784 33.0373 33.2284 33.1554 33.0458L41.429 18.7112C41.5995 18.4074 41.6427 18.0483 41.5491 17.7127C41.4555 17.3771 41.2328 17.0922 40.9296 16.9205V16.9635ZM55.2555 37.88C57.8944 38.9712 60.5332 40.0625 60.5935 40.1142C60.7719 40.179 60.927 40.2956 61.0389 40.4489C61.1508 40.6022 61.2146 40.7854 61.222 40.9751V56.8508C61.2326 57.0693 61.1672 57.2848 61.0369 57.4605C60.9067 57.6363 60.7195 57.7616 60.5074 57.815C59.7702 58.0676 58.5848 58.4697 57.2692 58.9161C54.1446 59.9762 50.2856 61.2856 49.9523 61.431C49.817 61.4918 49.6703 61.5232 49.5219 61.5232C49.3735 61.5232 49.2268 61.4918 49.0914 61.431C48.8584 61.3462 46.8163 60.6487 44.5473 59.8738C42.205 59.0737 39.6209 58.1911 38.5363 57.815C38.3361 57.7415 38.1619 57.6111 38.0349 57.4397C37.9079 57.2684 37.8338 57.0637 37.8217 56.8508V40.9751C37.8409 40.7934 37.9053 40.6194 38.0091 40.469C38.1129 40.3186 38.2527 40.1966 38.4158 40.1142C38.4661 40.071 40.3174 39.3018 42.4557 38.4132C45.4347 37.1754 48.9709 35.706 48.9709 35.6459C49.2765 35.5332 49.6122 35.5332 49.9179 35.6459C49.9781 35.6976 52.6168 36.7888 55.2555 37.88ZM40.1979 42.697V56.1018L48.3768 58.9342V46.0202C48.1122 45.9395 45.9347 45.0412 43.8929 44.199C42.0148 43.4243 40.2515 42.697 40.1979 42.697ZM45.2268 42.488C47.2795 43.3446 49.503 44.2725 49.5649 44.2725V44.2577C49.6936 44.2072 50.4293 43.8993 51.399 43.4935C53.6611 42.5467 57.1965 41.0671 57.2703 41.0784L49.5649 37.8843L41.8165 41.0784C42.0241 41.1515 43.5698 41.7965 45.2268 42.488ZM49.5649 44.2553V44.2577C49.5387 44.268 49.5376 44.2677 49.5649 44.2553ZM58.9319 56.1276V42.697C59.3288 42.4554 55.5945 43.9931 53.0387 45.0455C51.769 45.5684 50.7901 45.9714 50.753 45.9771V58.8912L58.9319 56.1276Z" fill="url(#paint0_linear_1_656)"/>
<defs>
<linearGradient id="paint0_linear_1_656" x1="9.96011" y1="8.37054" x2="53.9339" y2="51.9613" gradientUnits="userSpaceOnUse">
<stop stop-color="#FE5B52"/>
<stop offset="1" stop-color="#3E96F4"/>
</linearGradient>
</defs>
</svg>
