<svg width="64" height="64" viewBox="0 0 64 64" fill="none" xmlns="http://www.w3.org/2000/svg">
<path d="M62.4039 47.9681H55.9813V39.7596C55.9813 39.3201 55.6241 38.9629 55.1846 38.9629H32.3968V34.9702C32.3968 34.5307 32.0397 34.1735 31.6002 34.1735C31.1607 34.1735 30.8035 34.5307 30.8035 34.9702V38.9629H8.01571C7.5762 38.9629 7.21902 39.3201 7.21902 39.7596V47.9681H0.796438C0.356935 47.9681 -0.000244141 48.3252 -0.000244141 48.7648V63.2033C-0.000244141 63.6428 0.356935 64 0.796438 64H15.235C15.6745 64 16.0317 63.6428 16.0317 63.2033V48.7648C16.0317 48.3252 15.6745 47.9681 15.235 47.9681H8.81239V40.5563H30.8035V47.9681H24.3809C23.9414 47.9681 23.5842 48.3252 23.5842 48.7648V63.2033C23.5842 63.6428 23.9414 64 24.3809 64H38.8194C39.2589 64 39.6161 63.6428 39.6161 63.2033V48.7648C39.6161 48.3252 39.2589 47.9681 38.8194 47.9681H32.3968V40.5563H54.3879V47.9681H47.9653C47.5258 47.9681 47.1687 48.3252 47.1687 48.7648V63.2033C47.1687 63.6428 47.5258 64 47.9653 64H62.4039C62.8434 64 63.2006 63.6428 63.2006 63.2033V48.7648C63.2006 48.3239 62.8434 47.9681 62.4039 47.9681ZM14.4383 62.4066H1.59312V49.5614H14.4383V62.4066ZM38.0227 62.4066H25.1776V49.5614H38.0227V62.4066ZM61.6072 62.4066H48.762V49.5614H61.6072V62.4066Z" fill="url(#paint0_linear_1_1091)"/>
<path fill-rule="evenodd" clip-rule="evenodd" d="M31.9998 30C39.7317 30 45.9998 23.732 45.9998 16C45.9998 8.26801 39.7317 2 31.9998 2C24.2678 2 17.9998 8.26801 17.9998 16C17.9998 23.732 24.2678 30 31.9998 30ZM31.9998 32C40.8363 32 47.9998 24.8366 47.9998 16C47.9998 7.16344 40.8363 0 31.9998 0C23.1632 0 15.9998 7.16344 15.9998 16C15.9998 24.8366 23.1632 32 31.9998 32Z" fill="url(#paint1_linear_1_1091)"/>
<path fill-rule="evenodd" clip-rule="evenodd" d="M31.4998 3.5C32.052 3.5 32.4998 3.94772 32.4998 4.5V16.5858L37.7069 21.7929C38.0974 22.1834 38.0974 22.8166 37.7069 23.2071C37.3163 23.5976 36.6832 23.5976 36.2926 23.2071L30.4998 17.4142V4.5C30.4998 3.94772 30.9475 3.5 31.4998 3.5Z" fill="url(#paint2_linear_1_1091)"/>
<defs>
<linearGradient id="paint0_linear_1_1091" x1="9.78311" y1="7.99554" x2="53.7486" y2="51.0325" gradientUnits="userSpaceOnUse">
<stop stop-color="#FE5B52"/>
<stop offset="1" stop-color="#3E96F4"/>
</linearGradient>
<linearGradient id="paint1_linear_1_1091" x1="9.78311" y1="7.99554" x2="53.7486" y2="51.0325" gradientUnits="userSpaceOnUse">
<stop stop-color="#FE5B52"/>
<stop offset="1" stop-color="#3E96F4"/>
</linearGradient>
<linearGradient id="paint2_linear_1_1091" x1="9.78311" y1="7.99554" x2="53.7486" y2="51.0325" gradientUnits="userSpaceOnUse">
<stop stop-color="#FE5B52"/>
<stop offset="1" stop-color="#3E96F4"/>
</linearGradient>
</defs>
</svg>
