<svg width="56" height="56" viewBox="0 0 56 56" fill="none" xmlns="http://www.w3.org/2000/svg">
<circle cx="28" cy="28" r="27.1" fill="url(#paint0_radial_1_1768)" stroke="#C3D8EF" stroke-width="1.8"/>
<path d="M36.651 34.79L35.951 35.7175L35.3998 36.4613L35.4785 35.5426V35.4638C35.4785 35.245 35.4785 35.035 35.4785 34.825C35.4813 32.9942 34.8462 31.2196 33.6822 29.8063C32.5183 28.3931 30.8983 27.4295 29.1009 27.0814C27.3034 26.7333 25.4409 27.0224 23.8335 27.8989C22.2261 28.7753 20.9743 30.1845 20.2934 31.884C19.6125 33.5835 19.545 35.4672 20.1026 37.2111C20.6602 38.9549 21.8079 40.4501 23.3485 41.4393C24.8891 42.4285 26.7262 42.8501 28.5439 42.6314C30.3617 42.4128 32.0465 41.5676 33.3085 40.2413L32.696 39.6988C31.5688 40.8683 30.0699 41.6094 28.4562 41.7951C26.8425 41.9808 25.2145 41.5994 23.851 40.7165C22.4876 39.8336 21.4737 38.504 20.9831 36.9555C20.4924 35.4071 20.5555 33.7362 21.1615 32.2291C21.7676 30.7221 22.8789 29.4728 24.305 28.6952C25.7311 27.9176 27.3832 27.6602 28.9783 27.967C30.5734 28.2738 32.0122 29.1258 33.048 30.377C34.0838 31.6282 34.6523 33.2007 34.656 34.825C34.656 35.0263 34.656 35.2363 34.656 35.4376L34.5947 36.1113L34.1835 35.6038L33.5622 34.79L32.906 35.28L34.7697 37.7738C34.8082 37.8257 34.8584 37.8677 34.9161 37.8966C34.9739 37.9255 35.0377 37.9404 35.1023 37.94C35.1902 37.9407 35.2761 37.9131 35.3473 37.8613C35.3807 37.8367 35.4102 37.8072 35.4348 37.7738L37.2985 35.28L36.651 34.79Z" fill="#3E96F4" stroke="#3E96F4" stroke-width="0.4"/>
<path d="M27.3613 35.0876V35.2976L27.1687 35.3938L25.1562 36.4001L25.445 36.9863L27.8337 35.7963C27.889 35.7687 27.9354 35.7262 27.9679 35.6737C28.0004 35.6211 28.0175 35.5605 28.0175 35.4988V30.4501H27.3613V35.0876Z" fill="#3E96F4" stroke="#3E96F4" stroke-width="0.4"/>
<path d="M41.9992 36.1288H38.3154V37.03H41.9992V36.1288Z" fill="#3E96F4" stroke="#3E96F4" stroke-width="0.4"/>
<path d="M18.7687 36.1288H14V37.03H18.7687V36.1288Z" fill="#3E96F4" stroke="#3E96F4" stroke-width="0.4"/>
<path d="M19.4261 35.2188V25.2875C19.4261 25.1668 19.3782 25.0511 19.2928 24.9658C19.2075 24.8804 19.0918 24.8325 18.9711 24.8325H15.3574C15.2367 24.8325 15.121 24.8804 15.0356 24.9658C14.9503 25.0511 14.9023 25.1668 14.9023 25.2875V35.2188H15.7773V25.7337H18.4811V35.2188H19.4261Z" fill="#3E96F4" stroke="#3E96F4" stroke-width="0.4"/>
<path d="M26.1967 20.3175H22.5829C22.4623 20.3175 22.3466 20.3654 22.2612 20.4508C22.1759 20.5361 22.1279 20.6518 22.1279 20.7725V27.265H23.0029V21.2188H25.7155V25.8825H26.5905V20.7725C26.5934 20.6612 26.5546 20.5528 26.4818 20.4686C26.4089 20.3845 26.3073 20.3306 26.1967 20.3175Z" fill="#3E96F4" stroke="#3E96F4" stroke-width="0.4"/>
<path d="M33.8727 28.14V25.2875C33.8738 25.2281 33.8631 25.1692 33.8412 25.114C33.8193 25.0589 33.7866 25.0087 33.7451 24.9663C33.7035 24.9239 33.6539 24.8903 33.5992 24.8673C33.5445 24.8443 33.4857 24.8325 33.4264 24.8325H29.8564C29.7357 24.8325 29.62 24.8804 29.5347 24.9658C29.4493 25.0511 29.4014 25.1668 29.4014 25.2875V26.7575H30.2764V25.7337H32.9889V28.14H33.8727Z" fill="#3E96F4" stroke="#3E96F4" stroke-width="0.4"/>
<path d="M41.101 35.2188V20.7725C41.101 20.6518 41.0531 20.5361 40.9678 20.4508C40.8824 20.3654 40.7667 20.3175 40.646 20.3175H37.0323C36.9729 20.3175 36.9142 20.3293 36.8595 20.3523C36.8047 20.3752 36.7552 20.4089 36.7136 20.4513C36.6721 20.4937 36.6393 20.5439 36.6174 20.5991C36.5955 20.6542 36.5849 20.7132 36.586 20.7725V34.3438H37.461V21.2188H40.1735V35.2188H41.101Z" fill="#3E96F4" stroke="#3E96F4" stroke-width="0.4"/>
<path d="M38.8424 17.605C39.1985 17.6032 39.5461 17.496 39.8414 17.2969C40.1366 17.0978 40.3663 16.8157 40.5014 16.4862C40.6365 16.1567 40.6709 15.7945 40.6004 15.4455C40.5298 15.0964 40.3575 14.7761 40.1051 14.5249C39.8527 14.2736 39.5314 14.1028 39.182 14.034C38.8326 13.9652 38.4706 14.0014 38.1418 14.138C37.8129 14.2747 37.532 14.5057 37.3343 14.802C37.1366 15.0982 37.0311 15.4464 37.0311 15.8025C37.0368 15.987 37.0692 16.1698 37.1273 16.345L32.8573 18.97C32.5195 18.6428 32.0676 18.4599 31.5973 18.4599C31.127 18.4599 30.6752 18.6428 30.3373 18.97L25.6649 16.2225C25.7173 16.0644 25.7438 15.899 25.7436 15.7325C25.7117 15.275 25.5075 14.8466 25.1722 14.5338C24.8369 14.221 24.3953 14.047 23.9367 14.047C23.4781 14.047 23.0366 14.221 22.7013 14.5338C22.3659 14.8466 22.1617 15.275 22.1298 15.7325C22.1323 15.9697 22.1798 16.2042 22.2699 16.4237L17.8336 19.7487C17.5188 19.4878 17.1225 19.3454 16.7136 19.3462C16.3554 19.3462 16.0052 19.4525 15.7073 19.6515C15.4095 19.8505 15.1773 20.1334 15.0402 20.4643C14.9031 20.7953 14.8673 21.1595 14.9371 21.5108C15.007 21.8622 15.1796 22.1849 15.4329 22.4382C15.6862 22.6915 16.0089 22.864 16.3602 22.9339C16.7116 23.0038 17.0758 22.9679 17.4067 22.8308C17.7377 22.6937 18.0206 22.4616 18.2196 22.1637C18.4186 21.8659 18.5248 21.5157 18.5248 21.1575C18.5224 20.9203 18.4749 20.6857 18.3849 20.4662L22.8211 17.1412C23.1621 17.4292 23.6003 17.576 24.0459 17.5516C24.4916 17.5272 24.9111 17.3335 25.2186 17.01L29.8824 19.7574C29.837 19.9169 29.8135 20.0817 29.8124 20.2474C29.7951 20.4953 29.829 20.7441 29.912 20.9782C29.995 21.2124 30.1252 21.4271 30.2947 21.6088C30.4642 21.7904 30.6693 21.9353 30.8971 22.0343C31.125 22.1334 31.3708 22.1845 31.6192 22.1845C31.8677 22.1845 32.1135 22.1334 32.3413 22.0343C32.5692 21.9353 32.7742 21.7904 32.9437 21.6088C33.1132 21.4271 33.2435 21.2124 33.3265 20.9782C33.4094 20.7441 33.4434 20.4953 33.4261 20.2474C33.4205 20.0629 33.388 19.8802 33.3298 19.7049L37.5998 17.0799C37.9304 17.4092 38.3759 17.5974 38.8424 17.605ZM38.8424 14.9012C39.0154 14.9012 39.1846 14.9525 39.3285 15.0487C39.4724 15.1448 39.5845 15.2815 39.6508 15.4414C39.717 15.6012 39.7343 15.7772 39.7005 15.9469C39.6668 16.1166 39.5834 16.2725 39.4611 16.3949C39.3387 16.5173 39.1828 16.6006 39.0131 16.6344C38.8433 16.6681 38.6674 16.6508 38.5075 16.5846C38.3476 16.5184 38.211 16.4063 38.1148 16.2624C38.0187 16.1185 37.9674 15.9493 37.9674 15.7762C37.9674 15.5441 38.0595 15.3216 38.2236 15.1575C38.3877 14.9934 38.6103 14.9012 38.8424 14.9012ZM16.7311 22.1287C16.558 22.1287 16.3889 22.0774 16.245 21.9813C16.1011 21.8851 15.9889 21.7485 15.9227 21.5886C15.8565 21.4287 15.8392 21.2528 15.8729 21.083C15.9067 20.9133 15.99 20.7574 16.1124 20.635C16.2348 20.5126 16.3907 20.4293 16.5604 20.3955C16.7301 20.3618 16.9061 20.3791 17.066 20.4453C17.2258 20.5115 17.3625 20.6237 17.4586 20.7676C17.5548 20.9115 17.6061 21.0807 17.6061 21.2537C17.6061 21.4858 17.5139 21.7083 17.3498 21.8724C17.1857 22.0365 16.9632 22.1287 16.7311 22.1287ZM23.9586 16.7037C23.7855 16.7037 23.6163 16.6524 23.4725 16.5562C23.3286 16.4601 23.2164 16.3234 23.1502 16.1636C23.084 16.0037 23.0667 15.8278 23.1004 15.658C23.1342 15.4883 23.2175 15.3324 23.3399 15.21C23.4623 15.0876 23.6181 15.0043 23.7879 14.9705C23.9576 14.9368 24.1336 14.9541 24.2935 15.0203C24.4533 15.0865 24.59 15.1987 24.6862 15.3426C24.7823 15.4865 24.8336 15.6556 24.8336 15.8287C24.8336 15.9451 24.8104 16.0604 24.7654 16.1677C24.7203 16.275 24.6543 16.3722 24.5712 16.4537C24.4881 16.5352 24.3895 16.5992 24.2813 16.6422C24.1732 16.6851 24.0575 16.706 23.9411 16.7037H23.9586ZM31.6061 21.2187C31.433 21.2187 31.2639 21.1674 31.12 21.0712C30.9761 20.9751 30.8639 20.8384 30.7977 20.6785C30.7315 20.5186 30.7142 20.3427 30.7479 20.173C30.7817 20.0033 30.865 19.8473 30.9874 19.725C31.1098 19.6026 31.2657 19.5193 31.4354 19.4855C31.6051 19.4517 31.7811 19.4691 31.941 19.5353C32.1008 19.6016 32.2375 19.7137 32.3336 19.8576C32.4298 20.0015 32.4811 20.1707 32.4811 20.3437C32.4811 20.5758 32.3889 20.7983 32.2248 20.9624C32.0607 21.1265 31.8382 21.2187 31.6061 21.2187Z" fill="#3E96F4" stroke="#3E96F4" stroke-width="0.4"/>
<defs>
<radialGradient id="paint0_radial_1_1768" cx="0" cy="0" r="1" gradientUnits="userSpaceOnUse" gradientTransform="translate(28 28) rotate(90) scale(28)">
<stop offset="0.591346" stop-color="#3E96F4" stop-opacity="0"/>
<stop offset="0.822115" stop-color="#3E96F4" stop-opacity="0.1"/>
<stop offset="1" stop-color="#3E96F4" stop-opacity="0.3"/>
</radialGradient>
</defs>
</svg>
