<svg width="48" height="48" viewBox="0 0 48 48" fill="none" xmlns="http://www.w3.org/2000/svg">
<rect width="48" height="48" rx="8" fill="white"/>
<path d="M40 11.6686C40 10.8387 39.3272 10.1659 38.4973 10.1659H9.5027C8.67278 10.1659 8 10.8387 8 11.6686V14.9839H40V11.6686Z" stroke="#3E96F4" stroke-miterlimit="10" stroke-linecap="round" stroke-linejoin="round"/>
<path d="M8 14.9838V37.4974C8 38.3272 8.67278 39 9.5027 39H38.4973C39.3272 39 40 38.3272 40 37.4974V14.9838H8Z" stroke="#3E96F4" stroke-miterlimit="10" stroke-linecap="round" stroke-linejoin="round"/>
<path d="M36.2758 23.1065C36.2758 24.3097 35.788 25.3998 34.9991 26.1881C34.2101 26.977 33.1207 27.4648 31.9175 27.4648C29.5103 27.4648 27.5591 25.5136 27.5591 23.1065C27.5591 21.9032 28.0469 20.8138 28.8358 20.0248C29.6241 19.2366 30.7135 18.7487 31.9175 18.7487C33.1207 18.7487 34.2101 19.2366 34.9991 20.0248C35.788 20.8138 36.2758 21.9032 36.2758 23.1065Z" stroke="#3E96F4" stroke-miterlimit="10" stroke-linecap="round" stroke-linejoin="round"/>
<path d="M36.2756 23.1069C36.2756 24.3101 35.7878 25.4002 34.9989 26.1885L31.9172 23.1069V18.7491C33.1205 18.7491 34.2099 19.2369 34.9989 20.0252C35.7878 20.8142 36.2756 21.9036 36.2756 23.1069Z" stroke="#3E96F4" stroke-miterlimit="10" stroke-linecap="round" stroke-linejoin="round"/>
<path d="M27.5591 31.1763H36.2758" stroke="#3E96F4" stroke-miterlimit="10" stroke-linecap="round" stroke-linejoin="round"/>
<path d="M15.7214 31.1763H12.4976V25.0704H15.7214V31.1763ZM21.9071 31.1763H18.6833V20.9153H21.9071V31.1763Z" stroke="#3E96F4" stroke-miterlimit="10" stroke-linecap="round" stroke-linejoin="round"/>
<path d="M11.3171 31.1763H23.4147" stroke="#3E96F4" stroke-miterlimit="10" stroke-linecap="round" stroke-linejoin="round"/>
<path d="M14.3333 34.8374H36.2756" stroke="#3E96F4" stroke-miterlimit="10" stroke-linecap="round" stroke-linejoin="round"/>
</svg>
