<svg width="391" height="408" viewBox="0 0 391 408" fill="none" xmlns="http://www.w3.org/2000/svg">
<g clip-path="url(#clip0_1_324)">
<path d="M0 179.44V227.08C0 231.22 1.64462 235.19 4.57206 238.118C7.4995 241.045 11.47 242.69 15.61 242.69H186.42C190.558 242.687 194.526 241.042 197.451 238.114C200.377 235.187 202.02 231.218 202.02 227.08V186.83L223.29 164.49L15.67 163.84C13.6159 163.832 11.5804 164.23 9.68019 165.01C7.78002 165.79 6.05255 166.938 4.59679 168.387C3.14104 169.836 1.98564 171.559 1.19683 173.455C0.408013 175.352 0.00130074 177.386 0 179.44Z" fill="#F5F5F5"/>
<path d="M176.84 192.7L21.84 191.98L21.86 187.22L176.86 187.94L176.84 192.7Z" fill="#E0E0E0"/>
<path d="M176.84 208.37L21.84 207.66L21.86 202.89L176.86 203.61L176.84 208.37Z" fill="#E0E0E0"/>
<path d="M115.524 218.58L115.501 223.34L176.83 223.64L176.853 218.88L115.524 218.58Z" fill="#E0E0E0"/>
<path d="M158.27 344.04V391.68C158.27 395.82 159.915 399.79 162.842 402.718C165.77 405.645 169.74 407.29 173.88 407.29H344.67C348.808 407.287 352.776 405.642 355.701 402.714C358.627 399.787 360.27 395.818 360.27 391.68V351.43L381.54 329.09L173.91 328.44C171.858 328.436 169.826 328.837 167.929 329.619C166.033 330.401 164.309 331.549 162.856 332.998C161.404 334.447 160.251 336.168 159.464 338.062C158.677 339.957 158.271 341.988 158.27 344.04Z" fill="#F5F5F5"/>
<path d="M335.85 356.06L180.86 355.35L180.87 350.58L335.87 351.3L335.85 356.06Z" fill="#E0E0E0"/>
<path d="M335.85 371.74L180.86 371.02L180.87 366.25L335.87 366.97L335.85 371.74Z" fill="#E0E0E0"/>
<path d="M274.529 381.94L274.506 386.7L335.835 387L335.858 382.24L274.529 381.94Z" fill="#E0E0E0"/>
<path d="M91.3 0H192.04C194.427 0 196.716 0.948212 198.404 2.63604C200.092 4.32387 201.04 6.61305 201.04 9V58.27C201.04 60.657 200.092 62.9461 198.404 64.634C196.716 66.3218 194.427 67.27 192.04 67.27H106.56C104.173 67.27 101.884 66.3218 100.196 64.634C98.5082 62.9461 97.56 60.657 97.56 58.27V6.23L91.3 0Z" fill="#F5F5F5"/>
<path d="M149.67 47.9V79.5C149.67 82.245 148.58 84.8776 146.639 86.8186C144.698 88.7596 142.065 89.8501 139.32 89.8501H26.06C24.6978 89.854 23.3482 89.5893 22.0885 89.071C20.8287 88.5528 19.6836 87.7912 18.7185 86.8298C17.7534 85.8685 16.9874 84.7262 16.4643 83.4685C15.9412 82.2108 15.6713 80.8622 15.67 79.5V52.8L1.60999 37.98L139.32 37.55C142.065 37.55 144.698 38.6405 146.639 40.5815C148.58 42.5225 149.67 45.1551 149.67 47.9Z" fill="#E0E0E0"/>
<path d="M32.41 56.7001L135.21 56.2201L135.2 53.0601L32.4 53.5401L32.41 56.7001Z" fill="#F5F5F5"/>
<path d="M32.41 67.09L135.21 66.62L135.2 63.46L32.4 63.93L32.41 67.09Z" fill="#F5F5F5"/>
<path d="M72.4999 74.48H31.8199V77.64H72.4999V74.48Z" fill="#F5F5F5"/>
<path d="M364.31 194.41V226.01C364.31 228.755 363.219 231.388 361.279 233.329C359.338 235.27 356.705 236.36 353.96 236.36H240.67C237.924 236.36 235.29 235.27 233.348 233.329C231.405 231.389 230.313 228.756 230.31 226.01V199.31L216.21 184.49L353.92 184.06C355.282 184.056 356.632 184.321 357.891 184.839C359.151 185.357 360.296 186.119 361.261 187.08C362.227 188.042 362.993 189.184 363.516 190.442C364.039 191.699 364.309 193.048 364.31 194.41Z" fill="#E0E0E0"/>
<path d="M247.02 203.21L349.82 202.73L349.81 199.57L247.01 200.05L247.02 203.21Z" fill="#F5F5F5"/>
<path d="M247.02 213.6L349.82 213.13L349.81 209.97L247.01 210.44L247.02 213.6Z" fill="#F5F5F5"/>
<path d="M286.39 222.05H245.71V225.21H286.39V222.05Z" fill="#F5F5F5"/>
<path d="M243.41 389.35L127.91 388.81C121.247 388.77 114.872 386.088 110.184 381.352C105.497 376.616 102.881 370.213 102.91 363.55L104.13 73.9801C104.159 67.3124 106.834 60.929 111.566 56.232C116.299 51.5351 122.702 48.9088 129.37 48.9301L244.87 49.4601C251.533 49.505 257.907 52.1904 262.593 56.9275C267.28 61.6645 269.897 68.0666 269.87 74.7301L268.67 364.29C268.641 370.962 265.964 377.35 261.227 382.049C256.491 386.748 250.082 389.374 243.41 389.35Z" fill="#263238"/>
<path d="M244.67 59.4601L222.27 59.3501C221.54 59.3631 220.819 59.5199 220.15 59.8114C219.48 60.1029 218.875 60.5234 218.368 61.049C217.86 61.5746 217.462 62.195 217.195 62.8746C216.927 63.5543 216.797 64.2799 216.81 65.0101V69.0701C216.823 69.8003 216.693 70.5259 216.425 71.2056C216.158 71.8852 215.76 72.5056 215.253 73.0312C214.745 73.5568 214.14 73.9773 213.47 74.2688C212.801 74.5603 212.08 74.7171 211.35 74.7301L167.7 74.5301C166.226 74.4882 164.829 73.8636 163.815 72.7933C162.801 71.7229 162.252 70.2941 162.29 68.8201V64.7601C162.328 63.2844 161.778 61.8541 160.762 60.7835C159.745 59.7128 158.346 59.0894 156.87 59.0501H149L129.4 58.9601C124.725 58.9415 120.234 60.7794 116.913 64.0701C113.592 67.3608 111.714 71.8351 111.69 76.5101L110.5 359.14C110.481 363.812 112.318 368.301 115.607 371.62C118.896 374.939 123.368 376.816 128.04 376.84L243.31 377.37C245.624 377.381 247.917 376.935 250.059 376.06C252.201 375.184 254.149 373.895 255.793 372.266C257.436 370.637 258.743 368.701 259.638 366.567C260.533 364.433 261 362.144 261.01 359.83L262.2 77.1901C262.217 74.8738 261.777 72.5769 260.904 70.4311C260.032 68.2853 258.745 66.3329 257.116 64.6857C255.487 63.0385 253.55 61.729 251.414 60.8323C249.278 59.9356 246.986 59.4693 244.67 59.4601Z" fill="#FAFAFA"/>
<path d="M179.47 350.27C179.544 350.757 179.466 351.255 179.248 351.697C179.03 352.139 178.682 352.503 178.25 352.741C177.819 352.978 177.325 353.078 176.835 353.027C176.345 352.975 175.883 352.775 175.51 352.453C175.138 352.131 174.873 351.702 174.751 351.224C174.63 350.747 174.658 350.244 174.831 349.783C175.004 349.322 175.314 348.925 175.72 348.645C176.126 348.366 176.607 348.217 177.1 348.22C177.685 348.184 178.26 348.378 178.703 348.762C179.146 349.145 179.421 349.686 179.47 350.27Z" fill="#455A64"/>
<path d="M186.84 350.31C186.911 350.797 186.832 351.294 186.613 351.735C186.393 352.175 186.044 352.538 185.612 352.774C185.18 353.011 184.686 353.109 184.197 353.056C183.708 353.003 183.246 352.802 182.875 352.479C182.503 352.156 182.239 351.727 182.119 351.25C181.998 350.773 182.027 350.27 182.201 349.809C182.374 349.349 182.685 348.952 183.091 348.674C183.496 348.395 183.978 348.247 184.47 348.25C185.056 348.214 185.633 348.41 186.076 348.795C186.52 349.181 186.794 349.725 186.84 350.31Z" fill="#455A64"/>
<path d="M194.21 350.34C194.284 350.827 194.206 351.325 193.988 351.767C193.77 352.208 193.422 352.573 192.991 352.811C192.559 353.048 192.065 353.148 191.575 353.097C191.085 353.045 190.623 352.845 190.25 352.523C189.878 352.2 189.613 351.772 189.492 351.294C189.37 350.817 189.398 350.314 189.571 349.853C189.744 349.392 190.054 348.995 190.46 348.715C190.866 348.436 191.347 348.287 191.84 348.29C192.425 348.251 193.002 348.445 193.446 348.829C193.889 349.212 194.164 349.755 194.21 350.34Z" fill="#455A64"/>
<path d="M146.19 195.71C148.07 195.98 261.37 218.2 261.37 218.2V195.71H146.19Z" fill="#EBEBEB"/>
<path d="M110.54 338.51C110.54 338.51 233.8 321.07 232.72 321.61C231.64 322.15 110.54 321.61 110.54 321.61V338.51Z" fill="#EBEBEB"/>
<path d="M370.9 109.7H145.45C144.292 109.7 143.146 109.928 142.076 110.372C141.007 110.815 140.035 111.465 139.217 112.284C138.399 113.103 137.75 114.075 137.308 115.145C136.866 116.215 136.639 117.362 136.64 118.52V188.45C136.639 189.608 136.866 190.754 137.308 191.824C137.75 192.894 138.399 193.867 139.217 194.686C140.035 195.505 141.007 196.155 142.076 196.598C143.146 197.042 144.292 197.27 145.45 197.27H162.25C163.6 204.57 165.18 213.78 165.18 213.78L180.38 197.27H370.9C372.058 197.27 373.204 197.042 374.274 196.598C375.343 196.155 376.315 195.505 377.133 194.686C377.951 193.867 378.6 192.894 379.042 191.824C379.484 190.754 379.711 189.608 379.71 188.45V118.52C379.711 117.362 379.484 116.215 379.042 115.145C378.6 114.075 377.951 113.103 377.133 112.284C376.315 111.465 375.343 110.815 374.274 110.372C373.204 109.928 372.058 109.7 370.9 109.7Z" fill="#007BFF"/>
<path d="M277.88 147.61C277.88 147.75 251.05 147.87 217.96 147.87C184.87 147.87 158.03 147.75 158.03 147.61C158.03 147.47 184.86 147.34 217.96 147.34C251.06 147.34 277.88 147.49 277.88 147.61Z" fill="#F5F5F5"/>
<path d="M277.88 136.89C277.88 137.03 251.05 137.15 217.96 137.15C184.87 137.15 158.03 137.03 158.03 136.89C158.03 136.75 184.86 136.63 217.96 136.63C251.06 136.63 277.88 136.74 277.88 136.89Z" fill="#F5F5F5"/>
<path d="M277.88 158.27C277.88 158.41 251.05 158.53 217.96 158.53C184.87 158.53 158.03 158.41 158.03 158.27C158.03 158.13 184.86 158.01 217.96 158.01C251.06 158.01 277.88 158.12 277.88 158.27Z" fill="#F5F5F5"/>
<path d="M236.53 169.28C236.53 169.42 218.96 169.54 197.28 169.54C175.6 169.54 158.03 169.42 158.03 169.28C158.03 169.14 175.6 169.02 197.28 169.02C218.96 169.02 236.53 169.13 236.53 169.28Z" fill="#F5F5F5"/>
<path d="M269.03 235.43H41.74C40.9285 235.429 40.1248 235.588 39.3749 235.898C38.6251 236.208 37.944 236.663 37.3706 237.238C36.7973 237.812 36.3431 238.494 36.0341 239.244C35.7251 239.994 35.5673 240.798 35.57 241.61V315.61C35.57 317.246 36.22 318.816 37.3771 319.973C38.5342 321.13 40.1036 321.78 41.74 321.78H206.82L221.82 338.11C221.82 338.11 223.39 328.93 224.72 321.78H269C270.636 321.78 272.206 321.13 273.363 319.973C274.52 318.816 275.17 317.246 275.17 315.61V241.61C275.173 240.801 275.016 239.999 274.709 239.251C274.402 238.503 273.95 237.822 273.38 237.248C272.81 236.674 272.132 236.218 271.386 235.906C270.639 235.594 269.839 235.433 269.03 235.43Z" fill="#455A64"/>
<path d="M260.12 273.61C260.12 273.75 233.29 273.87 200.19 273.87C167.09 273.87 140.26 273.75 140.26 273.61C140.26 273.47 167.09 273.35 200.19 273.35C233.29 273.35 260.12 273.43 260.12 273.61Z" fill="#F5F5F5"/>
<path d="M260.12 262.83C260.12 262.97 233.29 263.09 200.19 263.09C167.09 263.09 140.26 262.97 140.26 262.83C140.26 262.69 167.09 262.57 200.19 262.57C233.29 262.57 260.12 262.68 260.12 262.83Z" fill="#F5F5F5"/>
<path d="M260.12 284.21C260.12 284.35 233.29 284.47 200.19 284.47C167.09 284.47 140.26 284.35 140.26 284.21C140.26 284.07 167.09 283.95 200.19 283.95C233.29 283.95 260.12 284.07 260.12 284.21Z" fill="#F5F5F5"/>
<path d="M218.77 295.22C218.77 295.37 201.2 295.48 179.52 295.48C157.84 295.48 140.26 295.37 140.26 295.22C140.26 295.07 157.84 294.96 179.52 294.96C201.2 294.96 218.77 295.08 218.77 295.22Z" fill="#F5F5F5"/>
<path d="M314.22 80.0401C314.36 78.2001 312.72 75.6701 311.22 74.2101C310.351 73.4268 309.73 72.4065 309.433 71.2747C309.136 70.1429 309.177 68.9491 309.55 67.8401C310.16 65.5701 311.6 65.7401 312.17 64.4001C312.447 63.3642 312.559 62.2909 312.5 61.2201C312.619 60.3156 312.923 59.4452 313.393 58.6633C313.863 57.8814 314.489 57.2047 315.232 56.6755C315.975 56.1463 316.819 55.7759 317.712 55.5874C318.604 55.399 319.526 55.3965 320.42 55.5801C320.917 53.8055 321.935 52.2211 323.344 51.0328C324.752 49.8444 326.485 49.107 328.318 48.9161C330.151 48.7253 331.999 49.0899 333.622 49.9626C335.245 50.8353 336.568 52.1758 337.42 53.8101C338.455 53.2841 339.604 53.0212 340.765 53.0446C341.926 53.0681 343.064 53.3772 344.077 53.9446C345.09 54.512 345.948 55.3202 346.575 56.2979C347.201 57.2756 347.578 58.3925 347.67 59.5501C348.72 58.8805 349.976 58.6129 351.207 58.7967C352.438 58.9805 353.562 59.6032 354.37 60.5501C355.129 61.5406 355.579 62.7328 355.665 63.9778C355.75 65.2227 355.467 66.4652 354.85 67.5501C354.216 68.6261 353.347 69.5449 352.308 70.2376C351.269 70.9303 350.087 71.379 348.85 71.5501C346.369 71.8652 343.851 71.4078 341.64 70.2401C339.438 69.0802 337.438 67.5706 335.72 65.7701" fill="#263238"/>
<path d="M330.57 194.96C354.478 194.96 373.86 176.031 373.86 152.68C373.86 129.33 354.478 110.4 330.57 110.4C306.662 110.4 287.28 129.33 287.28 152.68C287.28 176.031 306.662 194.96 330.57 194.96Z" fill="#E0E0E0"/>
<path d="M374.04 152.71L369.25 140.43L352.08 151.22L367.38 174.81C367.38 174.81 373.6 166.73 374.04 152.71Z" fill="#EB996E"/>
<path d="M326.67 126.11C329.628 126.127 332.479 125.006 334.633 122.979C336.787 120.952 338.078 118.174 338.24 115.22C338.49 110.13 338.71 105.22 338.71 105.22C338.71 105.22 348.15 104.54 349.02 95.3001C349.89 86.0601 350.02 64.7101 350.02 64.7101C344.898 62.0218 339.156 60.738 333.377 60.9891C327.598 61.2403 321.989 63.0176 317.12 66.1401L316.22 66.7101L315.13 114.51C315.119 116.031 315.41 117.54 315.986 118.948C316.561 120.356 317.41 121.636 318.483 122.715C319.556 123.793 320.832 124.649 322.237 125.231C323.642 125.814 325.149 126.113 326.67 126.11Z" fill="#FFBE9D"/>
<path d="M332.05 78.9301C332.299 79.0177 332.516 79.1768 332.675 79.3872C332.833 79.5977 332.926 79.8504 332.942 80.1135C332.958 80.3766 332.896 80.6386 332.763 80.8665C332.631 81.0945 332.435 81.2784 332.198 81.3952C331.962 81.512 331.696 81.5565 331.435 81.5231C331.173 81.4897 330.928 81.38 330.728 81.2076C330.529 81.0352 330.385 80.8078 330.314 80.5539C330.243 80.3 330.249 80.0308 330.33 79.7801C330.446 79.4399 330.692 79.1594 331.015 79.0001C331.337 78.8408 331.709 78.8157 332.05 78.9301Z" fill="#263238"/>
<path d="M334.67 79.4102C334.51 79.5602 333.67 78.8002 332.35 78.7202C331.03 78.6402 330.09 79.2402 329.96 79.0702C329.83 78.9002 330.06 78.7102 330.48 78.4302C331.055 78.0673 331.732 77.899 332.41 77.9502C333.085 77.9958 333.727 78.2589 334.24 78.7002C334.59 79.0402 334.72 79.3402 334.67 79.4102Z" fill="#263238"/>
<path d="M346.15 78.9301C346.399 79.0177 346.616 79.1768 346.775 79.3872C346.933 79.5977 347.026 79.8504 347.042 80.1135C347.058 80.3766 346.996 80.6386 346.863 80.8665C346.731 81.0945 346.534 81.2784 346.298 81.3952C346.062 81.512 345.796 81.5565 345.535 81.5231C345.273 81.4897 345.028 81.38 344.828 81.2076C344.629 81.0352 344.485 80.8078 344.414 80.5539C344.343 80.3 344.349 80.0308 344.43 79.7801C344.546 79.4399 344.792 79.1594 345.115 79.0001C345.437 78.8408 345.809 78.8157 346.15 78.9301Z" fill="#263238"/>
<path d="M348.91 79.4301C348.76 79.5901 347.91 78.8301 346.59 78.7501C345.27 78.6701 344.33 79.2701 344.2 79.1001C344.07 78.9301 344.3 78.7401 344.73 78.4601C345.301 78.096 345.975 77.9275 346.65 77.9801C347.328 78.0279 347.972 78.2906 348.49 78.7301C348.87 79.0701 348.99 79.3701 348.91 79.4301Z" fill="#263238"/>
<path d="M339.21 89.42C339.893 89.2094 340.606 89.118 341.32 89.15C341.66 89.15 341.93 89.0901 341.97 88.9101C342.017 88.5682 341.961 88.2202 341.81 87.9101C341.55 87.0401 341.28 86.1601 341 85.2401C339.9 81.4401 339.17 78.32 339.36 78.24C339.55 78.16 340.61 81.2401 341.71 85.0201C341.97 85.9401 342.21 86.83 342.46 87.7C342.641 88.1453 342.666 88.639 342.53 89.1001C342.47 89.2247 342.382 89.3337 342.272 89.4187C342.163 89.5037 342.036 89.5623 341.9 89.59C341.707 89.6138 341.513 89.6138 341.32 89.59C340.612 89.6538 339.899 89.5963 339.21 89.42Z" fill="#263238"/>
<path d="M338.67 105.1C334.362 104.834 330.229 103.299 326.79 100.69C326.79 100.69 329.12 107.58 338.5 107.5L338.67 105.1Z" fill="#EB996E"/>
<path d="M315.94 80.29C315.948 79.927 315.815 79.575 315.569 79.3082C315.323 79.0413 314.983 78.8807 314.62 78.86C312.88 78.78 310.02 79.41 309.62 84.17C309.1 90.97 315.74 89.4 315.77 89.17C315.8 88.94 315.91 82.94 315.94 80.29Z" fill="#FFBE9D"/>
<path d="M314.35 86.5C314.35 86.5 314.22 86.58 314.01 86.65C313.869 86.7086 313.718 86.7387 313.565 86.7387C313.412 86.7387 313.261 86.7086 313.12 86.65C312.698 86.3396 312.367 85.9217 312.161 85.4398C311.955 84.9579 311.882 84.4296 311.95 83.91C311.975 83.3257 312.132 82.7547 312.41 82.24C312.496 82.0292 312.632 81.8426 312.806 81.6962C312.98 81.5499 313.188 81.4482 313.41 81.4C313.55 81.3721 313.695 81.395 313.82 81.4646C313.945 81.5343 314.04 81.6461 314.09 81.78C314.17 81.97 314.09 82.11 314.15 82.12C314.21 82.13 314.31 82.02 314.27 81.73C314.245 81.5593 314.16 81.4032 314.03 81.29C313.854 81.1335 313.625 81.0511 313.39 81.06C313.101 81.0968 312.826 81.2084 312.592 81.3838C312.359 81.5591 312.176 81.7922 312.06 82.06C311.717 82.6217 311.524 83.2622 311.5 83.92C311.422 84.5246 311.525 85.1386 311.796 85.6849C312.066 86.2312 312.492 86.6853 313.02 86.99C313.201 87.0553 313.394 87.0802 313.586 87.0629C313.778 87.0456 313.963 86.9866 314.13 86.89C314.32 86.67 314.37 86.52 314.35 86.5Z" fill="#EB996E"/>
<path d="M328.55 75.7801C328.89 76.2201 330.07 76.0201 331.61 75.9501C333.15 75.8801 334.34 75.8901 334.61 75.4101C334.88 74.9301 333.45 73.7801 331.47 73.9501C329.49 74.1201 328.17 75.3301 328.55 75.7801Z" fill="#263238"/>
<path d="M343.53 75.33C343.71 75.92 344.84 76.1 346.09 76.09C347.34 76.08 348.46 75.86 348.63 75.26C348.8 74.66 347.63 73.85 346.06 73.87C344.49 73.89 343.34 74.75 343.53 75.33Z" fill="#263238"/>
<path d="M351.29 67.61C351.29 67.61 345.68 70.33 338.39 66.69C333.6 64.3 328.03 63.13 326.8 64.09C325.57 65.05 325.31 69.99 320.57 71.43C320.57 71.43 320.89 80.83 317.14 80.5C313.39 80.17 315.73 65.61 315.73 65.61L324.91 61.13L334.91 59.24L344.34 60.57L351.64 62.57L351.29 67.61Z" fill="#263238"/>
<path d="M288.48 122.09C298.29 112 315.55 113.09 315.55 113.09L329.86 123.34L337.97 113.89C343.72 114.673 349.302 116.4 354.49 119L355.04 119.17V119.28C361.32 122.69 370.2 130.87 378.67 138.8L368.54 148.2L357.32 158.2C357.346 158.264 357.346 158.336 357.32 158.4C357.21 159.01 358.88 172.7 360.6 183.1C355.717 187.916 349.734 191.471 343.169 193.455C336.603 195.44 329.653 195.795 322.92 194.49C318.33 193.68 316.11 192.57 311.86 191.49C308.798 190.678 306.06 188.942 304.022 186.516C301.983 184.091 300.743 181.096 300.47 177.94C299.71 169.22 299.13 158.42 299.13 158.42" fill="#455A64"/>
<path d="M346.94 115.66C347.191 116.179 347.398 116.717 347.56 117.27C347.93 118.27 348.42 119.84 349.01 121.73C350.19 125.51 351.7 130.73 353.12 136.66C354.54 142.59 355.61 147.92 356.28 151.82C356.62 153.82 356.87 155.36 357.02 156.46C357.127 157.024 357.191 157.596 357.21 158.17C357.034 157.622 356.903 157.06 356.82 156.49C356.59 155.32 356.29 153.77 355.92 151.89C355.15 148.01 354.03 142.66 352.61 136.78C351.19 130.9 349.75 125.61 348.67 121.84L347.37 117.33C347.188 116.784 347.044 116.226 346.94 115.66Z" fill="#263238"/>
<path d="M356.15 151.71C356.06 151.6 360.34 147.96 365.71 143.59C371.08 139.22 375.5 135.76 375.59 135.87C375.68 135.98 371.41 139.62 366.04 143.99C360.67 148.36 356.25 151.82 356.15 151.71Z" fill="#263238"/>
<path opacity="0.2" d="M301.43 135.93L292.67 164.8L295.94 166.5L299.16 158.34C299.16 158.34 302.44 141.18 301.43 135.93Z" fill="black"/>
<g opacity="0.2">
<path d="M345.99 115.68C350.72 118.17 338.86 124.17 333.51 124.01L337.4 113.75C337.4 113.75 344.4 114.84 345.99 115.68Z" fill="black"/>
</g>
<path d="M314.14 113.75V106.1C314.14 106.1 329.07 109.95 329.61 118.88C329.61 118.88 331.51 109 339.21 108.53L340.3 122.42L331.3 130.22H322.27L315.08 124.01L314.14 114.37" fill="#455A64"/>
<path d="M332.98 161.74C332.929 161.195 332.929 160.645 332.98 160.1C332.98 159.04 332.98 157.51 333.03 155.62C333.03 151.85 332.92 146.62 332.45 140.89C331.98 135.16 331.22 129.98 330.59 126.26C330.27 124.47 330 122.99 329.8 121.86C329.67 121.325 329.59 120.78 329.56 120.23C329.748 120.748 329.895 121.279 330 121.82C330.26 122.82 330.59 124.34 330.95 126.2C331.875 131.045 332.543 135.935 332.95 140.85C333.354 145.766 333.495 150.699 333.37 155.63C333.32 157.52 333.25 159.05 333.16 160.11C333.138 160.657 333.078 161.202 332.98 161.74Z" fill="#263238"/>
<path d="M328.93 116.31C328.631 116.26 328.325 116.287 328.04 116.39C327.307 116.803 326.768 117.49 326.54 118.3C325.307 120.967 324.345 123.751 323.67 126.61L323.59 126.95L323.29 126.77C322.4 126.23 321.48 125.65 320.56 125.03C318.884 123.889 317.268 122.66 315.72 121.35C315.016 120.762 314.452 120.024 314.07 119.19C313.769 118.455 313.6 117.673 313.57 116.88C313.54 115.757 313.651 114.635 313.9 113.54C313.96 113.131 314.071 112.731 314.23 112.35C314.217 112.759 314.174 113.167 314.1 113.57C313.93 114.658 313.877 115.761 313.94 116.86C313.988 117.603 314.167 118.331 314.47 119.01C314.836 119.786 315.373 120.47 316.04 121.01C317.45 122.19 319.09 123.41 320.85 124.61C321.77 125.23 322.67 125.82 323.56 126.36L323.18 126.52C323.848 123.648 324.855 120.865 326.18 118.23C326.384 117.768 326.646 117.335 326.96 116.94C327.206 116.635 327.536 116.409 327.91 116.29C328.67 116.05 328.95 116.3 328.93 116.31Z" fill="#263238"/>
<path d="M339.21 108.53C339.301 108.92 339.348 109.319 339.35 109.72L339.59 112.98C339.7 114.35 339.87 115.98 340.15 117.77C340.39 118.731 340.451 119.727 340.33 120.71C339.951 121.74 339.25 122.621 338.33 123.22C337.161 123.946 336.063 124.779 335.05 125.71L334.65 126.16V125.56C334.469 122.948 333.714 120.408 332.44 118.12C331.49 116.41 330.71 115.54 330.77 115.49C330.83 115.44 331.01 115.67 331.36 116.08C331.862 116.67 332.317 117.298 332.72 117.96C334.111 120.259 334.943 122.851 335.15 125.53L334.71 125.38C335.738 124.41 336.86 123.546 338.06 122.8C338.873 122.266 339.496 121.489 339.84 120.58C339.945 119.664 339.891 118.737 339.68 117.84C339.43 116.03 339.3 114.38 339.23 113C339.16 111.62 339.15 110.5 339.16 109.73C339.126 109.33 339.143 108.926 339.21 108.53Z" fill="#263238"/>
<path d="M387.28 110.45C386.67 111.16 364.67 140.61 364.67 140.61L367.77 142.37L390.33 113.37L387.28 110.45Z" fill="#263238"/>
<path d="M298.95 133.69C298.95 133.69 322.08 166.99 323.48 167.64C326.22 168.93 357.86 141.59 360.88 138.97C361.3 138.41 362.16 137.24 363.88 134.91C363.88 134.91 366.38 123.49 369.04 124.36C371.7 125.23 367.58 130.17 369.32 134.51C371.06 138.85 379 128.51 379.32 127.57L381.37 124.89C381.37 124.89 383.52 130.98 383.37 133.53C382.9 141.68 375.19 151.37 375.19 151.37C375.19 151.37 340.56 194.27 316.84 195.6C310.01 195.98 297.84 176.6 289.75 162.06C287.387 157.814 286.66 152.851 287.704 148.106C288.749 143.361 291.493 139.161 295.42 136.3L298.95 133.69Z" fill="#FFBE9D"/>
<path d="M379.44 134.97C379.883 133.946 380.377 132.945 380.92 131.97C381.366 130.944 381.867 129.943 382.42 128.97C381.79 131.135 380.774 133.167 379.42 134.97H379.44Z" fill="#EB996E"/>
<path d="M295.04 117.44C295.04 117.44 270.21 126.27 288.67 168.02L317.33 150.72L313.25 140.96L295.04 117.44Z" fill="#455A64"/>
<path d="M293.14 118.17C294.147 118.076 295.163 118.161 296.14 118.42C297.284 118.716 298.379 119.178 299.39 119.79C300.726 120.622 301.944 121.632 303.01 122.79C305.718 125.814 307.986 129.204 309.75 132.86C311.85 136.92 313.81 141.55 315.82 146.4C316.42 147.86 317.02 149.29 317.58 150.65L317.67 150.87L317.46 150.98C309.17 155.5 301.95 159.73 296.85 162.9C294.29 164.48 292.26 165.78 290.85 166.68L289.25 167.68C289.067 167.807 288.873 167.918 288.67 168.01C288.829 167.856 289.003 167.719 289.19 167.6C289.54 167.34 290.06 166.96 290.75 166.49C292.11 165.49 294.12 164.19 296.65 162.57C301.71 159.32 308.91 155.02 317.21 150.49L317.09 150.81C316.53 149.45 315.93 148.02 315.33 146.56C313.33 141.71 311.33 137.09 309.33 133.04C307.6 129.424 305.387 126.059 302.75 123.04C301.719 121.892 300.543 120.883 299.25 120.04C298.261 119.419 297.191 118.938 296.07 118.61C295.108 118.381 294.127 118.233 293.14 118.17Z" fill="#263238"/>
<path d="M346.54 56.27C346.603 56.4093 346.644 56.5579 346.66 56.71C346.736 57.1355 346.763 57.5684 346.74 58C346.644 59.624 345.97 61.1599 344.84 62.33C343.982 63.1866 342.908 63.7957 341.732 64.0932C340.557 64.3906 339.322 64.3653 338.16 64.02C336.752 63.6456 335.533 62.7618 334.74 61.54C334.32 60.8658 334.14 60.0693 334.23 59.28C334.276 58.8686 334.409 58.4717 334.621 58.1163C334.833 57.7609 335.119 57.4553 335.46 57.22C335.815 56.9963 336.221 56.8645 336.64 56.8366C337.059 56.8086 337.478 56.8854 337.86 57.06C338.601 57.3745 339.19 57.9668 339.5 58.71C339.747 59.4033 339.815 60.1474 339.7 60.8741C339.585 61.6009 339.289 62.2871 338.84 62.87C338.089 63.8419 337.019 64.5173 335.819 64.7771C334.619 65.0369 333.365 64.8644 332.28 64.29C331.497 63.88 330.668 63.5644 329.81 63.35C329.169 63.2056 328.498 63.2759 327.9 63.55C327.399 63.8202 326.924 64.1348 326.48 64.49C326.48 64.49 326.57 64.36 326.77 64.14C326.893 64.0025 327.031 63.8785 327.18 63.77C327.376 63.6075 327.591 63.4697 327.82 63.36C328.438 63.0512 329.138 62.9462 329.82 63.06C330.711 63.2524 331.574 63.5547 332.39 63.96C332.853 64.1643 333.336 64.3218 333.83 64.43C334.362 64.5295 334.908 64.5295 335.44 64.43C336.637 64.2399 337.713 63.5906 338.44 62.62C338.835 62.1033 339.095 61.4961 339.196 60.8535C339.298 60.2109 339.237 59.5532 339.02 58.94C338.901 58.63 338.718 58.3484 338.483 58.1137C338.248 57.879 337.966 57.6963 337.656 57.5775C337.345 57.4586 337.014 57.4064 336.682 57.424C336.35 57.4417 336.026 57.5289 335.73 57.68C335.454 57.8777 335.222 58.1312 335.05 58.424C334.877 58.7168 334.769 59.0425 334.73 59.38C334.659 60.0543 334.814 60.7332 335.17 61.31C335.895 62.4269 337.006 63.2383 338.29 63.59C339.375 63.9225 340.528 63.9596 341.632 63.6977C342.736 63.4358 343.75 62.8843 344.57 62.1C345.67 61.0047 346.358 59.5638 346.52 58.02C346.563 57.4376 346.569 56.8532 346.54 56.27Z" fill="#455A64"/>
<path d="M341.13 93.98C341.13 94.04 340.83 94.18 340.28 94.2C339.559 94.2097 338.847 94.0458 338.203 93.7221C337.559 93.3983 337.002 92.9243 336.58 92.34C336.28 91.88 336.19 91.55 336.25 91.52C336.908 92.1851 337.643 92.7693 338.44 93.26C339.304 93.6072 340.208 93.849 341.13 93.98Z" fill="#263238"/>
<path d="M348.19 59.6101C348.519 60.1664 348.686 60.8039 348.67 61.4501C348.749 63.0294 348.214 64.5781 347.178 65.7726C346.142 66.9671 344.685 67.715 343.11 67.8601C342.472 67.9693 341.816 67.8929 341.22 67.6401C341.22 67.5501 341.95 67.6401 343.06 67.4901C344.501 67.2686 345.817 66.545 346.776 65.447C347.735 64.3491 348.274 62.9476 348.3 61.4901C348.33 60.3501 348.1 59.6601 348.19 59.6101Z" fill="#455A64"/>
<path d="M314.37 143.31C314.43 143.44 307.84 146.83 299.64 150.88C291.44 154.93 284.75 158.12 284.64 157.99C284.53 157.86 291.16 154.47 299.36 150.41C307.56 146.35 314.31 143.18 314.37 143.31Z" fill="#E0E0E0"/>
<path d="M308.36 131.97C308.43 132.09 302.56 135.38 295.25 139.3C287.94 143.22 281.96 146.3 281.9 146.17C281.84 146.04 287.7 142.76 295.01 138.84C302.32 134.92 308.29 131.84 308.36 131.97Z" fill="#E0E0E0"/>
<path d="M302.55 122.8C301.617 123.447 300.637 124.025 299.62 124.53L292.44 128.53L285.3 132.61C284.34 133.221 283.338 133.762 282.3 134.23C283.183 133.508 284.127 132.862 285.12 132.3C286.9 131.17 289.39 129.67 292.19 128.08C294.99 126.49 297.57 125.15 299.46 124.21C300.448 123.653 301.482 123.181 302.55 122.8Z" fill="#E0E0E0"/>
<path d="M324.52 120.61C323.843 120.579 323.182 120.401 322.58 120.09C321.114 119.433 319.764 118.545 318.58 117.46C317.393 116.376 316.302 115.192 315.32 113.92C314.871 113.43 314.491 112.882 314.19 112.29C314.25 112.29 314.77 112.78 315.6 113.69C316.43 114.6 317.55 115.84 318.93 117.07C320.092 118.126 321.386 119.027 322.78 119.75C323.81 120.32 324.54 120.55 324.52 120.61Z" fill="#E0E0E0"/>
<path d="M339.1 115.21C338.77 116.416 338.04 117.473 337.03 118.21C336.135 119.084 334.966 119.625 333.72 119.74C334.756 119.155 335.758 118.511 336.72 117.81C337.556 116.984 338.351 116.116 339.1 115.21Z" fill="#E0E0E0"/>
<path d="M365.11 130.26C364.928 130.316 364.74 130.35 364.55 130.36L362.94 130.56C361.54 130.72 359.51 130.91 357.01 131.11C352.01 131.51 345.01 131.9 337.38 132.18C329.75 132.46 322.76 132.55 317.72 132.51C315.21 132.51 313.17 132.44 311.77 132.39L310.15 132.31C309.961 132.31 309.773 132.287 309.59 132.24C309.776 132.216 309.964 132.216 310.15 132.24H311.77L317.72 132.19C322.72 132.14 329.72 131.98 337.36 131.71C345 131.44 351.96 131.09 356.98 130.79L362.92 130.41L364.54 130.31C364.727 130.268 364.919 130.251 365.11 130.26Z" fill="#E0E0E0"/>
<path d="M357.21 142.12C356.67 142.244 356.122 142.33 355.57 142.38C354.5 142.51 352.96 142.67 351.06 142.85C347.25 143.2 341.98 143.56 336.15 143.8C330.32 144.04 325.03 144.09 321.15 144.05C319.24 144.05 317.69 143.99 316.62 143.95C316.064 143.955 315.509 143.911 314.96 143.82C315.511 143.754 316.065 143.727 316.62 143.74L321.15 143.68C324.97 143.68 330.25 143.51 336.07 143.28C341.89 143.05 347.17 142.74 350.98 142.48L355.5 142.17C356.067 142.1 356.64 142.083 357.21 142.12Z" fill="#E0E0E0"/>
<path d="M339.28 156.74C338.192 156.991 337.085 157.149 335.97 157.21C333.91 157.42 331.07 157.65 327.92 157.81C324.77 157.97 321.92 158.02 319.85 158.01C318.735 158.063 317.618 158.019 316.51 157.88C317.612 157.712 318.725 157.632 319.84 157.64L327.89 157.29L335.89 156.84C337.016 156.729 338.149 156.696 339.28 156.74Z" fill="#E0E0E0"/>
<path d="M316.37 122.04C316.37 122.19 313.3 122.22 309.52 122.38C305.74 122.54 302.69 122.75 302.67 122.6C307.191 121.801 311.799 121.613 316.37 122.04Z" fill="#E0E0E0"/>
<path d="M358.55 121.5C355.597 121.743 352.632 121.817 349.67 121.72C346.704 121.798 343.735 121.702 340.78 121.43C343.736 121.181 346.705 121.104 349.67 121.2C352.633 121.121 355.599 121.222 358.55 121.5Z" fill="#E0E0E0"/>
<path d="M360.09 182.35C359.809 182.559 359.503 182.734 359.18 182.87C358.58 183.18 357.69 183.59 356.58 184.06C353.664 185.261 350.653 186.221 347.58 186.93C344.508 187.631 341.385 188.082 338.24 188.28C337.04 188.35 336.06 188.37 335.38 188.35C335.045 188.366 334.709 188.342 334.38 188.28C334.38 188.2 335.86 188.14 338.25 187.91C341.362 187.611 344.452 187.113 347.5 186.42C350.557 185.718 353.564 184.813 356.5 183.71C358.67 182.87 360.06 182.27 360.09 182.35Z" fill="#E0E0E0"/>
<path d="M89.96 318.46C113.868 318.46 133.25 299.969 133.25 277.16C133.25 254.351 113.868 235.86 89.96 235.86C66.0516 235.86 46.67 254.351 46.67 277.16C46.67 299.969 66.0516 318.46 89.96 318.46Z" fill="#E0E0E0"/>
<path d="M81.14 177.61C74.28 177.97 71.58 185.13 70.76 186.73C70.0558 188.388 69.6821 190.168 69.66 191.97C69.6391 193.774 69.1864 195.547 68.34 197.14C66.83 199.55 63.65 200.8 62.79 203.51C61.79 206.58 64.32 209.86 63.65 213.01C63.29 214.7 62.06 216.09 61.65 217.76C61.2717 219.545 61.6054 221.407 62.58 222.95C64.83 226.83 69.51 228.77 73.99 228.95C78.47 229.13 82.85 227.77 87.14 226.45" fill="#263238"/>
<path d="M111.36 186.49C111.097 187.248 111.051 188.065 111.228 188.848C111.404 189.631 111.797 190.348 112.36 190.92C113.512 192.025 114.756 193.028 116.08 193.92C116.741 194.376 117.306 194.957 117.742 195.632C118.178 196.306 118.476 197.06 118.62 197.85C118.75 199.31 118.01 200.77 118.21 202.22C118.73 205.97 124.7 207.09 125.01 210.85C125.23 213.36 122.65 215.67 123.37 218.08C123.76 218.984 124.264 219.834 124.87 220.61C126.57 223.43 125.42 227.31 122.96 229.49C120.5 231.67 117.1 232.44 113.82 232.59C111.06 232.71 107.92 232.26 106.3 230.03C104.81 227.98 105.12 225.2 105.41 222.69C106.8 210.97 106.56 199.13 106.33 187.33" fill="#263238"/>
<path d="M82.95 240.72C83 234.56 82.95 228.08 82.95 228.08C82.95 228.08 75.04 226.67 73.51 216.31C72.06 206.42 74.51 185.16 74.51 185.16C85.98 180.63 98.9 182.38 106.93 191.61L105.67 241.61C105.53 247.41 100.42 251.91 94.21 251.71C87.94 251.5 82.9 246.61 82.95 240.72Z" fill="#FFBE9D"/>
<path d="M76.6701 201.48C76.6618 201.826 76.7888 202.162 77.024 202.416C77.2593 202.67 77.5843 202.822 77.9301 202.84C78.099 202.855 78.2693 202.836 78.431 202.785C78.5927 202.734 78.7426 202.651 78.872 202.541C79.0013 202.431 79.1075 202.297 79.1844 202.145C79.2614 201.994 79.3075 201.829 79.3201 201.66C79.3257 201.313 79.1965 200.977 78.9596 200.724C78.7227 200.47 78.3967 200.318 78.0501 200.3C77.8816 200.285 77.7118 200.304 77.5507 200.355C77.3896 200.407 77.2404 200.49 77.1119 200.6C76.9833 200.71 76.878 200.844 76.8022 200.995C76.7263 201.146 76.6814 201.311 76.6701 201.48Z" fill="#263238"/>
<path d="M74.5401 200.46C74.7001 200.63 75.7101 199.9 77.1401 199.92C79.8301 200.31 79.7801 200.72 79.7601 200.49C79.8401 200.42 79.6801 200.1 79.2201 199.77C78.6113 199.331 77.8806 199.093 77.1301 199.09C76.3857 199.083 75.6578 199.31 75.0501 199.74C74.6101 200.07 74.4601 200.38 74.5401 200.46Z" fill="#263238"/>
<path d="M91.29 201.91C91.2818 202.255 91.4092 202.59 91.6447 202.842C91.8802 203.094 92.2052 203.244 92.5501 203.26C92.7188 203.276 92.8891 203.259 93.0508 203.208C93.2125 203.157 93.3622 203.074 93.4911 202.964C93.6199 202.853 93.7252 202.718 93.8007 202.567C93.8761 202.415 93.9201 202.249 93.93 202.08C93.9383 201.734 93.8113 201.398 93.5761 201.144C93.3408 200.89 93.0158 200.738 92.6701 200.72C92.5011 200.706 92.3311 200.726 92.1699 200.779C92.0088 200.832 91.8597 200.916 91.7313 201.026C91.6029 201.137 91.4978 201.272 91.422 201.424C91.3463 201.576 91.3014 201.741 91.29 201.91Z" fill="#263238"/>
<path d="M89.43 200.95C89.59 201.13 90.61 200.39 92.03 200.41C93.45 200.43 94.5 201.16 94.66 200.99C94.82 200.82 94.57 200.6 94.12 200.26C93.5076 199.822 92.7729 199.587 92.02 199.59C91.2763 199.577 90.5477 199.801 89.94 200.23C89.5 200.61 89.35 200.87 89.43 200.95Z" fill="#263238"/>
<path d="M84.12 211.2C83.3742 210.945 82.597 210.794 81.81 210.75C81.45 210.75 81.1 210.63 81.04 210.38C81.019 210.002 81.1094 209.627 81.3001 209.3L82.4101 206.54C83.4327 204.195 84.2719 201.775 84.92 199.3C84.76 199.24 83.3801 202.39 81.8301 206.3C81.4601 207.3 81.1101 208.2 80.7701 209.08C80.5314 209.516 80.4569 210.023 80.56 210.51C80.6104 210.641 80.691 210.758 80.7953 210.852C80.8996 210.946 81.0246 211.014 81.1601 211.05C81.3575 211.111 81.5633 211.142 81.7701 211.14C82.5477 211.259 83.3373 211.279 84.12 211.2Z" fill="#263238"/>
<path d="M82.9401 228.08C87.8107 228.212 92.6224 226.99 96.8401 224.55C96.8401 224.55 93.4001 231.62 83.0501 230.55L82.9401 228.08Z" fill="#EB996E"/>
<path d="M84.6701 214.61C84.9469 214.272 85.3048 214.009 85.7105 213.847C86.1161 213.684 86.5563 213.627 86.9901 213.68C87.3197 213.709 87.6395 213.806 87.929 213.966C88.2184 214.127 88.4709 214.346 88.6701 214.61C88.8578 214.852 88.967 215.145 88.9831 215.451C88.9992 215.757 88.9213 216.06 88.7601 216.32C88.5256 216.571 88.2222 216.748 87.8879 216.828C87.5535 216.908 87.203 216.888 86.8801 216.77C86.2093 216.523 85.594 216.146 85.0701 215.66C84.9118 215.542 84.7763 215.396 84.6701 215.23C84.6168 215.152 84.5883 215.06 84.5883 214.965C84.5883 214.87 84.6168 214.778 84.6701 214.7" fill="#EB996E"/>
<path d="M88.3201 212.23C88.0801 212.23 88.0601 213.77 86.7201 214.85C85.3801 215.93 83.7201 215.75 83.7201 215.96C83.7201 216.17 84.0901 216.27 84.7801 216.29C85.6906 216.322 86.582 216.023 87.2901 215.45C87.967 214.906 88.4076 214.121 88.5201 213.26C88.5901 212.61 88.4201 212.22 88.3201 212.23Z" fill="#263238"/>
<path d="M102.43 184.23C98.6501 189.63 88.6201 195.18 81.4301 196.47C82.2601 195.37 86.6701 192.65 87.5101 191.55C84.2601 193.97 79.6001 197.23 75.2901 197.44C74.7816 197.515 74.2624 197.434 73.8001 197.21C73.5581 197.016 73.3645 196.769 73.2343 196.488C73.1042 196.207 73.0411 195.9 73.0501 195.59C72.8048 192.462 72.9054 189.316 73.3501 186.21C73.6921 183.585 75.027 181.191 77.0801 179.52C79.8501 177.38 83.8001 176.86 87.5301 176.77C90.652 176.567 93.783 176.989 96.7401 178.01C99.6001 179.13 102.05 181.36 102.47 184.01" fill="#263238"/>
<path d="M113.29 208.42C113.764 206.136 114.098 203.825 114.29 201.5C114.6 196.16 113.06 176.5 94.65 178.04L93.9 183.65C93.9 183.65 91.06 202.84 102.97 202.98C103.77 207.265 105.864 211.201 108.97 214.26C108.97 214.26 112.09 214.17 113.21 208.42" fill="#263238"/>
<path d="M103 202.98C104.112 202.761 105.263 202.848 106.33 203.23C107.399 203.633 108.265 204.441 108.74 205.48C109.155 206.541 109.155 207.719 108.74 208.78C108.312 209.83 107.656 210.773 106.82 211.54C106.269 212.132 105.583 212.581 104.82 212.85C104.435 212.983 104.023 213.017 103.622 212.951C103.22 212.885 102.842 212.719 102.52 212.47" fill="#FFBE9D"/>
<path d="M103.53 209.7C103.4 209.7 103.88 210.41 104.89 210.15C105.162 210.064 105.414 209.924 105.63 209.738C105.847 209.553 106.023 209.325 106.15 209.07C106.463 208.508 106.66 207.889 106.73 207.25C106.826 206.551 106.666 205.841 106.28 205.25C106.124 205.003 105.913 204.796 105.663 204.645C105.413 204.494 105.131 204.403 104.84 204.38C103.84 204.38 103.47 205.06 103.58 205.08C103.69 205.1 104.07 204.8 104.75 204.97C105.166 205.132 105.51 205.438 105.717 205.833C105.925 206.229 105.983 206.685 105.88 207.12C105.75 208.26 105.3 209.3 104.69 209.55C104.08 209.8 103.6 209.61 103.53 209.7Z" fill="#EB996E"/>
<path d="M105.01 182.21C106.437 183.02 108.125 183.239 109.712 182.82C111.298 182.402 112.658 181.379 113.5 179.97C114.083 179.086 114.291 178.007 114.08 176.97C113.844 176.292 113.434 175.688 112.892 175.218C112.35 174.748 111.694 174.428 110.99 174.29C109.984 174.027 108.928 174.017 107.916 174.259C106.905 174.501 105.968 174.99 105.19 175.68C104.429 176.393 103.885 177.306 103.619 178.314C103.354 179.322 103.378 180.385 103.69 181.38C104.043 182.358 104.693 183.201 105.548 183.792C106.403 184.384 107.421 184.694 108.46 184.68" fill="#263238"/>
<path d="M106.67 212.05C105.616 212.75 104.655 213.579 103.81 214.52C102.964 215.476 102.523 216.724 102.58 218C102.735 218.689 102.812 219.394 102.81 220.1C102.506 221.025 102.012 221.877 101.36 222.6C100.756 223.707 100.521 224.977 100.688 226.227C100.855 227.477 101.416 228.641 102.29 229.55C104.105 231.335 106.554 232.327 109.1 232.31C110.565 232.435 112.031 232.085 113.28 231.31C115 230.11 115.66 227.85 115.71 225.74" fill="#263238"/>
<path d="M107.93 186.34C107.675 187.021 107.311 187.657 106.85 188.22C105.833 189.656 104.641 190.96 103.3 192.1C101.969 193.252 100.502 194.236 98.9301 195.03C98.3081 195.395 97.6334 195.661 96.9301 195.82C99.0549 194.611 101.081 193.237 102.99 191.71C104.774 190.051 106.426 188.256 107.93 186.34Z" fill="#455A64"/>
<path d="M109.84 186.23C109.868 187.086 109.757 187.94 109.51 188.76C109.017 190.762 108.228 192.68 107.17 194.45C106.105 196.215 104.78 197.809 103.24 199.18C102.63 199.781 101.928 200.281 101.16 200.66C103.298 198.761 105.168 196.582 106.72 194.18C108.12 191.686 109.169 189.011 109.84 186.23Z" fill="#455A64"/>
<path d="M69.8701 194.61C70.0201 194.61 70.2201 196.33 70.8701 198.38C71.5201 200.43 72.2101 202 72.0701 202.07C70.5226 199.899 69.7479 197.273 69.8701 194.61Z" fill="#455A64"/>
<path d="M113.98 229.95C114.433 230.248 114.958 230.417 115.5 230.44C116.129 230.432 116.742 230.237 117.26 229.88C117.925 229.391 118.396 228.682 118.59 227.88C118.83 226.894 118.83 225.866 118.59 224.88C118.38 223.79 117.96 222.67 117.59 221.44C117.137 220.158 116.983 218.79 117.14 217.44C117.37 215.98 118.32 214.79 118.78 213.44C118.998 212.796 119.084 212.114 119.034 211.436C118.984 210.757 118.799 210.096 118.49 209.49C117.921 208.342 116.944 207.447 115.75 206.98C115.164 206.761 114.59 206.511 114.03 206.23C113.472 205.954 112.998 205.533 112.66 205.01C112.164 204.038 111.949 202.947 112.04 201.86C112.107 201.012 112.074 200.16 111.94 199.32C111.83 198.695 111.573 198.106 111.19 197.6C110.845 197.178 110.371 196.883 109.84 196.76C109.985 196.725 110.136 196.725 110.28 196.76C110.695 196.868 111.068 197.098 111.35 197.42C111.774 197.943 112.075 198.555 112.23 199.21C112.401 200.069 112.461 200.946 112.41 201.82C112.34 202.829 112.554 203.837 113.03 204.73C113.59 205.65 114.75 206.03 115.93 206.5C117.236 206.998 118.307 207.969 118.93 209.22C119.273 209.886 119.479 210.614 119.538 211.361C119.596 212.108 119.505 212.859 119.27 213.57C118.75 215 117.83 216.14 117.63 217.45C117.478 218.735 117.618 220.037 118.04 221.26C118.39 222.46 118.8 223.61 119.04 224.74C119.263 225.799 119.232 226.895 118.95 227.94C118.712 228.819 118.17 229.584 117.42 230.1C116.848 230.474 116.172 230.656 115.49 230.62C115.062 230.601 114.647 230.466 114.29 230.23C114.168 230.16 114.063 230.064 113.98 229.95Z" fill="#455A64"/>
<path d="M106.76 229.24C106.76 229.24 106.89 229.56 107.37 229.79C107.706 229.929 108.08 229.953 108.431 229.857C108.782 229.761 109.091 229.551 109.31 229.26C109.568 228.772 109.689 228.224 109.661 227.673C109.633 227.122 109.456 226.589 109.15 226.13C108.58 225 107.45 223.89 107.15 222.24C107.068 221.838 107.075 221.423 107.17 221.024C107.265 220.625 107.446 220.252 107.7 219.93C108.19 219.33 108.77 218.93 109.14 218.44C109.78 217.505 110.031 216.357 109.84 215.24C109.716 214.468 109.526 213.709 109.27 212.97C109.154 212.702 109.073 212.419 109.03 212.13C109.03 212.13 109.22 212.39 109.45 212.9C109.799 213.627 110.051 214.397 110.2 215.19C110.328 215.793 110.335 216.416 110.22 217.022C110.105 217.628 109.87 218.205 109.53 218.72C109.1 219.3 108.53 219.72 108.11 220.25C107.9 220.516 107.751 220.825 107.673 221.155C107.595 221.485 107.591 221.828 107.66 222.16C107.9 223.59 108.96 224.68 109.57 225.91C109.899 226.447 110.073 227.065 110.073 227.695C110.073 228.325 109.899 228.943 109.57 229.48C109.418 229.677 109.227 229.841 109.008 229.96C108.789 230.078 108.548 230.15 108.3 230.17C107.935 230.213 107.565 230.143 107.24 229.97C106.74 229.61 106.74 229.23 106.76 229.24Z" fill="#455A64"/>
<path d="M67.56 226.61C67.2535 226.376 66.978 226.104 66.74 225.8C66.0263 225.02 65.4392 224.132 65 223.17C64.7038 222.482 64.5605 221.739 64.58 220.99C64.5846 220.103 64.8954 219.244 65.46 218.56C66.08 217.85 66.98 217.47 67.52 216.8C67.7817 216.432 67.9549 216.009 68.026 215.563C68.0971 215.117 68.0643 214.661 67.93 214.23C67.6859 213.305 67.3194 212.418 66.84 211.59C66.3708 210.771 66.0334 209.884 65.84 208.96C65.6779 208.086 65.8607 207.183 66.35 206.44C66.7867 205.847 67.2975 205.313 67.87 204.85C68.6971 204.251 69.2993 203.392 69.58 202.41C69.6478 202.047 69.6478 201.674 69.58 201.31C69.58 201.31 69.66 201.39 69.73 201.57C69.8303 201.848 69.8612 202.147 69.82 202.44C69.6037 203.503 69.015 204.453 68.16 205.12C67.6325 205.581 67.1594 206.101 66.75 206.67C66.3355 207.327 66.1922 208.119 66.35 208.88C66.5557 209.749 66.8929 210.582 67.35 211.35C67.8549 212.215 68.2416 213.143 68.5 214.11C68.6478 214.617 68.6779 215.15 68.5877 215.67C68.4976 216.19 68.2897 216.683 67.98 217.11C67.3 217.91 66.4 218.26 65.88 218.87C65.3737 219.462 65.0876 220.211 65.07 220.99C65.0394 221.672 65.1518 222.354 65.4 222.99C65.7928 223.939 66.318 224.828 66.96 225.63C67.1912 225.937 67.3921 226.265 67.56 226.61Z" fill="#455A64"/>
<path d="M109.26 183.51C108.546 182.54 107.727 181.652 106.82 180.86C105.813 180.204 104.736 179.661 103.61 179.24C104.883 179.26 106.117 179.685 107.132 180.452C108.148 181.22 108.893 182.291 109.26 183.51Z" fill="#007BFF"/>
<path d="M110.67 173.94C110.73 173.94 111.06 174.3 111.33 175.07C111.676 176.094 111.707 177.199 111.42 178.241C111.133 179.284 110.541 180.217 109.72 180.92C109.08 181.45 108.6 181.61 108.57 181.56C108.54 181.51 108.94 181.22 109.46 180.66C110.152 179.945 110.654 179.068 110.92 178.109C111.185 177.15 111.206 176.139 110.98 175.17C110.841 174.77 110.738 174.358 110.67 173.94Z" fill="#455A64"/>
<path opacity="0.3" d="M59.92 296.95C59.92 296.95 84.77 320.55 99.54 316.27C114.31 311.99 118.67 300.92 118.67 300.92L119.03 296.92L117.55 295.92L60.67 291.38L59.92 296.95Z" fill="black"/>
<path d="M45.23 274.85L50.02 262.61L67.19 273.4L51.89 296.99C51.89 296.99 45.67 288.87 45.23 274.85Z" fill="#EB996E"/>
<path d="M64.6 240.91C72.6 236.73 82.94 235.53 82.94 235.53C85.94 241.53 95.41 242.3 101.14 238.2L105.98 234.93C106.648 234.92 107.316 234.95 107.98 235.02C113.5 235.538 118.706 237.821 122.827 241.529C126.948 245.238 129.765 250.175 130.86 255.61C131.814 259.874 132.221 264.243 132.07 268.61C131.44 279.54 120.13 280.53 120.13 280.53C120.13 280.53 119.55 291.32 118.78 300.05C118.614 303.091 117.6 306.025 115.852 308.519C114.104 311.013 111.692 312.967 108.89 314.16C104.929 316.141 100.669 317.455 96.28 318.05C89.429 319.122 82.4196 318.498 75.866 316.231C69.3125 313.965 63.4149 310.126 58.69 305.05C60.41 294.65 62.05 281.18 61.93 280.57C61.9105 280.505 61.9105 280.435 61.93 280.37L50.72 270.42L44.36 265.08C44.36 265.08 58.36 244.38 64.58 240.98" fill="#007BFF"/>
<path d="M78.5 247.61C77.6541 247.129 76.7026 246.865 75.73 246.84C74.6905 246.838 73.6815 247.19 72.87 247.84C72.409 248.263 71.9811 248.721 71.59 249.21C71.1438 249.807 70.5041 250.232 69.78 250.41C69.0306 250.504 68.274 250.303 67.67 249.85C67.09 249.48 66.6 249.08 66.09 248.79C65.6514 248.532 65.161 248.375 64.6543 248.33C64.1475 248.285 63.6371 248.353 63.16 248.53C62.4917 248.757 61.8997 249.166 61.45 249.71C61.14 250.1 61.03 250.36 60.98 250.34C61.0176 250.068 61.1243 249.809 61.29 249.59C61.709 248.952 62.3176 248.463 63.03 248.19C63.5569 247.964 64.1287 247.863 64.701 247.894C65.2733 247.926 65.8307 248.088 66.33 248.37C66.89 248.67 67.39 249.08 67.94 249.42C68.4408 249.797 69.0668 249.969 69.69 249.9C70.2962 249.744 70.8341 249.393 71.22 248.9C71.6257 248.392 72.0776 247.924 72.57 247.5C73.472 246.803 74.5916 246.449 75.73 246.5C76.4823 246.526 77.2168 246.736 77.87 247.11C78.33 247.39 78.52 247.61 78.5 247.61Z" fill="#FAFAFA"/>
<path d="M89.89 262.61C89.244 261.88 88.4259 261.323 87.51 260.99C86.5377 260.657 85.4823 260.657 84.51 260.99C83.9435 261.248 83.3956 261.546 82.87 261.88C82.2547 262.301 81.5135 262.499 80.77 262.44C80.0288 262.289 79.3757 261.855 78.95 261.23C78.52 260.7 78.18 260.16 77.79 259.72C77.457 259.336 77.0429 259.031 76.5777 258.827C76.1125 258.623 75.6078 258.525 75.1 258.54C74.3943 258.547 73.7034 258.744 73.1 259.11C72.68 259.38 72.49 259.59 72.45 259.56C72.41 259.53 72.58 259.28 72.99 258.94C73.7549 258.365 74.7055 258.094 75.6584 258.179C76.6112 258.264 77.4989 258.699 78.15 259.4C78.58 259.87 78.93 260.4 79.34 260.91C79.7003 261.416 80.2342 261.772 80.84 261.91C81.4707 261.943 82.0953 261.771 82.62 261.42C83.1676 261.067 83.7468 260.766 84.35 260.52C85.4316 260.15 86.6101 260.182 87.67 260.61C88.3792 260.869 89.0118 261.302 89.51 261.87C89.81 262.28 89.91 262.55 89.89 262.61Z" fill="#FAFAFA"/>
<path d="M115.2 240.71C114.271 240.422 113.286 240.363 112.33 240.54C111.312 240.756 110.398 241.314 109.74 242.12C109.386 242.63 109.068 243.165 108.79 243.72C108.477 244.401 107.941 244.955 107.27 245.29C106.555 245.528 105.777 245.489 105.09 245.18C104.45 244.94 103.88 244.65 103.32 244.47C102.836 244.313 102.322 244.266 101.817 244.332C101.312 244.398 100.828 244.575 100.4 244.85C99.7998 245.217 99.3094 245.738 98.9801 246.36C98.7601 246.8 98.7001 247.09 98.6601 247.08C98.6201 247.07 98.6601 246.78 98.8001 246.27C99.1623 245.384 99.8402 244.663 100.703 244.248C101.565 243.832 102.551 243.751 103.47 244.02C104.08 244.2 104.66 244.48 105.26 244.7C105.828 244.966 106.476 245.001 107.07 244.8C107.632 244.511 108.083 244.043 108.35 243.47C108.633 242.891 108.968 242.339 109.35 241.82C110.09 240.949 111.113 240.369 112.24 240.18C112.981 240.042 113.745 240.093 114.46 240.33C114.735 240.391 114.99 240.522 115.2 240.71Z" fill="#FAFAFA"/>
<path d="M103.52 257.11C103.023 256.559 102.412 256.122 101.73 255.83C100.994 255.543 100.182 255.518 99.43 255.76C98.9839 255.931 98.5525 256.139 98.14 256.38C97.6382 256.69 97.0458 256.821 96.46 256.75C95.882 256.609 95.3805 256.251 95.06 255.75C94.75 255.32 94.51 254.89 94.23 254.54C93.9925 254.234 93.6896 253.986 93.3435 253.813C92.9974 253.64 92.6169 253.547 92.23 253.54C91.4905 253.544 90.7693 253.771 90.16 254.19C90.16 254.19 90.26 253.97 90.58 253.72C91.191 253.293 91.939 253.108 92.6785 253.203C93.418 253.297 94.0958 253.663 94.58 254.23C94.9 254.61 95.16 255.04 95.45 255.43C95.6972 255.831 96.0864 256.123 96.54 256.25C97.46 256.41 98.3 255.58 99.26 255.31C100.118 255.06 101.038 255.127 101.85 255.5C103.26 256.13 103.58 257.13 103.52 257.11Z" fill="#FAFAFA"/>
<path d="M77.77 270.93C77.2674 270.381 76.6538 269.944 75.97 269.65C75.2306 269.373 74.4185 269.359 73.67 269.61C73.2247 269.783 72.7935 269.991 72.38 270.23C71.8721 270.553 71.2669 270.688 70.67 270.61C70.0961 270.466 69.5989 270.108 69.28 269.61C68.96 269.18 68.72 268.75 68.45 268.41C68.2111 268.106 67.9078 267.859 67.562 267.686C67.2163 267.513 66.8365 267.419 66.45 267.41C65.7097 267.409 64.987 267.636 64.38 268.06C64.38 268.06 64.47 267.84 64.8 267.59C65.2786 267.238 65.8559 267.046 66.45 267.04C66.8999 267.023 67.3478 267.109 67.7588 267.293C68.1698 267.477 68.533 267.753 68.82 268.1C69.14 268.48 69.39 268.91 69.69 269.3C69.9325 269.701 70.3187 269.994 70.77 270.12C71.69 270.28 72.54 269.45 73.5 269.18C74.3548 268.93 75.2711 268.997 76.08 269.37C77.5 269.95 77.82 270.95 77.77 270.93Z" fill="#FAFAFA"/>
<path d="M101.84 271.25C101.196 270.876 100.473 270.657 99.73 270.61C98.9409 270.581 98.1653 270.821 97.53 271.29C97.1703 271.596 96.8359 271.93 96.53 272.29C96.1545 272.744 95.6364 273.058 95.06 273.18C94.4638 273.224 93.8734 273.038 93.41 272.66C92.97 272.36 92.61 272.03 92.23 271.79C91.9059 271.581 91.5396 271.447 91.1575 271.397C90.7754 271.347 90.387 271.382 90.02 271.5C89.3212 271.746 88.7119 272.195 88.27 272.79C88.27 272.79 88.27 272.55 88.52 272.2C88.8634 271.714 89.3491 271.347 89.91 271.15C90.3294 270.988 90.7806 270.925 91.2282 270.967C91.6758 271.009 92.1077 271.153 92.49 271.39C92.91 271.64 93.29 271.97 93.7 272.24C94.0598 272.541 94.522 272.691 94.99 272.66C95.91 272.52 96.44 271.46 97.26 270.89C97.9918 270.379 98.8815 270.145 99.77 270.23C100.17 270.234 100.563 270.327 100.921 270.504C101.28 270.68 101.594 270.935 101.84 271.25Z" fill="#FAFAFA"/>
<path d="M93.8901 282.23C93.2403 281.869 92.5209 281.651 91.7801 281.59C90.9879 281.562 90.2095 281.802 89.5701 282.27C89.2126 282.578 88.8783 282.912 88.5701 283.27C88.1956 283.725 87.6771 284.039 87.1001 284.16C86.5056 284.203 85.9168 284.021 85.4501 283.65C85.0101 283.34 84.6501 283.01 84.2701 282.78C83.9476 282.568 83.5816 282.431 83.1992 282.379C82.8167 282.327 82.4274 282.361 82.0601 282.48C81.3592 282.722 80.7488 283.172 80.3101 283.77C80.3324 283.554 80.4156 283.35 80.5501 283.18C80.9917 282.565 81.6493 282.14 82.3911 281.99C83.1329 281.84 83.9041 281.975 84.5501 282.37C84.9801 282.62 85.3601 282.95 85.7701 283.22C86.1299 283.521 86.592 283.671 87.0601 283.64C87.9801 283.5 88.5101 282.44 89.3301 281.87C90.0633 281.362 90.9519 281.129 91.8401 281.21C92.2358 281.219 92.6247 281.315 92.979 281.491C93.3334 281.667 93.6444 281.92 93.8901 282.23Z" fill="#FAFAFA"/>
<path d="M77.1001 309.49C76.5887 308.947 75.9685 308.517 75.2801 308.23C74.5358 307.968 73.7243 307.968 72.9801 308.23C72.537 308.412 72.109 308.63 71.7001 308.88C71.2036 309.194 70.6139 309.329 70.0301 309.26C69.4479 309.123 68.9422 308.764 68.6201 308.26C68.3001 307.84 68.0501 307.41 67.7701 307.07C67.5297 306.767 67.2262 306.521 66.8807 306.349C66.5352 306.176 66.1562 306.081 65.7701 306.07C65.0284 306.08 64.3084 306.321 63.7101 306.76C63.7101 306.76 63.8001 306.53 64.1201 306.27C64.5997 305.918 65.1757 305.723 65.7701 305.71C66.2168 305.684 66.6636 305.76 67.0761 305.934C67.4887 306.107 67.8561 306.372 68.1501 306.71C68.4701 307.09 68.7301 307.52 69.0301 307.9C69.2811 308.297 69.6747 308.583 70.1301 308.7C71.0501 308.85 71.8801 308.01 72.8401 307.7C73.6948 307.442 74.6135 307.499 75.4301 307.86C76.8101 308.51 77.1501 309.5 77.1001 309.49Z" fill="#FAFAFA"/>
<path d="M96.7501 315.29C96.1139 314.916 95.4043 314.684 94.6701 314.61C93.8813 314.572 93.1026 314.801 92.4601 315.26C92.1 315.565 91.7655 315.9 91.4601 316.26C91.0785 316.706 90.5566 317.009 89.9801 317.12C89.3854 317.162 88.7974 316.972 88.3401 316.59C87.9001 316.28 87.5401 315.94 87.1701 315.7C86.8485 315.486 86.4838 315.345 86.1019 315.288C85.7199 315.231 85.3301 315.259 84.9601 315.37C84.2594 315.607 83.6462 316.05 83.2001 316.64C83.2001 316.64 83.2001 316.4 83.4501 316.06C83.8048 315.593 84.293 315.244 84.8501 315.06C85.2736 314.91 85.7254 314.858 86.1719 314.906C86.6185 314.955 87.0484 315.103 87.4301 315.34C87.8501 315.6 88.2301 315.93 88.6301 316.21C88.9904 316.512 89.4503 316.669 89.9201 316.65C90.8401 316.51 91.3901 315.47 92.2101 314.91C92.9507 314.412 93.8423 314.189 94.7301 314.28C95.1199 314.292 95.5024 314.388 95.8512 314.563C96.2 314.737 96.5067 314.985 96.7501 315.29Z" fill="#FAFAFA"/>
<path d="M31.99 232.61C32.59 233.32 54.58 262.72 54.58 262.72L51.49 264.48L28.92 235.48L31.99 232.61Z" fill="#263238"/>
<path d="M117.8 253.61C117.8 253.61 97.18 289.18 95.8 289.83C93.05 291.12 61.41 263.77 58.39 261.16C57.98 260.6 57.12 259.43 55.39 257.1C55.39 257.1 52.9 245.67 50.23 246.55C47.56 247.43 51.69 252.36 49.96 256.7C48.23 261.04 40.28 250.7 39.96 249.76L37.96 247.08C37.96 247.08 35.81 253.17 35.96 255.72C36.42 263.87 44.13 273.56 44.13 273.56C44.13 273.56 75.47 312.82 99.19 314.15C106.02 314.54 119.07 294.87 127.19 280.33C132.09 271.55 129.81 262.64 121.69 256.71L117.8 253.61Z" fill="#FFBE9D"/>
<path d="M39.8301 257.11C38.4766 255.307 37.4602 253.274 36.8301 251.11C36.9101 251.11 37.5001 252.46 38.3301 254.11C39.1601 255.76 39.9001 257.07 39.8301 257.11Z" fill="#EB996E"/>
<path d="M116.83 243.67C116.02 244.16 96.8301 279.76 96.8301 279.76L121.52 299.09C125.294 289.714 128.565 280.144 131.32 270.42C132.24 266.93 131.77 257.6 130.47 254C128.63 248.89 125.85 250.16 121.68 247.17L116.83 243.67Z" fill="#007BFF"/>
<g opacity="0.7">
<path d="M124.94 243.67C124.94 243.67 124.7 243.53 124.24 243.3C123.57 242.959 122.821 242.803 122.07 242.85C120.886 242.961 119.763 243.428 118.85 244.19C117.628 245.167 116.556 246.32 115.67 247.61C114.584 249.223 113.582 250.892 112.67 252.61C111.67 254.42 110.53 256.36 109.37 258.4C107.04 262.47 104.47 266.95 101.79 271.65C100.14 274.5 98.55 277.27 97.05 279.87L96.99 279.55L113.69 292.75L118.54 296.64L119.82 297.7C119.977 297.815 120.121 297.945 120.25 298.09C120.079 298 119.919 297.893 119.77 297.77L118.43 296.77L113.49 292.99L96.68 279.99L96.5 279.85L96.67 279.61C98.17 277.01 99.76 274.24 101.39 271.38C104.09 266.69 106.67 262.23 109.01 258.16L112.35 252.39C113.261 250.672 114.263 249.003 115.35 247.39C116.278 246.065 117.404 244.891 118.69 243.91C119.658 243.14 120.836 242.679 122.07 242.59C122.853 242.562 123.627 242.76 124.3 243.16C124.475 243.257 124.642 243.367 124.8 243.49C124.9 243.61 124.95 243.66 124.94 243.67Z" fill="black"/>
</g>
<path d="M117.57 277.05C117.076 276.496 116.464 276.058 115.78 275.77C115.044 275.485 114.234 275.456 113.48 275.69C113.034 275.865 112.602 276.076 112.19 276.32C111.687 276.626 111.096 276.756 110.51 276.69C109.932 276.549 109.431 276.191 109.11 275.69C108.8 275.26 108.56 274.83 108.28 274.48C108.043 274.174 107.74 273.926 107.394 273.753C107.047 273.58 106.667 273.487 106.28 273.48C105.541 273.484 104.819 273.711 104.21 274.13C104.21 274.13 104.31 273.91 104.63 273.65C105.118 273.309 105.695 273.121 106.29 273.11C106.739 273.093 107.185 273.179 107.594 273.363C108.004 273.547 108.365 273.823 108.65 274.17C108.97 274.55 109.23 274.98 109.52 275.37C109.77 275.768 110.158 276.06 110.61 276.19C111.53 276.35 112.37 275.52 113.33 275.25C114.187 274.997 115.106 275.061 115.92 275.43C117.31 276.06 117.67 277.06 117.57 277.05Z" fill="#FAFAFA"/>
<path d="M128.85 272.45C128.531 271.774 128.059 271.181 127.47 270.72C126.837 270.252 126.067 270.01 125.28 270.03C124.805 270.085 124.334 270.172 123.87 270.29C123.302 270.45 122.696 270.415 122.15 270.19C121.631 269.892 121.248 269.404 121.08 268.83C120.9 268.33 120.78 267.83 120.61 267.45C120.462 267.093 120.236 266.773 119.949 266.513C119.662 266.254 119.321 266.061 118.95 265.95C118.236 265.755 117.48 265.779 116.78 266.02C116.78 266.02 116.93 265.83 117.31 265.68C117.867 265.468 118.476 265.44 119.05 265.6C119.489 265.704 119.897 265.908 120.244 266.196C120.591 266.484 120.867 266.848 121.05 267.26C121.25 267.71 121.38 268.19 121.56 268.65C121.689 269.1 121.986 269.483 122.39 269.72C123.23 270.13 124.26 269.56 125.26 269.55C126.151 269.549 127.015 269.86 127.7 270.43C128.031 270.659 128.306 270.959 128.505 271.309C128.705 271.659 128.822 272.049 128.85 272.45Z" fill="#FAFAFA"/>
<path d="M129.43 257.73C129.106 257.059 128.635 256.471 128.05 256.01C127.42 255.538 126.647 255.295 125.86 255.32C125.383 255.365 124.912 255.452 124.45 255.58C123.881 255.742 123.274 255.703 122.73 255.47C122.214 255.173 121.831 254.69 121.66 254.12C121.48 253.62 121.36 253.12 121.19 252.73C121.038 252.375 120.811 252.057 120.525 251.798C120.238 251.539 119.899 251.345 119.53 251.23C118.816 251.035 118.06 251.059 117.36 251.3C117.36 251.3 117.51 251.12 117.89 250.96C118.448 250.753 119.056 250.725 119.63 250.88C120.067 250.989 120.473 251.195 120.819 251.482C121.165 251.769 121.443 252.131 121.63 252.54C121.83 252.99 121.96 253.48 122.14 253.93C122.268 254.383 122.565 254.769 122.97 255.01C123.81 255.41 124.84 254.84 125.84 254.84C126.733 254.829 127.6 255.142 128.28 255.72C128.609 255.948 128.884 256.247 129.082 256.595C129.281 256.943 129.4 257.33 129.43 257.73Z" fill="#FAFAFA"/>
<path d="M123.97 291.61C123.642 290.942 123.171 290.355 122.59 289.89C121.956 289.417 121.18 289.173 120.39 289.2C119.917 289.245 119.448 289.332 118.99 289.46C118.422 289.62 117.816 289.585 117.27 289.36C116.755 289.057 116.373 288.571 116.2 288C116.01 287.5 115.9 287 115.72 286.61C115.571 286.255 115.345 285.937 115.06 285.678C114.776 285.419 114.438 285.225 114.07 285.11C113.356 284.908 112.597 284.936 111.9 285.19C111.9 285.19 112.05 285 112.43 284.84C113.137 284.59 113.912 284.613 114.602 284.905C115.292 285.198 115.848 285.738 116.16 286.42C116.37 286.87 116.5 287.36 116.68 287.81C116.808 288.26 117.101 288.646 117.5 288.89C118.35 289.29 119.38 288.72 120.38 288.72C121.273 288.709 122.14 289.022 122.82 289.6C123.149 289.828 123.423 290.127 123.622 290.475C123.821 290.823 123.94 291.21 123.97 291.61Z" fill="#FAFAFA"/>
</g>
<defs>
<clipPath id="clip0_1_324">
<rect width="390.34" height="407.29" fill="white"/>
</clipPath>
</defs>
</svg>
