<svg width="42" height="42" viewBox="0 0 42 42" fill="none" xmlns="http://www.w3.org/2000/svg">
<path d="M6 0.700195H29.0146C30.4203 0.700195 31.7688 1.25803 32.7627 2.25195L36.5049 5.99512L39.748 9.2373C40.742 10.2312 41.2998 11.5797 41.2998 12.9854V36C41.2998 38.9271 38.9271 41.2998 36 41.2998H6C3.07289 41.2998 0.700195 38.9271 0.700195 36V6C0.700195 3.07289 3.07289 0.700196 6 0.700195Z" stroke="#3E96F4" stroke-width="1.4"/>
<path d="M7.5 34.5H22" stroke="#3E96F4" stroke-width="1.4" stroke-linecap="round"/>
<path d="M7.5 30H35.5" stroke="#3E96F4" stroke-width="1.4" stroke-linecap="round"/>
<path fill-rule="evenodd" clip-rule="evenodd" d="M12.8421 6C13.1343 6 13.3712 6.24229 13.3712 6.54118V7.89451C15.8123 8.00388 17.3151 8.86515 18.1547 10.0307C19.0372 11.2559 19.107 12.7091 18.9079 13.6762C18.8477 13.9687 18.5671 14.1558 18.2812 14.0943C17.9954 14.0326 17.8124 13.7456 17.8726 13.4532C18.0262 12.7066 17.9637 11.5892 17.3033 10.6723C16.7066 9.84403 15.552 9.08463 13.3712 8.97792V15.7426C15.3949 15.8366 16.7607 16.4628 17.6385 17.2943C18.5838 18.1896 18.9193 19.2823 18.9193 20.0588C18.9614 20.8736 18.6859 22.0244 17.7651 22.9761C16.8939 23.8765 15.4945 24.5489 13.3712 24.6456V25.4588C13.3712 25.7577 13.1343 26 12.8421 26C12.55 26 12.3131 25.7577 12.3131 25.4588V24.6456C10.1791 24.5444 8.80534 23.8217 7.98269 22.8477C7.10722 21.811 6.9224 20.568 7.02588 19.7211C7.06211 19.4247 7.3266 19.2144 7.61639 19.2513C7.9063 19.2884 8.11242 19.5588 8.0762 19.8554C8.00336 20.4515 8.13556 21.3734 8.78347 22.1406C9.36729 22.8317 10.4278 23.4624 12.3131 23.5611V16.7986C10.2959 16.7064 8.99101 16.0792 8.20381 15.2199C7.37154 14.3114 7.18546 13.2158 7.28162 12.4459C7.28854 11.5591 7.51109 10.4116 8.34743 9.4784C9.13468 8.60005 10.3958 7.98947 12.3131 7.89609V6.54118C12.3131 6.24231 12.55 6.00003 12.8421 6ZM13.3712 23.5617C15.2654 23.4669 16.3774 22.8724 17.0134 22.2151C17.7155 21.4894 17.8964 20.6306 17.8623 20.0942L17.8612 20.0763V20.0588C17.8612 19.5726 17.6411 18.7711 16.9199 18.0881C16.2689 17.4715 15.1715 16.9186 13.3712 16.8266V23.5617ZM12.3131 8.98003C10.6274 9.0711 9.67213 9.60227 9.12754 10.2098C8.5581 10.8452 8.36406 11.644 8.34123 12.3444L8.33865 12.4829V12.5209L8.33348 12.559C8.26493 13.05 8.37714 13.8261 8.97617 14.4801C9.51849 15.0719 10.5188 15.6244 12.3131 15.7146V8.98003Z" fill="#3E96F4"/>
</svg>
