<svg width="410" height="251" viewBox="0 0 410 251" fill="none" xmlns="http://www.w3.org/2000/svg">
<path fill-rule="evenodd" clip-rule="evenodd" d="M163.5 0L327 164.183L302.191 187L163.303 47.532L24.0616 186.959L0 164.183L163.5 0Z" fill="url(#paint0_linear_1151_2675)" fill-opacity="0.6"/>
<path d="M116.115 246.861C116.221 246.861 116.32 246.909 116.386 246.99L119.155 250.439C119.275 250.588 119.25 250.805 119.101 250.924C118.952 251.043 118.734 251.019 118.614 250.871L116.115 247.758L113.617 250.871C113.497 251.019 113.279 251.043 113.13 250.924C112.981 250.805 112.956 250.588 113.076 250.439L115.845 246.99C115.911 246.909 116.01 246.861 116.115 246.861Z" fill="#0FA1DB"/>
<path d="M136.885 246.861C136.99 246.861 137.089 246.909 137.155 246.99L139.924 250.439C140.044 250.588 140.02 250.805 139.87 250.924C139.721 251.043 139.503 251.019 139.383 250.871L136.885 247.758L134.386 250.871C134.266 251.019 134.048 251.043 133.899 250.924C133.75 250.805 133.726 250.588 133.845 250.439L136.614 246.99C136.68 246.909 136.78 246.861 136.885 246.861Z" fill="#0FA1DB"/>
<path d="M157.654 246.861C157.759 246.861 157.859 246.909 157.924 246.99L160.694 250.439C160.813 250.588 160.789 250.805 160.639 250.924C160.49 251.043 160.272 251.019 160.153 250.871L157.654 247.758L155.155 250.871C155.036 251.019 154.818 251.043 154.668 250.924C154.519 250.805 154.495 250.588 154.614 250.439L157.383 246.99C157.449 246.909 157.549 246.861 157.654 246.861Z" fill="#0FA1DB"/>
<path d="M365.346 246.861C365.451 246.861 365.551 246.909 365.616 246.99L368.386 250.439C368.505 250.588 368.481 250.805 368.332 250.924C368.182 251.043 367.964 251.019 367.845 250.871L365.346 247.758L362.847 250.871C362.728 251.019 362.51 251.043 362.36 250.924C362.211 250.805 362.187 250.588 362.306 250.439L365.076 246.99C365.141 246.909 365.241 246.861 365.346 246.861Z" fill="#0FA1DB"/>
<path d="M386.115 246.861C386.22 246.861 386.32 246.909 386.386 246.99L389.155 250.439C389.274 250.588 389.25 250.805 389.101 250.924C388.952 251.043 388.733 251.019 388.614 250.871L386.115 247.758L383.616 250.871C383.497 251.019 383.279 251.043 383.13 250.924C382.98 250.805 382.956 250.588 383.076 250.439L385.845 246.99C385.91 246.909 386.01 246.861 386.115 246.861Z" fill="#0FA1DB"/>
<path d="M406.884 246.861C406.99 246.861 407.089 246.909 407.155 246.99L409.924 250.439C410.044 250.588 410.019 250.805 409.87 250.924C409.721 251.043 409.503 251.019 409.383 250.871L406.884 247.758L404.386 250.871C404.266 251.019 404.048 251.043 403.899 250.924C403.75 250.805 403.725 250.588 403.845 250.439L406.614 246.99C406.68 246.909 406.779 246.861 406.884 246.861Z" fill="#0FA1DB"/>
<path d="M136.885 226.167C136.99 226.167 137.089 226.214 137.155 226.296L139.924 229.745C140.044 229.894 140.02 230.111 139.87 230.23C139.721 230.349 139.503 230.325 139.383 230.176L136.885 227.064L134.386 230.176C134.266 230.325 134.048 230.349 133.899 230.23C133.75 230.111 133.726 229.894 133.845 229.745L136.614 226.296C136.68 226.214 136.78 226.167 136.885 226.167Z" fill="#0FA1DB"/>
<path d="M157.654 226.167C157.759 226.167 157.859 226.214 157.924 226.296L160.694 229.745C160.813 229.894 160.789 230.111 160.639 230.23C160.49 230.349 160.272 230.325 160.153 230.176L157.654 227.064L155.155 230.176C155.036 230.325 154.818 230.349 154.668 230.23C154.519 230.111 154.495 229.894 154.614 229.745L157.383 226.296C157.449 226.214 157.549 226.167 157.654 226.167Z" fill="#0FA1DB"/>
<path d="M178.423 226.167C178.528 226.167 178.628 226.214 178.694 226.296L181.463 229.745C181.582 229.894 181.558 230.111 181.409 230.23C181.259 230.349 181.041 230.325 180.922 230.176L178.423 227.064L175.924 230.176C175.805 230.325 175.587 230.349 175.438 230.23C175.288 230.111 175.264 229.894 175.383 229.745L178.153 226.296C178.218 226.214 178.318 226.167 178.423 226.167Z" fill="#0FA1DB"/>
<path d="M344.577 226.167C344.682 226.167 344.782 226.214 344.847 226.296L347.617 229.745C347.736 229.894 347.712 230.111 347.562 230.23C347.413 230.349 347.195 230.325 347.076 230.176L344.577 227.064L342.078 230.176C341.959 230.325 341.741 230.349 341.591 230.23C341.442 230.111 341.418 229.894 341.537 229.745L344.306 226.296C344.372 226.214 344.472 226.167 344.577 226.167Z" fill="#0FA1DB"/>
<path d="M365.346 226.167C365.451 226.167 365.551 226.214 365.616 226.296L368.386 229.745C368.505 229.894 368.481 230.111 368.332 230.23C368.182 230.349 367.964 230.325 367.845 230.176L365.346 227.064L362.847 230.176C362.728 230.325 362.51 230.349 362.36 230.23C362.211 230.111 362.187 229.894 362.306 229.745L365.076 226.296C365.141 226.214 365.241 226.167 365.346 226.167Z" fill="#0FA1DB"/>
<path d="M386.115 226.167C386.22 226.167 386.32 226.214 386.386 226.296L389.155 229.745C389.274 229.894 389.25 230.111 389.101 230.23C388.952 230.349 388.733 230.325 388.614 230.176L386.115 227.064L383.616 230.176C383.497 230.325 383.279 230.349 383.13 230.23C382.98 230.111 382.956 229.894 383.076 229.745L385.845 226.296C385.91 226.214 386.01 226.167 386.115 226.167Z" fill="#0FA1DB"/>
<path d="M157.654 205.472C157.759 205.472 157.859 205.52 157.924 205.601L160.694 209.051C160.813 209.199 160.789 209.417 160.639 209.536C160.49 209.655 160.272 209.63 160.153 209.482L157.654 206.369L155.155 209.482C155.036 209.63 154.818 209.655 154.668 209.536C154.519 209.417 154.495 209.199 154.614 209.051L157.383 205.601C157.449 205.52 157.549 205.472 157.654 205.472Z" fill="#0FA1DB"/>
<path d="M178.423 205.472C178.528 205.472 178.628 205.52 178.694 205.601L181.463 209.051C181.582 209.199 181.558 209.417 181.409 209.536C181.259 209.655 181.041 209.63 180.922 209.482L178.423 206.369L175.924 209.482C175.805 209.63 175.587 209.655 175.438 209.536C175.288 209.417 175.264 209.199 175.383 209.051L178.153 205.601C178.218 205.52 178.318 205.472 178.423 205.472Z" fill="#0FA1DB"/>
<path d="M199.192 205.472C199.297 205.472 199.397 205.52 199.463 205.601L202.232 209.051C202.351 209.199 202.327 209.417 202.178 209.536C202.029 209.655 201.811 209.63 201.691 209.482L199.192 206.369L196.694 209.482C196.574 209.63 196.356 209.655 196.207 209.536C196.058 209.417 196.033 209.199 196.153 209.051L198.922 205.601C198.988 205.52 199.087 205.472 199.192 205.472Z" fill="#0FA1DB"/>
<path d="M323.808 205.472C323.913 205.472 324.012 205.52 324.078 205.601L326.847 209.051C326.967 209.199 326.942 209.417 326.793 209.536C326.644 209.655 326.426 209.63 326.306 209.482L323.808 206.369L321.309 209.482C321.189 209.63 320.971 209.655 320.822 209.536C320.673 209.417 320.649 209.199 320.768 209.051L323.537 205.601C323.603 205.52 323.703 205.472 323.808 205.472Z" fill="#0FA1DB"/>
<path d="M344.577 205.472C344.682 205.472 344.782 205.52 344.847 205.601L347.617 209.051C347.736 209.199 347.712 209.417 347.562 209.536C347.413 209.655 347.195 209.63 347.076 209.482L344.577 206.369L342.078 209.482C341.959 209.63 341.741 209.655 341.591 209.536C341.442 209.417 341.418 209.199 341.537 209.051L344.306 205.601C344.372 205.52 344.472 205.472 344.577 205.472Z" fill="#0FA1DB"/>
<path d="M365.346 205.472C365.451 205.472 365.551 205.52 365.616 205.601L368.386 209.051C368.505 209.199 368.481 209.417 368.332 209.536C368.182 209.655 367.964 209.63 367.845 209.482L365.346 206.369L362.847 209.482C362.728 209.63 362.51 209.655 362.36 209.536C362.211 209.417 362.187 209.199 362.306 209.051L365.076 205.601C365.141 205.52 365.241 205.472 365.346 205.472Z" fill="#0FA1DB"/>
<path d="M178.423 184.778C178.528 184.778 178.628 184.825 178.694 184.907L181.463 188.356C181.582 188.505 181.558 188.722 181.409 188.841C181.259 188.96 181.041 188.936 180.922 188.787L178.423 185.675L175.924 188.787C175.805 188.936 175.587 188.96 175.438 188.841C175.288 188.722 175.264 188.505 175.383 188.356L178.153 184.907C178.218 184.825 178.318 184.778 178.423 184.778Z" fill="#0FA1DB"/>
<path d="M199.192 184.778C199.297 184.778 199.397 184.825 199.463 184.907L202.232 188.356C202.351 188.505 202.327 188.722 202.178 188.841C202.029 188.96 201.811 188.936 201.691 188.787L199.192 185.675L196.694 188.787C196.574 188.936 196.356 188.96 196.207 188.841C196.058 188.722 196.033 188.505 196.153 188.356L198.922 184.907C198.988 184.825 199.087 184.778 199.192 184.778Z" fill="#0FA1DB"/>
<path d="M219.962 184.778C220.067 184.778 220.166 184.825 220.232 184.907L223.001 188.356C223.121 188.505 223.096 188.722 222.947 188.841C222.798 188.96 222.58 188.936 222.46 188.787L219.962 185.675L217.463 188.787C217.343 188.936 217.125 188.96 216.976 188.841C216.827 188.722 216.803 188.505 216.922 188.356L219.691 184.907C219.757 184.825 219.856 184.778 219.962 184.778Z" fill="#0FA1DB"/>
<path d="M303.038 184.778C303.144 184.778 303.243 184.825 303.309 184.907L306.078 188.356C306.197 188.505 306.173 188.722 306.024 188.841C305.875 188.96 305.657 188.936 305.537 188.787L303.038 185.675L300.54 188.787C300.42 188.936 300.202 188.96 300.053 188.841C299.904 188.722 299.879 188.505 299.999 188.356L302.768 184.907C302.834 184.825 302.933 184.778 303.038 184.778Z" fill="#0FA1DB"/>
<path d="M323.808 184.778C323.913 184.778 324.012 184.825 324.078 184.907L326.847 188.356C326.967 188.505 326.942 188.722 326.793 188.841C326.644 188.96 326.426 188.936 326.306 188.787L323.808 185.675L321.309 188.787C321.189 188.936 320.971 188.96 320.822 188.841C320.673 188.722 320.649 188.505 320.768 188.356L323.537 184.907C323.603 184.825 323.703 184.778 323.808 184.778Z" fill="#0FA1DB"/>
<path d="M344.577 184.778C344.682 184.778 344.782 184.825 344.847 184.907L347.617 188.356C347.736 188.505 347.712 188.722 347.562 188.841C347.413 188.96 347.195 188.936 347.076 188.787L344.577 185.675L342.078 188.787C341.959 188.936 341.741 188.96 341.591 188.841C341.442 188.722 341.418 188.505 341.537 188.356L344.306 184.907C344.372 184.825 344.472 184.778 344.577 184.778Z" fill="#0FA1DB"/>
<path d="M199.192 164.083C199.297 164.083 199.397 164.131 199.463 164.213L202.232 167.662C202.351 167.81 202.327 168.028 202.178 168.147C202.029 168.266 201.811 168.242 201.691 168.093L199.192 164.981L196.694 168.093C196.574 168.242 196.356 168.266 196.207 168.147C196.058 168.028 196.033 167.81 196.153 167.662L198.922 164.213C198.988 164.131 199.087 164.083 199.192 164.083Z" fill="#0FA1DB"/>
<path d="M219.962 164.083C220.067 164.083 220.166 164.131 220.232 164.213L223.001 167.662C223.121 167.81 223.096 168.028 222.947 168.147C222.798 168.266 222.58 168.242 222.46 168.093L219.962 164.981L217.463 168.093C217.343 168.242 217.125 168.266 216.976 168.147C216.827 168.028 216.803 167.81 216.922 167.662L219.691 164.213C219.757 164.131 219.856 164.083 219.962 164.083Z" fill="#0FA1DB"/>
<path d="M240.731 164.083C240.836 164.083 240.936 164.131 241.001 164.213L243.77 167.662C243.89 167.81 243.866 168.028 243.716 168.147C243.567 168.266 243.349 168.242 243.23 168.093L240.731 164.981L238.232 168.093C238.113 168.242 237.894 168.266 237.745 168.147C237.596 168.028 237.572 167.81 237.691 167.662L240.46 164.213C240.526 164.131 240.626 164.083 240.731 164.083Z" fill="#0FA1DB"/>
<path d="M282.269 164.083C282.374 164.083 282.474 164.131 282.54 164.213L285.309 167.662C285.428 167.81 285.404 168.028 285.255 168.147C285.105 168.266 284.887 168.242 284.768 168.093L282.269 164.981L279.77 168.093C279.651 168.242 279.433 168.266 279.284 168.147C279.134 168.028 279.11 167.81 279.23 167.662L281.999 164.213C282.064 164.131 282.164 164.083 282.269 164.083Z" fill="#0FA1DB"/>
<path d="M303.038 164.083C303.144 164.083 303.243 164.131 303.309 164.213L306.078 167.662C306.197 167.81 306.173 168.028 306.024 168.147C305.875 168.266 305.657 168.242 305.537 168.093L303.038 164.981L300.54 168.093C300.42 168.242 300.202 168.266 300.053 168.147C299.904 168.028 299.879 167.81 299.999 167.662L302.768 164.213C302.834 164.131 302.933 164.083 303.038 164.083Z" fill="#0FA1DB"/>
<path d="M323.808 164.083C323.913 164.083 324.012 164.131 324.078 164.213L326.847 167.662C326.967 167.81 326.942 168.028 326.793 168.147C326.644 168.266 326.426 168.242 326.306 168.093L323.808 164.981L321.309 168.093C321.189 168.242 320.971 168.266 320.822 168.147C320.673 168.028 320.649 167.81 320.768 167.662L323.537 164.213C323.603 164.131 323.703 164.083 323.808 164.083Z" fill="#0FA1DB"/>
<path d="M219.962 143.389C220.067 143.389 220.166 143.436 220.232 143.518L223.001 146.967C223.121 147.116 223.096 147.333 222.947 147.452C222.798 147.571 222.58 147.547 222.46 147.398L219.962 144.286L217.463 147.398C217.343 147.547 217.125 147.571 216.976 147.452C216.827 147.333 216.803 147.116 216.922 146.967L219.691 143.518C219.757 143.436 219.856 143.389 219.962 143.389Z" fill="#0FA1DB"/>
<path d="M240.731 143.389C240.836 143.389 240.936 143.436 241.001 143.518L243.77 146.967C243.89 147.116 243.866 147.333 243.716 147.452C243.567 147.571 243.349 147.547 243.23 147.398L240.731 144.286L238.232 147.398C238.113 147.547 237.894 147.571 237.745 147.452C237.596 147.333 237.572 147.116 237.691 146.967L240.46 143.518C240.526 143.436 240.626 143.389 240.731 143.389Z" fill="#0FA1DB"/>
<path d="M261.5 143.389C261.605 143.389 261.705 143.436 261.77 143.518L264.54 146.967C264.659 147.116 264.635 147.333 264.486 147.452C264.336 147.571 264.118 147.547 263.999 147.398L261.5 144.286L259.001 147.398C258.882 147.547 258.664 147.571 258.514 147.452C258.365 147.333 258.341 147.116 258.46 146.967L261.23 143.518C261.295 143.436 261.395 143.389 261.5 143.389Z" fill="#0FA1DB"/>
<path d="M282.269 143.389C282.374 143.389 282.474 143.436 282.54 143.518L285.309 146.967C285.428 147.116 285.404 147.333 285.255 147.452C285.105 147.571 284.887 147.547 284.768 147.398L282.269 144.286L279.77 147.398C279.651 147.547 279.433 147.571 279.284 147.452C279.134 147.333 279.11 147.116 279.23 146.967L281.999 143.518C282.064 143.436 282.164 143.389 282.269 143.389Z" fill="#0FA1DB"/>
<path d="M303.038 143.389C303.144 143.389 303.243 143.436 303.309 143.518L306.078 146.967C306.197 147.116 306.173 147.333 306.024 147.452C305.875 147.571 305.657 147.547 305.537 147.398L303.038 144.286L300.54 147.398C300.42 147.547 300.202 147.571 300.053 147.452C299.904 147.333 299.879 147.116 299.999 146.967L302.768 143.518C302.834 143.436 302.933 143.389 303.038 143.389Z" fill="#0FA1DB"/>
<path d="M240.731 122.694C240.836 122.694 240.936 122.742 241.001 122.824L243.77 126.273C243.89 126.422 243.866 126.639 243.716 126.758C243.567 126.877 243.349 126.853 243.23 126.704L240.731 123.592L238.232 126.704C238.113 126.853 237.894 126.877 237.745 126.758C237.596 126.639 237.572 126.422 237.691 126.273L240.46 122.824C240.526 122.742 240.626 122.694 240.731 122.694Z" fill="#0FA1DB"/>
<path d="M261.5 122.694C261.605 122.694 261.705 122.742 261.77 122.824L264.54 126.273C264.659 126.422 264.635 126.639 264.486 126.758C264.336 126.877 264.118 126.853 263.999 126.704L261.5 123.592L259.001 126.704C258.882 126.853 258.664 126.877 258.514 126.758C258.365 126.639 258.341 126.422 258.46 126.273L261.23 122.824C261.295 122.742 261.395 122.694 261.5 122.694Z" fill="#0FA1DB"/>
<path d="M282.269 122.694C282.374 122.694 282.474 122.742 282.54 122.824L285.309 126.273C285.428 126.422 285.404 126.639 285.255 126.758C285.105 126.877 284.887 126.853 284.768 126.704L282.269 123.592L279.77 126.704C279.651 126.853 279.433 126.877 279.284 126.758C279.134 126.639 279.11 126.422 279.23 126.273L281.999 122.824C282.064 122.742 282.164 122.694 282.269 122.694Z" fill="#0FA1DB"/>
<path d="M261.5 102C261.605 102 261.705 102.048 261.77 102.129L264.54 105.578C264.659 105.727 264.635 105.944 264.486 106.063C264.336 106.182 264.118 106.158 263.999 106.01L261.5 102.897L259.001 106.01C258.882 106.158 258.664 106.182 258.514 106.063C258.365 105.944 258.341 105.727 258.46 105.578L261.23 102.129C261.295 102.048 261.395 102 261.5 102Z" fill="#0FA1DB"/>
<defs>
<linearGradient id="paint0_linear_1151_2675" x1="163.5" y1="5.57303e-06" x2="163.5" y2="187" gradientUnits="userSpaceOnUse">
<stop stop-color="#0FA1DB" stop-opacity="0.2"/>
<stop offset="0.85" stop-color="#0FA1DB" stop-opacity="0"/>
</linearGradient>
</defs>
</svg>
