<svg width="64" height="64" viewBox="0 0 64 64" fill="none" xmlns="http://www.w3.org/2000/svg">
<rect width="64" height="64" rx="8" fill="#3E96F4"/>
<path d="M40.3999 18.1334C40.3999 16.9547 39.4447 16 38.2666 16H25.4666C24.2885 16 23.3333 16.9547 23.3333 18.1334V33.0667H18L31.8666 48L45.7332 33.0667H40.3999V18.1334Z" stroke="white" stroke-width="2" stroke-miterlimit="10" stroke-linecap="round" stroke-linejoin="round"/>
<path d="M33.9999 23.4667H30.7999C30.5198 23.4666 30.2424 23.5218 29.9836 23.6289C29.7248 23.7361 29.4896 23.8932 29.2916 24.0912C29.0933 24.2893 28.9361 24.5245 28.8289 24.7834C28.7216 25.0423 28.6664 25.3198 28.6665 25.6C28.6665 25.8801 28.7217 26.1575 28.829 26.4164C28.9362 26.6752 29.0934 26.9103 29.2916 27.1083C29.4896 27.3064 29.7248 27.4636 29.9836 27.5709C30.2424 27.6781 30.5197 27.7333 30.7999 27.7334H32.9332C33.2133 27.7333 33.4907 27.7884 33.7494 27.8956C34.0082 28.0028 34.2434 28.1598 34.4414 28.3579C34.6397 28.556 34.7969 28.7912 34.9042 29.05C35.0114 29.3089 35.0666 29.5864 35.0665 29.8666C35.0665 30.1468 35.0113 30.4242 34.9041 30.683C34.7968 30.9418 34.6396 31.1769 34.4414 31.3749C34.2434 31.5731 34.0083 31.7303 33.7495 31.8375C33.4907 31.9448 33.2133 32 32.9332 32H29.7331" stroke="white" stroke-width="2" stroke-miterlimit="10" stroke-linecap="round" stroke-linejoin="round"/>
<path d="M31.8668 23.4668V21.3334" stroke="white" stroke-width="2" stroke-miterlimit="10" stroke-linecap="round" stroke-linejoin="round"/>
<path d="M31.8668 34.1333V31.9999" stroke="white" stroke-width="2" stroke-miterlimit="10" stroke-linecap="round" stroke-linejoin="round"/>
</svg>
