<svg width="59" height="60" viewBox="0 0 59 60" fill="none" xmlns="http://www.w3.org/2000/svg">
<path id="Union" fill-rule="evenodd" clip-rule="evenodd" d="M34.3721 15.4213V31.4143C34.3721 32.0929 34.9241 32.6448 35.6026 32.6448H55.1162C55.7947 32.6448 56.3467 32.0929 56.3467 31.4143V23.4375C56.3467 22.952 55.9533 22.5586 55.4678 22.5586C54.9822 22.5586 54.5888 22.952 54.5888 23.4375V30.887H36.1299V15.6245L36.1362 15.6246C38.3435 15.6246 40.3385 14.7028 41.7607 13.2258H49.9676C50.4531 13.2258 50.8465 12.8324 50.8465 12.3469C50.8465 11.8614 50.4531 11.468 49.9676 11.468H43.0374C43.7556 10.1195 44.0598 8.58911 43.912 7.06852H54.5887V19.3359C54.5887 19.8214 54.9821 20.2148 55.4676 20.2148C55.9531 20.2148 56.3465 19.8214 56.3465 19.3359V6.54117C56.3465 5.86266 55.7946 5.3107 55.1161 5.3107H43.5351C42.4896 2.22668 39.5689 0 36.136 0C31.8283 0 28.3237 3.50461 28.3237 7.81231C28.3237 11.5132 30.9115 14.6191 34.3721 15.4213ZM36.136 1.75781C39.4745 1.75781 42.1905 4.47387 42.1905 7.81231C42.1905 11.1507 39.4745 13.8668 36.136 13.8668C32.7976 13.8668 30.0815 11.1507 30.0815 7.81231C30.0815 4.47387 32.7976 1.75781 36.136 1.75781ZM49.9676 15.8885H40.7512C40.2657 15.8885 39.8723 16.2819 39.8723 16.7674C39.8723 17.2529 40.2657 17.6463 40.7512 17.6463H49.9676C50.4531 17.6463 50.8465 17.2529 50.8465 16.7674C50.8465 16.2819 50.453 15.8885 49.9676 15.8885ZM50.8465 21.1881C50.8465 20.7026 50.4531 20.3092 49.9676 20.3092H40.7512C40.2657 20.3092 39.8723 20.7026 39.8723 21.1881C39.8723 21.6736 40.2657 22.067 40.7512 22.067H49.9676C50.2007 22.067 50.4242 21.9744 50.5891 21.8096C50.7539 21.6447 50.8465 21.4212 50.8465 21.1881ZM40.7511 24.7297C40.2656 24.7297 39.8722 25.1231 39.8722 25.6086C39.8722 26.0941 40.2656 26.4875 40.7511 26.4875H46.8405C47.3261 26.4875 47.7195 26.0941 47.7195 25.6086C47.7195 25.1231 47.3261 24.7297 46.8405 24.7297H40.7511ZM57.4699 53.8477H52.5046V38.8339C52.5046 38.1554 51.9526 37.6035 51.2741 37.6035H30.2291V34.9219C30.2291 34.4364 29.8357 34.043 29.3502 34.043C28.8647 34.043 28.4713 34.4364 28.4713 34.9219V37.6035H12.0465V25.2134H16.8221V28.5893C16.8221 29.2678 17.3741 29.8198 18.0526 29.8198H22.4652C23.1437 29.8198 23.6957 29.2678 23.6957 28.5893V25.2134H28.4713V30.8203C28.4713 31.3058 28.8647 31.6992 29.3502 31.6992C29.8357 31.6992 30.2291 31.3058 30.2291 30.8203V24.686C30.2291 24.0075 29.6771 23.4556 28.9986 23.4556H11.5192C10.8407 23.4556 10.2887 24.0075 10.2887 24.686V37.6035H7.42629C6.74777 37.6035 6.19582 38.1554 6.19582 38.8339V53.8477H1.23047C0.551953 53.8477 0 54.3996 0 55.0781V58.7695C0 59.4481 0.551953 60 1.23047 60H57.4699C58.1484 60 58.7004 59.4481 58.7004 58.7695V55.0781C58.7004 54.3996 58.1484 53.8477 57.4699 53.8477ZM18.58 25.2135H21.9379V28.062H18.58V25.2135ZM40.8554 39.3613H44.2133V42.2099H40.8554V39.3613ZM18.2872 39.3613H22.2306V42.2099H18.2872V39.3613ZM7.95363 39.3613H16.5294V42.7372C16.5294 43.4157 17.0814 43.9677 17.7599 43.9677H22.7579C23.4364 43.9677 23.9884 43.4157 23.9884 42.7372V39.3613H32.5642V53.8477H7.95363V39.3613ZM56.9426 58.2422H1.75781V55.6055H43.9986C44.4841 55.6055 44.8775 55.2121 44.8775 54.7266C44.8775 54.2411 44.4841 53.8477 43.9986 53.8477H34.322V39.3613H39.0976V42.7372C39.0976 43.4157 39.6496 43.9677 40.3281 43.9677H44.7407C45.4192 43.9677 45.9711 43.4157 45.9711 42.7372V39.3613H50.7468V53.8477H48.1002C47.6147 53.8477 47.2213 54.2411 47.2213 54.7266C47.2213 55.2121 47.6147 55.6055 48.1002 55.6055H56.9426V58.2422ZM36.0734 3C36.4407 3 36.7384 3.29774 36.7384 3.66503V3.95391H36.8825C38.1636 3.95391 39.1563 5.03121 39.1563 6.30473C39.1563 6.67202 38.8586 6.96976 38.4913 6.96976C38.124 6.96976 37.8263 6.67202 37.8263 6.30473C37.8263 5.70946 37.374 5.28397 36.8825 5.28397H36.7384V7.52135L37.747 7.87319L37.751 7.87459C38.0861 7.99385 38.4621 8.17875 38.7421 8.53735C39.028 8.9035 39.1467 9.36268 39.1467 9.89794C39.1467 11.0517 38.2544 12.0369 37.0848 12.0369H36.7384V12.335C36.7384 12.7023 36.4407 13 36.0734 13C35.7061 13 35.4083 12.7023 35.4083 12.335V12.0369H35.2738C33.9927 12.0369 33 10.9596 33 9.68601C33 9.31872 33.2977 9.02098 33.665 9.02098C34.0323 9.02098 34.3301 9.31872 34.3301 9.68601C34.3301 10.2813 34.7824 10.7068 35.2738 10.7068H35.4083V8.46604L34.4093 8.11755L34.4054 8.11615C34.0745 7.99838 33.6968 7.81679 33.4153 7.45843C33.1276 7.09196 33.0096 6.63119 33.0096 6.0928C33.0096 4.95165 33.8992 3.95391 35.0715 3.95391H35.4083V3.66503C35.4083 3.29774 35.7061 3 36.0734 3ZM35.0715 5.28397H35.4083V7.05738L34.8495 6.86242C34.6134 6.77818 34.5146 6.70469 34.4614 6.63696C34.4145 6.57717 34.3397 6.44067 34.3397 6.0928C34.3397 5.61562 34.7024 5.28397 35.0715 5.28397ZM36.7384 10.7068V8.93002L37.3068 9.12831C37.5388 9.21108 37.6392 9.28606 37.6938 9.35596C37.7426 9.41849 37.8166 9.55657 37.8166 9.89794C37.8166 10.3819 37.4566 10.7068 37.0848 10.7068H36.7384Z" fill="url(#paint0_linear_1_134)"/>
<defs>
<linearGradient id="paint0_linear_1_134" x1="59.868" y1="60.097" x2="14.7701" y2="7.92468" gradientUnits="userSpaceOnUse">
<stop stop-color="#31393C"/>
<stop offset="1" stop-color="#3D96F5"/>
</linearGradient>
</defs>
</svg>
