<svg width="60" height="59" viewBox="0 0 60 59" fill="none" xmlns="http://www.w3.org/2000/svg">
<path fill-rule="evenodd" clip-rule="evenodd" d="M21.1275 10.1867C20.761 9.82023 20.7581 9.20566 21.1375 8.82626C21.5169 8.44685 22.1315 8.4498 22.498 8.81632L24.8182 11.1365C25.9506 12.269 27.7915 12.2532 28.9043 11.1015L37.5043 2.20136C37.8817 1.81081 38.5084 1.81316 38.8828 2.20653L39.0717 2.40502C39.429 2.78041 39.4217 3.37226 39.0553 3.73872L27.5427 15.2513C27.1697 15.6243 26.5651 15.6243 26.1921 15.2513L21.1275 10.1867ZM23.8485 7.46576C22.7233 6.3405 20.8993 6.36332 19.7869 7.4757C18.6746 8.58808 18.6517 10.412 19.777 11.5373L24.8416 16.6019C25.9604 17.7207 27.7744 17.7207 28.8932 16.6019L40.4058 5.08928C41.5052 3.9899 41.5271 2.21433 40.4552 1.08818L40.2662 0.88969C39.1429 -0.290421 37.2629 -0.297477 36.1308 0.874166L27.5308 9.77431C27.1598 10.1582 26.5462 10.1635 26.1688 9.78599L23.8485 7.46576ZM0.38092 23.0994C-0.432971 22.2855 0.143854 20.8944 1.29428 20.8944H21.035C21.4257 20.8944 21.8127 20.9713 22.1736 21.1209C22.5345 21.2704 22.8625 21.4895 23.1387 21.7658L28.1462 26.7733L33.1537 21.7658C33.43 21.4896 33.758 21.2704 34.1189 21.1209C34.4799 20.9714 34.8667 20.8945 35.2574 20.8945H37.5713C38.0987 20.8945 38.5263 21.3221 38.5263 21.8495C38.5263 22.3769 38.0987 22.8045 37.5713 22.8045H35.2573C35.1175 22.8045 34.979 22.832 34.8498 22.8855C34.7206 22.939 34.6032 23.0175 34.5043 23.1164L30.452 27.1687H52.8487L57.213 22.8043H42.2845C41.7571 22.8043 41.3295 22.3768 41.3295 21.8494C41.3295 21.3219 41.7571 20.8944 42.2845 20.8944H58.7057C59.8561 20.8944 60.433 22.2855 59.6191 23.0994L54.1989 28.5196V56.7312C54.1989 57.1631 54.0273 57.5772 53.722 57.8826C53.4166 58.1879 53.0024 58.3595 52.5706 58.3595H7.42909C6.99723 58.3595 6.58307 58.1879 6.27771 57.8826C5.97235 57.5772 5.80079 57.1631 5.80079 56.7312V46.4483C5.80079 45.9209 6.22835 45.4933 6.75578 45.4933C7.2832 45.4933 7.71076 45.9209 7.71076 46.4483V56.4495H27.1911V29.0788H7.71076V41.7351C7.71076 42.2626 7.2832 42.6901 6.75578 42.6901C6.22835 42.6901 5.80079 42.2626 5.80079 41.7351V28.5193L0.38092 23.0994ZM21.7881 23.1163L25.8405 27.1687H7.15131L2.78699 22.8043H21.0351C21.1749 22.8043 21.3134 22.8319 21.4426 22.8854C21.5718 22.9389 21.6892 23.0174 21.7881 23.1163ZM52.2889 29.0788H29.101V56.4495H52.2889V29.0788ZM43.7416 49.9938V52.2667H48.1062V49.9938H43.7416ZM42.21 48.4621C42.4522 48.2199 42.7807 48.0838 43.1233 48.0838H48.7245C49.0671 48.0838 49.3956 48.2199 49.6378 48.4621C49.88 48.7043 50.0161 49.0329 50.0161 49.3754V52.885C50.0161 53.2276 49.8801 53.5561 49.6378 53.7984C49.3956 54.0406 49.067 54.1767 48.7245 54.1767H43.1233C42.7808 54.1767 42.4522 54.0406 42.21 53.7984C41.9678 53.5561 41.8317 53.2276 41.8317 52.885V49.3754C41.8317 49.0329 41.9678 48.7043 42.21 48.4621Z" fill="url(#paint0_linear_254_395)"/>
<defs>
<linearGradient id="paint0_linear_254_395" x1="3.5" y1="5" x2="60" y2="58" gradientUnits="userSpaceOnUse">
<stop stop-color="#3D96F5"/>
<stop offset="1" stop-color="#31393C"/>
</linearGradient>
</defs>
</svg>
