<svg width="60" height="60" viewBox="0 0 60 60" fill="none" xmlns="http://www.w3.org/2000/svg">
<path fill-rule="evenodd" clip-rule="evenodd" d="M60 34.9875V44.3682L56.1445 45.0119C56.0006 45.4006 55.838 45.7905 55.657 46.1785L57.9318 49.3633L51.2979 55.9972L48.113 53.7214C47.7309 53.9002 47.3417 54.0632 46.9464 54.2101L46.3037 58.0645H38.7097C38.7097 59.1319 37.8416 60 36.7742 60H1.93548C0.868064 60 0 59.1319 0 58.0645V30.9677C0 29.9003 0.868064 29.0323 1.93548 29.0323H2.90323V7.74194H15.4839V0H38.1426L46.4516 8.30891V22.1777L46.9464 25.1467C47.3418 25.2936 47.731 25.4567 48.113 25.6357L51.2978 23.3595L57.9317 29.9933L55.657 33.1782C55.8354 33.5604 55.9981 33.9498 56.1446 34.3454L60 34.9875ZM43.1477 7.74194L38.7097 3.30399V7.74194H43.1477ZM36.7742 1.93548H17.4194V7.74194H33.871V11.6129H42.5806V13.5484H33.871V15.4839H42.5806V17.4194H33.871V24.7458L35.1128 25.6334C35.4949 25.4547 35.8841 25.2916 36.2794 25.1447L36.9221 21.2903H44.5161V9.67742H36.7742V1.93548ZM31.9355 9.67742H4.83871V29.0323H6.77419V26.129C6.77419 24.5286 8.07702 23.2258 9.67742 23.2258H29.0323C29.8644 23.2258 30.6105 23.583 31.1412 24.1462L31.9288 23.3585L31.9355 23.3633V9.67742ZM8.70968 26.129V29.0323H30V26.129C30 25.5951 29.5652 25.1613 29.0323 25.1613H9.67742C9.14443 25.1613 8.70968 25.5951 8.70968 26.129ZM36.7742 35.2588V30.9677H1.93548V35.2588L14.5161 42.807V42.5806C14.5161 41.5132 15.3842 40.6452 16.4516 40.6452H22.2581C23.3255 40.6452 24.1935 41.5132 24.1935 42.5806V42.8069L36.7742 35.2588ZM41.6129 33.871C40.5823 33.871 39.5915 34.1545 38.7097 34.6652V44.6886C39.5915 45.2003 40.5804 45.4839 41.6129 45.4839C44.8153 45.4839 47.4194 42.8798 47.4194 39.6774C47.4194 36.475 44.8153 33.871 41.6129 33.871ZM41.6129 47.4194C40.6035 47.4194 39.6273 47.2052 38.7097 46.8329V48.9031C39.6452 49.1979 40.6182 49.3548 41.6129 49.3548C46.9492 49.3548 51.2903 45.0137 51.2903 39.6774C51.2903 34.3412 46.9492 30 41.6129 30C40.602 29.9995 39.5974 30.1582 38.6359 30.4702C38.6799 30.6299 38.7097 30.7943 38.7097 30.9677V32.52C39.6273 32.1477 40.6045 31.9355 41.6129 31.9355C45.8819 31.9355 49.3548 35.4085 49.3548 39.6774C49.3548 43.9464 45.8819 47.4194 41.6129 47.4194ZM16.4516 46.4516H22.259L22.2581 42.5806H16.4516V46.4516ZM1.93548 56.129V58.0645H36.7752V56.129H32.9032V54.1935H36.7752L36.7742 37.5156L24.1935 45.0638V46.4516C24.1935 47.519 23.3255 48.3871 22.2581 48.3871H16.4516C15.3842 48.3871 14.5161 47.519 14.5161 46.4516V45.0638L1.93548 37.5156V54.1935H30.9677V56.129H1.93548ZM51.089 53.4677L55.4032 49.1526L53.4048 46.3547L53.6719 45.8313C54.0079 45.1725 54.2867 44.5077 54.4984 43.8523L54.6794 43.2928L58.0645 42.7294V36.6263L54.6794 36.063L54.4984 35.5037C54.2867 34.8481 54.0088 34.1838 53.6719 33.5246L53.4048 33.0011L55.4032 30.2023L51.089 25.8871L48.2902 27.8855L47.7657 27.6184C47.1056 27.2815 46.4407 27.0036 45.7877 26.7919L45.2283 26.6101L44.6641 23.2258H38.5617L37.9975 26.6101L37.4381 26.7919C36.7851 27.0027 36.1202 27.2806 35.4601 27.6184L34.9356 27.8855L32.1368 25.8871L31.9317 26.0921C31.9317 26.0953 31.932 26.0984 31.9323 26.1015C31.9334 26.1107 31.9355 26.1195 31.9355 26.129V29.0323H36.7742C36.8108 29.0323 36.8464 29.0372 36.8818 29.042C36.9034 29.045 36.925 29.048 36.9467 29.0498C38.4206 28.4014 39.987 28.0645 41.6129 28.0645C48.0166 28.0645 53.2258 33.2738 53.2258 39.6774C53.2258 46.0811 48.0167 51.2903 41.6129 51.2903C40.6239 51.2903 39.6532 51.1575 38.7097 50.9137V56.129H44.6641L45.2283 52.7447L45.7877 52.5629C46.4407 52.3521 47.1056 52.0742 47.7657 51.7363L48.2902 51.4694L51.089 53.4677ZM42.5809 24.1936H40.6454V26.129H42.5809V24.1936ZM51.8775 28.0447L50.5091 29.4131L51.8775 30.7816L53.2463 29.4131L51.8775 28.0447ZM57.097 38.7097H55.1615V40.6452H57.097V38.7097ZM51.8775 48.5733L50.5091 49.9418L51.8775 51.3102L53.2459 49.9418L51.8775 48.5733ZM42.5809 53.2258H40.6454V55.1613H42.5809V53.2258ZM30.0002 11.6129H6.77441V13.5484H30.0002V11.6129ZM8.7099 15.4839H6.77441V17.4194H8.7099V15.4839ZM12.5809 15.4839H10.6454V17.4194H12.5809V15.4839ZM30.0002 15.4839H14.5163V17.4194H30.0002V15.4839ZM30.0002 19.3548H6.77441V21.2903H30.0002V19.3548ZM21.2905 3.87097H19.3551V5.80646H21.2905V3.87097ZM30.968 3.87097H23.226V5.80646H30.968V3.87097ZM34.8389 3.87097H32.9034V5.80646H34.8389V3.87097Z" fill="url(#paint0_linear_254_464)"/>
<defs>
<linearGradient id="paint0_linear_254_464" x1="3.5" y1="5.14054" x2="61.4632" y2="58.0266" gradientUnits="userSpaceOnUse">
<stop stop-color="#3D96F5"/>
<stop offset="1" stop-color="#31393C"/>
</linearGradient>
</defs>
</svg>
