<svg width="64" height="64" viewBox="0 0 64 64" fill="none" xmlns="http://www.w3.org/2000/svg">
<rect width="64" height="64" rx="8" fill="#3E96F4"/>
<path d="M32.713 34.2266C33.0627 34.3503 33.3657 34.579 33.5804 34.8814C33.7952 35.1839 33.9113 35.5454 33.9129 35.9164C33.9113 36.2874 33.7953 36.6489 33.5805 36.9514C33.3657 37.2538 33.0627 37.4825 32.713 37.6062V34.2266Z" fill="white"/>
<path d="M31.5133 32.8056C31.1627 32.6834 30.8587 32.455 30.6436 32.1523C30.4285 31.8495 30.313 31.4873 30.313 31.1158C30.313 30.7444 30.4285 30.3822 30.6436 30.0794C30.8587 29.7766 31.1627 29.5483 31.5133 29.4261V32.8056Z" fill="white"/>
<path fill-rule="evenodd" clip-rule="evenodd" d="M32.1133 20.3164C32.3492 20.3164 32.58 20.3857 32.7769 20.5158C32.9737 20.6458 33.1281 20.8309 33.2207 21.0479L35.6996 26.2685C35.8686 26.6335 36.1248 26.9513 36.4455 27.1938C36.7663 27.4364 37.1418 27.5963 37.5389 27.6595L43.0372 28.4864C43.2691 28.5238 43.4858 28.6259 43.6625 28.7808C43.8391 28.9358 43.9686 29.1373 44.036 29.3625C44.1211 29.6086 44.1362 29.8735 44.0798 30.1278C44.0234 30.382 43.8975 30.6157 43.7163 30.8027L39.7718 34.8009C39.4852 35.0949 39.2721 35.4524 39.1498 35.8444C39.0275 36.2364 38.9996 36.6517 39.0681 37.0565L40.0034 42.7296C40.0505 42.9849 40.0243 43.2484 39.9279 43.4894C39.8315 43.7305 39.6688 43.9393 39.4587 44.0917C39.2814 44.2237 39.0695 44.301 38.8489 44.3143C38.6284 44.3277 38.4087 44.2764 38.2168 44.1667L33.2501 41.4508C32.9017 41.2595 32.5107 41.1591 32.1132 41.1591C31.7158 41.1591 31.3248 41.2595 30.9764 41.4508L26.0097 44.1667C25.8178 44.2764 25.5981 44.3277 25.3776 44.3143C25.157 44.301 24.9451 44.2237 24.7678 44.0917C24.5577 43.9393 24.395 43.7305 24.2986 43.4894C24.2022 43.2484 24.176 42.9849 24.2231 42.7296L25.1584 37.0565C25.2262 36.6523 25.1979 36.2378 25.0756 35.8467C24.9534 35.4555 24.7406 35.0987 24.4547 34.8051L20.5103 30.8068C20.3291 30.6198 20.2032 30.3862 20.1468 30.132C20.0903 29.8778 20.1055 29.6128 20.1905 29.3667C20.2579 29.1415 20.3874 28.9399 20.564 28.785C20.7407 28.63 20.9574 28.528 21.1894 28.4905L26.6876 27.6595C27.0847 27.5963 27.4602 27.4364 27.781 27.1938C28.1018 26.9513 28.358 26.6335 28.527 26.2685L31.0058 21.0479C31.0984 20.8308 31.2528 20.6458 31.4497 20.5158C31.6466 20.3857 31.8773 20.3164 32.1133 20.3164ZM32.1132 26.9153C31.9541 26.9153 31.8015 26.9786 31.689 27.0911C31.5765 27.2037 31.5133 27.3563 31.5133 27.5154V28.1755C30.1176 28.4626 29.1154 29.6906 29.1136 31.1158C29.1154 32.541 30.1176 33.7691 31.5133 34.0562V37.6061C31.1636 37.4825 30.8606 37.2538 30.6459 36.9513C30.4311 36.6488 30.315 36.2874 30.3134 35.9164C30.3134 35.7572 30.2502 35.6046 30.1377 35.492C30.0252 35.3795 29.8726 35.3163 29.7135 35.3163C29.5544 35.3163 29.4018 35.3795 29.2893 35.492C29.1768 35.6046 29.1135 35.7572 29.1135 35.9164C29.1153 37.3416 30.1176 38.5696 31.5132 38.8567V39.5168C31.5132 39.6759 31.5764 39.8285 31.6889 39.9411C31.8014 40.0536 31.954 40.1168 32.1132 40.1168C32.2723 40.1168 32.4248 40.0536 32.5373 39.9411C32.6498 39.8285 32.7131 39.6759 32.7131 39.5168V38.8567C34.1111 38.5728 35.1157 37.3433 35.1157 35.9164C35.1157 34.4895 34.1111 33.26 32.7131 32.976V29.4261C33.0628 29.5498 33.3657 29.7785 33.5805 30.0809C33.7953 30.3834 33.9114 30.7448 33.9129 31.1158C33.9129 31.275 33.9761 31.4276 34.0886 31.5402C34.2011 31.6527 34.3538 31.7159 34.5129 31.7159C34.672 31.7159 34.8246 31.6527 34.9371 31.5402C35.0496 31.4276 35.1128 31.275 35.1128 31.1158C35.111 29.6906 34.1088 28.4626 32.7132 28.1755V27.5154C32.7132 27.3563 32.6499 27.2037 32.5374 27.0911C32.4249 26.9786 32.2723 26.9153 32.1132 26.9153Z" fill="white"/>
</svg>
