<svg width="64" height="64" viewBox="0 0 64 64" fill="none" xmlns="http://www.w3.org/2000/svg">
<rect width="64" height="64" rx="8" fill="#3E96F4"/>
<path d="M32.2972 26.852H31.9999C31.8599 26.8462 31.7231 26.8074 31.6004 26.7386C31.4777 26.6697 31.3723 26.5728 31.2928 26.4555C31.2132 26.3381 31.1615 26.2036 31.1418 26.0624C31.1221 25.9213 31.135 25.7774 31.1794 25.6422C31.5956 24.5775 31.9761 23.4886 32.2853 22.4239C32.5469 21.6012 33.5696 19.0242 36.1383 19.0242C37.1394 18.9916 38.1123 19.3643 38.8436 20.0607C39.5748 20.757 40.0047 21.7201 40.0388 22.7385C40.0388 25.0735 37.4345 26.0293 36.4712 26.3681C35.1094 26.7296 33.704 26.8926 32.2972 26.852ZM36.1264 20.8027C34.7588 20.8027 34.1404 22.4118 33.9858 22.9079C33.7718 23.6096 33.5458 24.3113 33.2961 25.013C34.1487 25.0075 34.9966 24.8854 35.8172 24.6501C36.495 24.4081 38.1956 23.7548 38.1956 22.7022C38.1589 22.1748 37.923 21.6824 37.5372 21.3283C37.1514 20.9741 36.6457 20.7857 36.1264 20.8027Z" fill="white"/>
<path d="M31.6671 26.852C30.2908 26.8767 28.9179 26.7057 27.5882 26.3439C24.6271 25.3639 24.0206 23.8274 24.0206 22.7143C24.0256 22.2442 24.124 21.7799 24.31 21.3495C24.496 20.9191 24.7656 20.5314 25.1027 20.2099C25.8524 19.4426 26.8697 19.0077 27.933 19C29.9309 19 30.9417 20.8995 31.6909 22.2545C32.1777 23.3654 32.5754 24.5144 32.88 25.6906C32.9169 25.824 32.9232 25.9643 32.8984 26.1006C32.8737 26.2369 32.8186 26.3657 32.7373 26.477C32.6586 26.5893 32.5553 26.6817 32.4357 26.7467C32.316 26.8118 32.1832 26.8478 32.0476 26.852H31.6671ZM27.8022 20.8027C27.2375 20.8274 26.7044 21.0748 26.3157 21.4923C26.1462 21.6444 26.0092 21.8302 25.913 22.0383C25.8169 22.2464 25.7637 22.4724 25.7568 22.7022C25.7568 23.4402 26.6368 24.154 28.1352 24.6501C29.0095 24.88 29.9079 25.0019 30.8109 25.013C30.6185 24.3687 30.3841 23.7382 30.1092 23.1256L30.8109 22.6901L30.0379 23.1256C29.3482 21.7827 28.7536 20.8269 27.8379 20.8027H27.8022Z" fill="white"/>
<path d="M43 29.8767V28.3644C43 27.4819 42.6555 26.6357 42.0422 26.0117C41.4289 25.3878 40.5971 25.0372 39.7297 25.0372H24.2703C23.4029 25.0372 22.5711 25.3878 21.9578 26.0117C21.3445 26.6357 21 27.4819 21 28.3644V29.8767H43ZM32.8919 31.6915V45H39.7297C40.5971 45 41.4289 44.6495 42.0422 44.0255C42.6555 43.4016 43 42.5553 43 41.6729V31.6915H32.8919ZM31.1081 31.6915H21V41.6729C21 42.5553 21.3445 43.4016 21.9578 44.0255C22.5711 44.6495 23.4029 45 24.2703 45H31.1081V31.6915Z" fill="white"/>
</svg>
