<svg width="92" height="92" viewBox="0 0 92 92" fill="none" xmlns="http://www.w3.org/2000/svg">
<g filter="url(#filter0_d_0_431)">
<circle cx="42" cy="42" r="42" transform="matrix(1 0 0 -1 4 88)" fill="url(#paint0_radial_0_431)"/>
</g>
<path fill-rule="evenodd" clip-rule="evenodd" d="M61.8975 61.6348C63.5262 61.6348 64.8485 60.3139 64.8486 58.6836V54.6289C64.8486 54.0766 64.4009 53.6289 63.8486 53.6289C63.2964 53.6289 62.8486 54.0766 62.8486 54.6289V58.6836C62.8485 59.2087 62.4223 59.6348 61.8975 59.6348H30.6777C30.1529 59.6348 29.7267 59.2087 29.7266 58.6836V33.9277H62.8477V51.248C62.8478 51.8002 63.2955 52.248 63.8477 52.248C64.3999 52.248 64.8475 51.8002 64.8477 51.248V32.9473C64.8478 32.9408 64.8486 32.9343 64.8486 32.9277V27.0742C64.8486 25.4438 63.5263 24.123 61.8975 24.123H61.333V23.5615C61.3327 22.1473 60.1856 21 58.7715 21C57.3576 21.0003 56.2112 22.1475 56.2109 23.5615V24.1221H55.0908V23.5615C55.0906 22.1473 53.9434 21 52.5293 21C51.1154 21.0003 49.969 22.1475 49.9688 23.5615V24.1221H48.8486V23.5615C48.8484 22.1473 47.7012 21 46.2871 21C44.8732 21.0003 43.7268 22.1475 43.7266 23.5615V24.1221H42.6025V23.5615C42.6023 22.1473 41.4551 21 40.041 21C38.6271 21.0003 37.4807 22.1475 37.4805 23.5615V24.1221H36.3604V23.5615C36.3601 22.1473 35.2129 21 33.7988 21C32.3849 21.0003 31.2385 22.1475 31.2383 23.5615V24.123H30.6777C29.0492 24.123 27.727 25.4432 27.7266 27.0732V27.7148C27.7266 28.2671 28.1743 28.7148 28.7266 28.7148C29.2788 28.7148 29.7266 28.2671 29.7266 27.7148V27.0732C29.727 26.5484 30.1531 26.123 30.6777 26.123H31.2383V26.6836C31.2385 28.0977 32.3849 29.2439 33.7988 29.2441C35.213 29.2441 36.3601 28.0979 36.3604 26.6836V26.1221H37.4805V26.6836C37.4807 28.0977 38.6271 29.2439 40.041 29.2441C41.4552 29.2441 42.6023 28.0979 42.6025 26.6836V26.1221H43.7266V26.6836C43.7268 28.0977 44.8732 29.2439 46.2871 29.2441C47.7013 29.2441 48.8484 28.0979 48.8486 26.6836V26.1221H49.9688V26.6836C49.969 28.0977 51.1154 29.2439 52.5293 29.2441C53.9435 29.2441 55.0906 28.0979 55.0908 26.6836V26.1221H56.2109V26.6836C56.2112 28.0977 57.3575 29.2439 58.7715 29.2441C60.1856 29.2441 61.3328 28.0979 61.333 26.6836V26.123H61.8975C62.4224 26.123 62.8486 26.549 62.8486 27.0742V31.9277H29.7266V31.0957C29.7266 30.5434 29.2788 30.0957 28.7266 30.0957C28.1743 30.0957 27.7266 30.5434 27.7266 31.0957V58.6836C27.7267 60.3139 29.049 61.6348 30.6777 61.6348H61.8975ZM33.7988 27.2441C33.4894 27.2439 33.2385 26.9931 33.2383 26.6836V25.1426C33.2384 25.1362 33.2393 25.1294 33.2393 25.123C33.2393 25.1168 33.2384 25.1107 33.2383 25.1045V23.5615C33.2385 23.2522 33.4893 23.0003 33.7988 23C34.1085 23 34.3601 23.252 34.3604 23.5615V25.1045C34.3602 25.1103 34.3594 25.1162 34.3594 25.1221C34.3594 25.1288 34.3602 25.1359 34.3604 25.1426V26.6836C34.3601 26.9932 34.1085 27.2441 33.7988 27.2441ZM40.041 27.2441C39.7316 27.2439 39.4807 26.9931 39.4805 26.6836V25.1426C39.4806 25.1359 39.4814 25.1288 39.4814 25.1221C39.4814 25.1162 39.4806 25.1103 39.4805 25.1045V23.5615C39.4807 23.2522 39.7315 23.0003 40.041 23C40.3507 23 40.6023 23.252 40.6025 23.5615V25.1045C40.6024 25.1103 40.6016 25.1162 40.6016 25.1221C40.6016 25.1288 40.6024 25.1359 40.6025 25.1426V26.6836C40.6023 26.9932 40.3507 27.2441 40.041 27.2441ZM46.2871 27.2441C45.9777 27.2439 45.7268 26.9931 45.7266 26.6836V23.5615C45.7268 23.2522 45.9776 23.0003 46.2871 23C46.5968 23 46.8484 23.252 46.8486 23.5615V25.1045C46.8485 25.1103 46.8477 25.1162 46.8477 25.1221C46.8477 25.1288 46.8485 25.1359 46.8486 25.1426V26.6836C46.8484 26.9932 46.5968 27.2441 46.2871 27.2441ZM52.5293 27.2441C52.2198 27.2439 51.969 26.9931 51.9688 26.6836V25.1426C51.9689 25.1359 51.9697 25.1288 51.9697 25.1221C51.9697 25.1162 51.9689 25.1103 51.9688 25.1045V23.5615C51.969 23.2522 52.2198 23.0003 52.5293 23C52.839 23 53.0906 23.252 53.0908 23.5615V25.1045C53.0907 25.1103 53.0898 25.1162 53.0898 25.1221C53.0898 25.1288 53.0907 25.1359 53.0908 25.1426V26.6836C53.0906 26.9932 52.839 27.2441 52.5293 27.2441ZM58.7715 27.2441C58.462 27.2439 58.2112 26.9931 58.2109 26.6836V25.1426C58.2111 25.1359 58.2119 25.1288 58.2119 25.1221C58.2119 25.1162 58.211 25.1103 58.2109 25.1045V23.5615C58.2112 23.2522 58.462 23.0003 58.7715 23C59.0812 23 59.3327 23.252 59.333 23.5615V26.6836C59.3328 26.9932 59.0812 27.2441 58.7715 27.2441Z" fill="url(#paint1_linear_0_431)"/>
<path d="M52.4805 57.0742C53.5274 57.0742 54.5781 56.6738 55.3779 55.874L55.5234 55.7217C56.9294 54.1647 56.9293 51.7895 55.5234 50.2324L55.3789 50.0801L52.0801 46.7812L55.3779 43.4834C56.9777 41.8837 56.9777 39.2889 55.3789 37.6885L55.3779 37.6875C53.7775 36.0885 51.1828 36.0887 49.583 37.6885L46.2852 40.9863L42.9873 37.6885C41.4373 36.1385 38.9535 36.0903 37.3447 37.543L37.1924 37.6875L37.1914 37.6885C35.5925 39.2889 35.5926 41.8836 37.1924 43.4834L37.7861 44.0771C38.1766 44.4675 38.8097 44.4675 39.2002 44.0771C39.5906 43.6867 39.5905 43.0536 39.2002 42.6631L38.6064 42.0693C37.7881 41.2509 37.7876 39.9224 38.6064 39.1025C39.4263 38.2834 40.7547 38.284 41.5732 39.1025L45.5781 43.1074L45.6543 43.1758C46.047 43.496 46.6261 43.4734 46.9922 43.1074L50.9971 39.1025C51.8155 38.2841 53.144 38.2836 53.9639 39.1025L54.1074 39.2617C54.7793 40.0862 54.7312 41.302 53.9639 42.0693L49.959 46.0742C49.7715 46.2617 49.666 46.5161 49.666 46.7812C49.6661 47.0464 49.7715 47.3008 49.959 47.4883L53.9639 51.4932L54.1074 51.6523C54.7794 52.4766 54.7318 53.6924 53.9639 54.4609C53.5545 54.8702 53.0192 55.0742 52.4805 55.0742C52.0091 55.0742 51.5402 54.9178 51.1562 54.6045L50.9971 54.46L46.9922 50.4551C46.8047 50.2676 46.5503 50.1621 46.2852 50.1621C46.02 50.1621 45.7657 50.2676 45.5781 50.4551L41.5732 54.46C41.164 54.8691 40.6285 55.0741 40.0898 55.0742C39.5511 55.0742 39.0158 54.8692 38.6064 54.46L38.6055 54.4609C37.7868 53.6413 37.7876 52.3128 38.6064 51.4932L42.6113 47.4883C42.7988 47.3008 42.9042 47.0463 42.9043 46.7812C42.9043 46.5161 42.7988 46.2617 42.6113 46.0742L41.5898 45.0527C41.1993 44.6622 40.5663 44.6623 40.1758 45.0527C39.7854 45.4433 39.7853 46.0763 40.1758 46.4668L40.4902 46.7812L37.1914 50.0801C35.5926 51.6806 35.5924 54.2736 37.1914 55.874L37.3447 56.0195C38.123 56.7225 39.1082 57.0742 40.0898 57.0742C41.1367 57.0741 42.1876 56.6737 42.9873 55.874L46.2852 52.5762L49.583 55.874L49.7363 56.0195C50.5146 56.7223 51.499 57.0742 52.4805 57.0742Z" fill="url(#paint2_linear_0_431)"/>
<path fill-rule="evenodd" clip-rule="evenodd" d="M40.1914 71.001C40.7436 71.001 41.1913 70.5532 41.1914 70.001V68.0039C41.4476 68.003 41.6947 68.002 41.8525 68.002C43.2739 68.002 44.5674 66.8852 44.5674 65.3789C44.5671 63.967 43.4303 62.8976 42.1172 62.7695L41.8525 62.7559H40.1934C39.6415 62.7559 39.194 63.2041 39.1934 63.7559L39.1914 70.001C39.1915 70.5532 39.6392 71.001 40.1914 71.001ZM41.1924 64.7559H41.8525L41.9326 64.7598C42.3223 64.7978 42.5671 65.1108 42.5674 65.3789C42.5674 65.665 42.2886 66.002 41.8525 66.002C41.6926 66.002 41.4459 66.0028 41.1914 66.0039L41.1924 64.7559Z" fill="url(#paint3_linear_0_431)"/>
<path fill-rule="evenodd" clip-rule="evenodd" d="M52.1191 70.7354C52.4906 71.0798 53.0703 71.0936 53.459 70.752C53.8736 70.3871 53.9137 69.7544 53.5488 69.3398L52.1709 67.7754C53.1019 67.3763 53.7979 66.4831 53.7979 65.3789C53.7976 63.967 52.6608 62.8976 51.3477 62.7695L51.083 62.7559H49.4238C48.872 62.7559 48.4244 63.2041 48.4238 63.7559L48.4219 70.001C48.422 70.5532 48.8697 71.001 49.4219 71.001C49.9741 71.001 50.4217 70.5532 50.4219 70.001V68.8154L52.0479 70.6621L52.1191 70.7354ZM50.4229 64.7559H51.083L51.1631 64.7598C51.5527 64.7978 51.7976 65.1108 51.7979 65.3789C51.7979 65.665 51.5191 66.002 51.083 66.002C50.9231 66.002 50.6763 66.0028 50.4219 66.0039L50.4229 64.7559Z" fill="url(#paint4_linear_0_431)"/>
<path d="M29.7334 70.9961C30.2375 70.9448 30.6307 70.5186 30.6309 70.001C30.6309 69.4833 30.2375 69.0572 29.7334 69.0059L29.6309 69.001H28V67.8789H29.4365L29.5391 67.874C30.0434 67.8229 30.4365 67.3967 30.4365 66.8789C30.4365 66.3611 30.0434 65.935 29.5391 65.8838L29.4365 65.8789H28V64.7568H29.6309L29.7334 64.752C30.2375 64.7006 30.6307 64.2744 30.6309 63.7568C30.6307 63.2393 30.2374 62.814 29.7334 62.7627L29.6309 62.7568H27C26.4478 62.7568 26.0002 63.2047 26 63.7568V70.001L26.0049 70.1035C26.0563 70.6075 26.4824 71.001 27 71.001H29.6309L29.7334 70.9961Z" fill="url(#paint5_linear_0_431)"/>
<path d="M36.5127 70.6572C36.8446 71.0398 37.4194 71.1168 37.8428 70.8193C38.2944 70.5016 38.4026 69.8775 38.085 69.4258L36.1367 66.6572L37.7744 64.333L37.8291 64.2461C38.0775 63.8044 37.9563 63.2376 37.5332 62.9395C37.11 62.6413 36.5354 62.718 36.2031 63.1006L36.1396 63.1816L34.915 64.9199L33.6934 63.1816C33.3756 62.7299 32.7515 62.6217 32.2998 62.9395C31.8484 63.2571 31.7394 63.8804 32.0566 64.332L33.6914 66.6572L31.7412 69.4248L31.6865 69.5117C31.4382 69.9533 31.5594 70.5202 31.9824 70.8184C32.4058 71.1165 32.9813 71.0401 33.3135 70.6572L33.376 70.5771L34.9131 68.3945L36.4492 70.5762L36.5127 70.6572Z" fill="url(#paint6_linear_0_431)"/>
<path d="M46.4961 71.001C47.0483 71.001 47.496 70.5532 47.4961 70.001V63.7568C47.4959 63.2047 47.0483 62.7568 46.4961 62.7568C45.9439 62.7568 45.4962 63.2047 45.4961 63.7568V70.001C45.4962 70.5532 45.9439 71.001 46.4961 71.001Z" fill="url(#paint7_linear_0_431)"/>
<path d="M58.4561 70.9961C58.9601 70.9448 59.3534 70.5186 59.3535 70.001C59.3535 69.4833 58.9602 69.0572 58.4561 69.0059L58.3535 69.001H56.7227V67.8789H58.1592L58.2617 67.874C58.766 67.8229 59.1592 67.3967 59.1592 66.8789C59.1592 66.3611 58.766 65.935 58.2617 65.8838L58.1592 65.8789H56.7227V64.7568H58.3535L58.4561 64.752C58.9601 64.7006 59.3534 64.2744 59.3535 63.7568C59.3534 63.2393 58.9601 62.814 58.4561 62.7627L58.3535 62.7568H55.7227C55.1705 62.7568 54.7228 63.2047 54.7227 63.7568V70.001L54.7275 70.1035C54.779 70.6075 55.2051 71.001 55.7227 71.001H58.3535L58.4561 70.9961Z" fill="url(#paint8_linear_0_431)"/>
<path fill-rule="evenodd" clip-rule="evenodd" d="M61.499 71C61.6305 70.9994 61.8114 70.9982 62.0078 70.9971C62.3987 70.9947 62.8603 70.9918 63.1191 70.9873L63.3291 70.9775C65.4662 70.8194 66.5712 68.8379 66.5713 66.8789C66.5713 65.8671 66.3199 64.8576 65.7344 64.0742C65.1248 63.2588 64.199 62.7569 63.0498 62.7568H61.2812C60.7291 62.7568 60.2814 63.2047 60.2812 63.7568V70.001C60.2813 70.2666 60.3871 70.5214 60.5752 70.709C60.7635 70.8965 61.0194 71.002 61.2852 71.001H61.3428C61.3798 71.0008 61.4334 71.0003 61.499 71ZM62.2812 64.7568H63.0498C63.5621 64.7569 63.8971 64.9561 64.1328 65.2715C64.3924 65.6189 64.5713 66.1706 64.5713 66.8789C64.5712 68.2087 63.9271 68.8873 63.2246 68.9775L63.084 68.9873C62.8967 68.9906 62.5905 68.993 62.2812 68.9951V64.7568Z" fill="url(#paint9_linear_0_431)"/>
<defs>
<filter id="filter0_d_0_431" x="0" y="0" width="92" height="92" filterUnits="userSpaceOnUse" color-interpolation-filters="sRGB">
<feFlood flood-opacity="0" result="BackgroundImageFix"/>
<feColorMatrix in="SourceAlpha" type="matrix" values="0 0 0 0 0 0 0 0 0 0 0 0 0 0 0 0 0 0 127 0" result="hardAlpha"/>
<feOffset/>
<feGaussianBlur stdDeviation="2"/>
<feComposite in2="hardAlpha" operator="out"/>
<feColorMatrix type="matrix" values="0 0 0 0 0.0747504 0 0 0 0 0.360452 0 0 0 0 0.665634 0 0 0 0.2 0"/>
<feBlend mode="normal" in2="BackgroundImageFix" result="effect1_dropShadow_0_431"/>
<feBlend mode="normal" in="SourceGraphic" in2="effect1_dropShadow_0_431" result="shape"/>
</filter>
<radialGradient id="paint0_radial_0_431" cx="0" cy="0" r="1" gradientUnits="userSpaceOnUse" gradientTransform="translate(42 42) rotate(90) scale(42)">
<stop offset="0.546875" stop-color="white"/>
<stop offset="1" stop-color="white"/>
</radialGradient>
<linearGradient id="paint1_linear_0_431" x1="66.896" y1="71.0819" x2="28.9674" y2="35.1145" gradientUnits="userSpaceOnUse">
<stop stop-color="#31393C"/>
<stop offset="1" stop-color="#3D96F5"/>
</linearGradient>
<linearGradient id="paint2_linear_0_431" x1="66.896" y1="71.0819" x2="28.9674" y2="35.1145" gradientUnits="userSpaceOnUse">
<stop stop-color="#31393C"/>
<stop offset="1" stop-color="#3D96F5"/>
</linearGradient>
<linearGradient id="paint3_linear_0_431" x1="66.896" y1="71.0819" x2="28.9674" y2="35.1145" gradientUnits="userSpaceOnUse">
<stop stop-color="#31393C"/>
<stop offset="1" stop-color="#3D96F5"/>
</linearGradient>
<linearGradient id="paint4_linear_0_431" x1="66.896" y1="71.0819" x2="28.9674" y2="35.1145" gradientUnits="userSpaceOnUse">
<stop stop-color="#31393C"/>
<stop offset="1" stop-color="#3D96F5"/>
</linearGradient>
<linearGradient id="paint5_linear_0_431" x1="66.896" y1="71.0819" x2="28.9674" y2="35.1145" gradientUnits="userSpaceOnUse">
<stop stop-color="#31393C"/>
<stop offset="1" stop-color="#3D96F5"/>
</linearGradient>
<linearGradient id="paint6_linear_0_431" x1="66.896" y1="71.0819" x2="28.9674" y2="35.1145" gradientUnits="userSpaceOnUse">
<stop stop-color="#31393C"/>
<stop offset="1" stop-color="#3D96F5"/>
</linearGradient>
<linearGradient id="paint7_linear_0_431" x1="66.896" y1="71.0819" x2="28.9674" y2="35.1145" gradientUnits="userSpaceOnUse">
<stop stop-color="#31393C"/>
<stop offset="1" stop-color="#3D96F5"/>
</linearGradient>
<linearGradient id="paint8_linear_0_431" x1="66.896" y1="71.0819" x2="28.9674" y2="35.1145" gradientUnits="userSpaceOnUse">
<stop stop-color="#31393C"/>
<stop offset="1" stop-color="#3D96F5"/>
</linearGradient>
<linearGradient id="paint9_linear_0_431" x1="66.896" y1="71.0819" x2="28.9674" y2="35.1145" gradientUnits="userSpaceOnUse">
<stop stop-color="#31393C"/>
<stop offset="1" stop-color="#3D96F5"/>
</linearGradient>
</defs>
</svg>
