<svg width="41" height="45" viewBox="0 0 41 45" fill="none" xmlns="http://www.w3.org/2000/svg">
<path fill-rule="evenodd" clip-rule="evenodd" d="M39.3683 20.5183C39.274 20.5177 38.8093 20.4528 37.7613 19.4675L32.0214 14.0689C31.5818 13.655 30.8576 13.9791 30.8735 14.583L31.1143 24.0113H24.2741L24.5149 14.583C24.5295 13.9794 23.8067 13.655 23.3659 14.0689L17.6259 19.4675C16.5786 20.4529 16.1132 20.5178 16.0191 20.5183C15.93 20.3701 15.961 19.8892 16.0737 19.7358L23.2924 11.1192C23.8934 10.4023 24.4461 10.0829 25.0861 10.0829H30.3015C30.9415 10.0829 31.4953 10.4023 32.0951 11.1192L39.3122 19.7329C39.4268 19.8892 39.4573 20.3701 39.3683 20.5183ZM34.204 43.6211C33.7312 43.7309 32.8815 43.2741 32.5804 42.1642L28.8323 28.3402C28.6619 27.7117 28.0046 27.0354 27.4145 27.3022C26.9963 27.49 26.6843 27.8681 26.5562 28.3402L22.8079 42.1642C22.5069 43.2741 21.6566 43.7298 21.1832 43.6211C20.7305 43.5166 20.8069 42.849 20.8615 42.5675L24.162 25.3746H31.2257L34.5268 42.5675C34.5803 42.849 34.6578 43.5166 34.204 43.6211ZM12.2524 14.4606L18.2153 15.0563L19.0713 14.0337L12.246 12.4664C12.2495 12.5439 12.2523 12.6221 12.2523 12.699L12.2524 14.4606ZM12.3834 43.5999C11.8114 43.7525 11.215 43.3915 11.0832 42.8611L8.09 29.1135C8.01705 28.7756 7.49435 28.0783 7.25583 27.8094L5.87644 26.2531C5.49902 25.8274 5.26517 25.3937 5.11927 24.8456L4.80496 23.6742H10.2307L13.1205 42.2258C13.2055 42.7692 13.0108 43.4316 12.3834 43.5999ZM3.68986 42.5807L6.92032 30.1511L6.77665 29.4922C6.62325 29.202 6.45889 28.9659 6.236 28.7137L4.85539 27.1574C4.33776 26.5737 4.00336 25.9521 3.80177 25.1983L3.39331 23.6741H3.22611C3.01985 25.2948 3.21525 26.6593 3.42141 28.099C4.03816 32.3987 3.81394 33.5372 2.5913 38.1334C2.22586 39.5082 1.84905 40.9284 1.5669 42.3543C1.47792 42.8948 1.88162 43.463 2.466 43.5499C3.11075 43.6447 3.55138 43.1144 3.68986 42.5807ZM3.42557 22.3101L3.6508 20.7866L10.6725 21.322C10.7443 21.3272 10.8161 21.3301 10.8891 21.3301V22.3101H3.42557ZM1.38611 16.1893L1.67455 13.8418L3.90363 14.564L3.57501 15.8739C3.38915 16.6172 3.94776 17.3058 4.68149 17.4418L11.108 18.631C11.8308 18.7655 12.1042 19.1349 12.0973 19.2658C12.0715 19.7211 11.292 20.0013 10.7759 19.9621L3.77438 19.4284C2.24321 19.1532 1.19588 17.7365 1.38611 16.1893ZM5.00432 7.92207C2.65451 8.29999 2.49238 10.0949 1.91631 12.4866L4.92965 13.4632C5.09406 13.5164 5.2321 13.63 5.31584 13.7812C5.39957 13.9324 5.42273 14.1097 5.38062 14.2773L4.92448 16.099L10.8891 17.2038V12.699C10.8891 10.1757 8.45666 7.84841 5.92351 7.84841L5.00432 7.92207ZM5.91611 1.36397C7.32766 1.36397 8.47675 2.51184 8.47675 3.92461C8.47675 5.33698 7.32695 6.48576 5.91438 6.48525C4.50333 6.48414 3.35607 5.33566 3.35607 3.92461C3.35607 2.51184 4.50455 1.36397 5.91611 1.36397ZM27.6942 3.19494C29.1064 3.19494 30.2542 4.34281 30.2542 5.75498C30.2542 7.16653 29.1064 8.31562 27.6942 8.31562C26.2826 8.31562 25.1336 7.16663 25.1336 5.75498C25.1336 4.34281 26.2825 3.19494 27.6942 3.19494ZM40.3593 18.8596L33.1405 10.2431C32.2593 9.19138 31.3435 8.71951 30.2605 8.71951C31.0912 7.99908 31.6175 6.93734 31.6175 5.75498C31.6175 3.59133 29.8577 1.83107 27.6941 1.83107C25.5304 1.83107 23.7696 3.59133 23.7696 5.75498C23.7696 6.93734 24.2969 7.99898 25.1266 8.71951C24.045 8.71951 23.1275 9.19149 22.2465 10.2431L20.0554 12.8599L11.9794 11.0065C11.4108 9.24627 10.0332 7.76603 8.3341 7.01191C9.24933 6.2932 9.84052 5.17637 9.84052 3.92451C9.84052 1.76026 8.07965 0 5.916 0C3.75236 0 1.99261 1.76026 1.99261 3.92451C1.99261 5.15568 2.56249 6.25586 3.45246 6.97579C1.16311 8.05244 1.0164 10.6615 0.439727 12.7583H0.440844L0.0323827 16.0232C-0.19224 17.8582 0.770575 19.5674 2.33441 20.3665L1.90698 23.2528C1.38976 26.7454 2.5494 28.9865 2.36546 32.533C2.2913 33.9555 1.79731 35.8146 1.27451 37.7834C0.901656 39.1847 0.516124 40.6324 0.22596 42.1089C0.223201 42.1193 0.221468 42.1299 0.220786 42.1406C0.125418 42.7812 0.286834 43.42 0.67409 43.9428C1.87076 45.5568 4.43191 45.1483 5.0099 42.9237L7.56243 33.1013L9.75418 43.169C10.0898 44.4853 11.4325 45.2649 12.7359 44.9173C13.9504 44.5915 14.6794 43.3707 14.4674 42.0155L11.6103 23.6725C11.7839 23.6625 11.9471 23.5864 12.0664 23.4599C12.1857 23.3334 12.2522 23.1661 12.252 22.9922V21.0096C13.7755 20.2455 13.9463 18.4437 12.252 17.5884V15.8314L17.1549 16.3209L15.0286 18.8597C14.5483 19.4319 14.361 20.8349 15.0935 21.5266C15.321 21.7415 15.8282 22.0586 16.6647 21.7639C17.2128 21.5703 17.8327 21.1446 18.56 20.4603L23.109 16.1819L22.8924 24.6755C22.8918 24.6985 22.8924 24.7208 22.8935 24.7438L19.5217 42.3101C19.1791 44.0954 20.2158 44.9983 21.3182 44.9983C22.4144 44.9983 23.6823 44.1445 24.1224 42.5209L27.6936 29.3525L31.2636 42.5209C31.7385 44.2728 33.2564 45.2386 34.5107 44.9489C35.3328 44.7587 36.1808 43.9538 35.8654 42.3101L32.4924 24.7443C32.4945 24.7214 32.4951 24.6984 32.4942 24.6755L32.2771 16.1819L36.826 20.4603C37.1178 20.7337 37.3919 20.9664 37.6505 21.1594V44.318C37.6505 44.4989 37.7223 44.6723 37.8502 44.8002C37.9781 44.9281 38.1516 45 38.3324 45C38.5133 45 38.6868 44.9281 38.8147 44.8002C38.9426 44.6723 39.0144 44.4989 39.0144 44.318V21.8448C39.6792 21.9821 40.0934 21.715 40.2933 21.5266C41.0269 20.8349 40.8384 19.4318 40.3593 18.8596Z" fill="url(#paint0_linear_1_395)"/>
<defs>
<linearGradient id="paint0_linear_1_395" x1="0" y1="0" x2="44.2137" y2="33.5055" gradientUnits="userSpaceOnUse">
<stop stop-color="#FE5B52"/>
<stop offset="1" stop-color="#3D96F5"/>
</linearGradient>
</defs>
</svg>
