<svg width="97" height="67" viewBox="0 0 97 67" fill="none" xmlns="http://www.w3.org/2000/svg">
<path fill-rule="evenodd" clip-rule="evenodd" d="M54.3322 28.4804C53.1988 29.2815 51.7091 29.402 50.5551 28.8813C50.5551 28.8813 50.2405 28.7611 49.9468 28.4407C49.6943 28.1394 43.315 21.2688 43.315 21.2688L43.2943 21.2484C45.2672 21.5892 47.4287 20.688 48.5408 19.0452C49.6523 17.4825 49.6112 15.259 48.5618 13.6963C47.3031 11.9938 44.8473 11.433 42.7907 11.693C39.2235 12.174 36.6634 15.1989 35.8665 18.3647C35.0474 21.9697 35.6356 25.3754 36.9163 28.5806C37.2092 29.2621 37.6082 29.963 38.091 30.5632C34.3342 29.0014 31.0186 26.1167 29.2773 22.2501C27.3467 18.0833 27.3887 12.8152 29.6762 8.58835C31.4805 5.32312 34.6698 2.2982 38.6153 1.01588C42.7487 -0.606561 48.3099 -0.266117 52.3393 1.89735C57.2283 4.22103 60.9215 10.0112 60.9425 15.1792C61.1105 20.5278 58.6333 25.3754 54.3322 28.4804Z" fill="#BFA161"/>
<path fill-rule="evenodd" clip-rule="evenodd" d="M40.6106 30.5038C38.7853 28.62 37.316 26.1765 38.4287 23.6326C39.4142 21.6894 40.2957 19.7058 40.7156 17.4619C40.8836 19.8063 42.3739 21.8896 43.0864 24.1335C43.3594 25.2149 43.3807 26.337 42.9401 27.4585C42.4575 28.6804 41.6807 29.7218 40.7573 30.6633L40.6106 30.5038Z" fill="#BFA161"/>
<path fill-rule="evenodd" clip-rule="evenodd" d="M17.5842 51.6722H12.7247C11.6481 50.0598 10.6756 48.6667 9.80183 47.4932C8.88768 46.261 7.94502 45.0503 6.97459 43.862H5.12928V49.3304C5.12928 49.6124 5.17708 49.8608 5.26849 50.0766C5.35958 50.2875 5.55919 50.4542 5.86766 50.5656C6.01947 50.6237 6.28498 50.6774 6.66677 50.7232C7.04888 50.773 7.37059 50.802 7.63545 50.8101V51.6725H0V50.8101C0.204137 50.793 0.500008 50.7649 0.886318 50.7232C1.27263 50.6861 1.54201 50.6318 1.69382 50.5656C1.94641 50.4616 2.13246 50.3085 2.24551 50.1056C2.36212 49.9021 2.41929 49.6454 2.41929 49.3304V36.8671C2.41929 36.5809 2.37601 36.3325 2.28847 36.1129C2.20675 35.8929 2.00649 35.7269 1.69415 35.6148C1.48129 35.5405 1.20383 35.4746 0.864677 35.4158C0.578771 35.3614 0.29012 35.3226 0 35.2995L0 34.4374H8.33443C9.09865 34.4374 9.81475 34.5127 10.484 34.6616C11.152 34.8108 11.7608 35.0511 12.3041 35.3825C12.8207 35.6972 13.2528 36.1329 13.5632 36.6519C13.8765 37.1742 14.0364 37.8041 14.0364 38.5425C14.0364 39.2059 13.9282 39.7948 13.715 40.3038C13.5049 40.8092 13.1844 41.2611 12.777 41.6265C12.3949 41.9744 11.934 42.278 11.4004 42.5306C10.8664 42.7877 10.2754 43.0035 9.63322 43.1811C10.3794 44.1242 11.1191 45.0725 11.8522 46.0258C12.4427 46.7923 13.163 47.7293 14.0228 48.8278C14.3965 49.3172 14.7308 49.6735 15.0358 49.9057C15.3352 50.1337 15.6343 50.3253 15.9302 50.4697C16.1514 50.5737 16.4247 50.6567 16.759 50.7142C17.0891 50.7684 17.363 50.8017 17.5842 50.8098V51.6722ZM10.8923 38.8199C10.8923 37.7753 10.579 36.9504 9.95009 36.337C9.32443 35.7272 8.43391 35.421 7.29178 35.421H5.12928V42.8168H6.79726C7.96524 42.8168 8.94297 42.4605 9.71914 41.7428C10.5018 41.026 10.8926 40.0512 10.8926 38.8196L10.8923 38.8199ZM29.0973 48.8534C28.5721 49.8114 27.868 50.5701 26.9875 51.138C26.105 51.7055 25.0892 51.9874 23.9467 51.9874C22.9345 51.9874 22.0533 51.8172 21.2936 51.4774C20.5333 51.138 19.9076 50.6774 19.4176 50.093C18.9266 49.512 18.5571 48.8282 18.3146 48.053C18.0749 47.2736 17.9544 46.4528 17.9544 45.5862C17.9544 44.811 18.0843 44.0484 18.3401 43.2974C18.5936 42.5586 18.981 41.8729 19.4829 41.2744C19.9648 40.7021 20.5636 40.2376 21.2804 39.8855C21.9968 39.5328 22.8007 39.3558 23.6913 39.3558C24.607 39.3558 25.3928 39.4918 26.0446 39.7699C26.7003 40.0428 27.2307 40.4204 27.6348 40.8972C28.0247 41.3536 28.3154 41.8881 28.5069 42.5018C28.6981 43.1194 28.7937 43.7874 28.7937 44.5045V45.3087H20.4861C20.4861 46.092 20.5636 46.8055 20.7196 47.4431C20.8756 48.0859 21.124 48.6457 21.4667 49.1357C21.7972 49.6037 22.2271 49.9726 22.7617 50.2465C23.2956 50.5155 23.9342 50.6528 24.6725 50.6528C25.4274 50.6528 26.0795 50.4823 26.6257 50.147C27.1697 49.8111 27.6987 49.2058 28.2071 48.3304L29.0973 48.8534ZM26.2879 44.2884C26.2879 43.8329 26.2491 43.3478 26.1661 42.829C26.0834 42.3113 25.9571 41.8801 25.7798 41.5319C25.5899 41.1668 25.3138 40.8536 24.9755 40.6194C24.638 40.3836 24.1987 40.2673 23.6648 40.2673C22.7742 40.2673 22.0362 40.6194 21.4451 41.3284C20.855 42.0374 20.5375 43.0241 20.4858 44.2884H26.2879ZM36.1895 51.6722H30.2818V50.9002C30.4704 50.8838 30.6717 50.864 30.8858 50.844C31.0644 50.8325 31.2415 50.803 31.4142 50.7562C31.6445 50.688 31.8161 50.5633 31.9294 50.3879C32.0425 50.2116 32.1055 49.9829 32.1016 49.7032L31.9088 36.9133C31.9071 36.7685 31.8409 36.3512 31.7611 36.0638C31.725 35.9333 31.6859 35.8286 31.6487 35.7882C31.6097 35.7453 31.5964 35.7017 31.5415 35.6548C31.3293 35.4736 31.5929 35.7253 31.3945 35.557C31.2637 35.4455 31.4485 35.515 31.056 35.4375C30.6668 35.3609 30.015 35.5327 29.776 35.5169L29.7547 34.6739L34.1604 34.4445L34.3697 34.6157L34.3868 49.563C34.3868 49.8353 34.4392 50.0585 34.5461 50.2352C34.6523 50.4102 34.8232 50.5478 35.0619 50.6396C35.2329 50.7158 35.4112 50.7747 35.5939 50.8156C35.7706 50.856 35.9712 50.8834 36.1895 50.9002V51.6722ZM43.7814 51.6722H37.7661V50.8786L38.364 50.8295C38.5713 50.8133 38.7474 50.781 38.8982 50.7306C39.1356 50.6612 39.3123 50.5336 39.4237 50.3527C39.5355 50.1719 39.5965 49.9374 39.5965 49.6496V42.3155C39.5965 42.0571 39.5316 41.8222 39.4108 41.6081C39.29 41.3949 39.1178 41.2179 38.8982 41.0742C38.7393 40.9757 38.5106 40.8933 38.2054 40.8277C37.9321 40.7627 37.6541 40.7199 37.374 40.6998V39.9191L41.7668 39.6517L41.9428 39.8206V49.5058C41.9428 49.7859 41.9987 50.0194 42.1108 50.2048C42.2229 50.3857 42.4041 50.5246 42.6492 50.6118C42.834 50.6861 43.0155 50.7432 43.1919 50.7881C43.3856 50.8341 43.5827 50.8643 43.7814 50.8786V51.6722ZM42.1925 34.9697C42.1925 35.4258 42.0375 35.8244 41.719 36.1658C41.4044 36.5066 41.0171 36.6794 40.5517 36.6794C40.1253 36.6794 39.7506 36.5153 39.4363 36.1904C39.1224 35.8658 38.9625 35.4911 38.9625 35.076C38.9625 34.6322 39.1224 34.2498 39.4363 33.921C39.7509 33.5921 40.1256 33.4277 40.5517 33.4277C41.0345 33.4277 41.426 33.5795 41.7316 33.8887C42.0375 34.2004 42.1925 34.5582 42.1925 34.9697ZM57.2002 51.4526C56.8006 51.5892 56.4531 51.7013 56.1536 51.7885C55.85 51.8715 55.5109 51.9167 55.1291 51.9167C54.4643 51.9167 53.9391 51.7675 53.5435 51.4736C53.1484 51.1751 52.8968 50.7436 52.7876 50.1799H52.7101C52.1584 50.76 51.5676 51.2077 50.9336 51.5149C50.3034 51.8214 49.5434 51.9752 48.6535 51.9752C47.7113 51.9752 46.9381 51.7009 46.3302 51.1502C45.722 50.5985 45.418 49.8776 45.418 48.99C45.418 48.5258 45.4878 48.1153 45.6221 47.7506C45.7599 47.3849 45.968 47.0497 46.2346 46.7639C46.4474 46.5232 46.7249 46.3078 47.0727 46.1166C47.3884 45.9408 47.7165 45.7884 48.0544 45.6605C48.4361 45.5245 49.2094 45.2671 50.3735 44.8937C51.5421 44.5203 52.3277 44.2309 52.7359 44.0193V42.8168C52.7359 42.7131 52.7143 42.5099 52.6662 42.2118C52.6188 41.9126 52.5173 41.6245 52.3668 41.3616C52.1972 41.0593 51.9578 40.798 51.6455 40.5784C51.3377 40.3536 50.8987 40.2424 50.3299 40.2424C49.9391 40.2424 49.5786 40.3041 49.244 40.433C48.9097 40.5577 48.671 40.6895 48.5366 40.8271C48.5366 40.9886 48.5754 41.2244 48.6587 41.5438C48.7398 41.8587 48.7795 42.1491 48.7795 42.4191C48.7795 42.7005 48.6448 42.9579 48.3799 43.194C48.1109 43.4308 47.7417 43.5468 47.2636 43.5468C46.8424 43.5468 46.5301 43.4014 46.3302 43.1155C46.1299 42.829 46.0307 42.5057 46.0307 42.1491C46.0307 41.7757 46.1696 41.4198 46.4432 41.0797C46.7213 40.7402 47.0769 40.4369 47.5207 40.1717C47.9022 39.9437 48.3622 39.7531 48.9051 39.5913C49.4478 39.4336 49.9781 39.3555 50.4953 39.3555C51.2072 39.3555 51.8283 39.4052 52.3629 39.4957C52.8826 39.5848 53.3753 39.7906 53.8041 40.0974C54.2386 40.3955 54.5641 40.8016 54.7902 41.3155C55.0157 41.8306 55.1294 42.4938 55.1294 43.3019C55.1294 44.4625 55.1158 45.4874 55.0893 46.3821C55.0638 47.2781 55.0509 48.2561 55.0509 49.3175C55.0509 49.6328 55.1068 49.8815 55.2244 50.0675C55.3374 50.2549 55.5151 50.4122 55.7499 50.5446C55.8801 50.615 56.0803 50.657 56.3532 50.6651C56.631 50.6728 56.9137 50.6774 57.2002 50.6774V51.4526ZM52.7621 45.039C52.0408 45.2419 51.4068 45.4408 50.8638 45.6356C50.3212 45.831 49.8173 46.071 49.3528 46.3656C48.9268 46.6398 48.5925 46.967 48.3447 47.3436C48.1015 47.7174 47.9755 48.165 47.9755 48.6831C47.9755 49.355 48.1629 49.8521 48.5317 50.167C48.9016 50.4823 49.3703 50.6402 49.9342 50.6402C50.5382 50.6402 51.068 50.4991 51.5282 50.2216C51.985 49.9438 52.371 49.6124 52.6833 49.2306L52.7621 45.039ZM72.3005 51.6722H66.1557V50.8724C66.3508 50.8563 66.5676 50.8395 66.7979 50.823C67.033 50.8062 67.2233 50.7733 67.3802 50.7235C67.6144 50.6531 67.7924 50.5242 67.9058 50.3424C68.0224 50.1596 68.0795 49.9235 68.0795 49.6331V43.4725C68.0795 42.6223 67.8667 41.9676 67.449 41.507C67.0282 41.0467 66.5155 40.8148 65.9164 40.8148C65.4651 40.8148 65.0527 40.881 64.6783 41.0134C64.3098 41.1462 63.9751 41.3119 63.6886 41.507C63.4105 41.6934 63.1847 41.8927 63.0194 42.1084C62.8546 42.3239 62.7335 42.4941 62.6595 42.622V49.5123C62.6595 49.7862 62.7154 50.0146 62.8378 50.1928C62.9554 50.3705 63.1324 50.5078 63.3718 50.6031C63.5562 50.6869 63.7499 50.7483 63.949 50.7859C64.1576 50.8266 64.3705 50.8563 64.5921 50.8724V51.6725H58.4466V50.8724C58.6417 50.8563 58.842 50.8395 59.05 50.823C59.2341 50.8106 59.4161 50.7772 59.5926 50.7235C59.8278 50.6531 60.0054 50.5242 60.1191 50.3424C60.2367 50.1596 60.2929 49.9235 60.2929 49.6331V42.2363C60.2929 41.9586 60.2315 41.7056 60.1056 41.4779C59.9854 41.2484 59.809 41.053 59.593 40.9101C59.4324 40.8148 59.2409 40.7444 59.0196 40.6985C58.7846 40.6521 58.5466 40.6216 58.3074 40.6074V39.82L62.4806 39.5506L62.6595 39.7201V41.4075H62.7199C62.9241 41.2169 63.1805 40.9805 63.4838 40.7111C63.7884 40.4414 64.0798 40.2176 64.3488 40.0483C64.666 39.8532 65.0394 39.6911 65.469 39.5622C65.9038 39.434 66.3899 39.3677 66.9332 39.3677C68.1357 39.3677 69.0301 39.7282 69.6122 40.4414C70.1942 41.1591 70.4801 42.1126 70.4801 43.3019V49.5336C70.4801 49.8191 70.5334 50.0478 70.6377 50.2219C70.7372 50.3963 70.9106 50.5326 71.1584 50.6283C71.3619 50.7109 71.536 50.7652 71.6839 50.7975C71.8318 50.8305 72.0402 50.8563 72.3008 50.8724L72.3005 51.6722ZM79.6443 51.9874C77.829 51.9874 76.4088 51.4112 75.38 50.2626C74.3545 49.1147 73.8425 47.572 73.8425 45.6356C73.8425 44.7945 73.9814 44.007 74.255 43.2728C74.5327 42.5398 74.9403 41.8628 75.4582 41.2744C75.9572 40.7021 76.5868 40.2376 77.3426 39.8855C78.0942 39.5328 78.9188 39.3558 79.809 39.3558C81.0384 39.3558 82.042 39.6371 82.8104 40.2008C83.584 40.7644 83.97 41.5315 83.97 42.5018C83.97 42.9079 83.8698 43.2641 83.6657 43.5758C83.4619 43.8901 83.1266 44.0442 82.6579 44.0442C82.1586 44.0442 81.7722 43.9234 81.4945 43.6789C81.2206 43.4389 81.082 43.1653 81.082 42.8662C81.082 42.5018 81.134 42.1284 81.2338 41.7428C81.3381 41.3578 81.3943 41.0761 81.4114 40.8972C81.26 40.6485 81.0342 40.4789 80.7306 40.3955C80.4308 40.3083 80.1049 40.267 79.7567 40.267C79.3557 40.2663 78.9592 40.3511 78.5936 40.5157C78.2244 40.6817 77.8681 40.9889 77.5206 41.4321C77.204 41.8387 76.9521 42.3859 76.756 43.0736C76.5616 43.7622 76.4608 44.5826 76.4608 45.5368C76.4608 47.0452 76.8125 48.2726 77.5122 49.2261C78.2108 50.1761 79.1323 50.6528 80.2654 50.6528C81.0904 50.6528 81.7806 50.4616 82.3375 50.0808C82.8889 49.699 83.4047 49.1305 83.8792 48.3679L84.6951 48.8782C84.135 49.8356 83.3966 50.5908 82.4806 51.1502C81.5636 51.71 80.6172 51.9874 79.6446 51.9874H79.6443ZM96.82 48.8534C96.2951 49.8114 95.5916 50.5701 94.7101 51.138C93.8283 51.7055 92.8121 51.9874 91.6703 51.9874C90.658 51.9874 89.7766 51.8172 89.0165 51.4774C88.2562 51.138 87.6309 50.6774 87.1399 50.093C86.6499 49.512 86.2807 48.8282 86.0372 48.053C85.7985 47.2736 85.676 46.4528 85.676 45.5862C85.676 44.811 85.8065 44.0484 86.0633 43.2974C86.3168 42.5588 86.7038 41.8731 87.2051 41.2744C87.6877 40.7021 88.2862 40.2376 89.0033 39.8855C89.72 39.5328 90.5237 39.3558 91.4135 39.3558C92.3302 39.3558 93.1158 39.4918 93.7669 39.7699C94.4233 40.0428 94.9533 40.4204 95.3568 40.8972C95.7476 41.3536 96.0383 41.8881 96.2295 42.5018C96.421 43.1194 96.5163 43.7874 96.5163 44.5045V45.3087H88.2081C88.2081 46.092 88.2862 46.8055 88.4429 47.4431C88.5989 48.0859 88.8473 48.6457 89.1903 49.1357C89.5207 49.6037 89.9503 49.9726 90.4836 50.2465C91.0179 50.5155 91.6568 50.6528 92.3948 50.6528C93.1513 50.6528 93.8021 50.4823 94.3496 50.147C94.8919 49.8111 95.4223 49.2058 95.9304 48.3304L96.82 48.8534ZM94.0105 44.2884C94.0105 43.8329 93.9717 43.3478 93.889 42.829C93.806 42.3113 93.6804 41.8801 93.503 41.5319C93.3131 41.1672 93.0374 40.854 92.6997 40.6194C92.3603 40.3836 91.9223 40.2673 91.3877 40.2673C90.4969 40.2673 89.7591 40.6194 89.1684 41.3284C88.5773 42.0374 88.2607 43.0241 88.2081 44.2884H94.0105Z" fill="#1F1917"/>
<path d="M3.53852 66.8579H0.00390625V66.5026C0.104037 66.4945 0.247127 66.4851 0.436083 66.4716C0.624717 66.4593 0.756825 66.4393 0.834022 66.4118C0.954502 66.3692 1.043 66.3094 1.10018 66.2342C1.15476 66.1592 1.18157 66.0546 1.18157 65.9215V60.7751C1.18157 60.6595 1.16252 60.561 1.12085 60.4831C1.08112 60.4043 0.984864 60.3391 0.834022 60.2848C0.722586 60.2454 0.58531 60.2079 0.417349 60.1721C0.281017 60.1426 0.142912 60.122 0.00390625 60.1104V59.7551H3.53852V60.1104C3.42321 60.1136 3.28755 60.1262 3.12831 60.1482C2.97004 60.1685 2.83211 60.1979 2.71325 60.2305C2.57404 60.2712 2.4794 60.3358 2.43256 60.425C2.38346 60.5154 2.36085 60.6165 2.36085 60.7254V65.8669C2.36085 65.9758 2.38669 66.0736 2.43999 66.1592C2.49264 66.2445 2.58534 66.3127 2.71325 66.3621C2.79077 66.3899 2.91739 66.4183 3.0931 66.4496C3.26688 66.4819 3.41513 66.4987 3.53884 66.5023L3.53852 66.8579ZM10.6694 66.8579H8.00015V66.5278C8.0851 66.5216 8.1791 66.5139 8.27923 66.5071C8.38129 66.5006 8.46431 66.4868 8.53181 66.4664C8.63453 66.4373 8.7114 66.3847 8.7605 66.3094C8.81153 66.2345 8.8364 66.1366 8.8364 66.0174V63.4777C8.8364 63.1275 8.7437 62.8581 8.56282 62.6685C8.37936 62.4786 8.15713 62.383 7.89679 62.383C7.69976 62.383 7.52049 62.4101 7.35867 62.4651C7.19814 62.5193 7.05279 62.5878 6.92811 62.6685C6.80795 62.7454 6.70943 62.8271 6.63837 62.9163C6.58165 62.9832 6.52932 63.0538 6.48172 63.1275V65.9674C6.48172 66.0804 6.50562 66.1747 6.55859 66.2484C6.6093 66.3217 6.68682 66.3776 6.79051 66.417C6.86803 66.4509 6.95072 66.4751 7.04148 66.4922C7.13257 66.5087 7.22462 66.5213 7.3212 66.5278V66.8582H4.65126V66.5278C4.73589 66.5216 4.82245 66.5139 4.91322 66.5071C5.00366 66.5006 5.08118 66.4868 5.14901 66.4664C5.25108 66.4373 5.32892 66.3847 5.37705 66.3094C5.42873 66.2345 5.45296 66.1366 5.45296 66.0174V62.9689C5.45296 62.8543 5.42647 62.7499 5.37156 62.6559C5.31853 62.5606 5.24204 62.4803 5.14933 62.4227C5.07956 62.383 4.99655 62.3536 4.89998 62.3352C4.8034 62.3168 4.69971 62.3042 4.59086 62.2974V61.9725L6.40387 61.862L6.48139 61.9318V62.6272H6.50724C6.59606 62.5487 6.7075 62.4512 6.83993 62.3404C6.97204 62.2289 7.09801 62.1369 7.21526 62.0668C7.36854 61.9799 7.5322 61.9127 7.70234 61.8669C7.90962 61.8115 8.12348 61.7846 8.33801 61.7871C8.86031 61.7871 9.24952 61.9357 9.50179 62.2289C9.75502 62.5248 9.8797 62.9182 9.8797 63.4079V65.9758C9.8797 66.0943 9.90231 66.188 9.94753 66.2597C9.99114 66.3317 10.0664 66.3882 10.1736 66.427C10.2625 66.4616 10.3377 66.4832 10.4023 66.4971C10.4663 66.511 10.557 66.5213 10.6694 66.5278V66.8579ZM17.5833 66.7674L15.6818 66.8779L15.5985 66.8078V66.3466L15.5549 66.3372C15.3623 66.5323 15.1269 66.6893 14.8436 66.814C14.5626 66.9377 14.2719 66.999 13.9734 66.999C13.6643 66.9987 13.3586 66.9345 13.0755 66.8104C12.7901 66.6884 12.533 66.5086 12.3206 66.2823C12.0965 66.0414 11.9211 65.7596 11.8038 65.4522C11.6772 65.1279 11.6133 64.7706 11.6133 64.3808C11.6118 64.0318 11.681 63.6861 11.8167 63.3646C11.95 63.051 12.1416 62.7656 12.3814 62.5235C12.6058 62.2997 12.881 62.122 13.2079 61.9873C13.5243 61.856 13.8634 61.7881 14.206 61.7877C14.4605 61.7877 14.7096 61.8168 14.9554 61.8749C15.2002 61.9344 15.4114 62.0077 15.5872 62.0984V60.3817C15.5872 60.2409 15.5623 60.1126 15.5096 59.9986C15.4659 59.8913 15.391 59.7996 15.2945 59.7354C15.1912 59.6721 15.0529 59.6265 14.8775 59.5968C14.6897 59.5683 14.5008 59.5479 14.3113 59.5354V59.2247L16.5384 59.1104L16.6208 59.1853V65.8417C16.6208 65.9596 16.6453 66.0588 16.6967 66.1408C16.7451 66.2216 16.8191 66.2913 16.9153 66.3475C16.9851 66.3892 17.0852 66.4125 17.219 66.4225C17.3514 66.4322 17.4719 66.4399 17.5833 66.4435V66.7684V66.7674ZM15.5872 65.9005V63.0135C15.5519 62.9143 15.5036 62.8201 15.4437 62.7335C15.3745 62.6299 15.2905 62.5371 15.1944 62.4579C15.0806 62.3697 14.9539 62.2996 14.8187 62.2499C14.6756 62.1953 14.5077 62.1679 14.3171 62.1679C14.0946 62.1679 13.8907 62.2189 13.706 62.3229C13.5193 62.4253 13.3552 62.5749 13.2118 62.768C13.0735 62.9554 12.9663 63.1928 12.8869 63.4812C12.808 63.7703 12.768 64.0894 12.768 64.4402C12.768 64.7203 12.7987 64.9751 12.8568 65.2041C12.915 65.4331 13.0151 65.6453 13.1549 65.8411C13.2833 66.0279 13.4532 66.1824 13.6514 66.2923C13.851 66.405 14.0887 66.4635 14.3665 66.4635C14.6605 66.4635 14.9059 66.4037 15.0985 66.2868C15.2787 66.1816 15.4432 66.0516 15.5872 65.9005ZM24.2307 66.7674L22.4545 66.8779L22.3721 66.8078V66.1812H22.3398C22.2513 66.2652 22.1515 66.355 22.0394 66.4496C21.9228 66.5498 21.7951 66.6365 21.6589 66.708C21.5061 66.7926 21.3449 66.8611 21.178 66.9125C21.0223 66.96 20.8036 66.9822 20.521 66.9822C20.0375 66.9822 19.6702 66.8408 19.4173 66.5559C19.1663 66.2697 19.0394 65.855 19.0394 65.3113V62.9483C19.0394 62.8284 19.0136 62.728 18.9641 62.6463C18.9094 62.5586 18.8344 62.4852 18.7455 62.4324C18.6686 62.3898 18.5851 62.3605 18.4984 62.3459C18.3942 62.3267 18.2889 62.314 18.1831 62.3078V61.9815L20.0003 61.862L20.0837 61.9318V65.3608C20.0837 65.7187 20.1718 65.9864 20.3492 66.1676C20.5268 66.3466 20.7381 66.4373 20.9855 66.4373C21.1867 66.4373 21.3682 66.4083 21.5262 66.3514C21.6845 66.2959 21.8172 66.229 21.9245 66.1521C22.0246 66.0824 22.1112 66.0071 22.1871 65.9302C22.263 65.8514 22.3211 65.7778 22.3605 65.7115V62.9131C22.3605 62.8032 22.3366 62.706 22.283 62.6207C22.2296 62.5325 22.1561 62.4581 22.0685 62.4037C22.0023 62.3623 21.9044 62.3384 21.772 62.33C21.6255 62.3212 21.479 62.3137 21.3324 62.3074V61.9812L23.3118 61.862L23.3948 61.9318V65.8514C23.3948 65.9658 23.4216 66.0614 23.472 66.1421C23.5243 66.2222 23.597 66.2907 23.6887 66.3466C23.7552 66.3847 23.834 66.4079 23.9248 66.4205C24.0175 66.4299 24.1189 66.4393 24.2304 66.4425L24.2307 66.7674ZM28.7702 64.4402C28.9207 64.5597 29.0383 64.698 29.1193 64.8553C29.2001 65.0126 29.2398 65.2041 29.2398 65.4312C29.2398 65.8886 29.0515 66.2613 28.6739 66.552C28.297 66.8427 27.806 66.9877 27.2062 66.9877C26.8887 66.9877 26.5964 66.9367 26.3299 66.832C26.0624 66.7297 25.8719 66.634 25.7562 66.5468L25.6477 66.8731H25.2326L25.1774 65.156H25.5586C25.5889 65.2858 25.6509 65.438 25.7472 65.6101C25.8415 65.7845 25.9588 65.9422 26.0944 66.0824C26.2382 66.229 26.4116 66.3514 26.6115 66.4528C26.8137 66.5523 27.0382 66.603 27.2889 66.603C27.6442 66.603 27.9149 66.5297 28.1077 66.3847C28.2983 66.2393 28.3939 66.0326 28.3939 65.7603C28.3939 65.6208 28.3648 65.5016 28.3044 65.3986C28.236 65.2902 28.1443 65.1985 28.036 65.1301C27.8944 65.045 27.7438 64.9757 27.587 64.9234C27.4094 64.8621 27.2139 64.8007 26.9962 64.7413C26.8006 64.6861 26.6077 64.6214 26.4184 64.5475C26.2059 64.4657 26.0247 64.3701 25.8738 64.259C25.7134 64.1446 25.5779 63.9987 25.4755 63.8304C25.3719 63.6592 25.3215 63.4596 25.3215 63.229C25.3215 62.8252 25.4872 62.4825 25.8189 62.2018C26.1509 61.9211 26.5944 61.7819 27.1513 61.7819C27.3645 61.7819 27.5828 61.8071 27.806 61.8568C28.0289 61.9079 28.2098 61.9683 28.3512 62.038L28.4772 61.7764H28.8764L28.9588 63.3636H28.5777C28.5001 63.01 28.3322 62.7231 28.0757 62.5012C27.8212 62.2784 27.5079 62.1679 27.14 62.1679C26.8376 62.1679 26.6002 62.236 26.4261 62.3727C26.252 62.5093 26.1658 62.675 26.1658 62.8682C26.1658 63.0184 26.1942 63.1437 26.2527 63.2445C26.3099 63.343 26.3948 63.4286 26.5095 63.4983C26.6209 63.5652 26.7582 63.6282 26.9261 63.687C27.0944 63.7448 27.3021 63.811 27.5495 63.8843C27.7928 63.9547 28.0211 64.0371 28.2359 64.1295C28.4533 64.2232 28.6306 64.3275 28.7702 64.4402ZM33.7044 66.6424C33.464 66.7329 33.2376 66.8078 33.0248 66.8695C32.8093 66.9315 32.5493 66.9632 32.2399 66.9632C31.7831 66.9632 31.4611 66.8582 31.2757 66.6489C31.0887 66.4409 30.9963 66.147 30.9963 65.7658V62.4227H30.0111V61.9421H31.017V60.4059H32.0247V61.9421H33.589V62.4227H32.0344V65.1818C32.0344 65.3885 32.0435 65.561 32.0603 65.6996C32.0755 65.8375 32.1155 65.959 32.1795 66.0614C32.2376 66.1592 32.3264 66.2326 32.4437 66.2816C32.5622 66.3317 32.7208 66.3569 32.9195 66.3569C33.0115 66.3569 33.1472 66.3505 33.3245 66.3349C33.5041 66.3191 33.6301 66.3007 33.7044 66.2765V66.6424ZM38.6925 62.5574C38.6925 62.728 38.6456 62.8782 38.5549 63.0119C38.4622 63.1437 38.321 63.208 38.1285 63.208C37.9224 63.208 37.7642 63.1605 37.6569 63.0629C37.5471 62.9673 37.4928 62.8594 37.4928 62.7435C37.4928 62.6702 37.5003 62.603 37.5119 62.5439C37.5248 62.4825 37.5377 62.4227 37.5474 62.3623C37.3753 62.3623 37.1718 62.4253 36.9399 62.5519C36.7032 62.6838 36.5007 62.8693 36.3488 63.0936V65.9674C36.3488 66.084 36.3736 66.1793 36.4231 66.2516C36.4738 66.3249 36.5513 66.3811 36.6589 66.417C36.7509 66.4509 36.8694 66.4751 37.0154 66.4922C37.1608 66.5087 37.2868 66.5213 37.3924 66.5278V66.8582H34.5186V66.5278C34.6036 66.5216 34.6898 66.5139 34.7812 66.5071C34.8717 66.5006 34.9492 66.4868 35.017 66.4664C35.1191 66.4373 35.196 66.3847 35.2454 66.3094C35.2961 66.2345 35.321 66.1366 35.321 66.0174V62.9689C35.321 62.8646 35.2938 62.7642 35.2402 62.6631C35.1866 62.5623 35.111 62.4822 35.0167 62.4227C34.9389 62.3801 34.8547 62.3506 34.7674 62.3352C34.6654 62.3159 34.5622 62.3032 34.4586 62.2974V61.9725L36.2719 61.862L36.3488 61.9318V62.6272H36.3753C36.6036 62.3572 36.8585 62.1521 37.1395 62.0122C37.4189 61.8723 37.6757 61.8023 37.9079 61.8023C38.1401 61.8023 38.3285 61.8704 38.4741 62.007C38.6185 62.1437 38.6925 62.3284 38.6925 62.5574ZM42.0772 66.8579H39.4415V66.5278C39.5261 66.5216 39.6127 66.5139 39.7032 66.5071C39.7946 66.5006 39.8711 66.4868 39.9373 66.4664C40.0417 66.4373 40.1189 66.3847 40.1676 66.3094C40.217 66.2345 40.2432 66.1366 40.2432 66.0174V62.9689C40.2432 62.8617 40.2148 62.7642 40.1625 62.675C40.1065 62.5838 40.0293 62.5075 39.9373 62.4528C39.8679 62.4121 39.7674 62.3775 39.634 62.3501C39.5139 62.3233 39.3919 62.3057 39.269 62.2974V61.9725L41.1941 61.862L41.2717 61.9318V65.9574C41.2717 66.0736 41.2965 66.1712 41.3446 66.2481C41.3944 66.3233 41.4735 66.3811 41.5808 66.417C41.6622 66.448 41.7413 66.4719 41.8185 66.4903C41.896 66.5071 41.981 66.5213 42.0772 66.5278V66.8579ZM41.3815 59.9159C41.3815 60.1049 41.3136 60.2712 41.1738 60.4127C41.1081 60.482 41.0287 60.5369 40.9406 60.5737C40.8525 60.6105 40.7576 60.6285 40.6621 60.6265C40.5712 60.627 40.481 60.6093 40.397 60.5743C40.313 60.5394 40.2369 60.4879 40.1731 60.423C40.0358 60.2883 39.9661 60.1327 39.9661 59.9598C39.9661 59.7761 40.0358 59.6168 40.1731 59.4805C40.3117 59.3432 40.4758 59.2748 40.6621 59.2748C40.8734 59.2748 41.0455 59.3384 41.1789 59.4666C41.3133 59.5958 41.3815 59.7447 41.3815 59.9156M47.8615 65.696C47.6413 66.0825 47.326 66.4064 46.9455 66.637C46.5618 66.8715 46.1202 66.9877 45.6244 66.9877C45.1851 66.9877 44.8014 66.9176 44.4713 66.7778C44.1412 66.637 43.8699 66.448 43.6557 66.2067C43.4401 65.9622 43.2772 65.6759 43.177 65.3656C43.0717 65.0375 43.0188 64.6947 43.0204 64.3501C43.0204 64.03 43.0766 63.7154 43.1883 63.4063C43.2993 63.0995 43.4677 62.8167 43.6845 62.5729C43.8941 62.3371 44.1544 62.1456 44.4655 61.9999C44.7772 61.8549 45.1264 61.7816 45.5133 61.7816C45.9113 61.7816 46.253 61.8378 46.5363 61.9521C46.8205 62.0652 47.0508 62.2205 47.2262 62.4173C47.3961 62.6046 47.5227 62.8252 47.6061 63.0788C47.6891 63.3326 47.7301 63.6082 47.7301 63.904V64.2351H44.1205C44.1205 64.5581 44.1544 64.8517 44.2226 65.1153C44.2901 65.3802 44.3977 65.6101 44.5469 65.8123C44.694 66.0086 44.8871 66.1657 45.1092 66.2697C45.3412 66.3811 45.6189 66.4373 45.9397 66.4373C46.2678 66.4373 46.5508 66.3672 46.7882 66.229C47.0246 66.0908 47.2549 65.8411 47.4756 65.4806L47.8615 65.696ZM46.6409 63.8146C46.6409 63.6272 46.6241 63.427 46.5886 63.2135C46.5524 62.9999 46.4981 62.822 46.4206 62.6779C46.3367 62.5261 46.2169 62.3972 46.0718 62.3023C45.9248 62.2054 45.7339 62.1572 45.5017 62.1572C45.1151 62.1572 44.7937 62.3026 44.5378 62.5949C44.2814 62.8866 44.1428 63.2939 44.1205 63.8146H46.6409ZM52.3635 64.4402C52.515 64.5597 52.632 64.698 52.713 64.8553C52.7941 65.0126 52.8338 65.2041 52.8338 65.4312C52.8338 65.8886 52.6452 66.2613 52.2676 66.552C51.8907 66.8427 51.4 66.9877 50.7996 66.9877C50.483 66.9877 50.1901 66.9367 49.9242 66.832C49.6565 66.7297 49.4656 66.634 49.3506 66.5468L49.2414 66.8731H48.8264L48.7714 65.156H49.1526C49.1823 65.2858 49.2456 65.438 49.3415 65.6101C49.4359 65.7845 49.5521 65.9422 49.6884 66.0824C49.8322 66.229 50.005 66.3514 50.2052 66.4528C50.4071 66.5523 50.6316 66.603 50.8829 66.603C51.2376 66.603 51.5092 66.5297 51.7014 66.3847C51.8926 66.2393 51.9885 66.0326 51.9885 65.7603C51.9885 65.6208 51.9582 65.5016 51.8981 65.3986C51.8299 65.2902 51.7383 65.1985 51.63 65.1301C51.4884 65.045 51.3378 64.9757 51.181 64.9234C51.0034 64.8621 50.807 64.8007 50.5906 64.7413C50.395 64.6861 50.2023 64.6215 50.0131 64.5475C49.7992 64.4657 49.6187 64.3701 49.4672 64.259C49.3071 64.1444 49.1719 63.9986 49.0696 63.8304C48.9656 63.6592 48.9145 63.4596 48.9145 63.229C48.9145 62.8252 49.0806 62.4825 49.4129 62.2018C49.745 61.9211 50.1881 61.7819 50.745 61.7819C50.9582 61.7819 51.1772 61.8071 51.4 61.8568C51.6226 61.9079 51.8038 61.9683 51.9449 62.038L52.0716 61.7764H52.4698L52.5528 63.3636H52.1714C52.0938 63.01 51.9259 62.7231 51.6691 62.5012C51.4149 62.2784 51.1013 62.1679 50.734 62.1679C50.4314 62.1679 50.1936 62.236 50.0202 62.3727C49.8467 62.5093 49.7598 62.675 49.7598 62.8682C49.7598 63.0184 49.7883 63.1437 49.8467 63.2445C49.9036 63.343 49.9888 63.4286 50.1035 63.4983C50.2149 63.5652 50.3522 63.6282 50.5202 63.687C50.6881 63.7448 50.8961 63.811 51.1432 63.8843C51.3868 63.9547 51.6148 64.0371 51.8303 64.1295C52.0473 64.2232 52.2243 64.3275 52.3635 64.4402ZM62.8304 64.7461L62.6647 66.8582H56.5342V66.5023C56.6227 66.4945 56.7509 66.4832 56.9188 66.4667C57.0868 66.4506 57.2041 66.4283 57.27 66.4021C57.3798 66.3585 57.4605 66.2955 57.5096 66.2119C57.5603 66.1279 57.5846 66.0226 57.5846 65.8921V60.8061C57.5846 60.6931 57.5645 60.5926 57.5206 60.5057C57.4796 60.4179 57.3946 60.3481 57.27 60.2958C57.1847 60.2557 57.0665 60.2166 56.913 60.1769C56.7888 60.1446 56.6622 60.1224 56.5345 60.1104V59.7551H59.8453V60.1104C59.7419 60.1136 59.6098 60.1294 59.4457 60.1601C59.2813 60.1908 59.1624 60.2166 59.0891 60.2402C58.9625 60.2799 58.8779 60.3481 58.8304 60.4456C58.7852 60.5425 58.7626 60.6453 58.7626 60.7564V65.5268C58.7626 65.7464 58.7738 65.9176 58.7984 66.0394C58.8223 66.1612 58.8779 66.2545 58.9664 66.3233C59.0516 66.3831 59.1776 66.4218 59.3456 66.4393C59.5135 66.458 59.7471 66.4664 60.0497 66.4664C60.187 66.4664 60.3285 66.4651 60.4761 66.4587C60.6169 66.4518 60.7574 66.4381 60.8969 66.4176C61.0176 66.399 61.1366 66.3716 61.2532 66.3356C61.3611 66.2994 61.4419 66.2552 61.4922 66.2019C61.6437 66.0484 61.8191 65.8159 62.021 65.5052C62.2213 65.1928 62.3611 64.9399 62.4383 64.7467H62.8304V64.7461ZM66.1435 66.8579H63.5081V66.5278C63.5927 66.5216 63.6796 66.5139 63.7704 66.5071C63.8608 66.5006 63.9383 66.4868 64.0042 66.4664C64.1079 66.4373 64.1851 66.3847 64.2339 66.3094C64.2833 66.2345 64.3091 66.1366 64.3091 66.0174V62.9689C64.3091 62.8617 64.2817 62.7642 64.2284 62.675C64.1729 62.5838 64.0959 62.5075 64.0042 62.4528C63.9341 62.4121 63.8343 62.3775 63.7 62.3501C63.58 62.3234 63.4582 62.3058 63.3356 62.2974V61.9725L65.2607 61.862L65.3382 61.9318V65.9574C65.3382 66.0736 65.3625 66.1712 65.4116 66.2481C65.4606 66.3233 65.5398 66.3811 65.6473 66.417C65.7287 66.448 65.8076 66.4719 65.8848 66.4903C65.9623 66.5071 66.0472 66.5213 66.1438 66.5278L66.1435 66.8579ZM65.4474 59.9159C65.4474 60.1049 65.3796 60.2712 65.2397 60.4127C65.1021 60.5548 64.9325 60.6265 64.7287 60.6265C64.5414 60.6265 64.3773 60.558 64.2397 60.423C64.1021 60.2883 64.0323 60.1327 64.0323 59.9598C64.0323 59.7761 64.1021 59.6168 64.2397 59.4805C64.3029 59.4148 64.3789 59.3626 64.463 59.3272C64.5471 59.2918 64.6375 59.274 64.7287 59.2748C64.94 59.2748 65.1115 59.3384 65.2455 59.4666C65.3796 59.5958 65.4474 59.7447 65.4474 59.9156M76.423 66.8579H73.7647V66.5278C73.8493 66.5216 73.9343 66.5139 74.0209 66.5071C74.1081 66.5006 74.1849 66.4868 74.2512 66.4664C74.3552 66.4373 74.4304 66.3847 74.4798 66.3094C74.5302 66.2345 74.5554 66.1366 74.5554 66.0174V63.4696C74.5554 63.1207 74.4682 62.854 74.2931 62.6643C74.1174 62.477 73.8984 62.3827 73.6381 62.3827C73.4569 62.3827 73.2873 62.4082 73.129 62.4576C72.9708 62.507 72.8248 62.5778 72.6927 62.6682C72.5932 62.7347 72.5032 62.8143 72.4252 62.905C72.3509 62.9912 72.2983 63.061 72.2605 63.1188V65.967C72.2605 66.0836 72.2831 66.1789 72.3267 66.2545C72.3719 66.3295 72.4472 66.3879 72.5535 66.4267C72.6381 66.4577 72.7156 66.4803 72.7831 66.4948C72.8509 66.509 72.9398 66.521 73.0515 66.5275V66.8579H70.4475V66.5275C70.5324 66.5213 70.6154 66.5136 70.6946 66.5068C70.7737 66.5003 70.8454 66.4864 70.9116 66.4661C71.0153 66.437 71.0906 66.3844 71.1419 66.3091C71.1904 66.2342 71.2156 66.1363 71.2156 66.0171V63.4696C71.2156 63.1207 71.1284 62.854 70.9527 62.6643C70.7776 62.477 70.5605 62.3827 70.2986 62.3827C70.1167 62.3827 69.9488 62.4082 69.7905 62.4596C69.6322 62.5125 69.4853 62.5823 69.3525 62.6727C69.2456 62.7464 69.1571 62.8278 69.0831 62.9208C69.0101 63.0132 68.9529 63.0813 68.9171 63.1275V65.957C68.9171 66.0701 68.9413 66.1657 68.9946 66.2426C69.0453 66.3194 69.1222 66.3773 69.2272 66.4167C69.304 66.4506 69.3829 66.4748 69.4639 66.4919C69.5453 66.5084 69.6361 66.521 69.7346 66.5275V66.8579H67.0866V66.5275C67.1716 66.5213 67.2582 66.5136 67.3489 66.5068C67.439 66.5003 67.5169 66.4864 67.5847 66.4661C67.6865 66.437 67.7636 66.3844 67.8134 66.3091C67.8638 66.2342 67.8887 66.1363 67.8887 66.0171V62.9479C67.8901 62.8458 67.8618 62.7455 67.8073 62.6592C67.7498 62.5715 67.6738 62.4974 67.5847 62.4421C67.5027 62.3983 67.4151 62.3657 67.3244 62.3452C67.2192 62.3194 67.1118 62.3033 67.0036 62.2971V61.9722L68.8279 61.8617L68.9055 61.9315V62.6375H68.9426C69.0356 62.5536 69.1487 62.4557 69.2811 62.3417C69.4132 62.2286 69.5373 62.1369 69.651 62.0665C69.7805 61.9864 69.9417 61.9192 70.1358 61.8665C70.3401 61.812 70.5509 61.7852 70.7624 61.7867C71.1167 61.7867 71.4207 61.874 71.6752 62.0448C71.9281 62.2167 72.1109 62.424 72.223 62.6682C72.3545 62.55 72.4717 62.4476 72.5738 62.3604C72.6733 62.2719 72.8077 62.1779 72.9734 62.0765C73.1275 61.9834 73.2941 61.9127 73.4682 61.8665C73.6749 61.8115 73.8881 61.7847 74.1019 61.7867C74.5625 61.7867 74.9262 61.9227 75.1966 62.197C75.4643 62.4715 75.6003 62.8914 75.6003 63.4593V65.967C75.6003 66.0836 75.6207 66.1789 75.6659 66.2545C75.7095 66.3295 75.7848 66.3879 75.8927 66.4267C75.9779 66.4577 76.0606 66.4803 76.144 66.4948C76.227 66.509 76.3206 66.521 76.4227 66.5275L76.423 66.8579ZM79.9793 66.8579H77.3436V66.5278C77.4285 66.5216 77.5154 66.5139 77.6059 66.5071C77.6963 66.5006 77.7738 66.4868 77.84 66.4664C77.9437 66.4373 78.0209 66.3847 78.0697 66.3094C78.1191 66.2345 78.1456 66.1366 78.1456 66.0174V62.9689C78.1456 62.8617 78.1175 62.7642 78.0639 62.675C78.0084 62.5839 77.9316 62.5076 77.84 62.4528C77.7699 62.4121 77.6701 62.3775 77.5364 62.3501C77.4164 62.3233 77.2945 62.3057 77.1717 62.2974V61.9725L79.0965 61.862L79.174 61.9318V65.9574C79.174 66.0736 79.1986 66.1712 79.2474 66.2481C79.2968 66.3233 79.3759 66.3811 79.4831 66.417C79.5642 66.448 79.6434 66.4719 79.7215 66.4903C79.7984 66.5071 79.8833 66.5213 79.9793 66.5278V66.8579ZM79.2835 59.9159C79.2835 60.1049 79.2157 60.2712 79.0752 60.4127C79.0098 60.4821 78.9305 60.537 78.8426 60.5738C78.7546 60.6106 78.6599 60.6286 78.5645 60.6265C78.4736 60.627 78.3835 60.6093 78.2995 60.5743C78.2156 60.5394 78.1395 60.4879 78.0758 60.423C77.9379 60.2883 77.8685 60.1327 77.8685 59.9598C77.8685 59.7761 77.9379 59.6168 78.0758 59.4805C78.1391 59.4149 78.215 59.3628 78.299 59.3274C78.383 59.292 78.4734 59.2741 78.5645 59.2748C78.7761 59.2748 78.9476 59.3384 79.0813 59.4666C79.216 59.5958 79.2835 59.7447 79.2835 59.9156M84.2888 66.6424C84.0494 66.7329 83.8233 66.8078 83.6098 66.8695C83.3947 66.9315 83.1337 66.9632 82.8249 66.9632C82.3682 66.9632 82.0455 66.8582 81.8608 66.6489C81.6741 66.4409 81.5814 66.147 81.5814 65.7658V62.4227H80.5962V61.9421H81.602V60.4059H82.6095V61.9421H84.1738V62.4227H82.6192V65.1818C82.6192 65.3885 82.6289 65.561 82.6453 65.6996C82.6608 65.8375 82.7002 65.959 82.7648 66.0614C82.823 66.1592 82.9118 66.2326 83.0281 66.2816C83.1476 66.3317 83.3059 66.3569 83.5042 66.3569C83.5966 66.3569 83.7322 66.3505 83.9096 66.3349C84.0891 66.3191 84.2154 66.3007 84.2888 66.2765V66.6424ZM89.9455 65.696C89.7248 66.0826 89.409 66.4065 89.0282 66.637C88.6458 66.8715 88.2042 66.9877 87.7077 66.9877C87.2678 66.9877 86.8854 66.9176 86.5553 66.7778C86.2245 66.637 85.9529 66.448 85.7397 66.2067C85.5234 65.9625 85.3601 65.6761 85.26 65.3656C85.1551 65.0374 85.1025 64.6947 85.104 64.3501C85.104 64.03 85.1606 63.7154 85.2717 63.4063C85.3832 63.0997 85.5516 62.817 85.7681 62.5729C85.9774 62.3371 86.2384 62.1456 86.5498 61.9999C86.8602 61.8549 87.2097 61.7816 87.5963 61.7816C87.9946 61.7816 88.336 61.8378 88.6193 61.9521C88.9045 62.0652 89.1348 62.2205 89.3095 62.4173C89.4797 62.6046 89.6054 62.8252 89.689 63.0788C89.7721 63.3326 89.8137 63.6082 89.8137 63.904V64.2351H86.2032C86.2032 64.5581 86.2384 64.8517 86.3059 65.1153C86.3737 65.3802 86.4813 65.6101 86.6302 65.8123C86.7773 66.0085 86.9703 66.1655 87.1922 66.2697C87.4242 66.3811 87.7019 66.4373 88.0227 66.4373C88.3508 66.4373 88.6348 66.3672 88.8722 66.229C89.108 66.0908 89.3379 65.8411 89.5589 65.4806L89.9455 65.696ZM88.7246 63.8146C88.7246 63.6272 88.7081 63.427 88.6719 63.2135C88.6364 62.9999 88.5815 62.822 88.5039 62.6779C88.42 62.5262 88.3002 62.3972 88.1551 62.3023C88.0078 62.2054 87.8172 62.1572 87.5853 62.1572C87.1977 62.1572 86.8776 62.3026 86.6205 62.5949C86.3644 62.8866 86.2265 63.2939 86.2032 63.8146H88.7246ZM96.819 66.7674L94.9172 66.8779L94.8338 66.8078V66.3466L94.7912 66.3372C94.5984 66.5323 94.3626 66.6893 94.0793 66.814C93.7983 66.9377 93.5076 66.999 93.2098 66.999C92.8997 66.999 92.6003 66.9354 92.3112 66.8104C92.0259 66.6886 91.769 66.5087 91.557 66.2823C91.3325 66.0416 91.1569 65.7597 91.0398 65.4522C90.9129 65.1279 90.8493 64.7706 90.8493 64.3808C90.8493 64.0239 90.9171 63.686 91.0531 63.3646C91.1861 63.051 91.3774 62.7656 91.617 62.5235C91.8412 62.2997 92.1171 62.122 92.4433 61.9873C92.7599 61.856 93.0992 61.7882 93.442 61.7877C93.6965 61.7877 93.9453 61.8168 94.1907 61.8749C94.4362 61.9344 94.6475 62.0077 94.8225 62.0984V60.3817C94.8225 60.2409 94.798 60.1126 94.7456 59.9986C94.6946 59.8823 94.6229 59.7951 94.5305 59.7354C94.4268 59.6721 94.2892 59.6265 94.1132 59.5968C93.9256 59.5684 93.7369 59.5479 93.5476 59.5354V59.2247L95.7738 59.1104L95.8568 59.1853V65.8417C95.8568 65.9596 95.881 66.0588 95.933 66.1408C95.9811 66.2216 96.0548 66.2913 96.1507 66.3475C96.2208 66.3892 96.3209 66.4125 96.4553 66.4225C96.5871 66.4322 96.7082 66.4399 96.819 66.4435V66.7684V66.7674ZM94.8225 65.9005V63.0135C94.7951 62.9263 94.7457 62.8336 94.6794 62.7335C94.6105 62.6299 94.5265 62.537 94.4304 62.4579C94.3165 62.3697 94.1897 62.2996 94.0544 62.2499C93.9113 62.1953 93.7434 62.1679 93.5528 62.1679C93.3299 62.1679 93.1264 62.2189 92.942 62.3229C92.7547 62.4253 92.5906 62.5749 92.4472 62.768C92.3092 62.9554 92.2017 63.1928 92.1229 63.4812C92.0437 63.7703 92.0034 64.0894 92.0034 64.4402C92.0034 64.7203 92.034 64.9751 92.0928 65.2041C92.1507 65.4331 92.2511 65.6453 92.3903 65.8411C92.5188 66.0277 92.6887 66.1821 92.8868 66.2923C93.087 66.405 93.3248 66.4635 93.6019 66.4635C93.8958 66.4635 94.1416 66.4037 94.3341 66.2868C94.5143 66.1817 94.6788 66.0517 94.8225 65.9005Z" fill="#1F1917"/>
</svg>
