<svg width="64" height="64" viewBox="0 0 64 64" fill="none" xmlns="http://www.w3.org/2000/svg">
<rect width="64" height="64" fill="white"/>
<path d="M37.1245 41.3293C37.8372 41.0293 38.5141 40.6522 39.1431 40.2049L40.2843 41.2112C39.4517 41.8398 38.5389 42.3568 37.5695 42.7489L37.9622 44L35.4327 42.6825L36.7639 40.1791L37.1245 41.3293Z" fill="#3E96F4"/>
<path d="M23.9305 30.7041L22.7223 30.4225C22.6585 30.884 22.6261 31.3492 22.6253 31.815C22.6286 34.5555 23.7304 37.1827 25.689 39.1201C27.6475 41.0574 30.3027 42.1466 33.0718 42.1486L32.9276 43.6248C31.2245 43.6045 29.5454 43.2236 28.0033 42.5077C26.4613 41.7918 25.092 40.7574 23.9874 39.4742C22.8829 38.191 22.0686 36.6887 21.5996 35.0681C21.1305 33.4477 21.0175 31.7466 21.2679 30.0793L20 29.7828L22.4265 28.2979L23.9305 30.7041Z" fill="#3E96F4"/>
<path d="M35.4971 29.025H34.3921C34.5557 29.2872 34.6617 29.5806 34.7029 29.8861H35.7905L35.4909 31.0203H34.6917C34.6297 31.477 34.4275 31.9039 34.1124 32.2432C33.7533 32.5925 33.3081 32.8427 32.8209 32.9689L35.0285 35.6483V35.7283H32.9861L30.4902 32.782V31.7424H31.773C32.2913 31.7326 32.6269 31.4915 32.7786 31.0228H30.3323L30.6319 29.8873H32.7363C32.576 29.5478 32.2652 29.3694 31.8003 29.3546H30.3373L30.6903 27.8957H35.8017L35.4971 29.025Z" fill="#3E96F4"/>
<path fill-rule="evenodd" clip-rule="evenodd" d="M31.9073 24.1479C33.8068 23.8666 35.7446 24.2859 37.3521 25.3261C38.9596 26.3663 40.1248 27.9549 40.6261 29.7897C41.1274 31.6246 40.93 33.5778 40.0712 35.278C40.127 35.3159 40.1806 35.357 40.2316 35.401L43.65 38.415H43.6513C43.8319 38.5697 43.9796 38.7585 44.0859 38.9702C44.1921 39.1819 44.2548 39.4123 44.2703 39.6482C44.2857 39.8841 44.2537 40.1207 44.1759 40.3443C44.0982 40.5678 43.9763 40.7738 43.8174 40.9504C43.6585 41.1269 43.4656 41.2704 43.2502 41.3725C43.0348 41.4746 42.801 41.5334 42.5624 41.5453C42.3239 41.5572 42.0852 41.522 41.8605 41.4418C41.6358 41.3617 41.4295 41.2381 41.2535 41.0783L37.8351 38.0643C37.814 38.0459 37.7953 38.025 37.7754 38.0053C36.2407 39.1483 34.3352 39.6932 32.4211 39.5366C30.507 39.3799 28.7179 38.5326 27.3938 37.1557C26.0697 35.7789 25.303 33.9684 25.2396 32.0687C25.1762 30.169 25.8204 28.3123 27.0498 26.8519C28.2791 25.3916 30.0079 24.4293 31.9073 24.1479ZM35.3025 26.4733C34.235 26.0357 33.0603 25.9211 31.927 26.1442C30.7937 26.3673 29.7526 26.9179 28.9356 27.7265C28.1185 28.5351 27.5622 29.5655 27.3367 30.687C27.1113 31.8086 27.2269 32.9712 27.6691 34.0277C28.1113 35.0841 28.8601 35.9871 29.8209 36.6225C30.7816 37.2578 31.9112 37.5969 33.0667 37.5969C34.6157 37.5953 36.1008 36.9856 37.1961 35.9017C38.2914 34.8177 38.9074 33.3479 38.909 31.815C38.909 30.6715 38.5664 29.5536 37.9244 28.6028C37.2825 27.652 36.37 26.9109 35.3025 26.4733Z" fill="#3E96F4"/>
<path d="M43.4561 25.9974C44.4454 27.7308 44.9762 29.6833 44.9992 31.674C45.0223 33.6646 44.5369 35.6288 43.5879 37.3841L42.4344 36.3667V36.3606C43.1954 34.8341 43.5622 33.1446 43.5019 31.4434C43.4415 29.7423 42.956 28.0825 42.0888 26.6125L43.4561 25.9974Z" fill="#3E96F4"/>
<path d="M30.5836 20.2607C32.2376 19.9109 33.948 19.9132 35.6011 20.2672C37.2542 20.6212 38.8124 21.319 40.1724 22.3142L41.0425 21.33L41.2289 24.1533L38.3699 24.3379L39.168 23.4373C37.3941 22.1641 35.2584 21.4794 33.0671 21.4814C31.1972 21.4846 29.3624 21.9843 27.7541 22.9283C26.1458 23.8724 24.8228 25.2263 23.9233 26.8487L22.6803 26.0134C23.5105 24.555 24.6445 23.2878 26.007 22.296C27.3696 21.3043 28.9296 20.6105 30.5836 20.2607Z" fill="#3E96F4"/>
</svg>
