<svg width="66" height="65" viewBox="0 0 66 65" fill="none" xmlns="http://www.w3.org/2000/svg">
<path fill-rule="evenodd" clip-rule="evenodd" d="M42.7335 59.99C39.6049 61.1993 36.2957 61.8753 32.9435 61.99V59.99C32.9435 59.7248 32.8382 59.4705 32.6506 59.2829C32.4631 59.0954 32.2088 58.99 31.9435 58.99C31.6783 58.99 31.424 59.0954 31.2364 59.2829C31.0489 59.4705 30.9435 59.7248 30.9435 59.99V61.99C23.3316 61.7403 16.0996 58.6047 10.7142 53.2193C5.32886 47.834 2.19331 40.602 1.94353 32.99H3.94353C4.20875 32.99 4.46309 32.8847 4.65063 32.6971C4.83816 32.5096 4.94353 32.2552 4.94353 31.99C4.94353 31.7248 4.83816 31.4705 4.65063 31.2829C4.46309 31.0954 4.20875 30.99 3.94353 30.99H1.94353C2.19331 23.3781 5.32886 16.146 10.7142 10.7607C16.0996 5.3753 23.3316 2.2398 30.9435 1.99003V3.99003C30.9435 4.25524 31.0489 4.50958 31.2364 4.69712C31.424 4.88466 31.6783 4.99003 31.9435 4.99003C32.2088 4.99003 32.4631 4.88466 32.6506 4.69712C32.8382 4.50958 32.9435 4.25524 32.9435 3.99003V1.99003C40.5617 2.22089 47.8046 5.35034 53.1939 10.7397C58.5832 16.129 61.7127 23.3719 61.9435 30.99H59.9435C59.6783 30.99 59.424 31.0954 59.2364 31.2829C59.0489 31.4705 58.9435 31.7248 58.9435 31.99C58.9435 32.2552 59.0489 32.5096 59.2364 32.6971C59.424 32.8847 59.6783 32.99 59.9435 32.99H61.9435C61.8742 35.3886 61.5115 37.7696 60.8635 40.08C60.8166 40.2093 60.7968 40.3469 60.8054 40.4842C60.8141 40.6215 60.8509 40.7556 60.9137 40.878C60.9766 41.0004 61.064 41.1085 61.1705 41.1955C61.277 41.2826 61.4003 41.3468 61.5327 41.3841C61.6651 41.4213 61.8038 41.4308 61.9401 41.412C62.0764 41.3932 62.2074 41.3465 62.3248 41.2748C62.4422 41.2031 62.5435 41.1079 62.6224 40.9953C62.7014 40.8826 62.7562 40.7549 62.7836 40.62C63.5433 37.8673 63.9334 35.0257 63.9435 32.17C63.9483 32.1101 63.9483 32.0499 63.9435 31.99C63.9539 31.9238 63.9539 31.8563 63.9435 31.79C63.9276 23.3498 60.5622 15.261 54.5866 9.30039C48.611 3.33976 40.5138 -0.00530863 32.0735 6.32401e-06H31.9835H31.9036C27.9981 -0.000434933 24.1262 0.721724 20.4835 2.13001C14.4711 4.44998 9.29935 8.53121 5.64513 13.8395C1.99092 19.1477 0.024585 25.4356 0.00353195 31.88C-0.00117732 31.9166 -0.00117732 31.9535 0.00353195 31.99C-0.00115159 32.0198 -0.00115159 32.0502 0.00353195 32.08C-0.0167058 35.9966 0.692051 39.8827 2.09356 43.54C4.4144 49.5606 8.50103 54.7389 13.8173 58.3955C19.1336 62.0522 25.4311 64.0162 31.8835 64.03H31.9835C35.9059 64.0279 39.7943 63.3024 43.4535 61.89C43.6815 61.7817 43.8601 61.5912 43.9534 61.3567C44.0468 61.1223 44.0481 60.8611 43.957 60.6258C43.8659 60.3904 43.6891 60.1982 43.4622 60.0877C43.2353 59.9772 42.975 59.9566 42.7335 60.03V59.99ZM65.7029 44.14C65.61 44.0463 65.4994 43.9719 65.3775 43.9211C65.2556 43.8704 65.1249 43.8442 64.9929 43.8442C64.8609 43.8442 64.7302 43.8704 64.6083 43.9211C64.4865 43.9719 64.3759 44.0463 64.283 44.14L51.0029 57.42L44.2429 50.66C44.0555 50.4738 43.8021 50.3693 43.538 50.3693C43.2738 50.3693 43.0203 50.4738 42.8329 50.66C42.7392 50.753 42.6648 50.8636 42.614 50.9855C42.5632 51.1073 42.5371 51.238 42.5371 51.37C42.5371 51.5021 42.5632 51.6328 42.614 51.7546C42.6648 51.8765 42.7392 51.987 42.8329 52.08L51.0029 60.2501L65.7029 45.54C65.8862 45.3531 65.9888 45.1018 65.9888 44.84C65.9888 44.5783 65.8862 44.3269 65.7029 44.14ZM31.5873 12.0032C31.7748 11.8157 32.0291 11.7103 32.2944 11.7103C32.4257 11.7049 32.5568 11.7255 32.6802 11.7709C32.8036 11.8163 32.9168 11.8855 33.0134 11.9747C33.11 12.0639 33.1881 12.1712 33.2432 12.2906C33.2982 12.4099 33.3293 12.539 33.3344 12.6703V29.6703C33.6892 29.8729 33.9933 30.1532 34.224 30.4903C34.4547 30.8275 34.6059 31.2125 34.6662 31.6165C34.7265 32.0206 34.6943 32.4331 34.5721 32.8228C34.4499 33.2126 34.2408 33.5696 33.9607 33.8669C33.6805 34.1641 33.3366 34.394 32.9547 34.5391C32.5728 34.6842 32.163 34.7407 31.7562 34.7044C31.3493 34.6682 30.9559 34.5401 30.6057 34.3298C30.2555 34.1195 29.9576 33.8325 29.7344 33.4903H21.7344C21.4692 33.4903 21.2148 33.385 21.0273 33.1974C20.8397 33.0099 20.7344 32.7555 20.7344 32.4903C20.7344 32.2251 20.8397 31.9708 21.0273 31.7832C21.2148 31.5957 21.4692 31.4903 21.7344 31.4903H29.2944C29.3934 30.9863 29.6343 30.521 29.9885 30.149C30.3428 29.7771 30.7958 29.5138 31.2944 29.3903V12.7103C31.2944 12.4451 31.3997 12.1907 31.5873 12.0032Z" fill="url(#paint0_linear_0_1872)"/>
<defs>
<linearGradient id="paint0_linear_0_1872" x1="10.4999" y1="10.5" x2="55.5" y2="54.9996" gradientUnits="userSpaceOnUse">
<stop stop-color="#FE5B52"/>
<stop offset="1" stop-color="#3E96F4"/>
</linearGradient>
</defs>
</svg>
