<svg width="42" height="43" viewBox="0 0 42 43" fill="none" xmlns="http://www.w3.org/2000/svg">
<path d="M37.4876 0.522949H4.51236C2.02472 0.522949 0 2.43838 0 4.79175V38.2542C0 40.6075 2.02472 42.5229 4.51236 42.5229H37.4876C39.9753 42.5229 42 40.6075 42 38.2542V4.79175C42 2.43838 39.9753 0.522949 37.4876 0.522949ZM40.2695 38.2542C40.2695 39.7071 39.0235 40.8858 37.4876 40.8858H4.51236C2.97651 40.8858 1.73053 39.7071 1.73053 38.2542V4.79175C1.73053 3.3388 2.97651 2.16007 4.51236 2.16007H37.4876C39.0235 2.16007 40.2695 3.3388 40.2695 4.79175V38.2542Z" fill="#3E96F4"/>
<path d="M33.962 5.56934H8.03865C6.84459 5.56934 5.87549 6.48612 5.87549 7.61574V14.3975C5.87549 15.5271 6.84459 16.4439 8.03865 16.4439H33.962C35.1561 16.4439 36.1252 15.5271 36.1252 14.3975V7.61574C36.1252 6.48612 35.1518 5.56934 33.962 5.56934ZM34.3946 14.3975C34.3946 14.6226 34.2 14.8068 33.962 14.8068H8.03865C7.8007 14.8068 7.60602 14.6226 7.60602 14.3975V7.61574C7.60602 7.39064 7.8007 7.20646 8.03865 7.20646H33.962C34.2 7.20646 34.3946 7.39064 34.3946 7.61574V14.3975ZM12.2871 19.2758H8.03865C6.84459 19.2758 5.87549 20.1925 5.87549 21.3222V25.3413C5.87549 26.4709 6.84459 27.3877 8.03865 27.3877H12.2871C13.4812 27.3877 14.4503 26.4709 14.4503 25.3413V21.3222C14.4503 20.1925 13.4812 19.2758 12.2871 19.2758ZM12.7197 25.3413C12.7197 25.5664 12.5251 25.7506 12.2871 25.7506H8.03865C7.8007 25.7506 7.60602 25.5664 7.60602 25.3413V21.3222C7.60602 21.0971 7.8007 20.9129 8.03865 20.9129H12.2871C12.5251 20.9129 12.7197 21.0971 12.7197 21.3222V25.3413ZM23.1246 19.2758H18.8761C17.682 19.2758 16.7129 20.1925 16.7129 21.3222V25.3413C16.7129 26.4709 17.682 27.3877 18.8761 27.3877H23.1246C24.3186 27.3877 25.2877 26.4709 25.2877 25.3413V21.3222C25.2877 20.1925 24.3186 19.2758 23.1246 19.2758ZM23.5572 25.3413C23.5572 25.5664 23.3625 25.7506 23.1246 25.7506H18.8761C18.6382 25.7506 18.4435 25.5664 18.4435 25.3413V21.3222C18.4435 21.0971 18.6382 20.9129 18.8761 20.9129H23.1246C23.3625 20.9129 23.5572 21.0971 23.5572 21.3222V25.3413ZM12.2871 29.737H8.03865C6.84459 29.737 5.87549 30.6538 5.87549 31.7834V35.8025C5.87549 36.9321 6.84459 37.8489 8.03865 37.8489H12.2871C13.4812 37.8489 14.4503 36.9321 14.4503 35.8025V31.7834C14.4503 30.6538 13.4812 29.737 12.2871 29.737ZM12.7197 35.8025C12.7197 36.0276 12.5251 36.2118 12.2871 36.2118H8.03865C7.8007 36.2118 7.60602 36.0276 7.60602 35.8025V31.7834C7.60602 31.5583 7.8007 31.3741 8.03865 31.3741H12.2871C12.5251 31.3741 12.7197 31.5583 12.7197 31.7834V35.8025ZM23.1246 29.737H18.8761C17.682 29.737 16.7129 30.6538 16.7129 31.7834V35.8025C16.7129 36.9321 17.682 37.8489 18.8761 37.8489H23.1246C24.3186 37.8489 25.2877 36.9321 25.2877 35.8025V31.7834C25.2877 30.6538 24.3186 29.737 23.1246 29.737ZM23.5572 35.8025C23.5572 36.0276 23.3625 36.2118 23.1246 36.2118H18.8761C18.6382 36.2118 18.4435 36.0276 18.4435 35.8025V31.7834C18.4435 31.5583 18.6382 31.3741 18.8761 31.3741H23.1246C23.3625 31.3741 23.5572 31.5583 23.5572 31.7834V35.8025ZM33.962 19.2758H29.7136C28.5195 19.2758 27.5504 20.1925 27.5504 21.3222V35.8025C27.5504 36.9321 28.5195 37.8489 29.7136 37.8489H33.962C35.1561 37.8489 36.1252 36.9321 36.1252 35.8025V21.3222C36.1252 20.1925 35.1518 19.2758 33.962 19.2758ZM34.3946 35.8025C34.3946 36.0276 34.2 36.2118 33.962 36.2118H29.7136C29.4756 36.2118 29.2809 36.0276 29.2809 35.8025V21.3222C29.2809 21.0971 29.4756 20.9129 29.7136 20.9129H33.962C34.2 20.9129 34.3946 21.0971 34.3946 21.3222V35.8025Z" fill="#3E96F4"/>
</svg>
