<svg width="20" height="20" viewBox="0 0 20 20" fill="none" xmlns="http://www.w3.org/2000/svg">
<path fill-rule="evenodd" clip-rule="evenodd" d="M5.33 0H14.669C18.07 0 19.99 1.929 20 5.33V14.67C20 18.07 18.07 20 14.669 20H5.33C1.929 20 0 18.07 0 14.67V5.33C0 1.929 1.929 0 5.33 0ZM10.0489 15.8602C10.4799 15.8602 10.8389 15.5402 10.8789 15.1102V4.92016C10.9189 4.61016 10.7699 4.29916 10.4999 4.13016C10.2189 3.96016 9.8789 3.96016 9.6099 4.13016C9.3389 4.29916 9.1899 4.61016 9.2189 4.92016V15.1102C9.2699 15.5402 9.6289 15.8602 10.0489 15.8602ZM14.65 15.86C15.07 15.86 15.429 15.54 15.48 15.11V11.83C15.509 11.509 15.36 11.21 15.089 11.04C14.82 10.87 14.48 10.87 14.2 11.04C13.929 11.21 13.78 11.509 13.82 11.83V15.11C13.86 15.54 14.219 15.86 14.65 15.86ZM6.219 15.11C6.179 15.54 5.82 15.86 5.389 15.86C4.959 15.86 4.599 15.54 4.56 15.11V8.20001C4.53 7.88901 4.679 7.58001 4.95 7.41001C5.219 7.24001 5.56 7.24001 5.83 7.41001C6.099 7.58001 6.25 7.88901 6.219 8.20001V15.11Z" fill="#505050"/>
</svg>
