<svg width="72" height="72" viewBox="0 0 72 72" fill="none" xmlns="http://www.w3.org/2000/svg">
<circle cx="36" cy="36" r="36" fill="#0FA1DB" fill-opacity="0.1"/>
<circle cx="36" cy="36" r="35.5" stroke="black" stroke-opacity="0.15"/>
<path fill-rule="evenodd" clip-rule="evenodd" d="M32.0108 15.2024C41.2813 15.2127 48.7936 22.7283 48.8037 32.002C48.8037 41.2798 41.2855 48.8013 32.0108 48.8015C22.7359 48.8015 15.2169 41.2799 15.2169 32.002C15.2169 22.724 22.7359 15.2024 32.0108 15.2024ZM43.5528 26.3868C43.8466 26.8743 44.003 27.4324 44.0059 28.0016C44.0059 29.7688 42.5733 31.2019 40.8067 31.2019C40.2376 31.1991 39.6797 31.0426 39.1924 30.7486L33.9561 35.9867C34.25 36.4743 34.4064 37.0322 34.4092 37.6015C34.4092 39.3686 32.9775 40.8017 31.211 40.8018C29.4443 40.8018 28.0118 39.3687 28.0118 37.6015C28.0145 37.0321 28.1719 36.4743 28.4659 35.9867L24.8282 32.3478C24.3407 32.6419 23.7831 32.7993 23.2139 32.802C21.7598 32.7965 20.4925 31.8102 20.129 30.4018H16.9014C16.844 30.9401 16.8161 31.4812 16.8165 32.0225C16.8222 40.4111 23.625 47.2071 32.0108 47.2014C34.5938 47.2036 37.1343 46.5458 39.3926 45.2916C46.7224 41.2204 49.3656 31.9765 45.2959 24.6441L43.5528 26.3868ZM31.211 36.0014C30.3277 36.0014 29.6114 36.7179 29.6114 37.6015C29.6114 38.4852 30.3276 39.2016 31.211 39.2016C32.0942 39.2015 32.8106 38.4851 32.8106 37.6015C32.8105 36.718 32.0942 36.0015 31.211 36.0014ZM32.0108 16.8026C24.8568 16.8131 18.6764 21.8075 17.1622 28.8017H20.129C20.4926 27.3893 21.7667 26.4026 23.2247 26.4044C24.9875 26.4068 26.4142 27.8383 26.4121 29.6018C26.4094 30.1712 26.253 30.7299 25.959 31.2175L29.5957 34.8555C30.0821 34.5588 30.6413 34.4022 31.211 34.4022C31.7805 34.4022 32.339 34.5589 32.8252 34.8555L38.0616 29.6174C37.7676 29.1298 37.6112 28.571 37.6084 28.0016C37.6087 26.2348 39.0404 24.8026 40.8067 24.8023C41.3753 24.8062 41.9325 24.964 42.419 25.2585L44.419 23.2579C43.0198 21.2654 41.1614 19.6396 39.002 18.516C36.8425 17.3925 34.4448 16.8045 32.0108 16.8026ZM23.2139 28.0016C22.3306 28.0016 21.6144 28.7182 21.6143 29.6018C21.6143 30.4854 22.3305 31.2019 23.2139 31.2019C24.0972 31.2018 24.8135 30.4854 24.8135 29.6018C24.8134 28.7183 24.0971 28.0017 23.2139 28.0016ZM40.8067 26.4025C39.9237 26.4027 39.2083 27.1183 39.208 28.0016C39.208 28.8851 39.9235 29.6015 40.8067 29.6018C41.69 29.6018 42.4063 28.8853 42.4063 28.0016C42.406 27.1182 41.6899 26.4025 40.8067 26.4025Z" fill="black"/>
<path fill-rule="evenodd" clip-rule="evenodd" d="M19.8204 16.1354C28.5791 9.41032 41.1296 11.0615 47.8526 19.8231L49.2578 18.4174C48.9639 17.9298 48.8075 17.3719 48.8047 16.8026C48.8047 15.0354 50.2363 13.6023 52.0029 13.6023C53.457 13.6078 54.7243 14.5941 55.0879 16.0025H60V17.6026H55.0879C54.7243 19.0111 53.457 19.9974 52.0029 20.0029C51.434 19.9997 50.8768 19.8417 50.3897 19.5476L48.7901 21.1478C53.0743 27.7492 53.0743 36.2549 48.7901 42.8562L58.7715 52.8409C60.4088 54.4788 60.4087 57.1338 58.7715 58.7716C57.1342 60.4095 54.4801 60.4095 52.8428 58.7716L42.8613 48.7869C34.1134 54.4541 22.4798 52.4472 16.1338 44.1769C9.41134 35.4153 11.0618 22.8604 19.8204 16.1354ZM47.5361 51.2008L54.0156 57.6824C55.0399 58.6837 56.6815 58.6649 57.6826 57.6404C58.6837 56.6158 58.6648 54.9737 57.6406 53.9722L51.2031 47.5325L47.5361 51.2008ZM46.9717 21.2611C41.0575 12.9799 29.5519 11.0625 21.2735 16.9784C12.9951 22.8946 11.0781 34.404 16.9922 42.6852C22.9064 50.9664 34.412 52.8839 42.6905 46.9679C43.0422 46.716 43.387 46.4558 43.7188 46.1815C43.8155 46.1007 43.9097 46.0134 44.0049 45.9334C44.2892 45.6899 44.5654 45.437 44.833 45.1753C44.9502 45.0618 45.0652 44.9457 45.1787 44.8285C45.4399 44.5602 45.6935 44.2841 45.9375 44.0001C46.0199 43.9049 46.1056 43.8107 46.1856 43.7139C46.4598 43.382 46.7199 43.0371 46.9717 42.6852C51.5478 36.2775 51.5477 27.6689 46.9717 21.2611ZM47.5899 44.5159C47.4933 44.6371 47.3941 44.7562 47.294 44.8744C47.1474 45.0495 46.9982 45.2223 46.8457 45.3922C46.7658 45.4794 46.6855 45.5625 46.6055 45.6481C46.2985 45.976 45.9811 46.2945 45.6533 46.6016C45.5679 46.6814 45.4845 46.761 45.3975 46.8409C45.2279 46.9937 45.055 47.1431 44.8799 47.2903C44.7609 47.3901 44.6325 47.4966 44.5215 47.5853C44.4103 47.6741 44.3042 47.7695 44.1914 47.8559L46.4053 50.0695L50.0723 46.4013L47.8594 44.1867C47.773 44.2995 47.6778 44.4055 47.5899 44.5159ZM52.0029 15.2024C51.1197 15.2025 50.4033 15.9189 50.4033 16.8026C50.4034 17.6862 51.1196 18.4027 52.0029 18.4027C52.8863 18.4027 53.6025 17.6862 53.6025 16.8026C53.6025 15.9189 52.8863 15.2024 52.0029 15.2024Z" fill="black"/>
</svg>
