<svg width="92" height="92" viewBox="0 0 92 92" fill="none" xmlns="http://www.w3.org/2000/svg">
<g filter="url(#filter0_d_0_317)">
<rect x="6" y="6" width="80" height="80" rx="40" fill="url(#paint0_linear_0_317)"/>
<rect x="7" y="7" width="78" height="78" rx="39" stroke="white" stroke-width="2"/>
</g>
<path d="M52 25.7632V28.9632H40V25.7632H52ZM52.136 24.5632H39.864C39.724 24.5621 39.5851 24.5889 39.4556 24.642C39.326 24.6951 39.2083 24.7735 39.1093 24.8725C39.0102 24.9715 38.9319 25.0892 38.8788 25.2188C38.8257 25.3483 38.7989 25.4872 38.8 25.6272V29.0992C38.7989 29.2392 38.8257 29.3781 38.8788 29.5076C38.9319 29.6372 39.0102 29.7549 39.1093 29.8539C39.2083 29.953 39.326 30.0313 39.4556 30.0844C39.5851 30.1375 39.724 30.1643 39.864 30.1632H52.136C52.276 30.1643 52.4149 30.1375 52.5444 30.0844C52.674 30.0313 52.7917 29.953 52.8907 29.8539C52.9897 29.7549 53.0681 29.6372 53.1212 29.5076C53.1743 29.3781 53.2011 29.2392 53.2 29.0992V25.6272C53.2011 25.4872 53.1743 25.3483 53.1212 25.2188C53.0681 25.0892 52.9897 24.9715 52.8907 24.8725C52.7917 24.7735 52.674 24.6951 52.5444 24.642C52.4149 24.5889 52.276 24.5621 52.136 24.5632Z" fill="#3E96F4"/>
<path d="M36.84 33.7312C37.3147 33.7312 37.7787 33.872 38.1734 34.1357C38.568 34.3994 38.8757 34.7742 39.0573 35.2128C39.239 35.6513 39.2865 36.1339 39.1939 36.5994C39.1013 37.065 38.8727 37.4926 38.5371 37.8283C38.2014 38.1639 37.7738 38.3925 37.3082 38.4851C36.8427 38.5777 36.3601 38.5302 35.9216 38.3485C35.483 38.1669 35.1082 37.8593 34.8445 37.4646C34.5808 37.0699 34.44 36.6059 34.44 36.1312C34.44 35.4947 34.6928 34.8842 35.1429 34.4342C35.593 33.9841 36.2035 33.7312 36.84 33.7312ZM36.84 32.5312C36.128 32.5312 35.432 32.7423 34.8399 33.1379C34.2479 33.5335 33.7865 34.0957 33.514 34.7535C33.2416 35.4114 33.1703 36.1352 33.3092 36.8335C33.4481 37.5319 33.7909 38.1733 34.2944 38.6768C34.7979 39.1803 35.4393 39.5231 36.1377 39.662C36.836 39.8009 37.5598 39.7296 38.2177 39.4572C38.8755 39.1847 39.4377 38.7233 39.8333 38.1313C40.2289 37.5392 40.44 36.8432 40.44 36.1312C40.441 35.6582 40.3487 35.1895 40.1681 34.7523C39.9876 34.3151 39.7224 33.9178 39.3879 33.5833C39.0534 33.2488 38.6561 32.9836 38.2189 32.8031C37.7817 32.6226 37.313 32.5302 36.84 32.5312Z" fill="#3E96F4"/>
<path d="M36.96 37.3632C36.8009 37.3631 36.6484 37.2998 36.536 37.1872L35.464 36.1152C35.405 36.0603 35.3578 35.994 35.325 35.9204C35.2922 35.8468 35.2745 35.7674 35.2731 35.6868C35.2717 35.6063 35.2865 35.5262 35.3167 35.4515C35.3469 35.3768 35.3918 35.309 35.4488 35.252C35.5057 35.195 35.5736 35.1501 35.6483 35.1199C35.723 35.0897 35.8031 35.0749 35.8836 35.0763C35.9642 35.0778 36.0436 35.0954 36.1172 35.1282C36.1908 35.161 36.2571 35.2083 36.312 35.2672L36.96 35.9072L39.96 32.9072C40.0737 32.8012 40.2242 32.7435 40.3796 32.7463C40.5351 32.749 40.6834 32.812 40.7933 32.9219C40.9032 33.0318 40.9662 33.1801 40.9689 33.3356C40.9717 33.491 40.914 33.6415 40.808 33.7552L37.384 37.1632C37.2735 37.2818 37.1217 37.3534 36.96 37.3632Z" fill="#3E96F4"/>
<path d="M58.8 35.4672H43.36C43.2009 35.4672 43.0483 35.404 42.9357 35.2915C42.8232 35.1789 42.76 35.0263 42.76 34.8672C42.76 34.7081 42.8232 34.5555 42.9357 34.4429C43.0483 34.3304 43.2009 34.2672 43.36 34.2672H58.8C58.9591 34.2672 59.1117 34.3304 59.2243 34.4429C59.3368 34.5555 59.4 34.7081 59.4 34.8672C59.4 35.0263 59.3368 35.1789 59.2243 35.2915C59.1117 35.404 58.9591 35.4672 58.8 35.4672Z" fill="#3E96F4"/>
<path d="M55.296 37.9632H43.36C43.2009 37.9632 43.0483 37.9 42.9357 37.7875C42.8232 37.6749 42.76 37.5223 42.76 37.3632C42.76 37.2041 42.8232 37.0515 42.9357 36.9389C43.0483 36.8264 43.2009 36.7632 43.36 36.7632H55.296C55.4551 36.7632 55.6077 36.8264 55.7203 36.9389C55.8328 37.0515 55.896 37.2041 55.896 37.3632C55.896 37.5223 55.8328 37.6749 55.7203 37.7875C55.6077 37.9 55.4551 37.9632 55.296 37.9632Z" fill="#3E96F4"/>
<path d="M60.352 26.7632H53.2V27.9632H60.352C60.8952 27.9632 61.4161 28.179 61.8002 28.5631C62.1842 28.9471 62.4 29.468 62.4 30.0112V63.5152C62.4 64.0584 62.1842 64.5793 61.8002 64.9634C61.4161 65.3474 60.8952 65.5632 60.352 65.5632H31.648C31.1048 65.5632 30.5839 65.3474 30.1998 64.9634C29.8158 64.5793 29.6 64.0584 29.6 63.5152V30.0112C29.6 29.468 29.8158 28.9471 30.1998 28.5631C30.5839 28.179 31.1048 27.9632 31.648 27.9632H38.8V26.7632H31.648C30.7866 26.7632 29.9604 27.1054 29.3513 27.7145C28.7422 28.3236 28.4 29.1498 28.4 30.0112V63.5152C28.4 63.9417 28.484 64.3641 28.6472 64.7582C28.8105 65.1522 29.0497 65.5103 29.3513 65.8119C29.6529 66.1135 30.011 66.3527 30.405 66.516C30.7991 66.6792 31.2215 66.7632 31.648 66.7632H60.352C60.7785 66.7632 61.2009 66.6792 61.595 66.516C61.989 66.3527 62.3471 66.1135 62.6487 65.8119C62.9503 65.5103 63.1895 65.1522 63.3528 64.7582C63.516 64.3641 63.6 63.9417 63.6 63.5152V30.0112C63.6 29.1498 63.2578 28.3236 62.6487 27.7145C62.0396 27.1054 61.2134 26.7632 60.352 26.7632Z" fill="#3E96F4"/>
<path d="M44.104 24.5632C44.2289 24.1579 44.4804 23.8033 44.8217 23.5514C45.1629 23.2995 45.5759 23.1635 46 23.1635C46.4241 23.1635 46.8371 23.2995 47.1783 23.5514C47.5196 23.8033 47.7711 24.1579 47.896 24.5632H49.136C48.9891 23.8398 48.5966 23.1895 48.0251 22.7223C47.4536 22.2552 46.7381 22 46 22C45.2618 22 44.5464 22.2552 43.9749 22.7223C43.4033 23.1895 43.0109 23.8398 42.864 24.5632H44.104Z" fill="#3E96F4"/>
<path d="M36.84 44.9312C37.3147 44.9312 37.7787 45.072 38.1734 45.3357C38.568 45.5994 38.8757 45.9742 39.0573 46.4128C39.239 46.8513 39.2865 47.3339 39.1939 47.7994C39.1013 48.265 38.8727 48.6926 38.5371 49.0283C38.2014 49.3639 37.7738 49.5925 37.3082 49.6851C36.8427 49.7777 36.3601 49.7302 35.9216 49.5485C35.483 49.3669 35.1082 49.0593 34.8445 48.6646C34.5808 48.2699 34.44 47.8059 34.44 47.3312C34.44 46.6947 34.6928 46.0842 35.1429 45.6342C35.593 45.1841 36.2035 44.9312 36.84 44.9312ZM36.84 43.7312C36.128 43.7312 35.432 43.9423 34.8399 44.3379C34.2479 44.7335 33.7865 45.2957 33.514 45.9535C33.2416 46.6114 33.1703 47.3352 33.3092 48.0335C33.4481 48.7319 33.7909 49.3733 34.2944 49.8768C34.7979 50.3803 35.4393 50.7231 36.1377 50.862C36.836 51.0009 37.5598 50.9296 38.2177 50.6572C38.8755 50.3847 39.4377 49.9233 39.8333 49.3313C40.2289 48.7392 40.44 48.0432 40.44 47.3312C40.441 46.8582 40.3487 46.3895 40.1681 45.9523C39.9876 45.5151 39.7224 45.1178 39.3879 44.7833C39.0534 44.4488 38.6561 44.1836 38.2189 44.0031C37.7817 43.8225 37.313 43.7302 36.84 43.7312Z" fill="#3E96F4"/>
<path d="M36.96 48.5632C36.8009 48.5631 36.6484 48.4998 36.536 48.3872L35.464 47.3152C35.405 47.2603 35.3578 47.194 35.325 47.1204C35.2922 47.0468 35.2745 46.9674 35.2731 46.8868C35.2717 46.8063 35.2865 46.7262 35.3167 46.6515C35.3469 46.5768 35.3918 46.509 35.4488 46.452C35.5057 46.395 35.5736 46.3501 35.6483 46.3199C35.723 46.2897 35.8031 46.2749 35.8836 46.2763C35.9642 46.2778 36.0436 46.2954 36.1172 46.3282C36.1908 46.361 36.2571 46.4083 36.312 46.4672L36.96 47.1072L39.96 44.1072C40.0737 44.0012 40.2242 43.9435 40.3796 43.9463C40.5351 43.949 40.6834 44.012 40.7933 44.1219C40.9032 44.2318 40.9662 44.3801 40.9689 44.5356C40.9717 44.691 40.914 44.8415 40.808 44.9552L37.384 48.3632C37.2735 48.4818 37.1217 48.5534 36.96 48.5632Z" fill="#3E96F4"/>
<path d="M58.8 46.6672H43.36C43.2009 46.6672 43.0483 46.604 42.9357 46.4915C42.8232 46.3789 42.76 46.2263 42.76 46.0672C42.76 45.9081 42.8232 45.7555 42.9357 45.6429C43.0483 45.5304 43.2009 45.4672 43.36 45.4672H58.8C58.9591 45.4672 59.1117 45.5304 59.2243 45.6429C59.3368 45.7555 59.4 45.9081 59.4 46.0672C59.4 46.2263 59.3368 46.3789 59.2243 46.4915C59.1117 46.604 58.9591 46.6672 58.8 46.6672Z" fill="#3E96F4"/>
<path d="M55.296 49.1632H43.36C43.2009 49.1632 43.0483 49.1 42.9357 48.9875C42.8232 48.8749 42.76 48.7223 42.76 48.5632C42.76 48.4041 42.8232 48.2515 42.9357 48.1389C43.0483 48.0264 43.2009 47.9632 43.36 47.9632H55.296C55.4551 47.9632 55.6077 48.0264 55.7203 48.1389C55.8328 48.2515 55.896 48.4041 55.896 48.5632C55.896 48.7223 55.8328 48.8749 55.7203 48.9875C55.6077 49.1 55.4551 49.1632 55.296 49.1632Z" fill="#3E96F4"/>
<path d="M36.84 56.1312C37.3147 56.1312 37.7787 56.272 38.1734 56.5357C38.568 56.7994 38.8757 57.1742 39.0573 57.6128C39.239 58.0513 39.2865 58.5339 39.1939 58.9994C39.1013 59.465 38.8727 59.8926 38.5371 60.2283C38.2014 60.5639 37.7738 60.7925 37.3082 60.8851C36.8427 60.9777 36.3601 60.9302 35.9216 60.7485C35.483 60.5669 35.1082 60.2593 34.8445 59.8646C34.5808 59.4699 34.44 59.0059 34.44 58.5312C34.44 57.8947 34.6928 57.2842 35.1429 56.8341C35.593 56.3841 36.2035 56.1312 36.84 56.1312ZM36.84 54.9312C36.128 54.9312 35.432 55.1423 34.8399 55.5379C34.2479 55.9335 33.7865 56.4957 33.514 57.1535C33.2416 57.8114 33.1703 58.5352 33.3092 59.2335C33.4481 59.9319 33.7909 60.5733 34.2944 61.0768C34.7979 61.5803 35.4393 61.9231 36.1377 62.062C36.836 62.2009 37.5598 62.1296 38.2177 61.8572C38.8755 61.5847 39.4377 61.1233 39.8333 60.5313C40.2289 59.9392 40.44 59.2432 40.44 58.5312C40.441 58.0582 40.3487 57.5895 40.1681 57.1523C39.9876 56.715 39.7224 56.3178 39.3879 55.9833C39.0534 55.6488 38.6561 55.3836 38.2189 55.2031C37.7817 55.0225 37.313 54.9301 36.84 54.9312Z" fill="#3E96F4"/>
<path d="M36.96 59.7632C36.8009 59.7631 36.6484 59.6998 36.536 59.5872L35.464 58.5152C35.405 58.4603 35.3578 58.394 35.325 58.3204C35.2922 58.2468 35.2745 58.1674 35.2731 58.0868C35.2717 58.0063 35.2865 57.9262 35.3167 57.8515C35.3469 57.7768 35.3918 57.709 35.4488 57.652C35.5057 57.595 35.5736 57.5501 35.6483 57.5199C35.723 57.4897 35.8031 57.4749 35.8836 57.4763C35.9642 57.4778 36.0436 57.4954 36.1172 57.5282C36.1908 57.561 36.2571 57.6083 36.312 57.6672L36.96 58.3072L39.96 55.3072C40.0737 55.2012 40.2242 55.1435 40.3796 55.1463C40.5351 55.149 40.6834 55.212 40.7933 55.3219C40.9032 55.4318 40.9662 55.5801 40.9689 55.7356C40.9717 55.891 40.914 56.0415 40.808 56.1552L37.384 59.5632C37.2735 59.6818 37.1217 59.7534 36.96 59.7632Z" fill="#3E96F4"/>
<path d="M58.8 57.8672H43.36C43.2009 57.8672 43.0483 57.804 42.9357 57.6915C42.8232 57.5789 42.76 57.4263 42.76 57.2672C42.76 57.1081 42.8232 56.9555 42.9357 56.8429C43.0483 56.7304 43.2009 56.6672 43.36 56.6672H58.8C58.9591 56.6672 59.1117 56.7304 59.2243 56.8429C59.3368 56.9555 59.4 57.1081 59.4 57.2672C59.4 57.4263 59.3368 57.5789 59.2243 57.6915C59.1117 57.804 58.9591 57.8672 58.8 57.8672Z" fill="#3E96F4"/>
<path d="M55.296 60.3632H43.36C43.2009 60.3632 43.0483 60.3 42.9357 60.1875C42.8232 60.0749 42.76 59.9223 42.76 59.7632C42.76 59.6041 42.8232 59.4515 42.9357 59.3389C43.0483 59.2264 43.2009 59.1632 43.36 59.1632H55.296C55.4551 59.1632 55.6077 59.2264 55.7203 59.3389C55.8328 59.4515 55.896 59.6041 55.896 59.7632C55.896 59.9223 55.8328 60.0749 55.7203 60.1875C55.6077 60.3 55.4551 60.3632 55.296 60.3632Z" fill="#3E96F4"/>
<defs>
<filter id="filter0_d_0_317" x="0" y="0" width="92" height="92" filterUnits="userSpaceOnUse" color-interpolation-filters="sRGB">
<feFlood flood-opacity="0" result="BackgroundImageFix"/>
<feColorMatrix in="SourceAlpha" type="matrix" values="0 0 0 0 0 0 0 0 0 0 0 0 0 0 0 0 0 0 127 0" result="hardAlpha"/>
<feOffset/>
<feGaussianBlur stdDeviation="3"/>
<feComposite in2="hardAlpha" operator="out"/>
<feColorMatrix type="matrix" values="0 0 0 0 0.243137 0 0 0 0 0.588235 0 0 0 0 0.956863 0 0 0 0.25 0"/>
<feBlend mode="normal" in2="BackgroundImageFix" result="effect1_dropShadow_0_317"/>
<feBlend mode="normal" in="SourceGraphic" in2="effect1_dropShadow_0_317" result="shape"/>
</filter>
<linearGradient id="paint0_linear_0_317" x1="87.5912" y1="86.1293" x2="27.665" y2="15.2677" gradientUnits="userSpaceOnUse">
<stop stop-color="#D6EAFF"/>
<stop offset="1" stop-color="white"/>
</linearGradient>
</defs>
</svg>
