<svg width="36" height="36" viewBox="0 0 36 36" fill="none" xmlns="http://www.w3.org/2000/svg">
<g clip-path="url(#clip0_2538_4257)">
<path d="M35.3582 30.2384C35.5028 30.1572 35.6297 30.048 35.7315 29.917C35.8333 29.786 35.9079 29.6361 35.951 29.4759C35.9956 29.3188 36.0075 29.1542 35.9856 28.9924C35.9637 28.8306 35.9087 28.675 35.8239 28.5354L35.0787 27.3154C34.9095 27.0356 34.6383 26.8326 34.3224 26.7487C34.0065 26.665 33.6704 26.7072 33.3849 26.8663L33.2833 26.9256C33.0624 26.7777 32.8302 26.6474 32.5888 26.5359V26.4766C32.5845 26.1507 32.4525 25.8395 32.2213 25.6098C31.9901 25.3801 31.6782 25.2503 31.3524 25.248H29.8703C29.5475 25.2546 29.2399 25.3864 29.0123 25.6157C28.7847 25.8449 28.6551 26.1535 28.6509 26.4766V26.5359C28.4121 26.6473 28.1828 26.7776 27.9649 26.9256L27.8632 26.8748C27.5793 26.7127 27.2432 26.6681 26.9267 26.7504C26.6103 26.8326 26.3385 27.0354 26.1694 27.3154L25.4326 28.5354C25.3408 28.6718 25.2783 28.8259 25.2491 28.9878C25.22 29.1498 25.2248 29.316 25.2633 29.4759C25.3064 29.6361 25.381 29.786 25.4828 29.917C25.5846 30.048 25.7115 30.1572 25.8561 30.2384H25.9239C25.9069 30.4753 25.9069 30.7132 25.9239 30.9501H25.8561C25.7115 31.0313 25.5846 31.1406 25.4828 31.2715C25.381 31.4025 25.3064 31.5524 25.2633 31.7126C25.2199 31.8702 25.2095 32.0352 25.2328 32.197C25.2561 32.3589 25.3126 32.5141 25.3988 32.6531L26.1356 33.8731C26.3061 34.1514 26.5779 34.3528 26.8937 34.4349C27.2095 34.5171 27.5449 34.4736 27.8294 34.3137L27.9225 34.2629C28.1445 34.4091 28.3765 34.5394 28.6169 34.6526V34.7119C28.6113 34.8798 28.6395 35.047 28.7001 35.2036C28.7606 35.3602 28.8521 35.5029 28.9692 35.6232C29.0863 35.7435 29.2264 35.8388 29.3813 35.9035C29.5362 35.9682 29.7025 36.001 29.8703 35.9998H31.3609C31.6881 35.9998 32.0022 35.8709 32.2353 35.641C32.4682 35.4111 32.6013 35.0986 32.6058 34.7712V34.7119C32.8462 34.5987 33.0783 34.4684 33.3003 34.3222L33.4018 34.373C33.6854 34.5373 34.0221 34.5832 34.3392 34.5007C34.6563 34.4183 34.9281 34.2141 35.0956 33.9324L35.8324 32.7124C35.9169 32.5711 35.9711 32.4138 35.9915 32.2504C36.0119 32.087 35.9981 31.9212 35.951 31.7634C35.9079 31.6032 35.8333 31.4533 35.7315 31.3224C35.6297 31.1914 35.5028 31.0821 35.3582 31.0009H35.2905C35.3073 30.764 35.3073 30.5262 35.2905 30.2892L35.3582 30.2384ZM27.533 31.0179C27.4991 30.7563 27.4991 30.4915 27.533 30.2299C27.5645 29.9963 27.5268 29.7584 27.4244 29.546C27.322 29.3337 27.1595 29.156 26.9571 29.0353L27.3466 28.3914C27.5602 28.5053 27.8018 28.5562 28.0431 28.5382C28.2844 28.5202 28.5158 28.434 28.7101 28.2897C28.9223 28.1351 29.1527 28.007 29.3961 27.9084C29.63 27.8314 29.8356 27.6862 29.9865 27.4914C30.1373 27.2967 30.2266 27.0613 30.243 26.8155H31.0899C31.1015 27.0543 31.1821 27.2847 31.3219 27.4787C31.4617 27.6726 31.6546 27.822 31.8775 27.9084C32.1244 28.005 32.3578 28.1332 32.5719 28.2897C32.7688 28.432 33.0013 28.5168 33.2435 28.5348C33.4857 28.5527 33.7281 28.503 33.9439 28.3914L34.325 29.0353C34.1217 29.1562 33.9576 29.3332 33.8524 29.5452C33.7473 29.757 33.7055 29.9948 33.7322 30.2299C33.7405 30.3625 33.7405 30.4956 33.7322 30.6282C33.7322 30.7553 33.7322 30.8908 33.7322 31.0264C33.7005 31.26 33.7383 31.4978 33.8407 31.7102C33.943 31.9226 34.1055 32.1002 34.308 32.221L33.9184 32.8649C33.7048 32.751 33.4634 32.7001 33.222 32.7181C32.9806 32.7361 32.7494 32.8223 32.555 32.9666C32.3427 33.1212 32.1123 33.2493 31.869 33.3479C31.644 33.4321 31.4486 33.5806 31.3071 33.7749C31.1656 33.9691 31.0842 34.2006 31.0729 34.4408H30.226C30.2165 34.2014 30.1368 33.9701 29.9967 33.7757C29.8567 33.5814 29.6625 33.4325 29.4384 33.3479C29.1915 33.2513 28.9581 33.1231 28.744 32.9666C28.5488 32.8242 28.3177 32.7391 28.0767 32.7212C27.8358 32.7032 27.5947 32.753 27.3805 32.8649L26.9571 32.221C27.1602 32.0988 27.3231 31.9197 27.4254 31.7058C27.5277 31.492 27.5652 31.2528 27.533 31.0179Z" fill="#3DA4C2"/>
<path d="M35.2135 0H13.4062C13.1996 0 13.0014 0.0821233 12.8553 0.228303C12.7091 0.374484 12.6271 0.572746 12.6271 0.779476V8.60811H7.0969C6.88802 8.60811 6.68769 8.69117 6.53998 8.83894C6.39228 8.98671 6.3093 9.18711 6.3093 9.39609V15.4964H0.787604C0.580177 15.4963 0.38112 15.5781 0.233656 15.7241C0.0861934 15.8701 0.00223039 16.0683 0 16.2758V27.7562C0 27.9651 0.0829796 28.1655 0.230684 28.3133C0.378388 28.4611 0.578718 28.5441 0.787604 28.5441H16.8784C17.0873 28.5441 17.2876 28.4611 17.4353 28.3133C17.5831 28.1655 17.6661 27.9651 17.6661 27.7562V22.8081H25.4828C25.6917 22.8081 25.892 22.7252 26.0397 22.5774C26.1874 22.4296 26.2704 22.2292 26.2704 22.0203V16.513H35.2135C35.3158 16.513 35.4171 16.4929 35.5117 16.4537C35.6062 16.4145 35.6921 16.3571 35.7645 16.2848C35.8368 16.2123 35.8941 16.1265 35.9333 16.0318C35.9725 15.9373 35.9926 15.836 35.9926 15.7335V0.779476C35.9926 0.677115 35.9725 0.575755 35.9333 0.481184C35.8941 0.386613 35.8368 0.300685 35.7645 0.228303C35.6921 0.155923 35.6062 0.0985063 35.5117 0.0593343C35.4171 0.0201619 35.3158 0 35.2135 0ZM16.0654 17.0637V26.9767H1.5498V17.0637H16.0654ZM16.8531 15.4964H7.88451V10.1756H24.6698V21.2323H17.6406V16.2758C17.6384 16.0683 17.5545 15.8701 17.4069 15.7241C17.2595 15.5781 17.0605 15.4963 16.8531 15.4964ZM25.4574 8.60811H14.1938V1.56742H34.4259V14.9202H26.245V9.39609C26.245 9.18711 26.162 8.98671 26.0143 8.83894C25.8666 8.69117 25.6663 8.60811 25.4574 8.60811Z" fill="#3DA4C2"/>
<path d="M30.6227 33.1363C31.1251 33.1363 31.6164 32.9872 32.0342 32.7079C32.452 32.4286 32.7776 32.0317 32.97 31.5673C33.1622 31.1028 33.2125 30.5917 33.1145 30.0986C33.0165 29.6056 32.7745 29.1527 32.4192 28.7972C32.0639 28.4418 31.6111 28.1996 31.1184 28.1016C30.6255 28.0035 30.1147 28.0538 29.6504 28.2463C29.1862 28.4386 28.7893 28.7644 28.5102 29.1824C28.231 29.6004 28.082 30.0918 28.082 30.5945C28.082 31.2686 28.3497 31.9152 28.8262 32.3918C29.3026 32.8685 29.9489 33.1363 30.6227 33.1363ZM30.6227 29.688C30.8086 29.688 30.9903 29.7431 31.1449 29.8465C31.2995 29.9498 31.42 30.0967 31.4911 30.2685C31.5623 30.4404 31.5809 30.6295 31.5446 30.8119C31.5084 30.9943 31.4189 31.1619 31.2874 31.2934C31.1559 31.425 30.9884 31.5145 30.806 31.5508C30.6237 31.5871 30.4347 31.5685 30.2629 31.4973C30.0912 31.4261 29.9443 31.3056 29.8411 31.1509C29.7378 30.9962 29.6827 30.8144 29.6827 30.6284C29.6827 30.379 29.7817 30.1398 29.958 29.9634C30.1343 29.7871 30.3733 29.688 30.6227 29.688Z" fill="#3DA4C2"/>
<path d="M10.1788 29.8403H8.60352V33.5005C8.60574 33.708 8.68974 33.9063 8.83717 34.0522C8.98469 34.1981 9.18372 34.28 9.39114 34.28H23.9491V32.7125H10.1788V29.8403Z" fill="#3DA4C2"/>
<path d="M21.6468 10.9043H20.0801V12.4717H21.6468V10.9043Z" fill="#3DA4C2"/>
<path d="M21.6552 24.1382H20.0801V28.9421C20.0823 29.1496 20.1662 29.3479 20.3137 29.4939C20.4612 29.6398 20.6602 29.7216 20.8676 29.7216H23.9503V28.1203H21.6552V24.1382Z" fill="#3DA4C2"/>
<path d="M23.9418 10.9043H22.375V12.4717H23.9418V10.9043Z" fill="#3DA4C2"/>
<path d="M31.4027 2.2959H29.8359V3.86332H31.4027V2.2959Z" fill="#3DA4C2"/>
<path d="M31.9691 17.7925H30.4023V23.9521H31.9691V17.7925Z" fill="#3DA4C2"/>
<path d="M15.3363 17.7925H13.7695V19.3599H15.3363V17.7925Z" fill="#3DA4C2"/>
<path d="M33.6975 2.2959H32.1309V3.86332H33.6975V2.2959Z" fill="#3DA4C2"/>
<path d="M13.0413 17.7925H11.4746V19.3599H13.0413V17.7925Z" fill="#3DA4C2"/>
</g>
<defs>
<clipPath id="clip0_2538_4257">
<rect width="36" height="36" fill="white"/>
</clipPath>
</defs>
</svg>
