<svg width="21" height="20" viewBox="0 0 21 20" fill="none" xmlns="http://www.w3.org/2000/svg">
<path d="M17.2095 20.0001H3.79048C2.65779 20.0001 1.73608 19.122 1.73608 18.0424V9.60861H2.73555V18.0422C2.73585 18.3087 2.84708 18.5642 3.04486 18.7527C3.24263 18.9412 3.51078 19.0472 3.79048 19.0474H17.2095C17.4892 19.0472 17.7574 18.9412 17.9551 18.7527C18.1529 18.5642 18.2642 18.3087 18.2645 18.0422V9.6084H19.2639V18.0422C19.2639 19.1218 18.3422 19.9999 17.2093 19.9999L17.2095 20.0001Z" fill="#3E96F4"/>
<path d="M8.12516 10.3605C6.54001 10.3605 5.25024 9.13164 5.25024 7.62109H6.24971C6.24971 8.60637 7.091 9.40806 8.12516 9.40806C9.15931 9.40806 10.0004 8.60637 10.0004 7.62109H10.9998C10.9998 9.13164 9.7103 10.3605 8.12516 10.3605Z" fill="#3E96F4"/>
<path d="M12.8749 10.3614C11.2898 10.3614 10.0002 9.13259 10.0002 7.62205V5.61719H10.9997V7.62205C10.9997 8.60732 11.841 9.40902 12.8749 9.40902C13.9089 9.40902 14.7504 8.60732 14.7504 7.62205H15.7498C15.7498 9.13259 14.4601 10.3614 12.8749 10.3614Z" fill="#3E96F4"/>
<path d="M17.6251 10.3609C16.0399 10.3609 14.7504 9.13208 14.7504 7.62154V5.61667H15.7499V7.62154C15.7499 8.60681 16.5912 9.4085 17.6251 9.4085C18.6592 9.4085 19.5007 8.60681 19.5007 7.62154V5.76046L17.8381 3.37833H3.16194L1.49947 5.76068V7.62175C1.49947 8.60702 2.34076 9.4085 3.37491 9.4085C4.40885 9.4085 5.25013 8.60681 5.25013 7.62154V5.61667H6.2496V7.62154C6.2496 9.13208 4.96006 10.3609 3.37491 10.3609C1.78955 10.3609 0.5 9.13208 0.5 7.62154V5.61667C0.5 5.52299 0.528941 5.4312 0.58351 5.35309L2.47795 2.63854C2.52354 2.57317 2.58537 2.51956 2.65795 2.48246C2.73052 2.44536 2.8116 2.42594 2.89396 2.4259H18.106C18.2733 2.4259 18.4295 2.5059 18.522 2.63854L20.4165 5.35309C20.4711 5.43099 20.5 5.52299 20.5 5.61667V7.62154C20.5 9.13208 19.2105 10.3609 17.6251 10.3609Z" fill="#3E96F4"/>
<path d="M18.6058 2.90214H17.6063V1.9577C17.606 1.69118 17.4948 1.43564 17.297 1.24718C17.0993 1.05871 16.8311 0.95271 16.5514 0.952431H4.44863C4.16894 0.95271 3.90079 1.05871 3.70301 1.24718C3.50524 1.43564 3.394 1.69118 3.39371 1.9577V2.90235H2.39424V1.9577C2.39424 0.878115 3.31595 0 4.44885 0H16.5512C17.6841 0 18.6058 0.878115 18.6058 1.9577V2.90235V2.90214ZM9.91678 19.5238H8.9173V13.4121C8.91719 13.2578 8.85279 13.1098 8.73826 13.0006C8.62373 12.8915 8.46842 12.8301 8.30644 12.83H5.92928C5.76734 12.8301 5.61207 12.8915 5.49754 13.0006C5.38302 13.1097 5.31859 13.2576 5.31842 13.4119V19.5238H4.31917V13.4121C4.31917 12.5658 5.0416 11.8776 5.92928 11.8776H8.30644C9.19435 11.8776 9.91678 12.566 9.91678 13.4119V19.5238ZM15.0708 16.0168H12.5416C11.6535 16.0168 10.9313 15.3284 10.9313 14.482V13.4119C10.9313 12.5658 11.6537 11.8776 12.5416 11.8776H15.0708C15.9587 11.8776 16.6809 12.566 16.6809 13.4119V14.4823C16.6809 15.3284 15.9584 16.0168 15.0708 16.0168ZM12.5416 12.8298C12.3797 12.83 12.2244 12.8913 12.1099 13.0004C11.9954 13.1095 11.931 13.2574 11.9307 13.4117V14.482C11.931 14.6363 11.9954 14.7843 12.1099 14.8933C12.2244 15.0024 12.3797 15.0638 12.5416 15.0639H15.0708C15.2327 15.0638 15.3879 15.0024 15.5024 14.8933C15.6169 14.7843 15.6814 14.6363 15.6816 14.482V13.4117C15.6814 13.2574 15.6169 13.1095 15.5024 13.0004C15.3879 12.8913 15.2327 12.83 15.0708 12.8298H12.5416ZM0.999756 5.14069H20.0003V6.09312H0.999756V5.14069Z" fill="#3E96F4"/>
</svg>
