<svg width="1024" height="220" viewBox="0 0 1024 220" fill="none" xmlns="http://www.w3.org/2000/svg">
<mask id="mask0_535_1845" style="mask-type:alpha" maskUnits="userSpaceOnUse" x="0" y="0" width="1024" height="220">
<rect width="1024" height="220" rx="110" fill="#ECECEC"/>
</mask>
<g mask="url(#mask0_535_1845)">
<mask id="path-2-inside-1_535_1845" fill="white">
<path d="M807 172.215H1111.3V172.367H807V172.215Z"/>
</mask>
<path d="M1111.3 172.215V171.715H1111.8V172.215H1111.3ZM807 172.215H806.5V171.715H807V172.215ZM807 172.367V172.867H806.5V172.367H807ZM1111.3 172.367H1111.8V172.867H1111.3V172.367ZM1111.3 172.715H807V171.715H1111.3V172.715ZM807.5 172.215V172.367H806.5V172.215H807.5ZM807 171.867H1111.3V172.867H807V171.867ZM1110.8 172.367V172.215H1111.8V172.367H1110.8Z" fill="#4D5F66" fill-opacity="0.5" mask="url(#path-2-inside-1_535_1845)"/>
<mask id="path-4-inside-2_535_1845" fill="white">
<path d="M837.49 182.007H846.559V182.159H837.49V182.007Z"/>
</mask>
<path d="M846.559 182.007V181.507H847.059V182.007H846.559ZM837.49 182.007H836.99V181.507H837.49V182.007ZM837.49 182.159V182.659H836.99V182.159H837.49ZM846.559 182.159H847.059V182.659H846.559V182.159ZM846.559 182.507H837.49V181.507H846.559V182.507ZM837.99 182.007V182.159H836.99V182.007H837.99ZM837.49 181.659H846.559V182.659H837.49V181.659ZM846.059 182.159V182.007H847.059V182.159H846.059Z" fill="#4D5F66" fill-opacity="0.5" mask="url(#path-4-inside-2_535_1845)"/>
<mask id="path-6-inside-3_535_1845" fill="white">
<path d="M909.72 183.663H915.009V183.815H909.72V183.663Z"/>
</mask>
<path d="M915.009 183.663V183.163H915.509V183.663H915.009ZM909.72 183.663H909.22V183.163H909.72V183.663ZM909.72 183.815V184.315H909.22V183.815H909.72ZM915.009 183.815H915.509V184.315H915.009V183.815ZM915.009 184.163H909.72V183.163H915.009V184.163ZM910.22 183.663V183.815H909.22V183.663H910.22ZM909.72 183.315H915.009V184.315H909.72V183.315ZM914.509 183.815V183.663H915.509V183.815H914.509Z" fill="#4D5F66" fill-opacity="0.5" mask="url(#path-6-inside-3_535_1845)"/>
<mask id="path-8-inside-4_535_1845" fill="white">
<path d="M849.128 176.359H869.937V176.511H849.128V176.359Z"/>
</mask>
<path d="M869.937 176.359V175.859H870.437V176.359H869.937ZM849.128 176.359H848.628V175.859H849.128V176.359ZM849.128 176.511V177.011H848.628V176.511H849.128ZM869.937 176.511H870.437V177.011H869.937V176.511ZM869.937 176.859H849.128V175.859H869.937V176.859ZM849.628 176.359V176.511H848.628V176.359H849.628ZM849.128 176.011H869.937V177.011H849.128V176.011ZM869.437 176.511V176.359H870.437V176.511H869.437Z" fill="#4D5F66" fill-opacity="0.5" mask="url(#path-8-inside-4_535_1845)"/>
<mask id="path-10-inside-5_535_1845" fill="white">
<path d="M956.254 177.454H1013.27V177.606H956.254V177.454Z"/>
</mask>
<path d="M1013.27 177.454V176.954H1013.77V177.454H1013.27ZM956.254 177.454H955.754V176.954H956.254V177.454ZM956.254 177.606V178.106H955.754V177.606H956.254ZM1013.27 177.606H1013.77V178.106H1013.27V177.606ZM1013.27 177.954H956.254V176.954H1013.27V177.954ZM956.754 177.454V177.606H955.754V177.454H956.754ZM956.254 177.106H1013.27V178.106H956.254V177.106ZM1012.77 177.606V177.454H1013.77V177.606H1012.77Z" fill="#4D5F66" fill-opacity="0.5" mask="url(#path-10-inside-5_535_1845)"/>
<path d="M1071.75 34.1766V30.6172H1002.47V34.1766H1071.75Z" stroke="#4D5F66" stroke-opacity="0.5" stroke-width="0.5"/>
<path d="M849.706 30.6174V34.1768L1001.97 34.1768V30.6174L849.706 30.6174Z" stroke="#4D5F66" stroke-opacity="0.5" stroke-width="0.5"/>
<path d="M1071.75 58.5208V54.9614H1002.47V58.5208H1071.75Z" stroke="#4D5F66" stroke-opacity="0.5" stroke-width="0.5"/>
<path d="M849.706 54.9614V58.5208L1001.97 58.5208V54.9614L849.706 54.9614Z" stroke="#4D5F66" stroke-opacity="0.5" stroke-width="0.5"/>
<path d="M1071.75 82.8651V79.3057H1002.47V82.8651H1071.75Z" stroke="#4D5F66" stroke-opacity="0.5" stroke-width="0.5"/>
<path d="M849.706 79.3056V82.865L1001.97 82.865V79.3056L849.706 79.3056Z" stroke="#4D5F66" stroke-opacity="0.5" stroke-width="0.5"/>
<path d="M1071.75 107.209V103.65H1002.47V107.209H1071.75Z" stroke="#4D5F66" stroke-opacity="0.5" stroke-width="0.5"/>
<path d="M849.706 103.65V107.209L1001.97 107.209V103.65L849.706 103.65Z" stroke="#4D5F66" stroke-opacity="0.5" stroke-width="0.5"/>
<path d="M1071.75 131.553V127.994H1002.47V131.553H1071.75Z" stroke="#4D5F66" stroke-opacity="0.5" stroke-width="0.5"/>
<path d="M849.706 127.994V131.553L1001.97 131.553V127.994L849.706 127.994Z" stroke="#4D5F66" stroke-opacity="0.5" stroke-width="0.5"/>
<path d="M1071.75 155.897V152.338H1002.47V155.897H1071.75Z" stroke="#4D5F66" stroke-opacity="0.5" stroke-width="0.5"/>
<path d="M849.706 152.338V155.897L1001.97 155.897V152.338L849.706 152.338Z" stroke="#4D5F66" stroke-opacity="0.5" stroke-width="0.5"/>
<path d="M894.006 30.1172V15.25H879.139V30.1172H894.006Z" stroke="#4D5F66" stroke-opacity="0.5" stroke-width="0.5"/>
<path d="M864.282 15.2563V30.1235H878.644V15.2563L864.282 15.2563Z" stroke="#4D5F66" stroke-opacity="0.5" stroke-width="0.5"/>
<path d="M912.264 30.1172V15.25H897.396V30.1172H912.264Z" stroke="#4D5F66" stroke-opacity="0.5" stroke-width="0.5"/>
<path d="M882.541 15.2563V30.1235H896.903V15.2563L882.541 15.2563Z" stroke="#4D5F66" stroke-opacity="0.5" stroke-width="0.5"/>
<path d="M930.521 30.1172V15.25H915.654V30.1172H930.521Z" stroke="#4D5F66" stroke-opacity="0.5" stroke-width="0.5"/>
<path d="M900.798 15.2563V30.1235H915.16V15.2563L900.798 15.2563Z" stroke="#4D5F66" stroke-opacity="0.5" stroke-width="0.5"/>
<path d="M948.78 30.1172V15.25H933.913V30.1172H948.78Z" stroke="#4D5F66" stroke-opacity="0.5" stroke-width="0.5"/>
<path d="M919.057 15.2563V30.1235H933.419V15.2563L919.057 15.2563Z" stroke="#4D5F66" stroke-opacity="0.5" stroke-width="0.5"/>
<path d="M1020.72 117.112V127.5H1028.88V117.112H1020.72Z" stroke="#4D5F66" stroke-opacity="0.5" stroke-width="0.5"/>
<path d="M1010.43 117.112V127.5H1018.59V117.112H1010.43Z" stroke="#4D5F66" stroke-opacity="0.5" stroke-width="0.5"/>
<path d="M1026.97 127.494V117.106H1019.09V127.494H1026.97Z" stroke="#4D5F66" stroke-opacity="0.5" stroke-width="0.5"/>
<path d="M884.285 78.8057V63.9385H876.271V78.8057H884.285Z" stroke="#4D5F66" stroke-opacity="0.5" stroke-width="0.5"/>
<path d="M868.032 63.9443V78.8115H875.767V63.9443H868.032Z" stroke="#4D5F66" stroke-opacity="0.5" stroke-width="0.5"/>
<path d="M894.407 78.8057V63.9385H886.393V78.8057H894.407Z" stroke="#4D5F66" stroke-opacity="0.5" stroke-width="0.5"/>
<path d="M878.157 63.9443V78.8115H885.892V63.9443H878.157Z" stroke="#4D5F66" stroke-opacity="0.5" stroke-width="0.5"/>
<path d="M904.528 78.8057V63.9385H896.514V78.8057H904.528Z" stroke="#4D5F66" stroke-opacity="0.5" stroke-width="0.5"/>
<path d="M888.272 63.9443V78.8115H896.007V63.9443H888.272Z" stroke="#4D5F66" stroke-opacity="0.5" stroke-width="0.5"/>
<path d="M914.643 78.8057V63.9385H906.628V78.8057H914.643Z" stroke="#4D5F66" stroke-opacity="0.5" stroke-width="0.5"/>
<path d="M898.388 63.9443V78.8115H906.122V63.9443H898.388Z" stroke="#4D5F66" stroke-opacity="0.5" stroke-width="0.5"/>
<path d="M936.784 78.8057V63.9385H928.77V78.8057H936.784Z" stroke="#4D5F66" stroke-opacity="0.5" stroke-width="0.5"/>
<path d="M920.529 63.9443V78.8115H928.264V63.9443H920.529Z" stroke="#4D5F66" stroke-opacity="0.5" stroke-width="0.5"/>
<path d="M946.905 78.8057V63.9385H938.891V78.8057H946.905Z" stroke="#4D5F66" stroke-opacity="0.5" stroke-width="0.5"/>
<path d="M930.65 63.9443V78.8115H938.385V63.9443H930.65Z" stroke="#4D5F66" stroke-opacity="0.5" stroke-width="0.5"/>
<path d="M957.02 78.8057V63.9385H949.005V78.8057H957.02Z" stroke="#4D5F66" stroke-opacity="0.5" stroke-width="0.5"/>
<path d="M940.771 63.9443V78.8115H948.505V63.9443H940.771Z" stroke="#4D5F66" stroke-opacity="0.5" stroke-width="0.5"/>
<path d="M967.141 78.8057V63.9385H959.126V78.8057H967.141Z" stroke="#4D5F66" stroke-opacity="0.5" stroke-width="0.5"/>
<path d="M950.886 63.9443V78.8115H958.62V63.9443H950.886Z" stroke="#4D5F66" stroke-opacity="0.5" stroke-width="0.5"/>
<path d="M910.4 127.463V117.112H890.147V127.463H910.4Z" stroke="#4D5F66" stroke-opacity="0.5" stroke-width="0.5"/>
<path d="M870.082 117.106V127.457H889.648V117.106H870.082Z" stroke="#4D5F66" stroke-opacity="0.5" stroke-width="0.5"/>
<path d="M935.062 127.463V117.112H914.808V127.463H935.062Z" stroke="#4D5F66" stroke-opacity="0.5" stroke-width="0.5"/>
<path d="M894.737 117.106V127.457H914.303V117.106H894.737Z" stroke="#4D5F66" stroke-opacity="0.5" stroke-width="0.5"/>
<path d="M959.717 127.463V117.112H939.463V127.463H959.717Z" stroke="#4D5F66" stroke-opacity="0.5" stroke-width="0.5"/>
<path d="M919.397 117.106V127.457H938.963V117.106H919.397Z" stroke="#4D5F66" stroke-opacity="0.5" stroke-width="0.5"/>
<path d="M984.37 127.463V117.112H964.117V127.463H984.37Z" stroke="#4D5F66" stroke-opacity="0.5" stroke-width="0.5"/>
<path d="M944.052 117.106V127.457H963.617V117.106H944.052Z" stroke="#4D5F66" stroke-opacity="0.5" stroke-width="0.5"/>
<path d="M977.683 47.8649C977.683 51.5082 980.637 54.4617 984.28 54.4617C987.923 54.4617 990.877 51.5082 990.877 47.8649C990.877 44.2216 987.923 41.2681 984.28 41.2681C980.637 41.2681 977.683 44.2216 977.683 47.8649Z" stroke="#4D5F66" stroke-opacity="0.5" stroke-width="0.5"/>
<path d="M959.425 47.8649C959.425 51.5082 962.378 54.4617 966.021 54.4617C969.665 54.4617 972.618 51.5082 972.618 47.8649C972.618 44.2216 969.665 41.2681 966.021 41.2681C962.378 41.2681 959.425 44.2216 959.425 47.8649Z" stroke="#4D5F66" stroke-opacity="0.5" stroke-width="0.5"/>
<path d="M941.167 47.8649C941.167 51.5082 944.12 54.4617 947.764 54.4617C951.407 54.4617 954.36 51.5082 954.36 47.8649C954.36 44.2216 951.407 41.2681 947.764 41.2681C944.12 41.2681 941.167 44.2216 941.167 47.8649Z" stroke="#4D5F66" stroke-opacity="0.5" stroke-width="0.5"/>
<path d="M922.909 47.8649C922.909 51.5082 925.862 54.4617 929.506 54.4617C933.149 54.4617 936.103 51.5082 936.103 47.8649C936.103 44.2216 933.149 41.2681 929.506 41.2681C925.862 41.2681 922.909 44.2216 922.909 47.8649Z" stroke="#4D5F66" stroke-opacity="0.5" stroke-width="0.5"/>
<path d="M1018.5 95.8752C1016.83 97.5411 1016.83 100.242 1018.5 101.908C1020.17 103.574 1022.87 103.574 1024.53 101.908C1026.2 100.242 1026.2 97.5411 1024.53 95.8752C1022.87 94.2093 1020.17 94.2093 1018.5 95.8752Z" stroke="#4D5F66" stroke-opacity="0.5" stroke-width="0.5"/>
<path d="M907.008 143.301C904.741 144.24 903.665 146.838 904.604 149.105C905.543 151.372 908.141 152.448 910.408 151.509C912.675 150.57 913.751 147.972 912.812 145.705C911.873 143.438 909.275 142.362 907.008 143.301Z" stroke="#4D5F66" stroke-opacity="0.5" stroke-width="0.5"/>
<path d="M892.543 145.651C891.979 148.031 893.451 150.417 895.83 150.981C898.209 151.546 900.596 150.074 901.16 147.695C901.724 145.315 900.253 142.929 897.873 142.365C895.494 141.801 893.107 143.272 892.543 145.651Z" stroke="#4D5F66" stroke-opacity="0.5" stroke-width="0.5"/>
<path d="M881.996 143.3C879.73 144.239 878.653 146.838 879.592 149.104C880.531 151.371 883.13 152.447 885.396 151.509C887.663 150.57 888.739 147.971 887.8 145.704C886.862 143.438 884.263 142.361 881.996 143.3Z" stroke="#4D5F66" stroke-opacity="0.5" stroke-width="0.5"/>
<path d="M869.486 143.296C867.219 144.235 866.143 146.834 867.081 149.1C868.02 151.367 870.619 152.444 872.886 151.505C875.152 150.566 876.229 147.967 875.29 145.7C874.351 143.434 871.752 142.357 869.486 143.296Z" stroke="#4D5F66" stroke-opacity="0.5" stroke-width="0.5"/>
<path d="M899.126 137.71C897.391 139.445 897.391 142.258 899.126 143.993C900.861 145.728 903.674 145.728 905.409 143.993C907.143 142.258 907.143 139.445 905.409 137.71C903.674 135.976 900.861 135.976 899.126 137.71Z" stroke="#4D5F66" stroke-opacity="0.5" stroke-width="0.5"/>
<path d="M888.061 136.747C885.794 137.686 884.718 140.285 885.657 142.552C886.595 144.818 889.194 145.895 891.461 144.956C893.727 144.017 894.804 141.418 893.865 139.152C892.926 136.885 890.327 135.809 888.061 136.747Z" stroke="#4D5F66" stroke-opacity="0.5" stroke-width="0.5"/>
<path d="M873.658 139.117C873.093 141.496 874.565 143.882 876.944 144.447C879.324 145.011 881.71 143.539 882.274 141.16C882.838 138.78 881.367 136.394 878.987 135.83C876.608 135.266 874.222 136.737 873.658 139.117Z" stroke="#4D5F66" stroke-opacity="0.5" stroke-width="0.5"/>
<path d="M966.291 144.262C964.556 145.997 964.556 148.81 966.291 150.545C968.026 152.279 970.839 152.279 972.574 150.545C974.308 148.81 974.308 145.997 972.574 144.262C970.839 142.527 968.026 142.527 966.291 144.262Z" stroke="#4D5F66" stroke-opacity="0.5" stroke-width="0.5"/>
<path d="M955.228 143.3C952.961 144.239 951.885 146.838 952.824 149.104C953.762 151.371 956.361 152.447 958.628 151.509C960.894 150.57 961.971 147.971 961.032 145.704C960.093 143.438 957.494 142.361 955.228 143.3Z" stroke="#4D5F66" stroke-opacity="0.5" stroke-width="0.5"/>
<path d="M940.102 146.393C939.538 148.78 941.017 151.173 943.405 151.737C945.793 152.3 948.186 150.821 948.749 148.433C949.313 146.046 947.834 143.653 945.446 143.09C943.058 142.526 940.666 144.005 940.102 146.393Z" stroke="#4D5F66" stroke-opacity="0.5" stroke-width="0.5"/>
<path d="M930.215 143.293C927.948 144.232 926.872 146.831 927.811 149.098C928.75 151.364 931.348 152.441 933.615 151.502C935.882 150.563 936.958 147.964 936.019 145.698C935.08 143.431 932.482 142.354 930.215 143.293Z" stroke="#4D5F66" stroke-opacity="0.5" stroke-width="0.5"/>
<path d="M961.3 136.747C959.033 137.686 957.957 140.285 958.896 142.552C959.835 144.818 962.433 145.895 964.7 144.956C966.967 144.017 968.043 141.418 967.104 139.152C966.165 136.885 963.567 135.809 961.3 136.747Z" stroke="#4D5F66" stroke-opacity="0.5" stroke-width="0.5"/>
<path d="M947.349 137.713C945.614 139.448 945.614 142.26 947.349 143.995C949.084 145.73 951.896 145.73 953.631 143.995C955.366 142.26 955.366 139.448 953.631 137.713C951.896 135.978 949.084 135.978 947.349 137.713Z" stroke="#4D5F66" stroke-opacity="0.5" stroke-width="0.5"/>
<path d="M936.287 136.746C934.021 137.685 932.944 140.284 933.883 142.551C934.822 144.817 937.421 145.894 939.687 144.955C941.954 144.016 943.03 141.417 942.092 139.151C941.153 136.884 938.554 135.808 936.287 136.746Z" stroke="#4D5F66" stroke-opacity="0.5" stroke-width="0.5"/>
<path d="M895.772 103.15L882.018 91.5893L878.773 103.15H895.772Z" stroke="#4D5F66" stroke-opacity="0.5" stroke-width="0.5"/>
<path d="M869.76 103.15H887.737L881.814 91.5619L869.76 103.15Z" stroke="#4D5F66" stroke-opacity="0.5" stroke-width="0.5"/>
<path d="M924.267 103.15L910.507 91.5892L907.262 103.15H924.267Z" stroke="#4D5F66" stroke-opacity="0.5" stroke-width="0.5"/>
<path d="M898.248 103.15H916.225L910.302 91.5619L898.248 103.15Z" stroke="#4D5F66" stroke-opacity="0.5" stroke-width="0.5"/>
<path d="M952.756 103.15L939.002 91.5891L935.752 103.15H952.756Z" stroke="#4D5F66" stroke-opacity="0.5" stroke-width="0.5"/>
<path d="M926.737 103.15H944.72L938.797 91.5619L926.737 103.15Z" stroke="#4D5F66" stroke-opacity="0.5" stroke-width="0.5"/>
<path d="M1016.66 78.8059H1025.95L1024.17 67.8157L1016.66 78.8059Z" stroke="#4D5F66" stroke-opacity="0.5" stroke-width="0.5"/>
<path d="M1030.99 78.8059L1024.4 67.777L1021.16 78.8059H1030.99Z" stroke="#4D5F66" stroke-opacity="0.5" stroke-width="0.5"/>
<path d="M981.245 103.15L967.491 91.5893L964.246 103.15H981.245Z" stroke="#4D5F66" stroke-opacity="0.5" stroke-width="0.5"/>
<path d="M955.224 103.15H973.208L967.284 91.5619L955.224 103.15Z" stroke="#4D5F66" stroke-opacity="0.5" stroke-width="0.5"/>
<path d="M971.997 119.518H950.426V122.107H971.997V119.518Z" fill="#407BFF"/>
<path opacity="0.2" d="M971.997 119.518H950.426V122.107H971.997V119.518Z" fill="black"/>
<path d="M950.573 120.438H877.459C874.747 120.438 872.549 122.636 872.549 125.348V215.219C872.549 217.931 874.747 220.13 877.459 220.13H950.573C953.285 220.13 955.484 217.931 955.484 215.219V125.348C955.484 122.636 953.285 120.438 950.573 120.438Z" fill="#4D5F66"/>
<path d="M892.735 157.676H824.616C823.656 157.678 822.737 158.06 822.059 158.739C821.381 159.418 821 160.338 821 161.298C820.998 161.774 821.09 162.246 821.27 162.687C821.451 163.128 821.717 163.528 822.053 163.866C822.389 164.203 822.788 164.471 823.228 164.654C823.668 164.837 824.14 164.931 824.616 164.931H892.735V157.676Z" fill="#4D5F66"/>
<path opacity="0.3" d="M892.735 166.918L872.634 176.017V164.908H892.735V166.918Z" fill="#263238"/>
<path opacity="0.7" d="M892.735 157.676H849.349C848.39 157.678 847.47 158.06 846.792 158.739C846.114 159.418 845.733 160.338 845.733 161.298C845.735 162.256 846.116 163.175 846.794 163.853C847.472 164.531 848.391 164.912 849.349 164.914H892.735V157.676Z" fill="white"/>
<path opacity="0.7" d="M950.573 120.438H900.108C897.397 120.438 895.198 122.636 895.198 125.348V215.22C895.198 217.932 897.397 220.13 900.108 220.13H950.573C953.285 220.13 955.483 217.932 955.483 215.22V125.348C955.483 122.636 953.285 120.438 950.573 120.438Z" fill="white"/>
<path d="M854.072 164.914H847.913V220.13H854.072V164.914Z" fill="#4D5F66"/>
<path opacity="0.7" d="M854.072 164.914H847.913V220.13H854.072V164.914Z" fill="white"/>
<path opacity="0.3" d="M854.072 167.309L847.913 168.643V164.908H854.072V167.309Z" fill="#40A0FF"/>
<path opacity="0.3" d="M948.433 132.222H902.243C901.469 132.222 900.841 132.85 900.841 133.625V149.4C900.841 150.174 901.469 150.802 902.243 150.802H948.433C949.208 150.802 949.835 150.174 949.835 149.4V133.625C949.835 132.85 949.208 132.222 948.433 132.222Z" fill="#4D5F66"/>
<path d="M865.823 110.668H832.161L828.749 157.682H869.234L865.823 110.668Z" fill="#4D5F66"/>
<path opacity="0.3" d="M836.628 110.668H832.161L828.749 157.682H837.809L836.628 110.668Z" fill="#263238"/>
<path d="M851.04 116.402C847.896 116.402 845.08 114.194 844.609 111.253C844.493 110.541 844.526 109.813 844.706 109.114C844.885 108.416 845.208 107.762 845.653 107.194C846.171 106.553 846.814 106.024 847.543 105.64C848.272 105.257 849.072 105.026 849.894 104.963C853.271 104.657 856.428 106.956 856.927 110.072C857.042 110.786 857.009 111.515 856.828 112.215C856.647 112.914 856.323 113.569 855.877 114.137C855.361 114.779 854.719 115.308 853.991 115.691C853.262 116.075 852.463 116.305 851.642 116.368C851.438 116.39 851.239 116.402 851.04 116.402ZM850.501 105.934C850.331 105.934 850.155 105.934 849.985 105.934C849.299 105.986 848.632 106.177 848.023 106.495C847.414 106.813 846.876 107.252 846.442 107.785C846.082 108.245 845.82 108.776 845.675 109.342C845.529 109.909 845.503 110.5 845.597 111.077C846.011 113.694 848.685 115.618 851.551 115.357C852.236 115.306 852.904 115.115 853.513 114.797C854.122 114.479 854.66 114.04 855.094 113.507C855.454 113.046 855.716 112.516 855.861 111.949C856.007 111.382 856.033 110.792 855.939 110.214C855.548 107.779 853.163 105.934 850.501 105.934Z" fill="#4D5F66"/>
<path d="M848.514 116.402C848.315 116.402 848.117 116.402 847.912 116.402C847.091 116.339 846.292 116.109 845.564 115.726C844.835 115.342 844.193 114.813 843.678 114.171C843.231 113.603 842.907 112.949 842.727 112.249C842.547 111.549 842.515 110.819 842.633 110.107C843.127 106.984 846.283 104.685 849.661 104.998C850.482 105.06 851.283 105.29 852.012 105.674C852.741 106.057 853.384 106.587 853.901 107.229C854.348 107.795 854.671 108.449 854.851 109.148C855.031 109.847 855.063 110.575 854.946 111.287C854.457 114.194 851.636 116.402 848.514 116.402ZM849.082 105.934C846.414 105.934 844.03 107.779 843.638 110.237C843.544 110.815 843.57 111.405 843.716 111.972C843.861 112.539 844.123 113.069 844.484 113.53C844.917 114.062 845.455 114.501 846.064 114.819C846.673 115.138 847.341 115.328 848.026 115.38C850.893 115.636 853.566 113.717 853.986 111.1C854.081 110.522 854.054 109.931 853.908 109.364C853.761 108.797 853.498 108.267 853.135 107.808C852.702 107.275 852.165 106.836 851.557 106.518C850.949 106.2 850.283 106.009 849.598 105.957C849.377 105.94 849.207 105.934 849.036 105.934H849.082Z" fill="#4D5F66"/>
<path d="M909.259 46.6084H899.269V120.444H909.259V46.6084Z" fill="#4D5F66"/>
<path opacity="0.3" d="M909.259 86.1401H899.269V105.435L909.259 104.203V86.1401Z" fill="#263238"/>
<path opacity="0.3" d="M909.259 47.1138H899.269V52.7279L909.259 51.4961V47.1138Z" fill="#263238"/>
<path d="M878.175 99.8716L875.388 59.426C875.364 59.0852 875.411 58.7432 875.526 58.4213C875.64 58.0994 875.819 57.8045 876.053 57.5548C876.286 57.3051 876.568 57.1061 876.881 56.97C877.194 56.8339 877.532 56.7637 877.874 56.7637H939.981C940.612 56.7622 941.22 57.0006 941.682 57.4307C942.144 57.8608 942.424 58.4503 942.468 59.0797L945.249 99.5253C945.273 99.8663 945.227 100.209 945.113 100.531C944.999 100.853 944.82 101.148 944.586 101.398C944.353 101.648 944.071 101.847 943.757 101.983C943.443 102.119 943.105 102.188 942.763 102.188H880.656C880.025 102.189 879.418 101.95 878.957 101.52C878.496 101.09 878.217 100.501 878.175 99.8716Z" fill="#263238"/>
<path d="M939.265 58.6086H878.691C878.498 58.609 878.307 58.6489 878.13 58.7259C877.954 58.803 877.795 58.9155 877.663 59.0566C877.532 59.1976 877.431 59.3641 877.366 59.5459C877.302 59.7276 877.275 59.9206 877.288 60.1129L879.968 99.0315C879.992 99.3869 880.15 99.7199 880.411 99.9632C880.671 100.207 881.014 100.342 881.37 100.343H941.945C942.138 100.343 942.329 100.304 942.507 100.227C942.684 100.15 942.844 100.038 942.976 99.8969C943.108 99.7558 943.209 99.589 943.274 99.4069C943.339 99.2248 943.366 99.0313 943.352 98.8385L940.673 59.9143C940.647 59.5589 940.488 59.2265 940.226 58.9842C939.965 58.7419 939.622 58.6077 939.265 58.6086Z" fill="#40A0FF"/>
<path opacity="0.8" d="M939.265 58.6086H878.691C878.498 58.609 878.307 58.6489 878.13 58.7259C877.954 58.803 877.795 58.9155 877.663 59.0566C877.532 59.1976 877.431 59.3641 877.366 59.5459C877.302 59.7276 877.275 59.9206 877.288 60.1129L879.968 99.0315C879.992 99.3869 880.15 99.7199 880.411 99.9632C880.671 100.207 881.014 100.342 881.37 100.343H941.945C942.138 100.343 942.329 100.304 942.507 100.227C942.684 100.15 942.844 100.038 942.976 99.8969C943.108 99.7558 943.209 99.589 943.274 99.4069C943.339 99.2248 943.366 99.0313 943.352 98.8385L940.673 59.9143C940.647 59.5589 940.488 59.2265 940.226 58.9842C939.965 58.7419 939.622 58.6077 939.265 58.6086Z" fill="white"/>
<path d="M939.879 119.087H886.712V120.438H939.879V119.087Z" fill="#263238"/>
<path opacity="0.3" d="M925.08 95.7844H885.071L882.852 63.5642H922.86L925.08 95.7844Z" fill="#40A0FF"/>
<path opacity="0.3" d="M936.519 66.4482H925.739L925.54 63.5645H936.32L936.519 66.4482Z" fill="#40A0FF"/>
<path opacity="0.3" d="M937.312 78.0678H926.533L925.971 69.8481H936.751L937.312 78.0678Z" fill="#40A0FF"/>
<path d="M914.017 34.9998H893.916V50.0029H914.017V34.9998Z" fill="#4D5F66"/>
<path opacity="0.3" d="M902.278 34.9998H893.916V50.0029H902.278V34.9998Z" fill="#263238"/>
<path d="M964.837 96.1954L965.965 94.7546C966.175 94.4873 966.446 94.2743 966.755 94.1333C967.064 93.9924 967.402 93.9276 967.742 93.9445L970.959 94.0892C971.592 94.1207 972.209 94.3024 972.758 94.6193C973.308 94.9362 973.774 95.3793 974.118 95.9118L974.546 96.583C972.81 99.1 969.124 100.558 969.124 100.558L968.118 101.091C967.914 101.206 967.689 101.28 967.456 101.308C967.223 101.336 966.987 101.317 966.762 101.253C966.536 101.189 966.325 101.081 966.142 100.935C965.959 100.789 965.806 100.607 965.693 100.402L964.611 98.4115C964.43 98.0601 964.354 97.6634 964.394 97.2698C964.434 96.8763 964.588 96.5029 964.837 96.1954Z" fill="#FF8B7B"/>
<path d="M976.034 67.3395C976.369 67.7503 976.612 68.0396 976.855 68.3868C977.098 68.734 977.341 69.0522 977.579 69.382C978.053 70.0532 978.487 70.736 978.921 71.4188C979.764 72.8025 980.536 74.2277 981.235 75.689C981.594 76.4181 981.918 77.1703 982.248 77.9225C982.578 78.6747 982.856 79.4443 983.122 80.237C983.677 81.8118 984.125 83.422 984.464 85.0569L984.528 85.3231C984.569 85.5132 984.588 85.7073 984.586 85.9017C984.583 86.9358 984.387 87.9603 984.007 88.9221C983.684 89.7194 983.266 90.4751 982.763 91.1729C981.911 92.3193 980.902 93.34 979.766 94.2049C978.749 94.9847 977.669 95.6776 976.537 96.2764C975.422 96.8687 974.261 97.3699 973.065 97.775C972.598 97.9352 972.09 97.9319 971.624 97.7656C971.159 97.5994 970.764 97.28 970.504 96.8598C970.243 96.4396 970.134 95.9435 970.192 95.4528C970.251 94.962 970.474 94.5057 970.826 94.1586L970.971 94.0198C971.682 93.308 972.504 92.5385 973.216 91.7863C973.921 91.0621 974.586 90.2991 975.206 89.5007C975.747 88.8361 976.204 88.1073 976.566 87.3309C976.855 86.6828 976.821 86.1736 976.734 86.1736L976.855 86.9953C976.421 85.7455 975.958 84.5072 975.397 83.2747C974.836 82.0423 974.24 80.833 973.569 79.6294C972.898 78.4259 972.209 77.2455 971.463 76.0883C971.092 75.5096 970.71 74.931 970.305 74.3524L969.727 73.5192L969.194 72.767L969.055 72.5702C968.426 71.6504 968.175 70.5239 968.354 69.424C968.533 68.324 969.128 67.3351 970.016 66.662C970.904 65.9888 972.017 65.6831 973.125 65.8082C974.232 65.9332 975.249 66.4795 975.964 67.3337L976.034 67.3395Z" fill="#FF8B7B"/>
<path d="M968.095 62.4329C966.464 66.1361 966.568 70.7593 971.567 77.83C974.888 78.1946 981.033 73.878 981.033 73.878C981.033 73.878 976.815 62.0452 968.095 62.4329Z" fill="#4D5F66"/>
<path d="M965.312 49.5586C964.346 53.146 963.154 59.7192 965.48 62.1089C965.48 62.1089 962.084 61.5997 954.874 66.0609C952.785 63.0636 954.336 62.1089 954.336 62.1089C958.386 61.1542 958.525 58.1916 958.033 55.4027L965.312 49.5586Z" fill="#FF8B7B"/>
<path d="M950.638 64.7763C951.708 62.4619 954.231 60.2573 955.973 60.5871C957.714 60.9169 958.773 61.4608 959.803 60.5871C960.833 59.7134 963.379 58.4404 964.675 59.8812C966.498 61.8948 969.258 60.4598 968.216 62.6644C967.094 65.0599 950.638 64.7763 950.638 64.7763Z" fill="#3E96F4"/>
<path d="M952.276 42.9737C952.207 43.4655 951.894 43.8474 951.582 43.8243C951.269 43.8011 951.072 43.3845 951.142 42.8927C951.211 42.4008 951.524 42.0247 951.836 42.0479C952.149 42.071 952.351 42.4934 952.276 42.9737Z" fill="#263238"/>
<path d="M951.969 42.0826L950.869 41.6602C950.869 41.6602 951.326 42.6207 951.969 42.0826Z" fill="#263238"/>
<path d="M952.171 43.8997C951.581 44.9892 950.854 45.9985 950.007 46.9027C950.557 47.5508 951.673 47.354 951.673 47.354L952.171 43.8997Z" fill="#FF5652"/>
<path d="M951.46 39.074C951.423 39.0115 951.41 38.9371 951.425 38.8657C951.449 38.794 951.5 38.7342 951.566 38.6987C951.633 38.6631 951.711 38.6546 951.784 38.6748C952.238 38.7761 952.663 38.9815 953.024 39.2746C953.386 39.5678 953.674 39.9408 953.867 40.3644C953.881 40.3987 953.888 40.4358 953.887 40.4731C953.885 40.5103 953.876 40.5468 953.858 40.5799C953.841 40.613 953.817 40.642 953.788 40.6647C953.758 40.6874 953.724 40.7034 953.688 40.7115C953.614 40.7331 953.535 40.7268 953.465 40.6937C953.396 40.6606 953.341 40.6031 953.312 40.5322C953.153 40.1996 952.92 39.9078 952.631 39.6792C952.343 39.4505 952.005 39.291 951.645 39.2129C951.568 39.191 951.502 39.1415 951.46 39.074Z" fill="#263238"/>
<path d="M968.379 42.3604C967.285 48.1466 966.95 50.6173 963.646 53.3947C958.675 57.5782 951.842 55.3678 951.194 49.4601C950.615 44.1483 952.484 35.5732 958.45 33.6579C959.718 33.1933 961.088 33.0786 962.415 33.326C963.743 33.5734 964.98 34.1737 965.996 35.064C967.011 35.9542 967.769 37.1015 968.188 38.3853C968.607 39.6692 968.673 41.0423 968.379 42.3604Z" fill="#FF8B7B"/>
<path d="M955.406 44.2294C953.311 40.9486 951.043 36.852 952.466 34.0051C953.89 31.1583 957.124 31.8353 957.124 31.8353C957.124 31.8353 963.39 28.3173 969.003 32.9C976.444 38.9929 968.465 45.6991 966.492 51.5085C964.311 57.9022 953.062 50.1603 955.406 44.2294Z" fill="#263238"/>
<path d="M987.473 33.5943C984.446 22.3401 971.173 27.513 967.313 34.1729L968.887 34.5838C984.724 24.3653 976.924 39.1375 977.057 45.161C977.191 51.1844 983.162 54.8934 983.162 54.8934C983.162 54.8934 990.493 44.8427 987.473 33.5943Z" fill="#263238"/>
<path d="M983.47 53.4873C981.78 53.4873 979.419 53.1691 977.88 51.6126C976.491 50.2065 976.057 48.0598 976.601 45.2477C976.775 44.3566 977.053 43.3093 977.342 42.2042C978.256 38.7324 979.396 34.4622 977.602 32.9462C976.341 31.8758 973.685 32.2519 969.704 34.0514C969.687 34.0601 969.669 34.0651 969.65 34.0663C969.631 34.0675 969.611 34.0647 969.594 34.0582C969.576 34.0517 969.559 34.0416 969.545 34.0284C969.532 34.0153 969.521 33.9995 969.513 33.982C969.506 33.9645 969.501 33.9457 969.501 33.9266C969.501 33.9075 969.504 33.8886 969.511 33.8708C969.518 33.8531 969.528 33.8369 969.542 33.8232C969.555 33.8095 969.571 33.7986 969.588 33.791C973.731 31.9105 976.416 31.5633 977.787 32.7263C979.72 34.3581 978.609 38.5646 977.625 42.2794C977.33 43.3788 977.047 44.4203 976.885 45.3056C976.364 48.0367 976.769 50.0966 978.088 51.4332C980.547 53.9213 985.431 53.0765 985.483 53.0649C985.502 53.0619 985.522 53.0626 985.54 53.0671C985.559 53.0715 985.577 53.0796 985.592 53.0909C985.608 53.1022 985.621 53.1164 985.631 53.1328C985.641 53.1492 985.648 53.1674 985.651 53.1864C985.654 53.2054 985.653 53.2248 985.649 53.2435C985.644 53.2622 985.636 53.2799 985.625 53.2955C985.614 53.3111 985.599 53.3243 985.583 53.3343C985.567 53.3444 985.548 53.3512 985.529 53.3542C984.847 53.452 984.159 53.4965 983.47 53.4873Z" fill="#263238"/>
<path d="M969.229 31.6965C969.374 30.9617 967.522 31.2683 967.436 31.9222C967.349 32.576 967.106 32.2115 966.382 33.1662C965.659 34.1209 965.561 35.2435 967.933 35.9841C969.438 36.4528 969.669 35.2955 970.439 34.7169C970.861 34.4045 971.335 34.2424 971.642 34.0052C971.718 33.9465 971.774 33.8666 971.803 33.7757C971.833 33.6848 971.835 33.5871 971.809 33.4952C971.783 33.4032 971.73 33.3211 971.657 33.2594C971.584 33.1977 971.494 33.1592 971.399 33.1488C970.427 33.0678 969.079 32.4198 969.229 31.6965Z" fill="#3E96F4"/>
<path d="M956.471 46.2894C956.211 46.7901 955.849 47.231 955.408 47.5837C954.968 47.9365 954.459 48.1933 953.913 48.3377C952.554 48.6386 952.039 47.0705 952.554 45.543C953.016 44.1774 954.289 42.3663 955.586 42.7598C956.882 43.1533 957.206 44.9643 956.471 46.2894Z" fill="#FF8B7B"/>
<path d="M981.23 221.965C985.726 221.293 985.812 220.547 988.225 219.702C990.291 218.973 990.869 219.077 992.536 218.516C993.93 218.047 993.456 216.722 992.536 215.31C992.079 214.605 992.009 213.933 991.506 212.678L984.672 213.69C984.013 215.6 983.776 218.042 979.876 219.436C977.555 220.269 979.419 222.231 981.23 221.965Z" fill="#263238"/>
<path d="M939.557 221.982C944.03 221.982 944.886 221.687 947.403 221.6C949.556 221.525 949.909 221.982 952.09 221.982C953.537 221.982 953.739 220.35 953.207 219.129C952.796 218.18 952.732 217.041 952.432 215.808H946.269C945.158 217.758 942.126 219.205 938.747 219.448C936.317 219.627 937.758 221.982 939.557 221.982Z" fill="#263238"/>
<path d="M944.783 100.142C944.783 100.142 943.892 132.301 945.801 152.727C945.68 171.897 946.27 215.797 946.27 215.797C946.42 216.774 951.559 216.375 952.432 215.797C952.432 215.797 962.066 183.816 957.79 152.727C968.489 120.289 966.18 100.142 966.18 100.142H944.783Z" fill="#A0B1B8"/>
<path d="M951.199 100.142C951.199 100.142 961.649 136.439 965.885 154.266C970.34 172.984 983.579 201.285 984.678 213.69C985.836 214.148 989.533 213.638 991.512 212.678C991.512 212.678 989.701 173.117 978.938 155.093C981.369 110.748 969.333 100.124 969.333 100.124L951.199 100.142Z" fill="#A0B1B8"/>
<path d="M983.788 211.208C983.893 212.058 983.937 212.915 983.921 213.771C983.915 213.845 983.925 213.92 983.949 213.99C983.974 214.06 984.013 214.124 984.063 214.178C984.114 214.233 984.175 214.276 984.243 214.305C984.311 214.335 984.385 214.35 984.459 214.35C987.016 214.35 990.552 213.262 991.668 212.88C991.772 212.846 991.863 212.78 991.927 212.692C991.992 212.604 992.027 212.498 992.027 212.388V209.964C992.027 209.886 992.009 209.81 991.976 209.74C991.943 209.669 991.895 209.607 991.836 209.557C991.776 209.507 991.707 209.47 991.632 209.45C991.557 209.429 991.479 209.425 991.402 209.437L984.204 210.647C984.078 210.672 983.965 210.743 983.888 210.847C983.811 210.951 983.775 211.079 983.788 211.208Z" fill="#407BFF"/>
<path d="M945.564 213.106C945.564 213.772 945.506 214.958 945.442 215.831C945.441 215.971 945.49 216.106 945.58 216.213C945.671 216.319 945.796 216.389 945.934 216.41C948.198 216.596 950.474 216.571 952.733 216.335C952.841 216.325 952.944 216.28 953.024 216.207C953.105 216.134 953.159 216.037 953.179 215.93L953.642 213.54C953.652 213.462 953.646 213.383 953.625 213.307C953.604 213.232 953.568 213.161 953.519 213.1C953.469 213.039 953.408 212.988 953.339 212.952C953.269 212.915 953.193 212.893 953.115 212.886L946.09 212.609C946.023 212.605 945.955 212.615 945.891 212.638C945.827 212.661 945.769 212.697 945.72 212.744C945.67 212.79 945.631 212.846 945.604 212.909C945.578 212.971 945.564 213.038 945.564 213.106Z" fill="#40A0FF"/>
<path d="M943.394 71.2394C943.257 74.9834 943.311 78.732 943.556 82.4705C943.747 87.3483 944.082 92.1451 944.783 100.142H969.334C968.842 93.2271 969.646 85.3462 974.055 69.7871C974.315 68.9733 974.391 68.1116 974.275 67.265C974.159 66.4185 973.855 65.6085 973.386 64.8945C972.917 64.1805 972.294 63.5806 971.562 63.1386C970.831 62.6966 970.01 62.4239 969.16 62.3402C968.188 62.2419 967.152 62.1609 966.093 62.1088C962.383 61.8453 958.659 61.8453 954.949 62.1088C953.734 62.2187 952.478 62.3749 951.28 62.5427C949.163 62.8571 947.22 63.8955 945.782 65.4811C944.344 67.0667 943.5 69.1016 943.394 71.2394Z" fill="white"/>
<path d="M969.211 97.1038C964.299 98.3594 956.823 98.7181 944.551 97.4104C944.846 103.92 941.981 147.693 941.981 147.693C941.981 147.693 966.862 153.161 980.928 145.737C981.837 112.657 969.211 97.1038 969.211 97.1038Z" fill="#4D5F66"/>
<path opacity="0.2" d="M959.82 123.501C959.82 123.501 966.573 117.211 969.906 112.918C969.64 117.419 965.618 121.458 959.82 123.501Z" fill="black"/>
<path d="M922.569 71.2046L924.201 72.0321C924.507 72.1841 924.772 72.4075 924.973 72.6835C925.174 72.9594 925.307 73.2798 925.358 73.6175L925.838 76.7999C925.938 77.429 925.885 78.0728 925.684 78.6771C925.482 79.2813 925.138 79.8283 924.681 80.2716L924.102 80.8503C921.302 79.6583 919.149 76.3081 919.149 76.3081L918.432 75.4228C918.278 75.2451 918.161 75.0385 918.088 74.8152C918.015 74.5918 917.987 74.3561 918.006 74.1218C918.025 73.8875 918.09 73.6594 918.198 73.4506C918.306 73.2418 918.454 73.0566 918.635 72.9058L920.37 71.4592C920.673 71.2093 921.042 71.0523 921.432 71.0072C921.822 70.962 922.217 71.0306 922.569 71.2046Z" fill="#FF8B7B"/>
<path d="M951.876 71.7834C951.697 72.281 951.564 72.6282 951.407 73.0274C951.251 73.4267 951.083 73.7854 950.921 74.1847C950.597 74.9369 950.239 75.6601 949.874 76.3834C949.137 77.8306 948.322 79.2368 947.432 80.5958C946.993 81.2786 946.524 81.9498 946.049 82.6152C945.575 83.2806 945.066 83.9286 944.528 84.5593C943.471 85.8518 942.326 87.0698 941.102 88.2047L940.94 88.3609C940.793 88.5005 940.632 88.6246 940.46 88.7312C939.751 89.1715 938.966 89.4739 938.145 89.6223C937.462 89.7478 936.765 89.7751 936.074 89.7033C935.022 89.5774 933.996 89.2925 933.03 88.8585C931.528 88.1659 930.121 87.2809 928.847 86.2258C927.687 85.2786 926.593 84.254 925.572 83.1591C924.562 82.0891 923.621 80.9566 922.754 79.7683C922.454 79.3568 922.307 78.8529 922.341 78.3445C922.374 77.8361 922.584 77.3554 922.935 76.9863C923.287 76.6172 923.756 76.3831 924.262 76.3247C924.768 76.2663 925.279 76.3875 925.705 76.6669L925.803 76.7306C926.88 77.4307 928.019 78.1945 929.13 78.8773C930.241 79.56 931.364 80.2255 932.463 80.7867C933.448 81.318 934.488 81.7391 935.565 82.0423C935.877 82.14 936.206 82.1715 936.531 82.1349C936.606 82.1349 936.6 82.0771 936.531 82.0771C936.394 82.0814 936.259 82.117 936.138 82.1812L935.501 82.7135C936.346 81.6952 937.168 80.6536 937.926 79.5369C938.683 78.4202 939.418 77.2745 940.095 76.0652C940.772 74.8559 941.432 73.6639 942.039 72.4256C942.346 71.8123 942.618 71.1874 942.925 70.5683L943.336 69.6425L943.706 68.8035L943.804 68.5836C944.26 67.56 945.093 66.7523 946.131 66.3294C947.168 65.9065 948.329 65.9011 949.37 66.3145C950.412 66.7279 951.253 67.5279 951.718 68.5472C952.182 69.5665 952.235 70.7261 951.865 71.7834H951.876Z" fill="#FF8B7B"/>
<path d="M951.958 62.4502C947.948 62.971 944.048 65.459 940.594 73.4093C942.006 76.4413 948.88 79.4675 948.88 79.4675C948.88 79.4675 956.807 69.6888 951.958 62.4502Z" fill="#4D5F66"/>
</g>
</svg>
