<svg width="48" height="48" viewBox="0 0 48 48" fill="none" xmlns="http://www.w3.org/2000/svg">
<path d="M0 8C0 3.58172 3.58172 0 8 0H40C44.4183 0 48 3.58172 48 8V40C48 44.4183 44.4183 48 40 48H8C3.58172 48 0 44.4183 0 40V8Z" fill="#F5F5F5"/>
<path d="M36 35H16V33.5C23.9755 32.3971 28.4077 32.0014 36 32V35ZM35.9902 18.6543L34.4258 21.1055L33.0156 20.2061V28.2451C33.9616 28.2374 34.9519 28.2402 35.9971 28.2578V30.5C28.565 30.6627 19.4959 31.1767 12.6914 33V31C18.6806 29.6283 22.8972 28.771 28.0684 28.4209V26.3926C28.0682 24.1467 26.2411 22.3193 23.9951 22.3193C21.7491 22.3194 19.9221 24.1467 19.9219 26.3926V29.1338L14.9746 29.3877V20.2061L13.5645 21.1055L12 18.6543L23.9951 11L35.9902 18.6543ZM23.9863 24.5C24.6285 24.5002 25.1513 25.0226 25.1514 25.665V28.1387L22.8203 28.2578V25.665C22.8203 25.0226 23.3438 24.5 23.9863 24.5Z" fill="#4D5F66"/>
</svg>
