<svg width="42" height="42" viewBox="0 0 42 42" fill="none" xmlns="http://www.w3.org/2000/svg">
<path d="M6 0.700195H29.0146C30.4203 0.700195 31.7688 1.25803 32.7627 2.25195L36.5049 5.99512L39.748 9.2373C40.742 10.2312 41.2998 11.5797 41.2998 12.9854V36C41.2998 38.9271 38.9271 41.2998 36 41.2998H6C3.07289 41.2998 0.700195 38.9271 0.700195 36V6C0.700195 3.07289 3.07289 0.700196 6 0.700195Z" stroke="#3E96F4" stroke-width="1.4"/>
<path d="M7.5 34.5H22" stroke="#3E96F4" stroke-width="1.4" stroke-linecap="round"/>
<path d="M11.8767 12.8347C11.8767 13.8655 11.0211 14.7012 9.96567 14.7012C8.91027 14.7012 8.05469 13.8655 8.05469 12.8347C8.05469 11.8038 8.91027 10.9682 9.96567 10.9682C11.0211 10.9682 11.8767 11.8038 11.8767 12.8347Z" stroke="#3E96F4" stroke-width="1.2" stroke-miterlimit="10" stroke-linecap="round" stroke-linejoin="round"/>
<path d="M19.8924 7.91283C19.8924 8.94373 19.0367 9.7793 17.9814 9.7793C16.9259 9.7793 16.0703 8.94373 16.0703 7.91283C16.0703 6.882 16.9259 6.04635 17.9814 6.04635C19.0367 6.04635 19.8924 6.882 19.8924 7.91283Z" stroke="#3E96F4" stroke-width="1.2" stroke-miterlimit="10" stroke-linecap="round" stroke-linejoin="round"/>
<path d="M27.908 13.0691C27.908 14.0999 27.0524 14.9355 25.997 14.9355C24.9415 14.9355 24.0859 14.0999 24.0859 13.0691C24.0859 12.0382 24.9415 11.2026 25.997 11.2026C27.0524 11.2026 27.908 12.0382 27.908 13.0691Z" stroke="#3E96F4" stroke-width="1.2" stroke-miterlimit="10" stroke-linecap="round" stroke-linejoin="round"/>
<path d="M20 9L24.5 12" stroke="#3E96F4" stroke-width="1.2" stroke-miterlimit="10" stroke-linecap="round" stroke-linejoin="round"/>
<path d="M12 11.6406L16 8.89062" stroke="#3E96F4" stroke-width="1.2" stroke-miterlimit="10" stroke-linecap="round" stroke-linejoin="round"/>
<path d="M12.0333 17.5859H7.89964C7.76258 17.5859 7.63114 17.6391 7.53422 17.7338C7.43729 17.8284 7.38283 17.9568 7.38281 18.0906V29.2021H12.5501V18.0906C12.5501 18.0244 12.5367 17.9587 12.5108 17.8975C12.4848 17.8362 12.4467 17.7806 12.3987 17.7337C12.3508 17.6869 12.2938 17.6497 12.2311 17.6243C12.1684 17.599 12.1012 17.5859 12.0333 17.5859Z" stroke="#3E96F4" stroke-width="1.2" stroke-miterlimit="10" stroke-linecap="round" stroke-linejoin="round"/>
<path d="M20.1974 13.6642H16.0638C15.9267 13.6642 15.7952 13.7174 15.6983 13.812C15.6014 13.9067 15.5469 14.0351 15.5469 14.169V29.2021H20.7142V14.169C20.7142 14.0351 20.6597 13.9067 20.5628 13.8121C20.4659 13.7174 20.3345 13.6642 20.1974 13.6642Z" stroke="#3E96F4" stroke-width="1.2" stroke-miterlimit="10" stroke-linecap="round" stroke-linejoin="round"/>
<path d="M28.2108 18.2021H24.2111C24.0785 18.2021 23.9513 18.2271 23.8575 18.2716C23.7637 18.3161 23.711 18.3764 23.7109 18.4392V29.2021H28.7109V18.4392C28.7109 18.3764 28.6582 18.3161 28.5644 18.2716C28.4707 18.2271 28.3435 18.2021 28.2108 18.2021Z" stroke="#3E96F4" stroke-width="1.2" stroke-miterlimit="10" stroke-linecap="round" stroke-linejoin="round"/>
</svg>
