<svg width="42" height="42" viewBox="0 0 42 42" fill="none" xmlns="http://www.w3.org/2000/svg">
<path d="M6 0.700195H29.0146C30.4203 0.700195 31.7688 1.25803 32.7627 2.25195L36.5049 5.99512L39.748 9.2373C40.742 10.2312 41.2998 11.5797 41.2998 12.9854V36C41.2998 38.9271 38.9271 41.2998 36 41.2998H6C3.07289 41.2998 0.700195 38.9271 0.700195 36V6C0.700195 3.07289 3.07289 0.700196 6 0.700195Z" stroke="#3E96F4" stroke-width="1.4"/>
<path d="M7.5 34.5H22" stroke="#3E96F4" stroke-width="1.4" stroke-linecap="round"/>
<path d="M7.5 30H35.5" stroke="#3E96F4" stroke-width="1.4" stroke-linecap="round"/>
<path d="M8 8V25" stroke="#3E96F4" stroke-width="1.4" stroke-linecap="round"/>
<path d="M12 8V21.6" stroke="#3E96F4" stroke-width="1.4" stroke-linecap="round"/>
<path d="M16 8V21.6" stroke="#3E96F4" stroke-width="1.4" stroke-linecap="round"/>
<path d="M20 8V21.6" stroke="#3E96F4" stroke-width="1.4" stroke-linecap="round"/>
<path d="M24 8V21.6" stroke="#3E96F4" stroke-width="1.4" stroke-linecap="round"/>
<path d="M28 8V21.6" stroke="#3E96F4" stroke-width="1.4" stroke-linecap="round"/>
<path d="M32 8V25" stroke="#3E96F4" stroke-width="1.4" stroke-linecap="round"/>
</svg>
