<svg width="56" height="56" viewBox="0 0 56 56" fill="none" xmlns="http://www.w3.org/2000/svg">
<rect width="56" height="56" rx="8" fill="#F0F7FF"/>
<path d="M14.191 28C14.3821 28.0001 14.5379 28.1525 14.5417 28.3418C14.6317 31.923 16.1201 35.1571 18.482 37.5186C20.9183 39.9542 24.2841 41.4618 28.0009 41.4619C30.0203 41.4619 31.9345 41.0183 33.6477 40.2266C34.9653 39.6173 36.1762 38.8001 37.2335 37.8057C37.3148 37.7294 37.3577 37.6353 37.3596 37.5234C37.3613 37.4143 37.3221 37.3173 37.2423 37.2393L35.3571 35.3525C35.2403 35.2376 35.2084 35.0724 35.2702 34.9219C35.3321 34.7713 35.4724 34.6797 35.6355 34.6797H41.7639C41.9819 34.6797 42.1587 34.8566 42.1595 35.0732V41.1982C42.1595 41.3612 42.0658 41.5016 41.9153 41.5635C41.7647 41.6272 41.5996 41.5935 41.4846 41.4785L39.5905 39.585C39.44 39.4334 39.194 39.4316 39.0396 39.5781C37.7728 40.7865 36.3125 41.7869 34.7095 42.5273C32.6669 43.4734 30.3929 44 28.0009 44C23.5821 43.9999 19.5823 42.2094 16.6847 39.3145C13.8678 36.4963 12.0938 32.6354 12 28.3594C11.9988 28.2606 12.0322 28.1758 12.1016 28.1064C12.1691 28.0359 12.2542 28 12.3517 28H14.191Z" fill="#3E96F4"/>
<path d="M35.7771 32.2852C35.777 32.4144 35.7131 32.5262 35.6013 32.5898L28.5186 36.6787V28.2959L35.7771 24.1055V32.2852Z" fill="#3E96F4"/>
<path d="M22.7067 25.5381V28.2695H22.7086C22.7087 28.3599 22.7327 28.4491 22.778 28.5273C22.8234 28.6056 22.889 28.6707 22.9675 28.7158L24.7052 29.7188C24.7902 29.7787 24.8932 29.8145 25.0051 29.8145C25.2899 29.8144 25.5206 29.5836 25.5208 29.2988V27.1621L27.4861 28.2959V36.6777L20.4024 32.5898C20.2906 32.5262 20.2267 32.4144 20.2266 32.2852L20.2256 24.1074L22.7067 25.5381Z" fill="#3E96F4"/>
<path d="M32.2607 21.4844L24.7472 25.8203C24.5822 25.9159 24.4903 26.0898 24.4903 26.2666H24.4883V28.4062L23.7401 27.9736V25.5439L23.9296 25.4336C23.9402 25.428 23.9482 25.422 23.957 25.417L31.5164 21.0537L32.2607 21.4844Z" fill="#3E96F4"/>
<path d="M28.0009 12C32.4216 12 36.422 13.7903 39.319 16.6865C42.136 19.5028 43.9073 23.3665 43.9998 27.6426C44.0029 27.7399 43.9703 27.8249 43.9011 27.8955C43.8324 27.9642 43.7485 28 43.6491 28H41.8108C41.6214 28 41.4651 27.8475 41.4601 27.6582C41.372 24.0771 39.8836 20.8429 37.5217 18.4814C35.086 16.0457 31.7197 14.5401 28.0009 14.54C25.9814 14.54 24.0692 14.9817 22.356 15.7734C21.0273 16.3883 19.817 17.2077 18.7682 18.1943C18.6889 18.2706 18.647 18.3647 18.6452 18.4766C18.6434 18.5875 18.6816 18.6828 18.7594 18.7607L20.6466 20.6475C20.7616 20.7624 20.7953 20.9275 20.7316 21.0781C20.6697 21.2287 20.5314 21.3203 20.3682 21.3203H14.2398C14.0219 21.3201 13.8453 21.1438 13.8452 20.9277V14.8008C13.8452 14.6377 13.9388 14.4974 14.0894 14.4355C14.24 14.3737 14.4032 14.4057 14.5182 14.5205L16.4142 16.4141C16.5648 16.5658 16.8107 16.5677 16.9651 16.4209C18.2319 15.2131 19.6915 14.2125 21.2952 13.4727C23.3377 12.5267 25.611 12.0001 28.0009 12Z" fill="#3E96F4"/>
<path d="M35.2634 23.2158L28.0009 27.4062L26.0297 26.2695L33.0343 22.2246L33.2912 22.0771L35.2634 23.2158Z" fill="#3E96F4"/>
<path d="M27.826 19.125C27.9378 19.0615 28.0656 19.0613 28.1767 19.125L30.4888 20.459L23.4422 24.5254C23.4334 24.531 23.4226 24.537 23.4139 24.542L23.2283 24.6504L20.7423 23.2148L27.826 19.125Z" fill="#3E96F4"/>
</svg>
