<svg width="48" height="48" viewBox="0 0 48 48" fill="none" xmlns="http://www.w3.org/2000/svg">
<rect width="48" height="48" rx="8" fill="white"/>
<path d="M1.64324 24C1.78661 24.0001 1.90342 24.1144 1.90624 24.2563C1.97374 26.9422 3.09005 29.3679 4.86153 31.1389C6.68871 32.9656 9.21308 34.0963 12.0007 34.0964C13.5153 34.0964 14.9509 33.7637 16.2358 33.1699C17.224 32.713 18.1321 32.1001 18.9252 31.3542C18.9861 31.2971 19.0183 31.2265 19.0197 31.1426C19.021 31.0607 18.9916 30.9879 18.9318 30.9294L17.5178 29.5144C17.4302 29.4282 17.4063 29.3043 17.4526 29.1914C17.4991 29.0785 17.6043 29.0098 17.7266 29.0098H22.3229C22.4864 29.0098 22.619 29.1425 22.6196 29.3049V33.8987C22.6196 34.0209 22.5493 34.1262 22.4365 34.1726C22.3235 34.2204 22.1997 34.1951 22.1134 34.1089L20.6929 32.6887C20.58 32.575 20.3955 32.5737 20.2797 32.6836C19.3296 33.5899 18.2344 34.3402 17.0321 34.8955C15.5002 35.6051 13.7946 36 12.0007 36C8.68661 35.9999 5.68669 34.6571 3.51355 32.4858C1.40084 30.3722 0.0703534 27.4765 2.53191e-05 24.2695C-0.00091222 24.1955 0.0241818 24.1319 0.0762152 24.0798C0.126838 24.0269 0.190644 24 0.26376 24H1.64324Z" fill="#3E96F4"/>
<path d="M17.8329 27.2139C17.8328 27.3108 17.7848 27.3946 17.701 27.4424L12.3889 30.509V24.2219L17.8329 21.0791V27.2139Z" fill="#3E96F4"/>
<path d="M8.03 22.1536V24.2021H8.03147C8.03156 24.2699 8.04951 24.3368 8.08348 24.3955C8.11754 24.4542 8.16673 24.5031 8.22561 24.5369L9.52889 25.2891C9.59264 25.3341 9.66989 25.3608 9.7538 25.3608C9.96745 25.3608 10.1405 25.1877 10.1406 24.9741V23.3716L11.6146 24.2219V30.5083L6.30181 27.4424C6.21798 27.3946 6.17003 27.3108 6.16994 27.2139L6.16921 21.0806L8.03 22.1536Z" fill="#3E96F4"/>
<path d="M15.1955 19.1133L9.56039 22.3652C9.43664 22.4369 9.36772 22.5673 9.36772 22.7H9.36626V24.3047L8.80509 23.9802V22.158L8.94721 22.0752C8.95518 22.071 8.96116 22.0665 8.96772 22.0627L14.6373 18.7903L15.1955 19.1133Z" fill="#3E96F4"/>
<path d="M12.0007 12C15.3162 12 18.3165 13.3427 20.4893 15.5149C22.602 17.6271 23.9305 20.5249 23.9998 23.7319C24.0022 23.805 23.9778 23.8687 23.9259 23.9216C23.8743 23.9732 23.8114 24 23.7368 24H22.3581C22.2161 24 22.0989 23.8857 22.0951 23.7437C22.029 21.0578 20.9127 18.6321 19.1413 16.8611C17.3145 15.0343 14.7898 13.9051 12.0007 13.905C10.4861 13.905 9.0519 14.2363 7.767 14.8301C6.77047 15.2912 5.86272 15.9058 5.07618 16.6458C5.01668 16.7029 4.98528 16.7736 4.98387 16.8574C4.98253 16.9406 5.01122 17.0121 5.06958 17.0706L6.48496 18.4856C6.5712 18.5718 6.59648 18.6957 6.54869 18.8086C6.50229 18.9215 6.39852 18.9902 6.27617 18.9902H1.67987C1.51641 18.9901 1.38394 18.8578 1.3839 18.6958V14.1006C1.3839 13.9783 1.45409 13.8731 1.56705 13.8267C1.67996 13.7803 1.80241 13.8043 1.88866 13.8904L3.31062 15.3105C3.42359 15.4244 3.60803 15.4258 3.72381 15.3157C4.67393 14.4098 5.76865 13.6594 6.9714 13.1045C8.50324 12.395 10.2082 12.0001 12.0007 12Z" fill="#3E96F4"/>
<path d="M17.4475 20.4119L12.0007 23.5547L10.5223 22.7021L15.7757 19.6685L15.9684 19.5579L17.4475 20.4119Z" fill="#3E96F4"/>
<path d="M11.8695 17.3438C11.9534 17.2961 12.0492 17.296 12.1325 17.3438L13.8666 18.3442L8.58165 21.394C8.57509 21.3983 8.56696 21.4027 8.5604 21.4065L8.42121 21.4878L6.55675 20.4111L11.8695 17.3438Z" fill="#3E96F4"/>
</svg>
