<svg width="20" height="20" viewBox="0 0 20 20" fill="none" xmlns="http://www.w3.org/2000/svg">
<path d="M20 10C20 15.514 15.514 20 10 20C4.48604 20 0 15.514 0 10C0 9.65458 0.279583 9.375 0.625 9.375C0.970417 9.375 1.25 9.65458 1.25 10C1.25 14.8248 5.17521 18.75 10 18.75C14.8248 18.75 18.75 14.8248 18.75 10C18.75 5.17521 14.8248 1.25 10 1.25C7.67438 1.25 5.51542 2.15396 3.89125 3.75H6.25C6.59542 3.75 6.875 4.02958 6.875 4.375C6.875 4.72042 6.59542 5 6.25 5H2.5C2.15458 5 1.875 4.72042 1.875 4.375V0.625C1.875 0.279583 2.15458 0 2.5 0C2.84542 0 3.125 0.279583 3.125 0.625V2.75708C4.96896 0.997083 7.39188 0 10 0C15.514 0 20 4.48604 20 10Z" fill="#505050"/>
<path fill-rule="evenodd" clip-rule="evenodd" d="M10.7717 4.21035C10.4948 4.07201 10.1895 4 9.88002 4C9.57051 4 9.26525 4.07201 8.98837 4.21035L4.65616 6.36402L9.88974 9.31496L15.342 6.49278L10.7717 4.21035Z" fill="#505050"/>
<path fill-rule="evenodd" clip-rule="evenodd" d="M4 11.9114C4.00149 12.2751 4.10212 12.6315 4.29109 12.9423C4.48007 13.2531 4.75021 13.5065 5.07246 13.6752L9.49993 15.9929V10.3451L4 7.2442V11.9114Z" fill="#505050"/>
<path fill-rule="evenodd" clip-rule="evenodd" d="M10.5001 10.3451V16L14.9275 13.6823C15.2498 13.5136 15.5199 13.2602 15.7089 12.9494C15.8979 12.6386 15.9985 12.2822 16 11.9184V7.2442L10.5001 10.3451Z" fill="#505050"/>
</svg>
