<svg width="48" height="48" viewBox="0 0 48 48" fill="none" xmlns="http://www.w3.org/2000/svg">
<rect width="48" height="48" rx="8" fill="white"/>
<path fill-rule="evenodd" clip-rule="evenodd" d="M17.999 24C19.5903 24 21.118 24.6316 22.2432 25.7568C23.3682 26.8819 23.9999 28.4089 24 30C23.9999 31.1864 23.6474 32.3465 22.9883 33.333C22.3291 34.3196 21.3921 35.0889 20.2959 35.543C19.1996 35.997 17.9929 36.1162 16.8291 35.8848C15.6654 35.6532 14.5959 35.0821 13.7568 34.2432C12.9178 33.4042 12.3468 32.3346 12.1152 31.1709C11.8837 30.0071 12.003 28.8004 12.457 27.7041C12.9111 26.6079 13.6804 25.671 14.667 25.0117C15.6534 24.3527 16.8127 24.0002 17.999 24ZM20.668 27.9951C20.58 27.9957 20.4922 28.0135 20.4111 28.0479C20.3301 28.0823 20.2559 28.1314 20.1943 28.1943L17.333 31.0576L16.1377 29.8623C16.0123 29.7398 15.8433 29.6709 15.668 29.6719C15.4927 29.673 15.3242 29.7432 15.2002 29.8672C15.0763 29.9912 15.0069 30.1596 15.0059 30.335C15.0049 30.5103 15.0728 30.6792 15.1953 30.8047L16.8623 32.4707C16.9242 32.5326 16.9973 32.5827 17.0781 32.6162C17.1588 32.6496 17.2457 32.667 17.333 32.667C17.4203 32.667 17.5072 32.6496 17.5879 32.6162C17.6688 32.5827 17.7428 32.5326 17.8047 32.4707L21.1387 29.1387C21.2016 29.0772 21.2507 29.0029 21.2852 28.9219C21.3195 28.8409 21.3373 28.753 21.3379 28.665C21.3383 28.577 21.3215 28.4887 21.2881 28.4072C21.2546 28.3259 21.2058 28.2517 21.1436 28.1895C21.0814 28.1273 21.0071 28.0784 20.9258 28.0449C20.8443 28.0115 20.756 27.9947 20.668 27.9951Z" fill="#3E96F4"/>
<path fill-rule="evenodd" clip-rule="evenodd" d="M17.5811 12C18.6604 12 19.535 12.875 19.5352 13.9531V23.1709C19.041 23.0603 18.5275 23 18 23C14.134 23 11 26.134 11 30C11 32.1471 11.9674 34.0675 13.4893 35.3516L12.8066 35.8428C12.6534 35.9531 12.4669 36.0081 12.2783 35.999C12.0896 35.9898 11.9095 35.9167 11.7676 35.792L9.76758 34.043L7.7666 35.792C7.62465 35.9167 7.44458 35.9899 7.25586 35.999C7.06719 36.0081 6.88079 35.9532 6.72754 35.8428L4.09473 33.9521L1.30957 35.8535C1.18381 35.9394 1.03681 35.9894 0.884766 35.998C0.732712 36.0067 0.580984 35.9734 0.446289 35.9023C0.311729 35.8313 0.19873 35.725 0.120117 35.5947C0.041569 35.4645 0.000142562 35.3152 0 35.1631V13.9531C0.000190839 12.8751 0.873969 12.0002 1.95312 12H17.5811ZM5.30273 25.3955C5.08069 25.3955 4.86697 25.4836 4.70996 25.6406C4.55312 25.7976 4.46486 26.0105 4.46484 26.2324C4.46484 26.4543 4.55314 26.6672 4.70996 26.8242C4.86697 26.9812 5.08069 27.0693 5.30273 27.0693H9.76758C9.98955 27.0693 10.2024 26.9812 10.3594 26.8242C10.5163 26.6672 10.6045 26.4544 10.6045 26.2324C10.6045 26.0104 10.5163 25.7976 10.3594 25.6406C10.2024 25.4837 9.98955 25.3956 9.76758 25.3955H5.30273ZM5.30273 20.9307C5.08069 20.9307 4.86697 21.0188 4.70996 21.1758C4.55318 21.3328 4.46484 21.5457 4.46484 21.7676C4.46489 21.9895 4.55311 22.2024 4.70996 22.3594C4.86697 22.5164 5.08069 22.6045 5.30273 22.6045H14.2324C14.4544 22.6045 14.6672 22.5163 14.8242 22.3594C14.9812 22.2024 15.0693 21.9896 15.0693 21.7676C15.0693 21.5456 14.9812 21.3328 14.8242 21.1758C14.6672 21.0188 14.4545 20.9307 14.2324 20.9307H5.30273ZM5.30273 16.4648C5.08069 16.4648 4.86697 16.553 4.70996 16.71C4.55295 16.867 4.46484 17.0807 4.46484 17.3027C4.46496 17.5246 4.55309 17.7376 4.70996 17.8945C4.86697 18.0515 5.08069 18.1396 5.30273 18.1396H14.2324C14.4543 18.1396 14.6672 18.0514 14.8242 17.8945C14.9811 17.7376 15.0692 17.5246 15.0693 17.3027C15.0693 17.0807 14.9812 16.867 14.8242 16.71C14.6672 16.5531 14.4543 16.4648 14.2324 16.4648H5.30273Z" fill="#3E96F4"/>
</svg>
