<svg width="17" height="18" viewBox="0 0 17 18" fill="none" xmlns="http://www.w3.org/2000/svg">
<path d="M16.2781 4.41413L15.261 3.40113C15.113 3.25384 14.9373 3.18018 14.7338 3.18018C14.5306 3.18018 14.3547 3.25384 14.2069 3.40113L8.2246 9.35883L5.79305 6.93708C5.64508 6.78969 5.46936 6.71613 5.26602 6.71613C5.06265 6.71613 4.88699 6.78969 4.739 6.93708L3.72196 7.94995C3.57403 8.09727 3.5 8.27227 3.5 8.47491C3.5 8.67745 3.57403 8.85238 3.72196 8.99977L7.69771 12.9592C7.84567 13.1066 8.02139 13.1802 8.22473 13.1802C8.42807 13.1802 8.60376 13.1067 8.75176 12.9592L16.278 5.46382C16.4259 5.31653 16.5 5.1415 16.5 4.93896C16.5 4.73642 16.4261 4.56142 16.2781 4.41413Z" fill="#3E81FF"/>
<path fill-rule="evenodd" clip-rule="evenodd" d="M4.5 1.68018C2.567 1.68018 1 3.24718 1 5.18018V13.1802C1 15.1132 2.567 16.6802 4.5 16.6802H12.5C14.433 16.6802 16 15.1132 16 13.1802V9.18018H17V13.1802C17 15.6655 14.9853 17.6802 12.5 17.6802H4.5C2.01472 17.6802 0 15.6655 0 13.1802V5.18018C0 2.69489 2.01472 0.680176 4.5 0.680176H12.5V1.68018H4.5Z" fill="#99A8B5"/>
</svg>
