<svg width="64" height="63" viewBox="0 0 64 63" fill="none" xmlns="http://www.w3.org/2000/svg">
<path fill-rule="evenodd" clip-rule="evenodd" d="M58.8396 2.06452V27.871H60.9041V1.03226C60.9041 0.758486 60.7953 0.495927 60.6017 0.302341C60.4081 0.108755 60.1456 0 59.8718 0H4.1299C3.85613 0 3.59357 0.108755 3.39999 0.302341C3.2064 0.495927 3.09764 0.758486 3.09764 1.03226V27.871H5.16216V2.06452H58.8396ZM12.3871 25.8065C11.3663 25.8065 10.3684 25.5038 9.51965 24.9366C8.67088 24.3695 8.00934 23.5634 7.6187 22.6203C7.22805 21.6772 7.12584 20.6395 7.32499 19.6383C7.52414 18.6371 8.0157 17.7174 8.73752 16.9956C9.45934 16.2738 10.379 15.7822 11.3802 15.5831C12.3814 15.3839 13.4191 15.4861 14.3622 15.8768C15.3053 16.2674 16.1114 16.9289 16.6786 17.7777C17.2457 18.6265 17.5484 19.6244 17.5484 20.6452C17.5468 22.0135 17.0025 23.3254 16.0349 24.293C15.0673 25.2605 13.7555 25.8048 12.3871 25.8065ZM12.3871 17.5484C11.7746 17.5484 11.1759 17.73 10.6666 18.0703C10.1574 18.4106 9.76045 18.8942 9.52606 19.4601C9.29167 20.026 9.23035 20.6486 9.34984 21.2493C9.46933 21.85 9.76426 22.4018 10.1974 22.8349C10.6304 23.268 11.1822 23.563 11.783 23.6824C12.3837 23.8019 13.0063 23.7406 13.5722 23.5062C14.1381 23.2718 14.6217 22.8749 14.962 22.3657C15.3023 21.8564 15.4839 21.2577 15.4839 20.6452C15.4839 19.8239 15.1576 19.0362 14.5769 18.4554C13.9961 17.8747 13.2084 17.5484 12.3871 17.5484ZM9.29033 47.4839H1.03227C0.758499 47.4839 0.49594 47.3751 0.302354 47.1815C0.108768 46.9879 1.27143e-05 46.7254 1.27143e-05 46.4516C-0.00303697 43.5925 0.542569 40.7593 1.60724 38.1058L4.97962 29.6733C5.43084 28.5457 6.2626 27.6115 7.33056 27.0331C8.39853 26.4546 9.63532 26.2682 10.8263 26.5063C11.5206 26.6462 12.1792 26.926 12.7618 27.3287C13.3444 27.7314 13.839 28.2485 14.2152 28.8485L18.1677 35.1752L23.0194 35.8679C23.8323 35.9829 24.5713 36.402 25.0874 37.0405C25.6034 37.679 25.8582 38.4895 25.8001 39.3084C25.7421 40.1274 25.3757 40.8939 24.7747 41.4532C24.1738 42.0126 23.3831 42.3233 22.5621 42.3226H14.4516C14.2598 42.3227 14.0717 42.2693 13.9085 42.1685C13.7454 42.0677 13.6135 41.9233 13.5277 41.7517L11.8163 38.3288L10.305 46.6364C10.2618 46.8741 10.1366 47.089 9.95116 47.2439C9.76575 47.3988 9.5319 47.4837 9.29033 47.4839ZM2.09033 45.4194H8.4284L10.3401 34.912C10.379 34.699 10.4839 34.5036 10.64 34.3534C10.7961 34.2033 10.9954 34.1061 11.2098 34.0755C11.4242 34.0449 11.6428 34.0825 11.8346 34.183C12.0264 34.2834 12.1818 34.4417 12.2787 34.6354L15.0896 40.2581H22.5621C22.8597 40.2575 23.1462 40.1444 23.3639 39.9414C23.5816 39.7384 23.7144 39.4605 23.7357 39.1636C23.757 38.8667 23.6652 38.5727 23.4787 38.3407C23.2922 38.1087 23.0249 37.9558 22.7303 37.9128L17.4018 37.151C17.2531 37.1296 17.1108 37.0761 16.985 36.9941C16.8591 36.9121 16.7526 36.8036 16.673 36.6761L12.4645 29.9427C12.1577 29.452 11.7209 29.0558 11.2026 28.7981C10.6843 28.5404 10.1048 28.4313 9.52833 28.4828C8.95182 28.5343 8.40085 28.7445 7.93649 29.09C7.47214 29.4355 7.11254 29.9029 6.89756 30.4403L3.52414 38.8718C2.68676 40.9598 2.20222 43.1725 2.09033 45.4194ZM51.6129 25.8065C50.5921 25.8065 49.5942 25.5038 48.7454 24.9366C47.8967 24.3695 47.2351 23.5634 46.8445 22.6203C46.4538 21.6772 46.3516 20.6395 46.5508 19.6383C46.7499 18.6371 47.2415 17.7174 47.9633 16.9956C48.6851 16.2738 49.6048 15.7822 50.606 15.5831C51.6072 15.3839 52.6449 15.4861 53.588 15.8768C54.5311 16.2674 55.3372 16.9289 55.9044 17.7777C56.4715 18.6265 56.7742 19.6244 56.7742 20.6452C56.7725 22.0135 56.2282 23.3254 55.2607 24.293C54.2931 25.2605 52.9813 25.8048 51.6129 25.8065ZM51.6129 17.5484C51.0004 17.5484 50.4017 17.73 49.8924 18.0703C49.3832 18.4106 48.9862 18.8942 48.7519 19.4601C48.5175 20.026 48.4561 20.6486 48.5756 21.2493C48.6951 21.85 48.9901 22.4018 49.4231 22.8349C49.8562 23.268 50.408 23.563 51.0087 23.6824C51.6095 23.8019 52.2321 23.7406 52.798 23.5062C53.3638 23.2718 53.8475 22.8749 54.1878 22.3657C54.528 21.8564 54.7097 21.2577 54.7097 20.6452C54.7097 19.8239 54.3834 19.0362 53.8026 18.4554C53.2219 17.8747 52.4342 17.5484 51.6129 17.5484ZM62.9677 47.4839H54.7097C54.4681 47.4837 54.2342 47.3988 54.0488 47.2439C53.8634 47.089 53.7382 46.8741 53.695 46.6364L52.1837 38.3288L50.4774 41.7517C50.3913 41.9241 50.2586 42.069 50.0944 42.1698C49.9302 42.2707 49.7411 42.3236 49.5484 42.3226H41.4379C40.6167 42.3241 39.8254 42.014 39.2239 41.4548C38.6223 40.8957 38.2553 40.1292 38.1968 39.31C38.1384 38.4908 38.3929 37.6799 38.909 37.0411C39.4251 36.4022 40.1644 35.983 40.9775 35.8679L45.8292 35.1752L49.7837 28.8485C50.16 28.2485 50.6545 27.7314 51.2372 27.3287C51.8198 26.926 52.4783 26.6462 53.1726 26.5063C54.3637 26.2676 55.6007 26.4537 56.6688 27.0322C57.737 27.6108 58.5686 28.5453 59.0193 29.6733L62.3917 38.1058C63.4568 40.7593 64.0027 43.5924 64 46.4516C64 46.7254 63.8912 46.9879 63.6976 47.1815C63.5041 47.3751 63.2415 47.4839 62.9677 47.4839ZM55.5716 45.4194H61.9097C61.7978 43.1725 61.3132 40.9598 60.4759 38.8718L57.1024 30.4403C56.8876 29.9028 56.5282 29.4354 56.0639 29.0899C55.5996 28.7443 55.0487 28.5341 54.4722 28.4825C53.8958 28.431 53.3163 28.5402 52.7981 28.7979C52.2799 29.0557 51.8432 29.4519 51.5365 29.9427L47.327 36.6761C47.2474 36.8036 47.1409 36.9121 47.015 36.9941C46.8892 37.0761 46.7469 37.1296 46.5982 37.151L41.2697 37.9128C40.9751 37.9558 40.7078 38.1087 40.5213 38.3407C40.3348 38.5727 40.243 38.8667 40.2643 39.1636C40.2856 39.4605 40.4184 39.7384 40.6361 39.9414C40.8538 40.1444 41.1403 40.2575 41.4379 40.2581H48.9104L51.7213 34.6354C51.8182 34.4417 51.9736 34.2834 52.1654 34.183C52.3573 34.0825 52.5758 34.0449 52.7902 34.0755C53.0046 34.1061 53.2039 34.2033 53.36 34.3534C53.5161 34.5036 53.621 34.699 53.6599 34.912L55.5716 45.4194ZM45.0403 32.3759L43.6808 28.9034H20.3167L19.3618 31.3436L17.4439 30.5922L18.6547 27.4954C18.73 27.3026 18.8616 27.137 19.0322 27.0199C19.2028 26.9029 19.4047 26.8398 19.6116 26.8389H44.3858C44.5936 26.8387 44.7966 26.9013 44.9683 27.0185C45.1399 27.1356 45.2722 27.3018 45.3479 27.4954L46.9634 31.6244L45.0403 32.3759ZM31.9987 51.6131C30.3566 51.6114 28.7822 50.9584 27.621 49.7972C26.4599 48.636 25.8068 47.0616 25.8052 45.4195V44.3872C25.8052 42.7446 26.4577 41.1693 27.6192 40.0077C28.7807 38.8462 30.3561 38.1937 31.9987 38.1937C33.6414 38.1937 35.2167 38.8462 36.3782 40.0077C37.5397 41.1693 38.1923 42.7446 38.1923 44.3872V45.4195C38.1906 47.0616 37.5376 48.636 36.3764 49.7972C35.2152 50.9584 33.6409 51.6114 31.9987 51.6131ZM31.9987 40.2582C30.9036 40.2582 29.8534 40.6932 29.0791 41.4676C28.3047 42.2419 27.8697 43.2922 27.8697 44.3872V45.4195C27.8697 46.5146 28.3047 47.5648 29.0791 48.3392C29.8534 49.1135 30.9036 49.5485 31.9987 49.5485C33.0938 49.5485 34.144 49.1135 34.9184 48.3392C35.6927 47.5648 36.1278 46.5146 36.1278 45.4195V44.3872C36.1278 43.2922 35.6927 42.2419 34.9184 41.4676C34.144 40.6932 33.0938 40.2582 31.9987 40.2582ZM43.3536 62.9679H41.289V57.8066C41.289 56.9853 40.9628 56.1976 40.382 55.6168C39.8013 55.0361 39.0136 54.7098 38.1923 54.7098H25.8052C24.9839 54.7098 24.1962 55.0361 23.6154 55.6168C23.0347 56.1976 22.7084 56.9853 22.7084 57.8066V62.9679H20.6439V57.8066C20.6455 56.4382 21.1898 55.1264 22.1574 54.1588C23.125 53.1913 24.4368 52.6469 25.8052 52.6453H38.1923C39.5606 52.6469 40.8725 53.1913 41.84 54.1588C42.8076 55.1264 43.3519 56.4382 43.3536 57.8066V62.9679ZM53.6761 56.7743H44.3858V54.7098H52.6439V51.8071L49.4831 43.7307L51.4062 42.9792L54.6382 51.2373C54.6848 51.3571 54.7086 51.4845 54.7084 51.6131V55.7421C54.7084 56.0159 54.5996 56.2784 54.406 56.472C54.2125 56.6656 53.9499 56.7743 53.6761 56.7743ZM19.6116 56.7743H10.3213C10.0475 56.7743 9.78498 56.6656 9.59139 56.472C9.39781 56.2784 9.28905 56.0159 9.28905 55.7421V51.6131C9.28885 51.4845 9.31266 51.3571 9.35924 51.2373L12.5912 42.9792L14.5154 43.7307L11.3536 51.8071V54.7098H19.6116V56.7743ZM21.3756 21.3751L19.916 19.9155L27.1418 12.6897C27.3354 12.4962 27.5979 12.3874 27.8716 12.3874C28.1453 12.3874 28.4078 12.4962 28.6014 12.6897L34.0652 18.1534L44.9929 7.22565H41.29V5.16113H47.4835C47.7573 5.16113 48.0199 5.26989 48.2134 5.46347C48.407 5.65706 48.5158 5.91962 48.5158 6.19339V12.3869H46.4513V8.68653L34.795 20.3428C34.6014 20.5363 34.3389 20.6451 34.0652 20.6451C33.7914 20.6451 33.5289 20.5363 33.3354 20.3428L27.8716 14.8791L21.3756 21.3751ZM22.7093 5.16113H10.3223V7.22565H22.7093V5.16113ZM17.5481 9.29016H10.3223V11.3547H17.5481V9.29016Z" fill="url(#paint0_linear_2_205)"/>
<defs>
<linearGradient id="paint0_linear_2_205" x1="64.5123" y1="63.0695" x2="17.3805" y2="7.08365" gradientUnits="userSpaceOnUse">
<stop stop-color="#31393C"/>
<stop offset="1" stop-color="#3D96F5"/>
</linearGradient>
</defs>
</svg>
