<svg width="36" height="36" viewBox="0 0 36 36" fill="none" xmlns="http://www.w3.org/2000/svg">
<path id="Union" fill-rule="evenodd" clip-rule="evenodd" d="M28.3083 4.46687C28.515 4.17336 28.4446 3.76786 28.1511 3.56117C25.2797 1.53915 21.7776 0.351663 18 0.351663C15.6583 0.351663 13.4215 0.808074 11.3751 1.63734C11.0424 1.77216 10.882 2.15117 11.0168 2.48388C11.1516 2.81658 11.5306 2.977 11.8633 2.84218C13.7573 2.07469 15.8284 1.65166 18 1.65166C21.501 1.65166 24.7432 2.7513 27.4026 4.62407C27.6961 4.83076 28.1016 4.76038 28.3083 4.46687ZM31.2439 27.5912C33.1981 24.8974 34.35 21.5848 34.35 18.0015C34.35 14.6231 33.326 11.4858 31.5716 8.88062C31.3711 8.58286 31.4499 8.17892 31.7477 7.9784C32.0454 7.77788 32.4494 7.8567 32.6499 8.15446C34.5443 10.9675 35.65 14.3564 35.65 18.0015C35.65 21.8992 34.3859 25.5033 32.2456 28.4239C32.5511 28.8484 32.731 29.3692 32.731 29.9321C32.731 31.3598 31.5737 32.5171 30.146 32.5171C28.7184 32.5171 27.5611 31.3598 27.5611 29.9321C27.5611 28.5045 28.7184 27.3472 30.146 27.3472C30.5386 27.3472 30.9107 27.4347 31.2439 27.5912ZM1.65001 18.0016C1.65001 27.0315 8.97015 34.3516 18 34.3516C20.1716 34.3516 22.2427 33.9286 24.1367 33.1612C24.4694 33.0263 24.8484 33.1868 24.9832 33.5195C25.118 33.8522 24.9576 34.2312 24.6249 34.366C22.5784 35.1953 20.3417 35.6516 18 35.6516C8.25218 35.6516 0.350006 27.7494 0.350006 18.0016C0.350006 14.1039 1.61411 10.4998 3.75447 7.57913C3.44897 7.15463 3.26903 6.63373 3.26903 6.0708C3.26903 4.64317 4.42635 3.48584 5.85399 3.48584C7.28162 3.48584 8.43895 4.64317 8.43895 6.0708C8.43895 7.49844 7.28162 8.65576 5.85399 8.65576C5.46149 8.65576 5.08943 8.56828 4.75623 8.41177C2.80199 11.1056 1.65001 14.4183 1.65001 18.0016ZM12.6051 14.9717C11.9728 14.9804 11.463 15.4957 11.463 16.1299V25.2287C11.463 25.8684 11.9816 26.387 12.6214 26.387H23.3787C24.0184 26.387 24.537 25.8684 24.537 25.2287V16.1299C24.537 15.4956 24.0272 14.9804 23.395 14.9717H20.8317L20.8195 14.9716H15.1806L15.1683 14.9717H12.6051ZM20.1817 13.6716V12.4122C20.1817 11.2099 19.2024 10.2306 18 10.2306C16.7976 10.2306 15.8183 11.2099 15.8183 12.4122V13.6716H20.1817ZM23.0133 13.6716H21.4817V12.4122C21.4817 10.4918 19.9203 8.93062 18 8.93062C16.0797 8.93062 14.5183 10.4918 14.5183 12.4122V13.6716H12.9867V12.4122C12.9867 9.64846 15.2362 7.39894 18 7.39894C20.7638 7.39894 23.0133 9.64846 23.0133 12.4122V13.6716ZM24.3133 13.8555V12.4122C24.3133 8.93049 21.4817 6.09894 18 6.09894C14.5183 6.09894 11.6867 8.93049 11.6867 12.4122V13.8555C10.7926 14.2233 10.163 15.1031 10.163 16.1299V25.2287C10.163 26.5864 11.2637 27.687 12.6214 27.687H23.3787C24.7364 27.687 25.837 26.5863 25.837 25.2287V16.1299C25.837 15.1031 25.2075 14.2233 24.3133 13.8555ZM30 7C30.5523 7 31 6.55228 31 6C31 5.44772 30.5523 5 30 5C29.4477 5 29 5.44772 29 6C29 6.55228 29.4477 7 30 7ZM18.0001 23.5523C17.5957 23.5523 17.268 23.2245 17.268 22.8202V20.4944C17.268 20.3219 17.1994 20.1565 17.0774 20.0346C16.8403 19.7977 16.6949 19.4722 16.6949 19.1115C16.6949 18.3907 17.2792 17.8063 18.0001 17.8063C18.7209 17.8063 19.3052 18.3907 19.3052 19.1115C19.3052 19.4722 19.1597 19.7977 18.9227 20.0346C18.8007 20.1565 18.7322 20.3219 18.7322 20.4944V22.8202C18.7322 23.2245 18.4044 23.5523 18.0001 23.5523ZM15.968 22.8202C15.968 23.9425 16.8777 24.8523 18.0001 24.8523C19.1223 24.8523 20.0322 23.9425 20.0322 22.8202V20.7417C20.3903 20.2957 20.6052 19.7283 20.6052 19.1115C20.6052 17.6727 19.4388 16.5063 18.0001 16.5063C16.5613 16.5063 15.3949 17.6727 15.3949 19.1115C15.3949 19.7283 15.6098 20.2957 15.968 20.7417V22.8202ZM5.85399 7.35576C5.14432 7.35576 4.56903 6.78047 4.56903 6.0708C4.56903 5.36114 5.14432 4.78584 5.85399 4.78584C6.56365 4.78584 7.13895 5.36114 7.13895 6.0708C7.13895 6.78047 6.56365 7.35576 5.85399 7.35576ZM28.8611 29.9321C28.8611 30.6418 29.4364 31.2171 30.146 31.2171C30.8557 31.2171 31.431 30.6418 31.431 29.9321C31.431 29.2225 30.8557 28.6472 30.146 28.6472C29.4364 28.6472 28.8611 29.2225 28.8611 29.9321Z" fill="url(#paint0_linear_305_310)"/>
<defs>
<linearGradient id="paint0_linear_305_310" x1="6.00001" y1="-6.92424e-07" x2="31.5" y2="31.5" gradientUnits="userSpaceOnUse">
<stop stop-color="#3E96F4"/>
<stop offset="1" stop-color="#31393C"/>
</linearGradient>
</defs>
</svg>
