<svg width="32" height="32" viewBox="0 0 32 32" fill="none" xmlns="http://www.w3.org/2000/svg">
<path fill-rule="evenodd" clip-rule="evenodd" d="M15.9976 20C19.3108 20 21.9967 22.6863 21.9967 26C21.9967 29.3137 19.3108 32 15.9976 32C12.6844 32 9.99851 29.3137 9.99851 26C9.99851 22.6863 12.6844 20 15.9976 20ZM19.9462 23.1084C19.454 22.5862 18.631 22.5616 18.1086 23.0537L14.8347 26.1367L13.9715 25.1689C13.4937 24.6333 12.6716 24.5867 12.1359 25.0645C11.6005 25.5422 11.5532 26.3636 12.0304 26.8994L13.7831 28.8652C14.0165 29.1271 14.3466 29.2835 14.697 29.2988C15.0475 29.3141 15.3897 29.1869 15.6451 28.9463L19.8915 24.9463C20.4139 24.454 20.4383 23.631 19.9462 23.1084Z" fill="#3E96F4"/>
<path d="M17.3851 12.2217C19.5035 12.2217 21.4999 13.063 23.0053 14.5918C24.5034 16.1131 25.3282 18.1219 25.3282 20.2471C25.328 20.5844 25.0542 20.8574 24.7169 20.8574H22.1226C20.6553 19.1111 18.4568 18 15.9976 18C13.5384 18 11.3398 19.1111 9.87255 20.8574H7.61021C7.27291 20.8574 6.99917 20.5844 6.99897 20.2471C6.99897 18.1219 7.82379 16.1131 9.32186 14.5918C10.8273 13.063 12.8237 12.2217 14.9421 12.2217H17.3851Z" fill="#3E96F4"/>
<path d="M16.1636 0C19.1956 0 21.6627 2.46752 21.6627 5.5C21.6625 8.53231 19.1955 10.999 16.1636 10.999C13.1317 10.999 10.6646 8.53231 10.6644 5.5C10.6644 2.46752 13.1316 1.83867e-07 16.1636 0Z" fill="#3E96F4"/>
<path d="M26.8006 12.6387C28.1872 12.6387 29.4943 13.1646 30.4797 14.1201C32.0026 15.6436 32 19.326 32 20.6543C31.9999 20.8651 31.8205 21.0361 31.5997 21.0361H26.579C26.6826 20.7939 26.7409 20.5274 26.741 20.2471C26.741 17.7526 25.7696 15.3913 24.0149 13.6094C23.7507 13.3929 23.4915 13.1951 23.2406 13.0098C23.8556 12.7663 24.5187 12.6387 25.2012 12.6387H26.8006Z" fill="#3E96F4"/>
<path d="M21.9957 13.7148C22.3558 13.9758 22.6986 14.2675 23.018 14.5918C24.516 16.1131 25.3409 18.1219 25.3409 20.2471C25.3406 20.5843 25.0669 20.8574 24.7296 20.8574H24.7277C25.065 20.8574 25.3387 20.5843 25.3389 20.2471C25.3389 18.1219 24.5141 16.1131 23.016 14.5918C22.697 14.2678 22.3544 13.9766 21.9947 13.7158L21.9957 13.7148Z" fill="#3E96F4"/>
<path d="M26.0009 5C27.9856 5 29.601 6.5422 29.601 8.4375C29.6008 10.3327 27.9855 11.874 26.0009 11.874C24.0165 11.8739 22.402 10.3326 22.4019 8.4375C22.4019 6.54226 24.0164 5.00011 26.0009 5Z" fill="#3E96F4"/>
<path d="M5.19939 12.6387C3.81284 12.6387 2.50563 13.1647 1.52027 14.1201C-0.00255045 15.6436 -1.31964e-07 19.326 3.00451e-08 20.6543C0.000127758 20.8651 0.179625 21.036 0.400329 21.0361H5.42299C5.31932 20.7939 5.2611 20.5274 5.26091 20.2471C5.26092 17.7526 6.23236 15.3913 7.98705 13.6094C8.25104 13.3931 8.5097 13.1949 8.76037 13.0098C8.14518 12.7662 7.48154 12.6387 6.79876 12.6387H5.19939Z" fill="#3E96F4"/>
<path d="M10.0063 13.7148C9.64621 13.9758 9.30335 14.2675 8.98396 14.5918C7.48595 16.1131 6.6611 18.122 6.66108 20.2471C6.66131 20.5843 6.93506 20.8574 7.27231 20.8574H7.27427C6.93701 20.8574 6.66326 20.5843 6.66303 20.2471C6.66305 18.122 7.4879 16.1131 8.98592 14.5918C9.30497 14.2678 9.64759 13.9766 10.0072 13.7158L10.0063 13.7148Z" fill="#3E96F4"/>
<path d="M5.99907 5C4.01451 5.00009 2.39904 6.54225 2.39904 8.4375C2.39918 10.3326 4.01459 11.8739 5.99907 11.874C7.98349 11.8739 9.59799 10.3326 9.59813 8.4375C9.59813 6.5423 7.98357 5.00017 5.99907 5Z" fill="#3E96F4"/>
<path fill-rule="evenodd" clip-rule="evenodd" d="M26.7459 22C28.8167 22 30.4953 23.6789 30.4953 25.75C30.4953 27.8211 28.8167 29.5 26.7459 29.5C24.6752 29.5 22.9965 27.8211 22.9965 25.75C22.9965 23.6789 24.6752 22 26.7459 22ZM28.853 23.5332C28.5403 23.2216 28.0332 23.2217 27.7214 23.5342L26.7928 24.4648L25.8642 23.5342C25.5523 23.2217 25.0453 23.2216 24.7326 23.5332C24.42 23.8452 24.4197 24.3523 24.7316 24.665L25.6621 25.5977L24.7296 26.5342C24.4179 26.8468 24.4184 27.354 24.7306 27.666C25.0433 27.9779 25.5503 27.9776 25.8623 27.665L26.7928 26.7314L27.7233 27.665C28.0353 27.9776 28.5423 27.9779 28.855 27.666C29.1672 27.354 29.1677 26.8468 28.856 26.5342L27.9225 25.5977L28.854 24.665C29.1659 24.3523 29.1656 23.8452 28.853 23.5332Z" fill="#3E96F4"/>
<path fill-rule="evenodd" clip-rule="evenodd" d="M4.74932 22C6.82007 22 8.49874 23.6789 8.49874 25.75C8.49874 27.8211 6.82007 29.5 4.74932 29.5C2.67857 29.5 0.999901 27.8211 0.999901 25.75C0.999901 23.6789 2.67857 22 4.74932 22ZM6.85642 23.5332C6.5437 23.2216 6.03664 23.2217 5.72476 23.5342L4.79619 24.4648L3.86762 23.5342C3.55574 23.2217 3.04868 23.2216 2.73596 23.5332C2.42342 23.8452 2.4231 24.3523 2.73498 24.665L3.6655 25.5977L2.73303 26.5342C2.42125 26.8468 2.42179 27.354 2.73401 27.666C3.0467 27.9779 3.55368 27.9776 3.86567 27.665L4.79619 26.7314L5.72671 27.665C6.0387 27.9776 6.54568 27.9779 6.85837 27.666C7.17059 27.354 7.17113 26.8468 6.85935 26.5342L5.9259 25.5977L6.8574 24.665C7.16928 24.3523 7.16896 23.8452 6.85642 23.5332Z" fill="#3E96F4"/>
</svg>
