<svg width="48" height="48" viewBox="0 0 48 48" fill="none" xmlns="http://www.w3.org/2000/svg">
<rect width="48" height="48" rx="8" fill="white"/>
<path d="M24.3648 33.6757L22.2027 24.8649C22.0405 24.2703 21.4459 23.8919 20.8513 24C20.8513 24 16.527 24.8649 16.4189 24.8649C15.6081 26.3784 14.7432 27.8378 13.9324 29.1892C13.554 29.7838 12.9054 30.1622 12.2027 30.1622C11.5 30.1622 10.8513 29.7838 10.473 29.1892C9.22973 27.1351 7.87838 24.7568 6.85135 22.5405L2.90541 24.1081C2.58108 24.2703 2.31081 24.5405 2.2027 24.919L0.0405405 33.6216C-0.0675676 34 0.0405405 34.4324 0.364865 34.7568C0.635135 35.027 1.06757 35.1351 1.5 35.027L7.60811 33.4054C7.82432 33.3514 8.04054 33.3514 8.25676 33.4054L16.0946 35.946C16.2568 36 16.4189 36 16.6351 36L23.3919 35.1351C23.7162 35.0811 24.0405 34.9189 24.2027 34.6487C24.3649 34.3784 24.4729 34 24.3648 33.6757Z" fill="#3E96F4"/>
<path d="M12.2029 28.5946C12.365 28.5946 12.4732 28.4865 12.5812 28.3784C13.8245 26.3784 17.6082 19.8919 17.6082 17.4054C17.6082 14.4324 15.1758 12 12.2028 12C9.22987 12 6.79744 14.4324 6.79744 17.4054C6.79744 19.8919 10.5812 26.3784 11.8245 28.3784C11.9326 28.4865 12.0947 28.5946 12.2029 28.5946ZM9.55419 17.3514C9.55419 15.9459 10.6893 14.7568 12.1488 14.7568C13.5542 14.7568 14.7434 15.8919 14.7434 17.3514C14.7434 18.7568 13.6082 19.9459 12.1488 19.9459C10.6893 19.9459 9.55419 18.8108 9.55419 17.3514Z" fill="#3E96F4"/>
</svg>
