<svg width="21" height="20" viewBox="0 0 21 20" fill="none" xmlns="http://www.w3.org/2000/svg">
<path d="M19.2967 2.42135e-05C19.1854 0.000190279 19.0756 0.0263809 18.9761 0.0765059L13.5607 2.78276L7.43632 0.0617971H7.40396C7.37743 0.0503307 7.34984 0.0414633 7.32159 0.0353217C7.29281 0.0266156 7.26328 0.0207058 7.23337 0.017673C7.17566 0.0117932 7.11749 0.0117932 7.05979 0.017673C7.03079 0.0204334 7.00221 0.026351 6.97451 0.0353217C6.94519 0.0410276 6.91658 0.0499057 6.88919 0.0617971H6.85683L0.423606 2.92101C0.297837 2.97711 0.190672 3.06793 0.114726 3.18281C0.0406693 3.29993 0.000921099 3.43547 0 3.57404V19.2968C0.00117048 19.4143 0.0316403 19.5296 0.0886567 19.6323C0.145673 19.7351 0.227429 19.8219 0.326511 19.8851C0.425801 19.9504 0.540319 19.9889 0.658911 19.9969C0.777782 20.0084 0.897591 19.9881 1.00603 19.938L7.14805 17.2083L13.2901 19.938C13.2901 19.938 13.3107 19.938 13.3224 19.938C13.4072 19.9771 13.4998 19.9962 13.5931 19.9939C13.6872 19.9921 13.7797 19.969 13.8637 19.9263C13.8754 19.9277 13.8872 19.9277 13.899 19.9263L19.6174 17.0671C19.7372 17.0065 19.8388 16.9151 19.9116 16.8023C19.9802 16.6887 20.0168 16.5586 20.0175 16.4258V0.714828C20.0175 0.620461 19.9988 0.527028 19.9625 0.439919C19.9262 0.352809 19.873 0.273747 19.806 0.207294C19.739 0.140841 19.6595 0.0883114 19.5721 0.052737C19.4847 0.0171627 19.3911 -0.000752465 19.2967 2.42135e-05ZM12.8635 18.1966L7.86283 15.9728V1.81498L12.8635 4.03881V18.1966Z" fill="#505050"/>
</svg>
