<svg width="48" height="48" viewBox="0 0 48 48" fill="none" xmlns="http://www.w3.org/2000/svg">
<rect x="0.00305176" width="48" height="48" rx="8" fill="white"/>
<path fill-rule="evenodd" clip-rule="evenodd" d="M9 12C13.9706 12 18 16.0294 18 21C18 30.5 9 36 9 36C9 36 0 31 0 21C0 16.0294 4.02944 12 9 12ZM3 23.6318C3 23.7452 3.03057 23.8569 3.08887 23.9551C3.14716 24.0532 3.23112 24.1348 3.33203 24.1914L8.33594 27V21.0098L3 18.0137V23.6318ZM9.66406 21.0098V27L14.668 24.1914C14.7689 24.1348 14.8528 24.0532 14.9111 23.9551C14.9694 23.8569 15 23.7452 15 23.6318V18.0137L9.66406 21.0098ZM9 14C8.88341 14 8.76894 14.0302 8.66797 14.0869L3.66406 16.8955L9 19.8906L14.3359 16.8955L9.33203 14.0869C9.23106 14.0302 9.11659 14 9 14Z" fill="#3E96F4"/>
</svg>
