<svg width="40" height="41" viewBox="0 0 40 41" fill="none" xmlns="http://www.w3.org/2000/svg">
<path fill-rule="evenodd" clip-rule="evenodd" d="M0 6C0 4.4087 0.632167 2.88257 1.75739 1.75735C2.8826 0.632136 4.4087 0 6 0H34C35.5913 0 37.1174 0.632136 38.2426 1.75735C39.3678 2.88257 40 4.4087 40 6V25C40 26.5913 39.3678 28.1174 38.2426 29.2426C37.1174 30.3679 35.5913 31 34 31H32.5C32.2348 31 31.9804 30.8946 31.7929 30.7071C31.6054 30.5196 31.5 30.2652 31.5 30C31.5 29.7348 31.6054 29.4804 31.7929 29.2929C31.9804 29.1054 32.2348 29 32.5 29H34C35.0609 29 36.0783 28.5786 36.8284 27.8284C37.5786 27.0783 38 26.0609 38 25V6C38 4.93913 37.5786 3.92172 36.8284 3.17157C36.0783 2.42142 35.0609 2 34 2H6C4.93913 2 3.92172 2.42142 3.17157 3.17157C2.42142 3.92172 2 4.93913 2 6V25C2 26.0609 2.42142 27.0783 3.17157 27.8284C3.92172 28.5786 4.93913 29 6 29H7.5C7.76522 29 8.01956 29.1054 8.20709 29.2929C8.39463 29.4804 8.5 29.7348 8.5 30C8.5 30.2652 8.39463 30.5196 8.20709 30.7071C8.01956 30.8946 7.76522 31 7.5 31H6C4.4087 31 2.8826 30.3679 1.75739 29.2426C0.632167 28.1174 0 26.5913 0 25V6Z" fill="url(#paint0_linear_1_616)"/>
<path fill-rule="evenodd" clip-rule="evenodd" d="M38 10H2V8H38V10Z" fill="url(#paint1_linear_1_616)"/>
<path d="M5.99999 5.41C5.99999 5.60778 5.94136 5.80113 5.83148 5.96558C5.72159 6.13003 5.56541 6.25821 5.38268 6.33389C5.19996 6.40958 4.99891 6.42936 4.80493 6.39078C4.61094 6.35219 4.43275 6.25695 4.2929 6.1171C4.15305 5.97724 4.05781 5.79908 4.01922 5.6051C3.98064 5.41112 4.00042 5.21004 4.07611 5.02731C4.15179 4.84459 4.28 4.6884 4.44445 4.57852C4.6089 4.46864 4.80221 4.41 4.99999 4.41C5.26521 4.41 5.51955 4.51534 5.70709 4.70288C5.89462 4.89042 5.99999 5.14479 5.99999 5.41Z" fill="url(#paint2_linear_1_616)"/>
<path d="M8.99999 5.41C8.99999 5.60778 8.94136 5.80113 8.83148 5.96558C8.72159 6.13003 8.56541 6.25821 8.38268 6.33389C8.19996 6.40958 7.99891 6.42936 7.80493 6.39078C7.61094 6.35219 7.43275 6.25695 7.2929 6.1171C7.15305 5.97724 7.05781 5.79908 7.01922 5.6051C6.98064 5.41112 7.00042 5.21004 7.07611 5.02731C7.15179 4.84459 7.28 4.6884 7.44445 4.57852C7.6089 4.46864 7.80221 4.41 7.99999 4.41C8.26521 4.41 8.51955 4.51534 8.70709 4.70288C8.89462 4.89042 8.99999 5.14479 8.99999 5.41Z" fill="url(#paint3_linear_1_616)"/>
<path d="M12 5.41C12 5.60778 11.9414 5.80113 11.8315 5.96558C11.7216 6.13003 11.5654 6.25821 11.3827 6.33389C11.2 6.40958 10.9989 6.42936 10.8049 6.39078C10.6109 6.35219 10.4328 6.25695 10.2929 6.1171C10.153 5.97724 10.0578 5.79908 10.0192 5.6051C9.98063 5.41112 10.0004 5.21004 10.0761 5.02731C10.1518 4.84459 10.28 4.6884 10.4445 4.57852C10.6089 4.46864 10.8022 4.41 11 4.41C11.2652 4.41 11.5196 4.51534 11.7071 4.70288C11.8946 4.89042 12 5.14479 12 5.41Z" fill="url(#paint4_linear_1_616)"/>
<path d="M15 5C15 4.73478 15.1054 4.48044 15.2929 4.29291C15.4804 4.10537 15.7348 4 16 4H35C35.2652 4 35.5196 4.10537 35.7071 4.29291C35.8946 4.48044 36 4.73478 36 5C36 5.26522 35.8946 5.51956 35.7071 5.70709C35.5196 5.89463 35.2652 6 35 6H16C15.7348 6 15.4804 5.89463 15.2929 5.70709C15.1054 5.51956 15 5.26522 15 5Z" fill="url(#paint5_linear_1_616)"/>
<path fill-rule="evenodd" clip-rule="evenodd" d="M11.5 38.41C11.7967 38.41 12.0867 38.322 12.3334 38.1572C12.58 37.9924 12.7723 37.7581 12.8858 37.484C12.9993 37.2099 13.0291 36.9083 12.9712 36.6174C12.9133 36.3264 12.7704 36.0591 12.5607 35.8493C12.3509 35.6396 12.0836 35.4967 11.7927 35.4388C11.5017 35.3809 11.2001 35.4106 10.926 35.5242C10.6519 35.6377 10.4176 35.83 10.2528 36.0766C10.088 36.3233 10 36.6133 10 36.91C10 37.3078 10.158 37.6894 10.4393 37.9707C10.7206 38.252 11.1022 38.41 11.5 38.41ZM11.5 40.41C12.1922 40.41 12.8689 40.2047 13.4445 39.8201C14.0201 39.4355 14.4687 38.8889 14.7336 38.2494C14.9985 37.6098 15.0678 36.9061 14.9327 36.2272C14.7977 35.5482 14.4643 34.9246 13.9749 34.4351C13.4854 33.9456 12.8617 33.6123 12.1828 33.4773C11.5039 33.3422 10.8001 33.4115 10.1606 33.6764C9.52104 33.9413 8.97443 34.3899 8.58984 34.9655C8.20526 35.5411 8 36.2178 8 36.91C8 37.8383 8.36877 38.7285 9.02515 39.3849C9.68152 40.0413 10.5717 40.41 11.5 40.41Z" fill="url(#paint6_linear_1_616)"/>
<path fill-rule="evenodd" clip-rule="evenodd" d="M15 24.41C15.2652 24.41 15.5196 24.5153 15.7071 24.7029C15.8946 24.8904 16 25.1448 16 25.41V28.91C16.0008 29.0416 15.9755 29.1721 15.9258 29.2939C15.876 29.4158 15.8027 29.5266 15.71 29.62L13 32.33V34.41C13 34.6752 12.8946 34.9296 12.7071 35.1171C12.5196 35.3046 12.2652 35.41 12 35.41C11.7348 35.41 11.4804 35.3046 11.2929 35.1171C11.1054 34.9296 11 34.6752 11 34.41V31.91C11.0037 31.6452 11.1072 31.3916 11.29 31.2L14 28.5V25.41C14 25.1448 14.1054 24.8904 14.2929 24.7029C14.4804 24.5153 14.7348 24.41 15 24.41Z" fill="url(#paint7_linear_1_616)"/>
<path fill-rule="evenodd" clip-rule="evenodd" d="M19.5 38.41C19.2033 38.41 18.9133 38.322 18.6666 38.1572C18.4199 37.9924 18.2277 37.7581 18.1142 37.484C18.0007 37.2099 17.9709 36.9083 18.0288 36.6174C18.0867 36.3264 18.2295 36.0591 18.4393 35.8493C18.6491 35.6396 18.9164 35.4967 19.2073 35.4388C19.4983 35.3809 19.7999 35.4106 20.074 35.5242C20.3481 35.6377 20.5824 35.83 20.7472 36.0766C20.912 36.3233 21 36.6133 21 36.91C21 37.3078 20.842 37.6894 20.5607 37.9707C20.2794 38.252 19.8978 38.41 19.5 38.41ZM19.5 40.41C18.8078 40.41 18.1311 40.2047 17.5555 39.8201C16.9799 39.4355 16.5313 38.8889 16.2664 38.2494C16.0015 37.6098 15.9322 36.9061 16.0673 36.2272C16.2023 35.5482 16.5357 34.9246 17.0251 34.4351C17.5146 33.9456 18.1383 33.6123 18.8172 33.4773C19.4961 33.3422 20.1999 33.4115 20.8394 33.6764C21.479 33.9413 22.0256 34.3899 22.4102 34.9655C22.7947 35.5411 23 36.2178 23 36.91C23 37.8383 22.6312 38.7285 21.9748 39.3849C21.3185 40.0413 20.4283 40.41 19.5 40.41Z" fill="url(#paint8_linear_1_616)"/>
<path fill-rule="evenodd" clip-rule="evenodd" d="M20 24.41C20.2652 24.41 20.5196 24.5153 20.7071 24.7029C20.8946 24.8904 21 25.1448 21 25.41V34.41C21 34.6752 20.8946 34.9296 20.7071 35.1171C20.5196 35.3046 20.2652 35.41 20 35.41C19.7348 35.41 19.4804 35.3046 19.2929 35.1171C19.1054 34.9296 19 34.6752 19 34.41V25.41C19 25.1448 19.1054 24.8904 19.2929 24.7029C19.4804 24.5153 19.7348 24.41 20 24.41Z" fill="url(#paint9_linear_1_616)"/>
<path fill-rule="evenodd" clip-rule="evenodd" d="M27.5 38.41C27.2033 38.41 26.9133 38.322 26.6666 38.1572C26.4199 37.9924 26.2277 37.7581 26.1142 37.484C26.0007 37.2099 25.9709 36.9083 26.0288 36.6174C26.0867 36.3264 26.2295 36.0591 26.4393 35.8493C26.6491 35.6396 26.9164 35.4967 27.2073 35.4388C27.4983 35.3809 27.7999 35.4106 28.074 35.5242C28.3481 35.6377 28.5824 35.83 28.7472 36.0766C28.912 36.3233 29 36.6133 29 36.91C29 37.3078 28.842 37.6894 28.5607 37.9707C28.2794 38.252 27.8978 38.41 27.5 38.41ZM27.5 40.41C26.8078 40.41 26.1311 40.2047 25.5555 39.8201C24.9799 39.4355 24.5313 38.8889 24.2664 38.2494C24.0015 37.6098 23.9322 36.9061 24.0673 36.2272C24.2023 35.5482 24.5357 34.9246 25.0251 34.4351C25.5146 33.9456 26.1383 33.6123 26.8172 33.4773C27.4961 33.3422 28.1999 33.4115 28.8394 33.6764C29.479 33.9413 30.0256 34.3899 30.4102 34.9655C30.7947 35.5411 31 36.2178 31 36.91C31 37.8383 30.6312 38.7285 29.9748 39.3849C29.3185 40.0413 28.4283 40.41 27.5 40.41Z" fill="url(#paint10_linear_1_616)"/>
<path fill-rule="evenodd" clip-rule="evenodd" d="M25 24.41C24.7348 24.41 24.4805 24.5153 24.2929 24.7029C24.1054 24.8904 24 25.1448 24 25.41V28.91C23.9993 29.0416 24.0245 29.1721 24.0742 29.2939C24.124 29.4158 24.1973 29.5266 24.29 29.62L27 32.33V34.41C27 34.6752 27.1054 34.9296 27.2929 35.1171C27.4805 35.3046 27.7348 35.41 28 35.41C28.2652 35.41 28.5196 35.3046 28.7071 35.1171C28.8946 34.9296 29 34.6752 29 34.41V31.91C28.9963 31.6452 28.8928 31.3916 28.71 31.2L26 28.5V25.41C26 25.1448 25.8946 24.8904 25.7071 24.7029C25.5196 24.5153 25.2652 24.41 25 24.41Z" fill="url(#paint11_linear_1_616)"/>
<path fill-rule="evenodd" clip-rule="evenodd" d="M16.603 13.8836C18.1796 13.0584 19.9915 12.7987 21.7365 13.1476C23.4814 13.4966 25.054 14.4333 26.192 15.8014C27.2093 17.0245 27.8243 18.5262 27.9614 20.1022C29.1673 20.5183 30.2566 21.2252 31.1304 22.1653C32.1797 23.2943 32.8711 24.7088 33.1172 26.2304C33.2054 26.7756 32.8349 27.289 32.2897 27.3772C31.7445 27.4654 31.231 27.0949 31.1428 26.5497C30.9599 25.4183 30.4458 24.3664 29.6655 23.5269C28.8852 22.6874 27.8737 22.0979 26.7587 21.8329L25.99 21.6501V20.6881C25.9696 19.3686 25.4984 18.095 24.6544 17.0804C23.809 16.0639 22.6406 15.3681 21.3442 15.1088C20.0478 14.8495 18.7018 15.0425 17.5304 15.6556C16.3591 16.2686 15.4333 17.2647 14.9075 18.4777L14.6807 19.0009L14.115 19.0721C12.426 19.2849 10.8724 20.1059 9.74501 21.3815C8.61761 22.6571 7.99366 24.2998 7.98999 26.0021C7.9888 26.5544 7.54012 27.0012 6.98783 27C6.43555 26.9988 5.9888 26.5501 5.98999 25.9978C5.99471 23.8091 6.79694 21.697 8.24644 20.057C9.57263 18.5565 11.3575 17.5453 13.3147 17.1745C14.0474 15.7718 15.193 14.6216 16.603 13.8836Z" fill="url(#paint12_linear_1_616)"/>
<defs>
<linearGradient id="paint0_linear_1_616" x1="40.3202" y1="40.7954" x2="9.67249" y2="5.619" gradientUnits="userSpaceOnUse">
<stop stop-color="#31393C"/>
<stop offset="1" stop-color="#3D96F5"/>
</linearGradient>
<linearGradient id="paint1_linear_1_616" x1="40.3202" y1="40.7954" x2="9.67249" y2="5.619" gradientUnits="userSpaceOnUse">
<stop stop-color="#31393C"/>
<stop offset="1" stop-color="#3D96F5"/>
</linearGradient>
<linearGradient id="paint2_linear_1_616" x1="40.3202" y1="40.7954" x2="9.67249" y2="5.619" gradientUnits="userSpaceOnUse">
<stop stop-color="#31393C"/>
<stop offset="1" stop-color="#3D96F5"/>
</linearGradient>
<linearGradient id="paint3_linear_1_616" x1="40.3202" y1="40.7954" x2="9.67249" y2="5.619" gradientUnits="userSpaceOnUse">
<stop stop-color="#31393C"/>
<stop offset="1" stop-color="#3D96F5"/>
</linearGradient>
<linearGradient id="paint4_linear_1_616" x1="40.3202" y1="40.7954" x2="9.67249" y2="5.619" gradientUnits="userSpaceOnUse">
<stop stop-color="#31393C"/>
<stop offset="1" stop-color="#3D96F5"/>
</linearGradient>
<linearGradient id="paint5_linear_1_616" x1="40.3202" y1="40.7954" x2="9.67249" y2="5.619" gradientUnits="userSpaceOnUse">
<stop stop-color="#31393C"/>
<stop offset="1" stop-color="#3D96F5"/>
</linearGradient>
<linearGradient id="paint6_linear_1_616" x1="40.3202" y1="40.7954" x2="9.67249" y2="5.619" gradientUnits="userSpaceOnUse">
<stop stop-color="#31393C"/>
<stop offset="1" stop-color="#3D96F5"/>
</linearGradient>
<linearGradient id="paint7_linear_1_616" x1="40.3202" y1="40.7954" x2="9.67249" y2="5.619" gradientUnits="userSpaceOnUse">
<stop stop-color="#31393C"/>
<stop offset="1" stop-color="#3D96F5"/>
</linearGradient>
<linearGradient id="paint8_linear_1_616" x1="40.3202" y1="40.7954" x2="9.67249" y2="5.619" gradientUnits="userSpaceOnUse">
<stop stop-color="#31393C"/>
<stop offset="1" stop-color="#3D96F5"/>
</linearGradient>
<linearGradient id="paint9_linear_1_616" x1="40.3202" y1="40.7954" x2="9.67249" y2="5.619" gradientUnits="userSpaceOnUse">
<stop stop-color="#31393C"/>
<stop offset="1" stop-color="#3D96F5"/>
</linearGradient>
<linearGradient id="paint10_linear_1_616" x1="40.3202" y1="40.7954" x2="9.67249" y2="5.619" gradientUnits="userSpaceOnUse">
<stop stop-color="#31393C"/>
<stop offset="1" stop-color="#3D96F5"/>
</linearGradient>
<linearGradient id="paint11_linear_1_616" x1="40.3202" y1="40.7954" x2="9.67249" y2="5.619" gradientUnits="userSpaceOnUse">
<stop stop-color="#31393C"/>
<stop offset="1" stop-color="#3D96F5"/>
</linearGradient>
<linearGradient id="paint12_linear_1_616" x1="40.3202" y1="40.7954" x2="9.67249" y2="5.619" gradientUnits="userSpaceOnUse">
<stop stop-color="#31393C"/>
<stop offset="1" stop-color="#3D96F5"/>
</linearGradient>
</defs>
</svg>
