<svg width="20" height="20" viewBox="0 0 20 20" fill="none" xmlns="http://www.w3.org/2000/svg">
<path d="M10.4219 9.59705C10.4186 9.59361 10.4177 9.58904 10.4143 9.58568L7.07039 6.24172V4.14057C7.07039 3.98491 7.00859 3.83616 6.89875 3.72627L3.3831 0.171604C3.30113 0.0896852 3.19672 0.0339 3.08306 0.0112968C2.96939 -0.0113063 2.85158 0.000286739 2.7445 0.0446113C2.63741 0.088898 2.54587 0.16398 2.48149 0.260343C2.41711 0.356706 2.38278 0.470012 2.38286 0.585904V2.34373H0.585976C0.470092 2.34363 0.356788 2.37795 0.260429 2.44232C0.164071 2.5067 0.0889961 2.59824 0.0447232 2.70533C0.000283465 2.81239 -0.0113672 2.93023 0.0112482 3.04392C0.0338636 3.15761 0.0897266 3.26203 0.171755 3.34393L3.72646 6.8986C3.78085 6.95303 3.84542 6.99621 3.91651 7.02567C3.98759 7.05513 4.06378 7.07029 4.14072 7.07028H6.24187L9.58579 10.4142C9.58915 10.4176 9.59372 10.4185 9.59716 10.4218C9.82529 10.6395 10.1718 10.6424 10.403 10.4218C10.6464 10.1894 10.641 9.82654 10.4219 9.59705Z" fill="#505050"/>
<path d="M10.0001 0C8.50079 0 7.08324 0.381448 5.80675 0.977271L7.60418 2.7747C8.35856 2.52384 9.16259 2.38283 10.0001 2.38283C14.2001 2.38279 17.6173 5.8 17.6173 9.99998C17.6173 14.2 14.2001 17.6172 10.0001 17.6172C5.80003 17.6172 2.38286 14.2 2.38286 9.99998C2.38286 9.16248 2.52392 8.35845 2.77474 7.60407L0.977309 5.80664C0.381563 7.08317 7.6294e-05 8.50071 7.6294e-05 9.99998C7.6294e-05 15.4926 4.50749 20 10.0001 20C15.4926 20 20.0001 15.4926 20.0001 9.99998C20.0001 4.50741 15.4927 0 10.0001 0Z" fill="#505050"/>
<path d="M10.0001 4.72655C9.38072 4.72655 8.79478 4.85351 8.24224 5.0505V5.75652L9.59681 7.1111C9.72986 7.0925 9.86197 7.07032 10.0001 7.07032C11.6154 7.07032 12.9298 8.38466 12.9298 10C12.9298 11.6154 11.6154 12.9297 10.0001 12.9297C8.3847 12.9297 7.07035 11.6154 7.07035 10C7.07035 9.8619 7.09254 9.72978 7.11113 9.59678L5.7566 8.24216H5.05058C4.85358 8.7947 4.72663 9.38064 4.72663 9.99998C4.72663 12.9079 7.09215 15.2734 10.0001 15.2734C12.908 15.2734 15.2735 12.9079 15.2735 9.99998C15.2735 7.09203 12.908 4.72655 10.0001 4.72655Z" fill="#505050"/>
</svg>
