<svg width="20" height="20" viewBox="0 0 20 20" fill="none" xmlns="http://www.w3.org/2000/svg">
<path fill-rule="evenodd" clip-rule="evenodd" d="M3 0C1.34315 0 0 1.34315 0 3V17C0 18.6569 1.34315 20 3 20H17C18.6569 20 20 18.6569 20 17V3C20 1.34315 18.6569 0 17 0H3ZM4.25 5.5C4.94036 5.5 5.5 4.94036 5.5 4.25C5.5 3.55964 4.94036 3 4.25 3C3.55964 3 3 3.55964 3 4.25C3 4.94036 3.55964 5.5 4.25 5.5ZM9.25 3C8.55964 3 8 3.55964 8 4.25C8 4.94036 8.55964 5.5 9.25 5.5H15.75C16.4404 5.5 17 4.94036 17 4.25C17 3.55964 16.4404 3 15.75 3H9.25ZM5.5 10.25C5.5 10.9404 4.94036 11.5 4.25 11.5C3.55964 11.5 3 10.9404 3 10.25C3 9.55964 3.55964 9 4.25 9C4.94036 9 5.5 9.55964 5.5 10.25ZM9.25 9C8.55964 9 8 9.55964 8 10.25C8 10.9404 8.55964 11.5 9.25 11.5H15.75C16.4404 11.5 17 10.9404 17 10.25C17 9.55964 16.4404 9 15.75 9H9.25ZM5.5 16.25C5.5 16.9404 4.94036 17.5 4.25 17.5C3.55964 17.5 3 16.9404 3 16.25C3 15.5596 3.55964 15 4.25 15C4.94036 15 5.5 15.5596 5.5 16.25ZM9.25 15C8.55964 15 8 15.5596 8 16.25C8 16.9404 8.55964 17.5 9.25 17.5H15.75C16.4404 17.5 17 16.9404 17 16.25C17 15.5596 16.4404 15 15.75 15H9.25Z" fill="#505050"/>
</svg>
