<svg width="66" height="74" viewBox="0 0 66 74" fill="none" xmlns="http://www.w3.org/2000/svg">
<path id="Union" fill-rule="evenodd" clip-rule="evenodd" d="M56.0211 67.9668C56.2193 67.7685 56.4883 67.6571 56.7687 67.6571C56.911 67.6514 57.0529 67.6746 57.1861 67.7252C57.3193 67.7757 57.4409 67.8527 57.5436 67.9514C57.6463 68.0502 57.728 68.1686 57.7837 68.2997C57.8395 68.4308 57.8681 68.5718 57.868 68.7143V69.4754C57.868 70.6754 57.3913 71.8262 56.5428 72.6748C55.6943 73.5233 54.5435 74 53.3435 74H4.5246C3.32461 74 2.17382 73.5233 1.3253 72.6748C0.476778 71.8262 0 70.6754 0 69.4754V4.5246C0 3.32461 0.476778 2.17376 1.3253 1.32524C2.17382 0.476714 3.32461 0 4.5246 0H42.4443C43.0339 0.000868771 43.6174 0.118058 44.1617 0.34481C44.7059 0.571562 45.2 0.903422 45.6157 1.32143L56.462 12.2206C57.3024 13.0629 57.7771 14.2022 57.7835 15.392V20.5614C57.7835 20.8418 57.6721 21.1107 57.4739 21.3089C57.2756 21.5072 57.0067 21.6186 56.7263 21.6186C56.4459 21.6186 56.177 21.5072 55.9788 21.3089C55.7805 21.1107 55.6692 20.8418 55.6692 20.5614V15.392C55.6801 15.2795 55.6801 15.1662 55.6692 15.0537H46.6094C45.5953 15.0509 44.6236 14.6469 43.9065 13.9298C43.1895 13.2127 42.7853 12.2409 42.7825 11.2269V2.16713C42.67 2.15624 42.5568 2.15624 42.4443 2.16713H4.53518C3.90996 2.16713 3.31027 2.41549 2.86817 2.85759C2.42607 3.29969 2.17778 3.89937 2.17778 4.5246V69.486C2.17778 70.1112 2.42607 70.7108 2.86817 71.1529C3.31027 71.595 3.90996 71.8435 4.53518 71.8435H53.354C53.9792 71.8435 54.5789 71.595 55.021 71.1529C55.4631 70.7108 55.7115 70.1112 55.7115 69.486V68.7143C55.7115 68.4339 55.8228 68.165 56.0211 67.9668ZM46.5989 12.9394H54.1574L44.9497 3.7V11.2903C44.9497 11.7277 45.1235 12.1471 45.4328 12.4564C45.742 12.7657 46.1616 12.9394 46.5989 12.9394ZM11.5448 26.2701C11.3037 26.1117 11.0096 26.0556 10.7271 26.1141C10.4446 26.1725 10.1968 26.3409 10.0384 26.582C9.87995 26.8231 9.82385 27.1172 9.88234 27.3997C9.94082 27.6822 10.1091 27.93 10.3503 28.0884C11.539 28.9522 12.9618 29.4351 14.4308 29.4732V30.9321C14.4308 31.2125 14.5421 31.4814 14.7404 31.6796C14.9386 31.8779 15.2076 31.9893 15.488 31.9893C15.7683 31.9893 16.0373 31.8779 16.2355 31.6796C16.4338 31.4814 16.5451 31.2125 16.5451 30.9321V29.3887C17.7326 29.1704 18.8234 28.5898 19.6676 27.7267C20.5118 26.8635 21.068 25.7601 21.2599 24.5681C21.498 23.3269 21.2692 22.0415 20.6175 20.9587C19.9659 19.8758 18.9373 19.0718 17.7291 18.701L16.5451 18.2676V12.1995C17.1816 12.3204 17.7798 12.5923 18.2894 12.9924C18.5011 13.1858 18.781 13.2873 19.0674 13.2744C19.3539 13.2615 19.6235 13.1353 19.8169 12.9236C20.0104 12.712 20.1119 12.4321 20.099 12.1456C20.0861 11.8592 19.96 11.5896 19.7483 11.3961C18.8448 10.6416 17.7444 10.161 16.5768 10.0112V8.70036C16.5768 8.41999 16.4654 8.15112 16.2671 7.95286C16.0689 7.75461 15.8001 7.64322 15.5197 7.64322C15.2393 7.64322 14.9704 7.75461 14.7721 7.95286C14.5739 8.15112 14.4626 8.41999 14.4626 8.70036V10.0958L13.8071 10.2544C12.959 10.525 12.2011 11.0229 11.6159 11.6938C11.0308 12.3647 10.6406 13.183 10.4877 14.0601C10.3027 14.824 10.3343 15.6244 10.5789 16.3713C10.8235 17.1182 11.2715 17.7822 11.8725 18.2887C12.67 18.8892 13.5403 19.3865 14.4626 19.7687V27.3484C13.4008 27.3047 12.3798 26.9274 11.5448 26.2701ZM13.1833 16.5444C12.9005 16.28 12.6958 15.9429 12.5914 15.5701C12.487 15.1973 12.487 14.803 12.5914 14.4301C12.6709 13.9462 12.8814 13.4934 13.2001 13.1206C13.5188 12.7479 13.9334 12.4696 14.3991 12.3158V17.3161C13.9726 17.0939 13.5659 16.8357 13.1833 16.5444ZM17.0525 20.773C17.7752 20.9811 18.3934 21.4528 18.7849 22.0949C19.1765 22.737 19.3127 23.5026 19.1668 24.2404C19.0509 24.9234 18.7488 25.5611 18.2937 26.0834C17.8385 26.6057 17.2482 26.9922 16.5874 27.2004V20.6144L17.0525 20.773ZM23.7238 37.0632H9.14573C8.85835 37.0632 8.5828 37.1774 8.37959 37.3806C8.17638 37.5838 8.06213 37.8594 8.06213 38.1468C8.06213 38.4342 8.17638 38.7098 8.37959 38.913C8.5828 39.1162 8.85835 39.2304 9.14573 39.2304H23.7238C24.0112 39.2304 24.2867 39.1162 24.4899 38.913C24.6931 38.7098 24.8072 38.4342 24.8072 38.1468C24.8072 37.8594 24.6931 37.5838 24.4899 37.3806C24.2867 37.1774 24.0112 37.0632 23.7238 37.0632ZM23.7245 46.5148H9.14651C8.85772 46.5148 8.58082 46.6295 8.37662 46.8337C8.17242 47.0379 8.05762 47.3149 8.05762 47.6037C8.05762 47.8925 8.17242 48.1694 8.37662 48.3736C8.58082 48.5778 8.85772 48.6925 9.14651 48.6925H23.7245C24.0133 48.6925 24.2902 48.5778 24.4944 48.3736C24.6986 48.1694 24.8133 47.8925 24.8133 47.6037C24.8133 47.3149 24.6986 47.0379 24.4944 46.8337C24.2902 46.6295 24.0133 46.5148 23.7245 46.5148ZM9.14638 56.0284H23.7244C24.0048 56.0284 24.2736 56.1398 24.4719 56.3381C24.6701 56.5363 24.7816 56.8052 24.7816 57.0856C24.7816 57.366 24.6701 57.6348 24.4719 57.8331C24.2736 58.0313 24.0048 58.1427 23.7244 58.1427H9.14638C8.866 58.1427 8.59707 58.0313 8.39881 57.8331C8.20056 57.6348 8.08923 57.366 8.08923 57.0856C8.08923 56.8052 8.20056 56.5363 8.39881 56.3381C8.59707 56.1398 8.866 56.0284 9.14638 56.0284ZM38.2186 43.0048H35.9245C35.6371 43.0048 35.3616 43.119 35.1584 43.3222C34.9552 43.5254 34.8411 43.801 34.8411 44.0884C34.8411 44.3758 34.9552 44.6514 35.1584 44.8546C35.3616 45.0578 35.6371 45.172 35.9245 45.172H38.2186C38.506 45.172 38.7815 45.0578 38.9847 44.8546C39.1879 44.6514 39.3022 44.3758 39.3022 44.0884C39.3022 43.801 39.1879 43.5254 38.9847 43.3222C38.7815 43.119 38.506 43.0048 38.2186 43.0048ZM42.8712 43.0048H45.1757C45.4631 43.0048 45.7388 43.119 45.942 43.3222C46.1452 43.5254 46.2593 43.801 46.2593 44.0884C46.2593 44.3758 46.1452 44.6514 45.942 44.8546C45.7388 45.0578 45.4631 45.172 45.1757 45.172H42.8712C42.5838 45.172 42.3081 45.0578 42.1049 44.8546C41.9017 44.6514 41.7876 44.3758 41.7876 44.0884C41.7876 43.801 41.9017 43.5254 42.1049 43.3222C42.3081 43.119 42.5838 43.0048 42.8712 43.0048ZM52.1495 43.0048H49.8448C49.5574 43.0048 49.2819 43.119 49.0787 43.3222C48.8755 43.5254 48.7612 43.801 48.7612 44.0884C48.7612 44.3758 48.8755 44.6514 49.0787 44.8546C49.2819 45.0578 49.5574 45.172 49.8448 45.172H52.1495C52.4368 45.172 52.7124 45.0578 52.9156 44.8546C53.1188 44.6514 53.2329 44.3758 53.2329 44.0884C53.2329 43.801 53.1188 43.5254 52.9156 43.3222C52.7124 43.119 52.4368 43.0048 52.1495 43.0048ZM56.8456 43.0048H59.1502C59.4376 43.0048 59.7131 43.119 59.9163 43.3222C60.1195 43.5254 60.2337 43.801 60.2337 44.0884C60.2337 44.3758 60.1195 44.6514 59.9163 44.8546C59.7131 45.0578 59.4376 45.172 59.1502 45.172H56.8456C56.5582 45.172 56.2826 45.0578 56.0794 44.8546C55.8762 44.6514 55.762 44.3758 55.762 44.0884C55.762 43.801 55.8762 43.5254 56.0794 43.3222C56.2826 43.119 56.5582 43.0048 56.8456 43.0048ZM38.2148 48.6286H35.9208C35.6404 48.6286 35.3716 48.7399 35.1734 48.9382C34.9751 49.1365 34.8636 49.4053 34.8636 49.6857C34.8636 49.9661 34.9751 50.2349 35.1734 50.4332C35.3716 50.6314 35.6404 50.7428 35.9208 50.7428H38.2148C38.4952 50.7428 38.7641 50.6314 38.9624 50.4332C39.1607 50.2349 39.272 49.9661 39.272 49.6857C39.272 49.4053 39.1607 49.1365 38.9624 48.9382C38.7641 48.7399 38.4952 48.6286 38.2148 48.6286ZM42.8673 48.6286H45.1718C45.4522 48.6286 45.7211 48.7399 45.9194 48.9382C46.1176 49.1365 46.229 49.4053 46.229 49.6857C46.229 49.9661 46.1176 50.2349 45.9194 50.4332C45.7211 50.6314 45.4522 50.7428 45.1718 50.7428H42.8673C42.587 50.7428 42.318 50.6314 42.1198 50.4332C41.9215 50.2349 41.8102 49.9661 41.8102 49.6857C41.8102 49.4053 41.9215 49.1365 42.1198 48.9382C42.318 48.7399 42.587 48.6286 42.8673 48.6286ZM52.1501 48.6286H49.8455C49.5651 48.6286 49.2962 48.7399 49.0979 48.9382C48.8997 49.1365 48.7883 49.4053 48.7883 49.6857C48.7883 49.9661 48.8997 50.2349 49.0979 50.4332C49.2962 50.6314 49.5651 50.7428 49.8455 50.7428H52.1501C52.4305 50.7428 52.6993 50.6314 52.8975 50.4332C53.0958 50.2349 53.2072 49.9661 53.2072 49.6857C53.2072 49.4053 53.0958 49.1365 52.8975 48.9382C52.6993 48.7399 52.4305 48.6286 52.1501 48.6286ZM56.8462 48.6286H59.1508C59.4312 48.6286 59.7 48.7399 59.8983 48.9382C60.0965 49.1365 60.208 49.4053 60.208 49.6857C60.208 49.9661 60.0965 50.2349 59.8983 50.4332C59.7 50.6314 59.4312 50.7428 59.1508 50.7428H56.8462C56.5658 50.7428 56.2969 50.6314 56.0986 50.4332C55.9004 50.2349 55.7891 49.9661 55.7891 49.6857C55.7891 49.4053 55.9004 49.1365 56.0986 48.9382C56.2969 48.7399 56.5658 48.6286 56.8462 48.6286ZM38.2148 54.2737H35.9208C35.6404 54.2737 35.3716 54.3851 35.1734 54.5833C34.9751 54.7816 34.8636 55.0505 34.8636 55.3309C34.8636 55.6113 34.9751 55.8801 35.1734 56.0784C35.3716 56.2766 35.6404 56.388 35.9208 56.388H38.2148C38.4952 56.388 38.7641 56.2766 38.9624 56.0784C39.1607 55.8801 39.272 55.6113 39.272 55.3309C39.272 55.0505 39.1607 54.7816 38.9624 54.5833C38.7641 54.3851 38.4952 54.2737 38.2148 54.2737ZM42.8673 54.2737H45.1718C45.4522 54.2737 45.7211 54.3851 45.9194 54.5833C46.1176 54.7816 46.229 55.0505 46.229 55.3309C46.229 55.6113 46.1176 55.8801 45.9194 56.0784C45.7211 56.2766 45.4522 56.388 45.1718 56.388H42.8673C42.587 56.388 42.318 56.2766 42.1198 56.0784C41.9215 55.8801 41.8102 55.6113 41.8102 55.3309C41.8102 55.0505 41.9215 54.7816 42.1198 54.5833C42.318 54.3851 42.587 54.2737 42.8673 54.2737ZM52.1501 54.2737H49.8455C49.5651 54.2737 49.2962 54.3851 49.0979 54.5833C48.8997 54.7816 48.7883 55.0505 48.7883 55.3309C48.7883 55.6113 48.8997 55.8801 49.0979 56.0784C49.2962 56.2766 49.5651 56.388 49.8455 56.388H52.1501C52.4305 56.388 52.6993 56.2766 52.8975 56.0784C53.0958 55.8801 53.2072 55.6113 53.2072 55.3309C53.2072 55.0505 53.0958 54.7816 52.8975 54.5833C52.6993 54.3851 52.4305 54.2737 52.1501 54.2737ZM56.8462 54.2737H59.1508C59.4312 54.2737 59.7 54.3851 59.8983 54.5833C60.0965 54.7816 60.208 55.0505 60.208 55.3309C60.208 55.6113 60.0965 55.8801 59.8983 56.0784C59.7 56.2766 59.4312 56.388 59.1508 56.388H56.8462C56.5658 56.388 56.2969 56.2766 56.0986 56.0784C55.9004 55.8801 55.7891 55.6113 55.7891 55.3309C55.7891 55.0505 55.9004 54.7816 56.0986 54.5833C56.2969 54.3851 56.5658 54.2737 56.8462 54.2737ZM32.9317 24.6002H62.1088C62.6084 24.5918 63.1046 24.6829 63.5686 24.8682C64.0325 25.0536 64.4548 25.3295 64.811 25.6798C65.1673 26.0301 65.4502 26.4479 65.6433 26.9086C65.8363 27.3694 65.9358 27.864 65.9357 28.3636V60.9659C65.9329 61.9631 65.5356 62.9188 64.8304 63.624C64.1252 64.3291 63.1696 64.7265 62.1723 64.7293H32.9846C31.9873 64.7265 31.0317 64.3291 30.3265 63.624C29.6214 62.9188 29.2239 61.9631 29.2211 60.9659V37.0745C29.2211 36.7941 29.3325 36.5252 29.5307 36.327C29.729 36.1287 29.9979 36.0173 30.2783 36.0173C30.5586 36.0173 30.8276 36.1287 31.0258 36.327C31.2241 36.5252 31.3354 36.7941 31.3354 37.0745V60.9659C31.3382 61.3884 31.5073 61.7929 31.806 62.0916C32.1048 62.3904 32.5092 62.5594 32.9317 62.5622H62.0666C62.4891 62.5594 62.8935 62.3904 63.1923 62.0916C63.4911 61.7929 63.66 61.3884 63.6628 60.9659V28.3636C63.6628 27.9403 63.4946 27.5342 63.1953 27.2349C62.8959 26.9355 62.49 26.7673 62.0666 26.7673H32.8788C32.4554 26.7673 32.0495 26.9355 31.7502 27.2349C31.4508 27.5342 31.2825 27.9403 31.2825 28.3636V32.0108C31.2825 32.2912 31.1712 32.56 30.9729 32.7583C30.7747 32.9565 30.5057 33.0679 30.2254 33.0679C29.945 33.0679 29.6762 32.9565 29.4779 32.7583C29.2797 32.56 29.1682 32.2912 29.1682 32.0108V28.3636C29.1682 27.3655 29.5647 26.4082 30.2705 25.7024C30.9763 24.9967 31.9336 24.6002 32.9317 24.6002ZM60.0027 38.2158C60.1512 37.9398 60.2275 37.6306 60.2246 37.3172V31.7672C60.228 31.3235 60.0746 30.893 59.7913 30.5515L59.675 30.4247C59.4977 30.2465 59.2867 30.1052 59.0544 30.0091C58.8222 29.9129 58.5732 29.8637 58.3218 29.8643H36.7244C36.2159 29.8643 35.7282 30.0656 35.3677 30.4241C35.0072 30.7827 34.8032 31.2693 34.8004 31.7778V37.3278C34.8032 37.8362 35.0072 38.3229 35.3677 38.6814C35.7282 39.0399 36.2159 39.2412 36.7244 39.2412H58.7024H58.8293H58.8927H58.9879H59.0724H59.157H59.231H59.3261H59.3896C59.414 39.246 59.4391 39.246 59.4635 39.2412H59.5376L59.6115 39.1778L59.675 39.1143L59.749 39.0403L59.8019 38.9769V38.9029C59.8067 38.8785 59.8067 38.8533 59.8019 38.8289L59.8652 38.7126L60.0027 38.2158ZM36.957 37.0635V32.0209H58.0999V37.0635H36.957Z" fill="url(#paint0_linear_1_586)"/>
<defs>
<linearGradient id="paint0_linear_1_586" x1="3.09073" y1="1.81269e-06" x2="68.7109" y2="60.0941" gradientUnits="userSpaceOnUse">
<stop stop-color="#FE5B52"/>
<stop offset="0.948075" stop-color="#3E96F4"/>
</linearGradient>
</defs>
</svg>
