<svg width="42" height="42" viewBox="0 0 42 42" fill="none" xmlns="http://www.w3.org/2000/svg">
<path d="M6 0.700195H29.0146C30.4203 0.700195 31.7688 1.25803 32.7627 2.25195L36.5049 5.99512L39.748 9.2373C40.742 10.2312 41.2998 11.5797 41.2998 12.9854V36C41.2998 38.9271 38.9271 41.2998 36 41.2998H6C3.07289 41.2998 0.700195 38.9271 0.700195 36V6C0.700195 3.07289 3.07289 0.700196 6 0.700195Z" stroke="#3E96F4" stroke-width="1.4"/>
<path d="M7.5 34.5H22" stroke="#3E96F4" stroke-width="1.4" stroke-linecap="round"/>
<path d="M7.5 30H35.5" stroke="#3E96F4" stroke-width="1.4" stroke-linecap="round"/>
<path d="M25 16C25 20.9706 20.9706 25 16 25C11.0294 25 7 20.9706 7 16C7 11.0294 11.0294 7 16 7C20.9706 7 25 11.0294 25 16ZM11.8136 16C11.8136 18.3121 13.6879 20.1864 16 20.1864C18.3121 20.1864 20.1864 18.3121 20.1864 16C20.1864 13.6879 18.3121 11.8136 16 11.8136C13.6879 11.8136 11.8136 13.6879 11.8136 16Z" stroke="#3E96F4" stroke-width="1.4" stroke-linecap="round"/>
<path d="M16 7V12" stroke="#3E96F4" stroke-width="1.4"/>
<path d="M20 17.5L24 19.8096M13.5 19.5L10.5 23.5" stroke="#3E96F4" stroke-width="1.4"/>
</svg>
