<svg width="64" height="64" viewBox="0 0 64 64" fill="none" xmlns="http://www.w3.org/2000/svg">
<rect width="64" height="64" fill="#EDF5FC"/>
<path fill-rule="evenodd" clip-rule="evenodd" d="M31.9998 25.672C35.4893 25.672 38.3279 28.5106 38.3279 32.0001C38.3279 35.4896 35.4893 38.3282 31.9998 38.3282C28.5103 38.3282 25.6717 35.4896 25.6717 32.0001C25.6717 28.5106 28.5103 25.672 31.9998 25.672ZM36.0125 29.3936C35.7379 29.119 35.293 29.119 35.0184 29.3936L31.2967 33.1153L28.9813 30.7999C28.7066 30.5252 28.2618 30.5252 27.9871 30.7999C27.7125 31.0745 27.7125 31.5194 27.9871 31.794L30.7996 34.6065C30.9369 34.7439 31.1168 34.8126 31.2967 34.8126C31.4765 34.8126 31.6564 34.7439 31.7938 34.6065L36.0125 30.3878C36.2872 30.1131 36.2872 29.6683 36.0125 29.3936Z" fill="#3E96F4"/>
<path fill-rule="evenodd" clip-rule="evenodd" d="M30.6317 20.5059C31.4254 19.8317 32.577 19.831 33.368 20.5059L34.9734 21.9288L37.7772 21.711C38.8064 21.63 39.7449 22.306 39.99 23.3194L40.5428 25.6046L42.993 27.0704C43.88 27.6149 44.2355 28.71 43.8387 29.672L42.8817 31.9903L43.8377 34.3077C44.2345 35.2709 43.8791 36.3647 42.993 36.9093L40.5428 38.3751L39.99 40.6602C39.7463 41.6737 38.825 42.3517 37.7772 42.2686L35.0037 42.0548L33.368 43.4932C32.9718 43.8311 32.4853 44.0001 31.9998 44.0001C31.5137 44.0001 31.0279 43.831 30.6317 43.4932L28.9959 42.0548L26.2225 42.2686C25.1879 42.3455 24.2535 41.6737 24.0096 40.6612L23.4549 38.3653L21.0076 36.9093C20.1205 36.3648 19.7637 35.2711 20.1619 34.3077L21.118 31.9903L20.1619 29.672C19.7645 28.7093 20.1199 27.6156 21.0076 27.0704L23.2234 25.7569L24.035 23.2364C24.254 22.3067 25.2049 21.6396 26.2225 21.711L29.0262 21.9288L30.6317 20.5059ZM31.9998 24.2657C27.7351 24.2657 24.2654 27.7354 24.2654 32.0001C24.2654 36.2648 27.7351 39.7344 31.9998 39.7345C36.2645 39.7345 39.7342 36.2648 39.7342 32.0001C39.7342 27.7354 36.2645 24.2657 31.9998 24.2657Z" fill="#3E96F4"/>
</svg>
