<svg width="235" height="215" viewBox="0 0 235 215" fill="none" xmlns="http://www.w3.org/2000/svg">
<g clip-path="url(#clip0_9_1463)">
<path d="M58.5967 81.6564L62.169 78.1755L100.553 121.461L100.922 121.877L101.297 121.466L110.359 111.53L164.192 52.5053L171.715 44.2564L171.715 44.2561L172.857 43.0056L172.857 43.0053L178.016 37.3471L185.435 29.2124L185.435 29.2122L186.631 27.9021L186.632 27.9019L198.266 15.1456L209.675 26.842L210.033 26.4929L209.675 26.842L216.934 34.2834L203.455 49.1875L192.436 61.3725L192.436 61.3728L189.263 64.8866L189.263 64.8869L177.484 77.9104L177.855 78.2458L177.484 77.9105L100.932 162.567L43.0222 96.835L58.5967 81.6564Z" fill="url(#paint0_linear_9_1463)" stroke="white"/>
<path d="M63.307 77.9517H78.8585L109.312 111.193L100.933 120.382L63.307 77.9517Z" fill="url(#paint1_linear_9_1463)" stroke="white"/>
<path d="M217.831 33.7704L199.44 14.917H214.437L233.771 33.7704H217.831Z" fill="url(#paint2_linear_9_1463)" stroke="white"/>
<path d="M233.873 34.7705L209.791 61.3674L209.791 61.3675L197.432 75.0216L197.432 75.0217L194.83 77.8954L181.134 93.0187L181.505 93.3544L181.134 93.0188L117.936 162.818H102.054L178.226 78.5813L190.005 65.5574L190.005 65.5571L193.178 62.0433L193.178 62.0431L204.196 49.8583L217.842 34.7705H233.873Z" fill="url(#paint3_linear_9_1463)" stroke="white"/>
<g opacity="0.5">
<path d="M201.826 107.176V107.177C201.826 162.953 161.501 208.672 110.188 213.317C107.343 213.574 104.466 213.704 101.558 213.707C46.2068 213.707 1.28516 166.043 1.28516 107.177C1.28516 48.3111 46.2071 0.647461 101.558 0.647461C104.47 0.647461 107.346 0.7775 110.187 1.03749L110.188 1.03754C133.016 3.10112 153.667 13.2969 169.559 28.8933L163.622 35.3824L163.621 35.3837L156.477 43.2484C144.033 31.175 128.006 23.1532 110.324 21.147C107.426 20.8165 104.511 20.6497 101.593 20.6474H101.593C56.5582 20.6474 20.1031 59.4108 20.1031 107.167C20.1031 154.924 56.5482 193.687 101.593 193.687H101.593C104.511 193.685 107.426 193.518 110.324 193.188C151.246 188.556 183.083 151.788 183.083 107.158C183.084 102.584 182.745 98.0174 182.07 93.4945L195.606 78.5468L195.235 78.2112L195.606 78.5468L197.604 76.3401C200.429 86.373 201.851 96.7505 201.826 107.176Z" fill="url(#paint4_linear_9_1463)" stroke="white"/>
<path d="M101.558 21.667C102.975 21.6681 104.391 21.7085 105.805 21.7881C67.0093 28.4445 37.4182 64.1692 37.4182 107.197C37.4182 150.225 67.0092 185.931 105.804 192.586C104.39 192.665 102.974 192.706 101.558 192.707C57.1313 192.707 21.0682 154.449 21.0682 107.187C21.0682 59.9251 57.1215 21.6671 101.558 21.667Z" fill="url(#paint5_linear_9_1463)" stroke="white"/>
<path d="M219.182 107.177V107.178C219.182 166.044 174.26 213.707 118.909 213.707C117.857 213.707 116.81 213.69 115.768 213.657C164.992 206.32 202.827 161.426 202.827 107.178C202.839 96.5849 201.372 86.043 198.468 75.8574H214.763C217.703 86.0369 219.191 96.5808 219.182 107.177Z" fill="url(#paint6_linear_9_1463)" stroke="white"/>
<path d="M185.563 27.5897L184.846 28.3754H170.459C155.671 13.7659 136.76 3.82611 115.786 0.700138C116.823 0.666207 117.864 0.648647 118.909 0.647461C140.845 0.647524 161.138 8.13164 177.651 20.8291C180.401 22.9473 183.042 25.2038 185.563 27.5897Z" fill="url(#paint7_linear_9_1463)" stroke="white"/>
<path d="M171.125 43.4189H157.666L164.381 36.0564L164.381 36.0564L170.474 29.375H183.933L177.277 36.673L177.277 36.6731L172.118 42.331L172.118 42.3313L171.125 43.4189Z" fill="url(#paint8_linear_9_1463)" stroke="white"/>
</g>
</g>
<defs>
<linearGradient id="paint0_linear_9_1463" x1="36.7183" y1="186.008" x2="179.283" y2="195.055" gradientUnits="userSpaceOnUse">
<stop stop-color="#0083F4"/>
<stop offset="1" stop-color="#52AFFF"/>
</linearGradient>
<linearGradient id="paint1_linear_9_1463" x1="103.646" y1="121.077" x2="114.592" y2="93.812" gradientUnits="userSpaceOnUse">
<stop stop-color="#0062B7"/>
<stop offset="1" stop-color="#52AFFF"/>
</linearGradient>
<linearGradient id="paint2_linear_9_1463" x1="221.447" y1="24.4721" x2="214.774" y2="31.4549" gradientUnits="userSpaceOnUse">
<stop stop-color="#B5DDFF"/>
<stop offset="1" stop-color="#6ABAFF"/>
</linearGradient>
<linearGradient id="paint3_linear_9_1463" x1="185.55" y1="99.6286" x2="147.627" y2="121.905" gradientUnits="userSpaceOnUse">
<stop stop-color="#B5DDFF"/>
<stop offset="1" stop-color="#6ABAFF"/>
</linearGradient>
<linearGradient id="paint4_linear_9_1463" x1="-5.67019" y1="246.827" x2="158.484" y2="255.158" gradientUnits="userSpaceOnUse">
<stop stop-color="#0086FA"/>
<stop offset="1" stop-color="#66B8FF"/>
</linearGradient>
<linearGradient id="paint5_linear_9_1463" x1="31.3651" y1="128.027" x2="-66.4096" y2="53.6912" gradientUnits="userSpaceOnUse">
<stop stop-color="#BFE2FF"/>
<stop offset="1" stop-color="white"/>
</linearGradient>
<linearGradient id="paint6_linear_9_1463" x1="215.54" y1="78.6824" x2="227.388" y2="239.349" gradientUnits="userSpaceOnUse">
<stop offset="0.265" stop-color="#BFE1FF"/>
<stop offset="1" stop-color="#8CCAFF"/>
</linearGradient>
<linearGradient id="paint7_linear_9_1463" x1="186.35" y1="38.3724" x2="152.283" y2="-44.5229" gradientUnits="userSpaceOnUse">
<stop stop-color="#BFE2FF"/>
<stop offset="1" stop-color="white"/>
</linearGradient>
<linearGradient id="paint8_linear_9_1463" x1="155.619" y1="46.2114" x2="178.678" y2="48.569" gradientUnits="userSpaceOnUse">
<stop stop-color="#52AFFF"/>
<stop offset="1" stop-color="#CCE7FF"/>
</linearGradient>
<clipPath id="clip0_9_1463">
<rect width="234.215" height="214.06" fill="white" transform="translate(0.785156 0.147461)"/>
</clipPath>
</defs>
</svg>
