<svg width="56" height="56" viewBox="0 0 56 56" fill="none" xmlns="http://www.w3.org/2000/svg">
<path d="M0 4C0 1.79086 1.79086 0 4 0H52C54.2091 0 56 1.79086 56 4V52C56 54.2091 54.2091 56 52 56H4C1.79086 56 0 54.2091 0 52V4Z" fill="#FFF8F5"/>
<mask id="mask0_1_2038" style="mask-type:alpha" maskUnits="userSpaceOnUse" x="8" y="8" width="40" height="40">
<rect x="8" y="8" width="40" height="40" fill="#D9D9D9"/>
</mask>
<g mask="url(#mask0_1_2038)">
<path d="M18.1485 13.5695V10.957C18.151 10.4371 18.3593 9.93932 18.7278 9.57259C19.0963 9.20585 19.5951 8.99999 20.115 9C20.634 9 21.1318 9.20616 21.4988 9.57317C21.8658 9.94017 22.072 10.438 22.072 10.957V13.5695" stroke="black" stroke-miterlimit="10"/>
<path d="M13.408 38.4691V19.9726C13.4206 18.2029 14.133 16.5101 15.3897 15.264C16.6464 14.018 18.3453 13.32 20.115 13.3226C21.8787 13.3226 23.5701 14.0232 24.8172 15.2703C26.0643 16.5174 26.765 18.2089 26.765 19.9726V38.4691" stroke="black" stroke-miterlimit="10"/>
<path d="M13.579 21.0935H26.651" stroke="black" stroke-miterlimit="10"/>
<path d="M34.3935 25.929V23.6015C34.3935 23.3749 34.4383 23.1505 34.5253 22.9413C34.6123 22.732 34.7398 22.5421 34.9005 22.3823C35.0612 22.2225 35.2518 22.096 35.4615 22.0101C35.6713 21.9243 35.8959 21.8807 36.1225 21.882C36.5785 21.882 37.0159 22.0632 37.3384 22.3856C37.6608 22.7081 37.842 23.1454 37.842 23.6015V25.9005" stroke="black" stroke-miterlimit="10"/>
<path d="M30.2325 38.469V31.5435C30.235 29.983 30.8567 28.4873 31.961 27.3848C33.0653 26.2822 34.562 25.663 36.1225 25.663C37.6821 25.663 39.1778 26.2826 40.2806 27.3854C41.3835 28.4882 42.003 29.9839 42.003 31.5435V38.469" stroke="black" stroke-miterlimit="10"/>
<path d="M30.3845 32.5315H41.8605" stroke="black" stroke-miterlimit="10"/>
<path d="M36.1225 21.9105V18.8515C36.1225 18.6686 36.0863 18.4874 36.016 18.3185C35.9457 18.1496 35.8427 17.9963 35.7129 17.8673C35.5831 17.7384 35.429 17.6365 35.2597 17.5673C35.0903 17.4982 34.9089 17.4632 34.726 17.4645H26.176" stroke="black" stroke-miterlimit="10"/>
<path d="M43.903 38.4785H12.097C10.3866 38.4785 9 39.8651 9 41.5755V43.903C9 45.6134 10.3866 47 12.097 47H43.903C45.6134 47 47 45.6134 47 43.903V41.5755C47 39.8651 45.6134 38.4785 43.903 38.4785Z" stroke="black" stroke-miterlimit="10"/>
<path d="M9 41.9175H17.094C17.3283 41.9175 17.553 42.0106 17.7187 42.1763C17.8844 42.342 17.9775 42.5667 17.9775 42.801V47" stroke="black" stroke-miterlimit="10"/>
<path d="M47 41.9175H38.8965C38.6621 41.9175 38.4374 42.0106 38.2717 42.1763C38.1061 42.342 38.013 42.5667 38.013 42.801V46.9905" stroke="black" stroke-miterlimit="10"/>
<path d="M21.5685 41.4995H20.5805C20.3234 41.4995 20.115 41.7079 20.115 41.965V41.9935C20.115 42.2506 20.3234 42.459 20.5805 42.459H21.5685C21.8256 42.459 22.034 42.2506 22.034 41.9935V41.965C22.034 41.7079 21.8256 41.4995 21.5685 41.4995Z" stroke="black" stroke-width="0.5" stroke-miterlimit="10"/>
<path d="M25.112 41.4995H24.124C23.8669 41.4995 23.6585 41.7079 23.6585 41.965V41.9935C23.6585 42.2506 23.8669 42.459 24.124 42.459H25.112C25.3691 42.459 25.5775 42.2506 25.5775 41.9935V41.965C25.5775 41.7079 25.3691 41.4995 25.112 41.4995Z" stroke="black" stroke-width="0.5" stroke-miterlimit="10"/>
<path d="M28.494 41.4995H27.506C27.2489 41.4995 27.0405 41.7079 27.0405 41.965V41.9935C27.0405 42.2506 27.2489 42.459 27.506 42.459H28.494C28.7511 42.459 28.9595 42.2506 28.9595 41.9935V41.965C28.9595 41.7079 28.7511 41.4995 28.494 41.4995Z" stroke="black" stroke-width="0.5" stroke-miterlimit="10"/>
<path d="M32.0185 41.4995H31.0305C30.7734 41.4995 30.565 41.7079 30.565 41.965V41.9935C30.565 42.2506 30.7734 42.459 31.0305 42.459H32.0185C32.2756 42.459 32.484 42.2506 32.484 41.9935V41.965C32.484 41.7079 32.2756 41.4995 32.0185 41.4995Z" stroke="black" stroke-width="0.5" stroke-miterlimit="10"/>
<path d="M35.4575 41.4995H34.4695C34.2124 41.4995 34.004 41.7079 34.004 41.965V41.9935C34.004 42.2506 34.2124 42.459 34.4695 42.459H35.4575C35.7146 42.459 35.923 42.2506 35.923 41.9935V41.965C35.923 41.7079 35.7146 41.4995 35.4575 41.4995Z" stroke="black" stroke-width="0.5" stroke-miterlimit="10"/>
</g>
</svg>
