<svg width="574" height="395" viewBox="0 0 574 395" fill="none" xmlns="http://www.w3.org/2000/svg">
<path d="M327 125.5C327 149.898 317.564 173.35 300.666 190.949C283.769 208.548 260.72 218.93 236.342 219.922C211.964 220.914 188.148 212.439 169.876 196.271C151.605 180.103 140.295 157.495 138.312 133.177L148.526 132.345C150.293 154.025 160.377 174.182 176.667 188.597C192.957 203.011 214.191 210.567 235.925 209.683C257.659 208.799 278.209 199.543 293.275 183.852C308.34 168.161 316.753 147.252 316.753 125.5H327Z" fill="#3E96F4" fill-opacity="0.2"/>
<circle cx="232.5" cy="125.5" r="71.5" fill="#334C61"/>
<circle cx="232.5" cy="125.5" r="71" stroke="white" stroke-opacity="0.2"/>
<circle cx="393.5" cy="226.5" r="48" fill="#3E96F4" fill-opacity="0.2" stroke="#3A78BB" stroke-dasharray="25 25"/>
<circle cx="415.5" cy="8.5" r="48" fill="#3E96F4" fill-opacity="0.2" stroke="#3A78BB" stroke-dasharray="25 25"/>
<path d="M418.986 30.4051H415.13C414.663 30.41 414.2 30.3221 413.767 30.1465C413.334 29.9708 412.941 29.711 412.609 29.3821C412.278 29.0532 412.015 28.6618 411.836 28.2305C411.657 27.7992 411.565 27.3366 411.567 26.8696V25.2484C411.563 25.1034 411.515 24.963 411.43 24.8454C411.345 24.7278 411.227 24.6385 411.09 24.589C410.958 24.5248 410.81 24.5018 410.665 24.5231C410.519 24.5443 410.384 24.6088 410.275 24.7081L409.112 25.8621C408.447 26.5183 407.55 26.8861 406.616 26.8861C405.682 26.8861 404.785 26.5183 404.12 25.8621L401.372 23.1601C400.72 22.506 400.354 21.62 400.354 20.6963C400.354 19.7726 400.72 18.8865 401.372 18.2324L402.545 17.0783C402.64 16.9755 402.703 16.8468 402.726 16.7084C402.749 16.5699 402.73 16.4278 402.673 16.2998C402.624 16.1576 402.533 16.0335 402.412 15.9436C402.291 15.8538 402.146 15.8023 401.995 15.796H400.356C399.424 15.796 398.529 15.427 397.869 14.7697C397.208 14.1123 396.834 13.2201 396.829 12.288V8.46853C396.831 8.00708 396.923 7.55041 397.101 7.12465C397.279 6.6989 397.539 6.31247 397.867 5.98745C398.194 5.66243 398.583 5.40521 399.01 5.23057C399.437 5.05593 399.894 4.96731 400.356 4.96972H401.995C402.14 4.96558 402.281 4.91791 402.398 4.83298C402.516 4.74805 402.605 4.62976 402.655 4.49342C402.722 4.36416 402.747 4.21729 402.728 4.07296C402.708 3.92864 402.644 3.79395 402.545 3.68739L401.372 2.52414C400.72 1.87 400.354 0.983976 400.354 0.0602779C400.354 -0.86342 400.72 -1.74944 401.372 -2.40358L404.12 -5.10554C404.798 -5.73648 405.69 -6.08727 406.616 -6.08727C407.542 -6.08727 408.434 -5.73648 409.112 -5.10554L410.275 -3.95151C410.379 -3.85419 410.509 -3.78998 410.65 -3.76714C410.79 -3.7443 410.934 -3.76384 411.063 -3.82327C411.204 -3.87105 411.328 -3.96046 411.418 -4.07976C411.508 -4.19905 411.56 -4.34267 411.567 -4.49188V-6.10393C411.574 -7.03599 411.95 -7.9273 412.612 -8.58294C413.275 -9.23859 414.17 -9.60525 415.102 -9.6028H418.949C419.417 -9.61626 419.884 -9.53579 420.32 -9.3661C420.757 -9.19642 421.155 -8.94093 421.492 -8.61481C421.828 -8.28868 422.096 -7.89851 422.279 -7.46726C422.462 -7.03602 422.557 -6.57244 422.558 -6.10393V-4.47354C422.564 -4.33013 422.612 -4.19175 422.697 -4.07595C422.782 -3.96016 422.899 -3.8722 423.034 -3.82327C423.167 -3.75589 423.316 -3.73029 423.463 -3.74992C423.611 -3.76955 423.748 -3.83347 423.859 -3.93317L425.022 -5.08726C425.7 -5.7182 426.592 -6.06894 427.518 -6.06894C428.444 -6.06894 429.336 -5.7182 430.014 -5.08726L432.761 -2.38525C433.414 -1.73111 433.78 -0.845085 433.78 0.0786133C433.78 1.00231 433.414 1.88833 432.761 2.54247L431.598 3.70573C431.501 3.80728 431.436 3.93602 431.413 4.07503C431.39 4.21404 431.41 4.35674 431.47 4.48425C431.517 4.62645 431.606 4.75097 431.725 4.84103C431.845 4.93109 431.989 4.98236 432.139 4.988H433.778C434.24 4.98559 434.698 5.07421 435.125 5.24874C435.553 5.42327 435.942 5.68033 436.271 6.00523C436.599 6.33013 436.86 6.71651 437.039 7.14232C437.218 7.56813 437.311 8.02499 437.314 8.48687V12.3063C437.306 13.2392 436.931 14.1314 436.268 14.7885C435.606 15.4457 434.711 15.8144 433.778 15.8143H432.139C431.995 15.8178 431.855 15.8641 431.738 15.9473C431.62 16.0305 431.53 16.1468 431.479 16.2815C431.412 16.413 431.388 16.562 431.409 16.708C431.431 16.8539 431.497 16.9897 431.598 17.0967L432.761 18.2507C433.414 18.9049 433.78 19.7909 433.78 20.7146C433.78 21.6383 433.414 22.5243 432.761 23.1784L430.014 25.8804C429.349 26.5365 428.452 26.9044 427.518 26.9044C426.583 26.9044 425.687 26.5365 425.022 25.8804L423.859 24.7263C423.756 24.6279 423.625 24.563 423.485 24.5401C423.344 24.5172 423.2 24.5375 423.071 24.5981C422.936 24.6497 422.819 24.7396 422.734 24.8568C422.65 24.9739 422.601 25.1132 422.595 25.2576V26.8696C422.59 27.8017 422.216 28.6939 421.555 29.3513C420.894 30.0086 420 30.3777 419.068 30.3777L418.986 30.4051ZM410.742 21.7404C411.22 21.7421 411.692 21.8353 412.135 22.0152C412.794 22.2704 413.361 22.7176 413.763 23.299C414.164 23.8805 414.382 24.5692 414.388 25.2759V26.8696C414.388 27.0543 414.461 27.2313 414.592 27.3619C414.722 27.4924 414.899 27.5658 415.084 27.5658H418.94C419.125 27.5658 419.302 27.4924 419.432 27.3619C419.563 27.2313 419.636 27.0543 419.636 26.8696V25.2484C419.641 24.5451 419.856 23.8594 420.255 23.2798C420.653 22.7001 421.216 22.2533 421.871 21.9969H421.953C422.594 21.7401 423.295 21.6752 423.972 21.8102C424.648 21.9451 425.271 22.2742 425.764 22.7571L426.927 23.9112C426.992 23.9766 427.069 24.0284 427.154 24.0638C427.238 24.0992 427.33 24.1175 427.422 24.1175C427.514 24.1175 427.605 24.0992 427.689 24.0638C427.774 24.0284 427.851 23.9766 427.916 23.9112L430.664 21.1634C430.793 21.0346 430.865 20.86 430.865 20.6779C430.865 20.4959 430.793 20.3213 430.664 20.1925L429.492 19.0293C429.012 18.5481 428.683 17.937 428.546 17.2713C428.409 16.6056 428.471 15.9144 428.722 15.2831L428.777 15.1457C429.044 14.5001 429.496 13.9478 430.077 13.5583C430.657 13.1688 431.339 12.9595 432.038 12.9566H433.677C433.863 12.9566 434.041 12.8836 434.173 12.7533C434.305 12.623 434.38 12.446 434.383 12.2605V8.44109C434.38 8.25563 434.305 8.07858 434.173 7.94829C434.041 7.818 433.863 7.74495 433.677 7.74497H432.038C431.339 7.73568 430.657 7.52239 430.077 7.13125C429.498 6.74012 429.045 6.18819 428.774 5.54324C428.504 4.89829 428.428 4.18838 428.555 3.50073C428.682 2.81307 429.008 2.17759 429.492 1.67233L430.664 0.518244C430.792 0.385214 430.863 0.208015 430.863 0.0236607C430.863 -0.160694 430.792 -0.337893 430.664 -0.470922L427.916 -3.17294C427.851 -3.23829 427.774 -3.2902 427.689 -3.32561C427.605 -3.36102 427.514 -3.37922 427.422 -3.37922C427.33 -3.37922 427.238 -3.36102 427.154 -3.32561C427.069 -3.2902 426.992 -3.23829 426.927 -3.17294L425.764 -2.00974C425.262 -1.52265 424.628 -1.19354 423.941 -1.06328C423.254 -0.933027 422.544 -1.00732 421.898 -1.27695C421.24 -1.53314 420.674 -1.98071 420.272 -2.5619C419.87 -3.14309 419.652 -3.83125 419.645 -4.53767V-6.10393C419.643 -6.28939 419.567 -6.46644 419.435 -6.59673C419.303 -6.72701 419.125 -6.80006 418.94 -6.80005H415.093C415.001 -6.80126 414.909 -6.78412 414.824 -6.74968C414.738 -6.71524 414.661 -6.66417 414.595 -6.59941C414.529 -6.53465 414.477 -6.4575 414.442 -6.37244C414.406 -6.28738 414.388 -6.19612 414.388 -6.10393V-4.47354C414.352 -3.7812 414.121 -3.11317 413.721 -2.54698C413.321 -1.98079 412.769 -1.53972 412.128 -1.27499C411.487 -1.01027 410.785 -0.932724 410.102 -1.05143C409.419 -1.17014 408.783 -1.48023 408.269 -1.94562L407.106 -3.10881C406.972 -3.23704 406.793 -3.30861 406.607 -3.30861C406.421 -3.30861 406.242 -3.23704 406.108 -3.10881L403.36 -0.406857C403.295 -0.342916 403.243 -0.266647 403.208 -0.182514C403.173 -0.098381 403.154 -0.00803566 403.154 0.0831985C403.154 0.174433 403.173 0.264721 403.208 0.348854C403.243 0.432987 403.295 0.509258 403.36 0.573198L404.523 1.72728C405.017 2.21918 405.351 2.84797 405.484 3.5322C405.616 4.21643 405.54 4.92459 405.265 5.56504C405.003 6.22143 404.551 6.78469 403.967 7.18279C403.382 7.5809 402.693 7.79575 401.986 7.79992H400.337C400.153 7.79992 399.976 7.87326 399.845 8.0038C399.715 8.13435 399.641 8.31142 399.641 8.49604V12.3246C399.644 12.5085 399.718 12.6842 399.848 12.8142C399.978 12.9443 400.153 13.0184 400.337 13.0207H401.986C402.689 13.0221 403.375 13.2328 403.958 13.626C404.54 14.0191 404.992 14.5769 405.256 15.2281C405.535 15.8716 405.615 16.5842 405.484 17.2735C405.354 17.9627 405.019 18.5968 404.523 19.0934L403.36 20.2475C403.231 20.3778 403.158 20.5539 403.158 20.7375C403.158 20.921 403.231 21.0972 403.36 21.2275L406.108 23.9753C406.242 24.1036 406.421 24.1751 406.607 24.1751C406.793 24.1751 406.972 24.1036 407.106 23.9753L408.269 22.8121C408.595 22.4896 408.981 22.2346 409.405 22.0617C409.83 21.8888 410.284 21.8014 410.742 21.8045V21.7404Z" fill="url(#paint0_linear_0_5545)"/>
<path d="M417.062 18.1866C415.521 18.1757 414.017 17.7088 412.741 16.8448C411.465 15.9807 410.474 14.7582 409.891 13.3313C409.309 11.9044 409.163 10.3371 409.47 8.82695C409.777 7.31681 410.525 5.93151 411.618 4.84563C412.712 3.75975 414.102 3.02192 415.614 2.72524C417.127 2.42856 418.693 2.58628 420.116 3.17851C421.538 3.77074 422.754 4.77094 423.609 6.05305C424.464 7.33515 424.921 8.84173 424.921 10.3828C424.911 12.459 424.078 14.4466 422.605 15.9096C421.131 17.3726 419.138 18.1915 417.062 18.1866ZM417.062 5.36352C416.076 5.37076 415.115 5.66966 414.299 6.22255C413.483 6.77543 412.848 7.55753 412.476 8.47028C412.104 9.38303 412.01 10.3856 412.207 11.3515C412.404 12.3174 412.882 13.2034 413.582 13.8978C414.281 14.5923 415.171 15.0641 416.138 15.2537C417.105 15.4434 418.107 15.3425 419.017 14.9636C419.927 14.5847 420.705 13.9449 421.252 13.1248C421.798 12.3047 422.09 11.341 422.09 10.3553C422.076 9.03207 421.539 7.76809 420.598 6.83838C419.656 5.90868 418.385 5.38848 417.062 5.39097V5.36352ZM387.477 6.84733C387.104 6.84736 386.746 6.70029 386.48 6.438C386.214 6.1757 386.062 5.81927 386.058 5.44593C386.053 5.37883 386.053 5.31154 386.058 5.24445C387.006 -1.01669 389.832 -6.84254 394.163 -11.4627C398.494 -16.0829 404.125 -19.2798 410.311 -20.6307C410.491 -20.6711 410.676 -20.6757 410.857 -20.6441C411.038 -20.6125 411.211 -20.5454 411.366 -20.4466C411.521 -20.3478 411.655 -20.2194 411.76 -20.0686C411.865 -19.9178 411.939 -19.7478 411.978 -19.5682C412.019 -19.3884 412.024 -19.2023 411.992 -19.0206C411.961 -18.839 411.894 -18.6654 411.795 -18.5096C411.696 -18.3539 411.568 -18.2192 411.417 -18.1132C411.266 -18.0073 411.096 -17.9321 410.916 -17.892C405.289 -16.6634 400.167 -13.7564 396.228 -9.55504C392.288 -5.35373 389.716 -0.0559235 388.851 5.63829C388.809 5.97525 388.647 6.28577 388.395 6.51291C388.143 6.74005 387.817 6.86855 387.477 6.87478V6.84733ZM410.65 40.1598C410.55 40.1688 410.449 40.1688 410.348 40.1598C404.051 38.8047 398.33 35.5305 393.971 30.7882C389.613 26.0458 386.832 20.0687 386.012 13.6802C385.966 13.3085 386.069 12.9337 386.299 12.6383C386.529 12.3428 386.867 12.1509 387.239 12.1048C387.611 12.0586 387.986 12.162 388.281 12.3922C388.576 12.6224 388.768 12.9604 388.814 13.3321C389.569 19.1404 392.102 24.5731 396.065 28.8856C400.029 33.1982 405.229 36.1796 410.953 37.4212C411.133 37.4592 411.305 37.5326 411.457 37.6371C411.609 37.7416 411.739 37.8751 411.839 38.03C411.94 38.1849 412.009 38.3582 412.042 38.5398C412.075 38.7213 412.072 38.9077 412.033 39.0882C411.963 39.4024 411.787 39.6832 411.536 39.8846C411.285 40.086 410.972 40.1959 410.65 40.1964V40.1598ZM422.301 40.3979C421.974 40.3677 421.668 40.2234 421.436 39.9905C421.205 39.7576 421.062 39.4507 421.034 39.1235C421.006 38.7963 421.093 38.4695 421.281 38.2002C421.469 37.9309 421.746 37.7362 422.063 37.6502C428.025 36.5926 433.497 33.6668 437.687 29.2955C441.877 24.9241 444.569 19.3337 445.373 13.3321C445.397 13.1479 445.457 12.9703 445.549 12.8093C445.642 12.6483 445.765 12.5071 445.913 12.394C446.06 12.2808 446.228 12.1978 446.407 12.1497C446.587 12.1017 446.774 12.0895 446.958 12.1139C447.328 12.1598 447.665 12.3502 447.895 12.6437C448.125 12.9373 448.229 13.3099 448.185 13.6802C447.298 20.2804 444.336 26.4278 439.726 31.2338C435.116 36.0398 429.097 39.2555 422.539 40.4162H422.292L422.301 40.3979ZM446.701 6.87478C446.361 6.87606 446.032 6.75442 445.775 6.53226C445.517 6.31009 445.349 6.00235 445.3 5.66574C444.44 -0.249987 441.728 -5.74121 437.554 -10.0197C433.379 -14.2982 427.956 -17.144 422.063 -18.1485C421.88 -18.1785 421.705 -18.2442 421.548 -18.3421C421.391 -18.44 421.255 -18.568 421.148 -18.7187C421.041 -18.8694 420.964 -19.0399 420.923 -19.2202C420.882 -19.4006 420.877 -19.5874 420.909 -19.7697C420.978 -20.1365 421.189 -20.4614 421.495 -20.674C421.802 -20.8865 422.181 -20.9697 422.548 -20.9054C429.021 -19.8075 434.98 -16.6874 439.569 -11.9926C444.159 -7.2979 447.143 -1.26998 448.094 5.22611C448.121 5.40783 448.112 5.59313 448.067 5.77134C448.022 5.94955 447.943 6.11717 447.833 6.26447C447.723 6.41178 447.585 6.53589 447.427 6.62964C447.269 6.72339 447.094 6.78488 446.912 6.81066H446.701V6.87478Z" fill="url(#paint1_linear_0_5545)"/>
<path d="M409.204 -12.5155C409.018 -12.5155 408.833 -12.5523 408.662 -12.6238C408.49 -12.6952 408.334 -12.7999 408.203 -12.9319C408.072 -13.0639 407.968 -13.2204 407.898 -13.3926C407.827 -13.5648 407.792 -13.7492 407.793 -13.9352C407.793 -14.0916 407.821 -14.2467 407.875 -14.3932L409.707 -19.4034L404.541 -21.2352C404.362 -21.2953 404.197 -21.3913 404.056 -21.5173C403.915 -21.6433 403.802 -21.7967 403.722 -21.9681C403.642 -22.1395 403.598 -22.3253 403.593 -22.5143C403.587 -22.7032 403.62 -22.8913 403.69 -23.0671C403.754 -23.2432 403.852 -23.4048 403.98 -23.5426C404.107 -23.6804 404.26 -23.7918 404.43 -23.8701C404.6 -23.9484 404.784 -23.9923 404.972 -23.9991C405.159 -24.0059 405.346 -23.9755 405.522 -23.9097L412.015 -21.5741C412.363 -21.4495 412.648 -21.1936 412.809 -20.8614C412.97 -20.5292 412.994 -20.1471 412.876 -19.7972L410.541 -13.4315C410.439 -13.1598 410.256 -12.9261 410.017 -12.7622C409.778 -12.5983 409.494 -12.5122 409.204 -12.5155ZM447.288 7.53425C447.044 7.53319 446.805 7.47014 446.592 7.35106L440.702 4.01705C440.542 3.92822 440.401 3.80867 440.287 3.66524C440.174 3.52181 440.089 3.35735 440.039 3.18122C439.989 3.0051 439.974 2.82076 439.995 2.63884C440.016 2.45693 440.073 2.28098 440.162 2.12106C440.35 1.79638 440.659 1.55927 441.021 1.46145C441.383 1.36362 441.769 1.41304 442.095 1.59897L446.757 4.23686L449.505 -0.507662C449.694 -0.830515 450.003 -1.06606 450.364 -1.1637C450.726 -1.26133 451.111 -1.21326 451.437 -1.02975C451.598 -0.93939 451.74 -0.817856 451.853 -0.6723C451.967 -0.526745 452.05 -0.360062 452.099 -0.18191C452.148 -0.00375748 452.16 0.182301 452.136 0.365393C452.112 0.548485 452.052 0.724964 451.959 0.884573L448.534 6.84731C448.409 7.06196 448.23 7.24005 448.014 7.3638C447.799 7.48756 447.555 7.55263 447.306 7.55254L447.288 7.53425ZM426.56 44.7303C426.226 44.7309 425.902 44.6143 425.645 44.4005L420.341 39.9949C420.058 39.7563 419.88 39.4152 419.848 39.0462C419.815 38.6771 419.93 38.3102 420.167 38.0256L424.527 32.8689C424.772 32.5858 425.117 32.4092 425.49 32.3767C425.863 32.3443 426.234 32.4584 426.524 32.6949C426.666 32.8117 426.783 32.9555 426.87 33.1179C426.956 33.2804 427.009 33.4583 427.026 33.6414C427.043 33.8244 427.024 34.0091 426.969 34.1847C426.914 34.3602 426.825 34.5232 426.707 34.6642L423.254 38.7767L427.467 42.2847C427.609 42.4007 427.726 42.5436 427.812 42.7053C427.898 42.867 427.951 43.0442 427.969 43.2265C427.986 43.4089 427.966 43.5927 427.912 43.7675C427.857 43.9424 427.768 44.1046 427.65 44.2448C427.515 44.4019 427.348 44.5282 427.16 44.6151C426.972 44.702 426.768 44.7475 426.56 44.7486V44.7303ZM383.411 19.881C383.151 19.8811 382.897 19.8095 382.675 19.6741C382.453 19.5386 382.274 19.3447 382.155 19.1136C382.037 18.8825 381.984 18.6232 382.004 18.3643C382.024 18.1054 382.114 17.8568 382.266 17.6461L386.333 12.1505C386.554 11.8477 386.887 11.6449 387.258 11.5865C387.628 11.5282 388.007 11.619 388.311 11.8391L393.807 15.8051C393.956 15.9117 394.084 16.0468 394.181 16.2028C394.278 16.3588 394.344 16.5324 394.373 16.7138C394.403 16.8952 394.397 17.0807 394.355 17.2596C394.312 17.4384 394.235 17.6072 394.127 17.756C393.906 18.0569 393.574 18.2576 393.205 18.3143C392.836 18.371 392.459 18.2789 392.158 18.0583L387.752 14.8892L384.519 19.304C384.39 19.4778 384.223 19.6201 384.031 19.7201C383.839 19.82 383.627 19.8751 383.411 19.881Z" fill="url(#paint2_linear_0_5545)"/>
<circle cx="63.5" cy="238.5" r="48" fill="#3E96F4" fill-opacity="0.2" stroke="#3A78BB" stroke-dasharray="25 25"/>
<circle cx="232.5" cy="329.5" r="39" fill="#3E96F4" fill-opacity="0.2" stroke="#3A78BB" stroke-dasharray="25 25"/>
<path d="M227.494 310.608V315.776C227.481 315.908 227.497 316.041 227.539 316.166C227.582 316.292 227.65 316.407 227.74 316.505C227.83 316.602 227.939 316.681 228.061 316.734C228.183 316.787 228.315 316.815 228.448 316.815C228.581 316.815 228.713 316.787 228.835 316.734C228.957 316.681 229.066 316.602 229.156 316.505C229.246 316.407 229.314 316.292 229.357 316.166C229.399 316.041 229.415 315.908 229.403 315.776V310.608C229.381 310.372 229.271 310.152 229.094 309.992C228.918 309.832 228.687 309.743 228.448 309.743C228.209 309.743 227.979 309.832 227.802 309.992C227.626 310.152 227.516 310.372 227.494 310.608Z" fill="url(#paint3_linear_0_5545)"/>
<path d="M209.958 326.368C210.164 326.367 210.365 326.299 210.529 326.175C210.693 326.051 210.812 325.877 210.868 325.68C212.48 320.035 216.257 315.244 221.388 312.336C221.608 312.212 221.769 312.006 221.836 311.764C221.904 311.521 221.871 311.262 221.746 311.044C221.621 310.825 221.414 310.665 221.17 310.598C220.926 310.531 220.665 310.564 220.445 310.688C219.282 311.349 218.174 312.103 217.135 312.944C213.239 316.091 210.424 320.362 209.08 325.168C209.054 325.251 209.04 325.337 209.039 325.424C209.039 325.669 209.135 325.904 209.306 326.08C209.478 326.256 209.711 326.359 209.958 326.368Z" fill="url(#paint4_linear_0_5545)"/>
<path d="M243.652 312.336C246.266 313.818 248.555 315.804 250.384 318.179C252.213 320.553 253.544 323.266 254.301 326.16C254.356 326.363 254.476 326.542 254.643 326.671C254.81 326.8 255.016 326.87 255.227 326.872C255.479 326.872 255.721 326.772 255.899 326.595C256.078 326.418 256.178 326.178 256.178 325.928C256.186 325.848 256.186 325.768 256.178 325.688C255.352 322.546 253.902 319.601 251.913 317.025C249.924 314.449 247.435 312.294 244.595 310.688C244.486 310.626 244.366 310.587 244.241 310.571C244.117 310.556 243.991 310.565 243.87 310.598C243.749 310.631 243.636 310.688 243.537 310.764C243.438 310.841 243.356 310.936 243.294 311.044C243.232 311.152 243.192 311.271 243.177 311.395C243.161 311.518 243.17 311.644 243.204 311.764C243.237 311.884 243.294 311.996 243.371 312.094C243.448 312.192 243.543 312.274 243.652 312.336Z" fill="url(#paint5_linear_0_5545)"/>
<path d="M225.069 316.728C225.195 316.728 225.319 316.703 225.435 316.655C225.55 316.607 225.656 316.537 225.744 316.449C225.832 316.36 225.902 316.255 225.95 316.14C225.997 316.024 226.021 315.901 226.02 315.776V309.064C226.02 307.864 227.349 307.272 228.436 306.984C231.097 306.308 233.886 306.308 236.547 306.984C237.458 307.208 238.964 307.784 238.964 309.056V315.768C238.952 315.9 238.967 316.033 239.01 316.158C239.052 316.284 239.12 316.399 239.21 316.497C239.3 316.594 239.409 316.673 239.531 316.726C239.653 316.78 239.785 316.807 239.918 316.807C240.052 316.807 240.183 316.78 240.305 316.726C240.427 316.673 240.537 316.594 240.627 316.497C240.716 316.399 240.785 316.284 240.827 316.158C240.87 316.033 240.885 315.9 240.873 315.768V309.056C240.873 307.176 239.455 305.752 236.99 305.144C236.319 304.977 235.638 304.846 234.953 304.752C235.546 304.195 236.015 303.521 236.328 302.772C236.642 302.024 236.793 301.218 236.773 300.408C236.773 297.728 235.089 296 232.472 296C229.854 296 228.17 297.728 228.17 300.408C228.15 301.216 228.301 302.02 228.613 302.767C228.926 303.514 229.392 304.187 229.983 304.744C229.297 304.841 228.616 304.975 227.945 305.144C225.528 305.776 224.07 307.2 224.07 309.056V315.768C224.069 315.897 224.094 316.025 224.144 316.144C224.195 316.263 224.269 316.371 224.362 316.461C224.456 316.551 224.566 316.621 224.688 316.667C224.809 316.712 224.939 316.733 225.069 316.728ZM232.512 297.904C233.607 297.904 234.928 298.336 234.928 300.416C234.928 302.272 233.833 303.84 232.512 303.84C231.191 303.84 230.095 302.24 230.095 300.416C230.095 298.336 231.416 297.904 232.512 297.904Z" fill="url(#paint6_linear_0_5545)"/>
<path d="M235.621 310.608V315.776C235.609 315.908 235.624 316.041 235.667 316.166C235.709 316.292 235.778 316.407 235.867 316.505C235.957 316.602 236.067 316.681 236.188 316.734C236.31 316.787 236.442 316.815 236.576 316.815C236.709 316.815 236.841 316.787 236.963 316.734C237.084 316.681 237.194 316.602 237.284 316.505C237.373 316.407 237.442 316.292 237.484 316.166C237.527 316.041 237.542 315.908 237.53 315.776V310.608C237.508 310.372 237.398 310.152 237.222 309.992C237.045 309.832 236.815 309.743 236.576 309.743C236.336 309.743 236.106 309.832 235.93 309.992C235.753 310.152 235.643 310.372 235.621 310.608Z" fill="url(#paint7_linear_0_5545)"/>
<path d="M206.333 344.008C206.081 344.008 205.839 344.107 205.661 344.284C205.483 344.461 205.382 344.701 205.382 344.952V350.128C205.404 350.364 205.514 350.584 205.691 350.744C205.868 350.904 206.098 350.993 206.337 350.993C206.576 350.993 206.806 350.904 206.983 350.744C207.16 350.584 207.27 350.364 207.291 350.128V344.952C207.291 344.827 207.267 344.704 207.218 344.589C207.17 344.474 207.099 344.369 207.01 344.282C206.921 344.194 206.815 344.124 206.699 344.077C206.583 344.03 206.458 344.007 206.333 344.008Z" fill="url(#paint8_linear_0_5545)"/>
<path d="M259.149 339.496C258.475 339.329 257.792 339.201 257.103 339.112C257.692 338.56 258.159 337.892 258.474 337.151C258.789 336.41 258.945 335.612 258.932 334.808C258.932 332.128 257.24 330.392 254.631 330.392C252.021 330.392 250.321 332.128 250.321 334.808C250.304 335.617 250.458 336.42 250.771 337.166C251.084 337.913 251.551 338.587 252.142 339.144C251.455 339.237 250.774 339.371 250.104 339.544C247.639 340.168 246.229 341.592 246.229 343.448V350.168C246.251 350.404 246.361 350.624 246.538 350.784C246.714 350.944 246.945 351.033 247.184 351.033C247.423 351.033 247.653 350.944 247.83 350.784C248.006 350.624 248.116 350.404 248.138 350.168V343.448C248.138 342.248 249.459 341.656 250.555 341.376C253.219 340.704 256.01 340.704 258.674 341.376C259.576 341.6 261.091 342.176 261.091 343.448V350.168C261.113 350.404 261.223 350.624 261.399 350.784C261.576 350.944 261.806 351.033 262.045 351.033C262.284 351.033 262.515 350.944 262.691 350.784C262.868 350.624 262.978 350.404 263 350.168V343.448C263.024 341.528 261.614 340.104 259.149 339.496ZM254.631 338.192C253.326 338.192 252.214 336.592 252.214 334.768C252.214 332.688 253.519 332.248 254.631 332.248C255.742 332.248 257.047 332.688 257.047 334.768C257.023 336.624 255.927 338.192 254.631 338.192Z" fill="url(#paint9_linear_0_5545)"/>
<path d="M214.46 344.008C214.335 344.007 214.211 344.03 214.094 344.077C213.978 344.124 213.872 344.194 213.783 344.282C213.694 344.369 213.623 344.474 213.575 344.589C213.527 344.704 213.502 344.827 213.502 344.952V350.128C213.524 350.364 213.634 350.584 213.81 350.744C213.987 350.904 214.217 350.993 214.456 350.993C214.695 350.993 214.926 350.904 215.102 350.744C215.279 350.584 215.389 350.364 215.411 350.128V344.952C215.411 344.701 215.311 344.461 215.133 344.284C214.954 344.107 214.713 344.008 214.46 344.008Z" fill="url(#paint10_linear_0_5545)"/>
<path d="M244.159 329.752L242.741 329.208C242.494 328.207 242.095 327.249 241.557 326.368L242.178 324.992C242.256 324.816 242.279 324.621 242.243 324.433C242.207 324.244 242.114 324.071 241.976 323.936L240.365 322.336C240.229 322.199 240.055 322.107 239.865 322.071C239.675 322.035 239.479 322.058 239.302 322.136L237.917 322.752C237.027 322.221 236.064 321.825 235.057 321.576L234.517 320.168C234.447 319.989 234.325 319.835 234.165 319.726C234.005 319.618 233.817 319.56 233.623 319.56H231.368C231.174 319.56 230.985 319.618 230.826 319.726C230.666 319.835 230.544 319.989 230.474 320.168L229.934 321.576C228.927 321.825 227.964 322.221 227.074 322.752L225.689 322.136C225.512 322.058 225.316 322.035 225.126 322.071C224.936 322.107 224.761 322.199 224.626 322.336L223.015 323.936C222.877 324.071 222.784 324.244 222.748 324.433C222.712 324.621 222.735 324.816 222.813 324.992L223.434 326.368C222.907 327.251 222.519 328.209 222.282 329.208L220.864 329.744C220.684 329.813 220.529 329.935 220.42 330.094C220.31 330.252 220.252 330.44 220.252 330.632V332.872C220.252 333.064 220.31 333.251 220.42 333.41C220.529 333.568 220.684 333.69 220.864 333.76L222.282 334.304C222.531 335.302 222.93 336.256 223.466 337.136L222.846 338.512C222.767 338.687 222.744 338.882 222.78 339.071C222.816 339.26 222.909 339.433 223.047 339.568L224.658 341.168C224.794 341.305 224.968 341.397 225.158 341.433C225.348 341.468 225.545 341.446 225.721 341.368L227.107 340.752C227.992 341.284 228.953 341.681 229.958 341.928L230.506 343.336C230.576 343.515 230.699 343.669 230.858 343.777C231.018 343.886 231.207 343.944 231.4 343.944H233.655C233.849 343.944 234.038 343.886 234.197 343.777C234.357 343.669 234.48 343.515 234.55 343.336L235.089 341.928C236.097 341.682 237.061 341.286 237.949 340.752L239.334 341.368C239.511 341.446 239.707 341.468 239.897 341.433C240.087 341.397 240.262 341.305 240.397 341.168L242.008 339.568C242.146 339.433 242.239 339.26 242.275 339.071C242.311 338.882 242.288 338.687 242.21 338.512L241.59 337.136C242.126 336.256 242.525 335.302 242.774 334.304L244.191 333.76C244.372 333.69 244.527 333.568 244.636 333.41C244.745 333.251 244.804 333.064 244.804 332.872V330.632C244.8 330.437 244.736 330.249 244.62 330.091C244.505 329.934 244.344 329.816 244.159 329.752ZM242.862 331.288V332.232L241.582 332.72C241.431 332.778 241.297 332.873 241.193 332.996C241.089 333.119 241.018 333.266 240.985 333.424C240.77 334.538 240.329 335.596 239.689 336.536C239.599 336.669 239.545 336.822 239.531 336.982C239.517 337.141 239.543 337.301 239.608 337.448L240.172 338.696L239.495 339.368L238.239 338.808C238.091 338.746 237.93 338.72 237.77 338.734C237.609 338.748 237.455 338.801 237.32 338.888C236.373 339.52 235.307 339.958 234.187 340.176C234.028 340.208 233.88 340.279 233.757 340.382C233.633 340.485 233.537 340.618 233.478 340.768L232.987 342.04H232.036L231.545 340.768C231.486 340.618 231.39 340.485 231.267 340.382C231.143 340.279 230.995 340.208 230.836 340.176C229.707 339.963 228.632 339.525 227.679 338.888C227.544 338.801 227.39 338.748 227.229 338.734C227.069 338.72 226.908 338.746 226.76 338.808L225.504 339.368L224.827 338.696L225.391 337.448C225.456 337.301 225.482 337.141 225.468 336.982C225.454 336.822 225.4 336.669 225.31 336.536C224.674 335.595 224.233 334.537 224.014 333.424C223.982 333.266 223.91 333.119 223.806 332.996C223.702 332.873 223.568 332.778 223.418 332.72L222.137 332.232V331.288L223.418 330.8C223.568 330.741 223.702 330.646 223.806 330.523C223.91 330.4 223.982 330.253 224.014 330.096C224.233 328.983 224.674 327.925 225.31 326.984C225.4 326.851 225.454 326.697 225.468 326.538C225.482 326.379 225.456 326.218 225.391 326.072L224.827 324.824L225.504 324.16L226.76 324.712C226.908 324.776 227.069 324.803 227.23 324.789C227.39 324.775 227.545 324.721 227.679 324.632C228.625 323.998 229.691 323.56 230.812 323.344C230.971 323.312 231.119 323.241 231.242 323.138C231.366 323.034 231.462 322.902 231.521 322.752L232.012 321.48H232.963L233.454 322.752C233.513 322.902 233.609 323.034 233.732 323.138C233.856 323.241 234.004 323.312 234.163 323.344C235.284 323.56 236.35 323.998 237.296 324.632C237.43 324.721 237.585 324.775 237.745 324.789C237.906 324.803 238.067 324.776 238.215 324.712L239.471 324.16L240.148 324.824L239.584 326.072C239.519 326.218 239.492 326.379 239.507 326.538C239.521 326.697 239.575 326.851 239.664 326.984C240.301 327.925 240.742 328.983 240.961 330.096C240.993 330.253 241.065 330.4 241.169 330.523C241.273 330.646 241.407 330.741 241.557 330.8L242.838 331.288H242.862Z" fill="url(#paint11_linear_0_5545)"/>
<path d="M232.512 325.08C231.181 325.08 229.881 325.472 228.775 326.206C227.669 326.94 226.807 327.983 226.298 329.203C225.789 330.424 225.656 331.767 225.915 333.063C226.175 334.359 226.815 335.549 227.756 336.483C228.696 337.417 229.895 338.054 231.2 338.311C232.504 338.569 233.857 338.437 235.086 337.931C236.315 337.426 237.365 336.569 238.104 335.471C238.843 334.372 239.238 333.081 239.238 331.76C239.235 329.989 238.526 328.291 237.265 327.039C236.004 325.786 234.295 325.082 232.512 325.08ZM232.512 336.552C231.556 336.552 230.621 336.27 229.827 335.743C229.032 335.215 228.412 334.466 228.047 333.589C227.681 332.712 227.585 331.746 227.772 330.815C227.958 329.884 228.418 329.029 229.094 328.358C229.77 327.686 230.631 327.229 231.569 327.044C232.506 326.859 233.478 326.954 234.361 327.317C235.244 327.68 235.999 328.296 236.53 329.085C237.061 329.874 237.345 330.802 237.345 331.752C237.345 333.025 236.836 334.246 235.929 335.146C235.023 336.046 233.794 336.552 232.512 336.552Z" fill="url(#paint12_linear_0_5545)"/>
<path d="M258.691 344.008C258.565 344.007 258.441 344.03 258.324 344.077C258.208 344.124 258.102 344.194 258.013 344.282C257.924 344.369 257.853 344.474 257.805 344.589C257.757 344.704 257.732 344.827 257.732 344.952V350.128C257.754 350.364 257.864 350.584 258.041 350.744C258.217 350.904 258.447 350.993 258.687 350.993C258.926 350.993 259.156 350.904 259.333 350.744C259.509 350.584 259.619 350.364 259.641 350.128V344.952C259.641 344.701 259.541 344.461 259.363 344.284C259.184 344.107 258.943 344.008 258.691 344.008Z" fill="url(#paint13_linear_0_5545)"/>
<path d="M250.563 344.008C250.311 344.008 250.069 344.107 249.891 344.284C249.713 344.461 249.613 344.701 249.613 344.952V350.128C249.634 350.364 249.744 350.584 249.921 350.744C250.098 350.904 250.328 350.993 250.567 350.993C250.806 350.993 251.036 350.904 251.213 350.744C251.39 350.584 251.5 350.364 251.522 350.128V344.952C251.522 344.827 251.497 344.704 251.448 344.589C251.4 344.474 251.329 344.369 251.24 344.282C251.151 344.194 251.045 344.124 250.929 344.077C250.813 344.03 250.688 344.007 250.563 344.008Z" fill="url(#paint14_linear_0_5545)"/>
<path d="M214.92 339.496C214.246 339.33 213.563 339.202 212.874 339.112C213.468 338.555 213.938 337.881 214.253 337.133C214.568 336.384 214.721 335.579 214.703 334.768C214.703 332.088 213.011 330.352 210.393 330.352C207.775 330.352 206.092 332.088 206.092 334.768C206.073 335.577 206.225 336.381 206.539 337.128C206.853 337.875 207.32 338.548 207.912 339.104C207.223 339.198 206.54 339.331 205.866 339.504C203.45 340.128 202 341.552 202 343.408V350.128C202.022 350.364 202.132 350.584 202.309 350.744C202.485 350.904 202.715 350.993 202.955 350.993C203.194 350.993 203.424 350.904 203.601 350.744C203.777 350.584 203.887 350.364 203.909 350.128V343.408C203.909 342.208 205.23 341.616 206.326 341.336C208.99 340.664 211.781 340.664 214.445 341.336C215.347 341.56 216.861 342.136 216.861 343.408V350.128C216.883 350.364 216.993 350.584 217.17 350.744C217.347 350.904 217.577 350.993 217.816 350.993C218.055 350.993 218.285 350.904 218.462 350.744C218.639 350.584 218.749 350.364 218.77 350.128V343.408C218.819 341.528 217.377 340.104 214.92 339.496ZM210.393 338.192C209.096 338.192 207.977 336.592 207.977 334.768C207.977 332.688 209.282 332.248 210.393 332.248C211.505 332.248 212.81 332.688 212.81 334.768C212.794 336.624 211.698 338.192 210.393 338.192Z" fill="url(#paint15_linear_0_5545)"/>
<path d="M241.518 352.248C238.597 353.51 235.439 354.142 232.254 354.102C229.068 354.062 225.928 353.351 223.04 352.016C222.81 351.912 222.548 351.903 222.311 351.99C222.074 352.077 221.882 352.253 221.775 352.48C221.722 352.592 221.692 352.714 221.686 352.838C221.681 352.962 221.7 353.086 221.742 353.202C221.785 353.319 221.85 353.426 221.935 353.518C222.019 353.609 222.121 353.683 222.234 353.736C225.368 355.184 228.775 355.955 232.232 355.998C235.688 356.041 239.114 355.354 242.283 353.984C242.398 353.935 242.503 353.865 242.591 353.777C242.679 353.688 242.748 353.583 242.795 353.468C242.842 353.353 242.866 353.23 242.865 353.105C242.865 352.981 242.839 352.858 242.79 352.744C242.742 352.629 242.671 352.525 242.582 352.438C242.493 352.351 242.387 352.282 242.271 352.235C242.155 352.188 242.031 352.164 241.906 352.165C241.781 352.166 241.657 352.191 241.542 352.24L241.518 352.248Z" fill="url(#paint16_linear_0_5545)"/>
<circle cx="39.5" cy="125.5" r="39" fill="#3E96F4" fill-opacity="0.2" stroke="#3A78BB" stroke-dasharray="25 25"/>
<circle cx="521.5" cy="150.5" r="32" fill="#3E96F4" fill-opacity="0.2" stroke="#3A78BB" stroke-dasharray="25 25"/>
<circle cx="541.5" cy="266.5" r="32" fill="#3E96F4" fill-opacity="0.2" stroke="#3A78BB" stroke-dasharray="25 25"/>
<circle cx="460.5" cy="362.5" r="32" fill="#3E96F4" fill-opacity="0.2" stroke="#3A78BB" stroke-dasharray="25 25"/>
<circle cx="232.5" cy="125.5" r="115" stroke="white" stroke-opacity="0.1"/>
<mask id="path-15-inside-1_0_5545" fill="white">
<path d="M329.308 36.503C314.844 20.7696 296.763 8.79866 276.631 1.62638C256.499 -5.54589 234.922 -7.70332 213.769 -4.65911L214.695 1.77461C234.803 -1.11912 255.313 0.93166 274.45 7.74941C293.587 14.5672 310.774 25.9464 324.523 40.9021L329.308 36.503Z"/>
</mask>
<path d="M329.308 36.503C314.844 20.7696 296.763 8.79866 276.631 1.62638C256.499 -5.54589 234.922 -7.70332 213.769 -4.65911L214.695 1.77461C234.803 -1.11912 255.313 0.93166 274.45 7.74941C293.587 14.5672 310.774 25.9464 324.523 40.9021L329.308 36.503Z" fill="#3E96F4" fill-opacity="0.2" stroke="white" stroke-opacity="0.2" stroke-width="2" mask="url(#path-15-inside-1_0_5545)"/>
<mask id="path-16-inside-2_0_5545" fill="white">
<path d="M359.829 92.6441C355.319 75.1643 347.258 58.8005 336.148 44.5717L331.025 48.572C341.585 62.0974 349.248 77.6524 353.535 94.2681L359.829 92.6441Z"/>
</mask>
<path d="M359.829 92.6441C355.319 75.1643 347.258 58.8005 336.148 44.5717L331.025 48.572C341.585 62.0974 349.248 77.6524 353.535 94.2681L359.829 92.6441Z" fill="#3E96F4" fill-opacity="0.2" stroke="white" stroke-opacity="0.2" stroke-width="2" mask="url(#path-16-inside-2_0_5545)"/>
<mask id="path-17-inside-3_0_5545" fill="white">
<path d="M295.112 241.137C319.375 228 338.891 207.564 350.897 182.723C362.903 157.881 366.792 129.892 362.012 102.719L355.61 103.845C360.154 129.675 356.457 156.281 345.044 179.894C333.632 203.508 315.08 222.934 292.017 235.421L295.112 241.137Z"/>
</mask>
<path d="M295.112 241.137C319.375 228 338.891 207.564 350.897 182.723C362.903 157.881 366.792 129.892 362.012 102.719L355.61 103.845C360.154 129.675 356.457 156.281 345.044 179.894C333.632 203.508 315.08 222.934 292.017 235.421L295.112 241.137Z" fill="#3E96F4" fill-opacity="0.2" stroke="white" stroke-opacity="0.2" stroke-width="2" mask="url(#path-17-inside-3_0_5545)"/>
<mask id="path-18-inside-4_0_5545" fill="white">
<path d="M275.647 249.72C279.982 248.214 284.235 246.483 288.389 244.532L285.627 238.648C281.678 240.502 277.635 242.149 273.514 243.58L275.647 249.72Z"/>
</mask>
<path d="M275.647 249.72C279.982 248.214 284.235 246.483 288.389 244.532L285.627 238.648C281.678 240.502 277.635 242.149 273.514 243.58L275.647 249.72Z" fill="#3E96F4" fill-opacity="0.2" stroke="white" stroke-opacity="0.2" stroke-width="2" mask="url(#path-18-inside-4_0_5545)"/>
<mask id="path-19-inside-5_0_5545" fill="white">
<path d="M102.163 142.95C104.662 161.613 111.139 179.522 121.157 195.465C131.176 211.408 144.501 225.013 160.232 235.361L163.804 229.931C148.851 220.095 136.184 207.161 126.661 192.006C117.138 176.852 110.981 159.828 108.606 142.088L102.163 142.95Z"/>
</mask>
<path d="M102.163 142.95C104.662 161.613 111.139 179.522 121.157 195.465C131.176 211.408 144.501 225.013 160.232 235.361L163.804 229.931C148.851 220.095 136.184 207.161 126.661 192.006C117.138 176.852 110.981 159.828 108.606 142.088L102.163 142.95Z" fill="#3E96F4" fill-opacity="0.2" stroke="white" stroke-opacity="0.2" stroke-width="2" mask="url(#path-19-inside-5_0_5545)"/>
<mask id="path-20-inside-6_0_5545" fill="white">
<path d="M160.031 15.7705C139.544 29.3009 123.254 48.2966 113.005 70.6072L118.912 73.3205C128.654 52.1128 144.139 34.056 163.614 21.1944L160.031 15.7705Z"/>
</mask>
<path d="M160.031 15.7705C139.544 29.3009 123.254 48.2966 113.005 70.6072L118.912 73.3205C128.654 52.1128 144.139 34.056 163.614 21.1944L160.031 15.7705Z" fill="#3E96F4" fill-opacity="0.2" stroke="white" stroke-opacity="0.2" stroke-width="2" mask="url(#path-20-inside-6_0_5545)"/>
<path d="M439.228 72.156C431.905 43.7763 418.817 17.2084 400.78 -5.89308L397.414 -3.26522C415.091 19.3742 427.917 45.4108 435.094 73.2229L439.228 72.156Z" fill="#3E96F4" fill-opacity="0.2"/>
<path d="M334.155 313.246C373.547 291.917 405.233 258.738 424.726 218.405C444.219 178.073 450.532 132.631 442.772 88.513L438.566 89.2527C446.172 132.489 439.985 177.022 420.881 216.547C401.778 256.073 370.727 288.588 332.122 309.491L334.155 313.246Z" fill="#3E96F4" fill-opacity="0.2"/>
<path d="M302.552 327.18C309.59 324.736 316.496 321.924 323.24 318.757L321.425 314.892C314.816 317.996 308.049 320.751 301.151 323.147L302.552 327.18Z" fill="#3E96F4" fill-opacity="0.2"/>
<path d="M20.8882 153.832C24.9451 184.133 35.4618 213.208 51.727 239.093C67.9922 264.978 89.6267 287.067 115.167 303.868L117.514 300.301C92.4841 283.836 71.2824 262.188 55.3425 236.821C39.4025 211.454 29.0962 182.96 25.1205 153.266L20.8882 153.832Z" fill="#3E96F4" fill-opacity="0.2"/>
<path d="M114.842 -52.654C81.5793 -30.6864 55.131 0.154633 38.4912 36.3775L42.3713 38.1599C58.6784 2.66153 84.5978 -27.5627 117.195 -49.0909L114.842 -52.654Z" fill="#3E96F4" fill-opacity="0.2"/>
<path d="M321.087 106.992C316.755 86.2579 305.288 67.6999 288.682 54.5502C272.076 41.4006 251.383 34.4925 230.208 35.029C209.032 35.5656 188.716 43.5127 172.797 57.4865C156.878 71.4602 146.365 90.5751 143.089 111.502L144.966 111.796C148.173 91.3083 158.466 72.5946 174.051 58.9142C189.635 45.2338 209.525 37.4535 230.256 36.9282C250.987 36.4029 271.245 43.166 287.502 56.0396C303.76 68.9132 314.987 87.0816 319.228 107.381L321.087 106.992Z" fill="#334C61"/>
<path d="M90.5 126H150" stroke="#D9D9D9" stroke-width="2"/>
<circle cx="90" cy="126" r="4" fill="#D9D9D9"/>
<circle cx="150" cy="126" r="4" fill="#D9D9D9"/>
<path d="M232.999 208L232.999 279.5" stroke="#D9D9D9" stroke-width="2"/>
<circle cx="232.999" cy="208" r="4" transform="rotate(90 232.999 208)" fill="#D9D9D9"/>
<path d="M233 283C230.791 283 229 281.209 229 279C229 276.791 230.791 275 233 275C235.209 275 237 276.791 237 279C237 281.209 235.209 283 233 283Z" fill="#D9D9D9"/>
<path d="M111.319 204.042L163.917 169.96" stroke="#D9D9D9" stroke-width="2"/>
<circle cx="111.533" cy="203.532" r="4" transform="rotate(-32.9423 111.533 203.532)" fill="#D9D9D9"/>
<circle cx="163.531" cy="169.533" r="4" transform="rotate(-32.9423 163.531 169.533)" fill="#D9D9D9"/>
<path d="M309.458 78.0413L362.056 43.9591" stroke="#D9D9D9" stroke-width="2"/>
<circle cx="309.671" cy="77.5313" r="4" transform="rotate(-32.9423 309.671 77.5313)" fill="#D9D9D9"/>
<circle cx="361.67" cy="43.5323" r="4" transform="rotate(-32.9423 361.67 43.5323)" fill="#D9D9D9"/>
<path d="M300.285 169.96L326.584 187.001L339.733 195.521" stroke="#D9D9D9" stroke-width="2"/>
<circle cx="4" cy="4" r="4" transform="matrix(-0.839219 -0.543794 -0.543794 0.839219 345.064 194.35)" fill="#D9D9D9"/>
<circle cx="4" cy="4" r="4" transform="matrix(-0.839219 -0.543794 -0.543794 0.839219 306.202 168.351)" fill="#D9D9D9"/>
<path d="M447.691 244.291L478.319 250.923L493.633 254.239" stroke="#D9D9D9" stroke-width="2"/>
<circle cx="4" cy="4" r="4" transform="matrix(-0.97735 -0.211629 -0.211629 0.97735 498.204 251.258)" fill="#D9D9D9"/>
<circle cx="4" cy="4" r="4" transform="matrix(-0.97735 -0.211629 -0.211629 0.97735 452.656 240.693)" fill="#D9D9D9"/>
<path d="M441.621 195.395L469.118 180.364L482.867 172.849" stroke="#D9D9D9" stroke-width="2"/>
<circle cx="4" cy="4" r="4" transform="matrix(-0.877456 0.479657 0.479657 0.877456 484.372 167.602)" fill="#D9D9D9"/>
<circle cx="4" cy="4" r="4" transform="matrix(-0.877456 0.479657 0.479657 0.877456 443.02 189.425)" fill="#D9D9D9"/>
<path d="M418.385 277.474L431.649 305.867L438.28 320.063" stroke="#D9D9D9" stroke-width="2"/>
<circle cx="4" cy="4" r="4" transform="matrix(-0.423245 -0.906015 -0.906015 0.423245 443.421 321.896)" fill="#D9D9D9"/>
<circle cx="4" cy="4" r="4" transform="matrix(-0.423245 -0.906015 -0.906015 0.423245 424.255 279.248)" fill="#D9D9D9"/>
<g clip-path="url(#clip0_0_5545)">
<path d="M274 156.625C274 162.331 269.331 167 263.625 167H201.375C195.669 167 191 162.331 191 156.625V94.375C191 88.6687 195.669 84 201.375 84H263.625C269.331 84 274 88.6687 274 94.375V156.625Z" fill="#3E96F4"/>
<path d="M215.395 144.253V106.882C215.395 104.423 216.94 102.807 219.258 102.807H245.601C247.849 102.807 248.973 103.931 248.973 105.828V106.249C248.973 108.216 247.849 109.27 245.601 109.27H222.63V121.985H240.403C242.721 121.985 243.775 122.968 243.775 124.865V125.076C243.775 127.043 242.651 128.096 240.403 128.096H222.63V141.865H246.023C248.271 141.865 249.324 142.848 249.324 144.745V145.097C249.324 147.134 248.271 148.258 246.023 148.258H219.258C216.94 148.257 215.395 146.712 215.395 144.253Z" fill="white"/>
</g>
<path d="M369.276 229.256C368.233 229.255 367.214 229.562 366.346 230.14C365.479 230.718 364.802 231.541 364.403 232.503C364.003 233.466 363.898 234.526 364.101 235.548C364.304 236.571 364.805 237.51 365.543 238.247C366.28 238.984 367.219 239.486 368.241 239.689C369.264 239.892 370.324 239.787 371.286 239.387C372.249 238.987 373.071 238.311 373.649 237.443C374.227 236.576 374.535 235.556 374.533 234.514C374.551 234.294 374.513 234.074 374.423 233.873L378.829 232.481C379.615 235.464 381.133 238.205 383.246 240.454C385.358 242.703 387.999 244.388 390.928 245.359L390.287 250.085H389.536C388.155 250.083 386.804 250.491 385.655 251.257C384.506 252.023 383.61 253.113 383.081 254.389C382.551 255.665 382.412 257.069 382.681 258.424C382.95 259.778 383.615 261.023 384.592 261.999C385.568 262.976 386.813 263.641 388.168 263.91C389.522 264.179 390.926 264.04 392.202 263.511C393.478 262.981 394.568 262.085 395.334 260.936C396.1 259.787 396.508 258.436 396.506 257.055C396.495 255.698 396.094 254.373 395.352 253.236C394.61 252.1 393.558 251.2 392.321 250.643L392.971 246.064C394.137 246.279 395.321 246.386 396.506 246.384C401.221 246.373 405.75 244.552 409.16 241.296C412.569 238.04 414.597 233.599 414.825 228.89L419.762 229.43C419.938 230.647 420.459 231.788 421.265 232.716C422.07 233.645 423.126 234.322 424.306 234.668C425.485 235.013 426.74 235.012 427.919 234.665C429.098 234.318 430.153 233.639 430.957 232.709C431.761 231.779 432.281 230.638 432.455 229.421C432.629 228.204 432.449 226.963 431.937 225.845C431.425 224.727 430.603 223.78 429.568 223.117C428.533 222.454 427.33 222.102 426.1 222.103C424.617 222.118 423.183 222.635 422.032 223.57C420.881 224.505 420.081 225.802 419.762 227.251L414.724 226.719C414.52 223.682 413.558 220.744 411.926 218.175C410.294 215.605 408.044 213.486 405.382 212.009L409.137 207.503C410.233 208.199 411.503 208.57 412.801 208.575C414.534 208.567 416.194 207.876 417.42 206.652C418.647 205.427 419.34 203.768 419.35 202.035C419.373 201.181 419.227 200.331 418.921 199.533C418.614 198.736 418.153 198.007 417.564 197.388C416.976 196.77 416.27 196.273 415.489 195.928C414.707 195.583 413.866 195.395 413.012 195.376C411.267 195.381 409.593 196.069 408.35 197.293C407.107 198.518 406.393 200.18 406.362 201.925C406.38 203.397 406.867 204.825 407.754 206.001L403.751 211.011C401.535 210.107 399.166 209.635 396.772 209.619C396.488 209.619 396.215 209.732 396.014 209.933C395.813 210.134 395.7 210.406 395.7 210.69C395.7 210.975 395.813 211.247 396.014 211.448C396.215 211.649 396.488 211.762 396.772 211.762C400.739 211.806 404.55 213.311 407.477 215.988C410.404 218.665 412.243 222.327 412.64 226.274C413.038 230.221 411.967 234.176 409.633 237.383C407.298 240.59 403.864 242.825 399.986 243.659C396.108 244.494 392.058 243.87 388.611 241.907C385.164 239.944 382.561 236.78 381.299 233.019C380.038 229.258 380.207 225.164 381.774 221.52C383.341 217.876 386.195 214.936 389.793 213.264C390.049 213.15 390.249 212.939 390.35 212.677C390.45 212.415 390.443 212.124 390.328 211.867C390.214 211.611 390.003 211.411 389.741 211.31C389.479 211.21 389.188 211.217 388.932 211.332C387.546 211.988 386.25 212.819 385.076 213.805L378.527 207.897C379.547 206.53 380.111 204.876 380.139 203.171C380.164 201.35 379.572 199.575 378.459 198.134C377.347 196.694 375.779 195.672 374.012 195.235C372.245 194.799 370.382 194.973 368.726 195.731C367.071 196.488 365.72 197.783 364.895 199.406C364.07 201.028 363.818 202.883 364.181 204.666C364.544 206.45 365.499 208.059 366.893 209.23C368.287 210.402 370.036 211.067 371.855 211.117C373.675 211.168 375.458 210.601 376.915 209.509L383.464 215.408C380.166 218.801 378.317 223.343 378.307 228.075C378.325 228.903 378.399 229.729 378.527 230.548L373.8 232.05C373.377 231.217 372.732 230.516 371.938 230.023C371.143 229.531 370.229 229.265 369.294 229.256H369.276ZM394.501 257.055C394.502 258.012 394.22 258.949 393.689 259.745C393.159 260.542 392.403 261.163 391.519 261.53C390.635 261.898 389.662 261.994 388.723 261.808C387.784 261.621 386.922 261.161 386.245 260.484C385.568 259.807 385.107 258.944 384.921 258.005C384.734 257.066 384.831 256.093 385.198 255.209C385.565 254.325 386.187 253.57 386.983 253.039C387.78 252.509 388.716 252.226 389.674 252.228C390.308 252.227 390.936 252.351 391.522 252.593C392.108 252.835 392.641 253.191 393.089 253.639C393.538 254.088 393.893 254.62 394.136 255.206C394.378 255.793 394.502 256.421 394.501 257.055ZM413.066 197.519C414.233 197.524 415.351 197.99 416.176 198.815C417.002 199.64 417.467 200.758 417.472 201.925C417.483 202.812 417.229 203.682 416.743 204.424C416.257 205.166 415.561 205.746 414.744 206.09C413.927 206.435 413.025 206.528 412.155 206.357C411.285 206.187 410.485 205.761 409.858 205.134C409.231 204.507 408.805 203.707 408.634 202.836C408.464 201.966 408.557 201.065 408.901 200.247C409.246 199.43 409.826 198.734 410.568 198.248C411.31 197.762 412.18 197.509 413.066 197.519ZM426.375 224.191C426.925 224.191 427.469 224.3 427.977 224.51C428.485 224.72 428.946 225.029 429.335 225.417C429.723 225.806 430.032 226.267 430.242 226.775C430.453 227.283 430.561 227.827 430.561 228.377C430.572 229.22 430.331 230.048 429.869 230.754C429.407 231.459 428.746 232.011 427.968 232.339C427.191 232.667 426.334 232.756 425.506 232.594C424.679 232.432 423.918 232.027 423.322 231.43C422.725 230.834 422.32 230.073 422.158 229.246C421.997 228.418 422.085 227.561 422.413 226.784C422.741 226.007 423.293 225.345 423.999 224.883C424.704 224.421 425.532 224.18 426.375 224.191ZM366.381 203.262C366.351 202.122 366.66 200.999 367.27 200.035C367.88 199.072 368.763 198.311 369.806 197.852C370.85 197.392 372.007 197.253 373.129 197.453C374.252 197.653 375.29 198.183 376.11 198.975C376.931 199.767 377.497 200.785 377.737 201.9C377.977 203.015 377.879 204.176 377.456 205.235C377.033 206.294 376.305 207.204 375.364 207.847C374.422 208.491 373.311 208.84 372.17 208.849C371.421 208.875 370.675 208.75 369.976 208.482C369.276 208.214 368.638 207.809 368.098 207.289C367.558 206.77 367.128 206.148 366.833 205.459C366.538 204.77 366.385 204.03 366.381 203.281V203.262ZM369.276 237.61C368.66 237.61 368.058 237.427 367.546 237.085C367.034 236.743 366.634 236.256 366.399 235.687C366.163 235.118 366.101 234.492 366.221 233.888C366.342 233.284 366.638 232.729 367.074 232.294C367.509 231.858 368.064 231.561 368.668 231.441C369.272 231.321 369.898 231.383 370.468 231.618C371.037 231.854 371.523 232.253 371.865 232.765C372.207 233.278 372.39 233.88 372.39 234.496C372.392 234.906 372.314 235.313 372.158 235.693C372.003 236.073 371.774 236.418 371.484 236.709C371.195 237.001 370.851 237.232 370.472 237.389C370.093 237.547 369.686 237.628 369.276 237.628V237.61Z" fill="url(#paint17_linear_0_5545)"/>
<path d="M386.559 219.492C386.407 219.58 386.279 219.704 386.185 219.852C386.091 220 386.034 220.169 386.019 220.344V236.346C386.025 236.55 386.088 236.748 386.202 236.918C386.315 237.089 386.474 237.223 386.66 237.307C388.593 238.058 395.82 240.742 396.213 240.971C396.331 241.024 396.459 241.052 396.589 241.052C396.718 241.052 396.846 241.024 396.964 240.971C397.395 240.76 404.292 238.223 406.518 237.307C406.72 237.247 406.896 237.118 407.015 236.943C407.133 236.767 407.187 236.556 407.168 236.346V220.344C407.171 220.165 407.122 219.989 407.026 219.837C406.93 219.686 406.791 219.566 406.628 219.492C406.518 219.383 397.074 215.087 396.964 214.986C396.691 214.876 396.386 214.876 396.113 214.986C396.113 215.087 386.66 219.383 386.559 219.492ZM388.162 222.066C388.272 222.066 396.113 225.73 395.572 225.391V238.379L388.162 235.631V222.066ZM405.125 235.595L397.715 238.342V225.391C397.825 225.391 405.666 221.727 405.125 222.066V235.595ZM396.644 217.276L403.623 220.491C403.513 220.491 396.213 223.926 396.644 223.715C396.543 223.715 389.243 220.28 389.674 220.491L396.644 217.276Z" fill="url(#paint18_linear_0_5545)"/>
<path d="M474.565 357.022C474.565 356.868 474.504 356.72 474.395 356.611C474.286 356.502 474.138 356.441 473.984 356.441H467.894C467.813 356.433 467.732 356.442 467.655 356.468C467.578 356.493 467.508 356.535 467.448 356.589C467.388 356.644 467.34 356.71 467.307 356.784C467.274 356.858 467.257 356.939 467.257 357.02C467.257 357.101 467.274 357.181 467.307 357.255C467.34 357.329 467.388 357.395 467.448 357.45C467.508 357.504 467.578 357.546 467.655 357.571C467.732 357.597 467.813 357.606 467.894 357.598H473.984C474.06 357.599 474.135 357.585 474.206 357.556C474.276 357.527 474.34 357.485 474.394 357.431C474.448 357.378 474.491 357.314 474.521 357.244C474.55 357.174 474.565 357.098 474.565 357.022Z" fill="url(#paint19_linear_0_5545)"/>
<path d="M473.983 353.512H467.894C467.74 353.512 467.592 353.574 467.483 353.683C467.374 353.792 467.313 353.939 467.313 354.094C467.313 354.248 467.374 354.396 467.483 354.505C467.592 354.614 467.74 354.675 467.894 354.675H473.983C474.138 354.675 474.286 354.614 474.395 354.505C474.504 354.396 474.565 354.248 474.565 354.094C474.565 353.939 474.504 353.792 474.395 353.683C474.286 353.574 474.138 353.512 473.983 353.512Z" fill="url(#paint20_linear_0_5545)"/>
<path d="M478.942 378.594H475.66V368.651C475.66 368.435 475.574 368.228 475.421 368.076C475.269 367.923 475.062 367.837 474.846 367.837H460.944V366.066C460.944 365.912 460.883 365.764 460.774 365.655C460.664 365.546 460.517 365.485 460.362 365.485C460.208 365.485 460.06 365.546 459.951 365.655C459.842 365.764 459.781 365.912 459.781 366.066V367.837H448.929V359.665H452.1V361.896C452.102 362.111 452.188 362.316 452.341 362.468C452.493 362.619 452.7 362.704 452.915 362.704H455.827C456.042 362.704 456.248 362.619 456.401 362.468C456.553 362.316 456.64 362.111 456.641 361.896V359.665H459.813V363.365C459.813 363.519 459.874 363.667 459.983 363.776C460.092 363.885 460.24 363.947 460.394 363.947C460.548 363.947 460.696 363.885 460.805 363.776C460.914 363.667 460.976 363.519 460.976 363.365V359.311C460.976 359.095 460.89 358.888 460.737 358.735C460.584 358.583 460.377 358.497 460.162 358.497H448.612C448.396 358.497 448.189 358.583 448.036 358.735C447.883 358.888 447.798 359.095 447.798 359.311V367.858H445.911C445.695 367.858 445.488 367.944 445.335 368.097C445.182 368.249 445.097 368.456 445.097 368.672V378.594H441.814C441.598 378.594 441.391 378.68 441.238 378.832C441.086 378.985 441 379.192 441 379.408V381.866C441 382.082 441.086 382.289 441.238 382.442C441.391 382.594 441.598 382.68 441.814 382.68H478.974C479.19 382.68 479.397 382.594 479.55 382.442C479.702 382.289 479.788 382.082 479.788 381.866V379.429C479.791 379.318 479.771 379.207 479.73 379.104C479.688 379 479.626 378.906 479.546 378.828C479.467 378.75 479.373 378.689 479.269 378.648C479.165 378.608 479.054 378.59 478.942 378.594ZM453.248 359.665H455.462V361.547H453.248V359.665ZM467.964 369.011H470.184V370.892H467.964V369.011ZM453.052 369.011H455.658V370.892H453.052V369.011ZM446.223 369.011H451.905V371.241C451.905 371.457 451.991 371.664 452.143 371.817C452.296 371.97 452.503 372.055 452.719 372.055H456.023C456.239 372.055 456.446 371.97 456.598 371.817C456.751 371.664 456.837 371.457 456.837 371.241V369.021H462.477V378.594H446.212L446.223 369.011ZM478.594 381.485H442.121V379.752H470.03C470.185 379.752 470.332 379.69 470.442 379.581C470.551 379.472 470.612 379.324 470.612 379.17C470.612 379.016 470.551 378.868 470.442 378.759C470.332 378.65 470.185 378.589 470.03 378.589H463.634V369.021H466.806V371.252C466.806 371.468 466.892 371.675 467.044 371.827C467.197 371.98 467.404 372.066 467.62 372.066H470.538C470.754 372.066 470.961 371.98 471.113 371.827C471.266 371.675 471.352 371.468 471.352 371.252V369.021H474.523V378.594H472.774C472.62 378.594 472.472 378.655 472.363 378.764C472.254 378.873 472.192 379.021 472.192 379.175C472.192 379.33 472.254 379.478 472.363 379.587C472.472 379.696 472.62 379.757 472.774 379.757H478.588L478.594 381.485Z" fill="url(#paint21_linear_0_5545)"/>
<path d="M467.894 359.353C467.74 359.353 467.592 359.414 467.483 359.524C467.374 359.633 467.313 359.78 467.313 359.935C467.313 360.089 467.374 360.237 467.483 360.346C467.592 360.455 467.74 360.516 467.894 360.516H471.917C472.071 360.516 472.219 360.455 472.328 360.346C472.437 360.237 472.498 360.089 472.498 359.935C472.498 359.78 472.437 359.633 472.328 359.524C472.219 359.414 472.071 359.353 471.917 359.353H467.894Z" fill="url(#paint22_linear_0_5545)"/>
<path d="M463.682 353.206V363.778C463.682 363.993 463.768 364.201 463.92 364.353C464.073 364.506 464.28 364.592 464.496 364.592H477.388C477.604 364.592 477.811 364.506 477.964 364.353C478.117 364.201 478.203 363.993 478.203 363.778V358.492C478.203 358.337 478.141 358.19 478.032 358.081C477.923 357.971 477.775 357.91 477.621 357.91C477.467 357.91 477.319 357.971 477.21 358.081C477.101 358.19 477.04 358.337 477.04 358.492V363.413H464.84V353.322C465.531 353.321 466.216 353.18 466.852 352.907C467.488 352.635 468.062 352.236 468.54 351.736H473.963C474.117 351.736 474.265 351.675 474.374 351.566C474.483 351.457 474.545 351.309 474.545 351.155C474.545 351.001 474.483 350.853 474.374 350.744C474.265 350.635 474.117 350.573 473.963 350.573H469.386C469.862 349.685 470.062 348.674 469.962 347.671H477.018V355.775C477.018 355.929 477.08 356.077 477.189 356.186C477.298 356.295 477.446 356.356 477.6 356.356C477.754 356.356 477.902 356.295 478.011 356.186C478.12 356.077 478.181 355.929 478.181 355.775V347.317C478.181 347.101 478.096 346.894 477.943 346.742C477.79 346.589 477.583 346.503 477.367 346.503H469.713C469.425 345.652 468.919 344.891 468.246 344.295C467.573 343.7 466.756 343.29 465.876 343.108C464.996 342.925 464.083 342.975 463.229 343.254C462.374 343.532 461.607 344.029 461.004 344.695C460.4 345.362 459.981 346.174 459.788 347.052C459.595 347.929 459.635 348.842 459.904 349.7C460.172 350.558 460.66 351.331 461.319 351.942C461.978 352.553 462.785 352.981 463.661 353.185L463.682 353.206ZM464.845 344.177C465.636 344.177 466.41 344.412 467.068 344.852C467.726 345.291 468.239 345.916 468.542 346.648C468.845 347.379 468.924 348.183 468.77 348.959C468.615 349.736 468.234 350.449 467.674 351.008C467.115 351.568 466.402 351.949 465.626 352.103C464.849 352.258 464.045 352.179 463.314 351.876C462.583 351.573 461.958 351.06 461.518 350.402C461.078 349.744 460.844 348.97 460.844 348.179C460.844 347.118 461.265 346.1 462.015 345.349C462.766 344.599 463.784 344.177 464.845 344.177Z" fill="url(#paint23_linear_0_5545)"/>
<path d="M464.142 349.881C464.252 349.989 464.4 350.05 464.554 350.05C464.709 350.05 464.857 349.989 464.967 349.881L467.329 347.523C467.384 347.469 467.427 347.405 467.456 347.334C467.486 347.264 467.501 347.188 467.501 347.111C467.501 347.034 467.486 346.959 467.456 346.888C467.427 346.817 467.384 346.753 467.329 346.699C467.276 346.645 467.212 346.602 467.142 346.572C467.071 346.543 466.996 346.528 466.92 346.528C466.844 346.528 466.768 346.543 466.698 346.572C466.628 346.602 466.564 346.645 466.51 346.699L464.56 348.649L463.191 347.28C463.137 347.226 463.073 347.183 463.003 347.154C462.933 347.124 462.857 347.109 462.781 347.109C462.705 347.109 462.629 347.124 462.559 347.154C462.489 347.183 462.425 347.226 462.371 347.28C462.317 347.334 462.274 347.398 462.244 347.469C462.215 347.54 462.2 347.616 462.2 347.693C462.2 347.769 462.215 347.845 462.244 347.916C462.274 347.987 462.317 348.051 462.371 348.105L464.142 349.881Z" fill="url(#paint24_linear_0_5545)"/>
<path d="M562.091 279.367H537.013L536.074 275.869H556.632C556.973 275.869 557.314 275.614 557.399 275.358L562.944 261.454C563.029 261.198 563.029 260.857 562.859 260.686C562.688 260.43 562.432 260.345 562.176 260.345H558.338C557.826 254.203 552.793 249.426 546.652 249.426H546.566C540.595 249.426 535.392 254.033 534.966 260.345H531.809L528.909 249.682C528.824 249.256 528.483 249 528.056 249H522.853C522.341 249 522 249.341 522 249.853C522 250.365 522.341 250.706 522.853 250.706H527.459L535.563 280.39C535.648 280.732 535.989 280.987 536.416 280.987H538.122C537.695 281.585 537.439 282.352 537.439 283.205C537.439 285.338 539.231 287.129 541.363 287.129C543.496 287.129 545.287 285.338 545.287 283.205C545.287 282.352 545.031 281.67 544.604 280.987H553.902C553.476 281.585 553.22 282.352 553.22 283.205C553.22 285.338 555.011 287.129 557.144 287.129C559.276 287.129 561.067 285.338 561.067 283.205C561.067 282.352 560.811 281.67 560.385 280.987H562.091C562.603 280.987 562.944 280.646 562.944 280.134C562.944 279.623 562.517 279.367 562.091 279.367ZM556.546 260.26H552.964C552.964 259.407 552.879 258.468 552.708 257.701H555.949C556.291 258.468 556.461 259.407 556.546 260.26ZM552.708 264.525C552.879 263.672 552.964 262.819 552.964 261.966H556.546C556.461 262.904 556.291 263.757 555.949 264.525H552.708ZM555.182 266.231C554.158 268.022 552.537 269.387 550.661 270.24C551.428 269.131 552.026 267.766 552.367 266.231H555.182ZM555.182 255.995H552.367C551.94 254.374 551.343 253.009 550.661 251.985C552.537 252.753 554.158 254.203 555.182 255.995ZM547.505 251.303C548.784 251.815 549.978 253.521 550.661 255.995H547.505V251.303ZM547.505 257.701H551.002C551.173 258.468 551.258 259.321 551.258 260.26H547.419V257.701H547.505ZM547.505 261.966H551.343C551.343 262.904 551.173 263.757 551.087 264.525H547.59V261.966H547.505ZM547.505 266.231H550.661C549.978 268.704 548.784 270.41 547.505 270.922V266.231ZM545.799 251.303V255.995H542.643C543.325 253.521 544.519 251.815 545.799 251.303ZM542.216 264.525C542.045 263.757 541.96 262.819 541.96 261.966H545.799V264.525H542.216ZM545.799 266.231V270.922C544.519 270.41 543.325 268.704 542.643 266.231H545.799ZM540.851 266.231C541.278 267.851 541.875 269.216 542.557 270.24C540.681 269.387 539.06 267.937 538.036 266.231H540.851ZM537.269 264.525C537.013 263.672 536.757 262.819 536.672 261.966H540.254C540.254 262.819 540.339 263.757 540.51 264.525H537.269ZM541.96 260.26C541.96 259.321 542.131 258.468 542.216 257.701H545.713V260.26H541.96ZM542.557 251.9C541.79 253.009 541.192 254.374 540.851 255.909H538.036C539.06 254.203 540.681 252.753 542.557 251.9ZM537.269 257.701H540.51C540.339 258.554 540.339 259.407 540.254 260.26H536.672C536.757 259.407 536.927 258.468 537.269 257.701ZM535.563 274.163L532.236 261.966H534.966C535.392 268.192 540.595 272.799 546.566 272.884H546.652C552.623 272.884 557.826 268.192 558.252 261.966H560.811L555.949 274.163H535.563ZM541.278 285.508C540.084 285.508 539.06 284.485 539.06 283.291C539.06 282.096 540.084 281.073 541.278 281.073C542.472 281.073 543.496 282.096 543.496 283.291C543.496 284.485 542.472 285.508 541.278 285.508ZM556.973 285.508C555.779 285.508 554.755 284.485 554.755 283.291C554.755 282.096 555.779 281.073 556.973 281.073C558.167 281.073 559.191 282.096 559.191 283.291C559.191 284.485 558.252 285.508 556.973 285.508Z" fill="url(#paint25_linear_0_5545)"/>
<path d="M522.103 168.489C521.96 168.344 521.777 168.245 521.578 168.204C521.379 168.162 521.172 168.181 520.983 168.256C520.794 168.332 520.632 168.462 520.517 168.63C520.402 168.797 520.338 168.995 520.335 169.199V171.992H519.886C514.754 171.567 509.944 169.324 506.319 165.667C502.695 162.01 500.495 157.18 500.116 152.045V151.602H502.713C502.986 151.596 503.247 151.49 503.448 151.304C503.593 151.161 503.692 150.978 503.733 150.778C503.775 150.578 503.756 150.37 503.679 150.181C503.603 149.992 503.472 149.83 503.303 149.715C503.135 149.601 502.936 149.538 502.732 149.537H500.116V149.093C500.49 143.957 502.688 139.123 506.314 135.465C509.939 131.807 514.753 129.566 519.886 129.146L520.335 129.114V131.889C520.336 132.024 520.364 132.157 520.417 132.281C520.469 132.406 520.546 132.518 520.643 132.613C520.74 132.707 520.854 132.781 520.98 132.831C521.105 132.88 521.239 132.905 521.374 132.902C521.643 132.897 521.9 132.788 522.09 132.598C522.28 132.408 522.389 132.151 522.394 131.882V129.095H522.837C528.046 129.418 532.96 131.621 536.666 135.295C540.372 138.968 542.618 143.863 542.987 149.068V149.511H540.048C539.774 149.511 539.512 149.62 539.318 149.814C539.124 150.007 539.016 150.27 539.016 150.544C539.016 150.818 539.124 151.08 539.318 151.274C539.512 151.467 539.774 151.576 540.048 151.576H544.096C544.182 151.576 544.267 151.564 544.349 151.538C544.564 151.475 544.752 151.344 544.886 151.165C545.019 150.985 545.091 150.767 545.09 150.544C545.09 145.898 543.716 141.357 541.14 137.491C538.564 133.625 534.903 130.607 530.616 128.817C526.329 127.028 521.609 126.546 517.049 127.433C512.489 128.32 508.293 130.537 504.99 133.803C501.687 137.069 499.424 141.24 498.485 145.789C497.547 150.339 497.975 155.065 499.717 159.371C501.458 163.678 504.435 167.373 508.271 169.992C512.108 172.611 516.634 174.036 521.279 174.089C521.57 174.083 521.847 173.965 522.054 173.759C522.26 173.554 522.38 173.278 522.388 172.987V169.224C522.391 169.089 522.368 168.954 522.319 168.828C522.27 168.702 522.197 168.587 522.103 168.489Z" fill="url(#paint26_linear_0_5545)"/>
<path d="M528.076 139.205C527.855 139.081 527.594 139.048 527.348 139.114C527.103 139.181 526.894 139.341 526.765 139.56L520.995 149.575H513.19C513.05 149.546 512.905 149.55 512.765 149.584C512.626 149.619 512.496 149.684 512.385 149.775C512.274 149.866 512.185 149.98 512.124 150.11C512.062 150.24 512.03 150.381 512.03 150.525C512.03 150.668 512.062 150.81 512.124 150.94C512.185 151.069 512.274 151.184 512.385 151.275C512.496 151.366 512.626 151.431 512.765 151.465C512.905 151.5 513.05 151.503 513.19 151.475H521.552C521.712 151.475 521.869 151.435 522.01 151.359C522.15 151.283 522.27 151.172 522.356 151.038L528.444 140.491C528.569 140.268 528.601 140.003 528.532 139.756C528.463 139.51 528.299 139.3 528.076 139.174V139.205Z" fill="url(#paint27_linear_0_5545)"/>
<path d="M542.544 156.239C542.455 156.163 534.778 153.027 534.689 152.951C534.464 152.868 534.217 152.868 533.992 152.951C533.992 153.027 526.315 156.163 526.226 156.239C526.106 156.299 526.003 156.389 525.927 156.5C525.851 156.61 525.803 156.738 525.789 156.872V168.553C525.798 168.71 525.853 168.86 525.946 168.986C526.039 169.112 526.168 169.208 526.315 169.262C527.886 169.807 533.733 171.796 534.081 171.923C534.181 171.968 534.288 171.991 534.398 171.991C534.507 171.991 534.615 171.968 534.714 171.923C535.063 171.771 540.65 169.889 542.48 169.262C542.636 169.223 542.774 169.131 542.87 169.002C542.966 168.872 543.014 168.714 543.006 168.553V156.872C543.001 156.733 542.954 156.598 542.871 156.485C542.789 156.372 542.675 156.286 542.544 156.239ZM527.537 168.002V158.139C527.62 158.139 533.181 160.47 533.555 160.584V170.086L527.537 168.002ZM534.429 159.298C534.347 159.298 529.07 157.068 528.728 156.948L534.429 154.598L540.099 156.948C540.016 156.935 534.081 159.444 534.429 159.286V159.298ZM541.321 158.139V168.021L535.303 170.054V160.552C535.386 160.54 541.758 157.873 541.321 158.139Z" fill="url(#paint28_linear_0_5545)"/>
<path d="M71.3385 120.846L66.7092 119.064C66.0689 116.592 65.0862 114.221 63.7896 112.021L65.8043 107.485C65.889 107.294 65.9139 107.082 65.8758 106.877C65.8377 106.672 65.7383 106.483 65.5909 106.336L59.6639 100.409C59.5164 100.262 59.3277 100.162 59.1226 100.124C58.9175 100.086 58.7057 100.111 58.515 100.195L53.9772 102.211C51.7777 100.915 49.408 99.9323 46.9367 99.2919L45.1544 94.6614C45.0794 94.4667 44.9471 94.2994 44.7751 94.1813C44.6031 94.0632 44.3994 94 44.1908 94H35.809C35.6004 94 35.3967 94.0632 35.2247 94.1813C35.0527 94.2993 34.9206 94.4667 34.8456 94.6614L33.0632 99.292C30.5918 99.9323 28.2221 100.915 26.0227 102.211L21.4849 100.196C21.2942 100.111 21.0824 100.086 20.8773 100.124C20.6722 100.162 20.4835 100.262 20.336 100.409L14.409 106.336C14.2615 106.484 14.1622 106.672 14.1241 106.877C14.086 107.083 14.1109 107.294 14.1956 107.485L16.2107 112.022C14.9144 114.222 13.9319 116.592 13.2916 119.064L8.66142 120.846C8.46674 120.921 8.29934 121.053 8.18127 121.225C8.0632 121.397 8 121.601 8 121.809V130.191C8 130.4 8.0632 130.603 8.18127 130.775C8.29934 130.947 8.46674 131.079 8.66142 131.154L13.2908 132.936C13.9311 135.408 14.9138 137.779 16.2103 139.979L14.1956 144.515C14.1109 144.706 14.086 144.918 14.1241 145.123C14.1622 145.328 14.2615 145.517 14.409 145.664L20.3361 151.591C20.4836 151.738 20.6723 151.838 20.8774 151.876C21.0825 151.914 21.2944 151.889 21.485 151.805L26.0228 149.789C28.2222 151.085 30.592 152.068 33.0633 152.708L34.8456 157.339C34.9205 157.533 35.0527 157.701 35.2247 157.819C35.3966 157.937 35.6004 158 35.809 158H44.1909C44.3995 158 44.6032 157.937 44.7752 157.819C44.9471 157.701 45.0793 157.533 45.1543 157.339L46.9362 152.709C49.4083 152.069 51.7789 151.086 53.979 149.79L58.515 151.805C58.7056 151.889 58.9175 151.914 59.1226 151.876C59.3277 151.838 59.5164 151.739 59.6639 151.591L65.5909 145.664C65.7383 145.517 65.8377 145.328 65.8758 145.123C65.9139 144.918 65.889 144.706 65.8043 144.515L63.7889 139.978C65.085 137.778 66.0675 135.408 66.7079 132.937L71.3385 131.155C71.5331 131.08 71.7005 130.948 71.8186 130.776C71.9367 130.604 71.9999 130.4 71.9999 130.191V121.809C72 121.601 71.9368 121.397 71.8187 121.225C71.7006 121.053 71.5332 120.921 71.3385 120.846ZM69.9354 129.482L65.4649 131.203C65.3084 131.263 65.169 131.36 65.0586 131.487C64.9483 131.613 64.8704 131.764 64.8316 131.927C64.2064 134.554 63.1655 137.065 61.7483 139.364C61.6604 139.507 61.6086 139.669 61.5974 139.836C61.5862 140.003 61.6159 140.171 61.6839 140.324L63.6297 144.705L58.7052 149.63L54.3257 147.685C54.1725 147.617 54.0049 147.587 53.8376 147.598C53.6703 147.609 53.5082 147.661 53.3655 147.749C51.066 149.167 48.5548 150.208 45.9269 150.833C45.7638 150.872 45.6126 150.95 45.4864 151.06C45.3602 151.17 45.2627 151.31 45.2025 151.466L43.4821 155.935H36.5177L34.797 151.465C34.7368 151.309 34.6394 151.169 34.5132 151.059C34.387 150.948 34.2358 150.87 34.0727 150.832C31.4454 150.206 28.9349 149.166 26.636 147.749C26.4932 147.661 26.3312 147.609 26.1639 147.598C25.9966 147.586 25.8291 147.616 25.6758 147.684L21.2947 149.63L16.37 144.705L18.3152 140.326C18.3832 140.172 18.4129 140.005 18.4017 139.838C18.3904 139.67 18.3386 139.508 18.2507 139.365C16.8331 137.066 15.7921 134.555 15.1671 131.927C15.1283 131.764 15.0504 131.613 14.94 131.486C14.8297 131.36 14.6903 131.263 14.5338 131.203L10.0645 129.482V122.518L14.5346 120.797C14.691 120.737 14.8305 120.64 14.9408 120.513C15.0512 120.387 15.1291 120.236 15.1679 120.073C15.793 117.445 16.8339 114.935 18.2512 112.636C18.3391 112.493 18.391 112.331 18.4022 112.164C18.4134 111.996 18.3838 111.829 18.3157 111.675L16.3702 107.295L21.2947 102.37L25.6758 104.316C25.8291 104.384 25.9966 104.414 26.1639 104.402C26.3312 104.391 26.4932 104.339 26.636 104.251C28.9349 102.834 31.4455 101.793 34.0727 101.168C34.2358 101.129 34.387 101.051 34.5132 100.941C34.6394 100.831 34.7368 100.691 34.797 100.535L36.5179 96.0645H43.4821L45.2029 100.535C45.2631 100.691 45.3605 100.831 45.4867 100.941C45.6129 101.051 45.7641 101.129 45.9272 101.168C48.5544 101.793 51.0649 102.834 53.3639 104.251C53.5067 104.339 53.6687 104.391 53.836 104.402C54.0033 104.414 54.1708 104.384 54.324 104.316L58.7052 102.37L63.6298 107.295L61.6847 111.674C61.6166 111.827 61.5869 111.995 61.5982 112.162C61.6094 112.33 61.6613 112.492 61.7492 112.634C63.1668 114.934 64.2078 117.445 64.8328 120.073C64.8715 120.236 64.9495 120.387 65.0598 120.514C65.1702 120.64 65.3096 120.737 65.4661 120.797L69.9354 122.518V129.482ZM57.6267 115.752C59.4325 118.851 60.387 122.395 60.387 126C60.387 137.241 51.2413 146.387 39.9999 146.387C36.0309 146.387 32.153 145.222 28.8565 143.071L28.9771 143.494C29.0474 143.755 29.0119 144.034 28.8784 144.27C28.7448 144.506 28.5239 144.68 28.2633 144.754C28.0027 144.828 27.7233 144.797 27.4854 144.668C27.2476 144.538 27.0703 144.32 26.9918 144.06L26.0121 140.626C25.9691 140.476 25.9609 140.317 25.9882 140.163C26.0155 140.009 26.0775 139.863 26.1696 139.736C26.2617 139.61 26.3815 139.505 26.5198 139.432C26.6581 139.358 26.8113 139.317 26.9678 139.312L30.5362 139.183C31.108 139.161 31.5845 139.608 31.6049 140.178C31.6097 140.313 31.5879 140.449 31.5405 140.576C31.4932 140.703 31.4213 140.819 31.3289 140.918C31.2365 141.018 31.1255 141.098 31.0022 141.154C30.8789 141.21 30.7458 141.242 30.6103 141.247L29.8781 141.273C32.8632 143.25 36.3897 144.322 39.9999 144.322C50.103 144.322 58.3225 136.103 58.3225 126C58.3225 122.76 57.4651 119.576 55.843 116.792C55.7748 116.675 55.7302 116.545 55.712 116.411C55.6938 116.276 55.7022 116.14 55.7368 116.009C55.7713 115.878 55.8314 115.755 55.9135 115.647C55.9956 115.539 56.0981 115.448 56.2153 115.38C56.3324 115.312 56.4618 115.267 56.5961 115.249C56.7304 115.231 56.867 115.239 56.9981 115.274C57.1292 115.308 57.2522 115.368 57.36 115.451C57.4679 115.533 57.5585 115.635 57.6267 115.752ZM21.6774 126C21.6774 129.241 22.5348 132.426 24.1569 135.21C24.2251 135.327 24.2697 135.456 24.2879 135.59C24.3061 135.725 24.2977 135.861 24.2631 135.992C24.2286 136.124 24.1685 136.247 24.0864 136.354C24.0043 136.462 23.9018 136.553 23.7846 136.621C23.6675 136.689 23.5381 136.734 23.4037 136.752C23.2694 136.77 23.1328 136.762 23.0017 136.728C22.8706 136.693 22.7476 136.633 22.6397 136.551C22.5318 136.469 22.4412 136.366 22.373 136.249C20.5673 133.15 19.6129 129.606 19.6129 126C19.6129 114.758 28.7585 105.613 39.9999 105.613C43.9691 105.613 47.8471 106.779 51.1438 108.93L51.0228 108.506C50.9856 108.376 50.9744 108.239 50.9899 108.104C51.0055 107.97 51.0474 107.839 51.1133 107.721C51.1792 107.603 51.2677 107.498 51.374 107.414C51.4802 107.33 51.6019 107.267 51.7323 107.23C52.2802 107.073 52.8518 107.391 53.0082 107.939L53.9878 111.373C54.0308 111.524 54.039 111.682 54.0117 111.836C53.9844 111.991 53.9223 112.137 53.8302 112.263C53.7381 112.39 53.6184 112.494 53.4801 112.568C53.3418 112.641 53.1886 112.682 53.032 112.688L49.4638 112.816C49.3283 112.821 49.1932 112.799 49.0662 112.752C48.9392 112.705 48.8227 112.633 48.7235 112.54C48.6243 112.448 48.5442 112.337 48.4878 112.214C48.4315 112.09 48.4 111.957 48.3951 111.822C48.3903 111.686 48.4122 111.551 48.4595 111.424C48.5069 111.297 48.5788 111.181 48.6711 111.081C48.7635 110.982 48.8745 110.902 48.9978 110.846C49.1211 110.789 49.2542 110.758 49.3897 110.753L50.1204 110.727C47.1354 108.749 43.6093 107.677 39.9999 107.677C29.8969 107.677 21.6774 115.897 21.6774 126ZM35.9299 137.952H36.7696C37.0434 137.952 37.306 137.843 37.4995 137.649C37.6931 137.456 37.8019 137.193 37.8019 136.919L37.802 130.221C41.0848 131.023 43.9804 132.737 46.8906 134.58C47.2804 134.827 47.7146 134.951 48.1504 134.951C48.539 134.951 48.9288 134.852 49.2892 134.654C50.054 134.233 50.5105 133.461 50.5105 132.588V128.139C52.0651 127.736 53.2164 126.321 53.2164 124.643C53.2164 122.964 52.066 121.55 50.5105 121.146V116.411C50.5105 115.564 50.074 114.804 49.3431 114.376C48.6119 113.948 47.735 113.941 46.9967 114.356C46.4977 114.638 46.0003 114.923 45.5046 115.21C42.8123 116.765 39.7647 118.525 36.663 119.187H32.182C29.2054 119.187 26.7836 121.609 26.7836 124.585C26.7836 127.562 29.2054 129.984 32.182 129.984H32.4984V134.52C32.4983 136.412 34.0378 137.952 35.9299 137.952ZM51.1518 124.643C51.1518 125.158 50.8979 125.613 50.5104 125.895V123.391C50.8981 123.672 51.1518 124.128 51.1518 124.643ZM34.5628 134.52V129.984H35.7375L35.7374 135.873C35.0744 135.78 34.5628 135.208 34.5628 134.52ZM44.8811 130.955C42.6906 129.723 40.3567 128.657 37.802 128.1L37.8021 121.036C40.3094 120.386 42.6896 119.177 44.8811 117.945V130.955ZM48.0084 116.156C48.1113 116.098 48.1986 116.099 48.3007 116.158C48.4025 116.218 48.4459 116.294 48.4459 116.411V132.588C48.4459 132.708 48.399 132.787 48.2937 132.845C48.1884 132.903 48.0966 132.9 47.9953 132.836C47.6466 132.615 47.2967 132.396 46.9456 132.179V116.762C47.2988 116.558 47.6531 116.356 48.0084 116.156ZM28.848 124.585C28.848 122.747 30.3436 121.252 32.1819 121.252H35.7376L35.7375 127.919H32.1819C30.3436 127.919 28.848 126.424 28.848 124.585Z" fill="url(#paint29_linear_0_5545)"/>
<path d="M55.5536 239.112H42.9228C42.6738 239.112 42.4351 239.211 42.259 239.387C42.083 239.563 41.984 239.802 41.984 240.051C41.984 240.3 42.083 240.539 42.259 240.715C42.4351 240.891 42.6738 240.99 42.9228 240.99H55.5536C55.8026 240.99 56.0413 240.891 56.2174 240.715C56.3935 240.539 56.4923 240.3 56.4923 240.051C56.4923 239.802 56.3935 239.563 56.2174 239.387C56.0413 239.211 55.8026 239.112 55.5536 239.112Z" fill="url(#paint30_linear_0_5545)"/>
<path d="M55.5537 247.301H42.923C42.6727 247.301 42.4328 247.4 42.2559 247.577C42.079 247.754 41.9795 247.994 41.9795 248.244C41.9795 248.495 42.079 248.735 42.2559 248.912C42.4328 249.088 42.6727 249.188 42.923 249.188H55.5537C55.8039 249.188 56.0438 249.088 56.2207 248.912C56.3977 248.735 56.497 248.495 56.497 248.244C56.497 247.994 56.3977 247.754 56.2207 247.577C56.0438 247.4 55.8039 247.301 55.5537 247.301Z" fill="url(#paint31_linear_0_5545)"/>
<path d="M55.5539 255.544H42.9232C42.6803 255.544 42.4472 255.641 42.2755 255.813C42.1037 255.984 42.0072 256.217 42.0072 256.46C42.0072 256.703 42.1037 256.936 42.2755 257.108C42.4472 257.28 42.6803 257.376 42.9232 257.376H55.5539C55.7968 257.376 56.0297 257.28 56.2015 257.108C56.3733 256.936 56.4699 256.703 56.4699 256.46C56.4699 256.217 56.3733 255.984 56.2015 255.813C56.0297 255.641 55.7968 255.544 55.5539 255.544Z" fill="url(#paint32_linear_0_5545)"/>
<path d="M68.111 244.26H66.1234C65.8744 244.26 65.6356 244.359 65.4596 244.535C65.2835 244.711 65.1846 244.95 65.1846 245.199C65.1846 245.448 65.2835 245.687 65.4596 245.863C65.6356 246.039 65.8744 246.138 66.1234 246.138H68.111C68.36 246.138 68.5987 246.039 68.7748 245.863C68.9509 245.687 69.0498 245.448 69.0498 245.199C69.0498 244.95 68.9509 244.711 68.7748 244.535C68.5987 244.359 68.36 244.26 68.111 244.26Z" fill="url(#paint33_linear_0_5545)"/>
<path d="M74.1381 244.26H72.1415C71.8925 244.26 71.6536 244.359 71.4775 244.535C71.3015 244.711 71.2026 244.95 71.2026 245.199C71.2026 245.448 71.3015 245.687 71.4775 245.863C71.6536 246.039 71.8925 246.138 72.1415 246.138H74.1381C74.3871 246.138 74.626 246.039 74.802 245.863C74.9781 245.687 75.077 245.448 75.077 245.199C75.077 244.95 74.9781 244.711 74.802 244.535C74.626 244.359 74.3871 244.26 74.1381 244.26Z" fill="url(#paint34_linear_0_5545)"/>
<path d="M80.1921 244.26H78.1863C77.9373 244.26 77.6985 244.359 77.5224 244.535C77.3464 244.711 77.2474 244.95 77.2474 245.199C77.2474 245.448 77.3464 245.687 77.5224 245.863C77.6985 246.039 77.9373 246.138 78.1863 246.138H80.183C80.432 246.138 80.6708 246.039 80.8468 245.863C81.0229 245.687 81.1218 245.448 81.1218 245.199C81.1218 244.95 81.0229 244.711 80.8468 244.535C80.6708 244.359 80.432 244.26 80.183 244.26H80.1921Z" fill="url(#paint35_linear_0_5545)"/>
<path d="M86.2466 244.26H84.2498C84.0008 244.26 83.7621 244.359 83.586 244.535C83.41 244.711 83.311 244.95 83.311 245.199C83.311 245.448 83.41 245.687 83.586 245.863C83.7621 246.039 84.0008 246.138 84.2498 246.138H86.2466C86.4956 246.138 86.7344 246.039 86.9104 245.863C87.0865 245.687 87.1854 245.448 87.1854 245.199C87.1854 244.95 87.0865 244.711 86.9104 244.535C86.7344 244.359 86.4956 244.26 86.2466 244.26Z" fill="url(#paint36_linear_0_5545)"/>
<path d="M68.1114 249.133H66.1238C65.8809 249.133 65.648 249.229 65.4762 249.401C65.3045 249.573 65.2079 249.806 65.2079 250.049C65.2079 250.292 65.3045 250.525 65.4762 250.696C65.648 250.868 65.8809 250.965 66.1238 250.965H68.1114C68.3544 250.965 68.5874 250.868 68.7591 250.696C68.9309 250.525 69.0274 250.292 69.0274 250.049C69.0274 249.806 68.9309 249.573 68.7591 249.401C68.5874 249.229 68.3544 249.133 68.1114 249.133Z" fill="url(#paint37_linear_0_5545)"/>
<path d="M74.1376 249.133H72.1409C71.898 249.133 71.665 249.229 71.4932 249.401C71.3214 249.573 71.225 249.806 71.225 250.049C71.225 250.292 71.3214 250.525 71.4932 250.696C71.665 250.868 71.898 250.965 72.1409 250.965H74.1376C74.3805 250.965 74.6135 250.868 74.7853 250.696C74.957 250.525 75.0535 250.292 75.0535 250.049C75.0535 249.806 74.957 249.573 74.7853 249.401C74.6135 249.229 74.3805 249.133 74.1376 249.133Z" fill="url(#paint38_linear_0_5545)"/>
<path d="M80.1924 249.133H78.1866C77.9437 249.133 77.7107 249.229 77.5389 249.401C77.3671 249.573 77.2707 249.806 77.2707 250.049C77.2707 250.292 77.3671 250.525 77.5389 250.696C77.7107 250.868 77.9437 250.965 78.1866 250.965H80.1834C80.4263 250.965 80.6592 250.868 80.831 250.696C81.0027 250.525 81.0993 250.292 81.0993 250.049C81.0993 249.806 81.0027 249.573 80.831 249.401C80.6592 249.229 80.4263 249.133 80.1834 249.133H80.1924Z" fill="url(#paint39_linear_0_5545)"/>
<path d="M86.247 249.133H84.2502C84.0072 249.133 83.7742 249.229 83.6025 249.401C83.4307 249.573 83.3342 249.806 83.3342 250.049C83.3342 250.292 83.4307 250.525 83.6025 250.696C83.7742 250.868 84.0072 250.965 84.2502 250.965H86.247C86.4899 250.965 86.7228 250.868 86.8945 250.696C87.0663 250.525 87.1629 250.292 87.1629 250.049C87.1629 249.806 87.0663 249.573 86.8945 249.401C86.7228 249.229 86.4899 249.133 86.247 249.133Z" fill="url(#paint40_linear_0_5545)"/>
<path d="M68.1114 254.024H66.1238C65.8809 254.024 65.648 254.121 65.4762 254.292C65.3045 254.464 65.2079 254.697 65.2079 254.94C65.2079 255.183 65.3045 255.416 65.4762 255.588C65.648 255.759 65.8809 255.856 66.1238 255.856H68.1114C68.3544 255.856 68.5874 255.759 68.7591 255.588C68.9309 255.416 69.0274 255.183 69.0274 254.94C69.0274 254.697 68.9309 254.464 68.7591 254.292C68.5874 254.121 68.3544 254.024 68.1114 254.024Z" fill="url(#paint41_linear_0_5545)"/>
<path d="M74.1376 254.024H72.1409C71.898 254.024 71.665 254.121 71.4932 254.292C71.3214 254.464 71.225 254.697 71.225 254.94C71.225 255.183 71.3214 255.416 71.4932 255.588C71.665 255.759 71.898 255.856 72.1409 255.856H74.1376C74.3805 255.856 74.6135 255.759 74.7853 255.588C74.957 255.416 75.0535 255.183 75.0535 254.94C75.0535 254.697 74.957 254.464 74.7853 254.292C74.6135 254.121 74.3805 254.024 74.1376 254.024Z" fill="url(#paint42_linear_0_5545)"/>
<path d="M80.1924 254.024H78.1866C77.9437 254.024 77.7107 254.121 77.5389 254.292C77.3671 254.464 77.2707 254.697 77.2707 254.94C77.2707 255.183 77.3671 255.416 77.5389 255.588C77.7107 255.759 77.9437 255.856 78.1866 255.856H80.1834C80.4263 255.856 80.6592 255.759 80.831 255.588C81.0027 255.416 81.0993 255.183 81.0993 254.94C81.0993 254.697 81.0027 254.464 80.831 254.292C80.6592 254.121 80.4263 254.024 80.1834 254.024H80.1924Z" fill="url(#paint43_linear_0_5545)"/>
<path d="M86.247 254.024H84.2502C84.0072 254.024 83.7742 254.121 83.6025 254.292C83.4307 254.464 83.3342 254.697 83.3342 254.94C83.3342 255.183 83.4307 255.416 83.6025 255.588C83.7742 255.759 84.0072 255.856 84.2502 255.856H86.247C86.4899 255.856 86.7228 255.759 86.8945 255.588C87.0663 255.416 87.1629 255.183 87.1629 254.94C87.1629 254.697 87.0663 254.464 86.8945 254.292C86.7228 254.121 86.4899 254.024 86.247 254.024Z" fill="url(#paint44_linear_0_5545)"/>
<path d="M45.0022 229.761C44.7932 229.624 44.5384 229.575 44.2936 229.626C44.0488 229.676 43.8342 229.822 43.6969 230.031C43.5597 230.24 43.5111 230.495 43.5617 230.74C43.6124 230.984 43.7582 231.199 43.9671 231.336C44.9971 232.085 46.2299 232.503 47.5026 232.536V233.8C47.5026 234.043 47.5991 234.276 47.7709 234.448C47.9426 234.62 48.1756 234.716 48.4186 234.716C48.6615 234.716 48.8945 234.62 49.0663 234.448C49.238 234.276 49.3345 234.043 49.3345 233.8V232.463C50.3634 232.274 51.3085 231.771 52.0399 231.023C52.7714 230.275 53.2533 229.319 53.4195 228.286C53.6258 227.211 53.4276 226.097 52.8629 225.159C52.2983 224.221 51.4071 223.524 50.3603 223.203L49.3345 222.827V217.57C49.886 217.675 50.4043 217.91 50.8458 218.257C51.0292 218.424 51.2717 218.512 51.5199 218.501C51.7681 218.49 52.0017 218.381 52.1693 218.197C52.3369 218.014 52.4249 217.771 52.4137 217.523C52.4025 217.275 52.2932 217.041 52.1098 216.874C51.327 216.22 50.3736 215.804 49.362 215.674V214.538C49.362 214.295 49.2654 214.062 49.0937 213.89C48.9219 213.719 48.689 213.622 48.4461 213.622C48.2031 213.622 47.9701 213.719 47.7984 213.89C47.6266 214.062 47.5301 214.295 47.5301 214.538V215.747L46.9623 215.885C46.2274 216.119 45.5708 216.55 45.0638 217.132C44.5567 217.713 44.2187 218.422 44.0862 219.182C43.926 219.844 43.9533 220.537 44.1653 221.184C44.3772 221.832 44.7653 222.407 45.286 222.846C45.977 223.366 46.7311 223.797 47.5301 224.128V230.695C46.6102 230.657 45.7256 230.33 45.0022 229.761ZM46.4218 221.334C46.1768 221.105 45.9994 220.813 45.9089 220.49C45.8185 220.167 45.8185 219.826 45.9089 219.503C45.9778 219.083 46.1602 218.691 46.4363 218.368C46.7124 218.045 47.0717 217.804 47.4751 217.671V222.003C47.1056 221.81 46.7532 221.587 46.4218 221.334ZM49.7741 224.998C50.4002 225.178 50.9359 225.587 51.2752 226.143C51.6144 226.7 51.7324 227.363 51.606 228.002C51.5056 228.594 51.2438 229.147 50.8495 229.599C50.4552 230.052 49.9436 230.387 49.3712 230.567V224.861L49.7741 224.998Z" fill="url(#paint45_linear_0_5545)"/>
<path d="M88.8109 228.314H63.5312C62.6664 228.314 61.837 228.657 61.2255 229.269C60.614 229.88 60.2704 230.71 60.2704 231.575V234.734C60.2704 234.977 60.367 235.21 60.5388 235.382C60.7105 235.554 60.9435 235.65 61.1864 235.65C61.4293 235.65 61.6623 235.554 61.8341 235.382C62.0058 235.21 62.1023 234.977 62.1023 234.734V231.575C62.1023 231.208 62.2481 230.856 62.5075 230.597C62.7669 230.337 63.1186 230.191 63.4854 230.191H88.7744C89.1412 230.191 89.4929 230.337 89.7522 230.597C90.0116 230.856 90.1573 231.208 90.1573 231.575V259.822C90.1549 260.188 90.0085 260.538 89.7497 260.797C89.4908 261.056 89.1404 261.203 88.7744 261.205H63.5312C63.1651 261.203 62.8148 261.056 62.5559 260.797C62.2971 260.538 62.1505 260.188 62.1481 259.822V239.122C62.1481 238.879 62.0517 238.646 61.8799 238.474C61.7081 238.302 61.4751 238.206 61.2322 238.206C60.9893 238.206 60.7563 238.302 60.5845 238.474C60.4127 238.646 60.3163 238.879 60.3163 239.122V259.822C60.3187 260.686 60.663 261.514 61.274 262.125C61.885 262.736 62.713 263.08 63.5771 263.083H88.8659C89.73 263.08 90.558 262.736 91.169 262.125C91.7799 261.514 92.1242 260.686 92.1266 259.822V231.575C92.1267 231.142 92.0405 230.713 91.8732 230.314C91.706 229.915 91.4608 229.553 91.1522 229.249C90.8436 228.946 90.4777 228.707 90.0757 228.546C89.6737 228.385 89.2437 228.306 88.8109 228.314Z" fill="url(#paint46_linear_0_5545)"/>
<path d="M86.9882 240.111C87.1169 239.872 87.183 239.604 87.1805 239.332V234.524C87.1835 234.139 87.0505 233.766 86.8051 233.47L86.7044 233.361C86.5507 233.206 86.3679 233.084 86.1667 233C85.9654 232.917 85.7497 232.875 85.5319 232.875H66.8194C66.3788 232.875 65.9563 233.049 65.6439 233.36C65.3316 233.671 65.1549 234.092 65.1524 234.533V239.342C65.1549 239.782 65.3316 240.204 65.6439 240.514C65.9563 240.825 66.3788 240.999 66.8194 240.999H86.457C86.4782 241.004 86.4999 241.004 86.5211 240.999H86.5853L86.6493 240.944L86.7684 240.825L86.8143 240.77V240.706C86.8185 240.685 86.8185 240.663 86.8143 240.642L86.8692 240.541L86.9882 240.111ZM67.021 239.113V234.744H85.3396V239.113H67.021Z" fill="url(#paint47_linear_0_5545)"/>
<path d="M84.1857 265.62C83.9427 265.62 83.7097 265.716 83.5379 265.888C83.3662 266.06 83.2697 266.293 83.2697 266.536V267.204C83.2697 267.746 83.0545 268.265 82.6714 268.649C82.2884 269.032 81.7688 269.247 81.2271 269.247H38.9294C38.3877 269.247 37.8681 269.032 37.485 268.649C37.102 268.265 36.8869 267.746 36.8869 267.204V210.92C36.8869 210.379 37.102 209.859 37.485 209.476C37.8681 209.093 38.3877 208.878 38.9294 208.878H71.7747C71.8722 208.868 71.9703 208.868 72.0678 208.878V216.727C72.0702 217.606 72.4203 218.448 73.0416 219.069C73.6629 219.69 74.5048 220.04 75.3834 220.043H83.233C83.2425 220.14 83.2425 220.239 83.233 220.336V224.815C83.233 225.058 83.3295 225.291 83.5013 225.463C83.673 225.634 83.9061 225.731 84.149 225.731C84.3919 225.731 84.6249 225.634 84.7967 225.463C84.9685 225.291 85.0649 225.058 85.0649 224.815V220.336C85.0594 219.305 84.6481 218.318 83.92 217.588L74.5225 208.145C74.1623 207.783 73.7342 207.495 73.2627 207.299C72.7912 207.102 72.2855 207.001 71.7747 207H38.9202C37.8805 207 36.8834 207.413 36.1483 208.148C35.4131 208.883 35 209.881 35 210.92V267.195C35 268.235 35.4131 269.232 36.1483 269.967C36.8834 270.702 37.8805 271.115 38.9202 271.115H81.218C82.2577 271.115 83.2548 270.702 83.99 269.967C84.7252 269.232 85.1381 268.235 85.1381 267.195V266.536C85.1382 266.412 85.1134 266.29 85.0651 266.176C85.0168 266.063 84.946 265.96 84.8571 265.875C84.7681 265.789 84.6627 265.722 84.5474 265.679C84.432 265.635 84.309 265.615 84.1857 265.62ZM81.9232 218.211H75.3744C74.9954 218.211 74.6319 218.06 74.364 217.793C74.096 217.525 73.9455 217.161 73.9455 216.782V210.206L81.9232 218.211Z" fill="url(#paint48_linear_0_5545)"/>
<defs>
<linearGradient id="paint0_linear_0_5545" x1="400.698" y1="-7.07799" x2="451.263" y2="40.6544" gradientUnits="userSpaceOnUse">
<stop stop-color="white"/>
<stop offset="1" stop-color="#9DCDFF"/>
</linearGradient>
<linearGradient id="paint1_linear_0_5545" x1="400.698" y1="-7.07799" x2="451.263" y2="40.6544" gradientUnits="userSpaceOnUse">
<stop stop-color="white"/>
<stop offset="1" stop-color="#9DCDFF"/>
</linearGradient>
<linearGradient id="paint2_linear_0_5545" x1="400.698" y1="-7.07799" x2="451.263" y2="40.6544" gradientUnits="userSpaceOnUse">
<stop stop-color="white"/>
<stop offset="1" stop-color="#9DCDFF"/>
</linearGradient>
<linearGradient id="paint3_linear_0_5545" x1="218.26" y1="310.769" x2="262.38" y2="352.267" gradientUnits="userSpaceOnUse">
<stop stop-color="white"/>
<stop offset="1" stop-color="#9DCDFF"/>
</linearGradient>
<linearGradient id="paint4_linear_0_5545" x1="218.26" y1="310.769" x2="262.38" y2="352.267" gradientUnits="userSpaceOnUse">
<stop stop-color="white"/>
<stop offset="1" stop-color="#9DCDFF"/>
</linearGradient>
<linearGradient id="paint5_linear_0_5545" x1="218.26" y1="310.769" x2="262.38" y2="352.267" gradientUnits="userSpaceOnUse">
<stop stop-color="white"/>
<stop offset="1" stop-color="#9DCDFF"/>
</linearGradient>
<linearGradient id="paint6_linear_0_5545" x1="218.26" y1="310.769" x2="262.38" y2="352.267" gradientUnits="userSpaceOnUse">
<stop stop-color="white"/>
<stop offset="1" stop-color="#9DCDFF"/>
</linearGradient>
<linearGradient id="paint7_linear_0_5545" x1="218.26" y1="310.769" x2="262.38" y2="352.267" gradientUnits="userSpaceOnUse">
<stop stop-color="white"/>
<stop offset="1" stop-color="#9DCDFF"/>
</linearGradient>
<linearGradient id="paint8_linear_0_5545" x1="218.26" y1="310.769" x2="262.38" y2="352.267" gradientUnits="userSpaceOnUse">
<stop stop-color="white"/>
<stop offset="1" stop-color="#9DCDFF"/>
</linearGradient>
<linearGradient id="paint9_linear_0_5545" x1="218.26" y1="310.769" x2="262.38" y2="352.267" gradientUnits="userSpaceOnUse">
<stop stop-color="white"/>
<stop offset="1" stop-color="#9DCDFF"/>
</linearGradient>
<linearGradient id="paint10_linear_0_5545" x1="218.26" y1="310.769" x2="262.38" y2="352.267" gradientUnits="userSpaceOnUse">
<stop stop-color="white"/>
<stop offset="1" stop-color="#9DCDFF"/>
</linearGradient>
<linearGradient id="paint11_linear_0_5545" x1="218.26" y1="310.769" x2="262.38" y2="352.267" gradientUnits="userSpaceOnUse">
<stop stop-color="white"/>
<stop offset="1" stop-color="#9DCDFF"/>
</linearGradient>
<linearGradient id="paint12_linear_0_5545" x1="218.26" y1="310.769" x2="262.38" y2="352.267" gradientUnits="userSpaceOnUse">
<stop stop-color="white"/>
<stop offset="1" stop-color="#9DCDFF"/>
</linearGradient>
<linearGradient id="paint13_linear_0_5545" x1="218.26" y1="310.769" x2="262.38" y2="352.267" gradientUnits="userSpaceOnUse">
<stop stop-color="white"/>
<stop offset="1" stop-color="#9DCDFF"/>
</linearGradient>
<linearGradient id="paint14_linear_0_5545" x1="218.26" y1="310.769" x2="262.38" y2="352.267" gradientUnits="userSpaceOnUse">
<stop stop-color="white"/>
<stop offset="1" stop-color="#9DCDFF"/>
</linearGradient>
<linearGradient id="paint15_linear_0_5545" x1="218.26" y1="310.769" x2="262.38" y2="352.267" gradientUnits="userSpaceOnUse">
<stop stop-color="white"/>
<stop offset="1" stop-color="#9DCDFF"/>
</linearGradient>
<linearGradient id="paint16_linear_0_5545" x1="218.26" y1="310.769" x2="262.38" y2="352.267" gradientUnits="userSpaceOnUse">
<stop stop-color="white"/>
<stop offset="1" stop-color="#9DCDFF"/>
</linearGradient>
<linearGradient id="paint17_linear_0_5545" x1="382.264" y1="211.995" x2="432.945" y2="258.526" gradientUnits="userSpaceOnUse">
<stop stop-color="white"/>
<stop offset="1" stop-color="#9DCDFF"/>
</linearGradient>
<linearGradient id="paint18_linear_0_5545" x1="382.264" y1="211.995" x2="432.945" y2="258.526" gradientUnits="userSpaceOnUse">
<stop stop-color="white"/>
<stop offset="1" stop-color="#9DCDFF"/>
</linearGradient>
<linearGradient id="paint19_linear_0_5545" x1="451.339" y1="352.767" x2="480.425" y2="379.071" gradientUnits="userSpaceOnUse">
<stop stop-color="white"/>
<stop offset="1" stop-color="#9DCDFF"/>
</linearGradient>
<linearGradient id="paint20_linear_0_5545" x1="451.339" y1="352.767" x2="480.425" y2="379.071" gradientUnits="userSpaceOnUse">
<stop stop-color="white"/>
<stop offset="1" stop-color="#9DCDFF"/>
</linearGradient>
<linearGradient id="paint21_linear_0_5545" x1="451.339" y1="352.767" x2="480.425" y2="379.071" gradientUnits="userSpaceOnUse">
<stop stop-color="white"/>
<stop offset="1" stop-color="#9DCDFF"/>
</linearGradient>
<linearGradient id="paint22_linear_0_5545" x1="451.339" y1="352.767" x2="480.425" y2="379.071" gradientUnits="userSpaceOnUse">
<stop stop-color="white"/>
<stop offset="1" stop-color="#9DCDFF"/>
</linearGradient>
<linearGradient id="paint23_linear_0_5545" x1="451.339" y1="352.767" x2="480.425" y2="379.071" gradientUnits="userSpaceOnUse">
<stop stop-color="white"/>
<stop offset="1" stop-color="#9DCDFF"/>
</linearGradient>
<linearGradient id="paint24_linear_0_5545" x1="451.339" y1="352.767" x2="480.425" y2="379.071" gradientUnits="userSpaceOnUse">
<stop stop-color="white"/>
<stop offset="1" stop-color="#9DCDFF"/>
</linearGradient>
<linearGradient id="paint25_linear_0_5545" x1="532.929" y1="258.385" x2="561.019" y2="286.33" gradientUnits="userSpaceOnUse">
<stop stop-color="white"/>
<stop offset="1" stop-color="#9DCDFF"/>
</linearGradient>
<linearGradient id="paint26_linear_0_5545" x1="510.552" y1="138.591" x2="545.139" y2="170.59" gradientUnits="userSpaceOnUse">
<stop stop-color="white"/>
<stop offset="1" stop-color="#9DCDFF"/>
</linearGradient>
<linearGradient id="paint27_linear_0_5545" x1="510.552" y1="138.591" x2="545.139" y2="170.59" gradientUnits="userSpaceOnUse">
<stop stop-color="white"/>
<stop offset="1" stop-color="#9DCDFF"/>
</linearGradient>
<linearGradient id="paint28_linear_0_5545" x1="510.552" y1="138.591" x2="545.139" y2="170.59" gradientUnits="userSpaceOnUse">
<stop stop-color="white"/>
<stop offset="1" stop-color="#9DCDFF"/>
</linearGradient>
<linearGradient id="paint29_linear_0_5545" x1="25.0592" y1="109.753" x2="72.0671" y2="153.243" gradientUnits="userSpaceOnUse">
<stop stop-color="white"/>
<stop offset="1" stop-color="#9DCDFF"/>
</linearGradient>
<linearGradient id="paint30_linear_0_5545" x1="50.2271" y1="222.782" x2="96.5942" y2="261.002" gradientUnits="userSpaceOnUse">
<stop stop-color="white"/>
<stop offset="1" stop-color="#9DCDFF"/>
</linearGradient>
<linearGradient id="paint31_linear_0_5545" x1="50.2271" y1="222.782" x2="96.5942" y2="261.002" gradientUnits="userSpaceOnUse">
<stop stop-color="white"/>
<stop offset="1" stop-color="#9DCDFF"/>
</linearGradient>
<linearGradient id="paint32_linear_0_5545" x1="50.2271" y1="222.782" x2="96.5942" y2="261.002" gradientUnits="userSpaceOnUse">
<stop stop-color="white"/>
<stop offset="1" stop-color="#9DCDFF"/>
</linearGradient>
<linearGradient id="paint33_linear_0_5545" x1="50.2271" y1="222.782" x2="96.5942" y2="261.002" gradientUnits="userSpaceOnUse">
<stop stop-color="white"/>
<stop offset="1" stop-color="#9DCDFF"/>
</linearGradient>
<linearGradient id="paint34_linear_0_5545" x1="50.2271" y1="222.782" x2="96.5942" y2="261.002" gradientUnits="userSpaceOnUse">
<stop stop-color="white"/>
<stop offset="1" stop-color="#9DCDFF"/>
</linearGradient>
<linearGradient id="paint35_linear_0_5545" x1="50.2271" y1="222.782" x2="96.5942" y2="261.002" gradientUnits="userSpaceOnUse">
<stop stop-color="white"/>
<stop offset="1" stop-color="#9DCDFF"/>
</linearGradient>
<linearGradient id="paint36_linear_0_5545" x1="50.2271" y1="222.782" x2="96.5942" y2="261.002" gradientUnits="userSpaceOnUse">
<stop stop-color="white"/>
<stop offset="1" stop-color="#9DCDFF"/>
</linearGradient>
<linearGradient id="paint37_linear_0_5545" x1="50.2271" y1="222.782" x2="96.5942" y2="261.002" gradientUnits="userSpaceOnUse">
<stop stop-color="white"/>
<stop offset="1" stop-color="#9DCDFF"/>
</linearGradient>
<linearGradient id="paint38_linear_0_5545" x1="50.2271" y1="222.782" x2="96.5942" y2="261.002" gradientUnits="userSpaceOnUse">
<stop stop-color="white"/>
<stop offset="1" stop-color="#9DCDFF"/>
</linearGradient>
<linearGradient id="paint39_linear_0_5545" x1="50.2271" y1="222.782" x2="96.5942" y2="261.002" gradientUnits="userSpaceOnUse">
<stop stop-color="white"/>
<stop offset="1" stop-color="#9DCDFF"/>
</linearGradient>
<linearGradient id="paint40_linear_0_5545" x1="50.2271" y1="222.782" x2="96.5942" y2="261.002" gradientUnits="userSpaceOnUse">
<stop stop-color="white"/>
<stop offset="1" stop-color="#9DCDFF"/>
</linearGradient>
<linearGradient id="paint41_linear_0_5545" x1="50.2271" y1="222.782" x2="96.5942" y2="261.002" gradientUnits="userSpaceOnUse">
<stop stop-color="white"/>
<stop offset="1" stop-color="#9DCDFF"/>
</linearGradient>
<linearGradient id="paint42_linear_0_5545" x1="50.2271" y1="222.782" x2="96.5942" y2="261.002" gradientUnits="userSpaceOnUse">
<stop stop-color="white"/>
<stop offset="1" stop-color="#9DCDFF"/>
</linearGradient>
<linearGradient id="paint43_linear_0_5545" x1="50.2271" y1="222.782" x2="96.5942" y2="261.002" gradientUnits="userSpaceOnUse">
<stop stop-color="white"/>
<stop offset="1" stop-color="#9DCDFF"/>
</linearGradient>
<linearGradient id="paint44_linear_0_5545" x1="50.2271" y1="222.782" x2="96.5942" y2="261.002" gradientUnits="userSpaceOnUse">
<stop stop-color="white"/>
<stop offset="1" stop-color="#9DCDFF"/>
</linearGradient>
<linearGradient id="paint45_linear_0_5545" x1="50.2271" y1="222.782" x2="96.5942" y2="261.002" gradientUnits="userSpaceOnUse">
<stop stop-color="white"/>
<stop offset="1" stop-color="#9DCDFF"/>
</linearGradient>
<linearGradient id="paint46_linear_0_5545" x1="50.2271" y1="222.782" x2="96.5942" y2="261.002" gradientUnits="userSpaceOnUse">
<stop stop-color="white"/>
<stop offset="1" stop-color="#9DCDFF"/>
</linearGradient>
<linearGradient id="paint47_linear_0_5545" x1="50.2271" y1="222.782" x2="96.5942" y2="261.002" gradientUnits="userSpaceOnUse">
<stop stop-color="white"/>
<stop offset="1" stop-color="#9DCDFF"/>
</linearGradient>
<linearGradient id="paint48_linear_0_5545" x1="50.2271" y1="222.782" x2="96.5942" y2="261.002" gradientUnits="userSpaceOnUse">
<stop stop-color="white"/>
<stop offset="1" stop-color="#9DCDFF"/>
</linearGradient>
<clipPath id="clip0_0_5545">
<rect width="83" height="83" fill="white" transform="translate(191 84)"/>
</clipPath>
</defs>
</svg>
