<svg width="528" height="413" viewBox="0 0 528 413" fill="none" xmlns="http://www.w3.org/2000/svg">
<path d="M486.562 19.6431L277.181 68.4618V395.533H486.562V19.6431Z" fill="url(#paint0_linear_1_1221)"/>
<path d="M0 35.5957L179.47 72.7286V395.495H0V35.5957Z" fill="url(#paint1_linear_1_1221)"/>
<path d="M409.044 93.5722C408.475 92.9336 407.66 92.5684 406.805 92.5684H389.38C388.524 92.5684 387.709 92.9336 387.14 93.5722L350.583 134.586C348.859 136.52 350.232 139.582 352.823 139.582H443.362C445.952 139.582 447.325 136.52 445.601 134.586L409.044 93.5722Z" fill="url(#paint2_linear_1_1221)"/>
<rect width="3" height="94" transform="matrix(-1 0 0 1 400 0)" fill="url(#paint3_linear_1_1221)"/>
<path d="M130.669 136.874C130.1 136.235 129.285 135.87 128.43 135.87H111.005C110.149 135.87 109.334 136.235 108.765 136.874L72.2082 177.888C70.4845 179.821 71.8572 182.884 74.4477 182.884H164.987C167.577 182.884 168.95 179.821 167.226 177.888L130.669 136.874Z" fill="url(#paint4_linear_1_1221)"/>
<rect width="3" height="138" transform="matrix(-1 0 0 1 121 0)" fill="url(#paint5_linear_1_1221)"/>
<path d="M257.739 325.081C263.514 331.947 268.747 343.332 271.995 345.14C275.242 346.946 280.719 347.575 285.894 364.256C291.069 380.938 264.941 378.654 264.941 378.654C264.941 378.654 253.769 372.228 249.257 356.704L238.07 346.765L257.739 325.081Z" fill="#FFBDA9"/>
<path d="M277.952 376.825C277.952 376.825 269.494 374.067 262.322 366.48C255.122 358.864 254.194 345.315 254.194 345.315L250.745 351.768L243.847 344.385L240.522 344.062L238.07 346.765L249.257 356.703C253.769 372.227 264.941 378.653 264.941 378.653C264.941 378.653 272.144 379.279 278.236 377.462C278.08 377.068 277.952 376.825 277.952 376.825Z" fill="#C97E6F"/>
<path d="M218.569 265.331C226.571 271.19 231.347 275.442 235.326 283.412C239.305 291.382 264.243 320.017 265.835 322.57C267.427 325.124 251.82 352.223 239.328 358.865C239.328 358.865 220.468 337.079 209.592 328.844C198.715 320.608 202.429 291.383 207.47 281.553C212.511 271.722 218.569 265.331 218.569 265.331Z" fill="#3E96F4"/>
<path d="M218.861 318.062V301.795C218.861 301.795 216.744 300.946 215.093 306.437C214.433 308.633 214.484 310.943 214.778 312.931L202.636 303.785C202.134 314.023 203.775 324.436 209.594 328.842C220.471 337.078 239.33 358.864 239.33 358.864C242.552 357.151 245.981 354.071 249.269 350.407C241.591 342.751 227.022 327.969 218.861 318.062Z" fill="#1B72B2"/>
<path d="M296.442 372.229C298.518 372.878 300.053 373.872 300.053 376.491C300.053 379.111 299.601 383.268 298.609 384.894C297.616 386.521 292.492 387.494 292.492 387.494C292.492 387.494 292.835 376.671 293.917 374.683C294.999 372.697 296.442 372.229 296.442 372.229Z" fill="#FFBDA9"/>
<path d="M298.609 384.894C298.888 384.437 299.12 383.768 299.315 383.001C298.203 384.096 297.83 384.104 296.468 384.248L292.577 385.463C292.518 386.681 292.492 387.495 292.492 387.495C292.492 387.495 297.616 386.52 298.609 384.894Z" fill="#C97E6F"/>
<path d="M291.485 368.27C294.011 368.54 296.537 370.438 296.537 373.058C296.537 375.679 297.439 382.997 296.537 384.172C295.635 385.347 291.214 388.69 289.679 388.961C288.145 389.231 285.541 388.78 285.896 387.967C286.252 387.153 291.485 368.27 291.485 368.27Z" fill="#FFBDA9"/>
<path d="M296.925 382.205C295.009 384.37 290.111 384.175 290.111 384.175C290.111 384.175 287.959 386.478 287.693 387.217C287.533 387.664 286.652 388.252 286.531 388.707C287.342 389.016 288.724 389.13 289.685 388.96C291.188 388.694 295.458 385.481 296.476 384.248L296.925 382.209C296.925 382.209 296.925 382.207 296.925 382.205Z" fill="#C97E6F"/>
<path d="M282.019 363.947C289.771 364.384 291.214 365.107 291.484 368.27C291.755 371.432 291.575 380.648 290.582 382.997C289.59 385.346 289.048 387.425 287.786 388.689C286.523 389.954 284.632 389.959 284.632 389.959C284.632 389.959 280.387 383.72 280.207 378.48C280.026 373.238 282.019 363.947 282.019 363.947Z" fill="#FFBDA9"/>
<path d="M286.481 384.767C286.088 382.62 285.216 380.333 285.105 373.152C285.064 370.454 282.566 384.544 283.681 388.41C284.237 389.37 284.636 389.958 284.636 389.958C284.636 389.958 286.526 389.954 287.789 388.688C289.052 387.424 289.594 385.345 290.586 382.996C290.651 382.843 290.711 382.658 290.769 382.452C290.263 383.77 288.656 384.635 286.481 384.767Z" fill="#C97E6F"/>
<path d="M265.054 379.834C265.542 384.152 271.189 385.707 271.821 387.875C272.453 390.043 272.002 392.031 273.084 392.574C274.167 393.116 278.678 390.586 278.498 387.694C278.498 387.694 279.671 390.134 282.287 390.586C284.904 391.037 285.535 389.124 285.084 386.241C284.633 383.357 284.723 381.821 284.814 378.388C284.904 374.955 285.716 371.793 284.182 367.998C282.648 364.203 280.573 360.86 276.422 361.493C272.272 362.126 269.746 367.366 267.491 369.173C265.234 370.98 264.513 375.045 265.054 379.834Z" fill="#FFBDA9"/>
<path d="M278.483 387.695C278.23 382.205 277.943 377.711 277.943 376.825C277.943 375.939 278.23 370.111 276.16 369.757C275.846 369.703 271.296 372.59 271.208 374.54C271.119 376.488 271.208 379.986 272.623 380.983C274.039 381.979 278.483 387.695 278.483 387.695Z" fill="#C97E6F"/>
<path fill-rule="evenodd" clip-rule="evenodd" d="M107.831 261.833C100.97 265.795 97.9504 267.538 90.4766 277.036C90.4766 277.036 99.4084 297.404 101.176 312.282C101.965 318.921 103.107 337.061 104.255 355.303C105.235 370.874 106.22 386.519 106.994 395.15H211.229C212.558 380.943 215.002 352.857 215.027 338.141C215.06 319.364 218.06 305.36 220.401 294.433C222.874 282.891 224.612 274.781 221.34 268.103C219.849 265.061 212.675 261.996 205.417 258.896C203.409 258.038 201.393 257.177 199.491 256.313C198.975 256.079 198.398 255.815 197.766 255.527C187.641 250.91 163.575 239.934 157.331 241.435C150.7 243.029 118.51 255.604 110.021 260.563C109.246 261.016 108.519 261.435 107.831 261.833Z" fill="#3E96F4"/>
<path d="M220.972 288.46C220.936 285.9 221.209 283.386 221.553 280.881C221.929 278.381 222.379 275.893 223.139 273.448C223.176 276.008 222.904 278.523 222.558 281.027C222.18 283.526 221.73 286.015 220.972 288.46Z" fill="#3380C4"/>
<path d="M183.168 273.249C187.073 271.788 196.326 274.328 198.018 274.918C199.709 275.507 197.023 268.268 196.028 267.371C195.034 266.475 193.442 264.387 190.391 265.332C187.34 266.276 184.776 269.774 184.333 270.925C183.89 272.076 183.168 273.249 183.168 273.249Z" fill="#1B72B2"/>
<path d="M150.636 279.293C152.029 279.227 160.153 275.485 162.099 274.555C164.044 273.625 172.857 273.191 178.775 274.847C178.775 274.847 167.383 267.138 160.75 267.205C154.117 267.271 151.597 269.663 151.066 271.788C150.537 273.913 150.636 279.293 150.636 279.293Z" fill="#1B72B2"/>
<path fill-rule="evenodd" clip-rule="evenodd" d="M180.669 387.146C188.353 387.212 193.786 387.259 194.091 387.558C194.765 388.216 203.999 388.875 210.917 389.281C210.818 391.633 210.735 393.79 210.665 395.682H107.053C106.272 387.175 105.266 371.192 104.265 355.288C103.117 337.052 101.976 318.92 101.187 312.282C100.907 309.931 100.448 307.443 99.875 304.921C108.372 295.805 118.308 290.851 118.308 290.851L123.548 293.773L128.026 302.798C128.026 302.798 121.913 334.388 123.548 345.847C124.078 349.566 135.22 362.208 142.914 364.724C142.914 364.724 131.376 366.493 123.43 362.243C123.43 362.243 124.342 374.805 125.669 381.713C126.623 386.68 161.012 386.976 180.669 387.146Z" fill="#1B72B2"/>
<path d="M180.681 275.176C173.559 274.316 162.111 268.136 157.601 270.261C153.091 272.386 152.03 277.833 151.101 278.763C150.173 279.693 146.193 275.044 146.193 263.62C146.193 252.196 145.843 240.498 154.242 238.908C162.642 237.318 184.396 245.554 188.773 248.875C193.151 252.196 195.008 255.559 196.201 258.792C197.395 262.025 200.579 275.044 199.12 275.177C197.661 275.31 193.549 266.808 190.498 266.543C187.446 266.275 182.611 275.409 180.681 275.176Z" fill="#3E96F4"/>
<path d="M184.731 264.947C186.547 260.631 188.536 256.844 188.47 253.855C188.404 250.866 187.741 248.807 184.425 247.877C181.109 246.947 179.716 248.741 179.517 253.257C179.317 257.774 184.731 264.947 184.731 264.947Z" fill="#1B72B2"/>
<path d="M158.737 256.899C151.803 250.6 151.018 243.56 151.669 242.099C152.32 240.638 155.184 239.575 155.184 239.575C155.184 239.575 156.312 244.158 155.648 245.287C154.986 246.416 158.737 256.899 158.737 256.899Z" fill="#1B72B2"/>
<path d="M169.764 272.125C167.995 271.582 166.215 271.088 164.406 270.77C162.612 270.432 160.767 270.187 159.001 270.396C158.13 270.505 157.27 270.754 156.67 271.257C156.095 271.835 155.44 272.585 154.881 273.265C153.713 274.638 152.918 276.245 152.115 277.928C152.005 278.142 151.892 278.359 151.743 278.582C151.589 278.799 151.429 279.053 151.05 279.244C150.861 279.334 150.608 279.367 150.398 279.318C150.197 279.269 150.029 279.181 149.906 279.089C149.65 278.903 149.476 278.701 149.314 278.501C148.705 277.692 148.287 276.858 147.875 276.012C147.041 274.288 146.577 272.418 146.33 270.569C145.82 266.858 145.825 263.123 146.19 259.434C146.216 261.287 146.268 263.134 146.426 264.973C146.554 266.811 146.753 268.643 147.1 270.44C147.455 272.235 147.903 273.998 148.737 275.587C149.152 276.393 149.575 277.22 150.092 277.882C150.22 278.042 150.359 278.186 150.479 278.271C150.622 278.36 150.616 278.338 150.63 278.332C150.753 278.291 151.031 277.848 151.209 277.47C152.01 275.83 152.879 274.086 154.143 272.65C154.78 271.921 155.352 271.281 156.102 270.572C156.952 269.898 157.974 269.691 158.925 269.619C160.852 269.495 162.708 269.845 164.514 270.284C166.312 270.772 168.074 271.365 169.764 272.125Z" fill="#1B72B2"/>
<path d="M186.102 269.742C186.703 268.905 187.402 268.146 188.161 267.428C188.554 267.082 188.965 266.751 189.447 266.479C189.694 266.347 189.961 266.237 190.27 266.174C190.433 266.164 190.605 266.145 190.78 266.179C190.954 266.228 191.168 266.306 191.251 266.365C192.167 266.85 193.053 267.481 193.819 268.214C194.586 268.951 195.247 269.778 195.85 270.63C196.452 271.504 196.931 272.395 197.53 273.167C197.82 273.559 198.138 273.936 198.477 274.225C198.639 274.365 198.839 274.48 198.925 274.487C198.975 274.503 198.951 274.492 198.975 274.494C198.992 274.482 199.042 274.437 199.073 274.349C199.219 274.004 199.228 273.475 199.226 272.993C199.219 272.497 199.18 271.994 199.123 271.489C199.039 270.475 198.856 269.468 198.719 268.447C199.08 269.413 199.361 270.4 199.614 271.407C199.732 271.911 199.824 272.424 199.89 272.949C199.939 273.481 199.999 274.004 199.813 274.634C199.763 274.788 199.676 274.969 199.502 275.127C199.329 275.283 199.044 275.37 198.838 275.336C198.41 275.285 198.169 275.093 197.929 274.926C197.472 274.571 197.111 274.172 196.773 273.76C196.094 272.928 195.591 272.011 195.017 271.209C193.886 269.548 192.555 268.097 190.845 267.041C190.72 266.948 190.68 266.965 190.616 266.922C190.546 266.901 190.454 266.908 190.365 266.899C190.167 266.924 189.956 266.99 189.736 267.074C189.302 267.26 188.88 267.53 188.469 267.814C187.635 268.38 186.87 269.061 186.102 269.742Z" fill="#1B6BB2"/>
<path d="M185.704 238.998C185.689 241.805 185.577 244.604 185.286 247.396C184.571 254.246 185.272 263.281 184.731 264.947C184.128 266.807 180.547 273.449 180.547 273.449C180.547 273.449 174.18 270.526 171.526 267.339C168.874 264.15 165.425 263.99 160.782 259.288C156.139 254.587 152.983 247.12 154.017 240.904C154.149 240.108 154.965 232.151 155.145 223.915C155.325 215.68 163.966 209.422 172.19 209.422C180.413 209.422 185.337 221.643 185.595 229.879C185.7 233.257 185.72 236.43 185.704 238.998Z" fill="#FFBDA9"/>
<path d="M155.144 223.913C154.964 232.149 154.15 240.106 154.016 240.903C153.696 242.825 153.78 244.866 154.181 246.908C156.001 247.244 179.423 247.81 185.491 244.981C185.629 242.991 185.693 240.997 185.705 238.999C185.719 236.431 185.701 233.258 185.594 229.878C185.485 226.386 184.534 222.182 182.852 218.493L163.584 211.654C158.855 214.18 155.259 218.635 155.144 223.913Z" fill="#C97E6F"/>
<path d="M215.846 195.273C215.111 199.639 212.953 201.309 211.989 207.195C211.025 213.082 213.596 221.637 209.762 229.087C205.927 236.537 199.728 246.334 196.146 246.748C192.564 247.162 163.873 242.309 154.194 223.031C151.415 217.497 145.476 195.798 150.559 182.548C155.64 169.299 163.907 157.157 183.012 156.79C202.114 156.421 219.742 172.129 215.846 195.273Z" fill="#FFBDA9"/>
<path d="M199.863 219.141C198.842 219.164 197.722 218.774 197.218 218.104C196.777 217.517 196.595 216.744 196.725 216.021C198.218 217.255 200.049 217.466 201.887 217.145C202.114 218.519 201.057 219.113 199.863 219.141Z" fill="#C97E6F"/>
<path d="M166.064 195.273C166.792 190.73 169.823 188.109 169.823 188.109C169.823 188.109 177.126 185.073 182.774 184.522C188.423 183.971 194.209 182.314 194.209 182.314C194.209 182.314 192.418 186.857 189.387 188.793C189.387 188.793 202.888 188.108 207.16 184.108C207.16 184.108 206.333 187.405 205.507 189.62C205.507 189.62 212.121 188.937 214.187 186.316C214.187 186.316 215.84 192.088 215.84 195.273C215.84 195.273 223.785 184.384 221.764 175.737C219.743 167.09 216.988 163.78 216.988 163.78C216.988 163.78 222.682 164.331 225.805 163.78C225.805 163.78 218.457 157.341 212.946 153.11C207.434 148.878 190.901 148.694 190.901 148.694C190.901 148.694 189.387 148.694 185.121 148.695C185.121 148.695 180.416 148.057 172.183 149.639C166.064 150.815 169.534 149.986 161.596 151.992C153.659 153.998 148.886 157.713 145.717 161.99C142.188 166.753 141.6 170.812 141.6 170.812C141.6 170.812 141.012 178.457 142.188 184.927C142.188 184.927 143.779 201.05 149.246 213.157C154.712 225.263 155.127 207.275 156.303 198.454C159.244 189.62 166.064 195.273 166.064 195.273Z" fill="#31393C"/>
<path d="M187.968 223.115C191.33 224.97 202.315 225.587 203.063 225.485C203.811 225.382 202.276 233.735 199.585 234.044C196.895 234.353 191.515 233.632 189.273 231.468C187.031 229.304 187.968 223.115 187.968 223.115Z" fill="#C97E6F"/>
<path d="M188.672 225.549C188.879 224.809 189.041 224.214 189.197 223.635C192.897 224.899 200.18 225.434 202.425 225.488C202.242 226.605 201.921 227.736 201.466 228.847C201.395 228.801 201.484 228.954 201.413 228.908C196.565 229.673 191.632 228.099 188.672 225.549Z" fill="white"/>
<path d="M189.454 203.148C189.454 201.624 188.703 200.389 187.778 200.389C186.852 200.389 186.102 201.624 186.102 203.148C186.102 204.672 186.852 205.907 187.778 205.907C188.703 205.907 189.454 204.672 189.454 203.148Z" fill="#31393C"/>
<path d="M208.636 204.435C208.636 202.911 207.991 201.676 207.194 201.676C206.399 201.676 205.754 202.911 205.754 204.435C205.754 205.959 206.399 207.194 207.194 207.194C207.991 207.195 208.636 205.959 208.636 204.435Z" fill="#31393C"/>
<path d="M180.074 192.39C181.219 191.759 182.452 191.323 183.718 190.959C184.989 190.617 186.308 190.416 187.646 190.369C188.976 190.302 190.383 190.265 191.671 190.762C192.962 191.208 194.133 192.021 194.996 193.092L194.898 193.256C193.515 193.106 192.372 192.767 191.164 192.607C189.984 192.43 188.839 191.998 187.606 191.898C185.167 191.69 182.611 191.884 180.151 192.564L180.074 192.39Z" fill="#31393C"/>
<path d="M213.479 195.956C212.882 195.724 212.253 195.579 211.626 195.505C211.002 195.421 210.378 195.391 209.76 195.383C209.136 195.375 208.518 195.598 207.91 195.448C207.603 195.379 207.291 195.32 206.971 195.187C206.65 195.077 206.322 194.935 205.97 194.688L205.949 194.497C206.549 193.911 207.227 193.661 207.916 193.536C208.612 193.405 209.301 193.684 209.969 193.868C210.642 194.044 211.3 194.279 211.919 194.595C212.527 194.933 213.123 195.286 213.596 195.805L213.479 195.956Z" fill="#31393C"/>
<path d="M194.088 394.104C194.08 394.532 194.677 395.15 196.136 395.15C197.595 395.15 236.837 395.15 242.142 395.15C247.449 395.15 248.686 393.048 247.095 390.392C245.503 387.736 238.783 381.89 222.157 377.816C205.532 373.743 196.79 383.267 194.088 387.558C192.106 390.703 194.088 394.104 194.088 394.104Z" fill="#C1C9D1"/>
<path d="M247.487 391.188C246.572 394.236 211.467 392.647 211.467 392.647C211.467 392.647 215.026 387.832 218.961 387.695C222.897 387.557 224.81 388.927 230.088 389.836C235.365 390.746 231.452 387.685 231.452 387.685C231.452 387.685 235.18 386.858 236.699 385.68C236.699 385.68 228.004 383.107 224.356 382.509C220.708 381.911 211.422 382.31 210.229 382.509C209.384 382.65 205.1 380.158 199.921 381.409C197.031 383.523 195.119 385.92 194.088 387.557C192.106 390.704 194.088 394.104 194.088 394.104C194.08 394.531 194.677 395.15 196.136 395.15C197.595 395.15 236.837 395.15 242.142 395.15C246.903 395.149 248.381 393.455 247.487 391.188Z" fill="#808A91"/>
<path d="M97.3387 365.299C97.3387 365.299 130.056 370.365 147.79 373.543C164.589 376.554 179.095 377.86 183.207 377.063C187.32 376.267 201.38 371.085 205.891 369.226C210.4 367.366 219.42 366.304 224.063 367.765C228.706 369.226 232.508 370.82 234.365 370.82C236.222 370.82 235.869 373.831 233.392 374.451C230.916 375.07 228.706 374.982 228.706 374.982C228.706 374.982 237.106 379.587 238.61 380.03C240.113 380.474 238.333 383.219 236.298 383.042C236.298 383.042 238.079 384.105 237.46 385.167C236.841 386.23 232.419 386.23 232.419 386.23C232.419 386.23 237.813 388.886 233.303 389.949C228.793 391.012 223.399 385.964 221.187 385.522C218.976 385.079 213.847 385.345 211.371 387.205C208.896 389.064 198.283 397.655 183.78 392.518C183.78 392.518 85.3428 396.513 75.5271 396.513C65.7114 396.513 59.7826 387.824 62.9298 371.086C66.0771 354.349 72.1787 341.861 72.1787 341.861L106.136 344.252L97.3387 365.299Z" fill="#FFBDA9"/>
<path d="M220.943 372.322C220.077 372.117 219.386 371.998 218.953 371.972C218.953 371.972 219.793 372.116 220.943 372.322Z" fill="#C97E6F"/>
<path d="M228.696 374.982C228.696 374.982 230.906 375.07 233.382 374.451C234.078 374.277 234.6 373.91 234.959 373.478C232.205 374.697 228.816 373.919 226.959 373.476C225.788 373.196 222.911 372.671 220.945 372.32C222.915 372.784 225.801 373.691 228.696 374.982Z" fill="#C97E6F"/>
<path d="M228.277 378.967C228.065 378.87 227.885 378.795 227.769 378.758C227.769 378.758 227.96 378.838 228.277 378.967Z" fill="#C97E6F"/>
<path d="M238.598 382.003C238.566 382.031 237.595 382.888 235.551 381.998C233.848 381.256 229.717 379.558 228.277 378.968C230.089 379.791 234.996 382.565 236.303 383.041C237.208 383.12 238.06 382.62 238.598 382.003Z" fill="#C97E6F"/>
<path d="M233.506 385.254C232.002 384.811 228.863 382.907 226.94 381.996C225.017 381.086 222.562 380.98 222.562 380.98C222.562 380.98 223.292 381.046 225.215 381.996C227.138 382.946 232.413 386.228 232.413 386.228C232.413 386.228 235.25 386.227 236.696 385.679C236.682 385.68 235.002 385.696 233.506 385.254Z" fill="#C97E6F"/>
<path d="M205.522 387.424C202.737 389.152 194.513 391.409 189.604 390.479C184.695 389.55 183.634 385.431 183.634 385.431L182.264 389.859C182.264 389.859 113.995 391.807 100.111 391.182C86.3866 390.565 64.9794 390.253 62.1836 381.997C62.9506 391.578 68.1338 396.51 75.5255 396.51C85.3412 396.51 183.779 392.516 183.779 392.516C198.282 397.653 208.893 389.062 211.37 387.202C213.428 385.656 217.315 385.215 219.839 385.363C216.075 384.041 208.308 385.698 205.522 387.424Z" fill="#C97E6F"/>
<path d="M97.3398 365.299C97.3398 365.299 84.5495 363.558 81.9844 363.292L83.9298 355.322L100.113 358.599L97.3398 365.299Z" fill="#C97E6F"/>
<path d="M63.1625 342.987C62.681 344.235 62.9868 345.638 63.9417 346.573C69.8868 352.386 77.69 360.303 85.7167 361.521C94.4718 362.849 109.062 363.381 109.859 361.521C110.655 359.661 113.573 336.015 118.879 324.06C124.185 312.105 127.634 305.994 128.96 299.087C130.286 292.18 118.348 275.973 113.042 274.644C107.735 273.316 95.5324 272.519 90.4915 277.035C85.4505 281.551 81.7364 298.821 75.9 311.839C71.1922 322.343 65.2725 337.519 63.1625 342.987Z" fill="#3E96F4"/>
<path d="M95.9922 274.412C99.172 273.623 102.464 273.302 105.756 273.31C107.405 273.296 109.055 273.451 110.693 273.686C111.515 273.792 112.324 273.987 113.137 274.157C113.946 274.434 114.79 274.657 115.52 275.1C116.299 275.462 116.952 276.001 117.648 276.481C118.27 277.04 118.946 277.552 119.496 278.179C120.669 279.368 121.672 280.695 122.597 282.063C124.413 284.82 125.93 287.758 127.026 290.85C126.279 289.392 125.512 287.953 124.65 286.57C123.812 285.175 122.93 283.81 121.959 282.515C120.962 281.244 119.981 279.955 118.815 278.858C118.27 278.268 117.633 277.79 117.038 277.264C116.382 276.827 115.764 276.322 115.05 276.001C114.379 275.582 113.628 275.388 112.9 275.122C112.117 274.946 111.335 274.762 110.541 274.635C108.957 274.349 107.349 274.188 105.734 274.09C104.118 273.994 102.493 273.989 100.87 274.054C99.24 274.09 97.6166 274.225 95.9922 274.412Z" fill="#1C69AF"/>
<path d="M69.7864 347.882C69.8301 343.637 78.7813 304.72 86.6881 283.029C83.3265 290.441 80.1853 302.282 75.9012 311.838C71.1914 322.343 65.2728 337.519 63.1627 342.987C62.6812 344.234 62.9859 345.637 63.9419 346.572C66.2186 348.799 68.7705 351.333 71.5013 353.682C71.2951 353.481 69.7448 351.845 69.7864 347.882Z" fill="#1B72B2"/>
<g clip-path="url(#clip0_1_1221)">
<path fill-rule="evenodd" clip-rule="evenodd" d="M155.801 309.668L151.012 300.618C150.961 300.524 150.886 300.446 150.795 300.392C150.704 300.338 150.6 300.309 150.495 300.309C150.389 300.309 150.285 300.338 150.195 300.392C150.104 300.446 150.029 300.524 149.978 300.618L145.188 309.668C145.14 309.758 145.116 309.86 145.118 309.964C145.12 310.067 145.149 310.167 145.201 310.256C145.253 310.345 145.327 310.418 145.415 310.47C145.504 310.521 145.604 310.548 145.706 310.549H146.672C146.883 310.548 147.09 310.49 147.272 310.381C147.453 310.272 147.603 310.116 147.706 309.929L148.371 308.662H152.602L153.269 309.929C153.369 310.118 153.518 310.276 153.701 310.385C153.883 310.494 154.091 310.551 154.303 310.549H155.269C155.371 310.549 155.472 310.523 155.562 310.472C155.651 310.421 155.726 310.348 155.78 310.26C155.833 310.171 155.863 310.07 155.867 309.966C155.871 309.863 155.848 309.76 155.801 309.668ZM149.283 306.956L149.978 305.634C150.029 305.54 150.104 305.462 150.195 305.408C150.285 305.354 150.389 305.325 150.495 305.325C150.6 305.325 150.704 305.354 150.795 305.408C150.886 305.462 150.961 305.54 151.012 305.634L151.706 306.956H149.284H149.283Z" fill="#1E0B4B"/>
<path fill-rule="evenodd" clip-rule="evenodd" d="M200.179 309.668L195.39 300.618C195.339 300.524 195.264 300.446 195.173 300.392C195.082 300.338 194.979 300.309 194.873 300.309C194.768 300.309 194.664 300.338 194.573 300.392C194.482 300.446 194.407 300.524 194.356 300.618L189.566 309.668C189.518 309.758 189.494 309.86 189.496 309.964C189.498 310.067 189.527 310.167 189.579 310.256C189.631 310.345 189.705 310.418 189.793 310.47C189.882 310.521 189.982 310.548 190.084 310.549H191.05C191.261 310.548 191.468 310.49 191.65 310.381C191.832 310.272 191.981 310.116 192.084 309.929L192.749 308.662H196.98L197.645 309.929C197.746 310.118 197.895 310.275 198.077 310.385C198.26 310.494 198.468 310.551 198.68 310.549H199.646C199.748 310.549 199.849 310.523 199.939 310.472C200.029 310.422 200.104 310.349 200.157 310.26C200.211 310.172 200.241 310.071 200.245 309.967C200.249 309.863 200.226 309.76 200.179 309.668ZM193.649 306.956L194.343 305.634C194.394 305.54 194.469 305.462 194.56 305.408C194.651 305.354 194.754 305.325 194.86 305.325C194.965 305.325 195.069 305.354 195.16 305.408C195.251 305.462 195.326 305.54 195.377 305.634L196.071 306.956H193.649H193.649Z" fill="#1E0B4B"/>
<path fill-rule="evenodd" clip-rule="evenodd" d="M143.488 307.381C143.514 307.82 143.443 308.259 143.281 308.666C143.118 309.074 142.869 309.44 142.55 309.737C141.92 310.31 141.094 310.611 140.249 310.577C139.269 310.576 138.295 310.413 137.367 310.095C136.306 309.736 136.185 309.199 136.185 308.827V308.635C136.188 308.296 136.277 307.964 136.444 307.671C137.954 308.332 139.056 308.649 139.818 308.649H139.99C140.97 308.58 141.473 308.249 141.473 307.671C141.469 307.419 141.388 307.174 141.242 306.97C141.096 306.765 140.892 306.611 140.657 306.528C140.107 306.28 139.544 306.063 138.97 305.88C138.071 305.578 137.854 305.412 137.813 305.357L137.786 305.33L137.759 305.302C137.42 305.085 137.148 304.776 136.973 304.412C136.797 304.047 136.726 303.64 136.766 303.236C136.755 302.806 136.833 302.378 136.995 301.979C137.156 301.581 137.398 301.221 137.704 300.922C138.328 300.335 139.152 300.014 140.004 300.027H140.101C140.999 300.027 142.142 300.344 143.516 300.962C143.462 301.182 143.407 301.43 143.325 301.664C143.312 301.692 143.298 301.733 143.284 301.761C143.135 302.16 142.917 302.477 142.619 302.477C142.564 302.481 142.508 302.472 142.456 302.45C141.639 302.112 140.776 301.904 139.897 301.832C139.735 301.816 139.572 301.835 139.419 301.89C139.267 301.945 139.127 302.033 139.012 302.149C138.933 302.235 138.873 302.337 138.838 302.449C138.803 302.561 138.793 302.68 138.808 302.796C138.808 303.113 138.958 303.54 139.598 303.898C140.142 304.176 140.706 304.415 141.283 304.613C141.707 304.742 142.118 304.913 142.509 305.123C142.838 305.394 143.098 305.74 143.268 306.132C143.439 306.525 143.514 306.953 143.488 307.381Z" fill="#1E0B4B"/>
<path fill-rule="evenodd" clip-rule="evenodd" d="M166.793 300.344V309.543C166.793 310.067 166.643 310.548 165.611 310.548C165.406 310.562 165.201 310.526 165.012 310.445C164.823 310.364 164.655 310.239 164.522 310.08L160.943 305.77L160.222 304.902V309.543C160.222 310.067 160.072 310.549 159.039 310.549H157.843V300.358H159.067C159.276 300.336 159.487 300.369 159.68 300.454C159.872 300.538 160.041 300.671 160.169 300.84L160.182 300.853L160.169 300.867L163.692 305.109L164.413 305.977V301.349C164.413 300.826 164.563 300.344 165.583 300.344H166.794L166.793 300.344Z" fill="#1E0B4B"/>
<path fill-rule="evenodd" clip-rule="evenodd" d="M176.67 307.381C176.696 307.82 176.625 308.259 176.463 308.666C176.3 309.074 176.05 309.44 175.731 309.737C175.102 310.31 174.277 310.611 173.432 310.577C172.451 310.576 171.477 310.414 170.548 310.096C169.487 309.737 169.366 309.2 169.366 308.828V308.58C169.371 308.259 169.461 307.945 169.624 307.671C171.134 308.332 172.236 308.648 172.998 308.648H173.175C174.155 308.58 174.658 308.249 174.658 307.671C174.65 307.417 174.566 307.173 174.418 306.969C174.27 306.765 174.064 306.611 173.828 306.527C173.279 306.277 172.716 306.061 172.141 305.88C171.243 305.577 171.025 305.412 170.985 305.356L170.957 305.329L170.93 305.301C170.592 305.076 170.321 304.762 170.143 304.394C169.966 304.026 169.89 303.616 169.923 303.207C169.913 302.777 169.991 302.349 170.153 301.951C170.314 301.552 170.556 301.192 170.862 300.894C171.486 300.307 172.309 299.987 173.16 300H173.255C174.153 300 175.296 300.317 176.67 300.935C176.618 301.208 176.541 301.475 176.439 301.734C176.425 301.761 176.412 301.802 176.398 301.83C176.248 302.174 176.044 302.45 175.772 302.45C175.716 302.452 175.661 302.443 175.609 302.422C174.793 302.084 173.93 301.875 173.051 301.803C172.89 301.786 172.727 301.806 172.574 301.861C172.421 301.915 172.282 302.004 172.167 302.119C172.087 302.205 172.028 302.308 171.993 302.42C171.957 302.532 171.947 302.65 171.963 302.767C171.963 303.083 172.11 303.511 172.752 303.868C173.297 304.146 173.861 304.386 174.439 304.585C174.863 304.713 175.273 304.884 175.663 305.094C175.999 305.367 176.266 305.716 176.441 306.114C176.616 306.512 176.695 306.947 176.67 307.381Z" fill="#1E0B4B"/>
<path fill-rule="evenodd" clip-rule="evenodd" d="M187.649 309.544C187.631 309.699 187.581 309.848 187.504 309.983C187.427 310.118 187.324 310.236 187.2 310.329C187.003 310.524 186.741 310.637 186.465 310.646C186.42 310.648 186.374 310.643 186.33 310.632C186.145 310.599 185.969 310.528 185.812 310.424C185.656 310.319 185.521 310.184 185.418 310.026V310.012L185.405 309.998L182.33 306.528L181.624 305.729V309.543C181.624 310.053 181.488 310.535 180.508 310.549H179.257V300.358H181.638V305.123L182.345 304.324L185.419 300.868L185.433 300.854V300.84C185.647 300.526 185.974 300.308 186.345 300.234C186.385 300.234 186.44 300.22 186.481 300.22C186.616 300.222 186.749 300.251 186.873 300.305C186.997 300.359 187.108 300.438 187.202 300.537C187.228 300.556 187.25 300.579 187.27 300.605L187.338 300.674C187.507 300.85 187.612 301.078 187.637 301.322C187.622 301.662 187.476 301.983 187.231 302.217L184.687 305.136L184.442 305.412L184.673 305.687L187.231 308.634C187.48 308.872 187.63 309.197 187.649 309.544Z" fill="#1E0B4B"/>
<path fill-rule="evenodd" clip-rule="evenodd" d="M209.539 308.552L209.526 308.525L208.07 306.514L207.798 306.143L208.192 305.909C209.145 305.358 209.621 304.476 209.621 303.209C209.607 302.477 209.326 301.775 208.832 301.24C208.601 300.953 208.308 300.723 207.975 300.568C207.643 300.413 207.279 300.336 206.913 300.345H202.111V310.536H203.336C204.356 310.522 204.492 310.054 204.492 309.53V305.509L205.227 306.528L207.744 310.012C207.852 310.172 207.991 310.307 208.152 310.411C208.314 310.515 208.494 310.586 208.682 310.618H208.723C209.04 310.611 209.345 310.489 209.58 310.274C209.7 310.191 209.799 310.083 209.872 309.957C209.945 309.831 209.989 309.69 210.002 309.544C209.968 309.169 209.804 308.817 209.539 308.552ZM205.811 305.082H204.478V301.749H205.811C206.927 301.749 207.58 302.355 207.58 303.415C207.58 304.476 206.927 305.082 205.811 305.082Z" fill="#1E0B4B"/>
<path fill-rule="evenodd" clip-rule="evenodd" d="M138.245 320.755C138.281 320.79 138.324 320.816 138.371 320.833C138.418 320.85 138.467 320.856 138.517 320.852C138.564 320.856 138.612 320.85 138.657 320.833C138.702 320.816 138.742 320.79 138.776 320.755C138.809 320.721 138.834 320.68 138.851 320.634C138.867 320.589 138.874 320.541 138.871 320.493V315.948C138.866 315.851 138.881 315.754 138.916 315.664C138.951 315.573 139.005 315.492 139.075 315.425C139.143 315.357 139.224 315.303 139.313 315.268C139.401 315.232 139.496 315.216 139.592 315.218H140.721C140.806 315.221 140.888 315.191 140.953 315.136C140.982 315.102 141.004 315.063 141.018 315.02C141.032 314.977 141.038 314.932 141.034 314.888C141.04 314.845 141.036 314.801 141.022 314.76C141.008 314.72 140.984 314.683 140.953 314.654C140.923 314.623 140.886 314.6 140.846 314.586C140.806 314.571 140.764 314.566 140.721 314.571H136.313C136.228 314.569 136.146 314.598 136.082 314.654C136.052 314.687 136.03 314.727 136.016 314.769C136.002 314.812 135.997 314.857 136 314.902C135.994 314.944 135.998 314.988 136.013 315.029C136.027 315.069 136.05 315.106 136.082 315.136C136.112 315.166 136.148 315.189 136.188 315.203C136.228 315.218 136.271 315.223 136.313 315.218H137.429C137.524 315.213 137.62 315.229 137.71 315.264C137.799 315.3 137.879 315.355 137.946 315.425C138.072 315.569 138.14 315.756 138.136 315.948V320.493C138.141 320.591 138.179 320.683 138.245 320.755Z" fill="#2A2A2D"/>
<path fill-rule="evenodd" clip-rule="evenodd" d="M142.776 314.543C142.729 314.539 142.681 314.546 142.636 314.563C142.591 314.579 142.551 314.606 142.517 314.64C142.484 314.674 142.458 314.715 142.441 314.76C142.425 314.805 142.418 314.854 142.422 314.902V314.833C142.418 314.794 142.423 314.755 142.437 314.719C142.451 314.683 142.473 314.651 142.502 314.625C142.531 314.597 142.565 314.575 142.602 314.561C142.64 314.546 142.68 314.54 142.72 314.543L142.776 314.543Z" fill="#2A2A2D"/>
<path fill-rule="evenodd" clip-rule="evenodd" d="M142.735 320.851H142.708C142.668 320.853 142.628 320.847 142.59 320.833C142.553 320.818 142.518 320.796 142.49 320.768C142.443 320.715 142.419 320.646 142.422 320.575C142.429 320.642 142.457 320.705 142.503 320.754C142.532 320.787 142.568 320.813 142.608 320.83C142.648 320.846 142.692 320.854 142.735 320.851Z" fill="#2A2A2D"/>
<path fill-rule="evenodd" clip-rule="evenodd" d="M146.313 320.479V320.507C146.316 320.464 146.31 320.422 146.296 320.381C146.282 320.341 146.26 320.304 146.231 320.272C146.201 320.242 146.165 320.219 146.125 320.205C146.085 320.19 146.042 320.185 146 320.19H146.027C146.065 320.186 146.104 320.191 146.139 320.206C146.175 320.22 146.206 320.243 146.231 320.272C146.282 320.329 146.312 320.403 146.313 320.479Z" fill="#2A2A2D"/>
<path fill-rule="evenodd" clip-rule="evenodd" d="M146.313 320.506V320.547C146.316 320.588 146.309 320.629 146.295 320.667C146.281 320.705 146.259 320.739 146.231 320.768C146.205 320.795 146.173 320.817 146.138 320.831C146.102 320.845 146.065 320.852 146.027 320.851H146C146.042 320.854 146.084 320.848 146.124 320.834C146.164 320.82 146.2 320.797 146.231 320.768C146.289 320.693 146.318 320.6 146.313 320.506Z" fill="#2A2A2D"/>
<path fill-rule="evenodd" clip-rule="evenodd" d="M152.135 314.763C151.702 314.535 151.222 314.413 150.734 314.405C150.252 314.394 149.773 314.493 149.333 314.694C148.953 314.874 148.611 315.127 148.326 315.438C148.055 315.74 147.851 316.097 147.727 316.485C147.594 316.875 147.525 317.284 147.523 317.697C147.523 318.11 147.592 318.52 147.727 318.909C147.858 319.294 148.062 319.649 148.326 319.956C148.611 320.267 148.953 320.52 149.333 320.7C149.773 320.902 150.251 321.001 150.734 320.989C151.004 320.993 151.273 320.965 151.537 320.907C151.756 320.853 151.966 320.77 152.163 320.659C152.202 320.638 152.235 320.609 152.261 320.573C152.287 320.537 152.305 320.496 152.312 320.452C152.322 320.349 152.293 320.245 152.231 320.163C152.198 320.114 152.153 320.074 152.1 320.048C152.048 320.021 151.99 320.009 151.931 320.012C151.843 320.017 151.756 320.036 151.673 320.066C151.54 320.123 151.404 320.169 151.265 320.204C151.094 320.233 150.921 320.247 150.747 320.246C150.265 320.265 149.789 320.13 149.387 319.86C149.042 319.616 148.762 319.289 148.57 318.91C148.391 318.527 148.299 318.108 148.299 317.684C148.299 317.26 148.391 316.842 148.57 316.459C148.749 316.071 149.032 315.741 149.387 315.508C149.79 315.24 150.265 315.105 150.747 315.123C150.912 315.119 151.077 315.138 151.237 315.178C151.376 315.213 151.513 315.259 151.645 315.315C151.731 315.355 151.823 315.379 151.917 315.384C151.977 315.386 152.036 315.371 152.089 315.342C152.141 315.313 152.185 315.271 152.217 315.219C152.251 315.183 152.276 315.139 152.29 315.091C152.304 315.043 152.307 314.992 152.298 314.943C152.285 314.903 152.264 314.867 152.236 314.836C152.208 314.805 152.173 314.78 152.135 314.763Z" fill="#2A2A2D"/>
<path fill-rule="evenodd" clip-rule="evenodd" d="M158.652 320.754C158.688 320.789 158.731 320.816 158.778 320.832C158.825 320.849 158.875 320.855 158.924 320.851C158.972 320.855 159.02 320.849 159.064 320.832C159.109 320.816 159.15 320.789 159.183 320.754C159.216 320.72 159.242 320.679 159.258 320.634C159.274 320.589 159.281 320.541 159.278 320.493V314.915C159.281 314.867 159.274 314.819 159.258 314.774C159.242 314.728 159.216 314.687 159.183 314.653C159.106 314.591 159.01 314.557 158.911 314.557C158.812 314.557 158.716 314.591 158.639 314.653C158.606 314.687 158.58 314.729 158.564 314.774C158.547 314.819 158.541 314.867 158.544 314.915V316.622C158.548 316.721 158.533 316.82 158.497 316.912C158.462 317.005 158.408 317.089 158.339 317.159C158.27 317.229 158.187 317.283 158.096 317.319C158.004 317.355 157.907 317.371 157.809 317.366H155.714C155.513 317.371 155.317 317.297 155.169 317.159C155.101 317.089 155.048 317.004 155.013 316.912C154.978 316.82 154.962 316.721 154.965 316.622V314.915C154.969 314.867 154.962 314.819 154.945 314.774C154.929 314.729 154.903 314.687 154.87 314.653C154.834 314.618 154.791 314.592 154.744 314.575C154.698 314.559 154.648 314.552 154.598 314.557C154.551 314.553 154.503 314.559 154.459 314.576C154.414 314.593 154.373 314.619 154.34 314.653C154.306 314.687 154.28 314.728 154.264 314.773C154.247 314.818 154.241 314.866 154.244 314.914V317.435V317.449V320.478C154.241 320.526 154.247 320.574 154.264 320.619C154.28 320.664 154.306 320.705 154.34 320.739C154.373 320.773 154.414 320.8 154.459 320.816C154.503 320.833 154.551 320.839 154.598 320.836H154.612C154.659 320.839 154.707 320.833 154.751 320.816C154.796 320.8 154.836 320.773 154.87 320.739C154.904 320.705 154.93 320.664 154.946 320.619C154.963 320.574 154.969 320.526 154.965 320.478V318.013H157.81C157.908 318.008 158.006 318.024 158.097 318.06C158.188 318.095 158.271 318.15 158.341 318.22C158.41 318.29 158.464 318.374 158.499 318.467C158.534 318.559 158.55 318.658 158.545 318.757V320.465C158.544 320.572 158.582 320.675 158.652 320.754Z" fill="#2A2A2D"/>
<path fill-rule="evenodd" clip-rule="evenodd" d="M166.121 320.836C166.13 320.825 166.135 320.81 166.135 320.795V314.915C166.138 314.867 166.131 314.819 166.114 314.774C166.098 314.729 166.072 314.687 166.039 314.653C166.003 314.618 165.961 314.592 165.914 314.575C165.867 314.559 165.817 314.552 165.767 314.557C165.72 314.553 165.672 314.559 165.628 314.576C165.583 314.593 165.543 314.619 165.509 314.653C165.475 314.687 165.449 314.728 165.433 314.773C165.416 314.818 165.41 314.866 165.414 314.914V318.027C165.414 318.467 165.182 318.523 165.074 318.523C165 318.515 164.928 318.493 164.863 318.458C164.797 318.422 164.739 318.374 164.692 318.316L161.305 314.639C161.286 314.613 161.262 314.592 161.234 314.577C161.205 314.563 161.174 314.556 161.142 314.557V320.493C161.139 320.541 161.146 320.589 161.162 320.634C161.178 320.679 161.204 320.72 161.237 320.754C161.273 320.789 161.316 320.816 161.363 320.832C161.41 320.849 161.46 320.855 161.509 320.851C161.556 320.855 161.604 320.848 161.649 320.832C161.693 320.815 161.734 320.789 161.768 320.755C161.801 320.721 161.827 320.68 161.844 320.635C161.86 320.589 161.866 320.541 161.863 320.493V316.292L162.217 316.677L166.026 320.823C166.026 320.836 166.039 320.836 166.08 320.836C166.086 320.841 166.093 320.843 166.101 320.843C166.108 320.843 166.115 320.841 166.121 320.836Z" fill="#2A2A2D"/>
<path fill-rule="evenodd" clip-rule="evenodd" d="M173.25 315.218C172.954 314.944 172.607 314.734 172.23 314.598C171.85 314.462 171.45 314.392 171.048 314.392C170.64 314.392 170.235 314.462 169.85 314.598C169.471 314.73 169.124 314.941 168.83 315.218C168.519 315.506 168.274 315.858 168.109 316.251C167.921 316.709 167.828 317.201 167.837 317.697C167.829 318.196 167.921 318.693 168.109 319.155C168.27 319.545 168.517 319.894 168.83 320.174C169.126 320.448 169.473 320.658 169.85 320.794C170.235 320.932 170.64 321.001 171.048 321.001C171.45 320.999 171.85 320.929 172.23 320.794C172.609 320.661 172.956 320.45 173.25 320.174C173.557 319.888 173.803 319.541 173.971 319.155C174.334 318.221 174.334 317.183 173.971 316.249C173.806 315.857 173.56 315.505 173.25 315.218ZM173.332 318.812C173.192 319.112 172.998 319.383 172.76 319.611C172.529 319.834 172.249 319.999 171.944 320.093C171.65 320.191 171.342 320.242 171.032 320.244C170.723 320.243 170.415 320.192 170.121 320.093C169.823 319.99 169.55 319.826 169.318 319.611C169.08 319.383 168.886 319.112 168.747 318.812C168.593 318.462 168.518 318.08 168.529 317.697C168.521 317.313 168.595 316.933 168.747 316.581C168.883 316.278 169.077 316.006 169.318 315.781C169.547 315.561 169.821 315.396 170.121 315.299C170.415 315.201 170.723 315.15 171.032 315.147C171.342 315.151 171.649 315.202 171.944 315.299C172.244 315.405 172.521 315.568 172.76 315.781C172.999 316.008 173.192 316.279 173.332 316.579C173.622 317.294 173.622 318.097 173.332 318.812Z" fill="#2A2A2D"/>
<path fill-rule="evenodd" clip-rule="evenodd" d="M170.624 318.137C170.562 318.082 170.512 318.014 170.476 317.938C170.441 317.863 170.422 317.78 170.42 317.696C170.421 317.616 170.439 317.537 170.472 317.463C170.504 317.39 170.552 317.324 170.611 317.27L170.624 317.256C170.679 317.197 170.744 317.15 170.816 317.117C170.889 317.084 170.967 317.065 171.046 317.063C171.126 317.063 171.205 317.08 171.278 317.113C171.35 317.146 171.415 317.195 171.468 317.256C171.53 317.311 171.581 317.379 171.616 317.454C171.651 317.53 171.67 317.613 171.672 317.696C171.671 317.777 171.653 317.857 171.621 317.93C171.588 318.004 171.54 318.069 171.481 318.124C171.427 318.187 171.36 318.238 171.285 318.273C171.21 318.309 171.129 318.328 171.046 318.33C170.966 318.332 170.886 318.316 170.813 318.282C170.74 318.249 170.676 318.199 170.624 318.137Z" fill="#2A2A2D"/>
<path fill-rule="evenodd" clip-rule="evenodd" d="M175.944 320.533C175.939 320.576 175.944 320.619 175.958 320.66C175.973 320.7 175.995 320.737 176.026 320.768C176.056 320.798 176.092 320.821 176.132 320.835C176.172 320.85 176.215 320.855 176.257 320.85H179.508C179.592 320.853 179.675 320.823 179.739 320.768C179.768 320.734 179.791 320.694 179.805 320.652C179.819 320.609 179.824 320.564 179.821 320.52C179.827 320.477 179.822 320.433 179.808 320.392C179.794 320.352 179.77 320.315 179.739 320.286C179.709 320.255 179.673 320.232 179.633 320.218C179.593 320.203 179.55 320.198 179.508 320.203H176.663V314.915C176.666 314.867 176.66 314.819 176.643 314.774C176.627 314.729 176.601 314.687 176.568 314.653C176.532 314.618 176.489 314.592 176.442 314.575C176.395 314.559 176.346 314.552 176.296 314.556C176.249 314.553 176.201 314.559 176.156 314.576C176.112 314.592 176.071 314.619 176.037 314.653C176.004 314.687 175.978 314.728 175.962 314.773C175.945 314.818 175.939 314.866 175.942 314.914V320.52V320.533H175.944Z" fill="#2A2A2D"/>
<path fill-rule="evenodd" clip-rule="evenodd" d="M143.156 315.204V317.366H146.027C146.065 317.362 146.103 317.368 146.139 317.382C146.174 317.397 146.206 317.419 146.231 317.449C146.259 317.478 146.281 317.512 146.295 317.55C146.309 317.588 146.315 317.629 146.312 317.669V317.738C146.316 317.777 146.311 317.816 146.297 317.852C146.282 317.888 146.26 317.92 146.231 317.945C146.174 317.994 146.102 318.023 146.027 318.028H143.156V320.19H146.001C146.043 320.184 146.086 320.188 146.126 320.202C146.167 320.217 146.203 320.241 146.232 320.272C146.262 320.303 146.285 320.34 146.299 320.38C146.313 320.421 146.318 320.464 146.314 320.506C146.317 320.551 146.312 320.596 146.298 320.639C146.283 320.681 146.261 320.721 146.232 320.754C146.202 320.785 146.166 320.808 146.126 320.822C146.086 320.837 146.043 320.842 146.001 320.837H142.75C142.707 320.844 142.664 320.839 142.623 320.825C142.582 320.811 142.546 320.786 142.517 320.754C142.471 320.705 142.442 320.642 142.435 320.575V320.493V314.915C142.431 314.867 142.438 314.818 142.454 314.773C142.471 314.728 142.497 314.687 142.53 314.653C142.564 314.619 142.605 314.593 142.649 314.576C142.694 314.56 142.742 314.553 142.789 314.557H146.027C146.065 314.553 146.103 314.559 146.139 314.573C146.174 314.587 146.206 314.61 146.231 314.639C146.28 314.697 146.308 314.77 146.312 314.846V314.928C146.316 314.967 146.311 315.006 146.297 315.042C146.282 315.078 146.26 315.11 146.231 315.135C146.204 315.162 146.172 315.183 146.137 315.198C146.102 315.212 146.065 315.219 146.027 315.218H143.156V315.204Z" fill="#2A2A2D"/>
<path fill-rule="evenodd" clip-rule="evenodd" d="M192.038 315.3C191.884 315.07 191.673 314.885 191.426 314.763C191.117 314.612 190.777 314.536 190.433 314.543H188.938C188.858 314.538 188.778 314.551 188.703 314.579C188.628 314.607 188.56 314.651 188.503 314.708C188.448 314.767 188.405 314.836 188.377 314.912C188.349 314.987 188.336 315.068 188.34 315.149V320.231C188.335 320.312 188.347 320.393 188.375 320.469C188.403 320.544 188.447 320.614 188.503 320.671C188.561 320.727 188.629 320.77 188.704 320.799C188.779 320.827 188.859 320.84 188.938 320.837H190.965C191.251 320.843 191.534 320.787 191.795 320.671C192.013 320.57 192.211 320.431 192.38 320.26C192.532 320.093 192.647 319.896 192.721 319.682C192.8 319.466 192.842 319.238 192.843 319.008C192.843 318.778 192.802 318.55 192.721 318.335C192.646 318.119 192.525 317.921 192.367 317.757C192.244 317.63 192.161 317.47 192.13 317.295C192.098 317.121 192.119 316.941 192.19 316.779C192.276 316.541 192.309 316.287 192.285 316.035C192.273 315.772 192.187 315.517 192.038 315.3ZM191.957 319.569C191.87 319.743 191.744 319.894 191.589 320.01C191.405 320.136 191.186 320.199 190.964 320.189H189.821C189.718 320.194 189.615 320.177 189.519 320.139C189.423 320.101 189.335 320.043 189.263 319.969C189.192 319.896 189.137 319.81 189.099 319.715C189.062 319.621 189.044 319.52 189.045 319.418V315.961C189.042 315.859 189.059 315.758 189.097 315.663C189.134 315.568 189.191 315.482 189.263 315.411C189.337 315.34 189.425 315.285 189.521 315.25C189.617 315.215 189.719 315.199 189.821 315.204H190.433C190.621 315.196 190.808 315.236 190.977 315.32C191.146 315.404 191.291 315.53 191.399 315.686C191.483 315.828 191.534 315.988 191.548 316.154C191.559 316.316 191.526 316.478 191.453 316.622C191.387 316.778 191.272 316.909 191.127 316.994C190.735 317.138 190.318 317.199 189.902 317.173C189.808 317.177 189.718 317.211 189.644 317.269C189.614 317.3 189.591 317.337 189.577 317.377C189.562 317.418 189.557 317.461 189.562 317.504C189.558 317.546 189.564 317.589 189.578 317.63C189.592 317.67 189.614 317.707 189.644 317.738C189.677 317.767 189.716 317.79 189.758 317.804C189.8 317.818 189.844 317.824 189.888 317.82H190.977C191.199 317.812 191.418 317.875 191.603 317.999C191.763 318.109 191.891 318.261 191.97 318.44C192.052 318.612 192.094 318.8 192.092 318.991C192.073 319.189 192.027 319.384 191.957 319.569Z" fill="#2A2A2D"/>
<path fill-rule="evenodd" clip-rule="evenodd" d="M186.596 320.547C186.584 320.475 186.561 320.405 186.528 320.34L185.346 317.723L184.217 315.23C184.204 315.203 184.204 315.188 184.19 315.161C184.178 315.144 184.169 315.125 184.163 315.106C184.149 315.078 184.135 315.065 184.122 315.037C184.092 314.986 184.055 314.939 184.011 314.899C184.001 314.886 183.987 314.876 183.97 314.872C183.957 314.858 183.943 314.858 183.929 314.844C183.916 314.844 183.902 314.83 183.889 314.83C183.881 314.83 183.874 314.83 183.867 314.833C183.86 314.835 183.853 314.839 183.848 314.844C183.831 314.848 183.817 314.858 183.807 314.872C183.793 314.872 183.793 314.886 183.78 314.886L183.766 314.9L183.752 314.913V314.928L183.725 314.956C183.699 314.985 183.677 315.018 183.658 315.052C183.644 315.066 183.644 315.08 183.63 315.093C183.617 315.107 183.617 315.121 183.603 315.135C183.587 315.166 183.573 315.198 183.562 315.231V315.245L182.174 318.289L181.236 320.354C181.212 320.407 181.194 320.463 181.182 320.519C181.175 320.537 181.171 320.556 181.168 320.574V320.657C181.169 320.691 181.178 320.724 181.195 320.754C181.238 320.812 181.302 320.851 181.372 320.864C181.435 320.876 181.499 320.881 181.563 320.877H181.617C181.652 320.876 181.686 320.861 181.712 320.836C181.75 320.814 181.779 320.78 181.794 320.739L182.163 319.941H185.577L185.946 320.739C185.961 320.78 185.99 320.814 186.027 320.836C186.055 320.85 186.096 320.863 186.123 320.877H186.164C186.209 320.88 186.255 320.876 186.3 320.864C186.313 320.864 186.341 320.85 186.354 320.85C186.415 320.839 186.472 320.811 186.517 320.767L186.545 320.74C186.546 320.729 186.551 320.72 186.558 320.712C186.558 320.699 186.572 320.699 186.572 320.685V320.657C186.59 320.624 186.598 320.585 186.596 320.547ZM182.501 319.253L183.467 317.132C183.492 317.055 183.533 316.985 183.587 316.925C183.641 316.866 183.707 316.819 183.78 316.787C183.819 316.772 183.861 316.763 183.902 316.76H183.971C184.057 316.786 184.136 316.832 184.202 316.894C184.268 316.956 184.319 317.033 184.352 317.118L185.317 319.239H182.501V319.253Z" fill="#2A2A2D"/>
</g>
<path d="M275.684 387.226H373.648C374.634 387.226 375.434 388.027 375.434 389.015V393.361C375.434 394.349 374.634 395.149 373.648 395.149H275.684V387.226Z" fill="#808A91"/>
<path d="M250.469 392.691V394.458C250.469 394.84 250.778 395.149 251.159 395.149H275.836C276.604 395.149 277.227 394.525 277.227 393.757V388.609C277.227 387.778 276.504 387.132 275.681 387.226L251.082 392.005C250.732 392.044 250.469 392.34 250.469 392.691Z" fill="#C1C9D1"/>
<path d="M446.89 220.482H263.797C260.093 220.482 256.786 222.809 255.532 226.299L215.49 337.659C213.815 343.402 218.01 347.705 224.754 348.433C225.787 348.545 230.706 346.331 238.429 342.693H402.115C405.819 342.693 409.126 340.366 410.38 336.875L446.553 236.279C452.669 233.082 456.155 231.255 456.155 231.255C456.155 231.255 458.418 220.482 446.89 220.482Z" fill="#C1C9D1"/>
<path d="M269.533 226.222H452.626C455.227 226.222 457.039 228.805 456.158 231.256L416.116 342.616C414.862 346.107 411.555 348.434 407.851 348.434H224.758C222.157 348.434 220.345 345.85 221.225 343.4L261.267 232.04C262.522 228.548 265.829 226.222 269.533 226.222Z" fill="#ECECEC"/>
<path d="M310.863 348.433L318.991 318.245L349.795 348.433H310.863Z" fill="#808A91"/>
<path d="M355.443 265.331C354.637 270.31 351.421 272.316 347.569 272.316C343.716 272.316 340.818 269.129 341.492 265.331C342.167 261.534 345.514 258.346 349.367 258.346C353.219 258.346 356.058 261.523 355.443 265.331Z" fill="#C1C9D1"/>
<path d="M269.394 329.902L271.748 323.354H268.788L266.434 329.902H269.394Z" fill="#808A91"/>
<path d="M275.619 329.902L277.974 323.354H275.014L272.66 329.902H275.619Z" fill="#808A91"/>
<path d="M281.862 329.902L284.217 323.354H281.257L278.902 329.902H281.862Z" fill="#808A91"/>
<path d="M288.092 329.902L290.446 323.354H287.487L285.133 329.902H288.092Z" fill="#808A91"/>
<path d="M376.616 329.902L378.97 323.354H376.011L373.656 329.902H376.616Z" fill="#808A91"/>
<path d="M382.842 329.902L385.196 323.354H382.237L379.883 329.902H382.842Z" fill="#808A91"/>
<path d="M389.084 329.902L391.439 323.354H388.48L386.125 329.902H389.084Z" fill="#808A91"/>
<path d="M395.315 329.902L397.669 323.354H394.709L392.355 329.902H395.315Z" fill="#808A91"/>
<path d="M372.682 384.389C370.875 379.186 348.966 308.386 348.966 308.386H320.842L318.984 318.246C318.984 318.246 337.841 379.186 339.647 384.389C339.784 384.785 339.916 385.183 340.039 385.582H340.037C341.69 390.669 337.33 390.647 332.42 390.647C327.509 390.647 282.82 390.647 282.82 390.647V395.151H332.42H365.454C375.393 395.15 374.489 389.591 372.682 384.389Z" fill="#9EA7AF"/>
<path d="M320.848 308.385C320.848 308.385 342.758 379.185 344.564 384.388C346.371 389.591 347.274 395.15 337.336 395.15H370.371C380.31 395.15 379.406 389.591 377.599 384.388C375.792 379.185 353.883 308.385 353.883 308.385H320.848Z" fill="#C1C9D1"/>
<path d="M327.73 308.385C329.91 308.286 332.089 308.235 334.268 308.164C336.447 308.088 338.626 308.072 340.804 308.024C342.983 307.99 345.162 307.926 347.342 307.926L353.879 307.885L354.244 307.883L354.357 308.237C355.269 311.089 356.167 313.943 357.023 316.812L359.63 325.406C361.307 331.154 362.987 336.9 364.521 342.693C362.507 337.05 360.641 331.361 358.772 325.673L356.058 317.112C355.141 314.263 354.266 311.4 353.403 308.534L353.881 308.886L347.344 308.845C345.164 308.844 342.985 308.781 340.806 308.747C338.627 308.698 336.448 308.681 334.27 308.607C332.089 308.537 329.91 308.486 327.73 308.385Z" fill="#F9F9F9"/>
<path d="M519.319 412.531H34.381C29.588 412.531 25.7031 408.641 25.7031 403.841C25.7031 399.041 29.588 395.15 34.381 395.15H519.319C524.112 395.15 527.997 399.042 527.997 403.841C527.997 408.64 524.111 412.531 519.319 412.531Z" fill="url(#paint6_linear_1_1221)"/>
<path d="M519.32 413.003H34.3734C29.5802 413.003 25.6953 409.126 25.6953 404.342H527.999C527.999 409.125 524.113 413.003 519.32 413.003Z" fill="url(#paint7_linear_1_1221)"/>
<defs>
<linearGradient id="paint0_linear_1_1221" x1="277.181" y1="172.27" x2="486.562" y2="172.27" gradientUnits="userSpaceOnUse">
<stop stop-color="#3E96F4" stop-opacity="0.2"/>
<stop offset="1" stop-color="#3E96F4" stop-opacity="0"/>
</linearGradient>
<linearGradient id="paint1_linear_1_1221" x1="179.47" y1="193.485" x2="1.91444e-06" y2="193.485" gradientUnits="userSpaceOnUse">
<stop stop-color="#3E96F4" stop-opacity="0.2"/>
<stop offset="1" stop-color="#3E96F4" stop-opacity="0"/>
</linearGradient>
<linearGradient id="paint2_linear_1_1221" x1="398.092" y1="92.03" x2="398.092" y2="139.582" gradientUnits="userSpaceOnUse">
<stop stop-color="#4D5F66" stop-opacity="0.1"/>
<stop offset="1" stop-color="#4D5F66" stop-opacity="0.25"/>
</linearGradient>
<linearGradient id="paint3_linear_1_1221" x1="1.5" y1="-1.07634" x2="1.5" y2="94" gradientUnits="userSpaceOnUse">
<stop stop-color="#4D5F66" stop-opacity="0.1"/>
<stop offset="1" stop-color="#4D5F66" stop-opacity="0.25"/>
</linearGradient>
<linearGradient id="paint4_linear_1_1221" x1="119.717" y1="135.332" x2="119.717" y2="182.884" gradientUnits="userSpaceOnUse">
<stop stop-color="#4D5F66" stop-opacity="0.1"/>
<stop offset="1" stop-color="#4D5F66" stop-opacity="0.25"/>
</linearGradient>
<linearGradient id="paint5_linear_1_1221" x1="1.5" y1="-1.58015" x2="1.5" y2="138" gradientUnits="userSpaceOnUse">
<stop stop-color="#4D5F66" stop-opacity="0.1"/>
<stop offset="1" stop-color="#4D5F66" stop-opacity="0.25"/>
</linearGradient>
<linearGradient id="paint6_linear_1_1221" x1="98.0779" y1="396.726" x2="98.3011" y2="412.97" gradientUnits="userSpaceOnUse">
<stop stop-color="#4D5F66" stop-opacity="0.2"/>
<stop offset="1" stop-color="#4D5F66" stop-opacity="0"/>
</linearGradient>
<linearGradient id="paint7_linear_1_1221" x1="98.0715" y1="405.127" x2="98.1269" y2="413.222" gradientUnits="userSpaceOnUse">
<stop stop-color="#4D5F66" stop-opacity="0.2"/>
<stop offset="1" stop-color="#4D5F66" stop-opacity="0.38"/>
</linearGradient>
<clipPath id="clip0_1_1221">
<rect width="74" height="21" fill="white" transform="translate(136 300)"/>
</clipPath>
</defs>
</svg>
