<svg width="134" height="38" viewBox="0 0 134 38" fill="none" xmlns="http://www.w3.org/2000/svg">
<g clip-path="url(#clip0_1_1579)">
<path d="M18.0095 27.1299C18.1595 27.1297 18.3032 27.0699 18.4092 26.9637C18.5152 26.8574 18.5748 26.7133 18.5748 26.5632C18.5746 26.4131 18.515 26.2692 18.409 26.1631C18.303 26.0569 18.1593 25.9972 18.0095 25.9971H12.1626C12.0127 25.9972 11.869 26.0569 11.7631 26.1631C11.6571 26.2692 11.5975 26.4131 11.5973 26.5632V36.6501C11.5973 36.8002 11.6569 36.9442 11.7629 37.0504C11.8689 37.1565 12.0127 37.2162 12.1626 37.2162H18.0154C18.1654 37.2162 18.3092 37.1565 18.4152 37.0504C18.5212 36.9442 18.5808 36.8002 18.5808 36.6501C18.5808 36.5 18.5212 36.356 18.4152 36.2498C18.3092 36.1436 18.1654 36.084 18.0154 36.084H12.9135V32.1734H17.9902C18.1361 32.1751 18.2772 32.1216 18.3854 32.0235C18.4935 31.9255 18.5607 31.7901 18.5735 31.6446C18.5787 31.5672 18.5679 31.4896 18.5419 31.4166C18.5159 31.3436 18.4752 31.2766 18.4224 31.22C18.3695 31.1634 18.3055 31.1182 18.2345 31.0874C18.1635 31.0565 18.0869 31.0405 18.0095 31.0405H12.9135V27.1299H18.0095Z" fill="white"/>
<path d="M28.7939 35.9744C28.0703 36.2887 27.28 36.4178 26.4942 36.3501C25.7084 36.2824 24.9518 36.02 24.2925 35.5865C23.6332 35.153 23.092 34.5621 22.7176 33.867C22.3431 33.1719 22.1473 32.3945 22.1478 31.6047C22.1482 30.8149 22.3448 30.0377 22.72 29.343C23.0951 28.6483 23.637 28.0579 24.2967 27.6252C24.9565 27.1924 25.7134 26.9308 26.4993 26.8639C27.2852 26.797 28.0753 26.927 28.7986 27.2421C28.9277 27.2982 29.0731 27.304 29.2063 27.2584C29.3395 27.2129 29.451 27.1192 29.5188 26.9957L29.5242 26.9857C29.5614 26.9177 29.584 26.8428 29.5907 26.7656C29.5973 26.6884 29.5879 26.6106 29.5628 26.5373C29.5378 26.464 29.4978 26.3967 29.4453 26.3397C29.3928 26.2828 29.3291 26.2374 29.2581 26.2065C28.5503 25.8966 27.7884 25.7296 27.0161 25.715C23.7684 25.6517 21.0589 28.273 21.015 31.525C21.0014 32.5111 21.2352 33.4849 21.6948 34.3571C22.1545 35.2293 22.8253 35.9722 23.6458 36.5176C24.4664 37.063 25.4105 37.3936 26.3917 37.479C27.3729 37.5645 28.3598 37.4021 29.2621 37.0067C29.3325 36.9753 29.3955 36.9296 29.4473 36.8724C29.499 36.8153 29.5384 36.7481 29.5627 36.6749C29.5871 36.6017 29.5961 36.5243 29.589 36.4475C29.5819 36.3707 29.5589 36.2962 29.5215 36.2288L29.5162 36.2188C29.4476 36.0955 29.3357 36.0022 29.2022 35.957C29.0686 35.9118 28.9231 35.918 28.7939 35.9744Z" fill="white"/>
<path d="M41.3203 26.0033C41.1843 26.0262 41.061 26.0971 40.9727 26.2031C40.8844 26.3092 40.8369 26.4433 40.8388 26.5814V29.8134C40.8388 30.1137 40.7197 30.4016 40.5076 30.614C40.2956 30.8263 40.008 30.9456 39.7081 30.9456H35.2081C34.9082 30.9456 34.6206 30.8263 34.4086 30.614C34.1966 30.4016 34.0774 30.1137 34.0774 29.8134V26.5634C34.0774 26.4133 34.0179 26.2693 33.9119 26.1631C33.8058 26.057 33.662 25.9973 33.5121 25.9973C33.3622 25.9973 33.2184 26.057 33.1124 26.1631C33.0063 26.2693 32.9468 26.4133 32.9468 26.5634V36.6503C32.9467 36.7247 32.9613 36.7984 32.9896 36.8671C33.018 36.9358 33.0597 36.9982 33.1122 37.0508C33.1647 37.1034 33.227 37.1451 33.2957 37.1735C33.3643 37.2019 33.4378 37.2165 33.5121 37.2164C33.5864 37.2165 33.6599 37.2019 33.7286 37.1735C33.7972 37.1451 33.8595 37.1034 33.9121 37.0508C33.9646 36.9982 34.0062 36.9358 34.0346 36.8671C34.063 36.7984 34.0775 36.7247 34.0774 36.6503V33.4004C34.0774 33.1001 34.1966 32.8121 34.4086 32.5998C34.6206 32.3875 34.9082 32.2682 35.2081 32.2682H39.7075C40.0073 32.2682 40.2949 32.3875 40.507 32.5998C40.719 32.8121 40.8381 33.1001 40.8381 33.4004V36.633C40.8361 36.7711 40.8837 36.9054 40.9722 37.0114C41.0607 37.1173 41.1842 37.188 41.3203 37.2104C41.4008 37.2225 41.4829 37.2171 41.561 37.1945C41.6392 37.1718 41.7115 37.1326 41.7731 37.0794C41.8348 37.0263 41.8842 36.9604 41.9181 36.8864C41.952 36.8123 41.9695 36.7318 41.9694 36.6503V26.5634C41.9695 26.482 41.952 26.4015 41.9181 26.3274C41.8842 26.2533 41.8348 26.1875 41.7731 26.1343C41.7115 26.0811 41.6392 26.0419 41.561 26.0193C41.4829 25.9967 41.4008 25.9912 41.3203 26.0033Z" fill="white"/>
<path d="M8.48396 25.9971H0.583311C0.445435 25.9952 0.31143 26.0428 0.20554 26.1312C0.0996512 26.2197 0.0288722 26.3431 0.00600982 26.4793C-0.00593245 26.5599 -0.000387855 26.6422 0.0222662 26.7205C0.0449203 26.7987 0.0841521 26.8712 0.137292 26.933C0.190431 26.9947 0.256231 27.0443 0.330212 27.0783C0.404194 27.1122 0.484621 27.1299 0.566019 27.13H2.73422C3.03409 27.13 3.32168 27.2492 3.53372 27.4616C3.74576 27.6739 3.86488 27.9619 3.86488 28.2621V36.5556C3.86506 36.7309 3.9347 36.899 4.05852 37.023C4.18233 37.147 4.35022 37.2167 4.52532 37.2169C4.70037 37.2167 4.86818 37.147 4.99189 37.023C5.1156 36.899 5.18509 36.7308 5.18509 36.5556V28.2621C5.18509 27.9619 5.30422 27.6739 5.51626 27.4616C5.7283 27.2492 6.01588 27.13 6.31575 27.13H8.46667C8.6046 27.1317 8.73862 27.084 8.84449 26.9954C8.95037 26.9069 9.02112 26.7833 9.04397 26.6471C9.05581 26.5665 9.05018 26.4844 9.02748 26.4062C9.00478 26.328 8.96553 26.2556 8.9124 26.1939C8.85927 26.1322 8.79351 26.0827 8.71958 26.0488C8.64565 26.0148 8.56529 25.9972 8.48396 25.9971Z" fill="white"/>
<path d="M53.7975 25.9971C53.6476 25.9972 53.5039 26.0569 53.3979 26.1631C53.2919 26.2692 53.2323 26.4131 53.2321 26.5632V32.8973C53.2321 33.0112 53.1978 33.1225 53.1336 33.2165C53.0694 33.3106 52.9784 33.3831 52.8724 33.4245C52.7665 33.466 52.6505 33.4744 52.5396 33.4488C52.4288 33.4232 52.3282 33.3647 52.2511 33.2809L45.7997 26.3147C45.774 26.2868 45.7404 26.2673 45.7035 26.2588C45.6665 26.2503 45.6278 26.2532 45.5925 26.2671C45.5572 26.281 45.5269 26.3053 45.5056 26.3367C45.4843 26.3681 45.473 26.4053 45.4731 26.4433V36.6501C45.4731 36.7245 45.4878 36.7981 45.5162 36.8669C45.5447 36.9356 45.5864 36.998 45.639 37.0506C45.6915 37.1032 45.7539 37.1449 45.8226 37.1733C45.8913 37.2017 45.9648 37.2163 46.0391 37.2162C46.1891 37.2162 46.3329 37.1565 46.4389 37.0504C46.5449 36.9442 46.6045 36.8002 46.6045 36.6501V30.284C46.6044 30.1701 46.6386 30.0588 46.7026 29.9647C46.7666 29.8706 46.8575 29.798 46.9634 29.7564C47.0693 29.7148 47.1852 29.7062 47.2961 29.7317C47.407 29.7571 47.5076 29.8154 47.5848 29.899L54.0362 36.8652C54.062 36.893 54.0956 36.9124 54.1326 36.9208C54.1696 36.9293 54.2082 36.9264 54.2435 36.9125C54.2788 36.8986 54.3092 36.8744 54.3306 36.8431C54.3519 36.8117 54.3634 36.7746 54.3635 36.7367V26.5632C54.3633 26.413 54.3036 26.269 54.1974 26.1628C54.0913 26.0567 53.9475 25.9971 53.7975 25.9971Z" fill="white"/>
<path d="M63.1573 25.7139C61.9932 25.7139 60.8553 26.0595 59.8874 26.7071C58.9196 27.3547 58.1652 28.2751 57.7198 29.352C57.2744 30.4289 57.1578 31.6139 57.385 32.7571C57.6121 33.9003 58.1727 34.9504 58.9959 35.7745C59.819 36.5987 60.8678 37.1599 62.0095 37.3872C63.1512 37.6145 64.3346 37.4977 65.41 37.0516C66.4854 36.6054 67.4045 35.85 68.0511 34.8808C68.6978 33.9115 69.0428 32.7721 69.0427 31.6065C69.0427 30.8326 68.8904 30.0663 68.5947 29.3513C68.2989 28.6363 67.8654 27.9867 67.3188 27.4395C66.7723 26.8923 66.1235 26.4583 65.4095 26.1622C64.6954 25.8661 63.9301 25.7138 63.1573 25.7139ZM63.1573 36.3695C62.217 36.3695 61.2978 36.0904 60.516 35.5673C59.7342 35.0442 59.1249 34.3007 58.7651 33.4309C58.4052 32.561 58.3111 31.6038 58.4945 30.6804C58.678 29.757 59.1307 28.9088 59.7956 28.243C60.4605 27.5772 61.3076 27.1238 62.2298 26.9402C63.152 26.7565 64.1079 26.8508 64.9766 27.2111C65.8453 27.5714 66.5878 28.1815 67.1101 28.9644C67.6325 29.7472 67.9114 30.6676 67.9114 31.6091C67.9108 32.8713 67.4097 34.0815 66.5182 34.9737C65.6266 35.8659 64.4177 36.3671 63.1573 36.3669V36.3695Z" fill="white"/>
<path d="M63.1573 32.7403C63.7821 32.7403 64.2886 32.2331 64.2886 31.6074C64.2886 30.9818 63.7821 30.4746 63.1573 30.4746C62.5325 30.4746 62.026 30.9818 62.026 31.6074C62.026 32.2331 62.5325 32.7403 63.1573 32.7403Z" fill="white"/>
<path d="M73.3512 36.084V26.6577C73.3512 26.4825 73.2816 26.3145 73.1579 26.1906C73.0342 26.0667 72.8664 25.9971 72.6914 25.9971C72.5164 25.9971 72.3486 26.0667 72.2249 26.1906C72.1011 26.3145 72.0316 26.4825 72.0316 26.6577V36.6474C72.0315 36.7218 72.0461 36.7954 72.0745 36.8642C72.1028 36.9329 72.1445 36.9953 72.197 37.0479C72.2495 37.1005 72.3119 37.1422 72.3805 37.1706C72.4491 37.199 72.5227 37.2136 72.5969 37.2135H78.4464C78.5207 37.2136 78.5943 37.199 78.663 37.1706C78.7317 37.1422 78.7941 37.1005 78.8466 37.0479C78.8992 36.9954 78.9409 36.9329 78.9693 36.8642C78.9978 36.7955 79.0124 36.7218 79.0124 36.6474C79.0124 36.573 78.9978 36.4994 78.9693 36.4306C78.9409 36.3619 78.8992 36.2995 78.8466 36.2469C78.7941 36.1943 78.7317 36.1526 78.663 36.1242C78.5943 36.0958 78.5207 36.0812 78.4464 36.0813L73.3512 36.084Z" fill="white"/>
<path d="M90.762 36.9799C90.8296 36.9489 90.8904 36.9049 90.9409 36.8503C90.9914 36.7957 91.0307 36.7317 91.0564 36.6619C91.0822 36.5921 91.094 36.518 91.091 36.4436C91.0881 36.3693 91.0705 36.2962 91.0394 36.2287L86.6351 26.6439C86.6124 26.5948 86.5761 26.5532 86.5306 26.5241C86.485 26.495 86.4321 26.4795 86.3781 26.4795C86.324 26.4795 86.2711 26.495 86.2256 26.5241C86.18 26.5532 86.1437 26.5948 86.121 26.6439L81.7161 36.2287C81.6535 36.3652 81.6477 36.521 81.6998 36.6619C81.7519 36.8028 81.8578 36.9171 81.9941 36.9799C82.1304 37.0426 82.2859 37.0485 82.4266 36.9965C82.5673 36.9444 82.6815 36.8386 82.7443 36.7022L83.3336 35.4195H89.4225L90.0118 36.7022C90.0746 36.8386 90.1889 36.9444 90.3295 36.9965C90.4702 37.0485 90.6258 37.0426 90.762 36.9799ZM83.9408 34.0975L85.8643 29.9125C85.9094 29.8141 85.9818 29.7306 86.0729 29.6722C86.164 29.6137 86.2699 29.5826 86.3781 29.5826C86.4863 29.5826 86.5922 29.6137 86.6832 29.6722C86.7743 29.7306 86.8467 29.8141 86.8919 29.9125L88.8153 34.0975H83.9408Z" fill="white"/>
<path d="M101.175 31.2463C101.058 31.1602 100.979 31.0322 100.954 30.8891C100.929 30.7461 100.961 30.5989 101.042 30.4785C101.36 30.0049 101.529 29.4469 101.529 28.8761C101.529 28.498 101.454 28.1236 101.31 27.7742C101.165 27.4249 100.954 27.1075 100.687 26.8401C100.42 26.5728 100.103 26.3607 99.7537 26.216C99.4048 26.0714 99.0309 25.997 98.6533 25.9971H94.9667C94.8168 25.9972 94.6731 26.0569 94.5671 26.1631C94.4612 26.2692 94.4015 26.4131 94.4014 26.5632V36.6501C94.4014 36.8002 94.4609 36.9442 94.567 37.0504C94.673 37.1565 94.8168 37.2162 94.9667 37.2162H99.2393C99.672 37.2163 100.101 37.131 100.5 36.9652C100.9 36.7995 101.263 36.5564 101.57 36.2501C101.876 35.9437 102.118 35.58 102.284 35.1796C102.45 34.7793 102.535 34.3502 102.535 33.9169C102.535 33.3958 102.412 32.882 102.176 32.4177C101.939 31.9535 101.596 31.552 101.175 31.2463ZM99.2 36.084H96.8522C96.5524 36.084 96.2648 35.9647 96.0527 35.7524C95.8407 35.5401 95.7216 35.2521 95.7216 34.9518V28.2621C95.7216 27.9618 95.8407 27.6738 96.0527 27.4615C96.2648 27.2492 96.5524 27.1299 96.8522 27.1299H98.6174C99.5173 27.1299 100.296 27.7992 100.387 28.6963C100.41 28.9279 100.388 29.1619 100.32 29.3846C100.252 29.6073 100.141 29.8142 99.992 29.9931C99.8433 30.1721 99.6604 30.3195 99.4541 30.4268C99.2477 30.534 99.0221 30.5989 98.7903 30.6176H97.4196C97.2697 30.6178 97.126 30.6775 97.02 30.7836C96.914 30.8898 96.8544 31.0336 96.8542 31.1837C96.8542 31.3339 96.9138 31.4778 97.0198 31.584C97.1258 31.6902 97.2696 31.7498 97.4196 31.7498H99.2413C99.5372 31.7501 99.83 31.8111 100.101 31.9291C100.373 32.0471 100.617 32.2195 100.82 32.4357C101.022 32.6519 101.178 32.9073 101.278 33.1863C101.378 33.4652 101.42 33.7617 101.401 34.0574C101.329 35.1736 100.317 36.084 99.2 36.084Z" fill="white"/>
<path d="M78.0261 0.650391H82.2681V17.2866C82.2681 17.6872 82.1092 18.0714 81.8263 18.3546C81.5434 18.6379 81.1597 18.797 80.7597 18.797H78.0261V0.650391Z" fill="white"/>
<path d="M92.6609 1.22825C92.2637 0.831324 91.7255 0.608398 91.1644 0.608398C90.6033 0.608398 90.0651 0.831324 89.6679 1.22825L81.182 9.72415L89.6659 18.2194C90.0629 18.6166 90.6012 18.8398 91.1624 18.8398C91.7236 18.8398 92.2619 18.6166 92.6589 18.2194C93.0556 17.8219 93.2784 17.2829 93.2784 16.7209C93.2784 16.159 93.0556 15.62 92.6589 15.2225L87.1692 9.72615L92.6589 4.22915C92.8559 4.0323 93.0122 3.79849 93.1189 3.54111C93.2257 3.28373 93.2807 3.0078 93.2809 2.72911C93.2811 2.45042 93.2264 2.17443 93.12 1.9169C93.0136 1.65938 92.8576 1.42537 92.6609 1.22825Z" fill="white"/>
<path d="M55.4841 0.648438V17.2866C55.4842 17.485 55.4452 17.6814 55.3695 17.8647C55.2937 18.048 55.1826 18.2146 55.0425 18.3549C54.9024 18.4951 54.7361 18.6064 54.553 18.6823C54.37 18.7581 54.1738 18.7971 53.9757 18.7971H53.0658C52.8469 18.7973 52.6305 18.7498 52.4318 18.6578C52.2331 18.5657 52.0568 18.4315 51.9152 18.2643L51.2395 17.4651L43.6215 8.46371V17.2866C43.6216 17.485 43.5826 17.6814 43.5068 17.8647C43.4311 18.048 43.32 18.2146 43.1799 18.3549C43.0398 18.4951 42.8735 18.6064 42.6904 18.6823C42.5074 18.7581 42.3112 18.7971 42.1131 18.7971H39.3795V0.648438H41.8703C42.0892 0.648189 42.3056 0.695726 42.5043 0.787739C42.703 0.879752 42.8793 1.01403 43.0209 1.18122L43.6195 1.89049L51.2421 10.8952V2.16155C51.2417 1.96294 51.2804 1.7662 51.356 1.5826C51.4316 1.399 51.5427 1.23214 51.6828 1.09158C51.8229 0.951025 51.9894 0.839532 52.1726 0.76349C52.3558 0.687447 52.5522 0.64835 52.7506 0.648438H55.4841Z" fill="white"/>
<path d="M113.607 18.7967H115.343C115.473 18.7965 115.601 18.7627 115.714 18.6984C115.827 18.6342 115.922 18.5418 115.989 18.4301C116.056 18.3185 116.093 18.1914 116.096 18.0612C116.1 17.931 116.069 17.8022 116.008 17.6871L108.641 3.81145L107.271 1.22745C107.172 1.04021 107.023 0.883574 106.842 0.774346C106.66 0.665118 106.453 0.607414 106.241 0.607423C106.029 0.607172 105.821 0.664762 105.639 0.774002C105.457 0.883243 105.309 1.04001 105.209 1.22745L103.838 3.81079L96.7625 17.1324C96.6707 17.3049 96.625 17.4983 96.6299 17.6937C96.6348 17.8892 96.6902 18.08 96.7906 18.2477C96.8911 18.4153 97.0332 18.5541 97.2031 18.6504C97.373 18.7467 97.5649 18.7973 97.7602 18.7973H98.8696C99.4164 18.7969 99.9529 18.6476 100.421 18.3653C100.89 18.0831 101.273 17.6785 101.53 17.195L102.442 15.4781H110.024L110.936 17.195C111.193 17.6799 111.578 18.0853 112.049 18.3675C112.52 18.6497 113.058 18.7981 113.607 18.7967ZM104.051 12.4565L105.574 9.58883C105.638 9.46825 105.734 9.36744 105.851 9.29715C105.968 9.22686 106.102 9.18974 106.239 9.18974C106.375 9.18974 106.509 9.22686 106.626 9.29715C106.744 9.36744 106.839 9.46825 106.904 9.58883L108.427 12.4565H104.051Z" fill="white"/>
<path d="M73.3639 13.4155C73.3639 13.4974 73.3639 13.58 73.3579 13.6619C73.2928 15.0446 72.6988 16.3492 71.699 17.3052C70.6992 18.2612 69.3703 18.7952 67.9879 18.7966C65.1619 18.7966 62.3153 17.8483 62.3153 17.8483C61.8985 17.6911 61.5198 17.4468 61.2047 17.1316C60.8895 16.8164 60.6451 16.4375 60.4878 16.0202C60.3304 15.6029 60.2637 15.1568 60.2922 14.7117C60.3206 14.2666 60.4435 13.8326 60.6526 13.4388C60.6759 13.395 60.7144 13.3612 60.7607 13.3437C60.8071 13.3261 60.8583 13.3261 60.9047 13.3436C60.9047 13.3436 65.4167 15.0751 67.9893 15.0751C68.3266 15.0736 68.6556 14.9698 68.9329 14.7775C69.2102 14.5851 69.4229 14.3132 69.5429 13.9976C69.6197 13.7934 69.6555 13.576 69.6483 13.3579C69.6411 13.1399 69.5911 12.9253 69.5011 12.7266C69.4111 12.5279 69.2829 12.3489 69.1238 12.1998C68.9647 12.0507 68.7779 11.9345 68.5739 11.8578L64.7449 10.4179C63.5675 9.9737 62.5831 9.12994 61.9632 8.03364C61.3432 6.93734 61.127 5.65798 61.3522 4.41847C61.5774 3.17895 62.2298 2.05783 63.1956 1.25043C64.1615 0.443026 65.3796 0.000519851 66.6378 0C70.4195 0 73.2668 1.58303 73.2668 1.58303C73.2939 1.5932 73.3185 1.60904 73.339 1.62949C73.3595 1.64995 73.3755 1.67455 73.3857 1.70165C73.396 1.72875 73.4003 1.75774 73.3985 1.78666C73.3967 1.81559 73.3888 1.8438 73.3752 1.86941L72.4135 3.68021C72.0197 4.42144 71.197 4.61258 70.3517 4.4594C70.3517 4.4594 68.0485 3.71883 66.6371 3.71883C66.6371 3.71883 65.6355 3.56499 65.0828 4.79705C64.838 5.34316 65.0163 5.83398 65.1247 6.06774C65.2144 6.26667 65.3425 6.44587 65.5016 6.59503C65.6607 6.74418 65.8477 6.86035 66.0518 6.93685L69.8795 8.37869C70.9029 8.7638 71.7847 9.45224 72.4073 10.3522C73.0298 11.2521 73.3635 12.3207 73.3639 13.4155Z" fill="white"/>
<path d="M129.336 10.6555C130.481 10.2512 131.447 9.45415 132.062 8.40553C132.676 7.35691 132.901 6.12431 132.695 4.92596C132.489 3.72761 131.867 2.64079 130.937 1.85791C130.008 1.07503 128.833 0.646595 127.618 0.648443H119.266V18.7971H122C122.198 18.7972 122.394 18.7582 122.577 18.6823C122.76 18.6065 122.926 18.4953 123.066 18.3551C123.206 18.2149 123.317 18.0484 123.393 17.8652C123.469 17.682 123.508 17.4856 123.508 17.2873V9.84896L124.306 10.9498L129.494 18.1024C129.661 18.3322 129.872 18.5262 130.115 18.6728C130.358 18.8195 130.627 18.9158 130.908 18.9563C131.189 18.9967 131.475 18.9803 131.749 18.9081C132.024 18.8359 132.281 18.7094 132.505 18.536C132.942 18.1983 133.231 17.7033 133.309 17.1562C133.388 16.6091 133.25 16.0529 132.926 15.6057L129.336 10.6555ZM123.508 9.43938V3.67133H126.262C127.018 3.68283 127.74 3.99175 128.271 4.53136C128.801 5.07097 129.099 5.79796 129.099 6.55535C129.099 7.31274 128.801 8.03974 128.271 8.57935C127.74 9.11896 127.018 9.42787 126.262 9.43938H123.508Z" fill="white"/>
<path d="M33.522 18.7967H35.2586C35.3887 18.7965 35.5165 18.7627 35.6296 18.6984C35.7427 18.6342 35.8374 18.5418 35.9043 18.4301C35.9712 18.3185 36.0082 18.1914 36.0116 18.0612C36.015 17.931 35.9847 17.8022 35.9237 17.6871L28.5565 3.81145L27.1837 1.22745C27.0845 1.04026 26.9362 0.883651 26.7548 0.774421C26.5734 0.665192 26.3658 0.607462 26.1541 0.607422C25.9424 0.607341 25.7346 0.665014 25.5531 0.77425C25.3716 0.883486 25.2232 1.04016 25.1239 1.22745L23.7525 3.81079L16.6786 17.1304C16.5867 17.3029 16.541 17.4963 16.5459 17.6917C16.5508 17.8872 16.6062 18.078 16.7067 18.2457C16.8071 18.4133 16.9492 18.5521 17.1191 18.6484C17.289 18.7447 17.4809 18.7953 17.6762 18.7953H18.7869C19.3338 18.7949 19.8702 18.6456 20.3388 18.3633C20.8075 18.0811 21.1906 17.6765 21.4473 17.193L22.3591 15.4761H29.9412L30.8524 17.193C31.1098 17.678 31.4944 18.0835 31.9648 18.3661C32.4352 18.6486 32.9735 18.7975 33.522 18.7967ZM23.966 12.4565L25.4884 9.58883C25.5529 9.46843 25.6489 9.36781 25.766 9.29767C25.8831 9.22752 26.017 9.19048 26.1535 9.19048C26.2899 9.19048 26.4239 9.22752 26.541 9.29767C26.6581 9.36781 26.754 9.46843 26.8186 9.58883L28.341 12.4565H23.966Z" fill="white"/>
<path d="M13.4568 13.4155C13.4568 13.4974 13.4568 13.58 13.4508 13.6619C13.3857 15.0446 12.7917 16.3492 11.7919 17.3052C10.7921 18.2612 9.46327 18.7952 8.08086 18.7966C5.25488 18.7966 2.40828 17.8483 2.40828 17.8483C1.99131 17.6912 1.61259 17.447 1.29738 17.1318C0.982176 16.8165 0.737735 16.4376 0.580372 16.0203C0.42301 15.603 0.356345 15.1569 0.384828 14.7117C0.41331 14.2666 0.536284 13.8326 0.745543 13.4388C0.768064 13.3944 0.806324 13.3601 0.852827 13.3424C0.89933 13.3248 0.950727 13.3252 0.996948 13.3436C0.996948 13.3436 5.50894 15.0751 8.08153 15.0751C8.35892 15.0744 8.63173 15.0042 8.87511 14.871C9.11849 14.7377 9.3247 14.5456 9.47497 14.3121C9.62523 14.0786 9.71478 13.8112 9.73544 13.5342C9.75611 13.2572 9.70724 12.9795 9.59328 12.7262C9.50328 12.5279 9.37505 12.3493 9.21595 12.2007C9.05684 12.0522 8.87 11.9365 8.66614 11.8604L4.83786 10.4179C3.66048 9.9737 2.67605 9.12994 2.05609 8.03364C1.43612 6.93734 1.21991 5.65798 1.44512 4.41847C1.67033 3.17895 2.32269 2.05783 3.28854 1.25043C4.2544 0.443026 5.47253 0.000519851 6.73072 0C10.5124 0 13.3597 1.58037 13.3597 1.58037C13.3868 1.59053 13.4115 1.60637 13.432 1.62683C13.4525 1.64728 13.4684 1.67188 13.4786 1.69899C13.4889 1.72609 13.4933 1.75507 13.4915 1.784C13.4896 1.81293 13.4817 1.84114 13.4681 1.86674L12.5064 3.68021C12.1127 4.42144 11.2899 4.61258 10.4446 4.4594C10.4446 4.4594 8.14205 3.71883 6.73006 3.71883C6.73006 3.71883 5.72842 3.56499 5.17573 4.79705C4.93098 5.34316 5.10922 5.83398 5.21763 6.06774C5.30731 6.26667 5.43539 6.44587 5.59451 6.59503C5.75363 6.74418 5.94064 6.86035 6.14477 6.93685L9.97239 8.37869C10.9958 8.7638 11.8776 9.45224 12.5002 10.3522C13.1228 11.2521 13.4565 12.3207 13.4568 13.4155Z" fill="white"/>
</g>
<defs>
<clipPath id="clip0_1_1579">
<rect width="133.333" height="37.5" fill="white"/>
</clipPath>
</defs>
</svg>
