<svg xmlns="http://www.w3.org/2000/svg" width="134" height="38" fill="none"><g fill="#fff" clip-path="url(#a)"><path d="M18.01 27.13a.566.566 0 0 0 0-1.133h-5.847a.565.565 0 0 0-.566.566V36.65a.567.567 0 0 0 .566.566h5.852a.565.565 0 0 0 0-1.132h-5.101v-3.91h5.076a.58.58 0 0 0 .584-.53.566.566 0 0 0-.565-.603h-5.095V27.13zM28.794 35.974a4.75 4.75 0 0 1-6.076-2.107 4.763 4.763 0 0 1 3.781-7.003 4.75 4.75 0 0 1 2.3.378.564.564 0 0 0 .72-.246l.005-.01a.56.56 0 0 0-.266-.78 5.9 5.9 0 0 0-2.242-.491c-3.248-.063-5.957 2.558-6.001 5.81a5.9 5.9 0 0 0 2.63 4.993 5.88 5.88 0 0 0 5.617.489.554.554 0 0 0 .26-.778l-.006-.01a.57.57 0 0 0-.722-.245M41.32 26.003a.58.58 0 0 0-.481.578v3.232a1.133 1.133 0 0 1-1.13 1.133h-4.5a1.13 1.13 0 0 1-1.132-1.133v-3.25a.567.567 0 0 0-.965-.4.57.57 0 0 0-.165.4V36.65a.567.567 0 0 0 .565.566.564.564 0 0 0 .565-.566V33.4a1.133 1.133 0 0 1 1.131-1.132h4.5a1.13 1.13 0 0 1 1.13 1.132v3.233a.58.58 0 0 0 .482.577.564.564 0 0 0 .65-.56V26.563a.566.566 0 0 0-.65-.56M8.484 25.997h-7.9a.58.58 0 0 0-.578.482.568.568 0 0 0 .56.651h2.168a1.13 1.13 0 0 1 1.13 1.132v8.294a.66.66 0 0 0 .661.66.66.66 0 0 0 .66-.66v-8.294a1.133 1.133 0 0 1 1.13-1.132h2.152a.58.58 0 0 0 .577-.483.568.568 0 0 0-.56-.65M53.798 25.997a.565.565 0 0 0-.566.566v6.334a.566.566 0 0 1-.98.384L45.8 26.315a.188.188 0 0 0-.327.128V36.65a.57.57 0 0 0 .566.566.565.565 0 0 0 .566-.566v-6.366a.567.567 0 0 1 .98-.385l6.451 6.966a.188.188 0 0 0 .328-.128V26.563a.567.567 0 0 0-.566-.566M63.157 25.714a5.88 5.88 0 0 0-5.437 3.638 5.9 5.9 0 0 0 1.276 6.423 5.882 5.882 0 0 0 10.047-4.168 5.9 5.9 0 0 0-1.724-4.167 5.88 5.88 0 0 0-4.162-1.726m0 10.656a4.75 4.75 0 0 1-4.392-2.94 4.77 4.77 0 0 1 1.03-5.187 4.751 4.751 0 0 1 8.116 3.366 4.76 4.76 0 0 1-1.393 3.365 4.75 4.75 0 0 1-3.36 1.393z"/><path d="M63.157 32.74a1.132 1.132 0 1 0-.001-2.264 1.132 1.132 0 0 0 .001 2.264M73.351 36.084v-9.426a.661.661 0 0 0-1.126-.467.66.66 0 0 0-.193.467v9.99a.566.566 0 0 0 .565.566h5.85a.565.565 0 1 0 0-1.133zM90.762 36.98a.564.564 0 0 0 .277-.751l-4.404-9.585a.283.283 0 0 0-.514 0l-4.405 9.585a.567.567 0 0 0 .71.767.57.57 0 0 0 .318-.294l.59-1.282h6.088l.59 1.282a.566.566 0 0 0 .75.278m-6.821-2.883 1.923-4.184a.565.565 0 0 1 1.028 0l1.923 4.184zM101.175 31.246a.564.564 0 0 1-.133-.767 2.87 2.87 0 0 0 .268-2.705 2.89 2.89 0 0 0-1.556-1.558 2.9 2.9 0 0 0-1.1-.219h-3.687a.565.565 0 0 0-.566.566V36.65a.566.566 0 0 0 .566.566h4.272a3.29 3.29 0 0 0 2.331-.966 3.305 3.305 0 0 0-.395-5.004M99.2 36.084h-2.348a1.13 1.13 0 0 1-1.13-1.132v-6.69a1.133 1.133 0 0 1 1.13-1.132h1.765c.9 0 1.679.67 1.77 1.566a1.76 1.76 0 0 1-.395 1.297 1.75 1.75 0 0 1-1.202.625h-1.37a.566.566 0 0 0 0 1.132h1.821a2.16 2.16 0 0 1 1.579.686 2.17 2.17 0 0 1 .581 1.621c-.072 1.117-1.084 2.027-2.201 2.027M78.026.65h4.242v16.637a1.51 1.51 0 0 1-1.508 1.51h-2.734z"/><path d="M92.66 1.228a2.117 2.117 0 0 0-2.992 0l-8.486 8.496 8.484 8.495a2.116 2.116 0 0 0 3.612-1.498c0-.562-.222-1.101-.62-1.498L87.17 9.726l5.49-5.497a2.12 2.12 0 0 0 .002-3M55.484.648v16.639a1.51 1.51 0 0 1-.931 1.395c-.183.076-.38.115-.577.115h-.91a1.5 1.5 0 0 1-1.15-.533l-.676-.799-7.619-9.001v8.823a1.51 1.51 0 0 1-1.508 1.51H39.38V.648h2.49a1.5 1.5 0 0 1 1.15.533l.6.71 7.622 9.004V2.162a1.51 1.51 0 0 1 .93-1.399c.184-.076.38-.115.579-.115zM113.607 18.797h1.736a.753.753 0 0 0 .753-.736.75.75 0 0 0-.088-.374l-7.367-13.876-1.37-2.584a1.168 1.168 0 0 0-2.062 0l-1.371 2.584-7.075 13.321a1.134 1.134 0 0 0 .997 1.665h1.11a3.01 3.01 0 0 0 2.66-1.602l.912-1.717h7.582l.912 1.717a3.01 3.01 0 0 0 2.671 1.602m-9.556-6.34 1.523-2.868a.752.752 0 0 1 1.33 0l1.523 2.867zM73.364 13.416q.001.122-.006.246a5.4 5.4 0 0 1-1.659 3.643 5.38 5.38 0 0 1-3.711 1.492c-2.826 0-5.673-.949-5.673-.949a3.135 3.135 0 0 1-2.023-3.136c.029-.445.151-.88.36-1.273a.204.204 0 0 1 .253-.095s4.512 1.731 7.084 1.731a1.67 1.67 0 0 0 1.66-1.717 1.66 1.66 0 0 0-1.075-1.5l-3.83-1.44a5.388 5.388 0 0 1-1.55-9.167A5.37 5.37 0 0 1 66.64 0c3.781 0 6.629 1.583 6.629 1.583a.203.203 0 0 1 .108.286l-.962 1.811c-.393.741-1.216.933-2.061.78 0 0-2.303-.741-3.715-.741 0 0-1.002-.154-1.554 1.078-.245.546-.067 1.037.042 1.27a1.66 1.66 0 0 0 .927.87l3.827 1.442a5.38 5.38 0 0 1 3.485 5.037M129.336 10.656a5.15 5.15 0 0 0 3.359-5.73 5.15 5.15 0 0 0-5.077-4.278h-8.352v18.15H122a1.5 1.5 0 0 0 1.393-.933c.076-.183.115-.38.115-.578V9.85l.798 1.1 5.188 7.153a2.12 2.12 0 0 0 2.255.806 2.123 2.123 0 0 0 1.177-3.302zm-5.828-1.217V3.671h2.754a2.88 2.88 0 0 1 2.837 2.884 2.88 2.88 0 0 1-2.837 2.884zM33.522 18.797h1.737a.753.753 0 0 0 .753-.736.76.76 0 0 0-.088-.374L28.557 3.811l-1.373-2.584a1.166 1.166 0 0 0-2.06 0l-1.371 2.584-7.074 13.32a1.133 1.133 0 0 0 .997 1.664h1.11a3.01 3.01 0 0 0 2.661-1.602l.912-1.717h7.582l.911 1.717a3.02 3.02 0 0 0 2.67 1.604m-9.556-6.34 1.522-2.868a.755.755 0 0 1 1.33 0l1.523 2.867zM13.457 13.416q.001.122-.006.246a5.4 5.4 0 0 1-1.66 3.643 5.38 5.38 0 0 1-3.71 1.492c-2.826 0-5.673-.949-5.673-.949a3.13 3.13 0 0 1-2.023-3.136 3.1 3.1 0 0 1 .36-1.273.2.2 0 0 1 .252-.095s4.512 1.731 7.085 1.731a1.66 1.66 0 0 0 1.653-1.54 1.655 1.655 0 0 0-1.07-1.674L4.84 10.417a5.388 5.388 0 0 1-1.55-9.167A5.37 5.37 0 0 1 6.732 0c3.781 0 6.629 1.58 6.629 1.58a.204.204 0 0 1 .108.287l-.962 1.813c-.393.741-1.216.933-2.061.78 0 0-2.303-.741-3.715-.741 0 0-1.002-.154-1.554 1.078-.245.546-.067 1.037.042 1.27a1.66 1.66 0 0 0 .927.87l3.827 1.442a5.38 5.38 0 0 1 3.485 5.037"/></g><defs><clipPath id="a"><path fill="#fff" d="M0 0h133.333v37.5H0z"/></clipPath></defs></svg>