<svg width="56" height="56" viewBox="0 0 56 56" fill="none" xmlns="http://www.w3.org/2000/svg">
<path d="M0 4C0 1.79086 1.79086 0 4 0H52C54.2091 0 56 1.79086 56 4V52C56 54.2091 54.2091 56 52 56H4C1.79086 56 0 54.2091 0 52V4Z" fill="#FFF8F5"/>
<mask id="mask0_1_1995" style="mask-type:alpha" maskUnits="userSpaceOnUse" x="8" y="8" width="40" height="40">
<rect x="8" y="8" width="40" height="40" fill="#D9D9D9"/>
</mask>
<g mask="url(#mask0_1_1995)">
<path fill-rule="evenodd" clip-rule="evenodd" d="M24.5896 38.6753L27.4792 42.9814C27.5365 43.0665 27.6139 43.1363 27.7045 43.1845C27.7951 43.2327 27.8961 43.258 27.9988 43.258C28.1014 43.258 28.2024 43.2327 28.293 43.1845C28.3836 43.1363 28.461 43.0665 28.5183 42.9814L31.4083 38.6753C37.2649 39.2308 40.748 41.1043 40.748 42.6331C40.748 43.587 39.4395 44.6198 37.2465 45.3971C34.7881 46.2699 31.5041 46.7502 27.9989 46.7502C24.4974 46.7502 21.2134 46.27 18.7513 45.3972C16.5583 44.6198 15.2498 43.5871 15.2498 42.6332C15.2498 41.1044 18.7366 39.2308 24.5896 38.6754V38.6753ZM19.8017 29.3013L27.9989 41.5119L36.1961 29.301C39.4395 24.4656 41.1648 17.5551 36.2734 12.6616C34.0746 10.4764 31.1006 9.24999 28.0007 9.24999C24.9008 9.24999 21.9268 10.4764 19.728 12.6616C14.8333 17.5551 16.5583 24.4656 19.8017 29.301V29.3013ZM14.0003 42.633C14.0003 44.1844 15.5373 45.5846 18.3348 46.5754C20.9259 47.4939 24.3573 48.0002 27.9989 48.0002C31.6405 48.0002 35.0719 47.4937 37.6666 46.5753C40.4605 45.5845 41.9975 44.1847 41.9975 42.633C41.9975 41.6883 41.4262 40.308 38.6987 39.1001C37.007 38.3508 34.7255 37.7932 32.197 37.5009L37.2317 29.9978C39.2773 26.9526 40.4236 23.719 40.5527 20.6473C40.6964 17.2098 39.5206 14.143 37.1542 11.7779C34.7215 9.35824 31.4299 8 27.9988 8C24.5676 8 21.276 9.35824 18.8433 11.7779C16.477 14.143 15.3012 17.21 15.4448 20.6473C15.5738 23.719 16.7202 26.9526 18.7657 29.9978L23.8005 37.5009C21.272 37.7932 18.9905 38.3508 17.2988 39.1001C14.5713 40.308 14 41.6883 14 42.633L14.0003 42.633ZM27.8736 25.0291C27.8735 25.1113 27.8572 25.1927 27.8257 25.2686C27.7941 25.3444 27.748 25.4134 27.6898 25.4714C27.6316 25.5295 27.5625 25.5755 27.4866 25.6068C27.4106 25.6382 27.3292 25.6542 27.247 25.6541H23.8598C23.694 25.6541 23.535 25.5883 23.4178 25.4711C23.3006 25.3539 23.2348 25.1949 23.2348 25.0291C23.2348 24.8634 23.3006 24.7044 23.4178 24.5872C23.535 24.47 23.694 24.4041 23.8598 24.4041H27.247C27.3292 24.404 27.4106 24.42 27.4866 24.4514C27.5626 24.4827 27.6317 24.5287 27.6898 24.5868C27.748 24.6448 27.7942 24.7138 27.8257 24.7897C27.8573 24.8656 27.8735 24.9469 27.8736 25.0291ZM33.8814 26.8167H22.1164V15.0529H24.9802V18.9279C24.9798 19.0515 25.0161 19.1725 25.0845 19.2754C25.153 19.3784 25.2505 19.4586 25.3647 19.506C25.4789 19.5533 25.6046 19.5657 25.7258 19.5414C25.847 19.5172 25.9583 19.4574 26.0455 19.3698L27.9986 17.4171L29.9517 19.3698C30.0098 19.4279 30.0787 19.474 30.1546 19.5055C30.2305 19.5369 30.3119 19.553 30.3941 19.553C30.4762 19.5528 30.5576 19.5367 30.6336 19.5055C30.7474 19.4578 30.8445 19.3775 30.9127 19.2747C30.9809 19.1719 31.0172 19.0512 31.017 18.9279V15.0529H33.8808V26.8167H33.8814ZM26.2297 15.0529H29.768V17.4187L28.4412 16.0912C28.3238 15.974 28.1647 15.9081 27.9989 15.9081C27.833 15.9081 27.6739 15.974 27.5566 16.0912L26.2297 17.4176V15.0529ZM35.1309 27.4419C35.1309 27.5241 35.1146 27.6055 35.0831 27.6814C35.0516 27.7573 35.0055 27.8263 34.9472 27.8844C34.889 27.9424 34.82 27.9884 34.744 28.0197C34.6679 28.0511 34.5865 28.0671 34.5043 28.0669H21.4935C21.4113 28.0671 21.3299 28.0511 21.2539 28.0197C21.1778 27.9884 21.1088 27.9424 21.0506 27.8844C20.9924 27.8263 20.9462 27.7573 20.9147 27.6814C20.8832 27.6055 20.867 27.5241 20.867 27.4419V14.4281C20.867 14.3459 20.8833 14.2646 20.9148 14.1886C20.9463 14.1127 20.9925 14.0438 21.0507 13.9858C21.1089 13.9277 21.1779 13.8817 21.2539 13.8504C21.3299 13.819 21.4113 13.803 21.4935 13.8031H34.5043C34.5865 13.803 34.6679 13.819 34.7439 13.8504C34.8199 13.8817 34.8889 13.9277 34.9471 13.9858C35.0053 14.0438 35.0515 14.1127 35.083 14.1886C35.1145 14.2646 35.1308 14.3459 35.1309 14.4281V27.4419Z" fill="#27272A"/>
</g>
</svg>
