<svg width="110" height="66" viewBox="0 0 110 66" fill="none" xmlns="http://www.w3.org/2000/svg">
<rect x="1" y="4.20001" width="60.8" height="60.8" rx="4" stroke="#C4CED7"/>
<rect x="1" y="4.20001" width="60.8" height="58.1333" rx="4" stroke="#C4CED7"/>
<path d="M1 8.20001C1 5.99087 2.79086 4.20001 5 4.20001H57.8C60.0092 4.20001 61.8 5.99087 61.8 8.20001V50.0959C61.8 51.1056 61.4182 52.0779 60.7312 52.8177L56.0536 57.8552C55.2967 58.6702 54.2347 59.1333 53.1224 59.1333H5C2.79086 59.1333 1 57.3425 1 55.1333V8.20001Z" stroke="#C4CED7"/>
<path d="M7.0625 32.1875C6.55208 32.1875 6.125 32.1224 5.78125 31.9922V30.4219C6.21875 30.5312 6.59896 30.5859 6.92188 30.5859C7.94271 30.5859 8.45312 29.9401 8.45312 28.6484V17.5781H10.3281V28.5859C10.3281 29.7526 10.0495 30.6432 9.49219 31.2578C8.9401 31.8776 8.13021 32.1875 7.0625 32.1875ZM21.9222 17.5781V24.9688C21.9222 25.8125 21.7399 26.5521 21.3753 27.1875C21.0159 27.8177 20.4925 28.3047 19.805 28.6484C19.1227 28.987 18.305 29.1562 17.3519 29.1562C15.9352 29.1562 14.8336 28.7812 14.0472 28.0312C13.2607 27.2812 12.8675 26.25 12.8675 24.9375V17.5781H14.7425V24.8047C14.7425 25.7474 14.9612 26.4427 15.3987 26.8906C15.8362 27.3385 16.5081 27.5625 17.4144 27.5625C19.1748 27.5625 20.055 26.638 20.055 24.7891V17.5781H21.9222ZM34.0397 29H31.7506L26.1334 19.8984H26.0709L26.11 20.4062C26.1829 21.375 26.2194 22.2604 26.2194 23.0625V29H24.5241V17.5781H26.7897L32.3913 26.6328H32.4381C32.4277 26.513 32.4069 26.0781 32.3756 25.3281C32.3444 24.5729 32.3288 23.9844 32.3288 23.5625V17.5781H34.0397V29ZM43.1963 29H36.7353V17.5781H43.1963V19.1562H38.6025V22.2656H42.9072V23.8281H38.6025V27.4141H43.1963V29Z" fill="#4D5F66"/>
<path d="M14.625 47H6.64062V45.3203L9.50781 42.4219C10.3568 41.5521 10.9115 40.9505 11.1719 40.6172C11.4323 40.2786 11.6198 39.9661 11.7344 39.6797C11.849 39.3932 11.9062 39.0964 11.9062 38.7891C11.9062 38.3307 11.7786 37.9896 11.5234 37.7656C11.2734 37.5417 10.9375 37.4297 10.5156 37.4297C10.0729 37.4297 9.64323 37.5312 9.22656 37.7344C8.8099 37.9375 8.375 38.2266 7.92188 38.6016L6.60938 37.0469C7.17188 36.5677 7.63802 36.2292 8.00781 36.0312C8.3776 35.8333 8.78125 35.6823 9.21875 35.5781C9.65625 35.4688 10.1458 35.4141 10.6875 35.4141C11.401 35.4141 12.0312 35.5443 12.5781 35.8047C13.125 36.0651 13.5495 36.4297 13.8516 36.8984C14.1536 37.3672 14.3047 37.9036 14.3047 38.5078C14.3047 39.0339 14.2109 39.5286 14.0234 39.9922C13.8411 40.4505 13.5547 40.9219 13.1641 41.4062C12.7786 41.8906 12.0964 42.5807 11.1172 43.4766L9.64844 44.8594V44.9688H14.625V47ZM23.3831 41.2891C23.3831 43.2839 23.055 44.7604 22.3988 45.7188C21.7477 46.6771 20.7425 47.1562 19.3831 47.1562C18.0654 47.1562 17.0706 46.6615 16.3988 45.6719C15.7321 44.6823 15.3988 43.2214 15.3988 41.2891C15.3988 39.2734 15.7243 37.7891 16.3753 36.8359C17.0264 35.8776 18.029 35.3984 19.3831 35.3984C20.7008 35.3984 21.6956 35.8984 22.3675 36.8984C23.0446 37.8984 23.3831 39.362 23.3831 41.2891ZM17.7972 41.2891C17.7972 42.6901 17.917 43.6953 18.1566 44.3047C18.4014 44.9089 18.8102 45.2109 19.3831 45.2109C19.9456 45.2109 20.3519 44.9036 20.6019 44.2891C20.8519 43.6745 20.9769 42.6745 20.9769 41.2891C20.9769 39.888 20.8493 38.8828 20.5941 38.2734C20.3441 37.6589 19.9404 37.3516 19.3831 37.3516C18.8154 37.3516 18.4092 37.6589 18.1644 38.2734C17.9196 38.8828 17.7972 39.888 17.7972 41.2891ZM32.2663 47H24.2819V45.3203L27.1491 42.4219C27.998 41.5521 28.5527 40.9505 28.8131 40.6172C29.0735 40.2786 29.261 39.9661 29.3756 39.6797C29.4902 39.3932 29.5475 39.0964 29.5475 38.7891C29.5475 38.3307 29.4199 37.9896 29.1647 37.7656C28.9147 37.5417 28.5788 37.4297 28.1569 37.4297C27.7142 37.4297 27.2845 37.5312 26.8678 37.7344C26.4511 37.9375 26.0163 38.2266 25.5631 38.6016L24.2506 37.0469C24.8131 36.5677 25.2793 36.2292 25.6491 36.0312C26.0189 35.8333 26.4225 35.6823 26.86 35.5781C27.2975 35.4688 27.7871 35.4141 28.3288 35.4141C29.0423 35.4141 29.6725 35.5443 30.2194 35.8047C30.7663 36.0651 31.1907 36.4297 31.4928 36.8984C31.7949 37.3672 31.9459 37.9036 31.9459 38.5078C31.9459 39.0339 31.8522 39.5286 31.6647 39.9922C31.4824 40.4505 31.1959 40.9219 30.8053 41.4062C30.4199 41.8906 29.7376 42.5807 28.7584 43.4766L27.2897 44.8594V44.9688H32.2663V47ZM40.6416 38.1328C40.6416 38.8464 40.4254 39.4531 39.9931 39.9531C39.5608 40.4531 38.9541 40.7969 38.1728 40.9844V41.0312C39.0947 41.1458 39.7926 41.4271 40.2666 41.875C40.7405 42.3177 40.9775 42.9167 40.9775 43.6719C40.9775 44.7708 40.5791 45.6276 39.7822 46.2422C38.9853 46.8516 37.8473 47.1562 36.3681 47.1562C35.1285 47.1562 34.0296 46.9505 33.0713 46.5391V44.4844C33.514 44.7083 34.0009 44.8906 34.5322 45.0312C35.0634 45.1719 35.5895 45.2422 36.1103 45.2422C36.9072 45.2422 37.4957 45.1068 37.8759 44.8359C38.2561 44.5651 38.4463 44.1302 38.4463 43.5312C38.4463 42.9948 38.2275 42.6146 37.79 42.3906C37.3525 42.1667 36.6546 42.0547 35.6963 42.0547H34.8291V40.2031H35.7119C36.5973 40.2031 37.2431 40.0885 37.6494 39.8594C38.0608 39.625 38.2666 39.2266 38.2666 38.6641C38.2666 37.7995 37.7249 37.3672 36.6416 37.3672C36.2666 37.3672 35.8838 37.4297 35.4931 37.5547C35.1077 37.6797 34.678 37.8958 34.2041 38.2031L33.0869 36.5391C34.1285 35.7891 35.3707 35.4141 36.8134 35.4141C37.9957 35.4141 38.928 35.6536 39.6103 36.1328C40.2978 36.612 40.6416 37.2786 40.6416 38.1328Z" fill="#4D5F66"/>
<path d="M61.7987 51.667H58.332C56.1229 51.667 54.332 53.4579 54.332 55.667V59.1337" stroke="#C4CED7"/>
<path d="M1 11.1331H61.8" stroke="#C4CED7"/>
<rect x="10.0664" y="1" width="2.66667" height="5.86667" rx="1.33333" fill="white" stroke="#C4CED7"/>
<rect x="50.0664" y="1" width="2.66667" height="5.86667" rx="1.33333" fill="white" stroke="#C4CED7"/>
<path d="M62 34H104" stroke="#92C9FF"/>
<circle cx="104" cy="34" r="5" fill="white" stroke="#92C9FF"/>
</svg>
