<svg width="110" height="66" viewBox="0 0 110 66" fill="none" xmlns="http://www.w3.org/2000/svg">
<rect x="48" y="4.20001" width="60.8" height="60.8" rx="4" stroke="#C4CED7"/>
<rect x="48" y="4.20001" width="60.8" height="58.1333" rx="4" stroke="#C4CED7"/>
<path d="M48 8.20001C48 5.99087 49.7909 4.20001 52 4.20001H104.8C107.009 4.20001 108.8 5.99087 108.8 8.20001V50.0959C108.8 51.1056 108.418 52.0779 107.731 52.8177L103.054 57.8552C102.297 58.6702 101.235 59.1333 100.122 59.1333H52C49.7909 59.1333 48 57.3425 48 55.1333V8.20001Z" stroke="#C4CED7"/>
<path d="M60.4453 29L57.1328 19.4609H57.0703C57.1589 20.8776 57.2031 22.2057 57.2031 23.4453V29H55.5078V17.5781H58.1406L61.3125 26.6641H61.3594L64.625 17.5781H67.2656V29H65.4688V23.3516C65.4688 22.7839 65.4818 22.0443 65.5078 21.1328C65.5391 20.2214 65.5651 19.6693 65.5859 19.4766H65.5234L62.0938 29H60.4453ZM77.0394 29L75.8988 25.8281H71.5316L70.4144 29H68.4456L72.7191 17.5312H74.7503L79.0238 29H77.0394ZM75.4066 24.2188L74.3363 21.1094C74.2581 20.901 74.1488 20.5729 74.0081 20.125C73.8727 19.6771 73.779 19.349 73.7269 19.1406C73.5863 19.7812 73.3805 20.4818 73.1097 21.2422L72.0784 24.2188H75.4066ZM83.4381 22.7891L86.1413 17.5781H88.1725L84.3678 24.5703V29H82.4928V24.6328L78.7038 17.5781H80.735L83.4381 22.7891Z" fill="#4D5F66"/>
<path d="M61.625 47H53.6406V45.3203L56.5078 42.4219C57.0859 41.8281 57.5495 41.3333 57.8984 40.9375C58.2526 40.5365 58.5078 40.1719 58.6641 39.8438C58.8255 39.5156 58.9062 39.1641 58.9062 38.7891C58.9062 38.3359 58.7786 37.9974 58.5234 37.7734C58.2734 37.5443 57.9375 37.4297 57.5156 37.4297C57.0729 37.4297 56.6432 37.5312 56.2266 37.7344C55.8099 37.9375 55.375 38.2266 54.9219 38.6016L53.6094 37.0469C53.9375 36.7656 54.2839 36.5 54.6484 36.25C55.0182 36 55.4453 35.7995 55.9297 35.6484C56.4193 35.4922 57.0052 35.4141 57.6875 35.4141C58.4375 35.4141 59.0807 35.5495 59.6172 35.8203C60.1589 36.0911 60.5755 36.4609 60.8672 36.9297C61.1589 37.3932 61.3047 37.9193 61.3047 38.5078C61.3047 39.138 61.1797 39.7135 60.9297 40.2344C60.6797 40.7552 60.3151 41.2708 59.8359 41.7812C59.362 42.2917 58.7891 42.8568 58.1172 43.4766L56.6484 44.8594V44.9688H61.625V47ZM70.3988 41.2891C70.3988 42.2109 70.3258 43.0339 70.18 43.7578C70.0394 44.4818 69.8102 45.0964 69.4925 45.6016C69.18 46.1068 68.7685 46.4922 68.2581 46.7578C67.7477 47.0234 67.1279 47.1562 66.3988 47.1562C65.4821 47.1562 64.7295 46.9245 64.1409 46.4609C63.5524 45.9922 63.1175 45.3203 62.8363 44.4453C62.555 43.5651 62.4144 42.513 62.4144 41.2891C62.4144 40.0547 62.542 39 62.7972 38.125C63.0576 37.2448 63.4795 36.5703 64.0628 36.1016C64.6461 35.6328 65.4248 35.3984 66.3988 35.3984C67.3102 35.3984 68.0602 35.6328 68.6488 36.1016C69.2425 36.5651 69.6826 37.237 69.9691 38.1172C70.2555 38.9922 70.3988 40.0495 70.3988 41.2891ZM64.8128 41.2891C64.8128 42.1589 64.8597 42.8854 64.9534 43.4688C65.0524 44.0469 65.2165 44.4818 65.4456 44.7734C65.6748 45.0651 65.9925 45.2109 66.3988 45.2109C66.7998 45.2109 67.1149 45.0677 67.3441 44.7812C67.5784 44.4896 67.7451 44.0547 67.8441 43.4766C67.943 42.8932 67.9925 42.1641 67.9925 41.2891C67.9925 40.4193 67.943 39.6927 67.8441 39.1094C67.7451 38.526 67.5784 38.0885 67.3441 37.7969C67.1149 37.5 66.7998 37.3516 66.3988 37.3516C65.9925 37.3516 65.6748 37.5 65.4456 37.7969C65.2165 38.0885 65.0524 38.526 64.9534 39.1094C64.8597 39.6927 64.8128 40.4193 64.8128 41.2891ZM79.2975 47H71.3131V45.3203L74.1803 42.4219C74.7584 41.8281 75.222 41.3333 75.5709 40.9375C75.9251 40.5365 76.1803 40.1719 76.3366 39.8438C76.498 39.5156 76.5788 39.1641 76.5788 38.7891C76.5788 38.3359 76.4511 37.9974 76.1959 37.7734C75.9459 37.5443 75.61 37.4297 75.1881 37.4297C74.7454 37.4297 74.3157 37.5312 73.8991 37.7344C73.4824 37.9375 73.0475 38.2266 72.5944 38.6016L71.2819 37.0469C71.61 36.7656 71.9564 36.5 72.3209 36.25C72.6907 36 73.1178 35.7995 73.6022 35.6484C74.0918 35.4922 74.6777 35.4141 75.36 35.4141C76.11 35.4141 76.7532 35.5495 77.2897 35.8203C77.8314 36.0911 78.248 36.4609 78.5397 36.9297C78.8314 37.3932 78.9772 37.9193 78.9772 38.5078C78.9772 39.138 78.8522 39.7135 78.6022 40.2344C78.3522 40.7552 77.9876 41.2708 77.5084 41.7812C77.0345 42.2917 76.4616 42.8568 75.7897 43.4766L74.3209 44.8594V44.9688H79.2975V47ZM87.6884 38.1328C87.6884 38.6589 87.5791 39.1146 87.3603 39.5C87.1416 39.8854 86.8447 40.2005 86.4697 40.4453C86.0999 40.6901 85.6832 40.8698 85.2197 40.9844V41.0312C86.1364 41.1458 86.8317 41.4271 87.3056 41.875C87.7848 42.3229 88.0244 42.9219 88.0244 43.6719C88.0244 44.3385 87.8603 44.9349 87.5322 45.4609C87.2093 45.987 86.7093 46.401 86.0322 46.7031C85.3551 47.0052 84.4827 47.1562 83.415 47.1562C82.7848 47.1562 82.1963 47.1042 81.6494 47C81.1077 46.901 80.5973 46.7474 80.1181 46.5391V44.4844C80.6077 44.7344 81.1207 44.9245 81.6572 45.0547C82.1936 45.1797 82.6936 45.2422 83.1572 45.2422C84.0218 45.2422 84.6259 45.0938 84.9697 44.7969C85.3186 44.4948 85.4931 44.0729 85.4931 43.5312C85.4931 43.2135 85.4124 42.9453 85.2509 42.7266C85.0895 42.5078 84.8082 42.3411 84.4072 42.2266C84.0114 42.112 83.4567 42.0547 82.7431 42.0547H81.8759V40.2031H82.7588C83.4619 40.2031 83.9957 40.138 84.3603 40.0078C84.7301 39.8724 84.9801 39.6901 85.1103 39.4609C85.2457 39.2266 85.3134 38.9609 85.3134 38.6641C85.3134 38.2578 85.1884 37.9401 84.9384 37.7109C84.6884 37.4818 84.2718 37.3672 83.6884 37.3672C83.3239 37.3672 82.9905 37.4141 82.6884 37.5078C82.3916 37.5964 82.1233 37.7057 81.8838 37.8359C81.6442 37.9609 81.4332 38.0833 81.2509 38.2031L80.1338 36.5391C80.5817 36.2161 81.1051 35.9479 81.7041 35.7344C82.3082 35.5208 83.027 35.4141 83.8603 35.4141C85.0374 35.4141 85.9697 35.651 86.6572 36.125C87.3447 36.599 87.6884 37.2682 87.6884 38.1328Z" fill="#4D5F66"/>
<path d="M108.799 51.667H105.332C103.123 51.667 101.332 53.4579 101.332 55.667V59.1337" stroke="#C4CED7"/>
<path d="M48 11.1331H108.8" stroke="#C4CED7"/>
<rect x="57.0664" y="1" width="2.66667" height="5.86667" rx="1.33333" fill="white" stroke="#C4CED7"/>
<rect x="97.0664" y="1" width="2.66667" height="5.86667" rx="1.33333" fill="white" stroke="#C4CED7"/>
<path d="M6 33H48" stroke="#92C9FF"/>
<circle cx="6" cy="33" r="5" fill="white" stroke="#92C9FF"/>
</svg>
