<svg width="110" height="66" viewBox="0 0 110 66" fill="none" xmlns="http://www.w3.org/2000/svg">
<rect x="48" y="4.20001" width="60.8" height="60.8" rx="4" stroke="#C4CED7"/>
<rect x="48" y="4.20001" width="60.8" height="58.1333" rx="4" stroke="#C4CED7"/>
<path d="M48 8.20001C48 5.99087 49.7909 4.20001 52 4.20001H104.8C107.009 4.20001 108.8 5.99087 108.8 8.20001V50.0959C108.8 51.1056 108.418 52.0779 107.731 52.8177L103.054 57.8552C102.297 58.6702 101.235 59.1333 100.122 59.1333H52C49.7909 59.1333 48 57.3425 48 55.1333V8.20001Z" stroke="#C4CED7"/>
<path d="M62.0938 25.8984C62.0938 26.9141 61.7266 27.7109 60.9922 28.2891C60.2578 28.8672 59.2448 29.1562 57.9531 29.1562C56.6615 29.1562 55.6042 28.9557 54.7812 28.5547V26.7891C55.3021 27.0339 55.8542 27.2266 56.4375 27.3672C57.026 27.5078 57.5729 27.5781 58.0781 27.5781C58.8177 27.5781 59.362 27.4375 59.7109 27.1562C60.0651 26.875 60.2422 26.4974 60.2422 26.0234C60.2422 25.5964 60.0807 25.2344 59.7578 24.9375C59.4349 24.6406 58.7682 24.2891 57.7578 23.8828C56.7161 23.4609 55.9818 22.9792 55.5547 22.4375C55.1276 21.8958 54.9141 21.2448 54.9141 20.4844C54.9141 19.5312 55.2526 18.7812 55.9297 18.2344C56.6068 17.6875 57.5156 17.4141 58.6562 17.4141C59.75 17.4141 60.8385 17.6536 61.9219 18.1328L61.3281 19.6562C60.3125 19.2292 59.4062 19.0156 58.6094 19.0156C58.0052 19.0156 57.5469 19.1484 57.2344 19.4141C56.9219 19.6745 56.7656 20.0208 56.7656 20.4531C56.7656 20.75 56.8281 21.0052 56.9531 21.2188C57.0781 21.4271 57.2839 21.625 57.5703 21.8125C57.8568 22 58.3724 22.2474 59.1172 22.5547C59.9557 22.9036 60.5703 23.2292 60.9609 23.5312C61.3516 23.8333 61.638 24.1745 61.8203 24.5547C62.0026 24.9349 62.0938 25.3828 62.0938 25.8984ZM70.4456 29H63.9847V17.5781H70.4456V19.1562H65.8519V22.2656H70.1566V23.8281H65.8519V27.4141H70.4456V29ZM80.1647 21.0312C80.1647 22.224 79.7741 23.138 78.9928 23.7734C78.2116 24.4089 77.0996 24.7266 75.6569 24.7266H74.4694V29H72.6022V17.5781H75.8913C77.3183 17.5781 78.386 17.8698 79.0944 18.4531C79.8079 19.0365 80.1647 19.8958 80.1647 21.0312ZM74.4694 23.1562H75.4616C76.4199 23.1562 77.123 22.9896 77.5709 22.6562C78.0189 22.3229 78.2428 21.8021 78.2428 21.0938C78.2428 20.4375 78.0423 19.9479 77.6413 19.625C77.2402 19.3021 76.6152 19.1406 75.7663 19.1406H74.4694V23.1562ZM86.0713 29H84.2041V19.1797H80.8447V17.5781H89.4306V19.1797H86.0713V29Z" fill="#4D5F66"/>
<path d="M61.625 47H53.6406V45.3203L56.5078 42.4219C57.3568 41.5521 57.9115 40.9505 58.1719 40.6172C58.4323 40.2786 58.6198 39.9661 58.7344 39.6797C58.849 39.3932 58.9062 39.0964 58.9062 38.7891C58.9062 38.3307 58.7786 37.9896 58.5234 37.7656C58.2734 37.5417 57.9375 37.4297 57.5156 37.4297C57.0729 37.4297 56.6432 37.5312 56.2266 37.7344C55.8099 37.9375 55.375 38.2266 54.9219 38.6016L53.6094 37.0469C54.1719 36.5677 54.638 36.2292 55.0078 36.0312C55.3776 35.8333 55.7812 35.6823 56.2188 35.5781C56.6562 35.4688 57.1458 35.4141 57.6875 35.4141C58.401 35.4141 59.0312 35.5443 59.5781 35.8047C60.125 36.0651 60.5495 36.4297 60.8516 36.8984C61.1536 37.3672 61.3047 37.9036 61.3047 38.5078C61.3047 39.0339 61.2109 39.5286 61.0234 39.9922C60.8411 40.4505 60.5547 40.9219 60.1641 41.4062C59.7786 41.8906 59.0964 42.5807 58.1172 43.4766L56.6484 44.8594V44.9688H61.625V47ZM70.3831 41.2891C70.3831 43.2839 70.055 44.7604 69.3988 45.7188C68.7477 46.6771 67.7425 47.1562 66.3831 47.1562C65.0654 47.1562 64.0706 46.6615 63.3988 45.6719C62.7321 44.6823 62.3988 43.2214 62.3988 41.2891C62.3988 39.2734 62.7243 37.7891 63.3753 36.8359C64.0264 35.8776 65.029 35.3984 66.3831 35.3984C67.7008 35.3984 68.6956 35.8984 69.3675 36.8984C70.0446 37.8984 70.3831 39.362 70.3831 41.2891ZM64.7972 41.2891C64.7972 42.6901 64.917 43.6953 65.1566 44.3047C65.4014 44.9089 65.8102 45.2109 66.3831 45.2109C66.9456 45.2109 67.3519 44.9036 67.6019 44.2891C67.8519 43.6745 67.9769 42.6745 67.9769 41.2891C67.9769 39.888 67.8493 38.8828 67.5941 38.2734C67.3441 37.6589 66.9404 37.3516 66.3831 37.3516C65.8154 37.3516 65.4092 37.6589 65.1644 38.2734C64.9196 38.8828 64.7972 39.888 64.7972 41.2891ZM79.2663 47H71.2819V45.3203L74.1491 42.4219C74.998 41.5521 75.5527 40.9505 75.8131 40.6172C76.0735 40.2786 76.261 39.9661 76.3756 39.6797C76.4902 39.3932 76.5475 39.0964 76.5475 38.7891C76.5475 38.3307 76.4199 37.9896 76.1647 37.7656C75.9147 37.5417 75.5788 37.4297 75.1569 37.4297C74.7142 37.4297 74.2845 37.5312 73.8678 37.7344C73.4511 37.9375 73.0163 38.2266 72.5631 38.6016L71.2506 37.0469C71.8131 36.5677 72.2793 36.2292 72.6491 36.0312C73.0189 35.8333 73.4225 35.6823 73.86 35.5781C74.2975 35.4688 74.7871 35.4141 75.3288 35.4141C76.0423 35.4141 76.6725 35.5443 77.2194 35.8047C77.7663 36.0651 78.1907 36.4297 78.4928 36.8984C78.7949 37.3672 78.9459 37.9036 78.9459 38.5078C78.9459 39.0339 78.8522 39.5286 78.6647 39.9922C78.4824 40.4505 78.1959 40.9219 77.8053 41.4062C77.4199 41.8906 76.7376 42.5807 75.7584 43.4766L74.2897 44.8594V44.9688H79.2663V47ZM87.6416 38.1328C87.6416 38.8464 87.4254 39.4531 86.9931 39.9531C86.5608 40.4531 85.9541 40.7969 85.1728 40.9844V41.0312C86.0947 41.1458 86.7926 41.4271 87.2666 41.875C87.7405 42.3177 87.9775 42.9167 87.9775 43.6719C87.9775 44.7708 87.5791 45.6276 86.7822 46.2422C85.9853 46.8516 84.8473 47.1562 83.3681 47.1562C82.1285 47.1562 81.0296 46.9505 80.0713 46.5391V44.4844C80.514 44.7083 81.0009 44.8906 81.5322 45.0312C82.0634 45.1719 82.5895 45.2422 83.1103 45.2422C83.9072 45.2422 84.4957 45.1068 84.8759 44.8359C85.2561 44.5651 85.4463 44.1302 85.4463 43.5312C85.4463 42.9948 85.2275 42.6146 84.79 42.3906C84.3525 42.1667 83.6546 42.0547 82.6963 42.0547H81.8291V40.2031H82.7119C83.5973 40.2031 84.2431 40.0885 84.6494 39.8594C85.0608 39.625 85.2666 39.2266 85.2666 38.6641C85.2666 37.7995 84.7249 37.3672 83.6416 37.3672C83.2666 37.3672 82.8838 37.4297 82.4931 37.5547C82.1077 37.6797 81.678 37.8958 81.2041 38.2031L80.0869 36.5391C81.1285 35.7891 82.3707 35.4141 83.8134 35.4141C84.9957 35.4141 85.928 35.6536 86.6103 36.1328C87.2978 36.612 87.6416 37.2786 87.6416 38.1328Z" fill="#4D5F66"/>
<path d="M108.799 51.667H105.332C103.123 51.667 101.332 53.4579 101.332 55.667V59.1337" stroke="#C4CED7"/>
<path d="M48 11.1331H108.8" stroke="#C4CED7"/>
<rect x="57.0664" y="1" width="2.66667" height="5.86667" rx="1.33333" fill="white" stroke="#C4CED7"/>
<rect x="97.0664" y="1" width="2.66667" height="5.86667" rx="1.33333" fill="white" stroke="#C4CED7"/>
<path d="M6 33H48" stroke="#92C9FF"/>
<circle cx="6" cy="33" r="5" fill="white" stroke="#92C9FF"/>
</svg>
