<svg width="36" height="36" viewBox="0 0 36 36" fill="none" xmlns="http://www.w3.org/2000/svg">
<mask id="mask0_1_4375" style="mask-type:alpha" maskUnits="userSpaceOnUse" x="0" y="0" width="36" height="36">
<rect width="36" height="36" fill="#D9D9D9"/>
</mask>
<g mask="url(#mask0_1_4375)">
<path fill-rule="evenodd" clip-rule="evenodd" d="M17.3413 14.49H18.6587C18.7609 14.49 18.8621 14.5102 18.9564 14.5496C19.0508 14.589 19.1366 14.6466 19.2088 14.7194C19.281 14.7921 19.3383 14.8784 19.3774 14.9735C19.4165 15.0685 19.4366 15.1703 19.4366 15.2732V25.7449C19.4365 25.9525 19.3545 26.1517 19.2087 26.2985C19.0628 26.4453 18.865 26.5277 18.6587 26.5277H17.3413C17.135 26.5277 16.9372 26.4453 16.7913 26.2985C16.6455 26.1517 16.5635 25.9525 16.5634 25.7449V15.2729C16.5634 15.0652 16.6454 14.8659 16.7912 14.7191C16.9371 14.5722 17.1349 14.49 17.3413 14.49ZM8.69516 14.49H10.0127C10.1148 14.49 10.216 14.5102 10.3104 14.5496C10.4047 14.589 10.4905 14.6466 10.5627 14.7194C10.6349 14.7921 10.6923 14.8784 10.7314 14.9735C10.7704 15.0685 10.7905 15.1703 10.7905 15.2732V25.7449C10.7904 25.9525 10.7084 26.1517 10.5626 26.2985C10.4167 26.4453 10.219 26.5277 10.0127 26.5277H8.69516C8.48893 26.5277 8.29109 26.4453 8.14523 26.2985C7.99945 26.1517 7.91746 25.9525 7.91738 25.7449V15.2729C7.91738 15.0652 7.99927 14.8659 8.14514 14.7191C8.291 14.5722 8.48884 14.49 8.69516 14.49ZM25.9873 14.49H27.3048C27.407 14.49 27.5081 14.5102 27.6025 14.5496C27.6968 14.589 27.7826 14.6466 27.8549 14.7194C27.927 14.7921 27.9844 14.8784 28.0235 14.9735C28.0625 15.0685 28.0826 15.1703 28.0826 15.2732V25.7449C28.0825 25.9525 28.0005 26.1517 27.8548 26.2985C27.7089 26.4453 27.5111 26.5277 27.3048 26.5277H25.9873C25.7811 26.5277 25.5834 26.4451 25.4376 26.2984C25.2918 26.1516 25.2098 25.9525 25.2098 25.7449V15.2729C25.2098 15.0652 25.2917 14.866 25.4375 14.7192C25.5833 14.5724 25.781 14.4901 25.9873 14.49ZM30.5935 10.9883L18.3799 4.09985C18.2638 4.03438 18.1329 4 17.9998 4C17.8667 4 17.7359 4.03438 17.6198 4.09985L5.40678 10.9877H4.77781C4.67564 10.9877 4.57447 11.0079 4.48009 11.0473C4.3857 11.0866 4.29994 11.1444 4.22771 11.2171C4.15548 11.2899 4.09819 11.3763 4.05912 11.4713C4.02005 11.5664 3.99997 11.6682 4 11.7711V12.688C4.00008 12.8957 4.08206 13.0948 4.22792 13.2417C4.37378 13.3885 4.57158 13.4709 4.77781 13.4709H31.2219C31.3241 13.471 31.4252 13.4508 31.5195 13.4114C31.614 13.3721 31.6997 13.3145 31.772 13.2418C31.8442 13.169 31.9016 13.0828 31.9407 12.9877C31.9798 12.8927 32 12.7909 32 12.688V11.7711C31.9999 11.5634 31.9179 11.3643 31.7721 11.2175C31.6262 11.0707 31.4284 10.9883 31.2222 10.9883H30.5935ZM18 11.2458C17.4849 11.2458 16.9909 11.0398 16.6266 10.673C16.2623 10.3063 16.0577 9.80886 16.0577 9.29016C16.0577 8.77155 16.2623 8.27411 16.6266 7.90731C16.9909 7.5406 17.4849 7.33454 18 7.33454C18.5151 7.33454 19.0091 7.5406 19.3734 7.90731C19.7377 8.27411 19.9423 8.77155 19.9423 9.29016C19.9423 9.80886 19.7377 10.3063 19.3734 10.673C19.0091 11.0398 18.5151 11.2458 18 11.2458ZM29.8157 27.5469H6.18426C6.08215 27.5469 5.981 27.5672 5.88668 27.6065C5.79235 27.6459 5.70658 27.7037 5.63439 27.7764C5.56219 27.8492 5.50493 27.9355 5.46587 28.0306C5.42682 28.1256 5.40674 28.2274 5.40678 28.3302V29.5173H4.77781C4.57158 29.5173 4.37378 29.5998 4.22792 29.7466C4.08206 29.8934 4.00008 30.0925 4 30.3001V31.2171C4.00008 31.4248 4.08206 31.6239 4.22792 31.7707C4.37378 31.9176 4.57158 32 4.77781 32H31.2219C31.4282 32 31.626 31.9175 31.7719 31.7707C31.9177 31.6238 31.9997 31.4246 31.9997 31.2169V30.3001C31.9996 30.0925 31.9177 29.8934 31.7718 29.7466C31.6259 29.5998 31.4281 29.5173 31.2219 29.5173H30.5933V28.3302C30.5933 28.2274 30.5731 28.1255 30.5341 28.0305C30.495 27.9355 30.4378 27.8491 30.3655 27.7763C30.2933 27.7036 30.2076 27.6458 30.1132 27.6065C30.0187 27.5671 29.9179 27.5469 29.8157 27.5469Z" fill="#3DA4C2"/>
</g>
</svg>
