<svg width="54" height="54" viewBox="0 0 54 54" fill="none" xmlns="http://www.w3.org/2000/svg">
<path fill-rule="evenodd" clip-rule="evenodd" d="M4.93597 1.6875C4.07558 1.6875 3.25032 2.02883 2.64132 2.63657C2.0325 3.24413 1.68949 4.06835 1.6875 4.92844V28.2656C1.6875 28.7316 1.30974 29.1094 0.84375 29.1094C0.37776 29.1094 0 28.7316 0 28.2656V4.92752L1.81049e-06 4.92578C0.00269733 3.61846 0.523929 2.36557 1.44931 1.4421C2.37469 0.518628 3.62865 -2.81631e-06 4.93597 0H49.0725C49.7196 0 50.3604 0.127473 50.9582 0.375097C51.556 0.622726 52.0992 0.985668 52.5568 1.44323C53.0143 1.9008 53.3773 2.44404 53.6249 3.04186C53.8726 3.6397 54 4.28044 54 4.92752V49.0641C54 50.3714 53.4814 51.6253 52.5579 52.5507C51.6344 53.4761 50.3816 53.9973 49.0743 54L49.0725 54H25.6331C25.1671 54 24.7894 53.6222 24.7894 53.1562C24.7894 52.6903 25.1671 52.3125 25.6331 52.3125L49.0708 52.3125L49.0722 52.3125C49.9321 52.3103 50.756 51.9674 51.3634 51.3587C51.9712 50.7497 52.3125 49.9245 52.3125 49.0641V4.92752C52.3125 4.50203 52.2287 4.08073 52.0659 3.68764C51.9031 3.29454 51.6644 2.93733 51.3635 2.63647C51.0627 2.33561 50.7055 2.09697 50.3124 1.93414C49.9193 1.77131 49.498 1.6875 49.0725 1.6875H4.93597Z" fill="url(#paint0_linear_0_884)"/>
<path d="M18.1406 33.3281C18.812 33.3281 19.4558 33.5948 19.9305 34.0695C20.4052 34.5442 20.6719 35.188 20.6719 35.8594V49.7812C20.6719 50.4526 20.4052 51.0964 19.9305 51.5711C19.4558 52.0458 18.812 52.3125 18.1406 52.3125H4.21875C3.54742 52.3125 2.90357 52.0458 2.42887 51.5711C1.95417 51.0964 1.6875 50.4526 1.6875 49.7812V35.8594C1.6875 35.188 1.95417 34.5442 2.42887 34.0695C2.90357 33.5948 3.54742 33.3281 4.21875 33.3281H18.1406ZM18.1406 31.6406H4.21875C3.09987 31.6406 2.02682 32.0851 1.23565 32.8763C0.444484 33.6674 8.04835e-09 34.7405 8.04835e-09 35.8594V49.7812C8.04844e-09 50.9001 0.444484 51.9732 1.23565 52.7643C2.02682 53.5555 3.09987 54 4.21875 54H18.1406C19.2595 54 20.3326 53.5555 21.1237 52.7643C21.9149 51.9732 22.3594 50.9001 22.3594 49.7812V35.8594C22.3594 34.7405 21.9149 33.6674 21.1237 32.8763C20.3326 32.0851 19.2595 31.6406 18.1406 31.6406Z" fill="url(#paint1_linear_0_884)"/>
<path fill-rule="evenodd" clip-rule="evenodd" d="M43.8912 10.1123C44.2197 10.4427 44.2182 10.977 43.8877 11.3055L26.228 28.864C25.8976 29.1925 25.3634 29.191 25.0348 28.8605C24.7062 28.5301 24.7078 27.9959 25.0382 27.6673L42.6979 10.1089C43.0284 9.78031 43.5626 9.78184 43.8912 10.1123Z" fill="url(#paint2_linear_0_884)"/>
<path fill-rule="evenodd" clip-rule="evenodd" d="M33.615 10.7072C33.615 10.2412 33.9928 9.86345 34.4588 9.86345H43.2928C43.7588 9.86345 44.1366 10.2412 44.1366 10.7072C44.1366 11.1732 43.7588 11.5509 43.2928 11.5509H34.4588C33.9928 11.5509 33.615 11.1732 33.615 10.7072Z" fill="url(#paint3_linear_0_884)"/>
<path fill-rule="evenodd" clip-rule="evenodd" d="M43.2928 10.4372C43.7588 10.4372 44.1366 10.815 44.1366 11.2809V20.1066C44.1366 20.5726 43.7588 20.9503 43.2928 20.9503C42.8268 20.9503 42.4491 20.5726 42.4491 20.1066V11.2809C42.4491 10.815 42.8268 10.4372 43.2928 10.4372Z" fill="url(#paint4_linear_0_884)"/>
<defs>
<linearGradient id="paint0_linear_0_884" x1="8.35909" y1="6.74624" x2="45.462" y2="43.5248" gradientUnits="userSpaceOnUse">
<stop stop-color="#FE5B52"/>
<stop offset="1" stop-color="#3E96F4"/>
</linearGradient>
<linearGradient id="paint1_linear_0_884" x1="8.35909" y1="6.74624" x2="45.462" y2="43.5248" gradientUnits="userSpaceOnUse">
<stop stop-color="#FE5B52"/>
<stop offset="1" stop-color="#3E96F4"/>
</linearGradient>
<linearGradient id="paint2_linear_0_884" x1="8.35909" y1="6.74624" x2="45.462" y2="43.5248" gradientUnits="userSpaceOnUse">
<stop stop-color="#FE5B52"/>
<stop offset="1" stop-color="#3E96F4"/>
</linearGradient>
<linearGradient id="paint3_linear_0_884" x1="8.35909" y1="6.74624" x2="45.462" y2="43.5248" gradientUnits="userSpaceOnUse">
<stop stop-color="#FE5B52"/>
<stop offset="1" stop-color="#3E96F4"/>
</linearGradient>
<linearGradient id="paint4_linear_0_884" x1="8.35909" y1="6.74624" x2="45.462" y2="43.5248" gradientUnits="userSpaceOnUse">
<stop stop-color="#FE5B52"/>
<stop offset="1" stop-color="#3E96F4"/>
</linearGradient>
</defs>
</svg>
