<svg width="34" height="34" viewBox="0 0 34 34" fill="none" xmlns="http://www.w3.org/2000/svg">
<g id="Group">
<path id="Vector" d="M33.0588 7.10331V2.63696C33.0588 1.21538 31.9023 0.0588379 30.4807 0.0588379H2.63695C1.21537 0.0588379 0.0588226 1.21538 0.0588226 2.63696V30.4807C0.0588226 31.9023 1.21537 33.0588 2.63695 33.0588H30.4807C31.9023 33.0588 33.0588 31.9023 33.0588 30.4807V9.95162C33.0588 9.81487 33.0045 9.68372 32.9078 9.58702C32.8111 9.49032 32.6799 9.43599 32.5432 9.43599C32.4064 9.43599 32.2753 9.49032 32.1786 9.58702C32.0819 9.68372 32.0276 9.81487 32.0276 9.95162V30.4807C32.0276 31.3336 31.3335 32.0276 30.4807 32.0276H2.63695C1.7841 32.0276 1.09007 31.3336 1.09007 30.4807V2.63696C1.09007 1.78412 1.7841 1.09009 2.63695 1.09009H30.4807C31.3335 1.09009 32.0276 1.78412 32.0276 2.63696V6.58768H2.32603C2.18927 6.58768 2.05812 6.64201 1.96142 6.7387C1.86473 6.8354 1.8104 6.96655 1.8104 7.10331C1.8104 7.24006 1.86473 7.37121 1.96142 7.46791C2.05812 7.56461 2.18927 7.61893 2.32603 7.61893H32.5432C32.6799 7.61893 32.8111 7.56461 32.9078 7.46791C33.0045 7.37121 33.0588 7.24006 33.0588 7.10331Z" fill="url(#paint0_linear_305_248)"/>
<path id="Vector_2" d="M29.9738 4.35425C30.1106 4.35425 30.2417 4.29992 30.3384 4.20322C30.4351 4.10653 30.4895 3.97538 30.4895 3.83862C30.4895 3.70187 30.4351 3.57072 30.3384 3.47402C30.2417 3.37732 30.1106 3.323 29.9738 3.323H14.9779C14.8412 3.323 14.71 3.37732 14.6133 3.47402C14.5166 3.57072 14.4623 3.70187 14.4623 3.83862C14.4623 3.97538 14.5166 4.10653 14.6133 4.20322C14.71 4.29992 14.8412 4.35425 14.9779 4.35425H29.9738ZM4.23333 4.35425C4.37008 4.35425 4.50123 4.29992 4.59793 4.20322C4.69463 4.10653 4.74895 3.97538 4.74895 3.83862C4.74895 3.70187 4.69463 3.57072 4.59793 3.47402C4.50123 3.37732 4.37008 3.323 4.23333 3.323H3.05306C2.91631 3.323 2.78516 3.37732 2.68846 3.47402C2.59176 3.57072 2.53744 3.70187 2.53744 3.83862C2.53744 3.97538 2.59176 4.10653 2.68846 4.20322C2.78516 4.29992 2.91631 4.35425 3.05306 4.35425H4.23333ZM7.27448 4.35425C7.41123 4.35425 7.54239 4.29992 7.63908 4.20322C7.73578 4.10653 7.79011 3.97538 7.79011 3.83862C7.79011 3.70187 7.73578 3.57072 7.63908 3.47402C7.54239 3.37732 7.41123 3.323 7.27448 3.323H6.09422C5.95746 3.323 5.82631 3.37732 5.72961 3.47402C5.63292 3.57072 5.57859 3.70187 5.57859 3.83862C5.57859 3.97538 5.63292 4.10653 5.72961 4.20322C5.82631 4.29992 5.95746 4.35425 6.09422 4.35425H7.27448ZM10.3156 4.35425C10.4524 4.35425 10.5835 4.29992 10.6802 4.20322C10.7769 4.10653 10.8313 3.97538 10.8313 3.83862C10.8313 3.70187 10.7769 3.57072 10.6802 3.47402C10.5835 3.37732 10.4524 3.323 10.3156 3.323H9.13537C8.99862 3.323 8.86747 3.37732 8.77077 3.47402C8.67407 3.57072 8.61975 3.70187 8.61975 3.83862C8.61975 3.97538 8.67407 4.10653 8.77077 4.20322C8.86747 4.29992 8.99862 4.35425 9.13537 4.35425H10.3156ZM22.0786 22.3867C21.9418 22.3867 21.8107 22.441 21.714 22.5377C21.6173 22.6344 21.563 22.7656 21.563 22.9023V27.1459C21.563 27.2827 21.6173 27.4138 21.714 27.5105C21.8107 27.6072 21.9418 27.6615 22.0786 27.6615H27.1704C27.3071 27.6615 27.4383 27.6072 27.535 27.5105C27.6317 27.4138 27.686 27.2827 27.686 27.1459V22.9023C27.686 22.7656 27.6317 22.6344 27.535 22.5377C27.4383 22.441 27.3071 22.3867 27.1704 22.3867H25.1399V19.4982C25.1399 19.3614 25.0855 19.2302 24.9888 19.1336C24.8921 19.0369 24.761 18.9825 24.6242 18.9825H17.0745V17.2578H19.404C19.5408 17.2578 19.6719 17.2034 19.7686 17.1067C19.8653 17.01 19.9197 16.8789 19.9197 16.7421V12.4996C19.9197 12.3628 19.8653 12.2317 19.7686 12.135C19.6719 12.0383 19.5408 11.984 19.404 11.984H13.7136C13.5769 11.984 13.4457 12.0383 13.349 12.135C13.2523 12.2317 13.198 12.3628 13.198 12.4996V16.7421C13.198 16.8789 13.2523 17.01 13.349 17.1067C13.4457 17.2034 13.5769 17.2578 13.7136 17.2578H16.0432V18.9825H8.4929C8.35615 18.9825 8.225 19.0369 8.1283 19.1336C8.0316 19.2302 7.97728 19.3614 7.97728 19.4982V22.3867H5.94726C5.81051 22.3867 5.67936 22.441 5.58266 22.5377C5.48596 22.6344 5.43164 22.7656 5.43164 22.9023V27.1459C5.43164 27.2827 5.48596 27.4138 5.58266 27.5105C5.67936 27.6072 5.81051 27.6615 5.94726 27.6615H11.0391C11.1758 27.6615 11.307 27.6072 11.4037 27.5105C11.5004 27.4138 11.5547 27.2827 11.5547 27.1459V22.9023C11.5547 22.7656 11.5004 22.6344 11.4037 22.5377C11.307 22.441 11.1758 22.3867 11.0391 22.3867H9.00853V20.0138H16.0432V22.3867H14.0132C13.8764 22.3867 13.7453 22.441 13.6486 22.5377C13.5519 22.6344 13.4976 22.7656 13.4976 22.9023V27.1459C13.4976 27.2827 13.5519 27.4138 13.6486 27.5105C13.7453 27.6072 13.8764 27.6615 14.0132 27.6615H19.1045C19.2412 27.6615 19.3724 27.6072 19.4691 27.5105C19.5658 27.4138 19.6201 27.2827 19.6201 27.1459V22.9023C19.6201 22.7656 19.5658 22.6344 19.4691 22.5377C19.3724 22.441 19.2412 22.3867 19.1045 22.3867H17.0745V20.0138H24.1086V22.3867H22.0786ZM14.2292 13.0152H18.8884V16.2265H14.2292V13.0152ZM10.5234 26.6298H6.46289V23.4179H10.5234V26.6298ZM18.5888 26.6298H14.5288V23.4179H18.5888V26.6298ZM26.6548 26.6298H22.5942V23.4179H26.6548V26.6298Z" fill="url(#paint1_linear_305_248)"/>
</g>
<defs>
<linearGradient id="paint0_linear_305_248" x1="5.16716" y1="4.18154" x2="27.8412" y2="26.6573" gradientUnits="userSpaceOnUse">
<stop stop-color="#3E96F4"/>
<stop offset="1" stop-color="#31393C"/>
</linearGradient>
<linearGradient id="paint1_linear_305_248" x1="6.86435" y1="6.36362" x2="23.4482" y2="25.2432" gradientUnits="userSpaceOnUse">
<stop stop-color="#3E96F4"/>
<stop offset="1" stop-color="#31393C"/>
</linearGradient>
</defs>
</svg>
