<svg width="48" height="48" viewBox="0 0 48 48" fill="none" xmlns="http://www.w3.org/2000/svg">
<path d="M0 8C0 3.58172 3.58172 0 8 0H40C44.4183 0 48 3.58172 48 8V40C48 44.4183 44.4183 48 40 48H8C3.58172 48 0 44.4183 0 40V8Z" fill="#F5F5F5"/>
<path d="M26.2837 26.5379C26.9197 26.5379 27.437 27.0552 27.437 27.6912C27.4369 28.3272 26.9196 28.8445 26.2837 28.8445C25.6477 28.8445 25.1304 28.3271 25.1303 27.6912C25.1303 27.0552 25.6477 26.538 26.2837 26.5379Z" fill="#4D5F66"/>
<path d="M20.7466 19.1551C21.3825 19.1551 21.9007 19.6725 21.9009 20.3084C21.9009 20.9445 21.3826 21.4617 20.7466 21.4617C20.1107 21.4615 19.5932 20.9443 19.5932 20.3084C19.5933 19.6726 20.1108 19.1553 20.7466 19.1551Z" fill="#4D5F66"/>
<path fill-rule="evenodd" clip-rule="evenodd" d="M22.06 12.5916C22.8756 11.8028 24.1526 11.8028 24.9682 12.5916L26.4331 14.0086C26.5103 14.0837 26.6041 14.1403 26.7065 14.1736C26.809 14.207 26.9182 14.2164 27.0249 14.201L29.0425 13.9158C30.1659 13.7569 31.1999 14.508 31.396 15.6258L31.7485 17.6326C31.7668 17.7387 31.8093 17.8394 31.8725 17.9266C31.9358 18.0137 32.0185 18.0853 32.1137 18.1356L33.9145 19.0916C34.9167 19.6236 35.3113 20.8388 34.813 21.8582L33.9184 23.6893C33.8708 23.7859 33.8462 23.8921 33.8462 23.9998C33.8462 24.1076 33.8708 24.2137 33.9184 24.3104L34.813 26.1414C35.3113 27.161 34.917 28.3772 33.9145 28.909L32.1137 29.8641C32.0185 29.9143 31.9358 29.9859 31.8725 30.0731C31.8093 30.1602 31.7668 30.2609 31.7485 30.367L31.396 32.3738C31.1999 33.4916 30.1664 34.2428 29.0425 34.0838L27.0249 33.7986C26.8071 33.7681 26.5911 33.8382 26.4331 33.991L24.9682 35.408C24.5606 35.8024 24.0373 35.9998 23.5141 35.9998C22.9908 35.9999 22.4679 35.8025 22.06 35.408L20.5952 33.991C20.518 33.9159 20.4242 33.8593 20.3218 33.826C20.2192 33.7927 20.1101 33.7832 20.0034 33.7986L17.9858 34.0838C17.8852 34.098 17.7847 34.1053 17.686 34.1053C16.6834 34.1054 15.811 33.3921 15.6323 32.3748L15.2798 30.367C15.2615 30.2609 15.219 30.1602 15.1557 30.0731C15.0924 29.9859 15.0098 29.9143 14.9145 29.8641L13.1137 28.909C12.1113 28.3771 11.7169 27.161 12.2153 26.1414L13.1098 24.3104C13.1574 24.2137 13.1821 24.1075 13.1821 23.9998C13.1821 23.8921 13.1574 23.7859 13.1098 23.6893L12.2153 21.8582C11.717 20.8388 12.1115 19.6235 13.1137 19.0916L14.9145 18.1356C15.0098 18.0853 15.0924 18.0137 15.1557 17.9266C15.219 17.8394 15.2615 17.7387 15.2798 17.6326L15.6323 15.6258C15.8284 14.508 16.862 13.7568 17.9858 13.9158L20.0034 14.201C20.1101 14.2164 20.2192 14.207 20.3218 14.1736C20.4241 14.1403 20.5171 14.0836 20.5942 14.0086L22.06 12.5916ZM26.2827 25.1531C24.8834 25.1531 23.7446 26.2919 23.7446 27.6912C23.7447 29.0904 24.8834 30.2283 26.2827 30.2283C27.6818 30.2282 28.8197 29.0904 28.8198 27.6912C28.8198 26.292 27.6819 25.1532 26.2827 25.1531ZM28.5708 18.9432C28.3005 18.6729 27.8625 18.6729 27.5923 18.9432L18.4575 28.0779C18.1872 28.3482 18.1872 28.7862 18.4575 29.0565C18.5926 29.1916 18.7697 29.2596 18.9468 29.2596C19.1237 29.2595 19.3009 29.1915 19.436 29.0565L28.5708 19.9217C28.8411 19.6514 28.841 19.2134 28.5708 18.9432ZM20.7456 17.7713C19.3464 17.7713 18.2076 18.9092 18.2075 20.3084C18.2075 21.7077 19.3463 22.8464 20.7456 22.8465C22.1449 22.8465 23.2837 21.7077 23.2837 20.3084C23.2836 18.9092 22.1448 17.7713 20.7456 17.7713Z" fill="#4D5F66"/>
</svg>
