<svg width="48" height="48" viewBox="0 0 48 48" fill="none" xmlns="http://www.w3.org/2000/svg">
<rect width="48" height="48" rx="8" fill="white"/>
<path d="M17.1294 28.7834V35.9999L11.6615 33.5882C11.5392 33.5342 11.4349 33.4464 11.3619 33.3348C11.2889 33.2231 11.25 33.0923 11.2499 32.9591V26.1903L17.1294 28.7834Z" fill="#3E96F4"/>
<path d="M23.1927 25.6611L17.4751 28.1832L14.8469 27.0237L20.5644 24.5023L23.1927 25.6611Z" fill="#3E96F4"/>
<path d="M17.4751 23.2041C17.5715 23.2041 17.6669 23.2243 17.755 23.2631L19.711 24.126L13.9935 26.6474L11.7576 25.6611L17.1947 23.2631C17.2829 23.2242 17.3786 23.2041 17.4751 23.2041Z" fill="#3E96F4"/>
<path d="M17.6503 28.7486V35.9996L22.8312 33.4829C22.9377 33.4266 23.0285 33.3349 23.0921 33.2184C23.1556 33.1019 23.1895 32.9654 23.1895 32.8263L23.3084 26.1895L17.6503 28.7486Z" fill="#3E96F4"/>
<path fill-rule="evenodd" clip-rule="evenodd" d="M16.4648 12C16.868 11.9997 17.2677 12.0787 17.6403 12.2329C18.0128 12.3871 18.3514 12.6129 18.6364 12.8979C18.9215 13.1831 19.1473 13.5222 19.3014 13.8948C19.4556 14.2673 19.5346 14.6664 19.5343 15.0696V22.875L18.3468 22.4918C17.8817 22.3417 17.3778 22.3671 16.9302 22.5632L11.4234 24.9754C10.6959 25.2941 10.2259 26.0131 10.2259 26.8073V32.6214C10.2259 33.5119 10.8144 34.2941 11.6604 34.5723C12.8041 34.9484 14.3452 35.5028 15.1633 35.9999H3.06957C2.66642 36.0002 2.26728 35.9204 1.89477 35.7663C1.52227 35.6121 1.18376 35.3863 0.898679 35.1012C0.613599 34.8161 0.387074 34.4777 0.23291 34.1051C0.0787453 33.7326 -0.000292746 33.3328 8.14755e-07 32.9296V15.0696C-0.000292665 14.6665 0.07883 14.2672 0.23291 13.8948C0.387075 13.5222 0.613569 13.1831 0.898679 12.8979C1.18373 12.613 1.52232 12.387 1.89477 12.2329C2.26726 12.0788 2.66645 11.9997 3.06957 12H16.4648ZM4.18577 20.9297C3.96385 20.9297 3.75093 21.0181 3.59398 21.175C3.43706 21.3319 3.34871 21.5449 3.34862 21.7668C3.34862 21.9888 3.43697 22.2023 3.59398 22.3593C3.75092 22.5162 3.96385 22.6046 4.18577 22.6047H9.76754C9.98947 22.6046 10.2024 22.5162 10.3593 22.3593C10.5163 22.2023 10.6047 21.9888 10.6047 21.7668C10.6046 21.5449 10.5163 21.3319 10.3593 21.175C10.2024 21.0181 9.98947 20.9297 9.76754 20.9297H4.18577ZM4.18577 16.4648C3.96382 16.4649 3.75093 16.5532 3.59398 16.7102C3.43704 16.8672 3.34865 17.08 3.34862 17.302C3.34862 17.5239 3.43708 17.7368 3.59398 17.8938C3.75093 18.0507 3.96382 18.1391 4.18577 18.1391H12C12.222 18.1391 12.4348 18.0508 12.5917 17.8938C12.7487 17.7368 12.8371 17.524 12.8371 17.302C12.8371 17.08 12.7487 16.8672 12.5917 16.7102C12.4348 16.5532 12.222 16.4648 12 16.4648H4.18577Z" fill="#3E96F4"/>
</svg>
