<svg width="56" height="56" viewBox="0 0 56 56" fill="none" xmlns="http://www.w3.org/2000/svg">
<rect width="56" height="56" rx="8" fill="#F0F7FF"/>
<path fill-rule="evenodd" clip-rule="evenodd" d="M29.1109 36.409L23.4377 42.0114C22.7767 42.6642 21.6983 42.6642 21.0372 42.0114L10.4957 31.6017C9.83475 30.9488 9.83475 29.8841 10.4957 29.2313L27.4475 12.4913C27.8004 12.1428 28.2392 11.9767 28.7375 12.0026L36.7865 12.423C37.8197 12.477 38.7381 12.6772 39.4695 13.3997C40.2011 14.1219 40.4037 15.0289 40.4585 16.0491L40.7093 20.7327C40.804 20.7369 40.8994 20.7389 40.9954 20.7389C43.5866 20.7389 45.7528 19.2042 45.7528 17.2067C45.7528 15.2563 43.6877 13.7472 41.1781 13.677C40.9777 13.2653 40.7088 12.8817 40.3515 12.5287C40.333 12.5105 40.3144 12.4925 40.2958 12.4747C40.5284 12.4534 40.7618 12.4428 40.9954 12.4428C44.3486 12.4428 47 14.6218 47 17.2067C47 19.7915 44.3486 21.9706 40.9954 21.9706C37.6421 21.9706 34.9907 19.7916 34.9907 17.2067C34.9907 16.8669 35.2701 16.5909 35.6143 16.5909C35.9584 16.5909 36.2379 16.8669 36.2379 17.2067C36.2379 17.7526 36.3997 18.2639 36.6877 18.7187C37.1693 18.3848 37.4841 17.8321 37.4841 17.2067C37.4841 16.187 36.647 15.3604 35.6143 15.3604C34.6757 15.3604 33.8986 16.0434 33.7649 16.9335C33.75 17.0238 33.7429 17.1153 33.7434 17.2068C33.7434 17.594 33.7901 17.976 33.8795 18.3483C34.5138 20.9891 37.2995 23.1403 40.8415 23.201L40.8842 23.9976C40.9107 24.4896 40.7422 24.923 40.3895 25.2714L40.347 25.3133C39.4334 24.7715 38.3692 24.4602 37.2367 24.4602C35.8396 24.4602 34.5461 24.9341 33.5108 25.7298C32.9675 22.5419 30.1469 20.099 26.7686 20.099C23.004 20.099 19.932 23.1326 19.932 26.8502C19.932 30.5678 23.004 33.6015 26.7686 33.6015C27.5793 33.6022 28.3836 33.4595 29.1433 33.1801C29.1217 33.3016 29.1108 33.4246 29.1109 33.5479V36.409ZM26.152 22.9893V22.5774C26.152 22.2412 26.4283 21.9684 26.7686 21.9684C27.109 21.9684 27.3853 22.2412 27.3853 22.5774V22.9824C28.2022 23.1449 28.9616 23.6508 29.3497 24.5624C29.413 24.7113 29.4138 24.879 29.3521 25.0285C29.2903 25.178 29.1709 25.2972 29.0202 25.3599C28.8694 25.4224 28.6996 25.4232 28.5482 25.3622C28.3968 25.3012 28.2762 25.1833 28.2127 25.0345C27.8414 24.1621 26.8525 23.9829 26.1418 24.2593C25.7274 24.4203 25.3963 24.7514 25.4198 25.232C25.4386 25.6098 25.6848 25.8264 25.9798 25.9688C26.2556 26.102 26.5745 26.1769 26.8747 26.2257C28.0711 26.4189 29.389 26.9519 29.5627 28.3565L29.5628 28.3573C29.732 29.7418 28.578 30.5299 27.3853 30.7272V31.1231C27.3853 31.4591 27.109 31.732 26.7686 31.732C26.4283 31.732 26.152 31.4591 26.152 31.1231V30.7184C25.1325 30.5289 24.2464 29.8799 23.9775 28.8132C23.8953 28.4871 24.0966 28.1564 24.4269 28.0752C24.5856 28.0363 24.7535 28.0611 24.8936 28.1443C25.0338 28.2276 25.1347 28.3623 25.1743 28.519C25.3602 29.2565 26.1135 29.575 26.8431 29.5581C27.2335 29.549 27.6679 29.4525 27.9881 29.2345C28.2213 29.0758 28.3791 28.838 28.3384 28.5037C28.2858 28.0796 27.9941 27.8453 27.6538 27.6929C27.3478 27.5558 27.0006 27.4801 26.6756 27.4276L26.675 27.4275C25.5065 27.2375 24.2558 26.663 24.1879 25.2913V25.2909C24.1367 24.245 24.7882 23.4766 25.69 23.126C25.8399 23.0679 25.9944 23.0222 26.152 22.9893ZM42.1337 31.4338H39.8916V30.5892C39.8916 29.1275 38.6927 27.9257 37.2367 27.9257C35.7806 27.9257 34.5817 29.1275 34.5817 30.5892V31.4338H32.3375V30.5892C32.3375 27.8883 34.5423 25.6781 37.2367 25.6781C39.931 25.6781 42.1337 27.8883 42.1337 30.5892V31.4338ZM31.2403 32.6517H43.233C43.7267 32.6517 44.127 33.0551 44.127 33.5479V43.1039C44.127 43.5988 43.7267 44 43.233 44H31.2403C30.7467 44 30.3442 43.5988 30.3442 43.1039V33.5479C30.3442 33.0551 30.7467 32.6517 31.2403 32.6517ZM34.4321 38.6156L36.1056 40.2681C36.1628 40.3246 36.2308 40.3695 36.3056 40.4001C36.3805 40.4307 36.4607 40.4465 36.5416 40.4465C36.6226 40.4465 36.7028 40.4307 36.7777 40.4001C36.8525 40.3695 36.9204 40.3246 36.9777 40.2681L40.0391 37.2449C40.1547 37.1306 40.2197 36.9758 40.2197 36.8143C40.2197 36.6528 40.1547 36.4979 40.0391 36.3837C39.9235 36.2695 39.7666 36.2054 39.6031 36.2054C39.4396 36.2054 39.2827 36.2695 39.167 36.3837L36.5416 38.9763L35.3042 37.7544C35.0636 37.5167 34.6728 37.5167 34.4321 37.7544C34.1915 37.992 34.1915 38.3779 34.4321 38.6156Z" fill="#3E96F4"/>
</svg>
