<svg width="48" height="48" viewBox="0 0 48 48" fill="none" xmlns="http://www.w3.org/2000/svg">
<rect width="48" height="48" rx="8" fill="white"/>
<path fill-rule="evenodd" clip-rule="evenodd" d="M11.4999 12H11.4756C11.4514 12 11.4246 12 11.3981 12.0051C11.2092 12.0263 11.035 12.1172 10.9096 12.26C10.7842 12.4028 10.7166 12.5873 10.72 12.7774V14.3101C10.7164 14.4114 10.733 14.5124 10.7688 14.6072C10.8046 14.7021 10.8589 14.7888 10.9284 14.8625C10.998 14.9362 11.0816 14.9954 11.1742 15.0365C11.2669 15.0777 11.3667 15.1001 11.4681 15.1023C11.5694 15.1045 11.6702 15.0866 11.7646 15.0496C11.8589 15.0126 11.945 14.9572 12.0178 14.8866C12.0906 14.8161 12.1486 14.7318 12.1886 14.6386C12.2285 14.5455 12.2495 14.4453 12.2505 14.3439V12.7774C12.2538 12.5748 12.1767 12.3792 12.036 12.2334C11.8952 12.0877 11.7024 12.0037 11.4999 12ZM5.55493 16.4797C5.54533 16.4726 5.53801 16.4653 5.53068 16.458L4.44588 15.3779C4.37496 15.3043 4.29 15.2455 4.19603 15.2052C4.10205 15.1648 4.00095 15.1437 3.89868 15.143C3.8719 15.143 3.84537 15.143 3.81884 15.1481C3.71879 15.1586 3.62179 15.1887 3.53341 15.2368C3.44502 15.2848 3.36699 15.3499 3.30377 15.4281C3.24055 15.5064 3.19339 15.5964 3.16499 15.6929C3.13659 15.7894 3.1275 15.8906 3.13825 15.9906C3.1577 16.1674 3.24006 16.3321 3.36587 16.458L4.44588 17.5428C4.51558 17.6156 4.59896 17.6739 4.69126 17.7144C4.78355 17.755 4.88294 17.7769 4.98372 17.7789C5.0845 17.781 5.18469 17.7631 5.27855 17.7263C5.37241 17.6896 5.45809 17.6347 5.53068 17.5647C5.60369 17.4952 5.66225 17.4119 5.703 17.3197C5.74375 17.2274 5.76588 17.1281 5.76814 17.0272C5.77039 16.9264 5.75272 16.8262 5.71613 16.7322C5.67954 16.6382 5.62476 16.5524 5.55493 16.4797ZM19.6119 15.3757C19.5388 15.3014 19.4512 15.2429 19.3545 15.2037C19.2579 15.1646 19.1543 15.1456 19.0501 15.1481C18.8519 15.1543 18.6637 15.2366 18.5246 15.3779L17.4398 16.458C17.2932 16.599 17.2086 16.7924 17.2044 16.9958C17.2003 17.1992 17.2771 17.3959 17.4178 17.5428C17.4873 17.6158 17.5706 17.6743 17.6629 17.7151C17.7551 17.7558 17.8545 17.778 17.9553 17.7802C18.0561 17.7825 18.1564 17.7648 18.2503 17.7282C18.3443 17.6916 18.4301 17.6368 18.5029 17.567C18.5099 17.5597 18.5173 17.5501 18.5246 17.5428L19.6046 16.458C19.6761 16.3874 19.7331 16.3034 19.7722 16.2108C19.8113 16.1182 19.8317 16.0188 19.8324 15.9183C19.8331 15.8178 19.814 15.7182 19.7761 15.6251C19.7383 15.532 19.6825 15.4472 19.6119 15.3757ZM2.33438 22.7323H0.765275C0.565225 22.7324 0.373144 22.8107 0.23015 22.9507C0.0871562 23.0906 0.00461213 23.2809 0.000187473 23.4809C-0.00423718 23.6809 0.0698092 23.8747 0.206476 24.0208C0.343143 24.1668 0.53157 24.2536 0.731422 24.2625H2.298C2.39868 24.265 2.49886 24.2476 2.59281 24.2113C2.68676 24.1751 2.77264 24.1206 2.84552 24.0511C2.9184 23.9816 2.97686 23.8984 3.01756 23.8063C3.05825 23.7142 3.08038 23.6149 3.08267 23.5142C3.08674 23.3114 3.01029 23.1152 2.87004 22.9686C2.7298 22.822 2.53719 22.7372 2.33438 22.7323ZM22.2393 22.7323H20.6725C20.4724 22.7324 20.2803 22.8107 20.1373 22.9507C19.9943 23.0906 19.9118 23.2809 19.9074 23.4809C19.9029 23.6809 19.977 23.8747 20.1137 24.0208C20.2503 24.1668 20.4388 24.2536 20.6386 24.2625H22.2052C22.4081 24.267 22.6045 24.1907 22.7512 24.0503C22.8979 23.91 22.9828 23.7172 22.9873 23.5142C22.9914 23.3114 22.9149 23.1152 22.7747 22.9686C22.6345 22.822 22.4418 22.737 22.239 22.7321L22.2393 22.7323ZM5.55241 29.4539C5.47854 29.3773 5.38959 29.3169 5.29119 29.2765C5.19278 29.236 5.08706 29.2164 4.9807 29.2189H4.9711C4.77249 29.2256 4.58417 29.3089 4.44563 29.4513L3.36562 30.5364C3.21162 30.6688 3.11645 30.8569 3.10101 31.0594C3.08557 31.2619 3.15112 31.4622 3.28326 31.6164C3.35522 31.7001 3.4444 31.7672 3.54471 31.8133C3.64501 31.8593 3.75408 31.8832 3.86444 31.8832C3.97481 31.8832 4.08388 31.8593 4.18418 31.8133C4.28449 31.7672 4.37367 31.7001 4.44563 31.6164L5.53043 30.5364C5.60297 30.4668 5.66108 30.3835 5.70145 30.2914C5.74181 30.1994 5.76364 30.1002 5.76568 29.9997C5.76772 29.8992 5.74994 29.7992 5.71334 29.7056C5.67675 29.6119 5.62206 29.5264 5.55241 29.4539ZM19.6963 30.6286C19.6681 30.5955 19.6374 30.5647 19.6043 30.5364L18.5243 29.4516C18.4533 29.3783 18.3682 29.3199 18.2743 29.28C18.1803 29.2401 18.0792 29.2194 17.9771 29.2192C17.8765 29.2186 17.7767 29.2379 17.6835 29.2759C17.5903 29.314 17.5055 29.37 17.434 29.4409C17.3624 29.5117 17.3056 29.5959 17.2667 29.6888C17.2277 29.7816 17.2075 29.8812 17.2071 29.9819C17.2046 30.19 17.2892 30.3911 17.4395 30.5364L18.5243 31.6164C18.6558 31.7711 18.8431 31.8676 19.0454 31.8848C19.2477 31.902 19.4486 31.8386 19.6043 31.7084C19.6814 31.6436 19.745 31.5642 19.7914 31.4749C19.8378 31.3855 19.8661 31.2878 19.8746 31.1875C19.8831 31.0871 19.8718 30.9861 19.8412 30.8901C19.8106 30.7942 19.7613 30.7055 19.6963 30.6286ZM14.29 35.0914C14.2877 35.2135 14.2614 35.334 14.2123 35.4458C14.1633 35.5577 14.0927 35.6588 14.0044 35.7432C13.9161 35.8276 13.812 35.8937 13.6981 35.9377C13.5842 35.9818 13.4627 36.0028 13.3406 35.9996H9.63116C9.39164 36.0068 9.15858 35.9213 8.98061 35.7608C8.80263 35.6003 8.69349 35.3773 8.67596 35.1384C8.65793 34.8925 8.73815 34.6495 8.89904 34.4627C9.05992 34.2759 9.28833 34.1606 9.53415 34.142C9.53718 34.142 9.53718 34.1392 9.53718 34.1392C9.56952 34.1392 9.59882 34.1392 9.63116 34.142H13.3817C13.5038 34.1444 13.6241 34.171 13.7359 34.2201C13.8477 34.2691 13.9487 34.3398 14.033 34.428C14.1174 34.5162 14.1836 34.6202 14.2276 34.7341C14.2717 34.8479 14.2929 34.9693 14.29 35.0914ZM11.4852 16.6055C7.68816 16.6055 4.59341 19.7002 4.59341 23.4973C4.59341 25.868 5.82879 27.9285 7.65684 29.1661V31.8807C7.6569 32.0836 7.73755 32.2782 7.88104 32.4217C8.02453 32.5652 8.21913 32.6458 8.42206 32.6459H14.5484C14.7514 32.6459 14.9461 32.5652 15.0897 32.4217C15.2332 32.2781 15.3139 32.0834 15.3139 31.8804V29.1664C17.1417 27.9285 18.3765 25.868 18.3765 23.4973C18.3765 19.7002 15.282 16.6055 11.4852 16.6055ZM11.4827 21.2016C11.1807 21.2003 10.8814 21.2589 10.6021 21.374C10.3228 21.489 10.0691 21.6583 9.8557 21.872C9.64225 22.0857 9.47328 22.3396 9.35855 22.619C9.24382 22.8984 9.18561 23.1978 9.18728 23.4998C9.18728 23.9235 8.84573 24.2673 8.42181 24.2673C7.99789 24.2673 7.65431 23.9235 7.65431 23.4998C7.65431 21.3954 9.376 19.6689 11.4827 19.6689C11.5833 19.6687 11.6829 19.6883 11.7759 19.7267C11.8688 19.7651 11.9533 19.8214 12.0244 19.8925C12.0955 19.9636 12.1519 20.0481 12.1903 20.141C12.2287 20.2339 12.2484 20.3336 12.2482 20.4341C12.2484 20.5348 12.2288 20.6346 12.1904 20.7277C12.1521 20.8207 12.0957 20.9054 12.0246 20.9766C11.9535 21.0479 11.8691 21.1045 11.7761 21.1431C11.6831 21.1817 11.5834 21.2016 11.4827 21.2016Z" fill="#3E96F4"/>
</svg>
