<svg width="69" height="69" viewBox="0 0 69 69" fill="none" xmlns="http://www.w3.org/2000/svg">
<rect width="69" height="69" rx="8" fill="#DFE6FF"/>
<path d="M30.687 36H15.2026V33.2188L21.0932 27.2969C22.8328 25.5156 23.9839 24.2552 24.5464 23.5156C25.1193 22.7656 25.536 22.0625 25.7964 21.4062C26.0568 20.75 26.187 20.0469 26.187 19.2969C26.187 18.2656 25.8745 17.4531 25.2495 16.8594C24.6349 16.2656 23.7807 15.9688 22.687 15.9688C21.812 15.9688 20.963 16.1302 20.1401 16.4531C19.3276 16.776 18.3849 17.3594 17.312 18.2031L15.3276 15.7812C16.5985 14.7083 17.8328 13.9479 19.0307 13.5C20.2287 13.0521 21.5047 12.8281 22.8589 12.8281C24.9839 12.8281 26.687 13.3854 27.9682 14.5C29.2495 15.6042 29.8901 17.0938 29.8901 18.9688C29.8901 20 29.7026 20.9792 29.3276 21.9062C28.963 22.8333 28.3953 23.7917 27.6245 24.7812C26.8641 25.7604 25.5932 27.0885 23.812 28.7656L19.8432 32.6094V32.7656H30.687V36ZM42.1345 26H39.922V19.625C39.922 18.825 39.7595 18.2281 39.4345 17.8344C39.1157 17.4406 38.6064 17.2437 37.9064 17.2437C36.9751 17.2437 36.2939 17.5187 35.8626 18.0687C35.4314 18.6187 35.2157 19.5406 35.2157 20.8344V26H33.0126V15.6312H34.7376L35.047 16.9906H35.1595C35.472 16.4969 35.9157 16.1156 36.4907 15.8469C37.0657 15.5781 37.7032 15.4437 38.4032 15.4437C40.8907 15.4437 42.1345 16.7094 42.1345 19.2406V26ZM48.313 26.1875C47.0193 26.1875 46.0099 25.7187 45.2849 24.7812C44.5599 23.8437 44.1974 22.5281 44.1974 20.8344C44.1974 19.1344 44.563 17.8125 45.2943 16.8687C46.0318 15.9187 47.0505 15.4437 48.3505 15.4437C49.713 15.4437 50.7505 15.9469 51.463 16.9531H51.5755C51.4693 16.2094 51.4161 15.6219 51.4161 15.1906V11.4125H53.6286V26H51.9036L51.5193 24.6406H51.4161C50.7099 25.6719 49.6755 26.1875 48.313 26.1875ZM48.9036 24.4062C49.8099 24.4062 50.4693 24.1531 50.8818 23.6469C51.2943 23.1344 51.5068 22.3062 51.5193 21.1625V20.8531C51.5193 19.5469 51.3068 18.6187 50.8818 18.0687C50.4568 17.5187 49.7911 17.2437 48.8849 17.2437C48.1099 17.2437 47.513 17.5594 47.0943 18.1906C46.6755 18.8156 46.4661 19.7094 46.4661 20.8719C46.4661 22.0219 46.6693 22.9 47.0755 23.5062C47.4818 24.1062 48.0911 24.4062 48.9036 24.4062Z" fill="#31393C"/>
<path d="M25.9331 55.8984C25.9331 56.9141 25.5659 57.7109 24.8316 58.2891C24.0972 58.8672 23.0842 59.1562 21.7925 59.1562C20.5008 59.1562 19.4435 58.9557 18.6206 58.5547V56.7891C19.1415 57.0339 19.6935 57.2266 20.2769 57.3672C20.8654 57.5078 21.4123 57.5781 21.9175 57.5781C22.6571 57.5781 23.2014 57.4375 23.5503 57.1562C23.9045 56.875 24.0816 56.4974 24.0816 56.0234C24.0816 55.5964 23.9201 55.2344 23.5972 54.9375C23.2743 54.6406 22.6076 54.2891 21.5972 53.8828C20.5555 53.4609 19.8211 52.9792 19.3941 52.4375C18.967 51.8958 18.7534 51.2448 18.7534 50.4844C18.7534 49.5312 19.092 48.7812 19.7691 48.2344C20.4461 47.6875 21.355 47.4141 22.4956 47.4141C23.5894 47.4141 24.6779 47.6536 25.7612 48.1328L25.1675 49.6562C24.1519 49.2292 23.2456 49.0156 22.4487 49.0156C21.8446 49.0156 21.3862 49.1484 21.0737 49.4141C20.7612 49.6745 20.605 50.0208 20.605 50.4531C20.605 50.75 20.6675 51.0052 20.7925 51.2188C20.9175 51.4271 21.1232 51.625 21.4097 51.8125C21.6961 52 22.2118 52.2474 22.9566 52.5547C23.7951 52.9036 24.4097 53.2292 24.8003 53.5312C25.1909 53.8333 25.4774 54.1745 25.6597 54.5547C25.842 54.9349 25.9331 55.3828 25.9331 55.8984ZM30.8475 57.6719C31.2954 57.6719 31.7433 57.6016 32.1912 57.4609V58.8438C31.9881 58.9323 31.7251 59.0052 31.4022 59.0625C31.0845 59.125 30.7537 59.1562 30.41 59.1562C28.6704 59.1562 27.8006 58.2396 27.8006 56.4062V51.75H26.6209V50.9375L27.8866 50.2656L28.5116 48.4375H29.6444V50.3594H32.1053V51.75H29.6444V56.375C29.6444 56.8177 29.7537 57.1458 29.9725 57.3594C30.1965 57.5677 30.4881 57.6719 30.8475 57.6719ZM37.3791 59.1562C36.0353 59.1562 34.9832 58.7656 34.2228 57.9844C33.4676 57.1979 33.09 56.1172 33.09 54.7422C33.09 53.3307 33.4416 52.2214 34.1447 51.4141C34.8478 50.6068 35.814 50.2031 37.0431 50.2031C38.1838 50.2031 39.0848 50.5495 39.7463 51.2422C40.4077 51.9349 40.7384 52.888 40.7384 54.1016V55.0938H34.9806C35.0067 55.9323 35.2332 56.5781 35.6603 57.0312C36.0874 57.4792 36.689 57.7031 37.465 57.7031C37.9754 57.7031 38.4494 57.6562 38.8869 57.5625C39.3296 57.4635 39.8035 57.3021 40.3088 57.0781V58.5703C39.8608 58.7839 39.4077 58.9349 38.9494 59.0234C38.491 59.112 37.9676 59.1562 37.3791 59.1562ZM37.0431 51.5938C36.4598 51.5938 35.991 51.7786 35.6369 52.1484C35.2879 52.5182 35.0796 53.0573 35.0119 53.7656H38.9338C38.9233 53.0521 38.7515 52.513 38.4181 52.1484C38.0848 51.7786 37.6265 51.5938 37.0431 51.5938ZM46.8872 59.1562C45.7934 59.1562 44.9445 58.763 44.3403 57.9766H44.2309C44.3039 58.7057 44.3403 59.1484 44.3403 59.3047V62.8438H42.5044V50.3594H43.9888C44.0304 50.5208 44.1164 50.9062 44.2466 51.5156H44.3403C44.9132 50.6406 45.7726 50.2031 46.9184 50.2031C47.9966 50.2031 48.8351 50.5938 49.4341 51.375C50.0382 52.1562 50.3403 53.2526 50.3403 54.6641C50.3403 56.0755 50.033 57.1771 49.4184 57.9688C48.8091 58.7604 47.9653 59.1562 46.8872 59.1562ZM46.4419 51.7031C45.7127 51.7031 45.1789 51.9167 44.8403 52.3438C44.507 52.7708 44.3403 53.4531 44.3403 54.3906V54.6641C44.3403 55.7161 44.507 56.4792 44.8403 56.9531C45.1736 57.4219 45.7179 57.6562 46.4731 57.6562C47.1085 57.6562 47.5981 57.3958 47.9419 56.875C48.2856 56.3542 48.4575 55.612 48.4575 54.6484C48.4575 53.6797 48.2856 52.9479 47.9419 52.4531C47.6033 51.9531 47.1033 51.7031 46.4419 51.7031Z" fill="#31393C"/>
</svg>
