<svg width="74" height="73" viewBox="0 0 74 73" fill="none" xmlns="http://www.w3.org/2000/svg">
<path d="M46.3974 40.9894C46.8537 40.5337 47.5937 40.5337 48.05 40.9894C48.5062 41.4452 48.5063 42.1842 48.05 42.6399L35.8789 54.7953C35.4227 55.251 34.6826 55.251 34.2263 54.7953L28.3842 48.9607C27.9279 48.505 27.9279 47.766 28.3842 47.3103C28.8405 46.8545 29.5805 46.8545 30.0368 47.3103L35.0526 52.3196L46.3974 40.9894Z" fill="#21292C"/>
<path fill-rule="evenodd" clip-rule="evenodd" d="M55.5 34.9526V50.0804C55.5 58.1164 50.8749 63.8357 46.3784 67.493C44.1241 69.3265 41.8742 70.6658 40.1901 71.547C39.347 71.9883 38.6425 72.3169 38.1458 72.5356C37.8976 72.6449 37.7011 72.727 37.5648 72.7825C37.4966 72.8103 37.443 72.8317 37.406 72.8462C37.3878 72.8533 37.3734 72.8584 37.3632 72.8623C37.3582 72.8643 37.3539 72.8659 37.3509 72.8671L37.3471 72.8689C37.3471 72.8689 37.3449 72.8695 37 71.9601L37.3452 72.8699L37 73L36.6548 72.8699L37 71.9601C36.6551 72.8695 36.6539 72.8689 36.6539 72.8689L36.6491 72.8671C36.6461 72.8659 36.6418 72.8643 36.6368 72.8623C36.6266 72.8584 36.6122 72.8533 36.594 72.8462C36.557 72.8317 36.5034 72.8103 36.4352 72.7825C36.2989 72.727 36.1024 72.6449 35.8542 72.5356C35.3575 72.3169 34.653 71.9883 33.8099 71.547C32.1258 70.6658 29.8759 69.3265 27.6216 67.493C23.2655 63.95 18.7888 58.4717 18.5133 50.8268L18.5 50.0804V34.9526L37 25.1551L55.5 34.9526ZM20.4474 36.1225V50.0804C20.4474 57.2938 24.5855 62.5148 28.8521 65.985C30.9792 67.715 33.1111 68.986 34.7132 69.8244C35.5131 70.243 36.1779 70.5526 36.6396 70.756C36.7784 70.8171 36.8999 70.8659 37 70.9079C37.1001 70.8659 37.2216 70.8171 37.3604 70.756C37.8221 70.5526 38.4869 70.243 39.2868 69.8244C40.8889 68.986 43.0208 67.715 45.1479 65.985C49.4145 62.5148 53.5526 57.2938 53.5526 50.0804V36.1225L37 27.3564L20.4474 36.1225Z" fill="#21292C"/>
<path fill-rule="evenodd" clip-rule="evenodd" d="M69.1316 0C71.8203 1.06508e-06 74 2.17687 74 4.86217V43.7595C74 46.4448 71.8203 48.6217 69.1316 48.6217H59.8816C59.3438 48.6217 58.9079 48.1863 58.9079 47.6493C58.9079 47.1122 59.3438 46.6768 59.8816 46.6768H69.1316C70.7448 46.6768 72.0526 45.3707 72.0526 43.7595V19.6434H1.94737V43.7595C1.94737 45.3707 3.25517 46.6768 4.86842 46.6768H14.1184C14.6562 46.6768 15.0921 47.1122 15.0921 47.6493C15.0921 48.1863 14.6562 48.6217 14.1184 48.6217H4.86842C2.17967 48.6217 6.27302e-08 46.4448 0 43.7595V4.86217C0 2.17687 2.17967 0 4.86842 0H69.1316ZM1.94737 17.3091H72.0526V10.8915H1.94737V17.3091ZM4.86842 1.94487C3.25517 1.94487 1.94737 3.25099 1.94737 4.86217V8.55723H72.0526V4.86217C72.0526 3.25099 70.7448 1.94487 69.1316 1.94487H4.86842Z" fill="#21292C"/>
<path d="M14.1184 40.6476C14.7636 40.6476 15.2869 41.1703 15.287 41.8147C15.287 42.459 14.7636 42.9817 14.1184 42.9818L6.81579 42.9827C6.1707 42.9827 5.64747 42.4608 5.64718 41.8166C5.64706 41.1721 6.17049 40.6496 6.81579 40.6495L14.1184 40.6476Z" fill="#21292C"/>
</svg>
