<svg width="47" height="52" viewBox="0 0 47 52" fill="none" xmlns="http://www.w3.org/2000/svg">
<path d="M5.79831 10C6.24007 10 6.59801 10.3581 6.59811 10.7998C6.59811 11.2416 6.24014 11.5996 5.79831 11.5996C5.35657 11.5995 4.9985 11.2416 4.9985 10.7998C4.99861 10.3581 5.35664 10.0001 5.79831 10Z" fill="url(#paint0_linear_2_513)"/>
<path d="M8.79831 10C9.24007 10 9.59801 10.3581 9.59811 10.7998C9.59811 11.2416 9.24014 11.5996 8.79831 11.5996C8.35657 11.5995 7.9985 11.2416 7.9985 10.7998C7.99861 10.3581 8.35664 10.0001 8.79831 10Z" fill="url(#paint1_linear_2_513)"/>
<path d="M11.7983 10C12.2401 10 12.598 10.3581 12.5981 10.7998C12.5981 11.2416 12.2401 11.5996 11.7983 11.5996C11.3566 11.5995 10.9985 11.2416 10.9985 10.7998C10.9986 10.3581 11.3566 10.0001 11.7983 10Z" fill="url(#paint2_linear_2_513)"/>
<path fill-rule="evenodd" clip-rule="evenodd" d="M42.2807 6C44.8862 6.00011 46.9984 8.17293 46.9985 10.8535V37.1465C46.9984 39.8271 44.8862 41.9999 42.2807 42H35.3217C34.066 44.523 32.1478 46.7097 29.7104 48.292L23.9995 52L18.2876 48.292C15.8501 46.7099 13.9322 44.523 12.6762 42H5.71628C3.11071 42 0.998648 39.8271 0.998505 37.1465V10.8535C0.998648 8.17286 3.11071 6 5.71628 6H42.2807ZM12.5981 27.123V34.8711C12.5981 39.7484 15.0676 44.2947 19.1587 46.9502L23.9985 50.0918L28.8393 46.9502C32.9299 44.2946 35.3989 39.749 35.3989 34.8721V27.123L23.9985 20.8271L12.5981 27.123ZM2.57077 37.1465C2.57091 38.9335 3.97926 40.3828 5.71628 40.3828H11.9799C11.3406 38.6414 10.9985 36.7794 10.9985 34.8711V26.1797L23.9985 19L36.9985 26.1797V34.8721C36.9985 36.78 36.6571 38.6418 36.018 40.3828H42.2807C44.0177 40.3827 45.4261 38.9335 45.4262 37.1465V15.4004H2.99753C2.84035 15.4004 2.69438 15.3537 2.57077 15.2754V37.1465ZM5.71628 7.61719C3.97926 7.61719 2.57091 9.06645 2.57077 10.8535V13.9238C2.69429 13.8457 2.84054 13.8008 2.99753 13.8008H45.4262V10.8535C45.4261 9.06652 44.0177 7.6173 42.2807 7.61719H5.71628Z" fill="url(#paint3_linear_2_513)"/>
<defs>
<linearGradient id="paint0_linear_2_513" x1="63.6779" y1="78.1337" x2="-17.5289" y2="9.81456" gradientUnits="userSpaceOnUse">
<stop stop-color="#31393C"/>
<stop offset="1" stop-color="#3D96F5"/>
</linearGradient>
<linearGradient id="paint1_linear_2_513" x1="63.6779" y1="78.1337" x2="-17.5289" y2="9.81456" gradientUnits="userSpaceOnUse">
<stop stop-color="#31393C"/>
<stop offset="1" stop-color="#3D96F5"/>
</linearGradient>
<linearGradient id="paint2_linear_2_513" x1="63.6779" y1="78.1337" x2="-17.5289" y2="9.81456" gradientUnits="userSpaceOnUse">
<stop stop-color="#31393C"/>
<stop offset="1" stop-color="#3D96F5"/>
</linearGradient>
<linearGradient id="paint3_linear_2_513" x1="63.6779" y1="78.1337" x2="-17.5289" y2="9.81456" gradientUnits="userSpaceOnUse">
<stop stop-color="#31393C"/>
<stop offset="1" stop-color="#3D96F5"/>
</linearGradient>
</defs>
</svg>
