<svg width="47" height="64" viewBox="0 0 47 64" fill="none" xmlns="http://www.w3.org/2000/svg">
<path fill-rule="evenodd" clip-rule="evenodd" d="M1.1032 35.3105C1.32145 35.3105 1.53479 35.3753 1.71625 35.4965C1.89771 35.6178 2.03914 35.7901 2.12266 35.9917C2.20617 36.1934 2.22803 36.4152 2.18545 36.6293C2.14287 36.8433 2.03778 37.0399 1.88346 37.1943C1.72914 37.3486 1.53252 37.4537 1.31848 37.4962C1.10443 37.5388 0.882561 37.517 0.680932 37.4334C0.479304 37.3499 0.306969 37.2085 0.185721 37.027C0.0644721 36.8456 -0.000244141 36.6322 -0.000244141 36.414C-0.000244141 36.1213 0.116012 35.8407 0.322949 35.6337C0.529885 35.4268 0.810551 35.3105 1.1032 35.3105Z" fill="url(#paint0_linear_1_1116)"/>
<path d="M24.2756 61.7931H35.3101V58.4828C35.3145 58.265 35.3753 58.052 35.4867 57.8648L44.1377 44.9103V28.8883C43.6711 29.0458 43.2479 29.3103 42.9018 29.6607C42.2808 30.2809 41.9316 31.1223 41.9308 32V40.2097C41.9334 40.376 41.8968 40.5405 41.8239 40.6901C41.7511 40.8396 41.644 40.9699 41.5115 41.0703L29.9473 52.6345C29.8448 52.7379 29.7227 52.82 29.5883 52.876C29.4538 52.932 29.3096 52.9609 29.1639 52.9609C29.0182 52.9609 28.874 52.932 28.7395 52.876C28.6051 52.82 28.483 52.7379 28.3804 52.6345C28.2749 52.5354 28.1908 52.4158 28.1332 52.2829C28.0757 52.1501 28.0461 52.0068 28.0461 51.8621C28.0461 51.7173 28.0757 51.5741 28.1332 51.4412C28.1908 51.3084 28.2749 51.1887 28.3804 51.0897L33.5004 45.9697C33.7117 45.7591 33.8307 45.4734 33.8315 45.1752C33.8332 45.0305 33.8047 44.887 33.7477 44.7539C33.6907 44.6209 33.6065 44.5013 33.5004 44.4028C33.4014 44.2972 33.2817 44.2131 33.1489 44.1556C33.016 44.098 32.8728 44.0684 32.728 44.0684C32.5833 44.0684 32.44 44.098 32.3072 44.1556C32.1743 44.2131 32.0547 44.2972 31.9556 44.4028L24.9156 51.4207C24.7111 51.6269 24.5493 51.8715 24.4394 52.1403C24.3296 52.4092 24.2739 52.6971 24.2756 52.9876V61.7931ZM10.637 43.7407C10.7965 43.4044 11.013 43.0982 11.277 42.8359C11.9005 42.2213 12.7408 41.8768 13.6163 41.8768C14.4918 41.8768 15.3321 42.2213 15.9556 42.8359L22.9735 49.8538L23.1722 50.0524L23.3708 49.8538L30.3887 42.8359C31.0122 42.2213 31.8525 41.8768 32.728 41.8768C33.6035 41.8768 34.4438 42.2213 35.0673 42.8359C35.3313 43.0982 35.5479 43.4044 35.7073 43.7407L39.7239 39.7462V32C39.721 31.2746 39.8617 30.5559 40.1379 29.8852C40.4142 29.2145 40.8204 28.6051 41.3333 28.0922C41.8463 27.5793 42.4556 27.173 43.1263 26.8968C43.797 26.6206 44.5158 26.4798 45.2411 26.4828C45.5338 26.4828 45.8145 26.599 46.0214 26.806C46.2283 27.0129 46.3446 27.2936 46.3446 27.5862V45.2414C46.3434 45.4596 46.2824 45.6734 46.168 45.8593L37.517 58.8138V61.7931H38.6204C38.9131 61.7931 39.1938 61.9094 39.4007 62.1163C39.6076 62.3232 39.7239 62.6039 39.7239 62.8966C39.7239 63.1892 39.6076 63.4699 39.4007 63.6768C39.1938 63.8837 38.9131 64 38.6204 64H7.72389C7.43124 64 7.15057 63.8837 6.94364 63.6768C6.7367 63.4699 6.62045 63.1892 6.62045 62.8966C6.62045 62.6039 6.7367 62.3232 6.94364 62.1163C7.15057 61.9094 7.43124 61.7931 7.72389 61.7931H8.82734V58.8138L0.176307 45.8593C0.061981 45.6734 0.000909809 45.4596 -0.000244141 45.2414V40.8276C-0.000244141 40.5349 0.116012 40.2543 0.322949 40.0473C0.529885 39.8404 0.810551 39.7241 1.1032 39.7241C1.39586 39.7241 1.67652 39.8404 1.88346 40.0473C2.0904 40.2543 2.20665 40.5349 2.20665 40.8276V44.9103L10.8577 57.8648C10.969 58.052 11.0299 58.265 11.0342 58.4828V61.7931H22.0687V52.9655C22.0704 52.6751 22.0147 52.3872 21.9049 52.1183C21.7951 51.8494 21.6333 51.6048 21.4287 51.3986L14.3446 44.4028C14.2455 44.2972 14.1259 44.2131 13.993 44.1556C13.8602 44.098 13.7169 44.0684 13.5722 44.0684C13.4274 44.0684 13.2842 44.098 13.1513 44.1556C13.0185 44.2131 12.8988 44.2972 12.7998 44.4028C12.6937 44.5013 12.6095 44.6209 12.5525 44.7539C12.4955 44.887 12.467 45.0305 12.4687 45.1752C12.4688 45.4521 12.5709 45.7192 12.7556 45.9255L17.9198 51.0897C18.0253 51.1887 18.1094 51.3084 18.167 51.4412C18.2245 51.5741 18.2541 51.7173 18.2541 51.8621C18.2541 52.0068 18.2245 52.1501 18.167 52.2829C18.1094 52.4158 18.0253 52.5354 17.9198 52.6345C17.7505 52.794 17.5335 52.8934 17.3022 52.9173C17.0708 52.9413 16.8381 52.8884 16.6398 52.7669C16.5456 52.7289 16.4622 52.6683 16.397 52.5903L4.78872 41.0483C4.67381 40.9403 4.58148 40.8105 4.51707 40.6666C4.45267 40.5226 4.41748 40.3673 4.41355 40.2097V32C4.41278 31.1223 4.0635 30.2809 3.44251 29.6607C3.09647 29.3103 2.67323 29.0458 2.20665 28.8883V32C2.20665 32.2927 2.0904 32.5733 1.88346 32.7803C1.67652 32.9872 1.39586 33.1034 1.1032 33.1034C0.810551 33.1034 0.529885 32.9872 0.322949 32.7803C0.116012 32.5733 -0.000244141 32.2927 -0.000244141 32V27.5862C-0.000244141 27.2936 0.116012 27.0129 0.322949 26.806C0.529885 26.599 0.810551 26.4828 1.1032 26.4828C1.82856 26.4798 2.54731 26.6206 3.21801 26.8968C3.88871 27.173 4.49809 27.5793 5.01099 28.0922C5.5239 28.6051 5.93018 29.2145 6.20642 29.8852C6.48265 30.5559 6.62336 31.2746 6.62045 32V39.7462L10.637 43.7407ZM7.72389 22.069H3.3101C3.01745 22.069 2.73678 21.9527 2.52985 21.7458C2.32291 21.5388 2.20665 21.2582 2.20665 20.9655C2.20665 20.6729 2.32291 20.3922 2.52985 20.1853C2.73678 19.9783 3.01745 19.8621 3.3101 19.8621H7.72389C8.01655 19.8621 8.29721 19.9783 8.50415 20.1853C8.71109 20.3922 8.82734 20.6729 8.82734 20.9655C8.82734 21.2582 8.71109 21.5388 8.50415 21.7458C8.29721 21.9527 8.01655 22.069 7.72389 22.069ZM12.248 11.1448C12.1033 11.1466 11.9598 11.1181 11.8268 11.061C11.6938 11.004 11.5741 10.9198 11.4756 10.8138L8.34182 7.72414C8.23749 7.6198 8.15473 7.49594 8.09827 7.35963C8.0418 7.22331 8.01274 7.0772 8.01274 6.92966C8.01274 6.78211 8.0418 6.636 8.09827 6.49968C8.15473 6.36337 8.23749 6.23951 8.34182 6.13517C8.44616 6.03084 8.57002 5.94808 8.70634 5.89161C8.84265 5.83515 8.98876 5.80609 9.13631 5.80609C9.28386 5.80609 9.42996 5.83515 9.56628 5.89161C9.7026 5.94808 9.82646 6.03084 9.93079 6.13517L13.0204 9.26896C13.126 9.36803 13.2101 9.48769 13.2676 9.62054C13.3252 9.75339 13.3548 9.89662 13.3548 10.0414C13.3548 10.1861 13.3252 10.3294 13.2676 10.4622C13.2101 10.5951 13.126 10.7147 13.0204 10.8138C12.9219 10.9198 12.8023 11.004 12.6693 11.061C12.5362 11.1181 12.3928 11.1466 12.248 11.1448ZM23.1722 6.62069C22.8795 6.62069 22.5989 6.50443 22.3919 6.2975C22.185 6.09056 22.0687 5.80989 22.0687 5.51724V1.10345C22.0687 0.810796 22.185 0.530129 22.3919 0.323192C22.5989 0.116256 22.8795 0 23.1722 0C23.4648 0 23.7455 0.116256 23.9524 0.323192C24.1594 0.530129 24.2756 0.810796 24.2756 1.10345V5.51724C24.2756 5.80989 24.1594 6.09056 23.9524 6.2975C23.7455 6.50443 23.4648 6.62069 23.1722 6.62069ZM34.2067 11.1448C34.0619 11.1466 33.9184 11.1181 33.7854 11.061C33.6524 11.004 33.5328 10.9198 33.4342 10.8138C33.3287 10.7147 33.2445 10.5951 33.187 10.4622C33.1295 10.3294 33.0999 10.1861 33.0999 10.0414C33.0999 9.89662 33.1295 9.75339 33.187 9.62054C33.2445 9.48769 33.3287 9.36803 33.4342 9.26896L36.4135 6.13517C36.5164 6.03229 36.6386 5.95068 36.773 5.895C36.9074 5.83932 37.0515 5.81066 37.197 5.81066C37.3425 5.81066 37.4866 5.83932 37.621 5.895C37.7554 5.95068 37.8776 6.03229 37.9804 6.13517C38.0833 6.23806 38.1649 6.3602 38.2206 6.49462C38.2763 6.62905 38.305 6.77312 38.305 6.91862C38.305 7.06412 38.2763 7.2082 38.2206 7.34262C38.1649 7.47704 38.0833 7.59918 37.9804 7.70207L34.8687 10.8138C34.7702 10.9198 34.6506 11.004 34.5175 11.061C34.3845 11.1181 34.241 11.1466 34.0963 11.1448H34.2067ZM43.0342 22.069H38.6204C38.3278 22.069 38.0471 21.9527 37.8402 21.7458C37.6333 21.5388 37.517 21.2582 37.517 20.9655C37.517 20.6729 37.6333 20.3922 37.8402 20.1853C38.0471 19.9783 38.3278 19.8621 38.6204 19.8621H43.0342C43.3269 19.8621 43.6076 19.9783 43.8145 20.1853C44.0214 20.3922 44.1377 20.6729 44.1377 20.9655C44.1377 21.2582 44.0214 21.5388 43.8145 21.7458C43.6076 21.9527 43.3269 22.069 43.0342 22.069Z" fill="url(#paint1_linear_1_1116)"/>
<path d="M23.1732 39.7232C23.0417 39.7443 22.9076 39.7443 22.776 39.7232L21.7608 39.3039C18.5781 38.0411 15.8511 35.8462 13.9372 33.0068C12.0233 30.1675 11.0118 26.8162 11.0353 23.3922V16.5508C11.0334 16.3323 11.0978 16.1183 11.2199 15.9371C11.342 15.7559 11.5162 15.6159 11.7195 15.5356L22.7539 11.1218C23.0226 11.0115 23.3239 11.0115 23.5926 11.1218L34.627 15.5356C34.8303 15.6159 35.0045 15.7559 35.1266 15.9371C35.2487 16.1183 35.3131 16.3323 35.3112 16.5508V23.3922C35.3213 26.805 34.3036 30.1418 32.3906 32.968C30.4776 35.7942 27.7579 37.979 24.5857 39.2377L23.5705 39.657C23.4389 39.678 23.3048 39.678 23.1732 39.657V39.7232ZM13.2422 17.3011V23.3922C13.2311 26.3661 14.1156 29.2744 15.7807 31.7385C17.4457 34.2026 19.8141 36.1082 22.5774 37.2074L23.1732 37.428L23.747 37.2074C26.5145 36.1117 28.8876 34.2075 30.5567 31.7432C32.2259 29.2788 33.1137 26.3686 33.1043 23.3922V17.3011L23.1732 13.3287L13.2422 17.3011Z" fill="url(#paint2_linear_1_1116)"/>
<path d="M20.9652 28.6895C20.8205 28.6913 20.677 28.6628 20.544 28.6058C20.4109 28.5487 20.2913 28.4645 20.1928 28.3585L17.9859 26.1516C17.781 25.9468 17.666 25.6689 17.666 25.3792C17.666 25.0895 17.781 24.8116 17.9859 24.6068C18.1908 24.4019 18.4686 24.2868 18.7583 24.2868C19.048 24.2868 19.3259 24.4019 19.5307 24.6068L20.9652 26.0192L26.8135 20.193C26.9149 20.0916 27.0353 20.0111 27.1679 19.9562C27.3004 19.9013 27.4424 19.873 27.5859 19.873C27.7294 19.873 27.8714 19.9013 28.0039 19.9562C28.1365 20.0111 28.2569 20.0916 28.3583 20.193C28.4597 20.2944 28.5402 20.4148 28.5951 20.5474C28.65 20.6799 28.6783 20.822 28.6783 20.9654C28.6783 21.1089 28.65 21.2509 28.5951 21.3834C28.5402 21.516 28.4597 21.6364 28.3583 21.7378L21.7376 28.3585C21.6391 28.4645 21.5195 28.5487 21.3864 28.6058C21.2534 28.6628 21.1099 28.6913 20.9652 28.6895Z" fill="url(#paint3_linear_1_1116)"/>
<defs>
<linearGradient id="paint0_linear_1_1116" x1="-0.000244141" y1="35.3105" x2="2.26185" y2="37.4443" gradientUnits="userSpaceOnUse">
<stop offset="0.179351" stop-color="#FE5B52"/>
<stop offset="0.886918" stop-color="#3E96F4"/>
</linearGradient>
<linearGradient id="paint1_linear_1_1116" x1="-0.000244141" y1="0" x2="61.2115" y2="41.8112" gradientUnits="userSpaceOnUse">
<stop offset="0.179351" stop-color="#FE5B52"/>
<stop offset="0.886918" stop-color="#3E96F4"/>
</linearGradient>
<linearGradient id="paint2_linear_1_1116" x1="11.0349" y1="11.0391" x2="39.7674" y2="33.9642" gradientUnits="userSpaceOnUse">
<stop offset="0.179351" stop-color="#FE5B52"/>
<stop offset="0.886918" stop-color="#3E96F4"/>
</linearGradient>
<linearGradient id="paint3_linear_1_1116" x1="17.666" y1="19.873" x2="26.5981" y2="30.3968" gradientUnits="userSpaceOnUse">
<stop offset="0.179351" stop-color="#FE5B52"/>
<stop offset="0.886918" stop-color="#3E96F4"/>
</linearGradient>
</defs>
</svg>
