<svg width="32" height="32" viewBox="0 0 32 32" fill="none" xmlns="http://www.w3.org/2000/svg">
<path d="M15.9998 17.2262C15.081 17.2262 14.3359 17.971 14.3359 18.89C14.3359 19.5061 14.6719 20.0428 15.1698 20.3306V22.1803H16.8298V20.3306C17.3277 20.0429 17.6636 19.5061 17.6636 18.89C17.6636 17.971 16.9186 17.2262 15.9998 17.2262ZM16.0004 9.1582C14.6019 9.1582 13.4644 10.2958 13.4644 11.6943V14.395H18.5363V11.6943C18.5362 10.296 17.3986 9.1582 16.0004 9.1582Z" fill="#3E96F4"/>
<path d="M15.9998 0C7.16347 0 0 7.16366 0 16C0 24.8361 7.16347 32 15.9998 32C24.8362 32 32.0002 24.836 32.0002 16C32.0002 7.16366 24.8362 0 15.9998 0ZM20.9162 24.2263H11.0842C10.0459 24.2263 9.20405 23.3845 9.20405 22.3458V16.2744C9.20405 15.3686 9.84482 14.6122 10.6977 14.4343V11.6932C10.6977 8.76956 13.0765 6.39064 16.0004 6.39064C18.9241 6.39064 21.3028 8.76935 21.3028 11.6932V14.4343C22.1554 14.6128 22.7962 15.3686 22.7962 16.2744V22.3458H22.7964C22.7964 23.3844 21.9545 24.2263 20.9162 24.2263Z" fill="#3E96F4"/>
</svg>
