<svg width="94" height="83" viewBox="0 0 94 83" fill="none" xmlns="http://www.w3.org/2000/svg">
<g id="Frame 1">
<path id="Union" fill-rule="evenodd" clip-rule="evenodd" d="M64.6207 48.8707L69.6638 51.1983C72.6121 52.5948 74.4741 55.5431 74.5517 58.7241C74.5517 61.6724 72.1466 64 69.2759 64H59.1121H27.7672C27.3017 64 26.9914 63.6897 26.9914 63.2241C26.9914 62.7586 27.3017 62.4483 27.7672 62.4483H50.9655C47.9397 61.2845 45.1466 59.5 42.8966 57.1724C42.5862 56.8621 42.5862 56.3966 42.8966 56.0862C43.2069 55.7759 43.6724 55.7759 43.9828 56.0862C47.9397 60.1207 53.4483 62.4483 59.1121 62.4483H69.1983C70.9828 62.4483 72.5345 61.2069 72.7672 59.5776H69.1983H61.2069C54.3017 59.5776 47.8621 56.2414 43.9052 50.5776C41.7328 47.3966 39.0172 44.6034 35.8362 42.3534C31.7241 39.4052 28.3103 35.681 25.75 31.3362L25.0517 30.0948L23.3448 30.6379C21.7155 31.2586 20.5517 32.8103 20.5517 34.5948C20.5517 35.2931 20.7069 35.9914 21.0948 36.6121C21.4828 37.2328 21.9483 37.7759 22.569 38.1638L33.5862 44.9138C35.1379 45.8448 36.6121 46.931 37.8534 48.25C38.1638 48.5603 38.1638 49.0259 37.8534 49.3362C37.6983 49.4914 37.5431 49.569 37.3103 49.569C37.1552 49.569 36.9224 49.4914 36.7672 49.3362C35.6034 48.1724 34.2845 47.0862 32.8103 46.2328L21.7155 39.4828C20.8621 38.9397 20.1638 38.2414 19.6983 37.3879C19.2328 36.5345 19 35.6034 19 34.5948C19 32.1121 20.5517 29.9397 22.8793 29.1638L24.819 28.4655C25.9828 25.3621 28.6983 22.6466 32.1121 20.9397H32.1897C34.3621 19.8534 36.7672 19.1552 39.1724 19C40.0259 19 40.8793 19.3103 41.5 19.931C42.1207 20.5517 42.431 21.3276 42.3534 22.181C42.2759 24.431 43.0517 26.6034 44.681 28.2328C44.9914 28.5431 45.3793 28.8534 45.6897 29.0862C47.0086 26.681 49.569 25.0517 52.3621 24.8966C52.75 24.8966 53.0603 25.1293 53.1379 25.4397L59.1121 42.7414C59.5776 44.1379 60.3535 45.3017 61.2845 46.3879C62.2155 47.4741 63.3017 48.25 64.6207 48.8707ZM61.1293 51.5086C62.5259 51.6638 63.8448 51.3535 65.0086 50.7328L64 50.3448C63.069 49.8793 62.1379 49.3362 61.3621 48.6379L58.3362 50.5776C59.1897 51.0431 60.1207 51.431 61.1293 51.5086ZM57.1724 49.569L60.2759 47.5517L60.2758 47.5517C60.2334 47.5093 60.2142 47.4901 60.2182 47.4814C60.2215 47.4741 60.2407 47.4741 60.2759 47.4741C59.5776 46.6983 59.0345 45.9224 58.569 44.9914L55.2328 46.6207C55.6207 47.4741 56.1638 48.3276 56.7845 49.1034C56.8621 49.2586 57.0172 49.4138 57.1724 49.569ZM51.2759 35.9138L54.6897 34.5172L53.681 31.4914C52.5948 31.8793 51.431 32.1121 50.3448 32.1121H49.9569L51.2759 35.9138ZM56.1638 38.9397L55.1552 35.9914L51.7414 37.3879L52.75 40.3362L56.1638 38.9397ZM57.7155 43.3621L56.7069 40.4138L53.2931 41.8103L54.2241 44.5259L54.4569 45.2241L57.7931 43.5948C57.7931 43.556 57.7737 43.5172 57.7543 43.4784C57.7349 43.4397 57.7155 43.4009 57.7155 43.3621ZM53.1379 30.0172L51.8966 26.5259C49.8017 26.7586 48.0172 28 47.0862 29.7845C48.9483 30.7155 51.1207 30.7931 53.1379 30.0172ZM32.4224 22.569C29.5517 24.1207 27.2241 26.4483 26.2931 29.0862L27.2241 30.4828C28.4655 32.6552 30.0172 34.5948 31.7241 36.4569C33.5086 34.9828 34.6724 32.8879 34.9828 30.5603C35.3707 27.6121 34.4397 24.6638 32.4224 22.569ZM61.2845 57.9483H69.2759V58.0259H73C72.6897 55.6983 71.2931 53.681 69.1207 52.6724L66.7931 51.5862C65.3966 52.6724 63.6897 53.2155 61.9828 53.2155C61.8748 53.2155 61.75 53.1988 61.6164 53.1809L61.6163 53.1809C61.4619 53.1602 61.2956 53.1379 61.1293 53.1379C58.8793 52.9052 56.9397 51.819 55.5431 50.0345C54.3793 48.5603 53.4483 46.8534 52.8276 45.069L48.25 31.8793C47.3966 31.7241 46.5431 31.4138 45.7672 30.9483L45.6897 30.8707C44.9914 30.4052 44.2931 29.9397 43.6724 29.319C41.7328 27.4569 40.7241 24.819 40.8793 22.1034C40.8793 21.6379 40.7241 21.25 40.4914 21.0172C40.181 20.7069 39.7931 20.5517 39.4052 20.5517C37.4655 20.6293 35.6034 21.1724 33.8966 21.8707C36.069 24.2759 37 27.5345 36.5345 30.7931C36.1466 33.431 34.8276 35.8362 32.8103 37.5431C34.0517 38.7845 35.3707 39.9483 36.8448 40.9569C40.1034 43.3621 42.9741 46.2328 45.3017 49.569C48.9483 54.8448 54.9224 57.9483 61.2845 57.9483ZM35.9722 56.8548C36.4414 56.8548 36.7543 57.1676 36.7543 57.6369C36.7543 58.1062 36.3632 58.419 35.9722 58.419H26.9777C26.5084 58.419 26.1956 58.1062 26.1956 57.6369C26.1956 57.1676 26.5084 56.8548 26.9777 56.8548H35.9722ZM22.5978 56.8548H19.7821C19.3128 56.8548 19 57.1676 19 57.6369C19 58.1062 19.3128 58.419 19.7821 58.419H22.5978C23.067 58.419 23.3799 58.1062 23.3799 57.6369C23.3799 57.1676 23.067 56.8548 22.5978 56.8548ZM30.8101 52.4749H19.7821C19.3128 52.4749 19 52.1621 19 51.6928C19 51.2235 19.3128 50.9107 19.7821 50.9107H30.8101C31.2794 50.9107 31.5922 51.2235 31.5922 51.6928C31.5922 52.1621 31.2794 52.4749 30.8101 52.4749Z" fill="url(#paint0_linear_1_1446)"/>
</g>
<defs>
<linearGradient id="paint0_linear_1_1446" x1="21.8454" y1="24.2654" x2="14.7484" y2="45.9008" gradientUnits="userSpaceOnUse">
<stop stop-color="#FE5B52"/>
<stop offset="1" stop-color="#3D96F5"/>
</linearGradient>
</defs>
</svg>
