<svg width="135" height="39" viewBox="0 0 135 39" fill="none" xmlns="http://www.w3.org/2000/svg">
<path d="M29.1659 7.26466C29.1398 7.07414 28.9733 6.96844 28.8351 6.95693C28.698 6.94542 26.0117 6.90462 26.0117 6.90462C26.0117 6.90462 23.7651 4.72331 23.5431 4.50141C23.3213 4.27952 22.8878 4.3465 22.7193 4.39674C22.7172 4.39779 22.2974 4.52758 21.5908 4.74634C21.4725 4.36325 21.2986 3.89224 21.0505 3.41914C20.2508 1.89307 19.0793 1.08608 17.6639 1.08399C17.6618 1.08399 17.6608 1.08399 17.6587 1.08399C17.5603 1.08399 17.4629 1.09341 17.3645 1.10178C17.3227 1.05154 17.2808 1.00235 17.2368 0.954195C16.6202 0.294786 15.8298 -0.0265463 14.8824 0.00171416C13.0545 0.0540484 11.234 1.37392 9.75795 3.71849C8.71944 5.36807 7.92903 7.44053 7.70502 9.04508C5.60602 9.69506 4.13829 10.1493 4.10584 10.1598C3.0464 10.4926 3.01291 10.5251 2.87472 11.5236C2.77213 12.2783 0 33.7102 0 33.7102L23.2312 37.7274L33.3 35.2247C33.3 35.2247 29.1921 7.45518 29.1659 7.26466ZM20.4277 5.1064C19.8927 5.27177 19.2845 5.46018 18.6249 5.66428C18.6113 4.73901 18.5014 3.45159 18.0701 2.33896C19.4572 2.60168 20.1398 4.17066 20.4277 5.1064ZM17.4095 6.04109C16.192 6.41787 14.8635 6.82922 13.5309 7.24165C13.9056 5.80663 14.6165 4.37791 15.4896 3.44112C15.8141 3.09258 16.2684 2.70426 16.8065 2.48236C17.3122 3.53741 17.4221 5.03104 17.4095 6.04109ZM14.919 1.21796C15.3482 1.20854 15.7094 1.30275 16.0182 1.5058C15.5241 1.76224 15.0467 2.13067 14.5987 2.6111C13.4377 3.85666 12.5478 5.78988 12.1929 7.65508C11.0864 7.99733 10.0039 8.33335 9.00729 8.64108C9.63651 5.7051 12.0977 1.2996 14.919 1.21796Z" fill="#95BF47"/>
<path d="M28.8361 6.95804C28.699 6.94654 26.0127 6.90573 26.0127 6.90573C26.0127 6.90573 23.7661 4.72442 23.5442 4.50253C23.4615 4.41983 23.3495 4.37692 23.2322 4.35913L23.2333 37.7264L33.3011 35.2249C33.3011 35.2249 29.1931 7.4563 29.167 7.26578C29.1408 7.07525 28.9733 6.96955 28.8361 6.95804Z" fill="#5E8E3E"/>
<path d="M17.6513 12.134L16.482 16.5081C16.482 16.5081 15.1776 15.9146 13.6314 16.012C11.3638 16.1554 11.3397 17.5851 11.3628 17.9442C11.4863 19.9004 16.6337 20.3275 16.9227 24.9098C17.1499 28.5146 15.01 30.9806 11.927 31.1753C8.22631 31.4087 6.18909 29.2264 6.18909 29.2264L6.97322 25.8916C6.97322 25.8916 9.02401 27.4386 10.6655 27.335C11.7375 27.267 12.1207 26.3951 12.0819 25.7786C11.9207 23.2268 7.72903 23.3775 7.4642 19.1845C7.24119 15.6561 9.55902 12.0806 14.673 11.7583C16.6432 11.6316 17.6513 12.134 17.6513 12.134Z" fill="white"/>
<path d="M46.5591 21.2934C45.4014 20.6653 44.8064 20.1358 44.8064 19.4081C44.8064 18.482 45.6329 17.8871 46.9236 17.8871C48.426 17.8871 49.7675 18.5152 49.7675 18.5152L50.8256 15.2741C50.8256 15.2741 49.8527 14.5132 46.989 14.5132C43.0038 14.5132 40.2419 16.795 40.2419 20.0029C40.2419 21.8217 41.5315 23.2108 43.252 24.2022C44.6413 24.9954 45.1376 25.5581 45.1376 26.3844C45.1376 27.244 44.443 27.9385 43.1534 27.9385C41.2314 27.9385 39.4164 26.9461 39.4164 26.9461L38.2919 30.1872C38.2919 30.1872 39.9688 31.3115 42.7899 31.3115C46.8914 31.3115 49.8351 29.2943 49.8351 25.6567C49.834 23.707 48.3461 22.318 46.5591 21.2934Z" fill="black"/>
<path d="M62.8985 14.4808C60.8809 14.4808 59.2933 15.4401 58.0701 16.8945L58.0037 16.8612L59.7564 7.70166H55.1918L50.7602 31.0144H55.3247L56.8459 23.0455C57.4409 20.0359 58.9953 18.1849 60.451 18.1849C61.4758 18.1849 61.8736 18.8794 61.8736 19.8719C61.8736 20.5 61.8071 21.261 61.6752 21.889L59.9557 31.0154H64.5205L66.3059 21.5911C66.5047 20.5986 66.6374 19.4089 66.6374 18.6147C66.6355 16.0349 65.2796 14.4808 62.8985 14.4808Z" fill="black"/>
<path d="M76.9546 14.4807C71.4636 14.4807 67.8266 19.441 67.8266 24.963C67.8266 28.501 70.0089 31.3445 74.1107 31.3445C79.5016 31.3445 83.1398 26.5171 83.1398 20.8622C83.1398 17.5889 81.221 14.4807 76.9546 14.4807ZM74.7056 27.8407C73.1509 27.8407 72.4893 26.5181 72.4893 24.8643C72.4893 22.2523 73.8459 17.9866 76.3263 17.9866C77.947 17.9866 78.4752 19.3756 78.4752 20.7315C78.4752 23.5417 77.1206 27.8407 74.7056 27.8407Z" fill="black"/>
<path d="M94.8148 14.4807C91.7338 14.4807 89.9855 17.1924 89.9855 17.1924H89.9201L90.1848 14.7454H86.1498C85.9517 16.3992 85.5869 18.9115 85.224 20.7968L82.0487 37.4955H86.6133L87.8692 30.7496H87.9692C87.9692 30.7496 88.9056 31.3445 90.6483 31.3445C96.006 31.3445 99.5115 25.8558 99.5115 20.2996C99.5115 17.2256 98.1549 14.4807 94.8148 14.4807ZM90.449 27.9061C89.2641 27.9061 88.5629 27.2448 88.5629 27.2448L89.3239 22.9791C89.8534 20.1355 91.3414 18.2502 92.9294 18.2502C94.3186 18.2502 94.7482 19.5396 94.7482 20.7636C94.7482 23.7068 92.9954 27.9061 90.449 27.9061Z" fill="black"/>
<path d="M106.027 7.93335C104.572 7.93335 103.414 9.09089 103.414 10.5785C103.414 11.9344 104.274 12.8604 105.564 12.8604H105.63C107.053 12.8604 108.276 11.9011 108.309 10.2152C108.309 8.89257 107.416 7.93335 106.027 7.93335Z" fill="black"/>
<path d="M99.6442 31.0144H104.207L107.317 14.8452H102.72L99.6442 31.0144Z" fill="black"/>
<path d="M118.926 14.812H115.751L115.916 14.051C116.181 12.4969 117.107 11.1079 118.628 11.1079C119.44 11.1079 120.083 11.3394 120.083 11.3394L120.976 7.76816C120.976 7.76816 120.182 7.37158 118.495 7.37158C116.874 7.37158 115.255 7.83456 114.03 8.89244C112.476 10.2151 111.748 12.1325 111.385 14.051L111.253 14.812H109.136L108.474 18.2514H110.591L108.177 31.0155H112.742L115.156 18.2514H118.298L118.926 14.812Z" fill="black"/>
<path d="M129.906 14.8453C129.906 14.8453 127.053 22.0324 125.772 25.9556H125.705C125.619 24.6922 124.581 14.8453 124.581 14.8453H119.785L122.531 29.6919C122.598 30.022 122.565 30.2214 122.432 30.4528C121.902 31.4775 121.009 32.47 119.951 33.1977C119.091 33.8258 118.132 34.2223 117.372 34.4871L118.628 38.3563C119.555 38.158 121.472 37.397 123.093 35.8761C125.177 33.9254 127.095 30.9159 129.079 26.8151L134.668 14.8442H129.906V14.8453Z" fill="black"/>
</svg>
