<svg width="70" height="74" viewBox="0 0 70 74" fill="none" xmlns="http://www.w3.org/2000/svg">
<path fill-rule="evenodd" clip-rule="evenodd" d="M34.5333 0L43.1667 3.7L34.5333 7.4V4.93333H9.86667C5.77976 4.93333 2.46667 8.24643 2.46667 12.3333V61.6667C2.46667 65.7536 5.77976 69.0667 9.86667 69.0667H19.7333V71.5333H9.86667C4.41746 71.5333 0 67.1159 0 61.6667V12.3333C0 6.88412 4.41746 2.46667 9.86667 2.46667H34.5333V0ZM59.2 71.5333H34.5333V74L25.9 70.3L34.5333 66.6V69.0667H59.2C63.2869 69.0667 66.6 65.7536 66.6 61.6667L66.6 12.3333C66.6 8.24643 63.2869 4.93333 59.2 4.93333L49.3333 4.93333V2.46667L59.2 2.46667C64.6492 2.46667 69.0667 6.88412 69.0667 12.3333L69.0667 61.6667C69.0667 67.1159 64.6492 71.5333 59.2 71.5333ZM17.532 29.0702L17.5322 29.0678L18.4362 22.58C18.6717 20.8883 19.9827 19.5703 21.5912 19.3161V13.297C21.5912 12.7648 22.0118 12.3334 22.5308 12.3334H33.8056C34.3245 12.3334 34.7451 12.7648 34.7451 13.297V19.3155C36.3729 19.5671 37.6665 20.8987 37.9002 22.5807L39.1943 31.8703C39.7709 31.3201 40.5123 30.9562 41.3221 30.8598V26.0157C41.3221 25.4836 41.7428 25.0522 42.2617 25.0522H47.8991C48.418 25.0522 48.8387 25.4836 48.8387 26.0157V30.8598C50.4374 31.05 51.7711 32.2832 52.092 33.9325L53.6462 41.8029C53.7491 42.3244 53.4204 42.8329 52.9118 42.9385C52.8488 42.9516 52.7861 42.9579 52.7242 42.9579C52.2864 42.9579 51.8946 42.6424 51.8043 42.1854L50.2497 34.3123C50.0746 33.412 49.3 32.7605 48.4074 32.7605H41.7534C40.8608 32.7605 40.0862 33.412 39.9115 34.3096L39.6912 35.4374L42.7323 57.2678C42.8558 58.1567 42.6774 59.0178 42.2731 59.7397H52.9728C54.1573 59.7397 55.0483 58.6283 54.8156 57.4349L53.4829 50.6855C53.3799 50.1639 53.7086 49.6555 54.2172 49.5498C54.7258 49.4446 55.2215 49.7814 55.3246 50.303L56.6578 57.0548C57.123 59.4419 55.3448 61.6668 52.9727 61.6668H17.3245C15.0397 61.6668 13.2805 59.59 13.6038 57.2679L17.5312 29.0746L17.532 29.0702ZM46.9594 30.8334V26.9793H43.2012V30.8334H46.9594ZM38.299 39.0701L37.6384 34.3284L20.0507 24.6165L19.4847 28.6816L38.299 39.0701ZM39.7674 59.5779C40.5308 59.2385 40.9937 58.4164 40.872 57.5399L40.611 55.6668L17.5027 42.9065L16.9364 46.9714L39.7674 59.5779ZM21.6159 59.7397H36.0965L28.8559 55.7417L21.6159 59.7397ZM20.9287 51.3644L16.6533 49.0037L15.9408 54.1186L20.9287 51.3644ZM18.3519 36.81L17.7857 40.8741L40.2807 53.2958L39.6202 48.5542L18.3519 36.81ZM19.2012 30.7136L18.635 34.7777L39.2899 46.1832L38.6293 41.4411L19.2012 30.7136ZM32.2697 29.1751L37.3082 31.9573L36.5883 26.7901L32.2697 29.1751ZM15.6105 56.4897L15.4642 57.5402C15.3027 58.7001 16.1809 59.7397 17.3245 59.7397H17.6523L26.8742 54.6473L22.9106 52.4587L15.6105 56.4897ZM36.3052 24.7576L36.0399 22.8527C35.9342 22.0925 35.3956 21.4763 34.6911 21.2716L26.3248 25.8923L30.2879 28.0807L36.3052 24.7576ZM32.8659 19.2709V14.2605H23.4702V19.2709H32.8659ZM30.8614 21.198H22.1567C21.3148 21.198 20.5808 21.7829 20.3524 22.5943L24.3431 24.798L30.8614 21.198Z" fill="url(#paint0_linear_2_989)"/>
<defs>
<linearGradient id="paint0_linear_2_989" x1="0" y1="0" x2="74.7094" y2="68.0529" gradientUnits="userSpaceOnUse">
<stop stop-color="#3E96F4"/>
<stop offset="1" stop-color="#FE5B52"/>
</linearGradient>
</defs>
</svg>
