<svg width="104" height="72" viewBox="0 0 104 72" fill="none" xmlns="http://www.w3.org/2000/svg">
<path fill-rule="evenodd" clip-rule="evenodd" d="M89.593 26.182C89.8008 26.1921 90.0107 26.1961 90.2185 26.1961C97.4479 26.1921 103.305 20.3306 103.305 13.1012C103.315 12.2074 102.599 11.4749 101.705 11.4669C100.811 11.4568 100.079 12.1731 100.071 13.0669V13.1032C100.071 18.549 95.6562 22.9637 90.2084 22.9637C90.0531 22.9637 89.8957 22.9597 89.7403 22.9537C84.6739 22.6853 80.6263 18.6378 80.358 13.5713C80.1017 8.12757 84.3066 3.50703 89.7484 3.25079C91.5966 3.16402 93.4327 3.59783 95.0449 4.50378C95.8197 4.94969 96.8083 4.68335 97.2542 3.90856C97.7002 3.13376 97.4338 2.14508 96.659 1.69917C96.655 1.69715 96.6509 1.69463 96.6469 1.69211C96.6429 1.68959 96.6388 1.68706 96.6348 1.68505C90.3295 -1.86208 82.3434 0.373541 78.7963 6.67685C77.5897 8.81965 77.0126 11.2591 77.1277 13.7146C77.4343 20.4013 82.9104 25.8753 89.593 26.182ZM6.54803 60.8705H6.55005C7.44187 60.8705 8.16623 60.1482 8.16825 59.2564L8.23079 14.8205C8.23685 12.3548 10.2364 10.3593 12.7 10.3553H73.6448C74.5386 10.3654 75.271 9.6491 75.2811 8.75525C75.2912 7.86141 74.5749 7.12899 73.6811 7.1189H73.6448H12.7C8.45072 7.12495 5.0065 10.5631 4.9944 14.8124L4.93185 59.2483C4.93185 60.1441 5.65419 60.8685 6.54803 60.8705ZM79.549 55.2349C79.2403 56.0723 78.3102 56.5 77.4728 56.1913C76.6355 55.8846 76.2057 54.9545 76.5144 54.1151C80.6689 42.824 76.6718 30.1508 66.7911 23.2846L64.3719 21.8318C53.3371 15.466 39.0477 18.2766 31.1262 28.3712C26.887 33.7524 24.8935 39.6118 25.1941 45.7901C25.3495 48.5926 25.6521 51.5345 26.7901 53.992C26.7942 54.0021 26.8002 54.0122 26.8043 54.0223C27.1715 54.8354 26.8083 55.7938 25.9952 56.161C25.182 56.5283 24.2236 56.1671 23.8564 55.3519C22.4884 52.4021 22.1373 49.093 21.9638 45.9575C21.6288 39.063 23.9169 32.2957 28.5839 26.3717C37.492 15.0181 53.5792 11.8644 66.0022 19.0373L66.0244 19.0514L68.5889 20.595C79.7104 28.2925 84.218 42.5375 79.549 55.2329V55.2349ZM53.2951 27.0154V24.7515C53.285 23.8577 52.5526 23.1414 51.6608 23.1515C50.781 23.1616 50.0708 23.8718 50.0607 24.7515V27.0154C50.0708 27.9092 50.8032 28.6255 51.6951 28.6154C52.5748 28.6033 53.285 27.8931 53.2951 27.0154ZM35.2379 37.4409C36.0086 37.8929 36.9993 37.6366 37.4513 36.8659C37.9033 36.0951 37.647 35.1044 36.8763 34.6525C36.8722 34.6504 36.8687 34.6484 36.8652 34.6464C36.8616 34.6444 36.8581 34.6424 36.8541 34.6404L34.8929 33.5084C34.1201 33.0625 33.1294 33.3268 32.6835 34.0996C32.2376 34.8724 32.5019 35.8631 33.2747 36.309L35.2379 37.4409ZM66.495 55.4875L66.4913 55.4854C66.4878 55.4834 66.4843 55.4814 66.4802 55.4794C65.7095 55.0274 65.4552 54.0347 65.9072 53.2639C66.3592 52.4932 67.3498 52.2369 68.1206 52.6889L70.0818 53.8208C70.8425 54.2688 71.1048 55.2453 70.669 56.0141C70.2271 56.7909 69.2404 57.0633 68.4636 56.6234L66.5024 55.4915L66.495 55.4875ZM34.0867 56.8409C34.3712 56.8409 34.6496 56.7663 34.8937 56.623L36.855 55.4911C37.6318 55.0512 37.9042 54.0625 37.4643 53.2857C37.0244 52.5089 36.0358 52.2365 35.259 52.6764L35.2542 52.6789L35.2479 52.6824C35.2443 52.6844 35.2408 52.6865 35.2368 52.6885L33.2756 53.8204C32.5028 54.2663 32.2364 55.257 32.6844 56.0298C32.9749 56.5322 33.5096 56.8409 34.0867 56.8409ZM68.1184 37.4408C67.8742 37.5821 67.5958 37.6567 67.3113 37.6567C66.7322 37.6567 66.1975 37.35 65.909 36.8497C65.461 36.0769 65.7274 35.0862 66.5002 34.6403L68.4614 33.5083C69.2342 33.0604 70.2248 33.3267 70.6708 34.0995C71.1187 34.8723 70.8523 35.863 70.0796 36.3089L68.1184 37.4408ZM73.6103 45.0656C73.6103 44.1717 72.8859 43.4474 71.9921 43.4474H69.7282C68.8344 43.4373 68.1019 44.1536 68.0939 45.0474C68.0838 45.9412 68.8001 46.6737 69.6939 46.6817H69.7302H71.9941C72.8859 46.6817 73.6103 45.9594 73.6103 45.0656ZM31.3267 46.6816C30.4329 46.6736 29.7166 45.9411 29.7267 45.0473C29.7368 44.1534 30.4692 43.4372 31.363 43.4452H33.6269C34.5207 43.4452 35.2451 44.1696 35.2451 45.0634C35.2451 45.9573 34.5207 46.6816 33.6269 46.6816H31.363H31.3267ZM62.0871 30.2722L62.1052 30.2419L63.2372 28.2807C63.677 27.5039 63.4026 26.5172 62.6258 26.0774C61.857 25.6436 60.8825 25.9038 60.4366 26.6645L59.3047 28.6257C58.8487 29.3945 59.1029 30.3872 59.8716 30.8412C60.6404 31.2951 61.6311 31.0409 62.0871 30.2722ZM40.1199 28.2806C39.672 27.5058 39.9383 26.5171 40.7111 26.0712C41.4859 25.6253 42.4746 25.8896 42.9205 26.6624L44.0524 28.6236C44.4842 29.3903 44.2239 30.3608 43.4673 30.8087C42.6985 31.2647 41.7078 31.0105 41.2518 30.2418L40.1199 28.2806ZM46.4494 45.9009C46.8449 48.7056 49.4376 50.6607 52.2443 50.2652C53.8443 50.0393 55.2446 49.0748 56.0234 47.6584L63.0632 48.4977C63.9489 48.6027 64.754 47.9711 64.861 47.0833C64.9659 46.1975 64.3343 45.3925 63.4465 45.2855L56.6085 44.4684C56.2131 41.6638 53.6203 39.7086 50.8137 40.1041C48.0091 40.5016 46.0539 43.0963 46.4494 45.9009ZM51.6773 43.1649C52.7265 43.1649 53.578 44.0164 53.578 45.0656C53.5759 46.1148 52.7265 46.9663 51.6773 46.9663C50.6281 46.9663 49.7766 46.1148 49.7766 45.0656C49.7766 44.0164 50.6281 43.1649 51.6773 43.1649ZM95.1387 28.9422V59.2582C95.1488 60.152 95.8812 60.8683 96.773 60.8582C97.6527 60.8481 98.363 60.1379 98.373 59.2582V28.9422C98.363 28.0483 97.6305 27.3321 96.7387 27.3421C95.857 27.3522 95.1467 28.0645 95.1387 28.9422ZM61.322 66.0559C60.4282 66.0559 59.7038 65.3315 59.7038 64.4377C59.7038 63.5438 60.4282 62.8195 61.322 62.8195H103.306V64.4377C103.302 68.6123 99.9187 71.996 95.7441 72H7.56235C3.38772 71.996 0.00403541 68.6123 0 64.4377V62.8195H42.0146C42.9085 62.8195 43.6328 63.5438 43.6328 64.4377C43.6328 65.3315 42.9085 66.0559 42.0146 66.0559H3.54914C4.20893 67.6922 5.79686 68.7636 7.56235 68.7656H95.7461C97.5096 68.7636 99.0975 67.6922 99.7593 66.0559H61.322ZM14.9105 15.2382C14.9105 16.1508 14.1706 16.8907 13.258 16.8907C12.3453 16.8907 11.6055 16.1508 11.6055 15.2382C11.6055 14.3255 12.3453 13.5857 13.258 13.5857C14.1706 13.5857 14.9105 14.3255 14.9105 15.2382ZM18.6877 16.8907C19.6003 16.8907 20.3402 16.1508 20.3402 15.2382C20.3402 14.3255 19.6003 13.5857 18.6877 13.5857C17.775 13.5857 17.0352 14.3255 17.0352 15.2382C17.0352 16.1508 17.775 16.8907 18.6877 16.8907ZM25.7659 15.2382C25.7659 16.1508 25.0261 16.8907 24.1134 16.8907C23.2008 16.8907 22.4609 16.1508 22.4609 15.2382C22.4609 14.3255 23.2008 13.5857 24.1134 13.5857C25.0261 13.5857 25.7659 14.3255 25.7659 15.2382ZM84.2536 10.3954C84.8811 9.75778 85.9061 9.74971 86.5417 10.3772L90.5126 14.3481L99.8929 4.96775C100.522 4.34832 101.533 4.34832 102.163 4.96775C102.8 5.59526 102.808 6.62025 102.181 7.25583L92.2579 17.1789C91.2934 18.1413 89.7317 18.1413 88.7672 17.1789L84.2536 12.6653C83.6342 12.0358 83.6342 11.0249 84.2536 10.3954Z" fill="url(#paint0_linear_1_663)"/>
<defs>
<linearGradient id="paint0_linear_1_663" x1="10.3837" y1="5.11045" x2="62.744" y2="92.0219" gradientUnits="userSpaceOnUse">
<stop stop-color="#3D96F5"/>
<stop offset="1" stop-color="#31393C"/>
</linearGradient>
</defs>
</svg>
