<svg width="64" height="64" viewBox="0 0 64 64" fill="none" xmlns="http://www.w3.org/2000/svg">
<rect width="64" height="64" rx="8" fill="#3E96F4"/>
<path fill-rule="evenodd" clip-rule="evenodd" d="M43.1428 48H20.2857C19.6795 48 19.0981 47.7592 18.6695 47.3305C18.2408 46.9019 18 46.3205 18 45.7143V35.4286C18 34.8224 18.2408 34.241 18.6695 33.8123C19.0981 33.3837 19.6795 33.1429 20.2857 33.1429H26.3806V32C26.3806 31.3938 26.6214 30.8124 27.05 30.3838C27.4787 29.9551 28.0601 29.7143 28.6663 29.7143H34.7623V27.4286C34.7623 26.8224 35.0031 26.241 35.4317 25.8124C35.8604 25.3837 36.4418 25.1429 37.048 25.1429H43.1428C43.749 25.1429 44.3304 25.3837 44.7591 25.8124C45.1877 26.241 45.4285 26.8224 45.4285 27.4286V45.7143C45.4285 46.3205 45.1877 46.9019 44.7591 47.3305C44.3304 47.7592 43.749 48 43.1428 48ZM26.3806 35.4286H20.2857V45.7143H26.3806V35.4286ZM34.7623 32H28.6663V45.7143H34.7623V32ZM37.048 45.7143H43.1428V27.4286H37.048V30.8572V45.7143ZM35.1268 20.1395C30.8263 26.48 22.8549 28.536 22.8549 28.536C22.5611 28.6112 22.2496 28.5666 21.9888 28.4121C21.8596 28.3356 21.7468 28.2344 21.6568 28.1142C21.5667 27.9941 21.5012 27.8575 21.464 27.712C21.4268 27.5666 21.4186 27.4153 21.4398 27.2667C21.4611 27.1181 21.5114 26.9751 21.5879 26.8459C21.7425 26.5851 21.9943 26.3963 22.288 26.3212C22.288 26.3212 29.8788 24.3977 33.5897 18.3052L31.3417 18.2858C31.0386 18.283 30.749 18.16 30.5366 17.9437C30.3242 17.7275 30.2064 17.4357 30.2091 17.1326C30.2119 16.8295 30.3349 16.5399 30.5511 16.3275C30.7674 16.1151 31.0592 15.9973 31.3623 16L36.2537 16.0435C36.5534 16.0456 36.8403 16.1656 37.0522 16.3775C37.2642 16.5895 37.3842 16.8763 37.3863 17.176L37.4285 21.9543C37.4313 22.2574 37.3135 22.5492 37.1011 22.7655C36.8887 22.9817 36.5991 23.1047 36.296 23.1075C35.9929 23.1102 35.7011 22.9924 35.4848 22.78C35.2686 22.5676 35.1456 22.278 35.1428 21.9749L35.1268 20.1395Z" fill="white"/>
</svg>
