<svg width="68" height="62" viewBox="0 0 68 62" fill="none" xmlns="http://www.w3.org/2000/svg">
<path d="M13.0526 22.8421C11.977 22.8421 10.9255 22.5231 10.0311 21.9255C9.13674 21.3279 8.43966 20.4785 8.02803 19.4848C7.6164 18.491 7.50869 17.3975 7.71854 16.3425C7.92839 15.2875 8.44637 14.3184 9.20697 13.5578C9.96757 12.7972 10.9366 12.2793 11.9916 12.0694C13.0466 11.8596 14.1401 11.9673 15.1339 12.3789C16.1277 12.7905 16.9771 13.4876 17.5747 14.382C18.1723 15.2764 18.4912 16.3279 18.4912 17.4035C18.4895 18.8454 17.916 20.2277 16.8964 21.2473C15.8768 22.2668 14.4945 22.8404 13.0526 22.8421ZM13.0526 14.1404C12.4072 14.1404 11.7763 14.3317 11.2397 14.6903C10.7031 15.0489 10.2849 15.5585 10.0379 16.1548C9.79089 16.751 9.72627 17.4071 9.85218 18.0401C9.97809 18.6731 10.2889 19.2545 10.7452 19.7109C11.2016 20.1673 11.783 20.4781 12.416 20.604C13.049 20.7299 13.7051 20.6653 14.3014 20.4183C14.8977 20.1713 15.4073 19.753 15.7659 19.2164C16.1244 18.6798 16.3158 18.0489 16.3158 17.4035C16.3158 16.5381 15.972 15.7081 15.36 15.0961C14.7481 14.4841 13.9181 14.1404 13.0526 14.1404ZM10.8598 44.7912L8.71916 44.4018L10.8946 32.4369C10.9353 32.212 11.0458 32.0057 11.2103 31.8472C11.3749 31.6887 11.5852 31.586 11.8113 31.5538C12.0375 31.5215 12.2682 31.5613 12.4705 31.6675C12.6728 31.7737 12.8365 31.9409 12.9384 32.1454L15.9003 38.0702H23.7754C24.0889 38.0693 24.3906 37.9499 24.6198 37.7359C24.849 37.5219 24.9887 37.2291 25.011 36.9164C25.0333 36.6036 24.9365 36.2939 24.74 36.0496C24.5435 35.8052 24.2619 35.6442 23.9516 35.5989L18.3368 34.7961C18.1801 34.7736 18.0302 34.7172 17.8975 34.6308C17.7649 34.5444 17.6527 34.43 17.5689 34.2958L13.1342 27.2006C12.811 26.6834 12.3508 26.2659 11.8047 25.9943C11.2587 25.7227 10.6481 25.6076 10.0406 25.6617C9.43313 25.7159 8.85253 25.9373 8.36317 26.3012C7.8738 26.6652 7.49479 27.1576 7.26815 27.7238L3.71348 36.6094C2.69557 39.1491 2.17348 41.8603 2.17545 44.5965H7.3544e-06C-0.00237181 41.5838 0.572519 38.5986 1.69359 35.8023L5.24717 26.9167C5.62302 25.9773 6.25165 25.1604 7.06339 24.5564C7.87512 23.9524 8.83825 23.585 9.84602 23.4949C10.8538 23.4048 11.8668 23.5955 12.7728 24.0459C13.6788 24.4962 14.4424 25.1887 14.979 26.0465L19.146 32.7142L24.2583 33.4441C25.115 33.5653 25.8938 34.007 26.4376 34.6799C26.9814 35.3529 27.2498 36.207 27.1885 37.0701C27.1272 37.9331 26.7409 38.7408 26.1074 39.3301C25.474 39.9195 24.6406 40.2466 23.7754 40.2456H15.2281C15.0259 40.2457 14.8278 40.1895 14.6558 40.0832C14.4839 39.977 14.3449 39.8249 14.2546 39.6441L12.4511 36.0372L10.8598 44.7912ZM54.386 22.8421C53.3103 22.8421 52.2588 22.5231 51.3645 21.9255C50.4701 21.3279 49.773 20.4785 49.3614 19.4848C48.9497 18.491 48.842 17.3975 49.0519 16.3425C49.2617 15.2875 49.7797 14.3184 50.5403 13.5578C51.3009 12.7972 52.27 12.2793 53.325 12.0694C54.3799 11.8596 55.4735 11.9673 56.4672 12.3789C57.461 12.7905 58.3104 13.4876 58.908 14.382C59.5056 15.2764 59.8246 16.3279 59.8246 17.4035C59.8228 18.8454 59.2493 20.2277 58.2297 21.2473C57.2102 22.2668 55.8278 22.8404 54.386 22.8421ZM54.386 14.1404C53.7406 14.1404 53.1097 14.3317 52.5731 14.6903C52.0364 15.0489 51.6182 15.5585 51.3712 16.1548C51.1242 16.751 51.0596 17.4071 51.1855 18.0401C51.3114 18.6731 51.6222 19.2545 52.0786 19.7109C52.5349 20.1673 53.1164 20.4781 53.7494 20.604C54.3824 20.7299 55.0385 20.6653 55.6347 20.4183C56.231 20.1713 56.7406 19.753 57.0992 19.2164C57.4578 18.6798 57.6491 18.0489 57.6491 17.4035C57.6491 16.5381 57.3053 15.7081 56.6934 15.0961C56.0814 14.4841 55.2514 14.1404 54.386 14.1404ZM56.5788 44.7912L54.9875 36.0372L53.1895 39.6441C53.0987 39.8257 52.9589 39.9784 52.7859 40.0847C52.6129 40.191 52.4136 40.2467 52.2105 40.2456H43.6632C42.798 40.2466 41.9646 39.9195 41.3312 39.3301C40.6978 38.7408 40.3114 37.9331 40.2501 37.0701C40.1889 36.207 40.4572 35.3529 41.001 34.6799C41.5448 34.007 42.3236 33.5653 43.1803 33.4441L48.2926 32.7142L52.4596 26.0465C52.9962 25.1887 53.7598 24.4962 54.6658 24.0459C55.5718 23.5955 56.5848 23.4048 57.5926 23.4949C58.6004 23.585 59.5635 23.9524 60.3752 24.5564C61.187 25.1604 61.8156 25.9773 62.1914 26.9167L65.745 35.8023C66.8661 38.5986 67.441 41.5838 67.4386 44.5965H65.2632C65.2651 41.8603 64.743 39.1491 63.7251 36.6094L60.1705 27.7238C59.9436 27.1576 59.5645 26.6653 59.075 26.3014C58.5856 25.9375 58.0049 25.7162 57.3974 25.662C56.7899 25.6078 56.1793 25.7229 55.6331 25.9945C55.087 26.266 54.6267 26.6835 54.3033 27.2006L49.8698 34.2958C49.7859 34.43 49.6737 34.5444 49.5411 34.6308C49.4084 34.7172 49.2585 34.7736 49.1018 34.7961L43.4881 35.5989C43.1779 35.6442 42.8963 35.8051 42.6998 36.0494C42.5033 36.2936 42.4064 36.6031 42.4286 36.9158C42.4508 37.2285 42.5903 37.5213 42.8193 37.7354C43.0483 37.9495 43.3498 38.0691 43.6632 38.0702H51.5383L54.5002 32.1454C54.6021 31.9409 54.7658 31.7737 54.9681 31.6675C55.1705 31.5613 55.4011 31.5215 55.6273 31.5538C55.8535 31.586 56.0638 31.6887 56.2283 31.8472C56.3929 32.0057 56.5033 32.212 56.544 32.4369L58.7194 44.4018L56.5788 44.7912ZM33.7193 50.0351C31.989 50.0334 30.33 49.3452 29.1064 48.1217C27.8829 46.8981 27.1947 45.2391 27.193 43.5088V42.4211C27.193 40.6902 27.8806 39.0302 29.1045 37.8063C30.3284 36.5823 31.9884 35.8947 33.7193 35.8947C35.4502 35.8947 37.1102 36.5823 38.3341 37.8063C39.558 39.0302 40.2456 40.6902 40.2456 42.4211V43.5088C40.2439 45.2391 39.5557 46.8981 38.3322 48.1217C37.1087 49.3452 35.4497 50.0334 33.7193 50.0351ZM33.7193 38.0702C32.5654 38.0702 31.4587 38.5286 30.6428 39.3445C29.8268 40.1605 29.3684 41.2671 29.3684 42.4211V43.5088C29.3684 44.6627 29.8268 45.7694 30.6428 46.5853C31.4587 47.4013 32.5654 47.8596 33.7193 47.8596C34.8732 47.8596 35.9799 47.4013 36.7958 46.5853C37.6118 45.7694 38.0702 44.6627 38.0702 43.5088V42.4211C38.0702 41.2671 37.6118 40.1605 36.7958 39.3445C35.9799 38.5286 34.8732 38.0702 33.7193 38.0702ZM45.6842 62H43.5088V56.5614C43.5088 55.696 43.165 54.866 42.553 54.254C41.9411 53.642 41.1111 53.2982 40.2456 53.2982H27.193C26.3275 53.2982 25.4975 53.642 24.8856 54.254C24.2736 54.866 23.9298 55.696 23.9298 56.5614V62H21.7544V56.5614C21.7561 55.1195 22.3297 53.7372 23.3492 52.7176C24.3688 51.6981 25.7511 51.1245 27.193 51.1228H40.2456C41.6875 51.1245 43.0698 51.6981 44.0894 52.7176C45.1089 53.7372 45.6825 55.1195 45.6842 56.5614V62ZM33.7193 11.9649C32.2774 11.9632 30.8951 11.3896 29.8755 10.3701C28.856 9.35052 28.2824 7.96819 28.2807 6.52632V5.4386C28.2807 3.99619 28.8537 2.61286 29.8736 1.59293C30.8936 0.572993 32.2769 0 33.7193 0C35.1617 0 36.545 0.572993 37.565 1.59293C38.5849 2.61286 39.1579 3.99619 39.1579 5.4386V6.52632C39.1562 7.96819 38.5826 9.35052 37.5631 10.3701C36.5435 11.3896 35.1612 11.9632 33.7193 11.9649ZM33.7193 2.17544C32.8539 2.17544 32.0239 2.51923 31.4119 3.1312C30.7999 3.74316 30.4561 4.57315 30.4561 5.4386V6.52632C30.4561 7.39176 30.7999 8.22176 31.4119 8.83372C32.0239 9.44568 32.8539 9.78947 33.7193 9.78947C34.5848 9.78947 35.4147 9.44568 36.0267 8.83372C36.6387 8.22176 36.9825 7.39176 36.9825 6.52632V5.4386C36.9825 4.57315 36.6387 3.74316 36.0267 3.1312C35.4147 2.51923 34.5848 2.17544 33.7193 2.17544ZM43.5088 22.8421H41.3333V18.4912C41.3333 17.6258 40.9895 16.7958 40.3776 16.1838C39.7656 15.5719 38.9356 15.2281 38.0702 15.2281H29.3684C28.503 15.2281 27.673 15.5719 27.061 16.1838C26.4491 16.7958 26.1053 17.6258 26.1053 18.4912V22.8421H23.9298V18.4912C23.9316 17.0494 24.5051 15.667 25.5247 14.6475C26.5442 13.6279 27.9266 13.0544 29.3684 13.0526H38.0702C39.5121 13.0544 40.8944 13.6279 41.9139 14.6475C42.9335 15.667 43.5071 17.0494 43.5088 18.4912V22.8421Z" fill="url(#paint0_linear_2_242)"/>
<path d="M19.579 55.4737H10.8772C10.5887 55.4737 10.312 55.3591 10.1081 55.1551C9.90407 54.9511 9.78948 54.6744 9.78948 54.386V50.0351C9.78923 49.8996 9.81469 49.7652 9.86453 49.6392L13.1277 41.2996L15.153 42.0915L11.9649 50.2396V53.2982H19.579V55.4737ZM47.4615 29.7644L46.029 26.1053H21.4096L19.9771 29.7644L17.9474 28.9725L19.6507 24.6216C19.7306 24.4173 19.8703 24.2419 20.0516 24.1185C20.2329 23.995 20.4473 23.9293 20.6667 23.9298H46.7719C46.9907 23.9299 47.2044 23.996 47.3851 24.1194C47.5657 24.2428 47.705 24.4178 47.7846 24.6216L49.488 28.9725L47.4615 29.7644ZM56.5614 55.4737H47.8596V53.2982H55.4737V50.2396L52.2856 42.0947L54.3109 41.3029L57.5741 49.6424C57.6235 49.7674 57.649 49.9007 57.6491 50.0351V54.386C57.6491 54.6744 57.5345 54.9511 57.3305 55.1551C57.1266 55.3591 56.8499 55.4737 56.5614 55.4737Z" fill="url(#paint1_linear_2_242)"/>
<defs>
<linearGradient id="paint0_linear_2_242" x1="67.9784" y1="62.1002" x2="22.2059" y2="3.91345" gradientUnits="userSpaceOnUse">
<stop stop-color="#31393C"/>
<stop offset="1" stop-color="#3D96F5"/>
</linearGradient>
<linearGradient id="paint1_linear_2_242" x1="67.9784" y1="62.1002" x2="22.2059" y2="3.91345" gradientUnits="userSpaceOnUse">
<stop stop-color="#31393C"/>
<stop offset="1" stop-color="#3D96F5"/>
</linearGradient>
</defs>
</svg>
