<svg width="56" height="56" viewBox="0 0 56 56" fill="none" xmlns="http://www.w3.org/2000/svg">
<path fill-rule="evenodd" clip-rule="evenodd" d="M26.6875 40.8511C28.8791 40.5677 30.9951 39.9026 32.9129 38.8369C37.65 36.2009 40.3857 31.67 40.6182 26.0782L40.6382 25.5946H47.194C46.7908 22.3616 45.5709 19.282 43.6476 16.6418L36.9408 20.9467C38.9825 24.1448 39.2445 27.6896 37.6961 31.2309C35.8597 35.4256 31.5344 39.1004 26.6875 40.8511Z" fill="#EE3524"/>
<path fill-rule="evenodd" clip-rule="evenodd" d="M47.2955 26.6042H41.6024C41.2189 32.2605 38.2508 37.0232 33.4062 39.7189C30.6411 41.2565 27.4936 42.0224 24.28 42.0224C21.7353 42.0156 19.2131 41.5494 16.8367 40.6464C19.7493 42.4639 23.0231 43.4581 26.4149 43.4687H26.4668C32.5907 43.4687 38.0879 40.2283 41.1799 34.7946L41.4419 34.3356L45.2515 36.7503C46.6344 34.0382 47.3537 31.0408 47.351 28.0013C47.351 27.5306 47.3274 27.0656 47.2955 26.6042Z" fill="#EE3524"/>
<path fill-rule="evenodd" clip-rule="evenodd" d="M26.4653 44.4768H26.411C20.3095 44.4592 14.5763 41.4391 10.4965 36.2384C13.5968 42.7986 20.2753 47.3505 28.0007 47.3505C35.1619 47.3505 41.4215 43.4369 44.7673 37.639L41.7885 35.7512C38.4699 41.2283 32.7839 44.4768 26.4653 44.4768Z" fill="#EE3524"/>
<path fill-rule="evenodd" clip-rule="evenodd" d="M28.0006 0C12.5357 0 0 12.5362 0 28C0 43.4638 12.5357 56 28.0006 56C43.4643 56 56 43.465 56 28C56 12.535 43.4655 0 28.0006 0ZM28.0006 48.36C16.756 48.36 7.64039 39.2445 7.64039 28C7.64039 16.7567 16.756 7.64115 28.0006 7.64115C39.244 7.64115 48.3584 16.7567 48.3584 28C48.3584 39.2445 39.244 48.36 28.0006 48.36Z" fill="#EE3524"/>
</svg>
