<svg width="48" height="49" viewBox="0 0 48 49" fill="none" xmlns="http://www.w3.org/2000/svg">
<g clip-path="url(#clip0_2503_133)">
<path d="M1 47.1099L1 29.9999C0.999998 28.3838 1.6413 26.8338 2.78311 25.6901C3.92492 24.5464 5.47391 23.9026 7.09 23.8999H14.91C16.5261 23.9026 18.0751 24.5464 19.2169 25.6901C20.3587 26.8338 21 28.3838 21 29.9999V37.4999C21 38.4282 20.6313 39.3184 19.9749 39.9748C19.3185 40.6312 18.4283 40.9999 17.5 40.9999C16.5717 40.9999 15.6815 40.6312 15.0251 39.9748C14.3687 39.3184 14 38.4282 14 37.4999V24.9999C14 23.3874 14.6406 21.8409 15.7808 20.7007C16.921 19.5605 18.4675 18.9199 20.08 18.9199H27.92C28.7184 18.9199 29.5091 19.0772 30.2467 19.3827C30.9844 19.6883 31.6546 20.1361 32.2192 20.7007C32.7838 21.2653 33.2316 21.9355 33.5372 22.6732C33.8427 23.4109 34 24.2015 34 24.9999V37.4999C34 38.4282 33.6312 39.3184 32.9749 39.9748C32.3185 40.6312 31.4283 40.9999 30.5 40.9999C29.5717 40.9999 28.6815 40.6312 28.0251 39.9748C27.3687 39.3184 27 38.4282 27 37.4999V29.9099C27 28.3186 27.6321 26.7925 28.7574 25.6673C29.8826 24.5421 31.4087 23.9099 33 23.9099H41C42.5913 23.9099 44.1174 24.5421 45.2426 25.6673C46.3679 26.7925 47 28.3186 47 29.9099V47.1099" stroke="#3DA4C2" stroke-width="2" stroke-linecap="round"/>
<path d="M24 13C27.3137 13 30 10.3137 30 7C30 3.68629 27.3137 1 24 1C20.6863 1 18 3.68629 18 7C18 10.3137 20.6863 13 24 13Z" stroke="#3DA4C2" stroke-width="2" stroke-linecap="round"/>
<path d="M38.0005 19.4401C41.005 19.4401 43.4405 17.0045 43.4405 14.0001C43.4405 10.9956 41.005 8.56006 38.0005 8.56006C34.9961 8.56006 32.5605 10.9956 32.5605 14.0001C32.5605 17.0045 34.9961 19.4401 38.0005 19.4401Z" stroke="#3DA4C2" stroke-width="2" stroke-linecap="round"/>
<path d="M9.99078 19.4401C12.9952 19.4401 15.4308 17.0045 15.4308 14.0001C15.4308 10.9956 12.9952 8.56006 9.99078 8.56006C6.98635 8.56006 4.55078 10.9956 4.55078 14.0001C4.55078 17.0045 6.98635 19.4401 9.99078 19.4401Z" stroke="#3DA4C2" stroke-width="2" stroke-linecap="round"/>
</g>
<defs>
<clipPath id="clip0_2503_133">
<rect width="48" height="48.11" fill="white"/>
</clipPath>
</defs>
</svg>
