<svg width="153" height="39" viewBox="0 0 153 39" fill="none" xmlns="http://www.w3.org/2000/svg">
<path d="M49.084 30.2023L50.9774 25.8048C53.0234 27.3317 55.7413 28.1257 58.4287 28.1257C60.4137 28.1257 61.6658 27.3622 61.6658 26.2018C61.6352 22.9647 49.7864 25.4994 49.6948 17.3762C49.6642 13.2535 53.3288 10.0775 58.5203 10.0775C61.6047 10.0775 64.6891 10.841 66.8878 12.5816L65.1166 17.0708C63.1011 15.7882 60.5969 14.872 58.2149 14.872C56.5964 14.872 55.5276 15.6355 55.5276 16.6127C55.5581 19.7887 67.4986 18.048 67.6208 25.8048C67.6208 30.019 64.0478 32.9813 58.9173 32.9813C55.1611 32.9813 51.7103 32.0957 49.084 30.2023ZM121.735 24.2168C120.788 25.8658 119.017 26.9958 116.971 26.9958C113.947 26.9958 111.504 24.5527 111.504 21.5294C111.504 18.5061 113.947 16.063 116.971 16.063C119.017 16.063 120.788 17.1929 121.735 18.842L126.957 15.9409C125.002 12.4595 121.246 10.0775 116.971 10.0775C110.649 10.0775 105.519 15.2079 105.519 21.5294C105.519 27.8508 110.649 32.9813 116.971 32.9813C121.277 32.9813 125.002 30.6298 126.957 27.1179L121.735 24.2168ZM70.2471 0.580078H76.7823V32.5537H70.2471V0.580078ZM129.522 0.580078V32.5537H136.057V22.9647L143.814 32.5537H152.181L142.318 21.1629L151.449 10.5356H143.447L136.057 19.3612V0.580078H129.522ZM96.2047 24.2778C95.258 25.8353 93.3035 26.9958 91.1048 26.9958C88.0815 26.9958 85.6384 24.5527 85.6384 21.5294C85.6384 18.5061 88.0815 16.063 91.1048 16.063C93.3035 16.063 95.258 17.2846 96.2047 18.8726V24.2778ZM96.2047 10.5356V13.1313C95.1358 11.3296 92.479 10.0775 89.7 10.0775C83.9588 10.0775 79.4391 15.1469 79.4391 21.4988C79.4391 27.8508 83.9588 32.9813 89.7 32.9813C92.479 32.9813 95.1358 31.7292 96.2047 29.9274V32.5232H102.74V10.5356H96.2047Z" fill="black"/>
<path d="M8.68175 24.2474C8.68175 26.4767 6.87999 28.2784 4.65069 28.2784C2.42139 28.2784 0.619629 26.4767 0.619629 24.2474C0.619629 22.0181 2.42139 20.2163 4.65069 20.2163H8.68175V24.2474ZM10.6973 24.2474C10.6973 22.0181 12.499 20.2163 14.7283 20.2163C16.9576 20.2163 18.7594 22.0181 18.7594 24.2474V34.325C18.7594 36.5543 16.9576 38.3561 14.7283 38.3561C12.499 38.3561 10.6973 36.5543 10.6973 34.325V24.2474Z" fill="#E01E5A"/>
<path d="M14.7283 8.06212C12.499 8.06212 10.6972 6.26036 10.6972 4.03106C10.6972 1.80176 12.499 0 14.7283 0C16.9576 0 18.7594 1.80176 18.7594 4.03106V8.06212H14.7283ZM14.7283 10.1082C16.9576 10.1082 18.7594 11.91 18.7594 14.1393C18.7594 16.3686 16.9576 18.1703 14.7283 18.1703H4.62011C2.39081 18.1703 0.58905 16.3686 0.58905 14.1393C0.58905 11.91 2.39081 10.1082 4.62011 10.1082H14.7283Z" fill="#36C5F0"/>
<path d="M30.8831 14.1393C30.8831 11.91 32.6848 10.1082 34.9141 10.1082C37.1434 10.1082 38.9452 11.91 38.9452 14.1393C38.9452 16.3686 37.1434 18.1703 34.9141 18.1703H30.8831V14.1393ZM28.8675 14.1393C28.8675 16.3686 27.0658 18.1703 24.8365 18.1703C22.6072 18.1703 20.8054 16.3686 20.8054 14.1393V4.03106C20.8054 1.80176 22.6072 0 24.8365 0C27.0658 0 28.8675 1.80176 28.8675 4.03106V14.1393Z" fill="#2EB67D"/>
<path d="M24.8365 30.294C27.0658 30.294 28.8675 32.0957 28.8675 34.325C28.8675 36.5543 27.0658 38.3561 24.8365 38.3561C22.6072 38.3561 20.8054 36.5543 20.8054 34.325V30.294H24.8365ZM24.8365 28.2784C22.6072 28.2784 20.8054 26.4767 20.8054 24.2474C20.8054 22.0181 22.6072 20.2163 24.8365 20.2163H34.9447C37.174 20.2163 38.9757 22.0181 38.9757 24.2474C38.9757 26.4767 37.174 28.2784 34.9447 28.2784H24.8365Z" fill="#ECB22E"/>
</svg>
