<svg width="208" height="195" viewBox="0 0 208 195" fill="none" xmlns="http://www.w3.org/2000/svg">
<path opacity="0.7" d="M41.2262 102.759C41.2262 107.783 34.032 111.802 25.1497 111.802C16.2675 111.802 9.07324 107.783 9.07324 102.759C9.07324 97.7352 16.2574 93.7161 25.1497 93.7161C34.042 93.7161 41.2262 97.7653 41.2262 102.759Z" fill="url(#paint0_linear_1_4378)"/>
<path opacity="0.7" d="M96.9512 194.726L120.905 180.92L23.9539 126.521L0 140.327L96.9512 194.726Z" fill="url(#paint1_linear_1_4378)"/>
<path opacity="0.7" d="M135.936 172.259L161.86 157.258L64.9087 102.859L38.9854 117.86L135.936 172.259Z" fill="url(#paint2_linear_1_4378)"/>
<path opacity="0.7" d="M182.066 145.593L208 130.592L111.049 76.1934L85.1152 91.2048L182.066 145.593Z" fill="url(#paint3_linear_1_4378)"/>
<path opacity="0.7" d="M156.225 183.121C156.225 186.527 161.128 189.291 167.187 189.291C173.246 189.291 178.149 186.527 178.149 183.121C178.149 179.715 173.236 176.952 167.187 176.952C161.138 176.952 156.225 179.715 156.225 183.121Z" fill="url(#paint4_linear_1_4378)"/>
<path d="M36.8049 47.6466C35.6474 46.8774 34.8278 45.6948 34.5139 44.3409C33.9983 42.2943 33.2074 40.327 32.1628 38.4931C30.6154 35.8405 28.3948 34.7352 26.747 35.2878L27.0887 42.884C27.0887 42.884 30.9771 49.7768 31.6604 51.4849C32.3436 53.193 33.9111 53.605 34.0919 54.0069C35.0967 56.0968 36.6139 55.8858 38.9149 53.5447C39.6785 52.761 39.9297 49.616 36.8049 47.6466Z" fill="url(#paint5_linear_1_4378)"/>
<path d="M34.0418 100.337C34.0418 100.337 35.0465 101.432 36.403 102.758C37.7594 104.085 38.0408 104.326 39.2064 105.461C39.8796 106.114 39.3269 106.727 38.0307 106.677C36.2784 106.506 34.552 106.132 32.8863 105.562C31.5488 105.002 30.2614 104.33 29.038 103.552C28.4897 103.229 28.0814 102.713 27.8925 102.105V100.096L34.0418 100.337Z" fill="#421F1D"/>
<path d="M16.4984 98.5283C17.0988 99.3409 17.7714 100.098 18.508 100.789C19.5173 101.755 20.4324 102.815 21.241 103.954C21.4922 104.286 21.6429 105.23 20.3468 105.18C18.8753 105.036 17.4292 104.698 16.0463 104.175C14.3984 103.582 13.0319 101.934 12.0272 101.322C11.3832 100.829 10.9033 100.153 10.6506 99.3824L11.3038 97.3728L16.4984 98.5283Z" fill="#421F1D"/>
<path d="M11.3138 97.3537C11.3138 97.3537 12.0171 87.6274 15.4635 79.8806C15.4635 79.4184 16.3678 75.2686 16.408 74.8567C18.5984 76.2332 20.2563 79.8303 22.6979 80.1921C22.6276 80.383 22.5573 82.5332 22.507 82.7643C21.6429 86.8839 18.307 99.092 18.307 99.092C18.307 99.092 16.1467 101.574 13.474 100.237C10.8013 98.9011 11.3138 97.3537 11.3138 97.3537Z" fill="#773939"/>
<path d="M34.4253 74.8054C35.1286 83.3762 35.0784 100.357 35.0784 100.357C35.0784 100.357 34.9277 102.125 31.9133 102.105C30.3647 101.978 28.9249 101.258 27.8942 100.096L27.6631 78.9953C30.4262 78.6839 32.5966 76.8552 34.4253 74.8054Z" fill="#773939"/>
<path d="M32.0128 53.6356C31.9124 51.3246 31.3396 43.9897 31.199 43.1055C30.7569 40.3122 30.365 38.3931 29.4105 37.5289C26.6875 35.0873 20.3675 36.4739 20.3675 36.4739C20.3675 36.4739 15.0823 39.1768 14.811 41.2265C14.59 42.8442 18.7397 50.9528 17.4637 56.7805C15.9747 63.7027 14.8544 70.6992 14.1077 77.7402C15.1124 78.4235 20.8095 82.1311 24.899 82.1311C32.0128 82.1311 34.4846 77.911 35.3186 76.7455C35.2885 71.0383 32.3243 60.9905 32.0128 53.6356Z" fill="white"/>
<path d="M25.5319 35.5395L26.185 39.3677C26.1121 40.0306 25.885 40.6672 25.5219 41.2266C24.5171 40.6538 23.2309 40.694 22.3266 39.9203C21.4382 39.2872 20.6949 38.472 20.1463 37.529C20.6993 35.874 21.0831 34.1672 21.2917 32.4347C22.5678 31.9223 25.5319 35.5395 25.5319 35.5395Z" fill="#FFAD9F"/>
<path d="M21.222 32.9673C22.0105 34.9234 23.5012 36.5144 25.4019 37.4285C27.4114 38.3227 31.1995 33.0979 29.7225 28.908C29.5292 28.2175 29.1705 27.5846 28.6776 27.0639C28.1846 26.5433 27.5722 26.1507 26.8933 25.9201C26.2144 25.6896 25.4895 25.6279 24.7814 25.7406C24.0733 25.8533 23.4034 26.1369 22.8296 26.5668C21.5736 27.5314 20.4885 30.4855 21.222 32.9673Z" fill="#FFC5B3"/>
<path d="M30.0621 30.2444C29.61 30.746 29.0292 31.1141 28.3827 31.3089C27.7362 31.5038 27.0487 31.5178 26.3947 31.3497C25.3924 31.1953 24.4279 30.8545 23.5512 30.3449L23.2095 32.5655C23.0085 32.5265 22.8151 32.4552 22.6368 32.3544C22.6368 31.4702 22.2852 31.1989 21.8029 31.4602C21.3206 31.7214 21.2301 33.0076 21.2301 33.0076C20.7317 32.4647 20.3725 31.8089 20.1835 31.0966C19.9945 30.3843 19.9812 29.6367 20.145 28.9181C20.4866 27.3607 22.5966 24.2861 25.5306 24.5574C26.6716 24.5907 27.7727 24.9851 28.6755 25.6838C29.5782 26.3826 30.2361 27.3496 30.5544 28.4459C30.6238 28.7631 30.6153 29.0924 30.5296 29.4057C30.4438 29.7189 30.2834 30.0067 30.0621 30.2444Z" fill="#722B0C"/>
<path d="M26.92 37.2065C27.4992 37.7921 27.9748 38.4716 28.3267 39.2161C28.036 39.1722 27.739 39.2277 27.4837 39.3736C27.2284 39.5194 27.0298 39.7472 26.92 40.0199C26.6011 40.5587 26.1087 40.9732 25.5234 41.1955C25.6674 39.947 25.6674 38.6861 25.5234 37.4377C25.7583 37.509 26.0065 37.5253 26.2488 37.4852C26.491 37.4451 26.7206 37.3498 26.92 37.2065Z" fill="url(#paint6_linear_1_4378)"/>
<path d="M20.4478 35.8809C20.4478 35.8809 22.3368 37.8904 23.5526 39.0158C24.2666 39.7112 24.9377 40.4494 25.5622 41.2263C24.9765 41.2574 24.3895 41.2574 23.8038 41.2263C23.5521 41.1996 23.298 41.2473 23.073 41.3633C22.8481 41.4794 22.662 41.6588 22.5378 41.8794C22.5378 41.8794 19.6138 38.6239 19.6239 37.0464C19.6393 36.7948 19.7246 36.5524 19.8702 36.3465C20.0157 36.1406 20.2157 35.9794 20.4478 35.8809Z" fill="url(#paint7_linear_1_4378)"/>
<path d="M20.3872 31.7113C20.2867 32.073 21.2312 32.9673 21.2312 32.9673C21.2312 32.9673 25.5719 32.6458 27.2599 32.274C28.3561 32.0168 29.3842 31.5268 30.2742 30.8372C30.2742 30.8372 20.8092 30.2644 20.3872 31.7113Z" fill="url(#paint8_linear_1_4378)"/>
<path d="M20.4869 31.8615C20.4869 31.8615 19.2208 31.5299 18.9696 29.2893C18.7184 27.0486 19.3515 25.1797 21.984 23.7529C24.6165 22.3261 26.6261 22.507 28.284 23.8735C29.9418 25.24 31.871 26.5462 31.9413 28.1639C32.0116 29.7816 30.0222 31.0275 30.0222 31.0275C28.8309 31.5323 27.5573 31.8149 26.2643 31.8615C23.8931 32.0223 20.4869 31.8615 20.4869 31.8615Z" fill="white"/>
<path d="M20.2173 28.4756C20.0896 28.842 20.0381 29.2305 20.0657 29.6175C20.0934 30.0045 20.1996 30.3818 20.378 30.7263C20.7837 31.3443 21.2742 31.9024 21.8349 32.3842L22.6387 32.3139C21.9139 31.7876 21.2909 31.1339 20.8 30.3847C20.5736 29.7586 20.379 29.1214 20.2173 28.4756Z" fill="url(#paint9_linear_1_4378)"/>
<path d="M22.9594 28.7566C22.9594 28.7566 22.2661 29.8317 22.6378 30.4446C22.9488 31.0755 23.2076 31.7308 23.4115 32.4039H23.8737C23.8917 31.775 23.7681 31.15 23.512 30.5752C23.2328 30.0021 23.0462 29.3882 22.9594 28.7566Z" fill="url(#paint10_linear_1_4378)"/>
<path d="M27.0193 29.6616C26.6074 29.9478 26.2642 30.3218 26.0146 30.7568C25.7847 31.2238 25.6222 31.7212 25.5322 32.2339H25.9543C25.9791 31.7838 26.1026 31.3447 26.316 30.9477L27.0193 29.6616Z" fill="url(#paint11_linear_1_4378)"/>
<path d="M25.8837 42.2915C25.8837 42.2915 26.7177 46.9336 26.8885 48.5613C27.0593 50.1891 26.6875 57.323 26.8885 60.3876C27.0894 63.4522 27.4913 69.6215 27.6722 72.3545C27.714 74.9946 27.6034 77.6348 27.3406 80.2621C28.0415 79.0414 28.3894 77.6499 28.3454 76.243C28.265 73.8918 28.0439 68.9584 27.7224 65.8235C27.4661 61.6911 27.4661 57.5468 27.7224 53.4144C27.8394 50.5122 27.5759 47.6071 26.9387 44.7733C26.6912 43.9055 26.3368 43.0719 25.8837 42.2915Z" fill="url(#paint12_linear_1_4378)"/>
<path d="M23.2313 60.2265C23.4925 59.0308 23.8341 57.9256 22.3169 56.5591C21.7342 56.0366 19.9356 55.8155 18.8805 55.1725C18.4083 54.8811 17.6447 54.8208 16.8208 54.4289C17.5844 53.1026 17.9963 48.5007 18.3782 46.8027C19.0915 43.6075 18.77 39.2065 16.6801 38.7644C12.5002 37.9104 10.7418 46.8027 10.4002 51.1433C10.3399 51.9371 10.7619 54.2682 10.8322 56.1672C10.7995 56.5958 10.8587 57.0264 11.006 57.4302C11.1534 57.834 11.3853 58.2016 11.6863 58.5083C12.4399 59.282 14.2485 61.2514 16.1576 61.2514C17.4479 61.3374 18.7267 61.5494 19.9758 61.8844C20.6275 62.0704 21.3254 62.0028 21.9293 61.6952C22.5332 61.3877 22.9984 60.863 23.2313 60.2265Z" fill="url(#paint13_linear_1_4378)"/>
<path d="M20.9902 34.4041C20.9902 34.4041 24.0045 38.4232 26.1749 37.9008C28.3452 37.3783 29.2394 34.4041 29.2394 34.4041C28.2364 34.1292 27.1779 34.1292 26.1749 34.4041C24.8385 34.9065 24.8084 35.0472 23.8739 34.7558C22.9142 34.2854 22.0248 33.6834 21.2314 32.9673L20.9902 34.4041Z" fill="white"/>
<path d="M28.3649 25.7427C27.0587 25.17 25.029 25.5116 23.0195 25.7427C21.0099 25.9738 22.1051 27.0891 24.0242 27.3906C25.9434 27.692 27.1792 29.7016 29.4299 28.948C31.6807 28.1944 29.7515 26.3154 28.3649 25.7427Z" fill="url(#paint14_linear_1_4378)"/>
<path d="M26.8682 59.5738L32.2739 50.2595C32.6634 49.637 33.2159 49.1332 33.8716 48.8026L38.8954 45.9188C39.1265 45.8184 39.2873 45.8083 39.3878 45.8686L39.9002 46.16L39.4782 46.5418L39.3476 46.4212C39.3476 46.4212 39.3476 46.4715 39.3476 46.4916L33.972 55.8059C33.5826 56.4283 33.03 56.9322 32.3744 57.2628L27.672 59.9857L27.4208 60.5082L26.8883 60.1968C26.6673 60.1164 26.6773 59.9054 26.8682 59.5738Z" fill="#4E6A82"/>
<path d="M39.3061 46.2099L34.2822 49.1037C33.6279 49.4315 33.0754 49.9318 32.6846 50.5506L27.3794 59.9051C27.0579 60.4577 27.2588 60.719 27.8114 60.4778L32.8353 57.584C33.4897 57.2562 34.0421 56.7559 34.433 56.1372L39.8186 46.8229C40.0999 46.23 39.8989 45.9688 39.3061 46.2099Z" fill="#33526D"/>
<path d="M26.2442 57.1415C26.9979 56.5718 27.8958 56.2238 28.8366 56.1367C28.8366 56.2573 28.1533 57.3324 28.1533 57.3324C28.1533 57.3324 31.0471 56.3276 32.1725 56.6793C33.1772 56.9606 32.8155 58.3271 30.5347 59.774C29.1458 60.4509 27.6184 60.7949 26.0734 60.7788C25.0687 60.7788 22.3256 60.5075 22.3256 60.5075C22.1592 60.3507 22.0267 60.1614 21.9361 59.9515C21.8456 59.7416 21.7988 59.5154 21.7988 59.2867C21.7988 59.0581 21.8456 58.8318 21.9361 58.6219C22.0267 58.412 22.1592 58.2228 22.3256 58.0659C23.6775 58.0017 25.0061 57.6883 26.2442 57.1415Z" fill="#FFD0CA"/>
<path d="M37.9909 49.9878C38.6038 50.2892 38.0512 52.9419 36.8253 53.7658C35.8206 54.4591 34.5143 53.5949 35.298 52.1179C35.9409 51.1346 36.886 50.387 37.9909 49.9878Z" fill="#FFD0CA"/>
<path d="M111.129 73.6709L114.937 75.8312L108.617 79.4785L104.809 77.3082L111.129 73.6709Z" fill="#626F72"/>
<path d="M108.616 83.1554L103.01 86.4009V5.77738L108.616 2.54199V83.1554Z" fill="#31393C"/>
<path d="M104.799 0.361816L108.617 2.54219L103.011 5.77758L99.1926 3.60725L104.799 0.361816Z" fill="#626F72"/>
<path d="M99.1926 3.60742L103.011 5.77775V87.3457L99.1926 85.4467V3.60742Z" fill="#475154"/>
<path d="M96.6905 93.7257L114.937 83.1956V75.8306L96.6905 86.3606V93.7257Z" fill="#31393C"/>
<path d="M99.1914 80.5532L103.01 82.7135L96.6895 86.3608L92.8713 84.1805L99.1914 80.5532Z" fill="#626F72"/>
<path d="M92.8713 84.1804L96.6895 86.3608V93.7258L92.8713 91.5053V84.1804Z" fill="#475154"/>
<path d="M114.174 78.714C114.085 78.6781 113.989 78.6649 113.895 78.6754C113.8 78.6859 113.709 78.72 113.631 78.7744C113.357 78.9675 113.133 79.2232 112.977 79.5203C112.822 79.8173 112.739 80.1472 112.737 80.4824C112.723 80.6171 112.743 80.7532 112.796 80.8779C112.849 81.0026 112.932 81.112 113.038 81.1959L116.977 83.4164L118.052 80.8944L114.174 78.714Z" fill="#421F1D"/>
<path d="M118.493 78.7851C118.263 78.6915 118.013 78.6562 117.766 78.6825C117.518 78.7088 117.282 78.7959 117.076 78.9359C116.385 79.4296 115.82 80.0787 115.425 80.8309C115.031 81.583 114.819 82.4173 114.805 83.2665C114.769 83.6109 114.819 83.959 114.953 84.2787C115.086 84.5983 115.298 84.8792 115.569 85.0952L189.209 127.447L192.123 121.137L118.493 78.7851Z" fill="#819499"/>
<path d="M192.938 122.985C192.925 123.835 192.713 124.669 192.318 125.421C191.924 126.173 191.358 126.822 190.667 127.316C189.421 128.039 188.406 127.316 188.406 125.608C188.418 124.758 188.629 123.923 189.022 123.169C189.414 122.416 189.978 121.764 190.667 121.267C191.923 120.544 192.938 121.317 192.938 122.985Z" fill="#819499"/>
<path d="M191.432 123.337C191.342 123.301 191.244 123.288 191.148 123.298C191.051 123.309 190.959 123.343 190.879 123.397C190.606 123.591 190.383 123.847 190.227 124.144C190.072 124.441 189.989 124.77 189.985 125.105C189.969 125.241 189.989 125.379 190.044 125.504C190.099 125.629 190.186 125.738 190.296 125.819L194.225 128.039L195.31 125.517L191.432 123.337Z" fill="#421F1D"/>
<path d="M179.967 49.3653L178.42 119.74L179.365 121.78L165.619 113.882L169.297 44.6328L179.967 49.3653Z" fill="url(#paint15_linear_1_4378)"/>
<path d="M106.537 6.51088C106.447 6.475 106.35 6.46174 106.254 6.47225C106.157 6.48276 106.065 6.51674 105.985 6.5712C105.712 6.76554 105.489 7.02149 105.333 7.31828C105.178 7.61508 105.095 7.94433 105.091 8.27931C105.076 8.41505 105.097 8.55228 105.151 8.67741C105.206 8.80254 105.292 8.91121 105.402 8.99269L109.331 11.2133L110.416 8.69127L106.537 6.51088Z" fill="#3F4849"/>
<path d="M110.858 6.58176C110.627 6.48542 110.375 6.44875 110.126 6.47508C109.876 6.50142 109.638 6.58991 109.431 6.73247C108.743 7.22841 108.181 7.87822 107.788 8.63008C107.396 9.38193 107.184 10.2151 107.171 11.0631C107.131 11.4063 107.18 11.754 107.314 12.0725C107.448 12.3911 107.661 12.6698 107.934 12.8817L181.564 55.2332L184.488 48.9332L110.858 6.58176Z" fill="#819499"/>
<path d="M185.293 50.7818C185.279 51.6298 185.067 52.4629 184.675 53.2148C184.282 53.9666 183.72 54.6165 183.032 55.1124C181.776 55.8358 180.761 55.1124 180.761 53.3942C180.774 52.545 180.986 51.7108 181.381 50.9586C181.775 50.2064 182.341 49.5574 183.032 49.0636C184.278 48.3402 185.293 49.1139 185.293 50.7818Z" fill="#5F6D70"/>
<path d="M183.785 51.1334C183.695 51.0976 183.597 51.0843 183.501 51.0948C183.405 51.1053 183.312 51.1393 183.232 51.1937C182.959 51.3881 182.736 51.644 182.581 51.9408C182.425 52.2376 182.342 52.5669 182.338 52.9019C182.323 53.0376 182.344 53.1748 182.399 53.3C182.453 53.4251 182.54 53.5338 182.649 53.6152L186.578 55.8358L187.663 53.3138L183.785 51.1334Z" fill="#3F4849"/>
<path d="M100.267 86.7123C100.177 86.6764 100.079 86.6632 99.9829 86.6737C99.8865 86.6842 99.7942 86.7181 99.7141 86.7726C99.4429 86.9686 99.221 87.225 99.0658 87.5214C98.9107 87.8178 98.8264 88.1462 98.8198 88.4807C98.804 88.6166 98.8246 88.7542 98.8793 88.8795C98.934 89.0048 99.0209 89.1134 99.1313 89.1941L103.06 91.4147L104.145 88.9027L100.267 86.7123Z" fill="#3F4849"/>
<path d="M104.618 86.7923C104.388 86.6959 104.138 86.6592 103.89 86.6855C103.642 86.7119 103.405 86.8004 103.201 86.943C102.51 87.4367 101.945 88.0858 101.55 88.838C101.156 89.5901 100.944 90.4244 100.93 91.2736C100.891 91.6168 100.94 91.9645 101.074 92.2831C101.207 92.6017 101.421 92.8804 101.694 93.0923L175.334 135.444L178.248 129.134L104.618 86.7923Z" fill="#819499"/>
<path d="M179.032 130.983C179.02 131.834 178.809 132.67 178.414 133.424C178.02 134.178 177.453 134.829 176.761 135.324C175.515 136.047 174.49 135.324 174.49 133.606C174.505 132.757 174.718 131.923 175.112 131.171C175.506 130.419 176.071 129.77 176.761 129.275C178.017 128.552 179.032 129.315 179.032 130.983Z" fill="#5F6D70"/>
<path d="M177.524 131.345C177.44 131.298 177.344 131.273 177.248 131.273C177.151 131.273 177.056 131.298 176.971 131.345C176.7 131.541 176.478 131.798 176.323 132.094C176.168 132.391 176.084 132.719 176.077 133.054C176.062 133.19 176.082 133.328 176.135 133.454C176.188 133.58 176.271 133.692 176.378 133.777L180.317 135.998L181.392 133.476L177.524 131.345Z" fill="#3F4849"/>
<path d="M195.782 122.674L199.601 124.834L193.281 128.481L189.472 126.301L195.782 122.674Z" fill="#626F72"/>
<path d="M189.451 49.3647L193.279 51.5351L187.662 54.7705L183.854 52.6001L189.451 49.3647Z" fill="#626F72"/>
<path d="M183.854 52.6001L187.662 54.7704V136.348L183.854 134.449V52.6001Z" fill="#475154"/>
<path d="M187.664 131.717V54.771L193.28 51.5356V128.482L199.6 124.834V132.189L181.344 142.719V135.364L187.664 131.717Z" fill="#31393C"/>
<path d="M183.855 129.547L187.663 131.717L181.343 135.365L177.535 133.184L183.855 129.547Z" fill="#626F72"/>
<path d="M177.535 133.183L181.343 135.363V142.718L177.535 140.508V133.183Z" fill="#475154"/>
<path d="M111.451 13.1626C111.511 12.3789 111.744 11.6181 112.131 10.934C112.518 10.2499 113.051 9.65922 113.691 9.20376C113.893 9.06382 114.126 8.97669 114.37 8.95036C114.614 8.92403 114.861 8.95934 115.088 9.05305L179.394 46.0088L175.706 50.2992L172.019 125.557L107.572 88.511L111.451 13.1626Z" fill="url(#paint16_linear_1_4378)"/>
<path d="M182.992 117.248C182.978 118.096 182.766 118.929 182.374 119.681C181.981 120.433 181.419 121.083 180.731 121.578C179.475 122.302 178.46 121.578 178.46 119.86C178.473 119.011 178.685 118.177 179.08 117.425C179.474 116.673 180.04 116.023 180.731 115.53C181.987 114.806 182.992 115.58 182.992 117.248Z" fill="#819499"/>
<path d="M179.729 49.9331C180.48 48.1663 180.279 46.3888 179.278 45.9629C178.277 45.5371 176.856 46.6241 176.104 48.3909C175.353 50.1576 175.555 51.9351 176.555 52.3609C177.556 52.7868 178.977 51.6998 179.729 49.9331Z" fill="#819499"/>
<path d="M171.989 133.616L107.543 96.5794L78.7861 55.5342L143.233 92.5804L171.989 133.616Z" fill="url(#paint17_linear_1_4378)"/>
<path d="M44.0604 85.3763L55.7359 78.6343V44.0297L63.9449 39.2871V103.814L43.7891 115.459L39.9709 93.7863L44.0604 85.3763Z" fill="#B71A1A"/>
<path d="M51.5753 89.8978L63.2509 83.1558V48.5511L71.47 43.8086V108.336L51.3041 119.981L47.4959 98.3078L51.5753 89.8978Z" fill="#31393C"/>
<path d="M63.9454 39.2871L71.4712 43.8086L63.2521 48.5512L55.7363 44.0297L63.9454 39.2871Z" fill="#626F72"/>
<path d="M55.7361 78.6343L63.2518 83.1558L51.5763 89.8979L44.0605 85.3763L55.7361 78.6343Z" fill="#626F72"/>
<path d="M55.7363 44.0293L63.2521 48.5508V83.1554L55.7363 78.6339V44.0293Z" fill="#475154"/>
<path d="M39.9709 93.7861L47.4967 98.3076L51.3048 119.981L43.7891 115.459L39.9709 93.7861Z" fill="#475154"/>
<path d="M51.5761 89.8977L47.4967 98.3077L39.9709 93.7862L44.0604 85.3762L51.5761 89.8977Z" fill="#525D5E"/>
<path d="M69.7013 47.2445C69.4614 47.1453 69.2004 47.1079 68.9423 47.136C68.6842 47.1641 68.4373 47.2567 68.2243 47.4053C67.5118 47.9157 66.9287 48.5861 66.5222 49.3626C66.1156 50.1391 65.8968 51.0002 65.8832 51.8766C65.8449 52.2314 65.8977 52.5901 66.0366 52.9189C66.1755 53.2476 66.3959 53.5356 66.6769 53.7555L142.709 97.4835L145.723 90.9725L69.7013 47.2445Z" fill="#819499"/>
<path d="M146.557 92.8818C146.544 93.7584 146.326 94.6197 145.919 95.3964C145.513 96.173 144.929 96.8433 144.216 97.3531C142.92 98.0967 141.875 97.3531 141.875 95.5847C141.887 94.708 142.105 93.8464 142.512 93.0696C142.919 92.2929 143.502 91.6227 144.216 91.1134C145.512 90.3598 146.557 91.1536 146.557 92.8818Z" fill="#819499"/>
<path d="M56.1278 94.5302C56.112 95.7927 55.799 97.0336 55.2142 98.1526C54.6294 99.2716 53.7892 100.237 52.7618 100.971C50.8929 102.046 49.3857 100.901 49.3857 98.4187C49.4043 97.1571 49.7195 95.9175 50.306 94.8004C50.8925 93.6832 51.7338 92.7198 52.7618 91.9881C54.6206 90.913 56.1278 92.0585 56.1278 94.5302Z" fill="#475154"/>
<path d="M50.6615 80.0712L62.4174 73.2688L63.2012 73.7008L62.4174 76.4841L50.6314 83.2965C49.9682 83.6784 49.4256 83.2965 49.4256 82.3822C49.4352 81.9269 49.5522 81.4803 49.767 81.0787C49.9817 80.6771 50.2882 80.332 50.6615 80.0712Z" fill="#626F72"/>
<path d="M50.6206 83.7683L49.8369 83.3363L49.9776 82.6631L50.8417 82.9846L50.6206 83.7683Z" fill="#626F72"/>
<path d="M51.445 80.5031L63.231 73.7007V76.926L51.445 83.7284C50.7819 84.1102 50.2393 83.7284 50.2393 82.814C50.247 82.3617 50.36 81.9174 50.5693 81.5162C50.7786 81.1151 51.0784 80.7682 51.445 80.5031Z" fill="#31393C"/>
<path d="M53.5043 95.1928C53.4143 95.1569 53.3168 95.1436 53.2205 95.1541C53.1241 95.1646 53.0318 95.1986 52.9517 95.2531C52.6788 95.4474 52.4556 95.7033 52.3002 96.0001C52.1448 96.2969 52.0616 96.6262 52.0574 96.9612C52.0427 97.0969 52.0637 97.2341 52.1183 97.3593C52.1729 97.4844 52.2593 97.5931 52.3689 97.6746L56.2976 99.8951L57.3827 97.3731L53.5043 95.1928Z" fill="#3F4849"/>
<path d="M57.7562 98.087C57.7497 98.4216 57.6655 98.7499 57.5103 99.0464C57.3551 99.3428 57.1331 99.5992 56.862 99.7952C56.3696 100.077 55.9678 99.7952 55.9678 99.1119C55.9744 98.7774 56.0586 98.449 56.2138 98.1525C56.3689 97.8561 56.5908 97.5998 56.862 97.4038C57.3945 97.1626 57.7562 97.4641 57.7562 98.087Z" fill="#3F4849"/>
<path d="M57.3928 98.3676C57.3949 98.564 57.3494 98.758 57.2601 98.933C57.1709 99.1079 57.0406 99.2587 56.8803 99.3724C56.609 99.5331 56.3779 99.3724 56.3779 98.9905C56.3772 98.7954 56.4222 98.6028 56.5095 98.4283C56.5967 98.2538 56.7238 98.1022 56.8803 97.9858C57.1516 97.825 57.3928 97.9958 57.3928 98.3676Z" fill="#3F4849"/>
<path d="M65.0185 91.2347C64.3086 90.9416 63.5365 90.8313 62.7729 90.9138C62.0093 90.9963 61.2786 91.269 60.6477 91.707C56.7994 93.9275 53.6846 99.8859 53.6846 105.01C53.6846 107.773 54.5889 109.733 56.0257 110.607L120.472 147.593L129.445 128.231L65.0185 91.2347Z" fill="white"/>
<path d="M130.527 140.288C132.838 134.855 132.22 129.39 129.147 128.082C126.073 126.774 121.707 130.118 119.395 135.551C117.083 140.984 117.701 146.449 120.775 147.757C123.849 149.065 128.215 145.721 130.527 140.288Z" fill="url(#paint18_linear_1_4378)"/>
<path d="M130.621 135.203C130.621 138.971 128.33 143.342 125.506 144.979C122.683 146.617 120.382 144.879 120.382 141.111C120.382 137.343 122.673 132.962 125.506 131.335C128.34 129.707 130.621 131.435 130.621 135.203Z" fill="url(#paint19_linear_1_4378)"/>
<path d="M129.105 136.379C129.088 137.642 128.774 138.884 128.187 140.003C127.601 141.122 126.759 142.087 125.729 142.819C123.87 143.895 122.363 142.759 122.363 140.277C122.379 139.015 122.692 137.774 123.277 136.655C123.862 135.536 124.702 134.571 125.729 133.837C127.598 132.762 129.105 133.897 129.105 136.379Z" fill="#253F56"/>
<path d="M126.532 137.383C126.442 137.348 126.345 137.334 126.248 137.345C126.152 137.355 126.06 137.389 125.98 137.444C125.707 137.638 125.483 137.894 125.328 138.191C125.173 138.488 125.09 138.817 125.085 139.152C125.071 139.287 125.092 139.423 125.144 139.547C125.197 139.672 125.28 139.781 125.387 139.865L129.326 142.086L130.401 139.564L126.532 137.383Z" fill="#31393C"/>
<path d="M130.743 140.288C130.737 140.623 130.653 140.952 130.498 141.248C130.342 141.545 130.12 141.801 129.848 141.996C129.346 142.278 128.954 141.996 128.954 141.323C128.957 140.988 129.039 140.658 129.195 140.361C129.35 140.064 129.574 139.808 129.848 139.615C130.381 139.354 130.743 139.655 130.743 140.288Z" fill="#31393C"/>
<path d="M130.401 140.568C130.406 140.764 130.362 140.958 130.275 141.133C130.187 141.308 130.058 141.46 129.898 141.573C129.617 141.734 129.396 141.573 129.396 141.191C129.391 140.995 129.434 140.801 129.522 140.626C129.609 140.451 129.739 140.3 129.898 140.186C130.18 140.026 130.401 140.196 130.401 140.568Z" fill="#31393C"/>
<path d="M69.2705 76.5341C69.1805 76.4982 69.083 76.4849 68.9867 76.4954C68.8903 76.506 68.798 76.5399 68.7179 76.5944C68.445 76.7887 68.2218 77.0447 68.0664 77.3414C67.911 77.6382 67.8278 77.9675 67.8236 78.3025C67.8097 78.4372 67.83 78.5732 67.8827 78.6979C67.9354 78.8226 68.0188 78.932 68.125 79.0159L72.0637 81.2364L73.1389 78.7144L69.2705 76.5341Z" fill="#874545"/>
<path d="M73.5199 79.4681C73.5133 79.8027 73.4291 80.1311 73.2739 80.4275C73.1188 80.724 72.8968 80.9803 72.6257 81.1763C72.1233 81.4576 71.7315 81.1763 71.7315 80.5031C71.7341 80.1678 71.8165 79.838 71.972 79.5409C72.1276 79.2439 72.3516 78.9881 72.6257 78.795C73.118 78.5036 73.5199 78.805 73.5199 79.4681Z" fill="#773939"/>
<path d="M73.1386 79.7195C73.1436 79.9153 73.1003 80.1094 73.0127 80.2846C72.9251 80.4598 72.7958 80.6108 72.6362 80.7243C72.3549 80.8851 72.1338 80.7243 72.1338 80.3425C72.1322 80.1473 72.1769 79.9544 72.2642 79.7797C72.3516 79.6051 72.479 79.4536 72.6362 79.3378C72.9175 79.1669 73.1386 79.3377 73.1386 79.7195Z" fill="#773939"/>
<path d="M80.7851 72.575C80.0752 72.2819 79.3031 72.1716 78.5395 72.2541C77.7759 72.3366 77.0452 72.6093 76.4143 73.0473C72.566 75.2679 69.4512 81.2262 69.4512 86.3506C69.4512 89.1137 70.3555 91.0731 71.7923 91.9472L136.239 128.933L145.201 109.571L80.7851 72.575Z" fill="url(#paint20_linear_1_4378)"/>
<path d="M147.693 115.248C147.693 120.373 144.578 126.301 140.73 128.551C136.881 130.802 133.767 128.421 133.767 123.286C133.767 118.152 136.881 112.234 140.73 109.983C144.578 107.732 147.693 110.144 147.693 115.248Z" fill="url(#paint21_linear_1_4378)"/>
<path d="M144.162 120.797C145.281 118.167 144.983 115.523 143.497 114.891C142.011 114.259 139.9 115.878 138.781 118.508C137.662 121.137 137.959 123.782 139.445 124.414C140.931 125.046 143.043 123.427 144.162 120.797Z" fill="#31393C"/>
<path d="M142.286 118.725C142.196 118.689 142.099 118.676 142.003 118.686C141.906 118.697 141.814 118.731 141.734 118.785C141.461 118.979 141.238 119.235 141.082 119.532C140.927 119.829 140.844 120.158 140.84 120.493C140.825 120.629 140.846 120.766 140.9 120.891C140.955 121.016 141.041 121.125 141.151 121.207L145.08 123.427L146.165 120.905L142.286 118.725Z" fill="#874545"/>
<path d="M146.536 121.659C146.531 121.994 146.448 122.324 146.293 122.62C146.137 122.917 145.914 123.173 145.641 123.367C145.149 123.649 144.747 123.367 144.747 122.694C144.751 122.359 144.834 122.03 144.99 121.733C145.145 121.436 145.368 121.18 145.641 120.986C146.134 120.695 146.536 120.996 146.536 121.659Z" fill="#773939"/>
<path d="M146.165 121.91C146.17 122.105 146.127 122.299 146.04 122.475C145.952 122.65 145.823 122.801 145.663 122.914C145.382 123.075 145.151 122.914 145.151 122.533C145.148 122.336 145.193 122.142 145.282 121.966C145.371 121.791 145.502 121.641 145.663 121.528C145.944 121.367 146.165 121.538 146.165 121.91Z" fill="#773939"/>
<path d="M58.7803 78.9055C58.5418 78.808 58.2826 78.7717 58.0264 78.7997C57.7702 78.8278 57.5251 78.9194 57.3133 79.0663C56.6002 79.5761 56.0168 80.2464 55.6102 81.023C55.2035 81.7997 54.985 82.661 54.9722 83.5375C54.9319 83.8916 54.9827 84.25 55.1198 84.5789C55.257 84.9077 55.476 85.1961 55.7559 85.4165L131.747 129.144L134.762 122.633L58.7803 78.9055Z" fill="#6B797C"/>
<path d="M135.636 124.543C135.624 125.42 135.406 126.281 134.999 127.058C134.593 127.835 134.009 128.505 133.295 129.014C131.999 129.768 130.954 129.014 130.954 127.246C130.967 126.369 131.185 125.508 131.592 124.731C131.998 123.955 132.582 123.285 133.295 122.775C134.591 122.031 135.636 122.825 135.636 124.543Z" fill="#4B5456"/>
<path d="M128.502 134.249L140.177 127.507V92.902L148.396 88.1594V152.686L128.23 164.332L124.412 142.659L128.502 134.249Z" fill="#B71A1A"/>
<path d="M136.018 138.77L147.693 132.028V97.4135L155.913 92.6709V157.208L135.747 168.843L131.938 147.18L136.018 138.77Z" fill="#31393C"/>
<path d="M136.469 139.474L144.899 134.601V162.383L136.449 167.256L132.872 146.899L136.469 139.474Z" fill="white"/>
<path d="M136.771 144.879L143.644 140.91V137.102L136.771 141.081V144.879Z" fill="#31393C"/>
<path d="M136.771 146.185L143.644 142.216V141.413L136.771 145.392V146.185Z" fill="#31393C"/>
<path d="M137.254 144.005L143.162 140.599V137.987L137.254 141.393V144.005Z" fill="white"/>
<path d="M148.396 88.1592L155.912 92.6706L147.693 97.4132L140.177 92.9017L148.396 88.1592Z" fill="#626F72"/>
<path d="M140.177 127.507L147.692 132.028L136.017 138.77L128.501 134.249L140.177 127.507Z" fill="#626F72"/>
<path d="M139.997 128.622L145.654 132.028L136.199 137.374L130.542 133.978L139.997 128.622Z" fill="white"/>
<path d="M140.177 92.9023L147.693 97.4138V132.028L140.177 127.507V92.9023Z" fill="#475154"/>
<path d="M124.412 142.658L131.938 147.18L135.746 168.843L128.23 164.332L124.412 142.658Z" fill="#475154"/>
<path d="M136.017 138.77L131.938 147.18L124.412 142.659L128.502 134.249L136.017 138.77Z" fill="#525D5E"/>
<path d="M150.818 143.804L153.751 142.106V136.741L150.818 138.429V143.804Z" fill="url(#paint22_linear_1_4378)"/>
<path d="M151.238 141.122L153.328 139.906V137.555L151.238 138.77V141.122Z" fill="#1C2F3F"/>
<path d="M150.818 138.429L148.819 137.223V142.598L150.818 143.804V138.429Z" fill="url(#paint23_linear_1_4378)"/>
<path d="M151.753 135.534L153.752 136.74L150.818 138.428L148.819 137.222L151.753 135.534Z" fill="url(#paint24_linear_1_4378)"/>
<path d="M137.705 130.32L139.815 131.536L140.257 131.275L138.157 130.059L137.705 130.32Z" fill="#475154"/>
<path d="M139.636 132.43C139.636 132.942 140.379 133.354 141.294 133.354C142.208 133.354 142.942 132.942 142.942 132.43C142.942 131.918 142.208 131.496 141.294 131.496C140.379 131.496 139.636 131.918 139.636 132.43Z" fill="#475154"/>
<path d="M142.608 131.496V132.249C142.608 132.661 142.015 132.993 141.292 132.993C140.568 132.993 139.976 132.661 139.976 132.249V131.476L142.608 131.496Z" fill="#3E96F4"/>
<path d="M141.292 132.279C142.019 132.279 142.608 131.946 142.608 131.536C142.608 131.125 142.019 130.792 141.292 130.792C140.565 130.792 139.976 131.125 139.976 131.536C139.976 131.946 140.565 132.279 141.292 132.279Z" fill="url(#paint25_linear_1_4378)"/>
<path d="M133.929 132.521L136.039 133.736L136.491 133.475L134.381 132.259L133.929 132.521Z" fill="#475154"/>
<path d="M135.866 134.631C135.866 135.143 136.61 135.555 137.524 135.555C138.438 135.555 139.172 135.143 139.172 134.631C139.172 134.118 138.428 133.696 137.524 133.696C136.62 133.696 135.866 134.118 135.866 134.631Z" fill="#475154"/>
<path d="M138.83 133.696V134.47C138.83 134.882 138.248 135.203 137.524 135.203C136.801 135.203 136.208 134.882 136.208 134.47V133.696H138.83Z" fill="#3E96F4"/>
<path d="M137.524 134.48C138.251 134.48 138.841 134.147 138.841 133.736C138.841 133.326 138.251 132.993 137.524 132.993C136.797 132.993 136.208 133.326 136.208 133.736C136.208 134.147 136.797 134.48 137.524 134.48Z" fill="url(#paint26_linear_1_4378)"/>
<path d="M53.8861 79.468C53.6489 79.3663 53.3897 79.3268 53.133 79.3532C52.8763 79.3795 52.6306 79.4709 52.4191 79.6187C51.7059 80.1286 51.1225 80.7988 50.7159 81.5755C50.3092 82.3521 50.0907 83.2134 50.0779 84.09C50.0375 84.444 50.0884 84.8025 50.2255 85.1313C50.3627 85.4602 50.5817 85.7485 50.8617 85.9689L126.893 129.697L129.908 123.186L53.8861 79.468Z" fill="#819499"/>
<path d="M130.742 125.094C130.729 125.972 130.511 126.835 130.104 127.613C129.697 128.392 129.114 129.064 128.401 129.576C127.104 130.319 126.06 129.525 126.06 127.797C126.072 126.921 126.291 126.059 126.697 125.283C127.104 124.506 127.688 123.836 128.401 123.326C129.737 122.582 130.742 123.376 130.742 125.094Z" fill="#5F6D70"/>
<path d="M128.37 124.904L140.146 118.102L140.93 118.534L140.146 121.327L128.37 128.129C127.697 128.511 127.154 128.129 127.154 127.215C127.162 126.761 127.276 126.316 127.487 125.914C127.698 125.513 128.001 125.167 128.37 124.904Z" fill="#475154"/>
<path d="M128.33 128.611L127.536 128.169L127.687 127.496L128.541 127.828L128.33 128.611Z" fill="#475154"/>
<path d="M129.145 125.346L140.931 118.534V121.759L129.145 128.572C128.482 128.954 127.939 128.572 127.939 127.657C127.946 127.205 128.058 126.76 128.267 126.358C128.477 125.957 128.777 125.61 129.145 125.346Z" fill="#31393C"/>
<path d="M134.762 125.346C134.755 125.88 134.622 126.405 134.374 126.878C134.126 127.352 133.77 127.76 133.335 128.069C132.551 128.532 131.908 128.069 131.908 126.994C131.917 126.459 132.051 125.934 132.299 125.459C132.547 124.985 132.901 124.575 133.335 124.261C134.089 123.809 134.762 124.291 134.762 125.346Z" fill="#31393C"/>
<path d="M76.7262 51.2847L73.3401 53.6559L61.4033 83.8797L125.87 120.876L137.726 90.883L140.982 88.2505L76.7262 51.2847Z" fill="white"/>
<path d="M139.454 92.9926C138.961 93.5452 138.449 94.1079 137.977 94.7107C137.733 94.4827 137.545 94.2022 137.427 93.8905C137.309 93.5788 137.263 93.2442 137.293 92.9122C137.309 92.0346 137.528 91.1728 137.934 90.3949C138.341 89.617 138.923 88.9445 139.634 88.4309C140.921 87.6974 141.956 88.4308 141.976 90.1591C141.132 91.0533 140.288 92.0581 139.454 92.9926Z" fill="#819499"/>
<path d="M77.4889 53.1432C77.4761 54.0211 77.2577 54.8839 76.8511 55.6622C76.4445 56.4404 75.8611 57.1125 75.1477 57.6245C73.8616 58.368 72.8066 57.5743 72.8066 55.846C72.8226 54.9701 73.0424 54.1099 73.4488 53.3337C73.8552 52.5576 74.4369 51.8869 75.1477 51.3748C76.4841 50.6312 77.4889 51.425 77.4889 53.1432Z" fill="white"/>
<path d="M11.9784 141.834L30.2252 131.304V103.643L11.9784 114.173V141.834Z" fill="#31393C"/>
<path d="M8.16895 111.993L26.4157 101.403L30.2239 103.643L11.9771 114.174L8.16895 111.993Z" fill="#626F72"/>
<path d="M11.8075 132.4L30.0644 121.81L110.899 168.602L92.642 179.132L11.8075 132.4Z" fill="#626F72"/>
<path d="M20.2968 112.837C20.1971 112.795 20.0885 112.78 19.9812 112.792C19.8739 112.805 19.7715 112.844 19.6839 112.907C19.3799 113.123 19.1307 113.408 18.9562 113.737C18.7817 114.067 18.6868 114.433 18.6791 114.806C18.6643 114.957 18.688 115.108 18.7477 115.247C18.8074 115.386 18.9014 115.507 19.0207 115.6L23.4016 118.072L24.5972 115.268L20.2968 112.837Z" fill="#3F4849"/>
<path d="M25.0298 116.102C25.0213 116.475 24.9261 116.84 24.7517 117.17C24.5773 117.5 24.3285 117.784 24.0251 118.001C23.4724 118.322 23.0203 118.001 23.0203 117.247C23.0265 116.874 23.1207 116.507 23.2953 116.177C23.4699 115.847 23.7199 115.563 24.0251 115.348C24.5777 115.037 25.0298 115.368 25.0298 116.102Z" fill="#3F4849"/>
<path d="M24.6078 116.374C24.6063 116.585 24.5545 116.793 24.4566 116.98C24.3588 117.167 24.2177 117.327 24.0451 117.449C23.7336 117.63 23.4824 117.449 23.4824 117.027C23.4855 116.816 23.5381 116.609 23.6358 116.422C23.7335 116.236 23.8737 116.075 24.0451 115.952C24.3566 115.771 24.6078 115.962 24.6078 116.374Z" fill="#3F4849"/>
<path d="M33.109 108.445C32.3203 108.117 31.4617 107.992 30.6121 108.081C29.7624 108.171 28.9488 108.472 28.2458 108.958C23.9755 111.43 20.499 118.061 20.499 123.758C20.499 126.833 21.5038 129.013 23.1114 129.978L94.7824 171.174L104.76 149.631C104.76 149.631 33.2798 108.506 33.109 108.445Z" fill="white"/>
<path d="M104.386 162.196C106.948 156.151 106.253 150.075 102.832 148.625C99.4117 147.175 94.5615 150.9 91.9991 156.945C89.4367 162.989 90.1323 169.065 93.5529 170.515C96.9734 171.965 101.824 168.24 104.386 162.196Z" fill="url(#paint27_linear_1_4378)"/>
<path d="M106.066 157.369C106.066 161.559 103.524 166.412 100.379 168.241C97.2338 170.069 94.6816 168.13 94.6816 163.94C94.6816 159.75 97.2338 154.897 100.379 153.069C103.524 151.24 106.066 153.149 106.066 157.369Z" fill="url(#paint28_linear_1_4378)"/>
<path d="M104.376 158.655C104.376 161.408 102.698 164.623 100.628 165.809C98.5579 166.995 96.8799 165.739 96.8799 162.976C96.8799 160.212 98.5579 157.017 100.628 155.822C102.698 154.626 104.376 155.892 104.376 158.655Z" fill="#253F56"/>
<path d="M101.513 159.77C101.414 159.726 101.306 159.709 101.199 159.719C101.091 159.73 100.988 159.768 100.9 159.83C100.596 160.047 100.347 160.331 100.173 160.661C99.9981 160.991 99.9032 161.357 99.8954 161.73C99.8797 161.88 99.9029 162.032 99.9627 162.171C100.023 162.31 100.117 162.431 100.237 162.523L104.618 164.995L105.814 162.192L101.513 159.77Z" fill="#874545"/>
<path d="M106.246 163.026C106.238 163.399 106.143 163.765 105.969 164.094C105.794 164.424 105.545 164.709 105.241 164.925C104.688 165.246 104.236 164.925 104.236 164.171C104.244 163.798 104.339 163.432 104.513 163.102C104.688 162.773 104.937 162.488 105.241 162.272C105.794 161.961 106.246 162.292 106.246 163.026Z" fill="#773939"/>
<path d="M105.825 163.306C105.821 163.517 105.769 163.724 105.671 163.911C105.573 164.098 105.433 164.259 105.262 164.381C104.95 164.552 104.699 164.381 104.699 163.949C104.702 163.739 104.755 163.532 104.853 163.345C104.95 163.158 105.091 162.997 105.262 162.874C105.624 162.693 105.825 162.884 105.825 163.306Z" fill="#773939"/>
<path d="M96.3992 190.979L114.646 180.449V152.787L96.3992 163.317V190.979Z" fill="#31393C"/>
<path d="M92.5811 161.137L110.838 150.547L114.646 152.788L96.3992 163.318L92.5811 161.137Z" fill="#626F72"/>
<path d="M11.9771 114.173V132.44L92.5805 178.981V161.136L96.3986 163.317V190.978L92.5805 188.758V182.568L11.9771 136.037V141.835L8.16895 139.614V111.993L11.9771 114.173Z" fill="#475154"/>
<path d="M162.643 129.366L155.207 133.586L151.027 120.453L158.463 116.243L162.643 129.366Z" fill="#31393C"/>
<path d="M162.926 129.225L155.49 133.445L151.31 120.323L158.736 116.103L162.926 129.225Z" fill="#475154"/>
<path d="M162.062 127.989L155.732 131.576L152.165 120.402L158.495 116.815L162.062 127.989Z" fill="white"/>
<path d="M160.796 122.613L161.258 124.06C160.91 124.264 160.574 124.489 160.253 124.733C159.952 124.995 160.203 125.246 160.575 125.246C161.029 125.291 161.487 125.291 161.941 125.246L162.584 125.045L163.478 123.508C162.717 122.904 161.767 122.587 160.796 122.613Z" fill="#FFC4B2"/>
<path d="M153.742 128.682C154.182 128.489 154.65 128.367 155.128 128.32C155.56 128.32 155.63 128.481 155.52 128.682C155.417 128.865 155.253 129.007 155.058 129.084C154.72 129.387 154.413 129.724 154.143 130.089C153.882 130.411 153.709 130.795 153.641 131.204C153.641 131.204 154.063 133.033 153.179 132.209C152.114 131.204 151.35 129.195 151.863 128.19C152.15 127.614 152.546 127.099 153.028 126.673L153.742 128.682Z" fill="#FFC4B2"/>
<path d="M172.621 117.539C173.315 117.336 174.057 117.378 174.723 117.658C175.389 117.938 175.938 118.439 176.279 119.076C177.565 121.367 176.59 124.894 175.756 126.11C174.922 127.325 171.536 123.688 171.536 123.688L172.621 117.539Z" fill="url(#paint29_linear_1_4378)"/>
<path d="M169.808 180.589C168.532 179.946 167.327 179.172 167.708 178.438C167.824 178.278 167.975 178.146 168.149 178.052C168.323 177.959 168.516 177.905 168.713 177.896C169.356 178.131 170.039 178.24 170.723 178.217C170.723 178.217 169.969 166.16 169.909 162.744C169.909 161.799 174.169 161.116 174.169 161.116C174.563 162.602 174.775 164.13 174.802 165.668C174.802 169.687 174.089 175.635 173.888 177.906C173.87 178.724 173.992 179.54 174.25 180.317L172.853 180.94C172.352 181.114 171.818 181.172 171.291 181.111C170.764 181.05 170.257 180.872 169.808 180.589Z" fill="#FFC4B2"/>
<path d="M174.23 182.176C173.798 183.181 172.813 183.101 170.823 182.387C169.226 181.851 167.716 181.083 166.342 180.107C165.086 179.172 165.076 179.102 164.915 178.419C164.684 177.544 165.92 177.052 168.1 177.715L168.683 177.896C168.486 177.905 168.293 177.959 168.119 178.053C167.945 178.147 167.794 178.279 167.678 178.439C167.297 179.172 168.502 179.946 169.778 180.589C170.217 180.86 170.709 181.032 171.222 181.093C171.734 181.153 172.253 181.102 172.743 180.941L174.139 180.318C174.3 181.172 174.481 181.574 174.23 182.176Z" fill="#31393C"/>
<path d="M163.599 184.196C162.323 183.553 161.107 182.779 161.499 182.046C161.614 181.885 161.764 181.752 161.938 181.658C162.112 181.564 162.306 181.511 162.504 181.503C163.079 181.713 163.675 181.861 164.282 181.945C164.539 178.653 164.623 175.349 164.533 172.048C164.377 168.606 164.011 165.177 163.438 161.779C163.267 160.845 167.859 160.775 167.859 160.775C167.909 160.976 169.386 164.563 169.406 166.643C169.406 171.335 167.879 179.062 167.668 181.483C167.641 182.303 167.75 183.121 167.99 183.905C167.688 184.035 167.055 184.307 166.593 184.528C166.1 184.691 165.576 184.747 165.06 184.689C164.543 184.632 164.044 184.464 163.599 184.196Z" fill="#FFC4B2"/>
<path d="M168.01 185.784C167.588 186.789 166.603 186.708 164.614 185.995C163.016 185.455 161.506 184.683 160.132 183.704C158.876 182.78 158.866 182.699 158.696 182.026C158.464 181.152 159.7 180.65 161.881 181.323L162.474 181.504C162.276 181.511 162.082 181.564 161.908 181.658C161.734 181.752 161.584 181.885 161.469 182.046C161.077 182.78 162.293 183.553 163.569 184.196C164.009 184.463 164.501 184.633 165.013 184.693C165.524 184.754 166.042 184.704 166.533 184.548C166.995 184.327 167.628 184.056 167.929 183.925C168.09 184.779 168.271 185.171 168.01 185.784Z" fill="#31393C"/>
<path d="M168.271 106.377C167.749 106.748 165.779 107.2 165.257 111.541C164.764 115.379 165.618 116.384 166.392 116.716C167.054 116.843 167.728 116.901 168.402 116.887L168.341 120.132C169.55 120.565 170.871 120.565 172.079 120.132L173.898 119.378C173.4 118.334 173.196 117.174 173.305 116.022C173.456 113.38 174.39 109.622 173.727 108.225C173.525 107.716 173.215 107.256 172.818 106.878C172.421 106.501 171.946 106.214 171.427 106.038C170.908 105.862 170.357 105.801 169.812 105.86C169.267 105.918 168.741 106.095 168.271 106.377Z" fill="#FFC4B2"/>
<path d="M176.429 124.633C175.625 118.283 173.887 117.971 173.887 117.971C173.887 117.971 169.024 119.227 167.698 119.68C166.372 120.132 165.316 120.745 164.01 123.367C162.704 125.99 164.362 129.828 164.362 129.828C164.523 132.231 164.446 134.644 164.131 137.032C163.749 139.936 163.438 140.187 162.292 144.749C161.679 147.15 159.469 156.022 159.187 162.955C159.187 162.955 160.926 165.598 166.763 165.97C170.782 166.241 177.545 162.111 177.545 162.111C177.545 162.111 178.459 144.839 176.027 138.79C174.359 134.651 176.821 127.768 176.429 124.633Z" fill="white"/>
<path d="M168.08 112.706C169.155 113.832 170.21 114.184 170.532 115.198C174.31 115.249 175.938 113.189 176.772 109.391C175.385 107.11 173.516 105.372 171.597 105C166.955 103.995 165.156 106.115 165.438 109.17C165.578 110.667 166.985 111.571 168.08 112.706Z" fill="#703434"/>
<path d="M165.91 121.709C163.9 121.91 159.881 131.023 159.881 131.023L159.409 131.124C159.188 132.364 159.157 133.631 159.318 134.881C160.012 134.912 160.702 134.771 161.328 134.469C161.328 134.469 167.849 129.134 167.989 126.009C168.1 123.568 166.985 121.608 165.91 121.709Z" fill="#FFC4B2"/>
<path d="M166.362 112.154C166.362 112.154 167.508 110.195 168 112.154C168.141 112.627 168.103 113.135 167.894 113.581C167.684 114.028 167.318 114.382 166.865 114.576L166.362 112.154Z" fill="#FFC4B2"/>
<path d="M165.086 110.666C164.475 109.467 164.227 108.116 164.372 106.778C164.573 104.407 167.065 102.387 170.964 103.301C172.482 103.603 173.879 104.344 174.981 105.432C176.083 106.519 176.841 107.906 177.163 109.42C177.937 112.103 177.636 114.685 175.435 115.359C173.235 116.032 169.668 116.363 168.402 114.525C167.459 113.107 166.346 111.811 165.086 110.666Z" fill="white"/>
<path d="M165.478 107.712C165.478 107.712 165.578 109.229 165.658 109.973C165.712 110.561 165.869 111.136 166.121 111.671C166.419 111.044 166.487 110.333 166.312 109.661L165.478 107.712Z" fill="url(#paint30_linear_1_4378)"/>
<path d="M167.697 109.491C167.697 109.491 167.335 110.938 167.225 111.671C167.163 112.043 167.126 112.419 167.114 112.796C167.358 112.761 167.585 112.651 167.765 112.482C167.945 112.313 168.068 112.093 168.119 111.852C168.157 111.043 168.013 110.236 167.697 109.491Z" fill="url(#paint31_linear_1_4378)"/>
<path d="M171.535 114.002C170.953 114.028 170.372 113.935 169.827 113.731C169.181 113.51 168.5 113.411 167.817 113.44C168.118 113.753 168.479 114.003 168.877 114.175C169.275 114.348 169.704 114.439 170.138 114.445C171.374 114.314 171.535 114.002 171.535 114.002Z" fill="url(#paint32_linear_1_4378)"/>
<path d="M164.774 109.973L165.086 111.038C165.579 111.337 166.012 111.726 166.362 112.184C166.813 112.741 167.31 113.258 167.849 113.731C167.317 112.641 166.641 111.627 165.839 110.717C165.519 110.422 165.161 110.172 164.774 109.973Z" fill="url(#paint33_linear_1_4378)"/>
<path d="M168 103.834C166.443 103.834 165.83 104.607 165.991 105.301C166.152 105.994 166.996 106.245 167.89 106.778C169.286 107.855 170.241 109.406 170.573 111.139C170.726 112.025 171.158 112.84 171.807 113.464C172.456 114.088 173.287 114.487 174.18 114.605C175.657 114.605 176.511 114.364 176.812 112.957C177.114 111.55 176.993 110.556 176.139 111.048C174.321 112.053 172.381 112.304 171.899 109.973C171.417 107.642 170.08 107.059 169.035 106.024C167.99 104.989 169.769 103.834 168 103.834Z" fill="url(#paint34_linear_1_4378)"/>
<path d="M166.432 120.272C167.343 118.989 168.671 118.063 170.19 117.649C171.21 117.442 172.217 117.17 173.204 116.835L173.837 117.971C171.41 118.867 168.939 119.635 166.432 120.272Z" fill="url(#paint35_linear_1_4378)"/>
<path d="M166.433 121.458C165.428 121.076 164.635 121.89 163.72 123.015C162.806 124.14 160.023 129.747 159.611 129.938C159.199 130.129 159.048 129.536 158.284 129.938C158.045 130.09 157.77 130.177 157.486 130.191C157.203 130.205 156.92 130.145 156.667 130.018C155.907 129.86 155.139 129.746 154.366 129.677C154.065 129.781 153.791 129.951 153.564 130.174C153.337 130.398 153.162 130.669 153.053 130.969C152.945 131.268 152.904 131.588 152.935 131.905C152.965 132.222 153.066 132.529 153.23 132.802C154.235 133.183 156.305 134.148 158.546 134.882C159.952 135.354 161.078 135.585 162.334 134.882C163.59 134.178 167.971 129.858 168.453 127.748C168.935 125.638 168.794 122.382 166.433 121.458Z" fill="url(#paint36_linear_1_4378)"/>
<defs>
<linearGradient id="paint0_linear_1_4378" x1="9.11343" y1="102.759" x2="41.2161" y2="102.759" gradientUnits="userSpaceOnUse">
<stop stop-color="#9CBAD8"/>
<stop offset="1" stop-color="#A4C7EA"/>
</linearGradient>
<linearGradient id="paint1_linear_1_4378" x1="120.905" y1="160.624" x2="0" y2="160.624" gradientUnits="userSpaceOnUse">
<stop stop-color="#9CBAD8"/>
<stop offset="1" stop-color="#A4C7EA"/>
</linearGradient>
<linearGradient id="paint2_linear_1_4378" x1="161.86" y1="137.554" x2="38.9753" y2="137.554" gradientUnits="userSpaceOnUse">
<stop stop-color="#9CBAD8"/>
<stop offset="1" stop-color="#A4C7EA"/>
</linearGradient>
<linearGradient id="paint3_linear_1_4378" x1="208" y1="110.888" x2="85.1152" y2="110.888" gradientUnits="userSpaceOnUse">
<stop stop-color="#9CBAD8"/>
<stop offset="1" stop-color="#A4C7EA"/>
</linearGradient>
<linearGradient id="paint4_linear_1_4378" x1="178.149" y1="183.121" x2="156.225" y2="183.121" gradientUnits="userSpaceOnUse">
<stop stop-color="#9CBAD8"/>
<stop offset="1" stop-color="#A4C7EA"/>
</linearGradient>
<linearGradient id="paint5_linear_1_4378" x1="39.4072" y1="45.2954" x2="26.747" y2="45.2954" gradientUnits="userSpaceOnUse">
<stop stop-color="#A0B1C2"/>
<stop offset="1" stop-color="#BFDAF4"/>
</linearGradient>
<linearGradient id="paint6_linear_1_4378" x1="28.3267" y1="39.2161" x2="25.5234" y2="39.2161" gradientUnits="userSpaceOnUse">
<stop stop-color="#A0B1C2"/>
<stop offset="1" stop-color="#BFDAF4"/>
</linearGradient>
<linearGradient id="paint7_linear_1_4378" x1="25.522" y1="38.8751" x2="19.5837" y2="38.8751" gradientUnits="userSpaceOnUse">
<stop stop-color="#A0B1C2"/>
<stop offset="1" stop-color="#BFDAF4"/>
</linearGradient>
<linearGradient id="paint8_linear_1_4378" x1="30.3446" y1="31.8419" x2="20.3771" y2="31.8419" gradientUnits="userSpaceOnUse">
<stop stop-color="#A0B1C2"/>
<stop offset="1" stop-color="#BFDAF4"/>
</linearGradient>
<linearGradient id="paint9_linear_1_4378" x1="22.6387" y1="30.4248" x2="20.0565" y2="30.4248" gradientUnits="userSpaceOnUse">
<stop stop-color="#A0B1C2"/>
<stop offset="1" stop-color="#BFDAF4"/>
</linearGradient>
<linearGradient id="paint10_linear_1_4378" x1="23.8737" y1="30.5551" x2="22.5273" y2="30.5551" gradientUnits="userSpaceOnUse">
<stop stop-color="#A0B1C2"/>
<stop offset="1" stop-color="#BFDAF4"/>
</linearGradient>
<linearGradient id="paint11_linear_1_4378" x1="27.0193" y1="30.9477" x2="25.5222" y2="30.9477" gradientUnits="userSpaceOnUse">
<stop stop-color="#A0B1C2"/>
<stop offset="1" stop-color="#BFDAF4"/>
</linearGradient>
<linearGradient id="paint12_linear_1_4378" x1="28.3354" y1="61.2718" x2="25.8837" y2="61.2718" gradientUnits="userSpaceOnUse">
<stop stop-color="#A0B1C2"/>
<stop offset="1" stop-color="#BFDAF4"/>
</linearGradient>
<linearGradient id="paint13_linear_1_4378" x1="23.5026" y1="50.3596" x2="10.4303" y2="50.3596" gradientUnits="userSpaceOnUse">
<stop stop-color="#A0B1C2"/>
<stop offset="1" stop-color="#BFDAF4"/>
</linearGradient>
<linearGradient id="paint14_linear_1_4378" x1="21.9443" y1="27.2298" x2="30.4247" y2="27.2298" gradientUnits="userSpaceOnUse">
<stop stop-color="white"/>
<stop offset="1" stop-color="#D1E8FF"/>
</linearGradient>
<linearGradient id="paint15_linear_1_4378" x1="172.793" y1="44.6328" x2="172.793" y2="121.78" gradientUnits="userSpaceOnUse">
<stop stop-color="#9CBAD8"/>
<stop offset="1" stop-color="#BFDAF4"/>
</linearGradient>
<linearGradient id="paint16_linear_1_4378" x1="143.453" y1="8.92243" x2="143.453" y2="125.527" gradientUnits="userSpaceOnUse">
<stop stop-color="white"/>
<stop offset="1" stop-color="#D1E8FF"/>
</linearGradient>
<linearGradient id="paint17_linear_1_4378" x1="171.989" y1="94.5698" x2="78.7861" y2="94.5698" gradientUnits="userSpaceOnUse">
<stop stop-color="#9CBAD8"/>
<stop offset="1" stop-color="#BFDAF4"/>
</linearGradient>
<linearGradient id="paint18_linear_1_4378" x1="131.718" y1="136.425" x2="117.793" y2="136.406" gradientUnits="userSpaceOnUse">
<stop stop-color="white"/>
<stop offset="1" stop-color="#D1E8FF"/>
</linearGradient>
<linearGradient id="paint19_linear_1_4378" x1="130.621" y1="138.157" x2="120.382" y2="138.157" gradientUnits="userSpaceOnUse">
<stop stop-color="#9CBAD8"/>
<stop offset="1" stop-color="#BFDAF4"/>
</linearGradient>
<linearGradient id="paint20_linear_1_4378" x1="69.4512" y1="100.578" x2="145.201" y2="100.578" gradientUnits="userSpaceOnUse">
<stop stop-color="white"/>
<stop offset="1" stop-color="#D1E8FF"/>
</linearGradient>
<linearGradient id="paint21_linear_1_4378" x1="135.414" y1="128.481" x2="146.055" y2="110.053" gradientUnits="userSpaceOnUse">
<stop stop-color="#9CBAD8"/>
<stop offset="1" stop-color="#BFDAF4"/>
</linearGradient>
<linearGradient id="paint22_linear_1_4378" x1="152.284" y1="143.794" x2="152.284" y2="136.731" gradientUnits="userSpaceOnUse">
<stop stop-color="#9CBAD8"/>
<stop offset="1" stop-color="#BFDAF4"/>
</linearGradient>
<linearGradient id="paint23_linear_1_4378" x1="149.823" y1="137.223" x2="149.823" y2="143.794" gradientUnits="userSpaceOnUse">
<stop stop-color="#9CBAD8"/>
<stop offset="0.99" stop-color="#97B1CA"/>
</linearGradient>
<linearGradient id="paint24_linear_1_4378" x1="153.752" y1="136.981" x2="148.819" y2="136.981" gradientUnits="userSpaceOnUse">
<stop stop-color="white"/>
<stop offset="1" stop-color="#D1E8FF"/>
</linearGradient>
<linearGradient id="paint25_linear_1_4378" x1="142.608" y1="131.526" x2="139.976" y2="131.526" gradientUnits="userSpaceOnUse">
<stop stop-color="#84C2FF"/>
<stop offset="0.41" stop-color="#7FBEFC"/>
<stop offset="0.89" stop-color="#71B2F3"/>
<stop offset="1" stop-color="#6DAEF0"/>
</linearGradient>
<linearGradient id="paint26_linear_1_4378" x1="138.83" y1="133.726" x2="136.208" y2="133.726" gradientUnits="userSpaceOnUse">
<stop stop-color="#84C2FF"/>
<stop offset="0.41" stop-color="#7FBEFC"/>
<stop offset="0.89" stop-color="#71B2F3"/>
<stop offset="1" stop-color="#6DAEF0"/>
</linearGradient>
<linearGradient id="paint27_linear_1_4378" x1="105.703" y1="158.014" x2="90.2324" y2="158.014" gradientUnits="userSpaceOnUse">
<stop stop-color="white"/>
<stop offset="1" stop-color="#D1E8FF"/>
</linearGradient>
<linearGradient id="paint28_linear_1_4378" x1="106.066" y1="160.624" x2="94.6816" y2="160.624" gradientUnits="userSpaceOnUse">
<stop stop-color="#9CBAD8"/>
<stop offset="1" stop-color="#BFDAF4"/>
</linearGradient>
<linearGradient id="paint29_linear_1_4378" x1="176.902" y1="121.869" x2="171.536" y2="121.869" gradientUnits="userSpaceOnUse">
<stop stop-color="#B3C6D8"/>
<stop offset="1" stop-color="#BFDAF4"/>
</linearGradient>
<linearGradient id="paint30_linear_1_4378" x1="165.95" y1="111.671" x2="165.95" y2="107.712" gradientUnits="userSpaceOnUse">
<stop stop-color="#B3C6D8"/>
<stop offset="1" stop-color="#BFDAF4"/>
</linearGradient>
<linearGradient id="paint31_linear_1_4378" x1="167.617" y1="112.796" x2="167.617" y2="109.491" gradientUnits="userSpaceOnUse">
<stop stop-color="#B3C6D8"/>
<stop offset="1" stop-color="#BFDAF4"/>
</linearGradient>
<linearGradient id="paint32_linear_1_4378" x1="169.686" y1="114.465" x2="169.686" y2="113.44" gradientUnits="userSpaceOnUse">
<stop stop-color="#B3C6D8"/>
<stop offset="1" stop-color="#BFDAF4"/>
</linearGradient>
<linearGradient id="paint33_linear_1_4378" x1="167.849" y1="111.852" x2="164.774" y2="111.852" gradientUnits="userSpaceOnUse">
<stop stop-color="#B3C6D8"/>
<stop offset="1" stop-color="#BFDAF4"/>
</linearGradient>
<linearGradient id="paint34_linear_1_4378" x1="176.923" y1="109.219" x2="165.941" y2="109.219" gradientUnits="userSpaceOnUse">
<stop stop-color="white"/>
<stop offset="1" stop-color="#D1E8FF"/>
</linearGradient>
<linearGradient id="paint35_linear_1_4378" x1="173.887" y1="118.554" x2="166.432" y2="118.554" gradientUnits="userSpaceOnUse">
<stop stop-color="#B3C6D8"/>
<stop offset="1" stop-color="#BFDAF4"/>
</linearGradient>
<linearGradient id="paint36_linear_1_4378" x1="168.674" y1="128.34" x2="152.939" y2="128.34" gradientUnits="userSpaceOnUse">
<stop stop-color="#B3C6D8"/>
<stop offset="1" stop-color="#BFDAF4"/>
</linearGradient>
</defs>
</svg>
