<svg width="305" height="207" viewBox="0 0 305 207" fill="none" xmlns="http://www.w3.org/2000/svg">
<mask id="path-1-inside-1_535_1845" fill="white">
<path d="M-0.000213623 157.215H304.302V157.367H-0.000213623V157.215Z"/>
</mask>
<path d="M304.302 157.215V156.715H304.802V157.215H304.302ZM-0.000213623 157.215H-0.500214V156.715H-0.000213623V157.215ZM-0.000213623 157.367V157.867H-0.500214V157.367H-0.000213623ZM304.302 157.367H304.802V157.867H304.302V157.367ZM304.302 157.715H-0.000213623V156.715H304.302V157.715ZM0.499786 157.215V157.367H-0.500214V157.215H0.499786ZM-0.000213623 156.867H304.302V157.867H-0.000213623V156.867ZM303.802 157.367V157.215H304.802V157.367H303.802Z" fill="#4D5F66" fill-opacity="0.5" mask="url(#path-1-inside-1_535_1845)"/>
<mask id="path-3-inside-2_535_1845" fill="white">
<path d="M30.4904 167.007H39.5586V167.159H30.4904V167.007Z"/>
</mask>
<path d="M39.5586 167.007V166.507H40.0586V167.007H39.5586ZM30.4904 167.007H29.9904V166.507H30.4904V167.007ZM30.4904 167.159V167.659H29.9904V167.159H30.4904ZM39.5586 167.159H40.0586V167.659H39.5586V167.159ZM39.5586 167.507H30.4904V166.507H39.5586V167.507ZM30.9904 167.007V167.159H29.9904V167.007H30.9904ZM30.4904 166.659H39.5586V167.659H30.4904V166.659ZM39.0586 167.159V167.007H40.0586V167.159H39.0586Z" fill="#4D5F66" fill-opacity="0.5" mask="url(#path-3-inside-2_535_1845)"/>
<mask id="path-5-inside-3_535_1845" fill="white">
<path d="M102.72 168.663H108.009V168.815H102.72V168.663Z"/>
</mask>
<path d="M108.009 168.663V168.163H108.509V168.663H108.009ZM102.72 168.663H102.22V168.163H102.72V168.663ZM102.72 168.815V169.315H102.22V168.815H102.72ZM108.009 168.815H108.509V169.315H108.009V168.815ZM108.009 169.163H102.72V168.163H108.009V169.163ZM103.22 168.663V168.815H102.22V168.663H103.22ZM102.72 168.315H108.009V169.315H102.72V168.315ZM107.509 168.815V168.663H108.509V168.815H107.509Z" fill="#4D5F66" fill-opacity="0.5" mask="url(#path-5-inside-3_535_1845)"/>
<mask id="path-7-inside-4_535_1845" fill="white">
<path d="M42.1284 161.359H62.9365V161.511H42.1284V161.359Z"/>
</mask>
<path d="M62.9365 161.359V160.859H63.4365V161.359H62.9365ZM42.1284 161.359H41.6284V160.859H42.1284V161.359ZM42.1284 161.511V162.011H41.6284V161.511H42.1284ZM62.9365 161.511H63.4365V162.011H62.9365V161.511ZM62.9365 161.859H42.1284V160.859H62.9365V161.859ZM42.6284 161.359V161.511H41.6284V161.359H42.6284ZM42.1284 161.011H62.9365V162.011H42.1284V161.011ZM62.4365 161.511V161.359H63.4365V161.511H62.4365Z" fill="#4D5F66" fill-opacity="0.5" mask="url(#path-7-inside-4_535_1845)"/>
<mask id="path-9-inside-5_535_1845" fill="white">
<path d="M237.581 164.5H263.866V164.652H237.581V164.5Z"/>
</mask>
<path d="M263.866 164.5V164H264.366V164.5H263.866ZM237.581 164.5H237.081V164H237.581V164.5ZM237.581 164.652V165.152H237.081V164.652H237.581ZM263.866 164.652H264.366V165.152H263.866V164.652ZM263.866 165H237.581V164H263.866V165ZM238.081 164.5V164.652H237.081V164.5H238.081ZM237.581 164.152H263.866V165.152H237.581V164.152ZM263.366 164.652V164.5H264.366V164.652H263.366Z" fill="#4D5F66" fill-opacity="0.5" mask="url(#path-9-inside-5_535_1845)"/>
<mask id="path-11-inside-6_535_1845" fill="white">
<path d="M222.682 164.5H232.164V164.652H222.682V164.5Z"/>
</mask>
<path d="M232.164 164.5V164H232.664V164.5H232.164ZM222.682 164.5H222.182V164H222.682V164.5ZM222.682 164.652V165.152H222.182V164.652H222.682ZM232.164 164.652H232.664V165.152H232.164V164.652ZM232.164 165H222.682V164H232.164V165ZM223.182 164.5V164.652H222.182V164.5H223.182ZM222.682 164.152H232.164V165.152H222.682V164.152ZM231.664 164.652V164.5H232.664V164.652H231.664Z" fill="#4D5F66" fill-opacity="0.5" mask="url(#path-11-inside-6_535_1845)"/>
<mask id="path-13-inside-7_535_1845" fill="white">
<path d="M149.254 162.454H206.268V162.606H149.254V162.454Z"/>
</mask>
<path d="M206.268 162.454V161.954H206.768V162.454H206.268ZM149.254 162.454H148.754V161.954H149.254V162.454ZM149.254 162.606V163.106H148.754V162.606H149.254ZM206.268 162.606H206.768V163.106H206.268V162.606ZM206.268 162.954H149.254V161.954H206.268V162.954ZM149.754 162.454V162.606H148.754V162.454H149.754ZM149.254 162.106H206.268V163.106H149.254V162.106ZM205.768 162.606V162.454H206.768V162.606H205.768Z" fill="#4D5F66" fill-opacity="0.5" mask="url(#path-13-inside-7_535_1845)"/>
<path d="M264.755 19.1766V15.6172H195.466V19.1766H264.755Z" stroke="#4D5F66" stroke-opacity="0.5" stroke-width="0.5"/>
<path d="M42.7061 15.6174V19.1768L194.972 19.1768V15.6174L42.7061 15.6174Z" stroke="#4D5F66" stroke-opacity="0.5" stroke-width="0.5"/>
<path d="M264.755 43.5208V39.9614H195.466V43.5208H264.755Z" stroke="#4D5F66" stroke-opacity="0.5" stroke-width="0.5"/>
<path d="M42.7061 39.9614V43.5208L194.972 43.5208V39.9614L42.7061 39.9614Z" stroke="#4D5F66" stroke-opacity="0.5" stroke-width="0.5"/>
<path d="M264.755 67.8651V64.3057H195.466V67.8651H264.755Z" stroke="#4D5F66" stroke-opacity="0.5" stroke-width="0.5"/>
<path d="M42.7061 64.3056V67.865L194.972 67.865V64.3056L42.7061 64.3056Z" stroke="#4D5F66" stroke-opacity="0.5" stroke-width="0.5"/>
<path d="M264.755 92.2093V88.6499H195.466V92.2093H264.755Z" stroke="#4D5F66" stroke-opacity="0.5" stroke-width="0.5"/>
<path d="M42.7061 88.6496V92.209L194.972 92.209V88.6496L42.7061 88.6496Z" stroke="#4D5F66" stroke-opacity="0.5" stroke-width="0.5"/>
<path d="M264.755 116.553V112.994H195.466V116.553H264.755Z" stroke="#4D5F66" stroke-opacity="0.5" stroke-width="0.5"/>
<path d="M42.7061 112.994V116.553L194.972 116.553V112.994L42.7061 112.994Z" stroke="#4D5F66" stroke-opacity="0.5" stroke-width="0.5"/>
<path d="M264.755 140.897V137.338H195.466V140.897H264.755Z" stroke="#4D5F66" stroke-opacity="0.5" stroke-width="0.5"/>
<path d="M42.7061 137.338V140.897L194.972 140.897V137.338L42.7061 137.338Z" stroke="#4D5F66" stroke-opacity="0.5" stroke-width="0.5"/>
<path d="M87.0059 15.1172V0.25H72.1386V15.1172H87.0059Z" stroke="#4D5F66" stroke-opacity="0.5" stroke-width="0.5"/>
<path d="M57.2822 0.256286V15.1235L71.6443 15.1235V0.256286L57.2822 0.256286Z" stroke="#4D5F66" stroke-opacity="0.5" stroke-width="0.5"/>
<path d="M105.264 15.1172V0.25H90.3964V15.1172H105.264Z" stroke="#4D5F66" stroke-opacity="0.5" stroke-width="0.5"/>
<path d="M75.541 0.256286V15.1235L89.9031 15.1235V0.256286L75.541 0.256286Z" stroke="#4D5F66" stroke-opacity="0.5" stroke-width="0.5"/>
<path d="M123.521 15.1172V0.25H108.654V15.1172H123.521Z" stroke="#4D5F66" stroke-opacity="0.5" stroke-width="0.5"/>
<path d="M93.7979 0.256286V15.1235L108.16 15.1235V0.256286L93.7979 0.256286Z" stroke="#4D5F66" stroke-opacity="0.5" stroke-width="0.5"/>
<path d="M141.78 15.1172V0.25H126.913V15.1172H141.78Z" stroke="#4D5F66" stroke-opacity="0.5" stroke-width="0.5"/>
<path d="M112.057 0.256286V15.1235L126.419 15.1235V0.256286L112.057 0.256286Z" stroke="#4D5F66" stroke-opacity="0.5" stroke-width="0.5"/>
<path d="M241.811 23.8033V39.4678H247.75V23.8033H241.811Z" stroke="#4D5F66" stroke-opacity="0.5" stroke-width="0.5"/>
<path d="M253.971 39.4614V23.7969H248.245V39.4614H253.971Z" stroke="#4D5F66" stroke-opacity="0.5" stroke-width="0.5"/>
<path d="M234.16 23.8033V39.4678H240.099V23.8033H234.16Z" stroke="#4D5F66" stroke-opacity="0.5" stroke-width="0.5"/>
<path d="M246.326 39.4614V23.7969H240.6V39.4614H246.326Z" stroke="#4D5F66" stroke-opacity="0.5" stroke-width="0.5"/>
<path d="M226.517 23.8033V39.4678H232.456V23.8033H226.517Z" stroke="#4D5F66" stroke-opacity="0.5" stroke-width="0.5"/>
<path d="M238.676 39.4614V23.7969H232.95V39.4614H238.676Z" stroke="#4D5F66" stroke-opacity="0.5" stroke-width="0.5"/>
<path d="M218.86 23.8033V39.4678H224.799V23.8033H218.86Z" stroke="#4D5F66" stroke-opacity="0.5" stroke-width="0.5"/>
<path d="M231.026 39.4614V23.7969H225.3V39.4614H231.026Z" stroke="#4D5F66" stroke-opacity="0.5" stroke-width="0.5"/>
<path d="M234.312 102.112V112.5H242.479V102.112H234.312Z" stroke="#4D5F66" stroke-opacity="0.5" stroke-width="0.5"/>
<path d="M250.859 112.494V102.106H242.979V112.494H250.859Z" stroke="#4D5F66" stroke-opacity="0.5" stroke-width="0.5"/>
<path d="M224.015 102.112V112.5H232.181V102.112H224.015Z" stroke="#4D5F66" stroke-opacity="0.5" stroke-width="0.5"/>
<path d="M240.562 112.494V102.106H232.682V112.494H240.562Z" stroke="#4D5F66" stroke-opacity="0.5" stroke-width="0.5"/>
<path d="M213.717 102.112V112.5H221.883V102.112H213.717Z" stroke="#4D5F66" stroke-opacity="0.5" stroke-width="0.5"/>
<path d="M230.265 112.494V102.106H222.384V112.494H230.265Z" stroke="#4D5F66" stroke-opacity="0.5" stroke-width="0.5"/>
<path d="M203.426 102.112V112.5H211.592V102.112H203.426Z" stroke="#4D5F66" stroke-opacity="0.5" stroke-width="0.5"/>
<path d="M219.967 112.494V102.106H212.086V112.494H219.967Z" stroke="#4D5F66" stroke-opacity="0.5" stroke-width="0.5"/>
<path d="M77.2852 63.8057V48.9385H69.2708V63.8057H77.2852Z" stroke="#4D5F66" stroke-opacity="0.5" stroke-width="0.5"/>
<path d="M61.0322 48.9443V63.8115H68.7666V48.9443H61.0322Z" stroke="#4D5F66" stroke-opacity="0.5" stroke-width="0.5"/>
<path d="M87.4072 63.8057V48.9385H79.3929V63.8057H87.4072Z" stroke="#4D5F66" stroke-opacity="0.5" stroke-width="0.5"/>
<path d="M71.1572 48.9443V63.8115H78.8916V48.9443H71.1572Z" stroke="#4D5F66" stroke-opacity="0.5" stroke-width="0.5"/>
<path d="M97.5283 63.8057V48.9385H89.514V63.8057H97.5283Z" stroke="#4D5F66" stroke-opacity="0.5" stroke-width="0.5"/>
<path d="M81.2725 48.9443V63.8115H89.0069V48.9443H81.2725Z" stroke="#4D5F66" stroke-opacity="0.5" stroke-width="0.5"/>
<path d="M107.643 63.8057V48.9385H99.6282V63.8057H107.643Z" stroke="#4D5F66" stroke-opacity="0.5" stroke-width="0.5"/>
<path d="M91.3877 48.9443V63.8115H99.1221V48.9443H91.3877Z" stroke="#4D5F66" stroke-opacity="0.5" stroke-width="0.5"/>
<path d="M129.784 63.8057V48.9385H121.77V63.8057H129.784Z" stroke="#4D5F66" stroke-opacity="0.5" stroke-width="0.5"/>
<path d="M113.529 48.9443V63.8115H121.264V48.9443H113.529Z" stroke="#4D5F66" stroke-opacity="0.5" stroke-width="0.5"/>
<path d="M139.905 63.8057V48.9385H131.891V63.8057H139.905Z" stroke="#4D5F66" stroke-opacity="0.5" stroke-width="0.5"/>
<path d="M123.65 48.9443V63.8115H131.385V48.9443H123.65Z" stroke="#4D5F66" stroke-opacity="0.5" stroke-width="0.5"/>
<path d="M150.02 63.8057V48.9385H142.005V63.8057H150.02Z" stroke="#4D5F66" stroke-opacity="0.5" stroke-width="0.5"/>
<path d="M133.771 48.9443V63.8115H141.505V48.9443H133.771Z" stroke="#4D5F66" stroke-opacity="0.5" stroke-width="0.5"/>
<path d="M160.141 63.8057V48.9385H152.126V63.8057H160.141Z" stroke="#4D5F66" stroke-opacity="0.5" stroke-width="0.5"/>
<path d="M143.886 48.9443V63.8115H151.62V48.9443H143.886Z" stroke="#4D5F66" stroke-opacity="0.5" stroke-width="0.5"/>
<path d="M103.4 112.463V102.112H83.147V112.463H103.4Z" stroke="#4D5F66" stroke-opacity="0.5" stroke-width="0.5"/>
<path d="M63.082 102.106V112.457H82.6477V102.106H63.082Z" stroke="#4D5F66" stroke-opacity="0.5" stroke-width="0.5"/>
<path d="M128.062 112.463V102.112H107.808V112.463H128.062Z" stroke="#4D5F66" stroke-opacity="0.5" stroke-width="0.5"/>
<path d="M87.7373 102.106V112.457H107.303V102.106H87.7373Z" stroke="#4D5F66" stroke-opacity="0.5" stroke-width="0.5"/>
<path d="M152.717 112.463V102.112H132.463V112.463H152.717Z" stroke="#4D5F66" stroke-opacity="0.5" stroke-width="0.5"/>
<path d="M112.397 102.106V112.457H131.963V102.106H112.397Z" stroke="#4D5F66" stroke-opacity="0.5" stroke-width="0.5"/>
<path d="M177.37 112.463V102.112H157.117V112.463H177.37Z" stroke="#4D5F66" stroke-opacity="0.5" stroke-width="0.5"/>
<path d="M137.052 102.106V112.457H156.617V102.106H137.052Z" stroke="#4D5F66" stroke-opacity="0.5" stroke-width="0.5"/>
<path d="M170.683 32.8649C170.683 36.5082 173.637 39.4617 177.28 39.4617C180.923 39.4617 183.877 36.5082 183.877 32.8649C183.877 29.2216 180.923 26.2681 177.28 26.2681C173.637 26.2681 170.683 29.2216 170.683 32.8649Z" stroke="#4D5F66" stroke-opacity="0.5" stroke-width="0.5"/>
<path d="M152.425 32.8649C152.425 36.5082 155.378 39.4617 159.021 39.4617C162.665 39.4617 165.618 36.5082 165.618 32.8649C165.618 29.2216 162.665 26.2681 159.021 26.2681C155.378 26.2681 152.425 29.2216 152.425 32.8649Z" stroke="#4D5F66" stroke-opacity="0.5" stroke-width="0.5"/>
<path d="M134.167 32.8649C134.167 36.5082 137.12 39.4617 140.764 39.4617C144.407 39.4617 147.36 36.5082 147.36 32.8649C147.36 29.2216 144.407 26.2681 140.764 26.2681C137.12 26.2681 134.167 29.2216 134.167 32.8649Z" stroke="#4D5F66" stroke-opacity="0.5" stroke-width="0.5"/>
<path d="M115.909 32.8649C115.909 36.5082 118.862 39.4617 122.506 39.4617C126.149 39.4617 129.103 36.5082 129.103 32.8649C129.103 29.2216 126.149 26.2681 122.506 26.2681C118.862 26.2681 115.909 29.2216 115.909 32.8649Z" stroke="#4D5F66" stroke-opacity="0.5" stroke-width="0.5"/>
<path d="M246.486 82.9147C245.945 85.2077 247.365 87.5052 249.658 88.0464C251.951 88.5876 254.248 87.1675 254.79 84.8745C255.331 82.5816 253.911 80.284 251.618 79.7428C249.325 79.2017 247.027 80.6218 246.486 82.9147Z" stroke="#4D5F66" stroke-opacity="0.5" stroke-width="0.5"/>
<path d="M234.446 82.9128C233.905 85.2057 235.325 87.5032 237.618 88.0444C239.911 88.5856 242.208 87.1655 242.75 84.8726C243.291 82.5796 241.871 80.2821 239.578 79.7409C237.285 79.1997 234.987 80.6198 234.446 82.9128Z" stroke="#4D5F66" stroke-opacity="0.5" stroke-width="0.5"/>
<path d="M224.92 79.947C222.744 80.8485 221.71 83.3439 222.612 85.5205C223.513 87.6972 226.009 88.7308 228.185 87.8292C230.362 86.9276 231.396 84.4322 230.494 82.2556C229.592 80.079 227.097 79.0454 224.92 79.947Z" stroke="#4D5F66" stroke-opacity="0.5" stroke-width="0.5"/>
<path d="M211.5 80.8752C209.834 82.5411 209.834 85.2421 211.5 86.908C213.165 88.5739 215.866 88.5739 217.532 86.908C219.198 85.2421 219.198 82.5411 217.532 80.8752C215.866 79.2093 213.165 79.2093 211.5 80.8752Z" stroke="#4D5F66" stroke-opacity="0.5" stroke-width="0.5"/>
<path d="M100.008 128.301C97.7414 129.24 96.665 131.838 97.6039 134.105C98.5428 136.372 101.141 137.448 103.408 136.509C105.675 135.57 106.751 132.972 105.812 130.705C104.873 128.438 102.275 127.362 100.008 128.301Z" stroke="#4D5F66" stroke-opacity="0.5" stroke-width="0.5"/>
<path d="M85.5433 130.651C84.9791 133.031 86.4507 135.417 88.8301 135.981C91.2095 136.546 93.5957 135.074 94.1599 132.695C94.7241 130.315 93.2526 127.929 90.8732 127.365C88.4938 126.801 86.1075 128.272 85.5433 130.651Z" stroke="#4D5F66" stroke-opacity="0.5" stroke-width="0.5"/>
<path d="M74.9963 128.3C72.7296 129.239 71.6532 131.838 72.5921 134.104C73.531 136.371 76.1297 137.447 78.3963 136.509C80.663 135.57 81.7394 132.971 80.8005 130.704C79.8616 128.438 77.263 127.361 74.9963 128.3Z" stroke="#4D5F66" stroke-opacity="0.5" stroke-width="0.5"/>
<path d="M62.4856 128.296C60.2189 129.235 59.1425 131.834 60.0814 134.1C61.0203 136.367 63.6189 137.444 65.8856 136.505C68.1523 135.566 69.2286 132.967 68.2898 130.7C67.3509 128.434 64.7523 127.357 62.4856 128.296Z" stroke="#4D5F66" stroke-opacity="0.5" stroke-width="0.5"/>
<path d="M92.1261 122.71C90.3913 124.445 90.3913 127.258 92.1262 128.993C93.861 130.728 96.6737 130.728 98.4086 128.993C100.143 127.258 100.143 124.445 98.4086 122.71C96.6737 120.976 93.861 120.976 92.1261 122.71Z" stroke="#4D5F66" stroke-opacity="0.5" stroke-width="0.5"/>
<path d="M81.0608 121.747C78.7941 122.686 77.7177 125.285 78.6566 127.552C79.5955 129.818 82.1941 130.895 84.4608 129.956C86.7275 129.017 87.8038 126.418 86.8649 124.152C85.9261 121.885 83.3274 120.809 81.0608 121.747Z" stroke="#4D5F66" stroke-opacity="0.5" stroke-width="0.5"/>
<path d="M66.6576 124.117C66.0934 126.496 67.5649 128.882 69.9443 129.447C72.3237 130.011 74.71 128.539 75.2742 126.16C75.8384 123.78 74.3669 121.394 71.9874 120.83C69.608 120.266 67.2218 121.737 66.6576 124.117Z" stroke="#4D5F66" stroke-opacity="0.5" stroke-width="0.5"/>
<path d="M159.291 129.262C157.556 130.997 157.556 133.81 159.291 135.545C161.026 137.279 163.839 137.279 165.574 135.545C167.308 133.81 167.308 130.997 165.574 129.262C163.839 127.527 161.026 127.527 159.291 129.262Z" stroke="#4D5F66" stroke-opacity="0.5" stroke-width="0.5"/>
<path d="M148.228 128.3C145.961 129.239 144.885 131.838 145.824 134.104C146.762 136.371 149.361 137.447 151.628 136.509C153.894 135.57 154.971 132.971 154.032 130.704C153.093 128.438 150.494 127.361 148.228 128.3Z" stroke="#4D5F66" stroke-opacity="0.5" stroke-width="0.5"/>
<path d="M133.102 131.393C132.538 133.78 134.017 136.173 136.405 136.737C138.793 137.3 141.186 135.821 141.749 133.433C142.313 131.046 140.834 128.653 138.446 128.09C136.058 127.526 133.666 129.005 133.102 131.393Z" stroke="#4D5F66" stroke-opacity="0.5" stroke-width="0.5"/>
<path d="M123.215 128.293C120.948 129.232 119.872 131.831 120.811 134.098C121.75 136.364 124.348 137.441 126.615 136.502C128.882 135.563 129.958 132.964 129.019 130.698C128.08 128.431 125.482 127.354 123.215 128.293Z" stroke="#4D5F66" stroke-opacity="0.5" stroke-width="0.5"/>
<path d="M154.3 121.747C152.033 122.686 150.957 125.285 151.896 127.552C152.835 129.818 155.433 130.895 157.7 129.956C159.967 129.017 161.043 126.418 160.104 124.152C159.165 121.885 156.567 120.809 154.3 121.747Z" stroke="#4D5F66" stroke-opacity="0.5" stroke-width="0.5"/>
<path d="M140.349 122.713C138.614 124.448 138.614 127.26 140.349 128.995C142.084 130.73 144.896 130.73 146.631 128.995C148.366 127.26 148.366 124.448 146.631 122.713C144.896 120.978 142.084 120.978 140.349 122.713Z" stroke="#4D5F66" stroke-opacity="0.5" stroke-width="0.5"/>
<path d="M129.287 121.746C127.021 122.685 125.944 125.284 126.883 127.551C127.822 129.817 130.421 130.894 132.687 129.955C134.954 129.016 136.03 126.417 135.092 124.151C134.153 121.884 131.554 120.808 129.287 121.746Z" stroke="#4D5F66" stroke-opacity="0.5" stroke-width="0.5"/>
<path d="M88.772 88.1496L75.0179 76.5893L71.7732 88.1496H88.772Z" stroke="#4D5F66" stroke-opacity="0.5" stroke-width="0.5"/>
<path d="M62.7596 88.1496H80.7369L74.8136 76.5619L62.7596 88.1496Z" stroke="#4D5F66" stroke-opacity="0.5" stroke-width="0.5"/>
<path d="M117.267 88.1496L103.507 76.5892L100.262 88.1496H117.267Z" stroke="#4D5F66" stroke-opacity="0.5" stroke-width="0.5"/>
<path d="M91.2479 88.1496H109.225L103.302 76.5619L91.2479 88.1496Z" stroke="#4D5F66" stroke-opacity="0.5" stroke-width="0.5"/>
<path d="M145.756 88.1496L132.002 76.5891L128.752 88.1496H145.756Z" stroke="#4D5F66" stroke-opacity="0.5" stroke-width="0.5"/>
<path d="M119.737 88.1496H137.72L131.797 76.5619L119.737 88.1496Z" stroke="#4D5F66" stroke-opacity="0.5" stroke-width="0.5"/>
<path d="M241.445 63.8059H250.726L248.955 52.8161L241.445 63.8059Z" stroke="#4D5F66" stroke-opacity="0.5" stroke-width="0.5"/>
<path d="M255.769 63.8059L249.18 52.777L245.942 63.8059H255.769Z" stroke="#4D5F66" stroke-opacity="0.5" stroke-width="0.5"/>
<path d="M225.554 63.8059H234.834L233.064 52.8161L225.554 63.8059Z" stroke="#4D5F66" stroke-opacity="0.5" stroke-width="0.5"/>
<path d="M239.88 63.8059L233.291 52.777L230.052 63.8059H239.88Z" stroke="#4D5F66" stroke-opacity="0.5" stroke-width="0.5"/>
<path d="M209.663 63.8059H218.95L217.173 52.8157L209.663 63.8059Z" stroke="#4D5F66" stroke-opacity="0.5" stroke-width="0.5"/>
<path d="M223.988 63.8059L217.399 52.777L214.161 63.8059H223.988Z" stroke="#4D5F66" stroke-opacity="0.5" stroke-width="0.5"/>
<path d="M174.245 88.1496L160.491 76.5893L157.246 88.1496H174.245Z" stroke="#4D5F66" stroke-opacity="0.5" stroke-width="0.5"/>
<path d="M148.224 88.1496H166.208L160.284 76.5619L148.224 88.1496Z" stroke="#4D5F66" stroke-opacity="0.5" stroke-width="0.5"/>
<path d="M164.997 104.518H143.426V107.107H164.997V104.518Z" fill="#407BFF"/>
<path opacity="0.2" d="M164.997 104.518H143.426V107.107H164.997V104.518Z" fill="black"/>
<path d="M143.573 105.438H70.4591C67.7472 105.438 65.5488 107.636 65.5488 110.348V200.219C65.5488 202.931 67.7472 205.13 70.4591 205.13H143.573C146.285 205.13 148.484 202.931 148.484 200.219V110.348C148.484 107.636 146.285 105.438 143.573 105.438Z" fill="#4D5F66"/>
<path d="M85.7349 142.676H17.616C16.6565 142.678 15.7368 143.06 15.0588 143.739C14.3808 144.418 14 145.338 14 146.298C13.9978 146.774 14.0897 147.246 14.2704 147.687C14.4511 148.128 14.7171 148.528 15.0531 148.866C15.3891 149.203 15.7885 149.471 16.2283 149.654C16.6681 149.837 17.1397 149.931 17.616 149.931H85.7349V142.676Z" fill="#4D5F66"/>
<path opacity="0.3" d="M85.7345 151.918L65.6338 161.017V149.908H85.7345V151.918Z" fill="#263238"/>
<path opacity="0.7" d="M85.7354 142.676H42.3494C41.3898 142.678 40.4701 143.06 39.7921 143.739C39.1142 144.418 38.7334 145.338 38.7334 146.298C38.7349 147.256 39.1164 148.175 39.7942 148.853C40.472 149.531 41.3908 149.912 42.3494 149.914H85.7354V142.676Z" fill="white"/>
<path opacity="0.7" d="M143.573 105.438H93.1085C90.3966 105.438 88.1982 107.636 88.1982 110.348V200.22C88.1982 202.932 90.3966 205.13 93.1085 205.13H143.573C146.285 205.13 148.483 202.932 148.483 200.22V110.348C148.483 107.636 146.285 105.438 143.573 105.438Z" fill="white"/>
<path d="M47.0722 149.914H40.9131V205.13H47.0722V149.914Z" fill="#4D5F66"/>
<path opacity="0.7" d="M47.0722 149.914H40.9131V205.13H47.0722V149.914Z" fill="white"/>
<path opacity="0.3" d="M47.0722 152.309L40.9131 153.643V149.908H47.0722V152.309Z" fill="#40A0FF"/>
<path opacity="0.3" d="M141.433 117.222H95.2429C94.4686 117.222 93.8408 117.85 93.8408 118.625V134.4C93.8408 135.174 94.4686 135.802 95.2429 135.802H141.433C142.208 135.802 142.835 135.174 142.835 134.4V118.625C142.835 117.85 142.208 117.222 141.433 117.222Z" fill="#4D5F66"/>
<path d="M58.8227 95.6685H25.1606L21.749 142.682H62.2343L58.8227 95.6685Z" fill="#4D5F66"/>
<path opacity="0.3" d="M29.6281 95.6685H25.1606L21.749 142.682H30.8088L29.6281 95.6685Z" fill="#263238"/>
<path d="M44.0404 101.402C40.8956 101.402 38.08 99.1936 37.6089 96.2531C37.4929 95.5411 37.5258 94.8128 37.7056 94.1142C37.8854 93.4156 38.2081 92.7619 38.6534 92.1943C39.1706 91.5529 39.8136 91.0241 40.5429 90.6404C41.2721 90.2568 42.0722 90.0264 42.8938 89.9635C46.2713 89.6569 49.4275 91.9559 49.927 95.0724C50.0424 95.7856 50.0086 96.5151 49.8278 97.2146C49.6471 97.9142 49.3233 98.5687 48.8769 99.1368C48.3612 99.7786 47.7193 100.308 46.9909 100.691C46.2625 101.075 45.4631 101.305 44.6421 101.368C44.4378 101.39 44.2391 101.402 44.0404 101.402ZM43.5012 90.9342C43.3309 90.9342 43.1549 90.9342 42.9846 90.9342C42.2994 90.9858 41.632 91.1766 41.023 91.4947C40.414 91.8129 39.8762 92.2518 39.4424 92.7847C39.0816 93.2453 38.8202 93.7757 38.6746 94.3423C38.5291 94.909 38.5025 95.4997 38.5966 96.0771C39.011 98.694 41.6847 100.618 44.5513 100.357C45.2365 100.306 45.9039 100.115 46.5129 99.7967C47.1219 99.4785 47.6597 99.0396 48.0935 98.5067C48.4543 98.0461 48.7157 97.5157 48.8613 96.9491C49.0069 96.3824 49.0334 95.7917 48.9393 95.2143C48.5476 92.779 46.1635 90.9342 43.5012 90.9342Z" fill="#4D5F66"/>
<path d="M41.514 101.402C41.3153 101.402 41.1167 101.402 40.9123 101.402C40.0914 101.339 39.292 101.109 38.5636 100.726C37.8352 100.342 37.1933 99.8127 36.6776 99.171C36.2307 98.6032 35.9069 97.9486 35.7271 97.2488C35.5473 96.549 35.5153 95.8194 35.6331 95.1065C36.127 91.9844 39.2831 89.6854 42.6607 89.9976C43.4825 90.0599 44.2827 90.29 45.0121 90.6737C45.7414 91.0574 46.3843 91.5866 46.9011 92.2285C47.3476 92.7954 47.671 93.4491 47.8509 94.1479C48.0307 94.8467 48.063 95.5753 47.9456 96.2873C47.4574 99.1937 44.6361 101.402 41.514 101.402ZM42.0817 90.9343C39.4137 90.9343 37.0295 92.7791 36.6379 95.2371C36.5438 95.8146 36.5703 96.4052 36.7159 96.9719C36.8615 97.5386 37.1229 98.0689 37.4837 98.5295C37.9174 99.0624 38.4552 99.5013 39.0642 99.8195C39.6732 100.138 40.3407 100.328 41.0258 100.38C43.8925 100.636 46.5662 98.7168 46.9862 96.0999C47.081 95.5221 47.0542 94.9309 46.9076 94.364C46.7609 93.7971 46.4977 93.267 46.1348 92.8075C45.7021 92.2748 45.1653 91.8359 44.5572 91.5178C43.9492 91.1996 43.2826 91.0087 42.5983 90.957C42.3769 90.9399 42.2066 90.9343 42.0363 90.9343H42.0817Z" fill="#4D5F66"/>
<path d="M102.259 31.6084H92.2686V105.444H102.259V31.6084Z" fill="#4D5F66"/>
<path opacity="0.3" d="M102.259 71.1401H92.2686V90.4348L102.259 89.203V71.1401Z" fill="#263238"/>
<path opacity="0.3" d="M102.259 32.1138H92.2686V37.7279L102.259 36.4961V32.1138Z" fill="#263238"/>
<path d="M71.1749 84.8716L68.3877 44.426C68.3643 44.0852 68.4113 43.7432 68.5257 43.4213C68.6401 43.0994 68.8194 42.8045 69.0526 42.5548C69.2857 42.3051 69.5677 42.1061 69.8811 41.97C70.1944 41.8339 70.5324 41.7637 70.874 41.7637H132.981C133.612 41.7622 134.22 42.0006 134.682 42.4307C135.144 42.8608 135.424 43.4503 135.468 44.0797L138.249 84.5253C138.273 84.8663 138.227 85.2086 138.113 85.5309C137.999 85.8532 137.82 86.1484 137.586 86.3983C137.353 86.6481 137.071 86.8472 136.757 86.983C136.443 87.1188 136.105 87.1885 135.763 87.1876H73.6555C73.0252 87.189 72.4179 86.9504 71.9572 86.5202C71.4964 86.09 71.2167 85.5005 71.1749 84.8716Z" fill="#263238"/>
<path d="M132.265 43.6086H71.6906C71.4978 43.609 71.3071 43.6489 71.1304 43.7259C70.9536 43.803 70.7946 43.9155 70.6631 44.0566C70.5317 44.1976 70.4306 44.3641 70.3661 44.5459C70.3017 44.7276 70.2753 44.9206 70.2885 45.1129L72.9678 84.0315C72.9922 84.3869 73.1505 84.7199 73.4107 84.9632C73.6709 85.2066 74.0137 85.3422 74.3699 85.3428H134.945C135.138 85.3433 135.329 85.3039 135.507 85.2272C135.684 85.1505 135.844 85.0381 135.976 84.8969C136.108 84.7558 136.209 84.589 136.274 84.4069C136.339 84.2248 136.366 84.0313 136.352 83.8385L133.673 44.9143C133.647 44.5589 133.488 44.2265 133.226 43.9842C132.965 43.7419 132.622 43.6077 132.265 43.6086Z" fill="#40A0FF"/>
<path opacity="0.8" d="M132.265 43.6086H71.6906C71.4978 43.609 71.3071 43.6489 71.1304 43.7259C70.9536 43.803 70.7946 43.9155 70.6631 44.0566C70.5317 44.1976 70.4306 44.3641 70.3661 44.5459C70.3017 44.7276 70.2753 44.9206 70.2885 45.1129L72.9678 84.0315C72.9922 84.3869 73.1505 84.7199 73.4107 84.9632C73.6709 85.2066 74.0137 85.3422 74.3699 85.3428H134.945C135.138 85.3433 135.329 85.3039 135.507 85.2272C135.684 85.1505 135.844 85.0381 135.976 84.8969C136.108 84.7558 136.209 84.589 136.274 84.4069C136.339 84.2248 136.366 84.0313 136.352 83.8385L133.673 44.9143C133.647 44.5589 133.488 44.2265 133.226 43.9842C132.965 43.7419 132.622 43.6077 132.265 43.6086Z" fill="white"/>
<path d="M132.879 104.087H79.7119V105.438H132.879V104.087Z" fill="#263238"/>
<path opacity="0.3" d="M118.08 80.7844H78.0711L75.8516 48.5642H115.86L118.08 80.7844Z" fill="#40A0FF"/>
<path opacity="0.3" d="M129.519 51.4482H118.739L118.54 48.5645H129.32L129.519 51.4482Z" fill="#40A0FF"/>
<path opacity="0.3" d="M130.312 63.0678H119.533L118.971 54.8481H129.751L130.312 63.0678Z" fill="#40A0FF"/>
<path d="M107.017 19.9998H86.916V35.0029H107.017V19.9998Z" fill="#4D5F66"/>
<path opacity="0.3" d="M95.2776 19.9998H86.916V35.0029H95.2776V19.9998Z" fill="#263238"/>
<path d="M157.837 81.1954L158.965 79.7546C159.175 79.4873 159.446 79.2743 159.755 79.1333C160.064 78.9924 160.402 78.9276 160.742 78.9445L163.959 79.0892C164.592 79.1207 165.209 79.3024 165.758 79.6193C166.308 79.9362 166.774 80.3793 167.118 80.9118L167.546 81.583C165.81 84.1 162.124 85.5582 162.124 85.5582L161.118 86.0905C160.914 86.206 160.689 86.2799 160.456 86.3078C160.223 86.3357 159.987 86.317 159.762 86.253C159.536 86.1889 159.325 86.0807 159.142 85.9346C158.959 85.7885 158.806 85.6075 158.693 85.402L157.611 83.4115C157.43 83.0601 157.354 82.6634 157.394 82.2698C157.434 81.8763 157.588 81.5029 157.837 81.1954Z" fill="#FF8B7B"/>
<path d="M169.034 52.3395C169.369 52.7503 169.612 53.0396 169.855 53.3868C170.098 53.734 170.341 54.0522 170.579 54.382C171.053 55.0532 171.487 55.736 171.921 56.4188C172.764 57.8025 173.536 59.2277 174.235 60.689C174.594 61.4181 174.918 62.1703 175.248 62.9225C175.578 63.6747 175.856 64.4443 176.122 65.237C176.677 66.8118 177.125 68.422 177.464 70.0569L177.528 70.3231C177.569 70.5132 177.588 70.7073 177.586 70.9017C177.583 71.9358 177.387 72.9603 177.007 73.9221C176.684 74.7194 176.266 75.4751 175.763 76.1729C174.911 77.3193 173.902 78.34 172.766 79.2049C171.749 79.9847 170.669 80.6776 169.537 81.2764C168.422 81.8687 167.261 82.3699 166.065 82.775C165.598 82.9352 165.09 82.9319 164.624 82.7656C164.159 82.5994 163.764 82.28 163.504 81.8598C163.243 81.4396 163.134 80.9435 163.192 80.4528C163.251 79.962 163.474 79.5057 163.826 79.1586L163.971 79.0198C164.682 78.308 165.504 77.5385 166.216 76.7863C166.921 76.0621 167.586 75.2991 168.206 74.5007C168.747 73.8361 169.204 73.1073 169.566 72.3309C169.855 71.6828 169.821 71.1736 169.734 71.1736L169.855 71.9953C169.421 70.7455 168.958 69.5072 168.397 68.2747C167.836 67.0423 167.24 65.833 166.569 64.6294C165.898 63.4259 165.209 62.2455 164.463 61.0883C164.092 60.5096 163.71 59.931 163.305 59.3524L162.727 58.5192L162.194 57.767L162.055 57.5702C161.426 56.6504 161.175 55.5239 161.354 54.424C161.533 53.324 162.128 52.3351 163.016 51.662C163.904 50.9888 165.017 50.6831 166.125 50.8082C167.232 50.9332 168.249 51.4795 168.964 52.3337L169.034 52.3395Z" fill="#FF8B7B"/>
<path d="M161.095 47.4329C159.464 51.1361 159.568 55.7593 164.567 62.83C167.888 63.1946 174.033 58.878 174.033 58.878C174.033 58.878 169.815 47.0452 161.095 47.4329Z" fill="#4D5F66"/>
<path d="M158.312 34.5586C157.346 38.146 156.154 44.7192 158.48 47.1089C158.48 47.1089 155.084 46.5997 147.874 51.0609C145.785 48.0636 147.336 47.1089 147.336 47.1089C151.386 46.1542 151.525 43.1916 151.033 40.4027L158.312 34.5586Z" fill="#FF8B7B"/>
<path d="M143.638 49.7763C144.708 47.4619 147.231 45.2573 148.973 45.5871C150.714 45.9169 151.773 46.4608 152.803 45.5871C153.833 44.7134 156.379 43.4404 157.675 44.8812C159.498 46.8948 162.258 45.4598 161.216 47.6644C160.094 50.0599 143.638 49.7763 143.638 49.7763Z" fill="#3E96F4"/>
<path d="M145.276 27.9737C145.207 28.4655 144.894 28.8474 144.582 28.8243C144.269 28.8011 144.072 28.3845 144.142 27.8927C144.211 27.4008 144.524 27.0247 144.836 27.0479C145.149 27.071 145.351 27.4934 145.276 27.9737Z" fill="#263238"/>
<path d="M144.969 27.0826L143.869 26.6602C143.869 26.6602 144.326 27.6207 144.969 27.0826Z" fill="#263238"/>
<path d="M145.171 28.8997C144.581 29.9892 143.854 30.9985 143.007 31.9027C143.557 32.5508 144.673 32.354 144.673 32.354L145.171 28.8997Z" fill="#FF5652"/>
<path d="M144.46 24.074C144.423 24.0115 144.41 23.9371 144.425 23.8657C144.449 23.794 144.5 23.7342 144.566 23.6987C144.633 23.6631 144.711 23.6546 144.784 23.6748C145.238 23.7761 145.663 23.9815 146.024 24.2746C146.386 24.5678 146.674 24.9408 146.867 25.3644C146.881 25.3987 146.888 25.4358 146.887 25.4731C146.885 25.5103 146.876 25.5468 146.858 25.5799C146.841 25.613 146.817 25.642 146.788 25.6647C146.758 25.6874 146.724 25.7034 146.688 25.7115C146.614 25.7331 146.535 25.7268 146.465 25.6937C146.396 25.6606 146.341 25.6031 146.312 25.5322C146.153 25.1996 145.92 24.9078 145.631 24.6792C145.343 24.4505 145.005 24.291 144.645 24.2129C144.568 24.191 144.502 24.1415 144.46 24.074Z" fill="#263238"/>
<path d="M161.379 27.3604C160.285 33.1466 159.95 35.6173 156.646 38.3947C151.675 42.5782 144.842 40.3678 144.194 34.4601C143.615 29.1483 145.484 20.5732 151.45 18.6579C152.718 18.1933 154.088 18.0786 155.415 18.326C156.743 18.5734 157.98 19.1737 158.996 20.064C160.011 20.9542 160.769 22.1015 161.188 23.3853C161.607 24.6692 161.673 26.0423 161.379 27.3604Z" fill="#FF8B7B"/>
<path d="M148.406 29.2294C146.311 25.9486 144.043 21.852 145.466 19.0051C146.89 16.1583 150.124 16.8353 150.124 16.8353C150.124 16.8353 156.39 13.3173 162.003 17.9C169.444 23.9929 161.465 30.6991 159.492 36.5085C157.311 42.9022 146.062 35.1603 148.406 29.2294Z" fill="#263238"/>
<path d="M180.473 18.5943C177.446 7.34013 164.173 12.513 160.313 19.1729L161.887 19.5838C177.724 9.3653 169.924 24.1375 170.057 30.161C170.191 36.1844 176.162 39.8934 176.162 39.8934C176.162 39.8934 183.493 29.8427 180.473 18.5943Z" fill="#263238"/>
<path d="M176.47 38.4873C174.78 38.4873 172.419 38.1691 170.88 36.6126C169.491 35.2065 169.057 33.0598 169.601 30.2477C169.775 29.3566 170.053 28.3093 170.342 27.2042C171.256 23.7324 172.396 19.4622 170.602 17.9462C169.341 16.8758 166.685 17.2519 162.704 19.0514C162.687 19.0601 162.669 19.0651 162.65 19.0663C162.631 19.0675 162.611 19.0647 162.594 19.0582C162.576 19.0517 162.559 19.0416 162.545 19.0284C162.532 19.0153 162.521 18.9995 162.513 18.982C162.506 18.9645 162.501 18.9457 162.501 18.9266C162.501 18.9075 162.504 18.8886 162.511 18.8708C162.518 18.8531 162.528 18.8369 162.542 18.8232C162.555 18.8095 162.571 18.7986 162.588 18.791C166.731 16.9105 169.416 16.5633 170.787 17.7263C172.72 19.3581 171.609 23.5646 170.625 27.2794C170.33 28.3788 170.047 29.4203 169.885 30.3056C169.364 33.0367 169.769 35.0966 171.088 36.4332C173.547 38.9213 178.431 38.0765 178.483 38.0649C178.502 38.0619 178.522 38.0626 178.54 38.0671C178.559 38.0715 178.577 38.0796 178.592 38.0909C178.608 38.1022 178.621 38.1164 178.631 38.1328C178.641 38.1492 178.648 38.1674 178.651 38.1864C178.654 38.2054 178.653 38.2248 178.649 38.2435C178.644 38.2622 178.636 38.2799 178.625 38.2955C178.614 38.3111 178.599 38.3243 178.583 38.3343C178.567 38.3444 178.548 38.3512 178.529 38.3542C177.847 38.452 177.159 38.4965 176.47 38.4873Z" fill="#263238"/>
<path d="M162.229 16.6965C162.374 15.9617 160.522 16.2683 160.436 16.9222C160.349 17.576 160.106 17.2115 159.382 18.1662C158.659 19.1209 158.561 20.2435 160.933 20.9841C162.438 21.4528 162.669 20.2955 163.439 19.7169C163.861 19.4045 164.335 19.2424 164.642 19.0052C164.718 18.9465 164.774 18.8666 164.803 18.7757C164.833 18.6848 164.835 18.5871 164.809 18.4952C164.783 18.4032 164.73 18.3211 164.657 18.2594C164.584 18.1977 164.494 18.1592 164.399 18.1488C163.427 18.0678 162.079 17.4198 162.229 16.6965Z" fill="#3E96F4"/>
<path d="M149.471 31.2894C149.211 31.7901 148.849 32.231 148.408 32.5837C147.968 32.9365 147.459 33.1933 146.913 33.3377C145.554 33.6386 145.039 32.0705 145.554 30.543C146.016 29.1774 147.289 27.3663 148.586 27.7598C149.882 28.1533 150.206 29.9643 149.471 31.2894Z" fill="#FF8B7B"/>
<path d="M174.23 206.965C178.726 206.293 178.812 205.547 181.225 204.702C183.291 203.973 183.869 204.077 185.536 203.516C186.93 203.047 186.456 201.722 185.536 200.31C185.079 199.605 185.009 198.933 184.506 197.678L177.672 198.69C177.013 200.6 176.776 203.042 172.876 204.436C170.555 205.269 172.419 207.231 174.23 206.965Z" fill="#263238"/>
<path d="M132.557 206.982C137.03 206.982 137.886 206.687 140.403 206.6C142.556 206.525 142.909 206.982 145.09 206.982C146.537 206.982 146.739 205.35 146.207 204.129C145.796 203.18 145.732 202.041 145.432 200.808H139.269C138.158 202.758 135.126 204.205 131.747 204.448C129.317 204.627 130.758 206.982 132.557 206.982Z" fill="#263238"/>
<path d="M137.783 85.1416C137.783 85.1416 136.892 117.301 138.801 137.727C138.68 156.897 139.27 200.797 139.27 200.797C139.42 201.774 144.559 201.375 145.432 200.797C145.432 200.797 155.066 168.816 150.79 137.727C161.489 105.289 159.18 85.1416 159.18 85.1416H137.783Z" fill="#A0B1B8"/>
<path d="M144.199 85.1416C144.199 85.1416 154.649 121.439 158.885 139.266C163.34 157.984 176.579 186.285 177.678 198.69C178.836 199.148 182.533 198.638 184.512 197.678C184.512 197.678 182.701 158.117 171.938 140.093C174.369 95.7478 162.333 85.1243 162.333 85.1243L144.199 85.1416Z" fill="#A0B1B8"/>
<path d="M176.788 196.208C176.893 197.058 176.937 197.915 176.921 198.771C176.915 198.845 176.925 198.92 176.949 198.99C176.974 199.06 177.013 199.124 177.063 199.178C177.114 199.233 177.175 199.276 177.243 199.305C177.311 199.335 177.385 199.35 177.459 199.35C180.016 199.35 183.552 198.262 184.668 197.88C184.772 197.846 184.863 197.78 184.927 197.692C184.992 197.604 185.027 197.498 185.027 197.388V194.964C185.027 194.886 185.009 194.81 184.976 194.74C184.943 194.669 184.895 194.607 184.836 194.557C184.776 194.507 184.707 194.47 184.632 194.45C184.557 194.429 184.479 194.425 184.402 194.437L177.204 195.647C177.078 195.672 176.965 195.743 176.888 195.847C176.811 195.951 176.775 196.079 176.788 196.208Z" fill="#407BFF"/>
<path d="M138.564 198.106C138.564 198.772 138.506 199.958 138.442 200.831C138.441 200.971 138.49 201.106 138.58 201.213C138.671 201.319 138.796 201.389 138.934 201.41C141.198 201.596 143.474 201.571 145.733 201.335C145.841 201.325 145.944 201.28 146.024 201.207C146.105 201.134 146.159 201.037 146.179 200.93L146.642 198.54C146.652 198.462 146.646 198.383 146.625 198.307C146.604 198.232 146.568 198.161 146.519 198.1C146.469 198.039 146.408 197.988 146.339 197.952C146.269 197.915 146.193 197.893 146.115 197.886L139.09 197.609C139.023 197.605 138.955 197.615 138.891 197.638C138.827 197.661 138.769 197.697 138.72 197.744C138.67 197.79 138.631 197.846 138.604 197.909C138.578 197.971 138.564 198.038 138.564 198.106Z" fill="#40A0FF"/>
<path d="M136.394 56.2394C136.257 59.9834 136.311 63.732 136.556 67.4705C136.747 72.3483 137.082 77.1451 137.783 85.1416H162.334C161.842 78.2271 162.646 70.3462 167.055 54.7871C167.315 53.9733 167.391 53.1116 167.275 52.265C167.159 51.4185 166.855 50.6085 166.386 49.8945C165.917 49.1805 165.294 48.5806 164.562 48.1386C163.831 47.6966 163.01 47.4239 162.16 47.3402C161.188 47.2419 160.152 47.1609 159.093 47.1088C155.383 46.8453 151.659 46.8453 147.949 47.1088C146.734 47.2187 145.478 47.3749 144.28 47.5427C142.163 47.8571 140.22 48.8955 138.782 50.4811C137.344 52.0667 136.5 54.1016 136.394 56.2394Z" fill="white"/>
<path d="M162.211 82.1038C157.299 83.3594 149.823 83.7181 137.551 82.4104C137.846 88.9199 134.981 132.693 134.981 132.693C134.981 132.693 159.862 138.161 173.928 130.737C174.837 97.6571 162.211 82.1038 162.211 82.1038Z" fill="#4D5F66"/>
<path opacity="0.2" d="M152.82 108.501C152.82 108.501 159.573 102.211 162.906 97.9177C162.64 102.419 158.618 106.458 152.82 108.501Z" fill="black"/>
<path d="M115.569 56.2046L117.201 57.0321C117.507 57.1841 117.772 57.4075 117.973 57.6835C118.174 57.9594 118.307 58.2798 118.358 58.6175L118.838 61.7999C118.938 62.429 118.885 63.0728 118.684 63.6771C118.482 64.2813 118.138 64.8283 117.681 65.2716L117.102 65.8503C114.302 64.6583 112.149 61.3081 112.149 61.3081L111.432 60.4228C111.278 60.2451 111.161 60.0385 111.088 59.8152C111.015 59.5918 110.987 59.3561 111.006 59.1218C111.025 58.8875 111.09 58.6594 111.198 58.4506C111.306 58.2418 111.454 58.0566 111.635 57.9058L113.37 56.4592C113.673 56.2093 114.042 56.0523 114.432 56.0072C114.822 55.962 115.217 56.0306 115.569 56.2046Z" fill="#FF8B7B"/>
<path d="M144.876 56.7834C144.697 57.281 144.564 57.6282 144.407 58.0274C144.251 58.4267 144.083 58.7854 143.921 59.1847C143.597 59.9369 143.239 60.6601 142.874 61.3834C142.137 62.8306 141.322 64.2368 140.432 65.5958C139.993 66.2786 139.524 66.9498 139.049 67.6152C138.575 68.2806 138.066 68.9286 137.528 69.5593C136.471 70.8518 135.326 72.0698 134.102 73.2047L133.94 73.3609C133.793 73.5005 133.632 73.6246 133.46 73.7312C132.751 74.1715 131.966 74.4739 131.145 74.6223C130.462 74.7478 129.765 74.7751 129.074 74.7033C128.022 74.5774 126.996 74.2925 126.03 73.8585C124.528 73.1659 123.121 72.2809 121.847 71.2258C120.687 70.2786 119.593 69.254 118.572 68.1591C117.562 67.0891 116.621 65.9566 115.754 64.7683C115.454 64.3568 115.307 63.8529 115.341 63.3445C115.374 62.8361 115.584 62.3554 115.935 61.9863C116.287 61.6172 116.756 61.3831 117.262 61.3247C117.768 61.2663 118.279 61.3875 118.705 61.6669L118.803 61.7306C119.88 62.4307 121.019 63.1945 122.13 63.8773C123.241 64.56 124.364 65.2255 125.463 65.7867C126.448 66.318 127.488 66.7391 128.565 67.0423C128.877 67.14 129.206 67.1715 129.531 67.1349C129.606 67.1349 129.6 67.0771 129.531 67.0771C129.394 67.0814 129.259 67.117 129.138 67.1812L128.501 67.7135C129.346 66.6952 130.168 65.6536 130.926 64.5369C131.683 63.4202 132.418 62.2745 133.095 61.0652C133.772 59.8559 134.432 58.6639 135.039 57.4256C135.346 56.8123 135.618 56.1874 135.925 55.5683L136.336 54.6425L136.706 53.8035L136.804 53.5836C137.26 52.56 138.093 51.7523 139.131 51.3294C140.168 50.9065 141.329 50.9011 142.37 51.3145C143.412 51.7279 144.253 52.5279 144.718 53.5472C145.182 54.5665 145.235 55.7261 144.865 56.7834H144.876Z" fill="#FF8B7B"/>
<path d="M144.958 47.4502C140.948 47.971 137.048 50.459 133.594 58.4093C135.006 61.4413 141.88 64.4675 141.88 64.4675C141.88 64.4675 149.807 54.6888 144.958 47.4502Z" fill="#4D5F66"/>
</svg>
