<svg width="21" height="24" viewBox="0 0 21 24" fill="none" xmlns="http://www.w3.org/2000/svg">
<path d="M2.34444 15.4307C4.05481 17.5906 6.60497 19.0574 9.49678 19.334L7.35713 23.6113C7.25021 23.8256 7.02026 24 6.72823 24C6.50839 24 6.29983 23.8968 6.1667 23.7188L4.11788 20.9873H0.703813C0.584 20.9873 0.465698 20.9568 0.36104 20.8984C0.256405 20.8401 0.168222 20.7562 0.10518 20.6543C0.0422734 20.5524 0.0060976 20.436 0.000688253 20.3164C-0.00466058 20.1966 0.0212696 20.077 0.074907 19.9697L2.34444 15.4307Z" fill="#3E96F4"/>
<path d="M20.9138 19.9697C21.0229 20.1877 21.0114 20.447 20.8835 20.6543C20.7552 20.8614 20.5286 20.9873 20.2849 20.9873H16.8708L14.822 23.7188C14.6889 23.8968 14.4802 23.9999 14.2605 24C13.9684 24 13.7383 23.8255 13.6315 23.6113L11.4919 19.334C14.3836 19.0575 16.9338 17.5906 18.6442 15.4307L20.9138 19.9697Z" fill="#3E96F4"/>
<path d="M11.6706 6.9209C11.7671 7.07505 11.92 7.1863 12.0964 7.23047L14.2478 7.76855L12.8239 9.46777C12.7072 9.60707 12.6485 9.78647 12.6608 9.96777L12.8142 12.1807L10.7565 11.3516C10.5287 11.2598 10.3289 11.3122 10.2312 11.3516L8.17452 12.1807L8.32784 9.96777C8.34037 9.7865 8.28245 9.60705 8.16573 9.46777L6.74092 7.76855L8.89229 7.23047C9.06871 7.18633 9.22156 7.07504 9.31807 6.9209L10.4939 5.04102L11.6706 6.9209Z" fill="#3E96F4"/>
<path fill-rule="evenodd" clip-rule="evenodd" d="M10.4958 0C15.4515 2.19187e-05 19.483 4.0317 19.4831 8.9873C19.4831 13.9431 15.4516 17.9756 10.4958 17.9756C5.54009 17.9756 1.5085 13.9429 1.5085 8.9873C1.50862 4.03169 5.54016 0 10.4958 0ZM10.4958 3.0127C10.3766 3.0127 10.2592 3.04287 10.155 3.10059C10.0508 3.15829 9.96334 3.24183 9.9001 3.34277L8.27803 5.93457L5.31123 6.67676C5.19579 6.70571 5.08966 6.76352 5.00264 6.84473C4.91553 6.92603 4.85001 7.02827 4.81319 7.1416C4.77651 7.25473 4.7691 7.37542 4.7917 7.49219C4.81441 7.60919 4.86651 7.7192 4.94307 7.81055L6.90694 10.1533L6.696 13.2041C6.68782 13.3229 6.70918 13.4419 6.75948 13.5498C6.80985 13.6578 6.88772 13.7512 6.98409 13.8213C7.28155 14.0371 7.58396 13.9348 7.65987 13.9043L10.4958 12.7617L13.3317 13.9043C13.4422 13.9488 13.5622 13.9647 13.6804 13.9502C13.7986 13.9356 13.9111 13.8912 14.0075 13.8213C14.1039 13.7512 14.1818 13.6578 14.2321 13.5498C14.2824 13.4419 14.3038 13.3229 14.2956 13.2041L14.0847 10.1533L16.0485 7.80957C16.125 7.71831 16.1772 7.60906 16.1999 7.49219C16.2226 7.37537 16.2152 7.25478 16.1784 7.1416C16.1416 7.02824 16.0761 6.92605 15.989 6.84473C15.9019 6.76351 15.7959 6.70569 15.6804 6.67676L12.7146 5.93457L11.0915 3.34277C11.0283 3.24183 10.9408 3.1583 10.8366 3.10059C10.7324 3.04287 10.615 3.0127 10.4958 3.0127Z" fill="#3E96F4"/>
</svg>
