<svg width="56" height="56" viewBox="0 0 56 56" fill="none" xmlns="http://www.w3.org/2000/svg">
<rect width="56" height="56" rx="6" fill="#007BFF"/>
<mask id="path-2-outside-1_2088_8" maskUnits="userSpaceOnUse" x="12" y="7.38898" width="32" height="41" fill="black">
<rect fill="white" x="12" y="7.38898" width="32" height="41"/>
<path d="M29.8497 9.36807C29.0978 9.24587 28.3229 9.34482 27.6362 9.65072C27.2051 9.40488 26.6975 9.29583 26.1918 9.34046C25.6862 9.38508 25.2107 9.58088 24.8388 9.89759L22.3816 12.0032V11.8197C22.3816 9.92501 20.7031 8.38898 18.6324 8.38898C17.3902 8.38898 16.3831 9.31058 16.3831 10.4474V17.168L14.5476 18.9899C14.0263 19.5051 13.7421 20.1844 13.7543 20.8865C13.7394 23.2786 13.9325 25.6681 14.3316 28.0322C14.3477 28.0862 14.3715 28.138 14.4021 28.1868L13.1784 31.3368C12.713 32.5094 13.1815 33.8215 14.3135 34.5166L14.7418 34.783C14.3045 35.9493 14.7693 37.2393 15.8782 37.9395L28.0185 45.5559C28.1192 45.619 28.2015 45.7035 28.2584 45.8023C28.3153 45.901 28.345 46.011 28.345 46.1226C28.345 47.2597 29.352 48.1813 30.5942 48.1813H41.4913C41.829 48.1821 42.1624 48.1128 42.4666 47.9786C42.7707 47.8444 43.0376 47.6489 43.2473 47.4067C43.4611 47.1605 43.6106 46.873 43.6844 46.5659C43.7582 46.2588 43.7544 45.9403 43.6733 45.6348L42.5786 41.9296C42.1935 40.3104 42.0802 38.6469 42.2426 36.9965C42.8605 29.8253 37.6072 24.6451 36.2747 23.7448C33.8237 22.0914 31.9956 20.3675 31.2577 19.015C30.1518 16.9855 30.8973 15.5971 31.6177 14.255C32.2222 13.1289 32.8475 11.9651 31.9603 10.7444C31.7282 10.3965 31.4216 10.0952 31.0589 9.85861C30.6961 9.62205 30.2848 9.45516 29.8497 9.36799V9.36807ZM18.6324 9.76129C19.8749 9.76129 20.882 10.6828 20.882 11.8196V13.2882L17.8828 15.8573V10.4472C17.8828 10.3571 17.9022 10.2679 17.9399 10.1847C17.9775 10.1015 18.0328 10.0259 18.1025 9.96224C18.172 9.89849 18.2546 9.84793 18.3456 9.81343C18.4365 9.77894 18.534 9.76127 18.6324 9.76129ZM15.2539 20.8678C15.2477 20.517 15.3898 20.1776 15.6504 19.9202L17.6292 17.953C17.6473 17.9388 17.6642 17.924 17.6803 17.9083L22.0833 14.1378C22.1258 14.1083 22.1647 14.0747 22.1993 14.0376L25.8826 10.8811C26.0238 10.7554 26.213 10.6851 26.41 10.6851C26.607 10.6851 26.7962 10.7554 26.9374 10.8811L26.9885 10.8343C27.0067 10.8538 27.0263 10.8716 27.0469 10.8886L26.9994 10.9442C27.814 11.7518 27.7913 13.0023 26.9487 13.785L23.9996 16.3762L19.8471 19.7987C19.7136 19.9287 19.6101 20.082 19.5424 20.2493C19.4748 20.4167 19.4446 20.5948 19.4534 20.773C18.7691 20.8545 18.1226 21.1073 17.5852 21.5036C17.0478 21.8999 16.6404 22.4243 16.4079 23.0189L15.4668 25.4413C15.3161 23.7545 15.268 21.8447 15.2539 20.8679L15.2539 20.8678ZM20.9465 20.74L23.1133 18.9559C23.0848 19.5514 23.1087 20.1481 23.1848 20.74H20.9465ZM14.5888 31.8049L17.8219 23.4788C17.9799 23.0771 18.2699 22.7301 18.6521 22.4854C19.0344 22.2408 19.49 22.1105 19.9565 22.1124H26.3908C26.5463 22.1133 26.6978 22.158 26.8247 22.2403L30.706 24.7572C30.7808 24.8046 30.8422 24.8676 30.8851 24.9411C30.928 25.0146 30.9511 25.0964 30.9525 25.1797C30.9538 25.2761 30.9264 25.371 30.8732 25.4542C30.8467 25.4941 30.8124 25.5336 30.7808 25.573L29.563 24.7758C28.9294 24.3593 28.1687 24.1355 27.3886 24.1362H21.4878C19.9003 24.1384 18.4865 25.0556 17.9583 26.4257L15.259 33.4455L15.1616 33.3852C14.8861 33.2188 14.6798 32.9725 14.5759 32.6859C14.472 32.3992 14.4765 32.0889 14.5887 31.8049H14.5888ZM30.2751 13.6588C29.5175 15.0682 28.4812 16.999 29.9194 19.6369C31.0689 21.7455 33.8389 23.8136 35.3879 24.8571C36.3836 25.5277 41.3173 30.3173 40.7505 36.8969C40.5754 38.6949 40.7018 40.5068 41.1254 42.2697L42.2199 45.9753C42.2452 46.0757 42.2454 46.18 42.2206 46.2805C42.1957 46.381 42.1465 46.4751 42.0765 46.5559C42.0065 46.6365 41.9175 46.7017 41.8162 46.7466C41.7149 46.7915 41.6039 46.815 41.4913 46.8153H30.5903C30.1765 46.8153 29.8408 46.5077 29.8408 46.1289C29.8413 45.7945 29.7527 45.4651 29.5829 45.1691C29.413 44.8731 29.167 44.6194 28.866 44.4299L16.7264 36.8133C16.4543 36.6419 16.2514 36.3932 16.1491 36.1057C16.0468 35.8183 16.0507 35.5079 16.1604 35.2227L19.3717 26.8786C19.5265 26.4782 19.8128 26.1314 20.1914 25.8857C20.57 25.64 21.0223 25.5075 21.4865 25.5063H27.3873C27.8551 25.506 28.3112 25.6401 28.6912 25.8899L32.1531 28.1576C32.2704 28.2358 32.3516 28.3512 32.3808 28.4814C32.4099 28.6115 32.3849 28.7468 32.3106 28.8609C32.1551 29.0996 31.9482 29.3067 31.7024 29.4699C31.4566 29.633 31.1772 29.7487 30.881 29.8099C30.5848 29.871 30.2781 29.8763 29.9796 29.8254C29.6811 29.7746 29.397 29.6688 29.1446 29.5143L27.645 28.5984C27.2763 28.3713 26.8418 28.2503 26.3973 28.251H24.0881C23.6125 28.2484 23.1484 28.385 22.7637 28.6409C22.3789 28.8969 22.0937 29.2587 21.9497 29.6735C21.9054 29.8018 21.8422 29.961 21.7712 30.1401C21.2313 31.5054 19.9717 34.7005 22.8298 35.7497C22.953 35.7998 23.0886 35.8186 23.2224 35.8041C23.3563 35.7896 23.4834 35.7424 23.5904 35.6674C23.6973 35.5925 23.7803 35.4925 23.8304 35.3781C23.8805 35.2637 23.896 35.139 23.8753 35.0172C23.8545 34.8953 23.7984 34.7808 23.7126 34.6857C23.6268 34.5906 23.5146 34.5184 23.3878 34.4766C22.1303 34.0149 22.3955 32.5951 23.1816 30.6074C23.2609 30.407 23.3316 30.2308 23.3796 30.0879C23.4283 29.9516 23.5232 29.833 23.6506 29.7494C23.7781 29.6658 23.9313 29.6217 24.0881 29.6233H26.3966C26.5439 29.6233 26.6878 29.6635 26.8099 29.7386L28.3095 30.6555C28.7311 30.9131 29.2054 31.0895 29.7038 31.1742C30.2021 31.2589 30.714 31.25 31.2085 31.148C31.7029 31.046 32.1696 30.8531 32.5801 30.581C32.9906 30.3089 33.3363 29.9633 33.5964 29.5652C34.1463 28.7146 33.8978 27.6206 33.0228 27.0413L31.9979 26.3666C32.0526 26.2981 32.1119 26.2297 32.1583 26.1609C32.715 25.3109 32.4603 24.2121 31.5751 23.642L27.6948 21.1209C27.3134 20.874 26.858 20.7409 26.3908 20.74H24.6952C24.5395 19.6771 24.5771 18.598 24.8065 17.5464L28.0014 14.7662C29.1563 13.7042 29.4247 12.079 28.6641 10.7519C29.459 10.523 30.3192 10.8428 30.7149 11.5136C31.0866 12.0256 30.8784 12.5348 30.2749 13.6587L30.2751 13.6588Z"/>
</mask>
<path d="M29.8497 9.36807C29.0978 9.24587 28.3229 9.34482 27.6362 9.65072C27.2051 9.40488 26.6975 9.29583 26.1918 9.34046C25.6862 9.38508 25.2107 9.58088 24.8388 9.89759L22.3816 12.0032V11.8197C22.3816 9.92501 20.7031 8.38898 18.6324 8.38898C17.3902 8.38898 16.3831 9.31058 16.3831 10.4474V17.168L14.5476 18.9899C14.0263 19.5051 13.7421 20.1844 13.7543 20.8865C13.7394 23.2786 13.9325 25.6681 14.3316 28.0322C14.3477 28.0862 14.3715 28.138 14.4021 28.1868L13.1784 31.3368C12.713 32.5094 13.1815 33.8215 14.3135 34.5166L14.7418 34.783C14.3045 35.9493 14.7693 37.2393 15.8782 37.9395L28.0185 45.5559C28.1192 45.619 28.2015 45.7035 28.2584 45.8023C28.3153 45.901 28.345 46.011 28.345 46.1226C28.345 47.2597 29.352 48.1813 30.5942 48.1813H41.4913C41.829 48.1821 42.1624 48.1128 42.4666 47.9786C42.7707 47.8444 43.0376 47.6489 43.2473 47.4067C43.4611 47.1605 43.6106 46.873 43.6844 46.5659C43.7582 46.2588 43.7544 45.9403 43.6733 45.6348L42.5786 41.9296C42.1935 40.3104 42.0802 38.6469 42.2426 36.9965C42.8605 29.8253 37.6072 24.6451 36.2747 23.7448C33.8237 22.0914 31.9956 20.3675 31.2577 19.015C30.1518 16.9855 30.8973 15.5971 31.6177 14.255C32.2222 13.1289 32.8475 11.9651 31.9603 10.7444C31.7282 10.3965 31.4216 10.0952 31.0589 9.85861C30.6961 9.62205 30.2848 9.45516 29.8497 9.36799V9.36807ZM18.6324 9.76129C19.8749 9.76129 20.882 10.6828 20.882 11.8196V13.2882L17.8828 15.8573V10.4472C17.8828 10.3571 17.9022 10.2679 17.9399 10.1847C17.9775 10.1015 18.0328 10.0259 18.1025 9.96224C18.172 9.89849 18.2546 9.84793 18.3456 9.81343C18.4365 9.77894 18.534 9.76127 18.6324 9.76129ZM15.2539 20.8678C15.2477 20.517 15.3898 20.1776 15.6504 19.9202L17.6292 17.953C17.6473 17.9388 17.6642 17.924 17.6803 17.9083L22.0833 14.1378C22.1258 14.1083 22.1647 14.0747 22.1993 14.0376L25.8826 10.8811C26.0238 10.7554 26.213 10.6851 26.41 10.6851C26.607 10.6851 26.7962 10.7554 26.9374 10.8811L26.9885 10.8343C27.0067 10.8538 27.0263 10.8716 27.0469 10.8886L26.9994 10.9442C27.814 11.7518 27.7913 13.0023 26.9487 13.785L23.9996 16.3762L19.8471 19.7987C19.7136 19.9287 19.6101 20.082 19.5424 20.2493C19.4748 20.4167 19.4446 20.5948 19.4534 20.773C18.7691 20.8545 18.1226 21.1073 17.5852 21.5036C17.0478 21.8999 16.6404 22.4243 16.4079 23.0189L15.4668 25.4413C15.3161 23.7545 15.268 21.8447 15.2539 20.8679L15.2539 20.8678ZM20.9465 20.74L23.1133 18.9559C23.0848 19.5514 23.1087 20.1481 23.1848 20.74H20.9465ZM14.5888 31.8049L17.8219 23.4788C17.9799 23.0771 18.2699 22.7301 18.6521 22.4854C19.0344 22.2408 19.49 22.1105 19.9565 22.1124H26.3908C26.5463 22.1133 26.6978 22.158 26.8247 22.2403L30.706 24.7572C30.7808 24.8046 30.8422 24.8676 30.8851 24.9411C30.928 25.0146 30.9511 25.0964 30.9525 25.1797C30.9538 25.2761 30.9264 25.371 30.8732 25.4542C30.8467 25.4941 30.8124 25.5336 30.7808 25.573L29.563 24.7758C28.9294 24.3593 28.1687 24.1355 27.3886 24.1362H21.4878C19.9003 24.1384 18.4865 25.0556 17.9583 26.4257L15.259 33.4455L15.1616 33.3852C14.8861 33.2188 14.6798 32.9725 14.5759 32.6859C14.472 32.3992 14.4765 32.0889 14.5887 31.8049H14.5888ZM30.2751 13.6588C29.5175 15.0682 28.4812 16.999 29.9194 19.6369C31.0689 21.7455 33.8389 23.8136 35.3879 24.8571C36.3836 25.5277 41.3173 30.3173 40.7505 36.8969C40.5754 38.6949 40.7018 40.5068 41.1254 42.2697L42.2199 45.9753C42.2452 46.0757 42.2454 46.18 42.2206 46.2805C42.1957 46.381 42.1465 46.4751 42.0765 46.5559C42.0065 46.6365 41.9175 46.7017 41.8162 46.7466C41.7149 46.7915 41.6039 46.815 41.4913 46.8153H30.5903C30.1765 46.8153 29.8408 46.5077 29.8408 46.1289C29.8413 45.7945 29.7527 45.4651 29.5829 45.1691C29.413 44.8731 29.167 44.6194 28.866 44.4299L16.7264 36.8133C16.4543 36.6419 16.2514 36.3932 16.1491 36.1057C16.0468 35.8183 16.0507 35.5079 16.1604 35.2227L19.3717 26.8786C19.5265 26.4782 19.8128 26.1314 20.1914 25.8857C20.57 25.64 21.0223 25.5075 21.4865 25.5063H27.3873C27.8551 25.506 28.3112 25.6401 28.6912 25.8899L32.1531 28.1576C32.2704 28.2358 32.3516 28.3512 32.3808 28.4814C32.4099 28.6115 32.3849 28.7468 32.3106 28.8609C32.1551 29.0996 31.9482 29.3067 31.7024 29.4699C31.4566 29.633 31.1772 29.7487 30.881 29.8099C30.5848 29.871 30.2781 29.8763 29.9796 29.8254C29.6811 29.7746 29.397 29.6688 29.1446 29.5143L27.645 28.5984C27.2763 28.3713 26.8418 28.2503 26.3973 28.251H24.0881C23.6125 28.2484 23.1484 28.385 22.7637 28.6409C22.3789 28.8969 22.0937 29.2587 21.9497 29.6735C21.9054 29.8018 21.8422 29.961 21.7712 30.1401C21.2313 31.5054 19.9717 34.7005 22.8298 35.7497C22.953 35.7998 23.0886 35.8186 23.2224 35.8041C23.3563 35.7896 23.4834 35.7424 23.5904 35.6674C23.6973 35.5925 23.7803 35.4925 23.8304 35.3781C23.8805 35.2637 23.896 35.139 23.8753 35.0172C23.8545 34.8953 23.7984 34.7808 23.7126 34.6857C23.6268 34.5906 23.5146 34.5184 23.3878 34.4766C22.1303 34.0149 22.3955 32.5951 23.1816 30.6074C23.2609 30.407 23.3316 30.2308 23.3796 30.0879C23.4283 29.9516 23.5232 29.833 23.6506 29.7494C23.7781 29.6658 23.9313 29.6217 24.0881 29.6233H26.3966C26.5439 29.6233 26.6878 29.6635 26.8099 29.7386L28.3095 30.6555C28.7311 30.9131 29.2054 31.0895 29.7038 31.1742C30.2021 31.2589 30.714 31.25 31.2085 31.148C31.7029 31.046 32.1696 30.8531 32.5801 30.581C32.9906 30.3089 33.3363 29.9633 33.5964 29.5652C34.1463 28.7146 33.8978 27.6206 33.0228 27.0413L31.9979 26.3666C32.0526 26.2981 32.1119 26.2297 32.1583 26.1609C32.715 25.3109 32.4603 24.2121 31.5751 23.642L27.6948 21.1209C27.3134 20.874 26.858 20.7409 26.3908 20.74H24.6952C24.5395 19.6771 24.5771 18.598 24.8065 17.5464L28.0014 14.7662C29.1563 13.7042 29.4247 12.079 28.6641 10.7519C29.459 10.523 30.3192 10.8428 30.7149 11.5136C31.0866 12.0256 30.8784 12.5348 30.2749 13.6587L30.2751 13.6588Z" fill="white"/>
<path d="M29.8497 9.36807C29.0978 9.24587 28.3229 9.34482 27.6362 9.65072C27.2051 9.40488 26.6975 9.29583 26.1918 9.34046C25.6862 9.38508 25.2107 9.58088 24.8388 9.89759L22.3816 12.0032V11.8197C22.3816 9.92501 20.7031 8.38898 18.6324 8.38898C17.3902 8.38898 16.3831 9.31058 16.3831 10.4474V17.168L14.5476 18.9899C14.0263 19.5051 13.7421 20.1844 13.7543 20.8865C13.7394 23.2786 13.9325 25.6681 14.3316 28.0322C14.3477 28.0862 14.3715 28.138 14.4021 28.1868L13.1784 31.3368C12.713 32.5094 13.1815 33.8215 14.3135 34.5166L14.7418 34.783C14.3045 35.9493 14.7693 37.2393 15.8782 37.9395L28.0185 45.5559C28.1192 45.619 28.2015 45.7035 28.2584 45.8023C28.3153 45.901 28.345 46.011 28.345 46.1226C28.345 47.2597 29.352 48.1813 30.5942 48.1813H41.4913C41.829 48.1821 42.1624 48.1128 42.4666 47.9786C42.7707 47.8444 43.0376 47.6489 43.2473 47.4067C43.4611 47.1605 43.6106 46.873 43.6844 46.5659C43.7582 46.2588 43.7544 45.9403 43.6733 45.6348L42.5786 41.9296C42.1935 40.3104 42.0802 38.6469 42.2426 36.9965C42.8605 29.8253 37.6072 24.6451 36.2747 23.7448C33.8237 22.0914 31.9956 20.3675 31.2577 19.015C30.1518 16.9855 30.8973 15.5971 31.6177 14.255C32.2222 13.1289 32.8475 11.9651 31.9603 10.7444C31.7282 10.3965 31.4216 10.0952 31.0589 9.85861C30.6961 9.62205 30.2848 9.45516 29.8497 9.36799V9.36807ZM18.6324 9.76129C19.8749 9.76129 20.882 10.6828 20.882 11.8196V13.2882L17.8828 15.8573V10.4472C17.8828 10.3571 17.9022 10.2679 17.9399 10.1847C17.9775 10.1015 18.0328 10.0259 18.1025 9.96224C18.172 9.89849 18.2546 9.84793 18.3456 9.81343C18.4365 9.77894 18.534 9.76127 18.6324 9.76129ZM15.2539 20.8678C15.2477 20.517 15.3898 20.1776 15.6504 19.9202L17.6292 17.953C17.6473 17.9388 17.6642 17.924 17.6803 17.9083L22.0833 14.1378C22.1258 14.1083 22.1647 14.0747 22.1993 14.0376L25.8826 10.8811C26.0238 10.7554 26.213 10.6851 26.41 10.6851C26.607 10.6851 26.7962 10.7554 26.9374 10.8811L26.9885 10.8343C27.0067 10.8538 27.0263 10.8716 27.0469 10.8886L26.9994 10.9442C27.814 11.7518 27.7913 13.0023 26.9487 13.785L23.9996 16.3762L19.8471 19.7987C19.7136 19.9287 19.6101 20.082 19.5424 20.2493C19.4748 20.4167 19.4446 20.5948 19.4534 20.773C18.7691 20.8545 18.1226 21.1073 17.5852 21.5036C17.0478 21.8999 16.6404 22.4243 16.4079 23.0189L15.4668 25.4413C15.3161 23.7545 15.268 21.8447 15.2539 20.8679L15.2539 20.8678ZM20.9465 20.74L23.1133 18.9559C23.0848 19.5514 23.1087 20.1481 23.1848 20.74H20.9465ZM14.5888 31.8049L17.8219 23.4788C17.9799 23.0771 18.2699 22.7301 18.6521 22.4854C19.0344 22.2408 19.49 22.1105 19.9565 22.1124H26.3908C26.5463 22.1133 26.6978 22.158 26.8247 22.2403L30.706 24.7572C30.7808 24.8046 30.8422 24.8676 30.8851 24.9411C30.928 25.0146 30.9511 25.0964 30.9525 25.1797C30.9538 25.2761 30.9264 25.371 30.8732 25.4542C30.8467 25.4941 30.8124 25.5336 30.7808 25.573L29.563 24.7758C28.9294 24.3593 28.1687 24.1355 27.3886 24.1362H21.4878C19.9003 24.1384 18.4865 25.0556 17.9583 26.4257L15.259 33.4455L15.1616 33.3852C14.8861 33.2188 14.6798 32.9725 14.5759 32.6859C14.472 32.3992 14.4765 32.0889 14.5887 31.8049H14.5888ZM30.2751 13.6588C29.5175 15.0682 28.4812 16.999 29.9194 19.6369C31.0689 21.7455 33.8389 23.8136 35.3879 24.8571C36.3836 25.5277 41.3173 30.3173 40.7505 36.8969C40.5754 38.6949 40.7018 40.5068 41.1254 42.2697L42.2199 45.9753C42.2452 46.0757 42.2454 46.18 42.2206 46.2805C42.1957 46.381 42.1465 46.4751 42.0765 46.5559C42.0065 46.6365 41.9175 46.7017 41.8162 46.7466C41.7149 46.7915 41.6039 46.815 41.4913 46.8153H30.5903C30.1765 46.8153 29.8408 46.5077 29.8408 46.1289C29.8413 45.7945 29.7527 45.4651 29.5829 45.1691C29.413 44.8731 29.167 44.6194 28.866 44.4299L16.7264 36.8133C16.4543 36.6419 16.2514 36.3932 16.1491 36.1057C16.0468 35.8183 16.0507 35.5079 16.1604 35.2227L19.3717 26.8786C19.5265 26.4782 19.8128 26.1314 20.1914 25.8857C20.57 25.64 21.0223 25.5075 21.4865 25.5063H27.3873C27.8551 25.506 28.3112 25.6401 28.6912 25.8899L32.1531 28.1576C32.2704 28.2358 32.3516 28.3512 32.3808 28.4814C32.4099 28.6115 32.3849 28.7468 32.3106 28.8609C32.1551 29.0996 31.9482 29.3067 31.7024 29.4699C31.4566 29.633 31.1772 29.7487 30.881 29.8099C30.5848 29.871 30.2781 29.8763 29.9796 29.8254C29.6811 29.7746 29.397 29.6688 29.1446 29.5143L27.645 28.5984C27.2763 28.3713 26.8418 28.2503 26.3973 28.251H24.0881C23.6125 28.2484 23.1484 28.385 22.7637 28.6409C22.3789 28.8969 22.0937 29.2587 21.9497 29.6735C21.9054 29.8018 21.8422 29.961 21.7712 30.1401C21.2313 31.5054 19.9717 34.7005 22.8298 35.7497C22.953 35.7998 23.0886 35.8186 23.2224 35.8041C23.3563 35.7896 23.4834 35.7424 23.5904 35.6674C23.6973 35.5925 23.7803 35.4925 23.8304 35.3781C23.8805 35.2637 23.896 35.139 23.8753 35.0172C23.8545 34.8953 23.7984 34.7808 23.7126 34.6857C23.6268 34.5906 23.5146 34.5184 23.3878 34.4766C22.1303 34.0149 22.3955 32.5951 23.1816 30.6074C23.2609 30.407 23.3316 30.2308 23.3796 30.0879C23.4283 29.9516 23.5232 29.833 23.6506 29.7494C23.7781 29.6658 23.9313 29.6217 24.0881 29.6233H26.3966C26.5439 29.6233 26.6878 29.6635 26.8099 29.7386L28.3095 30.6555C28.7311 30.9131 29.2054 31.0895 29.7038 31.1742C30.2021 31.2589 30.714 31.25 31.2085 31.148C31.7029 31.046 32.1696 30.8531 32.5801 30.581C32.9906 30.3089 33.3363 29.9633 33.5964 29.5652C34.1463 28.7146 33.8978 27.6206 33.0228 27.0413L31.9979 26.3666C32.0526 26.2981 32.1119 26.2297 32.1583 26.1609C32.715 25.3109 32.4603 24.2121 31.5751 23.642L27.6948 21.1209C27.3134 20.874 26.858 20.7409 26.3908 20.74H24.6952C24.5395 19.6771 24.5771 18.598 24.8065 17.5464L28.0014 14.7662C29.1563 13.7042 29.4247 12.079 28.6641 10.7519C29.459 10.523 30.3192 10.8428 30.7149 11.5136C31.0866 12.0256 30.8784 12.5348 30.2749 13.6587L30.2751 13.6588Z" stroke="white" stroke-width="0.4" mask="url(#path-2-outside-1_2088_8)"/>
<path d="M30.8805 34.2197L30.8804 34.2196C30.7892 34.11 30.7304 33.9793 30.7111 33.8407C30.6918 33.7021 30.7129 33.5615 30.7717 33.4334C30.8303 33.3052 30.9243 33.1946 31.0431 33.1119C31.1618 33.0293 31.3015 32.9772 31.448 32.9602M30.8805 34.2197L31.4596 33.0595M30.8805 34.2197C32.0311 35.5999 33.9596 37.2705 36.5733 37.2708L30.8805 34.2197ZM31.448 32.9602L31.4596 33.0595M31.448 32.9602C31.448 32.9602 31.448 32.9602 31.448 32.9602L31.4596 33.0595M31.448 32.9602C31.5945 32.9431 31.7434 32.9615 31.88 33.014L31.8442 33.1073M31.4596 33.0595C31.5901 33.0442 31.7228 33.0607 31.8442 33.1073M31.8442 33.1073L31.88 33.014C32.0167 33.0664 32.1369 33.1513 32.228 33.261M31.8442 33.1073L32.228 33.261M32.228 33.261C33.164 34.3831 34.6647 35.6982 36.5733 35.6985C36.5736 35.6985 36.5738 35.6985 36.574 35.6985V35.7985C36.6735 35.7971 36.7722 35.8138 36.8645 35.8477C36.9568 35.8815 37.0408 35.9318 37.1117 35.9957C37.1825 36.0596 37.2388 36.1357 37.2772 36.2196C37.3156 36.3035 37.3354 36.3936 37.3354 36.4846C37.3354 36.5756 37.3156 36.6657 37.2772 36.7497C37.2388 36.8336 37.1825 36.9097 37.1117 36.9736C37.0408 37.0374 36.9568 37.0878 36.8645 37.1216C36.7722 37.1555 36.6735 37.1722 36.574 37.1708L32.228 33.261ZM35.2633 9.73763L35.2634 9.73761C35.3699 9.71021 35.4812 9.70233 35.591 9.71436C35.7007 9.72639 35.8071 9.7581 35.904 9.80797C35.904 9.80799 35.9041 9.80801 35.9041 9.80803L35.8583 9.89694C35.9443 9.94104 36.0199 10.0002 36.0808 10.0711L35.2633 9.73763ZM35.2633 9.73763L34.2894 9.9887C34.2893 9.98874 34.2891 9.98877 34.289 9.98881C34.0917 10.0379 33.9186 10.1516 33.8034 10.3109C33.688 10.4706 33.6392 10.6647 33.6681 10.8567L33.6681 10.8567C33.6971 11.0485 33.801 11.222 33.9578 11.3458C34.1142 11.4695 34.3131 11.5358 34.5171 11.5343M35.2633 9.73763L34.5171 11.5343M34.5171 11.5343C34.5169 11.5343 34.5168 11.5343 34.5167 11.5343V11.4343L34.5175 11.5343C34.5174 11.5343 34.5172 11.5343 34.5171 11.5343ZM34.1492 13.004L34.1493 13.004L35.124 13.255L34.1492 13.004ZM34.1492 13.004C34.0427 12.9766 33.9315 12.9688 33.8218 12.9808C33.7121 12.9928 33.6057 13.0245 33.5087 13.0743C33.4118 13.1241 33.3259 13.1912 33.2564 13.2722C33.1868 13.3532 33.1349 13.4464 33.1041 13.5467M34.1492 13.004L34.6689 14.7706M34.6689 14.7706L34.6685 14.7705L33.6938 14.5192C33.5872 14.4919 33.4872 14.4454 33.3994 14.3822C33.3116 14.319 33.2377 14.2402 33.1823 14.1499C33.127 14.0596 33.0913 13.9597 33.0778 13.856C33.0643 13.7522 33.0733 13.6471 33.1041 13.5467M34.6689 14.7706C34.7432 14.7894 34.8202 14.7994 34.898 14.7991M34.6689 14.7706L35.7391 14.1208M33.1041 13.5467L33.1997 13.5761L33.1041 13.5468C33.1041 13.5468 33.1041 13.5468 33.1041 13.5467ZM35.7391 14.1208L35.7391 14.1209C35.7105 14.3114 35.6078 14.4841 35.4527 14.6079C35.2979 14.7316 35.1008 14.7989 34.898 14.7991M35.7391 14.1208C35.7676 13.93 35.7194 13.7371 35.6052 13.5779M35.7391 14.1208L35.6052 13.5779M34.898 14.7991C34.8979 14.7991 34.8978 14.7991 34.8978 14.7991L34.8977 14.6991L34.8981 14.7991C34.8981 14.7991 34.898 14.7991 34.898 14.7991ZM32.5934 7.15893L31.8811 7.84302C31.7727 7.94103 31.6939 8.06472 31.6542 8.20177C31.6143 8.33943 31.6156 8.48453 31.658 8.62153C31.7002 8.75844 31.7816 8.88129 31.8924 8.97776C32.0031 9.07418 32.1392 9.1409 32.2863 9.17186L32.5934 7.15893ZM32.5934 7.15893C32.6951 7.05478 32.8247 6.97818 32.9681 6.93635C33.1121 6.89438 33.2655 6.88866 33.4125 6.91969C33.4126 6.91969 33.4126 6.9197 33.4126 6.9197L33.392 7.01755L32.5934 7.15893ZM35.6052 13.5779C35.4913 13.4191 35.3199 13.3052 35.1241 13.255L35.6052 13.5779ZM26.5809 37.2355L26.5813 37.2356C27.4405 37.4992 28.9878 38.1047 30.3181 38.9417C30.9833 39.3602 31.5898 39.8339 32.0291 40.3481C32.4685 40.8625 32.7342 41.4098 32.7342 41.9782C32.7342 42.1897 32.8261 42.3906 32.9863 42.5372C33.1462 42.6835 33.3613 42.7644 33.584 42.7644C33.8066 42.7644 34.0217 42.6835 34.1816 42.5372C34.3418 42.3906 34.4337 42.1897 34.4337 41.9782V41.9782C34.4331 40.9753 33.9838 40.089 33.3172 39.3264C32.651 38.5642 31.7628 37.9197 30.8706 37.3974C29.086 36.3527 27.266 35.7856 27.1147 35.7403C26.903 35.677 26.6726 35.6927 26.473 35.7847C26.2733 35.8767 26.1188 36.0386 26.0462 36.2376C25.9735 36.437 25.9902 36.6548 26.0918 36.8424C26.1932 37.0295 26.3699 37.1698 26.5809 37.2355ZM34.0411 7.46987L34.0411 7.46982L32.2863 9.17186C32.5845 9.2347 32.8983 9.1448 33.1054 8.93269L33.8177 8.24854C33.9262 8.15054 34.005 8.02683 34.0448 7.88975C34.0847 7.75206 34.0834 7.60691 34.0411 7.46987Z" fill="white" stroke="white" stroke-width="0.2"/>
</svg>
