<svg width="64" height="64" viewBox="0 0 64 64" fill="none" xmlns="http://www.w3.org/2000/svg">
<rect x="0.5" y="0.5" width="63" height="63" rx="7.5" fill="#3E96F4" stroke="#3E96F4"/>
<path d="M20.0458 30.4892C19.8546 29.7816 20.2793 29.0517 20.993 28.862L22.2697 28.5227C22.3451 28.5027 22.3961 28.4324 22.3967 28.3484C22.4006 27.5014 22.5133 26.6583 22.7324 25.8396C22.7522 25.7653 22.7242 25.6913 22.6626 25.656L21.5064 24.9939C21.3537 24.9071 21.22 24.7911 21.1129 24.6526C21.0058 24.5141 20.9275 24.356 20.8824 24.1873C20.7899 23.8447 20.8372 23.4865 21.0161 23.1793L22.2018 21.1425C22.2893 20.9911 22.4063 20.8584 22.5459 20.7522C22.6855 20.6459 22.845 20.5681 23.0151 20.5233C23.3608 20.4315 23.7221 20.4787 24.0316 20.6563L25.1878 21.318C25.2495 21.3535 25.328 21.3406 25.3829 21.2861C25.9885 20.6889 26.6683 20.1706 27.4059 19.7438C27.479 19.7011 27.5149 19.6223 27.4947 19.5474L27.1526 18.2813C26.9615 17.5737 27.3865 16.8437 28.0998 16.6541L30.3905 16.0454C31.104 15.8558 31.84 16.2773 32.0312 16.9848L32.3733 18.251C32.3935 18.3258 32.464 18.3764 32.5491 18.377C33.4031 18.3809 34.2531 18.4928 35.0786 18.7098C35.1536 18.7295 35.2282 18.7017 35.2637 18.6407L35.9313 17.494C36.0189 17.3426 36.1358 17.2099 36.2754 17.1036C36.415 16.9973 36.5745 16.9196 36.7446 16.8749C37.09 16.7831 37.4513 16.8303 37.7611 17.0078L39.8148 18.1837C40.1247 18.3611 40.3461 18.6475 40.4387 18.9904C40.5313 19.3333 40.4841 19.6914 40.3049 19.9987L39.6375 21.1452C39.602 21.2062 39.615 21.2838 39.6697 21.3387C40.272 21.9391 40.7947 22.6131 41.2252 23.3446C41.2682 23.4177 41.3477 23.453 41.4231 23.4329L42.6998 23.0937C43.4132 22.9041 44.1493 23.3256 44.3405 24.033L44.9542 26.3047C45.1454 27.0123 44.7204 27.7423 44.007 27.9319L42.7303 28.2712C42.6548 28.2912 42.6038 28.3612 42.6036 28.4455C42.5994 29.2925 42.4865 30.1354 42.2675 30.9541C42.2478 31.0287 42.2757 31.1023 42.3373 31.1379L43.4935 31.7997C44.1344 32.167 44.3542 32.9788 43.9836 33.6148L43.8581 33.8302C43.4669 34.5028 42.4402 33.9162 42.8323 33.2428C42.8952 33.114 43.0815 32.9207 42.901 32.8175L41.745 32.1554C41.2221 31.8559 40.9661 31.2381 41.1225 30.653C41.3155 29.9309 41.4151 29.1874 41.4188 28.4404C41.4213 27.8291 41.8347 27.2924 42.4239 27.1358L43.7002 26.7967C43.7828 26.7747 43.8319 26.6905 43.8098 26.6086L43.196 24.3369C43.1853 24.2977 43.1594 24.2642 43.1238 24.2439C43.0883 24.2236 43.0461 24.2181 43.0065 24.2286L41.7297 24.5679C41.1405 24.7244 40.5124 24.4647 40.2016 23.9365C39.8219 23.2913 39.361 22.6967 38.8298 22.167C38.3993 21.738 38.3096 21.076 38.6115 20.5574L39.2789 19.411C39.2893 19.3936 39.2959 19.3743 39.2986 19.3543C39.3012 19.3343 39.2998 19.3139 39.2943 19.2945C39.2868 19.2665 39.2683 19.2276 39.2223 19.2015L37.1685 18.0253C37.151 18.0151 37.1316 18.0085 37.1115 18.0058C37.0913 18.0032 37.0709 18.0045 37.0513 18.0099C37.023 18.0174 36.9836 18.036 36.9572 18.0814L36.2896 19.2281C35.9877 19.7468 35.365 20.0006 34.775 19.8455C34.0468 19.6541 33.2971 19.5554 32.5438 19.5517C31.9273 19.5493 31.3866 19.1392 31.2288 18.5551L30.8867 17.289C30.8646 17.2071 30.7793 17.1585 30.6971 17.1804L28.4065 17.7891C28.324 17.811 28.2749 17.8953 28.297 17.9771L28.6391 19.2433C28.7969 19.8274 28.5353 20.4506 28.0027 20.7588C27.3532 21.1341 26.7531 21.592 26.2184 22.1193C25.7857 22.5463 25.1185 22.6352 24.5956 22.3357L23.4394 21.6739C23.4219 21.6636 23.4024 21.657 23.3822 21.6544C23.362 21.6517 23.3415 21.6532 23.3219 21.6587C23.2939 21.6661 23.2545 21.6847 23.2278 21.7302L22.0424 23.7669C21.9996 23.8403 22.0247 23.9344 22.0991 23.9767L23.255 24.6386C23.7779 24.938 24.034 25.5558 23.8774 26.141C23.6844 26.863 23.5849 27.6065 23.5812 28.3535C23.5787 28.9649 23.1653 29.5015 22.5761 29.6581L21.2998 29.9973C21.2172 30.0192 21.1682 30.1035 21.1902 30.1851L21.8039 32.4567C21.826 32.5386 21.9111 32.5873 21.9935 32.5653L23.27 32.2261C23.8592 32.0696 24.4876 32.3293 24.7981 32.8575C25.193 33.5296 24.1692 34.1204 23.7748 33.4494C23.7319 33.3765 23.6523 33.341 23.5766 33.3611L22.3003 33.7003C21.5868 33.8899 20.8507 33.4683 20.6596 32.7609L20.0458 30.4892Z" fill="white"/>
<path fill-rule="evenodd" clip-rule="evenodd" d="M32.6782 22.478C35.8054 22.478 38.3411 24.9927 38.3411 28.0943V28.2796C39.421 28.6574 39.5526 30.1604 38.5378 30.7117V31.4512C38.5378 32.1321 38.0462 32.6991 37.3968 32.8264C37.2197 34.0843 36.5723 35.2051 35.4221 36.0164V36.8015L39.5467 37.5963L39.9166 37.6682L39.9088 37.6749C40.9227 37.9159 41.83 38.3327 42.5078 38.955C43.2706 39.6554 43.732 40.6068 43.732 41.8248V46.092C43.7317 47.1456 42.8706 47.9999 41.8081 48H23.0903C22.028 47.9998 21.1667 47.1455 21.1664 46.092V41.8248C21.1664 40.603 21.6305 39.6507 22.3945 38.9511C23.1536 38.2563 24.1988 37.8189 25.3527 37.5963L29.4764 36.8015V36.0154C29.3292 35.9117 29.1854 35.8034 29.0487 35.6864C28.2044 34.9654 27.6585 33.9444 27.4997 32.8264C26.8513 32.6982 26.3616 32.1313 26.3616 31.4512V30.7117C25.3455 30.1604 25.4779 28.6558 26.5583 28.2787V28.0943C26.5583 24.9929 29.0928 22.4781 32.2202 22.478H32.6782ZM23.9289 39.382C23.4301 39.6491 23.069 39.9622 22.8251 40.3254C22.5493 40.7362 22.4131 41.2277 22.4131 41.8248V46.092C22.4134 46.4627 22.7166 46.7635 23.0903 46.7636H24.6775V44.3228C24.6775 41.8834 24.1321 40.0426 23.9289 39.382ZM27.9156 38.3621C26.4867 38.6466 25.8462 38.763 25.5063 38.8259C25.2777 38.8683 25.1919 38.8871 25.0895 38.9172C25.2861 39.5462 25.9242 41.4972 25.9242 44.3228V46.7636H31.8259V44.8488C31.8259 44.2612 31.6462 43.697 31.3053 43.2164C30.3707 41.8991 28.804 39.6425 27.9156 38.3621ZM36.9829 38.3621C36.2362 39.4446 34.1211 42.4721 33.5931 43.2164C33.2524 43.6969 33.0726 44.2612 33.0726 44.8488V46.7636H38.9742V45.3797C38.9742 45.1864 39.0495 45.0265 39.1739 44.9177C39.2945 44.8123 39.4495 44.7643 39.5976 44.7644C39.7454 44.7645 39.8999 44.8126 40.0203 44.9177C40.1446 45.0265 40.2209 45.1865 40.2209 45.3797V46.7636H41.8081C42.1821 46.7635 42.4851 46.4627 42.4853 46.092V41.8248C42.4853 41.2278 42.3492 40.7362 42.0733 40.3254C41.8294 39.9622 41.4683 39.6491 40.9695 39.382C40.7812 39.989 40.3114 41.5162 40.2317 43.7211C40.2247 43.9138 40.1433 44.0702 40.0154 44.1743C39.8913 44.2753 39.7347 44.3181 39.5868 44.3131C39.4389 44.3081 39.2857 44.2549 39.169 44.1452C39.0485 44.032 38.9789 43.8697 38.986 43.6765C39.0723 41.2868 39.6284 39.4975 39.8089 38.9172C39.7063 38.8871 39.6205 38.8683 39.3921 38.8259C39.0522 38.763 38.4114 38.6466 36.9829 38.3621ZM31.456 40.9533C31.4034 40.9845 31.3485 41.0113 31.2926 41.0358L32.3249 42.5051L32.4492 42.6934C32.4893 42.6297 32.5299 42.5665 32.5735 42.5051C32.8602 42.1008 33.222 41.5844 33.6059 41.0358C33.55 41.0113 33.495 40.9845 33.4424 40.9533L32.4492 40.3622L31.456 40.9533ZM35.2665 38.0301C35.099 38.4182 34.8147 38.7598 34.5042 39.0463C34.245 39.2853 33.9607 39.4913 33.6969 39.6615L34.0844 39.8925C34.0844 39.8925 34.0898 39.8951 34.0981 39.8974C34.1081 39.9001 34.1219 39.903 34.1392 39.9042C34.1745 39.9065 34.2199 39.9023 34.2684 39.8896C34.3648 39.8642 34.4658 39.8057 34.5384 39.7013L35.6481 38.1039L35.2665 38.0301ZM29.2493 38.1039C29.6181 38.635 29.9876 39.1658 30.3571 39.6965L30.4216 39.7722C30.4937 39.8396 30.5853 39.8828 30.6829 39.8945L30.7573 39.8993C30.775 39.8992 30.7867 39.8983 30.7955 39.8964C30.812 39.8928 30.833 39.8844 30.8806 39.8556C30.9426 39.818 31.0397 39.7507 31.1947 39.6577C30.9327 39.4883 30.6512 39.2833 30.3942 39.0463C30.0836 38.7597 29.7985 38.4184 29.631 38.0301L29.2493 38.1039ZM34.1754 36.6695C33.6227 36.8686 33.0387 36.9723 32.4492 36.9723C31.8596 36.9723 31.2758 36.8686 30.723 36.6695V37.313C30.7237 37.4444 30.7815 37.5949 30.8992 37.7613C31.0161 37.9266 31.182 38.0939 31.3748 38.2534C31.7242 38.5426 32.1415 38.7898 32.4492 38.9502C32.7574 38.7896 33.1758 38.5422 33.5256 38.2524C33.7185 38.0926 33.8845 37.9249 34.0012 37.7594C34.1186 37.5928 34.1753 37.4425 34.1754 37.311V36.6695ZM27.6083 31.4512C27.6083 31.5245 27.6288 31.5515 27.6416 31.5638C27.6598 31.5814 27.6946 31.5993 27.7531 31.6103C27.8104 31.6211 27.8742 31.6219 27.9351 31.6201C27.9691 31.619 27.9891 31.6183 28.0193 31.6171C28.0316 31.6167 28.0465 31.6159 28.0604 31.6162C28.064 31.6162 28.0694 31.6177 28.076 31.6181L28.1964 31.6298C28.3146 31.6529 28.4242 31.71 28.5115 31.7947C28.6279 31.9078 28.6958 32.0612 28.6994 32.2227C28.7209 33.2185 29.1475 34.138 29.8629 34.7489C31.4032 36.0645 33.4962 36.0643 35.0365 34.7489C35.7515 34.138 36.1775 33.2184 36.199 32.2227C36.2027 32.0612 36.2705 31.9078 36.3869 31.7947C36.4742 31.71 36.5839 31.6529 36.702 31.6298L36.8224 31.6181C36.8314 31.6177 36.8383 31.6171 36.841 31.6171C36.8532 31.6172 36.8662 31.6176 36.8772 31.6181C36.902 31.6194 36.9265 31.621 36.9565 31.622C37.0159 31.6239 37.0808 31.6224 37.1394 31.6113C37.1994 31.5999 37.2361 31.5816 37.2559 31.5628C37.2698 31.5496 37.2911 31.5226 37.2911 31.4512V30.8815H27.6083V31.4512ZM27.0192 29.4355C26.9732 29.4356 26.9529 29.4504 26.9419 29.4627C26.9276 29.4788 26.9155 29.5063 26.9155 29.5403C26.9155 29.5743 26.9276 29.6019 26.9419 29.6179C26.9528 29.6301 26.9733 29.645 27.0192 29.6451H37.8792C37.9251 29.6451 37.9455 29.6302 37.9565 29.6179C37.9708 29.6019 37.9829 29.5742 37.983 29.5403C37.983 29.5063 37.9708 29.4787 37.9565 29.4627C37.9456 29.4504 37.9254 29.4355 37.8792 29.4355H27.0192ZM33.0726 25.5943C33.0726 25.7876 32.9973 25.9474 32.8729 26.0562C32.7524 26.1617 32.5972 26.2096 32.4492 26.2096C32.3012 26.2095 32.146 26.1607 32.0255 26.0553C31.9014 25.9465 31.8259 25.7872 31.8259 25.5943V23.7329C31.5573 23.7565 31.292 23.8064 31.0323 23.8784V24.615C31.0323 24.8083 30.956 24.9682 30.8317 25.077C30.7113 25.1821 30.5567 25.2303 30.4089 25.2303C30.2609 25.2303 30.1057 25.1815 29.9852 25.076C29.861 24.9673 29.7856 24.8082 29.7856 24.615V24.4433C28.5924 25.2285 27.805 26.572 27.805 28.0943V28.1981H37.0944V28.0943C37.0944 26.5724 36.3065 25.2295 35.1138 24.4442V24.615C35.1138 24.8083 35.0376 24.9682 34.9132 25.077C34.7928 25.1821 34.6382 25.2303 34.4905 25.2303C34.3425 25.2303 34.1873 25.1815 34.0668 25.076C33.9426 24.9673 33.8671 24.8081 33.8671 24.615V23.8784C33.6071 23.8063 33.3415 23.7565 33.0726 23.7329V25.5943Z" fill="white"/>
<path d="M20.0458 30.4892C19.8546 29.7816 20.2793 29.0517 20.993 28.862L22.2697 28.5227C22.3451 28.5027 22.3961 28.4324 22.3967 28.3484C22.4006 27.5014 22.5133 26.6583 22.7324 25.8396C22.7522 25.7653 22.7242 25.6913 22.6626 25.656L21.5064 24.9939C21.3537 24.9071 21.22 24.7911 21.1129 24.6526C21.0058 24.5141 20.9275 24.356 20.8824 24.1873C20.7899 23.8447 20.8372 23.4865 21.0161 23.1793L22.2018 21.1425C22.2893 20.9911 22.4063 20.8584 22.5459 20.7522C22.6855 20.6459 22.845 20.5681 23.0151 20.5233C23.3608 20.4315 23.7221 20.4787 24.0316 20.6563L25.1878 21.318C25.2495 21.3535 25.328 21.3406 25.3829 21.2861C25.9885 20.6889 26.6683 20.1706 27.4059 19.7438C27.479 19.7011 27.5149 19.6223 27.4947 19.5474L27.1526 18.2813C26.9615 17.5737 27.3865 16.8437 28.0998 16.6541L30.3905 16.0454C31.104 15.8558 31.84 16.2773 32.0312 16.9848L32.3733 18.251C32.3935 18.3258 32.464 18.3764 32.5491 18.377C33.4031 18.3809 34.2531 18.4928 35.0786 18.7098C35.1536 18.7295 35.2282 18.7017 35.2637 18.6407L35.9313 17.494C36.0189 17.3426 36.1358 17.2099 36.2754 17.1036C36.415 16.9973 36.5745 16.9196 36.7446 16.8749C37.09 16.7831 37.4513 16.8303 37.7611 17.0078L39.8148 18.1837C40.1247 18.3611 40.3461 18.6475 40.4387 18.9904C40.5313 19.3333 40.4841 19.6914 40.3049 19.9987L39.6375 21.1452C39.602 21.2062 39.615 21.2838 39.6697 21.3387C40.272 21.9391 40.7947 22.6131 41.2252 23.3446C41.2682 23.4177 41.3477 23.453 41.4231 23.4329L42.6998 23.0937C43.4132 22.9041 44.1493 23.3256 44.3405 24.033L44.9542 26.3047C45.1454 27.0123 44.7204 27.7423 44.007 27.9319L42.7303 28.2712C42.6548 28.2912 42.6038 28.3612 42.6036 28.4455C42.5994 29.2925 42.4865 30.1354 42.2675 30.9541C42.2478 31.0287 42.2757 31.1023 42.3373 31.1379L43.4935 31.7997C44.1344 32.167 44.3542 32.9788 43.9836 33.6148L43.8581 33.8302C43.4669 34.5028 42.4402 33.9162 42.8323 33.2428C42.8952 33.114 43.0815 32.9207 42.901 32.8175L41.745 32.1554C41.2221 31.8559 40.9661 31.2381 41.1225 30.653C41.3155 29.9309 41.4151 29.1874 41.4188 28.4404C41.4213 27.8291 41.8347 27.2924 42.4239 27.1358L43.7002 26.7967C43.7828 26.7747 43.8319 26.6905 43.8098 26.6086L43.196 24.3369C43.1853 24.2977 43.1594 24.2642 43.1238 24.2439C43.0883 24.2236 43.0461 24.2181 43.0065 24.2286L41.7297 24.5679C41.1405 24.7244 40.5124 24.4647 40.2016 23.9365C39.8219 23.2913 39.361 22.6967 38.8298 22.167C38.3993 21.738 38.3096 21.076 38.6115 20.5574L39.2789 19.411C39.2893 19.3936 39.2959 19.3743 39.2986 19.3543C39.3012 19.3343 39.2998 19.3139 39.2943 19.2945C39.2868 19.2665 39.2683 19.2276 39.2223 19.2015L37.1685 18.0253C37.151 18.0151 37.1316 18.0085 37.1115 18.0058C37.0913 18.0032 37.0709 18.0045 37.0513 18.0099C37.023 18.0174 36.9836 18.036 36.9572 18.0814L36.2896 19.2281C35.9877 19.7468 35.365 20.0006 34.775 19.8455C34.0468 19.6541 33.2971 19.5554 32.5438 19.5517C31.9273 19.5493 31.3866 19.1392 31.2288 18.5551L30.8867 17.289C30.8646 17.2071 30.7793 17.1585 30.6971 17.1804L28.4065 17.7891C28.324 17.811 28.2749 17.8953 28.297 17.9771L28.6391 19.2433C28.7969 19.8274 28.5353 20.4506 28.0027 20.7588C27.3532 21.1341 26.7531 21.592 26.2184 22.1193C25.7857 22.5463 25.1185 22.6352 24.5956 22.3357L23.4394 21.6739C23.4219 21.6636 23.4024 21.657 23.3822 21.6544C23.362 21.6517 23.3415 21.6532 23.3219 21.6587C23.2939 21.6661 23.2545 21.6847 23.2278 21.7302L22.0424 23.7669C21.9996 23.8403 22.0247 23.9344 22.0991 23.9767L23.255 24.6386C23.7779 24.938 24.034 25.5558 23.8774 26.141C23.6844 26.863 23.5849 27.6065 23.5812 28.3535C23.5787 28.9649 23.1653 29.5015 22.5761 29.6581L21.2998 29.9973C21.2172 30.0192 21.1682 30.1035 21.1902 30.1851L21.8039 32.4567C21.826 32.5386 21.9111 32.5873 21.9935 32.5653L23.27 32.2261C23.8592 32.0696 24.4876 32.3293 24.7981 32.8575C25.193 33.5296 24.1692 34.1204 23.7748 33.4494C23.7319 33.3765 23.6523 33.341 23.5766 33.3611L22.3003 33.7003C21.5868 33.8899 20.8507 33.4683 20.6596 32.7609L20.0458 30.4892Z" stroke="white" stroke-width="0.2"/>
<path fill-rule="evenodd" clip-rule="evenodd" d="M32.6782 22.478C35.8054 22.478 38.3411 24.9927 38.3411 28.0943V28.2796C39.421 28.6574 39.5526 30.1604 38.5378 30.7117V31.4512C38.5378 32.1321 38.0462 32.6991 37.3968 32.8264C37.2197 34.0843 36.5723 35.2051 35.4221 36.0164V36.8015L39.5467 37.5963L39.9166 37.6682L39.9088 37.6749C40.9227 37.9159 41.83 38.3327 42.5078 38.955C43.2706 39.6554 43.732 40.6068 43.732 41.8248V46.092C43.7317 47.1456 42.8706 47.9999 41.8081 48H23.0903C22.028 47.9998 21.1667 47.1455 21.1664 46.092V41.8248C21.1664 40.603 21.6305 39.6507 22.3945 38.9511C23.1536 38.2563 24.1988 37.8189 25.3527 37.5963L29.4764 36.8015V36.0154C29.3292 35.9117 29.1854 35.8034 29.0487 35.6864C28.2044 34.9654 27.6585 33.9444 27.4997 32.8264C26.8513 32.6982 26.3616 32.1313 26.3616 31.4512V30.7117C25.3455 30.1604 25.4779 28.6558 26.5583 28.2787V28.0943C26.5583 24.9929 29.0928 22.4781 32.2202 22.478H32.6782ZM23.9289 39.382C23.4301 39.6491 23.069 39.9622 22.8251 40.3254C22.5493 40.7362 22.4131 41.2277 22.4131 41.8248V46.092C22.4134 46.4627 22.7166 46.7635 23.0903 46.7636H24.6775V44.3228C24.6775 41.8834 24.1321 40.0426 23.9289 39.382ZM27.9156 38.3621C26.4867 38.6466 25.8462 38.763 25.5063 38.8259C25.2777 38.8683 25.1919 38.8871 25.0895 38.9172C25.2861 39.5462 25.9242 41.4972 25.9242 44.3228V46.7636H31.8259V44.8488C31.8259 44.2612 31.6462 43.697 31.3053 43.2164C30.3707 41.8991 28.804 39.6425 27.9156 38.3621ZM36.9829 38.3621C36.2362 39.4446 34.1211 42.4721 33.5931 43.2164C33.2524 43.6969 33.0726 44.2612 33.0726 44.8488V46.7636H38.9742V45.3797C38.9742 45.1864 39.0495 45.0265 39.1739 44.9177C39.2945 44.8123 39.4495 44.7643 39.5976 44.7644C39.7454 44.7645 39.8999 44.8126 40.0203 44.9177C40.1446 45.0265 40.2209 45.1865 40.2209 45.3797V46.7636H41.8081C42.1821 46.7635 42.4851 46.4627 42.4853 46.092V41.8248C42.4853 41.2278 42.3492 40.7362 42.0733 40.3254C41.8294 39.9622 41.4683 39.6491 40.9695 39.382C40.7812 39.989 40.3114 41.5162 40.2317 43.7211C40.2247 43.9138 40.1433 44.0702 40.0154 44.1743C39.8913 44.2753 39.7347 44.3181 39.5868 44.3131C39.4389 44.3081 39.2857 44.2549 39.169 44.1452C39.0485 44.032 38.9789 43.8697 38.986 43.6765C39.0723 41.2868 39.6284 39.4975 39.8089 38.9172C39.7063 38.8871 39.6205 38.8683 39.3921 38.8259C39.0522 38.763 38.4114 38.6466 36.9829 38.3621ZM31.456 40.9533C31.4034 40.9845 31.3485 41.0113 31.2926 41.0358L32.3249 42.5051L32.4492 42.6934C32.4893 42.6297 32.5299 42.5665 32.5735 42.5051C32.8602 42.1008 33.222 41.5844 33.6059 41.0358C33.55 41.0113 33.495 40.9845 33.4424 40.9533L32.4492 40.3622L31.456 40.9533ZM35.2665 38.0301C35.099 38.4182 34.8147 38.7598 34.5042 39.0463C34.245 39.2853 33.9607 39.4913 33.6969 39.6615L34.0844 39.8925C34.0844 39.8925 34.0898 39.8951 34.0981 39.8974C34.1081 39.9001 34.1219 39.903 34.1392 39.9042C34.1745 39.9065 34.2199 39.9023 34.2684 39.8896C34.3648 39.8642 34.4658 39.8057 34.5384 39.7013L35.6481 38.1039L35.2665 38.0301ZM29.2493 38.1039C29.6181 38.635 29.9876 39.1658 30.3571 39.6965L30.4216 39.7722C30.4937 39.8396 30.5853 39.8828 30.6829 39.8945L30.7573 39.8993C30.775 39.8992 30.7867 39.8983 30.7955 39.8964C30.812 39.8928 30.833 39.8844 30.8806 39.8556C30.9426 39.818 31.0397 39.7507 31.1947 39.6577C30.9327 39.4883 30.6512 39.2833 30.3942 39.0463C30.0836 38.7597 29.7985 38.4184 29.631 38.0301L29.2493 38.1039ZM34.1754 36.6695C33.6227 36.8686 33.0387 36.9723 32.4492 36.9723C31.8596 36.9723 31.2758 36.8686 30.723 36.6695V37.313C30.7237 37.4444 30.7815 37.5949 30.8992 37.7613C31.0161 37.9266 31.182 38.0939 31.3748 38.2534C31.7242 38.5426 32.1415 38.7898 32.4492 38.9502C32.7574 38.7896 33.1758 38.5422 33.5256 38.2524C33.7185 38.0926 33.8845 37.9249 34.0012 37.7594C34.1186 37.5928 34.1753 37.4425 34.1754 37.311V36.6695ZM27.6083 31.4512C27.6083 31.5245 27.6288 31.5515 27.6416 31.5638C27.6598 31.5814 27.6946 31.5993 27.7531 31.6103C27.8104 31.6211 27.8742 31.6219 27.9351 31.6201C27.9691 31.619 27.9891 31.6183 28.0193 31.6171C28.0316 31.6167 28.0465 31.6159 28.0604 31.6162C28.064 31.6162 28.0694 31.6177 28.076 31.6181L28.1964 31.6298C28.3146 31.6529 28.4242 31.71 28.5115 31.7947C28.6279 31.9078 28.6958 32.0612 28.6994 32.2227C28.7209 33.2185 29.1475 34.138 29.8629 34.7489C31.4032 36.0645 33.4962 36.0643 35.0365 34.7489C35.7515 34.138 36.1775 33.2184 36.199 32.2227C36.2027 32.0612 36.2705 31.9078 36.3869 31.7947C36.4742 31.71 36.5839 31.6529 36.702 31.6298L36.8224 31.6181C36.8314 31.6177 36.8383 31.6171 36.841 31.6171C36.8532 31.6172 36.8662 31.6176 36.8772 31.6181C36.902 31.6194 36.9265 31.621 36.9565 31.622C37.0159 31.6239 37.0808 31.6224 37.1394 31.6113C37.1994 31.5999 37.2361 31.5816 37.2559 31.5628C37.2698 31.5496 37.2911 31.5226 37.2911 31.4512V30.8815H27.6083V31.4512ZM27.0192 29.4355C26.9732 29.4356 26.9529 29.4504 26.9419 29.4627C26.9276 29.4788 26.9155 29.5063 26.9155 29.5403C26.9155 29.5743 26.9276 29.6019 26.9419 29.6179C26.9528 29.6301 26.9733 29.645 27.0192 29.6451H37.8792C37.9251 29.6451 37.9455 29.6302 37.9565 29.6179C37.9708 29.6019 37.9829 29.5742 37.983 29.5403C37.983 29.5063 37.9708 29.4787 37.9565 29.4627C37.9456 29.4504 37.9254 29.4355 37.8792 29.4355H27.0192ZM33.0726 25.5943C33.0726 25.7876 32.9973 25.9474 32.8729 26.0562C32.7524 26.1617 32.5972 26.2096 32.4492 26.2096C32.3012 26.2095 32.146 26.1607 32.0255 26.0553C31.9014 25.9465 31.8259 25.7872 31.8259 25.5943V23.7329C31.5573 23.7565 31.292 23.8064 31.0323 23.8784V24.615C31.0323 24.8083 30.956 24.9682 30.8317 25.077C30.7113 25.1821 30.5567 25.2303 30.4089 25.2303C30.2609 25.2303 30.1057 25.1815 29.9852 25.076C29.861 24.9673 29.7856 24.8082 29.7856 24.615V24.4433C28.5924 25.2285 27.805 26.572 27.805 28.0943V28.1981H37.0944V28.0943C37.0944 26.5724 36.3065 25.2295 35.1138 24.4442V24.615C35.1138 24.8083 35.0376 24.9682 34.9132 25.077C34.7928 25.1821 34.6382 25.2303 34.4905 25.2303C34.3425 25.2303 34.1873 25.1815 34.0668 25.076C33.9426 24.9673 33.8671 24.8081 33.8671 24.615V23.8784C33.6071 23.8063 33.3415 23.7565 33.0726 23.7329V25.5943Z" stroke="white" stroke-width="0.2"/>
</svg>
