<svg width="48" height="48" viewBox="0 0 48 48" fill="none" xmlns="http://www.w3.org/2000/svg">
<path d="M24 20C23.0507 20 22.1226 19.7185 21.3333 19.1911C20.5439 18.6636 19.9287 17.914 19.5654 17.0369C19.2021 16.1598 19.107 15.1947 19.2922 14.2636C19.4774 13.3325 19.9346 12.4772 20.6059 11.8059C21.2772 11.1346 22.1325 10.6774 23.0636 10.4922C23.9947 10.307 24.9598 10.4021 25.8369 10.7654C26.714 11.1287 27.4636 11.7439 27.9911 12.5333C28.5185 13.3226 28.8 14.2507 28.8 15.2C28.7987 16.4727 28.2926 17.6928 27.3927 18.5927C26.4928 19.4926 25.2727 19.9987 24 20ZM24 12C23.3671 12 22.7484 12.1877 22.2222 12.5393C21.6959 12.8909 21.2858 13.3907 21.0436 13.9754C20.8014 14.5601 20.738 15.2036 20.8615 15.8243C20.985 16.445 21.2897 17.0152 21.7373 17.4627C22.1848 17.9103 22.755 18.215 23.3757 18.3385C23.9965 18.462 24.6399 18.3986 25.2246 18.1564C25.8093 17.9142 26.3091 17.5041 26.6607 16.9778C27.0123 16.4516 27.2 15.8329 27.2 15.2C27.2 14.3513 26.8629 13.5374 26.2627 12.9373C25.6626 12.3371 24.8487 12 24 12ZM20.8 44.8C20.5878 44.8 20.3843 44.7157 20.2343 44.5657C20.0843 44.4157 20 44.2122 20 44V28.8C20 28.5878 20.0843 28.3843 20.2343 28.2343C20.3843 28.0843 20.5878 28 20.8 28C21.0122 28 21.2157 28.0843 21.3657 28.2343C21.5157 28.3843 21.6 28.5878 21.6 28.8V44C21.6 44.2122 21.5157 44.4157 21.3657 44.5657C21.2157 44.7157 21.0122 44.8 20.8 44.8ZM24 44.8C23.7878 44.8 23.5843 44.7157 23.4343 44.5657C23.2843 44.4157 23.2 44.2122 23.2 44V37.6C23.2 37.3878 23.2843 37.1843 23.4343 37.0343C23.5843 36.8843 23.7878 36.8 24 36.8C24.2122 36.8 24.4157 36.8843 24.5657 37.0343C24.7157 37.1843 24.8 37.3878 24.8 37.6V44C24.8 44.2122 24.7157 44.4157 24.5657 44.5657C24.4157 44.7157 24.2122 44.8 24 44.8ZM27.2 44.8C26.9878 44.8 26.7843 44.7157 26.6343 44.5657C26.4843 44.4157 26.4 44.2122 26.4 44V28.8C26.4 28.5878 26.4843 28.3843 26.6343 28.2343C26.7843 28.0843 26.9878 28 27.2 28C27.4122 28 27.6157 28.0843 27.7657 28.2343C27.9157 28.3843 28 28.5878 28 28.8V44C28 44.2122 27.9157 44.4157 27.7657 44.5657C27.6157 44.7157 27.4122 44.8 27.2 44.8Z" fill="url(#paint0_linear_1_322)"/>
<path d="M27.2 36C26.9878 36 26.7843 35.9157 26.6343 35.7657C26.4843 35.6157 26.4 35.4122 26.4 35.2C26.4 34.9878 26.4843 34.7843 26.6343 34.6343C26.7843 34.4843 26.9878 34.4 27.2 34.4C28.64 34.4 29.6 33.7192 29.6 30.4V24.8C29.6 24.0208 29.6 22.4 24 22.4C18.4 22.4 18.4 24.0208 18.4 24.8V30.4C18.4 33.7192 19.36 34.4 20.8 34.4C21.0122 34.4 21.2157 34.4843 21.3657 34.6343C21.5157 34.7843 21.6 34.9878 21.6 35.2C21.6 35.4122 21.5157 35.6157 21.3657 35.7657C21.2157 35.9157 21.0122 36 20.8 36C16.8 36 16.8 31.7848 16.8 30.4V24.8C16.8 21.2544 20.648 20.8 24 20.8C27.352 20.8 31.2 21.2544 31.2 24.8V30.4C31.2 31.7848 31.2 36 27.2 36ZM40 8C39.2089 8 38.4355 7.76541 37.7777 7.32588C37.1199 6.88635 36.6072 6.26164 36.3045 5.53074C36.0017 4.79983 35.9225 3.99556 36.0769 3.21964C36.2312 2.44372 36.6122 1.73098 37.1716 1.17157C37.731 0.612165 38.4437 0.231202 39.2196 0.0768607C39.9956 -0.0774802 40.7998 0.00173314 41.5307 0.304484C42.2616 0.607234 42.8864 1.11992 43.3259 1.77772C43.7654 2.43552 44 3.20888 44 4C43.9987 5.06048 43.5769 6.07716 42.827 6.82703C42.0772 7.5769 41.0605 7.99873 40 8ZM40 1.6C39.5253 1.6 39.0613 1.74076 38.6666 2.00447C38.272 2.26819 37.9643 2.64302 37.7827 3.08156C37.601 3.5201 37.5535 4.00266 37.6461 4.46822C37.7387 4.93377 37.9673 5.36141 38.3029 5.69706C38.6386 6.0327 39.0662 6.26128 39.5318 6.35389C39.9973 6.44649 40.4799 6.39896 40.9184 6.21731C41.357 6.03566 41.7318 5.72805 41.9955 5.33337C42.2592 4.93869 42.4 4.47468 42.4 4C42.4 3.36348 42.1471 2.75303 41.6971 2.30295C41.247 1.85286 40.6365 1.6 40 1.6ZM37.6 28.8C37.3878 28.8 37.1843 28.7157 37.0343 28.5657C36.8843 28.4157 36.8 28.2122 36.8 28V15.2C36.8 14.9878 36.8843 14.7843 37.0343 14.6343C37.1843 14.4843 37.3878 14.4 37.6 14.4C37.8122 14.4 38.0157 14.4843 38.1657 14.6343C38.3157 14.7843 38.4 14.9878 38.4 15.2V28C38.4 28.2122 38.3157 28.4157 38.1657 28.5657C38.0157 28.7157 37.8122 28.8 37.6 28.8ZM40 28.8C39.7878 28.8 39.5843 28.7157 39.4343 28.5657C39.2843 28.4157 39.2 28.2122 39.2 28V23.2C39.2 22.9878 39.2843 22.7843 39.4343 22.6343C39.5843 22.4843 39.7878 22.4 40 22.4C40.2122 22.4 40.4157 22.4843 40.5657 22.6343C40.7157 22.7843 40.8 22.9878 40.8 23.2V28C40.8 28.2122 40.7157 28.4157 40.5657 28.5657C40.4157 28.7157 40.2122 28.8 40 28.8ZM42.4 28.8C42.1878 28.8 41.9843 28.7157 41.8343 28.5657C41.6843 28.4157 41.6 28.2122 41.6 28V15.2C41.6 14.9878 41.6843 14.7843 41.8343 14.6343C41.9843 14.4843 42.1878 14.4 42.4 14.4C42.6122 14.4 42.8157 14.4843 42.9657 14.6343C43.1157 14.7843 43.2 14.9878 43.2 15.2V28C43.2 28.2122 43.1157 28.4157 42.9657 28.5657C42.8157 28.7157 42.6122 28.8 42.4 28.8Z" fill="url(#paint1_linear_1_322)"/>
<path d="M42.4 21.6C42.1878 21.6 41.9843 21.5157 41.8343 21.3657C41.6843 21.2157 41.6 21.0122 41.6 20.8C41.6 20.5878 41.6843 20.3843 41.8343 20.2343C41.9843 20.0843 42.1878 20 42.4 20C42.8117 20.0449 43.2246 19.9269 43.5504 19.6712C44.0232 19.1912 44.0136 17.9536 44.0032 16.6408L44 12.8C44 11.2 44 10.4 40 10.4C36 10.4 36 11.2 36 12.8V16.64C35.9896 17.9528 35.98 19.1928 36.4536 19.6704C36.778 19.9258 37.1895 20.0441 37.6 20C37.8122 20 38.0157 20.0843 38.1657 20.2343C38.3157 20.3843 38.4 20.5878 38.4 20.8C38.4 21.0122 38.3157 21.2157 38.1657 21.3657C38.0157 21.5157 37.8122 21.6 37.6 21.6C37.1847 21.6295 36.7678 21.5738 36.3749 21.4362C35.982 21.2986 35.6213 21.0821 35.3152 20.8C34.372 19.848 34.3832 18.356 34.4 16.628V12.8C34.4 10.5336 34.8128 8.8 40 8.8C45.1872 8.8 45.6 10.5336 45.6 12.8V16.628C45.6136 18.356 45.6248 19.848 44.6816 20.7984C44.376 21.0804 44.016 21.297 43.6236 21.4349C43.2313 21.5727 42.8149 21.6289 42.4 21.6ZM8 8C7.20888 8 6.43552 7.76541 5.77772 7.32588C5.11992 6.88635 4.60723 6.26164 4.30448 5.53074C4.00173 4.79983 3.92252 3.99556 4.07686 3.21964C4.2312 2.44372 4.61216 1.73098 5.17158 1.17157C5.73098 0.612165 6.44372 0.231202 7.21964 0.0768607C7.99556 -0.0774802 8.79983 0.00173314 9.53074 0.304484C10.2616 0.607234 10.8864 1.11992 11.3259 1.77772C11.7654 2.43552 12 3.20888 12 4C11.9987 5.06048 11.5769 6.07716 10.827 6.82703C10.0772 7.5769 9.06048 7.99873 8 8ZM8 1.6C7.52533 1.6 7.06131 1.74076 6.66663 2.00447C6.27196 2.26819 5.96434 2.64302 5.78269 3.08156C5.60104 3.5201 5.55351 4.00266 5.64612 4.46822C5.73872 4.93377 5.9673 5.36141 6.30295 5.69706C6.63859 6.0327 7.06623 6.26128 7.53179 6.35389C7.99734 6.44649 8.4799 6.39896 8.91844 6.21731C9.35698 6.03566 9.73181 5.72805 9.99553 5.33337C10.2592 4.93869 10.4 4.47468 10.4 4C10.4 3.36348 10.1471 2.75303 9.69706 2.30295C9.24697 1.85286 8.63652 1.6 8 1.6ZM5.6 28.8C5.38783 28.8 5.18435 28.7157 5.03432 28.5657C4.88429 28.4157 4.8 28.2122 4.8 28V15.2C4.8 14.9878 4.88429 14.7843 5.03432 14.6343C5.18435 14.4843 5.38783 14.4 5.6 14.4C5.81217 14.4 6.01566 14.4843 6.16569 14.6343C6.31572 14.7843 6.4 14.9878 6.4 15.2V28C6.4 28.2122 6.31572 28.4157 6.16569 28.5657C6.01566 28.7157 5.81217 28.8 5.6 28.8ZM8 28.8C7.78783 28.8 7.58435 28.7157 7.43432 28.5657C7.28429 28.4157 7.2 28.2122 7.2 28V23.2C7.2 22.9878 7.28429 22.7843 7.43432 22.6343C7.58435 22.4843 7.78783 22.4 8 22.4C8.21218 22.4 8.41566 22.4843 8.56569 22.6343C8.71572 22.7843 8.8 22.9878 8.8 23.2V28C8.8 28.2122 8.71572 28.4157 8.56569 28.5657C8.41566 28.7157 8.21218 28.8 8 28.8ZM10.4 28.8C10.1878 28.8 9.98435 28.7157 9.83432 28.5657C9.68429 28.4157 9.6 28.2122 9.6 28V15.2C9.6 14.9878 9.68429 14.7843 9.83432 14.6343C9.98435 14.4843 10.1878 14.4 10.4 14.4C10.6122 14.4 10.8157 14.4843 10.9657 14.6343C11.1157 14.7843 11.2 14.9878 11.2 15.2V28C11.2 28.2122 11.1157 28.4157 10.9657 28.5657C10.8157 28.7157 10.6122 28.8 10.4 28.8Z" fill="url(#paint2_linear_1_322)"/>
<path d="M10.3999 21.6C10.1877 21.6 9.98423 21.5157 9.8342 21.3657C9.68417 21.2157 9.59989 21.0122 9.59989 20.8C9.59989 20.5878 9.68417 20.3843 9.8342 20.2343C9.98423 20.0843 10.1877 20 10.3999 20C10.8116 20.0449 11.2245 19.9269 11.5503 19.6712C12.0231 19.1912 12.0135 17.9536 12.0031 16.6408L11.9999 12.8C11.9999 11.2 11.9999 10.4 7.99989 10.4C3.99989 10.4 3.99989 11.2 3.99989 12.8V16.64C3.98949 17.9528 3.97989 19.1928 4.45349 19.6704C4.77792 19.9258 5.18938 20.0441 5.59989 20C5.81206 20 6.01555 20.0843 6.16558 20.2343C6.3156 20.3843 6.39989 20.5878 6.39989 20.8C6.39989 21.0122 6.3156 21.2157 6.16558 21.3657C6.01555 21.5157 5.81206 21.6 5.59989 21.6C5.18462 21.6295 4.7677 21.5738 4.37478 21.4362C3.98185 21.2986 3.62123 21.0821 3.31509 20.8C2.37189 19.848 2.38309 18.356 2.39989 16.628V12.8C2.39989 10.5336 2.81269 8.8 7.99989 8.8C13.1871 8.8 13.5999 10.5336 13.5999 12.8V16.628C13.6135 18.356 13.6247 19.848 12.6815 20.7984C12.3759 21.0804 12.0159 21.297 11.6235 21.4349C11.2311 21.5727 10.8147 21.6289 10.3999 21.6ZM23.9999 48C18.9911 48 13.5999 46.7488 13.5999 44C13.5999 42.0968 16.3879 40.5296 20.7039 40.0056C20.9146 39.9801 21.1268 40.0394 21.2937 40.1704C21.4607 40.3014 21.5688 40.4933 21.5943 40.704C21.6198 40.9147 21.5605 41.1269 21.4295 41.2938C21.2985 41.4608 21.1066 41.5689 20.8959 41.5944C17.1799 42.0456 15.1999 43.28 15.1999 44C15.1999 44.8376 18.2223 46.4 23.9999 46.4C29.7775 46.4 32.7999 44.8376 32.7999 44C32.7999 43.28 30.8199 42.0456 27.1039 41.5944C26.8932 41.5689 26.7013 41.4608 26.5703 41.2938C26.4393 41.1269 26.38 40.9147 26.4055 40.704C26.431 40.4933 26.5391 40.3014 26.706 40.1704C26.873 40.0394 27.0852 39.9801 27.2959 40.0056C31.6119 40.5296 34.3999 42.0968 34.3999 44C34.3999 46.7488 29.0087 48 23.9999 48Z" fill="url(#paint3_linear_1_322)"/>
<path d="M28.7999 41.6C28.6417 41.6 28.4871 41.553 28.3556 41.4651C28.224 41.3772 28.1215 41.2523 28.061 41.1061C28.0005 40.96 27.9846 40.7991 28.0155 40.644C28.0463 40.4888 28.1225 40.3463 28.2343 40.2344L38.6343 29.8344C38.7852 29.6887 38.9873 29.608 39.1971 29.6099C39.4068 29.6117 39.6075 29.6958 39.7558 29.8441C39.9041 29.9925 39.9883 30.1931 39.9901 30.4029C39.9919 30.6126 39.9113 30.8147 39.7655 30.9656L29.3655 41.3656C29.2155 41.5156 29.0121 41.6 28.7999 41.6ZM18.3999 41.6C18.1878 41.6 17.9843 41.5156 17.8343 41.3656L7.43433 30.9656C7.28861 30.8147 7.20797 30.6126 7.2098 30.4029C7.21162 30.1931 7.29575 29.9925 7.44408 29.8441C7.59241 29.6958 7.79306 29.6117 8.00281 29.6099C8.21257 29.608 8.41465 29.6887 8.56553 29.8344L18.9655 40.2344C19.0774 40.3463 19.1535 40.4888 19.1844 40.644C19.2153 40.7991 19.1994 40.96 19.1389 41.1061C19.0783 41.2523 18.9758 41.3772 18.8443 41.4651C18.7128 41.553 18.5581 41.6 18.3999 41.6Z" fill="url(#paint4_linear_1_322)"/>
<path d="M40 31.2C36.0176 31.2 32 30.2104 32 28C32 26.1368 34.8432 25.128 37.504 24.8056C37.6083 24.793 37.7141 24.8011 37.8153 24.8293C37.9165 24.8576 38.0112 24.9055 38.0938 24.9704C38.1765 25.0352 38.2456 25.1157 38.2972 25.2073C38.3488 25.2989 38.3818 25.3997 38.3944 25.504C38.407 25.6083 38.3989 25.7141 38.3707 25.8153C38.3424 25.9165 38.2945 26.0112 38.2296 26.0938C38.1648 26.1765 38.0843 26.2456 37.9927 26.2972C37.9011 26.3488 37.8003 26.3818 37.696 26.3944C34.8184 26.7432 33.6 27.68 33.6 28C33.6 28.464 35.84 29.6 40 29.6C44.16 29.6 46.4 28.464 46.4 28C46.4 27.68 45.1816 26.7432 42.304 26.3944C42.1997 26.3818 42.0989 26.3488 42.0073 26.2972C41.9157 26.2456 41.8352 26.1765 41.7704 26.0938C41.7055 26.0112 41.6576 25.9165 41.6293 25.8153C41.6011 25.7141 41.593 25.6083 41.6056 25.504C41.6182 25.3997 41.6512 25.2989 41.7028 25.2073C41.7544 25.1157 41.8235 25.0352 41.9062 24.9704C41.9888 24.9055 42.0835 24.8576 42.1847 24.8293C42.2859 24.8011 42.3917 24.793 42.496 24.8056C45.1568 25.128 48 26.1368 48 28C48 30.2104 43.9824 31.2 40 31.2ZM8 31.2C4.0176 31.2 0 30.2104 0 28C0 26.1368 2.8432 25.128 5.504 24.8056C5.60832 24.793 5.71411 24.8011 5.81531 24.8293C5.91652 24.8576 6.01116 24.9055 6.09384 24.9704C6.17652 25.0352 6.24562 25.1157 6.29719 25.2073C6.34876 25.2989 6.38179 25.3997 6.3944 25.504C6.40701 25.6083 6.39894 25.7141 6.37067 25.8153C6.34239 25.9165 6.29446 26.0112 6.22961 26.0938C6.16476 26.1765 6.08425 26.2456 5.9927 26.2972C5.90114 26.3488 5.80032 26.3818 5.696 26.3944C2.8184 26.7432 1.6 27.68 1.6 28C1.6 28.464 3.84 29.6 8 29.6C12.16 29.6 14.4 28.464 14.4 28C14.4 27.68 13.1816 26.7432 10.304 26.3944C10.1997 26.3818 10.0989 26.3488 10.0073 26.2972C9.91575 26.2456 9.83524 26.1765 9.77039 26.0938C9.63942 25.9269 9.58014 25.7147 9.6056 25.504C9.61821 25.3997 9.65124 25.2989 9.70281 25.2073C9.75438 25.1157 9.82348 25.0352 9.90616 24.9704C10.0731 24.8394 10.2853 24.7801 10.496 24.8056C13.1568 25.128 16 26.1368 16 28C16 30.2104 11.9824 31.2 8 31.2Z" fill="url(#paint5_linear_1_322)"/>
<defs>
<linearGradient id="paint0_linear_1_322" x1="7.4303" y1="5.99666" x2="40.4107" y2="38.6887" gradientUnits="userSpaceOnUse">
<stop stop-color="#FE5B52"/>
<stop offset="1" stop-color="#3E96F4"/>
</linearGradient>
<linearGradient id="paint1_linear_1_322" x1="7.4303" y1="5.99666" x2="40.4107" y2="38.6887" gradientUnits="userSpaceOnUse">
<stop stop-color="#FE5B52"/>
<stop offset="1" stop-color="#3E96F4"/>
</linearGradient>
<linearGradient id="paint2_linear_1_322" x1="7.4303" y1="5.99666" x2="40.4107" y2="38.6887" gradientUnits="userSpaceOnUse">
<stop stop-color="#FE5B52"/>
<stop offset="1" stop-color="#3E96F4"/>
</linearGradient>
<linearGradient id="paint3_linear_1_322" x1="7.4303" y1="5.99666" x2="40.4107" y2="38.6887" gradientUnits="userSpaceOnUse">
<stop stop-color="#FE5B52"/>
<stop offset="1" stop-color="#3E96F4"/>
</linearGradient>
<linearGradient id="paint4_linear_1_322" x1="7.4303" y1="5.99666" x2="40.4107" y2="38.6887" gradientUnits="userSpaceOnUse">
<stop stop-color="#FE5B52"/>
<stop offset="1" stop-color="#3E96F4"/>
</linearGradient>
<linearGradient id="paint5_linear_1_322" x1="7.4303" y1="5.99666" x2="40.4107" y2="38.6887" gradientUnits="userSpaceOnUse">
<stop stop-color="#FE5B52"/>
<stop offset="1" stop-color="#3E96F4"/>
</linearGradient>
</defs>
</svg>
