<svg width="62" height="62" viewBox="0 0 62 62" fill="none" xmlns="http://www.w3.org/2000/svg">
<rect x="1" y="1.19678" width="59.8033" height="59.8033" rx="4" stroke="#C4CED7"/>
<path d="M22.4718 13.2861C22.4718 14.1748 22.1505 14.8721 21.5079 15.3779C20.8653 15.8838 19.9789 16.1367 18.8487 16.1367C17.7185 16.1367 16.7934 15.9613 16.0733 15.6104V14.0654C16.529 14.2796 17.0121 14.4482 17.5225 14.5713C18.0375 14.6943 18.516 14.7559 18.9581 14.7559C19.6052 14.7559 20.0815 14.6328 20.3868 14.3867C20.6967 14.1406 20.8516 13.8102 20.8516 13.3955C20.8516 13.0218 20.7104 12.7051 20.4278 12.4453C20.1453 12.1855 19.5619 11.8779 18.6778 11.5225C17.7664 11.1533 17.1238 10.7318 16.7501 10.2578C16.3764 9.78385 16.1895 9.21419 16.1895 8.54883C16.1895 7.71484 16.4858 7.05859 17.0782 6.58008C17.6707 6.10156 18.4659 5.8623 19.4639 5.8623C20.421 5.8623 21.3735 6.07194 22.3214 6.49121L21.8018 7.82422C20.9132 7.45052 20.1202 7.26367 19.4229 7.26367C18.8943 7.26367 18.4932 7.37988 18.2198 7.6123C17.9464 7.84017 17.8096 8.14323 17.8096 8.52148C17.8096 8.78125 17.8643 9.00456 17.9737 9.19141C18.0831 9.3737 18.2631 9.54688 18.5138 9.71094C18.7644 9.875 19.2156 10.0915 19.8673 10.3604C20.601 10.6657 21.1388 10.9505 21.4805 11.2148C21.8223 11.4792 22.073 11.7777 22.2325 12.1104C22.392 12.443 22.4718 12.835 22.4718 13.2861ZM27.5785 16H25.9447V7.40723H23.0052V6.00586H30.5179V7.40723H27.5785V16ZM37.4293 16H31.776V6.00586H37.4293V7.38672H33.4098V10.1074H37.1764V11.4746H33.4098V14.6123H37.4293V16ZM45.9335 9.02734C45.9335 10.071 45.5917 10.8708 44.9081 11.4268C44.2245 11.9827 43.2516 12.2607 41.9892 12.2607H40.9501V16H39.3163V6.00586H42.1943C43.443 6.00586 44.3772 6.26107 44.997 6.77148C45.6213 7.2819 45.9335 8.03385 45.9335 9.02734ZM40.9501 10.8867H41.8183C42.6568 10.8867 43.2721 10.7409 43.664 10.4492C44.0559 10.1576 44.2519 9.70182 44.2519 9.08203C44.2519 8.50781 44.0764 8.07943 43.7255 7.79688C43.3746 7.51432 42.8277 7.37305 42.0849 7.37305H40.9501V10.8867Z" fill="#4D5F66"/>
<path d="M39.625 48.2656H36.875V53H32.1562V48.2656H22.4062V44.9062L32.4219 30.1562H36.875V44.5156H39.625V48.2656ZM32.1562 44.5156V40.6406C32.1562 39.9948 32.1823 39.0573 32.2344 37.8281C32.2865 36.599 32.3281 35.8854 32.3594 35.6875H32.2344C31.849 36.5417 31.3854 37.375 30.8438 38.1875L26.6562 44.5156H32.1562Z" fill="#3E96F4"/>
<path d="M1 21H60.8033" stroke="#C4CED7"/>
</svg>
