<svg width="62" height="62" viewBox="0 0 62 62" fill="none" xmlns="http://www.w3.org/2000/svg">
<rect x="1" y="1.19678" width="59.8033" height="59.8033" rx="4" stroke="#C4CED7"/>
<path d="M22.4718 13.2861C22.4718 14.1748 22.1505 14.8721 21.5079 15.3779C20.8653 15.8838 19.9789 16.1367 18.8487 16.1367C17.7185 16.1367 16.7934 15.9613 16.0733 15.6104V14.0654C16.529 14.2796 17.0121 14.4482 17.5225 14.5713C18.0375 14.6943 18.516 14.7559 18.9581 14.7559C19.6052 14.7559 20.0815 14.6328 20.3868 14.3867C20.6967 14.1406 20.8516 13.8102 20.8516 13.3955C20.8516 13.0218 20.7104 12.7051 20.4278 12.4453C20.1453 12.1855 19.5619 11.8779 18.6778 11.5225C17.7664 11.1533 17.1238 10.7318 16.7501 10.2578C16.3764 9.78385 16.1895 9.21419 16.1895 8.54883C16.1895 7.71484 16.4858 7.05859 17.0782 6.58008C17.6707 6.10156 18.4659 5.8623 19.4639 5.8623C20.421 5.8623 21.3735 6.07194 22.3214 6.49121L21.8018 7.82422C20.9132 7.45052 20.1202 7.26367 19.4229 7.26367C18.8943 7.26367 18.4932 7.37988 18.2198 7.6123C17.9464 7.84017 17.8096 8.14323 17.8096 8.52148C17.8096 8.78125 17.8643 9.00456 17.9737 9.19141C18.0831 9.3737 18.2631 9.54688 18.5138 9.71094C18.7644 9.875 19.2156 10.0915 19.8673 10.3604C20.601 10.6657 21.1388 10.9505 21.4805 11.2148C21.8223 11.4792 22.073 11.7777 22.2325 12.1104C22.392 12.443 22.4718 12.835 22.4718 13.2861ZM27.5785 16H25.9447V7.40723H23.0052V6.00586H30.5179V7.40723H27.5785V16ZM37.4293 16H31.776V6.00586H37.4293V7.38672H33.4098V10.1074H37.1764V11.4746H33.4098V14.6123H37.4293V16ZM45.9335 9.02734C45.9335 10.071 45.5917 10.8708 44.9081 11.4268C44.2245 11.9827 43.2516 12.2607 41.9892 12.2607H40.9501V16H39.3163V6.00586H42.1943C43.443 6.00586 44.3772 6.26107 44.997 6.77148C45.6213 7.2819 45.9335 8.03385 45.9335 9.02734ZM40.9501 10.8867H41.8183C42.6568 10.8867 43.2721 10.7409 43.664 10.4492C44.0559 10.1576 44.2519 9.70182 44.2519 9.08203C44.2519 8.50781 44.0764 8.07943 43.7255 7.79688C43.3746 7.51432 42.8277 7.37305 42.0849 7.37305H40.9501V10.8867Z" fill="#4D5F66"/>
<path d="M31.4531 38.4062C33.6615 38.4062 35.4167 39.026 36.7188 40.2656C38.0312 41.5052 38.6875 43.2031 38.6875 45.3594C38.6875 47.9115 37.901 49.875 36.3281 51.25C34.7552 52.625 32.5052 53.3125 29.5781 53.3125C27.0365 53.3125 24.9844 52.901 23.4219 52.0781V47.9062C24.2448 48.3438 25.2031 48.7031 26.2969 48.9844C27.3906 49.2552 28.4271 49.3906 29.4062 49.3906C32.3542 49.3906 33.8281 48.1823 33.8281 45.7656C33.8281 43.4635 32.3021 42.3125 29.25 42.3125C28.6979 42.3125 28.0885 42.3698 27.4219 42.4844C26.7552 42.5885 26.2135 42.7031 25.7969 42.8281L23.875 41.7969L24.7344 30.1562H37.125V34.25H28.9688L28.5469 38.7344L29.0938 38.625C29.7292 38.4792 30.5156 38.4062 31.4531 38.4062Z" fill="#3E96F4"/>
<path d="M1 21H60.8033" stroke="#C4CED7"/>
</svg>
