<svg width="43" height="43" viewBox="0 0 43 43" fill="none" xmlns="http://www.w3.org/2000/svg">
<path fill-rule="evenodd" clip-rule="evenodd" d="M36.2727 6.22738C27.9703 -2.07512 14.531 -2.07646 6.22734 6.22737C-2.07515 14.5297 -2.07641 27.969 6.22734 36.2726C14.5297 44.5751 27.969 44.5765 36.2727 36.2726C44.5752 27.9703 44.5764 14.531 36.2727 6.22738ZM6.26238 19.7649H3.03603C3.75472 10.8704 10.8703 3.75459 19.765 3.0359V9.14979H21.8675C22.751 9.14979 23.47 9.86894 23.47 10.7523C23.47 11.6357 22.751 12.3548 21.8675 12.3548H19.765V19.7649H15.2424C14.8359 17.657 12.9776 16.0599 10.7524 16.0599C8.52717 16.0599 6.66894 17.657 6.26238 19.7649ZM22.7351 6.26233V3.0359C31.6298 3.75459 38.7454 10.8704 39.4642 19.7649H33.3503V21.8675C33.3503 22.7508 32.6312 23.47 31.7477 23.47C30.8643 23.47 30.1452 22.7508 30.1452 21.8675V19.7649H22.7351V15.2423C24.8431 14.8358 26.4402 12.9775 26.4402 10.7523C26.4402 8.52712 24.8431 6.66889 22.7351 6.26233ZM9.14992 20.6325C9.14992 19.7491 9.869 19.0299 10.7524 19.0299C11.6359 19.0299 12.355 19.7491 12.355 20.6325V22.735H19.7651V27.2576C17.6571 27.6641 16.06 29.5224 16.06 31.7476C16.06 33.9728 17.6571 35.831 19.7651 36.2376V39.464C10.8703 38.7454 3.75472 31.6296 3.03603 22.735H9.14992V20.6325ZM22.735 30.1452V22.7351H27.2577C27.6642 24.843 29.5225 26.4401 31.7477 26.4401C33.9729 26.4401 35.8311 24.843 36.2376 22.7351H39.4641C38.7454 31.6296 31.6298 38.7454 22.735 39.4641V33.3502H20.6325C19.7491 33.3502 19.03 32.6311 19.03 31.7477C19.03 30.8643 19.7491 30.1452 20.6325 30.1452H22.735Z" fill="url(#paint0_linear_1_742)"/>
<defs>
<linearGradient id="paint0_linear_1_742" x1="7.71143" y1="8.30078" x2="35.9327" y2="36.7982" gradientUnits="userSpaceOnUse">
<stop stop-color="#3E96F4"/>
<stop offset="1" stop-color="#FE5B52"/>
</linearGradient>
</defs>
</svg>
