<svg width="64" height="64" viewBox="0 0 64 64" fill="none" xmlns="http://www.w3.org/2000/svg">
<rect width="64" height="64" rx="8" fill="#3E96F4"/>
<path d="M19.5051 40.4815C19.55 40.549 19.5758 40.6275 19.5799 40.7085C19.5839 40.7895 19.566 40.8701 19.528 40.9418C19.49 41.0135 19.4334 41.0736 19.3641 41.1158C19.2948 41.1579 19.2153 41.1806 19.1342 41.1813C18.9907 41.1813 18.8471 41.1155 18.7634 40.9839C16.9583 38.3338 15.9951 35.2005 16 31.994C16 28.1062 17.3817 24.4336 19.9118 21.5267L17.0826 21.7301C16.8374 21.748 16.6221 21.5626 16.6041 21.3174C16.5862 21.0721 16.7716 20.8568 17.0168 20.8389L20.9705 20.5518C21.0901 20.5398 21.2038 20.5817 21.2935 20.6594C21.3832 20.7372 21.437 20.8449 21.449 20.9645L21.7361 24.9181C21.754 25.1634 21.5686 25.3787 21.3234 25.3966H21.2875C21.0542 25.3966 20.8568 25.2172 20.8389 24.9779L20.6296 22.0531C18.2164 24.7969 16.889 28.328 16.8972 31.9821C16.8972 35.0265 17.8004 37.9634 19.5051 40.4695V40.4815ZM40.4875 44.489C37.9813 46.1936 35.0445 47.0968 32 47.0968C28.3096 47.0968 24.8224 45.775 22.071 43.3645L24.9959 43.1492C25.2411 43.1312 25.4266 42.9159 25.4086 42.6707C25.3907 42.4254 25.1694 42.24 24.9301 42.2579L20.9765 42.545C20.7312 42.563 20.5458 42.7783 20.5638 43.0236L20.8509 46.9772C20.8688 47.2164 21.0662 47.3959 21.2995 47.3959H21.3353C21.5806 47.3779 21.766 47.1626 21.7481 46.9174L21.5447 44.0882C24.4516 46.6123 28.1241 48 32.012 48C35.2359 48 38.3462 47.043 41.0019 45.2366C41.2053 45.0991 41.2591 44.8179 41.1215 44.6146C40.9839 44.4112 40.7028 44.3574 40.4995 44.495L40.4875 44.489ZM23.5125 19.4991C26.0187 17.7944 28.9555 16.8912 32 16.8912C35.6905 16.8912 39.1776 18.2131 41.929 20.6236L39.0101 20.8329C38.7649 20.8508 38.5795 21.0662 38.5974 21.3114C38.6153 21.5507 38.8127 21.7301 39.046 21.7301H39.0819L43.0355 21.443C43.2808 21.425 43.4662 21.2097 43.4482 20.9645L43.1611 17.0108C43.1432 16.7656 42.9279 16.5802 42.6826 16.5981C42.4374 16.6161 42.252 16.8314 42.2699 17.0766L42.4733 19.9058C39.5664 17.3817 35.8938 16 32.006 16C28.7821 16 25.6718 16.957 23.0161 18.7634C22.8127 18.9009 22.7589 19.1821 22.8965 19.3854C23.034 19.5888 23.3152 19.6426 23.5185 19.505L23.5125 19.4991ZM46.9174 42.2579L44.0882 42.4613C46.6124 39.5544 47.994 35.8819 47.994 31.994C47.994 28.7701 47.037 25.6598 45.2307 23.0041C45.0931 22.8007 44.812 22.7469 44.6086 22.8845C44.4053 23.0221 44.3514 23.3032 44.489 23.5065C46.1937 26.0127 47.0968 28.9495 47.0968 31.994C47.0968 35.6845 45.775 39.1716 43.3645 41.923L43.1552 38.9981C43.1512 38.9395 43.1357 38.8822 43.1094 38.8296C43.0832 38.777 43.0467 38.7301 43.0022 38.6917C42.9577 38.6533 42.906 38.6241 42.8501 38.6059C42.7942 38.5877 42.7353 38.5807 42.6767 38.5854C42.4314 38.6034 42.246 38.8187 42.2639 39.0639L42.551 43.0176C42.557 43.1372 42.6168 43.2449 42.7066 43.3226C42.7903 43.3944 42.892 43.4303 42.9996 43.4303H43.0295L46.9832 43.1432C47.2284 43.1252 47.4139 42.9099 47.3959 42.6647C47.378 42.4194 47.1567 42.228 46.9174 42.252V42.2579ZM39.997 27.1193C40.1346 27.197 40.2243 27.3465 40.2243 27.508V36.486C40.2243 36.6475 40.1406 36.797 39.997 36.8748L32.2213 41.3667C32.1495 41.4086 32.0718 41.4265 31.994 41.4265C31.9163 41.4265 31.8385 41.4086 31.7667 41.3667L23.991 36.8748C23.9223 36.8357 23.8651 36.7791 23.8252 36.7109C23.7853 36.6426 23.7641 36.565 23.7638 36.486V27.508C23.7638 27.3465 23.8475 27.197 23.991 27.1193L31.7667 22.6273C31.8353 22.5891 31.9125 22.569 31.991 22.569C32.0696 22.569 32.1468 22.5891 32.2153 22.6273L39.991 27.1193H39.997ZM29.0034 25.265L35.8879 29.2426L38.8845 27.514L32 23.5364L29.0094 25.265H29.0034ZM31.994 31.4856L34.9907 29.757L28.1062 25.7794L25.1096 27.508L31.994 31.4796V31.4856ZM24.6669 36.2288L31.5454 40.2004V32.2632L24.6669 28.2976V36.2288ZM39.3211 36.2288V28.2976L36.3305 30.0202V32.1495C36.3305 32.3948 36.1271 32.5981 35.8819 32.5981C35.6367 32.5981 35.4333 32.3948 35.4333 32.1495V30.5406L32.4426 32.2632V40.2004L39.3211 36.2288ZM29.8228 36.4441L27.4303 35.0684C27.3271 35.01 27.205 34.9949 27.0907 35.0263C26.9764 35.0577 26.8791 35.133 26.8202 35.2359C26.7905 35.2868 26.7713 35.3431 26.7636 35.4015C26.756 35.46 26.7601 35.5193 26.7757 35.5761C26.7913 35.633 26.818 35.6861 26.8545 35.7324C26.8909 35.7788 26.9362 35.8174 26.9877 35.846L29.3802 37.2217C29.452 37.2636 29.5297 37.2815 29.6015 37.2815C29.757 37.2815 29.9066 37.2037 29.9903 37.0542C30.02 37.0033 30.0392 36.947 30.0469 36.8886C30.0545 36.8301 30.0504 36.7708 30.0348 36.7139C30.0192 36.6571 29.9925 36.604 29.956 36.5576C29.9196 36.5113 29.8743 36.4727 29.8228 36.4441Z" fill="white" stroke="white" stroke-width="0.8"/>
</svg>
