<svg width="72" height="72" viewBox="0 0 72 72" fill="none" xmlns="http://www.w3.org/2000/svg">
<circle cx="36" cy="36" r="35.1" fill="url(#paint0_radial_1_2103)" stroke="#C3D8EF" stroke-width="1.8"/>
<path d="M42.5 32.5V25.5C42.5 23.2909 40.7091 21.5 38.5 21.5H31.5H26.1569C25.096 21.5 24.0786 21.9214 23.3284 22.6716L21.6716 24.3284C20.9214 25.0786 20.5 26.096 20.5 27.1569V35.5V45.5C20.5 47.7091 22.2909 49.5 24.5 49.5H34.5" stroke="black"/>
<circle cx="41.5" cy="42.5" r="10" stroke="black"/>
<path d="M26 22V26C26 26.5523 25.5523 27 25 27H21" stroke="black" stroke-linecap="round" stroke-linejoin="round"/>
<path d="M25.5 30H36.5" stroke="black" stroke-linecap="round" stroke-linejoin="round"/>
<path d="M25.5 33H33.5" stroke="black" stroke-linecap="round" stroke-linejoin="round"/>
<path d="M25.5 36H31.5" stroke="black" stroke-linecap="round" stroke-linejoin="round"/>
<path d="M40.2796 38.856H46.2711L44.9872 43.1356H39.4237L37.2839 38H36" stroke="black" stroke-linecap="round" stroke-linejoin="round"/>
<circle cx="44.9716" cy="46.5593" r="1.52843" stroke="black" stroke-linecap="round" stroke-linejoin="round"/>
<circle cx="39.8768" cy="46.5593" r="1.52843" stroke="black" stroke-linecap="round" stroke-linejoin="round"/>
<defs>
<radialGradient id="paint0_radial_1_2103" cx="0" cy="0" r="1" gradientUnits="userSpaceOnUse" gradientTransform="translate(36 36) rotate(90) scale(36)">
<stop offset="0.591346" stop-color="#3E96F4" stop-opacity="0"/>
<stop offset="0.822115" stop-color="#3E96F4" stop-opacity="0.1"/>
<stop offset="1" stop-color="#3E96F4" stop-opacity="0.3"/>
</radialGradient>
</defs>
</svg>
