<svg width="64" height="64" viewBox="0 0 64 64" fill="none" xmlns="http://www.w3.org/2000/svg">
<rect width="64" height="64" rx="8" fill="#3E96F4"/>
<path fill-rule="evenodd" clip-rule="evenodd" d="M37.3702 45.9809C35.8056 46.5853 34.1508 46.9232 32.4744 46.9805V45.9809C32.4744 45.8484 32.4217 45.7213 32.3279 45.6276C32.2342 45.5339 32.107 45.4812 31.9743 45.4812C31.8417 45.4812 31.7145 45.5339 31.6207 45.6276C31.5269 45.7213 31.4742 45.8484 31.4742 45.9809V46.9805C27.6677 46.8557 24.0511 45.2886 21.358 42.5972C18.6649 39.9058 17.0968 36.2915 16.9719 32.4873H17.9721C18.1047 32.4873 18.2319 32.4346 18.3257 32.3409C18.4195 32.2472 18.4722 32.12 18.4722 31.9875C18.4722 31.855 18.4195 31.7279 18.3257 31.6341C18.2319 31.5404 18.1047 31.4877 17.9721 31.4877H16.9719C17.0968 27.6836 18.6649 24.0692 21.358 21.3778C24.0511 18.6864 27.6677 17.1194 31.4742 16.9945V17.9941C31.4742 18.1266 31.5269 18.2537 31.6207 18.3475C31.7145 18.4412 31.8417 18.4938 31.9743 18.4938C32.107 18.4938 32.2342 18.4412 32.3279 18.3475C32.4217 18.2537 32.4744 18.1266 32.4744 17.9941V16.9945C36.2841 17.1099 39.9061 18.6739 42.6012 21.3673C45.2963 24.0607 46.8613 27.6805 46.9767 31.4877H45.9766C45.8439 31.4877 45.7168 31.5404 45.623 31.6341C45.5292 31.7279 45.4765 31.855 45.4765 31.9875C45.4765 32.12 45.5292 32.2472 45.623 32.3409C45.7168 32.4346 45.8439 32.4873 45.9766 32.4873H46.9767C46.9421 33.686 46.7607 34.876 46.4366 36.0306C46.4132 36.0952 46.4033 36.164 46.4076 36.2326C46.4119 36.3012 46.4303 36.3683 46.4617 36.4294C46.4932 36.4906 46.5369 36.5446 46.5902 36.5881C46.6434 36.6316 46.7051 36.6637 46.7713 36.6824C46.8375 36.7009 46.9069 36.7057 46.975 36.6963C47.0432 36.6869 47.1087 36.6636 47.1674 36.6277C47.2261 36.5919 47.2768 36.5443 47.3162 36.488C47.3557 36.4317 47.3831 36.3679 47.3968 36.3005C47.7768 34.9248 47.9718 33.5046 47.9769 32.0775C47.9793 32.0475 47.9793 32.0174 47.9769 31.9875C47.9821 31.9544 47.9821 31.9207 47.9769 31.8876C47.9689 27.6694 46.286 23.6269 43.2977 20.648C40.3094 17.6691 36.2602 15.9973 32.0393 16H31.9943H31.9544C30.0013 15.9998 28.065 16.3607 26.2434 17.0645C23.2367 18.2239 20.6504 20.2636 18.823 22.9165C16.9956 25.5694 16.0123 28.7118 16.0018 31.9325C15.9994 31.9508 15.9994 31.9693 16.0018 31.9875C15.9994 32.0024 15.9994 32.0176 16.0018 32.0325C15.9916 33.9899 16.3461 35.932 17.0469 37.7598C18.2076 40.7687 20.2512 43.3566 22.9098 45.1841C25.5683 47.0116 28.7176 47.9931 31.9443 48H31.9943C33.9558 47.999 35.9003 47.6364 37.7302 46.9305C37.8443 46.8764 37.9336 46.7812 37.9802 46.664C38.0269 46.5468 38.0276 46.4163 37.982 46.2987C37.9365 46.1811 37.8481 46.085 37.7346 46.0298C37.6211 45.9746 37.491 45.9643 37.3702 46.0009V45.9809ZM48.8571 38.0597C48.8106 38.0128 48.7553 37.9757 48.6943 37.9503C48.6334 37.9249 48.568 37.9118 48.502 37.9118C48.436 37.9118 48.3706 37.9249 48.3096 37.9503C48.2487 37.9757 48.1934 38.0128 48.147 38.0597L41.5058 44.6965L38.1253 41.3181C38.0316 41.2251 37.9049 41.1729 37.7728 41.1729C37.6407 41.1729 37.5139 41.2251 37.4202 41.3181C37.3733 41.3646 37.3361 41.4199 37.3107 41.4808C37.2854 41.5417 37.2723 41.607 37.2723 41.673C37.2723 41.739 37.2854 41.8043 37.3107 41.8652C37.3361 41.9261 37.3733 41.9814 37.4202 42.0278L41.5058 46.1109L48.8571 38.7593C48.9487 38.6659 49 38.5403 49 38.4095C49 38.2787 48.9487 38.1531 48.8571 38.0597ZM31.7957 21.9988C31.8896 21.9051 32.0167 21.8524 32.1493 21.8524C32.2151 21.8497 32.2806 21.86 32.3423 21.8827C32.404 21.9054 32.4606 21.94 32.509 21.9845C32.5573 22.0291 32.5963 22.0827 32.6238 22.1424C32.6514 22.202 32.6669 22.2666 32.6695 22.3322V30.8282C32.8469 30.9295 32.999 31.0695 33.1143 31.238C33.2297 31.4065 33.3053 31.5989 33.3354 31.8009C33.3656 32.0028 33.3495 32.209 33.2884 32.4038C33.2273 32.5985 33.1227 32.7769 32.9826 32.9255C32.8426 33.074 32.6705 33.1889 32.4796 33.2615C32.2886 33.334 32.0837 33.3622 31.8802 33.3441C31.6767 33.326 31.48 33.262 31.3049 33.1569C31.1298 33.0518 30.9808 32.9083 30.8691 32.7373H26.8685C26.7359 32.7373 26.6087 32.6847 26.5149 32.5909C26.4211 32.4972 26.3684 32.3701 26.3684 32.2375C26.3684 32.105 26.4211 31.9779 26.5149 31.8842C26.6087 31.7904 26.7359 31.7378 26.8685 31.7378H30.6491C30.6987 31.4859 30.8191 31.2534 30.9963 31.0674C31.1734 30.8816 31.3999 30.75 31.6493 30.6883V22.3522C31.6493 22.2196 31.702 22.0925 31.7957 21.9988Z" fill="white" stroke="white"/>
</svg>
