<svg width="48" height="48" viewBox="0 0 48 48" fill="none" xmlns="http://www.w3.org/2000/svg">
<g clip-path="url(#clip0_2658_1027)">
<path fill-rule="evenodd" clip-rule="evenodd" d="M2.18718 26.4124C2.32418 26.3872 2.46539 26.4012 2.59566 26.4517C2.72584 26.5023 2.84096 26.5882 2.92797 26.7003L6.02423 30.6998C6.10852 30.8087 6.16417 30.9387 6.18494 31.0765C6.2057 31.2142 6.19133 31.3555 6.14309 31.4858C6.09484 31.616 6.01401 31.7307 5.90955 31.8189C5.80501 31.9072 5.67944 31.966 5.54627 31.9888L3.86714 32.2785C7.13187 40.7456 15.141 46.4002 24 46.4004C33.0532 46.4004 41.2329 40.5026 44.3537 31.7252L45.8069 32.2759C42.4638 41.6808 33.6998 48 24 48C14.3962 47.9999 5.71755 41.7999 2.30185 32.548L0.902298 32.7891C0.770547 32.8119 0.63528 32.7986 0.50972 32.7514C0.384186 32.7042 0.27258 32.6245 0.18578 32.5195C0.0989777 32.4146 0.0397427 32.2884 0.0141841 32.1529C-0.0113772 32.0174 -0.00219173 31.877 0.0401327 31.7461L1.58784 26.9464C1.63209 26.8101 1.7118 26.6888 1.8172 26.5949C1.92257 26.501 2.05018 26.4376 2.18718 26.4124ZM1.91597 30.9927L3.99019 30.6353L2.60738 28.8482L1.91597 30.9927Z" fill="url(#paint0_linear_2658_1027)"/>
<path fill-rule="evenodd" clip-rule="evenodd" d="M2.18718 26.4124C2.32418 26.3872 2.46539 26.4012 2.59566 26.4517C2.72584 26.5023 2.84096 26.5882 2.92797 26.7003L6.02423 30.6998C6.10852 30.8087 6.16417 30.9387 6.18494 31.0765C6.2057 31.2142 6.19133 31.3555 6.14309 31.4858C6.09484 31.616 6.01401 31.7307 5.90955 31.8189C5.80501 31.9072 5.67944 31.966 5.54627 31.9888L3.86714 32.2785C7.13187 40.7456 15.141 46.4002 24 46.4004C33.0532 46.4004 41.2329 40.5026 44.3537 31.7252L45.8069 32.2759C42.4638 41.6808 33.6998 48 24 48C14.3962 47.9999 5.71755 41.7999 2.30185 32.548L0.902298 32.7891C0.770547 32.8119 0.63528 32.7986 0.50972 32.7514C0.384186 32.7042 0.27258 32.6245 0.18578 32.5195C0.0989777 32.4146 0.0397427 32.2884 0.0141841 32.1529C-0.0113772 32.0174 -0.00219173 31.877 0.0401327 31.7461L1.58784 26.9464C1.63209 26.8101 1.7118 26.6888 1.8172 26.5949C1.92257 26.501 2.05018 26.4376 2.18718 26.4124ZM1.91597 30.9927L3.99019 30.6353L2.60738 28.8482L1.91597 30.9927Z" fill="#3DA4C2"/>
<path fill-rule="evenodd" clip-rule="evenodd" d="M19.3551 23.1998C19.5603 23.1999 19.7575 23.2842 19.9026 23.4342C20.0477 23.5842 20.1286 23.7879 20.1286 24V28.7997C20.1286 29.0117 20.0476 29.2155 19.9026 29.3655C19.7575 29.5154 19.5603 29.5998 19.3551 29.5999H16.258C16.0527 29.5999 15.8558 29.5155 15.7106 29.3655C15.5654 29.2154 15.4838 29.0118 15.4838 28.7997V24C15.4838 23.7879 15.5654 23.5842 15.7106 23.4342C15.8558 23.2842 16.0527 23.1998 16.258 23.1998H19.3551ZM17.0323 28.0003H18.5809V24.8002H17.0323V28.0003Z" fill="url(#paint1_linear_2658_1027)"/>
<path fill-rule="evenodd" clip-rule="evenodd" d="M19.3551 23.1998C19.5603 23.1999 19.7575 23.2842 19.9026 23.4342C20.0477 23.5842 20.1286 23.7879 20.1286 24V28.7997C20.1286 29.0117 20.0476 29.2155 19.9026 29.3655C19.7575 29.5154 19.5603 29.5998 19.3551 29.5999H16.258C16.0527 29.5999 15.8558 29.5155 15.7106 29.3655C15.5654 29.2154 15.4838 29.0118 15.4838 28.7997V24C15.4838 23.7879 15.5654 23.5842 15.7106 23.4342C15.8558 23.2842 16.0527 23.1998 16.258 23.1998H19.3551ZM17.0323 28.0003H18.5809V24.8002H17.0323V28.0003Z" fill="#3DA4C2"/>
<path fill-rule="evenodd" clip-rule="evenodd" d="M25.5485 19.9997C25.7537 19.9998 25.9509 20.0841 26.0959 20.2341C26.2411 20.3841 26.3228 20.5877 26.3228 20.7999V28.7997C26.3228 29.0117 26.241 29.2154 26.0959 29.3655C25.9509 29.5155 25.7537 29.5998 25.5485 29.5999H22.4514C22.2461 29.5998 22.0491 29.5155 21.904 29.3655C21.7589 29.2154 21.6771 29.0117 21.6771 28.7997V20.7999C21.6771 20.5877 21.7588 20.3841 21.904 20.2341C22.0491 20.0841 22.2461 19.9998 22.4514 19.9997H25.5485ZM23.2257 28.0003H24.7742V21.6002H23.2257V28.0003Z" fill="url(#paint2_linear_2658_1027)"/>
<path fill-rule="evenodd" clip-rule="evenodd" d="M25.5485 19.9997C25.7537 19.9998 25.9509 20.0841 26.0959 20.2341C26.2411 20.3841 26.3228 20.5877 26.3228 20.7999V28.7997C26.3228 29.0117 26.241 29.2154 26.0959 29.3655C25.9509 29.5155 25.7537 29.5998 25.5485 29.5999H22.4514C22.2461 29.5998 22.0491 29.5155 21.904 29.3655C21.7589 29.2154 21.6771 29.0117 21.6771 28.7997V20.7999C21.6771 20.5877 21.7588 20.3841 21.904 20.2341C22.0491 20.0841 22.2461 19.9998 22.4514 19.9997H25.5485ZM23.2257 28.0003H24.7742V21.6002H23.2257V28.0003Z" fill="#3DA4C2"/>
<path fill-rule="evenodd" clip-rule="evenodd" d="M31.7419 17.5999C31.9471 17.5999 32.1442 17.6843 32.2893 17.8343C32.4345 17.9843 32.5161 18.1879 32.5161 18.4001V28.7997C32.5161 29.0118 32.4344 29.2154 32.2893 29.3655C32.1442 29.5155 31.9471 29.5999 31.7419 29.5999H28.6448C28.4395 29.5998 28.2424 29.5154 28.0973 29.3655C27.9523 29.2155 27.8705 29.0117 27.8705 28.7997V18.4001C27.8705 18.188 27.9522 17.9842 28.0973 17.8343C28.2424 17.6843 28.4395 17.6 28.6448 17.5999H31.7419ZM29.419 28.0003H30.9676V19.2003H29.419V28.0003Z" fill="url(#paint3_linear_2658_1027)"/>
<path fill-rule="evenodd" clip-rule="evenodd" d="M31.7419 17.5999C31.9471 17.5999 32.1442 17.6843 32.2893 17.8343C32.4345 17.9843 32.5161 18.1879 32.5161 18.4001V28.7997C32.5161 29.0118 32.4344 29.2154 32.2893 29.3655C32.1442 29.5155 31.9471 29.5999 31.7419 29.5999H28.6448C28.4395 29.5998 28.2424 29.5154 28.0973 29.3655C27.9523 29.2155 27.8705 29.0117 27.8705 28.7997V18.4001C27.8705 18.188 27.9522 17.9842 28.0973 17.8343C28.2424 17.6843 28.4395 17.6 28.6448 17.5999H31.7419ZM29.419 28.0003H30.9676V19.2003H29.419V28.0003Z" fill="#3DA4C2"/>
<path fill-rule="evenodd" clip-rule="evenodd" d="M24.0008 10.3996C31.258 10.3996 37.1626 16.5008 37.1626 24C37.1624 31.499 31.2579 37.5996 24.0008 37.5996C16.7438 37.5995 10.84 31.4989 10.8398 24C10.8398 16.5009 16.7437 10.3997 24.0008 10.3996ZM24.0008 12C17.5975 12.0001 12.3883 17.3833 12.3883 24C12.3886 30.6165 17.5977 35.9999 24.0008 36C30.404 36 35.6138 30.6166 35.6141 24C35.6141 17.3832 30.4042 12 24.0008 12Z" fill="url(#paint4_linear_2658_1027)"/>
<path fill-rule="evenodd" clip-rule="evenodd" d="M24.0008 10.3996C31.258 10.3996 37.1626 16.5008 37.1626 24C37.1624 31.499 31.2579 37.5996 24.0008 37.5996C16.7438 37.5995 10.84 31.4989 10.8398 24C10.8398 16.5009 16.7437 10.3997 24.0008 10.3996ZM24.0008 12C17.5975 12.0001 12.3883 17.3833 12.3883 24C12.3886 30.6165 17.5977 35.9999 24.0008 36C30.404 36 35.6138 30.6166 35.6141 24C35.6141 17.3832 30.4042 12 24.0008 12Z" fill="#3DA4C2"/>
<path fill-rule="evenodd" clip-rule="evenodd" d="M27.4737 4.012C29.0844 4.31875 30.6502 4.8388 32.1319 5.55971C32.406 5.69331 32.5795 5.9802 32.5764 6.29381L32.5546 8.24665C32.5502 8.52275 32.6096 8.79631 32.7287 9.04353C32.8478 9.2906 33.0227 9.50445 33.2385 9.66713C33.4499 9.82476 33.6585 9.98797 33.863 10.156C34.2725 10.4927 34.8023 10.5916 35.2792 10.4171L37.1501 9.73744C37.2913 9.68594 37.444 9.67842 37.5895 9.71484C37.735 9.75135 37.8669 9.83072 37.9695 9.94336C39.0814 11.1619 40.044 12.5175 40.8356 13.9788C40.9072 14.1112 40.9409 14.2618 40.9327 14.4132C40.9245 14.5647 40.8751 14.7109 40.7896 14.8343L39.5524 16.6214C39.3961 16.8516 39.2946 17.1171 39.2569 17.3956C39.2192 17.6742 39.2464 17.9586 39.3356 18.2243C39.4225 18.4885 39.5033 18.7548 39.5784 19.0229C39.7301 19.5669 40.1128 19.9905 40.6021 20.1546L42.6771 20.851C42.8177 20.8981 42.9425 20.9859 43.0362 21.1038C43.13 21.2217 43.1894 21.365 43.207 21.5165C43.3061 22.3653 43.3551 23.2008 43.3551 24C43.3551 24.7992 43.3053 25.6348 43.207 26.4844C43.1705 26.7938 42.965 27.0531 42.678 27.1498L40.6029 27.8463C40.1136 28.0102 39.7309 28.4331 39.5792 28.9771C39.5042 29.2457 39.4231 29.5119 39.3364 29.7757C39.247 30.0414 39.2201 30.3258 39.2578 30.6044C39.2955 30.883 39.3968 31.1484 39.5532 31.3786L40.7904 33.1657C40.8757 33.2892 40.9254 33.4353 40.9335 33.5868C40.9416 33.7384 40.9074 33.8895 40.8356 34.022C40.0447 35.4835 39.0822 36.8385 37.9704 38.0566C37.7606 38.287 37.4389 38.3665 37.1509 38.2626L35.2792 37.5829C35.0413 37.4981 34.7863 37.4778 34.5385 37.5234C34.2905 37.569 34.058 37.6795 33.863 37.844C33.6585 38.012 33.4499 38.1744 33.2385 38.332C33.0229 38.4949 32.8485 38.7093 32.7296 38.9565C32.6107 39.2036 32.551 39.4765 32.5555 39.7525L32.5772 41.7054C32.5804 42.0182 32.4067 42.305 32.1328 42.4386C30.651 43.1593 29.0852 43.6794 27.4746 43.9863C27.327 44.0149 27.1738 43.9983 27.0351 43.9386C26.8967 43.8789 26.7779 43.7789 26.6936 43.6507L25.6925 42.1323C25.3959 41.6827 24.9148 41.4046 24.3992 41.4342C24.1329 41.4414 23.8663 41.4414 23.6015 41.4342C23.0921 41.4431 22.6039 41.6828 22.3074 42.1323L21.3055 43.6507C21.2213 43.7786 21.1028 43.8787 20.9648 43.9386C20.8267 43.9985 20.6744 44.0156 20.527 43.988C18.9153 43.6808 17.3475 43.1602 15.8688 42.4403C15.5948 42.3067 15.4213 42.0197 15.4243 41.7062L15.4461 39.7533C15.4522 39.1871 15.1971 38.6561 14.7622 38.3329C14.5509 38.1752 14.3422 38.012 14.1378 37.844C13.9427 37.6799 13.71 37.5699 13.4623 37.5243C13.2148 37.4787 12.9601 37.4986 12.7223 37.5829L10.8507 38.2626C10.7095 38.314 10.5567 38.3217 10.4112 38.2852C10.2658 38.2487 10.1339 38.1693 10.0312 38.0566C8.91951 36.8382 7.95673 35.4832 7.16513 34.022C7.0935 33.8895 7.05983 33.7383 7.06803 33.5868C7.07625 33.4353 7.12568 33.2891 7.21117 33.1657L8.44834 31.3786C8.60463 31.1484 8.70609 30.8829 8.74382 30.6044C8.78144 30.3258 8.75445 30.0414 8.66513 29.7757C8.57855 29.5119 8.49742 29.2457 8.42239 28.9771C8.27065 28.4331 7.88796 28.0095 7.39867 27.8454L5.32361 27.149C5.18312 27.1018 5.05833 27.0141 4.96452 26.8962C4.87076 26.7784 4.81224 26.6349 4.7946 26.4835C4.6955 25.6347 4.6456 24.7992 4.6456 24C4.6456 23.2008 4.69544 22.3653 4.79376 21.5165C4.81149 21.3651 4.87077 21.2216 4.96452 21.1038C5.05827 20.9861 5.18251 20.8982 5.32278 20.851L7.39783 20.1546C7.88712 19.9905 8.26981 19.5677 8.42155 19.0237C8.49736 18.7551 8.57828 18.4888 8.66178 18.2227C8.84221 17.6755 8.76166 17.0757 8.44582 16.6197L7.20866 14.8326C7.12335 14.7091 7.0736 14.563 7.06552 14.4116C7.05746 14.2601 7.09176 14.1095 7.16346 13.9771C7.95444 12.5154 8.91672 11.1599 10.0287 9.94169C10.1314 9.82923 10.2633 9.74971 10.4087 9.71317C10.5541 9.67677 10.707 9.68453 10.8482 9.73577L12.7198 10.4155C12.9579 10.4998 13.2129 10.5204 13.4606 10.4749C13.7085 10.4293 13.9409 10.3185 14.1361 10.1543C14.3405 9.9863 14.5492 9.82384 14.7606 9.6663C14.9763 9.50337 15.1505 9.28899 15.2695 9.04185C15.3884 8.79466 15.4489 8.5218 15.4444 8.24582L15.4227 6.29297C15.4212 6.13977 15.462 5.98921 15.5407 5.85938C15.6195 5.72949 15.7331 5.62517 15.8671 5.55971C17.3489 4.83898 18.9149 4.31883 20.5253 4.012C20.6729 3.98378 20.8255 4.00008 20.964 4.05971C21.1023 4.11934 21.221 4.21959 21.3055 4.34766L22.3066 5.86607C22.4468 6.08661 22.6393 6.26714 22.8657 6.38923C23.092 6.51119 23.3448 6.57136 23.5998 6.56417C23.8656 6.55697 24.1318 6.55698 24.3976 6.56417C24.6523 6.56757 24.904 6.50511 25.13 6.38337C25.3557 6.26163 25.5494 6.08381 25.6925 5.86607L26.6936 4.34766C26.7784 4.22009 26.8977 4.12097 27.0359 4.06138C27.1742 4.00184 27.3263 3.9845 27.4737 4.012ZM26.9715 6.76842C26.3777 7.66994 25.4081 8.19894 24.3599 8.16462C24.1215 8.15903 23.879 8.15903 23.6383 8.16462C23.1248 8.17562 22.6164 8.05354 22.1601 7.80971C21.704 7.56588 21.314 7.20775 21.0259 6.76842L20.3136 5.68778C19.1681 5.94124 18.0505 6.31333 16.9771 6.79771L16.993 8.22907C17.0002 8.76182 16.884 9.28874 16.6531 9.76507C16.4222 10.2414 16.0835 10.6532 15.6662 10.9662C15.475 11.1087 15.2871 11.2562 15.1021 11.4082C14.7023 11.7419 14.2264 11.9645 13.7201 12.0552C13.2137 12.1459 12.6928 12.1015 12.2075 11.9263L10.8189 11.4224C10.0447 12.319 9.35543 13.2903 8.76056 14.3228L9.7081 15.6922C10.0072 16.1291 10.2013 16.6332 10.2748 17.1629C10.3483 17.6928 10.2992 18.2337 10.1308 18.74C10.0519 18.98 9.97714 19.2225 9.90899 19.4682C9.6148 20.5224 8.85584 21.3483 7.87746 21.6772L6.27953 22.2129C6.22302 22.8241 6.19415 23.4233 6.19415 24C6.19415 24.5767 6.22296 25.1759 6.27869 25.7871L7.87663 26.3228C8.85425 26.6516 9.61395 27.4776 9.90816 28.5318C9.97673 28.7764 10.0509 29.0197 10.13 29.2609C10.2985 29.7672 10.3483 30.3079 10.2748 30.8379C10.2013 31.3677 10.0065 31.8717 9.70726 32.3086L8.75972 33.6772C9.35425 34.709 10.044 35.6816 10.818 36.5776L12.2075 36.0737C13.1915 35.7154 14.2731 35.9103 15.1021 36.5918C15.2871 36.7438 15.475 36.8913 15.6662 37.0338C16.0834 37.3468 16.4221 37.7586 16.6531 38.2349C16.8842 38.7113 17.0007 39.2382 16.9938 39.7709L16.9779 41.2023C18.0515 41.6867 19.1695 42.0589 20.3152 42.3122L21.0284 41.2316C21.3146 40.7902 21.7043 40.4302 22.1609 40.1861C22.6175 39.9422 23.1263 39.8217 23.64 39.8354C23.8783 39.841 24.1209 39.8409 24.3616 39.8354L24.4402 39.8345C24.9409 39.8355 25.4341 39.9635 25.8758 40.207C26.3174 40.4505 26.6944 40.8025 26.974 41.2316L27.6863 42.3122C28.8317 42.0588 29.9494 41.6866 31.0228 41.2023L31.0069 39.7709C30.9997 39.2382 31.1167 38.7113 31.3476 38.2349C31.5785 37.7587 31.9166 37.3467 32.3337 37.0338C32.5248 36.8913 32.7128 36.7437 32.8978 36.5918C33.2974 36.2577 33.7734 36.0347 34.2798 35.9439C34.7863 35.8532 35.3072 35.898 35.7924 36.0737L37.181 36.5776C37.9553 35.681 38.6445 34.7097 39.2393 33.6772L38.2926 32.3078C37.9938 31.8708 37.7995 31.3667 37.726 30.8371C37.6525 30.3071 37.7017 29.7663 37.8699 29.26C37.9489 29.02 38.0236 28.7775 38.0917 28.5318C38.3867 27.4768 39.1464 26.6508 40.125 26.3228L41.722 25.7871C41.7786 25.1759 41.8066 24.5767 41.8066 24C41.8066 23.4233 41.7778 22.8241 41.722 22.2129L40.125 21.6772C39.1472 21.3484 38.3868 20.5225 38.0926 19.4682C38.0237 19.2225 37.9497 18.9799 37.8708 18.7391C37.7023 18.2328 37.6524 17.692 37.726 17.1621C37.7994 16.6323 37.9943 16.1282 38.2935 15.6914L39.241 14.3228C38.6465 13.291 37.9568 12.3184 37.1827 11.4224L35.794 11.9263C35.3089 12.1018 34.788 12.1459 34.2815 12.0552C33.7749 11.9645 33.2985 11.7421 32.8987 11.4082C32.7136 11.2563 32.5257 11.1087 32.3345 10.9662C31.9173 10.6532 31.5787 10.2414 31.3476 9.76507C31.1166 9.28874 31 8.76182 31.0069 8.22907L31.0228 6.79771C29.9506 6.31376 28.8319 5.94136 27.6855 5.68778L26.9715 6.76842Z" fill="url(#paint5_linear_2658_1027)"/>
<path fill-rule="evenodd" clip-rule="evenodd" d="M27.4737 4.012C29.0844 4.31875 30.6502 4.8388 32.1319 5.55971C32.406 5.69331 32.5795 5.9802 32.5764 6.29381L32.5546 8.24665C32.5502 8.52275 32.6096 8.79631 32.7287 9.04353C32.8478 9.2906 33.0227 9.50445 33.2385 9.66713C33.4499 9.82476 33.6585 9.98797 33.863 10.156C34.2725 10.4927 34.8023 10.5916 35.2792 10.4171L37.1501 9.73744C37.2913 9.68594 37.444 9.67842 37.5895 9.71484C37.735 9.75135 37.8669 9.83072 37.9695 9.94336C39.0814 11.1619 40.044 12.5175 40.8356 13.9788C40.9072 14.1112 40.9409 14.2618 40.9327 14.4132C40.9245 14.5647 40.8751 14.7109 40.7896 14.8343L39.5524 16.6214C39.3961 16.8516 39.2946 17.1171 39.2569 17.3956C39.2192 17.6742 39.2464 17.9586 39.3356 18.2243C39.4225 18.4885 39.5033 18.7548 39.5784 19.0229C39.7301 19.5669 40.1128 19.9905 40.6021 20.1546L42.6771 20.851C42.8177 20.8981 42.9425 20.9859 43.0362 21.1038C43.13 21.2217 43.1894 21.365 43.207 21.5165C43.3061 22.3653 43.3551 23.2008 43.3551 24C43.3551 24.7992 43.3053 25.6348 43.207 26.4844C43.1705 26.7938 42.965 27.0531 42.678 27.1498L40.6029 27.8463C40.1136 28.0102 39.7309 28.4331 39.5792 28.9771C39.5042 29.2457 39.4231 29.5119 39.3364 29.7757C39.247 30.0414 39.2201 30.3258 39.2578 30.6044C39.2955 30.883 39.3968 31.1484 39.5532 31.3786L40.7904 33.1657C40.8757 33.2892 40.9254 33.4353 40.9335 33.5868C40.9416 33.7384 40.9074 33.8895 40.8356 34.022C40.0447 35.4835 39.0822 36.8385 37.9704 38.0566C37.7606 38.287 37.4389 38.3665 37.1509 38.2626L35.2792 37.5829C35.0413 37.4981 34.7863 37.4778 34.5385 37.5234C34.2905 37.569 34.058 37.6795 33.863 37.844C33.6585 38.012 33.4499 38.1744 33.2385 38.332C33.0229 38.4949 32.8485 38.7093 32.7296 38.9565C32.6107 39.2036 32.551 39.4765 32.5555 39.7525L32.5772 41.7054C32.5804 42.0182 32.4067 42.305 32.1328 42.4386C30.651 43.1593 29.0852 43.6794 27.4746 43.9863C27.327 44.0149 27.1738 43.9983 27.0351 43.9386C26.8967 43.8789 26.7779 43.7789 26.6936 43.6507L25.6925 42.1323C25.3959 41.6827 24.9148 41.4046 24.3992 41.4342C24.1329 41.4414 23.8663 41.4414 23.6015 41.4342C23.0921 41.4431 22.6039 41.6828 22.3074 42.1323L21.3055 43.6507C21.2213 43.7786 21.1028 43.8787 20.9648 43.9386C20.8267 43.9985 20.6744 44.0156 20.527 43.988C18.9153 43.6808 17.3475 43.1602 15.8688 42.4403C15.5948 42.3067 15.4213 42.0197 15.4243 41.7062L15.4461 39.7533C15.4522 39.1871 15.1971 38.6561 14.7622 38.3329C14.5509 38.1752 14.3422 38.012 14.1378 37.844C13.9427 37.6799 13.71 37.5699 13.4623 37.5243C13.2148 37.4787 12.9601 37.4986 12.7223 37.5829L10.8507 38.2626C10.7095 38.314 10.5567 38.3217 10.4112 38.2852C10.2658 38.2487 10.1339 38.1693 10.0312 38.0566C8.91951 36.8382 7.95673 35.4832 7.16513 34.022C7.0935 33.8895 7.05983 33.7383 7.06803 33.5868C7.07625 33.4353 7.12568 33.2891 7.21117 33.1657L8.44834 31.3786C8.60463 31.1484 8.70609 30.8829 8.74382 30.6044C8.78144 30.3258 8.75445 30.0414 8.66513 29.7757C8.57855 29.5119 8.49742 29.2457 8.42239 28.9771C8.27065 28.4331 7.88796 28.0095 7.39867 27.8454L5.32361 27.149C5.18312 27.1018 5.05833 27.0141 4.96452 26.8962C4.87076 26.7784 4.81224 26.6349 4.7946 26.4835C4.6955 25.6347 4.6456 24.7992 4.6456 24C4.6456 23.2008 4.69544 22.3653 4.79376 21.5165C4.81149 21.3651 4.87077 21.2216 4.96452 21.1038C5.05827 20.9861 5.18251 20.8982 5.32278 20.851L7.39783 20.1546C7.88712 19.9905 8.26981 19.5677 8.42155 19.0237C8.49736 18.7551 8.57828 18.4888 8.66178 18.2227C8.84221 17.6755 8.76166 17.0757 8.44582 16.6197L7.20866 14.8326C7.12335 14.7091 7.0736 14.563 7.06552 14.4116C7.05746 14.2601 7.09176 14.1095 7.16346 13.9771C7.95444 12.5154 8.91672 11.1599 10.0287 9.94169C10.1314 9.82923 10.2633 9.74971 10.4087 9.71317C10.5541 9.67677 10.707 9.68453 10.8482 9.73577L12.7198 10.4155C12.9579 10.4998 13.2129 10.5204 13.4606 10.4749C13.7085 10.4293 13.9409 10.3185 14.1361 10.1543C14.3405 9.9863 14.5492 9.82384 14.7606 9.6663C14.9763 9.50337 15.1505 9.28899 15.2695 9.04185C15.3884 8.79466 15.4489 8.5218 15.4444 8.24582L15.4227 6.29297C15.4212 6.13977 15.462 5.98921 15.5407 5.85938C15.6195 5.72949 15.7331 5.62517 15.8671 5.55971C17.3489 4.83898 18.9149 4.31883 20.5253 4.012C20.6729 3.98378 20.8255 4.00008 20.964 4.05971C21.1023 4.11934 21.221 4.21959 21.3055 4.34766L22.3066 5.86607C22.4468 6.08661 22.6393 6.26714 22.8657 6.38923C23.092 6.51119 23.3448 6.57136 23.5998 6.56417C23.8656 6.55697 24.1318 6.55698 24.3976 6.56417C24.6523 6.56757 24.904 6.50511 25.13 6.38337C25.3557 6.26163 25.5494 6.08381 25.6925 5.86607L26.6936 4.34766C26.7784 4.22009 26.8977 4.12097 27.0359 4.06138C27.1742 4.00184 27.3263 3.9845 27.4737 4.012ZM26.9715 6.76842C26.3777 7.66994 25.4081 8.19894 24.3599 8.16462C24.1215 8.15903 23.879 8.15903 23.6383 8.16462C23.1248 8.17562 22.6164 8.05354 22.1601 7.80971C21.704 7.56588 21.314 7.20775 21.0259 6.76842L20.3136 5.68778C19.1681 5.94124 18.0505 6.31333 16.9771 6.79771L16.993 8.22907C17.0002 8.76182 16.884 9.28874 16.6531 9.76507C16.4222 10.2414 16.0835 10.6532 15.6662 10.9662C15.475 11.1087 15.2871 11.2562 15.1021 11.4082C14.7023 11.7419 14.2264 11.9645 13.7201 12.0552C13.2137 12.1459 12.6928 12.1015 12.2075 11.9263L10.8189 11.4224C10.0447 12.319 9.35543 13.2903 8.76056 14.3228L9.7081 15.6922C10.0072 16.1291 10.2013 16.6332 10.2748 17.1629C10.3483 17.6928 10.2992 18.2337 10.1308 18.74C10.0519 18.98 9.97714 19.2225 9.90899 19.4682C9.6148 20.5224 8.85584 21.3483 7.87746 21.6772L6.27953 22.2129C6.22302 22.8241 6.19415 23.4233 6.19415 24C6.19415 24.5767 6.22296 25.1759 6.27869 25.7871L7.87663 26.3228C8.85425 26.6516 9.61395 27.4776 9.90816 28.5318C9.97673 28.7764 10.0509 29.0197 10.13 29.2609C10.2985 29.7672 10.3483 30.3079 10.2748 30.8379C10.2013 31.3677 10.0065 31.8717 9.70726 32.3086L8.75972 33.6772C9.35425 34.709 10.044 35.6816 10.818 36.5776L12.2075 36.0737C13.1915 35.7154 14.2731 35.9103 15.1021 36.5918C15.2871 36.7438 15.475 36.8913 15.6662 37.0338C16.0834 37.3468 16.4221 37.7586 16.6531 38.2349C16.8842 38.7113 17.0007 39.2382 16.9938 39.7709L16.9779 41.2023C18.0515 41.6867 19.1695 42.0589 20.3152 42.3122L21.0284 41.2316C21.3146 40.7902 21.7043 40.4302 22.1609 40.1861C22.6175 39.9422 23.1263 39.8217 23.64 39.8354C23.8783 39.841 24.1209 39.8409 24.3616 39.8354L24.4402 39.8345C24.9409 39.8355 25.4341 39.9635 25.8758 40.207C26.3174 40.4505 26.6944 40.8025 26.974 41.2316L27.6863 42.3122C28.8317 42.0588 29.9494 41.6866 31.0228 41.2023L31.0069 39.7709C30.9997 39.2382 31.1167 38.7113 31.3476 38.2349C31.5785 37.7587 31.9166 37.3467 32.3337 37.0338C32.5248 36.8913 32.7128 36.7437 32.8978 36.5918C33.2974 36.2577 33.7734 36.0347 34.2798 35.9439C34.7863 35.8532 35.3072 35.898 35.7924 36.0737L37.181 36.5776C37.9553 35.681 38.6445 34.7097 39.2393 33.6772L38.2926 32.3078C37.9938 31.8708 37.7995 31.3667 37.726 30.8371C37.6525 30.3071 37.7017 29.7663 37.8699 29.26C37.9489 29.02 38.0236 28.7775 38.0917 28.5318C38.3867 27.4768 39.1464 26.6508 40.125 26.3228L41.722 25.7871C41.7786 25.1759 41.8066 24.5767 41.8066 24C41.8066 23.4233 41.7778 22.8241 41.722 22.2129L40.125 21.6772C39.1472 21.3484 38.3868 20.5225 38.0926 19.4682C38.0237 19.2225 37.9497 18.9799 37.8708 18.7391C37.7023 18.2328 37.6524 17.692 37.726 17.1621C37.7994 16.6323 37.9943 16.1282 38.2935 15.6914L39.241 14.3228C38.6465 13.291 37.9568 12.3184 37.1827 11.4224L35.794 11.9263C35.3089 12.1018 34.788 12.1459 34.2815 12.0552C33.7749 11.9645 33.2985 11.7421 32.8987 11.4082C32.7136 11.2563 32.5257 11.1087 32.3345 10.9662C31.9173 10.6532 31.5787 10.2414 31.3476 9.76507C31.1166 9.28874 31 8.76182 31.0069 8.22907L31.0228 6.79771C29.9506 6.31376 28.8319 5.94136 27.6855 5.68778L26.9715 6.76842Z" fill="#3DA4C2"/>
<path fill-rule="evenodd" clip-rule="evenodd" d="M24 0C33.4281 0 41.9576 5.98023 45.4988 14.9515L46.9813 14.4408C47.1079 14.3973 47.2438 14.3884 47.3747 14.4149C47.5054 14.4413 47.6275 14.5021 47.7287 14.5915C47.8301 14.6811 47.9075 14.7968 47.9531 14.9263C47.9987 15.0558 48.0118 15.1955 47.9899 15.3315L47.2156 20.1311C47.1941 20.2689 47.1376 20.3987 47.0524 20.507C46.9672 20.6154 46.8555 20.6989 46.7293 20.7489C46.6033 20.7988 46.4667 20.8132 46.3334 20.7916C46.1998 20.7698 46.0737 20.7126 45.9684 20.625L42.0979 17.4249C41.9893 17.3351 41.9066 17.2163 41.8577 17.0818C41.8087 16.9472 41.7956 16.8014 41.82 16.6599C41.8444 16.5184 41.9049 16.3862 41.9958 16.2773C42.0867 16.1684 42.2045 16.0861 42.3364 16.0405L44.0281 15.4587C40.6998 7.1387 32.7661 1.59961 24 1.59961C14.9468 1.59976 6.76782 7.49757 3.647 16.2748L2.19387 15.7241C5.53682 6.31936 14.3003 0.000149108 24 0ZM44.1755 17.0935L45.9056 18.5232L46.2513 16.3795L44.1755 17.0935Z" fill="url(#paint6_linear_2658_1027)"/>
<path fill-rule="evenodd" clip-rule="evenodd" d="M24 0C33.4281 0 41.9576 5.98023 45.4988 14.9515L46.9813 14.4408C47.1079 14.3973 47.2438 14.3884 47.3747 14.4149C47.5054 14.4413 47.6275 14.5021 47.7287 14.5915C47.8301 14.6811 47.9075 14.7968 47.9531 14.9263C47.9987 15.0558 48.0118 15.1955 47.9899 15.3315L47.2156 20.1311C47.1941 20.2689 47.1376 20.3987 47.0524 20.507C46.9672 20.6154 46.8555 20.6989 46.7293 20.7489C46.6033 20.7988 46.4667 20.8132 46.3334 20.7916C46.1998 20.7698 46.0737 20.7126 45.9684 20.625L42.0979 17.4249C41.9893 17.3351 41.9066 17.2163 41.8577 17.0818C41.8087 16.9472 41.7956 16.8014 41.82 16.6599C41.8444 16.5184 41.9049 16.3862 41.9958 16.2773C42.0867 16.1684 42.2045 16.0861 42.3364 16.0405L44.0281 15.4587C40.6998 7.1387 32.7661 1.59961 24 1.59961C14.9468 1.59976 6.76782 7.49757 3.647 16.2748L2.19387 15.7241C5.53682 6.31936 14.3003 0.000149108 24 0ZM44.1755 17.0935L45.9056 18.5232L46.2513 16.3795L44.1755 17.0935Z" fill="#3DA4C2"/>
</g>
<defs>
<linearGradient id="paint0_linear_2658_1027" x1="48" y1="48" x2="-0.071938" y2="0.0721543" gradientUnits="userSpaceOnUse">
<stop stop-color="#31393C"/>
<stop offset="1" stop-color="#3D96F5"/>
</linearGradient>
<linearGradient id="paint1_linear_2658_1027" x1="48" y1="48" x2="-0.071938" y2="0.0721543" gradientUnits="userSpaceOnUse">
<stop stop-color="#31393C"/>
<stop offset="1" stop-color="#3D96F5"/>
</linearGradient>
<linearGradient id="paint2_linear_2658_1027" x1="48" y1="48" x2="-0.071938" y2="0.0721543" gradientUnits="userSpaceOnUse">
<stop stop-color="#31393C"/>
<stop offset="1" stop-color="#3D96F5"/>
</linearGradient>
<linearGradient id="paint3_linear_2658_1027" x1="48" y1="48" x2="-0.071938" y2="0.0721543" gradientUnits="userSpaceOnUse">
<stop stop-color="#31393C"/>
<stop offset="1" stop-color="#3D96F5"/>
</linearGradient>
<linearGradient id="paint4_linear_2658_1027" x1="48" y1="48" x2="-0.071938" y2="0.0721543" gradientUnits="userSpaceOnUse">
<stop stop-color="#31393C"/>
<stop offset="1" stop-color="#3D96F5"/>
</linearGradient>
<linearGradient id="paint5_linear_2658_1027" x1="48" y1="48" x2="-0.071938" y2="0.0721543" gradientUnits="userSpaceOnUse">
<stop stop-color="#31393C"/>
<stop offset="1" stop-color="#3D96F5"/>
</linearGradient>
<linearGradient id="paint6_linear_2658_1027" x1="48" y1="48" x2="-0.071938" y2="0.0721543" gradientUnits="userSpaceOnUse">
<stop stop-color="#31393C"/>
<stop offset="1" stop-color="#3D96F5"/>
</linearGradient>
<clipPath id="clip0_2658_1027">
<rect width="48" height="48" fill="white"/>
</clipPath>
</defs>
</svg>
