<svg width="64" height="64" viewBox="0 0 64 64" fill="none" xmlns="http://www.w3.org/2000/svg">
<rect width="64" height="64" rx="8" fill="#EDF5FC"/>
<path d="M32.0001 26.2353C34.2742 26.2353 36.1178 28.0788 36.1178 30.3529C36.1178 32.627 34.2742 34.4706 32.0001 34.4706C29.726 34.4706 27.8825 32.627 27.8825 30.3529C27.8825 28.0788 29.726 26.2353 32.0001 26.2353Z" fill="#3E96F4"/>
<path fill-rule="evenodd" clip-rule="evenodd" d="M32 18C32.4612 18 32.8235 18.3624 32.8235 18.8235V19.6965C38.4071 20.0589 42.9694 24.16 44.0729 29.5294H43.5294C43.0682 29.5294 42.7058 29.8918 42.7058 30.3529C42.7058 30.8141 43.0682 31.1764 43.5294 31.1765H45.1765C45.6376 31.1765 46 31.5388 46 32C46 32.4612 45.6376 32.8235 45.1765 32.8235H44.3035C43.9411 38.4071 39.84 42.9694 34.4706 44.0729V43.5294C34.4706 43.0682 34.1082 42.7058 33.6471 42.7058C33.1859 42.7058 32.8236 43.0682 32.8235 43.5294V45.1765C32.8235 45.6376 32.4612 46 32 46C31.5388 46 31.1765 45.6376 31.1765 45.1765V44.3035C25.5929 43.9411 21.0306 39.84 19.9271 34.4706H20.4706C20.9318 34.4706 21.2942 34.1082 21.2942 33.6471C21.2942 33.1859 20.9318 32.8236 20.4706 32.8235H18.8235C18.3624 32.8235 18 32.4612 18 32C18 31.5388 18.3624 31.1765 18.8235 31.1765H19.6965C20.0589 25.5929 24.16 21.0306 29.5294 19.9271V20.4706C29.5294 20.9318 29.8918 21.2942 30.3529 21.2942C30.8141 21.2942 31.1764 20.9318 31.1765 20.4706V18.8235C31.1765 18.3624 31.5388 18 32 18ZM31.9835 24.5882C28.8047 24.5882 26.2189 27.1741 26.2188 30.3529C26.2188 32.3788 27.2729 34.1577 28.8541 35.1789C27.1412 35.9859 25.7412 37.4353 25.0494 39.28C24.8847 39.6918 25.0988 40.1694 25.5271 40.3341C25.9553 40.4988 26.4165 40.2847 26.5812 39.8565C27.4212 37.6165 29.6776 36.1176 31.9835 36.1176C34.2894 36.1176 36.3811 37.4847 37.287 39.6094C37.4682 40.0377 37.9623 40.2188 38.3741 40.0377V40.0541C38.8023 39.873 38.9835 39.3788 38.8023 38.9671C38.0612 37.2706 36.7436 35.9365 35.1295 35.1789C36.7106 34.1412 37.7482 32.3623 37.7482 30.3529C37.7482 27.1741 35.1623 24.5882 31.9835 24.5882Z" fill="#3E96F4"/>
</svg>
