<svg width="62" height="62" viewBox="0 0 62 62" fill="none" xmlns="http://www.w3.org/2000/svg">
<path fill-rule="evenodd" clip-rule="evenodd" d="M37.5551 19.5519C35.7997 21.0769 33.5076 22 30.9998 22C28.4222 22 26.0723 21.0248 24.2991 19.4232C25.2493 16.6808 27.8483 14.7125 30.9055 14.7125C34.0103 14.7125 36.6425 16.7427 37.5551 19.5519ZM39.1615 17.7794C38.1873 15.7327 36.4791 14.105 34.3787 13.2391C35.2251 12.3646 35.7463 11.1715 35.7463 9.85627C35.7463 7.17423 33.579 5 30.9055 5C28.232 5 26.0647 7.17423 26.0647 9.85627C26.0647 11.1715 26.5859 12.3646 27.4323 13.2391C25.3867 14.0824 23.7131 15.6483 22.7272 17.6201C21.637 16.0184 20.9998 14.0836 20.9998 12C20.9998 6.47715 25.4769 2 30.9998 2C36.5226 2 40.9998 6.47715 40.9998 12C40.9998 14.1532 40.3192 16.1475 39.1615 17.7794ZM42.8338 14C41.8817 19.6754 36.9458 24 30.9998 24C25.0538 24 20.1178 19.6754 19.1657 14H3.99976C2.89519 14 1.99976 14.8954 1.99976 16V46C1.99976 47.1046 2.89519 48 3.99976 48H57.9998C59.1043 48 59.9998 47.1046 59.9998 46V16C59.9998 14.8954 59.1043 14 57.9998 14H42.8338ZM42.9998 12H57.9998C60.2089 12 61.9998 13.7909 61.9998 16V46C61.9998 48.2091 60.2089 50 57.9998 50H38.9431L42.5146 55H50.9999C53.2091 55 54.9999 56.7909 54.9999 59V62H7.99994V59C7.99994 56.7909 9.7908 55 11.9999 55H19.4853L23.0567 50H3.99976C1.79062 50 -0.000244141 48.2091 -0.000244141 46V16C-0.000244141 13.7909 1.79062 12 3.99976 12H18.9998C18.9998 5.37258 24.3723 0 30.9998 0C37.6272 0 42.9998 5.37258 42.9998 12ZM25.5146 50H36.4853L40.0567 55H21.9431L25.5146 50ZM50.9999 57H11.9999C10.8954 57 9.99994 57.8954 9.99994 59V60H52.9999V59C52.9999 57.8954 52.1045 57 50.9999 57ZM36.9373 31.2243H39.5935C39.8748 31.2243 40.0623 31.1305 40.2498 30.943L43.6248 27.7555L45.2185 33.8493C45.3123 34.1305 45.5935 34.4118 45.8748 34.5055C46.2498 34.5993 46.531 34.5055 46.8123 34.318L51.2185 30.0993H53.5935C54.156 30.0993 54.531 29.7243 54.531 29.1618C54.531 28.5993 54.156 28.2243 53.5935 28.2243H50.8435C50.5623 28.2243 50.3748 28.318 50.1873 28.5055L46.6248 31.7868L45.031 25.693C44.9373 25.4118 44.656 25.1305 44.3748 25.0368C44.0935 24.943 43.7185 25.0368 43.4373 25.2243L39.2185 29.2555H36.9373C36.3748 29.2555 35.9998 29.6305 35.9998 30.193C35.9998 30.7555 36.3748 31.2243 36.9373 31.2243ZM13.2498 44.0366H8.93726C8.37476 44.0366 7.99976 43.6616 7.99976 43.0991V34.5679C7.99976 34.0054 8.37476 33.6304 8.93726 33.6304H13.2498C13.8123 33.6304 14.1873 34.0054 14.1873 34.5679V43.0991C14.1873 43.6616 13.8123 44.0366 13.2498 44.0366ZM12.3123 35.5054H9.87476V42.1616H12.3123V35.5054ZM17.0935 28.9429H21.406C21.9685 28.9429 22.3435 29.4116 22.3435 29.8804V43.0991C22.3435 43.6616 21.9685 44.0366 21.406 44.0366H17.0935C16.531 44.0366 16.156 43.6616 16.156 43.0991V29.8804C16.156 29.3179 16.531 28.9429 17.0935 28.9429ZM18.031 42.1616H20.4685V30.8179H18.031V42.1616ZM24.2185 43.0991V27.1929C24.2185 26.6304 24.6873 26.2554 25.156 26.2554H29.4685C30.031 26.2554 30.406 26.6304 30.406 27.1929V43.0991C30.406 43.6616 30.031 44.0366 29.4685 44.0366H25.156C24.5935 44.0366 24.2185 43.6616 24.2185 43.0991ZM28.531 28.1304H26.0935V42.1616H28.531V28.1304ZM36.1873 38.8804C36.1873 38.3179 36.5623 37.9429 37.1248 37.9429H53.3123C53.8748 37.9429 54.3435 38.3179 54.3435 38.8804C54.3435 39.4429 53.9685 39.8179 53.406 39.8179H37.1248C36.5623 39.8179 36.1873 39.4429 36.1873 38.8804ZM36.1873 43.0991C36.1873 42.5366 36.5623 42.1616 37.1248 42.1616H53.3123C53.8748 42.1616 54.3435 42.5366 54.3435 43.0991C54.3435 43.6616 53.9685 44.0366 53.406 44.0366H37.1248C36.5623 44.0366 36.1873 43.6616 36.1873 43.0991ZM33.5948 9.85627C33.5948 11.3463 32.3908 12.5542 30.9055 12.5542C29.4202 12.5542 28.2161 11.3463 28.2161 9.85627C28.2161 8.36625 29.4202 7.15834 30.9055 7.15834C32.3908 7.15834 33.5948 8.36625 33.5948 9.85627Z" fill="url(#paint0_linear_1_1124)"/>
<defs>
<linearGradient id="paint0_linear_1_1124" x1="9.59723" y1="7.74568" x2="52.1969" y2="49.9729" gradientUnits="userSpaceOnUse">
<stop stop-color="#FE5B52"/>
<stop offset="1" stop-color="#3E96F4"/>
</linearGradient>
</defs>
</svg>
