<svg width="130" height="130" viewBox="0 0 130 130" fill="none" xmlns="http://www.w3.org/2000/svg">
<g filter="url(#filter0_d_0_676)">
<path d="M10 22C10 15.3726 15.3726 10 22 10H108C114.627 10 120 15.3726 120 22V108C120 114.627 114.627 120 108 120H22C15.3726 120 10 114.627 10 108V22Z" fill="white"/>
</g>
<rect x="15.8" y="15.8" width="98.4" height="98.4" rx="7.2" fill="#E8F4FF" stroke="#6CB0F9" stroke-width="1.6"/>
<path d="M59.6766 25.7132C62.5895 22.8204 67.4107 22.8204 70.3235 25.7132L68.0133 28.0075H74.0399V22.0225L72.1315 23.9177C68.2142 20.0274 61.7859 20.0274 57.8687 23.9177C55.659 26.1122 54.755 29.1047 55.0563 31.9975H57.5673C57.266 29.803 57.9691 27.409 59.6766 25.7132ZM74.9439 30.0025H72.4328C72.7342 32.197 72.0311 34.591 70.3236 36.2868C67.4107 39.1796 62.5895 39.1796 59.6767 36.2868L61.9869 33.9925H55.9603V39.9775L57.8687 38.0823C61.786 41.9726 68.1138 41.9726 72.0311 38.0823C74.3412 35.8878 75.2452 32.8953 74.9439 30.0025Z" fill="#2D95F0"/>
<rect x="32" y="58" width="66" height="55.4" fill="white"/>
<path d="M32 55C32 50.5817 35.5817 47 40 47H90C94.4183 47 98 50.5817 98 55V58H32V55Z" fill="#6CB0F9" fill-opacity="0.3"/>
<path d="M70 52.3999H60" stroke="#4D4C4D" stroke-width="3" stroke-linecap="round"/>
<path d="M97.9977 114L97.9997 55.0003C97.9999 50.5819 94.4181 47 89.9997 47H39.9997C35.5816 47 31.9999 50.5816 31.9997 54.9997L31.9977 114" stroke="#4D4C4D" stroke-width="1.6"/>
<path d="M32 58H98" stroke="#4D4C4D" stroke-width="1.6" stroke-linecap="round" stroke-linejoin="round"/>
<circle cx="65" cy="90" r="14" fill="#2D95F0"/>
<path d="M58 88.5L63.5 94L72.5 85" stroke="white" stroke-width="3" stroke-linecap="round" stroke-linejoin="round"/>
<defs>
<filter id="filter0_d_0_676" x="0" y="0" width="130" height="130" filterUnits="userSpaceOnUse" color-interpolation-filters="sRGB">
<feFlood flood-opacity="0" result="BackgroundImageFix"/>
<feColorMatrix in="SourceAlpha" type="matrix" values="0 0 0 0 0 0 0 0 0 0 0 0 0 0 0 0 0 0 127 0" result="hardAlpha"/>
<feOffset/>
<feGaussianBlur stdDeviation="5"/>
<feComposite in2="hardAlpha" operator="out"/>
<feColorMatrix type="matrix" values="0 0 0 0 0.237426 0 0 0 0 0.453591 0 0 0 0 0.685651 0 0 0 0.5 0"/>
<feBlend mode="normal" in2="BackgroundImageFix" result="effect1_dropShadow_0_676"/>
<feBlend mode="normal" in="SourceGraphic" in2="effect1_dropShadow_0_676" result="shape"/>
</filter>
</defs>
</svg>
