<svg width="84" height="84" viewBox="0 0 84 84" fill="none" xmlns="http://www.w3.org/2000/svg">
<g filter="url(#filter0_d_1_700)">
<rect x="6" y="6" width="72" height="72" rx="36" fill="white"/>
<rect x="7" y="7" width="70" height="70" rx="35" stroke="#3E96F4" stroke-width="2"/>
</g>
<path d="M48.4505 37.1213C49.6221 35.9497 51.5216 35.9497 52.6931 37.1213C53.8647 38.2929 53.8647 40.1924 52.6931 41.364L36.4297 57.6274L31.1264 58.6881L32.187 53.3848L48.4505 37.1213Z" stroke="black" stroke-width="1.6" stroke-miterlimit="10" stroke-linecap="round" stroke-linejoin="round"/>
<path d="M46.3292 39.2422L50.5718 43.4848" stroke="black" stroke-width="1.6" stroke-miterlimit="10" stroke-linecap="round" stroke-linejoin="round"/>
<path d="M35.2585 50.7998L34.6383 53.0077L37.113 52.6543L36.7596 55.129L38.9901 54.5314" stroke="black" stroke-width="1.6" stroke-miterlimit="10" stroke-linecap="round" stroke-linejoin="round"/>
<path d="M48.4526 41.373L37.1389 52.6868" stroke="black" stroke-width="1.6" stroke-miterlimit="10" stroke-linecap="round" stroke-linejoin="round"/>
<rect x="22" y="22" width="40" height="40" rx="6" stroke="black" stroke-width="1.6" stroke-miterlimit="10" stroke-linecap="round" stroke-linejoin="round"/>
<path d="M54.8945 44.1045C56.6825 45.7577 57.8027 48.1227 57.8027 50.75C57.8027 55.7482 53.7511 59.7998 48.7529 59.7998H39.7803C39.3386 59.7996 38.9805 59.4417 38.9805 59C38.9805 58.5583 39.3386 58.2004 39.7803 58.2002H48.7529C52.8675 58.2002 56.2031 54.8645 56.2031 50.75C56.2031 48.5646 55.2627 46.5982 53.7637 45.2354L54.8945 44.1045ZM57.0029 25.2002C57.4448 25.2002 57.8027 25.5582 57.8027 26C57.8027 26.4418 57.4448 26.7998 57.0029 26.7998H34.2529C30.1384 26.7998 26.8027 30.1355 26.8027 34.25C26.8027 38.3645 30.1384 41.7002 34.2529 41.7002H39.2998L37.7002 43.2998H34.2529C29.2548 43.2998 25.2031 39.2482 25.2031 34.25C25.2031 29.2518 29.2548 25.2002 34.2529 25.2002H57.0029Z" fill="black"/>
<rect x="54" y="24" width="4" height="4" fill="black"/>
<rect x="24" y="33" width="4" height="4" rx="2" fill="black"/>
<rect x="55" y="49" width="4" height="4" rx="2" fill="black"/>
<defs>
<filter id="filter0_d_1_700" x="0" y="0" width="84" height="84" filterUnits="userSpaceOnUse" color-interpolation-filters="sRGB">
<feFlood flood-opacity="0" result="BackgroundImageFix"/>
<feColorMatrix in="SourceAlpha" type="matrix" values="0 0 0 0 0 0 0 0 0 0 0 0 0 0 0 0 0 0 127 0" result="hardAlpha"/>
<feOffset/>
<feGaussianBlur stdDeviation="3"/>
<feComposite in2="hardAlpha" operator="out"/>
<feColorMatrix type="matrix" values="0 0 0 0 0.243137 0 0 0 0 0.588235 0 0 0 0 0.956863 0 0 0 0.25 0"/>
<feBlend mode="normal" in2="BackgroundImageFix" result="effect1_dropShadow_1_700"/>
<feBlend mode="normal" in="SourceGraphic" in2="effect1_dropShadow_1_700" result="shape"/>
</filter>
</defs>
</svg>
