<svg width="1024" height="274" viewBox="0 0 1024 274" fill="none" xmlns="http://www.w3.org/2000/svg">
<mask id="mask0_1_4376" style="mask-type:alpha" maskUnits="userSpaceOnUse" x="0" y="0" width="1024" height="274">
<rect y="0.00012207" width="1024" height="274" rx="137" fill="#ECECEC"/>
</mask>
<g mask="url(#mask0_1_4376)">
<path opacity="0.7" d="M828.226 135.759C828.226 140.783 821.032 144.802 812.15 144.802C803.267 144.802 796.073 140.783 796.073 135.759C796.073 130.735 803.257 126.716 812.15 126.716C821.042 126.716 828.226 130.765 828.226 135.759Z" fill="url(#paint0_linear_1_4376)"/>
<path opacity="0.7" d="M883.951 227.726L907.905 213.92L810.954 159.521L787 173.327L883.951 227.726Z" fill="url(#paint1_linear_1_4376)"/>
<path opacity="0.7" d="M922.936 205.259L948.86 190.258L851.909 135.859L825.985 150.86L922.936 205.259Z" fill="url(#paint2_linear_1_4376)"/>
<path opacity="0.7" d="M969.066 178.593L995 163.592L898.049 109.193L872.115 124.205L969.066 178.593Z" fill="url(#paint3_linear_1_4376)"/>
<path opacity="0.7" d="M943.225 216.121C943.225 219.527 948.128 222.291 954.187 222.291C960.246 222.291 965.149 219.527 965.149 216.121C965.149 212.715 960.236 209.952 954.187 209.952C948.138 209.952 943.225 212.715 943.225 216.121Z" fill="url(#paint4_linear_1_4376)"/>
<path d="M823.805 80.6466C822.647 79.8774 821.828 78.6948 821.514 77.3409C820.998 75.2943 820.207 73.327 819.163 71.4931C817.615 68.8405 815.395 67.7352 813.747 68.2878L814.089 75.884C814.089 75.884 817.977 82.7768 818.66 84.4849C819.344 86.193 820.911 86.605 821.092 87.0069C822.097 89.0968 823.614 88.8858 825.915 86.5447C826.679 85.761 826.93 82.616 823.805 80.6466Z" fill="url(#paint5_linear_1_4376)"/>
<path d="M821.042 133.337C821.042 133.337 822.047 134.432 823.403 135.758C824.759 137.085 825.041 137.326 826.206 138.461C826.88 139.114 826.327 139.727 825.031 139.677C823.278 139.506 821.552 139.132 819.886 138.562C818.549 138.002 817.261 137.33 816.038 136.552C815.49 136.229 815.081 135.713 814.893 135.105V133.096L821.042 133.337Z" fill="#421F1D"/>
<path d="M803.498 131.528C804.099 132.341 804.771 133.098 805.508 133.789C806.517 134.755 807.432 135.815 808.241 136.954C808.492 137.286 808.643 138.23 807.347 138.18C805.875 138.036 804.429 137.698 803.046 137.175C801.398 136.582 800.032 134.934 799.027 134.322C798.383 133.829 797.903 133.153 797.651 132.382L798.304 130.373L803.498 131.528Z" fill="#421F1D"/>
<path d="M798.314 130.354C798.314 130.354 799.017 120.627 802.464 112.881C802.464 112.418 803.368 108.269 803.408 107.857C805.598 109.233 807.256 112.83 809.698 113.192C809.628 113.383 809.557 115.533 809.507 115.764C808.643 119.884 805.307 132.092 805.307 132.092C805.307 132.092 803.147 134.574 800.474 133.237C797.801 131.901 798.314 130.354 798.314 130.354Z" fill="#773939"/>
<path d="M821.425 107.805C822.129 116.376 822.078 133.357 822.078 133.357C822.078 133.357 821.928 135.125 818.913 135.105C817.365 134.978 815.925 134.258 814.894 133.096L814.663 111.995C817.426 111.684 819.597 109.855 821.425 107.805Z" fill="#773939"/>
<path d="M819.013 86.6356C818.912 84.3246 818.34 76.9897 818.199 76.1055C817.757 73.3122 817.365 71.3931 816.41 70.5289C813.688 68.0873 807.367 69.4739 807.367 69.4739C807.367 69.4739 802.082 72.1768 801.811 74.2265C801.59 75.8442 805.74 83.9528 804.464 89.7805C802.975 96.7027 801.854 103.699 801.108 110.74C802.112 111.423 807.81 115.131 811.899 115.131C819.013 115.131 821.485 110.911 822.319 109.745C822.288 104.038 819.324 93.9905 819.013 86.6356Z" fill="white"/>
<path d="M812.532 68.5395L813.185 72.3677C813.112 73.0306 812.885 73.6672 812.522 74.2266C811.517 73.6538 810.231 73.694 809.327 72.9203C808.438 72.2872 807.695 71.472 807.146 70.529C807.699 68.874 808.083 67.1672 808.292 65.4347C809.568 64.9223 812.532 68.5395 812.532 68.5395Z" fill="#FFAD9F"/>
<path d="M808.222 65.9673C809.011 67.9234 810.501 69.5144 812.402 70.4285C814.411 71.3227 818.199 66.0979 816.722 61.908C816.529 61.2175 816.171 60.5846 815.678 60.0639C815.185 59.5433 814.572 59.1507 813.893 58.9201C813.214 58.6896 812.489 58.6279 811.781 58.7406C811.073 58.8533 810.403 59.1369 809.83 59.5668C808.574 60.5314 807.489 63.4855 808.222 65.9673Z" fill="#FFC5B3"/>
<path d="M817.062 63.2444C816.61 63.746 816.029 64.1141 815.383 64.3089C814.736 64.5038 814.049 64.5178 813.395 64.3497C812.392 64.1953 811.428 63.8545 810.551 63.3449L810.21 65.5655C810.008 65.5265 809.815 65.4552 809.637 65.3544C809.637 64.4702 809.285 64.1989 808.803 64.4602C808.321 64.7214 808.23 66.0076 808.23 66.0076C807.732 65.4647 807.373 64.8089 807.184 64.0966C806.995 63.3843 806.981 62.6367 807.145 61.9181C807.487 60.3607 809.597 57.2861 812.531 57.5574C813.672 57.5907 814.773 57.9851 815.675 58.6838C816.578 59.3826 817.236 60.3496 817.554 61.4459C817.624 61.7631 817.615 62.0924 817.53 62.4057C817.444 62.7189 817.283 63.0067 817.062 63.2444Z" fill="#722B0C"/>
<path d="M813.92 70.2065C814.499 70.7921 814.975 71.4716 815.327 72.2161C815.036 72.1722 814.739 72.2277 814.484 72.3736C814.228 72.5194 814.03 72.7472 813.92 73.0199C813.601 73.5587 813.109 73.9732 812.523 74.1955C812.667 72.947 812.667 71.6861 812.523 70.4377C812.758 70.509 813.007 70.5253 813.249 70.4852C813.491 70.4451 813.721 70.3498 813.92 70.2065Z" fill="url(#paint6_linear_1_4376)"/>
<path d="M807.448 68.8809C807.448 68.8809 809.337 70.8904 810.553 72.0158C811.267 72.7112 811.938 73.4494 812.562 74.2263C811.976 74.2574 811.39 74.2574 810.804 74.2263C810.552 74.1996 810.298 74.2473 810.073 74.3633C809.848 74.4794 809.662 74.6588 809.538 74.8794C809.538 74.8794 806.614 71.6239 806.624 70.0464C806.639 69.7948 806.725 69.5524 806.87 69.3465C807.016 69.1406 807.216 68.9794 807.448 68.8809Z" fill="url(#paint7_linear_1_4376)"/>
<path d="M807.387 64.7113C807.287 65.073 808.231 65.9673 808.231 65.9673C808.231 65.9673 812.572 65.6458 814.26 65.274C815.356 65.0168 816.384 64.5268 817.274 63.8372C817.274 63.8372 807.809 63.2644 807.387 64.7113Z" fill="url(#paint8_linear_1_4376)"/>
<path d="M807.487 64.8615C807.487 64.8615 806.221 64.5299 805.97 62.2893C805.718 60.0486 806.351 58.1797 808.984 56.7529C811.616 55.3261 813.626 55.507 815.284 56.8735C816.942 58.24 818.871 59.5462 818.941 61.1639C819.012 62.7816 817.022 64.0275 817.022 64.0275C815.831 64.5323 814.557 64.8149 813.264 64.8615C810.893 65.0223 807.487 64.8615 807.487 64.8615Z" fill="white"/>
<path d="M807.217 61.4756C807.09 61.842 807.038 62.2305 807.066 62.6175C807.093 63.0045 807.2 63.3818 807.378 63.7263C807.784 64.3443 808.274 64.9024 808.835 65.3842L809.639 65.3139C808.914 64.7876 808.291 64.1339 807.8 63.3847C807.574 62.7586 807.379 62.1214 807.217 61.4756Z" fill="url(#paint9_linear_1_4376)"/>
<path d="M809.959 61.7566C809.959 61.7566 809.266 62.8317 809.638 63.4446C809.949 64.0755 810.208 64.7308 810.412 65.4039H810.874C810.892 64.775 810.768 64.15 810.512 63.5752C810.233 63.0021 810.046 62.3882 809.959 61.7566Z" fill="url(#paint10_linear_1_4376)"/>
<path d="M814.019 62.6616C813.607 62.9478 813.264 63.3218 813.015 63.7568C812.785 64.2238 812.622 64.7212 812.532 65.2339H812.954C812.979 64.7838 813.103 64.3447 813.316 63.9477L814.019 62.6616Z" fill="url(#paint11_linear_1_4376)"/>
<path d="M812.884 75.2915C812.884 75.2915 813.718 79.9336 813.888 81.5613C814.059 83.1891 813.688 90.323 813.888 93.3876C814.089 96.4522 814.491 102.622 814.672 105.355C814.714 107.995 814.603 110.635 814.341 113.262C815.041 112.041 815.389 110.65 815.345 109.243C815.265 106.892 815.044 101.958 814.722 98.8235C814.466 94.6911 814.466 90.5468 814.722 86.4144C814.839 83.5122 814.576 80.6071 813.939 77.7733C813.691 76.9055 813.337 76.0719 812.884 75.2915Z" fill="url(#paint12_linear_1_4376)"/>
<path d="M810.231 93.2265C810.492 92.0308 810.834 90.9256 809.317 89.5591C808.734 89.0366 806.936 88.8155 805.881 88.1725C805.408 87.8811 804.645 87.8208 803.821 87.4289C804.584 86.1026 804.996 81.5007 805.378 79.8027C806.092 76.6075 805.77 72.2065 803.68 71.7644C799.5 70.9104 797.742 79.8027 797.4 84.1433C797.34 84.9371 797.762 87.2682 797.832 89.1672C797.799 89.5958 797.859 90.0264 798.006 90.4302C798.153 90.834 798.385 91.2016 798.686 91.5083C799.44 92.282 801.249 94.2514 803.158 94.2514C804.448 94.3374 805.727 94.5494 806.976 94.8844C807.627 95.0704 808.325 95.0028 808.929 94.6952C809.533 94.3877 809.998 93.863 810.231 93.2265Z" fill="url(#paint13_linear_1_4376)"/>
<path d="M807.99 67.4041C807.99 67.4041 811.005 71.4232 813.175 70.9008C815.345 70.3783 816.239 67.4041 816.239 67.4041C815.236 67.1292 814.178 67.1292 813.175 67.4041C811.839 67.9065 811.808 68.0472 810.874 67.7558C809.914 67.2854 809.025 66.6834 808.231 65.9673L807.99 67.4041Z" fill="white"/>
<path d="M815.365 58.7427C814.059 58.17 812.029 58.5116 810.019 58.7427C808.01 58.9738 809.105 60.0891 811.024 60.3906C812.943 60.692 814.179 62.7016 816.43 61.948C818.681 61.1944 816.751 59.3154 815.365 58.7427Z" fill="url(#paint14_linear_1_4376)"/>
<path d="M813.868 92.5738L819.274 83.2595C819.663 82.637 820.216 82.1332 820.872 81.8026L825.895 78.9188C826.127 78.8184 826.287 78.8083 826.388 78.8686L826.9 79.16L826.478 79.5418L826.348 79.4212C826.348 79.4212 826.348 79.4715 826.348 79.4916L820.972 88.8059C820.583 89.4283 820.03 89.9322 819.374 90.2628L814.672 92.9857L814.421 93.5082L813.888 93.1968C813.667 93.1164 813.677 92.9054 813.868 92.5738Z" fill="#4E6A82"/>
<path d="M826.306 79.2099L821.282 82.1037C820.628 82.4315 820.075 82.9318 819.685 83.5506L814.379 92.9051C814.058 93.4577 814.259 93.719 814.811 93.4778L819.835 90.584C820.49 90.2562 821.042 89.7559 821.433 89.1372L826.819 79.8229C827.1 79.23 826.899 78.9688 826.306 79.2099Z" fill="#33526D"/>
<path d="M813.244 90.1415C813.998 89.5718 814.896 89.2238 815.837 89.1367C815.837 89.2573 815.153 90.3324 815.153 90.3324C815.153 90.3324 818.047 89.3276 819.172 89.6793C820.177 89.9606 819.816 91.3271 817.535 92.774C816.146 93.4509 814.618 93.7949 813.073 93.7788C812.069 93.7788 809.326 93.5075 809.326 93.5075C809.159 93.3507 809.027 93.1614 808.936 92.9515C808.846 92.7416 808.799 92.5154 808.799 92.2867C808.799 92.0581 808.846 91.8318 808.936 91.6219C809.027 91.412 809.159 91.2228 809.326 91.0659C810.678 91.0017 812.006 90.6883 813.244 90.1415Z" fill="#FFD0CA"/>
<path d="M824.991 82.9878C825.604 83.2892 825.051 85.9419 823.825 86.7658C822.821 87.4591 821.514 86.5949 822.298 85.1179C822.941 84.1346 823.886 83.387 824.991 82.9878Z" fill="#FFD0CA"/>
<path d="M898.129 106.671L901.937 108.831L895.617 112.479L891.809 110.308L898.129 106.671Z" fill="#626F72"/>
<path d="M895.616 116.155L890.01 119.401V38.7774L895.616 35.542V116.155Z" fill="#31393C"/>
<path d="M891.799 33.3618L895.617 35.5422L890.011 38.7776L886.193 36.6073L891.799 33.3618Z" fill="#626F72"/>
<path d="M886.193 36.6074L890.011 38.7777V120.346L886.193 118.447V36.6074Z" fill="#475154"/>
<path d="M883.691 126.726L901.937 116.196V108.831L883.691 119.361V126.726Z" fill="#31393C"/>
<path d="M886.191 113.553L890.01 115.713L883.689 119.361L879.871 117.18L886.191 113.553Z" fill="#626F72"/>
<path d="M879.871 117.18L883.689 119.361V126.726L879.871 124.505V117.18Z" fill="#475154"/>
<path d="M901.174 111.714C901.085 111.678 900.989 111.665 900.895 111.675C900.8 111.686 900.709 111.72 900.631 111.774C900.357 111.968 900.133 112.223 899.977 112.52C899.822 112.817 899.739 113.147 899.737 113.482C899.723 113.617 899.743 113.753 899.796 113.878C899.849 114.003 899.932 114.112 900.038 114.196L903.977 116.416L905.052 113.894L901.174 111.714Z" fill="#421F1D"/>
<path d="M905.493 111.785C905.263 111.691 905.013 111.656 904.766 111.683C904.518 111.709 904.282 111.796 904.076 111.936C903.385 112.43 902.82 113.079 902.425 113.831C902.031 114.583 901.819 115.417 901.805 116.266C901.769 116.611 901.819 116.959 901.953 117.279C902.086 117.598 902.298 117.879 902.569 118.095L976.209 160.447L979.123 154.137L905.493 111.785Z" fill="#819499"/>
<path d="M979.938 155.985C979.925 156.835 979.713 157.669 979.318 158.421C978.924 159.173 978.358 159.822 977.667 160.316C976.421 161.039 975.406 160.316 975.406 158.608C975.418 157.758 975.629 156.923 976.022 156.169C976.414 155.416 976.978 154.764 977.667 154.267C978.923 153.544 979.938 154.317 979.938 155.985Z" fill="#819499"/>
<path d="M978.432 156.337C978.342 156.301 978.244 156.288 978.148 156.298C978.051 156.309 977.959 156.343 977.879 156.397C977.606 156.591 977.383 156.847 977.227 157.144C977.072 157.441 976.989 157.77 976.985 158.105C976.969 158.241 976.989 158.379 977.044 158.504C977.099 158.629 977.186 158.738 977.296 158.819L981.225 161.039L982.31 158.517L978.432 156.337Z" fill="#421F1D"/>
<path d="M966.967 82.3653L965.42 152.74L966.365 154.78L952.619 146.882L956.297 77.6328L966.967 82.3653Z" fill="url(#paint15_linear_1_4376)"/>
<path d="M893.537 39.5109C893.447 39.475 893.35 39.4617 893.254 39.4722C893.157 39.4828 893.065 39.5167 892.985 39.5712C892.712 39.7655 892.489 40.0215 892.333 40.3183C892.178 40.6151 892.095 40.9443 892.091 41.2793C892.076 41.415 892.097 41.5523 892.151 41.6774C892.206 41.8025 892.292 41.9112 892.402 41.9927L896.331 44.2133L897.416 41.6913L893.537 39.5109Z" fill="#3F4849"/>
<path d="M897.858 39.5818C897.627 39.4854 897.375 39.4487 897.126 39.4751C896.876 39.5014 896.638 39.5899 896.431 39.7325C895.743 40.2284 895.181 40.8782 894.788 41.6301C894.396 42.3819 894.184 43.2151 894.171 44.0631C894.131 44.4063 894.18 44.754 894.314 45.0725C894.448 45.3911 894.661 45.6698 894.934 45.8817L968.564 88.2332L971.488 81.9332L897.858 39.5818Z" fill="#819499"/>
<path d="M972.293 83.7818C972.279 84.6298 972.067 85.4629 971.675 86.2148C971.282 86.9666 970.72 87.6165 970.032 88.1124C968.776 88.8358 967.761 88.1124 967.761 86.3942C967.774 85.545 967.986 84.7108 968.381 83.9586C968.775 83.2064 969.341 82.5574 970.032 82.0636C971.278 81.3402 972.293 82.1139 972.293 83.7818Z" fill="#5F6D70"/>
<path d="M970.785 84.1334C970.695 84.0976 970.597 84.0843 970.501 84.0948C970.405 84.1053 970.312 84.1393 970.232 84.1937C969.959 84.3881 969.736 84.644 969.581 84.9408C969.425 85.2376 969.342 85.5669 969.338 85.9019C969.323 86.0376 969.344 86.1748 969.399 86.3C969.453 86.4251 969.54 86.5338 969.649 86.6152L973.578 88.8358L974.663 86.3138L970.785 84.1334Z" fill="#3F4849"/>
<path d="M887.267 119.712C887.177 119.676 887.079 119.663 886.983 119.674C886.887 119.684 886.794 119.718 886.714 119.773C886.443 119.969 886.221 120.225 886.066 120.521C885.911 120.818 885.826 121.146 885.82 121.481C885.804 121.617 885.825 121.754 885.879 121.879C885.934 122.005 886.021 122.113 886.131 122.194L890.06 124.415L891.145 121.903L887.267 119.712Z" fill="#3F4849"/>
<path d="M891.618 119.792C891.388 119.696 891.138 119.659 890.89 119.686C890.642 119.712 890.405 119.8 890.201 119.943C889.51 120.437 888.945 121.086 888.55 121.838C888.156 122.59 887.944 123.424 887.93 124.274C887.891 124.617 887.94 124.965 888.074 125.283C888.207 125.602 888.421 125.88 888.694 126.092L962.334 168.444L965.248 162.134L891.618 119.792Z" fill="#819499"/>
<path d="M966.032 163.983C966.02 164.834 965.809 165.67 965.414 166.424C965.02 167.178 964.453 167.829 963.761 168.324C962.515 169.047 961.49 168.324 961.49 166.606C961.505 165.757 961.718 164.923 962.112 164.171C962.506 163.419 963.071 162.77 963.761 162.275C965.017 161.552 966.032 162.315 966.032 163.983Z" fill="#5F6D70"/>
<path d="M964.524 164.345C964.44 164.298 964.344 164.273 964.248 164.273C964.151 164.273 964.056 164.298 963.971 164.345C963.7 164.541 963.478 164.798 963.323 165.094C963.168 165.391 963.084 165.719 963.077 166.054C963.062 166.19 963.082 166.328 963.135 166.454C963.188 166.58 963.271 166.692 963.378 166.777L967.317 168.998L968.392 166.476L964.524 164.345Z" fill="#3F4849"/>
<path d="M982.782 155.674L986.601 157.834L980.281 161.481L976.472 159.301L982.782 155.674Z" fill="#626F72"/>
<path d="M976.451 82.3647L980.279 84.5351L974.662 87.7705L970.854 85.6001L976.451 82.3647Z" fill="#626F72"/>
<path d="M970.854 85.6001L974.662 87.7704V169.348L970.854 167.449V85.6001Z" fill="#475154"/>
<path d="M974.664 164.717V87.771L980.28 84.5356V161.482L986.6 157.834V165.189L968.344 175.719V168.364L974.664 164.717Z" fill="#31393C"/>
<path d="M970.855 162.547L974.663 164.717L968.343 168.365L964.535 166.184L970.855 162.547Z" fill="#626F72"/>
<path d="M964.535 166.183L968.343 168.363V175.718L964.535 173.508V166.183Z" fill="#475154"/>
<path d="M898.451 46.1626C898.511 45.3789 898.744 44.6181 899.131 43.934C899.518 43.2499 900.051 42.6592 900.691 42.2038C900.893 42.0638 901.126 41.9767 901.37 41.9504C901.614 41.924 901.861 41.9593 902.088 42.0531L966.394 79.0088L962.706 83.2992L959.019 158.557L894.572 121.511L898.451 46.1626Z" fill="url(#paint16_linear_1_4376)"/>
<path d="M969.992 150.248C969.978 151.096 969.766 151.929 969.374 152.681C968.981 153.433 968.419 154.083 967.731 154.578C966.475 155.302 965.46 154.578 965.46 152.86C965.473 152.011 965.685 151.177 966.08 150.425C966.474 149.673 967.04 149.023 967.731 148.53C968.987 147.806 969.992 148.58 969.992 150.248Z" fill="#819499"/>
<path d="M966.729 82.9331C967.48 81.1663 967.279 79.3888 966.278 78.9629C965.277 78.5371 963.856 79.6241 963.104 81.3909C962.353 83.1576 962.555 84.9351 963.555 85.3609C964.556 85.7868 965.977 84.6998 966.729 82.9331Z" fill="#819499"/>
<path d="M958.989 166.616L894.543 129.579L865.786 88.5342L930.233 125.58L958.989 166.616Z" fill="url(#paint17_linear_1_4376)"/>
<path d="M831.06 118.376L842.736 111.634V77.0297L850.945 72.2871V136.814L830.789 148.459L826.971 126.786L831.06 118.376Z" fill="#B71A1A"/>
<path d="M838.575 122.898L850.251 116.156V81.5511L858.47 76.8086V141.336L838.304 152.981L834.496 131.308L838.575 122.898Z" fill="#31393C"/>
<path d="M850.945 72.2871L858.471 76.8086L850.252 81.5512L842.736 77.0297L850.945 72.2871Z" fill="#626F72"/>
<path d="M842.736 111.634L850.252 116.156L838.576 122.898L831.061 118.376L842.736 111.634Z" fill="#626F72"/>
<path d="M842.736 77.0293L850.252 81.5508V116.155L842.736 111.634V77.0293Z" fill="#475154"/>
<path d="M826.971 126.786L834.497 131.308L838.305 152.981L830.789 148.459L826.971 126.786Z" fill="#475154"/>
<path d="M838.576 122.898L834.497 131.308L826.971 126.786L831.06 118.376L838.576 122.898Z" fill="#525D5E"/>
<path d="M856.701 80.2445C856.461 80.1453 856.2 80.1079 855.942 80.136C855.684 80.1641 855.437 80.2567 855.224 80.4053C854.512 80.9157 853.929 81.5861 853.522 82.3626C853.116 83.1391 852.897 84.0002 852.883 84.8766C852.845 85.2314 852.898 85.5901 853.037 85.9189C853.176 86.2476 853.396 86.5356 853.677 86.7555L929.709 130.484L932.723 123.973L856.701 80.2445Z" fill="#819499"/>
<path d="M933.557 125.882C933.544 126.758 933.326 127.62 932.919 128.396C932.513 129.173 931.929 129.843 931.216 130.353C929.92 131.097 928.875 130.353 928.875 128.585C928.887 127.708 929.105 126.846 929.512 126.07C929.919 125.293 930.502 124.623 931.216 124.113C932.512 123.36 933.557 124.154 933.557 125.882Z" fill="#819499"/>
<path d="M843.128 127.53C843.112 128.793 842.799 130.034 842.214 131.153C841.629 132.272 840.789 133.237 839.762 133.971C837.893 135.046 836.386 133.901 836.386 131.419C836.404 130.157 836.72 128.918 837.306 127.8C837.893 126.683 838.734 125.72 839.762 124.988C841.621 123.913 843.128 125.058 843.128 127.53Z" fill="#475154"/>
<path d="M837.661 113.071L849.417 106.269L850.201 106.701L849.417 109.484L837.631 116.297C836.968 116.678 836.426 116.297 836.426 115.382C836.435 114.927 836.552 114.48 836.767 114.079C836.982 113.677 837.288 113.332 837.661 113.071Z" fill="#626F72"/>
<path d="M837.621 116.768L836.837 116.336L836.978 115.663L837.842 115.985L837.621 116.768Z" fill="#626F72"/>
<path d="M838.445 113.503L850.231 106.701V109.926L838.445 116.728C837.782 117.11 837.239 116.728 837.239 115.814C837.247 115.362 837.36 114.917 837.569 114.516C837.779 114.115 838.078 113.768 838.445 113.503Z" fill="#31393C"/>
<path d="M840.504 128.193C840.414 128.157 840.317 128.144 840.22 128.154C840.124 128.165 840.032 128.199 839.952 128.253C839.679 128.447 839.456 128.703 839.3 129C839.145 129.297 839.062 129.626 839.057 129.961C839.043 130.097 839.064 130.234 839.118 130.359C839.173 130.484 839.259 130.593 839.369 130.675L843.298 132.895L844.383 130.373L840.504 128.193Z" fill="#3F4849"/>
<path d="M844.756 131.087C844.75 131.422 844.665 131.75 844.51 132.046C844.355 132.343 844.133 132.599 843.862 132.795C843.37 133.077 842.968 132.795 842.968 132.112C842.974 131.777 843.059 131.449 843.214 131.153C843.369 130.856 843.591 130.6 843.862 130.404C844.395 130.163 844.756 130.464 844.756 131.087Z" fill="#3F4849"/>
<path d="M844.393 131.368C844.395 131.564 844.349 131.758 844.26 131.933C844.171 132.108 844.041 132.259 843.88 132.372C843.609 132.533 843.378 132.372 843.378 131.991C843.377 131.795 843.422 131.603 843.509 131.428C843.597 131.254 843.724 131.102 843.88 130.986C844.152 130.825 844.393 130.996 844.393 131.368Z" fill="#3F4849"/>
<path d="M852.019 124.235C851.309 123.942 850.536 123.831 849.773 123.914C849.009 123.996 848.279 124.269 847.648 124.707C843.799 126.928 840.685 132.886 840.685 138.01C840.685 140.773 841.589 142.733 843.026 143.607L907.472 180.593L916.445 161.231L852.019 124.235Z" fill="white"/>
<path d="M917.527 173.288C919.838 167.855 919.22 162.39 916.147 161.082C913.073 159.774 908.707 163.118 906.395 168.551C904.083 173.984 904.701 179.449 907.775 180.757C910.849 182.065 915.215 178.721 917.527 173.288Z" fill="url(#paint18_linear_1_4376)"/>
<path d="M917.621 168.203C917.621 171.971 915.33 176.342 912.506 177.979C909.683 179.617 907.382 177.879 907.382 174.111C907.382 170.343 909.673 165.962 912.506 164.335C915.34 162.707 917.621 164.435 917.621 168.203Z" fill="url(#paint19_linear_1_4376)"/>
<path d="M916.105 169.379C916.088 170.642 915.774 171.884 915.187 173.003C914.601 174.122 913.759 175.087 912.729 175.819C910.87 176.895 909.363 175.759 909.363 173.277C909.379 172.015 909.692 170.774 910.277 169.655C910.862 168.536 911.702 167.571 912.729 166.837C914.598 165.762 916.105 166.897 916.105 169.379Z" fill="#253F56"/>
<path d="M913.532 170.383C913.442 170.348 913.345 170.334 913.248 170.345C913.152 170.355 913.06 170.389 912.98 170.444C912.707 170.638 912.483 170.894 912.328 171.191C912.173 171.488 912.09 171.817 912.085 172.152C912.071 172.287 912.092 172.423 912.144 172.547C912.197 172.672 912.28 172.781 912.387 172.865L916.326 175.086L917.401 172.564L913.532 170.383Z" fill="#31393C"/>
<path d="M917.743 173.288C917.737 173.623 917.653 173.952 917.498 174.248C917.342 174.545 917.12 174.801 916.848 174.996C916.346 175.278 915.954 174.996 915.954 174.323C915.957 173.988 916.039 173.658 916.195 173.361C916.35 173.064 916.574 172.808 916.848 172.615C917.381 172.354 917.743 172.655 917.743 173.288Z" fill="#31393C"/>
<path d="M917.401 173.568C917.406 173.764 917.362 173.958 917.275 174.133C917.187 174.308 917.058 174.46 916.898 174.573C916.617 174.734 916.396 174.573 916.396 174.191C916.391 173.995 916.434 173.801 916.522 173.626C916.609 173.451 916.739 173.3 916.898 173.186C917.18 173.026 917.401 173.196 917.401 173.568Z" fill="#31393C"/>
<path d="M856.27 109.534C856.18 109.498 856.083 109.485 855.987 109.495C855.89 109.506 855.798 109.54 855.718 109.594C855.445 109.789 855.222 110.045 855.066 110.341C854.911 110.638 854.828 110.968 854.824 111.302C854.81 111.437 854.83 111.573 854.883 111.698C854.935 111.823 855.019 111.932 855.125 112.016L859.064 114.236L860.139 111.714L856.27 109.534Z" fill="#874545"/>
<path d="M860.52 112.468C860.513 112.803 860.429 113.131 860.274 113.428C860.119 113.724 859.897 113.98 859.626 114.176C859.123 114.458 858.731 114.176 858.731 113.503C858.734 113.168 858.817 112.838 858.972 112.541C859.128 112.244 859.352 111.988 859.626 111.795C860.118 111.504 860.52 111.805 860.52 112.468Z" fill="#773939"/>
<path d="M860.139 112.72C860.144 112.915 860.1 113.109 860.013 113.285C859.925 113.46 859.796 113.611 859.636 113.724C859.355 113.885 859.134 113.724 859.134 113.343C859.132 113.147 859.177 112.954 859.264 112.78C859.352 112.605 859.479 112.454 859.636 112.338C859.918 112.167 860.139 112.338 860.139 112.72Z" fill="#773939"/>
<path d="M867.785 105.575C867.075 105.282 866.303 105.172 865.54 105.254C864.776 105.337 864.045 105.609 863.414 106.047C859.566 108.268 856.451 114.226 856.451 119.351C856.451 122.114 857.355 124.073 858.792 124.947L923.239 161.933L932.201 142.571L867.785 105.575Z" fill="url(#paint20_linear_1_4376)"/>
<path d="M934.693 148.248C934.693 153.373 931.578 159.301 927.73 161.551C923.881 163.802 920.767 161.421 920.767 156.286C920.767 151.152 923.881 145.234 927.73 142.983C931.578 140.732 934.693 143.144 934.693 148.248Z" fill="url(#paint21_linear_1_4376)"/>
<path d="M931.162 153.797C932.281 151.167 931.983 148.523 930.497 147.891C929.011 147.259 926.9 148.878 925.781 151.508C924.662 154.137 924.959 156.782 926.445 157.414C927.931 158.046 930.043 156.427 931.162 153.797Z" fill="#31393C"/>
<path d="M929.286 151.725C929.196 151.689 929.099 151.676 929.003 151.686C928.906 151.697 928.814 151.731 928.734 151.785C928.461 151.979 928.238 152.235 928.082 152.532C927.927 152.829 927.844 153.158 927.84 153.493C927.825 153.629 927.846 153.766 927.9 153.891C927.955 154.016 928.041 154.125 928.151 154.207L932.08 156.427L933.165 153.905L929.286 151.725Z" fill="#874545"/>
<path d="M933.536 154.659C933.531 154.994 933.448 155.324 933.293 155.62C933.137 155.917 932.914 156.173 932.641 156.367C932.149 156.649 931.747 156.367 931.747 155.694C931.751 155.359 931.834 155.03 931.99 154.733C932.145 154.436 932.368 154.18 932.641 153.986C933.134 153.695 933.536 153.996 933.536 154.659Z" fill="#773939"/>
<path d="M933.165 154.91C933.17 155.105 933.127 155.299 933.04 155.475C932.952 155.65 932.823 155.801 932.663 155.914C932.382 156.075 932.151 155.914 932.151 155.533C932.148 155.336 932.193 155.142 932.282 154.966C932.371 154.791 932.502 154.641 932.663 154.528C932.944 154.367 933.165 154.538 933.165 154.91Z" fill="#773939"/>
<path d="M845.78 111.905C845.542 111.808 845.283 111.772 845.026 111.8C844.77 111.828 844.525 111.919 844.313 112.066C843.6 112.576 843.017 113.246 842.61 114.023C842.204 114.8 841.985 115.661 841.972 116.538C841.932 116.892 841.983 117.25 842.12 117.579C842.257 117.908 842.476 118.196 842.756 118.416L918.747 162.144L921.762 155.633L845.78 111.905Z" fill="#6B797C"/>
<path d="M922.636 157.543C922.624 158.42 922.406 159.281 921.999 160.058C921.593 160.835 921.009 161.505 920.295 162.014C918.999 162.768 917.954 162.014 917.954 160.246C917.967 159.369 918.185 158.508 918.592 157.731C918.998 156.955 919.582 156.285 920.295 155.775C921.591 155.031 922.636 155.825 922.636 157.543Z" fill="#4B5456"/>
<path d="M915.502 167.249L927.177 160.507V125.902L935.396 121.159V185.686L915.23 197.332L911.412 175.659L915.502 167.249Z" fill="#B71A1A"/>
<path d="M923.018 171.77L934.693 165.028V130.413L942.913 125.671V190.208L922.747 201.843L918.938 180.18L923.018 171.77Z" fill="#31393C"/>
<path d="M923.469 172.474L931.899 167.601V195.383L923.449 200.256L919.872 179.899L923.469 172.474Z" fill="white"/>
<path d="M923.771 177.879L930.644 173.91V170.102L923.771 174.081V177.879Z" fill="#31393C"/>
<path d="M923.771 179.185L930.644 175.216V174.413L923.771 178.392V179.185Z" fill="#31393C"/>
<path d="M924.254 177.005L930.162 173.599V170.987L924.254 174.393V177.005Z" fill="white"/>
<path d="M935.396 121.159L942.912 125.671L934.693 130.413L927.177 125.902L935.396 121.159Z" fill="#626F72"/>
<path d="M927.177 160.507L934.692 165.028L923.017 171.77L915.501 167.249L927.177 160.507Z" fill="#626F72"/>
<path d="M926.997 161.622L932.654 165.028L923.199 170.374L917.542 166.978L926.997 161.622Z" fill="white"/>
<path d="M927.177 125.902L934.693 130.414V165.028L927.177 160.507V125.902Z" fill="#475154"/>
<path d="M911.412 175.658L918.938 180.18L922.746 201.843L915.23 197.332L911.412 175.658Z" fill="#475154"/>
<path d="M923.017 171.77L918.938 180.18L911.412 175.659L915.502 167.249L923.017 171.77Z" fill="#525D5E"/>
<path d="M937.818 176.804L940.751 175.106V169.741L937.818 171.429V176.804Z" fill="url(#paint22_linear_1_4376)"/>
<path d="M938.238 174.122L940.328 172.906V170.555L938.238 171.77V174.122Z" fill="#1C2F3F"/>
<path d="M937.818 171.429L935.819 170.223V175.598L937.818 176.804V171.429Z" fill="url(#paint23_linear_1_4376)"/>
<path d="M938.753 168.534L940.752 169.74L937.818 171.428L935.819 170.222L938.753 168.534Z" fill="url(#paint24_linear_1_4376)"/>
<path d="M924.705 163.32L926.815 164.536L927.257 164.275L925.157 163.059L924.705 163.32Z" fill="#475154"/>
<path d="M926.636 165.43C926.636 165.942 927.379 166.354 928.294 166.354C929.208 166.354 929.942 165.942 929.942 165.43C929.942 164.918 929.208 164.496 928.294 164.496C927.379 164.496 926.636 164.918 926.636 165.43Z" fill="#475154"/>
<path d="M929.608 164.496V165.249C929.608 165.661 929.015 165.993 928.292 165.993C927.568 165.993 926.976 165.661 926.976 165.249V164.476L929.608 164.496Z" fill="#3E96F4"/>
<path d="M928.292 165.279C929.019 165.279 929.608 164.946 929.608 164.536C929.608 164.125 929.019 163.792 928.292 163.792C927.565 163.792 926.976 164.125 926.976 164.536C926.976 164.946 927.565 165.279 928.292 165.279Z" fill="url(#paint25_linear_1_4376)"/>
<path d="M920.929 165.521L923.039 166.736L923.491 166.475L921.381 165.259L920.929 165.521Z" fill="#475154"/>
<path d="M922.866 167.631C922.866 168.143 923.61 168.555 924.524 168.555C925.438 168.555 926.172 168.143 926.172 167.631C926.172 167.118 925.428 166.696 924.524 166.696C923.62 166.696 922.866 167.118 922.866 167.631Z" fill="#475154"/>
<path d="M925.83 166.696V167.47C925.83 167.882 925.248 168.203 924.524 168.203C923.801 168.203 923.208 167.882 923.208 167.47V166.696H925.83Z" fill="#3E96F4"/>
<path d="M924.524 167.48C925.251 167.48 925.841 167.147 925.841 166.736C925.841 166.326 925.251 165.993 924.524 165.993C923.797 165.993 923.208 166.326 923.208 166.736C923.208 167.147 923.797 167.48 924.524 167.48Z" fill="url(#paint26_linear_1_4376)"/>
<path d="M840.886 112.468C840.649 112.366 840.39 112.327 840.133 112.353C839.876 112.38 839.631 112.471 839.419 112.619C838.706 113.129 838.123 113.799 837.716 114.575C837.309 115.352 837.091 116.213 837.078 117.09C837.038 117.444 837.088 117.802 837.226 118.131C837.363 118.46 837.582 118.749 837.862 118.969L913.893 162.697L916.908 156.186L840.886 112.468Z" fill="#819499"/>
<path d="M917.742 158.094C917.729 158.972 917.511 159.835 917.104 160.613C916.697 161.392 916.114 162.064 915.401 162.576C914.104 163.319 913.06 162.525 913.06 160.797C913.072 159.921 913.291 159.059 913.697 158.283C914.104 157.506 914.688 156.836 915.401 156.326C916.737 155.582 917.742 156.376 917.742 158.094Z" fill="#5F6D70"/>
<path d="M915.37 157.904L927.146 151.102L927.93 151.534L927.146 154.327L915.37 161.129C914.697 161.511 914.154 161.129 914.154 160.215C914.162 159.761 914.276 159.316 914.487 158.914C914.698 158.513 915.001 158.167 915.37 157.904Z" fill="#475154"/>
<path d="M915.33 161.611L914.536 161.169L914.687 160.496L915.541 160.828L915.33 161.611Z" fill="#475154"/>
<path d="M916.145 158.346L927.931 151.534V154.759L916.145 161.572C915.482 161.954 914.939 161.572 914.939 160.657C914.946 160.205 915.058 159.76 915.267 159.358C915.477 158.957 915.777 158.61 916.145 158.346Z" fill="#31393C"/>
<path d="M921.762 158.346C921.755 158.88 921.622 159.405 921.374 159.878C921.126 160.352 920.77 160.76 920.335 161.069C919.551 161.532 918.908 161.069 918.908 159.994C918.917 159.459 919.051 158.934 919.299 158.459C919.547 157.985 919.901 157.575 920.335 157.261C921.089 156.809 921.762 157.291 921.762 158.346Z" fill="#31393C"/>
<path d="M863.726 84.2847L860.34 86.6559L848.403 116.88L912.87 153.876L924.726 123.883L927.982 121.25L863.726 84.2847Z" fill="white"/>
<path d="M926.454 125.993C925.961 126.545 925.449 127.108 924.977 127.711C924.733 127.483 924.545 127.202 924.427 126.891C924.309 126.579 924.263 126.244 924.293 125.912C924.309 125.035 924.528 124.173 924.934 123.395C925.341 122.617 925.923 121.945 926.634 121.431C927.921 120.697 928.956 121.431 928.976 123.159C928.132 124.053 927.288 125.058 926.454 125.993Z" fill="#819499"/>
<path d="M864.489 86.1432C864.476 87.0211 864.258 87.8839 863.851 88.6622C863.445 89.4404 862.861 90.1125 862.148 90.6245C860.862 91.368 859.807 90.5743 859.807 88.846C859.823 87.9701 860.042 87.1099 860.449 86.3337C860.855 85.5576 861.437 84.8869 862.148 84.3748C863.484 83.6312 864.489 84.425 864.489 86.1432Z" fill="white"/>
<path d="M798.978 174.834L817.225 164.304V136.643L798.978 147.173V174.834Z" fill="#31393C"/>
<path d="M795.169 144.993L813.416 134.403L817.224 136.643L798.977 147.174L795.169 144.993Z" fill="#626F72"/>
<path d="M798.808 165.4L817.064 154.81L897.899 201.602L879.642 212.132L798.808 165.4Z" fill="#626F72"/>
<path d="M807.297 145.837C807.197 145.795 807.088 145.78 806.981 145.792C806.874 145.805 806.772 145.844 806.684 145.907C806.38 146.123 806.131 146.408 805.956 146.737C805.782 147.067 805.687 147.433 805.679 147.806C805.664 147.957 805.688 148.108 805.748 148.247C805.807 148.386 805.901 148.507 806.021 148.6L810.402 151.072L811.597 148.268L807.297 145.837Z" fill="#3F4849"/>
<path d="M812.03 149.102C812.021 149.475 811.926 149.84 811.752 150.17C811.577 150.5 811.329 150.784 811.025 151.001C810.472 151.322 810.02 151.001 810.02 150.247C810.026 149.874 810.121 149.507 810.295 149.177C810.47 148.847 810.72 148.563 811.025 148.348C811.578 148.037 812.03 148.368 812.03 149.102Z" fill="#3F4849"/>
<path d="M811.608 149.374C811.606 149.585 811.554 149.793 811.457 149.98C811.359 150.167 811.218 150.327 811.045 150.449C810.734 150.63 810.482 150.449 810.482 150.027C810.486 149.816 810.538 149.609 810.636 149.422C810.734 149.236 810.874 149.075 811.045 148.952C811.357 148.771 811.608 148.962 811.608 149.374Z" fill="#3F4849"/>
<path d="M820.109 141.445C819.32 141.117 818.462 140.992 817.612 141.081C816.762 141.171 815.949 141.472 815.246 141.958C810.976 144.43 807.499 151.061 807.499 156.758C807.499 159.833 808.504 162.013 810.111 162.978L881.782 204.174L891.76 182.631C891.76 182.631 820.28 141.506 820.109 141.445Z" fill="white"/>
<path d="M891.386 195.196C893.948 189.151 893.253 183.075 889.832 181.625C886.412 180.175 881.561 183.9 878.999 189.945C876.437 195.989 877.132 202.065 880.553 203.515C883.973 204.965 888.824 201.24 891.386 195.196Z" fill="url(#paint27_linear_1_4376)"/>
<path d="M893.066 190.369C893.066 194.559 890.524 199.412 887.379 201.241C884.234 203.069 881.682 201.13 881.682 196.94C881.682 192.75 884.234 187.897 887.379 186.069C890.524 184.24 893.066 186.149 893.066 190.369Z" fill="url(#paint28_linear_1_4376)"/>
<path d="M891.376 191.655C891.376 194.408 889.698 197.623 887.628 198.809C885.558 199.995 883.88 198.739 883.88 195.976C883.88 193.212 885.558 190.017 887.628 188.822C889.698 187.626 891.376 188.892 891.376 191.655Z" fill="#253F56"/>
<path d="M888.513 192.77C888.414 192.726 888.306 192.709 888.199 192.719C888.091 192.73 887.988 192.768 887.9 192.83C887.596 193.047 887.347 193.331 887.173 193.661C886.998 193.991 886.903 194.357 886.895 194.73C886.88 194.88 886.903 195.032 886.963 195.171C887.023 195.31 887.117 195.431 887.237 195.523L891.618 197.995L892.814 195.192L888.513 192.77Z" fill="#874545"/>
<path d="M893.246 196.026C893.238 196.399 893.143 196.765 892.969 197.094C892.794 197.424 892.545 197.709 892.241 197.925C891.688 198.246 891.236 197.925 891.236 197.171C891.244 196.798 891.339 196.432 891.513 196.102C891.688 195.773 891.937 195.488 892.241 195.272C892.794 194.961 893.246 195.292 893.246 196.026Z" fill="#773939"/>
<path d="M892.825 196.306C892.821 196.517 892.769 196.724 892.671 196.911C892.573 197.098 892.433 197.259 892.262 197.381C891.95 197.552 891.699 197.381 891.699 196.949C891.702 196.739 891.755 196.532 891.853 196.345C891.95 196.158 892.091 195.997 892.262 195.874C892.624 195.693 892.825 195.884 892.825 196.306Z" fill="#773939"/>
<path d="M883.399 223.979L901.646 213.449V185.787L883.399 196.317V223.979Z" fill="#31393C"/>
<path d="M879.581 194.137L897.838 183.547L901.646 185.788L883.399 196.318L879.581 194.137Z" fill="#626F72"/>
<path d="M798.977 147.173V165.44L879.58 211.981V194.136L883.399 196.317V223.978L879.58 221.758V215.568L798.977 169.037V174.835L795.169 172.614V144.993L798.977 147.173Z" fill="#475154"/>
<path d="M949.643 162.366L942.207 166.586L938.027 153.453L945.463 149.243L949.643 162.366Z" fill="#31393C"/>
<path d="M949.926 162.225L942.49 166.445L938.31 153.323L945.736 149.103L949.926 162.225Z" fill="#475154"/>
<path d="M949.062 160.989L942.732 164.576L939.165 153.402L945.495 149.815L949.062 160.989Z" fill="white"/>
<path d="M947.796 155.613L948.258 157.06C947.91 157.264 947.574 157.489 947.253 157.733C946.952 157.995 947.203 158.246 947.575 158.246C948.029 158.291 948.487 158.291 948.941 158.246L949.584 158.045L950.478 156.508C949.717 155.904 948.767 155.587 947.796 155.613Z" fill="#FFC4B2"/>
<path d="M940.742 161.682C941.182 161.489 941.65 161.367 942.128 161.32C942.56 161.32 942.63 161.481 942.52 161.682C942.417 161.865 942.253 162.007 942.058 162.084C941.72 162.387 941.413 162.724 941.143 163.089C940.882 163.411 940.709 163.795 940.641 164.204C940.641 164.204 941.063 166.033 940.179 165.209C939.114 164.204 938.35 162.195 938.863 161.19C939.15 160.614 939.546 160.099 940.028 159.673L940.742 161.682Z" fill="#FFC4B2"/>
<path d="M959.621 150.539C960.315 150.336 961.057 150.378 961.723 150.658C962.389 150.938 962.938 151.439 963.279 152.076C964.565 154.367 963.59 157.894 962.756 159.11C961.922 160.325 958.536 156.688 958.536 156.688L959.621 150.539Z" fill="url(#paint29_linear_1_4376)"/>
<path d="M956.808 213.589C955.532 212.946 954.327 212.172 954.708 211.438C954.824 211.278 954.975 211.146 955.149 211.052C955.323 210.959 955.516 210.905 955.713 210.896C956.356 211.131 957.039 211.24 957.723 211.217C957.723 211.217 956.969 199.16 956.909 195.744C956.909 194.799 961.169 194.116 961.169 194.116C961.563 195.602 961.775 197.13 961.802 198.668C961.802 202.687 961.089 208.635 960.888 210.906C960.87 211.724 960.992 212.54 961.25 213.317L959.853 213.94C959.352 214.114 958.818 214.172 958.291 214.111C957.764 214.05 957.257 213.872 956.808 213.589Z" fill="#FFC4B2"/>
<path d="M961.23 215.176C960.798 216.181 959.813 216.101 957.823 215.387C956.226 214.851 954.716 214.083 953.342 213.107C952.086 212.172 952.076 212.102 951.915 211.419C951.684 210.544 952.92 210.052 955.1 210.715L955.683 210.896C955.486 210.905 955.293 210.959 955.119 211.053C954.945 211.147 954.794 211.279 954.678 211.439C954.297 212.172 955.502 212.946 956.778 213.589C957.217 213.86 957.709 214.032 958.222 214.093C958.734 214.153 959.253 214.102 959.743 213.941L961.139 213.318C961.3 214.172 961.481 214.574 961.23 215.176Z" fill="#31393C"/>
<path d="M950.599 217.196C949.323 216.553 948.107 215.779 948.499 215.046C948.614 214.885 948.764 214.752 948.938 214.658C949.112 214.564 949.306 214.511 949.504 214.503C950.079 214.713 950.675 214.861 951.282 214.945C951.539 211.653 951.623 208.349 951.533 205.048C951.377 201.606 951.011 198.177 950.438 194.779C950.267 193.845 954.859 193.775 954.859 193.775C954.909 193.976 956.386 197.563 956.406 199.643C956.406 204.335 954.879 212.062 954.668 214.483C954.641 215.303 954.75 216.121 954.99 216.905C954.688 217.035 954.055 217.307 953.593 217.528C953.1 217.691 952.576 217.747 952.06 217.689C951.543 217.632 951.044 217.464 950.599 217.196Z" fill="#FFC4B2"/>
<path d="M955.01 218.784C954.588 219.789 953.603 219.708 951.614 218.995C950.016 218.455 948.506 217.683 947.132 216.704C945.876 215.78 945.866 215.699 945.696 215.026C945.464 214.152 946.7 213.65 948.881 214.323L949.474 214.504C949.276 214.511 949.082 214.564 948.908 214.658C948.734 214.752 948.584 214.885 948.469 215.046C948.077 215.78 949.293 216.553 950.569 217.196C951.009 217.463 951.501 217.633 952.013 217.693C952.524 217.754 953.042 217.704 953.533 217.548C953.995 217.327 954.628 217.056 954.929 216.925C955.09 217.779 955.271 218.171 955.01 218.784Z" fill="#31393C"/>
<path d="M955.271 139.377C954.749 139.748 952.779 140.2 952.257 144.541C951.764 148.379 952.618 149.384 953.392 149.716C954.054 149.843 954.728 149.901 955.402 149.887L955.341 153.132C956.55 153.565 957.871 153.565 959.079 153.132L960.898 152.378C960.4 151.334 960.196 150.174 960.305 149.022C960.456 146.38 961.39 142.622 960.727 141.225C960.525 140.716 960.215 140.256 959.818 139.878C959.421 139.501 958.946 139.214 958.427 139.038C957.908 138.862 957.357 138.801 956.812 138.86C956.267 138.918 955.741 139.095 955.271 139.377Z" fill="#FFC4B2"/>
<path d="M963.429 157.633C962.625 151.283 960.887 150.971 960.887 150.971C960.887 150.971 956.024 152.227 954.698 152.68C953.372 153.132 952.316 153.745 951.01 156.367C949.704 158.99 951.362 162.828 951.362 162.828C951.523 165.231 951.446 167.644 951.131 170.032C950.749 172.936 950.438 173.187 949.292 177.749C948.679 180.15 946.469 189.022 946.187 195.955C946.187 195.955 947.926 198.598 953.763 198.97C957.782 199.241 964.545 195.111 964.545 195.111C964.545 195.111 965.459 177.839 963.027 171.79C961.359 167.651 963.821 160.768 963.429 157.633Z" fill="white"/>
<path d="M955.08 145.706C956.155 146.832 957.21 147.184 957.532 148.198C961.31 148.249 962.938 146.189 963.772 142.391C962.385 140.11 960.516 138.372 958.597 138C953.955 136.995 952.156 139.115 952.438 142.17C952.578 143.667 953.985 144.571 955.08 145.706Z" fill="#703434"/>
<path d="M952.91 154.709C950.9 154.91 946.881 164.023 946.881 164.023L946.409 164.124C946.188 165.364 946.157 166.631 946.318 167.881C947.012 167.912 947.702 167.771 948.328 167.469C948.328 167.469 954.849 162.134 954.989 159.009C955.1 156.568 953.985 154.608 952.91 154.709Z" fill="#FFC4B2"/>
<path d="M953.362 145.154C953.362 145.154 954.508 143.195 955 145.154C955.141 145.627 955.103 146.135 954.894 146.581C954.684 147.028 954.318 147.382 953.865 147.576L953.362 145.154Z" fill="#FFC4B2"/>
<path d="M952.086 143.666C951.475 142.467 951.227 141.116 951.372 139.778C951.573 137.407 954.065 135.387 957.964 136.301C959.482 136.603 960.879 137.344 961.981 138.432C963.083 139.519 963.841 140.906 964.163 142.42C964.937 145.103 964.636 147.685 962.435 148.359C960.235 149.032 956.668 149.363 955.402 147.525C954.459 146.107 953.346 144.811 952.086 143.666Z" fill="white"/>
<path d="M952.478 140.712C952.478 140.712 952.578 142.229 952.658 142.973C952.712 143.561 952.869 144.136 953.121 144.671C953.419 144.044 953.487 143.333 953.312 142.661L952.478 140.712Z" fill="url(#paint30_linear_1_4376)"/>
<path d="M954.697 142.491C954.697 142.491 954.335 143.938 954.225 144.671C954.163 145.043 954.126 145.419 954.114 145.796C954.358 145.761 954.585 145.651 954.765 145.482C954.945 145.313 955.068 145.093 955.119 144.852C955.157 144.043 955.013 143.236 954.697 142.491Z" fill="url(#paint31_linear_1_4376)"/>
<path d="M958.535 147.002C957.953 147.028 957.372 146.935 956.827 146.731C956.181 146.51 955.5 146.411 954.817 146.44C955.118 146.753 955.479 147.003 955.877 147.175C956.275 147.348 956.704 147.439 957.138 147.445C958.374 147.314 958.535 147.002 958.535 147.002Z" fill="url(#paint32_linear_1_4376)"/>
<path d="M951.774 142.973L952.086 144.038C952.579 144.337 953.012 144.726 953.362 145.184C953.813 145.741 954.31 146.258 954.849 146.731C954.317 145.641 953.641 144.627 952.839 143.717C952.519 143.422 952.161 143.172 951.774 142.973Z" fill="url(#paint33_linear_1_4376)"/>
<path d="M955 136.834C953.443 136.834 952.83 137.607 952.991 138.301C953.152 138.994 953.996 139.245 954.89 139.778C956.286 140.855 957.241 142.406 957.573 144.139C957.726 145.025 958.158 145.84 958.807 146.464C959.456 147.088 960.287 147.487 961.18 147.605C962.657 147.605 963.511 147.364 963.812 145.957C964.114 144.55 963.993 143.556 963.139 144.048C961.321 145.053 959.381 145.304 958.899 142.973C958.417 140.642 957.08 140.059 956.035 139.024C954.99 137.989 956.769 136.834 955 136.834Z" fill="url(#paint34_linear_1_4376)"/>
<path d="M953.432 153.272C954.343 151.989 955.671 151.063 957.19 150.649C958.21 150.442 959.217 150.17 960.204 149.835L960.837 150.971C958.41 151.867 955.939 152.635 953.432 153.272Z" fill="url(#paint35_linear_1_4376)"/>
<path d="M953.433 154.458C952.428 154.076 951.635 154.89 950.72 156.015C949.806 157.14 947.023 162.747 946.611 162.938C946.199 163.129 946.048 162.536 945.284 162.938C945.045 163.09 944.77 163.177 944.486 163.191C944.203 163.205 943.92 163.145 943.667 163.018C942.907 162.86 942.139 162.746 941.366 162.677C941.065 162.781 940.791 162.951 940.564 163.174C940.337 163.398 940.162 163.669 940.053 163.969C939.945 164.268 939.904 164.588 939.935 164.905C939.965 165.222 940.066 165.529 940.23 165.802C941.235 166.183 943.305 167.148 945.546 167.882C946.952 168.354 948.078 168.585 949.334 167.882C950.59 167.178 954.971 162.858 955.453 160.748C955.935 158.638 955.794 155.382 953.433 154.458Z" fill="url(#paint36_linear_1_4376)"/>
</g>
<defs>
<linearGradient id="paint0_linear_1_4376" x1="796.113" y1="135.759" x2="828.216" y2="135.759" gradientUnits="userSpaceOnUse">
<stop stop-color="#9CBAD8"/>
<stop offset="1" stop-color="#A4C7EA"/>
</linearGradient>
<linearGradient id="paint1_linear_1_4376" x1="907.905" y1="193.624" x2="787" y2="193.624" gradientUnits="userSpaceOnUse">
<stop stop-color="#9CBAD8"/>
<stop offset="1" stop-color="#A4C7EA"/>
</linearGradient>
<linearGradient id="paint2_linear_1_4376" x1="948.86" y1="170.554" x2="825.975" y2="170.554" gradientUnits="userSpaceOnUse">
<stop stop-color="#9CBAD8"/>
<stop offset="1" stop-color="#A4C7EA"/>
</linearGradient>
<linearGradient id="paint3_linear_1_4376" x1="995" y1="143.888" x2="872.115" y2="143.888" gradientUnits="userSpaceOnUse">
<stop stop-color="#9CBAD8"/>
<stop offset="1" stop-color="#A4C7EA"/>
</linearGradient>
<linearGradient id="paint4_linear_1_4376" x1="965.149" y1="216.121" x2="943.225" y2="216.121" gradientUnits="userSpaceOnUse">
<stop stop-color="#9CBAD8"/>
<stop offset="1" stop-color="#A4C7EA"/>
</linearGradient>
<linearGradient id="paint5_linear_1_4376" x1="826.407" y1="78.2954" x2="813.747" y2="78.2954" gradientUnits="userSpaceOnUse">
<stop stop-color="#A0B1C2"/>
<stop offset="1" stop-color="#BFDAF4"/>
</linearGradient>
<linearGradient id="paint6_linear_1_4376" x1="815.327" y1="72.2161" x2="812.523" y2="72.2161" gradientUnits="userSpaceOnUse">
<stop stop-color="#A0B1C2"/>
<stop offset="1" stop-color="#BFDAF4"/>
</linearGradient>
<linearGradient id="paint7_linear_1_4376" x1="812.522" y1="71.8751" x2="806.584" y2="71.8751" gradientUnits="userSpaceOnUse">
<stop stop-color="#A0B1C2"/>
<stop offset="1" stop-color="#BFDAF4"/>
</linearGradient>
<linearGradient id="paint8_linear_1_4376" x1="817.345" y1="64.8419" x2="807.377" y2="64.8419" gradientUnits="userSpaceOnUse">
<stop stop-color="#A0B1C2"/>
<stop offset="1" stop-color="#BFDAF4"/>
</linearGradient>
<linearGradient id="paint9_linear_1_4376" x1="809.639" y1="63.4248" x2="807.056" y2="63.4248" gradientUnits="userSpaceOnUse">
<stop stop-color="#A0B1C2"/>
<stop offset="1" stop-color="#BFDAF4"/>
</linearGradient>
<linearGradient id="paint10_linear_1_4376" x1="810.874" y1="63.5551" x2="809.527" y2="63.5551" gradientUnits="userSpaceOnUse">
<stop stop-color="#A0B1C2"/>
<stop offset="1" stop-color="#BFDAF4"/>
</linearGradient>
<linearGradient id="paint11_linear_1_4376" x1="814.019" y1="63.9477" x2="812.522" y2="63.9477" gradientUnits="userSpaceOnUse">
<stop stop-color="#A0B1C2"/>
<stop offset="1" stop-color="#BFDAF4"/>
</linearGradient>
<linearGradient id="paint12_linear_1_4376" x1="815.335" y1="94.2718" x2="812.884" y2="94.2718" gradientUnits="userSpaceOnUse">
<stop stop-color="#A0B1C2"/>
<stop offset="1" stop-color="#BFDAF4"/>
</linearGradient>
<linearGradient id="paint13_linear_1_4376" x1="810.503" y1="83.3596" x2="797.43" y2="83.3596" gradientUnits="userSpaceOnUse">
<stop stop-color="#A0B1C2"/>
<stop offset="1" stop-color="#BFDAF4"/>
</linearGradient>
<linearGradient id="paint14_linear_1_4376" x1="808.944" y1="60.2298" x2="817.425" y2="60.2298" gradientUnits="userSpaceOnUse">
<stop stop-color="white"/>
<stop offset="1" stop-color="#D1E8FF"/>
</linearGradient>
<linearGradient id="paint15_linear_1_4376" x1="959.793" y1="77.6328" x2="959.793" y2="154.78" gradientUnits="userSpaceOnUse">
<stop stop-color="#9CBAD8"/>
<stop offset="1" stop-color="#BFDAF4"/>
</linearGradient>
<linearGradient id="paint16_linear_1_4376" x1="930.453" y1="41.9224" x2="930.453" y2="158.527" gradientUnits="userSpaceOnUse">
<stop stop-color="white"/>
<stop offset="1" stop-color="#D1E8FF"/>
</linearGradient>
<linearGradient id="paint17_linear_1_4376" x1="958.989" y1="127.57" x2="865.786" y2="127.57" gradientUnits="userSpaceOnUse">
<stop stop-color="#9CBAD8"/>
<stop offset="1" stop-color="#BFDAF4"/>
</linearGradient>
<linearGradient id="paint18_linear_1_4376" x1="918.718" y1="169.425" x2="904.793" y2="169.406" gradientUnits="userSpaceOnUse">
<stop stop-color="white"/>
<stop offset="1" stop-color="#D1E8FF"/>
</linearGradient>
<linearGradient id="paint19_linear_1_4376" x1="917.621" y1="171.157" x2="907.382" y2="171.157" gradientUnits="userSpaceOnUse">
<stop stop-color="#9CBAD8"/>
<stop offset="1" stop-color="#BFDAF4"/>
</linearGradient>
<linearGradient id="paint20_linear_1_4376" x1="856.451" y1="133.578" x2="932.201" y2="133.578" gradientUnits="userSpaceOnUse">
<stop stop-color="white"/>
<stop offset="1" stop-color="#D1E8FF"/>
</linearGradient>
<linearGradient id="paint21_linear_1_4376" x1="922.414" y1="161.481" x2="933.055" y2="143.053" gradientUnits="userSpaceOnUse">
<stop stop-color="#9CBAD8"/>
<stop offset="1" stop-color="#BFDAF4"/>
</linearGradient>
<linearGradient id="paint22_linear_1_4376" x1="939.284" y1="176.794" x2="939.284" y2="169.731" gradientUnits="userSpaceOnUse">
<stop stop-color="#9CBAD8"/>
<stop offset="1" stop-color="#BFDAF4"/>
</linearGradient>
<linearGradient id="paint23_linear_1_4376" x1="936.823" y1="170.223" x2="936.823" y2="176.794" gradientUnits="userSpaceOnUse">
<stop stop-color="#9CBAD8"/>
<stop offset="0.99" stop-color="#97B1CA"/>
</linearGradient>
<linearGradient id="paint24_linear_1_4376" x1="940.752" y1="169.981" x2="935.819" y2="169.981" gradientUnits="userSpaceOnUse">
<stop stop-color="white"/>
<stop offset="1" stop-color="#D1E8FF"/>
</linearGradient>
<linearGradient id="paint25_linear_1_4376" x1="929.608" y1="164.526" x2="926.976" y2="164.526" gradientUnits="userSpaceOnUse">
<stop stop-color="#84C2FF"/>
<stop offset="0.41" stop-color="#7FBEFC"/>
<stop offset="0.89" stop-color="#71B2F3"/>
<stop offset="1" stop-color="#6DAEF0"/>
</linearGradient>
<linearGradient id="paint26_linear_1_4376" x1="925.83" y1="166.726" x2="923.208" y2="166.726" gradientUnits="userSpaceOnUse">
<stop stop-color="#84C2FF"/>
<stop offset="0.41" stop-color="#7FBEFC"/>
<stop offset="0.89" stop-color="#71B2F3"/>
<stop offset="1" stop-color="#6DAEF0"/>
</linearGradient>
<linearGradient id="paint27_linear_1_4376" x1="892.703" y1="191.014" x2="877.232" y2="191.014" gradientUnits="userSpaceOnUse">
<stop stop-color="white"/>
<stop offset="1" stop-color="#D1E8FF"/>
</linearGradient>
<linearGradient id="paint28_linear_1_4376" x1="893.066" y1="193.624" x2="881.682" y2="193.624" gradientUnits="userSpaceOnUse">
<stop stop-color="#9CBAD8"/>
<stop offset="1" stop-color="#BFDAF4"/>
</linearGradient>
<linearGradient id="paint29_linear_1_4376" x1="963.902" y1="154.869" x2="958.536" y2="154.869" gradientUnits="userSpaceOnUse">
<stop stop-color="#B3C6D8"/>
<stop offset="1" stop-color="#BFDAF4"/>
</linearGradient>
<linearGradient id="paint30_linear_1_4376" x1="952.95" y1="144.671" x2="952.95" y2="140.712" gradientUnits="userSpaceOnUse">
<stop stop-color="#B3C6D8"/>
<stop offset="1" stop-color="#BFDAF4"/>
</linearGradient>
<linearGradient id="paint31_linear_1_4376" x1="954.617" y1="145.796" x2="954.617" y2="142.491" gradientUnits="userSpaceOnUse">
<stop stop-color="#B3C6D8"/>
<stop offset="1" stop-color="#BFDAF4"/>
</linearGradient>
<linearGradient id="paint32_linear_1_4376" x1="956.686" y1="147.465" x2="956.686" y2="146.44" gradientUnits="userSpaceOnUse">
<stop stop-color="#B3C6D8"/>
<stop offset="1" stop-color="#BFDAF4"/>
</linearGradient>
<linearGradient id="paint33_linear_1_4376" x1="954.849" y1="144.852" x2="951.774" y2="144.852" gradientUnits="userSpaceOnUse">
<stop stop-color="#B3C6D8"/>
<stop offset="1" stop-color="#BFDAF4"/>
</linearGradient>
<linearGradient id="paint34_linear_1_4376" x1="963.923" y1="142.219" x2="952.941" y2="142.219" gradientUnits="userSpaceOnUse">
<stop stop-color="white"/>
<stop offset="1" stop-color="#D1E8FF"/>
</linearGradient>
<linearGradient id="paint35_linear_1_4376" x1="960.887" y1="151.554" x2="953.432" y2="151.554" gradientUnits="userSpaceOnUse">
<stop stop-color="#B3C6D8"/>
<stop offset="1" stop-color="#BFDAF4"/>
</linearGradient>
<linearGradient id="paint36_linear_1_4376" x1="955.674" y1="161.34" x2="939.939" y2="161.34" gradientUnits="userSpaceOnUse">
<stop stop-color="#B3C6D8"/>
<stop offset="1" stop-color="#BFDAF4"/>
</linearGradient>
</defs>
</svg>
