<svg width="78" height="39" viewBox="0 0 78 39" fill="none" xmlns="http://www.w3.org/2000/svg">
<g clip-path="url(#clip0_594_8)">
<path d="M5.72612 4.90053C6.11213 5.28653 6.80744 6.25282 7.73538 5.82847C8.70166 5.36322 13.6865 4.90053 15.3072 4.66791C16.3094 4.55393 17.322 4.56681 18.3211 4.70625C18.3211 4.70625 14.0341 10.6267 13.3772 11.5853C12.6435 12.5107 8.97264 17.8048 8.26454 18.8861C7.56922 20.0058 5.83094 22.943 5.01804 24.4128C4.28437 25.8802 5.5293 25.7651 5.5293 25.7651C5.5293 25.7651 8.46394 25.8418 9.12091 25.8418C9.30824 25.8393 9.48944 25.7747 9.63609 25.6581C9.78274 25.5415 9.88656 25.3796 9.93126 25.1976C10.0846 24.965 10.2406 24.3464 10.8183 23.4082C11.3296 22.4803 12.6077 20.356 13.9881 18.04C15.3685 15.7239 17.002 13.4795 18.1984 11.7796C19.4765 10.0413 20.903 8.03201 21.2506 7.56932C21.5983 7.10663 22.9889 5.2124 23.2957 4.78549C23.6024 4.35859 23.72 4.36115 24.2236 4.3228C24.377 4.3228 24.8039 4.3228 25.3049 4.36114C26.6189 4.39949 28.7048 4.59377 29.7094 4.67046C31.1768 4.8264 33.3036 4.86474 34.6176 4.97978C35.9289 5.13571 35.5429 4.36114 35.5429 4.36114C35.5762 3.74427 35.4849 3.12701 35.2745 2.54617C34.8476 1.57988 34.5383 1.69491 34.5383 1.69491C33.0326 1.23222 28.2038 0.884564 25.3049 0.807874C24.5713 0.76953 23.9526 0.769531 23.5666 0.769531H22.9684C20.3022 0.807876 13.735 1.19388 12.3061 1.34726C10.7723 1.50319 5.73636 2.46948 4.80842 2.62542C3.92138 2.85804 4.42241 3.43576 4.42241 3.43576C4.42241 3.43576 5.30178 4.47618 5.72612 4.90053Z" fill="#ED1D24"/>
<path d="M76.3544 33.6846C76.0451 33.5287 71.9882 32.0997 70.8302 31.752C69.593 31.4427 64.4931 30.3614 63.8362 30.2847C63.1792 30.208 64.7641 28.6615 65.3828 27.8511C65.9988 27.1558 69.3987 23.4466 70.5976 22.3627C71.7173 21.243 74.6545 18.5282 75.5441 17.6898C76.3928 16.8385 75.0788 16.4525 75.0788 16.4525C75.0788 16.4525 74.6545 16.2199 72.9545 15.8339C71.2546 15.4479 70.8302 16.3451 70.8302 16.3451C70.8302 16.3451 68.435 18.5845 66.9958 19.924C65.6652 21.1316 64.2002 22.1824 62.6296 23.0555C61.5099 23.7099 60.3519 24.1751 59.8483 23.8658C59.3856 23.5948 59.8483 22.8995 60.1576 22.2809C60.467 21.6239 62.3203 19.5763 62.7855 18.9986C63.2508 18.4209 65.3751 16.1381 66.2621 15.2485C67.1492 14.3589 65.6052 13.9703 64.8715 13.7812C64.2411 13.6105 63.5919 13.5195 62.9389 13.5102C62.7472 13.5032 62.5569 13.5468 62.3873 13.6365C62.2177 13.7262 62.0747 13.859 61.9726 14.0215C61.9726 14.0215 60.6945 15.3354 60.3519 15.8109C60.0426 16.2736 56.5635 20.1004 55.4949 21.2584C54.4264 22.4164 52.867 23.5386 52.4427 23.692C52.0183 23.8454 51.0904 24.078 50.3184 23.1143C49.5464 22.1505 50.165 21.5805 51.1671 20.1771C52.2126 18.8248 54.838 15.7725 56.1136 14.2643C57.4275 12.797 62.2947 8.77846 63.2712 8.08315C64.2478 7.38783 63.6572 7.15521 63.6572 7.15521C63.234 6.86299 62.7807 6.61702 62.3049 6.42154C61.6314 6.14668 60.9079 6.01522 60.1806 6.03555C59.3703 6.03555 59.061 6.50079 59.061 6.50079C59.061 6.50079 56.3564 8.74012 55.8145 9.28206C55.3032 9.74475 49.4007 15.5399 48.3194 16.6621C47.238 17.7843 44.1475 20.5631 43.1045 21.4526C42.0206 22.3397 41.0594 22.7666 40.4766 22.378C39.8938 21.9895 40.0906 21.3351 40.4766 20.7957C40.7859 20.2154 43.1428 17.3191 43.9915 16.3528C44.8402 15.3865 47.3914 12.682 48.281 11.7515C49.1706 10.821 52.7239 7.73293 53.7285 6.84589C54.8098 5.99464 53.4959 5.45271 53.4959 5.45271C52.8717 5.10576 52.1918 4.87046 51.4866 4.75739C50.2085 4.48898 49.981 4.79574 49.2857 5.26865C48.5903 5.74157 43.8382 10.6369 43.3729 11.1788C42.9102 11.6441 37.1918 17.4009 36.3431 18.3365C35.4535 19.1878 32.5546 21.8156 31.9385 22.171C31.4273 22.5953 29.735 23.7533 29.3106 23.0197C28.7994 22.3244 29.8219 21.6674 29.8219 21.6674C29.8219 21.6674 32.3348 19.2338 33.2218 18.1908C34.1088 17.1478 33.6104 15.6805 33.4544 15.2919C32.9193 14.2842 32.1884 13.3934 31.3046 12.6717C30.0264 11.6288 28.7917 11.5904 27.9047 11.5904C27.171 11.6288 26.0871 12.2857 25.2384 12.7101C25.0825 12.7484 24.9675 12.8635 24.8141 12.9018C24.0779 13.4437 21.5676 15.3763 21.5676 15.3763C21.5676 15.3763 19.5583 17.1913 18.3211 18.4285C17.2014 19.6632 16.276 20.6679 17.5107 23.1424C17.958 24.0081 18.6119 24.75 19.4146 25.3025C20.2172 25.855 21.1438 26.2009 22.1121 26.3096C22.9991 26.4656 24.2364 25.461 24.6224 25.0724C24.9317 24.7656 25.0851 24.8168 25.3177 25.2283C25.3649 25.309 25.4169 25.3867 25.4736 25.461C25.7804 26.077 26.8642 26.5039 27.8689 26.6956C28.7943 26.8516 29.2212 26.619 30.9211 26.1179C32.6211 25.6169 35.75 23.6818 36.2894 23.2574C36.9054 22.7947 36.9438 23.49 37.4474 24.418C37.951 25.3459 39.2368 25.6961 40.3053 25.8086C41.4276 25.8853 41.9286 25.6143 42.7006 25.2974C43.8141 24.7926 44.898 24.225 45.9471 23.5974C46.5274 23.2114 46.6041 23.1731 46.8367 23.7917C47.0668 24.3694 47.0923 24.873 48.846 26.031C50.5459 27.2683 53.4473 26.5423 54.0608 26.3403C54.8367 26.0423 55.5865 25.6806 56.3027 25.259C56.612 25.0647 56.8805 25.5683 57.5809 26.302C58.2379 26.959 59.5518 26.9206 60.3928 26.3787C61.2339 25.8367 60.8172 26.417 60.8172 26.417C60.8172 26.417 59.539 28.2064 59.1172 28.6589C58.6954 29.1114 58.6929 29.4692 58.266 29.3542C57.88 29.2775 56.5277 29.1625 54.4801 29.0449C52.4325 28.9273 47.6419 28.6589 44.1654 28.6206C40.6888 28.5822 31.4912 29.0832 28.0606 29.2775C27.3269 29.3159 26.3607 29.4309 25.2793 29.5101C21.3375 29.9345 15.9284 30.7883 13.8424 31.0439C11.2145 31.4683 2.87071 33.2091 1.17077 33.7485C0.743864 33.9044 0.552139 34.0195 0.513794 34.2138V34.2905C0.590483 34.7531 1.82775 35.2567 2.71479 35.6811C3.49859 36.0497 4.38327 36.1451 5.22763 35.9521C5.22763 35.9521 7.73793 35.4868 9.0621 35.2567C10.3403 34.9858 19.727 33.5568 22.0814 33.1299C22.7384 33.0532 23.8708 32.8998 25.2512 32.7055C28.8301 32.2812 33.9427 31.8159 35.6835 31.6626C38.1171 31.5092 44.8862 31.5092 46.7702 31.4683C48.6542 31.4274 55.2061 31.7776 55.541 31.8568C55.8758 31.9361 56.8932 31.8159 56.2363 32.3681C55.6202 33.0251 54.112 36.1157 53.726 36.811C53.34 37.5063 53.4933 37.5063 54.1887 37.8923C54.8456 38.2808 56.5839 38.3575 57.0006 38.3575C57.3866 38.3575 57.5119 37.8923 57.5119 37.8923C57.5119 37.8923 59.6362 34.6483 60.3238 33.6054C61.0191 32.4831 61.4435 32.7541 61.4435 32.7541L66.234 33.6437C67.7013 33.9147 73.1105 35.3437 74.271 35.8447C75.4316 36.3457 75.971 36.3099 76.2803 36.2307C76.5896 36.0773 77.3233 34.4541 77.3233 34.4541V34.1831C77.2824 34.0706 76.587 33.8891 76.3544 33.6846ZM26.5064 20.5094C26.2354 20.742 25.7702 21.0206 25.2691 21.3581C24.0319 22.2093 22.5645 23.1756 22.1018 23.329C21.4449 23.5233 21.018 23.7559 20.632 23.1756C20.246 22.5953 21.4449 21.4757 21.4449 21.4757C21.4449 21.4757 23.6842 19.4664 24.5355 18.6944C24.7272 18.5385 24.9981 18.3058 25.2691 18.1141C26.3888 17.2245 27.9354 15.9898 28.3597 15.7572C28.871 15.4862 29.2876 15.2459 29.7503 15.7188C30.213 16.1918 29.827 16.6468 29.6736 16.8769C29.6148 17.1478 27.5187 19.7757 26.514 20.5094H26.5064Z" fill="#ED1D24"/>
<path d="M5.21489 4.13344C5.6009 4.51944 6.29621 5.48573 7.22415 5.06138C8.19043 4.59613 13.1753 4.13344 14.796 3.90082C15.7982 3.78684 16.8108 3.79972 17.8098 3.93916C17.8098 3.93916 13.5229 9.85958 12.8659 10.8182C12.1323 11.7436 8.46141 17.0377 7.75331 18.119C7.05799 19.2387 5.31971 22.1759 4.5068 23.6458C3.77314 25.1131 5.01807 24.998 5.01807 24.998C5.01807 24.998 7.95271 25.0747 8.60968 25.0747C8.79701 25.0722 8.9782 25.0076 9.12486 24.891C9.27151 24.7744 9.37533 24.6125 9.42003 24.4305C9.57341 24.1979 9.72933 23.5793 10.3071 22.6411C10.8183 21.7132 12.0965 19.5889 13.4769 17.2729C14.8573 14.9569 16.4908 12.7124 17.6871 11.0125C18.9653 9.27418 20.3917 7.26492 20.7394 6.80223C21.087 6.33954 22.4777 4.44531 22.7844 4.0184C23.0912 3.5915 23.2088 3.59406 23.7124 3.55571C23.8657 3.55571 24.2926 3.55571 24.7937 3.59406C26.1076 3.6324 28.1936 3.82668 29.1982 3.90337C30.6655 4.05931 32.7924 4.09765 34.1063 4.21269C35.4177 4.36862 35.0317 3.59406 35.0317 3.59406C35.065 2.97718 34.9737 2.35992 34.7633 1.77908C34.3364 0.812795 34.0271 0.927825 34.0271 0.927825C32.5214 0.465132 27.6925 0.117474 24.7937 0.0407845C24.06 0.00243984 23.4414 0.00244141 23.0554 0.00244141H22.4572C19.791 0.0407861 13.2238 0.426792 11.7948 0.58017C10.261 0.736105 5.22513 1.70239 4.29719 1.85833C3.41015 2.09095 3.91118 2.66867 3.91118 2.66867C3.91118 2.66867 4.79054 3.70909 5.21489 4.13344Z" fill="#232020"/>
<path d="M75.8432 32.9175C75.5339 32.7616 71.477 31.3326 70.319 30.9849C69.0818 30.6756 63.9819 29.5943 63.3249 29.5176C62.668 29.4409 64.2529 27.8944 64.8715 27.084C65.4876 26.3887 68.8875 22.6795 70.0864 21.5956C71.206 20.4759 74.1433 17.7611 75.0329 16.9227C75.8816 16.0714 74.5676 15.6854 74.5676 15.6854C74.5676 15.6854 74.1433 15.4528 72.4433 15.0668C70.7434 14.6808 70.319 15.5781 70.319 15.5781C70.319 15.5781 67.9237 17.8174 66.4845 19.1569C65.1539 20.3645 63.6889 21.4153 62.1184 22.2884C60.9987 22.9428 59.8407 23.408 59.3371 23.0987C58.8744 22.8277 59.3371 22.1324 59.6464 21.5138C59.9557 20.8568 61.8091 18.8092 62.2743 18.2315C62.7396 17.6538 64.8638 15.371 65.7509 14.4814C66.6379 13.5918 65.0939 13.2033 64.3603 13.0141C63.7299 12.8434 63.0807 12.7524 62.4277 12.7431C62.2359 12.7361 62.0457 12.7797 61.8761 12.8694C61.7065 12.9591 61.5635 13.0919 61.4614 13.2544C61.4614 13.2544 60.1832 14.5683 59.8407 15.0438C59.5314 15.5065 56.0522 19.3333 54.9837 20.4913C53.9152 21.6493 52.3558 22.7715 51.9315 22.9249C51.5071 23.0783 50.5792 23.3109 49.8072 22.3472C49.0352 21.3834 49.6538 20.8134 50.6559 19.41C51.7014 18.0577 54.3267 15.0054 55.6023 13.4972C56.9163 12.0299 61.7835 8.01137 62.76 7.31606C63.7365 6.62074 63.146 6.38812 63.146 6.38812C62.7228 6.0959 62.2694 5.84993 61.7937 5.65445C61.1201 5.37959 60.3966 5.24813 59.6694 5.26846C58.8591 5.26846 58.5497 5.7337 58.5497 5.7337C58.5497 5.7337 55.8452 7.97303 55.3032 8.51497C54.792 8.97766 48.8895 14.7728 47.8081 15.895C46.7268 17.0173 43.6362 19.796 42.5933 20.6856C41.5094 21.5726 40.5482 21.9995 39.9654 21.6109C39.3825 21.2224 39.5794 20.568 39.9654 20.0286C40.2747 19.4483 42.6316 16.552 43.4803 15.5857C44.329 14.6194 46.8802 11.9149 47.7698 10.9844C48.6594 10.0539 52.2127 6.96584 53.2173 6.0788C54.2986 5.22755 52.9847 4.68562 52.9847 4.68562C52.3605 4.33867 51.6805 4.10337 50.9754 3.9903C49.6973 3.72189 49.4697 4.02865 48.7744 4.50156C48.0791 4.97448 43.3269 9.86982 42.8617 10.4118C42.399 10.877 36.6805 16.6338 35.8318 17.5694C34.9422 18.4207 32.0434 21.0486 31.4273 21.4039C30.916 21.8282 29.2238 22.9862 28.7994 22.2526C28.2881 21.5573 29.3107 20.9003 29.3107 20.9003C29.3107 20.9003 31.8235 18.4667 32.7106 17.4237C33.5976 16.3807 33.0991 14.9134 32.9432 14.5249C32.4081 13.5171 31.6772 12.6263 30.7933 11.9046C29.5152 10.8617 28.2805 10.8233 27.3934 10.8233C26.6598 10.8617 25.5759 11.5186 24.7272 11.943C24.5713 11.9813 24.4562 12.0964 24.3029 12.1347C23.5666 12.6767 21.0564 14.6092 21.0564 14.6092C21.0564 14.6092 19.0471 16.4242 17.8098 17.6615C16.6902 18.8962 15.7648 19.9008 16.9995 22.3753C17.4468 23.241 18.1007 23.983 18.9033 24.5354C19.706 25.0879 20.6325 25.4338 21.6008 25.5425C22.4879 25.6985 23.7251 24.6939 24.1111 24.3053C24.4204 23.9985 24.5738 24.0497 24.8065 24.4612C24.8536 24.5419 24.9057 24.6196 24.9624 24.6939C25.2691 25.3099 26.353 25.7368 27.3576 25.9286C28.283 26.0845 28.7099 25.8519 30.4099 25.3508C32.1098 24.8498 35.2388 22.9147 35.7781 22.4903C36.3942 22.0276 36.4326 22.7229 36.9362 23.6509C37.4397 24.5788 38.7256 24.929 39.7941 25.0415C40.9163 25.1182 41.4174 24.8472 42.1894 24.5303C43.3028 24.0255 44.3867 23.4579 45.4359 22.8303C46.0162 22.4443 46.0929 22.406 46.3255 23.0246C46.5555 23.6023 46.5811 24.1059 48.3347 25.2639C50.0347 26.5012 52.9361 25.7752 53.5496 25.5732C54.3254 25.2752 55.0753 24.9135 55.7915 24.4919C56.1008 24.2976 56.3692 24.8012 57.0697 25.5349C57.7266 26.1919 59.0406 26.1535 59.8816 25.6116C60.7226 25.0696 60.306 25.6499 60.306 25.6499C60.306 25.6499 59.0278 27.4393 58.606 27.8918C58.1842 28.3443 58.1816 28.7022 57.7547 28.5871C57.3687 28.5104 56.0165 28.3954 53.9689 28.2778C51.9212 28.1602 47.1307 27.8918 43.6541 27.8535C40.1775 27.8151 30.9799 28.3162 27.5494 28.5104C26.8157 28.5488 25.8494 28.6638 24.7681 28.7431C20.8263 29.1674 15.4171 30.0212 13.3312 30.2768C10.7033 30.7012 2.35948 32.442 0.659537 32.9814C0.232633 33.1374 0.0409081 33.2524 0.00256348 33.4467V33.5234C0.0792528 33.9861 1.31652 34.4896 2.20356 34.914C2.98736 35.2826 3.87204 35.378 4.7164 35.185C4.7164 35.185 7.2267 34.7197 8.55087 34.4896C9.82902 34.2187 19.2158 32.7897 21.5702 32.3628C22.2271 32.2861 23.3596 32.1327 24.74 31.9384C28.3188 31.5141 33.4314 31.0488 35.1723 30.8955C37.6059 30.7421 44.375 30.7421 46.259 30.7012C48.143 30.6603 54.6949 31.0105 55.0297 31.0897C55.3646 31.169 56.382 31.0488 55.725 31.601C55.109 32.258 53.6007 35.3486 53.2147 36.0439C52.8287 36.7392 52.9821 36.7392 53.6774 37.1252C54.3344 37.5138 56.0727 37.5904 56.4894 37.5904C56.8754 37.5904 57.0006 37.1252 57.0006 37.1252C57.0006 37.1252 59.1249 33.8812 59.8126 32.8383C60.5079 31.7161 60.9322 31.987 60.9322 31.987L65.7228 32.8766C67.1901 33.1476 72.5992 34.5766 73.7598 35.0776C74.9204 35.5786 75.4598 35.5428 75.7691 35.4636C76.0784 35.3102 76.812 33.687 76.812 33.687V33.416C76.7711 33.3035 76.0758 33.122 75.8432 32.9175ZM25.9951 19.7423C25.7242 19.9749 25.2589 20.2535 24.7579 20.591C23.5206 21.4422 22.0533 22.4085 21.5906 22.5619C20.9336 22.7562 20.5067 22.9888 20.1207 22.4085C19.7347 21.8282 20.9336 20.7086 20.9336 20.7086C20.9336 20.7086 23.173 18.6993 24.0242 17.9273C24.2159 17.7714 24.4869 17.5387 24.7579 17.347C25.8775 16.4574 27.4241 15.2227 27.8485 14.9901C28.3597 14.7191 28.7764 14.4788 29.2391 14.9518C29.7018 15.4247 29.3158 15.8797 29.1624 16.1098C29.1036 16.3807 27.0074 19.0086 26.0028 19.7423H25.9951Z" fill="#232020"/>
</g>
<defs>
<clipPath id="clip0_594_8">
<rect width="77.3207" height="38.36" fill="white"/>
</clipPath>
</defs>
</svg>
