<svg width="20" height="20" viewBox="0 0 20 20" fill="none" xmlns="http://www.w3.org/2000/svg">
<path d="M16.6515 3.24087e-05H3.33381C2.44962 3.24087e-05 1.60167 0.351274 0.976453 0.976486C0.351241 1.6017 0 2.44967 0 3.33385V16.6662C0 17.5504 0.351241 18.3983 0.976453 19.0235C1.60167 19.6488 2.44962 20 3.33381 20H16.6661C17.5503 20 18.3983 19.6488 19.0235 19.0235C19.6487 18.3983 19.9999 17.5504 19.9999 16.6662V3.33385C19.9999 2.89481 19.9132 2.46009 19.7448 2.05465C19.5763 1.64921 19.3295 1.28104 19.0183 0.971273C18.7072 0.661506 18.3379 0.416247 17.9318 0.249574C17.5256 0.0829005 17.0905 -0.00190341 16.6515 3.24087e-05ZM5.97969 4.33047C6.30938 4.33047 6.63164 4.42823 6.90576 4.61139C7.17988 4.79456 7.39356 5.05489 7.51972 5.35948C7.64588 5.66407 7.67889 5.99923 7.61457 6.32258C7.55025 6.64592 7.39149 6.94294 7.15837 7.17606C6.92525 7.40918 6.62825 7.56794 6.3049 7.63226C5.98156 7.69657 5.64639 7.66356 5.3418 7.5374C5.03721 7.41124 4.77686 7.19758 4.5937 6.92346C4.41054 6.64934 4.31277 6.32706 4.31277 5.99738C4.31277 5.55529 4.48841 5.1313 4.80102 4.8187C5.11362 4.50609 5.5376 4.33047 5.97969 4.33047ZM13.985 15.6696C13.6553 15.6696 13.333 15.5718 13.0589 15.3886C12.7848 15.2055 12.5711 14.9451 12.4449 14.6406C12.3188 14.336 12.2858 14.0008 12.3501 13.6775C12.4144 13.3541 12.5732 13.0571 12.8063 12.824C13.0394 12.5909 13.3364 12.4321 13.6598 12.3678C13.9831 12.3035 14.3183 12.3365 14.6229 12.4626C14.9274 12.5888 15.1878 12.8024 15.371 13.0766C15.5541 13.3507 15.6519 13.673 15.6519 14.0027C15.6519 14.4442 15.4767 14.8678 15.1647 15.1803C14.8527 15.4928 14.4295 15.6688 13.9879 15.6696H13.985ZM15.2844 6.46482L6.44712 15.305C6.20705 15.5052 5.90077 15.6084 5.58849 15.5943C5.27621 15.5802 4.9805 15.4498 4.75946 15.2288C4.53842 15.0077 4.40802 14.712 4.39391 14.3997C4.3798 14.0874 4.48299 13.7812 4.6832 13.5411L13.5234 4.70383C13.6365 4.57656 13.7745 4.47375 13.9287 4.40171C14.083 4.32967 14.2504 4.28993 14.4206 4.28492C14.5908 4.27991 14.7602 4.30974 14.9185 4.37258C15.0767 4.43541 15.2205 4.52993 15.3409 4.65033C15.4613 4.77073 15.5557 4.91447 15.6186 5.07272C15.6814 5.23097 15.7113 5.40039 15.7063 5.57059C15.7012 5.74079 15.6615 5.90816 15.5894 6.06244C15.5174 6.21672 15.4146 6.35465 15.2873 6.46776L15.2844 6.46482Z" fill="#505050"/>
</svg>
