<svg width="525" height="439" viewBox="0 0 525 439" fill="none" xmlns="http://www.w3.org/2000/svg">
<g filter="url(#filter0_d_26_8)">
<path d="M434.485 180.218C427.83 137.621 390.901 104.927 346.463 104.927C329.746 104.927 313.682 109.552 299.749 118.179C278.552 82.5548 240.391 60.3867 197.996 60.3867C132.506 60.3867 79.2231 113.669 79.2231 179.16C79.2231 179.566 79.2231 179.987 79.238 180.392C37.1477 187.482 4 224.178 4 268.24C4 317.362 44.9481 357.32 94.0698 357.32H420.697C469.818 357.32 510.766 317.362 510.766 268.24C510.766 223.802 477.082 186.873 434.485 180.218Z" fill="url(#paint0_linear_26_8)"/>
<path d="M92.0888 165.73C91.1696 159.949 86.0692 155.512 79.9317 155.512C77.6228 155.512 75.4041 156.139 73.4798 157.31C70.5522 152.475 65.2816 149.467 59.4264 149.467C50.3812 149.467 43.0222 156.698 43.0222 165.586C43.0222 165.641 43.0222 165.698 43.0242 165.753C37.211 166.715 32.6328 171.696 32.6328 177.675C32.6328 184.342 38.2883 189.765 45.0727 189.765H90.1844C96.9688 189.765 102.624 184.342 102.624 177.675C102.624 171.645 97.972 166.633 92.0888 165.73Z" fill="#007BFF"/>
<path d="M152.125 206.399C151.54 202.748 148.294 199.945 144.388 199.945C142.919 199.945 141.507 200.342 140.283 201.081C138.42 198.028 135.066 196.128 131.34 196.128C125.584 196.128 120.9 200.695 120.9 206.308C120.9 206.343 120.9 206.379 120.902 206.414C117.202 207.022 114.289 210.167 114.289 213.944C114.289 218.154 117.888 221.579 122.205 221.579H150.913C155.23 221.579 158.829 218.154 158.829 213.944C158.829 210.135 155.869 206.969 152.125 206.399Z" fill="#8FC5FF"/>
<path d="M355.746 224.973C424.73 178.566 438.102 154.727 472.154 150.304C555.073 139.509 494.318 353.916 304.419 399.675C214.193 421.436 102.43 362.082 86.4484 315.961C70.9973 271.368 112.6 254.602 174.033 278.558C235.467 302.515 320.602 248.621 355.746 224.973Z" stroke="#81B1E2" stroke-miterlimit="10"/>
<path d="M436.719 179.161C440.633 174.883 440.339 168.242 436.061 164.328C431.783 160.414 425.142 160.708 421.228 164.986C417.314 169.263 417.608 175.904 421.886 179.819C426.164 183.733 432.805 183.438 436.719 179.161Z" fill="#99CAFF"/>
<path d="M432.162 385.836C436.262 381.736 436.262 375.089 432.162 370.989C428.062 366.889 421.414 366.889 417.314 370.989C413.214 375.089 413.214 381.736 417.314 385.836C421.414 389.936 428.062 389.936 432.162 385.836Z" stroke="#81B1E2" stroke-miterlimit="10"/>
<path d="M287.932 150.007C293.731 150.007 298.431 145.307 298.431 139.509C298.431 133.71 293.731 129.01 287.932 129.01C282.134 129.01 277.434 133.71 277.434 139.509C277.434 145.307 282.134 150.007 287.932 150.007Z" stroke="#81B1E2" stroke-miterlimit="10"/>
<path d="M258.22 181.461L247.562 196.297H267.807L258.22 181.461Z" stroke="#81B1E2" stroke-miterlimit="10"/>
<path d="M208.151 369.844L201.449 382.74H221.694L208.151 369.844Z" fill="#99CAFF"/>
<path d="M216.584 207.485C216.139 203.645 215.43 199.839 214.463 196.096C213.264 192.416 208.217 185.427 208.217 185.427C208.217 185.427 206.191 189.754 209.129 193.339C209.03 195.912 209.062 198.489 209.224 201.059C209.224 201.059 199.68 192.893 197.834 192.066L193.508 188.619C187.145 183.561 182.903 185.13 183.486 185.491C183.868 185.746 191.122 191.61 195.607 195.247L195.024 196.085L188.269 190.698C181.906 185.65 177.664 187.209 178.258 187.58C178.852 187.951 189.329 196.478 192.787 199.245L191.726 200.709L184.791 195.216C178.428 190.157 174.186 191.727 174.769 192.034C175.352 192.342 186.36 201.366 189.542 203.943L188.481 205.492C186.064 203.279 183.518 201.211 180.856 199.298C176.911 196.541 174.059 197.824 174.059 197.824L175.808 199.394C177.548 200.953 186.646 208.122 186.646 208.122C186.646 208.122 200.517 220.54 204.028 221.727L207.421 224.973L219.935 211.441L216.584 207.485Z" fill="#FF996A"/>
<path d="M316.571 293.183C309.148 303.936 298.681 310.574 284.821 307.753C247.704 300.203 203.832 228.112 203.832 228.112L206.038 225.726L222.401 208.026L279.317 259.777L297.112 234.029L314.482 208.885L323.072 196.467C323.072 196.467 328.099 204.41 331.259 229.692C333.284 245.535 329.159 275.144 316.571 293.183Z" fill="#036FE3"/>
<path d="M316.571 293.183C309.148 303.936 298.681 310.574 284.821 307.753C247.704 300.203 203.832 228.112 203.832 228.112L206.038 225.726L207.395 224.973C207.395 224.973 259.655 296.862 281.629 286.162C295.245 279.555 297.43 253.203 297.112 234.029L314.482 208.885L316.571 293.183Z" fill="#0365CE"/>
<path d="M456.07 286.162L452.687 345.75H439.559L444.723 286.162H456.07Z" fill="#4D5F66"/>
<path d="M375.751 286.162L372.368 345.75H359.25L364.404 286.162H375.751Z" fill="#649176"/>
<path d="M457.422 200.9H353.453C343.121 200.9 334.746 209.275 334.746 219.607V277.763C334.746 288.095 343.121 296.47 353.453 296.47H457.422C467.753 296.47 476.129 288.095 476.129 277.763V219.607C476.129 209.275 467.753 200.9 457.422 200.9Z" fill="#4D5F66"/>
<path d="M448.645 200.9H344.676C334.344 200.9 325.969 209.275 325.969 219.607V277.763C325.969 288.095 334.344 296.47 344.676 296.47H448.645C458.976 296.47 467.351 288.095 467.351 277.763V219.607C467.351 209.275 458.976 200.9 448.645 200.9Z" fill="#8A9CA3"/>
<path d="M370.278 174.08C370.278 174.08 390.788 170.793 418.371 199.32L424.733 345.75H309.449C309.449 345.75 296.861 246.967 311.57 211.833C326.279 176.7 352.557 172.511 370.278 174.08Z" fill="#007BFF"/>
<path d="M330.067 94.6612L335.125 87.7363L378.276 102.18L377.947 118.395H380.79C382.166 118.393 383.53 118.663 384.802 119.189C386.075 119.715 387.231 120.487 388.205 121.46C389.179 122.433 389.952 123.588 390.479 124.86C391.006 126.132 391.278 127.495 391.278 128.872C391.278 130.249 391.006 131.612 390.479 132.884C389.952 134.156 389.179 135.312 388.205 136.285C387.231 137.258 386.075 138.029 384.802 138.555C383.53 139.081 382.166 139.351 380.79 139.35H377.417L376.887 161.355V180.687L345.645 184.929L344.882 171.991L344.479 165.204L339.94 163.083C333.588 160.044 328.226 155.269 324.473 149.311C320.72 143.353 318.729 136.455 318.73 129.413C318.731 116.92 322.701 104.751 330.067 94.6612Z" fill="#FF996A"/>
<path d="M344.496 165.257L344.899 172.044C346.044 171.917 347.253 171.737 348.494 171.503C367.795 167.993 375.345 150.548 374.561 141.566C374.561 141.566 368.06 163.168 344.496 165.257Z" fill="#D37A57"/>
<path d="M381.125 125.871C380.266 126.458 379.625 127.311 379.301 128.299C379.785 128.485 380.207 128.803 380.518 129.218C380.83 129.633 381.018 130.127 381.061 130.643C381.057 131.2 380.888 131.744 380.574 132.205C380.261 132.665 379.818 133.023 379.301 133.231C379.68 133.889 380.3 134.375 381.03 134.585C381.76 134.794 382.543 134.712 383.214 134.355C385.653 133.04 385.25 128.437 382.822 127.472C382.822 127.472 386.671 127.038 388.124 128.448C388.179 127.926 388.087 127.399 387.859 126.927C387.63 126.455 387.274 126.056 386.83 125.776C386.003 125.158 384.994 124.832 383.961 124.85C382.929 124.867 381.931 125.226 381.125 125.871Z" fill="#D37A57"/>
<path d="M330.065 94.6614C330.065 94.6614 335.909 104.725 343.459 107.981C351.01 111.237 359.08 106.496 366.631 110.812C374.181 115.129 369.356 123.241 371.053 127.133C372.75 131.025 374.616 131.545 374.616 131.545C374.616 131.545 375.677 120.473 377.904 118.395C377.904 118.395 384.68 118.331 386.79 120.314C386.79 120.314 390.576 112.668 391.234 106.677C391.891 100.685 385.242 98.7336 385.242 98.7336C385.242 98.7336 383.683 84.4172 366.1 79.083C348.518 73.7488 335.124 82.2008 328.093 79.083C321.062 75.9652 314.689 80.6419 314.307 87.7365C313.925 94.831 318.729 97.4292 318.729 97.4292C317.78 98.2907 317.093 99.4026 316.748 100.637C316.403 101.871 316.413 103.178 316.778 104.407C317.182 105.648 317.885 106.771 318.824 107.677C319.763 108.583 320.91 109.244 322.165 109.603C322.165 109.603 326.969 98.8927 330.065 94.6614Z" fill="#3F2D1F"/>
<path d="M333.562 146.137L351.453 145.257C351.453 145.257 347.306 151.704 341.41 151.619C335.98 151.577 333.562 146.137 333.562 146.137Z" fill="white"/>
<path d="M354.125 116.995C353.892 116.997 353.666 116.914 353.489 116.762C352.454 115.877 351.157 115.356 349.797 115.277C348.438 115.198 347.09 115.567 345.96 116.327C345.861 116.462 345.732 116.571 345.583 116.647C345.434 116.723 345.269 116.762 345.102 116.762C344.935 116.761 344.77 116.722 344.622 116.646C344.473 116.57 344.344 116.46 344.246 116.325C344.148 116.19 344.083 116.033 344.056 115.868C344.03 115.703 344.043 115.535 344.094 115.376C344.145 115.217 344.234 115.072 344.351 114.954C344.469 114.835 344.613 114.746 344.772 114.694C346.261 113.662 348.049 113.152 349.859 113.244C351.668 113.336 353.396 114.025 354.772 115.203C354.966 115.381 355.087 115.626 355.11 115.889C355.134 116.152 355.059 116.414 354.899 116.624C354.807 116.74 354.689 116.834 354.555 116.898C354.421 116.962 354.274 116.996 354.125 116.995Z" fill="#3F2D1F"/>
<path d="M331.878 116.995C331.657 116.978 331.449 116.889 331.284 116.74C330.251 115.855 328.957 115.333 327.598 115.254C326.24 115.176 324.894 115.545 323.766 116.306C323.552 116.379 323.32 116.383 323.104 116.315C322.888 116.248 322.699 116.113 322.565 115.931C322.431 115.748 322.359 115.527 322.359 115.301C322.36 115.075 322.433 114.855 322.567 114.673C324.056 113.64 325.845 113.131 327.654 113.223C329.463 113.315 331.191 114.004 332.567 115.182C332.705 115.323 332.801 115.501 332.843 115.694C332.885 115.888 332.873 116.089 332.806 116.275C332.74 116.462 332.623 116.626 332.468 116.75C332.314 116.873 332.128 116.951 331.931 116.974L331.878 116.995Z" fill="#3F2D1F"/>
<path d="M382.635 175.607L376.972 168.248L354.49 176.127L350.842 182.49L348.381 176.816L344.967 173.084L341.414 179.913C341.414 179.913 341.52 186.774 350.205 188.598C358.891 190.422 377.831 183.349 382.635 175.607Z" fill="white"/>
<path d="M386.792 120.314C385.606 119.959 384.346 119.931 383.146 120.233C381.945 120.536 380.849 121.157 379.973 122.032C376.654 125.076 377.778 128.077 377.778 128.077C377.778 128.077 379.315 124.461 382.603 124.896C385.89 125.33 388.277 134.175 383.886 135.829C379.496 137.483 373.886 134.959 374.087 128.119C374.289 121.279 376.792 117.409 380.927 116.825C382.162 116.599 383.436 116.828 384.514 117.469C385.593 118.111 386.402 119.122 386.792 120.314Z" fill="#70868F"/>
<path d="M355.739 154.706C355.508 154.715 355.283 154.636 355.109 154.484C354.936 154.332 354.827 154.12 354.805 153.89C354.783 153.66 354.85 153.431 354.992 153.249C355.135 153.068 355.341 152.947 355.569 152.913C372.537 149.637 378.348 133.623 378.401 133.464C378.44 133.352 378.5 133.249 378.578 133.16C378.656 133.071 378.751 132.998 378.858 132.946C378.964 132.894 379.079 132.863 379.198 132.856C379.316 132.848 379.435 132.864 379.547 132.902C379.659 132.94 379.762 133 379.851 133.079C379.94 133.157 380.013 133.252 380.065 133.358C380.117 133.465 380.148 133.58 380.155 133.699C380.163 133.817 380.147 133.935 380.109 134.048C380.045 134.217 373.969 151.217 355.909 154.684L355.739 154.706Z" fill="#70868F"/>
<path d="M351.945 154.112C351.945 154.865 352.169 155.601 352.587 156.227C353.005 156.853 353.6 157.341 354.295 157.629C354.991 157.917 355.757 157.992 356.495 157.846C357.234 157.699 357.912 157.336 358.444 156.804C358.977 156.271 359.339 155.593 359.486 154.854C359.633 154.116 359.558 153.35 359.27 152.655C358.982 151.959 358.494 151.364 357.868 150.946C357.241 150.528 356.505 150.304 355.752 150.304C354.743 150.304 353.774 150.706 353.06 151.42C352.346 152.134 351.945 153.102 351.945 154.112Z" fill="#4D5F66"/>
<path d="M382.186 126.497C382.186 126.497 381.709 130.739 382.631 132.955C383.554 135.172 384.996 134.016 385.282 131.301C385.569 128.586 382.812 124.747 382.186 126.497Z" fill="#4D5F66"/>
<path d="M345.969 125.086C345.969 125.086 345.969 129.01 351.112 129.657C356.255 130.304 357.189 125.086 357.189 125.086C355.328 123.438 352.976 122.446 350.497 122.265C346.732 122.191 345.969 125.086 345.969 125.086Z" fill="white"/>
<path d="M322.504 125.086C322.504 125.086 322.504 129.01 327.541 129.657C332.578 130.304 333.236 125.086 333.236 125.086C331.541 123.423 329.306 122.422 326.937 122.266C325.987 122.157 325.028 122.379 324.221 122.892C323.415 123.405 322.808 124.18 322.504 125.086Z" fill="white"/>
<path d="M333.236 125.086C333.236 125.086 330.542 122.128 327.658 121.597C324.773 121.067 322.801 122.478 322.504 125.086C322.765 124.379 323.236 123.769 323.854 123.337C324.472 122.905 325.207 122.671 325.961 122.669C328.835 122.403 333.236 125.086 333.236 125.086Z" fill="#3F2D1F"/>
<path d="M357.189 125.086C357.189 125.086 354.378 122 351.367 121.438C348.355 120.876 346.287 122.35 345.969 125.086C346.241 124.346 346.734 123.706 347.38 123.253C348.026 122.8 348.796 122.555 349.585 122.552C352.597 122.276 357.189 125.086 357.189 125.086Z" fill="#3F2D1F"/>
<path d="M338.166 125.224L335.801 139.519C334.254 139.539 332.721 139.228 331.305 138.607C331.305 138.607 337.498 126.804 338.166 125.224Z" fill="#D37A57"/>
<path d="M267.654 345.803C267.654 345.803 267.272 334.382 280.135 330.808C292.999 327.234 308.662 337.691 311.176 345.803H267.654Z" fill="#4D5F66"/>
<path d="M350.915 130.155C352.696 130.155 354.139 128.332 354.139 126.083C354.139 123.834 352.696 122.011 350.915 122.011C349.135 122.011 347.691 123.834 347.691 126.083C347.691 128.332 349.135 130.155 350.915 130.155Z" fill="#3F2D1F"/>
<path d="M331.531 126.221C331.531 128.395 330.131 130.166 328.349 130.166C326.568 130.166 325.168 128.395 325.168 126.221C325.168 124.047 326.578 122.265 328.349 122.265C330.12 122.265 331.531 124.036 331.531 126.221Z" fill="#3F2D1F"/>
<path d="M450.053 309.397C447.098 318.388 441.411 326.232 433.786 331.837C429.126 335.272 423.911 337.88 418.366 339.546C396.224 346.259 314.312 345.803 314.312 345.803L317.398 321.041L409.183 300.404C409.183 300.404 397.305 262.747 397.836 232.322C398.302 204.007 406.754 192.331 416.267 197.846C417.015 198.295 417.724 198.806 418.388 199.373C418.388 199.373 432.884 220.975 447.837 265.324C453.924 283.415 453.818 298.008 450.053 309.397Z" fill="#036FE3"/>
<path d="M308.03 324.276L288.56 320.723C286.133 320.403 283.665 320.725 281.402 321.656C277.828 323.205 273.766 330.755 273.766 330.755C275.781 330.754 277.737 330.079 279.323 328.836C280.529 327.879 281.407 326.57 281.837 325.092L288.974 325.644L289.101 327.298C284.86 328.17 280.685 329.339 276.608 330.798C272.547 332.537 270.426 337.85 270.426 337.85C270.426 337.85 275.728 337.076 278.443 333.788L289.504 332.537L289.589 333.597C286.091 333.811 282.654 334.607 279.419 335.952C273.713 338.465 271.995 341.848 271.995 341.848C271.995 341.848 277.711 341.848 281.72 338.751L284.424 338.529C281.752 340.246 279.45 344.361 279.45 344.361C279.45 344.361 280.606 344.658 283.215 343.492C285.824 342.325 286.503 341.01 286.503 341.01L294.117 341.583C298.072 342.145 304.043 342.696 307.458 341.583L314.743 342.696L317.023 324.371L308.03 324.276Z" fill="#FF996A"/>
<path d="M470.119 357.734H103.989C103.201 357.737 102.419 357.584 101.69 357.284C100.961 356.984 100.298 356.543 99.739 355.986C99.1804 355.43 98.7371 354.768 98.4347 354.04C98.1322 353.312 97.9766 352.531 97.9766 351.742C97.9906 350.158 98.6309 348.645 99.7577 347.532C100.884 346.419 102.406 345.798 103.989 345.803H470.119C471.708 345.803 473.232 346.435 474.356 347.558C475.479 348.682 476.111 350.206 476.111 351.795C476.097 353.375 475.459 354.885 474.337 355.998C473.215 357.11 471.699 357.734 470.119 357.734Z" fill="#4D5F66"/>
<path d="M329.778 357.734H101.595C99.6119 357.734 98 355.051 98 351.742C98 348.433 99.6119 345.75 101.595 345.75H329.778C331.761 345.75 333.373 348.433 333.373 351.742C333.405 355.051 331.761 357.734 329.778 357.734Z" fill="#8A9CA3"/>
<path d="M260.773 322.664H134.682C132.618 322.663 130.615 321.958 129.007 320.664C127.398 319.369 126.28 317.565 125.838 315.548L109.538 241.527C109.351 240.676 109.357 239.795 109.556 238.947C109.754 238.1 110.141 237.307 110.686 236.628C111.231 235.95 111.922 235.402 112.707 235.026C113.492 234.649 114.352 234.454 115.223 234.453H242.734C244.564 234.454 246.339 235.081 247.764 236.228C249.189 237.376 250.18 238.976 250.571 240.763L266.924 314.997C267.116 315.916 267.103 316.868 266.884 317.782C266.666 318.696 266.247 319.55 265.659 320.283C265.071 321.016 264.328 321.61 263.483 322.021C262.638 322.433 261.713 322.652 260.773 322.664Z" fill="#8A9CA3"/>
<path d="M266.921 315.049L250.569 240.816C250.188 239.019 249.202 237.407 247.776 236.249C246.349 235.091 244.569 234.457 242.732 234.453H235.383C237.227 234.447 239.017 235.077 240.452 236.235C241.887 237.394 242.88 239.012 243.262 240.816L259.615 315.049C259.806 315.968 259.791 316.918 259.571 317.831C259.352 318.744 258.933 319.597 258.345 320.329C257.757 321.06 257.015 321.653 256.171 322.064C255.327 322.475 254.403 322.694 253.464 322.706H260.813C261.748 322.688 262.668 322.464 263.506 322.051C264.345 321.637 265.082 321.044 265.666 320.312C266.249 319.581 266.664 318.731 266.881 317.821C267.098 316.911 267.112 315.965 266.921 315.049Z" fill="#4D5F66"/>
<path d="M245.097 342.781C245.097 343.569 244.784 344.324 244.228 344.881C243.671 345.438 242.915 345.75 242.128 345.75H137.459C136.356 345.752 135.273 345.454 134.326 344.887C133.379 344.321 132.604 343.508 132.084 342.536C131.563 341.563 131.317 340.467 131.371 339.366C131.424 338.264 131.777 337.197 132.39 336.28L158.297 297.467C158.661 296.929 159.151 296.488 159.724 296.183C160.297 295.878 160.936 295.718 161.585 295.717H206.878C207.249 295.719 207.613 295.819 207.934 296.006C208.254 296.193 208.52 296.461 208.705 296.783C208.89 297.105 208.987 297.47 208.986 297.841C208.985 298.212 208.887 298.577 208.702 298.898L186.835 336.683C186.65 337.003 186.552 337.366 186.55 337.735C186.549 338.105 186.644 338.468 186.826 338.79C187.008 339.111 187.271 339.379 187.589 339.568C187.907 339.757 188.268 339.859 188.638 339.865H242.128C242.915 339.865 243.671 340.178 244.228 340.734C244.784 341.291 245.097 342.047 245.097 342.834V342.781Z" fill="#70868F"/>
<path d="M214.026 278.039H149.804C149.447 278.039 149.104 277.897 148.852 277.644C148.599 277.392 148.457 277.049 148.457 276.692C148.456 276.514 148.489 276.338 148.557 276.173C148.624 276.009 148.723 275.859 148.848 275.733C148.973 275.607 149.122 275.506 149.286 275.438C149.45 275.37 149.626 275.334 149.804 275.334H214.026C214.204 275.334 214.38 275.37 214.544 275.438C214.708 275.506 214.857 275.607 214.982 275.733C215.108 275.859 215.207 276.009 215.274 276.173C215.341 276.338 215.375 276.514 215.373 276.692C215.373 277.049 215.231 277.392 214.979 277.644C214.726 277.897 214.384 278.039 214.026 278.039Z" fill="#70868F"/>
<path d="M217.127 286.162H152.904C152.546 286.162 152.202 286.021 151.948 285.768C151.694 285.516 151.55 285.174 151.547 284.815C151.547 284.455 151.69 284.11 151.944 283.856C152.199 283.601 152.544 283.458 152.904 283.458H217.127C217.305 283.458 217.481 283.493 217.645 283.562C217.809 283.63 217.958 283.73 218.083 283.856C218.208 283.982 218.307 284.132 218.374 284.297C218.441 284.461 218.475 284.638 218.474 284.815C218.474 285.173 218.332 285.515 218.079 285.768C217.827 286.02 217.484 286.162 217.127 286.162Z" fill="#70868F"/>
<path d="M110.866 238.844H246.851C247.936 238.839 249.014 239.03 250.032 239.406C249.422 237.939 248.392 236.686 247.071 235.805C245.75 234.923 244.197 234.453 242.609 234.453H115.076C113.754 234.455 112.473 234.906 111.441 235.733C110.41 236.56 109.691 237.713 109.402 239.003C109.883 238.895 110.374 238.842 110.866 238.844Z" fill="#BBC4C7"/>
<path d="M245.086 342.993C245.007 343.76 244.642 344.469 244.065 344.979C243.487 345.49 242.739 345.765 241.969 345.75H182.402C181.246 345.75 180.137 345.291 179.32 344.474C178.502 343.656 178.043 342.548 178.043 341.392C178.039 340.568 178.275 339.761 178.722 339.069L206.082 295.717H206.877C207.249 295.719 207.613 295.819 207.933 296.006C208.254 296.193 208.52 296.461 208.705 296.783C208.889 297.105 208.986 297.47 208.986 297.841C208.985 298.212 208.887 298.577 208.701 298.898L186.834 336.683C186.65 337.003 186.552 337.366 186.55 337.735C186.549 338.105 186.644 338.468 186.826 338.79C187.008 339.111 187.271 339.379 187.589 339.568C187.906 339.757 188.268 339.859 188.637 339.865H242.128C242.535 339.865 242.938 339.949 243.312 340.112C243.685 340.275 244.021 340.513 244.299 340.812C244.576 341.11 244.79 341.463 244.925 341.847C245.061 342.231 245.115 342.64 245.086 343.046V342.993Z" fill="#4D5F66"/>
<path d="M418.356 339.547C396.224 346.259 314.312 345.803 314.312 345.803L420.222 317.616C425.574 316.209 430.209 312.86 433.226 308.221C436.244 303.583 437.426 297.987 436.543 292.525C431.888 263.267 422.884 210.773 416.267 197.846C417.015 198.295 417.724 198.806 418.388 199.373C418.388 199.373 432.884 220.975 447.837 265.324C462.79 309.673 440.509 332.844 418.356 339.547Z" fill="#0365CE"/>
<path d="M412.113 301.391C422.266 301.754 431.973 305.651 439.558 312.409" stroke="#014FA3" stroke-linecap="round" stroke-linejoin="round"/>
<path d="M380.438 178.248C380.438 178.248 400.364 185.024 410.131 196.647" stroke="#014FA3" stroke-linecap="round" stroke-linejoin="round"/>
<path d="M281.25 263.171C281.25 263.171 292.247 277.424 293.658 293.84" stroke="#014FA3" stroke-linecap="round" stroke-linejoin="round"/>
<path d="M338.167 180.019C338.167 180.019 333.978 191.759 351.434 193.201C368.889 194.643 388.063 177.495 388.063 177.495" stroke="#014FA3" stroke-linecap="round" stroke-linejoin="round"/>
<path d="M314.273 324.265L310.18 341.911L314.665 342.601L316.946 324.265H314.273Z" fill="#D37A57"/>
<path d="M350.205 188.598C350.205 188.598 345.02 203.36 341.414 241.537" stroke="#014FA3" stroke-linecap="round" stroke-linejoin="round"/>
<path d="M383.664 98.9033C383.664 98.9033 375.498 96.9627 368.117 99.8047" stroke="#543E2F" stroke-linecap="round" stroke-linejoin="round"/>
<path d="M330.063 94.6614C330.063 94.6614 329.236 106.613 344.358 108.32" stroke="#543E2F" stroke-linecap="round" stroke-linejoin="round"/>
<path d="M385.008 91.0239C385.008 91.0239 386.768 95.7749 385.241 98.7336" stroke="#543E2F" stroke-linecap="round" stroke-linejoin="round"/>
<path d="M316.53 86.1775C316.411 88.3877 317.01 90.5773 318.237 92.4196C319.464 94.2619 321.253 95.6583 323.339 96.4005" stroke="#543E2F" stroke-linecap="round" stroke-linejoin="round"/>
<path d="M319.258 99.7727C319.258 99.7727 317.858 105.266 323.044 107.631" stroke="#543E2F" stroke-linecap="round" stroke-linejoin="round"/>
<path d="M343.461 81.0554C343.461 81.0554 353.132 76.8134 366.866 82.996C379.252 88.5635 380.44 95.4885 380.44 95.4885" stroke="#543E2F" stroke-linecap="round" stroke-linejoin="round"/>
<path d="M385.008 101.894C385.895 102.416 386.619 103.175 387.101 104.085C387.582 104.995 387.801 106.02 387.733 107.048C387.613 109.746 386.976 112.395 385.856 114.853" stroke="#543E2F" stroke-linecap="round" stroke-linejoin="round"/>
<path d="M339.598 100.494C339.598 100.494 341.517 105.605 352.769 106.167C364.02 106.73 367.615 106.74 370.723 110.409C371.617 111.441 372.266 112.663 372.62 113.981C372.975 115.3 373.026 116.682 372.769 118.024" stroke="#543E2F" stroke-linecap="round" stroke-linejoin="round"/>
<path d="M169.644 175.342C217.787 175.342 256.815 136.314 256.815 88.1712C256.815 40.0279 217.787 1 169.644 1C121.501 1 82.4727 40.0279 82.4727 88.1712C82.4727 136.314 121.501 175.342 169.644 175.342Z" stroke="#81B1E2" stroke-miterlimit="10"/>
<path d="M251.28 88.1713C251.29 98.8974 249.184 109.52 245.084 119.432C240.984 129.343 234.97 138.349 227.385 145.933C219.801 153.518 210.795 159.532 200.884 163.632C190.972 167.732 180.349 169.838 169.623 169.828C168.881 169.828 168.139 169.828 167.407 169.828C166.951 169.828 166.495 169.828 166.05 169.764C165.604 169.701 165.413 169.764 165.085 169.764C164.756 169.764 164.12 169.764 163.642 169.669C163.44 169.662 163.238 169.644 163.038 169.616C162.465 169.616 161.903 169.531 161.341 169.478C160.779 169.425 160.037 169.34 159.39 169.255L179.539 140.06L125.974 81.8403L90.9785 110.102C90.6179 108.798 90.2786 107.483 89.9817 106.146C89.865 105.637 89.759 105.086 89.6529 104.619C89.5469 104.153 89.3878 103.283 89.2711 102.615C89.1969 102.17 89.1121 101.735 89.0484 101.289C88.9424 100.653 88.8469 100.006 88.7621 99.3594C88.7621 98.9988 88.6561 98.6489 88.6136 98.2989C88.55 97.7368 88.4758 97.1748 88.4228 96.6127V96.284C88.4228 95.6795 88.3061 95.0751 88.2637 94.46C88.2213 93.8449 88.1682 93.1026 88.1364 92.4239C88.1364 91.724 88.0622 91.0346 88.0516 90.3029C88.041 89.5712 88.0516 88.9031 88.0516 88.182C88.0533 68.2491 95.3458 49.0053 108.555 34.0774C121.764 19.1494 139.977 9.56853 159.761 7.14035C163.058 6.74391 166.377 6.54559 169.698 6.54648C182.93 6.5265 195.967 9.74112 207.673 15.9105L172.063 44.6282L195.796 116.592L241.821 50.0472C248.048 61.7888 251.297 74.8804 251.28 88.1713Z" fill="#80AEDF"/>
<path d="M96.9155 50.5137L125.76 81.7447L90.7648 110.017C90.4042 108.702 90.0755 107.387 89.7679 106.051C89.6619 105.552 89.5452 104.99 89.4498 104.534C89.3119 103.866 89.1741 103.188 89.068 102.519C88.9832 102.085 88.9089 101.639 88.8453 101.194C88.7287 100.558 88.6438 99.9107 88.5484 99.2744C88.5484 98.9032 88.4529 98.5532 88.4105 98.2139C88.3363 97.6624 88.2727 97.0898 88.2196 96.5277V96.199C88.156 95.5945 88.103 94.9901 88.0606 94.375C88.0181 93.7599 87.9545 93.0176 87.9333 92.3389C87.9333 91.639 87.8591 90.9496 87.8485 90.2179C87.8379 89.4862 87.8485 88.8181 87.8485 88.097C87.805 75.0224 90.9153 62.1302 96.9155 50.5137Z" fill="#5894D5"/>
<path d="M201.046 163.401C191.037 167.606 180.289 169.77 169.433 169.764C168.68 169.764 167.948 169.764 167.216 169.764C166.76 169.764 166.304 169.764 165.848 169.711C165.392 169.658 165.212 169.711 164.894 169.711C164.406 169.711 163.929 169.711 163.452 169.616H162.847C162.275 169.616 161.713 169.52 161.14 169.467L159.199 169.244L179.348 140.05L201.046 163.401Z" fill="#7EAF92"/>
<path d="M207.393 15.8255L171.846 44.5326L159.48 7.0554C162.778 6.65865 166.096 6.46034 169.417 6.46153C182.65 6.43984 195.687 9.65455 207.393 15.8255Z" fill="#5894D5"/>
<path d="M251.055 88.1076C251.063 102.558 247.232 116.752 239.954 129.236C232.676 141.72 222.212 152.047 209.633 159.159L195.539 116.507L241.606 49.9304C247.837 61.6896 251.081 74.7998 251.055 88.1076Z" fill="#5894D5"/>
<path d="M179.388 139.901L159.239 169.096C158.73 169.043 158.178 168.969 157.701 168.884C157.224 168.799 156.853 168.767 156.429 168.693C156.004 168.619 155.495 168.545 155.018 168.46C154.541 168.375 153.767 168.237 153.141 168.099L151.55 167.76L150.554 167.527C150.108 167.431 149.673 167.314 149.228 167.208C147.796 166.848 146.375 166.434 144.986 165.989L143.459 165.49L141.433 164.78C140.808 164.557 140.182 164.313 139.567 164.069C138.952 163.826 138.326 163.582 137.722 163.316L135.919 162.532L134.127 161.694C132.313 160.824 130.553 159.891 128.824 158.894L127.202 157.929C126.078 157.251 124.964 156.529 123.893 155.808C123.342 155.448 122.833 155.077 122.281 154.748C121.73 154.419 121.221 153.974 120.68 153.581H120.616L119.132 152.436L117.848 151.376C117.223 150.877 116.618 150.315 116.003 149.827L114.529 148.555L113.172 147.293L113.034 147.165L111.698 145.85L110.552 144.684C110.022 144.143 109.492 143.623 109.004 143.019C108.516 142.414 108.124 142.043 107.7 141.545C107.276 141.046 107.032 140.771 106.713 140.378C106.512 140.156 106.332 139.933 106.151 139.7C105.823 139.307 105.515 138.915 105.197 138.523C104.879 138.13 104.508 137.642 104.137 137.186C103.765 136.73 103.246 135.999 102.822 135.384L101.729 133.708C101.475 133.326 101.22 132.944 100.966 132.541C100.807 132.319 100.658 132.075 100.499 131.831C99.8204 130.77 99.1523 129.71 98.516 128.554L97.6464 126.974C96.9783 125.754 96.342 124.514 95.7482 123.252C95.4831 122.732 95.2391 122.191 95.0058 121.661C94.7725 121.131 94.4968 120.537 94.2529 119.964C94.2529 119.964 94.2529 119.879 94.2529 119.837C94.009 119.243 93.7545 118.639 93.5106 118.034C93.514 118.01 93.514 117.985 93.5106 117.96C93.2667 117.355 93.044 116.74 92.8213 116.125C92.5986 115.51 92.3865 114.948 92.185 114.344C91.9835 113.739 91.8244 113.283 91.6441 112.721C91.4638 112.159 91.4002 111.905 91.273 111.502C91.2695 111.477 91.2695 111.452 91.273 111.427L90.8594 110.006L125.76 81.7446L179.388 139.901Z" fill="#3178C4"/>
<path d="M241.609 49.9304L195.542 116.507L171.809 44.5325L207.356 15.8254C221.951 23.4802 233.891 35.3685 241.609 49.9304Z" fill="#377FCC"/>
<path d="M195.583 116.497L179.39 139.901L125.762 81.766L171.85 44.5327L195.583 116.497Z" fill="#5894D5"/>
<path d="M184.542 76.7393L184.796 72.4444L187.66 71.0657C191.685 69.1479 195.085 66.1288 197.465 62.3581C199.844 58.5875 201.107 54.2196 201.107 49.7608C201.106 41.8568 198.592 34.1578 193.927 27.7771L190.746 23.3867L163.438 32.528L163.682 42.7828H161.88C160.119 42.7828 158.43 43.4823 157.185 44.7272C155.94 45.9722 155.241 47.6607 155.241 49.4214C155.241 50.2927 155.413 51.1554 155.747 51.9603C156.08 52.7651 156.569 53.4963 157.186 54.1119C157.803 54.7275 158.535 55.2155 159.34 55.5479C160.145 55.8804 161.008 56.0508 161.88 56.0494H164.001L164.319 69.9734V74.8516C160.066 78.5439 155.237 81.5137 150.023 83.643C150.023 83.643 160.459 96.7399 177.702 97.5989C194.945 98.4578 195.539 88.1076 195.539 88.1076C191.614 85.7595 187.854 83.1446 184.287 80.2813L184.542 76.7393Z" fill="#FF996A"/>
<path d="M184.8 72.4444L184.545 76.7393C183.813 76.6544 183.05 76.5378 182.265 76.3999C170.059 74.1729 165.297 63.1334 165.775 57.4492C165.775 57.4492 169.889 71.14 184.8 72.4444Z" fill="#D37A57"/>
<path d="M161.608 47.5233C162.157 47.8891 162.565 48.4316 162.764 49.0609C162.467 49.1859 162.21 49.3909 162.023 49.6531C161.836 49.9152 161.725 50.2242 161.703 50.5456C161.701 50.8917 161.8 51.2308 161.989 51.521C162.177 51.8112 162.447 52.0399 162.764 52.1787C162.527 52.5974 162.135 52.9063 161.673 53.0392C161.211 53.1721 160.715 53.1183 160.293 52.8893C158.744 52.0515 158.999 49.1458 160.537 48.5307C160.537 48.5307 158.097 48.255 157.207 49.1458C157.169 48.8162 157.226 48.4827 157.37 48.1842C157.515 47.8857 157.741 47.6344 158.023 47.4596C158.545 47.0748 159.178 46.8725 159.826 46.884C160.474 46.8955 161.1 47.1202 161.608 47.5233Z" fill="#D37A57"/>
<path d="M184.2 39.4423C184.054 39.4443 183.914 39.5011 183.808 39.6014C183.17 40.181 182.36 40.5353 181.502 40.61C180.644 40.6847 179.785 40.4757 179.057 40.015C178.916 39.9179 178.743 39.8807 178.575 39.9116C178.407 39.9424 178.258 40.0387 178.161 40.1793C178.064 40.32 178.027 40.4934 178.057 40.6614C178.088 40.8295 178.185 40.9784 178.325 41.0754C179.291 41.7123 180.441 42.0082 181.594 41.9159C182.747 41.8237 183.836 41.3487 184.688 40.5664C184.814 40.4542 184.891 40.2971 184.903 40.1287C184.915 39.9602 184.861 39.7938 184.752 39.665C184.685 39.5858 184.6 39.5241 184.504 39.4853C184.407 39.4464 184.303 39.4317 184.2 39.4423Z" fill="#3F2D1F"/>
<path d="M198.551 41.0117C198.423 40.9384 198.273 40.9121 198.127 40.9374C197.283 41.1136 196.405 41.0077 195.627 40.636C194.849 40.2643 194.215 39.6474 193.822 38.8801C193.786 38.8042 193.736 38.7361 193.674 38.6795C193.612 38.623 193.54 38.5792 193.461 38.5507C193.382 38.5221 193.299 38.5093 193.215 38.5131C193.131 38.5169 193.049 38.5371 192.973 38.5726C192.897 38.6081 192.829 38.6582 192.773 38.7201C192.716 38.7819 192.672 38.8543 192.644 38.9331C192.615 39.0119 192.602 39.0955 192.606 39.1792C192.61 39.2629 192.63 39.3451 192.666 39.421C193.176 40.4465 194.011 41.2742 195.042 41.7749C196.072 42.2756 197.239 42.4212 198.36 42.1888C198.443 42.1735 198.521 42.1422 198.591 42.0966C198.661 42.051 198.721 41.992 198.769 41.9231C198.816 41.8542 198.849 41.7766 198.866 41.6948C198.884 41.613 198.885 41.5286 198.869 41.4465C198.853 41.3546 198.816 41.2677 198.76 41.1924C198.705 41.1171 198.634 41.0553 198.551 41.0117Z" fill="#3F2D1F"/>
<path d="M183.879 47.0246C183.879 47.0246 183.879 49.5061 180.623 49.9197C179.731 50.0298 178.832 49.7896 178.114 49.2495C177.395 48.7095 176.915 47.9118 176.773 47.0246C177.953 45.9808 179.444 45.3547 181.015 45.243C181.624 45.1717 182.239 45.3091 182.759 45.6328C183.279 45.9565 183.674 46.4472 183.879 47.0246Z" fill="white"/>
<path d="M198.721 47.0246C198.721 47.0246 198.721 49.5061 195.539 49.9197C192.358 50.3333 191.934 47.0246 191.934 47.0246C193.008 45.9743 194.422 45.3424 195.921 45.243C196.521 45.1731 197.127 45.312 197.637 45.6365C198.147 45.961 198.53 46.4512 198.721 47.0246Z" fill="white"/>
<path d="M191.926 47.0246C192.878 45.984 194.095 45.2215 195.447 44.8189C195.808 44.6999 196.192 44.6652 196.569 44.7175C196.945 44.7698 197.305 44.9078 197.621 45.1207C197.936 45.3336 198.198 45.6159 198.388 45.9459C198.577 46.276 198.688 46.645 198.713 47.0246C198.549 46.5763 198.251 46.1889 197.861 45.9141C197.471 45.6393 197.006 45.4902 196.528 45.4869C194.704 45.3173 191.926 47.0246 191.926 47.0246Z" fill="#3F2D1F"/>
<path d="M176.762 47.0248C177.759 45.9331 179.035 45.1339 180.452 44.713C182.361 44.363 183.634 45.2963 183.867 47.0248C183.694 46.5562 183.382 46.1517 182.972 45.8655C182.563 45.5793 182.076 45.425 181.576 45.4235C179.636 45.2432 176.762 47.0248 176.762 47.0248Z" fill="#3F2D1F"/>
<path d="M188.793 47.0989L190.299 56.1447C191.277 56.1571 192.247 55.9582 193.141 55.5615C193.141 55.5615 189.228 48.1063 188.793 47.0989Z" fill="#D37A57"/>
<path d="M178.7 47.661C178.786 48.053 178.982 48.4125 179.265 48.6976C179.547 48.9827 179.905 49.1818 180.296 49.2717C180.687 49.3617 181.096 49.3387 181.475 49.2056C181.854 49.0724 182.187 48.8346 182.436 48.5196C182.684 48.2046 182.839 47.8255 182.881 47.4263C182.923 47.0271 182.85 46.6241 182.672 46.2643C182.494 45.9045 182.218 45.6026 181.875 45.3937C181.533 45.1848 181.138 45.0774 180.736 45.084C180.128 45.1637 179.575 45.4775 179.195 45.9588C178.814 46.4401 178.637 47.0508 178.7 47.661Z" fill="#3F2D1F"/>
<path d="M192.995 47.7353C193.081 48.1083 193.27 48.4496 193.541 48.7201C193.811 48.9905 194.153 49.1791 194.526 49.2643C194.899 49.3495 195.289 49.3278 195.65 49.2016C196.012 49.0755 196.33 48.8501 196.569 48.5512C196.808 48.2523 196.958 47.8921 197.002 47.5119C197.046 47.1316 196.981 46.7468 196.816 46.4014C196.651 46.0561 196.392 45.7642 196.069 45.5594C195.746 45.3545 195.371 45.2449 194.989 45.2432C194.397 45.3177 193.859 45.6196 193.486 46.0849C193.114 46.5502 192.938 47.1422 192.995 47.7353Z" fill="#3F2D1F"/>
<path d="M193 60.5533L181 60C181 60 183.781 64.0528 187.736 63.9995C191.378 63.9728 193 60.5533 193 60.5533Z" fill="white"/>
<path d="M178.172 46.049C177.847 46.1827 177.493 46.2333 177.143 46.1963C176.793 46.1592 176.458 46.0357 176.168 45.8369C176.168 45.8369 176.263 46.8126 176.762 47.0247L178.172 46.049Z" fill="#3F2D1F"/>
<path d="M197.66 45.3809C197.66 45.3809 198.795 46.3141 199.654 46.0278C199.972 45.9217 198.763 47.0246 198.763 47.0246C198.57 46.3778 198.185 45.8048 197.66 45.3809Z" fill="#3F2D1F"/>
<path d="M204.171 93.3357C204.171 93.3357 219.464 121.279 225.296 144.716L209.527 153.857C209.527 153.857 203.259 141.333 201.107 122.106C198.954 102.88 204.171 93.3357 204.171 93.3357Z" fill="#0B0E0F"/>
<path d="M195.541 30.2374C195.541 30.2374 180.259 44.6917 166.293 43.1116C166.293 43.1116 164.787 53.2604 167.3 57.1523C167.3 57.1523 166.24 58.2128 164.712 54.1512C163.185 50.0896 164.394 44.4796 163.652 42.7829C162.146 42.5223 160.597 42.7329 159.215 43.3858C157.833 44.0387 156.687 45.1021 155.932 46.4309C152.867 51.1712 159.569 56.9614 163.96 56.0494L164.161 64.7772C162.593 65.2897 160.922 65.4 159.301 65.0979C157.679 64.7959 156.16 64.0912 154.882 63.0486C150.64 59.4536 152.761 55.7843 152.761 55.7843C152.761 55.7843 146.398 49.4215 146.069 40.6725C145.741 31.9236 153.09 26.3773 153.09 26.3773C153.09 26.3773 155.497 13.3759 171.553 13.238C187.608 13.1002 192.285 17.9147 192.285 17.9147C195.455 18.6069 198.373 20.1616 200.716 22.4072C203.059 24.6528 204.736 27.502 205.562 30.6404C208.489 41.6588 201.14 47.5444 201.14 47.5444C201.14 47.5444 198.976 33.4825 195.541 30.2374Z" fill="#3F2D1F"/>
<path d="M155.751 24.8608C155.751 24.8608 154.987 15.4226 146.026 15.8255C137.065 16.2285 135.347 26.4303 139.239 31.2343C143.131 36.0382 148.2 34.9035 151.965 31.2343C155.729 27.565 155.751 24.8608 155.751 24.8608Z" fill="#3F2D1F"/>
<path d="M167.437 61.988L161.796 73.7381C161.749 73.8308 161.683 73.9124 161.602 73.9773C161.521 74.0421 161.427 74.0887 161.326 74.1139C161.226 74.139 161.121 74.1422 161.019 74.1231C160.917 74.104 160.82 74.0631 160.735 74.0032L160.502 73.8229L142.007 59.5383C141.868 59.4295 141.772 59.2754 141.735 59.1029C141.699 58.9304 141.723 58.7505 141.806 58.5945L148.169 46.9293L148.317 46.6535C148.368 46.5651 148.438 46.4885 148.521 46.429C148.604 46.3694 148.699 46.3283 148.799 46.3082C148.9 46.2881 149.003 46.2896 149.103 46.3126C149.202 46.3356 149.296 46.3795 149.378 46.4414L167.236 61.129C167.36 61.2297 167.447 61.3687 167.483 61.5241C167.52 61.6796 167.504 61.8427 167.437 61.988Z" fill="white"/>
<path d="M206.369 161.015C195.964 166.241 184.563 169.187 172.928 169.655C161.293 170.123 149.693 168.103 138.901 163.73L132.867 94.5869C132.867 94.5869 134.108 89.8148 141.499 87.1C149.909 83.9928 149.983 83.6428 149.983 83.6428C182.031 99.7621 195.584 88.0968 195.584 88.0968L202.636 91.6812C203.334 92.0261 203.881 92.6146 204.174 93.3356C205.839 97.3124 211.353 111.12 211.904 120.632C212.339 128.215 208.755 148.555 206.369 161.015Z" fill="#2F3C41"/>
<path d="M136.395 89.8892C136.395 89.8892 128.59 92.9964 125.79 113.442C122.991 133.888 125.981 144.716 125.981 144.716L141.454 126.285C141.454 126.285 146.82 97.9488 136.395 89.8892Z" fill="#0B0E0F"/>
<path d="M159.624 59.9944C158.129 60.8533 154.248 63.5682 153.558 64.7135C153.269 65.2335 153.088 65.8073 153.028 66.3996L152.053 65.9118C152.411 64.4645 152.879 63.0465 153.452 61.6699C154.386 61.1539 155.207 60.4583 155.87 59.6232C156.118 59.3185 156.295 58.9626 156.389 58.5811C156.482 58.1997 156.49 57.8022 156.411 57.4174C155.817 57.7567 154.863 58.3824 153.877 59.0823V59.0187C154.127 58.7176 154.306 58.3636 154.399 57.9833C154.493 57.6031 154.499 57.2065 154.417 56.8235C152.869 57.7143 148.839 60.5352 148.118 61.7229C147.788 62.3156 147.595 62.9755 147.556 63.653L147.28 63.5151C147.645 61.9419 148.141 60.4022 148.765 58.9127C149.698 58.3966 150.52 57.701 151.183 56.8659C151.431 56.5613 151.608 56.2054 151.702 55.8239C151.795 55.4424 151.803 55.0449 151.724 54.6602C150.176 55.5616 146.146 58.3718 145.425 59.5596C144.979 60.3994 144.777 61.347 144.841 62.2956L145.425 72.4443L145.987 83.6112C145.987 83.6112 125.551 130.527 125.763 142.022C125.975 153.518 132.869 158.004 132.869 158.004C135.321 157.554 137.655 156.602 139.722 155.207C141.79 153.813 143.547 152.007 144.884 149.902C149.571 142.68 153.887 87.5986 153.887 87.5986C155.314 85.3659 156.294 82.8771 156.772 80.2707C157.196 76.6969 155.552 67.6616 155.552 67.6616C155.883 66.4445 156.294 65.2507 156.782 64.0878C157.681 63.593 158.471 62.9222 159.105 62.1153C159.343 61.8225 159.514 61.4802 159.604 61.1134C159.693 60.7465 159.701 60.3643 159.624 59.9944Z" fill="#FF996A"/>
<path d="M167.441 61.9881L161.8 73.7381C161.753 73.8309 161.687 73.9124 161.606 73.9773C161.525 74.0421 161.431 74.0887 161.33 74.1139C161.229 74.1391 161.125 74.1422 161.023 74.1231C160.921 74.104 160.824 74.0631 160.739 74.0032L160.506 73.823L166.169 61.5957L148.141 46.9505L148.289 46.6748C148.34 46.5863 148.41 46.5097 148.493 46.4502C148.576 46.3907 148.671 46.3495 148.771 46.3294C148.872 46.3094 148.975 46.3109 149.075 46.3339C149.175 46.3568 149.268 46.4007 149.35 46.4627L167.208 61.1503C167.333 61.2455 167.423 61.3788 167.465 61.53C167.507 61.6812 167.499 61.842 167.441 61.9881Z" fill="#D9D9D9"/>
<path d="M148.144 49.2622L147.359 50.7999L151.251 53.9283L152.142 52.4436L148.144 49.2622Z" fill="#D9D9D9"/>
<path d="M211.484 158.328C211.203 157.812 209.523 153.848 209.523 153.848L225.297 144.703L226.125 147.156C226.125 147.156 221.422 152.234 211.484 158.328Z" fill="#FF996A"/>
<path d="M206.73 136.699C200.38 135.692 193.954 135.234 187.525 135.33C179.399 135.433 171.295 136.196 163.293 137.611" stroke="#0B0E0F" stroke-linecap="round" stroke-linejoin="round"/>
<path d="M193.965 21.7112C193.965 21.7112 195.916 25.3062 195.746 27.7665" stroke="#543E2F" stroke-linecap="round" stroke-linejoin="round"/>
<path d="M190.973 18.9856C190.973 18.9856 183.062 21.5626 178.703 27.7663" stroke="#543E2F" stroke-linecap="round" stroke-linejoin="round"/>
<path d="M154.278 22.9944C153.688 24.2589 153.229 25.5808 152.91 26.9394C152.91 26.9394 148.668 30.8737 148.148 33.1538" stroke="#543E2F" stroke-linecap="round" stroke-linejoin="round"/>
<path d="M138.371 33.6838C138.668 33.9065 142.857 37.0774 147.141 34.405" stroke="#543E2F" stroke-linecap="round" stroke-linejoin="round"/>
<path d="M159.48 21.7111C159.48 21.7111 169.29 12.6546 185.547 17.4692" stroke="#543E2F" stroke-linecap="round" stroke-linejoin="round"/>
<path d="M161.469 40.3861C161.469 40.3861 165.711 42.0829 174.704 40.3861C183.696 38.6894 191.926 29.4526 191.926 29.4526" stroke="#543E2F" stroke-linecap="round" stroke-linejoin="round"/>
<path d="M157.832 89.8892C157.832 89.8892 170.155 95.0325 182.785 94.2795C195.415 93.5266 196.974 91.289 196.974 91.289" stroke="#0B0E0F" stroke-linecap="round" stroke-linejoin="round"/>
<path d="M145.044 61.4473H67.6289V152.118" stroke="black" stroke-dasharray="2 2"/>
<path d="M118.532 280.436H67.6289V189.765" stroke="black" stroke-dasharray="2 2"/>
<rect x="237.5" y="370.5" width="60" height="60" rx="30" fill="url(#paint1_linear_26_8)" stroke="#81B1E2"/>
<path d="M258.025 398.506L260.893 396.355C261.209 396.118 261.429 395.775 261.514 395.39C261.599 395.004 261.542 394.6 261.355 394.253L257.808 387.664C257.633 387.339 257.353 387.082 257.014 386.934C256.675 386.786 256.297 386.757 255.939 386.85L250.446 388.281C250.115 388.366 249.806 388.519 249.537 388.73C249.268 388.941 249.046 389.205 248.885 389.506C248.724 389.807 248.627 390.139 248.6 390.479C248.573 390.82 248.617 391.162 248.73 391.484C249.902 394.819 252.694 400.934 258.79 407.03C264.885 413.125 271 415.918 274.335 417.09C275.698 417.569 277.174 416.771 277.539 415.374L278.97 409.881C279.063 409.523 279.034 409.145 278.886 408.806C278.738 408.467 278.481 408.187 278.155 408.012L271.567 404.465C271.219 404.278 270.816 404.221 270.43 404.306C270.045 404.391 269.702 404.611 269.465 404.927L267.313 407.798C267.182 407.974 267.017 408.121 266.828 408.233C266.639 408.344 266.43 408.417 266.213 408.446C265.995 408.476 265.774 408.461 265.563 408.404C265.351 408.347 265.153 408.249 264.98 408.114C263.626 407.054 262.339 405.913 261.124 404.697C259.831 403.403 258.698 402.105 257.708 400.838C257.574 400.665 257.475 400.467 257.418 400.255C257.361 400.043 257.347 399.822 257.376 399.605C257.406 399.388 257.478 399.179 257.59 398.99C257.701 398.801 257.849 398.637 258.025 398.506Z" fill="#007BFF"/>
<circle cx="274" cy="391" r="8" fill="#007BFF"/>
<path d="M271 388L277 394" stroke="white" stroke-width="2" stroke-linecap="round"/>
<path d="M277 388L271 394" stroke="white" stroke-width="2" stroke-linecap="round"/>
<rect x="460.5" y="130.5" width="60" height="60" rx="30" fill="url(#paint2_linear_26_8)" stroke="#81B1E2"/>
<path d="M492.357 157.769C491.994 157.408 491.707 156.979 491.511 156.506C491.315 156.032 491.215 155.525 491.216 155.013L491.216 143.35L494.761 143.35L494.761 155.014C494.762 155.255 494.872 155.365 495.112 155.365L506.777 155.366L506.777 158.911L495.113 158.91C494.601 158.912 494.094 158.812 493.621 158.616C493.148 158.42 492.718 158.132 492.357 157.769Z" fill="#007BFF"/>
<path d="M491.873 167.542L489.005 169.693C488.689 169.93 488.469 170.273 488.384 170.659C488.299 171.044 488.355 171.448 488.543 171.795L492.09 178.384C492.265 178.709 492.545 178.966 492.884 179.114C493.223 179.262 493.601 179.292 493.959 179.198L499.452 177.767C499.783 177.682 500.092 177.529 500.361 177.318C500.629 177.107 500.852 176.843 501.013 176.542C501.174 176.241 501.271 175.91 501.298 175.569C501.325 175.229 501.281 174.886 501.168 174.564C499.996 171.229 497.204 165.114 491.108 159.018C485.013 152.923 478.898 150.13 475.562 148.958C474.2 148.479 472.724 149.277 472.359 150.674L470.928 156.167C470.835 156.525 470.864 156.904 471.012 157.243C471.16 157.581 471.417 157.861 471.743 158.036L478.331 161.583C478.679 161.771 479.082 161.827 479.468 161.742C479.853 161.657 480.196 161.437 480.433 161.121L482.585 158.25C482.716 158.075 482.881 157.927 483.07 157.815C483.259 157.704 483.468 157.632 483.685 157.602C483.903 157.573 484.124 157.587 484.335 157.644C484.547 157.701 484.745 157.799 484.918 157.934C486.272 158.994 487.559 160.135 488.773 161.352C490.067 162.645 491.2 163.943 492.19 165.21C492.324 165.383 492.423 165.582 492.48 165.793C492.537 166.005 492.551 166.226 492.522 166.443C492.492 166.66 492.42 166.869 492.308 167.058C492.197 167.247 492.049 167.412 491.873 167.542Z" fill="#007BFF"/>
<path d="M509.283 157.138L503.016 163.405V150.87L509.283 157.138Z" fill="#007BFF"/>
</g>
<defs>
<filter id="filter0_d_26_8" x="0" y="0.5" width="525" height="438.5" filterUnits="userSpaceOnUse" color-interpolation-filters="sRGB">
<feFlood flood-opacity="0" result="BackgroundImageFix"/>
<feColorMatrix in="SourceAlpha" type="matrix" values="0 0 0 0 0 0 0 0 0 0 0 0 0 0 0 0 0 0 127 0" result="hardAlpha"/>
<feOffset dy="4"/>
<feGaussianBlur stdDeviation="2"/>
<feComposite in2="hardAlpha" operator="out"/>
<feColorMatrix type="matrix" values="0 0 0 0 0 0 0 0 0 0 0 0 0 0 0 0 0 0 0.25 0"/>
<feBlend mode="normal" in2="BackgroundImageFix" result="effect1_dropShadow_26_8"/>
<feBlend mode="normal" in="SourceGraphic" in2="effect1_dropShadow_26_8" result="shape"/>
</filter>
<linearGradient id="paint0_linear_26_8" x1="207.611" y1="142.043" x2="358.729" y2="296.873" gradientUnits="userSpaceOnUse">
<stop stop-color="#A0D1FF"/>
<stop offset="1" stop-color="#CEE7FF"/>
</linearGradient>
<linearGradient id="paint1_linear_26_8" x1="261.509" y1="386.775" x2="288.916" y2="403.228" gradientUnits="userSpaceOnUse">
<stop stop-color="#A0D1FF"/>
<stop offset="1" stop-color="#CEE7FF"/>
</linearGradient>
<linearGradient id="paint2_linear_26_8" x1="484.509" y1="146.775" x2="511.916" y2="163.228" gradientUnits="userSpaceOnUse">
<stop stop-color="#A0D1FF"/>
<stop offset="1" stop-color="#CEE7FF"/>
</linearGradient>
</defs>
</svg>
