<svg width="94" height="83" viewBox="0 0 94 83" fill="none" xmlns="http://www.w3.org/2000/svg">
<g id="Frame 7">
<path id="Union" fill-rule="evenodd" clip-rule="evenodd" d="M30.7105 34.2666L30.7107 34.2645L31.5563 28.3466C31.7766 26.8035 33.003 25.6012 34.5076 25.3693V19.8789C34.5076 19.3935 34.9011 19 35.3865 19H45.9334C46.4188 19 46.8123 19.3935 46.8123 19.8789V25.3687C48.335 25.5983 49.5451 26.8129 49.7637 28.3472L50.9742 36.8208C51.5136 36.3189 52.2071 35.987 52.9646 35.8991V31.4805C52.9646 30.995 53.3581 30.6016 53.8435 30.6016H59.117C59.6024 30.6016 59.9959 30.995 59.9959 31.4805V35.8991C61.4914 36.0726 62.7389 37.1974 63.0392 38.7018L64.493 45.8809C64.5893 46.3567 64.2818 46.8205 63.806 46.9168C63.7471 46.9287 63.6884 46.9345 63.6306 46.9345C63.221 46.9345 62.8545 46.6467 62.7701 46.2298L61.3158 39.0483C61.152 38.227 60.4274 37.6328 59.5925 37.6328H53.368C52.5331 37.6328 51.8085 38.227 51.6451 39.0458L51.439 40.0746L54.2838 59.9874C54.3993 60.7982 54.2325 61.5837 53.8542 62.2422H63.8631C64.9711 62.2422 65.8046 61.2285 65.587 60.1398L64.3402 53.9833C64.2439 53.5075 64.5514 53.0437 65.0272 52.9474C65.5029 52.8514 65.9666 53.1586 66.0631 53.6344L67.3101 59.7931C67.7454 61.9705 66.082 64 63.863 64H30.5164C28.3791 64 26.7335 62.1057 27.0359 59.9875L30.7098 34.2706L30.7105 34.2666ZM58.238 35.875V32.3594H54.7224V35.875H58.238ZM50.1367 43.3882L49.5188 39.063L33.0665 30.2041L32.5371 33.9121L50.1367 43.3882ZM51.5103 62.0946C52.2244 61.7851 52.6574 61.0351 52.5435 60.2356L52.2995 58.5271L30.683 46.8876L30.1533 50.5954L51.5103 62.0946ZM34.5307 62.2422H48.0764L41.3033 58.5953L34.5307 62.2422ZM33.8879 54.6026L29.8885 52.4492L29.222 57.1148L33.8879 54.6026ZM31.4775 41.3266L30.9479 45.0337L51.9904 56.3643L51.3726 52.0392L31.4775 41.3266ZM32.2719 35.7657L31.7423 39.4728L51.0636 49.8765L50.4457 45.5509L32.2719 35.7657ZM44.4966 34.3623L49.2099 36.9002L48.5364 32.1868L44.4966 34.3623ZM28.9131 59.2776L28.7762 60.2359C28.6251 61.2939 29.4466 62.2422 30.5164 62.2422H30.823L39.4495 57.5971L35.7418 55.6007L28.9131 59.2776ZM48.2716 30.3329L48.0234 28.5953C47.9245 27.9018 47.4208 27.3398 46.7617 27.1531L38.9356 31.3679L42.6428 33.3641L48.2716 30.3329ZM45.0544 25.3281V20.7578H36.2653V25.3281H45.0544ZM43.1793 27.0859H35.0366C34.249 27.0859 33.5624 27.6194 33.3488 28.3596L37.0818 30.3697L43.1793 27.0859ZM65.2694 49.9377C65.2694 50.4231 64.8759 50.8166 64.3905 50.8166C63.9051 50.8166 63.5116 50.4231 63.5116 49.9377C63.5116 49.4523 63.9051 49.0588 64.3905 49.0588C64.8759 49.0588 65.2694 49.4523 65.2694 49.9377Z" fill="url(#paint0_linear_1_1404)"/>
</g>
<defs>
<linearGradient id="paint0_linear_1_1404" x1="27" y1="19" x2="71.0933" y2="52.0844" gradientUnits="userSpaceOnUse">
<stop stop-color="#FE5B52"/>
<stop offset="1" stop-color="#3D96F5"/>
</linearGradient>
</defs>
</svg>
