<svg width="65" height="60" viewBox="0 0 65 60" fill="none" xmlns="http://www.w3.org/2000/svg">
<path d="M28.6376 45.0891C27.2736 45.0891 26.1647 43.9822 26.1647 42.6182C26.1647 41.2542 27.2736 40.1463 28.6376 40.1463C30.0016 40.1463 31.1105 41.2542 31.1105 42.6182C31.1105 43.9822 30.0016 45.0891 28.6376 45.0891ZM28.6376 42.2281C28.534 42.2281 28.4347 42.2691 28.3614 42.3423C28.2881 42.4154 28.2467 42.5146 28.2465 42.6182C28.2465 43.0487 29.0288 43.0487 29.0288 42.6182C29.0285 42.5146 28.9872 42.4154 28.9138 42.3423C28.8405 42.2691 28.7412 42.2281 28.6376 42.2281ZM37.9325 45.0891C36.5695 45.0891 35.4616 43.9822 35.4616 42.6182C35.4616 41.2542 36.5695 40.1463 37.9335 40.1463C39.2974 40.1463 40.4044 41.2542 40.4044 42.6182C40.4044 43.9822 39.2954 45.0891 37.9325 45.0891ZM37.9325 42.2281C37.829 42.2281 37.7297 42.2692 37.6566 42.3423C37.5834 42.4155 37.5423 42.5147 37.5423 42.6182C37.5423 43.0487 38.3236 43.0487 38.3236 42.6182C38.3236 42.5147 38.2825 42.4155 38.2093 42.3423C38.1362 42.2692 38.0359 42.2281 37.9325 42.2281ZM45.7182 21.355C45.4928 21.0594 45.202 20.8201 44.8687 20.6559C44.5353 20.4916 44.1683 20.4069 43.7967 20.4083H20.1503L19.5353 18.1048C19.3829 17.5354 19.0469 17.0321 18.5794 16.673C18.1119 16.314 17.539 16.1192 16.9495 16.1188H15.398C15.1221 16.1188 14.8574 16.2284 14.6623 16.4235C14.4672 16.6186 14.3576 16.8833 14.3576 17.1592C14.3576 17.4351 14.4672 17.6997 14.6623 17.8948C14.8574 18.0899 15.1221 18.1996 15.398 18.1996H16.9495C17.2187 18.1996 17.4535 18.381 17.5241 18.6421L22.4951 37.2278C22.6731 37.8908 23.0647 38.4767 23.6092 38.8947C24.1538 39.3128 24.8209 39.5397 25.5074 39.5404H42.1918C42.4678 39.5404 42.7326 39.4307 42.9278 39.2355C43.123 39.0403 43.2326 38.7756 43.2326 38.4995C43.2326 38.2235 43.123 37.9587 42.9278 37.7635C42.7326 37.5683 42.4678 37.4586 42.1918 37.4586H25.5074C25.0386 37.4586 24.6263 37.1421 24.5053 36.6905L24.1263 35.272H39.7904C40.7087 35.2709 41.6011 34.9672 42.3295 34.4079C43.0578 33.8487 43.5816 33.065 43.8199 32.1781L46.1385 23.4549C46.2351 23.0961 46.2474 22.7199 46.1745 22.3556C46.1016 21.9914 45.9454 21.6489 45.7182 21.355ZM44.0679 22.6232C44.1062 22.6736 44.1646 22.7774 44.1263 22.9206L43.095 26.7998H39.4396L40.0193 22.4901H43.7967C43.9439 22.4901 44.0285 22.5728 44.0679 22.6232ZM37.3407 26.7998H33.5159V22.4901H37.9214L37.3407 26.7998ZM31.4351 22.4901V26.7998H27.6144L27.0297 22.4901H31.4351ZM24.9298 22.4901L25.5135 26.7998H21.8651L20.7108 22.4901H24.9298ZM25.7957 28.8816L26.3794 33.1903H23.5769L22.4226 28.8816H25.7957ZM27.8966 28.8816H31.4351V33.1903H28.4793L27.8966 28.8816ZM33.5159 33.1903V28.8816H37.0604L36.4798 33.1903H33.5159ZM39.7904 33.1903H38.5807L39.1603 28.8816H42.5426L41.8087 31.6418C41.6896 32.0857 41.4276 32.478 41.0631 32.7579C40.6986 33.0378 40.252 33.1898 39.7924 33.1903H39.7904ZM17.6259 4.77949C17.6259 4.52094 17.5232 4.27298 17.3404 4.09016C17.1576 3.90734 16.9096 3.80464 16.6511 3.80464H5.94487C5.68633 3.80464 5.43837 3.90734 5.25555 4.09016C5.07273 4.27298 4.97002 4.52094 4.97002 4.77949C4.97002 5.03803 5.07273 5.28599 5.25555 5.46881C5.43837 5.65163 5.68633 5.75434 5.94487 5.75434H16.6511C16.9096 5.75434 17.1576 5.65163 17.3404 5.46881C17.5232 5.28599 17.6259 5.03803 17.6259 4.77949ZM47.0267 4.77949C47.0267 5.05541 46.9171 5.32004 46.722 5.51515C46.5269 5.71025 46.2622 5.81987 45.9863 5.81987C45.7104 5.81987 45.4458 5.71025 45.2507 5.51515C45.0555 5.32004 44.9459 5.05541 44.9459 4.77949C44.9459 4.50356 45.0555 4.23894 45.2507 4.04383C45.4458 3.84872 45.7104 3.73911 45.9863 3.73911C46.2622 3.73911 46.5269 3.84872 46.722 4.04383C46.9171 4.23894 47.0267 4.50356 47.0267 4.77949ZM50.2799 3.73911C50.0038 3.73911 49.7391 3.84877 49.5439 4.04398C49.3487 4.23918 49.239 4.50393 49.239 4.77999C49.239 5.05605 49.3487 5.3208 49.5439 5.51601C49.7391 5.71121 50.0038 5.82087 50.2799 5.82087C50.5559 5.82087 50.8207 5.71121 51.0159 5.51601C51.2111 5.3208 51.3208 5.05605 51.3208 4.77999C51.3208 4.50393 51.2111 4.23918 51.0159 4.04398C50.8207 3.84877 50.5559 3.73911 50.2799 3.73911ZM54.5735 3.73911C54.2974 3.73911 54.0326 3.84877 53.8374 4.04398C53.6422 4.23918 53.5326 4.50393 53.5326 4.77999C53.5326 5.05605 53.6422 5.3208 53.8374 5.51601C54.0326 5.71121 54.2974 5.82087 54.5735 5.82087C54.8495 5.82087 55.1143 5.71121 55.3095 5.51601C55.5047 5.3208 55.6143 5.05605 55.6143 4.77999C55.6143 4.50393 55.5047 4.23918 55.3095 4.04398C55.1143 3.84877 54.8495 3.73911 54.5735 3.73911ZM63.7574 49.2153L60.5657 46.5246C60.5677 46.4611 60.5778 46.3976 60.5778 46.3331V5.6757C60.5778 2.55054 58.0273 0 54.9021 0H5.6757C2.55054 0 0 2.55054 0 5.6757V46.3331C0 49.4583 2.55054 52.0088 5.6757 52.0088H49.3655L49.3665 55.9072C49.3665 56.747 49.8383 57.4889 50.5985 57.8448C51.3525 58.1956 52.2286 58.0868 52.8728 57.5525L54.8225 55.9314L55.9072 58.2632C56.2429 58.991 56.8447 59.5435 57.5968 59.8177C57.9669 59.953 58.3601 60.0141 58.7538 59.9973C59.1475 59.9805 59.534 59.8862 59.8913 59.7199C60.2489 59.5546 60.5702 59.3201 60.8367 59.03C61.1032 58.7398 61.3095 58.3997 61.4438 58.0293C61.5801 57.6597 61.6415 57.2667 61.6246 56.8731C61.6076 56.4796 61.5126 56.0933 61.345 55.7368L60.2613 53.403L62.7553 52.9574C63.1564 52.8876 63.5288 52.7039 63.8284 52.4283C64.128 52.1527 64.342 51.7967 64.445 51.4029C64.5526 51.0108 64.5449 50.5959 64.423 50.208C64.3011 49.82 64.07 49.4754 63.7574 49.2153ZM2.07672 5.6757C2.07672 3.69979 3.68971 2.0868 5.6757 2.0868H54.9021C56.8881 2.0868 58.5011 3.69979 58.5011 5.6757V7.47015H2.07672V5.6757ZM49.3625 41.6766L49.3645 49.923H5.6757C4.72294 49.923 3.80905 49.5452 3.1344 48.8725C2.45975 48.1997 2.07939 47.2869 2.07672 46.3341V9.55797H58.5011V44.7846L52.8768 40.0424C52.5664 39.7781 52.1864 39.609 51.7822 39.5553C51.3781 39.5017 50.967 39.5658 50.5985 39.74C50.2277 39.9093 49.9137 40.1822 49.6945 40.5258C49.4752 40.8694 49.3599 41.269 49.3625 41.6766ZM62.3874 50.909L58.5646 51.5914C58.4077 51.6195 58.2593 51.6831 58.1309 51.7776C58.0025 51.872 57.8976 51.9947 57.8241 52.1362C57.7507 52.2776 57.7107 52.4341 57.7073 52.5934C57.7039 52.7528 57.7371 52.9108 57.8045 53.0552L59.4578 56.6169C59.509 56.7255 59.5381 56.8432 59.5434 56.9631C59.5488 57.083 59.5303 57.2028 59.489 57.3155C59.4051 57.5437 59.235 57.7298 59.0152 57.8337C58.9058 57.8846 58.7874 57.9133 58.6668 57.9183C58.5462 57.9234 58.4259 57.9045 58.3126 57.8629C58.1986 57.8224 58.0939 57.7594 58.0048 57.6777C57.9156 57.5959 57.8437 57.4971 57.7934 57.3871L56.1401 53.8295C56.0562 53.65 55.9228 53.4982 55.7557 53.3918C55.5886 53.2853 55.3946 53.2288 55.1965 53.2286C54.9565 53.2286 54.7206 53.3113 54.5311 53.4686L51.4483 55.9072L51.535 41.6322L62.4156 50.8061L62.3874 50.909Z" fill="url(#paint0_linear_1_4850)"/>
<defs>
<linearGradient id="paint0_linear_1_4850" x1="65.8038" y1="60.097" x2="21.5107" y2="3.77531" gradientUnits="userSpaceOnUse">
<stop stop-color="#31393C"/>
<stop offset="1" stop-color="#3D96F5"/>
</linearGradient>
</defs>
</svg>
