<svg width="48" height="48" viewBox="0 0 48 48" fill="none" xmlns="http://www.w3.org/2000/svg">
<rect x="0.5" y="0.5" width="47" height="47" fill="#EBF5FF" stroke="#DFE9F2"/>
<path d="M15.9859 22.1143C16.7657 22.1144 17.4001 22.7488 17.4001 23.5286V24.9428H23.0571V28.7478C21.46 28.9773 20.2286 30.3546 20.2286 32.0141C20.2286 33.6737 21.46 35.0511 23.0571 35.2805V40C14.948 39.5327 8.46689 33.0449 8 24.9428H14.5716V23.5286C14.5716 22.7488 15.2061 22.1143 15.9859 22.1143Z" fill="#0089FF"/>
<path d="M28.7477 24.9428C28.9772 26.5399 30.3545 27.7713 32.014 27.7713C33.6735 27.7713 35.051 26.5399 35.2804 24.9428H39.9999C39.5325 33.0519 33.0447 39.5331 24.9427 40V33.4284H23.5285C22.7487 33.4284 22.1143 32.7939 22.1143 32.0141C22.1143 31.2344 22.7487 30.5998 23.5285 30.5998H24.9427V24.9428H28.7477Z" fill="#0089FF"/>
<path d="M24.9429 8C33.052 8.46733 39.5331 14.9552 40 23.0572H33.4284V24.4714C33.4284 25.2512 32.7939 25.8856 32.0142 25.8857C31.2344 25.8857 30.5999 25.2512 30.5999 24.4714V23.0572H24.9429V19.2523C26.5399 19.0228 27.7713 17.6455 27.7714 15.9859C27.7714 14.3263 26.5399 12.949 24.9429 12.7196V8Z" fill="#0089FF"/>
<path d="M23.0571 14.5716H24.4714C25.2512 14.5716 25.8856 15.2061 25.8856 15.9859C25.8856 16.7657 25.2512 17.4002 24.4714 17.4002H23.0571V23.0572H19.2523C19.0228 21.4601 17.6455 20.2287 15.9859 20.2287C14.3263 20.2287 12.949 21.4601 12.7195 23.0572H8C8.46733 14.9483 14.9549 8.4669 23.0571 8V14.5716Z" fill="#0089FF"/>
</svg>
