<svg width="79" height="62" viewBox="0 0 79 62" fill="none" xmlns="http://www.w3.org/2000/svg">
<path d="M54.0917 4.97351H10.9472C9.45374 4.97351 8.23882 6.1892 8.23882 7.68342V44.3679C8.23882 45.8621 9.45389 47.0778 10.9472 47.0778H67.8413C69.3347 47.0778 70.5497 45.8621 70.5497 44.3679V7.68342C70.5497 6.1892 69.3346 4.97351 67.8413 4.97351H59.4777C59.1716 4.97351 58.878 5.09511 58.6616 5.31155C58.4452 5.52799 58.3236 5.82155 58.3236 6.12765C58.3236 6.43374 58.4452 6.7273 58.6616 6.94374C58.878 7.16018 59.1716 7.28178 59.4777 7.28178H67.8413C68.062 7.28178 68.2414 7.46198 68.2414 7.68342V44.3679C68.2415 44.4742 68.1994 44.5762 68.1244 44.6515C68.0494 44.7267 67.9476 44.7692 67.8413 44.7695H10.9472C10.8409 44.7692 10.7391 44.7267 10.6641 44.6515C10.5891 44.5762 10.547 44.4742 10.5471 44.3679V7.68342C10.547 7.57714 10.5891 7.47516 10.6641 7.39987C10.7391 7.32457 10.8409 7.28211 10.9472 7.28178H54.0917C54.3978 7.28178 54.6914 7.16018 54.9078 6.94374C55.1243 6.7273 55.2459 6.43374 55.2459 6.12765C55.2459 5.82155 55.1243 5.52799 54.9078 5.31155C54.6914 5.09511 54.3978 4.97351 54.0917 4.97351Z" fill="url(#paint0_linear_1_608)"/>
<path d="M76.7021 49.7431H75.5249V5.19514C75.5249 2.33058 73.1937 0 70.3282 0H17.829C17.5229 0 17.2294 0.121596 17.0129 0.338038C16.7965 0.55448 16.6749 0.848037 16.6749 1.15413C16.6749 1.46023 16.7965 1.75379 17.0129 1.97023C17.2294 2.18667 17.5229 2.30827 17.829 2.30827H70.3282C71.9209 2.30827 73.2166 3.60336 73.2166 5.19514V49.7431H17.829C17.5229 49.7431 17.2294 49.8647 17.0129 50.0812C16.7965 50.2976 16.6749 50.5911 16.6749 50.8972C16.6749 51.2033 16.7965 51.4969 17.0129 51.7133C17.2294 51.9298 17.5229 52.0514 17.829 52.0514H28.7527L29.7132 55.1252C29.8838 55.6771 30.2271 56.1597 30.6925 56.5019C31.158 56.844 31.721 57.0277 32.2986 57.0258H46.4905C47.6815 57.0258 48.7206 56.2621 49.0759 55.1251L50.0364 52.0512H76.4805V54.9796C76.4805 55.3474 76.378 55.7055 76.1835 56.0161L74.4602 58.7734C74.2852 59.0551 74.041 59.2874 73.7509 59.4481C73.4608 59.6089 73.1343 59.6927 72.8027 59.6916H5.9861C5.65449 59.6927 5.32811 59.6089 5.03802 59.4482C4.74792 59.2876 4.50376 59.0553 4.32877 58.7737L2.6048 56.0154C2.41058 55.705 2.3078 55.346 2.30827 54.9798V52.0514H12.4431C12.7492 52.0514 13.0427 51.9298 13.2592 51.7133C13.4756 51.4969 13.5972 51.2033 13.5972 50.8972C13.5972 50.5911 13.4756 50.2976 13.2592 50.0812C13.0427 49.8647 12.7492 49.7431 12.4431 49.7431H5.57215V5.19514C5.57215 3.60336 6.86786 2.30827 8.46056 2.30827H12.4431C12.7492 2.30827 13.0427 2.18667 13.2592 1.97023C13.4756 1.75379 13.5972 1.46023 13.5972 1.15413C13.5972 0.848037 13.4756 0.55448 13.2592 0.338038C13.0427 0.121596 12.7492 0 12.4431 0H8.46056C5.59508 0 3.26389 2.33058 3.26389 5.19514V49.7431H2.08667C0.93608 49.7431 1.20469e-06 50.6792 1.20469e-06 51.8298V54.9798C-0.00060012 55.779 0.223925 56.5621 0.647854 57.2396L2.37151 59.9975C3.15571 61.2514 4.50697 62 5.9861 62H72.8027C74.2817 62 75.6331 61.2514 76.4174 59.9972L78.1405 57.2404C78.5647 56.5627 78.7893 55.7793 78.7888 54.9798V51.8298C78.7888 50.6792 77.8527 49.7431 76.7021 49.7431ZM46.8724 54.4366C46.8472 54.5182 46.7965 54.5895 46.7277 54.6401C46.6589 54.6907 46.5757 54.7178 46.4903 54.7176H32.2985C32.2131 54.7179 32.1299 54.6907 32.0611 54.6402C31.9923 54.5896 31.9416 54.5183 31.9164 54.4367L31.171 52.0514H47.6178L46.8724 54.4366Z" fill="url(#paint1_linear_1_608)"/>
<path d="M17.0301 19.8972C16.8783 19.8972 16.728 19.9271 16.5879 19.9853C16.4477 20.0434 16.3204 20.1287 16.2132 20.2361C16.106 20.3435 16.021 20.471 15.9631 20.6113C15.9053 20.7516 15.8756 20.9019 15.8759 21.0537L15.8961 31.0023C15.8968 31.308 16.0187 31.6009 16.235 31.8168C16.4514 32.0327 16.7446 32.154 17.0502 32.1541H17.0545C17.1396 32.1538 19.1481 32.1459 19.9503 32.1319C22.8875 32.0807 25.0194 29.5125 25.0194 26.0255C25.0194 22.3598 22.9411 19.8971 19.8477 19.8971L17.0301 19.8972ZM22.711 26.0257C22.711 28.6158 21.3042 29.7997 19.9099 29.8241C19.5191 29.8309 18.8144 29.8365 18.2019 29.8401L18.1864 22.2055H19.8475C21.9588 22.2055 22.711 24.1787 22.711 26.0257ZM50.6563 26.0257C50.6563 29.4048 53.4056 32.1541 56.7847 32.1541C60.1638 32.1541 62.9131 29.4048 62.9131 26.0257C62.9131 22.6465 60.1638 19.8972 56.7847 19.8972C53.4056 19.8972 50.6563 22.6464 50.6563 26.0257ZM56.7847 22.2055C58.8911 22.2055 60.6049 23.9193 60.6049 26.0257C60.6049 28.132 58.8912 29.8458 56.7847 29.8458C54.6782 29.8458 52.9645 28.132 52.9645 26.0257C52.9645 23.9193 54.6783 22.2055 56.7847 22.2055ZM45.8768 19.8994C45.2532 19.8658 44.6809 20.2552 44.4876 20.8504C44.4834 20.8636 44.4793 20.8769 44.4755 20.8902L42.6087 27.4383L40.6733 20.8785C40.5827 20.5802 40.3939 20.3212 40.1375 20.1437C39.8812 19.9661 39.5723 19.8805 39.2611 19.9008C38.6365 19.9426 38.1176 20.4012 37.997 21.029L36.2484 30.7173C36.194 31.0185 36.2615 31.329 36.4361 31.5805C36.6107 31.8319 36.878 32.0037 37.1792 32.0581C37.4805 32.1124 37.791 32.0449 38.0424 31.8703C38.2939 31.6958 38.4657 31.4285 38.52 31.1272L39.5715 25.3007L41.3041 31.1734C41.3893 31.4571 41.5637 31.7058 41.8015 31.8825C42.0393 32.0592 42.3277 32.1544 42.624 32.1541H42.631C42.9283 32.1529 43.2172 32.0556 43.4545 31.8766C43.6918 31.6976 43.8649 31.4466 43.9477 31.1611L45.6204 25.2932L46.7376 31.1391C46.8573 31.7652 47.4621 32.1761 48.0878 32.0561C48.3884 31.9986 48.6539 31.8241 48.8259 31.5709C48.9979 31.3177 49.0622 31.0065 49.0048 30.7059L47.1498 21.0009C47.089 20.7025 46.9311 20.4326 46.7008 20.2334C46.4706 20.0341 46.1808 19.9167 45.8768 19.8994ZM32.7206 22.2055C33.0267 22.2055 33.3202 22.0839 33.5367 21.8674C33.7531 21.651 33.8747 21.3574 33.8747 21.0514C33.8747 20.7453 33.7531 20.4517 33.5367 20.2353C33.3202 20.0188 33.0267 19.8972 32.7206 19.8972H28.5286C28.2225 19.8972 27.929 20.0188 27.7125 20.2353C27.4961 20.4517 27.3745 20.7453 27.3745 21.0514V31C27.3745 31.3061 27.4961 31.5996 27.7125 31.8161C27.929 32.0325 28.2225 32.1541 28.5286 32.1541H32.7206C33.0267 32.1541 33.3202 32.0325 33.5367 31.8161C33.7531 31.5996 33.8747 31.3061 33.8747 31C33.8747 30.6939 33.7531 30.4003 33.5367 30.1839C33.3202 29.9674 33.0267 29.8458 32.7206 29.8458H29.6827V27.1798H32.4116C32.7177 27.1798 33.0112 27.0582 33.2277 26.8418C33.4441 26.6253 33.5657 26.3318 33.5657 26.0257C33.5657 25.7196 33.4441 25.426 33.2277 25.2096C33.0112 24.9931 32.7177 24.8715 32.4116 24.8715H29.6827V22.2055H32.7206Z" fill="url(#paint2_linear_1_608)"/>
<defs>
<linearGradient id="paint0_linear_1_608" x1="79.4194" y1="62.1002" x2="35.7808" y2="-2.71042" gradientUnits="userSpaceOnUse">
<stop stop-color="#31393C"/>
<stop offset="1" stop-color="#3D96F5"/>
</linearGradient>
<linearGradient id="paint1_linear_1_608" x1="79.4194" y1="62.1002" x2="35.7808" y2="-2.71042" gradientUnits="userSpaceOnUse">
<stop stop-color="#31393C"/>
<stop offset="1" stop-color="#3D96F5"/>
</linearGradient>
<linearGradient id="paint2_linear_1_608" x1="79.4194" y1="62.1002" x2="35.7808" y2="-2.71042" gradientUnits="userSpaceOnUse">
<stop stop-color="#31393C"/>
<stop offset="1" stop-color="#3D96F5"/>
</linearGradient>
</defs>
</svg>
