<svg width="48" height="48" viewBox="0 0 48 48" fill="none" xmlns="http://www.w3.org/2000/svg">
<rect width="48" height="48" rx="24" fill="#0089FF"/>
<path d="M19.3535 6V8.66941H22.0229V10.0041C22.9572 9.87063 23.758 9.87063 24.6923 10.0041V8.66941H27.3617V6H19.3535Z" fill="white"/>
<path d="M32.4335 14.809L33.3678 13.8747L34.4355 14.9425L36.3041 13.0739L32.3 9.06982L30.4314 10.9384L31.4992 12.0061L30.298 13.2074C23.8915 9.33672 15.6164 11.3388 11.8792 17.7453C8.14212 24.1518 10.1441 32.16 16.4172 36.0306C22.6903 39.9012 30.9653 37.8992 34.7025 31.4927C38.0392 26.0204 37.1049 19.08 32.4335 14.809ZM23.3576 33.8951C18.1523 33.8951 14.0147 29.7576 14.0147 24.5523C14.0147 19.347 18.1523 15.2094 23.3576 15.2094V24.5522H32.7004C32.7004 29.7575 28.5629 33.8951 23.3576 33.8951Z" fill="white"/>
</svg>
