<svg width="66" height="65" viewBox="0 0 66 65" fill="none" xmlns="http://www.w3.org/2000/svg">
<path fill-rule="evenodd" clip-rule="evenodd" d="M42.7335 59.99C39.6049 61.1993 36.2957 61.8753 32.9435 61.99V59.99C32.9435 59.7248 32.8382 59.4705 32.6506 59.2829C32.4631 59.0954 32.2088 58.99 31.9435 58.99C31.6783 58.99 31.424 59.0954 31.2364 59.2829C31.0489 59.4705 30.9435 59.7248 30.9435 59.99V61.99C23.3316 61.7403 16.0996 58.6047 10.7142 53.2193C5.32886 47.834 2.19331 40.602 1.94353 32.99H3.94353C4.20875 32.99 4.46309 32.8847 4.65063 32.6971C4.83816 32.5096 4.94353 32.2552 4.94353 31.99C4.94353 31.7248 4.83816 31.4705 4.65063 31.2829C4.46309 31.0954 4.20875 30.99 3.94353 30.99H1.94353C2.19331 23.3781 5.32886 16.146 10.7142 10.7607C16.0996 5.3753 23.3316 2.2398 30.9435 1.99003V3.99003C30.9435 4.25524 31.0489 4.50958 31.2364 4.69712C31.424 4.88466 31.6783 4.99003 31.9435 4.99003C32.2088 4.99003 32.4631 4.88466 32.6506 4.69712C32.8382 4.50958 32.9435 4.25524 32.9435 3.99003V1.99003C40.5617 2.22089 47.8046 5.35034 53.1939 10.7397C58.5832 16.129 61.7127 23.3719 61.9435 30.99H59.9435C59.6783 30.99 59.424 31.0954 59.2364 31.2829C59.0489 31.4705 58.9435 31.7248 58.9435 31.99C58.9435 32.2552 59.0489 32.5096 59.2364 32.6971C59.424 32.8847 59.6783 32.99 59.9435 32.99H61.9435C61.8742 35.3886 61.5115 37.7696 60.8635 40.08C60.8166 40.2093 60.7968 40.3469 60.8054 40.4842C60.8141 40.6215 60.8509 40.7556 60.9137 40.878C60.9766 41.0004 61.064 41.1085 61.1705 41.1955C61.277 41.2826 61.4003 41.3468 61.5327 41.3841C61.6651 41.4213 61.8038 41.4308 61.9401 41.412C62.0764 41.3932 62.2074 41.3465 62.3248 41.2748C62.4422 41.2031 62.5435 41.1079 62.6224 40.9953C62.7014 40.8826 62.7562 40.7549 62.7836 40.62C63.5433 37.8673 63.9334 35.0257 63.9435 32.17C63.9483 32.1101 63.9483 32.0499 63.9435 31.99C63.9539 31.9238 63.9539 31.8563 63.9435 31.79C63.9276 23.3498 60.5622 15.261 54.5866 9.30039C48.611 3.33976 40.5138 -0.00530863 32.0735 6.32401e-06H31.9835H31.9036C27.9981 -0.000434933 24.1262 0.721724 20.4835 2.13001C14.4711 4.44998 9.29935 8.53121 5.64513 13.8395C1.99092 19.1477 0.024585 25.4356 0.00353195 31.88C-0.00117732 31.9166 -0.00117732 31.9535 0.00353195 31.99C-0.00115159 32.0198 -0.00115159 32.0502 0.00353195 32.08C-0.0167058 35.9966 0.692051 39.8827 2.09356 43.54C4.4144 49.5606 8.50103 54.7389 13.8173 58.3955C19.1336 62.0522 25.4311 64.0162 31.8835 64.03H31.9835C35.9059 64.0279 39.7943 63.3024 43.4535 61.89C43.6815 61.7817 43.8601 61.5912 43.9534 61.3567C44.0468 61.1223 44.0481 60.8611 43.957 60.6258C43.8659 60.3904 43.6891 60.1982 43.4622 60.0877C43.2353 59.9772 42.975 59.9566 42.7335 60.03V59.99ZM65.7036 44.14C65.6106 44.0463 65.5 43.9719 65.3781 43.9211C65.2563 43.8704 65.1255 43.8442 64.9935 43.8442C64.8615 43.8442 64.7308 43.8704 64.6089 43.9211C64.4871 43.9719 64.3765 44.0463 64.2836 44.14L51.0035 57.42L44.2435 50.66C44.0562 50.4738 43.8028 50.3693 43.5386 50.3693C43.2744 50.3693 43.0209 50.4738 42.8336 50.66C42.7398 50.753 42.6654 50.8636 42.6146 50.9855C42.5639 51.1073 42.5377 51.238 42.5377 51.3701C42.5377 51.5021 42.5639 51.6328 42.6146 51.7546C42.6654 51.8765 42.7398 51.9871 42.8336 52.08L51.0035 60.2501L65.7036 45.54C65.8868 45.3531 65.9894 45.1018 65.9894 44.84C65.9894 44.5783 65.8868 44.3269 65.7036 44.14ZM31.5864 12.0032C31.774 11.8157 32.0283 11.7103 32.2935 11.7103C32.4249 11.7049 32.556 11.7255 32.6794 11.7709C32.8028 11.8163 32.916 11.8855 33.0126 11.9747C33.1092 12.0639 33.1872 12.1712 33.2423 12.2906C33.2974 12.4099 33.3284 12.539 33.3336 12.6703V29.6703C33.6883 29.8729 33.9925 30.1532 34.2231 30.4903C34.4538 30.8275 34.605 31.2125 34.6653 31.6166C34.7256 32.0206 34.6935 32.4331 34.5713 32.8229C34.4491 33.2126 34.24 33.5696 33.9598 33.8669C33.6797 34.1641 33.3357 34.394 32.9539 34.5391C32.572 34.6842 32.1622 34.7407 31.7553 34.7044C31.3484 34.6682 30.9551 34.5401 30.6049 34.3298C30.2547 34.1195 29.9567 33.8325 29.7335 33.4903H21.7335C21.4683 33.4903 21.214 33.385 21.0264 33.1974C20.8389 33.0099 20.7335 32.7556 20.7335 32.4903C20.7335 32.2251 20.8389 31.9708 21.0264 31.7832C21.214 31.5957 21.4683 31.4903 21.7335 31.4903H29.2935C29.3926 30.9863 29.6334 30.521 29.9877 30.149C30.3419 29.7771 30.7949 29.5138 31.2935 29.3903V12.7103C31.2935 12.4451 31.3989 12.1907 31.5864 12.0032Z" fill="url(#paint0_linear_166_618)"/>
<defs>
<linearGradient id="paint0_linear_166_618" x1="10.5" y1="10.5" x2="55.5" y2="55" gradientUnits="userSpaceOnUse">
<stop stop-color="#FE5B52"/>
<stop offset="1" stop-color="#3E96F4"/>
</linearGradient>
</defs>
</svg>
