<svg width="45" height="64" viewBox="0 0 45 64" fill="none" xmlns="http://www.w3.org/2000/svg">
<path id="Union" fill-rule="evenodd" clip-rule="evenodd" d="M22.2583 41.6667C21.6583 41.6667 21.175 41.1792 21.175 40.5833V40.0417C21.175 39.4417 21.6625 38.9583 22.2583 38.9583C22.8542 38.9583 23.3417 39.4458 23.3417 40.0417V40.5833C23.3417 41.1792 22.8583 41.6667 22.2583 41.6667ZM22.2583 37.5125C21.6583 37.5125 21.175 37.025 21.175 36.4292V35.8875C21.175 35.2875 21.6625 34.8042 22.2583 34.8042C22.8542 34.8042 23.3417 35.2917 23.3417 35.8875V36.4292C23.3417 37.025 22.8583 37.5125 22.2583 37.5125ZM22.2583 33.3542C21.6583 33.3542 21.175 32.8667 21.175 32.2708V31.7292C21.175 31.1292 21.6625 30.6458 22.2583 30.6458C22.8542 30.6458 23.3417 31.1333 23.3417 31.7292V32.2708C23.3417 32.8708 22.8583 33.3542 22.2583 33.3542ZM41.7667 5.79167H41.4584V13.0998C41.4584 15.2998 40.6625 17.429 39.2167 19.0915L27.8167 32.204L39.1417 44.8832C40.6375 46.5582 41.4625 48.7207 41.4625 50.9665V58.2042H41.7667C43.2833 58.2042 44.5167 59.4375 44.5167 60.9542V61.25C44.5167 62.7667 43.2833 64 41.7667 64H2.75C1.23333 64 0 62.7667 0 61.25V60.9542C0 59.4375 1.23333 58.2042 2.75 58.2042H3.0542V50.7248C3.0542 48.4748 3.8792 46.3123 5.3792 44.6373L16.7917 31.8748L5.3792 19.1207C3.8792 17.4457 3.0542 15.2832 3.0542 13.0332V5.79167H2.75C1.23333 5.79167 0 4.55833 0 3.04167V2.75C0 1.23333 1.23333 0 2.75 0H41.7667C43.2833 0 44.5167 1.23333 44.5167 2.75V3.04167C44.5167 4.55833 43.2833 5.79167 41.7667 5.79167ZM39.4625 5.79167H5.0542V13.0332C5.0542 14.7915 5.70003 16.479 6.87087 17.7873L18.8792 31.2165C19.2167 31.5957 19.2167 32.1707 18.8792 32.5498L6.87087 45.979C5.70003 47.2873 5.0542 48.9748 5.0542 50.7332V58.2042H13.2041C13.1497 57.9923 13.1208 57.7703 13.1208 57.5417V57.2625C13.1208 56.6323 13.3404 56.0526 13.707 55.5958C13.3404 55.139 13.1208 54.5593 13.1208 53.9291V53.6499C13.1208 53.0189 13.341 52.4385 13.7085 51.9814C13.3408 51.5243 13.1206 50.9437 13.1206 50.3125V50.0334C13.1206 48.5625 14.3164 47.3667 15.7873 47.3667H28.7289C30.1998 47.3667 31.3956 48.5625 31.3956 50.0334V50.3125C31.3956 50.9436 31.1755 51.524 30.8079 51.9811C31.1756 52.4382 31.3958 53.0188 31.3958 53.6499V53.9291C31.3958 54.5593 31.1763 55.139 30.8097 55.5958C31.1763 56.0526 31.3958 56.6323 31.3958 57.2625V57.5417C31.3958 57.7703 31.3669 57.9923 31.3126 58.2042H39.4584V50.9623C39.4584 49.2082 38.8167 47.5207 37.6459 46.2123L25.7375 32.879C25.4 32.504 25.4 31.9373 25.7292 31.5582L37.7125 17.779C38.8417 16.4832 39.4625 14.8207 39.4625 13.0998V5.79167ZM15.7777 52.9792C15.7809 52.9792 15.7841 52.9792 15.7873 52.9792H28.7289C28.7311 52.9792 28.7332 52.9792 28.7354 52.9792C29.0973 52.9848 29.3917 53.2826 29.3917 53.6458V53.9249C29.3917 54.2916 29.0917 54.5916 28.725 54.5916H15.7875C15.4208 54.5916 15.1208 54.2916 15.1208 53.9249V53.6458C15.1208 53.2824 15.4155 52.9845 15.7777 52.9792ZM28.7994 58.2042C29.1314 58.1669 29.3917 57.8832 29.3917 57.5417V57.2625C29.3917 56.8958 29.0917 56.5958 28.725 56.5958H15.7875C15.4208 56.5958 15.1208 56.8958 15.1208 57.2625V57.5417C15.1208 57.8832 15.3811 58.1669 15.7131 58.2042H28.7994ZM41.7667 3.79167H40.4767L40.4584 3.7915H4.0542L4.03587 3.79167H2.75C2.3375 3.79167 2 3.45417 2 3.04167V2.75C2 2.3375 2.3375 2 2.75 2H41.7667C42.1792 2 42.5167 2.3375 42.5167 2.75V3.04167C42.5167 3.45417 42.1792 3.79167 41.7667 3.79167ZM2.75 60.2083C2.3375 60.2083 2 60.5458 2 60.9583V61.2542C2 61.6667 2.3375 62.0042 2.75 62.0042H41.7667C42.1792 62.0042 42.5167 61.6667 42.5167 61.2542V60.9583C42.5167 60.5458 42.1792 60.2083 41.7667 60.2083H2.75ZM28 21.0946C28 21.9018 27.7655 22.6746 27.3032 23.3852C26.841 24.0958 26.1787 24.6546 25.3232 25.0272C24.8849 25.2277 24.4146 25.3763 23.9156 25.4708V25.9098C23.9156 26.8205 23.1774 27.5656 22.2598 27.5656C21.3422 27.5656 20.604 26.8274 20.604 25.9098V25.406C20.1586 25.3134 19.7483 25.1867 19.3761 25.0272C18.4723 24.6408 17.7479 24.0406 17.2304 23.2541C16.9131 22.7711 16.6854 22.2399 16.5543 21.6811C16.4508 21.2602 16.5405 20.8187 16.7958 20.4668C17.0442 20.1219 17.4374 19.8942 17.8652 19.8597C17.9066 19.8528 17.948 19.8528 17.9963 19.8528C18.6655 19.8528 19.2519 20.3012 19.4313 20.9498C19.5072 21.2326 19.6176 21.4672 19.7486 21.6673C19.9556 21.9777 20.3006 22.233 20.7697 22.44C21.2734 22.6608 21.8529 22.7711 22.4945 22.7711C23.0602 22.7711 23.5639 22.6884 23.9847 22.5228C24.3642 22.3779 24.6402 22.1847 24.8057 21.9501C24.9644 21.7225 25.0472 21.4879 25.0472 21.2257C25.0472 20.9705 24.9782 20.7497 24.8333 20.5634C24.7298 20.4254 24.4884 20.2116 23.9571 20.0115C23.6398 19.8873 22.8671 19.6803 21.7356 19.4044C20.5214 19.1146 19.6314 18.8248 19.107 18.5489L19.0932 18.542C18.3757 18.1694 17.8307 17.6865 17.4719 17.1138C17.1063 16.5343 16.92 15.8789 16.92 15.1614C16.92 14.3887 17.1477 13.6505 17.5823 12.9812C18.0239 12.312 18.6724 11.7946 19.5003 11.4496C19.8508 11.3051 20.2191 11.1921 20.604 11.1113V10.6558C20.604 9.73821 21.3422 9 22.2598 9C23.1774 9 23.9156 9.73821 23.9156 10.6558V11.1559C24.26 11.2363 24.5873 11.3413 24.8954 11.4703C25.7509 11.8291 26.4132 12.3672 26.8755 13.0709C27.1308 13.4573 27.317 13.8712 27.4412 14.3059C27.5585 14.7336 27.4826 15.1821 27.2273 15.5477C26.9721 15.9134 26.5719 16.1411 26.1235 16.1755H26.1097C26.0683 16.1824 26.0269 16.1824 25.9924 16.1824H25.9924C25.337 16.1824 24.7712 15.7547 24.585 15.12C24.4746 14.7474 24.2883 14.4508 24.0261 14.2369C23.6467 13.9264 23.012 13.7608 22.191 13.7608C21.094 13.7608 20.5765 13.9954 20.3351 14.1886C20.0177 14.4439 19.8659 14.7198 19.8659 15.051C19.8659 15.3269 19.9556 15.5408 20.1488 15.7133C20.2109 15.7685 20.6179 16.0721 22.4393 16.486C23.8674 16.8103 24.8678 17.1 25.4198 17.3484C26.2684 17.7417 26.9169 18.2591 27.3446 18.88L27.3515 18.8938C27.7793 19.5354 28 20.2736 28 21.0946ZM15.1206 50.0334C15.1206 49.6667 15.4206 49.3667 15.7873 49.3667H28.7248C29.0914 49.3667 29.3914 49.6667 29.3914 50.0334V50.3125C29.3914 50.6792 29.0914 50.9792 28.7248 50.9792H15.7873C15.4206 50.9792 15.1206 50.6792 15.1206 50.3125V50.0334Z" fill="url(#paint0_linear_1_1533)"/>
<defs>
<linearGradient id="paint0_linear_1_1533" x1="6.89108" y1="7.99554" x2="47.9928" y2="36.3349" gradientUnits="userSpaceOnUse">
<stop stop-color="#FE5B52"/>
<stop offset="1" stop-color="#3E96F4"/>
</linearGradient>
</defs>
</svg>
