<svg width="44" height="44" viewBox="0 0 44 44" fill="none" xmlns="http://www.w3.org/2000/svg">
<path d="M22 43C17.8466 43 13.7865 41.7684 10.333 39.4608C6.8796 37.1533 4.18798 33.8736 2.59854 30.0363C1.0091 26.1991 0.593229 21.9767 1.40352 17.9031C2.21381 13.8295 4.21386 10.0877 7.15076 7.15076C10.0877 4.21386 13.8295 2.21381 17.9031 1.40352C21.9767 0.593229 26.1991 1.0091 30.0363 2.59854C33.8736 4.18798 37.1533 6.8796 39.4608 10.333C41.7684 13.7865 43 17.8466 43 22C43 22.4816 42.9839 22.9681 42.951 23.4476C42.9447 23.5395 42.9204 23.6293 42.8795 23.7118C42.8385 23.7944 42.7817 23.868 42.7123 23.9286C42.6429 23.9892 42.5622 24.0355 42.4749 24.0649C42.3876 24.0943 42.2953 24.1062 42.2034 24.1C42.1115 24.0937 42.0217 24.0694 41.9391 24.0285C41.8566 23.9875 41.7829 23.9307 41.7223 23.8613C41.6618 23.7919 41.6155 23.7112 41.5861 23.6239C41.5566 23.5366 41.5447 23.4443 41.551 23.3524C41.5811 22.9044 41.5965 22.4494 41.5965 22C41.5965 18.1235 40.447 14.334 38.2933 11.1108C36.1396 7.88762 33.0785 5.37544 29.4971 3.89197C25.9157 2.40849 21.9748 2.02035 18.1727 2.77662C14.3707 3.53289 10.8783 5.3996 8.13721 8.14071C5.3961 10.8818 3.52939 14.3742 2.77312 18.1762C2.01685 21.9783 2.40499 25.9192 3.88847 29.5006C5.37194 33.082 7.88412 36.1431 11.1073 38.2968C14.3305 40.4505 18.12 41.6 21.9965 41.6C22.6728 41.5998 23.3487 41.5654 24.0216 41.4971C24.1145 41.4848 24.209 41.4913 24.2994 41.5162C24.3898 41.5412 24.4742 41.584 24.5478 41.6422C24.6213 41.7004 24.6823 41.7728 24.7274 41.855C24.7724 41.9373 24.8004 42.0277 24.8098 42.121C24.8192 42.2143 24.8097 42.3085 24.782 42.3981C24.7542 42.4877 24.7088 42.5707 24.6483 42.6424C24.5879 42.7141 24.5136 42.7729 24.43 42.8153C24.3464 42.8577 24.2551 42.8829 24.1616 42.8894C23.4434 42.9629 22.7219 42.9998 22 43Z" fill="#3E96F4" stroke="#3E96F4" stroke-width="0.5"/>
<path d="M22.0024 43C16.5074 43 12.2024 33.7754 12.2024 22C12.2024 10.2246 16.5074 1 22.0024 1C26.8142 1 30.8784 8.33669 31.6659 18.4454C31.6731 18.537 31.6621 18.6292 31.6337 18.7166C31.6052 18.804 31.5598 18.885 31.5001 18.9549C31.4403 19.0247 31.3674 19.0822 31.2855 19.1239C31.2036 19.1656 31.1142 19.1907 31.0226 19.1979C30.9309 19.2051 30.8388 19.1941 30.7514 19.1657C30.6639 19.1372 30.583 19.0918 30.5131 19.0321C30.4432 18.9723 30.3858 18.8994 30.3441 18.8175C30.3024 18.7356 30.2773 18.6462 30.2701 18.5546C29.5526 9.34469 25.998 2.4 22.0024 2.4C17.4489 2.4 13.6024 11.3754 13.6024 22C13.6024 32.6246 17.4524 41.6 22.0024 41.6C22.188 41.6 22.3661 41.6737 22.4974 41.805C22.6286 41.9363 22.7024 42.1143 22.7024 42.3C22.7024 42.4856 22.6286 42.6637 22.4974 42.7949C22.3661 42.9262 22.188 43 22.0024 43Z" fill="#3E96F4" stroke="#3E96F4" stroke-width="0.5"/>
<path d="M23.3965 22.7H1.7C1.51435 22.7 1.3363 22.6263 1.20503 22.495C1.07375 22.3637 1 22.1857 1 22C1 21.8144 1.07375 21.6363 1.20503 21.5051C1.3363 21.3738 1.51435 21.3 1.7 21.3H23.3965C23.5821 21.3 23.7602 21.3738 23.8915 21.5051C24.0227 21.6363 24.0965 21.8144 24.0965 22C24.0965 22.1857 24.0227 22.3637 23.8915 22.495C23.7602 22.6263 23.5821 22.7 23.3965 22.7ZM4.5 10.8H39.5V12.2H4.5V10.8ZM18.4965 33.2H4.5C4.31435 33.2 4.1363 33.1263 4.00502 32.995C3.87375 32.8637 3.8 32.6857 3.8 32.5C3.8 32.3144 3.87375 32.1363 4.00502 32.0051C4.1363 31.8738 4.31435 31.8 4.5 31.8H18.4965C18.6821 31.8 18.8602 31.8738 18.9915 32.0051C19.1227 32.1363 19.1965 32.3144 19.1965 32.5C19.1965 32.6857 19.1227 32.8637 18.9915 32.995C18.8602 33.1263 18.6821 33.2 18.4965 33.2ZM31.7965 43C29.5813 43 27.4159 42.3432 25.5741 41.1125C23.7323 39.8818 22.2967 38.1326 21.449 36.0861C20.6013 34.0396 20.3795 31.7876 20.8117 29.615C21.2438 27.4424 22.3105 25.4468 23.8769 23.8804C25.4432 22.3141 27.4389 21.2474 29.6115 20.8152C31.7841 20.3831 34.036 20.6049 36.0825 21.4526C38.1291 22.3003 39.8783 23.7358 41.1089 25.5777C42.3396 27.4195 42.9965 29.5849 42.9965 31.8C42.9929 34.7694 41.8118 37.6161 39.7122 39.7157C37.6125 41.8154 34.7658 42.9965 31.7965 43ZM31.7965 22C29.8582 22 27.9635 22.5748 26.3519 23.6516C24.7403 24.7285 23.4842 26.259 22.7425 28.0497C22.0007 29.8405 21.8067 31.8109 22.1848 33.7119C22.5629 35.6129 23.4963 37.3591 24.8668 38.7297C26.2374 40.1002 27.9836 41.0336 29.8846 41.4117C31.7856 41.7899 33.7561 41.5958 35.5468 40.854C37.3375 40.1123 38.868 38.8562 39.9449 37.2446C41.0217 35.633 41.5965 33.7383 41.5965 31.8C41.5937 29.2018 40.5603 26.7107 38.723 24.8735C36.8858 23.0362 34.3947 22.0028 31.7965 22Z" fill="#3E96F4" stroke="#3E96F4" stroke-width="0.5"/>
<path d="M31.7951 32.5C31.6566 32.5 31.5213 32.4589 31.4062 32.382C31.2912 32.3051 31.2015 32.1958 31.1485 32.0679C31.0955 31.94 31.0817 31.7993 31.1087 31.6635C31.1357 31.5277 31.2023 31.403 31.3002 31.3051L36.2002 26.4051C36.3322 26.2776 36.509 26.207 36.6925 26.2086C36.8761 26.2102 37.0517 26.2839 37.1814 26.4136C37.3112 26.5434 37.3848 26.719 37.3864 26.9025C37.388 27.0861 37.3175 27.2629 37.19 27.3949L32.29 32.2949C32.1587 32.4262 31.9807 32.5 31.7951 32.5Z" fill="#3E96F4" stroke="#3E96F4" stroke-width="0.5"/>
<path d="M31.7973 32.4999C31.6116 32.4999 31.4336 32.4261 31.3024 32.2948L28.5024 29.4948C28.3749 29.3628 28.3043 29.186 28.3059 29.0025C28.3075 28.8189 28.3811 28.6434 28.5109 28.5136C28.6407 28.3838 28.8162 28.3102 28.9998 28.3086C29.1833 28.307 29.3601 28.3775 29.4922 28.505L32.2922 31.305C32.39 31.4029 32.4567 31.5277 32.4837 31.6634C32.5107 31.7992 32.4968 31.9399 32.4438 32.0678C32.3909 32.1957 32.3012 32.305 32.1861 32.3819C32.071 32.4588 31.9357 32.4999 31.7973 32.4999ZM31.7973 25.4999C31.6116 25.4999 31.4336 25.4262 31.3023 25.2949C31.171 25.1636 31.0973 24.9856 31.0973 24.7999V23.4C31.0973 23.2143 31.171 23.0363 31.3023 22.905C31.4336 22.7737 31.6116 22.7 31.7973 22.7C31.9829 22.7 32.161 22.7737 32.2922 22.905C32.4235 23.0363 32.4973 23.2143 32.4973 23.4V24.7999C32.4973 24.9856 32.4235 25.1636 32.2922 25.2949C32.161 25.4262 31.9829 25.4999 31.7973 25.4999ZM24.7973 32.4999H23.3973C23.2116 32.4999 23.0336 32.4262 22.9023 32.2949C22.771 32.1636 22.6973 31.9856 22.6973 31.7999C22.6973 31.6143 22.771 31.4362 22.9023 31.305C23.0336 31.1737 23.2116 31.0999 23.3973 31.0999H24.7973C24.9829 31.0999 25.161 31.1737 25.2922 31.305C25.4235 31.4362 25.4973 31.6143 25.4973 31.7999C25.4973 31.9856 25.4235 32.1636 25.2922 32.2949C25.161 32.4262 24.9829 32.4999 24.7973 32.4999ZM31.7973 40.8999C31.6116 40.8999 31.4336 40.8262 31.3023 40.6949C31.171 40.5636 31.0973 40.3856 31.0973 40.1999V38.7999C31.0973 38.6143 31.171 38.4362 31.3023 38.305C31.4336 38.1737 31.6116 38.0999 31.7973 38.0999C31.9829 38.0999 32.161 38.1737 32.2922 38.305C32.4235 38.4362 32.4973 38.6143 32.4973 38.7999V40.1999C32.4973 40.3856 32.4235 40.5636 32.2922 40.6949C32.161 40.8262 31.9829 40.8999 31.7973 40.8999ZM40.1973 32.4999H38.7973C38.6116 32.4999 38.4336 32.4262 38.3023 32.2949C38.171 32.1636 38.0973 31.9856 38.0973 31.7999C38.0973 31.6143 38.171 31.4362 38.3023 31.305C38.4336 31.1737 38.6116 31.0999 38.7973 31.0999H40.1973C40.3829 31.0999 40.561 31.1737 40.6922 31.305C40.8235 31.4362 40.8973 31.6143 40.8973 31.7999C40.8973 31.9856 40.8235 32.1636 40.6922 32.2949C40.561 32.4262 40.3829 32.4999 40.1973 32.4999Z" fill="#3E96F4" stroke="#3E96F4" stroke-width="0.5"/>
</svg>
