<svg width="48" height="48" viewBox="0 0 48 48" fill="none" xmlns="http://www.w3.org/2000/svg">
<rect width="48" height="48" rx="4" fill="#0089FF"/>
<path d="M24 40C20.8355 40 17.7421 39.0616 15.1109 37.3035C12.4797 35.5454 10.4289 33.0466 9.21793 30.1229C8.00693 27.1993 7.69008 23.9823 8.30744 20.8786C8.92481 17.7749 10.4487 14.9239 12.6863 12.6863C14.9239 10.4487 17.7749 8.92481 20.8786 8.30744C23.9823 7.69008 27.1993 8.00693 30.1229 9.21793C33.0466 10.4289 35.5454 12.4797 37.3035 15.1109C39.0616 17.7421 40 20.8355 40 24C40 24.3669 39.9877 24.7376 39.9627 25.1029C39.9579 25.173 39.9394 25.2414 39.9082 25.3043C39.877 25.3672 39.8337 25.4233 39.7808 25.4694C39.7279 25.5156 39.6665 25.5509 39.5999 25.5733C39.5334 25.5957 39.4631 25.6048 39.3931 25.6C39.323 25.5952 39.2546 25.5767 39.1917 25.5455C39.1288 25.5143 39.0727 25.471 39.0266 25.4181C38.9804 25.3653 38.9451 25.3038 38.9227 25.2373C38.9003 25.1707 38.8912 25.1004 38.896 25.0304C38.9189 24.6891 38.9307 24.3424 38.9307 24C38.9307 21.0465 38.0548 18.1593 36.4139 15.7035C34.7731 13.2477 32.4408 11.3337 29.7121 10.2034C26.9834 9.07314 23.9808 8.77741 21.084 9.35361C18.1872 9.92982 15.5263 11.3521 13.4379 13.4405C11.3494 15.529 9.92715 18.1899 9.35095 21.0867C8.77474 23.9834 9.07047 26.986 10.2007 29.7147C11.331 32.4435 13.245 34.7757 15.7008 36.4166C18.1566 38.0575 21.0438 38.9333 23.9973 38.9333C24.5126 38.9332 25.0276 38.907 25.5403 38.8549C25.6111 38.8456 25.6831 38.8505 25.7519 38.8695C25.8208 38.8885 25.8851 38.9212 25.9412 38.9655C25.9972 39.0098 26.0437 39.065 26.078 39.1276C26.1123 39.1903 26.1336 39.2592 26.1408 39.3303C26.1479 39.4014 26.1407 39.4732 26.1196 39.5414C26.0985 39.6097 26.0638 39.673 26.0178 39.7276C25.9717 39.7822 25.9152 39.827 25.8515 39.8593C25.7878 39.8916 25.7182 39.9108 25.6469 39.9157C25.0997 39.9717 24.5501 39.9999 24 40Z" fill="white" stroke="white" stroke-width="0.5"/>
<path d="M24.0014 40C19.8147 40 16.5347 32.9717 16.5347 24C16.5347 15.0283 19.8147 8 24.0014 8C27.6675 8 30.7641 13.5899 31.3641 21.2917C31.3695 21.3616 31.3612 21.4318 31.3395 21.4984C31.3178 21.565 31.2832 21.6267 31.2377 21.6799C31.1922 21.7331 31.1367 21.7769 31.0742 21.8087C31.0118 21.8404 30.9438 21.8596 30.8739 21.8651C30.8041 21.8705 30.7339 21.8622 30.6673 21.8405C30.6007 21.8188 30.539 21.7843 30.4858 21.7387C30.4325 21.6932 30.3888 21.6377 30.357 21.5752C30.3252 21.5128 30.3061 21.4448 30.3006 21.3749C29.7539 14.3579 27.0457 9.06667 24.0014 9.06667C20.5321 9.06667 17.6014 15.9051 17.6014 24C17.6014 32.0949 20.5347 38.9333 24.0014 38.9333C24.1428 38.9333 24.2785 38.9895 24.3785 39.0895C24.4785 39.1896 24.5347 39.3252 24.5347 39.4667C24.5347 39.6081 24.4785 39.7438 24.3785 39.8438C24.2785 39.9438 24.1428 40 24.0014 40Z" fill="white" stroke="white" stroke-width="0.5"/>
<path d="M25.064 24.5335H8.53333C8.39188 24.5335 8.25623 24.4773 8.15621 24.3773C8.05619 24.2772 8 24.1416 8 24.0001C8 23.8587 8.05619 23.723 8.15621 23.623C8.25623 23.523 8.39188 23.4668 8.53333 23.4668H25.064C25.2054 23.4668 25.3411 23.523 25.4411 23.623C25.5411 23.723 25.5973 23.8587 25.5973 24.0001C25.5973 24.1416 25.5411 24.2772 25.4411 24.3773C25.3411 24.4773 25.2054 24.5335 25.064 24.5335ZM10.6667 15.4668H37.3333V16.5335H10.6667V15.4668ZM21.3307 32.5335H10.6667C10.5252 32.5335 10.3896 32.4773 10.2895 32.3772C10.1895 32.2772 10.1333 32.1416 10.1333 32.0001C10.1333 31.8587 10.1895 31.723 10.2895 31.623C10.3896 31.523 10.5252 31.4668 10.6667 31.4668H21.3307C21.4721 31.4668 21.6078 31.523 21.7078 31.623C21.8078 31.723 21.864 31.8587 21.864 32.0001C21.864 32.1416 21.8078 32.2772 21.7078 32.3772C21.6078 32.4773 21.4721 32.5335 21.3307 32.5335ZM31.464 40.0001C29.7763 40.0001 28.1264 39.4997 26.7231 38.562C25.3198 37.6243 24.2261 36.2916 23.5802 34.7324C22.9344 33.1731 22.7654 31.4573 23.0946 29.802C23.4239 28.1467 24.2366 26.6262 25.43 25.4328C26.6234 24.2394 28.1439 23.4267 29.7992 23.0974C31.4545 22.7682 33.1703 22.9372 34.7296 23.583C36.2888 24.2289 37.6215 25.3226 38.5592 26.7259C39.4969 28.1292 39.9973 29.7791 39.9973 31.4668C39.9946 33.7291 39.0947 35.8981 37.495 37.4978C35.8953 39.0975 33.7263 39.9974 31.464 40.0001ZM31.464 24.0001C29.9872 24.0001 28.5436 24.438 27.3157 25.2585C26.0878 26.0789 25.1308 27.2451 24.5657 28.6094C24.0006 29.9738 23.8527 31.4751 24.1408 32.9235C24.4289 34.3719 25.14 35.7023 26.1843 36.7465C27.2285 37.7908 28.5589 38.5019 30.0073 38.79C31.4557 39.0781 32.957 38.9302 34.3214 38.3651C35.6857 37.8 36.8519 36.8429 37.6723 35.615C38.4927 34.3872 38.9307 32.9436 38.9307 31.4668C38.9285 29.4872 38.1412 27.5892 36.7414 26.1894C35.3416 24.7896 33.4436 24.0022 31.464 24.0001Z" fill="white" stroke="white" stroke-width="0.5"/>
<path d="M31.4638 32C31.3583 32 31.2552 31.9687 31.1675 31.9101C31.0798 31.8515 31.0115 31.7682 30.9711 31.6707C30.9308 31.5733 30.9202 31.4661 30.9408 31.3626C30.9614 31.2592 31.0121 31.1642 31.0867 31.0896L34.82 27.3563C34.9206 27.2591 35.0553 27.2053 35.1952 27.2066C35.335 27.2078 35.4688 27.2639 35.5677 27.3628C35.6665 27.4616 35.7226 27.5954 35.7239 27.7352C35.7251 27.8751 35.6713 28.0098 35.5742 28.1104L31.8408 31.8437C31.7408 31.9437 31.6052 32 31.4638 32Z" fill="white" stroke="white" stroke-width="0.5"/>
<path d="M31.4646 31.9999C31.3231 31.9998 31.1875 31.9436 31.0875 31.8436L28.9542 29.7103C28.857 29.6097 28.8033 29.475 28.8045 29.3351C28.8057 29.1953 28.8618 29.0615 28.9607 28.9626C29.0596 28.8637 29.1933 28.8077 29.3332 28.8064C29.473 28.8052 29.6077 28.859 29.7083 28.9561L31.8416 31.0895C31.9162 31.1641 31.967 31.2591 31.9876 31.3625C32.0081 31.466 31.9976 31.5732 31.9572 31.6706C31.9169 31.7681 31.8485 31.8513 31.7608 31.9099C31.6731 31.9686 31.57 31.9998 31.4646 31.9999ZM31.4646 26.6665C31.3231 26.6665 31.1875 26.6103 31.0875 26.5103C30.9874 26.4103 30.9312 26.2747 30.9312 26.1332V25.0665C30.9312 24.9251 30.9874 24.7894 31.0875 24.6894C31.1875 24.5894 31.3231 24.5332 31.4646 24.5332C31.606 24.5332 31.7417 24.5894 31.8417 24.6894C31.9417 24.7894 31.9979 24.9251 31.9979 25.0665V26.1332C31.9979 26.2747 31.9417 26.4103 31.8417 26.5103C31.7417 26.6103 31.606 26.6665 31.4646 26.6665ZM26.1312 31.9999H25.0646C24.9231 31.9999 24.7875 31.9437 24.6875 31.8437C24.5874 31.7436 24.5312 31.608 24.5312 31.4665C24.5312 31.3251 24.5874 31.1894 24.6875 31.0894C24.7875 30.9894 24.9231 30.9332 25.0646 30.9332H26.1312C26.2727 30.9332 26.4084 30.9894 26.5084 31.0894C26.6084 31.1894 26.6646 31.3251 26.6646 31.4665C26.6646 31.608 26.6084 31.7436 26.5084 31.8437C26.4084 31.9437 26.2727 31.9999 26.1312 31.9999ZM31.4646 38.3999C31.3231 38.3999 31.1875 38.3437 31.0875 38.2437C30.9874 38.1436 30.9312 38.008 30.9312 37.8665V36.7999C30.9312 36.6584 30.9874 36.5228 31.0875 36.4227C31.1875 36.3227 31.3231 36.2665 31.4646 36.2665C31.606 36.2665 31.7417 36.3227 31.8417 36.4227C31.9417 36.5228 31.9979 36.6584 31.9979 36.7999V37.8665C31.9979 38.008 31.9417 38.1436 31.8417 38.2437C31.7417 38.3437 31.606 38.3999 31.4646 38.3999ZM37.8646 31.9999H36.7979C36.6565 31.9999 36.5208 31.9437 36.4208 31.8437C36.3208 31.7436 36.2646 31.608 36.2646 31.4665C36.2646 31.3251 36.3208 31.1894 36.4208 31.0894C36.5208 30.9894 36.6565 30.9332 36.7979 30.9332H37.8646C38.006 30.9332 38.1417 30.9894 38.2417 31.0894C38.3417 31.1894 38.3979 31.3251 38.3979 31.4665C38.3979 31.608 38.3417 31.7436 38.2417 31.8437C38.1417 31.9437 38.006 31.9999 37.8646 31.9999Z" fill="white" stroke="white" stroke-width="0.5"/>
</svg>
