<svg width="64" height="64" viewBox="0 0 64 64" fill="none" xmlns="http://www.w3.org/2000/svg">
<rect width="64" height="64" fill="#EDF5FC"/>
<path fill-rule="evenodd" clip-rule="evenodd" d="M38.6973 20C40.103 20.0018 41.4513 20.5607 42.4453 21.5547C43.4393 22.5487 43.9982 23.897 44 25.3027V38.6973C43.9982 40.103 43.4393 41.4513 42.4453 42.4453C41.4513 43.4393 40.103 43.9982 38.6973 44H25.3027C23.897 43.9982 22.5487 43.4393 21.5547 42.4453C20.5607 41.4513 20.0018 40.103 20 38.6973V25.3027C20.0018 23.897 20.5607 22.5487 21.5547 21.5547C22.5487 20.5607 23.897 20.0018 25.3027 20H38.6973ZM38.5459 26C38.3549 25.9999 38.1657 26.0393 37.9893 26.1152C37.813 26.1912 37.6526 26.3021 37.5176 26.4424L29.665 34.6113L26.5645 30.8193C26.3138 30.5136 25.9564 30.3238 25.5713 30.292C25.1865 30.2603 24.8055 30.3889 24.5117 30.6494C24.2178 30.9102 24.0354 31.282 24.0049 31.6826C23.9744 32.0831 24.098 32.4795 24.3486 32.7852L27.959 37.2031C28.1544 37.4421 28.3957 37.6362 28.667 37.7734C28.9382 37.9106 29.2338 37.9877 29.5352 38H29.6201C30.1982 37.998 30.7527 37.7595 31.1631 37.3359L39.5723 28.5879L39.5732 28.583C39.7083 28.4426 39.8155 28.2762 39.8887 28.0928C39.9618 27.9093 39.9999 27.7123 40 27.5137C40.0001 27.315 39.9627 27.1181 39.8896 26.9346C39.8166 26.751 39.7092 26.5839 39.5742 26.4434C39.4392 26.3029 39.2789 26.1913 39.1025 26.1152C38.9261 26.0392 38.7369 26.0001 38.5459 26Z" fill="#3E96F4"/>
</svg>
