<svg width="94" height="83" viewBox="0 0 94 83" fill="none" xmlns="http://www.w3.org/2000/svg">
<g id="Frame 11">
<path id="Union" fill-rule="evenodd" clip-rule="evenodd" d="M70.6 48.4598C70.4 48.2598 70.2 48.1598 69.9 48.1598H65.6V38.5598C65.6 38.3598 65.5 38.1598 65.4 38.0598L60.2 30.6598L59.9 30.3598C59.6 30.2598 59.3 30.2598 59 30.3598L58.7 30.6598L53.4 38.1598C53.3732 38.2134 53.3464 38.2598 53.3215 38.3029C53.2536 38.4206 53.2 38.5134 53.2 38.6598V42.8598C52.2 41.6598 51 40.6598 49.6 39.8598C51.2 37.8598 52.1 35.3598 52.1 32.6598C52.1 31.4598 51.9 30.2598 51.6 29.1598C52.3 28.7598 52.9 28.2598 53.4 27.5598C53.9 26.8598 54.2 26.0598 54.3 25.1598C54.4 24.3598 54.3 23.4598 54.1 22.6598C53.8 21.8598 53.4 21.1598 52.8 20.5598C52.2 19.9598 51.4 19.5598 50.6 19.2598C49.8 18.9598 48.9 18.9598 48.1 19.0598C47.3 19.1598 46.5 19.5598 45.8 20.0598C45.1 20.4598 44.5 21.1598 44.2 21.8598C42.8 21.4598 41.4 21.2598 40 21.2598C38.6 21.2598 37.1 21.4598 35.8 21.8598C35.3 21.1598 34.8 20.5598 34.2 20.0598C33.5 19.5598 32.7 19.2598 31.9 19.0598C31 18.9598 30.1 18.9598 29.3 19.2598C28.5 19.4598 27.7 19.9598 27.1 20.5598C26.5 21.1598 26.1 21.8598 25.8 22.6598C25.5 23.4598 25.5 24.3598 25.6 25.1598C25.7 25.9598 26 26.8598 26.5 27.4598C27 28.1598 27.6 28.7598 28.3 29.1598C28 30.2598 27.8 31.4598 27.8 32.6598C27.8 35.3598 28.7 37.9598 30.3 39.8598C26.7 41.7598 24.6 44.9598 24.1 49.0598L24 50.0598V50.1598C24.1 51.0598 24.4 51.9598 24.9 52.6598C25.4 53.3598 26.1 53.8598 26.9 54.1598C26.4 55.1598 26.2 56.2598 26.2 57.3598C26.2 61.1598 29 64.2598 32.4 64.2598C34.1 64.2598 35.8 63.4598 36.9 62.0598C38.7 62.9598 41 62.9598 42.8 62.0598C44 63.4598 45.6 64.2598 47.3 64.2598C49.6 64.2598 51.7 62.8598 52.8 60.4598H69.8C70 60.4598 70.3 60.3598 70.5 60.1598C70.7 59.9598 70.8 59.7598 70.8 59.4598V49.1598C70.9 48.9598 70.8 48.6598 70.6 48.4598ZM56 37.7598L59.5 32.7598L63 37.7598H56ZM69 50.0598V58.7598H60.3V50.0598H69ZM53.4 55.7598C53.3 55.2598 53.1 54.7598 52.9 54.2598C53.5 53.9598 54.1 53.5598 54.6 53.0598H55.5V55.7598H53.4ZM53.6 57.5598H56.4C56.6 57.5598 56.9 57.4598 57.1 57.2598C57.3 57.0598 57.4 56.8598 57.4 56.5598V52.1598C57.4 51.9598 57.3 51.6598 57.1 51.4598C56.9 51.2598 56.7 51.1598 56.4 51.1598H55.6C55.7 50.8598 55.8 50.4598 55.8 50.1598V50.0598H58.5V58.7598H53.5C53.6 58.3598 53.6 57.9598 53.6 57.5598ZM63.8 39.6598V48.2598H55.7C55.6 47.5598 55.4 46.8598 55.2 46.1598V39.6598H63.8ZM27.8 26.1598C27.5 25.6598 27.4 25.0598 27.4 24.3598C27.4 23.5598 27.7 22.7598 28.1 22.1598C28.6 21.5598 29.3 21.1598 30 20.9598C30.8 20.7598 31.6 20.8598 32.3 21.1598C33 21.4598 33.5 21.9598 33.9 22.5598C32.9 23.0598 31.9 23.7598 31 24.5598C30.2 25.3598 29.5 26.3598 29 27.3598C28.5 27.0598 28.1 26.6598 27.8 26.1598ZM50.9 27.3598C50.4 26.3598 49.7 25.3598 48.9 24.5598C48 23.7598 47 23.0598 46 22.4598C46.3 21.9598 46.7 21.5598 47.2 21.2598C47.7 20.9598 48.4 20.7598 49 20.7598C49.8 20.7598 50.6 21.0598 51.2 21.4598C51.8 21.9598 52.3 22.6598 52.5 23.3598C52.7 24.1598 52.7 24.9598 52.4 25.6598C52 26.4598 51.5 26.9598 50.9 27.3598ZM47.5 52.3598C49.9 52.3598 51.8 54.6598 51.8 57.4598C51.8 60.2598 49.9 62.5598 47.5 62.5598C45.1 62.5598 43.2 60.2598 43.2 57.4598C43.2 54.6598 45.1 52.3598 47.5 52.3598ZM32.5 52.3598C34.9 52.3598 36.8 54.6598 36.8 57.4598C36.8 60.2598 34.9 62.5598 32.5 62.5598C30.1 62.5598 28.1 60.1598 28.1 57.4598C28.1 54.7598 30.1 52.3598 32.5 52.3598ZM47.6 39.4598C45.7 41.2598 43.1 42.2598 40 42.2598C36.9 42.2598 34.3 41.2598 32.4 39.4598C30.7 37.7598 29.7 35.3598 29.7 32.6598C29.7 29.9598 30.7 27.6598 32.4 25.8598C34.3 24.0598 36.9 23.0598 40 23.0598C43.1 23.0598 45.7 24.0598 47.6 25.8598C49.3 27.5598 50.3 29.9598 50.3 32.6598C50.3 35.2598 49.3 37.6598 47.6 39.4598ZM31.6 41.2598C32.4 41.9598 33.3 42.4598 34.3 42.9598C32.7 44.9598 31.7 47.6598 31.6 50.5598C30.2 50.7598 29 51.5598 28 52.6598C27.5 52.5598 27 52.2598 26.6 51.7598C26.2 51.2598 26 50.7598 25.9 50.1598L26 49.2598C26.3 45.6598 28.3 42.8598 31.6 41.2598ZM36.2 43.6598C37.4 43.9598 38.7 44.1598 39.9 44.1598H40.1C41.4 44.1598 42.6 43.9598 43.8 43.6598C45.4 45.2598 46.4 47.8598 46.6 50.6598C43.6 51.1598 41.4 54.0598 41.4 57.4598C41.4 58.5598 41.6 59.5598 42.1 60.5598C41.5 60.8598 40.8 61.0598 40.1 61.0598C39.4 61.0598 38.7 60.8598 38.1 60.5598C38.5 59.5598 38.8 58.4598 38.8 57.4598C38.8 54.0598 36.6 51.1598 33.6 50.6598C33.6 47.7598 34.6 45.2598 36.2 43.6598ZM48.4 50.5598C48.2 47.5598 47.3 44.9598 45.7 42.9598C46.7 42.5598 47.6 41.9598 48.4 41.2598C51.7 42.8598 53.7 45.6598 54.1 49.1598L54.2 50.0598C54.1 50.6598 53.9 51.2598 53.5 51.6598C53.1 52.0598 52.6 52.3598 52.1 52.5598C51 51.5598 49.7 50.7598 48.4 50.5598ZM45.3 31.1598C45.3 31.6568 44.8971 32.0598 44.4 32.0598C43.9029 32.0598 43.5 31.6568 43.5 31.1598C43.5 30.6627 43.9029 30.2598 44.4 30.2598C44.8971 30.2598 45.3 30.6627 45.3 31.1598ZM44.2 35.3598C44.2 35.0598 44.3 34.8598 44.5 34.6598C44.9 34.2598 45.5 34.2598 45.9 34.6598C46.1 34.8598 46.2 35.1598 46.2 35.3598C46.2 38.0598 43.4 40.3598 40 40.3598C36.6 40.3598 33.8 38.1598 33.8 35.3598C33.8 35.0598 33.9 34.8598 34.1 34.6598C34.4 34.3598 35.1 34.3598 35.4 34.6598C35.6 34.8598 35.7 35.1598 35.7 35.3598C35.7 36.8598 37.1 38.1598 39.1 38.4598V36.3598C39 36.3598 38.9 36.2598 38.9 36.2598L37.6 35.3598C37.5515 35.3112 37.4971 35.2627 37.4411 35.2128C37.2662 35.0568 37.0758 34.887 37 34.6598C36.9 34.3598 36.8 34.0598 36.8 33.7598C36.8 32.6598 37.7 31.7598 38.7 31.7598H41.2C42.2 31.7598 43.1 32.6598 43.1 33.7598C43.1 34.0598 43 34.3598 42.9 34.6598C42.8 34.9598 42.6 35.1598 42.3 35.3598L41 36.2598C40.95 36.2598 40.925 36.2848 40.9 36.3098C40.875 36.3348 40.85 36.3598 40.8 36.3598V38.4598C42.8 38.1598 44.2 36.8598 44.2 35.3598ZM41.3 33.8598V33.7598C41.3 33.6598 41.2 33.5598 41.2 33.5598H38.8C38.75 33.5598 38.725 33.5598 38.7125 33.5723C38.7 33.5848 38.7 33.6098 38.7 33.6598V33.7598V33.8598L40 34.7598L41.3 33.8598ZM35.4 32.0598C35.8971 32.0598 36.3 31.6568 36.3 31.1598C36.3 30.6627 35.8971 30.2598 35.4 30.2598C34.9029 30.2598 34.5 30.6627 34.5 31.1598C34.5 31.6568 34.9029 32.0598 35.4 32.0598ZM61.3 46.5596C60.7 46.8596 60.1 47.0596 59.5 47.0596C58.6 47.0596 57.8 46.7596 57.4 46.2596C56.8 45.6596 56.5 44.8596 56.5 44.0596C56.5 43.3596 56.7 42.7596 57 42.2596C57.3 41.6596 57.8 41.2596 58.4 41.0596C58.9 40.7596 59.6 40.7596 60.2 40.8596C60.8 41.0596 61.4 41.3596 61.8 41.7596C62.3 42.1596 62.6 42.7596 62.7 43.3596C62.8 43.9596 62.7 44.5596 62.5 45.1596C62.2 45.7596 61.8 46.1596 61.3 46.5596ZM58.5 43.0596C58.2 43.2596 58.1 43.5596 58.1 43.9596C58.1 44.1596 58.2 44.4596 58.3 44.5596C58.4 44.7596 58.7 44.9596 58.9 45.0596C58.9387 45.0725 58.9758 45.0854 59.0116 45.0979L59.0117 45.0979C59.2533 45.1821 59.4388 45.2467 59.7 45.1596C60 45.1596 60.2 45.0596 60.3 44.9596C60.5 44.7596 60.6 44.5596 60.7 44.2596C60.7 43.9596 60.7 43.6596 60.6 43.4596C60.5 43.2596 60.3 42.9596 60.1 42.8596C59.9 42.7596 59.7 42.6596 59.4 42.6596C59.1 42.6596 58.8 42.7596 58.5 43.0596ZM62.5001 57.56C62.3001 57.56 62.1001 57.56 62.0001 57.46C61.9668 57.4266 61.9223 57.3933 61.8779 57.36C61.789 57.2933 61.7001 57.2266 61.7001 57.16C61.7001 57.1185 61.6829 57.0771 61.6628 57.0286C61.6344 56.96 61.6001 56.8771 61.6001 56.76C61.6001 56.56 61.6001 56.36 61.7001 56.26L64.0001 51.76C64.0001 51.6072 64.1168 51.5127 64.2165 51.4321C64.2473 51.4072 64.2765 51.3836 64.3001 51.36C64.6001 51.16 65.0001 51.16 65.3001 51.36L65.3001 51.36C65.4001 51.46 65.5001 51.56 65.6001 51.76L67.8001 56.26C67.9001 56.46 67.9001 56.66 67.9001 56.76C67.9001 56.86 67.9001 57.06 67.8001 57.16C67.8001 57.2266 67.7112 57.2933 67.6223 57.36C67.5779 57.3933 67.5334 57.4266 67.5001 57.46C67.3001 57.56 67.2001 57.56 67.0001 57.56H62.5001ZM64.7001 54.26L63.9001 55.76H65.5001L64.7001 54.26Z" fill="url(#paint0_linear_1_1352)"/>
</g>
<defs>
<linearGradient id="paint0_linear_1_1352" x1="24" y1="19" x2="66.2808" y2="57.5138" gradientUnits="userSpaceOnUse">
<stop stop-color="#FE5B52"/>
<stop offset="1" stop-color="#3D96F5"/>
</linearGradient>
</defs>
</svg>
