<svg width="50" height="46" viewBox="0 0 50 46" fill="none" xmlns="http://www.w3.org/2000/svg">
<path fill-rule="evenodd" clip-rule="evenodd" d="M25.6165 21.0362C28.6991 21.1118 31.7435 21.7531 34.5955 22.9296C37.6376 24.1845 40.4019 26.0237 42.7302 28.3424C45.0584 30.6611 46.9052 33.414 48.1653 36.4435C49.1691 38.8568 49.7851 41.4086 49.994 44.0042C50.0824 45.1039 49.1762 46 48.0684 46H38.9817L38.7769 45.9893C37.8341 45.8932 37.0874 45.1418 36.8513 44.213L36.8082 44.012C36.6772 43.2405 36.4702 42.4816 36.1891 41.748L36.0647 41.4359C35.5382 40.1699 34.7965 39.0048 33.8746 37.9915L33.4681 37.5662C32.495 36.5972 31.3625 35.8032 30.1212 35.2183L29.5825 34.9803C28.3111 34.4559 26.9597 34.154 25.5881 34.0868L24.9995 34.0732C23.4268 34.0732 21.8694 34.381 20.4164 34.9803L19.8777 35.2183C18.6364 35.8032 17.5039 36.5972 16.5308 37.5662L16.1243 37.9915C15.2024 39.0048 14.4607 40.1699 13.9342 41.4359L13.8098 41.748C13.5287 42.4816 13.3218 43.2405 13.1908 44.012L13.1477 44.213C12.8946 45.2081 12.0557 45.9998 11.0173 46H1.93057L1.72586 45.9893C0.781128 45.8938 0.0288222 45.1457 0 44.2081L0.00489744 44.0042C0.200803 41.5709 0.754054 39.1763 1.64946 36.8981L1.8336 36.4435C3.01493 33.6034 4.7119 31.0063 6.8378 28.7823L7.26878 28.3424C9.45157 26.1686 12.0175 24.4161 14.8363 23.1715L15.4034 22.9296C18.4457 21.6747 21.7066 21.0284 24.9995 21.0284L25.6165 21.0362ZM8.01025 29.5871C6.06604 31.5829 4.49086 33.9045 3.35964 36.4455L3.13044 36.979C2.24219 39.1147 1.6756 41.3652 1.44572 43.657L1.40459 44.1164C1.3879 44.3277 1.56563 44.6012 1.93057 44.6012H11.0173C11.3027 44.601 11.7106 44.3374 11.8058 43.7789C11.973 42.7939 12.2517 41.8276 12.6374 40.9003L12.7666 40.5989C13.3855 39.2087 14.2412 37.9361 15.2918 36.8327L8.01025 29.5871ZM34.6964 36.8171C35.8284 38.0028 36.7321 39.387 37.3616 40.9003L37.5016 41.2496C37.8156 42.0691 38.0468 42.917 38.1932 43.7789L38.2147 43.8803C38.339 44.3694 38.7141 44.601 38.9817 44.6012H48.0684C48.4333 44.6012 48.611 44.3277 48.5943 44.1164C48.4094 41.8192 47.8872 39.5581 47.0419 37.4072L46.8685 36.979C45.7533 34.2978 44.1514 31.8456 42.1444 29.7461L41.972 29.5714L34.6964 36.8171ZM24.307 22.438C21.6285 22.5159 18.9824 23.0451 16.4818 24.0055L15.9412 24.2211C13.3916 25.2728 11.0489 26.7596 9.01716 28.6116L16.3095 35.869C17.3757 34.962 18.5792 34.2249 19.8787 33.6888L20.1843 33.5669C21.5041 33.0599 22.8958 32.7667 24.307 32.6939V22.438ZM25.7116 32.6958C27.2253 32.7762 28.7165 33.1098 30.1202 33.6888L30.4229 33.8176C31.6013 34.3379 32.6954 35.0265 33.6748 35.8573L40.9651 28.596C39.0806 26.8813 36.929 25.4805 34.5935 24.4494L34.0578 24.2211C31.4054 23.127 28.5772 22.5239 25.7116 22.438V32.6958Z" fill="url(#paint0_linear_1_219)"/>
<path d="M7.30208 18.263C7.58952 18.263 7.86577 18.3771 8.06902 18.5771C8.27188 18.7771 8.38632 19.0476 8.38637 19.3302V19.9096C8.38618 20.1921 8.27192 20.4628 8.06902 20.6626C7.86577 20.8627 7.58952 20.9767 7.30208 20.9767C7.01485 20.9766 6.73923 20.8626 6.53612 20.6626C6.33328 20.4628 6.21994 20.1921 6.21975 19.9096V19.3302C6.2198 19.0476 6.33332 18.7771 6.53612 18.5771C6.73923 18.3772 7.01485 18.2632 7.30208 18.263Z" fill="url(#paint1_linear_1_219)"/>
<path d="M42.166 18.263C42.4534 18.2631 42.7297 18.3771 42.9329 18.5771C43.1357 18.7771 43.2502 19.0476 43.2503 19.3302V19.9096C43.2498 20.4982 42.7641 20.9748 42.166 20.9748C41.568 20.9746 41.0841 20.4981 41.0836 19.9096V19.3302C41.0837 19.0476 41.1972 18.7771 41.4 18.5771C41.6032 18.3772 41.8787 18.2632 42.166 18.263Z" fill="url(#paint2_linear_1_219)"/>
<path d="M3.67112 10.8233C3.67145 8.49953 5.82422 6.72007 8.16795 7.27555C9.49577 7.59082 10.5472 8.65908 10.8439 9.99609C11.2652 11.892 10.1892 13.6998 8.45984 14.2832C8.44684 14.2878 8.38483 14.3114 8.38442 14.3632V15.799C8.38438 16.0819 8.2712 16.354 8.06804 16.554C7.86492 16.7538 7.58923 16.8661 7.30208 16.8662C7.0147 16.8662 6.73838 16.754 6.53514 16.554C6.33192 16.354 6.21783 16.0819 6.21779 15.799V14.3632C6.21802 13.4196 6.83668 12.5761 7.75656 12.265C8.46052 12.0271 8.90844 11.2735 8.72528 10.4506C8.60611 9.91548 8.17753 9.47216 7.65959 9.34936C6.70936 9.1251 5.83807 9.86607 5.83775 10.8233C5.83775 11.1062 5.72365 11.3782 5.52039 11.5783C5.31733 11.7779 5.04243 11.8903 4.75541 11.8904C4.61319 11.8904 4.47152 11.863 4.34011 11.8095C4.20875 11.7559 4.08903 11.6772 3.98847 11.5783C3.88786 11.4792 3.80784 11.3614 3.7534 11.232C3.69898 11.1026 3.6711 10.9633 3.67112 10.8233Z" fill="url(#paint3_linear_1_219)"/>
<path d="M42.166 7.17215C43.9194 7.17231 45.3504 8.39399 45.7058 9.99609C46.1262 11.9048 45.045 13.7012 43.3237 14.2832C43.3099 14.2879 43.2487 14.3115 43.2483 14.3632V15.799C43.2482 16.3878 42.7631 16.866 42.165 16.8662C41.5668 16.866 41.0808 16.3879 41.0807 15.799V14.3632C41.0809 13.4188 41.7005 12.5761 42.6205 12.265C43.3237 12.0271 43.7716 11.2752 43.5882 10.4506C43.4694 9.91486 43.0412 9.47217 42.5235 9.34936C41.5736 9.12494 40.7019 9.86596 40.7016 10.8233C40.7016 11.1062 40.5875 11.3782 40.3843 11.5783C40.181 11.7783 39.9047 11.8903 39.6173 11.8904C39.33 11.8902 39.0535 11.7783 38.8504 11.5783C38.6474 11.3782 38.5341 11.106 38.534 10.8233C38.5342 8.81064 40.1636 7.17215 42.166 7.17215Z" fill="url(#paint4_linear_1_219)"/>
<path d="M24.734 13.259C25.0213 13.2591 25.2978 13.3722 25.501 13.5721C25.7039 13.7721 25.8182 14.0434 25.8183 14.3261V15.0811C25.8183 15.6701 25.3324 16.1482 24.734 16.1483C24.1358 16.148 23.6517 15.67 23.6517 15.0811V14.3261C23.6518 14.0433 23.7649 13.7721 23.9681 13.5721C24.1712 13.3722 24.4468 13.2592 24.734 13.259Z" fill="url(#paint5_linear_1_219)"/>
<path d="M20.3254 4.43894C20.3254 1.62917 22.9202 -0.553467 25.787 0.124516C27.3971 0.505768 28.6724 1.80382 29.033 3.42837C29.544 5.74887 28.2344 7.93638 26.1376 8.64509C25.9896 8.69522 25.8164 8.83483 25.8164 9.05965V10.9325C25.8161 11.5212 25.3311 11.9994 24.733 11.9997C24.1351 11.9993 23.65 11.5211 23.6497 10.9325V9.05965C23.6497 7.9664 24.3669 6.98907 25.4344 6.62785C26.4985 6.26807 27.1886 5.13883 26.9134 3.88195C26.732 3.06454 26.0751 2.38715 25.2786 2.19833C23.8359 1.86072 22.492 2.98343 22.492 4.43894C22.4917 4.72147 22.3775 4.99212 22.1746 5.19199C21.9714 5.39202 21.6951 5.50404 21.4077 5.50413C21.2657 5.50403 21.1255 5.47661 20.9943 5.42317C20.8629 5.36954 20.7423 5.29105 20.6417 5.19199C20.5414 5.09303 20.462 4.97491 20.4076 4.8457C20.3534 4.71665 20.3254 4.57858 20.3254 4.43894Z" fill="url(#paint6_linear_1_219)"/>
<defs>
<linearGradient id="paint0_linear_1_219" x1="68.1298" y1="72.1337" x2="-13.9641" y2="-2.93742" gradientUnits="userSpaceOnUse">
<stop stop-color="#31393C"/>
<stop offset="1" stop-color="#3D96F5"/>
</linearGradient>
<linearGradient id="paint1_linear_1_219" x1="68.1298" y1="72.1337" x2="-13.9641" y2="-2.93742" gradientUnits="userSpaceOnUse">
<stop stop-color="#31393C"/>
<stop offset="1" stop-color="#3D96F5"/>
</linearGradient>
<linearGradient id="paint2_linear_1_219" x1="68.1298" y1="72.1337" x2="-13.9641" y2="-2.93742" gradientUnits="userSpaceOnUse">
<stop stop-color="#31393C"/>
<stop offset="1" stop-color="#3D96F5"/>
</linearGradient>
<linearGradient id="paint3_linear_1_219" x1="68.1298" y1="72.1337" x2="-13.9641" y2="-2.93742" gradientUnits="userSpaceOnUse">
<stop stop-color="#31393C"/>
<stop offset="1" stop-color="#3D96F5"/>
</linearGradient>
<linearGradient id="paint4_linear_1_219" x1="68.1298" y1="72.1337" x2="-13.9641" y2="-2.93742" gradientUnits="userSpaceOnUse">
<stop stop-color="#31393C"/>
<stop offset="1" stop-color="#3D96F5"/>
</linearGradient>
<linearGradient id="paint5_linear_1_219" x1="68.1298" y1="72.1337" x2="-13.9641" y2="-2.93742" gradientUnits="userSpaceOnUse">
<stop stop-color="#31393C"/>
<stop offset="1" stop-color="#3D96F5"/>
</linearGradient>
<linearGradient id="paint6_linear_1_219" x1="68.1298" y1="72.1337" x2="-13.9641" y2="-2.93742" gradientUnits="userSpaceOnUse">
<stop stop-color="#31393C"/>
<stop offset="1" stop-color="#3D96F5"/>
</linearGradient>
</defs>
</svg>
