<svg width="58" height="64" viewBox="0 0 58 64" fill="none" xmlns="http://www.w3.org/2000/svg">
<path id="Union" fill-rule="evenodd" clip-rule="evenodd" d="M54.1416 8.15783C55.7926 8.15783 57.0551 9.42035 57.2493 11.0713C57.2493 11.0829 57.2507 11.1118 57.2529 11.1571C57.287 11.8705 57.5161 16.6518 55.5983 21.9484C53.7531 27.0956 49.3828 33.6025 39.3798 36.2246C37.8259 37.4872 35.9807 38.4583 34.0384 39.1382L33.5528 39.9151C32.6787 41.3718 32.1931 43.1199 32.1931 44.9652C32.1931 46.0335 32.2903 47.1017 32.6787 48.17L33.3585 50.1124H35.4951C37.7288 50.1124 39.574 51.9576 39.574 54.1913V56.1336H42.9731C43.1674 56.1336 43.4587 56.1336 43.6529 56.2307C43.8472 56.3279 44.0414 56.425 44.2356 56.6192C44.4299 56.8134 44.527 57.0077 44.6241 57.2019C44.7212 57.3961 44.7212 57.6875 44.7212 57.8817V62.252C44.7212 62.4462 44.7212 62.7376 44.6241 62.9318C44.527 63.126 44.4299 63.3203 44.2356 63.5145C44.0414 63.7088 43.8472 63.8059 43.6529 63.903C43.4587 64.0001 43.1674 64.0001 42.9731 64.0001H14.3236C14.1294 64.0001 13.838 64.0001 13.6438 63.903C13.4496 63.8059 13.2553 63.7088 13.0611 63.5145C12.8669 63.3203 12.7697 63.126 12.6726 62.9318C12.5755 62.7376 12.5755 62.4462 12.5755 62.252V57.8817C12.5755 57.3961 12.7697 56.9106 13.0611 56.6192C13.3524 56.3279 13.838 56.1336 14.3236 56.1336H17.7227V54.1913C17.7227 51.9576 19.5679 50.1124 21.8016 50.1124H23.9382L24.618 48.17C24.9094 47.1989 25.1036 46.0335 25.1036 44.9652C25.1036 43.1199 24.618 41.3718 23.744 39.9151L23.2584 39.1382C21.316 38.4583 19.4708 37.4872 17.9169 36.2246C7.91389 33.6025 3.54363 26.9985 1.6984 21.9484C-0.29921 16.682 -0.00465756 11.9249 0.0421073 11.1697C0.0453604 11.1171 0.0474145 11.084 0.0474145 11.0713C0.144531 9.42035 1.50417 8.15783 3.15516 8.15783H11.2159V6.99242H11.1188C10.6332 6.99242 10.0505 6.79819 9.662 6.40972C9.27353 6.02125 9.07929 5.53567 9.07929 4.95297V2.03946C9.07929 1.55387 9.27353 0.97117 9.662 0.582702C10.0505 0.194234 10.536 0 11.1188 0H18.0141C18.5968 0 18.9852 0.388468 18.9852 0.97117C18.9852 1.55387 18.5968 1.94234 18.0141 1.94234H11.1188L11.0216 2.03946C10.9731 2.03946 10.9488 2.03946 10.9367 2.0516C10.9245 2.06374 10.9245 2.08802 10.9245 2.13657V5.05008L11.0216 5.1472C11.0216 5.19576 11.0216 5.22004 11.0338 5.23218C11.0459 5.24432 11.0702 5.24432 11.1188 5.24432H12.187H45.1097H46.178L46.2751 5.1472C46.3237 5.1472 46.3479 5.1472 46.3601 5.13506C46.3722 5.12292 46.3722 5.09864 46.3722 5.05008V2.13657L46.2751 2.03946C46.2751 1.94234 46.2751 1.94234 46.178 1.94234H22.3843C21.8016 1.94234 21.4132 1.55387 21.4132 0.97117C21.4132 0.388468 21.8016 0 22.3843 0H46.2751C46.7607 0 47.3434 0.194234 47.7319 0.582702C48.1203 1.06829 48.3146 1.55387 48.3146 2.13657V5.05008C48.3146 5.53567 48.1203 6.11837 47.7319 6.50684C47.2463 6.89531 46.7607 7.08954 46.178 7.08954H46.0809V8.15783H54.1416ZM14.4207 57.9788V62.0578H42.7789V57.9788H38.6029H18.5968H14.4207ZM37.6317 56.0365V54.0942C37.6317 52.9288 36.6605 51.9576 35.398 51.9576H21.7045C20.5391 51.9576 19.5679 52.9288 19.5679 54.0942V56.0365H37.6317ZM44.0414 22.5311V7.08954H13.1582V22.5311C13.1582 31.0774 20.0535 37.9727 28.5998 37.9727C37.1461 37.9727 44.0414 31.0774 44.0414 22.5311ZM7.62254 19.909C8.49659 22.3369 9.75911 24.2792 11.5072 25.9302C11.313 24.7648 11.2159 23.6965 11.2159 22.5311V14.4704H6.36002C6.55425 16.4128 6.94272 18.258 7.62254 19.909ZM1.88869 11.3546C1.85291 12.0496 1.62664 16.446 3.44651 21.2686C4.90326 25.2504 8.10812 30.3005 14.8092 33.1169C13.838 31.8544 13.0611 30.5919 12.4784 29.1351C9.46776 27.0956 7.13695 24.2792 5.77732 20.5888C5.0975 18.7436 4.61191 16.7041 4.41768 14.5675C4.41768 13.9848 4.5148 13.4993 4.90326 13.1108C5.29173 12.7223 5.77732 12.5281 6.2629 12.5281H11.1188V10.1973H3.05804C2.47534 10.1973 1.98975 10.5858 1.89264 11.2656C1.89264 11.2778 1.89109 11.3078 1.88869 11.3546ZM31.222 50.0153L30.8335 48.7527C30.445 47.4902 30.1537 46.2277 30.1537 44.8681C30.1537 43.0228 30.5422 41.2747 31.3191 39.7209C30.3479 39.9151 29.4739 40.0122 28.5027 40.0122C27.5315 40.0122 26.5604 39.9151 25.6863 39.7209C26.4632 41.2747 26.8517 43.0228 26.8517 44.8681C26.8517 46.2277 26.6575 47.4902 26.269 48.7527L25.8805 50.0153H31.222ZM42.3904 33.1169C49.0915 30.3005 52.2964 25.2504 53.7531 21.2686C55.6954 16.1214 55.307 11.4598 55.2099 11.0713C55.2099 10.4886 54.7243 10.003 54.0445 10.003H45.9838V12.431H50.9367C51.4223 12.431 51.9079 12.6252 52.2964 13.0137C52.6848 13.4021 52.7819 13.9848 52.7819 14.4704C52.6848 15.5387 52.4906 16.607 52.2964 17.6753C52.1992 18.1609 51.8108 18.4522 51.3252 18.4522H51.131C50.5482 18.3551 50.2569 17.7724 50.354 17.2868C50.3821 17.1466 50.4101 17.0084 50.4378 16.8717C50.6023 16.0613 50.7565 15.3014 50.8396 14.4704H45.9838V22.5311C45.9838 23.6965 45.8866 24.8619 45.6924 25.9302C47.1492 24.6677 48.2174 23.1138 49.0915 21.2686C49.2857 20.783 49.8684 20.5888 50.354 20.783C50.8396 20.9773 51.0338 21.56 50.8396 22.0456C49.3828 24.9591 47.3434 27.387 44.7212 29.1351C44.1385 30.5919 43.3616 31.9515 42.3904 33.1169ZM23.2584 24.1821C23.2584 24.085 23.2584 23.9879 23.1613 23.8907L21.3161 21.9484C20.6363 21.3657 20.442 20.4916 20.7334 19.6176C21.0247 18.7435 21.7045 18.1608 22.5786 18.0637L25.2979 17.6752L25.395 17.5781L25.4921 17.481L26.6575 15.0531C27.046 14.2761 27.8229 13.7906 28.697 13.7906C29.571 13.7906 30.348 14.2761 30.7364 15.0531L31.9018 17.481L31.9989 17.5781C31.9989 17.6267 31.9989 17.651 32.0111 17.6631C32.0232 17.6752 32.0475 17.6752 32.0961 17.6752L34.8153 18.0637C35.6894 18.1608 36.3692 18.7435 36.6606 19.6176C36.9519 20.4916 36.6606 21.3657 36.0779 21.9484L34.1355 23.8907C34.0384 23.8907 34.0384 23.8907 34.0384 23.9878V24.1821L34.524 26.8042C34.7182 27.6783 34.3298 28.5523 33.6499 29.0379C32.873 29.5235 31.9989 29.6206 31.222 29.2322L28.7941 27.9696C28.697 27.8725 28.5999 27.8725 28.5027 27.9696L26.0748 29.2322C25.6863 29.4264 25.395 29.5235 25.0065 29.5235C24.5209 29.5235 24.0354 29.4264 23.6469 29.135C22.9671 28.6495 22.5786 27.7754 22.7728 26.9014L23.2584 24.1821ZM22.7728 20.1032C22.5786 20.1032 22.4815 20.2003 22.4815 20.2974C22.3844 20.2974 22.3844 20.4916 22.3844 20.5888L24.3267 22.5311C24.9094 23.1138 25.1036 23.7936 25.0065 24.5705L24.5209 27.2898C24.4238 27.4841 24.5209 27.5812 24.6181 27.5812C24.6475 27.5812 24.6769 27.5901 24.709 27.5998C24.7829 27.6222 24.8711 27.6489 25.0065 27.5812L27.4344 26.3187C28.1143 25.9302 28.8912 25.9302 29.571 26.3187L31.9989 27.5812C32.1344 27.6489 32.2226 27.6222 32.2965 27.5998C32.3286 27.5901 32.358 27.5812 32.3874 27.5812C32.3874 27.5812 32.4845 27.4841 32.4845 27.2898L31.9989 24.5705C31.9989 24.1821 31.9989 23.8907 32.0961 23.5023C32.1932 23.1138 32.3874 22.8224 32.6788 22.5311L34.6211 20.5888C34.7182 20.4916 34.7182 20.3945 34.7182 20.2974C34.678 20.2974 34.6544 20.2641 34.6268 20.225C34.5878 20.1698 34.5406 20.1032 34.4269 20.1032L31.7076 19.7147C31.4162 19.7147 31.0278 19.5205 30.7364 19.3262C30.4451 19.0349 30.2509 18.7436 30.0566 18.4522L30.0566 18.4522L28.8912 16.0243C28.7941 15.83 28.697 15.83 28.5999 15.83C28.5027 15.83 28.4056 15.83 28.3085 16.0243L27.1431 18.4522C27.046 18.8406 26.7546 19.132 26.4633 19.3262C26.1719 19.5205 25.8806 19.6176 25.4921 19.7147L22.7728 20.1032Z" fill="url(#paint0_linear_1_1546)"/>
<defs>
<linearGradient id="paint0_linear_1_1546" x1="8.86667" y1="7.99554" x2="52.5288" y2="46.7309" gradientUnits="userSpaceOnUse">
<stop stop-color="#FE5B52"/>
<stop offset="1" stop-color="#3E96F4"/>
</linearGradient>
</defs>
</svg>
