<svg width="41" height="40" viewBox="0 0 41 40" fill="none" xmlns="http://www.w3.org/2000/svg">
<path d="M3.79844 1.9H36.2984V16.1H38.1984V0.9C38.1984 0.7 38.0984 0.4 37.8984 0.2C37.6984 0.1 37.3984 0 37.1984 0H2.89844C2.59844 0 2.39844 0.0999999 2.19844 0.3C1.99844 0.5 1.89844 0.7 1.89844 0.9V16H3.79844V1.9Z" fill="url(#paint0_linear_0_889)"/>
<path fill-rule="evenodd" clip-rule="evenodd" d="M39 23.9998L36.9 18.6998C36.6 17.8998 36 17.2998 35.3 16.8998C34.6 16.4998 33.9 16.3998 33.1 16.4998C33.6 16.2998 34.1 15.9998 34.5 15.5998C35.2 14.8998 35.5 13.9998 35.5 13.0998C35.5 12.3998 35.3 11.6998 34.9 11.0998C34.5 10.4998 34 10.0998 33.3 9.79985C32.7 9.49985 32 9.49985 31.3 9.59985C30.6 9.69985 30 10.0998 29.5 10.5998C29 11.0998 28.7 11.6998 28.6 12.3998C28.5 13.0998 28.5 13.7998 28.8 14.3998C29.1 14.9998 29.5 15.5998 30.1 15.9998C30.7 16.3998 31.3 16.5998 32 16.5998H32.5C32.35 16.6498 32.2 16.7248 32.05 16.7998C31.9 16.8748 31.75 16.9498 31.6 16.9998C31.2 17.2998 30.9 17.5998 30.6 17.9998L28.4 21.9998L25.5 22.3998C24.9 22.4998 24.4 22.7998 24 23.1998C23.6 23.6998 23.5 24.1998 23.5 24.7998C23.5 25.3998 23.8 25.8998 24.2 26.2998C24.6 26.6998 25.2 26.8998 25.8 26.8998H30.8C31 26.8998 31.1 26.8998 31.3 26.7998C31.3236 26.7762 31.3528 26.7526 31.3836 26.7277C31.4833 26.6471 31.6 26.5526 31.6 26.3998L32.3 25.0998L33.1 29.3998C33.1 29.5332 33.1889 29.6665 33.2778 29.7998C33.3222 29.8665 33.3667 29.9332 33.4 29.9998C33.6 30.0998 33.8 30.1998 34 30.1998H39.1C39.3 30.1998 39.6 30.0998 39.8 29.8998C40 29.6998 40.1 29.4998 40.1 29.1998C40 27.4998 39.7 25.6998 39 23.9998ZM33.7 13.1998C33.7 13.4998 33.6 13.7998 33.4 14.0998C33.2 14.3998 33 14.5998 32.7 14.6998C32.4 14.7998 32.1 14.8998 31.8 14.7998C31.5 14.6998 31.2 14.5998 31 14.3998C30.8 14.1998 30.6 13.8998 30.6 13.5998C30.5 13.2998 30.6 12.9998 30.7 12.6998C30.8 12.3998 31 12.0998 31.3 11.9998C31.6 11.7998 31.9 11.6998 32.2 11.6998C32.6 11.6998 33 11.8998 33.3 12.1998C33.6 12.3998 33.7 12.7998 33.7 13.1998ZM38.1 28.3998H34.7L33.7 22.0998C33.7 21.8998 33.6 21.6998 33.4 21.5998C33.3 21.4998 33.1 21.3998 32.9 21.2998C32.7 21.2998 32.5 21.2998 32.3 21.3998C32.1 21.4998 32 21.5998 31.9 21.7998L30.2 25.1998H25.8C25.7 25.1998 25.6 25.1998 25.5 25.0998C25.4 24.9998 25.4 24.8998 25.4 24.7998C25.4 24.6998 25.4 24.5998 25.5 24.4998C25.55 24.4498 25.6 24.4248 25.65 24.3998C25.7 24.3748 25.75 24.3498 25.8 24.2998L29.1 23.7998C29.15 23.7998 29.225 23.7748 29.3 23.7498C29.375 23.7248 29.45 23.6998 29.5 23.6998L29.8 23.3998L32.4 19.1998C32.6 18.8998 32.8 18.6998 33.1 18.5998C33.4 18.4999 33.7 18.3998 34 18.3998C34.3 18.3998 34.6 18.4998 34.8 18.6998C35 18.8998 35.2 19.0998 35.3 19.3998L37.4 24.6998C37.8 25.8998 38 27.1998 38.1 28.3998Z" fill="url(#paint1_linear_0_889)"/>
<path fill-rule="evenodd" clip-rule="evenodd" d="M7.7 25.2L8.4 26.5C8.5 26.7 8.6 26.8 8.7 26.9C8.8 27 9 27 9.2 27H14.2C14.8 27 15.3 26.8 15.8 26.4C16.2 26 16.5 25.5 16.5 24.9C16.5 24.3 16.4 23.7 16 23.3C15.6 22.8 15.1 22.5 14.5 22.5L11.7 22L9.3 18.2C9 17.8 8.7 17.4 8.3 17.2C8 17 7.7 16.9 7.4 16.8H7.9C8.8 16.8 9.7 16.4 10.4 15.8C11.1 15.1 11.4 14.2 11.4 13.3C11.4 12.6 11.2 11.9 10.8 11.3C10.4 10.7 9.9 10.3 9.2 10C8.6 9.70004 7.9 9.70004 7.2 9.80004C6.5 9.90004 5.9 10.3 5.4 10.8C4.9 11.3 4.6 11.9 4.5 12.6C4.4 13.3 4.4 14 4.7 14.6C5 15.2 5.4 15.8 6 16.2C6.3 16.4 6.5 16.5 6.8 16.6C6.1 16.5 5.3 16.6 4.6 17C3.9 17.4 3.3 18 3 18.8L1 24C0.3 25.7 0 27.5 0 29.3C0 29.6 0.1 29.8 0.3 30C0.5 30.2 0.7 30.3 1 30.3H6.1C6.3 30.3 6.5 30.2 6.7 30.1C6.9 30 7 29.8 7 29.5L7.7 25.2ZM6.8 14.4C6.6 14.2 6.4 13.9 6.4 13.6C6.3 13.3 6.4 13 6.5 12.7C6.6 12.4 6.8 12.1 7.1 12C7.4 11.8 7.7 11.7 8 11.7C8.4 11.7 8.8 11.9 9.1 12.2C9.4 12.5 9.6 12.9 9.6 13.4C9.6 13.7 9.5 14 9.3 14.3C9.1 14.6 8.9 14.8 8.6 14.9C8.3 15 8 15.1 7.7 15C7.3 14.8 7 14.6 6.8 14.4ZM14.5 25.1C14.4 25.2 14.3 25.2 14.2 25.2H9.8L8.1 21.8C8 21.6 7.9 21.5 7.7 21.4C7.5 21.3 7.3 21.3 7.1 21.3C6.9 21.3 6.7 21.4 6.6 21.6C6.5 21.7 6.4 21.9 6.3 22.1L5.2 28.4H1.9C2 27.1 2.3 25.9 2.7 24.7L4.8 19.4C4.9 19.1 5.1 18.9 5.3 18.7C5.5 18.5 5.8 18.4 6.1 18.4C6.4 18.4 6.7 18.4 7 18.6C7.3 18.7 7.5 18.9 7.7 19.2L10.3 23.4L10.6 23.7C10.7 23.8 10.8 23.8 11 23.8L14.3 24.3C14.4 24.3 14.5 24.4 14.6 24.5C14.7 24.6 14.7 24.7 14.7 24.8C14.65 24.85 14.625 24.9 14.6 24.95C14.575 25 14.55 25.05 14.5 25.1Z" fill="url(#paint2_linear_0_889)"/>
<path d="M28.5992 20.2002L26.8992 20.9002L26.0992 18.7002H13.9992L13.3992 20.3002L11.6992 19.6002L12.5992 17.3002C12.5992 17.2002 12.6992 17.0002 12.8992 16.9002C12.9992 16.8002 13.1992 16.7002 13.3992 16.7002H26.6992C26.8456 16.7002 26.9384 16.7538 27.0561 16.8217C27.0992 16.8466 27.1456 16.8734 27.1992 16.9002C27.2992 17.0002 27.3992 17.1002 27.4992 17.3002L28.5992 20.2002Z" fill="url(#paint3_linear_0_889)"/>
<path fill-rule="evenodd" clip-rule="evenodd" d="M15.8984 28.1V28.7C15.8984 29.8 16.2984 30.9 17.0984 31.6C17.8984 32.4 18.8984 32.8 19.9984 32.8C21.0984 32.8 22.0984 32.4 22.8984 31.6C23.6984 30.8 24.0984 29.8 24.0984 28.7V28.1C24.0984 27 23.6984 25.9 22.8984 25.2C22.0984 24.4 21.0984 24 19.9984 24C18.8984 24 17.8984 24.4 17.0984 25.2C16.3984 25.9 15.8984 27 15.8984 28.1ZM17.7984 28.7V28.1C17.7984 27.5 17.9984 26.9 18.4984 26.5C18.8984 26.1 19.4984 25.8 20.0984 25.8C20.6984 25.8 21.2984 26 21.6984 26.5C22.0984 26.9 22.3984 27.5 22.3984 28.1V28.7C22.3984 29.3 22.1984 29.9 21.6984 30.3C20.7984 31.2 19.3984 31.2 18.4984 30.3C17.9984 29.9 17.7984 29.3 17.7984 28.7Z" fill="url(#paint4_linear_0_889)"/>
<path d="M16.1992 32.8999H23.7992C24.7992 32.8999 25.5992 33.2999 26.2992 33.9999C26.8992 34.6999 27.2992 35.5999 27.2992 36.4999V39.9999H25.3992V36.4999C25.3992 35.9999 25.1992 35.5999 24.8992 35.2999C24.5992 34.9999 24.1992 34.7999 23.7992 34.7999H16.1992C15.7992 34.7999 15.3992 34.9999 15.0992 35.2999C14.7992 35.5999 14.5992 36.0999 14.5992 36.4999V39.9999H12.6992V36.3999C12.6992 35.4999 13.0992 34.5999 13.6992 33.8999C14.3992 33.2999 15.2992 32.8999 16.1992 32.8999Z" fill="url(#paint5_linear_0_889)"/>
<path d="M31.4984 27.5L29.7984 28.2L31.4984 32.8V34.3H28.3984V36.2H32.4984C32.6984 36.2 32.9984 36.1 33.1984 35.9C33.3984 35.7 33.4984 35.5 33.4984 35.2V32.6C33.4984 32.5 33.4984 32.4 33.3984 32.3L31.4984 27.5Z" fill="url(#paint6_linear_0_889)"/>
<path d="M10.0992 28.4002L8.59922 32.8002V34.3002H11.6992V36.2002H7.69922C7.39922 36.2002 7.19922 36.1002 6.99922 35.9002C6.79922 35.7002 6.69922 35.5002 6.69922 35.2002V32.6002C6.69922 32.5002 6.69922 32.4002 6.79922 32.3002L8.39922 27.7002L10.0992 28.4002Z" fill="url(#paint7_linear_0_889)"/>
<path d="M6.39844 5.7998H11.3984V7.6998H6.39844V5.7998Z" fill="url(#paint8_linear_0_889)"/>
<path d="M14.5984 3.2002H6.39844V5.1002H14.5984V3.2002Z" fill="url(#paint9_linear_0_889)"/>
<path d="M30.5016 4.2002V8.2002H28.6016V6.3002L21.9016 13.1002C21.6016 13.5002 21.0016 13.5002 20.6016 13.1002L17.4016 9.9002L13.4016 14.0002L12.1016 12.7002L16.8016 8.0002C17.1016 7.6002 17.8016 7.6002 18.1016 8.0002L21.3016 11.2002L27.3016 5.1002H25.4016V3.2002H29.5016C29.8016 3.2002 30.0016 3.3002 30.2016 3.5002C30.4016 3.7002 30.5016 4.0002 30.5016 4.2002Z" fill="url(#paint10_linear_0_889)"/>
<defs>
<linearGradient id="paint0_linear_0_889" x1="40.421" y1="40.3814" x2="10.1394" y2="5.18113" gradientUnits="userSpaceOnUse">
<stop stop-color="#31393C"/>
<stop offset="1" stop-color="#3D96F5"/>
</linearGradient>
<linearGradient id="paint1_linear_0_889" x1="40.421" y1="40.3814" x2="10.1394" y2="5.18113" gradientUnits="userSpaceOnUse">
<stop stop-color="#31393C"/>
<stop offset="1" stop-color="#3D96F5"/>
</linearGradient>
<linearGradient id="paint2_linear_0_889" x1="40.421" y1="40.3814" x2="10.1394" y2="5.18113" gradientUnits="userSpaceOnUse">
<stop stop-color="#31393C"/>
<stop offset="1" stop-color="#3D96F5"/>
</linearGradient>
<linearGradient id="paint3_linear_0_889" x1="40.421" y1="40.3814" x2="10.1394" y2="5.18113" gradientUnits="userSpaceOnUse">
<stop stop-color="#31393C"/>
<stop offset="1" stop-color="#3D96F5"/>
</linearGradient>
<linearGradient id="paint4_linear_0_889" x1="40.421" y1="40.3814" x2="10.1394" y2="5.18113" gradientUnits="userSpaceOnUse">
<stop stop-color="#31393C"/>
<stop offset="1" stop-color="#3D96F5"/>
</linearGradient>
<linearGradient id="paint5_linear_0_889" x1="40.421" y1="40.3814" x2="10.1394" y2="5.18113" gradientUnits="userSpaceOnUse">
<stop stop-color="#31393C"/>
<stop offset="1" stop-color="#3D96F5"/>
</linearGradient>
<linearGradient id="paint6_linear_0_889" x1="40.421" y1="40.3814" x2="10.1394" y2="5.18113" gradientUnits="userSpaceOnUse">
<stop stop-color="#31393C"/>
<stop offset="1" stop-color="#3D96F5"/>
</linearGradient>
<linearGradient id="paint7_linear_0_889" x1="40.421" y1="40.3814" x2="10.1394" y2="5.18113" gradientUnits="userSpaceOnUse">
<stop stop-color="#31393C"/>
<stop offset="1" stop-color="#3D96F5"/>
</linearGradient>
<linearGradient id="paint8_linear_0_889" x1="40.421" y1="40.3814" x2="10.1394" y2="5.18113" gradientUnits="userSpaceOnUse">
<stop stop-color="#31393C"/>
<stop offset="1" stop-color="#3D96F5"/>
</linearGradient>
<linearGradient id="paint9_linear_0_889" x1="40.421" y1="40.3814" x2="10.1394" y2="5.18113" gradientUnits="userSpaceOnUse">
<stop stop-color="#31393C"/>
<stop offset="1" stop-color="#3D96F5"/>
</linearGradient>
<linearGradient id="paint10_linear_0_889" x1="40.421" y1="40.3814" x2="10.1394" y2="5.18113" gradientUnits="userSpaceOnUse">
<stop stop-color="#31393C"/>
<stop offset="1" stop-color="#3D96F5"/>
</linearGradient>
</defs>
</svg>
