<svg width="37" height="36" viewBox="0 0 37 36" fill="none" xmlns="http://www.w3.org/2000/svg">
<g clip-path="url(#clip0_2553_5077)">
<path d="M3.42752 1.71H32.7568V14.49H34.4714V0.81C34.4714 0.63 34.3811 0.36 34.2007 0.18C34.0202 0.09 33.7494 0 33.569 0H2.61533C2.3446 0 2.16411 0.0899999 1.98362 0.27C1.80313 0.45 1.71289 0.63 1.71289 0.81V14.4H3.42752V1.71Z" fill="#3DA4C2"/>
<path fill-rule="evenodd" clip-rule="evenodd" d="M35.1948 21.5997L33.2997 16.8297C33.029 16.1097 32.4875 15.5697 31.8558 15.2097C31.2241 14.8497 30.5924 14.7597 29.8704 14.8497C30.3217 14.6697 30.7729 14.3997 31.1339 14.0397C31.7656 13.4097 32.0363 12.5997 32.0363 11.7897C32.0363 11.1597 31.8558 10.5297 31.4948 9.98972C31.1339 9.44972 30.6826 9.08972 30.0509 8.81976C29.5095 8.54976 28.8778 8.54976 28.2461 8.63976C27.6143 8.72976 27.0729 9.08972 26.6217 9.53972C26.1704 9.98972 25.8997 10.5297 25.8095 11.1597C25.7192 11.7897 25.7192 12.4197 25.99 12.9597C26.2607 13.4997 26.6217 14.0397 27.1631 14.3997C27.7046 14.7597 28.2461 14.9397 28.8778 14.9397H29.329C29.1936 14.9847 29.0583 15.0522 28.9229 15.1197C28.7875 15.1872 28.6522 15.2547 28.5168 15.2997C28.1558 15.5697 27.8851 15.8397 27.6143 16.1997L25.629 19.7997L23.0119 20.1597C22.4704 20.2497 22.0192 20.5197 21.6583 20.8797C21.2973 21.3297 21.207 21.7797 21.207 22.3197C21.207 22.8597 21.4778 23.3097 21.8387 23.6697C22.1997 24.0297 22.7412 24.2097 23.2826 24.2097H27.7948C27.9753 24.2097 28.0656 24.2097 28.2461 24.1197C28.2674 24.0985 28.2937 24.0772 28.3215 24.0548C28.4115 23.9823 28.5168 23.8972 28.5168 23.7597L29.1485 22.5897L29.8704 26.4597C29.8704 26.5798 29.9507 26.6998 30.0309 26.8197C30.071 26.8798 30.1111 26.9398 30.1412 26.9997C30.3217 27.0897 30.5022 27.1797 30.6826 27.1797H35.2851C35.4656 27.1797 35.7363 27.0897 35.9168 26.9097C36.0973 26.7297 36.1875 26.5497 36.1875 26.2797C36.0973 24.7497 35.8265 23.1297 35.1948 21.5997ZM30.4119 11.8797C30.4119 12.1497 30.3217 12.4197 30.1412 12.6897C29.9607 12.9597 29.7802 13.1397 29.5095 13.2297C29.2387 13.3197 28.968 13.4097 28.6973 13.3197C28.4265 13.2297 28.1558 13.1397 27.9753 12.9597C27.7948 12.7797 27.6143 12.5097 27.6143 12.2397C27.5241 11.9697 27.6143 11.6997 27.7046 11.4297C27.7948 11.1597 27.9753 10.8897 28.2461 10.7997C28.5168 10.6197 28.7875 10.5297 29.0583 10.5297C29.4192 10.5297 29.7802 10.7097 30.0509 10.9797C30.3217 11.1597 30.4119 11.5197 30.4119 11.8797ZM34.3826 25.5597H31.3143L30.4119 19.8897C30.4119 19.7097 30.3217 19.5297 30.1412 19.4397C30.0509 19.3497 29.8704 19.2597 29.69 19.1697C29.5095 19.1697 29.329 19.1697 29.1485 19.2597C28.968 19.3497 28.8778 19.4397 28.7875 19.6197L27.2534 22.6797H23.2826C23.1924 22.6797 23.1022 22.6797 23.0119 22.5897C22.9217 22.4997 22.9217 22.4097 22.9217 22.3197C22.9217 22.2297 22.9217 22.1397 23.0119 22.0497C23.057 22.0047 23.1022 21.9822 23.1473 21.9597C23.1924 21.9372 23.2375 21.9147 23.2826 21.8697L26.2607 21.4197C26.3058 21.4197 26.3735 21.3972 26.4412 21.3747C26.5089 21.3522 26.5765 21.3297 26.6217 21.3297L26.8924 21.0597L29.2387 17.2797C29.4192 17.0097 29.5997 16.8297 29.8704 16.7397C30.1412 16.6498 30.4119 16.5597 30.6826 16.5597C30.9534 16.5597 31.2241 16.6497 31.4046 16.8297C31.5851 17.0097 31.7656 17.1897 31.8558 17.4597L33.7509 22.2297C34.1119 23.3097 34.2924 24.4797 34.3826 25.5597Z" fill="#3DA4C2"/>
<path fill-rule="evenodd" clip-rule="evenodd" d="M6.94878 22.6799L7.58049 23.8499C7.67073 24.0299 7.76098 24.1199 7.85122 24.2099C7.94146 24.2999 8.12195 24.2999 8.30244 24.2999H12.8146C13.3561 24.2999 13.8073 24.1199 14.2585 23.7599C14.6195 23.3999 14.8902 22.9499 14.8902 22.4099C14.8902 21.8699 14.8 21.3299 14.439 20.9699C14.078 20.5199 13.6268 20.2499 13.0854 20.2499L10.5585 19.7999L8.39268 16.3799C8.12195 16.0199 7.85122 15.6599 7.49024 15.4799C7.21951 15.2999 6.94878 15.2099 6.67805 15.1199H7.12927C7.94146 15.1199 8.75366 14.7599 9.38537 14.2199C10.0171 13.5899 10.2878 12.7799 10.2878 11.9699C10.2878 11.3399 10.1073 10.7099 9.74634 10.1699C9.38537 9.62991 8.93415 9.26991 8.30244 8.99991C7.76098 8.72994 7.12927 8.72994 6.49756 8.81994C5.86585 8.90994 5.32439 9.26991 4.87317 9.71991C4.42195 10.1699 4.15122 10.7099 4.06098 11.3399C3.97073 11.9699 3.97073 12.5999 4.24146 13.1399C4.51219 13.6799 4.87317 14.2199 5.41463 14.5799C5.68537 14.7599 5.86585 14.8499 6.13659 14.9399C5.50488 14.8499 4.78293 14.9399 4.15122 15.2999C3.51951 15.6599 2.97805 16.1999 2.70732 16.9199L0.902439 21.5999C0.270732 23.1299 0 24.7499 0 26.3699C0 26.6399 0.0902439 26.8199 0.270732 26.9999C0.451219 27.1799 0.631707 27.2699 0.902439 27.2699H5.50488C5.68537 27.2699 5.86585 27.1799 6.04634 27.0899C6.22683 26.9999 6.31707 26.8199 6.31707 26.5499L6.94878 22.6799ZM6.13659 12.9599C5.9561 12.7799 5.77561 12.5099 5.77561 12.2399C5.68537 11.9699 5.77561 11.6999 5.86585 11.4299C5.9561 11.1599 6.13659 10.8899 6.40732 10.7999C6.67805 10.6199 6.94878 10.5299 7.21951 10.5299C7.58049 10.5299 7.94146 10.7099 8.2122 10.9799C8.48293 11.2499 8.66341 11.6099 8.66341 12.0599C8.66341 12.3299 8.57317 12.5999 8.39268 12.8699C8.2122 13.1399 8.03171 13.3199 7.76098 13.4099C7.49024 13.4999 7.21951 13.5899 6.94878 13.4999C6.5878 13.3199 6.31707 13.1399 6.13659 12.9599ZM13.0854 22.5899C12.9951 22.6799 12.9049 22.6799 12.8146 22.6799H8.8439L7.30976 19.6199C7.21951 19.4399 7.12927 19.3499 6.94878 19.2599C6.76829 19.1699 6.5878 19.1699 6.40732 19.1699C6.22683 19.1699 6.04634 19.2599 5.9561 19.4399C5.86585 19.5299 5.77561 19.7099 5.68537 19.8899L4.69268 25.5599H1.71463C1.80488 24.3899 2.07561 23.3099 2.43659 22.2299L4.33171 17.4599C4.42195 17.1899 4.60244 17.0099 4.78293 16.8299C4.96341 16.6499 5.23415 16.5599 5.50488 16.5599C5.77561 16.5599 6.04634 16.5599 6.31707 16.7399C6.5878 16.8299 6.76829 17.0099 6.94878 17.2799L9.29512 21.0599L9.56585 21.3299C9.6561 21.4199 9.74634 21.4199 9.92683 21.4199L12.9049 21.8699C12.9951 21.8699 13.0854 21.9599 13.1756 22.0499C13.2659 22.1399 13.2659 22.2299 13.2659 22.3199C13.2207 22.3649 13.1982 22.4099 13.1756 22.4549C13.153 22.4999 13.1305 22.5449 13.0854 22.5899Z" fill="#3DA4C2"/>
<path d="M25.8098 18.1803L24.2757 18.8103L23.5537 16.8303H12.6342L12.0927 18.2703L10.5586 17.6403L11.3708 15.5703C11.3708 15.4803 11.461 15.3003 11.6415 15.2103C11.7318 15.1203 11.9123 15.0303 12.0927 15.0303H24.0952C24.2273 15.0303 24.311 15.0785 24.4173 15.1396C24.4562 15.162 24.498 15.1862 24.5464 15.2103C24.6366 15.3003 24.7269 15.3903 24.8171 15.5703L25.8098 18.1803Z" fill="#3DA4C2"/>
<path fill-rule="evenodd" clip-rule="evenodd" d="M14.3477 25.2901V25.8301C14.3477 26.8201 14.7086 27.8101 15.4306 28.4401C16.1525 29.1601 17.055 29.5201 18.0477 29.5201C19.0403 29.5201 19.9428 29.1601 20.6647 28.4401C21.3867 27.7201 21.7477 26.8201 21.7477 25.8301V25.2901C21.7477 24.3001 21.3867 23.3101 20.6647 22.6801C19.9428 21.9601 19.0403 21.6001 18.0477 21.6001C17.055 21.6001 16.1525 21.9601 15.4306 22.6801C14.7989 23.3101 14.3477 24.3001 14.3477 25.2901ZM16.0623 25.8301V25.2901C16.0623 24.7501 16.2428 24.2101 16.694 23.8501C17.055 23.4901 17.5964 23.2201 18.1379 23.2201C18.6794 23.2201 19.2208 23.4001 19.5818 23.8501C19.9428 24.2101 20.2135 24.7501 20.2135 25.2901V25.8301C20.2135 26.3701 20.033 26.9101 19.5818 27.2701C18.7696 28.0801 17.5062 28.0801 16.694 27.2701C16.2428 26.9101 16.0623 26.3701 16.0623 25.8301Z" fill="#3DA4C2"/>
<path d="M14.6195 29.6099H21.478C22.3805 29.6099 23.1024 29.9699 23.7341 30.5999C24.2756 31.2299 24.6365 32.0399 24.6365 32.8499V35.9999H22.9219V32.8499C22.9219 32.3999 22.7414 32.0399 22.4707 31.7699C22.2 31.4999 21.839 31.3199 21.478 31.3199H14.6195C14.2585 31.3199 13.8975 31.4999 13.6268 31.7699C13.3561 32.0399 13.1756 32.4899 13.1756 32.8499V35.9999H11.4609V32.7599C11.4609 31.9499 11.8219 31.1399 12.3634 30.5099C12.9951 29.9699 13.8073 29.6099 14.6195 29.6099Z" fill="#3DA4C2"/>
<path d="M28.4245 24.75L26.8904 25.38L28.4245 29.52V30.87H25.627V32.58H29.327C29.5074 32.58 29.7782 32.49 29.9587 32.31C30.1391 32.13 30.2294 31.95 30.2294 31.68V29.34C30.2294 29.25 30.2294 29.16 30.1391 29.07L28.4245 24.75Z" fill="#3DA4C2"/>
<path d="M9.1132 25.5602L7.75956 29.5202V30.8702H10.5571V32.5802H6.94736C6.67663 32.5802 6.49614 32.4902 6.31565 32.3102C6.13517 32.1302 6.04492 31.9502 6.04492 31.6802V29.3402C6.04492 29.2502 6.04492 29.1602 6.13517 29.0702L7.57907 24.9302L9.1132 25.5602Z" fill="#3DA4C2"/>
<path d="M5.77344 5.21973H10.2856V6.92973H5.77344V5.21973Z" fill="#3DA4C2"/>
<path d="M13.1734 2.88037H5.77344V4.59037H13.1734V2.88037Z" fill="#3DA4C2"/>
<path d="M27.5268 3.78037V7.38037H25.8121V5.67037L19.7658 11.7904C19.495 12.1504 18.9536 12.1504 18.5926 11.7904L15.7048 8.91037L12.095 12.6004L10.9219 11.4304L15.1633 7.20037C15.4341 6.84037 16.0658 6.84037 16.3365 7.20037L19.2243 10.0804L24.6389 4.59037H22.9243V2.88037H26.6243C26.895 2.88037 27.0755 2.97037 27.256 3.15037C27.4365 3.33037 27.5268 3.60037 27.5268 3.78037Z" fill="#3DA4C2"/>
</g>
<defs>
<clipPath id="clip0_2553_5077">
<rect width="37" height="36" fill="white"/>
</clipPath>
</defs>
</svg>
