<svg width="48" height="48" viewBox="0 0 48 48" fill="none" xmlns="http://www.w3.org/2000/svg">
<rect x="0.5" y="0.5" width="47" height="47" rx="5.5" fill="#EBF5FF" stroke="#DFE9F2"/>
<path d="M17.7658 17.7658C17.646 18.7212 17.6499 19.688 17.7773 20.6424H26.7263C24.7359 18.8039 22.0774 17.6788 19.1606 17.6788C18.6883 17.6788 18.2228 17.7085 17.7658 17.7658ZM28.3532 22.5181H18.1952C18.5292 23.573 19.0187 24.5723 19.6475 25.4828H29.8052C29.4713 24.4278 28.9819 23.4286 28.3532 22.5181Z" fill="#0089FF"/>
<path d="M19.1606 40C24.1586 40 28.3997 36.6977 29.8167 32.1604C29.494 32.1844 29.1681 32.1969 28.8393 32.1969C21.6511 32.1969 15.8031 26.3489 15.8031 19.1606C15.8031 18.8319 15.8156 18.506 15.8396 18.1833C11.3023 19.6003 8 23.8414 8 28.8394C8 34.9933 13.0066 40 19.1606 40Z" fill="#0089FF"/>
<path d="M30.2228 27.3584H21.2747C23.265 29.1964 25.9231 30.3212 28.8394 30.3212C29.3117 30.3212 29.7772 30.2915 30.2342 30.2342C30.2922 29.7715 30.3213 29.3056 30.3213 28.8393C30.3213 28.3373 30.2873 27.8431 30.2228 27.3584Z" fill="#0089FF"/>
<path d="M28.8394 8C23.8414 8 19.6003 11.3023 18.1833 15.8396C18.5085 15.8153 18.8345 15.8032 19.1607 15.8031C26.3489 15.8031 32.1969 21.6511 32.1969 28.8394C32.1969 29.1681 32.1844 29.494 32.1604 29.8167C36.6977 28.3997 40 24.1586 40 19.1606C40.0001 13.0066 34.9934 8 28.8394 8Z" fill="#0089FF"/>
</svg>
