<svg width="45" height="45" viewBox="0 0 45 45" fill="none" xmlns="http://www.w3.org/2000/svg">
<path d="M39.345 28.1309C33.1385 34.3374 23.0757 34.3374 16.8691 28.1309C10.6625 21.9243 10.6625 11.8615 16.8691 5.65488C23.0757 -0.551644 33.1385 -0.551644 39.345 5.65488C45.5516 11.8615 45.5516 21.9243 39.345 28.1309Z" stroke="#3E96F4" stroke-width="2" stroke-miterlimit="10"/>
<path d="M11.2503 30.0038L14.9962 33.7498L5.74604 43L2 39.254L11.2503 30.0038Z" stroke="#3E96F4" stroke-width="2" stroke-miterlimit="10"/>
<path d="M16.8694 28.1309L13.1234 31.8768" stroke="#3E96F4" stroke-width="2" stroke-miterlimit="10"/>
<path d="M38.7023 16.8929C38.7023 16.8929 33.9587 22.1905 28.1071 22.1905C22.2556 22.1905 17.5118 16.8929 17.5118 16.8929C17.5118 16.8929 22.2556 11.5952 28.1071 11.5952C33.9587 11.5952 38.7023 16.8929 38.7023 16.8929Z" stroke="#3E96F4" stroke-width="2" stroke-miterlimit="10"/>
<path d="M30.7559 16.8929C30.7559 18.3558 29.57 19.5417 28.1071 19.5417C26.6442 19.5417 25.4583 18.3558 25.4583 16.8929C25.4583 15.4299 26.6442 14.2441 28.1071 14.2441C29.57 14.2441 30.7559 15.4299 30.7559 16.8929Z" stroke="#3E96F4" stroke-width="2" stroke-miterlimit="10"/>
</svg>
