<svg width="68" height="68" viewBox="0 0 68 68" fill="none" xmlns="http://www.w3.org/2000/svg">
<circle cx="32" cy="32" r="33" transform="matrix(1 0 0 -1 2 66)" fill="#3E96F4" stroke="white" stroke-width="2"/>
<path d="M36.5594 27.3387L44.8161 19.0681M24.6659 34.3455L31.809 30.768M24.9802 35.6746C24.9802 37.3137 23.6515 38.6424 22.0124 38.6424C20.3734 38.6424 19.0446 37.3137 19.0446 35.6746C19.0446 34.0354 20.3734 32.7068 22.0124 32.7068C23.6515 32.7068 24.9802 34.0354 24.9802 35.6746ZM37.4304 29.439C37.4304 31.0782 36.1015 32.4068 34.4626 32.4068C32.8234 32.4068 31.4947 31.0782 31.4947 29.439C31.4947 27.7999 32.8234 26.4712 34.4626 26.4712C36.1015 26.4712 37.4304 27.7999 37.4304 29.439ZM49.8805 16.9678C49.8805 18.6068 48.5517 19.9356 46.9127 19.9356C45.2735 19.9356 43.9448 18.6068 43.9448 16.9678C43.9448 15.3286 45.2735 14 46.9127 14C48.5517 14 49.8805 15.3286 49.8805 16.9678ZM25.2223 46.6599H18.8026C18.5898 46.6599 18.3857 46.7445 18.2351 46.895C18.0846 47.0455 18 47.2496 18 47.4625V54H26.0248V47.4625C26.0248 47.3571 26.0041 47.2527 25.9638 47.1553C25.9234 47.058 25.8643 46.9695 25.7898 46.895C25.7153 46.8204 25.6268 46.7613 25.5294 46.721C25.4321 46.6807 25.3277 46.6599 25.2223 46.6599ZM37.6724 40.4242H31.2528C31.04 40.4242 30.8358 40.5087 30.6852 40.6592C30.5347 40.8098 30.4501 41.0139 30.4501 41.2268V54H38.475V41.2268C38.475 41.0139 38.3904 40.8098 38.2399 40.6593C38.0894 40.5088 37.8853 40.4242 37.6724 40.4242ZM50.1225 27.8986H43.7029C43.49 27.8986 43.2859 27.9831 43.1354 28.1336C42.9848 28.2841 42.9002 28.4882 42.9001 28.7011V53.9999H50.9251V28.7011C50.9251 28.4882 50.8405 28.2841 50.69 28.1336C50.5394 27.9831 50.3353 27.8986 50.1225 27.8986Z" stroke="white" stroke-width="2" stroke-miterlimit="10" stroke-linecap="round" stroke-linejoin="round"/>
</svg>
