<svg width="21" height="20" viewBox="0 0 21 20" fill="none" xmlns="http://www.w3.org/2000/svg">
<path d="M4.4201 19.8905H15.4704C16.6426 19.8905 17.7669 19.4248 18.5958 18.5958C19.4248 17.7669 19.8905 16.6426 19.8905 15.4704V10.111C19.8905 9.81791 19.774 9.53684 19.5668 9.32961C19.3596 9.12238 19.0785 9.00596 18.7854 9.00596C18.4924 9.00596 18.2113 9.12238 18.0041 9.32961C17.7968 9.53684 17.6804 9.81791 17.6804 10.111V15.4704C17.6804 16.0565 17.4476 16.6186 17.0331 17.0331C16.6186 17.4476 16.0565 17.6804 15.4704 17.6804H4.4201C3.83396 17.6804 3.27182 17.4476 2.85736 17.0331C2.44289 16.6186 2.21005 16.0565 2.21005 15.4704V4.4201C2.21005 3.83396 2.44289 3.27182 2.85736 2.85736C3.27182 2.44289 3.83396 2.21005 4.4201 2.21005H9.94523C10.2383 2.21005 10.5194 2.09363 10.7266 1.8864C10.9338 1.67916 11.0503 1.3981 11.0503 1.10503C11.0503 0.811954 10.9338 0.530887 10.7266 0.323654C10.5194 0.116422 10.2383 0 9.94523 0H4.4201C3.24782 0 2.12355 0.465688 1.29462 1.29462C0.465688 2.12355 0 3.24782 0 4.4201V15.4704C0 16.6426 0.465688 17.7669 1.29462 18.5958C2.12355 19.4248 3.24782 19.8905 4.4201 19.8905Z" fill="#3E96F4"/>
<path d="M19.1044 1.42532L9.94371 10.597L6.30818 6.95045C6.1001 6.74237 5.81788 6.62547 5.52361 6.62547C5.22934 6.62547 4.94712 6.74237 4.73904 6.95045C4.53096 7.15853 4.41406 7.44074 4.41406 7.73501C4.41406 7.88072 4.44276 8.025 4.49852 8.15962C4.55428 8.29424 4.63601 8.41655 4.73904 8.51958L9.15914 12.9397C9.26187 13.0433 9.38409 13.1255 9.51874 13.1816C9.6534 13.2377 9.79783 13.2665 9.94371 13.2665C10.0896 13.2665 10.234 13.2377 10.3687 13.1816C10.5033 13.1255 10.6256 13.0433 10.7283 12.9397L20.6735 2.99446C20.8816 2.78638 20.9985 2.50416 20.9985 2.20989C20.9985 1.91562 20.8816 1.6334 20.6735 1.42532C20.4654 1.21724 20.1832 1.10034 19.8889 1.10034C19.5947 1.10034 19.3125 1.21724 19.1044 1.42532Z" fill="#3E96F4"/>
</svg>
