<svg width="17" height="20" viewBox="0 0 17 20" fill="none" xmlns="http://www.w3.org/2000/svg">
<path d="M3.55556 20H12.4444C13.3874 20 14.2918 19.6254 14.9586 18.9586C15.6254 18.2918 16 17.3874 16 16.4444V12.1333C16 11.8976 15.9064 11.6715 15.7397 11.5048C15.573 11.3381 15.3469 11.2444 15.1111 11.2444C14.8754 11.2444 14.6493 11.3381 14.4826 11.5048C14.3159 11.6715 14.2222 11.8976 14.2222 12.1333V16.4444C14.2222 16.9159 14.0349 17.3681 13.7015 17.7015C13.3681 18.0349 12.9159 18.2222 12.4444 18.2222H3.55556C3.08406 18.2222 2.63187 18.0349 2.29848 17.7015C1.96508 17.3681 1.77778 16.9159 1.77778 16.4444V7.55556C1.77778 7.08406 1.96508 6.63187 2.29848 6.29848C2.63187 5.96508 3.08406 5.77778 3.55556 5.77778H8C8.23575 5.77778 8.46184 5.68413 8.62854 5.51743C8.79524 5.35073 8.88889 5.12464 8.88889 4.88889C8.88889 4.65314 8.79524 4.42705 8.62854 4.26035C8.46184 4.09365 8.23575 4 8 4H3.55556C2.61256 4 1.70819 4.3746 1.0414 5.0414C0.374602 5.70819 0 6.61256 0 7.55556V16.4444C0 17.3874 0.374602 18.2918 1.0414 18.9586C1.70819 19.6254 2.61256 20 3.55556 20Z" fill="#99A8B5"/>
<path d="M15.3677 5.14667L7.99879 12.5244L5.07434 9.59111C4.90696 9.42373 4.67994 9.3297 4.44323 9.3297C4.20652 9.3297 3.9795 9.42373 3.81212 9.59111C3.64474 9.75849 3.5507 9.98551 3.5507 10.2222C3.5507 10.3394 3.57379 10.4555 3.61864 10.5638C3.6635 10.6721 3.72924 10.7705 3.81212 10.8533L7.36768 14.4089C7.45031 14.4922 7.54862 14.5583 7.65694 14.6035C7.76526 14.6486 7.88144 14.6718 7.99879 14.6718C8.11613 14.6718 8.23231 14.6486 8.34063 14.6035C8.44895 14.5583 8.54726 14.4922 8.6299 14.4089L16.6299 6.40889C16.7973 6.24151 16.8913 6.01449 16.8913 5.77778C16.8913 5.54107 16.7973 5.31405 16.6299 5.14667C16.4625 4.97929 16.2355 4.88525 15.9988 4.88525C15.7621 4.88525 15.5351 4.97929 15.3677 5.14667Z" fill="#99A8B5"/>
</svg>
