<svg width="14" height="14" viewBox="0 0 14 14" fill="none" xmlns="http://www.w3.org/2000/svg">
<path d="M7 0C3.13387 0 0 3.13414 0 7C0 10.8659 3.13387 14 7 14C10.8661 14 14 10.8661 14 7C14 3.13387 10.8661 0 7 0ZM10.9922 5.84117L6.78453 10.2596C6.66994 10.38 6.53223 10.4759 6.37967 10.5417C6.2271 10.6074 6.06282 10.6417 5.89668 10.6425H5.89094C5.72575 10.6425 5.56224 10.6093 5.41011 10.545C5.25797 10.4806 5.1203 10.3864 5.00527 10.2679L2.77238 7.9677C2.65703 7.8519 2.56582 7.71435 2.50405 7.56302C2.44228 7.4117 2.41118 7.24961 2.41256 7.08617C2.41393 6.92272 2.44776 6.76118 2.51207 6.61092C2.57638 6.46065 2.66989 6.32466 2.78718 6.21082C2.90448 6.09699 3.04321 6.00759 3.19533 5.9478C3.34745 5.88802 3.50993 5.85904 3.67334 5.86255C3.83675 5.86607 3.99784 5.902 4.14725 5.96827C4.29666 6.03454 4.43142 6.12982 4.54371 6.24859L5.88191 7.62727L9.20418 4.13875C9.31596 4.02135 9.44977 3.92711 9.59798 3.86142C9.74618 3.79574 9.90587 3.75988 10.0679 3.75591C10.23 3.75193 10.3912 3.77992 10.5425 3.83826C10.6937 3.89661 10.832 3.98417 10.9494 4.09596C11.0668 4.20774 11.161 4.34155 11.2267 4.48975C11.2924 4.63796 11.3283 4.79764 11.3322 4.9597C11.3362 5.12176 11.3082 5.28301 11.2499 5.43426C11.1915 5.5855 11.104 5.72377 10.9922 5.84117Z" fill="url(#paint0_linear_1_609)" fill-opacity="0.8"/>
<defs>
<linearGradient id="paint0_linear_1_609" x1="0" y1="7" x2="14" y2="7" gradientUnits="userSpaceOnUse">
<stop stop-color="#5B5B5B"/>
<stop offset="0.6" stop-color="#8E8E8E"/>
<stop offset="1" stop-color="#A1A1A1"/>
</linearGradient>
</defs>
</svg>
