<svg width="221" height="45" viewBox="0 0 221 45" fill="none" xmlns="http://www.w3.org/2000/svg">
<path d="M17.8072 44.6131C11.0875 44.6131 6.09532 41.1609 6.09532 32.9012V19.6775H0V12.5154C6.71968 10.7739 9.51955 4.99776 9.83874 0H16.8188V11.3535H24.9384V19.6775H16.8188V31.1933C16.8188 34.6456 18.5631 35.8383 21.335 35.8383H25.2716V44.6131H17.8072ZM42.7428 44.9995C46.5478 44.9995 50.9352 43.3532 53.3235 40.4189V44.6187H65.8697V37.4902H62.6778V11.3535H47.5166V18.6107H51.8396V31.1933C51.8396 32.1929 50.9996 36.4179 45.3215 36.4179C41.6816 36.4179 40.9985 34.2256 40.9985 31.4509V11.3535H29.8382V31.8905C29.8382 37.031 32.1621 44.9995 42.7428 44.9995ZM69.8707 44.6131H88.2154V37.4902H84.4832V25.0644C84.4832 23.2557 86.0315 19.5459 90.7437 19.5459C94.5487 19.5459 95.3243 21.8698 95.3243 24.6108V37.4902H91.6145V44.6215H109.839V37.4902H106.034V25.0644C106.034 23.2557 107.434 19.5459 112.163 19.5459C116.001 19.5459 116.936 21.8698 116.936 24.6108V37.4902H113.297V44.6215H131.426V37.4902H127.716V25.8708C127.716 19.0307 125.134 10.9671 114.943 10.9671C109.903 10.9671 105.782 13.3526 104.023 16.2868C101.831 12.9634 98.5078 10.9671 93.5408 10.9671C89.6042 10.9671 85.2812 12.647 82.9601 15.8388V11.3591H69.1847V18.6163H73.6561V37.4902H69.8707V44.6131ZM154.707 44.9995C163.997 44.9995 168.986 38.0306 168.986 27.5787C168.986 17.5468 164.341 10.9671 154.889 10.9671C151.568 10.9671 148.245 12.2242 146.245 13.7669V0H130.888V7.19286H135.343V44.6131H145.568V41.69C148.119 43.854 151.364 45.0286 154.709 44.9995H154.707ZM152.386 36.9023C149.127 36.9023 145.946 34.836 145.946 28.3207C145.946 20.481 149.723 19.0811 152.335 19.0811C155.367 19.0811 158.044 21.5338 158.044 27.6291C158.033 36.4179 154.096 36.7091 152.388 36.9023H152.386ZM170.999 44.6131H189.478V37.4902H185.558V0H170.333V7.19286H174.785V37.4902H171.01L170.999 44.6131ZM193.516 44.6131H211.69V37.4902H207.98V28.1919C207.98 21.8698 212.432 20.4838 215.819 20.4838H220.336V10.9643H216.696C212.566 10.9643 208.761 12.9634 207.05 16.158V11.3535H193.21V18.6107H197.211V37.4902H193.518L193.516 44.6131Z" fill="#001935"/>
</svg>
