<svg width="48" height="39" viewBox="0 0 48 39" fill="none" xmlns="http://www.w3.org/2000/svg">
<path d="M47.1938 4.54147C45.4583 5.3105 43.5939 5.83012 41.6339 6.06499C43.6334 4.86779 45.1673 2.96806 45.8906 0.706681C44.02 1.81659 41.9478 2.62303 39.7425 3.05536C37.9758 1.17642 35.4609 0 32.6757 0C27.3299 0 22.9942 4.3357 22.9942 9.68569C22.9942 10.4423 23.0815 11.178 23.2436 11.8889C15.1936 11.4836 8.0624 7.628 3.28607 1.77086C2.45468 3.20501 1.97663 4.86779 1.97663 6.63865C1.97663 9.99746 3.68721 12.9634 6.28323 14.699C4.69527 14.647 3.20293 14.2126 1.89765 13.4872V13.6119C1.89765 18.303 5.2336 22.2168 9.66491 23.1064C8.85014 23.3267 7.99589 23.4431 7.11462 23.4431C6.49108 23.4431 5.88208 23.3849 5.2918 23.2727C6.52433 27.1179 10.0993 29.9196 14.3373 29.9945C11.0222 32.5926 6.84649 34.141 2.31126 34.141C1.52976 34.141 0.758643 34.0953 0 34.0059C4.28581 36.7557 9.37392 38.3562 14.8403 38.3562C32.6528 38.3562 42.3905 23.6032 42.3905 10.8081C42.3905 10.3924 42.3801 9.97252 42.3614 9.55682C44.2528 8.18919 45.8948 6.48692 47.1897 4.5477L47.1938 4.54147Z" fill="#1D9BF0"/>
</svg>
