<svg width="69" height="69" viewBox="0 0 69 69" fill="none" xmlns="http://www.w3.org/2000/svg">
<path d="M63.7172 0H5.28281C2.37188 0 0 2.37188 0 5.28281V51.2109C0 54.1219 2.37188 56.4938 5.28281 56.4938H25.1203V62.5312H23.2875C20.3766 62.5312 17.8969 64.9031 17.8969 67.9219C17.8969 68.5687 18.3281 69 18.975 69H50.025C50.6719 69 51.1031 68.5687 51.1031 67.9219C51.1031 65.0109 48.7313 62.5312 45.7125 62.5312H43.8797V56.3859H63.7172C66.6281 56.3859 69 54.0141 69 51.1031V5.28281C69 2.37188 66.6281 0 63.7172 0ZM5.28281 2.15625H63.825C65.4422 2.15625 66.8438 3.55781 66.8438 5.28281V47.0062H2.15625V5.28281C2.15625 3.55781 3.55781 2.15625 5.28281 2.15625ZM48.7313 66.8438H20.2687C20.7 65.6578 21.8859 64.6875 23.2875 64.6875H45.7125C47.1141 64.6875 48.3 65.6578 48.7313 66.8438ZM41.7234 62.5312H27.2766V56.3859H41.7234V62.5312ZM63.7172 54.2297H5.28281C3.55781 54.2297 2.15625 52.8281 2.15625 51.1031V49.0547H66.8438V51.1031C66.8438 52.9359 65.4422 54.2297 63.7172 54.2297Z" fill="url(#paint0_linear_2_997)"/>
<path d="M8.40898 14.4472H12.6137C12.9371 14.4472 13.1527 14.3394 13.3684 14.1237L17.2496 10.4581L19.0824 17.4659C19.1902 17.7894 19.5137 18.1128 19.8371 18.2206C20.2684 18.3284 20.5918 18.2206 20.9152 18.005L25.9824 13.1534H29.8637C30.5105 13.1534 30.9418 12.7222 30.9418 12.0753C30.9418 11.4284 30.5105 10.9972 29.8637 10.9972H25.5512C25.2277 10.9972 25.0121 11.105 24.7965 11.3206L20.6996 15.094L18.8668 8.08623C18.759 7.76279 18.4355 7.43935 18.1121 7.33154C17.7887 7.22373 17.3574 7.33154 17.034 7.54717L12.1824 12.1831H8.40898C7.76211 12.1831 7.33086 12.6144 7.33086 13.2612C7.33086 13.9081 7.76211 14.4472 8.40898 14.4472ZM38.0574 21.455L40.9684 22.4253C41.0762 22.7487 41.184 22.9644 41.2918 23.18L39.8902 25.9831C39.6746 26.4144 39.7824 26.8456 40.1059 27.169L41.5074 28.5706C41.8309 28.894 42.3699 29.0019 42.6934 28.7862L45.4965 27.3847C45.7121 27.4925 46.0355 27.6003 46.2512 27.7081L47.2215 30.619C47.3293 31.0503 47.7605 31.3737 48.1918 31.3737H50.1324C50.5637 31.3737 50.9949 31.0503 51.1027 30.619L52.073 27.7081C52.3965 27.6003 52.6121 27.4925 52.9355 27.3847L55.7387 28.7862C56.1699 29.0019 56.6012 28.894 56.9246 28.5706L58.3262 27.169C58.6496 26.8456 58.7574 26.3065 58.5418 25.9831L57.1402 23.18C57.248 22.9644 57.3559 22.6409 57.4637 22.3175L60.3746 21.3472C60.8059 21.2394 61.1293 20.8081 61.1293 20.3769V18.4362C61.1293 18.005 60.8059 17.5737 60.3746 17.4659L57.4637 16.4956C57.3559 16.1722 57.248 15.9565 57.1402 15.6331L58.5418 12.83C58.7574 12.3987 58.6496 11.9675 58.3262 11.644L56.9246 10.2425C56.6012 9.91904 56.0621 9.81123 55.7387 10.0269L52.9355 11.4284C52.7199 11.3206 52.3965 11.2128 52.1809 11.105L51.2105 8.19404C51.1027 7.76279 50.6715 7.43935 50.2402 7.43935H48.5152C48.084 7.43935 47.6527 7.76279 47.5449 8.19404L46.4668 11.105C46.1434 11.2128 45.9277 11.3206 45.7121 11.4284L42.909 10.0269C42.4777 9.81123 42.0465 9.91904 41.723 10.2425L40.3215 11.644C39.998 11.9675 39.8902 12.5065 40.1059 12.83L41.5074 15.6331C41.3996 15.8487 41.2918 16.1722 41.184 16.3878L38.273 17.3581C37.8418 17.4659 37.5184 17.8972 37.5184 18.3284V20.4847C37.4105 20.9159 37.6262 21.3472 38.0574 21.455ZM39.5668 19.1909L42.2621 18.2206C42.5855 18.1128 42.909 17.7894 42.909 17.4659C43.0168 17.0347 43.2324 16.4956 43.448 16.0644C43.6637 15.7409 43.6637 15.4175 43.448 15.094L42.1543 12.5065L42.4777 12.1831L45.0652 13.4769C45.3887 13.5847 45.7121 13.5847 46.0355 13.4769C46.4668 13.2612 46.898 13.0456 47.4371 12.9378C47.7605 12.83 48.084 12.6144 48.1918 12.2909L49.1621 9.48779H49.5934L50.5637 12.1831C50.6715 12.5065 50.9949 12.83 51.3184 12.83C51.7496 12.9378 52.2887 13.1534 52.7199 13.369C53.0434 13.5847 53.3668 13.5847 53.6902 13.369L56.2777 12.0753L56.6012 12.3987L55.3074 14.9862C55.1996 15.3097 55.1996 15.6331 55.3074 15.9565C55.523 16.3878 55.7387 16.819 55.8465 17.3581C55.9543 17.6815 56.1699 18.005 56.4934 18.1128L59.1887 19.0831V19.5144L56.4934 20.4847C56.1699 20.5925 55.8465 20.9159 55.8465 21.2394C55.7387 21.7784 55.523 22.2097 55.3074 22.6409C55.0918 22.9644 55.0918 23.2878 55.3074 23.6112L56.6012 26.1987L56.2777 26.5222L53.6902 25.2284C53.3668 25.1206 53.0434 25.1206 52.7199 25.2284C52.2887 25.444 51.8574 25.6597 51.3184 25.7675C50.9949 25.8753 50.6715 26.0909 50.5637 26.4144L49.5934 29.1097H49.1621L48.1918 26.4144C48.084 26.0909 47.7605 25.8753 47.4371 25.7675C46.898 25.6597 46.4668 25.444 46.0355 25.2284C45.7121 25.0128 45.3887 25.0128 45.0652 25.2284L42.4777 26.5222L42.1543 26.1987L43.448 23.6112C43.5559 23.2878 43.5559 22.9644 43.448 22.6409C43.2324 22.2097 43.0168 21.7784 42.909 21.2394C42.8012 20.9159 42.5855 20.5925 42.2621 20.4847L39.5668 19.5144V19.1909Z" fill="url(#paint1_linear_2_997)"/>
<path d="M49.5934 23.611C51.8574 23.611 53.6902 21.7782 53.6902 19.5142C53.6902 17.2501 51.7496 15.4173 49.5934 15.4173C47.4371 15.4173 45.4965 17.2501 45.4965 19.5142C45.4965 21.7782 47.3293 23.611 49.5934 23.611ZM49.5934 17.5735C50.6715 17.5735 51.534 18.436 51.534 19.5142C51.534 20.5923 50.6715 21.4548 49.5934 21.4548C48.5152 21.4548 47.6527 20.5923 47.6527 19.5142C47.6527 18.436 48.5152 17.5735 49.5934 17.5735ZM8.40898 41.8314H13.3684C14.0152 41.8314 14.4465 41.4001 14.4465 40.7532V30.9423C14.4465 30.2954 14.0152 29.8642 13.3684 29.8642H8.40898C7.76211 29.8642 7.33086 30.2954 7.33086 30.9423V40.7532C7.33086 41.4001 7.76211 41.8314 8.40898 41.8314ZM9.48711 32.0204H12.2902V39.6751H9.48711V32.0204ZM22.748 24.4735H17.7887C17.1418 24.4735 16.7105 24.9048 16.7105 25.5517V40.7532C16.7105 41.4001 17.1418 41.8314 17.7887 41.8314H22.748C23.3949 41.8314 23.8262 41.4001 23.8262 40.7532V25.5517C23.8262 25.0126 23.3949 24.4735 22.748 24.4735ZM21.6699 39.6751H18.8668V26.6298H21.6699V39.6751ZM25.9824 20.161V40.7532C25.9824 41.4001 26.4137 41.8314 27.0605 41.8314H32.0199C32.6668 41.8314 33.098 41.4001 33.098 40.7532V20.161C33.098 19.5142 32.6668 19.0829 32.0199 19.0829H27.0605C26.5215 19.0829 25.9824 19.5142 25.9824 20.161ZM28.1387 21.2392H30.9418V39.6751H28.1387V21.2392ZM60.5902 34.8235H43.1246C42.4777 34.8235 42.0465 35.2548 42.0465 35.9017C42.0465 36.5485 42.4777 36.9798 43.1246 36.9798H60.698C61.3449 36.9798 61.7762 36.5485 61.7762 35.9017C61.7762 35.2548 61.2371 34.8235 60.5902 34.8235ZM60.5902 39.6751H43.1246C42.4777 39.6751 42.0465 40.1064 42.0465 40.7532C42.0465 41.4001 42.4777 41.8314 43.1246 41.8314H60.698C61.3449 41.8314 61.7762 41.4001 61.7762 40.7532C61.7762 40.1064 61.2371 39.6751 60.5902 39.6751Z" fill="url(#paint2_linear_2_997)"/>
<defs>
<linearGradient id="paint0_linear_2_997" x1="0" y1="0" x2="69.9443" y2="68.2632" gradientUnits="userSpaceOnUse">
<stop stop-color="#3E96F4"/>
<stop offset="1" stop-color="#FE5B52"/>
</linearGradient>
<linearGradient id="paint1_linear_2_997" x1="7.33086" y1="7.28925" x2="25.8406" y2="47.6414" gradientUnits="userSpaceOnUse">
<stop stop-color="#3E96F4"/>
<stop offset="1" stop-color="#FE5B52"/>
</linearGradient>
<linearGradient id="paint2_linear_2_997" x1="7.33086" y1="15.4173" x2="28.6826" y2="58.3704" gradientUnits="userSpaceOnUse">
<stop stop-color="#3E96F4"/>
<stop offset="1" stop-color="#FE5B52"/>
</linearGradient>
</defs>
</svg>
