<svg width="56" height="56" viewBox="0 0 56 56" fill="none" xmlns="http://www.w3.org/2000/svg">
<path d="M3.86469e-06 27.9644C0.0160826 12.5001 12.5724 -0.0195014 28.039 2.28048e-05C43.5056 0.019547 56.0206 12.5725 56 28.0368C55.9793 43.5011 43.4505 56 28 56C12.5276 55.992 -0.00803551 43.4413 3.86469e-06 27.969V27.9644ZM27.4326 37.5519C25.2604 37.6154 23.0884 37.4207 20.9621 36.972C20.1889 36.8144 19.4646 36.4742 18.8496 35.9797C18.2347 35.4852 17.7469 34.8508 17.4271 34.1295C16.7939 32.6694 16.4876 30.4176 16.5083 27.3741C16.5199 25.7837 16.6196 24.1952 16.8069 22.6159C16.9891 21.0777 17.1713 19.8102 17.3536 18.8133L17.5454 17.8222C17.5477 17.7931 17.5477 17.7639 17.5454 17.7349C17.5449 17.601 17.4977 17.4716 17.412 17.3688C17.3262 17.266 17.2072 17.1965 17.0756 17.1721L13.4637 16.6094H13.3856C13.2578 16.6106 13.1341 16.6544 13.034 16.7339C12.934 16.8134 12.8633 16.9239 12.8331 17.0481C12.7711 17.2778 12.7355 17.4512 12.6276 18.0025C12.4208 19.066 12.2302 20.1031 12.0177 21.6156C11.795 23.2584 11.6593 24.9119 11.6112 26.569C11.5319 27.7234 11.5319 28.8819 11.6112 30.0363C11.6961 33.0989 12.2221 35.5467 13.1892 37.3797C14.1562 39.2126 15.7939 40.5303 18.1024 41.3327C20.4108 42.1374 23.6266 42.5314 27.7496 42.5145H28.2687C32.3964 42.5314 35.6121 42.1374 37.916 41.3327C40.2198 40.528 41.8576 39.2103 42.8292 37.3797C43.7962 35.5467 44.3226 33.0989 44.4083 30.0363C44.4864 28.8818 44.4864 27.7234 44.4083 26.569C44.3598 24.9118 44.2237 23.2584 44.0006 21.6156C43.7893 20.1226 43.5975 19.0889 43.3919 18.0025C43.2771 17.4512 43.2472 17.2801 43.1852 17.0481C43.1562 16.9233 43.0858 16.8121 42.9855 16.7324C42.8852 16.6528 42.7609 16.6094 42.6328 16.6094H42.5398L38.9278 17.1721C38.7947 17.1942 38.6739 17.263 38.587 17.3662C38.5001 17.4693 38.4527 17.6 38.4535 17.7349C38.4512 17.7639 38.4512 17.7931 38.4535 17.8222L38.6441 18.8133C38.8263 19.8133 39.0105 21.0808 39.1965 22.6159C39.3812 24.1954 39.4794 25.7839 39.4906 27.3741C39.5212 30.4122 39.2149 32.6621 38.5718 34.1237C38.2545 34.844 37.7699 35.4782 37.1582 35.9736C36.5466 36.4689 35.8256 36.8112 35.0551 36.972C32.9305 37.4218 30.76 37.6177 28.5892 37.5554L27.4326 37.5519Z" fill="#CA9B2C"/>
</svg>
