<svg width="409" height="389" viewBox="0 0 409 389" fill="none" xmlns="http://www.w3.org/2000/svg">
<path d="M59.8443 187.325C-19.9526 233.39 -19.9436 308.075 59.8443 354.15C139.632 400.224 268.998 400.179 348.795 354.15C428.592 308.12 428.583 233.39 348.795 187.325C269.007 141.259 139.641 141.25 59.8443 187.325Z" fill="#F2F6F7"/>
<path d="M174.999 373.401C196.287 373.401 213.545 363.439 213.545 351.15C213.545 338.861 196.287 328.898 174.999 328.898C153.71 328.898 136.452 338.861 136.452 351.15C136.452 363.439 153.71 373.401 174.999 373.401Z" fill="#E0E0E0"/>
<path d="M239.569 357.402C262.401 357.402 280.909 346.716 280.909 333.534C280.909 320.352 262.401 309.665 239.569 309.665C216.738 309.665 198.229 320.352 198.229 333.534C198.229 346.716 216.738 357.402 239.569 357.402Z" fill="#E0E0E0"/>
<path d="M73.3999 369.745L145.885 259.675L96.9895 231.441L24.5049 341.511L73.3999 369.745Z" fill="#3D96F5"/>
<path opacity="0.2" d="M73.3999 369.745L145.885 259.675L96.9895 231.441L24.5049 341.511L73.3999 369.745Z" fill="white"/>
<path d="M145.885 259.675L73.3999 369.745L102.73 352.802L155.595 272.844L145.885 259.675Z" fill="#3D96F5"/>
<path opacity="0.2" d="M145.885 259.675L73.3999 369.745L102.73 352.802L155.595 272.844L145.885 259.675Z" fill="black"/>
<path d="M277.424 21.0026L282.212 42.4452L301.903 53.9616L297.007 32.3123L277.424 21.0026Z" fill="#3D96F5"/>
<path opacity="0.2" d="M277.424 21.0026L282.212 42.4452L301.903 53.9616L297.007 32.3123L277.424 21.0026Z" fill="black"/>
<path d="M234.979 126.743L297.007 32.3122L277.424 21.0025L351.876 0L365.432 71.8109L345.902 60.5371L283.874 154.967L234.979 126.743Z" fill="#3D96F5"/>
<path opacity="0.2" d="M234.979 126.743L297.007 32.3122L277.424 21.0025L351.876 0L365.432 71.8109L345.902 60.5371L283.874 154.967L234.979 126.743Z" fill="white"/>
<path d="M345.902 60.5371L283.901 154.967L294.878 167.445L350.87 82.2313L370.354 93.4871L365.432 71.8109L345.902 60.5371Z" fill="#3D96F5"/>
<path opacity="0.2" d="M345.902 60.5371L283.901 154.967L294.878 167.445L350.87 82.2313L370.354 93.4871L365.432 71.8109L345.902 60.5371Z" fill="black"/>
<path d="M245.956 139.31L234.979 126.832L283.901 154.967L294.878 167.445L245.956 139.31Z" fill="#3D96F5"/>
<path opacity="0.4" d="M245.956 139.31L234.979 126.832L283.901 154.967L294.878 167.445L245.956 139.31Z" fill="black"/>
<path opacity="0.2" d="M350.87 82.2313L345.902 60.5371L365.432 71.8109L370.354 93.4871L350.87 82.2313Z" fill="black"/>
<path d="M275.214 311.803C275.214 316.996 275.214 324.021 275.214 328.485C275.214 329.455 275.214 330.659 275.214 332.249C274.505 336.92 271.046 341.493 264.848 345.068C250.834 353.153 228.116 353.153 214.102 345.068C206.916 340.9 203.376 335.384 203.61 329.922C203.61 329.455 203.7 328.97 203.754 328.467C203.754 328.467 203.754 328.467 203.754 328.413C204.365 323.104 204.796 317.786 205.092 312.801C205.568 304.887 205.505 301.401 205.443 297.143C205.362 291.888 203.179 287.765 197.636 283.102C192.094 278.44 181.071 262.504 181.071 262.504L254.167 224.928L274.945 290.756C274.945 290.756 275.214 306.611 275.214 311.803Z" fill="#FFA8A7"/>
<path d="M254.733 211.292C254.733 211.292 253.358 216.825 246.828 209.495C240.297 202.165 229.607 190.972 218.342 180.201C212.952 175.036 191.321 157.644 176.813 144.493C172.187 139.723 165.62 136.408 161.102 139.858C156.583 143.307 156.61 151.85 159.422 156.072C161.937 159.818 167.327 165.011 171.442 168.739C171.442 168.963 171.397 169.188 171.37 169.412C170.588 176.212 169.196 183.857 168.54 192.095C168.145 197.008 162.252 203.189 162.306 208.264C164.048 215.451 173.562 223.149 180.272 228.521C186.982 233.893 189.929 236.076 189.857 237.774C189.74 240.37 178.844 230.92 174.002 227.596C174.271 243.02 164.408 244.879 164.408 244.879C165.89 247.844 174.289 254.383 186.246 269.682C190.962 275.727 238.968 235.986 238.968 235.986L250.367 228.665L258.389 215.397L254.733 211.292Z" fill="#FFA8A7"/>
<path d="M250.753 224.901C246.262 230.56 228.556 248.616 242.48 272.556C241.519 271.663 240.646 270.68 239.875 269.619C237.881 266.966 236.303 264.024 235.195 260.896C235.15 260.78 235.114 260.672 235.078 260.555C231.916 251.446 232.994 242.167 238.896 234.333C243.54 228.18 251.993 222.197 253.125 215.559C253.125 215.316 253.188 215.074 253.206 214.84C253.403 216.924 253.637 221.29 250.753 224.901Z" fill="#F28F8F"/>
<path opacity="0.5" d="M158.506 143.262C156.709 147.323 157.257 152.91 159.404 156.072C161.919 159.818 167.309 165.011 171.423 168.739L171.37 169.278C173.166 170.832 175.133 172.484 177.271 174.371C182.428 178.907 189.246 184.764 194.393 189.31C196.971 191.583 209.215 201.437 213.662 205.399C206.826 197.898 191.465 184.288 183.739 176.653C177.909 170.912 169.303 162.9 166.51 159.702C163.716 156.504 162.072 154.312 161.12 153.126C160.033 151.748 159.24 150.162 158.791 148.465C158.341 146.769 158.244 144.998 158.506 143.262Z" fill="#F28F8F"/>
<path d="M171.639 251.509C172.99 251.326 174.288 250.869 175.455 250.164C176.622 249.459 177.631 248.523 178.421 247.413C180.218 244.421 180.568 242.095 180.083 237.423C179.838 235.241 179.396 233.085 178.763 230.983C177.164 229.833 175.493 228.593 174.011 227.578C174.28 243.002 164.417 244.861 164.417 244.861C165.09 246.2 167.183 248.284 170.381 251.581C170.804 251.572 171.217 251.545 171.639 251.509Z" fill="#F28F8F"/>
<path d="M163.743 189.184C163.357 189.534 168.818 194.799 169.393 195.113C171.415 196.245 175.277 194.844 176.948 193.442C177.991 192.533 178.802 191.387 179.311 190.1C181.107 185.789 180.209 180.857 179.311 176.266C179.288 175.899 179.188 175.541 179.016 175.216C178.844 174.89 178.604 174.605 178.314 174.38C178.206 176.787 176.086 177.83 174.523 179.276L170.031 183.399L163.743 189.184Z" fill="#F28F8F"/>
<path d="M176.158 192.005L204.742 220.859L171.37 192.885L176.158 192.005Z" fill="#F28F8F"/>
<path d="M172.25 216.663C173.634 216.206 174.897 215.44 175.942 214.424C176.988 213.408 177.79 212.168 178.287 210.797C179.104 208.453 178.969 205.902 178.808 203.422C178.782 201.31 178.424 199.216 177.748 197.215L164.381 201.76C163.213 203.997 162.27 206.252 162.306 208.246C163.015 211.166 164.875 214.121 167.489 216.96C169.078 217.231 170.707 217.129 172.25 216.663Z" fill="#F28F8F"/>
<path d="M168.693 168.532C174.568 167.993 177.676 170.571 178.969 175.844C179.504 178.842 179.504 181.911 178.969 184.908C178.412 188.825 174.711 193.523 169.932 192.822H169.699C161.973 191.565 161.102 187.432 161.102 180.722C161.102 174.012 163.464 169.008 168.693 168.532Z" fill="#FFA8A7"/>
<path opacity="0.5" d="M175.628 170.086C176.059 170.454 178.547 172.898 178.574 179.653C178.574 187.037 174.891 188.564 170.795 189.229C166.698 189.894 161.201 187.334 161.201 183.686C161.551 188.654 163.195 191.771 169.708 192.831H169.941C174.72 193.532 178.421 188.834 178.978 184.917C179.513 181.919 179.513 178.851 178.978 175.853C178.556 173.603 177.373 171.567 175.628 170.086Z" fill="#F28F8F"/>
<path d="M168.827 192.077C174.217 191.583 177.011 193.936 178.215 198.751C178.698 201.491 178.698 204.294 178.215 207.034C177.712 210.627 174.316 214.903 169.959 214.22H169.744C162.692 213.07 161.892 209.279 161.892 203.171C161.892 197.062 164.048 192.508 168.827 192.077Z" fill="#FFA8A7"/>
<path opacity="0.5" d="M176.31 194.619C177.065 195.742 177.613 198.509 177.209 202.704C176.625 208.192 175.412 210.851 170.66 211.202C165.692 211.552 162.638 209.252 162.108 206.836C162.584 210.824 164.264 213.349 169.789 214.247H170.004C174.361 214.894 177.757 210.654 178.26 207.061C178.743 204.321 178.743 201.518 178.26 198.778C177.919 197.267 177.254 195.848 176.31 194.619Z" fill="#F28F8F"/>
<path d="M169.115 225.278C174.684 224.775 178.852 227.416 178.852 232.213V240.81C178.858 241.89 178.63 242.958 178.187 243.943C177.743 244.928 177.092 245.805 176.28 246.516C175.467 247.228 174.511 247.756 173.476 248.066C172.442 248.375 171.352 248.459 170.283 248.311H170.067C162.746 247.116 162.836 240.433 162.746 236.92C162.656 233.408 164.156 225.736 169.115 225.278Z" fill="#FFA8A7"/>
<path opacity="0.5" d="M176.14 226.805C178.574 229.348 177.622 234.531 177.442 239.642C177.307 243.191 175.466 246.128 170.615 246.128C165.764 246.128 163.59 243.173 162.935 240.271C163.339 243.622 164.731 247.404 170.067 248.275H170.283C171.352 248.423 172.442 248.339 173.476 248.03C174.511 247.72 175.467 247.192 176.28 246.481C177.092 245.769 177.743 244.892 178.187 243.907C178.63 242.923 178.858 241.854 178.853 240.774V232.195C178.884 231.142 178.653 230.098 178.179 229.156C177.706 228.215 177.005 227.407 176.14 226.805Z" fill="#F28F8F"/>
<path d="M107.365 223.589L227.191 132.734L276.122 160.959L156.26 251.814L107.365 223.589Z" fill="#3D96F5"/>
<path d="M276.122 160.959L287.099 173.446L165.971 264.993L156.26 251.814L276.122 160.959Z" fill="#3D96F5"/>
<path opacity="0.2" d="M276.122 160.959L287.099 173.446L165.971 264.993L156.26 251.814L276.122 160.959Z" fill="black"/>
<path d="M107.365 223.589L117.076 236.759L165.971 264.993L156.26 251.814L107.365 223.589Z" fill="#3D96F5"/>
<path opacity="0.4" d="M107.365 223.589L117.076 236.759L165.971 264.993L156.26 251.814L107.365 223.589Z" fill="black"/>
<path d="M274.954 290.738C274.982 275.83 275.994 260.939 277.981 246.164C280.092 231.423 279.679 218.81 279.041 215.244C278.403 211.678 278.206 206.504 272.708 199.928C270.121 196.829 264.435 192.319 259.692 186.75C254.949 181.18 250.448 174.892 247.915 171.478C245.382 168.065 239.102 173.554 239.408 184.432C239.659 193.316 245.696 201.087 248.076 204.41C250.942 208.462 252.972 212.379 253.197 214.822C253.394 216.888 253.628 221.272 250.735 224.901C246.244 230.551 228.547 248.607 242.471 272.511V294.475L274.954 290.738Z" fill="#FFA8A7"/>
<path d="M249.064 178.135C249.064 178.135 254.454 185.456 256.188 186.399C257.922 187.343 258.407 185.196 258.407 185.196C255.928 181.71 251.301 175.368 247.933 171.496C248.896 173.568 249.287 175.861 249.064 178.135Z" fill="#FFA8A7"/>
<path opacity="0.6" d="M249.064 178.135C249.064 178.135 254.454 185.456 256.188 186.399C257.922 187.343 258.407 185.196 258.407 185.196C255.928 181.71 251.301 175.368 247.933 171.496C248.896 173.568 249.287 175.861 249.064 178.135Z" fill="white"/>
<path d="M258.407 185.196C258.165 184.804 257.898 184.429 257.607 184.073C257.691 184.543 257.641 185.027 257.463 185.47C257.285 185.913 256.987 186.297 256.601 186.579C258.012 186.992 258.407 185.196 258.407 185.196Z" fill="#F28F8F"/>
<path d="M205.398 342.822C203.482 339.842 200.839 337.4 197.717 335.726C185.141 328.485 164.821 328.485 152.271 335.726C149.15 337.397 146.509 339.84 144.6 342.822H142.866V349.389C143.1 353.952 146.226 358.48 152.253 361.965C164.83 369.206 185.15 369.206 197.699 361.965C203.736 358.48 206.88 353.952 207.113 349.389V342.822H205.398Z" fill="#3D96F5"/>
<path opacity="0.25" d="M205.398 342.822C203.482 339.842 200.839 337.4 197.717 335.726C185.141 328.485 164.821 328.485 152.271 335.726C149.15 337.397 146.509 339.84 144.6 342.822H142.866V349.389C143.1 353.952 146.226 358.48 152.253 361.965C164.83 369.206 185.15 369.206 197.699 361.965C203.736 358.48 206.88 353.952 207.113 349.389V342.822H205.398Z" fill="black"/>
<path opacity="0.1" d="M174.999 330.291C166.77 330.291 158.551 332.087 152.271 335.726C149.15 337.397 146.509 339.84 144.6 342.822H142.866V349.389C143.1 353.952 146.226 358.48 152.253 361.965C158.542 365.558 166.752 367.4 174.981 367.4L174.999 330.291Z" fill="black"/>
<path opacity="0.1" d="M157.446 333.309C155.657 333.97 153.927 334.779 152.271 335.725C149.15 337.397 146.509 339.84 144.6 342.822H142.866V349.389C143.1 353.952 146.226 358.48 152.253 361.965C153.909 362.912 155.639 363.72 157.428 364.382L157.446 333.309Z" fill="black"/>
<path opacity="0.5" d="M192.543 333.309C194.331 333.97 196.062 334.779 197.717 335.725C200.839 337.4 203.482 339.842 205.397 342.822H207.131V349.389C206.898 353.952 203.754 358.48 197.717 361.965C196.062 362.912 194.331 363.72 192.543 364.382V333.309Z" fill="#3D96F5"/>
<path d="M152.271 329.707C139.695 336.956 139.695 348.706 152.271 355.946C163.258 362.289 180.2 363.079 192.695 358.327L193.189 358.129C194.755 357.511 196.274 356.781 197.735 355.946C208.2 349.901 209.943 340.729 202.945 333.65C201.392 332.109 199.64 330.783 197.735 329.707C185.168 322.466 164.794 322.466 152.271 329.707Z" fill="#3D96F5"/>
<path opacity="0.2" d="M152.271 329.707C139.695 336.956 139.695 348.706 152.271 355.946C163.258 362.289 180.2 363.079 192.695 358.327L193.189 358.129C194.755 357.511 196.274 356.781 197.735 355.946C208.2 349.901 209.943 340.729 202.945 333.65C201.392 332.109 199.64 330.783 197.735 329.707C185.168 322.466 164.794 322.466 152.271 329.707Z" fill="black"/>
<path opacity="0.5" d="M202.927 333.65C204.293 335.195 205.303 337.02 205.885 338.998C206.467 340.976 206.607 343.057 206.296 345.095C205.182 351.473 196.253 356.845 193.172 358.129C194.737 357.511 196.256 356.781 197.717 355.947C208.182 349.874 209.925 340.729 202.927 333.65Z" fill="#F5F5F5"/>
<path opacity="0.5" d="M147.061 352.003C145.694 350.46 144.685 348.634 144.104 346.656C143.523 344.678 143.386 342.596 143.702 340.558C144.815 334.18 153.745 328.817 156.817 327.524C155.252 328.144 153.734 328.874 152.271 329.707C141.806 335.752 140.072 344.924 147.061 352.003Z" fill="#F5F5F5"/>
<path d="M196.127 354.994C207.805 348.266 207.805 337.342 196.127 330.605C184.449 323.868 165.584 323.877 153.906 330.605C142.228 337.333 142.228 348.266 153.906 354.994C165.584 361.723 184.467 361.732 196.127 354.994Z" fill="#3D96F5"/>
<path opacity="0.4" d="M196.127 354.994C207.805 348.266 207.805 337.342 196.127 330.605C184.449 323.868 165.584 323.877 153.906 330.605C142.228 337.333 142.228 348.266 153.906 354.994C165.584 361.723 184.467 361.732 196.127 354.994Z" fill="white"/>
<path opacity="0.2" d="M203.52 347.951C205.919 343.514 205.137 338.627 201.175 334.477C200.395 333.667 199.548 332.925 198.642 332.258C197.87 331.679 197.063 331.148 196.226 330.668C195.75 330.38 195.265 330.12 194.753 329.868C196.001 331.908 195.543 334.099 188.509 334.513C174.738 335.312 192.183 348.472 192.183 348.472C192.183 348.472 201.059 344.187 203.52 347.951Z" fill="white"/>
<path opacity="0.5" d="M202.101 344.313C204.167 344.08 205.191 341.96 204.391 339.57C203.592 337.181 201.256 335.429 199.19 335.663C197.124 335.896 196.1 338.016 196.909 340.406C197.717 342.795 200.035 344.547 202.101 344.313Z" fill="white"/>
<path d="M180.326 355.264C179.643 350.152 157.302 335.995 157.302 335.995C157.302 335.995 152.343 334.01 153.987 330.542C153.163 331.012 152.365 331.528 151.598 332.087C151.077 332.456 150.601 332.842 150.142 333.237C143.495 338.995 143.486 346.568 150.142 352.335C150.592 352.721 151.041 353.108 151.589 353.485C152.3 354.006 153.041 354.486 153.808 354.922C154.573 355.376 155.362 355.79 156.17 356.162C156.826 356.476 157.5 356.764 158.182 357.06C158.865 357.357 159.566 357.581 160.284 357.815C162.46 358.525 164.689 359.06 166.95 359.414L168.45 359.638C170.661 359.921 172.887 360.059 175.116 360.052C177.848 360.052 180.576 359.83 183.272 359.387C183.272 359.387 179.688 358.641 180.326 355.264Z" fill="#3D96F5"/>
<path opacity="0.3" d="M180.326 355.264C179.643 350.152 157.302 335.995 157.302 335.995C157.302 335.995 152.343 334.01 153.987 330.542C153.163 331.012 152.365 331.528 151.598 332.087C151.077 332.456 150.601 332.842 150.142 333.237C143.495 338.995 143.486 346.568 150.142 352.335C150.592 352.721 151.041 353.108 151.589 353.485C152.3 354.006 153.041 354.486 153.808 354.922C154.573 355.376 155.362 355.79 156.17 356.162C156.826 356.476 157.5 356.764 158.182 357.06C158.865 357.357 159.566 357.581 160.284 357.815C162.46 358.525 164.689 359.06 166.95 359.414L168.45 359.638C170.661 359.921 172.887 360.059 175.116 360.052C177.848 360.052 180.576 359.83 183.272 359.387C183.272 359.387 179.688 358.641 180.326 355.264Z" fill="white"/>
<path d="M159.26 333.704C150.924 338.519 150.583 346.2 158.245 351.248C158.569 351.464 158.91 351.671 159.26 351.877C167.956 356.899 182.041 356.899 190.701 351.877C199.361 346.856 199.397 338.726 190.701 333.704L189.605 333.12C180.901 328.71 167.597 328.907 159.26 333.704Z" fill="#3D96F5"/>
<path opacity="0.2" d="M159.26 333.704C150.924 338.519 150.583 346.2 158.245 351.248C158.569 351.464 158.91 351.671 159.26 351.877C167.956 356.899 182.041 356.899 190.701 351.877C199.361 346.856 199.397 338.726 190.701 333.704L189.605 333.12C180.901 328.71 167.597 328.907 159.26 333.704Z" fill="black"/>
<path d="M175.008 355.075C186.756 355.075 196.28 349.577 196.28 342.795C196.28 336.013 186.756 330.515 175.008 330.515C163.259 330.515 153.736 336.013 153.736 342.795C153.736 349.577 163.259 355.075 175.008 355.075Z" fill="#3D96F5"/>
<path opacity="0.5" d="M175.008 355.075C186.756 355.075 196.28 349.577 196.28 342.795C196.28 336.013 186.756 330.515 175.008 330.515C163.259 330.515 153.736 336.013 153.736 342.795C153.736 349.577 163.259 355.075 175.008 355.075Z" fill="black"/>
<path d="M159.97 337.54C168.27 332.743 181.745 332.743 190.045 337.54C193.45 339.507 195.435 341.969 196.073 344.511C195.453 347.062 193.45 349.524 190.045 351.482C181.745 356.279 168.27 356.279 159.97 351.482C156.574 349.524 154.58 347.062 153.942 344.511C154.562 341.969 156.574 339.507 159.97 337.54Z" fill="#3D96F5"/>
<path opacity="0.35" d="M159.97 337.54C168.27 332.743 181.745 332.743 190.045 337.54C193.45 339.507 195.435 341.969 196.073 344.511C195.453 347.062 193.45 349.524 190.045 351.482C181.745 356.279 168.27 356.279 159.97 351.482C156.574 349.524 154.58 347.062 153.942 344.511C154.562 341.969 156.574 339.507 159.97 337.54Z" fill="black"/>
<path d="M188.401 346.505C188.401 346.083 188.401 344.394 188.401 343.963C188.401 342.921 187.683 341.915 186.138 341.008H186.084C183.227 339.355 180.272 339.57 177.64 340.235C176.526 340.522 175.457 340.882 174.487 341.214C173.381 341.627 172.254 341.978 171.109 342.265C170.582 342.387 170.041 342.438 169.501 342.418C169.039 342.392 168.587 342.273 168.172 342.068L168.279 341.987L168.612 341.789C168.9 341.618 169.2 341.468 169.51 341.34C170.252 341.012 171.051 340.834 171.862 340.816C172.673 340.797 173.479 340.939 174.235 341.232L176.93 338.483V335.959C174.525 335.138 171.932 335.045 169.474 335.69C168.663 335.897 167.87 336.171 167.103 336.507L164.408 334.935L161.156 336.812V339.337L162.27 339.983C161.973 340.419 161.808 340.93 161.794 341.457V343.972C161.794 345.014 162.548 346.02 164.111 346.927C165.477 347.727 167.021 348.172 168.603 348.221H169.501C171.149 348.098 172.773 347.748 174.325 347.179L175.223 346.856L172.474 349.604V352.129C174.167 352.769 175.973 353.058 177.781 352.98C179.589 352.901 181.363 352.456 182.994 351.67L185.689 353.225L188.94 351.347V348.823L187.827 348.176C188.182 347.69 188.382 347.107 188.401 346.505ZM181.538 346.281C181.296 346.424 181.044 346.55 180.784 346.658C179.092 347.389 177.179 347.418 175.466 346.739C178.008 345.84 180.137 345.059 181.952 346.02C181.82 346.116 181.682 346.203 181.538 346.281Z" fill="#3D96F5"/>
<path d="M177.64 340.199C176.526 340.487 175.457 340.846 174.487 341.178C173.381 341.592 172.254 341.943 171.109 342.229C170.582 342.351 170.041 342.403 169.501 342.382C168.956 342.353 168.426 342.192 167.956 341.915C166.905 341.313 166.752 340.433 168.279 339.427L168.612 339.22C168.902 339.055 169.202 338.908 169.51 338.78C170.252 338.452 171.051 338.274 171.862 338.256C172.673 338.237 173.479 338.379 174.235 338.672L176.93 335.923C174.525 335.103 171.932 335.009 169.474 335.654C168.663 335.862 167.87 336.135 167.103 336.471L164.408 334.899L161.156 336.777L163.851 338.331C161.156 340.406 161.066 342.562 164.138 344.34C165.504 345.14 167.048 345.585 168.63 345.634H169.528C171.177 345.513 172.802 345.159 174.352 344.583C177.478 343.541 180.011 342.31 182.113 343.523C183.524 344.34 183.128 345.364 181.583 346.218C181.341 346.361 181.089 346.488 180.829 346.595C179.978 346.96 179.064 347.152 178.138 347.16C177.213 347.167 176.295 346.991 175.439 346.64L172.573 349.506C174.266 350.146 176.072 350.436 177.88 350.357C179.688 350.278 181.462 349.833 183.092 349.048L185.787 350.602L189.039 348.724L186.344 347.17C189.039 345.077 189.372 342.795 186.21 340.945H186.156C183.227 339.319 180.272 339.534 177.64 340.199Z" fill="#3D96F5"/>
<g opacity="0.3">
<path d="M177.64 340.199C176.526 340.487 175.457 340.846 174.487 341.178C173.381 341.592 172.254 341.943 171.109 342.229C170.582 342.351 170.041 342.403 169.501 342.382C168.956 342.352 168.426 342.192 167.956 341.915C166.905 341.313 166.752 340.433 168.279 339.427L168.612 339.22C168.902 339.055 169.202 338.908 169.51 338.78C170.252 338.452 171.051 338.274 171.862 338.256C172.673 338.237 173.479 338.379 174.235 338.672L176.93 335.923C174.525 335.103 171.932 335.009 169.474 335.654C168.663 335.862 167.87 336.135 167.103 336.471L164.408 334.899L161.156 336.777L163.851 338.331C161.156 340.406 161.066 342.562 164.138 344.34C165.504 345.14 167.048 345.584 168.63 345.634H169.528C171.177 345.513 172.802 345.159 174.352 344.583C177.478 343.541 180.011 342.31 182.113 343.523C183.524 344.34 183.128 345.364 181.583 346.218C181.341 346.361 181.089 346.487 180.829 346.595C179.978 346.96 179.064 347.152 178.138 347.16C177.213 347.167 176.295 346.991 175.439 346.64L172.573 349.506C174.266 350.146 176.072 350.436 177.88 350.357C179.688 350.278 181.462 349.833 183.092 349.047L185.787 350.602L189.039 348.724L186.344 347.17C189.039 345.077 189.372 342.795 186.21 340.945H186.156C183.227 339.319 180.272 339.534 177.64 340.199Z" fill="white"/>
</g>
<path opacity="0.45" d="M161.129 336.777L164.417 335.285L167.112 336.471L164.39 334.899L161.129 336.777Z" fill="#F5F5F5"/>
<path opacity="0.45" d="M169.106 335.752C171.426 335.29 173.821 335.373 176.104 335.995L174.208 338.69L176.903 335.941C174.384 335.083 171.663 335.017 169.106 335.752Z" fill="#F5F5F5"/>
<path opacity="0.45" d="M186.084 340.972H186.138C189.3 342.822 188.985 345.104 186.272 347.197C188.68 344.583 188.24 342.759 185.635 341.259C183.17 340.001 180.352 339.615 177.64 340.163C180.272 339.534 183.227 339.319 186.084 340.972Z" fill="#F5F5F5"/>
<path opacity="0.45" d="M186.281 347.233L188.339 348.814L185.715 350.664L188.967 348.787L186.281 347.233Z" fill="#F5F5F5"/>
<path opacity="0.45" d="M180.784 346.658C179.179 347.47 177.323 347.634 175.601 347.116L172.501 349.568L175.367 346.703C176.227 347.057 177.15 347.236 178.08 347.228C179.01 347.22 179.93 347.027 180.784 346.658Z" fill="#F5F5F5"/>
<path opacity="0.45" d="M171.082 342.229C170.451 342.487 169.766 342.589 169.088 342.524C168.409 342.46 167.755 342.233 167.183 341.861C166.285 341.052 166.842 340.181 168.252 339.427C166.725 340.433 166.878 341.313 167.929 341.915C168.399 342.192 168.929 342.352 169.474 342.382C170.015 342.402 170.555 342.351 171.082 342.229Z" fill="#F5F5F5"/>
<path opacity="0.45" d="M163.797 338.358C163.572 338.555 161.614 340.388 162.476 342.211C163.339 344.035 166.267 345.409 168.585 345.661C167.003 345.611 165.459 345.167 164.093 344.367C161.012 342.589 161.066 340.433 163.797 338.358Z" fill="#F5F5F5"/>
<path d="M211.506 333.579C209.599 330.595 206.958 328.151 203.834 326.482C191.258 319.233 170.938 319.233 158.389 326.482C155.266 328.151 152.624 330.595 150.717 333.579H148.975V340.145C149.208 344.709 152.325 349.236 158.362 352.722C170.938 359.971 191.258 359.971 203.808 352.722C209.844 349.245 212.988 344.718 213.213 340.145V333.579H211.506Z" fill="#3D96F5"/>
<path opacity="0.25" d="M211.506 333.579C209.599 330.595 206.958 328.151 203.834 326.482C191.258 319.233 170.938 319.233 158.389 326.482C155.266 328.151 152.624 330.595 150.717 333.579H148.975V340.145C149.208 344.709 152.325 349.236 158.362 352.722C170.938 359.971 191.258 359.971 203.808 352.722C209.844 349.245 212.988 344.718 213.213 340.145V333.579H211.506Z" fill="black"/>
<path opacity="0.1" d="M181.08 321.047C172.852 321.047 164.632 322.844 158.353 326.437C155.23 328.106 152.588 330.55 150.681 333.534H148.939V340.1C149.172 344.664 152.289 349.191 158.326 352.677C164.614 356.27 172.825 358.066 181.053 358.066L181.08 321.047Z" fill="black"/>
<path opacity="0.1" d="M163.527 324.057C161.74 324.725 160.01 325.536 158.353 326.482C155.23 328.151 152.588 330.595 150.681 333.579H148.939V340.145C149.172 344.709 152.289 349.236 158.326 352.722C159.981 353.671 161.712 354.483 163.5 355.147L163.527 324.057Z" fill="black"/>
<path opacity="0.5" d="M198.624 324.057C200.411 324.725 202.142 325.536 203.798 326.482C206.922 328.151 209.563 330.595 211.47 333.579H213.204V340.145C212.979 344.709 209.826 349.236 203.798 352.722C202.143 353.671 200.413 354.483 198.624 355.147V324.057Z" fill="#3D96F5"/>
<path d="M158.353 320.463C145.777 327.704 145.777 339.453 158.353 346.703C169.33 352.991 186.282 353.835 198.777 349.074L199.271 348.886C200.835 348.265 202.354 347.536 203.817 346.703C214.282 340.657 216.016 331.485 209.027 324.407C207.473 322.868 205.721 321.545 203.817 320.472C191.249 313.214 170.902 313.214 158.353 320.463Z" fill="#3D96F5"/>
<path opacity="0.2" d="M158.353 320.463C145.777 327.704 145.777 339.453 158.353 346.703C169.33 352.991 186.282 353.835 198.777 349.074L199.271 348.886C200.835 348.265 202.354 347.536 203.817 346.703C214.282 340.657 216.016 331.485 209.027 324.407C207.473 322.868 205.721 321.545 203.817 320.472C191.249 313.214 170.902 313.214 158.353 320.463Z" fill="black"/>
<path opacity="0.5" d="M209.009 324.407C210.382 325.947 211.398 327.771 211.985 329.75C212.572 331.728 212.715 333.811 212.404 335.851C211.29 342.229 202.37 347.592 199.289 348.886C200.853 348.265 202.372 347.536 203.834 346.703C214.264 340.657 215.998 331.485 209.009 324.407Z" fill="#F5F5F5"/>
<path opacity="0.5" d="M153.116 342.759C151.75 341.215 150.741 339.389 150.16 337.411C149.58 335.434 149.442 333.352 149.756 331.315C150.861 324.937 159.79 319.565 162.871 318.28C161.306 318.899 159.787 319.628 158.326 320.463C147.888 326.518 146.154 335.681 153.116 342.759Z" fill="#F5F5F5"/>
<path d="M202.208 345.751C213.886 339.013 213.886 328.099 202.208 321.361C190.53 314.624 171.666 314.624 159.988 321.361C148.31 328.099 148.31 339.013 159.988 345.751C171.666 352.488 190.539 352.488 202.208 345.751Z" fill="#3D96F5"/>
<path opacity="0.4" d="M202.208 345.751C213.886 339.013 213.886 328.099 202.208 321.361C190.53 314.624 171.666 314.624 159.988 321.361C148.31 328.099 148.31 339.013 159.988 345.751C171.666 352.488 190.539 352.488 202.208 345.751Z" fill="white"/>
<path opacity="0.2" d="M209.601 338.708C212 334.27 211.218 329.374 207.257 325.233C206.476 324.427 205.629 323.687 204.724 323.023C203.95 322.444 203.143 321.91 202.307 321.424C201.831 321.146 201.337 320.876 200.834 320.625C202.074 322.673 201.624 324.856 194.546 325.269C180.784 326.078 198.229 339.229 198.229 339.229C198.229 339.229 207.14 334.935 209.601 338.708Z" fill="white"/>
<path opacity="0.5" d="M208.182 335.07C210.248 334.836 211.272 332.707 210.464 330.318C209.655 327.928 207.338 326.185 205.272 326.41C203.206 326.635 202.181 328.773 202.981 331.162C203.78 333.552 206.116 335.294 208.182 335.07Z" fill="white"/>
<path d="M186.407 346.029C185.724 340.918 163.375 326.769 163.375 326.769C163.375 326.769 158.425 324.775 160.069 321.317C159.241 321.781 158.443 322.297 157.679 322.862C157.174 323.219 156.688 323.603 156.224 324.012C149.568 329.77 149.559 337.333 156.224 343.101C156.673 343.496 157.158 343.882 157.679 344.259C158.391 344.776 159.129 345.255 159.889 345.697C160.656 346.134 161.446 346.547 162.261 346.936C162.907 347.242 163.59 347.538 164.273 347.835C164.956 348.131 165.656 348.356 166.366 348.589C168.546 349.295 170.777 349.829 173.04 350.188C173.534 350.269 174.037 350.341 174.532 350.404C179.461 351.042 184.457 350.957 189.363 350.152C189.363 350.152 185.76 349.398 186.407 346.029Z" fill="#3D96F5"/>
<path opacity="0.3" d="M186.407 346.029C185.724 340.918 163.375 326.769 163.375 326.769C163.375 326.769 158.425 324.775 160.069 321.317C159.241 321.781 158.443 322.297 157.679 322.862C157.174 323.219 156.688 323.603 156.224 324.012C149.568 329.77 149.559 337.333 156.224 343.101C156.673 343.496 157.158 343.882 157.679 344.259C158.391 344.776 159.129 345.255 159.889 345.697C160.656 346.134 161.446 346.547 162.261 346.936C162.907 347.242 163.59 347.538 164.273 347.835C164.956 348.131 165.656 348.356 166.366 348.589C168.546 349.295 170.777 349.829 173.04 350.188C173.534 350.269 174.037 350.341 174.532 350.404C179.461 351.042 184.457 350.957 189.363 350.152C189.363 350.152 185.76 349.398 186.407 346.029Z" fill="white"/>
<path d="M165.342 324.47C157.006 329.285 156.664 336.965 164.327 342.014C164.65 342.22 164.992 342.436 165.342 342.642C174.038 347.655 188.123 347.655 196.783 342.642C205.442 337.63 205.478 329.491 196.783 324.47C196.432 324.263 196.064 324.065 195.696 323.877C186.982 319.457 173.678 319.655 165.342 324.47Z" fill="#3D96F5"/>
<path opacity="0.2" d="M165.342 324.47C157.006 329.285 156.664 336.965 164.327 342.014C164.65 342.22 164.992 342.436 165.342 342.642C174.038 347.655 188.123 347.655 196.783 342.642C205.442 337.63 205.478 329.491 196.783 324.47C196.432 324.263 196.064 324.065 195.696 323.877C186.982 319.457 173.678 319.655 165.342 324.47Z" fill="black"/>
<path d="M181.089 345.832C192.837 345.832 202.361 340.334 202.361 333.552C202.361 326.77 192.837 321.272 181.089 321.272C169.341 321.272 159.817 326.77 159.817 333.552C159.817 340.334 169.341 345.832 181.089 345.832Z" fill="#3D96F5"/>
<path opacity="0.5" d="M181.089 345.832C192.837 345.832 202.361 340.334 202.361 333.552C202.361 326.77 192.837 321.272 181.089 321.272C169.341 321.272 159.817 326.77 159.817 333.552C159.817 340.334 169.341 345.832 181.089 345.832Z" fill="black"/>
<path d="M166.042 328.314C174.352 323.517 187.817 323.517 196.127 328.314C199.522 330.273 201.517 332.734 202.155 335.285C201.535 337.837 199.522 340.298 196.127 342.256C187.817 347.053 174.352 347.053 166.042 342.256C162.647 340.298 160.653 337.837 160.024 335.285C160.644 332.716 162.647 330.255 166.042 328.314Z" fill="#3D96F5"/>
<path opacity="0.35" d="M166.042 328.314C174.352 323.517 187.817 323.517 196.127 328.314C199.522 330.273 201.517 332.734 202.155 335.285C201.535 337.837 199.522 340.298 196.127 342.256C187.817 347.053 174.352 347.053 166.042 342.256C162.647 340.298 160.653 337.837 160.024 335.285C160.644 332.716 162.647 330.255 166.042 328.314Z" fill="black"/>
<path d="M194.483 337.297V334.764C194.483 333.722 193.764 332.707 192.21 331.8H192.156C189.3 330.156 186.353 330.372 183.721 331.036C182.598 331.315 181.538 331.683 180.568 332.015C179.464 332.43 178.336 332.778 177.191 333.057C176.666 333.175 176.129 333.226 175.592 333.21C175.127 333.177 174.672 333.055 174.253 332.851L174.361 332.779L174.693 332.572C174.984 332.408 175.284 332.261 175.592 332.132C176.333 331.802 177.132 331.623 177.943 331.604C178.754 331.586 179.561 331.729 180.317 332.024L183.012 329.276V326.751C180.608 325.928 178.014 325.831 175.556 326.473C174.743 326.681 173.95 326.957 173.184 327.299L170.489 325.718L167.237 327.605V330.129L168.351 330.767C168.046 331.198 167.88 331.712 167.875 332.24V334.764C167.875 335.806 168.621 336.812 170.193 337.72C171.56 338.515 173.103 338.96 174.684 339.013C174.981 339.013 175.277 339.013 175.583 339.013C177.231 338.891 178.854 338.54 180.407 337.971L181.305 337.648L178.556 340.397V342.93C180.25 343.564 182.055 343.85 183.862 343.771C185.669 343.692 187.442 343.25 189.075 342.472L191.77 344.026L195.022 342.148V339.543L193.908 338.896C194.25 338.43 194.45 337.875 194.483 337.297ZM187.62 337.082C187.376 337.222 187.124 337.348 186.865 337.459C185.169 338.186 183.256 338.215 181.538 337.54C184.09 336.642 186.219 335.851 188.033 336.821C187.907 336.866 187.764 336.947 187.62 337.037V337.082Z" fill="#3D96F5"/>
<path d="M183.721 330.955C182.598 331.234 181.538 331.602 180.568 331.935C179.464 332.35 178.336 332.698 177.191 332.977C176.666 333.094 176.129 333.145 175.592 333.129C175.044 333.1 174.511 332.94 174.038 332.662C172.995 332.06 172.843 331.171 174.361 330.174L174.693 329.967C174.984 329.803 175.284 329.656 175.592 329.527C176.333 329.197 177.132 329.018 177.943 328.999C178.754 328.981 179.561 329.124 180.317 329.419L183.012 326.671C180.608 325.847 178.014 325.75 175.556 326.392C174.743 326.6 173.95 326.877 173.184 327.218L170.489 325.637L167.237 327.524L169.932 329.078C167.237 331.162 167.138 333.318 170.22 335.097C171.587 335.892 173.13 336.337 174.711 336.39C175.01 336.408 175.31 336.408 175.61 336.39C177.258 336.268 178.881 335.917 180.433 335.348C183.56 334.306 186.084 333.075 188.195 334.288C189.596 335.106 189.21 336.13 187.665 336.983C187.421 337.123 187.169 337.249 186.91 337.36C186.057 337.717 185.141 337.901 184.215 337.901C183.29 337.901 182.374 337.717 181.52 337.36L178.664 340.226C180.357 340.865 182.161 341.155 183.969 341.078C185.777 341 187.551 340.558 189.183 339.777L191.878 341.331L195.13 339.453L192.435 337.899C195.13 335.797 195.453 333.516 192.291 331.665H192.237C189.3 330.111 186.353 330.291 183.721 330.955Z" fill="#3D96F5"/>
<g opacity="0.3">
<path d="M183.721 330.955C182.598 331.234 181.538 331.602 180.568 331.935C179.464 332.35 178.336 332.698 177.191 332.977C176.666 333.094 176.129 333.145 175.592 333.129C175.044 333.1 174.511 332.94 174.038 332.662C172.995 332.06 172.843 331.171 174.361 330.174L174.693 329.967C174.984 329.803 175.284 329.656 175.592 329.527C176.333 329.197 177.132 329.018 177.943 328.999C178.754 328.981 179.561 329.124 180.317 329.419L183.012 326.671C180.608 325.847 178.014 325.75 175.556 326.392C174.743 326.6 173.95 326.877 173.184 327.218L170.489 325.637L167.237 327.524L169.932 329.078C167.237 331.162 167.138 333.318 170.22 335.097C171.587 335.892 173.13 336.337 174.711 336.39C175.01 336.408 175.31 336.408 175.61 336.39C177.258 336.268 178.881 335.917 180.433 335.348C183.56 334.306 186.084 333.075 188.195 334.288C189.596 335.106 189.21 336.13 187.665 336.983C187.421 337.123 187.169 337.249 186.91 337.36C186.057 337.717 185.141 337.901 184.215 337.901C183.29 337.901 182.374 337.717 181.52 337.36L178.664 340.226C180.357 340.865 182.161 341.155 183.969 341.078C185.777 341 187.551 340.558 189.183 339.777L191.878 341.331L195.13 339.453L192.435 337.899C195.13 335.797 195.453 333.516 192.291 331.665H192.237C189.3 330.111 186.353 330.291 183.721 330.955Z" fill="white"/>
</g>
<path opacity="0.45" d="M167.21 327.524L170.498 326.033L173.193 327.219L170.462 325.646L167.21 327.524Z" fill="#F5F5F5"/>
<path opacity="0.45" d="M175.187 326.518C177.504 326.054 179.896 326.134 182.176 326.751L180.29 329.446L182.985 326.698C180.465 325.842 177.744 325.779 175.187 326.518Z" fill="#F5F5F5"/>
<path opacity="0.45" d="M192.156 331.719H192.21C195.372 333.57 195.067 335.851 192.354 337.953C194.752 335.339 194.321 333.516 191.716 332.007C189.249 330.755 186.433 330.373 183.721 330.92C186.353 330.291 189.3 330.111 192.156 331.719Z" fill="#F5F5F5"/>
<path opacity="0.45" d="M192.354 337.98L194.42 339.57L191.797 341.412L195.049 339.534L192.354 337.98Z" fill="#F5F5F5"/>
<path opacity="0.45" d="M186.865 337.414C185.257 338.227 183.397 338.388 181.673 337.864L178.583 340.316L181.44 337.45C182.301 337.806 183.224 337.987 184.156 337.98C185.088 337.974 186.009 337.782 186.865 337.414Z" fill="#F5F5F5"/>
<path opacity="0.45" d="M177.164 332.986C176.531 333.24 175.847 333.339 175.168 333.273C174.49 333.207 173.837 332.979 173.265 332.608C172.367 331.8 172.933 330.937 174.334 330.183C172.816 331.18 172.968 332.069 174.011 332.671C174.484 332.949 175.017 333.109 175.565 333.138C176.102 333.154 176.639 333.103 177.164 332.986Z" fill="#F5F5F5"/>
<path opacity="0.45" d="M169.878 329.105C169.645 329.312 167.686 331.135 168.558 332.968C169.429 334.8 172.349 336.166 174.666 336.408C173.085 336.355 171.542 335.91 170.175 335.115C167.084 333.345 167.147 331.189 169.878 329.105Z" fill="#F5F5F5"/>
<path d="M204.176 322.763C202.263 319.781 199.619 317.338 196.495 315.666C183.919 308.426 163.608 308.426 151.059 315.666C147.935 317.338 145.291 319.781 143.378 322.763H141.644V329.33C141.878 333.893 145.004 338.42 151.041 341.906C163.617 349.146 183.928 349.146 196.477 341.906C202.514 338.42 205.658 333.893 205.891 329.33V322.763H204.176Z" fill="#3D96F5"/>
<path opacity="0.25" d="M204.176 322.763C202.263 319.781 199.619 317.338 196.495 315.666C183.919 308.426 163.608 308.426 151.059 315.666C147.935 317.338 145.291 319.781 143.378 322.763H141.644V329.33C141.878 333.893 145.004 338.42 151.041 341.906C163.617 349.146 183.928 349.146 196.477 341.906C202.514 338.42 205.658 333.893 205.891 329.33V322.763H204.176Z" fill="black"/>
<path opacity="0.1" d="M173.777 310.232C165.557 310.232 157.329 312.028 151.059 315.666C147.935 317.338 145.291 319.781 143.378 322.763H141.644V329.33C141.878 333.893 145.004 338.421 151.041 341.906C157.329 345.499 165.539 347.341 173.759 347.341L173.777 310.232Z" fill="black"/>
<path opacity="0.1" d="M156.224 313.241C154.44 313.909 152.712 314.72 151.059 315.666C147.935 317.338 145.291 319.781 143.378 322.763H141.644V329.33C141.878 333.893 145.004 338.421 151.041 341.906C152.693 342.853 154.42 343.661 156.206 344.322L156.224 313.241Z" fill="black"/>
<path opacity="0.5" d="M191.33 313.241C193.114 313.909 194.841 314.72 196.495 315.666C199.619 317.338 202.263 319.781 204.176 322.763H205.91V329.33C205.676 333.893 202.532 338.421 196.495 341.906C194.843 342.853 193.115 343.661 191.33 344.322V313.241Z" fill="#3D96F5"/>
<path d="M151.059 309.648C138.482 316.897 138.482 328.638 151.059 335.887C162.036 342.229 178.987 343.02 191.483 338.268L191.986 338.07C193.533 337.45 195.034 336.72 196.477 335.887C206.943 329.842 208.685 320.67 201.697 313.591C200.146 312.048 198.393 310.721 196.486 309.648C183.955 302.407 163.608 302.407 151.059 309.648Z" fill="#3D96F5"/>
<path opacity="0.2" d="M151.059 309.648C138.482 316.897 138.482 328.638 151.059 335.887C162.036 342.229 178.987 343.02 191.483 338.268L191.986 338.07C193.533 337.45 195.034 336.72 196.477 335.887C206.943 329.842 208.685 320.67 201.697 313.591C200.146 312.048 198.393 310.721 196.486 309.648C183.955 302.407 163.608 302.407 151.059 309.648Z" fill="black"/>
<path opacity="0.5" d="M201.714 313.591C203.079 315.136 204.087 316.962 204.668 318.939C205.249 320.917 205.387 322.998 205.074 325.036C203.96 331.414 195.031 336.777 191.959 338.07C193.506 337.45 195.007 336.72 196.45 335.887C206.96 329.842 208.703 320.67 201.714 313.591Z" fill="#F5F5F5"/>
<path opacity="0.5" d="M145.84 331.908C144.475 330.363 143.466 328.537 142.886 326.559C142.305 324.582 142.167 322.5 142.48 320.463C143.594 314.085 152.523 308.722 155.595 307.429C154.049 308.051 152.548 308.78 151.104 309.612C140.593 315.738 138.851 324.865 145.84 331.908Z" fill="#F5F5F5"/>
<path d="M173.786 339.984C190.282 339.984 203.655 332.262 203.655 322.736C203.655 313.21 190.282 305.488 173.786 305.488C157.29 305.488 143.917 313.21 143.917 322.736C143.917 332.262 157.29 339.984 173.786 339.984Z" fill="#3D96F5"/>
<path opacity="0.4" d="M173.786 339.984C190.282 339.984 203.655 332.262 203.655 322.736C203.655 313.21 190.282 305.488 173.786 305.488C157.29 305.488 143.917 313.21 143.917 322.736C143.917 332.262 157.29 339.984 173.786 339.984Z" fill="white"/>
<path opacity="0.2" d="M145.274 327.892C142.875 323.455 143.657 318.559 147.618 314.418C148.399 313.608 149.246 312.866 150.151 312.199C150.925 311.62 151.732 311.086 152.568 310.6C153.044 310.321 153.538 310.061 154.041 309.809C152.801 311.848 153.251 314.04 160.329 314.445C174.091 315.253 156.646 328.413 156.646 328.413C156.646 328.413 147.726 324.128 145.274 327.892Z" fill="white"/>
<path opacity="0.5" d="M146.693 324.254C144.627 324.021 143.603 321.901 144.411 319.511C145.22 317.122 147.537 315.37 149.603 315.603C151.67 315.837 152.694 317.957 151.894 320.346C151.095 322.736 148.759 324.488 146.693 324.254Z" fill="white"/>
<path d="M168.468 335.222C169.151 330.102 191.501 315.954 191.501 315.954C191.501 315.954 196.45 313.959 194.806 310.501C195.632 310.969 196.43 311.485 197.196 312.046C197.701 312.403 198.187 312.787 198.651 313.196C205.308 318.954 205.317 326.527 198.651 332.294C198.202 332.68 197.753 333.067 197.196 333.444C196.484 333.96 195.747 334.44 194.986 334.881C194.22 335.33 193.429 335.743 192.615 336.121C191.968 336.435 191.285 336.723 190.602 337.019C189.92 337.316 189.219 337.54 188.509 337.774C186.331 338.483 184.099 339.018 181.835 339.373L180.344 339.597C178.13 339.879 175.901 340.017 173.669 340.01C170.937 340.011 168.209 339.789 165.513 339.346C165.513 339.346 169.115 338.582 168.468 335.222Z" fill="#3D96F5"/>
<path opacity="0.3" d="M168.468 335.222C169.151 330.102 191.501 315.954 191.501 315.954C191.501 315.954 196.45 313.959 194.806 310.501C195.632 310.969 196.43 311.485 197.196 312.046C197.701 312.403 198.187 312.787 198.651 313.196C205.308 318.954 205.317 326.527 198.651 332.294C198.202 332.68 197.753 333.067 197.196 333.444C196.484 333.96 195.747 334.44 194.986 334.881C194.22 335.33 193.429 335.743 192.615 336.121C191.968 336.435 191.285 336.723 190.602 337.019C189.92 337.316 189.219 337.54 188.509 337.774C186.331 338.483 184.099 339.018 181.835 339.373L180.344 339.597C178.13 339.879 175.901 340.017 173.669 340.01C170.937 340.011 168.209 339.789 165.513 339.346C165.513 339.346 169.115 338.582 168.468 335.222Z" fill="white"/>
<path d="M189.533 313.654C197.87 318.469 198.211 326.15 190.548 331.198C190.225 331.414 189.884 331.62 189.533 331.827C180.838 336.848 166.752 336.848 158.092 331.827C149.433 326.805 149.397 318.676 158.092 313.654C158.443 313.456 158.811 313.259 159.179 313.07C167.893 308.65 181.197 308.848 189.533 313.654Z" fill="#3D96F5"/>
<path opacity="0.2" d="M189.533 313.654C197.87 318.469 198.211 326.15 190.548 331.198C190.225 331.414 189.884 331.62 189.533 331.827C180.838 336.848 166.752 336.848 158.092 331.827C149.433 326.805 149.397 318.676 158.092 313.654C158.443 313.456 158.811 313.259 159.179 313.07C167.893 308.65 181.197 308.848 189.533 313.654Z" fill="black"/>
<path d="M188.833 314.058C197.133 318.855 197.133 326.635 188.833 331.423C180.532 336.211 167.058 336.22 158.748 331.423C150.439 326.626 150.439 318.846 158.748 314.058C167.058 309.27 180.523 309.261 188.833 314.058Z" fill="#3D96F5"/>
<path opacity="0.5" d="M188.833 314.058C197.133 318.855 197.133 326.635 188.833 331.423C180.532 336.211 167.058 336.22 158.748 331.423C150.439 326.626 150.439 318.846 158.748 314.058C167.058 309.27 180.523 309.261 188.833 314.058Z" fill="black"/>
<path d="M188.833 317.481C180.523 312.684 167.058 312.684 158.748 317.481C155.353 319.448 153.358 321.9 152.73 324.452C153.34 327.003 155.353 329.464 158.748 331.423C167.058 336.22 180.523 336.22 188.833 331.423C192.228 329.464 194.223 327.003 194.851 324.452C194.231 321.9 192.228 319.448 188.833 317.481Z" fill="#3D96F5"/>
<path opacity="0.35" d="M188.833 317.481C180.523 312.684 167.058 312.684 158.748 317.481C155.353 319.448 153.358 321.9 152.73 324.452C153.34 327.003 155.353 329.464 158.748 331.423C167.058 336.22 180.523 336.22 188.833 331.423C192.228 329.464 194.223 327.003 194.851 324.452C194.231 321.9 192.228 319.448 188.833 317.481Z" fill="black"/>
<path d="M187.18 326.437C187.18 326.024 187.18 324.335 187.18 323.904C187.18 322.862 186.452 321.856 184.907 320.948H184.853C181.997 319.295 179.041 319.511 176.418 320.176C175.304 320.463 174.244 320.823 173.274 321.155C172.17 321.569 171.042 321.917 169.896 322.197C169.37 322.319 168.829 322.371 168.288 322.35C167.826 322.324 167.374 322.204 166.959 321.999L167.067 321.919L167.399 321.712C167.689 321.547 167.989 321.4 168.297 321.272C169.799 320.61 171.501 320.571 173.031 321.164L175.726 318.415V315.891C173.322 315.07 170.728 314.976 168.27 315.621C167.459 315.829 166.666 316.103 165.899 316.439L163.204 314.867L159.943 316.744V319.269L161.066 319.915C160.763 320.348 160.595 320.861 160.581 321.389C160.581 321.802 160.581 323.482 160.581 323.904C160.581 324.946 161.326 325.952 162.898 326.859C164.265 327.657 165.809 328.102 167.39 328.153C167.686 328.153 167.992 328.153 168.288 328.153C169.94 328.035 171.567 327.684 173.121 327.111L174.02 326.787L171.28 329.545V332.069C172.971 332.71 174.775 332.999 176.582 332.92C178.389 332.841 180.161 332.396 181.79 331.611L184.485 333.165L187.746 331.288V328.764L186.623 328.117C186.982 327.63 187.177 327.042 187.18 326.437ZM180.317 326.221C180.074 326.363 179.822 326.489 179.562 326.599C177.87 327.329 175.957 327.359 174.244 326.68C176.795 325.781 178.915 324.991 180.73 325.961C180.598 326.057 180.46 326.144 180.317 326.221Z" fill="#3D96F5"/>
<path d="M176.472 320.14C175.358 320.427 174.298 320.787 173.328 321.119C172.223 321.533 171.096 321.881 169.95 322.161C169.423 322.283 168.883 322.335 168.342 322.314C167.797 322.283 167.268 322.123 166.797 321.847C165.746 321.245 165.593 320.355 167.12 319.358L167.453 319.152C167.743 318.987 168.043 318.84 168.351 318.712C169.853 318.049 171.555 318.011 173.085 318.604L175.78 315.855C173.375 315.034 170.782 314.94 168.324 315.585C167.513 315.793 166.72 316.067 165.953 316.403L163.258 314.831L159.997 316.708L162.692 318.262C159.997 320.337 159.898 322.493 162.979 324.272C164.346 325.07 165.889 325.514 167.471 325.566C167.767 325.566 168.073 325.566 168.369 325.566C170.021 325.447 171.648 325.097 173.202 324.524C176.319 323.482 178.852 322.251 180.954 323.464C182.365 324.281 181.979 325.305 180.424 326.159C180.181 326.3 179.929 326.426 179.67 326.536C178.819 326.901 177.905 327.093 176.979 327.1C176.054 327.108 175.136 326.931 174.28 326.581L171.423 329.446C173.115 330.086 174.919 330.376 176.726 330.297C178.532 330.218 180.304 329.773 181.934 328.988L184.629 330.542L187.889 328.665L185.194 327.111C187.889 325.018 188.213 322.736 185.051 320.885H184.997C182.005 319.259 179.05 319.475 176.472 320.14Z" fill="#3D96F5"/>
<g opacity="0.3">
<path d="M176.472 320.14C175.358 320.427 174.298 320.787 173.328 321.119C172.223 321.533 171.096 321.881 169.95 322.161C169.423 322.283 168.883 322.335 168.342 322.314C167.797 322.283 167.268 322.123 166.797 321.847C165.746 321.245 165.593 320.355 167.12 319.358L167.453 319.152C167.743 318.987 168.043 318.84 168.351 318.711C169.853 318.049 171.555 318.011 173.085 318.604L175.78 315.855C173.375 315.034 170.782 314.94 168.324 315.585C167.513 315.793 166.72 316.067 165.953 316.403L163.258 314.831L159.997 316.708L162.692 318.262C159.997 320.337 159.898 322.493 162.979 324.272C164.346 325.07 165.889 325.514 167.471 325.566C167.767 325.566 168.073 325.566 168.369 325.566C170.021 325.447 171.648 325.097 173.202 324.524C176.319 323.481 178.852 322.251 180.954 323.464C182.365 324.281 181.979 325.305 180.424 326.158C180.181 326.3 179.929 326.426 179.67 326.536C178.819 326.901 177.905 327.093 176.979 327.1C176.054 327.108 175.136 326.931 174.28 326.581L171.423 329.446C173.115 330.086 174.919 330.376 176.726 330.297C178.532 330.218 180.304 329.773 181.934 328.988L184.629 330.542L187.889 328.665L185.194 327.111C187.889 325.018 188.213 322.736 185.051 320.885H184.997C182.005 319.259 179.05 319.475 176.472 320.14Z" fill="white"/>
</g>
<path opacity="0.45" d="M159.916 316.708L163.195 315.226L165.89 316.412L163.168 314.831L159.916 316.708Z" fill="#F5F5F5"/>
<path opacity="0.45" d="M167.884 315.738C170.204 315.276 172.6 315.359 174.882 315.981L172.995 318.676L175.69 315.927C173.169 315.066 170.444 315.001 167.884 315.738Z" fill="#F5F5F5"/>
<path opacity="0.45" d="M184.862 320.912H184.916C188.078 322.763 187.764 325.045 185.06 327.138C187.458 324.524 187.027 322.7 184.422 321.191C181.955 319.94 179.138 319.558 176.427 320.104C179.05 319.475 182.006 319.26 184.862 320.912Z" fill="#F5F5F5"/>
<path opacity="0.45" d="M185.06 327.165L187.126 328.755L184.494 330.605L187.755 328.728L185.06 327.165Z" fill="#F5F5F5"/>
<path opacity="0.45" d="M179.562 326.599C177.957 327.411 176.101 327.575 174.379 327.057L171.289 329.509L174.145 326.644C175.005 326.998 175.928 327.177 176.858 327.169C177.789 327.161 178.708 326.967 179.562 326.599Z" fill="#F5F5F5"/>
<path opacity="0.45" d="M169.869 322.17C169.238 322.427 168.554 322.527 167.875 322.463C167.196 322.399 166.543 322.172 165.971 321.802C165.027 320.993 165.638 320.122 167.04 319.367C165.513 320.364 165.665 321.254 166.716 321.856C167.187 322.132 167.717 322.292 168.261 322.323C168.802 322.344 169.343 322.292 169.869 322.17Z" fill="#F5F5F5"/>
<path opacity="0.45" d="M162.584 318.298C162.35 318.496 160.392 320.329 161.254 322.152C162.117 323.976 165.045 325.35 167.363 325.602C165.782 325.55 164.238 325.106 162.871 324.308C159.79 322.529 159.844 320.373 162.584 318.298Z" fill="#F5F5F5"/>
<path d="M145.399 319.493L146.208 313.349L147.016 319.493L157.661 319.96L147.016 320.427L146.208 326.581L145.399 320.427L134.745 319.96L145.399 319.493Z" fill="white"/>
<g opacity="0.3">
<path d="M337.961 331.98C337.917 331.992 337.87 331.992 337.826 331.98L320.435 321.936C320.394 321.913 320.36 321.879 320.336 321.838C320.313 321.797 320.3 321.75 320.3 321.703C320.301 321.657 320.314 321.612 320.337 321.572C320.361 321.533 320.395 321.501 320.435 321.478L342.183 308.902C342.223 308.88 342.268 308.868 342.313 308.868C342.359 308.868 342.404 308.88 342.444 308.902L359.844 318.945C359.885 318.969 359.919 319.003 359.943 319.044C359.966 319.085 359.979 319.131 359.979 319.179C359.978 319.226 359.965 319.272 359.942 319.313C359.918 319.354 359.884 319.388 359.844 319.412L338.096 331.989C338.051 331.999 338.004 331.996 337.961 331.98ZM321.1 321.667L337.952 331.405L359.161 319.161L342.309 309.45L321.1 321.667Z" fill="#3D96F5"/>
</g>
<path d="M337.961 329.195V239.166L324.918 231.638V321.667L337.961 329.195Z" fill="#3D96F5"/>
<path opacity="0.2" d="M337.961 329.195V239.166L324.918 231.638V321.667L337.961 329.195Z" fill="black"/>
<path d="M337.961 329.195L355.361 319.161V229.123L337.961 239.166V329.195Z" fill="#3D96F5"/>
<path d="M355.361 229.123L342.318 221.595L324.918 231.638L337.961 239.166L355.361 229.123Z" fill="#3D96F5"/>
<path opacity="0.25" d="M355.361 229.123L342.318 221.595L324.918 231.638L337.961 239.166L355.361 229.123Z" fill="white"/>
<path opacity="0.3" d="M355.361 229.132L337.79 238.816L332.086 235.627L324.9 231.638L331.942 235.851L337.71 239.292C337.575 241.25 337.539 321.245 337.566 323.203C337.575 325.209 337.701 327.212 337.943 329.204C338.188 327.213 338.317 325.209 338.329 323.203C338.329 321.307 338.329 241.376 338.186 239.48L355.361 229.132Z" fill="white"/>
<g opacity="0.3">
<path d="M305.352 350.817C305.308 350.827 305.262 350.827 305.218 350.817L287.862 340.729C287.822 340.707 287.788 340.674 287.765 340.635C287.741 340.595 287.728 340.55 287.728 340.504C287.728 340.457 287.74 340.411 287.764 340.37C287.787 340.329 287.821 340.295 287.862 340.271L309.61 327.695C309.652 327.673 309.698 327.661 309.745 327.661C309.792 327.661 309.838 327.673 309.88 327.695L327.271 337.738C327.311 337.763 327.344 337.797 327.368 337.838C327.391 337.878 327.404 337.924 327.406 337.971C327.406 338.019 327.393 338.065 327.37 338.106C327.346 338.147 327.312 338.181 327.271 338.205L305.523 350.781C305.471 350.81 305.412 350.822 305.352 350.817ZM288.491 340.504L305.352 350.233L326.553 337.989L309.7 328.26L288.491 340.504Z" fill="#3D96F5"/>
</g>
<path d="M305.352 348.032L305.343 294.008L292.3 286.48V340.495L305.352 348.032Z" fill="#3D96F5"/>
<path opacity="0.1" d="M305.352 348.032L305.343 294.008L292.3 286.48V340.495L305.352 348.032Z" fill="white"/>
<path d="M305.352 348.032L322.744 337.989V283.974L305.343 294.008L305.352 348.032Z" fill="#3D96F5"/>
<path opacity="0.3" d="M305.352 348.032L322.744 337.989V283.974L305.343 294.008L305.352 348.032Z" fill="white"/>
<path d="M322.744 283.974L309.7 276.437L292.3 286.48L305.343 294.008L322.744 283.974Z" fill="#3D96F5"/>
<path opacity="0.55" d="M322.744 283.974L309.7 276.437L292.3 286.48L305.343 294.008L322.744 283.974Z" fill="white"/>
<path opacity="0.3" d="M305.577 294.34L322.744 283.974L305.173 293.667C303.277 292.589 301.373 291.538 299.468 290.478L292.282 286.48L299.325 290.693C301.247 291.855 303.173 293.005 305.101 294.143C305.038 296.173 304.975 305.973 304.957 308.004C304.939 310.034 304.957 333.525 304.957 335.6C304.957 337.675 304.957 339.741 305.074 341.816C305.191 343.891 305.209 345.966 305.343 348.032C305.469 345.966 305.556 343.894 305.604 341.816C305.676 339.741 305.712 337.675 305.721 335.6C305.73 333.525 305.721 310.07 305.721 308.004C305.721 305.937 305.64 296.299 305.577 294.34Z" fill="white"/>
<g opacity="0.3">
<path d="M272.735 369.637C272.69 369.645 272.645 369.645 272.6 369.637L255.2 359.594C255.16 359.569 255.128 359.534 255.106 359.493C255.084 359.452 255.073 359.407 255.074 359.36C255.072 359.313 255.083 359.267 255.105 359.226C255.127 359.185 255.16 359.151 255.2 359.126L276.948 346.55C276.988 346.524 277.035 346.509 277.083 346.509C277.131 346.509 277.177 346.524 277.217 346.55L294.609 356.593C294.649 356.615 294.683 356.648 294.706 356.687C294.73 356.727 294.743 356.772 294.743 356.818C294.743 356.865 294.731 356.912 294.707 356.953C294.684 356.994 294.65 357.028 294.609 357.051L272.869 369.628C272.825 369.639 272.78 369.642 272.735 369.637ZM255.873 359.324L272.735 369.062L293.944 356.809L277.083 347.089L255.873 359.324Z" fill="#3D96F5"/>
</g>
<path d="M272.735 366.861V347.88L259.682 340.343V359.324L272.735 366.861Z" fill="#3D96F5"/>
<path opacity="0.45" d="M272.735 366.861V347.88L259.682 340.343V359.324L272.735 366.861Z" fill="black"/>
<path d="M272.735 366.861L290.126 356.818L290.135 337.836L272.735 347.879V366.861Z" fill="#3D96F5"/>
<path opacity="0.3" d="M272.735 366.861L290.126 356.818L290.135 337.836L272.735 347.879V366.861Z" fill="black"/>
<path d="M290.135 337.836L277.083 330.3L259.682 340.343L272.735 347.879L290.135 337.836Z" fill="#3D96F5"/>
<path opacity="0.15" d="M290.135 337.836L277.083 330.3L259.682 340.343L272.735 347.879L290.135 337.836Z" fill="black"/>
<path opacity="0.3" d="M290.126 337.836L272.591 347.529L266.887 344.34L259.7 340.352L266.743 344.565L272.51 348.005C272.376 349.191 272.34 361.974 272.367 363.169C272.38 364.409 272.509 365.645 272.753 366.861C272.994 365.645 273.12 364.408 273.13 363.169C273.13 362.037 273.13 349.317 273.004 348.185L290.126 337.836Z" fill="white"/>
<g opacity="0.3">
<path d="M370.579 313.151C370.535 313.163 370.488 313.163 370.444 313.151L353.053 303.072C353.012 303.048 352.978 303.014 352.954 302.973C352.93 302.932 352.918 302.886 352.918 302.838C352.92 302.791 352.933 302.745 352.956 302.705C352.98 302.664 353.013 302.63 353.053 302.605L374.792 290.028C374.833 290.006 374.88 289.995 374.927 289.995C374.974 289.995 375.02 290.006 375.061 290.028L392.462 300.071C392.502 300.096 392.534 300.13 392.556 300.171C392.579 300.212 392.589 300.258 392.587 300.305C392.587 300.351 392.576 300.397 392.554 300.438C392.532 300.478 392.5 300.513 392.462 300.539L370.714 313.115C370.673 313.139 370.626 313.152 370.579 313.151ZM353.717 302.838L370.579 312.576L391.788 300.332L374.927 290.585L353.717 302.838Z" fill="#3D96F5"/>
</g>
<path d="M370.579 310.366V185.734L357.526 178.207L357.535 302.838L370.579 310.366Z" fill="#3D96F5"/>
<path opacity="0.3" d="M370.579 310.366V185.734L357.526 178.207L357.535 302.838L370.579 310.366Z" fill="white"/>
<path d="M370.579 310.366L387.97 300.323L387.979 175.7L370.579 185.735V310.366Z" fill="#3D96F5"/>
<path opacity="0.55" d="M370.579 310.366L387.97 300.323L387.979 175.7L370.579 185.735V310.366Z" fill="white"/>
<path d="M387.979 175.7L374.927 168.164L357.526 178.207L370.579 185.735L387.979 175.7Z" fill="#3D96F5"/>
<path opacity="0.75" d="M387.979 175.7L374.927 168.164L357.526 178.207L370.579 185.735L387.979 175.7Z" fill="white"/>
<path opacity="0.3" d="M370.812 186.067L387.979 175.7L370.399 185.384C368.501 184.318 366.599 183.258 364.695 182.204L357.508 178.207L364.542 182.42C366.465 183.579 368.387 184.728 370.327 185.869C370.264 188.169 370.201 217.032 370.184 219.34C370.166 221.649 370.184 293.972 370.184 296.317C370.184 298.661 370.228 300.997 370.3 303.341C370.372 305.686 370.435 308.031 370.57 310.375C370.705 308.031 370.785 305.686 370.839 303.341C370.893 300.997 370.938 298.661 370.956 296.317C370.974 293.972 370.956 221.676 370.956 219.34C370.956 217.005 370.866 188.304 370.812 186.067Z" fill="white"/>
<path opacity="0.5" d="M67.7496 108.983L17.3544 138.079L42.552 91.7893L67.7496 108.983Z" fill="#3D96F5"/>
<path opacity="0.3" d="M67.7496 130.138L17.3544 159.234L42.552 112.945L67.7496 130.138Z" fill="#3D96F5"/>
<path opacity="0.15" d="M67.7496 151.302L17.3544 180.399L42.552 134.109L67.7496 151.302Z" fill="#3D96F5"/>
<path opacity="0.2" d="M182.32 211.597C187.115 207.656 192.44 204.408 198.139 201.949C205.424 198.643 214.174 195.724 220.256 192.131C228.152 187.459 231.17 181.836 230.595 176.177C230.263 172.97 228.358 169.412 221.064 167.05C218.933 166.351 216.719 165.934 214.479 165.81C211.34 165.698 208.206 166.136 205.218 167.104C191.833 171.155 186.147 177.38 181.655 183.426C177.164 189.472 171.702 192.984 161.892 198.697C157.697 201.132 153.197 203.521 149.226 205.991L149.136 206.054C147.125 207.177 145.193 208.435 143.351 209.818C140.836 211.965 138.626 214.184 137.719 216.529C136.812 218.873 137.261 221.362 139.938 223.715C140.824 224.506 141.891 225.064 143.046 225.341C144.517 225.694 146.024 225.881 147.537 225.898C150.513 225.997 153.49 225.762 156.413 225.197C158.724 224.732 160.993 224.073 163.195 223.23C170.249 220.599 176.739 216.651 182.32 211.597Z" fill="black"/>
<path d="M141.258 92.3732C140.522 94.3225 138.384 98.4547 138.518 98.9757C138.905 100.266 138.948 101.634 138.644 102.946C138.455 103.943 129.832 107.33 129.832 107.33L129.625 105.965C129.484 105.052 129.603 104.118 129.966 103.27C131.613 99.5724 132.846 95.704 133.64 91.7354L141.258 92.3732Z" fill="#FFA8A7"/>
<path d="M138.743 102.066L129.625 106.171L129.796 107.33C129.796 107.33 138.419 103.943 138.608 102.946C138.743 102.623 138.743 102.344 138.743 102.066Z" fill="#F28F8F"/>
<path d="M111.12 119.601L108.38 147.754C108.245 149.119 109.135 150 110.248 150.808L113.042 152.812C113.351 153.079 113.714 153.278 114.106 153.394C114.498 153.511 114.91 153.542 115.315 153.485C115.883 153.397 116.436 153.231 116.959 152.991H117.022L117.192 152.91L149.154 138.385C150.3 137.862 151.288 137.047 152.019 136.022C152.751 134.998 153.2 133.799 153.322 132.546L155.811 106.89C155.825 106.57 155.764 106.25 155.631 105.958C155.498 105.666 155.298 105.41 155.047 105.21L150.277 101.805C150.012 101.64 149.711 101.537 149.4 101.506C149.088 101.475 148.774 101.516 148.481 101.626L112.198 118.11C111.911 118.254 111.664 118.467 111.479 118.73C111.291 118.987 111.168 119.286 111.12 119.601Z" fill="#323A3D"/>
<path d="M111.12 119.601L108.38 147.754C108.245 149.119 109.135 150 110.248 150.808L113.042 152.812C113.351 153.079 113.714 153.278 114.106 153.394C114.498 153.511 114.91 153.542 115.315 153.485C115.883 153.397 116.436 153.231 116.959 152.991C115.719 153.431 114.857 152.722 114.992 151.329L117.57 124.802C117.634 124.333 117.81 123.887 118.082 123.5L111.452 118.757C111.278 119.009 111.164 119.298 111.12 119.601Z" fill="#263238"/>
<path d="M117.57 124.793C117.645 124.314 117.831 123.859 118.114 123.464C118.396 123.07 118.766 122.747 119.196 122.52L153.457 106.953C154.814 106.333 155.811 107.043 155.658 108.525L153.331 132.528C153.208 133.782 152.757 134.981 152.024 136.006C151.291 137.031 150.301 137.845 149.154 138.367L117.183 152.892C115.827 153.512 114.839 152.803 114.983 151.32L117.57 124.793Z" fill="#455A64"/>
<path d="M154.347 108.076C154.341 108.18 154.341 108.285 154.347 108.39L152.011 132.393C151.91 133.412 151.545 134.386 150.95 135.22C150.356 136.054 149.554 136.717 148.624 137.145L116.662 151.671C116.56 151.718 116.451 151.751 116.339 151.769C116.339 151.769 116.339 151.617 116.339 151.455L118.917 124.928C118.955 124.679 119.052 124.443 119.198 124.238C119.345 124.034 119.538 123.867 119.762 123.751L154.014 108.174C154.117 108.127 154.226 108.094 154.338 108.076M154.338 106.728C154.025 106.738 153.719 106.814 153.439 106.953L119.169 122.52C118.74 122.747 118.369 123.07 118.087 123.464C117.805 123.859 117.618 124.314 117.543 124.793L114.992 151.347C114.884 152.461 115.414 153.144 116.267 153.144C116.579 153.132 116.885 153.056 117.165 152.919L149.127 138.394C150.274 137.872 151.264 137.058 151.997 136.033C152.73 135.008 153.181 133.809 153.304 132.555L155.631 108.552C155.748 107.438 155.209 106.755 154.356 106.755L154.338 106.728Z" fill="#323A3D"/>
<path d="M151.831 102.91L115.495 119.61C114.982 119.847 114.54 120.213 114.212 120.673C113.884 121.133 113.682 121.671 113.626 122.233L110.805 151.204L111.3 151.563L114.147 122.287C114.196 121.816 114.365 121.366 114.639 120.981C114.913 120.595 115.282 120.287 115.71 120.086L152.325 103.261L151.831 102.91Z" fill="#3D96F5"/>
<path opacity="0.2" d="M114.21 120.679C113.882 121.136 113.68 121.673 113.626 122.233L110.805 151.204L111.3 151.563L114.147 122.287C114.198 121.818 114.369 121.37 114.641 120.984L114.21 120.679Z" fill="black"/>
<path opacity="0.2" d="M114.641 120.984C114.912 120.596 115.281 120.286 115.71 120.086L152.325 103.261L151.831 102.91L115.495 119.61C114.98 119.848 114.538 120.217 114.21 120.679" fill="black"/>
<path d="M139.264 105.318L138.842 109.675L140.45 110.824L141.016 105.039C141.016 104.743 140.845 104.599 140.575 104.725L139.264 105.318Z" fill="#3D96F5"/>
<path opacity="0.4" d="M139.264 105.318L138.842 109.675L140.45 110.824L141.016 105.039C141.016 104.743 140.845 104.599 140.575 104.725L139.264 105.318Z" fill="black"/>
<path d="M126.867 108.462L126.176 115.514L127.712 116.619L128.87 116.089L129.436 110.303C129.461 110.142 129.523 109.988 129.619 109.856C129.714 109.723 129.839 109.615 129.984 109.54L138.743 105.533L140.54 104.707C140.809 104.581 141.007 104.707 140.98 105.021L140.414 110.807L141.573 110.285L142.264 103.225V103.135C142.257 102.987 142.218 102.842 142.15 102.71C142.082 102.578 141.986 102.463 141.869 102.371L141.222 101.904C141.089 101.823 140.939 101.773 140.783 101.757C140.628 101.741 140.471 101.761 140.324 101.814L127.415 107.68C127.267 107.756 127.14 107.867 127.045 108.003C126.949 108.14 126.888 108.297 126.867 108.462Z" fill="#3D96F5"/>
<path opacity="0.2" d="M128.403 109.558L127.712 116.619L128.87 116.089L129.436 110.303C129.461 110.142 129.523 109.988 129.619 109.856C129.714 109.723 129.839 109.615 129.984 109.54L138.743 105.533L140.54 104.707C140.809 104.581 141.007 104.707 140.98 105.021L140.414 110.807L141.573 110.285L142.264 103.225V103.135C142.264 102.901 142.067 102.803 141.824 102.91L128.915 108.776C128.776 108.858 128.657 108.972 128.568 109.107C128.479 109.243 128.423 109.397 128.403 109.558Z" fill="black"/>
<path d="M137.378 104.994C137.565 104.996 137.747 105.055 137.899 105.165C138.018 104.968 138.187 104.806 138.389 104.694C138.591 104.582 138.818 104.525 139.048 104.527C139.15 104.515 139.252 104.535 139.341 104.585C139.43 104.635 139.501 104.712 139.542 104.806C139.556 104.871 139.556 104.938 139.542 105.003C139.483 105.656 139.393 106.303 139.273 106.944C139.251 107.42 139.063 107.875 138.743 108.228C138.595 108.353 138.417 108.437 138.226 108.473C138.036 108.51 137.84 108.496 137.656 108.435C137.52 108.743 137.268 108.985 136.955 109.109C136.883 109.109 135.976 109.216 136.057 109.109C135.879 109.489 135.582 109.802 135.211 110C134.84 110.198 134.415 110.269 134 110.205C134 110.205 133.757 110.905 132.473 110.753C132.062 110.661 131.679 110.472 131.358 110.199C131.037 109.927 130.788 109.58 130.631 109.189C130.703 108.803 130.838 108.642 131.278 108.471C131.494 108.381 131.727 108.291 131.943 108.183C132.223 107.977 132.464 107.722 132.652 107.429C132.86 107.157 133.131 106.941 133.443 106.8C133.601 106.734 133.774 106.713 133.943 106.739C134.113 106.764 134.272 106.835 134.404 106.944C134.46 106.68 134.598 106.441 134.799 106.261C134.956 106.069 135.176 105.939 135.419 105.893C135.491 105.893 136.075 105.983 136.003 106.135C136.158 105.747 136.428 105.415 136.776 105.183C136.956 105.068 137.164 105.003 137.378 104.994Z" fill="#FFA8A7"/>
<path d="M142.543 91.7174C141.986 94.2956 140.584 96.6132 141.204 98.7781C141.626 100.242 141.743 100.09 141.572 101.581C141.478 102.248 141.315 102.905 141.087 103.539C140.98 103.845 140.872 104.159 140.755 104.437C140.647 104.768 140.511 105.09 140.351 105.399C140.109 105.778 139.836 106.135 139.533 106.468C139.049 107.082 138.484 107.629 137.853 108.094L137.746 108.156C137.663 108.177 137.576 108.174 137.494 108.147C137.413 108.12 137.341 108.07 137.288 108.004C136.722 107.384 137.144 106.486 137.44 105.866C137.843 105.197 138.083 104.443 138.141 103.665C138.141 103.566 138.141 103.261 138.141 102.767L137.341 102.569C137.341 102.569 134.763 101.949 134.718 100.701C134.673 99.4519 135.662 98.2571 136.407 96.7929C137.153 95.3286 137.458 94.3764 138.204 90.6035L142.543 91.7174Z" fill="#FFA8A7"/>
<path d="M140.351 105.435C139.751 106.386 139.015 107.246 138.168 107.986C138.024 108.085 137.908 108.273 137.647 108.291C136.452 108.067 137.018 106.495 137.422 105.785C137.809 105.15 138.055 104.439 138.141 103.701C138.127 104.455 137.923 105.193 137.548 105.848C137.234 106.495 136.65 107.824 137.647 108.12C138.685 107.374 139.596 106.464 140.342 105.426L140.351 105.435Z" fill="#F28F8F"/>
<path d="M137.943 102.56C137.629 102.398 137.288 102.282 136.991 102.093C136.76 101.938 136.562 101.74 136.407 101.509C135.973 100.956 135.758 100.262 135.805 99.5597C135.805 99.5597 135.805 99.4429 135.742 99.5597C135.627 99.9466 135.599 100.354 135.659 100.753C135.72 101.152 135.868 101.533 136.093 101.868C136.293 102.181 136.564 102.443 136.883 102.632C137.045 102.731 137.22 102.804 137.404 102.848C137.583 102.919 137.783 102.919 137.961 102.848C138.033 102.74 137.997 102.587 137.943 102.56Z" fill="#F28F8F"/>
<path d="M157.85 40.0017C152.289 39.5705 147.843 40.6754 144.959 47.9966C141.716 56.2701 138.509 62.6481 136.874 68.6578C135.24 74.6675 132.886 93.7027 132.886 93.7027C132.886 93.7027 137.09 97.3678 141.716 95.6969L148.723 74.0656L157.823 56.5575L157.85 40.0017Z" fill="#E6E6E6"/>
<path d="M221.064 176.581C221.45 176.311 222.025 177.308 222.034 177.937C222.034 179.734 220.867 182.366 218.243 184.701C215.62 187.037 209.323 189.507 207.509 190.424C205.694 191.34 203.143 193.954 201.535 195.23C198.597 197.538 195.902 197.88 194.268 197.431C193.976 197.32 193.711 197.149 193.489 196.93C193.268 196.71 193.095 196.446 192.983 196.155C192.327 194.915 192.3 194.61 192.435 194.547L221.064 176.581Z" fill="#323A3D"/>
<path d="M190.845 190.783C191.342 192.405 192.075 193.946 193.019 195.356C193.475 195.648 193.987 195.842 194.523 195.922C195.059 196.003 195.605 195.969 196.127 195.823C198.577 195.228 200.823 193.987 202.631 192.229C203.907 191.013 205.346 189.979 206.907 189.157C208.802 188.259 213.069 186.39 214.92 185.393C216.657 184.46 218.185 183.183 219.411 181.638C220.309 180.399 221.45 178.126 221.334 176.958C220.507 174.533 219.537 173.365 217.866 173.311C216.195 173.257 214.084 174.209 211.335 175.458C210.509 175.835 209.485 176.356 209.036 176.536C207.329 177.255 205.766 177.973 204.544 178.575C203.517 179.158 202.372 179.505 201.193 179.59C200.653 179.633 200.115 179.491 199.666 179.186C199.1 178.764 198.651 177.937 198.13 178.162C198.13 178.162 189.929 184.755 189.246 185.241C188.563 185.726 189.56 186.714 190.845 190.783Z" fill="#455A64"/>
<path d="M209.611 176.087C210.007 176.145 210.386 176.286 210.725 176.5C211.091 176.735 211.429 177.012 211.731 177.326C212.108 177.722 211.587 178.126 211.066 177.722C210.655 177.369 210.202 177.067 209.718 176.823C209.373 176.662 208.984 176.621 208.613 176.707L208.128 176.913C208.066 176.5 209.134 176.051 209.611 176.087Z" fill="#FAFAFA"/>
<path d="M205.263 177.883C205.405 177.78 205.567 177.707 205.739 177.67C205.91 177.633 206.088 177.632 206.26 177.668C206.7 177.757 207.107 177.966 207.437 178.27C207.842 178.628 208.218 179.018 208.56 179.438C208.757 179.716 208.057 180.093 207.796 179.806C207.464 179.441 207.113 179.093 206.745 178.764C206.547 178.602 205.757 178.027 205.227 178.216L205.002 178.324C204.939 178.225 205.002 178.072 205.128 178C205.169 177.957 205.214 177.917 205.263 177.883Z" fill="#FAFAFA"/>
<path d="M202.828 179.195C203.055 179.114 203.302 179.114 203.529 179.195C203.812 179.32 204.073 179.49 204.302 179.698C204.707 180.094 205.053 180.548 205.326 181.045C205.55 181.423 204.796 181.71 204.634 181.468C204.282 180.785 203.755 180.209 203.107 179.797C202.813 179.626 202.484 179.525 202.146 179.5C202.146 179.428 202.226 179.357 202.298 179.33C202.37 179.303 202.703 179.195 202.828 179.195Z" fill="#FAFAFA"/>
<path d="M183.497 175.817C183.497 175.817 188.096 183.965 189.372 185.78C189.776 186.363 191.079 185.959 191.824 185.887C192.716 185.737 193.627 185.737 194.519 185.887C196.891 186.552 198.229 186.265 197.672 183.103C197.555 182.456 197.771 182.025 198.57 181.764C199.172 181.652 199.747 181.429 200.268 181.108C200.313 181.009 200.196 180.911 200.098 180.866C199.7 180.706 199.341 180.463 199.045 180.153C198.749 179.843 198.523 179.474 198.382 179.069C196.738 175.521 195.247 168.2 195.247 168.2L183.497 175.817Z" fill="#FFA8A7"/>
<path d="M148.624 194.035C150.035 191.78 150.798 187.441 153.897 178.611L165.405 187.046L158.811 199.856C158.581 200.437 158.407 201.039 158.29 201.653C156.754 203.907 148.624 194.035 148.624 194.035Z" fill="#FFA8A7"/>
<path d="M144.348 198.85C144.348 198.715 144.304 197.655 144.348 197.529C144.654 196.379 145.364 196.065 146.271 195.427C147.188 194.813 148.029 194.092 148.777 193.28C149.083 192.858 149.136 192.643 149.613 192.454C150.226 192.261 150.873 192.203 151.511 192.285C152.149 192.367 152.761 192.587 153.305 192.93C155.91 194.304 156.709 195.957 156.556 197.745C156.449 199.11 156.332 200.925 157.536 201.733C158.039 202.075 158.829 199.937 158.829 199.937C159.566 201.185 158.524 202.901 157.985 205.425C157.664 206.815 157.64 208.257 157.913 209.657C158.173 211.866 158.479 211.857 159.656 212.01C160.662 212.145 163.536 211.956 165.279 213.169C165.949 213.553 166.482 214.138 166.804 214.84C167.126 215.542 167.221 216.327 167.076 217.086C166.761 217.939 164.147 222.062 154.598 220.517C151.822 220.077 146.001 215.72 146.091 215.307C146.14 214.892 146.14 214.473 146.091 214.058C146.091 213.079 146.019 212.109 145.974 211.13C146.011 210.195 145.957 209.26 145.813 208.336C145.638 207.576 145.518 206.804 145.453 206.027C145.274 204.069 145.091 202.108 144.905 200.143C144.78 199.533 144.277 199.407 144.348 198.85Z" fill="#455A64"/>
<path d="M143.154 198.464C142.255 199.362 142.776 202.057 144.052 205.192C144.618 206.602 145.66 209.028 145.354 211.606C145.049 214.184 144.986 215.397 145.651 216.609C146.693 218.496 152.245 220.912 155.532 221.676C153.558 218.898 152.409 215.619 152.218 212.217C151.894 206.53 151.454 202.865 148.858 200.341C145.534 197.161 143.154 198.464 143.154 198.464Z" fill="#263238"/>
<path d="M167.022 217.041C167.022 217.041 165.108 220.634 157.715 220.517C154.805 220.472 153.224 219.053 153.17 214.624C153.089 209.297 152.658 203.916 150.933 201.266C149.208 198.616 146.441 197.341 144.33 197.529C143.838 197.668 143.417 197.989 143.154 198.428C143.154 198.428 145.283 197.727 148.597 200.476C151.05 202.506 151.706 206.764 151.67 212.028C151.67 214.292 151.517 216.87 152.182 218.586C152.485 219.345 152.962 220.022 153.575 220.562C154.189 221.102 154.921 221.49 155.712 221.694C159.727 222.826 165.234 220.966 166.618 219.269C166.842 218.949 166.995 218.584 167.065 218.199C167.135 217.814 167.12 217.419 167.022 217.041Z" fill="#323A3D"/>
<path d="M158.137 211.004C158.441 211.22 158.655 211.54 158.739 211.902C158.775 212.356 158.689 212.811 158.49 213.22C158.291 213.629 157.986 213.977 157.607 214.229C157.167 214.498 156.781 214.409 157.482 213.474C157.93 212.73 158.157 211.873 158.137 211.004Z" fill="#FAFAFA"/>
<path d="M157.742 208.246C157.742 208.246 157.976 208.39 158.039 209.145C157.922 210.083 157.445 210.94 156.709 211.534C155.928 211.911 156.35 211.013 156.709 210.573C157.222 209.884 157.575 209.089 157.742 208.246Z" fill="#FAFAFA"/>
<path d="M158.003 205.192C158.003 205.192 158.254 205.264 158.003 206.288C157.641 206.926 157.074 207.423 156.395 207.698C155.892 207.761 155.649 207.51 156.269 207.06C156.709 206.71 157.913 205.686 158.003 205.192Z" fill="#FAFAFA"/>
<path d="M176.867 91.2682C176.867 91.2682 181.359 96.6581 184.054 106.647C186.495 115.965 188.358 125.424 189.632 134.971C190.279 139.238 190.89 143.352 192.381 151.563C193.791 159.36 197.295 176.221 197.295 176.221C197.295 176.221 196.684 178.8 193.208 180.318C190.926 181.216 188.454 181.525 186.021 181.216C186.021 181.216 183.641 177.147 178.682 167.58C176.41 163.42 174.867 158.902 174.118 154.222C173.524 151.044 173.182 147.824 173.094 144.592L154.437 112.989C152.822 111.078 151.557 108.898 150.7 106.549C148.067 99.9459 151.427 90.4238 151.427 90.4238L176.867 91.2682Z" fill="#323A3D"/>
<path d="M176.867 91.2682C176.867 91.2682 181.359 96.6581 184.054 106.647C186.495 115.965 188.358 125.424 189.632 134.971C190.279 139.238 190.89 143.352 192.381 151.563C193.791 159.36 197.295 176.221 197.295 176.221C197.295 176.221 196.684 178.8 193.208 180.318C190.926 181.216 188.454 181.525 186.021 181.216C186.021 181.216 183.641 177.147 178.682 167.58C176.41 163.42 174.867 158.902 174.118 154.222C173.524 151.044 173.182 147.824 173.094 144.592L154.437 112.989C152.822 111.078 151.557 108.898 150.7 106.549C148.067 99.9459 151.427 90.4238 151.427 90.4238L176.867 91.2682Z" fill="#323A3D"/>
<path d="M189.255 132.537C188.042 123.81 186.302 115.164 184.045 106.647C183.311 103.922 182.359 101.26 181.197 98.6883L157.607 98.275C155.811 102.38 154.463 107.51 158.308 113.78L159.314 121.254L173.067 144.61C173.155 147.842 173.497 151.062 174.091 154.24C174.84 158.92 176.383 163.438 178.655 167.598L179.086 168.424C180.853 165.895 182.429 163.237 183.802 160.474C185.15 157.276 186.084 151.096 187.494 143.28C188.006 140.415 188.68 136.238 189.255 132.537Z" fill="#263238"/>
<path d="M161.344 91.2682C158.628 94.4608 157.031 98.4552 156.799 102.641C156.615 106.699 157.89 110.688 160.392 113.888C161.29 127.578 164.03 153.943 164.03 153.943C160.437 157.671 159.476 160.07 157.383 166.753C156.116 170.805 152.406 183.058 150.969 187.63C159.745 188.007 161.398 195.526 161.398 195.526C161.398 195.526 172.034 178.377 177.406 168.694C181.377 161.507 181.898 159.827 182.958 155.56C184.018 151.293 184.242 147.341 185.545 138.439C186.847 129.536 189.138 117.256 189.803 108.489C190.468 99.7213 190.557 90.4238 190.557 90.4238L161.344 91.2682Z" fill="#323A3D"/>
<path d="M149.738 101.994C150.786 101.655 151.704 101.003 152.37 100.126C152.684 99.5155 152.913 98.8659 153.053 98.1943C153.32 97.064 153.69 95.9605 154.158 94.8975L154.832 95.2029C154.39 96.2322 154.032 97.2957 153.763 98.3829C153.612 99.1285 153.355 99.8486 152.999 100.521C152.208 101.592 151.083 102.369 149.801 102.731C149.783 102.488 149.756 102.246 149.738 101.994Z" fill="#263238"/>
<path d="M167.327 109.836C167.169 109.853 167.009 109.853 166.851 109.836C165.773 109.603 164.938 108.875 163.258 106.746C161.991 105.129 162.117 103.961 162.359 102.039C162.44 101.329 163.186 97.5475 163.258 96.5504L163.967 96.9457C163.967 97.9608 163.204 101.437 163.123 102.12C162.916 104.033 162.818 104.914 163.896 106.297C165.432 108.264 166.168 108.92 167.049 109.109C168.977 109.152 170.891 108.768 172.654 107.986C173.229 107.591 174.199 102.596 174.765 98.2841L175.502 98.383C175.214 100.584 174.19 107.824 173.076 108.597C171.962 109.369 168.818 109.881 167.327 109.836Z" fill="#263238"/>
<path d="M151.239 43.9723C148.732 48.7603 149.038 53.0542 149.765 59.7825C150.43 65.9899 150.897 69.8256 151.472 77.4972C151.914 82.2665 151.742 87.0729 150.96 91.7983C150.96 91.7983 151.203 95.5083 162.135 98.2931C181.341 103.189 190.558 97.6104 190.558 97.6104C190.558 97.6104 191.025 86.8307 190.279 72.6463C189.444 56.7912 189.165 54.4735 187.944 50.7006C186.972 48.4881 185.224 46.708 183.03 45.697C181.116 44.7987 176.553 43.3435 173.84 42.2924C169.471 40.7692 164.875 39.9977 160.249 40.0107C154.778 39.6424 152.541 41.484 151.239 43.9723Z" fill="#F5F5F5"/>
<path d="M158.901 40.8552C159.314 40.8552 159.746 40.8552 160.186 40.8552H160.509C164.939 40.87 169.335 41.6229 173.517 43.083C174.622 43.5052 176.032 43.9813 177.397 44.4933C179.437 45.212 181.548 45.9576 182.652 46.4606C184.647 47.3608 186.244 48.9579 187.144 50.9522C188.303 54.5454 188.572 56.4947 189.426 72.6194C190.064 84.8364 189.803 94.6729 189.722 96.9816C188.447 97.6014 184.216 99.3352 176.984 99.3352C172.05 99.3174 167.137 98.6836 162.36 97.4487C153.314 95.149 152.029 92.2834 151.876 91.8253C152.634 87.073 152.799 82.2453 152.37 77.4523C151.885 70.9575 151.472 67.2026 150.96 62.4505L150.655 59.7017C149.936 52.9913 149.649 48.9759 152.038 44.4304C152.936 42.6877 154.472 40.9091 158.901 40.9091M158.901 40.0107C154.41 40.0107 152.433 41.7445 151.239 44.0172C148.732 48.8052 149.038 53.0991 149.765 59.8275C150.43 66.0348 150.897 69.8706 151.472 77.5421C151.914 82.3114 151.742 87.1178 150.96 91.8432C150.96 91.8432 151.203 95.5533 162.135 98.338C166.967 99.6217 171.94 100.298 176.939 100.35C186.111 100.35 190.558 97.6553 190.558 97.6553C190.558 97.6553 191.025 86.8756 190.279 72.6913C189.444 56.8361 189.165 54.5185 187.944 50.7456C186.972 48.533 185.224 46.753 183.03 45.742C181.116 44.8437 176.553 43.3884 173.84 42.3374C169.555 40.8377 165.049 40.0665 160.509 40.0557H160.249C159.773 40.0557 159.35 40.0557 158.901 40.0557V40.0107Z" fill="#E0E0E0"/>
<path d="M174.316 36.8667L173.777 42.6967C170.579 43.3884 162.827 42.8944 161.372 40.9001L161.677 35.5103L174.316 36.8667Z" fill="#FFA8A7"/>
<path d="M182.625 21.9188C182.625 21.9188 184.108 23.0417 185.231 26.9134L183.039 28.5214C182.32 25.7995 181.539 23.0327 182.625 21.9188Z" fill="#F28F8F"/>
<path d="M176.966 11.0851C182.419 11.4444 183.326 14.2831 182.518 23.5716C184.431 32.393 181.79 35.8875 180.649 37.0463C178.089 38.4207 175.475 38.6543 171.927 37.729C169.232 37.0193 162.378 34.9892 159.512 30.7402C156.134 25.7455 155.254 18.1638 158.847 15.3162C163.896 11.3187 174.801 10.9414 176.966 11.0851Z" fill="#FFA8A7"/>
<path d="M180.649 37.0373C180.02 37.6751 176.382 38.8339 174.136 38.5824L174.316 36.8666C176.409 37.2147 178.54 37.2721 180.649 37.0373Z" fill="#F28F8F"/>
<path d="M177.541 17.4991C177.426 17.8992 177.254 18.2805 177.029 18.631C176.393 19.4995 175.562 20.2071 174.604 20.6971C175.006 21.832 175.251 23.0169 175.331 24.2185C175.363 24.6067 175.275 24.9953 175.08 25.3324C175.017 25.4551 174.922 25.5582 174.805 25.6302C174.688 25.7022 174.553 25.7403 174.415 25.7403C174.277 25.7403 174.142 25.7022 174.025 25.6302C173.908 25.5582 173.813 25.4551 173.75 25.3324C173.459 24.6725 173.088 24.051 172.645 23.4819C172.075 22.817 171.278 22.388 170.408 22.2781C167.121 21.9547 167.112 27.0751 168.423 28.8088C170.579 31.6385 172.358 29.8239 172.358 29.8239C172.358 29.8239 173.463 34.1987 170.292 36.1121C170.292 36.1121 165.189 37.3697 161.704 35.6001C160.114 32.3212 157.958 30.4078 156.251 26.9134C153.251 20.7959 154.688 15.433 156.727 14.3371C156.152 11.4805 157.895 8.67772 161.587 6.935C165.279 5.19228 170.256 6.09059 174.163 6.71042C176.471 7.07998 178.83 6.94513 181.08 6.31516C181.395 6.2164 181.721 6.15608 182.051 6.1355C182.22 6.12227 182.391 6.15052 182.547 6.21781C182.704 6.2851 182.842 6.38941 182.949 6.52177C183.057 6.70886 183.114 6.92109 183.114 7.13712C183.114 7.35315 183.057 7.56537 182.949 7.75246C182.721 8.11608 182.517 8.49417 182.338 8.88433C182.747 8.82286 183.164 8.90004 183.524 9.10356C183.884 9.30707 184.165 9.6252 184.323 10.0072C184.553 10.5414 184.64 11.1263 184.576 11.7044C184.511 12.2824 184.297 12.8337 183.955 13.304C183.255 14.2372 182.261 14.9079 181.134 15.2084C180.013 15.5044 178.853 15.6316 177.694 15.5857C177.802 16.2263 177.75 16.8839 177.541 17.4991Z" fill="#263238"/>
<path d="M174.02 40.2083C174.855 40.2083 175.762 41.8882 177.388 43.586C173.833 45.328 169.817 45.9003 165.917 45.2209C159.045 44.1878 157.724 40.0107 157.724 40.0107C157.724 40.0107 159.296 38.798 160.123 37.9895C161.129 37.0014 161.623 36.9834 161.623 36.9834L161.542 38.3937C161.542 38.3937 162.863 39.7592 167.049 40.6036C169.362 41.1434 171.782 41.0062 174.02 40.2083Z" fill="#E6E6E6"/>
<path d="M198.337 80.6592C198.337 80.6592 196.37 70.7778 194.941 63.9057C193.513 57.0336 194.043 49.0297 183.191 46.2988C181.395 48.9938 180.227 53.2428 180.829 58.4799C181.431 63.7171 183.829 71.9546 184.422 74.7124C185.501 79.021 187.266 83.128 189.65 86.8755C193.091 91.9959 199.532 100.656 202.119 103.836C203.323 105.309 204.365 106.8 205.479 108.327C206.727 109.874 208.081 111.333 209.53 112.693C210.202 113.366 211.038 113.852 211.955 114.103C212.539 114.265 213.123 114.04 213.671 114.193C214.219 114.346 214.569 114.876 215.27 114.894C215.971 114.912 216.636 114.4 217.318 114.463C218.027 114.611 218.744 114.713 219.465 114.768C220.068 114.674 220.685 114.73 221.262 114.93C221.783 115.145 222.519 115.828 223.121 115.487C223.723 115.145 223.588 114.355 223.355 113.744C222.8 112.588 221.886 111.643 220.75 111.049C219.653 110.343 218.516 109.701 217.345 109.127C216.222 108.588 215.232 107.809 214.444 106.845C213.887 106.216 213.545 105.255 214.659 105.246C215.998 105.246 217.669 105.74 218.89 104.887C219.735 104.303 219.447 103.557 218.63 103.198C217.281 102.614 215.977 101.929 214.731 101.15C213.456 100.359 212.279 99.4429 210.994 98.6883C210.305 98.3033 209.59 97.9642 208.856 97.6732C206.835 96.8288 205.955 94.8076 204.931 93.02C203.511 90.5586 199.927 83.974 198.337 80.6592Z" fill="#FFA8A7"/>
<path d="M182.67 70.1311C182.67 70.1311 180.766 62.6482 180.272 59.5131C179.778 56.378 179.508 48.2483 182.751 45.5803C185.087 46.1463 191.348 47.2602 193.154 53.1531C194.959 59.046 197.645 74.5418 197.645 74.5418L205.802 93.7926C205.802 93.7926 205.802 95.5893 202.415 97.8979C199.029 100.207 197.259 99.425 197.259 99.425C197.259 99.425 190.531 89.2382 187.27 84.2167C185.096 80.848 184.557 78.5842 182.67 70.1311Z" fill="#E6E6E6"/>
<path d="M121.091 37.9537V26.3745L130.829 25.3504C131.022 25.3238 131.219 25.365 131.386 25.4672L136.488 28.4227C136.612 28.4892 136.718 28.5838 136.798 28.6988C136.879 28.8138 136.931 28.946 136.951 29.0848C136.971 29.2237 136.958 29.3653 136.914 29.4983C136.869 29.6314 136.794 29.7521 136.695 29.851L126.167 40.9182L121.091 37.9537Z" fill="#3D96F5"/>
<path d="M90.5486 64.0765V28.2788C90.5626 27.9944 90.644 27.7173 90.7862 27.4706C90.9283 27.2238 91.1271 27.0143 91.366 26.8595L120.579 10.0251C120.831 9.89731 121.11 9.83069 121.392 9.83069C121.675 9.83069 121.953 9.89731 122.205 10.0251L126.75 12.7201C126.988 12.8759 127.185 13.0858 127.325 13.3326C127.466 13.5793 127.546 13.8558 127.559 14.1394V49.964C127.545 50.2485 127.464 50.5255 127.321 50.7723C127.179 51.019 126.98 51.2285 126.742 51.3834L97.5285 68.2087C97.2765 68.3365 96.998 68.4032 96.7155 68.4032C96.433 68.4032 96.1544 68.3365 95.9025 68.2087L91.3571 65.5138C91.1173 65.3562 90.9188 65.1434 90.7782 64.8934C90.6375 64.6433 90.5588 64.3632 90.5486 64.0765Z" fill="#3D96F5"/>
<path opacity="0.15" d="M97.4208 68.2448C97.0345 68.3975 96.7381 68.1819 96.7381 67.7148V31.8722C96.7476 31.5862 96.8311 31.3077 96.9806 31.0637L90.8002 27.4705C90.66 27.7076 90.5827 27.9766 90.5757 28.252V64.0766C90.5887 64.3602 90.6687 64.6367 90.8093 64.8835C90.9498 65.1302 91.1468 65.3401 91.3841 65.4959L95.9296 68.1909C96.1598 68.3062 96.412 68.3707 96.6693 68.38C96.9266 68.3892 97.1829 68.3431 97.4208 68.2448Z" fill="black"/>
<path d="M135.958 28.279L127.559 29.1773V14.1126C127.559 13.5916 127.191 13.385 126.742 13.6455L97.5285 30.4798C97.2907 30.6338 97.0927 30.8418 96.9506 31.0869C96.8086 31.3321 96.7265 31.6073 96.7111 31.8902V67.7148C96.7111 68.2358 97.0794 68.4424 97.5285 68.1819L126.742 51.3566C126.981 51.2017 127.179 50.9922 127.321 50.7455C127.464 50.4987 127.545 50.2217 127.559 49.9372V39.4899L136.713 29.851C136.867 29.7232 136.975 29.5473 137.018 29.3514C137.061 29.1554 137.037 28.9507 136.95 28.7699C136.864 28.589 136.719 28.4424 136.539 28.3534C136.359 28.2645 136.155 28.2382 135.958 28.279Z" fill="#3D96F5"/>
<path opacity="0.35" d="M135.958 28.279L127.559 29.1773V14.1126C127.559 13.5916 127.191 13.385 126.742 13.6455L97.5285 30.4798C97.2907 30.6338 97.0927 30.8418 96.9506 31.0869C96.8086 31.3321 96.7265 31.6073 96.7111 31.8902V67.7148C96.7111 68.2358 97.0794 68.4424 97.5285 68.1819L126.742 51.3566C126.981 51.2017 127.179 50.9922 127.321 50.7455C127.464 50.4987 127.545 50.2217 127.559 49.9372V39.4899L136.713 29.851C136.867 29.7232 136.975 29.5473 137.018 29.3514C137.061 29.1554 137.037 28.9507 136.95 28.7699C136.864 28.589 136.719 28.4424 136.539 28.3534C136.359 28.2645 136.155 28.2382 135.958 28.279Z" fill="white"/>
<path d="M120.642 44.5023C120.677 44.4389 120.695 44.3679 120.695 44.2957C120.695 44.2235 120.677 44.1525 120.642 44.0891L119.393 42.6967C119.243 42.4581 119.15 42.1874 119.124 41.9065C119.097 41.6256 119.137 41.3423 119.241 41.0798C119.392 40.4386 119.748 39.8645 120.256 39.4448L122.259 37.9896C122.386 37.882 122.469 37.7318 122.493 37.5674C122.6 36.7152 122.654 35.8571 122.654 34.9982C122.654 34.1933 122.603 33.3892 122.502 32.5907C122.502 32.456 122.385 32.3931 122.268 32.438L120.274 33.2824C120.178 33.33 120.074 33.3557 119.967 33.3578C119.86 33.3599 119.755 33.3382 119.657 33.2943C119.56 33.2505 119.474 33.1855 119.405 33.1042C119.336 33.0229 119.286 32.9273 119.259 32.8243C119.259 32.8243 119.259 32.8243 119.259 32.7794C119.081 32.1819 119.138 31.5388 119.42 30.9828L120.669 28.1621C120.702 28.0966 120.719 28.0243 120.719 27.951C120.719 27.8776 120.702 27.8053 120.669 27.7399C120.029 26.8175 119.128 26.1074 118.082 25.7007C117.983 25.7007 117.857 25.7007 117.767 25.8803L116.186 28.4585C116.06 28.7056 115.879 28.9202 115.656 29.0854C115.433 29.2506 115.175 29.3619 114.902 29.4107C114.462 29.4107 114.156 29.0604 114.111 28.5124L113.887 25.9702C113.887 25.8175 113.788 25.7546 113.671 25.7905C112.315 26.2829 111.053 27.0062 109.943 27.9285C109.821 28.0412 109.745 28.1945 109.728 28.3597L109.494 31.1624C109.424 31.829 109.148 32.4572 108.704 32.959C108.263 33.4441 107.805 33.6507 107.419 33.4801L105.775 32.7704C105.676 32.7704 105.55 32.7704 105.452 32.9411C104.405 34.5156 103.52 36.192 102.811 37.9447C102.777 38.0099 102.759 38.0823 102.759 38.1558C102.759 38.2292 102.777 38.3016 102.811 38.3669L104.059 39.7503C104.208 39.9896 104.299 40.2607 104.324 40.5416C104.349 40.8225 104.308 41.1053 104.203 41.3672C104.207 41.3849 104.207 41.4034 104.203 41.4211C104.05 42.0543 103.697 42.6214 103.197 43.0381L101.185 44.5023C101.057 44.608 100.976 44.7597 100.96 44.9245C100.849 45.7795 100.792 46.6406 100.789 47.5027C100.786 48.2991 100.84 49.0947 100.951 49.8832C100.951 50.0269 101.059 50.0898 101.176 50.0359L103.179 49.2005C103.276 49.1531 103.382 49.128 103.489 49.127C103.597 49.1261 103.703 49.1493 103.801 49.195C103.898 49.2407 103.984 49.3077 104.052 49.391C104.12 49.4744 104.169 49.572 104.194 49.6766C104.368 50.2744 104.311 50.9161 104.032 51.4732L102.811 54.3298C102.777 54.3968 102.76 54.4706 102.76 54.5454C102.76 54.6202 102.777 54.694 102.811 54.761C103.47 55.673 104.386 56.3674 105.443 56.7553C105.541 56.7553 105.667 56.7553 105.757 56.5666L107.329 53.9885C107.462 53.7503 107.648 53.5457 107.872 53.39C108.096 53.2344 108.353 53.1318 108.623 53.0902C109.063 53.0902 109.359 53.4225 109.413 53.9885L109.638 56.5307C109.638 56.6744 109.737 56.7553 109.853 56.7104C110.501 56.4726 111.124 56.1717 111.713 55.812C112.368 55.4325 112.992 55.0031 113.581 54.5275C113.701 54.4133 113.778 54.2608 113.797 54.0963L114.031 51.2935C114.103 50.6293 114.375 50.0028 114.812 49.4969C115.261 49.0029 115.71 48.7962 116.106 48.9669L117.669 49.7395C117.758 49.7395 117.893 49.7395 117.983 49.5688C119.036 47.9728 119.927 46.2755 120.642 44.5023ZM111.722 48.5896C108.677 50.3324 106.206 48.4549 106.215 44.3945C106.224 40.3342 108.695 35.5911 111.74 33.8484C114.785 32.1056 117.255 33.9921 117.246 38.0524C117.237 42.1128 114.758 46.8379 111.722 48.5896Z" fill="white"/>
</svg>
