<svg width="64" height="46" viewBox="0 0 64 46" fill="none" xmlns="http://www.w3.org/2000/svg">
<path fill-rule="evenodd" clip-rule="evenodd" d="M60.7488 35.567H62.9674C63.2383 35.5669 63.4984 35.6733 63.6916 35.8633C63.8847 36.0533 63.9955 36.3115 64 36.5824V42.368C64.0013 42.611 63.9162 42.8465 63.7599 43.0326C63.6036 43.2186 63.3862 43.343 63.1466 43.3835L49.3995 45.7899C49.34 45.7983 49.2797 45.7983 49.2202 45.7899H14.7797C14.7203 45.7983 14.66 45.7983 14.6005 45.7899L0.853349 43.4005C0.613758 43.3601 0.396394 43.2356 0.240068 43.0496C0.0837427 42.8636 -0.00135669 42.6281 1.63592e-05 42.3851V36.5995C1.63592e-05 36.4639 0.0267204 36.3296 0.07861 36.2043C0.1305 36.0791 0.206585 35.9652 0.302464 35.8694C0.398344 35.7735 0.512139 35.6974 0.637412 35.6455C0.762684 35.5937 0.896974 35.567 1.03257 35.567H3.25121V3.66083C3.25347 2.68914 3.64108 1.75801 4.32897 1.07172C5.01686 0.38543 5.94884 -2.62759e-06 6.92053 0H57.0795C58.0511 -2.62759e-06 58.9831 0.38543 59.671 1.07172C60.3589 1.75801 60.7465 2.68914 60.7488 3.66083V15.4966V35.567ZM5.78918 2.53193C5.48856 2.83094 5.31852 3.23683 5.31626 3.66083V35.567H58.6837V22.9035V3.66083C58.6815 3.23683 58.5114 2.83094 58.2108 2.53193C57.9102 2.23291 57.5035 2.0651 57.0795 2.0651H6.92053C6.49653 2.0651 6.08979 2.23291 5.78918 2.53193ZM40.209 39.4752V37.632H23.7909V39.4752H40.209ZM49.1349 43.7418L61.9349 41.5147L61.8666 37.632H42.24V40.5077C42.24 40.7816 42.1312 41.0442 41.9375 41.2378C41.7439 41.4315 41.4813 41.5403 41.2074 41.5403H22.7243C22.5887 41.5403 22.4544 41.5135 22.3291 41.4616C22.2038 41.4097 22.09 41.3337 21.9942 41.2378C21.8983 41.142 21.8222 41.0281 21.7703 40.9028C21.7184 40.7776 21.6917 40.6433 21.6917 40.5077V37.632H2.06507V41.5147L14.8651 43.7418H49.1349ZM44.2883 16.3156L42.7608 15.7268C42.5261 14.9132 42.1997 14.1287 41.788 13.3887L42.4536 11.8953C42.5309 11.7197 42.5536 11.5248 42.5186 11.3361C42.4836 11.1473 42.3926 10.9735 42.2574 10.8372L39.9704 8.55029C39.8349 8.41684 39.6626 8.32687 39.4756 8.2919C39.2886 8.25694 39.0954 8.27859 38.9208 8.35404L37.4275 9.01961C36.6872 8.61064 35.9027 8.28714 35.0894 8.05534L34.5006 6.5279C34.4336 6.35424 34.317 6.20419 34.1652 6.09644C34.0134 5.98869 33.8333 5.92799 33.6472 5.92201H30.4216C30.2356 5.92799 30.0554 5.98869 29.9037 6.09644C29.7519 6.20419 29.6353 6.35424 29.5683 6.5279L28.9795 8.05534C28.1683 8.28562 27.3865 8.60921 26.6499 9.01961L25.148 8.35404C24.9734 8.27859 24.7803 8.25694 24.5933 8.2919C24.4063 8.32687 24.234 8.41684 24.0984 8.55029L21.7603 10.8372C21.6251 10.9735 21.5341 11.1473 21.4991 11.3361C21.4641 11.5248 21.4867 11.7197 21.5641 11.8953L22.2296 13.3887C21.8215 14.1304 21.4953 14.9145 21.2568 15.7268L19.7294 16.3156C19.5563 16.3836 19.4069 16.5004 19.2993 16.652C19.1917 16.8036 19.1305 16.9832 19.1235 17.169V20.4031C19.1316 20.5886 19.1931 20.7677 19.3006 20.9191C19.4081 21.0705 19.5569 21.1876 19.7294 21.2564L21.2568 21.8367C21.4922 22.6502 21.8185 23.4345 22.2296 24.1748L21.5641 25.6767C21.4862 25.8509 21.4633 26.0446 21.4984 26.2321C21.5334 26.4196 21.6248 26.592 21.7603 26.7263L24.0472 29.0132C24.1828 29.1466 24.3551 29.2366 24.5421 29.2716C24.7291 29.3065 24.9222 29.2849 25.0968 29.2095L26.5987 28.5439C27.3353 28.9543 28.1171 29.2779 28.9283 29.5081L29.5171 31.0356C29.5841 31.2093 29.7007 31.3593 29.8525 31.4671C30.0042 31.5749 30.1844 31.6355 30.3705 31.6415H33.596C33.7821 31.6355 33.9622 31.5749 34.114 31.4671C34.2658 31.3593 34.3824 31.2093 34.4494 31.0356L35.0382 29.5081C35.8516 29.2763 36.636 28.9528 37.3763 28.5439L38.8696 29.2095C39.0442 29.2849 39.2374 29.3065 39.4244 29.2716C39.6114 29.2366 39.7837 29.1466 39.9192 29.0132L42.2062 26.7263C42.3414 26.59 42.4324 26.4162 42.4674 26.2275C42.5024 26.0387 42.4798 25.8438 42.4024 25.6681L41.7368 24.1748C42.1515 23.4362 42.478 22.6515 42.7096 21.8367L44.2371 21.2479C44.4108 21.1809 44.5608 21.0642 44.6686 20.9125C44.7763 20.7607 44.837 20.5806 44.8429 20.3946V17.1604C44.8387 16.9819 44.7845 16.808 44.6864 16.6587C44.5884 16.5094 44.4505 16.3906 44.2883 16.3156ZM42.9998 19.7802L41.6259 20.3092C41.4824 20.3647 41.3546 20.4543 41.2535 20.5703C41.1524 20.6863 41.081 20.8251 41.0456 20.9748C40.8167 21.9294 40.4395 22.8422 39.9277 23.6799C39.8495 23.8067 39.8033 23.9506 39.7929 24.0992C39.7825 24.2478 39.8082 24.3967 39.868 24.5332L40.4653 25.8815L39.0915 27.2468L37.7518 26.6495C37.6145 26.5931 37.4661 26.5692 37.3181 26.5795C37.1701 26.5899 37.0265 26.6343 36.8984 26.7092C36.0628 27.2271 35.1495 27.6074 34.1934 27.8356C34.0436 27.871 33.9048 27.9424 33.7888 28.0435C33.6728 28.1446 33.5832 28.2724 33.5277 28.4159L32.9987 29.7898H31.0701L30.5411 28.4159C30.4869 28.2716 30.3977 28.143 30.2815 28.0417C30.1654 27.9404 30.0258 27.8696 29.8755 27.8356C28.9193 27.6074 28.006 27.2271 27.1705 26.7092C27.0424 26.6343 26.8988 26.5899 26.7508 26.5795C26.6028 26.5692 26.4544 26.5931 26.3171 26.6495L24.9774 27.2468L23.6035 25.8815L24.2008 24.5332C24.2598 24.3969 24.2859 24.2487 24.277 24.1004C24.2681 23.9522 24.2245 23.8081 24.1496 23.6799C23.6318 22.8443 23.2515 21.931 23.0232 20.9748C22.9878 20.8251 22.9165 20.6863 22.8154 20.5703C22.7143 20.4543 22.5865 20.3647 22.443 20.3092L21.0691 19.7802V17.8431L22.443 17.314C22.5851 17.2588 22.7119 17.1703 22.8129 17.056C22.9138 16.9417 22.9859 16.8048 23.0232 16.657C23.2499 15.6976 23.6303 14.7812 24.1496 13.9434C24.2245 13.8151 24.2681 13.671 24.277 13.5228C24.2859 13.3746 24.2598 13.2263 24.2008 13.09L23.6035 11.7417L24.9774 10.3764L26.3171 10.9738C26.4544 11.0301 26.6028 11.054 26.7508 11.0437C26.8988 11.0333 27.0424 10.989 27.1705 10.914C28.0064 10.3988 28.9197 10.0213 29.8755 9.79617C30.0252 9.76078 30.1641 9.68941 30.28 9.58831C30.396 9.48721 30.4856 9.35942 30.5411 9.21591L31.0701 7.84201H32.9987L33.5277 9.21591C33.5845 9.35865 33.6745 9.48576 33.7902 9.5867C33.906 9.68763 34.0442 9.75945 34.1934 9.79617C35.1514 10.0228 36.0673 10.4002 36.907 10.914C37.0345 10.9902 37.1782 11.0353 37.3265 11.0457C37.4747 11.0561 37.6233 11.0315 37.7603 10.9738L39.1 10.3764L40.4739 11.7417L39.8765 13.09C39.8168 13.2265 39.791 13.3754 39.8014 13.524C39.8118 13.6727 39.8581 13.8165 39.9363 13.9434C40.4489 14.7837 40.8261 15.6994 41.0541 16.657C41.0914 16.8048 41.1636 16.9417 41.2645 17.056C41.3655 17.1703 41.4923 17.2588 41.6344 17.314L43.0083 17.8431L42.9998 19.7802ZM31.9996 12.8171C30.8182 12.8171 29.6633 13.1674 28.681 13.8238C27.6987 14.4801 26.9331 15.413 26.481 16.5045C26.0288 17.596 25.9106 18.7971 26.1411 19.9558C26.3715 21.1145 26.9404 22.1788 27.7758 23.0142C28.6112 23.8496 29.6755 24.4185 30.8342 24.6489C31.9929 24.8794 33.194 24.7612 34.2855 24.309C35.377 23.8569 36.3099 23.0913 36.9663 22.109C37.6226 21.1267 37.9729 19.9718 37.9729 18.7904C37.9729 17.2062 37.3436 15.6868 36.2234 14.5666C35.1032 13.4464 33.5838 12.8171 31.9996 12.8171ZM31.9996 23.3728C31.0959 23.3745 30.2121 23.108 29.46 22.607C28.7079 22.106 28.1215 21.393 27.7749 20.5585C27.4283 19.7239 27.3372 18.8053 27.513 17.9189C27.6889 17.0326 28.1239 16.2183 28.7629 15.5793C29.4019 14.9403 30.2161 14.5053 31.1025 14.3295C31.9889 14.1536 32.9075 14.2447 33.7421 14.5913C34.5766 14.9379 35.2895 15.5244 35.7905 16.2764C36.2915 17.0285 36.5581 17.9124 36.5564 18.816C36.5542 20.0239 36.0733 21.1816 35.2192 22.0357C34.3652 22.8897 33.2074 23.3705 31.9996 23.3728Z" fill="url(#paint0_linear_1_668)"/>
<defs>
<linearGradient id="paint0_linear_1_668" x1="9.90707" y1="5.72134" x2="39.7742" y2="47.0957" gradientUnits="userSpaceOnUse">
<stop stop-color="#FE5B52"/>
<stop offset="1" stop-color="#3E96F4"/>
</linearGradient>
</defs>
</svg>
