<svg width="64" height="64" viewBox="0 0 64 64" fill="none" xmlns="http://www.w3.org/2000/svg">
<path fill-rule="evenodd" clip-rule="evenodd" d="M34.4344 9.3771C33.5925 9.93969 32.6026 10.24 31.59 10.24C30.2329 10.2374 28.9321 9.69707 27.9725 8.73745C27.0129 7.77784 26.4726 6.47712 26.47 5.12002C26.47 4.10738 26.7702 3.11746 27.3328 2.27548C27.8954 1.4335 28.6951 0.777255 29.6306 0.389735C30.5662 0.00221389 31.5956 -0.0991731 32.5888 0.0983832C33.582 0.29594 34.4943 0.783583 35.2103 1.49963C35.9264 2.21567 36.414 3.12794 36.6116 4.12112C36.8091 5.1143 36.7077 6.14381 36.3202 7.07937C35.9327 8.01493 35.2764 8.81451 34.4344 9.3771ZM33.3233 2.52581C32.8102 2.18298 32.207 1.99999 31.59 1.99999C30.7625 1.99999 29.9689 2.32873 29.3838 2.91384C28.7987 3.49896 28.47 4.29255 28.47 5.12002C28.47 5.7371 28.653 6.34028 28.9958 6.85336C29.3386 7.36644 29.8259 7.76638 30.396 8.00253C30.9661 8.23867 31.5934 8.30046 32.1986 8.18008C32.8038 8.05969 33.3598 7.76254 33.7961 7.3262C34.2325 6.88986 34.5296 6.33388 34.65 5.72866C34.7704 5.12344 34.7086 4.49616 34.4725 3.92605C34.2363 3.35594 33.8364 2.86864 33.3233 2.52581ZM55.4155 21.4029C56.2575 20.8403 57.2474 20.54 58.26 20.54C59.6179 20.54 60.9202 21.0795 61.8804 22.0397C62.8406 22.9999 63.38 24.3021 63.38 25.66C63.38 26.6727 63.0797 27.6626 62.5172 28.5046C61.9546 29.3466 61.1549 30.0028 60.2194 30.3903C59.2838 30.7778 58.2544 30.8792 57.2612 30.6816C56.268 30.4841 55.3557 29.9964 54.6397 29.2804C53.9236 28.5644 53.436 27.6521 53.2384 26.6589C53.0408 25.6657 53.1422 24.6362 53.5297 23.7007C53.9172 22.7651 54.5735 21.9655 55.4155 21.4029ZM56.5266 28.2542C57.0397 28.597 57.6429 28.78 58.26 28.78V28.7501C59.0823 28.7501 59.8714 28.4255 60.4556 27.8469C61.0399 27.2682 61.3721 26.4823 61.38 25.66C61.38 25.043 61.197 24.4397 60.8542 23.9266C60.5114 23.4136 60.0241 23.0137 59.454 22.7775C58.8839 22.5414 58.2565 22.4796 57.6513 22.6C57.0461 22.7204 56.4902 23.0175 56.0538 23.4539C55.6175 23.8902 55.3203 24.4461 55.2 25.0513C55.0796 25.6566 55.1414 26.2839 55.3775 26.854C55.6137 27.4241 56.0135 27.9114 56.5266 28.2542ZM16.34 50.8398C15.3274 50.8398 14.3375 51.1402 13.4955 51.7028C12.6535 52.2654 11.9972 53.0649 11.6097 54.0005C11.2222 54.936 11.1208 55.9656 11.3183 56.9587C11.5159 57.9519 12.0035 58.8642 12.7196 59.5803C13.4356 60.2963 14.3479 60.784 15.3411 60.9815C16.3343 61.1791 17.3638 61.0776 18.2994 60.6901C19.2349 60.3026 20.0345 59.6464 20.5971 58.8044C21.1597 57.9624 21.46 56.9725 21.46 55.9598C21.46 54.6019 20.9206 53.2997 19.9604 52.3395C19.0002 51.3793 17.6979 50.8398 16.34 50.8398ZM16.34 59.0798C15.7229 59.0798 15.1197 58.8968 14.6066 58.554C14.0935 58.2112 13.6937 57.7239 13.4575 57.1538C13.2214 56.5837 13.1596 55.9564 13.28 55.3512C13.4003 54.746 13.6975 54.19 14.1338 53.7537C14.5702 53.3173 15.1261 53.0202 15.7313 52.8998C16.3365 52.7794 16.9639 52.8412 17.534 53.0773C18.1041 53.3135 18.5914 53.7134 18.9342 54.2265C19.277 54.7396 19.46 55.3428 19.46 55.9598C19.46 56.7873 19.1313 57.5809 18.5462 58.166C17.9611 58.7511 17.1675 59.0798 16.34 59.0798ZM26 58.8301C30.3944 59.7626 34.9521 59.5839 39.26 58.3101C39.5133 58.2355 39.7858 58.264 40.0181 58.3895C40.2504 58.5151 40.4236 58.7274 40.5 58.9801C40.5385 59.1062 40.5516 59.2386 40.5388 59.3698C40.5259 59.5009 40.4872 59.6283 40.4249 59.7445C40.3627 59.8606 40.2781 59.9633 40.176 60.0467C40.0739 60.13 39.9563 60.1924 39.83 60.2301C35.0528 61.6554 29.987 61.8139 25.13 60.6901L26 62.5801C26.1095 62.8191 26.1206 63.0915 26.0308 63.3386C25.9409 63.5856 25.7575 63.7873 25.52 63.9001C25.3899 63.9663 25.246 64.0006 25.1 64.0001C24.9088 64.0006 24.7213 63.9462 24.5601 63.8434C24.3988 63.7406 24.2703 63.5937 24.19 63.4201L22.34 59.4201C22.2891 59.2981 22.2629 59.1673 22.2629 59.0351C22.2629 58.903 22.2891 58.7721 22.34 58.6501C22.4324 58.402 22.6194 58.2006 22.86 58.0901L26.86 56.2301C27.0989 56.1206 27.3714 56.1095 27.6185 56.1994C27.8655 56.2892 28.0672 56.4727 28.18 56.7101C28.2927 56.9501 28.3054 57.2251 28.2154 57.4745C28.1254 57.7239 27.94 57.9274 27.7 58.0401L26 58.8301ZM59.26 32.8999C58.9948 32.8999 58.7405 33.0053 58.5529 33.1928C58.3654 33.3803 58.26 33.6347 58.26 33.8999C58.0938 38.2437 56.8572 42.4791 54.6601 46.2299L54.44 44.3799C54.4243 44.2486 54.3828 44.1216 54.318 44.0063C54.2532 43.8911 54.1663 43.7897 54.0623 43.7079C53.9583 43.6262 53.8392 43.5658 53.7119 43.5301C53.5845 43.4944 53.4514 43.4842 53.32 43.4999C53.1887 43.5157 53.0618 43.5571 52.9465 43.6219C52.8312 43.6868 52.7298 43.7737 52.6481 43.8777C52.5664 43.9817 52.5059 44.1007 52.4702 44.2281C52.4345 44.3554 52.4243 44.4886 52.44 44.6199L52.9601 49.0299C52.9895 49.2738 53.1078 49.4983 53.2922 49.6606C53.4766 49.823 53.7144 49.9117 53.9601 49.9099H54.07L58.45 49.3899C58.7153 49.3581 58.9569 49.2222 59.122 49.0121C59.287 48.8021 59.3619 48.5351 59.33 48.2699C59.2982 48.0047 59.1623 47.763 58.9523 47.598C58.7423 47.4329 58.4753 47.3581 58.2101 47.3899L56.1501 47.6299C58.6472 43.496 60.0544 38.796 60.24 33.9699C60.2495 33.8345 60.2314 33.6986 60.1867 33.5704C60.142 33.4422 60.0716 33.3245 59.9799 33.2244C59.8883 33.1243 59.7771 33.0439 59.6534 32.9881C59.5296 32.9323 59.3958 32.9023 59.26 32.8999ZM51.6099 15.3399C48.4031 11.6639 44.2541 8.93248 39.6099 7.43991C39.3659 7.35146 39.1658 7.17158 39.052 6.93832C38.9381 6.70506 38.9195 6.43669 38.9999 6.18991C39.0397 6.0643 39.1039 5.94779 39.1888 5.84707C39.2737 5.74636 39.3778 5.66339 39.4948 5.60299C39.6119 5.54259 39.7398 5.50591 39.8711 5.49508C40.0024 5.48425 40.1345 5.49948 40.2599 5.53988C45.3802 7.21064 49.9314 10.2794 53.3999 14.3999L53.8299 12.3499C53.8856 12.0847 54.0444 11.8525 54.2713 11.7043C54.4983 11.5562 54.7747 11.5042 55.0399 11.5599C55.3052 11.6156 55.5374 11.7743 55.6855 12.0012C55.8337 12.2282 55.8856 12.5046 55.8299 12.7699L54.9199 17.0799C54.8711 17.3073 54.7446 17.5106 54.562 17.6548C54.3795 17.799 54.1524 17.8751 53.9199 17.8699H53.7099L49.3599 16.9499C49.0947 16.8942 48.8625 16.7354 48.7143 16.5085C48.5662 16.2816 48.5142 16.0051 48.5699 15.7399C48.6256 15.4747 48.7844 15.2424 49.0113 15.0943C49.2382 14.9461 49.5147 14.8942 49.7799 14.9499L51.6099 15.3399ZM8.66989 18.4101C8.83369 18.4103 8.99508 18.3704 9.1398 18.2936C9.28453 18.2169 9.40818 18.1058 9.49991 17.9701C12.2825 13.8531 16.1527 10.5888 20.6799 8.5401L19.7699 10.1901C19.7062 10.305 19.6657 10.4313 19.6508 10.5619C19.6359 10.6924 19.6469 10.8246 19.6831 10.9509C19.7193 11.0772 19.78 11.1952 19.8618 11.298C19.9437 11.4008 20.045 11.4865 20.1599 11.5501C20.3064 11.6332 20.4715 11.6779 20.6399 11.6801C20.8198 11.6806 20.9965 11.6325 21.1514 11.541C21.3063 11.4495 21.4336 11.3179 21.5199 11.1601L23.6599 7.26007C23.7862 7.02732 23.8149 6.75406 23.7399 6.50012C23.7034 6.3734 23.6422 6.25513 23.5598 6.15216C23.4775 6.04919 23.3755 5.96351 23.2599 5.90009L19.3999 3.78009C19.1665 3.64748 18.89 3.613 18.6312 3.68427C18.3724 3.75553 18.1525 3.92671 18.0199 4.1601C17.8873 4.39349 17.8528 4.66997 17.9241 4.92877C17.9954 5.18757 18.1665 5.40749 18.3999 5.5401L20.2299 6.5401C15.1914 8.72162 10.8795 12.2946 7.7999 16.8401C7.72619 16.949 7.67473 17.0714 7.64841 17.2003C7.62209 17.3292 7.62143 17.462 7.64651 17.5911C7.6716 17.7202 7.72193 17.8431 7.79459 17.9528C7.86724 18.0624 7.96079 18.1567 8.06992 18.2301C8.24548 18.3528 8.45578 18.4159 8.66989 18.4101ZM6.57996 37.9101L5.25995 36.6001C5.913 41.3636 7.86034 45.8566 10.89 49.5901C10.973 49.6924 11.035 49.81 11.0725 49.9364C11.1099 50.0627 11.122 50.1952 11.1081 50.3263C11.0942 50.4573 11.0545 50.5843 10.9913 50.6999C10.9281 50.8156 10.8427 50.9176 10.7399 51.0001C10.5613 51.1434 10.3389 51.221 10.1099 51.2201C9.96222 51.2191 9.81662 51.1854 9.68348 51.1214C9.55034 51.0575 9.43303 50.9648 9.33997 50.8501C5.98518 46.7313 3.85737 41.7514 3.19996 36.4801L1.73994 37.95C1.55296 38.1384 1.29888 38.2447 1.03351 38.2456C0.768151 38.2466 0.513261 38.142 0.324957 37.9551C0.136654 37.7681 0.0303629 37.514 0.0294252 37.2486C0.0284875 36.9833 0.132975 36.7284 0.319953 36.5401L3.06995 33.7301C3.13987 33.5483 3.26134 33.3909 3.41944 33.2773C3.57754 33.1636 3.76541 33.0985 3.95997 33.0901H4.03998C4.18495 33.074 4.33166 33.0899 4.46985 33.1365C4.60805 33.1832 4.73438 33.2595 4.83997 33.3601L7.98994 36.5001C8.17619 36.6875 8.28077 36.9409 8.28077 37.2051C8.28077 37.4692 8.17619 37.7227 7.98994 37.9101C7.8965 38.0028 7.78572 38.0761 7.66389 38.1258C7.54205 38.1756 7.41158 38.2008 7.27997 38.2C7.01763 38.1989 6.76622 38.0948 6.57996 37.9101ZM47.02 50.54C46.0074 50.54 45.0175 50.8403 44.1755 51.4029C43.3335 51.9655 42.6773 52.7651 42.2897 53.7007C41.9022 54.6362 41.8009 55.6657 41.9984 56.6589C42.196 57.6521 42.6836 58.5644 43.3996 59.2804C44.1156 59.9964 45.0279 60.4841 46.0211 60.6816C47.0143 60.8792 48.0438 60.7778 48.9794 60.3903C49.9149 60.0028 50.7146 59.3466 51.2772 58.5046C51.8398 57.6626 52.14 56.6727 52.14 55.66C52.14 54.3021 51.6006 52.9999 50.6404 52.0397C49.6802 51.0795 48.3779 50.54 47.02 50.54ZM47.02 58.78C46.4029 58.78 45.7997 58.597 45.2866 58.2542C44.7735 57.9114 44.3737 57.4241 44.1375 56.854C43.9014 56.2839 43.8396 55.6566 43.96 55.0513C44.0803 54.4461 44.3775 53.8902 44.8138 53.4539C45.2502 53.0175 45.8061 52.7204 46.4113 52.6C47.0165 52.4796 47.6439 52.5414 48.214 52.7775C48.7841 53.0137 49.2714 53.4136 49.6142 53.9266C49.957 54.4397 50.14 55.043 50.14 55.66C50.1269 56.4788 49.7924 57.2596 49.2087 57.834C48.625 58.4083 47.8389 58.7301 47.02 58.73V58.78ZM7.96454 29.3571C7.12256 29.9197 6.13264 30.22 5.12 30.22C3.76209 30.22 2.45982 29.6805 1.49963 28.7203C0.539448 27.7602 0 26.4579 0 25.1C0 24.0873 0.300322 23.0974 0.862915 22.2554C1.42551 21.4135 2.22509 20.7572 3.16064 20.3697C4.0962 19.9822 5.12571 19.8808 6.1189 20.0784C7.11208 20.2759 8.02437 20.7636 8.74042 21.4796C9.45646 22.1957 9.94405 23.108 10.1416 24.1011C10.3392 25.0943 10.2378 26.1238 9.85028 27.0593C9.46276 27.9949 8.80652 28.7945 7.96454 29.3571ZM6.85339 22.5058C6.34031 22.163 5.73707 21.98 5.12 21.98C4.29252 21.98 3.49893 22.3087 2.91382 22.8938C2.3287 23.4789 2 24.2725 2 25.1C2 25.7171 2.18299 26.3203 2.52582 26.8334C2.86865 27.3465 3.35592 27.7463 3.92603 27.9825C4.49613 28.2186 5.12348 28.2804 5.7287 28.16C6.33392 28.0397 6.88983 27.7425 7.32617 27.3062C7.76251 26.8698 8.05967 26.3139 8.18005 25.7087C8.30044 25.1035 8.23865 24.4761 8.0025 23.906C7.76636 23.3359 7.36648 22.8486 6.85339 22.5058ZM31.6799 51.7902C33.002 51.7771 34.2662 51.2462 35.2011 50.3113C36.136 49.3764 36.6669 48.1122 36.6799 46.7902V44.0002C39.1173 42.8534 41.0913 40.9104 42.2764 38.4914C43.4616 36.0724 43.7872 33.3218 43.1996 30.693C42.6121 28.0642 41.1464 25.714 39.0442 24.0297C36.942 22.3455 34.3286 21.4277 31.635 21.4277C28.9413 21.4277 26.3279 22.3455 24.2257 24.0297C22.1235 25.714 20.6578 28.0642 20.0703 30.693C19.4827 33.3218 19.8083 36.0724 20.9935 38.4914C22.1786 40.9104 24.1526 42.8534 26.59 44.0002V46.7902C26.6058 48.1269 27.15 49.4031 28.1037 50.34C29.0574 51.2768 30.3431 51.7982 31.6799 51.7902ZM31.6799 49.7902C30.8891 49.7748 30.1349 49.4538 29.5756 48.8945C29.0163 48.3352 28.6953 47.581 28.6799 46.7902V45.3502H34.77V46.7902C34.7568 47.5973 34.4241 48.3664 33.8449 48.9287C33.2657 49.4911 32.4872 49.8009 31.6799 49.7902ZM21.83 33.2302C21.8298 31.4419 22.3166 29.6872 23.2379 28.1545C24.1593 26.6218 25.4805 25.3689 27.0599 24.5301C28.6393 23.6913 30.4172 23.2983 32.203 23.3933C33.9888 23.4883 35.715 24.0676 37.1965 25.0692C38.6781 26.0707 39.859 27.4567 40.6126 29.0785C41.3662 30.7003 41.6641 32.4966 41.4743 34.2748C41.2845 36.053 40.6142 37.746 39.5353 39.1722C38.4563 40.5983 37.0095 41.7039 35.35 42.3702C35.1639 42.4443 35.0044 42.5725 34.892 42.7383C34.7797 42.9042 34.7198 43.0999 34.72 43.3002H28.6299C28.6309 43.101 28.5725 42.9062 28.462 42.7405C28.3516 42.5748 28.1941 42.4458 28.01 42.3702C26.1813 41.6433 24.6137 40.3827 23.5115 38.7525C22.4092 37.1223 21.8233 35.198 21.83 33.2302ZM32.6799 16.7598V19.7598C32.6799 20.025 32.5746 20.2794 32.3871 20.4669C32.1995 20.6545 31.9451 20.7598 31.6799 20.7598C31.4147 20.7598 31.1604 20.6545 30.9728 20.4669C30.7853 20.2794 30.6799 20.025 30.6799 19.7598V16.7598C30.6799 16.4946 30.7853 16.2402 30.9728 16.0527C31.1604 15.8651 31.4147 15.7598 31.6799 15.7598C31.9451 15.7598 32.1995 15.8651 32.3871 16.0527C32.5746 16.2402 32.6799 16.4946 32.6799 16.7598ZM41.8699 24.3898L43.97 22.2799C44.1338 22.0886 44.2194 21.8425 44.2097 21.5908C44.1999 21.3392 44.0956 21.1004 43.9175 20.9223C43.7394 20.7442 43.5007 20.6399 43.249 20.6301C42.9973 20.6204 42.7512 20.7061 42.5599 20.8699L40.45 22.9799C40.2637 23.1672 40.1592 23.4207 40.1592 23.6849C40.1592 23.9491 40.2637 24.2025 40.45 24.3898C40.5429 24.4836 40.6535 24.558 40.7754 24.6088C40.8973 24.6595 41.028 24.6857 41.16 24.6857C41.292 24.6857 41.4227 24.6595 41.5446 24.6088C41.6664 24.558 41.777 24.4836 41.8699 24.3898ZM20.79 45.4602C20.6054 45.6486 20.3538 45.7564 20.09 45.7602C19.9577 45.7596 19.8268 45.7329 19.705 45.6814C19.5831 45.6299 19.4726 45.5547 19.38 45.4602C19.1938 45.2728 19.0892 45.0194 19.0892 44.7552C19.0892 44.4911 19.1938 44.2376 19.38 44.0502L21.49 41.9402C21.6774 41.754 21.9308 41.6494 22.195 41.6494C22.4592 41.6494 22.7127 41.754 22.9 41.9402C22.9938 42.0332 23.0681 42.1438 23.1189 42.2656C23.1697 42.3875 23.1958 42.5182 23.1958 42.6502C23.1958 42.7822 23.1697 42.9129 23.1189 43.0348C23.0681 43.1567 22.9938 43.2673 22.9 43.3602L20.79 45.4602ZM45.09 34.1699H48.09C48.3552 34.1699 48.6095 34.0646 48.7971 33.877C48.9846 33.6895 49.09 33.4351 49.09 33.1699C49.09 32.9047 48.9846 32.6504 48.7971 32.4628C48.6095 32.2753 48.3552 32.1699 48.09 32.1699H45.09C44.8247 32.1699 44.5704 32.2753 44.3828 32.4628C44.1953 32.6504 44.09 32.9047 44.09 33.1699C44.09 33.4351 44.1953 33.6895 44.3828 33.877C44.5704 34.0646 44.8247 34.1699 45.09 34.1699ZM15.26 32.1699H18.26C18.5252 32.1699 18.7796 32.2753 18.9671 32.4628C19.1546 32.6504 19.26 32.9047 19.26 33.1699C19.26 33.4351 19.1546 33.6895 18.9671 33.877C18.7796 34.0646 18.5252 34.1699 18.26 34.1699H15.26C14.9948 34.1699 14.7405 34.0646 14.5529 33.877C14.3654 33.6895 14.26 33.4351 14.26 33.1699C14.26 32.9047 14.3654 32.6504 14.5529 32.4628C14.7405 32.2753 14.9948 32.1699 15.26 32.1699ZM42.5599 45.4601C42.6525 45.5546 42.763 45.6298 42.8849 45.6813C43.0068 45.7328 43.1376 45.7595 43.27 45.7601C43.5337 45.7563 43.7853 45.6485 43.97 45.4601C44.1562 45.2727 44.2607 45.0193 44.2607 44.7551C44.2607 44.4909 44.1562 44.2375 43.97 44.0501L41.8699 41.9401C41.6816 41.7518 41.4263 41.646 41.16 41.646C40.8937 41.646 40.6383 41.7518 40.45 41.9401C40.2616 42.1284 40.1559 42.3838 40.1559 42.6501C40.1559 42.9164 40.2616 43.1718 40.45 43.3601L42.5599 45.4601ZM22.19 24.6799C21.9276 24.6788 21.6762 24.5746 21.4899 24.3898L19.38 22.2799C19.2161 22.0886 19.1306 21.8425 19.1403 21.5908C19.15 21.3392 19.2543 21.1004 19.4324 20.9223C19.6105 20.7442 19.8492 20.6399 20.1009 20.6301C20.3526 20.6204 20.5987 20.7061 20.79 20.8699L22.9 22.9799C23.0862 23.1672 23.1907 23.4207 23.1907 23.6849C23.1907 23.9491 23.0862 24.2025 22.9 24.3898C22.8065 24.4825 22.6957 24.5559 22.5739 24.6057C22.452 24.6554 22.3216 24.6806 22.19 24.6799Z" fill="url(#paint0_linear_166_617)"/>
<defs>
<linearGradient id="paint0_linear_166_617" x1="11.5" y1="12.5" x2="54" y2="55" gradientUnits="userSpaceOnUse">
<stop stop-color="#FE5B52"/>
<stop offset="1" stop-color="#3E96F4"/>
</linearGradient>
</defs>
</svg>
