<svg width="20" height="20" viewBox="0 0 20 20" fill="none" xmlns="http://www.w3.org/2000/svg">
<path d="M3.575 5.11676C3.85 4.7501 4.4 4.56676 4.85834 4.56676H7.05834V3.74176C7.05834 2.8251 7.79167 2.0001 8.80001 2.0001C13.2 2.0001 15.6 2.00051 20 2C20 5.75833 20 11.2584 20 15.0168H18.525C18.3417 16.6668 16.9667 17.9501 15.3167 17.9501C13.6667 17.9501 12.2 16.6668 12.1083 15.0168H8.43334C8.25001 16.6668 6.87501 17.9501 5.22501 17.9501C3.57501 17.9501 2.10833 16.6668 2.01667 15.0168H0C0 13.2751 0 11.5334 0 9.79176C0 9.33343 0.183336 8.96676 0.458336 8.60009L3.575 5.11676ZM15.3167 16.1168C16.05 16.1168 16.6917 15.4751 16.6917 14.7418C16.6917 14.0084 16.05 13.3668 15.3167 13.3668C14.5833 13.3668 13.9417 14.0084 13.9417 14.7418C13.9417 15.4751 14.5833 16.1168 15.3167 16.1168ZM5.22501 16.1168C5.95834 16.1168 6.60001 15.4751 6.60001 14.7418C6.60001 14.0084 5.95834 13.3668 5.22501 13.3668C4.49167 13.3668 3.85 14.0084 3.85 14.7418C3.75833 15.4751 4.40001 16.1168 5.22501 16.1168ZM2.475 9.79176H6.69167C6.87501 9.79176 6.96667 9.70009 6.96667 9.51676V6.6751C6.96667 6.49176 6.87501 6.4001 6.69167 6.4001H5.04167C4.95001 6.4001 4.85834 6.4001 4.85834 6.49176L2.29167 9.33343C2.10834 9.51676 2.29167 9.79176 2.475 9.79176Z" fill="#505050"/>
</svg>
