<svg width="181" height="50" viewBox="0 0 181 50" fill="none" xmlns="http://www.w3.org/2000/svg">
<path d="M49.4576 34.0357C47.591 33.9318 45.7766 33.3812 44.167 32.4304C42.5573 31.4795 41.1995 30.1561 40.2076 28.5714C41.404 19.0357 44.8862 16.0714 49.4933 16.0714C54.1005 16.0714 57.6005 19.6428 57.6005 25C57.6005 30.3571 54.029 33.9286 49.4933 33.9286M49.4933 10.1071C46.242 9.97534 43.0478 10.9905 40.4691 12.9751C37.8904 14.9598 36.0912 17.7876 35.3861 20.9643C33.8576 17.7617 32.7012 14.3945 31.9397 10.9285H20.5647V25.0357C20.5647 30.1607 18.2432 33.9643 13.6897 33.9643C9.13608 33.9643 6.54679 30.1786 6.54679 25.0357V10.9285H0.0110658V25.0357C-0.137264 28.945 1.21017 32.7637 3.77893 35.7143C5.03275 37.0795 6.56437 38.1603 8.27078 38.8842C9.97719 39.608 11.8188 39.958 13.6718 39.9107C21.5468 39.9107 27.0647 33.8571 27.0647 25.1964V15.6607C28.4021 20.7919 30.613 25.6546 33.6004 30.0357L30.1004 50H36.7433L39.0469 35.8571C39.8095 36.5137 40.6214 37.1107 41.4754 37.6429C43.6946 39.0444 46.2454 39.8331 48.8683 39.9286H49.4755C51.4266 39.9489 53.3617 39.5741 55.1643 38.827C56.9669 38.0798 58.5996 36.9757 59.9643 35.581C61.329 34.1863 62.3973 32.5299 63.1051 30.7115C63.8129 28.8931 64.1454 26.9503 64.0826 25C64.1282 23.0569 63.7826 21.1245 63.0665 19.3176C62.3504 17.5107 61.2783 15.8662 59.9139 14.4819C58.5496 13.0976 56.9209 12.0017 55.1246 11.2593C53.3283 10.517 51.4011 10.1434 49.4576 10.1607" fill="#14A800"/>
<path d="M143.42 14.0357V11.0357H136.991V38.9465H143.509V28.0179C143.509 21.2857 144.116 16.4464 153.152 17.0714V10.7143C148.938 10.3928 145.652 11.2678 143.42 14.0535" fill="#14A800"/>
<path d="M98.2598 11.0181L93.5455 30.5538L88.5098 11.0181H80.2241L75.1884 30.5538L70.4741 11.0181H63.8848L71.1169 38.9646H78.9384L84.367 19.1252L89.742 38.9646H97.5634L105.206 11.0181H98.2598Z" fill="#14A800"/>
<path d="M119.527 34.0537C114.902 34.0537 111.437 30.3929 111.437 25.1251C111.437 19.8572 115.009 16.1965 119.527 16.1965C124.044 16.1965 127.705 19.6429 127.705 25.0001C127.705 30.3572 124.134 33.9287 119.598 33.9287M119.598 10.0893C117.644 10.0618 115.705 10.4306 113.897 11.1735C112.089 11.9163 110.451 13.0177 109.081 14.4112C107.711 15.8048 106.637 17.4615 105.925 19.2814C105.213 21.1013 104.877 23.0467 104.937 25.0001C104.869 26.9601 105.196 28.9139 105.898 30.7449C106.601 32.5758 107.665 34.2466 109.028 35.6574C110.39 37.0682 112.023 38.1903 113.828 38.9566C115.633 39.7229 117.574 40.1179 119.536 40.1179C121.497 40.1179 123.438 39.7229 125.243 38.9566C127.049 38.1903 128.681 37.0682 130.043 35.6574C131.406 34.2466 132.47 32.5758 133.173 30.7449C133.875 28.9139 134.202 26.9601 134.134 25.0001C134.182 23.0578 133.838 21.1258 133.124 19.319C132.41 17.5122 131.34 15.8675 129.977 14.4829C128.614 13.0984 126.986 12.0022 125.191 11.2596C123.396 10.5171 121.469 10.1434 119.527 10.1607" fill="#14A800"/>
<path d="M162.475 25.2322H163.975L173.065 38.9644H180.404L169.957 23.7322C172.47 22.6962 174.617 20.9352 176.125 18.6739C177.632 16.4126 178.432 13.7535 178.422 11.0357H171.94C171.94 17.0536 167.19 19.3393 162.475 19.3393V0H155.957V38.9644H162.457L162.475 25.2322Z" fill="#14A800"/>
</svg>
