<svg xmlns="http://www.w3.org/2000/svg" width="38" height="24" fill="none"><path fill="#F5F5F5" d="M36.69 24H.644a.65.65 0 0 1-.455-.185.63.63 0 0 1-.189-.447V.632C0 .464.068.303.189.185A.65.65 0 0 1 .644 0H36.69a.65.65 0 0 1 .455.185c.12.118.188.28.188.447v22.736a.63.63 0 0 1-.188.447.65.65 0 0 1-.456.185"/><path fill="#FF4B55" d="M37.333 1.846H0V.632C0 .464.068.303.189.185A.65.65 0 0 1 .644 0c12.23 0 24.46.009 36.69 0zM0 7.385h37.333V9.23H0zm0-3.693h37.333v1.846H0zm37.333 9.231H.643a.65.65 0 0 1-.454-.185.63.63 0 0 1-.189-.447v-1.214h37.333zM0 18.463h37.333v1.845H0zM37.333 24H0v-1.846h37.333zM0 14.77h37.333v1.846H0z"/><path fill="#41479B" d="M17.427 0H0v12.923h17.38c0-1.48.047-12.923.047-12.923"/><path fill="#F5F5F5" d="m1.808 1.45.142.42.45.003c.059 0 .083.073.036.107l-.362.263.136.42c.017.055-.046.1-.094.067l-.366-.257-.366.257c-.048.034-.111-.012-.094-.066l.136-.421-.362-.263c-.047-.034-.023-.107.036-.107l.45-.004.143-.419c.018-.054.096-.054.115 0m0 2.193.142.42.45.003c.059 0 .083.073.036.107l-.362.263.136.421c.017.055-.046.1-.094.066l-.366-.256-.366.257c-.048.033-.111-.012-.094-.067l.136-.421-.362-.263c-.047-.034-.023-.107.036-.107l.45-.004.143-.419c.018-.054.096-.054.115 0m0 2.193.142.42.45.003c.059 0 .083.073.036.107l-.362.263.136.421c.017.055-.046.1-.094.067L1.75 6.86l-.366.257c-.048.033-.111-.012-.094-.067l.136-.421-.362-.263c-.047-.034-.023-.107.036-.107l.45-.003.143-.42c.018-.054.096-.054.115 0m0 2.193.142.42.45.003c.059 0 .083.074.036.108l-.362.262.136.421c.017.055-.046.1-.094.067l-.366-.257-.366.257c-.048.033-.111-.012-.094-.066l.136-.422-.362-.262c-.047-.034-.023-.107.036-.108l.45-.003.143-.42c.018-.054.096-.054.115 0m0 2.194.142.419.45.003c.059 0 .083.074.036.108l-.362.262.136.422c.017.054-.046.1-.094.066l-.366-.257-.366.257c-.048.033-.111-.012-.094-.066l.136-.422-.362-.262c-.047-.034-.023-.107.036-.108l.45-.003.143-.42c.018-.054.096-.054.115 0m1.734-7.698.143.42.45.003c.059 0 .083.073.036.107l-.362.263.136.421c.017.055-.046.1-.094.067l-.366-.257-.366.257c-.048.033-.111-.012-.094-.067l.136-.421-.362-.263c-.047-.034-.023-.107.036-.107l.45-.004.142-.419c.019-.054.097-.054.115 0m0 2.193.143.42.45.003c.059 0 .083.074.036.107l-.362.263.136.421c.017.055-.046.1-.094.067l-.366-.257-.366.257c-.048.033-.111-.012-.094-.067l.136-.42-.362-.263c-.047-.035-.023-.107.036-.108l.45-.003.142-.42c.019-.054.097-.054.115 0m0 2.194.143.419.45.003c.059 0 .083.074.036.108l-.362.262.136.422c.017.054-.046.1-.094.066l-.366-.257-.366.257c-.048.033-.111-.012-.094-.066l.136-.422-.362-.262c-.047-.034-.023-.107.036-.108l.45-.003.142-.42c.019-.054.097-.054.115 0m0 2.193.143.419.45.003c.059 0 .083.074.036.108l-.362.262.136.422c.017.054-.046.1-.094.066l-.366-.257-.366.257c-.048.033-.111-.012-.094-.066l.136-.422-.362-.262c-.047-.034-.023-.107.036-.108l.45-.003.142-.42c.019-.053.097-.053.115 0M5.277 1.45l.143.42.45.003c.059 0 .083.073.036.107l-.362.263.135.42c.018.055-.045.1-.093.067l-.366-.257-.367.257c-.047.034-.11-.012-.093-.066l.136-.421-.362-.263c-.047-.034-.023-.107.035-.107l.45-.004.143-.42c.019-.053.097-.053.115 0m0 2.193.143.42.45.003c.059 0 .083.073.036.107l-.362.263.135.421c.018.055-.045.1-.093.066l-.366-.257-.367.257c-.047.034-.11-.011-.093-.066l.136-.421-.362-.263c-.047-.034-.023-.107.035-.107l.45-.004.143-.419c.019-.054.097-.054.115 0m0 2.193.143.42.45.003c.059 0 .083.073.036.107l-.362.263.135.421c.018.055-.045.1-.093.067L5.22 6.86l-.367.257c-.047.033-.11-.012-.093-.067l.136-.421-.362-.263c-.047-.034-.023-.107.035-.107l.45-.003.143-.42c.019-.054.097-.054.115 0m0 2.193.143.42.45.003c.059 0 .083.074.036.108l-.362.262.135.421c.018.055-.045.1-.093.067l-.366-.257-.367.257c-.047.033-.11-.012-.093-.067l.136-.42-.362-.263c-.047-.034-.023-.107.035-.108l.45-.003.143-.42c.019-.054.097-.054.115 0m0 2.194.143.419.45.003c.059 0 .083.074.036.108l-.362.262.135.422c.018.054-.045.1-.093.066l-.366-.257-.367.257c-.047.033-.11-.012-.093-.066l.136-.422-.362-.262c-.047-.034-.023-.107.035-.108l.45-.003.143-.42c.019-.054.097-.054.115 0m1.735-7.698.143.42.45.003c.059 0 .083.073.036.107l-.362.263.135.421c.018.055-.045.1-.093.067l-.366-.257-.367.257c-.047.033-.11-.012-.093-.067l.136-.421-.362-.263c-.047-.034-.023-.107.035-.107l.45-.004.143-.419c.019-.054.097-.054.115 0m0 2.193.143.42.45.003c.059 0 .083.074.036.107l-.362.263.135.421c.018.055-.045.1-.093.067l-.366-.257-.367.257c-.047.033-.11-.012-.093-.067l.136-.42-.362-.263c-.047-.035-.023-.107.035-.108l.45-.003.143-.42c.019-.054.097-.054.115 0m0 2.194.143.419.45.003c.059 0 .083.074.036.108l-.362.262.135.422c.018.054-.045.1-.093.066l-.366-.257-.367.257c-.047.033-.11-.012-.093-.066l.136-.422-.362-.262c-.047-.034-.023-.107.035-.108l.45-.003.143-.42c.019-.054.097-.054.115 0m0 2.193.143.419.45.003c.059 0 .083.074.036.108l-.362.262.135.422c.018.054-.045.1-.093.066l-.366-.257-.367.257c-.047.033-.11-.012-.093-.066l.136-.422-.362-.262c-.047-.034-.023-.107.035-.108l.45-.003.143-.42c.019-.053.097-.053.115 0M8.747 1.45l.143.42.45.003c.059 0 .083.073.036.107l-.363.263.136.42c.018.055-.045.1-.093.067l-.366-.257-.367.257c-.047.034-.11-.012-.093-.066l.136-.421-.362-.263c-.047-.034-.023-.107.035-.107l.45-.004.143-.42c.019-.053.097-.053.115 0m0 2.193.143.42.45.003c.059 0 .083.073.036.107l-.363.263.136.421c.018.055-.045.1-.093.066l-.366-.257-.367.257c-.047.034-.11-.011-.093-.066l.136-.421-.362-.263c-.047-.034-.023-.107.035-.107l.45-.004.143-.419c.019-.054.097-.054.115 0m0 2.193.143.42.45.003c.059 0 .083.073.036.107l-.363.263.136.421c.018.055-.045.1-.093.067L8.69 6.86l-.367.257c-.047.033-.11-.012-.093-.067l.136-.421-.362-.263c-.047-.034-.023-.107.035-.107l.45-.003.143-.42c.019-.054.097-.054.115 0m0 2.193.143.42.45.003c.059 0 .083.074.036.108l-.363.262.136.421c.018.055-.045.1-.093.067l-.366-.257-.367.257c-.047.033-.11-.012-.093-.067l.136-.42-.362-.263c-.047-.034-.023-.107.035-.108l.45-.003.143-.42c.019-.054.097-.054.115 0m0 2.194.143.419.45.003c.059 0 .083.074.036.108l-.363.262.136.422c.018.054-.045.1-.093.066l-.366-.257-.367.257c-.047.033-.11-.012-.093-.066l.136-.422-.362-.262c-.047-.034-.023-.107.035-.108l.45-.003.143-.42c.019-.054.097-.054.115 0m1.735-7.698.143.42.45.003c.058 0 .083.073.036.107l-.363.263.136.421c.018.055-.046.1-.093.067l-.366-.257-.367.257c-.047.033-.11-.012-.093-.067l.136-.421-.362-.263c-.047-.034-.023-.107.035-.107l.45-.004.143-.419c.019-.054.097-.054.115 0m0 2.193.143.42.45.003c.058 0 .083.074.036.107l-.363.263.136.421c.018.055-.046.1-.093.067l-.366-.257-.367.257c-.047.033-.11-.012-.093-.067l.136-.42-.362-.263c-.047-.035-.023-.107.035-.108l.45-.003.143-.42c.019-.054.097-.054.115 0m0 2.194.143.419.45.003c.058 0 .083.074.036.108l-.363.262.136.422c.018.054-.046.1-.093.066l-.366-.257-.367.257c-.047.033-.11-.012-.093-.066l.136-.422-.362-.262c-.047-.034-.023-.107.035-.108l.45-.003.143-.42c.019-.054.097-.054.115 0m0 2.193.143.419.45.003c.058 0 .083.074.036.108l-.363.262.136.422c.018.054-.046.1-.093.066l-.366-.257-.367.257c-.047.033-.11-.012-.093-.066l.136-.422-.362-.262c-.047-.034-.023-.107.035-.108l.45-.003.143-.42c.019-.053.097-.053.115 0m1.735-7.655.143.42.45.003c.058 0 .082.073.036.107l-.363.263.136.42c.018.055-.046.1-.093.067l-.366-.257-.367.257c-.047.034-.11-.012-.093-.066l.136-.421-.362-.263c-.047-.034-.023-.107.035-.107l.45-.004.143-.42c.018-.053.097-.053.115 0m0 2.193.143.42.45.003c.058 0 .082.073.036.107l-.363.263.136.421c.018.055-.046.1-.093.066l-.366-.257-.367.257c-.047.034-.11-.011-.093-.066l.136-.421-.362-.263c-.047-.034-.023-.107.035-.107l.45-.004.143-.419c.018-.054.097-.054.115 0m0 2.193.143.42.45.003c.058 0 .082.073.036.107l-.363.263.136.421c.018.055-.046.1-.093.067l-.366-.257-.367.257c-.047.033-.11-.012-.093-.067l.136-.421-.362-.263c-.047-.034-.023-.107.035-.107l.45-.003.143-.42c.018-.054.097-.054.115 0m0 2.193.143.42.45.003c.058 0 .082.074.036.108l-.363.262.136.421c.018.055-.046.1-.093.067l-.366-.257-.367.257c-.047.033-.11-.012-.093-.067l.136-.42-.362-.263c-.047-.034-.023-.107.035-.108l.45-.003.143-.42c.018-.054.097-.054.115 0m0 2.194.143.419.45.003c.058 0 .082.074.036.108l-.363.262.136.422c.018.054-.046.1-.093.066l-.366-.257-.367.257c-.047.033-.11-.012-.093-.066l.136-.422-.362-.262c-.047-.034-.023-.107.035-.108l.45-.003.143-.42c.018-.054.097-.054.115 0m1.735-7.698.143.42.45.003c.058 0 .082.073.036.107l-.363.263.136.421c.018.055-.046.1-.093.067l-.366-.257-.367.257c-.047.033-.11-.012-.093-.067l.136-.421-.362-.263c-.047-.034-.023-.107.035-.107l.45-.004.143-.419c.018-.054.097-.054.115 0m0 2.193.143.42.45.003c.058 0 .082.074.036.107l-.363.263.136.421c.018.055-.046.1-.093.067l-.366-.257-.367.257c-.047.033-.11-.012-.093-.067l.136-.42-.362-.263c-.047-.035-.023-.107.035-.108l.45-.003.143-.42c.018-.054.097-.054.115 0m0 2.194.143.419.45.003c.058 0 .082.074.036.108l-.363.262.136.422c.018.054-.046.1-.093.066l-.366-.257-.367.257c-.047.033-.11-.012-.093-.066l.136-.422-.362-.262c-.047-.034-.023-.107.035-.108l.45-.003.143-.42c.018-.054.097-.054.115 0m0 2.193.143.419.45.003c.058 0 .082.074.036.108l-.363.262.136.422c.018.054-.046.1-.093.066l-.366-.257-.367.257c-.047.033-.11-.012-.093-.066l.136-.422-.362-.262c-.047-.034-.023-.107.035-.108l.45-.003.143-.42c.018-.053.097-.053.115 0m1.735-7.655.143.42.45.003c.058 0 .082.073.035.107l-.362.263.136.42c.018.055-.046.1-.093.067l-.367-.257-.366.257c-.047.034-.11-.012-.093-.066l.136-.421-.362-.263c-.047-.034-.023-.107.035-.107l.45-.004.143-.42c.018-.053.097-.053.115 0m0 2.193.143.42.45.003c.058 0 .082.073.035.107l-.362.263.136.421c.018.055-.046.1-.093.066l-.367-.257-.366.257c-.047.034-.11-.011-.093-.066l.136-.421-.362-.263c-.047-.034-.023-.107.035-.107l.45-.004.143-.419c.018-.054.097-.054.115 0m0 2.193.143.42.45.003c.058 0 .082.073.035.107l-.362.263.136.421c.018.055-.046.1-.093.067l-.367-.257-.366.257c-.047.033-.11-.012-.093-.067l.136-.421-.362-.263c-.047-.034-.023-.107.035-.107l.45-.003.143-.42c.018-.054.097-.054.115 0m0 2.193.143.42.45.003c.058 0 .082.074.035.108l-.362.262.136.421c.018.055-.046.1-.093.067l-.367-.257-.366.257c-.047.033-.11-.012-.093-.067l.136-.42-.362-.263c-.047-.034-.023-.107.035-.108l.45-.003.143-.42c.018-.054.097-.054.115 0m0 2.194.143.419.45.003c.058 0 .082.074.035.108l-.362.262.136.422c.018.054-.046.1-.093.066l-.367-.257-.366.257c-.047.033-.11-.012-.093-.066l.136-.422-.362-.262c-.047-.034-.023-.107.035-.108l.45-.003.143-.42c.018-.054.097-.054.115 0"/></svg>