<svg width="64" height="64" viewBox="0 0 64 64" fill="none" xmlns="http://www.w3.org/2000/svg">
<rect width="64" height="64" rx="8" fill="white"/>
<path fill-rule="evenodd" clip-rule="evenodd" d="M32.0001 36C35.3138 36 38.0001 38.6863 38.0001 42C38.0001 45.3137 35.3138 48 32.0001 48C28.6863 48 26.0001 45.3137 26.0001 42C26.0001 38.6863 28.6863 36 32.0001 36ZM35.9493 39.1084C35.457 38.5862 34.6339 38.5616 34.1114 39.0537L30.837 42.1367L29.9737 41.1689C29.4958 40.6333 28.6735 40.5867 28.1378 41.0645C27.6023 41.5422 27.555 42.3636 28.0323 42.8994L29.7852 44.8652C30.0187 45.1271 30.3488 45.2835 30.6993 45.2988C31.0498 45.3141 31.3921 45.1869 31.6475 44.9463L35.8946 40.9463C36.4171 40.454 36.4415 39.631 35.9493 39.1084Z" fill="#3E96F4"/>
<path d="M33.3878 28.2217C35.5065 28.2217 37.5032 29.063 39.0088 30.5918C40.5071 32.1131 41.3321 34.1219 41.3321 36.2471C41.3319 36.5844 41.0581 36.8574 40.7208 36.8574H38.126C36.6585 35.1111 34.4596 34 32.0001 34C29.5405 34 27.3416 35.1111 25.8741 36.8574H23.6114C23.274 36.8574 23.0003 36.5844 23.0001 36.2471C23.0001 34.1219 23.825 32.1131 25.3233 30.5918C26.829 29.063 28.8257 28.2217 30.9444 28.2217H33.3878Z" fill="#3E96F4"/>
<path d="M32.1661 16C35.1986 16 37.6661 18.4675 37.6661 21.5C37.6659 24.5323 35.1984 26.999 32.1661 26.999C29.1337 26.999 26.6663 24.5323 26.6661 21.5C26.6661 18.4675 29.1336 16 32.1661 16Z" fill="#3E96F4"/>
<path d="M42.8047 28.6387C44.1916 28.6387 45.4989 29.1646 46.4844 30.1201C48.0075 31.6436 48.0049 35.326 48.0049 36.6543C48.0048 36.8651 47.8254 37.0361 47.6045 37.0361H42.5831C42.6868 36.7939 42.745 36.5274 42.7452 36.2471C42.7452 33.7526 41.7736 31.3913 40.0186 29.6094C39.7543 29.3929 39.4951 29.1951 39.2442 29.0098C39.8593 28.7663 40.5225 28.6387 41.2051 28.6387H42.8047Z" fill="#3E96F4"/>
<path d="M37.9991 29.7148C38.3592 29.9758 38.7021 30.2675 39.0215 30.5918C40.5198 32.1131 41.3448 34.1219 41.3448 36.2471C41.3446 36.5843 41.0708 36.8574 40.7335 36.8574H40.7315C41.0688 36.8574 41.3426 36.5843 41.3428 36.2471C41.3428 34.1219 40.5178 32.1131 39.0196 30.5918C38.7005 30.2678 38.3578 29.9766 37.9981 29.7158L37.9991 29.7148Z" fill="#3E96F4"/>
<path d="M42.0049 21C43.9899 21 45.6055 22.5422 45.6055 24.4375C45.6054 26.3327 43.9898 27.874 42.0049 27.874C40.0202 27.8739 38.4055 26.3326 38.4053 24.4375C38.4053 22.5423 40.0201 21.0001 42.0049 21Z" fill="#3E96F4"/>
<path d="M21.2002 28.6387C19.8134 28.6387 18.506 29.1647 17.5205 30.1201C15.9974 31.6436 16 35.326 16 36.6543C16.0001 36.8651 16.1797 37.036 16.4004 37.0361H21.4238C21.3201 36.7939 21.2619 36.5274 21.2617 36.2471C21.2617 33.7526 22.2333 31.3913 23.9883 29.6094C24.2523 29.3931 24.511 29.1949 24.7617 29.0098C24.1464 28.7662 23.4827 28.6387 22.7998 28.6387H21.2002Z" fill="#3E96F4"/>
<path d="M26.0078 29.7148C25.6477 29.9758 25.3048 30.2675 24.9854 30.5918C23.4871 32.1131 22.6621 34.122 22.6621 36.2471C22.6623 36.5843 22.9361 36.8574 23.2734 36.8574H23.2754C22.9381 36.8574 22.6643 36.5843 22.6641 36.2471C22.6641 34.122 23.4891 32.1131 24.9873 30.5918C25.3064 30.2678 25.6491 29.9766 26.0088 29.7158L26.0078 29.7148Z" fill="#3E96F4"/>
<path d="M22 21C20.0151 21.0001 18.3994 22.5423 18.3994 24.4375C18.3996 26.3326 20.0152 27.8739 22 27.874C23.9847 27.8739 25.5995 26.3326 25.5996 24.4375C25.5996 22.5423 23.9848 21.0002 22 21Z" fill="#3E96F4"/>
<path fill-rule="evenodd" clip-rule="evenodd" d="M42.7501 38C44.8211 38 46.5001 39.6789 46.5001 41.75C46.5001 43.8211 44.8211 45.5 42.7501 45.5C40.679 45.5 39.0001 43.8211 39.0001 41.75C39.0001 39.6789 40.679 38 42.7501 38ZM44.8575 39.5332C44.5447 39.2216 44.0376 39.2217 43.7256 39.5342L42.7969 40.4648L41.8682 39.5342C41.5563 39.2217 41.0492 39.2216 40.7364 39.5332C40.4238 39.8452 40.4235 40.3523 40.7354 40.665L41.6661 41.5977L40.7335 42.5342C40.4216 42.8468 40.4222 43.354 40.7344 43.666C41.0472 43.9779 41.5542 43.9776 41.8663 43.665L42.7969 42.7314L43.7276 43.665C44.0396 43.9776 44.5467 43.9779 44.8594 43.666C45.1717 43.354 45.1722 42.8468 44.8604 42.5342L43.9268 41.5977L44.8585 40.665C45.1704 40.3523 45.1701 39.8452 44.8575 39.5332Z" fill="#3E96F4"/>
<path fill-rule="evenodd" clip-rule="evenodd" d="M20.7501 38C22.8211 38 24.5001 39.6789 24.5001 41.75C24.5001 43.8211 22.8211 45.5 20.7501 45.5C18.679 45.5 17.0001 43.8211 17.0001 41.75C17.0001 39.6789 18.679 38 20.7501 38ZM22.8575 39.5332C22.5447 39.2216 22.0376 39.2217 21.7256 39.5342L20.7969 40.4648L19.8682 39.5342C19.5563 39.2217 19.0492 39.2216 18.7364 39.5332C18.4238 39.8452 18.4235 40.3523 18.7354 40.665L19.6661 41.5977L18.7335 42.5342C18.4216 42.8468 18.4222 43.354 18.7344 43.666C19.0472 43.9779 19.5542 43.9776 19.8663 43.665L20.7969 42.7314L21.7276 43.665C22.0396 43.9776 22.5467 43.9779 22.8594 43.666C23.1717 43.354 23.1722 42.8468 22.8604 42.5342L21.9268 41.5977L22.8585 40.665C23.1704 40.3523 23.1701 39.8452 22.8575 39.5332Z" fill="#3E96F4"/>
</svg>
