<svg width="36" height="36" viewBox="0 0 36 36" fill="none" xmlns="http://www.w3.org/2000/svg">
<g clip-path="url(#clip0_2565_3203)">
<path fill-rule="evenodd" clip-rule="evenodd" d="M0 5.4C0 2.41766 2.41766 0 5.4 0H30.6C33.5823 0 36 2.41766 36 5.4V22.05C36 25.0323 33.5823 27.45 30.6 27.45H29.25C28.7529 27.45 28.35 27.0471 28.35 26.55C28.35 26.0529 28.7529 25.65 29.25 25.65H30.6C32.5882 25.65 34.2 24.0382 34.2 22.05V5.4C34.2 3.41177 32.5882 1.8 30.6 1.8H5.4C3.41177 1.8 1.8 3.41177 1.8 5.4V22.05C1.8 24.0382 3.41177 25.65 5.4 25.65H6.75C7.24705 25.65 7.65 26.0529 7.65 26.55C7.65 27.0471 7.24705 27.45 6.75 27.45H5.4C2.41766 27.45 0 25.0323 0 22.05V5.4Z" fill="#3DA4C2"/>
<path fill-rule="evenodd" clip-rule="evenodd" d="M34.2008 8.99995H1.80078V7.19995H34.2008V8.99995Z" fill="#3DA4C2"/>
<path d="M5.39961 4.49998C5.39961 4.99703 4.99666 5.39998 4.49961 5.39998C4.00256 5.39998 3.59961 4.99703 3.59961 4.49998C3.59961 4.00292 4.00256 3.59998 4.49961 3.59998C4.99666 3.59998 5.39961 4.00292 5.39961 4.49998Z" fill="#3DA4C2"/>
<path d="M8.10078 4.49998C8.10078 4.99703 7.69784 5.39998 7.20078 5.39998C6.70373 5.39998 6.30078 4.99703 6.30078 4.49998C6.30078 4.00292 6.70373 3.59998 7.20078 3.59998C7.69784 3.59998 8.10078 4.00292 8.10078 4.49998Z" fill="#3DA4C2"/>
<path d="M10.8 4.49998C10.8 4.99703 10.3971 5.39998 9.9 5.39998C9.40293 5.39998 9 4.99703 9 4.49998C9 4.00292 9.40293 3.59998 9.9 3.59998C10.3971 3.59998 10.8 4.00292 10.8 4.49998Z" fill="#3DA4C2"/>
<path d="M13.5 4.49998C13.5 4.00292 13.9029 3.59998 14.4 3.59998H31.5C31.9971 3.59998 32.4 4.00292 32.4 4.49998C32.4 4.99703 31.9971 5.39998 31.5 5.39998H14.4C13.9029 5.39998 13.5 4.99703 13.5 4.49998Z" fill="#3DA4C2"/>
<path fill-rule="evenodd" clip-rule="evenodd" d="M9 28.8C9 26.8118 10.6118 25.2 12.6 25.2H23.4C25.3882 25.2 27 26.8118 27 28.8V36H25.2V28.8C25.2 27.8058 24.3941 27 23.4 27H12.6C11.6059 27 10.8 27.8058 10.8 28.8V36H9V28.8Z" fill="#3DA4C2"/>
<path fill-rule="evenodd" clip-rule="evenodd" d="M17.55 21.6C18.7926 21.6 19.8 20.5927 19.8 19.35C19.8 18.1074 18.7926 17.1 17.55 17.1C16.3074 17.1 15.3 18.1074 15.3 19.35C15.3 20.5927 16.3074 21.6 17.55 21.6ZM17.55 23.4C19.7868 23.4 21.6 21.5868 21.6 19.35C21.6 17.1133 19.7868 15.3 17.55 15.3C15.3132 15.3 13.5 17.1133 13.5 19.35C13.5 21.5868 15.3132 23.4 17.55 23.4Z" fill="#3DA4C2"/>
</g>
<defs>
<clipPath id="clip0_2565_3203">
<rect width="36" height="36" fill="white"/>
</clipPath>
</defs>
</svg>
