<svg width="20" height="20" viewBox="0 0 20 20" fill="none" xmlns="http://www.w3.org/2000/svg">
<path fill-rule="evenodd" clip-rule="evenodd" d="M11.2862 0.350578C10.8247 0.120024 10.3159 0 9.80004 0C9.28418 0 8.77542 0.120024 8.31395 0.350578L1.09361 3.94003L9.81622 8.85826L18.9034 4.15464L11.2862 0.350578Z" fill="#505050"/>
<path fill-rule="evenodd" clip-rule="evenodd" d="M0 13.1856C0.00247749 13.7918 0.170207 14.3859 0.485158 14.9039C0.800109 15.4219 1.25035 15.8442 1.78743 16.1254L9.16654 19.9882V10.5751L0 5.407V13.1856Z" fill="#505050"/>
<path fill-rule="evenodd" clip-rule="evenodd" d="M10.8335 10.5751V20L18.2125 16.1372C18.7496 15.856 19.1998 15.4336 19.5148 14.9157C19.8298 14.3977 19.9975 13.8036 20 13.1974V5.407L10.8335 10.5751Z" fill="#505050"/>
</svg>
