<svg width="15" height="21" viewBox="0 0 15 21" fill="none" xmlns="http://www.w3.org/2000/svg">
<path d="M13.805 8.22568C13.7432 8.15412 13.6698 8.09736 13.589 8.05864C13.5082 8.01992 13.4217 7.99999 13.3342 8C13.2468 8.00001 13.1602 8.01995 13.0794 8.05869C12.9987 8.09743 12.9253 8.15421 12.8635 8.22578L6.88884 15.1401L4.13657 11.9554C4.01173 11.8109 3.84241 11.7298 3.66585 11.7298C3.48929 11.7297 3.31995 11.8109 3.19509 11.9553C3.13325 12.0268 3.08419 12.1117 3.05072 12.2052C3.01724 12.2986 3.00001 12.3988 3 12.5C2.99999 12.6011 3.01721 12.7013 3.05067 12.7948C3.08413 12.8882 3.13317 12.9731 3.195 13.0447L6.4181 16.7743C6.47992 16.8459 6.55332 16.9026 6.63411 16.9413C6.7149 16.9801 6.80148 17 6.88893 17C6.97637 17 7.06296 16.9801 7.14374 16.9413C7.22453 16.9026 7.29793 16.8459 7.35976 16.7743L13.8052 9.31505C13.9299 9.17055 14 8.97461 14 8.77032C14 8.56604 13.9298 8.37013 13.805 8.22568Z" fill="#31393C" stroke="#31393C"/>
<path d="M14.0246 12.4446C13.811 12.4446 13.6061 12.5295 13.455 12.6806C13.3039 12.8317 13.219 13.0366 13.219 13.2502V19.219H1.61116V7.61116H10.8023C11.2473 7.61116 11.6079 7.25058 11.6079 6.80558C11.6079 6.59193 11.523 6.38702 11.3719 6.23595C11.2208 6.08487 11.0159 6 10.8023 6H0.80558C0.591927 6 0.387025 6.08487 0.235949 6.23595C0.0848734 6.38702 0 6.59193 0 6.80558L0 20.0246C0 20.2383 0.0848734 20.4432 0.235949 20.5942C0.387025 20.7453 0.591927 20.8302 0.80558 20.8302H14.0246C14.4696 20.8302 14.8302 20.4696 14.8302 20.0246V13.2502C14.8302 13.0366 14.7453 12.8317 14.5942 12.6806C14.4432 12.5295 14.2383 12.4446 14.0246 12.4446Z" fill="#16AA1B"/>
</svg>
