<svg width="48" height="48" viewBox="0 0 48 48" fill="none" xmlns="http://www.w3.org/2000/svg">
<rect width="48" height="48" rx="8" fill="white"/>
<path fill-rule="evenodd" clip-rule="evenodd" d="M11.1911 24.7187L9.87981 23.4559C9.814 23.3887 9.73536 23.3353 9.64855 23.299C9.56174 23.2627 9.46852 23.2441 9.37442 23.2445C9.28033 23.2449 9.18726 23.2641 9.10074 23.3011C9.01422 23.3381 8.936 23.3921 8.87073 23.4599C8.80546 23.5277 8.75446 23.6079 8.72075 23.6957C8.68704 23.7836 8.67131 23.8773 8.67448 23.9714C8.67766 24.0654 8.69968 24.1579 8.73925 24.2433C8.77881 24.3286 8.83511 24.4052 8.90481 24.4684L10.7122 26.2093C10.8446 26.3375 11.0221 26.4085 11.2064 26.4069C11.3907 26.4053 11.5669 26.3312 11.697 26.2007L15.1057 22.792C15.2376 22.6602 15.3117 22.4813 15.3117 22.2948C15.3117 22.1083 15.2376 21.9295 15.1057 21.7976C14.9738 21.6657 14.795 21.5916 14.6085 21.5916C14.422 21.5916 14.2431 21.6657 14.1113 21.7976L11.1912 24.7187H11.1911ZM12.0485 12C12.4623 12.0114 12.856 12.1808 13.1489 12.4734L14.589 13.9147C14.6146 13.9438 14.6483 13.9647 14.6857 13.9748C14.7231 13.9849 14.7627 13.9838 14.7995 13.9716L16.7682 13.4443C17.1842 13.333 17.6273 13.3914 18.0003 13.6067C18.3732 13.822 18.6454 14.1765 18.7571 14.5923L19.2845 16.5611C19.2923 16.5989 19.311 16.6335 19.3383 16.6608C19.3656 16.6881 19.4003 16.7068 19.438 16.7146L21.4076 17.242C21.8232 17.3542 22.1773 17.6265 22.3925 17.9993C22.6077 18.3721 22.6664 18.8149 22.5557 19.2309L22.0273 21.1996C22.0155 21.2365 22.0146 21.2759 22.0247 21.3133C22.0348 21.3506 22.0555 21.3842 22.0842 21.4101L23.5253 22.8512C23.8295 23.1558 24.0005 23.5687 24.0005 23.9993C24.0005 24.4298 23.8295 24.8427 23.5253 25.1473L22.084 26.5885C22.0553 26.6144 22.0346 26.6481 22.0245 26.6854C22.0145 26.7227 22.0154 26.7622 22.0271 26.799L22.5555 28.7678C22.6662 29.1838 22.6075 29.6266 22.3923 29.9994C22.1772 30.3722 21.823 30.6445 21.4074 30.7568L19.4379 31.284C19.4001 31.2919 19.3654 31.3106 19.3381 31.3379C19.3108 31.3652 19.2921 31.3998 19.2843 31.4376L18.7569 33.4064C18.6452 33.8222 18.373 34.1767 18.0001 34.392C17.6271 34.6072 17.184 34.6656 16.768 34.5544L14.7993 34.0271C14.7625 34.0149 14.7229 34.0137 14.6855 34.0239C14.6481 34.034 14.6144 34.0549 14.5888 34.084L13.1487 35.5246C12.8437 35.8286 12.4307 35.9993 12.0001 35.9993C11.5695 35.9993 11.1565 35.8286 10.8515 35.5246L9.41049 34.0834C9.38497 34.0545 9.35153 34.0337 9.31431 34.0236C9.27708 34.0135 9.23771 34.0145 9.20106 34.0265L7.23198 34.5538C6.81602 34.665 6.37292 34.6066 6.00001 34.3914C5.6271 34.1761 5.35489 33.8216 5.24317 33.4058L4.71578 31.437C4.70794 31.3992 4.6892 31.3645 4.66187 31.3372C4.63454 31.3099 4.59981 31.2913 4.56198 31.2835L2.59323 30.7562C2.17756 30.6441 1.82327 30.3719 1.608 29.999C1.39273 29.6262 1.33404 29.1833 1.44479 28.7672L1.97256 26.7987C1.98478 26.7619 1.98592 26.7224 1.97584 26.6849C1.96575 26.6475 1.94489 26.6139 1.91584 26.5882L0.474995 25.1472C0.170834 24.8425 0 24.4296 0 23.9991C0 23.5686 0.170834 23.1557 0.474995 22.8511L1.9164 21.4099C1.94529 21.3841 1.96601 21.3505 1.976 21.3131C1.986 21.2757 1.98483 21.2361 1.97265 21.1994L1.44489 19.2307C1.33414 18.8146 1.39284 18.3717 1.60811 17.9989C1.82338 17.6261 2.17766 17.3538 2.59332 17.2417L4.56207 16.7144C4.59991 16.7066 4.63463 16.6879 4.66196 16.6607C4.68929 16.6334 4.70803 16.5987 4.71587 16.5608L5.24326 14.5923C5.35504 14.1765 5.62726 13.8221 6.00015 13.6068C6.37304 13.3916 6.81611 13.3331 7.23207 13.4443L9.20115 13.9716C9.23778 13.9838 9.27721 13.9849 9.31447 13.9748C9.35174 13.9646 9.38518 13.9437 9.41059 13.9147L10.8518 12.4736C11.1446 12.181 11.5382 12.0115 11.952 12H12.0485ZM11.9997 29.2303C10.9651 29.2303 9.95368 28.9235 9.0934 28.3487C8.23313 27.7739 7.56263 26.9569 7.16668 26.001C6.77074 25.0451 6.66715 23.9933 6.869 22.9785C7.07084 21.9637 7.56907 21.0316 8.30068 20.3C9.03228 19.5684 9.9644 19.0702 10.9792 18.8683C11.9939 18.6665 13.0458 18.7701 14.0016 19.166C14.9575 19.562 15.7745 20.2325 16.3494 21.0927C16.9242 21.953 17.231 22.9644 17.231 23.9991C17.2296 25.386 16.6779 26.7158 15.6972 27.6965C14.7165 28.6773 13.3867 29.2289 11.9997 29.2303Z" fill="#3E96F4"/>
</svg>
