<svg width="130" height="130" viewBox="0 0 130 130" fill="none" xmlns="http://www.w3.org/2000/svg">
<g filter="url(#filter0_d_0_694)">
<path d="M10 22C10 15.3726 15.3726 10 22 10H108C114.627 10 120 15.3726 120 22V108C120 114.627 114.627 120 108 120H22C15.3726 120 10 114.627 10 108V22Z" fill="white"/>
</g>
<path d="M26.9966 35.7998H102.917C106.894 35.7998 110.118 39.0236 110.118 43V102C110.118 105.976 106.894 109.2 102.917 109.2H26.9966C23.0201 109.2 19.7964 105.976 19.7964 102V43C19.7964 39.0236 23.0201 35.7998 26.9966 35.7998Z" fill="#EEF9EE" stroke="#8CD990" stroke-width="1.6"/>
<path d="M32.0801 15.7998H97.8203C99.1161 15.7998 100.068 16.3056 100.913 17.1904C101.79 18.1084 102.526 19.406 103.348 20.9629V20.9639L113.185 40.3447L113.202 40.376C113.303 40.5548 113.397 40.7387 113.482 40.9277L113.489 40.9443L113.497 40.959L113.649 41.2598L113.665 41.3389L113.677 41.3984L113.697 41.4561C113.93 42.1046 114.07 42.7982 114.101 43.5215L114.103 43.582L114.11 43.626L114.104 43.9805C114.023 47.7923 110.913 50.8563 107.087 50.8564C104.321 50.8564 101.928 49.2539 100.783 46.9219L100.064 45.459L99.3467 46.9219C98.2019 49.2539 95.8082 50.8564 93.042 50.8564C90.2763 50.8562 87.8831 49.2542 86.7383 46.9229L86.0205 45.4609L85.3018 46.9229C84.1568 49.2542 81.7645 50.8562 78.999 50.8564C76.2328 50.8564 73.8391 49.254 72.6943 46.9219L71.9766 45.459L71.2578 46.9219C70.113 49.2538 67.7202 50.8564 64.9541 50.8564C62.1882 50.8564 59.7953 49.2543 58.6504 46.9229L57.9316 45.4609L57.2139 46.9229C56.0688 49.2543 53.6757 50.8562 50.9102 50.8564C48.1441 50.8563 45.7511 49.2539 44.6064 46.9219L43.8887 45.459L43.1699 46.9219C42.0252 49.2538 39.6323 50.8563 36.8662 50.8564C34.1 50.8564 31.7062 49.254 30.5615 46.9219L29.8438 45.459L29.126 46.9219C27.9812 49.2539 25.5875 50.8564 22.8213 50.8564C18.9443 50.8562 15.7999 47.7101 15.7998 43.8281L15.8066 43.5312L15.8086 43.4648C15.8449 42.7503 15.9876 42.0648 16.2207 41.4238L16.2422 41.3672L16.2646 41.2549L16.4395 40.8955L16.4434 40.8887L16.4463 40.8818C16.4854 40.7972 16.5274 40.7114 16.5723 40.624L16.5762 40.6172L16.5791 40.6104L26.8965 19.4902L26.915 19.4512L26.9297 19.4111C27.6703 17.369 29.5883 15.8949 31.8594 15.8047L32.0801 15.7998Z" fill="#EEF9EE" stroke="#8CD990" stroke-width="1.6"/>
<path d="M39.9785 16L29.4875 46" stroke="#8CD990" stroke-width="1.6"/>
<path d="M51.9682 16.5L43.9751 45.5" stroke="#8CD990" stroke-width="1.6"/>
<path d="M61.9596 16.5L57.9631 45.5" stroke="#8CD990" stroke-width="1.6"/>
<path d="M70.9519 16L71.9519 45.5" stroke="#8CD990" stroke-width="1.6"/>
<path d="M81.4429 16L85.939 45.5" stroke="#8CD990" stroke-width="1.6"/>
<path d="M91.9339 16L99.927 45.5" stroke="#8CD990" stroke-width="1.6"/>
<path d="M64.957 102.8C74.3031 102.8 82.7436 103.525 88.8281 104.689C91.8768 105.273 94.2934 105.959 95.9286 106.699C96.7487 107.07 97.3285 107.435 97.6913 107.774C98.0547 108.114 98.1279 108.356 98.1279 108.5C98.1279 108.644 98.0547 108.886 97.6913 109.226C97.3285 109.565 96.7487 109.93 95.9286 110.301C94.2934 111.041 91.8768 111.727 88.8281 112.311C82.7436 113.475 74.3031 114.2 64.957 114.2C55.6111 114.2 47.1713 113.475 41.0869 112.311C38.038 111.727 35.6206 111.041 33.9853 110.301C33.1653 109.93 32.5854 109.565 32.2226 109.226C31.8594 108.886 31.7861 108.644 31.7861 108.5C31.7861 108.356 31.8594 108.114 32.2226 107.774C32.5854 107.435 33.1653 107.07 33.9853 106.699C35.6206 105.959 38.038 105.273 41.0869 104.689C47.1713 103.525 55.6111 102.8 64.957 102.8Z" fill="#EEF9EE" stroke="#B3B3B3" stroke-width="1.6"/>
<path d="M65 105.8C69.3784 105.8 73.3183 106.189 76.1426 106.807C77.5612 107.117 78.6552 107.476 79.375 107.849C79.7358 108.035 79.9633 108.205 80.0908 108.341C80.2146 108.473 80.2002 108.524 80.2002 108.5C80.2002 108.476 80.2146 108.527 80.0908 108.659C79.9633 108.795 79.7358 108.965 79.375 109.151C78.6552 109.524 77.5612 109.883 76.1426 110.193C73.3183 110.811 69.3784 111.2 65 111.2C60.6216 111.2 56.6817 110.811 53.8574 110.193C52.4388 109.883 51.3448 109.524 50.625 109.151C50.2642 108.965 50.0367 108.795 49.9092 108.659C49.7854 108.527 49.7998 108.476 49.7998 108.5C49.7998 108.524 49.7854 108.473 49.9092 108.341C50.0367 108.205 50.2642 108.035 50.625 107.849C51.3448 107.476 52.4388 107.117 53.8574 106.807C56.6817 106.189 60.6216 105.8 65 105.8Z" stroke="#808080" stroke-width="1.6"/>
<path d="M65 56.7998C75.0619 56.7998 83.2002 64.8812 83.2002 74.8447C83.2001 78.1328 82.3155 81.2045 80.7744 83.8506L65 107.556L49.2246 83.8506C47.6836 81.2046 46.7999 78.1326 46.7998 74.8447C46.7998 64.8812 54.9381 56.7998 65 56.7998ZM65 64.6221C59.3156 64.6221 54.7002 69.1909 54.7002 74.8447C54.7003 80.4984 59.3157 85.0664 65 85.0664C70.6843 85.0664 75.2997 80.4984 75.2998 74.8447C75.2998 69.1909 70.6844 64.6221 65 64.6221Z" fill="#319B36" stroke="#4D4C4D" stroke-width="1.6"/>
<defs>
<filter id="filter0_d_0_694" x="0" y="0" width="130" height="130" filterUnits="userSpaceOnUse" color-interpolation-filters="sRGB">
<feFlood flood-opacity="0" result="BackgroundImageFix"/>
<feColorMatrix in="SourceAlpha" type="matrix" values="0 0 0 0 0 0 0 0 0 0 0 0 0 0 0 0 0 0 127 0" result="hardAlpha"/>
<feOffset/>
<feGaussianBlur stdDeviation="5"/>
<feComposite in2="hardAlpha" operator="out"/>
<feColorMatrix type="matrix" values="0 0 0 0 0.237426 0 0 0 0 0.685651 0 0 0 0 0.259837 0 0 0 0.5 0"/>
<feBlend mode="normal" in2="BackgroundImageFix" result="effect1_dropShadow_0_694"/>
<feBlend mode="normal" in="SourceGraphic" in2="effect1_dropShadow_0_694" result="shape"/>
</filter>
</defs>
</svg>
