<svg width="354" height="377" viewBox="0 0 354 377" fill="none" xmlns="http://www.w3.org/2000/svg">
<rect width="354" height="377" fill="url(#paint0_radial_1_271)"/>
<path d="M243.026 56.683H108.537C98.4083 56.683 90.1975 64.8938 90.1975 75.0224V325.661C90.1975 335.789 98.4083 344 108.537 344H243.026C253.154 344 261.365 335.789 261.365 325.661V75.0224C261.365 64.8938 253.154 56.683 243.026 56.683Z" fill="#BED5ED"/>
<path d="M243.025 62.7962H108.537C101.784 62.7962 96.3103 68.2701 96.3103 75.0224V325.661C96.3103 332.413 101.784 337.887 108.537 337.887H243.025C249.778 337.887 255.252 332.413 255.252 325.661V75.0224C255.252 68.2701 249.778 62.7962 243.025 62.7962Z" fill="#DAE4F2"/>
<path d="M243.026 68.9091H108.537C105.161 68.9091 102.424 71.6461 102.424 75.0223V325.661C102.424 329.037 105.161 331.774 108.537 331.774H243.026C246.402 331.774 249.139 329.037 249.139 325.661V75.0223C249.139 71.6461 246.402 68.9091 243.026 68.9091Z" fill="url(#paint1_linear_1_271)"/>
<path d="M175.958 296.532C197.059 296.532 214.165 279.426 214.165 258.324C214.165 237.223 197.059 220.117 175.958 220.117C154.856 220.117 137.75 237.223 137.75 258.324C137.75 279.426 154.856 296.532 175.958 296.532Z" fill="url(#paint2_linear_1_271)" stroke="#3E96F4" stroke-width="3" stroke-miterlimit="10" stroke-linecap="round"/>
<path d="M182.988 240.597C182.988 236.714 179.841 233.566 175.958 233.566C172.076 233.566 168.928 236.714 168.928 240.597V262.298C168.928 266.181 172.076 269.328 175.958 269.328C179.841 269.328 182.988 266.181 182.988 262.298V240.597Z" stroke="white" stroke-width="4" stroke-miterlimit="10"/>
<path d="M188.489 249.155V262.86C188.493 264.509 188.171 266.143 187.543 267.667C186.915 269.192 185.993 270.578 184.829 271.746C183.665 272.914 182.283 273.842 180.761 274.476C179.239 275.11 177.606 275.438 175.958 275.441C172.632 275.435 169.444 274.109 167.095 271.755C164.745 269.401 163.426 266.211 163.426 262.885V249.155" stroke="white" stroke-width="4" stroke-miterlimit="10" stroke-linecap="round"/>
<path d="M166.176 283.083H185.738" stroke="white" stroke-width="3" stroke-miterlimit="10" stroke-linecap="round"/>
<path d="M175.957 276.358V282.471" stroke="white" stroke-width="3" stroke-miterlimit="10" stroke-linecap="round"/>
<path d="M133.949 301.037C128.248 295.429 123.727 288.737 120.653 281.355C117.579 273.972 116.014 266.049 116.051 258.052C116.087 250.056 117.724 242.147 120.866 234.793C124.007 227.439 128.588 220.788 134.341 215.233" stroke="#3E96F4" stroke-width="3" stroke-miterlimit="10" stroke-linecap="round"/>
<path d="M125.286 308.367C112.068 294.982 104.681 276.912 104.74 258.101C104.798 239.29 112.297 221.266 125.598 207.964" stroke="#3E96F4" stroke-width="3" stroke-miterlimit="10" stroke-linecap="round"/>
<path d="M116.863 315.495C101.974 300.102 93.6776 279.508 93.7382 258.094C93.7987 236.679 102.211 216.132 117.187 200.824" stroke="#3E96F4" stroke-width="3" stroke-miterlimit="10" stroke-linecap="round"/>
<path d="M107.974 323.008C91.3216 305.503 82.0618 282.251 82.1221 258.092C82.1825 233.932 91.5583 210.726 108.298 193.305" stroke="#3E96F4" stroke-width="3" stroke-miterlimit="10" stroke-linecap="round"/>
<path d="M217.607 301.037C223.309 295.43 227.831 288.738 230.905 281.356C233.98 273.973 235.545 266.05 235.509 258.054C235.473 250.057 233.837 242.148 230.696 234.794C227.555 227.44 222.974 220.789 217.222 215.233" stroke="#3E96F4" stroke-width="3" stroke-miterlimit="10" stroke-linecap="round"/>
<path d="M226.277 308.367C239.495 294.982 246.881 276.912 246.823 258.101C246.765 239.29 239.266 221.266 225.965 207.964" stroke="#3E96F4" stroke-width="3" stroke-miterlimit="10" stroke-linecap="round"/>
<path d="M234.699 315.495C249.588 300.102 257.884 279.508 257.824 258.094C257.763 236.679 249.35 216.132 234.375 200.824" stroke="#3E96F4" stroke-width="3" stroke-miterlimit="10" stroke-linecap="round"/>
<path d="M243.581 323.008C260.236 305.505 269.498 282.253 269.438 258.093C269.379 233.933 260.003 210.726 243.263 193.305" stroke="#3E96F4" stroke-width="3" stroke-miterlimit="10" stroke-linecap="round"/>
<path d="M197.94 110.379H153.332C149.916 110.379 147.146 113.142 147.146 116.55V137.338C147.146 140.747 149.916 143.51 153.332 143.51H197.94C201.357 143.51 204.126 140.747 204.126 137.338V116.55C204.126 113.142 201.357 110.379 197.94 110.379Z" fill="url(#paint3_linear_1_271)"/>
<path d="M162.797 132.734C161.44 132.734 160.139 132.197 159.18 131.24C158.22 130.283 157.681 128.984 157.681 127.631V121.779C157.681 120.424 158.22 119.124 159.179 118.165C160.138 117.206 161.439 116.665 162.797 116.661C164.157 116.661 165.462 117.201 166.424 118.16C167.386 119.12 167.926 120.421 167.926 121.779V127.672C167.912 129.02 167.365 130.307 166.405 131.255C165.444 132.203 164.148 132.734 162.797 132.734Z" fill="url(#paint4_linear_1_271)"/>
<path d="M188.458 132.734C187.102 132.734 185.8 132.197 184.841 131.24C183.882 130.283 183.343 128.984 183.343 127.631V121.779C183.343 120.424 183.881 119.124 184.84 118.165C185.799 117.206 187.1 116.665 188.458 116.661C189.819 116.661 191.123 117.201 192.085 118.16C193.047 119.12 193.588 120.421 193.588 121.779V127.672C193.573 129.02 193.026 130.307 192.066 131.255C191.105 132.203 189.809 132.734 188.458 132.734Z" fill="url(#paint5_linear_1_271)"/>
<path d="M160.231 105.886H165.263C165.908 105.886 166.527 106.142 166.983 106.597C167.44 107.052 167.696 107.669 167.696 108.313V110.352H157.798V108.313C157.798 107.669 158.055 107.052 158.511 106.597C158.967 106.142 159.586 105.886 160.231 105.886Z" fill="url(#paint6_linear_1_271)"/>
<path d="M164.021 95.1936H161.477V105.886H164.021V95.1936Z" fill="url(#paint7_linear_1_271)"/>
<path d="M162.744 98.9246C164.809 98.9246 166.483 97.2544 166.483 95.1941C166.483 93.1338 164.809 91.4636 162.744 91.4636C160.679 91.4636 159.004 93.1338 159.004 95.1941C159.004 97.2544 160.679 98.9246 162.744 98.9246Z" fill="url(#paint8_linear_1_271)"/>
<path d="M189.784 95.1936H187.24V105.886H189.784V95.1936Z" fill="url(#paint9_linear_1_271)"/>
<path d="M188.515 98.9246C190.58 98.9246 192.254 97.2544 192.254 95.1941C192.254 93.1338 190.58 91.4636 188.515 91.4636C186.45 91.4636 184.775 93.1338 184.775 95.1941C184.775 97.2544 186.45 98.9246 188.515 98.9246Z" fill="url(#paint10_linear_1_271)"/>
<path d="M185.986 105.886H191.019C191.664 105.886 192.283 106.142 192.739 106.597C193.195 107.052 193.451 107.669 193.451 108.313V110.352H183.554V108.313C183.554 107.669 183.81 107.052 184.266 106.597C184.722 106.142 185.341 105.886 185.986 105.886Z" fill="url(#paint11_linear_1_271)"/>
<path d="M186.686 143.51H164.584V150H186.686V143.51Z" fill="url(#paint12_linear_1_271)"/>
<path d="M161.523 150H189.714C190.607 150 191.462 150.354 192.093 150.983C192.724 151.612 193.079 152.466 193.079 153.356V202.366H158.173V153.356C158.173 152.469 158.526 151.617 159.154 150.988C159.781 150.359 160.634 150.004 161.523 150Z" fill="url(#paint13_linear_1_271)"/>
<path d="M47.7194 198.073C60.038 198.073 70.0243 188.087 70.0243 175.768C70.0243 163.449 60.038 153.463 47.7194 153.463C35.4008 153.463 25.4145 163.449 25.4145 175.768C25.4145 188.087 35.4008 198.073 47.7194 198.073Z" fill="url(#paint14_linear_1_271)" stroke="#3E96F4" stroke-width="3" stroke-miterlimit="10" stroke-linecap="round"/>
<path d="M60.4382 165.561H35.6214C34.1593 165.561 32.9751 166.752 32.9751 168.207V184.085C32.9751 185.549 34.168 186.731 35.6214 186.731H60.4382C61.8881 186.731 63.0845 185.554 63.0845 184.085V168.207C63.0845 166.755 61.905 165.561 60.4382 165.561ZM60.0676 167.325L49.9011 177.438C49.4012 177.938 48.7367 178.213 48.0298 178.213C47.3229 178.213 46.6584 177.938 46.1569 177.436L35.992 167.325H60.0676ZM34.7393 183.726V168.567L42.363 176.151L34.7393 183.726ZM35.9931 184.967L43.6138 177.395L44.9111 178.685C45.7441 179.518 46.8517 179.977 48.0298 179.977C49.2079 179.977 50.3155 179.518 51.1469 178.687L52.4458 177.395L60.0665 184.967H35.9931ZM61.3203 183.726L53.6966 176.151L61.3203 168.567V183.726Z" fill="white"/>
<path d="M306.304 132.293C318.623 132.293 328.609 122.306 328.609 109.988C328.609 97.669 318.623 87.6828 306.304 87.6828C293.985 87.6828 283.999 97.669 283.999 109.988C283.999 122.306 293.985 132.293 306.304 132.293Z" fill="url(#paint15_linear_1_271)" stroke="#3E96F4" stroke-width="3" stroke-miterlimit="10" stroke-linecap="round"/>
<path d="M299.373 101.427V114.307C298.624 113.638 297.636 113.231 296.555 113.231C294.218 113.231 292.317 115.132 292.317 117.469C292.317 119.806 294.218 121.707 296.555 121.707C298.889 121.707 300.788 119.811 300.793 117.478H300.793V107.127L313.399 103.932V110.888C312.65 110.219 311.662 109.812 310.581 109.812C308.244 109.812 306.343 111.713 306.343 114.05C306.343 116.387 308.244 118.288 310.581 118.288C312.918 118.288 314.819 116.387 314.819 114.05V97.512L299.373 101.427ZM296.555 120.287C295.002 120.287 293.737 119.023 293.737 117.469C293.737 115.915 295.002 114.651 296.555 114.651C298.109 114.651 299.373 115.915 299.373 117.469C299.373 119.023 298.109 120.287 296.555 120.287ZM300.793 105.663V102.532L313.399 99.337V102.467L300.793 105.663ZM310.581 116.868C309.027 116.868 307.763 115.604 307.763 114.05C307.763 112.496 309.027 111.232 310.581 111.232C312.135 111.232 313.399 112.496 313.399 114.05C313.399 115.604 312.135 116.868 310.581 116.868Z" fill="white" stroke="white" stroke-width="0.5"/>
<path d="M45.4512 132.293C57.7698 132.293 67.7561 122.306 67.7561 109.988C67.7561 97.6691 57.7698 87.6829 45.4512 87.6829C33.1325 87.6829 23.1463 97.6691 23.1463 109.988C23.1463 122.306 33.1325 132.293 45.4512 132.293Z" fill="url(#paint16_linear_1_271)" stroke="#3E96F4" stroke-width="3" stroke-miterlimit="10" stroke-linecap="round"/>
<path d="M57.3863 97.3178C57.0342 96.9599 56.5637 96.7605 56.0615 96.7563L56.0458 96.7562C55.0179 96.7562 54.1746 97.5926 54.1662 98.6206C54.1621 99.1228 54.3536 99.5965 54.7058 99.9544C55.058 100.312 55.5285 100.512 56.0306 100.516L56.0464 100.516C57.0742 100.516 57.9175 99.6797 57.9259 98.6517C57.93 98.1495 57.7384 97.6758 57.3863 97.3178ZM56.0463 99.8216L56.0363 99.8215C55.8806 99.8206 55.7266 99.7889 55.5832 99.7281C55.4398 99.6673 55.3099 99.5787 55.201 99.4674C55.0915 99.3567 55.0051 99.2254 54.9466 99.081C54.8882 98.9366 54.859 98.7821 54.8607 98.6264C54.866 97.9782 55.3977 97.4508 56.0458 97.4508L56.0558 97.4509C56.2115 97.4517 56.3655 97.4835 56.5088 97.5442C56.6522 97.605 56.7821 97.6936 56.891 97.8049C57.0005 97.9156 57.087 98.047 57.1454 98.1913C57.2038 98.3357 57.233 98.4902 57.2313 98.6459C57.226 99.2942 56.6944 99.8216 56.0463 99.8216ZM35.6263 106.974L35.6105 106.974C34.5826 106.974 33.7394 107.81 33.731 108.838C33.7224 109.875 34.5588 110.725 35.5953 110.734H35.611C36.639 110.734 37.4822 109.897 37.4907 108.869C37.4992 107.833 36.6629 106.982 35.6263 106.974ZM35.611 110.039L35.601 110.039C34.9474 110.034 34.42 109.498 34.4254 108.844C34.4308 108.196 34.9624 107.668 35.6105 107.668H35.6205C36.2741 107.674 36.8015 108.21 36.7961 108.864C36.7908 109.512 36.2592 110.039 35.611 110.039ZM42.7007 99.8995L42.685 99.8994C41.657 99.8994 40.8138 100.736 40.8054 101.764C40.7968 102.8 41.6332 103.651 42.6697 103.659L42.6855 103.659C43.7134 103.659 44.5566 102.823 44.5651 101.795C44.5736 100.758 43.7373 99.908 42.7007 99.8995ZM42.6854 102.965L42.6754 102.965C42.0218 102.959 41.4944 102.423 41.4998 101.77C41.5052 101.121 42.0368 100.594 42.6849 100.594L42.6949 100.594C43.3485 100.599 43.8759 101.136 43.8705 101.789C43.8652 102.437 43.3336 102.965 42.6854 102.965ZM47.8096 105.008L47.7938 105.008C46.7658 105.008 45.9227 105.845 45.9142 106.873C45.9057 107.909 46.7421 108.76 47.7786 108.768L47.7943 108.768C48.8222 108.768 49.6654 107.932 49.6739 106.904C49.6824 105.867 48.846 105.017 47.8096 105.008ZM47.7942 108.074L47.7842 108.074C47.1306 108.068 46.6033 107.532 46.6086 106.878C46.6139 106.23 47.1455 105.703 47.7936 105.703L47.8036 105.703C48.4573 105.708 48.9846 106.244 48.9792 106.898C48.974 107.546 48.4424 108.074 47.7942 108.074Z" fill="white" stroke="white"/>
<path d="M48.6302 105.558L54.7068 99.4661L55.1986 99.9566L49.1218 106.049L48.6302 105.558ZM43.5234 103.109L44.0144 102.618L46.9579 105.562L46.4668 106.053L43.5234 103.109ZM36.449 107.524L41.356 102.618L41.8471 103.109L36.9401 108.016L36.449 107.524ZM53.6553 103.909V120.951H57.9259V103.909H53.6553ZM54.3498 120.257L54.3498 104.603H57.2314V120.257H54.3498ZM47.0138 111.061V120.951H51.2845V111.061H47.0138ZM50.5901 120.257H47.7084V111.755H50.5901V120.257ZM40.3723 110.55V120.951H44.643V110.55H40.3723ZM43.9485 120.257H41.0669V111.245H43.9485V120.257ZM33.7309 113.104V120.951H38.0016L38.0017 113.104H33.7309ZM37.3071 120.257H34.4254V113.799H37.3071V120.257Z" fill="white" stroke="white"/>
<path d="M306.304 198.073C318.623 198.073 328.609 188.087 328.609 175.768C328.609 163.45 318.623 153.463 306.304 153.463C293.985 153.463 283.999 163.45 283.999 175.768C283.999 188.087 293.985 198.073 306.304 198.073Z" fill="url(#paint17_linear_1_271)" stroke="#3E96F4" stroke-width="3" stroke-miterlimit="10" stroke-linecap="round"/>
<mask id="path-37-inside-1_1_271" fill="white">
<path d="M294.888 164.049H318.31C318.992 164.049 319.646 164.368 320.128 164.938C320.61 165.507 320.881 166.279 320.881 167.084V181.42C320.881 182.225 320.61 182.997 320.128 183.566C319.646 184.136 318.992 184.455 318.31 184.455H316.776V188.816C316.778 189.002 316.732 189.184 316.645 189.339C316.558 189.494 316.433 189.615 316.288 189.686C316.142 189.757 315.981 189.774 315.827 189.736C315.673 189.699 315.532 189.607 315.422 189.474L311.137 184.415H294.888C294.206 184.415 293.552 184.095 293.07 183.526C292.588 182.957 292.317 182.185 292.317 181.38V167.053C292.324 166.254 292.598 165.489 293.079 164.927C293.561 164.364 294.211 164.049 294.888 164.049Z"/>
</mask>
<path d="M294.888 164.049L294.888 166.549H294.888V164.049ZM318.31 164.049V166.549V164.049ZM316.776 184.455V181.955H314.276V184.455H316.776ZM316.776 188.816H314.276V188.826L314.276 188.837L316.776 188.816ZM315.422 189.474L317.353 187.885L317.341 187.872L317.33 187.858L315.422 189.474ZM311.137 184.415L313.045 182.799L312.296 181.915H311.137V184.415ZM292.317 167.053L289.817 167.032L289.817 167.043V167.053H292.317ZM294.888 166.549H318.31V161.549H294.888V166.549ZM318.31 166.549C318.284 166.549 318.261 166.546 318.24 166.541C318.219 166.536 318.204 166.53 318.196 166.525C318.178 166.517 318.19 166.518 318.22 166.553L322.036 163.322C321.129 162.251 319.802 161.549 318.31 161.549V166.549ZM318.22 166.553C318.289 166.634 318.381 166.82 318.381 167.084H323.381C323.381 165.737 322.932 164.379 322.036 163.322L318.22 166.553ZM318.381 167.084V181.42H323.381V167.084H318.381ZM318.381 181.42C318.381 181.684 318.289 181.87 318.22 181.95L322.036 185.182C322.932 184.124 323.381 182.766 323.381 181.42H318.381ZM318.22 181.95C318.19 181.986 318.178 181.987 318.196 181.978C318.204 181.974 318.219 181.968 318.24 181.963C318.261 181.958 318.284 181.955 318.31 181.955V186.955C319.802 186.955 321.129 186.253 322.036 185.182L318.22 181.95ZM318.31 181.955H316.776V186.955H318.31V181.955ZM314.276 184.455V188.816H319.276V184.455H314.276ZM314.276 188.837C314.274 188.608 314.328 188.358 314.465 188.116L318.825 190.563C319.135 190.01 319.281 189.396 319.276 188.795L314.276 188.837ZM314.465 188.116C314.602 187.871 314.838 187.611 315.195 187.437L317.38 191.935C318.029 191.619 318.514 191.117 318.825 190.563L314.465 188.116ZM315.195 187.437C315.563 187.259 315.999 187.204 316.423 187.308L315.231 192.164C315.964 192.344 316.721 192.255 317.38 191.935L315.195 187.437ZM316.423 187.308C316.839 187.411 317.151 187.641 317.353 187.885L313.491 191.062C313.912 191.573 314.507 191.987 315.231 192.164L316.423 187.308ZM317.33 187.858L313.045 182.799L309.229 186.031L313.514 191.089L317.33 187.858ZM311.137 181.915H294.888V186.915H311.137V181.915ZM294.888 181.915C294.914 181.915 294.938 181.918 294.959 181.923C294.979 181.928 294.994 181.934 295.003 181.938C295.021 181.947 295.008 181.945 294.978 181.91L291.163 185.142C292.069 186.212 293.397 186.915 294.888 186.915V181.915ZM294.978 181.91C294.91 181.829 294.817 181.643 294.817 181.38H289.817C289.817 182.726 290.267 184.084 291.163 185.142L294.978 181.91ZM294.817 181.38V167.053H289.817V181.38H294.817ZM294.817 167.075C294.819 166.813 294.912 166.63 294.979 166.552L291.18 163.302C290.284 164.349 289.829 165.694 289.817 167.032L294.817 167.075ZM294.979 166.552C295.008 166.518 295.02 166.517 295.002 166.526C294.993 166.53 294.979 166.536 294.958 166.541C294.937 166.546 294.914 166.549 294.888 166.549L294.888 161.549C293.407 161.548 292.086 162.242 291.18 163.302L294.979 166.552Z" fill="white" mask="url(#path-37-inside-1_1_271)"/>
<circle cx="300.254" cy="174.256" r="1.89024" fill="white"/>
<circle cx="306.303" cy="174.256" r="1.89024" fill="white"/>
<circle cx="312.352" cy="174.256" r="1.89024" fill="white"/>
<path opacity="0.5" d="M197.049 58.9598V53.6687C197.049 53.5272 197.02 53.3871 196.966 53.2565C196.911 53.126 196.83 53.0077 196.729 52.9085C196.628 52.8093 196.508 52.7312 196.377 52.6788C196.245 52.6263 196.104 52.6005 195.962 52.603H194.67C194.457 52.5988 194.253 52.5224 194.089 52.3865C193.926 52.2506 193.814 52.0632 193.771 51.8552C193.293 49.7823 192.47 47.8042 191.337 46.0032C191.228 45.8138 191.189 45.5922 191.226 45.3771C191.264 45.1619 191.376 44.9667 191.543 44.8253L192.442 43.9092C192.544 43.8115 192.626 43.694 192.681 43.5638C192.737 43.4337 192.766 43.2935 192.766 43.152C192.766 43.0104 192.737 42.8704 192.681 42.7403C192.626 42.6101 192.544 42.4926 192.442 42.3948L188.696 38.6556C188.493 38.458 188.221 38.3473 187.938 38.3473C187.654 38.3473 187.382 38.458 187.179 38.6556L186.28 39.5529C186.13 39.7029 185.933 39.7976 185.722 39.8213C185.512 39.8451 185.299 39.7967 185.119 39.6838C183.304 38.5596 181.318 37.7387 179.238 37.2533C179.032 37.2103 178.847 37.0976 178.713 36.9341C178.58 36.7707 178.508 36.5664 178.508 36.3558V35.0659C178.508 34.9243 178.48 34.7841 178.425 34.6536C178.37 34.523 178.29 34.4047 178.189 34.3055C178.088 34.2063 177.968 34.1283 177.836 34.0758C177.704 34.0234 177.564 33.9977 177.422 34.0002H172.122C171.839 34.0002 171.567 34.1124 171.367 34.3123C171.167 34.5121 171.054 34.7832 171.054 35.0659V36.3558C171.051 36.5655 170.977 36.7681 170.845 36.9308C170.712 37.0936 170.529 37.2072 170.324 37.2533C168.243 37.7351 166.256 38.5563 164.443 39.6838C164.264 39.7967 164.051 39.8451 163.84 39.8213C163.629 39.7976 163.432 39.7029 163.282 39.5529L162.365 38.6556C162.162 38.458 161.89 38.3473 161.606 38.3473C161.323 38.3473 161.051 38.458 160.848 38.6556L157.102 42.3948C156.904 42.5974 156.793 42.869 156.793 43.152C156.793 43.4349 156.904 43.7067 157.102 43.9092L158.02 44.8253C158.167 44.9774 158.258 45.1747 158.279 45.3853C158.299 45.5958 158.247 45.8071 158.132 45.9845C157.012 47.7903 156.196 49.7672 155.716 51.8365C155.67 52.0461 155.554 52.2339 155.388 52.3696C155.221 52.5053 155.014 52.581 154.799 52.5844H153.506C153.223 52.5844 152.952 52.6966 152.751 52.8965C152.551 53.0964 152.439 53.3673 152.439 53.65V58.9411C152.439 59.2237 152.551 59.4949 152.751 59.6947C152.952 59.8946 153.223 60.0068 153.506 60.0068H154.799C155.014 60.0102 155.221 60.0859 155.388 60.2216C155.554 60.3573 155.67 60.5451 155.716 60.7547C156.196 62.824 157.012 64.8009 158.132 66.6067C158.247 66.7841 158.299 66.9952 158.279 67.2058C158.258 67.4163 158.167 67.6138 158.02 67.7659L157.102 68.682C156.904 68.8845 156.793 69.1562 156.793 69.4391C156.793 69.7221 156.904 69.9938 157.102 70.1964L160.848 73.9357C160.946 74.038 161.063 74.1195 161.194 74.1752C161.324 74.2309 161.464 74.2595 161.606 74.2595C161.748 74.2595 161.888 74.2309 162.019 74.1752C162.149 74.1195 162.267 74.038 162.365 73.9357L163.282 73.0383C163.432 72.8883 163.629 72.7935 163.84 72.7698C164.051 72.746 164.264 72.7945 164.443 72.9074C166.257 74.0289 168.244 74.8438 170.324 75.3192C170.529 75.3719 170.711 75.4898 170.843 75.6551C170.975 75.8204 171.049 76.0241 171.054 76.2353V77.5253C171.054 77.8097 171.166 78.0827 171.366 78.2856C171.565 78.4884 171.837 78.6049 172.122 78.6098H177.422C177.71 78.6098 177.986 78.4955 178.19 78.2922C178.394 78.0888 178.508 77.8129 178.508 77.5253V76.2353C178.51 76.0232 178.584 75.8181 178.716 75.6522C178.848 75.4862 179.032 75.3691 179.238 75.3192C181.317 74.8406 183.304 74.0259 185.119 72.9074C185.299 72.7945 185.512 72.746 185.722 72.7698C185.933 72.7935 186.13 72.8883 186.28 73.0383L187.179 73.9357C187.277 74.038 187.395 74.1195 187.525 74.1752C187.655 74.2309 187.796 74.2595 187.938 74.2595C188.079 74.2595 188.22 74.2309 188.35 74.1752C188.48 74.1195 188.598 74.038 188.696 73.9357L192.442 70.1964C192.544 70.0986 192.626 69.9811 192.681 69.851C192.737 69.7208 192.766 69.5807 192.766 69.4391C192.766 69.2976 192.737 69.1575 192.681 69.0274C192.626 68.8972 192.544 68.7797 192.442 68.682L191.543 67.7659C191.392 67.6161 191.298 67.4197 191.274 67.2091C191.25 66.9985 191.298 66.7861 191.411 66.6067C192.545 64.8057 193.368 62.8276 193.846 60.7547C193.889 60.5467 194.001 60.3592 194.164 60.2233C194.328 60.0874 194.532 60.011 194.745 60.0068H196.037C196.307 59.9926 196.562 59.8767 196.75 59.6824C196.937 59.488 197.044 59.2298 197.049 58.9598ZM173.452 67.6163C171.267 67.3745 169.199 66.5065 167.498 65.1174C165.796 63.7282 164.534 61.8773 163.863 59.7877C163.192 57.6981 163.142 55.4594 163.717 53.3417C164.293 51.2239 165.47 49.3177 167.106 47.8531C168.743 46.3886 170.77 45.4283 172.941 45.0881C175.112 44.748 177.336 45.0424 179.343 45.936C181.351 46.8296 183.056 48.2842 184.254 50.1241C185.452 51.964 186.09 54.1107 186.093 56.305C186.089 57.9028 185.749 59.4819 185.094 60.94C184.44 62.3982 183.486 63.7027 182.294 64.7691C181.102 65.8356 179.699 66.6401 178.176 67.1306C176.652 67.6211 175.043 67.7865 173.452 67.6163Z" fill="#57A2F2"/>
<defs>
<radialGradient id="paint0_radial_1_271" cx="0" cy="0" r="1" gradientUnits="userSpaceOnUse" gradientTransform="translate(177 188.5) rotate(90) scale(188.5 177)">
<stop stop-color="#3E96F4"/>
<stop offset="1" stop-color="white" stop-opacity="0"/>
</radialGradient>
<linearGradient id="paint1_linear_1_271" x1="175.878" y1="331.902" x2="175.878" y2="68.7805" gradientUnits="userSpaceOnUse">
<stop stop-color="white"/>
<stop offset="1" stop-color="#CEE4FB"/>
</linearGradient>
<linearGradient id="paint2_linear_1_271" x1="207.633" y1="238.146" x2="142.609" y2="282" gradientUnits="userSpaceOnUse">
<stop stop-color="#AACEF4"/>
<stop offset="0.489583" stop-color="#3E96F4"/>
<stop offset="1" stop-color="#B8D6F6"/>
</linearGradient>
<linearGradient id="paint3_linear_1_271" x1="147.966" y1="111.738" x2="211.84" y2="147.008" gradientUnits="userSpaceOnUse">
<stop stop-color="#84B4E7"/>
<stop offset="1" stop-color="#1A89FF"/>
</linearGradient>
<linearGradient id="paint4_linear_1_271" x1="157.668" y1="124.719" x2="167.913" y2="124.719" gradientUnits="userSpaceOnUse">
<stop stop-color="#DEE3FC"/>
<stop offset="1" stop-color="white"/>
</linearGradient>
<linearGradient id="paint5_linear_1_271" x1="183.343" y1="124.719" x2="193.588" y2="124.719" gradientUnits="userSpaceOnUse">
<stop stop-color="#DEE3FC"/>
<stop offset="1" stop-color="white"/>
</linearGradient>
<linearGradient id="paint6_linear_1_271" x1="157.798" y1="108.119" x2="167.696" y2="108.119" gradientUnits="userSpaceOnUse">
<stop stop-color="#8AC1FA"/>
<stop offset="0.302083" stop-color="#CFE3F8"/>
<stop offset="0.598958" stop-color="#EFF5FC"/>
<stop offset="1" stop-color="#A2CCF8"/>
</linearGradient>
<linearGradient id="paint7_linear_1_271" x1="161.477" y1="100.547" x2="164.021" y2="100.547" gradientUnits="userSpaceOnUse">
<stop stop-color="#499CF5"/>
<stop offset="1" stop-color="#1A89FF"/>
</linearGradient>
<linearGradient id="paint8_linear_1_271" x1="159.018" y1="95.1941" x2="166.483" y2="95.1941" gradientUnits="userSpaceOnUse">
<stop stop-color="#499CF5"/>
<stop offset="1" stop-color="#1A89FF"/>
</linearGradient>
<linearGradient id="paint9_linear_1_271" x1="187.24" y1="100.547" x2="189.784" y2="100.547" gradientUnits="userSpaceOnUse">
<stop stop-color="#499CF5"/>
<stop offset="1" stop-color="#1A89FF"/>
</linearGradient>
<linearGradient id="paint10_linear_1_271" x1="184.775" y1="95.1941" x2="192.24" y2="95.1941" gradientUnits="userSpaceOnUse">
<stop stop-color="#499CF5"/>
<stop offset="1" stop-color="#1A89FF"/>
</linearGradient>
<linearGradient id="paint11_linear_1_271" x1="183.554" y1="108.119" x2="193.451" y2="108.119" gradientUnits="userSpaceOnUse">
<stop stop-color="#8AC1FA"/>
<stop offset="0.302083" stop-color="#CFE3F8"/>
<stop offset="0.598958" stop-color="#EFF5FC"/>
<stop offset="1" stop-color="#A2CCF8"/>
</linearGradient>
<linearGradient id="paint12_linear_1_271" x1="164.584" y1="146.755" x2="186.686" y2="146.755" gradientUnits="userSpaceOnUse">
<stop stop-color="#8AC1FA"/>
<stop offset="0.302083" stop-color="#CFE3F8"/>
<stop offset="0.598958" stop-color="#EFF5FC"/>
<stop offset="1" stop-color="#A2CCF8"/>
</linearGradient>
<linearGradient id="paint13_linear_1_271" x1="175.633" y1="150" x2="175.633" y2="201.325" gradientUnits="userSpaceOnUse">
<stop stop-color="#3E96F4"/>
<stop offset="0.536458" stop-color="#3E96F4" stop-opacity="0.17"/>
<stop offset="0.879935" stop-color="#3E96F4" stop-opacity="0"/>
</linearGradient>
<linearGradient id="paint14_linear_1_271" x1="66.2114" y1="163.988" x2="28.2509" y2="189.59" gradientUnits="userSpaceOnUse">
<stop stop-color="#AACEF4"/>
<stop offset="0.489583" stop-color="#3E96F4"/>
<stop offset="1" stop-color="#B8D6F6"/>
</linearGradient>
<linearGradient id="paint15_linear_1_271" x1="324.796" y1="98.2079" x2="286.835" y2="123.809" gradientUnits="userSpaceOnUse">
<stop stop-color="#AACEF4"/>
<stop offset="0.489583" stop-color="#3E96F4"/>
<stop offset="1" stop-color="#B8D6F6"/>
</linearGradient>
<linearGradient id="paint16_linear_1_271" x1="63.9432" y1="98.208" x2="25.9827" y2="123.809" gradientUnits="userSpaceOnUse">
<stop stop-color="#AACEF4"/>
<stop offset="0.489583" stop-color="#3E96F4"/>
<stop offset="1" stop-color="#B8D6F6"/>
</linearGradient>
<linearGradient id="paint17_linear_1_271" x1="324.796" y1="163.988" x2="286.835" y2="189.59" gradientUnits="userSpaceOnUse">
<stop stop-color="#AACEF4"/>
<stop offset="0.489583" stop-color="#3E96F4"/>
<stop offset="1" stop-color="#B8D6F6"/>
</linearGradient>
</defs>
</svg>
