<svg width="91" height="50" viewBox="0 0 91 50" fill="none" xmlns="http://www.w3.org/2000/svg">
<path fill-rule="evenodd" clip-rule="evenodd" d="M29.953 9.00677H37.3183L18.7204 41L0 9.00677H7.53293L18.7204 28.2673L29.953 9.00677Z" fill="#41B883"/>
<path fill-rule="evenodd" clip-rule="evenodd" d="M22.9909 9H29.996L18.7092 28.3007L7.51304 9H14.4087L18.7092 16.4305L22.9909 9Z" fill="#35495E"/>
<path fill-rule="evenodd" clip-rule="evenodd" d="M41.713 15.3163C41.713 15.0803 41.8443 14.8836 42.1068 14.7263C42.3693 14.5689 42.6437 14.4902 42.93 14.4902C43.3277 14.4902 43.5743 14.6397 43.6698 14.9387L47.8696 28.9582L52.0456 14.9387C52.157 14.6397 52.3956 14.4902 52.7615 14.4902C53.0637 14.4902 53.3461 14.5768 53.6086 14.7499C53.8711 14.9229 54.0023 15.1196 54.0023 15.3399C54.0023 15.3556 53.9984 15.3793 53.9904 15.4107C53.9824 15.4422 53.9785 15.4737 53.9785 15.5051L49.1344 31.2004C48.9594 31.6567 48.5378 31.8849 47.8696 31.8849C47.2015 31.8849 46.7958 31.6567 46.6526 31.2004L41.761 15.5051C41.7292 15.4107 41.713 15.3478 41.713 15.3163ZM54.1904 27.4003V21.264C54.1904 21.0752 54.2898 20.91 54.4887 20.7683C54.6875 20.6267 54.9222 20.5559 55.1926 20.5559C55.4472 20.5559 55.6738 20.6307 55.8727 20.7801C56.0716 20.9296 56.171 21.0909 56.171 21.264V27.4003C56.171 28.1084 56.4414 28.7456 56.9823 29.3121C57.5232 29.8785 58.1675 30.1617 58.9152 30.1617C59.647 30.1617 60.2833 29.8825 60.8242 29.3239C61.3651 28.7653 61.6356 28.1241 61.6356 27.4003V21.24C61.6356 21.0669 61.735 20.9096 61.9338 20.768C62.1327 20.6264 62.3673 20.5556 62.6378 20.5556C62.9242 20.5556 63.1588 20.6224 63.3418 20.7562C63.5247 20.8899 63.6162 21.0512 63.6162 21.24V27.4003C63.6162 28.6119 63.1509 29.67 62.2202 30.5748C61.2896 31.4795 60.1879 31.9319 58.9153 31.9319C57.6267 31.9319 56.5171 31.4795 55.5864 30.5748C54.6558 29.67 54.1904 28.6119 54.1904 27.4003ZM65.2356 27.3531V24.8749C65.2356 23.6633 65.7009 22.617 66.6316 21.7359C67.5622 20.8547 68.6798 20.4142 69.9843 20.4142C71.2252 20.4142 72.299 20.8272 73.2058 21.6533C74.1126 22.4793 74.5659 23.5139 74.5659 24.7569C74.5659 25.2132 74.5103 25.5791 74.3989 25.8544C74.2876 26.1298 74.1165 26.3265 73.8859 26.4445C73.6552 26.5625 73.4404 26.6372 73.2416 26.6687C73.0427 26.7002 72.7762 26.7159 72.4421 26.7159H67.2161V27.424C67.2161 28.2894 67.5303 28.9817 68.1587 29.501C68.7871 30.0202 69.6024 30.2798 70.6046 30.2798C71.1296 30.2798 71.587 30.2011 71.9767 30.0438C72.3665 29.8865 72.6807 29.733 72.9193 29.5836C73.1579 29.4341 73.3488 29.3594 73.492 29.3594C73.7147 29.3594 73.9056 29.4577 74.0647 29.6544C74.2238 29.8511 74.3034 30.0517 74.3034 30.2562C74.3034 30.6181 73.9414 30.9879 73.2176 31.3655C72.4938 31.7431 71.5989 31.9319 70.5331 31.9319C68.974 31.9319 67.7014 31.511 66.715 30.6692C65.7287 29.8274 65.2356 28.722 65.2356 27.3531ZM67.2162 25.3942H71.6308C72.0444 25.3942 72.3228 25.343 72.466 25.2408C72.6092 25.1385 72.6808 24.9379 72.6808 24.6389C72.6808 23.9309 72.4183 23.3094 71.8933 22.7744C71.3683 22.2394 70.7241 21.9719 69.9604 21.9719C69.2127 21.9719 68.5684 22.2197 68.0276 22.7153C67.4867 23.211 67.2162 23.8207 67.2162 24.5445L67.2162 25.3942ZM75.5653 30.6573C75.5653 30.3112 75.6846 30.0161 75.9232 29.7723C76.1618 29.5284 76.4562 29.4064 76.8061 29.4064C77.1402 29.4064 77.4266 29.5284 77.6652 29.7723C77.9038 30.0162 78.0231 30.3112 78.0231 30.6573C78.0231 30.9878 77.9038 31.2749 77.6652 31.5188C77.4266 31.7627 77.1402 31.8846 76.8061 31.8846C76.4562 31.8846 76.1618 31.7627 75.9232 31.5188C75.6846 31.2749 75.5653 30.9878 75.5653 30.6573ZM77.3282 36.2982C77.3282 36.0465 77.4077 35.838 77.5668 35.6728C77.7259 35.5076 77.9168 35.425 78.1395 35.425C78.7599 35.425 79.1656 35.1968 79.3565 34.7405C79.5474 34.2843 79.6428 33.5998 79.6428 32.6872V21.2402C79.6428 21.0357 79.7343 20.8704 79.9173 20.7446C80.1002 20.6187 80.3349 20.5558 80.6212 20.5558C80.9076 20.5558 81.1462 20.6187 81.3371 20.7446C81.528 20.8704 81.6235 21.0357 81.6235 21.2402V32.6872C81.6235 34.0561 81.353 35.1418 80.8121 35.9442C80.2712 36.7467 79.4519 37.1479 78.3543 37.1479C77.6702 37.1479 77.3282 36.8647 77.3282 36.2982ZM79.3803 16.3546C79.3803 16.0556 79.4996 15.796 79.7383 15.5757C79.9769 15.3554 80.2712 15.2453 80.6212 15.2453C80.9553 15.2453 81.2416 15.3554 81.4802 15.5757C81.7189 15.796 81.8382 16.0556 81.8382 16.3546C81.8382 16.6535 81.7189 16.9171 81.4802 17.1453C81.2416 17.3734 80.9553 17.4875 80.6212 17.4875C80.2871 17.4875 79.9968 17.3734 79.7502 17.1453C79.5036 16.9171 79.3803 16.6535 79.3803 16.3546ZM83.0999 30.1379C83.0999 29.9334 83.1675 29.7328 83.3027 29.5361C83.438 29.3394 83.601 29.2411 83.7919 29.2411C83.9192 29.2411 84.1021 29.3355 84.3408 29.5243C84.5794 29.7131 84.9214 29.898 85.3668 30.0789C85.8123 30.2599 86.3372 30.3504 86.9418 30.3504C87.7372 30.3504 88.3138 30.2088 88.6718 29.9255C89.0298 29.6423 89.2087 29.2883 89.2087 28.8635C89.2087 28.3442 89.0099 27.9312 88.6121 27.6243C88.2144 27.3175 87.7292 27.0854 87.1565 26.9281C86.5838 26.7707 86.0111 26.5977 85.4384 26.4088C84.8657 26.22 84.3805 25.9053 83.9827 25.4647C83.585 25.0242 83.3862 24.442 83.3862 23.7182C83.3862 22.8214 83.7083 22.0464 84.3526 21.3934C84.9969 20.7405 85.9792 20.414 87.2996 20.414C88.1428 20.414 88.9143 20.5438 89.6143 20.8034C90.3143 21.063 90.6643 21.358 90.6643 21.6884C90.6643 21.8773 90.5887 22.0897 90.4376 22.3257C90.2864 22.5617 90.0995 22.6797 89.8768 22.6797C89.8131 22.6797 89.5069 22.5657 88.9581 22.3375C88.4092 22.1093 87.8644 21.9953 87.3235 21.9953C86.5917 21.9953 86.0468 22.1644 85.6889 22.5027C85.331 22.841 85.152 23.2226 85.152 23.6474C85.152 24.088 85.3508 24.4342 85.7486 24.6859C86.1463 24.9376 86.6354 25.1343 87.2161 25.2759C87.7968 25.4176 88.3734 25.5906 88.9462 25.7952C89.5189 25.9998 90.0041 26.3498 90.4018 26.8455C90.7995 27.3411 90.9984 27.9823 90.9984 28.769C90.9984 29.7446 90.6484 30.5156 89.9484 31.082C89.2484 31.6485 88.2701 31.9317 87.0133 31.9317C85.9315 31.9317 85.0089 31.7389 84.2453 31.3534C83.4816 30.9679 83.0999 30.5628 83.0999 30.1379Z" fill="#010101"/>
</svg>
