<svg width="48" height="48" viewBox="0 0 48 48" fill="none" xmlns="http://www.w3.org/2000/svg">
<rect width="48" height="48" rx="8" fill="white"/>
<path d="M12.001 12C12.1526 12.0001 12.3007 12.0461 12.4258 12.1318L23.6758 19.8818C23.7758 19.9509 23.8576 20.0437 23.9141 20.1514C23.9704 20.259 24.0001 20.3785 24 20.5V35C24 35.2652 23.8946 35.5195 23.707 35.707C23.5195 35.8946 23.2652 36 23 36H21V24C21 23.7348 20.8946 23.4805 20.707 23.293C20.5195 23.1054 20.2652 23 20 23H4C3.73478 23 3.48051 23.1054 3.29297 23.293C3.10545 23.4805 3 23.7348 3 24V36H1C0.734793 36 0.480503 35.8946 0.292969 35.707C0.105442 35.5195 1.11059e-05 35.2652 2.14655e-07 35V20.5C-9.16631e-05 20.3783 0.029311 20.2581 0.0859377 20.1504C0.14256 20.0428 0.22498 19.9507 0.325196 19.8818L11.5752 12.1318C11.7004 12.046 11.8491 12 12.001 12Z" fill="#3E96F4"/>
<path d="M7.75 31V31.75C7.75 31.9489 7.82907 32.1396 7.96973 32.2803C8.11038 32.4209 8.30109 32.5 8.5 32.5C8.69891 32.5 8.88962 32.4209 9.03027 32.2803C9.17093 32.1396 9.25 31.9489 9.25 31.75V31H11C11.1326 31 11.2597 31.0527 11.3535 31.1465C11.4473 31.2403 11.5 31.3674 11.5 31.5V35.5C11.5 35.6326 11.4473 35.7597 11.3535 35.8535C11.2597 35.9473 11.1326 36 11 36H6C5.86739 36 5.74025 35.9473 5.64648 35.8535C5.55272 35.7597 5.5 35.6326 5.5 35.5V31.5C5.5 31.3674 5.55272 31.2403 5.64648 31.1465C5.74025 31.0527 5.86739 31 6 31H7.75Z" fill="#3E96F4"/>
<path d="M14.75 31V31.75C14.75 31.9489 14.8291 32.1396 14.9697 32.2803C15.1104 32.4209 15.3011 32.5 15.5 32.5C15.6989 32.5 15.8896 32.4209 16.0303 32.2803C16.1709 32.1396 16.25 31.9489 16.25 31.75V31H18C18.1326 31 18.2597 31.0527 18.3535 31.1465C18.4473 31.2403 18.5 31.3674 18.5 31.5V35.5C18.5 35.6326 18.4473 35.7597 18.3535 35.8535C18.2597 35.9473 18.1326 36 18 36H13C12.8674 36 12.7403 35.9473 12.6465 35.8535C12.5527 35.7597 12.5 35.6326 12.5 35.5V31.5C12.5 31.3674 12.5527 31.2403 12.6465 31.1465C12.7403 31.0527 12.8674 31 13 31H14.75Z" fill="#3E96F4"/>
<path d="M11.25 25V25.75C11.25 25.9489 11.3291 26.1396 11.4697 26.2803C11.6104 26.4209 11.8011 26.5 12 26.5C12.1989 26.5 12.3896 26.4209 12.5303 26.2803C12.6709 26.1396 12.75 25.9489 12.75 25.75V25H14.5C14.6326 25 14.7597 25.0527 14.8535 25.1465C14.9473 25.2403 15 25.3674 15 25.5V29.5C15 29.6326 14.9473 29.7597 14.8535 29.8535C14.7597 29.9473 14.6326 30 14.5 30H9.5C9.36739 30 9.24025 29.9473 9.14648 29.8535C9.05272 29.7597 9 29.6326 9 29.5V25.5C9 25.3674 9.05272 25.2403 9.14648 25.1465C9.24025 25.0527 9.36739 25 9.5 25H11.25Z" fill="#3E96F4"/>
</svg>
