<svg width="32" height="32" viewBox="0 0 32 32" fill="none" xmlns="http://www.w3.org/2000/svg">
<path d="M12.3774 29.5196C4.91076 27.5189 0.479705 19.8441 2.48039 12.3774C4.48108 4.91076 12.1559 0.479705 19.6226 2.48039C27.0892 4.48108 31.5203 12.1559 29.5196 19.6226C27.5189 27.0892 19.8441 31.5203 12.3774 29.5196Z" fill="#C1C9D1"/>
<g style="mix-blend-mode:multiply">
<path d="M13.8868 29.5196C9.53126 27.5189 6.94647 19.8441 8.11354 12.3774C9.28061 4.91076 13.7576 0.479705 18.1131 2.48039C22.4687 4.48108 25.0535 12.1559 23.8864 19.6226C22.7193 27.0892 18.2424 31.5203 13.8868 29.5196Z" fill="#007BFF" fill-opacity="0.8"/>
</g>
<g style="mix-blend-mode:multiply">
<path d="M2.48039 13.8868C4.48108 9.53126 12.1559 6.94647 19.6226 8.11354C27.0892 9.28061 31.5203 13.7576 29.5196 18.1131C27.5189 22.4687 19.8441 25.0535 12.3774 23.8864C4.91076 22.7193 0.479703 18.2424 2.48039 13.8868Z" fill="#007BFF" fill-opacity="0.8"/>
</g>
<path d="M14.7925 20.5065C12.3036 19.8396 10.8265 17.2813 11.4934 14.7925C12.1603 12.3036 14.7186 10.8265 17.2075 11.4934C19.6964 12.1603 21.1734 14.7186 20.5065 17.2075C19.8396 19.6964 17.2813 21.1734 14.7925 20.5065Z" fill="white" fill-opacity="0.8"/>
</svg>
