<svg width="66" height="66" viewBox="0 0 66 66" fill="none" xmlns="http://www.w3.org/2000/svg">
<rect width="66" height="66" rx="10" fill="#2CB214"/>
<path d="M15.3644 50.9479C16.0267 48.7578 16.7503 46.5868 17.5344 44.4373C8.79505 32.0358 17.3231 15.0898 31.5198 14.0556C43.9553 13.1498 53.2014 23.4532 52.0154 35.0336C50.7048 47.8255 35.2573 56.6063 22.3571 48.7776C19.916 49.3917 17.7326 50.2627 15.3644 50.9479ZM21.8747 30.453C23.9434 36.271 32.5161 44.1513 38.7531 44.438C41.7099 44.5746 45.205 43.0403 45.0224 38.8922C43.2421 37.618 41.1896 36.6157 38.9942 35.7581C37.9433 36.7969 37.1176 38.0601 35.8601 38.8922C32.0772 37.2092 29.1757 34.6457 27.4205 30.935C30.8767 29.05 28.7775 24.8516 27.4205 22.0134C22.0587 20.3981 20.6469 27.0007 21.8747 30.453Z" fill="white"/>
</svg>
