<svg width="66" height="66" viewBox="0 0 66 66" fill="none" xmlns="http://www.w3.org/2000/svg">
<g clip-path="url(#clip0_0_1373)">
<path d="M53.1094 0H12.8906C5.77133 0 0 5.77133 0 12.8906V53.1094C0 60.2287 5.77133 66 12.8906 66H53.1094C60.2287 66 66 60.2287 66 53.1094V12.8906C66 5.77133 60.2287 0 53.1094 0Z" fill="#1E0B4B"/>
<path d="M3.86719 15.4688V53.1094C3.86719 55.5025 4.81787 57.7977 6.51009 59.4899C8.20231 61.1821 10.4975 62.1328 12.8906 62.1328H53.1094C55.5025 62.1328 57.7977 61.1821 59.4899 59.4899C61.1821 57.7977 62.1328 55.5025 62.1328 53.1094V15.4688H3.86719Z" fill="white"/>
<path opacity="0.7" d="M53.1093 3.86719H12.8905C10.721 3.86756 8.62417 4.6496 6.98426 6.07006C5.34435 7.49051 4.27112 9.45426 3.96118 11.6016H62.0347C61.7249 9.45491 60.6522 7.49169 59.0131 6.07132C57.374 4.65095 55.2782 3.86849 53.1093 3.86719ZM47.6952 9.02344C47.4403 9.02344 47.191 8.94784 46.979 8.80619C46.7671 8.66455 46.6018 8.46322 46.5043 8.22768C46.4067 7.99213 46.3812 7.73294 46.4309 7.48289C46.4807 7.23284 46.6034 7.00315 46.7837 6.82287C46.964 6.64259 47.1937 6.51982 47.4437 6.47008C47.6938 6.42034 47.953 6.44587 48.1885 6.54344C48.4241 6.641 48.6254 6.80623 48.767 7.01821C48.9087 7.2302 48.9843 7.47942 48.9843 7.73438C48.9843 8.07626 48.8485 8.40413 48.6067 8.64588C48.365 8.88763 48.0371 9.02344 47.6952 9.02344ZM51.5624 9.02344C51.3074 9.02344 51.0582 8.94784 50.8462 8.80619C50.6342 8.66455 50.469 8.46322 50.3715 8.22768C50.2739 7.99213 50.2484 7.73294 50.2981 7.48289C50.3478 7.23284 50.4706 7.00315 50.6509 6.82287C50.8312 6.64259 51.0609 6.51982 51.3109 6.47008C51.561 6.42034 51.8201 6.44587 52.0557 6.54344C52.2912 6.641 52.4926 6.80623 52.6342 7.01821C52.7759 7.2302 52.8515 7.47942 52.8515 7.73438C52.8515 8.07626 52.7156 8.40413 52.4739 8.64588C52.2322 8.88763 51.9043 9.02344 51.5624 9.02344ZM55.4296 9.02344C55.1746 9.02344 54.9254 8.94784 54.7134 8.80619C54.5014 8.66455 54.3362 8.46322 54.2386 8.22768C54.1411 7.99213 54.1156 7.73294 54.1653 7.48289C54.215 7.23284 54.3378 7.00315 54.5181 6.82287C54.6984 6.64259 54.928 6.51982 55.1781 6.47008C55.4282 6.42034 55.6873 6.44587 55.9229 6.54344C56.1584 6.641 56.3598 6.80623 56.5014 7.01821C56.643 7.2302 56.7186 7.47942 56.7186 7.73438C56.7186 8.07626 56.5828 8.40413 56.3411 8.64588C56.0993 8.88763 55.7715 9.02344 55.4296 9.02344Z" fill="white"/>
<path d="M41.8404 26.6074H39.8952V26.0917C39.9082 25.1111 39.7262 24.1376 39.3599 23.2279C38.9935 22.3181 38.4501 21.4902 37.7612 20.7921C37.0723 20.0941 36.2516 19.5398 35.3468 19.1615C34.4419 18.7832 33.471 18.5884 32.4902 18.5884C31.5095 18.5884 30.5385 18.7832 29.6336 19.1615C28.7288 19.5398 27.9081 20.0941 27.2192 20.7921C26.5303 21.4902 25.9869 22.3181 25.6206 23.2279C25.2542 24.1376 25.0722 25.1111 25.0852 26.0917V26.6074H24.1609C23.2008 26.6072 22.2501 26.7962 21.363 27.1635C20.4759 27.5308 19.6699 28.0692 18.991 28.748C18.312 29.4269 17.7734 30.2328 17.406 31.1198C17.0385 32.0068 16.8494 32.9575 16.8494 33.9176V58.91H41.8404C42.8005 58.9102 43.7513 58.7212 44.6383 58.3539C45.5254 57.9866 46.3314 57.4482 47.0104 56.7693C47.6894 56.0905 48.2279 55.2845 48.5954 54.3975C48.9629 53.5105 49.152 52.5598 49.152 51.5997V33.9176C49.152 32.9575 48.9629 32.0068 48.5954 31.1198C48.2279 30.2328 47.6894 29.4269 47.0104 28.748C46.3314 28.0692 45.5254 27.5308 44.6383 27.1635C43.7513 26.7962 42.8005 26.6072 41.8404 26.6074ZM27.4738 25.7514C27.4631 25.0859 27.585 24.4249 27.8323 23.8069C28.0796 23.189 28.4474 22.6264 28.9143 22.152C29.3812 21.6776 29.9378 21.3008 30.5517 21.0436C31.1656 20.7864 31.8246 20.654 32.4902 20.654C33.1558 20.654 33.8148 20.7864 34.4287 21.0436C35.0426 21.3008 35.5992 21.6776 36.0661 22.152C36.533 22.6264 36.9008 23.189 37.1481 23.8069C37.3954 24.4249 37.5173 25.0859 37.5066 25.7514V26.6074H27.4738V25.7514ZM32.4896 53.4843C31.3158 53.4843 30.1536 53.2531 29.0692 52.8039C27.9848 52.3547 26.9995 51.6963 26.1696 50.8663C25.3397 50.0362 24.6815 49.0509 24.2324 47.9664C23.7834 46.882 23.5523 45.7197 23.5525 44.546H41.4279C41.4279 46.9166 40.4862 49.1901 38.8099 50.8663C37.1337 52.5426 34.8602 53.4843 32.4896 53.4843Z" fill="#00AB8B"/>
</g>
<defs>
<clipPath id="clip0_0_1373">
<rect width="66" height="66" fill="white"/>
</clipPath>
</defs>
</svg>
