<svg width="65" height="25" viewBox="0 0 65 25" fill="none" xmlns="http://www.w3.org/2000/svg">
<mask id="mask0_568_2502" style="mask-type:luminance" maskUnits="userSpaceOnUse" x="0" y="0" width="65" height="25">
<path d="M0 0H64.5723V25H0V0Z" fill="white"/>
</mask>
<g mask="url(#mask0_568_2502)">
<path d="M64.5707 1.55703e-07H61.0039C60.5166 -8.95916e-05 60.0367 0.119209 59.6061 0.347466C59.1755 0.575722 58.8074 0.905984 58.534 1.30938L53.7637 8.34609C53.7343 8.38928 53.6948 8.42462 53.6487 8.44905C53.6025 8.47348 53.5511 8.48625 53.4988 8.48625C53.4466 8.48625 53.3952 8.47348 53.349 8.44905C53.3029 8.42462 53.2634 8.38928 53.234 8.34609L48.4641 1.30938C48.1907 0.905936 47.8226 0.575637 47.392 0.347374C46.9614 0.119112 46.4815 -0.000157303 45.9941 1.55703e-07H42.4273L50.9246 12.5352L42.4742 25H46.041C46.5284 25.0001 47.0083 24.8808 47.4389 24.6525C47.8694 24.4243 48.2375 24.094 48.5109 23.6906L53.234 16.7234C53.2634 16.6803 53.3029 16.6449 53.349 16.6205C53.3952 16.5961 53.4466 16.5833 53.4988 16.5833C53.5511 16.5833 53.6025 16.5961 53.6487 16.6205C53.6948 16.6449 53.7343 16.6803 53.7637 16.7234L58.4867 23.6906C58.7602 24.0941 59.1283 24.4244 59.559 24.6527C59.9896 24.8809 60.4696 25.0002 60.957 25H64.5238L56.0731 12.5352L64.5707 1.55703e-07ZM35.0891 2.55703V25H36.7938C37.1296 25.0001 37.4622 24.9339 37.7725 24.8054C38.0828 24.6769 38.3648 24.4886 38.6022 24.2511C38.8397 24.0136 39.0281 23.7316 39.1566 23.4213C39.2851 23.111 39.3512 22.7784 39.3512 22.4426V1.55703e-07H37.6465C37.3107 -5.11469e-05 36.9781 0.0660506 36.6678 0.19453C36.3576 0.32301 36.0756 0.511352 35.8381 0.748799C35.6007 0.986247 35.4123 1.26815 35.2837 1.57841C35.1552 1.88867 35.0891 2.2212 35.0891 2.55703ZM31.9648 1.55703e-07H30.4473C29.6365 -0.00013007 28.8497 0.275283 28.2161 0.781063C27.5824 1.28684 27.1394 1.99296 26.9598 2.78359L23.5664 17.7023L20.5957 3.77578C20.0461 1.20195 17.4051 -0.533984 14.7027 0.2125C12.9813 0.687891 11.7051 2.14219 11.3328 3.88828L8.39258 17.6836L5.00508 2.78438C4.82506 1.99374 4.38189 1.28766 3.74815 0.781807C3.11441 0.275951 2.32767 0.00029837 1.5168 1.55703e-07H0L5.68555 24.9988H7.83984C9.79453 24.9988 11.4836 23.632 11.8914 21.7203L15.5262 4.66406C15.5707 4.45234 15.7605 4.29922 15.9766 4.29922C16.1922 4.29922 16.382 4.45234 16.427 4.66406L20.0645 21.7215C20.2624 22.6492 20.7729 23.4808 21.5104 24.0773C22.2479 24.6738 23.1678 24.9991 24.1164 24.9988H26.2777L31.9648 1.55703e-07Z" fill="black"/>
</g>
</svg>
