<svg width="83" height="74" viewBox="0 0 83 74" fill="none" xmlns="http://www.w3.org/2000/svg">
<path d="M78.8974 68.8746C78.83 68.4683 78.6952 68.0959 78.3926 67.7912C78.1235 67.4866 77.7541 67.3511 77.2832 67.3511C76.4084 67.3511 75.9041 67.859 75.7693 68.8746H78.8974ZM79.3683 71.2106L81.2177 71.8199C80.4443 73.0387 79.2335 73.6481 77.5858 73.6481C76.2741 73.6481 75.2316 73.3095 74.4916 72.5986C73.7516 71.8876 73.3817 70.9736 73.3817 69.8564C73.3817 68.7053 73.7516 67.7235 74.5251 66.9449C75.2985 66.1662 76.2402 65.7938 77.451 65.7938C78.2918 65.7938 79.0317 65.997 79.6709 66.4371C80.31 66.8772 80.7134 67.4188 80.9825 68.0621C81.2177 68.7053 81.3525 69.4163 81.3525 70.2288H75.8033C75.8367 70.9059 76.0384 71.4137 76.4424 71.6845C76.8458 71.9554 77.2492 72.1246 77.6866 72.1246C78.1909 72.0908 78.7966 71.7861 79.3683 71.2106ZM72.1709 65.9631V69.01H70.4897C70.1197 68.1636 69.5141 67.7574 68.6733 67.7574C68.1355 67.7574 67.7316 67.9267 67.429 68.2652C67.1264 68.6038 66.9582 69.0777 66.9582 69.6532C66.9582 70.3642 67.1264 70.872 67.4625 71.2106C67.799 71.5491 68.2024 71.7184 68.6733 71.7184C69.0432 71.7184 69.4132 71.6168 69.7498 71.3798C70.0858 71.1767 70.3549 70.872 70.5566 70.4996L72.4065 71.3121C71.7 72.8356 70.5232 73.5804 68.7741 73.5804C67.4625 73.5804 66.4199 73.208 65.6465 72.497C64.8731 71.7861 64.4697 70.8382 64.4697 69.6194C64.4697 68.4345 64.8396 67.4866 65.6131 66.7756C66.3865 66.0985 67.2607 65.7261 68.2698 65.7261C69.0772 65.7261 69.8167 65.9631 70.5232 66.4709V65.8615H72.1709V65.9631ZM54.5486 67.6897V65.9631H58.0796V66.674C58.7856 66.1324 59.5256 65.8615 60.2655 65.8615C61.7789 65.8615 62.5189 66.8433 62.5189 68.773V71.7861H63.6623V73.5127H60.1647V68.9084C60.1647 68.5022 60.0973 68.2314 59.9964 68.0621C59.8956 67.9267 59.6938 67.8251 59.4587 67.8251C59.0213 67.8251 58.5504 67.9944 58.1131 68.2991V71.6845H59.2565V73.4111H54.582V71.6845H55.7254V67.622H54.5486V67.6897ZM51.0504 68.8746C50.9836 68.4683 50.8487 68.0959 50.5462 67.7912C50.277 67.4866 49.9071 67.3511 49.4362 67.3511C48.5619 67.3511 48.0577 67.859 47.9228 68.8746H51.0504ZM51.5213 71.2106L53.3712 71.8199C52.5978 73.0387 51.387 73.6481 49.7393 73.6481C48.4276 73.6481 47.3851 73.3095 46.6451 72.5986C45.9052 71.8876 45.5352 70.9736 45.5352 69.8564C45.5352 68.7053 45.9052 67.7235 46.6786 66.9449C47.452 66.1662 48.3937 65.7938 49.6045 65.7938C50.4453 65.7938 51.1853 65.997 51.8244 66.4371C52.463 66.8772 52.8669 67.4188 53.136 68.0621C53.3712 68.7053 53.506 69.4163 53.506 70.2288H47.9568C47.9902 70.9059 48.192 71.4137 48.5954 71.6845C48.9993 71.9554 49.4028 72.1246 49.8402 72.1246C50.3779 72.0908 50.9496 71.7861 51.5213 71.2106ZM44.4592 71.7522V73.4788H39.8177V71.7522H40.8942V67.6897H39.8851V65.9631H40.8942V65.286C40.8942 64.5073 41.1294 63.8303 41.6342 63.2886C42.105 62.7469 42.845 62.4761 43.8201 62.4761C44.9969 62.4761 45.8043 62.8146 46.3086 63.5256L44.5935 64.8797C44.4252 64.3381 44.2235 64.0672 43.921 64.0672C43.5175 64.0672 43.3158 64.4058 43.3158 65.1167V65.9292H44.4926V67.6558H43.3158V71.7184H44.4592V71.7522Z" fill="#2E2E2E"/>
<path d="M36.2545 69.6864C36.2545 68.9754 36.0862 68.4676 35.7837 68.1629C35.4806 67.8582 35.1446 67.689 34.7411 67.689C34.2703 67.689 33.9003 67.8582 33.6647 68.2306C33.3956 68.603 33.2948 69.077 33.2948 69.6864C33.2948 70.2619 33.4293 70.7359 33.6647 71.1083C33.9003 71.4807 34.2703 71.6838 34.7746 71.6838C35.178 71.6838 35.5145 71.5145 35.8171 71.2098C36.0862 70.9051 36.2545 70.3973 36.2545 69.6864ZM39.819 71.7515V73.4781H36.2205V72.5979C35.548 73.275 34.842 73.6135 34.068 73.6135C33.1266 73.6135 32.3531 73.2411 31.7478 72.4625C31.1424 71.6838 30.8397 70.7697 30.8397 69.6864C30.8397 68.603 31.1424 67.6551 31.7814 66.9103C32.4204 66.1655 33.1602 65.7931 34.068 65.7931C34.9428 65.7931 35.6488 66.1317 36.2205 66.8087V64.405H35.0437V62.6785H38.6087V71.7515H39.819ZM28.8219 71.7515V73.4781H23.5754V71.7515H24.9543V67.689H23.6427V65.9624H27.1403V67.8582C27.2748 67.3166 27.5775 66.8426 28.0483 66.4363C28.5191 66.0301 29.0909 65.827 29.7299 65.827C29.8307 65.827 29.9653 65.827 30.0998 65.827V68.0952C29.4945 68.0952 28.99 68.1629 28.62 68.2983C28.2501 68.4338 27.9138 68.7385 27.6784 69.1786C27.4429 69.6187 27.3084 70.1603 27.3084 70.8036V71.7177H28.8219V71.7515ZM18.598 71.7854C19.0352 71.7854 19.4052 71.6161 19.6742 71.2775C19.9433 70.939 20.0778 70.3973 20.0778 69.6525C20.0778 69.0093 19.9433 68.5015 19.6742 68.1629C19.4052 67.7905 19.0352 67.6213 18.598 67.6213C17.6227 67.6213 17.1182 68.3322 17.1182 69.7541C17.1182 70.3296 17.2527 70.8374 17.4881 71.2098C17.7236 71.5822 18.0935 71.7854 18.598 71.7854ZM18.598 73.6474C17.4881 73.6474 16.5801 73.3088 15.8066 72.5979C15.0331 71.8869 14.6631 70.939 14.6631 69.7202C14.6631 68.5015 15.0331 67.5197 15.8066 66.8426C16.5801 66.1317 17.4881 65.7931 18.598 65.7931C19.7078 65.7931 20.6495 66.1317 21.3894 66.8426C22.1292 67.5535 22.5328 68.5015 22.5328 69.7202C22.5328 70.939 22.1629 71.8869 21.423 72.5979C20.6495 73.3088 19.7414 73.6474 18.598 73.6474ZM4.20386 73.5458L1.14345 64.5066H0V62.6785H4.84286V64.5066H3.73307L5.48187 69.6864L7.09616 64.5066H6.12087V62.6785H9.98845V64.5066H8.97952L10.7283 69.6864L12.4099 64.5066H11.3337V62.6785H15.6384V64.5066H14.4614L11.5018 73.5458H9.48396L7.80242 68.603L6.18813 73.5458H4.20386Z" fill="#0070A0"/>
<path d="M82.1592 65.6245C82.63 65.6245 83 65.9969 83 66.437C83 66.911 82.63 67.2834 82.1592 67.2834C81.6883 67.2834 81.3184 66.911 81.3184 66.437C81.3184 65.9969 81.6883 65.6245 82.1592 65.6245ZM82.1592 65.7938C81.7892 65.7938 81.5201 66.0985 81.5201 66.4709C81.5201 66.8433 81.7892 67.148 82.1592 67.148C82.5292 67.148 82.7983 66.8433 82.7983 66.4709C82.7983 66.0985 82.5292 65.7938 82.1592 65.7938ZM82.0249 66.8771H81.8232V66.0646C81.8901 66.0646 81.9909 66.0308 82.1257 66.0308C82.294 66.0308 82.3609 66.0646 82.3949 66.0985C82.4283 66.1323 82.4617 66.2 82.4617 66.2677C82.4617 66.3693 82.3949 66.437 82.294 66.4709C82.3609 66.5047 82.4283 66.5724 82.4283 66.674C82.4618 66.8094 82.4617 66.8433 82.4957 66.8771H82.3609C82.3274 66.8433 82.3274 66.7756 82.294 66.674C82.294 66.5724 82.2266 66.5386 82.1257 66.5386H82.0249V66.8771ZM82.0249 66.437H82.1257C82.2266 66.437 82.3275 66.4032 82.3275 66.3016C82.3275 66.2339 82.26 66.1662 82.1592 66.1662C82.1257 66.1662 82.0583 66.1662 82.0583 66.1662V66.437H82.0249Z" fill="#00709E"/>
<path d="M39.0291 11.1111L42.8556 19.5556V19.7037H41.531C41.531 19.8519 41.531 20 41.531 20.1482C41.531 20.5926 41.3838 20.8889 41.2367 21.3334C41.0895 21.4815 41.0895 21.6296 40.9424 21.7778C40.9424 21.7778 40.7952 23.5555 40.7952 26.9629C40.7952 29.037 40.9424 32 41.0895 35.2592C45.063 35.5555 48.7422 36 52.1272 36.5926V22.3703H51.097L53.5989 16.7408L56.1009 22.3703H55.0707V37.1852C58.75 37.9259 61.8406 38.8148 64.6366 39.7037V27.2592H63.6064L66.1084 21.6296L68.6104 27.2592H67.5802V40.7407C70.8179 41.9259 73.3199 43.1111 74.7914 43.8518C76.9991 25.9259 73.0255 10.3704 73.0255 10.3704C55.0707 9.77779 39.0291 0 39.0291 0V11.1111Z" fill="#008DC2"/>
<path d="M67.722 43.8523V57.9261H69.4881H69.9297H70.9599H71.8428C72.4314 56.0002 73.0203 53.9261 73.3146 52.0004C73.9032 50.0745 74.1975 48.4449 74.3448 47.2597V47.1116C73.6089 46.3708 71.2542 45.1856 67.722 43.8523Z" fill="#008DC2"/>
<path d="M55.2154 40.0017V57.7795H56.9815H60.2194H61.9852H64.9288V42.6684C62.1325 41.7795 58.8949 40.8906 55.2154 40.0017Z" fill="#008DC2"/>
<path d="M52.2702 57.7779V39.4076C48.8852 38.815 45.3531 38.3705 41.5266 38.0742C41.5266 38.0742 41.8209 40.1483 41.8209 40.4446C42.4097 45.0372 43.587 52.1483 44.9115 57.7779H50.9454H52.2702Z" fill="#008DC2"/>
<path d="M33.1424 57.7779C34.3197 52.1483 35.6442 45.0372 36.233 40.4446C36.233 40.1483 36.5274 38.2224 36.5274 38.0742C32.5538 38.3705 29.0216 38.815 25.784 39.4076V57.7779H27.1085H33.1424Z" fill="#008DC2"/>
<path d="M10.1817 40.5926V27.1111H9.15155L11.6534 21.4815L14.1553 27.1111H13.1251V39.5555C15.9214 38.6666 19.1591 37.7778 22.6912 37.037V22.2222H21.661L24.1629 16.5926L26.6647 22.2222H25.6345V36.4444C29.0195 35.8518 32.6987 35.4074 36.6725 35.1111C36.9668 31.8518 36.9668 28.7407 36.9668 26.8148C36.9668 23.4074 36.8195 21.6296 36.8195 21.6296C36.6725 21.4815 36.6725 21.3333 36.5252 21.1852C36.3782 20.8889 36.2309 20.4445 36.2309 20C36.2309 19.8519 36.2309 19.7037 36.2309 19.5556H34.9064V19.4074L39.0272 11.1111V0C39.0272 0 22.9855 9.62964 4.8836 10.2222C4.8836 10.2222 1.05718 25.7778 2.97039 43.7037C4.4421 42.9629 6.94398 41.9259 10.1817 40.5926Z" fill="#00709E"/>
<path d="M13.1284 42.6684V57.7795H16.0718H17.8378H21.0756H22.8416V40.0017C19.0152 40.8906 15.7774 41.7795 13.1284 42.6684Z" fill="#00709E"/>
<path d="M3.26508 46.9646V47.1127C3.41225 48.2979 3.85376 49.9275 4.29527 51.8535C4.73677 53.7794 5.17829 55.8535 5.76698 57.7794H6.65H8.1217H9.88775V43.7053C6.65 45.1868 4.29527 46.372 3.26508 46.9646Z" fill="#00709E"/>
</svg>
