<svg width="53" height="59" viewBox="0 0 53 59" fill="none" xmlns="http://www.w3.org/2000/svg">
<path fill-rule="evenodd" clip-rule="evenodd" d="M24.0374 3.31339C24.0374 3.31324 24.0375 3.31317 24.0374 3.31317C24.0373 3.31317 24.036 3.31514 24.034 3.31909L24.0367 3.3147L24.0374 3.31339ZM22.7487 2.87448C23.2974 3.10042 23.6531 3.32521 23.8587 3.5C23.6531 3.67479 23.2974 3.89958 22.7487 4.12552C21.5062 4.63713 19.6515 5 17.4998 5C15.348 5 13.4933 4.63713 12.2508 4.12552C11.7021 3.89958 11.3464 3.67479 11.1408 3.5C11.3464 3.32521 11.7021 3.10042 12.2508 2.87448C13.4933 2.36287 15.348 2 17.4998 2C19.6515 2 21.5062 2.36287 22.7487 2.87448ZM10.9655 3.31909C10.9635 3.31514 10.9622 3.31317 10.9621 3.31317C10.962 3.31317 10.9621 3.31331 10.9622 3.31361C10.9626 3.31439 10.9636 3.31622 10.9655 3.31909ZM17.4998 0C22.1942 0 25.9998 1.567 25.9998 3.5V8.5H51.9998C52.552 8.5 52.9998 8.94771 52.9998 9.5V29C52.9998 29.5523 52.552 30 51.9998 30H43.9998V34.8621C43.9998 35.6422 43.6176 36.2959 43.1136 36.7944C42.6132 37.2894 41.9402 37.6891 41.189 38.0034C39.6824 38.6338 37.6703 39 35.4998 39C33.3292 39 31.3171 38.6338 29.8105 38.0034C29.0593 37.6891 28.3863 37.2894 27.8859 36.7944C27.3819 36.2959 26.9998 35.6422 26.9998 34.8621V30H1.99976V47.5H8.99976V43.5C8.99976 41.567 12.8053 40 17.4998 40C22.1942 40 25.9998 41.567 25.9998 43.5V47.5H51.9998C52.552 47.5 52.9998 47.9477 52.9998 48.5C52.9998 49.0523 52.552 49.5 51.9998 49.5H25.9998V54.8621C25.9998 55.6422 25.6176 56.2959 25.1136 56.7944C24.6132 57.2894 23.9402 57.6891 23.189 58.0034C21.6824 58.6338 19.6703 59 17.4998 59C15.3292 59 13.3171 58.6338 11.8105 58.0034C11.0593 57.6891 10.3863 57.2894 9.88589 56.7944C9.38187 56.2959 8.99976 55.6422 8.99976 54.8621V49.5H0.999756C0.447471 49.5 -0.000244141 49.0523 -0.000244141 48.5V29C-0.000244141 28.4477 0.447471 28 0.999756 28H26.9998V23.5C26.9998 21.567 30.8053 20 35.4998 20C40.1942 20 43.9998 21.567 43.9998 23.5V28H50.9998V10.5H25.9998V14.8621C25.9998 15.6422 25.6176 16.2959 25.1136 16.7944C24.6132 17.2894 23.9402 17.6891 23.189 18.0034C21.6824 18.6338 19.6703 19 17.4998 19C15.3292 19 13.3171 18.6338 11.8105 18.0034C11.0593 17.6891 10.3863 17.2894 9.88589 16.7944C9.38187 16.2959 8.99976 15.6422 8.99976 14.8621V10.5H0.999756C0.447471 10.5 -0.000244141 10.0523 -0.000244141 9.5C-0.000244141 8.94771 0.447471 8.5 0.999756 8.5H8.99976V3.5C8.99976 1.567 12.8053 0 17.4998 0ZM23.9998 49.5V47.5V45.7554C22.4405 46.5165 20.1073 47 17.4998 47C14.8923 47 12.559 46.5165 10.9998 45.7554V54.8621C10.9998 54.9485 11.0374 55.1203 11.2924 55.3726C11.5511 55.6284 11.9764 55.9049 12.5824 56.1584C13.7902 56.6637 15.5282 57 17.4998 57C19.4713 57 21.2093 56.6637 22.4171 56.1584C23.0231 55.9049 23.4485 55.6284 23.7071 55.3726C23.9621 55.1203 23.9998 54.9485 23.9998 54.8621V49.5ZM23.9998 5.75545C22.4405 6.51654 20.1073 7 17.4998 7C14.8923 7 12.559 6.51654 10.9998 5.75545V14.8621C10.9998 14.9485 11.0374 15.1203 11.2924 15.3726C11.5511 15.6284 11.9764 15.9049 12.5824 16.1584C13.7902 16.6637 15.5282 17 17.4998 17C19.4713 17 21.2093 16.6637 22.4171 16.1584C23.0231 15.9049 23.4485 15.6284 23.7071 15.3726C23.9621 15.1203 23.9998 14.9485 23.9998 14.8621V5.75545ZM17.4998 4C18.3282 4 18.9998 3.77614 18.9998 3.5C18.9998 3.22386 18.3282 3 17.4998 3C16.6713 3 15.9998 3.22386 15.9998 3.5C15.9998 3.77614 16.6713 4 17.4998 4ZM42.0367 23.3147C42.0373 23.3137 42.0375 23.3132 42.0374 23.3132L42.0366 23.3144L42.034 23.3191L42.0367 23.3147ZM40.7487 22.8745C41.2974 23.1004 41.6531 23.3252 41.8587 23.5C41.6531 23.6748 41.2974 23.8996 40.7487 24.1255C39.5062 24.6371 37.6515 25 35.4998 25C33.348 25 31.4933 24.6371 30.2508 24.1255C29.7021 23.8996 29.3464 23.6748 29.1408 23.5C29.3464 23.3252 29.7021 23.1004 30.2508 22.8745C31.4933 22.3629 33.348 22 35.4998 22C37.6515 22 39.5062 22.3629 40.7487 22.8745ZM28.9621 23.3132C28.9622 23.3132 28.9635 23.3151 28.9655 23.3191C28.9629 23.3151 28.9619 23.3132 28.9621 23.3132ZM41.9998 25.7554C40.4405 26.5165 38.1073 27 35.4998 27C32.8923 27 30.559 26.5165 28.9998 25.7554V34.8621C28.9998 34.9485 29.0374 35.1203 29.2924 35.3726C29.5511 35.6284 29.9764 35.9049 30.5824 36.1584C31.7902 36.6637 33.5282 37 35.4998 37C37.4713 37 39.2093 36.6637 40.4171 36.1584C41.0231 35.9049 41.4485 35.6284 41.7071 35.3726C41.9621 35.1203 41.9998 34.9485 41.9998 34.8621V25.7554ZM35.4998 24C36.3282 24 36.9998 23.7761 36.9998 23.5C36.9998 23.2239 36.3282 23 35.4998 23C34.6713 23 33.9998 23.2239 33.9998 23.5C33.9998 23.7761 34.6713 24 35.4998 24ZM24.0374 43.3132C24.0375 43.3132 24.0373 43.3137 24.0367 43.3147L24.034 43.3191C24.0353 43.3166 24.0363 43.3149 24.0368 43.314C24.0372 43.3134 24.0374 43.3132 24.0374 43.3132ZM23.8587 43.5C23.6531 43.3252 23.2974 43.1004 22.7487 42.8745C21.5062 42.3629 19.6515 42 17.4998 42C15.348 42 13.4933 42.3629 12.2508 42.8745C11.7021 43.1004 11.3464 43.3252 11.1408 43.5C11.3464 43.6748 11.7021 43.8996 12.2508 44.1255C13.4933 44.6371 15.348 45 17.4998 45C19.6515 45 21.5062 44.6371 22.7487 44.1255C23.2974 43.8996 23.6531 43.6748 23.8587 43.5ZM10.9621 43.3132C10.9622 43.3132 10.9635 43.3151 10.9655 43.3191C10.9629 43.3151 10.9619 43.3132 10.9621 43.3132ZM18.9998 43.5C18.9998 43.7761 18.3282 44 17.4998 44C16.6713 44 15.9998 43.7761 15.9998 43.5C15.9998 43.2239 16.6713 43 17.4998 43C18.3282 43 18.9998 43.2239 18.9998 43.5Z" fill="url(#paint0_linear_1_1095)"/>
<defs>
<linearGradient id="paint0_linear_1_1095" x1="8.20405" y1="7.37089" x2="48.4726" y2="43.2281" gradientUnits="userSpaceOnUse">
<stop stop-color="#FE5B52"/>
<stop offset="1" stop-color="#3E96F4"/>
</linearGradient>
</defs>
</svg>
