<svg width="64" height="53" viewBox="0 0 64 53" fill="none" xmlns="http://www.w3.org/2000/svg">
<path fill-rule="evenodd" clip-rule="evenodd" d="M31.9968 22C34.1664 22 36.3029 21.3543 38.1082 20.1457C39.9134 18.9371 41.3213 17.2153 42.1659 15.212C42.994 13.2087 43.2091 10.9902 42.7951 8.85446C42.3644 6.71873 41.3214 4.76514 39.7812 3.22543C38.2409 1.68571 36.2864 0.64264 34.1499 0.212182C32.0134 -0.218276 29.811 0.0134975 27.7905 0.841301C25.7865 1.66911 24.0637 3.07642 22.8547 4.89759C21.6457 6.70221 21 8.83791 21 11.0068C21 13.9206 22.1595 16.7186 24.2297 18.7716C26.2833 20.8411 29.0819 22 31.9968 22ZM31.9974 19.7999C33.7331 19.7999 35.4424 19.2833 36.8865 18.3165C38.3307 17.3496 39.457 15.9721 40.1327 14.3695C40.7952 12.7669 40.9673 10.9921 40.636 9.28348C40.2916 7.5749 39.4571 6.01203 38.2249 4.78026C36.9927 3.54849 35.4291 2.71403 33.7199 2.36966C32.0107 2.02529 30.2488 2.21071 28.6324 2.87296C27.0292 3.5352 25.6509 4.66105 24.6837 6.11799C23.7165 7.56168 23.2 9.27024 23.2 11.0053C23.2 13.3364 24.1276 15.5748 25.7837 17.2172C27.4267 18.8728 29.6655 19.7999 31.9974 19.7999ZM52.9968 37C55.1664 37 57.3029 36.3543 59.1082 35.1457C60.9134 33.9371 62.3213 32.2153 63.1659 30.212C63.994 28.2087 64.2091 25.9902 63.7951 23.8545C63.3644 21.7187 62.3214 19.7651 60.7812 18.2254C59.2409 16.6857 57.2864 15.6426 55.1499 15.2122C53.0134 14.7817 50.811 15.0135 48.7905 15.8413C46.7865 16.6691 45.0637 18.0764 43.8547 19.8976C42.6457 21.7022 42 23.8379 42 26.0068C42 28.9206 43.1595 31.7186 45.2297 33.7716C47.2833 35.8411 50.0819 37 52.9968 37ZM52.9974 34.7999C54.7331 34.7999 56.4424 34.2833 57.8865 33.3165C59.3307 32.3496 60.457 30.9721 61.1327 29.3695C61.7952 27.7669 61.9673 25.9921 61.636 24.2835C61.2916 22.5749 60.4571 21.012 59.2249 19.7803C57.9927 18.5485 56.4291 17.714 54.7199 17.3697C53.0107 17.0253 51.2488 17.2107 49.6324 17.873C48.0292 18.5352 46.6509 19.6611 45.6837 21.118C44.7165 22.5617 44.2 24.2702 44.2 26.0053C44.2 28.3364 45.1276 30.5748 46.7837 32.2172C48.4267 33.8728 50.6655 34.7999 52.9974 34.7999ZM17.1082 35.1457C15.3029 36.3543 13.1664 37 10.9968 37C8.08192 37 5.28333 35.8411 3.22968 33.7716C1.15946 31.7186 0 28.9206 0 26.0068C0 23.8379 0.645665 21.7022 1.85467 19.8976C3.06367 18.0764 4.78653 16.6691 6.79049 15.8413C8.81102 15.0135 11.0134 14.7817 13.1499 15.2122C15.2864 15.6426 17.2409 16.6857 18.7812 18.2254C20.3214 19.7651 21.3644 21.7187 21.7951 23.8545C22.2091 25.9902 21.994 28.2087 21.1659 30.212C20.3213 32.2153 18.9134 33.9371 17.1082 35.1457ZM15.8865 33.3165C14.4424 34.2833 12.7331 34.7999 10.9974 34.7999C8.66553 34.7999 6.42666 33.8728 4.78374 32.2172C3.12757 30.5748 2.2 28.3364 2.2 26.0053C2.2 24.2702 2.71653 22.5617 3.68374 21.118C4.65094 19.6611 6.02922 18.5352 7.63239 17.873C9.24881 17.2107 11.0107 17.0253 12.7199 17.3697C14.4291 17.714 15.9927 18.5485 17.2249 19.7803C18.4571 21.012 19.2916 22.5749 19.636 24.2835C19.9673 25.9921 19.7952 27.7669 19.1327 29.3695C18.457 30.9721 17.3307 32.3496 15.8865 33.3165ZM37.4104 39.5283C39.3306 40.1909 41.0906 41.2855 42.5692 42.7641C45.1333 45.3283 46.5455 48.7374 46.5455 52.3636H44.4242C44.4242 46.0476 39.2858 40.9091 32.9697 40.9091C26.6536 40.9091 21.5152 46.0476 21.5152 52.3636H19.3939C19.3939 48.7374 20.8061 45.3283 23.3702 42.7641C24.8488 41.2855 26.6088 40.1909 28.529 39.5283C26.4724 38.1118 25.1212 35.7412 25.1212 33.0606C25.1212 28.733 28.642 25.2121 32.9697 25.2121C37.2973 25.2121 40.8182 28.733 40.8182 33.0606C40.8182 35.7412 39.467 38.1118 37.4104 39.5283ZM27.2424 33.0606C27.2424 36.2187 29.8117 38.7879 32.9697 38.7879C36.1277 38.7879 38.697 36.2187 38.697 33.0606C38.697 29.9025 36.1277 27.3333 32.9697 27.3333C29.8117 27.3333 27.2424 29.9025 27.2424 33.0606ZM32 3C32.5523 3 33 3.50368 33 4.125V10.875L32.9999 10.8918C33.0051 11.2762 32.8236 11.6519 32.496 11.8561C32.3399 11.9534 32.1699 11.9998 32.0021 12L32 12C31.9641 12 31.9286 11.9979 31.8937 11.9937C31.5856 11.9575 31.2972 11.7661 31.1317 11.4502L29.1319 7.63224C28.8579 7.10916 29.0245 6.44281 29.504 6.14391C29.9835 5.84501 30.5943 6.02674 30.8683 6.54982L31 6.80134V4.125C31 3.50368 31.4477 3 32 3ZM54 19.125C54 18.5037 53.5523 18 53 18C52.4477 18 52 18.5037 52 19.125V25.091V25.0931V25.875C52 26.4354 52.3642 26.9001 52.8409 26.9858L54.1317 29.4502C54.4057 29.9733 55.0165 30.155 55.496 29.8561C55.9755 29.5572 56.1421 28.8908 55.8681 28.3678L54 24.8013V19.125ZM11 18C11.5523 18 12 18.5037 12 19.125V25.875C12 26.4963 11.5523 27 11 27C10.9953 27 10.9905 27 10.9858 26.9999C10.7609 26.9964 10.5539 26.9093 10.3883 26.7651L6.55297 24.368C6.05902 24.0593 5.85881 23.3086 6.10578 22.6912C6.35276 22.0738 6.95338 21.8235 7.44733 22.1322L10 23.7276V19.125C10 18.5037 10.4477 18 11 18Z" fill="url(#paint0_linear_1_284)"/>
<defs>
<linearGradient id="paint0_linear_1_284" x1="3.21391e-08" y1="2.61483e-08" x2="58.3198" y2="57.8015" gradientUnits="userSpaceOnUse">
<stop offset="0.179426" stop-color="#FE5B52"/>
<stop offset="0.885615" stop-color="#3E96F4"/>
</linearGradient>
</defs>
</svg>
