<svg width="401" height="452" viewBox="0 0 401 452" fill="none" xmlns="http://www.w3.org/2000/svg">
<g clip-path="url(#clip0_0_705)">
<path opacity="0.3" d="M238.522 51.8856C242.585 48.1652 243.35 42.3874 240.23 38.9806C237.111 35.5739 231.289 35.8282 227.226 39.5487C223.163 43.2691 222.398 49.0469 225.517 52.4536C228.636 55.8604 234.459 55.6061 238.522 51.8856Z" fill="#007BFF"/>
<path opacity="0.3" d="M173.863 94.695H118.329C117.448 94.695 116.805 93.863 117.027 93.0101L122.519 64.1158C122.673 63.5227 123.209 63.109 123.822 63.109H179.355C180.236 63.109 180.879 63.941 180.658 64.7939L175.165 93.6882C175.011 94.2802 174.475 94.695 173.863 94.695Z" fill="#007BFF"/>
<path d="M138.026 77.0068H125.477L127.184 67.326H139.733L138.026 77.0068Z" fill="white"/>
<path d="M29.243 170.236C29.243 170.236 20.4563 174.629 16.6135 187.26C12.7695 199.89 33.637 233.938 33.637 232.29C33.637 230.643 54.5045 221.307 54.5045 221.307L44.0713 182.866L29.243 170.236Z" fill="#204C7C"/>
<path d="M248.703 236.894L237.101 206.232H208.098L219.699 236.894" fill="#4F76A0"/>
<path d="M143.46 212.309H308.368L311.252 196.841H146.345" fill="#E6F3FF"/>
<path d="M160.939 118.558L146.345 196.839H311.253L325.509 120.37C326.077 117.33 323.743 114.521 320.65 114.521H165.797C163.418 114.521 161.375 116.218 160.939 118.558Z" fill="#2463A7"/>
<path d="M229.952 215.266L240.935 209.226C240.935 209.226 251.54 204.833 251.849 204.833C252.158 204.833 253.084 205.863 251.952 208.024C250.819 210.186 247.833 210.702 247.833 210.702L245.876 216.159L256.036 214.718L258.37 214.169C258.37 214.169 256.722 218.288 256.036 219.248C255.349 220.209 251.505 222.68 251.505 222.68C251.505 222.68 244.229 228.72 241.621 229.407C239.012 230.093 229.952 230.505 229.952 230.505L224.186 230.368L218.832 231.467C218.832 231.467 216.087 226.387 216.498 219.248L229.952 215.266Z" fill="#FF8D68"/>
<path d="M295.024 240.528L326.874 448.107H334.562L313.694 239.429L295.024 240.528Z" fill="#E6F3FF"/>
<path d="M359.822 240.528L391.672 448.107H399.36L378.492 239.429L359.822 240.528Z" fill="#E6F3FF"/>
<path d="M173.116 240.528L141.266 448.107H133.578L154.446 239.429L173.116 240.528Z" fill="#E6F3FF"/>
<path d="M108.318 240.528L76.4685 448.107H68.7805L89.648 239.429L108.318 240.528Z" fill="#E6F3FF"/>
<path d="M382.885 238.331H96.2373V248.216H382.885V238.331Z" fill="#E6F3FF"/>
<path d="M388.376 242.724H105.024C101.991 242.724 99.5322 240.265 99.5322 237.232C99.5322 234.199 101.991 231.74 105.024 231.74H388.377C391.41 231.74 393.869 234.199 393.869 237.232C393.868 240.265 391.409 242.724 388.376 242.724Z" fill="#007BFF"/>
<path d="M114.516 427.24C114.516 427.24 116.317 422.829 123.848 423.614C131.379 424.398 132.311 425.794 133.356 429.489C134.401 433.184 137.185 437.081 138.951 437.86C140.718 438.638 147.253 442.641 152.47 443.25C157.686 443.86 158.416 446.994 157.336 448.488C156.257 449.982 136.764 452.087 132.425 451.723C132.425 451.723 117.75 452.151 114.244 451.17C110.738 450.189 114.298 428.692 114.516 427.24Z" fill="#133860"/>
<path d="M116.512 395.618L114.251 430.04C114.251 430.04 119.617 431.768 123.701 434.76C129.736 439.182 134.677 433.828 134.677 433.828L136.038 412.17L116.512 395.618Z" fill="#FF8D68"/>
<path d="M160.211 334.981L137.971 430.534C137.971 430.534 126.439 432.182 112.437 425.591C112.437 425.591 124.793 335.805 125.617 330.038C126.44 324.273 158.565 330.038 160.211 334.981Z" fill="#204C7C"/>
<path d="M70.0589 87.7712C70.0589 87.7712 79.1894 89.4724 85.1902 102.919C91.1909 116.366 89.7472 145.885 86.5849 149.557C83.4237 153.228 73.0372 152.595 58.4431 148.829C43.0229 144.851 36.8823 129.502 33.4986 119.334C27.0177 99.8605 42.8947 78.3258 70.0589 87.7712Z" fill="#FF8D68"/>
<path d="M44.7112 166.472L49.9627 141.316C49.9627 141.316 63.4802 136.38 72.7062 144.997L75.8452 148.827L76.9137 164.91C76.9137 164.91 62.7449 168.736 44.7112 166.472Z" fill="#FF8D68"/>
<path d="M44.4176 321.177C44.4176 321.177 73.8447 329.787 108.748 328.599C143.652 327.411 148.27 317.515 149.359 308.078C150.447 298.642 123.297 292.902 111.486 289.802C99.6759 286.701 59.296 275.088 48.3758 286.867C37.4567 298.644 34.9166 313.127 44.4176 321.177Z" fill="#133860"/>
<path d="M196.062 427.24C196.062 427.24 197.864 422.829 205.394 423.614C212.925 424.398 213.857 425.794 214.902 429.489C215.947 433.184 218.731 437.081 220.499 437.86C222.265 438.638 228.801 442.641 234.017 443.25C239.234 443.86 239.963 446.994 238.883 448.488C237.803 449.982 218.312 452.087 213.971 451.723C213.971 451.723 199.297 452.151 195.791 451.17C192.285 450.189 195.844 428.692 196.062 427.24Z" fill="#133860"/>
<path d="M187.394 398.134L195.631 431.632C195.631 431.632 202.22 429.984 206.064 433.279C209.908 436.575 217.047 434.378 217.047 434.378L211.007 408.019L187.394 398.134Z" fill="#FF8D68"/>
<path d="M119.301 286.107C120.949 286.107 176.96 304.777 187.943 313.016C198.926 321.801 216.497 419.688 217.596 421.885C218.695 424.081 201.671 430.122 190.688 428.474C190.139 426.277 164.33 343.767 164.33 338.276C164.33 338.276 120.4 336.079 101.729 332.784C83.0577 329.488 70.4281 328.94 62.7402 308.621C55.0522 288.303 100.081 286.656 100.081 286.656L119.301 286.107Z" fill="#204C7C"/>
<path d="M215.125 213.894C215.125 213.894 225.833 213.619 226.656 214.718C227.48 215.816 231.324 225.701 227.755 229.819C224.735 232.015 224.735 232.015 224.735 232.015H215.399L215.125 213.894Z" fill="#E2E7FF"/>
<path d="M42.834 162.822L45.7167 155.408C45.7167 155.408 63.014 150.054 77.8411 156.644C81.5476 160.35 83.6077 166.117 83.6077 166.117L42.834 162.822Z" fill="#E2E7FF"/>
<path d="M39.1275 163.645C39.1275 163.645 41.3239 159.801 45.1679 159.253C49.0119 158.704 66.5842 156.507 78.1161 159.801C82.5089 161.449 84.7053 163.645 84.7053 163.645C84.7053 163.645 101.179 169.137 106.67 172.431C112.162 175.727 113.81 200.988 114.907 209.225C116.005 217.462 112.711 226.249 112.711 226.249C112.711 226.249 125.89 280.066 125.89 287.753C125.89 295.44 121.498 304.227 106.122 309.719C90.7457 315.211 49.0119 313.014 34.7347 304.227C30.3419 295.44 23.7516 191.102 22.654 181.217C21.5552 171.334 39.1275 163.645 39.1275 163.645Z" fill="#204C7C"/>
<path d="M97.6098 170.236C97.6098 170.236 101.729 167.764 111.613 174.355C121.497 180.944 148.679 205.657 151.974 207.304C155.27 208.952 218.695 212.247 218.695 212.247C218.695 212.247 227.755 223.78 217.871 232.84C217.871 232.84 156.642 235.312 145.11 234.488C133.578 233.664 95.1396 211.423 95.1396 211.423C95.1396 211.423 79.4887 188.358 97.6098 170.236Z" fill="#204C7C"/>
<path d="M84.4094 206.582C84.4094 206.582 135.76 233.542 141.751 234.397C147.743 235.252 170.422 234.397 170.422 234.397" stroke="#1B3148" stroke-width="0.8263" stroke-miterlimit="10"/>
<path d="M153.733 213.429C153.733 213.429 155.444 222.844 149.453 228.407" stroke="#1B3148" stroke-width="0.8263" stroke-miterlimit="10"/>
<path d="M157.584 210.862C157.584 210.862 162.719 218.993 160.152 224.983" stroke="#1B3148" stroke-width="0.8263" stroke-miterlimit="10"/>
<path d="M83.9806 195.884C83.9806 195.884 79.7008 180.906 94.6782 171.063" stroke="#1B3148" stroke-width="0.8263" stroke-miterlimit="10"/>
<path d="M28.7794 181.762C28.7794 181.762 25.7837 208.295 25.7837 220.705" stroke="#1B3148" stroke-width="0.8263" stroke-miterlimit="10"/>
<path d="M44.1846 164.216C44.1846 164.216 63.8694 162.505 80.1297 164.216" stroke="#1B3148" stroke-width="0.8263" stroke-miterlimit="10"/>
<path d="M172.989 336.674C172.989 336.674 182.404 333.679 185.827 319.13" stroke="#1B3148" stroke-width="0.8263" stroke-miterlimit="10"/>
<path d="M179.408 337.959C179.408 337.959 184.97 336.247 187.538 328.543" stroke="#1B3148" stroke-width="0.8263" stroke-miterlimit="10"/>
<path d="M145.174 354.648L131.052 425.258" stroke="#1B3148" stroke-width="0.8263" stroke-miterlimit="10"/>
<path d="M83.195 105.573C83.195 105.573 84.8426 112.986 78.2523 117.929L78.6636 126.166C78.6636 126.166 81.135 133.579 79.4874 134.403C77.8398 135.227 77.4285 133.99 77.4285 133.99C77.4285 133.99 72.0744 125.341 70.4268 124.929C68.7792 124.517 74.1333 136.462 74.1333 136.462C74.1333 136.462 68.7792 144.699 58.8948 145.934L60.9538 143.051C60.9538 143.051 56.4235 145.934 49.4218 145.523C42.4201 145.111 37.0661 134.403 37.0661 134.403C37.0661 134.403 38.3012 137.286 37.0661 138.522C35.831 139.757 28.8293 129.048 28.4168 115.457L26.3579 119.576C26.3579 119.576 26.7692 110.103 30.4769 99.3944C34.1834 88.6859 50.6569 80.8602 59.7186 80.8602C68.7792 80.8602 77.8398 81.6841 80.3112 80.8602C82.7825 80.0364 81.5463 87.0383 81.5463 87.0383C81.5463 87.0383 82.7814 84.1555 83.1939 81.6841C84.8414 80.4489 87.3128 90.3336 86.489 94.0402C85.6652 97.7468 85.6652 97.7468 85.6652 97.7468C85.6652 97.7468 88.5479 94.0402 88.9604 91.9801C90.6092 91.5699 90.1967 100.631 83.195 105.573Z" fill="#133860"/>
<path d="M77.2189 126.092C77.2189 126.092 75.555 120.578 70.9874 123.477C66.421 126.377 72.9077 139.36 76.7272 138.24C80.5479 137.121 78.2245 128.19 77.2189 126.092Z" fill="#FF634D"/>
<path d="M244.366 221.581L256.036 219.248L258.37 214.168" stroke="#E66657" stroke-width="1.2805" stroke-miterlimit="10"/>
<path d="M255.623 219.522C255.623 219.522 249.72 224.465 248.896 224.876C248.073 225.289 244.366 226.249 244.366 226.249" stroke="#E66657" stroke-width="1.2805" stroke-miterlimit="10"/>
<path d="M300.515 183.415H212.654L223.636 126.303H311.498L300.515 183.415Z" fill="#2E74BE"/>
<path d="M184.422 146.074C184.107 147.711 185.361 149.229 187.028 149.229H282.679C283.952 149.229 285.046 148.326 285.286 147.076L286.693 139.756H185.637L184.422 146.074Z" fill="#0078F8"/>
<path opacity="0.3" d="M294.29 83.5403H198.639C197.367 83.5403 196.273 84.4433 196.033 85.6936L185.636 139.757H286.692L296.896 86.6969C297.213 85.0586 295.958 83.5403 294.29 83.5403Z" fill="#007BFF"/>
<path d="M221.271 107.762C220.53 106.775 217.524 106.057 216.693 105.07C216.269 104.566 216.269 103.629 216.37 102.833C216.666 102.644 216.912 102.455 217.058 102.28C217.307 101.915 217.589 101.406 217.871 100.846C217.956 100.93 218.07 100.994 218.217 100.991C218.612 100.979 220.114 98.933 219.727 98.4599C219.506 98.1884 219.148 98.4238 218.881 98.6755C219.278 97.7643 219.558 97.0663 219.558 97.0663H219.543C219.58 96.9509 219.615 96.8356 219.644 96.719C220.241 94.328 218.785 92.389 216.395 92.389C214.004 92.389 211.582 94.328 210.986 96.719C210.957 96.8367 210.933 96.9521 210.915 97.0663H210.899C210.899 97.0663 210.831 97.7643 210.775 98.6755C210.634 98.4249 210.394 98.1896 210.037 98.4599C209.414 98.9342 209.896 100.979 210.285 100.991C210.43 100.995 210.577 100.93 210.704 100.846C210.707 101.406 210.734 101.915 210.802 102.28C210.874 102.494 211.084 102.729 211.355 102.959C211.058 103.727 210.605 104.593 209.964 105.07C208.641 106.057 205.276 106.775 204.043 107.762C202.934 108.65 201.945 111.243 201.757 111.755H221.568C221.634 111.244 221.937 108.65 221.271 107.762Z" fill="#0058B6"/>
<path d="M204.778 131.853H212.927" stroke="#8DC9FF" stroke-width="1.076" stroke-miterlimit="10" stroke-linecap="round" stroke-linejoin="round"/>
<path d="M203.775 128.159H215.043" stroke="#8DC9FF" stroke-width="1.076" stroke-miterlimit="10" stroke-linecap="round" stroke-linejoin="round"/>
<path d="M209.139 122.571L206.392 123.848C206.134 123.968 205.915 123.775 206.022 123.519L207.16 120.815C207.203 120.714 207.195 120.611 207.139 120.539L205.653 118.623C205.513 118.443 205.693 118.129 205.958 118.092L208.772 117.697C208.877 117.682 208.98 117.619 209.049 117.527L210.876 115.067C211.049 114.835 211.378 114.835 211.435 115.067L212.037 117.527C212.059 117.619 212.131 117.683 212.229 117.697L214.846 118.092C215.092 118.129 215.116 118.443 214.886 118.623L212.443 120.539C212.352 120.61 212.293 120.714 212.285 120.815L212.075 123.519C212.055 123.773 211.74 123.968 211.541 123.848L209.431 122.571C209.35 122.523 209.241 122.523 209.139 122.571Z" fill="#007BFF"/>
<path d="M209.167 122.564L210.368 115.747L209.047 117.527C208.978 117.619 208.874 117.683 208.769 117.697L205.955 118.092C205.691 118.129 205.51 118.443 205.65 118.623L207.137 120.539C207.193 120.61 207.2 120.714 207.158 120.815L206.02 123.519C205.912 123.773 206.131 123.968 206.39 123.848L209.136 122.571C209.148 122.566 209.157 122.567 209.167 122.564Z" fill="#8DC9FF"/>
<path d="M250.401 107.762C249.66 106.775 246.653 106.057 245.823 105.07C245.399 104.566 245.399 103.629 245.5 102.833C245.796 102.644 246.042 102.455 246.187 102.28C246.437 101.915 246.719 101.406 247.001 100.846C247.086 100.93 247.2 100.994 247.347 100.991C247.742 100.979 249.244 98.933 248.857 98.4599C248.635 98.1884 248.278 98.4238 248.011 98.6755C248.408 97.7643 248.688 97.0663 248.688 97.0663H248.673C248.71 96.9509 248.745 96.8356 248.774 96.719C249.371 94.328 247.915 92.389 245.524 92.389C243.133 92.389 240.712 94.328 240.116 96.719C240.086 96.8367 240.063 96.9521 240.044 97.0663H240.029C240.029 97.0663 239.961 97.7643 239.905 98.6755C239.764 98.4249 239.524 98.1896 239.167 98.4599C238.544 98.9342 239.026 100.979 239.415 100.991C239.56 100.995 239.707 100.93 239.834 100.846C239.837 101.406 239.864 101.915 239.931 102.28C240.004 102.494 240.213 102.729 240.485 102.959C240.188 103.727 239.735 104.593 239.094 105.07C237.771 106.057 234.406 106.775 233.173 107.762C232.064 108.65 231.075 111.243 230.887 111.755H250.698C250.764 111.244 251.067 108.65 250.401 107.762Z" fill="#0058B6"/>
<path d="M233.907 131.853H242.057" stroke="#8DC9FF" stroke-width="1.076" stroke-miterlimit="10" stroke-linecap="round" stroke-linejoin="round"/>
<path d="M232.905 128.159H244.173" stroke="#8DC9FF" stroke-width="1.076" stroke-miterlimit="10" stroke-linecap="round" stroke-linejoin="round"/>
<path d="M238.269 122.571L235.522 123.848C235.264 123.968 235.045 123.775 235.152 123.519L236.29 120.815C236.333 120.714 236.325 120.611 236.269 120.539L234.782 118.623C234.643 118.443 234.823 118.129 235.088 118.092L237.902 117.697C238.007 117.682 238.11 117.619 238.179 117.527L240.006 115.067C240.178 114.835 240.508 114.835 240.565 115.067L241.167 117.527C241.189 117.619 241.261 117.683 241.359 117.697L243.976 118.092C244.222 118.129 244.246 118.443 244.015 118.623L241.573 120.539C241.482 120.61 241.423 120.714 241.415 120.815L241.205 123.519C241.185 123.773 240.869 123.968 240.671 123.848L238.561 122.571C238.48 122.523 238.371 122.523 238.269 122.571Z" fill="#8DC9FF"/>
<path d="M279.531 107.762C278.79 106.775 275.783 106.057 274.953 105.07C274.528 104.566 274.528 103.629 274.63 102.833C274.926 102.644 275.172 102.455 275.317 102.28C275.567 101.915 275.849 101.406 276.131 100.846C276.216 100.93 276.33 100.994 276.477 100.991C276.872 100.979 278.374 98.933 277.987 98.4599C277.765 98.1884 277.408 98.4238 277.141 98.6755C277.538 97.7643 277.818 97.0663 277.818 97.0663H277.803C277.84 96.9509 277.875 96.8356 277.904 96.719C278.501 94.328 277.045 92.389 274.654 92.389C272.263 92.389 269.842 94.328 269.245 96.719C269.216 96.8367 269.193 96.9521 269.174 97.0663H269.159C269.159 97.0663 269.09 97.7643 269.035 98.6755C268.894 98.4249 268.654 98.1896 268.297 98.4599C267.674 98.9342 268.156 100.979 268.545 100.991C268.69 100.995 268.836 100.93 268.963 100.846C268.967 101.406 268.994 101.915 269.061 102.28C269.134 102.494 269.343 102.729 269.615 102.959C269.318 103.727 268.864 104.593 268.224 105.07C266.901 106.057 263.536 106.775 262.303 107.762C261.194 108.65 260.205 111.243 260.017 111.755H279.828C279.894 111.244 280.197 108.65 279.531 107.762Z" fill="#0058B6"/>
<path d="M263.037 131.853H271.187" stroke="#8DC9FF" stroke-width="1.076" stroke-miterlimit="10" stroke-linecap="round" stroke-linejoin="round"/>
<path d="M262.035 128.159H273.303" stroke="#8DC9FF" stroke-width="1.076" stroke-miterlimit="10" stroke-linecap="round" stroke-linejoin="round"/>
<path d="M267.399 122.571L264.652 123.848C264.394 123.968 264.175 123.775 264.282 123.519L265.42 120.815C265.463 120.714 265.455 120.611 265.399 120.539L263.912 118.623C263.773 118.443 263.953 118.129 264.218 118.092L267.032 117.697C267.136 117.682 267.24 117.619 267.309 117.527L269.136 115.067C269.308 114.835 269.638 114.835 269.695 115.067L270.296 117.527C270.319 117.619 270.391 117.683 270.489 117.697L273.106 118.092C273.352 118.129 273.376 118.443 273.145 118.623L270.703 120.539C270.612 120.61 270.553 120.714 270.545 120.815L270.335 123.519C270.315 123.773 269.999 123.968 269.801 123.848L267.691 122.571C267.61 122.523 267.501 122.523 267.399 122.571Z" fill="#007BFF"/>
<path d="M270.333 123.518L270.542 120.814C270.55 120.712 270.61 120.61 270.701 120.538L270.961 120.334L271.401 117.834L270.485 117.697C270.387 117.682 270.315 117.619 270.293 117.527L269.692 115.067C269.635 114.835 269.305 114.835 269.132 115.067L267.304 117.527C267.235 117.619 267.132 117.683 267.027 117.697L264.213 118.092C263.948 118.129 263.768 118.443 263.908 118.623L265.394 120.539C265.45 120.61 265.457 120.714 265.415 120.815L264.277 123.519C264.17 123.773 264.389 123.968 264.648 123.848L267.394 122.571C267.496 122.523 267.605 122.523 267.684 122.571L269.794 123.848C269.997 123.967 270.313 123.773 270.333 123.518Z" fill="#8DC9FF"/>
<path d="M303.001 93.9728C312.272 85.7863 314.613 73.289 308.229 66.0593C301.845 58.8296 289.155 59.6052 279.884 67.7917C270.613 75.9783 268.272 88.4756 274.656 95.7053C281.04 102.935 293.73 102.159 303.001 93.9728Z" fill="#007BFF"/>
<path d="M315.229 102.116C314.483 105.105 311.456 107.529 308.467 107.529C305.479 107.529 303.66 105.105 304.404 102.116C305.15 99.1275 308.177 96.7039 311.166 96.7039C314.155 96.7039 315.973 99.1275 315.229 102.116Z" fill="#007BFF"/>
<path d="M286.337 90.922C285.714 90.922 285.152 90.6843 284.795 90.2101L279.685 83.4016C278.971 82.452 279.355 80.9127 280.542 79.963C281.728 79.0134 283.268 79.0134 283.981 79.963L287.801 85.0516L301.449 74.1275C302.635 73.1779 304.175 73.1779 304.888 74.1275C305.601 75.0772 305.217 76.6165 304.03 77.5661L288.235 90.2101C287.639 90.6855 286.958 90.922 286.337 90.922Z" fill="white"/>
<g opacity="0.1">
<path d="M342.705 97.3122H340.331C339.734 97.3122 339.372 96.8286 339.521 96.2332L340.113 93.8584C340.262 93.263 340.865 92.7794 341.461 92.7794H343.836C344.432 92.7794 344.794 93.263 344.645 93.8584L344.053 96.2332C343.905 96.8286 343.301 97.3122 342.705 97.3122Z" fill="#007BFF"/>
</g>
<path opacity="0.15" d="M340.969 104.274H338.595C337.998 104.274 337.636 103.791 337.785 103.195L338.377 100.821C338.526 100.224 339.129 99.7417 339.725 99.7417H342.099C342.696 99.7417 343.058 100.225 342.909 100.821L342.317 103.195C342.169 103.791 341.566 104.274 340.969 104.274Z" fill="#007BFF"/>
<path opacity="0.3" d="M348.524 104.274H346.15C345.553 104.274 345.191 103.791 345.34 103.195L345.932 100.821C346.081 100.224 346.685 99.7417 347.28 99.7417H349.655C350.251 99.7417 350.614 100.225 350.464 100.821L349.873 103.195C349.725 103.791 349.121 104.274 348.524 104.274Z" fill="#007BFF"/>
<path opacity="0.15" d="M356.079 104.274H353.705C353.108 104.274 352.746 103.791 352.895 103.195L353.487 100.821C353.635 100.224 354.24 99.7417 354.835 99.7417H357.21C357.806 99.7417 358.169 100.225 358.019 100.821L357.427 103.195C357.279 103.791 356.676 104.274 356.079 104.274Z" fill="#007BFF"/>
<path opacity="0.2" d="M339.193 111.398H336.819C336.222 111.398 335.86 110.914 336.009 110.319L336.601 107.944C336.75 107.348 337.354 106.865 337.949 106.865H340.324C340.92 106.865 341.283 107.348 341.133 107.944L340.541 110.319C340.393 110.914 339.79 111.398 339.193 111.398Z" fill="#007BFF"/>
<path opacity="0.2" d="M337.297 119.007H334.922C334.325 119.007 333.963 118.523 334.112 117.928L334.704 115.553C334.853 114.956 335.457 114.474 336.052 114.474H338.427C339.023 114.474 339.386 114.957 339.237 115.553L338.645 117.928C338.497 118.523 337.892 119.007 337.297 119.007Z" fill="#007BFF"/>
<path opacity="0.1" d="M346.749 111.398H344.374C343.777 111.398 343.415 110.914 343.564 110.319L344.156 107.944C344.305 107.348 344.909 106.865 345.504 106.865H347.879C348.475 106.865 348.838 107.348 348.689 107.944L348.097 110.319C347.949 110.914 347.345 111.398 346.749 111.398Z" fill="#007BFF"/>
<path opacity="0.3" d="M343.438 124.673H341.063C340.468 124.673 340.105 124.189 340.254 123.594L340.846 121.219C340.995 120.623 341.598 120.14 342.194 120.14H344.568C345.165 120.14 345.527 120.624 345.378 121.219L344.786 123.594C344.638 124.189 344.035 124.673 343.438 124.673Z" fill="#007BFF"/>
<path opacity="0.3" d="M341.944 187.282H263.879C263.058 187.282 262.458 186.507 262.666 185.713L269.953 157.712C270.096 157.16 270.595 156.774 271.166 156.774H349.231C350.052 156.774 350.652 157.549 350.444 158.344L343.157 186.344C343.014 186.897 342.515 187.282 341.944 187.282Z" fill="#007BFF"/>
<path d="M274.585 162.763H301.75" stroke="#8DC9FF" stroke-width="1.076" stroke-miterlimit="10" stroke-linecap="round" stroke-linejoin="round"/>
<path d="M272.495 175.301H299.659" stroke="#8DC9FF" stroke-width="1.076" stroke-miterlimit="10" stroke-linecap="round" stroke-linejoin="round"/>
<path d="M283.919 170.565H311.083" stroke="#8DC9FF" stroke-width="1.076" stroke-miterlimit="10" stroke-linecap="round" stroke-linejoin="round"/>
<path d="M273.889 166.943H282.038" stroke="#8DC9FF" stroke-width="1.076" stroke-miterlimit="10" stroke-linecap="round" stroke-linejoin="round"/>
<path d="M272.774 170.565H280.923" stroke="#8DC9FF" stroke-width="1.076" stroke-miterlimit="10" stroke-linecap="round" stroke-linejoin="round"/>
<path d="M306.068 162.763H315.75" stroke="#8DC9FF" stroke-width="1.076" stroke-miterlimit="10" stroke-linecap="round" stroke-linejoin="round"/>
<path d="M310.811 181.183H296.354C296.28 181.183 296.228 181.115 296.246 181.043L296.893 178.558C296.906 178.509 296.95 178.474 297.002 178.474H311.458C311.532 178.474 311.584 178.543 311.565 178.614L310.919 181.101C310.907 181.148 310.863 181.183 310.811 181.183Z" stroke="#8DC9FF" stroke-width="0.5" stroke-miterlimit="10" stroke-linecap="round" stroke-linejoin="round"/>
<path d="M292.842 181.183H278.384C278.311 181.183 278.258 181.115 278.277 181.043L278.923 178.558C278.936 178.509 278.981 178.474 279.031 178.474H293.488C293.562 178.474 293.614 178.543 293.596 178.614L292.949 181.101C292.936 181.148 292.892 181.183 292.842 181.183Z" stroke="#8DC9FF" stroke-width="0.5" stroke-miterlimit="10" stroke-linecap="round" stroke-linejoin="round"/>
<path d="M336.222 177.578C335.481 176.591 332.475 175.873 331.644 174.886C331.22 174.382 331.22 173.445 331.321 172.649C331.617 172.46 331.863 172.272 332.009 172.096C332.258 171.731 332.54 171.222 332.822 170.662C332.907 170.746 333.021 170.81 333.168 170.807C333.563 170.795 335.065 168.749 334.678 168.276C334.457 168.005 334.099 168.24 333.833 168.492C334.231 167.58 334.51 166.882 334.51 166.882H334.495C334.532 166.767 334.567 166.652 334.597 166.535C335.193 164.144 333.738 162.205 331.347 162.205C328.956 162.205 326.535 164.144 325.938 166.535C325.909 166.653 325.886 166.768 325.867 166.882H325.852C325.852 166.882 325.783 167.58 325.727 168.492C325.586 168.241 325.346 168.006 324.99 168.276C324.366 168.75 324.849 170.795 325.238 170.807C325.382 170.812 325.529 170.746 325.655 170.662C325.658 171.222 325.685 171.731 325.753 172.096C325.825 172.31 326.035 172.545 326.306 172.775C326.009 173.543 325.556 174.409 324.915 174.886C323.592 175.873 320.227 176.591 318.995 177.578C317.885 178.466 316.896 181.059 316.708 181.571H336.519C336.584 181.06 336.889 178.466 336.222 177.578Z" fill="#0058B6"/>
<path d="M236.094 177.295H172.037C166.413 177.295 162.991 172.735 164.393 167.112C165.795 161.489 171.49 156.929 177.115 156.929H241.172C246.796 156.929 250.218 161.489 248.816 167.112C247.413 172.737 241.718 177.295 236.094 177.295Z" fill="white"/>
<path d="M178.831 169.771L176.085 171.048C175.826 171.168 175.607 170.975 175.714 170.72L176.852 168.015C176.896 167.914 176.887 167.811 176.832 167.739L175.345 165.823C175.205 165.643 175.385 165.329 175.65 165.292L178.464 164.897C178.569 164.882 178.673 164.819 178.741 164.727L180.568 162.267C180.741 162.035 181.07 162.035 181.128 162.267L181.729 164.727C181.751 164.819 181.823 164.883 181.921 164.897L184.538 165.292C184.784 165.329 184.808 165.643 184.578 165.823L182.135 167.739C182.045 167.81 181.985 167.914 181.977 168.015L181.767 170.72C181.747 170.974 181.432 171.168 181.234 171.048L179.123 169.771C179.042 169.723 178.934 169.723 178.831 169.771Z" fill="#217BD6"/>
<path d="M192.355 169.771L189.609 171.048C189.35 171.168 189.131 170.975 189.238 170.72L190.377 168.015C190.42 167.914 190.412 167.811 190.356 167.739L188.869 165.823C188.729 165.643 188.91 165.329 189.174 165.292L191.988 164.897C192.093 164.882 192.197 164.819 192.266 164.727L194.093 162.267C194.265 162.035 194.595 162.035 194.652 162.267L195.252 164.727C195.274 164.819 195.346 164.883 195.444 164.897L198.061 165.292C198.307 165.329 198.332 165.643 198.102 165.823L195.66 167.739C195.569 167.81 195.51 167.914 195.501 168.015L195.292 170.72C195.272 170.974 194.956 171.168 194.758 171.048L192.648 169.771C192.566 169.723 192.458 169.723 192.355 169.771Z" fill="#217BD6"/>
<path d="M205.88 169.771L203.133 171.048C202.875 171.168 202.656 170.975 202.763 170.72L203.901 168.015C203.943 167.914 203.936 167.811 203.88 167.739L202.394 165.823C202.254 165.643 202.434 165.329 202.699 165.292L205.513 164.897C205.618 164.882 205.721 164.819 205.79 164.727L207.618 162.267C207.791 162.035 208.12 162.035 208.176 162.267L208.778 164.727C208.8 164.819 208.872 164.883 208.97 164.897L211.587 165.292C211.833 165.329 211.857 165.643 211.628 165.823L209.185 167.739C209.095 167.81 209.035 167.914 209.027 168.015L208.816 170.72C208.796 170.974 208.481 171.168 208.282 171.048L206.172 169.771C206.091 169.723 205.984 169.723 205.88 169.771Z" fill="#217BD6"/>
<path d="M219.404 169.771L216.658 171.048C216.399 171.168 216.18 170.975 216.287 170.72L217.426 168.015C217.469 167.914 217.461 167.811 217.405 167.739L215.918 165.823C215.778 165.643 215.959 165.329 216.223 165.292L219.036 164.897C219.141 164.882 219.245 164.819 219.313 164.727L221.14 162.267C221.313 162.035 221.643 162.035 221.698 162.267L222.3 164.727C222.322 164.819 222.394 164.883 222.492 164.897L225.109 165.292C225.355 165.329 225.379 165.643 225.15 165.823L222.708 167.739C222.617 167.81 222.557 167.914 222.549 168.015L222.338 170.72C222.318 170.974 222.003 171.168 221.805 171.048L219.694 169.771C219.616 169.723 219.508 169.723 219.404 169.771Z" fill="#217BD6"/>
<path d="M232.93 169.771L230.183 171.048C229.925 171.168 229.706 170.975 229.813 170.72L230.951 168.015C230.993 167.914 230.986 167.811 230.93 167.739L229.444 165.823C229.304 165.643 229.484 165.329 229.749 165.292L232.563 164.897C232.668 164.882 232.771 164.819 232.84 164.727L234.667 162.267C234.84 162.035 235.169 162.035 235.226 162.267L235.828 164.727C235.85 164.819 235.922 164.883 236.02 164.897L238.637 165.292C238.883 165.329 238.907 165.643 238.678 165.823L236.236 167.739C236.145 167.81 236.085 167.914 236.077 168.015L235.866 170.72C235.846 170.974 235.531 171.168 235.332 171.048L233.222 169.771C233.141 169.723 233.032 169.723 232.93 169.771Z" fill="#C2CDD9"/>
<path d="M53.1306 344.042C58.374 353.088 74.8231 359.694 94.3156 359.694C113.808 359.694 130.257 353.089 135.501 344.042H53.1306Z" fill="#4F76A0"/>
<path d="M164.33 297.639L154.446 343.218H148.405L153.897 298.737L164.33 297.639Z" fill="#0070E7"/>
<path d="M182.451 301.483H93.9697V290.5H173.666C178.519 290.5 182.451 294.434 182.451 299.286V301.483Z" fill="#0063CC"/>
<path d="M21.555 338.277L0.139848 235.279C-0.710746 231.188 2.41315 227.348 6.59154 227.348H77.4553C81.3587 227.348 84.7249 230.087 85.5196 233.908L107.219 338.275" fill="#0070E7"/>
<path d="M167.085 349.575H32.5137C27.9729 349.575 23.9763 346.578 22.705 342.217L21.5562 338.277H167.086V349.575H167.085Z" fill="#0070E7"/>
<path d="M100.905 354.751H90.1968V450.303H100.905V354.751Z" fill="#E2E7FF"/>
<path d="M100.905 372.461L90.1968 381.109V354.751H100.905V372.461Z" fill="#4F76A0"/>
<path d="M100.576 436.063H96.66H95.6813H91.765L51.624 452H140.717L100.576 436.063Z" fill="#E2E7FF"/>
<path d="M9.5791 234.394H73.2757" stroke="#4F76A0" stroke-miterlimit="10"/>
<path d="M79.8789 241.773L90.7537 296.539" stroke="#4F76A0" stroke-miterlimit="10"/>
<path d="M92.696 306.249L95.0264 322.174" stroke="#4F76A0" stroke-miterlimit="10"/>
<path opacity="0.3" d="M389.638 142.34H338.347C335.702 142.34 333.682 139.977 334.094 137.364L334.482 134.905C334.813 132.812 336.617 131.271 338.735 131.271H390.026C392.671 131.271 394.692 133.635 394.279 136.247L393.891 138.706C393.56 140.799 391.756 142.34 389.638 142.34Z" fill="#007BFF"/>
<path d="M340.495 136.902H384.772" stroke="white" stroke-width="2" stroke-miterlimit="10"/>
<path d="M172.729 77.0068H160.179L161.886 67.326H174.436L172.729 77.0068Z" fill="white"/>
<path d="M152.92 90.2357H140.371L142.078 80.5549H154.627L152.92 90.2357Z" fill="white"/>
<path d="M135.442 90.2357H122.893L124.6 80.5549H137.149L135.442 90.2357Z" fill="white"/>
<path d="M385.368 109.157C385.003 109.157 384.656 109.453 384.591 109.817C384.525 110.182 384.77 110.478 385.135 110.478C385.499 110.478 385.847 110.182 385.912 109.817C385.977 109.453 385.732 109.157 385.368 109.157Z" fill="#2463A7"/>
<path d="M399.337 82.3517H397.356L397.543 81.2949C397.735 80.203 397.003 79.314 395.912 79.314H380.066C378.974 79.314 377.929 80.203 377.736 81.2949L377.549 82.3517H375.568C374.477 82.3517 373.431 83.2408 373.238 84.3326C372.481 88.6277 373.934 91.7843 377.04 92.6629C377.724 95.1227 379.122 97.2143 381.1 98.7256C381.555 99.074 381.758 99.6694 381.644 100.32L381.003 103.957C380.53 104.074 380.073 104.309 379.675 104.648C379.087 105.147 378.696 105.81 378.571 106.515H377.911C376.819 106.515 375.774 107.404 375.58 108.496L374.882 112.458C374.818 112.823 375.062 113.119 375.426 113.119H388.63C388.995 113.119 389.342 112.823 389.408 112.458L390.105 108.496C390.298 107.404 389.566 106.515 388.474 106.515H387.814C388.03 105.287 387.37 104.252 386.284 103.957L386.924 100.322C387.04 99.6694 387.453 99.0728 388.031 98.7244C390.541 97.2131 392.677 95.1215 394.229 92.6606C397.644 91.782 400.21 88.6253 400.967 84.3303C401.161 83.2408 400.429 82.3517 399.337 82.3517ZM374.561 84.3326C374.625 83.9691 374.973 83.6719 375.338 83.6719H377.319L376.798 86.6235C376.532 88.129 376.501 89.6018 376.7 91.0211C374.782 89.9805 373.988 87.5778 374.561 84.3326ZM388.242 107.837C388.606 107.837 388.851 108.133 388.786 108.497L388.204 111.798H376.32L376.903 108.497C376.967 108.134 377.315 107.837 377.68 107.837H388.242ZM395.284 86.6235C394.965 88.4273 394.297 90.1821 393.297 91.8391C391.874 94.1975 389.865 96.2005 387.49 97.6314C386.503 98.2257 385.799 99.2313 385.607 100.324L384.864 104.535C384.8 104.9 385.044 105.196 385.409 105.196C386.137 105.196 386.625 105.788 386.496 106.516H379.894C379.955 106.164 380.151 105.832 380.445 105.583C380.724 105.345 381.059 105.21 381.394 105.197C381.411 105.198 381.428 105.2 381.446 105.2C381.81 105.2 382.159 104.901 382.223 104.537L382.966 100.322C383.159 99.2325 382.809 98.2269 382.033 97.6326C380.162 96.2017 378.859 94.1987 378.267 91.8402C377.851 90.1833 377.801 88.4284 378.119 86.6246L379.058 81.296C379.122 80.9325 379.471 80.6353 379.835 80.6353H395.681C396.044 80.6353 396.289 80.9313 396.225 81.296L395.284 86.6235ZM395.151 91.0211C395.851 89.6018 396.339 88.1278 396.604 86.6235L397.125 83.6719H399.105C399.469 83.6719 399.714 83.9679 399.65 84.3326C399.076 87.5766 397.435 89.9805 395.151 91.0211Z" fill="#2463A7"/>
<path d="M391.838 87.1164C391.803 86.8775 391.627 86.7028 391.385 86.6666L388.608 86.253L387.789 83.6708C387.685 83.3434 387.314 83.2094 386.958 83.3714C386.816 83.4354 386.693 83.5415 386.605 83.6708L384.875 86.253L381.953 86.6666C381.582 86.7191 381.273 87.0547 381.263 87.4147C381.258 87.558 381.302 87.6909 381.389 87.7923L383.097 89.8023L382.11 92.6408C381.985 92.9997 382.166 93.3411 382.514 93.4028C382.653 93.4273 382.804 93.404 382.944 93.3364L385.729 91.9964L388.042 93.3364C388.334 93.5066 388.756 93.3819 388.982 93.0591C389.072 92.9309 389.122 92.7829 389.122 92.6396L389.135 89.8011L391.551 87.7911C391.762 87.6175 391.874 87.3553 391.838 87.1164ZM388.09 89.0996C387.907 89.2511 387.797 89.4702 387.797 89.6846L387.789 91.5466L386.272 90.668C386.097 90.5667 385.868 90.5667 385.658 90.668L383.832 91.5466L384.48 89.6846C384.554 89.4702 384.522 89.2523 384.392 89.0996L383.273 87.7818L385.189 87.5103C385.41 87.4788 385.619 87.3436 385.75 87.149L386.885 85.4548L387.422 87.149C387.484 87.3436 387.646 87.4788 387.855 87.5103L389.677 87.7818L388.09 89.0996ZM382.727 109.157H380.087C379.722 109.157 379.375 109.453 379.31 109.818C379.245 110.182 379.489 110.478 379.854 110.478H382.494C382.859 110.478 383.206 110.182 383.272 109.818C383.337 109.453 383.092 109.157 382.727 109.157ZM392.545 111.138H392.914C392.733 111.1 392.607 111.097 392.545 111.138Z" fill="#2463A7"/>
<path d="M180.064 53.3526H175.839L176.157 51.5453C176.412 50.1004 175.444 48.9142 173.99 48.9142C172.545 48.9142 171.151 50.0911 170.895 51.5453L170.577 53.3526H162.433L162.751 51.5453C163.006 50.1004 162.038 48.9142 160.584 48.9142C159.13 48.9142 157.762 50.1004 157.507 51.5453L157.189 53.3526H149.045L149.363 51.5453C149.618 50.1004 148.65 48.9142 147.196 48.9142C145.751 48.9142 144.357 50.0911 144.101 51.5453L143.783 53.3526H135.639L135.958 51.5453C136.213 50.1004 135.244 48.9142 133.79 48.9142C132.345 48.9142 130.952 50.0911 130.696 51.5453L130.377 53.3526H126.162C124.68 53.3526 123.253 54.5574 122.99 56.0489L116.468 93.0358C116.207 94.5179 117.198 95.7321 118.689 95.7321H172.594C174.076 95.7321 175.504 94.5179 175.765 93.0358L182.287 56.0489C182.546 54.5667 181.555 53.3526 180.064 53.3526ZM172.702 51.5453C172.782 51.0908 173.219 50.711 173.683 50.711C174.138 50.711 174.452 51.0815 174.369 51.5453L173.59 55.965C173.51 56.4195 173.073 56.7993 172.609 56.7993C172.154 56.7993 171.84 56.4288 171.923 55.965L172.702 51.5453ZM160.285 50.7121C160.739 50.7121 161.054 51.0827 160.971 51.5464L160.191 55.9662C160.111 56.4206 159.674 56.8005 159.21 56.8005C158.756 56.8005 158.441 56.4299 158.524 55.9662L159.303 51.5464C159.384 51.092 159.822 50.7121 160.285 50.7121ZM145.907 51.5453C145.988 51.0908 146.425 50.711 146.888 50.711C147.343 50.711 147.657 51.0815 147.575 51.5453L146.797 55.9557C146.717 56.4101 146.28 56.79 145.816 56.79C145.362 56.79 145.047 56.4195 145.13 55.9557L145.907 51.5453ZM132.51 51.5453C132.59 51.0908 133.027 50.711 133.491 50.711C133.955 50.711 134.26 51.0815 134.177 51.5453L133.398 55.965C133.317 56.4195 132.88 56.7993 132.417 56.7993C131.953 56.7993 131.647 56.4288 131.73 55.965L132.51 51.5453ZM125.842 55.1505H130.077L129.933 55.9662C129.678 57.4111 130.647 58.5973 132.101 58.5973C133.546 58.5973 134.939 57.4204 135.196 55.9662L135.339 55.1505H143.482L143.339 55.9662C143.084 57.4111 144.052 58.5973 145.506 58.5973C146.951 58.5973 148.345 57.4204 148.601 55.9662L148.744 55.1505H156.888L156.745 55.9662C156.489 57.4111 157.458 58.5973 158.912 58.5973C160.366 58.5973 161.75 57.4204 162.007 55.9662L162.15 55.1505H170.294L170.15 55.9662C169.895 57.4111 170.863 58.5973 172.317 58.5973C173.762 58.5973 175.156 57.4204 175.412 55.9662L175.556 55.1505H179.781C180.271 55.1505 180.608 55.5583 180.52 56.0489L179.44 62.1734H123.702L124.782 56.0489C124.872 55.5572 125.343 55.1505 125.842 55.1505ZM172.906 93.9435H119.002C118.505 93.9435 118.174 93.5415 118.262 93.0451L123.389 63.9702H179.09L173.963 93.0451C173.875 93.5461 173.407 93.9435 172.906 93.9435Z" fill="#2463A7"/>
<path d="M139.833 66.4999H126.714C126.214 66.4999 125.745 66.8984 125.657 67.3983L123.963 77.0068C123.875 77.5067 124.203 77.9052 124.703 77.9052H137.822C138.322 77.9052 138.791 77.5067 138.879 77.0068L140.573 67.3983C140.66 66.9019 140.329 66.4999 139.833 66.4999ZM137.238 76.1177H125.916L127.294 68.2978H138.617L137.238 76.1177Z" fill="#2463A7"/>
<path d="M130.323 74.6169C130.467 74.7929 130.685 74.8767 130.916 74.8767C131.148 74.8767 131.393 74.7929 131.601 74.6169L135.786 71.0594C136.2 70.7075 136.3 70.1424 136.01 69.7905C135.72 69.4386 135.155 69.4386 134.741 69.7905L131.308 72.7094L130.369 71.5698C130.079 71.2179 129.514 71.2179 129.1 71.5698C128.687 71.9217 128.586 72.4868 128.877 72.8387L130.323 74.6169ZM174.873 66.4999H161.754C161.254 66.4999 160.784 66.8984 160.697 67.3983L159.003 77.0068C158.914 77.5067 159.243 77.9052 159.743 77.9052H172.862C173.361 77.9052 173.831 77.5067 173.918 77.0068L175.613 67.3983C175.7 66.9077 175.364 66.4999 174.873 66.4999ZM172.279 76.1177H160.957L162.335 68.2978H173.657L172.279 76.1177Z" fill="#2463A7"/>
<path d="M165.354 74.6169C165.499 74.7929 165.717 74.8767 165.947 74.8767C166.178 74.8767 166.425 74.7929 166.633 74.6169L170.818 71.0594C171.232 70.7075 171.332 70.1424 171.042 69.7905C170.751 69.4386 170.186 69.4386 169.773 69.7905L166.34 72.7094L165.401 71.5698C165.111 71.2179 164.546 71.2179 164.132 71.5698C163.718 71.9217 163.618 72.4868 163.908 72.8387L165.354 74.6169ZM157.353 66.4999H144.234C143.734 66.4999 143.264 66.8984 143.177 67.3983L141.483 77.0068C141.394 77.5067 141.723 77.9052 142.223 77.9052H155.342C155.842 77.9052 156.311 77.5067 156.399 77.0068L158.093 67.3983C158.181 66.9019 157.849 66.4999 157.353 66.4999ZM154.759 76.1177H143.437L144.815 68.2978H156.138L154.759 76.1177Z" fill="#2463A7"/>
<path d="M146.944 74.6169C147.089 74.7928 147.307 74.8767 147.537 74.8767C147.769 74.8767 148.015 74.7928 148.222 74.6169L149.562 73.4773L150.502 74.6169C150.646 74.7928 150.864 74.8767 151.095 74.8767C151.326 74.8767 151.572 74.7928 151.78 74.6169C152.193 74.265 152.294 73.6998 152.003 73.3479L151.064 72.2084L152.404 71.0688C152.818 70.7169 152.918 70.1517 152.628 69.7998C152.338 69.4479 151.773 69.4479 151.359 69.7998L150.01 70.9394L149.071 69.7998C148.781 69.4479 148.215 69.4479 147.802 69.7998C147.388 70.1517 147.288 70.7169 147.578 71.0688L148.517 72.2084L147.177 73.3479C146.764 73.6987 146.663 74.2638 146.944 74.6169ZM137.452 79.9991H124.334C123.834 79.9991 123.364 80.3976 123.277 80.8975L121.583 90.506C121.494 91.0059 121.823 91.4044 122.322 91.4044H135.441C135.941 91.4044 136.411 91.0059 136.498 90.506L138.192 80.8975C138.281 80.4023 137.949 79.9991 137.452 79.9991ZM134.858 89.6169H123.535L124.914 81.7971H136.236L134.858 89.6169Z" fill="#2463A7"/>
<path d="M127.942 88.1162C128.238 88.4611 128.803 88.4611 129.22 88.1162L133.406 84.5587C133.82 84.2068 133.92 83.6417 133.63 83.2898C133.339 82.9379 132.774 82.9379 132.361 83.2898L128.928 86.2087L127.989 85.0691C127.699 84.7172 127.134 84.7172 126.72 85.0691C126.306 85.421 126.206 85.9861 126.496 86.338L127.942 88.1162ZM154.972 79.9991H141.854C141.354 79.9991 140.884 80.3977 140.797 80.8975L139.103 90.5061C139.014 91.0059 139.343 91.4045 139.842 91.4045H152.961C153.461 91.4045 153.931 91.0059 154.018 90.5061L155.712 80.8975C155.801 80.4023 155.469 79.9991 154.972 79.9991ZM152.379 89.617H141.057L142.435 81.7971H153.757L152.379 89.617Z" fill="#2463A7"/>
<path d="M145.462 88.1162C145.758 88.4611 146.323 88.4611 146.74 88.1162L150.926 84.5587C151.339 84.2068 151.439 83.6417 151.149 83.2898C150.859 82.9379 150.294 82.9379 149.88 83.2898L146.448 86.2087L145.509 85.0691C145.218 84.7172 144.653 84.7172 144.24 85.0691C143.826 85.421 143.726 85.9861 144.016 86.338L145.462 88.1162ZM172.493 79.9991H159.374C158.875 79.9991 158.405 80.3977 158.318 80.8975L156.623 90.5061C156.535 91.0059 156.863 91.4045 157.363 91.4045H170.482C170.982 91.4045 171.452 91.0059 171.539 90.5061L173.233 80.8975C173.32 80.407 172.984 79.9991 172.493 79.9991ZM169.899 89.617H158.576L159.955 81.7971H171.277L169.899 89.617Z" fill="#2463A7"/>
<path d="M162.084 88.1162C162.228 88.2921 162.446 88.376 162.677 88.376C162.909 88.376 163.154 88.2921 163.362 88.1162L164.702 86.9766L165.641 88.1162C165.785 88.2921 166.003 88.376 166.234 88.376C166.466 88.376 166.712 88.2921 166.919 88.1162C167.333 87.7643 167.433 87.1991 167.143 86.8472L166.204 85.7076L167.544 84.568C167.957 84.2161 168.058 83.651 167.767 83.2991C167.477 82.9472 166.912 82.9472 166.498 83.2991L165.159 84.4387L164.219 83.2991C163.929 82.9472 163.364 82.9472 162.95 83.2991C162.537 83.651 162.437 84.2161 162.727 84.568L163.666 85.7076L162.326 86.8472C161.903 87.1991 161.803 87.7643 162.084 88.1162Z" fill="#2463A7"/>
<path d="M234.478 35.8962C228.972 35.8962 223.72 40.3602 222.749 45.8671C221.779 51.374 225.455 55.838 230.962 55.838C236.468 55.838 241.72 51.374 242.691 45.8671C243.657 40.3626 239.982 35.9021 234.478 35.8962ZM231.314 53.8443C226.908 53.8443 223.967 50.2729 224.743 45.8671C225.52 41.4614 229.721 37.89 234.126 37.89C238.532 37.89 241.473 41.4614 240.697 45.8671C239.916 50.2706 235.718 53.8397 231.314 53.8443Z" fill="#2463A7"/>
<path d="M233.248 42.8759C234.465 42.8759 235.138 43.4655 235.067 43.8734H237.06C237.31 42.4564 236.257 41.3087 234.578 40.9812L234.772 39.8848H232.778L232.585 40.9812C230.791 41.3063 229.334 42.4541 229.083 43.8734C228.787 45.5513 230.308 46.8645 232.544 46.8645C233.762 46.8645 234.434 47.4541 234.363 47.862C234.292 48.2698 233.411 48.8594 232.193 48.8594C230.976 48.8594 230.303 48.2698 230.374 47.862H228.381C228.131 49.2789 229.184 50.4266 230.863 50.7541L230.669 51.8506H232.663L232.856 50.7541C234.649 50.429 236.107 49.2812 236.358 47.862C236.654 46.184 235.133 44.8708 232.897 44.8708C231.679 44.8708 231.007 44.2812 231.078 43.8734C231.149 43.4655 232.03 42.8759 233.248 42.8759Z" fill="#2463A7"/>
<path d="M258.529 57.8329H216.652L220.871 33.9025H236.825C238.477 33.9025 240.053 32.5636 240.344 30.9113L244.739 5.98348H255.707L253.597 17.9493H265.562L260.639 45.8683H262.633L267.804 16.5393L257.468 3.98976H245.09L245.266 2.99232C245.557 1.33885 244.453 0 242.802 0H220.866C219.214 0 217.639 1.33885 217.348 2.99115L212.425 30.9102C212.133 32.5625 213.237 33.9013 214.889 33.9013H218.877L214.306 59.8266H260.172L262.633 45.8683H260.639L258.529 57.8329ZM257.452 7.39224L264.504 15.9532H255.943L257.452 7.39224ZM214.419 30.9102L219.342 2.99115C219.439 2.44 219.965 1.99371 220.516 1.99371H242.452C243.003 1.99371 243.37 2.44 243.273 2.99115L238.35 30.9102C238.253 31.4613 237.728 31.9076 237.177 31.9076H215.241C214.69 31.9076 214.322 31.4613 214.419 30.9102Z" fill="#2463A7"/>
<path d="M245.387 24.9279H247.38L247.028 26.9216H245.035L245.387 24.9279ZM249.374 24.9279H261.339L260.988 26.9216H249.022L249.374 24.9279ZM246.089 20.9393H248.083L247.731 22.933H245.737L246.089 20.9393ZM250.078 20.9393H262.043L261.691 22.933H249.726L250.078 20.9393ZM244.683 28.9165H246.677L246.325 30.9102H244.331L244.683 28.9165ZM248.671 28.9165H260.637L260.285 30.9102H248.319L248.671 28.9165ZM243.979 32.9051H245.973L245.621 34.8988H243.627L243.979 32.9051ZM247.968 32.9051H259.933L259.581 34.8988H247.616L247.968 32.9051ZM242.274 2.99121H220.338L219.108 9.97096H241.044L242.274 2.99121ZM239.401 7.97725H221.454L221.981 4.98609H239.929L239.401 7.97725ZM223.918 10.9684H221.924C220.823 10.9684 219.772 11.861 219.579 12.9621L219.227 14.9558C219.032 16.057 219.769 16.9495 220.87 16.9495H222.863C223.965 16.9495 225.016 16.057 225.209 14.9558L225.561 12.9621C225.754 11.861 225.019 10.9684 223.918 10.9684ZM221.221 14.957L221.572 12.9633H223.566L223.214 14.957H221.221ZM230.897 10.9684H228.904C227.803 10.9684 226.752 11.861 226.558 12.9621L226.206 14.9558C226.012 16.057 226.748 16.9495 227.849 16.9495H229.843C230.944 16.9495 231.995 16.057 232.189 14.9558L232.54 12.9621C232.734 11.861 231.999 10.9684 230.897 10.9684ZM228.2 14.957L228.552 12.9633H230.546L230.194 14.957H228.2ZM237.877 10.9684H235.883C234.782 10.9684 233.731 11.861 233.538 12.9621L233.186 14.9558C232.991 16.057 233.728 16.9495 234.829 16.9495H236.823C237.924 16.9495 238.975 16.057 239.168 14.9558L239.52 12.9621C239.713 11.861 238.978 10.9684 237.877 10.9684ZM235.18 14.957L235.531 12.9633H237.525L237.173 14.957H235.18ZM222.686 17.9482H220.693C219.592 17.9482 218.541 18.8407 218.347 19.9419L217.995 21.9356C217.801 23.0367 218.537 23.9293 219.638 23.9293H221.632C222.733 23.9293 223.784 23.0367 223.977 21.9356L224.329 19.9419C224.524 18.8407 223.789 17.9482 222.686 17.9482ZM219.989 21.9367L220.341 19.943H222.334L221.983 21.9367H219.989ZM229.666 17.9482H227.672C226.571 17.9482 225.52 18.8407 225.327 19.9419L224.975 21.9356C224.78 23.0367 225.517 23.9293 226.618 23.9293H228.611C229.712 23.9293 230.763 23.0367 230.957 21.9356L231.309 19.9419C231.503 18.8407 230.768 17.9482 229.666 17.9482ZM226.97 21.9367L227.322 19.943H229.315L228.963 21.9367H226.97ZM236.647 17.9482H234.653C233.552 17.9482 232.501 18.8407 232.307 19.9419L231.955 21.9356C231.761 23.0367 232.497 23.9293 233.598 23.9293H235.592C236.693 23.9293 237.744 23.0367 237.938 21.9356L238.289 19.9419C238.483 18.8407 237.748 17.9482 236.647 17.9482ZM233.949 21.9367L234.301 19.943H236.295L235.943 21.9367H233.949ZM221.456 24.9279H219.462C218.361 24.9279 217.31 25.8205 217.117 26.9216L216.765 28.9153C216.57 30.0165 217.307 30.909 218.408 30.909H220.401C221.503 30.909 222.554 30.0165 222.747 28.9153L223.099 26.9216C223.293 25.8205 222.557 24.9279 221.456 24.9279ZM218.758 28.9165L219.11 26.9228H221.104L220.752 28.9165H218.758ZM228.435 24.9279H226.442C225.341 24.9279 224.29 25.8205 224.096 26.9216L223.744 28.9153C223.55 30.0165 224.286 30.909 225.387 30.909H227.381C228.482 30.909 229.533 30.0165 229.726 28.9153L230.078 26.9216C230.273 25.8205 229.537 24.9279 228.435 24.9279ZM225.738 28.9165L226.09 26.9228H228.084L227.732 28.9165H225.738ZM235.415 24.9279H233.421C232.32 24.9279 231.269 25.8205 231.076 26.9216L230.724 28.9153C230.529 30.0165 231.266 30.909 232.367 30.909H234.36C235.462 30.909 236.513 30.0165 236.706 28.9153L237.058 26.9216C237.252 25.8205 236.516 24.9279 235.415 24.9279ZM232.718 28.9165L233.069 26.9228H235.063L234.711 28.9165H232.718Z" fill="#2463A7"/>
</g>
<defs>
<clipPath id="clip0_0_705">
<rect width="401" height="452" fill="white"/>
</clipPath>
</defs>
</svg>
