<svg width="92" height="92" viewBox="0 0 92 92" fill="none" xmlns="http://www.w3.org/2000/svg">
<g filter="url(#filter0_d_0_366)">
<rect x="6" y="6" width="80" height="80" rx="40" fill="url(#paint0_linear_0_366)"/>
<rect x="7" y="7" width="78" height="78" rx="39" stroke="white" stroke-width="2"/>
</g>
<path d="M60.016 32.952H56.352C56.2741 32.7104 56.14 32.4909 55.9605 32.3115C55.7811 32.132 55.5615 31.9978 55.32 31.92V31.456C55.3095 30.8858 55.0756 30.3426 54.6687 29.9431C54.2617 29.5436 53.7142 29.3199 53.144 29.32H45.248V26C45.248 25.3635 44.9951 24.753 44.5451 24.3029C44.095 23.8528 43.4845 23.6 42.848 23.6H32.448C31.8115 23.6 31.201 23.8528 30.7509 24.3029C30.3009 24.753 30.048 25.3635 30.048 26V45.872C30.048 46.5085 30.3009 47.1189 30.7509 47.569C31.201 48.0191 31.8115 48.272 32.448 48.272H37.144V51.976C36.8957 52.0502 36.6691 52.1836 36.4838 52.3648C36.2984 52.5459 36.1599 52.7694 36.08 53.016H32.16C31.5913 53.0159 31.0455 53.2402 30.6411 53.6401C30.2367 54.04 30.0063 54.5833 30 55.152V59.032C30 59.6048 30.2276 60.1542 30.6326 60.5593C31.0377 60.9644 31.5871 61.192 32.16 61.192H43.088C43.6609 61.192 44.2103 60.9644 44.6153 60.5593C45.0204 60.1542 45.248 59.6048 45.248 59.032V55.152C45.248 54.5791 45.0204 54.0297 44.6153 53.6246C44.2103 53.2195 43.6609 52.992 43.088 52.992H39.152C39.0752 52.749 38.9415 52.5278 38.762 52.3469C38.5825 52.166 38.3624 52.0306 38.12 51.952V48.256H42.816C43.4525 48.256 44.063 48.0031 44.5131 47.553C44.9631 47.1029 45.216 46.4925 45.216 45.856V30.368H53.112C53.4065 30.3678 53.6895 30.482 53.9015 30.6864C54.1134 30.8909 54.2376 31.1697 54.248 31.464V31.92C54.0099 31.9946 53.7926 32.124 53.6134 32.2976C53.4342 32.4712 53.2981 32.6844 53.216 32.92H49.584C48.9475 32.92 48.337 33.1728 47.8869 33.6229C47.4369 34.073 47.184 34.6835 47.184 35.32V55.192C47.184 55.8285 47.4369 56.4389 47.8869 56.889C48.337 57.3391 48.9475 57.592 49.584 57.592H51.76V60.92C51.5302 60.9991 51.3214 61.1296 51.1495 61.3015C50.9776 61.4733 50.8471 61.6821 50.768 61.912H48.408C48.0664 61.912 47.7388 62.0477 47.4972 62.2892C47.2557 62.5308 47.12 62.8584 47.12 63.2V67.088C47.12 67.2567 47.1534 67.4238 47.2182 67.5797C47.283 67.7355 47.378 67.8769 47.4977 67.9959C47.6174 68.1149 47.7595 68.209 47.9157 68.2729C48.0719 68.3367 48.2392 68.369 48.408 68.368H56.16C56.4995 68.368 56.825 68.2331 57.0651 67.9931C57.3051 67.753 57.44 67.4275 57.44 67.088V63.216C57.44 62.8758 57.3054 62.5494 57.0656 62.308C56.8258 62.0667 56.5002 61.9301 56.16 61.928H53.76C53.68 61.6973 53.5484 61.488 53.375 61.316C53.2017 61.1441 52.9913 61.0141 52.76 60.936V57.608H59.96C60.5965 57.608 61.207 57.3551 61.6571 56.905C62.1071 56.4549 62.36 55.8445 62.36 55.208V35.344C62.3581 34.7184 62.112 34.1183 61.6742 33.6716C61.2364 33.2248 60.6414 32.9666 60.016 32.952ZM32.408 47.232C32.0458 47.232 31.6982 47.0892 31.4406 46.8346C31.183 46.58 31.0362 46.2341 31.032 45.872V45.152H37.104V47.224L32.408 47.232ZM43.088 54.024C43.3872 54.024 43.6741 54.1428 43.8856 54.3544C44.0972 54.5659 44.216 54.8528 44.216 55.152V59.032C44.216 59.3311 44.0972 59.6181 43.8856 59.8296C43.6741 60.0411 43.3872 60.16 43.088 60.16H32.16C31.8608 60.16 31.5739 60.0411 31.3624 59.8296C31.1508 59.6181 31.032 59.3311 31.032 59.032V55.152C31.032 55.0038 31.0612 54.8572 31.1179 54.7203C31.1746 54.5835 31.2576 54.4591 31.3624 54.3544C31.4671 54.2496 31.5915 54.1665 31.7283 54.1098C31.8652 54.0532 32.0119 54.024 32.16 54.024H36.08C36.1813 54.3501 36.3842 54.6352 36.6591 54.8377C36.9341 55.0402 37.2666 55.1494 37.608 55.1494C37.9494 55.1494 38.2819 55.0402 38.5569 54.8377C38.8318 54.6352 39.0347 54.3501 39.136 54.024H43.088ZM38.144 53.224C38.1814 53.2925 38.2046 53.3679 38.2123 53.4456C38.2201 53.5233 38.2121 53.6018 38.189 53.6764C38.1659 53.751 38.1281 53.8202 38.0777 53.8799C38.0274 53.9396 37.9656 53.9886 37.896 54.024C37.8282 54.0628 37.7532 54.0874 37.6756 54.0963C37.5979 54.1052 37.5193 54.0982 37.4445 54.0757C37.3696 54.0533 37.3002 54.0158 37.2403 53.9657C37.1803 53.9155 37.1313 53.8537 37.096 53.784C37.0583 53.7159 37.0347 53.641 37.0264 53.5636C37.018 53.4862 37.0253 53.408 37.0476 53.3335C37.07 53.2589 37.107 53.1896 37.1565 53.1296C37.2061 53.0696 37.2671 53.0201 37.336 52.984C37.4206 52.9421 37.5136 52.9202 37.608 52.92C37.7183 52.9181 37.8269 52.947 37.9216 53.0036C38.0163 53.0601 38.0933 53.142 38.144 53.24V53.224ZM33.744 39.912C33.7107 39.912 33.6778 39.9053 33.6472 39.8924C33.6166 39.8794 33.5889 39.8604 33.5657 39.8365C33.5426 39.8127 33.5245 39.7844 33.5125 39.7533C33.5005 39.7223 33.4949 39.6892 33.496 39.656V35.784C33.496 35.7182 33.5221 35.6551 33.5686 35.6086C33.6151 35.5621 33.6782 35.536 33.744 35.536H41.496C41.5292 35.5349 41.5623 35.5405 41.5934 35.5525C41.6244 35.5645 41.6527 35.5826 41.6766 35.6057C41.7004 35.6289 41.7194 35.6566 41.7324 35.6872C41.7453 35.7178 41.752 35.7507 41.752 35.784V39.664C41.752 39.7319 41.725 39.797 41.677 39.845C41.629 39.893 41.5639 39.92 41.496 39.92L33.744 39.912ZM44.216 45.856C44.216 46.2209 44.071 46.5709 43.813 46.829C43.5549 47.087 43.2049 47.232 42.84 47.232H38.144V45.184H44.216V45.856ZM44.216 29.32H42.784V27.856C42.7819 27.5158 42.6453 27.1902 42.4039 26.9504C42.1626 26.7106 41.8362 26.576 41.496 26.576H33.744C33.4045 26.576 33.0789 26.7108 32.8389 26.9509C32.5989 27.1909 32.464 27.5165 32.464 27.856V31.72C32.464 32.0602 32.5986 32.3866 32.8384 32.6279C33.0782 32.8692 33.4038 33.0059 33.744 33.008H41.496C41.837 33.0059 42.1633 32.8695 42.4044 32.6284C42.6455 32.3873 42.7819 32.0609 42.784 31.72V30.328H44.216V44.136H38.144V40.936H41.496C41.8383 40.9339 42.1659 40.7964 42.4072 40.5536C42.6486 40.3108 42.784 39.9823 42.784 39.64V35.784C42.7819 35.443 42.6455 35.1166 42.4044 34.8755C42.1633 34.6344 41.837 34.4981 41.496 34.496H33.744C33.4044 34.5002 33.0801 34.6375 32.8407 34.8783C32.6013 35.1192 32.4661 35.4444 32.464 35.784V39.664C32.464 40.0049 32.5983 40.3322 32.8379 40.5748C33.0775 40.8174 33.4031 40.9558 33.744 40.96H37.104V44.12H31.032V26C31.032 25.6343 31.1767 25.2835 31.4345 25.0242C31.6924 24.7648 32.0423 24.6181 32.408 24.616H42.808C43.1737 24.6181 43.5236 24.7648 43.7815 25.0242C44.0393 25.2835 44.184 25.6343 44.184 26L44.216 29.32ZM41.752 27.856V31.72C41.752 31.7879 41.725 31.853 41.677 31.901C41.629 31.949 41.5639 31.976 41.496 31.976H33.744C33.6775 31.9739 33.6144 31.946 33.5681 31.8982C33.5218 31.8504 33.496 31.7865 33.496 31.72V27.856C33.496 27.7902 33.5221 27.7271 33.5686 27.6806C33.6151 27.6341 33.6782 27.608 33.744 27.608H41.496C41.5292 27.6069 41.5623 27.6125 41.5934 27.6245C41.6244 27.6365 41.6527 27.6546 41.6766 27.6777C41.7004 27.7009 41.7194 27.7286 41.7324 27.7592C41.7453 27.7898 41.752 27.8227 41.752 27.856ZM54.552 32.96C54.6195 32.92 54.6946 32.8944 54.7725 32.8849C54.8504 32.8754 54.9294 32.8821 55.0046 32.9047C55.0797 32.9272 55.1494 32.9651 55.2092 33.0159C55.269 33.0668 55.3176 33.1294 55.352 33.2C55.422 33.3368 55.4348 33.4959 55.3875 33.6422C55.3403 33.7884 55.2369 33.91 55.1 33.98C54.9631 34.05 54.8041 34.0628 54.6578 34.0155C54.5115 33.9683 54.39 33.8648 54.32 33.728C54.2478 33.5973 54.23 33.4434 54.2705 33.2997C54.3109 33.1559 54.4063 33.0339 54.536 32.96H54.552ZM49.584 56.576C49.4026 56.576 49.223 56.5401 49.0556 56.4705C48.8881 56.4008 48.7361 56.2988 48.6082 56.1701C48.4803 56.0415 48.3791 55.8889 48.3104 55.721C48.2418 55.5531 48.2069 55.3733 48.208 55.192V54.496H51.76V56.568L49.584 56.576ZM53.792 62.976H56.192C56.2578 62.976 56.3209 63.0021 56.3674 63.0486C56.4139 63.0951 56.44 63.1582 56.44 63.224V67.12C56.44 67.1858 56.4139 67.2488 56.3674 67.2953C56.3209 67.3419 56.2578 67.368 56.192 67.368H48.408C48.3748 67.3691 48.3417 67.3634 48.3106 67.3514C48.2796 67.3395 48.2513 67.3214 48.2274 67.2982C48.2036 67.2751 48.1846 67.2474 48.1716 67.2168C48.1587 67.1861 48.152 67.1532 48.152 67.12V63.216C48.152 63.1827 48.1587 63.1498 48.1716 63.1192C48.1846 63.0886 48.2036 63.0609 48.2274 63.0377C48.2513 63.0146 48.2796 62.9965 48.3106 62.9845C48.3417 62.9725 48.3748 62.9669 48.408 62.968H50.768C50.8768 63.2824 51.0809 63.555 51.3519 63.748C51.6229 63.941 51.9473 64.0447 52.28 64.0447C52.6127 64.0447 52.9371 63.941 53.2081 63.748C53.4791 63.555 53.6832 63.2824 53.792 62.968V62.976ZM52.28 63.04C52.1645 63.04 52.0516 63.0057 51.9555 62.9416C51.8595 62.8774 51.7847 62.7862 51.7405 62.6795C51.6963 62.5728 51.6847 62.4553 51.7072 62.342C51.7298 62.2288 51.7854 62.1247 51.867 62.043C51.9487 61.9614 52.0528 61.9057 52.1661 61.8832C52.2794 61.8607 52.3968 61.8722 52.5035 61.9164C52.6102 61.9606 52.7014 62.0355 52.7656 62.1315C52.8297 62.2276 52.864 62.3405 52.864 62.456C52.8619 62.6095 52.7994 62.756 52.6901 62.8638C52.5809 62.9716 52.4335 63.032 52.28 63.032V63.04ZM61.392 55.2C61.3899 55.5664 61.2434 55.9172 60.9843 56.1763C60.7252 56.4354 60.3744 56.5819 60.008 56.584H52.808V54.512H61.392V55.2ZM51.44 49.704V48.264H53.336V49.704H51.44ZM61.416 53.464H52.792V50.736H53.408C53.6633 50.7339 53.9075 50.631 54.0873 50.4496C54.2671 50.2683 54.368 50.0233 54.368 49.768V48.216C54.368 47.9614 54.2669 47.7172 54.0868 47.5372C53.9068 47.3571 53.6626 47.256 53.408 47.256H51.376C51.1206 47.256 50.8756 47.3569 50.6943 47.5367C50.513 47.7165 50.4101 47.9606 50.408 48.216V49.768C50.408 49.8951 50.433 50.021 50.4817 50.1384C50.5303 50.2559 50.6016 50.3626 50.6915 50.4525C50.7814 50.5423 50.8881 50.6136 51.0056 50.6623C51.123 50.7109 51.2489 50.736 51.376 50.736H51.76V53.464H48.208V35.344C48.2143 34.9825 48.3617 34.6378 48.6189 34.3836C48.876 34.1295 49.2224 33.986 49.584 33.984H53.272C53.3666 34.3196 53.5682 34.6151 53.8462 34.8256C54.1242 35.036 54.4633 35.1499 54.812 35.1499C55.1607 35.1499 55.4998 35.036 55.7778 34.8256C56.0558 34.6151 56.2574 34.3196 56.352 33.984H60.08C60.4449 33.984 60.7949 34.1289 61.053 34.387C61.311 34.645 61.456 34.995 61.456 35.36L61.416 53.464Z" fill="#3E96F4"/>
<path d="M58.672 36.568H50.928C50.8548 36.5589 50.7806 36.5654 50.7101 36.5871C50.6397 36.6089 50.5747 36.6454 50.5194 36.6942C50.4642 36.743 50.4199 36.803 50.3896 36.8702C50.3593 36.9374 50.3436 37.0103 50.3436 37.084C50.3436 37.1577 50.3593 37.2306 50.3896 37.2978C50.4199 37.365 50.4642 37.425 50.5194 37.4738C50.5747 37.5226 50.6397 37.5591 50.7101 37.5808C50.7806 37.6026 50.8548 37.6091 50.928 37.6H58.672C58.7452 37.6091 58.8194 37.6026 58.8898 37.5808C58.9603 37.5591 59.0253 37.5226 59.0806 37.4738C59.1358 37.425 59.1801 37.365 59.2104 37.2978C59.2407 37.2306 59.2564 37.1577 59.2564 37.084C59.2564 37.0103 59.2407 36.9374 59.2104 36.8702C59.1801 36.803 59.1358 36.743 59.0806 36.6942C59.0253 36.6454 58.9603 36.6089 58.8898 36.5871C58.8194 36.5654 58.7452 36.5589 58.672 36.568Z" fill="#3E96F4"/>
<path d="M58.672 39.088H50.928C50.8548 39.0788 50.7806 39.0854 50.7101 39.1071C50.6397 39.1289 50.5747 39.1654 50.5194 39.2142C50.4642 39.263 50.4199 39.323 50.3896 39.3902C50.3593 39.4574 50.3436 39.5303 50.3436 39.604C50.3436 39.6777 50.3593 39.7506 50.3896 39.8178C50.4199 39.885 50.4642 39.945 50.5194 39.9938C50.5747 40.0426 50.6397 40.0791 50.7101 40.1008C50.7806 40.1226 50.8548 40.1291 50.928 40.12H58.672C58.7452 40.1291 58.8194 40.1226 58.8898 40.1008C58.9603 40.0791 59.0253 40.0426 59.0806 39.9938C59.1358 39.945 59.1801 39.885 59.2104 39.8178C59.2407 39.7506 59.2564 39.6777 59.2564 39.604C59.2564 39.5303 59.2407 39.4574 59.2104 39.3902C59.1801 39.323 59.1358 39.263 59.0806 39.2142C59.0253 39.1654 58.9603 39.1289 58.8898 39.1071C58.8194 39.0854 58.7452 39.0788 58.672 39.088Z" fill="#3E96F4"/>
<path d="M58.672 41.608H50.928C50.8548 41.5989 50.7806 41.6054 50.7101 41.6271C50.6397 41.6489 50.5747 41.6854 50.5194 41.7342C50.4642 41.783 50.4199 41.843 50.3896 41.9102C50.3593 41.9774 50.3436 42.0503 50.3436 42.124C50.3436 42.1977 50.3593 42.2706 50.3896 42.3378C50.4199 42.405 50.4642 42.465 50.5194 42.5138C50.5747 42.5626 50.6397 42.5991 50.7101 42.6208C50.7806 42.6426 50.8548 42.6491 50.928 42.64H58.672C58.7452 42.6491 58.8194 42.6426 58.8898 42.6208C58.9603 42.5991 59.0253 42.5626 59.0806 42.5138C59.1358 42.465 59.1801 42.405 59.2104 42.3378C59.2407 42.2706 59.2564 42.1977 59.2564 42.124C59.2564 42.0503 59.2407 41.9774 59.2104 41.9102C59.1801 41.843 59.1358 41.783 59.0806 41.7342C59.0253 41.6854 58.9603 41.6489 58.8898 41.6271C58.8194 41.6054 58.7452 41.5989 58.672 41.608Z" fill="#3E96F4"/>
<path d="M53.68 44.12H50.928C50.8548 44.1108 50.7806 44.1174 50.7101 44.1391C50.6397 44.1609 50.5747 44.1974 50.5194 44.2462C50.4642 44.295 50.4199 44.355 50.3896 44.4222C50.3593 44.4894 50.3436 44.5623 50.3436 44.636C50.3436 44.7097 50.3593 44.7826 50.3896 44.8498C50.4199 44.917 50.4642 44.977 50.5194 45.0258C50.5747 45.0746 50.6397 45.1111 50.7101 45.1328C50.7806 45.1546 50.8548 45.1611 50.928 45.152H53.68C53.8058 45.1363 53.9215 45.0752 54.0054 44.9802C54.0893 44.8851 54.1356 44.7627 54.1356 44.636C54.1356 44.5092 54.0893 44.3868 54.0054 44.2918C53.9215 44.1968 53.8058 44.1357 53.68 44.12Z" fill="#3E96F4"/>
<path d="M58.224 47.232H56.192C55.9367 47.2341 55.6925 47.337 55.5127 47.5183C55.3329 47.6996 55.232 47.9446 55.232 48.2V49.752C55.232 50.0066 55.3331 50.2508 55.5132 50.4308C55.6932 50.6108 55.9374 50.712 56.192 50.712H58.224C58.4793 50.712 58.7244 50.6111 58.9057 50.4313C59.087 50.2515 59.1899 50.0073 59.192 49.752V48.2C59.192 47.9432 59.09 47.697 58.9085 47.5155C58.7269 47.334 58.4807 47.232 58.224 47.232ZM58.16 49.704H56.264V48.264H58.16V49.704Z" fill="#3E96F4"/>
<path d="M33 55.808C33 55.9459 33.0548 56.0782 33.1523 56.1757C33.2498 56.2732 33.3821 56.328 33.52 56.328H41.728C41.8012 56.3371 41.8754 56.3306 41.9459 56.3088C42.0163 56.287 42.0813 56.2506 42.1366 56.2018C42.1918 56.153 42.2361 56.093 42.2664 56.0258C42.2967 55.9586 42.3124 55.8857 42.3124 55.812C42.3124 55.7383 42.2967 55.6654 42.2664 55.5982C42.2361 55.531 42.1918 55.471 42.1366 55.4222C42.0813 55.3734 42.0163 55.3369 41.9459 55.3151C41.8754 55.2934 41.8012 55.2868 41.728 55.296H33.52C33.3835 55.296 33.2524 55.3496 33.1551 55.4454C33.0578 55.5412 33.0021 55.6715 33 55.808Z" fill="#3E96F4"/>
<path d="M41.728 57.84H33.52C33.4521 57.8389 33.3847 57.8514 33.3216 57.8766C33.2586 57.9019 33.2012 57.9394 33.1528 57.9871C33.1044 58.0347 33.066 58.0915 33.0397 58.1542C33.0135 58.2168 33 58.2841 33 58.352C33 58.4899 33.0548 58.6222 33.1523 58.7197C33.2498 58.8172 33.3821 58.872 33.52 58.872H41.728C41.8659 58.872 41.9982 58.8172 42.0957 58.7197C42.1932 58.6222 42.248 58.4899 42.248 58.352C42.248 58.2841 42.2345 58.2168 42.2083 58.1542C42.182 58.0915 42.1436 58.0347 42.0952 57.9871C42.0468 57.9394 41.9894 57.9019 41.9264 57.8766C41.8633 57.8514 41.7959 57.8389 41.728 57.84Z" fill="#3E96F4"/>
<defs>
<filter id="filter0_d_0_366" x="0" y="0" width="92" height="92" filterUnits="userSpaceOnUse" color-interpolation-filters="sRGB">
<feFlood flood-opacity="0" result="BackgroundImageFix"/>
<feColorMatrix in="SourceAlpha" type="matrix" values="0 0 0 0 0 0 0 0 0 0 0 0 0 0 0 0 0 0 127 0" result="hardAlpha"/>
<feOffset/>
<feGaussianBlur stdDeviation="3"/>
<feComposite in2="hardAlpha" operator="out"/>
<feColorMatrix type="matrix" values="0 0 0 0 0.243137 0 0 0 0 0.588235 0 0 0 0 0.956863 0 0 0 0.25 0"/>
<feBlend mode="normal" in2="BackgroundImageFix" result="effect1_dropShadow_0_366"/>
<feBlend mode="normal" in="SourceGraphic" in2="effect1_dropShadow_0_366" result="shape"/>
</filter>
<linearGradient id="paint0_linear_0_366" x1="87.5912" y1="86.1293" x2="27.665" y2="15.2677" gradientUnits="userSpaceOnUse">
<stop stop-color="#D6EAFF"/>
<stop offset="1" stop-color="white"/>
</linearGradient>
</defs>
</svg>
