<svg width="117" height="15" viewBox="0 0 117 15" fill="none" xmlns="http://www.w3.org/2000/svg">
<path d="M11.9696 3.45431C12.8332 4.58589 13.5479 5.83659 14.1137 7.17662V0H8.03885C9.498 0.80402 10.838 1.96538 11.9696 3.45431Z" fill="#387ED1"/>
<path d="M3.21608 0.775391C2.0845 0.775391 1.01247 1.01362 0 1.4603V14.146H13.5195C13.4003 6.76088 8.81444 0.775391 3.21608 0.775391Z" fill="#387ED1"/>
<path d="M22.2148 11.9712L29.7786 2.82915H22.4531V0.833984H32.6969V2.50158L25.1331 11.6436H32.6969V13.6388H22.2148V11.9712Z" fill="#387ED1"/>
<path d="M35.4961 0.833984H44.9954V2.85893H37.7593V6.16434H44.1914V8.18928H37.7593V11.6138H45.0848V13.6388H35.5259V0.833984H35.4961Z" fill="#387ED1"/>
<path d="M47.7656 0.833984H53.4831C54.2871 0.833984 55.0018 0.9531 55.6272 1.16155C56.2525 1.39978 56.7587 1.69756 57.1756 2.11446C57.5032 2.4718 57.7712 2.88871 57.9499 3.33538C58.1286 3.81184 58.2179 4.31807 58.2179 4.88387V4.91365C58.2179 5.44966 58.1286 5.89633 57.9797 6.34301C57.8308 6.75991 57.6223 7.14704 57.3543 7.44482C57.0863 7.77238 56.7587 8.04039 56.4014 8.27862C56.0441 8.51684 55.6272 8.66574 55.1805 8.81463L58.6348 13.6685H55.9845L52.828 9.20175H52.7982H49.999V13.6685H47.7656V0.833984ZM53.3044 7.17681C54.1084 7.17681 54.7636 6.99814 55.24 6.61102C55.7165 6.2239 55.9547 5.68789 55.9547 5.03276V5.00298C55.9547 4.31807 55.7165 3.78206 55.2698 3.42472C54.7934 3.06738 54.1382 2.88871 53.3044 2.88871H50.0288V7.20659H53.3044V7.17681Z" fill="#387ED1"/>
<path d="M67.0908 13.8764C66.1081 13.8764 65.2147 13.6978 64.3809 13.3702C63.5769 13.0129 62.8622 12.5364 62.2667 11.9408C61.6711 11.3453 61.2244 10.6306 60.8969 9.85634C60.5693 9.05232 60.3906 8.21853 60.3906 7.29539V7.26561C60.3906 6.37226 60.5693 5.50868 60.8969 4.70466C61.2244 3.90064 61.7009 3.21573 62.2964 2.59038C62.892 1.99481 63.6067 1.51836 64.4107 1.16101C65.2147 0.803672 66.1379 0.625 67.1206 0.625C68.1033 0.625 68.9966 0.803672 69.8304 1.16101C70.6344 1.51836 71.3491 1.99481 71.9447 2.59038C72.5403 3.18596 72.9869 3.90064 73.3145 4.67488C73.6421 5.4789 73.8207 6.3127 73.8207 7.23583V7.26561C73.8207 8.15897 73.6421 9.02255 73.3145 9.82657C72.9869 10.6306 72.5105 11.3155 71.9149 11.9408C71.3193 12.5364 70.6047 13.0129 69.8006 13.3702C68.9966 13.6978 68.1033 13.8764 67.0908 13.8764ZM67.1503 11.7919C67.7757 11.7919 68.3713 11.6728 68.8775 11.4346C69.4135 11.1964 69.8602 10.8688 70.2473 10.4519C70.6344 10.035 70.9322 9.55856 71.1407 9.02254C71.3491 8.48653 71.4682 7.89096 71.4682 7.26561V7.23583C71.4682 6.61048 71.3491 6.01491 71.1407 5.4789C70.9322 4.91311 70.6344 4.43665 70.2473 4.01975C69.8602 3.60286 69.4135 3.27529 68.8775 3.03706C68.3415 2.79883 67.7459 2.67972 67.1206 2.67972C66.4952 2.67972 65.8996 2.79883 65.3934 3.03706C64.8574 3.27529 64.4107 3.60286 64.0236 4.01975C63.6365 4.43665 63.3387 4.91311 63.1302 5.44912C62.9218 5.98513 62.8027 6.58071 62.8027 7.20606V7.23583C62.8027 7.86118 62.9218 8.45675 63.1302 8.99277C63.3387 9.55856 63.6365 10.035 64.0236 10.4519C64.4107 10.8688 64.8574 11.1964 65.3934 11.4346C65.9294 11.6728 66.4952 11.7919 67.1503 11.7919Z" fill="#387ED1"/>
<path d="M76.5293 0.833984H81.2939C82.3063 0.833984 83.1997 0.982879 84.0335 1.31044C84.8673 1.63801 85.582 2.08468 86.1775 2.65048C86.7731 3.21627 87.2496 3.90118 87.5771 4.67542C87.9047 5.44966 88.0834 6.28346 88.0834 7.17681V7.20659C88.0834 8.09995 87.9047 8.96352 87.5771 9.73777C87.2496 10.512 86.7731 11.1969 86.1775 11.7627C85.582 12.3285 84.8673 12.7752 84.0335 13.1027C83.1997 13.4303 82.2766 13.609 81.2939 13.609H76.5293V0.833984ZM81.2939 11.6138C81.9788 11.6138 82.5743 11.4947 83.1104 11.2862C83.6464 11.0778 84.1228 10.78 84.5099 10.3929C84.8971 10.0058 85.1949 9.55909 85.4033 9.02308C85.6118 8.48707 85.7309 7.92128 85.7309 7.29593V7.26615C85.7309 6.6408 85.6118 6.04523 85.4033 5.50922C85.1949 4.9732 84.8971 4.49674 84.5099 4.10962C84.1228 3.7225 83.6464 3.42472 83.1104 3.18649C82.5743 2.97804 81.949 2.85893 81.2939 2.85893H78.7627V11.6138H81.2939Z" fill="#387ED1"/>
<path d="M90.8555 0.833984H93.0889V6.16434H99.2232V0.833984H101.457V13.6388H99.2232V8.24884H93.0889V13.6388H90.8555V0.833984Z" fill="#387ED1"/>
<path d="M109.288 0.744141H111.373L117.001 13.6382H114.619L113.308 10.5413H107.263L105.953 13.6382H103.66L109.288 0.744141ZM112.504 8.54611L110.301 3.42421L108.097 8.54611H112.504Z" fill="#387ED1"/>
</svg>
